<?xml version="1.0" encoding="UTF-8" standalone="no"?>
<!DOCTYPE svg PUBLIC "-//W3C//DTD SVG 1.1//EN"
 "http://www.w3.org/Graphics/SVG/1.1/DTD/svg11.dtd">
<!-- Generated by graphviz version 2.38.0 (20140413.2041)
 -->
<!-- Title: %3 Pages: 1 -->
<svg width="1285pt" height="143pt"
 viewBox="0.00 0.00 1284.75 142.99" xmlns="http://www.w3.org/2000/svg" xmlns:xlink="http://www.w3.org/1999/xlink">
<g id="graph0" class="graph" transform="scale(1 1) rotate(0) translate(4 138.995)">
<title>%3</title>
<polygon fill="white" stroke="none" points="-4,4 -4,-138.995 1280.75,-138.995 1280.75,4 -4,4"/>
<!-- &#45;1 -->
<g id="node1" class="node"><title>&#45;1</title>
<polygon fill="lightgray" stroke="black" points="24,-119.246 0,-119.246 0,-101.246 24,-101.246 24,-119.246"/>
<text text-anchor="middle" x="12" y="-108.046" font-family="Times,serif" font-size="9.00">&#45;1</text>
</g>
<!-- &#45;2 -->
<g id="node2" class="node"><title>&#45;2</title>
<polygon fill="lightgray" stroke="black" points="66,-119.246 42,-119.246 42,-101.246 66,-101.246 66,-119.246"/>
<text text-anchor="middle" x="54" y="-108.046" font-family="Times,serif" font-size="9.00">&#45;2</text>
</g>
<!-- &#45;3 -->
<g id="node3" class="node"><title>&#45;3</title>
<polygon fill="lightgray" stroke="black" points="108,-119.246 84,-119.246 84,-101.246 108,-101.246 108,-119.246"/>
<text text-anchor="middle" x="96" y="-108.046" font-family="Times,serif" font-size="9.00">&#45;3</text>
</g>
<!-- &#45;4 -->
<g id="node4" class="node"><title>&#45;4</title>
<polygon fill="lightgray" stroke="black" points="150,-119.246 126,-119.246 126,-101.246 150,-101.246 150,-119.246"/>
<text text-anchor="middle" x="138" y="-108.046" font-family="Times,serif" font-size="9.00">&#45;4</text>
</g>
<!-- 2 -->
<g id="node27" class="node"><title>2</title>
<ellipse fill="lightblue" stroke="black" cx="159" cy="-24.7487" rx="14.7" ry="14.7"/>
<text text-anchor="middle" x="159" y="-22.5487" font-family="Times,serif" font-size="9.00">2</text>
</g>
<!-- &#45;4&#45;&gt;2 -->
<g id="edge1" class="edge"><title>&#45;4&#45;&gt;2</title>
<path fill="none" stroke="green" stroke-width="1.00487" d="M140.014,-101.24C142.989,-89.4093 148.68,-66.7806 153.059,-49.3709"/>
<polygon fill="green" stroke="green" stroke-width="1.00487" points="156.535,-49.9001 155.58,-39.3484 149.746,-48.1927 156.535,-49.9001"/>
</g>
<!-- &#45;5 -->
<g id="node5" class="node"><title>&#45;5</title>
<polygon fill="lightgray" stroke="black" points="234,-119.246 210,-119.246 210,-101.246 234,-101.246 234,-119.246"/>
<text text-anchor="middle" x="222" y="-108.046" font-family="Times,serif" font-size="9.00">&#45;5</text>
</g>
<!-- &#45;6 -->
<g id="node6" class="node"><title>&#45;6</title>
<polygon fill="lightgray" stroke="black" points="276,-119.246 252,-119.246 252,-101.246 276,-101.246 276,-119.246"/>
<text text-anchor="middle" x="264" y="-108.046" font-family="Times,serif" font-size="9.00">&#45;6</text>
</g>
<!-- &#45;7 -->
<g id="node7" class="node"><title>&#45;7</title>
<polygon fill="lightgray" stroke="black" points="318,-119.246 294,-119.246 294,-101.246 318,-101.246 318,-119.246"/>
<text text-anchor="middle" x="306" y="-108.046" font-family="Times,serif" font-size="9.00">&#45;7</text>
</g>
<!-- &#45;8 -->
<g id="node8" class="node"><title>&#45;8</title>
<polygon fill="lightgray" stroke="black" points="192,-119.246 168,-119.246 168,-101.246 192,-101.246 192,-119.246"/>
<text text-anchor="middle" x="180" y="-108.046" font-family="Times,serif" font-size="9.00">&#45;8</text>
</g>
<!-- &#45;8&#45;&gt;2 -->
<g id="edge5" class="edge"><title>&#45;8&#45;&gt;2</title>
<path fill="none" stroke="green" stroke-width="1.08409" d="M177.986,-101.24C175.011,-89.4093 169.32,-66.7806 164.941,-49.3709"/>
<polygon fill="green" stroke="green" stroke-width="1.08409" points="168.254,-48.1927 162.42,-39.3484 161.465,-49.9001 168.254,-48.1927"/>
</g>
<!-- &#45;9 -->
<g id="node9" class="node"><title>&#45;9</title>
<polygon fill="lightgray" stroke="black" points="360,-119.246 336,-119.246 336,-101.246 360,-101.246 360,-119.246"/>
<text text-anchor="middle" x="348" y="-108.046" font-family="Times,serif" font-size="9.00">&#45;9</text>
</g>
<!-- &#45;10 -->
<g id="node10" class="node"><title>&#45;10</title>
<polygon fill="lightgray" stroke="black" points="407.5,-119.246 378.5,-119.246 378.5,-101.246 407.5,-101.246 407.5,-119.246"/>
<text text-anchor="middle" x="393" y="-108.046" font-family="Times,serif" font-size="9.00">&#45;10</text>
</g>
<!-- &#45;11 -->
<g id="node11" class="node"><title>&#45;11</title>
<polygon fill="lightgray" stroke="black" points="454.5,-119.246 425.5,-119.246 425.5,-101.246 454.5,-101.246 454.5,-119.246"/>
<text text-anchor="middle" x="440" y="-108.046" font-family="Times,serif" font-size="9.00">&#45;11</text>
</g>
<!-- &#45;12 -->
<g id="node12" class="node"><title>&#45;12</title>
<polygon fill="lightgray" stroke="black" points="501.5,-119.246 472.5,-119.246 472.5,-101.246 501.5,-101.246 501.5,-119.246"/>
<text text-anchor="middle" x="487" y="-108.046" font-family="Times,serif" font-size="9.00">&#45;12</text>
</g>
<!-- &#45;13 -->
<g id="node13" class="node"><title>&#45;13</title>
<polygon fill="lightgray" stroke="black" points="548.5,-119.246 519.5,-119.246 519.5,-101.246 548.5,-101.246 548.5,-119.246"/>
<text text-anchor="middle" x="534" y="-108.046" font-family="Times,serif" font-size="9.00">&#45;13</text>
</g>
<!-- &#45;14 -->
<g id="node14" class="node"><title>&#45;14</title>
<polygon fill="lightgray" stroke="black" points="595.5,-119.246 566.5,-119.246 566.5,-101.246 595.5,-101.246 595.5,-119.246"/>
<text text-anchor="middle" x="581" y="-108.046" font-family="Times,serif" font-size="9.00">&#45;14</text>
</g>
<!-- &#45;15 -->
<g id="node15" class="node"><title>&#45;15</title>
<polygon fill="lightgray" stroke="black" points="642.5,-119.246 613.5,-119.246 613.5,-101.246 642.5,-101.246 642.5,-119.246"/>
<text text-anchor="middle" x="628" y="-108.046" font-family="Times,serif" font-size="9.00">&#45;15</text>
</g>
<!-- &#45;16 -->
<g id="node16" class="node"><title>&#45;16</title>
<polygon fill="lightgray" stroke="black" points="689.5,-119.246 660.5,-119.246 660.5,-101.246 689.5,-101.246 689.5,-119.246"/>
<text text-anchor="middle" x="675" y="-108.046" font-family="Times,serif" font-size="9.00">&#45;16</text>
</g>
<!-- &#45;17 -->
<g id="node17" class="node"><title>&#45;17</title>
<polygon fill="lightgray" stroke="black" points="736.5,-119.246 707.5,-119.246 707.5,-101.246 736.5,-101.246 736.5,-119.246"/>
<text text-anchor="middle" x="722" y="-108.046" font-family="Times,serif" font-size="9.00">&#45;17</text>
</g>
<!-- &#45;18 -->
<g id="node18" class="node"><title>&#45;18</title>
<polygon fill="lightgray" stroke="black" points="783.5,-119.246 754.5,-119.246 754.5,-101.246 783.5,-101.246 783.5,-119.246"/>
<text text-anchor="middle" x="769" y="-108.046" font-family="Times,serif" font-size="9.00">&#45;18</text>
</g>
<!-- &#45;19 -->
<g id="node19" class="node"><title>&#45;19</title>
<polygon fill="lightgray" stroke="black" points="830.5,-119.246 801.5,-119.246 801.5,-101.246 830.5,-101.246 830.5,-119.246"/>
<text text-anchor="middle" x="816" y="-108.046" font-family="Times,serif" font-size="9.00">&#45;19</text>
</g>
<!-- &#45;20 -->
<g id="node20" class="node"><title>&#45;20</title>
<polygon fill="lightgray" stroke="black" points="877.5,-119.246 848.5,-119.246 848.5,-101.246 877.5,-101.246 877.5,-119.246"/>
<text text-anchor="middle" x="863" y="-108.046" font-family="Times,serif" font-size="9.00">&#45;20</text>
</g>
<!-- &#45;21 -->
<g id="node21" class="node"><title>&#45;21</title>
<polygon fill="lightgray" stroke="black" points="924.5,-119.246 895.5,-119.246 895.5,-101.246 924.5,-101.246 924.5,-119.246"/>
<text text-anchor="middle" x="910" y="-108.046" font-family="Times,serif" font-size="9.00">&#45;21</text>
</g>
<!-- &#45;22 -->
<g id="node22" class="node"><title>&#45;22</title>
<polygon fill="lightgray" stroke="black" points="971.5,-119.246 942.5,-119.246 942.5,-101.246 971.5,-101.246 971.5,-119.246"/>
<text text-anchor="middle" x="957" y="-108.046" font-family="Times,serif" font-size="9.00">&#45;22</text>
</g>
<!-- &#45;23 -->
<g id="node23" class="node"><title>&#45;23</title>
<polygon fill="lightgray" stroke="black" points="1018.5,-119.246 989.5,-119.246 989.5,-101.246 1018.5,-101.246 1018.5,-119.246"/>
<text text-anchor="middle" x="1004" y="-108.046" font-family="Times,serif" font-size="9.00">&#45;23</text>
</g>
<!-- &#45;24 -->
<g id="node24" class="node"><title>&#45;24</title>
<polygon fill="lightgray" stroke="black" points="1065.5,-119.246 1036.5,-119.246 1036.5,-101.246 1065.5,-101.246 1065.5,-119.246"/>
<text text-anchor="middle" x="1051" y="-108.046" font-family="Times,serif" font-size="9.00">&#45;24</text>
</g>
<!-- 258 -->
<g id="node29" class="node"><title>258</title>
<ellipse fill="white" stroke="black" cx="1001" cy="-24.7487" rx="21.4286" ry="21.4286"/>
<text text-anchor="middle" x="1001" y="-22.5487" font-family="Times,serif" font-size="9.00">258</text>
</g>
<!-- &#45;24&#45;&gt;258 -->
<g id="edge3" class="edge"><title>&#45;24&#45;&gt;258</title>
<path fill="none" stroke="red" stroke-width="0.222852" stroke-dasharray="1,5" d="M1046.21,-101.24C1039.52,-90.0815 1027.09,-69.3173 1016.95,-52.3861"/>
<polygon fill="red" stroke="red" stroke-width="0.222852" points="1019.75,-50.2409 1011.61,-43.4596 1013.74,-53.8371 1019.75,-50.2409"/>
</g>
<!-- 6423 -->
<g id="node32" class="node"><title>6423</title>
<ellipse fill="white" stroke="black" cx="1065" cy="-24.7487" rx="25" ry="25"/>
<text text-anchor="middle" x="1065" y="-22.5487" font-family="Times,serif" font-size="9.00">6423</text>
</g>
<!-- &#45;24&#45;&gt;6423 -->
<g id="edge4" class="edge"><title>&#45;24&#45;&gt;6423</title>
<path fill="none" stroke="green" stroke-width="0.26744" d="M1052.34,-101.24C1053.95,-91.6224 1056.76,-74.8687 1059.33,-59.584"/>
<polygon fill="green" stroke="green" stroke-width="0.26744" points="1062.84,-59.7838 1061.04,-49.3427 1055.94,-58.6262 1062.84,-59.7838"/>
</g>
<!-- 0 -->
<g id="node25" class="node"><title>0</title>
<ellipse fill="lightblue" stroke="black" cx="1098" cy="-110.246" rx="14.7" ry="14.7"/>
<text text-anchor="middle" x="1098" y="-108.046" font-family="Times,serif" font-size="9.00">0</text>
</g>
<!-- 1 -->
<g id="node26" class="node"><title>1</title>
<ellipse fill="lightblue" stroke="black" cx="1146" cy="-110.246" rx="14.7" ry="14.7"/>
<text text-anchor="middle" x="1146" y="-108.046" font-family="Times,serif" font-size="9.00">1</text>
</g>
<!-- 2518 -->
<g id="node31" class="node"><title>2518</title>
<ellipse fill="white" stroke="black" cx="1146" cy="-24.7487" rx="25" ry="25"/>
<text text-anchor="middle" x="1146" y="-22.5487" font-family="Times,serif" font-size="9.00">2518</text>
</g>
<!-- 1&#45;&gt;2518 -->
<g id="edge2" class="edge"><title>1&#45;&gt;2518</title>
<path fill="none" stroke="red" stroke-width="0.409686" d="M1146,-95.082C1146,-85.413 1146,-72.1709 1146,-59.8491"/>
<polygon fill="red" stroke="red" stroke-width="0.409686" points="1149.5,-59.8139 1146,-49.8139 1142.5,-59.8139 1149.5,-59.8139"/>
</g>
<!-- 3 -->
<g id="node28" class="node"><title>3</title>
<ellipse fill="lightblue" stroke="black" cx="1194" cy="-110.246" rx="14.7" ry="14.7"/>
<text text-anchor="middle" x="1194" y="-108.046" font-family="Times,serif" font-size="9.00">3</text>
</g>
<!-- 5888 -->
<g id="node30" class="node"><title>5888</title>
<ellipse fill="white" stroke="black" cx="1252" cy="-110.246" rx="25" ry="25"/>
<text text-anchor="middle" x="1252" y="-108.046" font-family="Times,serif" font-size="9.00">5888</text>
</g>
</g>
</svg>
