<?xml version="1.0" encoding="UTF-8" standalone="no"?>
<!DOCTYPE svg PUBLIC "-//W3C//DTD SVG 1.1//EN"
 "http://www.w3.org/Graphics/SVG/1.1/DTD/svg11.dtd">
<!-- Generated by graphviz version 2.38.0 (20140413.2041)
 -->
<!-- Title: %3 Pages: 1 -->
<svg width="1155pt" height="245pt"
 viewBox="0.00 0.00 1154.58 245.46" xmlns="http://www.w3.org/2000/svg" xmlns:xlink="http://www.w3.org/1999/xlink">
<g id="graph0" class="graph" transform="scale(1 1) rotate(0) translate(4 241.463)">
<title>%3</title>
<polygon fill="white" stroke="none" points="-4,4 -4,-241.463 1150.58,-241.463 1150.58,4 -4,4"/>
<!-- &#45;1 -->
<g id="node1" class="node"><title>&#45;1</title>
<polygon fill="lightgray" stroke="black" points="24,-218.886 0,-218.886 0,-200.886 24,-200.886 24,-218.886"/>
<text text-anchor="middle" x="12" y="-207.686" font-family="Times,serif" font-size="9.00">&#45;1</text>
</g>
<!-- &#45;2 -->
<g id="node2" class="node"><title>&#45;2</title>
<polygon fill="lightgray" stroke="black" points="66,-218.886 42,-218.886 42,-200.886 66,-200.886 66,-218.886"/>
<text text-anchor="middle" x="54" y="-207.686" font-family="Times,serif" font-size="9.00">&#45;2</text>
</g>
<!-- 2 -->
<g id="node27" class="node"><title>2</title>
<ellipse fill="lightblue" stroke="black" cx="76" cy="-118.731" rx="14.7" ry="14.7"/>
<text text-anchor="middle" x="76" y="-116.531" font-family="Times,serif" font-size="9.00">2</text>
</g>
<!-- &#45;2&#45;&gt;2 -->
<g id="edge5" class="edge"><title>&#45;2&#45;&gt;2</title>
<path fill="none" stroke="green" stroke-width="0.533323" d="M56.0303,-200.658C59.2254,-187.71 65.5448,-162.101 70.2229,-143.143"/>
<polygon fill="green" stroke="green" stroke-width="0.533323" points="73.625,-143.965 72.6227,-133.418 66.8288,-142.288 73.625,-143.965"/>
</g>
<!-- &#45;3 -->
<g id="node3" class="node"><title>&#45;3</title>
<polygon fill="lightgray" stroke="black" points="202,-218.886 178,-218.886 178,-200.886 202,-200.886 202,-218.886"/>
<text text-anchor="middle" x="190" y="-207.686" font-family="Times,serif" font-size="9.00">&#45;3</text>
</g>
<!-- &#45;4 -->
<g id="node4" class="node"><title>&#45;4</title>
<polygon fill="lightgray" stroke="black" points="291,-218.886 267,-218.886 267,-200.886 291,-200.886 291,-218.886"/>
<text text-anchor="middle" x="279" y="-207.686" font-family="Times,serif" font-size="9.00">&#45;4</text>
</g>
<!-- &#45;5 -->
<g id="node5" class="node"><title>&#45;5</title>
<polygon fill="lightgray" stroke="black" points="133,-127.731 109,-127.731 109,-109.731 133,-109.731 133,-127.731"/>
<text text-anchor="middle" x="121" y="-116.531" font-family="Times,serif" font-size="9.00">&#45;5</text>
</g>
<!-- 38171 -->
<g id="node32" class="node"><title>38171</title>
<ellipse fill="white" stroke="black" cx="144" cy="-27.5772" rx="27.6545" ry="27.6545"/>
<text text-anchor="middle" x="144" y="-25.3772" font-family="Times,serif" font-size="9.00">38171</text>
</g>
<!-- &#45;5&#45;&gt;38171 -->
<g id="edge3" class="edge"><title>&#45;5&#45;&gt;38171</title>
<path fill="none" stroke="red" stroke-width="0.238261" stroke-dasharray="1,5" d="M123.123,-109.504C125.775,-99.2228 130.486,-80.9598 134.763,-64.3821"/>
<polygon fill="red" stroke="red" stroke-width="0.238261" points="138.238,-64.9216 137.347,-54.3643 131.46,-63.1729 138.238,-64.9216"/>
</g>
<!-- &#45;6 -->
<g id="node6" class="node"><title>&#45;6</title>
<polygon fill="lightgray" stroke="black" points="446,-218.886 422,-218.886 422,-200.886 446,-200.886 446,-218.886"/>
<text text-anchor="middle" x="434" y="-207.686" font-family="Times,serif" font-size="9.00">&#45;6</text>
</g>
<!-- &#45;7 -->
<g id="node7" class="node"><title>&#45;7</title>
<polygon fill="lightgray" stroke="black" points="488,-218.886 464,-218.886 464,-200.886 488,-200.886 488,-218.886"/>
<text text-anchor="middle" x="476" y="-207.686" font-family="Times,serif" font-size="9.00">&#45;7</text>
</g>
<!-- &#45;8 -->
<g id="node8" class="node"><title>&#45;8</title>
<polygon fill="lightgray" stroke="black" points="530,-218.886 506,-218.886 506,-200.886 530,-200.886 530,-218.886"/>
<text text-anchor="middle" x="518" y="-207.686" font-family="Times,serif" font-size="9.00">&#45;8</text>
</g>
<!-- &#45;9 -->
<g id="node9" class="node"><title>&#45;9</title>
<polygon fill="lightgray" stroke="black" points="356,-218.886 332,-218.886 332,-200.886 356,-200.886 356,-218.886"/>
<text text-anchor="middle" x="344" y="-207.686" font-family="Times,serif" font-size="9.00">&#45;9</text>
</g>
<!-- 37041 -->
<g id="node31" class="node"><title>37041</title>
<ellipse fill="white" stroke="black" cx="367" cy="-118.731" rx="27.6545" ry="27.6545"/>
<text text-anchor="middle" x="367" y="-116.531" font-family="Times,serif" font-size="9.00">37041</text>
</g>
<!-- &#45;9&#45;&gt;37041 -->
<g id="edge4" class="edge"><title>&#45;9&#45;&gt;37041</title>
<path fill="none" stroke="green" stroke-width="0.387849" d="M346.123,-200.658C348.775,-190.377 353.486,-172.114 357.763,-155.536"/>
<polygon fill="green" stroke="green" stroke-width="0.387849" points="361.238,-156.076 360.347,-145.519 354.46,-154.327 361.238,-156.076"/>
</g>
<!-- &#45;10 -->
<g id="node10" class="node"><title>&#45;10</title>
<polygon fill="lightgray" stroke="black" points="227.5,-127.731 198.5,-127.731 198.5,-109.731 227.5,-109.731 227.5,-127.731"/>
<text text-anchor="middle" x="213" y="-116.531" font-family="Times,serif" font-size="9.00">&#45;10</text>
</g>
<!-- 1 -->
<g id="node26" class="node"><title>1</title>
<ellipse fill="lightblue" stroke="black" cx="260" cy="-27.5772" rx="14.7" ry="14.7"/>
<text text-anchor="middle" x="260" y="-25.3772" font-family="Times,serif" font-size="9.00">1</text>
</g>
<!-- &#45;10&#45;&gt;1 -->
<g id="edge12" class="edge"><title>&#45;10&#45;&gt;1</title>
<path fill="none" stroke="red" stroke-width="0.316318" stroke-dasharray="1,5" d="M217.337,-109.504C224.414,-96.0807 238.663,-69.0512 248.743,-49.9307"/>
<polygon fill="red" stroke="red" stroke-width="0.316318" points="251.873,-51.4989 253.44,-41.0206 245.681,-48.2344 251.873,-51.4989"/>
</g>
<!-- &#45;11 -->
<g id="node11" class="node"><title>&#45;11</title>
<polygon fill="lightgray" stroke="black" points="577.5,-218.886 548.5,-218.886 548.5,-200.886 577.5,-200.886 577.5,-218.886"/>
<text text-anchor="middle" x="563" y="-207.686" font-family="Times,serif" font-size="9.00">&#45;11</text>
</g>
<!-- &#45;12 -->
<g id="node12" class="node"><title>&#45;12</title>
<polygon fill="lightgray" stroke="black" points="624.5,-218.886 595.5,-218.886 595.5,-200.886 624.5,-200.886 624.5,-218.886"/>
<text text-anchor="middle" x="610" y="-207.686" font-family="Times,serif" font-size="9.00">&#45;12</text>
</g>
<!-- &#45;13 -->
<g id="node13" class="node"><title>&#45;13</title>
<polygon fill="lightgray" stroke="black" points="113.5,-218.886 84.5,-218.886 84.5,-200.886 113.5,-200.886 113.5,-218.886"/>
<text text-anchor="middle" x="99" y="-207.686" font-family="Times,serif" font-size="9.00">&#45;13</text>
</g>
<!-- &#45;13&#45;&gt;2 -->
<g id="edge6" class="edge"><title>&#45;13&#45;&gt;2</title>
<path fill="none" stroke="green" stroke-width="0.399219" stroke-dasharray="1,5" d="M96.8774,-200.658C93.537,-187.71 86.9304,-162.101 82.0397,-143.143"/>
<polygon fill="green" stroke="green" stroke-width="0.399219" points="85.4179,-142.226 79.5308,-133.418 78.6398,-143.975 85.4179,-142.226"/>
</g>
<!-- &#45;14 -->
<g id="node14" class="node"><title>&#45;14</title>
<polygon fill="lightgray" stroke="black" points="671.5,-218.886 642.5,-218.886 642.5,-200.886 671.5,-200.886 671.5,-218.886"/>
<text text-anchor="middle" x="657" y="-207.686" font-family="Times,serif" font-size="9.00">&#45;14</text>
</g>
<!-- 3 -->
<g id="node28" class="node"><title>3</title>
<ellipse fill="lightblue" stroke="black" cx="687" cy="-118.731" rx="14.7" ry="14.7"/>
<text text-anchor="middle" x="687" y="-116.531" font-family="Times,serif" font-size="9.00">3</text>
</g>
<!-- &#45;14&#45;&gt;3 -->
<g id="edge11" class="edge"><title>&#45;14&#45;&gt;3</title>
<path fill="none" stroke="green" stroke-width="0.164268" stroke-dasharray="1,5" d="M659.769,-200.658C664.15,-187.637 672.84,-161.813 679.229,-142.824"/>
<polygon fill="green" stroke="green" stroke-width="0.164268" points="682.629,-143.697 682.501,-133.103 675.994,-141.464 682.629,-143.697"/>
</g>
<!-- &#45;15 -->
<g id="node15" class="node"><title>&#45;15</title>
<polygon fill="lightgray" stroke="black" points="403.5,-218.886 374.5,-218.886 374.5,-200.886 403.5,-200.886 403.5,-218.886"/>
<text text-anchor="middle" x="389" y="-207.686" font-family="Times,serif" font-size="9.00">&#45;15</text>
</g>
<!-- &#45;15&#45;&gt;37041 -->
<g id="edge13" class="edge"><title>&#45;15&#45;&gt;37041</title>
<path fill="none" stroke="green" stroke-width="0.258051" d="M386.97,-200.658C384.45,-190.449 379.989,-172.367 375.921,-155.882"/>
<polygon fill="green" stroke="green" stroke-width="0.258051" points="379.253,-154.779 373.459,-145.908 372.457,-156.456 379.253,-154.779"/>
</g>
<!-- &#45;16 -->
<g id="node16" class="node"><title>&#45;16</title>
<polygon fill="lightgray" stroke="black" points="274.5,-127.731 245.5,-127.731 245.5,-109.731 274.5,-109.731 274.5,-127.731"/>
<text text-anchor="middle" x="260" y="-116.531" font-family="Times,serif" font-size="9.00">&#45;16</text>
</g>
<!-- &#45;16&#45;&gt;1 -->
<g id="edge8" class="edge"><title>&#45;16&#45;&gt;1</title>
<path fill="none" stroke="green" stroke-width="0.124873" d="M260,-109.504C260,-96.7475 260,-71.703 260,-52.8362"/>
<polygon fill="green" stroke="green" stroke-width="0.124873" points="263.5,-52.581 260,-42.5811 256.5,-52.5811 263.5,-52.581"/>
</g>
<!-- &#45;17 -->
<g id="node17" class="node"><title>&#45;17</title>
<polygon fill="lightgray" stroke="black" points="791.5,-218.886 762.5,-218.886 762.5,-200.886 791.5,-200.886 791.5,-218.886"/>
<text text-anchor="middle" x="777" y="-207.686" font-family="Times,serif" font-size="9.00">&#45;17</text>
</g>
<!-- &#45;18 -->
<g id="node18" class="node"><title>&#45;18</title>
<polygon fill="lightgray" stroke="black" points="838.5,-218.886 809.5,-218.886 809.5,-200.886 838.5,-200.886 838.5,-218.886"/>
<text text-anchor="middle" x="824" y="-207.686" font-family="Times,serif" font-size="9.00">&#45;18</text>
</g>
<!-- &#45;19 -->
<g id="node19" class="node"><title>&#45;19</title>
<polygon fill="lightgray" stroke="black" points="885.5,-218.886 856.5,-218.886 856.5,-200.886 885.5,-200.886 885.5,-218.886"/>
<text text-anchor="middle" x="871" y="-207.686" font-family="Times,serif" font-size="9.00">&#45;19</text>
</g>
<!-- &#45;20 -->
<g id="node20" class="node"><title>&#45;20</title>
<polygon fill="lightgray" stroke="black" points="321.5,-127.731 292.5,-127.731 292.5,-109.731 321.5,-109.731 321.5,-127.731"/>
<text text-anchor="middle" x="307" y="-116.531" font-family="Times,serif" font-size="9.00">&#45;20</text>
</g>
<!-- &#45;20&#45;&gt;1 -->
<g id="edge2" class="edge"><title>&#45;20&#45;&gt;1</title>
<path fill="none" stroke="red" stroke-width="0.279101" d="M302.663,-109.504C295.586,-96.0807 281.337,-69.0512 271.257,-49.9307"/>
<polygon fill="red" stroke="red" stroke-width="0.279101" points="274.319,-48.2344 266.56,-41.0206 268.127,-51.4989 274.319,-48.2344"/>
</g>
<!-- &#45;21 -->
<g id="node21" class="node"><title>&#45;21</title>
<polygon fill="lightgray" stroke="black" points="180.5,-127.731 151.5,-127.731 151.5,-109.731 180.5,-109.731 180.5,-127.731"/>
<text text-anchor="middle" x="166" y="-116.531" font-family="Times,serif" font-size="9.00">&#45;21</text>
</g>
<!-- &#45;21&#45;&gt;1 -->
<g id="edge9" class="edge"><title>&#45;21&#45;&gt;1</title>
<path fill="none" stroke="green" stroke-width="0.723348" stroke-dasharray="1,5" d="M172.573,-109.573C177.032,-104.181 183.159,-97.0489 189,-91.1543 205.629,-74.374 225.976,-56.7031 240.618,-44.4354"/>
<polygon fill="green" stroke="green" stroke-width="0.723348" points="243.051,-46.9648 248.509,-37.8843 238.579,-41.579 243.051,-46.9648"/>
</g>
<!-- &#45;21&#45;&gt;38171 -->
<g id="edge10" class="edge"><title>&#45;21&#45;&gt;38171</title>
<path fill="none" stroke="green" stroke-width="0.235437" d="M163.97,-109.504C161.45,-99.2942 156.989,-81.2131 152.921,-64.7277"/>
<polygon fill="green" stroke="green" stroke-width="0.235437" points="156.253,-63.6243 150.459,-54.754 149.457,-65.3014 156.253,-63.6243"/>
</g>
<!-- &#45;22 -->
<g id="node22" class="node"><title>&#45;22</title>
<polygon fill="lightgray" stroke="black" points="932.5,-218.886 903.5,-218.886 903.5,-200.886 932.5,-200.886 932.5,-218.886"/>
<text text-anchor="middle" x="918" y="-207.686" font-family="Times,serif" font-size="9.00">&#45;22</text>
</g>
<!-- &#45;23 -->
<g id="node23" class="node"><title>&#45;23</title>
<polygon fill="lightgray" stroke="black" points="979.5,-218.886 950.5,-218.886 950.5,-200.886 979.5,-200.886 979.5,-218.886"/>
<text text-anchor="middle" x="965" y="-207.686" font-family="Times,serif" font-size="9.00">&#45;23</text>
</g>
<!-- &#45;24 -->
<g id="node24" class="node"><title>&#45;24</title>
<polygon fill="lightgray" stroke="black" points="1026.5,-218.886 997.5,-218.886 997.5,-200.886 1026.5,-200.886 1026.5,-218.886"/>
<text text-anchor="middle" x="1012" y="-207.686" font-family="Times,serif" font-size="9.00">&#45;24</text>
</g>
<!-- 0 -->
<g id="node25" class="node"><title>0</title>
<ellipse fill="lightblue" stroke="black" cx="1059" cy="-209.886" rx="14.7" ry="14.7"/>
<text text-anchor="middle" x="1059" y="-207.686" font-family="Times,serif" font-size="9.00">0</text>
</g>
<!-- 37888 -->
<g id="node29" class="node"><title>37888</title>
<ellipse fill="white" stroke="black" cx="1119" cy="-209.886" rx="27.6545" ry="27.6545"/>
<text text-anchor="middle" x="1119" y="-207.686" font-family="Times,serif" font-size="9.00">37888</text>
</g>
<!-- 39912 -->
<g id="node30" class="node"><title>39912</title>
<ellipse fill="white" stroke="black" cx="717" cy="-209.886" rx="27.6545" ry="27.6545"/>
<text text-anchor="middle" x="717" y="-207.686" font-family="Times,serif" font-size="9.00">39912</text>
</g>
<!-- 39912&#45;&gt;3 -->
<g id="edge1" class="edge"><title>39912&#45;&gt;3</title>
<path fill="none" stroke="green" stroke-width="0.209644" d="M708.483,-183.576C704.153,-170.706 698.929,-155.183 694.717,-142.666"/>
<polygon fill="green" stroke="green" stroke-width="0.209644" points="697.965,-141.344 691.459,-132.983 691.331,-143.577 697.965,-141.344"/>
</g>
<!-- 37041&#45;&gt;1 -->
<g id="edge7" class="edge"><title>37041&#45;&gt;1</title>
<path fill="none" stroke="green" stroke-width="0.394835" d="M346.115,-100.33C326.601,-84.0705 297.726,-60.0108 278.885,-44.3128"/>
<polygon fill="green" stroke="green" stroke-width="0.394835" points="280.928,-41.4591 271.005,-37.7467 276.447,-46.837 280.928,-41.4591"/>
</g>
</g>
</svg>
