<?xml version="1.0" encoding="UTF-8" standalone="no"?>
<!DOCTYPE svg PUBLIC "-//W3C//DTD SVG 1.1//EN"
 "http://www.w3.org/Graphics/SVG/1.1/DTD/svg11.dtd">
<!-- Generated by graphviz version 2.38.0 (20140413.2041)
 -->
<!-- Title: %3 Pages: 1 -->
<svg width="1516pt" height="328pt"
 viewBox="0.00 0.00 1516.39 328.39" xmlns="http://www.w3.org/2000/svg" xmlns:xlink="http://www.w3.org/1999/xlink">
<g id="graph0" class="graph" transform="scale(1 1) rotate(0) translate(4 324.392)">
<title>%3</title>
<polygon fill="white" stroke="none" points="-4,4 -4,-324.392 1512.39,-324.392 1512.39,4 -4,4"/>
<!-- &#45;1 -->
<g id="node1" class="node"><title>&#45;1</title>
<polygon fill="lightgray" stroke="black" points="251.44,-250.643 227.44,-250.643 227.44,-232.643 251.44,-232.643 251.44,-250.643"/>
<text text-anchor="middle" x="239.44" y="-239.443" font-family="Times,serif" font-size="9.00">&#45;1</text>
</g>
<!-- 0 -->
<g id="node25" class="node"><title>0</title>
<ellipse fill="lightblue" stroke="black" cx="773.44" cy="-166.045" rx="14.7" ry="14.7"/>
<text text-anchor="middle" x="773.44" y="-163.845" font-family="Times,serif" font-size="9.00">0</text>
</g>
<!-- &#45;1&#45;&gt;0 -->
<g id="edge2" class="edge"><title>&#45;1&#45;&gt;0</title>
<path fill="none" stroke="green" stroke-width="0.69094" stroke-dasharray="1,5" d="M244.24,-232.591C247.94,-227.171 253.577,-220.396 260.44,-216.894 271.472,-211.266 647.287,-178.074 748.531,-169.217"/>
<polygon fill="green" stroke="green" stroke-width="0.69094" points="749.069,-172.683 758.726,-168.326 748.459,-165.71 749.069,-172.683"/>
</g>
<!-- 3 -->
<g id="node28" class="node"><title>3</title>
<ellipse fill="lightblue" stroke="black" cx="663.44" cy="-14.8492" rx="14.7" ry="14.7"/>
<text text-anchor="middle" x="663.44" y="-12.6492" font-family="Times,serif" font-size="9.00">3</text>
</g>
<!-- &#45;1&#45;&gt;3 -->
<g id="edge36" class="edge"><title>&#45;1&#45;&gt;3</title>
<path fill="none" stroke="green" stroke-width="0.500463" d="M245.936,-232.399C268.765,-204.046 348.748,-109.864 437.44,-65.6985 505.102,-32.0054 595.364,-20.9122 638.472,-17.3983"/>
<polygon fill="green" stroke="green" stroke-width="0.500463" points="638.899,-20.8762 648.611,-16.643 638.379,-13.8956 638.899,-20.8762"/>
</g>
<!-- &#45;2 -->
<g id="node2" class="node"><title>&#45;2</title>
<polygon fill="lightgray" stroke="black" points="103.44,-250.643 79.4403,-250.643 79.4403,-232.643 103.44,-232.643 103.44,-250.643"/>
<text text-anchor="middle" x="91.4403" y="-239.443" font-family="Times,serif" font-size="9.00">&#45;2</text>
</g>
<!-- 2 -->
<g id="node27" class="node"><title>2</title>
<ellipse fill="lightblue" stroke="black" cx="582.44" cy="-166.045" rx="14.7" ry="14.7"/>
<text text-anchor="middle" x="582.44" y="-163.845" font-family="Times,serif" font-size="9.00">2</text>
</g>
<!-- &#45;2&#45;&gt;2 -->
<g id="edge68" class="edge"><title>&#45;2&#45;&gt;2</title>
<path fill="none" stroke="red" stroke-width="0.165814" d="M96.2499,-232.609C99.9538,-227.198 105.592,-220.427 112.44,-216.894 191.211,-176.265 471.732,-168.709 557.407,-167.34"/>
<polygon fill="red" stroke="red" stroke-width="0.165814" points="557.569,-170.838 567.517,-167.193 557.467,-163.839 557.569,-170.838"/>
</g>
<!-- &#45;2&#45;&gt;3 -->
<g id="edge55" class="edge"><title>&#45;2&#45;&gt;3</title>
<path fill="none" stroke="green" stroke-width="0.530658" d="M97.5278,-232.608C101.461,-227.727 106.87,-221.559 112.44,-216.894 211.414,-134.016 239.411,-110.603 360.44,-65.6985 458.899,-29.1684 585.241,-19.3409 638.257,-16.7513"/>
<polygon fill="green" stroke="green" stroke-width="0.530658" points="638.585,-20.2403 648.421,-16.3015 638.276,-13.2471 638.585,-20.2403"/>
</g>
<!-- &#45;3 -->
<g id="node3" class="node"><title>&#45;3</title>
<polygon fill="lightgray" stroke="black" points="184.44,-320.392 160.44,-320.392 160.44,-302.392 184.44,-302.392 184.44,-320.392"/>
<text text-anchor="middle" x="172.44" y="-309.192" font-family="Times,serif" font-size="9.00">&#45;3</text>
</g>
<!-- 1 -->
<g id="node26" class="node"><title>1</title>
<ellipse fill="lightblue" stroke="black" cx="1057.44" cy="-166.045" rx="14.7" ry="14.7"/>
<text text-anchor="middle" x="1057.44" y="-163.845" font-family="Times,serif" font-size="9.00">1</text>
</g>
<!-- &#45;3&#45;&gt;1 -->
<g id="edge27" class="edge"><title>&#45;3&#45;&gt;1</title>
<path fill="none" stroke="green" stroke-width="0.315945" stroke-dasharray="1,5" d="M184.63,-309.59C208.168,-308.057 261.519,-304.664 306.44,-302.392 354.642,-299.954 1141.03,-301.219 1174.44,-266.392 1189.67,-250.517 1186.57,-235.247 1174.44,-216.894 1163.72,-200.676 1112.39,-183.183 1081.39,-173.843"/>
<polygon fill="green" stroke="green" stroke-width="0.315945" points="1082.32,-170.47 1071.74,-171.002 1080.35,-177.185 1082.32,-170.47"/>
</g>
<!-- &#45;3&#45;&gt;2 -->
<g id="edge61" class="edge"><title>&#45;3&#45;&gt;2</title>
<path fill="none" stroke="green" stroke-width="0.510704" stroke-dasharray="1,5" d="M173.814,-302.245C177.411,-283.672 188.949,-238.165 218.44,-216.894 272.937,-177.589 484.273,-169.216 557.384,-167.483"/>
<polygon fill="green" stroke="green" stroke-width="0.510704" points="557.589,-170.98 567.511,-167.266 557.438,-163.982 557.589,-170.98"/>
</g>
<!-- &#45;3&#45;&gt;3 -->
<g id="edge10" class="edge"><title>&#45;3&#45;&gt;3</title>
<path fill="none" stroke="green" stroke-width="0.159188" d="M160.197,-310.978C131.626,-311.593 60.6126,-308.598 29.4403,-266.392 -24.926,-192.782 -0.359617,-116.967 75.4403,-65.6985 122.67,-33.7537 532.42,-19.6707 638.468,-16.5414"/>
<polygon fill="green" stroke="green" stroke-width="0.159188" points="638.661,-20.0374 648.556,-16.25 638.459,-13.0403 638.661,-20.0374"/>
</g>
<!-- 4509 -->
<g id="node31" class="node"><title>4509</title>
<ellipse fill="white" stroke="black" cx="146.44" cy="-241.643" rx="25" ry="25"/>
<text text-anchor="middle" x="146.44" y="-239.443" font-family="Times,serif" font-size="9.00">4509</text>
</g>
<!-- &#45;3&#45;&gt;4509 -->
<g id="edge24" class="edge"><title>&#45;3&#45;&gt;4509</title>
<path fill="none" stroke="green" stroke-width="0.182635" d="M169.356,-302.354C166.657,-295.323 162.556,-284.636 158.565,-274.237"/>
<polygon fill="green" stroke="green" stroke-width="0.182635" points="161.825,-272.963 154.975,-264.881 155.29,-275.471 161.825,-272.963"/>
</g>
<!-- &#45;4 -->
<g id="node4" class="node"><title>&#45;4</title>
<polygon fill="lightgray" stroke="black" points="1259.44,-320.392 1235.44,-320.392 1235.44,-302.392 1259.44,-302.392 1259.44,-320.392"/>
<text text-anchor="middle" x="1247.44" y="-309.192" font-family="Times,serif" font-size="9.00">&#45;4</text>
</g>
<!-- &#45;4&#45;&gt;0 -->
<g id="edge72" class="edge"><title>&#45;4&#45;&gt;0</title>
<path fill="none" stroke="green" stroke-width="0.260751" stroke-dasharray="1,5" d="M1235.4,-310.112C1180.4,-308.656 953.165,-300.629 892.44,-266.392 868.044,-252.637 874.304,-235.579 853.44,-216.894 835.811,-201.106 812.569,-187.248 795.683,-178.177"/>
<polygon fill="green" stroke="green" stroke-width="0.260751" points="797.049,-174.942 786.565,-173.411 793.806,-181.146 797.049,-174.942"/>
</g>
<!-- &#45;4&#45;&gt;1 -->
<g id="edge41" class="edge"><title>&#45;4&#45;&gt;1</title>
<path fill="none" stroke="green" stroke-width="0.118156" stroke-dasharray="1,5" d="M1259.57,-306.501C1275.5,-300.66 1302.81,-287.946 1314.44,-266.392 1324.89,-247.032 1328.47,-233.836 1314.44,-216.894 1287.03,-183.8 1166.59,-189.244 1124.44,-180.894 1110.24,-178.082 1094.38,-174.808 1081.65,-172.15"/>
<polygon fill="green" stroke="green" stroke-width="0.118156" points="1082.31,-168.712 1071.8,-170.086 1080.87,-175.563 1082.31,-168.712"/>
</g>
<!-- &#45;4&#45;&gt;2 -->
<g id="edge7" class="edge"><title>&#45;4&#45;&gt;2</title>
<path fill="none" stroke="red" stroke-width="0.209942" d="M1235.39,-310.176C1139.11,-308.394 497.903,-295.454 470.44,-266.392 455.331,-250.403 458.458,-235.344 470.44,-216.894 489.596,-187.402 530.683,-175.214 557.41,-170.279"/>
<polygon fill="red" stroke="red" stroke-width="0.209942" points="558.239,-173.69 567.545,-168.625 557.112,-166.781 558.239,-173.69"/>
</g>
<!-- &#45;4&#45;&gt;3 -->
<g id="edge59" class="edge"><title>&#45;4&#45;&gt;3</title>
<path fill="none" stroke="green" stroke-width="0.632355" stroke-dasharray="1,5" d="M1259.75,-310.233C1305.98,-309.353 1468.15,-303.619 1499.44,-266.392 1513.6,-249.552 1508.25,-237.052 1499.44,-216.894 1492.86,-201.834 1345.12,-71.0752 1332.44,-65.6985 1213.08,-15.0961 795.397,-14.8054 688.507,-15.5898"/>
<polygon fill="green" stroke="green" stroke-width="0.632355" points="688.323,-12.0912 678.353,-15.675 688.382,-19.0909 688.323,-12.0912"/>
</g>
<!-- 4375 -->
<g id="node30" class="node"><title>4375</title>
<ellipse fill="white" stroke="black" cx="1247.44" cy="-241.643" rx="25" ry="25"/>
<text text-anchor="middle" x="1247.44" y="-239.443" font-family="Times,serif" font-size="9.00">4375</text>
</g>
<!-- &#45;4&#45;&gt;4375 -->
<g id="edge4" class="edge"><title>&#45;4&#45;&gt;4375</title>
<path fill="none" stroke="green" stroke-width="0.380901" stroke-dasharray="1,5" d="M1247.44,-302.354C1247.44,-295.919 1247.44,-286.421 1247.44,-276.885"/>
<polygon fill="green" stroke="green" stroke-width="0.380901" points="1250.94,-276.664 1247.44,-266.664 1243.94,-276.664 1250.94,-276.664"/>
</g>
<!-- &#45;5 -->
<g id="node5" class="node"><title>&#45;5</title>
<polygon fill="lightgray" stroke="black" points="583.44,-320.392 559.44,-320.392 559.44,-302.392 583.44,-302.392 583.44,-320.392"/>
<text text-anchor="middle" x="571.44" y="-309.192" font-family="Times,serif" font-size="9.00">&#45;5</text>
</g>
<!-- &#45;5&#45;&gt;1 -->
<g id="edge14" class="edge"><title>&#45;5&#45;&gt;1</title>
<path fill="none" stroke="red" stroke-width="0.20315" d="M583.597,-310.107C675.379,-307.902 1256.51,-292.91 1281.44,-266.392 1296.51,-250.363 1295.2,-234.057 1281.44,-216.894 1278.28,-212.953 1139.39,-183.939 1081.93,-172.077"/>
<polygon fill="red" stroke="red" stroke-width="0.20315" points="1082.39,-168.599 1071.89,-170.009 1080.98,-175.455 1082.39,-168.599"/>
</g>
<!-- &#45;5&#45;&gt;2 -->
<g id="edge82" class="edge"><title>&#45;5&#45;&gt;2</title>
<path fill="none" stroke="green" stroke-width="0.327716" stroke-dasharray="1,5" d="M559.252,-309.442C521.304,-306.206 406.493,-294.236 384.44,-266.392 370.782,-249.147 370.916,-234.245 384.44,-216.894 405.668,-189.66 509.261,-175.007 557.56,-169.559"/>
<polygon fill="green" stroke="green" stroke-width="0.327716" points="558.211,-173.009 567.775,-168.452 557.456,-166.05 558.211,-173.009"/>
</g>
<!-- &#45;5&#45;&gt;3 -->
<g id="edge32" class="edge"><title>&#45;5&#45;&gt;3</title>
<path fill="none" stroke="red" stroke-width="0.457294" d="M559.021,-309.772C483.401,-305.939 87.507,-285.023 70.4403,-266.392 55.5808,-250.17 61.2872,-236.899 70.4403,-216.894 113.207,-123.428 151.405,-107.2 245.44,-65.6985 316.802,-34.2042 559.779,-20.5729 638.561,-16.9123"/>
<polygon fill="red" stroke="red" stroke-width="0.457294" points="638.721,-20.4087 648.553,-16.4611 638.405,-13.4159 638.721,-20.4087"/>
</g>
<!-- 4318 -->
<g id="node32" class="node"><title>4318</title>
<ellipse fill="white" stroke="black" cx="773.44" cy="-241.643" rx="25" ry="25"/>
<text text-anchor="middle" x="773.44" y="-239.443" font-family="Times,serif" font-size="9.00">4318</text>
</g>
<!-- &#45;5&#45;&gt;4318 -->
<g id="edge53" class="edge"><title>&#45;5&#45;&gt;4318</title>
<path fill="none" stroke="green" stroke-width="0.203947" d="M583.754,-308.692C612.236,-304.441 684.429,-291.817 739.44,-266.392 741.511,-265.435 743.591,-264.351 745.644,-263.186"/>
<polygon fill="green" stroke="green" stroke-width="0.203947" points="747.77,-265.984 754.38,-257.704 744.049,-260.055 747.77,-265.984"/>
</g>
<!-- &#45;6 -->
<g id="node6" class="node"><title>&#45;6</title>
<polygon fill="lightgray" stroke="black" points="730.44,-250.643 706.44,-250.643 706.44,-232.643 730.44,-232.643 730.44,-250.643"/>
<text text-anchor="middle" x="718.44" y="-239.443" font-family="Times,serif" font-size="9.00">&#45;6</text>
</g>
<!-- &#45;6&#45;&gt;0 -->
<g id="edge57" class="edge"><title>&#45;6&#45;&gt;0</title>
<path fill="none" stroke="red" stroke-width="0.449368" d="M724.536,-232.486C732.766,-221.473 747.689,-201.504 758.893,-186.511"/>
<polygon fill="red" stroke="red" stroke-width="0.449368" points="761.8,-188.469 764.982,-178.363 756.192,-184.279 761.8,-188.469"/>
</g>
<!-- &#45;6&#45;&gt;1 -->
<g id="edge25" class="edge"><title>&#45;6&#45;&gt;1</title>
<path fill="none" stroke="red" stroke-width="0.666345" stroke-dasharray="1,5" d="M723.63,-232.251C727.359,-226.968 732.876,-220.49 739.44,-216.894 790.057,-189.169 966.009,-173.732 1032.09,-168.803"/>
<polygon fill="red" stroke="red" stroke-width="0.666345" points="1032.7,-172.269 1042.42,-168.053 1032.19,-165.287 1032.7,-172.269"/>
</g>
<!-- &#45;6&#45;&gt;2 -->
<g id="edge39" class="edge"><title>&#45;6&#45;&gt;2</title>
<path fill="none" stroke="red" stroke-width="0.899233" d="M712.571,-232.329C708.719,-227.343 703.32,-221.162 697.44,-216.894 669.061,-196.295 630.84,-181.876 606.414,-174.02"/>
<polygon fill="red" stroke="red" stroke-width="0.899233" points="607.141,-170.581 596.553,-170.964 605.069,-177.267 607.141,-170.581"/>
</g>
<!-- &#45;7 -->
<g id="node7" class="node"><title>&#45;7</title>
<polygon fill="lightgray" stroke="black" points="688.44,-250.643 664.44,-250.643 664.44,-232.643 688.44,-232.643 688.44,-250.643"/>
<text text-anchor="middle" x="676.44" y="-239.443" font-family="Times,serif" font-size="9.00">&#45;7</text>
</g>
<!-- &#45;7&#45;&gt;0 -->
<g id="edge51" class="edge"><title>&#45;7&#45;&gt;0</title>
<path fill="none" stroke="green" stroke-width="0.149135" stroke-dasharray="1,5" d="M682.946,-232.227C686.865,-227.443 692.115,-221.506 697.44,-216.894 714.333,-202.268 735.792,-188.57 751.597,-179.248"/>
<polygon fill="green" stroke="green" stroke-width="0.149135" points="753.705,-182.072 760.615,-174.041 750.205,-176.01 753.705,-182.072"/>
</g>
<!-- &#45;7&#45;&gt;1 -->
<g id="edge81" class="edge"><title>&#45;7&#45;&gt;1</title>
<path fill="none" stroke="red" stroke-width="0.363762" d="M681.609,-232.212C685.329,-226.913 690.844,-220.431 697.44,-216.894 755.766,-185.621 960.238,-172.128 1032.17,-168.275"/>
<polygon fill="red" stroke="red" stroke-width="0.363762" points="1032.73,-171.751 1042.54,-167.738 1032.37,-164.76 1032.73,-171.751"/>
</g>
<!-- &#45;7&#45;&gt;2 -->
<g id="edge31" class="edge"><title>&#45;7&#45;&gt;2</title>
<path fill="none" stroke="green" stroke-width="0.898825" d="M669.516,-232.305C665.374,-227.546 659.874,-221.609 654.44,-216.894 638.273,-202.868 618.113,-189.194 603.241,-179.725"/>
<polygon fill="green" stroke="green" stroke-width="0.898825" points="605.081,-176.748 594.748,-174.408 601.367,-182.681 605.081,-176.748"/>
</g>
<!-- &#45;8 -->
<g id="node8" class="node"><title>&#45;8</title>
<polygon fill="lightgray" stroke="black" points="551.44,-250.643 527.44,-250.643 527.44,-232.643 551.44,-232.643 551.44,-250.643"/>
<text text-anchor="middle" x="539.44" y="-239.443" font-family="Times,serif" font-size="9.00">&#45;8</text>
</g>
<!-- &#45;8&#45;&gt;0 -->
<g id="edge44" class="edge"><title>&#45;8&#45;&gt;0</title>
<path fill="none" stroke="red" stroke-width="0.150363" d="M544.721,-232.41C548.489,-227.195 554.014,-220.732 560.44,-216.894 621.353,-180.521 706.786,-170.688 748.52,-168.03"/>
<polygon fill="red" stroke="red" stroke-width="0.150363" points="748.819,-171.519 758.612,-167.475 748.435,-164.529 748.819,-171.519"/>
</g>
<!-- &#45;8&#45;&gt;1 -->
<g id="edge11" class="edge"><title>&#45;8&#45;&gt;1</title>
<path fill="none" stroke="green" stroke-width="0.338122" d="M544.244,-232.597C547.945,-227.18 553.582,-220.407 560.44,-216.894 602.759,-195.219 937.338,-174.096 1032.36,-168.487"/>
<polygon fill="green" stroke="green" stroke-width="0.338122" points="1032.7,-171.973 1042.48,-167.895 1032.3,-164.985 1032.7,-171.973"/>
</g>
<!-- &#45;8&#45;&gt;2 -->
<g id="edge62" class="edge"><title>&#45;8&#45;&gt;2</title>
<path fill="none" stroke="green" stroke-width="0.704172" stroke-dasharray="1,5" d="M544.206,-232.486C550.413,-221.863 561.488,-202.908 570.126,-188.122"/>
<polygon fill="green" stroke="green" stroke-width="0.704172" points="573.352,-189.538 575.375,-179.138 567.308,-186.007 573.352,-189.538"/>
</g>
<!-- &#45;8&#45;&gt;3 -->
<g id="edge28" class="edge"><title>&#45;8&#45;&gt;3</title>
<path fill="none" stroke="red" stroke-width="0.291395" d="M539.962,-232.361C541.248,-216.095 545.474,-179.132 558.44,-151.196 580.601,-103.451 622.309,-57.0299 645.942,-32.9239"/>
<polygon fill="red" stroke="red" stroke-width="0.291395" points="648.628,-35.1875 653.21,-25.6347 643.671,-30.2451 648.628,-35.1875"/>
</g>
<!-- &#45;9 -->
<g id="node9" class="node"><title>&#45;9</title>
<polygon fill="lightgray" stroke="black" points="339.44,-320.392 315.44,-320.392 315.44,-302.392 339.44,-302.392 339.44,-320.392"/>
<text text-anchor="middle" x="327.44" y="-309.192" font-family="Times,serif" font-size="9.00">&#45;9</text>
</g>
<!-- &#45;9&#45;&gt;2 -->
<g id="edge5" class="edge"><title>&#45;9&#45;&gt;2</title>
<path fill="none" stroke="red" stroke-width="0.269983" d="M328.742,-302.174C332.092,-283.856 342.776,-239.511 370.44,-216.894 425.508,-171.875 514.126,-166.102 557.247,-166.205"/>
<polygon fill="red" stroke="red" stroke-width="0.269983" points="557.374,-169.707 567.421,-166.344 557.47,-162.708 557.374,-169.707"/>
</g>
<!-- &#45;9&#45;&gt;3 -->
<g id="edge40" class="edge"><title>&#45;9&#45;&gt;3</title>
<path fill="none" stroke="green" stroke-width="0.457562" d="M315.321,-309.332C265.019,-304.815 74.5142,-286.473 57.4403,-266.392 -5.53222,-192.326 60.8191,-115.284 144.44,-65.6985 229.359,-15.3437 546.378,-14.609 638.307,-15.4934"/>
<polygon fill="green" stroke="green" stroke-width="0.457562" points="638.332,-18.9938 648.371,-15.606 638.411,-11.9942 638.332,-18.9938"/>
</g>
<!-- &#45;9&#45;&gt;4375 -->
<g id="edge69" class="edge"><title>&#45;9&#45;&gt;4375</title>
<path fill="none" stroke="green" stroke-width="0.248536" d="M339.571,-309.957C442.372,-306.25 1164.94,-279.774 1208.44,-266.392 1211.98,-265.302 1215.53,-263.819 1218.97,-262.121"/>
<polygon fill="green" stroke="green" stroke-width="0.248536" points="1220.68,-265.175 1227.71,-257.252 1217.27,-259.059 1220.68,-265.175"/>
</g>
<!-- &#45;10 -->
<g id="node10" class="node"><title>&#45;10</title>
<polygon fill="lightgray" stroke="black" points="508.94,-250.643 479.94,-250.643 479.94,-232.643 508.94,-232.643 508.94,-250.643"/>
<text text-anchor="middle" x="494.44" y="-239.443" font-family="Times,serif" font-size="9.00">&#45;10</text>
</g>
<!-- &#45;10&#45;&gt;0 -->
<g id="edge63" class="edge"><title>&#45;10&#45;&gt;0</title>
<path fill="none" stroke="red" stroke-width="0.335453" stroke-dasharray="1,5" d="M500.672,-232.338C505.061,-227.092 511.394,-220.622 518.44,-216.894 595.198,-176.288 700.709,-168.564 748.327,-167.23"/>
<polygon fill="red" stroke="red" stroke-width="0.335453" points="748.434,-170.728 758.359,-167.022 748.289,-163.73 748.434,-170.728"/>
</g>
<!-- &#45;10&#45;&gt;2 -->
<g id="edge47" class="edge"><title>&#45;10&#45;&gt;2</title>
<path fill="none" stroke="green" stroke-width="0.286397" stroke-dasharray="1,5" d="M502.213,-232.483C506.804,-227.784 512.804,-221.847 518.44,-216.894 532.71,-204.356 549.708,-191.192 562.599,-181.543"/>
<polygon fill="green" stroke="green" stroke-width="0.286397" points="564.835,-184.242 570.784,-175.475 560.666,-178.619 564.835,-184.242"/>
</g>
<!-- &#45;11 -->
<g id="node11" class="node"><title>&#45;11</title>
<polygon fill="lightgray" stroke="black" points="598.94,-250.643 569.94,-250.643 569.94,-232.643 598.94,-232.643 598.94,-250.643"/>
<text text-anchor="middle" x="584.44" y="-239.443" font-family="Times,serif" font-size="9.00">&#45;11</text>
</g>
<!-- &#45;11&#45;&gt;0 -->
<g id="edge56" class="edge"><title>&#45;11&#45;&gt;0</title>
<path fill="none" stroke="red" stroke-width="0.729706" stroke-dasharray="1,5" d="M590.468,-232.555C594.697,-227.401 600.772,-220.952 607.44,-216.894 652.905,-189.234 714.78,-176 748.691,-170.461"/>
<polygon fill="red" stroke="red" stroke-width="0.729706" points="749.312,-173.907 758.662,-168.925 748.246,-166.989 749.312,-173.907"/>
</g>
<!-- &#45;11&#45;&gt;1 -->
<g id="edge3" class="edge"><title>&#45;11&#45;&gt;1</title>
<path fill="none" stroke="green" stroke-width="0.977533" d="M589.884,-232.613C594.023,-227.203 600.225,-220.432 607.44,-216.894 683.258,-179.72 948.782,-169.832 1032.18,-167.614"/>
<polygon fill="green" stroke="green" stroke-width="0.977533" points="1032.37,-171.11 1042.28,-167.359 1032.19,-164.112 1032.37,-171.11"/>
</g>
<!-- &#45;11&#45;&gt;2 -->
<g id="edge38" class="edge"><title>&#45;11&#45;&gt;2</title>
<path fill="none" stroke="green" stroke-width="0.425118" d="M584.219,-232.486C583.95,-222.584 583.484,-205.443 583.096,-191.187"/>
<polygon fill="green" stroke="green" stroke-width="0.425118" points="586.59,-190.917 582.82,-181.016 579.593,-191.107 586.59,-190.917"/>
</g>
<!-- &#45;11&#45;&gt;3 -->
<g id="edge70" class="edge"><title>&#45;11&#45;&gt;3</title>
<path fill="none" stroke="green" stroke-width="0.123097" stroke-dasharray="1,5" d="M587.482,-232.544C591.776,-221.073 599.829,-199.426 606.44,-180.894 615.983,-154.144 642.095,-78.1276 655.407,-39.2994"/>
<polygon fill="green" stroke="green" stroke-width="0.123097" points="658.867,-40.0005 658.798,-29.4058 652.245,-37.7309 658.867,-40.0005"/>
</g>
<!-- &#45;12 -->
<g id="node12" class="node"><title>&#45;12</title>
<polygon fill="lightgray" stroke="black" points="1165.94,-250.643 1136.94,-250.643 1136.94,-232.643 1165.94,-232.643 1165.94,-250.643"/>
<text text-anchor="middle" x="1151.44" y="-239.443" font-family="Times,serif" font-size="9.00">&#45;12</text>
</g>
<!-- &#45;12&#45;&gt;0 -->
<g id="edge50" class="edge"><title>&#45;12&#45;&gt;0</title>
<path fill="none" stroke="green" stroke-width="0.268252" stroke-dasharray="1,5" d="M1145.27,-232.214C1140.91,-226.915 1134.58,-220.434 1127.44,-216.894 1069.24,-188.058 869.576,-173.053 798.67,-168.538"/>
<polygon fill="green" stroke="green" stroke-width="0.268252" points="798.635,-165.029 788.437,-167.903 798.201,-172.015 798.635,-165.029"/>
</g>
<!-- &#45;12&#45;&gt;1 -->
<g id="edge20" class="edge"><title>&#45;12&#45;&gt;1</title>
<path fill="none" stroke="green" stroke-width="0.424387" stroke-dasharray="1,5" d="M1143.75,-232.392C1139.18,-227.662 1133.18,-221.725 1127.44,-216.894 1111.71,-203.657 1092.63,-190.226 1078.36,-180.645"/>
<polygon fill="green" stroke="green" stroke-width="0.424387" points="1080.04,-177.556 1069.77,-174.946 1076.17,-183.39 1080.04,-177.556"/>
</g>
<!-- &#45;12&#45;&gt;3 -->
<g id="edge35" class="edge"><title>&#45;12&#45;&gt;3</title>
<path fill="none" stroke="green" stroke-width="0.28954" d="M1147.04,-232.636C1137.29,-215.551 1112.28,-175.134 1081.44,-151.196 955.886,-53.7553 757.82,-25.2709 688.442,-18.0433"/>
<polygon fill="green" stroke="green" stroke-width="0.28954" points="688.737,-14.5555 678.443,-17.0585 688.051,-21.5218 688.737,-14.5555"/>
</g>
<!-- &#45;13 -->
<g id="node13" class="node"><title>&#45;13</title>
<polygon fill="lightgray" stroke="black" points="1395.94,-250.643 1366.94,-250.643 1366.94,-232.643 1395.94,-232.643 1395.94,-250.643"/>
<text text-anchor="middle" x="1381.44" y="-239.443" font-family="Times,serif" font-size="9.00">&#45;13</text>
</g>
<!-- &#45;13&#45;&gt;0 -->
<g id="edge43" class="edge"><title>&#45;13&#45;&gt;0</title>
<path fill="none" stroke="green" stroke-width="0.350993" stroke-dasharray="1,5" d="M1366.66,-236.469C1347.26,-231.142 1312.06,-222.009 1281.44,-216.894 1097.7,-186.207 873.189,-172.305 798.75,-168.314"/>
<polygon fill="green" stroke="green" stroke-width="0.350993" points="798.668,-164.805 788.498,-167.777 798.301,-171.795 798.668,-164.805"/>
</g>
<!-- &#45;13&#45;&gt;1 -->
<g id="edge75" class="edge"><title>&#45;13&#45;&gt;1</title>
<path fill="none" stroke="red" stroke-width="0.338327" d="M1373.62,-232.267C1368.2,-226.991 1360.52,-220.514 1352.44,-216.894 1258.83,-174.933 1225.37,-199.283 1124.44,-180.894 1110.2,-178.3 1094.33,-175.037 1081.62,-172.33"/>
<polygon fill="red" stroke="red" stroke-width="0.338327" points="1082.29,-168.895 1071.78,-170.214 1080.82,-175.739 1082.29,-168.895"/>
</g>
<!-- &#45;13&#45;&gt;3 -->
<g id="edge9" class="edge"><title>&#45;13&#45;&gt;3</title>
<path fill="none" stroke="green" stroke-width="0.556135" stroke-dasharray="1,5" d="M1366.94,-233.418C1357.22,-228.628 1344.12,-222.261 1332.44,-216.894 1327.65,-214.695 989.502,-67.1648 984.44,-65.6985 877.002,-34.5754 743.363,-21.7562 688.61,-17.5602"/>
<polygon fill="green" stroke="green" stroke-width="0.556135" points="688.681,-14.056 678.451,-16.8126 688.167,-21.0372 688.681,-14.056"/>
</g>
<!-- &#45;14 -->
<g id="node14" class="node"><title>&#45;14</title>
<polygon fill="lightgray" stroke="black" points="1489.94,-250.643 1460.94,-250.643 1460.94,-232.643 1489.94,-232.643 1489.94,-250.643"/>
<text text-anchor="middle" x="1475.44" y="-239.443" font-family="Times,serif" font-size="9.00">&#45;14</text>
</g>
<!-- &#45;14&#45;&gt;1 -->
<g id="edge83" class="edge"><title>&#45;14&#45;&gt;1</title>
<path fill="none" stroke="red" stroke-width="0.218231" d="M1469.62,-232.181C1465.48,-226.869 1459.42,-220.384 1452.44,-216.894 1386.88,-184.129 1158.87,-171.44 1082.55,-168.051"/>
<polygon fill="red" stroke="red" stroke-width="0.218231" points="1082.57,-164.548 1072.43,-167.617 1082.27,-171.542 1082.57,-164.548"/>
</g>
<!-- &#45;14&#45;&gt;2 -->
<g id="edge17" class="edge"><title>&#45;14&#45;&gt;2</title>
<path fill="none" stroke="red" stroke-width="0.275384" d="M1470.06,-232.48C1465.95,-227.008 1459.76,-220.217 1452.44,-216.894 1381.23,-184.554 827.479,-186.127 749.44,-180.894 698.846,-177.502 639.733,-172.309 607.153,-169.34"/>
<polygon fill="red" stroke="red" stroke-width="0.275384" points="607.451,-165.853 597.173,-168.424 606.811,-172.823 607.451,-165.853"/>
</g>
<!-- &#45;14&#45;&gt;3 -->
<g id="edge66" class="edge"><title>&#45;14&#45;&gt;3</title>
<path fill="none" stroke="green" stroke-width="0.818423" stroke-dasharray="1,5" d="M1469.59,-232.322C1448.35,-202.876 1371.67,-103.362 1280.44,-65.6985 1170.69,-20.3883 790.72,-16.158 688.777,-15.8487"/>
<polygon fill="green" stroke="green" stroke-width="0.818423" points="688.52,-12.3483 678.513,-15.8285 688.506,-19.3483 688.52,-12.3483"/>
</g>
<!-- 2898 -->
<g id="node29" class="node"><title>2898</title>
<ellipse fill="white" stroke="black" cx="1191.44" cy="-90.4472" rx="25" ry="25"/>
<text text-anchor="middle" x="1191.44" y="-88.2472" font-family="Times,serif" font-size="9.00">2898</text>
</g>
<!-- &#45;14&#45;&gt;2898 -->
<g id="edge54" class="edge"><title>&#45;14&#45;&gt;2898</title>
<path fill="none" stroke="red" stroke-width="0.14011" d="M1468.8,-232.444C1464.51,-227.501 1458.59,-221.326 1452.44,-216.894 1377.51,-162.864 1275.68,-121.766 1224.17,-102.873"/>
<polygon fill="red" stroke="red" stroke-width="0.14011" points="1225.15,-99.5072 1214.56,-99.3925 1222.77,-106.089 1225.15,-99.5072"/>
</g>
<!-- &#45;15 -->
<g id="node15" class="node"><title>&#45;15</title>
<polygon fill="lightgray" stroke="black" points="844.94,-250.643 815.94,-250.643 815.94,-232.643 844.94,-232.643 844.94,-250.643"/>
<text text-anchor="middle" x="830.44" y="-239.443" font-family="Times,serif" font-size="9.00">&#45;15</text>
</g>
<!-- &#45;15&#45;&gt;1 -->
<g id="edge58" class="edge"><title>&#45;15&#45;&gt;1</title>
<path fill="none" stroke="green" stroke-width="1.28756" stroke-dasharray="1,5" d="M845.113,-234.678C857.607,-229.682 876.081,-222.491 892.44,-216.894 942.045,-199.926 1001.03,-182.836 1033.33,-173.738"/>
<polygon fill="green" stroke="green" stroke-width="1.28756" points="1034.52,-177.039 1043.2,-170.97 1032.63,-170.298 1034.52,-177.039"/>
</g>
<!-- &#45;15&#45;&gt;2 -->
<g id="edge6" class="edge"><title>&#45;15&#45;&gt;2</title>
<path fill="none" stroke="green" stroke-width="0.146069" d="M824.508,-232.391C820.319,-227.168 814.254,-220.703 807.44,-216.894 741.74,-180.169 651.097,-170.5 607.649,-167.955"/>
<polygon fill="green" stroke="green" stroke-width="0.146069" points="607.587,-164.447 597.423,-167.439 607.234,-171.438 607.587,-164.447"/>
</g>
<!-- &#45;16 -->
<g id="node16" class="node"><title>&#45;16</title>
<polygon fill="lightgray" stroke="black" points="1118.94,-250.643 1089.94,-250.643 1089.94,-232.643 1118.94,-232.643 1118.94,-250.643"/>
<text text-anchor="middle" x="1104.44" y="-239.443" font-family="Times,serif" font-size="9.00">&#45;16</text>
</g>
<!-- &#45;16&#45;&gt;0 -->
<g id="edge22" class="edge"><title>&#45;16&#45;&gt;0</title>
<path fill="none" stroke="green" stroke-width="0.268182" d="M1098.25,-232.263C1093.88,-226.985 1087.55,-220.509 1080.44,-216.894 1030.85,-191.669 862.159,-174.753 798.253,-169.115"/>
<polygon fill="green" stroke="green" stroke-width="0.268182" points="798.522,-165.625 788.258,-168.25 797.919,-172.599 798.522,-165.625"/>
</g>
<!-- &#45;16&#45;&gt;1 -->
<g id="edge71" class="edge"><title>&#45;16&#45;&gt;1</title>
<path fill="none" stroke="green" stroke-width="0.507117" d="M1099.23,-232.486C1092.34,-221.7 1079.97,-202.323 1070.47,-187.444"/>
<polygon fill="green" stroke="green" stroke-width="0.507117" points="1073.33,-185.422 1065,-178.878 1067.43,-189.189 1073.33,-185.422"/>
</g>
<!-- &#45;17 -->
<g id="node17" class="node"><title>&#45;17</title>
<polygon fill="lightgray" stroke="black" points="1442.94,-250.643 1413.94,-250.643 1413.94,-232.643 1442.94,-232.643 1442.94,-250.643"/>
<text text-anchor="middle" x="1428.44" y="-239.443" font-family="Times,serif" font-size="9.00">&#45;17</text>
</g>
<!-- &#45;17&#45;&gt;0 -->
<g id="edge49" class="edge"><title>&#45;17&#45;&gt;0</title>
<path fill="none" stroke="green" stroke-width="0.344117" d="M1423.03,-232.542C1418.91,-227.099 1412.71,-220.318 1405.44,-216.894 1377.49,-203.736 912.429,-175.314 798.487,-168.524"/>
<polygon fill="green" stroke="green" stroke-width="0.344117" points="798.491,-165.018 788.301,-167.919 798.076,-172.006 798.491,-165.018"/>
</g>
<!-- &#45;17&#45;&gt;1 -->
<g id="edge80" class="edge"><title>&#45;17&#45;&gt;1</title>
<path fill="none" stroke="red" stroke-width="0.340217" stroke-dasharray="1,5" d="M1422.6,-232.219C1418.45,-226.923 1412.39,-220.442 1405.44,-216.894 1348.55,-187.863 1152.06,-172.981 1082.27,-168.518"/>
<polygon fill="red" stroke="red" stroke-width="0.340217" points="1082.4,-165.019 1072.2,-167.891 1081.97,-172.006 1082.4,-165.019"/>
</g>
<!-- &#45;17&#45;&gt;3 -->
<g id="edge18" class="edge"><title>&#45;17&#45;&gt;3</title>
<path fill="none" stroke="green" stroke-width="0.371556" d="M1422.23,-232.395C1399.71,-203.196 1318.68,-104.414 1225.44,-65.6985 1126.24,-24.5082 784.534,-17.3072 688.642,-16.0893"/>
<polygon fill="green" stroke="green" stroke-width="0.371556" points="688.478,-12.5872 678.438,-15.971 688.397,-19.5868 688.478,-12.5872"/>
</g>
<!-- &#45;18 -->
<g id="node18" class="node"><title>&#45;18</title>
<polygon fill="lightgray" stroke="black" points="645.94,-250.643 616.94,-250.643 616.94,-232.643 645.94,-232.643 645.94,-250.643"/>
<text text-anchor="middle" x="631.44" y="-239.443" font-family="Times,serif" font-size="9.00">&#45;18</text>
</g>
<!-- &#45;18&#45;&gt;0 -->
<g id="edge42" class="edge"><title>&#45;18&#45;&gt;0</title>
<path fill="none" stroke="red" stroke-width="0.640921" d="M638.352,-232.355C642.831,-227.378 649.011,-221.199 655.44,-216.894 685.355,-196.868 724.619,-182.237 749.447,-174.185"/>
<polygon fill="red" stroke="red" stroke-width="0.640921" points="750.644,-177.477 759.135,-171.14 748.545,-170.799 750.644,-177.477"/>
</g>
<!-- &#45;18&#45;&gt;1 -->
<g id="edge8" class="edge"><title>&#45;18&#45;&gt;1</title>
<path fill="none" stroke="green" stroke-width="0.115589" d="M637.21,-232.64C641.572,-227.244 648.057,-220.477 655.44,-216.894 722.681,-184.268 955.379,-171.456 1032.44,-168.046"/>
<polygon fill="green" stroke="green" stroke-width="0.115589" points="1032.8,-171.534 1042.64,-167.61 1032.5,-164.541 1032.8,-171.534"/>
</g>
<!-- &#45;18&#45;&gt;2 -->
<g id="edge23" class="edge"><title>&#45;18&#45;&gt;2</title>
<path fill="none" stroke="green" stroke-width="0.257462" d="M626.009,-232.486C618.828,-221.7 605.928,-202.323 596.021,-187.444"/>
<polygon fill="green" stroke="green" stroke-width="0.257462" points="598.773,-185.262 590.318,-178.878 592.947,-189.141 598.773,-185.262"/>
</g>
<!-- &#45;18&#45;&gt;3 -->
<g id="edge73" class="edge"><title>&#45;18&#45;&gt;3</title>
<path fill="none" stroke="green" stroke-width="0.507472" d="M632.579,-232.643C636.978,-201.74 652.967,-89.4237 660.037,-39.7538"/>
<polygon fill="green" stroke="green" stroke-width="0.507472" points="663.535,-40.0149 661.48,-29.6214 656.605,-39.0283 663.535,-40.0149"/>
</g>
<!-- &#45;19 -->
<g id="node19" class="node"><title>&#45;19</title>
<polygon fill="lightgray" stroke="black" points="977.94,-250.643 948.94,-250.643 948.94,-232.643 977.94,-232.643 977.94,-250.643"/>
<text text-anchor="middle" x="963.44" y="-239.443" font-family="Times,serif" font-size="9.00">&#45;19</text>
</g>
<!-- &#45;19&#45;&gt;0 -->
<g id="edge33" class="edge"><title>&#45;19&#45;&gt;0</title>
<path fill="none" stroke="green" stroke-width="0.209543" d="M957.088,-232.553C952.649,-227.398 946.304,-220.949 939.44,-216.894 890.764,-188.142 871.516,-197.382 817.44,-180.894 810.805,-178.871 803.622,-176.632 797.022,-174.554"/>
<polygon fill="green" stroke="green" stroke-width="0.209543" points="797.882,-171.155 787.292,-171.475 795.771,-177.829 797.882,-171.155"/>
</g>
<!-- &#45;19&#45;&gt;1 -->
<g id="edge64" class="edge"><title>&#45;19&#45;&gt;1</title>
<path fill="none" stroke="green" stroke-width="0.709695" d="M970.75,-232.347C975.103,-227.603 980.853,-221.665 986.44,-216.894 1002.32,-203.336 1021.82,-189.843 1036.37,-180.321"/>
<polygon fill="green" stroke="green" stroke-width="0.709695" points="1038.61,-183.037 1045.12,-174.677 1034.82,-177.154 1038.61,-183.037"/>
</g>
<!-- &#45;19&#45;&gt;2 -->
<g id="edge74" class="edge"><title>&#45;19&#45;&gt;2</title>
<path fill="none" stroke="green" stroke-width="0.422304" d="M957.274,-232.211C952.913,-226.911 946.586,-220.43 939.44,-216.894 909.635,-202.149 683.23,-177.526 607.229,-169.592"/>
<polygon fill="green" stroke="green" stroke-width="0.422304" points="607.457,-166.097 597.149,-168.545 606.734,-173.059 607.457,-166.097"/>
</g>
<!-- &#45;19&#45;&gt;3 -->
<g id="edge48" class="edge"><title>&#45;19&#45;&gt;3</title>
<path fill="none" stroke="green" stroke-width="0.405058" d="M955.802,-232.325C951.255,-227.573 945.255,-221.636 939.44,-216.894 917.086,-198.666 909.022,-197.505 885.44,-180.894 809.47,-127.383 721.52,-60.4784 683.097,-30.9944"/>
<polygon fill="green" stroke="green" stroke-width="0.405058" points="684.905,-27.9694 674.843,-24.6511 680.64,-33.5198 684.905,-27.9694"/>
</g>
<!-- &#45;20 -->
<g id="node20" class="node"><title>&#45;20</title>
<polygon fill="lightgray" stroke="black" points="1024.94,-250.643 995.94,-250.643 995.94,-232.643 1024.94,-232.643 1024.94,-250.643"/>
<text text-anchor="middle" x="1010.44" y="-239.443" font-family="Times,serif" font-size="9.00">&#45;20</text>
</g>
<!-- &#45;20&#45;&gt;0 -->
<g id="edge26" class="edge"><title>&#45;20&#45;&gt;0</title>
<path fill="none" stroke="green" stroke-width="0.440814" d="M1004.16,-232.423C999.755,-227.213 993.417,-220.751 986.44,-216.894 924.503,-182.654 839.875,-171.848 798.408,-168.503"/>
<polygon fill="green" stroke="green" stroke-width="0.440814" points="798.6,-165.008 788.373,-167.774 798.093,-171.99 798.6,-165.008"/>
</g>
<!-- &#45;20&#45;&gt;1 -->
<g id="edge77" class="edge"><title>&#45;20&#45;&gt;1</title>
<path fill="none" stroke="green" stroke-width="0.51334" stroke-dasharray="1,5" d="M1015.65,-232.486C1022.54,-221.7 1034.91,-202.323 1044.41,-187.444"/>
<polygon fill="green" stroke="green" stroke-width="0.51334" points="1047.45,-189.189 1049.88,-178.878 1041.55,-185.422 1047.45,-189.189"/>
</g>
<!-- &#45;20&#45;&gt;2 -->
<g id="edge46" class="edge"><title>&#45;20&#45;&gt;2</title>
<path fill="none" stroke="green" stroke-width="0.386327" stroke-dasharray="1,5" d="M1004.67,-232.639C1000.31,-227.242 993.825,-220.475 986.44,-216.894 952.208,-200.297 689.727,-176.352 607.196,-169.163"/>
<polygon fill="green" stroke="green" stroke-width="0.386327" points="607.469,-165.674 597.204,-168.298 606.865,-172.648 607.469,-165.674"/>
</g>
<!-- &#45;20&#45;&gt;3 -->
<g id="edge13" class="edge"><title>&#45;20&#45;&gt;3</title>
<path fill="none" stroke="green" stroke-width="0.464821" d="M1002.74,-232.398C998.174,-227.671 992.174,-221.734 986.44,-216.894 898.272,-142.488 875.544,-123.049 775.44,-65.6985 746.001,-48.8328 709.797,-33.6424 686.669,-24.5806"/>
<polygon fill="green" stroke="green" stroke-width="0.464821" points="687.913,-21.3095 677.324,-20.9747 685.393,-27.8402 687.913,-21.3095"/>
</g>
<!-- &#45;21 -->
<g id="node21" class="node"><title>&#45;21</title>
<polygon fill="lightgray" stroke="black" points="930.94,-250.643 901.94,-250.643 901.94,-232.643 930.94,-232.643 930.94,-250.643"/>
<text text-anchor="middle" x="916.44" y="-239.443" font-family="Times,serif" font-size="9.00">&#45;21</text>
</g>
<!-- &#45;21&#45;&gt;0 -->
<g id="edge21" class="edge"><title>&#45;21&#45;&gt;0</title>
<path fill="none" stroke="green" stroke-width="0.398055" d="M907.777,-232.481C902.248,-227.552 894.767,-221.378 887.44,-216.894 857.909,-198.821 820.669,-183.838 796.949,-175.161"/>
<polygon fill="green" stroke="green" stroke-width="0.398055" points="797.97,-171.809 787.376,-171.733 795.611,-178.399 797.97,-171.809"/>
</g>
<!-- &#45;21&#45;&gt;1 -->
<g id="edge52" class="edge"><title>&#45;21&#45;&gt;1</title>
<path fill="none" stroke="red" stroke-width="0.284044" d="M923.002,-232.339C927.27,-227.356 933.19,-221.176 939.44,-216.894 969.141,-196.551 1008.46,-182.003 1033.36,-174.056"/>
<polygon fill="red" stroke="red" stroke-width="0.284044" points="1034.56,-177.35 1043.08,-171.056 1032.49,-170.661 1034.56,-177.35"/>
</g>
<!-- &#45;21&#45;&gt;2 -->
<g id="edge37" class="edge"><title>&#45;21&#45;&gt;2</title>
<path fill="none" stroke="green" stroke-width="0.145014" d="M901.921,-234.321C889.308,-229.036 870.445,-221.623 853.44,-216.894 764.288,-192.106 655.141,-176.317 607.115,-170.08"/>
<polygon fill="green" stroke="green" stroke-width="0.145014" points="607.405,-166.589 597.043,-168.797 606.52,-173.533 607.405,-166.589"/>
</g>
<!-- &#45;22 -->
<g id="node22" class="node"><title>&#45;22</title>
<polygon fill="lightgray" stroke="black" points="422.94,-250.643 393.94,-250.643 393.94,-232.643 422.94,-232.643 422.94,-250.643"/>
<text text-anchor="middle" x="408.44" y="-239.443" font-family="Times,serif" font-size="9.00">&#45;22</text>
</g>
<!-- &#45;22&#45;&gt;0 -->
<g id="edge12" class="edge"><title>&#45;22&#45;&gt;0</title>
<path fill="none" stroke="green" stroke-width="0.211136" d="M422.943,-234.124C435.334,-228.79 453.752,-221.413 470.44,-216.894 571.807,-189.447 696.582,-174.724 748.721,-169.395"/>
<polygon fill="green" stroke="green" stroke-width="0.211136" points="749.106,-172.874 758.709,-168.399 748.411,-165.909 749.106,-172.874"/>
</g>
<!-- &#45;22&#45;&gt;2 -->
<g id="edge76" class="edge"><title>&#45;22&#45;&gt;2</title>
<path fill="none" stroke="red" stroke-width="0.348996" d="M416.98,-232.27C422.462,-227.261 429.938,-221.078 437.44,-216.894 477.197,-194.726 528.538,-179.932 558.248,-172.551"/>
<polygon fill="red" stroke="red" stroke-width="0.348996" points="559.25,-175.91 568.154,-170.167 557.613,-169.104 559.25,-175.91"/>
</g>
<!-- &#45;22&#45;&gt;3 -->
<g id="edge45" class="edge"><title>&#45;22&#45;&gt;3</title>
<path fill="none" stroke="green" stroke-width="0.350649" d="M414.787,-232.54C435.739,-206.147 505.416,-121.16 576.44,-65.6985 596.909,-49.7145 623.067,-35.4308 641.332,-26.2941"/>
<polygon fill="green" stroke="green" stroke-width="0.350649" points="642.894,-29.4267 650.337,-21.8866 639.816,-23.1395 642.894,-29.4267"/>
</g>
<!-- &#45;23 -->
<g id="node23" class="node"><title>&#45;23</title>
<polygon fill="lightgray" stroke="black" points="1071.94,-250.643 1042.94,-250.643 1042.94,-232.643 1071.94,-232.643 1071.94,-250.643"/>
<text text-anchor="middle" x="1057.44" y="-239.443" font-family="Times,serif" font-size="9.00">&#45;23</text>
</g>
<!-- &#45;23&#45;&gt;0 -->
<g id="edge1" class="edge"><title>&#45;23&#45;&gt;0</title>
<path fill="none" stroke="red" stroke-width="0.399034" d="M1051.21,-232.33C1046.83,-227.08 1040.49,-220.61 1033.44,-216.894 954.969,-175.563 847.069,-168.218 798.693,-167.106"/>
<polygon fill="red" stroke="red" stroke-width="0.399034" points="798.567,-163.604 788.514,-166.947 798.457,-170.603 798.567,-163.604"/>
</g>
<!-- &#45;23&#45;&gt;1 -->
<g id="edge34" class="edge"><title>&#45;23&#45;&gt;1</title>
<path fill="none" stroke="red" stroke-width="0.434314" d="M1057.44,-232.486C1057.44,-222.584 1057.44,-205.443 1057.44,-191.187"/>
<polygon fill="red" stroke="red" stroke-width="0.434314" points="1060.94,-191.016 1057.44,-181.016 1053.94,-191.016 1060.94,-191.016"/>
</g>
<!-- &#45;23&#45;&gt;2 -->
<g id="edge67" class="edge"><title>&#45;23&#45;&gt;2</title>
<path fill="none" stroke="green" stroke-width="0.196016" d="M1051.69,-232.61C1047.33,-227.199 1040.85,-220.428 1033.44,-216.894 1014.01,-207.626 698.876,-177.835 607.245,-169.331"/>
<polygon fill="green" stroke="green" stroke-width="0.196016" points="607.493,-165.839 597.213,-168.402 606.848,-172.81 607.493,-165.839"/>
</g>
<!-- &#45;23&#45;&gt;3 -->
<g id="edge19" class="edge"><title>&#45;23&#45;&gt;3</title>
<path fill="none" stroke="green" stroke-width="0.585771" d="M1049.71,-232.438C1045.13,-227.723 1039.13,-221.786 1033.44,-216.894 948.138,-143.552 930.987,-116.157 830.44,-65.6985 782.82,-41.8002 721.695,-27.1929 688.176,-20.4024"/>
<polygon fill="green" stroke="green" stroke-width="0.585771" points="688.412,-16.8823 677.926,-18.397 687.068,-23.7521 688.412,-16.8823"/>
</g>
<!-- &#45;24 -->
<g id="node24" class="node"><title>&#45;24</title>
<polygon fill="lightgray" stroke="black" points="298.94,-250.643 269.94,-250.643 269.94,-232.643 298.94,-232.643 298.94,-250.643"/>
<text text-anchor="middle" x="284.44" y="-239.443" font-family="Times,serif" font-size="9.00">&#45;24</text>
</g>
<!-- &#45;24&#45;&gt;0 -->
<g id="edge79" class="edge"><title>&#45;24&#45;&gt;0</title>
<path fill="none" stroke="green" stroke-width="0.788716" d="M299.246,-236.608C318.675,-231.433 353.895,-222.463 384.44,-216.894 520.929,-192.014 686.59,-175.159 748.511,-169.317"/>
<polygon fill="green" stroke="green" stroke-width="0.788716" points="748.882,-172.798 758.514,-168.384 748.232,-165.828 748.882,-172.798"/>
</g>
<!-- &#45;24&#45;&gt;2 -->
<g id="edge16" class="edge"><title>&#45;24&#45;&gt;2</title>
<path fill="none" stroke="green" stroke-width="0.317471" stroke-dasharray="1,5" d="M292.291,-232.337C297.73,-227.091 305.413,-220.622 313.44,-216.894 396.945,-178.121 508.219,-169.485 557.333,-167.577"/>
<polygon fill="green" stroke="green" stroke-width="0.317471" points="557.49,-171.074 567.371,-167.249 557.262,-164.078 557.49,-171.074"/>
</g>
<!-- &#45;24&#45;&gt;3 -->
<g id="edge65" class="edge"><title>&#45;24&#45;&gt;3</title>
<path fill="none" stroke="green" stroke-width="0.115679" stroke-dasharray="1,5" d="M293.155,-232.554C322.724,-205.473 422.779,-116.835 519.44,-65.6985 559.22,-44.6538 609.716,-29.5663 639.122,-21.8112"/>
<polygon fill="green" stroke="green" stroke-width="0.115679" points="640.128,-25.1665 648.943,-19.2884 638.386,-18.3867 640.128,-25.1665"/>
</g>
<!-- 1&#45;&gt;2898 -->
<g id="edge60" class="edge"><title>1&#45;&gt;2898</title>
<path fill="none" stroke="green" stroke-width="0.345631" d="M1070.29,-157.988C1091.1,-146.561 1132.71,-123.703 1161.31,-107.995"/>
<polygon fill="green" stroke="green" stroke-width="0.345631" points="1163.02,-111.052 1170.1,-103.17 1159.65,-104.916 1163.02,-111.052"/>
</g>
<!-- 2898&#45;&gt;3 -->
<g id="edge15" class="edge"><title>2898&#45;&gt;3</title>
<path fill="none" stroke="green" stroke-width="0.181042" d="M1171.64,-75.0597C1165.73,-71.4221 1159.05,-67.9213 1152.44,-65.6985 1064.79,-36.2338 775.064,-20.9301 688.242,-16.9284"/>
<polygon fill="green" stroke="green" stroke-width="0.181042" points="688.395,-13.4318 678.247,-16.4767 688.079,-20.4247 688.395,-13.4318"/>
</g>
<!-- 4375&#45;&gt;1 -->
<g id="edge30" class="edge"><title>4375&#45;&gt;1</title>
<path fill="none" stroke="red" stroke-width="0.220697" d="M1227.28,-227.165C1221.36,-223.542 1214.77,-219.821 1208.44,-216.894 1165.4,-197.003 1112.15,-181.364 1081.75,-173.226"/>
<polygon fill="red" stroke="red" stroke-width="0.220697" points="1082.57,-169.822 1072.01,-170.665 1080.79,-176.592 1082.57,-169.822"/>
</g>
<!-- 4509&#45;&gt;2 -->
<g id="edge29" class="edge"><title>4509&#45;&gt;2</title>
<path fill="none" stroke="green" stroke-width="0.681266" d="M166.274,-226.355C172.188,-222.719 178.854,-219.194 185.44,-216.894 319.692,-170.017 493.091,-166.235 557.184,-166.601"/>
<polygon fill="green" stroke="green" stroke-width="0.681266" points="557.481,-170.104 567.515,-166.704 557.55,-163.105 557.481,-170.104"/>
</g>
<!-- 4318&#45;&gt;0 -->
<g id="edge78" class="edge"><title>4318&#45;&gt;0</title>
<path fill="none" stroke="green" stroke-width="0.308979" d="M773.44,-216.544C773.44,-208.383 773.44,-199.271 773.44,-191.112"/>
<polygon fill="green" stroke="green" stroke-width="0.308979" points="776.94,-191.094 773.44,-181.094 769.94,-191.094 776.94,-191.094"/>
</g>
</g>
</svg>
