<?xml version="1.0" encoding="UTF-8" standalone="no"?>
<!DOCTYPE svg PUBLIC "-//W3C//DTD SVG 1.1//EN"
 "http://www.w3.org/Graphics/SVG/1.1/DTD/svg11.dtd">
<!-- Generated by graphviz version 2.38.0 (20140413.2041)
 -->
<!-- Title: %3 Pages: 1 -->
<svg width="1400pt" height="493pt"
 viewBox="0.00 0.00 1400.15 493.47" xmlns="http://www.w3.org/2000/svg" xmlns:xlink="http://www.w3.org/1999/xlink">
<g id="graph0" class="graph" transform="scale(1 1) rotate(0) translate(4 489.47)">
<title>%3</title>
<polygon fill="white" stroke="none" points="-4,4 -4,-489.47 1396.15,-489.47 1396.15,4 -4,4"/>
<!-- &#45;1 -->
<g id="node1" class="node"><title>&#45;1</title>
<polygon fill="lightgray" stroke="black" points="161.577,-310.04 137.577,-310.04 137.577,-292.04 161.577,-292.04 161.577,-310.04"/>
<text text-anchor="middle" x="149.577" y="-298.84" font-family="Times,serif" font-size="9.00">&#45;1</text>
</g>
<!-- 25526 -->
<g id="node35" class="node"><title>25526</title>
<ellipse fill="white" stroke="black" cx="144.577" cy="-118.731" rx="27.6545" ry="27.6545"/>
<text text-anchor="middle" x="144.577" y="-116.531" font-family="Times,serif" font-size="9.00">25526</text>
</g>
<!-- &#45;1&#45;&gt;25526 -->
<g id="edge13" class="edge"><title>&#45;1&#45;&gt;25526</title>
<path fill="none" stroke="green" stroke-width="0.122074" stroke-dasharray="1,5" d="M148.041,-291.98C145.864,-280.101 141.987,-257.169 140.577,-237.463 138.641,-210.397 139.786,-179.763 141.339,-156.528"/>
<polygon fill="green" stroke="green" stroke-width="0.122074" points="144.84,-156.64 142.071,-146.413 137.858,-156.135 144.84,-156.64"/>
</g>
<!-- 25787 -->
<g id="node37" class="node"><title>25787</title>
<ellipse fill="white" stroke="black" cx="177.577" cy="-209.886" rx="27.6545" ry="27.6545"/>
<text text-anchor="middle" x="177.577" y="-207.686" font-family="Times,serif" font-size="9.00">25787</text>
</g>
<!-- &#45;1&#45;&gt;25787 -->
<g id="edge1" class="edge"><title>&#45;1&#45;&gt;25787</title>
<path fill="none" stroke="red" stroke-width="0.608255" stroke-dasharray="1,5" d="M152.161,-291.813C155.443,-281.362 161.315,-262.666 166.589,-245.874"/>
<polygon fill="red" stroke="red" stroke-width="0.608255" points="169.943,-246.874 169.6,-236.285 163.265,-244.777 169.943,-246.874"/>
</g>
<!-- &#45;2 -->
<g id="node2" class="node"><title>&#45;2</title>
<polygon fill="lightgray" stroke="black" points="93.5772,-218.886 69.5772,-218.886 69.5772,-200.886 93.5772,-200.886 93.5772,-218.886"/>
<text text-anchor="middle" x="81.5772" y="-207.686" font-family="Times,serif" font-size="9.00">&#45;2</text>
</g>
<!-- 26759 -->
<g id="node31" class="node"><title>26759</title>
<ellipse fill="white" stroke="black" cx="27.5772" cy="-118.731" rx="27.6545" ry="27.6545"/>
<text text-anchor="middle" x="27.5772" y="-116.531" font-family="Times,serif" font-size="9.00">26759</text>
</g>
<!-- &#45;2&#45;&gt;26759 -->
<g id="edge15" class="edge"><title>&#45;2&#45;&gt;26759</title>
<path fill="none" stroke="green" stroke-width="0.170686" d="M76.5938,-200.658C69.8791,-189.572 57.5432,-169.206 46.9272,-151.678"/>
<polygon fill="green" stroke="green" stroke-width="0.170686" points="49.7457,-149.576 41.5713,-142.836 43.7584,-153.203 49.7457,-149.576"/>
</g>
<!-- 26610 -->
<g id="node33" class="node"><title>26610</title>
<ellipse fill="white" stroke="black" cx="258.577" cy="-118.731" rx="27.6545" ry="27.6545"/>
<text text-anchor="middle" x="258.577" y="-116.531" font-family="Times,serif" font-size="9.00">26610</text>
</g>
<!-- &#45;2&#45;&gt;26610 -->
<g id="edge16" class="edge"><title>&#45;2&#45;&gt;26610</title>
<path fill="none" stroke="green" stroke-width="0.104991" d="M93.7431,-202.758C120.497,-189.282 185.231,-156.676 225.151,-136.568"/>
<polygon fill="green" stroke="green" stroke-width="0.104991" points="226.885,-139.614 234.242,-131.989 223.736,-133.362 226.885,-139.614"/>
</g>
<!-- 26740 -->
<g id="node34" class="node"><title>26740</title>
<ellipse fill="white" stroke="black" cx="55.5772" cy="-27.5772" rx="27.6545" ry="27.6545"/>
<text text-anchor="middle" x="55.5772" y="-25.3772" font-family="Times,serif" font-size="9.00">26740</text>
</g>
<!-- &#45;2&#45;&gt;26740 -->
<g id="edge7" class="edge"><title>&#45;2&#45;&gt;26740</title>
<path fill="none" stroke="red" stroke-width="0.101323" stroke-dasharray="1,5" d="M80.3924,-200.67C76.9967,-177.121 67.0748,-108.313 60.8541,-65.1721"/>
<polygon fill="red" stroke="red" stroke-width="0.101323" points="64.288,-64.4623 59.3965,-55.0643 57.3597,-65.4615 64.288,-64.4623"/>
</g>
<!-- &#45;2&#45;&gt;25526 -->
<g id="edge17" class="edge"><title>&#45;2&#45;&gt;25526</title>
<path fill="none" stroke="red" stroke-width="0.231315" d="M87.3911,-200.658C95.4539,-189.248 110.464,-168.007 123.083,-150.149"/>
<polygon fill="red" stroke="red" stroke-width="0.231315" points="126.132,-151.899 129.045,-141.712 120.415,-147.859 126.132,-151.899"/>
</g>
<!-- &#45;3 -->
<g id="node3" class="node"><title>&#45;3</title>
<polygon fill="lightgray" stroke="black" points="402.577,-466.893 378.577,-466.893 378.577,-448.893 402.577,-448.893 402.577,-466.893"/>
<text text-anchor="middle" x="390.577" y="-455.693" font-family="Times,serif" font-size="9.00">&#45;3</text>
</g>
<!-- &#45;4 -->
<g id="node4" class="node"><title>&#45;4</title>
<polygon fill="lightgray" stroke="black" points="444.577,-466.893 420.577,-466.893 420.577,-448.893 444.577,-448.893 444.577,-466.893"/>
<text text-anchor="middle" x="432.577" y="-455.693" font-family="Times,serif" font-size="9.00">&#45;4</text>
</g>
<!-- &#45;5 -->
<g id="node5" class="node"><title>&#45;5</title>
<polygon fill="lightgray" stroke="black" points="486.577,-466.893 462.577,-466.893 462.577,-448.893 486.577,-448.893 486.577,-466.893"/>
<text text-anchor="middle" x="474.577" y="-455.693" font-family="Times,serif" font-size="9.00">&#45;5</text>
</g>
<!-- &#45;6 -->
<g id="node6" class="node"><title>&#45;6</title>
<polygon fill="lightgray" stroke="black" points="528.577,-466.893 504.577,-466.893 504.577,-448.893 528.577,-448.893 528.577,-466.893"/>
<text text-anchor="middle" x="516.577" y="-455.693" font-family="Times,serif" font-size="9.00">&#45;6</text>
</g>
<!-- 1 -->
<g id="node26" class="node"><title>1</title>
<ellipse fill="lightblue" stroke="black" cx="516.577" cy="-379.467" rx="14.7" ry="14.7"/>
<text text-anchor="middle" x="516.577" y="-377.267" font-family="Times,serif" font-size="9.00">1</text>
</g>
<!-- &#45;6&#45;&gt;1 -->
<g id="edge5" class="edge"><title>&#45;6&#45;&gt;1</title>
<path fill="none" stroke="red" stroke-width="1.85534" d="M516.577,-448.714C516.577,-438.302 516.577,-419.855 516.577,-404.763"/>
<polygon fill="red" stroke="red" stroke-width="1.85534" points="520.077,-404.529 516.577,-394.529 513.077,-404.529 520.077,-404.529"/>
</g>
<!-- &#45;7 -->
<g id="node7" class="node"><title>&#45;7</title>
<polygon fill="lightgray" stroke="black" points="570.577,-466.893 546.577,-466.893 546.577,-448.893 570.577,-448.893 570.577,-466.893"/>
<text text-anchor="middle" x="558.577" y="-455.693" font-family="Times,serif" font-size="9.00">&#45;7</text>
</g>
<!-- &#45;8 -->
<g id="node8" class="node"><title>&#45;8</title>
<polygon fill="lightgray" stroke="black" points="360.577,-466.893 336.577,-466.893 336.577,-448.893 360.577,-448.893 360.577,-466.893"/>
<text text-anchor="middle" x="348.577" y="-455.693" font-family="Times,serif" font-size="9.00">&#45;8</text>
</g>
<!-- 2 -->
<g id="node27" class="node"><title>2</title>
<ellipse fill="lightblue" stroke="black" cx="348.577" cy="-379.467" rx="14.7" ry="14.7"/>
<text text-anchor="middle" x="348.577" y="-377.267" font-family="Times,serif" font-size="9.00">2</text>
</g>
<!-- &#45;8&#45;&gt;2 -->
<g id="edge20" class="edge"><title>&#45;8&#45;&gt;2</title>
<path fill="none" stroke="green" stroke-width="3.29587" d="M348.577,-448.714C348.577,-438.302 348.577,-419.855 348.577,-404.763"/>
<polygon fill="green" stroke="green" stroke-width="3.29587" points="352.077,-404.529 348.577,-394.529 345.077,-404.529 352.077,-404.529"/>
</g>
<!-- &#45;9 -->
<g id="node9" class="node"><title>&#45;9</title>
<polygon fill="lightgray" stroke="black" points="612.577,-466.893 588.577,-466.893 588.577,-448.893 612.577,-448.893 612.577,-466.893"/>
<text text-anchor="middle" x="600.577" y="-455.693" font-family="Times,serif" font-size="9.00">&#45;9</text>
</g>
<!-- &#45;10 -->
<g id="node10" class="node"><title>&#45;10</title>
<polygon fill="lightgray" stroke="black" points="660.077,-466.893 631.077,-466.893 631.077,-448.893 660.077,-448.893 660.077,-466.893"/>
<text text-anchor="middle" x="645.577" y="-455.693" font-family="Times,serif" font-size="9.00">&#45;10</text>
</g>
<!-- &#45;11 -->
<g id="node11" class="node"><title>&#45;11</title>
<polygon fill="lightgray" stroke="black" points="252.077,-218.886 223.077,-218.886 223.077,-200.886 252.077,-200.886 252.077,-218.886"/>
<text text-anchor="middle" x="237.577" y="-207.686" font-family="Times,serif" font-size="9.00">&#45;11</text>
</g>
<!-- 25925 -->
<g id="node29" class="node"><title>25925</title>
<ellipse fill="white" stroke="black" cx="286.577" cy="-27.5772" rx="27.6545" ry="27.6545"/>
<text text-anchor="middle" x="286.577" y="-25.3772" font-family="Times,serif" font-size="9.00">25925</text>
</g>
<!-- &#45;11&#45;&gt;25925 -->
<g id="edge14" class="edge"><title>&#45;11&#45;&gt;25925</title>
<path fill="none" stroke="red" stroke-width="0.271593" d="M233.696,-200.791C224.851,-181.139 205.186,-129.687 221.577,-91.1543 228.635,-74.5619 242.488,-60.239 255.598,-49.4993"/>
<polygon fill="red" stroke="red" stroke-width="0.271593" points="257.846,-52.185 263.597,-43.2871 253.552,-46.6563 257.846,-52.185"/>
</g>
<!-- &#45;11&#45;&gt;26610 -->
<g id="edge18" class="edge"><title>&#45;11&#45;&gt;26610</title>
<path fill="none" stroke="red" stroke-width="0.349178" d="M239.515,-200.658C241.92,-190.449 246.179,-172.367 250.062,-155.882"/>
<polygon fill="red" stroke="red" stroke-width="0.349178" points="253.525,-156.444 252.411,-145.908 246.712,-154.84 253.525,-156.444"/>
</g>
<!-- &#45;11&#45;&gt;25526 -->
<g id="edge6" class="edge"><title>&#45;11&#45;&gt;25526</title>
<path fill="none" stroke="red" stroke-width="0.392593" d="M230.991,-200.741C226.525,-195.355 220.398,-188.224 214.577,-182.309 201.511,-169.03 186.161,-155.137 173.17,-143.823"/>
<polygon fill="red" stroke="red" stroke-width="0.392593" points="175.284,-141.025 165.427,-137.141 170.711,-146.324 175.284,-141.025"/>
</g>
<!-- &#45;12 -->
<g id="node12" class="node"><title>&#45;12</title>
<polygon fill="lightgray" stroke="black" points="707.077,-466.893 678.077,-466.893 678.077,-448.893 707.077,-448.893 707.077,-466.893"/>
<text text-anchor="middle" x="692.577" y="-455.693" font-family="Times,serif" font-size="9.00">&#45;12</text>
</g>
<!-- &#45;13 -->
<g id="node13" class="node"><title>&#45;13</title>
<polygon fill="lightgray" stroke="black" points="754.077,-466.893 725.077,-466.893 725.077,-448.893 754.077,-448.893 754.077,-466.893"/>
<text text-anchor="middle" x="739.577" y="-455.693" font-family="Times,serif" font-size="9.00">&#45;13</text>
</g>
<!-- &#45;14 -->
<g id="node14" class="node"><title>&#45;14</title>
<polygon fill="lightgray" stroke="black" points="801.077,-466.893 772.077,-466.893 772.077,-448.893 801.077,-448.893 801.077,-466.893"/>
<text text-anchor="middle" x="786.577" y="-455.693" font-family="Times,serif" font-size="9.00">&#45;14</text>
</g>
<!-- &#45;15 -->
<g id="node15" class="node"><title>&#45;15</title>
<polygon fill="lightgray" stroke="black" points="316.077,-388.467 287.077,-388.467 287.077,-370.467 316.077,-370.467 316.077,-388.467"/>
<text text-anchor="middle" x="301.577" y="-377.267" font-family="Times,serif" font-size="9.00">&#45;15</text>
</g>
<!-- 24074 -->
<g id="node32" class="node"><title>24074</title>
<ellipse fill="white" stroke="black" cx="325.577" cy="-301.04" rx="27.6545" ry="27.6545"/>
<text text-anchor="middle" x="325.577" y="-298.84" font-family="Times,serif" font-size="9.00">24074</text>
</g>
<!-- &#45;15&#45;&gt;24074 -->
<g id="edge12" class="edge"><title>&#45;15&#45;&gt;24074</title>
<path fill="none" stroke="red" stroke-width="0.211609" stroke-dasharray="1,5" d="M304.146,-370.288C306.646,-362.327 310.621,-349.668 314.472,-337.403"/>
<polygon fill="red" stroke="red" stroke-width="0.211609" points="317.847,-338.337 317.504,-327.748 311.169,-336.24 317.847,-338.337"/>
</g>
<!-- &#45;16 -->
<g id="node16" class="node"><title>&#45;16</title>
<polygon fill="lightgray" stroke="black" points="848.077,-466.893 819.077,-466.893 819.077,-448.893 848.077,-448.893 848.077,-466.893"/>
<text text-anchor="middle" x="833.577" y="-455.693" font-family="Times,serif" font-size="9.00">&#45;16</text>
</g>
<!-- &#45;17 -->
<g id="node17" class="node"><title>&#45;17</title>
<polygon fill="lightgray" stroke="black" points="895.077,-466.893 866.077,-466.893 866.077,-448.893 895.077,-448.893 895.077,-466.893"/>
<text text-anchor="middle" x="880.577" y="-455.693" font-family="Times,serif" font-size="9.00">&#45;17</text>
</g>
<!-- &#45;18 -->
<g id="node18" class="node"><title>&#45;18</title>
<polygon fill="lightgray" stroke="black" points="942.077,-466.893 913.077,-466.893 913.077,-448.893 942.077,-448.893 942.077,-466.893"/>
<text text-anchor="middle" x="927.577" y="-455.693" font-family="Times,serif" font-size="9.00">&#45;18</text>
</g>
<!-- &#45;19 -->
<g id="node19" class="node"><title>&#45;19</title>
<polygon fill="lightgray" stroke="black" points="989.077,-466.893 960.077,-466.893 960.077,-448.893 989.077,-448.893 989.077,-466.893"/>
<text text-anchor="middle" x="974.577" y="-455.693" font-family="Times,serif" font-size="9.00">&#45;19</text>
</g>
<!-- &#45;20 -->
<g id="node20" class="node"><title>&#45;20</title>
<polygon fill="lightgray" stroke="black" points="1036.08,-466.893 1007.08,-466.893 1007.08,-448.893 1036.08,-448.893 1036.08,-466.893"/>
<text text-anchor="middle" x="1021.58" y="-455.693" font-family="Times,serif" font-size="9.00">&#45;20</text>
</g>
<!-- &#45;21 -->
<g id="node21" class="node"><title>&#45;21</title>
<polygon fill="lightgray" stroke="black" points="1083.08,-466.893 1054.08,-466.893 1054.08,-448.893 1083.08,-448.893 1083.08,-466.893"/>
<text text-anchor="middle" x="1068.58" y="-455.693" font-family="Times,serif" font-size="9.00">&#45;21</text>
</g>
<!-- &#45;22 -->
<g id="node22" class="node"><title>&#45;22</title>
<polygon fill="lightgray" stroke="black" points="1130.08,-466.893 1101.08,-466.893 1101.08,-448.893 1130.08,-448.893 1130.08,-466.893"/>
<text text-anchor="middle" x="1115.58" y="-455.693" font-family="Times,serif" font-size="9.00">&#45;22</text>
</g>
<!-- &#45;23 -->
<g id="node23" class="node"><title>&#45;23</title>
<polygon fill="lightgray" stroke="black" points="1177.08,-466.893 1148.08,-466.893 1148.08,-448.893 1177.08,-448.893 1177.08,-466.893"/>
<text text-anchor="middle" x="1162.58" y="-455.693" font-family="Times,serif" font-size="9.00">&#45;23</text>
</g>
<!-- &#45;24 -->
<g id="node24" class="node"><title>&#45;24</title>
<polygon fill="lightgray" stroke="black" points="1224.08,-466.893 1195.08,-466.893 1195.08,-448.893 1224.08,-448.893 1224.08,-466.893"/>
<text text-anchor="middle" x="1209.58" y="-455.693" font-family="Times,serif" font-size="9.00">&#45;24</text>
</g>
<!-- 0 -->
<g id="node25" class="node"><title>0</title>
<ellipse fill="lightblue" stroke="black" cx="1256.58" cy="-457.893" rx="14.7" ry="14.7"/>
<text text-anchor="middle" x="1256.58" y="-455.693" font-family="Times,serif" font-size="9.00">0</text>
</g>
<!-- 2&#45;&gt;24074 -->
<g id="edge11" class="edge"><title>2&#45;&gt;24074</title>
<path fill="none" stroke="green" stroke-width="0.249203" stroke-dasharray="1,5" d="M344.571,-365.154C342.235,-357.392 339.168,-347.202 336.183,-337.281"/>
<polygon fill="green" stroke="green" stroke-width="0.249203" points="339.487,-336.116 333.254,-327.549 332.784,-338.133 339.487,-336.116"/>
</g>
<!-- 3 -->
<g id="node28" class="node"><title>3</title>
<ellipse fill="lightblue" stroke="black" cx="1304.58" cy="-457.893" rx="14.7" ry="14.7"/>
<text text-anchor="middle" x="1304.58" y="-455.693" font-family="Times,serif" font-size="9.00">3</text>
</g>
<!-- 26565 -->
<g id="node30" class="node"><title>26565</title>
<ellipse fill="white" stroke="black" cx="297.577" cy="-209.886" rx="27.6545" ry="27.6545"/>
<text text-anchor="middle" x="297.577" y="-207.686" font-family="Times,serif" font-size="9.00">26565</text>
</g>
<!-- 26565&#45;&gt;25925 -->
<g id="edge4" class="edge"><title>26565&#45;&gt;25925</title>
<path fill="none" stroke="green" stroke-width="0.20173" stroke-dasharray="1,5" d="M298.079,-182.188C298.301,-158.295 298.074,-122.331 295.577,-91.1543 294.898,-82.676 293.806,-73.5966 292.612,-65.0569"/>
<polygon fill="green" stroke="green" stroke-width="0.20173" points="296.048,-64.3672 291.127,-54.9847 289.123,-65.3883 296.048,-64.3672"/>
</g>
<!-- 26565&#45;&gt;26610 -->
<g id="edge9" class="edge"><title>26565&#45;&gt;26610</title>
<path fill="none" stroke="red" stroke-width="0.222554" d="M286.713,-184.051C282.614,-174.681 277.877,-163.851 273.472,-153.782"/>
<polygon fill="red" stroke="red" stroke-width="0.222554" points="276.597,-152.192 269.383,-144.433 270.184,-154.997 276.597,-152.192"/>
</g>
<!-- 26759&#45;&gt;26740 -->
<g id="edge2" class="edge"><title>26759&#45;&gt;26740</title>
<path fill="none" stroke="red" stroke-width="0.141371" d="M35.6759,-91.9444C38.457,-83.0893 41.6183,-73.0233 44.5896,-63.5625"/>
<polygon fill="red" stroke="red" stroke-width="0.141371" points="47.9361,-64.5877 47.5933,-53.9985 41.2577,-62.4903 47.9361,-64.5877"/>
</g>
<!-- 24074&#45;&gt;25925 -->
<g id="edge3" class="edge"><title>24074&#45;&gt;25925</title>
<path fill="none" stroke="red" stroke-width="0.279522" d="M330.227,-273.64C331.965,-262.512 333.723,-249.396 334.577,-237.463 339.274,-171.806 331.884,-153.768 311.577,-91.1543 308.556,-81.8378 304.837,-71.9224 301.2,-62.7962"/>
<polygon fill="red" stroke="red" stroke-width="0.279522" points="304.333,-61.2115 297.322,-53.2686 297.85,-63.8503 304.333,-61.2115"/>
</g>
<!-- 24074&#45;&gt;26565 -->
<g id="edge10" class="edge"><title>24074&#45;&gt;26565</title>
<path fill="none" stroke="green" stroke-width="0.664372" d="M317.478,-274.253C314.697,-265.398 311.536,-255.332 308.565,-245.871"/>
<polygon fill="green" stroke="green" stroke-width="0.664372" points="311.897,-244.799 305.561,-236.307 305.218,-246.896 311.897,-244.799"/>
</g>
<!-- 26610&#45;&gt;25925 -->
<g id="edge8" class="edge"><title>26610&#45;&gt;25925</title>
<path fill="none" stroke="green" stroke-width="0.464714" d="M266.676,-91.9444C269.457,-83.0893 272.618,-73.0233 275.59,-63.5625"/>
<polygon fill="green" stroke="green" stroke-width="0.464714" points="278.936,-64.5877 278.593,-53.9985 272.258,-62.4903 278.936,-64.5877"/>
</g>
<!-- 22810 -->
<g id="node36" class="node"><title>22810</title>
<ellipse fill="white" stroke="black" cx="1364.58" cy="-457.893" rx="27.6545" ry="27.6545"/>
<text text-anchor="middle" x="1364.58" y="-455.693" font-family="Times,serif" font-size="9.00">22810</text>
</g>
<!-- 25787&#45;&gt;25526 -->
<g id="edge19" class="edge"><title>25787&#45;&gt;25526</title>
<path fill="none" stroke="green" stroke-width="0.162184" d="M168.209,-183.576C164.836,-174.464 160.971,-164.022 157.357,-154.259"/>
<polygon fill="green" stroke="green" stroke-width="0.162184" points="160.608,-152.959 153.855,-144.796 154.044,-155.389 160.608,-152.959"/>
</g>
</g>
</svg>
