<?xml version="1.0" encoding="UTF-8" standalone="no"?>
<!DOCTYPE svg PUBLIC "-//W3C//DTD SVG 1.1//EN"
 "http://www.w3.org/Graphics/SVG/1.1/DTD/svg11.dtd">
<!-- Generated by graphviz version 2.38.0 (20140413.2041)
 -->
<!-- Title: %3 Pages: 1 -->
<svg width="1078pt" height="177pt"
 viewBox="0.00 0.00 1078.00 177.20" xmlns="http://www.w3.org/2000/svg" xmlns:xlink="http://www.w3.org/1999/xlink">
<g id="graph0" class="graph" transform="scale(1 1) rotate(0) translate(4 173.196)">
<title>%3</title>
<polygon fill="white" stroke="none" points="-4,4 -4,-173.196 1074,-173.196 1074,4 -4,4"/>
<!-- &#45;1 -->
<g id="node1" class="node"><title>&#45;1</title>
<polygon fill="lightgray" stroke="black" points="212.5,-169.196 188.5,-169.196 188.5,-151.196 212.5,-151.196 212.5,-169.196"/>
<text text-anchor="middle" x="200.5" y="-157.996" font-family="Times,serif" font-size="9.00">&#45;1</text>
</g>
<!-- 0 -->
<g id="node25" class="node"><title>0</title>
<ellipse fill="lightblue" stroke="black" cx="471.5" cy="-100.347" rx="14.7" ry="14.7"/>
<text text-anchor="middle" x="471.5" y="-98.1467" font-family="Times,serif" font-size="9.00">0</text>
</g>
<!-- &#45;1&#45;&gt;0 -->
<g id="edge2" class="edge"><title>&#45;1&#45;&gt;0</title>
<path fill="none" stroke="red" stroke-width="0.46605" d="M212.821,-154.11C215.642,-153.055 218.651,-152.017 221.5,-151.196 302.632,-127.831 401.675,-111.607 446.881,-104.856"/>
<polygon fill="red" stroke="red" stroke-width="0.46605" points="447.539,-108.297 456.924,-103.38 446.522,-101.371 447.539,-108.297"/>
</g>
<!-- 1 -->
<g id="node26" class="node"><title>1</title>
<ellipse fill="lightblue" stroke="black" cx="177.5" cy="-100.347" rx="14.7" ry="14.7"/>
<text text-anchor="middle" x="177.5" y="-98.1467" font-family="Times,serif" font-size="9.00">1</text>
</g>
<!-- &#45;1&#45;&gt;1 -->
<g id="edge8" class="edge"><title>&#45;1&#45;&gt;1</title>
<path fill="none" stroke="red" stroke-width="0.112825" d="M197.302,-151.152C194.517,-144.148 190.341,-133.645 186.541,-124.087"/>
<polygon fill="red" stroke="red" stroke-width="0.112825" points="189.738,-122.654 182.791,-114.655 183.233,-125.24 189.738,-122.654"/>
</g>
<!-- 3 -->
<g id="node28" class="node"><title>3</title>
<ellipse fill="lightblue" stroke="black" cx="339.5" cy="-100.347" rx="14.7" ry="14.7"/>
<text text-anchor="middle" x="339.5" y="-98.1467" font-family="Times,serif" font-size="9.00">3</text>
</g>
<!-- &#45;1&#45;&gt;3 -->
<g id="edge29" class="edge"><title>&#45;1&#45;&gt;3</title>
<path fill="none" stroke="green" stroke-width="0.426567" d="M212.835,-154.062C236.015,-144.415 286.414,-123.44 316.177,-111.053"/>
<polygon fill="green" stroke="green" stroke-width="0.426567" points="317.878,-114.136 325.766,-107.063 315.189,-107.674 317.878,-114.136"/>
</g>
<!-- &#45;2 -->
<g id="node2" class="node"><title>&#45;2</title>
<polygon fill="lightgray" stroke="black" points="849.5,-169.196 825.5,-169.196 825.5,-151.196 849.5,-151.196 849.5,-169.196"/>
<text text-anchor="middle" x="837.5" y="-157.996" font-family="Times,serif" font-size="9.00">&#45;2</text>
</g>
<!-- &#45;3 -->
<g id="node3" class="node"><title>&#45;3</title>
<polygon fill="lightgray" stroke="black" points="891.5,-169.196 867.5,-169.196 867.5,-151.196 891.5,-151.196 891.5,-169.196"/>
<text text-anchor="middle" x="879.5" y="-157.996" font-family="Times,serif" font-size="9.00">&#45;3</text>
</g>
<!-- &#45;4 -->
<g id="node4" class="node"><title>&#45;4</title>
<polygon fill="lightgray" stroke="black" points="396.5,-169.196 372.5,-169.196 372.5,-151.196 396.5,-151.196 396.5,-169.196"/>
<text text-anchor="middle" x="384.5" y="-157.996" font-family="Times,serif" font-size="9.00">&#45;4</text>
</g>
<!-- &#45;4&#45;&gt;0 -->
<g id="edge25" class="edge"><title>&#45;4&#45;&gt;0</title>
<path fill="none" stroke="red" stroke-width="0.440767" d="M396.597,-151.152C410.621,-141.827 433.971,-126.301 450.877,-115.06"/>
<polygon fill="red" stroke="red" stroke-width="0.440767" points="453.117,-117.774 459.506,-109.322 449.241,-111.945 453.117,-117.774"/>
</g>
<!-- &#45;4&#45;&gt;3 -->
<g id="edge13" class="edge"><title>&#45;4&#45;&gt;3</title>
<path fill="none" stroke="red" stroke-width="0.545126" d="M378.243,-151.152C372.13,-143.294 362.592,-131.032 354.51,-120.642"/>
<polygon fill="red" stroke="red" stroke-width="0.545126" points="357.072,-118.236 348.17,-112.492 351.547,-122.534 357.072,-118.236"/>
</g>
<!-- &#45;5 -->
<g id="node5" class="node"><title>&#45;5</title>
<polygon fill="lightgray" stroke="black" points="438.5,-169.196 414.5,-169.196 414.5,-151.196 438.5,-151.196 438.5,-169.196"/>
<text text-anchor="middle" x="426.5" y="-157.996" font-family="Times,serif" font-size="9.00">&#45;5</text>
</g>
<!-- &#45;5&#45;&gt;0 -->
<g id="edge20" class="edge"><title>&#45;5&#45;&gt;0</title>
<path fill="none" stroke="red" stroke-width="1.66603" d="M432.757,-151.152C438.87,-143.294 448.408,-131.032 456.49,-120.642"/>
<polygon fill="red" stroke="red" stroke-width="1.66603" points="459.453,-122.534 462.83,-112.492 453.928,-118.236 459.453,-122.534"/>
</g>
<!-- &#45;5&#45;&gt;3 -->
<g id="edge27" class="edge"><title>&#45;5&#45;&gt;3</title>
<path fill="none" stroke="green" stroke-width="0.34462" d="M414.403,-151.152C400.379,-141.827 377.029,-126.301 360.123,-115.06"/>
<polygon fill="green" stroke="green" stroke-width="0.34462" points="361.759,-111.945 351.494,-109.322 357.883,-117.774 361.759,-111.945"/>
</g>
<!-- &#45;6 -->
<g id="node6" class="node"><title>&#45;6</title>
<polygon fill="lightgray" stroke="black" points="759.5,-169.196 735.5,-169.196 735.5,-151.196 759.5,-151.196 759.5,-169.196"/>
<text text-anchor="middle" x="747.5" y="-157.996" font-family="Times,serif" font-size="9.00">&#45;6</text>
</g>
<!-- 2 -->
<g id="node27" class="node"><title>2</title>
<ellipse fill="lightblue" stroke="black" cx="702.5" cy="-100.347" rx="14.7" ry="14.7"/>
<text text-anchor="middle" x="702.5" y="-98.1467" font-family="Times,serif" font-size="9.00">2</text>
</g>
<!-- &#45;6&#45;&gt;2 -->
<g id="edge6" class="edge"><title>&#45;6&#45;&gt;2</title>
<path fill="none" stroke="green" stroke-width="0.19574" d="M741.243,-151.152C735.13,-143.294 725.592,-131.032 717.51,-120.642"/>
<polygon fill="green" stroke="green" stroke-width="0.19574" points="720.072,-118.236 711.17,-112.492 714.547,-122.534 720.072,-118.236"/>
</g>
<!-- &#45;7 -->
<g id="node7" class="node"><title>&#45;7</title>
<polygon fill="lightgray" stroke="black" points="933.5,-169.196 909.5,-169.196 909.5,-151.196 933.5,-151.196 933.5,-169.196"/>
<text text-anchor="middle" x="921.5" y="-157.996" font-family="Times,serif" font-size="9.00">&#45;7</text>
</g>
<!-- &#45;8 -->
<g id="node8" class="node"><title>&#45;8</title>
<polygon fill="lightgray" stroke="black" points="975.5,-169.196 951.5,-169.196 951.5,-151.196 975.5,-151.196 975.5,-169.196"/>
<text text-anchor="middle" x="963.5" y="-157.996" font-family="Times,serif" font-size="9.00">&#45;8</text>
</g>
<!-- &#45;9 -->
<g id="node9" class="node"><title>&#45;9</title>
<polygon fill="lightgray" stroke="black" points="669.5,-169.196 645.5,-169.196 645.5,-151.196 669.5,-151.196 669.5,-169.196"/>
<text text-anchor="middle" x="657.5" y="-157.996" font-family="Times,serif" font-size="9.00">&#45;9</text>
</g>
<!-- &#45;9&#45;&gt;0 -->
<g id="edge24" class="edge"><title>&#45;9&#45;&gt;0</title>
<path fill="none" stroke="red" stroke-width="0.61478" d="M645.116,-154.312C642.297,-153.247 639.306,-152.153 636.5,-151.196 586.88,-134.273 527.899,-117.166 495.608,-108.053"/>
<polygon fill="red" stroke="red" stroke-width="0.61478" points="496.307,-104.614 485.733,-105.28 494.415,-111.353 496.307,-104.614"/>
</g>
<!-- &#45;9&#45;&gt;2 -->
<g id="edge4" class="edge"><title>&#45;9&#45;&gt;2</title>
<path fill="none" stroke="green" stroke-width="0.251198" d="M663.757,-151.152C669.87,-143.294 679.408,-131.032 687.49,-120.642"/>
<polygon fill="green" stroke="green" stroke-width="0.251198" points="690.453,-122.534 693.83,-112.492 684.928,-118.236 690.453,-122.534"/>
</g>
<!-- &#45;10 -->
<g id="node10" class="node"><title>&#45;10</title>
<polygon fill="lightgray" stroke="black" points="533,-169.196 504,-169.196 504,-151.196 533,-151.196 533,-169.196"/>
<text text-anchor="middle" x="518.5" y="-157.996" font-family="Times,serif" font-size="9.00">&#45;10</text>
</g>
<!-- &#45;10&#45;&gt;0 -->
<g id="edge18" class="edge"><title>&#45;10&#45;&gt;0</title>
<path fill="none" stroke="green" stroke-width="0.149247" d="M511.965,-151.152C505.516,-143.215 495.419,-130.787 486.924,-120.331"/>
<polygon fill="green" stroke="green" stroke-width="0.149247" points="489.577,-118.046 480.555,-112.492 484.144,-122.46 489.577,-118.046"/>
</g>
<!-- &#45;11 -->
<g id="node11" class="node"><title>&#45;11</title>
<polygon fill="lightgray" stroke="black" points="1023,-169.196 994,-169.196 994,-151.196 1023,-151.196 1023,-169.196"/>
<text text-anchor="middle" x="1008.5" y="-157.996" font-family="Times,serif" font-size="9.00">&#45;11</text>
</g>
<!-- &#45;12 -->
<g id="node12" class="node"><title>&#45;12</title>
<polygon fill="lightgray" stroke="black" points="29,-169.196 0,-169.196 0,-151.196 29,-151.196 29,-169.196"/>
<text text-anchor="middle" x="14.5" y="-157.996" font-family="Times,serif" font-size="9.00">&#45;12</text>
</g>
<!-- &#45;12&#45;&gt;1 -->
<g id="edge11" class="edge"><title>&#45;12&#45;&gt;1</title>
<path fill="none" stroke="red" stroke-width="0.339235" d="M29.2526,-153.96C57.6607,-143.878 120.155,-121.699 154.229,-109.606"/>
<polygon fill="red" stroke="red" stroke-width="0.339235" points="155.569,-112.844 163.822,-106.201 153.227,-106.247 155.569,-112.844"/>
</g>
<!-- &#45;13 -->
<g id="node13" class="node"><title>&#45;13</title>
<polygon fill="lightgray" stroke="black" points="580,-169.196 551,-169.196 551,-151.196 580,-151.196 580,-169.196"/>
<text text-anchor="middle" x="565.5" y="-157.996" font-family="Times,serif" font-size="9.00">&#45;13</text>
</g>
<!-- &#45;13&#45;&gt;0 -->
<g id="edge33" class="edge"><title>&#45;13&#45;&gt;0</title>
<path fill="none" stroke="green" stroke-width="0.51376" d="M552.43,-151.152C536.894,-141.591 510.767,-125.512 492.411,-114.216"/>
<polygon fill="green" stroke="green" stroke-width="0.51376" points="494.212,-111.215 483.861,-108.954 490.543,-117.176 494.212,-111.215"/>
</g>
<!-- &#45;14 -->
<g id="node14" class="node"><title>&#45;14</title>
<polygon fill="lightgray" stroke="black" points="170,-169.196 141,-169.196 141,-151.196 170,-151.196 170,-169.196"/>
<text text-anchor="middle" x="155.5" y="-157.996" font-family="Times,serif" font-size="9.00">&#45;14</text>
</g>
<!-- &#45;14&#45;&gt;1 -->
<g id="edge34" class="edge"><title>&#45;14&#45;&gt;1</title>
<path fill="none" stroke="red" stroke-width="0.706932" d="M158.559,-151.152C161.223,-144.148 165.217,-133.645 168.852,-124.087"/>
<polygon fill="red" stroke="red" stroke-width="0.706932" points="172.156,-125.246 172.439,-114.655 165.613,-122.758 172.156,-125.246"/>
</g>
<!-- &#45;14&#45;&gt;3 -->
<g id="edge22" class="edge"><title>&#45;14&#45;&gt;3</title>
<path fill="none" stroke="red" stroke-width="0.167021" d="M170.208,-154.242C173.275,-153.224 176.49,-152.166 179.5,-151.196 227.765,-135.635 284.476,-118.155 315.759,-108.583"/>
<polygon fill="red" stroke="red" stroke-width="0.167021" points="316.804,-111.924 325.344,-105.654 314.758,-105.23 316.804,-111.924"/>
</g>
<!-- &#45;15 -->
<g id="node15" class="node"><title>&#45;15</title>
<polygon fill="lightgray" stroke="black" points="76,-169.196 47,-169.196 47,-151.196 76,-151.196 76,-169.196"/>
<text text-anchor="middle" x="61.5" y="-157.996" font-family="Times,serif" font-size="9.00">&#45;15</text>
</g>
<!-- &#45;15&#45;&gt;1 -->
<g id="edge12" class="edge"><title>&#45;15&#45;&gt;1</title>
<path fill="none" stroke="red" stroke-width="0.257905" d="M76.1915,-151.869C96.1422,-141.92 131.977,-124.049 155.24,-112.448"/>
<polygon fill="red" stroke="red" stroke-width="0.257905" points="156.97,-115.496 164.357,-107.901 153.846,-109.232 156.97,-115.496"/>
</g>
<!-- &#45;16 -->
<g id="node16" class="node"><title>&#45;16</title>
<polygon fill="lightgray" stroke="black" points="260,-169.196 231,-169.196 231,-151.196 260,-151.196 260,-169.196"/>
<text text-anchor="middle" x="245.5" y="-157.996" font-family="Times,serif" font-size="9.00">&#45;16</text>
</g>
<!-- &#45;16&#45;&gt;0 -->
<g id="edge15" class="edge"><title>&#45;16&#45;&gt;0</title>
<path fill="none" stroke="red" stroke-width="0.270588" d="M260.034,-153.91C262.828,-152.959 265.743,-152.012 268.5,-151.196 332.16,-132.354 408.502,-114.985 446.891,-106.605"/>
<polygon fill="red" stroke="red" stroke-width="0.270588" points="448.069,-109.932 457.101,-104.394 446.587,-103.09 448.069,-109.932"/>
</g>
<!-- &#45;16&#45;&gt;1 -->
<g id="edge23" class="edge"><title>&#45;16&#45;&gt;1</title>
<path fill="none" stroke="green" stroke-width="0.183059" d="M236.045,-151.152C225.867,-142.493 209.405,-128.489 196.525,-117.532"/>
<polygon fill="green" stroke="green" stroke-width="0.183059" points="198.566,-114.673 188.681,-110.859 194.03,-120.004 198.566,-114.673"/>
</g>
<!-- &#45;17 -->
<g id="node17" class="node"><title>&#45;17</title>
<polygon fill="lightgray" stroke="black" points="307,-169.196 278,-169.196 278,-151.196 307,-151.196 307,-169.196"/>
<text text-anchor="middle" x="292.5" y="-157.996" font-family="Times,serif" font-size="9.00">&#45;17</text>
</g>
<!-- &#45;17&#45;&gt;0 -->
<g id="edge3" class="edge"><title>&#45;17&#45;&gt;0</title>
<path fill="none" stroke="green" stroke-width="0.655123" d="M307.082,-154.061C309.872,-153.097 312.773,-152.106 315.5,-151.196 362.064,-135.661 416.773,-118.408 447.463,-108.819"/>
<polygon fill="green" stroke="green" stroke-width="0.655123" points="448.76,-112.081 457.264,-105.762 446.676,-105.398 448.76,-112.081"/>
</g>
<!-- &#45;17&#45;&gt;1 -->
<g id="edge32" class="edge"><title>&#45;17&#45;&gt;1</title>
<path fill="none" stroke="green" stroke-width="0.41037" d="M277.935,-151.869C258.156,-141.92 222.631,-124.049 199.568,-112.448"/>
<polygon fill="green" stroke="green" stroke-width="0.41037" points="201.036,-109.268 190.529,-107.901 197.89,-115.522 201.036,-109.268"/>
</g>
<!-- &#45;18 -->
<g id="node18" class="node"><title>&#45;18</title>
<polygon fill="lightgray" stroke="black" points="354,-169.196 325,-169.196 325,-151.196 354,-151.196 354,-169.196"/>
<text text-anchor="middle" x="339.5" y="-157.996" font-family="Times,serif" font-size="9.00">&#45;18</text>
</g>
<!-- &#45;18&#45;&gt;3 -->
<g id="edge26" class="edge"><title>&#45;18&#45;&gt;3</title>
<path fill="none" stroke="green" stroke-width="0.209684" d="M339.5,-151.152C339.5,-144.547 339.5,-134.832 339.5,-125.731"/>
<polygon fill="green" stroke="green" stroke-width="0.209684" points="343,-125.554 339.5,-115.554 336,-125.554 343,-125.554"/>
</g>
<!-- &#45;19 -->
<g id="node19" class="node"><title>&#45;19</title>
<polygon fill="lightgray" stroke="black" points="486,-169.196 457,-169.196 457,-151.196 486,-151.196 486,-169.196"/>
<text text-anchor="middle" x="471.5" y="-157.996" font-family="Times,serif" font-size="9.00">&#45;19</text>
</g>
<!-- &#45;19&#45;&gt;0 -->
<g id="edge28" class="edge"><title>&#45;19&#45;&gt;0</title>
<path fill="none" stroke="green" stroke-width="0.44432" d="M471.5,-151.152C471.5,-144.547 471.5,-134.832 471.5,-125.731"/>
<polygon fill="green" stroke="green" stroke-width="0.44432" points="475,-125.554 471.5,-115.554 468,-125.554 475,-125.554"/>
</g>
<!-- &#45;19&#45;&gt;1 -->
<g id="edge21" class="edge"><title>&#45;19&#45;&gt;1</title>
<path fill="none" stroke="red" stroke-width="0.291452" d="M456.873,-153.961C453.8,-152.963 450.562,-151.985 447.5,-151.196 358.426,-128.247 250.226,-111.571 202.344,-104.751"/>
<polygon fill="red" stroke="red" stroke-width="0.291452" points="202.68,-101.264 192.291,-103.338 201.706,-108.196 202.68,-101.264"/>
</g>
<!-- &#45;19&#45;&gt;2 -->
<g id="edge9" class="edge"><title>&#45;19&#45;&gt;2</title>
<path fill="none" stroke="green" stroke-width="0.227431" d="M486.03,-153.897C488.825,-152.947 491.741,-152.004 494.5,-151.196 560.136,-131.968 638.994,-114.604 678.073,-106.375"/>
<polygon fill="green" stroke="green" stroke-width="0.227431" points="678.923,-109.773 687.996,-104.302 677.492,-102.921 678.923,-109.773"/>
</g>
<!-- &#45;20 -->
<g id="node20" class="node"><title>&#45;20</title>
<polygon fill="lightgray" stroke="black" points="807,-169.196 778,-169.196 778,-151.196 807,-151.196 807,-169.196"/>
<text text-anchor="middle" x="792.5" y="-157.996" font-family="Times,serif" font-size="9.00">&#45;20</text>
</g>
<!-- &#45;20&#45;&gt;2 -->
<g id="edge1" class="edge"><title>&#45;20&#45;&gt;2</title>
<path fill="none" stroke="green" stroke-width="0.137122" d="M779.986,-151.152C765.261,-141.688 740.6,-125.836 723.056,-114.559"/>
<polygon fill="green" stroke="green" stroke-width="0.137122" points="724.925,-111.6 714.62,-109.137 721.14,-117.489 724.925,-111.6"/>
</g>
<!-- &#45;21 -->
<g id="node21" class="node"><title>&#45;21</title>
<polygon fill="lightgray" stroke="black" points="717,-169.196 688,-169.196 688,-151.196 717,-151.196 717,-169.196"/>
<text text-anchor="middle" x="702.5" y="-157.996" font-family="Times,serif" font-size="9.00">&#45;21</text>
</g>
<!-- &#45;21&#45;&gt;0 -->
<g id="edge14" class="edge"><title>&#45;21&#45;&gt;0</title>
<path fill="none" stroke="green" stroke-width="1.41288" d="M687.839,-154.088C684.768,-153.081 681.54,-152.067 678.5,-151.196 613.05,-132.444 534.628,-114.871 495.779,-106.488"/>
<polygon fill="green" stroke="green" stroke-width="1.41288" points="496.426,-103.047 485.915,-104.373 494.959,-109.891 496.426,-103.047"/>
</g>
<!-- &#45;21&#45;&gt;2 -->
<g id="edge30" class="edge"><title>&#45;21&#45;&gt;2</title>
<path fill="none" stroke="red" stroke-width="0.576016" d="M702.5,-151.152C702.5,-144.547 702.5,-134.832 702.5,-125.731"/>
<polygon fill="red" stroke="red" stroke-width="0.576016" points="706,-125.554 702.5,-115.554 699,-125.554 706,-125.554"/>
</g>
<!-- &#45;22 -->
<g id="node22" class="node"><title>&#45;22</title>
<polygon fill="lightgray" stroke="black" points="123,-169.196 94,-169.196 94,-151.196 123,-151.196 123,-169.196"/>
<text text-anchor="middle" x="108.5" y="-157.996" font-family="Times,serif" font-size="9.00">&#45;22</text>
</g>
<!-- &#45;22&#45;&gt;1 -->
<g id="edge16" class="edge"><title>&#45;22&#45;&gt;1</title>
<path fill="none" stroke="red" stroke-width="0.206053" d="M118.094,-151.152C128.544,-142.392 145.52,-128.159 158.655,-117.147"/>
<polygon fill="red" stroke="red" stroke-width="0.206053" points="161.209,-119.572 166.624,-110.465 156.712,-114.208 161.209,-119.572"/>
</g>
<!-- &#45;23 -->
<g id="node23" class="node"><title>&#45;23</title>
<polygon fill="lightgray" stroke="black" points="1070,-169.196 1041,-169.196 1041,-151.196 1070,-151.196 1070,-169.196"/>
<text text-anchor="middle" x="1055.5" y="-157.996" font-family="Times,serif" font-size="9.00">&#45;23</text>
</g>
<!-- &#45;24 -->
<g id="node24" class="node"><title>&#45;24</title>
<polygon fill="lightgray" stroke="black" points="627,-169.196 598,-169.196 598,-151.196 627,-151.196 627,-169.196"/>
<text text-anchor="middle" x="612.5" y="-157.996" font-family="Times,serif" font-size="9.00">&#45;24</text>
</g>
<!-- &#45;24&#45;&gt;0 -->
<g id="edge31" class="edge"><title>&#45;24&#45;&gt;0</title>
<path fill="none" stroke="green" stroke-width="0.691033" d="M597.942,-153.223C573.395,-143.152 523.595,-122.72 494.353,-110.723"/>
<polygon fill="green" stroke="green" stroke-width="0.691033" points="495.522,-107.419 484.942,-106.862 492.865,-113.895 495.522,-107.419"/>
</g>
<!-- 1&#45;&gt;1 -->
<g id="edge19" class="edge"><title>1&#45;&gt;1</title>
<path fill="none" stroke="red" stroke-width="0.169114" d="M189.288,-109.427C199.522,-113.569 210.349,-110.542 210.349,-100.347 210.349,-93.4967 205.462,-89.8828 199.15,-89.5048"/>
<polygon fill="red" stroke="red" stroke-width="0.169114" points="198.516,-86.0626 189.288,-91.2665 199.747,-92.9535 198.516,-86.0626"/>
</g>
<!-- 2&#45;&gt;2 -->
<g id="edge17" class="edge"><title>2&#45;&gt;2</title>
<path fill="none" stroke="green" stroke-width="1.0413" d="M714.288,-109.427C724.522,-113.569 735.349,-110.542 735.349,-100.347 735.349,-93.4967 730.462,-89.8828 724.15,-89.5048"/>
<polygon fill="green" stroke="green" stroke-width="1.0413" points="723.516,-86.0626 714.288,-91.2665 724.747,-92.9535 723.516,-86.0626"/>
</g>
<!-- 3760 -->
<g id="node29" class="node"><title>3760</title>
<ellipse fill="white" stroke="black" cx="702.5" cy="-24.7487" rx="25" ry="25"/>
<text text-anchor="middle" x="702.5" y="-22.5487" font-family="Times,serif" font-size="9.00">3760</text>
</g>
<!-- 2&#45;&gt;3760 -->
<g id="edge7" class="edge"><title>2&#45;&gt;3760</title>
<path fill="none" stroke="green" stroke-width="0.154376" d="M697.184,-86.1889C696.098,-78.5979 695.628,-68.6795 695.777,-59.0788"/>
<polygon fill="green" stroke="green" stroke-width="0.154376" points="699.281,-59.0418 696.18,-48.9109 692.286,-58.7643 699.281,-59.0418"/>
</g>
<!-- 3&#45;&gt;3 -->
<g id="edge10" class="edge"><title>3&#45;&gt;3</title>
<path fill="none" stroke="red" stroke-width="0.556265" d="M351.288,-109.427C361.522,-113.569 372.349,-110.542 372.349,-100.347 372.349,-93.4967 367.462,-89.8828 361.15,-89.5048"/>
<polygon fill="red" stroke="red" stroke-width="0.556265" points="360.516,-86.0626 351.288,-91.2665 361.747,-92.9535 360.516,-86.0626"/>
</g>
<!-- 3760&#45;&gt;2 -->
<g id="edge5" class="edge"><title>3760&#45;&gt;2</title>
<path fill="none" stroke="red" stroke-width="0.531454" d="M708.82,-48.9109C709.39,-57.5516 709.393,-67.3607 708.831,-76.0165"/>
<polygon fill="red" stroke="red" stroke-width="0.531454" points="705.326,-75.8907 707.816,-86.1889 712.292,-76.5859 705.326,-75.8907"/>
</g>
</g>
</svg>
