<?xml version="1.0" encoding="UTF-8" standalone="no"?>
<!DOCTYPE svg PUBLIC "-//W3C//DTD SVG 1.1//EN"
 "http://www.w3.org/Graphics/SVG/1.1/DTD/svg11.dtd">
<!-- Generated by graphviz version 2.38.0 (20140413.2041)
 -->
<!-- Title: %3 Pages: 1 -->
<svg width="1080pt" height="177pt"
 viewBox="0.00 0.00 1079.50 177.20" xmlns="http://www.w3.org/2000/svg" xmlns:xlink="http://www.w3.org/1999/xlink">
<g id="graph0" class="graph" transform="scale(1 1) rotate(0) translate(4 173.196)">
<title>%3</title>
<polygon fill="white" stroke="none" points="-4,4 -4,-173.196 1075.5,-173.196 1075.5,4 -4,4"/>
<!-- &#45;1 -->
<g id="node1" class="node"><title>&#45;1</title>
<polygon fill="lightgray" stroke="black" points="114,-169.196 90,-169.196 90,-151.196 114,-151.196 114,-169.196"/>
<text text-anchor="middle" x="102" y="-157.996" font-family="Times,serif" font-size="9.00">&#45;1</text>
</g>
<!-- 0 -->
<g id="node25" class="node"><title>0</title>
<ellipse fill="lightblue" stroke="black" cx="330" cy="-100.347" rx="14.7" ry="14.7"/>
<text text-anchor="middle" x="330" y="-98.1467" font-family="Times,serif" font-size="9.00">0</text>
</g>
<!-- &#45;1&#45;&gt;0 -->
<g id="edge2" class="edge"><title>&#45;1&#45;&gt;0</title>
<path fill="none" stroke="red" stroke-width="0.46605" d="M114.345,-154.193C117.166,-153.134 120.167,-152.073 123,-151.196 188.039,-131.066 266.641,-114.098 305.624,-106.162"/>
<polygon fill="red" stroke="red" stroke-width="0.46605" points="306.412,-109.574 315.524,-104.168 305.03,-102.712 306.412,-109.574"/>
</g>
<!-- 1 -->
<g id="node26" class="node"><title>1</title>
<ellipse fill="lightblue" stroke="black" cx="444" cy="-100.347" rx="14.7" ry="14.7"/>
<text text-anchor="middle" x="444" y="-98.1467" font-family="Times,serif" font-size="9.00">1</text>
</g>
<!-- &#45;1&#45;&gt;1 -->
<g id="edge13" class="edge"><title>&#45;1&#45;&gt;1</title>
<path fill="none" stroke="red" stroke-width="0.112825" d="M114.295,-154.019C117.119,-152.969 120.134,-151.955 123,-151.196 126.613,-150.239 344.525,-116.659 419.206,-105.162"/>
<polygon fill="red" stroke="red" stroke-width="0.112825" points="419.792,-108.613 429.143,-103.633 418.727,-101.695 419.792,-108.613"/>
</g>
<!-- 3 -->
<g id="node28" class="node"><title>3</title>
<ellipse fill="lightblue" stroke="black" cx="144" cy="-100.347" rx="14.7" ry="14.7"/>
<text text-anchor="middle" x="144" y="-98.1467" font-family="Times,serif" font-size="9.00">3</text>
</g>
<!-- &#45;1&#45;&gt;3 -->
<g id="edge41" class="edge"><title>&#45;1&#45;&gt;3</title>
<path fill="none" stroke="green" stroke-width="0.426567" d="M107.84,-151.152C113.475,-143.391 122.228,-131.334 129.711,-121.028"/>
<polygon fill="green" stroke="green" stroke-width="0.426567" points="132.559,-123.063 135.602,-112.914 126.894,-118.95 132.559,-123.063"/>
</g>
<!-- &#45;2 -->
<g id="node2" class="node"><title>&#45;2</title>
<polygon fill="lightgray" stroke="black" points="892,-169.196 868,-169.196 868,-151.196 892,-151.196 892,-169.196"/>
<text text-anchor="middle" x="880" y="-157.996" font-family="Times,serif" font-size="9.00">&#45;2</text>
</g>
<!-- &#45;2&#45;&gt;0 -->
<g id="edge10" class="edge"><title>&#45;2&#45;&gt;0</title>
<path fill="none" stroke="red" stroke-width="0.104366" stroke-dasharray="1,5" d="M867.742,-153.865C864.917,-152.823 861.892,-151.851 859,-151.196 668.077,-107.92 614.422,-138.097 420,-115.196 397.793,-112.58 372.65,-108.627 354.595,-105.613"/>
<polygon fill="red" stroke="red" stroke-width="0.104366" points="355.054,-102.141 344.61,-103.921 353.885,-109.042 355.054,-102.141"/>
</g>
<!-- 2 -->
<g id="node27" class="node"><title>2</title>
<ellipse fill="lightblue" stroke="black" cx="811" cy="-100.347" rx="14.7" ry="14.7"/>
<text text-anchor="middle" x="811" y="-98.1467" font-family="Times,serif" font-size="9.00">2</text>
</g>
<!-- &#45;2&#45;&gt;2 -->
<g id="edge33" class="edge"><title>&#45;2&#45;&gt;2</title>
<path fill="none" stroke="red" stroke-width="0.214852" stroke-dasharray="1,5" d="M870.406,-151.152C859.956,-142.392 842.98,-128.159 829.845,-117.147"/>
<polygon fill="red" stroke="red" stroke-width="0.214852" points="831.788,-114.208 821.876,-110.465 827.291,-119.572 831.788,-114.208"/>
</g>
<!-- &#45;3 -->
<g id="node3" class="node"><title>&#45;3</title>
<polygon fill="lightgray" stroke="black" points="982,-169.196 958,-169.196 958,-151.196 982,-151.196 982,-169.196"/>
<text text-anchor="middle" x="970" y="-157.996" font-family="Times,serif" font-size="9.00">&#45;3</text>
</g>
<!-- &#45;3&#45;&gt;2 -->
<g id="edge23" class="edge"><title>&#45;3&#45;&gt;2</title>
<path fill="none" stroke="red" stroke-width="0.327621" stroke-dasharray="1,5" d="M957.577,-154.422C954.76,-153.352 951.78,-152.227 949,-151.196 908.764,-136.266 861.718,-119.397 834.252,-109.607"/>
<polygon fill="red" stroke="red" stroke-width="0.327621" points="835.334,-106.277 824.74,-106.221 832.987,-112.872 835.334,-106.277"/>
</g>
<!-- &#45;4 -->
<g id="node4" class="node"><title>&#45;4</title>
<polygon fill="lightgray" stroke="black" points="156,-169.196 132,-169.196 132,-151.196 156,-151.196 156,-169.196"/>
<text text-anchor="middle" x="144" y="-157.996" font-family="Times,serif" font-size="9.00">&#45;4</text>
</g>
<!-- &#45;4&#45;&gt;0 -->
<g id="edge36" class="edge"><title>&#45;4&#45;&gt;0</title>
<path fill="none" stroke="red" stroke-width="0.440767" d="M156.384,-154.312C159.203,-153.247 162.194,-152.153 165,-151.196 214.62,-134.273 273.601,-117.166 305.892,-108.053"/>
<polygon fill="red" stroke="red" stroke-width="0.440767" points="307.085,-111.353 315.767,-105.28 305.193,-104.614 307.085,-111.353"/>
</g>
<!-- &#45;4&#45;&gt;1 -->
<g id="edge46" class="edge"><title>&#45;4&#45;&gt;1</title>
<path fill="none" stroke="green" stroke-width="0.859418" stroke-dasharray="1,5" d="M156.309,-154.067C159.131,-153.015 162.143,-151.988 165,-151.196 213.11,-137.861 360.25,-114.345 419.197,-105.167"/>
<polygon fill="green" stroke="green" stroke-width="0.859418" points="420.099,-108.569 429.445,-103.578 419.026,-101.652 420.099,-108.569"/>
</g>
<!-- &#45;4&#45;&gt;3 -->
<g id="edge20" class="edge"><title>&#45;4&#45;&gt;3</title>
<path fill="none" stroke="red" stroke-width="0.545126" d="M144,-151.152C144,-144.547 144,-134.832 144,-125.731"/>
<polygon fill="red" stroke="red" stroke-width="0.545126" points="147.5,-125.554 144,-115.554 140.5,-125.554 147.5,-125.554"/>
</g>
<!-- &#45;5 -->
<g id="node5" class="node"><title>&#45;5</title>
<polygon fill="lightgray" stroke="black" points="24,-169.196 0,-169.196 0,-151.196 24,-151.196 24,-169.196"/>
<text text-anchor="middle" x="12" y="-157.996" font-family="Times,serif" font-size="9.00">&#45;5</text>
</g>
<!-- &#45;5&#45;&gt;0 -->
<g id="edge30" class="edge"><title>&#45;5&#45;&gt;0</title>
<path fill="none" stroke="red" stroke-width="1.66603" d="M24.3024,-154.045C27.1252,-152.994 30.1385,-151.973 33,-151.196 131.951,-124.328 253.59,-109.371 305.088,-103.843"/>
<polygon fill="red" stroke="red" stroke-width="1.66603" points="305.674,-107.301 315.254,-102.778 304.944,-100.339 305.674,-107.301"/>
</g>
<!-- &#45;5&#45;&gt;3 -->
<g id="edge38" class="edge"><title>&#45;5&#45;&gt;3</title>
<path fill="none" stroke="green" stroke-width="0.34462" d="M24.1816,-153.857C46.2367,-144.192 93.1011,-123.653 121.239,-111.322"/>
<polygon fill="green" stroke="green" stroke-width="0.34462" points="122.924,-114.405 130.678,-107.185 120.114,-107.994 122.924,-114.405"/>
</g>
<!-- &#45;6 -->
<g id="node6" class="node"><title>&#45;6</title>
<polygon fill="lightgray" stroke="black" points="1024,-169.196 1000,-169.196 1000,-151.196 1024,-151.196 1024,-169.196"/>
<text text-anchor="middle" x="1012" y="-157.996" font-family="Times,serif" font-size="9.00">&#45;6</text>
</g>
<!-- &#45;6&#45;&gt;2 -->
<g id="edge9" class="edge"><title>&#45;6&#45;&gt;2</title>
<path fill="none" stroke="green" stroke-width="0.19574" d="M999.632,-154.264C996.813,-153.201 993.817,-152.12 991,-151.196 935.995,-133.146 870.167,-116.028 835.363,-107.32"/>
<polygon fill="green" stroke="green" stroke-width="0.19574" points="836.153,-103.91 825.604,-104.896 834.465,-110.703 836.153,-103.91"/>
</g>
<!-- 3760 -->
<g id="node29" class="node"><title>3760</title>
<ellipse fill="white" stroke="black" cx="811" cy="-24.7487" rx="25" ry="25"/>
<text text-anchor="middle" x="811" y="-22.5487" font-family="Times,serif" font-size="9.00">3760</text>
</g>
<!-- &#45;6&#45;&gt;3760 -->
<g id="edge8" class="edge"><title>&#45;6&#45;&gt;3760</title>
<path fill="none" stroke="green" stroke-width="0.248155" stroke-dasharray="1,5" d="M999.729,-151.049C968.326,-130.2 884.389,-74.4726 839.786,-44.8605"/>
<polygon fill="green" stroke="green" stroke-width="0.248155" points="841.685,-41.9197 831.418,-39.3044 837.813,-47.7514 841.685,-41.9197"/>
</g>
<!-- &#45;7 -->
<g id="node7" class="node"><title>&#45;7</title>
<polygon fill="lightgray" stroke="black" points="571,-169.196 547,-169.196 547,-151.196 571,-151.196 571,-169.196"/>
<text text-anchor="middle" x="559" y="-157.996" font-family="Times,serif" font-size="9.00">&#45;7</text>
</g>
<!-- &#45;7&#45;&gt;1 -->
<g id="edge47" class="edge"><title>&#45;7&#45;&gt;1</title>
<path fill="none" stroke="red" stroke-width="0.147586" stroke-dasharray="1,5" d="M546.693,-153.005C527.443,-143.321 489.936,-124.454 465.971,-112.399"/>
<polygon fill="red" stroke="red" stroke-width="0.147586" points="467.426,-109.213 456.92,-107.846 464.28,-115.466 467.426,-109.213"/>
</g>
<!-- &#45;8 -->
<g id="node8" class="node"><title>&#45;8</title>
<polygon fill="lightgray" stroke="black" points="434,-169.196 410,-169.196 410,-151.196 434,-151.196 434,-169.196"/>
<text text-anchor="middle" x="422" y="-157.996" font-family="Times,serif" font-size="9.00">&#45;8</text>
</g>
<!-- &#45;8&#45;&gt;0 -->
<g id="edge49" class="edge"><title>&#45;8&#45;&gt;0</title>
<path fill="none" stroke="red" stroke-width="0.543122" stroke-dasharray="1,5" d="M409.973,-151.633C394.973,-142.201 369.083,-125.922 350.831,-114.445"/>
<polygon fill="red" stroke="red" stroke-width="0.543122" points="352.653,-111.456 342.324,-109.096 348.926,-117.382 352.653,-111.456"/>
</g>
<!-- &#45;8&#45;&gt;1 -->
<g id="edge7" class="edge"><title>&#45;8&#45;&gt;1</title>
<path fill="none" stroke="green" stroke-width="0.183129" stroke-dasharray="1,5" d="M425.059,-151.152C427.723,-144.148 431.717,-133.645 435.352,-124.087"/>
<polygon fill="green" stroke="green" stroke-width="0.183129" points="438.656,-125.246 438.939,-114.655 432.113,-122.758 438.656,-125.246"/>
</g>
<!-- &#45;9 -->
<g id="node9" class="node"><title>&#45;9</title>
<polygon fill="lightgray" stroke="black" points="708,-169.196 684,-169.196 684,-151.196 708,-151.196 708,-169.196"/>
<text text-anchor="middle" x="696" y="-157.996" font-family="Times,serif" font-size="9.00">&#45;9</text>
</g>
<!-- &#45;9&#45;&gt;0 -->
<g id="edge35" class="edge"><title>&#45;9&#45;&gt;0</title>
<path fill="none" stroke="red" stroke-width="0.61478" d="M683.712,-153.99C680.889,-152.941 677.871,-151.936 675,-151.196 564.161,-122.644 533.232,-131.9 420,-115.196 397.878,-111.933 372.727,-108.047 354.647,-105.224"/>
<polygon fill="red" stroke="red" stroke-width="0.61478" points="355.066,-101.747 344.645,-103.658 353.983,-108.663 355.066,-101.747"/>
</g>
<!-- &#45;9&#45;&gt;2 -->
<g id="edge5" class="edge"><title>&#45;9&#45;&gt;2</title>
<path fill="none" stroke="green" stroke-width="0.251198" d="M708.307,-153.005C727.557,-143.321 765.064,-124.454 789.029,-112.399"/>
<polygon fill="green" stroke="green" stroke-width="0.251198" points="790.72,-115.466 798.08,-107.846 787.574,-109.213 790.72,-115.466"/>
</g>
<!-- &#45;10 -->
<g id="node10" class="node"><title>&#45;10</title>
<polygon fill="lightgray" stroke="black" points="71.5,-169.196 42.5,-169.196 42.5,-151.196 71.5,-151.196 71.5,-169.196"/>
<text text-anchor="middle" x="57" y="-157.996" font-family="Times,serif" font-size="9.00">&#45;10</text>
</g>
<!-- &#45;10&#45;&gt;0 -->
<g id="edge26" class="edge"><title>&#45;10&#45;&gt;0</title>
<path fill="none" stroke="green" stroke-width="0.149247" d="M71.6359,-153.997C74.7082,-152.996 77.9437,-152.008 81,-151.196 162.088,-129.653 260.221,-112.592 305.245,-105.254"/>
<polygon fill="green" stroke="green" stroke-width="0.149247" points="305.944,-108.687 315.26,-103.64 304.83,-101.776 305.944,-108.687"/>
</g>
<!-- &#45;10&#45;&gt;3 -->
<g id="edge11" class="edge"><title>&#45;10&#45;&gt;3</title>
<path fill="none" stroke="green" stroke-width="0.713048" stroke-dasharray="1,5" d="M69.097,-151.152C83.1215,-141.827 106.471,-126.301 123.377,-115.06"/>
<polygon fill="green" stroke="green" stroke-width="0.713048" points="125.617,-117.774 132.006,-109.322 121.741,-111.945 125.617,-117.774"/>
</g>
<!-- &#45;11 -->
<g id="node11" class="node"><title>&#45;11</title>
<polygon fill="lightgray" stroke="black" points="755.5,-169.196 726.5,-169.196 726.5,-151.196 755.5,-151.196 755.5,-169.196"/>
<text text-anchor="middle" x="741" y="-157.996" font-family="Times,serif" font-size="9.00">&#45;11</text>
</g>
<!-- &#45;11&#45;&gt;0 -->
<g id="edge16" class="edge"><title>&#45;11&#45;&gt;0</title>
<path fill="none" stroke="green" stroke-width="0.260971" stroke-dasharray="1,5" d="M726.409,-153.814C723.333,-152.826 720.085,-151.89 717,-151.196 587.273,-122.025 551.727,-133.31 420,-115.196 397.847,-112.15 372.699,-108.242 354.628,-105.354"/>
<polygon fill="green" stroke="green" stroke-width="0.260971" points="355.061,-101.879 344.632,-103.746 353.949,-108.79 355.061,-101.879"/>
</g>
<!-- &#45;11&#45;&gt;2 -->
<g id="edge44" class="edge"><title>&#45;11&#45;&gt;2</title>
<path fill="none" stroke="red" stroke-width="0.204103" stroke-dasharray="1,5" d="M750.733,-151.152C761.334,-142.392 778.556,-128.159 791.881,-117.147"/>
<polygon fill="red" stroke="red" stroke-width="0.204103" points="794.487,-119.534 799.966,-110.465 790.028,-114.138 794.487,-119.534"/>
</g>
<!-- &#45;12 -->
<g id="node12" class="node"><title>&#45;12</title>
<polygon fill="lightgray" stroke="black" points="481.5,-169.196 452.5,-169.196 452.5,-151.196 481.5,-151.196 481.5,-169.196"/>
<text text-anchor="middle" x="467" y="-157.996" font-family="Times,serif" font-size="9.00">&#45;12</text>
</g>
<!-- &#45;12&#45;&gt;1 -->
<g id="edge18" class="edge"><title>&#45;12&#45;&gt;1</title>
<path fill="none" stroke="red" stroke-width="0.339235" d="M463.802,-151.152C461.017,-144.148 456.841,-133.645 453.041,-124.087"/>
<polygon fill="red" stroke="red" stroke-width="0.339235" points="456.238,-122.654 449.291,-114.655 449.733,-125.24 456.238,-122.654"/>
</g>
<!-- &#45;13 -->
<g id="node13" class="node"><title>&#45;13</title>
<polygon fill="lightgray" stroke="black" points="250.5,-169.196 221.5,-169.196 221.5,-151.196 250.5,-151.196 250.5,-169.196"/>
<text text-anchor="middle" x="236" y="-157.996" font-family="Times,serif" font-size="9.00">&#45;13</text>
</g>
<!-- &#45;13&#45;&gt;0 -->
<g id="edge48" class="edge"><title>&#45;13&#45;&gt;0</title>
<path fill="none" stroke="green" stroke-width="0.51376" d="M249.07,-151.152C264.606,-141.591 290.733,-125.512 309.089,-114.216"/>
<polygon fill="green" stroke="green" stroke-width="0.51376" points="310.957,-117.176 317.639,-108.954 307.288,-111.215 310.957,-117.176"/>
</g>
<!-- &#45;14 -->
<g id="node14" class="node"><title>&#45;14</title>
<polygon fill="lightgray" stroke="black" points="665.5,-169.196 636.5,-169.196 636.5,-151.196 665.5,-151.196 665.5,-169.196"/>
<text text-anchor="middle" x="651" y="-157.996" font-family="Times,serif" font-size="9.00">&#45;14</text>
</g>
<!-- &#45;14&#45;&gt;1 -->
<g id="edge51" class="edge"><title>&#45;14&#45;&gt;1</title>
<path fill="none" stroke="red" stroke-width="0.706932" d="M636.45,-153.962C633.657,-153.007 630.747,-152.045 628,-151.196 571.26,-133.666 503.662,-116.219 468.304,-107.352"/>
<polygon fill="red" stroke="red" stroke-width="0.706932" points="468.963,-103.909 458.413,-104.885 467.269,-110.701 468.963,-103.909"/>
</g>
<!-- &#45;14&#45;&gt;2 -->
<g id="edge17" class="edge"><title>&#45;14&#45;&gt;2</title>
<path fill="none" stroke="red" stroke-width="0.246986" stroke-dasharray="1,5" d="M665.766,-153.857C693.669,-143.769 754.335,-121.835 787.755,-109.751"/>
<polygon fill="red" stroke="red" stroke-width="0.246986" points="788.971,-113.033 797.185,-106.342 786.591,-106.45 788.971,-113.033"/>
</g>
<!-- &#45;14&#45;&gt;3 -->
<g id="edge32" class="edge"><title>&#45;14&#45;&gt;3</title>
<path fill="none" stroke="red" stroke-width="0.167021" d="M636.051,-153.437C633.399,-152.576 630.641,-151.783 628,-151.196 582.933,-141.18 261.882,-111.918 169.07,-103.585"/>
<polygon fill="red" stroke="red" stroke-width="0.167021" points="169.189,-100.082 158.917,-102.675 168.564,-107.054 169.189,-100.082"/>
</g>
<!-- &#45;15 -->
<g id="node15" class="node"><title>&#45;15</title>
<polygon fill="lightgray" stroke="black" points="528.5,-169.196 499.5,-169.196 499.5,-151.196 528.5,-151.196 528.5,-169.196"/>
<text text-anchor="middle" x="514" y="-157.996" font-family="Times,serif" font-size="9.00">&#45;15</text>
</g>
<!-- &#45;15&#45;&gt;1 -->
<g id="edge19" class="edge"><title>&#45;15&#45;&gt;1</title>
<path fill="none" stroke="red" stroke-width="0.257905" d="M504.267,-151.152C493.666,-142.392 476.444,-128.159 463.119,-117.147"/>
<polygon fill="red" stroke="red" stroke-width="0.257905" points="464.972,-114.138 455.034,-110.465 460.513,-119.534 464.972,-114.138"/>
</g>
<!-- &#45;16 -->
<g id="node16" class="node"><title>&#45;16</title>
<polygon fill="lightgray" stroke="black" points="344.5,-169.196 315.5,-169.196 315.5,-151.196 344.5,-151.196 344.5,-169.196"/>
<text text-anchor="middle" x="330" y="-157.996" font-family="Times,serif" font-size="9.00">&#45;16</text>
</g>
<!-- &#45;16&#45;&gt;0 -->
<g id="edge22" class="edge"><title>&#45;16&#45;&gt;0</title>
<path fill="none" stroke="red" stroke-width="0.270588" d="M330,-151.152C330,-144.547 330,-134.832 330,-125.731"/>
<polygon fill="red" stroke="red" stroke-width="0.270588" points="333.5,-125.554 330,-115.554 326.5,-125.554 333.5,-125.554"/>
</g>
<!-- &#45;16&#45;&gt;1 -->
<g id="edge34" class="edge"><title>&#45;16&#45;&gt;1</title>
<path fill="none" stroke="green" stroke-width="0.183059" d="M344.904,-151.633C364.461,-141.709 398.957,-124.204 421.649,-112.689"/>
<polygon fill="green" stroke="green" stroke-width="0.183059" points="423.526,-115.661 430.86,-108.015 420.359,-109.419 423.526,-115.661"/>
</g>
<!-- &#45;17 -->
<g id="node17" class="node"><title>&#45;17</title>
<polygon fill="lightgray" stroke="black" points="391.5,-169.196 362.5,-169.196 362.5,-151.196 391.5,-151.196 391.5,-169.196"/>
<text text-anchor="middle" x="377" y="-157.996" font-family="Times,serif" font-size="9.00">&#45;17</text>
</g>
<!-- &#45;17&#45;&gt;0 -->
<g id="edge4" class="edge"><title>&#45;17&#45;&gt;0</title>
<path fill="none" stroke="green" stroke-width="0.655123" d="M370.465,-151.152C364.016,-143.215 353.919,-130.787 345.424,-120.331"/>
<polygon fill="green" stroke="green" stroke-width="0.655123" points="348.077,-118.046 339.055,-112.492 342.644,-122.46 348.077,-118.046"/>
</g>
<!-- &#45;17&#45;&gt;1 -->
<g id="edge45" class="edge"><title>&#45;17&#45;&gt;1</title>
<path fill="none" stroke="green" stroke-width="0.41037" d="M386.316,-151.152C396.345,-142.493 412.564,-128.489 425.254,-117.532"/>
<polygon fill="green" stroke="green" stroke-width="0.41037" points="427.702,-120.043 432.983,-110.859 423.127,-114.745 427.702,-120.043"/>
</g>
<!-- &#45;18 -->
<g id="node18" class="node"><title>&#45;18</title>
<polygon fill="lightgray" stroke="black" points="203.5,-169.196 174.5,-169.196 174.5,-151.196 203.5,-151.196 203.5,-169.196"/>
<text text-anchor="middle" x="189" y="-157.996" font-family="Times,serif" font-size="9.00">&#45;18</text>
</g>
<!-- &#45;18&#45;&gt;0 -->
<g id="edge29" class="edge"><title>&#45;18&#45;&gt;0</title>
<path fill="none" stroke="green" stroke-width="0.307583" stroke-dasharray="1,5" d="M203.558,-153.223C228.105,-143.152 277.905,-122.72 307.147,-110.723"/>
<polygon fill="green" stroke="green" stroke-width="0.307583" points="308.635,-113.895 316.558,-106.862 305.978,-107.419 308.635,-113.895"/>
</g>
<!-- &#45;18&#45;&gt;2 -->
<g id="edge27" class="edge"><title>&#45;18&#45;&gt;2</title>
<path fill="none" stroke="red" stroke-width="0.200171" stroke-dasharray="1,5" d="M203.94,-153.393C206.592,-152.538 209.353,-151.757 212,-151.196 324.426,-127.364 686.818,-107.64 785.81,-102.597"/>
<polygon fill="red" stroke="red" stroke-width="0.200171" points="786.242,-106.079 796.053,-102.08 785.889,-99.0883 786.242,-106.079"/>
</g>
<!-- &#45;18&#45;&gt;3 -->
<g id="edge37" class="edge"><title>&#45;18&#45;&gt;3</title>
<path fill="none" stroke="green" stroke-width="0.209684" d="M182.743,-151.152C176.63,-143.294 167.092,-131.032 159.01,-120.642"/>
<polygon fill="green" stroke="green" stroke-width="0.209684" points="161.572,-118.236 152.67,-112.492 156.047,-122.534 161.572,-118.236"/>
</g>
<!-- &#45;19 -->
<g id="node19" class="node"><title>&#45;19</title>
<polygon fill="lightgray" stroke="black" points="802.5,-169.196 773.5,-169.196 773.5,-151.196 802.5,-151.196 802.5,-169.196"/>
<text text-anchor="middle" x="788" y="-157.996" font-family="Times,serif" font-size="9.00">&#45;19</text>
</g>
<!-- &#45;19&#45;&gt;0 -->
<g id="edge39" class="edge"><title>&#45;19&#45;&gt;0</title>
<path fill="none" stroke="green" stroke-width="0.44432" d="M773.05,-153.44C770.399,-152.579 767.641,-151.785 765,-151.196 614.528,-117.65 572.898,-134.925 420,-115.196 397.823,-112.334 372.677,-108.407 354.614,-105.465"/>
<polygon fill="green" stroke="green" stroke-width="0.44432" points="355.058,-101.991 344.622,-103.821 353.921,-108.898 355.058,-101.991"/>
</g>
<!-- &#45;19&#45;&gt;1 -->
<g id="edge31" class="edge"><title>&#45;19&#45;&gt;1</title>
<path fill="none" stroke="red" stroke-width="0.291452" d="M773.024,-153.551C770.375,-152.678 767.625,-151.851 765,-151.196 656.468,-124.13 523.43,-109.081 469.003,-103.675"/>
<polygon fill="red" stroke="red" stroke-width="0.291452" points="469.199,-100.178 458.907,-102.694 468.522,-107.145 469.199,-100.178"/>
</g>
<!-- &#45;19&#45;&gt;2 -->
<g id="edge14" class="edge"><title>&#45;19&#45;&gt;2</title>
<path fill="none" stroke="green" stroke-width="0.227431" d="M791.198,-151.152C793.983,-144.148 798.159,-133.645 801.959,-124.087"/>
<polygon fill="green" stroke="green" stroke-width="0.227431" points="805.267,-125.24 805.709,-114.655 798.762,-122.654 805.267,-125.24"/>
</g>
<!-- &#45;20 -->
<g id="node20" class="node"><title>&#45;20</title>
<polygon fill="lightgray" stroke="black" points="939.5,-169.196 910.5,-169.196 910.5,-151.196 939.5,-151.196 939.5,-169.196"/>
<text text-anchor="middle" x="925" y="-157.996" font-family="Times,serif" font-size="9.00">&#45;20</text>
</g>
<!-- &#45;20&#45;&gt;2 -->
<g id="edge1" class="edge"><title>&#45;20&#45;&gt;2</title>
<path fill="none" stroke="green" stroke-width="0.137122" d="M910.096,-151.633C890.539,-141.709 856.043,-124.204 833.351,-112.689"/>
<polygon fill="green" stroke="green" stroke-width="0.137122" points="834.641,-109.419 824.14,-108.015 831.474,-115.661 834.641,-109.419"/>
</g>
<!-- &#45;21 -->
<g id="node21" class="node"><title>&#45;21</title>
<polygon fill="lightgray" stroke="black" points="849.5,-169.196 820.5,-169.196 820.5,-151.196 849.5,-151.196 849.5,-169.196"/>
<text text-anchor="middle" x="835" y="-157.996" font-family="Times,serif" font-size="9.00">&#45;21</text>
</g>
<!-- &#45;21&#45;&gt;0 -->
<g id="edge21" class="edge"><title>&#45;21&#45;&gt;0</title>
<path fill="none" stroke="green" stroke-width="1.41288" d="M820.056,-153.412C817.404,-152.555 814.644,-151.768 812,-151.196 641.004,-114.185 593.652,-136.51 420,-115.196 397.806,-112.472 372.662,-108.53 354.603,-105.548"/>
<polygon fill="green" stroke="green" stroke-width="1.41288" points="355.056,-102.075 344.615,-103.877 353.901,-108.979 355.056,-102.075"/>
</g>
<!-- &#45;21&#45;&gt;2 -->
<g id="edge42" class="edge"><title>&#45;21&#45;&gt;2</title>
<path fill="none" stroke="red" stroke-width="0.576016" d="M831.663,-151.152C828.719,-144.055 824.285,-133.368 820.278,-123.71"/>
<polygon fill="red" stroke="red" stroke-width="0.576016" points="823.402,-122.108 816.338,-114.212 816.937,-124.79 823.402,-122.108"/>
</g>
<!-- &#45;22 -->
<g id="node22" class="node"><title>&#45;22</title>
<polygon fill="lightgray" stroke="black" points="618.5,-169.196 589.5,-169.196 589.5,-151.196 618.5,-151.196 618.5,-169.196"/>
<text text-anchor="middle" x="604" y="-157.996" font-family="Times,serif" font-size="9.00">&#45;22</text>
</g>
<!-- &#45;22&#45;&gt;1 -->
<g id="edge24" class="edge"><title>&#45;22&#45;&gt;1</title>
<path fill="none" stroke="red" stroke-width="0.206053" d="M589.234,-153.857C561.331,-143.769 500.665,-121.835 467.245,-109.751"/>
<polygon fill="red" stroke="red" stroke-width="0.206053" points="468.409,-106.45 457.815,-106.342 466.029,-113.033 468.409,-106.45"/>
</g>
<!-- &#45;22&#45;&gt;2 -->
<g id="edge40" class="edge"><title>&#45;22&#45;&gt;2</title>
<path fill="none" stroke="green" stroke-width="0.119718" stroke-dasharray="1,5" d="M618.682,-154.158C621.751,-153.145 624.973,-152.112 628,-151.196 684.553,-134.082 751.735,-116.469 786.861,-107.464"/>
<polygon fill="green" stroke="green" stroke-width="0.119718" points="787.862,-110.821 796.686,-104.956 786.131,-104.038 787.862,-110.821"/>
</g>
<!-- &#45;22&#45;&gt;3 -->
<g id="edge50" class="edge"><title>&#45;22&#45;&gt;3</title>
<path fill="none" stroke="red" stroke-width="0.547873" stroke-dasharray="1,5" d="M589.413,-153.797C586.337,-152.811 583.088,-151.879 580,-151.196 500.428,-133.586 249.357,-110.595 168.999,-103.516"/>
<polygon fill="red" stroke="red" stroke-width="0.547873" points="169.096,-100.011 158.829,-102.624 168.485,-106.984 169.096,-100.011"/>
</g>
<!-- &#45;23 -->
<g id="node23" class="node"><title>&#45;23</title>
<polygon fill="lightgray" stroke="black" points="1071.5,-169.196 1042.5,-169.196 1042.5,-151.196 1071.5,-151.196 1071.5,-169.196"/>
<text text-anchor="middle" x="1057" y="-157.996" font-family="Times,serif" font-size="9.00">&#45;23</text>
</g>
<!-- &#45;24 -->
<g id="node24" class="node"><title>&#45;24</title>
<polygon fill="lightgray" stroke="black" points="297.5,-169.196 268.5,-169.196 268.5,-151.196 297.5,-151.196 297.5,-169.196"/>
<text text-anchor="middle" x="283" y="-157.996" font-family="Times,serif" font-size="9.00">&#45;24</text>
</g>
<!-- &#45;24&#45;&gt;0 -->
<g id="edge43" class="edge"><title>&#45;24&#45;&gt;0</title>
<path fill="none" stroke="green" stroke-width="0.691033" d="M289.535,-151.152C295.984,-143.215 306.081,-130.787 314.576,-120.331"/>
<polygon fill="green" stroke="green" stroke-width="0.691033" points="317.356,-122.46 320.945,-112.492 311.923,-118.046 317.356,-122.46"/>
</g>
<!-- &#45;24&#45;&gt;1 -->
<g id="edge3" class="edge"><title>&#45;24&#45;&gt;1</title>
<path fill="none" stroke="green" stroke-width="0.362314" stroke-dasharray="1,5" d="M297.572,-153.96C325.491,-143.928 386.742,-121.92 420.508,-109.788"/>
<polygon fill="green" stroke="green" stroke-width="0.362314" points="421.809,-113.039 430.037,-106.364 419.442,-106.452 421.809,-113.039"/>
</g>
<!-- 1&#45;&gt;1 -->
<g id="edge28" class="edge"><title>1&#45;&gt;1</title>
<path fill="none" stroke="red" stroke-width="0.169114" d="M455.788,-109.427C466.022,-113.569 476.849,-110.542 476.849,-100.347 476.849,-93.4967 471.962,-89.8828 465.65,-89.5048"/>
<polygon fill="red" stroke="red" stroke-width="0.169114" points="465.016,-86.0626 455.788,-91.2665 466.247,-92.9535 465.016,-86.0626"/>
</g>
<!-- 2&#45;&gt;2 -->
<g id="edge25" class="edge"><title>2&#45;&gt;2</title>
<path fill="none" stroke="green" stroke-width="1.0413" d="M822.788,-109.427C833.022,-113.569 843.849,-110.542 843.849,-100.347 843.849,-93.4967 838.962,-89.8828 832.65,-89.5048"/>
<polygon fill="green" stroke="green" stroke-width="1.0413" points="832.016,-86.0626 822.788,-91.2665 833.247,-92.9535 832.016,-86.0626"/>
</g>
<!-- 2&#45;&gt;3760 -->
<g id="edge12" class="edge"><title>2&#45;&gt;3760</title>
<path fill="none" stroke="green" stroke-width="0.154376" d="M805.684,-86.1889C804.598,-78.5979 804.128,-68.6795 804.277,-59.0788"/>
<polygon fill="green" stroke="green" stroke-width="0.154376" points="807.781,-59.0418 804.68,-48.9109 800.786,-58.7643 807.781,-59.0418"/>
</g>
<!-- 3&#45;&gt;3 -->
<g id="edge15" class="edge"><title>3&#45;&gt;3</title>
<path fill="none" stroke="red" stroke-width="0.556265" d="M155.788,-109.427C166.022,-113.569 176.849,-110.542 176.849,-100.347 176.849,-93.4967 171.962,-89.8828 165.65,-89.5048"/>
<polygon fill="red" stroke="red" stroke-width="0.556265" points="165.016,-86.0626 155.788,-91.2665 166.247,-92.9535 165.016,-86.0626"/>
</g>
<!-- 3760&#45;&gt;2 -->
<g id="edge6" class="edge"><title>3760&#45;&gt;2</title>
<path fill="none" stroke="red" stroke-width="0.531454" d="M817.32,-48.9109C817.89,-57.5516 817.893,-67.3607 817.331,-76.0165"/>
<polygon fill="red" stroke="red" stroke-width="0.531454" points="813.826,-75.8907 816.316,-86.1889 820.792,-76.5859 813.826,-75.8907"/>
</g>
</g>
</svg>
