<?xml version="1.0" encoding="UTF-8" standalone="no"?>
<!DOCTYPE svg PUBLIC "-//W3C//DTD SVG 1.1//EN"
 "http://www.w3.org/Graphics/SVG/1.1/DTD/svg11.dtd">
<!-- Generated by graphviz version 2.38.0 (20140413.2041)
 -->
<!-- Title: %3 Pages: 1 -->
<svg width="1179pt" height="360pt"
 viewBox="0.00 0.00 1178.85 359.89" xmlns="http://www.w3.org/2000/svg" xmlns:xlink="http://www.w3.org/1999/xlink">
<g id="graph0" class="graph" transform="scale(1 1) rotate(0) translate(4 355.889)">
<title>%3</title>
<polygon fill="white" stroke="none" points="-4,4 -4,-355.889 1174.85,-355.889 1174.85,4 -4,4"/>
<!-- &#45;1 -->
<g id="node1" class="node"><title>&#45;1</title>
<polygon fill="lightgray" stroke="black" points="40,-346.04 16,-346.04 16,-328.04 40,-328.04 40,-346.04"/>
<text text-anchor="middle" x="28" y="-334.84" font-family="Times,serif" font-size="9.00">&#45;1</text>
</g>
<!-- &#45;2 -->
<g id="node2" class="node"><title>&#45;2</title>
<polygon fill="lightgray" stroke="black" points="82,-346.04 58,-346.04 58,-328.04 82,-328.04 82,-346.04"/>
<text text-anchor="middle" x="70" y="-334.84" font-family="Times,serif" font-size="9.00">&#45;2</text>
</g>
<!-- &#45;3 -->
<g id="node3" class="node"><title>&#45;3</title>
<polygon fill="lightgray" stroke="black" points="24,-184.945 0,-184.945 0,-166.945 24,-166.945 24,-184.945"/>
<text text-anchor="middle" x="12" y="-173.745" font-family="Times,serif" font-size="9.00">&#45;3</text>
</g>
<!-- 1 -->
<g id="node26" class="node"><title>1</title>
<ellipse fill="lightblue" stroke="black" cx="85" cy="-14.8492" rx="14.7" ry="14.7"/>
<text text-anchor="middle" x="85" y="-12.6492" font-family="Times,serif" font-size="9.00">1</text>
</g>
<!-- &#45;3&#45;&gt;1 -->
<g id="edge15" class="edge"><title>&#45;3&#45;&gt;1</title>
<path fill="none" stroke="green" stroke-width="0.401677" d="M11.0312,-166.937C9.13108,-148.017 6.57068,-99.5948 25,-65.6985 33.7774,-49.5546 50.1061,-36.5199 63.5155,-27.8339"/>
<polygon fill="green" stroke="green" stroke-width="0.401677" points="65.4918,-30.7281 72.2038,-22.5305 61.8447,-24.7533 65.4918,-30.7281"/>
</g>
<!-- 2197 -->
<g id="node33" class="node"><title>2197</title>
<ellipse fill="white" stroke="black" cx="59" cy="-90.4472" rx="25" ry="25"/>
<text text-anchor="middle" x="59" y="-88.2472" font-family="Times,serif" font-size="9.00">2197</text>
</g>
<!-- &#45;3&#45;&gt;2197 -->
<g id="edge18" class="edge"><title>&#45;3&#45;&gt;2197</title>
<path fill="none" stroke="green" stroke-width="0.666846" d="M16.5066,-166.939C22.3453,-156.566 32.8564,-137.892 41.9633,-121.714"/>
<polygon fill="green" stroke="green" stroke-width="0.666846" points="45.2619,-122.989 47.1171,-112.558 39.1619,-119.555 45.2619,-122.989"/>
</g>
<!-- &#45;4 -->
<g id="node4" class="node"><title>&#45;4</title>
<polygon fill="lightgray" stroke="black" points="380,-346.04 356,-346.04 356,-328.04 380,-328.04 380,-346.04"/>
<text text-anchor="middle" x="368" y="-334.84" font-family="Times,serif" font-size="9.00">&#45;4</text>
</g>
<!-- &#45;5 -->
<g id="node5" class="node"><title>&#45;5</title>
<polygon fill="lightgray" stroke="black" points="560,-270.442 536,-270.442 536,-252.442 560,-252.442 560,-270.442"/>
<text text-anchor="middle" x="548" y="-259.242" font-family="Times,serif" font-size="9.00">&#45;5</text>
</g>
<!-- 2 -->
<g id="node27" class="node"><title>2</title>
<ellipse fill="lightblue" stroke="black" cx="548" cy="-175.945" rx="14.7" ry="14.7"/>
<text text-anchor="middle" x="548" y="-173.745" font-family="Times,serif" font-size="9.00">2</text>
</g>
<!-- &#45;5&#45;&gt;2 -->
<g id="edge23" class="edge"><title>&#45;5&#45;&gt;2</title>
<path fill="none" stroke="red" stroke-width="0.832001" d="M548,-252.436C548,-240.673 548,-218.235 548,-200.866"/>
<polygon fill="red" stroke="red" stroke-width="0.832001" points="551.5,-200.847 548,-190.847 544.5,-200.847 551.5,-200.847"/>
</g>
<!-- &#45;6 -->
<g id="node6" class="node"><title>&#45;6</title>
<polygon fill="lightgray" stroke="black" points="422,-346.04 398,-346.04 398,-328.04 422,-328.04 422,-346.04"/>
<text text-anchor="middle" x="410" y="-334.84" font-family="Times,serif" font-size="9.00">&#45;6</text>
</g>
<!-- &#45;7 -->
<g id="node7" class="node"><title>&#45;7</title>
<polygon fill="lightgray" stroke="black" points="338,-346.04 314,-346.04 314,-328.04 338,-328.04 338,-346.04"/>
<text text-anchor="middle" x="326" y="-334.84" font-family="Times,serif" font-size="9.00">&#45;7</text>
</g>
<!-- 6507 -->
<g id="node29" class="node"><title>6507</title>
<ellipse fill="white" stroke="black" cx="452" cy="-261.442" rx="25" ry="25"/>
<text text-anchor="middle" x="452" y="-259.242" font-family="Times,serif" font-size="9.00">6507</text>
</g>
<!-- &#45;7&#45;&gt;6507 -->
<g id="edge2" class="edge"><title>&#45;7&#45;&gt;6507</title>
<path fill="none" stroke="green" stroke-width="0.391702" d="M337.845,-327.891C340.795,-325.956 343.979,-323.946 347,-322.191 377.595,-304.423 387.645,-304.366 418,-286.191 419.958,-285.019 421.951,-283.773 423.943,-282.49"/>
<polygon fill="green" stroke="green" stroke-width="0.391702" points="426.173,-285.209 432.534,-276.736 422.278,-279.392 426.173,-285.209"/>
</g>
<!-- 2831 -->
<g id="node30" class="node"><title>2831</title>
<ellipse fill="white" stroke="black" cx="449" cy="-90.4472" rx="25" ry="25"/>
<text text-anchor="middle" x="449" y="-88.2472" font-family="Times,serif" font-size="9.00">2831</text>
</g>
<!-- &#45;7&#45;&gt;2831 -->
<g id="edge8" class="edge"><title>&#45;7&#45;&gt;2831</title>
<path fill="none" stroke="green" stroke-width="0.689351" d="M336.724,-327.992C339.909,-325.876 343.488,-323.752 347,-322.191 405.316,-296.273 446.94,-336.656 486,-286.191 523.698,-237.486 490.605,-161.704 467.276,-120.506"/>
<polygon fill="green" stroke="green" stroke-width="0.689351" points="470.247,-118.653 462.185,-111.779 464.2,-122.181 470.247,-118.653"/>
</g>
<!-- 7316 -->
<g id="node32" class="node"><title>7316</title>
<ellipse fill="white" stroke="black" cx="232" cy="-261.442" rx="25" ry="25"/>
<text text-anchor="middle" x="232" y="-259.242" font-family="Times,serif" font-size="9.00">7316</text>
</g>
<!-- &#45;7&#45;&gt;7316 -->
<g id="edge7" class="edge"><title>&#45;7&#45;&gt;7316</title>
<path fill="none" stroke="green" stroke-width="0.274135" d="M315.581,-327.883C302.09,-317.32 278.075,-298.517 259.238,-283.769"/>
<polygon fill="green" stroke="green" stroke-width="0.274135" points="261.298,-280.936 251.267,-277.527 256.983,-286.448 261.298,-280.936"/>
</g>
<!-- 7637 -->
<g id="node34" class="node"><title>7637</title>
<ellipse fill="white" stroke="black" cx="299" cy="-261.442" rx="25" ry="25"/>
<text text-anchor="middle" x="299" y="-259.242" font-family="Times,serif" font-size="9.00">7637</text>
</g>
<!-- &#45;7&#45;&gt;7637 -->
<g id="edge22" class="edge"><title>&#45;7&#45;&gt;7637</title>
<path fill="none" stroke="green" stroke-width="0.3" d="M323.007,-327.883C320.039,-319.791 315.297,-306.864 310.808,-294.629"/>
<polygon fill="green" stroke="green" stroke-width="0.3" points="314.031,-293.252 307.301,-285.07 307.459,-295.663 314.031,-293.252"/>
</g>
<!-- 4505 -->
<g id="node35" class="node"><title>4505</title>
<ellipse fill="white" stroke="black" cx="373" cy="-175.945" rx="25" ry="25"/>
<text text-anchor="middle" x="373" y="-173.745" font-family="Times,serif" font-size="9.00">4505</text>
</g>
<!-- &#45;7&#45;&gt;4505 -->
<g id="edge5" class="edge"><title>&#45;7&#45;&gt;4505</title>
<path fill="none" stroke="red" stroke-width="0.393879" d="M328.395,-327.932C334.722,-306.516 352.153,-247.513 363.258,-209.923"/>
<polygon fill="red" stroke="red" stroke-width="0.393879" points="366.731,-210.52 366.207,-199.938 360.018,-208.536 366.731,-210.52"/>
</g>
<!-- 5851 -->
<g id="node37" class="node"><title>5851</title>
<ellipse fill="white" stroke="black" cx="165" cy="-261.442" rx="25" ry="25"/>
<text text-anchor="middle" x="165" y="-259.242" font-family="Times,serif" font-size="9.00">5851</text>
</g>
<!-- &#45;7&#45;&gt;5851 -->
<g id="edge19" class="edge"><title>&#45;7&#45;&gt;5851</title>
<path fill="none" stroke="green" stroke-width="0.151835" d="M313.908,-332.461C290.659,-325.337 238.445,-308.16 198,-286.191 196.232,-285.231 194.449,-284.19 192.676,-283.099"/>
<polygon fill="green" stroke="green" stroke-width="0.151835" points="194.279,-279.962 184.01,-277.357 190.413,-285.798 194.279,-279.962"/>
</g>
<!-- &#45;8 -->
<g id="node8" class="node"><title>&#45;8</title>
<polygon fill="lightgray" stroke="black" points="124,-346.04 100,-346.04 100,-328.04 124,-328.04 124,-346.04"/>
<text text-anchor="middle" x="112" y="-334.84" font-family="Times,serif" font-size="9.00">&#45;8</text>
</g>
<!-- &#45;8&#45;&gt;1 -->
<g id="edge9" class="edge"><title>&#45;8&#45;&gt;1</title>
<path fill="none" stroke="green" stroke-width="0.149812" d="M111.681,-327.606C110.362,-294.274 104.841,-168.529 93,-65.6985 92.0239,-57.2222 90.6335,-47.9844 89.2849,-39.7899"/>
<polygon fill="green" stroke="green" stroke-width="0.149812" points="92.7073,-39.0386 87.5745,-29.7701 85.8071,-40.2165 92.7073,-39.0386"/>
</g>
<!-- &#45;8&#45;&gt;2197 -->
<g id="edge11" class="edge"><title>&#45;8&#45;&gt;2197</title>
<path fill="none" stroke="green" stroke-width="0.213447" d="M109.53,-327.974C106.572,-318.157 101.569,-301.05 98,-286.191 84.5297,-230.108 72.0118,-164.171 64.9528,-125.201"/>
<polygon fill="green" stroke="green" stroke-width="0.213447" points="68.325,-124.178 63.1102,-114.955 61.4355,-125.417 68.325,-124.178"/>
</g>
<!-- &#45;8&#45;&gt;5851 -->
<g id="edge4" class="edge"><title>&#45;8&#45;&gt;5851</title>
<path fill="none" stroke="red" stroke-width="0.511481" d="M117.874,-327.883C124.374,-318.857 135.207,-303.814 144.848,-290.426"/>
<polygon fill="red" stroke="red" stroke-width="0.511481" points="147.951,-292.106 150.955,-281.946 142.271,-288.016 147.951,-292.106"/>
</g>
<!-- &#45;9 -->
<g id="node9" class="node"><title>&#45;9</title>
<polygon fill="lightgray" stroke="black" points="464,-346.04 440,-346.04 440,-328.04 464,-328.04 464,-346.04"/>
<text text-anchor="middle" x="452" y="-334.84" font-family="Times,serif" font-size="9.00">&#45;9</text>
</g>
<!-- &#45;10 -->
<g id="node10" class="node"><title>&#45;10</title>
<polygon fill="lightgray" stroke="black" points="511.5,-346.04 482.5,-346.04 482.5,-328.04 511.5,-328.04 511.5,-346.04"/>
<text text-anchor="middle" x="497" y="-334.84" font-family="Times,serif" font-size="9.00">&#45;10</text>
</g>
<!-- &#45;11 -->
<g id="node11" class="node"><title>&#45;11</title>
<polygon fill="lightgray" stroke="black" points="558.5,-346.04 529.5,-346.04 529.5,-328.04 558.5,-328.04 558.5,-346.04"/>
<text text-anchor="middle" x="544" y="-334.84" font-family="Times,serif" font-size="9.00">&#45;11</text>
</g>
<!-- &#45;12 -->
<g id="node12" class="node"><title>&#45;12</title>
<polygon fill="lightgray" stroke="black" points="605.5,-346.04 576.5,-346.04 576.5,-328.04 605.5,-328.04 605.5,-346.04"/>
<text text-anchor="middle" x="591" y="-334.84" font-family="Times,serif" font-size="9.00">&#45;12</text>
</g>
<!-- &#45;13 -->
<g id="node13" class="node"><title>&#45;13</title>
<polygon fill="lightgray" stroke="black" points="652.5,-346.04 623.5,-346.04 623.5,-328.04 652.5,-328.04 652.5,-346.04"/>
<text text-anchor="middle" x="638" y="-334.84" font-family="Times,serif" font-size="9.00">&#45;13</text>
</g>
<!-- &#45;14 -->
<g id="node14" class="node"><title>&#45;14</title>
<polygon fill="lightgray" stroke="black" points="620.5,-270.442 591.5,-270.442 591.5,-252.442 620.5,-252.442 620.5,-270.442"/>
<text text-anchor="middle" x="606" y="-259.242" font-family="Times,serif" font-size="9.00">&#45;14</text>
</g>
<!-- 6991 -->
<g id="node31" class="node"><title>6991</title>
<ellipse fill="white" stroke="black" cx="606" cy="-175.945" rx="25" ry="25"/>
<text text-anchor="middle" x="606" y="-173.745" font-family="Times,serif" font-size="9.00">6991</text>
</g>
<!-- &#45;14&#45;&gt;6991 -->
<g id="edge16" class="edge"><title>&#45;14&#45;&gt;6991</title>
<path fill="none" stroke="green" stroke-width="0.327952" d="M606,-252.436C606,-242.885 606,-226.295 606,-211.096"/>
<polygon fill="green" stroke="green" stroke-width="0.327952" points="609.5,-210.9 606,-200.9 602.5,-210.9 609.5,-210.9"/>
</g>
<!-- &#45;15 -->
<g id="node15" class="node"><title>&#45;15</title>
<polygon fill="lightgray" stroke="black" points="699.5,-346.04 670.5,-346.04 670.5,-328.04 699.5,-328.04 699.5,-346.04"/>
<text text-anchor="middle" x="685" y="-334.84" font-family="Times,serif" font-size="9.00">&#45;15</text>
</g>
<!-- &#45;16 -->
<g id="node16" class="node"><title>&#45;16</title>
<polygon fill="lightgray" stroke="black" points="409.5,-270.442 380.5,-270.442 380.5,-252.442 409.5,-252.442 409.5,-270.442"/>
<text text-anchor="middle" x="395" y="-259.242" font-family="Times,serif" font-size="9.00">&#45;16</text>
</g>
<!-- &#45;16&#45;&gt;4505 -->
<g id="edge6" class="edge"><title>&#45;16&#45;&gt;4505</title>
<path fill="none" stroke="green" stroke-width="1.03791" d="M392.891,-252.436C390.314,-242.659 385.795,-225.507 381.715,-210.021"/>
<polygon fill="green" stroke="green" stroke-width="1.03791" points="385.054,-208.957 379.122,-200.179 378.285,-210.741 385.054,-208.957"/>
</g>
<!-- &#45;17 -->
<g id="node17" class="node"><title>&#45;17</title>
<polygon fill="lightgray" stroke="black" points="746.5,-346.04 717.5,-346.04 717.5,-328.04 746.5,-328.04 746.5,-346.04"/>
<text text-anchor="middle" x="732" y="-334.84" font-family="Times,serif" font-size="9.00">&#45;17</text>
</g>
<!-- &#45;18 -->
<g id="node18" class="node"><title>&#45;18</title>
<polygon fill="lightgray" stroke="black" points="793.5,-346.04 764.5,-346.04 764.5,-328.04 793.5,-328.04 793.5,-346.04"/>
<text text-anchor="middle" x="779" y="-334.84" font-family="Times,serif" font-size="9.00">&#45;18</text>
</g>
<!-- &#45;19 -->
<g id="node19" class="node"><title>&#45;19</title>
<polygon fill="lightgray" stroke="black" points="840.5,-346.04 811.5,-346.04 811.5,-328.04 840.5,-328.04 840.5,-346.04"/>
<text text-anchor="middle" x="826" y="-334.84" font-family="Times,serif" font-size="9.00">&#45;19</text>
</g>
<!-- &#45;20 -->
<g id="node20" class="node"><title>&#45;20</title>
<polygon fill="lightgray" stroke="black" points="887.5,-346.04 858.5,-346.04 858.5,-328.04 887.5,-328.04 887.5,-346.04"/>
<text text-anchor="middle" x="873" y="-334.84" font-family="Times,serif" font-size="9.00">&#45;20</text>
</g>
<!-- &#45;21 -->
<g id="node21" class="node"><title>&#45;21</title>
<polygon fill="lightgray" stroke="black" points="934.5,-346.04 905.5,-346.04 905.5,-328.04 934.5,-328.04 934.5,-346.04"/>
<text text-anchor="middle" x="920" y="-334.84" font-family="Times,serif" font-size="9.00">&#45;21</text>
</g>
<!-- &#45;22 -->
<g id="node22" class="node"><title>&#45;22</title>
<polygon fill="lightgray" stroke="black" points="981.5,-346.04 952.5,-346.04 952.5,-328.04 981.5,-328.04 981.5,-346.04"/>
<text text-anchor="middle" x="967" y="-334.84" font-family="Times,serif" font-size="9.00">&#45;22</text>
</g>
<!-- &#45;23 -->
<g id="node23" class="node"><title>&#45;23</title>
<polygon fill="lightgray" stroke="black" points="1028.5,-346.04 999.5,-346.04 999.5,-328.04 1028.5,-328.04 1028.5,-346.04"/>
<text text-anchor="middle" x="1014" y="-334.84" font-family="Times,serif" font-size="9.00">&#45;23</text>
</g>
<!-- &#45;24 -->
<g id="node24" class="node"><title>&#45;24</title>
<polygon fill="lightgray" stroke="black" points="1075.5,-346.04 1046.5,-346.04 1046.5,-328.04 1075.5,-328.04 1075.5,-346.04"/>
<text text-anchor="middle" x="1061" y="-334.84" font-family="Times,serif" font-size="9.00">&#45;24</text>
</g>
<!-- 0 -->
<g id="node25" class="node"><title>0</title>
<ellipse fill="lightblue" stroke="black" cx="1108" cy="-337.04" rx="14.7" ry="14.7"/>
<text text-anchor="middle" x="1108" y="-334.84" font-family="Times,serif" font-size="9.00">0</text>
</g>
<!-- 2&#45;&gt;2831 -->
<g id="edge21" class="edge"><title>2&#45;&gt;2831</title>
<path fill="none" stroke="green" stroke-width="0.307871" d="M537.027,-165.69C522.248,-153.226 495.479,-130.648 475.327,-113.652"/>
<polygon fill="green" stroke="green" stroke-width="0.307871" points="477.324,-110.758 467.424,-106.986 472.811,-116.108 477.324,-110.758"/>
</g>
<!-- 3 -->
<g id="node28" class="node"><title>3</title>
<ellipse fill="lightblue" stroke="black" cx="1156" cy="-337.04" rx="14.7" ry="14.7"/>
<text text-anchor="middle" x="1156" y="-334.84" font-family="Times,serif" font-size="9.00">3</text>
</g>
<!-- 6507&#45;&gt;4505 -->
<g id="edge14" class="edge"><title>6507&#45;&gt;4505</title>
<path fill="none" stroke="red" stroke-width="0.37694" d="M435.246,-242.735C424.039,-230.889 409.126,-215.128 396.707,-202.001"/>
<polygon fill="red" stroke="red" stroke-width="0.37694" points="399.145,-199.485 389.73,-194.627 394.06,-204.296 399.145,-199.485"/>
</g>
<!-- 2831&#45;&gt;1 -->
<g id="edge10" class="edge"><title>2831&#45;&gt;1</title>
<path fill="none" stroke="red" stroke-width="0.373437" d="M424.835,-84.5613C358.804,-71.2104 175.853,-34.219 109.467,-20.7963"/>
<polygon fill="red" stroke="red" stroke-width="0.373437" points="109.999,-17.3332 99.504,-18.7818 108.612,-24.1943 109.999,-17.3332"/>
</g>
<!-- 6991&#45;&gt;2831 -->
<g id="edge24" class="edge"><title>6991&#45;&gt;2831</title>
<path fill="none" stroke="red" stroke-width="0.554656" d="M586.57,-160.591C581.891,-157.355 576.843,-154.04 572,-151.196 542.18,-133.686 506.472,-116.758 481.232,-105.419"/>
<polygon fill="red" stroke="red" stroke-width="0.554656" points="482.331,-102.077 471.772,-101.21 479.486,-108.473 482.331,-102.077"/>
</g>
<!-- 7316&#45;&gt;4505 -->
<g id="edge3" class="edge"><title>7316&#45;&gt;4505</title>
<path fill="none" stroke="red" stroke-width="0.578656" d="M251.631,-245.737C255.968,-242.652 260.587,-239.488 265,-236.693 290.344,-220.643 320.268,-204.278 342.183,-192.743"/>
<polygon fill="red" stroke="red" stroke-width="0.578656" points="343.806,-195.844 351.048,-188.111 340.564,-189.64 343.806,-195.844"/>
</g>
<!-- 2197&#45;&gt;1 -->
<g id="edge17" class="edge"><title>2197&#45;&gt;1</title>
<path fill="none" stroke="green" stroke-width="0.695923" d="M66.9421,-66.9655C70.1104,-57.997 73.7536,-47.6843 76.9341,-38.6813"/>
<polygon fill="green" stroke="green" stroke-width="0.695923" points="80.2475,-39.8094 80.2784,-29.2146 73.6473,-37.4777 80.2475,-39.8094"/>
</g>
<!-- 7637&#45;&gt;4505 -->
<g id="edge12" class="edge"><title>7637&#45;&gt;4505</title>
<path fill="none" stroke="red" stroke-width="0.334533" d="M315.057,-242.324C325.336,-230.726 338.83,-215.5 350.21,-202.66"/>
<polygon fill="red" stroke="red" stroke-width="0.334533" points="352.961,-204.832 356.974,-195.027 347.722,-200.19 352.961,-204.832"/>
</g>
<!-- 4505&#45;&gt;2831 -->
<g id="edge20" class="edge"><title>4505&#45;&gt;2831</title>
<path fill="none" stroke="red" stroke-width="0.82865" d="M389.491,-156.827C400.12,-145.149 414.097,-129.794 425.834,-116.899"/>
<polygon fill="red" stroke="red" stroke-width="0.82865" points="428.659,-118.994 432.802,-109.243 423.483,-114.282 428.659,-118.994"/>
</g>
<!-- 6074 -->
<g id="node36" class="node"><title>6074</title>
<ellipse fill="white" stroke="black" cx="225" cy="-175.945" rx="25" ry="25"/>
<text text-anchor="middle" x="225" y="-173.745" font-family="Times,serif" font-size="9.00">6074</text>
</g>
<!-- 6074&#45;&gt;2831 -->
<g id="edge1" class="edge"><title>6074&#45;&gt;2831</title>
<path fill="none" stroke="green" stroke-width="0.252818" d="M248.128,-166.323C288.222,-151.378 370.722,-120.626 416.536,-103.548"/>
<polygon fill="green" stroke="green" stroke-width="0.252818" points="417.85,-106.794 425.998,-100.022 415.405,-100.235 417.85,-106.794"/>
</g>
<!-- 5851&#45;&gt;6074 -->
<g id="edge13" class="edge"><title>5851&#45;&gt;6074</title>
<path fill="none" stroke="green" stroke-width="0.358918" d="M179.219,-240.654C186.916,-229.944 196.549,-216.538 204.991,-204.789"/>
<polygon fill="green" stroke="green" stroke-width="0.358918" points="207.89,-206.754 210.883,-196.59 202.205,-202.669 207.89,-206.754"/>
</g>
</g>
</svg>
