<?xml version="1.0" encoding="UTF-8" standalone="no"?>
<!DOCTYPE svg PUBLIC "-//W3C//DTD SVG 1.1//EN"
 "http://www.w3.org/Graphics/SVG/1.1/DTD/svg11.dtd">
<!-- Generated by graphviz version 2.38.0 (20140413.2041)
 -->
<!-- Title: %3 Pages: 1 -->
<svg width="1221pt" height="360pt"
 viewBox="0.00 0.00 1220.85 359.89" xmlns="http://www.w3.org/2000/svg" xmlns:xlink="http://www.w3.org/1999/xlink">
<g id="graph0" class="graph" transform="scale(1 1) rotate(0) translate(4 355.889)">
<title>%3</title>
<polygon fill="white" stroke="none" points="-4,4 -4,-355.889 1216.85,-355.889 1216.85,4 -4,4"/>
<!-- &#45;1 -->
<g id="node1" class="node"><title>&#45;1</title>
<polygon fill="lightgray" stroke="black" points="24,-346.04 0,-346.04 0,-328.04 24,-328.04 24,-346.04"/>
<text text-anchor="middle" x="12" y="-334.84" font-family="Times,serif" font-size="9.00">&#45;1</text>
</g>
<!-- &#45;2 -->
<g id="node2" class="node"><title>&#45;2</title>
<polygon fill="lightgray" stroke="black" points="66,-346.04 42,-346.04 42,-328.04 66,-328.04 66,-346.04"/>
<text text-anchor="middle" x="54" y="-334.84" font-family="Times,serif" font-size="9.00">&#45;2</text>
</g>
<!-- &#45;3 -->
<g id="node3" class="node"><title>&#45;3</title>
<polygon fill="lightgray" stroke="black" points="49,-184.945 25,-184.945 25,-166.945 49,-166.945 49,-184.945"/>
<text text-anchor="middle" x="37" y="-173.745" font-family="Times,serif" font-size="9.00">&#45;3</text>
</g>
<!-- 1 -->
<g id="node26" class="node"><title>1</title>
<ellipse fill="lightblue" stroke="black" cx="61" cy="-14.8492" rx="14.7" ry="14.7"/>
<text text-anchor="middle" x="61" y="-12.6492" font-family="Times,serif" font-size="9.00">1</text>
</g>
<!-- &#45;3&#45;&gt;1 -->
<g id="edge18" class="edge"><title>&#45;3&#45;&gt;1</title>
<path fill="none" stroke="green" stroke-width="0.401677" d="M38.2232,-166.836C41.7205,-143.653 51.863,-76.4185 57.3585,-39.9886"/>
<polygon fill="green" stroke="green" stroke-width="0.401677" points="60.8714,-40.1649 58.9023,-29.7546 53.9498,-39.1206 60.8714,-40.1649"/>
</g>
<!-- 2197 -->
<g id="node33" class="node"><title>2197</title>
<ellipse fill="white" stroke="black" cx="88" cy="-90.4472" rx="25" ry="25"/>
<text text-anchor="middle" x="88" y="-88.2472" font-family="Times,serif" font-size="9.00">2197</text>
</g>
<!-- &#45;3&#45;&gt;2197 -->
<g id="edge21" class="edge"><title>&#45;3&#45;&gt;2197</title>
<path fill="none" stroke="green" stroke-width="0.666846" d="M41.8901,-166.939C48.3691,-156.331 60.1502,-137.043 70.1818,-120.619"/>
<polygon fill="green" stroke="green" stroke-width="0.666846" points="73.3044,-122.221 75.5301,-111.863 67.3306,-118.573 73.3044,-122.221"/>
</g>
<!-- &#45;4 -->
<g id="node4" class="node"><title>&#45;4</title>
<polygon fill="lightgray" stroke="black" points="422,-346.04 398,-346.04 398,-328.04 422,-328.04 422,-346.04"/>
<text text-anchor="middle" x="410" y="-334.84" font-family="Times,serif" font-size="9.00">&#45;4</text>
</g>
<!-- &#45;5 -->
<g id="node5" class="node"><title>&#45;5</title>
<polygon fill="lightgray" stroke="black" points="649,-270.442 625,-270.442 625,-252.442 649,-252.442 649,-270.442"/>
<text text-anchor="middle" x="637" y="-259.242" font-family="Times,serif" font-size="9.00">&#45;5</text>
</g>
<!-- 2 -->
<g id="node27" class="node"><title>2</title>
<ellipse fill="lightblue" stroke="black" cx="637" cy="-175.945" rx="14.7" ry="14.7"/>
<text text-anchor="middle" x="637" y="-173.745" font-family="Times,serif" font-size="9.00">2</text>
</g>
<!-- &#45;5&#45;&gt;2 -->
<g id="edge27" class="edge"><title>&#45;5&#45;&gt;2</title>
<path fill="none" stroke="red" stroke-width="0.832001" d="M637,-252.436C637,-240.673 637,-218.235 637,-200.866"/>
<polygon fill="red" stroke="red" stroke-width="0.832001" points="640.5,-200.847 637,-190.847 633.5,-200.847 640.5,-200.847"/>
</g>
<!-- &#45;6 -->
<g id="node6" class="node"><title>&#45;6</title>
<polygon fill="lightgray" stroke="black" points="464,-346.04 440,-346.04 440,-328.04 464,-328.04 464,-346.04"/>
<text text-anchor="middle" x="452" y="-334.84" font-family="Times,serif" font-size="9.00">&#45;6</text>
</g>
<!-- &#45;7 -->
<g id="node7" class="node"><title>&#45;7</title>
<polygon fill="lightgray" stroke="black" points="380,-346.04 356,-346.04 356,-328.04 380,-328.04 380,-346.04"/>
<text text-anchor="middle" x="368" y="-334.84" font-family="Times,serif" font-size="9.00">&#45;7</text>
</g>
<!-- 6507 -->
<g id="node29" class="node"><title>6507</title>
<ellipse fill="white" stroke="black" cx="447" cy="-261.442" rx="25" ry="25"/>
<text text-anchor="middle" x="447" y="-259.242" font-family="Times,serif" font-size="9.00">6507</text>
</g>
<!-- &#45;7&#45;&gt;6507 -->
<g id="edge2" class="edge"><title>&#45;7&#45;&gt;6507</title>
<path fill="none" stroke="green" stroke-width="0.391702" d="M376.756,-327.883C387.498,-317.875 406.179,-300.472 421.576,-286.128"/>
<polygon fill="green" stroke="green" stroke-width="0.391702" points="424.338,-288.338 429.269,-278.96 419.567,-283.216 424.338,-288.338"/>
</g>
<!-- 2831 -->
<g id="node30" class="node"><title>2831</title>
<ellipse fill="white" stroke="black" cx="396" cy="-90.4472" rx="25" ry="25"/>
<text text-anchor="middle" x="396" y="-88.2472" font-family="Times,serif" font-size="9.00">2831</text>
</g>
<!-- &#45;7&#45;&gt;2831 -->
<g id="edge11" class="edge"><title>&#45;7&#45;&gt;2831</title>
<path fill="none" stroke="green" stroke-width="0.689351" d="M379.29,-327.971C382.362,-325.95 385.743,-323.878 389,-322.191 427.986,-301.993 456.247,-322.457 481,-286.191 519.505,-229.775 457.847,-153.093 420.772,-114.973"/>
<polygon fill="green" stroke="green" stroke-width="0.689351" points="423.254,-112.505 413.722,-107.88 418.289,-117.44 423.254,-112.505"/>
</g>
<!-- 7316 -->
<g id="node32" class="node"><title>7316</title>
<ellipse fill="white" stroke="black" cx="274" cy="-261.442" rx="25" ry="25"/>
<text text-anchor="middle" x="274" y="-259.242" font-family="Times,serif" font-size="9.00">7316</text>
</g>
<!-- &#45;7&#45;&gt;7316 -->
<g id="edge10" class="edge"><title>&#45;7&#45;&gt;7316</title>
<path fill="none" stroke="green" stroke-width="0.274135" d="M357.581,-327.883C344.09,-317.32 320.075,-298.517 301.238,-283.769"/>
<polygon fill="green" stroke="green" stroke-width="0.274135" points="303.298,-280.936 293.267,-277.527 298.983,-286.448 303.298,-280.936"/>
</g>
<!-- 7637 -->
<g id="node34" class="node"><title>7637</title>
<ellipse fill="white" stroke="black" cx="341" cy="-261.442" rx="25" ry="25"/>
<text text-anchor="middle" x="341" y="-259.242" font-family="Times,serif" font-size="9.00">7637</text>
</g>
<!-- &#45;7&#45;&gt;7637 -->
<g id="edge26" class="edge"><title>&#45;7&#45;&gt;7637</title>
<path fill="none" stroke="green" stroke-width="0.3" d="M365.007,-327.883C362.039,-319.791 357.297,-306.864 352.808,-294.629"/>
<polygon fill="green" stroke="green" stroke-width="0.3" points="356.031,-293.252 349.301,-285.07 349.459,-295.663 356.031,-293.252"/>
</g>
<!-- 4505 -->
<g id="node35" class="node"><title>4505</title>
<ellipse fill="white" stroke="black" cx="341" cy="-175.945" rx="25" ry="25"/>
<text text-anchor="middle" x="341" y="-173.745" font-family="Times,serif" font-size="9.00">4505</text>
</g>
<!-- &#45;7&#45;&gt;4505 -->
<g id="edge6" class="edge"><title>&#45;7&#45;&gt;4505</title>
<path fill="none" stroke="red" stroke-width="0.393879" d="M370.332,-327.889C374.871,-310.703 383.713,-269.622 375,-236.693 372.085,-225.677 366.614,-214.566 360.9,-204.964"/>
<polygon fill="red" stroke="red" stroke-width="0.393879" points="363.715,-202.866 355.422,-196.273 357.793,-206.599 363.715,-202.866"/>
</g>
<!-- 5851 -->
<g id="node37" class="node"><title>5851</title>
<ellipse fill="white" stroke="black" cx="168" cy="-261.442" rx="25" ry="25"/>
<text text-anchor="middle" x="168" y="-259.242" font-family="Times,serif" font-size="9.00">5851</text>
</g>
<!-- &#45;7&#45;&gt;5851 -->
<g id="edge23" class="edge"><title>&#45;7&#45;&gt;5851</title>
<path fill="none" stroke="green" stroke-width="0.151835" d="M355.79,-331.547C325.434,-320.376 245.745,-291.051 200.534,-274.414"/>
<polygon fill="green" stroke="green" stroke-width="0.151835" points="201.497,-271.039 190.904,-270.871 199.08,-277.609 201.497,-271.039"/>
</g>
<!-- &#45;8 -->
<g id="node8" class="node"><title>&#45;8</title>
<polygon fill="lightgray" stroke="black" points="108,-346.04 84,-346.04 84,-328.04 108,-328.04 108,-346.04"/>
<text text-anchor="middle" x="96" y="-334.84" font-family="Times,serif" font-size="9.00">&#45;8</text>
</g>
<!-- &#45;8&#45;&gt;1 -->
<g id="edge12" class="edge"><title>&#45;8&#45;&gt;1</title>
<path fill="none" stroke="green" stroke-width="0.149812" d="M89.0122,-327.911C72.3554,-307.93 30.6147,-254.141 16,-200.693 -0.0954306,-141.831 30.482,-71.6504 48.7463,-37.1497"/>
<polygon fill="green" stroke="green" stroke-width="0.149812" points="52.0112,-38.4741 53.7383,-28.021 45.8695,-35.1155 52.0112,-38.4741"/>
</g>
<!-- &#45;8&#45;&gt;2197 -->
<g id="edge14" class="edge"><title>&#45;8&#45;&gt;2197</title>
<path fill="none" stroke="green" stroke-width="0.213447" d="M95.7338,-327.902C94.7103,-296.61 90.9918,-182.918 89.1088,-125.347"/>
<polygon fill="green" stroke="green" stroke-width="0.213447" points="92.6047,-125.163 88.7796,-115.282 85.6085,-125.391 92.6047,-125.163"/>
</g>
<!-- &#45;8&#45;&gt;4505 -->
<g id="edge7" class="edge"><title>&#45;8&#45;&gt;4505</title>
<path fill="none" stroke="green" stroke-width="0.250725" stroke-dasharray="1,5" d="M96.6224,-327.935C98.5306,-308.949 106.006,-261.347 134,-236.693 184.803,-191.952 217.544,-221.386 282,-200.693 290.937,-197.824 300.444,-194.242 309.158,-190.736"/>
<polygon fill="green" stroke="green" stroke-width="0.250725" points="310.672,-193.898 318.586,-186.853 308.006,-187.426 310.672,-193.898"/>
</g>
<!-- &#45;8&#45;&gt;5851 -->
<g id="edge5" class="edge"><title>&#45;8&#45;&gt;5851</title>
<path fill="none" stroke="red" stroke-width="0.511481" d="M103.98,-327.883C113.495,-318.157 129.844,-301.445 143.639,-287.344"/>
<polygon fill="red" stroke="red" stroke-width="0.511481" points="146.489,-289.436 150.98,-279.84 141.485,-284.541 146.489,-289.436"/>
</g>
<!-- &#45;9 -->
<g id="node9" class="node"><title>&#45;9</title>
<polygon fill="lightgray" stroke="black" points="506,-346.04 482,-346.04 482,-328.04 506,-328.04 506,-346.04"/>
<text text-anchor="middle" x="494" y="-334.84" font-family="Times,serif" font-size="9.00">&#45;9</text>
</g>
<!-- &#45;10 -->
<g id="node10" class="node"><title>&#45;10</title>
<polygon fill="lightgray" stroke="black" points="553.5,-346.04 524.5,-346.04 524.5,-328.04 553.5,-328.04 553.5,-346.04"/>
<text text-anchor="middle" x="539" y="-334.84" font-family="Times,serif" font-size="9.00">&#45;10</text>
</g>
<!-- &#45;11 -->
<g id="node11" class="node"><title>&#45;11</title>
<polygon fill="lightgray" stroke="black" points="600.5,-346.04 571.5,-346.04 571.5,-328.04 600.5,-328.04 600.5,-346.04"/>
<text text-anchor="middle" x="586" y="-334.84" font-family="Times,serif" font-size="9.00">&#45;11</text>
</g>
<!-- &#45;12 -->
<g id="node12" class="node"><title>&#45;12</title>
<polygon fill="lightgray" stroke="black" points="647.5,-346.04 618.5,-346.04 618.5,-328.04 647.5,-328.04 647.5,-346.04"/>
<text text-anchor="middle" x="633" y="-334.84" font-family="Times,serif" font-size="9.00">&#45;12</text>
</g>
<!-- &#45;13 -->
<g id="node13" class="node"><title>&#45;13</title>
<polygon fill="lightgray" stroke="black" points="694.5,-346.04 665.5,-346.04 665.5,-328.04 694.5,-328.04 694.5,-346.04"/>
<text text-anchor="middle" x="680" y="-334.84" font-family="Times,serif" font-size="9.00">&#45;13</text>
</g>
<!-- &#45;14 -->
<g id="node14" class="node"><title>&#45;14</title>
<polygon fill="lightgray" stroke="black" points="581.5,-270.442 552.5,-270.442 552.5,-252.442 581.5,-252.442 581.5,-270.442"/>
<text text-anchor="middle" x="567" y="-259.242" font-family="Times,serif" font-size="9.00">&#45;14</text>
</g>
<!-- &#45;14&#45;&gt;2831 -->
<g id="edge22" class="edge"><title>&#45;14&#45;&gt;2831</title>
<path fill="none" stroke="green" stroke-width="1.02977" stroke-dasharray="1,5" d="M563.916,-252.359C556.142,-232.852 534.049,-182.502 502,-151.196 480.711,-130.401 450.754,-114.399 428.114,-104.213"/>
<polygon fill="green" stroke="green" stroke-width="1.02977" points="429.473,-100.987 418.907,-100.206 426.68,-107.406 429.473,-100.987"/>
</g>
<!-- 6991 -->
<g id="node31" class="node"><title>6991</title>
<ellipse fill="white" stroke="black" cx="579" cy="-175.945" rx="25" ry="25"/>
<text text-anchor="middle" x="579" y="-173.745" font-family="Times,serif" font-size="9.00">6991</text>
</g>
<!-- &#45;14&#45;&gt;6991 -->
<g id="edge19" class="edge"><title>&#45;14&#45;&gt;6991</title>
<path fill="none" stroke="green" stroke-width="0.327952" d="M568.151,-252.436C569.533,-242.818 571.941,-226.065 574.137,-210.78"/>
<polygon fill="green" stroke="green" stroke-width="0.327952" points="577.651,-210.935 575.609,-200.539 570.722,-209.939 577.651,-210.935"/>
</g>
<!-- &#45;15 -->
<g id="node15" class="node"><title>&#45;15</title>
<polygon fill="lightgray" stroke="black" points="741.5,-346.04 712.5,-346.04 712.5,-328.04 741.5,-328.04 741.5,-346.04"/>
<text text-anchor="middle" x="727" y="-334.84" font-family="Times,serif" font-size="9.00">&#45;15</text>
</g>
<!-- &#45;16 -->
<g id="node16" class="node"><title>&#45;16</title>
<polygon fill="lightgray" stroke="black" points="209.5,-346.04 180.5,-346.04 180.5,-328.04 209.5,-328.04 209.5,-346.04"/>
<text text-anchor="middle" x="195" y="-334.84" font-family="Times,serif" font-size="9.00">&#45;16</text>
</g>
<!-- &#45;16&#45;&gt;4505 -->
<g id="edge8" class="edge"><title>&#45;16&#45;&gt;4505</title>
<path fill="none" stroke="green" stroke-width="1.03791" d="M196.889,-327.906C201.474,-309.665 214.719,-264.888 240,-236.693 258.838,-215.684 286.856,-199.919 308.607,-189.873"/>
<polygon fill="green" stroke="green" stroke-width="1.03791" points="310.082,-193.048 317.801,-185.791 307.241,-186.65 310.082,-193.048"/>
</g>
<!-- &#45;16&#45;&gt;5851 -->
<g id="edge9" class="edge"><title>&#45;16&#45;&gt;5851</title>
<path fill="none" stroke="red" stroke-width="1.27393" stroke-dasharray="1,5" d="M192.007,-327.883C189.039,-319.791 184.297,-306.864 179.808,-294.629"/>
<polygon fill="red" stroke="red" stroke-width="1.27393" points="183.031,-293.252 176.301,-285.07 176.459,-295.663 183.031,-293.252"/>
</g>
<!-- &#45;17 -->
<g id="node17" class="node"><title>&#45;17</title>
<polygon fill="lightgray" stroke="black" points="788.5,-346.04 759.5,-346.04 759.5,-328.04 788.5,-328.04 788.5,-346.04"/>
<text text-anchor="middle" x="774" y="-334.84" font-family="Times,serif" font-size="9.00">&#45;17</text>
</g>
<!-- &#45;18 -->
<g id="node18" class="node"><title>&#45;18</title>
<polygon fill="lightgray" stroke="black" points="835.5,-346.04 806.5,-346.04 806.5,-328.04 835.5,-328.04 835.5,-346.04"/>
<text text-anchor="middle" x="821" y="-334.84" font-family="Times,serif" font-size="9.00">&#45;18</text>
</g>
<!-- &#45;19 -->
<g id="node19" class="node"><title>&#45;19</title>
<polygon fill="lightgray" stroke="black" points="882.5,-346.04 853.5,-346.04 853.5,-328.04 882.5,-328.04 882.5,-346.04"/>
<text text-anchor="middle" x="868" y="-334.84" font-family="Times,serif" font-size="9.00">&#45;19</text>
</g>
<!-- &#45;20 -->
<g id="node20" class="node"><title>&#45;20</title>
<polygon fill="lightgray" stroke="black" points="929.5,-346.04 900.5,-346.04 900.5,-328.04 929.5,-328.04 929.5,-346.04"/>
<text text-anchor="middle" x="915" y="-334.84" font-family="Times,serif" font-size="9.00">&#45;20</text>
</g>
<!-- &#45;21 -->
<g id="node21" class="node"><title>&#45;21</title>
<polygon fill="lightgray" stroke="black" points="976.5,-346.04 947.5,-346.04 947.5,-328.04 976.5,-328.04 976.5,-346.04"/>
<text text-anchor="middle" x="962" y="-334.84" font-family="Times,serif" font-size="9.00">&#45;21</text>
</g>
<!-- &#45;22 -->
<g id="node22" class="node"><title>&#45;22</title>
<polygon fill="lightgray" stroke="black" points="1023.5,-346.04 994.5,-346.04 994.5,-328.04 1023.5,-328.04 1023.5,-346.04"/>
<text text-anchor="middle" x="1009" y="-334.84" font-family="Times,serif" font-size="9.00">&#45;22</text>
</g>
<!-- &#45;23 -->
<g id="node23" class="node"><title>&#45;23</title>
<polygon fill="lightgray" stroke="black" points="1070.5,-346.04 1041.5,-346.04 1041.5,-328.04 1070.5,-328.04 1070.5,-346.04"/>
<text text-anchor="middle" x="1056" y="-334.84" font-family="Times,serif" font-size="9.00">&#45;23</text>
</g>
<!-- &#45;24 -->
<g id="node24" class="node"><title>&#45;24</title>
<polygon fill="lightgray" stroke="black" points="1117.5,-346.04 1088.5,-346.04 1088.5,-328.04 1117.5,-328.04 1117.5,-346.04"/>
<text text-anchor="middle" x="1103" y="-334.84" font-family="Times,serif" font-size="9.00">&#45;24</text>
</g>
<!-- 0 -->
<g id="node25" class="node"><title>0</title>
<ellipse fill="lightblue" stroke="black" cx="1150" cy="-337.04" rx="14.7" ry="14.7"/>
<text text-anchor="middle" x="1150" y="-334.84" font-family="Times,serif" font-size="9.00">0</text>
</g>
<!-- 2&#45;&gt;2831 -->
<g id="edge25" class="edge"><title>2&#45;&gt;2831</title>
<path fill="none" stroke="green" stroke-width="0.307871" d="M628.156,-163.976C623.987,-159.44 618.683,-154.483 613,-151.196 554.286,-117.234 475.426,-101.858 430.735,-95.4779"/>
<polygon fill="green" stroke="green" stroke-width="0.307871" points="431.053,-91.9891 420.673,-94.1119 430.111,-98.9254 431.053,-91.9891"/>
</g>
<!-- 3 -->
<g id="node28" class="node"><title>3</title>
<ellipse fill="lightblue" stroke="black" cx="1198" cy="-337.04" rx="14.7" ry="14.7"/>
<text text-anchor="middle" x="1198" y="-334.84" font-family="Times,serif" font-size="9.00">3</text>
</g>
<!-- 6507&#45;&gt;4505 -->
<g id="edge17" class="edge"><title>6507&#45;&gt;4505</title>
<path fill="none" stroke="red" stroke-width="0.37694" d="M428.049,-245.514C411.346,-232.357 386.819,-213.037 368.053,-198.254"/>
<polygon fill="red" stroke="red" stroke-width="0.37694" points="370.165,-195.463 360.144,-192.025 365.834,-200.962 370.165,-195.463"/>
</g>
<!-- 2831&#45;&gt;1 -->
<g id="edge13" class="edge"><title>2831&#45;&gt;1</title>
<path fill="none" stroke="red" stroke-width="0.373437" d="M371.908,-84.1542C310.343,-70.6289 147.744,-34.9065 85.6136,-21.2567"/>
<polygon fill="red" stroke="red" stroke-width="0.373437" points="86.0707,-17.7738 75.5526,-19.0464 84.5686,-24.6107 86.0707,-17.7738"/>
</g>
<!-- 6991&#45;&gt;2831 -->
<g id="edge28" class="edge"><title>6991&#45;&gt;2831</title>
<path fill="none" stroke="red" stroke-width="0.554656" d="M558.692,-161.768C552.771,-158.15 546.219,-154.356 540,-151.196 502.82,-132.303 458.23,-114.508 428.619,-103.334"/>
<polygon fill="red" stroke="red" stroke-width="0.554656" points="429.776,-100.03 419.184,-99.8058 427.325,-106.586 429.776,-100.03"/>
</g>
<!-- 7316&#45;&gt;4505 -->
<g id="edge3" class="edge"><title>7316&#45;&gt;4505</title>
<path fill="none" stroke="red" stroke-width="0.578656" d="M289.203,-241.495C298.112,-230.393 309.512,-216.186 319.347,-203.929"/>
<polygon fill="red" stroke="red" stroke-width="0.578656" points="322.328,-205.807 325.857,-195.817 316.869,-201.426 322.328,-205.807"/>
</g>
<!-- 2197&#45;&gt;1 -->
<g id="edge20" class="edge"><title>2197&#45;&gt;1</title>
<path fill="none" stroke="green" stroke-width="0.695923" d="M79.7524,-66.9655C76.4622,-57.997 72.6789,-47.6843 69.3761,-38.6813"/>
<polygon fill="green" stroke="green" stroke-width="0.695923" points="72.6333,-37.3973 65.9032,-29.2146 66.0615,-39.8083 72.6333,-37.3973"/>
</g>
<!-- 7637&#45;&gt;4505 -->
<g id="edge15" class="edge"><title>7637&#45;&gt;4505</title>
<path fill="none" stroke="red" stroke-width="0.334533" d="M341,-236.291C341,-228.347 341,-219.363 341,-210.832"/>
<polygon fill="red" stroke="red" stroke-width="0.334533" points="344.5,-210.753 341,-200.753 337.5,-210.753 344.5,-210.753"/>
</g>
<!-- 4505&#45;&gt;2831 -->
<g id="edge24" class="edge"><title>4505&#45;&gt;2831</title>
<path fill="none" stroke="red" stroke-width="0.82865" d="M354.314,-154.732C361.205,-144.271 369.732,-131.325 377.275,-119.874"/>
<polygon fill="red" stroke="red" stroke-width="0.82865" points="380.231,-121.75 382.809,-111.473 374.385,-117.899 380.231,-121.75"/>
</g>
<!-- 6074 -->
<g id="node36" class="node"><title>6074</title>
<ellipse fill="white" stroke="black" cx="248" cy="-175.945" rx="25" ry="25"/>
<text text-anchor="middle" x="248" y="-173.745" font-family="Times,serif" font-size="9.00">6074</text>
</g>
<!-- 6074&#45;&gt;2831 -->
<g id="edge1" class="edge"><title>6074&#45;&gt;2831</title>
<path fill="none" stroke="green" stroke-width="0.252818" d="M269.205,-162.982C294.592,-148.659 337.278,-124.577 366.029,-108.356"/>
<polygon fill="green" stroke="green" stroke-width="0.252818" points="367.845,-111.35 374.835,-103.388 364.405,-105.254 367.845,-111.35"/>
</g>
<!-- 5851&#45;&gt;2831 -->
<g id="edge4" class="edge"><title>5851&#45;&gt;2831</title>
<path fill="none" stroke="red" stroke-width="0.800224" stroke-dasharray="1,5" d="M172.037,-236.666C177.431,-212.004 189.336,-173.931 214,-151.196 255.189,-113.227 320.972,-99.3564 361.151,-94.3096"/>
<polygon fill="red" stroke="red" stroke-width="0.800224" points="361.733,-97.766 371.273,-93.1571 360.941,-90.811 361.733,-97.766"/>
</g>
<!-- 5851&#45;&gt;6074 -->
<g id="edge16" class="edge"><title>5851&#45;&gt;6074</title>
<path fill="none" stroke="green" stroke-width="0.358918" d="M184.966,-242.735C196.392,-230.809 211.621,-214.914 224.247,-201.736"/>
<polygon fill="green" stroke="green" stroke-width="0.358918" points="226.942,-203.983 231.333,-194.341 221.887,-199.14 226.942,-203.983"/>
</g>
</g>
</svg>
