<?xml version="1.0" encoding="UTF-8" standalone="no"?>
<!DOCTYPE svg PUBLIC "-//W3C//DTD SVG 1.1//EN"
 "http://www.w3.org/Graphics/SVG/1.1/DTD/svg11.dtd">
<!-- Generated by graphviz version 2.38.0 (20140413.2041)
 -->
<!-- Title: %3 Pages: 1 -->
<svg width="1078pt" height="92pt"
 viewBox="0.00 0.00 1078.00 91.70" xmlns="http://www.w3.org/2000/svg" xmlns:xlink="http://www.w3.org/1999/xlink">
<g id="graph0" class="graph" transform="scale(1 1) rotate(0) translate(4 87.6985)">
<title>%3</title>
<polygon fill="white" stroke="none" points="-4,4 -4,-87.6985 1074,-87.6985 1074,4 -4,4"/>
<!-- &#45;1 -->
<g id="node1" class="node"><title>&#45;1</title>
<polygon fill="lightgray" stroke="black" points="433.5,-83.6985 409.5,-83.6985 409.5,-65.6985 433.5,-65.6985 433.5,-83.6985"/>
<text text-anchor="middle" x="421.5" y="-72.4985" font-family="Times,serif" font-size="9.00">&#45;1</text>
</g>
<!-- 0 -->
<g id="node25" class="node"><title>0</title>
<ellipse fill="lightblue" stroke="black" cx="337.5" cy="-14.8492" rx="14.7" ry="14.7"/>
<text text-anchor="middle" x="337.5" y="-12.6492" font-family="Times,serif" font-size="9.00">0</text>
</g>
<!-- &#45;1&#45;&gt;0 -->
<g id="edge3" class="edge"><title>&#45;1&#45;&gt;0</title>
<path fill="none" stroke="green" stroke-width="0.287301" d="M409.82,-65.6548C396.355,-56.3818 373.988,-40.978 357.688,-29.7523"/>
<polygon fill="green" stroke="green" stroke-width="0.287301" points="359.573,-26.8005 349.351,-24.0111 355.602,-32.5656 359.573,-26.8005"/>
</g>
<!-- 3 -->
<g id="node28" class="node"><title>3</title>
<ellipse fill="lightblue" stroke="black" cx="715.5" cy="-14.8492" rx="14.7" ry="14.7"/>
<text text-anchor="middle" x="715.5" y="-12.6492" font-family="Times,serif" font-size="9.00">3</text>
</g>
<!-- &#45;1&#45;&gt;3 -->
<g id="edge40" class="edge"><title>&#45;1&#45;&gt;3</title>
<path fill="none" stroke="red" stroke-width="0.352494" d="M433.79,-68.4992C436.613,-67.4504 439.63,-66.4429 442.5,-65.6985 550.736,-37.625 585.843,-66.2999 691.5,-29.6985 692.375,-29.3954 693.254,-29.0595 694.132,-28.6976"/>
<polygon fill="red" stroke="red" stroke-width="0.352494" points="695.865,-31.7437 703.226,-24.1238 692.72,-25.49 695.865,-31.7437"/>
</g>
<!-- &#45;2 -->
<g id="node2" class="node"><title>&#45;2</title>
<polygon fill="lightgray" stroke="black" points="706.5,-83.6985 682.5,-83.6985 682.5,-65.6985 706.5,-65.6985 706.5,-83.6985"/>
<text text-anchor="middle" x="694.5" y="-72.4985" font-family="Times,serif" font-size="9.00">&#45;2</text>
</g>
<!-- 1 -->
<g id="node26" class="node"><title>1</title>
<ellipse fill="lightblue" stroke="black" cx="470.5" cy="-14.8492" rx="14.7" ry="14.7"/>
<text text-anchor="middle" x="470.5" y="-12.6492" font-family="Times,serif" font-size="9.00">1</text>
</g>
<!-- &#45;2&#45;&gt;1 -->
<g id="edge12" class="edge"><title>&#45;2&#45;&gt;1</title>
<path fill="none" stroke="green" stroke-width="0.261555" d="M682.152,-68.7047C679.331,-67.6453 676.331,-66.5815 673.5,-65.6985 610.123,-45.9276 533.659,-28.9571 495.178,-20.8811"/>
<polygon fill="green" stroke="green" stroke-width="0.261555" points="495.444,-17.3618 484.942,-18.7554 494.021,-24.2156 495.444,-17.3618"/>
</g>
<!-- 2 -->
<g id="node27" class="node"><title>2</title>
<ellipse fill="lightblue" stroke="black" cx="649.5" cy="-14.8492" rx="14.7" ry="14.7"/>
<text text-anchor="middle" x="649.5" y="-12.6492" font-family="Times,serif" font-size="9.00">2</text>
</g>
<!-- &#45;2&#45;&gt;2 -->
<g id="edge31" class="edge"><title>&#45;2&#45;&gt;2</title>
<path fill="none" stroke="green" stroke-width="0.298649" d="M688.243,-65.6548C682.13,-57.7964 672.592,-45.5348 664.51,-35.1446"/>
<polygon fill="green" stroke="green" stroke-width="0.298649" points="667.072,-32.7387 658.17,-26.9946 661.547,-37.0367 667.072,-32.7387"/>
</g>
<!-- &#45;2&#45;&gt;3 -->
<g id="edge46" class="edge"><title>&#45;2&#45;&gt;3</title>
<path fill="none" stroke="red" stroke-width="0.421592" d="M697.42,-65.6548C699.963,-58.6501 703.775,-48.1471 707.245,-38.5892"/>
<polygon fill="red" stroke="red" stroke-width="0.421592" points="710.547,-39.7515 710.669,-29.1573 703.967,-37.3628 710.547,-39.7515"/>
</g>
<!-- &#45;3 -->
<g id="node3" class="node"><title>&#45;3</title>
<polygon fill="lightgray" stroke="black" points="349.5,-83.6985 325.5,-83.6985 325.5,-65.6985 349.5,-65.6985 349.5,-83.6985"/>
<text text-anchor="middle" x="337.5" y="-72.4985" font-family="Times,serif" font-size="9.00">&#45;3</text>
</g>
<!-- &#45;3&#45;&gt;0 -->
<g id="edge44" class="edge"><title>&#45;3&#45;&gt;0</title>
<path fill="none" stroke="red" stroke-width="0.586304" d="M337.5,-65.6548C337.5,-59.0498 337.5,-49.3344 337.5,-40.2339"/>
<polygon fill="red" stroke="red" stroke-width="0.586304" points="341,-40.0563 337.5,-30.0563 334,-40.0564 341,-40.0563"/>
</g>
<!-- &#45;3&#45;&gt;2 -->
<g id="edge19" class="edge"><title>&#45;3&#45;&gt;2</title>
<path fill="none" stroke="red" stroke-width="0.270772" d="M349.804,-68.5546C352.627,-67.5029 355.64,-66.4803 358.5,-65.6985 455.233,-39.2581 574.073,-24.1163 624.732,-18.4462"/>
<polygon fill="red" stroke="red" stroke-width="0.270772" points="625.187,-21.9175 634.747,-17.3503 624.425,-14.959 625.187,-21.9175"/>
</g>
<!-- &#45;4 -->
<g id="node4" class="node"><title>&#45;4</title>
<polygon fill="lightgray" stroke="black" points="1022.5,-83.6985 998.5,-83.6985 998.5,-65.6985 1022.5,-65.6985 1022.5,-83.6985"/>
<text text-anchor="middle" x="1010.5" y="-72.4985" font-family="Times,serif" font-size="9.00">&#45;4</text>
</g>
<!-- &#45;4&#45;&gt;3 -->
<g id="edge18" class="edge"><title>&#45;4&#45;&gt;3</title>
<path fill="none" stroke="red" stroke-width="0.448074" d="M998.19,-68.5764C995.367,-67.5237 992.356,-66.495 989.5,-65.6985 899.412,-40.5747 789.031,-24.9576 740.457,-18.8245"/>
<polygon fill="red" stroke="red" stroke-width="0.448074" points="740.624,-15.3186 730.27,-17.564 739.764,-22.2656 740.624,-15.3186"/>
</g>
<!-- &#45;5 -->
<g id="node5" class="node"><title>&#45;5</title>
<polygon fill="lightgray" stroke="black" points="212.5,-83.6985 188.5,-83.6985 188.5,-65.6985 212.5,-65.6985 212.5,-83.6985"/>
<text text-anchor="middle" x="200.5" y="-72.4985" font-family="Times,serif" font-size="9.00">&#45;5</text>
</g>
<!-- &#45;5&#45;&gt;0 -->
<g id="edge25" class="edge"><title>&#45;5&#45;&gt;0</title>
<path fill="none" stroke="green" stroke-width="0.24814" d="M212.658,-68.5648C235.504,-58.9178 285.178,-37.9426 314.513,-25.5557"/>
<polygon fill="green" stroke="green" stroke-width="0.24814" points="316.113,-28.6795 323.963,-21.5652 313.39,-22.2309 316.113,-28.6795"/>
</g>
<!-- &#45;5&#45;&gt;1 -->
<g id="edge13" class="edge"><title>&#45;5&#45;&gt;1</title>
<path fill="none" stroke="red" stroke-width="0.425137" d="M212.959,-68.7995C216.047,-67.6875 219.37,-66.5769 222.5,-65.6985 302.969,-43.1187 400.851,-26.5619 445.787,-19.5515"/>
<polygon fill="red" stroke="red" stroke-width="0.425137" points="446.431,-22.9937 455.782,-18.0141 445.367,-16.075 446.431,-22.9937"/>
</g>
<!-- &#45;5&#45;&gt;2 -->
<g id="edge50" class="edge"><title>&#45;5&#45;&gt;2</title>
<path fill="none" stroke="green" stroke-width="0.309731" d="M212.911,-68.6162C216.001,-67.5098 219.336,-66.4476 222.5,-65.6985 261.724,-56.4111 538.822,-27.2999 624.392,-18.4361"/>
<polygon fill="green" stroke="green" stroke-width="0.309731" points="624.918,-21.9005 634.505,-17.3906 624.198,-14.9376 624.918,-21.9005"/>
</g>
<!-- &#45;6 -->
<g id="node6" class="node"><title>&#45;6</title>
<polygon fill="lightgray" stroke="black" points="748.5,-83.6985 724.5,-83.6985 724.5,-65.6985 748.5,-65.6985 748.5,-83.6985"/>
<text text-anchor="middle" x="736.5" y="-72.4985" font-family="Times,serif" font-size="9.00">&#45;6</text>
</g>
<!-- &#45;6&#45;&gt;1 -->
<g id="edge2" class="edge"><title>&#45;6&#45;&gt;1</title>
<path fill="none" stroke="green" stroke-width="0.400166" d="M724.177,-68.6203C721.355,-67.5653 718.348,-66.5246 715.5,-65.6985 636.165,-42.6832 539.389,-26.3384 494.946,-19.4655"/>
<polygon fill="green" stroke="green" stroke-width="0.400166" points="495.472,-16.0053 485.059,-17.9602 494.419,-22.9256 495.472,-16.0053"/>
</g>
<!-- &#45;6&#45;&gt;2 -->
<g id="edge8" class="edge"><title>&#45;6&#45;&gt;2</title>
<path fill="none" stroke="red" stroke-width="0.386709" d="M724.403,-65.6548C710.379,-56.3294 687.029,-40.8037 670.123,-29.5624"/>
<polygon fill="red" stroke="red" stroke-width="0.386709" points="671.759,-26.4472 661.494,-23.8246 667.883,-32.2762 671.759,-26.4472"/>
</g>
<!-- &#45;6&#45;&gt;3 -->
<g id="edge4" class="edge"><title>&#45;6&#45;&gt;3</title>
<path fill="none" stroke="green" stroke-width="0.523324" d="M733.58,-65.6548C731.037,-58.6501 727.225,-48.1471 723.755,-38.5892"/>
<polygon fill="green" stroke="green" stroke-width="0.523324" points="727.033,-37.3628 720.331,-29.1573 720.453,-39.7515 727.033,-37.3628"/>
</g>
<!-- &#45;7 -->
<g id="node7" class="node"><title>&#45;7</title>
<polygon fill="lightgray" stroke="black" points="475.5,-83.6985 451.5,-83.6985 451.5,-65.6985 475.5,-65.6985 475.5,-83.6985"/>
<text text-anchor="middle" x="463.5" y="-72.4985" font-family="Times,serif" font-size="9.00">&#45;7</text>
</g>
<!-- &#45;7&#45;&gt;0 -->
<g id="edge5" class="edge"><title>&#45;7&#45;&gt;0</title>
<path fill="none" stroke="green" stroke-width="0.176209" d="M451.419,-68.1517C430.445,-58.5224 386.985,-38.5687 360.222,-26.2816"/>
<polygon fill="green" stroke="green" stroke-width="0.176209" points="361.413,-22.9771 350.865,-21.9854 358.492,-29.3387 361.413,-22.9771"/>
</g>
<!-- &#45;7&#45;&gt;3 -->
<g id="edge23" class="edge"><title>&#45;7&#45;&gt;3</title>
<path fill="none" stroke="red" stroke-width="0.22747" d="M475.943,-68.7431C479.032,-67.6329 482.359,-66.5371 485.5,-65.6985 575.298,-41.7246 604.134,-61.4106 691.5,-29.6985 692.37,-29.3825 693.246,-29.0358 694.12,-28.6646"/>
<polygon fill="red" stroke="red" stroke-width="0.22747" points="695.872,-31.7004 703.199,-24.0479 692.699,-25.4608 695.872,-31.7004"/>
</g>
<!-- &#45;8 -->
<g id="node8" class="node"><title>&#45;8</title>
<polygon fill="lightgray" stroke="black" points="838.5,-83.6985 814.5,-83.6985 814.5,-65.6985 838.5,-65.6985 838.5,-83.6985"/>
<text text-anchor="middle" x="826.5" y="-72.4985" font-family="Times,serif" font-size="9.00">&#45;8</text>
</g>
<!-- &#45;8&#45;&gt;1 -->
<g id="edge6" class="edge"><title>&#45;8&#45;&gt;1</title>
<path fill="none" stroke="green" stroke-width="0.1277" d="M814.208,-68.508C811.385,-67.4588 808.369,-66.4489 805.5,-65.6985 691.906,-35.9842 551.696,-22.2954 495.508,-17.7109"/>
<polygon fill="green" stroke="green" stroke-width="0.1277" points="495.669,-14.2127 485.424,-16.9133 495.117,-21.191 495.669,-14.2127"/>
</g>
<!-- &#45;8&#45;&gt;2 -->
<g id="edge20" class="edge"><title>&#45;8&#45;&gt;2</title>
<path fill="none" stroke="green" stroke-width="0.789653" d="M814.107,-68.8406C811.289,-67.7741 808.3,-66.6731 805.5,-65.6985 755.319,-48.2336 742.065,-46.0183 691.5,-29.6985 685.508,-27.7647 679.046,-25.6488 673.029,-23.6659"/>
<polygon fill="green" stroke="green" stroke-width="0.789653" points="674.079,-20.3266 663.486,-20.5099 671.881,-26.9727 674.079,-20.3266"/>
</g>
<!-- &#45;8&#45;&gt;3 -->
<g id="edge34" class="edge"><title>&#45;8&#45;&gt;3</title>
<path fill="none" stroke="green" stroke-width="0.10063" d="M814.197,-67.2866C795.725,-57.6597 760.546,-39.3256 737.563,-27.3477"/>
<polygon fill="green" stroke="green" stroke-width="0.10063" points="739.03,-24.1653 728.544,-22.6474 735.794,-30.3729 739.03,-24.1653"/>
</g>
<!-- &#45;9 -->
<g id="node9" class="node"><title>&#45;9</title>
<polygon fill="lightgray" stroke="black" points="391.5,-83.6985 367.5,-83.6985 367.5,-65.6985 391.5,-65.6985 391.5,-83.6985"/>
<text text-anchor="middle" x="379.5" y="-72.4985" font-family="Times,serif" font-size="9.00">&#45;9</text>
</g>
<!-- &#45;9&#45;&gt;0 -->
<g id="edge35" class="edge"><title>&#45;9&#45;&gt;0</title>
<path fill="none" stroke="red" stroke-width="0.104184" d="M373.66,-65.6548C368.025,-57.8934 359.272,-45.8369 351.789,-35.5302"/>
<polygon fill="red" stroke="red" stroke-width="0.104184" points="354.606,-33.4527 345.898,-27.4169 348.941,-37.5653 354.606,-33.4527"/>
</g>
<!-- &#45;9&#45;&gt;1 -->
<g id="edge11" class="edge"><title>&#45;9&#45;&gt;1</title>
<path fill="none" stroke="red" stroke-width="0.258963" d="M391.773,-65.8967C406.645,-56.4421 431.932,-40.3671 449.83,-28.9892"/>
<polygon fill="red" stroke="red" stroke-width="0.258963" points="451.86,-31.846 458.422,-23.5274 448.105,-25.9386 451.86,-31.846"/>
</g>
<!-- &#45;9&#45;&gt;3 -->
<g id="edge47" class="edge"><title>&#45;9&#45;&gt;3</title>
<path fill="none" stroke="green" stroke-width="0.592923" d="M391.779,-68.4555C394.603,-67.409 397.622,-66.4135 400.5,-65.6985 526.974,-34.2743 567.929,-71.092 691.5,-29.6985 692.378,-29.4043 693.26,-29.0761 694.14,-28.7206"/>
<polygon fill="green" stroke="green" stroke-width="0.592923" points="695.86,-31.774 703.244,-24.1768 692.734,-25.5107 695.86,-31.774"/>
</g>
<!-- &#45;10 -->
<g id="node10" class="node"><title>&#45;10</title>
<polygon fill="lightgray" stroke="black" points="523,-83.6985 494,-83.6985 494,-65.6985 523,-65.6985 523,-83.6985"/>
<text text-anchor="middle" x="508.5" y="-72.4985" font-family="Times,serif" font-size="9.00">&#45;10</text>
</g>
<!-- &#45;10&#45;&gt;0 -->
<g id="edge45" class="edge"><title>&#45;10&#45;&gt;0</title>
<path fill="none" stroke="red" stroke-width="0.334326" d="M493.921,-68.7663C464.369,-58.7691 397.174,-36.0368 361.227,-23.8761"/>
<polygon fill="red" stroke="red" stroke-width="0.334326" points="362.156,-20.4956 351.562,-20.6063 359.913,-27.1264 362.156,-20.4956"/>
</g>
<!-- &#45;10&#45;&gt;3 -->
<g id="edge10" class="edge"><title>&#45;10&#45;&gt;3</title>
<path fill="none" stroke="green" stroke-width="0.478081" d="M523.152,-68.5586C526.223,-67.5535 529.454,-66.5487 532.5,-65.6985 602.288,-46.2184 624.027,-56.1032 691.5,-29.6985 692.362,-29.361 693.231,-28.996 694.099,-28.6094"/>
<polygon fill="green" stroke="green" stroke-width="0.478081" points="695.882,-31.628 703.151,-23.9209 692.662,-25.4123 695.882,-31.628"/>
</g>
<!-- &#45;11 -->
<g id="node11" class="node"><title>&#45;11</title>
<polygon fill="lightgray" stroke="black" points="260,-83.6985 231,-83.6985 231,-65.6985 260,-65.6985 260,-83.6985"/>
<text text-anchor="middle" x="245.5" y="-72.4985" font-family="Times,serif" font-size="9.00">&#45;11</text>
</g>
<!-- &#45;11&#45;&gt;0 -->
<g id="edge15" class="edge"><title>&#45;11&#45;&gt;0</title>
<path fill="none" stroke="green" stroke-width="0.187702" d="M258.292,-65.6548C273.344,-56.1902 298.553,-40.3388 316.487,-29.0619"/>
<polygon fill="green" stroke="green" stroke-width="0.187702" points="318.508,-31.9258 325.11,-23.6398 314.782,-26 318.508,-31.9258"/>
</g>
<!-- &#45;11&#45;&gt;2 -->
<g id="edge42" class="edge"><title>&#45;11&#45;&gt;2</title>
<path fill="none" stroke="red" stroke-width="0.454724" d="M260.096,-68.3396C263.171,-67.3503 266.418,-66.4074 269.5,-65.6985 337.808,-49.9858 551.06,-26.3725 624.416,-18.5051"/>
<polygon fill="red" stroke="red" stroke-width="0.454724" points="624.997,-21.9631 634.569,-17.4212 624.254,-15.0027 624.997,-21.9631"/>
</g>
<!-- &#45;12 -->
<g id="node12" class="node"><title>&#45;12</title>
<polygon fill="lightgray" stroke="black" points="796,-83.6985 767,-83.6985 767,-65.6985 796,-65.6985 796,-83.6985"/>
<text text-anchor="middle" x="781.5" y="-72.4985" font-family="Times,serif" font-size="9.00">&#45;12</text>
</g>
<!-- &#45;12&#45;&gt;2 -->
<g id="edge22" class="edge"><title>&#45;12&#45;&gt;2</title>
<path fill="none" stroke="red" stroke-width="0.347852" d="M766.869,-67.2866C744.013,-57.2699 699.648,-37.8266 672.491,-25.925"/>
<polygon fill="red" stroke="red" stroke-width="0.347852" points="673.57,-22.5766 663.006,-21.7683 670.76,-28.988 673.57,-22.5766"/>
</g>
<!-- &#45;13 -->
<g id="node13" class="node"><title>&#45;13</title>
<polygon fill="lightgray" stroke="black" points="76,-83.6985 47,-83.6985 47,-65.6985 76,-65.6985 76,-83.6985"/>
<text text-anchor="middle" x="61.5" y="-72.4985" font-family="Times,serif" font-size="9.00">&#45;13</text>
</g>
<!-- &#45;13&#45;&gt;0 -->
<g id="edge49" class="edge"><title>&#45;13&#45;&gt;0</title>
<path fill="none" stroke="red" stroke-width="0.65001" d="M76.0044,-68.3086C78.8018,-67.3674 81.7252,-66.4504 84.5,-65.6985 166.931,-43.3601 267.003,-26.6325 312.648,-19.5583"/>
<polygon fill="red" stroke="red" stroke-width="0.65001" points="313.433,-22.9791 322.789,-18.0076 312.375,-16.0596 313.433,-22.9791"/>
</g>
<!-- &#45;14 -->
<g id="node14" class="node"><title>&#45;14</title>
<polygon fill="lightgray" stroke="black" points="617,-83.6985 588,-83.6985 588,-65.6985 617,-65.6985 617,-83.6985"/>
<text text-anchor="middle" x="602.5" y="-72.4985" font-family="Times,serif" font-size="9.00">&#45;14</text>
</g>
<!-- &#45;14&#45;&gt;1 -->
<g id="edge51" class="edge"><title>&#45;14&#45;&gt;1</title>
<path fill="none" stroke="green" stroke-width="0.322419" d="M587.869,-67.2866C565.013,-57.2699 520.648,-37.8266 493.491,-25.925"/>
<polygon fill="green" stroke="green" stroke-width="0.322419" points="494.57,-22.5766 484.006,-21.7683 491.76,-28.988 494.57,-22.5766"/>
</g>
<!-- &#45;14&#45;&gt;2 -->
<g id="edge16" class="edge"><title>&#45;14&#45;&gt;2</title>
<path fill="none" stroke="red" stroke-width="0.358891" d="M609.035,-65.6548C615.484,-57.7178 625.581,-45.2891 634.076,-34.8334"/>
<polygon fill="red" stroke="red" stroke-width="0.358891" points="636.856,-36.9629 640.445,-26.9946 631.423,-32.5489 636.856,-36.9629"/>
</g>
<!-- &#45;15 -->
<g id="node15" class="node"><title>&#45;15</title>
<polygon fill="lightgray" stroke="black" points="29,-83.6985 0,-83.6985 0,-65.6985 29,-65.6985 29,-83.6985"/>
<text text-anchor="middle" x="14.5" y="-72.4985" font-family="Times,serif" font-size="9.00">&#45;15</text>
</g>
<!-- &#45;15&#45;&gt;0 -->
<g id="edge30" class="edge"><title>&#45;15&#45;&gt;0</title>
<path fill="none" stroke="green" stroke-width="0.339011" d="M29.4819,-68.0768C32.1298,-67.2014 34.8782,-66.3671 37.5,-65.6985 137.83,-40.1122 260.496,-24.4734 312.399,-18.5565"/>
<polygon fill="green" stroke="green" stroke-width="0.339011" points="313.095,-22.0005 322.644,-17.4109 312.317,-15.0439 313.095,-22.0005"/>
</g>
<!-- &#45;16 -->
<g id="node16" class="node"><title>&#45;16</title>
<polygon fill="lightgray" stroke="black" points="307,-83.6985 278,-83.6985 278,-65.6985 307,-65.6985 307,-83.6985"/>
<text text-anchor="middle" x="292.5" y="-72.4985" font-family="Times,serif" font-size="9.00">&#45;16</text>
</g>
<!-- &#45;16&#45;&gt;1 -->
<g id="edge33" class="edge"><title>&#45;16&#45;&gt;1</title>
<path fill="none" stroke="green" stroke-width="0.354933" d="M307.216,-68.7705C310.283,-67.75 313.496,-66.6854 316.5,-65.6985 362.593,-50.5566 416.556,-33.1661 446.812,-23.4466"/>
<polygon fill="green" stroke="green" stroke-width="0.354933" points="448.021,-26.7342 456.473,-20.3448 445.881,-20.0693 448.021,-26.7342"/>
</g>
<!-- &#45;17 -->
<g id="node17" class="node"><title>&#45;17</title>
<polygon fill="lightgray" stroke="black" points="664,-83.6985 635,-83.6985 635,-65.6985 664,-65.6985 664,-83.6985"/>
<text text-anchor="middle" x="649.5" y="-72.4985" font-family="Times,serif" font-size="9.00">&#45;17</text>
</g>
<!-- &#45;17&#45;&gt;0 -->
<g id="edge29" class="edge"><title>&#45;17&#45;&gt;0</title>
<path fill="none" stroke="red" stroke-width="0.194794" d="M634.515,-68.0904C631.867,-67.2135 629.12,-66.3752 626.5,-65.6985 530.256,-40.8389 412.724,-24.904 362.351,-18.7398"/>
<polygon fill="red" stroke="red" stroke-width="0.194794" points="362.459,-15.2277 352.112,-17.5093 361.623,-22.1777 362.459,-15.2277"/>
</g>
<!-- &#45;17&#45;&gt;2 -->
<g id="edge28" class="edge"><title>&#45;17&#45;&gt;2</title>
<path fill="none" stroke="green" stroke-width="0.320162" d="M649.5,-65.6548C649.5,-59.0498 649.5,-49.3344 649.5,-40.2339"/>
<polygon fill="green" stroke="green" stroke-width="0.320162" points="653,-40.0563 649.5,-30.0563 646,-40.0564 653,-40.0563"/>
</g>
<!-- &#45;17&#45;&gt;3 -->
<g id="edge17" class="edge"><title>&#45;17&#45;&gt;3</title>
<path fill="none" stroke="red" stroke-width="0.282984" d="M658.677,-65.6548C668.556,-56.996 684.534,-42.9914 697.034,-32.0346"/>
<polygon fill="red" stroke="red" stroke-width="0.282984" points="699.434,-34.5849 704.648,-25.3614 694.82,-29.3208 699.434,-34.5849"/>
</g>
<!-- &#45;18 -->
<g id="node18" class="node"><title>&#45;18</title>
<polygon fill="lightgray" stroke="black" points="570,-83.6985 541,-83.6985 541,-65.6985 570,-65.6985 570,-83.6985"/>
<text text-anchor="middle" x="555.5" y="-72.4985" font-family="Times,serif" font-size="9.00">&#45;18</text>
</g>
<!-- &#45;18&#45;&gt;0 -->
<g id="edge48" class="edge"><title>&#45;18&#45;&gt;0</title>
<path fill="none" stroke="green" stroke-width="0.240339" d="M540.96,-68.4332C538.166,-67.4805 535.253,-66.5275 532.5,-65.6985 471.595,-47.3572 398.711,-29.8953 361.678,-21.3357"/>
<polygon fill="green" stroke="green" stroke-width="0.240339" points="362.334,-17.8955 351.805,-19.0689 360.768,-24.718 362.334,-17.8955"/>
</g>
<!-- &#45;18&#45;&gt;1 -->
<g id="edge38" class="edge"><title>&#45;18&#45;&gt;1</title>
<path fill="none" stroke="green" stroke-width="0.40771" d="M543.681,-65.6548C530.056,-56.3818 507.423,-40.978 490.928,-29.7523"/>
<polygon fill="green" stroke="green" stroke-width="0.40771" points="492.729,-26.7441 482.493,-24.0111 488.79,-32.531 492.729,-26.7441"/>
</g>
<!-- &#45;18&#45;&gt;2 -->
<g id="edge39" class="edge"><title>&#45;18&#45;&gt;2</title>
<path fill="none" stroke="red" stroke-width="0.182967" d="M568.57,-65.6548C584.106,-56.0937 610.233,-40.0148 628.589,-28.7182"/>
<polygon fill="red" stroke="red" stroke-width="0.182967" points="630.457,-31.6786 637.139,-23.4566 626.788,-25.7171 630.457,-31.6786"/>
</g>
<!-- &#45;18&#45;&gt;3 -->
<g id="edge36" class="edge"><title>&#45;18&#45;&gt;3</title>
<path fill="none" stroke="red" stroke-width="0.441444" d="M570.215,-68.7658C573.281,-67.7456 576.495,-66.6823 579.5,-65.6985 629.191,-49.4311 643.698,-50.8843 691.5,-29.6985 692.347,-29.3233 693.202,-28.9262 694.059,-28.5126"/>
<polygon fill="red" stroke="red" stroke-width="0.441444" points="695.892,-31.5014 703.058,-23.6979 692.59,-25.3291 695.892,-31.5014"/>
</g>
<!-- &#45;19 -->
<g id="node19" class="node"><title>&#45;19</title>
<polygon fill="lightgray" stroke="black" points="170,-83.6985 141,-83.6985 141,-65.6985 170,-65.6985 170,-83.6985"/>
<text text-anchor="middle" x="155.5" y="-72.4985" font-family="Times,serif" font-size="9.00">&#45;19</text>
</g>
<!-- &#45;19&#45;&gt;0 -->
<g id="edge37" class="edge"><title>&#45;19&#45;&gt;0</title>
<path fill="none" stroke="green" stroke-width="0.198944" d="M170.211,-68.7532C173.278,-67.734 176.492,-66.6743 179.5,-65.6985 226.98,-50.2962 282.694,-32.8687 313.66,-23.2395"/>
<polygon fill="green" stroke="green" stroke-width="0.198944" points="315.015,-26.4836 323.526,-20.1749 312.938,-19.7987 315.015,-26.4836"/>
</g>
<!-- &#45;19&#45;&gt;1 -->
<g id="edge26" class="edge"><title>&#45;19&#45;&gt;1</title>
<path fill="none" stroke="green" stroke-width="0.18321" d="M170.119,-68.4331C173.192,-67.437 176.433,-66.4677 179.5,-65.6985 276.769,-41.3063 395.326,-25.0821 445.822,-18.7878"/>
<polygon fill="green" stroke="green" stroke-width="0.18321" points="446.303,-22.255 455.803,-17.5633 445.451,-15.3071 446.303,-22.255"/>
</g>
<!-- &#45;20 -->
<g id="node20" class="node"><title>&#45;20</title>
<polygon fill="lightgray" stroke="black" points="933,-83.6985 904,-83.6985 904,-65.6985 933,-65.6985 933,-83.6985"/>
<text text-anchor="middle" x="918.5" y="-72.4985" font-family="Times,serif" font-size="9.00">&#45;20</text>
</g>
<!-- &#45;20&#45;&gt;2 -->
<g id="edge1" class="edge"><title>&#45;20&#45;&gt;2</title>
<path fill="none" stroke="red" stroke-width="0.667281" d="M903.512,-68.0989C900.865,-67.2211 898.118,-66.3802 895.5,-65.6985 806.403,-42.5012 780.783,-52.1724 691.5,-29.6985 685.395,-28.1617 678.891,-26.1884 672.871,-24.216"/>
<polygon fill="red" stroke="red" stroke-width="0.667281" points="673.947,-20.8849 663.352,-20.9746 671.69,-27.5113 673.947,-20.8849"/>
</g>
<!-- &#45;20&#45;&gt;3 -->
<g id="edge9" class="edge"><title>&#45;20&#45;&gt;3</title>
<path fill="none" stroke="red" stroke-width="0.431208" d="M903.946,-68.4774C901.154,-67.5206 898.244,-66.5548 895.5,-65.6985 840.237,-48.4549 774.51,-31.0181 739.792,-22.044"/>
<polygon fill="red" stroke="red" stroke-width="0.431208" points="740.615,-18.6419 730.059,-19.5402 738.871,-25.4212 740.615,-18.6419"/>
</g>
<!-- &#45;21 -->
<g id="node21" class="node"><title>&#45;21</title>
<polygon fill="lightgray" stroke="black" points="886,-83.6985 857,-83.6985 857,-65.6985 886,-65.6985 886,-83.6985"/>
<text text-anchor="middle" x="871.5" y="-72.4985" font-family="Times,serif" font-size="9.00">&#45;21</text>
</g>
<!-- &#45;21&#45;&gt;2 -->
<g id="edge41" class="edge"><title>&#45;21&#45;&gt;2</title>
<path fill="none" stroke="green" stroke-width="0.214812" d="M856.845,-68.5684C853.774,-67.5625 850.544,-66.555 847.5,-65.6985 779.004,-46.4261 760.027,-48.8601 691.5,-29.6985 685.437,-28.0031 678.949,-25.9728 672.93,-23.9962"/>
<polygon fill="green" stroke="green" stroke-width="0.214812" points="673.996,-20.6621 663.402,-20.789 671.762,-27.2964 673.996,-20.6621"/>
</g>
<!-- &#45;21&#45;&gt;3 -->
<g id="edge32" class="edge"><title>&#45;21&#45;&gt;3</title>
<path fill="none" stroke="green" stroke-width="0.418191" d="M856.824,-68.2562C829.721,-58.2058 771.614,-36.6578 738.979,-24.556"/>
<polygon fill="green" stroke="green" stroke-width="0.418191" points="739.943,-21.1807 729.35,-20.9854 737.51,-27.744 739.943,-21.1807"/>
</g>
<!-- &#45;22 -->
<g id="node22" class="node"><title>&#45;22</title>
<polygon fill="lightgray" stroke="black" points="123,-83.6985 94,-83.6985 94,-65.6985 123,-65.6985 123,-83.6985"/>
<text text-anchor="middle" x="108.5" y="-72.4985" font-family="Times,serif" font-size="9.00">&#45;22</text>
</g>
<!-- &#45;22&#45;&gt;0 -->
<g id="edge7" class="edge"><title>&#45;22&#45;&gt;0</title>
<path fill="none" stroke="red" stroke-width="0.436286" d="M123.031,-68.4045C125.826,-67.4545 128.742,-66.5097 131.5,-65.6985 196.518,-46.5736 274.612,-29.1645 313.311,-20.902"/>
<polygon fill="red" stroke="red" stroke-width="0.436286" points="314.08,-24.3168 323.137,-18.8203 312.629,-17.4688 314.08,-24.3168"/>
</g>
<!-- &#45;22&#45;&gt;1 -->
<g id="edge21" class="edge"><title>&#45;22&#45;&gt;1</title>
<path fill="none" stroke="red" stroke-width="0.137824" d="M123.472,-68.0355C126.121,-67.1647 128.872,-66.3426 131.5,-65.6985 162,-58.2226 372.829,-29.1638 445.75,-19.2135"/>
<polygon fill="red" stroke="red" stroke-width="0.137824" points="446.41,-22.6559 455.846,-17.8377 445.465,-15.72 446.41,-22.6559"/>
</g>
<!-- &#45;23 -->
<g id="node23" class="node"><title>&#45;23</title>
<polygon fill="lightgray" stroke="black" points="1070,-83.6985 1041,-83.6985 1041,-65.6985 1070,-65.6985 1070,-83.6985"/>
<text text-anchor="middle" x="1055.5" y="-72.4985" font-family="Times,serif" font-size="9.00">&#45;23</text>
</g>
<!-- &#45;24 -->
<g id="node24" class="node"><title>&#45;24</title>
<polygon fill="lightgray" stroke="black" points="980,-83.6985 951,-83.6985 951,-65.6985 980,-65.6985 980,-83.6985"/>
<text text-anchor="middle" x="965.5" y="-72.4985" font-family="Times,serif" font-size="9.00">&#45;24</text>
</g>
<!-- &#45;24&#45;&gt;3 -->
<g id="edge27" class="edge"><title>&#45;24&#45;&gt;3</title>
<path fill="none" stroke="green" stroke-width="0.368898" d="M950.982,-68.357C948.186,-67.4114 945.266,-66.4804 942.5,-65.6985 869.789,-45.1476 781.987,-27.9885 740.08,-20.2558"/>
<polygon fill="green" stroke="green" stroke-width="0.368898" points="740.455,-16.7664 729.989,-18.4129 739.197,-23.6525 740.455,-16.7664"/>
</g>
<!-- 1&#45;&gt;1 -->
<g id="edge24" class="edge"><title>1&#45;&gt;1</title>
<path fill="none" stroke="green" stroke-width="0.541588" d="M482.288,-23.9294C492.522,-28.0713 503.349,-25.0446 503.349,-14.8492 503.349,-7.99927 498.462,-4.3853 492.15,-4.00735"/>
<polygon fill="green" stroke="green" stroke-width="0.541588" points="491.516,-0.565092 482.288,-5.76904 492.747,-7.45602 491.516,-0.565092"/>
</g>
<!-- 2&#45;&gt;2 -->
<g id="edge43" class="edge"><title>2&#45;&gt;2</title>
<path fill="none" stroke="green" stroke-width="0.285872" d="M661.288,-23.9294C671.522,-28.0713 682.349,-25.0446 682.349,-14.8492 682.349,-7.99927 677.462,-4.3853 671.15,-4.00735"/>
<polygon fill="green" stroke="green" stroke-width="0.285872" points="670.516,-0.565092 661.288,-5.76904 671.747,-7.45602 670.516,-0.565092"/>
</g>
<!-- 3&#45;&gt;3 -->
<g id="edge14" class="edge"><title>3&#45;&gt;3</title>
<path fill="none" stroke="green" stroke-width="0.364644" d="M727.288,-23.9294C737.522,-28.0713 748.349,-25.0446 748.349,-14.8492 748.349,-7.99927 743.462,-4.3853 737.15,-4.00735"/>
<polygon fill="green" stroke="green" stroke-width="0.364644" points="736.516,-0.565092 727.288,-5.76904 737.747,-7.45602 736.516,-0.565092"/>
</g>
</g>
</svg>
