<?xml version="1.0" encoding="UTF-8" standalone="no"?>
<!DOCTYPE svg PUBLIC "-//W3C//DTD SVG 1.1//EN"
 "http://www.w3.org/Graphics/SVG/1.1/DTD/svg11.dtd">
<!-- Generated by graphviz version 2.38.0 (20140413.2041)
 -->
<!-- Title: %3 Pages: 1 -->
<svg width="1105pt" height="263pt"
 viewBox="0.00 0.00 1105.00 262.69" xmlns="http://www.w3.org/2000/svg" xmlns:xlink="http://www.w3.org/1999/xlink">
<g id="graph0" class="graph" transform="scale(1 1) rotate(0) translate(4 258.693)">
<title>%3</title>
<polygon fill="white" stroke="none" points="-4,4 -4,-258.693 1101,-258.693 1101,4 -4,4"/>
<!-- &#45;1 -->
<g id="node1" class="node"><title>&#45;1</title>
<polygon fill="lightgray" stroke="black" points="292.5,-184.945 268.5,-184.945 268.5,-166.945 292.5,-166.945 292.5,-184.945"/>
<text text-anchor="middle" x="280.5" y="-173.745" font-family="Times,serif" font-size="9.00">&#45;1</text>
</g>
<!-- 0 -->
<g id="node25" class="node"><title>0</title>
<ellipse fill="lightblue" stroke="black" cx="170.5" cy="-90.4472" rx="14.7" ry="14.7"/>
<text text-anchor="middle" x="170.5" y="-88.2472" font-family="Times,serif" font-size="9.00">0</text>
</g>
<!-- &#45;1&#45;&gt;0 -->
<g id="edge5" class="edge"><title>&#45;1&#45;&gt;0</title>
<path fill="none" stroke="red" stroke-width="0.138814" d="M273.976,-166.55C270.051,-161.773 264.801,-155.836 259.5,-151.196 238.056,-132.427 210.422,-114.734 191.676,-103.545"/>
<polygon fill="red" stroke="red" stroke-width="0.138814" points="193.404,-100.501 183.008,-98.457 189.861,-106.538 193.404,-100.501"/>
</g>
<!-- 1 -->
<g id="node26" class="node"><title>1</title>
<ellipse fill="lightblue" stroke="black" cx="619.5" cy="-90.4472" rx="14.7" ry="14.7"/>
<text text-anchor="middle" x="619.5" y="-88.2472" font-family="Times,serif" font-size="9.00">1</text>
</g>
<!-- &#45;1&#45;&gt;1 -->
<g id="edge7" class="edge"><title>&#45;1&#45;&gt;1</title>
<path fill="none" stroke="red" stroke-width="0.531974" d="M285.711,-166.592C289.45,-161.326 294.968,-154.852 301.5,-151.196 382.22,-106.013 415.668,-132.711 506.5,-115.196 537.087,-109.298 572.176,-101.81 595.032,-96.8353"/>
<polygon fill="red" stroke="red" stroke-width="0.531974" points="595.882,-100.232 604.904,-94.6772 594.387,-93.3936 595.882,-100.232"/>
</g>
<!-- 3 -->
<g id="node28" class="node"><title>3</title>
<ellipse fill="lightblue" stroke="black" cx="384.5" cy="-90.4472" rx="14.7" ry="14.7"/>
<text text-anchor="middle" x="384.5" y="-88.2472" font-family="Times,serif" font-size="9.00">3</text>
</g>
<!-- &#45;1&#45;&gt;3 -->
<g id="edge30" class="edge"><title>&#45;1&#45;&gt;3</title>
<path fill="none" stroke="green" stroke-width="0.10063" d="M286.588,-166.91C290.522,-162.029 295.931,-155.861 301.5,-151.196 325.048,-131.47 336.308,-134.127 360.5,-115.196 362.837,-113.367 365.188,-111.333 367.457,-109.246"/>
<polygon fill="green" stroke="green" stroke-width="0.10063" points="369.996,-111.659 374.709,-102.17 365.108,-106.648 369.996,-111.659"/>
</g>
<!-- 3760 -->
<g id="node30" class="node"><title>3760</title>
<ellipse fill="white" stroke="black" cx="326.5" cy="-90.4472" rx="25" ry="25"/>
<text text-anchor="middle" x="326.5" y="-88.2472" font-family="Times,serif" font-size="9.00">3760</text>
</g>
<!-- &#45;1&#45;&gt;3760 -->
<g id="edge25" class="edge"><title>&#45;1&#45;&gt;3760</title>
<path fill="none" stroke="green" stroke-width="0.239637" d="M284.911,-166.939C290.625,-156.566 300.913,-137.892 309.826,-121.714"/>
<polygon fill="green" stroke="green" stroke-width="0.239637" points="313.11,-123.005 314.87,-112.558 306.979,-119.628 313.11,-123.005"/>
</g>
<!-- &#45;2 -->
<g id="node2" class="node"><title>&#45;2</title>
<polygon fill="lightgray" stroke="black" points="118.5,-184.945 94.5,-184.945 94.5,-166.945 118.5,-166.945 118.5,-184.945"/>
<text text-anchor="middle" x="106.5" y="-173.745" font-family="Times,serif" font-size="9.00">&#45;2</text>
</g>
<!-- &#45;2&#45;&gt;0 -->
<g id="edge1" class="edge"><title>&#45;2&#45;&gt;0</title>
<path fill="none" stroke="red" stroke-width="0.432156" d="M112.637,-166.939C122.477,-154.1 142.064,-128.546 155.709,-110.744"/>
<polygon fill="red" stroke="red" stroke-width="0.432156" points="158.556,-112.784 161.861,-102.718 153,-108.525 158.556,-112.784"/>
</g>
<!-- &#45;3 -->
<g id="node3" class="node"><title>&#45;3</title>
<polygon fill="lightgray" stroke="black" points="871.5,-254.693 847.5,-254.693 847.5,-236.693 871.5,-236.693 871.5,-254.693"/>
<text text-anchor="middle" x="859.5" y="-243.493" font-family="Times,serif" font-size="9.00">&#45;3</text>
</g>
<!-- &#45;4 -->
<g id="node4" class="node"><title>&#45;4</title>
<polygon fill="lightgray" stroke="black" points="913.5,-254.693 889.5,-254.693 889.5,-236.693 913.5,-236.693 913.5,-254.693"/>
<text text-anchor="middle" x="901.5" y="-243.493" font-family="Times,serif" font-size="9.00">&#45;4</text>
</g>
<!-- &#45;5 -->
<g id="node5" class="node"><title>&#45;5</title>
<polygon fill="lightgray" stroke="black" points="250.5,-184.945 226.5,-184.945 226.5,-166.945 250.5,-166.945 250.5,-184.945"/>
<text text-anchor="middle" x="238.5" y="-173.745" font-family="Times,serif" font-size="9.00">&#45;5</text>
</g>
<!-- &#45;5&#45;&gt;0 -->
<g id="edge19" class="edge"><title>&#45;5&#45;&gt;0</title>
<path fill="none" stroke="red" stroke-width="1.66844" d="M231.98,-166.939C221.467,-154.03 200.485,-128.266 185.978,-110.453"/>
<polygon fill="red" stroke="red" stroke-width="1.66844" points="188.48,-107.982 179.451,-102.438 183.052,-112.402 188.48,-107.982"/>
</g>
<!-- &#45;5&#45;&gt;3 -->
<g id="edge28" class="edge"><title>&#45;5&#45;&gt;3</title>
<path fill="none" stroke="green" stroke-width="0.208759" d="M244.272,-166.491C248.087,-161.452 253.482,-155.265 259.5,-151.196 298.977,-124.502 320.156,-140.561 360.5,-115.196 363.012,-113.616 365.469,-111.733 367.795,-109.727"/>
<polygon fill="green" stroke="green" stroke-width="0.208759" points="370.312,-112.163 375.084,-102.703 365.455,-107.122 370.312,-112.163"/>
</g>
<!-- &#45;6 -->
<g id="node6" class="node"><title>&#45;6</title>
<polygon fill="lightgray" stroke="black" points="497.5,-99.4472 473.5,-99.4472 473.5,-81.4472 497.5,-81.4472 497.5,-99.4472"/>
<text text-anchor="middle" x="485.5" y="-88.2472" font-family="Times,serif" font-size="9.00">&#45;6</text>
</g>
<!-- 2 -->
<g id="node27" class="node"><title>2</title>
<ellipse fill="lightblue" stroke="black" cx="445.5" cy="-14.8492" rx="14.7" ry="14.7"/>
<text text-anchor="middle" x="445.5" y="-12.6492" font-family="Times,serif" font-size="9.00">2</text>
</g>
<!-- &#45;6&#45;&gt;2 -->
<g id="edge4" class="edge"><title>&#45;6&#45;&gt;2</title>
<path fill="none" stroke="green" stroke-width="0.25256" d="M481.066,-81.2897C475.327,-70.7286 465.11,-51.9305 457.095,-37.1831"/>
<polygon fill="green" stroke="green" stroke-width="0.25256" points="460.065,-35.319 452.215,-28.2042 453.915,-38.6617 460.065,-35.319"/>
</g>
<!-- &#45;7 -->
<g id="node7" class="node"><title>&#45;7</title>
<polygon fill="lightgray" stroke="black" points="829.5,-254.693 805.5,-254.693 805.5,-236.693 829.5,-236.693 829.5,-254.693"/>
<text text-anchor="middle" x="817.5" y="-243.493" font-family="Times,serif" font-size="9.00">&#45;7</text>
</g>
<!-- 4875 -->
<g id="node29" class="node"><title>4875</title>
<ellipse fill="white" stroke="black" cx="817.5" cy="-175.945" rx="25" ry="25"/>
<text text-anchor="middle" x="817.5" y="-173.745" font-family="Times,serif" font-size="9.00">4875</text>
</g>
<!-- &#45;7&#45;&gt;4875 -->
<g id="edge8" class="edge"><title>&#45;7&#45;&gt;4875</title>
<path fill="none" stroke="red" stroke-width="0.467626" d="M817.5,-236.656C817.5,-230.221 817.5,-220.723 817.5,-211.186"/>
<polygon fill="red" stroke="red" stroke-width="0.467626" points="821,-210.966 817.5,-200.966 814,-210.966 821,-210.966"/>
</g>
<!-- &#45;8 -->
<g id="node8" class="node"><title>&#45;8</title>
<polygon fill="lightgray" stroke="black" points="955.5,-254.693 931.5,-254.693 931.5,-236.693 955.5,-236.693 955.5,-254.693"/>
<text text-anchor="middle" x="943.5" y="-243.493" font-family="Times,serif" font-size="9.00">&#45;8</text>
</g>
<!-- &#45;9 -->
<g id="node9" class="node"><title>&#45;9</title>
<polygon fill="lightgray" stroke="black" points="160.5,-184.945 136.5,-184.945 136.5,-166.945 160.5,-166.945 160.5,-184.945"/>
<text text-anchor="middle" x="148.5" y="-173.745" font-family="Times,serif" font-size="9.00">&#45;9</text>
</g>
<!-- &#45;9&#45;&gt;0 -->
<g id="edge24" class="edge"><title>&#45;9&#45;&gt;0</title>
<path fill="none" stroke="red" stroke-width="0.99089" d="M150.609,-166.939C153.727,-155.108 159.689,-132.479 164.276,-115.069"/>
<polygon fill="red" stroke="red" stroke-width="0.99089" points="167.753,-115.609 166.917,-105.047 160.984,-113.825 167.753,-115.609"/>
</g>
<!-- &#45;10 -->
<g id="node10" class="node"><title>&#45;10</title>
<polygon fill="lightgray" stroke="black" points="208,-184.945 179,-184.945 179,-166.945 208,-166.945 208,-184.945"/>
<text text-anchor="middle" x="193.5" y="-173.745" font-family="Times,serif" font-size="9.00">&#45;10</text>
</g>
<!-- &#45;10&#45;&gt;0 -->
<g id="edge17" class="edge"><title>&#45;10&#45;&gt;0</title>
<path fill="none" stroke="green" stroke-width="0.338765" d="M191.295,-166.939C188.036,-155.108 181.803,-132.479 177.007,-115.069"/>
<polygon fill="green" stroke="green" stroke-width="0.338765" points="180.276,-113.758 174.246,-105.047 173.528,-115.617 180.276,-113.758"/>
</g>
<!-- &#45;11 -->
<g id="node11" class="node"><title>&#45;11</title>
<polygon fill="lightgray" stroke="black" points="493,-184.945 464,-184.945 464,-166.945 493,-166.945 493,-184.945"/>
<text text-anchor="middle" x="478.5" y="-173.745" font-family="Times,serif" font-size="9.00">&#45;11</text>
</g>
<!-- &#45;11&#45;&gt;2 -->
<g id="edge32" class="edge"><title>&#45;11&#45;&gt;2</title>
<path fill="none" stroke="green" stroke-width="0.252708" d="M476.492,-166.851C473.673,-155.385 468.445,-133.745 464.5,-115.196 459.019,-89.4258 453.436,-59.7381 449.754,-39.5765"/>
<polygon fill="green" stroke="green" stroke-width="0.252708" points="453.192,-38.9221 447.964,-29.7071 446.305,-40.1711 453.192,-38.9221"/>
</g>
<!-- &#45;11&#45;&gt;3 -->
<g id="edge22" class="edge"><title>&#45;11&#45;&gt;3</title>
<path fill="none" stroke="red" stroke-width="0.276473" d="M471.03,-166.828C466.623,-162.144 460.873,-156.206 455.5,-151.196 438.559,-135.399 418.251,-118.499 403.702,-106.718"/>
<polygon fill="red" stroke="red" stroke-width="0.276473" points="405.857,-103.959 395.871,-100.42 401.47,-109.415 405.857,-103.959"/>
</g>
<!-- &#45;12 -->
<g id="node12" class="node"><title>&#45;12</title>
<polygon fill="lightgray" stroke="black" points="587,-184.945 558,-184.945 558,-166.945 587,-166.945 587,-184.945"/>
<text text-anchor="middle" x="572.5" y="-173.745" font-family="Times,serif" font-size="9.00">&#45;12</text>
</g>
<!-- &#45;12&#45;&gt;1 -->
<g id="edge11" class="edge"><title>&#45;12&#45;&gt;1</title>
<path fill="none" stroke="green" stroke-width="0.682562" d="M577.007,-166.939C583.947,-154.609 597.488,-130.552 607.426,-112.897"/>
<polygon fill="green" stroke="green" stroke-width="0.682562" points="610.657,-114.293 612.512,-103.862 604.557,-110.859 610.657,-114.293"/>
</g>
<!-- &#45;13 -->
<g id="node13" class="node"><title>&#45;13</title>
<polygon fill="lightgray" stroke="black" points="1003,-254.693 974,-254.693 974,-236.693 1003,-236.693 1003,-254.693"/>
<text text-anchor="middle" x="988.5" y="-243.493" font-family="Times,serif" font-size="9.00">&#45;13</text>
</g>
<!-- &#45;14 -->
<g id="node14" class="node"><title>&#45;14</title>
<polygon fill="lightgray" stroke="black" points="540,-184.945 511,-184.945 511,-166.945 540,-166.945 540,-184.945"/>
<text text-anchor="middle" x="525.5" y="-173.745" font-family="Times,serif" font-size="9.00">&#45;14</text>
</g>
<!-- &#45;14&#45;&gt;1 -->
<g id="edge34" class="edge"><title>&#45;14&#45;&gt;1</title>
<path fill="none" stroke="red" stroke-width="0.208625" d="M533.357,-166.879C537.976,-162.211 543.976,-156.274 549.5,-151.196 566.255,-135.794 586.035,-119.035 600.288,-107.196"/>
<polygon fill="red" stroke="red" stroke-width="0.208625" points="602.892,-109.585 608.371,-100.517 598.433,-104.189 602.892,-109.585"/>
</g>
<!-- &#45;14&#45;&gt;2 -->
<g id="edge10" class="edge"><title>&#45;14&#45;&gt;2</title>
<path fill="none" stroke="green" stroke-width="0.410616" d="M525.94,-166.894C526.608,-147.881 526.123,-99.2717 506.5,-65.6985 497.136,-49.6768 480.561,-36.6348 467.051,-27.9149"/>
<polygon fill="green" stroke="green" stroke-width="0.410616" points="468.673,-24.8046 458.313,-22.585 465.027,-30.7805 468.673,-24.8046"/>
</g>
<!-- &#45;14&#45;&gt;3 -->
<g id="edge21" class="edge"><title>&#45;14&#45;&gt;3</title>
<path fill="none" stroke="green" stroke-width="0.548737" d="M518.832,-166.79C514.524,-161.864 508.599,-155.69 502.5,-151.196 472.118,-128.807 432.11,-110.539 407.359,-100.329"/>
<polygon fill="green" stroke="green" stroke-width="0.548737" points="408.645,-97.0736 398.062,-96.5774 406.026,-103.565 408.645,-97.0736"/>
</g>
<!-- &#45;15 -->
<g id="node15" class="node"><title>&#45;15</title>
<polygon fill="lightgray" stroke="black" points="634,-184.945 605,-184.945 605,-166.945 634,-166.945 634,-184.945"/>
<text text-anchor="middle" x="619.5" y="-173.745" font-family="Times,serif" font-size="9.00">&#45;15</text>
</g>
<!-- &#45;15&#45;&gt;1 -->
<g id="edge12" class="edge"><title>&#45;15&#45;&gt;1</title>
<path fill="none" stroke="red" stroke-width="0.257952" d="M619.5,-166.939C619.5,-155.175 619.5,-132.737 619.5,-115.368"/>
<polygon fill="red" stroke="red" stroke-width="0.257952" points="623,-115.349 619.5,-105.349 616,-115.349 623,-115.349"/>
</g>
<!-- &#45;16 -->
<g id="node16" class="node"><title>&#45;16</title>
<polygon fill="lightgray" stroke="black" points="681,-184.945 652,-184.945 652,-166.945 681,-166.945 681,-184.945"/>
<text text-anchor="middle" x="666.5" y="-173.745" font-family="Times,serif" font-size="9.00">&#45;16</text>
</g>
<!-- &#45;16&#45;&gt;1 -->
<g id="edge23" class="edge"><title>&#45;16&#45;&gt;1</title>
<path fill="none" stroke="green" stroke-width="0.353731" d="M661.993,-166.939C655.053,-154.609 641.512,-130.552 631.574,-112.897"/>
<polygon fill="green" stroke="green" stroke-width="0.353731" points="634.443,-110.859 626.488,-103.862 628.343,-114.293 634.443,-110.859"/>
</g>
<!-- &#45;17 -->
<g id="node17" class="node"><title>&#45;17</title>
<polygon fill="lightgray" stroke="black" points="728,-184.945 699,-184.945 699,-166.945 728,-166.945 728,-184.945"/>
<text text-anchor="middle" x="713.5" y="-173.745" font-family="Times,serif" font-size="9.00">&#45;17</text>
</g>
<!-- &#45;17&#45;&gt;1 -->
<g id="edge33" class="edge"><title>&#45;17&#45;&gt;1</title>
<path fill="none" stroke="red" stroke-width="0.627418" d="M706.03,-166.828C701.623,-162.144 695.873,-156.206 690.5,-151.196 673.559,-135.399 653.251,-118.499 638.702,-106.718"/>
<polygon fill="red" stroke="red" stroke-width="0.627418" points="640.857,-103.959 630.871,-100.42 636.47,-109.415 640.857,-103.959"/>
</g>
<!-- &#45;18 -->
<g id="node18" class="node"><title>&#45;18</title>
<polygon fill="lightgray" stroke="black" points="377,-254.693 348,-254.693 348,-236.693 377,-236.693 377,-254.693"/>
<text text-anchor="middle" x="362.5" y="-243.493" font-family="Times,serif" font-size="9.00">&#45;18</text>
</g>
<!-- &#45;18&#45;&gt;3 -->
<g id="edge26" class="edge"><title>&#45;18&#45;&gt;3</title>
<path fill="none" stroke="red" stroke-width="0.14986" d="M363.842,-236.592C365.291,-227.77 367.641,-213.242 369.5,-200.693 373.845,-171.371 378.421,-137.553 381.36,-115.405"/>
<polygon fill="red" stroke="red" stroke-width="0.14986" points="384.861,-115.629 382.7,-105.257 377.921,-114.713 384.861,-115.629"/>
</g>
<!-- 4626 -->
<g id="node31" class="node"><title>4626</title>
<ellipse fill="white" stroke="black" cx="335.5" cy="-175.945" rx="25" ry="25"/>
<text text-anchor="middle" x="335.5" y="-173.745" font-family="Times,serif" font-size="9.00">4626</text>
</g>
<!-- &#45;18&#45;&gt;4626 -->
<g id="edge2" class="edge"><title>&#45;18&#45;&gt;4626</title>
<path fill="none" stroke="red" stroke-width="0.323747" d="M359.297,-236.656C356.495,-229.625 352.236,-218.938 348.091,-208.539"/>
<polygon fill="red" stroke="red" stroke-width="0.323747" points="351.316,-207.176 344.362,-199.182 344.813,-209.768 351.316,-207.176"/>
</g>
<!-- &#45;19 -->
<g id="node19" class="node"><title>&#45;19</title>
<polygon fill="lightgray" stroke="black" points="446,-184.945 417,-184.945 417,-166.945 446,-166.945 446,-184.945"/>
<text text-anchor="middle" x="431.5" y="-173.745" font-family="Times,serif" font-size="9.00">&#45;19</text>
</g>
<!-- &#45;19&#45;&gt;0 -->
<g id="edge29" class="edge"><title>&#45;19&#45;&gt;0</title>
<path fill="none" stroke="green" stroke-width="0.213806" d="M416.83,-168.973C404.337,-163.972 385.864,-156.778 369.5,-151.196 307.043,-129.891 232.227,-108.523 194.611,-98.0627"/>
<polygon fill="green" stroke="green" stroke-width="0.213806" points="195.178,-94.5881 184.607,-95.2944 193.311,-101.335 195.178,-94.5881"/>
</g>
<!-- &#45;19&#45;&gt;1 -->
<g id="edge20" class="edge"><title>&#45;19&#45;&gt;1</title>
<path fill="none" stroke="green" stroke-width="0.11189" d="M438.337,-166.542C442.787,-161.522 448.964,-155.337 455.5,-151.196 500.772,-122.512 561.765,-104.944 595.15,-96.8233"/>
<polygon fill="green" stroke="green" stroke-width="0.11189" points="596.031,-100.212 604.964,-94.5165 594.429,-93.3975 596.031,-100.212"/>
</g>
<!-- &#45;20 -->
<g id="node20" class="node"><title>&#45;20</title>
<polygon fill="lightgray" stroke="black" points="1050,-254.693 1021,-254.693 1021,-236.693 1050,-236.693 1050,-254.693"/>
<text text-anchor="middle" x="1035.5" y="-243.493" font-family="Times,serif" font-size="9.00">&#45;20</text>
</g>
<!-- &#45;21 -->
<g id="node21" class="node"><title>&#45;21</title>
<polygon fill="lightgray" stroke="black" points="29,-184.945 0,-184.945 0,-166.945 29,-166.945 29,-184.945"/>
<text text-anchor="middle" x="14.5" y="-173.745" font-family="Times,serif" font-size="9.00">&#45;21</text>
</g>
<!-- &#45;21&#45;&gt;0 -->
<g id="edge13" class="edge"><title>&#45;21&#45;&gt;0</title>
<path fill="none" stroke="green" stroke-width="1.57997" d="M21.0957,-166.69C25.3768,-161.726 31.2979,-155.547 37.5,-151.196 72.411,-126.701 118.975,-108.569 146.734,-99.0342"/>
<polygon fill="green" stroke="green" stroke-width="1.57997" points="148.015,-102.296 156.388,-95.8053 145.795,-95.6578 148.015,-102.296"/>
</g>
<!-- &#45;22 -->
<g id="node22" class="node"><title>&#45;22</title>
<polygon fill="lightgray" stroke="black" points="775,-184.945 746,-184.945 746,-166.945 775,-166.945 775,-184.945"/>
<text text-anchor="middle" x="760.5" y="-173.745" font-family="Times,serif" font-size="9.00">&#45;22</text>
</g>
<!-- &#45;22&#45;&gt;1 -->
<g id="edge15" class="edge"><title>&#45;22&#45;&gt;1</title>
<path fill="none" stroke="red" stroke-width="0.194459" d="M753.832,-166.79C749.524,-161.864 743.599,-155.69 737.5,-151.196 707.118,-128.807 667.11,-110.539 642.359,-100.329"/>
<polygon fill="red" stroke="red" stroke-width="0.194459" points="643.645,-97.0736 633.062,-96.5774 641.026,-103.565 643.645,-97.0736"/>
</g>
<!-- &#45;23 -->
<g id="node23" class="node"><title>&#45;23</title>
<polygon fill="lightgray" stroke="black" points="1097,-254.693 1068,-254.693 1068,-236.693 1097,-236.693 1097,-254.693"/>
<text text-anchor="middle" x="1082.5" y="-243.493" font-family="Times,serif" font-size="9.00">&#45;23</text>
</g>
<!-- &#45;24 -->
<g id="node24" class="node"><title>&#45;24</title>
<polygon fill="lightgray" stroke="black" points="76,-184.945 47,-184.945 47,-166.945 76,-166.945 76,-184.945"/>
<text text-anchor="middle" x="61.5" y="-173.745" font-family="Times,serif" font-size="9.00">&#45;24</text>
</g>
<!-- &#45;24&#45;&gt;0 -->
<g id="edge31" class="edge"><title>&#45;24&#45;&gt;0</title>
<path fill="none" stroke="green" stroke-width="0.946296" d="M69.183,-166.68C73.744,-161.946 79.744,-156.009 85.5,-151.196 106.357,-133.756 132.12,-116.14 149.781,-104.601"/>
<polygon fill="green" stroke="green" stroke-width="0.946296" points="151.711,-107.522 158.21,-99.1541 147.911,-101.642 151.711,-107.522"/>
</g>
<!-- 1&#45;&gt;1 -->
<g id="edge18" class="edge"><title>1&#45;&gt;1</title>
<path fill="none" stroke="red" stroke-width="0.29026" d="M629.928,-101.274C640.539,-107.642 652.349,-104.033 652.349,-90.4472 652.349,-81.1069 646.767,-76.4823 639.83,-76.5735"/>
<polygon fill="red" stroke="red" stroke-width="0.29026" points="638.456,-73.3343 629.928,-79.6209 640.515,-80.0247 638.456,-73.3343"/>
</g>
<!-- 2&#45;&gt;2 -->
<g id="edge16" class="edge"><title>2&#45;&gt;2</title>
<path fill="none" stroke="green" stroke-width="0.29472" d="M455.928,-25.6755C466.539,-32.0439 478.349,-28.4352 478.349,-14.8492 478.349,-5.50891 472.767,-0.884351 465.83,-0.975566"/>
<polygon fill="green" stroke="green" stroke-width="0.29472" points="464.456,2.26363 455.928,-4.02295 466.515,-4.42672 464.456,2.26363"/>
</g>
<!-- 2&#45;&gt;3760 -->
<g id="edge6" class="edge"><title>2&#45;&gt;3760</title>
<path fill="none" stroke="green" stroke-width="0.343577" d="M434.844,-25.5735C419.643,-35.3442 392.4,-51.0187 369.5,-65.6985 365.541,-68.2364 361.389,-71.0251 357.251,-73.7715"/>
<polygon fill="green" stroke="green" stroke-width="0.343577" points="355.306,-70.8611 348.842,-79.2554 359.13,-76.7244 355.306,-70.8611"/>
</g>
<!-- 3&#45;&gt;3 -->
<g id="edge9" class="edge"><title>3&#45;&gt;3</title>
<path fill="none" stroke="green" stroke-width="0.223202" d="M394.928,-101.274C405.539,-107.642 417.349,-104.033 417.349,-90.4472 417.349,-81.1069 411.767,-76.4823 404.83,-76.5735"/>
<polygon fill="green" stroke="green" stroke-width="0.223202" points="403.456,-73.3343 394.928,-79.6209 405.515,-80.0247 403.456,-73.3343"/>
</g>
<!-- 4875&#45;&gt;1 -->
<g id="edge14" class="edge"><title>4875&#45;&gt;1</title>
<path fill="none" stroke="green" stroke-width="0.306268" d="M798.535,-159.946C794.08,-156.81 789.244,-153.7 784.5,-151.196 736.847,-126.046 676.285,-107.129 643.395,-97.8366"/>
<polygon fill="green" stroke="green" stroke-width="0.306268" points="644.311,-94.4587 633.74,-95.162 642.442,-101.205 644.311,-94.4587"/>
</g>
<!-- 3760&#45;&gt;2 -->
<g id="edge3" class="edge"><title>3760&#45;&gt;2</title>
<path fill="none" stroke="red" stroke-width="0.423989" d="M342.659,-71.5841C345.577,-69.5643 348.59,-67.5637 351.5,-65.6985 374.909,-50.6919 402.858,-34.6459 422.448,-24.9299"/>
<polygon fill="red" stroke="red" stroke-width="0.423989" points="424.069,-28.035 431.6,-20.5829 421.065,-21.7121 424.069,-28.035"/>
</g>
<!-- 4626&#45;&gt;3 -->
<g id="edge27" class="edge"><title>4626&#45;&gt;3</title>
<path fill="none" stroke="green" stroke-width="0.222991" d="M347.612,-154.305C355.02,-141.682 364.478,-125.566 371.962,-112.813"/>
<polygon fill="green" stroke="green" stroke-width="0.222991" points="375.191,-114.225 377.234,-103.829 369.154,-110.682 375.191,-114.225"/>
</g>
</g>
</svg>
