<?xml version="1.0" encoding="UTF-8" standalone="no"?>
<!DOCTYPE svg PUBLIC "-//W3C//DTD SVG 1.1//EN"
 "http://www.w3.org/Graphics/SVG/1.1/DTD/svg11.dtd">
<!-- Generated by graphviz version 2.38.0 (20140413.2041)
 -->
<!-- Title: %3 Pages: 1 -->
<svg width="1318pt" height="177pt"
 viewBox="0.00 0.00 1317.50 177.20" xmlns="http://www.w3.org/2000/svg" xmlns:xlink="http://www.w3.org/1999/xlink">
<g id="graph0" class="graph" transform="scale(1 1) rotate(0) translate(4 173.196)">
<title>%3</title>
<polygon fill="white" stroke="none" points="-4,4 -4,-173.196 1313.5,-173.196 1313.5,4 -4,4"/>
<!-- &#45;1 -->
<g id="node1" class="node"><title>&#45;1</title>
<polygon fill="lightgray" stroke="black" points="724,-169.196 700,-169.196 700,-151.196 724,-151.196 724,-169.196"/>
<text text-anchor="middle" x="712" y="-157.996" font-family="Times,serif" font-size="9.00">&#45;1</text>
</g>
<!-- 0 -->
<g id="node25" class="node"><title>0</title>
<ellipse fill="lightblue" stroke="black" cx="1058" cy="-14.8492" rx="14.7" ry="14.7"/>
<text text-anchor="middle" x="1058" y="-12.6492" font-family="Times,serif" font-size="9.00">0</text>
</g>
<!-- &#45;1&#45;&gt;0 -->
<g id="edge10" class="edge"><title>&#45;1&#45;&gt;0</title>
<path fill="none" stroke="red" stroke-width="0.138814" d="M724.218,-158.524C796.918,-154.467 1169.92,-132.833 1186,-115.196 1200.82,-98.9374 1198.42,-83.8585 1186,-65.6985 1162.98,-32.0346 1113.6,-21.1017 1083.35,-17.5529"/>
<polygon fill="red" stroke="red" stroke-width="0.138814" points="1083.45,-14.0457 1073.15,-16.5511 1082.76,-21.0122 1083.45,-14.0457"/>
</g>
<!-- 1 -->
<g id="node26" class="node"><title>1</title>
<ellipse fill="lightblue" stroke="black" cx="824" cy="-14.8492" rx="14.7" ry="14.7"/>
<text text-anchor="middle" x="824" y="-12.6492" font-family="Times,serif" font-size="9.00">1</text>
</g>
<!-- &#45;1&#45;&gt;1 -->
<g id="edge12" class="edge"><title>&#45;1&#45;&gt;1</title>
<path fill="none" stroke="red" stroke-width="0.531974" d="M724.243,-158.664C748.393,-156.875 801.829,-149.084 825,-115.196 840.311,-92.8039 836.433,-60.4313 831.164,-38.7912"/>
<polygon fill="red" stroke="red" stroke-width="0.531974" points="834.537,-37.8573 828.544,-29.1207 827.781,-39.6881 834.537,-37.8573"/>
</g>
<!-- 3 -->
<g id="node28" class="node"><title>3</title>
<ellipse fill="lightblue" stroke="black" cx="425" cy="-14.8492" rx="14.7" ry="14.7"/>
<text text-anchor="middle" x="425" y="-12.6492" font-family="Times,serif" font-size="9.00">3</text>
</g>
<!-- &#45;1&#45;&gt;3 -->
<g id="edge43" class="edge"><title>&#45;1&#45;&gt;3</title>
<path fill="none" stroke="green" stroke-width="0.10063" d="M699.72,-156.717C677.743,-151.811 630.996,-139.202 599,-115.196 576.816,-98.5514 583.35,-82.1206 561,-65.6985 526.859,-40.6118 478.752,-26.9546 449.848,-20.5484"/>
<polygon fill="green" stroke="green" stroke-width="0.10063" points="450.285,-17.064 439.78,-18.4394 448.85,-23.9153 450.285,-17.064"/>
</g>
<!-- 3760 -->
<g id="node30" class="node"><title>3760</title>
<ellipse fill="white" stroke="black" cx="105" cy="-90.4472" rx="25" ry="25"/>
<text text-anchor="middle" x="105" y="-88.2472" font-family="Times,serif" font-size="9.00">3760</text>
</g>
<!-- &#45;1&#45;&gt;3760 -->
<g id="edge35" class="edge"><title>&#45;1&#45;&gt;3760</title>
<path fill="none" stroke="green" stroke-width="0.239637" d="M699.798,-159.252C641.188,-159.301 382.953,-157.016 177,-115.196 163.798,-112.515 149.645,-108.182 137.411,-103.947"/>
<polygon fill="green" stroke="green" stroke-width="0.239637" points="138.243,-100.527 127.648,-100.45 135.882,-107.117 138.243,-100.527"/>
</g>
<!-- &#45;2 -->
<g id="node2" class="node"><title>&#45;2</title>
<polygon fill="lightgray" stroke="black" points="552,-99.4472 528,-99.4472 528,-81.4472 552,-81.4472 552,-99.4472"/>
<text text-anchor="middle" x="540" y="-88.2472" font-family="Times,serif" font-size="9.00">&#45;2</text>
</g>
<!-- &#45;2&#45;&gt;0 -->
<g id="edge2" class="edge"><title>&#45;2&#45;&gt;0</title>
<path fill="none" stroke="red" stroke-width="0.432156" d="M552.326,-83.3228C564.037,-77.787 582.291,-69.8837 599,-65.6985 682.715,-44.7298 950.348,-23.7671 1033.27,-17.6361"/>
<polygon fill="red" stroke="red" stroke-width="0.432156" points="1033.57,-21.1235 1043.29,-16.9013 1033.06,-14.1422 1033.57,-21.1235"/>
</g>
<!-- 2 -->
<g id="node27" class="node"><title>2</title>
<ellipse fill="lightblue" stroke="black" cx="201" cy="-14.8492" rx="14.7" ry="14.7"/>
<text text-anchor="middle" x="201" y="-12.6492" font-family="Times,serif" font-size="9.00">2</text>
</g>
<!-- &#45;2&#45;&gt;2 -->
<g id="edge31" class="edge"><title>&#45;2&#45;&gt;2</title>
<path fill="none" stroke="red" stroke-width="0.238736" stroke-dasharray="1,5" d="M534.476,-81.0549C530.532,-75.7721 524.745,-69.2943 518,-65.6985 467.229,-38.6313 292.022,-22.7905 226.231,-17.6808"/>
<polygon fill="red" stroke="red" stroke-width="0.238736" points="226.192,-14.1679 215.956,-16.9016 225.663,-21.1479 226.192,-14.1679"/>
</g>
<!-- &#45;3 -->
<g id="node3" class="node"><title>&#45;3</title>
<polygon fill="lightgray" stroke="black" points="24,-99.4472 0,-99.4472 0,-81.4472 24,-81.4472 24,-99.4472"/>
<text text-anchor="middle" x="12" y="-88.2472" font-family="Times,serif" font-size="9.00">&#45;3</text>
</g>
<!-- &#45;3&#45;&gt;2 -->
<g id="edge21" class="edge"><title>&#45;3&#45;&gt;2</title>
<path fill="none" stroke="red" stroke-width="0.142939" stroke-dasharray="1,5" d="M19.0225,-81.4006C23.8919,-76.2638 30.7784,-69.8188 38,-65.6985 83.0306,-40.0062 142.767,-26.1327 175.992,-19.9343"/>
<polygon fill="red" stroke="red" stroke-width="0.142939" points="176.951,-23.3186 186.183,-18.1205 175.725,-16.4269 176.951,-23.3186"/>
</g>
<!-- &#45;4 -->
<g id="node4" class="node"><title>&#45;4</title>
<polygon fill="lightgray" stroke="black" points="816,-99.4472 792,-99.4472 792,-81.4472 816,-81.4472 816,-99.4472"/>
<text text-anchor="middle" x="804" y="-88.2472" font-family="Times,serif" font-size="9.00">&#45;4</text>
</g>
<!-- &#45;4&#45;&gt;0 -->
<g id="edge36" class="edge"><title>&#45;4&#45;&gt;0</title>
<path fill="none" stroke="red" stroke-width="0.215304" stroke-dasharray="1,5" d="M816.03,-84.058C827.832,-78.9019 846.42,-71.128 863,-65.6985 923.448,-45.9027 996.525,-29.0548 1033.71,-20.9714"/>
<polygon fill="red" stroke="red" stroke-width="0.215304" points="1034.58,-24.3635 1043.62,-18.8394 1033.11,-17.5199 1034.58,-24.3635"/>
</g>
<!-- &#45;4&#45;&gt;1 -->
<g id="edge48" class="edge"><title>&#45;4&#45;&gt;1</title>
<path fill="none" stroke="green" stroke-width="0.366132" stroke-dasharray="1,5" d="M806.217,-81.2897C808.967,-71.1707 813.771,-53.4899 817.694,-39.0555"/>
<polygon fill="green" stroke="green" stroke-width="0.366132" points="821.107,-39.8412 820.352,-29.2734 814.352,-38.0055 821.107,-39.8412"/>
</g>
<!-- &#45;4&#45;&gt;3 -->
<g id="edge18" class="edge"><title>&#45;4&#45;&gt;3</title>
<path fill="none" stroke="red" stroke-width="0.308352" stroke-dasharray="1,5" d="M798.831,-81.0178C795.11,-75.7193 789.595,-69.238 783,-65.6985 725.004,-34.5738 521.665,-20.9858 450.127,-17.0937"/>
<polygon fill="red" stroke="red" stroke-width="0.308352" points="449.989,-13.5817 439.819,-16.5511 449.621,-20.572 449.989,-13.5817"/>
</g>
<!-- &#45;5 -->
<g id="node5" class="node"><title>&#45;5</title>
<polygon fill="lightgray" stroke="black" points="774,-99.4472 750,-99.4472 750,-81.4472 774,-81.4472 774,-99.4472"/>
<text text-anchor="middle" x="762" y="-88.2472" font-family="Times,serif" font-size="9.00">&#45;5</text>
</g>
<!-- &#45;5&#45;&gt;0 -->
<g id="edge28" class="edge"><title>&#45;5&#45;&gt;0</title>
<path fill="none" stroke="red" stroke-width="1.66844" d="M767.218,-81.1064C770.959,-75.8453 776.479,-69.3724 783,-65.6985 865.708,-19.1051 982.615,-14.6136 1033.14,-15.0856"/>
<polygon fill="red" stroke="red" stroke-width="1.66844" points="1033.09,-18.5852 1043.15,-15.255 1033.21,-11.5863 1033.09,-18.5852"/>
</g>
<!-- &#45;5&#45;&gt;3 -->
<g id="edge39" class="edge"><title>&#45;5&#45;&gt;3</title>
<path fill="none" stroke="green" stroke-width="0.208759" d="M756.475,-81.0571C752.531,-75.7752 746.743,-69.2976 740,-65.6985 689.554,-38.7734 515.45,-22.8454 450.072,-17.6967"/>
<polygon fill="green" stroke="green" stroke-width="0.208759" points="450.101,-14.1887 439.862,-16.9113 449.564,-21.1681 450.101,-14.1887"/>
</g>
<!-- &#45;6 -->
<g id="node6" class="node"><title>&#45;6</title>
<polygon fill="lightgray" stroke="black" points="91,-169.196 67,-169.196 67,-151.196 91,-151.196 91,-169.196"/>
<text text-anchor="middle" x="79" y="-157.996" font-family="Times,serif" font-size="9.00">&#45;6</text>
</g>
<!-- &#45;6&#45;&gt;2 -->
<g id="edge9" class="edge"><title>&#45;6&#45;&gt;2</title>
<path fill="none" stroke="green" stroke-width="0.25256" d="M75.1399,-151.066C67.5046,-133.674 52.7246,-92.2792 71,-65.6985 94.5398,-31.4609 145.078,-20.7267 175.745,-17.369"/>
<polygon fill="green" stroke="green" stroke-width="0.25256" points="176.414,-20.8229 186.058,-16.4359 175.783,-13.8514 176.414,-20.8229"/>
</g>
<!-- &#45;6&#45;&gt;3760 -->
<g id="edge8" class="edge"><title>&#45;6&#45;&gt;3760</title>
<path fill="none" stroke="red" stroke-width="0.222583" stroke-dasharray="1,5" d="M82.0846,-151.158C84.7829,-144.127 88.8843,-133.44 92.8752,-123.041"/>
<polygon fill="red" stroke="red" stroke-width="0.222583" points="96.1505,-124.275 96.4658,-113.685 89.6152,-121.767 96.1505,-124.275"/>
</g>
<!-- &#45;7 -->
<g id="node7" class="node"><title>&#45;7</title>
<polygon fill="lightgray" stroke="black" points="935,-169.196 911,-169.196 911,-151.196 935,-151.196 935,-169.196"/>
<text text-anchor="middle" x="923" y="-157.996" font-family="Times,serif" font-size="9.00">&#45;7</text>
</g>
<!-- &#45;7&#45;&gt;1 -->
<g id="edge49" class="edge"><title>&#45;7&#45;&gt;1</title>
<path fill="none" stroke="red" stroke-width="0.13521" stroke-dasharray="1,5" d="M926.716,-151.162C934.07,-133.955 948.337,-92.9009 931,-65.6985 912.978,-37.4207 874.282,-24.9263 848.702,-19.5913"/>
<polygon fill="red" stroke="red" stroke-width="0.13521" points="849.112,-16.1076 838.641,-17.718 847.831,-22.9893 849.112,-16.1076"/>
</g>
<!-- 4875 -->
<g id="node29" class="node"><title>4875</title>
<ellipse fill="white" stroke="black" cx="897" cy="-90.4472" rx="25" ry="25"/>
<text text-anchor="middle" x="897" y="-88.2472" font-family="Times,serif" font-size="9.00">4875</text>
</g>
<!-- &#45;7&#45;&gt;4875 -->
<g id="edge13" class="edge"><title>&#45;7&#45;&gt;4875</title>
<path fill="none" stroke="red" stroke-width="0.467626" d="M919.915,-151.158C917.217,-144.127 913.116,-133.44 909.125,-123.041"/>
<polygon fill="red" stroke="red" stroke-width="0.467626" points="912.385,-121.767 905.534,-113.685 905.85,-124.275 912.385,-121.767"/>
</g>
<!-- &#45;8 -->
<g id="node8" class="node"><title>&#45;8</title>
<polygon fill="lightgray" stroke="black" points="1002,-99.4472 978,-99.4472 978,-81.4472 1002,-81.4472 1002,-99.4472"/>
<text text-anchor="middle" x="990" y="-88.2472" font-family="Times,serif" font-size="9.00">&#45;8</text>
</g>
<!-- &#45;8&#45;&gt;0 -->
<g id="edge50" class="edge"><title>&#45;8&#45;&gt;0</title>
<path fill="none" stroke="red" stroke-width="0.747277" stroke-dasharray="1,5" d="M997.322,-81.0362C1001.33,-76.4676 1006.4,-70.7382 1011,-65.6985 1020.9,-54.8563 1032.18,-42.8801 1041.21,-33.3842"/>
<polygon fill="red" stroke="red" stroke-width="0.747277" points="1043.81,-35.7231 1048.18,-26.0705 1038.75,-30.8926 1043.81,-35.7231"/>
</g>
<!-- &#45;8&#45;&gt;1 -->
<g id="edge7" class="edge"><title>&#45;8&#45;&gt;1</title>
<path fill="none" stroke="red" stroke-width="0.172209" stroke-dasharray="1,5" d="M982.478,-81.055C977.613,-76.0394 970.917,-69.8552 964,-65.6985 926.547,-43.1906 877.374,-28.6459 848.381,-21.3792"/>
<polygon fill="red" stroke="red" stroke-width="0.172209" points="848.867,-17.8958 838.324,-18.9491 847.223,-24.7 848.867,-17.8958"/>
</g>
<!-- &#45;9 -->
<g id="node9" class="node"><title>&#45;9</title>
<polygon fill="lightgray" stroke="black" points="1262,-99.4472 1238,-99.4472 1238,-81.4472 1262,-81.4472 1262,-99.4472"/>
<text text-anchor="middle" x="1250" y="-88.2472" font-family="Times,serif" font-size="9.00">&#45;9</text>
</g>
<!-- &#45;9&#45;&gt;0 -->
<g id="edge34" class="edge"><title>&#45;9&#45;&gt;0</title>
<path fill="none" stroke="red" stroke-width="0.99089" d="M1242.98,-81.3886C1238.12,-76.2466 1231.23,-69.8005 1224,-65.6985 1177.71,-39.4424 1116.15,-25.6725 1082.51,-19.668"/>
<polygon fill="red" stroke="red" stroke-width="0.99089" points="1083.07,-16.2131 1072.63,-17.9854 1081.9,-23.1139 1083.07,-16.2131"/>
</g>
<!-- &#45;10 -->
<g id="node10" class="node"><title>&#45;10</title>
<polygon fill="lightgray" stroke="black" points="1309.5,-99.4472 1280.5,-99.4472 1280.5,-81.4472 1309.5,-81.4472 1309.5,-99.4472"/>
<text text-anchor="middle" x="1295" y="-88.2472" font-family="Times,serif" font-size="9.00">&#45;10</text>
</g>
<!-- &#45;10&#45;&gt;0 -->
<g id="edge24" class="edge"><title>&#45;10&#45;&gt;0</title>
<path fill="none" stroke="green" stroke-width="0.338765" d="M1288.72,-81.2271C1284.31,-76.017 1277.98,-69.5555 1271,-65.6985 1209.06,-31.4576 1124.43,-20.6524 1082.97,-17.3075"/>
<polygon fill="green" stroke="green" stroke-width="0.338765" points="1083.16,-13.8123 1072.93,-16.5781 1082.65,-20.7939 1083.16,-13.8123"/>
</g>
<!-- &#45;11 -->
<g id="node11" class="node"><title>&#45;11</title>
<polygon fill="lightgray" stroke="black" points="215.5,-99.4472 186.5,-99.4472 186.5,-81.4472 215.5,-81.4472 215.5,-99.4472"/>
<text text-anchor="middle" x="201" y="-88.2472" font-family="Times,serif" font-size="9.00">&#45;11</text>
</g>
<!-- &#45;11&#45;&gt;2 -->
<g id="edge46" class="edge"><title>&#45;11&#45;&gt;2</title>
<path fill="none" stroke="green" stroke-width="0.252708" d="M201,-81.2897C201,-71.3882 201,-54.2466 201,-39.9908"/>
<polygon fill="green" stroke="green" stroke-width="0.252708" points="204.5,-39.8196 201,-29.8196 197.5,-39.8196 204.5,-39.8196"/>
</g>
<!-- &#45;11&#45;&gt;3 -->
<g id="edge32" class="edge"><title>&#45;11&#45;&gt;3</title>
<path fill="none" stroke="red" stroke-width="0.276473" d="M206.964,-81.2514C211.166,-76.0516 217.235,-69.5924 224,-65.6985 281.392,-32.6657 360.245,-21.3613 399.97,-17.6184"/>
<polygon fill="red" stroke="red" stroke-width="0.276473" points="400.422,-21.0926 410.086,-16.7515 399.824,-14.1182 400.422,-21.0926"/>
</g>
<!-- &#45;12 -->
<g id="node12" class="node"><title>&#45;12</title>
<polygon fill="lightgray" stroke="black" points="637.5,-99.4472 608.5,-99.4472 608.5,-81.4472 637.5,-81.4472 637.5,-99.4472"/>
<text text-anchor="middle" x="623" y="-88.2472" font-family="Times,serif" font-size="9.00">&#45;12</text>
</g>
<!-- &#45;12&#45;&gt;1 -->
<g id="edge16" class="edge"><title>&#45;12&#45;&gt;1</title>
<path fill="none" stroke="green" stroke-width="0.682562" d="M629.003,-81.3179C633.222,-76.1461 639.294,-69.6933 646,-65.6985 695.473,-36.2288 763.043,-23.5805 799.035,-18.6508"/>
<polygon fill="green" stroke="green" stroke-width="0.682562" points="799.661,-22.0993 809.136,-17.3586 798.773,-15.1559 799.661,-22.0993"/>
</g>
<!-- &#45;13 -->
<g id="node13" class="node"><title>&#45;13</title>
<polygon fill="lightgray" stroke="black" points="982.5,-169.196 953.5,-169.196 953.5,-151.196 982.5,-151.196 982.5,-169.196"/>
<text text-anchor="middle" x="968" y="-157.996" font-family="Times,serif" font-size="9.00">&#45;13</text>
</g>
<!-- &#45;14 -->
<g id="node14" class="node"><title>&#45;14</title>
<polygon fill="lightgray" stroke="black" points="356.5,-99.4472 327.5,-99.4472 327.5,-81.4472 356.5,-81.4472 356.5,-99.4472"/>
<text text-anchor="middle" x="342" y="-88.2472" font-family="Times,serif" font-size="9.00">&#45;14</text>
</g>
<!-- &#45;14&#45;&gt;1 -->
<g id="edge52" class="edge"><title>&#45;14&#45;&gt;1</title>
<path fill="none" stroke="red" stroke-width="0.208625" d="M347.441,-81.4121C351.579,-76 357.781,-69.2283 365,-65.6985 442.528,-27.7883 714.383,-18.3845 798.8,-16.3534"/>
<polygon fill="red" stroke="red" stroke-width="0.208625" points="799.084,-19.848 809.002,-16.1225 798.925,-12.8498 799.084,-19.848"/>
</g>
<!-- &#45;14&#45;&gt;2 -->
<g id="edge15" class="edge"><title>&#45;14&#45;&gt;2</title>
<path fill="none" stroke="green" stroke-width="0.410616" d="M335.083,-81.1659C330.603,-76.1919 324.423,-70.0127 318,-65.6985 288.33,-45.7705 249.402,-31.113 224.787,-23.0286"/>
<polygon fill="green" stroke="green" stroke-width="0.410616" points="225.773,-19.6695 215.182,-19.97 223.649,-26.3395 225.773,-19.6695"/>
</g>
<!-- &#45;14&#45;&gt;3 -->
<g id="edge30" class="edge"><title>&#45;14&#45;&gt;3</title>
<path fill="none" stroke="green" stroke-width="0.548737" d="M349.458,-81.318C353.861,-76.6292 359.611,-70.692 365,-65.6985 378.109,-53.551 393.647,-40.6806 405.627,-31.0606"/>
<polygon fill="green" stroke="green" stroke-width="0.548737" points="407.99,-33.653 413.635,-24.6871 403.631,-28.176 407.99,-33.653"/>
</g>
<!-- &#45;15 -->
<g id="node15" class="node"><title>&#45;15</title>
<polygon fill="lightgray" stroke="black" points="684.5,-99.4472 655.5,-99.4472 655.5,-81.4472 684.5,-81.4472 684.5,-99.4472"/>
<text text-anchor="middle" x="670" y="-88.2472" font-family="Times,serif" font-size="9.00">&#45;15</text>
</g>
<!-- &#45;15&#45;&gt;1 -->
<g id="edge17" class="edge"><title>&#45;15&#45;&gt;1</title>
<path fill="none" stroke="red" stroke-width="0.257952" d="M676.508,-81.0629C680.756,-76.0502 686.673,-69.8664 693,-65.6985 726.906,-43.3626 772.263,-28.9664 799.741,-21.6485"/>
<polygon fill="red" stroke="red" stroke-width="0.257952" points="800.85,-24.9774 809.67,-19.1064 799.114,-18.1961 800.85,-24.9774"/>
</g>
<!-- &#45;16 -->
<g id="node16" class="node"><title>&#45;16</title>
<polygon fill="lightgray" stroke="black" points="731.5,-99.4472 702.5,-99.4472 702.5,-81.4472 731.5,-81.4472 731.5,-99.4472"/>
<text text-anchor="middle" x="717" y="-88.2472" font-family="Times,serif" font-size="9.00">&#45;16</text>
</g>
<!-- &#45;16&#45;&gt;1 -->
<g id="edge33" class="edge"><title>&#45;16&#45;&gt;1</title>
<path fill="none" stroke="green" stroke-width="0.353731" d="M724.556,-81.0253C729.075,-76.2389 735.075,-70.3017 741,-65.6985 760.307,-50.6988 784.469,-36.6515 801.736,-27.3166"/>
<polygon fill="green" stroke="green" stroke-width="0.353731" points="803.823,-30.1714 811.017,-22.3933 800.543,-23.9876 803.823,-30.1714"/>
</g>
<!-- &#45;17 -->
<g id="node17" class="node"><title>&#45;17</title>
<polygon fill="lightgray" stroke="black" points="1049.5,-99.4472 1020.5,-99.4472 1020.5,-81.4472 1049.5,-81.4472 1049.5,-99.4472"/>
<text text-anchor="middle" x="1035" y="-88.2472" font-family="Times,serif" font-size="9.00">&#45;17</text>
</g>
<!-- &#45;17&#45;&gt;0 -->
<g id="edge5" class="edge"><title>&#45;17&#45;&gt;0</title>
<path fill="none" stroke="red" stroke-width="0.432149" stroke-dasharray="1,5" d="M1037.55,-81.2897C1040.71,-71.1707 1046.24,-53.4899 1050.75,-39.0555"/>
<polygon fill="red" stroke="red" stroke-width="0.432149" points="1054.16,-39.8621 1053.8,-29.2734 1047.48,-37.7741 1054.16,-39.8621"/>
</g>
<!-- &#45;17&#45;&gt;1 -->
<g id="edge47" class="edge"><title>&#45;17&#45;&gt;1</title>
<path fill="none" stroke="red" stroke-width="0.627418" d="M1028.68,-81.2972C1024.26,-76.1167 1017.92,-69.6619 1011,-65.6985 958.066,-35.3677 886.146,-22.9849 848.803,-18.3485"/>
<polygon fill="red" stroke="red" stroke-width="0.627418" points="849.143,-14.8645 838.807,-17.1921 848.338,-21.8182 849.143,-14.8645"/>
</g>
<!-- &#45;18 -->
<g id="node18" class="node"><title>&#45;18</title>
<polygon fill="lightgray" stroke="black" points="439.5,-169.196 410.5,-169.196 410.5,-151.196 439.5,-151.196 439.5,-169.196"/>
<text text-anchor="middle" x="425" y="-157.996" font-family="Times,serif" font-size="9.00">&#45;18</text>
</g>
<!-- &#45;18&#45;&gt;0 -->
<g id="edge27" class="edge"><title>&#45;18&#45;&gt;0</title>
<path fill="none" stroke="red" stroke-width="0.193489" stroke-dasharray="1,5" d="M439.597,-158.589C541.289,-154.331 1140.29,-128.694 1153,-115.196 1168.08,-99.178 1164.38,-84.5242 1153,-65.6985 1137.78,-40.5177 1105.16,-27.4317 1082.42,-21.1024"/>
<polygon fill="red" stroke="red" stroke-width="0.193489" points="1083.02,-17.6436 1072.47,-18.5824 1081.3,-24.4296 1083.02,-17.6436"/>
</g>
<!-- &#45;18&#45;&gt;2 -->
<g id="edge25" class="edge"><title>&#45;18&#45;&gt;2</title>
<path fill="none" stroke="green" stroke-width="0.461372" stroke-dasharray="1,5" d="M410.278,-158.944C361.596,-157.77 207.197,-151.222 177,-115.196 158.15,-92.7073 173.67,-57.8153 187.02,-35.9298"/>
<polygon fill="green" stroke="green" stroke-width="0.461372" points="190.028,-37.7227 192.502,-27.4207 184.144,-33.9315 190.028,-37.7227"/>
</g>
<!-- &#45;18&#45;&gt;3 -->
<g id="edge37" class="edge"><title>&#45;18&#45;&gt;3</title>
<path fill="none" stroke="red" stroke-width="0.14986" d="M426.914,-151.146C428.895,-142.369 431.856,-127.878 433,-115.196 434.976,-93.286 434.748,-87.6278 433,-65.6985 432.322,-57.1932 431.003,-47.9485 429.628,-39.7565"/>
<polygon fill="red" stroke="red" stroke-width="0.14986" points="433.044,-38.9724 427.838,-29.7444 426.153,-40.2043 433.044,-38.9724"/>
</g>
<!-- 4626 -->
<g id="node31" class="node"><title>4626</title>
<ellipse fill="white" stroke="black" cx="399" cy="-90.4472" rx="25" ry="25"/>
<text text-anchor="middle" x="399" y="-88.2472" font-family="Times,serif" font-size="9.00">4626</text>
</g>
<!-- &#45;18&#45;&gt;4626 -->
<g id="edge4" class="edge"><title>&#45;18&#45;&gt;4626</title>
<path fill="none" stroke="red" stroke-width="0.323747" d="M421.915,-151.158C419.217,-144.127 415.116,-133.44 411.125,-123.041"/>
<polygon fill="red" stroke="red" stroke-width="0.323747" points="414.385,-121.767 407.534,-113.685 407.85,-124.275 414.385,-121.767"/>
</g>
<!-- &#45;19 -->
<g id="node19" class="node"><title>&#45;19</title>
<polygon fill="lightgray" stroke="black" points="1096.5,-99.4472 1067.5,-99.4472 1067.5,-81.4472 1096.5,-81.4472 1096.5,-99.4472"/>
<text text-anchor="middle" x="1082" y="-88.2472" font-family="Times,serif" font-size="9.00">&#45;19</text>
</g>
<!-- &#45;19&#45;&gt;0 -->
<g id="edge40" class="edge"><title>&#45;19&#45;&gt;0</title>
<path fill="none" stroke="green" stroke-width="0.213806" d="M1079.34,-81.2897C1076.04,-71.1707 1070.27,-53.4899 1065.57,-39.0555"/>
<polygon fill="green" stroke="green" stroke-width="0.213806" points="1068.81,-37.6955 1062.38,-29.2734 1062.15,-39.8658 1068.81,-37.6955"/>
</g>
<!-- &#45;19&#45;&gt;1 -->
<g id="edge29" class="edge"><title>&#45;19&#45;&gt;1</title>
<path fill="none" stroke="green" stroke-width="0.11189" d="M1076.08,-81.1751C1071.9,-75.943 1065.83,-69.4766 1059,-65.6985 989.714,-27.3763 893.952,-18.4779 849.087,-16.4381"/>
<polygon fill="green" stroke="green" stroke-width="0.11189" points="849.196,-12.9398 839.071,-16.0607 848.932,-19.9348 849.196,-12.9398"/>
</g>
<!-- &#45;20 -->
<g id="node20" class="node"><title>&#45;20</title>
<polygon fill="lightgray" stroke="black" points="309.5,-99.4472 280.5,-99.4472 280.5,-81.4472 309.5,-81.4472 309.5,-99.4472"/>
<text text-anchor="middle" x="295" y="-88.2472" font-family="Times,serif" font-size="9.00">&#45;20</text>
</g>
<!-- &#45;20&#45;&gt;1 -->
<g id="edge42" class="edge"><title>&#45;20&#45;&gt;1</title>
<path fill="none" stroke="red" stroke-width="0.351288" stroke-dasharray="1,5" d="M300.43,-81.3899C304.563,-75.9673 310.764,-69.1923 318,-65.6985 404.42,-23.9734 709.058,-17.1657 798.89,-16.0615"/>
<polygon fill="red" stroke="red" stroke-width="0.351288" points="799.016,-19.5604 808.977,-15.951 798.94,-12.5609 799.016,-19.5604"/>
</g>
<!-- &#45;20&#45;&gt;2 -->
<g id="edge1" class="edge"><title>&#45;20&#45;&gt;2</title>
<path fill="none" stroke="green" stroke-width="0.31071" stroke-dasharray="1,5" d="M287.306,-81.1958C282.741,-76.4663 276.741,-70.5291 271,-65.6985 255.267,-52.4611 236.187,-39.0296 221.923,-29.4491"/>
<polygon fill="green" stroke="green" stroke-width="0.31071" points="223.598,-26.3597 213.329,-23.7503 219.729,-32.1937 223.598,-26.3597"/>
</g>
<!-- &#45;21 -->
<g id="node21" class="node"><title>&#45;21</title>
<polygon fill="lightgray" stroke="black" points="509.5,-99.4472 480.5,-99.4472 480.5,-81.4472 509.5,-81.4472 509.5,-99.4472"/>
<text text-anchor="middle" x="495" y="-88.2472" font-family="Times,serif" font-size="9.00">&#45;21</text>
</g>
<!-- &#45;21&#45;&gt;0 -->
<g id="edge19" class="edge"><title>&#45;21&#45;&gt;0</title>
<path fill="none" stroke="green" stroke-width="1.57997" d="M500.736,-81.3734C505.081,-75.9431 511.562,-69.1656 519,-65.6985 542.627,-54.6852 930.314,-25.3074 1033.13,-17.6794"/>
<polygon fill="green" stroke="green" stroke-width="1.57997" points="1033.49,-21.1625 1043.21,-16.9342 1032.98,-14.1816 1033.49,-21.1625"/>
</g>
<!-- &#45;21&#45;&gt;2 -->
<g id="edge44" class="edge"><title>&#45;21&#45;&gt;2</title>
<path fill="none" stroke="green" stroke-width="0.457091" stroke-dasharray="1,5" d="M480.438,-83.1362C468.011,-77.9288 449.574,-70.6214 433,-65.6985 358.706,-43.6313 268.319,-27.0772 225.611,-19.8501"/>
<polygon fill="green" stroke="green" stroke-width="0.457091" points="226.024,-16.3707 215.584,-18.1774 224.872,-23.2753 226.024,-16.3707"/>
</g>
<!-- &#45;22 -->
<g id="node22" class="node"><title>&#45;22</title>
<polygon fill="lightgray" stroke="black" points="262.5,-99.4472 233.5,-99.4472 233.5,-81.4472 262.5,-81.4472 262.5,-99.4472"/>
<text text-anchor="middle" x="248" y="-88.2472" font-family="Times,serif" font-size="9.00">&#45;22</text>
</g>
<!-- &#45;22&#45;&gt;1 -->
<g id="edge22" class="edge"><title>&#45;22&#45;&gt;1</title>
<path fill="none" stroke="red" stroke-width="0.194459" d="M253.421,-81.3713C257.55,-75.9401 263.749,-69.1622 271,-65.6985 319.102,-42.7196 696.975,-22.2323 798.799,-17.0879"/>
<polygon fill="red" stroke="red" stroke-width="0.194459" points="799.242,-20.5702 809.054,-16.5748 798.892,-13.579 799.242,-20.5702"/>
</g>
<!-- &#45;22&#45;&gt;2 -->
<g id="edge41" class="edge"><title>&#45;22&#45;&gt;2</title>
<path fill="none" stroke="green" stroke-width="0.357538" stroke-dasharray="1,5" d="M242.791,-81.2897C235.903,-70.504 223.529,-51.1274 214.027,-36.248"/>
<polygon fill="green" stroke="green" stroke-width="0.357538" points="216.888,-34.226 208.556,-27.6817 210.989,-37.9935 216.888,-34.226"/>
</g>
<!-- &#45;22&#45;&gt;3 -->
<g id="edge51" class="edge"><title>&#45;22&#45;&gt;3</title>
<path fill="none" stroke="green" stroke-width="0.166273" stroke-dasharray="1,5" d="M254.056,-81.4058C258.298,-76.2711 264.375,-69.8266 271,-65.6985 312.39,-39.9081 368.432,-26.1764 400.242,-20.006"/>
<polygon fill="green" stroke="green" stroke-width="0.166273" points="401.218,-23.3851 410.419,-18.1314 399.95,-16.5009 401.218,-23.3851"/>
</g>
<!-- &#45;23 -->
<g id="node23" class="node"><title>&#45;23</title>
<polygon fill="lightgray" stroke="black" points="1029.5,-169.196 1000.5,-169.196 1000.5,-151.196 1029.5,-151.196 1029.5,-169.196"/>
<text text-anchor="middle" x="1015" y="-157.996" font-family="Times,serif" font-size="9.00">&#45;23</text>
</g>
<!-- &#45;24 -->
<g id="node24" class="node"><title>&#45;24</title>
<polygon fill="lightgray" stroke="black" points="1143.5,-99.4472 1114.5,-99.4472 1114.5,-81.4472 1143.5,-81.4472 1143.5,-99.4472"/>
<text text-anchor="middle" x="1129" y="-88.2472" font-family="Times,serif" font-size="9.00">&#45;24</text>
</g>
<!-- &#45;24&#45;&gt;0 -->
<g id="edge45" class="edge"><title>&#45;24&#45;&gt;0</title>
<path fill="none" stroke="green" stroke-width="0.946296" d="M1121.13,-81.2897C1110.06,-69.8163 1089.62,-48.6215 1074.99,-33.4601"/>
<polygon fill="green" stroke="green" stroke-width="0.946296" points="1077.41,-30.932 1067.95,-26.1651 1072.38,-35.7921 1077.41,-30.932"/>
</g>
<!-- &#45;24&#45;&gt;1 -->
<g id="edge3" class="edge"><title>&#45;24&#45;&gt;1</title>
<path fill="none" stroke="green" stroke-width="0.455023" stroke-dasharray="1,5" d="M1123.12,-81.098C1118.95,-75.8334 1112.89,-69.3597 1106,-65.6985 1020.09,-20.0766 900.788,-15.0717 849.308,-15.2476"/>
<polygon fill="green" stroke="green" stroke-width="0.455023" points="849.074,-11.7498 839.111,-15.356 849.148,-18.7494 849.074,-11.7498"/>
</g>
<!-- 1&#45;&gt;1 -->
<g id="edge26" class="edge"><title>1&#45;&gt;1</title>
<path fill="none" stroke="red" stroke-width="0.29026" d="M834.428,-25.6755C845.039,-32.0439 856.849,-28.4352 856.849,-14.8492 856.849,-5.50891 851.267,-0.884351 844.33,-0.975566"/>
<polygon fill="red" stroke="red" stroke-width="0.29026" points="842.956,2.26363 834.428,-4.02295 845.015,-4.42672 842.956,2.26363"/>
</g>
<!-- 2&#45;&gt;2 -->
<g id="edge23" class="edge"><title>2&#45;&gt;2</title>
<path fill="none" stroke="green" stroke-width="0.29472" d="M211.428,-25.6755C222.039,-32.0439 233.849,-28.4352 233.849,-14.8492 233.849,-5.50891 228.267,-0.884351 221.33,-0.975566"/>
<polygon fill="green" stroke="green" stroke-width="0.29472" points="219.956,2.26363 211.428,-4.02295 222.015,-4.42672 219.956,2.26363"/>
</g>
<!-- 2&#45;&gt;3760 -->
<g id="edge11" class="edge"><title>2&#45;&gt;3760</title>
<path fill="none" stroke="green" stroke-width="0.343577" d="M191.667,-26.8179C178.308,-38.5969 153.959,-57.4989 134.358,-71.4598"/>
<polygon fill="green" stroke="green" stroke-width="0.343577" points="132.206,-68.6936 126.019,-77.294 136.219,-74.4293 132.206,-68.6936"/>
</g>
<!-- 3&#45;&gt;3 -->
<g id="edge14" class="edge"><title>3&#45;&gt;3</title>
<path fill="none" stroke="green" stroke-width="0.223202" d="M435.428,-25.6755C446.039,-32.0439 457.849,-28.4352 457.849,-14.8492 457.849,-5.50891 452.267,-0.884351 445.33,-0.975566"/>
<polygon fill="green" stroke="green" stroke-width="0.223202" points="443.956,2.26363 435.428,-4.02295 446.015,-4.42672 443.956,2.26363"/>
</g>
<!-- 4875&#45;&gt;1 -->
<g id="edge20" class="edge"><title>4875&#45;&gt;1</title>
<path fill="none" stroke="green" stroke-width="0.306268" d="M880.069,-72.3774C868.46,-60.6732 853.101,-45.1887 841.394,-33.3857"/>
<polygon fill="green" stroke="green" stroke-width="0.306268" points="843.831,-30.8731 834.304,-26.2379 838.862,-35.8026 843.831,-30.8731"/>
</g>
<!-- 3760&#45;&gt;2 -->
<g id="edge6" class="edge"><title>3760&#45;&gt;2</title>
<path fill="none" stroke="red" stroke-width="0.423989" d="M121.911,-72.0055C138.077,-58.5399 162.16,-40.24 179.631,-28.2427"/>
<polygon fill="red" stroke="red" stroke-width="0.423989" points="181.711,-31.0628 188.088,-22.6023 177.827,-25.2392 181.711,-31.0628"/>
</g>
<!-- 4626&#45;&gt;3 -->
<g id="edge38" class="edge"><title>4626&#45;&gt;3</title>
<path fill="none" stroke="green" stroke-width="0.222991" d="M406.942,-66.9655C410.11,-57.997 413.754,-47.6843 416.934,-38.6813"/>
<polygon fill="green" stroke="green" stroke-width="0.222991" points="420.248,-39.8094 420.278,-29.2146 413.647,-37.4777 420.248,-39.8094"/>
</g>
</g>
</svg>
