<?xml version="1.0" encoding="UTF-8" standalone="no"?>
<!DOCTYPE svg PUBLIC "-//W3C//DTD SVG 1.1//EN"
 "http://www.w3.org/Graphics/SVG/1.1/DTD/svg11.dtd">
<!-- Generated by graphviz version 2.38.0 (20140413.2041)
 -->
<!-- Title: %3 Pages: 1 -->
<svg width="1217pt" height="445pt"
 viewBox="0.00 0.00 1216.60 445.39" xmlns="http://www.w3.org/2000/svg" xmlns:xlink="http://www.w3.org/1999/xlink">
<g id="graph0" class="graph" transform="scale(1 1) rotate(0) translate(4 441.387)">
<title>%3</title>
<polygon fill="white" stroke="none" points="-4,4 -4,-441.387 1212.6,-441.387 1212.6,4 -4,4"/>
<!-- &#45;1 -->
<g id="node1" class="node"><title>&#45;1</title>
<polygon fill="lightgray" stroke="black" points="380.749,-431.538 356.749,-431.538 356.749,-413.538 380.749,-413.538 380.749,-431.538"/>
<text text-anchor="middle" x="368.749" y="-420.338" font-family="Times,serif" font-size="9.00">&#45;1</text>
</g>
<!-- 6507 -->
<g id="node30" class="node"><title>6507</title>
<ellipse fill="white" stroke="black" cx="368.749" cy="-346.94" rx="25" ry="25"/>
<text text-anchor="middle" x="368.749" y="-344.74" font-family="Times,serif" font-size="9.00">6507</text>
</g>
<!-- &#45;1&#45;&gt;6507 -->
<g id="edge19" class="edge"><title>&#45;1&#45;&gt;6507</title>
<path fill="none" stroke="red" stroke-width="0.415468" d="M368.749,-413.38C368.749,-405.68 368.749,-393.602 368.749,-381.908"/>
<polygon fill="red" stroke="red" stroke-width="0.415468" points="372.249,-381.849 368.749,-371.849 365.249,-381.849 372.249,-381.849"/>
</g>
<!-- &#45;2 -->
<g id="node2" class="node"><title>&#45;2</title>
<polygon fill="lightgray" stroke="black" points="422.749,-431.538 398.749,-431.538 398.749,-413.538 422.749,-413.538 422.749,-431.538"/>
<text text-anchor="middle" x="410.749" y="-420.338" font-family="Times,serif" font-size="9.00">&#45;2</text>
</g>
<!-- &#45;3 -->
<g id="node3" class="node"><title>&#45;3</title>
<polygon fill="lightgray" stroke="black" points="36.7487,-355.94 12.7487,-355.94 12.7487,-337.94 36.7487,-337.94 36.7487,-355.94"/>
<text text-anchor="middle" x="24.7487" y="-344.74" font-family="Times,serif" font-size="9.00">&#45;3</text>
</g>
<!-- 2197 -->
<g id="node33" class="node"><title>2197</title>
<ellipse fill="white" stroke="black" cx="24.7487" cy="-261.442" rx="25" ry="25"/>
<text text-anchor="middle" x="24.7487" y="-259.242" font-family="Times,serif" font-size="9.00">2197</text>
</g>
<!-- &#45;3&#45;&gt;2197 -->
<g id="edge17" class="edge"><title>&#45;3&#45;&gt;2197</title>
<path fill="none" stroke="green" stroke-width="0.65721" d="M24.7487,-337.934C24.7487,-328.382 24.7487,-311.793 24.7487,-296.594"/>
<polygon fill="green" stroke="green" stroke-width="0.65721" points="28.2488,-296.397 24.7487,-286.397 21.2488,-296.397 28.2488,-296.397"/>
</g>
<!-- &#45;4 -->
<g id="node4" class="node"><title>&#45;4</title>
<polygon fill="lightgray" stroke="black" points="464.749,-431.538 440.749,-431.538 440.749,-413.538 464.749,-413.538 464.749,-431.538"/>
<text text-anchor="middle" x="452.749" y="-420.338" font-family="Times,serif" font-size="9.00">&#45;4</text>
</g>
<!-- &#45;5 -->
<g id="node5" class="node"><title>&#45;5</title>
<polygon fill="lightgray" stroke="black" points="132.749,-270.442 108.749,-270.442 108.749,-252.442 132.749,-252.442 132.749,-270.442"/>
<text text-anchor="middle" x="120.749" y="-259.242" font-family="Times,serif" font-size="9.00">&#45;5</text>
</g>
<!-- 2 -->
<g id="node27" class="node"><title>2</title>
<ellipse fill="lightblue" stroke="black" cx="120.749" cy="-175.945" rx="14.7" ry="14.7"/>
<text text-anchor="middle" x="120.749" y="-173.745" font-family="Times,serif" font-size="9.00">2</text>
</g>
<!-- &#45;5&#45;&gt;2 -->
<g id="edge22" class="edge"><title>&#45;5&#45;&gt;2</title>
<path fill="none" stroke="red" stroke-width="0.838791" d="M120.749,-252.436C120.749,-240.673 120.749,-218.235 120.749,-200.866"/>
<polygon fill="red" stroke="red" stroke-width="0.838791" points="124.249,-200.847 120.749,-190.847 117.249,-200.847 124.249,-200.847"/>
</g>
<!-- &#45;6 -->
<g id="node6" class="node"><title>&#45;6</title>
<polygon fill="lightgray" stroke="black" points="506.749,-431.538 482.749,-431.538 482.749,-413.538 506.749,-413.538 506.749,-431.538"/>
<text text-anchor="middle" x="494.749" y="-420.338" font-family="Times,serif" font-size="9.00">&#45;6</text>
</g>
<!-- &#45;7 -->
<g id="node7" class="node"><title>&#45;7</title>
<polygon fill="lightgray" stroke="black" points="308.749,-431.538 284.749,-431.538 284.749,-413.538 308.749,-413.538 308.749,-431.538"/>
<text text-anchor="middle" x="296.749" y="-420.338" font-family="Times,serif" font-size="9.00">&#45;7</text>
</g>
<!-- &#45;7&#45;&gt;6507 -->
<g id="edge3" class="edge"><title>&#45;7&#45;&gt;6507</title>
<path fill="none" stroke="green" stroke-width="0.466024" d="M304.729,-413.38C314.244,-403.654 330.593,-386.942 344.387,-372.842"/>
<polygon fill="green" stroke="green" stroke-width="0.466024" points="347.237,-374.933 351.728,-365.338 342.234,-370.038 347.237,-374.933"/>
</g>
<!-- 2831 -->
<g id="node32" class="node"><title>2831</title>
<ellipse fill="white" stroke="black" cx="195.749" cy="-90.4472" rx="25" ry="25"/>
<text text-anchor="middle" x="195.749" y="-88.2472" font-family="Times,serif" font-size="9.00">2831</text>
</g>
<!-- &#45;7&#45;&gt;2831 -->
<g id="edge7" class="edge"><title>&#45;7&#45;&gt;2831</title>
<path fill="none" stroke="green" stroke-width="0.871813" d="M297.466,-413.448C300.126,-379.341 306.941,-244.729 258.749,-151.196 250.65,-135.477 236.745,-121.618 224.056,-111.216"/>
<polygon fill="green" stroke="green" stroke-width="0.871813" points="226.001,-108.293 215.966,-104.894 221.69,-113.809 226.001,-108.293"/>
</g>
<!-- 4505 -->
<g id="node34" class="node"><title>4505</title>
<ellipse fill="white" stroke="black" cx="330.749" cy="-261.442" rx="25" ry="25"/>
<text text-anchor="middle" x="330.749" y="-259.242" font-family="Times,serif" font-size="9.00">4505</text>
</g>
<!-- &#45;7&#45;&gt;4505 -->
<g id="edge6" class="edge"><title>&#45;7&#45;&gt;4505</title>
<path fill="none" stroke="red" stroke-width="0.397453" d="M298.482,-413.429C303.046,-392.072 315.6,-333.329 323.636,-295.726"/>
<polygon fill="red" stroke="red" stroke-width="0.397453" points="327.105,-296.24 325.772,-285.729 320.259,-294.777 327.105,-296.24"/>
</g>
<!-- 5851 -->
<g id="node36" class="node"><title>5851</title>
<ellipse fill="white" stroke="black" cx="176.749" cy="-261.442" rx="25" ry="25"/>
<text text-anchor="middle" x="176.749" y="-259.242" font-family="Times,serif" font-size="9.00">5851</text>
</g>
<!-- &#45;7&#45;&gt;5851 -->
<g id="edge20" class="edge"><title>&#45;7&#45;&gt;5851</title>
<path fill="none" stroke="green" stroke-width="0.150025" d="M290.633,-413.429C273.698,-390.977 225.601,-327.21 197.624,-290.119"/>
<polygon fill="green" stroke="green" stroke-width="0.150025" points="200.126,-287.624 191.31,-281.748 194.538,-291.839 200.126,-287.624"/>
</g>
<!-- &#45;8 -->
<g id="node8" class="node"><title>&#45;8</title>
<polygon fill="lightgray" stroke="black" points="89.7487,-355.94 65.7487,-355.94 65.7487,-337.94 89.7487,-337.94 89.7487,-355.94"/>
<text text-anchor="middle" x="77.7487" y="-344.74" font-family="Times,serif" font-size="9.00">&#45;8</text>
</g>
<!-- 1 -->
<g id="node26" class="node"><title>1</title>
<ellipse fill="lightblue" stroke="black" cx="77.7487" cy="-14.8492" rx="14.7" ry="14.7"/>
<text text-anchor="middle" x="77.7487" y="-12.6492" font-family="Times,serif" font-size="9.00">1</text>
</g>
<!-- &#45;8&#45;&gt;1 -->
<g id="edge8" class="edge"><title>&#45;8&#45;&gt;1</title>
<path fill="none" stroke="green" stroke-width="0.732881" d="M77.7487,-337.78C77.7487,-296.213 77.7487,-107.346 77.7487,-39.8869"/>
<polygon fill="green" stroke="green" stroke-width="0.732881" points="81.2488,-39.7957 77.7487,-29.7957 74.2488,-39.7958 81.2488,-39.7957"/>
</g>
<!-- &#45;8&#45;&gt;2197 -->
<g id="edge11" class="edge"><title>&#45;8&#45;&gt;2197</title>
<path fill="none" stroke="green" stroke-width="0.194438" d="M72.6669,-337.934C65.9337,-327.326 53.6907,-308.038 43.2657,-291.614"/>
<polygon fill="green" stroke="green" stroke-width="0.194438" points="46.0217,-289.425 37.7076,-282.858 40.1118,-293.176 46.0217,-289.425"/>
</g>
<!-- &#45;8&#45;&gt;5851 -->
<g id="edge5" class="edge"><title>&#45;8&#45;&gt;5851</title>
<path fill="none" stroke="red" stroke-width="0.504084" d="M87.2413,-337.934C101.597,-325.826 129.361,-302.409 150.179,-284.851"/>
<polygon fill="red" stroke="red" stroke-width="0.504084" points="152.667,-287.331 158.055,-278.209 148.154,-281.98 152.667,-287.331"/>
</g>
<!-- &#45;9 -->
<g id="node9" class="node"><title>&#45;9</title>
<polygon fill="lightgray" stroke="black" points="548.749,-431.538 524.749,-431.538 524.749,-413.538 548.749,-413.538 548.749,-431.538"/>
<text text-anchor="middle" x="536.749" y="-420.338" font-family="Times,serif" font-size="9.00">&#45;9</text>
</g>
<!-- &#45;10 -->
<g id="node10" class="node"><title>&#45;10</title>
<polygon fill="lightgray" stroke="black" points="596.249,-431.538 567.249,-431.538 567.249,-413.538 596.249,-413.538 596.249,-431.538"/>
<text text-anchor="middle" x="581.749" y="-420.338" font-family="Times,serif" font-size="9.00">&#45;10</text>
</g>
<!-- &#45;11 -->
<g id="node11" class="node"><title>&#45;11</title>
<polygon fill="lightgray" stroke="black" points="248.249,-270.442 219.249,-270.442 219.249,-252.442 248.249,-252.442 248.249,-270.442"/>
<text text-anchor="middle" x="233.749" y="-259.242" font-family="Times,serif" font-size="9.00">&#45;11</text>
</g>
<!-- 6074 -->
<g id="node35" class="node"><title>6074</title>
<ellipse fill="white" stroke="black" cx="224.749" cy="-175.945" rx="25" ry="25"/>
<text text-anchor="middle" x="224.749" y="-173.745" font-family="Times,serif" font-size="9.00">6074</text>
</g>
<!-- &#45;11&#45;&gt;6074 -->
<g id="edge4" class="edge"><title>&#45;11&#45;&gt;6074</title>
<path fill="none" stroke="green" stroke-width="0.12782" d="M232.886,-252.436C231.856,-242.885 230.068,-226.295 228.43,-211.096"/>
<polygon fill="green" stroke="green" stroke-width="0.12782" points="231.882,-210.467 227.331,-200.9 224.923,-211.217 231.882,-210.467"/>
</g>
<!-- &#45;12 -->
<g id="node12" class="node"><title>&#45;12</title>
<polygon fill="lightgray" stroke="black" points="643.249,-431.538 614.249,-431.538 614.249,-413.538 643.249,-413.538 643.249,-431.538"/>
<text text-anchor="middle" x="628.749" y="-420.338" font-family="Times,serif" font-size="9.00">&#45;12</text>
</g>
<!-- &#45;13 -->
<g id="node13" class="node"><title>&#45;13</title>
<polygon fill="lightgray" stroke="black" points="690.249,-431.538 661.249,-431.538 661.249,-413.538 690.249,-413.538 690.249,-431.538"/>
<text text-anchor="middle" x="675.749" y="-420.338" font-family="Times,serif" font-size="9.00">&#45;13</text>
</g>
<!-- &#45;14 -->
<g id="node14" class="node"><title>&#45;14</title>
<polygon fill="lightgray" stroke="black" points="182.249,-184.945 153.249,-184.945 153.249,-166.945 182.249,-166.945 182.249,-184.945"/>
<text text-anchor="middle" x="167.749" y="-173.745" font-family="Times,serif" font-size="9.00">&#45;14</text>
</g>
<!-- &#45;14&#45;&gt;2831 -->
<g id="edge15" class="edge"><title>&#45;14&#45;&gt;2831</title>
<path fill="none" stroke="green" stroke-width="0.285716" d="M170.433,-166.939C173.735,-157.094 179.543,-139.774 184.764,-124.206"/>
<polygon fill="green" stroke="green" stroke-width="0.285716" points="188.216,-124.918 188.077,-114.324 181.58,-122.692 188.216,-124.918"/>
</g>
<!-- &#45;15 -->
<g id="node15" class="node"><title>&#45;15</title>
<polygon fill="lightgray" stroke="black" points="737.249,-431.538 708.249,-431.538 708.249,-413.538 737.249,-413.538 737.249,-431.538"/>
<text text-anchor="middle" x="722.749" y="-420.338" font-family="Times,serif" font-size="9.00">&#45;15</text>
</g>
<!-- &#45;16 -->
<g id="node16" class="node"><title>&#45;16</title>
<polygon fill="lightgray" stroke="black" points="191.249,-431.538 162.249,-431.538 162.249,-413.538 191.249,-413.538 191.249,-431.538"/>
<text text-anchor="middle" x="176.749" y="-420.338" font-family="Times,serif" font-size="9.00">&#45;16</text>
</g>
<!-- 7854 -->
<g id="node31" class="node"><title>7854</title>
<ellipse fill="white" stroke="black" cx="176.749" cy="-346.94" rx="25" ry="25"/>
<text text-anchor="middle" x="176.749" y="-344.74" font-family="Times,serif" font-size="9.00">7854</text>
</g>
<!-- &#45;16&#45;&gt;7854 -->
<g id="edge9" class="edge"><title>&#45;16&#45;&gt;7854</title>
<path fill="none" stroke="green" stroke-width="0.284222" d="M176.749,-413.38C176.749,-405.68 176.749,-393.602 176.749,-381.908"/>
<polygon fill="green" stroke="green" stroke-width="0.284222" points="180.249,-381.849 176.749,-371.849 173.249,-381.849 180.249,-381.849"/>
</g>
<!-- &#45;17 -->
<g id="node17" class="node"><title>&#45;17</title>
<polygon fill="lightgray" stroke="black" points="784.249,-431.538 755.249,-431.538 755.249,-413.538 784.249,-413.538 784.249,-431.538"/>
<text text-anchor="middle" x="769.749" y="-420.338" font-family="Times,serif" font-size="9.00">&#45;17</text>
</g>
<!-- &#45;18 -->
<g id="node18" class="node"><title>&#45;18</title>
<polygon fill="lightgray" stroke="black" points="831.249,-431.538 802.249,-431.538 802.249,-413.538 831.249,-413.538 831.249,-431.538"/>
<text text-anchor="middle" x="816.749" y="-420.338" font-family="Times,serif" font-size="9.00">&#45;18</text>
</g>
<!-- &#45;19 -->
<g id="node19" class="node"><title>&#45;19</title>
<polygon fill="lightgray" stroke="black" points="878.249,-431.538 849.249,-431.538 849.249,-413.538 878.249,-413.538 878.249,-431.538"/>
<text text-anchor="middle" x="863.749" y="-420.338" font-family="Times,serif" font-size="9.00">&#45;19</text>
</g>
<!-- &#45;20 -->
<g id="node20" class="node"><title>&#45;20</title>
<polygon fill="lightgray" stroke="black" points="925.249,-431.538 896.249,-431.538 896.249,-413.538 925.249,-413.538 925.249,-431.538"/>
<text text-anchor="middle" x="910.749" y="-420.338" font-family="Times,serif" font-size="9.00">&#45;20</text>
</g>
<!-- &#45;21 -->
<g id="node21" class="node"><title>&#45;21</title>
<polygon fill="lightgray" stroke="black" points="972.249,-431.538 943.249,-431.538 943.249,-413.538 972.249,-413.538 972.249,-431.538"/>
<text text-anchor="middle" x="957.749" y="-420.338" font-family="Times,serif" font-size="9.00">&#45;21</text>
</g>
<!-- &#45;22 -->
<g id="node22" class="node"><title>&#45;22</title>
<polygon fill="lightgray" stroke="black" points="1019.25,-431.538 990.249,-431.538 990.249,-413.538 1019.25,-413.538 1019.25,-431.538"/>
<text text-anchor="middle" x="1004.75" y="-420.338" font-family="Times,serif" font-size="9.00">&#45;22</text>
</g>
<!-- &#45;23 -->
<g id="node23" class="node"><title>&#45;23</title>
<polygon fill="lightgray" stroke="black" points="1066.25,-431.538 1037.25,-431.538 1037.25,-413.538 1066.25,-413.538 1066.25,-431.538"/>
<text text-anchor="middle" x="1051.75" y="-420.338" font-family="Times,serif" font-size="9.00">&#45;23</text>
</g>
<!-- &#45;24 -->
<g id="node24" class="node"><title>&#45;24</title>
<polygon fill="lightgray" stroke="black" points="1113.25,-431.538 1084.25,-431.538 1084.25,-413.538 1113.25,-413.538 1113.25,-431.538"/>
<text text-anchor="middle" x="1098.75" y="-420.338" font-family="Times,serif" font-size="9.00">&#45;24</text>
</g>
<!-- 0 -->
<g id="node25" class="node"><title>0</title>
<ellipse fill="lightblue" stroke="black" cx="1145.75" cy="-422.538" rx="14.7" ry="14.7"/>
<text text-anchor="middle" x="1145.75" y="-420.338" font-family="Times,serif" font-size="9.00">0</text>
</g>
<!-- 2&#45;&gt;2831 -->
<g id="edge21" class="edge"><title>2&#45;&gt;2831</title>
<path fill="none" stroke="green" stroke-width="0.338727" d="M130.248,-164.37C140.884,-152.528 158.503,-132.913 172.79,-117.007"/>
<polygon fill="green" stroke="green" stroke-width="0.338727" points="175.412,-119.326 179.491,-109.547 170.205,-114.648 175.412,-119.326"/>
</g>
<!-- 3 -->
<g id="node28" class="node"><title>3</title>
<ellipse fill="lightblue" stroke="black" cx="1193.75" cy="-422.538" rx="14.7" ry="14.7"/>
<text text-anchor="middle" x="1193.75" y="-420.338" font-family="Times,serif" font-size="9.00">3</text>
</g>
<!-- 8579 -->
<g id="node29" class="node"><title>8579</title>
<ellipse fill="white" stroke="black" cx="330.749" cy="-175.945" rx="25" ry="25"/>
<text text-anchor="middle" x="330.749" y="-173.745" font-family="Times,serif" font-size="9.00">8579</text>
</g>
<!-- 8579&#45;&gt;2831 -->
<g id="edge2" class="edge"><title>8579&#45;&gt;2831</title>
<path fill="none" stroke="red" stroke-width="1.20373" d="M309.951,-162.081C287.191,-148.004 250.538,-125.334 224.912,-109.485"/>
<polygon fill="red" stroke="red" stroke-width="1.20373" points="226.695,-106.472 216.349,-104.188 223.012,-112.425 226.695,-106.472"/>
</g>
<!-- 6507&#45;&gt;4505 -->
<g id="edge14" class="edge"><title>6507&#45;&gt;4505</title>
<path fill="none" stroke="red" stroke-width="0.338887" d="M358.765,-324.002C354.532,-314.701 349.522,-303.693 344.918,-293.576"/>
<polygon fill="red" stroke="red" stroke-width="0.338887" points="347.994,-291.886 340.666,-284.234 341.623,-294.785 347.994,-291.886"/>
</g>
<!-- 7854&#45;&gt;5851 -->
<g id="edge12" class="edge"><title>7854&#45;&gt;5851</title>
<path fill="none" stroke="red" stroke-width="1.27766" d="M176.749,-321.789C176.749,-313.845 176.749,-304.86 176.749,-296.33"/>
<polygon fill="red" stroke="red" stroke-width="1.27766" points="180.249,-296.25 176.749,-286.25 173.249,-296.251 180.249,-296.25"/>
</g>
<!-- 2831&#45;&gt;1 -->
<g id="edge10" class="edge"><title>2831&#45;&gt;1</title>
<path fill="none" stroke="red" stroke-width="0.50283" d="M175.195,-76.6274C153.798,-63.2818 120.451,-42.4834 98.8524,-29.0119"/>
<polygon fill="red" stroke="red" stroke-width="0.50283" points="100.449,-25.8829 90.1121,-23.5604 96.7448,-31.8223 100.449,-25.8829"/>
</g>
<!-- 2197&#45;&gt;1 -->
<g id="edge16" class="edge"><title>2197&#45;&gt;1</title>
<path fill="none" stroke="green" stroke-width="0.780014" d="M28.859,-236.934C35.4152,-200.204 49.012,-127.054 63.7487,-65.6985 65.8448,-56.9715 68.4355,-47.4692 70.8161,-39.1238"/>
<polygon fill="green" stroke="green" stroke-width="0.780014" points="74.2362,-39.8966 73.6661,-29.3171 67.5143,-37.943 74.2362,-39.8966"/>
</g>
<!-- 4505&#45;&gt;8579 -->
<g id="edge18" class="edge"><title>4505&#45;&gt;8579</title>
<path fill="none" stroke="green" stroke-width="0.331077" d="M330.749,-236.291C330.749,-228.347 330.749,-219.363 330.749,-210.832"/>
<polygon fill="green" stroke="green" stroke-width="0.331077" points="334.249,-210.753 330.749,-200.753 327.249,-210.753 334.249,-210.753"/>
</g>
<!-- 6074&#45;&gt;2831 -->
<g id="edge1" class="edge"><title>6074&#45;&gt;2831</title>
<path fill="none" stroke="green" stroke-width="0.233266" d="M216.824,-152.129C213.762,-143.313 210.204,-133.068 206.893,-123.534"/>
<polygon fill="green" stroke="green" stroke-width="0.233266" points="210.15,-122.245 203.563,-113.947 203.538,-124.541 210.15,-122.245"/>
</g>
<!-- 5851&#45;&gt;6074 -->
<g id="edge13" class="edge"><title>5851&#45;&gt;6074</title>
<path fill="none" stroke="green" stroke-width="0.875583" d="M188.861,-239.372C194.589,-229.408 201.526,-217.341 207.768,-206.483"/>
<polygon fill="green" stroke="green" stroke-width="0.875583" points="210.857,-208.133 212.806,-197.719 204.788,-204.644 210.857,-208.133"/>
</g>
</g>
</svg>
