<?xml version="1.0" encoding="UTF-8" standalone="no"?>
<!DOCTYPE svg PUBLIC "-//W3C//DTD SVG 1.1//EN"
 "http://www.w3.org/Graphics/SVG/1.1/DTD/svg11.dtd">
<!-- Generated by graphviz version 2.38.0 (20140413.2041)
 -->
<!-- Title: %3 Pages: 1 -->
<svg width="681pt" height="348pt"
 viewBox="0.00 0.00 680.50 348.19" xmlns="http://www.w3.org/2000/svg" xmlns:xlink="http://www.w3.org/1999/xlink">
<g id="graph0" class="graph" transform="scale(1 1) rotate(0) translate(4 344.191)">
<title>%3</title>
<polygon fill="white" stroke="none" points="-4,4 -4,-344.191 676.5,-344.191 676.5,4 -4,4"/>
<!-- &#45;1 -->
<g id="node1" class="node"><title>&#45;1</title>
<polygon fill="lightgray" stroke="black" points="271.5,-270.442 247.5,-270.442 247.5,-252.442 271.5,-252.442 271.5,-270.442"/>
<text text-anchor="middle" x="259.5" y="-259.242" font-family="Times,serif" font-size="9.00">&#45;1</text>
</g>
<!-- 1 -->
<g id="node26" class="node"><title>1</title>
<ellipse fill="lightblue" stroke="black" cx="183.5" cy="-175.945" rx="14.7" ry="14.7"/>
<text text-anchor="middle" x="183.5" y="-173.745" font-family="Times,serif" font-size="9.00">1</text>
</g>
<!-- &#45;1&#45;&gt;1 -->
<g id="edge11" class="edge"><title>&#45;1&#45;&gt;1</title>
<path fill="none" stroke="red" stroke-width="0.208247" d="M252.154,-252.053C248.142,-247.491 243.072,-241.761 238.5,-236.693 225.762,-222.575 211.179,-206.748 200.232,-194.932"/>
<polygon fill="red" stroke="red" stroke-width="0.208247" points="202.668,-192.413 193.301,-187.463 197.537,-197.174 202.668,-192.413"/>
</g>
<!-- 3 -->
<g id="node28" class="node"><title>3</title>
<ellipse fill="lightblue" stroke="black" cx="405.5" cy="-90.4472" rx="14.7" ry="14.7"/>
<text text-anchor="middle" x="405.5" y="-88.2472" font-family="Times,serif" font-size="9.00">3</text>
</g>
<!-- &#45;1&#45;&gt;3 -->
<g id="edge30" class="edge"><title>&#45;1&#45;&gt;3</title>
<path fill="none" stroke="red" stroke-width="0.404252" d="M266.542,-252.291C288.69,-226.655 357.34,-147.192 389.089,-110.443"/>
<polygon fill="red" stroke="red" stroke-width="0.404252" points="392.081,-112.334 395.97,-102.478 386.784,-107.757 392.081,-112.334"/>
</g>
<!-- 5548 -->
<g id="node30" class="node"><title>5548</title>
<ellipse fill="white" stroke="black" cx="259.5" cy="-175.945" rx="25" ry="25"/>
<text text-anchor="middle" x="259.5" y="-173.745" font-family="Times,serif" font-size="9.00">5548</text>
</g>
<!-- &#45;1&#45;&gt;5548 -->
<g id="edge2" class="edge"><title>&#45;1&#45;&gt;5548</title>
<path fill="none" stroke="red" stroke-width="0.264852" d="M259.5,-252.436C259.5,-242.885 259.5,-226.295 259.5,-211.096"/>
<polygon fill="red" stroke="red" stroke-width="0.264852" points="263,-210.9 259.5,-200.9 256,-210.9 263,-210.9"/>
</g>
<!-- &#45;2 -->
<g id="node2" class="node"><title>&#45;2</title>
<polygon fill="lightgray" stroke="black" points="455.5,-270.442 431.5,-270.442 431.5,-252.442 455.5,-252.442 455.5,-270.442"/>
<text text-anchor="middle" x="443.5" y="-259.242" font-family="Times,serif" font-size="9.00">&#45;2</text>
</g>
<!-- 0 -->
<g id="node25" class="node"><title>0</title>
<ellipse fill="lightblue" stroke="black" cx="485.5" cy="-175.945" rx="14.7" ry="14.7"/>
<text text-anchor="middle" x="485.5" y="-173.745" font-family="Times,serif" font-size="9.00">0</text>
</g>
<!-- &#45;2&#45;&gt;0 -->
<g id="edge9" class="edge"><title>&#45;2&#45;&gt;0</title>
<path fill="none" stroke="red" stroke-width="0.396637" d="M447.527,-252.436C453.694,-240.175 465.695,-216.318 474.562,-198.691"/>
<polygon fill="red" stroke="red" stroke-width="0.396637" points="477.741,-200.158 479.108,-189.652 471.488,-197.012 477.741,-200.158"/>
</g>
<!-- &#45;3 -->
<g id="node3" class="node"><title>&#45;3</title>
<polygon fill="lightgray" stroke="black" points="285.5,-340.191 261.5,-340.191 261.5,-322.191 285.5,-322.191 285.5,-340.191"/>
<text text-anchor="middle" x="273.5" y="-328.991" font-family="Times,serif" font-size="9.00">&#45;3</text>
</g>
<!-- &#45;4 -->
<g id="node4" class="node"><title>&#45;4</title>
<polygon fill="lightgray" stroke="black" points="327.5,-340.191 303.5,-340.191 303.5,-322.191 327.5,-322.191 327.5,-340.191"/>
<text text-anchor="middle" x="315.5" y="-328.991" font-family="Times,serif" font-size="9.00">&#45;4</text>
</g>
<!-- &#45;5 -->
<g id="node5" class="node"><title>&#45;5</title>
<polygon fill="lightgray" stroke="black" points="672.5,-270.442 648.5,-270.442 648.5,-252.442 672.5,-252.442 672.5,-270.442"/>
<text text-anchor="middle" x="660.5" y="-259.242" font-family="Times,serif" font-size="9.00">&#45;5</text>
</g>
<!-- &#45;5&#45;&gt;0 -->
<g id="edge22" class="edge"><title>&#45;5&#45;&gt;0</title>
<path fill="none" stroke="red" stroke-width="1.5846" d="M654.688,-252.047C650.858,-247.03 645.461,-240.846 639.5,-236.693 617.668,-221.486 546.578,-196.934 509.106,-184.573"/>
<polygon fill="red" stroke="red" stroke-width="1.5846" points="510.091,-181.212 499.498,-181.428 507.913,-187.865 510.091,-181.212"/>
</g>
<!-- 5611 -->
<g id="node31" class="node"><title>5611</title>
<ellipse fill="white" stroke="black" cx="601.5" cy="-175.945" rx="25" ry="25"/>
<text text-anchor="middle" x="601.5" y="-173.745" font-family="Times,serif" font-size="9.00">5611</text>
</g>
<!-- &#45;5&#45;&gt;5611 -->
<g id="edge36" class="edge"><title>&#45;5&#45;&gt;5611</title>
<path fill="none" stroke="green" stroke-width="0.293889" d="M654.843,-252.436C647.18,-241.591 633.106,-221.673 621.338,-205.019"/>
<polygon fill="green" stroke="green" stroke-width="0.293889" points="624.069,-202.82 615.44,-196.673 618.353,-206.86 624.069,-202.82"/>
</g>
<!-- &#45;6 -->
<g id="node6" class="node"><title>&#45;6</title>
<polygon fill="lightgray" stroke="black" points="246.5,-99.4472 222.5,-99.4472 222.5,-81.4472 246.5,-81.4472 246.5,-99.4472"/>
<text text-anchor="middle" x="234.5" y="-88.2472" font-family="Times,serif" font-size="9.00">&#45;6</text>
</g>
<!-- 2 -->
<g id="node27" class="node"><title>2</title>
<ellipse fill="lightblue" stroke="black" cx="179.5" cy="-14.8492" rx="14.7" ry="14.7"/>
<text text-anchor="middle" x="179.5" y="-12.6492" font-family="Times,serif" font-size="9.00">2</text>
</g>
<!-- &#45;6&#45;&gt;2 -->
<g id="edge33" class="edge"><title>&#45;6&#45;&gt;2</title>
<path fill="none" stroke="red" stroke-width="0.520582" d="M228.404,-81.2897C220.174,-70.2771 205.251,-50.3083 194.047,-35.3151"/>
<polygon fill="red" stroke="red" stroke-width="0.520582" points="196.748,-33.0827 187.958,-27.1675 191.141,-37.2731 196.748,-33.0827"/>
</g>
<!-- &#45;7 -->
<g id="node7" class="node"><title>&#45;7</title>
<polygon fill="lightgray" stroke="black" points="191.5,-340.191 167.5,-340.191 167.5,-322.191 191.5,-322.191 191.5,-340.191"/>
<text text-anchor="middle" x="179.5" y="-328.991" font-family="Times,serif" font-size="9.00">&#45;7</text>
</g>
<!-- &#45;7&#45;&gt;1 -->
<g id="edge35" class="edge"><title>&#45;7&#45;&gt;1</title>
<path fill="none" stroke="red" stroke-width="0.717339" d="M177.347,-322.157C175.119,-313.393 171.788,-298.913 170.5,-286.191 168.284,-264.304 168.148,-258.566 170.5,-236.693 171.794,-224.661 174.513,-211.496 177.132,-200.594"/>
<polygon fill="red" stroke="red" stroke-width="0.717339" points="180.608,-201.124 179.661,-190.572 173.821,-199.412 180.608,-201.124"/>
</g>
<!-- 4875 -->
<g id="node29" class="node"><title>4875</title>
<ellipse fill="white" stroke="black" cx="204.5" cy="-261.442" rx="25" ry="25"/>
<text text-anchor="middle" x="204.5" y="-259.242" font-family="Times,serif" font-size="9.00">4875</text>
</g>
<!-- &#45;7&#45;&gt;4875 -->
<g id="edge12" class="edge"><title>&#45;7&#45;&gt;4875</title>
<path fill="none" stroke="green" stroke-width="0.355754" d="M182.466,-322.153C185.014,-315.247 188.864,-304.814 192.637,-294.59"/>
<polygon fill="green" stroke="green" stroke-width="0.355754" points="196.007,-295.568 196.185,-284.975 189.44,-293.145 196.007,-295.568"/>
</g>
<!-- &#45;8 -->
<g id="node8" class="node"><title>&#45;8</title>
<polygon fill="lightgray" stroke="black" points="369.5,-340.191 345.5,-340.191 345.5,-322.191 369.5,-322.191 369.5,-340.191"/>
<text text-anchor="middle" x="357.5" y="-328.991" font-family="Times,serif" font-size="9.00">&#45;8</text>
</g>
<!-- &#45;9 -->
<g id="node9" class="node"><title>&#45;9</title>
<polygon fill="lightgray" stroke="black" points="497.5,-270.442 473.5,-270.442 473.5,-252.442 497.5,-252.442 497.5,-270.442"/>
<text text-anchor="middle" x="485.5" y="-259.242" font-family="Times,serif" font-size="9.00">&#45;9</text>
</g>
<!-- &#45;9&#45;&gt;0 -->
<g id="edge27" class="edge"><title>&#45;9&#45;&gt;0</title>
<path fill="none" stroke="red" stroke-width="0.920665" d="M485.5,-252.436C485.5,-240.673 485.5,-218.235 485.5,-200.866"/>
<polygon fill="red" stroke="red" stroke-width="0.920665" points="489,-200.847 485.5,-190.847 482,-200.847 489,-200.847"/>
</g>
<!-- &#45;10 -->
<g id="node10" class="node"><title>&#45;10</title>
<polygon fill="lightgray" stroke="black" points="243,-340.191 214,-340.191 214,-322.191 243,-322.191 243,-340.191"/>
<text text-anchor="middle" x="228.5" y="-328.991" font-family="Times,serif" font-size="9.00">&#45;10</text>
</g>
<!-- &#45;10&#45;&gt;0 -->
<g id="edge8" class="edge"><title>&#45;10&#45;&gt;0</title>
<path fill="none" stroke="green" stroke-width="0.382629" d="M243.102,-324.857C246.177,-323.866 249.422,-322.916 252.5,-322.191 307.991,-309.124 469.124,-329.238 506.5,-286.191 527.963,-261.472 511.798,-221.594 498.424,-197.467"/>
<polygon fill="green" stroke="green" stroke-width="0.382629" points="501.406,-195.634 493.34,-188.764 495.362,-199.164 501.406,-195.634"/>
</g>
<!-- &#45;10&#45;&gt;4875 -->
<g id="edge20" class="edge"><title>&#45;10&#45;&gt;4875</title>
<path fill="none" stroke="green" stroke-width="0.147253" d="M225.653,-322.153C223.206,-315.247 219.51,-304.814 215.888,-294.59"/>
<polygon fill="green" stroke="green" stroke-width="0.147253" points="219.121,-293.232 212.482,-284.975 212.522,-295.57 219.121,-293.232"/>
</g>
<!-- &#45;11 -->
<g id="node11" class="node"><title>&#45;11</title>
<polygon fill="lightgray" stroke="black" points="294,-99.4472 265,-99.4472 265,-81.4472 294,-81.4472 294,-99.4472"/>
<text text-anchor="middle" x="279.5" y="-88.2472" font-family="Times,serif" font-size="9.00">&#45;11</text>
</g>
<!-- &#45;11&#45;&gt;2 -->
<g id="edge32" class="edge"><title>&#45;11&#45;&gt;2</title>
<path fill="none" stroke="red" stroke-width="0.9277" d="M271.874,-81.1127C267.333,-76.3555 261.333,-70.4183 255.5,-65.6985 238.13,-51.6423 216.721,-37.8835 201.058,-28.3942"/>
<polygon fill="red" stroke="red" stroke-width="0.9277" points="202.516,-25.1888 192.135,-23.0729 198.931,-31.2009 202.516,-25.1888"/>
</g>
<!-- &#45;12 -->
<g id="node12" class="node"><title>&#45;12</title>
<polygon fill="lightgray" stroke="black" points="76,-270.442 47,-270.442 47,-252.442 76,-252.442 76,-270.442"/>
<text text-anchor="middle" x="61.5" y="-259.242" font-family="Times,serif" font-size="9.00">&#45;12</text>
</g>
<!-- &#45;12&#45;&gt;1 -->
<g id="edge14" class="edge"><title>&#45;12&#45;&gt;1</title>
<path fill="none" stroke="green" stroke-width="0.127071" d="M68.6886,-251.999C73.0015,-247.206 78.7515,-241.268 84.5,-236.693 109.044,-217.16 140.508,-199.212 161.302,-188.192"/>
<polygon fill="green" stroke="green" stroke-width="0.127071" points="163.057,-191.224 170.308,-183.498 159.822,-185.016 163.057,-191.224"/>
</g>
<!-- &#45;13 -->
<g id="node13" class="node"><title>&#45;13</title>
<polygon fill="lightgray" stroke="black" points="417,-340.191 388,-340.191 388,-322.191 417,-322.191 417,-340.191"/>
<text text-anchor="middle" x="402.5" y="-328.991" font-family="Times,serif" font-size="9.00">&#45;13</text>
</g>
<!-- &#45;14 -->
<g id="node14" class="node"><title>&#45;14</title>
<polygon fill="lightgray" stroke="black" points="397,-184.945 368,-184.945 368,-166.945 397,-166.945 397,-184.945"/>
<text text-anchor="middle" x="382.5" y="-173.745" font-family="Times,serif" font-size="9.00">&#45;14</text>
</g>
<!-- &#45;14&#45;&gt;3 -->
<g id="edge24" class="edge"><title>&#45;14&#45;&gt;3</title>
<path fill="none" stroke="red" stroke-width="0.277689" d="M384.705,-166.939C387.964,-155.108 394.197,-132.479 398.993,-115.069"/>
<polygon fill="red" stroke="red" stroke-width="0.277689" points="402.472,-115.617 401.754,-105.047 395.724,-113.758 402.472,-115.617"/>
</g>
<!-- &#45;15 -->
<g id="node15" class="node"><title>&#45;15</title>
<polygon fill="lightgray" stroke="black" points="29,-270.442 0,-270.442 0,-252.442 29,-252.442 29,-270.442"/>
<text text-anchor="middle" x="14.5" y="-259.242" font-family="Times,serif" font-size="9.00">&#45;15</text>
</g>
<!-- &#45;15&#45;&gt;1 -->
<g id="edge15" class="edge"><title>&#45;15&#45;&gt;1</title>
<path fill="none" stroke="green" stroke-width="0.294658" d="M21.0446,-252.113C25.3064,-247.121 31.2253,-240.94 37.5,-236.693 76.6594,-210.194 129.403,-192.262 159.598,-183.395"/>
<polygon fill="green" stroke="green" stroke-width="0.294658" points="160.621,-186.743 169.279,-180.637 158.703,-180.011 160.621,-186.743"/>
</g>
<!-- 3760 -->
<g id="node32" class="node"><title>3760</title>
<ellipse fill="white" stroke="black" cx="179.5" cy="-90.4472" rx="25" ry="25"/>
<text text-anchor="middle" x="179.5" y="-88.2472" font-family="Times,serif" font-size="9.00">3760</text>
</g>
<!-- &#45;15&#45;&gt;3760 -->
<g id="edge6" class="edge"><title>&#45;15&#45;&gt;3760</title>
<path fill="none" stroke="red" stroke-width="0.201685" d="M22.58,-252.08C26.9852,-247.526 32.5366,-241.794 37.5,-236.693 78.8138,-194.235 127.053,-144.956 155.338,-116.09"/>
<polygon fill="red" stroke="red" stroke-width="0.201685" points="157.924,-118.452 162.424,-108.86 152.925,-113.553 157.924,-118.452"/>
</g>
<!-- &#45;16 -->
<g id="node16" class="node"><title>&#45;16</title>
<polygon fill="lightgray" stroke="black" points="319,-270.442 290,-270.442 290,-252.442 319,-252.442 319,-270.442"/>
<text text-anchor="middle" x="304.5" y="-259.242" font-family="Times,serif" font-size="9.00">&#45;16</text>
</g>
<!-- &#45;16&#45;&gt;0 -->
<g id="edge34" class="edge"><title>&#45;16&#45;&gt;0</title>
<path fill="none" stroke="green" stroke-width="0.923359" d="M310.51,-252.324C314.731,-247.158 320.804,-240.706 327.5,-236.693 377.458,-206.757 401.271,-226.465 453.5,-200.693 458.068,-198.44 462.655,-195.518 466.873,-192.499"/>
<polygon fill="green" stroke="green" stroke-width="0.923359" points="469.085,-195.213 474.886,-186.348 464.823,-189.66 469.085,-195.213"/>
</g>
<!-- &#45;16&#45;&gt;1 -->
<g id="edge26" class="edge"><title>&#45;16&#45;&gt;1</title>
<path fill="none" stroke="green" stroke-width="0.441419" d="M296.924,-252.045C292.399,-247.267 286.399,-241.33 280.5,-236.693 267.389,-226.389 229.468,-203.738 205.107,-189.475"/>
<polygon fill="green" stroke="green" stroke-width="0.441419" points="206.614,-186.302 196.212,-184.287 203.087,-192.349 206.614,-186.302"/>
</g>
<!-- &#45;17 -->
<g id="node17" class="node"><title>&#45;17</title>
<polygon fill="lightgray" stroke="black" points="366,-270.442 337,-270.442 337,-252.442 366,-252.442 366,-270.442"/>
<text text-anchor="middle" x="351.5" y="-259.242" font-family="Times,serif" font-size="9.00">&#45;17</text>
</g>
<!-- &#45;17&#45;&gt;0 -->
<g id="edge3" class="edge"><title>&#45;17&#45;&gt;0</title>
<path fill="none" stroke="red" stroke-width="0.141432" d="M358.104,-252.199C362.388,-247.239 368.31,-241.062 374.5,-236.693 406.026,-214.447 420.268,-220.3 453.5,-200.693 457.703,-198.214 462.019,-195.298 466.066,-192.374"/>
<polygon fill="red" stroke="red" stroke-width="0.141432" points="468.473,-194.943 474.351,-186.128 464.259,-189.354 468.473,-194.943"/>
</g>
<!-- &#45;17&#45;&gt;1 -->
<g id="edge7" class="edge"><title>&#45;17&#45;&gt;1</title>
<path fill="none" stroke="red" stroke-width="0.249821" d="M344.677,-252.016C340.233,-246.987 334.057,-240.802 327.5,-236.693 286.762,-211.169 269.258,-220.601 225.5,-200.693 218.533,-197.524 211.189,-193.591 204.624,-189.844"/>
<polygon fill="red" stroke="red" stroke-width="0.249821" points="206.093,-186.648 195.698,-184.598 202.546,-192.683 206.093,-186.648"/>
</g>
<!-- &#45;18 -->
<g id="node18" class="node"><title>&#45;18</title>
<polygon fill="lightgray" stroke="black" points="444,-184.945 415,-184.945 415,-166.945 444,-166.945 444,-184.945"/>
<text text-anchor="middle" x="429.5" y="-173.745" font-family="Times,serif" font-size="9.00">&#45;18</text>
</g>
<!-- &#45;18&#45;&gt;3 -->
<g id="edge28" class="edge"><title>&#45;18&#45;&gt;3</title>
<path fill="none" stroke="green" stroke-width="0.419928" d="M427.199,-166.939C423.798,-155.108 417.294,-132.479 412.29,-115.069"/>
<polygon fill="green" stroke="green" stroke-width="0.419928" points="415.535,-113.691 409.409,-105.047 408.808,-115.625 415.535,-113.691"/>
</g>
<!-- &#45;19 -->
<g id="node19" class="node"><title>&#45;19</title>
<polygon fill="lightgray" stroke="black" points="413,-270.442 384,-270.442 384,-252.442 413,-252.442 413,-270.442"/>
<text text-anchor="middle" x="398.5" y="-259.242" font-family="Times,serif" font-size="9.00">&#45;19</text>
</g>
<!-- &#45;19&#45;&gt;0 -->
<g id="edge29" class="edge"><title>&#45;19&#45;&gt;0</title>
<path fill="none" stroke="red" stroke-width="0.400105" d="M406.898,-252.045C411.485,-247.481 417.279,-241.751 422.5,-236.693 437.421,-222.239 454.534,-206.032 467.156,-194.148"/>
<polygon fill="red" stroke="red" stroke-width="0.400105" points="469.844,-196.424 474.733,-187.025 465.05,-191.324 469.844,-196.424"/>
</g>
<!-- &#45;19&#45;&gt;1 -->
<g id="edge23" class="edge"><title>&#45;19&#45;&gt;1</title>
<path fill="none" stroke="red" stroke-width="0.324742" d="M392.213,-252.239C387.801,-247.035 381.463,-240.575 374.5,-236.693 314.995,-203.518 288.872,-225.7 225.5,-200.693 218.38,-197.884 210.992,-194.054 204.434,-190.291"/>
<polygon fill="red" stroke="red" stroke-width="0.324742" points="205.923,-187.102 195.548,-184.951 202.317,-193.102 205.923,-187.102"/>
</g>
<!-- &#45;20 -->
<g id="node20" class="node"><title>&#45;20</title>
<polygon fill="lightgray" stroke="black" points="137,-99.4472 108,-99.4472 108,-81.4472 137,-81.4472 137,-99.4472"/>
<text text-anchor="middle" x="122.5" y="-88.2472" font-family="Times,serif" font-size="9.00">&#45;20</text>
</g>
<!-- &#45;20&#45;&gt;2 -->
<g id="edge1" class="edge"><title>&#45;20&#45;&gt;2</title>
<path fill="none" stroke="red" stroke-width="0.466318" d="M128.818,-81.2897C137.347,-70.2771 152.812,-50.3083 164.424,-35.3151"/>
<polygon fill="red" stroke="red" stroke-width="0.466318" points="167.378,-37.2168 170.734,-27.1675 161.844,-32.9306 167.378,-37.2168"/>
</g>
<!-- &#45;21 -->
<g id="node21" class="node"><title>&#45;21</title>
<polygon fill="lightgray" stroke="black" points="583,-270.442 554,-270.442 554,-252.442 583,-252.442 583,-270.442"/>
<text text-anchor="middle" x="568.5" y="-259.242" font-family="Times,serif" font-size="9.00">&#45;21</text>
</g>
<!-- &#45;21&#45;&gt;0 -->
<g id="edge16" class="edge"><title>&#45;21&#45;&gt;0</title>
<path fill="none" stroke="green" stroke-width="1.58056" d="M560.542,-252.436C547.382,-239.198 520.783,-212.439 503.051,-194.601"/>
<polygon fill="green" stroke="green" stroke-width="1.58056" points="505.141,-191.739 495.609,-187.114 500.176,-196.674 505.141,-191.739"/>
</g>
<!-- &#45;22 -->
<g id="node22" class="node"><title>&#45;22</title>
<polygon fill="lightgray" stroke="black" points="123,-270.442 94,-270.442 94,-252.442 123,-252.442 123,-270.442"/>
<text text-anchor="middle" x="108.5" y="-259.242" font-family="Times,serif" font-size="9.00">&#45;22</text>
</g>
<!-- &#45;22&#45;&gt;1 -->
<g id="edge18" class="edge"><title>&#45;22&#45;&gt;1</title>
<path fill="none" stroke="green" stroke-width="0.305969" d="M115.691,-252.436C127.455,-239.339 151.105,-213.01 167.123,-195.177"/>
<polygon fill="green" stroke="green" stroke-width="0.305969" points="169.798,-197.437 173.876,-187.659 164.59,-192.76 169.798,-197.437"/>
</g>
<!-- &#45;23 -->
<g id="node23" class="node"><title>&#45;23</title>
<polygon fill="lightgray" stroke="black" points="464,-340.191 435,-340.191 435,-322.191 464,-322.191 464,-340.191"/>
<text text-anchor="middle" x="449.5" y="-328.991" font-family="Times,serif" font-size="9.00">&#45;23</text>
</g>
<!-- &#45;24 -->
<g id="node24" class="node"><title>&#45;24</title>
<polygon fill="lightgray" stroke="black" points="630,-270.442 601,-270.442 601,-252.442 630,-252.442 630,-270.442"/>
<text text-anchor="middle" x="615.5" y="-259.242" font-family="Times,serif" font-size="9.00">&#45;24</text>
</g>
<!-- &#45;24&#45;&gt;0 -->
<g id="edge31" class="edge"><title>&#45;24&#45;&gt;0</title>
<path fill="none" stroke="green" stroke-width="0.818484" d="M608.767,-252.374C604.434,-247.48 598.507,-241.311 592.5,-236.693 565.463,-215.911 530.337,-197.731 507.851,-187.041"/>
<polygon fill="green" stroke="green" stroke-width="0.818484" points="509.307,-183.858 498.765,-182.803 506.348,-190.202 509.307,-183.858"/>
</g>
<!-- 1&#45;&gt;1 -->
<g id="edge21" class="edge"><title>1&#45;&gt;1</title>
<path fill="none" stroke="green" stroke-width="1.32774" d="M192.916,-187.507C203.773,-195.713 216.349,-191.859 216.349,-175.945 216.349,-164.506 209.852,-159.298 202.166,-160.32"/>
<polygon fill="green" stroke="green" stroke-width="1.32774" points="200.665,-157.157 192.916,-164.382 203.479,-163.566 200.665,-157.157"/>
</g>
<!-- 2&#45;&gt;2 -->
<g id="edge19" class="edge"><title>2&#45;&gt;2</title>
<path fill="none" stroke="green" stroke-width="0.538738" d="M189.928,-25.6755C200.539,-32.0439 212.349,-28.4352 212.349,-14.8492 212.349,-5.50891 206.767,-0.884351 199.83,-0.975566"/>
<polygon fill="green" stroke="green" stroke-width="0.538738" points="198.456,2.26363 189.928,-4.02295 200.515,-4.42672 198.456,2.26363"/>
</g>
<!-- 2&#45;&gt;3760 -->
<g id="edge10" class="edge"><title>2&#45;&gt;3760</title>
<path fill="none" stroke="red" stroke-width="0.114452" d="M184.804,-28.9223C185.894,-36.491 186.368,-46.394 186.225,-55.9913"/>
<polygon fill="red" stroke="red" stroke-width="0.114452" points="182.721,-56.0314 185.828,-66.1604 189.716,-56.3046 182.721,-56.0314"/>
</g>
<!-- 3&#45;&gt;3 -->
<g id="edge13" class="edge"><title>3&#45;&gt;3</title>
<path fill="none" stroke="green" stroke-width="0.426182" d="M415.928,-101.274C426.539,-107.642 438.349,-104.033 438.349,-90.4472 438.349,-81.1069 432.767,-76.4823 425.83,-76.5735"/>
<polygon fill="green" stroke="green" stroke-width="0.426182" points="424.456,-73.3343 415.928,-79.6209 426.515,-80.0247 424.456,-73.3343"/>
</g>
<!-- 4875&#45;&gt;1 -->
<g id="edge17" class="edge"><title>4875&#45;&gt;1</title>
<path fill="none" stroke="green" stroke-width="0.616678" d="M198.65,-237.183C195.751,-225.657 192.26,-211.773 189.359,-200.241"/>
<polygon fill="green" stroke="green" stroke-width="0.616678" points="192.729,-199.291 186.896,-190.447 185.941,-200.999 192.729,-199.291"/>
</g>
<!-- 5548&#45;&gt;3760 -->
<g id="edge5" class="edge"><title>5548&#45;&gt;3760</title>
<path fill="none" stroke="green" stroke-width="0.180456" d="M242.534,-157.237C231.108,-145.312 215.879,-129.417 203.253,-116.238"/>
<polygon fill="green" stroke="green" stroke-width="0.180456" points="205.613,-113.642 196.167,-108.843 200.558,-118.485 205.613,-113.642"/>
</g>
<!-- 5611&#45;&gt;3 -->
<g id="edge25" class="edge"><title>5611&#45;&gt;3</title>
<path fill="none" stroke="green" stroke-width="0.136153" d="M579.016,-165.366C541.517,-149.391 466.586,-117.47 428.649,-101.309"/>
<polygon fill="green" stroke="green" stroke-width="0.136153" points="429.563,-97.8939 418.991,-97.1946 426.819,-104.334 429.563,-97.8939"/>
</g>
<!-- 3760&#45;&gt;2 -->
<g id="edge4" class="edge"><title>3760&#45;&gt;2</title>
<path fill="none" stroke="red" stroke-width="0.126446" d="M173.172,-66.1604C172.608,-57.514 172.609,-47.7119 173.176,-39.0714"/>
<polygon fill="red" stroke="red" stroke-width="0.126446" points="176.678,-39.2222 174.196,-28.9223 169.714,-38.522 176.678,-39.2222"/>
</g>
</g>
</svg>
