<?xml version="1.0" encoding="UTF-8" standalone="no"?>
<!DOCTYPE svg PUBLIC "-//W3C//DTD SVG 1.1//EN"
 "http://www.w3.org/Graphics/SVG/1.1/DTD/svg11.dtd">
<!-- Generated by graphviz version 2.38.0 (20140413.2041)
 -->
<!-- Title: %3 Pages: 1 -->
<svg width="1244pt" height="263pt"
 viewBox="0.00 0.00 1244.45 262.69" xmlns="http://www.w3.org/2000/svg" xmlns:xlink="http://www.w3.org/1999/xlink">
<g id="graph0" class="graph" transform="scale(1 1) rotate(0) translate(4 258.693)">
<title>%3</title>
<polygon fill="white" stroke="none" points="-4,4 -4,-258.693 1240.45,-258.693 1240.45,4 -4,4"/>
<!-- &#45;1 -->
<g id="node1" class="node"><title>&#45;1</title>
<polygon fill="lightgray" stroke="black" points="261,-254.693 237,-254.693 237,-236.693 261,-236.693 261,-254.693"/>
<text text-anchor="middle" x="249" y="-243.493" font-family="Times,serif" font-size="9.00">&#45;1</text>
</g>
<!-- 0 -->
<g id="node25" class="node"><title>0</title>
<ellipse fill="lightblue" stroke="black" cx="747" cy="-14.8492" rx="14.7" ry="14.7"/>
<text text-anchor="middle" x="747" y="-12.6492" font-family="Times,serif" font-size="9.00">0</text>
</g>
<!-- &#45;1&#45;&gt;0 -->
<g id="edge2" class="edge"><title>&#45;1&#45;&gt;0</title>
<path fill="none" stroke="green" stroke-width="0.226786" stroke-dasharray="1,5" d="M261.359,-239.734C264.179,-238.672 267.177,-237.599 270,-236.693 329.946,-217.46 346.898,-219.435 407,-200.693 513.502,-167.484 551.771,-179.406 643,-115.196 666.36,-98.7545 663.576,-85.6701 684,-65.6985 697.45,-52.5465 714.215,-39.4159 727.068,-29.9349"/>
<polygon fill="green" stroke="green" stroke-width="0.226786" points="729.213,-32.7031 735.253,-23.9987 725.103,-27.0365 729.213,-32.7031"/>
</g>
<!-- 1 -->
<g id="node26" class="node"><title>1</title>
<ellipse fill="lightblue" stroke="black" cx="942" cy="-14.8492" rx="14.7" ry="14.7"/>
<text text-anchor="middle" x="942" y="-12.6492" font-family="Times,serif" font-size="9.00">1</text>
</g>
<!-- &#45;1&#45;&gt;1 -->
<g id="edge15" class="edge"><title>&#45;1&#45;&gt;1</title>
<path fill="none" stroke="red" stroke-width="0.208247" d="M261.238,-239.269C264.064,-238.232 267.095,-237.286 270,-236.693 320.77,-226.333 1164.58,-236.535 1202,-200.693 1245.39,-159.137 1247.39,-111.915 1209,-65.6985 1178.37,-28.8173 1027.94,-19.075 967.354,-16.6276"/>
<polygon fill="red" stroke="red" stroke-width="0.208247" points="967.258,-13.1218 957.135,-16.2506 966.999,-20.117 967.258,-13.1218"/>
</g>
<!-- 3 -->
<g id="node28" class="node"><title>3</title>
<ellipse fill="lightblue" stroke="black" cx="490" cy="-14.8492" rx="14.7" ry="14.7"/>
<text text-anchor="middle" x="490" y="-12.6492" font-family="Times,serif" font-size="9.00">3</text>
</g>
<!-- &#45;1&#45;&gt;3 -->
<g id="edge44" class="edge"><title>&#45;1&#45;&gt;3</title>
<path fill="none" stroke="red" stroke-width="0.404252" d="M246.847,-236.651C239.952,-208.923 221.376,-116.244 266,-65.6985 292.155,-36.0727 412.297,-22.427 465.046,-17.7856"/>
<polygon fill="red" stroke="red" stroke-width="0.404252" points="465.55,-21.2556 475.222,-16.9293 464.963,-14.2803 465.55,-21.2556"/>
</g>
<!-- 5548 -->
<g id="node30" class="node"><title>5548</title>
<ellipse fill="white" stroke="black" cx="149" cy="-175.945" rx="25" ry="25"/>
<text text-anchor="middle" x="149" y="-173.745" font-family="Times,serif" font-size="9.00">5548</text>
</g>
<!-- &#45;1&#45;&gt;5548 -->
<g id="edge3" class="edge"><title>&#45;1&#45;&gt;5548</title>
<path fill="none" stroke="red" stroke-width="0.264852" d="M236.546,-236.741C223.013,-228.046 200.804,-213.626 182,-200.693 180.386,-199.584 178.734,-198.435 177.072,-197.27"/>
<polygon fill="red" stroke="red" stroke-width="0.264852" points="178.978,-194.33 168.796,-191.4 174.928,-200.04 178.978,-194.33"/>
</g>
<!-- 3760 -->
<g id="node32" class="node"><title>3760</title>
<ellipse fill="white" stroke="black" cx="152" cy="-90.4472" rx="25" ry="25"/>
<text text-anchor="middle" x="152" y="-88.2472" font-family="Times,serif" font-size="9.00">3760</text>
</g>
<!-- &#45;1&#45;&gt;3760 -->
<g id="edge37" class="edge"><title>&#45;1&#45;&gt;3760</title>
<path fill="none" stroke="green" stroke-width="0.397304" stroke-dasharray="1,5" d="M236.692,-244.992C209.354,-244.902 143.723,-240.357 115,-200.693 97.0081,-175.849 113.797,-141.62 130.184,-118.134"/>
<polygon fill="green" stroke="green" stroke-width="0.397304" points="133.053,-120.14 136.138,-110.004 127.406,-116.004 133.053,-120.14"/>
</g>
<!-- &#45;2 -->
<g id="node2" class="node"><title>&#45;2</title>
<polygon fill="lightgray" stroke="black" points="219,-99.4472 195,-99.4472 195,-81.4472 219,-81.4472 219,-99.4472"/>
<text text-anchor="middle" x="207" y="-88.2472" font-family="Times,serif" font-size="9.00">&#45;2</text>
</g>
<!-- &#45;2&#45;&gt;0 -->
<g id="edge13" class="edge"><title>&#45;2&#45;&gt;0</title>
<path fill="none" stroke="red" stroke-width="0.396637" d="M219.321,-83.304C231.029,-77.7549 249.281,-69.8427 266,-65.6985 354.02,-43.881 636.013,-23.3873 721.923,-17.5198"/>
<polygon fill="red" stroke="red" stroke-width="0.396637" points="722.316,-21.0012 732.057,-16.8336 721.843,-14.0172 722.316,-21.0012"/>
</g>
<!-- 2 -->
<g id="node27" class="node"><title>2</title>
<ellipse fill="lightblue" stroke="black" cx="179" cy="-14.8492" rx="14.7" ry="14.7"/>
<text text-anchor="middle" x="179" y="-12.6492" font-family="Times,serif" font-size="9.00">2</text>
</g>
<!-- &#45;2&#45;&gt;2 -->
<g id="edge33" class="edge"><title>&#45;2&#45;&gt;2</title>
<path fill="none" stroke="green" stroke-width="0.450303" stroke-dasharray="1,5" d="M203.897,-81.2897C199.986,-71.0116 193.108,-52.9321 187.571,-38.3773"/>
<polygon fill="green" stroke="green" stroke-width="0.450303" points="190.831,-37.105 184.004,-29.0031 184.289,-39.5941 190.831,-37.105"/>
</g>
<!-- &#45;3 -->
<g id="node3" class="node"><title>&#45;3</title>
<polygon fill="lightgray" stroke="black" points="24,-99.4472 0,-99.4472 0,-81.4472 24,-81.4472 24,-99.4472"/>
<text text-anchor="middle" x="12" y="-88.2472" font-family="Times,serif" font-size="9.00">&#45;3</text>
</g>
<!-- &#45;3&#45;&gt;2 -->
<g id="edge24" class="edge"><title>&#45;3&#45;&gt;2</title>
<path fill="none" stroke="red" stroke-width="0.555392" stroke-dasharray="1,5" d="M19.5191,-81.0496C24.3822,-76.0319 31.0785,-69.8475 38,-65.6985 75.8825,-42.9905 125.678,-28.4502 154.828,-21.2495"/>
<polygon fill="red" stroke="red" stroke-width="0.555392" points="155.656,-24.6502 164.572,-18.9272 154.033,-17.8408 155.656,-24.6502"/>
</g>
<!-- &#45;4 -->
<g id="node4" class="node"><title>&#45;4</title>
<polygon fill="lightgray" stroke="black" points="759,-99.4472 735,-99.4472 735,-81.4472 759,-81.4472 759,-99.4472"/>
<text text-anchor="middle" x="747" y="-88.2472" font-family="Times,serif" font-size="9.00">&#45;4</text>
</g>
<!-- &#45;4&#45;&gt;0 -->
<g id="edge38" class="edge"><title>&#45;4&#45;&gt;0</title>
<path fill="none" stroke="green" stroke-width="0.661187" stroke-dasharray="1,5" d="M747,-81.2897C747,-71.3882 747,-54.2466 747,-39.9908"/>
<polygon fill="green" stroke="green" stroke-width="0.661187" points="750.5,-39.8196 747,-29.8196 743.5,-39.8196 750.5,-39.8196"/>
</g>
<!-- &#45;4&#45;&gt;1 -->
<g id="edge50" class="edge"><title>&#45;4&#45;&gt;1</title>
<path fill="none" stroke="green" stroke-width="0.461135" stroke-dasharray="1,5" d="M759.16,-84.4231C771.058,-79.5377 789.716,-71.9585 806,-65.6985 845.338,-50.5763 891.455,-33.8899 918.617,-24.1682"/>
<polygon fill="green" stroke="green" stroke-width="0.461135" points="919.805,-27.4605 928.046,-20.801 917.451,-20.8683 919.805,-27.4605"/>
</g>
<!-- &#45;4&#45;&gt;3 -->
<g id="edge21" class="edge"><title>&#45;4&#45;&gt;3</title>
<path fill="none" stroke="red" stroke-width="0.18107" stroke-dasharray="1,5" d="M741.747,-81.1681C737.99,-75.9331 732.468,-69.466 726,-65.6985 657.137,-25.5855 560.237,-17.5636 515.041,-16.088"/>
<polygon fill="red" stroke="red" stroke-width="0.18107" points="515.043,-12.5871 504.961,-15.8422 514.873,-19.585 515.043,-12.5871"/>
</g>
<!-- &#45;5 -->
<g id="node5" class="node"><title>&#45;5</title>
<polygon fill="lightgray" stroke="black" points="398,-184.945 374,-184.945 374,-166.945 398,-166.945 398,-184.945"/>
<text text-anchor="middle" x="386" y="-173.745" font-family="Times,serif" font-size="9.00">&#45;5</text>
</g>
<!-- &#45;5&#45;&gt;0 -->
<g id="edge30" class="edge"><title>&#45;5&#45;&gt;0</title>
<path fill="none" stroke="red" stroke-width="1.5846" d="M398.217,-174.083C433.27,-171.127 536.191,-159.008 607,-115.196 632.03,-99.7087 627.775,-83.7807 651,-65.6985 673.691,-48.0322 703.585,-33.6646 723.945,-24.9703"/>
<polygon fill="red" stroke="red" stroke-width="1.5846" points="725.473,-28.1259 733.368,-21.0609 722.79,-21.6603 725.473,-28.1259"/>
</g>
<!-- &#45;5&#45;&gt;3 -->
<g id="edge40" class="edge"><title>&#45;5&#45;&gt;3</title>
<path fill="none" stroke="red" stroke-width="0.169402" stroke-dasharray="1,5" d="M379.022,-166.796C363.443,-147.572 328.946,-98.5387 352,-65.6985 377.642,-29.1721 432.819,-19.2933 465.097,-16.696"/>
<polygon fill="red" stroke="red" stroke-width="0.169402" points="465.329,-20.1884 475.089,-16.0664 464.889,-13.2023 465.329,-20.1884"/>
</g>
<!-- 5611 -->
<g id="node31" class="node"><title>5611</title>
<ellipse fill="white" stroke="black" cx="386" cy="-90.4472" rx="25" ry="25"/>
<text text-anchor="middle" x="386" y="-88.2472" font-family="Times,serif" font-size="9.00">5611</text>
</g>
<!-- &#45;5&#45;&gt;5611 -->
<g id="edge55" class="edge"><title>&#45;5&#45;&gt;5611</title>
<path fill="none" stroke="green" stroke-width="0.293889" d="M386,-166.939C386,-157.387 386,-140.798 386,-125.599"/>
<polygon fill="green" stroke="green" stroke-width="0.293889" points="389.5,-125.402 386,-115.402 382.5,-125.402 389.5,-125.402"/>
</g>
<!-- &#45;6 -->
<g id="node6" class="node"><title>&#45;6</title>
<polygon fill="lightgray" stroke="black" points="67,-184.945 43,-184.945 43,-166.945 67,-166.945 67,-184.945"/>
<text text-anchor="middle" x="55" y="-173.745" font-family="Times,serif" font-size="9.00">&#45;6</text>
</g>
<!-- &#45;6&#45;&gt;2 -->
<g id="edge48" class="edge"><title>&#45;6&#45;&gt;2</title>
<path fill="none" stroke="red" stroke-width="0.520582" d="M53.7777,-166.844C51.2926,-147.298 47.7026,-96.8659 71,-65.6985 91.1224,-38.7786 129.31,-25.9395 154.46,-20.1578"/>
<polygon fill="red" stroke="red" stroke-width="0.520582" points="155.277,-23.5628 164.349,-18.0915 153.845,-16.7107 155.277,-23.5628"/>
</g>
<!-- &#45;6&#45;&gt;3760 -->
<g id="edge9" class="edge"><title>&#45;6&#45;&gt;3760</title>
<path fill="none" stroke="green" stroke-width="0.431645" stroke-dasharray="1,5" d="M64.2174,-166.777C69.4217,-162.181 76.0553,-156.347 82,-151.196 96.3998,-138.719 112.573,-124.901 125.744,-113.699"/>
<polygon fill="green" stroke="green" stroke-width="0.431645" points="128.159,-116.24 133.513,-107.098 123.626,-110.905 128.159,-116.24"/>
</g>
<!-- &#45;7 -->
<g id="node7" class="node"><title>&#45;7</title>
<polygon fill="lightgray" stroke="black" points="1193,-184.945 1169,-184.945 1169,-166.945 1193,-166.945 1193,-184.945"/>
<text text-anchor="middle" x="1181" y="-173.745" font-family="Times,serif" font-size="9.00">&#45;7</text>
</g>
<!-- &#45;7&#45;&gt;1 -->
<g id="edge51" class="edge"><title>&#45;7&#45;&gt;1</title>
<path fill="none" stroke="red" stroke-width="0.717339" d="M1185.15,-166.679C1194.48,-146.768 1214.48,-95.5862 1190,-65.6985 1161.96,-31.4654 1024.4,-20.2385 967.111,-17.0102"/>
<polygon fill="red" stroke="red" stroke-width="0.717339" points="967.256,-13.5131 957.086,-16.4817 966.888,-20.5034 967.256,-13.5131"/>
</g>
<!-- 4875 -->
<g id="node29" class="node"><title>4875</title>
<ellipse fill="white" stroke="black" cx="1156" cy="-90.4472" rx="25" ry="25"/>
<text text-anchor="middle" x="1156" y="-88.2472" font-family="Times,serif" font-size="9.00">4875</text>
</g>
<!-- &#45;7&#45;&gt;4875 -->
<g id="edge16" class="edge"><title>&#45;7&#45;&gt;4875</title>
<path fill="none" stroke="green" stroke-width="0.355754" d="M1178.6,-166.939C1175.66,-157.094 1170.47,-139.774 1165.81,-124.206"/>
<polygon fill="green" stroke="green" stroke-width="0.355754" points="1169.07,-122.9 1162.85,-114.324 1162.36,-124.907 1169.07,-122.9"/>
</g>
<!-- &#45;8 -->
<g id="node8" class="node"><title>&#45;8</title>
<polygon fill="lightgray" stroke="black" points="839,-99.4472 815,-99.4472 815,-81.4472 839,-81.4472 839,-99.4472"/>
<text text-anchor="middle" x="827" y="-88.2472" font-family="Times,serif" font-size="9.00">&#45;8</text>
</g>
<!-- &#45;8&#45;&gt;0 -->
<g id="edge52" class="edge"><title>&#45;8&#45;&gt;0</title>
<path fill="none" stroke="red" stroke-width="0.570057" stroke-dasharray="1,5" d="M818.133,-81.2897C805.337,-69.5181 781.418,-47.5131 764.871,-32.2903"/>
<polygon fill="red" stroke="red" stroke-width="0.570057" points="767.151,-29.6314 757.421,-25.4367 762.411,-34.783 767.151,-29.6314"/>
</g>
<!-- &#45;8&#45;&gt;1 -->
<g id="edge8" class="edge"><title>&#45;8&#45;&gt;1</title>
<path fill="none" stroke="red" stroke-width="0.30613" stroke-dasharray="1,5" d="M832.991,-81.2934C836.888,-76.3674 842.293,-70.1938 848,-65.6985 870.097,-48.2936 899.164,-33.9571 919.092,-25.1967"/>
<polygon fill="red" stroke="red" stroke-width="0.30613" points="920.513,-28.3957 928.332,-21.2461 917.761,-21.9593 920.513,-28.3957"/>
</g>
<!-- &#45;9 -->
<g id="node9" class="node"><title>&#45;9</title>
<polygon fill="lightgray" stroke="black" points="717,-99.4472 693,-99.4472 693,-81.4472 717,-81.4472 717,-99.4472"/>
<text text-anchor="middle" x="705" y="-88.2472" font-family="Times,serif" font-size="9.00">&#45;9</text>
</g>
<!-- &#45;9&#45;&gt;0 -->
<g id="edge36" class="edge"><title>&#45;9&#45;&gt;0</title>
<path fill="none" stroke="red" stroke-width="0.920665" d="M709.655,-81.2897C715.682,-70.7286 726.41,-51.9305 734.825,-37.1831"/>
<polygon fill="red" stroke="red" stroke-width="0.920665" points="738.033,-38.6242 739.949,-28.2042 731.953,-35.1547 738.033,-38.6242"/>
</g>
<!-- &#45;10 -->
<g id="node10" class="node"><title>&#45;10</title>
<polygon fill="lightgray" stroke="black" points="975.5,-184.945 946.5,-184.945 946.5,-166.945 975.5,-166.945 975.5,-184.945"/>
<text text-anchor="middle" x="961" y="-173.745" font-family="Times,serif" font-size="9.00">&#45;10</text>
</g>
<!-- &#45;10&#45;&gt;0 -->
<g id="edge12" class="edge"><title>&#45;10&#45;&gt;0</title>
<path fill="none" stroke="green" stroke-width="0.382629" d="M946.11,-172.566C916.407,-167.157 848.962,-151.486 806,-115.196 781.415,-94.429 764.473,-60.6745 755.25,-38.3661"/>
<polygon fill="green" stroke="green" stroke-width="0.382629" points="758.483,-37.0254 751.555,-29.0095 751.972,-39.5962 758.483,-37.0254"/>
</g>
<!-- &#45;10&#45;&gt;4875 -->
<g id="edge27" class="edge"><title>&#45;10&#45;&gt;4875</title>
<path fill="none" stroke="green" stroke-width="0.147253" d="M975.868,-170.932C1005.09,-162.73 1071.65,-142.492 1123,-115.196 1124.78,-114.252 1126.57,-113.223 1128.34,-112.141"/>
<polygon fill="green" stroke="green" stroke-width="0.147253" points="1130.6,-114.848 1137.02,-106.425 1126.75,-109.002 1130.6,-114.848"/>
</g>
<!-- &#45;11 -->
<g id="node11" class="node"><title>&#45;11</title>
<polygon fill="lightgray" stroke="black" points="109.5,-99.4472 80.5,-99.4472 80.5,-81.4472 109.5,-81.4472 109.5,-99.4472"/>
<text text-anchor="middle" x="95" y="-88.2472" font-family="Times,serif" font-size="9.00">&#45;11</text>
</g>
<!-- &#45;11&#45;&gt;2 -->
<g id="edge47" class="edge"><title>&#45;11&#45;&gt;2</title>
<path fill="none" stroke="red" stroke-width="0.9277" d="M102.443,-81.3016C106.841,-76.6073 112.591,-70.6701 118,-65.6985 131.289,-53.4847 147.087,-40.6163 159.276,-31.0139"/>
<polygon fill="red" stroke="red" stroke-width="0.9277" points="161.695,-33.566 167.426,-24.6552 157.389,-28.047 161.695,-33.566"/>
</g>
<!-- &#45;12 -->
<g id="node12" class="node"><title>&#45;12</title>
<polygon fill="lightgray" stroke="black" points="1113.5,-99.4472 1084.5,-99.4472 1084.5,-81.4472 1113.5,-81.4472 1113.5,-99.4472"/>
<text text-anchor="middle" x="1099" y="-88.2472" font-family="Times,serif" font-size="9.00">&#45;12</text>
</g>
<!-- &#45;12&#45;&gt;1 -->
<g id="edge19" class="edge"><title>&#45;12&#45;&gt;1</title>
<path fill="none" stroke="green" stroke-width="0.127071" d="M1090.4,-81.1794C1084.9,-76.2105 1077.42,-70.0319 1070,-65.6985 1035.98,-45.8196 992.549,-30.835 966.031,-22.7082"/>
<polygon fill="green" stroke="green" stroke-width="0.127071" points="966.685,-19.251 956.102,-19.7448 964.683,-25.9586 966.685,-19.251"/>
</g>
<!-- &#45;13 -->
<g id="node13" class="node"><title>&#45;13</title>
<polygon fill="lightgray" stroke="black" points="308.5,-254.693 279.5,-254.693 279.5,-236.693 308.5,-236.693 308.5,-254.693"/>
<text text-anchor="middle" x="294" y="-243.493" font-family="Times,serif" font-size="9.00">&#45;13</text>
</g>
<!-- &#45;14 -->
<g id="node14" class="node"><title>&#45;14</title>
<polygon fill="lightgray" stroke="black" points="504.5,-99.4472 475.5,-99.4472 475.5,-81.4472 504.5,-81.4472 504.5,-99.4472"/>
<text text-anchor="middle" x="490" y="-88.2472" font-family="Times,serif" font-size="9.00">&#45;14</text>
</g>
<!-- &#45;14&#45;&gt;1 -->
<g id="edge54" class="edge"><title>&#45;14&#45;&gt;1</title>
<path fill="none" stroke="red" stroke-width="0.235728" stroke-dasharray="1,5" d="M495.449,-81.4287C499.591,-76.0245 505.795,-69.2554 513,-65.6985 549.392,-47.7338 831.082,-24.5 917.122,-17.7594"/>
<polygon fill="red" stroke="red" stroke-width="0.235728" points="917.573,-21.235 927.272,-16.97 917.03,-14.2561 917.573,-21.235"/>
</g>
<!-- &#45;14&#45;&gt;2 -->
<g id="edge18" class="edge"><title>&#45;14&#45;&gt;2</title>
<path fill="none" stroke="green" stroke-width="0.507831" stroke-dasharray="1,5" d="M483.794,-81.0929C479.416,-75.8261 473.086,-69.3519 466,-65.6985 377.85,-20.2476 256.332,-15.179 204.3,-15.2949"/>
<polygon fill="green" stroke="green" stroke-width="0.507831" points="203.976,-11.7977 194.009,-15.3903 204.041,-18.7974 203.976,-11.7977"/>
</g>
<!-- &#45;14&#45;&gt;3 -->
<g id="edge32" class="edge"><title>&#45;14&#45;&gt;3</title>
<path fill="none" stroke="red" stroke-width="0.277689" d="M490,-81.2897C490,-71.3882 490,-54.2466 490,-39.9908"/>
<polygon fill="red" stroke="red" stroke-width="0.277689" points="493.5,-39.8196 490,-29.8196 486.5,-39.8196 493.5,-39.8196"/>
</g>
<!-- &#45;15 -->
<g id="node15" class="node"><title>&#45;15</title>
<polygon fill="lightgray" stroke="black" points="220.5,-184.945 191.5,-184.945 191.5,-166.945 220.5,-166.945 220.5,-184.945"/>
<text text-anchor="middle" x="206" y="-173.745" font-family="Times,serif" font-size="9.00">&#45;15</text>
</g>
<!-- &#45;15&#45;&gt;1 -->
<g id="edge20" class="edge"><title>&#45;15&#45;&gt;1</title>
<path fill="none" stroke="green" stroke-width="0.294658" d="M220.847,-172.246C248.905,-167.253 311.685,-156.593 365,-151.196 439.393,-143.665 985.561,-169.465 1037,-115.196 1052.13,-99.2298 1048.38,-84.5242 1037,-65.6985 1021.78,-40.5177 989.163,-27.4317 966.421,-21.1024"/>
<polygon fill="green" stroke="green" stroke-width="0.294658" points="967.02,-17.6436 956.467,-18.5824 965.302,-24.4296 967.02,-17.6436"/>
</g>
<!-- &#45;15&#45;&gt;3760 -->
<g id="edge10" class="edge"><title>&#45;15&#45;&gt;3760</title>
<path fill="none" stroke="red" stroke-width="0.201685" d="M200.822,-166.939C193.962,-156.331 181.488,-137.043 170.866,-120.619"/>
<polygon fill="red" stroke="red" stroke-width="0.201685" points="173.573,-118.359 165.203,-111.863 167.695,-122.161 173.573,-118.359"/>
</g>
<!-- &#45;16 -->
<g id="node16" class="node"><title>&#45;16</title>
<polygon fill="lightgray" stroke="black" points="886.5,-99.4472 857.5,-99.4472 857.5,-81.4472 886.5,-81.4472 886.5,-99.4472"/>
<text text-anchor="middle" x="872" y="-88.2472" font-family="Times,serif" font-size="9.00">&#45;16</text>
</g>
<!-- &#45;16&#45;&gt;0 -->
<g id="edge49" class="edge"><title>&#45;16&#45;&gt;0</title>
<path fill="none" stroke="green" stroke-width="0.923359" d="M864.997,-81.2906C860.485,-76.3636 854.301,-70.1899 848,-65.6985 823.37,-48.1405 791.628,-33.6005 770.363,-24.842"/>
<polygon fill="green" stroke="green" stroke-width="0.923359" points="771.426,-21.4973 760.842,-21.0189 768.817,-27.9931 771.426,-21.4973"/>
</g>
<!-- &#45;16&#45;&gt;1 -->
<g id="edge35" class="edge"><title>&#45;16&#45;&gt;1</title>
<path fill="none" stroke="green" stroke-width="0.441419" d="M879.759,-81.2897C890.671,-69.8163 910.83,-48.6215 925.25,-33.4601"/>
<polygon fill="green" stroke="green" stroke-width="0.441419" points="927.833,-35.8232 932.188,-26.1651 922.761,-30.9989 927.833,-35.8232"/>
</g>
<!-- &#45;17 -->
<g id="node17" class="node"><title>&#45;17</title>
<polygon fill="lightgray" stroke="black" points="933.5,-99.4472 904.5,-99.4472 904.5,-81.4472 933.5,-81.4472 933.5,-99.4472"/>
<text text-anchor="middle" x="919" y="-88.2472" font-family="Times,serif" font-size="9.00">&#45;17</text>
</g>
<!-- &#45;17&#45;&gt;0 -->
<g id="edge5" class="edge"><title>&#45;17&#45;&gt;0</title>
<path fill="none" stroke="red" stroke-width="0.141432" d="M912.597,-81.4426C908.135,-76.3234 901.786,-69.8824 895,-65.6985 855.362,-41.2593 802.295,-27.1752 771.659,-20.5519"/>
<polygon fill="red" stroke="red" stroke-width="0.141432" points="772.318,-17.1143 761.817,-18.5156 770.9,-23.9691 772.318,-17.1143"/>
</g>
<!-- &#45;17&#45;&gt;1 -->
<g id="edge11" class="edge"><title>&#45;17&#45;&gt;1</title>
<path fill="none" stroke="red" stroke-width="0.249821" d="M921.549,-81.2897C924.712,-71.1707 930.237,-53.4899 934.748,-39.0555"/>
<polygon fill="red" stroke="red" stroke-width="0.249821" points="938.163,-39.8621 937.805,-29.2734 931.481,-37.7741 938.163,-39.8621"/>
</g>
<!-- &#45;18 -->
<g id="node18" class="node"><title>&#45;18</title>
<polygon fill="lightgray" stroke="black" points="598.5,-99.4472 569.5,-99.4472 569.5,-81.4472 598.5,-81.4472 598.5,-99.4472"/>
<text text-anchor="middle" x="584" y="-88.2472" font-family="Times,serif" font-size="9.00">&#45;18</text>
</g>
<!-- &#45;18&#45;&gt;0 -->
<g id="edge29" class="edge"><title>&#45;18&#45;&gt;0</title>
<path fill="none" stroke="red" stroke-width="0.65731" stroke-dasharray="1,5" d="M592.577,-81.1395C598.073,-76.1557 605.55,-69.9753 613,-65.6985 648.917,-45.0785 694.938,-30.1615 722.635,-22.2727"/>
<polygon fill="red" stroke="red" stroke-width="0.65731" points="723.925,-25.5471 732.629,-19.5058 722.058,-18.8008 723.925,-25.5471"/>
</g>
<!-- &#45;18&#45;&gt;3 -->
<g id="edge39" class="edge"><title>&#45;18&#45;&gt;3</title>
<path fill="none" stroke="green" stroke-width="0.419928" d="M576.306,-81.1958C571.741,-76.4663 565.741,-70.5291 560,-65.6985 544.267,-52.4611 525.187,-39.0296 510.923,-29.4491"/>
<polygon fill="green" stroke="green" stroke-width="0.419928" points="512.598,-26.3597 502.329,-23.7503 508.729,-32.1937 512.598,-26.3597"/>
</g>
<!-- &#45;19 -->
<g id="node19" class="node"><title>&#45;19</title>
<polygon fill="lightgray" stroke="black" points="980.5,-99.4472 951.5,-99.4472 951.5,-81.4472 980.5,-81.4472 980.5,-99.4472"/>
<text text-anchor="middle" x="966" y="-88.2472" font-family="Times,serif" font-size="9.00">&#45;19</text>
</g>
<!-- &#45;19&#45;&gt;0 -->
<g id="edge41" class="edge"><title>&#45;19&#45;&gt;0</title>
<path fill="none" stroke="red" stroke-width="0.400105" d="M959.696,-81.2738C955.277,-76.0835 948.937,-69.6264 942,-65.6985 886.511,-34.2801 811.045,-22.3239 772.278,-18.0479"/>
<polygon fill="red" stroke="red" stroke-width="0.400105" points="772.228,-14.5249 761.925,-16.9948 771.52,-21.4889 772.228,-14.5249"/>
</g>
<!-- &#45;19&#45;&gt;1 -->
<g id="edge31" class="edge"><title>&#45;19&#45;&gt;1</title>
<path fill="none" stroke="red" stroke-width="0.324742" d="M963.34,-81.2897C960.04,-71.1707 954.274,-53.4899 949.567,-39.0555"/>
<polygon fill="red" stroke="red" stroke-width="0.324742" points="952.805,-37.6955 946.378,-29.2734 946.15,-39.8658 952.805,-37.6955"/>
</g>
<!-- &#45;20 -->
<g id="node20" class="node"><title>&#45;20</title>
<polygon fill="lightgray" stroke="black" points="457.5,-99.4472 428.5,-99.4472 428.5,-81.4472 457.5,-81.4472 457.5,-99.4472"/>
<text text-anchor="middle" x="443" y="-88.2472" font-family="Times,serif" font-size="9.00">&#45;20</text>
</g>
<!-- &#45;20&#45;&gt;1 -->
<g id="edge43" class="edge"><title>&#45;20&#45;&gt;1</title>
<path fill="none" stroke="red" stroke-width="0.182517" stroke-dasharray="1,5" d="M448.437,-81.4035C452.573,-75.9875 458.774,-69.2145 466,-65.6985 486.505,-55.7205 821.961,-26.1908 917.054,-17.9856"/>
<polygon fill="red" stroke="red" stroke-width="0.182517" points="917.522,-21.4584 927.185,-17.1138 916.921,-14.4842 917.522,-21.4584"/>
</g>
<!-- &#45;20&#45;&gt;2 -->
<g id="edge1" class="edge"><title>&#45;20&#45;&gt;2</title>
<path fill="none" stroke="red" stroke-width="0.466318" d="M437.086,-81.1637C432.904,-75.9268 426.84,-69.4593 420,-65.6985 348.575,-26.4289 249.77,-18.0043 204.055,-16.2606"/>
<polygon fill="red" stroke="red" stroke-width="0.466318" points="203.977,-12.7567 193.875,-15.952 203.764,-19.7535 203.977,-12.7567"/>
</g>
<!-- &#45;21 -->
<g id="node21" class="node"><title>&#45;21</title>
<polygon fill="lightgray" stroke="black" points="304.5,-99.4472 275.5,-99.4472 275.5,-81.4472 304.5,-81.4472 304.5,-99.4472"/>
<text text-anchor="middle" x="290" y="-88.2472" font-family="Times,serif" font-size="9.00">&#45;21</text>
</g>
<!-- &#45;21&#45;&gt;0 -->
<g id="edge22" class="edge"><title>&#45;21&#45;&gt;0</title>
<path fill="none" stroke="green" stroke-width="1.58056" d="M304.958,-82.5485C317.316,-77.1366 335.453,-69.8474 352,-65.6985 488.931,-31.3651 658.787,-20.0858 721.878,-16.9281"/>
<polygon fill="green" stroke="green" stroke-width="1.58056" points="722.235,-20.4152 732.057,-16.444 721.902,-13.4231 722.235,-20.4152"/>
</g>
<!-- &#45;21&#45;&gt;2 -->
<g id="edge45" class="edge"><title>&#45;21&#45;&gt;2</title>
<path fill="none" stroke="red" stroke-width="0.172627" stroke-dasharray="1,5" d="M277.697,-81.2897C258.845,-68.79 222.591,-44.752 199.66,-29.5477"/>
<polygon fill="red" stroke="red" stroke-width="0.172627" points="201.289,-26.4286 191.021,-23.8195 197.421,-32.2627 201.289,-26.4286"/>
</g>
<!-- &#45;22 -->
<g id="node22" class="node"><title>&#45;22</title>
<polygon fill="lightgray" stroke="black" points="551.5,-99.4472 522.5,-99.4472 522.5,-81.4472 551.5,-81.4472 551.5,-99.4472"/>
<text text-anchor="middle" x="537" y="-88.2472" font-family="Times,serif" font-size="9.00">&#45;22</text>
</g>
<!-- &#45;22&#45;&gt;1 -->
<g id="edge25" class="edge"><title>&#45;22&#45;&gt;1</title>
<path fill="none" stroke="green" stroke-width="0.305969" d="M542.825,-80.9947C546.97,-75.6865 553.025,-69.203 560,-65.6985 591.964,-49.639 837.286,-25.6073 917.039,-18.1436"/>
<polygon fill="green" stroke="green" stroke-width="0.305969" points="917.522,-21.614 927.155,-17.203 916.874,-14.6441 917.522,-21.614"/>
</g>
<!-- &#45;22&#45;&gt;2 -->
<g id="edge42" class="edge"><title>&#45;22&#45;&gt;2</title>
<path fill="none" stroke="green" stroke-width="0.15474" stroke-dasharray="1,5" d="M530.823,-81.0371C526.457,-75.7467 520.129,-69.2672 513,-65.6985 458.497,-38.413 272.197,-22.5659 204.147,-17.5762"/>
<polygon fill="green" stroke="green" stroke-width="0.15474" points="204.149,-14.0675 193.924,-16.8437 203.648,-21.0496 204.149,-14.0675"/>
</g>
<!-- &#45;22&#45;&gt;3 -->
<g id="edge53" class="edge"><title>&#45;22&#45;&gt;3</title>
<path fill="none" stroke="green" stroke-width="0.35488" stroke-dasharray="1,5" d="M531.791,-81.2897C524.903,-70.504 512.529,-51.1274 503.027,-36.248"/>
<polygon fill="green" stroke="green" stroke-width="0.35488" points="505.888,-34.226 497.556,-27.6817 499.989,-37.9935 505.888,-34.226"/>
</g>
<!-- &#45;23 -->
<g id="node23" class="node"><title>&#45;23</title>
<polygon fill="lightgray" stroke="black" points="355.5,-254.693 326.5,-254.693 326.5,-236.693 355.5,-236.693 355.5,-254.693"/>
<text text-anchor="middle" x="341" y="-243.493" font-family="Times,serif" font-size="9.00">&#45;23</text>
</g>
<!-- &#45;24 -->
<g id="node24" class="node"><title>&#45;24</title>
<polygon fill="lightgray" stroke="black" points="1027.5,-99.4472 998.5,-99.4472 998.5,-81.4472 1027.5,-81.4472 1027.5,-99.4472"/>
<text text-anchor="middle" x="1013" y="-88.2472" font-family="Times,serif" font-size="9.00">&#45;24</text>
</g>
<!-- &#45;24&#45;&gt;0 -->
<g id="edge46" class="edge"><title>&#45;24&#45;&gt;0</title>
<path fill="none" stroke="green" stroke-width="0.818484" d="M1006.76,-81.1654C1002.36,-75.9292 996.028,-69.4619 989,-65.6985 916.859,-27.0673 817.85,-18.3296 772.077,-16.3849"/>
<polygon fill="green" stroke="green" stroke-width="0.818484" points="772.002,-12.8803 761.886,-16.0295 771.758,-19.876 772.002,-12.8803"/>
</g>
<!-- &#45;24&#45;&gt;1 -->
<g id="edge4" class="edge"><title>&#45;24&#45;&gt;1</title>
<path fill="none" stroke="green" stroke-width="0.349179" stroke-dasharray="1,5" d="M1005.13,-81.2897C994.062,-69.8163 973.615,-48.6215 958.989,-33.4601"/>
<polygon fill="green" stroke="green" stroke-width="0.349179" points="961.414,-30.932 951.952,-26.1651 956.376,-35.7921 961.414,-30.932"/>
</g>
<!-- 1&#45;&gt;1 -->
<g id="edge28" class="edge"><title>1&#45;&gt;1</title>
<path fill="none" stroke="green" stroke-width="1.32774" d="M952.428,-25.6755C963.039,-32.0439 974.849,-28.4352 974.849,-14.8492 974.849,-5.50891 969.267,-0.884351 962.33,-0.975566"/>
<polygon fill="green" stroke="green" stroke-width="1.32774" points="960.956,2.26363 952.428,-4.02295 963.015,-4.42672 960.956,2.26363"/>
</g>
<!-- 2&#45;&gt;2 -->
<g id="edge26" class="edge"><title>2&#45;&gt;2</title>
<path fill="none" stroke="green" stroke-width="0.538738" d="M189.428,-25.6755C200.039,-32.0439 211.849,-28.4352 211.849,-14.8492 211.849,-5.50891 206.267,-0.884351 199.33,-0.975566"/>
<polygon fill="green" stroke="green" stroke-width="0.538738" points="197.956,2.26363 189.428,-4.02295 200.015,-4.42672 197.956,2.26363"/>
</g>
<!-- 2&#45;&gt;3760 -->
<g id="edge14" class="edge"><title>2&#45;&gt;3760</title>
<path fill="none" stroke="red" stroke-width="0.114452" d="M179.237,-30.1051C177.249,-38.5578 173.59,-49.5921 169.492,-59.8495"/>
<polygon fill="red" stroke="red" stroke-width="0.114452" points="166.151,-58.7634 165.469,-69.3363 172.595,-61.4965 166.151,-58.7634"/>
</g>
<!-- 3&#45;&gt;3 -->
<g id="edge17" class="edge"><title>3&#45;&gt;3</title>
<path fill="none" stroke="green" stroke-width="0.426182" d="M500.428,-25.6755C511.039,-32.0439 522.849,-28.4352 522.849,-14.8492 522.849,-5.50891 517.267,-0.884351 510.33,-0.975566"/>
<polygon fill="green" stroke="green" stroke-width="0.426182" points="508.956,2.26363 500.428,-4.02295 511.015,-4.42672 508.956,2.26363"/>
</g>
<!-- 4875&#45;&gt;1 -->
<g id="edge23" class="edge"><title>4875&#45;&gt;1</title>
<path fill="none" stroke="green" stroke-width="0.616678" d="M1137.18,-74.169C1132.71,-71.0475 1127.84,-68.0138 1123,-65.6985 1070.24,-40.4559 1002.52,-26.1089 966.728,-19.7851"/>
<polygon fill="green" stroke="green" stroke-width="0.616678" points="967.144,-16.3055 956.698,-18.0769 965.968,-23.2062 967.144,-16.3055"/>
</g>
<!-- 5548&#45;&gt;3760 -->
<g id="edge7" class="edge"><title>5548&#45;&gt;3760</title>
<path fill="none" stroke="green" stroke-width="0.180456" d="M149.868,-150.794C150.153,-142.85 150.476,-133.865 150.782,-125.335"/>
<polygon fill="green" stroke="green" stroke-width="0.180456" points="154.283,-125.375 151.145,-115.256 147.288,-125.123 154.283,-125.375"/>
</g>
<!-- 5611&#45;&gt;3 -->
<g id="edge34" class="edge"><title>5611&#45;&gt;3</title>
<path fill="none" stroke="green" stroke-width="0.136153" d="M405.867,-75.0931C410.189,-71.9859 414.743,-68.7248 419,-65.6985 435.917,-53.6728 455.196,-40.1484 469.391,-30.224"/>
<polygon fill="green" stroke="green" stroke-width="0.136153" points="471.716,-32.8697 477.91,-24.274 467.707,-27.131 471.716,-32.8697"/>
</g>
<!-- 3760&#45;&gt;2 -->
<g id="edge6" class="edge"><title>3760&#45;&gt;2</title>
<path fill="none" stroke="red" stroke-width="0.126446" d="M154.338,-65.7552C157.264,-56.1271 161.391,-45.1219 165.558,-35.9003"/>
<polygon fill="red" stroke="red" stroke-width="0.126446" points="168.788,-37.2639 170.042,-26.7435 162.501,-34.1855 168.788,-37.2639"/>
</g>
</g>
</svg>
