<?xml version="1.0" encoding="UTF-8" standalone="no"?>
<!DOCTYPE svg PUBLIC "-//W3C//DTD SVG 1.1//EN"
 "http://www.w3.org/Graphics/SVG/1.1/DTD/svg11.dtd">
<!-- Generated by graphviz version 2.38.0 (20140413.2041)
 -->
<!-- Title: %3 Pages: 1 -->
<svg width="1105pt" height="531pt"
 viewBox="0.00 0.00 1104.85 530.88" xmlns="http://www.w3.org/2000/svg" xmlns:xlink="http://www.w3.org/1999/xlink">
<g id="graph0" class="graph" transform="scale(1 1) rotate(0) translate(4 526.884)">
<title>%3</title>
<polygon fill="white" stroke="none" points="-4,4 -4,-526.884 1100.85,-526.884 1100.85,4 -4,4"/>
<!-- &#45;1 -->
<g id="node1" class="node"><title>&#45;1</title>
<polygon fill="lightgray" stroke="black" points="24,-441.437 0,-441.437 0,-423.437 24,-423.437 24,-441.437"/>
<text text-anchor="middle" x="12" y="-430.237" font-family="Times,serif" font-size="9.00">&#45;1</text>
</g>
<!-- 6507 -->
<g id="node30" class="node"><title>6507</title>
<ellipse fill="white" stroke="black" cx="34" cy="-346.94" rx="25" ry="25"/>
<text text-anchor="middle" x="34" y="-344.74" font-family="Times,serif" font-size="9.00">6507</text>
</g>
<!-- &#45;1&#45;&gt;6507 -->
<g id="edge16" class="edge"><title>&#45;1&#45;&gt;6507</title>
<path fill="none" stroke="red" stroke-width="1.28574" d="M14.1095,-423.431C16.6855,-413.654 21.2047,-396.502 25.285,-381.016"/>
<polygon fill="red" stroke="red" stroke-width="1.28574" points="28.7147,-381.736 27.8782,-371.174 21.9457,-379.952 28.7147,-381.736"/>
</g>
<!-- &#45;2 -->
<g id="node2" class="node"><title>&#45;2</title>
<polygon fill="lightgray" stroke="black" points="264,-517.035 240,-517.035 240,-499.035 264,-499.035 264,-517.035"/>
<text text-anchor="middle" x="252" y="-505.835" font-family="Times,serif" font-size="9.00">&#45;2</text>
</g>
<!-- &#45;3 -->
<g id="node3" class="node"><title>&#45;3</title>
<polygon fill="lightgray" stroke="black" points="358,-270.442 334,-270.442 334,-252.442 358,-252.442 358,-270.442"/>
<text text-anchor="middle" x="346" y="-259.242" font-family="Times,serif" font-size="9.00">&#45;3</text>
</g>
<!-- 2197 -->
<g id="node32" class="node"><title>2197</title>
<ellipse fill="white" stroke="black" cx="341" cy="-175.945" rx="25" ry="25"/>
<text text-anchor="middle" x="341" y="-173.745" font-family="Times,serif" font-size="9.00">2197</text>
</g>
<!-- &#45;3&#45;&gt;2197 -->
<g id="edge14" class="edge"><title>&#45;3&#45;&gt;2197</title>
<path fill="none" stroke="green" stroke-width="0.647389" d="M345.521,-252.436C344.949,-242.885 343.955,-226.295 343.045,-211.096"/>
<polygon fill="green" stroke="green" stroke-width="0.647389" points="346.526,-210.673 342.434,-200.9 339.539,-211.091 346.526,-210.673"/>
</g>
<!-- &#45;4 -->
<g id="node4" class="node"><title>&#45;4</title>
<polygon fill="lightgray" stroke="black" points="306,-517.035 282,-517.035 282,-499.035 306,-499.035 306,-517.035"/>
<text text-anchor="middle" x="294" y="-505.835" font-family="Times,serif" font-size="9.00">&#45;4</text>
</g>
<!-- &#45;5 -->
<g id="node5" class="node"><title>&#45;5</title>
<polygon fill="lightgray" stroke="black" points="274,-355.94 250,-355.94 250,-337.94 274,-337.94 274,-355.94"/>
<text text-anchor="middle" x="262" y="-344.74" font-family="Times,serif" font-size="9.00">&#45;5</text>
</g>
<!-- 2 -->
<g id="node27" class="node"><title>2</title>
<ellipse fill="lightblue" stroke="black" cx="259" cy="-261.442" rx="14.7" ry="14.7"/>
<text text-anchor="middle" x="259" y="-259.242" font-family="Times,serif" font-size="9.00">2</text>
</g>
<!-- &#45;5&#45;&gt;2 -->
<g id="edge20" class="edge"><title>&#45;5&#45;&gt;2</title>
<path fill="none" stroke="red" stroke-width="0.845117" d="M261.712,-337.934C261.29,-326.17 260.484,-303.732 259.859,-286.363"/>
<polygon fill="red" stroke="red" stroke-width="0.845117" points="263.356,-286.212 259.499,-276.344 256.361,-286.464 263.356,-286.212"/>
</g>
<!-- &#45;6 -->
<g id="node6" class="node"><title>&#45;6</title>
<polygon fill="lightgray" stroke="black" points="348,-517.035 324,-517.035 324,-499.035 348,-499.035 348,-517.035"/>
<text text-anchor="middle" x="336" y="-505.835" font-family="Times,serif" font-size="9.00">&#45;6</text>
</g>
<!-- &#45;7 -->
<g id="node7" class="node"><title>&#45;7</title>
<polygon fill="lightgray" stroke="black" points="133,-441.437 109,-441.437 109,-423.437 133,-423.437 133,-441.437"/>
<text text-anchor="middle" x="121" y="-430.237" font-family="Times,serif" font-size="9.00">&#45;7</text>
</g>
<!-- &#45;7&#45;&gt;6507 -->
<g id="edge3" class="edge"><title>&#45;7&#45;&gt;6507</title>
<path fill="none" stroke="green" stroke-width="0.153839" d="M112.658,-423.431C100.378,-411.645 76.9309,-389.142 58.8186,-371.759"/>
<polygon fill="green" stroke="green" stroke-width="0.153839" points="61.0693,-369.068 51.4309,-364.669 56.2222,-374.118 61.0693,-369.068"/>
</g>
<!-- 2831 -->
<g id="node31" class="node"><title>2831</title>
<ellipse fill="white" stroke="black" cx="206" cy="-175.945" rx="25" ry="25"/>
<text text-anchor="middle" x="206" y="-173.745" font-family="Times,serif" font-size="9.00">2831</text>
</g>
<!-- &#45;7&#45;&gt;2831 -->
<g id="edge6" class="edge"><title>&#45;7&#45;&gt;2831</title>
<path fill="none" stroke="green" stroke-width="0.815857" d="M117.917,-423.395C111.364,-405.186 97.3341,-359.486 106,-322.191 115.582,-280.953 123.623,-271.307 148,-236.693 157.244,-223.568 169.381,-210.587 180.163,-200.095"/>
<polygon fill="green" stroke="green" stroke-width="0.815857" points="182.87,-202.352 187.713,-192.929 178.051,-197.275 182.87,-202.352"/>
</g>
<!-- 4505 -->
<g id="node33" class="node"><title>4505</title>
<ellipse fill="white" stroke="black" cx="140" cy="-346.94" rx="25" ry="25"/>
<text text-anchor="middle" x="140" y="-344.74" font-family="Times,serif" font-size="9.00">4505</text>
</g>
<!-- &#45;7&#45;&gt;4505 -->
<g id="edge4" class="edge"><title>&#45;7&#45;&gt;4505</title>
<path fill="none" stroke="red" stroke-width="0.392861" d="M122.822,-423.431C125.047,-413.654 128.95,-396.502 132.473,-381.016"/>
<polygon fill="red" stroke="red" stroke-width="0.392861" points="135.907,-381.701 134.713,-371.174 129.081,-380.148 135.907,-381.701"/>
</g>
<!-- 5851 -->
<g id="node35" class="node"><title>5851</title>
<ellipse fill="white" stroke="black" cx="207" cy="-346.94" rx="25" ry="25"/>
<text text-anchor="middle" x="207" y="-344.74" font-family="Times,serif" font-size="9.00">5851</text>
</g>
<!-- &#45;7&#45;&gt;5851 -->
<g id="edge17" class="edge"><title>&#45;7&#45;&gt;5851</title>
<path fill="none" stroke="red" stroke-width="0.103366" d="M129.246,-423.431C141.312,-411.716 164.282,-389.415 182.141,-372.076"/>
<polygon fill="red" stroke="red" stroke-width="0.103366" points="184.698,-374.471 189.435,-364.994 179.822,-369.449 184.698,-374.471"/>
</g>
<!-- &#45;8 -->
<g id="node8" class="node"><title>&#45;8</title>
<polygon fill="lightgray" stroke="black" points="316,-270.442 292,-270.442 292,-252.442 316,-252.442 316,-270.442"/>
<text text-anchor="middle" x="304" y="-259.242" font-family="Times,serif" font-size="9.00">&#45;8</text>
</g>
<!-- 1 -->
<g id="node26" class="node"><title>1</title>
<ellipse fill="lightblue" stroke="black" cx="288" cy="-14.8492" rx="14.7" ry="14.7"/>
<text text-anchor="middle" x="288" y="-12.6492" font-family="Times,serif" font-size="9.00">1</text>
</g>
<!-- &#45;8&#45;&gt;1 -->
<g id="edge7" class="edge"><title>&#45;8&#45;&gt;1</title>
<path fill="none" stroke="green" stroke-width="0.738247" d="M303.468,-252.304C301.296,-219.105 293.057,-93.1558 289.572,-39.8789"/>
<polygon fill="green" stroke="green" stroke-width="0.738247" points="293.05,-39.4229 288.904,-29.6728 286.065,-39.8799 293.05,-39.4229"/>
</g>
<!-- &#45;8&#45;&gt;2831 -->
<g id="edge15" class="edge"><title>&#45;8&#45;&gt;2831</title>
<path fill="none" stroke="green" stroke-width="0.43479" d="M297.354,-252.182C293.389,-247.45 288.139,-241.513 283,-236.693 267.834,-222.47 249.486,-208.135 234.505,-197.072"/>
<polygon fill="green" stroke="green" stroke-width="0.43479" points="236.266,-194.024 226.123,-190.962 232.143,-199.681 236.266,-194.024"/>
</g>
<!-- &#45;8&#45;&gt;2197 -->
<g id="edge9" class="edge"><title>&#45;8&#45;&gt;2197</title>
<path fill="none" stroke="green" stroke-width="0.211714" d="M307.548,-252.436C312.041,-242.295 320.05,-224.222 327.105,-208.301"/>
<polygon fill="green" stroke="green" stroke-width="0.211714" points="330.483,-209.317 331.335,-198.757 324.083,-206.481 330.483,-209.317"/>
</g>
<!-- &#45;9 -->
<g id="node9" class="node"><title>&#45;9</title>
<polygon fill="lightgray" stroke="black" points="390,-517.035 366,-517.035 366,-499.035 390,-499.035 390,-517.035"/>
<text text-anchor="middle" x="378" y="-505.835" font-family="Times,serif" font-size="9.00">&#45;9</text>
</g>
<!-- &#45;10 -->
<g id="node10" class="node"><title>&#45;10</title>
<polygon fill="lightgray" stroke="black" points="437.5,-517.035 408.5,-517.035 408.5,-499.035 437.5,-499.035 437.5,-517.035"/>
<text text-anchor="middle" x="423" y="-505.835" font-family="Times,serif" font-size="9.00">&#45;10</text>
</g>
<!-- &#45;11 -->
<g id="node11" class="node"><title>&#45;11</title>
<polygon fill="lightgray" stroke="black" points="484.5,-517.035 455.5,-517.035 455.5,-499.035 484.5,-499.035 484.5,-517.035"/>
<text text-anchor="middle" x="470" y="-505.835" font-family="Times,serif" font-size="9.00">&#45;11</text>
</g>
<!-- &#45;12 -->
<g id="node12" class="node"><title>&#45;12</title>
<polygon fill="lightgray" stroke="black" points="531.5,-517.035 502.5,-517.035 502.5,-499.035 531.5,-499.035 531.5,-517.035"/>
<text text-anchor="middle" x="517" y="-505.835" font-family="Times,serif" font-size="9.00">&#45;12</text>
</g>
<!-- &#45;13 -->
<g id="node13" class="node"><title>&#45;13</title>
<polygon fill="lightgray" stroke="black" points="71.5,-441.437 42.5,-441.437 42.5,-423.437 71.5,-423.437 71.5,-441.437"/>
<text text-anchor="middle" x="57" y="-430.237" font-family="Times,serif" font-size="9.00">&#45;13</text>
</g>
<!-- &#45;13&#45;&gt;6507 -->
<g id="edge10" class="edge"><title>&#45;13&#45;&gt;6507</title>
<path fill="none" stroke="green" stroke-width="0.23319" d="M54.7947,-423.431C52.1015,-413.654 47.3769,-396.502 43.1111,-381.016"/>
<polygon fill="green" stroke="green" stroke-width="0.23319" points="46.4302,-379.886 40.4001,-371.174 39.6815,-381.745 46.4302,-379.886"/>
</g>
<!-- &#45;14 -->
<g id="node14" class="node"><title>&#45;14</title>
<polygon fill="lightgray" stroke="black" points="578.5,-517.035 549.5,-517.035 549.5,-499.035 578.5,-499.035 578.5,-517.035"/>
<text text-anchor="middle" x="564" y="-505.835" font-family="Times,serif" font-size="9.00">&#45;14</text>
</g>
<!-- &#45;15 -->
<g id="node15" class="node"><title>&#45;15</title>
<polygon fill="lightgray" stroke="black" points="625.5,-517.035 596.5,-517.035 596.5,-499.035 625.5,-499.035 625.5,-517.035"/>
<text text-anchor="middle" x="611" y="-505.835" font-family="Times,serif" font-size="9.00">&#45;15</text>
</g>
<!-- &#45;16 -->
<g id="node16" class="node"><title>&#45;16</title>
<polygon fill="lightgray" stroke="black" points="221.5,-517.035 192.5,-517.035 192.5,-499.035 221.5,-499.035 221.5,-517.035"/>
<text text-anchor="middle" x="207" y="-505.835" font-family="Times,serif" font-size="9.00">&#45;16</text>
</g>
<!-- 8960 -->
<g id="node29" class="node"><title>8960</title>
<ellipse fill="white" stroke="black" cx="207" cy="-432.437" rx="25" ry="25"/>
<text text-anchor="middle" x="207" y="-430.237" font-family="Times,serif" font-size="9.00">8960</text>
</g>
<!-- &#45;16&#45;&gt;8960 -->
<g id="edge8" class="edge"><title>&#45;16&#45;&gt;8960</title>
<path fill="none" stroke="green" stroke-width="0.129634" d="M207,-498.878C207,-491.178 207,-479.1 207,-467.405"/>
<polygon fill="green" stroke="green" stroke-width="0.129634" points="210.5,-467.347 207,-457.347 203.5,-467.347 210.5,-467.347"/>
</g>
<!-- &#45;17 -->
<g id="node17" class="node"><title>&#45;17</title>
<polygon fill="lightgray" stroke="black" points="672.5,-517.035 643.5,-517.035 643.5,-499.035 672.5,-499.035 672.5,-517.035"/>
<text text-anchor="middle" x="658" y="-505.835" font-family="Times,serif" font-size="9.00">&#45;17</text>
</g>
<!-- &#45;18 -->
<g id="node18" class="node"><title>&#45;18</title>
<polygon fill="lightgray" stroke="black" points="719.5,-517.035 690.5,-517.035 690.5,-499.035 719.5,-499.035 719.5,-517.035"/>
<text text-anchor="middle" x="705" y="-505.835" font-family="Times,serif" font-size="9.00">&#45;18</text>
</g>
<!-- &#45;19 -->
<g id="node19" class="node"><title>&#45;19</title>
<polygon fill="lightgray" stroke="black" points="766.5,-517.035 737.5,-517.035 737.5,-499.035 766.5,-499.035 766.5,-517.035"/>
<text text-anchor="middle" x="752" y="-505.835" font-family="Times,serif" font-size="9.00">&#45;19</text>
</g>
<!-- &#45;20 -->
<g id="node20" class="node"><title>&#45;20</title>
<polygon fill="lightgray" stroke="black" points="813.5,-517.035 784.5,-517.035 784.5,-499.035 813.5,-499.035 813.5,-517.035"/>
<text text-anchor="middle" x="799" y="-505.835" font-family="Times,serif" font-size="9.00">&#45;20</text>
</g>
<!-- &#45;21 -->
<g id="node21" class="node"><title>&#45;21</title>
<polygon fill="lightgray" stroke="black" points="860.5,-517.035 831.5,-517.035 831.5,-499.035 860.5,-499.035 860.5,-517.035"/>
<text text-anchor="middle" x="846" y="-505.835" font-family="Times,serif" font-size="9.00">&#45;21</text>
</g>
<!-- &#45;22 -->
<g id="node22" class="node"><title>&#45;22</title>
<polygon fill="lightgray" stroke="black" points="907.5,-517.035 878.5,-517.035 878.5,-499.035 907.5,-499.035 907.5,-517.035"/>
<text text-anchor="middle" x="893" y="-505.835" font-family="Times,serif" font-size="9.00">&#45;22</text>
</g>
<!-- &#45;23 -->
<g id="node23" class="node"><title>&#45;23</title>
<polygon fill="lightgray" stroke="black" points="954.5,-517.035 925.5,-517.035 925.5,-499.035 954.5,-499.035 954.5,-517.035"/>
<text text-anchor="middle" x="940" y="-505.835" font-family="Times,serif" font-size="9.00">&#45;23</text>
</g>
<!-- &#45;24 -->
<g id="node24" class="node"><title>&#45;24</title>
<polygon fill="lightgray" stroke="black" points="1001.5,-517.035 972.5,-517.035 972.5,-499.035 1001.5,-499.035 1001.5,-517.035"/>
<text text-anchor="middle" x="987" y="-505.835" font-family="Times,serif" font-size="9.00">&#45;24</text>
</g>
<!-- 0 -->
<g id="node25" class="node"><title>0</title>
<ellipse fill="lightblue" stroke="black" cx="1034" cy="-508.035" rx="14.7" ry="14.7"/>
<text text-anchor="middle" x="1034" y="-505.835" font-family="Times,serif" font-size="9.00">0</text>
</g>
<!-- 2&#45;&gt;2831 -->
<g id="edge19" class="edge"><title>2&#45;&gt;2831</title>
<path fill="none" stroke="green" stroke-width="1.12273" d="M251.406,-248.479C244.39,-237.426 233.684,-220.56 224.43,-205.98"/>
<polygon fill="green" stroke="green" stroke-width="1.12273" points="227.216,-203.837 218.902,-197.27 221.306,-207.589 227.216,-203.837"/>
</g>
<!-- 3 -->
<g id="node28" class="node"><title>3</title>
<ellipse fill="lightblue" stroke="black" cx="1082" cy="-508.035" rx="14.7" ry="14.7"/>
<text text-anchor="middle" x="1082" y="-505.835" font-family="Times,serif" font-size="9.00">3</text>
</g>
<!-- 8960&#45;&gt;5851 -->
<g id="edge2" class="edge"><title>8960&#45;&gt;5851</title>
<path fill="none" stroke="green" stroke-width="0.221778" d="M207,-407.286C207,-399.342 207,-390.358 207,-381.827"/>
<polygon fill="green" stroke="green" stroke-width="0.221778" points="210.5,-381.748 207,-371.748 203.5,-381.748 210.5,-381.748"/>
</g>
<!-- 9180 -->
<g id="node36" class="node"><title>9180</title>
<ellipse fill="white" stroke="black" cx="216" cy="-90.4472" rx="25" ry="25"/>
<text text-anchor="middle" x="216" y="-88.2472" font-family="Times,serif" font-size="9.00">9180</text>
</g>
<!-- 2831&#45;&gt;9180 -->
<g id="edge11" class="edge"><title>2831&#45;&gt;9180</title>
<path fill="none" stroke="green" stroke-width="0.3" d="M208.839,-151.241C209.81,-143.132 210.916,-133.898 211.963,-125.154"/>
<polygon fill="green" stroke="green" stroke-width="0.3" points="215.44,-125.555 213.154,-115.21 208.49,-124.723 215.44,-125.555"/>
</g>
<!-- 2197&#45;&gt;1 -->
<g id="edge13" class="edge"><title>2197&#45;&gt;1</title>
<path fill="none" stroke="green" stroke-width="0.757027" d="M333.406,-152.15C323.37,-122.022 305.783,-69.2291 295.695,-38.9486"/>
<polygon fill="green" stroke="green" stroke-width="0.757027" points="298.946,-37.6321 292.465,-29.2509 292.305,-39.8445 298.946,-37.6321"/>
</g>
<!-- 4505&#45;&gt;2831 -->
<g id="edge18" class="edge"><title>4505&#45;&gt;2831</title>
<path fill="none" stroke="red" stroke-width="1.24128" d="M143.501,-322.182C147.382,-299.537 154.765,-264.821 167,-236.693 171.892,-225.448 178.832,-213.965 185.506,-204.109"/>
<polygon fill="red" stroke="red" stroke-width="1.24128" points="188.375,-206.113 191.243,-195.914 182.641,-202.099 188.375,-206.113"/>
</g>
<!-- 6074 -->
<g id="node34" class="node"><title>6074</title>
<ellipse fill="white" stroke="black" cx="201" cy="-261.442" rx="25" ry="25"/>
<text text-anchor="middle" x="201" y="-259.242" font-family="Times,serif" font-size="9.00">6074</text>
</g>
<!-- 6074&#45;&gt;2831 -->
<g id="edge1" class="edge"><title>6074&#45;&gt;2831</title>
<path fill="none" stroke="green" stroke-width="0.240619" d="M202.446,-236.291C202.922,-228.347 203.46,-219.363 203.971,-210.832"/>
<polygon fill="green" stroke="green" stroke-width="0.240619" points="207.47,-210.944 204.574,-200.753 200.483,-210.526 207.47,-210.944"/>
</g>
<!-- 5851&#45;&gt;6074 -->
<g id="edge12" class="edge"><title>5851&#45;&gt;6074</title>
<path fill="none" stroke="green" stroke-width="0.891244" d="M205.297,-322.236C204.72,-314.215 204.065,-305.094 203.443,-296.434"/>
<polygon fill="green" stroke="green" stroke-width="0.891244" points="206.915,-295.929 202.708,-286.205 199.933,-296.43 206.915,-295.929"/>
</g>
<!-- 9180&#45;&gt;1 -->
<g id="edge5" class="edge"><title>9180&#45;&gt;1</title>
<path fill="none" stroke="red" stroke-width="0.498481" d="M233.063,-72.0055C244.416,-60.4009 259.281,-45.206 270.685,-33.5488"/>
<polygon fill="red" stroke="red" stroke-width="0.498481" points="273.45,-35.727 277.941,-26.1311 268.446,-30.8318 273.45,-35.727"/>
</g>
</g>
</svg>
