<?xml version="1.0" encoding="UTF-8" standalone="no"?>
<!DOCTYPE svg PUBLIC "-//W3C//DTD SVG 1.1//EN"
 "http://www.w3.org/Graphics/SVG/1.1/DTD/svg11.dtd">
<!-- Generated by graphviz version 2.38.0 (20140413.2041)
 -->
<!-- Title: %3 Pages: 1 -->
<svg width="1215pt" height="348pt"
 viewBox="0.00 0.00 1215.00 348.19" xmlns="http://www.w3.org/2000/svg" xmlns:xlink="http://www.w3.org/1999/xlink">
<g id="graph0" class="graph" transform="scale(1 1) rotate(0) translate(4 344.191)">
<title>%3</title>
<polygon fill="white" stroke="none" points="-4,4 -4,-344.191 1211,-344.191 1211,4 -4,4"/>
<!-- &#45;1 -->
<g id="node1" class="node"><title>&#45;1</title>
<polygon fill="lightgray" stroke="black" points="868,-184.945 844,-184.945 844,-166.945 868,-166.945 868,-184.945"/>
<text text-anchor="middle" x="856" y="-173.745" font-family="Times,serif" font-size="9.00">&#45;1</text>
</g>
<!-- 0 -->
<g id="node25" class="node"><title>0</title>
<ellipse fill="lightblue" stroke="black" cx="448" cy="-100.347" rx="14.7" ry="14.7"/>
<text text-anchor="middle" x="448" y="-98.1467" font-family="Times,serif" font-size="9.00">0</text>
</g>
<!-- &#45;1&#45;&gt;0 -->
<g id="edge3" class="edge"><title>&#45;1&#45;&gt;0</title>
<path fill="none" stroke="green" stroke-width="0.236456" d="M850.843,-166.493C847.127,-161.185 841.613,-154.702 835,-151.196 818.89,-142.656 556.072,-113.213 472.977,-104.075"/>
<polygon fill="green" stroke="green" stroke-width="0.236456" points="473.232,-100.582 462.91,-102.97 472.468,-107.54 473.232,-100.582"/>
</g>
<!-- 1 -->
<g id="node26" class="node"><title>1</title>
<ellipse fill="lightblue" stroke="black" cx="856" cy="-100.347" rx="14.7" ry="14.7"/>
<text text-anchor="middle" x="856" y="-98.1467" font-family="Times,serif" font-size="9.00">1</text>
</g>
<!-- &#45;1&#45;&gt;1 -->
<g id="edge15" class="edge"><title>&#45;1&#45;&gt;1</title>
<path fill="none" stroke="green" stroke-width="0.234443" d="M856,-166.787C856,-156.886 856,-139.744 856,-125.488"/>
<polygon fill="green" stroke="green" stroke-width="0.234443" points="859.5,-125.317 856,-115.317 852.5,-125.317 859.5,-125.317"/>
</g>
<!-- 3 -->
<g id="node28" class="node"><title>3</title>
<ellipse fill="lightblue" stroke="black" cx="608" cy="-100.347" rx="14.7" ry="14.7"/>
<text text-anchor="middle" x="608" y="-98.1467" font-family="Times,serif" font-size="9.00">3</text>
</g>
<!-- &#45;1&#45;&gt;3 -->
<g id="edge48" class="edge"><title>&#45;1&#45;&gt;3</title>
<path fill="none" stroke="red" stroke-width="0.481329" d="M850.737,-166.683C846.976,-161.455 841.453,-154.989 835,-151.196 769.265,-112.552 676.876,-103.797 633.009,-101.862"/>
<polygon fill="red" stroke="red" stroke-width="0.481329" points="633.067,-98.3617 622.948,-101.503 632.817,-105.357 633.067,-98.3617"/>
</g>
<!-- &#45;2 -->
<g id="node2" class="node"><title>&#45;2</title>
<polygon fill="lightgray" stroke="black" points="146,-184.945 122,-184.945 122,-166.945 146,-166.945 146,-184.945"/>
<text text-anchor="middle" x="134" y="-173.745" font-family="Times,serif" font-size="9.00">&#45;2</text>
</g>
<!-- &#45;2&#45;&gt;0 -->
<g id="edge12" class="edge"><title>&#45;2&#45;&gt;0</title>
<path fill="none" stroke="red" stroke-width="0.5155" d="M139.205,-166.581C142.941,-161.31 148.459,-154.835 155,-151.196 201.154,-125.523 360.848,-109.033 422.986,-103.456"/>
<polygon fill="red" stroke="red" stroke-width="0.5155" points="423.422,-106.932 433.078,-102.57 422.81,-99.9584 423.422,-106.932"/>
</g>
<!-- 2 -->
<g id="node27" class="node"><title>2</title>
<ellipse fill="lightblue" stroke="black" cx="221" cy="-100.347" rx="14.7" ry="14.7"/>
<text text-anchor="middle" x="221" y="-98.1467" font-family="Times,serif" font-size="9.00">2</text>
</g>
<!-- &#45;2&#45;&gt;2 -->
<g id="edge38" class="edge"><title>&#45;2&#45;&gt;2</title>
<path fill="none" stroke="red" stroke-width="0.291422" stroke-dasharray="1,5" d="M140.623,-166.66C144.58,-161.919 149.83,-155.982 155,-151.196 169.213,-138.04 186.769,-124.909 200.201,-115.43"/>
<polygon fill="red" stroke="red" stroke-width="0.291422" points="202.532,-118.073 208.75,-109.494 198.539,-112.323 202.532,-118.073"/>
</g>
<!-- &#45;3 -->
<g id="node3" class="node"><title>&#45;3</title>
<polygon fill="lightgray" stroke="black" points="104,-184.945 80,-184.945 80,-166.945 104,-166.945 104,-184.945"/>
<text text-anchor="middle" x="92" y="-173.745" font-family="Times,serif" font-size="9.00">&#45;3</text>
</g>
<!-- &#45;3&#45;&gt;2 -->
<g id="edge26" class="edge"><title>&#45;3&#45;&gt;2</title>
<path fill="none" stroke="red" stroke-width="0.315962" stroke-dasharray="1,5" d="M97.9052,-166.679C101.77,-161.711 107.171,-155.532 113,-151.196 139.294,-131.635 174.491,-117.17 197.449,-109"/>
<polygon fill="red" stroke="red" stroke-width="0.315962" points="198.742,-112.256 207.059,-105.693 196.465,-105.637 198.742,-112.256"/>
</g>
<!-- &#45;4 -->
<g id="node4" class="node"><title>&#45;4</title>
<polygon fill="lightgray" stroke="black" points="689,-184.945 665,-184.945 665,-166.945 689,-166.945 689,-184.945"/>
<text text-anchor="middle" x="677" y="-173.745" font-family="Times,serif" font-size="9.00">&#45;4</text>
</g>
<!-- &#45;4&#45;&gt;0 -->
<g id="edge42" class="edge"><title>&#45;4&#45;&gt;0</title>
<path fill="none" stroke="green" stroke-width="0.103204" d="M671.713,-166.723C667.942,-161.512 662.416,-155.051 656,-151.196 596.956,-115.724 514.272,-105.485 473.206,-102.536"/>
<polygon fill="green" stroke="green" stroke-width="0.103204" points="473.21,-99.029 463.01,-101.894 472.771,-106.015 473.21,-99.029"/>
</g>
<!-- &#45;4&#45;&gt;1 -->
<g id="edge54" class="edge"><title>&#45;4&#45;&gt;1</title>
<path fill="none" stroke="green" stroke-width="0.206056" stroke-dasharray="1,5" d="M682.379,-166.87C686.189,-161.722 691.723,-155.274 698,-151.196 740.256,-123.741 798.674,-110.517 831.343,-104.905"/>
<polygon fill="green" stroke="green" stroke-width="0.206056" points="832.06,-108.334 841.374,-103.284 830.943,-101.424 832.06,-108.334"/>
</g>
<!-- &#45;4&#45;&gt;3 -->
<g id="edge23" class="edge"><title>&#45;4&#45;&gt;3</title>
<path fill="none" stroke="red" stroke-width="0.515846" stroke-dasharray="1,5" d="M669.7,-166.514C665.7,-161.94 660.628,-156.211 656,-151.196 645.943,-140.297 634.424,-128.319 625.192,-118.836"/>
<polygon fill="red" stroke="red" stroke-width="0.515846" points="627.55,-116.241 618.057,-111.536 622.544,-121.134 627.55,-116.241"/>
</g>
<!-- &#45;5 -->
<g id="node5" class="node"><title>&#45;5</title>
<polygon fill="lightgray" stroke="black" points="505,-184.945 481,-184.945 481,-166.945 505,-166.945 505,-184.945"/>
<text text-anchor="middle" x="493" y="-173.745" font-family="Times,serif" font-size="9.00">&#45;5</text>
</g>
<!-- &#45;5&#45;&gt;0 -->
<g id="edge34" class="edge"><title>&#45;5&#45;&gt;0</title>
<path fill="none" stroke="red" stroke-width="1.28939" d="M488.012,-166.787C481.455,-156.063 469.706,-136.847 460.63,-122.002"/>
<polygon fill="red" stroke="red" stroke-width="1.28939" points="463.596,-120.145 455.394,-113.439 457.624,-123.797 463.596,-120.145"/>
</g>
<!-- &#45;5&#45;&gt;3 -->
<g id="edge45" class="edge"><title>&#45;5&#45;&gt;3</title>
<path fill="none" stroke="green" stroke-width="0.485808" d="M498.991,-166.791C502.888,-161.865 508.293,-155.691 514,-151.196 536.097,-133.791 565.164,-119.455 585.092,-110.694"/>
<polygon fill="green" stroke="green" stroke-width="0.485808" points="586.513,-113.893 594.332,-106.744 583.761,-107.457 586.513,-113.893"/>
</g>
<!-- &#45;6 -->
<g id="node6" class="node"><title>&#45;6</title>
<polygon fill="lightgray" stroke="black" points="24,-184.945 0,-184.945 0,-166.945 24,-166.945 24,-184.945"/>
<text text-anchor="middle" x="12" y="-173.745" font-family="Times,serif" font-size="9.00">&#45;6</text>
</g>
<!-- &#45;6&#45;&gt;2 -->
<g id="edge11" class="edge"><title>&#45;6&#45;&gt;2</title>
<path fill="none" stroke="red" stroke-width="0.264759" d="M18.9812,-166.824C23.8331,-161.656 30.7157,-155.204 38,-151.196 90.0273,-122.566 159.57,-109.535 196.13,-104.333"/>
<polygon fill="red" stroke="red" stroke-width="0.264759" points="196.915,-107.759 206.361,-102.962 195.985,-100.821 196.915,-107.759"/>
</g>
<!-- 3760 -->
<g id="node30" class="node"><title>3760</title>
<ellipse fill="white" stroke="black" cx="221" cy="-24.7487" rx="25" ry="25"/>
<text text-anchor="middle" x="221" y="-22.5487" font-family="Times,serif" font-size="9.00">3760</text>
</g>
<!-- &#45;6&#45;&gt;3760 -->
<g id="edge10" class="edge"><title>&#45;6&#45;&gt;3760</title>
<path fill="none" stroke="red" stroke-width="0.121502" d="M20.4018,-166.717C25.3691,-161.996 31.8691,-156.059 38,-151.196 89.8863,-110.042 154.62,-67.5835 191.542,-44.1351"/>
<polygon fill="red" stroke="red" stroke-width="0.121502" points="193.723,-46.8975 200.305,-38.5955 189.982,-40.9806 193.723,-46.8975"/>
</g>
<!-- &#45;7 -->
<g id="node7" class="node"><title>&#45;7</title>
<polygon fill="lightgray" stroke="black" points="1207,-184.945 1183,-184.945 1183,-166.945 1207,-166.945 1207,-184.945"/>
<text text-anchor="middle" x="1195" y="-173.745" font-family="Times,serif" font-size="9.00">&#45;7</text>
</g>
<!-- &#45;7&#45;&gt;1 -->
<g id="edge55" class="edge"><title>&#45;7&#45;&gt;1</title>
<path fill="none" stroke="green" stroke-width="0.114915" stroke-dasharray="1,5" d="M1188.15,-166.561C1183.36,-161.282 1176.49,-154.805 1169,-151.196 1117.81,-126.526 945.463,-109.214 880.793,-103.447"/>
<polygon fill="green" stroke="green" stroke-width="0.114915" points="880.962,-99.9481 870.695,-102.562 880.352,-106.921 880.962,-99.9481"/>
</g>
<!-- &#45;7&#45;&gt;3760 -->
<g id="edge2" class="edge"><title>&#45;7&#45;&gt;3760</title>
<path fill="none" stroke="red" stroke-width="0.409954" d="M1188.06,-166.757C1183.22,-161.56 1176.34,-155.102 1169,-151.196 1059.59,-92.9782 1020.29,-105.601 898,-85.4975 654.232,-45.424 356.361,-30.934 255.937,-26.9849"/>
<polygon fill="red" stroke="red" stroke-width="0.409954" points="255.885,-23.4804 245.758,-26.5945 255.617,-30.4753 255.885,-23.4804"/>
</g>
<!-- &#45;8 -->
<g id="node8" class="node"><title>&#45;8</title>
<polygon fill="lightgray" stroke="black" points="731,-184.945 707,-184.945 707,-166.945 731,-166.945 731,-184.945"/>
<text text-anchor="middle" x="719" y="-173.745" font-family="Times,serif" font-size="9.00">&#45;8</text>
</g>
<!-- &#45;8&#45;&gt;0 -->
<g id="edge58" class="edge"><title>&#45;8&#45;&gt;0</title>
<path fill="none" stroke="red" stroke-width="0.864292" stroke-dasharray="1,5" d="M713.761,-166.641C710.01,-161.396 704.489,-154.927 698,-151.196 659.512,-129.068 527.806,-111.007 472.629,-104.229"/>
<polygon fill="red" stroke="red" stroke-width="0.864292" points="473.012,-100.75 462.664,-103.026 472.173,-107.699 473.012,-100.75"/>
</g>
<!-- &#45;8&#45;&gt;1 -->
<g id="edge9" class="edge"><title>&#45;8&#45;&gt;1</title>
<path fill="none" stroke="red" stroke-width="0.16824" stroke-dasharray="1,5" d="M725.224,-166.645C729.286,-161.664 734.946,-155.484 741,-151.196 769.615,-130.926 807.775,-116.422 832.123,-108.457"/>
<polygon fill="red" stroke="red" stroke-width="0.16824" points="833.468,-111.703 841.95,-105.353 831.36,-105.028 833.468,-111.703"/>
</g>
<!-- &#45;9 -->
<g id="node9" class="node"><title>&#45;9</title>
<polygon fill="lightgray" stroke="black" points="188,-184.945 164,-184.945 164,-166.945 188,-166.945 188,-184.945"/>
<text text-anchor="middle" x="176" y="-173.745" font-family="Times,serif" font-size="9.00">&#45;9</text>
</g>
<!-- &#45;9&#45;&gt;0 -->
<g id="edge41" class="edge"><title>&#45;9&#45;&gt;0</title>
<path fill="none" stroke="red" stroke-width="0.578907" d="M181.238,-166.64C184.988,-161.394 190.509,-154.924 197,-151.196 271.005,-108.686 375.279,-101.905 422.724,-101.168"/>
<polygon fill="red" stroke="red" stroke-width="0.578907" points="423.02,-104.666 432.994,-101.092 422.968,-97.6662 423.02,-104.666"/>
</g>
<!-- &#45;9&#45;&gt;2 -->
<g id="edge6" class="edge"><title>&#45;9&#45;&gt;2</title>
<path fill="none" stroke="red" stroke-width="0.329763" d="M180.988,-166.787C187.545,-156.063 199.294,-136.847 208.37,-122.002"/>
<polygon fill="red" stroke="red" stroke-width="0.329763" points="211.376,-123.797 213.606,-113.439 205.404,-120.145 211.376,-123.797"/>
</g>
<!-- &#45;10 -->
<g id="node10" class="node"><title>&#45;10</title>
<polygon fill="lightgray" stroke="black" points="552.5,-184.945 523.5,-184.945 523.5,-166.945 552.5,-166.945 552.5,-184.945"/>
<text text-anchor="middle" x="538" y="-173.745" font-family="Times,serif" font-size="9.00">&#45;10</text>
</g>
<!-- &#45;10&#45;&gt;0 -->
<g id="edge29" class="edge"><title>&#45;10&#45;&gt;0</title>
<path fill="none" stroke="green" stroke-width="0.574005" d="M530.255,-166.753C525.673,-162.044 519.673,-156.107 514,-151.196 499.357,-138.52 481.823,-125.364 468.51,-115.752"/>
<polygon fill="green" stroke="green" stroke-width="0.574005" points="470.226,-112.677 460.054,-109.714 466.158,-118.374 470.226,-112.677"/>
</g>
<!-- &#45;10&#45;&gt;3 -->
<g id="edge13" class="edge"><title>&#45;10&#45;&gt;3</title>
<path fill="none" stroke="red" stroke-width="0.149017" stroke-dasharray="1,5" d="M545.759,-166.787C556.671,-155.314 576.83,-134.119 591.25,-118.958"/>
<polygon fill="red" stroke="red" stroke-width="0.149017" points="593.833,-121.321 598.188,-111.663 588.761,-116.496 593.833,-121.321"/>
</g>
<!-- &#45;11 -->
<g id="node11" class="node"><title>&#45;11</title>
<polygon fill="lightgray" stroke="black" points="235.5,-184.945 206.5,-184.945 206.5,-166.945 235.5,-166.945 235.5,-184.945"/>
<text text-anchor="middle" x="221" y="-173.745" font-family="Times,serif" font-size="9.00">&#45;11</text>
</g>
<!-- &#45;11&#45;&gt;0 -->
<g id="edge18" class="edge"><title>&#45;11&#45;&gt;0</title>
<path fill="none" stroke="red" stroke-width="0.49942" d="M226.959,-166.741C231.16,-161.538 237.228,-155.078 244,-151.196 302.526,-117.644 383.024,-106.552 423.155,-102.98"/>
<polygon fill="red" stroke="red" stroke-width="0.49942" points="423.441,-106.468 433.127,-102.176 422.878,-99.4911 423.441,-106.468"/>
</g>
<!-- &#45;11&#45;&gt;2 -->
<g id="edge51" class="edge"><title>&#45;11&#45;&gt;2</title>
<path fill="none" stroke="red" stroke-width="1.17847" stroke-dasharray="1,5" d="M221,-166.787C221,-156.886 221,-139.744 221,-125.488"/>
<polygon fill="red" stroke="red" stroke-width="1.17847" points="224.5,-125.317 221,-115.317 217.5,-125.317 224.5,-125.317"/>
</g>
<!-- &#45;12 -->
<g id="node12" class="node"><title>&#45;12</title>
<polygon fill="lightgray" stroke="black" points="982.5,-184.945 953.5,-184.945 953.5,-166.945 982.5,-166.945 982.5,-184.945"/>
<text text-anchor="middle" x="968" y="-173.745" font-family="Times,serif" font-size="9.00">&#45;12</text>
</g>
<!-- &#45;12&#45;&gt;1 -->
<g id="edge21" class="edge"><title>&#45;12&#45;&gt;1</title>
<path fill="none" stroke="red" stroke-width="0.639788" d="M961.265,-166.879C956.931,-161.987 951.004,-155.817 945,-151.196 924.063,-135.081 897.303,-120.819 878.617,-111.723"/>
<polygon fill="red" stroke="red" stroke-width="0.639788" points="879.939,-108.476 869.406,-107.339 876.931,-114.797 879.939,-108.476"/>
</g>
<!-- &#45;13 -->
<g id="node13" class="node"><title>&#45;13</title>
<polygon fill="lightgray" stroke="black" points="368.5,-184.945 339.5,-184.945 339.5,-166.945 368.5,-166.945 368.5,-184.945"/>
<text text-anchor="middle" x="354" y="-173.745" font-family="Times,serif" font-size="9.00">&#45;13</text>
</g>
<!-- &#45;13&#45;&gt;0 -->
<g id="edge57" class="edge"><title>&#45;13&#45;&gt;0</title>
<path fill="none" stroke="green" stroke-width="0.840471" d="M361.31,-166.648C365.663,-161.904 371.413,-155.967 377,-151.196 392.878,-137.637 412.381,-124.145 426.926,-114.623"/>
<polygon fill="green" stroke="green" stroke-width="0.840471" points="429.172,-117.339 435.68,-108.978 425.379,-111.456 429.172,-117.339"/>
</g>
<!-- &#45;14 -->
<g id="node14" class="node"><title>&#45;14</title>
<polygon fill="lightgray" stroke="black" points="646.5,-184.945 617.5,-184.945 617.5,-166.945 646.5,-166.945 646.5,-184.945"/>
<text text-anchor="middle" x="632" y="-173.745" font-family="Times,serif" font-size="9.00">&#45;14</text>
</g>
<!-- &#45;14&#45;&gt;1 -->
<g id="edge60" class="edge"><title>&#45;14&#45;&gt;1</title>
<path fill="none" stroke="green" stroke-width="0.22549" d="M638.296,-166.758C642.712,-161.561 649.051,-155.103 656,-151.196 713.451,-118.894 791.76,-107.269 831.176,-103.288"/>
<polygon fill="green" stroke="green" stroke-width="0.22549" points="831.578,-106.766 841.212,-102.358 830.931,-99.7962 831.578,-106.766"/>
</g>
<!-- &#45;14&#45;&gt;2 -->
<g id="edge19" class="edge"><title>&#45;14&#45;&gt;2</title>
<path fill="none" stroke="red" stroke-width="0.148007" stroke-dasharray="1,5" d="M626.177,-166.488C622.034,-161.177 615.979,-154.694 609,-151.196 544.764,-119.002 321.647,-105.972 246.175,-102.42"/>
<polygon fill="red" stroke="red" stroke-width="0.148007" points="246.297,-98.922 236.148,-101.964 245.978,-105.915 246.297,-98.922"/>
</g>
<!-- &#45;14&#45;&gt;3 -->
<g id="edge37" class="edge"><title>&#45;14&#45;&gt;3</title>
<path fill="none" stroke="red" stroke-width="0.272945" d="M629.34,-166.787C626.04,-156.668 620.274,-138.987 615.567,-124.553"/>
<polygon fill="red" stroke="red" stroke-width="0.272945" points="618.805,-123.193 612.378,-114.771 612.15,-125.363 618.805,-123.193"/>
</g>
<!-- &#45;15 -->
<g id="node15" class="node"><title>&#45;15</title>
<polygon fill="lightgray" stroke="black" points="1129.5,-340.191 1100.5,-340.191 1100.5,-322.191 1129.5,-322.191 1129.5,-340.191"/>
<text text-anchor="middle" x="1115" y="-328.991" font-family="Times,serif" font-size="9.00">&#45;15</text>
</g>
<!-- &#45;15&#45;&gt;1 -->
<g id="edge22" class="edge"><title>&#45;15&#45;&gt;1</title>
<path fill="none" stroke="red" stroke-width="0.214604" stroke-dasharray="1,5" d="M1119.82,-321.808C1135.26,-293.767 1179.93,-202.143 1136,-151.196 1100.5,-110.019 946.698,-128.573 894,-115.196 889.07,-113.945 883.887,-112.292 878.99,-110.567"/>
<polygon fill="red" stroke="red" stroke-width="0.214604" points="880.103,-107.246 869.51,-107.025 877.653,-113.804 880.103,-107.246"/>
</g>
<!-- 4550 -->
<g id="node29" class="node"><title>4550</title>
<ellipse fill="white" stroke="black" cx="1075" cy="-261.442" rx="25" ry="25"/>
<text text-anchor="middle" x="1075" y="-259.242" font-family="Times,serif" font-size="9.00">4550</text>
</g>
<!-- &#45;15&#45;&gt;4550 -->
<g id="edge56" class="edge"><title>&#45;15&#45;&gt;4550</title>
<path fill="none" stroke="green" stroke-width="0.321254" stroke-dasharray="1,5" d="M1110.25,-322.153C1105.81,-314.63 1098.9,-302.922 1092.37,-291.859"/>
<polygon fill="green" stroke="green" stroke-width="0.321254" points="1095.36,-290.05 1087.27,-283.218 1089.34,-293.609 1095.36,-290.05"/>
</g>
<!-- &#45;16 -->
<g id="node16" class="node"><title>&#45;16</title>
<polygon fill="lightgray" stroke="black" points="778.5,-184.945 749.5,-184.945 749.5,-166.945 778.5,-166.945 778.5,-184.945"/>
<text text-anchor="middle" x="764" y="-173.745" font-family="Times,serif" font-size="9.00">&#45;16</text>
</g>
<!-- &#45;16&#45;&gt;0 -->
<g id="edge25" class="edge"><title>&#45;16&#45;&gt;0</title>
<path fill="none" stroke="green" stroke-width="0.521274" d="M757.798,-166.584C753.421,-161.314 747.091,-154.839 740,-151.196 693.179,-127.14 534.525,-109.681 472.829,-103.651"/>
<polygon fill="green" stroke="green" stroke-width="0.521274" points="473.099,-100.161 462.81,-102.69 472.43,-107.129 473.099,-100.161"/>
</g>
<!-- &#45;16&#45;&gt;1 -->
<g id="edge40" class="edge"><title>&#45;16&#45;&gt;1</title>
<path fill="none" stroke="green" stroke-width="0.722825" d="M771.719,-166.723C776.292,-162.003 782.292,-156.066 788,-151.196 803.346,-138.102 821.876,-124.66 835.715,-115.039"/>
<polygon fill="green" stroke="green" stroke-width="0.722825" points="837.791,-117.858 844.05,-109.31 833.827,-112.089 837.791,-117.858"/>
</g>
<!-- &#45;17 -->
<g id="node17" class="node"><title>&#45;17</title>
<polygon fill="lightgray" stroke="black" points="925.5,-270.442 896.5,-270.442 896.5,-252.442 925.5,-252.442 925.5,-270.442"/>
<text text-anchor="middle" x="911" y="-259.242" font-family="Times,serif" font-size="9.00">&#45;17</text>
</g>
<!-- &#45;17&#45;&gt;0 -->
<g id="edge5" class="edge"><title>&#45;17&#45;&gt;0</title>
<path fill="none" stroke="red" stroke-width="0.260768" d="M896.302,-260.08C809.772,-257.804 369.19,-244.12 330,-200.693 315.262,-184.362 317.842,-169.53 330,-151.196 350.615,-120.107 394.874,-108.358 422.942,-103.951"/>
<polygon fill="red" stroke="red" stroke-width="0.260768" points="423.736,-107.375 433.171,-102.556 422.79,-100.44 423.736,-107.375"/>
</g>
<!-- &#45;17&#45;&gt;1 -->
<g id="edge53" class="edge"><title>&#45;17&#45;&gt;1</title>
<path fill="none" stroke="red" stroke-width="0.387152" d="M925.725,-254.627C945.05,-246.092 978.137,-228.147 992,-200.693 1001.92,-181.056 1004.6,-169.231 992,-151.196 967.009,-115.42 913.404,-105.241 881.463,-102.395"/>
<polygon fill="red" stroke="red" stroke-width="0.387152" points="881.374,-98.8801 871.151,-101.665 880.879,-105.863 881.374,-98.8801"/>
</g>
<!-- 4017 -->
<g id="node31" class="node"><title>4017</title>
<ellipse fill="white" stroke="black" cx="911" cy="-175.945" rx="25" ry="25"/>
<text text-anchor="middle" x="911" y="-173.745" font-family="Times,serif" font-size="9.00">4017</text>
</g>
<!-- &#45;17&#45;&gt;4017 -->
<g id="edge47" class="edge"><title>&#45;17&#45;&gt;4017</title>
<path fill="none" stroke="red" stroke-width="0.195147" d="M911,-252.436C911,-242.885 911,-226.295 911,-211.096"/>
<polygon fill="red" stroke="red" stroke-width="0.195147" points="914.5,-210.9 911,-200.9 907.5,-210.9 914.5,-210.9"/>
</g>
<!-- &#45;18 -->
<g id="node18" class="node"><title>&#45;18</title>
<polygon fill="lightgray" stroke="black" points="415.5,-184.945 386.5,-184.945 386.5,-166.945 415.5,-166.945 415.5,-184.945"/>
<text text-anchor="middle" x="401" y="-173.745" font-family="Times,serif" font-size="9.00">&#45;18</text>
</g>
<!-- &#45;18&#45;&gt;0 -->
<g id="edge33" class="edge"><title>&#45;18&#45;&gt;0</title>
<path fill="none" stroke="red" stroke-width="0.194804" stroke-dasharray="1,5" d="M406.209,-166.787C413.097,-156.002 425.471,-136.625 434.973,-121.745"/>
<polygon fill="red" stroke="red" stroke-width="0.194804" points="438.011,-123.491 440.444,-113.179 432.112,-119.723 438.011,-123.491"/>
</g>
<!-- &#45;18&#45;&gt;2 -->
<g id="edge31" class="edge"><title>&#45;18&#45;&gt;2</title>
<path fill="none" stroke="red" stroke-width="0.439148" d="M394.618,-166.905C390.166,-161.771 383.818,-155.327 377,-151.196 334.615,-125.517 277.631,-111.697 245.575,-105.491"/>
<polygon fill="red" stroke="red" stroke-width="0.439148" points="246.186,-102.045 235.717,-103.673 244.916,-108.929 246.186,-102.045"/>
</g>
<!-- &#45;18&#45;&gt;3 -->
<g id="edge43" class="edge"><title>&#45;18&#45;&gt;3</title>
<path fill="none" stroke="green" stroke-width="0.211823" d="M406.991,-166.797C411.206,-161.617 417.277,-155.162 424,-151.196 475.408,-120.869 545.7,-108.532 582.757,-103.888"/>
<polygon fill="green" stroke="green" stroke-width="0.211823" points="583.604,-107.314 593.133,-102.683 582.796,-100.36 583.604,-107.314"/>
</g>
<!-- &#45;19 -->
<g id="node19" class="node"><title>&#45;19</title>
<polygon fill="lightgray" stroke="black" points="462.5,-184.945 433.5,-184.945 433.5,-166.945 462.5,-166.945 462.5,-184.945"/>
<text text-anchor="middle" x="448" y="-173.745" font-family="Times,serif" font-size="9.00">&#45;19</text>
</g>
<!-- &#45;19&#45;&gt;0 -->
<g id="edge46" class="edge"><title>&#45;19&#45;&gt;0</title>
<path fill="none" stroke="red" stroke-width="0.295558" stroke-dasharray="1,5" d="M448,-166.787C448,-156.886 448,-139.744 448,-125.488"/>
<polygon fill="red" stroke="red" stroke-width="0.295558" points="451.5,-125.317 448,-115.317 444.5,-125.317 451.5,-125.317"/>
</g>
<!-- &#45;19&#45;&gt;1 -->
<g id="edge35" class="edge"><title>&#45;19&#45;&gt;1</title>
<path fill="none" stroke="red" stroke-width="0.52564" d="M454.155,-166.49C458.512,-161.18 464.838,-154.697 472,-151.196 535.768,-120.029 755.6,-106.362 830.653,-102.53"/>
<polygon fill="red" stroke="red" stroke-width="0.52564" points="831.212,-106.007 841.027,-102.017 830.866,-99.0157 831.212,-106.007"/>
</g>
<!-- &#45;19&#45;&gt;2 -->
<g id="edge16" class="edge"><title>&#45;19&#45;&gt;2</title>
<path fill="none" stroke="green" stroke-width="0.156945" d="M441.709,-166.75C437.294,-161.55 430.956,-155.091 424,-151.196 365.536,-118.458 285.805,-107.013 245.898,-103.176"/>
<polygon fill="green" stroke="green" stroke-width="0.156945" points="246.017,-99.673 235.749,-102.284 245.404,-106.646 246.017,-99.673"/>
</g>
<!-- &#45;20 -->
<g id="node20" class="node"><title>&#45;20</title>
<polygon fill="lightgray" stroke="black" points="594.5,-340.191 565.5,-340.191 565.5,-322.191 594.5,-322.191 594.5,-340.191"/>
<text text-anchor="middle" x="580" y="-328.991" font-family="Times,serif" font-size="9.00">&#45;20</text>
</g>
<!-- &#45;20&#45;&gt;2 -->
<g id="edge1" class="edge"><title>&#45;20&#45;&gt;2</title>
<path fill="none" stroke="red" stroke-width="0.219489" d="M565.354,-328.828C488.702,-321.364 134.801,-282.759 71,-200.693 57.4976,-183.326 58.129,-169.037 71,-151.196 99.5409,-111.635 160.77,-102.979 195.53,-101.384"/>
<polygon fill="red" stroke="red" stroke-width="0.219489" points="195.917,-104.874 205.81,-101.083 195.713,-97.877 195.917,-104.874"/>
</g>
<!-- &#45;20&#45;&gt;4550 -->
<g id="edge39" class="edge"><title>&#45;20&#45;&gt;4550</title>
<path fill="none" stroke="red" stroke-width="0.759887" stroke-dasharray="1,5" d="M594.572,-328.621C643.036,-323.351 803.199,-305.528 935,-286.191 971.12,-280.892 1012.3,-273.777 1040.59,-268.72"/>
<polygon fill="red" stroke="red" stroke-width="0.759887" points="1041.55,-272.104 1050.77,-266.891 1040.31,-265.215 1041.55,-272.104"/>
</g>
<!-- &#45;21 -->
<g id="node21" class="node"><title>&#45;21</title>
<polygon fill="lightgray" stroke="black" points="282.5,-184.945 253.5,-184.945 253.5,-166.945 282.5,-166.945 282.5,-184.945"/>
<text text-anchor="middle" x="268" y="-173.745" font-family="Times,serif" font-size="9.00">&#45;21</text>
</g>
<!-- &#45;21&#45;&gt;0 -->
<g id="edge24" class="edge"><title>&#45;21&#45;&gt;0</title>
<path fill="none" stroke="green" stroke-width="1.83461" d="M276.522,-166.539C281.997,-161.518 289.472,-155.333 297,-151.196 338.769,-128.24 392.877,-113.575 423.683,-106.459"/>
<polygon fill="green" stroke="green" stroke-width="1.83461" points="424.553,-109.851 433.55,-104.255 423.028,-103.019 424.553,-109.851"/>
</g>
<!-- &#45;21&#45;&gt;2 -->
<g id="edge49" class="edge"><title>&#45;21&#45;&gt;2</title>
<path fill="none" stroke="red" stroke-width="0.375596" stroke-dasharray="1,5" d="M262.791,-166.787C255.903,-156.002 243.529,-136.625 234.027,-121.745"/>
<polygon fill="red" stroke="red" stroke-width="0.375596" points="236.888,-119.723 228.556,-113.179 230.989,-123.491 236.888,-119.723"/>
</g>
<!-- &#45;22 -->
<g id="node22" class="node"><title>&#45;22</title>
<polygon fill="lightgray" stroke="black" points="599.5,-184.945 570.5,-184.945 570.5,-166.945 599.5,-166.945 599.5,-184.945"/>
<text text-anchor="middle" x="585" y="-173.745" font-family="Times,serif" font-size="9.00">&#45;22</text>
</g>
<!-- &#45;22&#45;&gt;1 -->
<g id="edge27" class="edge"><title>&#45;22&#45;&gt;1</title>
<path fill="none" stroke="green" stroke-width="0.190985" d="M591.239,-166.654C595.631,-161.413 601.965,-154.945 609,-151.196 682.984,-111.768 784.614,-103.436 831.041,-101.738"/>
<polygon fill="green" stroke="green" stroke-width="0.190985" points="831.206,-105.235 841.1,-101.446 831.002,-98.2382 831.206,-105.235"/>
</g>
<!-- &#45;22&#45;&gt;2 -->
<g id="edge8" class="edge"><title>&#45;22&#45;&gt;2</title>
<path fill="none" stroke="red" stroke-width="0.136663" stroke-dasharray="1,5" d="M579.157,-166.528C575.005,-161.234 568.948,-154.754 562,-151.196 506.51,-122.779 315.387,-107.594 246.23,-102.929"/>
<polygon fill="red" stroke="red" stroke-width="0.136663" points="246.066,-99.4106 235.858,-102.247 245.607,-106.396 246.066,-99.4106"/>
</g>
<!-- &#45;22&#45;&gt;3 -->
<g id="edge59" class="edge"><title>&#45;22&#45;&gt;3</title>
<path fill="none" stroke="green" stroke-width="0.12835" stroke-dasharray="1,5" d="M587.549,-166.787C590.712,-156.668 596.237,-138.987 600.748,-124.553"/>
<polygon fill="green" stroke="green" stroke-width="0.12835" points="604.163,-125.36 603.805,-114.771 597.481,-123.272 604.163,-125.36"/>
</g>
<!-- &#45;23 -->
<g id="node23" class="node"><title>&#45;23</title>
<polygon fill="lightgray" stroke="black" points="1176.5,-340.191 1147.5,-340.191 1147.5,-322.191 1176.5,-322.191 1176.5,-340.191"/>
<text text-anchor="middle" x="1162" y="-328.991" font-family="Times,serif" font-size="9.00">&#45;23</text>
</g>
<!-- &#45;24 -->
<g id="node24" class="node"><title>&#45;24</title>
<polygon fill="lightgray" stroke="black" points="825.5,-184.945 796.5,-184.945 796.5,-166.945 825.5,-166.945 825.5,-184.945"/>
<text text-anchor="middle" x="811" y="-173.745" font-family="Times,serif" font-size="9.00">&#45;24</text>
</g>
<!-- &#45;24&#45;&gt;0 -->
<g id="edge50" class="edge"><title>&#45;24&#45;&gt;0</title>
<path fill="none" stroke="green" stroke-width="0.331077" d="M805.156,-166.528C801.004,-161.236 794.947,-154.755 788,-151.196 759.971,-136.835 546.856,-112.249 473.059,-104.077"/>
<polygon fill="green" stroke="green" stroke-width="0.331077" points="473.163,-100.568 462.84,-102.952 472.396,-107.525 473.163,-100.568"/>
</g>
<!-- &#45;24&#45;&gt;1 -->
<g id="edge4" class="edge"><title>&#45;24&#45;&gt;1</title>
<path fill="none" stroke="green" stroke-width="0.326121" stroke-dasharray="1,5" d="M815.988,-166.787C822.545,-156.063 834.294,-136.847 843.37,-122.002"/>
<polygon fill="green" stroke="green" stroke-width="0.326121" points="846.376,-123.797 848.606,-113.439 840.404,-120.145 846.376,-123.797"/>
</g>
<!-- 1&#45;&gt;1 -->
<g id="edge32" class="edge"><title>1&#45;&gt;1</title>
<path fill="none" stroke="green" stroke-width="0.861245" d="M866.428,-111.173C877.039,-117.541 888.849,-113.933 888.849,-100.347 888.849,-91.0064 883.267,-86.3818 876.33,-86.473"/>
<polygon fill="green" stroke="green" stroke-width="0.861245" points="874.956,-83.2338 866.428,-89.5204 877.015,-89.9242 874.956,-83.2338"/>
</g>
<!-- 2&#45;&gt;2 -->
<g id="edge28" class="edge"><title>2&#45;&gt;2</title>
<path fill="none" stroke="green" stroke-width="0.274362" d="M231.428,-111.173C242.039,-117.541 253.849,-113.933 253.849,-100.347 253.849,-91.0064 248.267,-86.3818 241.33,-86.473"/>
<polygon fill="green" stroke="green" stroke-width="0.274362" points="239.956,-83.2338 231.428,-89.5204 242.015,-89.9242 239.956,-83.2338"/>
</g>
<!-- 2&#45;&gt;3760 -->
<g id="edge14" class="edge"><title>2&#45;&gt;3760</title>
<path fill="none" stroke="red" stroke-width="0.272154" d="M215.684,-86.1889C214.598,-78.5979 214.128,-68.6795 214.277,-59.0788"/>
<polygon fill="red" stroke="red" stroke-width="0.272154" points="217.781,-59.0418 214.68,-48.9109 210.786,-58.7643 217.781,-59.0418"/>
</g>
<!-- 3&#45;&gt;3 -->
<g id="edge17" class="edge"><title>3&#45;&gt;3</title>
<path fill="none" stroke="green" stroke-width="0.237394" d="M618.428,-111.173C629.039,-117.541 640.849,-113.933 640.849,-100.347 640.849,-91.0064 635.267,-86.3818 628.33,-86.473"/>
<polygon fill="green" stroke="green" stroke-width="0.237394" points="626.956,-83.2338 618.428,-89.5204 629.015,-89.9242 626.956,-83.2338"/>
</g>
<!-- 4550&#45;&gt;1 -->
<g id="edge20" class="edge"><title>4550&#45;&gt;1</title>
<path fill="none" stroke="red" stroke-width="0.479843" d="M1067.16,-237.902C1057.46,-213.199 1038.63,-174.048 1010,-151.196 971.519,-120.486 913.583,-108.462 880.842,-103.932"/>
<polygon fill="red" stroke="red" stroke-width="0.479843" points="881.127,-100.44 870.769,-102.667 880.255,-107.386 881.127,-100.44"/>
</g>
<!-- 4979 -->
<g id="node32" class="node"><title>4979</title>
<ellipse fill="white" stroke="black" cx="1102" cy="-175.945" rx="25" ry="25"/>
<text text-anchor="middle" x="1102" y="-173.745" font-family="Times,serif" font-size="9.00">4979</text>
</g>
<!-- 4550&#45;&gt;4979 -->
<g id="edge36" class="edge"><title>4550&#45;&gt;4979</title>
<path fill="none" stroke="green" stroke-width="0.509915" d="M1082.38,-237.626C1085.21,-228.882 1088.49,-218.732 1091.55,-209.265"/>
<polygon fill="green" stroke="green" stroke-width="0.509915" points="1094.88,-210.325 1094.63,-199.733 1088.22,-208.171 1094.88,-210.325"/>
</g>
<!-- 3760&#45;&gt;2 -->
<g id="edge7" class="edge"><title>3760&#45;&gt;2</title>
<path fill="none" stroke="red" stroke-width="0.451737" d="M227.32,-48.9109C227.89,-57.5516 227.893,-67.3607 227.331,-76.0165"/>
<polygon fill="red" stroke="red" stroke-width="0.451737" points="223.826,-75.8907 226.316,-86.1889 230.792,-76.5859 223.826,-75.8907"/>
</g>
<!-- 4017&#45;&gt;1 -->
<g id="edge52" class="edge"><title>4017&#45;&gt;1</title>
<path fill="none" stroke="red" stroke-width="0.194813" d="M896.549,-155.608C888.593,-144.96 878.738,-131.774 870.737,-121.067"/>
<polygon fill="red" stroke="red" stroke-width="0.194813" points="873.323,-118.681 864.533,-112.766 867.716,-122.871 873.323,-118.681"/>
</g>
<!-- 4017&#45;&gt;3 -->
<g id="edge30" class="edge"><title>4017&#45;&gt;3</title>
<path fill="none" stroke="green" stroke-width="0.396953" d="M892.059,-159.612C887.36,-156.417 882.18,-153.365 877,-151.196 792.253,-115.717 681.996,-105.393 633.164,-102.466"/>
<polygon fill="green" stroke="green" stroke-width="0.396953" points="633.087,-98.9571 622.912,-101.909 632.707,-105.947 633.087,-98.9571"/>
</g>
<!-- 4979&#45;&gt;1 -->
<g id="edge44" class="edge"><title>4979&#45;&gt;1</title>
<path fill="none" stroke="red" stroke-width="0.124897" d="M1081.99,-161.126C1076.07,-157.497 1069.45,-153.859 1063,-151.196 1000.07,-125.208 920.543,-110.811 880.875,-104.779"/>
<polygon fill="red" stroke="red" stroke-width="0.124897" points="881.193,-101.288 870.79,-103.297 880.175,-108.214 881.193,-101.288"/>
</g>
</g>
</svg>
