<?xml version="1.0" encoding="UTF-8" standalone="no"?>
<!DOCTYPE svg PUBLIC "-//W3C//DTD SVG 1.1//EN"
 "http://www.w3.org/Graphics/SVG/1.1/DTD/svg11.dtd">
<!-- Generated by graphviz version 2.38.0 (20140413.2041)
 -->
<!-- Title: %3 Pages: 1 -->
<svg width="1117pt" height="551pt"
 viewBox="0.00 0.00 1116.85 550.68" xmlns="http://www.w3.org/2000/svg" xmlns:xlink="http://www.w3.org/1999/xlink">
<g id="graph0" class="graph" transform="scale(1 1) rotate(0) translate(4 546.683)">
<title>%3</title>
<polygon fill="white" stroke="none" points="-4,4 -4,-546.683 1112.85,-546.683 1112.85,4 -4,4"/>
<!-- &#45;1 -->
<g id="node1" class="node"><title>&#45;1</title>
<polygon fill="lightgray" stroke="black" points="71,-526.935 47,-526.935 47,-508.935 71,-508.935 71,-526.935"/>
<text text-anchor="middle" x="59" y="-515.735" font-family="Times,serif" font-size="9.00">&#45;1</text>
</g>
<!-- 6507 -->
<g id="node32" class="node"><title>6507</title>
<ellipse fill="white" stroke="black" cx="75" cy="-432.437" rx="25" ry="25"/>
<text text-anchor="middle" x="75" y="-430.237" font-family="Times,serif" font-size="9.00">6507</text>
</g>
<!-- &#45;1&#45;&gt;6507 -->
<g id="edge13" class="edge"><title>&#45;1&#45;&gt;6507</title>
<path fill="none" stroke="red" stroke-width="0.323901" d="M60.5341,-508.929C62.3771,-499.311 65.5875,-482.557 68.5164,-467.272"/>
<polygon fill="red" stroke="red" stroke-width="0.323901" points="72.0343,-467.511 70.4789,-457.031 65.1593,-466.194 72.0343,-467.511"/>
</g>
<!-- &#45;2 -->
<g id="node2" class="node"><title>&#45;2</title>
<polygon fill="lightgray" stroke="black" points="181,-526.935 157,-526.935 157,-508.935 181,-508.935 181,-526.935"/>
<text text-anchor="middle" x="169" y="-515.735" font-family="Times,serif" font-size="9.00">&#45;2</text>
</g>
<!-- &#45;3 -->
<g id="node3" class="node"><title>&#45;3</title>
<polygon fill="lightgray" stroke="black" points="24,-184.945 0,-184.945 0,-166.945 24,-166.945 24,-184.945"/>
<text text-anchor="middle" x="12" y="-173.745" font-family="Times,serif" font-size="9.00">&#45;3</text>
</g>
<!-- 2197 -->
<g id="node34" class="node"><title>2197</title>
<ellipse fill="white" stroke="black" cx="54" cy="-90.4472" rx="25" ry="25"/>
<text text-anchor="middle" x="54" y="-88.2472" font-family="Times,serif" font-size="9.00">2197</text>
</g>
<!-- &#45;3&#45;&gt;2197 -->
<g id="edge12" class="edge"><title>&#45;3&#45;&gt;2197</title>
<path fill="none" stroke="green" stroke-width="0.648075" d="M16.0271,-166.939C21.2104,-156.634 30.5142,-138.138 38.615,-122.033"/>
<polygon fill="green" stroke="green" stroke-width="0.648075" points="41.8383,-123.414 43.2053,-112.908 35.5849,-120.268 41.8383,-123.414"/>
</g>
<!-- &#45;4 -->
<g id="node4" class="node"><title>&#45;4</title>
<polygon fill="lightgray" stroke="black" points="271,-526.935 247,-526.935 247,-508.935 271,-508.935 271,-526.935"/>
<text text-anchor="middle" x="259" y="-515.735" font-family="Times,serif" font-size="9.00">&#45;4</text>
</g>
<!-- &#45;5 -->
<g id="node5" class="node"><title>&#45;5</title>
<polygon fill="lightgray" stroke="black" points="290,-270.442 266,-270.442 266,-252.442 290,-252.442 290,-270.442"/>
<text text-anchor="middle" x="278" y="-259.242" font-family="Times,serif" font-size="9.00">&#45;5</text>
</g>
<!-- 2 -->
<g id="node27" class="node"><title>2</title>
<ellipse fill="lightblue" stroke="black" cx="260" cy="-175.945" rx="14.7" ry="14.7"/>
<text text-anchor="middle" x="260" y="-173.745" font-family="Times,serif" font-size="9.00">2</text>
</g>
<!-- &#45;5&#45;&gt;2 -->
<g id="edge17" class="edge"><title>&#45;5&#45;&gt;2</title>
<path fill="none" stroke="red" stroke-width="0.840652" d="M276.274,-252.436C273.724,-240.605 268.845,-217.977 265.092,-200.567"/>
<polygon fill="red" stroke="red" stroke-width="0.840652" points="268.461,-199.582 262.932,-190.544 261.618,-201.057 268.461,-199.582"/>
</g>
<!-- &#45;6 -->
<g id="node6" class="node"><title>&#45;6</title>
<polygon fill="lightgray" stroke="black" points="313,-526.935 289,-526.935 289,-508.935 313,-508.935 313,-526.935"/>
<text text-anchor="middle" x="301" y="-515.735" font-family="Times,serif" font-size="9.00">&#45;6</text>
</g>
<!-- &#45;7 -->
<g id="node7" class="node"><title>&#45;7</title>
<polygon fill="lightgray" stroke="black" points="159,-441.437 135,-441.437 135,-423.437 159,-423.437 159,-441.437"/>
<text text-anchor="middle" x="147" y="-430.237" font-family="Times,serif" font-size="9.00">&#45;7</text>
</g>
<!-- 2831 -->
<g id="node33" class="node"><title>2831</title>
<ellipse fill="white" stroke="black" cx="132" cy="-90.4472" rx="25" ry="25"/>
<text text-anchor="middle" x="132" y="-88.2472" font-family="Times,serif" font-size="9.00">2831</text>
</g>
<!-- &#45;7&#45;&gt;2831 -->
<g id="edge5" class="edge"><title>&#45;7&#45;&gt;2831</title>
<path fill="none" stroke="green" stroke-width="0.93254" d="M140.405,-423.153C132.11,-412.152 118.312,-391.764 113,-371.688 89.962,-284.623 110.054,-177.325 123.035,-124.302"/>
<polygon fill="green" stroke="green" stroke-width="0.93254" points="126.47,-124.995 125.522,-114.443 119.682,-123.283 126.47,-124.995"/>
</g>
<!-- 4505 -->
<g id="node35" class="node"><title>4505</title>
<ellipse fill="white" stroke="black" cx="147" cy="-346.94" rx="25" ry="25"/>
<text text-anchor="middle" x="147" y="-344.74" font-family="Times,serif" font-size="9.00">4505</text>
</g>
<!-- &#45;7&#45;&gt;4505 -->
<g id="edge4" class="edge"><title>&#45;7&#45;&gt;4505</title>
<path fill="none" stroke="red" stroke-width="0.360281" d="M147,-423.431C147,-413.88 147,-397.29 147,-382.091"/>
<polygon fill="red" stroke="red" stroke-width="0.360281" points="150.5,-381.895 147,-371.895 143.5,-381.895 150.5,-381.895"/>
</g>
<!-- 5851 -->
<g id="node37" class="node"><title>5851</title>
<ellipse fill="white" stroke="black" cx="214" cy="-346.94" rx="25" ry="25"/>
<text text-anchor="middle" x="214" y="-344.74" font-family="Times,serif" font-size="9.00">5851</text>
</g>
<!-- &#45;7&#45;&gt;5851 -->
<g id="edge14" class="edge"><title>&#45;7&#45;&gt;5851</title>
<path fill="none" stroke="green" stroke-width="0.163903" d="M153.424,-423.431C162.375,-412.276 179.028,-391.522 192.612,-374.594"/>
<polygon fill="green" stroke="green" stroke-width="0.163903" points="195.457,-376.64 198.986,-366.65 189.998,-372.26 195.457,-376.64"/>
</g>
<!-- &#45;8 -->
<g id="node8" class="node"><title>&#45;8</title>
<polygon fill="lightgray" stroke="black" points="66,-184.945 42,-184.945 42,-166.945 66,-166.945 66,-184.945"/>
<text text-anchor="middle" x="54" y="-173.745" font-family="Times,serif" font-size="9.00">&#45;8</text>
</g>
<!-- &#45;8&#45;&gt;2197 -->
<g id="edge8" class="edge"><title>&#45;8&#45;&gt;2197</title>
<path fill="none" stroke="green" stroke-width="0.341344" d="M54,-166.939C54,-157.387 54,-140.798 54,-125.599"/>
<polygon fill="green" stroke="green" stroke-width="0.341344" points="57.5001,-125.402 54,-115.402 50.5001,-125.402 57.5001,-125.402"/>
</g>
<!-- &#45;9 -->
<g id="node9" class="node"><title>&#45;9</title>
<polygon fill="lightgray" stroke="black" points="355,-526.935 331,-526.935 331,-508.935 355,-508.935 355,-526.935"/>
<text text-anchor="middle" x="343" y="-515.735" font-family="Times,serif" font-size="9.00">&#45;9</text>
</g>
<!-- &#45;10 -->
<g id="node10" class="node"><title>&#45;10</title>
<polygon fill="lightgray" stroke="black" points="402.5,-526.935 373.5,-526.935 373.5,-508.935 402.5,-508.935 402.5,-526.935"/>
<text text-anchor="middle" x="388" y="-515.735" font-family="Times,serif" font-size="9.00">&#45;10</text>
</g>
<!-- &#45;11 -->
<g id="node11" class="node"><title>&#45;11</title>
<polygon fill="lightgray" stroke="black" points="449.5,-526.935 420.5,-526.935 420.5,-508.935 449.5,-508.935 449.5,-526.935"/>
<text text-anchor="middle" x="435" y="-515.735" font-family="Times,serif" font-size="9.00">&#45;11</text>
</g>
<!-- &#45;12 -->
<g id="node12" class="node"><title>&#45;12</title>
<polygon fill="lightgray" stroke="black" points="496.5,-526.935 467.5,-526.935 467.5,-508.935 496.5,-508.935 496.5,-526.935"/>
<text text-anchor="middle" x="482" y="-515.735" font-family="Times,serif" font-size="9.00">&#45;12</text>
</g>
<!-- &#45;13 -->
<g id="node13" class="node"><title>&#45;13</title>
<polygon fill="lightgray" stroke="black" points="543.5,-526.935 514.5,-526.935 514.5,-508.935 543.5,-508.935 543.5,-526.935"/>
<text text-anchor="middle" x="529" y="-515.735" font-family="Times,serif" font-size="9.00">&#45;13</text>
</g>
<!-- &#45;14 -->
<g id="node14" class="node"><title>&#45;14</title>
<polygon fill="lightgray" stroke="black" points="590.5,-526.935 561.5,-526.935 561.5,-508.935 590.5,-508.935 590.5,-526.935"/>
<text text-anchor="middle" x="576" y="-515.735" font-family="Times,serif" font-size="9.00">&#45;14</text>
</g>
<!-- &#45;15 -->
<g id="node15" class="node"><title>&#45;15</title>
<polygon fill="lightgray" stroke="black" points="637.5,-526.935 608.5,-526.935 608.5,-508.935 637.5,-508.935 637.5,-526.935"/>
<text text-anchor="middle" x="623" y="-515.735" font-family="Times,serif" font-size="9.00">&#45;15</text>
</g>
<!-- &#45;16 -->
<g id="node16" class="node"><title>&#45;16</title>
<polygon fill="lightgray" stroke="black" points="228.5,-526.935 199.5,-526.935 199.5,-508.935 228.5,-508.935 228.5,-526.935"/>
<text text-anchor="middle" x="214" y="-515.735" font-family="Times,serif" font-size="9.00">&#45;16</text>
</g>
<!-- 9319 -->
<g id="node31" class="node"><title>9319</title>
<ellipse fill="white" stroke="black" cx="214" cy="-432.437" rx="25" ry="25"/>
<text text-anchor="middle" x="214" y="-430.237" font-family="Times,serif" font-size="9.00">9319</text>
</g>
<!-- &#45;16&#45;&gt;9319 -->
<g id="edge9" class="edge"><title>&#45;16&#45;&gt;9319</title>
<path fill="none" stroke="green" stroke-width="0.289707" d="M214,-508.929C214,-499.377 214,-482.788 214,-467.589"/>
<polygon fill="green" stroke="green" stroke-width="0.289707" points="217.5,-467.392 214,-457.392 210.5,-467.392 217.5,-467.392"/>
</g>
<!-- &#45;17 -->
<g id="node17" class="node"><title>&#45;17</title>
<polygon fill="lightgray" stroke="black" points="684.5,-526.935 655.5,-526.935 655.5,-508.935 684.5,-508.935 684.5,-526.935"/>
<text text-anchor="middle" x="670" y="-515.735" font-family="Times,serif" font-size="9.00">&#45;17</text>
</g>
<!-- &#45;18 -->
<g id="node18" class="node"><title>&#45;18</title>
<polygon fill="lightgray" stroke="black" points="731.5,-526.935 702.5,-526.935 702.5,-508.935 731.5,-508.935 731.5,-526.935"/>
<text text-anchor="middle" x="717" y="-515.735" font-family="Times,serif" font-size="9.00">&#45;18</text>
</g>
<!-- &#45;19 -->
<g id="node19" class="node"><title>&#45;19</title>
<polygon fill="lightgray" stroke="black" points="778.5,-526.935 749.5,-526.935 749.5,-508.935 778.5,-508.935 778.5,-526.935"/>
<text text-anchor="middle" x="764" y="-515.735" font-family="Times,serif" font-size="9.00">&#45;19</text>
</g>
<!-- &#45;20 -->
<g id="node20" class="node"><title>&#45;20</title>
<polygon fill="lightgray" stroke="black" points="825.5,-526.935 796.5,-526.935 796.5,-508.935 825.5,-508.935 825.5,-526.935"/>
<text text-anchor="middle" x="811" y="-515.735" font-family="Times,serif" font-size="9.00">&#45;20</text>
</g>
<!-- &#45;21 -->
<g id="node21" class="node"><title>&#45;21</title>
<polygon fill="lightgray" stroke="black" points="872.5,-526.935 843.5,-526.935 843.5,-508.935 872.5,-508.935 872.5,-526.935"/>
<text text-anchor="middle" x="858" y="-515.735" font-family="Times,serif" font-size="9.00">&#45;21</text>
</g>
<!-- &#45;22 -->
<g id="node22" class="node"><title>&#45;22</title>
<polygon fill="lightgray" stroke="black" points="919.5,-526.935 890.5,-526.935 890.5,-508.935 919.5,-508.935 919.5,-526.935"/>
<text text-anchor="middle" x="905" y="-515.735" font-family="Times,serif" font-size="9.00">&#45;22</text>
</g>
<!-- &#45;23 -->
<g id="node23" class="node"><title>&#45;23</title>
<polygon fill="lightgray" stroke="black" points="966.5,-526.935 937.5,-526.935 937.5,-508.935 966.5,-508.935 966.5,-526.935"/>
<text text-anchor="middle" x="952" y="-515.735" font-family="Times,serif" font-size="9.00">&#45;23</text>
</g>
<!-- &#45;24 -->
<g id="node24" class="node"><title>&#45;24</title>
<polygon fill="lightgray" stroke="black" points="1013.5,-526.935 984.5,-526.935 984.5,-508.935 1013.5,-508.935 1013.5,-526.935"/>
<text text-anchor="middle" x="999" y="-515.735" font-family="Times,serif" font-size="9.00">&#45;24</text>
</g>
<!-- 0 -->
<g id="node25" class="node"><title>0</title>
<ellipse fill="lightblue" stroke="black" cx="1046" cy="-517.935" rx="14.7" ry="14.7"/>
<text text-anchor="middle" x="1046" y="-515.735" font-family="Times,serif" font-size="9.00">0</text>
</g>
<!-- 1 -->
<g id="node26" class="node"><title>1</title>
<ellipse fill="lightblue" stroke="black" cx="93" cy="-14.8492" rx="14.7" ry="14.7"/>
<text text-anchor="middle" x="93" y="-12.6492" font-family="Times,serif" font-size="9.00">1</text>
</g>
<!-- 2&#45;&gt;2831 -->
<g id="edge16" class="edge"><title>2&#45;&gt;2831</title>
<path fill="none" stroke="red" stroke-width="0.166505" d="M247.727,-166.939C227.852,-153.974 188.099,-128.042 160.78,-110.221"/>
<polygon fill="red" stroke="red" stroke-width="0.166505" points="162.676,-107.279 152.388,-104.747 158.851,-113.142 162.676,-107.279"/>
</g>
<!-- 3 -->
<g id="node28" class="node"><title>3</title>
<ellipse fill="lightblue" stroke="black" cx="1094" cy="-517.935" rx="14.7" ry="14.7"/>
<text text-anchor="middle" x="1094" y="-515.735" font-family="Times,serif" font-size="9.00">3</text>
</g>
<!-- 9794 -->
<g id="node29" class="node"><title>9794</title>
<ellipse fill="white" stroke="black" cx="185" cy="-261.442" rx="25" ry="25"/>
<text text-anchor="middle" x="185" y="-259.242" font-family="Times,serif" font-size="9.00">9794</text>
</g>
<!-- 6074 -->
<g id="node36" class="node"><title>6074</title>
<ellipse fill="white" stroke="black" cx="185" cy="-175.945" rx="25" ry="25"/>
<text text-anchor="middle" x="185" y="-173.745" font-family="Times,serif" font-size="9.00">6074</text>
</g>
<!-- 9794&#45;&gt;6074 -->
<g id="edge18" class="edge"><title>9794&#45;&gt;6074</title>
<path fill="none" stroke="green" stroke-width="0.304029" d="M185,-236.291C185,-228.347 185,-219.363 185,-210.832"/>
<polygon fill="green" stroke="green" stroke-width="0.304029" points="188.5,-210.753 185,-200.753 181.5,-210.753 188.5,-210.753"/>
</g>
<!-- 7718 -->
<g id="node30" class="node"><title>7718</title>
<ellipse fill="white" stroke="black" cx="114" cy="-517.935" rx="25" ry="25"/>
<text text-anchor="middle" x="114" y="-515.735" font-family="Times,serif" font-size="9.00">7718</text>
</g>
<!-- 7718&#45;&gt;6507 -->
<g id="edge3" class="edge"><title>7718&#45;&gt;6507</title>
<path fill="none" stroke="red" stroke-width="0.943202" d="M103.753,-494.997C99.4091,-485.696 94.2675,-474.688 89.5419,-464.571"/>
<polygon fill="red" stroke="red" stroke-width="0.943202" points="92.5815,-462.808 85.1784,-455.229 86.2392,-465.77 92.5815,-462.808"/>
</g>
<!-- 9319&#45;&gt;5851 -->
<g id="edge2" class="edge"><title>9319&#45;&gt;5851</title>
<path fill="none" stroke="red" stroke-width="1.24187" d="M214,-407.286C214,-399.342 214,-390.358 214,-381.827"/>
<polygon fill="red" stroke="red" stroke-width="1.24187" points="217.5,-381.748 214,-371.748 210.5,-381.748 217.5,-381.748"/>
</g>
<!-- 2831&#45;&gt;1 -->
<g id="edge7" class="edge"><title>2831&#45;&gt;1</title>
<path fill="none" stroke="red" stroke-width="0.42654" d="M120.72,-68.1596C115.59,-58.4802 109.533,-47.0482 104.39,-37.344"/>
<polygon fill="red" stroke="red" stroke-width="0.42654" points="107.396,-35.5418 99.6213,-28.3446 101.211,-38.8195 107.396,-35.5418"/>
</g>
<!-- 2197&#45;&gt;1 -->
<g id="edge11" class="edge"><title>2197&#45;&gt;1</title>
<path fill="none" stroke="green" stroke-width="0.748067" d="M65.2804,-68.1596C70.4096,-58.4802 76.4675,-47.0482 81.6098,-37.344"/>
<polygon fill="green" stroke="green" stroke-width="0.748067" points="84.789,-38.8195 86.3787,-28.3446 78.6037,-35.5418 84.789,-38.8195"/>
</g>
<!-- 4505&#45;&gt;2831 -->
<g id="edge15" class="edge"><title>4505&#45;&gt;2831</title>
<path fill="none" stroke="red" stroke-width="1.26387" d="M145.589,-321.998C142.914,-276.62 137.099,-177.963 134.015,-125.634"/>
<polygon fill="red" stroke="red" stroke-width="1.26387" points="137.501,-125.288 133.418,-115.511 130.513,-125.7 137.501,-125.288"/>
</g>
<!-- 6074&#45;&gt;2831 -->
<g id="edge1" class="edge"><title>6074&#45;&gt;2831</title>
<path fill="none" stroke="red" stroke-width="0.526145" d="M172.17,-154.732C165.643,-144.45 157.593,-131.767 150.417,-120.462"/>
<polygon fill="red" stroke="red" stroke-width="0.526145" points="153.209,-118.33 144.895,-111.763 147.299,-122.081 153.209,-118.33"/>
</g>
<!-- 5851&#45;&gt;9794 -->
<g id="edge6" class="edge"><title>5851&#45;&gt;9794</title>
<path fill="none" stroke="green" stroke-width="0.3" d="M206.076,-323.124C203.014,-314.308 199.456,-304.063 196.144,-294.529"/>
<polygon fill="green" stroke="green" stroke-width="0.3" points="199.402,-293.24 192.814,-284.942 192.789,-295.536 199.402,-293.24"/>
</g>
<!-- 5851&#45;&gt;6074 -->
<g id="edge10" class="edge"><title>5851&#45;&gt;6074</title>
<path fill="none" stroke="green" stroke-width="0.838083" d="M219.086,-322.491C223.017,-300.07 226.625,-265.51 219,-236.693 216.085,-225.677 210.614,-214.566 204.9,-204.964"/>
<polygon fill="green" stroke="green" stroke-width="0.838083" points="207.715,-202.866 199.422,-196.273 201.793,-206.599 207.715,-202.866"/>
</g>
</g>
</svg>
