<?xml version="1.0" encoding="UTF-8" standalone="no"?>
<!DOCTYPE svg PUBLIC "-//W3C//DTD SVG 1.1//EN"
 "http://www.w3.org/Graphics/SVG/1.1/DTD/svg11.dtd">
<!-- Generated by graphviz version 2.38.0 (20140413.2041)
 -->
<!-- Title: %3 Pages: 1 -->
<svg width="1145pt" height="531pt"
 viewBox="0.00 0.00 1144.85 530.88" xmlns="http://www.w3.org/2000/svg" xmlns:xlink="http://www.w3.org/1999/xlink">
<g id="graph0" class="graph" transform="scale(1 1) rotate(0) translate(4 526.884)">
<title>%3</title>
<polygon fill="white" stroke="none" points="-4,4 -4,-526.884 1140.85,-526.884 1140.85,4 -4,4"/>
<!-- &#45;1 -->
<g id="node1" class="node"><title>&#45;1</title>
<polygon fill="lightgray" stroke="black" points="24,-441.437 0,-441.437 0,-423.437 24,-423.437 24,-441.437"/>
<text text-anchor="middle" x="12" y="-430.237" font-family="Times,serif" font-size="9.00">&#45;1</text>
</g>
<!-- 6507 -->
<g id="node32" class="node"><title>6507</title>
<ellipse fill="white" stroke="black" cx="58" cy="-346.94" rx="25" ry="25"/>
<text text-anchor="middle" x="58" y="-344.74" font-family="Times,serif" font-size="9.00">6507</text>
</g>
<!-- &#45;1&#45;&gt;6507 -->
<g id="edge20" class="edge"><title>&#45;1&#45;&gt;6507</title>
<path fill="none" stroke="red" stroke-width="0.323901" d="M16.4107,-423.431C22.1252,-413.058 32.4127,-394.385 41.3258,-378.206"/>
<polygon fill="red" stroke="red" stroke-width="0.323901" points="44.6102,-379.498 46.37,-369.05 38.479,-376.12 44.6102,-379.498"/>
</g>
<!-- &#45;2 -->
<g id="node2" class="node"><title>&#45;2</title>
<polygon fill="lightgray" stroke="black" points="304,-517.035 280,-517.035 280,-499.035 304,-499.035 304,-517.035"/>
<text text-anchor="middle" x="292" y="-505.835" font-family="Times,serif" font-size="9.00">&#45;2</text>
</g>
<!-- &#45;3 -->
<g id="node3" class="node"><title>&#45;3</title>
<polygon fill="lightgray" stroke="black" points="380,-441.437 356,-441.437 356,-423.437 380,-423.437 380,-441.437"/>
<text text-anchor="middle" x="368" y="-430.237" font-family="Times,serif" font-size="9.00">&#45;3</text>
</g>
<!-- 2197 -->
<g id="node34" class="node"><title>2197</title>
<ellipse fill="white" stroke="black" cx="368" cy="-346.94" rx="25" ry="25"/>
<text text-anchor="middle" x="368" y="-344.74" font-family="Times,serif" font-size="9.00">2197</text>
</g>
<!-- &#45;3&#45;&gt;2197 -->
<g id="edge19" class="edge"><title>&#45;3&#45;&gt;2197</title>
<path fill="none" stroke="green" stroke-width="0.648075" d="M368,-423.431C368,-413.88 368,-397.29 368,-382.091"/>
<polygon fill="green" stroke="green" stroke-width="0.648075" points="371.5,-381.895 368,-371.895 364.5,-381.895 371.5,-381.895"/>
</g>
<!-- &#45;4 -->
<g id="node4" class="node"><title>&#45;4</title>
<polygon fill="lightgray" stroke="black" points="346,-517.035 322,-517.035 322,-499.035 346,-499.035 346,-517.035"/>
<text text-anchor="middle" x="334" y="-505.835" font-family="Times,serif" font-size="9.00">&#45;4</text>
</g>
<!-- &#45;5 -->
<g id="node5" class="node"><title>&#45;5</title>
<polygon fill="lightgray" stroke="black" points="356,-270.442 332,-270.442 332,-252.442 356,-252.442 356,-270.442"/>
<text text-anchor="middle" x="344" y="-259.242" font-family="Times,serif" font-size="9.00">&#45;5</text>
</g>
<!-- 2 -->
<g id="node27" class="node"><title>2</title>
<ellipse fill="lightblue" stroke="black" cx="344" cy="-175.945" rx="14.7" ry="14.7"/>
<text text-anchor="middle" x="344" y="-173.745" font-family="Times,serif" font-size="9.00">2</text>
</g>
<!-- &#45;5&#45;&gt;2 -->
<g id="edge24" class="edge"><title>&#45;5&#45;&gt;2</title>
<path fill="none" stroke="red" stroke-width="0.840652" d="M344,-252.436C344,-240.673 344,-218.235 344,-200.866"/>
<polygon fill="red" stroke="red" stroke-width="0.840652" points="347.5,-200.847 344,-190.847 340.5,-200.847 347.5,-200.847"/>
</g>
<!-- &#45;6 -->
<g id="node6" class="node"><title>&#45;6</title>
<polygon fill="lightgray" stroke="black" points="388,-517.035 364,-517.035 364,-499.035 388,-499.035 388,-517.035"/>
<text text-anchor="middle" x="376" y="-505.835" font-family="Times,serif" font-size="9.00">&#45;6</text>
</g>
<!-- &#45;7 -->
<g id="node7" class="node"><title>&#45;7</title>
<polygon fill="lightgray" stroke="black" points="143,-441.437 119,-441.437 119,-423.437 143,-423.437 143,-441.437"/>
<text text-anchor="middle" x="131" y="-430.237" font-family="Times,serif" font-size="9.00">&#45;7</text>
</g>
<!-- &#45;7&#45;&gt;6507 -->
<g id="edge2" class="edge"><title>&#45;7&#45;&gt;6507</title>
<path fill="none" stroke="red" stroke-width="0.216067" stroke-dasharray="1,5" d="M124,-423.431C114.187,-412.206 95.8749,-391.261 81.0248,-374.275"/>
<polygon fill="red" stroke="red" stroke-width="0.216067" points="83.2823,-371.54 74.0653,-366.315 78.0124,-376.147 83.2823,-371.54"/>
</g>
<!-- 2831 -->
<g id="node33" class="node"><title>2831</title>
<ellipse fill="white" stroke="black" cx="240" cy="-90.4472" rx="25" ry="25"/>
<text text-anchor="middle" x="240" y="-88.2472" font-family="Times,serif" font-size="9.00">2831</text>
</g>
<!-- &#45;7&#45;&gt;2831 -->
<g id="edge10" class="edge"><title>&#45;7&#45;&gt;2831</title>
<path fill="none" stroke="green" stroke-width="0.93254" d="M131.749,-423.264C135.145,-388.763 150.989,-252.172 197,-151.196 202.382,-139.385 210.262,-127.541 217.81,-117.55"/>
<polygon fill="green" stroke="green" stroke-width="0.93254" points="220.599,-119.665 224.01,-109.634 215.088,-115.348 220.599,-119.665"/>
</g>
<!-- 4505 -->
<g id="node35" class="node"><title>4505</title>
<ellipse fill="white" stroke="black" cx="96" cy="-261.442" rx="25" ry="25"/>
<text text-anchor="middle" x="96" y="-259.242" font-family="Times,serif" font-size="9.00">4505</text>
</g>
<!-- &#45;7&#45;&gt;4505 -->
<g id="edge7" class="edge"><title>&#45;7&#45;&gt;4505</title>
<path fill="none" stroke="red" stroke-width="0.360281" d="M129.312,-423.286C124.614,-400.602 111.188,-335.775 102.885,-295.686"/>
<polygon fill="red" stroke="red" stroke-width="0.360281" points="106.298,-294.906 100.842,-285.824 99.4433,-296.326 106.298,-294.906"/>
</g>
<!-- 5851 -->
<g id="node37" class="node"><title>5851</title>
<ellipse fill="white" stroke="black" cx="240" cy="-346.94" rx="25" ry="25"/>
<text text-anchor="middle" x="240" y="-344.74" font-family="Times,serif" font-size="9.00">5851</text>
</g>
<!-- &#45;7&#45;&gt;5851 -->
<g id="edge21" class="edge"><title>&#45;7&#45;&gt;5851</title>
<path fill="none" stroke="green" stroke-width="0.163903" d="M141.451,-423.431C157.682,-410.998 189.479,-386.64 212.577,-368.946"/>
<polygon fill="green" stroke="green" stroke-width="0.163903" points="214.838,-371.623 220.648,-362.764 210.581,-366.066 214.838,-371.623"/>
</g>
<!-- &#45;8 -->
<g id="node8" class="node"><title>&#45;8</title>
<polygon fill="lightgray" stroke="black" points="252,-441.437 228,-441.437 228,-423.437 252,-423.437 252,-441.437"/>
<text text-anchor="middle" x="240" y="-430.237" font-family="Times,serif" font-size="9.00">&#45;8</text>
</g>
<!-- &#45;8&#45;&gt;2197 -->
<g id="edge13" class="edge"><title>&#45;8&#45;&gt;2197</title>
<path fill="none" stroke="green" stroke-width="0.341344" d="M246.025,-423.327C249.935,-418.417 255.342,-412.245 261,-407.688 284.199,-389.005 314.025,-372.887 336.291,-362.117"/>
<polygon fill="green" stroke="green" stroke-width="0.341344" points="337.79,-365.28 345.33,-357.836 334.794,-358.953 337.79,-365.28"/>
</g>
<!-- &#45;8&#45;&gt;4505 -->
<g id="edge8" class="edge"><title>&#45;8&#45;&gt;4505</title>
<path fill="none" stroke="red" stroke-width="0.415518" stroke-dasharray="1,5" d="M233.055,-423.286C212.547,-399.219 151.615,-327.711 118.325,-288.642"/>
<polygon fill="red" stroke="red" stroke-width="0.415518" points="120.815,-286.168 111.665,-280.827 115.487,-290.708 120.815,-286.168"/>
</g>
<!-- &#45;8&#45;&gt;5851 -->
<g id="edge6" class="edge"><title>&#45;8&#45;&gt;5851</title>
<path fill="none" stroke="green" stroke-width="0.608206" stroke-dasharray="1,5" d="M240,-423.431C240,-413.88 240,-397.29 240,-382.091"/>
<polygon fill="green" stroke="green" stroke-width="0.608206" points="243.5,-381.895 240,-371.895 236.5,-381.895 243.5,-381.895"/>
</g>
<!-- &#45;9 -->
<g id="node9" class="node"><title>&#45;9</title>
<polygon fill="lightgray" stroke="black" points="430,-517.035 406,-517.035 406,-499.035 430,-499.035 430,-517.035"/>
<text text-anchor="middle" x="418" y="-505.835" font-family="Times,serif" font-size="9.00">&#45;9</text>
</g>
<!-- &#45;10 -->
<g id="node10" class="node"><title>&#45;10</title>
<polygon fill="lightgray" stroke="black" points="477.5,-517.035 448.5,-517.035 448.5,-499.035 477.5,-499.035 477.5,-517.035"/>
<text text-anchor="middle" x="463" y="-505.835" font-family="Times,serif" font-size="9.00">&#45;10</text>
</g>
<!-- &#45;11 -->
<g id="node11" class="node"><title>&#45;11</title>
<polygon fill="lightgray" stroke="black" points="524.5,-517.035 495.5,-517.035 495.5,-499.035 524.5,-499.035 524.5,-517.035"/>
<text text-anchor="middle" x="510" y="-505.835" font-family="Times,serif" font-size="9.00">&#45;11</text>
</g>
<!-- &#45;12 -->
<g id="node12" class="node"><title>&#45;12</title>
<polygon fill="lightgray" stroke="black" points="571.5,-517.035 542.5,-517.035 542.5,-499.035 571.5,-499.035 571.5,-517.035"/>
<text text-anchor="middle" x="557" y="-505.835" font-family="Times,serif" font-size="9.00">&#45;12</text>
</g>
<!-- &#45;13 -->
<g id="node13" class="node"><title>&#45;13</title>
<polygon fill="lightgray" stroke="black" points="618.5,-517.035 589.5,-517.035 589.5,-499.035 618.5,-499.035 618.5,-517.035"/>
<text text-anchor="middle" x="604" y="-505.835" font-family="Times,serif" font-size="9.00">&#45;13</text>
</g>
<!-- &#45;14 -->
<g id="node14" class="node"><title>&#45;14</title>
<polygon fill="lightgray" stroke="black" points="311.5,-184.945 282.5,-184.945 282.5,-166.945 311.5,-166.945 311.5,-184.945"/>
<text text-anchor="middle" x="297" y="-173.745" font-family="Times,serif" font-size="9.00">&#45;14</text>
</g>
<!-- &#45;14&#45;&gt;2831 -->
<g id="edge17" class="edge"><title>&#45;14&#45;&gt;2831</title>
<path fill="none" stroke="green" stroke-width="0.280086" stroke-dasharray="1,5" d="M291.535,-166.939C284.179,-156.163 270.708,-136.431 259.384,-119.842"/>
<polygon fill="green" stroke="green" stroke-width="0.280086" points="262.23,-117.804 253.702,-111.518 256.449,-121.751 262.23,-117.804"/>
</g>
<!-- &#45;15 -->
<g id="node15" class="node"><title>&#45;15</title>
<polygon fill="lightgray" stroke="black" points="665.5,-517.035 636.5,-517.035 636.5,-499.035 665.5,-499.035 665.5,-517.035"/>
<text text-anchor="middle" x="651" y="-505.835" font-family="Times,serif" font-size="9.00">&#45;15</text>
</g>
<!-- &#45;16 -->
<g id="node16" class="node"><title>&#45;16</title>
<polygon fill="lightgray" stroke="black" points="261.5,-517.035 232.5,-517.035 232.5,-499.035 261.5,-499.035 261.5,-517.035"/>
<text text-anchor="middle" x="247" y="-505.835" font-family="Times,serif" font-size="9.00">&#45;16</text>
</g>
<!-- 9319 -->
<g id="node31" class="node"><title>9319</title>
<ellipse fill="white" stroke="black" cx="295" cy="-432.437" rx="25" ry="25"/>
<text text-anchor="middle" x="295" y="-430.237" font-family="Times,serif" font-size="9.00">9319</text>
</g>
<!-- &#45;16&#45;&gt;9319 -->
<g id="edge14" class="edge"><title>&#45;16&#45;&gt;9319</title>
<path fill="none" stroke="green" stroke-width="0.289707" d="M252.32,-498.878C258.127,-489.974 267.751,-475.217 276.392,-461.968"/>
<polygon fill="green" stroke="green" stroke-width="0.289707" points="279.348,-463.844 281.879,-453.556 273.484,-460.02 279.348,-463.844"/>
</g>
<!-- &#45;16&#45;&gt;5851 -->
<g id="edge9" class="edge"><title>&#45;16&#45;&gt;5851</title>
<path fill="none" stroke="red" stroke-width="1.15846" stroke-dasharray="1,5" d="M240.598,-498.794C233.706,-489.354 223.171,-473.127 219,-457.186 212.217,-431.261 218.956,-401.346 226.551,-379.383"/>
<polygon fill="red" stroke="red" stroke-width="1.15846" points="229.874,-380.487 230.056,-369.894 223.308,-378.062 229.874,-380.487"/>
</g>
<!-- &#45;17 -->
<g id="node17" class="node"><title>&#45;17</title>
<polygon fill="lightgray" stroke="black" points="712.5,-517.035 683.5,-517.035 683.5,-499.035 712.5,-499.035 712.5,-517.035"/>
<text text-anchor="middle" x="698" y="-505.835" font-family="Times,serif" font-size="9.00">&#45;17</text>
</g>
<!-- &#45;18 -->
<g id="node18" class="node"><title>&#45;18</title>
<polygon fill="lightgray" stroke="black" points="759.5,-517.035 730.5,-517.035 730.5,-499.035 759.5,-499.035 759.5,-517.035"/>
<text text-anchor="middle" x="745" y="-505.835" font-family="Times,serif" font-size="9.00">&#45;18</text>
</g>
<!-- &#45;19 -->
<g id="node19" class="node"><title>&#45;19</title>
<polygon fill="lightgray" stroke="black" points="806.5,-517.035 777.5,-517.035 777.5,-499.035 806.5,-499.035 806.5,-517.035"/>
<text text-anchor="middle" x="792" y="-505.835" font-family="Times,serif" font-size="9.00">&#45;19</text>
</g>
<!-- &#45;20 -->
<g id="node20" class="node"><title>&#45;20</title>
<polygon fill="lightgray" stroke="black" points="853.5,-517.035 824.5,-517.035 824.5,-499.035 853.5,-499.035 853.5,-517.035"/>
<text text-anchor="middle" x="839" y="-505.835" font-family="Times,serif" font-size="9.00">&#45;20</text>
</g>
<!-- &#45;21 -->
<g id="node21" class="node"><title>&#45;21</title>
<polygon fill="lightgray" stroke="black" points="900.5,-517.035 871.5,-517.035 871.5,-499.035 900.5,-499.035 900.5,-517.035"/>
<text text-anchor="middle" x="886" y="-505.835" font-family="Times,serif" font-size="9.00">&#45;21</text>
</g>
<!-- &#45;22 -->
<g id="node22" class="node"><title>&#45;22</title>
<polygon fill="lightgray" stroke="black" points="947.5,-517.035 918.5,-517.035 918.5,-499.035 947.5,-499.035 947.5,-517.035"/>
<text text-anchor="middle" x="933" y="-505.835" font-family="Times,serif" font-size="9.00">&#45;22</text>
</g>
<!-- &#45;23 -->
<g id="node23" class="node"><title>&#45;23</title>
<polygon fill="lightgray" stroke="black" points="994.5,-517.035 965.5,-517.035 965.5,-499.035 994.5,-499.035 994.5,-517.035"/>
<text text-anchor="middle" x="980" y="-505.835" font-family="Times,serif" font-size="9.00">&#45;23</text>
</g>
<!-- &#45;24 -->
<g id="node24" class="node"><title>&#45;24</title>
<polygon fill="lightgray" stroke="black" points="1041.5,-517.035 1012.5,-517.035 1012.5,-499.035 1041.5,-499.035 1041.5,-517.035"/>
<text text-anchor="middle" x="1027" y="-505.835" font-family="Times,serif" font-size="9.00">&#45;24</text>
</g>
<!-- 0 -->
<g id="node25" class="node"><title>0</title>
<ellipse fill="lightblue" stroke="black" cx="1074" cy="-508.035" rx="14.7" ry="14.7"/>
<text text-anchor="middle" x="1074" y="-505.835" font-family="Times,serif" font-size="9.00">0</text>
</g>
<!-- 1 -->
<g id="node26" class="node"><title>1</title>
<ellipse fill="lightblue" stroke="black" cx="313" cy="-14.8492" rx="14.7" ry="14.7"/>
<text text-anchor="middle" x="313" y="-12.6492" font-family="Times,serif" font-size="9.00">1</text>
</g>
<!-- 2&#45;&gt;2831 -->
<g id="edge23" class="edge"><title>2&#45;&gt;2831</title>
<path fill="none" stroke="red" stroke-width="0.166505" d="M334.021,-164.451C329.819,-160.199 324.798,-155.326 320,-151.196 303.484,-136.977 283.897,-122.314 268.237,-111.072"/>
<polygon fill="red" stroke="red" stroke-width="0.166505" points="270.163,-108.148 259.986,-105.204 266.106,-113.852 270.163,-108.148"/>
</g>
<!-- 3 -->
<g id="node28" class="node"><title>3</title>
<ellipse fill="lightblue" stroke="black" cx="1122" cy="-508.035" rx="14.7" ry="14.7"/>
<text text-anchor="middle" x="1122" y="-505.835" font-family="Times,serif" font-size="9.00">3</text>
</g>
<!-- 9794 -->
<g id="node29" class="node"><title>9794</title>
<ellipse fill="white" stroke="black" cx="283" cy="-261.442" rx="25" ry="25"/>
<text text-anchor="middle" x="283" y="-259.242" font-family="Times,serif" font-size="9.00">9794</text>
</g>
<!-- 6074 -->
<g id="node36" class="node"><title>6074</title>
<ellipse fill="white" stroke="black" cx="240" cy="-175.945" rx="25" ry="25"/>
<text text-anchor="middle" x="240" y="-173.745" font-family="Times,serif" font-size="9.00">6074</text>
</g>
<!-- 9794&#45;&gt;6074 -->
<g id="edge25" class="edge"><title>9794&#45;&gt;6074</title>
<path fill="none" stroke="green" stroke-width="0.304029" d="M271.926,-238.939C267.011,-229.395 261.136,-217.987 255.774,-207.575"/>
<polygon fill="green" stroke="green" stroke-width="0.304029" points="258.726,-205.662 251.036,-198.375 252.503,-208.867 258.726,-205.662"/>
</g>
<!-- 7718 -->
<g id="node30" class="node"><title>7718</title>
<ellipse fill="white" stroke="black" cx="67" cy="-432.437" rx="25" ry="25"/>
<text text-anchor="middle" x="67" y="-430.237" font-family="Times,serif" font-size="9.00">7718</text>
</g>
<!-- 7718&#45;&gt;6507 -->
<g id="edge4" class="edge"><title>7718&#45;&gt;6507</title>
<path fill="none" stroke="red" stroke-width="0.943202" d="M64.445,-407.733C63.571,-399.624 62.5757,-390.391 61.6332,-381.646"/>
<polygon fill="red" stroke="red" stroke-width="0.943202" points="65.113,-381.27 60.5614,-371.703 58.1533,-382.02 65.113,-381.27"/>
</g>
<!-- 9319&#45;&gt;5851 -->
<g id="edge3" class="edge"><title>9319&#45;&gt;5851</title>
<path fill="none" stroke="red" stroke-width="1.24187" d="M281.686,-411.225C274.795,-400.763 266.268,-387.818 258.725,-376.366"/>
<polygon fill="red" stroke="red" stroke-width="1.24187" points="261.615,-374.392 253.191,-367.966 255.769,-378.242 261.615,-374.392"/>
</g>
<!-- 6507&#45;&gt;4505 -->
<g id="edge16" class="edge"><title>6507&#45;&gt;4505</title>
<path fill="none" stroke="green" stroke-width="0.679015" stroke-dasharray="1,5" d="M67.9841,-324.002C72.2167,-314.701 77.2265,-303.693 81.8309,-293.576"/>
<polygon fill="green" stroke="green" stroke-width="0.679015" points="85.1259,-294.785 86.0826,-284.234 78.7547,-291.886 85.1259,-294.785"/>
</g>
<!-- 2831&#45;&gt;1 -->
<g id="edge12" class="edge"><title>2831&#45;&gt;1</title>
<path fill="none" stroke="red" stroke-width="0.42654" d="M256.931,-72.3774C268.54,-60.6732 283.899,-45.1887 295.606,-33.3857"/>
<polygon fill="red" stroke="red" stroke-width="0.42654" points="298.138,-35.8026 302.696,-26.2379 293.169,-30.8731 298.138,-35.8026"/>
</g>
<!-- 2197&#45;&gt;1 -->
<g id="edge18" class="edge"><title>2197&#45;&gt;1</title>
<path fill="none" stroke="green" stroke-width="0.748067" d="M370.895,-322.277C374.768,-285.341 379.867,-211.919 368,-151.196 359.718,-108.816 338.126,-62.9439 324.591,-36.9682"/>
<polygon fill="green" stroke="green" stroke-width="0.748067" points="327.627,-35.2227 319.842,-28.0357 321.446,-38.5085 327.627,-35.2227"/>
</g>
<!-- 4505&#45;&gt;2831 -->
<g id="edge22" class="edge"><title>4505&#45;&gt;2831</title>
<path fill="none" stroke="red" stroke-width="1.26387" d="M99.5154,-236.736C104.106,-212.839 114.158,-176.033 135,-151.196 154.111,-128.422 184.251,-112.55 207.346,-102.918"/>
<polygon fill="red" stroke="red" stroke-width="1.26387" points="208.764,-106.121 216.76,-99.1709 206.175,-99.6176 208.764,-106.121"/>
</g>
<!-- 6074&#45;&gt;2831 -->
<g id="edge1" class="edge"><title>6074&#45;&gt;2831</title>
<path fill="none" stroke="red" stroke-width="0.526145" d="M240,-150.794C240,-142.85 240,-133.865 240,-125.335"/>
<polygon fill="red" stroke="red" stroke-width="0.526145" points="243.5,-125.255 240,-115.256 236.5,-125.256 243.5,-125.255"/>
</g>
<!-- 5851&#45;&gt;9794 -->
<g id="edge11" class="edge"><title>5851&#45;&gt;9794</title>
<path fill="none" stroke="green" stroke-width="0.3" d="M251.074,-324.437C255.989,-314.892 261.864,-303.485 267.226,-293.073"/>
<polygon fill="green" stroke="green" stroke-width="0.3" points="270.497,-294.365 271.964,-283.872 264.274,-291.16 270.497,-294.365"/>
</g>
<!-- 5851&#45;&gt;2831 -->
<g id="edge5" class="edge"><title>5851&#45;&gt;2831</title>
<path fill="none" stroke="red" stroke-width="0.537096" stroke-dasharray="1,5" d="M230.101,-324.063C215.018,-287.749 189.67,-212.909 206,-151.196 208.915,-140.179 214.386,-129.068 220.1,-119.466"/>
<polygon fill="red" stroke="red" stroke-width="0.537096" points="223.207,-121.101 225.578,-110.775 217.285,-117.369 223.207,-121.101"/>
</g>
<!-- 5851&#45;&gt;6074 -->
<g id="edge15" class="edge"><title>5851&#45;&gt;6074</title>
<path fill="none" stroke="green" stroke-width="0.838083" d="M240,-322.085C240,-293.104 240,-244.008 240,-211.041"/>
<polygon fill="green" stroke="green" stroke-width="0.838083" points="243.5,-210.951 240,-200.951 236.5,-210.951 243.5,-210.951"/>
</g>
</g>
</svg>
