<?xml version="1.0" encoding="UTF-8" standalone="no"?>
<!DOCTYPE svg PUBLIC "-//W3C//DTD SVG 1.1//EN"
 "http://www.w3.org/Graphics/SVG/1.1/DTD/svg11.dtd">
<!-- Generated by graphviz version 2.38.0 (20140413.2041)
 -->
<!-- Title: %3 Pages: 1 -->
<svg width="1079pt" height="92pt"
 viewBox="0.00 0.00 1079.00 91.70" xmlns="http://www.w3.org/2000/svg" xmlns:xlink="http://www.w3.org/1999/xlink">
<g id="graph0" class="graph" transform="scale(1 1) rotate(0) translate(4 87.6985)">
<title>%3</title>
<polygon fill="white" stroke="none" points="-4,4 -4,-87.6985 1075,-87.6985 1075,4 -4,4"/>
<!-- &#45;1 -->
<g id="node1" class="node"><title>&#45;1</title>
<polygon fill="lightgray" stroke="black" points="71.5,-83.6985 47.5,-83.6985 47.5,-65.6985 71.5,-65.6985 71.5,-83.6985"/>
<text text-anchor="middle" x="59.5" y="-72.4985" font-family="Times,serif" font-size="9.00">&#45;1</text>
</g>
<!-- 0 -->
<g id="node25" class="node"><title>0</title>
<ellipse fill="lightblue" stroke="black" cx="240.5" cy="-14.8492" rx="14.7" ry="14.7"/>
<text text-anchor="middle" x="240.5" y="-12.6492" font-family="Times,serif" font-size="9.00">0</text>
</g>
<!-- &#45;1&#45;&gt;0 -->
<g id="edge3" class="edge"><title>&#45;1&#45;&gt;0</title>
<path fill="none" stroke="red" stroke-width="0.199295" d="M71.8904,-68.8326C74.7086,-67.7665 77.6978,-66.6677 80.5,-65.6985 128.425,-49.1219 185.26,-32.0098 216.655,-22.7755"/>
<polygon fill="red" stroke="red" stroke-width="0.199295" points="217.664,-26.1271 226.278,-19.958 215.697,-19.4092 217.664,-26.1271"/>
</g>
<!-- &#45;2 -->
<g id="node2" class="node"><title>&#45;2</title>
<polygon fill="lightgray" stroke="black" points="665.5,-83.6985 641.5,-83.6985 641.5,-65.6985 665.5,-65.6985 665.5,-83.6985"/>
<text text-anchor="middle" x="653.5" y="-72.4985" font-family="Times,serif" font-size="9.00">&#45;2</text>
</g>
<!-- 1 -->
<g id="node26" class="node"><title>1</title>
<ellipse fill="lightblue" stroke="black" cx="471.5" cy="-14.8492" rx="14.7" ry="14.7"/>
<text text-anchor="middle" x="471.5" y="-12.6492" font-family="Times,serif" font-size="9.00">1</text>
</g>
<!-- &#45;2&#45;&gt;1 -->
<g id="edge8" class="edge"><title>&#45;2&#45;&gt;1</title>
<path fill="none" stroke="red" stroke-width="0.215381" d="M641.111,-68.8289C638.293,-67.7631 635.303,-66.6652 632.5,-65.6985 584.287,-49.07 527.093,-31.9767 495.497,-22.7596"/>
<polygon fill="red" stroke="red" stroke-width="0.215381" points="496.393,-19.3751 485.813,-19.9479 494.441,-26.0975 496.393,-19.3751"/>
</g>
<!-- 2 -->
<g id="node27" class="node"><title>2</title>
<ellipse fill="lightblue" stroke="black" cx="630.5" cy="-14.8492" rx="14.7" ry="14.7"/>
<text text-anchor="middle" x="630.5" y="-12.6492" font-family="Times,serif" font-size="9.00">2</text>
</g>
<!-- &#45;2&#45;&gt;2 -->
<g id="edge24" class="edge"><title>&#45;2&#45;&gt;2</title>
<path fill="none" stroke="green" stroke-width="0.613779" d="M650.302,-65.6548C647.517,-58.6501 643.341,-48.1471 639.541,-38.5892"/>
<polygon fill="green" stroke="green" stroke-width="0.613779" points="642.738,-37.1567 635.791,-29.1573 636.233,-39.7429 642.738,-37.1567"/>
</g>
<!-- 3 -->
<g id="node28" class="node"><title>3</title>
<ellipse fill="lightblue" stroke="black" cx="754.5" cy="-14.8492" rx="14.7" ry="14.7"/>
<text text-anchor="middle" x="754.5" y="-12.6492" font-family="Times,serif" font-size="9.00">3</text>
</g>
<!-- &#45;2&#45;&gt;3 -->
<g id="edge29" class="edge"><title>&#45;2&#45;&gt;3</title>
<path fill="none" stroke="green" stroke-width="1.02417" d="M665.885,-66.605C682.619,-57.0202 712.703,-39.7888 733.128,-28.0902"/>
<polygon fill="green" stroke="green" stroke-width="1.02417" points="735.076,-31.008 742.014,-23.0007 731.597,-24.9338 735.076,-31.008"/>
</g>
<!-- &#45;3 -->
<g id="node3" class="node"><title>&#45;3</title>
<polygon fill="lightgray" stroke="black" points="297.5,-83.6985 273.5,-83.6985 273.5,-65.6985 297.5,-65.6985 297.5,-83.6985"/>
<text text-anchor="middle" x="285.5" y="-72.4985" font-family="Times,serif" font-size="9.00">&#45;3</text>
</g>
<!-- &#45;3&#45;&gt;0 -->
<g id="edge32" class="edge"><title>&#45;3&#45;&gt;0</title>
<path fill="none" stroke="green" stroke-width="0.816741" d="M279.243,-65.6548C273.13,-57.7964 263.592,-45.5348 255.51,-35.1446"/>
<polygon fill="green" stroke="green" stroke-width="0.816741" points="258.072,-32.7387 249.17,-26.9946 252.547,-37.0367 258.072,-32.7387"/>
</g>
<!-- &#45;3&#45;&gt;2 -->
<g id="edge14" class="edge"><title>&#45;3&#45;&gt;2</title>
<path fill="none" stroke="green" stroke-width="0.403129" d="M297.932,-68.6988C301.021,-67.5899 304.351,-66.5059 307.5,-65.6985 364.263,-51.1471 539.698,-27.6257 605.355,-19.0817"/>
<polygon fill="green" stroke="green" stroke-width="0.403129" points="606.136,-22.5099 615.603,-17.7539 605.237,-15.5679 606.136,-22.5099"/>
</g>
<!-- &#45;4 -->
<g id="node4" class="node"><title>&#45;4</title>
<polygon fill="lightgray" stroke="black" points="844.5,-83.6985 820.5,-83.6985 820.5,-65.6985 844.5,-65.6985 844.5,-83.6985"/>
<text text-anchor="middle" x="832.5" y="-72.4985" font-family="Times,serif" font-size="9.00">&#45;4</text>
</g>
<!-- &#45;4&#45;&gt;3 -->
<g id="edge13" class="edge"><title>&#45;4&#45;&gt;3</title>
<path fill="none" stroke="green" stroke-width="0.218578" d="M821.654,-65.6548C809.407,-56.5715 789.228,-41.6056 774.182,-30.4463"/>
<polygon fill="green" stroke="green" stroke-width="0.218578" points="776.131,-27.5348 766.014,-24.389 771.962,-33.1573 776.131,-27.5348"/>
</g>
<!-- &#45;5 -->
<g id="node5" class="node"><title>&#45;5</title>
<polygon fill="lightgray" stroke="black" points="113.5,-83.6985 89.5,-83.6985 89.5,-65.6985 113.5,-65.6985 113.5,-83.6985"/>
<text text-anchor="middle" x="101.5" y="-72.4985" font-family="Times,serif" font-size="9.00">&#45;5</text>
</g>
<!-- &#45;5&#45;&gt;0 -->
<g id="edge19" class="edge"><title>&#45;5&#45;&gt;0</title>
<path fill="none" stroke="green" stroke-width="2.20772" d="M113.835,-68.5648C137.015,-58.9178 187.414,-37.9426 217.177,-25.5557"/>
<polygon fill="green" stroke="green" stroke-width="2.20772" points="218.878,-28.6389 226.766,-21.5652 216.189,-22.1762 218.878,-28.6389"/>
</g>
<!-- &#45;6 -->
<g id="node6" class="node"><title>&#45;6</title>
<polygon fill="lightgray" stroke="black" points="802.5,-83.6985 778.5,-83.6985 778.5,-65.6985 802.5,-65.6985 802.5,-83.6985"/>
<text text-anchor="middle" x="790.5" y="-72.4985" font-family="Times,serif" font-size="9.00">&#45;6</text>
</g>
<!-- &#45;6&#45;&gt;2 -->
<g id="edge33" class="edge"><title>&#45;6&#45;&gt;2</title>
<path fill="none" stroke="green" stroke-width="0.472316" d="M778.078,-68.9202C775.262,-67.8496 772.281,-66.7268 769.5,-65.6985 728.988,-50.7194 681.597,-33.8659 653.927,-24.0927"/>
<polygon fill="green" stroke="green" stroke-width="0.472316" points="654.938,-20.738 644.343,-20.7124 652.609,-27.3394 654.938,-20.738"/>
</g>
<!-- &#45;6&#45;&gt;3 -->
<g id="edge35" class="edge"><title>&#45;6&#45;&gt;3</title>
<path fill="none" stroke="red" stroke-width="0.329916" d="M785.494,-65.6548C780.82,-58.1437 773.643,-46.6101 767.371,-36.5326"/>
<polygon fill="red" stroke="red" stroke-width="0.329916" points="770.22,-34.4854 761.965,-27.8444 764.277,-38.1839 770.22,-34.4854"/>
</g>
<!-- &#45;7 -->
<g id="node7" class="node"><title>&#45;7</title>
<polygon fill="lightgray" stroke="black" points="976.5,-83.6985 952.5,-83.6985 952.5,-65.6985 976.5,-65.6985 976.5,-83.6985"/>
<text text-anchor="middle" x="964.5" y="-72.4985" font-family="Times,serif" font-size="9.00">&#45;7</text>
</g>
<!-- &#45;8 -->
<g id="node8" class="node"><title>&#45;8</title>
<polygon fill="lightgray" stroke="black" points="886.5,-83.6985 862.5,-83.6985 862.5,-65.6985 886.5,-65.6985 886.5,-83.6985"/>
<text text-anchor="middle" x="874.5" y="-72.4985" font-family="Times,serif" font-size="9.00">&#45;8</text>
</g>
<!-- &#45;8&#45;&gt;3 -->
<g id="edge25" class="edge"><title>&#45;8&#45;&gt;3</title>
<path fill="none" stroke="red" stroke-width="0.260698" d="M862.11,-67.7255C842.021,-58.0412 802.06,-38.7768 776.892,-26.6438"/>
<polygon fill="red" stroke="red" stroke-width="0.260698" points="778.26,-23.4179 767.732,-22.2281 775.22,-29.7235 778.26,-23.4179"/>
</g>
<!-- &#45;9 -->
<g id="node9" class="node"><title>&#45;9</title>
<polygon fill="lightgray" stroke="black" points="528.5,-83.6985 504.5,-83.6985 504.5,-65.6985 528.5,-65.6985 528.5,-83.6985"/>
<text text-anchor="middle" x="516.5" y="-72.4985" font-family="Times,serif" font-size="9.00">&#45;9</text>
</g>
<!-- &#45;9&#45;&gt;0 -->
<g id="edge26" class="edge"><title>&#45;9&#45;&gt;0</title>
<path fill="none" stroke="green" stroke-width="1.31209" d="M504.182,-68.6041C501.36,-67.5499 498.351,-66.5137 495.5,-65.6985 412.386,-41.9322 310.812,-25.8137 264.99,-19.211"/>
<polygon fill="green" stroke="green" stroke-width="1.31209" points="265.475,-15.7448 255.083,-17.8075 264.493,-22.6756 265.475,-15.7448"/>
</g>
<!-- &#45;9&#45;&gt;3 -->
<g id="edge34" class="edge"><title>&#45;9&#45;&gt;3</title>
<path fill="none" stroke="green" stroke-width="0.163546" d="M528.515,-69.0295C531.733,-67.8619 535.227,-66.6675 538.5,-65.6985 606.952,-45.4359 689.61,-28.3653 729.949,-20.4992"/>
<polygon fill="green" stroke="green" stroke-width="0.163546" points="730.777,-23.904 739.933,-18.5724 729.451,-17.0308 730.777,-23.904"/>
</g>
<!-- &#45;10 -->
<g id="node10" class="node"><title>&#45;10</title>
<polygon fill="lightgray" stroke="black" points="161,-83.6985 132,-83.6985 132,-65.6985 161,-65.6985 161,-83.6985"/>
<text text-anchor="middle" x="146.5" y="-72.4985" font-family="Times,serif" font-size="9.00">&#45;10</text>
</g>
<!-- &#45;10&#45;&gt;0 -->
<g id="edge1" class="edge"><title>&#45;10&#45;&gt;0</title>
<path fill="none" stroke="red" stroke-width="0.985692" d="M159.57,-65.6548C175.106,-56.0937 201.233,-40.0148 219.589,-28.7182"/>
<polygon fill="red" stroke="red" stroke-width="0.985692" points="221.457,-31.6786 228.139,-23.4566 217.788,-25.7171 221.457,-31.6786"/>
</g>
<!-- &#45;11 -->
<g id="node11" class="node"><title>&#45;11</title>
<polygon fill="lightgray" stroke="black" points="392,-83.6985 363,-83.6985 363,-65.6985 392,-65.6985 392,-83.6985"/>
<text text-anchor="middle" x="377.5" y="-72.4985" font-family="Times,serif" font-size="9.00">&#45;11</text>
</g>
<!-- &#45;11&#45;&gt;0 -->
<g id="edge10" class="edge"><title>&#45;11&#45;&gt;0</title>
<path fill="none" stroke="green" stroke-width="0.413549" d="M362.839,-67.5076C338.985,-57.4353 291.602,-37.4274 263.317,-25.4837"/>
<polygon fill="green" stroke="green" stroke-width="0.413549" points="264.413,-22.1473 253.839,-21.4816 261.69,-28.596 264.413,-22.1473"/>
</g>
<!-- &#45;11&#45;&gt;2 -->
<g id="edge31" class="edge"><title>&#45;11&#45;&gt;2</title>
<path fill="none" stroke="green" stroke-width="0.755654" d="M392.147,-68.539C395.218,-67.5352 398.451,-66.536 401.5,-65.6985 475.13,-45.4757 563.869,-28.114 605.999,-20.286"/>
<polygon fill="green" stroke="green" stroke-width="0.755654" points="606.699,-23.7159 615.9,-18.4629 605.432,-16.8317 606.699,-23.7159"/>
</g>
<!-- &#45;12 -->
<g id="node12" class="node"><title>&#45;12</title>
<polygon fill="lightgray" stroke="black" points="713,-83.6985 684,-83.6985 684,-65.6985 713,-65.6985 713,-83.6985"/>
<text text-anchor="middle" x="698.5" y="-72.4985" font-family="Times,serif" font-size="9.00">&#45;12</text>
</g>
<!-- &#45;12&#45;&gt;2 -->
<g id="edge23" class="edge"><title>&#45;12&#45;&gt;2</title>
<path fill="none" stroke="red" stroke-width="0.279913" d="M689.045,-65.6548C678.867,-56.996 662.405,-42.9914 649.525,-32.0346"/>
<polygon fill="red" stroke="red" stroke-width="0.279913" points="651.566,-29.1752 641.681,-25.3614 647.03,-34.5069 651.566,-29.1752"/>
</g>
<!-- &#45;13 -->
<g id="node13" class="node"><title>&#45;13</title>
<polygon fill="lightgray" stroke="black" points="486,-83.6985 457,-83.6985 457,-65.6985 486,-65.6985 486,-83.6985"/>
<text text-anchor="middle" x="471.5" y="-72.4985" font-family="Times,serif" font-size="9.00">&#45;13</text>
</g>
<!-- &#45;13&#45;&gt;0 -->
<g id="edge36" class="edge"><title>&#45;13&#45;&gt;0</title>
<path fill="none" stroke="red" stroke-width="1.48545" d="M456.97,-68.3996C454.175,-67.45 451.259,-66.5067 448.5,-65.6985 382.864,-46.4703 304.006,-29.1066 264.927,-20.8776"/>
<polygon fill="red" stroke="red" stroke-width="1.48545" points="265.508,-17.4235 255.004,-18.8049 264.077,-24.2757 265.508,-17.4235"/>
</g>
<!-- &#45;13&#45;&gt;1 -->
<g id="edge27" class="edge"><title>&#45;13&#45;&gt;1</title>
<path fill="none" stroke="red" stroke-width="0.501667" d="M471.5,-65.6548C471.5,-59.0498 471.5,-49.3344 471.5,-40.2339"/>
<polygon fill="red" stroke="red" stroke-width="0.501667" points="475,-40.0563 471.5,-30.0563 468,-40.0564 475,-40.0563"/>
</g>
<!-- &#45;13&#45;&gt;3 -->
<g id="edge6" class="edge"><title>&#45;13&#45;&gt;3</title>
<path fill="none" stroke="green" stroke-width="0.491924" d="M486.131,-68.4817C489.204,-67.4821 492.441,-66.4991 495.5,-65.6985 540.041,-54.0427 674.421,-29.9394 730.015,-20.1364"/>
<polygon fill="green" stroke="green" stroke-width="0.491924" points="730.791,-23.5537 740.033,-18.3744 729.578,-16.6595 730.791,-23.5537"/>
</g>
<!-- &#45;14 -->
<g id="node14" class="node"><title>&#45;14</title>
<polygon fill="lightgray" stroke="black" points="576,-83.6985 547,-83.6985 547,-65.6985 576,-65.6985 576,-83.6985"/>
<text text-anchor="middle" x="561.5" y="-72.4985" font-family="Times,serif" font-size="9.00">&#45;14</text>
</g>
<!-- &#45;14&#45;&gt;1 -->
<g id="edge37" class="edge"><title>&#45;14&#45;&gt;1</title>
<path fill="none" stroke="red" stroke-width="0.278809" d="M548.986,-65.6548C534.261,-56.1902 509.6,-40.3388 492.056,-29.0619"/>
<polygon fill="red" stroke="red" stroke-width="0.278809" points="493.925,-26.1026 483.62,-23.6398 490.14,-31.9911 493.925,-26.1026"/>
</g>
<!-- &#45;14&#45;&gt;2 -->
<g id="edge11" class="edge"><title>&#45;14&#45;&gt;2</title>
<path fill="none" stroke="red" stroke-width="0.25136" d="M571.094,-65.6548C581.544,-56.8941 598.52,-42.6612 611.655,-31.6492"/>
<polygon fill="red" stroke="red" stroke-width="0.25136" points="614.209,-34.0746 619.624,-24.9678 609.712,-28.7104 614.209,-34.0746"/>
</g>
<!-- &#45;15 -->
<g id="node15" class="node"><title>&#45;15</title>
<polygon fill="lightgray" stroke="black" points="1024,-83.6985 995,-83.6985 995,-65.6985 1024,-65.6985 1024,-83.6985"/>
<text text-anchor="middle" x="1009.5" y="-72.4985" font-family="Times,serif" font-size="9.00">&#45;15</text>
</g>
<!-- &#45;16 -->
<g id="node16" class="node"><title>&#45;16</title>
<polygon fill="lightgray" stroke="black" points="1071,-83.6985 1042,-83.6985 1042,-65.6985 1071,-65.6985 1071,-83.6985"/>
<text text-anchor="middle" x="1056.5" y="-72.4985" font-family="Times,serif" font-size="9.00">&#45;16</text>
</g>
<!-- &#45;17 -->
<g id="node17" class="node"><title>&#45;17</title>
<polygon fill="lightgray" stroke="black" points="439,-83.6985 410,-83.6985 410,-65.6985 439,-65.6985 439,-83.6985"/>
<text text-anchor="middle" x="424.5" y="-72.4985" font-family="Times,serif" font-size="9.00">&#45;17</text>
</g>
<!-- &#45;17&#45;&gt;0 -->
<g id="edge4" class="edge"><title>&#45;17&#45;&gt;0</title>
<path fill="none" stroke="red" stroke-width="0.21204" d="M409.925,-68.5441C407.134,-67.5811 404.231,-66.596 401.5,-65.6985 353.049,-49.7767 295.941,-32.4277 264.424,-22.9756"/>
<polygon fill="red" stroke="red" stroke-width="0.21204" points="265.35,-19.5994 254.767,-20.0863 263.344,-26.3057 265.35,-19.5994"/>
</g>
<!-- &#45;17&#45;&gt;3 -->
<g id="edge12" class="edge"><title>&#45;17&#45;&gt;3</title>
<path fill="none" stroke="red" stroke-width="0.316493" d="M439.113,-68.4085C442.187,-67.4143 445.429,-66.4519 448.5,-65.6985 546.43,-41.6762 573.009,-46.0947 672.5,-29.6985 691.714,-26.532 713.443,-22.8579 729.704,-20.0899"/>
<polygon fill="red" stroke="red" stroke-width="0.316493" points="730.72,-23.4672 739.99,-18.3358 729.544,-16.5668 730.72,-23.4672"/>
</g>
<!-- &#45;18 -->
<g id="node18" class="node"><title>&#45;18</title>
<polygon fill="lightgray" stroke="black" points="623,-83.6985 594,-83.6985 594,-65.6985 623,-65.6985 623,-83.6985"/>
<text text-anchor="middle" x="608.5" y="-72.4985" font-family="Times,serif" font-size="9.00">&#45;18</text>
</g>
<!-- &#45;18&#45;&gt;1 -->
<g id="edge5" class="edge"><title>&#45;18&#45;&gt;1</title>
<path fill="none" stroke="red" stroke-width="0.114741" d="M593.839,-67.5076C569.985,-57.4353 522.602,-37.4274 494.317,-25.4837"/>
<polygon fill="red" stroke="red" stroke-width="0.114741" points="495.413,-22.1473 484.839,-21.4816 492.69,-28.596 495.413,-22.1473"/>
</g>
<!-- &#45;18&#45;&gt;2 -->
<g id="edge17" class="edge"><title>&#45;18&#45;&gt;2</title>
<path fill="none" stroke="green" stroke-width="0.236276" d="M611.559,-65.6548C614.223,-58.6501 618.217,-48.1471 621.852,-38.5892"/>
<polygon fill="green" stroke="green" stroke-width="0.236276" points="625.156,-39.7484 625.439,-29.1573 618.613,-37.2601 625.156,-39.7484"/>
</g>
<!-- &#45;19 -->
<g id="node19" class="node"><title>&#45;19</title>
<polygon fill="lightgray" stroke="black" points="345,-83.6985 316,-83.6985 316,-65.6985 345,-65.6985 345,-83.6985"/>
<text text-anchor="middle" x="330.5" y="-72.4985" font-family="Times,serif" font-size="9.00">&#45;19</text>
</g>
<!-- &#45;19&#45;&gt;1 -->
<g id="edge20" class="edge"><title>&#45;19&#45;&gt;1</title>
<path fill="none" stroke="green" stroke-width="0.19394" d="M345.058,-67.7255C369.605,-57.6544 419.405,-37.2227 448.647,-25.2252"/>
<polygon fill="green" stroke="green" stroke-width="0.19394" points="450.135,-28.398 458.058,-21.3641 447.478,-21.9219 450.135,-28.398"/>
</g>
<!-- &#45;20 -->
<g id="node20" class="node"><title>&#45;20</title>
<polygon fill="lightgray" stroke="black" points="255,-83.6985 226,-83.6985 226,-65.6985 255,-65.6985 255,-83.6985"/>
<text text-anchor="middle" x="240.5" y="-72.4985" font-family="Times,serif" font-size="9.00">&#45;20</text>
</g>
<!-- &#45;20&#45;&gt;0 -->
<g id="edge22" class="edge"><title>&#45;20&#45;&gt;0</title>
<path fill="none" stroke="red" stroke-width="0.258946" d="M240.5,-65.6548C240.5,-59.0498 240.5,-49.3344 240.5,-40.2339"/>
<polygon fill="red" stroke="red" stroke-width="0.258946" points="244,-40.0563 240.5,-30.0563 237,-40.0564 244,-40.0563"/>
</g>
<!-- &#45;20&#45;&gt;1 -->
<g id="edge28" class="edge"><title>&#45;20&#45;&gt;1</title>
<path fill="none" stroke="green" stroke-width="0.541404" d="M255.161,-68.5908C258.232,-67.5833 261.46,-66.5695 264.5,-65.6985 329.95,-46.9465 408.372,-29.3738 447.221,-20.9901"/>
<polygon fill="green" stroke="green" stroke-width="0.541404" points="448.041,-24.3939 457.085,-18.8758 446.574,-17.5494 448.041,-24.3939"/>
</g>
<!-- &#45;21 -->
<g id="node21" class="node"><title>&#45;21</title>
<polygon fill="lightgray" stroke="black" points="760,-83.6985 731,-83.6985 731,-65.6985 760,-65.6985 760,-83.6985"/>
<text text-anchor="middle" x="745.5" y="-72.4985" font-family="Times,serif" font-size="9.00">&#45;21</text>
</g>
<!-- &#45;21&#45;&gt;2 -->
<g id="edge30" class="edge"><title>&#45;21&#45;&gt;2</title>
<path fill="none" stroke="green" stroke-width="0.423766" d="M730.935,-66.3718C711.156,-56.4224 675.631,-38.5518 652.568,-26.9503"/>
<polygon fill="green" stroke="green" stroke-width="0.423766" points="654.036,-23.7707 643.529,-22.4035 650.89,-30.0241 654.036,-23.7707"/>
</g>
<!-- &#45;22 -->
<g id="node22" class="node"><title>&#45;22</title>
<polygon fill="lightgray" stroke="black" points="208,-83.6985 179,-83.6985 179,-65.6985 208,-65.6985 208,-83.6985"/>
<text text-anchor="middle" x="193.5" y="-72.4985" font-family="Times,serif" font-size="9.00">&#45;22</text>
</g>
<!-- &#45;22&#45;&gt;0 -->
<g id="edge7" class="edge"><title>&#45;22&#45;&gt;0</title>
<path fill="none" stroke="red" stroke-width="0.814579" d="M200.035,-65.6548C206.484,-57.7178 216.581,-45.2891 225.076,-34.8334"/>
<polygon fill="red" stroke="red" stroke-width="0.814579" points="227.856,-36.9629 231.445,-26.9946 222.423,-32.5489 227.856,-36.9629"/>
</g>
<!-- &#45;22&#45;&gt;1 -->
<g id="edge15" class="edge"><title>&#45;22&#45;&gt;1</title>
<path fill="none" stroke="red" stroke-width="0.141229" d="M208.134,-68.4903C211.206,-67.4901 214.442,-66.5046 217.5,-65.6985 300.397,-43.8438 400.796,-26.879 446.577,-19.6525"/>
<polygon fill="red" stroke="red" stroke-width="0.141229" points="447.406,-23.0656 456.748,-18.0663 446.328,-16.1493 447.406,-23.0656"/>
</g>
<!-- &#45;23 -->
<g id="node23" class="node"><title>&#45;23</title>
<polygon fill="lightgray" stroke="black" points="29,-83.6985 0,-83.6985 0,-65.6985 29,-65.6985 29,-83.6985"/>
<text text-anchor="middle" x="14.5" y="-72.4985" font-family="Times,serif" font-size="9.00">&#45;23</text>
</g>
<!-- &#45;23&#45;&gt;0 -->
<g id="edge2" class="edge"><title>&#45;23&#45;&gt;0</title>
<path fill="none" stroke="red" stroke-width="0.116432" d="M29.165,-68.6041C32.2351,-67.5956 35.4625,-66.578 38.5,-65.6985 101.974,-47.3193 177.885,-29.7514 216.044,-21.2211"/>
<polygon fill="red" stroke="red" stroke-width="0.116432" points="217.189,-24.5522 226.192,-18.9671 215.671,-17.7187 217.189,-24.5522"/>
</g>
<!-- &#45;24 -->
<g id="node24" class="node"><title>&#45;24</title>
<polygon fill="lightgray" stroke="black" points="934,-83.6985 905,-83.6985 905,-65.6985 934,-65.6985 934,-83.6985"/>
<text text-anchor="middle" x="919.5" y="-72.4985" font-family="Times,serif" font-size="9.00">&#45;24</text>
</g>
<!-- &#45;24&#45;&gt;3 -->
<g id="edge21" class="edge"><title>&#45;24&#45;&gt;3</title>
<path fill="none" stroke="red" stroke-width="1.04965" d="M904.857,-68.5648C876.267,-58.5409 812.791,-36.286 778.159,-24.1441"/>
<polygon fill="red" stroke="red" stroke-width="1.04965" points="779.003,-20.7311 768.408,-20.7254 776.687,-27.3369 779.003,-20.7311"/>
</g>
<!-- 1&#45;&gt;1 -->
<g id="edge18" class="edge"><title>1&#45;&gt;1</title>
<path fill="none" stroke="green" stroke-width="0.1942" d="M483.288,-23.9294C493.522,-28.0713 504.349,-25.0446 504.349,-14.8492 504.349,-7.99927 499.462,-4.3853 493.15,-4.00735"/>
<polygon fill="green" stroke="green" stroke-width="0.1942" points="492.516,-0.565092 483.288,-5.76904 493.747,-7.45602 492.516,-0.565092"/>
</g>
<!-- 2&#45;&gt;2 -->
<g id="edge16" class="edge"><title>2&#45;&gt;2</title>
<path fill="none" stroke="red" stroke-width="0.32403" d="M642.288,-23.9294C652.522,-28.0713 663.349,-25.0446 663.349,-14.8492 663.349,-7.99927 658.462,-4.3853 652.15,-4.00735"/>
<polygon fill="red" stroke="red" stroke-width="0.32403" points="651.516,-0.565092 642.288,-5.76904 652.747,-7.45602 651.516,-0.565092"/>
</g>
<!-- 3&#45;&gt;3 -->
<g id="edge9" class="edge"><title>3&#45;&gt;3</title>
<path fill="none" stroke="red" stroke-width="0.237426" d="M766.288,-23.9294C776.522,-28.0713 787.349,-25.0446 787.349,-14.8492 787.349,-7.99927 782.462,-4.3853 776.15,-4.00735"/>
<polygon fill="red" stroke="red" stroke-width="0.237426" points="775.516,-0.565092 766.288,-5.76904 776.747,-7.45602 775.516,-0.565092"/>
</g>
</g>
</svg>
