<?xml version="1.0" encoding="UTF-8" standalone="no"?>
<!DOCTYPE svg PUBLIC "-//W3C//DTD SVG 1.1//EN"
 "http://www.w3.org/Graphics/SVG/1.1/DTD/svg11.dtd">
<!-- Generated by graphviz version 2.38.0 (20140413.2041)
 -->
<!-- Title: %3 Pages: 1 -->
<svg width="1142pt" height="531pt"
 viewBox="0.00 0.00 1141.60 530.88" xmlns="http://www.w3.org/2000/svg" xmlns:xlink="http://www.w3.org/1999/xlink">
<g id="graph0" class="graph" transform="scale(1 1) rotate(0) translate(4 526.884)">
<title>%3</title>
<polygon fill="white" stroke="none" points="-4,4 -4,-526.884 1137.6,-526.884 1137.6,4 -4,4"/>
<!-- &#45;1 -->
<g id="node1" class="node"><title>&#45;1</title>
<polygon fill="lightgray" stroke="black" points="248.749,-441.437 224.749,-441.437 224.749,-423.437 248.749,-423.437 248.749,-441.437"/>
<text text-anchor="middle" x="236.749" y="-430.237" font-family="Times,serif" font-size="9.00">&#45;1</text>
</g>
<!-- 6507 -->
<g id="node32" class="node"><title>6507</title>
<ellipse fill="white" stroke="black" cx="249.749" cy="-346.94" rx="25" ry="25"/>
<text text-anchor="middle" x="249.749" y="-344.74" font-family="Times,serif" font-size="9.00">6507</text>
</g>
<!-- &#45;1&#45;&gt;6507 -->
<g id="edge15" class="edge"><title>&#45;1&#45;&gt;6507</title>
<path fill="none" stroke="red" stroke-width="0.324958" d="M237.995,-423.431C239.493,-413.813 242.101,-397.06 244.481,-381.775"/>
<polygon fill="red" stroke="red" stroke-width="0.324958" points="247.995,-381.953 246.075,-371.534 241.078,-380.876 247.995,-381.953"/>
</g>
<!-- &#45;2 -->
<g id="node2" class="node"><title>&#45;2</title>
<polygon fill="lightgray" stroke="black" points="348.749,-517.035 324.749,-517.035 324.749,-499.035 348.749,-499.035 348.749,-517.035"/>
<text text-anchor="middle" x="336.749" y="-505.835" font-family="Times,serif" font-size="9.00">&#45;2</text>
</g>
<!-- &#45;3 -->
<g id="node3" class="node"><title>&#45;3</title>
<polygon fill="lightgray" stroke="black" points="248.749,-184.945 224.749,-184.945 224.749,-166.945 248.749,-166.945 248.749,-184.945"/>
<text text-anchor="middle" x="236.749" y="-173.745" font-family="Times,serif" font-size="9.00">&#45;3</text>
</g>
<!-- 2197 -->
<g id="node34" class="node"><title>2197</title>
<ellipse fill="white" stroke="black" cx="236.749" cy="-90.4472" rx="25" ry="25"/>
<text text-anchor="middle" x="236.749" y="-88.2472" font-family="Times,serif" font-size="9.00">2197</text>
</g>
<!-- &#45;3&#45;&gt;2197 -->
<g id="edge14" class="edge"><title>&#45;3&#45;&gt;2197</title>
<path fill="none" stroke="green" stroke-width="0.666599" d="M236.749,-166.939C236.749,-157.387 236.749,-140.798 236.749,-125.599"/>
<polygon fill="green" stroke="green" stroke-width="0.666599" points="240.249,-125.402 236.749,-115.402 233.249,-125.402 240.249,-125.402"/>
</g>
<!-- &#45;4 -->
<g id="node4" class="node"><title>&#45;4</title>
<polygon fill="lightgray" stroke="black" points="390.749,-517.035 366.749,-517.035 366.749,-499.035 390.749,-499.035 390.749,-517.035"/>
<text text-anchor="middle" x="378.749" y="-505.835" font-family="Times,serif" font-size="9.00">&#45;4</text>
</g>
<!-- &#45;5 -->
<g id="node5" class="node"><title>&#45;5</title>
<polygon fill="lightgray" stroke="black" points="129.749,-270.442 105.749,-270.442 105.749,-252.442 129.749,-252.442 129.749,-270.442"/>
<text text-anchor="middle" x="117.749" y="-259.242" font-family="Times,serif" font-size="9.00">&#45;5</text>
</g>
<!-- 2 -->
<g id="node27" class="node"><title>2</title>
<ellipse fill="lightblue" stroke="black" cx="115.749" cy="-175.945" rx="14.7" ry="14.7"/>
<text text-anchor="middle" x="115.749" y="-173.745" font-family="Times,serif" font-size="9.00">2</text>
</g>
<!-- &#45;5&#45;&gt;2 -->
<g id="edge19" class="edge"><title>&#45;5&#45;&gt;2</title>
<path fill="none" stroke="red" stroke-width="0.907836" d="M117.557,-252.436C117.275,-240.673 116.738,-218.235 116.322,-200.866"/>
<polygon fill="red" stroke="red" stroke-width="0.907836" points="119.82,-200.76 116.082,-190.847 112.822,-200.928 119.82,-200.76"/>
</g>
<!-- &#45;6 -->
<g id="node6" class="node"><title>&#45;6</title>
<polygon fill="lightgray" stroke="black" points="432.749,-517.035 408.749,-517.035 408.749,-499.035 432.749,-499.035 432.749,-517.035"/>
<text text-anchor="middle" x="420.749" y="-505.835" font-family="Times,serif" font-size="9.00">&#45;6</text>
</g>
<!-- &#45;7 -->
<g id="node7" class="node"><title>&#45;7</title>
<polygon fill="lightgray" stroke="black" points="182.749,-441.437 158.749,-441.437 158.749,-423.437 182.749,-423.437 182.749,-441.437"/>
<text text-anchor="middle" x="170.749" y="-430.237" font-family="Times,serif" font-size="9.00">&#45;7</text>
</g>
<!-- &#45;7&#45;&gt;6507 -->
<g id="edge2" class="edge"><title>&#45;7&#45;&gt;6507</title>
<path fill="none" stroke="green" stroke-width="0.468855" d="M178.324,-423.431C189.174,-411.962 209.625,-390.347 225.872,-373.175"/>
<polygon fill="green" stroke="green" stroke-width="0.468855" points="228.661,-375.32 232.992,-365.651 223.577,-370.509 228.661,-375.32"/>
</g>
<!-- 2831 -->
<g id="node33" class="node"><title>2831</title>
<ellipse fill="white" stroke="black" cx="158.749" cy="-90.4472" rx="25" ry="25"/>
<text text-anchor="middle" x="158.749" y="-88.2472" font-family="Times,serif" font-size="9.00">2831</text>
</g>
<!-- &#45;7&#45;&gt;2831 -->
<g id="edge6" class="edge"><title>&#45;7&#45;&gt;2831</title>
<path fill="none" stroke="green" stroke-width="0.925526" d="M170.464,-423.368C169.04,-383.031 162.656,-202.161 159.959,-125.723"/>
<polygon fill="green" stroke="green" stroke-width="0.925526" points="163.454,-125.526 159.603,-115.656 156.458,-125.773 163.454,-125.526"/>
</g>
<!-- 4505 -->
<g id="node35" class="node"><title>4505</title>
<ellipse fill="white" stroke="black" cx="211.749" cy="-261.442" rx="25" ry="25"/>
<text text-anchor="middle" x="211.749" y="-259.242" font-family="Times,serif" font-size="9.00">4505</text>
</g>
<!-- &#45;7&#45;&gt;4505 -->
<g id="edge5" class="edge"><title>&#45;7&#45;&gt;4505</title>
<path fill="none" stroke="red" stroke-width="0.307587" d="M172.726,-423.286C178.23,-400.602 193.957,-335.775 203.683,-295.686"/>
<polygon fill="red" stroke="red" stroke-width="0.307587" points="207.12,-296.367 206.076,-285.824 200.317,-294.717 207.12,-296.367"/>
</g>
<!-- 5851 -->
<g id="node37" class="node"><title>5851</title>
<ellipse fill="white" stroke="black" cx="77.7487" cy="-346.94" rx="25" ry="25"/>
<text text-anchor="middle" x="77.7487" y="-344.74" font-family="Times,serif" font-size="9.00">5851</text>
</g>
<!-- &#45;7&#45;&gt;5851 -->
<g id="edge16" class="edge"><title>&#45;7&#45;&gt;5851</title>
<path fill="none" stroke="red" stroke-width="0.10283" d="M161.832,-423.431C148.486,-411.449 122.803,-388.39 103.317,-370.896"/>
<polygon fill="red" stroke="red" stroke-width="0.10283" points="105.444,-368.101 95.6646,-364.025 100.767,-373.31 105.444,-368.101"/>
</g>
<!-- &#45;8 -->
<g id="node8" class="node"><title>&#45;8</title>
<polygon fill="lightgray" stroke="black" points="290.749,-184.945 266.749,-184.945 266.749,-166.945 290.749,-166.945 290.749,-184.945"/>
<text text-anchor="middle" x="278.749" y="-173.745" font-family="Times,serif" font-size="9.00">&#45;8</text>
</g>
<!-- &#45;8&#45;&gt;2197 -->
<g id="edge9" class="edge"><title>&#45;8&#45;&gt;2197</title>
<path fill="none" stroke="green" stroke-width="0.250316" d="M274.722,-166.939C269.538,-156.634 260.234,-138.138 252.134,-122.033"/>
<polygon fill="green" stroke="green" stroke-width="0.250316" points="255.164,-120.268 247.543,-112.908 248.91,-123.414 255.164,-120.268"/>
</g>
<!-- &#45;9 -->
<g id="node9" class="node"><title>&#45;9</title>
<polygon fill="lightgray" stroke="black" points="474.749,-517.035 450.749,-517.035 450.749,-499.035 474.749,-499.035 474.749,-517.035"/>
<text text-anchor="middle" x="462.749" y="-505.835" font-family="Times,serif" font-size="9.00">&#45;9</text>
</g>
<!-- &#45;10 -->
<g id="node10" class="node"><title>&#45;10</title>
<polygon fill="lightgray" stroke="black" points="522.249,-517.035 493.249,-517.035 493.249,-499.035 522.249,-499.035 522.249,-517.035"/>
<text text-anchor="middle" x="507.749" y="-505.835" font-family="Times,serif" font-size="9.00">&#45;10</text>
</g>
<!-- &#45;11 -->
<g id="node11" class="node"><title>&#45;11</title>
<polygon fill="lightgray" stroke="black" points="569.249,-517.035 540.249,-517.035 540.249,-499.035 569.249,-499.035 569.249,-517.035"/>
<text text-anchor="middle" x="554.749" y="-505.835" font-family="Times,serif" font-size="9.00">&#45;11</text>
</g>
<!-- &#45;12 -->
<g id="node12" class="node"><title>&#45;12</title>
<polygon fill="lightgray" stroke="black" points="616.249,-517.035 587.249,-517.035 587.249,-499.035 616.249,-499.035 616.249,-517.035"/>
<text text-anchor="middle" x="601.749" y="-505.835" font-family="Times,serif" font-size="9.00">&#45;12</text>
</g>
<!-- &#45;13 -->
<g id="node13" class="node"><title>&#45;13</title>
<polygon fill="lightgray" stroke="black" points="663.249,-517.035 634.249,-517.035 634.249,-499.035 663.249,-499.035 663.249,-517.035"/>
<text text-anchor="middle" x="648.749" y="-505.835" font-family="Times,serif" font-size="9.00">&#45;13</text>
</g>
<!-- &#45;14 -->
<g id="node14" class="node"><title>&#45;14</title>
<polygon fill="lightgray" stroke="black" points="710.249,-517.035 681.249,-517.035 681.249,-499.035 710.249,-499.035 710.249,-517.035"/>
<text text-anchor="middle" x="695.749" y="-505.835" font-family="Times,serif" font-size="9.00">&#45;14</text>
</g>
<!-- &#45;15 -->
<g id="node15" class="node"><title>&#45;15</title>
<polygon fill="lightgray" stroke="black" points="757.249,-517.035 728.249,-517.035 728.249,-499.035 757.249,-499.035 757.249,-517.035"/>
<text text-anchor="middle" x="742.749" y="-505.835" font-family="Times,serif" font-size="9.00">&#45;15</text>
</g>
<!-- &#45;16 -->
<g id="node16" class="node"><title>&#45;16</title>
<polygon fill="lightgray" stroke="black" points="92.2487,-517.035 63.2487,-517.035 63.2487,-499.035 92.2487,-499.035 92.2487,-517.035"/>
<text text-anchor="middle" x="77.7487" y="-505.835" font-family="Times,serif" font-size="9.00">&#45;16</text>
</g>
<!-- 9319 -->
<g id="node31" class="node"><title>9319</title>
<ellipse fill="white" stroke="black" cx="77.7487" cy="-432.437" rx="25" ry="25"/>
<text text-anchor="middle" x="77.7487" y="-430.237" font-family="Times,serif" font-size="9.00">9319</text>
</g>
<!-- &#45;16&#45;&gt;9319 -->
<g id="edge10" class="edge"><title>&#45;16&#45;&gt;9319</title>
<path fill="none" stroke="green" stroke-width="0.257998" d="M77.7487,-498.878C77.7487,-491.178 77.7487,-479.1 77.7487,-467.405"/>
<polygon fill="green" stroke="green" stroke-width="0.257998" points="81.2488,-467.347 77.7487,-457.347 74.2488,-467.347 81.2488,-467.347"/>
</g>
<!-- &#45;17 -->
<g id="node17" class="node"><title>&#45;17</title>
<polygon fill="lightgray" stroke="black" points="804.249,-517.035 775.249,-517.035 775.249,-499.035 804.249,-499.035 804.249,-517.035"/>
<text text-anchor="middle" x="789.749" y="-505.835" font-family="Times,serif" font-size="9.00">&#45;17</text>
</g>
<!-- &#45;18 -->
<g id="node18" class="node"><title>&#45;18</title>
<polygon fill="lightgray" stroke="black" points="851.249,-517.035 822.249,-517.035 822.249,-499.035 851.249,-499.035 851.249,-517.035"/>
<text text-anchor="middle" x="836.749" y="-505.835" font-family="Times,serif" font-size="9.00">&#45;18</text>
</g>
<!-- &#45;19 -->
<g id="node19" class="node"><title>&#45;19</title>
<polygon fill="lightgray" stroke="black" points="898.249,-517.035 869.249,-517.035 869.249,-499.035 898.249,-499.035 898.249,-517.035"/>
<text text-anchor="middle" x="883.749" y="-505.835" font-family="Times,serif" font-size="9.00">&#45;19</text>
</g>
<!-- &#45;20 -->
<g id="node20" class="node"><title>&#45;20</title>
<polygon fill="lightgray" stroke="black" points="306.249,-517.035 277.249,-517.035 277.249,-499.035 306.249,-499.035 306.249,-517.035"/>
<text text-anchor="middle" x="291.749" y="-505.835" font-family="Times,serif" font-size="9.00">&#45;20</text>
</g>
<!-- 7718 -->
<g id="node30" class="node"><title>7718</title>
<ellipse fill="white" stroke="black" cx="291.749" cy="-432.437" rx="25" ry="25"/>
<text text-anchor="middle" x="291.749" y="-430.237" font-family="Times,serif" font-size="9.00">7718</text>
</g>
<!-- &#45;20&#45;&gt;7718 -->
<g id="edge21" class="edge"><title>&#45;20&#45;&gt;7718</title>
<path fill="none" stroke="red" stroke-width="0.589656" d="M291.749,-498.878C291.749,-491.178 291.749,-479.1 291.749,-467.405"/>
<polygon fill="red" stroke="red" stroke-width="0.589656" points="295.249,-467.347 291.749,-457.347 288.249,-467.347 295.249,-467.347"/>
</g>
<!-- &#45;21 -->
<g id="node21" class="node"><title>&#45;21</title>
<polygon fill="lightgray" stroke="black" points="945.249,-517.035 916.249,-517.035 916.249,-499.035 945.249,-499.035 945.249,-517.035"/>
<text text-anchor="middle" x="930.749" y="-505.835" font-family="Times,serif" font-size="9.00">&#45;21</text>
</g>
<!-- &#45;22 -->
<g id="node22" class="node"><title>&#45;22</title>
<polygon fill="lightgray" stroke="black" points="992.249,-517.035 963.249,-517.035 963.249,-499.035 992.249,-499.035 992.249,-517.035"/>
<text text-anchor="middle" x="977.749" y="-505.835" font-family="Times,serif" font-size="9.00">&#45;22</text>
</g>
<!-- &#45;23 -->
<g id="node23" class="node"><title>&#45;23</title>
<polygon fill="lightgray" stroke="black" points="1039.25,-517.035 1010.25,-517.035 1010.25,-499.035 1039.25,-499.035 1039.25,-517.035"/>
<text text-anchor="middle" x="1024.75" y="-505.835" font-family="Times,serif" font-size="9.00">&#45;23</text>
</g>
<!-- &#45;24 -->
<g id="node24" class="node"><title>&#45;24</title>
<polygon fill="lightgray" stroke="black" points="1086.25,-517.035 1057.25,-517.035 1057.25,-499.035 1086.25,-499.035 1086.25,-517.035"/>
<text text-anchor="middle" x="1071.75" y="-505.835" font-family="Times,serif" font-size="9.00">&#45;24</text>
</g>
<!-- 0 -->
<g id="node25" class="node"><title>0</title>
<ellipse fill="lightblue" stroke="black" cx="158.749" cy="-14.8492" rx="14.7" ry="14.7"/>
<text text-anchor="middle" x="158.749" y="-12.6492" font-family="Times,serif" font-size="9.00">0</text>
</g>
<!-- 1 -->
<g id="node26" class="node"><title>1</title>
<ellipse fill="lightblue" stroke="black" cx="221.749" cy="-14.8492" rx="14.7" ry="14.7"/>
<text text-anchor="middle" x="221.749" y="-12.6492" font-family="Times,serif" font-size="9.00">1</text>
</g>
<!-- 2&#45;&gt;2831 -->
<g id="edge18" class="edge"><title>2&#45;&gt;2831</title>
<path fill="none" stroke="red" stroke-width="0.166505" d="M122.28,-162.263C127.777,-151.588 135.867,-135.879 143.032,-121.966"/>
<polygon fill="red" stroke="red" stroke-width="0.166505" points="146.334,-123.199 147.801,-112.706 140.111,-119.994 146.334,-123.199"/>
</g>
<!-- 3 -->
<g id="node28" class="node"><title>3</title>
<ellipse fill="lightblue" stroke="black" cx="1118.75" cy="-508.035" rx="14.7" ry="14.7"/>
<text text-anchor="middle" x="1118.75" y="-505.835" font-family="Times,serif" font-size="9.00">3</text>
</g>
<!-- 9794 -->
<g id="node29" class="node"><title>9794</title>
<ellipse fill="white" stroke="black" cx="24.7487" cy="-261.442" rx="25" ry="25"/>
<text text-anchor="middle" x="24.7487" y="-259.242" font-family="Times,serif" font-size="9.00">9794</text>
</g>
<!-- 6074 -->
<g id="node36" class="node"><title>6074</title>
<ellipse fill="white" stroke="black" cx="57.7487" cy="-175.945" rx="25" ry="25"/>
<text text-anchor="middle" x="57.7487" y="-173.745" font-family="Times,serif" font-size="9.00">6074</text>
</g>
<!-- 9794&#45;&gt;6074 -->
<g id="edge20" class="edge"><title>9794&#45;&gt;6074</title>
<path fill="none" stroke="green" stroke-width="0.291787" d="M33.5921,-238.066C37.1432,-229.081 41.3022,-218.558 45.1588,-208.8"/>
<polygon fill="green" stroke="green" stroke-width="0.291787" points="48.4603,-209.969 48.8809,-199.382 41.9503,-207.396 48.4603,-209.969"/>
</g>
<!-- 7718&#45;&gt;6507 -->
<g id="edge4" class="edge"><title>7718&#45;&gt;6507</title>
<path fill="none" stroke="red" stroke-width="1.01596" d="M280.933,-409.934C276.132,-400.39 270.394,-388.982 265.156,-378.57"/>
<polygon fill="red" stroke="red" stroke-width="1.01596" points="268.149,-376.73 260.528,-369.369 261.895,-379.876 268.149,-376.73"/>
</g>
<!-- 9319&#45;&gt;5851 -->
<g id="edge3" class="edge"><title>9319&#45;&gt;5851</title>
<path fill="none" stroke="red" stroke-width="1.25929" d="M77.7487,-407.286C77.7487,-399.342 77.7487,-390.358 77.7487,-381.827"/>
<polygon fill="red" stroke="red" stroke-width="1.25929" points="81.2488,-381.748 77.7487,-371.748 74.2488,-381.748 81.2488,-381.748"/>
</g>
<!-- 2831&#45;&gt;0 -->
<g id="edge13" class="edge"><title>2831&#45;&gt;0</title>
<path fill="none" stroke="red" stroke-width="0.452214" d="M158.749,-65.3485C158.749,-57.1867 158.749,-48.0749 158.749,-39.9156"/>
<polygon fill="red" stroke="red" stroke-width="0.452214" points="162.249,-39.8982 158.749,-29.8983 155.249,-39.8983 162.249,-39.8982"/>
</g>
<!-- 2831&#45;&gt;1 -->
<g id="edge8" class="edge"><title>2831&#45;&gt;1</title>
<path fill="none" stroke="red" stroke-width="0.420398" d="M174.646,-70.8753C184.174,-59.7451 196.249,-45.6385 205.788,-34.4951"/>
<polygon fill="red" stroke="red" stroke-width="0.420398" points="208.66,-36.5225 212.504,-26.6496 203.342,-31.9704 208.66,-36.5225"/>
</g>
<!-- 2197&#45;&gt;1 -->
<g id="edge12" class="edge"><title>2197&#45;&gt;1</title>
<path fill="none" stroke="green" stroke-width="0.724825" d="M231.92,-65.7552C230.21,-57.3641 228.286,-47.927 226.576,-39.5362"/>
<polygon fill="green" stroke="green" stroke-width="0.724825" points="229.983,-38.7246 224.556,-29.625 223.124,-40.1225 229.983,-38.7246"/>
</g>
<!-- 4505&#45;&gt;2831 -->
<g id="edge17" class="edge"><title>4505&#45;&gt;2831</title>
<path fill="none" stroke="red" stroke-width="1.18188" d="M204.601,-237.651C195.434,-208.421 179.473,-157.529 169.01,-124.165"/>
<polygon fill="red" stroke="red" stroke-width="1.18188" points="172.285,-122.912 165.953,-114.417 165.606,-125.006 172.285,-122.912"/>
</g>
<!-- 6074&#45;&gt;2831 -->
<g id="edge1" class="edge"><title>6074&#45;&gt;2831</title>
<path fill="none" stroke="green" stroke-width="0.276223" d="M76.7461,-159.239C92.264,-146.411 114.39,-128.119 131.748,-113.769"/>
<polygon fill="green" stroke="green" stroke-width="0.276223" points="134.359,-116.151 139.837,-107.082 129.899,-110.756 134.359,-116.151"/>
</g>
<!-- 5851&#45;&gt;9794 -->
<g id="edge7" class="edge"><title>5851&#45;&gt;9794</title>
<path fill="none" stroke="green" stroke-width="0.3" d="M64.9189,-325.727C58.3921,-315.445 50.3417,-302.762 43.1658,-291.457"/>
<polygon fill="green" stroke="green" stroke-width="0.3" points="45.9582,-289.325 37.6441,-282.758 40.0482,-293.076 45.9582,-289.325"/>
</g>
<!-- 5851&#45;&gt;6074 -->
<g id="edge11" class="edge"><title>5851&#45;&gt;6074</title>
<path fill="none" stroke="green" stroke-width="0.783557" d="M74.9256,-322.085C71.4862,-293.022 65.6525,-243.73 61.7509,-210.762"/>
<polygon fill="green" stroke="green" stroke-width="0.783557" points="65.2086,-210.197 60.5575,-200.678 58.2571,-211.02 65.2086,-210.197"/>
</g>
</g>
</svg>
