<?xml version="1.0" encoding="UTF-8" standalone="no"?>
<!DOCTYPE svg PUBLIC "-//W3C//DTD SVG 1.1//EN"
 "http://www.w3.org/Graphics/SVG/1.1/DTD/svg11.dtd">
<!-- Generated by graphviz version 2.38.0 (20140413.2041)
 -->
<!-- Title: %3 Pages: 1 -->
<svg width="1083pt" height="177pt"
 viewBox="0.00 0.00 1082.81 177.20" xmlns="http://www.w3.org/2000/svg" xmlns:xlink="http://www.w3.org/1999/xlink">
<g id="graph0" class="graph" transform="scale(1 1) rotate(0) translate(4 173.196)">
<title>%3</title>
<polygon fill="white" stroke="none" points="-4,4 -4,-173.196 1078.81,-173.196 1078.81,4 -4,4"/>
<!-- &#45;1 -->
<g id="node1" class="node"><title>&#45;1</title>
<polygon fill="lightgray" stroke="black" points="42.3107,-99.4472 18.3107,-99.4472 18.3107,-81.4472 42.3107,-81.4472 42.3107,-99.4472"/>
<text text-anchor="middle" x="30.3107" y="-88.2472" font-family="Times,serif" font-size="9.00">&#45;1</text>
</g>
<!-- 1 -->
<g id="node26" class="node"><title>1</title>
<ellipse fill="lightblue" stroke="black" cx="104.311" cy="-14.8492" rx="14.7" ry="14.7"/>
<text text-anchor="middle" x="104.311" y="-12.6492" font-family="Times,serif" font-size="9.00">1</text>
</g>
<!-- &#45;1&#45;&gt;1 -->
<g id="edge7" class="edge"><title>&#45;1&#45;&gt;1</title>
<path fill="none" stroke="green" stroke-width="0.193227" d="M37.1325,-81.3659C41.1564,-76.6931 46.4064,-70.7559 51.3107,-65.6985 62.4129,-54.2498 75.4549,-41.9694 85.8232,-32.4621"/>
<polygon fill="green" stroke="green" stroke-width="0.193227" points="88.4341,-34.8185 93.477,-25.5008 83.7242,-29.64 88.4341,-34.8185"/>
</g>
<!-- &#45;2 -->
<g id="node2" class="node"><title>&#45;2</title>
<polygon fill="lightgray" stroke="black" points="607.311,-99.4472 583.311,-99.4472 583.311,-81.4472 607.311,-81.4472 607.311,-99.4472"/>
<text text-anchor="middle" x="595.311" y="-88.2472" font-family="Times,serif" font-size="9.00">&#45;2</text>
</g>
<!-- 0 -->
<g id="node25" class="node"><title>0</title>
<ellipse fill="lightblue" stroke="black" cx="393.311" cy="-14.8492" rx="14.7" ry="14.7"/>
<text text-anchor="middle" x="393.311" y="-12.6492" font-family="Times,serif" font-size="9.00">0</text>
</g>
<!-- &#45;2&#45;&gt;0 -->
<g id="edge6" class="edge"><title>&#45;2&#45;&gt;0</title>
<path fill="none" stroke="red" stroke-width="0.140449" d="M589.98,-81.2961C586.191,-76.1151 580.661,-69.6602 574.311,-65.6985 524.438,-34.5874 455.007,-22.5709 418.325,-18.1856"/>
<polygon fill="red" stroke="red" stroke-width="0.140449" points="418.372,-14.6698 408.05,-17.0569 417.608,-21.628 418.372,-14.6698"/>
</g>
<!-- 2 -->
<g id="node27" class="node"><title>2</title>
<ellipse fill="lightblue" stroke="black" cx="668.311" cy="-14.8492" rx="14.7" ry="14.7"/>
<text text-anchor="middle" x="668.311" y="-12.6492" font-family="Times,serif" font-size="9.00">2</text>
</g>
<!-- &#45;2&#45;&gt;2 -->
<g id="edge20" class="edge"><title>&#45;2&#45;&gt;2</title>
<path fill="none" stroke="red" stroke-width="0.285376" d="M602.547,-81.4388C606.792,-76.7903 612.292,-70.8531 617.311,-65.6985 628.215,-54.4984 640.767,-42.2214 650.691,-32.6537"/>
<polygon fill="red" stroke="red" stroke-width="0.285376" points="653.213,-35.0838 658.004,-25.6337 648.366,-30.0339 653.213,-35.0838"/>
</g>
<!-- &#45;3 -->
<g id="node3" class="node"><title>&#45;3</title>
<polygon fill="lightgray" stroke="black" points="755.311,-169.196 731.311,-169.196 731.311,-151.196 755.311,-151.196 755.311,-169.196"/>
<text text-anchor="middle" x="743.311" y="-157.996" font-family="Times,serif" font-size="9.00">&#45;3</text>
</g>
<!-- &#45;4 -->
<g id="node4" class="node"><title>&#45;4</title>
<polygon fill="lightgray" stroke="black" points="552.311,-169.196 528.311,-169.196 528.311,-151.196 552.311,-151.196 552.311,-169.196"/>
<text text-anchor="middle" x="540.311" y="-157.996" font-family="Times,serif" font-size="9.00">&#45;4</text>
</g>
<!-- 6676 -->
<g id="node31" class="node"><title>6676</title>
<ellipse fill="white" stroke="black" cx="540.311" cy="-90.4472" rx="25" ry="25"/>
<text text-anchor="middle" x="540.311" y="-88.2472" font-family="Times,serif" font-size="9.00">6676</text>
</g>
<!-- &#45;4&#45;&gt;6676 -->
<g id="edge13" class="edge"><title>&#45;4&#45;&gt;6676</title>
<path fill="none" stroke="green" stroke-width="0.121327" d="M540.311,-151.158C540.311,-144.723 540.311,-135.225 540.311,-125.689"/>
<polygon fill="green" stroke="green" stroke-width="0.121327" points="543.811,-125.468 540.311,-115.468 536.811,-125.469 543.811,-125.468"/>
</g>
<!-- &#45;5 -->
<g id="node5" class="node"><title>&#45;5</title>
<polygon fill="lightgray" stroke="black" points="323.311,-99.4472 299.311,-99.4472 299.311,-81.4472 323.311,-81.4472 323.311,-99.4472"/>
<text text-anchor="middle" x="311.311" y="-88.2472" font-family="Times,serif" font-size="9.00">&#45;5</text>
</g>
<!-- &#45;5&#45;&gt;0 -->
<g id="edge17" class="edge"><title>&#45;5&#45;&gt;0</title>
<path fill="none" stroke="red" stroke-width="2.35937" d="M318.003,-81.2356C321.983,-76.5193 327.233,-70.5821 332.311,-65.6985 345.319,-53.1866 361.126,-40.3274 373.389,-30.804"/>
<polygon fill="red" stroke="red" stroke-width="2.35937" points="375.793,-33.3719 381.602,-24.5117 371.535,-27.8153 375.793,-33.3719"/>
</g>
<!-- &#45;6 -->
<g id="node6" class="node"><title>&#45;6</title>
<polygon fill="lightgray" stroke="black" points="797.311,-169.196 773.311,-169.196 773.311,-151.196 797.311,-151.196 797.311,-169.196"/>
<text text-anchor="middle" x="785.311" y="-157.996" font-family="Times,serif" font-size="9.00">&#45;6</text>
</g>
<!-- &#45;7 -->
<g id="node7" class="node"><title>&#45;7</title>
<polygon fill="lightgray" stroke="black" points="121.311,-169.196 97.3107,-169.196 97.3107,-151.196 121.311,-151.196 121.311,-169.196"/>
<text text-anchor="middle" x="109.311" y="-157.996" font-family="Times,serif" font-size="9.00">&#45;7</text>
</g>
<!-- 4875 -->
<g id="node29" class="node"><title>4875</title>
<ellipse fill="white" stroke="black" cx="132.311" cy="-90.4472" rx="25" ry="25"/>
<text text-anchor="middle" x="132.311" y="-88.2472" font-family="Times,serif" font-size="9.00">4875</text>
</g>
<!-- &#45;7&#45;&gt;4875 -->
<g id="edge8" class="edge"><title>&#45;7&#45;&gt;4875</title>
<path fill="none" stroke="green" stroke-width="0.499752" d="M112.039,-151.158C114.366,-144.305 117.872,-133.979 121.317,-123.831"/>
<polygon fill="green" stroke="green" stroke-width="0.499752" points="124.66,-124.871 124.561,-114.276 118.032,-122.62 124.66,-124.871"/>
</g>
<!-- &#45;8 -->
<g id="node8" class="node"><title>&#45;8</title>
<polygon fill="lightgray" stroke="black" points="839.311,-169.196 815.311,-169.196 815.311,-151.196 839.311,-151.196 839.311,-169.196"/>
<text text-anchor="middle" x="827.311" y="-157.996" font-family="Times,serif" font-size="9.00">&#45;8</text>
</g>
<!-- &#45;9 -->
<g id="node9" class="node"><title>&#45;9</title>
<polygon fill="lightgray" stroke="black" points="365.311,-99.4472 341.311,-99.4472 341.311,-81.4472 365.311,-81.4472 365.311,-99.4472"/>
<text text-anchor="middle" x="353.311" y="-88.2472" font-family="Times,serif" font-size="9.00">&#45;9</text>
</g>
<!-- &#45;9&#45;&gt;0 -->
<g id="edge23" class="edge"><title>&#45;9&#45;&gt;0</title>
<path fill="none" stroke="red" stroke-width="1.3619" d="M357.744,-81.2897C363.484,-70.7286 373.701,-51.9305 381.716,-37.1831"/>
<polygon fill="red" stroke="red" stroke-width="1.3619" points="384.896,-38.6617 386.596,-28.2042 378.745,-35.319 384.896,-38.6617"/>
</g>
<!-- &#45;10 -->
<g id="node10" class="node"><title>&#45;10</title>
<polygon fill="lightgray" stroke="black" points="300.811,-169.196 271.811,-169.196 271.811,-151.196 300.811,-151.196 300.811,-169.196"/>
<text text-anchor="middle" x="286.311" y="-157.996" font-family="Times,serif" font-size="9.00">&#45;10</text>
</g>
<!-- &#45;10&#45;&gt;0 -->
<g id="edge5" class="edge"><title>&#45;10&#45;&gt;0</title>
<path fill="none" stroke="green" stroke-width="0.140719" d="M301.065,-156.098C320.979,-151.106 356.061,-139.3 374.311,-115.196 390.724,-93.5183 394.233,-61.7193 394.444,-39.973"/>
<polygon fill="green" stroke="green" stroke-width="0.140719" points="397.943,-39.8632 394.314,-29.9091 390.943,-39.9533 397.943,-39.8632"/>
</g>
<!-- &#45;10&#45;&gt;4875 -->
<g id="edge15" class="edge"><title>&#45;10&#45;&gt;4875</title>
<path fill="none" stroke="green" stroke-width="0.79688" d="M271.794,-154.588C249.628,-147.344 206.238,-132.335 171.311,-115.196 167.984,-113.563 164.571,-111.735 161.215,-109.837"/>
<polygon fill="green" stroke="green" stroke-width="0.79688" points="162.954,-106.799 152.562,-104.736 159.4,-112.829 162.954,-106.799"/>
</g>
<!-- &#45;11 -->
<g id="node11" class="node"><title>&#45;11</title>
<polygon fill="lightgray" stroke="black" points="654.811,-99.4472 625.811,-99.4472 625.811,-81.4472 654.811,-81.4472 654.811,-99.4472"/>
<text text-anchor="middle" x="640.311" y="-88.2472" font-family="Times,serif" font-size="9.00">&#45;11</text>
</g>
<!-- &#45;11&#45;&gt;2 -->
<g id="edge27" class="edge"><title>&#45;11&#45;&gt;2</title>
<path fill="none" stroke="red" stroke-width="0.655442" d="M643.414,-81.2897C647.324,-71.0116 654.203,-52.9321 659.74,-38.3773"/>
<polygon fill="red" stroke="red" stroke-width="0.655442" points="663.022,-39.5941 663.306,-29.0031 656.479,-37.105 663.022,-39.5941"/>
</g>
<!-- &#45;12 -->
<g id="node12" class="node"><title>&#45;12</title>
<polygon fill="lightgray" stroke="black" points="886.811,-169.196 857.811,-169.196 857.811,-151.196 886.811,-151.196 886.811,-169.196"/>
<text text-anchor="middle" x="872.311" y="-157.996" font-family="Times,serif" font-size="9.00">&#45;12</text>
</g>
<!-- &#45;13 -->
<g id="node13" class="node"><title>&#45;13</title>
<polygon fill="lightgray" stroke="black" points="933.811,-169.196 904.811,-169.196 904.811,-151.196 933.811,-151.196 933.811,-169.196"/>
<text text-anchor="middle" x="919.311" y="-157.996" font-family="Times,serif" font-size="9.00">&#45;13</text>
</g>
<!-- &#45;14 -->
<g id="node14" class="node"><title>&#45;14</title>
<polygon fill="lightgray" stroke="black" points="768.811,-99.4472 739.811,-99.4472 739.811,-81.4472 768.811,-81.4472 768.811,-99.4472"/>
<text text-anchor="middle" x="754.311" y="-88.2472" font-family="Times,serif" font-size="9.00">&#45;14</text>
</g>
<!-- &#45;14&#45;&gt;2 -->
<g id="edge10" class="edge"><title>&#45;14&#45;&gt;2</title>
<path fill="none" stroke="red" stroke-width="0.655562" d="M746.897,-81.2695C742.509,-76.5645 736.759,-70.6273 731.311,-65.6985 717.361,-53.0782 700.623,-39.9191 687.907,-30.292"/>
<polygon fill="red" stroke="red" stroke-width="0.655562" points="689.931,-27.4355 679.829,-24.2414 685.735,-33.038 689.931,-27.4355"/>
</g>
<!-- 3 -->
<g id="node28" class="node"><title>3</title>
<ellipse fill="lightblue" stroke="black" cx="811.311" cy="-14.8492" rx="14.7" ry="14.7"/>
<text text-anchor="middle" x="811.311" y="-12.6492" font-family="Times,serif" font-size="9.00">3</text>
</g>
<!-- &#45;14&#45;&gt;3 -->
<g id="edge19" class="edge"><title>&#45;14&#45;&gt;3</title>
<path fill="none" stroke="red" stroke-width="1.36959" d="M760.629,-81.2897C769.158,-70.2771 784.623,-50.3083 796.235,-35.3151"/>
<polygon fill="red" stroke="red" stroke-width="1.36959" points="799.189,-37.2168 802.545,-27.1675 793.655,-32.9306 799.189,-37.2168"/>
</g>
<!-- &#45;15 -->
<g id="node15" class="node"><title>&#45;15</title>
<polygon fill="lightgray" stroke="black" points="980.811,-169.196 951.811,-169.196 951.811,-151.196 980.811,-151.196 980.811,-169.196"/>
<text text-anchor="middle" x="966.311" y="-157.996" font-family="Times,serif" font-size="9.00">&#45;15</text>
</g>
<!-- &#45;16 -->
<g id="node16" class="node"><title>&#45;16</title>
<polygon fill="lightgray" stroke="black" points="168.811,-169.196 139.811,-169.196 139.811,-151.196 168.811,-151.196 168.811,-169.196"/>
<text text-anchor="middle" x="154.311" y="-157.996" font-family="Times,serif" font-size="9.00">&#45;16</text>
</g>
<!-- &#45;16&#45;&gt;0 -->
<g id="edge28" class="edge"><title>&#45;16&#45;&gt;0</title>
<path fill="none" stroke="green" stroke-width="0.470233" d="M169.151,-155.061C189.481,-148.866 226.416,-135.67 252.311,-115.196 274.066,-97.9945 268.805,-83.2107 290.311,-65.6985 314.381,-46.0978 347.441,-31.8531 369.548,-23.7284"/>
<polygon fill="green" stroke="green" stroke-width="0.470233" points="370.889,-26.9668 379.149,-20.3317 368.554,-20.3676 370.889,-26.9668"/>
</g>
<!-- &#45;16&#45;&gt;1 -->
<g id="edge22" class="edge"><title>&#45;16&#45;&gt;1</title>
<path fill="none" stroke="green" stroke-width="0.150212" d="M139.612,-154.212C136.544,-153.196 133.327,-152.147 130.311,-151.196 76.8006,-134.322 42.8542,-160.172 9.31072,-115.196 -3.84116,-97.5614 -2.07095,-84.5242 9.31072,-65.6985 24.5345,-40.5177 57.1473,-27.4317 79.8895,-21.1024"/>
<polygon fill="green" stroke="green" stroke-width="0.150212" points="81.0085,-24.4296 89.8437,-18.5824 79.2905,-17.6436 81.0085,-24.4296"/>
</g>
<!-- &#45;16&#45;&gt;4875 -->
<g id="edge21" class="edge"><title>&#45;16&#45;&gt;4875</title>
<path fill="none" stroke="red" stroke-width="0.167083" d="M151.701,-151.158C149.475,-144.305 146.122,-133.979 142.827,-123.831"/>
<polygon fill="red" stroke="red" stroke-width="0.167083" points="146.141,-122.706 139.724,-114.276 139.484,-124.868 146.141,-122.706"/>
</g>
<!-- &#45;17 -->
<g id="node17" class="node"><title>&#45;17</title>
<polygon fill="lightgray" stroke="black" points="89.8107,-99.4472 60.8107,-99.4472 60.8107,-81.4472 89.8107,-81.4472 89.8107,-99.4472"/>
<text text-anchor="middle" x="75.3107" y="-88.2472" font-family="Times,serif" font-size="9.00">&#45;17</text>
</g>
<!-- &#45;17&#45;&gt;1 -->
<g id="edge4" class="edge"><title>&#45;17&#45;&gt;1</title>
<path fill="none" stroke="red" stroke-width="0.406859" d="M78.525,-81.2897C82.5749,-71.0116 89.6989,-52.9321 95.4339,-38.3773"/>
<polygon fill="red" stroke="red" stroke-width="0.406859" points="98.7179,-39.59 99.1277,-29.0031 92.2053,-37.0238 98.7179,-39.59"/>
</g>
<!-- &#45;18 -->
<g id="node18" class="node"><title>&#45;18</title>
<polygon fill="lightgray" stroke="black" points="882.811,-99.4472 853.811,-99.4472 853.811,-81.4472 882.811,-81.4472 882.811,-99.4472"/>
<text text-anchor="middle" x="868.311" y="-88.2472" font-family="Times,serif" font-size="9.00">&#45;18</text>
</g>
<!-- &#45;18&#45;&gt;3 -->
<g id="edge24" class="edge"><title>&#45;18&#45;&gt;3</title>
<path fill="none" stroke="red" stroke-width="0.215634" d="M861.993,-81.2897C853.464,-70.2771 837.999,-50.3083 826.387,-35.3151"/>
<polygon fill="red" stroke="red" stroke-width="0.215634" points="828.967,-32.9306 820.076,-27.1675 823.433,-37.2168 828.967,-32.9306"/>
</g>
<!-- &#45;19 -->
<g id="node19" class="node"><title>&#45;19</title>
<polygon fill="lightgray" stroke="black" points="242.811,-99.4472 213.811,-99.4472 213.811,-81.4472 242.811,-81.4472 242.811,-99.4472"/>
<text text-anchor="middle" x="228.311" y="-88.2472" font-family="Times,serif" font-size="9.00">&#45;19</text>
</g>
<!-- &#45;19&#45;&gt;0 -->
<g id="edge25" class="edge"><title>&#45;19&#45;&gt;0</title>
<path fill="none" stroke="green" stroke-width="0.716706" d="M236.881,-81.1269C242.374,-76.1383 249.851,-69.9573 257.311,-65.6985 294.104,-44.693 341.372,-29.7451 369.392,-21.9795"/>
<polygon fill="green" stroke="green" stroke-width="0.716706" points="370.382,-25.3378 379.127,-19.3572 368.561,-18.5788 370.382,-25.3378"/>
</g>
<!-- &#45;19&#45;&gt;1 -->
<g id="edge18" class="edge"><title>&#45;19&#45;&gt;1</title>
<path fill="none" stroke="green" stroke-width="0.175776" d="M219.277,-81.2446C213.733,-76.4191 206.365,-70.3679 199.311,-65.6985 175.66,-50.044 146.533,-35.3755 126.813,-26.0588"/>
<polygon fill="green" stroke="green" stroke-width="0.175776" points="128.238,-22.8616 117.695,-21.816 125.285,-29.2081 128.238,-22.8616"/>
</g>
<!-- &#45;20 -->
<g id="node20" class="node"><title>&#45;20</title>
<polygon fill="lightgray" stroke="black" points="1027.81,-169.196 998.811,-169.196 998.811,-151.196 1027.81,-151.196 1027.81,-169.196"/>
<text text-anchor="middle" x="1013.31" y="-157.996" font-family="Times,serif" font-size="9.00">&#45;20</text>
</g>
<!-- &#45;21 -->
<g id="node21" class="node"><title>&#45;21</title>
<polygon fill="lightgray" stroke="black" points="450.811,-99.4472 421.811,-99.4472 421.811,-81.4472 450.811,-81.4472 450.811,-99.4472"/>
<text text-anchor="middle" x="436.311" y="-88.2472" font-family="Times,serif" font-size="9.00">&#45;21</text>
</g>
<!-- &#45;21&#45;&gt;0 -->
<g id="edge12" class="edge"><title>&#45;21&#45;&gt;0</title>
<path fill="none" stroke="green" stroke-width="2.46306" d="M431.545,-81.2897C425.338,-70.6672 414.264,-51.7116 405.625,-36.9263"/>
<polygon fill="green" stroke="green" stroke-width="2.46306" points="408.443,-34.8106 400.376,-27.9419 402.399,-38.3419 408.443,-34.8106"/>
</g>
<!-- &#45;22 -->
<g id="node22" class="node"><title>&#45;22</title>
<polygon fill="lightgray" stroke="black" points="712.811,-169.196 683.811,-169.196 683.811,-151.196 712.811,-151.196 712.811,-169.196"/>
<text text-anchor="middle" x="698.311" y="-157.996" font-family="Times,serif" font-size="9.00">&#45;22</text>
</g>
<!-- &#45;22&#45;&gt;1 -->
<g id="edge14" class="edge"><title>&#45;22&#45;&gt;1</title>
<path fill="none" stroke="red" stroke-width="0.164644" d="M683.705,-158.227C604.159,-152.908 225.912,-127.065 204.311,-115.196 180.004,-101.84 185.7,-85.5284 166.311,-65.6985 153.444,-52.5397 137.174,-39.5739 124.53,-30.1652"/>
<polygon fill="red" stroke="red" stroke-width="0.164644" points="126.582,-27.3301 116.442,-24.2611 122.455,-32.984 126.582,-27.3301"/>
</g>
<!-- 6932 -->
<g id="node32" class="node"><title>6932</title>
<ellipse fill="white" stroke="black" cx="811.311" cy="-90.4472" rx="25" ry="25"/>
<text text-anchor="middle" x="811.311" y="-88.2472" font-family="Times,serif" font-size="9.00">6932</text>
</g>
<!-- &#45;22&#45;&gt;6932 -->
<g id="edge29" class="edge"><title>&#45;22&#45;&gt;6932</title>
<path fill="none" stroke="green" stroke-width="0.2743" d="M713.068,-151.764C729.356,-143.404 756.198,-129.162 778.311,-115.196 779.967,-114.15 781.652,-113.052 783.339,-111.925"/>
<polygon fill="green" stroke="green" stroke-width="0.2743" points="785.446,-114.724 791.685,-106.161 781.468,-108.964 785.446,-114.724"/>
</g>
<!-- &#45;23 -->
<g id="node23" class="node"><title>&#45;23</title>
<polygon fill="lightgray" stroke="black" points="1074.81,-169.196 1045.81,-169.196 1045.81,-151.196 1074.81,-151.196 1074.81,-169.196"/>
<text text-anchor="middle" x="1060.31" y="-157.996" font-family="Times,serif" font-size="9.00">&#45;23</text>
</g>
<!-- &#45;24 -->
<g id="node24" class="node"><title>&#45;24</title>
<polygon fill="lightgray" stroke="black" points="497.811,-99.4472 468.811,-99.4472 468.811,-81.4472 497.811,-81.4472 497.811,-99.4472"/>
<text text-anchor="middle" x="483.311" y="-88.2472" font-family="Times,serif" font-size="9.00">&#45;24</text>
</g>
<!-- &#45;24&#45;&gt;0 -->
<g id="edge26" class="edge"><title>&#45;24&#45;&gt;0</title>
<path fill="none" stroke="green" stroke-width="0.818901" d="M475.951,-81.2084C471.581,-76.483 465.831,-70.5458 460.311,-65.6985 445.386,-52.5941 427.248,-39.2399 413.61,-29.6558"/>
<polygon fill="green" stroke="green" stroke-width="0.818901" points="415.588,-26.7681 405.377,-23.9426 411.597,-32.5192 415.588,-26.7681"/>
</g>
<!-- 1&#45;&gt;1 -->
<g id="edge16" class="edge"><title>1&#45;&gt;1</title>
<path fill="none" stroke="red" stroke-width="0.555138" d="M114.738,-25.6755C125.349,-32.0439 137.16,-28.4352 137.16,-14.8492 137.16,-5.50891 131.578,-0.884351 124.641,-0.975566"/>
<polygon fill="red" stroke="red" stroke-width="0.555138" points="123.267,2.26363 114.738,-4.02295 125.326,-4.42672 123.267,2.26363"/>
</g>
<!-- 3&#45;&gt;3 -->
<g id="edge9" class="edge"><title>3&#45;&gt;3</title>
<path fill="none" stroke="green" stroke-width="0.106456" d="M821.738,-25.6755C832.349,-32.0439 844.16,-28.4352 844.16,-14.8492 844.16,-5.50891 838.578,-0.884351 831.641,-0.975566"/>
<polygon fill="green" stroke="green" stroke-width="0.106456" points="830.267,2.26363 821.738,-4.02295 832.326,-4.42672 830.267,2.26363"/>
</g>
<!-- 4875&#45;&gt;1 -->
<g id="edge3" class="edge"><title>4875&#45;&gt;1</title>
<path fill="none" stroke="red" stroke-width="0.449729" d="M123.758,-66.9655C120.346,-57.997 116.422,-47.6843 112.997,-38.6813"/>
<polygon fill="red" stroke="red" stroke-width="0.449729" points="116.223,-37.3165 109.396,-29.2146 109.68,-39.8056 116.223,-37.3165"/>
</g>
<!-- 3760 -->
<g id="node30" class="node"><title>3760</title>
<ellipse fill="white" stroke="black" cx="697.311" cy="-90.4472" rx="25" ry="25"/>
<text text-anchor="middle" x="697.311" y="-88.2472" font-family="Times,serif" font-size="9.00">3760</text>
</g>
<!-- 3760&#45;&gt;2 -->
<g id="edge2" class="edge"><title>3760&#45;&gt;2</title>
<path fill="none" stroke="red" stroke-width="0.131192" d="M688.452,-66.9655C684.918,-57.997 680.855,-47.6843 677.307,-38.6813"/>
<polygon fill="red" stroke="red" stroke-width="0.131192" points="680.499,-37.2353 673.577,-29.2146 673.987,-39.8015 680.499,-37.2353"/>
</g>
<!-- 6676&#45;&gt;0 -->
<g id="edge11" class="edge"><title>6676&#45;&gt;0</title>
<path fill="none" stroke="green" stroke-width="0.254645" d="M521.222,-74.6746C516.773,-71.5269 511.971,-68.3547 507.311,-65.6985 477.23,-48.5551 440.129,-33.3377 416.589,-24.3548"/>
<polygon fill="green" stroke="green" stroke-width="0.254645" points="417.689,-21.0291 407.097,-20.7904 415.228,-27.5824 417.689,-21.0291"/>
</g>
<!-- 6932&#45;&gt;3 -->
<g id="edge1" class="edge"><title>6932&#45;&gt;3</title>
<path fill="none" stroke="green" stroke-width="0.885152" d="M811.311,-65.3485C811.311,-57.1867 811.311,-48.0749 811.311,-39.9156"/>
<polygon fill="green" stroke="green" stroke-width="0.885152" points="814.811,-39.8982 811.311,-29.8983 807.811,-39.8983 814.811,-39.8982"/>
</g>
</g>
</svg>
