<?xml version="1.0" encoding="UTF-8" standalone="no"?>
<!DOCTYPE svg PUBLIC "-//W3C//DTD SVG 1.1//EN"
 "http://www.w3.org/Graphics/SVG/1.1/DTD/svg11.dtd">
<!-- Generated by graphviz version 2.38.0 (20140413.2041)
 -->
<!-- Title: %3 Pages: 1 -->
<svg width="1100pt" height="542pt"
 viewBox="0.00 0.00 1099.85 542.20" xmlns="http://www.w3.org/2000/svg" xmlns:xlink="http://www.w3.org/1999/xlink">
<g id="graph0" class="graph" transform="scale(1 1) rotate(0) translate(4 538.198)">
<title>%3</title>
<polygon fill="white" stroke="none" points="-4,4 -4,-538.198 1095.85,-538.198 1095.85,4 -4,4"/>
<!-- &#45;1 -->
<g id="node1" class="node"><title>&#45;1</title>
<polygon fill="lightgray" stroke="black" points="373,-276.099 349,-276.099 349,-258.099 373,-258.099 373,-276.099"/>
<text text-anchor="middle" x="361" y="-264.899" font-family="Times,serif" font-size="9.00">&#45;1</text>
</g>
<!-- 9931 -->
<g id="node32" class="node"><title>9931</title>
<ellipse fill="white" stroke="black" cx="368" cy="-178.773" rx="25" ry="25"/>
<text text-anchor="middle" x="368" y="-176.573" font-family="Times,serif" font-size="9.00">9931</text>
</g>
<!-- &#45;1&#45;&gt;9931 -->
<g id="edge14" class="edge"><title>&#45;1&#45;&gt;9931</title>
<path fill="none" stroke="green" stroke-width="0.220454" d="M361.671,-257.822C362.491,-247.713 363.929,-229.981 365.227,-213.97"/>
<polygon fill="green" stroke="green" stroke-width="0.220454" points="368.732,-214.045 366.052,-203.795 361.755,-213.479 368.732,-214.045"/>
</g>
<!-- 6507 -->
<g id="node33" class="node"><title>6507</title>
<ellipse fill="white" stroke="black" cx="341" cy="-90.4472" rx="25" ry="25"/>
<text text-anchor="middle" x="341" y="-88.2472" font-family="Times,serif" font-size="9.00">6507</text>
</g>
<!-- &#45;1&#45;&gt;6507 -->
<g id="edge19" class="edge"><title>&#45;1&#45;&gt;6507</title>
<path fill="none" stroke="green" stroke-width="0.333933" d="M355.974,-257.979C349.399,-246.831 338.22,-225.935 334,-206.35 328.196,-179.412 330.675,-148.159 334.198,-125.054"/>
<polygon fill="green" stroke="green" stroke-width="0.333933" points="337.672,-125.496 335.864,-115.056 330.768,-124.345 337.672,-125.496"/>
</g>
<!-- &#45;2 -->
<g id="node2" class="node"><title>&#45;2</title>
<polygon fill="lightgray" stroke="black" points="301,-528.349 277,-528.349 277,-510.349 301,-510.349 301,-528.349"/>
<text text-anchor="middle" x="289" y="-517.149" font-family="Times,serif" font-size="9.00">&#45;2</text>
</g>
<!-- &#45;3 -->
<g id="node3" class="node"><title>&#45;3</title>
<polygon fill="lightgray" stroke="black" points="24,-187.773 0,-187.773 0,-169.773 24,-169.773 24,-187.773"/>
<text text-anchor="middle" x="12" y="-176.573" font-family="Times,serif" font-size="9.00">&#45;3</text>
</g>
<!-- 2197 -->
<g id="node36" class="node"><title>2197</title>
<ellipse fill="white" stroke="black" cx="27" cy="-90.4472" rx="25" ry="25"/>
<text text-anchor="middle" x="27" y="-88.2472" font-family="Times,serif" font-size="9.00">2197</text>
</g>
<!-- &#45;3&#45;&gt;2197 -->
<g id="edge18" class="edge"><title>&#45;3&#45;&gt;2197</title>
<path fill="none" stroke="green" stroke-width="0.666317" d="M13.4383,-169.496C15.2067,-159.318 18.3182,-141.412 21.1151,-125.315"/>
<polygon fill="green" stroke="green" stroke-width="0.666317" points="24.6266,-125.55 22.8903,-115.099 17.73,-124.352 24.6266,-125.55"/>
</g>
<!-- &#45;4 -->
<g id="node4" class="node"><title>&#45;4</title>
<polygon fill="lightgray" stroke="black" points="324,-276.099 300,-276.099 300,-258.099 324,-258.099 324,-276.099"/>
<text text-anchor="middle" x="312" y="-264.899" font-family="Times,serif" font-size="9.00">&#45;4</text>
</g>
<!-- 2 -->
<g id="node27" class="node"><title>2</title>
<ellipse fill="lightblue" stroke="black" cx="272" cy="-178.773" rx="14.7" ry="14.7"/>
<text text-anchor="middle" x="272" y="-176.573" font-family="Times,serif" font-size="9.00">2</text>
</g>
<!-- &#45;4&#45;&gt;2 -->
<g id="edge8" class="edge"><title>&#45;4&#45;&gt;2</title>
<path fill="none" stroke="red" stroke-width="1.04171" d="M308.165,-257.822C302.231,-245.016 290.627,-219.972 282.158,-201.696"/>
<polygon fill="red" stroke="red" stroke-width="1.04171" points="285.327,-200.21 277.947,-192.608 278.976,-203.153 285.327,-200.21"/>
</g>
<!-- &#45;5 -->
<g id="node5" class="node"><title>&#45;5</title>
<polygon fill="lightgray" stroke="black" points="282,-276.099 258,-276.099 258,-258.099 282,-258.099 282,-276.099"/>
<text text-anchor="middle" x="270" y="-264.899" font-family="Times,serif" font-size="9.00">&#45;5</text>
</g>
<!-- &#45;5&#45;&gt;2 -->
<g id="edge2" class="edge"><title>&#45;5&#45;&gt;2</title>
<path fill="none" stroke="red" stroke-width="0.828667" d="M270.192,-257.822C270.476,-245.532 271.022,-221.974 271.44,-203.941"/>
<polygon fill="red" stroke="red" stroke-width="0.828667" points="274.942,-203.912 271.674,-193.833 267.943,-203.75 274.942,-203.912"/>
</g>
<!-- &#45;6 -->
<g id="node6" class="node"><title>&#45;6</title>
<polygon fill="lightgray" stroke="black" points="343,-528.349 319,-528.349 319,-510.349 343,-510.349 343,-528.349"/>
<text text-anchor="middle" x="331" y="-517.149" font-family="Times,serif" font-size="9.00">&#45;6</text>
</g>
<!-- &#45;7 -->
<g id="node7" class="node"><title>&#45;7</title>
<polygon fill="lightgray" stroke="black" points="132,-276.099 108,-276.099 108,-258.099 132,-258.099 132,-276.099"/>
<text text-anchor="middle" x="120" y="-264.899" font-family="Times,serif" font-size="9.00">&#45;7</text>
</g>
<!-- 2831 -->
<g id="node34" class="node"><title>2831</title>
<ellipse fill="white" stroke="black" cx="147" cy="-90.4472" rx="25" ry="25"/>
<text text-anchor="middle" x="147" y="-88.2472" font-family="Times,serif" font-size="9.00">2831</text>
</g>
<!-- &#45;7&#45;&gt;2831 -->
<g id="edge10" class="edge"><title>&#45;7&#45;&gt;2831</title>
<path fill="none" stroke="green" stroke-width="0.827391" d="M117.747,-257.844C112.9,-238.717 102.724,-190.03 113,-151.196 115.915,-140.179 121.386,-129.068 127.1,-119.466"/>
<polygon fill="green" stroke="green" stroke-width="0.827391" points="130.207,-121.101 132.578,-110.775 124.285,-117.369 130.207,-121.101"/>
</g>
<!-- 4505 -->
<g id="node37" class="node"><title>4505</title>
<ellipse fill="white" stroke="black" cx="147" cy="-178.773" rx="25" ry="25"/>
<text text-anchor="middle" x="147" y="-176.573" font-family="Times,serif" font-size="9.00">4505</text>
</g>
<!-- &#45;7&#45;&gt;4505 -->
<g id="edge3" class="edge"><title>&#45;7&#45;&gt;4505</title>
<path fill="none" stroke="green" stroke-width="1.37003" d="M122.589,-257.822C125.846,-247.407 131.635,-228.9 136.757,-212.521"/>
<polygon fill="green" stroke="green" stroke-width="1.37003" points="140.188,-213.278 139.833,-202.689 133.507,-211.188 140.188,-213.278"/>
</g>
<!-- &#45;8 -->
<g id="node8" class="node"><title>&#45;8</title>
<polygon fill="lightgray" stroke="black" points="66,-187.773 42,-187.773 42,-169.773 66,-169.773 66,-187.773"/>
<text text-anchor="middle" x="54" y="-176.573" font-family="Times,serif" font-size="9.00">&#45;8</text>
</g>
<!-- 1 -->
<g id="node26" class="node"><title>1</title>
<ellipse fill="lightblue" stroke="black" cx="80" cy="-14.8492" rx="14.7" ry="14.7"/>
<text text-anchor="middle" x="80" y="-12.6492" font-family="Times,serif" font-size="9.00">1</text>
</g>
<!-- &#45;8&#45;&gt;1 -->
<g id="edge11" class="edge"><title>&#45;8&#45;&gt;1</title>
<path fill="none" stroke="green" stroke-width="0.105566" d="M55.3251,-169.521C59.1302,-145.823 70.1964,-76.9045 76.1318,-39.9401"/>
<polygon fill="green" stroke="green" stroke-width="0.105566" points="79.5978,-40.4303 77.7275,-30.0018 72.6863,-39.3205 79.5978,-40.4303"/>
</g>
<!-- &#45;8&#45;&gt;2197 -->
<g id="edge12" class="edge"><title>&#45;8&#45;&gt;2197</title>
<path fill="none" stroke="green" stroke-width="0.555674" d="M51.4111,-169.496C48.1539,-159.082 42.3654,-140.574 37.2425,-124.195"/>
<polygon fill="green" stroke="green" stroke-width="0.555674" points="40.493,-122.862 34.1674,-114.363 33.8121,-124.952 40.493,-122.862"/>
</g>
<!-- &#45;9 -->
<g id="node9" class="node"><title>&#45;9</title>
<polygon fill="lightgray" stroke="black" points="385,-528.349 361,-528.349 361,-510.349 385,-510.349 385,-528.349"/>
<text text-anchor="middle" x="373" y="-517.149" font-family="Times,serif" font-size="9.00">&#45;9</text>
</g>
<!-- &#45;10 -->
<g id="node10" class="node"><title>&#45;10</title>
<polygon fill="lightgray" stroke="black" points="432.5,-528.349 403.5,-528.349 403.5,-510.349 432.5,-510.349 432.5,-528.349"/>
<text text-anchor="middle" x="418" y="-517.149" font-family="Times,serif" font-size="9.00">&#45;10</text>
</g>
<!-- &#45;11 -->
<g id="node11" class="node"><title>&#45;11</title>
<polygon fill="lightgray" stroke="black" points="479.5,-528.349 450.5,-528.349 450.5,-510.349 479.5,-510.349 479.5,-528.349"/>
<text text-anchor="middle" x="465" y="-517.149" font-family="Times,serif" font-size="9.00">&#45;11</text>
</g>
<!-- &#45;12 -->
<g id="node12" class="node"><title>&#45;12</title>
<polygon fill="lightgray" stroke="black" points="526.5,-528.349 497.5,-528.349 497.5,-510.349 526.5,-510.349 526.5,-528.349"/>
<text text-anchor="middle" x="512" y="-517.149" font-family="Times,serif" font-size="9.00">&#45;12</text>
</g>
<!-- &#45;13 -->
<g id="node13" class="node"><title>&#45;13</title>
<polygon fill="lightgray" stroke="black" points="573.5,-528.349 544.5,-528.349 544.5,-510.349 573.5,-510.349 573.5,-528.349"/>
<text text-anchor="middle" x="559" y="-517.149" font-family="Times,serif" font-size="9.00">&#45;13</text>
</g>
<!-- &#45;14 -->
<g id="node14" class="node"><title>&#45;14</title>
<polygon fill="lightgray" stroke="black" points="620.5,-528.349 591.5,-528.349 591.5,-510.349 620.5,-510.349 620.5,-528.349"/>
<text text-anchor="middle" x="606" y="-517.149" font-family="Times,serif" font-size="9.00">&#45;14</text>
</g>
<!-- &#45;15 -->
<g id="node15" class="node"><title>&#45;15</title>
<polygon fill="lightgray" stroke="black" points="667.5,-528.349 638.5,-528.349 638.5,-510.349 667.5,-510.349 667.5,-528.349"/>
<text text-anchor="middle" x="653" y="-517.149" font-family="Times,serif" font-size="9.00">&#45;15</text>
</g>
<!-- &#45;16 -->
<g id="node16" class="node"><title>&#45;16</title>
<polygon fill="lightgray" stroke="black" points="198.5,-364.425 169.5,-364.425 169.5,-346.425 198.5,-346.425 198.5,-364.425"/>
<text text-anchor="middle" x="184" y="-353.225" font-family="Times,serif" font-size="9.00">&#45;16</text>
</g>
<!-- 5851 -->
<g id="node39" class="node"><title>5851</title>
<ellipse fill="white" stroke="black" cx="214" cy="-267.099" rx="25" ry="25"/>
<text text-anchor="middle" x="214" y="-264.899" font-family="Times,serif" font-size="9.00">5851</text>
</g>
<!-- &#45;16&#45;&gt;5851 -->
<g id="edge9" class="edge"><title>&#45;16&#45;&gt;5851</title>
<path fill="none" stroke="green" stroke-width="0.537607" d="M186.877,-346.148C190.52,-335.663 197.014,-316.977 202.734,-300.517"/>
<polygon fill="green" stroke="green" stroke-width="0.537607" points="206.187,-301.245 206.163,-290.65 199.574,-298.947 206.187,-301.245"/>
</g>
<!-- &#45;17 -->
<g id="node17" class="node"><title>&#45;17</title>
<polygon fill="lightgray" stroke="black" points="714.5,-528.349 685.5,-528.349 685.5,-510.349 714.5,-510.349 714.5,-528.349"/>
<text text-anchor="middle" x="700" y="-517.149" font-family="Times,serif" font-size="9.00">&#45;17</text>
</g>
<!-- &#45;18 -->
<g id="node18" class="node"><title>&#45;18</title>
<polygon fill="lightgray" stroke="black" points="761.5,-528.349 732.5,-528.349 732.5,-510.349 761.5,-510.349 761.5,-528.349"/>
<text text-anchor="middle" x="747" y="-517.149" font-family="Times,serif" font-size="9.00">&#45;18</text>
</g>
<!-- &#45;19 -->
<g id="node19" class="node"><title>&#45;19</title>
<polygon fill="lightgray" stroke="black" points="808.5,-528.349 779.5,-528.349 779.5,-510.349 808.5,-510.349 808.5,-528.349"/>
<text text-anchor="middle" x="794" y="-517.149" font-family="Times,serif" font-size="9.00">&#45;19</text>
</g>
<!-- &#45;20 -->
<g id="node20" class="node"><title>&#45;20</title>
<polygon fill="lightgray" stroke="black" points="258.5,-528.349 229.5,-528.349 229.5,-510.349 258.5,-510.349 258.5,-528.349"/>
<text text-anchor="middle" x="244" y="-517.149" font-family="Times,serif" font-size="9.00">&#45;20</text>
</g>
<!-- 9704 -->
<g id="node30" class="node"><title>9704</title>
<ellipse fill="white" stroke="black" cx="244" cy="-443.751" rx="25" ry="25"/>
<text text-anchor="middle" x="244" y="-441.551" font-family="Times,serif" font-size="9.00">9704</text>
</g>
<!-- &#45;20&#45;&gt;9704 -->
<g id="edge24" class="edge"><title>&#45;20&#45;&gt;9704</title>
<path fill="none" stroke="red" stroke-width="0.359163" d="M244,-510.191C244,-502.492 244,-490.413 244,-478.719"/>
<polygon fill="red" stroke="red" stroke-width="0.359163" points="247.5,-478.66 244,-468.66 240.5,-478.66 247.5,-478.66"/>
</g>
<!-- &#45;21 -->
<g id="node21" class="node"><title>&#45;21</title>
<polygon fill="lightgray" stroke="black" points="855.5,-528.349 826.5,-528.349 826.5,-510.349 855.5,-510.349 855.5,-528.349"/>
<text text-anchor="middle" x="841" y="-517.149" font-family="Times,serif" font-size="9.00">&#45;21</text>
</g>
<!-- &#45;22 -->
<g id="node22" class="node"><title>&#45;22</title>
<polygon fill="lightgray" stroke="black" points="902.5,-528.349 873.5,-528.349 873.5,-510.349 902.5,-510.349 902.5,-528.349"/>
<text text-anchor="middle" x="888" y="-517.149" font-family="Times,serif" font-size="9.00">&#45;22</text>
</g>
<!-- &#45;23 -->
<g id="node23" class="node"><title>&#45;23</title>
<polygon fill="lightgray" stroke="black" points="949.5,-528.349 920.5,-528.349 920.5,-510.349 949.5,-510.349 949.5,-528.349"/>
<text text-anchor="middle" x="935" y="-517.149" font-family="Times,serif" font-size="9.00">&#45;23</text>
</g>
<!-- &#45;24 -->
<g id="node24" class="node"><title>&#45;24</title>
<polygon fill="lightgray" stroke="black" points="996.5,-528.349 967.5,-528.349 967.5,-510.349 996.5,-510.349 996.5,-528.349"/>
<text text-anchor="middle" x="982" y="-517.149" font-family="Times,serif" font-size="9.00">&#45;24</text>
</g>
<!-- 0 -->
<g id="node25" class="node"><title>0</title>
<ellipse fill="lightblue" stroke="black" cx="1029" cy="-519.349" rx="14.7" ry="14.7"/>
<text text-anchor="middle" x="1029" y="-517.149" font-family="Times,serif" font-size="9.00">0</text>
</g>
<!-- 2&#45;&gt;6507 -->
<g id="edge6" class="edge"><title>2&#45;&gt;6507</title>
<path fill="none" stroke="red" stroke-width="0.143999" d="M281.021,-166.488C290.726,-154.345 306.51,-134.598 319.45,-118.408"/>
<polygon fill="red" stroke="red" stroke-width="0.143999" points="322.401,-120.322 325.911,-110.325 316.933,-115.951 322.401,-120.322"/>
</g>
<!-- 2&#45;&gt;2831 -->
<g id="edge22" class="edge"><title>2&#45;&gt;2831</title>
<path fill="none" stroke="red" stroke-width="0.102104" d="M263.327,-166.716C259.035,-161.645 253.584,-155.76 248,-151.196 226.387,-133.53 198.977,-117.659 178.167,-106.722"/>
<polygon fill="red" stroke="red" stroke-width="0.102104" points="179.606,-103.526 169.114,-102.055 176.399,-109.748 179.606,-103.526"/>
</g>
<!-- 3 -->
<g id="node28" class="node"><title>3</title>
<ellipse fill="lightblue" stroke="black" cx="1077" cy="-519.349" rx="14.7" ry="14.7"/>
<text text-anchor="middle" x="1077" y="-517.149" font-family="Times,serif" font-size="9.00">3</text>
</g>
<!-- 7718 -->
<g id="node29" class="node"><title>7718</title>
<ellipse fill="white" stroke="black" cx="431" cy="-267.099" rx="25" ry="25"/>
<text text-anchor="middle" x="431" y="-264.899" font-family="Times,serif" font-size="9.00">7718</text>
</g>
<!-- 7718&#45;&gt;9931 -->
<g id="edge20" class="edge"><title>7718&#45;&gt;9931</title>
<path fill="none" stroke="green" stroke-width="0.32648" d="M416.704,-246.51C408.327,-235.032 397.608,-220.344 388.36,-207.671"/>
<polygon fill="green" stroke="green" stroke-width="0.32648" points="390.961,-205.299 382.239,-199.284 385.307,-209.425 390.961,-205.299"/>
</g>
<!-- 10705 -->
<g id="node35" class="node"><title>10705</title>
<ellipse fill="white" stroke="black" cx="438" cy="-178.773" rx="27.6545" ry="27.6545"/>
<text text-anchor="middle" x="438" y="-176.573" font-family="Times,serif" font-size="9.00">10705</text>
</g>
<!-- 7718&#45;&gt;10705 -->
<g id="edge23" class="edge"><title>7718&#45;&gt;10705</title>
<path fill="none" stroke="green" stroke-width="0.317289" d="M432.95,-242.052C433.588,-234.179 434.313,-225.241 435.01,-216.644"/>
<polygon fill="green" stroke="green" stroke-width="0.317289" points="438.519,-216.671 435.839,-206.42 431.542,-216.105 438.519,-216.671"/>
</g>
<!-- 10472 -->
<g id="node31" class="node"><title>10472</title>
<ellipse fill="white" stroke="black" cx="244" cy="-355.425" rx="27.6545" ry="27.6545"/>
<text text-anchor="middle" x="244" y="-353.225" font-family="Times,serif" font-size="9.00">10472</text>
</g>
<!-- 9704&#45;&gt;10472 -->
<g id="edge4" class="edge"><title>9704&#45;&gt;10472</title>
<path fill="none" stroke="green" stroke-width="0.357893" d="M244,-418.704C244,-410.83 244,-401.893 244,-393.296"/>
<polygon fill="green" stroke="green" stroke-width="0.357893" points="247.5,-393.072 244,-383.072 240.5,-393.072 247.5,-393.072"/>
</g>
<!-- 10472&#45;&gt;5851 -->
<g id="edge13" class="edge"><title>10472&#45;&gt;5851</title>
<path fill="none" stroke="red" stroke-width="1.00601" d="M235.161,-328.991C232.031,-319.985 228.468,-309.731 225.17,-300.24"/>
<polygon fill="red" stroke="red" stroke-width="1.00601" points="228.446,-299.007 221.858,-290.71 221.834,-301.304 228.446,-299.007"/>
</g>
<!-- 9931&#45;&gt;6507 -->
<g id="edge16" class="edge"><title>9931&#45;&gt;6507</title>
<path fill="none" stroke="green" stroke-width="0.14912" d="M360.764,-154.639C357.836,-145.275 354.401,-134.295 351.225,-124.138"/>
<polygon fill="green" stroke="green" stroke-width="0.14912" points="354.487,-122.845 348.162,-114.345 347.807,-124.934 354.487,-122.845"/>
</g>
<!-- 2831&#45;&gt;1 -->
<g id="edge7" class="edge"><title>2831&#45;&gt;1</title>
<path fill="none" stroke="red" stroke-width="0.752751" d="M130.781,-71.6312C120.435,-60.2658 107.06,-45.5737 96.6336,-34.1209"/>
<polygon fill="red" stroke="red" stroke-width="0.752751" points="98.9685,-31.4865 89.6485,-26.4479 93.7922,-36.1988 98.9685,-31.4865"/>
</g>
<!-- 10705&#45;&gt;6507 -->
<g id="edge5" class="edge"><title>10705&#45;&gt;6507</title>
<path fill="none" stroke="green" stroke-width="0.507953" d="M417.902,-159.886C403.023,-146.645 382.638,-128.503 366.594,-114.225"/>
<polygon fill="green" stroke="green" stroke-width="0.507953" points="368.907,-111.598 359.11,-107.564 364.253,-116.827 368.907,-111.598"/>
</g>
<!-- 2197&#45;&gt;1 -->
<g id="edge17" class="edge"><title>2197&#45;&gt;1</title>
<path fill="none" stroke="green" stroke-width="0.76127" d="M41.203,-69.7243C48.7729,-59.2125 58.0628,-46.3122 65.6541,-35.7706"/>
<polygon fill="green" stroke="green" stroke-width="0.76127" points="68.5526,-37.7348 71.5562,-27.5746 62.8722,-33.6442 68.5526,-37.7348"/>
</g>
<!-- 4505&#45;&gt;2831 -->
<g id="edge21" class="edge"><title>4505&#45;&gt;2831</title>
<path fill="none" stroke="red" stroke-width="1.32321" d="M147,-153.727C147,-145.027 147,-135.029 147,-125.627"/>
<polygon fill="red" stroke="red" stroke-width="1.32321" points="150.5,-125.365 147,-115.365 143.5,-125.365 150.5,-125.365"/>
</g>
<!-- 6074 -->
<g id="node38" class="node"><title>6074</title>
<ellipse fill="white" stroke="black" cx="214" cy="-178.773" rx="25" ry="25"/>
<text text-anchor="middle" x="214" y="-176.573" font-family="Times,serif" font-size="9.00">6074</text>
</g>
<!-- 6074&#45;&gt;2831 -->
<g id="edge1" class="edge"><title>6074&#45;&gt;2831</title>
<path fill="none" stroke="green" stroke-width="0.457045" d="M199.131,-158.615C190.023,-146.879 178.221,-131.673 168.15,-118.698"/>
<polygon fill="green" stroke="green" stroke-width="0.457045" points="170.724,-116.306 161.828,-110.552 165.194,-120.598 170.724,-116.306"/>
</g>
<!-- 5851&#45;&gt;6074 -->
<g id="edge15" class="edge"><title>5851&#45;&gt;6074</title>
<path fill="none" stroke="green" stroke-width="0.441369" d="M214,-242.052C214,-233.353 214,-223.355 214,-213.953"/>
<polygon fill="green" stroke="green" stroke-width="0.441369" points="217.5,-213.691 214,-203.691 210.5,-213.691 217.5,-213.691"/>
</g>
</g>
</svg>
