<?xml version="1.0" encoding="UTF-8" standalone="no"?>
<!DOCTYPE svg PUBLIC "-//W3C//DTD SVG 1.1//EN"
 "http://www.w3.org/Graphics/SVG/1.1/DTD/svg11.dtd">
<!-- Generated by graphviz version 2.38.0 (20140413.2041)
 -->
<!-- Title: %3 Pages: 1 -->
<svg width="881pt" height="348pt"
 viewBox="0.00 0.00 881.26 348.19" xmlns="http://www.w3.org/2000/svg" xmlns:xlink="http://www.w3.org/1999/xlink">
<g id="graph0" class="graph" transform="scale(1 1) rotate(0) translate(4 344.191)">
<title>%3</title>
<polygon fill="white" stroke="none" points="-4,4 -4,-344.191 877.256,-344.191 877.256,4 -4,4"/>
<!-- &#45;1 -->
<g id="node1" class="node"><title>&#45;1</title>
<polygon fill="lightgray" stroke="black" points="371.407,-184.945 347.407,-184.945 347.407,-166.945 371.407,-166.945 371.407,-184.945"/>
<text text-anchor="middle" x="359.407" y="-173.745" font-family="Times,serif" font-size="9.00">&#45;1</text>
</g>
<!-- 1 -->
<g id="node26" class="node"><title>1</title>
<ellipse fill="lightblue" stroke="black" cx="232.407" cy="-100.347" rx="14.7" ry="14.7"/>
<text text-anchor="middle" x="232.407" y="-98.1467" font-family="Times,serif" font-size="9.00">1</text>
</g>
<!-- &#45;1&#45;&gt;1 -->
<g id="edge8" class="edge"><title>&#45;1&#45;&gt;1</title>
<path fill="none" stroke="red" stroke-width="0.231609" d="M353.491,-166.694C349.622,-161.731 344.221,-155.553 338.407,-151.196 312.724,-131.947 278.419,-117.485 255.885,-109.224"/>
<polygon fill="red" stroke="red" stroke-width="0.231609" points="257.028,-105.916 246.434,-105.87 254.687,-112.513 257.028,-105.916"/>
</g>
<!-- &#45;2 -->
<g id="node2" class="node"><title>&#45;2</title>
<polygon fill="lightgray" stroke="black" points="597.407,-270.442 573.407,-270.442 573.407,-252.442 597.407,-252.442 597.407,-270.442"/>
<text text-anchor="middle" x="585.407" y="-259.242" font-family="Times,serif" font-size="9.00">&#45;2</text>
</g>
<!-- 0 -->
<g id="node25" class="node"><title>0</title>
<ellipse fill="lightblue" stroke="black" cx="523.407" cy="-175.945" rx="14.7" ry="14.7"/>
<text text-anchor="middle" x="523.407" y="-173.745" font-family="Times,serif" font-size="9.00">0</text>
</g>
<!-- &#45;2&#45;&gt;0 -->
<g id="edge6" class="edge"><title>&#45;2&#45;&gt;0</title>
<path fill="none" stroke="red" stroke-width="0.128046" d="M579.462,-252.436C570.016,-239.714 551.298,-214.507 538.098,-196.729"/>
<polygon fill="red" stroke="red" stroke-width="0.128046" points="540.547,-194.157 531.776,-188.215 534.927,-198.33 540.547,-194.157"/>
</g>
<!-- &#45;3 -->
<g id="node3" class="node"><title>&#45;3</title>
<polygon fill="lightgray" stroke="black" points="602.407,-340.191 578.407,-340.191 578.407,-322.191 602.407,-322.191 602.407,-340.191"/>
<text text-anchor="middle" x="590.407" y="-328.991" font-family="Times,serif" font-size="9.00">&#45;3</text>
</g>
<!-- &#45;4 -->
<g id="node4" class="node"><title>&#45;4</title>
<polygon fill="lightgray" stroke="black" points="644.407,-340.191 620.407,-340.191 620.407,-322.191 644.407,-322.191 644.407,-340.191"/>
<text text-anchor="middle" x="632.407" y="-328.991" font-family="Times,serif" font-size="9.00">&#45;4</text>
</g>
<!-- &#45;5 -->
<g id="node5" class="node"><title>&#45;5</title>
<polygon fill="lightgray" stroke="black" points="639.407,-270.442 615.407,-270.442 615.407,-252.442 639.407,-252.442 639.407,-270.442"/>
<text text-anchor="middle" x="627.407" y="-259.242" font-family="Times,serif" font-size="9.00">&#45;5</text>
</g>
<!-- &#45;5&#45;&gt;0 -->
<g id="edge22" class="edge"><title>&#45;5&#45;&gt;0</title>
<path fill="none" stroke="red" stroke-width="2.31778" d="M620.825,-252.112C616.882,-247.357 611.632,-241.419 606.407,-236.693 586.743,-218.905 561.775,-201.538 544.383,-190.153"/>
<polygon fill="red" stroke="red" stroke-width="2.31778" points="545.884,-186.957 535.583,-184.48 542.091,-192.84 545.884,-186.957"/>
</g>
<!-- &#45;6 -->
<g id="node6" class="node"><title>&#45;6</title>
<polygon fill="lightgray" stroke="black" points="686.407,-340.191 662.407,-340.191 662.407,-322.191 686.407,-322.191 686.407,-340.191"/>
<text text-anchor="middle" x="674.407" y="-328.991" font-family="Times,serif" font-size="9.00">&#45;6</text>
</g>
<!-- &#45;7 -->
<g id="node7" class="node"><title>&#45;7</title>
<polygon fill="lightgray" stroke="black" points="171.407,-270.442 147.407,-270.442 147.407,-252.442 171.407,-252.442 171.407,-270.442"/>
<text text-anchor="middle" x="159.407" y="-259.242" font-family="Times,serif" font-size="9.00">&#45;7</text>
</g>
<!-- 6941 -->
<g id="node33" class="node"><title>6941</title>
<ellipse fill="white" stroke="black" cx="160.407" cy="-175.945" rx="25" ry="25"/>
<text text-anchor="middle" x="160.407" y="-173.745" font-family="Times,serif" font-size="9.00">6941</text>
</g>
<!-- &#45;7&#45;&gt;6941 -->
<g id="edge7" class="edge"><title>&#45;7&#45;&gt;6941</title>
<path fill="none" stroke="green" stroke-width="0.257448" d="M159.503,-252.436C159.617,-242.885 159.816,-226.295 159.998,-211.096"/>
<polygon fill="green" stroke="green" stroke-width="0.257448" points="163.5,-210.941 160.12,-200.9 156.501,-210.857 163.5,-210.941"/>
</g>
<!-- &#45;8 -->
<g id="node8" class="node"><title>&#45;8</title>
<polygon fill="lightgray" stroke="black" points="728.407,-340.191 704.407,-340.191 704.407,-322.191 728.407,-322.191 728.407,-340.191"/>
<text text-anchor="middle" x="716.407" y="-328.991" font-family="Times,serif" font-size="9.00">&#45;8</text>
</g>
<!-- &#45;9 -->
<g id="node9" class="node"><title>&#45;9</title>
<polygon fill="lightgray" stroke="black" points="422.407,-270.442 398.407,-270.442 398.407,-252.442 422.407,-252.442 422.407,-270.442"/>
<text text-anchor="middle" x="410.407" y="-259.242" font-family="Times,serif" font-size="9.00">&#45;9</text>
</g>
<!-- &#45;9&#45;&gt;0 -->
<g id="edge27" class="edge"><title>&#45;9&#45;&gt;0</title>
<path fill="none" stroke="red" stroke-width="0.981306" d="M416.905,-252.017C420.821,-247.23 426.071,-241.293 431.407,-236.693 453.498,-217.654 482.078,-200.014 501.48,-188.911"/>
<polygon fill="red" stroke="red" stroke-width="0.981306" points="503.45,-191.819 510.453,-183.869 500.021,-185.717 503.45,-191.819"/>
</g>
<!-- &#45;10 -->
<g id="node10" class="node"><title>&#45;10</title>
<polygon fill="lightgray" stroke="black" points="332.907,-270.442 303.907,-270.442 303.907,-252.442 332.907,-252.442 332.907,-270.442"/>
<text text-anchor="middle" x="318.407" y="-259.242" font-family="Times,serif" font-size="9.00">&#45;10</text>
</g>
<!-- &#45;10&#45;&gt;0 -->
<g id="edge19" class="edge"><title>&#45;10&#45;&gt;0</title>
<path fill="none" stroke="green" stroke-width="0.535792" d="M324.469,-252.41C328.713,-247.279 334.791,-240.835 341.407,-236.693 392.244,-204.87 461.777,-188.232 498.435,-181.177"/>
<polygon fill="green" stroke="green" stroke-width="0.535792" points="499.498,-184.541 508.7,-179.289 498.231,-177.656 499.498,-184.541"/>
</g>
<!-- 4979 -->
<g id="node32" class="node"><title>4979</title>
<ellipse fill="white" stroke="black" cx="304.407" cy="-175.945" rx="25" ry="25"/>
<text text-anchor="middle" x="304.407" y="-173.745" font-family="Times,serif" font-size="9.00">4979</text>
</g>
<!-- &#45;10&#45;&gt;4979 -->
<g id="edge2" class="edge"><title>&#45;10&#45;&gt;4979</title>
<path fill="none" stroke="red" stroke-width="0.196098" d="M317.065,-252.436C315.452,-242.818 312.643,-226.065 310.08,-210.78"/>
<polygon fill="red" stroke="red" stroke-width="0.196098" points="313.469,-209.822 308.363,-200.539 306.565,-210.98 313.469,-209.822"/>
</g>
<!-- &#45;11 -->
<g id="node11" class="node"><title>&#45;11</title>
<polygon fill="lightgray" stroke="black" points="686.907,-270.442 657.907,-270.442 657.907,-252.442 686.907,-252.442 686.907,-270.442"/>
<text text-anchor="middle" x="672.407" y="-259.242" font-family="Times,serif" font-size="9.00">&#45;11</text>
</g>
<!-- &#45;11&#45;&gt;0 -->
<g id="edge11" class="edge"><title>&#45;11&#45;&gt;0</title>
<path fill="none" stroke="red" stroke-width="0.197033" d="M665.424,-252.258C660.919,-247.32 654.736,-241.145 648.407,-236.693 615.755,-213.726 572.902,-195.426 546.798,-185.394"/>
<polygon fill="red" stroke="red" stroke-width="0.197033" points="547.944,-182.086 537.352,-181.845 545.482,-188.639 547.944,-182.086"/>
</g>
<!-- 2 -->
<g id="node27" class="node"><title>2</title>
<ellipse fill="lightblue" stroke="black" cx="762.407" cy="-175.945" rx="14.7" ry="14.7"/>
<text text-anchor="middle" x="762.407" y="-173.745" font-family="Times,serif" font-size="9.00">2</text>
</g>
<!-- &#45;11&#45;&gt;2 -->
<g id="edge33" class="edge"><title>&#45;11&#45;&gt;2</title>
<path fill="none" stroke="red" stroke-width="0.604829" d="M679.932,-252.383C684.356,-247.718 690.106,-241.78 695.407,-236.693 711.238,-221.501 729.919,-204.949 743.528,-193.127"/>
<polygon fill="red" stroke="red" stroke-width="0.604829" points="745.998,-195.619 751.276,-186.432 741.421,-190.322 745.998,-195.619"/>
</g>
<!-- &#45;12 -->
<g id="node12" class="node"><title>&#45;12</title>
<polygon fill="lightgray" stroke="black" points="228.907,-340.191 199.907,-340.191 199.907,-322.191 228.907,-322.191 228.907,-340.191"/>
<text text-anchor="middle" x="214.407" y="-328.991" font-family="Times,serif" font-size="9.00">&#45;12</text>
</g>
<!-- 4550 -->
<g id="node29" class="node"><title>4550</title>
<ellipse fill="white" stroke="black" cx="214.407" cy="-261.442" rx="25" ry="25"/>
<text text-anchor="middle" x="214.407" y="-259.242" font-family="Times,serif" font-size="9.00">4550</text>
</g>
<!-- &#45;12&#45;&gt;4550 -->
<g id="edge3" class="edge"><title>&#45;12&#45;&gt;4550</title>
<path fill="none" stroke="red" stroke-width="0.313139" d="M214.407,-322.153C214.407,-315.718 214.407,-306.22 214.407,-296.684"/>
<polygon fill="red" stroke="red" stroke-width="0.313139" points="217.907,-296.463 214.407,-286.463 210.907,-296.463 217.907,-296.463"/>
</g>
<!-- &#45;13 -->
<g id="node13" class="node"><title>&#45;13</title>
<polygon fill="lightgray" stroke="black" points="469.907,-270.442 440.907,-270.442 440.907,-252.442 469.907,-252.442 469.907,-270.442"/>
<text text-anchor="middle" x="455.407" y="-259.242" font-family="Times,serif" font-size="9.00">&#45;13</text>
</g>
<!-- &#45;13&#45;&gt;0 -->
<g id="edge38" class="edge"><title>&#45;13&#45;&gt;0</title>
<path fill="none" stroke="green" stroke-width="1.07564" d="M461.927,-252.436C472.44,-239.527 493.422,-213.764 507.929,-195.951"/>
<polygon fill="green" stroke="green" stroke-width="1.07564" points="510.855,-197.9 514.456,-187.936 505.427,-193.479 510.855,-197.9"/>
</g>
<!-- &#45;14 -->
<g id="node14" class="node"><title>&#45;14</title>
<polygon fill="lightgray" stroke="black" points="819.907,-270.442 790.907,-270.442 790.907,-252.442 819.907,-252.442 819.907,-270.442"/>
<text text-anchor="middle" x="805.407" y="-259.242" font-family="Times,serif" font-size="9.00">&#45;14</text>
</g>
<!-- &#45;14&#45;&gt;2 -->
<g id="edge12" class="edge"><title>&#45;14&#45;&gt;2</title>
<path fill="none" stroke="green" stroke-width="0.208412" d="M801.284,-252.436C794.935,-240.107 782.545,-216.05 773.453,-198.394"/>
<polygon fill="green" stroke="green" stroke-width="0.208412" points="776.49,-196.647 768.8,-189.359 770.267,-199.852 776.49,-196.647"/>
</g>
<!-- 3 -->
<g id="node28" class="node"><title>3</title>
<ellipse fill="lightblue" stroke="black" cx="840.407" cy="-175.945" rx="14.7" ry="14.7"/>
<text text-anchor="middle" x="840.407" y="-173.745" font-family="Times,serif" font-size="9.00">3</text>
</g>
<!-- &#45;14&#45;&gt;3 -->
<g id="edge25" class="edge"><title>&#45;14&#45;&gt;3</title>
<path fill="none" stroke="red" stroke-width="1.41491" d="M808.763,-252.436C813.826,-240.357 823.607,-217.023 830.961,-199.479"/>
<polygon fill="red" stroke="red" stroke-width="1.41491" points="834.319,-200.522 834.957,-189.947 827.863,-197.816 834.319,-200.522"/>
</g>
<!-- &#45;15 -->
<g id="node15" class="node"><title>&#45;15</title>
<polygon fill="lightgray" stroke="black" points="285.907,-270.442 256.907,-270.442 256.907,-252.442 285.907,-252.442 285.907,-270.442"/>
<text text-anchor="middle" x="271.407" y="-259.242" font-family="Times,serif" font-size="9.00">&#45;15</text>
</g>
<!-- &#45;15&#45;&gt;1 -->
<g id="edge14" class="edge"><title>&#45;15&#45;&gt;1</title>
<path fill="none" stroke="green" stroke-width="0.249412" d="M269.419,-252.334C263.712,-229.05 247.112,-161.336 238.209,-125.017"/>
<polygon fill="green" stroke="green" stroke-width="0.249412" points="241.596,-124.131 235.816,-115.252 234.797,-125.798 241.596,-124.131"/>
</g>
<!-- &#45;15&#45;&gt;4979 -->
<g id="edge1" class="edge"><title>&#45;15&#45;&gt;4979</title>
<path fill="none" stroke="red" stroke-width="0.52143" d="M274.571,-252.436C278.552,-242.363 285.627,-224.462 291.888,-208.62"/>
<polygon fill="red" stroke="red" stroke-width="0.52143" points="295.226,-209.696 295.647,-199.11 288.716,-207.123 295.226,-209.696"/>
</g>
<!-- &#45;16 -->
<g id="node16" class="node"><title>&#45;16</title>
<polygon fill="lightgray" stroke="black" points="379.907,-270.442 350.907,-270.442 350.907,-252.442 379.907,-252.442 379.907,-270.442"/>
<text text-anchor="middle" x="365.407" y="-259.242" font-family="Times,serif" font-size="9.00">&#45;16</text>
</g>
<!-- &#45;16&#45;&gt;0 -->
<g id="edge16" class="edge"><title>&#45;16&#45;&gt;0</title>
<path fill="none" stroke="green" stroke-width="0.47669" d="M372.349,-252.198C376.839,-247.239 383.02,-241.061 389.407,-236.693 424.831,-212.47 471.666,-194.252 499.55,-184.627"/>
<polygon fill="green" stroke="green" stroke-width="0.47669" points="500.884,-187.871 509.246,-181.364 498.652,-181.236 500.884,-187.871"/>
</g>
<!-- &#45;16&#45;&gt;1 -->
<g id="edge26" class="edge"><title>&#45;16&#45;&gt;1</title>
<path fill="none" stroke="red" stroke-width="0.106949" d="M369.985,-252.392C380.364,-232.959 403.081,-182.759 380.407,-151.196 352.288,-112.053 291.859,-103.235 257.549,-101.501"/>
<polygon fill="red" stroke="red" stroke-width="0.106949" points="257.514,-97.9977 247.401,-101.157 257.277,-104.994 257.514,-97.9977"/>
</g>
<!-- &#45;17 -->
<g id="node17" class="node"><title>&#45;17</title>
<polygon fill="lightgray" stroke="black" points="33.9071,-270.442 4.90707,-270.442 4.90707,-252.442 33.9071,-252.442 33.9071,-270.442"/>
<text text-anchor="middle" x="19.4071" y="-259.242" font-family="Times,serif" font-size="9.00">&#45;17</text>
</g>
<!-- &#45;17&#45;&gt;1 -->
<g id="edge35" class="edge"><title>&#45;17&#45;&gt;1</title>
<path fill="none" stroke="green" stroke-width="0.189409" d="M15.5351,-252.21C6.83871,-232.372 -11.6713,-181.341 12.4071,-151.196 36.5947,-120.915 154.883,-107.66 207.31,-103.204"/>
<polygon fill="green" stroke="green" stroke-width="0.189409" points="207.755,-106.679 217.44,-102.384 207.19,-99.7023 207.755,-106.679"/>
</g>
<!-- 4017 -->
<g id="node31" class="node"><title>4017</title>
<ellipse fill="white" stroke="black" cx="46.4071" cy="-175.945" rx="25" ry="25"/>
<text text-anchor="middle" x="46.4071" y="-173.745" font-family="Times,serif" font-size="9.00">4017</text>
</g>
<!-- &#45;17&#45;&gt;4017 -->
<g id="edge4" class="edge"><title>&#45;17&#45;&gt;4017</title>
<path fill="none" stroke="green" stroke-width="0.282214" d="M21.9959,-252.436C25.1792,-242.592 30.7798,-225.272 35.8142,-209.703"/>
<polygon fill="green" stroke="green" stroke-width="0.282214" points="39.2631,-210.413 39.0097,-199.821 32.6026,-208.259 39.2631,-210.413"/>
</g>
<!-- &#45;18 -->
<g id="node18" class="node"><title>&#45;18</title>
<polygon fill="lightgray" stroke="black" points="866.907,-270.442 837.907,-270.442 837.907,-252.442 866.907,-252.442 866.907,-270.442"/>
<text text-anchor="middle" x="852.407" y="-259.242" font-family="Times,serif" font-size="9.00">&#45;18</text>
</g>
<!-- &#45;18&#45;&gt;2 -->
<g id="edge20" class="edge"><title>&#45;18&#45;&gt;2</title>
<path fill="none" stroke="red" stroke-width="0.124695" d="M844.883,-252.383C840.458,-247.718 834.708,-241.78 829.407,-236.693 813.577,-221.501 794.895,-204.949 781.286,-193.127"/>
<polygon fill="red" stroke="red" stroke-width="0.124695" points="783.393,-190.322 773.539,-186.432 778.816,-195.619 783.393,-190.322"/>
</g>
<!-- &#45;18&#45;&gt;3 -->
<g id="edge28" class="edge"><title>&#45;18&#45;&gt;3</title>
<path fill="none" stroke="green" stroke-width="0.328597" d="M851.256,-252.436C849.566,-240.673 846.341,-218.235 843.845,-200.866"/>
<polygon fill="green" stroke="green" stroke-width="0.328597" points="847.292,-200.247 842.405,-190.847 840.363,-201.243 847.292,-200.247"/>
</g>
<!-- &#45;19 -->
<g id="node19" class="node"><title>&#45;19</title>
<polygon fill="lightgray" stroke="black" points="733.907,-270.442 704.907,-270.442 704.907,-252.442 733.907,-252.442 733.907,-270.442"/>
<text text-anchor="middle" x="719.407" y="-259.242" font-family="Times,serif" font-size="9.00">&#45;19</text>
</g>
<!-- &#45;19&#45;&gt;0 -->
<g id="edge30" class="edge"><title>&#45;19&#45;&gt;0</title>
<path fill="none" stroke="green" stroke-width="0.281935" d="M712.592,-252.004C708.15,-246.972 701.974,-240.785 695.407,-236.693 647.508,-206.847 582.765,-189.571 547.968,-181.848"/>
<polygon fill="green" stroke="green" stroke-width="0.281935" points="548.693,-178.424 538.182,-179.755 547.228,-185.269 548.693,-178.424"/>
</g>
<!-- &#45;19&#45;&gt;1 -->
<g id="edge23" class="edge"><title>&#45;19&#45;&gt;1</title>
<path fill="none" stroke="green" stroke-width="0.499608" d="M712.298,-252.429C707.746,-247.556 701.557,-241.388 695.407,-236.693 635.025,-190.6 619.013,-176.558 547.407,-151.196 443.893,-114.533 311.699,-104.758 257.398,-102.214"/>
<polygon fill="green" stroke="green" stroke-width="0.499608" points="257.459,-98.7139 247.319,-101.785 257.161,-105.708 257.459,-98.7139"/>
</g>
<!-- &#45;19&#45;&gt;2 -->
<g id="edge9" class="edge"><title>&#45;19&#45;&gt;2</title>
<path fill="none" stroke="green" stroke-width="0.157616" d="M723.53,-252.436C729.88,-240.107 742.269,-216.05 751.361,-198.394"/>
<polygon fill="green" stroke="green" stroke-width="0.157616" points="754.547,-199.852 756.014,-189.359 748.324,-196.647 754.547,-199.852"/>
</g>
<!-- &#45;20 -->
<g id="node20" class="node"><title>&#45;20</title>
<polygon fill="lightgray" stroke="black" points="775.907,-340.191 746.907,-340.191 746.907,-322.191 775.907,-322.191 775.907,-340.191"/>
<text text-anchor="middle" x="761.407" y="-328.991" font-family="Times,serif" font-size="9.00">&#45;20</text>
</g>
<!-- &#45;21 -->
<g id="node21" class="node"><title>&#45;21</title>
<polygon fill="lightgray" stroke="black" points="559.907,-340.191 530.907,-340.191 530.907,-322.191 559.907,-322.191 559.907,-340.191"/>
<text text-anchor="middle" x="545.407" y="-328.991" font-family="Times,serif" font-size="9.00">&#45;21</text>
</g>
<!-- &#45;21&#45;&gt;0 -->
<g id="edge15" class="edge"><title>&#45;21&#45;&gt;0</title>
<path fill="none" stroke="green" stroke-width="2.19943" d="M544.224,-321.952C540.987,-299.4 531.888,-236.018 526.858,-200.98"/>
<polygon fill="green" stroke="green" stroke-width="2.19943" points="530.266,-200.089 525.38,-190.688 523.337,-201.083 530.266,-200.089"/>
</g>
<!-- &#45;21&#45;&gt;2 -->
<g id="edge31" class="edge"><title>&#45;21&#45;&gt;2</title>
<path fill="none" stroke="green" stroke-width="0.412929" d="M560.047,-325.007C563.119,-324.005 566.353,-323.013 569.407,-322.191 645.665,-301.669 688.462,-342.913 743.407,-286.191 765.226,-263.667 766.97,-225.575 765.354,-200.847"/>
<polygon fill="green" stroke="green" stroke-width="0.412929" points="768.836,-200.493 764.469,-190.84 761.863,-201.11 768.836,-200.493"/>
</g>
<!-- &#45;21&#45;&gt;4550 -->
<g id="edge5" class="edge"><title>&#45;21&#45;&gt;4550</title>
<path fill="none" stroke="green" stroke-width="0.478299" d="M530.816,-330.432C486.446,-330.672 349.91,-327.751 247.407,-286.191 245.543,-285.435 243.685,-284.553 241.854,-283.583"/>
<polygon fill="green" stroke="green" stroke-width="0.478299" points="243.388,-280.417 233.035,-278.165 239.724,-286.382 243.388,-280.417"/>
</g>
<!-- &#45;22 -->
<g id="node22" class="node"><title>&#45;22</title>
<polygon fill="lightgray" stroke="black" points="117.907,-184.945 88.9071,-184.945 88.9071,-166.945 117.907,-166.945 117.907,-184.945"/>
<text text-anchor="middle" x="103.407" y="-173.745" font-family="Times,serif" font-size="9.00">&#45;22</text>
</g>
<!-- &#45;22&#45;&gt;1 -->
<g id="edge17" class="edge"><title>&#45;22&#45;&gt;1</title>
<path fill="none" stroke="red" stroke-width="0.163659" d="M110.03,-166.727C114.321,-161.778 120.243,-155.601 126.407,-151.196 152.403,-132.618 186.417,-118.067 208.815,-109.598"/>
<polygon fill="red" stroke="red" stroke-width="0.163659" points="210.324,-112.772 218.505,-106.04 207.911,-106.201 210.324,-112.772"/>
</g>
<!-- &#45;23 -->
<g id="node23" class="node"><title>&#45;23</title>
<polygon fill="lightgray" stroke="black" points="822.907,-340.191 793.907,-340.191 793.907,-322.191 822.907,-322.191 822.907,-340.191"/>
<text text-anchor="middle" x="808.407" y="-328.991" font-family="Times,serif" font-size="9.00">&#45;23</text>
</g>
<!-- &#45;24 -->
<g id="node24" class="node"><title>&#45;24</title>
<polygon fill="lightgray" stroke="black" points="516.907,-270.442 487.907,-270.442 487.907,-252.442 516.907,-252.442 516.907,-270.442"/>
<text text-anchor="middle" x="502.407" y="-259.242" font-family="Times,serif" font-size="9.00">&#45;24</text>
</g>
<!-- &#45;24&#45;&gt;0 -->
<g id="edge32" class="edge"><title>&#45;24&#45;&gt;0</title>
<path fill="none" stroke="green" stroke-width="1.05241" d="M504.421,-252.436C507.396,-240.605 513.087,-217.977 517.466,-200.567"/>
<polygon fill="green" stroke="green" stroke-width="1.05241" points="520.942,-201.096 519.987,-190.544 514.153,-199.389 520.942,-201.096"/>
</g>
<!-- 1&#45;&gt;1 -->
<g id="edge21" class="edge"><title>1&#45;&gt;1</title>
<path fill="none" stroke="green" stroke-width="0.148189" d="M242.835,-111.173C253.446,-117.541 265.256,-113.933 265.256,-100.347 265.256,-91.0064 259.674,-86.3818 252.737,-86.473"/>
<polygon fill="green" stroke="green" stroke-width="0.148189" points="251.363,-83.2338 242.835,-89.5204 253.422,-89.9242 251.363,-83.2338"/>
</g>
<!-- 6800 -->
<g id="node30" class="node"><title>6800</title>
<ellipse fill="white" stroke="black" cx="232.407" cy="-24.7487" rx="25" ry="25"/>
<text text-anchor="middle" x="232.407" y="-22.5487" font-family="Times,serif" font-size="9.00">6800</text>
</g>
<!-- 1&#45;&gt;6800 -->
<g id="edge39" class="edge"><title>1&#45;&gt;6800</title>
<path fill="none" stroke="red" stroke-width="0.502497" d="M227.091,-86.1889C226.005,-78.5979 225.535,-68.6795 225.684,-59.0788"/>
<polygon fill="red" stroke="red" stroke-width="0.502497" points="229.188,-59.0418 226.087,-48.9109 222.193,-58.7643 229.188,-59.0418"/>
</g>
<!-- 2&#45;&gt;2 -->
<g id="edge18" class="edge"><title>2&#45;&gt;2</title>
<path fill="none" stroke="red" stroke-width="0.158616" d="M772.835,-186.771C783.446,-193.139 795.256,-189.531 795.256,-175.945 795.256,-166.604 789.674,-161.98 782.737,-162.071"/>
<polygon fill="red" stroke="red" stroke-width="0.158616" points="781.363,-158.832 772.835,-165.118 783.422,-165.522 781.363,-158.832"/>
</g>
<!-- 3&#45;&gt;3 -->
<g id="edge10" class="edge"><title>3&#45;&gt;3</title>
<path fill="none" stroke="red" stroke-width="0.304832" d="M850.835,-186.771C861.446,-193.139 873.256,-189.531 873.256,-175.945 873.256,-166.604 867.674,-161.98 860.737,-162.071"/>
<polygon fill="red" stroke="red" stroke-width="0.304832" points="859.363,-158.832 850.835,-165.118 861.422,-165.522 859.363,-158.832"/>
</g>
<!-- 4550&#45;&gt;1 -->
<g id="edge13" class="edge"><title>4550&#45;&gt;1</title>
<path fill="none" stroke="red" stroke-width="0.59771" d="M217.102,-236.624C220.491,-206.669 226.277,-155.527 229.681,-125.442"/>
<polygon fill="red" stroke="red" stroke-width="0.59771" points="233.172,-125.719 230.818,-115.389 226.216,-124.932 233.172,-125.719"/>
</g>
<!-- 4550&#45;&gt;4979 -->
<g id="edge24" class="edge"><title>4550&#45;&gt;4979</title>
<path fill="none" stroke="red" stroke-width="0.310926" d="M232.188,-243.946C245.624,-231.48 264.246,-214.204 279.215,-200.317"/>
<polygon fill="red" stroke="red" stroke-width="0.310926" points="281.712,-202.774 286.663,-193.407 276.951,-197.642 281.712,-202.774"/>
</g>
<!-- 6800&#45;&gt;1 -->
<g id="edge36" class="edge"><title>6800&#45;&gt;1</title>
<path fill="none" stroke="red" stroke-width="0.255754" d="M238.727,-48.9109C239.297,-57.5516 239.3,-67.3607 238.738,-76.0165"/>
<polygon fill="red" stroke="red" stroke-width="0.255754" points="235.233,-75.8907 237.723,-86.1889 242.199,-76.5859 235.233,-75.8907"/>
</g>
<!-- 4017&#45;&gt;1 -->
<g id="edge34" class="edge"><title>4017&#45;&gt;1</title>
<path fill="none" stroke="red" stroke-width="0.317954" d="M65.3128,-159.831C69.7707,-156.701 74.6228,-153.623 79.4071,-151.196 122.422,-129.379 177.004,-114.317 207.989,-106.821"/>
<polygon fill="red" stroke="red" stroke-width="0.317954" points="208.974,-110.185 217.906,-104.487 207.37,-103.371 208.974,-110.185"/>
</g>
<!-- 4979&#45;&gt;1 -->
<g id="edge29" class="edge"><title>4979&#45;&gt;1</title>
<path fill="none" stroke="red" stroke-width="0.381445" d="M287.344,-157.503C275.991,-145.898 261.126,-130.703 249.722,-119.046"/>
<polygon fill="red" stroke="red" stroke-width="0.381445" points="251.961,-116.329 242.466,-111.629 246.957,-121.224 251.961,-116.329"/>
</g>
<!-- 6941&#45;&gt;1 -->
<g id="edge37" class="edge"><title>6941&#45;&gt;1</title>
<path fill="none" stroke="green" stroke-width="0.264286" d="M177.47,-157.503C188.823,-145.898 203.688,-130.703 215.092,-119.046"/>
<polygon fill="green" stroke="green" stroke-width="0.264286" points="217.857,-121.224 222.348,-111.629 212.853,-116.329 217.857,-121.224"/>
</g>
</g>
</svg>
