<?xml version="1.0" encoding="UTF-8" standalone="no"?>
<!DOCTYPE svg PUBLIC "-//W3C//DTD SVG 1.1//EN"
 "http://www.w3.org/Graphics/SVG/1.1/DTD/svg11.dtd">
<!-- Generated by graphviz version 2.38.0 (20140413.2041)
 -->
<!-- Title: %3 Pages: 1 -->
<svg width="1264pt" height="348pt"
 viewBox="0.00 0.00 1263.97 348.19" xmlns="http://www.w3.org/2000/svg" xmlns:xlink="http://www.w3.org/1999/xlink">
<g id="graph0" class="graph" transform="scale(1 1) rotate(0) translate(4 344.191)">
<title>%3</title>
<polygon fill="white" stroke="none" points="-4,4 -4,-344.191 1259.97,-344.191 1259.97,4 -4,4"/>
<!-- &#45;1 -->
<g id="node1" class="node"><title>&#45;1</title>
<polygon fill="lightgray" stroke="black" points="887,-184.945 863,-184.945 863,-166.945 887,-166.945 887,-184.945"/>
<text text-anchor="middle" x="875" y="-173.745" font-family="Times,serif" font-size="9.00">&#45;1</text>
</g>
<!-- 0 -->
<g id="node25" class="node"><title>0</title>
<ellipse fill="lightblue" stroke="black" cx="437" cy="-100.347" rx="14.7" ry="14.7"/>
<text text-anchor="middle" x="437" y="-98.1467" font-family="Times,serif" font-size="9.00">0</text>
</g>
<!-- &#45;1&#45;&gt;0 -->
<g id="edge3" class="edge"><title>&#45;1&#45;&gt;0</title>
<path fill="none" stroke="green" stroke-width="0.476976" stroke-dasharray="1,5" d="M870.176,-166.939C866.465,-161.541 860.824,-154.774 854,-151.196 836.506,-142.024 549.753,-112.653 462.191,-103.858"/>
<polygon fill="green" stroke="green" stroke-width="0.476976" points="462.385,-100.36 452.086,-102.846 461.687,-107.325 462.385,-100.36"/>
</g>
<!-- 1 -->
<g id="node26" class="node"><title>1</title>
<ellipse fill="lightblue" stroke="black" cx="902" cy="-100.347" rx="14.7" ry="14.7"/>
<text text-anchor="middle" x="902" y="-98.1467" font-family="Times,serif" font-size="9.00">1</text>
</g>
<!-- &#45;1&#45;&gt;1 -->
<g id="edge16" class="edge"><title>&#45;1&#45;&gt;1</title>
<path fill="none" stroke="red" stroke-width="0.231609" d="M877.993,-166.787C881.727,-156.608 888.269,-138.777 893.581,-124.296"/>
<polygon fill="red" stroke="red" stroke-width="0.231609" points="897.016,-125.094 897.174,-114.501 890.444,-122.683 897.016,-125.094"/>
</g>
<!-- 3 -->
<g id="node28" class="node"><title>3</title>
<ellipse fill="lightblue" stroke="black" cx="612" cy="-100.347" rx="14.7" ry="14.7"/>
<text text-anchor="middle" x="612" y="-98.1467" font-family="Times,serif" font-size="9.00">3</text>
</g>
<!-- &#45;1&#45;&gt;3 -->
<g id="edge47" class="edge"><title>&#45;1&#45;&gt;3</title>
<path fill="none" stroke="red" stroke-width="0.116672" stroke-dasharray="1,5" d="M869.753,-166.655C865.999,-161.415 860.477,-154.947 854,-151.196 783.186,-110.184 683.526,-102.614 637.336,-101.419"/>
<polygon fill="red" stroke="red" stroke-width="0.116672" points="637.107,-97.9142 627.047,-101.238 636.984,-104.913 637.107,-97.9142"/>
</g>
<!-- &#45;2 -->
<g id="node2" class="node"><title>&#45;2</title>
<polygon fill="lightgray" stroke="black" points="190,-184.945 166,-184.945 166,-166.945 190,-166.945 190,-184.945"/>
<text text-anchor="middle" x="178" y="-173.745" font-family="Times,serif" font-size="9.00">&#45;2</text>
</g>
<!-- &#45;2&#45;&gt;0 -->
<g id="edge13" class="edge"><title>&#45;2&#45;&gt;0</title>
<path fill="none" stroke="red" stroke-width="0.128046" d="M183.251,-166.662C187.007,-161.425 192.529,-154.958 199,-151.196 268.456,-110.816 366.172,-102.924 411.748,-101.533"/>
<polygon fill="red" stroke="red" stroke-width="0.128046" points="411.994,-105.028 421.914,-101.307 411.838,-98.03 411.994,-105.028"/>
</g>
<!-- 2 -->
<g id="node27" class="node"><title>2</title>
<ellipse fill="lightblue" stroke="black" cx="199" cy="-100.347" rx="14.7" ry="14.7"/>
<text text-anchor="middle" x="199" y="-98.1467" font-family="Times,serif" font-size="9.00">2</text>
</g>
<!-- &#45;2&#45;&gt;2 -->
<g id="edge37" class="edge"><title>&#45;2&#45;&gt;2</title>
<path fill="none" stroke="red" stroke-width="0.264656" stroke-dasharray="1,5" d="M180.328,-166.787C183.215,-156.668 188.26,-138.987 192.378,-124.553"/>
<polygon fill="red" stroke="red" stroke-width="0.264656" points="195.791,-125.347 195.17,-114.771 189.06,-123.427 195.791,-125.347"/>
</g>
<!-- &#45;3 -->
<g id="node3" class="node"><title>&#45;3</title>
<polygon fill="lightgray" stroke="black" points="1206,-340.191 1182,-340.191 1182,-322.191 1206,-322.191 1206,-340.191"/>
<text text-anchor="middle" x="1194" y="-328.991" font-family="Times,serif" font-size="9.00">&#45;3</text>
</g>
<!-- &#45;4 -->
<g id="node4" class="node"><title>&#45;4</title>
<polygon fill="lightgray" stroke="black" points="669,-184.945 645,-184.945 645,-166.945 669,-166.945 669,-184.945"/>
<text text-anchor="middle" x="657" y="-173.745" font-family="Times,serif" font-size="9.00">&#45;4</text>
</g>
<!-- &#45;4&#45;&gt;0 -->
<g id="edge41" class="edge"><title>&#45;4&#45;&gt;0</title>
<path fill="none" stroke="red" stroke-width="0.174184" stroke-dasharray="1,5" d="M651.364,-166.751C647.373,-161.553 641.575,-155.094 635,-151.196 578.838,-117.902 500.998,-106.712 461.745,-103.054"/>
<polygon fill="red" stroke="red" stroke-width="0.174184" points="462.006,-99.564 451.747,-102.21 461.417,-106.539 462.006,-99.564"/>
</g>
<!-- &#45;4&#45;&gt;1 -->
<g id="edge55" class="edge"><title>&#45;4&#45;&gt;1</title>
<path fill="none" stroke="red" stroke-width="0.394588" stroke-dasharray="1,5" d="M662.267,-166.689C666.029,-161.463 671.553,-154.998 678,-151.196 742.558,-113.122 833.198,-104.087 876.724,-101.972"/>
<polygon fill="red" stroke="red" stroke-width="0.394588" points="877.12,-105.459 886.972,-101.562 876.84,-98.4645 877.12,-105.459"/>
</g>
<!-- &#45;4&#45;&gt;3 -->
<g id="edge24" class="edge"><title>&#45;4&#45;&gt;3</title>
<path fill="none" stroke="red" stroke-width="0.227526" stroke-dasharray="1,5" d="M652.012,-166.787C645.455,-156.063 633.706,-136.847 624.63,-122.002"/>
<polygon fill="red" stroke="red" stroke-width="0.227526" points="627.596,-120.145 619.394,-113.439 621.624,-123.797 627.596,-120.145"/>
</g>
<!-- &#45;5 -->
<g id="node5" class="node"><title>&#45;5</title>
<polygon fill="lightgray" stroke="black" points="532,-184.945 508,-184.945 508,-166.945 532,-166.945 532,-184.945"/>
<text text-anchor="middle" x="520" y="-173.745" font-family="Times,serif" font-size="9.00">&#45;5</text>
</g>
<!-- &#45;5&#45;&gt;0 -->
<g id="edge33" class="edge"><title>&#45;5&#45;&gt;0</title>
<path fill="none" stroke="red" stroke-width="2.31778" d="M510.899,-166.543C505.929,-161.978 499.652,-156.248 494,-151.196 481.347,-139.886 466.96,-127.307 455.806,-117.614"/>
<polygon fill="red" stroke="red" stroke-width="2.31778" points="457.836,-114.742 447.989,-110.833 453.25,-120.03 457.836,-114.742"/>
</g>
<!-- &#45;5&#45;&gt;3 -->
<g id="edge44" class="edge"><title>&#45;5&#45;&gt;3</title>
<path fill="none" stroke="red" stroke-width="0.491228" stroke-dasharray="1,5" d="M526.561,-166.592C530.498,-161.828 535.748,-155.891 541,-151.196 556.567,-137.281 576.095,-123.818 590.729,-114.398"/>
<polygon fill="red" stroke="red" stroke-width="0.491228" points="592.963,-117.127 599.548,-108.828 589.225,-111.209 592.963,-117.127"/>
</g>
<!-- &#45;6 -->
<g id="node6" class="node"><title>&#45;6</title>
<polygon fill="lightgray" stroke="black" points="24,-184.945 0,-184.945 0,-166.945 24,-166.945 24,-184.945"/>
<text text-anchor="middle" x="12" y="-173.745" font-family="Times,serif" font-size="9.00">&#45;6</text>
</g>
<!-- &#45;6&#45;&gt;2 -->
<g id="edge10" class="edge"><title>&#45;6&#45;&gt;2</title>
<path fill="none" stroke="red" stroke-width="0.147244" stroke-dasharray="1,5" d="M19.0272,-166.906C23.8986,-161.773 30.7856,-155.329 38,-151.196 82.4815,-125.715 141.484,-111.763 174.3,-105.495"/>
<polygon fill="red" stroke="red" stroke-width="0.147244" points="175.157,-108.896 184.366,-103.658 173.9,-102.01 175.157,-108.896"/>
</g>
<!-- &#45;7 -->
<g id="node7" class="node"><title>&#45;7</title>
<polygon fill="lightgray" stroke="black" points="1165,-270.442 1141,-270.442 1141,-252.442 1165,-252.442 1165,-270.442"/>
<text text-anchor="middle" x="1153" y="-259.242" font-family="Times,serif" font-size="9.00">&#45;7</text>
</g>
<!-- &#45;7&#45;&gt;1 -->
<g id="edge56" class="edge"><title>&#45;7&#45;&gt;1</title>
<path fill="none" stroke="red" stroke-width="1.3717" stroke-dasharray="1,5" d="M1152.15,-252.421C1149.58,-232.155 1139.92,-178.566 1108,-151.196 1055.58,-106.251 969.312,-100.413 926.993,-100.499"/>
<polygon fill="red" stroke="red" stroke-width="1.3717" points="926.944,-96.9989 916.992,-100.634 927.038,-103.998 926.944,-96.9989"/>
</g>
<!-- 6941 -->
<g id="node33" class="node"><title>6941</title>
<ellipse fill="white" stroke="black" cx="1180" cy="-175.945" rx="25" ry="25"/>
<text text-anchor="middle" x="1180" y="-173.745" font-family="Times,serif" font-size="9.00">6941</text>
</g>
<!-- &#45;7&#45;&gt;6941 -->
<g id="edge15" class="edge"><title>&#45;7&#45;&gt;6941</title>
<path fill="none" stroke="green" stroke-width="0.257448" d="M1155.59,-252.436C1158.77,-242.592 1164.37,-225.272 1169.41,-209.703"/>
<polygon fill="green" stroke="green" stroke-width="0.257448" points="1172.86,-210.413 1172.6,-199.821 1166.2,-208.259 1172.86,-210.413"/>
</g>
<!-- &#45;8 -->
<g id="node8" class="node"><title>&#45;8</title>
<polygon fill="lightgray" stroke="black" points="711,-184.945 687,-184.945 687,-166.945 711,-166.945 711,-184.945"/>
<text text-anchor="middle" x="699" y="-173.745" font-family="Times,serif" font-size="9.00">&#45;8</text>
</g>
<!-- &#45;8&#45;&gt;0 -->
<g id="edge59" class="edge"><title>&#45;8&#45;&gt;0</title>
<path fill="none" stroke="red" stroke-width="0.297472" stroke-dasharray="1,5" d="M693.752,-166.657C689.998,-161.418 684.476,-154.95 678,-151.196 607.483,-110.318 508.232,-102.682 462.232,-101.445"/>
<polygon fill="red" stroke="red" stroke-width="0.297472" points="462.049,-97.9408 451.985,-101.254 461.918,-104.94 462.049,-97.9408"/>
</g>
<!-- &#45;8&#45;&gt;1 -->
<g id="edge9" class="edge"><title>&#45;8&#45;&gt;1</title>
<path fill="none" stroke="green" stroke-width="0.28193" stroke-dasharray="1,5" d="M704.329,-166.791C708.117,-161.608 713.646,-155.153 720,-151.196 770.15,-119.96 839.964,-107.995 876.848,-103.65"/>
<polygon fill="green" stroke="green" stroke-width="0.28193" points="877.614,-107.088 887.18,-102.534 876.862,-100.129 877.614,-107.088"/>
</g>
<!-- &#45;9 -->
<g id="node9" class="node"><title>&#45;9</title>
<polygon fill="lightgray" stroke="black" points="232,-184.945 208,-184.945 208,-166.945 232,-166.945 232,-184.945"/>
<text text-anchor="middle" x="220" y="-173.745" font-family="Times,serif" font-size="9.00">&#45;9</text>
</g>
<!-- &#45;9&#45;&gt;0 -->
<g id="edge40" class="edge"><title>&#45;9&#45;&gt;0</title>
<path fill="none" stroke="red" stroke-width="0.981306" d="M225.305,-166.752C229.083,-161.554 234.611,-155.095 241,-151.196 296.066,-117.594 373.045,-106.547 412.122,-102.988"/>
<polygon fill="red" stroke="red" stroke-width="0.981306" points="412.408,-106.477 422.089,-102.17 411.836,-99.5 412.408,-106.477"/>
</g>
<!-- &#45;9&#45;&gt;2 -->
<g id="edge6" class="edge"><title>&#45;9&#45;&gt;2</title>
<path fill="none" stroke="green" stroke-width="0.150143" stroke-dasharray="1,5" d="M217.672,-166.787C214.785,-156.668 209.74,-138.987 205.622,-124.553"/>
<polygon fill="green" stroke="green" stroke-width="0.150143" points="208.94,-123.427 202.83,-114.771 202.209,-125.347 208.94,-123.427"/>
</g>
<!-- &#45;10 -->
<g id="node10" class="node"><title>&#45;10</title>
<polygon fill="lightgray" stroke="black" points="801.5,-270.442 772.5,-270.442 772.5,-252.442 801.5,-252.442 801.5,-270.442"/>
<text text-anchor="middle" x="787" y="-259.242" font-family="Times,serif" font-size="9.00">&#45;10</text>
</g>
<!-- &#45;10&#45;&gt;0 -->
<g id="edge29" class="edge"><title>&#45;10&#45;&gt;0</title>
<path fill="none" stroke="green" stroke-width="0.535792" d="M772.33,-260.5C709.059,-260.412 460.577,-256.475 413,-200.693 393.958,-178.367 409.533,-143.428 422.947,-121.488"/>
<polygon fill="green" stroke="green" stroke-width="0.535792" points="425.972,-123.256 428.457,-112.956 420.092,-119.459 425.972,-123.256"/>
</g>
<!-- &#45;10&#45;&gt;3 -->
<g id="edge14" class="edge"><title>&#45;10&#45;&gt;3</title>
<path fill="none" stroke="red" stroke-width="0.135052" stroke-dasharray="1,5" d="M788.071,-252.41C790.241,-232.578 792.947,-180.759 767,-151.196 733.854,-113.431 672.004,-104.077 637.295,-101.887"/>
<polygon fill="red" stroke="red" stroke-width="0.135052" points="637.205,-98.3787 627.051,-101.401 636.873,-105.371 637.205,-98.3787"/>
</g>
<!-- 4979 -->
<g id="node32" class="node"><title>4979</title>
<ellipse fill="white" stroke="black" cx="930" cy="-175.945" rx="25" ry="25"/>
<text text-anchor="middle" x="930" y="-173.745" font-family="Times,serif" font-size="9.00">4979</text>
</g>
<!-- &#45;10&#45;&gt;4979 -->
<g id="edge7" class="edge"><title>&#45;10&#45;&gt;4979</title>
<path fill="none" stroke="red" stroke-width="0.196098" d="M801.744,-253.007C822.967,-242.161 863.181,-221.067 896,-200.693 897.889,-199.521 899.816,-198.286 901.746,-197.02"/>
<polygon fill="red" stroke="red" stroke-width="0.196098" points="903.776,-199.873 910.106,-191.376 899.859,-194.071 903.776,-199.873"/>
</g>
<!-- &#45;11 -->
<g id="node11" class="node"><title>&#45;11</title>
<polygon fill="lightgray" stroke="black" points="147.5,-184.945 118.5,-184.945 118.5,-166.945 147.5,-166.945 147.5,-184.945"/>
<text text-anchor="middle" x="133" y="-173.745" font-family="Times,serif" font-size="9.00">&#45;11</text>
</g>
<!-- &#45;11&#45;&gt;0 -->
<g id="edge19" class="edge"><title>&#45;11&#45;&gt;0</title>
<path fill="none" stroke="red" stroke-width="0.197033" d="M139.211,-166.6C143.591,-161.338 149.922,-154.864 157,-151.196 242.766,-106.745 360.977,-101.122 411.95,-100.94"/>
<polygon fill="red" stroke="red" stroke-width="0.197033" points="412.032,-104.441 422.044,-100.975 412.057,-97.4407 412.032,-104.441"/>
</g>
<!-- &#45;11&#45;&gt;2 -->
<g id="edge50" class="edge"><title>&#45;11&#45;&gt;2</title>
<path fill="none" stroke="red" stroke-width="0.604829" d="M140.315,-166.787C150.397,-155.545 168.847,-134.971 182.377,-119.883"/>
<polygon fill="red" stroke="red" stroke-width="0.604829" points="185.233,-121.941 189.304,-112.159 180.021,-117.268 185.233,-121.941"/>
</g>
<!-- &#45;12 -->
<g id="node12" class="node"><title>&#45;12</title>
<polygon fill="lightgray" stroke="black" points="1163.5,-340.191 1134.5,-340.191 1134.5,-322.191 1163.5,-322.191 1163.5,-340.191"/>
<text text-anchor="middle" x="1149" y="-328.991" font-family="Times,serif" font-size="9.00">&#45;12</text>
</g>
<!-- &#45;12&#45;&gt;1 -->
<g id="edge22" class="edge"><title>&#45;12&#45;&gt;1</title>
<path fill="none" stroke="red" stroke-width="0.458059" stroke-dasharray="1,5" d="M1163.66,-323.135C1177.51,-315.753 1197.91,-302.911 1210,-286.191 1245.84,-236.603 1276.95,-197.536 1237,-151.196 1196.82,-104.592 998.409,-100.872 927.363,-101.066"/>
<polygon fill="red" stroke="red" stroke-width="0.458059" points="927.077,-97.567 917.097,-101.124 927.117,-104.567 927.077,-97.567"/>
</g>
<!-- 4550 -->
<g id="node29" class="node"><title>4550</title>
<ellipse fill="white" stroke="black" cx="927" cy="-261.442" rx="25" ry="25"/>
<text text-anchor="middle" x="927" y="-259.242" font-family="Times,serif" font-size="9.00">4550</text>
</g>
<!-- &#45;12&#45;&gt;4550 -->
<g id="edge8" class="edge"><title>&#45;12&#45;&gt;4550</title>
<path fill="none" stroke="red" stroke-width="0.313139" d="M1134.16,-325.953C1107.31,-318.258 1048.95,-301.376 1000,-286.191 986.843,-282.109 972.409,-277.451 959.875,-273.349"/>
<polygon fill="red" stroke="red" stroke-width="0.313139" points="960.883,-269.996 950.29,-270.199 958.698,-276.646 960.883,-269.996"/>
</g>
<!-- &#45;13 -->
<g id="node13" class="node"><title>&#45;13</title>
<polygon fill="lightgray" stroke="black" points="451.5,-184.945 422.5,-184.945 422.5,-166.945 451.5,-166.945 451.5,-184.945"/>
<text text-anchor="middle" x="437" y="-173.745" font-family="Times,serif" font-size="9.00">&#45;13</text>
</g>
<!-- &#45;13&#45;&gt;0 -->
<g id="edge58" class="edge"><title>&#45;13&#45;&gt;0</title>
<path fill="none" stroke="green" stroke-width="1.07564" d="M437,-166.787C437,-156.886 437,-139.744 437,-125.488"/>
<polygon fill="green" stroke="green" stroke-width="1.07564" points="440.5,-125.317 437,-115.317 433.5,-125.317 440.5,-125.317"/>
</g>
<!-- &#45;14 -->
<g id="node14" class="node"><title>&#45;14</title>
<polygon fill="lightgray" stroke="black" points="626.5,-184.945 597.5,-184.945 597.5,-166.945 626.5,-166.945 626.5,-184.945"/>
<text text-anchor="middle" x="612" y="-173.745" font-family="Times,serif" font-size="9.00">&#45;14</text>
</g>
<!-- &#45;14&#45;&gt;1 -->
<g id="edge62" class="edge"><title>&#45;14&#45;&gt;1</title>
<path fill="none" stroke="green" stroke-width="0.504196" stroke-dasharray="1,5" d="M618.222,-166.621C622.607,-161.368 628.939,-154.896 636,-151.196 716.669,-108.922 827.681,-102.086 876.836,-101.259"/>
<polygon fill="green" stroke="green" stroke-width="0.504196" points="876.921,-104.759 886.887,-101.162 876.854,-97.7591 876.921,-104.759"/>
</g>
<!-- &#45;14&#45;&gt;2 -->
<g id="edge20" class="edge"><title>&#45;14&#45;&gt;2</title>
<path fill="none" stroke="green" stroke-width="0.208412" d="M605.847,-166.486C601.491,-161.175 595.165,-154.691 588,-151.196 523.257,-119.618 299.788,-106.185 224.209,-102.476"/>
<polygon fill="green" stroke="green" stroke-width="0.208412" points="224.323,-98.9772 214.168,-101.998 223.99,-105.969 224.323,-98.9772"/>
</g>
<!-- &#45;14&#45;&gt;3 -->
<g id="edge36" class="edge"><title>&#45;14&#45;&gt;3</title>
<path fill="none" stroke="red" stroke-width="1.41491" d="M612,-166.787C612,-156.886 612,-139.744 612,-125.488"/>
<polygon fill="red" stroke="red" stroke-width="1.41491" points="615.5,-125.317 612,-115.317 608.5,-125.317 615.5,-125.317"/>
</g>
<!-- &#45;15 -->
<g id="node15" class="node"><title>&#45;15</title>
<polygon fill="lightgray" stroke="black" points="994.5,-340.191 965.5,-340.191 965.5,-322.191 994.5,-322.191 994.5,-340.191"/>
<text text-anchor="middle" x="980" y="-328.991" font-family="Times,serif" font-size="9.00">&#45;15</text>
</g>
<!-- &#45;15&#45;&gt;1 -->
<g id="edge23" class="edge"><title>&#45;15&#45;&gt;1</title>
<path fill="none" stroke="green" stroke-width="0.249412" d="M994.741,-330.977C1029.85,-332.059 1119.54,-330.063 1174,-286.191 1222.73,-246.935 1254.61,-198.807 1214,-151.196 1176.99,-107.807 994.281,-102.015 926.961,-101.37"/>
<polygon fill="green" stroke="green" stroke-width="0.249412" points="926.859,-97.8693 916.836,-101.304 926.813,-104.869 926.859,-97.8693"/>
</g>
<!-- &#45;15&#45;&gt;4550 -->
<g id="edge57" class="edge"><title>&#45;15&#45;&gt;4550</title>
<path fill="none" stroke="green" stroke-width="0.15932" stroke-dasharray="1,5" d="M973.712,-322.153C967.385,-314.065 957.273,-301.139 948.073,-289.379"/>
<polygon fill="green" stroke="green" stroke-width="0.15932" points="950.825,-287.217 941.907,-281.497 945.312,-291.53 950.825,-287.217"/>
</g>
<!-- &#45;15&#45;&gt;4979 -->
<g id="edge2" class="edge"><title>&#45;15&#45;&gt;4979</title>
<path fill="none" stroke="red" stroke-width="0.52143" d="M979.11,-321.983C977.151,-305.456 971.758,-267.149 961,-236.693 957.409,-226.528 952.381,-215.931 947.418,-206.532"/>
<polygon fill="red" stroke="red" stroke-width="0.52143" points="950.399,-204.69 942.531,-197.594 944.257,-208.047 950.399,-204.69"/>
</g>
<!-- &#45;16 -->
<g id="node16" class="node"><title>&#45;16</title>
<polygon fill="lightgray" stroke="black" points="758.5,-184.945 729.5,-184.945 729.5,-166.945 758.5,-166.945 758.5,-184.945"/>
<text text-anchor="middle" x="744" y="-173.745" font-family="Times,serif" font-size="9.00">&#45;16</text>
</g>
<!-- &#45;16&#45;&gt;0 -->
<g id="edge26" class="edge"><title>&#45;16&#45;&gt;0</title>
<path fill="none" stroke="green" stroke-width="0.47669" d="M737.791,-166.596C733.412,-161.331 727.081,-154.858 720,-151.196 674.841,-127.843 522.208,-110.078 461.856,-103.805"/>
<polygon fill="green" stroke="green" stroke-width="0.47669" points="462.011,-100.303 451.707,-102.769 461.3,-107.267 462.011,-100.303"/>
</g>
<!-- &#45;16&#45;&gt;1 -->
<g id="edge39" class="edge"><title>&#45;16&#45;&gt;1</title>
<path fill="none" stroke="red" stroke-width="0.106949" d="M758.581,-168.153C786.274,-155.253 846.646,-127.131 879.541,-111.808"/>
<polygon fill="red" stroke="red" stroke-width="0.106949" points="881.214,-114.89 888.801,-107.495 878.258,-108.545 881.214,-114.89"/>
</g>
<!-- &#45;17 -->
<g id="node17" class="node"><title>&#45;17</title>
<polygon fill="lightgray" stroke="black" points="1037.5,-270.442 1008.5,-270.442 1008.5,-252.442 1037.5,-252.442 1037.5,-270.442"/>
<text text-anchor="middle" x="1023" y="-259.242" font-family="Times,serif" font-size="9.00">&#45;17</text>
</g>
<!-- &#45;17&#45;&gt;0 -->
<g id="edge5" class="edge"><title>&#45;17&#45;&gt;0</title>
<path fill="none" stroke="red" stroke-width="0.400909" stroke-dasharray="1,5" d="M1008.09,-253.332C995.763,-247.797 977.641,-240.446 961,-236.693 860.544,-214.041 587.042,-254.107 499,-200.693 484.049,-191.623 461.196,-149.884 447.811,-123.476"/>
<polygon fill="red" stroke="red" stroke-width="0.400909" points="450.781,-121.588 443.181,-114.206 444.518,-124.716 450.781,-121.588"/>
</g>
<!-- &#45;17&#45;&gt;1 -->
<g id="edge52" class="edge"><title>&#45;17&#45;&gt;1</title>
<path fill="none" stroke="green" stroke-width="0.189409" d="M1021.61,-252.442C1017.92,-233.119 1006.29,-183.146 980,-151.196 965.147,-133.146 941.992,-119.515 924.764,-111.108"/>
<polygon fill="green" stroke="green" stroke-width="0.189409" points="925.957,-107.803 915.412,-106.768 923.01,-114.152 925.957,-107.803"/>
</g>
<!-- 4017 -->
<g id="node31" class="node"><title>4017</title>
<ellipse fill="white" stroke="black" cx="1074" cy="-175.945" rx="25" ry="25"/>
<text text-anchor="middle" x="1074" y="-173.745" font-family="Times,serif" font-size="9.00">4017</text>
</g>
<!-- &#45;17&#45;&gt;4017 -->
<g id="edge11" class="edge"><title>&#45;17&#45;&gt;4017</title>
<path fill="none" stroke="green" stroke-width="0.282214" d="M1027.89,-252.436C1034.37,-241.829 1046.15,-222.541 1056.18,-206.117"/>
<polygon fill="green" stroke="green" stroke-width="0.282214" points="1059.3,-207.719 1061.53,-197.36 1053.33,-204.07 1059.3,-207.719"/>
</g>
<!-- &#45;18 -->
<g id="node18" class="node"><title>&#45;18</title>
<polygon fill="lightgray" stroke="black" points="279.5,-184.945 250.5,-184.945 250.5,-166.945 279.5,-166.945 279.5,-184.945"/>
<text text-anchor="middle" x="265" y="-173.745" font-family="Times,serif" font-size="9.00">&#45;18</text>
</g>
<!-- &#45;18&#45;&gt;0 -->
<g id="edge32" class="edge"><title>&#45;18&#45;&gt;0</title>
<path fill="none" stroke="green" stroke-width="0.262218" stroke-dasharray="1,5" d="M273.546,-166.583C279.03,-161.578 286.507,-155.395 294,-151.196 333.016,-129.331 383.321,-114.514 412.686,-107.032"/>
<polygon fill="green" stroke="green" stroke-width="0.262218" points="413.628,-110.404 422.497,-104.608 411.949,-103.609 413.628,-110.404"/>
</g>
<!-- &#45;18&#45;&gt;2 -->
<g id="edge30" class="edge"><title>&#45;18&#45;&gt;2</title>
<path fill="none" stroke="red" stroke-width="0.124695" d="M257.685,-166.787C247.603,-155.545 229.153,-134.971 215.623,-119.883"/>
<polygon fill="red" stroke="red" stroke-width="0.124695" points="217.979,-117.268 208.696,-112.159 212.767,-121.941 217.979,-117.268"/>
</g>
<!-- &#45;18&#45;&gt;3 -->
<g id="edge42" class="edge"><title>&#45;18&#45;&gt;3</title>
<path fill="none" stroke="green" stroke-width="0.328597" d="M279.515,-168.469C291.913,-163.161 310.334,-155.799 327,-151.196 421.302,-125.15 537.082,-109.881 587.071,-104.068"/>
<polygon fill="green" stroke="green" stroke-width="0.328597" points="587.706,-107.518 597.247,-102.91 586.915,-100.563 587.706,-107.518"/>
</g>
<!-- &#45;19 -->
<g id="node19" class="node"><title>&#45;19</title>
<polygon fill="lightgray" stroke="black" points="365.5,-184.945 336.5,-184.945 336.5,-166.945 365.5,-166.945 365.5,-184.945"/>
<text text-anchor="middle" x="351" y="-173.745" font-family="Times,serif" font-size="9.00">&#45;19</text>
</g>
<!-- &#45;19&#45;&gt;0 -->
<g id="edge45" class="edge"><title>&#45;19&#45;&gt;0</title>
<path fill="none" stroke="green" stroke-width="0.281935" d="M360.532,-166.787C374.363,-154.951 400.282,-132.77 418.079,-117.539"/>
<polygon fill="green" stroke="green" stroke-width="0.281935" points="420.753,-119.857 426.075,-110.696 416.202,-114.539 420.753,-119.857"/>
</g>
<!-- &#45;19&#45;&gt;1 -->
<g id="edge34" class="edge"><title>&#45;19&#45;&gt;1</title>
<path fill="none" stroke="green" stroke-width="0.499608" d="M365.933,-167.94C378.275,-162.467 396.404,-155.146 413,-151.196 502.762,-129.829 789.81,-108.99 876.786,-103.033"/>
<polygon fill="green" stroke="green" stroke-width="0.499608" points="877.077,-106.522 886.816,-102.352 876.602,-99.538 877.077,-106.522"/>
</g>
<!-- &#45;19&#45;&gt;2 -->
<g id="edge17" class="edge"><title>&#45;19&#45;&gt;2</title>
<path fill="none" stroke="green" stroke-width="0.157616" d="M336.426,-167.888C309.74,-154.967 252.876,-127.434 221.3,-112.144"/>
<polygon fill="green" stroke="green" stroke-width="0.157616" points="222.532,-108.852 212.007,-107.645 219.482,-115.153 222.532,-108.852"/>
</g>
<!-- &#45;20 -->
<g id="node20" class="node"><title>&#45;20</title>
<polygon fill="lightgray" stroke="black" points="171.5,-340.191 142.5,-340.191 142.5,-322.191 171.5,-322.191 171.5,-340.191"/>
<text text-anchor="middle" x="157" y="-328.991" font-family="Times,serif" font-size="9.00">&#45;20</text>
</g>
<!-- &#45;20&#45;&gt;2 -->
<g id="edge1" class="edge"><title>&#45;20&#45;&gt;2</title>
<path fill="none" stroke="red" stroke-width="0.713286" stroke-dasharray="1,5" d="M142.432,-327.078C123.284,-322.117 90.3986,-310.398 76,-286.191 45.3286,-234.625 42.4764,-200.954 76,-151.196 97.8042,-118.832 144.593,-107.473 173.765,-103.49"/>
<polygon fill="red" stroke="red" stroke-width="0.713286" points="174.467,-106.932 183.994,-102.297 173.655,-99.9794 174.467,-106.932"/>
</g>
<!-- &#45;20&#45;&gt;4550 -->
<g id="edge38" class="edge"><title>&#45;20&#45;&gt;4550</title>
<path fill="none" stroke="green" stroke-width="0.614247" stroke-dasharray="1,5" d="M171.693,-329.259C265.542,-323.298 778.226,-290.628 811,-286.191 838.911,-282.412 870.174,-275.876 893.206,-270.615"/>
<polygon fill="green" stroke="green" stroke-width="0.614247" points="894.218,-273.974 903.167,-268.303 892.635,-267.155 894.218,-273.974"/>
</g>
<!-- &#45;21 -->
<g id="node21" class="node"><title>&#45;21</title>
<polygon fill="lightgray" stroke="black" points="322.5,-340.191 293.5,-340.191 293.5,-322.191 322.5,-322.191 322.5,-340.191"/>
<text text-anchor="middle" x="308" y="-328.991" font-family="Times,serif" font-size="9.00">&#45;21</text>
</g>
<!-- &#45;21&#45;&gt;0 -->
<g id="edge25" class="edge"><title>&#45;21&#45;&gt;0</title>
<path fill="none" stroke="green" stroke-width="2.19943" d="M306.279,-322.079C300.997,-294.894 287.66,-205.662 327,-151.196 347.087,-123.385 386.435,-110.761 412.215,-105.271"/>
<polygon fill="green" stroke="green" stroke-width="2.19943" points="413.175,-108.651 422.338,-103.332 411.858,-101.776 413.175,-108.651"/>
</g>
<!-- &#45;21&#45;&gt;2 -->
<g id="edge48" class="edge"><title>&#45;21&#45;&gt;2</title>
<path fill="none" stroke="green" stroke-width="0.412929" d="M293.39,-326.018C254.683,-314.074 149.678,-275.697 109,-200.693 98.5121,-181.356 97.8316,-170.149 109,-151.196 123.105,-127.259 153.296,-114.007 174.818,-107.293"/>
<polygon fill="green" stroke="green" stroke-width="0.412929" points="175.925,-110.617 184.578,-104.503 174.001,-103.886 175.925,-110.617"/>
</g>
<!-- &#45;21&#45;&gt;4550 -->
<g id="edge12" class="edge"><title>&#45;21&#45;&gt;4550</title>
<path fill="none" stroke="green" stroke-width="0.478299" d="M322.885,-329.514C383.717,-326.615 619.293,-314.106 811,-286.191 838.872,-282.132 870.138,-275.615 893.181,-270.434"/>
<polygon fill="green" stroke="green" stroke-width="0.478299" points="894.176,-273.797 903.147,-268.161 892.619,-266.972 894.176,-273.797"/>
</g>
<!-- &#45;22 -->
<g id="node22" class="node"><title>&#45;22</title>
<polygon fill="lightgray" stroke="black" points="579.5,-184.945 550.5,-184.945 550.5,-166.945 579.5,-166.945 579.5,-184.945"/>
<text text-anchor="middle" x="565" y="-173.745" font-family="Times,serif" font-size="9.00">&#45;22</text>
</g>
<!-- &#45;22&#45;&gt;1 -->
<g id="edge27" class="edge"><title>&#45;22&#45;&gt;1</title>
<path fill="none" stroke="red" stroke-width="0.163659" d="M570.858,-166.556C575.016,-161.274 581.074,-154.797 588,-151.196 638.578,-124.901 811.95,-108.586 877.04,-103.265"/>
<polygon fill="red" stroke="red" stroke-width="0.163659" points="877.516,-106.738 887.205,-102.452 876.958,-99.7603 877.516,-106.738"/>
</g>
<!-- &#45;22&#45;&gt;2 -->
<g id="edge46" class="edge"><title>&#45;22&#45;&gt;2</title>
<path fill="none" stroke="red" stroke-width="0.246312" stroke-dasharray="1,5" d="M558.827,-166.527C554.462,-161.233 548.135,-154.753 541,-151.196 485.045,-123.303 293.552,-107.788 224.273,-102.983"/>
<polygon fill="red" stroke="red" stroke-width="0.246312" points="224.097,-99.4633 213.883,-102.28 223.624,-106.447 224.097,-99.4633"/>
</g>
<!-- &#45;22&#45;&gt;3 -->
<g id="edge60" class="edge"><title>&#45;22&#45;&gt;3</title>
<path fill="none" stroke="green" stroke-width="0.128271" stroke-dasharray="1,5" d="M570.209,-166.787C577.097,-156.002 589.471,-136.625 598.973,-121.745"/>
<polygon fill="green" stroke="green" stroke-width="0.128271" points="602.011,-123.491 604.444,-113.179 596.112,-119.723 602.011,-123.491"/>
</g>
<!-- &#45;23 -->
<g id="node23" class="node"><title>&#45;23</title>
<polygon fill="lightgray" stroke="black" points="1253.5,-340.191 1224.5,-340.191 1224.5,-322.191 1253.5,-322.191 1253.5,-340.191"/>
<text text-anchor="middle" x="1239" y="-328.991" font-family="Times,serif" font-size="9.00">&#45;23</text>
</g>
<!-- &#45;24 -->
<g id="node24" class="node"><title>&#45;24</title>
<polygon fill="lightgray" stroke="black" points="844.5,-184.945 815.5,-184.945 815.5,-166.945 844.5,-166.945 844.5,-184.945"/>
<text text-anchor="middle" x="830" y="-173.745" font-family="Times,serif" font-size="9.00">&#45;24</text>
</g>
<!-- &#45;24&#45;&gt;0 -->
<g id="edge49" class="edge"><title>&#45;24&#45;&gt;0</title>
<path fill="none" stroke="green" stroke-width="1.05241" d="M815.267,-168.378C802.679,-163.015 783.965,-155.622 767,-151.196 655.308,-122.056 517.608,-108.081 462.018,-103.315"/>
<polygon fill="green" stroke="green" stroke-width="1.05241" points="462.283,-99.8253 452.027,-102.483 461.702,-106.801 462.283,-99.8253"/>
</g>
<!-- &#45;24&#45;&gt;1 -->
<g id="edge4" class="edge"><title>&#45;24&#45;&gt;1</title>
<path fill="none" stroke="green" stroke-width="0.352902" stroke-dasharray="1,5" d="M837.98,-166.787C849.205,-155.314 869.939,-134.119 884.772,-118.958"/>
<polygon fill="green" stroke="green" stroke-width="0.352902" points="887.417,-121.258 891.908,-111.663 882.413,-116.363 887.417,-121.258"/>
</g>
<!-- 1&#45;&gt;1 -->
<g id="edge31" class="edge"><title>1&#45;&gt;1</title>
<path fill="none" stroke="green" stroke-width="0.148189" d="M912.428,-111.173C923.039,-117.541 934.849,-113.933 934.849,-100.347 934.849,-91.0064 929.267,-86.3818 922.33,-86.473"/>
<polygon fill="green" stroke="green" stroke-width="0.148189" points="920.956,-83.2338 912.428,-89.5204 923.015,-89.9242 920.956,-83.2338"/>
</g>
<!-- 6800 -->
<g id="node30" class="node"><title>6800</title>
<ellipse fill="white" stroke="black" cx="902" cy="-24.7487" rx="25" ry="25"/>
<text text-anchor="middle" x="902" y="-22.5487" font-family="Times,serif" font-size="9.00">6800</text>
</g>
<!-- 1&#45;&gt;6800 -->
<g id="edge61" class="edge"><title>1&#45;&gt;6800</title>
<path fill="none" stroke="red" stroke-width="0.502497" d="M896.684,-86.1889C895.598,-78.5979 895.128,-68.6795 895.277,-59.0788"/>
<polygon fill="red" stroke="red" stroke-width="0.502497" points="898.781,-59.0418 895.68,-48.9109 891.786,-58.7643 898.781,-59.0418"/>
</g>
<!-- 2&#45;&gt;2 -->
<g id="edge28" class="edge"><title>2&#45;&gt;2</title>
<path fill="none" stroke="red" stroke-width="0.158616" d="M209.428,-111.173C220.039,-117.541 231.849,-113.933 231.849,-100.347 231.849,-91.0064 226.267,-86.3818 219.33,-86.473"/>
<polygon fill="red" stroke="red" stroke-width="0.158616" points="217.956,-83.2338 209.428,-89.5204 220.015,-89.9242 217.956,-83.2338"/>
</g>
<!-- 3&#45;&gt;3 -->
<g id="edge18" class="edge"><title>3&#45;&gt;3</title>
<path fill="none" stroke="red" stroke-width="0.304832" d="M622.428,-111.173C633.039,-117.541 644.849,-113.933 644.849,-100.347 644.849,-91.0064 639.267,-86.3818 632.33,-86.473"/>
<polygon fill="red" stroke="red" stroke-width="0.304832" points="630.956,-83.2338 622.428,-89.5204 633.015,-89.9242 630.956,-83.2338"/>
</g>
<!-- 4550&#45;&gt;1 -->
<g id="edge21" class="edge"><title>4550&#45;&gt;1</title>
<path fill="none" stroke="red" stroke-width="0.59771" d="M941.982,-241.741C957.814,-219.55 978.622,-181.715 964,-151.196 955.727,-133.928 938.232,-120.744 923.929,-112.284"/>
<polygon fill="red" stroke="red" stroke-width="0.59771" points="925.565,-109.189 915.12,-107.412 922.177,-115.315 925.565,-109.189"/>
</g>
<!-- 4550&#45;&gt;4979 -->
<g id="edge35" class="edge"><title>4550&#45;&gt;4979</title>
<path fill="none" stroke="red" stroke-width="0.310926" d="M927.868,-236.291C928.153,-228.347 928.476,-219.363 928.782,-210.832"/>
<polygon fill="red" stroke="red" stroke-width="0.310926" points="932.283,-210.872 929.145,-200.753 925.288,-210.621 932.283,-210.872"/>
</g>
<!-- 6800&#45;&gt;1 -->
<g id="edge53" class="edge"><title>6800&#45;&gt;1</title>
<path fill="none" stroke="red" stroke-width="0.255754" d="M908.32,-48.9109C908.89,-57.5516 908.893,-67.3607 908.331,-76.0165"/>
<polygon fill="red" stroke="red" stroke-width="0.255754" points="904.826,-75.8907 907.316,-86.1889 911.792,-76.5859 904.826,-75.8907"/>
</g>
<!-- 4017&#45;&gt;1 -->
<g id="edge51" class="edge"><title>4017&#45;&gt;1</title>
<path fill="none" stroke="red" stroke-width="0.317954" d="M1053.76,-161.628C1047.84,-158.008 1041.27,-154.248 1035,-151.196 998.002,-133.197 952.734,-117.484 925.693,-108.724"/>
<polygon fill="red" stroke="red" stroke-width="0.317954" points="926.541,-105.32 915.95,-105.613 924.412,-111.989 926.541,-105.32"/>
</g>
<!-- 4979&#45;&gt;1 -->
<g id="edge43" class="edge"><title>4979&#45;&gt;1</title>
<path fill="none" stroke="red" stroke-width="0.381445" d="M921.447,-152.463C918.035,-143.494 914.112,-133.182 910.686,-124.179"/>
<polygon fill="red" stroke="red" stroke-width="0.381445" points="913.912,-122.814 907.085,-114.712 907.369,-125.303 913.912,-122.814"/>
</g>
<!-- 6941&#45;&gt;1 -->
<g id="edge54" class="edge"><title>6941&#45;&gt;1</title>
<path fill="none" stroke="green" stroke-width="0.264286" d="M1160.04,-160.998C1154.12,-157.367 1147.49,-153.76 1141,-151.196 1066.32,-121.688 971.286,-108.554 926.919,-103.719"/>
<polygon fill="green" stroke="green" stroke-width="0.264286" points="927.083,-100.218 916.775,-102.664 926.359,-107.18 927.083,-100.218"/>
</g>
</g>
</svg>
