<?xml version="1.0" encoding="UTF-8" standalone="no"?>
<!DOCTYPE svg PUBLIC "-//W3C//DTD SVG 1.1//EN"
 "http://www.w3.org/Graphics/SVG/1.1/DTD/svg11.dtd">
<!-- Generated by graphviz version 2.38.0 (20140413.2041)
 -->
<!-- Title: %3 Pages: 1 -->
<svg width="1108pt" height="659pt"
 viewBox="0.00 0.00 1107.60 658.81" xmlns="http://www.w3.org/2000/svg" xmlns:xlink="http://www.w3.org/1999/xlink">
<g id="graph0" class="graph" transform="scale(1 1) rotate(0) translate(4 654.808)">
<title>%3</title>
<polygon fill="white" stroke="none" points="-4,4 -4,-654.808 1103.6,-654.808 1103.6,4 -4,4"/>
<!-- &#45;1 -->
<g id="node1" class="node"><title>&#45;1</title>
<polygon fill="lightgray" stroke="black" points="63.7487,-635.059 39.7487,-635.059 39.7487,-617.059 63.7487,-617.059 63.7487,-635.059"/>
<text text-anchor="middle" x="51.7487" y="-623.859" font-family="Times,serif" font-size="9.00">&#45;1</text>
</g>
<!-- 9931 -->
<g id="node33" class="node"><title>9931</title>
<ellipse fill="white" stroke="black" cx="24.7487" cy="-537.734" rx="25" ry="25"/>
<text text-anchor="middle" x="24.7487" y="-535.534" font-family="Times,serif" font-size="9.00">9931</text>
</g>
<!-- &#45;1&#45;&gt;9931 -->
<g id="edge9" class="edge"><title>&#45;1&#45;&gt;9931</title>
<path fill="none" stroke="green" stroke-width="0.303516" d="M49.1599,-616.782C45.9026,-606.368 40.1141,-587.861 34.9913,-571.482"/>
<polygon fill="green" stroke="green" stroke-width="0.303516" points="38.2417,-570.149 31.9161,-561.65 31.5608,-572.238 38.2417,-570.149"/>
</g>
<!-- 6507 -->
<g id="node34" class="node"><title>6507</title>
<ellipse fill="white" stroke="black" cx="120.749" cy="-446.579" rx="25" ry="25"/>
<text text-anchor="middle" x="120.749" y="-444.379" font-family="Times,serif" font-size="9.00">6507</text>
</g>
<!-- &#45;1&#45;&gt;6507 -->
<g id="edge22" class="edge"><title>&#45;1&#45;&gt;6507</title>
<path fill="none" stroke="red" stroke-width="1.34528" d="M54.8928,-616.972C64.2164,-592.99 92.0795,-521.322 108.423,-479.284"/>
<polygon fill="red" stroke="red" stroke-width="1.34528" points="111.754,-480.374 112.116,-469.785 105.23,-477.837 111.754,-480.374"/>
</g>
<!-- &#45;2 -->
<g id="node2" class="node"><title>&#45;2</title>
<polygon fill="lightgray" stroke="black" points="277.749,-635.059 253.749,-635.059 253.749,-617.059 277.749,-617.059 277.749,-635.059"/>
<text text-anchor="middle" x="265.749" y="-623.859" font-family="Times,serif" font-size="9.00">&#45;2</text>
</g>
<!-- &#45;3 -->
<g id="node3" class="node"><title>&#45;3</title>
<polygon fill="lightgray" stroke="black" points="84.7487,-187.773 60.7487,-187.773 60.7487,-169.773 84.7487,-169.773 84.7487,-187.773"/>
<text text-anchor="middle" x="72.7487" y="-176.573" font-family="Times,serif" font-size="9.00">&#45;3</text>
</g>
<!-- 2197 -->
<g id="node39" class="node"><title>2197</title>
<ellipse fill="white" stroke="black" cx="79.7487" cy="-90.4472" rx="25" ry="25"/>
<text text-anchor="middle" x="79.7487" y="-88.2472" font-family="Times,serif" font-size="9.00">2197</text>
</g>
<!-- &#45;3&#45;&gt;2197 -->
<g id="edge27" class="edge"><title>&#45;3&#45;&gt;2197</title>
<path fill="none" stroke="green" stroke-width="0.653365" d="M73.4199,-169.496C74.2396,-159.387 75.6775,-141.655 76.9758,-125.644"/>
<polygon fill="green" stroke="green" stroke-width="0.653365" points="80.4811,-125.719 77.8009,-115.469 73.504,-125.153 80.4811,-125.719"/>
</g>
<!-- &#45;4 -->
<g id="node4" class="node"><title>&#45;4</title>
<polygon fill="lightgray" stroke="black" points="397.749,-635.059 373.749,-635.059 373.749,-617.059 397.749,-617.059 397.749,-635.059"/>
<text text-anchor="middle" x="385.749" y="-623.859" font-family="Times,serif" font-size="9.00">&#45;4</text>
</g>
<!-- &#45;5 -->
<g id="node5" class="node"><title>&#45;5</title>
<polygon fill="lightgray" stroke="black" points="132.749,-635.059 108.749,-635.059 108.749,-617.059 132.749,-617.059 132.749,-635.059"/>
<text text-anchor="middle" x="120.749" y="-623.859" font-family="Times,serif" font-size="9.00">&#45;5</text>
</g>
<!-- 2 -->
<g id="node27" class="node"><title>2</title>
<ellipse fill="lightblue" stroke="black" cx="120.749" cy="-537.734" rx="14.7" ry="14.7"/>
<text text-anchor="middle" x="120.749" y="-535.534" font-family="Times,serif" font-size="9.00">2</text>
</g>
<!-- &#45;5&#45;&gt;2 -->
<g id="edge2" class="edge"><title>&#45;5&#45;&gt;2</title>
<path fill="none" stroke="red" stroke-width="0.865894" d="M120.749,-616.782C120.749,-604.493 120.749,-580.934 120.749,-562.902"/>
<polygon fill="red" stroke="red" stroke-width="0.865894" points="124.249,-562.794 120.749,-552.794 117.249,-562.794 124.249,-562.794"/>
</g>
<!-- &#45;6 -->
<g id="node6" class="node"><title>&#45;6</title>
<polygon fill="lightgray" stroke="black" points="439.749,-635.059 415.749,-635.059 415.749,-617.059 439.749,-617.059 439.749,-635.059"/>
<text text-anchor="middle" x="427.749" y="-623.859" font-family="Times,serif" font-size="9.00">&#45;6</text>
</g>
<!-- &#45;7 -->
<g id="node7" class="node"><title>&#45;7</title>
<polygon fill="lightgray" stroke="black" points="208.749,-455.579 184.749,-455.579 184.749,-437.579 208.749,-437.579 208.749,-455.579"/>
<text text-anchor="middle" x="196.749" y="-444.379" font-family="Times,serif" font-size="9.00">&#45;7</text>
</g>
<!-- 2831 -->
<g id="node37" class="node"><title>2831</title>
<ellipse fill="white" stroke="black" cx="192.749" cy="-90.4472" rx="25" ry="25"/>
<text text-anchor="middle" x="192.749" y="-88.2472" font-family="Times,serif" font-size="9.00">2831</text>
</g>
<!-- &#45;7&#45;&gt;2831 -->
<g id="edge12" class="edge"><title>&#45;7&#45;&gt;2831</title>
<path fill="none" stroke="green" stroke-width="0.846549" d="M192.65,-437.341C187.068,-425.616 177.358,-403.286 173.749,-383.002 157.294,-290.535 174.581,-179.308 185.409,-124.829"/>
<polygon fill="green" stroke="green" stroke-width="0.846549" points="188.903,-125.21 187.476,-114.712 182.045,-123.809 188.903,-125.21"/>
</g>
<!-- 4505 -->
<g id="node40" class="node"><title>4505</title>
<ellipse fill="white" stroke="black" cx="207.749" cy="-358.253" rx="25" ry="25"/>
<text text-anchor="middle" x="207.749" y="-356.053" font-family="Times,serif" font-size="9.00">4505</text>
</g>
<!-- &#45;7&#45;&gt;4505 -->
<g id="edge21" class="edge"><title>&#45;7&#45;&gt;4505</title>
<path fill="none" stroke="red" stroke-width="0.438625" d="M197.803,-437.302C199.1,-427.124 201.382,-409.218 203.433,-393.121"/>
<polygon fill="red" stroke="red" stroke-width="0.438625" points="206.943,-393.267 204.735,-382.905 199.999,-392.382 206.943,-393.267"/>
</g>
<!-- 5851 -->
<g id="node42" class="node"><title>5851</title>
<ellipse fill="white" stroke="black" cx="289.749" cy="-358.253" rx="25" ry="25"/>
<text text-anchor="middle" x="289.749" y="-356.053" font-family="Times,serif" font-size="9.00">5851</text>
</g>
<!-- &#45;7&#45;&gt;5851 -->
<g id="edge25" class="edge"><title>&#45;7&#45;&gt;5851</title>
<path fill="none" stroke="green" stroke-width="0.313345" d="M202.583,-437.307C206.584,-431.868 212.162,-424.725 217.749,-419.002 231.374,-405.046 248.059,-391.037 261.934,-380.095"/>
<polygon fill="green" stroke="green" stroke-width="0.313345" points="264.408,-382.605 270.159,-373.706 260.114,-377.077 264.408,-382.605"/>
</g>
<!-- &#45;8 -->
<g id="node8" class="node"><title>&#45;8</title>
<polygon fill="lightgray" stroke="black" points="126.749,-187.773 102.749,-187.773 102.749,-169.773 126.749,-169.773 126.749,-187.773"/>
<text text-anchor="middle" x="114.749" y="-176.573" font-family="Times,serif" font-size="9.00">&#45;8</text>
</g>
<!-- 1 -->
<g id="node26" class="node"><title>1</title>
<ellipse fill="lightblue" stroke="black" cx="132.749" cy="-14.8492" rx="14.7" ry="14.7"/>
<text text-anchor="middle" x="132.749" y="-12.6492" font-family="Times,serif" font-size="9.00">1</text>
</g>
<!-- &#45;8&#45;&gt;1 -->
<g id="edge13" class="edge"><title>&#45;8&#45;&gt;1</title>
<path fill="none" stroke="green" stroke-width="1.19107" d="M115.666,-169.521C118.289,-145.925 125.896,-77.4953 130.018,-40.4178"/>
<polygon fill="green" stroke="green" stroke-width="1.19107" points="133.549,-40.3273 131.175,-30.0018 126.592,-39.5539 133.549,-40.3273"/>
</g>
<!-- &#45;8&#45;&gt;2197 -->
<g id="edge15" class="edge"><title>&#45;8&#45;&gt;2197</title>
<path fill="none" stroke="green" stroke-width="0.310267" d="M111.393,-169.496C107.073,-158.842 99.3202,-139.719 92.5696,-123.069"/>
<polygon fill="green" stroke="green" stroke-width="0.310267" points="95.7453,-121.587 88.7443,-113.634 89.2582,-124.217 95.7453,-121.587"/>
</g>
<!-- &#45;9 -->
<g id="node9" class="node"><title>&#45;9</title>
<polygon fill="lightgray" stroke="black" points="356.749,-278.927 332.749,-278.927 332.749,-260.927 356.749,-260.927 356.749,-278.927"/>
<text text-anchor="middle" x="344.749" y="-267.727" font-family="Times,serif" font-size="9.00">&#45;9</text>
</g>
<!-- 6074 -->
<g id="node41" class="node"><title>6074</title>
<ellipse fill="white" stroke="black" cx="276.749" cy="-178.773" rx="25" ry="25"/>
<text text-anchor="middle" x="276.749" y="-176.573" font-family="Times,serif" font-size="9.00">6074</text>
</g>
<!-- &#45;9&#45;&gt;6074 -->
<g id="edge11" class="edge"><title>&#45;9&#45;&gt;6074</title>
<path fill="none" stroke="red" stroke-width="0.400336" d="M338.473,-260.7C329.235,-248.588 311.548,-225.399 297.467,-206.937"/>
<polygon fill="red" stroke="red" stroke-width="0.400336" points="300.142,-204.673 291.295,-198.844 294.576,-208.918 300.142,-204.673"/>
</g>
<!-- &#45;10 -->
<g id="node10" class="node"><title>&#45;10</title>
<polygon fill="lightgray" stroke="black" points="487.249,-635.059 458.249,-635.059 458.249,-617.059 487.249,-617.059 487.249,-635.059"/>
<text text-anchor="middle" x="472.749" y="-623.859" font-family="Times,serif" font-size="9.00">&#45;10</text>
</g>
<!-- &#45;11 -->
<g id="node11" class="node"><title>&#45;11</title>
<polygon fill="lightgray" stroke="black" points="534.249,-635.059 505.249,-635.059 505.249,-617.059 534.249,-617.059 534.249,-635.059"/>
<text text-anchor="middle" x="519.749" y="-623.859" font-family="Times,serif" font-size="9.00">&#45;11</text>
</g>
<!-- &#45;12 -->
<g id="node12" class="node"><title>&#45;12</title>
<polygon fill="lightgray" stroke="black" points="581.249,-635.059 552.249,-635.059 552.249,-617.059 581.249,-617.059 581.249,-635.059"/>
<text text-anchor="middle" x="566.749" y="-623.859" font-family="Times,serif" font-size="9.00">&#45;12</text>
</g>
<!-- &#45;13 -->
<g id="node13" class="node"><title>&#45;13</title>
<polygon fill="lightgray" stroke="black" points="628.249,-635.059 599.249,-635.059 599.249,-617.059 628.249,-617.059 628.249,-635.059"/>
<text text-anchor="middle" x="613.749" y="-623.859" font-family="Times,serif" font-size="9.00">&#45;13</text>
</g>
<!-- &#45;14 -->
<g id="node14" class="node"><title>&#45;14</title>
<polygon fill="lightgray" stroke="black" points="404.249,-278.927 375.249,-278.927 375.249,-260.927 404.249,-260.927 404.249,-278.927"/>
<text text-anchor="middle" x="389.749" y="-267.727" font-family="Times,serif" font-size="9.00">&#45;14</text>
</g>
<!-- 10861 -->
<g id="node35" class="node"><title>10861</title>
<ellipse fill="white" stroke="black" cx="367.749" cy="-178.773" rx="27.6545" ry="27.6545"/>
<text text-anchor="middle" x="367.749" y="-176.573" font-family="Times,serif" font-size="9.00">10861</text>
</g>
<!-- &#45;14&#45;&gt;10861 -->
<g id="edge3" class="edge"><title>&#45;14&#45;&gt;10861</title>
<path fill="none" stroke="green" stroke-width="0.593731" d="M387.718,-260.7C385.199,-250.49 380.737,-232.409 376.669,-215.924"/>
<polygon fill="green" stroke="green" stroke-width="0.593731" points="380.002,-214.82 374.208,-205.95 373.206,-216.497 380.002,-214.82"/>
</g>
<!-- &#45;15 -->
<g id="node15" class="node"><title>&#45;15</title>
<polygon fill="lightgray" stroke="black" points="675.249,-635.059 646.249,-635.059 646.249,-617.059 675.249,-617.059 675.249,-635.059"/>
<text text-anchor="middle" x="660.749" y="-623.859" font-family="Times,serif" font-size="9.00">&#45;15</text>
</g>
<!-- &#45;16 -->
<g id="node16" class="node"><title>&#45;16</title>
<polygon fill="lightgray" stroke="black" points="256.249,-455.579 227.249,-455.579 227.249,-437.579 256.249,-437.579 256.249,-455.579"/>
<text text-anchor="middle" x="241.749" y="-444.379" font-family="Times,serif" font-size="9.00">&#45;16</text>
</g>
<!-- &#45;16&#45;&gt;5851 -->
<g id="edge10" class="edge"><title>&#45;16&#45;&gt;5851</title>
<path fill="none" stroke="green" stroke-width="1.32046" d="M246.351,-437.302C252.449,-426.335 263.537,-406.394 272.979,-389.414"/>
<polygon fill="green" stroke="green" stroke-width="1.32046" points="276.212,-390.801 278.012,-380.361 270.094,-387.4 276.212,-390.801"/>
</g>
<!-- &#45;17 -->
<g id="node17" class="node"><title>&#45;17</title>
<polygon fill="lightgray" stroke="black" points="722.249,-635.059 693.249,-635.059 693.249,-617.059 722.249,-617.059 722.249,-635.059"/>
<text text-anchor="middle" x="707.749" y="-623.859" font-family="Times,serif" font-size="9.00">&#45;17</text>
</g>
<!-- &#45;18 -->
<g id="node18" class="node"><title>&#45;18</title>
<polygon fill="lightgray" stroke="black" points="769.249,-635.059 740.249,-635.059 740.249,-617.059 769.249,-617.059 769.249,-635.059"/>
<text text-anchor="middle" x="754.749" y="-623.859" font-family="Times,serif" font-size="9.00">&#45;18</text>
</g>
<!-- &#45;19 -->
<g id="node19" class="node"><title>&#45;19</title>
<polygon fill="lightgray" stroke="black" points="816.249,-635.059 787.249,-635.059 787.249,-617.059 816.249,-617.059 816.249,-635.059"/>
<text text-anchor="middle" x="801.749" y="-623.859" font-family="Times,serif" font-size="9.00">&#45;19</text>
</g>
<!-- &#45;20 -->
<g id="node20" class="node"><title>&#45;20</title>
<polygon fill="lightgray" stroke="black" points="355.249,-635.059 326.249,-635.059 326.249,-617.059 355.249,-617.059 355.249,-635.059"/>
<text text-anchor="middle" x="340.749" y="-623.859" font-family="Times,serif" font-size="9.00">&#45;20</text>
</g>
<!-- 9704 -->
<g id="node31" class="node"><title>9704</title>
<ellipse fill="white" stroke="black" cx="340.749" cy="-537.734" rx="25" ry="25"/>
<text text-anchor="middle" x="340.749" y="-535.534" font-family="Times,serif" font-size="9.00">9704</text>
</g>
<!-- &#45;20&#45;&gt;9704 -->
<g id="edge30" class="edge"><title>&#45;20&#45;&gt;9704</title>
<path fill="none" stroke="green" stroke-width="0.691722" d="M340.749,-616.782C340.749,-606.674 340.749,-588.941 340.749,-572.93"/>
<polygon fill="green" stroke="green" stroke-width="0.691722" points="344.249,-572.755 340.749,-562.755 337.249,-572.755 344.249,-572.755"/>
</g>
<!-- &#45;21 -->
<g id="node21" class="node"><title>&#45;21</title>
<polygon fill="lightgray" stroke="black" points="863.249,-635.059 834.249,-635.059 834.249,-617.059 863.249,-617.059 863.249,-635.059"/>
<text text-anchor="middle" x="848.749" y="-623.859" font-family="Times,serif" font-size="9.00">&#45;21</text>
</g>
<!-- &#45;22 -->
<g id="node22" class="node"><title>&#45;22</title>
<polygon fill="lightgray" stroke="black" points="910.249,-635.059 881.249,-635.059 881.249,-617.059 910.249,-617.059 910.249,-635.059"/>
<text text-anchor="middle" x="895.749" y="-623.859" font-family="Times,serif" font-size="9.00">&#45;22</text>
</g>
<!-- &#45;23 -->
<g id="node23" class="node"><title>&#45;23</title>
<polygon fill="lightgray" stroke="black" points="957.249,-635.059 928.249,-635.059 928.249,-617.059 957.249,-617.059 957.249,-635.059"/>
<text text-anchor="middle" x="942.749" y="-623.859" font-family="Times,serif" font-size="9.00">&#45;23</text>
</g>
<!-- &#45;24 -->
<g id="node24" class="node"><title>&#45;24</title>
<polygon fill="lightgray" stroke="black" points="1004.25,-635.059 975.249,-635.059 975.249,-617.059 1004.25,-617.059 1004.25,-635.059"/>
<text text-anchor="middle" x="989.749" y="-623.859" font-family="Times,serif" font-size="9.00">&#45;24</text>
</g>
<!-- 0 -->
<g id="node25" class="node"><title>0</title>
<ellipse fill="lightblue" stroke="black" cx="1036.75" cy="-626.059" rx="14.7" ry="14.7"/>
<text text-anchor="middle" x="1036.75" y="-623.859" font-family="Times,serif" font-size="9.00">0</text>
</g>
<!-- 2&#45;&gt;6507 -->
<g id="edge7" class="edge"><title>2&#45;&gt;6507</title>
<path fill="none" stroke="green" stroke-width="1.17067" d="M120.749,-522.803C120.749,-511.769 120.749,-495.878 120.749,-481.543"/>
<polygon fill="green" stroke="green" stroke-width="1.17067" points="124.249,-481.471 120.749,-471.471 117.249,-481.471 124.249,-481.471"/>
</g>
<!-- 3 -->
<g id="node28" class="node"><title>3</title>
<ellipse fill="lightblue" stroke="black" cx="1084.75" cy="-626.059" rx="14.7" ry="14.7"/>
<text text-anchor="middle" x="1084.75" y="-623.859" font-family="Times,serif" font-size="9.00">3</text>
</g>
<!-- 7718 -->
<g id="node29" class="node"><title>7718</title>
<ellipse fill="white" stroke="black" cx="195.749" cy="-626.059" rx="25" ry="25"/>
<text text-anchor="middle" x="195.749" y="-623.859" font-family="Times,serif" font-size="9.00">7718</text>
</g>
<!-- 11243 -->
<g id="node36" class="node"><title>11243</title>
<ellipse fill="white" stroke="black" cx="180.749" cy="-537.734" rx="27.6545" ry="27.6545"/>
<text text-anchor="middle" x="180.749" y="-535.534" font-family="Times,serif" font-size="9.00">11243</text>
</g>
<!-- 7718&#45;&gt;11243 -->
<g id="edge23" class="edge"><title>7718&#45;&gt;11243</title>
<path fill="none" stroke="red" stroke-width="1.02532" d="M191.65,-601.471C190.226,-593.273 188.594,-583.881 187.034,-574.904"/>
<polygon fill="red" stroke="red" stroke-width="1.02532" points="190.478,-574.283 185.318,-565.03 183.582,-575.481 190.478,-574.283"/>
</g>
<!-- 10705 -->
<g id="node38" class="node"><title>10705</title>
<ellipse fill="white" stroke="black" cx="253.749" cy="-537.734" rx="27.6545" ry="27.6545"/>
<text text-anchor="middle" x="253.749" y="-535.534" font-family="Times,serif" font-size="9.00">10705</text>
</g>
<!-- 7718&#45;&gt;10705 -->
<g id="edge29" class="edge"><title>7718&#45;&gt;10705</title>
<path fill="none" stroke="red" stroke-width="0.674825" d="M209.201,-605.038C216.31,-594.457 225.189,-581.241 233.145,-569.4"/>
<polygon fill="red" stroke="red" stroke-width="0.674825" points="236.065,-571.329 238.737,-561.077 230.255,-567.426 236.065,-571.329"/>
</g>
<!-- 11577 -->
<g id="node30" class="node"><title>11577</title>
<ellipse fill="white" stroke="black" cx="248.749" cy="-269.927" rx="27.6545" ry="27.6545"/>
<text text-anchor="middle" x="248.749" y="-267.727" font-family="Times,serif" font-size="9.00">11577</text>
</g>
<!-- 11577&#45;&gt;6074 -->
<g id="edge26" class="edge"><title>11577&#45;&gt;6074</title>
<path fill="none" stroke="green" stroke-width="0.414764" d="M256.847,-243.14C259.852,-233.575 263.3,-222.597 266.472,-212.494"/>
<polygon fill="green" stroke="green" stroke-width="0.414764" points="269.869,-213.358 269.527,-202.769 263.191,-211.261 269.869,-213.358"/>
</g>
<!-- 10472 -->
<g id="node32" class="node"><title>10472</title>
<ellipse fill="white" stroke="black" cx="301.749" cy="-446.579" rx="27.6545" ry="27.6545"/>
<text text-anchor="middle" x="301.749" y="-444.379" font-family="Times,serif" font-size="9.00">10472</text>
</g>
<!-- 9704&#45;&gt;10472 -->
<g id="edge5" class="edge"><title>9704&#45;&gt;10472</title>
<path fill="none" stroke="green" stroke-width="0.344737" d="M331.108,-514.695C326.747,-504.725 321.492,-492.713 316.641,-481.623"/>
<polygon fill="green" stroke="green" stroke-width="0.344737" points="319.729,-479.949 312.515,-472.19 313.316,-482.755 319.729,-479.949"/>
</g>
<!-- 9704&#45;&gt;5851 -->
<g id="edge18" class="edge"><title>9704&#45;&gt;5851</title>
<path fill="none" stroke="red" stroke-width="0.129255" d="M344.814,-512.892C347.96,-488.498 350.094,-449.897 338.749,-419.002 333.811,-405.555 324.467,-392.931 315.252,-382.782"/>
<polygon fill="red" stroke="red" stroke-width="0.129255" points="317.751,-380.331 308.305,-375.531 312.696,-385.174 317.751,-380.331"/>
</g>
<!-- 10472&#45;&gt;5851 -->
<g id="edge14" class="edge"><title>10472&#45;&gt;5851</title>
<path fill="none" stroke="green" stroke-width="0.363478" d="M298.083,-419.21C296.924,-410.87 295.627,-401.54 294.408,-392.77"/>
<polygon fill="green" stroke="green" stroke-width="0.363478" points="297.869,-392.247 293.025,-382.824 290.936,-393.211 297.869,-392.247"/>
</g>
<!-- 9931&#45;&gt;6507 -->
<g id="edge17" class="edge"><title>9931&#45;&gt;6507</title>
<path fill="none" stroke="red" stroke-width="0.168125" d="M42.8056,-519.964C57.6486,-506.18 78.852,-486.488 95.3974,-471.123"/>
<polygon fill="red" stroke="red" stroke-width="0.168125" points="98.1514,-473.342 103.097,-463.972 93.3879,-468.212 98.1514,-473.342"/>
</g>
<!-- 10861&#45;&gt;2831 -->
<g id="edge20" class="edge"><title>10861&#45;&gt;2831</title>
<path fill="none" stroke="red" stroke-width="0.21058" d="M343.416,-165.77C312.168,-150.356 257.907,-123.589 223.738,-106.734"/>
<polygon fill="red" stroke="red" stroke-width="0.21058" points="225.186,-103.545 214.669,-102.26 222.089,-109.823 225.186,-103.545"/>
</g>
<!-- 11243&#45;&gt;6507 -->
<g id="edge4" class="edge"><title>11243&#45;&gt;6507</title>
<path fill="none" stroke="red" stroke-width="0.500217" d="M165.608,-514.236C157.842,-502.697 148.299,-488.516 140.014,-476.205"/>
<polygon fill="red" stroke="red" stroke-width="0.500217" points="142.734,-473.978 134.247,-467.636 136.926,-477.886 142.734,-473.978"/>
</g>
<!-- 2831&#45;&gt;1 -->
<g id="edge8" class="edge"><title>2831&#45;&gt;1</title>
<path fill="none" stroke="red" stroke-width="0.783152" d="M177.297,-70.4939C168.333,-59.4975 157.081,-45.6958 148.128,-34.7144"/>
<polygon fill="red" stroke="red" stroke-width="0.783152" points="150.838,-32.499 141.806,-26.9598 145.412,-36.9221 150.838,-32.499"/>
</g>
<!-- 10705&#45;&gt;6507 -->
<g id="edge6" class="edge"><title>10705&#45;&gt;6507</title>
<path fill="none" stroke="green" stroke-width="0.484577" d="M232.206,-520.489C227.483,-517.022 222.479,-513.423 217.749,-510.156 195.399,-494.72 169.526,-478.088 150.124,-465.854"/>
<polygon fill="green" stroke="green" stroke-width="0.484577" points="151.763,-462.75 141.433,-460.394 148.039,-468.677 151.763,-462.75"/>
</g>
<!-- 2197&#45;&gt;1 -->
<g id="edge19" class="edge"><title>2197&#45;&gt;1</title>
<path fill="none" stroke="green" stroke-width="0.794347" d="M93.9518,-69.7243C101.522,-59.2125 110.812,-46.3122 118.403,-35.7706"/>
<polygon fill="green" stroke="green" stroke-width="0.794347" points="121.301,-37.7348 124.305,-27.5746 115.621,-33.6442 121.301,-37.7348"/>
</g>
<!-- 4505&#45;&gt;2831 -->
<g id="edge28" class="edge"><title>4505&#45;&gt;2831</title>
<path fill="none" stroke="red" stroke-width="1.28562" d="M206.391,-333.196C203.714,-285.752 197.746,-180.008 194.668,-125.454"/>
<polygon fill="red" stroke="red" stroke-width="1.28562" points="198.15,-125.046 194.092,-115.259 191.162,-125.44 198.15,-125.046"/>
</g>
<!-- 6074&#45;&gt;2831 -->
<g id="edge1" class="edge"><title>6074&#45;&gt;2831</title>
<path fill="none" stroke="red" stroke-width="0.429027" d="M259.75,-160.304C247.454,-147.667 230.662,-130.41 216.965,-116.334"/>
<polygon fill="red" stroke="red" stroke-width="0.429027" points="219.204,-113.617 209.722,-108.891 214.188,-118.498 219.204,-113.617"/>
</g>
<!-- 5851&#45;&gt;11577 -->
<g id="edge24" class="edge"><title>5851&#45;&gt;11577</title>
<path fill="none" stroke="green" stroke-width="0.301338" d="M279.403,-335.47C274.935,-326.062 269.606,-314.842 264.654,-304.416"/>
<polygon fill="green" stroke="green" stroke-width="0.301338" points="267.7,-302.67 260.248,-295.139 261.377,-305.674 267.7,-302.67"/>
</g>
<!-- 5851&#45;&gt;6074 -->
<g id="edge16" class="edge"><title>5851&#45;&gt;6074</title>
<path fill="none" stroke="red" stroke-width="0.240477" d="M289.669,-333.44C289.414,-310.17 288.546,-273.764 285.749,-242.35 284.914,-232.977 283.629,-222.864 282.289,-213.557"/>
<polygon fill="red" stroke="red" stroke-width="0.240477" points="285.721,-212.843 280.773,-203.475 278.799,-213.884 285.721,-212.843"/>
</g>
</g>
</svg>
