<?xml version="1.0" encoding="UTF-8" standalone="no"?>
<!DOCTYPE svg PUBLIC "-//W3C//DTD SVG 1.1//EN"
 "http://www.w3.org/Graphics/SVG/1.1/DTD/svg11.dtd">
<!-- Generated by graphviz version 2.38.0 (20140413.2041)
 -->
<!-- Title: %3 Pages: 1 -->
<svg width="1269pt" height="633pt"
 viewBox="0.00 0.00 1268.70 633.35" xmlns="http://www.w3.org/2000/svg" xmlns:xlink="http://www.w3.org/1999/xlink">
<g id="graph0" class="graph" transform="scale(1 1) rotate(0) translate(4 629.352)">
<title>%3</title>
<polygon fill="white" stroke="none" points="-4,4 -4,-629.352 1264.7,-629.352 1264.7,4 -4,4"/>
<!-- &#45;1 -->
<g id="node1" class="node"><title>&#45;1</title>
<polygon fill="lightgray" stroke="black" points="280.849,-543.905 256.849,-543.905 256.849,-525.905 280.849,-525.905 280.849,-543.905"/>
<text text-anchor="middle" x="268.849" y="-532.705" font-family="Times,serif" font-size="9.00">&#45;1</text>
</g>
<!-- 9931 -->
<g id="node33" class="node"><title>9931</title>
<ellipse fill="white" stroke="black" cx="295.849" cy="-446.579" rx="25" ry="25"/>
<text text-anchor="middle" x="295.849" y="-444.379" font-family="Times,serif" font-size="9.00">9931</text>
</g>
<!-- &#45;1&#45;&gt;9931 -->
<g id="edge13" class="edge"><title>&#45;1&#45;&gt;9931</title>
<path fill="none" stroke="green" stroke-width="0.303516" d="M271.438,-525.628C274.695,-515.214 280.484,-496.706 285.607,-480.327"/>
<polygon fill="green" stroke="green" stroke-width="0.303516" points="289.037,-481.084 288.682,-470.495 282.356,-478.994 289.037,-481.084"/>
</g>
<!-- 6507 -->
<g id="node34" class="node"><title>6507</title>
<ellipse fill="white" stroke="black" cx="223.849" cy="-358.253" rx="25" ry="25"/>
<text text-anchor="middle" x="223.849" y="-356.053" font-family="Times,serif" font-size="9.00">6507</text>
</g>
<!-- &#45;1&#45;&gt;6507 -->
<g id="edge30" class="edge"><title>&#45;1&#45;&gt;6507</title>
<path fill="none" stroke="red" stroke-width="1.34528" d="M266.679,-525.481C260.577,-501.8 243.024,-433.675 232.378,-392.355"/>
<polygon fill="red" stroke="red" stroke-width="1.34528" points="235.716,-391.282 229.831,-382.471 228.937,-393.028 235.716,-391.282"/>
</g>
<!-- &#45;2 -->
<g id="node2" class="node"><title>&#45;2</title>
<polygon fill="lightgray" stroke="black" points="516.849,-619.503 492.849,-619.503 492.849,-601.503 516.849,-601.503 516.849,-619.503"/>
<text text-anchor="middle" x="504.849" y="-608.303" font-family="Times,serif" font-size="9.00">&#45;2</text>
</g>
<!-- &#45;3 -->
<g id="node3" class="node"><title>&#45;3</title>
<polygon fill="lightgray" stroke="black" points="689.849,-455.579 665.849,-455.579 665.849,-437.579 689.849,-437.579 689.849,-455.579"/>
<text text-anchor="middle" x="677.849" y="-444.379" font-family="Times,serif" font-size="9.00">&#45;3</text>
</g>
<!-- 2197 -->
<g id="node39" class="node"><title>2197</title>
<ellipse fill="white" stroke="black" cx="677.849" cy="-358.253" rx="25" ry="25"/>
<text text-anchor="middle" x="677.849" y="-356.053" font-family="Times,serif" font-size="9.00">2197</text>
</g>
<!-- &#45;3&#45;&gt;2197 -->
<g id="edge35" class="edge"><title>&#45;3&#45;&gt;2197</title>
<path fill="none" stroke="green" stroke-width="0.653365" d="M677.849,-437.302C677.849,-427.194 677.849,-409.461 677.849,-393.45"/>
<polygon fill="green" stroke="green" stroke-width="0.653365" points="681.349,-393.275 677.849,-383.275 674.349,-393.275 681.349,-393.275"/>
</g>
<!-- &#45;4 -->
<g id="node4" class="node"><title>&#45;4</title>
<polygon fill="lightgray" stroke="black" points="558.849,-619.503 534.849,-619.503 534.849,-601.503 558.849,-601.503 558.849,-619.503"/>
<text text-anchor="middle" x="546.849" y="-608.303" font-family="Times,serif" font-size="9.00">&#45;4</text>
</g>
<!-- &#45;5 -->
<g id="node5" class="node"><title>&#45;5</title>
<polygon fill="lightgray" stroke="black" points="26.8492,-543.905 2.84924,-543.905 2.84924,-525.905 26.8492,-525.905 26.8492,-543.905"/>
<text text-anchor="middle" x="14.8492" y="-532.705" font-family="Times,serif" font-size="9.00">&#45;5</text>
</g>
<!-- 2 -->
<g id="node27" class="node"><title>2</title>
<ellipse fill="lightblue" stroke="black" cx="14.8492" cy="-446.579" rx="14.7" ry="14.7"/>
<text text-anchor="middle" x="14.8492" y="-444.379" font-family="Times,serif" font-size="9.00">2</text>
</g>
<!-- &#45;5&#45;&gt;2 -->
<g id="edge2" class="edge"><title>&#45;5&#45;&gt;2</title>
<path fill="none" stroke="red" stroke-width="0.865894" d="M14.8492,-525.628C14.8492,-513.339 14.8492,-489.78 14.8492,-471.747"/>
<polygon fill="red" stroke="red" stroke-width="0.865894" points="18.3493,-471.64 14.8492,-461.64 11.3493,-471.64 18.3493,-471.64"/>
</g>
<!-- &#45;6 -->
<g id="node6" class="node"><title>&#45;6</title>
<polygon fill="lightgray" stroke="black" points="600.849,-619.503 576.849,-619.503 576.849,-601.503 600.849,-601.503 600.849,-619.503"/>
<text text-anchor="middle" x="588.849" y="-608.303" font-family="Times,serif" font-size="9.00">&#45;6</text>
</g>
<!-- &#45;7 -->
<g id="node7" class="node"><title>&#45;7</title>
<polygon fill="lightgray" stroke="black" points="362.849,-455.579 338.849,-455.579 338.849,-437.579 362.849,-437.579 362.849,-455.579"/>
<text text-anchor="middle" x="350.849" y="-444.379" font-family="Times,serif" font-size="9.00">&#45;7</text>
</g>
<!-- &#45;7&#45;&gt;6507 -->
<g id="edge4" class="edge"><title>&#45;7&#45;&gt;6507</title>
<path fill="none" stroke="green" stroke-width="1.15035" stroke-dasharray="1,5" d="M345.708,-437.411C341.848,-431.743 336.159,-424.291 329.849,-419.002 303.942,-397.288 292.185,-399.799 262.849,-383.002 259.799,-381.255 256.635,-379.401 253.488,-377.529"/>
<polygon fill="green" stroke="green" stroke-width="1.15035" points="255.147,-374.443 244.775,-372.281 251.535,-380.439 255.147,-374.443"/>
</g>
<!-- 2831 -->
<g id="node37" class="node"><title>2831</title>
<ellipse fill="white" stroke="black" cx="448.849" cy="-90.4472" rx="25" ry="25"/>
<text text-anchor="middle" x="448.849" y="-88.2472" font-family="Times,serif" font-size="9.00">2831</text>
</g>
<!-- &#45;7&#45;&gt;2831 -->
<g id="edge16" class="edge"><title>&#45;7&#45;&gt;2831</title>
<path fill="none" stroke="green" stroke-width="0.846549" d="M348.133,-437.26C339.397,-409.212 313.735,-315.768 333.849,-242.35 348.408,-189.21 393.04,-141.087 422.229,-114.113"/>
<polygon fill="green" stroke="green" stroke-width="0.846549" points="424.941,-116.38 430.014,-107.079 420.248,-111.186 424.941,-116.38"/>
</g>
<!-- 4505 -->
<g id="node40" class="node"><title>4505</title>
<ellipse fill="white" stroke="black" cx="261.849" cy="-269.927" rx="25" ry="25"/>
<text text-anchor="middle" x="261.849" y="-267.727" font-family="Times,serif" font-size="9.00">4505</text>
</g>
<!-- &#45;7&#45;&gt;4505 -->
<g id="edge29" class="edge"><title>&#45;7&#45;&gt;4505</title>
<path fill="none" stroke="red" stroke-width="0.438625" d="M344.249,-437.184C340.122,-431.946 334.69,-425.07 329.849,-419.002 317.036,-402.942 310.816,-400.968 300.849,-383.002 286.92,-357.893 276.598,-326.905 270.084,-303.881"/>
<polygon fill="red" stroke="red" stroke-width="0.438625" points="273.458,-302.95 267.443,-294.228 266.706,-304.797 273.458,-302.95"/>
</g>
<!-- 5851 -->
<g id="node42" class="node"><title>5851</title>
<ellipse fill="white" stroke="black" cx="468.849" cy="-358.253" rx="25" ry="25"/>
<text text-anchor="middle" x="468.849" y="-356.053" font-family="Times,serif" font-size="9.00">5851</text>
</g>
<!-- &#45;7&#45;&gt;5851 -->
<g id="edge33" class="edge"><title>&#45;7&#45;&gt;5851</title>
<path fill="none" stroke="green" stroke-width="0.313345" d="M356.088,-437.525C359.994,-431.91 365.698,-424.474 371.849,-419.002 391.877,-401.184 417.887,-385.485 437.931,-374.656"/>
<polygon fill="green" stroke="green" stroke-width="0.313345" points="439.75,-377.654 446.958,-369.888 436.481,-371.464 439.75,-377.654"/>
</g>
<!-- &#45;8 -->
<g id="node8" class="node"><title>&#45;8</title>
<polygon fill="lightgray" stroke="black" points="563.849,-455.579 539.849,-455.579 539.849,-437.579 563.849,-437.579 563.849,-455.579"/>
<text text-anchor="middle" x="551.849" y="-444.379" font-family="Times,serif" font-size="9.00">&#45;8</text>
</g>
<!-- 1 -->
<g id="node26" class="node"><title>1</title>
<ellipse fill="lightblue" stroke="black" cx="624.849" cy="-14.8492" rx="14.7" ry="14.7"/>
<text text-anchor="middle" x="624.849" y="-12.6492" font-family="Times,serif" font-size="9.00">1</text>
</g>
<!-- &#45;8&#45;&gt;1 -->
<g id="edge17" class="edge"><title>&#45;8&#45;&gt;1</title>
<path fill="none" stroke="green" stroke-width="1.19107" d="M558.073,-437.373C575.727,-413.255 624.849,-339.941 624.849,-270.927 624.849,-270.927 624.849,-270.927 624.849,-177.773 624.849,-128.737 624.849,-71.3472 624.849,-39.7545"/>
<polygon fill="green" stroke="green" stroke-width="1.19107" points="628.349,-39.7116 624.849,-29.7116 621.349,-39.7117 628.349,-39.7116"/>
</g>
<!-- &#45;8&#45;&gt;6507 -->
<g id="edge21" class="edge"><title>&#45;8&#45;&gt;6507</title>
<path fill="none" stroke="green" stroke-width="0.356768" stroke-dasharray="1,5" d="M539.72,-439.353C527.795,-433.437 508.946,-424.633 491.849,-419.002 409.884,-392.006 309.828,-373.313 258.253,-364.679"/>
<polygon fill="green" stroke="green" stroke-width="0.356768" points="258.742,-361.213 248.305,-363.039 257.602,-368.119 258.742,-361.213"/>
</g>
<!-- &#45;8&#45;&gt;2197 -->
<g id="edge20" class="edge"><title>&#45;8&#45;&gt;2197</title>
<path fill="none" stroke="green" stroke-width="0.310267" d="M563.931,-437.302C583.495,-423.898 622.627,-397.088 649.519,-378.663"/>
<polygon fill="green" stroke="green" stroke-width="0.310267" points="651.508,-381.543 657.78,-373.004 647.552,-375.768 651.508,-381.543"/>
</g>
<!-- &#45;8&#45;&gt;4505 -->
<g id="edge22" class="edge"><title>&#45;8&#45;&gt;4505</title>
<path fill="none" stroke="red" stroke-width="0.195855" stroke-dasharray="1,5" d="M550.806,-437.284C547.711,-416.336 536.583,-361.022 502.849,-333.505 443.341,-284.962 407.618,-318.857 333.849,-297.505 320.619,-293.675 306.335,-288.605 294.004,-283.921"/>
<polygon fill="red" stroke="red" stroke-width="0.195855" points="295.181,-280.623 284.591,-280.278 292.654,-287.151 295.181,-280.623"/>
</g>
<!-- &#45;8&#45;&gt;5851 -->
<g id="edge9" class="edge"><title>&#45;8&#45;&gt;5851</title>
<path fill="none" stroke="red" stroke-width="0.557509" stroke-dasharray="1,5" d="M543.891,-437.302C532.246,-425.19 510.077,-402.133 492.841,-384.207"/>
<polygon fill="red" stroke="red" stroke-width="0.557509" points="495.256,-381.668 485.802,-376.885 490.21,-386.52 495.256,-381.668"/>
</g>
<!-- &#45;9 -->
<g id="node9" class="node"><title>&#45;9</title>
<polygon fill="lightgray" stroke="black" points="440.849,-278.927 416.849,-278.927 416.849,-260.927 440.849,-260.927 440.849,-278.927"/>
<text text-anchor="middle" x="428.849" y="-267.727" font-family="Times,serif" font-size="9.00">&#45;9</text>
</g>
<!-- 6074 -->
<g id="node41" class="node"><title>6074</title>
<ellipse fill="white" stroke="black" cx="421.849" cy="-178.773" rx="25" ry="25"/>
<text text-anchor="middle" x="421.849" y="-176.573" font-family="Times,serif" font-size="9.00">6074</text>
</g>
<!-- &#45;9&#45;&gt;6074 -->
<g id="edge15" class="edge"><title>&#45;9&#45;&gt;6074</title>
<path fill="none" stroke="red" stroke-width="0.400336" d="M428.203,-260.7C427.368,-250.062 425.862,-230.878 424.525,-213.858"/>
<polygon fill="red" stroke="red" stroke-width="0.400336" points="427.995,-213.331 423.723,-203.636 421.016,-213.879 427.995,-213.331"/>
</g>
<!-- &#45;10 -->
<g id="node10" class="node"><title>&#45;10</title>
<polygon fill="lightgray" stroke="black" points="648.349,-619.503 619.349,-619.503 619.349,-601.503 648.349,-601.503 648.349,-619.503"/>
<text text-anchor="middle" x="633.849" y="-608.303" font-family="Times,serif" font-size="9.00">&#45;10</text>
</g>
<!-- &#45;11 -->
<g id="node11" class="node"><title>&#45;11</title>
<polygon fill="lightgray" stroke="black" points="695.349,-619.503 666.349,-619.503 666.349,-601.503 695.349,-601.503 695.349,-619.503"/>
<text text-anchor="middle" x="680.849" y="-608.303" font-family="Times,serif" font-size="9.00">&#45;11</text>
</g>
<!-- &#45;12 -->
<g id="node12" class="node"><title>&#45;12</title>
<polygon fill="lightgray" stroke="black" points="742.349,-619.503 713.349,-619.503 713.349,-601.503 742.349,-601.503 742.349,-619.503"/>
<text text-anchor="middle" x="727.849" y="-608.303" font-family="Times,serif" font-size="9.00">&#45;12</text>
</g>
<!-- &#45;13 -->
<g id="node13" class="node"><title>&#45;13</title>
<polygon fill="lightgray" stroke="black" points="789.349,-619.503 760.349,-619.503 760.349,-601.503 789.349,-601.503 789.349,-619.503"/>
<text text-anchor="middle" x="774.849" y="-608.303" font-family="Times,serif" font-size="9.00">&#45;13</text>
</g>
<!-- &#45;14 -->
<g id="node14" class="node"><title>&#45;14</title>
<polygon fill="lightgray" stroke="black" points="577.349,-278.927 548.349,-278.927 548.349,-260.927 577.349,-260.927 577.349,-278.927"/>
<text text-anchor="middle" x="562.849" y="-267.727" font-family="Times,serif" font-size="9.00">&#45;14</text>
</g>
<!-- 10861 -->
<g id="node35" class="node"><title>10861</title>
<ellipse fill="white" stroke="black" cx="568.849" cy="-178.773" rx="27.6545" ry="27.6545"/>
<text text-anchor="middle" x="568.849" y="-176.573" font-family="Times,serif" font-size="9.00">10861</text>
</g>
<!-- &#45;14&#45;&gt;10861 -->
<g id="edge3" class="edge"><title>&#45;14&#45;&gt;10861</title>
<path fill="none" stroke="green" stroke-width="0.593731" d="M563.403,-260.7C564.079,-250.657 565.267,-232.999 566.362,-216.734"/>
<polygon fill="green" stroke="green" stroke-width="0.593731" points="569.882,-216.554 567.061,-206.341 562.898,-216.084 569.882,-216.554"/>
</g>
<!-- &#45;14&#45;&gt;2831 -->
<g id="edge26" class="edge"><title>&#45;14&#45;&gt;2831</title>
<path fill="none" stroke="red" stroke-width="0.21702" stroke-dasharray="1,5" d="M557.904,-260.883C546.121,-241.757 515.392,-192.106 488.849,-151.196 482.123,-140.829 474.617,-129.544 467.94,-119.603"/>
<polygon fill="red" stroke="red" stroke-width="0.21702" points="470.816,-117.607 462.327,-111.269 465.01,-121.518 470.816,-117.607"/>
</g>
<!-- &#45;15 -->
<g id="node15" class="node"><title>&#45;15</title>
<polygon fill="lightgray" stroke="black" points="836.349,-619.503 807.349,-619.503 807.349,-601.503 836.349,-601.503 836.349,-619.503"/>
<text text-anchor="middle" x="821.849" y="-608.303" font-family="Times,serif" font-size="9.00">&#45;15</text>
</g>
<!-- &#45;16 -->
<g id="node16" class="node"><title>&#45;16</title>
<polygon fill="lightgray" stroke="black" points="483.349,-455.579 454.349,-455.579 454.349,-437.579 483.349,-437.579 483.349,-455.579"/>
<text text-anchor="middle" x="468.849" y="-444.379" font-family="Times,serif" font-size="9.00">&#45;16</text>
</g>
<!-- &#45;16&#45;&gt;5851 -->
<g id="edge14" class="edge"><title>&#45;16&#45;&gt;5851</title>
<path fill="none" stroke="green" stroke-width="1.32046" d="M468.849,-437.302C468.849,-427.194 468.849,-409.461 468.849,-393.45"/>
<polygon fill="green" stroke="green" stroke-width="1.32046" points="472.349,-393.275 468.849,-383.275 465.349,-393.275 472.349,-393.275"/>
</g>
<!-- &#45;17 -->
<g id="node17" class="node"><title>&#45;17</title>
<polygon fill="lightgray" stroke="black" points="883.349,-619.503 854.349,-619.503 854.349,-601.503 883.349,-601.503 883.349,-619.503"/>
<text text-anchor="middle" x="868.849" y="-608.303" font-family="Times,serif" font-size="9.00">&#45;17</text>
</g>
<!-- &#45;18 -->
<g id="node18" class="node"><title>&#45;18</title>
<polygon fill="lightgray" stroke="black" points="930.349,-619.503 901.349,-619.503 901.349,-601.503 930.349,-601.503 930.349,-619.503"/>
<text text-anchor="middle" x="915.849" y="-608.303" font-family="Times,serif" font-size="9.00">&#45;18</text>
</g>
<!-- &#45;19 -->
<g id="node19" class="node"><title>&#45;19</title>
<polygon fill="lightgray" stroke="black" points="977.349,-619.503 948.349,-619.503 948.349,-601.503 977.349,-601.503 977.349,-619.503"/>
<text text-anchor="middle" x="962.849" y="-608.303" font-family="Times,serif" font-size="9.00">&#45;19</text>
</g>
<!-- &#45;20 -->
<g id="node20" class="node"><title>&#45;20</title>
<polygon fill="lightgray" stroke="black" points="474.349,-619.503 445.349,-619.503 445.349,-601.503 474.349,-601.503 474.349,-619.503"/>
<text text-anchor="middle" x="459.849" y="-608.303" font-family="Times,serif" font-size="9.00">&#45;20</text>
</g>
<!-- 9704 -->
<g id="node31" class="node"><title>9704</title>
<ellipse fill="white" stroke="black" cx="459.849" cy="-534.905" rx="25" ry="25"/>
<text text-anchor="middle" x="459.849" y="-532.705" font-family="Times,serif" font-size="9.00">9704</text>
</g>
<!-- &#45;20&#45;&gt;9704 -->
<g id="edge39" class="edge"><title>&#45;20&#45;&gt;9704</title>
<path fill="none" stroke="green" stroke-width="0.691722" d="M459.849,-601.346C459.849,-593.646 459.849,-581.568 459.849,-569.873"/>
<polygon fill="green" stroke="green" stroke-width="0.691722" points="463.349,-569.815 459.849,-559.815 456.349,-569.815 463.349,-569.815"/>
</g>
<!-- &#45;21 -->
<g id="node21" class="node"><title>&#45;21</title>
<polygon fill="lightgray" stroke="black" points="1024.35,-619.503 995.349,-619.503 995.349,-601.503 1024.35,-601.503 1024.35,-619.503"/>
<text text-anchor="middle" x="1009.85" y="-608.303" font-family="Times,serif" font-size="9.00">&#45;21</text>
</g>
<!-- &#45;22 -->
<g id="node22" class="node"><title>&#45;22</title>
<polygon fill="lightgray" stroke="black" points="1071.35,-619.503 1042.35,-619.503 1042.35,-601.503 1071.35,-601.503 1071.35,-619.503"/>
<text text-anchor="middle" x="1056.85" y="-608.303" font-family="Times,serif" font-size="9.00">&#45;22</text>
</g>
<!-- &#45;23 -->
<g id="node23" class="node"><title>&#45;23</title>
<polygon fill="lightgray" stroke="black" points="1118.35,-619.503 1089.35,-619.503 1089.35,-601.503 1118.35,-601.503 1118.35,-619.503"/>
<text text-anchor="middle" x="1103.85" y="-608.303" font-family="Times,serif" font-size="9.00">&#45;23</text>
</g>
<!-- &#45;24 -->
<g id="node24" class="node"><title>&#45;24</title>
<polygon fill="lightgray" stroke="black" points="1165.35,-619.503 1136.35,-619.503 1136.35,-601.503 1165.35,-601.503 1165.35,-619.503"/>
<text text-anchor="middle" x="1150.85" y="-608.303" font-family="Times,serif" font-size="9.00">&#45;24</text>
</g>
<!-- 0 -->
<g id="node25" class="node"><title>0</title>
<ellipse fill="lightblue" stroke="black" cx="1197.85" cy="-610.503" rx="14.7" ry="14.7"/>
<text text-anchor="middle" x="1197.85" y="-608.303" font-family="Times,serif" font-size="9.00">0</text>
</g>
<!-- 2&#45;&gt;6507 -->
<g id="edge11" class="edge"><title>2&#45;&gt;6507</title>
<path fill="none" stroke="green" stroke-width="1.17067" d="M24.4633,-434.826C29.7426,-429.456 36.6655,-423.222 43.8492,-419.002 90.6893,-391.484 151.919,-374.619 189.535,-366.105"/>
<polygon fill="green" stroke="green" stroke-width="1.17067" points="190.468,-369.484 199.487,-363.923 188.969,-362.646 190.468,-369.484"/>
</g>
<!-- 2&#45;&gt;2831 -->
<g id="edge37" class="edge"><title>2&#45;&gt;2831</title>
<path fill="none" stroke="red" stroke-width="0.157693" stroke-dasharray="1,5" d="M21.8931,-433.455C48.3504,-388.965 146.547,-233.031 268.849,-151.196 314.124,-120.901 376.059,-104.809 414.211,-97.2146"/>
<polygon fill="red" stroke="red" stroke-width="0.157693" points="415.138,-100.601 424.307,-95.2932 413.829,-93.7245 415.138,-100.601"/>
</g>
<!-- 3 -->
<g id="node28" class="node"><title>3</title>
<ellipse fill="lightblue" stroke="black" cx="1245.85" cy="-610.503" rx="14.7" ry="14.7"/>
<text text-anchor="middle" x="1245.85" y="-608.303" font-family="Times,serif" font-size="9.00">3</text>
</g>
<!-- 7718 -->
<g id="node29" class="node"><title>7718</title>
<ellipse fill="white" stroke="black" cx="113.849" cy="-534.905" rx="25" ry="25"/>
<text text-anchor="middle" x="113.849" y="-532.705" font-family="Times,serif" font-size="9.00">7718</text>
</g>
<!-- 7718&#45;&gt;6507 -->
<g id="edge7" class="edge"><title>7718&#45;&gt;6507</title>
<path fill="none" stroke="green" stroke-width="0.278608" stroke-dasharray="1,5" d="M98.3196,-514.988C80.6203,-490.98 56.6065,-449.081 76.8492,-419.002 101.73,-382.031 153.863,-367.926 188.872,-362.552"/>
<polygon fill="green" stroke="green" stroke-width="0.278608" points="189.704,-365.971 199.138,-361.149 188.756,-359.036 189.704,-365.971"/>
</g>
<!-- 11243 -->
<g id="node36" class="node"><title>11243</title>
<ellipse fill="white" stroke="black" cx="113.849" cy="-446.579" rx="27.6545" ry="27.6545"/>
<text text-anchor="middle" x="113.849" y="-444.379" font-family="Times,serif" font-size="9.00">11243</text>
</g>
<!-- 7718&#45;&gt;11243 -->
<g id="edge31" class="edge"><title>7718&#45;&gt;11243</title>
<path fill="none" stroke="red" stroke-width="1.02532" d="M113.849,-509.859C113.849,-501.985 113.849,-493.047 113.849,-484.45"/>
<polygon fill="red" stroke="red" stroke-width="1.02532" points="117.349,-484.227 113.849,-474.227 110.349,-484.227 117.349,-484.227"/>
</g>
<!-- 10705 -->
<g id="node38" class="node"><title>10705</title>
<ellipse fill="white" stroke="black" cx="186.849" cy="-446.579" rx="27.6545" ry="27.6545"/>
<text text-anchor="middle" x="186.849" y="-444.379" font-family="Times,serif" font-size="9.00">10705</text>
</g>
<!-- 7718&#45;&gt;10705 -->
<g id="edge38" class="edge"><title>7718&#45;&gt;10705</title>
<path fill="none" stroke="red" stroke-width="0.674825" d="M129.689,-515.174C139.412,-503.675 152.052,-488.728 162.973,-475.814"/>
<polygon fill="red" stroke="red" stroke-width="0.674825" points="165.724,-477.981 169.509,-468.085 160.379,-473.461 165.724,-477.981"/>
</g>
<!-- 11577 -->
<g id="node30" class="node"><title>11577</title>
<ellipse fill="white" stroke="black" cx="370.849" cy="-269.927" rx="27.6545" ry="27.6545"/>
<text text-anchor="middle" x="370.849" y="-267.727" font-family="Times,serif" font-size="9.00">11577</text>
</g>
<!-- 11577&#45;&gt;6074 -->
<g id="edge34" class="edge"><title>11577&#45;&gt;6074</title>
<path fill="none" stroke="green" stroke-width="0.414764" d="M384.249,-245.503C390.536,-234.512 398.102,-221.287 404.793,-209.59"/>
<polygon fill="green" stroke="green" stroke-width="0.414764" points="408.003,-211.027 409.93,-200.609 401.927,-207.551 408.003,-211.027"/>
</g>
<!-- 10472 -->
<g id="node32" class="node"><title>10472</title>
<ellipse fill="white" stroke="black" cx="408.849" cy="-446.579" rx="27.6545" ry="27.6545"/>
<text text-anchor="middle" x="408.849" y="-444.379" font-family="Times,serif" font-size="9.00">10472</text>
</g>
<!-- 9704&#45;&gt;10472 -->
<g id="edge6" class="edge"><title>9704&#45;&gt;10472</title>
<path fill="none" stroke="green" stroke-width="0.344737" d="M447.504,-513.008C441.549,-502.928 434.276,-490.618 427.652,-479.406"/>
<polygon fill="green" stroke="green" stroke-width="0.344737" points="430.616,-477.542 422.516,-470.713 424.589,-481.103 430.616,-477.542"/>
</g>
<!-- 9704&#45;&gt;5851 -->
<g id="edge25" class="edge"><title>9704&#45;&gt;5851</title>
<path fill="none" stroke="red" stroke-width="0.129255" d="M473.599,-514.188C480.556,-503.003 488.269,-488.423 491.849,-474.156 497.815,-450.38 496.328,-443.103 491.849,-419.002 490.06,-409.372 486.777,-399.292 483.241,-390.212"/>
<polygon fill="red" stroke="red" stroke-width="0.129255" points="486.415,-388.729 479.363,-380.822 479.945,-391.401 486.415,-388.729"/>
</g>
<!-- 10472&#45;&gt;5851 -->
<g id="edge18" class="edge"><title>10472&#45;&gt;5851</title>
<path fill="none" stroke="green" stroke-width="0.363478" d="M424.301,-423.348C431.882,-412.44 441.099,-399.18 449.178,-387.556"/>
<polygon fill="green" stroke="green" stroke-width="0.363478" points="452.254,-389.262 455.088,-379.053 446.506,-385.267 452.254,-389.262"/>
</g>
<!-- 9931&#45;&gt;6507 -->
<g id="edge24" class="edge"><title>9931&#45;&gt;6507</title>
<path fill="none" stroke="red" stroke-width="0.168125" d="M280.226,-426.848C270.225,-414.857 257.096,-399.115 246.023,-385.84"/>
<polygon fill="red" stroke="red" stroke-width="0.168125" points="248.535,-383.386 239.442,-377.948 243.159,-387.87 248.535,-383.386"/>
</g>
<!-- 6507&#45;&gt;4505 -->
<g id="edge19" class="edge"><title>6507&#45;&gt;4505</title>
<path fill="none" stroke="red" stroke-width="0.147742" stroke-dasharray="1,5" d="M233.635,-335.022C238.057,-324.976 243.358,-312.934 248.165,-302.014"/>
<polygon fill="red" stroke="red" stroke-width="0.147742" points="251.402,-303.347 252.228,-292.784 244.996,-300.527 251.402,-303.347"/>
</g>
<!-- 10861&#45;&gt;2831 -->
<g id="edge28" class="edge"><title>10861&#45;&gt;2831</title>
<path fill="none" stroke="red" stroke-width="0.21058" d="M546.839,-161.94C527.215,-147.822 498.379,-127.078 477.065,-111.745"/>
<polygon fill="red" stroke="red" stroke-width="0.21058" points="478.89,-108.746 468.728,-105.748 474.802,-114.429 478.89,-108.746"/>
</g>
<!-- 11243&#45;&gt;6507 -->
<g id="edge5" class="edge"><title>11243&#45;&gt;6507</title>
<path fill="none" stroke="red" stroke-width="0.500217" d="M135.058,-428.935C152.57,-415.192 177.543,-395.594 196.546,-380.68"/>
<polygon fill="red" stroke="red" stroke-width="0.500217" points="198.841,-383.328 204.547,-374.401 194.52,-377.822 198.841,-383.328"/>
</g>
<!-- 2831&#45;&gt;1 -->
<g id="edge12" class="edge"><title>2831&#45;&gt;1</title>
<path fill="none" stroke="red" stroke-width="0.783152" d="M471.498,-79.9762C505.153,-65.9027 568.023,-39.6123 601.869,-25.4589"/>
<polygon fill="red" stroke="red" stroke-width="0.783152" points="603.501,-28.5702 611.376,-21.4832 600.8,-22.1121 603.501,-28.5702"/>
</g>
<!-- 10705&#45;&gt;6507 -->
<g id="edge10" class="edge"><title>10705&#45;&gt;6507</title>
<path fill="none" stroke="green" stroke-width="0.484577" d="M197.353,-421.073C201.433,-411.553 206.156,-400.535 210.474,-390.46"/>
<polygon fill="green" stroke="green" stroke-width="0.484577" points="213.733,-391.74 214.456,-381.17 207.299,-388.982 213.733,-391.74"/>
</g>
<!-- 2197&#45;&gt;1 -->
<g id="edge27" class="edge"><title>2197&#45;&gt;1</title>
<path fill="none" stroke="green" stroke-width="0.794347" d="M675.793,-333.253C671.249,-283.161 659.118,-163.979 638.849,-65.6985 637.036,-56.9083 634.508,-47.3921 632.098,-39.0532"/>
<polygon fill="green" stroke="green" stroke-width="0.794347" points="635.389,-37.8422 629.172,-29.2637 628.682,-39.8472 635.389,-37.8422"/>
</g>
<!-- 4505&#45;&gt;2831 -->
<g id="edge36" class="edge"><title>4505&#45;&gt;2831</title>
<path fill="none" stroke="red" stroke-width="1.28562" d="M263.853,-245.171C267.256,-219.027 276.394,-177.263 300.849,-151.196 330.958,-119.102 380.667,-103.834 414.071,-96.8663"/>
<polygon fill="red" stroke="red" stroke-width="1.28562" points="415.147,-100.223 424.298,-94.885 413.815,-93.3509 415.147,-100.223"/>
</g>
<!-- 6074&#45;&gt;2831 -->
<g id="edge1" class="edge"><title>6074&#45;&gt;2831</title>
<path fill="none" stroke="red" stroke-width="0.429027" d="M429.085,-154.639C432.014,-145.275 435.448,-134.295 438.625,-124.138"/>
<polygon fill="red" stroke="red" stroke-width="0.429027" points="442.043,-124.934 441.687,-114.345 435.362,-122.845 442.043,-124.934"/>
</g>
<!-- 5851&#45;&gt;11577 -->
<g id="edge32" class="edge"><title>5851&#45;&gt;11577</title>
<path fill="none" stroke="green" stroke-width="0.301338" d="M450.416,-341.016C435.931,-328.256 415.512,-310.27 398.986,-295.713"/>
<polygon fill="green" stroke="green" stroke-width="0.301338" points="401.047,-292.863 391.229,-288.88 396.42,-298.116 401.047,-292.863"/>
</g>
<!-- 5851&#45;&gt;2831 -->
<g id="edge8" class="edge"><title>5851&#45;&gt;2831</title>
<path fill="none" stroke="red" stroke-width="0.222556" stroke-dasharray="1,5" d="M469.34,-333.414C469.541,-322.473 469.75,-309.331 469.849,-297.505 470.054,-272.992 471.543,-266.805 469.849,-242.35 467.038,-201.75 460.02,-155.444 454.868,-124.956"/>
<polygon fill="red" stroke="red" stroke-width="0.222556" points="458.277,-124.129 453.133,-114.867 451.378,-125.315 458.277,-124.129"/>
</g>
<!-- 5851&#45;&gt;6074 -->
<g id="edge23" class="edge"><title>5851&#45;&gt;6074</title>
<path fill="none" stroke="red" stroke-width="0.240477" d="M466.723,-333.524C464.199,-310.004 459.113,-273.135 449.849,-242.35 446.6,-231.554 441.922,-220.18 437.317,-210.133"/>
<polygon fill="red" stroke="red" stroke-width="0.240477" points="440.42,-208.507 432.974,-200.97 434.094,-211.505 440.42,-208.507"/>
</g>
</g>
</svg>
