<?xml version="1.0" encoding="UTF-8" standalone="no"?>
<!DOCTYPE svg PUBLIC "-//W3C//DTD SVG 1.1//EN"
 "http://www.w3.org/Graphics/SVG/1.1/DTD/svg11.dtd">
<!-- Generated by graphviz version 2.38.0 (20140413.2041)
 -->
<!-- Title: %3 Pages: 1 -->
<svg width="976pt" height="282pt"
 viewBox="0.00 0.00 976.25 282.49" xmlns="http://www.w3.org/2000/svg" xmlns:xlink="http://www.w3.org/1999/xlink">
<g id="graph0" class="graph" transform="scale(1 1) rotate(0) translate(4 278.492)">
<title>%3</title>
<polygon fill="white" stroke="none" points="-4,4 -4,-278.492 972.249,-278.492 972.249,4 -4,4"/>
<!-- &#45;1 -->
<g id="node1" class="node"><title>&#45;1</title>
<polygon fill="lightgray" stroke="black" points="426.5,-119.246 402.5,-119.246 402.5,-101.246 426.5,-101.246 426.5,-119.246"/>
<text text-anchor="middle" x="414.5" y="-108.046" font-family="Times,serif" font-size="9.00">&#45;1</text>
</g>
<!-- 0 -->
<g id="node25" class="node"><title>0</title>
<ellipse fill="lightblue" stroke="black" cx="213.5" cy="-24.7487" rx="14.7" ry="14.7"/>
<text text-anchor="middle" x="213.5" y="-22.5487" font-family="Times,serif" font-size="9.00">0</text>
</g>
<!-- &#45;1&#45;&gt;0 -->
<g id="edge3" class="edge"><title>&#45;1&#45;&gt;0</title>
<path fill="none" stroke="red" stroke-width="0.296187" d="M409.1,-101.203C405.283,-96.0669 399.746,-89.6222 393.5,-85.4975 343.948,-52.7756 274.882,-36.5049 238.388,-29.7458"/>
<polygon fill="red" stroke="red" stroke-width="0.296187" points="238.62,-26.2331 228.165,-27.9459 237.407,-33.127 238.62,-26.2331"/>
</g>
<!-- 1 -->
<g id="node26" class="node"><title>1</title>
<ellipse fill="lightblue" stroke="black" cx="775.5" cy="-24.7487" rx="14.7" ry="14.7"/>
<text text-anchor="middle" x="775.5" y="-22.5487" font-family="Times,serif" font-size="9.00">1</text>
</g>
<!-- &#45;1&#45;&gt;1 -->
<g id="edge8" class="edge"><title>&#45;1&#45;&gt;1</title>
<path fill="none" stroke="green" stroke-width="0.238279" d="M420.046,-100.895C423.999,-95.6294 429.789,-89.1555 436.5,-85.4975 491.177,-55.6962 681.485,-34.82 750.367,-28.0868"/>
<polygon fill="green" stroke="green" stroke-width="0.238279" points="751.079,-31.5347 760.698,-27.0947 750.409,-24.5667 751.079,-31.5347"/>
</g>
<!-- 3 -->
<g id="node28" class="node"><title>3</title>
<ellipse fill="lightblue" stroke="black" cx="436.5" cy="-24.7487" rx="14.7" ry="14.7"/>
<text text-anchor="middle" x="436.5" y="-22.5487" font-family="Times,serif" font-size="9.00">3</text>
</g>
<!-- &#45;1&#45;&gt;3 -->
<g id="edge28" class="edge"><title>&#45;1&#45;&gt;3</title>
<path fill="none" stroke="green" stroke-width="0.368048" d="M416.609,-101.24C419.727,-89.4093 425.689,-66.7806 430.276,-49.3709"/>
<polygon fill="green" stroke="green" stroke-width="0.368048" points="433.753,-49.9102 432.917,-39.3484 426.984,-48.1266 433.753,-49.9102"/>
</g>
<!-- &#45;2 -->
<g id="node2" class="node"><title>&#45;2</title>
<polygon fill="lightgray" stroke="black" points="294.5,-119.246 270.5,-119.246 270.5,-101.246 294.5,-101.246 294.5,-119.246"/>
<text text-anchor="middle" x="282.5" y="-108.046" font-family="Times,serif" font-size="9.00">&#45;2</text>
</g>
<!-- &#45;2&#45;&gt;0 -->
<g id="edge7" class="edge"><title>&#45;2&#45;&gt;0</title>
<path fill="none" stroke="green" stroke-width="0.247319" d="M275.884,-101.24C265.217,-88.3315 243.926,-62.5678 229.206,-44.7546"/>
<polygon fill="green" stroke="green" stroke-width="0.247319" points="231.651,-42.2187 222.583,-36.7397 226.255,-46.6778 231.651,-42.2187"/>
</g>
<!-- &#45;2&#45;&gt;3 -->
<g id="edge32" class="edge"><title>&#45;2&#45;&gt;3</title>
<path fill="none" stroke="red" stroke-width="0.200608" d="M288.39,-100.959C292.249,-95.9834 297.649,-89.8039 303.5,-85.4975 337.847,-60.218 384.589,-42.3341 412.536,-33.0604"/>
<polygon fill="red" stroke="red" stroke-width="0.200608" points="413.815,-36.3258 422.262,-29.9303 411.67,-29.6624 413.815,-36.3258"/>
</g>
<!-- &#45;3 -->
<g id="node3" class="node"><title>&#45;3</title>
<polygon fill="lightgray" stroke="black" points="299.5,-274.492 275.5,-274.492 275.5,-256.492 299.5,-256.492 299.5,-274.492"/>
<text text-anchor="middle" x="287.5" y="-263.292" font-family="Times,serif" font-size="9.00">&#45;3</text>
</g>
<!-- &#45;4 -->
<g id="node4" class="node"><title>&#45;4</title>
<polygon fill="lightgray" stroke="black" points="341.5,-274.492 317.5,-274.492 317.5,-256.492 341.5,-256.492 341.5,-274.492"/>
<text text-anchor="middle" x="329.5" y="-263.292" font-family="Times,serif" font-size="9.00">&#45;4</text>
</g>
<!-- &#45;5 -->
<g id="node5" class="node"><title>&#45;5</title>
<polygon fill="lightgray" stroke="black" points="157.5,-119.246 133.5,-119.246 133.5,-101.246 157.5,-101.246 157.5,-119.246"/>
<text text-anchor="middle" x="145.5" y="-108.046" font-family="Times,serif" font-size="9.00">&#45;5</text>
</g>
<!-- &#45;5&#45;&gt;0 -->
<g id="edge21" class="edge"><title>&#45;5&#45;&gt;0</title>
<path fill="none" stroke="red" stroke-width="2.30295" d="M152.02,-101.24C162.533,-88.3315 183.515,-62.5678 198.022,-44.7546"/>
<polygon fill="red" stroke="red" stroke-width="2.30295" points="200.948,-46.7038 204.549,-36.7397 195.52,-42.2835 200.948,-46.7038"/>
</g>
<!-- &#45;6 -->
<g id="node6" class="node"><title>&#45;6</title>
<polygon fill="lightgray" stroke="black" points="610.5,-119.246 586.5,-119.246 586.5,-101.246 610.5,-101.246 610.5,-119.246"/>
<text text-anchor="middle" x="598.5" y="-108.046" font-family="Times,serif" font-size="9.00">&#45;6</text>
</g>
<!-- 2 -->
<g id="node27" class="node"><title>2</title>
<ellipse fill="lightblue" stroke="black" cx="529.5" cy="-24.7487" rx="14.7" ry="14.7"/>
<text text-anchor="middle" x="529.5" y="-22.5487" font-family="Times,serif" font-size="9.00">2</text>
</g>
<!-- &#45;6&#45;&gt;2 -->
<g id="edge5" class="edge"><title>&#45;6&#45;&gt;2</title>
<path fill="none" stroke="green" stroke-width="0.251828" d="M591.884,-101.24C581.217,-88.3315 559.926,-62.5678 545.206,-44.7546"/>
<polygon fill="green" stroke="green" stroke-width="0.251828" points="547.651,-42.2187 538.583,-36.7397 542.255,-46.6778 547.651,-42.2187"/>
</g>
<!-- &#45;7 -->
<g id="node7" class="node"><title>&#45;7</title>
<polygon fill="lightgray" stroke="black" points="955.5,-119.246 931.5,-119.246 931.5,-101.246 955.5,-101.246 955.5,-119.246"/>
<text text-anchor="middle" x="943.5" y="-108.046" font-family="Times,serif" font-size="9.00">&#45;7</text>
</g>
<!-- &#45;7&#45;&gt;1 -->
<g id="edge33" class="edge"><title>&#45;7&#45;&gt;1</title>
<path fill="none" stroke="red" stroke-width="0.493717" d="M937.664,-100.884C933.826,-95.8802 928.428,-89.6974 922.5,-85.4975 883.692,-58.0024 830.371,-40.4182 799.762,-31.8822"/>
<polygon fill="red" stroke="red" stroke-width="0.493717" points="800.51,-28.4589 789.944,-29.2388 798.69,-35.2182 800.51,-28.4589"/>
</g>
<!-- 3760 -->
<g id="node30" class="node"><title>3760</title>
<ellipse fill="white" stroke="black" cx="943.5" cy="-24.7487" rx="25" ry="25"/>
<text text-anchor="middle" x="943.5" y="-22.5487" font-family="Times,serif" font-size="9.00">3760</text>
</g>
<!-- &#45;7&#45;&gt;3760 -->
<g id="edge2" class="edge"><title>&#45;7&#45;&gt;3760</title>
<path fill="none" stroke="green" stroke-width="0.135377" d="M943.5,-101.24C943.5,-91.6887 943.5,-75.0995 943.5,-59.9004"/>
<polygon fill="green" stroke="green" stroke-width="0.135377" points="947,-59.7037 943.5,-49.7037 940,-59.7038 947,-59.7037"/>
</g>
<!-- &#45;8 -->
<g id="node8" class="node"><title>&#45;8</title>
<polygon fill="lightgray" stroke="black" points="383.5,-274.492 359.5,-274.492 359.5,-256.492 383.5,-256.492 383.5,-274.492"/>
<text text-anchor="middle" x="371.5" y="-263.292" font-family="Times,serif" font-size="9.00">&#45;8</text>
</g>
<!-- &#45;9 -->
<g id="node9" class="node"><title>&#45;9</title>
<polygon fill="lightgray" stroke="black" points="336.5,-119.246 312.5,-119.246 312.5,-101.246 336.5,-101.246 336.5,-119.246"/>
<text text-anchor="middle" x="324.5" y="-108.046" font-family="Times,serif" font-size="9.00">&#45;9</text>
</g>
<!-- &#45;9&#45;&gt;0 -->
<g id="edge25" class="edge"><title>&#45;9&#45;&gt;0</title>
<path fill="none" stroke="red" stroke-width="1.00137" d="M317.985,-100.841C314.063,-96.0609 308.813,-90.1237 303.5,-85.4975 281.841,-66.6383 253.892,-48.9629 234.926,-37.8029"/>
<polygon fill="red" stroke="red" stroke-width="1.00137" points="236.566,-34.7077 226.157,-32.73 233.061,-40.767 236.566,-34.7077"/>
</g>
<!-- &#45;9&#45;&gt;2 -->
<g id="edge4" class="edge"><title>&#45;9&#45;&gt;2</title>
<path fill="none" stroke="red" stroke-width="0.272683" d="M329.825,-101.086C333.611,-95.901 339.141,-89.4452 345.5,-85.4975 397.529,-53.2 420.976,-70.5001 478.5,-49.4975 488.232,-45.9441 498.656,-41.2579 507.527,-36.9877"/>
<polygon fill="red" stroke="red" stroke-width="0.272683" points="509.347,-39.9925 516.763,-32.426 506.247,-33.7162 509.347,-39.9925"/>
</g>
<!-- &#45;10 -->
<g id="node10" class="node"><title>&#45;10</title>
<polygon fill="lightgray" stroke="black" points="205,-119.246 176,-119.246 176,-101.246 205,-101.246 205,-119.246"/>
<text text-anchor="middle" x="190.5" y="-108.046" font-family="Times,serif" font-size="9.00">&#45;10</text>
</g>
<!-- &#45;10&#45;&gt;0 -->
<g id="edge18" class="edge"><title>&#45;10&#45;&gt;0</title>
<path fill="none" stroke="green" stroke-width="0.325456" d="M192.705,-101.24C195.964,-89.4093 202.197,-66.7806 206.993,-49.3709"/>
<polygon fill="green" stroke="green" stroke-width="0.325456" points="210.472,-49.9189 209.754,-39.3484 203.724,-48.0598 210.472,-49.9189"/>
</g>
<!-- &#45;11 -->
<g id="node11" class="node"><title>&#45;11</title>
<polygon fill="lightgray" stroke="black" points="384,-119.246 355,-119.246 355,-101.246 384,-101.246 384,-119.246"/>
<text text-anchor="middle" x="369.5" y="-108.046" font-family="Times,serif" font-size="9.00">&#45;11</text>
</g>
<!-- &#45;11&#45;&gt;0 -->
<g id="edge11" class="edge"><title>&#45;11&#45;&gt;0</title>
<path fill="none" stroke="green" stroke-width="0.129114" d="M362.549,-101.015C358.056,-96.06 351.875,-89.883 345.5,-85.4975 310.584,-61.4772 264.455,-43.1951 236.994,-33.502"/>
<polygon fill="green" stroke="green" stroke-width="0.129114" points="238.04,-30.1606 227.445,-30.2134 235.761,-36.7791 238.04,-30.1606"/>
</g>
<!-- &#45;11&#45;&gt;2 -->
<g id="edge30" class="edge"><title>&#45;11&#45;&gt;2</title>
<path fill="none" stroke="green" stroke-width="0.114669" d="M376.413,-100.96C380.892,-95.9843 387.072,-89.8048 393.5,-85.4975 427.582,-62.6591 441.009,-66.1594 478.5,-49.4975 487.838,-45.3473 498.062,-40.6227 506.888,-36.4864"/>
<polygon fill="green" stroke="green" stroke-width="0.114669" points="508.582,-39.557 516.136,-32.1283 505.599,-33.2248 508.582,-39.557"/>
</g>
<!-- &#45;12 -->
<g id="node12" class="node"><title>&#45;12</title>
<polygon fill="lightgray" stroke="black" points="819,-119.246 790,-119.246 790,-101.246 819,-101.246 819,-119.246"/>
<text text-anchor="middle" x="804.5" y="-108.046" font-family="Times,serif" font-size="9.00">&#45;12</text>
</g>
<!-- &#45;12&#45;&gt;1 -->
<g id="edge12" class="edge"><title>&#45;12&#45;&gt;1</title>
<path fill="none" stroke="red" stroke-width="0.353306" d="M801.719,-101.24C797.548,-89.2295 789.511,-66.0901 783.43,-48.5805"/>
<polygon fill="red" stroke="red" stroke-width="0.353306" points="786.706,-47.3465 780.119,-39.0484 780.094,-49.6432 786.706,-47.3465"/>
</g>
<!-- &#45;13 -->
<g id="node13" class="node"><title>&#45;13</title>
<polygon fill="lightgray" stroke="black" points="252,-119.246 223,-119.246 223,-101.246 252,-101.246 252,-119.246"/>
<text text-anchor="middle" x="237.5" y="-108.046" font-family="Times,serif" font-size="9.00">&#45;13</text>
</g>
<!-- &#45;13&#45;&gt;0 -->
<g id="edge34" class="edge"><title>&#45;13&#45;&gt;0</title>
<path fill="none" stroke="green" stroke-width="1.10832" d="M235.199,-101.24C231.798,-89.4093 225.294,-66.7806 220.29,-49.3709"/>
<polygon fill="green" stroke="green" stroke-width="1.10832" points="223.535,-47.9924 217.409,-39.3484 216.808,-49.9262 223.535,-47.9924"/>
</g>
<!-- &#45;14 -->
<g id="node14" class="node"><title>&#45;14</title>
<polygon fill="lightgray" stroke="black" points="474,-119.246 445,-119.246 445,-101.246 474,-101.246 474,-119.246"/>
<text text-anchor="middle" x="459.5" y="-108.046" font-family="Times,serif" font-size="9.00">&#45;14</text>
</g>
<!-- &#45;14&#45;&gt;3 -->
<g id="edge23" class="edge"><title>&#45;14&#45;&gt;3</title>
<path fill="none" stroke="green" stroke-width="0.211615" d="M457.295,-101.24C454.036,-89.4093 447.803,-66.7806 443.007,-49.3709"/>
<polygon fill="green" stroke="green" stroke-width="0.211615" points="446.276,-48.0598 440.246,-39.3484 439.528,-49.9189 446.276,-48.0598"/>
</g>
<!-- &#45;15 -->
<g id="node15" class="node"><title>&#45;15</title>
<polygon fill="lightgray" stroke="black" points="866,-119.246 837,-119.246 837,-101.246 866,-101.246 866,-119.246"/>
<text text-anchor="middle" x="851.5" y="-108.046" font-family="Times,serif" font-size="9.00">&#45;15</text>
</g>
<!-- &#45;15&#45;&gt;1 -->
<g id="edge13" class="edge"><title>&#45;15&#45;&gt;1</title>
<path fill="none" stroke="red" stroke-width="0.153461" d="M844.213,-101.24C832.228,-88.0725 808.067,-61.529 791.832,-43.6924"/>
<polygon fill="red" stroke="red" stroke-width="0.153461" points="794.323,-41.2285 785.003,-36.1891 789.146,-45.9404 794.323,-41.2285"/>
</g>
<!-- &#45;16 -->
<g id="node16" class="node"><title>&#45;16</title>
<polygon fill="lightgray" stroke="black" points="29,-119.246 0,-119.246 0,-101.246 29,-101.246 29,-119.246"/>
<text text-anchor="middle" x="14.5" y="-108.046" font-family="Times,serif" font-size="9.00">&#45;16</text>
</g>
<!-- &#45;16&#45;&gt;0 -->
<g id="edge15" class="edge"><title>&#45;16&#45;&gt;0</title>
<path fill="none" stroke="green" stroke-width="0.352671" d="M23.05,-100.891C28.5357,-95.889 36.0119,-89.7064 43.5,-85.4975 91.9773,-58.2491 155.099,-40.0334 189.154,-31.4445"/>
<polygon fill="green" stroke="green" stroke-width="0.352671" points="190.256,-34.7778 199.134,-28.9948 188.588,-27.9796 190.256,-34.7778"/>
</g>
<!-- &#45;17 -->
<g id="node17" class="node"><title>&#45;17</title>
<polygon fill="lightgray" stroke="black" points="913,-119.246 884,-119.246 884,-101.246 913,-101.246 913,-119.246"/>
<text text-anchor="middle" x="898.5" y="-108.046" font-family="Times,serif" font-size="9.00">&#45;17</text>
</g>
<!-- &#45;17&#45;&gt;1 -->
<g id="edge31" class="edge"><title>&#45;17&#45;&gt;1</title>
<path fill="none" stroke="green" stroke-width="0.412179" d="M891.719,-101.24C887.368,-96.3693 881.439,-90.2023 875.5,-85.4975 850.594,-65.7657 818.592,-47.7483 797.586,-36.7735"/>
<polygon fill="green" stroke="green" stroke-width="0.412179" points="798.999,-33.5648 788.504,-32.1103 795.801,-39.7918 798.999,-33.5648"/>
</g>
<!-- &#45;18 -->
<g id="node18" class="node"><title>&#45;18</title>
<polygon fill="lightgray" stroke="black" points="521,-119.246 492,-119.246 492,-101.246 521,-101.246 521,-119.246"/>
<text text-anchor="middle" x="506.5" y="-108.046" font-family="Times,serif" font-size="9.00">&#45;18</text>
</g>
<!-- &#45;18&#45;&gt;2 -->
<g id="edge19" class="edge"><title>&#45;18&#45;&gt;2</title>
<path fill="none" stroke="red" stroke-width="0.303551" d="M508.705,-101.24C511.964,-89.4093 518.197,-66.7806 522.993,-49.3709"/>
<polygon fill="red" stroke="red" stroke-width="0.303551" points="526.472,-49.9189 525.754,-39.3484 519.724,-48.0598 526.472,-49.9189"/>
</g>
<!-- &#45;18&#45;&gt;3 -->
<g id="edge26" class="edge"><title>&#45;18&#45;&gt;3</title>
<path fill="none" stroke="green" stroke-width="0.426187" d="M499.788,-101.24C488.966,-88.3315 467.367,-62.5678 452.434,-44.7546"/>
<polygon fill="green" stroke="green" stroke-width="0.426187" points="454.821,-42.1544 445.714,-36.7397 449.457,-46.6516 454.821,-42.1544"/>
</g>
<!-- &#45;19 -->
<g id="node19" class="node"><title>&#45;19</title>
<polygon fill="lightgray" stroke="black" points="658,-119.246 629,-119.246 629,-101.246 658,-101.246 658,-119.246"/>
<text text-anchor="middle" x="643.5" y="-108.046" font-family="Times,serif" font-size="9.00">&#45;19</text>
</g>
<!-- &#45;19&#45;&gt;1 -->
<g id="edge22" class="edge"><title>&#45;19&#45;&gt;1</title>
<path fill="none" stroke="red" stroke-width="0.175933" d="M650.578,-101.193C655.119,-96.3044 661.306,-90.1352 667.5,-85.4975 694.992,-64.9116 730.395,-46.6818 753.025,-35.9275"/>
<polygon fill="red" stroke="red" stroke-width="0.175933" points="754.585,-39.0621 762.166,-31.6609 751.624,-32.7191 754.585,-39.0621"/>
</g>
<!-- &#45;19&#45;&gt;2 -->
<g id="edge9" class="edge"><title>&#45;19&#45;&gt;2</title>
<path fill="none" stroke="green" stroke-width="0.381066" d="M635.865,-100.924C631.32,-96.1706 625.32,-90.2334 619.5,-85.4975 597.225,-67.37 569.396,-49.551 550.628,-38.1573"/>
<polygon fill="green" stroke="green" stroke-width="0.381066" points="552.338,-35.1018 541.962,-32.9622 548.739,-41.1057 552.338,-35.1018"/>
</g>
<!-- &#45;20 -->
<g id="node20" class="node"><title>&#45;20</title>
<polygon fill="lightgray" stroke="black" points="568,-119.246 539,-119.246 539,-101.246 568,-101.246 568,-119.246"/>
<text text-anchor="middle" x="553.5" y="-108.046" font-family="Times,serif" font-size="9.00">&#45;20</text>
</g>
<!-- &#45;20&#45;&gt;2 -->
<g id="edge1" class="edge"><title>&#45;20&#45;&gt;2</title>
<path fill="none" stroke="red" stroke-width="0.28611" d="M551.199,-101.24C547.798,-89.4093 541.294,-66.7806 536.29,-49.3709"/>
<polygon fill="red" stroke="red" stroke-width="0.28611" points="539.535,-47.9924 533.409,-39.3484 532.808,-49.9262 539.535,-47.9924"/>
</g>
<!-- &#45;21 -->
<g id="node21" class="node"><title>&#45;21</title>
<polygon fill="lightgray" stroke="black" points="257,-274.492 228,-274.492 228,-256.492 257,-256.492 257,-274.492"/>
<text text-anchor="middle" x="242.5" y="-263.292" font-family="Times,serif" font-size="9.00">&#45;21</text>
</g>
<!-- &#45;21&#45;&gt;0 -->
<g id="edge14" class="edge"><title>&#45;21&#45;&gt;0</title>
<path fill="none" stroke="green" stroke-width="2.51057" d="M227.781,-258.494C193.52,-243.614 108.891,-201.345 76.5,-134.995 66.8491,-115.226 64.4483,-103.901 76.5,-85.4975 101.405,-47.4661 156.385,-33.5058 188.612,-28.4819"/>
<polygon fill="green" stroke="green" stroke-width="2.51057" points="189.168,-31.9385 198.593,-27.0989 188.207,-25.0047 189.168,-31.9385"/>
</g>
<!-- 4550 -->
<g id="node29" class="node"><title>4550</title>
<ellipse fill="white" stroke="black" cx="428.5" cy="-195.744" rx="25" ry="25"/>
<text text-anchor="middle" x="428.5" y="-193.544" font-family="Times,serif" font-size="9.00">4550</text>
</g>
<!-- &#45;21&#45;&gt;4550 -->
<g id="edge6" class="edge"><title>&#45;21&#45;&gt;4550</title>
<path fill="none" stroke="green" stroke-width="0.480432" d="M257.095,-259.176C286.843,-248.341 355.12,-223.472 395.955,-208.598"/>
<polygon fill="green" stroke="green" stroke-width="0.480432" points="397.261,-211.847 405.459,-205.136 394.865,-205.27 397.261,-211.847"/>
</g>
<!-- &#45;22 -->
<g id="node22" class="node"><title>&#45;22</title>
<polygon fill="lightgray" stroke="black" points="705,-119.246 676,-119.246 676,-101.246 705,-101.246 705,-119.246"/>
<text text-anchor="middle" x="690.5" y="-108.046" font-family="Times,serif" font-size="9.00">&#45;22</text>
</g>
<!-- &#45;22&#45;&gt;1 -->
<g id="edge16" class="edge"><title>&#45;22&#45;&gt;1</title>
<path fill="none" stroke="red" stroke-width="0.809553" d="M698.52,-100.825C702.907,-96.2529 708.461,-90.5239 713.5,-85.4975 728.085,-70.9483 744.935,-54.7485 757.384,-42.8916"/>
<polygon fill="red" stroke="red" stroke-width="0.809553" points="760.022,-45.2131 764.861,-35.788 755.2,-40.1381 760.022,-45.2131"/>
</g>
<!-- &#45;23 -->
<g id="node23" class="node"><title>&#45;23</title>
<polygon fill="lightgray" stroke="black" points="431,-274.492 402,-274.492 402,-256.492 431,-256.492 431,-274.492"/>
<text text-anchor="middle" x="416.5" y="-263.292" font-family="Times,serif" font-size="9.00">&#45;23</text>
</g>
<!-- &#45;24 -->
<g id="node24" class="node"><title>&#45;24</title>
<polygon fill="lightgray" stroke="black" points="115,-119.246 86,-119.246 86,-101.246 115,-101.246 115,-119.246"/>
<text text-anchor="middle" x="100.5" y="-108.046" font-family="Times,serif" font-size="9.00">&#45;24</text>
</g>
<!-- &#45;24&#45;&gt;0 -->
<g id="edge29" class="edge"><title>&#45;24&#45;&gt;0</title>
<path fill="none" stroke="green" stroke-width="0.960921" d="M108.145,-100.935C112.693,-96.1856 118.693,-90.2484 124.5,-85.4975 146.434,-67.5534 173.763,-49.8167 192.309,-38.3893"/>
<polygon fill="green" stroke="green" stroke-width="0.960921" points="194.166,-41.3563 200.889,-33.1671 190.527,-35.3769 194.166,-41.3563"/>
</g>
<!-- 1&#45;&gt;1 -->
<g id="edge20" class="edge"><title>1&#45;&gt;1</title>
<path fill="none" stroke="red" stroke-width="0.470158" d="M784.916,-36.3113C795.773,-44.517 808.349,-40.6628 808.349,-24.7487 808.349,-13.3105 801.852,-8.10242 794.166,-9.12449"/>
<polygon fill="red" stroke="red" stroke-width="0.470158" points="792.665,-5.96114 784.916,-13.1862 795.479,-12.3705 792.665,-5.96114"/>
</g>
<!-- 2&#45;&gt;2 -->
<g id="edge17" class="edge"><title>2&#45;&gt;2</title>
<path fill="none" stroke="green" stroke-width="0.421666" d="M538.916,-36.3113C549.773,-44.517 562.349,-40.6628 562.349,-24.7487 562.349,-13.3105 555.852,-8.10242 548.166,-9.12449"/>
<polygon fill="green" stroke="green" stroke-width="0.421666" points="546.665,-5.96114 538.916,-13.1862 549.479,-12.3705 546.665,-5.96114"/>
</g>
<!-- 3&#45;&gt;3 -->
<g id="edge10" class="edge"><title>3&#45;&gt;3</title>
<path fill="none" stroke="green" stroke-width="0.448013" d="M445.916,-36.3113C456.773,-44.517 469.349,-40.6628 469.349,-24.7487 469.349,-13.3105 462.852,-8.10242 455.166,-9.12449"/>
<polygon fill="green" stroke="green" stroke-width="0.448013" points="453.665,-5.96114 445.916,-13.1862 456.479,-12.3705 453.665,-5.96114"/>
</g>
<!-- 4979 -->
<g id="node31" class="node"><title>4979</title>
<ellipse fill="white" stroke="black" cx="747.5" cy="-110.246" rx="25" ry="25"/>
<text text-anchor="middle" x="747.5" y="-108.046" font-family="Times,serif" font-size="9.00">4979</text>
</g>
<!-- 4550&#45;&gt;4979 -->
<g id="edge24" class="edge"><title>4550&#45;&gt;4979</title>
<path fill="none" stroke="red" stroke-width="0.151129" d="M453.273,-193.04C504.202,-188.803 623.514,-175.069 714.5,-134.995 716.341,-134.184 718.181,-133.259 719.998,-132.256"/>
<polygon fill="red" stroke="red" stroke-width="0.151129" points="722.166,-135.028 728.78,-126.751 718.448,-129.097 722.166,-135.028"/>
</g>
<!-- 4979&#45;&gt;1 -->
<g id="edge27" class="edge"><title>4979&#45;&gt;1</title>
<path fill="none" stroke="red" stroke-width="0.165143" d="M755.151,-86.4302C759.058,-74.7783 763.803,-60.6303 767.727,-48.9273"/>
<polygon fill="red" stroke="red" stroke-width="0.165143" points="771.062,-49.9904 770.923,-39.3965 764.426,-47.7648 771.062,-49.9904"/>
</g>
</g>
</svg>
