<?xml version="1.0" encoding="UTF-8" standalone="no"?>
<!DOCTYPE svg PUBLIC "-//W3C//DTD SVG 1.1//EN"
 "http://www.w3.org/Graphics/SVG/1.1/DTD/svg11.dtd">
<!-- Generated by graphviz version 2.38.0 (20140413.2041)
 -->
<!-- Title: %3 Pages: 1 -->
<svg width="1106pt" height="348pt"
 viewBox="0.00 0.00 1106.00 348.19" xmlns="http://www.w3.org/2000/svg" xmlns:xlink="http://www.w3.org/1999/xlink">
<g id="graph0" class="graph" transform="scale(1 1) rotate(0) translate(4 344.191)">
<title>%3</title>
<polygon fill="white" stroke="none" points="-4,4 -4,-344.191 1102,-344.191 1102,4 -4,4"/>
<!-- &#45;1 -->
<g id="node1" class="node"><title>&#45;1</title>
<polygon fill="lightgray" stroke="black" points="305,-184.945 281,-184.945 281,-166.945 305,-166.945 305,-184.945"/>
<text text-anchor="middle" x="293" y="-173.745" font-family="Times,serif" font-size="9.00">&#45;1</text>
</g>
<!-- 0 -->
<g id="node25" class="node"><title>0</title>
<ellipse fill="lightblue" stroke="black" cx="653" cy="-100.347" rx="14.7" ry="14.7"/>
<text text-anchor="middle" x="653" y="-98.1467" font-family="Times,serif" font-size="9.00">0</text>
</g>
<!-- &#45;1&#45;&gt;0 -->
<g id="edge3" class="edge"><title>&#45;1&#45;&gt;0</title>
<path fill="none" stroke="red" stroke-width="0.296187" d="M298.165,-166.507C301.884,-161.205 307.398,-154.723 314,-151.196 419.227,-94.9836 462.243,-134.321 580,-115.196 596.234,-112.559 614.405,-109.114 628.557,-106.319"/>
<polygon fill="red" stroke="red" stroke-width="0.296187" points="629.377,-109.724 638.497,-104.333 628.005,-102.86 629.377,-109.724"/>
</g>
<!-- 1 -->
<g id="node26" class="node"><title>1</title>
<ellipse fill="lightblue" stroke="black" cx="293" cy="-100.347" rx="14.7" ry="14.7"/>
<text text-anchor="middle" x="293" y="-98.1467" font-family="Times,serif" font-size="9.00">1</text>
</g>
<!-- &#45;1&#45;&gt;1 -->
<g id="edge14" class="edge"><title>&#45;1&#45;&gt;1</title>
<path fill="none" stroke="green" stroke-width="0.238279" d="M293,-166.787C293,-156.886 293,-139.744 293,-125.488"/>
<polygon fill="green" stroke="green" stroke-width="0.238279" points="296.5,-125.317 293,-115.317 289.5,-125.317 296.5,-125.317"/>
</g>
<!-- 3 -->
<g id="node28" class="node"><title>3</title>
<ellipse fill="lightblue" stroke="black" cx="538" cy="-100.347" rx="14.7" ry="14.7"/>
<text text-anchor="middle" x="538" y="-98.1467" font-family="Times,serif" font-size="9.00">3</text>
</g>
<!-- &#45;1&#45;&gt;3 -->
<g id="edge45" class="edge"><title>&#45;1&#45;&gt;3</title>
<path fill="none" stroke="green" stroke-width="0.368048" d="M298.267,-166.689C302.029,-161.463 307.553,-154.998 314,-151.196 378.558,-113.122 469.198,-104.087 512.724,-101.972"/>
<polygon fill="green" stroke="green" stroke-width="0.368048" points="513.12,-105.459 522.972,-101.562 512.84,-98.4645 513.12,-105.459"/>
</g>
<!-- &#45;2 -->
<g id="node2" class="node"><title>&#45;2</title>
<polygon fill="lightgray" stroke="black" points="710,-184.945 686,-184.945 686,-166.945 710,-166.945 710,-184.945"/>
<text text-anchor="middle" x="698" y="-173.745" font-family="Times,serif" font-size="9.00">&#45;2</text>
</g>
<!-- &#45;2&#45;&gt;0 -->
<g id="edge12" class="edge"><title>&#45;2&#45;&gt;0</title>
<path fill="none" stroke="green" stroke-width="0.247319" d="M693.012,-166.787C686.455,-156.063 674.706,-136.847 665.63,-122.002"/>
<polygon fill="green" stroke="green" stroke-width="0.247319" points="668.596,-120.145 660.394,-113.439 662.624,-123.797 668.596,-120.145"/>
</g>
<!-- 2 -->
<g id="node27" class="node"><title>2</title>
<ellipse fill="lightblue" stroke="black" cx="878" cy="-100.347" rx="14.7" ry="14.7"/>
<text text-anchor="middle" x="878" y="-98.1467" font-family="Times,serif" font-size="9.00">2</text>
</g>
<!-- &#45;2&#45;&gt;2 -->
<g id="edge35" class="edge"><title>&#45;2&#45;&gt;2</title>
<path fill="none" stroke="red" stroke-width="0.16494" stroke-dasharray="1,5" d="M703.377,-166.867C707.185,-161.716 712.72,-155.268 719,-151.196 761.524,-123.621 820.312,-110.442 853.187,-104.869"/>
<polygon fill="red" stroke="red" stroke-width="0.16494" points="853.957,-108.291 863.281,-103.261 852.855,-101.378 853.957,-108.291"/>
</g>
<!-- &#45;2&#45;&gt;3 -->
<g id="edge50" class="edge"><title>&#45;2&#45;&gt;3</title>
<path fill="none" stroke="red" stroke-width="0.200608" d="M691.869,-166.511C687.84,-161.479 682.185,-155.293 676,-151.196 640.223,-127.493 591.767,-113.398 562.816,-106.531"/>
<polygon fill="red" stroke="red" stroke-width="0.200608" points="563.269,-103.045 552.742,-104.248 561.721,-109.872 563.269,-103.045"/>
</g>
<!-- &#45;3 -->
<g id="node3" class="node"><title>&#45;3</title>
<polygon fill="lightgray" stroke="black" points="937,-340.191 913,-340.191 913,-322.191 937,-322.191 937,-340.191"/>
<text text-anchor="middle" x="925" y="-328.991" font-family="Times,serif" font-size="9.00">&#45;3</text>
</g>
<!-- &#45;4 -->
<g id="node4" class="node"><title>&#45;4</title>
<polygon fill="lightgray" stroke="black" points="347,-184.945 323,-184.945 323,-166.945 347,-166.945 347,-184.945"/>
<text text-anchor="middle" x="335" y="-173.745" font-family="Times,serif" font-size="9.00">&#45;4</text>
</g>
<!-- &#45;4&#45;&gt;0 -->
<g id="edge39" class="edge"><title>&#45;4&#45;&gt;0</title>
<path fill="none" stroke="red" stroke-width="0.113867" stroke-dasharray="1,5" d="M340.194,-166.561C343.925,-161.282 349.442,-154.805 356,-151.196 444.342,-102.584 480.679,-132.595 580,-115.196 596.2,-112.358 614.371,-108.912 628.532,-106.167"/>
<polygon fill="red" stroke="red" stroke-width="0.113867" points="629.334,-109.576 638.479,-104.226 627.994,-102.706 629.334,-109.576"/>
</g>
<!-- &#45;4&#45;&gt;1 -->
<g id="edge51" class="edge"><title>&#45;4&#45;&gt;1</title>
<path fill="none" stroke="green" stroke-width="0.260048" stroke-dasharray="1,5" d="M330.345,-166.787C324.318,-156.226 313.59,-137.428 305.175,-122.681"/>
<polygon fill="green" stroke="green" stroke-width="0.260048" points="308.047,-120.652 300.051,-113.702 301.967,-124.122 308.047,-120.652"/>
</g>
<!-- &#45;4&#45;&gt;3 -->
<g id="edge22" class="edge"><title>&#45;4&#45;&gt;3</title>
<path fill="none" stroke="green" stroke-width="0.251649" stroke-dasharray="1,5" d="M340.329,-166.791C344.117,-161.608 349.646,-155.153 356,-151.196 406.15,-119.96 475.964,-107.995 512.848,-103.65"/>
<polygon fill="green" stroke="green" stroke-width="0.251649" points="513.614,-107.088 523.18,-102.534 512.862,-100.129 513.614,-107.088"/>
</g>
<!-- &#45;5 -->
<g id="node5" class="node"><title>&#45;5</title>
<polygon fill="lightgray" stroke="black" points="573,-184.945 549,-184.945 549,-166.945 573,-166.945 573,-184.945"/>
<text text-anchor="middle" x="561" y="-173.745" font-family="Times,serif" font-size="9.00">&#45;5</text>
</g>
<!-- &#45;5&#45;&gt;0 -->
<g id="edge31" class="edge"><title>&#45;5&#45;&gt;0</title>
<path fill="none" stroke="red" stroke-width="2.30295" d="M567.561,-166.592C571.498,-161.828 576.748,-155.891 582,-151.196 597.567,-137.281 617.095,-123.818 631.729,-114.398"/>
<polygon fill="red" stroke="red" stroke-width="2.30295" points="633.963,-117.127 640.548,-108.828 630.225,-111.209 633.963,-117.127"/>
</g>
<!-- &#45;5&#45;&gt;3 -->
<g id="edge42" class="edge"><title>&#45;5&#45;&gt;3</title>
<path fill="none" stroke="green" stroke-width="0.516479" stroke-dasharray="1,5" d="M558.451,-166.787C555.288,-156.668 549.763,-138.987 545.252,-124.553"/>
<polygon fill="green" stroke="green" stroke-width="0.516479" points="548.519,-123.272 542.195,-114.771 541.837,-125.36 548.519,-123.272"/>
</g>
<!-- &#45;6 -->
<g id="node6" class="node"><title>&#45;6</title>
<polygon fill="lightgray" stroke="black" points="1098,-184.945 1074,-184.945 1074,-166.945 1098,-166.945 1098,-184.945"/>
<text text-anchor="middle" x="1086" y="-173.745" font-family="Times,serif" font-size="9.00">&#45;6</text>
</g>
<!-- &#45;6&#45;&gt;2 -->
<g id="edge10" class="edge"><title>&#45;6&#45;&gt;2</title>
<path fill="none" stroke="green" stroke-width="0.251828" d="M1079.02,-166.828C1074.16,-161.661 1067.28,-155.209 1060,-151.196 1008.52,-122.819 939.789,-109.732 903.285,-104.441"/>
<polygon fill="green" stroke="green" stroke-width="0.251828" points="903.427,-100.928 893.045,-103.042 902.479,-107.864 903.427,-100.928"/>
</g>
<!-- 3760 -->
<g id="node30" class="node"><title>3760</title>
<ellipse fill="white" stroke="black" cx="878" cy="-24.7487" rx="25" ry="25"/>
<text text-anchor="middle" x="878" y="-22.5487" font-family="Times,serif" font-size="9.00">3760</text>
</g>
<!-- &#45;6&#45;&gt;3760 -->
<g id="edge9" class="edge"><title>&#45;6&#45;&gt;3760</title>
<path fill="none" stroke="red" stroke-width="0.59278" stroke-dasharray="1,5" d="M1077.59,-166.723C1072.62,-162.004 1066.12,-156.067 1060,-151.196 1008.36,-110.129 943.992,-67.6405 907.285,-44.1631"/>
<polygon fill="red" stroke="red" stroke-width="0.59278" points="908.888,-41.0348 898.573,-38.6164 905.128,-46.9395 908.888,-41.0348"/>
</g>
<!-- &#45;7 -->
<g id="node7" class="node"><title>&#45;7</title>
<polygon fill="lightgray" stroke="black" points="24,-184.945 0,-184.945 0,-166.945 24,-166.945 24,-184.945"/>
<text text-anchor="middle" x="12" y="-173.745" font-family="Times,serif" font-size="9.00">&#45;7</text>
</g>
<!-- &#45;7&#45;&gt;1 -->
<g id="edge52" class="edge"><title>&#45;7&#45;&gt;1</title>
<path fill="none" stroke="red" stroke-width="0.493717" d="M18.8881,-166.648C23.7007,-161.405 30.5745,-154.936 38,-151.196 115.39,-112.213 220.221,-103.666 267.733,-101.827"/>
<polygon fill="red" stroke="red" stroke-width="0.493717" points="268.127,-105.317 278.011,-101.502 267.906,-98.3202 268.127,-105.317"/>
</g>
<!-- &#45;7&#45;&gt;3760 -->
<g id="edge2" class="edge"><title>&#45;7&#45;&gt;3760</title>
<path fill="none" stroke="green" stroke-width="0.135377" d="M18.996,-166.851C23.8541,-161.694 30.7382,-155.245 38,-151.196 131.226,-99.2161 164.131,-105.388 269,-85.4975 484.829,-44.5609 749.328,-30.7739 843.056,-26.9856"/>
<polygon fill="green" stroke="green" stroke-width="0.135377" points="843.264,-30.4803 853.119,-26.5912 842.99,-23.4856 843.264,-30.4803"/>
</g>
<!-- &#45;8 -->
<g id="node8" class="node"><title>&#45;8</title>
<polygon fill="lightgray" stroke="black" points="389,-184.945 365,-184.945 365,-166.945 389,-166.945 389,-184.945"/>
<text text-anchor="middle" x="377" y="-173.745" font-family="Times,serif" font-size="9.00">&#45;8</text>
</g>
<!-- &#45;8&#45;&gt;0 -->
<g id="edge55" class="edge"><title>&#45;8&#45;&gt;0</title>
<path fill="none" stroke="green" stroke-width="0.715555" stroke-dasharray="1,5" d="M382.235,-166.633C385.983,-161.385 391.504,-154.915 398,-151.196 400.527,-149.749 564.978,-118.186 628.415,-106.046"/>
<polygon fill="green" stroke="green" stroke-width="0.715555" points="629.196,-109.46 638.36,-104.144 627.88,-102.585 629.196,-109.46"/>
</g>
<!-- &#45;8&#45;&gt;1 -->
<g id="edge8" class="edge"><title>&#45;8&#45;&gt;1</title>
<path fill="none" stroke="red" stroke-width="0.176957" stroke-dasharray="1,5" d="M370.337,-166.703C366.366,-161.977 361.116,-156.039 356,-151.196 342.34,-138.263 325.586,-125.12 312.79,-115.579"/>
<polygon fill="red" stroke="red" stroke-width="0.176957" points="314.781,-112.699 304.651,-109.596 310.635,-118.339 314.781,-112.699"/>
</g>
<!-- &#45;9 -->
<g id="node9" class="node"><title>&#45;9</title>
<polygon fill="lightgray" stroke="black" points="932,-184.945 908,-184.945 908,-166.945 932,-166.945 932,-184.945"/>
<text text-anchor="middle" x="920" y="-173.745" font-family="Times,serif" font-size="9.00">&#45;9</text>
</g>
<!-- &#45;9&#45;&gt;0 -->
<g id="edge38" class="edge"><title>&#45;9&#45;&gt;0</title>
<path fill="none" stroke="red" stroke-width="1.00137" d="M913.098,-166.674C908.28,-161.443 901.405,-154.977 894,-151.196 821.582,-114.221 723.649,-104.672 678.158,-102.205"/>
<polygon fill="red" stroke="red" stroke-width="1.00137" points="678.172,-98.7022 668.018,-101.728 677.843,-105.695 678.172,-98.7022"/>
</g>
<!-- &#45;9&#45;&gt;2 -->
<g id="edge6" class="edge"><title>&#45;9&#45;&gt;2</title>
<path fill="none" stroke="red" stroke-width="0.272683" d="M915.345,-166.787C909.318,-156.226 898.59,-137.428 890.175,-122.681"/>
<polygon fill="red" stroke="red" stroke-width="0.272683" points="893.047,-120.652 885.051,-113.702 886.967,-124.122 893.047,-120.652"/>
</g>
<!-- &#45;10 -->
<g id="node10" class="node"><title>&#45;10</title>
<polygon fill="lightgray" stroke="black" points="620.5,-184.945 591.5,-184.945 591.5,-166.945 620.5,-166.945 620.5,-184.945"/>
<text text-anchor="middle" x="606" y="-173.745" font-family="Times,serif" font-size="9.00">&#45;10</text>
</g>
<!-- &#45;10&#45;&gt;0 -->
<g id="edge27" class="edge"><title>&#45;10&#45;&gt;0</title>
<path fill="none" stroke="green" stroke-width="0.325456" d="M611.209,-166.787C618.097,-156.002 630.471,-136.625 639.973,-121.745"/>
<polygon fill="green" stroke="green" stroke-width="0.325456" points="643.011,-123.491 645.444,-113.179 637.112,-119.723 643.011,-123.491"/>
</g>
<!-- &#45;10&#45;&gt;3 -->
<g id="edge13" class="edge"><title>&#45;10&#45;&gt;3</title>
<path fill="none" stroke="green" stroke-width="0.645991" stroke-dasharray="1,5" d="M598.463,-166.787C588.076,-155.545 569.066,-134.971 555.126,-119.883"/>
<polygon fill="green" stroke="green" stroke-width="0.645991" points="557.347,-117.129 547.99,-112.159 552.206,-121.879 557.347,-117.129"/>
</g>
<!-- &#45;11 -->
<g id="node11" class="node"><title>&#45;11</title>
<polygon fill="lightgray" stroke="black" points="979.5,-184.945 950.5,-184.945 950.5,-166.945 979.5,-166.945 979.5,-184.945"/>
<text text-anchor="middle" x="965" y="-173.745" font-family="Times,serif" font-size="9.00">&#45;11</text>
</g>
<!-- &#45;11&#45;&gt;0 -->
<g id="edge17" class="edge"><title>&#45;11&#45;&gt;0</title>
<path fill="none" stroke="green" stroke-width="0.129114" d="M958.795,-166.589C954.417,-161.322 948.087,-154.847 941,-151.196 852.538,-105.617 730.599,-100.617 678.387,-100.771"/>
<polygon fill="green" stroke="green" stroke-width="0.129114" points="678.025,-97.2747 668.061,-100.875 678.095,-104.274 678.025,-97.2747"/>
</g>
<!-- &#45;11&#45;&gt;2 -->
<g id="edge48" class="edge"><title>&#45;11&#45;&gt;2</title>
<path fill="none" stroke="green" stroke-width="0.114669" d="M957.213,-166.801C952.617,-162.107 946.617,-156.17 941,-151.196 926.917,-138.725 910.186,-125.558 897.506,-115.89"/>
<polygon fill="green" stroke="green" stroke-width="0.114669" points="899.546,-113.044 889.458,-109.807 895.325,-118.629 899.546,-113.044"/>
</g>
<!-- &#45;12 -->
<g id="node12" class="node"><title>&#45;12</title>
<polygon fill="lightgray" stroke="black" points="176.5,-184.945 147.5,-184.945 147.5,-166.945 176.5,-166.945 176.5,-184.945"/>
<text text-anchor="middle" x="162" y="-173.745" font-family="Times,serif" font-size="9.00">&#45;12</text>
</g>
<!-- &#45;12&#45;&gt;1 -->
<g id="edge20" class="edge"><title>&#45;12&#45;&gt;1</title>
<path fill="none" stroke="red" stroke-width="0.353306" d="M170.732,-166.891C176.286,-162.003 183.77,-155.834 191,-151.196 216.662,-134.734 248.554,-119.965 269.777,-110.854"/>
<polygon fill="red" stroke="red" stroke-width="0.353306" points="271.41,-113.964 279.264,-106.853 268.69,-107.514 271.41,-113.964"/>
</g>
<!-- &#45;13 -->
<g id="node13" class="node"><title>&#45;13</title>
<polygon fill="lightgray" stroke="black" points="757.5,-184.945 728.5,-184.945 728.5,-166.945 757.5,-166.945 757.5,-184.945"/>
<text text-anchor="middle" x="743" y="-173.745" font-family="Times,serif" font-size="9.00">&#45;13</text>
</g>
<!-- &#45;13&#45;&gt;0 -->
<g id="edge54" class="edge"><title>&#45;13&#45;&gt;0</title>
<path fill="none" stroke="green" stroke-width="1.10832" d="M735.255,-166.753C730.673,-162.044 724.673,-156.107 719,-151.196 704.357,-138.52 686.823,-125.364 673.51,-115.752"/>
<polygon fill="green" stroke="green" stroke-width="1.10832" points="675.226,-112.677 665.054,-109.714 671.158,-118.374 675.226,-112.677"/>
</g>
<!-- &#45;14 -->
<g id="node14" class="node"><title>&#45;14</title>
<polygon fill="lightgray" stroke="black" points="483.5,-184.945 454.5,-184.945 454.5,-166.945 483.5,-166.945 483.5,-184.945"/>
<text text-anchor="middle" x="469" y="-173.745" font-family="Times,serif" font-size="9.00">&#45;14</text>
</g>
<!-- &#45;14&#45;&gt;1 -->
<g id="edge57" class="edge"><title>&#45;14&#45;&gt;1</title>
<path fill="none" stroke="green" stroke-width="0.745595" stroke-dasharray="1,5" d="M462.608,-166.922C458.151,-161.795 451.803,-155.353 445,-151.196 404.087,-126.196 349.227,-112.244 317.838,-105.808"/>
<polygon fill="green" stroke="green" stroke-width="0.745595" points="318.262,-102.325 307.776,-103.84 316.918,-109.195 318.262,-102.325"/>
</g>
<!-- &#45;14&#45;&gt;2 -->
<g id="edge18" class="edge"><title>&#45;14&#45;&gt;2</title>
<path fill="none" stroke="red" stroke-width="0.27401" stroke-dasharray="1,5" d="M474.824,-166.489C478.967,-161.18 485.023,-154.696 492,-151.196 555.768,-119.21 776.961,-106.075 852.491,-102.455"/>
<polygon fill="red" stroke="red" stroke-width="0.27401" points="853.103,-105.931 862.93,-101.972 852.779,-98.9381 853.103,-105.931"/>
</g>
<!-- &#45;14&#45;&gt;3 -->
<g id="edge33" class="edge"><title>&#45;14&#45;&gt;3</title>
<path fill="none" stroke="green" stroke-width="0.211615" d="M476.648,-166.787C487.306,-155.419 506.911,-134.507 521.097,-119.376"/>
<polygon fill="green" stroke="green" stroke-width="0.211615" points="524.042,-121.352 528.329,-111.663 518.936,-116.564 524.042,-121.352"/>
</g>
<!-- &#45;15 -->
<g id="node15" class="node"><title>&#45;15</title>
<polygon fill="lightgray" stroke="black" points="169.5,-340.191 140.5,-340.191 140.5,-322.191 169.5,-322.191 169.5,-340.191"/>
<text text-anchor="middle" x="155" y="-328.991" font-family="Times,serif" font-size="9.00">&#45;15</text>
</g>
<!-- &#45;15&#45;&gt;1 -->
<g id="edge21" class="edge"><title>&#45;15&#45;&gt;1</title>
<path fill="none" stroke="red" stroke-width="0.153461" d="M145.252,-321.949C114.637,-295.095 25.0973,-208.549 71,-151.196 83.409,-135.692 213.307,-113.786 268.457,-105.103"/>
<polygon fill="red" stroke="red" stroke-width="0.153461" points="269.091,-108.546 278.433,-103.548 268.013,-101.63 269.091,-108.546"/>
</g>
<!-- 4550 -->
<g id="node29" class="node"><title>4550</title>
<ellipse fill="white" stroke="black" cx="205" cy="-261.442" rx="25" ry="25"/>
<text text-anchor="middle" x="205" y="-259.242" font-family="Times,serif" font-size="9.00">4550</text>
</g>
<!-- &#45;15&#45;&gt;4550 -->
<g id="edge53" class="edge"><title>&#45;15&#45;&gt;4550</title>
<path fill="none" stroke="red" stroke-width="0.471602" stroke-dasharray="1,5" d="M160.932,-322.153C166.802,-314.199 176.125,-301.567 184.687,-289.965"/>
<polygon fill="red" stroke="red" stroke-width="0.471602" points="187.605,-291.906 190.727,-281.781 181.973,-287.749 187.605,-291.906"/>
</g>
<!-- &#45;16 -->
<g id="node16" class="node"><title>&#45;16</title>
<polygon fill="lightgray" stroke="black" points="804.5,-184.945 775.5,-184.945 775.5,-166.945 804.5,-166.945 804.5,-184.945"/>
<text text-anchor="middle" x="790" y="-173.745" font-family="Times,serif" font-size="9.00">&#45;16</text>
</g>
<!-- &#45;16&#45;&gt;0 -->
<g id="edge24" class="edge"><title>&#45;16&#45;&gt;0</title>
<path fill="none" stroke="green" stroke-width="0.352671" d="M783.42,-166.668C779.144,-161.695 773.224,-155.516 767,-151.196 738.559,-131.452 701.044,-116.891 676.966,-108.762"/>
<polygon fill="green" stroke="green" stroke-width="0.352671" points="677.825,-105.36 667.232,-105.58 675.65,-112.014 677.825,-105.36"/>
</g>
<!-- &#45;17 -->
<g id="node17" class="node"><title>&#45;17</title>
<polygon fill="lightgray" stroke="black" points="436.5,-184.945 407.5,-184.945 407.5,-166.945 436.5,-166.945 436.5,-184.945"/>
<text text-anchor="middle" x="422" y="-173.745" font-family="Times,serif" font-size="9.00">&#45;17</text>
</g>
<!-- &#45;17&#45;&gt;0 -->
<g id="edge5" class="edge"><title>&#45;17&#45;&gt;0</title>
<path fill="none" stroke="red" stroke-width="0.724194" stroke-dasharray="1,5" d="M427.954,-166.731C432.152,-161.524 438.219,-155.063 445,-151.196 460.998,-142.072 577.116,-117.152 628.57,-106.398"/>
<polygon fill="red" stroke="red" stroke-width="0.724194" points="629.432,-109.794 638.508,-104.329 628.005,-102.941 629.432,-109.794"/>
</g>
<!-- &#45;17&#45;&gt;1 -->
<g id="edge49" class="edge"><title>&#45;17&#45;&gt;1</title>
<path fill="none" stroke="green" stroke-width="0.412179" d="M415.021,-166.754C410.517,-161.814 404.335,-155.639 398,-151.196 372.044,-132.989 338.397,-118.354 316.277,-109.764"/>
<polygon fill="green" stroke="green" stroke-width="0.412179" points="317.303,-106.41 306.711,-106.148 314.828,-112.958 317.303,-106.41"/>
</g>
<!-- &#45;18 -->
<g id="node18" class="node"><title>&#45;18</title>
<polygon fill="lightgray" stroke="black" points="851.5,-184.945 822.5,-184.945 822.5,-166.945 851.5,-166.945 851.5,-184.945"/>
<text text-anchor="middle" x="837" y="-173.745" font-family="Times,serif" font-size="9.00">&#45;18</text>
</g>
<!-- &#45;18&#45;&gt;0 -->
<g id="edge30" class="edge"><title>&#45;18&#45;&gt;0</title>
<path fill="none" stroke="green" stroke-width="0.487868" stroke-dasharray="1,5" d="M830.961,-166.875C826.727,-161.729 820.651,-155.282 814,-151.196 770.319,-124.365 711.022,-110.911 677.94,-105.091"/>
<polygon fill="green" stroke="green" stroke-width="0.487868" points="678.225,-101.591 667.786,-103.402 677.076,-108.496 678.225,-101.591"/>
</g>
<!-- &#45;18&#45;&gt;2 -->
<g id="edge28" class="edge"><title>&#45;18&#45;&gt;2</title>
<path fill="none" stroke="red" stroke-width="0.303551" d="M841.544,-166.787C847.428,-156.226 857.9,-137.428 866.115,-122.681"/>
<polygon fill="red" stroke="red" stroke-width="0.303551" points="869.308,-124.141 871.117,-113.702 863.193,-120.734 869.308,-124.141"/>
</g>
<!-- &#45;18&#45;&gt;3 -->
<g id="edge40" class="edge"><title>&#45;18&#45;&gt;3</title>
<path fill="none" stroke="green" stroke-width="0.426187" d="M831.117,-166.604C826.948,-161.343 820.887,-154.87 814,-151.196 802.857,-145.252 628.456,-116.194 562.769,-105.397"/>
<polygon fill="green" stroke="green" stroke-width="0.426187" points="562.948,-101.88 552.513,-103.714 561.815,-108.787 562.948,-101.88"/>
</g>
<!-- &#45;19 -->
<g id="node19" class="node"><title>&#45;19</title>
<polygon fill="lightgray" stroke="black" points="667.5,-184.945 638.5,-184.945 638.5,-166.945 667.5,-166.945 667.5,-184.945"/>
<text text-anchor="middle" x="653" y="-173.745" font-family="Times,serif" font-size="9.00">&#45;19</text>
</g>
<!-- &#45;19&#45;&gt;0 -->
<g id="edge43" class="edge"><title>&#45;19&#45;&gt;0</title>
<path fill="none" stroke="red" stroke-width="0.197518" stroke-dasharray="1,5" d="M653,-166.787C653,-156.886 653,-139.744 653,-125.488"/>
<polygon fill="red" stroke="red" stroke-width="0.197518" points="656.5,-125.317 653,-115.317 649.5,-125.317 656.5,-125.317"/>
</g>
<!-- &#45;19&#45;&gt;1 -->
<g id="edge32" class="edge"><title>&#45;19&#45;&gt;1</title>
<path fill="none" stroke="red" stroke-width="0.175933" d="M646.824,-166.533C642.458,-161.241 636.13,-154.762 629,-151.196 574.166,-123.774 386.753,-108.012 318.297,-103.059"/>
<polygon fill="red" stroke="red" stroke-width="0.175933" points="318.235,-99.5463 308.013,-102.332 317.741,-106.529 318.235,-99.5463"/>
</g>
<!-- &#45;19&#45;&gt;2 -->
<g id="edge15" class="edge"><title>&#45;19&#45;&gt;2</title>
<path fill="none" stroke="green" stroke-width="0.381066" d="M659.294,-166.755C663.71,-161.558 670.049,-155.099 677,-151.196 734.74,-118.776 813.44,-107.202 853.052,-103.261"/>
<polygon fill="green" stroke="green" stroke-width="0.381066" points="853.498,-106.734 863.138,-102.34 852.862,-99.7634 853.498,-106.734"/>
</g>
<!-- &#45;20 -->
<g id="node20" class="node"><title>&#45;20</title>
<polygon fill="lightgray" stroke="black" points="269.5,-340.191 240.5,-340.191 240.5,-322.191 269.5,-322.191 269.5,-340.191"/>
<text text-anchor="middle" x="255" y="-328.991" font-family="Times,serif" font-size="9.00">&#45;20</text>
</g>
<!-- &#45;20&#45;&gt;2 -->
<g id="edge1" class="edge"><title>&#45;20&#45;&gt;2</title>
<path fill="none" stroke="red" stroke-width="0.28611" d="M269.668,-330.035C364.689,-328.691 892.21,-316.055 989,-200.693 1003.14,-183.841 1000.95,-169.665 989,-151.196 970.036,-121.891 929.31,-109.648 902.814,-104.651"/>
<polygon fill="red" stroke="red" stroke-width="0.28611" points="903.208,-101.168 892.768,-102.972 902.054,-108.072 903.208,-101.168"/>
</g>
<!-- &#45;20&#45;&gt;4550 -->
<g id="edge36" class="edge"><title>&#45;20&#45;&gt;4550</title>
<path fill="none" stroke="green" stroke-width="0.654585" stroke-dasharray="1,5" d="M249.068,-322.153C243.198,-314.199 233.875,-301.567 225.313,-289.965"/>
<polygon fill="green" stroke="green" stroke-width="0.654585" points="228.027,-287.749 219.273,-281.781 222.395,-291.906 228.027,-287.749"/>
</g>
<!-- &#45;21 -->
<g id="node21" class="node"><title>&#45;21</title>
<polygon fill="lightgray" stroke="black" points="894.5,-340.191 865.5,-340.191 865.5,-322.191 894.5,-322.191 894.5,-340.191"/>
<text text-anchor="middle" x="880" y="-328.991" font-family="Times,serif" font-size="9.00">&#45;21</text>
</g>
<!-- &#45;21&#45;&gt;0 -->
<g id="edge23" class="edge"><title>&#45;21&#45;&gt;0</title>
<path fill="none" stroke="green" stroke-width="2.51057" d="M882.016,-322.161C888.446,-294.474 905.542,-201.913 861,-151.196 836.973,-123.837 727.695,-109.142 677.88,-103.763"/>
<polygon fill="green" stroke="green" stroke-width="2.51057" points="678.241,-100.282 667.932,-102.728 677.516,-107.244 678.241,-100.282"/>
</g>
<!-- &#45;21&#45;&gt;2 -->
<g id="edge46" class="edge"><title>&#45;21&#45;&gt;2</title>
<path fill="none" stroke="green" stroke-width="0.196019" stroke-dasharray="1,5" d="M894.503,-322.733C939.545,-298.598 1071.12,-220.183 1022,-151.196 1007.89,-131.385 939.778,-114.319 902.505,-106.273"/>
<polygon fill="green" stroke="green" stroke-width="0.196019" points="902.956,-102.791 892.45,-104.16 901.516,-109.641 902.956,-102.791"/>
</g>
<!-- &#45;21&#45;&gt;4550 -->
<g id="edge11" class="edge"><title>&#45;21&#45;&gt;4550</title>
<path fill="none" stroke="green" stroke-width="0.480432" d="M865.274,-328.713C781.441,-320.299 363.772,-278.378 239.767,-265.932"/>
<polygon fill="green" stroke="green" stroke-width="0.480432" points="239.988,-262.436 229.688,-264.92 239.288,-269.401 239.988,-262.436"/>
</g>
<!-- &#45;22 -->
<g id="node22" class="node"><title>&#45;22</title>
<polygon fill="lightgray" stroke="black" points="530.5,-184.945 501.5,-184.945 501.5,-166.945 530.5,-166.945 530.5,-184.945"/>
<text text-anchor="middle" x="516" y="-173.745" font-family="Times,serif" font-size="9.00">&#45;22</text>
</g>
<!-- &#45;22&#45;&gt;1 -->
<g id="edge25" class="edge"><title>&#45;22&#45;&gt;1</title>
<path fill="none" stroke="red" stroke-width="0.809553" d="M509.703,-166.76C505.286,-161.565 498.947,-155.107 492,-151.196 434.838,-119.012 356.92,-107.335 317.701,-103.316"/>
<polygon fill="red" stroke="red" stroke-width="0.809553" points="317.999,-99.8291 307.714,-102.375 317.342,-106.798 317.999,-99.8291"/>
</g>
<!-- &#45;22&#45;&gt;2 -->
<g id="edge44" class="edge"><title>&#45;22&#45;&gt;2</title>
<path fill="none" stroke="green" stroke-width="0.667969" stroke-dasharray="1,5" d="M522.175,-166.53C526.541,-161.238 532.868,-154.759 540,-151.196 595.165,-123.638 783.691,-107.961 852.553,-103.045"/>
<polygon fill="green" stroke="green" stroke-width="0.667969" points="853.165,-106.511 862.898,-102.324 852.679,-99.5277 853.165,-106.511"/>
</g>
<!-- &#45;22&#45;&gt;3 -->
<g id="edge56" class="edge"><title>&#45;22&#45;&gt;3</title>
<path fill="none" stroke="red" stroke-width="0.361296" stroke-dasharray="1,5" d="M518.438,-166.787C521.463,-156.668 526.748,-138.987 531.063,-124.553"/>
<polygon fill="red" stroke="red" stroke-width="0.361296" points="534.477,-125.354 533.987,-114.771 527.77,-123.35 534.477,-125.354"/>
</g>
<!-- &#45;23 -->
<g id="node23" class="node"><title>&#45;23</title>
<polygon fill="lightgray" stroke="black" points="984.5,-340.191 955.5,-340.191 955.5,-322.191 984.5,-322.191 984.5,-340.191"/>
<text text-anchor="middle" x="970" y="-328.991" font-family="Times,serif" font-size="9.00">&#45;23</text>
</g>
<!-- &#45;24 -->
<g id="node24" class="node"><title>&#45;24</title>
<polygon fill="lightgray" stroke="black" points="262.5,-184.945 233.5,-184.945 233.5,-166.945 262.5,-166.945 262.5,-184.945"/>
<text text-anchor="middle" x="248" y="-173.745" font-family="Times,serif" font-size="9.00">&#45;24</text>
</g>
<!-- &#45;24&#45;&gt;0 -->
<g id="edge47" class="edge"><title>&#45;24&#45;&gt;0</title>
<path fill="none" stroke="green" stroke-width="0.960921" d="M253.762,-166.926C258.12,-161.522 264.604,-154.753 272,-151.196 396.205,-91.4665 443.767,-136.053 580,-115.196 596.258,-112.707 614.429,-109.262 628.575,-106.431"/>
<polygon fill="green" stroke="green" stroke-width="0.960921" points="629.407,-109.833 638.509,-104.411 628.012,-102.973 629.407,-109.833"/>
</g>
<!-- &#45;24&#45;&gt;1 -->
<g id="edge4" class="edge"><title>&#45;24&#45;&gt;1</title>
<path fill="none" stroke="red" stroke-width="0.202638" stroke-dasharray="1,5" d="M252.988,-166.787C259.545,-156.063 271.294,-136.847 280.37,-122.002"/>
<polygon fill="red" stroke="red" stroke-width="0.202638" points="283.376,-123.797 285.606,-113.439 277.404,-120.145 283.376,-123.797"/>
</g>
<!-- 1&#45;&gt;1 -->
<g id="edge29" class="edge"><title>1&#45;&gt;1</title>
<path fill="none" stroke="red" stroke-width="0.470158" d="M303.428,-111.173C314.039,-117.541 325.849,-113.933 325.849,-100.347 325.849,-91.0064 320.267,-86.3818 313.33,-86.473"/>
<polygon fill="red" stroke="red" stroke-width="0.470158" points="311.956,-83.2338 303.428,-89.5204 314.015,-89.9242 311.956,-83.2338"/>
</g>
<!-- 2&#45;&gt;2 -->
<g id="edge26" class="edge"><title>2&#45;&gt;2</title>
<path fill="none" stroke="green" stroke-width="0.421666" d="M888.428,-111.173C899.039,-117.541 910.849,-113.933 910.849,-100.347 910.849,-91.0064 905.267,-86.3818 898.33,-86.473"/>
<polygon fill="green" stroke="green" stroke-width="0.421666" points="896.956,-83.2338 888.428,-89.5204 899.015,-89.9242 896.956,-83.2338"/>
</g>
<!-- 2&#45;&gt;3760 -->
<g id="edge34" class="edge"><title>2&#45;&gt;3760</title>
<path fill="none" stroke="green" stroke-width="0.161322" stroke-dasharray="1,5" d="M872.684,-86.1889C871.598,-78.5979 871.128,-68.6795 871.277,-59.0788"/>
<polygon fill="green" stroke="green" stroke-width="0.161322" points="874.781,-59.0418 871.68,-48.9109 867.786,-58.7643 874.781,-59.0418"/>
</g>
<!-- 3&#45;&gt;3 -->
<g id="edge16" class="edge"><title>3&#45;&gt;3</title>
<path fill="none" stroke="green" stroke-width="0.448013" d="M548.428,-111.173C559.039,-117.541 570.849,-113.933 570.849,-100.347 570.849,-91.0064 565.267,-86.3818 558.33,-86.473"/>
<polygon fill="green" stroke="green" stroke-width="0.448013" points="556.956,-83.2338 548.428,-89.5204 559.015,-89.9242 556.956,-83.2338"/>
</g>
<!-- 4550&#45;&gt;1 -->
<g id="edge19" class="edge"><title>4550&#45;&gt;1</title>
<path fill="none" stroke="red" stroke-width="0.198946" stroke-dasharray="1,5" d="M204.128,-236.454C204.375,-213.008 207.775,-177.151 224,-151.196 235.093,-133.45 255.027,-120.084 270.626,-111.682"/>
<polygon fill="red" stroke="red" stroke-width="0.198946" points="272.327,-114.743 279.661,-107.097 269.16,-108.501 272.327,-114.743"/>
</g>
<!-- 4979 -->
<g id="node31" class="node"><title>4979</title>
<ellipse fill="white" stroke="black" cx="105" cy="-175.945" rx="25" ry="25"/>
<text text-anchor="middle" x="105" y="-173.745" font-family="Times,serif" font-size="9.00">4979</text>
</g>
<!-- 4550&#45;&gt;4979 -->
<g id="edge37" class="edge"><title>4550&#45;&gt;4979</title>
<path fill="none" stroke="red" stroke-width="0.151129" d="M186.191,-244.737C170.827,-231.908 148.92,-213.617 131.733,-199.266"/>
<polygon fill="red" stroke="red" stroke-width="0.151129" points="133.644,-196.302 123.725,-192.58 129.158,-201.675 133.644,-196.302"/>
</g>
<!-- 3760&#45;&gt;2 -->
<g id="edge7" class="edge"><title>3760&#45;&gt;2</title>
<path fill="none" stroke="green" stroke-width="0.344854" stroke-dasharray="1,5" d="M884.32,-48.9109C884.89,-57.5516 884.893,-67.3607 884.331,-76.0165"/>
<polygon fill="green" stroke="green" stroke-width="0.344854" points="880.826,-75.8907 883.316,-86.1889 887.792,-76.5859 880.826,-75.8907"/>
</g>
<!-- 4979&#45;&gt;1 -->
<g id="edge41" class="edge"><title>4979&#45;&gt;1</title>
<path fill="none" stroke="red" stroke-width="0.165143" d="M123.899,-159.818C128.357,-156.689 133.211,-153.613 138,-151.196 181.566,-129.204 236.865,-114.203 268.259,-106.765"/>
<polygon fill="red" stroke="red" stroke-width="0.165143" points="269.348,-110.106 278.307,-104.451 267.777,-103.285 269.348,-110.106"/>
</g>
</g>
</svg>
