<?xml version="1.0" encoding="UTF-8" standalone="no"?>
<!DOCTYPE svg PUBLIC "-//W3C//DTD SVG 1.1//EN"
 "http://www.w3.org/Graphics/SVG/1.1/DTD/svg11.dtd">
<!-- Generated by graphviz version 2.38.0 (20140413.2041)
 -->
<!-- Title: %3 Pages: 1 -->
<svg width="1246pt" height="633pt"
 viewBox="0.00 0.00 1245.60 633.35" xmlns="http://www.w3.org/2000/svg" xmlns:xlink="http://www.w3.org/1999/xlink">
<g id="graph0" class="graph" transform="scale(1 1) rotate(0) translate(4 629.352)">
<title>%3</title>
<polygon fill="white" stroke="none" points="-4,4 -4,-629.352 1241.6,-629.352 1241.6,4 -4,4"/>
<!-- &#45;1 -->
<g id="node1" class="node"><title>&#45;1</title>
<polygon fill="lightgray" stroke="black" points="341.749,-455.579 317.749,-455.579 317.749,-437.579 341.749,-437.579 341.749,-455.579"/>
<text text-anchor="middle" x="329.749" y="-444.379" font-family="Times,serif" font-size="9.00">&#45;1</text>
</g>
<!-- 9931 -->
<g id="node35" class="node"><title>9931</title>
<ellipse fill="white" stroke="black" cx="303.749" cy="-355.425" rx="25" ry="25"/>
<text text-anchor="middle" x="303.749" y="-353.225" font-family="Times,serif" font-size="9.00">9931</text>
</g>
<!-- &#45;1&#45;&gt;9931 -->
<g id="edge9" class="edge"><title>&#45;1&#45;&gt;9931</title>
<path fill="none" stroke="green" stroke-width="0.320183" d="M327.349,-437.352C324.176,-426.469 318.394,-406.643 313.348,-389.339"/>
<polygon fill="green" stroke="green" stroke-width="0.320183" points="316.646,-388.15 310.487,-379.529 309.926,-390.109 316.646,-388.15"/>
</g>
<!-- 6507 -->
<g id="node36" class="node"><title>6507</title>
<ellipse fill="white" stroke="black" cx="201.749" cy="-267.099" rx="25" ry="25"/>
<text text-anchor="middle" x="201.749" y="-264.899" font-family="Times,serif" font-size="9.00">6507</text>
</g>
<!-- &#45;1&#45;&gt;6507 -->
<g id="edge25" class="edge"><title>&#45;1&#45;&gt;6507</title>
<path fill="none" stroke="red" stroke-width="0.271458" d="M333.43,-437.528C342.173,-417.081 361.729,-362.326 337.749,-327.848 311.492,-290.096 282.132,-311.898 240.749,-291.848 237.414,-290.232 233.996,-288.414 230.637,-286.522"/>
<polygon fill="red" stroke="red" stroke-width="0.271458" points="232.374,-283.483 221.981,-281.428 228.824,-289.516 232.374,-283.483"/>
</g>
<!-- &#45;2 -->
<g id="node2" class="node"><title>&#45;2</title>
<polygon fill="lightgray" stroke="black" points="582.749,-619.503 558.749,-619.503 558.749,-601.503 582.749,-601.503 582.749,-619.503"/>
<text text-anchor="middle" x="570.749" y="-608.303" font-family="Times,serif" font-size="9.00">&#45;2</text>
</g>
<!-- &#45;3 -->
<g id="node3" class="node"><title>&#45;3</title>
<polygon fill="lightgray" stroke="black" points="34.7487,-364.425 10.7487,-364.425 10.7487,-346.425 34.7487,-346.425 34.7487,-364.425"/>
<text text-anchor="middle" x="22.7487" y="-353.225" font-family="Times,serif" font-size="9.00">&#45;3</text>
</g>
<!-- 2197 -->
<g id="node41" class="node"><title>2197</title>
<ellipse fill="white" stroke="black" cx="24.7487" cy="-267.099" rx="25" ry="25"/>
<text text-anchor="middle" x="24.7487" y="-264.899" font-family="Times,serif" font-size="9.00">2197</text>
</g>
<!-- &#45;3&#45;&gt;2197 -->
<g id="edge23" class="edge"><title>&#45;3&#45;&gt;2197</title>
<path fill="none" stroke="green" stroke-width="0.655098" d="M22.9405,-346.148C23.1747,-336.039 23.5855,-318.307 23.9565,-302.296"/>
<polygon fill="green" stroke="green" stroke-width="0.655098" points="27.4596,-302.199 24.1922,-292.121 20.4614,-302.037 27.4596,-302.199"/>
</g>
<!-- &#45;4 -->
<g id="node4" class="node"><title>&#45;4</title>
<polygon fill="lightgray" stroke="black" points="624.749,-619.503 600.749,-619.503 600.749,-601.503 624.749,-601.503 624.749,-619.503"/>
<text text-anchor="middle" x="612.749" y="-608.303" font-family="Times,serif" font-size="9.00">&#45;4</text>
</g>
<!-- &#45;5 -->
<g id="node5" class="node"><title>&#45;5</title>
<polygon fill="lightgray" stroke="black" points="612.749,-455.579 588.749,-455.579 588.749,-437.579 612.749,-437.579 612.749,-455.579"/>
<text text-anchor="middle" x="600.749" y="-444.379" font-family="Times,serif" font-size="9.00">&#45;5</text>
</g>
<!-- 2 -->
<g id="node27" class="node"><title>2</title>
<ellipse fill="lightblue" stroke="black" cx="600.749" cy="-355.425" rx="14.7" ry="14.7"/>
<text text-anchor="middle" x="600.749" y="-353.225" font-family="Times,serif" font-size="9.00">2</text>
</g>
<!-- &#45;5&#45;&gt;2 -->
<g id="edge45" class="edge"><title>&#45;5&#45;&gt;2</title>
<path fill="none" stroke="red" stroke-width="0.91196" d="M600.749,-437.352C600.749,-424.595 600.749,-399.551 600.749,-380.684"/>
<polygon fill="red" stroke="red" stroke-width="0.91196" points="604.249,-380.429 600.749,-370.429 597.249,-380.429 604.249,-380.429"/>
</g>
<!-- &#45;6 -->
<g id="node6" class="node"><title>&#45;6</title>
<polygon fill="lightgray" stroke="black" points="636.749,-276.099 612.749,-276.099 612.749,-258.099 636.749,-258.099 636.749,-276.099"/>
<text text-anchor="middle" x="624.749" y="-264.899" font-family="Times,serif" font-size="9.00">&#45;6</text>
</g>
<!-- 6074 -->
<g id="node43" class="node"><title>6074</title>
<ellipse fill="white" stroke="black" cx="624.749" cy="-178.773" rx="25" ry="25"/>
<text text-anchor="middle" x="624.749" y="-176.573" font-family="Times,serif" font-size="9.00">6074</text>
</g>
<!-- &#45;6&#45;&gt;6074 -->
<g id="edge22" class="edge"><title>&#45;6&#45;&gt;6074</title>
<path fill="none" stroke="green" stroke-width="0.175904" d="M624.749,-257.822C624.749,-247.713 624.749,-229.981 624.749,-213.97"/>
<polygon fill="green" stroke="green" stroke-width="0.175904" points="628.249,-213.795 624.749,-203.795 621.249,-213.795 628.249,-213.795"/>
</g>
<!-- &#45;7 -->
<g id="node7" class="node"><title>&#45;7</title>
<polygon fill="lightgray" stroke="black" points="408.749,-364.425 384.749,-364.425 384.749,-346.425 408.749,-346.425 408.749,-364.425"/>
<text text-anchor="middle" x="396.749" y="-353.225" font-family="Times,serif" font-size="9.00">&#45;7</text>
</g>
<!-- &#45;7&#45;&gt;6507 -->
<g id="edge2" class="edge"><title>&#45;7&#45;&gt;6507</title>
<path fill="none" stroke="red" stroke-width="0.351818" d="M390.77,-346.328C385.979,-340.391 378.753,-332.573 370.749,-327.848 319.121,-297.371 295.767,-315.666 240.749,-291.848 237.348,-290.375 233.888,-288.649 230.505,-286.81"/>
<polygon fill="red" stroke="red" stroke-width="0.351818" points="232.228,-283.763 221.821,-281.778 228.718,-289.82 232.228,-283.763"/>
</g>
<!-- 2831 -->
<g id="node38" class="node"><title>2831</title>
<ellipse fill="white" stroke="black" cx="414.749" cy="-90.4472" rx="25" ry="25"/>
<text text-anchor="middle" x="414.749" y="-88.2472" font-family="Times,serif" font-size="9.00">2831</text>
</g>
<!-- &#45;7&#45;&gt;2831 -->
<g id="edge12" class="edge"><title>&#45;7&#45;&gt;2831</title>
<path fill="none" stroke="green" stroke-width="0.675119" d="M386.687,-346.406C352.982,-318.555 248.649,-223.763 293.749,-151.196 312.528,-120.979 351.602,-105.587 380.288,-98.0646"/>
<polygon fill="green" stroke="green" stroke-width="0.675119" points="381.432,-101.389 390.329,-95.6362 379.787,-94.585 381.432,-101.389"/>
</g>
<!-- 4505 -->
<g id="node42" class="node"><title>4505</title>
<ellipse fill="white" stroke="black" cx="205.749" cy="-178.773" rx="25" ry="25"/>
<text text-anchor="middle" x="205.749" y="-176.573" font-family="Times,serif" font-size="9.00">4505</text>
</g>
<!-- &#45;7&#45;&gt;4505 -->
<g id="edge7" class="edge"><title>&#45;7&#45;&gt;4505</title>
<path fill="none" stroke="red" stroke-width="0.327764" d="M385.809,-346.227C378.164,-340.686 367.601,-333.396 357.749,-327.848 324.128,-308.915 307.997,-317.014 278.749,-291.848 252.798,-269.519 232.526,-235.738 219.999,-211.101"/>
<polygon fill="red" stroke="red" stroke-width="0.327764" points="222.986,-209.243 215.425,-201.821 216.707,-212.338 222.986,-209.243"/>
</g>
<!-- 5851 -->
<g id="node44" class="node"><title>5851</title>
<ellipse fill="white" stroke="black" cx="493.749" cy="-267.099" rx="25" ry="25"/>
<text text-anchor="middle" x="493.749" y="-264.899" font-family="Times,serif" font-size="9.00">5851</text>
</g>
<!-- &#45;7&#45;&gt;5851 -->
<g id="edge26" class="edge"><title>&#45;7&#45;&gt;5851</title>
<path fill="none" stroke="red" stroke-width="0.448534" d="M402.533,-346.104C406.514,-340.644 412.087,-333.496 417.749,-327.848 432.35,-313.282 450.445,-298.933 465.315,-287.949"/>
<polygon fill="red" stroke="red" stroke-width="0.448534" points="467.615,-290.604 473.647,-281.894 463.5,-284.941 467.615,-290.604"/>
</g>
<!-- &#45;8 -->
<g id="node8" class="node"><title>&#45;8</title>
<polygon fill="lightgray" stroke="black" points="76.7487,-364.425 52.7487,-364.425 52.7487,-346.425 76.7487,-346.425 76.7487,-364.425"/>
<text text-anchor="middle" x="64.7487" y="-353.225" font-family="Times,serif" font-size="9.00">&#45;8</text>
</g>
<!-- 1 -->
<g id="node26" class="node"><title>1</title>
<ellipse fill="lightblue" stroke="black" cx="77.7487" cy="-14.8492" rx="14.7" ry="14.7"/>
<text text-anchor="middle" x="77.7487" y="-12.6492" font-family="Times,serif" font-size="9.00">1</text>
</g>
<!-- &#45;8&#45;&gt;1 -->
<g id="edge13" class="edge"><title>&#45;8&#45;&gt;1</title>
<path fill="none" stroke="green" stroke-width="1.14676" stroke-dasharray="1,5" d="M65.0573,-346.39C66.6708,-304.367 74.165,-109.186 76.8163,-40.1351"/>
<polygon fill="green" stroke="green" stroke-width="1.14676" points="80.3258,-39.9507 77.2122,-29.8237 73.331,-39.682 80.3258,-39.9507"/>
</g>
<!-- &#45;8&#45;&gt;6507 -->
<g id="edge14" class="edge"><title>&#45;8&#45;&gt;6507</title>
<path fill="none" stroke="green" stroke-width="0.356838" stroke-dasharray="1,5" d="M71.4782,-346.346C76.429,-340.72 83.5279,-333.281 90.7487,-327.848 115.537,-309.195 146.906,-292.88 169.969,-282.033"/>
<polygon fill="green" stroke="green" stroke-width="0.356838" points="171.686,-285.095 179.301,-277.728 168.754,-278.739 171.686,-285.095"/>
</g>
<!-- &#45;8&#45;&gt;2197 -->
<g id="edge39" class="edge"><title>&#45;8&#45;&gt;2197</title>
<path fill="none" stroke="green" stroke-width="0.282932" d="M60.9134,-346.148C55.9442,-335.423 46.9986,-316.118 39.248,-299.391"/>
<polygon fill="green" stroke="green" stroke-width="0.282932" points="42.2417,-297.526 34.8618,-289.925 35.8904,-300.469 42.2417,-297.526"/>
</g>
<!-- &#45;8&#45;&gt;4505 -->
<g id="edge35" class="edge"><title>&#45;8&#45;&gt;4505</title>
<path fill="none" stroke="red" stroke-width="0.66206" stroke-dasharray="1,5" d="M71.5495,-346.001C91.7236,-321.012 151.849,-246.537 184.342,-206.289"/>
<polygon fill="red" stroke="red" stroke-width="0.66206" points="187.084,-208.464 190.643,-198.485 181.638,-204.067 187.084,-208.464"/>
</g>
<!-- &#45;8&#45;&gt;5851 -->
<g id="edge34" class="edge"><title>&#45;8&#45;&gt;5851</title>
<path fill="none" stroke="green" stroke-width="0.20433" stroke-dasharray="1,5" d="M76.9899,-347.561C88.6412,-341.359 106.855,-332.51 123.749,-327.848 257.881,-290.835 299.894,-326.133 434.749,-291.848 443.923,-289.515 453.57,-286.081 462.344,-282.546"/>
<polygon fill="green" stroke="green" stroke-width="0.20433" points="463.947,-285.668 471.807,-278.563 461.232,-279.216 463.947,-285.668"/>
</g>
<!-- &#45;9 -->
<g id="node9" class="node"><title>&#45;9</title>
<polygon fill="lightgray" stroke="black" points="678.749,-276.099 654.749,-276.099 654.749,-258.099 678.749,-258.099 678.749,-276.099"/>
<text text-anchor="middle" x="666.749" y="-264.899" font-family="Times,serif" font-size="9.00">&#45;9</text>
</g>
<!-- &#45;9&#45;&gt;6074 -->
<g id="edge36" class="edge"><title>&#45;9&#45;&gt;6074</title>
<path fill="none" stroke="red" stroke-width="0.432601" d="M662.722,-257.822C657.421,-246.926 647.81,-227.172 639.584,-210.265"/>
<polygon fill="red" stroke="red" stroke-width="0.432601" points="642.715,-208.7 635.192,-201.239 636.42,-211.762 642.715,-208.7"/>
</g>
<!-- &#45;10 -->
<g id="node10" class="node"><title>&#45;10</title>
<polygon fill="lightgray" stroke="black" points="672.249,-619.503 643.249,-619.503 643.249,-601.503 672.249,-601.503 672.249,-619.503"/>
<text text-anchor="middle" x="657.749" y="-608.303" font-family="Times,serif" font-size="9.00">&#45;10</text>
</g>
<!-- &#45;11 -->
<g id="node11" class="node"><title>&#45;11</title>
<polygon fill="lightgray" stroke="black" points="719.249,-619.503 690.249,-619.503 690.249,-601.503 719.249,-601.503 719.249,-619.503"/>
<text text-anchor="middle" x="704.749" y="-608.303" font-family="Times,serif" font-size="9.00">&#45;11</text>
</g>
<!-- &#45;12 -->
<g id="node12" class="node"><title>&#45;12</title>
<polygon fill="lightgray" stroke="black" points="766.249,-619.503 737.249,-619.503 737.249,-601.503 766.249,-601.503 766.249,-619.503"/>
<text text-anchor="middle" x="751.749" y="-608.303" font-family="Times,serif" font-size="9.00">&#45;12</text>
</g>
<!-- &#45;13 -->
<g id="node13" class="node"><title>&#45;13</title>
<polygon fill="lightgray" stroke="black" points="813.249,-619.503 784.249,-619.503 784.249,-601.503 813.249,-601.503 813.249,-619.503"/>
<text text-anchor="middle" x="798.749" y="-608.303" font-family="Times,serif" font-size="9.00">&#45;13</text>
</g>
<!-- &#45;14 -->
<g id="node14" class="node"><title>&#45;14</title>
<polygon fill="lightgray" stroke="black" points="426.249,-276.099 397.249,-276.099 397.249,-258.099 426.249,-258.099 426.249,-276.099"/>
<text text-anchor="middle" x="411.749" y="-264.899" font-family="Times,serif" font-size="9.00">&#45;14</text>
</g>
<!-- 12003 -->
<g id="node29" class="node"><title>12003</title>
<ellipse fill="white" stroke="black" cx="442.749" cy="-178.773" rx="27.6545" ry="27.6545"/>
<text text-anchor="middle" x="442.749" y="-176.573" font-family="Times,serif" font-size="9.00">12003</text>
</g>
<!-- &#45;14&#45;&gt;12003 -->
<g id="edge18" class="edge"><title>&#45;14&#45;&gt;12003</title>
<path fill="none" stroke="green" stroke-width="0.277414" d="M414.721,-257.822C418.31,-247.827 424.576,-230.378 430.275,-214.509"/>
<polygon fill="green" stroke="green" stroke-width="0.277414" points="433.635,-215.509 433.72,-204.914 427.047,-213.143 433.635,-215.509"/>
</g>
<!-- 12713 -->
<g id="node33" class="node"><title>12713</title>
<ellipse fill="white" stroke="black" cx="330.749" cy="-178.773" rx="27.6545" ry="27.6545"/>
<text text-anchor="middle" x="330.749" y="-176.573" font-family="Times,serif" font-size="9.00">12713</text>
</g>
<!-- &#45;14&#45;&gt;12713 -->
<g id="edge27" class="edge"><title>&#45;14&#45;&gt;12713</title>
<path fill="none" stroke="green" stroke-width="0.305415" d="M403.982,-257.822C393.131,-246.257 372.917,-224.714 356.471,-207.187"/>
<polygon fill="green" stroke="green" stroke-width="0.305415" points="358.622,-204.364 349.227,-199.466 353.517,-209.154 358.622,-204.364"/>
</g>
<!-- 10861 -->
<g id="node37" class="node"><title>10861</title>
<ellipse fill="white" stroke="black" cx="554.749" cy="-178.773" rx="27.6545" ry="27.6545"/>
<text text-anchor="middle" x="554.749" y="-176.573" font-family="Times,serif" font-size="9.00">10861</text>
</g>
<!-- &#45;14&#45;&gt;10861 -->
<g id="edge1" class="edge"><title>&#45;14&#45;&gt;10861</title>
<path fill="none" stroke="green" stroke-width="0.998988" d="M425.202,-257.978C447.35,-244.607 492.086,-217.601 522.729,-199.103"/>
<polygon fill="green" stroke="green" stroke-width="0.998988" points="524.604,-202.059 531.357,-193.894 520.987,-196.066 524.604,-202.059"/>
</g>
<!-- &#45;14&#45;&gt;2831 -->
<g id="edge42" class="edge"><title>&#45;14&#45;&gt;2831</title>
<path fill="none" stroke="red" stroke-width="0.186054" stroke-dasharray="1,5" d="M410.676,-258.001C409.215,-246.53 406.677,-224.884 405.749,-206.35 404.523,-181.868 403.918,-175.641 405.749,-151.196 406.389,-142.643 407.539,-133.46 408.806,-124.92"/>
<polygon fill="red" stroke="red" stroke-width="0.186054" points="412.285,-125.332 410.385,-114.909 405.37,-124.242 412.285,-125.332"/>
</g>
<!-- &#45;15 -->
<g id="node15" class="node"><title>&#45;15</title>
<polygon fill="lightgray" stroke="black" points="860.249,-619.503 831.249,-619.503 831.249,-601.503 860.249,-601.503 860.249,-619.503"/>
<text text-anchor="middle" x="845.749" y="-608.303" font-family="Times,serif" font-size="9.00">&#45;15</text>
</g>
<!-- &#45;16 -->
<g id="node16" class="node"><title>&#45;16</title>
<polygon fill="lightgray" stroke="black" points="456.249,-364.425 427.249,-364.425 427.249,-346.425 456.249,-346.425 456.249,-364.425"/>
<text text-anchor="middle" x="441.749" y="-353.225" font-family="Times,serif" font-size="9.00">&#45;16</text>
</g>
<!-- &#45;16&#45;&gt;5851 -->
<g id="edge11" class="edge"><title>&#45;16&#45;&gt;5851</title>
<path fill="none" stroke="red" stroke-width="0.167678" stroke-dasharray="1,5" d="M446.735,-346.148C453.445,-335.007 465.734,-314.607 476.065,-297.456"/>
<polygon fill="red" stroke="red" stroke-width="0.167678" points="479.087,-299.222 481.249,-288.85 473.091,-295.61 479.087,-299.222"/>
</g>
<!-- &#45;17 -->
<g id="node17" class="node"><title>&#45;17</title>
<polygon fill="lightgray" stroke="black" points="907.249,-619.503 878.249,-619.503 878.249,-601.503 907.249,-601.503 907.249,-619.503"/>
<text text-anchor="middle" x="892.749" y="-608.303" font-family="Times,serif" font-size="9.00">&#45;17</text>
</g>
<!-- &#45;18 -->
<g id="node18" class="node"><title>&#45;18</title>
<polygon fill="lightgray" stroke="black" points="954.249,-619.503 925.249,-619.503 925.249,-601.503 954.249,-601.503 954.249,-619.503"/>
<text text-anchor="middle" x="939.749" y="-608.303" font-family="Times,serif" font-size="9.00">&#45;18</text>
</g>
<!-- &#45;19 -->
<g id="node19" class="node"><title>&#45;19</title>
<polygon fill="lightgray" stroke="black" points="1001.25,-619.503 972.249,-619.503 972.249,-601.503 1001.25,-601.503 1001.25,-619.503"/>
<text text-anchor="middle" x="986.749" y="-608.303" font-family="Times,serif" font-size="9.00">&#45;19</text>
</g>
<!-- &#45;20 -->
<g id="node20" class="node"><title>&#45;20</title>
<polygon fill="lightgray" stroke="black" points="493.249,-619.503 464.249,-619.503 464.249,-601.503 493.249,-601.503 493.249,-619.503"/>
<text text-anchor="middle" x="478.749" y="-608.303" font-family="Times,serif" font-size="9.00">&#45;20</text>
</g>
<!-- 9704 -->
<g id="node32" class="node"><title>9704</title>
<ellipse fill="white" stroke="black" cx="501.749" cy="-534.905" rx="25" ry="25"/>
<text text-anchor="middle" x="501.749" y="-532.705" font-family="Times,serif" font-size="9.00">9704</text>
</g>
<!-- &#45;20&#45;&gt;9704 -->
<g id="edge47" class="edge"><title>&#45;20&#45;&gt;9704</title>
<path fill="none" stroke="green" stroke-width="0.671679" d="M481.298,-601.346C483.783,-593.393 487.729,-580.769 491.494,-568.721"/>
<polygon fill="green" stroke="green" stroke-width="0.671679" points="494.936,-569.44 494.578,-558.852 488.254,-567.352 494.936,-569.44"/>
</g>
<!-- &#45;21 -->
<g id="node21" class="node"><title>&#45;21</title>
<polygon fill="lightgray" stroke="black" points="1048.25,-619.503 1019.25,-619.503 1019.25,-601.503 1048.25,-601.503 1048.25,-619.503"/>
<text text-anchor="middle" x="1033.75" y="-608.303" font-family="Times,serif" font-size="9.00">&#45;21</text>
</g>
<!-- &#45;22 -->
<g id="node22" class="node"><title>&#45;22</title>
<polygon fill="lightgray" stroke="black" points="1095.25,-619.503 1066.25,-619.503 1066.25,-601.503 1095.25,-601.503 1095.25,-619.503"/>
<text text-anchor="middle" x="1080.75" y="-608.303" font-family="Times,serif" font-size="9.00">&#45;22</text>
</g>
<!-- &#45;23 -->
<g id="node23" class="node"><title>&#45;23</title>
<polygon fill="lightgray" stroke="black" points="540.249,-619.503 511.249,-619.503 511.249,-601.503 540.249,-601.503 540.249,-619.503"/>
<text text-anchor="middle" x="525.749" y="-608.303" font-family="Times,serif" font-size="9.00">&#45;23</text>
</g>
<!-- &#45;23&#45;&gt;9704 -->
<g id="edge4" class="edge"><title>&#45;23&#45;&gt;9704</title>
<path fill="none" stroke="green" stroke-width="1.0896" d="M523.089,-601.346C520.45,-593.254 516.235,-580.327 512.245,-568.092"/>
<polygon fill="green" stroke="green" stroke-width="1.0896" points="515.555,-566.955 509.127,-558.533 508.9,-569.125 515.555,-566.955"/>
</g>
<!-- &#45;24 -->
<g id="node24" class="node"><title>&#45;24</title>
<polygon fill="lightgray" stroke="black" points="1142.25,-619.503 1113.25,-619.503 1113.25,-601.503 1142.25,-601.503 1142.25,-619.503"/>
<text text-anchor="middle" x="1127.75" y="-608.303" font-family="Times,serif" font-size="9.00">&#45;24</text>
</g>
<!-- 0 -->
<g id="node25" class="node"><title>0</title>
<ellipse fill="lightblue" stroke="black" cx="1174.75" cy="-610.503" rx="14.7" ry="14.7"/>
<text text-anchor="middle" x="1174.75" y="-608.303" font-family="Times,serif" font-size="9.00">0</text>
</g>
<!-- 2&#45;&gt;6507 -->
<g id="edge6" class="edge"><title>2&#45;&gt;6507</title>
<path fill="none" stroke="red" stroke-width="1.80589" d="M587.772,-347.82C575.448,-341.801 556.254,-333.076 538.749,-327.848 430.838,-295.62 297.989,-278.362 236.28,-271.573"/>
<polygon fill="red" stroke="red" stroke-width="1.80589" points="236.62,-268.089 226.303,-270.499 235.871,-275.049 236.62,-268.089"/>
</g>
<!-- 2&#45;&gt;2831 -->
<g id="edge44" class="edge"><title>2&#45;&gt;2831</title>
<path fill="none" stroke="red" stroke-width="0.125745" stroke-dasharray="1,5" d="M614.483,-349.315C634.847,-340.898 672.304,-321.982 687.749,-291.848 716.861,-235.047 705.386,-194.771 658.749,-151.196 628.536,-122.967 509.218,-103.777 449.367,-95.7221"/>
<polygon fill="red" stroke="red" stroke-width="0.125745" points="449.633,-92.227 439.262,-94.3922 448.72,-99.1672 449.633,-92.227"/>
</g>
<!-- 2&#45;&gt;6074 -->
<g id="edge46" class="edge"><title>2&#45;&gt;6074</title>
<path fill="none" stroke="red" stroke-width="0.930184" d="M599.807,-340.489C598.661,-319.163 597.572,-277.233 603.749,-242.35 605.558,-232.133 608.715,-221.315 612.039,-211.599"/>
<polygon fill="red" stroke="red" stroke-width="0.930184" points="615.421,-212.539 615.515,-201.945 608.834,-210.168 615.421,-212.539"/>
</g>
<!-- 3 -->
<g id="node28" class="node"><title>3</title>
<ellipse fill="lightblue" stroke="black" cx="1222.75" cy="-610.503" rx="14.7" ry="14.7"/>
<text text-anchor="middle" x="1222.75" y="-608.303" font-family="Times,serif" font-size="9.00">3</text>
</g>
<!-- 12003&#45;&gt;2831 -->
<g id="edge41" class="edge"><title>12003&#45;&gt;2831</title>
<path fill="none" stroke="green" stroke-width="0.682584" d="M434.499,-152.339C431.632,-143.501 428.376,-133.461 425.346,-124.12"/>
<polygon fill="green" stroke="green" stroke-width="0.682584" points="428.591,-122.78 422.176,-114.347 421.933,-124.939 428.591,-122.78"/>
</g>
<!-- 12998 -->
<g id="node30" class="node"><title>12998</title>
<ellipse fill="white" stroke="black" cx="501.749" cy="-446.579" rx="27.6545" ry="27.6545"/>
<text text-anchor="middle" x="501.749" y="-444.379" font-family="Times,serif" font-size="9.00">12998</text>
</g>
<!-- 10472 -->
<g id="node34" class="node"><title>10472</title>
<ellipse fill="white" stroke="black" cx="501.749" cy="-355.425" rx="27.6545" ry="27.6545"/>
<text text-anchor="middle" x="501.749" y="-353.225" font-family="Times,serif" font-size="9.00">10472</text>
</g>
<!-- 12998&#45;&gt;10472 -->
<g id="edge30" class="edge"><title>12998&#45;&gt;10472</title>
<path fill="none" stroke="green" stroke-width="0.350414" d="M501.749,-418.83C501.749,-410.808 501.749,-401.863 501.749,-393.309"/>
<polygon fill="green" stroke="green" stroke-width="0.350414" points="505.249,-393.155 501.749,-383.155 498.249,-393.155 505.249,-393.155"/>
</g>
<!-- 7718 -->
<g id="node31" class="node"><title>7718</title>
<ellipse fill="white" stroke="black" cx="160.749" cy="-446.579" rx="25" ry="25"/>
<text text-anchor="middle" x="160.749" y="-444.379" font-family="Times,serif" font-size="9.00">7718</text>
</g>
<!-- 7718&#45;&gt;6507 -->
<g id="edge32" class="edge"><title>7718&#45;&gt;6507</title>
<path fill="none" stroke="red" stroke-width="0.938135" stroke-dasharray="1,5" d="M146.143,-426.544C129.746,-402.679 107.436,-360.892 123.749,-327.848 133.433,-308.231 152.99,-293.274 170.098,-283.231"/>
<polygon fill="red" stroke="red" stroke-width="0.938135" points="172.214,-286.06 179.272,-278.158 168.827,-279.934 172.214,-286.06"/>
</g>
<!-- 10705 -->
<g id="node39" class="node"><title>10705</title>
<ellipse fill="white" stroke="black" cx="160.749" cy="-355.425" rx="27.6545" ry="27.6545"/>
<text text-anchor="middle" x="160.749" y="-353.225" font-family="Times,serif" font-size="9.00">10705</text>
</g>
<!-- 7718&#45;&gt;10705 -->
<g id="edge10" class="edge"><title>7718&#45;&gt;10705</title>
<path fill="none" stroke="red" stroke-width="1.02765" d="M160.749,-421.688C160.749,-412.975 160.749,-402.909 160.749,-393.33"/>
<polygon fill="red" stroke="red" stroke-width="1.02765" points="164.249,-393.214 160.749,-383.214 157.249,-393.214 164.249,-393.214"/>
</g>
<!-- 12339 -->
<g id="node40" class="node"><title>12339</title>
<ellipse fill="white" stroke="black" cx="233.749" cy="-355.425" rx="27.6545" ry="27.6545"/>
<text text-anchor="middle" x="233.749" y="-353.225" font-family="Times,serif" font-size="9.00">12339</text>
</g>
<!-- 7718&#45;&gt;12339 -->
<g id="edge16" class="edge"><title>7718&#45;&gt;12339</title>
<path fill="none" stroke="red" stroke-width="0.445698" d="M176.23,-426.672C186.073,-414.651 199.01,-398.851 210.122,-385.281"/>
<polygon fill="red" stroke="red" stroke-width="0.445698" points="213.133,-387.128 216.76,-377.173 207.717,-382.693 213.133,-387.128"/>
</g>
<!-- 9704&#45;&gt;12998 -->
<g id="edge37" class="edge"><title>9704&#45;&gt;12998</title>
<path fill="none" stroke="green" stroke-width="0.3" d="M501.749,-509.859C501.749,-501.985 501.749,-493.047 501.749,-484.45"/>
<polygon fill="green" stroke="green" stroke-width="0.3" points="505.249,-484.227 501.749,-474.227 498.249,-484.227 505.249,-484.227"/>
</g>
<!-- 9704&#45;&gt;10472 -->
<g id="edge43" class="edge"><title>9704&#45;&gt;10472</title>
<path fill="none" stroke="green" stroke-width="0.220358" d="M486.454,-515.296C478.273,-504.114 469.023,-489.177 464.749,-474.156 458.04,-450.579 458.282,-442.647 464.749,-419.002 467.859,-407.631 473.625,-396.227 479.695,-386.328"/>
<polygon fill="green" stroke="green" stroke-width="0.220358" points="482.783,-387.999 485.288,-377.704 476.91,-384.19 482.783,-387.999"/>
</g>
<!-- 9704&#45;&gt;5851 -->
<g id="edge20" class="edge"><title>9704&#45;&gt;5851</title>
<path fill="none" stroke="green" stroke-width="0.643143" stroke-dasharray="1,5" d="M517.043,-515.296C525.224,-504.114 534.474,-489.177 538.749,-474.156 556.546,-411.613 559.374,-389.516 538.749,-327.848 534.426,-314.923 526.085,-302.554 517.747,-292.458"/>
<polygon fill="green" stroke="green" stroke-width="0.643143" points="520.348,-290.115 511.137,-284.88 515.073,-294.717 520.348,-290.115"/>
</g>
<!-- 12713&#45;&gt;2831 -->
<g id="edge31" class="edge"><title>12713&#45;&gt;2831</title>
<path fill="none" stroke="red" stroke-width="1.41558" d="M349.81,-158.184C361.868,-145.792 377.565,-129.661 390.506,-116.362"/>
<polygon fill="red" stroke="red" stroke-width="1.41558" points="393.293,-118.516 397.758,-108.908 388.276,-113.635 393.293,-118.516"/>
</g>
<!-- 10472&#45;&gt;10861 -->
<g id="edge3" class="edge"><title>10472&#45;&gt;10861</title>
<path fill="none" stroke="green" stroke-width="0.652983" d="M512.907,-330.093C517.883,-318.645 523.556,-304.711 527.749,-291.848 535.888,-266.879 542.777,-238.061 547.559,-215.9"/>
<polygon fill="green" stroke="green" stroke-width="0.652983" points="551.026,-216.422 549.669,-205.914 544.177,-214.974 551.026,-216.422"/>
</g>
<!-- 10472&#45;&gt;5851 -->
<g id="edge15" class="edge"><title>10472&#45;&gt;5851</title>
<path fill="none" stroke="red" stroke-width="1.16923" d="M499.261,-327.584C498.511,-319.491 497.678,-310.5 496.891,-302.01"/>
<polygon fill="red" stroke="red" stroke-width="1.16923" points="500.371,-301.631 495.963,-291.997 493.401,-302.277 500.371,-301.631"/>
</g>
<!-- 9931&#45;&gt;6507 -->
<g id="edge19" class="edge"><title>9931&#45;&gt;6507</title>
<path fill="none" stroke="red" stroke-width="0.180888" d="M285.04,-338.591C269.081,-325.084 245.954,-305.511 228.117,-290.415"/>
<polygon fill="red" stroke="red" stroke-width="0.180888" points="230.233,-287.621 220.339,-283.832 225.711,-292.964 230.233,-287.621"/>
</g>
<!-- 6507&#45;&gt;4505 -->
<g id="edge38" class="edge"><title>6507&#45;&gt;4505</title>
<path fill="none" stroke="red" stroke-width="0.689337" stroke-dasharray="1,5" d="M202.863,-242.052C203.266,-233.353 203.729,-223.355 204.165,-213.953"/>
<polygon fill="red" stroke="red" stroke-width="0.689337" points="207.674,-213.842 204.64,-203.691 200.681,-213.518 207.674,-213.842"/>
</g>
<!-- 10861&#45;&gt;2831 -->
<g id="edge40" class="edge"><title>10861&#45;&gt;2831</title>
<path fill="none" stroke="red" stroke-width="0.211319" stroke-dasharray="1,5" d="M531.685,-163.082C525.544,-159.197 518.906,-155.021 512.749,-151.196 489.953,-137.036 464.021,-121.239 444.56,-109.446"/>
<polygon fill="red" stroke="red" stroke-width="0.211319" points="446.207,-106.351 435.839,-104.167 442.582,-112.34 446.207,-106.351"/>
</g>
<!-- 2831&#45;&gt;1 -->
<g id="edge8" class="edge"><title>2831&#45;&gt;1</title>
<path fill="none" stroke="red" stroke-width="0.809811" d="M390.783,-84.2132C328.934,-70.706 164.442,-34.7824 102.133,-21.1746"/>
<polygon fill="red" stroke="red" stroke-width="0.809811" points="102.576,-17.6888 92.0592,-18.9745 101.082,-24.5276 102.576,-17.6888"/>
</g>
<!-- 10705&#45;&gt;6507 -->
<g id="edge5" class="edge"><title>10705&#45;&gt;6507</title>
<path fill="none" stroke="red" stroke-width="0.9435" d="M172.388,-329.918C176.945,-320.324 182.225,-309.206 187.041,-299.066"/>
<polygon fill="red" stroke="red" stroke-width="0.9435" points="190.348,-300.261 191.477,-289.726 184.025,-297.257 190.348,-300.261"/>
</g>
<!-- 12339&#45;&gt;6507 -->
<g id="edge24" class="edge"><title>12339&#45;&gt;6507</title>
<path fill="none" stroke="red" stroke-width="0.902388" d="M224.321,-328.991C220.982,-319.985 217.181,-309.731 213.663,-300.24"/>
<polygon fill="red" stroke="red" stroke-width="0.902388" points="216.888,-298.87 210.13,-290.71 210.324,-301.303 216.888,-298.87"/>
</g>
<!-- 2197&#45;&gt;1 -->
<g id="edge21" class="edge"><title>2197&#45;&gt;1</title>
<path fill="none" stroke="green" stroke-width="0.827539" d="M28.6948,-242.518C35.1308,-204.919 48.6901,-129.154 63.7487,-65.6985 65.8211,-56.9658 68.4065,-47.4623 70.7896,-39.1175"/>
<polygon fill="green" stroke="green" stroke-width="0.827539" points="74.2093,-39.8922 73.646,-29.3123 67.4887,-37.9343 74.2093,-39.8922"/>
</g>
<!-- 4505&#45;&gt;2831 -->
<g id="edge28" class="edge"><title>4505&#45;&gt;2831</title>
<path fill="none" stroke="red" stroke-width="0.886649" d="M227.509,-166.762C237.542,-161.814 249.662,-156.016 260.749,-151.196 302.041,-133.243 350.611,-114.837 381.999,-103.287"/>
<polygon fill="red" stroke="red" stroke-width="0.886649" points="383.369,-106.512 391.555,-99.7868 380.961,-99.9394 383.369,-106.512"/>
</g>
<!-- 6074&#45;&gt;2831 -->
<g id="edge29" class="edge"><title>6074&#45;&gt;2831</title>
<path fill="none" stroke="red" stroke-width="0.112896" d="M606.719,-161.374C602.066,-157.683 596.908,-154.027 591.749,-151.196 544.965,-125.53 485.205,-108.175 448.473,-99.0496"/>
<polygon fill="red" stroke="red" stroke-width="0.112896" points="449.296,-95.6479 438.753,-96.6941 447.647,-102.451 449.296,-95.6479"/>
</g>
<!-- 5851&#45;&gt;2831 -->
<g id="edge33" class="edge"><title>5851&#45;&gt;2831</title>
<path fill="none" stroke="green" stroke-width="0.650515" stroke-dasharray="1,5" d="M495.501,-242.264C496.254,-218.005 494.527,-179.978 479.749,-151.196 471.4,-134.936 456.725,-120.859 443.429,-110.461"/>
<polygon fill="green" stroke="green" stroke-width="0.650515" points="445.507,-107.644 435.398,-104.474 441.324,-113.257 445.507,-107.644"/>
</g>
<!-- 5851&#45;&gt;6074 -->
<g id="edge17" class="edge"><title>5851&#45;&gt;6074</title>
<path fill="none" stroke="red" stroke-width="0.299496" d="M515.286,-254.055C535.49,-242.505 566.319,-224.228 591.749,-206.35 593.855,-204.87 596.002,-203.297 598.14,-201.685"/>
<polygon fill="red" stroke="red" stroke-width="0.299496" points="600.489,-204.292 606.229,-195.387 596.188,-198.769 600.489,-204.292"/>
</g>
</g>
</svg>
