<?xml version="1.0" encoding="UTF-8" standalone="no"?>
<!DOCTYPE svg PUBLIC "-//W3C//DTD SVG 1.1//EN"
 "http://www.w3.org/Graphics/SVG/1.1/DTD/svg11.dtd">
<!-- Generated by graphviz version 2.38.0 (20140413.2041)
 -->
<!-- Title: %3 Pages: 1 -->
<svg width="1461pt" height="197pt"
 viewBox="0.00 0.00 1461.48 196.99" xmlns="http://www.w3.org/2000/svg" xmlns:xlink="http://www.w3.org/1999/xlink">
<g id="graph0" class="graph" transform="scale(1 1) rotate(0) translate(4 192.995)">
<title>%3</title>
<polygon fill="white" stroke="none" points="-4,4 -4,-192.995 1457.48,-192.995 1457.48,4 -4,4"/>
<!-- &#45;1 -->
<g id="node1" class="node"><title>&#45;1</title>
<polygon fill="lightgray" stroke="black" points="777.749,-119.246 753.749,-119.246 753.749,-101.246 777.749,-101.246 777.749,-119.246"/>
<text text-anchor="middle" x="765.749" y="-108.046" font-family="Times,serif" font-size="9.00">&#45;1</text>
</g>
<!-- 0 -->
<g id="node25" class="node"><title>0</title>
<ellipse fill="lightblue" stroke="black" cx="355.749" cy="-24.7487" rx="14.7" ry="14.7"/>
<text text-anchor="middle" x="355.749" y="-22.5487" font-family="Times,serif" font-size="9.00">0</text>
</g>
<!-- &#45;1&#45;&gt;0 -->
<g id="edge10" class="edge"><title>&#45;1&#45;&gt;0</title>
<path fill="none" stroke="red" stroke-width="0.121391" stroke-dasharray="1,5" d="M753.546,-106.044C735.205,-101.281 699.412,-92.1731 668.749,-85.4975 562.014,-62.2602 433.721,-39.3236 380.624,-30.0481"/>
<polygon fill="red" stroke="red" stroke-width="0.121391" points="380.922,-26.5474 370.47,-28.281 379.722,-33.4438 380.922,-26.5474"/>
</g>
<!-- 1 -->
<g id="node26" class="node"><title>1</title>
<ellipse fill="lightblue" stroke="black" cx="1044.75" cy="-24.7487" rx="14.7" ry="14.7"/>
<text text-anchor="middle" x="1044.75" y="-22.5487" font-family="Times,serif" font-size="9.00">1</text>
</g>
<!-- &#45;1&#45;&gt;1 -->
<g id="edge13" class="edge"><title>&#45;1&#45;&gt;1</title>
<path fill="none" stroke="green" stroke-width="0.12048" d="M771.026,-101.008C774.793,-95.7907 780.318,-89.3276 786.749,-85.4975 863.158,-39.9898 971.397,-29.1409 1019.74,-26.5562"/>
<polygon fill="green" stroke="green" stroke-width="0.12048" points="1020.08,-30.0446 1029.9,-26.0901 1019.75,-23.052 1020.08,-30.0446"/>
</g>
<!-- 3 -->
<g id="node28" class="node"><title>3</title>
<ellipse fill="lightblue" stroke="black" cx="786.749" cy="-24.7487" rx="14.7" ry="14.7"/>
<text text-anchor="middle" x="786.749" y="-22.5487" font-family="Times,serif" font-size="9.00">3</text>
</g>
<!-- &#45;1&#45;&gt;3 -->
<g id="edge46" class="edge"><title>&#45;1&#45;&gt;3</title>
<path fill="none" stroke="green" stroke-width="0.190637" stroke-dasharray="1,5" d="M767.762,-101.24C770.738,-89.4093 776.429,-66.7806 780.808,-49.3709"/>
<polygon fill="green" stroke="green" stroke-width="0.190637" points="784.283,-49.9001 783.328,-39.3484 777.495,-48.1927 784.283,-49.9001"/>
</g>
<!-- &#45;2 -->
<g id="node2" class="node"><title>&#45;2</title>
<polygon fill="lightgray" stroke="black" points="390.749,-119.246 366.749,-119.246 366.749,-101.246 390.749,-101.246 390.749,-119.246"/>
<text text-anchor="middle" x="378.749" y="-108.046" font-family="Times,serif" font-size="9.00">&#45;2</text>
</g>
<!-- &#45;2&#45;&gt;0 -->
<g id="edge2" class="edge"><title>&#45;2&#45;&gt;0</title>
<path fill="none" stroke="red" stroke-width="0.513452" d="M376.543,-101.24C373.285,-89.4093 367.051,-66.7806 362.256,-49.3709"/>
<polygon fill="red" stroke="red" stroke-width="0.513452" points="365.525,-48.0598 359.495,-39.3484 358.776,-49.9189 365.525,-48.0598"/>
</g>
<!-- 2 -->
<g id="node27" class="node"><title>2</title>
<ellipse fill="lightblue" stroke="black" cx="554.749" cy="-24.7487" rx="14.7" ry="14.7"/>
<text text-anchor="middle" x="554.749" y="-22.5487" font-family="Times,serif" font-size="9.00">2</text>
</g>
<!-- &#45;2&#45;&gt;2 -->
<g id="edge34" class="edge"><title>&#45;2&#45;&gt;2</title>
<path fill="none" stroke="red" stroke-width="0.154163" d="M384.558,-100.846C388.386,-95.828 393.783,-89.6435 399.749,-85.4975 441.239,-56.6633 498.534,-39.3119 530.57,-31.2309"/>
<polygon fill="red" stroke="red" stroke-width="0.154163" points="531.515,-34.6033 540.407,-28.8426 529.864,-27.8009 531.515,-34.6033"/>
</g>
<!-- &#45;3 -->
<g id="node3" class="node"><title>&#45;3</title>
<polygon fill="lightgray" stroke="black" points="474.749,-119.246 450.749,-119.246 450.749,-101.246 474.749,-101.246 474.749,-119.246"/>
<text text-anchor="middle" x="462.749" y="-108.046" font-family="Times,serif" font-size="9.00">&#45;3</text>
</g>
<!-- &#45;3&#45;&gt;2 -->
<g id="edge24" class="edge"><title>&#45;3&#45;&gt;2</title>
<path fill="none" stroke="red" stroke-width="0.434434" stroke-dasharray="1,5" d="M469.857,-101.109C474.06,-96.4172 479.56,-90.48 484.749,-85.4975 501.165,-69.7352 520.984,-53.0162 535.337,-41.2848"/>
<polygon fill="red" stroke="red" stroke-width="0.434434" points="537.923,-43.6938 543.488,-34.678 533.515,-38.2558 537.923,-43.6938"/>
</g>
<!-- &#45;4 -->
<g id="node4" class="node"><title>&#45;4</title>
<polygon fill="lightgray" stroke="black" points="944.749,-188.995 920.749,-188.995 920.749,-170.995 944.749,-170.995 944.749,-188.995"/>
<text text-anchor="middle" x="932.749" y="-177.795" font-family="Times,serif" font-size="9.00">&#45;4</text>
</g>
<!-- &#45;4&#45;&gt;0 -->
<g id="edge39" class="edge"><title>&#45;4&#45;&gt;0</title>
<path fill="none" stroke="green" stroke-width="0.26868" stroke-dasharray="1,5" d="M920.488,-178.421C830.436,-174.179 274.464,-147.505 262.749,-134.995 247.711,-118.938 252.204,-104.805 262.749,-85.4975 277.346,-58.7688 309.584,-42.2183 331.981,-33.4983"/>
<polygon fill="green" stroke="green" stroke-width="0.26868" points="333.285,-36.7483 341.481,-30.0343 330.887,-30.1719 333.285,-36.7483"/>
</g>
<!-- &#45;4&#45;&gt;1 -->
<g id="edge53" class="edge"><title>&#45;4&#45;&gt;1</title>
<path fill="none" stroke="green" stroke-width="0.106169" stroke-dasharray="1,5" d="M945.169,-172.762C958.856,-165.363 980.778,-151.873 994.749,-134.995 1016.09,-109.217 1030.32,-72.844 1037.97,-49.2793"/>
<polygon fill="green" stroke="green" stroke-width="0.106169" points="1041.4,-50.0256 1041.02,-39.4375 1034.72,-47.9507 1041.4,-50.0256"/>
</g>
<!-- &#45;4&#45;&gt;3 -->
<g id="edge21" class="edge"><title>&#45;4&#45;&gt;3</title>
<path fill="none" stroke="red" stroke-width="0.71738" stroke-dasharray="1,5" d="M920.601,-172.447C906.836,-164.665 884.182,-150.738 867.749,-134.995 859.946,-127.52 821.883,-74.8724 800.827,-45.4793"/>
<polygon fill="red" stroke="red" stroke-width="0.71738" points="803.555,-43.2772 794.891,-37.1797 797.862,-47.3495 803.555,-43.2772"/>
</g>
<!-- 7940 -->
<g id="node29" class="node"><title>7940</title>
<ellipse fill="white" stroke="black" cx="1071.75" cy="-110.246" rx="25" ry="25"/>
<text text-anchor="middle" x="1071.75" y="-108.046" font-family="Times,serif" font-size="9.00">7940</text>
</g>
<!-- &#45;4&#45;&gt;7940 -->
<g id="edge45" class="edge"><title>&#45;4&#45;&gt;7940</title>
<path fill="none" stroke="red" stroke-width="0.159675" d="M944.998,-174.218C964.097,-166.633 1001.97,-151.046 1032.75,-134.995 1036.03,-133.281 1039.42,-131.401 1042.76,-129.473"/>
<polygon fill="red" stroke="red" stroke-width="0.159675" points="1044.59,-132.457 1051.4,-124.338 1041.01,-126.441 1044.59,-132.457"/>
</g>
<!-- &#45;5 -->
<g id="node5" class="node"><title>&#45;5</title>
<polygon fill="lightgray" stroke="black" points="819.749,-119.246 795.749,-119.246 795.749,-101.246 819.749,-101.246 819.749,-119.246"/>
<text text-anchor="middle" x="807.749" y="-108.046" font-family="Times,serif" font-size="9.00">&#45;5</text>
</g>
<!-- &#45;5&#45;&gt;0 -->
<g id="edge32" class="edge"><title>&#45;5&#45;&gt;0</title>
<path fill="none" stroke="red" stroke-width="1.55958" d="M802.58,-100.815C798.86,-95.5164 793.345,-89.035 786.749,-85.4975 784.475,-84.278 471.78,-41.5698 380.496,-29.1215"/>
<polygon fill="red" stroke="red" stroke-width="1.55958" points="380.878,-25.6413 370.497,-27.7582 379.932,-32.5772 380.878,-25.6413"/>
</g>
<!-- &#45;5&#45;&gt;1 -->
<g id="edge14" class="edge"><title>&#45;5&#45;&gt;1</title>
<path fill="none" stroke="red" stroke-width="0.367514" d="M820.088,-104.147C832.169,-99.2064 851.129,-91.5873 867.749,-85.4975 922.157,-65.5615 986.833,-44.3504 1020.94,-33.3543"/>
<polygon fill="red" stroke="red" stroke-width="0.367514" points="1022.44,-36.5489 1030.89,-30.1576 1020.3,-29.8844 1022.44,-36.5489"/>
</g>
<!-- &#45;5&#45;&gt;3 -->
<g id="edge42" class="edge"><title>&#45;5&#45;&gt;3</title>
<path fill="none" stroke="red" stroke-width="0.425619" stroke-dasharray="1,5" d="M805.735,-101.24C802.76,-89.4093 797.068,-66.7806 792.69,-49.3709"/>
<polygon fill="red" stroke="red" stroke-width="0.425619" points="796.003,-48.1927 790.169,-39.3484 789.214,-49.9001 796.003,-48.1927"/>
</g>
<!-- &#45;6 -->
<g id="node6" class="node"><title>&#45;6</title>
<polygon fill="lightgray" stroke="black" points="611.749,-119.246 587.749,-119.246 587.749,-101.246 611.749,-101.246 611.749,-119.246"/>
<text text-anchor="middle" x="599.749" y="-108.046" font-family="Times,serif" font-size="9.00">&#45;6</text>
</g>
<!-- &#45;6&#45;&gt;2 -->
<g id="edge7" class="edge"><title>&#45;6&#45;&gt;2</title>
<path fill="none" stroke="green" stroke-width="0.251338" stroke-dasharray="1,5" d="M595.434,-101.24C588.789,-88.9106 575.824,-64.8535 566.309,-47.1981"/>
<polygon fill="green" stroke="green" stroke-width="0.251338" points="569.265,-45.3057 561.439,-38.1632 563.103,-48.6267 569.265,-45.3057"/>
</g>
<!-- &#45;7 -->
<g id="node7" class="node"><title>&#45;7</title>
<polygon fill="lightgray" stroke="black" points="1433.75,-119.246 1409.75,-119.246 1409.75,-101.246 1433.75,-101.246 1433.75,-119.246"/>
<text text-anchor="middle" x="1421.75" y="-108.046" font-family="Times,serif" font-size="9.00">&#45;7</text>
</g>
<!-- &#45;7&#45;&gt;1 -->
<g id="edge31" class="edge"><title>&#45;7&#45;&gt;1</title>
<path fill="none" stroke="green" stroke-width="0.381057" stroke-dasharray="1,5" d="M1416.55,-100.877C1412.81,-95.6043 1407.29,-89.1288 1400.75,-85.4975 1343.27,-53.6079 1140.94,-33.8612 1069.75,-27.77"/>
<polygon fill="green" stroke="green" stroke-width="0.381057" points="1069.75,-24.2579 1059.5,-26.9099 1069.17,-31.2334 1069.75,-24.2579"/>
</g>
<!-- 6941 -->
<g id="node34" class="node"><title>6941</title>
<ellipse fill="white" stroke="black" cx="1421.75" cy="-24.7487" rx="25" ry="25"/>
<text text-anchor="middle" x="1421.75" y="-22.5487" font-family="Times,serif" font-size="9.00">6941</text>
</g>
<!-- &#45;7&#45;&gt;6941 -->
<g id="edge12" class="edge"><title>&#45;7&#45;&gt;6941</title>
<path fill="none" stroke="red" stroke-width="0.112834" d="M1421.75,-101.24C1421.75,-91.6887 1421.75,-75.0995 1421.75,-59.9004"/>
<polygon fill="red" stroke="red" stroke-width="0.112834" points="1425.25,-59.7037 1421.75,-49.7037 1418.25,-59.7038 1425.25,-59.7037"/>
</g>
<!-- &#45;8 -->
<g id="node8" class="node"><title>&#45;8</title>
<polygon fill="lightgray" stroke="black" points="167.749,-119.246 143.749,-119.246 143.749,-101.246 167.749,-101.246 167.749,-119.246"/>
<text text-anchor="middle" x="155.749" y="-108.046" font-family="Times,serif" font-size="9.00">&#45;8</text>
</g>
<!-- &#45;8&#45;&gt;0 -->
<g id="edge56" class="edge"><title>&#45;8&#45;&gt;0</title>
<path fill="none" stroke="green" stroke-width="0.346131" stroke-dasharray="1,5" d="M161.151,-101.206C164.969,-96.0718 170.506,-89.6274 176.749,-85.4975 226.026,-52.8982 294.708,-36.5774 330.999,-29.778"/>
<polygon fill="green" stroke="green" stroke-width="0.346131" points="331.935,-33.1665 341.165,-27.966 330.706,-26.2751 331.935,-33.1665"/>
</g>
<!-- &#45;9 -->
<g id="node9" class="node"><title>&#45;9</title>
<polygon fill="lightgray" stroke="black" points="432.749,-119.246 408.749,-119.246 408.749,-101.246 432.749,-101.246 432.749,-119.246"/>
<text text-anchor="middle" x="420.749" y="-108.046" font-family="Times,serif" font-size="9.00">&#45;9</text>
</g>
<!-- &#45;9&#45;&gt;0 -->
<g id="edge37" class="edge"><title>&#45;9&#45;&gt;0</title>
<path fill="none" stroke="red" stroke-width="0.974758" d="M414.516,-101.24C404.522,-88.4016 384.629,-62.8475 370.771,-45.0457"/>
<polygon fill="red" stroke="red" stroke-width="0.974758" points="373.427,-42.76 364.522,-37.0191 367.903,-47.06 373.427,-42.76"/>
</g>
<!-- &#45;9&#45;&gt;2 -->
<g id="edge5" class="edge"><title>&#45;9&#45;&gt;2</title>
<path fill="none" stroke="green" stroke-width="0.289403" d="M426.738,-101.09C430.634,-96.163 436.039,-89.9893 441.749,-85.4975 469.982,-63.2868 507.691,-45.2753 531.604,-35.033"/>
<polygon fill="green" stroke="green" stroke-width="0.289403" points="533.064,-38.2163 540.94,-31.1295 530.364,-31.758 533.064,-38.2163"/>
</g>
<!-- &#45;10 -->
<g id="node10" class="node"><title>&#45;10</title>
<polygon fill="lightgray" stroke="black" points="522.249,-119.246 493.249,-119.246 493.249,-101.246 522.249,-101.246 522.249,-119.246"/>
<text text-anchor="middle" x="507.749" y="-108.046" font-family="Times,serif" font-size="9.00">&#45;10</text>
</g>
<!-- &#45;10&#45;&gt;0 -->
<g id="edge8" class="edge"><title>&#45;10&#45;&gt;0</title>
<path fill="none" stroke="green" stroke-width="0.36842" d="M500.78,-101.041C496.28,-96.096 490.098,-89.9201 483.749,-85.4975 450.173,-62.1091 405.99,-43.8271 379.29,-33.9305"/>
<polygon fill="green" stroke="green" stroke-width="0.36842" points="380.241,-30.5526 369.647,-30.4402 377.859,-37.1347 380.241,-30.5526"/>
</g>
<!-- &#45;10&#45;&gt;3 -->
<g id="edge11" class="edge"><title>&#45;10&#45;&gt;3</title>
<path fill="none" stroke="green" stroke-width="0.129238" stroke-dasharray="1,5" d="M514.027,-101.027C518.435,-95.8168 524.772,-89.3554 531.749,-85.4975 608.533,-43.0357 714.448,-30.6393 761.949,-27.109"/>
<polygon fill="green" stroke="green" stroke-width="0.129238" points="762.203,-30.6 771.945,-26.4354 761.732,-23.6158 762.203,-30.6"/>
</g>
<!-- &#45;11 -->
<g id="node11" class="node"><title>&#45;11</title>
<polygon fill="lightgray" stroke="black" points="301.249,-119.246 272.249,-119.246 272.249,-101.246 301.249,-101.246 301.249,-119.246"/>
<text text-anchor="middle" x="286.749" y="-108.046" font-family="Times,serif" font-size="9.00">&#45;11</text>
</g>
<!-- &#45;11&#45;&gt;0 -->
<g id="edge17" class="edge"><title>&#45;11&#45;&gt;0</title>
<path fill="none" stroke="red" stroke-width="0.169423" stroke-dasharray="1,5" d="M293.365,-101.24C304.032,-88.3315 325.322,-62.5678 340.043,-44.7546"/>
<polygon fill="red" stroke="red" stroke-width="0.169423" points="342.994,-46.6778 346.666,-36.7397 337.598,-42.2187 342.994,-46.6778"/>
</g>
<!-- &#45;11&#45;&gt;2 -->
<g id="edge50" class="edge"><title>&#45;11&#45;&gt;2</title>
<path fill="none" stroke="red" stroke-width="0.757623" d="M292.707,-101.042C296.908,-95.8382 302.976,-89.3782 309.749,-85.4975 382.547,-43.7863 483.646,-31.0419 529.881,-27.2702"/>
<polygon fill="red" stroke="red" stroke-width="0.757623" points="530.187,-30.7572 539.9,-26.5257 529.668,-23.7764 530.187,-30.7572"/>
</g>
<!-- &#45;12 -->
<g id="node12" class="node"><title>&#45;12</title>
<polygon fill="lightgray" stroke="black" points="1210.25,-119.246 1181.25,-119.246 1181.25,-101.246 1210.25,-101.246 1210.25,-119.246"/>
<text text-anchor="middle" x="1195.75" y="-108.046" font-family="Times,serif" font-size="9.00">&#45;12</text>
</g>
<!-- &#45;12&#45;&gt;1 -->
<g id="edge20" class="edge"><title>&#45;12&#45;&gt;1</title>
<path fill="none" stroke="green" stroke-width="0.506459" d="M1189.13,-101.023C1184.84,-96.0705 1178.92,-89.8939 1172.75,-85.4975 1139.42,-61.7533 1095.16,-43.5793 1068.38,-33.801"/>
<polygon fill="green" stroke="green" stroke-width="0.506459" points="1069.3,-30.413 1058.71,-30.3574 1066.95,-37.0078 1069.3,-30.413"/>
</g>
<!-- &#45;13 -->
<g id="node13" class="node"><title>&#45;13</title>
<polygon fill="lightgray" stroke="black" points="215.249,-119.246 186.249,-119.246 186.249,-101.246 215.249,-101.246 215.249,-119.246"/>
<text text-anchor="middle" x="200.749" y="-108.046" font-family="Times,serif" font-size="9.00">&#45;13</text>
</g>
<!-- &#45;13&#45;&gt;0 -->
<g id="edge55" class="edge"><title>&#45;13&#45;&gt;0</title>
<path fill="none" stroke="green" stroke-width="1.48296" d="M209.461,-101.163C215.008,-96.2634 222.491,-90.0929 229.749,-85.4975 263.696,-64.0016 306.586,-45.2648 332.554,-34.7445"/>
<polygon fill="green" stroke="green" stroke-width="1.48296" points="333.948,-37.9568 341.941,-31.0022 331.356,-31.4546 333.948,-37.9568"/>
</g>
<!-- &#45;14 -->
<g id="node14" class="node"><title>&#45;14</title>
<polygon fill="lightgray" stroke="black" points="905.249,-119.246 876.249,-119.246 876.249,-101.246 905.249,-101.246 905.249,-119.246"/>
<text text-anchor="middle" x="890.749" y="-108.046" font-family="Times,serif" font-size="9.00">&#45;14</text>
</g>
<!-- &#45;14&#45;&gt;1 -->
<g id="edge59" class="edge"><title>&#45;14&#45;&gt;1</title>
<path fill="none" stroke="green" stroke-width="0.17775" stroke-dasharray="1,5" d="M897.708,-101.028C902.205,-96.0778 908.387,-89.9013 914.749,-85.4975 948.976,-61.8049 994.103,-43.5268 1021.19,-33.7278"/>
<polygon fill="green" stroke="green" stroke-width="0.17775" points="1022.36,-37.0248 1030.63,-30.3937 1020.03,-30.4246 1022.36,-37.0248"/>
</g>
<!-- &#45;14&#45;&gt;2 -->
<g id="edge18" class="edge"><title>&#45;14&#45;&gt;2</title>
<path fill="none" stroke="green" stroke-width="0.103764" d="M876.183,-102.948C863.754,-97.7487 845.315,-90.4457 828.749,-85.4975 738.321,-58.4878 627.742,-38.125 579.373,-29.8287"/>
<polygon fill="green" stroke="green" stroke-width="0.103764" points="579.946,-26.376 569.502,-28.1558 578.776,-33.2776 579.946,-26.376"/>
</g>
<!-- &#45;15 -->
<g id="node15" class="node"><title>&#45;15</title>
<polygon fill="lightgray" stroke="black" points="1290.25,-188.995 1261.25,-188.995 1261.25,-170.995 1290.25,-170.995 1290.25,-188.995"/>
<text text-anchor="middle" x="1275.75" y="-177.795" font-family="Times,serif" font-size="9.00">&#45;15</text>
</g>
<!-- 4550 -->
<g id="node30" class="node"><title>4550</title>
<ellipse fill="white" stroke="black" cx="1138.75" cy="-110.246" rx="25" ry="25"/>
<text text-anchor="middle" x="1138.75" y="-108.046" font-family="Times,serif" font-size="9.00">4550</text>
</g>
<!-- &#45;15&#45;&gt;4550 -->
<g id="edge33" class="edge"><title>&#45;15&#45;&gt;4550</title>
<path fill="none" stroke="red" stroke-width="0.280204" stroke-dasharray="1,5" d="M1260.97,-173.783C1240.56,-166.338 1202.84,-151.698 1172.75,-134.995 1170.75,-133.888 1168.73,-132.691 1166.72,-131.443"/>
<polygon fill="red" stroke="red" stroke-width="0.280204" points="1168.36,-128.334 1158.08,-125.771 1164.52,-134.185 1168.36,-128.334"/>
</g>
<!-- 7161 -->
<g id="node33" class="node"><title>7161</title>
<ellipse fill="white" stroke="black" cx="1366.75" cy="-110.246" rx="25" ry="25"/>
<text text-anchor="middle" x="1366.75" y="-108.046" font-family="Times,serif" font-size="9.00">7161</text>
</g>
<!-- &#45;15&#45;&gt;7161 -->
<g id="edge38" class="edge"><title>&#45;15&#45;&gt;7161</title>
<path fill="none" stroke="green" stroke-width="0.227783" d="M1286.54,-170.957C1299.41,-161.379 1321.39,-145.014 1339.09,-131.836"/>
<polygon fill="green" stroke="green" stroke-width="0.227783" points="1341.45,-134.446 1347.38,-125.667 1337.27,-128.831 1341.45,-134.446"/>
</g>
<!-- &#45;16 -->
<g id="node16" class="node"><title>&#45;16</title>
<polygon fill="lightgray" stroke="black" points="92.2487,-188.995 63.2487,-188.995 63.2487,-170.995 92.2487,-170.995 92.2487,-188.995"/>
<text text-anchor="middle" x="77.7487" y="-177.795" font-family="Times,serif" font-size="9.00">&#45;16</text>
</g>
<!-- &#45;16&#45;&gt;0 -->
<g id="edge23" class="edge"><title>&#45;16&#45;&gt;0</title>
<path fill="none" stroke="green" stroke-width="0.494687" d="M77.2551,-170.898C76.6272,-152.827 77.8101,-108.956 101.749,-85.4975 134.424,-53.4764 273.656,-34.7899 330.959,-28.3297"/>
<polygon fill="green" stroke="green" stroke-width="0.494687" points="331.408,-31.8015 340.967,-27.2327 330.645,-24.8432 331.408,-31.8015"/>
</g>
<!-- &#45;16&#45;&gt;1 -->
<g id="edge36" class="edge"><title>&#45;16&#45;&gt;1</title>
<path fill="none" stroke="red" stroke-width="0.249002" d="M92.3333,-179.053C201.057,-179.382 883.07,-179.652 961.749,-134.995 984.743,-121.944 978.908,-106.667 994.749,-85.4975 1005.44,-71.2058 1018.4,-55.7711 1028.44,-44.1698"/>
<polygon fill="red" stroke="red" stroke-width="0.249002" points="1031.22,-46.3049 1035.17,-36.4708 1025.95,-41.7 1031.22,-46.3049"/>
</g>
<!-- 7978 -->
<g id="node31" class="node"><title>7978</title>
<ellipse fill="white" stroke="black" cx="24.7487" cy="-110.246" rx="25" ry="25"/>
<text text-anchor="middle" x="24.7487" y="-108.046" font-family="Times,serif" font-size="9.00">7978</text>
</g>
<!-- &#45;16&#45;&gt;7978 -->
<g id="edge47" class="edge"><title>&#45;16&#45;&gt;7978</title>
<path fill="none" stroke="red" stroke-width="0.289126" d="M71.4608,-170.957C65.1336,-162.869 55.0216,-149.943 45.8214,-138.183"/>
<polygon fill="red" stroke="red" stroke-width="0.289126" points="48.5738,-136.021 39.6554,-130.301 43.0604,-140.334 48.5738,-136.021"/>
</g>
<!-- &#45;17 -->
<g id="node17" class="node"><title>&#45;17</title>
<polygon fill="lightgray" stroke="black" points="659.249,-119.246 630.249,-119.246 630.249,-101.246 659.249,-101.246 659.249,-119.246"/>
<text text-anchor="middle" x="644.749" y="-108.046" font-family="Times,serif" font-size="9.00">&#45;17</text>
</g>
<!-- &#45;17&#45;&gt;0 -->
<g id="edge4" class="edge"><title>&#45;17&#45;&gt;0</title>
<path fill="none" stroke="red" stroke-width="0.26551" stroke-dasharray="1,5" d="M638.482,-101.007C634.078,-95.7893 627.741,-89.3261 620.749,-85.4975 540.54,-41.5803 429.811,-29.9137 380.807,-26.8378"/>
<polygon fill="red" stroke="red" stroke-width="0.26551" points="380.703,-23.3266 370.523,-26.2642 380.313,-30.3158 380.703,-23.3266"/>
</g>
<!-- &#45;17&#45;&gt;1 -->
<g id="edge52" class="edge"><title>&#45;17&#45;&gt;1</title>
<path fill="none" stroke="green" stroke-width="0.100711" d="M659.284,-105.618C678.712,-100.809 714.24,-92.156 744.749,-85.4975 846.742,-63.2376 968.989,-39.9335 1020.25,-30.314"/>
<polygon fill="green" stroke="green" stroke-width="0.100711" points="1021.16,-33.7036 1030.35,-28.4234 1019.87,-26.8231 1021.16,-33.7036"/>
</g>
<!-- &#45;18 -->
<g id="node18" class="node"><title>&#45;18</title>
<polygon fill="lightgray" stroke="black" points="569.249,-119.246 540.249,-119.246 540.249,-101.246 569.249,-101.246 569.249,-119.246"/>
<text text-anchor="middle" x="554.749" y="-108.046" font-family="Times,serif" font-size="9.00">&#45;18</text>
</g>
<!-- &#45;18&#45;&gt;0 -->
<g id="edge58" class="edge"><title>&#45;18&#45;&gt;0</title>
<path fill="none" stroke="red" stroke-width="0.629811" d="M548.673,-101.236C544.423,-96.1142 538.344,-89.6726 531.749,-85.4975 482.826,-54.5283 416.017,-37.6189 380.431,-30.2746"/>
<polygon fill="red" stroke="red" stroke-width="0.629811" points="380.934,-26.8062 370.445,-28.2975 379.574,-33.673 380.934,-26.8062"/>
</g>
<!-- &#45;18&#45;&gt;2 -->
<g id="edge28" class="edge"><title>&#45;18&#45;&gt;2</title>
<path fill="none" stroke="green" stroke-width="0.3669" d="M554.749,-101.24C554.749,-89.4769 554.749,-67.0389 554.749,-49.6698"/>
<polygon fill="green" stroke="green" stroke-width="0.3669" points="558.249,-49.6509 554.749,-39.6509 551.249,-49.6509 558.249,-49.6509"/>
</g>
<!-- &#45;18&#45;&gt;3 -->
<g id="edge40" class="edge"><title>&#45;18&#45;&gt;3</title>
<path fill="none" stroke="green" stroke-width="0.126092" d="M561.091,-101.14C565.527,-95.9778 571.87,-89.5271 578.749,-85.4975 638.882,-50.2699 721.077,-34.7236 761.791,-28.8324"/>
<polygon fill="green" stroke="green" stroke-width="0.126092" points="762.462,-32.2732 771.894,-27.4477 761.511,-25.338 762.462,-32.2732"/>
</g>
<!-- &#45;19 -->
<g id="node19" class="node"><title>&#45;19</title>
<polygon fill="lightgray" stroke="black" points="348.249,-119.246 319.249,-119.246 319.249,-101.246 348.249,-101.246 348.249,-119.246"/>
<text text-anchor="middle" x="333.749" y="-108.046" font-family="Times,serif" font-size="9.00">&#45;19</text>
</g>
<!-- &#45;19&#45;&gt;0 -->
<g id="edge43" class="edge"><title>&#45;19&#45;&gt;0</title>
<path fill="none" stroke="red" stroke-width="0.423493" stroke-dasharray="1,5" d="M335.858,-101.24C338.975,-89.4093 344.938,-66.7806 349.525,-49.3709"/>
<polygon fill="red" stroke="red" stroke-width="0.423493" points="353.002,-49.9102 352.165,-39.3484 346.233,-48.1266 353.002,-49.9102"/>
</g>
<!-- &#45;19&#45;&gt;2 -->
<g id="edge15" class="edge"><title>&#45;19&#45;&gt;2</title>
<path fill="none" stroke="red" stroke-width="0.317325" d="M340.111,-101.173C344.555,-96.0253 350.9,-89.5777 357.749,-85.4975 414.3,-51.8057 491.451,-35.6663 530.288,-29.2625"/>
<polygon fill="red" stroke="red" stroke-width="0.317325" points="530.842,-32.7185 540.177,-27.708 529.755,-25.8034 530.842,-32.7185"/>
</g>
<!-- &#45;20 -->
<g id="node20" class="node"><title>&#45;20</title>
<polygon fill="lightgray" stroke="black" points="1153.25,-188.995 1124.25,-188.995 1124.25,-170.995 1153.25,-170.995 1153.25,-188.995"/>
<text text-anchor="middle" x="1138.75" y="-177.795" font-family="Times,serif" font-size="9.00">&#45;20</text>
</g>
<!-- &#45;20&#45;&gt;2 -->
<g id="edge1" class="edge"><title>&#45;20&#45;&gt;2</title>
<path fill="none" stroke="red" stroke-width="0.346071" d="M1123.85,-178.559C1060.62,-176.524 814.458,-166.676 744.749,-134.995 715.109,-121.525 718.018,-103.283 690.749,-85.4975 654.165,-61.6367 606.462,-43.1964 578.365,-33.4479"/>
<polygon fill="red" stroke="red" stroke-width="0.346071" points="579.214,-30.0403 568.62,-30.1441 576.967,-36.6697 579.214,-30.0403"/>
</g>
<!-- &#45;20&#45;&gt;4550 -->
<g id="edge35" class="edge"><title>&#45;20&#45;&gt;4550</title>
<path fill="none" stroke="green" stroke-width="0.716691" stroke-dasharray="1,5" d="M1138.75,-170.957C1138.75,-164.522 1138.75,-155.024 1138.75,-145.488"/>
<polygon fill="green" stroke="green" stroke-width="0.716691" points="1142.25,-145.267 1138.75,-135.267 1135.25,-145.268 1142.25,-145.267"/>
</g>
<!-- &#45;20&#45;&gt;6941 -->
<g id="edge27" class="edge"><title>&#45;20&#45;&gt;6941</title>
<path fill="none" stroke="green" stroke-width="0.164599" d="M1153.56,-177.973C1211.88,-173.802 1423.51,-157.221 1442.75,-134.995 1461.72,-113.08 1451.23,-79.3144 1439.3,-55.1244"/>
<polygon fill="green" stroke="green" stroke-width="0.164599" points="1442.29,-53.2778 1434.54,-46.0475 1436.09,-56.5291 1442.29,-53.2778"/>
</g>
<!-- &#45;21 -->
<g id="node21" class="node"><title>&#45;21</title>
<polygon fill="lightgray" stroke="black" points="702.249,-188.995 673.249,-188.995 673.249,-170.995 702.249,-170.995 702.249,-188.995"/>
<text text-anchor="middle" x="687.749" y="-177.795" font-family="Times,serif" font-size="9.00">&#45;21</text>
</g>
<!-- &#45;21&#45;&gt;0 -->
<g id="edge22" class="edge"><title>&#45;21&#45;&gt;0</title>
<path fill="none" stroke="green" stroke-width="2.48802" d="M673.231,-178.985C589.663,-178.781 172.363,-175.721 134.749,-134.995 119.823,-118.834 121.376,-102.965 134.749,-85.4975 158.714,-54.1923 278.258,-35.5249 330.85,-28.7084"/>
<polygon fill="green" stroke="green" stroke-width="2.48802" points="331.512,-32.1528 340.998,-27.4334 330.639,-25.2074 331.512,-32.1528"/>
</g>
<!-- &#45;21&#45;&gt;2 -->
<g id="edge48" class="edge"><title>&#45;21&#45;&gt;2</title>
<path fill="none" stroke="green" stroke-width="0.543091" d="M688.298,-170.81C689.04,-153.31 688.447,-111.72 668.749,-85.4975 646.573,-55.9768 605.531,-39.6727 579.216,-31.8224"/>
<polygon fill="green" stroke="green" stroke-width="0.543091" points="579.838,-28.3624 569.265,-29.0466 577.957,-35.105 579.838,-28.3624"/>
</g>
<!-- &#45;21&#45;&gt;4550 -->
<g id="edge9" class="edge"><title>&#45;21&#45;&gt;4550</title>
<path fill="none" stroke="green" stroke-width="0.778948" stroke-dasharray="1,5" d="M702.565,-178.452C767.799,-175.91 1029.56,-164.052 1105.75,-134.995 1107.63,-134.278 1109.5,-133.427 1111.34,-132.479"/>
<polygon fill="green" stroke="green" stroke-width="0.778948" points="1113.44,-135.297 1120.18,-127.123 1109.81,-129.31 1113.44,-135.297"/>
</g>
<!-- &#45;22 -->
<g id="node22" class="node"><title>&#45;22</title>
<polygon fill="lightgray" stroke="black" points="952.249,-119.246 923.249,-119.246 923.249,-101.246 952.249,-101.246 952.249,-119.246"/>
<text text-anchor="middle" x="937.749" y="-108.046" font-family="Times,serif" font-size="9.00">&#45;22</text>
</g>
<!-- &#45;22&#45;&gt;1 -->
<g id="edge25" class="edge"><title>&#45;22&#45;&gt;1</title>
<path fill="none" stroke="green" stroke-width="0.273521" d="M947.616,-101.032C953.196,-96.4214 960.321,-90.5887 966.749,-85.4975 986.492,-69.8581 1009.41,-52.3827 1025.27,-40.3921"/>
<polygon fill="green" stroke="green" stroke-width="0.273521" points="1027.42,-43.1578 1033.29,-34.3414 1023.2,-37.5695 1027.42,-43.1578"/>
</g>
<!-- &#45;22&#45;&gt;2 -->
<g id="edge44" class="edge"><title>&#45;22&#45;&gt;2</title>
<path fill="none" stroke="red" stroke-width="0.243103" stroke-dasharray="1,5" d="M931.883,-100.873C927.721,-95.5984 921.662,-89.1225 914.749,-85.4975 884.934,-69.864 656.467,-39.0035 579.767,-28.9774"/>
<polygon fill="red" stroke="red" stroke-width="0.243103" points="579.961,-25.4733 569.593,-27.6536 579.058,-32.4148 579.961,-25.4733"/>
</g>
<!-- &#45;22&#45;&gt;3 -->
<g id="edge57" class="edge"><title>&#45;22&#45;&gt;3</title>
<path fill="none" stroke="green" stroke-width="0.257589" stroke-dasharray="1,5" d="M931.131,-101.023C926.841,-96.0705 920.919,-89.8939 914.749,-85.4975 881.424,-61.7533 837.165,-43.5793 810.381,-33.801"/>
<polygon fill="green" stroke="green" stroke-width="0.257589" points="811.3,-30.413 800.705,-30.3574 808.953,-37.0078 811.3,-30.413"/>
</g>
<!-- &#45;23 -->
<g id="node23" class="node"><title>&#45;23</title>
<polygon fill="lightgray" stroke="black" points="1337.25,-188.995 1308.25,-188.995 1308.25,-170.995 1337.25,-170.995 1337.25,-188.995"/>
<text text-anchor="middle" x="1322.75" y="-177.795" font-family="Times,serif" font-size="9.00">&#45;23</text>
</g>
<!-- &#45;24 -->
<g id="node24" class="node"><title>&#45;24</title>
<polygon fill="lightgray" stroke="black" points="1324.25,-119.246 1295.25,-119.246 1295.25,-101.246 1324.25,-101.246 1324.25,-119.246"/>
<text text-anchor="middle" x="1309.75" y="-108.046" font-family="Times,serif" font-size="9.00">&#45;24</text>
</g>
<!-- &#45;24&#45;&gt;0 -->
<g id="edge49" class="edge"><title>&#45;24&#45;&gt;0</title>
<path fill="none" stroke="green" stroke-width="0.532528" d="M1304.37,-101.075C1300.26,-95.5993 1294.07,-88.807 1286.75,-85.4975 1210.12,-50.8617 614.494,-57.1591 530.749,-49.4975 476.748,-44.5571 413.837,-35.1081 380.1,-29.738"/>
<polygon fill="green" stroke="green" stroke-width="0.532528" points="380.649,-26.2814 370.22,-28.1486 379.537,-33.1925 380.649,-26.2814"/>
</g>
<!-- &#45;24&#45;&gt;1 -->
<g id="edge3" class="edge"><title>&#45;24&#45;&gt;1</title>
<path fill="none" stroke="red" stroke-width="0.261994" stroke-dasharray="1,5" d="M1303.79,-101.048C1299.58,-95.8472 1293.52,-89.3878 1286.75,-85.4975 1215.18,-44.3525 1115.89,-31.3501 1069.94,-27.3954"/>
<polygon fill="red" stroke="red" stroke-width="0.261994" points="1069.95,-23.8855 1059.7,-26.591 1069.4,-30.864 1069.95,-23.8855"/>
</g>
<!-- &#45;24&#45;&gt;6941 -->
<g id="edge6" class="edge"><title>&#45;24&#45;&gt;6941</title>
<path fill="none" stroke="red" stroke-width="0.629977" d="M1317.02,-100.906C1321.36,-96.1469 1327.11,-90.2097 1332.75,-85.4975 1351.35,-69.9453 1374.07,-54.7472 1391.9,-43.5711"/>
<polygon fill="red" stroke="red" stroke-width="0.629977" points="1394.06,-46.3483 1400.73,-38.1128 1390.38,-40.3942 1394.06,-46.3483"/>
</g>
<!-- 1&#45;&gt;1 -->
<g id="edge30" class="edge"><title>1&#45;&gt;1</title>
<path fill="none" stroke="green" stroke-width="0.147024" d="M1054.16,-36.3113C1065.02,-44.517 1077.6,-40.6628 1077.6,-24.7487 1077.6,-13.3105 1071.1,-8.10242 1063.42,-9.12449"/>
<polygon fill="green" stroke="green" stroke-width="0.147024" points="1061.91,-5.96114 1054.16,-13.1862 1064.73,-12.3705 1061.91,-5.96114"/>
</g>
<!-- 2&#45;&gt;2 -->
<g id="edge26" class="edge"><title>2&#45;&gt;2</title>
<path fill="none" stroke="green" stroke-width="0.562864" d="M564.165,-36.3113C575.022,-44.517 587.598,-40.6628 587.598,-24.7487 587.598,-13.3105 581.101,-8.10242 573.415,-9.12449"/>
<polygon fill="green" stroke="green" stroke-width="0.562864" points="571.914,-5.96114 564.165,-13.1862 574.728,-12.3705 571.914,-5.96114"/>
</g>
<!-- 3&#45;&gt;3 -->
<g id="edge16" class="edge"><title>3&#45;&gt;3</title>
<path fill="none" stroke="red" stroke-width="0.104838" d="M796.165,-36.3113C807.022,-44.517 819.598,-40.6628 819.598,-24.7487 819.598,-13.3105 813.101,-8.10242 805.415,-9.12449"/>
<polygon fill="red" stroke="red" stroke-width="0.104838" points="803.914,-5.96114 796.165,-13.1862 806.728,-12.3705 803.914,-5.96114"/>
</g>
<!-- 7940&#45;&gt;1 -->
<g id="edge29" class="edge"><title>7940&#45;&gt;1</title>
<path fill="none" stroke="red" stroke-width="0.103981" d="M1064.37,-86.4302C1060.6,-74.7783 1056.03,-60.6303 1052.24,-48.9273"/>
<polygon fill="red" stroke="red" stroke-width="0.103981" points="1055.57,-47.8345 1049.16,-39.3965 1048.91,-49.9883 1055.57,-47.8345"/>
</g>
<!-- 4550&#45;&gt;1 -->
<g id="edge19" class="edge"><title>4550&#45;&gt;1</title>
<path fill="none" stroke="green" stroke-width="0.303243" stroke-dasharray="1,5" d="M1120.62,-93.1471C1104.18,-78.5385 1080.03,-57.089 1063.42,-42.3318"/>
<polygon fill="green" stroke="green" stroke-width="0.303243" points="1065.3,-39.3208 1055.5,-35.2964 1060.65,-44.5543 1065.3,-39.3208"/>
</g>
<!-- 7978&#45;&gt;0 -->
<g id="edge41" class="edge"><title>7978&#45;&gt;0</title>
<path fill="none" stroke="green" stroke-width="0.163122" d="M44.7031,-95.2831C50.6185,-91.6523 57.2559,-88.0487 63.7487,-85.4975 158.196,-48.3858 279.297,-33.0703 330.79,-27.9355"/>
<polygon fill="green" stroke="green" stroke-width="0.163122" points="331.34,-31.399 340.963,-26.965 330.675,-24.4306 331.34,-31.399"/>
</g>
<!-- 4017 -->
<g id="node32" class="node"><title>4017</title>
<ellipse fill="white" stroke="black" cx="1252.75" cy="-110.246" rx="25" ry="25"/>
<text text-anchor="middle" x="1252.75" y="-108.046" font-family="Times,serif" font-size="9.00">4017</text>
</g>
<!-- 4017&#45;&gt;1 -->
<g id="edge51" class="edge"><title>4017&#45;&gt;1</title>
<path fill="none" stroke="green" stroke-width="0.274342" d="M1233.82,-94.1827C1229.36,-91.0501 1224.52,-87.9576 1219.75,-85.4975 1168.82,-59.2133 1103.81,-40.5309 1069.13,-31.6308"/>
<polygon fill="green" stroke="green" stroke-width="0.274342" points="1069.95,-28.2261 1059.39,-29.1851 1068.24,-35.0153 1069.95,-28.2261"/>
</g>
<!-- 7161&#45;&gt;1 -->
<g id="edge54" class="edge"><title>7161&#45;&gt;1</title>
<path fill="none" stroke="red" stroke-width="0.10094" d="M1348.03,-93.7334C1343.56,-90.6241 1338.66,-87.6547 1333.75,-85.4975 1241.75,-45.0936 1121.11,-31.5299 1069.69,-27.3949"/>
<polygon fill="red" stroke="red" stroke-width="0.10094" points="1069.77,-23.8907 1059.53,-26.6301 1069.24,-30.8709 1069.77,-23.8907"/>
</g>
</g>
</svg>
