<?xml version="1.0" encoding="UTF-8" standalone="no"?>
<!DOCTYPE svg PUBLIC "-//W3C//DTD SVG 1.1//EN"
 "http://www.w3.org/Graphics/SVG/1.1/DTD/svg11.dtd">
<!-- Generated by graphviz version 2.38.0 (20140413.2041)
 -->
<!-- Title: %3 Pages: 1 -->
<svg width="1028pt" height="314pt"
 viewBox="0.00 0.00 1028.00 313.99" xmlns="http://www.w3.org/2000/svg" xmlns:xlink="http://www.w3.org/1999/xlink">
<g id="graph0" class="graph" transform="scale(1 1) rotate(0) translate(4 309.99)">
<title>%3</title>
<polygon fill="white" stroke="none" points="-4,4 -4,-309.99 1024,-309.99 1024,4 -4,4"/>
<!-- &#45;1 -->
<g id="node1" class="node"><title>&#45;1</title>
<polygon fill="lightgray" stroke="black" points="24,-204.744 0,-204.744 0,-186.744 24,-186.744 24,-204.744"/>
<text text-anchor="middle" x="12" y="-193.544" font-family="Times,serif" font-size="9.00">&#45;1</text>
</g>
<!-- 1 -->
<g id="node26" class="node"><title>1</title>
<ellipse fill="lightblue" stroke="black" cx="208" cy="-110.246" rx="14.7" ry="14.7"/>
<text text-anchor="middle" x="208" y="-108.046" font-family="Times,serif" font-size="9.00">1</text>
</g>
<!-- &#45;1&#45;&gt;1 -->
<g id="edge7" class="edge"><title>&#45;1&#45;&gt;1</title>
<path fill="none" stroke="green" stroke-width="0.12048" d="M17.4112,-186.718C21.234,-181.589 26.7715,-175.146 33,-170.995 80.9354,-139.047 147.65,-122.531 183.267,-115.509"/>
<polygon fill="green" stroke="green" stroke-width="0.12048" points="184.086,-118.917 193.267,-113.629 182.792,-112.037 184.086,-118.917"/>
</g>
<!-- &#45;2 -->
<g id="node2" class="node"><title>&#45;2</title>
<polygon fill="lightgray" stroke="black" points="606,-119.246 582,-119.246 582,-101.246 606,-101.246 606,-119.246"/>
<text text-anchor="middle" x="594" y="-108.046" font-family="Times,serif" font-size="9.00">&#45;2</text>
</g>
<!-- 0 -->
<g id="node25" class="node"><title>0</title>
<ellipse fill="lightblue" stroke="black" cx="566" cy="-24.7487" rx="14.7" ry="14.7"/>
<text text-anchor="middle" x="566" y="-22.5487" font-family="Times,serif" font-size="9.00">0</text>
</g>
<!-- &#45;2&#45;&gt;0 -->
<g id="edge2" class="edge"><title>&#45;2&#45;&gt;0</title>
<path fill="none" stroke="red" stroke-width="0.513452" d="M591.315,-101.24C587.288,-89.2295 579.528,-66.0901 573.656,-48.5805"/>
<polygon fill="red" stroke="red" stroke-width="0.513452" points="576.958,-47.4167 570.46,-39.0484 570.321,-49.6423 576.958,-47.4167"/>
</g>
<!-- 2 -->
<g id="node27" class="node"><title>2</title>
<ellipse fill="lightblue" stroke="black" cx="808" cy="-24.7487" rx="14.7" ry="14.7"/>
<text text-anchor="middle" x="808" y="-22.5487" font-family="Times,serif" font-size="9.00">2</text>
</g>
<!-- &#45;2&#45;&gt;2 -->
<g id="edge22" class="edge"><title>&#45;2&#45;&gt;2</title>
<path fill="none" stroke="red" stroke-width="0.154163" d="M599.279,-101.01C603.045,-95.7927 608.57,-89.3297 615,-85.4975 675.751,-49.2895 704.68,-76.6072 770,-49.4975 776.076,-46.9757 782.284,-43.5286 787.875,-40.0427"/>
<polygon fill="red" stroke="red" stroke-width="0.154163" points="790.155,-42.7308 796.566,-34.296 786.294,-36.8917 790.155,-42.7308"/>
</g>
<!-- &#45;3 -->
<g id="node3" class="node"><title>&#45;3</title>
<polygon fill="lightgray" stroke="black" points="399,-290.241 375,-290.241 375,-272.241 399,-272.241 399,-290.241"/>
<text text-anchor="middle" x="387" y="-279.041" font-family="Times,serif" font-size="9.00">&#45;3</text>
</g>
<!-- &#45;4 -->
<g id="node4" class="node"><title>&#45;4</title>
<polygon fill="lightgray" stroke="black" points="220,-290.241 196,-290.241 196,-272.241 220,-272.241 220,-290.241"/>
<text text-anchor="middle" x="208" y="-279.041" font-family="Times,serif" font-size="9.00">&#45;4</text>
</g>
<!-- 7940 -->
<g id="node29" class="node"><title>7940</title>
<ellipse fill="white" stroke="black" cx="208" cy="-195.744" rx="25" ry="25"/>
<text text-anchor="middle" x="208" y="-193.544" font-family="Times,serif" font-size="9.00">7940</text>
</g>
<!-- &#45;4&#45;&gt;7940 -->
<g id="edge28" class="edge"><title>&#45;4&#45;&gt;7940</title>
<path fill="none" stroke="red" stroke-width="0.159675" d="M208,-272.235C208,-262.684 208,-246.094 208,-230.895"/>
<polygon fill="red" stroke="red" stroke-width="0.159675" points="211.5,-230.699 208,-220.699 204.5,-230.699 211.5,-230.699"/>
</g>
<!-- &#45;5 -->
<g id="node5" class="node"><title>&#45;5</title>
<polygon fill="lightgray" stroke="black" points="409,-204.744 385,-204.744 385,-186.744 409,-186.744 409,-204.744"/>
<text text-anchor="middle" x="397" y="-193.544" font-family="Times,serif" font-size="9.00">&#45;5</text>
</g>
<!-- &#45;5&#45;&gt;0 -->
<g id="edge21" class="edge"><title>&#45;5&#45;&gt;0</title>
<path fill="none" stroke="red" stroke-width="1.55958" d="M391.332,-186.715C378.405,-167.329 349.608,-117.227 373,-85.4975 412.252,-32.2553 498.408,-25.0321 541.062,-24.9201"/>
<polygon fill="red" stroke="red" stroke-width="1.55958" points="541.116,-28.4207 551.153,-25.0268 541.191,-21.4211 541.116,-28.4207"/>
</g>
<!-- &#45;5&#45;&gt;1 -->
<g id="edge8" class="edge"><title>&#45;5&#45;&gt;1</title>
<path fill="none" stroke="red" stroke-width="0.367514" d="M391.571,-186.743C387.741,-181.626 382.202,-175.186 376,-170.995 330.404,-140.186 267.126,-123.355 232.707,-115.944"/>
<polygon fill="red" stroke="red" stroke-width="0.367514" points="233.106,-112.453 222.605,-113.864 231.694,-119.309 233.106,-112.453"/>
</g>
<!-- &#45;6 -->
<g id="node6" class="node"><title>&#45;6</title>
<polygon fill="lightgray" stroke="black" points="441,-290.241 417,-290.241 417,-272.241 441,-272.241 441,-290.241"/>
<text text-anchor="middle" x="429" y="-279.041" font-family="Times,serif" font-size="9.00">&#45;6</text>
</g>
<!-- &#45;7 -->
<g id="node7" class="node"><title>&#45;7</title>
<polygon fill="lightgray" stroke="black" points="1020,-119.246 996,-119.246 996,-101.246 1020,-101.246 1020,-119.246"/>
<text text-anchor="middle" x="1008" y="-108.046" font-family="Times,serif" font-size="9.00">&#45;7</text>
</g>
<!-- 6941 -->
<g id="node34" class="node"><title>6941</title>
<ellipse fill="white" stroke="black" cx="963" cy="-24.7487" rx="25" ry="25"/>
<text text-anchor="middle" x="963" y="-22.5487" font-family="Times,serif" font-size="9.00">6941</text>
</g>
<!-- &#45;7&#45;&gt;6941 -->
<g id="edge6" class="edge"><title>&#45;7&#45;&gt;6941</title>
<path fill="none" stroke="red" stroke-width="0.112834" d="M1003.69,-101.24C998.095,-90.8673 988.031,-72.1939 979.312,-56.0151"/>
<polygon fill="red" stroke="red" stroke-width="0.112834" points="982.203,-54.0016 974.377,-46.8591 976.04,-57.3226 982.203,-54.0016"/>
</g>
<!-- &#45;8 -->
<g id="node8" class="node"><title>&#45;8</title>
<polygon fill="lightgray" stroke="black" points="483,-290.241 459,-290.241 459,-272.241 483,-272.241 483,-290.241"/>
<text text-anchor="middle" x="471" y="-279.041" font-family="Times,serif" font-size="9.00">&#45;8</text>
</g>
<!-- &#45;9 -->
<g id="node9" class="node"><title>&#45;9</title>
<polygon fill="lightgray" stroke="black" points="648,-119.246 624,-119.246 624,-101.246 648,-101.246 648,-119.246"/>
<text text-anchor="middle" x="636" y="-108.046" font-family="Times,serif" font-size="9.00">&#45;9</text>
</g>
<!-- &#45;9&#45;&gt;0 -->
<g id="edge24" class="edge"><title>&#45;9&#45;&gt;0</title>
<path fill="none" stroke="red" stroke-width="0.974758" d="M629.288,-101.24C618.466,-88.3315 596.867,-62.5678 581.934,-44.7546"/>
<polygon fill="red" stroke="red" stroke-width="0.974758" points="584.321,-42.1544 575.214,-36.7397 578.957,-46.6516 584.321,-42.1544"/>
</g>
<!-- &#45;9&#45;&gt;2 -->
<g id="edge3" class="edge"><title>&#45;9&#45;&gt;2</title>
<path fill="none" stroke="green" stroke-width="0.289403" d="M641.721,-101.191C645.748,-96.0506 651.554,-89.6048 658,-85.4975 702.096,-57.4012 722.579,-71.5212 770,-49.4975 775.876,-46.7684 781.951,-43.3016 787.473,-39.8659"/>
<polygon fill="green" stroke="green" stroke-width="0.289403" points="789.636,-42.6343 796.111,-34.2489 785.82,-36.7658 789.636,-42.6343"/>
</g>
<!-- &#45;10 -->
<g id="node10" class="node"><title>&#45;10</title>
<polygon fill="lightgray" stroke="black" points="410.5,-119.246 381.5,-119.246 381.5,-101.246 410.5,-101.246 410.5,-119.246"/>
<text text-anchor="middle" x="396" y="-108.046" font-family="Times,serif" font-size="9.00">&#45;10</text>
</g>
<!-- &#45;10&#45;&gt;0 -->
<g id="edge5" class="edge"><title>&#45;10&#45;&gt;0</title>
<path fill="none" stroke="green" stroke-width="0.36842" d="M402.895,-100.932C407.367,-95.9463 413.546,-89.7656 420,-85.4975 459.439,-59.4157 512.085,-41.3386 542.187,-32.3317"/>
<polygon fill="green" stroke="green" stroke-width="0.36842" points="543.211,-35.679 551.836,-29.5259 541.257,-28.9574 543.211,-35.679"/>
</g>
<!-- &#45;11 -->
<g id="node11" class="node"><title>&#45;11</title>
<polygon fill="lightgray" stroke="black" points="836.5,-119.246 807.5,-119.246 807.5,-101.246 836.5,-101.246 836.5,-119.246"/>
<text text-anchor="middle" x="822" y="-108.046" font-family="Times,serif" font-size="9.00">&#45;11</text>
</g>
<!-- &#45;11&#45;&gt;2 -->
<g id="edge32" class="edge"><title>&#45;11&#45;&gt;2</title>
<path fill="none" stroke="red" stroke-width="0.757623" d="M820.658,-101.24C818.685,-89.4769 814.923,-67.0389 812.011,-49.6698"/>
<polygon fill="red" stroke="red" stroke-width="0.757623" points="815.436,-48.9344 810.331,-39.6509 808.533,-50.092 815.436,-48.9344"/>
</g>
<!-- &#45;12 -->
<g id="node12" class="node"><title>&#45;12</title>
<polygon fill="lightgray" stroke="black" points="71.5,-204.744 42.5,-204.744 42.5,-186.744 71.5,-186.744 71.5,-204.744"/>
<text text-anchor="middle" x="57" y="-193.544" font-family="Times,serif" font-size="9.00">&#45;12</text>
</g>
<!-- &#45;12&#45;&gt;1 -->
<g id="edge12" class="edge"><title>&#45;12&#45;&gt;1</title>
<path fill="none" stroke="green" stroke-width="0.506459" d="M63.6181,-186.52C67.9075,-181.568 73.8296,-175.391 80,-170.995 113.325,-147.251 157.584,-129.077 184.368,-119.298"/>
<polygon fill="green" stroke="green" stroke-width="0.506459" points="185.796,-122.505 194.044,-115.855 183.449,-115.91 185.796,-122.505"/>
</g>
<!-- &#45;13 -->
<g id="node13" class="node"><title>&#45;13</title>
<polygon fill="lightgray" stroke="black" points="457.5,-119.246 428.5,-119.246 428.5,-101.246 457.5,-101.246 457.5,-119.246"/>
<text text-anchor="middle" x="443" y="-108.046" font-family="Times,serif" font-size="9.00">&#45;13</text>
</g>
<!-- &#45;13&#45;&gt;0 -->
<g id="edge36" class="edge"><title>&#45;13&#45;&gt;0</title>
<path fill="none" stroke="green" stroke-width="1.48296" d="M452.438,-101.033C458.001,-96.3163 465.251,-90.3791 472,-85.4975 496.237,-67.9672 525.504,-49.807 544.874,-38.1787"/>
<polygon fill="green" stroke="green" stroke-width="1.48296" points="546.722,-41.1515 553.522,-33.0264 543.14,-35.1378 546.722,-41.1515"/>
</g>
<!-- &#45;14 -->
<g id="node14" class="node"><title>&#45;14</title>
<polygon fill="lightgray" stroke="black" points="883.5,-119.246 854.5,-119.246 854.5,-101.246 883.5,-101.246 883.5,-119.246"/>
<text text-anchor="middle" x="869" y="-108.046" font-family="Times,serif" font-size="9.00">&#45;14</text>
</g>
<!-- &#45;14&#45;&gt;2 -->
<g id="edge11" class="edge"><title>&#45;14&#45;&gt;2</title>
<path fill="none" stroke="green" stroke-width="0.103764" d="M863.151,-101.24C853.908,-88.5879 835.643,-63.5862 822.667,-45.8252"/>
<polygon fill="green" stroke="green" stroke-width="0.103764" points="825.165,-43.3112 816.44,-37.3011 819.513,-47.4406 825.165,-43.3112"/>
</g>
<!-- &#45;15 -->
<g id="node15" class="node"><title>&#45;15</title>
<polygon fill="lightgray" stroke="black" points="356.5,-290.241 327.5,-290.241 327.5,-272.241 356.5,-272.241 356.5,-290.241"/>
<text text-anchor="middle" x="342" y="-279.041" font-family="Times,serif" font-size="9.00">&#45;15</text>
</g>
<!-- 7161 -->
<g id="node33" class="node"><title>7161</title>
<ellipse fill="white" stroke="black" cx="342" cy="-195.744" rx="25" ry="25"/>
<text text-anchor="middle" x="342" y="-193.544" font-family="Times,serif" font-size="9.00">7161</text>
</g>
<!-- &#45;15&#45;&gt;7161 -->
<g id="edge25" class="edge"><title>&#45;15&#45;&gt;7161</title>
<path fill="none" stroke="green" stroke-width="0.227783" d="M342,-272.235C342,-262.684 342,-246.094 342,-230.895"/>
<polygon fill="green" stroke="green" stroke-width="0.227783" points="345.5,-230.699 342,-220.699 338.5,-230.699 345.5,-230.699"/>
</g>
<!-- &#45;16 -->
<g id="node16" class="node"><title>&#45;16</title>
<polygon fill="lightgray" stroke="black" points="500.5,-204.744 471.5,-204.744 471.5,-186.744 500.5,-186.744 500.5,-204.744"/>
<text text-anchor="middle" x="486" y="-193.544" font-family="Times,serif" font-size="9.00">&#45;16</text>
</g>
<!-- &#45;16&#45;&gt;0 -->
<g id="edge14" class="edge"><title>&#45;16&#45;&gt;0</title>
<path fill="none" stroke="green" stroke-width="0.494687" d="M485.761,-186.526C485.551,-167.562 486.995,-119.748 505,-85.4975 514.711,-67.0248 532.189,-50.8002 545.954,-39.9376"/>
<polygon fill="green" stroke="green" stroke-width="0.494687" points="548.079,-42.7189 553.943,-33.8948 543.856,-37.1361 548.079,-42.7189"/>
</g>
<!-- &#45;16&#45;&gt;1 -->
<g id="edge23" class="edge"><title>&#45;16&#45;&gt;1</title>
<path fill="none" stroke="red" stroke-width="0.249002" d="M471.492,-189.399C457.781,-184.414 436.598,-176.883 418,-170.995 351.11,-149.819 271.164,-128.029 232.01,-117.584"/>
<polygon fill="red" stroke="red" stroke-width="0.249002" points="232.657,-114.134 222.093,-114.949 230.859,-120.9 232.657,-114.134"/>
</g>
<!-- 7978 -->
<g id="node31" class="node"><title>7978</title>
<ellipse fill="white" stroke="black" cx="539" cy="-110.246" rx="25" ry="25"/>
<text text-anchor="middle" x="539" y="-108.046" font-family="Times,serif" font-size="9.00">7978</text>
</g>
<!-- &#45;16&#45;&gt;7978 -->
<g id="edge29" class="edge"><title>&#45;16&#45;&gt;7978</title>
<path fill="none" stroke="red" stroke-width="0.289126" d="M491.082,-186.738C497.815,-176.13 510.058,-156.842 520.483,-140.418"/>
<polygon fill="red" stroke="red" stroke-width="0.289126" points="523.637,-141.98 526.041,-131.662 517.727,-138.229 523.637,-141.98"/>
</g>
<!-- &#45;17 -->
<g id="node17" class="node"><title>&#45;17</title>
<polygon fill="lightgray" stroke="black" points="118.5,-204.744 89.5,-204.744 89.5,-186.744 118.5,-186.744 118.5,-204.744"/>
<text text-anchor="middle" x="104" y="-193.544" font-family="Times,serif" font-size="9.00">&#45;17</text>
</g>
<!-- &#45;17&#45;&gt;1 -->
<g id="edge34" class="edge"><title>&#45;17&#45;&gt;1</title>
<path fill="none" stroke="green" stroke-width="0.100711" d="M111.352,-186.496C115.719,-181.768 121.469,-175.831 127,-170.995 146.535,-153.914 170.662,-136.545 187.48,-124.969"/>
<polygon fill="green" stroke="green" stroke-width="0.100711" points="189.699,-127.693 195.996,-119.173 185.76,-121.906 189.699,-127.693"/>
</g>
<!-- &#45;18 -->
<g id="node18" class="node"><title>&#45;18</title>
<polygon fill="lightgray" stroke="black" points="742.5,-119.246 713.5,-119.246 713.5,-101.246 742.5,-101.246 742.5,-119.246"/>
<text text-anchor="middle" x="728" y="-108.046" font-family="Times,serif" font-size="9.00">&#45;18</text>
</g>
<!-- &#45;18&#45;&gt;0 -->
<g id="edge37" class="edge"><title>&#45;18&#45;&gt;0</title>
<path fill="none" stroke="red" stroke-width="0.629811" d="M721.429,-100.956C717.157,-95.9781 711.237,-89.7985 705,-85.4975 668.215,-60.1319 618.942,-42.0948 590.019,-32.8469"/>
<polygon fill="red" stroke="red" stroke-width="0.629811" points="590.933,-29.4659 580.345,-29.8401 588.855,-36.1504 590.933,-29.4659"/>
</g>
<!-- &#45;18&#45;&gt;2 -->
<g id="edge18" class="edge"><title>&#45;18&#45;&gt;2</title>
<path fill="none" stroke="green" stroke-width="0.3669" d="M735.671,-101.24C748.287,-88.0725 773.718,-61.529 790.808,-43.6924"/>
<polygon fill="green" stroke="green" stroke-width="0.3669" points="793.606,-45.8312 797.997,-36.1891 788.551,-40.9884 793.606,-45.8312"/>
</g>
<!-- 3 -->
<g id="node28" class="node"><title>3</title>
<ellipse fill="lightblue" stroke="black" cx="728" cy="-24.7487" rx="14.7" ry="14.7"/>
<text text-anchor="middle" x="728" y="-22.5487" font-family="Times,serif" font-size="9.00">3</text>
</g>
<!-- &#45;18&#45;&gt;3 -->
<g id="edge26" class="edge"><title>&#45;18&#45;&gt;3</title>
<path fill="none" stroke="green" stroke-width="0.126092" d="M728,-101.24C728,-89.4769 728,-67.0389 728,-49.6698"/>
<polygon fill="green" stroke="green" stroke-width="0.126092" points="731.5,-49.6509 728,-39.6509 724.5,-49.6509 731.5,-49.6509"/>
</g>
<!-- &#45;19 -->
<g id="node19" class="node"><title>&#45;19</title>
<polygon fill="lightgray" stroke="black" points="930.5,-119.246 901.5,-119.246 901.5,-101.246 930.5,-101.246 930.5,-119.246"/>
<text text-anchor="middle" x="916" y="-108.046" font-family="Times,serif" font-size="9.00">&#45;19</text>
</g>
<!-- &#45;19&#45;&gt;2 -->
<g id="edge9" class="edge"><title>&#45;19&#45;&gt;2</title>
<path fill="none" stroke="red" stroke-width="0.317325" d="M908.689,-100.951C904.336,-96.2071 898.586,-90.2699 893,-85.4975 872.329,-67.8363 846.534,-50.2598 828.814,-38.7906"/>
<polygon fill="red" stroke="red" stroke-width="0.317325" points="830.664,-35.8193 820.353,-33.3815 826.893,-41.717 830.664,-35.8193"/>
</g>
<!-- &#45;20 -->
<g id="node20" class="node"><title>&#45;20</title>
<polygon fill="lightgray" stroke="black" points="977.5,-119.246 948.5,-119.246 948.5,-101.246 977.5,-101.246 977.5,-119.246"/>
<text text-anchor="middle" x="963" y="-108.046" font-family="Times,serif" font-size="9.00">&#45;20</text>
</g>
<!-- &#45;20&#45;&gt;2 -->
<g id="edge1" class="edge"><title>&#45;20&#45;&gt;2</title>
<path fill="none" stroke="red" stroke-width="0.346071" d="M956.4,-100.997C952.117,-96.0356 946.196,-89.8578 940,-85.4975 905.342,-61.1071 859.131,-42.9421 831.584,-33.3722"/>
<polygon fill="red" stroke="red" stroke-width="0.346071" points="832.598,-30.0202 822.003,-30.1302 830.354,-36.6509 832.598,-30.0202"/>
</g>
<!-- &#45;20&#45;&gt;6941 -->
<g id="edge17" class="edge"><title>&#45;20&#45;&gt;6941</title>
<path fill="none" stroke="green" stroke-width="0.164599" d="M963,-101.24C963,-91.6887 963,-75.0995 963,-59.9004"/>
<polygon fill="green" stroke="green" stroke-width="0.164599" points="966.5,-59.7037 963,-49.7037 959.5,-59.7038 966.5,-59.7037"/>
</g>
<!-- &#45;21 -->
<g id="node21" class="node"><title>&#45;21</title>
<polygon fill="lightgray" stroke="black" points="695.5,-119.246 666.5,-119.246 666.5,-101.246 695.5,-101.246 695.5,-119.246"/>
<text text-anchor="middle" x="681" y="-108.046" font-family="Times,serif" font-size="9.00">&#45;21</text>
</g>
<!-- &#45;21&#45;&gt;0 -->
<g id="edge13" class="edge"><title>&#45;21&#45;&gt;0</title>
<path fill="none" stroke="green" stroke-width="2.48802" d="M673.374,-100.913C668.832,-96.1558 662.832,-90.2186 657,-85.4975 634.507,-67.2871 606.363,-49.4843 587.377,-38.1171"/>
<polygon fill="green" stroke="green" stroke-width="2.48802" points="588.999,-35.0103 578.609,-32.9358 585.438,-41.0367 588.999,-35.0103"/>
</g>
<!-- &#45;21&#45;&gt;2 -->
<g id="edge30" class="edge"><title>&#45;21&#45;&gt;2</title>
<path fill="none" stroke="green" stroke-width="0.543091" d="M688.079,-101.194C692.62,-96.3058 698.807,-90.1367 705,-85.4975 731.43,-65.6974 741.543,-66.2543 770,-49.4975 775.583,-46.2099 781.555,-42.548 787.072,-39.1032"/>
<polygon fill="green" stroke="green" stroke-width="0.543091" points="789.185,-41.9086 795.779,-33.6153 785.453,-35.9868 789.185,-41.9086"/>
</g>
<!-- &#45;22 -->
<g id="node22" class="node"><title>&#45;22</title>
<polygon fill="lightgray" stroke="black" points="165.5,-204.744 136.5,-204.744 136.5,-186.744 165.5,-186.744 165.5,-204.744"/>
<text text-anchor="middle" x="151" y="-193.544" font-family="Times,serif" font-size="9.00">&#45;22</text>
</g>
<!-- &#45;22&#45;&gt;1 -->
<g id="edge15" class="edge"><title>&#45;22&#45;&gt;1</title>
<path fill="none" stroke="green" stroke-width="0.273521" d="M156.465,-186.738C165.055,-174.155 181.983,-149.358 194.094,-131.616"/>
<polygon fill="green" stroke="green" stroke-width="0.273521" points="197.172,-133.316 199.919,-123.083 191.391,-129.369 197.172,-133.316"/>
</g>
<!-- &#45;23 -->
<g id="node23" class="node"><title>&#45;23</title>
<polygon fill="lightgray" stroke="black" points="530.5,-290.241 501.5,-290.241 501.5,-272.241 530.5,-272.241 530.5,-290.241"/>
<text text-anchor="middle" x="516" y="-279.041" font-family="Times,serif" font-size="9.00">&#45;23</text>
</g>
<!-- &#45;24 -->
<g id="node24" class="node"><title>&#45;24</title>
<polygon fill="lightgray" stroke="black" points="789.5,-119.246 760.5,-119.246 760.5,-101.246 789.5,-101.246 789.5,-119.246"/>
<text text-anchor="middle" x="775" y="-108.046" font-family="Times,serif" font-size="9.00">&#45;24</text>
</g>
<!-- &#45;24&#45;&gt;0 -->
<g id="edge31" class="edge"><title>&#45;24&#45;&gt;0</title>
<path fill="none" stroke="green" stroke-width="0.532528" d="M768.947,-101.2C764.707,-96.0632 758.63,-89.6182 752,-85.4975 699.564,-52.9059 627.656,-36.4541 590.479,-29.6679"/>
<polygon fill="green" stroke="green" stroke-width="0.532528" points="590.989,-26.2042 580.537,-27.9346 589.787,-33.1002 590.989,-26.2042"/>
</g>
<!-- &#45;24&#45;&gt;6941 -->
<g id="edge4" class="edge"><title>&#45;24&#45;&gt;6941</title>
<path fill="none" stroke="red" stroke-width="0.629977" d="M781.837,-100.843C786.287,-95.8233 792.464,-89.6387 799,-85.4975 840.176,-59.4086 894.358,-42.5153 928.944,-33.562"/>
<polygon fill="red" stroke="red" stroke-width="0.629977" points="930.164,-36.8645 939.012,-31.0369 928.461,-30.0748 930.164,-36.8645"/>
</g>
<!-- 1&#45;&gt;1 -->
<g id="edge20" class="edge"><title>1&#45;&gt;1</title>
<path fill="none" stroke="green" stroke-width="0.147024" d="M217.416,-121.809C228.273,-130.014 240.849,-126.16 240.849,-110.246 240.849,-98.808 234.352,-93.5999 226.666,-94.622"/>
<polygon fill="green" stroke="green" stroke-width="0.147024" points="225.165,-91.4586 217.416,-98.6837 227.979,-97.868 225.165,-91.4586"/>
</g>
<!-- 2&#45;&gt;2 -->
<g id="edge16" class="edge"><title>2&#45;&gt;2</title>
<path fill="none" stroke="green" stroke-width="0.562864" d="M817.416,-36.3113C828.273,-44.517 840.849,-40.6628 840.849,-24.7487 840.849,-13.3105 834.352,-8.10242 826.666,-9.12449"/>
<polygon fill="green" stroke="green" stroke-width="0.562864" points="825.165,-5.96114 817.416,-13.1862 827.979,-12.3705 825.165,-5.96114"/>
</g>
<!-- 3&#45;&gt;3 -->
<g id="edge10" class="edge"><title>3&#45;&gt;3</title>
<path fill="none" stroke="red" stroke-width="0.104838" d="M737.416,-36.3113C748.273,-44.517 760.849,-40.6628 760.849,-24.7487 760.849,-13.3105 754.352,-8.10242 746.666,-9.12449"/>
<polygon fill="red" stroke="red" stroke-width="0.104838" points="745.165,-5.96114 737.416,-13.1862 747.979,-12.3705 745.165,-5.96114"/>
</g>
<!-- 7940&#45;&gt;1 -->
<g id="edge19" class="edge"><title>7940&#45;&gt;1</title>
<path fill="none" stroke="red" stroke-width="0.103981" d="M208,-170.593C208,-159.611 208,-146.642 208,-135.632"/>
<polygon fill="red" stroke="red" stroke-width="0.103981" points="211.5,-135.422 208,-125.422 204.5,-135.422 211.5,-135.422"/>
</g>
<!-- 4550 -->
<g id="node30" class="node"><title>4550</title>
<ellipse fill="white" stroke="black" cx="573" cy="-281.241" rx="25" ry="25"/>
<text text-anchor="middle" x="573" y="-279.041" font-family="Times,serif" font-size="9.00">4550</text>
</g>
<!-- 7978&#45;&gt;0 -->
<g id="edge27" class="edge"><title>7978&#45;&gt;0</title>
<path fill="none" stroke="green" stroke-width="0.163122" d="M546.378,-86.4302C550.146,-74.7783 554.721,-60.6303 558.505,-48.9273"/>
<polygon fill="green" stroke="green" stroke-width="0.163122" points="561.84,-49.9883 561.587,-39.3965 555.18,-47.8345 561.84,-49.9883"/>
</g>
<!-- 4017 -->
<g id="node32" class="node"><title>4017</title>
<ellipse fill="white" stroke="black" cx="275" cy="-195.744" rx="25" ry="25"/>
<text text-anchor="middle" x="275" y="-193.544" font-family="Times,serif" font-size="9.00">4017</text>
</g>
<!-- 4017&#45;&gt;1 -->
<g id="edge33" class="edge"><title>4017&#45;&gt;1</title>
<path fill="none" stroke="green" stroke-width="0.274342" d="M259.797,-175.797C248.926,-162.249 234.347,-144.081 223.426,-130.471"/>
<polygon fill="green" stroke="green" stroke-width="0.274342" points="226.153,-128.276 217.165,-122.667 220.693,-132.657 226.153,-128.276"/>
</g>
<!-- 7161&#45;&gt;1 -->
<g id="edge35" class="edge"><title>7161&#45;&gt;1</title>
<path fill="none" stroke="red" stroke-width="0.10094" d="M322.307,-180.135C317.974,-177.043 313.372,-173.853 309,-170.995 282.207,-153.48 250.258,-134.958 229.574,-123.263"/>
<polygon fill="red" stroke="red" stroke-width="0.10094" points="231.091,-120.101 220.659,-118.251 227.661,-126.203 231.091,-120.101"/>
</g>
</g>
</svg>
