<?xml version="1.0" encoding="UTF-8" standalone="no"?>
<!DOCTYPE svg PUBLIC "-//W3C//DTD SVG 1.1//EN"
 "http://www.w3.org/Graphics/SVG/1.1/DTD/svg11.dtd">
<!-- Generated by graphviz version 2.38.0 (20140413.2041)
 -->
<!-- Title: %3 Pages: 1 -->
<svg width="1298pt" height="508pt"
 viewBox="0.00 0.00 1298.25 507.61" xmlns="http://www.w3.org/2000/svg" xmlns:xlink="http://www.w3.org/1999/xlink">
<g id="graph0" class="graph" transform="scale(1 1) rotate(0) translate(4 503.612)">
<title>%3</title>
<polygon fill="white" stroke="none" points="-4,4 -4,-503.612 1294.25,-503.612 1294.25,4 -4,4"/>
<!-- &#45;1 -->
<g id="node1" class="node"><title>&#45;1</title>
<polygon fill="lightgray" stroke="black" points="207.5,-483.864 183.5,-483.864 183.5,-465.864 207.5,-465.864 207.5,-483.864"/>
<text text-anchor="middle" x="195.5" y="-472.664" font-family="Times,serif" font-size="9.00">&#45;1</text>
</g>
<!-- &#45;2 -->
<g id="node2" class="node"><title>&#45;2</title>
<polygon fill="lightgray" stroke="black" points="729.5,-304.383 705.5,-304.383 705.5,-286.383 729.5,-286.383 729.5,-304.383"/>
<text text-anchor="middle" x="717.5" y="-293.183" font-family="Times,serif" font-size="9.00">&#45;2</text>
</g>
<!-- 3 -->
<g id="node28" class="node"><title>3</title>
<ellipse fill="lightblue" stroke="black" cx="67.5" cy="-204.229" rx="14.7" ry="14.7"/>
<text text-anchor="middle" x="67.5" y="-202.029" font-family="Times,serif" font-size="9.00">3</text>
</g>
<!-- &#45;2&#45;&gt;3 -->
<g id="edge42" class="edge"><title>&#45;2&#45;&gt;3</title>
<path fill="none" stroke="green" stroke-width="0.365986" d="M709.721,-286.28C703.131,-280.002 693.087,-271.732 682.5,-267.806 558.924,-221.982 208.652,-290.209 90.5,-231.806 87.2726,-230.211 84.3111,-227.939 81.6645,-225.388"/>
<polygon fill="green" stroke="green" stroke-width="0.365986" points="83.8854,-222.601 74.7178,-217.29 78.5725,-227.159 83.8854,-222.601"/>
</g>
<!-- 5890 -->
<g id="node29" class="node"><title>5890</title>
<ellipse fill="white" stroke="black" cx="732.5" cy="-204.229" rx="25" ry="25"/>
<text text-anchor="middle" x="732.5" y="-202.029" font-family="Times,serif" font-size="9.00">5890</text>
</g>
<!-- &#45;2&#45;&gt;5890 -->
<g id="edge30" class="edge"><title>&#45;2&#45;&gt;5890</title>
<path fill="none" stroke="green" stroke-width="0.444182" d="M718.884,-286.156C720.686,-275.446 723.945,-256.076 726.823,-238.971"/>
<polygon fill="green" stroke="green" stroke-width="0.444182" points="730.341,-239.154 728.549,-228.712 723.438,-237.992 730.341,-239.154"/>
</g>
<!-- 2968 -->
<g id="node34" class="node"><title>2968</title>
<ellipse fill="white" stroke="black" cx="518.5" cy="-24.7487" rx="25" ry="25"/>
<text text-anchor="middle" x="518.5" y="-22.5487" font-family="Times,serif" font-size="9.00">2968</text>
</g>
<!-- &#45;2&#45;&gt;2968 -->
<g id="edge14" class="edge"><title>&#45;2&#45;&gt;2968</title>
<path fill="none" stroke="red" stroke-width="1.26791" d="M714.935,-286.314C711.182,-274.424 704.039,-251.478 698.5,-231.806 680.292,-167.137 704.461,-136.301 660.5,-85.4975 632.864,-53.5595 585.292,-38.2889 552.895,-31.2756"/>
<polygon fill="red" stroke="red" stroke-width="1.26791" points="553.447,-27.8167 542.954,-29.278 552.068,-34.6795 553.447,-27.8167"/>
</g>
<!-- 10445 -->
<g id="node44" class="node"><title>10445</title>
<ellipse fill="white" stroke="black" cx="802.5" cy="-204.229" rx="27.6545" ry="27.6545"/>
<text text-anchor="middle" x="802.5" y="-202.029" font-family="Times,serif" font-size="9.00">10445</text>
</g>
<!-- &#45;2&#45;&gt;10445 -->
<g id="edge24" class="edge"><title>&#45;2&#45;&gt;10445</title>
<path fill="none" stroke="red" stroke-width="0.119821" d="M725.344,-286.156C736.852,-274.086 758.848,-251.014 776.42,-232.584"/>
<polygon fill="red" stroke="red" stroke-width="0.119821" points="779.268,-234.668 783.636,-225.015 774.202,-229.838 779.268,-234.668"/>
</g>
<!-- &#45;3 -->
<g id="node3" class="node"><title>&#45;3</title>
<polygon fill="lightgray" stroke="black" points="996.5,-304.383 972.5,-304.383 972.5,-286.383 996.5,-286.383 996.5,-304.383"/>
<text text-anchor="middle" x="984.5" y="-293.183" font-family="Times,serif" font-size="9.00">&#45;3</text>
</g>
<!-- 2005 -->
<g id="node46" class="node"><title>2005</title>
<ellipse fill="white" stroke="black" cx="984.5" cy="-204.229" rx="25" ry="25"/>
<text text-anchor="middle" x="984.5" y="-202.029" font-family="Times,serif" font-size="9.00">2005</text>
</g>
<!-- &#45;3&#45;&gt;2005 -->
<g id="edge47" class="edge"><title>&#45;3&#45;&gt;2005</title>
<path fill="none" stroke="green" stroke-width="0.62922" d="M984.5,-286.156C984.5,-275.518 984.5,-256.334 984.5,-239.314"/>
<polygon fill="green" stroke="green" stroke-width="0.62922" points="988,-239.091 984.5,-229.091 981,-239.091 988,-239.091"/>
</g>
<!-- &#45;4 -->
<g id="node4" class="node"><title>&#45;4</title>
<polygon fill="lightgray" stroke="black" points="71.5,-395.538 47.5,-395.538 47.5,-377.538 71.5,-377.538 71.5,-395.538"/>
<text text-anchor="middle" x="59.5" y="-384.338" font-family="Times,serif" font-size="9.00">&#45;4</text>
</g>
<!-- 3449 -->
<g id="node55" class="node"><title>3449</title>
<ellipse fill="white" stroke="black" cx="134.5" cy="-295.383" rx="25" ry="25"/>
<text text-anchor="middle" x="134.5" y="-293.183" font-family="Times,serif" font-size="9.00">3449</text>
</g>
<!-- &#45;4&#45;&gt;3449 -->
<g id="edge23" class="edge"><title>&#45;4&#45;&gt;3449</title>
<path fill="none" stroke="green" stroke-width="0.170978" d="M66.0288,-377.084C70.1282,-371.825 75.5569,-364.946 80.5,-358.96 90.5738,-346.763 101.985,-333.466 111.715,-322.279"/>
<polygon fill="green" stroke="green" stroke-width="0.170978" points="114.52,-324.387 118.458,-314.551 109.246,-319.784 114.52,-324.387"/>
</g>
<!-- &#45;5 -->
<g id="node5" class="node"><title>&#45;5</title>
<polygon fill="lightgray" stroke="black" points="418.5,-304.383 394.5,-304.383 394.5,-286.383 418.5,-286.383 418.5,-304.383"/>
<text text-anchor="middle" x="406.5" y="-293.183" font-family="Times,serif" font-size="9.00">&#45;5</text>
</g>
<!-- 2 -->
<g id="node27" class="node"><title>2</title>
<ellipse fill="lightblue" stroke="black" cx="419.5" cy="-204.229" rx="14.7" ry="14.7"/>
<text text-anchor="middle" x="419.5" y="-202.029" font-family="Times,serif" font-size="9.00">2</text>
</g>
<!-- &#45;5&#45;&gt;2 -->
<g id="edge50" class="edge"><title>&#45;5&#45;&gt;2</title>
<path fill="none" stroke="red" stroke-width="0.83461" d="M407.7,-286.156C409.568,-273.34 413.246,-248.121 416.001,-229.224"/>
<polygon fill="red" stroke="red" stroke-width="0.83461" points="419.478,-229.633 417.458,-219.233 412.552,-228.623 419.478,-229.633"/>
</g>
<!-- 13404 -->
<g id="node48" class="node"><title>13404</title>
<ellipse fill="white" stroke="black" cx="320.5" cy="-204.229" rx="27.6545" ry="27.6545"/>
<text text-anchor="middle" x="320.5" y="-202.029" font-family="Times,serif" font-size="9.00">13404</text>
</g>
<!-- &#45;5&#45;&gt;13404 -->
<g id="edge37" class="edge"><title>&#45;5&#45;&gt;13404</title>
<path fill="none" stroke="green" stroke-width="0.302934" d="M400.524,-286.244C396.463,-280.861 390.872,-273.731 385.5,-267.806 373.847,-254.956 360.113,-241.513 348.278,-230.395"/>
<polygon fill="green" stroke="green" stroke-width="0.302934" points="350.522,-227.702 340.816,-223.454 345.755,-232.828 350.522,-227.702"/>
</g>
<!-- &#45;6 -->
<g id="node6" class="node"><title>&#45;6</title>
<polygon fill="lightgray" stroke="black" points="850.5,-483.864 826.5,-483.864 826.5,-465.864 850.5,-465.864 850.5,-483.864"/>
<text text-anchor="middle" x="838.5" y="-472.664" font-family="Times,serif" font-size="9.00">&#45;6</text>
</g>
<!-- &#45;7 -->
<g id="node7" class="node"><title>&#45;7</title>
<polygon fill="lightgray" stroke="black" points="892.5,-483.864 868.5,-483.864 868.5,-465.864 892.5,-465.864 892.5,-483.864"/>
<text text-anchor="middle" x="880.5" y="-472.664" font-family="Times,serif" font-size="9.00">&#45;7</text>
</g>
<!-- &#45;8 -->
<g id="node8" class="node"><title>&#45;8</title>
<polygon fill="lightgray" stroke="black" points="249.5,-483.864 225.5,-483.864 225.5,-465.864 249.5,-465.864 249.5,-483.864"/>
<text text-anchor="middle" x="237.5" y="-472.664" font-family="Times,serif" font-size="9.00">&#45;8</text>
</g>
<!-- 10719 -->
<g id="node49" class="node"><title>10719</title>
<ellipse fill="white" stroke="black" cx="237.5" cy="-386.538" rx="27.6545" ry="27.6545"/>
<text text-anchor="middle" x="237.5" y="-384.338" font-family="Times,serif" font-size="9.00">10719</text>
</g>
<!-- &#45;8&#45;&gt;10719 -->
<g id="edge20" class="edge"><title>&#45;8&#45;&gt;10719</title>
<path fill="none" stroke="red" stroke-width="0.690114" d="M237.5,-465.586C237.5,-456.054 237.5,-439.742 237.5,-424.488"/>
<polygon fill="red" stroke="red" stroke-width="0.690114" points="241,-424.192 237.5,-414.192 234,-424.192 241,-424.192"/>
</g>
<!-- &#45;9 -->
<g id="node9" class="node"><title>&#45;9</title>
<polygon fill="lightgray" stroke="black" points="501.5,-395.538 477.5,-395.538 477.5,-377.538 501.5,-377.538 501.5,-395.538"/>
<text text-anchor="middle" x="489.5" y="-384.338" font-family="Times,serif" font-size="9.00">&#45;9</text>
</g>
<!-- 5233 -->
<g id="node53" class="node"><title>5233</title>
<ellipse fill="white" stroke="black" cx="461.5" cy="-295.383" rx="25" ry="25"/>
<text text-anchor="middle" x="461.5" y="-293.183" font-family="Times,serif" font-size="9.00">5233</text>
</g>
<!-- &#45;9&#45;&gt;5233 -->
<g id="edge17" class="edge"><title>&#45;9&#45;&gt;5233</title>
<path fill="none" stroke="green" stroke-width="1.04987" d="M486.916,-377.31C483.476,-366.355 477.189,-346.339 471.729,-328.954"/>
<polygon fill="green" stroke="green" stroke-width="1.04987" points="474.974,-327.603 468.638,-319.111 468.295,-329.701 474.974,-327.603"/>
</g>
<!-- &#45;10 -->
<g id="node10" class="node"><title>&#45;10</title>
<polygon fill="lightgray" stroke="black" points="954,-304.383 925,-304.383 925,-286.383 954,-286.383 954,-304.383"/>
<text text-anchor="middle" x="939.5" y="-293.183" font-family="Times,serif" font-size="9.00">&#45;10</text>
</g>
<!-- &#45;10&#45;&gt;10445 -->
<g id="edge16" class="edge"><title>&#45;10&#45;&gt;10445</title>
<path fill="none" stroke="green" stroke-width="0.368134" d="M926.857,-286.156C905.906,-272.522 863.385,-244.851 833.938,-225.688"/>
<polygon fill="green" stroke="green" stroke-width="0.368134" points="835.548,-222.559 825.257,-220.039 831.73,-228.426 835.548,-222.559"/>
</g>
<!-- &#45;10&#45;&gt;2005 -->
<g id="edge38" class="edge"><title>&#45;10&#45;&gt;2005</title>
<path fill="none" stroke="red" stroke-width="0.337723" d="M943.653,-286.156C949.397,-274.776 960.076,-253.618 969.075,-235.789"/>
<polygon fill="red" stroke="red" stroke-width="0.337723" points="972.211,-237.344 973.592,-226.839 965.962,-234.189 972.211,-237.344"/>
</g>
<!-- &#45;11 -->
<g id="node11" class="node"><title>&#45;11</title>
<polygon fill="lightgray" stroke="black" points="1054,-395.538 1025,-395.538 1025,-377.538 1054,-377.538 1054,-395.538"/>
<text text-anchor="middle" x="1039.5" y="-384.338" font-family="Times,serif" font-size="9.00">&#45;11</text>
</g>
<!-- 3847 -->
<g id="node30" class="node"><title>3847</title>
<ellipse fill="white" stroke="black" cx="1039.5" cy="-295.383" rx="25" ry="25"/>
<text text-anchor="middle" x="1039.5" y="-293.183" font-family="Times,serif" font-size="9.00">3847</text>
</g>
<!-- &#45;11&#45;&gt;3847 -->
<g id="edge36" class="edge"><title>&#45;11&#45;&gt;3847</title>
<path fill="none" stroke="red" stroke-width="0.461131" d="M1039.5,-377.31C1039.5,-366.672 1039.5,-347.488 1039.5,-330.468"/>
<polygon fill="red" stroke="red" stroke-width="0.461131" points="1043,-330.246 1039.5,-320.246 1036,-330.246 1043,-330.246"/>
</g>
<!-- &#45;12 -->
<g id="node12" class="node"><title>&#45;12</title>
<polygon fill="lightgray" stroke="black" points="940,-483.864 911,-483.864 911,-465.864 940,-465.864 940,-483.864"/>
<text text-anchor="middle" x="925.5" y="-472.664" font-family="Times,serif" font-size="9.00">&#45;12</text>
</g>
<!-- &#45;13 -->
<g id="node13" class="node"><title>&#45;13</title>
<polygon fill="lightgray" stroke="black" points="987,-483.864 958,-483.864 958,-465.864 987,-465.864 987,-483.864"/>
<text text-anchor="middle" x="972.5" y="-472.664" font-family="Times,serif" font-size="9.00">&#45;13</text>
</g>
<!-- &#45;14 -->
<g id="node14" class="node"><title>&#45;14</title>
<polygon fill="lightgray" stroke="black" points="1034,-483.864 1005,-483.864 1005,-465.864 1034,-465.864 1034,-483.864"/>
<text text-anchor="middle" x="1019.5" y="-472.664" font-family="Times,serif" font-size="9.00">&#45;14</text>
</g>
<!-- &#45;15 -->
<g id="node15" class="node"><title>&#45;15</title>
<polygon fill="lightgray" stroke="black" points="1081,-483.864 1052,-483.864 1052,-465.864 1081,-465.864 1081,-483.864"/>
<text text-anchor="middle" x="1066.5" y="-472.664" font-family="Times,serif" font-size="9.00">&#45;15</text>
</g>
<!-- &#45;16 -->
<g id="node16" class="node"><title>&#45;16</title>
<polygon fill="lightgray" stroke="black" points="1128,-483.864 1099,-483.864 1099,-465.864 1128,-465.864 1128,-483.864"/>
<text text-anchor="middle" x="1113.5" y="-472.664" font-family="Times,serif" font-size="9.00">&#45;16</text>
</g>
<!-- &#45;17 -->
<g id="node17" class="node"><title>&#45;17</title>
<polygon fill="lightgray" stroke="black" points="449,-483.864 420,-483.864 420,-465.864 449,-465.864 449,-483.864"/>
<text text-anchor="middle" x="434.5" y="-472.664" font-family="Times,serif" font-size="9.00">&#45;17</text>
</g>
<!-- 4423 -->
<g id="node43" class="node"><title>4423</title>
<ellipse fill="white" stroke="black" cx="434.5" cy="-386.538" rx="25" ry="25"/>
<text text-anchor="middle" x="434.5" y="-384.338" font-family="Times,serif" font-size="9.00">4423</text>
</g>
<!-- &#45;17&#45;&gt;4423 -->
<g id="edge1" class="edge"><title>&#45;17&#45;&gt;4423</title>
<path fill="none" stroke="red" stroke-width="0.39845" d="M434.5,-465.586C434.5,-455.478 434.5,-437.745 434.5,-421.734"/>
<polygon fill="red" stroke="red" stroke-width="0.39845" points="438,-421.559 434.5,-411.559 431,-421.559 438,-421.559"/>
</g>
<!-- &#45;18 -->
<g id="node18" class="node"><title>&#45;18</title>
<polygon fill="lightgray" stroke="black" points="119,-395.538 90,-395.538 90,-377.538 119,-377.538 119,-395.538"/>
<text text-anchor="middle" x="104.5" y="-384.338" font-family="Times,serif" font-size="9.00">&#45;18</text>
</g>
<!-- &#45;18&#45;&gt;3449 -->
<g id="edge18" class="edge"><title>&#45;18&#45;&gt;3449</title>
<path fill="none" stroke="red" stroke-width="0.296575" d="M107.269,-377.31C110.955,-366.355 117.69,-346.339 123.54,-328.954"/>
<polygon fill="red" stroke="red" stroke-width="0.296575" points="126.98,-329.705 126.852,-319.111 120.346,-327.473 126.98,-329.705"/>
</g>
<!-- &#45;19 -->
<g id="node19" class="node"><title>&#45;19</title>
<polygon fill="lightgray" stroke="black" points="654,-395.538 625,-395.538 625,-377.538 654,-377.538 654,-395.538"/>
<text text-anchor="middle" x="639.5" y="-384.338" font-family="Times,serif" font-size="9.00">&#45;19</text>
</g>
<!-- 9126 -->
<g id="node38" class="node"><title>9126</title>
<ellipse fill="white" stroke="black" cx="648.5" cy="-295.383" rx="25" ry="25"/>
<text text-anchor="middle" x="648.5" y="-293.183" font-family="Times,serif" font-size="9.00">9126</text>
</g>
<!-- &#45;19&#45;&gt;9126 -->
<g id="edge7" class="edge"><title>&#45;19&#45;&gt;9126</title>
<path fill="none" stroke="green" stroke-width="0.728832" d="M640.331,-377.31C641.404,-366.672 643.341,-347.488 645.059,-330.468"/>
<polygon fill="green" stroke="green" stroke-width="0.728832" points="648.569,-330.547 646.091,-320.246 641.604,-329.844 648.569,-330.547"/>
</g>
<!-- &#45;20 -->
<g id="node20" class="node"><title>&#45;20</title>
<polygon fill="lightgray" stroke="black" points="202,-213.229 173,-213.229 173,-195.229 202,-195.229 202,-213.229"/>
<text text-anchor="middle" x="187.5" y="-202.029" font-family="Times,serif" font-size="9.00">&#45;20</text>
</g>
<!-- 2796 -->
<g id="node52" class="node"><title>2796</title>
<ellipse fill="white" stroke="black" cx="217.5" cy="-113.075" rx="25" ry="25"/>
<text text-anchor="middle" x="217.5" y="-110.875" font-family="Times,serif" font-size="9.00">2796</text>
</g>
<!-- &#45;20&#45;&gt;2796 -->
<g id="edge43" class="edge"><title>&#45;20&#45;&gt;2796</title>
<path fill="none" stroke="red" stroke-width="0.132756" d="M190.269,-195.001C193.955,-184.047 200.69,-164.03 206.54,-146.646"/>
<polygon fill="red" stroke="red" stroke-width="0.132756" points="209.98,-147.397 209.852,-136.803 203.346,-145.164 209.98,-147.397"/>
</g>
<!-- &#45;21 -->
<g id="node21" class="node"><title>&#45;21</title>
<polygon fill="lightgray" stroke="black" points="533,-304.383 504,-304.383 504,-286.383 533,-286.383 533,-304.383"/>
<text text-anchor="middle" x="518.5" y="-293.183" font-family="Times,serif" font-size="9.00">&#45;21</text>
</g>
<!-- 13080 -->
<g id="node35" class="node"><title>13080</title>
<ellipse fill="white" stroke="black" cx="518.5" cy="-204.229" rx="27.6545" ry="27.6545"/>
<text text-anchor="middle" x="518.5" y="-202.029" font-family="Times,serif" font-size="9.00">13080</text>
</g>
<!-- &#45;21&#45;&gt;13080 -->
<g id="edge49" class="edge"><title>&#45;21&#45;&gt;13080</title>
<path fill="none" stroke="red" stroke-width="1.34927" d="M518.5,-286.156C518.5,-276.184 518.5,-258.703 518.5,-242.534"/>
<polygon fill="red" stroke="red" stroke-width="1.34927" points="522,-242.19 518.5,-232.19 515,-242.19 522,-242.19"/>
</g>
<!-- &#45;22 -->
<g id="node22" class="node"><title>&#45;22</title>
<polygon fill="lightgray" stroke="black" points="1175,-483.864 1146,-483.864 1146,-465.864 1175,-465.864 1175,-483.864"/>
<text text-anchor="middle" x="1160.5" y="-472.664" font-family="Times,serif" font-size="9.00">&#45;22</text>
</g>
<!-- &#45;23 -->
<g id="node23" class="node"><title>&#45;23</title>
<polygon fill="lightgray" stroke="black" points="526,-483.864 497,-483.864 497,-465.864 526,-465.864 526,-483.864"/>
<text text-anchor="middle" x="511.5" y="-472.664" font-family="Times,serif" font-size="9.00">&#45;23</text>
</g>
<!-- 13998 -->
<g id="node40" class="node"><title>13998</title>
<ellipse fill="white" stroke="black" cx="578.5" cy="-295.383" rx="27.6545" ry="27.6545"/>
<text text-anchor="middle" x="578.5" y="-293.183" font-family="Times,serif" font-size="9.00">13998</text>
</g>
<!-- &#45;23&#45;&gt;13998 -->
<g id="edge2" class="edge"><title>&#45;23&#45;&gt;13998</title>
<path fill="none" stroke="green" stroke-width="0.3" d="M514.553,-465.776C523.412,-442.31 549.507,-373.185 565.492,-330.84"/>
<polygon fill="green" stroke="green" stroke-width="0.3" points="568.774,-332.058 569.031,-321.466 562.225,-329.586 568.774,-332.058"/>
</g>
<!-- &#45;23&#45;&gt;4423 -->
<g id="edge22" class="edge"><title>&#45;23&#45;&gt;4423</title>
<path fill="none" stroke="green" stroke-width="0.290765" d="M504.117,-465.586C493.476,-453.656 473.361,-431.105 457.479,-413.3"/>
<polygon fill="green" stroke="green" stroke-width="0.290765" points="459.797,-410.641 450.529,-405.508 454.574,-415.3 459.797,-410.641"/>
</g>
<!-- &#45;24 -->
<g id="node24" class="node"><title>&#45;24</title>
<polygon fill="lightgray" stroke="black" points="29,-395.538 1.77636e-15,-395.538 1.77636e-15,-377.538 29,-377.538 29,-395.538"/>
<text text-anchor="middle" x="14.5" y="-384.338" font-family="Times,serif" font-size="9.00">&#45;24</text>
</g>
<!-- &#45;24&#45;&gt;3 -->
<g id="edge27" class="edge"><title>&#45;24&#45;&gt;3</title>
<path fill="none" stroke="green" stroke-width="0.760809" d="M14.8766,-377.316C15.972,-357.806 19.9931,-307.387 33.5,-267.806 38.5413,-253.033 46.8794,-237.612 54.0365,-225.774"/>
<polygon fill="green" stroke="green" stroke-width="0.760809" points="57.1067,-227.466 59.4375,-217.13 51.1703,-223.756 57.1067,-227.466"/>
</g>
<!-- &#45;24&#45;&gt;3449 -->
<g id="edge26" class="edge"><title>&#45;24&#45;&gt;3449</title>
<path fill="none" stroke="red" stroke-width="0.770203" d="M20.641,-377.474C25.1777,-371.855 31.7198,-364.418 38.5,-358.96 63.622,-338.74 74.8578,-341.132 101.5,-322.96 103.627,-321.51 105.789,-319.959 107.937,-318.362"/>
<polygon fill="red" stroke="red" stroke-width="0.770203" points="110.276,-320.979 116.048,-312.094 105.995,-315.44 110.276,-320.979"/>
</g>
<!-- 0 -->
<g id="node25" class="node"><title>0</title>
<ellipse fill="lightblue" stroke="black" cx="1207.5" cy="-474.864" rx="14.7" ry="14.7"/>
<text text-anchor="middle" x="1207.5" y="-472.664" font-family="Times,serif" font-size="9.00">0</text>
</g>
<!-- 1 -->
<g id="node26" class="node"><title>1</title>
<ellipse fill="lightblue" stroke="black" cx="984.5" cy="-113.075" rx="14.7" ry="14.7"/>
<text text-anchor="middle" x="984.5" y="-110.875" font-family="Times,serif" font-size="9.00">1</text>
</g>
<!-- 4053 -->
<g id="node47" class="node"><title>4053</title>
<ellipse fill="white" stroke="black" cx="451.5" cy="-113.075" rx="25" ry="25"/>
<text text-anchor="middle" x="451.5" y="-110.875" font-family="Times,serif" font-size="9.00">4053</text>
</g>
<!-- 2&#45;&gt;4053 -->
<g id="edge19" class="edge"><title>2&#45;&gt;4053</title>
<path fill="none" stroke="green" stroke-width="0.51491" d="M424.222,-190.074C428.358,-178.551 434.539,-161.329 439.972,-146.192"/>
<polygon fill="green" stroke="green" stroke-width="0.51491" points="443.322,-147.221 443.406,-136.626 436.733,-144.856 443.322,-147.221"/>
</g>
<!-- 3847&#45;&gt;2005 -->
<g id="edge28" class="edge"><title>3847&#45;&gt;2005</title>
<path fill="none" stroke="red" stroke-width="1.07176" d="M1026.74,-273.705C1019.52,-262.003 1010.38,-247.18 1002.45,-234.321"/>
<polygon fill="red" stroke="red" stroke-width="1.07176" points="1005.42,-232.468 997.187,-225.795 999.459,-236.143 1005.42,-232.468"/>
</g>
<!-- 7694 -->
<g id="node31" class="node"><title>7694</title>
<ellipse fill="white" stroke="black" cx="518.5" cy="-113.075" rx="25" ry="25"/>
<text text-anchor="middle" x="518.5" y="-110.875" font-family="Times,serif" font-size="9.00">7694</text>
</g>
<!-- 7694&#45;&gt;2968 -->
<g id="edge31" class="edge"><title>7694&#45;&gt;2968</title>
<path fill="none" stroke="red" stroke-width="0.322942" d="M518.5,-88.0281C518.5,-79.3287 518.5,-69.331 518.5,-59.9284"/>
<polygon fill="red" stroke="red" stroke-width="0.322942" points="522,-59.6663 518.5,-49.6664 515,-59.6664 522,-59.6663"/>
</g>
<!-- 3986 -->
<g id="node32" class="node"><title>3986</title>
<ellipse fill="white" stroke="black" cx="588.5" cy="-204.229" rx="25" ry="25"/>
<text text-anchor="middle" x="588.5" y="-202.029" font-family="Times,serif" font-size="9.00">3986</text>
</g>
<!-- 3986&#45;&gt;4053 -->
<g id="edge12" class="edge"><title>3986&#45;&gt;4053</title>
<path fill="none" stroke="red" stroke-width="0.148839" d="M570.163,-187.344C565.519,-183.639 560.443,-179.845 555.5,-176.652 525.783,-157.451 514.217,-159.852 484.5,-140.652 482.337,-139.255 480.149,-137.743 477.983,-136.173"/>
<polygon fill="red" stroke="red" stroke-width="0.148839" points="479.911,-133.242 469.837,-129.959 475.665,-138.807 479.911,-133.242"/>
</g>
<!-- 11670 -->
<g id="node33" class="node"><title>11670</title>
<ellipse fill="white" stroke="black" cx="811.5" cy="-386.538" rx="27.6545" ry="27.6545"/>
<text text-anchor="middle" x="811.5" y="-384.338" font-family="Times,serif" font-size="9.00">11670</text>
</g>
<!-- 13080&#45;&gt;7694 -->
<g id="edge44" class="edge"><title>13080&#45;&gt;7694</title>
<path fill="none" stroke="green" stroke-width="0.407272" d="M518.5,-176.48C518.5,-167.61 518.5,-157.614 518.5,-148.263"/>
<polygon fill="green" stroke="green" stroke-width="0.407272" points="522,-148.074 518.5,-138.074 515,-148.075 522,-148.074"/>
</g>
<!-- 12478 -->
<g id="node42" class="node"><title>12478</title>
<ellipse fill="white" stroke="black" cx="623.5" cy="-113.075" rx="27.6545" ry="27.6545"/>
<text text-anchor="middle" x="623.5" y="-110.875" font-family="Times,serif" font-size="9.00">12478</text>
</g>
<!-- 13080&#45;&gt;12478 -->
<g id="edge29" class="edge"><title>13080&#45;&gt;12478</title>
<path fill="none" stroke="red" stroke-width="0.201076" d="M539.245,-185.615C555.208,-172.061 577.445,-153.179 595.066,-138.217"/>
<polygon fill="red" stroke="red" stroke-width="0.201076" points="597.441,-140.793 602.798,-131.652 592.91,-135.457 597.441,-140.793"/>
</g>
<!-- 2714 -->
<g id="node36" class="node"><title>2714</title>
<ellipse fill="white" stroke="black" cx="1265.5" cy="-474.864" rx="25" ry="25"/>
<text text-anchor="middle" x="1265.5" y="-472.664" font-family="Times,serif" font-size="9.00">2714</text>
</g>
<!-- 13733 -->
<g id="node37" class="node"><title>13733</title>
<ellipse fill="white" stroke="black" cx="247.5" cy="-204.229" rx="27.6545" ry="27.6545"/>
<text text-anchor="middle" x="247.5" y="-202.029" font-family="Times,serif" font-size="9.00">13733</text>
</g>
<!-- 13733&#45;&gt;2796 -->
<g id="edge52" class="edge"><title>13733&#45;&gt;2796</title>
<path fill="none" stroke="red" stroke-width="0.721607" d="M238.983,-177.919C235.675,-168.088 231.846,-156.709 228.345,-146.304"/>
<polygon fill="red" stroke="red" stroke-width="0.721607" points="231.623,-145.07 225.116,-136.709 224.988,-147.303 231.623,-145.07"/>
</g>
<!-- 9126&#45;&gt;3986 -->
<g id="edge41" class="edge"><title>9126&#45;&gt;3986</title>
<path fill="none" stroke="red" stroke-width="0.576868" d="M634.885,-274.153C626.773,-262.1 616.356,-246.621 607.45,-233.386"/>
<polygon fill="red" stroke="red" stroke-width="0.576868" points="610.341,-231.414 601.854,-225.072 604.534,-235.323 610.341,-231.414"/>
</g>
<!-- 9126&#45;&gt;12478 -->
<g id="edge6" class="edge"><title>9126&#45;&gt;12478</title>
<path fill="none" stroke="red" stroke-width="1.69889" d="M645.232,-270.811C640.991,-240.229 633.549,-186.55 628.572,-150.654"/>
<polygon fill="red" stroke="red" stroke-width="1.69889" points="632.016,-150.007 627.175,-140.583 625.082,-150.969 632.016,-150.007"/>
</g>
<!-- 11053 -->
<g id="node39" class="node"><title>11053</title>
<ellipse fill="white" stroke="black" cx="127.5" cy="-204.229" rx="27.6545" ry="27.6545"/>
<text text-anchor="middle" x="127.5" y="-202.029" font-family="Times,serif" font-size="9.00">11053</text>
</g>
<!-- 11053&#45;&gt;2796 -->
<g id="edge40" class="edge"><title>11053&#45;&gt;2796</title>
<path fill="none" stroke="green" stroke-width="0.364156" d="M146.587,-184.322C160.12,-170.915 178.397,-152.81 193.006,-138.338"/>
<polygon fill="green" stroke="green" stroke-width="0.364156" points="195.626,-140.67 200.267,-131.146 190.699,-135.697 195.626,-140.67"/>
</g>
<!-- 13998&#45;&gt;3986 -->
<g id="edge35" class="edge"><title>13998&#45;&gt;3986</title>
<path fill="none" stroke="green" stroke-width="0.211101" d="M581.5,-267.634C582.514,-258.594 583.66,-248.383 584.726,-238.878"/>
<polygon fill="green" stroke="green" stroke-width="0.211101" points="588.205,-239.258 585.842,-228.93 581.249,-238.478 588.205,-239.258"/>
</g>
<!-- 13361 -->
<g id="node41" class="node"><title>13361</title>
<ellipse fill="white" stroke="black" cx="164.5" cy="-386.538" rx="27.6545" ry="27.6545"/>
<text text-anchor="middle" x="164.5" y="-384.338" font-family="Times,serif" font-size="9.00">13361</text>
</g>
<!-- 13361&#45;&gt;3449 -->
<g id="edge10" class="edge"><title>13361&#45;&gt;3449</title>
<path fill="none" stroke="green" stroke-width="1.71624" d="M155.983,-360.228C152.675,-350.397 148.846,-339.018 145.345,-328.613"/>
<polygon fill="green" stroke="green" stroke-width="1.71624" points="148.623,-327.379 142.116,-319.018 141.988,-329.612 148.623,-327.379"/>
</g>
<!-- 4423&#45;&gt;5233 -->
<g id="edge33" class="edge"><title>4423&#45;&gt;5233</title>
<path fill="none" stroke="red" stroke-width="0.220052" d="M441.453,-362.578C444.54,-352.387 448.228,-340.207 451.595,-329.089"/>
<polygon fill="red" stroke="red" stroke-width="0.220052" points="455.022,-329.85 454.57,-319.265 448.322,-327.821 455.022,-329.85"/>
</g>
<!-- 8318 -->
<g id="node56" class="node"><title>8318</title>
<ellipse fill="white" stroke="black" cx="351.5" cy="-295.383" rx="25" ry="25"/>
<text text-anchor="middle" x="351.5" y="-293.183" font-family="Times,serif" font-size="9.00">8318</text>
</g>
<!-- 4423&#45;&gt;8318 -->
<g id="edge32" class="edge"><title>4423&#45;&gt;8318</title>
<path fill="none" stroke="green" stroke-width="0.600275" d="M418.102,-367.924C405.711,-354.614 388.537,-336.167 374.733,-321.339"/>
<polygon fill="green" stroke="green" stroke-width="0.600275" points="377.24,-318.895 367.864,-313.961 372.116,-323.665 377.24,-318.895"/>
</g>
<!-- 5839 -->
<g id="node45" class="node"><title>5839</title>
<ellipse fill="white" stroke="black" cx="67.5" cy="-295.383" rx="25" ry="25"/>
<text text-anchor="middle" x="67.5" y="-293.183" font-family="Times,serif" font-size="9.00">5839</text>
</g>
<!-- 5839&#45;&gt;3 -->
<g id="edge4" class="edge"><title>5839&#45;&gt;3</title>
<path fill="none" stroke="red" stroke-width="0.364223" d="M67.5,-270.492C67.5,-257.805 67.5,-242.247 67.5,-229.504"/>
<polygon fill="red" stroke="red" stroke-width="0.364223" points="71.0001,-229.173 67.5,-219.173 64.0001,-229.173 71.0001,-229.173"/>
</g>
<!-- 2005&#45;&gt;1 -->
<g id="edge48" class="edge"><title>2005&#45;&gt;1</title>
<path fill="none" stroke="green" stroke-width="0.72888" d="M984.5,-179.337C984.5,-166.651 984.5,-151.093 984.5,-138.35"/>
<polygon fill="green" stroke="green" stroke-width="0.72888" points="988,-138.019 984.5,-128.019 981,-138.019 988,-138.019"/>
</g>
<!-- 4053&#45;&gt;2968 -->
<g id="edge53" class="edge"><title>4053&#45;&gt;2968</title>
<path fill="none" stroke="green" stroke-width="0.20889" d="M466.369,-92.9161C475.477,-81.181 487.279,-65.9748 497.35,-52.9994"/>
<polygon fill="green" stroke="green" stroke-width="0.20889" points="500.306,-54.8995 503.672,-44.8537 494.776,-50.6076 500.306,-54.8995"/>
</g>
<!-- 13404&#45;&gt;2796 -->
<g id="edge9" class="edge"><title>13404&#45;&gt;2796</title>
<path fill="none" stroke="red" stroke-width="0.813073" d="M300.151,-185.615C283.881,-171.533 260.969,-151.7 243.393,-136.487"/>
<polygon fill="red" stroke="red" stroke-width="0.813073" points="245.588,-133.758 235.736,-129.86 241.007,-139.051 245.588,-133.758"/>
</g>
<!-- 10719&#45;&gt;3449 -->
<g id="edge5" class="edge"><title>10719&#45;&gt;3449</title>
<path fill="none" stroke="red" stroke-width="1.0381" d="M217.151,-367.924C200.881,-353.841 177.969,-334.009 160.393,-318.796"/>
<polygon fill="red" stroke="red" stroke-width="1.0381" points="162.588,-316.067 152.736,-312.168 158.007,-321.359 162.588,-316.067"/>
</g>
<!-- 13024 -->
<g id="node50" class="node"><title>13024</title>
<ellipse fill="white" stroke="black" cx="699.5" cy="-386.538" rx="27.6545" ry="27.6545"/>
<text text-anchor="middle" x="699.5" y="-384.338" font-family="Times,serif" font-size="9.00">13024</text>
</g>
<!-- 13024&#45;&gt;9126 -->
<g id="edge46" class="edge"><title>13024&#45;&gt;9126</title>
<path fill="none" stroke="red" stroke-width="0.72169" d="M686.1,-362.113C679.813,-351.122 672.248,-337.897 665.557,-326.2"/>
<polygon fill="red" stroke="red" stroke-width="0.72169" points="668.423,-324.161 660.419,-317.219 662.346,-327.637 668.423,-324.161"/>
</g>
<!-- 4708 -->
<g id="node51" class="node"><title>4708</title>
<ellipse fill="white" stroke="black" cx="783.5" cy="-474.864" rx="25" ry="25"/>
<text text-anchor="middle" x="783.5" y="-472.664" font-family="Times,serif" font-size="9.00">4708</text>
</g>
<!-- 4708&#45;&gt;11670 -->
<g id="edge25" class="edge"><title>4708&#45;&gt;11670</title>
<path fill="none" stroke="green" stroke-width="0.452148" d="M790.857,-451.182C793.671,-442.507 796.951,-432.394 800.057,-422.817"/>
<polygon fill="green" stroke="green" stroke-width="0.452148" points="803.448,-423.705 803.204,-413.113 796.79,-421.546 803.448,-423.705"/>
</g>
<!-- 4708&#45;&gt;2968 -->
<g id="edge11" class="edge"><title>4708&#45;&gt;2968</title>
<path fill="none" stroke="green" stroke-width="0.512511" d="M777.491,-450.639C772.395,-427.189 767.006,-390.086 774.5,-358.96 794.637,-275.328 881.782,-251.565 839.5,-176.652 780.192,-71.5728 623.62,-38.9442 553.42,-29.418"/>
<polygon fill="green" stroke="green" stroke-width="0.512511" points="553.68,-25.9228 543.317,-28.1269 552.792,-32.8664 553.68,-25.9228"/>
</g>
<!-- 4708&#45;&gt;12478 -->
<g id="edge3" class="edge"><title>4708&#45;&gt;12478</title>
<path fill="none" stroke="red" stroke-width="0.702871" d="M802.643,-459.174C820.013,-445.363 843.632,-425.202 848.5,-414.115 870.764,-363.408 899.974,-253.13 839.5,-176.652 817.376,-148.673 716.791,-128.754 661.022,-119.644"/>
<polygon fill="red" stroke="red" stroke-width="0.702871" points="661.257,-116.137 650.831,-118.017 660.154,-123.049 661.257,-116.137"/>
</g>
<!-- 4708&#45;&gt;13024 -->
<g id="edge39" class="edge"><title>4708&#45;&gt;13024</title>
<path fill="none" stroke="red" stroke-width="0.324505" d="M766.501,-456.394C754.69,-444.256 738.732,-427.856 725.352,-414.106"/>
<polygon fill="red" stroke="red" stroke-width="0.324505" points="727.709,-411.509 718.227,-406.783 722.693,-416.391 727.709,-411.509"/>
</g>
<!-- 5233&#45;&gt;7694 -->
<g id="edge13" class="edge"><title>5233&#45;&gt;7694</title>
<path fill="none" stroke="green" stroke-width="0.351304" d="M463.015,-270.273C465.13,-246.002 470.09,-207.8 481.5,-176.652 485.831,-164.828 492.407,-152.715 498.819,-142.335"/>
<polygon fill="green" stroke="green" stroke-width="0.351304" points="501.898,-144.016 504.351,-133.709 496.006,-140.237 501.898,-144.016"/>
</g>
<!-- 5233&#45;&gt;2968 -->
<g id="edge8" class="edge"><title>5233&#45;&gt;2968</title>
<path fill="none" stroke="green" stroke-width="0.308211" d="M442.389,-279.206C424.717,-264.685 400.458,-243.339 395.5,-231.806 385.819,-209.286 392.604,-200.993 395.5,-176.652 400.423,-135.267 392.721,-119.008 417.5,-85.4975 434.488,-62.5235 463.175,-46.7894 485.645,-37.2577"/>
<polygon fill="green" stroke="green" stroke-width="0.308211" points="487.184,-40.4112 495.153,-33.4303 484.57,-33.9175 487.184,-40.4112"/>
</g>
<!-- 5233&#45;&gt;13080 -->
<g id="edge45" class="edge"><title>5233&#45;&gt;13080</title>
<path fill="none" stroke="red" stroke-width="0.108536" d="M474.434,-274.153C481.518,-263.073 490.452,-249.099 498.421,-236.635"/>
<polygon fill="red" stroke="red" stroke-width="0.108536" points="501.575,-238.199 504.013,-227.888 495.677,-234.428 501.575,-238.199"/>
</g>
<!-- 11383 -->
<g id="node54" class="node"><title>11383</title>
<ellipse fill="white" stroke="black" cx="310.5" cy="-386.538" rx="27.6545" ry="27.6545"/>
<text text-anchor="middle" x="310.5" y="-384.338" font-family="Times,serif" font-size="9.00">11383</text>
</g>
<!-- 11383&#45;&gt;3449 -->
<g id="edge51" class="edge"><title>11383&#45;&gt;3449</title>
<path fill="none" stroke="green" stroke-width="0.233243" d="M289.314,-368.731C284.568,-365.3 279.466,-361.857 274.5,-358.96 239.325,-338.439 196.201,-320.099 167.187,-308.661"/>
<polygon fill="green" stroke="green" stroke-width="0.233243" points="168.137,-305.275 157.548,-304.911 165.598,-311.799 168.137,-305.275"/>
</g>
<!-- 3449&#45;&gt;3 -->
<g id="edge15" class="edge"><title>3449&#45;&gt;3</title>
<path fill="none" stroke="green" stroke-width="0.438091" d="M119.962,-275.038C108.766,-260.14 93.3566,-239.635 82.136,-224.705"/>
<polygon fill="green" stroke="green" stroke-width="0.438091" points="84.8828,-222.534 76.0771,-216.642 79.2869,-226.739 84.8828,-222.534"/>
</g>
<!-- 3449&#45;&gt;13733 -->
<g id="edge21" class="edge"><title>3449&#45;&gt;13733</title>
<path fill="none" stroke="green" stroke-width="0.282162" d="M153.669,-279.259C171.379,-265.287 197.945,-244.327 218.294,-228.272"/>
<polygon fill="green" stroke="green" stroke-width="0.282162" points="220.629,-230.888 226.312,-221.946 216.293,-225.392 220.629,-230.888"/>
</g>
<!-- 3449&#45;&gt;11053 -->
<g id="edge34" class="edge"><title>3449&#45;&gt;11053</title>
<path fill="none" stroke="red" stroke-width="0.709927" d="M132.624,-270.492C131.94,-261.78 131.15,-251.713 130.398,-242.134"/>
<polygon fill="red" stroke="red" stroke-width="0.709927" points="133.875,-241.713 129.603,-232.018 126.897,-242.261 133.875,-241.713"/>
</g>
</g>
</svg>
