<?xml version="1.0" encoding="UTF-8" standalone="no"?>
<!DOCTYPE svg PUBLIC "-//W3C//DTD SVG 1.1//EN"
 "http://www.w3.org/Graphics/SVG/1.1/DTD/svg11.dtd">
<!-- Generated by graphviz version 2.38.0 (20140413.2041)
 -->
<!-- Title: %3 Pages: 1 -->
<svg width="1348pt" height="895pt"
 viewBox="0.00 0.00 1348.00 895.12" xmlns="http://www.w3.org/2000/svg" xmlns:xlink="http://www.w3.org/1999/xlink">
<g id="graph0" class="graph" transform="scale(1 1) rotate(0) translate(4 891.117)">
<title>%3</title>
<polygon fill="white" stroke="none" points="-4,4 -4,-891.117 1344,-891.117 1344,4 -4,4"/>
<!-- &#45;1 -->
<g id="node1" class="node"><title>&#45;1</title>
<polygon fill="lightgray" stroke="black" points="57,-887.117 33,-887.117 33,-869.117 57,-869.117 57,-887.117"/>
<text text-anchor="middle" x="45" y="-875.917" font-family="Times,serif" font-size="9.00">&#45;1</text>
</g>
<!-- &#45;2 -->
<g id="node2" class="node"><title>&#45;2</title>
<polygon fill="lightgray" stroke="black" points="837,-814.54 813,-814.54 813,-796.54 837,-796.54 837,-814.54"/>
<text text-anchor="middle" x="825" y="-803.34" font-family="Times,serif" font-size="9.00">&#45;2</text>
</g>
<!-- 3 -->
<g id="node28" class="node"><title>3</title>
<ellipse fill="lightblue" stroke="black" cx="844" cy="-14.8492" rx="14.7" ry="14.7"/>
<text text-anchor="middle" x="844" y="-12.6492" font-family="Times,serif" font-size="9.00">3</text>
</g>
<!-- &#45;2&#45;&gt;3 -->
<g id="edge67" class="edge"><title>&#45;2&#45;&gt;3</title>
<path fill="none" stroke="green" stroke-width="0.365986" d="M826.491,-796.305C830.97,-770.824 844,-690.962 844,-624.231 844,-624.231 844,-624.231 844,-174.945 844,-127.221 844,-71.4453 844,-40.2259"/>
<polygon fill="green" stroke="green" stroke-width="0.365986" points="847.5,-39.8954 844,-29.8954 840.5,-39.8954 847.5,-39.8954"/>
</g>
<!-- 5890 -->
<g id="node29" class="node"><title>5890</title>
<ellipse fill="white" stroke="black" cx="897" cy="-714.385" rx="25" ry="25"/>
<text text-anchor="middle" x="897" y="-712.185" font-family="Times,serif" font-size="9.00">5890</text>
</g>
<!-- &#45;2&#45;&gt;5890 -->
<g id="edge49" class="edge"><title>&#45;2&#45;&gt;5890</title>
<path fill="none" stroke="green" stroke-width="0.444182" d="M831.645,-796.312C841.531,-784.071 860.555,-760.513 875.54,-741.958"/>
<polygon fill="green" stroke="green" stroke-width="0.444182" points="878.325,-744.081 881.885,-734.102 872.879,-739.683 878.325,-744.081"/>
</g>
<!-- 2968 -->
<g id="node34" class="node"><title>2968</title>
<ellipse fill="white" stroke="black" cx="530" cy="-175.945" rx="25" ry="25"/>
<text text-anchor="middle" x="530" y="-173.745" font-family="Times,serif" font-size="9.00">2968</text>
</g>
<!-- &#45;2&#45;&gt;2968 -->
<g id="edge23" class="edge"><title>&#45;2&#45;&gt;2968</title>
<path fill="none" stroke="red" stroke-width="1.26791" d="M823.509,-796.305C819.03,-770.824 806,-690.962 806,-624.231 806,-624.231 806,-624.231 806,-531.077 806,-391.713 802.538,-328.857 698,-236.693 659.958,-203.155 601.804,-188.073 564.858,-181.56"/>
<polygon fill="red" stroke="red" stroke-width="1.26791" points="565.012,-178.039 554.577,-179.873 563.878,-184.946 565.012,-178.039"/>
</g>
<!-- 10445 -->
<g id="node44" class="node"><title>10445</title>
<ellipse fill="white" stroke="black" cx="745" cy="-623.231" rx="27.6545" ry="27.6545"/>
<text text-anchor="middle" x="745" y="-621.031" font-family="Times,serif" font-size="9.00">10445</text>
</g>
<!-- &#45;2&#45;&gt;10445 -->
<g id="edge40" class="edge"><title>&#45;2&#45;&gt;10445</title>
<path fill="none" stroke="red" stroke-width="0.119821" d="M820.229,-796.18C813.539,-784.311 801.165,-761.811 792,-741.963 779.326,-714.514 766.72,-682.622 757.759,-658.96"/>
<polygon fill="red" stroke="red" stroke-width="0.119821" points="760.946,-657.49 754.152,-649.36 754.393,-659.952 760.946,-657.49"/>
</g>
<!-- &#45;3 -->
<g id="node3" class="node"><title>&#45;3</title>
<polygon fill="lightgray" stroke="black" points="395,-723.385 371,-723.385 371,-705.385 395,-705.385 395,-723.385"/>
<text text-anchor="middle" x="383" y="-712.185" font-family="Times,serif" font-size="9.00">&#45;3</text>
</g>
<!-- 2005 -->
<g id="node46" class="node"><title>2005</title>
<ellipse fill="white" stroke="black" cx="675" cy="-623.231" rx="25" ry="25"/>
<text text-anchor="middle" x="675" y="-621.031" font-family="Times,serif" font-size="9.00">2005</text>
</g>
<!-- &#45;3&#45;&gt;2005 -->
<g id="edge77" class="edge"><title>&#45;3&#45;&gt;2005</title>
<path fill="none" stroke="green" stroke-width="0.62922" d="M387.424,-705.163C391.082,-699.16 396.83,-691.314 404,-686.808 466.083,-647.796 493.584,-667.419 565,-650.808 590.606,-644.853 619.496,-637.862 641.242,-632.545"/>
<polygon fill="green" stroke="green" stroke-width="0.62922" points="642.115,-635.935 650.995,-630.156 640.449,-629.136 642.115,-635.935"/>
</g>
<!-- 5233 -->
<g id="node53" class="node"><title>5233</title>
<ellipse fill="white" stroke="black" cx="249" cy="-623.231" rx="25" ry="25"/>
<text text-anchor="middle" x="249" y="-621.031" font-family="Times,serif" font-size="9.00">5233</text>
</g>
<!-- &#45;3&#45;&gt;5233 -->
<g id="edge1" class="edge"><title>&#45;3&#45;&gt;5233</title>
<path fill="none" stroke="green" stroke-width="0.62365" stroke-dasharray="1,5" d="M376.292,-705.278C371.351,-699.639 364.256,-692.195 357,-686.808 329.228,-666.189 317.676,-668.578 288,-650.808 284.54,-648.736 280.969,-646.479 277.457,-644.184"/>
<polygon fill="green" stroke="green" stroke-width="0.62365" points="279.204,-641.141 268.948,-638.485 275.309,-646.957 279.204,-641.141"/>
</g>
<!-- &#45;4 -->
<g id="node4" class="node"><title>&#45;4</title>
<polygon fill="lightgray" stroke="black" points="1188,-723.385 1164,-723.385 1164,-705.385 1188,-705.385 1188,-723.385"/>
<text text-anchor="middle" x="1176" y="-712.185" font-family="Times,serif" font-size="9.00">&#45;4</text>
</g>
<!-- 3449 -->
<g id="node55" class="node"><title>3449</title>
<ellipse fill="white" stroke="black" cx="1144" cy="-623.231" rx="25" ry="25"/>
<text text-anchor="middle" x="1144" y="-621.031" font-family="Times,serif" font-size="9.00">3449</text>
</g>
<!-- &#45;4&#45;&gt;3449 -->
<g id="edge38" class="edge"><title>&#45;4&#45;&gt;3449</title>
<path fill="none" stroke="green" stroke-width="0.170978" d="M1173.05,-705.158C1169.11,-694.203 1161.93,-674.186 1155.69,-656.802"/>
<polygon fill="green" stroke="green" stroke-width="0.170978" points="1158.83,-655.189 1152.16,-646.959 1152.24,-657.554 1158.83,-655.189"/>
</g>
<!-- &#45;5 -->
<g id="node5" class="node"><title>&#45;5</title>
<polygon fill="lightgray" stroke="black" points="950,-632.231 926,-632.231 926,-614.231 950,-614.231 950,-632.231"/>
<text text-anchor="middle" x="938" y="-621.031" font-family="Times,serif" font-size="9.00">&#45;5</text>
</g>
<!-- 2 -->
<g id="node27" class="node"><title>2</title>
<ellipse fill="lightblue" stroke="black" cx="925" cy="-352.597" rx="14.7" ry="14.7"/>
<text text-anchor="middle" x="925" y="-350.397" font-family="Times,serif" font-size="9.00">2</text>
</g>
<!-- &#45;5&#45;&gt;2 -->
<g id="edge81" class="edge"><title>&#45;5&#45;&gt;2</title>
<path fill="none" stroke="red" stroke-width="0.83461" d="M931.135,-613.994C922.151,-602.623 906.86,-581.08 901,-559.654 883.282,-494.875 904.109,-415.14 916.729,-376.606"/>
<polygon fill="red" stroke="red" stroke-width="0.83461" points="920.132,-377.471 920.032,-366.876 913.503,-375.22 920.132,-377.471"/>
</g>
<!-- 13404 -->
<g id="node48" class="node"><title>13404</title>
<ellipse fill="white" stroke="black" cx="938" cy="-532.077" rx="27.6545" ry="27.6545"/>
<text text-anchor="middle" x="938" y="-529.877" font-family="Times,serif" font-size="9.00">13404</text>
</g>
<!-- &#45;5&#45;&gt;13404 -->
<g id="edge58" class="edge"><title>&#45;5&#45;&gt;13404</title>
<path fill="none" stroke="green" stroke-width="0.302934" d="M938,-614.003C938,-604.032 938,-586.551 938,-570.381"/>
<polygon fill="green" stroke="green" stroke-width="0.302934" points="941.5,-570.038 938,-560.038 934.5,-570.038 941.5,-570.038"/>
</g>
<!-- 2796 -->
<g id="node52" class="node"><title>2796</title>
<ellipse fill="white" stroke="black" cx="1041" cy="-440.922" rx="25" ry="25"/>
<text text-anchor="middle" x="1041" y="-438.722" font-family="Times,serif" font-size="9.00">2796</text>
</g>
<!-- &#45;5&#45;&gt;2796 -->
<g id="edge30" class="edge"><title>&#45;5&#45;&gt;2796</title>
<path fill="none" stroke="red" stroke-width="0.911529" stroke-dasharray="1,5" d="M950.078,-616.955C968.844,-608.074 1004.65,-588.263 1022,-559.654 1037.32,-534.407 1041.46,-500.749 1042.13,-475.888"/>
<polygon fill="red" stroke="red" stroke-width="0.911529" points="1045.63,-475.855 1042.23,-465.822 1038.63,-475.788 1045.63,-475.855"/>
</g>
<!-- &#45;6 -->
<g id="node6" class="node"><title>&#45;6</title>
<polygon fill="lightgray" stroke="black" points="1089,-887.117 1065,-887.117 1065,-869.117 1089,-869.117 1089,-887.117"/>
<text text-anchor="middle" x="1077" y="-875.917" font-family="Times,serif" font-size="9.00">&#45;6</text>
</g>
<!-- &#45;7 -->
<g id="node7" class="node"><title>&#45;7</title>
<polygon fill="lightgray" stroke="black" points="1131,-887.117 1107,-887.117 1107,-869.117 1131,-869.117 1131,-887.117"/>
<text text-anchor="middle" x="1119" y="-875.917" font-family="Times,serif" font-size="9.00">&#45;7</text>
</g>
<!-- &#45;8 -->
<g id="node8" class="node"><title>&#45;8</title>
<polygon fill="lightgray" stroke="black" points="1047,-887.117 1023,-887.117 1023,-869.117 1047,-869.117 1047,-887.117"/>
<text text-anchor="middle" x="1035" y="-875.917" font-family="Times,serif" font-size="9.00">&#45;8</text>
</g>
<!-- 2714 -->
<g id="node36" class="node"><title>2714</title>
<ellipse fill="white" stroke="black" cx="1041" cy="-352.597" rx="25" ry="25"/>
<text text-anchor="middle" x="1041" y="-350.397" font-family="Times,serif" font-size="9.00">2714</text>
</g>
<!-- &#45;8&#45;&gt;2714 -->
<g id="edge45" class="edge"><title>&#45;8&#45;&gt;2714</title>
<path fill="none" stroke="green" stroke-width="0.367974" stroke-dasharray="1,5" d="M1047.43,-872.348C1050.24,-871.277 1053.22,-870.151 1056,-869.117 1099.88,-852.783 1113.55,-854.894 1155,-833.117 1229.1,-794.182 1302,-799.089 1302,-715.385 1302,-715.385 1302,-715.385 1302,-622.231 1302,-492.122 1142.56,-401.292 1072.91,-367.822"/>
<polygon fill="green" stroke="green" stroke-width="0.367974" points="1074.24,-364.581 1063.71,-363.482 1071.26,-370.913 1074.24,-364.581"/>
</g>
<!-- &#45;8&#45;&gt;2005 -->
<g id="edge27" class="edge"><title>&#45;8&#45;&gt;2005</title>
<path fill="none" stroke="green" stroke-width="0.430518" stroke-dasharray="1,5" d="M1022.6,-876.617C959.123,-873.943 672.509,-860.413 645,-833.117 598.712,-787.186 615.353,-749.295 634,-686.808 637.898,-673.747 645.49,-660.878 653.093,-650.239"/>
<polygon fill="green" stroke="green" stroke-width="0.430518" points="655.908,-652.319 659.122,-642.223 650.313,-648.111 655.908,-652.319"/>
</g>
<!-- 10719 -->
<g id="node49" class="node"><title>10719</title>
<ellipse fill="white" stroke="black" cx="1118" cy="-805.54" rx="27.6545" ry="27.6545"/>
<text text-anchor="middle" x="1118" y="-803.34" font-family="Times,serif" font-size="9.00">10719</text>
</g>
<!-- &#45;8&#45;&gt;10719 -->
<g id="edge34" class="edge"><title>&#45;8&#45;&gt;10719</title>
<path fill="none" stroke="red" stroke-width="0.690114" d="M1044.52,-869.021C1055.4,-859.771 1073.72,-844.196 1089.34,-830.911"/>
<polygon fill="red" stroke="red" stroke-width="0.690114" points="1091.86,-833.363 1097.21,-824.218 1087.32,-828.03 1091.86,-833.363"/>
</g>
<!-- &#45;8&#45;&gt;3449 -->
<g id="edge31" class="edge"><title>&#45;8&#45;&gt;3449</title>
<path fill="none" stroke="red" stroke-width="0.468182" stroke-dasharray="1,5" d="M1024.8,-868.919C1015.65,-860.888 1002.81,-847.75 997,-833.117 972.986,-772.661 956.865,-740.899 993,-686.808 1018.75,-648.258 1073.13,-633.426 1109.11,-627.739"/>
<polygon fill="red" stroke="red" stroke-width="0.468182" points="1109.78,-631.18 1119.19,-626.309 1108.79,-624.25 1109.78,-631.18"/>
</g>
<!-- &#45;9 -->
<g id="node9" class="node"><title>&#45;9</title>
<polygon fill="lightgray" stroke="black" points="247,-723.385 223,-723.385 223,-705.385 247,-705.385 247,-723.385"/>
<text text-anchor="middle" x="235" y="-712.185" font-family="Times,serif" font-size="9.00">&#45;9</text>
</g>
<!-- &#45;9&#45;&gt;5233 -->
<g id="edge26" class="edge"><title>&#45;9&#45;&gt;5233</title>
<path fill="none" stroke="green" stroke-width="1.04987" d="M236.292,-705.158C237.974,-694.448 241.015,-675.078 243.701,-657.973"/>
<polygon fill="green" stroke="green" stroke-width="1.04987" points="247.219,-658.136 245.313,-647.714 240.304,-657.05 247.219,-658.136"/>
</g>
<!-- &#45;10 -->
<g id="node10" class="node"><title>&#45;10</title>
<polygon fill="lightgray" stroke="black" points="739.5,-723.385 710.5,-723.385 710.5,-705.385 739.5,-705.385 739.5,-723.385"/>
<text text-anchor="middle" x="725" y="-712.185" font-family="Times,serif" font-size="9.00">&#45;10</text>
</g>
<!-- &#45;10&#45;&gt;10445 -->
<g id="edge25" class="edge"><title>&#45;10&#45;&gt;10445</title>
<path fill="none" stroke="green" stroke-width="0.368134" d="M726.846,-705.158C729.136,-694.948 733.192,-676.867 736.89,-660.382"/>
<polygon fill="green" stroke="green" stroke-width="0.368134" points="740.354,-660.932 739.128,-650.408 733.524,-659.399 740.354,-660.932"/>
</g>
<!-- &#45;10&#45;&gt;2005 -->
<g id="edge59" class="edge"><title>&#45;10&#45;&gt;2005</title>
<path fill="none" stroke="red" stroke-width="0.337723" d="M720.386,-705.158C713.921,-693.631 701.83,-672.072 691.753,-654.103"/>
<polygon fill="red" stroke="red" stroke-width="0.337723" points="694.651,-652.116 686.707,-645.106 688.546,-655.54 694.651,-652.116"/>
</g>
<!-- &#45;11 -->
<g id="node11" class="node"><title>&#45;11</title>
<polygon fill="lightgray" stroke="black" points="682.5,-814.54 653.5,-814.54 653.5,-796.54 682.5,-796.54 682.5,-814.54"/>
<text text-anchor="middle" x="668" y="-803.34" font-family="Times,serif" font-size="9.00">&#45;11</text>
</g>
<!-- 3847 -->
<g id="node30" class="node"><title>3847</title>
<ellipse fill="white" stroke="black" cx="668" cy="-714.385" rx="25" ry="25"/>
<text text-anchor="middle" x="668" y="-712.185" font-family="Times,serif" font-size="9.00">3847</text>
</g>
<!-- &#45;11&#45;&gt;3847 -->
<g id="edge57" class="edge"><title>&#45;11&#45;&gt;3847</title>
<path fill="none" stroke="red" stroke-width="0.461131" d="M668,-796.312C668,-785.674 668,-766.49 668,-749.47"/>
<polygon fill="red" stroke="red" stroke-width="0.461131" points="671.5,-749.248 668,-739.248 664.5,-749.248 671.5,-749.248"/>
</g>
<!-- &#45;12 -->
<g id="node12" class="node"><title>&#45;12</title>
<polygon fill="lightgray" stroke="black" points="1178.5,-887.117 1149.5,-887.117 1149.5,-869.117 1178.5,-869.117 1178.5,-887.117"/>
<text text-anchor="middle" x="1164" y="-875.917" font-family="Times,serif" font-size="9.00">&#45;12</text>
</g>
<!-- &#45;13 -->
<g id="node13" class="node"><title>&#45;13</title>
<polygon fill="lightgray" stroke="black" points="1225.5,-887.117 1196.5,-887.117 1196.5,-869.117 1225.5,-869.117 1225.5,-887.117"/>
<text text-anchor="middle" x="1211" y="-875.917" font-family="Times,serif" font-size="9.00">&#45;13</text>
</g>
<!-- &#45;14 -->
<g id="node14" class="node"><title>&#45;14</title>
<polygon fill="lightgray" stroke="black" points="272.5,-184.945 243.5,-184.945 243.5,-166.945 272.5,-166.945 272.5,-184.945"/>
<text text-anchor="middle" x="258" y="-173.745" font-family="Times,serif" font-size="9.00">&#45;14</text>
</g>
<!-- 0 -->
<g id="node25" class="node"><title>0</title>
<ellipse fill="lightblue" stroke="black" cx="258" cy="-90.4472" rx="14.7" ry="14.7"/>
<text text-anchor="middle" x="258" y="-88.2472" font-family="Times,serif" font-size="9.00">0</text>
</g>
<!-- &#45;14&#45;&gt;0 -->
<g id="edge62" class="edge"><title>&#45;14&#45;&gt;0</title>
<path fill="none" stroke="green" stroke-width="0.865082" stroke-dasharray="1,5" d="M258,-166.939C258,-155.175 258,-132.737 258,-115.368"/>
<polygon fill="green" stroke="green" stroke-width="0.865082" points="261.5,-115.349 258,-105.349 254.5,-115.349 261.5,-115.349"/>
</g>
<!-- &#45;15 -->
<g id="node15" class="node"><title>&#45;15</title>
<polygon fill="lightgray" stroke="black" points="204.5,-723.385 175.5,-723.385 175.5,-705.385 204.5,-705.385 204.5,-723.385"/>
<text text-anchor="middle" x="190" y="-712.185" font-family="Times,serif" font-size="9.00">&#45;15</text>
</g>
<!-- 4053 -->
<g id="node47" class="node"><title>4053</title>
<ellipse fill="white" stroke="black" cx="530" cy="-264.271" rx="25" ry="25"/>
<text text-anchor="middle" x="530" y="-262.071" font-family="Times,serif" font-size="9.00">4053</text>
</g>
<!-- &#45;15&#45;&gt;4053 -->
<g id="edge13" class="edge"><title>&#45;15&#45;&gt;4053</title>
<path fill="none" stroke="red" stroke-width="0.314733" stroke-dasharray="1,5" d="M191.029,-704.967C196.068,-666.927 221.209,-508.799 301,-413.345 356.394,-347.077 449.132,-300.06 497.858,-278.51"/>
<polygon fill="red" stroke="red" stroke-width="0.314733" points="499.497,-281.614 507.275,-274.421 496.709,-275.193 499.497,-281.614"/>
</g>
<!-- &#45;15&#45;&gt;5233 -->
<g id="edge39" class="edge"><title>&#45;15&#45;&gt;5233</title>
<path fill="none" stroke="red" stroke-width="1.36155" stroke-dasharray="1,5" d="M195.445,-705.158C203.241,-693.377 217.972,-671.117 230.014,-652.921"/>
<polygon fill="red" stroke="red" stroke-width="1.36155" points="233.067,-654.649 235.667,-644.378 227.23,-650.786 233.067,-654.649"/>
</g>
<!-- &#45;16 -->
<g id="node16" class="node"><title>&#45;16</title>
<polygon fill="lightgray" stroke="black" points="1272.5,-887.117 1243.5,-887.117 1243.5,-869.117 1272.5,-869.117 1272.5,-887.117"/>
<text text-anchor="middle" x="1258" y="-875.917" font-family="Times,serif" font-size="9.00">&#45;16</text>
</g>
<!-- &#45;17 -->
<g id="node17" class="node"><title>&#45;17</title>
<polygon fill="lightgray" stroke="black" points="240.5,-887.117 211.5,-887.117 211.5,-869.117 240.5,-869.117 240.5,-887.117"/>
<text text-anchor="middle" x="226" y="-875.917" font-family="Times,serif" font-size="9.00">&#45;17</text>
</g>
<!-- 4423 -->
<g id="node43" class="node"><title>4423</title>
<ellipse fill="white" stroke="black" cx="226" cy="-805.54" rx="25" ry="25"/>
<text text-anchor="middle" x="226" y="-803.34" font-family="Times,serif" font-size="9.00">4423</text>
</g>
<!-- &#45;17&#45;&gt;4423 -->
<g id="edge3" class="edge"><title>&#45;17&#45;&gt;4423</title>
<path fill="none" stroke="red" stroke-width="0.39845" d="M226,-869.021C226,-861.942 226,-851.158 226,-840.531"/>
<polygon fill="red" stroke="red" stroke-width="0.39845" points="229.5,-840.517 226,-830.517 222.5,-840.517 229.5,-840.517"/>
</g>
<!-- &#45;18 -->
<g id="node18" class="node"><title>&#45;18</title>
<polygon fill="lightgray" stroke="black" points="1034.5,-814.54 1005.5,-814.54 1005.5,-796.54 1034.5,-796.54 1034.5,-814.54"/>
<text text-anchor="middle" x="1020" y="-803.34" font-family="Times,serif" font-size="9.00">&#45;18</text>
</g>
<!-- 13361 -->
<g id="node41" class="node"><title>13361</title>
<ellipse fill="white" stroke="black" cx="1045" cy="-714.385" rx="27.6545" ry="27.6545"/>
<text text-anchor="middle" x="1045" y="-712.185" font-family="Times,serif" font-size="9.00">13361</text>
</g>
<!-- &#45;18&#45;&gt;13361 -->
<g id="edge9" class="edge"><title>&#45;18&#45;&gt;13361</title>
<path fill="none" stroke="green" stroke-width="0.287396" stroke-dasharray="1,5" d="M1022.31,-796.312C1025.19,-786.031 1030.31,-767.768 1034.96,-751.19"/>
<polygon fill="green" stroke="green" stroke-width="0.287396" points="1038.44,-751.746 1037.77,-741.173 1031.7,-749.856 1038.44,-751.746"/>
</g>
<!-- &#45;18&#45;&gt;3449 -->
<g id="edge28" class="edge"><title>&#45;18&#45;&gt;3449</title>
<path fill="none" stroke="red" stroke-width="0.296575" d="M1015.92,-796.309C1006.44,-775.906 985.39,-722.1 1008,-686.808 1030.2,-652.151 1076.98,-636.426 1109.43,-629.472"/>
<polygon fill="red" stroke="red" stroke-width="0.296575" points="1110.28,-632.872 1119.41,-627.509 1108.93,-626.004 1110.28,-632.872"/>
</g>
<!-- &#45;19 -->
<g id="node19" class="node"><title>&#45;19</title>
<polygon fill="lightgray" stroke="black" points="555.5,-632.231 526.5,-632.231 526.5,-614.231 555.5,-614.231 555.5,-632.231"/>
<text text-anchor="middle" x="541" y="-621.031" font-family="Times,serif" font-size="9.00">&#45;19</text>
</g>
<!-- 9126 -->
<g id="node38" class="node"><title>9126</title>
<ellipse fill="white" stroke="black" cx="480" cy="-532.077" rx="25" ry="25"/>
<text text-anchor="middle" x="480" y="-529.877" font-family="Times,serif" font-size="9.00">9126</text>
</g>
<!-- &#45;19&#45;&gt;9126 -->
<g id="edge12" class="edge"><title>&#45;19&#45;&gt;9126</title>
<path fill="none" stroke="green" stroke-width="0.728832" d="M535.371,-614.003C527.26,-602.149 511.888,-579.683 499.395,-561.424"/>
<polygon fill="green" stroke="green" stroke-width="0.728832" points="502.073,-559.14 493.538,-552.863 496.296,-563.092 502.073,-559.14"/>
</g>
<!-- &#45;20 -->
<g id="node20" class="node"><title>&#45;20</title>
<polygon fill="lightgray" stroke="black" points="1012.5,-541.077 983.5,-541.077 983.5,-523.077 1012.5,-523.077 1012.5,-541.077"/>
<text text-anchor="middle" x="998" y="-529.877" font-family="Times,serif" font-size="9.00">&#45;20</text>
</g>
<!-- &#45;20&#45;&gt;2796 -->
<g id="edge69" class="edge"><title>&#45;20&#45;&gt;2796</title>
<path fill="none" stroke="red" stroke-width="0.132756" d="M1001.97,-522.849C1007.41,-511.574 1017.47,-490.698 1026.02,-472.974"/>
<polygon fill="red" stroke="red" stroke-width="0.132756" points="1029.39,-474.06 1030.58,-463.533 1023.08,-471.019 1029.39,-474.06"/>
</g>
<!-- &#45;21 -->
<g id="node21" class="node"><title>&#45;21</title>
<polygon fill="lightgray" stroke="black" points="508.5,-632.231 479.5,-632.231 479.5,-614.231 508.5,-614.231 508.5,-632.231"/>
<text text-anchor="middle" x="494" y="-621.031" font-family="Times,serif" font-size="9.00">&#45;21</text>
</g>
<!-- 13080 -->
<g id="node35" class="node"><title>13080</title>
<ellipse fill="white" stroke="black" cx="406" cy="-532.077" rx="27.6545" ry="27.6545"/>
<text text-anchor="middle" x="406" y="-529.877" font-family="Times,serif" font-size="9.00">13080</text>
</g>
<!-- &#45;21&#45;&gt;13080 -->
<g id="edge80" class="edge"><title>&#45;21&#45;&gt;13080</title>
<path fill="none" stroke="red" stroke-width="1.34927" d="M487.341,-614.156C482.845,-608.8 476.71,-601.676 471,-595.654 459.063,-583.067 445.29,-569.659 433.504,-558.497"/>
<polygon fill="red" stroke="red" stroke-width="1.34927" points="435.766,-555.82 426.084,-551.517 430.97,-560.919 435.766,-555.82"/>
</g>
<!-- 5839 -->
<g id="node45" class="node"><title>5839</title>
<ellipse fill="white" stroke="black" cx="791" cy="-90.4472" rx="25" ry="25"/>
<text text-anchor="middle" x="791" y="-88.2472" font-family="Times,serif" font-size="9.00">5839</text>
</g>
<!-- &#45;21&#45;&gt;5839 -->
<g id="edge19" class="edge"><title>&#45;21&#45;&gt;5839</title>
<path fill="none" stroke="red" stroke-width="0.221356" stroke-dasharray="1,5" d="M500.681,-614.197C525.285,-584.351 612.295,-476.46 668,-377.345 717.368,-289.505 760.08,-177.932 779.637,-123.813"/>
<polygon fill="red" stroke="red" stroke-width="0.221356" points="783.043,-124.681 783.125,-114.087 776.454,-122.318 783.043,-124.681"/>
</g>
<!-- &#45;22 -->
<g id="node22" class="node"><title>&#45;22</title>
<polygon fill="lightgray" stroke="black" points="1319.5,-887.117 1290.5,-887.117 1290.5,-869.117 1319.5,-869.117 1319.5,-887.117"/>
<text text-anchor="middle" x="1305" y="-875.917" font-family="Times,serif" font-size="9.00">&#45;22</text>
</g>
<!-- &#45;23 -->
<g id="node23" class="node"><title>&#45;23</title>
<polygon fill="lightgray" stroke="black" points="104.5,-887.117 75.5,-887.117 75.5,-869.117 104.5,-869.117 104.5,-887.117"/>
<text text-anchor="middle" x="90" y="-875.917" font-family="Times,serif" font-size="9.00">&#45;23</text>
</g>
<!-- &#45;23&#45;&gt;0 -->
<g id="edge2" class="edge"><title>&#45;23&#45;&gt;0</title>
<path fill="none" stroke="green" stroke-width="0.105997" stroke-dasharray="1,5" d="M81.3704,-868.92C58.8441,-846.592 0,-781.901 0,-715.385 0,-715.385 0,-715.385 0,-263.271 0,-151.859 168.725,-108.274 233.284,-95.6743"/>
<polygon fill="green" stroke="green" stroke-width="0.105997" points="234.2,-99.064 243.39,-93.7917 232.918,-92.1824 234.2,-99.064"/>
</g>
<!-- 3986 -->
<g id="node32" class="node"><title>3986</title>
<ellipse fill="white" stroke="black" cx="455" cy="-352.597" rx="25" ry="25"/>
<text text-anchor="middle" x="455" y="-350.397" font-family="Times,serif" font-size="9.00">3986</text>
</g>
<!-- &#45;23&#45;&gt;3986 -->
<g id="edge52" class="edge"><title>&#45;23&#45;&gt;3986</title>
<path fill="none" stroke="green" stroke-width="0.211446" stroke-dasharray="1,5" d="M86.7952,-869.076C67.691,-819.685 -26.314,-554.872 95,-413.345 136.772,-364.614 337.939,-355.593 420.017,-353.95"/>
<polygon fill="green" stroke="green" stroke-width="0.211446" points="420.163,-357.448 430.101,-353.774 420.041,-350.449 420.163,-357.448"/>
</g>
<!-- 13998 -->
<g id="node40" class="node"><title>13998</title>
<ellipse fill="white" stroke="black" cx="132" cy="-440.922" rx="27.6545" ry="27.6545"/>
<text text-anchor="middle" x="132" y="-438.722" font-family="Times,serif" font-size="9.00">13998</text>
</g>
<!-- &#45;23&#45;&gt;13998 -->
<g id="edge4" class="edge"><title>&#45;23&#45;&gt;13998</title>
<path fill="none" stroke="green" stroke-width="0.3" d="M90.8015,-868.812C95.4752,-820.384 119.317,-573.339 128.442,-478.794"/>
<polygon fill="green" stroke="green" stroke-width="0.3" points="131.952,-478.852 129.429,-468.562 124.985,-478.179 131.952,-478.852"/>
</g>
<!-- &#45;23&#45;&gt;4423 -->
<g id="edge36" class="edge"><title>&#45;23&#45;&gt;4423</title>
<path fill="none" stroke="green" stroke-width="0.290765" d="M104.554,-869.564C126.102,-858.382 166.991,-837.162 195.336,-822.453"/>
<polygon fill="green" stroke="green" stroke-width="0.290765" points="197.158,-825.45 204.422,-817.737 193.934,-819.237 197.158,-825.45"/>
</g>
<!-- &#45;24 -->
<g id="node24" class="node"><title>&#45;24</title>
<polygon fill="lightgray" stroke="black" points="1273.5,-723.385 1244.5,-723.385 1244.5,-705.385 1273.5,-705.385 1273.5,-723.385"/>
<text text-anchor="middle" x="1259" y="-712.185" font-family="Times,serif" font-size="9.00">&#45;24</text>
</g>
<!-- &#45;24&#45;&gt;3 -->
<g id="edge43" class="edge"><title>&#45;24&#45;&gt;3</title>
<path fill="none" stroke="green" stroke-width="0.760809" d="M1265.63,-705.342C1284.97,-681.023 1340,-605.486 1340,-533.077 1340,-533.077 1340,-533.077 1340,-174.945 1340,-83.2558 1250.94,-97.6603 1165,-65.6985 1059.91,-26.6147 924.456,-18.1714 869.174,-16.3495"/>
<polygon fill="green" stroke="green" stroke-width="0.760809" points="869.021,-12.8438 858.926,-16.0594 868.822,-19.841 869.021,-12.8438"/>
</g>
<!-- &#45;24&#45;&gt;3449 -->
<g id="edge42" class="edge"><title>&#45;24&#45;&gt;3449</title>
<path fill="none" stroke="red" stroke-width="0.770203" d="M1250.6,-705.216C1244.93,-699.821 1237.19,-692.687 1230,-686.808 1211.5,-671.679 1189.72,-655.851 1172.71,-643.899"/>
<polygon fill="red" stroke="red" stroke-width="0.770203" points="1174.49,-640.877 1164.29,-638.026 1170.49,-646.618 1174.49,-640.877"/>
</g>
<!-- 1 -->
<g id="node26" class="node"><title>1</title>
<ellipse fill="lightblue" stroke="black" cx="964" cy="-264.271" rx="14.7" ry="14.7"/>
<text text-anchor="middle" x="964" y="-262.071" font-family="Times,serif" font-size="9.00">1</text>
</g>
<!-- 2&#45;&gt;4053 -->
<g id="edge29" class="edge"><title>2&#45;&gt;4053</title>
<path fill="none" stroke="green" stroke-width="0.51491" d="M910.473,-348.422C853.745,-336.024 646.239,-290.674 563.949,-272.69"/>
<polygon fill="green" stroke="green" stroke-width="0.51491" points="564.616,-269.253 554.099,-270.537 563.122,-276.092 564.616,-269.253"/>
</g>
<!-- 5890&#45;&gt;3449 -->
<g id="edge17" class="edge"><title>5890&#45;&gt;3449</title>
<path fill="none" stroke="green" stroke-width="0.508067" stroke-dasharray="1,5" d="M916.671,-698.661C922.942,-694.427 930.06,-690.075 937,-686.808 995.087,-659.461 1067.94,-640.726 1109.91,-631.301"/>
<polygon fill="green" stroke="green" stroke-width="0.508067" points="1110.87,-634.673 1119.89,-629.105 1109.37,-627.836 1110.87,-634.673"/>
</g>
<!-- 3847&#45;&gt;2005 -->
<g id="edge44" class="edge"><title>3847&#45;&gt;2005</title>
<path fill="none" stroke="red" stroke-width="1.07176" d="M669.876,-689.494C670.629,-679.9 671.511,-668.664 672.329,-658.245"/>
<polygon fill="red" stroke="red" stroke-width="1.07176" points="675.825,-658.432 673.119,-648.189 668.847,-657.884 675.825,-658.432"/>
</g>
<!-- 7694 -->
<g id="node31" class="node"><title>7694</title>
<ellipse fill="white" stroke="black" cx="335" cy="-440.922" rx="25" ry="25"/>
<text text-anchor="middle" x="335" y="-438.722" font-family="Times,serif" font-size="9.00">7694</text>
</g>
<!-- 7694&#45;&gt;2968 -->
<g id="edge50" class="edge"><title>7694&#45;&gt;2968</title>
<path fill="none" stroke="red" stroke-width="0.322942" d="M347.112,-419.124C369.526,-381.295 419.869,-299.354 471,-236.693 481.334,-224.029 493.934,-210.997 504.832,-200.348"/>
<polygon fill="red" stroke="red" stroke-width="0.322942" points="507.282,-202.848 512.057,-193.39 502.426,-197.806 507.282,-202.848"/>
</g>
<!-- 3986&#45;&gt;2968 -->
<g id="edge61" class="edge"><title>3986&#45;&gt;2968</title>
<path fill="none" stroke="green" stroke-width="0.465636" stroke-dasharray="1,5" d="M461.874,-328.675C469.232,-305.145 481.783,-267.689 496,-236.693 500.713,-226.417 506.594,-215.565 512.132,-205.971"/>
<polygon fill="green" stroke="green" stroke-width="0.465636" points="515.229,-207.609 517.289,-197.217 509.198,-204.057 515.229,-207.609"/>
</g>
<!-- 3986&#45;&gt;4053 -->
<g id="edge20" class="edge"><title>3986&#45;&gt;4053</title>
<path fill="none" stroke="red" stroke-width="0.148839" d="M470.906,-333.289C481.545,-321.043 495.703,-304.747 507.493,-291.176"/>
<polygon fill="red" stroke="red" stroke-width="0.148839" points="510.201,-293.396 514.117,-283.552 504.917,-288.805 510.201,-293.396"/>
</g>
<!-- 11670 -->
<g id="node33" class="node"><title>11670</title>
<ellipse fill="white" stroke="black" cx="282" cy="-264.271" rx="27.6545" ry="27.6545"/>
<text text-anchor="middle" x="282" y="-262.071" font-family="Times,serif" font-size="9.00">11670</text>
</g>
<!-- 11670&#45;&gt;2968 -->
<g id="edge46" class="edge"><title>11670&#45;&gt;2968</title>
<path fill="none" stroke="red" stroke-width="1.28145" stroke-dasharray="1,5" d="M304.452,-247.432C310.598,-243.555 317.391,-239.67 324,-236.693 381.904,-210.61 454.084,-192.762 495.82,-183.753"/>
<polygon fill="red" stroke="red" stroke-width="1.28145" points="496.688,-187.147 505.747,-181.654 495.239,-180.299 496.688,-187.147"/>
</g>
<!-- 2968&#45;&gt;0 -->
<g id="edge21" class="edge"><title>2968&#45;&gt;0</title>
<path fill="none" stroke="green" stroke-width="0.415937" stroke-dasharray="1,5" d="M506.338,-167.681C454.826,-151.868 333.037,-114.482 281.591,-98.689"/>
<polygon fill="green" stroke="green" stroke-width="0.415937" points="282.592,-95.3353 272.005,-95.7465 280.538,-102.027 282.592,-95.3353"/>
</g>
<!-- 2968&#45;&gt;3 -->
<g id="edge76" class="edge"><title>2968&#45;&gt;3</title>
<path fill="none" stroke="red" stroke-width="1.23011" stroke-dasharray="1,5" d="M552.08,-163.757C609.747,-134.539 764.395,-56.1831 821.987,-27.0026"/>
<polygon fill="red" stroke="red" stroke-width="1.23011" points="823.632,-30.0929 830.97,-22.451 820.468,-23.8487 823.632,-30.0929"/>
</g>
<!-- 2968&#45;&gt;5839 -->
<g id="edge10" class="edge"><title>2968&#45;&gt;5839</title>
<path fill="none" stroke="green" stroke-width="0.103495" stroke-dasharray="1,5" d="M553.622,-167.388C600.305,-152.453 704.474,-119.128 757.942,-102.023"/>
<polygon fill="green" stroke="green" stroke-width="0.103495" points="759.161,-105.308 767.619,-98.9271 757.028,-98.6406 759.161,-105.308"/>
</g>
<!-- 13080&#45;&gt;7694 -->
<g id="edge70" class="edge"><title>13080&#45;&gt;7694</title>
<path fill="none" stroke="green" stroke-width="0.407272" d="M389.174,-509.948C379.326,-497.582 366.797,-481.85 356.27,-468.631"/>
<polygon fill="green" stroke="green" stroke-width="0.407272" points="358.983,-466.419 350.015,-460.777 353.507,-470.78 358.983,-466.419"/>
</g>
<!-- 12478 -->
<g id="node42" class="node"><title>12478</title>
<ellipse fill="white" stroke="black" cx="482" cy="-440.922" rx="27.6545" ry="27.6545"/>
<text text-anchor="middle" x="482" y="-438.722" font-family="Times,serif" font-size="9.00">12478</text>
</g>
<!-- 13080&#45;&gt;12478 -->
<g id="edge47" class="edge"><title>13080&#45;&gt;12478</title>
<path fill="none" stroke="red" stroke-width="0.201076" d="M423.627,-510.399C433.795,-498.471 446.725,-483.303 457.831,-470.275"/>
<polygon fill="red" stroke="red" stroke-width="0.201076" points="460.645,-472.369 464.469,-462.488 455.318,-467.828 460.645,-472.369"/>
</g>
<!-- 2714&#45;&gt;1 -->
<g id="edge66" class="edge"><title>2714&#45;&gt;1</title>
<path fill="none" stroke="green" stroke-width="0.563416" stroke-dasharray="1,5" d="M1024.67,-333.289C1011.68,-318.726 993.583,-298.436 980.538,-283.812"/>
<polygon fill="green" stroke="green" stroke-width="0.563416" points="982.787,-281.075 973.519,-275.942 977.563,-285.735 982.787,-281.075"/>
</g>
<!-- 13733 -->
<g id="node37" class="node"><title>13733</title>
<ellipse fill="white" stroke="black" cx="1097" cy="-532.077" rx="27.6545" ry="27.6545"/>
<text text-anchor="middle" x="1097" y="-529.877" font-family="Times,serif" font-size="9.00">13733</text>
</g>
<!-- 13733&#45;&gt;2796 -->
<g id="edge83" class="edge"><title>13733&#45;&gt;2796</title>
<path fill="none" stroke="red" stroke-width="0.721607" d="M1082.58,-508.117C1075.5,-496.852 1066.9,-483.157 1059.36,-471.153"/>
<polygon fill="red" stroke="red" stroke-width="0.721607" points="1062.13,-468.977 1053.84,-462.371 1056.2,-472.701 1062.13,-468.977"/>
</g>
<!-- 9126&#45;&gt;3986 -->
<g id="edge64" class="edge"><title>9126&#45;&gt;3986</title>
<path fill="none" stroke="red" stroke-width="0.576868" d="M465.695,-511.627C457.906,-499.807 449.05,-484.038 445,-468.5 437.992,-441.615 441.518,-410.119 446.218,-386.909"/>
<polygon fill="red" stroke="red" stroke-width="0.576868" points="449.696,-387.392 448.427,-376.873 442.859,-385.887 449.696,-387.392"/>
</g>
<!-- 9126&#45;&gt;12478 -->
<g id="edge11" class="edge"><title>9126&#45;&gt;12478</title>
<path fill="none" stroke="red" stroke-width="1.69889" d="M480.536,-507.185C480.731,-498.473 480.957,-488.406 481.172,-478.827"/>
<polygon fill="red" stroke="red" stroke-width="1.69889" points="484.674,-478.787 481.399,-468.711 477.676,-478.63 484.674,-478.787"/>
</g>
<!-- 9126&#45;&gt;4053 -->
<g id="edge73" class="edge"><title>9126&#45;&gt;4053</title>
<path fill="none" stroke="red" stroke-width="0.185995" stroke-dasharray="1,5" d="M495.205,-512.326C503.859,-500.503 513.953,-484.492 519,-468.5 537.098,-411.153 535.995,-340.238 533.221,-299.138"/>
<polygon fill="red" stroke="red" stroke-width="0.185995" points="536.708,-298.822 532.471,-289.111 529.727,-299.345 536.708,-298.822"/>
</g>
<!-- 11053 -->
<g id="node39" class="node"><title>11053</title>
<ellipse fill="white" stroke="black" cx="1170" cy="-532.077" rx="27.6545" ry="27.6545"/>
<text text-anchor="middle" x="1170" y="-529.877" font-family="Times,serif" font-size="9.00">11053</text>
</g>
<!-- 11053&#45;&gt;2796 -->
<g id="edge63" class="edge"><title>11053&#45;&gt;2796</title>
<path fill="none" stroke="green" stroke-width="0.364156" d="M1148.41,-514.901C1143.69,-511.43 1138.7,-507.812 1134,-504.5 1112.81,-489.562 1088.5,-473.227 1070.04,-460.994"/>
<polygon fill="green" stroke="green" stroke-width="0.364156" points="1071.77,-457.937 1061.49,-455.341 1067.9,-463.776 1071.77,-457.937"/>
</g>
<!-- 13998&#45;&gt;3986 -->
<g id="edge56" class="edge"><title>13998&#45;&gt;3986</title>
<path fill="none" stroke="green" stroke-width="0.211101" d="M158.432,-432.858C216.926,-417.225 357.228,-379.727 421.642,-362.512"/>
<polygon fill="green" stroke="green" stroke-width="0.211101" points="422.547,-365.893 431.304,-359.929 420.74,-359.13 422.547,-365.893"/>
</g>
<!-- 13361&#45;&gt;3449 -->
<g id="edge16" class="edge"><title>13361&#45;&gt;3449</title>
<path fill="none" stroke="green" stroke-width="1.71624" d="M1065.03,-695.344C1080.38,-681.526 1101.66,-662.361 1118.26,-647.408"/>
<polygon fill="green" stroke="green" stroke-width="1.71624" points="1120.9,-649.74 1125.99,-640.447 1116.22,-644.538 1120.9,-649.74"/>
</g>
<!-- 12478&#45;&gt;3986 -->
<g id="edge37" class="edge"><title>12478&#45;&gt;3986</title>
<path fill="none" stroke="red" stroke-width="0.219565" stroke-dasharray="1,5" d="M474.045,-414.489C471.281,-405.65 468.141,-395.611 465.219,-386.269"/>
<polygon fill="red" stroke="red" stroke-width="0.219565" points="468.488,-384.996 462.162,-376.497 461.807,-387.085 468.488,-384.996"/>
</g>
<!-- 4423&#45;&gt;2968 -->
<g id="edge71" class="edge"><title>4423&#45;&gt;2968</title>
<path fill="none" stroke="green" stroke-width="0.574605" stroke-dasharray="1,5" d="M207.636,-788.721C194.711,-776.855 177.698,-759.67 166,-741.963 86.0873,-620.996 38,-586.901 38,-441.922 38,-441.922 38,-441.922 38,-351.597 38,-256.311 130.432,-271.835 219,-236.693 314.499,-198.802 436.29,-184.393 495.104,-179.373"/>
<polygon fill="green" stroke="green" stroke-width="0.574605" points="495.649,-182.841 505.332,-178.542 495.081,-175.864 495.649,-182.841"/>
</g>
<!-- 4423&#45;&gt;5233 -->
<g id="edge54" class="edge"><title>4423&#45;&gt;5233</title>
<path fill="none" stroke="red" stroke-width="0.220052" d="M249.58,-797.025C273.215,-788.083 308.286,-770.642 324,-741.963 335.779,-720.465 334.391,-709.01 324,-686.808 318.897,-675.904 296.382,-657.845 277.341,-643.923"/>
<polygon fill="red" stroke="red" stroke-width="0.220052" points="279.344,-641.052 269.183,-638.05 275.254,-646.733 279.344,-641.052"/>
</g>
<!-- 8318 -->
<g id="node56" class="node"><title>8318</title>
<ellipse fill="white" stroke="black" cx="290" cy="-714.385" rx="25" ry="25"/>
<text text-anchor="middle" x="290" y="-712.185" font-family="Times,serif" font-size="9.00">8318</text>
</g>
<!-- 4423&#45;&gt;8318 -->
<g id="edge53" class="edge"><title>4423&#45;&gt;8318</title>
<path fill="none" stroke="green" stroke-width="0.600275" d="M240.204,-784.753C248.904,-772.634 260.177,-756.929 269.797,-743.529"/>
<polygon fill="green" stroke="green" stroke-width="0.600275" points="272.848,-745.281 275.836,-735.116 267.161,-741.199 272.848,-745.281"/>
</g>
<!-- 10445&#45;&gt;2968 -->
<g id="edge5" class="edge"><title>10445&#45;&gt;2968</title>
<path fill="none" stroke="green" stroke-width="0.255863" stroke-dasharray="1,5" d="M741.407,-595.709C736.97,-560.601 730,-496.736 730,-441.922 730,-441.922 730,-441.922 730,-351.597 730,-263.97 619.731,-210.18 562.948,-188.29"/>
<polygon fill="green" stroke="green" stroke-width="0.255863" points="563.926,-184.919 553.334,-184.692 561.473,-191.475 563.926,-184.919"/>
</g>
<!-- 5839&#45;&gt;3 -->
<g id="edge7" class="edge"><title>5839&#45;&gt;3</title>
<path fill="none" stroke="red" stroke-width="0.364223" d="M805.203,-69.7243C812.773,-59.2125 822.063,-46.3122 829.654,-35.7706"/>
<polygon fill="red" stroke="red" stroke-width="0.364223" points="832.553,-37.7348 835.556,-27.5746 826.872,-33.6442 832.553,-37.7348"/>
</g>
<!-- 2005&#45;&gt;1 -->
<g id="edge79" class="edge"><title>2005&#45;&gt;1</title>
<path fill="none" stroke="green" stroke-width="0.72888" d="M688.686,-602.585C722.658,-554.238 814.369,-426.273 901,-327.848 915.339,-311.556 932.96,-294.259 945.916,-281.988"/>
<polygon fill="green" stroke="green" stroke-width="0.72888" points="948.412,-284.446 953.31,-275.052 943.622,-279.341 948.412,-284.446"/>
</g>
<!-- 2005&#45;&gt;2968 -->
<g id="edge74" class="edge"><title>2005&#45;&gt;2968</title>
<path fill="none" stroke="green" stroke-width="0.211402" stroke-dasharray="1,5" d="M670.495,-598.705C664.324,-564.379 654,-498.492 654,-441.922 654,-441.922 654,-441.922 654,-351.597 654,-299.426 660.273,-279.182 630,-236.693 613.541,-213.594 585.104,-197.872 562.751,-188.377"/>
<polygon fill="green" stroke="green" stroke-width="0.211402" points="563.87,-185.054 553.287,-184.567 561.256,-191.548 563.87,-185.054"/>
</g>
<!-- 4053&#45;&gt;2968 -->
<g id="edge84" class="edge"><title>4053&#45;&gt;2968</title>
<path fill="none" stroke="green" stroke-width="0.20889" d="M530,-239.224C530,-230.525 530,-220.527 530,-211.124"/>
<polygon fill="green" stroke="green" stroke-width="0.20889" points="533.5,-210.862 530,-200.862 526.5,-210.862 533.5,-210.862"/>
</g>
<!-- 13404&#45;&gt;2796 -->
<g id="edge15" class="edge"><title>13404&#45;&gt;2796</title>
<path fill="none" stroke="red" stroke-width="0.813073" d="M958.349,-513.463C974.619,-499.381 997.531,-479.548 1015.11,-464.335"/>
<polygon fill="red" stroke="red" stroke-width="0.813073" points="1017.49,-466.898 1022.76,-457.707 1012.91,-461.606 1017.49,-466.898"/>
</g>
<!-- 11383 -->
<g id="node54" class="node"><title>11383</title>
<ellipse fill="white" stroke="black" cx="1118" cy="-714.385" rx="27.6545" ry="27.6545"/>
<text text-anchor="middle" x="1118" y="-712.185" font-family="Times,serif" font-size="9.00">11383</text>
</g>
<!-- 10719&#45;&gt;11383 -->
<g id="edge78" class="edge"><title>10719&#45;&gt;11383</title>
<path fill="none" stroke="green" stroke-width="0.234908" stroke-dasharray="1,5" d="M1118,-777.79C1118,-769.768 1118,-760.824 1118,-752.269"/>
<polygon fill="green" stroke="green" stroke-width="0.234908" points="1121.5,-752.116 1118,-742.116 1114.5,-752.116 1121.5,-752.116"/>
</g>
<!-- 10719&#45;&gt;3449 -->
<g id="edge8" class="edge"><title>10719&#45;&gt;3449</title>
<path fill="none" stroke="red" stroke-width="1.0381" d="M1142.68,-792.76C1161.42,-782.314 1185.8,-765.117 1197,-741.963 1207.67,-719.895 1205.44,-709.824 1197,-686.808 1191.43,-671.603 1180.34,-657.555 1169.74,-646.639"/>
<polygon fill="red" stroke="red" stroke-width="1.0381" points="1172.15,-644.099 1162.56,-639.605 1167.26,-649.102 1172.15,-644.099"/>
</g>
<!-- 13024 -->
<g id="node50" class="node"><title>13024</title>
<ellipse fill="white" stroke="black" cx="434" cy="-623.231" rx="27.6545" ry="27.6545"/>
<text text-anchor="middle" x="434" y="-621.031" font-family="Times,serif" font-size="9.00">13024</text>
</g>
<!-- 13024&#45;&gt;9126 -->
<g id="edge75" class="edge"><title>13024&#45;&gt;9126</title>
<path fill="none" stroke="red" stroke-width="0.72169" d="M446.327,-598.339C451.858,-587.621 458.446,-574.851 464.322,-563.462"/>
<polygon fill="red" stroke="red" stroke-width="0.72169" points="467.577,-564.787 469.052,-554.295 461.356,-561.577 467.577,-564.787"/>
</g>
<!-- 4708 -->
<g id="node51" class="node"><title>4708</title>
<ellipse fill="white" stroke="black" cx="438" cy="-714.385" rx="25" ry="25"/>
<text text-anchor="middle" x="438" y="-712.185" font-family="Times,serif" font-size="9.00">4708</text>
</g>
<!-- 4708&#45;&gt;3986 -->
<g id="edge68" class="edge"><title>4708&#45;&gt;3986</title>
<path fill="none" stroke="green" stroke-width="0.367142" stroke-dasharray="1,5" d="M420.48,-696.656C409.199,-684.885 395.168,-668.185 387,-650.808 359.13,-591.515 352.221,-567.831 369,-504.5 381.458,-457.479 412.363,-409.799 433.52,-380.96"/>
<polygon fill="green" stroke="green" stroke-width="0.367142" points="436.558,-382.742 439.742,-372.637 430.952,-378.551 436.558,-382.742"/>
</g>
<!-- 4708&#45;&gt;11670 -->
<g id="edge41" class="edge"><title>4708&#45;&gt;11670</title>
<path fill="none" stroke="green" stroke-width="0.452148" d="M418.861,-698.273C396.743,-680.743 363.089,-653.841 361,-650.808 285.458,-541.133 279.152,-374.97 280.444,-301.916"/>
<polygon fill="green" stroke="green" stroke-width="0.452148" points="283.945,-301.911 280.682,-291.831 276.947,-301.745 283.945,-301.911"/>
</g>
<!-- 4708&#45;&gt;2968 -->
<g id="edge18" class="edge"><title>4708&#45;&gt;2968</title>
<path fill="none" stroke="green" stroke-width="0.512511" d="M462.499,-710.332C495.87,-704.785 554.899,-689.767 585,-650.808 642.383,-576.539 616,-535.777 616,-441.922 616,-441.922 616,-441.922 616,-351.597 616,-294.199 578.154,-236.095 552.675,-203.481"/>
<polygon fill="green" stroke="green" stroke-width="0.512511" points="555.159,-200.984 546.176,-195.367 549.695,-205.36 555.159,-200.984"/>
</g>
<!-- 4708&#45;&gt;9126 -->
<g id="edge65" class="edge"><title>4708&#45;&gt;9126</title>
<path fill="none" stroke="red" stroke-width="0.141059" stroke-dasharray="1,5" d="M422.122,-695.393C412.813,-683.605 401.94,-667.361 397,-650.808 389.99,-627.319 386.065,-617.593 397,-595.654 398.55,-592.543 428.301,-570.509 451.744,-553.457"/>
<polygon fill="red" stroke="red" stroke-width="0.141059" points="453.993,-556.149 460.032,-547.444 449.883,-550.483 453.993,-556.149"/>
</g>
<!-- 4708&#45;&gt;12478 -->
<g id="edge6" class="edge"><title>4708&#45;&gt;12478</title>
<path fill="none" stroke="red" stroke-width="0.702871" d="M462.31,-709.303C492.437,-702.799 542.539,-686.915 565,-650.808 602.663,-590.263 544.276,-509.729 507.765,-468.586"/>
<polygon fill="red" stroke="red" stroke-width="0.702871" points="510.321,-466.194 501.01,-461.138 505.136,-470.897 510.321,-466.194"/>
</g>
<!-- 4708&#45;&gt;13024 -->
<g id="edge60" class="edge"><title>4708&#45;&gt;13024</title>
<path fill="none" stroke="red" stroke-width="0.324505" d="M436.928,-689.494C436.537,-680.782 436.086,-670.715 435.656,-661.136"/>
<polygon fill="red" stroke="red" stroke-width="0.324505" points="439.147,-660.853 435.202,-651.02 432.154,-661.167 439.147,-660.853"/>
</g>
<!-- 2796&#45;&gt;3986 -->
<g id="edge32" class="edge"><title>2796&#45;&gt;3986</title>
<path fill="none" stroke="green" stroke-width="0.545051" stroke-dasharray="1,5" d="M1016.57,-436.323C924.329,-422.735 597.085,-374.528 489.534,-358.684"/>
<polygon fill="green" stroke="green" stroke-width="0.545051" points="489.941,-355.206 479.538,-357.211 488.921,-362.131 489.941,-355.206"/>
</g>
<!-- 2796&#45;&gt;2714 -->
<g id="edge48" class="edge"><title>2796&#45;&gt;2714</title>
<path fill="none" stroke="green" stroke-width="0.677055" stroke-dasharray="1,5" d="M1041,-415.876C1041,-407.176 1041,-397.179 1041,-387.776"/>
<polygon fill="green" stroke="green" stroke-width="0.677055" points="1044.5,-387.514 1041,-377.514 1037.5,-387.514 1044.5,-387.514"/>
</g>
<!-- 5233&#45;&gt;7694 -->
<g id="edge22" class="edge"><title>5233&#45;&gt;7694</title>
<path fill="none" stroke="green" stroke-width="0.351304" d="M259.374,-600.482C274.588,-568.582 303.023,-508.965 320.359,-472.619"/>
<polygon fill="green" stroke="green" stroke-width="0.351304" points="323.577,-474.001 324.723,-463.468 317.259,-470.987 323.577,-474.001"/>
</g>
<!-- 5233&#45;&gt;2968 -->
<g id="edge14" class="edge"><title>5233&#45;&gt;2968</title>
<path fill="none" stroke="green" stroke-width="0.308211" d="M244.066,-598.725C237.308,-564.424 226,-498.568 226,-441.922 226,-441.922 226,-441.922 226,-351.597 226,-299.835 209.19,-274.069 245,-236.693 279.112,-201.09 426.71,-185.054 495.043,-179.437"/>
<polygon fill="green" stroke="green" stroke-width="0.308211" points="495.608,-182.904 505.3,-178.624 495.054,-175.925 495.608,-182.904"/>
</g>
<!-- 5233&#45;&gt;13080 -->
<g id="edge72" class="edge"><title>5233&#45;&gt;13080</title>
<path fill="none" stroke="red" stroke-width="0.108536" d="M270.174,-610.207C296.76,-595.11 342.637,-569.058 373.636,-551.455"/>
<polygon fill="red" stroke="red" stroke-width="0.108536" points="375.381,-554.489 382.348,-546.508 371.924,-548.402 375.381,-554.489"/>
</g>
<!-- 11383&#45;&gt;3449 -->
<g id="edge82" class="edge"><title>11383&#45;&gt;3449</title>
<path fill="none" stroke="green" stroke-width="0.233243" d="M1125.52,-687.598C1128.31,-678.033 1131.51,-667.055 1134.46,-656.952"/>
<polygon fill="green" stroke="green" stroke-width="0.233243" points="1137.85,-657.807 1137.29,-647.227 1131.13,-655.847 1137.85,-657.807"/>
</g>
<!-- 3449&#45;&gt;3 -->
<g id="edge24" class="edge"><title>3449&#45;&gt;3</title>
<path fill="none" stroke="green" stroke-width="0.438091" d="M1165.51,-610.551C1183.76,-599.622 1209.38,-581.693 1225,-559.654 1256.87,-514.678 1264,-497.044 1264,-441.922 1264,-441.922 1264,-441.922 1264,-174.945 1264,-89.9027 959.062,-34.276 868.85,-19.6803"/>
<polygon fill="green" stroke="green" stroke-width="0.438091" points="869.374,-16.2197 858.948,-18.1045 868.274,-23.1327 869.374,-16.2197"/>
</g>
<!-- 3449&#45;&gt;13733 -->
<g id="edge35" class="edge"><title>3449&#45;&gt;13733</title>
<path fill="none" stroke="green" stroke-width="0.282162" d="M1132.86,-601.103C1127.34,-590.62 1120.53,-577.719 1114.35,-565.98"/>
<polygon fill="green" stroke="green" stroke-width="0.282162" points="1117.31,-564.096 1109.55,-556.882 1111.12,-567.361 1117.31,-564.096"/>
</g>
<!-- 3449&#45;&gt;11053 -->
<g id="edge55" class="edge"><title>3449&#45;&gt;11053</title>
<path fill="none" stroke="red" stroke-width="0.709927" d="M1150.7,-599.272C1153.43,-589.888 1156.66,-578.818 1159.69,-568.444"/>
<polygon fill="red" stroke="red" stroke-width="0.709927" points="1163.06,-569.369 1162.5,-558.789 1156.34,-567.409 1163.06,-569.369"/>
</g>
<!-- 3449&#45;&gt;2796 -->
<g id="edge51" class="edge"><title>3449&#45;&gt;2796</title>
<path fill="none" stroke="red" stroke-width="0.693192" stroke-dasharray="1,5" d="M1164.42,-608.779C1179.34,-597.626 1198.41,-580.291 1207,-559.654 1216.42,-537.023 1220.95,-524.66 1207,-504.5 1177.57,-461.949 1115.28,-448.296 1075.93,-443.938"/>
<polygon fill="red" stroke="red" stroke-width="0.693192" points="1076.26,-440.453 1065.97,-442.978 1075.59,-447.421 1076.26,-440.453"/>
</g>
<!-- 8318&#45;&gt;5233 -->
<g id="edge33" class="edge"><title>8318&#45;&gt;5233</title>
<path fill="none" stroke="red" stroke-width="0.374278" stroke-dasharray="1,5" d="M279.865,-691.347C274.851,-680.443 268.713,-667.097 263.235,-655.186"/>
<polygon fill="red" stroke="red" stroke-width="0.374278" points="266.376,-653.639 259.018,-646.016 260.017,-656.563 266.376,-653.639"/>
</g>
</g>
</svg>
