<?xml version="1.0" encoding="UTF-8" standalone="no"?>
<!DOCTYPE svg PUBLIC "-//W3C//DTD SVG 1.1//EN"
 "http://www.w3.org/Graphics/SVG/1.1/DTD/svg11.dtd">
<!-- Generated by graphviz version 2.38.0 (20140413.2041)
 -->
<!-- Title: %3 Pages: 1 -->
<svg width="1571pt" height="197pt"
 viewBox="0.00 0.00 1570.93 196.99" xmlns="http://www.w3.org/2000/svg" xmlns:xlink="http://www.w3.org/1999/xlink">
<g id="graph0" class="graph" transform="scale(1 1) rotate(0) translate(4 192.995)">
<title>%3</title>
<polygon fill="white" stroke="none" points="-4,4 -4,-192.995 1566.93,-192.995 1566.93,4 -4,4"/>
<!-- &#45;1 -->
<g id="node1" class="node"><title>&#45;1</title>
<polygon fill="lightgray" stroke="black" points="1035.43,-188.995 1011.43,-188.995 1011.43,-170.995 1035.43,-170.995 1035.43,-188.995"/>
<text text-anchor="middle" x="1023.43" y="-177.795" font-family="Times,serif" font-size="9.00">&#45;1</text>
</g>
<!-- 0 -->
<g id="node25" class="node"><title>0</title>
<ellipse fill="lightblue" stroke="black" cx="650.427" cy="-24.7487" rx="14.7" ry="14.7"/>
<text text-anchor="middle" x="650.427" y="-22.5487" font-family="Times,serif" font-size="9.00">0</text>
</g>
<!-- &#45;1&#45;&gt;0 -->
<g id="edge3" class="edge"><title>&#45;1&#45;&gt;0</title>
<path fill="none" stroke="red" stroke-width="0.18529" d="M1011.31,-178.376C962.55,-175.704 780.897,-163.95 732.427,-134.995 698.099,-114.488 673.418,-73.6005 660.568,-48.0769"/>
<polygon fill="red" stroke="red" stroke-width="0.18529" points="663.589,-46.2843 656.082,-38.8084 657.288,-49.3343 663.589,-46.2843"/>
</g>
<!-- 1 -->
<g id="node26" class="node"><title>1</title>
<ellipse fill="lightblue" stroke="black" cx="358.427" cy="-24.7487" rx="14.7" ry="14.7"/>
<text text-anchor="middle" x="358.427" y="-22.5487" font-family="Times,serif" font-size="9.00">1</text>
</g>
<!-- &#45;1&#45;&gt;1 -->
<g id="edge14" class="edge"><title>&#45;1&#45;&gt;1</title>
<path fill="none" stroke="red" stroke-width="0.287766" d="M1011.23,-178.273C919.214,-172.819 337.448,-138.215 334.427,-134.995 311.79,-110.866 329.917,-70.4627 344.574,-46.1368"/>
<polygon fill="red" stroke="red" stroke-width="0.287766" points="347.729,-47.6957 350.123,-37.375 341.816,-43.95 347.729,-47.6957"/>
</g>
<!-- 3 -->
<g id="node28" class="node"><title>3</title>
<ellipse fill="lightblue" stroke="black" cx="1272.43" cy="-24.7487" rx="14.7" ry="14.7"/>
<text text-anchor="middle" x="1272.43" y="-22.5487" font-family="Times,serif" font-size="9.00">3</text>
</g>
<!-- &#45;1&#45;&gt;3 -->
<g id="edge47" class="edge"><title>&#45;1&#45;&gt;3</title>
<path fill="none" stroke="red" stroke-width="0.299877" stroke-dasharray="1,5" d="M1035.66,-178.432C1078.74,-176.193 1222.5,-166.447 1253.43,-134.995 1275.41,-112.635 1277.11,-74.4984 1275.44,-49.7159"/>
<polygon fill="red" stroke="red" stroke-width="0.299877" points="1278.92,-49.3287 1274.53,-39.6855 1271.95,-49.9606 1278.92,-49.3287"/>
</g>
<!-- 8512 -->
<g id="node29" class="node"><title>8512</title>
<ellipse fill="white" stroke="black" cx="1325.43" cy="-110.246" rx="25" ry="25"/>
<text text-anchor="middle" x="1325.43" y="-108.046" font-family="Times,serif" font-size="9.00">8512</text>
</g>
<!-- &#45;1&#45;&gt;8512 -->
<g id="edge34" class="edge"><title>&#45;1&#45;&gt;8512</title>
<path fill="none" stroke="green" stroke-width="0.109124" d="M1035.64,-178.588C1073.88,-176.976 1194.23,-169.315 1286.43,-134.995 1289.9,-133.702 1293.41,-132.089 1296.82,-130.317"/>
<polygon fill="green" stroke="green" stroke-width="0.109124" points="1298.57,-133.347 1305.53,-125.361 1295.11,-127.261 1298.57,-133.347"/>
</g>
<!-- &#45;2 -->
<g id="node2" class="node"><title>&#45;2</title>
<polygon fill="lightgray" stroke="black" points="878.427,-119.246 854.427,-119.246 854.427,-101.246 878.427,-101.246 878.427,-119.246"/>
<text text-anchor="middle" x="866.427" y="-108.046" font-family="Times,serif" font-size="9.00">&#45;2</text>
</g>
<!-- &#45;2&#45;&gt;0 -->
<g id="edge24" class="edge"><title>&#45;2&#45;&gt;0</title>
<path fill="none" stroke="red" stroke-width="0.340581" d="M861.059,-101.155C857.254,-95.9988 851.721,-89.5495 845.427,-85.4975 790.73,-50.2813 714.105,-34.8385 675.2,-28.9258"/>
<polygon fill="red" stroke="red" stroke-width="0.340581" points="675.672,-25.4578 665.276,-27.5023 674.678,-32.3869 675.672,-25.4578"/>
</g>
<!-- 2 -->
<g id="node27" class="node"><title>2</title>
<ellipse fill="lightblue" stroke="black" cx="992.427" cy="-24.7487" rx="14.7" ry="14.7"/>
<text text-anchor="middle" x="992.427" y="-22.5487" font-family="Times,serif" font-size="9.00">2</text>
</g>
<!-- &#45;2&#45;&gt;2 -->
<g id="edge36" class="edge"><title>&#45;2&#45;&gt;2</title>
<path fill="none" stroke="red" stroke-width="0.289106" stroke-dasharray="1,5" d="M872.827,-101.181C876.956,-96.2888 882.624,-90.1192 888.427,-85.4975 914.277,-64.9112 948.043,-46.8877 969.978,-36.1605"/>
<polygon fill="red" stroke="red" stroke-width="0.289106" points="971.648,-39.2413 979.152,-31.7622 968.622,-32.9292 971.648,-39.2413"/>
</g>
<!-- &#45;3 -->
<g id="node3" class="node"><title>&#45;3</title>
<polygon fill="lightgray" stroke="black" points="1473.43,-188.995 1449.43,-188.995 1449.43,-170.995 1473.43,-170.995 1473.43,-188.995"/>
<text text-anchor="middle" x="1461.43" y="-177.795" font-family="Times,serif" font-size="9.00">&#45;3</text>
</g>
<!-- &#45;4 -->
<g id="node4" class="node"><title>&#45;4</title>
<polygon fill="lightgray" stroke="black" points="642.427,-119.246 618.427,-119.246 618.427,-101.246 642.427,-101.246 642.427,-119.246"/>
<text text-anchor="middle" x="630.427" y="-108.046" font-family="Times,serif" font-size="9.00">&#45;4</text>
</g>
<!-- &#45;4&#45;&gt;0 -->
<g id="edge40" class="edge"><title>&#45;4&#45;&gt;0</title>
<path fill="none" stroke="green" stroke-width="0.214663" stroke-dasharray="1,5" d="M632.345,-101.24C635.179,-89.4093 640.599,-66.7806 644.769,-49.3709"/>
<polygon fill="green" stroke="green" stroke-width="0.214663" points="648.244,-49.8887 647.17,-39.3484 641.437,-48.258 648.244,-49.8887"/>
</g>
<!-- &#45;4&#45;&gt;1 -->
<g id="edge55" class="edge"><title>&#45;4&#45;&gt;1</title>
<path fill="none" stroke="green" stroke-width="0.295754" stroke-dasharray="1,5" d="M625.142,-101.021C621.372,-95.8092 615.847,-89.3473 609.427,-85.4975 535.632,-41.2403 431.253,-29.7598 383.743,-26.7859"/>
<polygon fill="green" stroke="green" stroke-width="0.295754" points="383.634,-23.2748 373.458,-26.2222 383.251,-30.2643 383.634,-23.2748"/>
</g>
<!-- &#45;4&#45;&gt;3 -->
<g id="edge22" class="edge"><title>&#45;4&#45;&gt;3</title>
<path fill="none" stroke="red" stroke-width="0.495945" stroke-dasharray="1,5" d="M642.587,-107.536C670.821,-103.573 743.018,-93.4916 803.427,-85.4975 973.356,-63.0104 1178.13,-37.4521 1247.83,-28.7966"/>
<polygon fill="red" stroke="red" stroke-width="0.495945" points="1248.34,-32.2606 1257.83,-27.5556 1247.48,-25.3139 1248.34,-32.2606"/>
</g>
<!-- &#45;5 -->
<g id="node5" class="node"><title>&#45;5</title>
<polygon fill="lightgray" stroke="black" points="1244.43,-119.246 1220.43,-119.246 1220.43,-101.246 1244.43,-101.246 1244.43,-119.246"/>
<text text-anchor="middle" x="1232.43" y="-108.046" font-family="Times,serif" font-size="9.00">&#45;5</text>
</g>
<!-- &#45;5&#45;&gt;0 -->
<g id="edge31" class="edge"><title>&#45;5&#45;&gt;0</title>
<path fill="none" stroke="red" stroke-width="2.18475" d="M1220.1,-103.143C1208.38,-97.6223 1190.12,-89.7292 1173.43,-85.4975 1076.91,-61.035 765.757,-34.9262 675.305,-27.6985"/>
<polygon fill="red" stroke="red" stroke-width="2.18475" points="675.416,-24.1964 665.17,-26.8942 674.862,-31.1745 675.416,-24.1964"/>
</g>
<!-- &#45;5&#45;&gt;3 -->
<g id="edge44" class="edge"><title>&#45;5&#45;&gt;3</title>
<path fill="none" stroke="green" stroke-width="0.984516" stroke-dasharray="1,5" d="M1236.26,-101.24C1242.14,-88.9795 1253.57,-65.122 1262.01,-47.4946"/>
<polygon fill="green" stroke="green" stroke-width="0.984516" points="1265.18,-48.9865 1266.34,-38.4557 1258.86,-45.9621 1265.18,-48.9865"/>
</g>
<!-- &#45;6 -->
<g id="node6" class="node"><title>&#45;6</title>
<polygon fill="lightgray" stroke="black" points="1468.43,-119.246 1444.43,-119.246 1444.43,-101.246 1468.43,-101.246 1468.43,-119.246"/>
<text text-anchor="middle" x="1456.43" y="-108.046" font-family="Times,serif" font-size="9.00">&#45;6</text>
</g>
<!-- &#45;6&#45;&gt;2 -->
<g id="edge53" class="edge"><title>&#45;6&#45;&gt;2</title>
<path fill="none" stroke="red" stroke-width="0.533036" stroke-dasharray="1,5" d="M1444.25,-105.937C1425.94,-101.036 1390.18,-91.755 1359.43,-85.4975 1231.39,-59.4437 1076.4,-37.2389 1017.12,-29.083"/>
<polygon fill="red" stroke="red" stroke-width="0.533036" points="1017.57,-25.6126 1007.19,-27.7259 1016.62,-32.5481 1017.57,-25.6126"/>
</g>
<!-- 7994 -->
<g id="node35" class="node"><title>7994</title>
<ellipse fill="white" stroke="black" cx="1456.43" cy="-24.7487" rx="25" ry="25"/>
<text text-anchor="middle" x="1456.43" y="-22.5487" font-family="Times,serif" font-size="9.00">7994</text>
</g>
<!-- &#45;6&#45;&gt;7994 -->
<g id="edge35" class="edge"><title>&#45;6&#45;&gt;7994</title>
<path fill="none" stroke="red" stroke-width="0.484758" d="M1456.43,-101.24C1456.43,-91.6887 1456.43,-75.0995 1456.43,-59.9004"/>
<polygon fill="red" stroke="red" stroke-width="0.484758" points="1459.93,-59.7037 1456.43,-49.7037 1452.93,-59.7038 1459.93,-59.7037"/>
</g>
<!-- &#45;7 -->
<g id="node7" class="node"><title>&#45;7</title>
<polygon fill="lightgray" stroke="black" points="1515.43,-188.995 1491.43,-188.995 1491.43,-170.995 1515.43,-170.995 1515.43,-188.995"/>
<text text-anchor="middle" x="1503.43" y="-177.795" font-family="Times,serif" font-size="9.00">&#45;7</text>
</g>
<!-- &#45;8 -->
<g id="node8" class="node"><title>&#45;8</title>
<polygon fill="lightgray" stroke="black" points="54.4274,-188.995 30.4274,-188.995 30.4274,-170.995 54.4274,-170.995 54.4274,-188.995"/>
<text text-anchor="middle" x="42.4274" y="-177.795" font-family="Times,serif" font-size="9.00">&#45;8</text>
</g>
<!-- &#45;8&#45;&gt;0 -->
<g id="edge58" class="edge"><title>&#45;8&#45;&gt;0</title>
<path fill="none" stroke="red" stroke-width="0.334789" stroke-dasharray="1,5" d="M54.7641,-177.883C129.833,-171.115 522.095,-135.719 523.427,-134.995 548.041,-121.633 541.934,-104.587 562.427,-85.4975 583.003,-66.3308 610.236,-48.8259 628.927,-37.7872"/>
<polygon fill="red" stroke="red" stroke-width="0.334789" points="630.695,-40.8081 637.596,-32.7691 627.188,-34.7499 630.695,-40.8081"/>
</g>
<!-- &#45;8&#45;&gt;1 -->
<g id="edge9" class="edge"><title>&#45;8&#45;&gt;1</title>
<path fill="none" stroke="red" stroke-width="0.279137" d="M33.4608,-170.934C25.1512,-162.807 13.3548,-149.43 8.42741,-134.995 1.3208,-114.176 -5.75909,-102.311 8.42741,-85.4975 50.303,-35.8675 260.31,-27.4589 333.346,-26.0371"/>
<polygon fill="red" stroke="red" stroke-width="0.279137" points="333.529,-29.5347 343.47,-25.8688 333.413,-22.5356 333.529,-29.5347"/>
</g>
<!-- 7386 -->
<g id="node32" class="node"><title>7386</title>
<ellipse fill="white" stroke="black" cx="42.4274" cy="-110.246" rx="25" ry="25"/>
<text text-anchor="middle" x="42.4274" y="-108.046" font-family="Times,serif" font-size="9.00">7386</text>
</g>
<!-- &#45;8&#45;&gt;7386 -->
<g id="edge21" class="edge"><title>&#45;8&#45;&gt;7386</title>
<path fill="none" stroke="green" stroke-width="0.357801" d="M42.4274,-170.957C42.4274,-164.522 42.4274,-155.024 42.4274,-145.488"/>
<polygon fill="green" stroke="green" stroke-width="0.357801" points="45.9275,-145.267 42.4274,-135.267 38.9275,-145.268 45.9275,-145.267"/>
</g>
<!-- &#45;9 -->
<g id="node9" class="node"><title>&#45;9</title>
<polygon fill="lightgray" stroke="black" points="836.427,-119.246 812.427,-119.246 812.427,-101.246 836.427,-101.246 836.427,-119.246"/>
<text text-anchor="middle" x="824.427" y="-108.046" font-family="Times,serif" font-size="9.00">&#45;9</text>
</g>
<!-- &#45;9&#45;&gt;0 -->
<g id="edge39" class="edge"><title>&#45;9&#45;&gt;0</title>
<path fill="none" stroke="red" stroke-width="1.13346" d="M816.843,-100.955C811.955,-95.977 805.256,-89.7973 798.427,-85.4975 757.945,-60.0078 704.754,-41.7242 674.406,-32.52"/>
<polygon fill="red" stroke="red" stroke-width="1.13346" points="675.265,-29.1242 664.683,-29.6461 673.281,-35.8371 675.265,-29.1242"/>
</g>
<!-- &#45;9&#45;&gt;2 -->
<g id="edge6" class="edge"><title>&#45;9&#45;&gt;2</title>
<path fill="none" stroke="red" stroke-width="0.14987" d="M830.263,-100.884C834.101,-95.8802 839.499,-89.6974 845.427,-85.4975 884.235,-58.0024 937.556,-40.4182 968.165,-31.8822"/>
<polygon fill="red" stroke="red" stroke-width="0.14987" points="969.237,-35.2182 977.983,-29.2388 967.417,-28.4589 969.237,-35.2182"/>
</g>
<!-- &#45;10 -->
<g id="node10" class="node"><title>&#45;10</title>
<polygon fill="lightgray" stroke="black" points="1430.93,-188.995 1401.93,-188.995 1401.93,-170.995 1430.93,-170.995 1430.93,-188.995"/>
<text text-anchor="middle" x="1416.43" y="-177.795" font-family="Times,serif" font-size="9.00">&#45;10</text>
</g>
<!-- &#45;10&#45;&gt;0 -->
<g id="edge28" class="edge"><title>&#45;10&#45;&gt;0</title>
<path fill="none" stroke="green" stroke-width="0.843378" d="M1401.9,-178.605C1314.33,-176.171 858.758,-162.263 803.427,-134.995 777.025,-121.983 782.448,-103.84 759.427,-85.4975 732.376,-63.943 696.47,-45.9575 673.402,-35.5213"/>
<polygon fill="green" stroke="green" stroke-width="0.843378" points="674.635,-32.24 664.074,-31.397 671.805,-38.6421 674.635,-32.24"/>
</g>
<!-- &#45;10&#45;&gt;3 -->
<g id="edge13" class="edge"><title>&#45;10&#45;&gt;3</title>
<path fill="none" stroke="green" stroke-width="0.131646" stroke-dasharray="1,5" d="M1414.88,-170.788C1411.21,-153.246 1400.5,-111.579 1377.43,-85.4975 1355.03,-60.183 1319.22,-43.0628 1295.76,-33.8516"/>
<polygon fill="green" stroke="green" stroke-width="0.131646" points="1296.84,-30.5158 1286.24,-30.281 1294.38,-37.07 1296.84,-30.5158"/>
</g>
<!-- 7843 -->
<g id="node30" class="node"><title>7843</title>
<ellipse fill="white" stroke="black" cx="1511.43" cy="-110.246" rx="25" ry="25"/>
<text text-anchor="middle" x="1511.43" y="-108.046" font-family="Times,serif" font-size="9.00">7843</text>
</g>
<!-- &#45;10&#45;&gt;7843 -->
<g id="edge1" class="edge"><title>&#45;10&#45;&gt;7843</title>
<path fill="none" stroke="red" stroke-width="0.324188" d="M1427.7,-170.957C1441.34,-161.231 1464.79,-144.507 1483.41,-131.228"/>
<polygon fill="red" stroke="red" stroke-width="0.324188" points="1485.46,-134.063 1491.57,-125.407 1481.4,-128.364 1485.46,-134.063"/>
</g>
<!-- &#45;11 -->
<g id="node11" class="node"><title>&#45;11</title>
<polygon fill="lightgray" stroke="black" points="1096.93,-119.246 1067.93,-119.246 1067.93,-101.246 1096.93,-101.246 1096.93,-119.246"/>
<text text-anchor="middle" x="1082.43" y="-108.046" font-family="Times,serif" font-size="9.00">&#45;11</text>
</g>
<!-- &#45;11&#45;&gt;2 -->
<g id="edge51" class="edge"><title>&#45;11&#45;&gt;2</title>
<path fill="none" stroke="green" stroke-width="0.294263" d="M1074.9,-101.187C1070.48,-96.5217 1064.73,-90.5845 1059.43,-85.4975 1043.6,-70.305 1024.92,-53.7529 1011.31,-41.931"/>
<polygon fill="green" stroke="green" stroke-width="0.294263" points="1013.41,-39.1263 1003.56,-35.2359 1008.84,-44.4226 1013.41,-39.1263"/>
</g>
<!-- &#45;12 -->
<g id="node12" class="node"><title>&#45;12</title>
<polygon fill="lightgray" stroke="black" points="286.927,-119.246 257.927,-119.246 257.927,-101.246 286.927,-101.246 286.927,-119.246"/>
<text text-anchor="middle" x="272.427" y="-108.046" font-family="Times,serif" font-size="9.00">&#45;12</text>
</g>
<!-- &#45;12&#45;&gt;1 -->
<g id="edge20" class="edge"><title>&#45;12&#45;&gt;1</title>
<path fill="none" stroke="red" stroke-width="0.299106" d="M280.673,-101.24C294.505,-87.811 322.666,-60.4695 341.03,-42.6402"/>
<polygon fill="red" stroke="red" stroke-width="0.299106" points="343.493,-45.1268 348.23,-35.6497 338.617,-40.1045 343.493,-45.1268"/>
</g>
<!-- &#45;13 -->
<g id="node13" class="node"><title>&#45;13</title>
<polygon fill="lightgray" stroke="black" points="466.927,-119.246 437.927,-119.246 437.927,-101.246 466.927,-101.246 466.927,-119.246"/>
<text text-anchor="middle" x="452.427" y="-108.046" font-family="Times,serif" font-size="9.00">&#45;13</text>
</g>
<!-- &#45;13&#45;&gt;0 -->
<g id="edge57" class="edge"><title>&#45;13&#45;&gt;0</title>
<path fill="none" stroke="green" stroke-width="0.987476" d="M459.238,-100.8C463.678,-95.7643 469.853,-89.5777 476.427,-85.4975 525.123,-55.2754 591.041,-38.0658 626.113,-30.4751"/>
<polygon fill="green" stroke="green" stroke-width="0.987476" points="626.879,-33.8909 635.954,-28.4244 625.451,-27.0381 626.879,-33.8909"/>
</g>
<!-- &#45;13&#45;&gt;1 -->
<g id="edge43" class="edge"><title>&#45;13&#45;&gt;1</title>
<path fill="none" stroke="red" stroke-width="0.74584" d="M444.957,-101.13C440.551,-96.4451 434.801,-90.5079 429.427,-85.4975 412.487,-69.7001 392.179,-52.8003 377.63,-41.0196"/>
<polygon fill="red" stroke="red" stroke-width="0.74584" points="379.784,-38.261 369.798,-34.7219 375.398,-43.7161 379.784,-38.261"/>
</g>
<!-- &#45;14 -->
<g id="node14" class="node"><title>&#45;14</title>
<polygon fill="lightgray" stroke="black" points="1049.93,-119.246 1020.93,-119.246 1020.93,-101.246 1049.93,-101.246 1049.93,-119.246"/>
<text text-anchor="middle" x="1035.43" y="-108.046" font-family="Times,serif" font-size="9.00">&#45;14</text>
</g>
<!-- &#45;14&#45;&gt;1 -->
<g id="edge60" class="edge"><title>&#45;14&#45;&gt;1</title>
<path fill="none" stroke="red" stroke-width="0.165575" stroke-dasharray="1,5" d="M1020.64,-105.097C1001.23,-99.7981 966.038,-90.6945 935.427,-85.4975 826.43,-66.992 479.98,-36.2804 383.551,-27.9114"/>
<polygon fill="red" stroke="red" stroke-width="0.165575" points="383.567,-24.3999 373.303,-27.0246 382.964,-31.3738 383.567,-24.3999"/>
</g>
<!-- &#45;14&#45;&gt;2 -->
<g id="edge18" class="edge"><title>&#45;14&#45;&gt;2</title>
<path fill="none" stroke="green" stroke-width="0.832545" d="M1031.3,-101.24C1024.95,-88.9106 1012.57,-64.8535 1003.47,-47.1981"/>
<polygon fill="green" stroke="green" stroke-width="0.832545" points="1006.51,-45.4511 998.821,-38.1632 1000.29,-48.656 1006.51,-45.4511"/>
</g>
<!-- &#45;14&#45;&gt;3 -->
<g id="edge33" class="edge"><title>&#45;14&#45;&gt;3</title>
<path fill="none" stroke="green" stroke-width="0.103536" d="M1041.76,-101.126C1046.19,-95.9577 1052.54,-89.5056 1059.43,-85.4975 1121.45,-49.4253 1206.37,-34.1827 1247.75,-28.5782"/>
<polygon fill="green" stroke="green" stroke-width="0.103536" points="1248.28,-32.0394 1257.75,-27.2987 1247.39,-25.096 1248.28,-32.0394"/>
</g>
<!-- &#45;15 -->
<g id="node15" class="node"><title>&#45;15</title>
<polygon fill="lightgray" stroke="black" points="169.927,-188.995 140.927,-188.995 140.927,-170.995 169.927,-170.995 169.927,-188.995"/>
<text text-anchor="middle" x="155.427" y="-177.795" font-family="Times,serif" font-size="9.00">&#45;15</text>
</g>
<!-- &#45;15&#45;&gt;1 -->
<g id="edge7" class="edge"><title>&#45;15&#45;&gt;1</title>
<path fill="none" stroke="green" stroke-width="0.291" d="M143.893,-170.732C133.958,-162.84 120.318,-149.957 114.427,-134.995 106.369,-114.525 100.847,-102.804 114.427,-85.4975 141.497,-50.9991 276.598,-33.8315 333.305,-28.0544"/>
<polygon fill="green" stroke="green" stroke-width="0.291" points="333.936,-31.5094 343.546,-27.049 333.252,-24.5428 333.936,-31.5094"/>
</g>
<!-- 4550 -->
<g id="node31" class="node"><title>4550</title>
<ellipse fill="white" stroke="black" cx="215.427" cy="-110.246" rx="25" ry="25"/>
<text text-anchor="middle" x="215.427" y="-108.046" font-family="Times,serif" font-size="9.00">4550</text>
</g>
<!-- &#45;15&#45;&gt;4550 -->
<g id="edge59" class="edge"><title>&#45;15&#45;&gt;4550</title>
<path fill="none" stroke="green" stroke-width="0.299885" d="M162.546,-170.957C169.93,-162.619 181.869,-149.139 192.535,-137.095"/>
<polygon fill="green" stroke="green" stroke-width="0.299885" points="195.291,-139.263 199.3,-129.456 190.05,-134.622 195.291,-139.263"/>
</g>
<!-- &#45;16 -->
<g id="node16" class="node"><title>&#45;16</title>
<polygon fill="lightgray" stroke="black" points="513.927,-119.246 484.927,-119.246 484.927,-101.246 513.927,-101.246 513.927,-119.246"/>
<text text-anchor="middle" x="499.427" y="-108.046" font-family="Times,serif" font-size="9.00">&#45;16</text>
</g>
<!-- &#45;16&#45;&gt;0 -->
<g id="edge25" class="edge"><title>&#45;16&#45;&gt;0</title>
<path fill="none" stroke="green" stroke-width="0.292601" d="M508.16,-101.195C513.715,-96.3076 521.199,-90.1386 528.427,-85.4975 561.045,-64.5545 602.067,-45.8755 627.257,-35.1859"/>
<polygon fill="green" stroke="green" stroke-width="0.292601" points="628.827,-38.323 636.704,-31.2374 626.128,-31.8644 628.827,-38.323"/>
</g>
<!-- &#45;16&#45;&gt;1 -->
<g id="edge38" class="edge"><title>&#45;16&#45;&gt;1</title>
<path fill="none" stroke="red" stroke-width="0.272432" d="M492.759,-101.092C488.451,-96.1656 482.527,-89.992 476.427,-85.4975 446.045,-63.1089 406.037,-44.8405 381.286,-34.6301"/>
<polygon fill="red" stroke="red" stroke-width="0.272432" points="382.573,-31.3751 371.99,-30.8789 379.953,-37.8666 382.573,-31.3751"/>
</g>
<!-- &#45;17 -->
<g id="node17" class="node"><title>&#45;17</title>
<polygon fill="lightgray" stroke="black" points="372.927,-119.246 343.927,-119.246 343.927,-101.246 372.927,-101.246 372.927,-119.246"/>
<text text-anchor="middle" x="358.427" y="-108.046" font-family="Times,serif" font-size="9.00">&#45;17</text>
</g>
<!-- &#45;17&#45;&gt;0 -->
<g id="edge5" class="edge"><title>&#45;17&#45;&gt;0</title>
<path fill="none" stroke="green" stroke-width="0.3768" stroke-dasharray="1,5" d="M364.36,-100.996C368.549,-95.7725 374.615,-89.3081 381.427,-85.4975 462.553,-40.1201 575.497,-29.2055 625.223,-26.5802"/>
<polygon fill="green" stroke="green" stroke-width="0.3768" points="625.55,-30.069 635.379,-26.1154 625.23,-23.0763 625.55,-30.069"/>
</g>
<!-- &#45;17&#45;&gt;1 -->
<g id="edge10" class="edge"><title>&#45;17&#45;&gt;1</title>
<path fill="none" stroke="green" stroke-width="0.246941" d="M358.427,-101.24C358.427,-89.4769 358.427,-67.0389 358.427,-49.6698"/>
<polygon fill="green" stroke="green" stroke-width="0.246941" points="361.928,-49.6509 358.427,-39.6509 354.928,-49.6509 361.928,-49.6509"/>
</g>
<!-- &#45;18 -->
<g id="node18" class="node"><title>&#45;18</title>
<polygon fill="lightgray" stroke="black" points="1179.93,-188.995 1150.93,-188.995 1150.93,-170.995 1179.93,-170.995 1179.93,-188.995"/>
<text text-anchor="middle" x="1165.43" y="-177.795" font-family="Times,serif" font-size="9.00">&#45;18</text>
</g>
<!-- &#45;18&#45;&gt;0 -->
<g id="edge56" class="edge"><title>&#45;18&#45;&gt;0</title>
<path fill="none" stroke="red" stroke-width="0.239679" stroke-dasharray="1,5" d="M1150.54,-177.927C1082.78,-172.984 805.287,-151.864 770.427,-134.995 742.563,-121.511 744.182,-106.484 721.427,-85.4975 704.4,-69.7932 684.103,-52.8819 669.58,-41.0733"/>
<polygon fill="red" stroke="red" stroke-width="0.239679" points="671.742,-38.3209 661.765,-34.7579 667.343,-43.7654 671.742,-38.3209"/>
</g>
<!-- &#45;18&#45;&gt;2 -->
<g id="edge29" class="edge"><title>&#45;18&#45;&gt;2</title>
<path fill="none" stroke="green" stroke-width="0.779623" d="M1169.38,-170.797C1177.21,-153.273 1192.33,-111.638 1173.43,-85.4975 1137.38,-35.631 1058.2,-26.6833 1017.57,-25.5203"/>
<polygon fill="green" stroke="green" stroke-width="0.779623" points="1017.48,-22.0187 1007.43,-25.3712 1017.38,-29.0179 1017.48,-22.0187"/>
</g>
<!-- &#45;18&#45;&gt;3 -->
<g id="edge41" class="edge"><title>&#45;18&#45;&gt;3</title>
<path fill="none" stroke="red" stroke-width="0.607955" stroke-dasharray="1,5" d="M1180.07,-177.965C1221.3,-174.732 1336.85,-163.263 1359.43,-134.995 1373.16,-117.805 1369.67,-104.964 1359.43,-85.4975 1346.15,-60.2768 1316.89,-43.6462 1295.97,-34.4781"/>
<polygon fill="red" stroke="red" stroke-width="0.607955" points="1297.06,-31.1404 1286.48,-30.5719 1294.39,-37.6138 1297.06,-31.1404"/>
</g>
<!-- 8664 -->
<g id="node34" class="node"><title>8664</title>
<ellipse fill="white" stroke="black" cx="1139.43" cy="-110.246" rx="25" ry="25"/>
<text text-anchor="middle" x="1139.43" y="-108.046" font-family="Times,serif" font-size="9.00">8664</text>
</g>
<!-- &#45;18&#45;&gt;8664 -->
<g id="edge52" class="edge"><title>&#45;18&#45;&gt;8664</title>
<path fill="none" stroke="green" stroke-width="0.150303" d="M1162.34,-170.957C1159.64,-163.926 1155.54,-153.239 1151.55,-142.84"/>
<polygon fill="green" stroke="green" stroke-width="0.150303" points="1154.81,-141.566 1147.96,-133.484 1148.28,-144.074 1154.81,-141.566"/>
</g>
<!-- &#45;19 -->
<g id="node19" class="node"><title>&#45;19</title>
<polygon fill="lightgray" stroke="black" points="599.927,-119.246 570.927,-119.246 570.927,-101.246 599.927,-101.246 599.927,-119.246"/>
<text text-anchor="middle" x="585.427" y="-108.046" font-family="Times,serif" font-size="9.00">&#45;19</text>
</g>
<!-- &#45;19&#45;&gt;0 -->
<g id="edge45" class="edge"><title>&#45;19&#45;&gt;0</title>
<path fill="none" stroke="red" stroke-width="0.372907" d="M591.66,-101.24C601.654,-88.4016 621.547,-62.8475 635.405,-45.0457"/>
<polygon fill="red" stroke="red" stroke-width="0.372907" points="638.273,-47.06 641.654,-37.0191 632.749,-42.76 638.273,-47.06"/>
</g>
<!-- &#45;19&#45;&gt;1 -->
<g id="edge32" class="edge"><title>&#45;19&#45;&gt;1</title>
<path fill="none" stroke="red" stroke-width="0.535077" d="M570.924,-103.604C558.377,-98.7444 539.737,-91.5737 523.427,-85.4975 473.154,-66.7684 413.972,-45.5348 381.925,-34.1041"/>
<polygon fill="red" stroke="red" stroke-width="0.535077" points="382.743,-30.6804 372.149,-30.6212 380.394,-37.2744 382.743,-30.6804"/>
</g>
<!-- &#45;19&#45;&gt;2 -->
<g id="edge15" class="edge"><title>&#45;19&#45;&gt;2</title>
<path fill="none" stroke="red" stroke-width="0.126346" stroke-dasharray="1,5" d="M591.613,-100.852C595.982,-95.5677 602.311,-89.0897 609.427,-85.4975 672.858,-53.4807 892.229,-33.6305 967.131,-27.659"/>
<polygon fill="red" stroke="red" stroke-width="0.126346" points="967.787,-31.1185 977.483,-26.8493 967.241,-24.1398 967.787,-31.1185"/>
</g>
<!-- &#45;20 -->
<g id="node20" class="node"><title>&#45;20</title>
<polygon fill="lightgray" stroke="black" points="869.927,-188.995 840.927,-188.995 840.927,-170.995 869.927,-170.995 869.927,-188.995"/>
<text text-anchor="middle" x="855.427" y="-177.795" font-family="Times,serif" font-size="9.00">&#45;20</text>
</g>
<!-- &#45;20&#45;&gt;2 -->
<g id="edge2" class="edge"><title>&#45;20&#45;&gt;2</title>
<path fill="none" stroke="green" stroke-width="0.517935" d="M870.051,-177.647C894.333,-174.596 942.829,-164.905 968.427,-134.995 988.793,-111.198 993.023,-74.0196 993.365,-49.769"/>
<polygon fill="green" stroke="green" stroke-width="0.517935" points="996.864,-49.6058 993.293,-39.631 989.865,-49.6557 996.864,-49.6058"/>
</g>
<!-- &#45;20&#45;&gt;4550 -->
<g id="edge37" class="edge"><title>&#45;20&#45;&gt;4550</title>
<path fill="none" stroke="green" stroke-width="0.333342" stroke-dasharray="1,5" d="M840.894,-178.166C751.327,-173.032 277.2,-145.435 248.427,-134.995 246.536,-134.309 244.657,-133.481 242.811,-132.552"/>
<polygon fill="green" stroke="green" stroke-width="0.333342" points="244.327,-129.38 233.95,-127.245 240.73,-135.385 244.327,-129.38"/>
</g>
<!-- &#45;21 -->
<g id="node21" class="node"><title>&#45;21</title>
<polygon fill="lightgray" stroke="black" points="684.927,-188.995 655.927,-188.995 655.927,-170.995 684.927,-170.995 684.927,-188.995"/>
<text text-anchor="middle" x="670.427" y="-177.795" font-family="Times,serif" font-size="9.00">&#45;21</text>
</g>
<!-- &#45;21&#45;&gt;0 -->
<g id="edge23" class="edge"><title>&#45;21&#45;&gt;0</title>
<path fill="none" stroke="green" stroke-width="2.4316" d="M669.352,-170.756C666.409,-148.204 658.137,-84.8218 653.564,-49.7839"/>
<polygon fill="green" stroke="green" stroke-width="2.4316" points="656.986,-48.9546 652.221,-39.4916 650.045,-49.8605 656.986,-48.9546"/>
</g>
<!-- &#45;21&#45;&gt;2 -->
<g id="edge49" class="edge"><title>&#45;21&#45;&gt;2</title>
<path fill="none" stroke="green" stroke-width="0.274945" d="M685.171,-178.254C734.769,-175.506 894.741,-164.487 935.427,-134.995 950.612,-123.989 971.733,-76.8157 983.537,-48.1781"/>
<polygon fill="green" stroke="green" stroke-width="0.274945" points="986.781,-49.4935 987.299,-38.9113 980.295,-46.8606 986.781,-49.4935"/>
</g>
<!-- &#45;21&#45;&gt;4550 -->
<g id="edge11" class="edge"><title>&#45;21&#45;&gt;4550</title>
<path fill="none" stroke="red" stroke-width="0.384947" stroke-dasharray="1,5" d="M655.909,-178.481C590.796,-176.022 325.527,-164.354 248.427,-134.995 246.547,-134.279 244.677,-133.428 242.837,-132.481"/>
<polygon fill="red" stroke="red" stroke-width="0.384947" points="244.361,-129.312 233.993,-127.127 240.735,-135.3 244.361,-129.312"/>
</g>
<!-- &#45;22 -->
<g id="node22" class="node"><title>&#45;22</title>
<polygon fill="lightgray" stroke="black" points="925.927,-119.246 896.927,-119.246 896.927,-101.246 925.927,-101.246 925.927,-119.246"/>
<text text-anchor="middle" x="911.427" y="-108.046" font-family="Times,serif" font-size="9.00">&#45;22</text>
</g>
<!-- &#45;22&#45;&gt;1 -->
<g id="edge26" class="edge"><title>&#45;22&#45;&gt;1</title>
<path fill="none" stroke="red" stroke-width="0.335237" d="M905.67,-101.219C901.314,-95.8102 894.83,-89.0397 887.427,-85.4975 864.349,-74.4546 485.357,-37.8077 383.474,-28.1166"/>
<polygon fill="red" stroke="red" stroke-width="0.335237" points="383.504,-24.6038 373.218,-27.1432 382.842,-31.5725 383.504,-24.6038"/>
</g>
<!-- &#45;22&#45;&gt;2 -->
<g id="edge46" class="edge"><title>&#45;22&#45;&gt;2</title>
<path fill="none" stroke="red" stroke-width="0.385197" stroke-dasharray="1,5" d="M919.194,-101.24C932.036,-88.0017 957.995,-61.2432 975.299,-43.4054"/>
<polygon fill="red" stroke="red" stroke-width="0.385197" points="978.112,-45.5327 982.562,-35.918 973.087,-40.6586 978.112,-45.5327"/>
</g>
<!-- &#45;22&#45;&gt;3 -->
<g id="edge48" class="edge"><title>&#45;22&#45;&gt;3</title>
<path fill="none" stroke="red" stroke-width="0.176134" d="M926.141,-105.762C945.8,-101.112 981.723,-92.6351 1012.43,-85.4975 1099.09,-65.3516 1202.09,-41.7967 1248.11,-31.2927"/>
<polygon fill="red" stroke="red" stroke-width="0.176134" points="1249.08,-34.6634 1258.05,-29.0266 1247.52,-27.8388 1249.08,-34.6634"/>
</g>
<!-- &#45;23 -->
<g id="node23" class="node"><title>&#45;23</title>
<polygon fill="lightgray" stroke="black" points="1562.93,-188.995 1533.93,-188.995 1533.93,-170.995 1562.93,-170.995 1562.93,-188.995"/>
<text text-anchor="middle" x="1548.43" y="-177.795" font-family="Times,serif" font-size="9.00">&#45;23</text>
</g>
<!-- &#45;24 -->
<g id="node24" class="node"><title>&#45;24</title>
<polygon fill="lightgray" stroke="black" points="419.927,-119.246 390.927,-119.246 390.927,-101.246 419.927,-101.246 419.927,-119.246"/>
<text text-anchor="middle" x="405.427" y="-108.046" font-family="Times,serif" font-size="9.00">&#45;24</text>
</g>
<!-- &#45;24&#45;&gt;0 -->
<g id="edge50" class="edge"><title>&#45;24&#45;&gt;0</title>
<path fill="none" stroke="green" stroke-width="1.44923" d="M411.749,-101.104C416.176,-95.9271 422.517,-89.4731 429.427,-85.4975 494.237,-48.2098 583.139,-33.4591 625.726,-28.2584"/>
<polygon fill="green" stroke="green" stroke-width="1.44923" points="626.212,-31.7257 635.748,-27.1088 625.414,-24.7713 626.212,-31.7257"/>
</g>
<!-- &#45;24&#45;&gt;1 -->
<g id="edge4" class="edge"><title>&#45;24&#45;&gt;1</title>
<path fill="none" stroke="green" stroke-width="0.48254" stroke-dasharray="1,5" d="M400.921,-101.24C393.981,-88.9106 380.439,-64.8535 370.501,-47.1981"/>
<polygon fill="green" stroke="green" stroke-width="0.48254" points="373.371,-45.1607 365.415,-38.1632 367.271,-48.5944 373.371,-45.1607"/>
</g>
<!-- 1&#45;&gt;1 -->
<g id="edge30" class="edge"><title>1&#45;&gt;1</title>
<path fill="none" stroke="green" stroke-width="0.612865" d="M367.843,-36.3113C378.7,-44.517 391.277,-40.6628 391.277,-24.7487 391.277,-13.3105 384.78,-8.10242 377.094,-9.12449"/>
<polygon fill="green" stroke="green" stroke-width="0.612865" points="375.592,-5.96114 367.843,-13.1862 378.407,-12.3705 375.592,-5.96114"/>
</g>
<!-- 2&#45;&gt;2 -->
<g id="edge27" class="edge"><title>2&#45;&gt;2</title>
<path fill="none" stroke="red" stroke-width="0.374445" d="M1001.84,-36.3113C1012.7,-44.517 1025.28,-40.6628 1025.28,-24.7487 1025.28,-13.3105 1018.78,-8.10242 1011.09,-9.12449"/>
<polygon fill="red" stroke="red" stroke-width="0.374445" points="1009.59,-5.96114 1001.84,-13.1862 1012.41,-12.3705 1009.59,-5.96114"/>
</g>
<!-- 3&#45;&gt;3 -->
<g id="edge16" class="edge"><title>3&#45;&gt;3</title>
<path fill="none" stroke="red" stroke-width="0.289852" d="M1281.84,-36.3113C1292.7,-44.517 1305.28,-40.6628 1305.28,-24.7487 1305.28,-13.3105 1298.78,-8.10242 1291.09,-9.12449"/>
<polygon fill="red" stroke="red" stroke-width="0.289852" points="1289.59,-5.96114 1281.84,-13.1862 1292.41,-12.3705 1289.59,-5.96114"/>
</g>
<!-- 8512&#45;&gt;3 -->
<g id="edge42" class="edge"><title>8512&#45;&gt;3</title>
<path fill="none" stroke="red" stroke-width="0.423582" d="M1312.6,-89.0338C1304.41,-76.1397 1293.83,-59.4713 1285.59,-46.4781"/>
<polygon fill="red" stroke="red" stroke-width="0.423582" points="1288.37,-44.3401 1280.06,-37.773 1282.46,-48.0915 1288.37,-44.3401"/>
</g>
<!-- 7843&#45;&gt;3 -->
<g id="edge12" class="edge"><title>7843&#45;&gt;3</title>
<path fill="none" stroke="red" stroke-width="0.106592" stroke-dasharray="1,5" d="M1492.32,-94.2866C1487.63,-91.0757 1482.49,-87.9234 1477.43,-85.4975 1415.69,-55.931 1336.37,-37.9327 1296.94,-30.1961"/>
<polygon fill="red" stroke="red" stroke-width="0.106592" points="1297.41,-26.7216 1286.93,-28.285 1296.1,-33.5975 1297.41,-26.7216"/>
</g>
<!-- 4550&#45;&gt;1 -->
<g id="edge19" class="edge"><title>4550&#45;&gt;1</title>
<path fill="none" stroke="red" stroke-width="0.19073" stroke-dasharray="1,5" d="M235.042,-94.5151C239.38,-91.4313 244.004,-88.2751 248.427,-85.4975 277.927,-66.9742 313.607,-48.2242 336.165,-36.7926"/>
<polygon fill="red" stroke="red" stroke-width="0.19073" points="337.892,-39.8416 345.255,-32.2227 334.748,-33.5875 337.892,-39.8416"/>
</g>
<!-- 7386&#45;&gt;1 -->
<g id="edge17" class="edge"><title>7386&#45;&gt;1</title>
<path fill="none" stroke="green" stroke-width="0.379109" d="M62.3994,-95.3276C68.315,-91.6974 74.9482,-88.0832 81.4274,-85.4975 170.21,-50.067 283.795,-33.9998 333.387,-28.3133"/>
<polygon fill="green" stroke="green" stroke-width="0.379109" points="333.946,-31.7729 343.502,-27.1973 333.179,-24.8151 333.946,-31.7729"/>
</g>
<!-- 6800 -->
<g id="node33" class="node"><title>6800</title>
<ellipse fill="white" stroke="black" cx="148.427" cy="-110.246" rx="25" ry="25"/>
<text text-anchor="middle" x="148.427" y="-108.046" font-family="Times,serif" font-size="9.00">6800</text>
</g>
<!-- 6800&#45;&gt;1 -->
<g id="edge54" class="edge"><title>6800&#45;&gt;1</title>
<path fill="none" stroke="green" stroke-width="0.477007" d="M167.352,-94.1704C171.809,-91.0385 176.656,-87.9493 181.427,-85.4975 233.19,-58.8988 299.349,-40.2331 334.292,-31.4474"/>
<polygon fill="green" stroke="green" stroke-width="0.477007" points="335.208,-34.8264 344.083,-29.0401 333.537,-28.0288 335.208,-34.8264"/>
</g>
<!-- 8664&#45;&gt;2 -->
<g id="edge8" class="edge"><title>8664&#45;&gt;2</title>
<path fill="none" stroke="green" stroke-width="0.229959" d="M1119.84,-94.4652C1115.5,-91.3845 1110.87,-88.2422 1106.43,-85.4975 1075.65,-66.4903 1038.22,-47.6309 1014.85,-36.3322"/>
<polygon fill="green" stroke="green" stroke-width="0.229959" points="1016.28,-33.1398 1005.75,-31.9744 1013.26,-39.4524 1016.28,-33.1398"/>
</g>
</g>
</svg>
