<?xml version="1.0" encoding="UTF-8" standalone="no"?>
<!DOCTYPE svg PUBLIC "-//W3C//DTD SVG 1.1//EN"
 "http://www.w3.org/Graphics/SVG/1.1/DTD/svg11.dtd">
<!-- Generated by graphviz version 2.38.0 (20140413.2041)
 -->
<!-- Title: %3 Pages: 1 -->
<svg width="1768pt" height="513pt"
 viewBox="0.00 0.00 1768.25 513.27" xmlns="http://www.w3.org/2000/svg" xmlns:xlink="http://www.w3.org/1999/xlink">
<g id="graph0" class="graph" transform="scale(1 1) rotate(0) translate(4 509.269)">
<title>%3</title>
<polygon fill="white" stroke="none" points="-4,4 -4,-509.269 1764.25,-509.269 1764.25,4 -4,4"/>
<!-- &#45;1 -->
<g id="node1" class="node"><title>&#45;1</title>
<polygon fill="lightgray" stroke="black" points="316.5,-486.692 292.5,-486.692 292.5,-468.692 316.5,-468.692 316.5,-486.692"/>
<text text-anchor="middle" x="304.5" y="-475.492" font-family="Times,serif" font-size="9.00">&#45;1</text>
</g>
<!-- &#45;2 -->
<g id="node2" class="node"><title>&#45;2</title>
<polygon fill="lightgray" stroke="black" points="147.5,-213.229 123.5,-213.229 123.5,-195.229 147.5,-195.229 147.5,-213.229"/>
<text text-anchor="middle" x="135.5" y="-202.029" font-family="Times,serif" font-size="9.00">&#45;2</text>
</g>
<!-- 3 -->
<g id="node28" class="node"><title>3</title>
<ellipse fill="lightblue" stroke="black" cx="61.5" cy="-113.075" rx="14.7" ry="14.7"/>
<text text-anchor="middle" x="61.5" y="-110.875" font-family="Times,serif" font-size="9.00">3</text>
</g>
<!-- &#45;2&#45;&gt;3 -->
<g id="edge28" class="edge"><title>&#45;2&#45;&gt;3</title>
<path fill="none" stroke="red" stroke-width="0.712511" d="M128.671,-195.001C117.014,-180.957 92.9954,-152.02 77.0663,-132.829"/>
<polygon fill="red" stroke="red" stroke-width="0.712511" points="79.6724,-130.488 70.5924,-125.029 74.286,-134.959 79.6724,-130.488"/>
</g>
<!-- 5890 -->
<g id="node29" class="node"><title>5890</title>
<ellipse fill="white" stroke="black" cx="119.5" cy="-113.075" rx="25" ry="25"/>
<text text-anchor="middle" x="119.5" y="-110.875" font-family="Times,serif" font-size="9.00">5890</text>
</g>
<!-- &#45;2&#45;&gt;5890 -->
<g id="edge18" class="edge"><title>&#45;2&#45;&gt;5890</title>
<path fill="none" stroke="red" stroke-width="0.233522" d="M134.023,-195.001C132.101,-184.292 128.625,-164.922 125.556,-147.817"/>
<polygon fill="red" stroke="red" stroke-width="0.233522" points="128.926,-146.782 123.714,-137.557 122.036,-148.018 128.926,-146.782"/>
</g>
<!-- 2968 -->
<g id="node34" class="node"><title>2968</title>
<ellipse fill="white" stroke="black" cx="259.5" cy="-113.075" rx="25" ry="25"/>
<text text-anchor="middle" x="259.5" y="-110.875" font-family="Times,serif" font-size="9.00">2968</text>
</g>
<!-- &#45;2&#45;&gt;2968 -->
<g id="edge8" class="edge"><title>&#45;2&#45;&gt;2968</title>
<path fill="none" stroke="green" stroke-width="0.581662" d="M146.438,-195.22C153.766,-189.892 163.656,-182.774 172.5,-176.652 196.217,-160.235 203.244,-157.715 226.5,-140.652 228.576,-139.129 230.701,-137.525 232.823,-135.892"/>
<polygon fill="green" stroke="green" stroke-width="0.581662" points="235.187,-138.485 240.882,-129.551 230.858,-132.984 235.187,-138.485"/>
</g>
<!-- 10445 -->
<g id="node44" class="node"><title>10445</title>
<ellipse fill="white" stroke="black" cx="189.5" cy="-113.075" rx="27.6545" ry="27.6545"/>
<text text-anchor="middle" x="189.5" y="-110.875" font-family="Times,serif" font-size="9.00">10445</text>
</g>
<!-- &#45;2&#45;&gt;10445 -->
<g id="edge32" class="edge"><title>&#45;2&#45;&gt;10445</title>
<path fill="none" stroke="green" stroke-width="0.125935" d="M140.483,-195.001C147.198,-183.915 159.534,-163.549 170.15,-146.022"/>
<polygon fill="green" stroke="green" stroke-width="0.125935" points="173.319,-147.546 175.506,-137.179 167.331,-143.919 173.319,-147.546"/>
</g>
<!-- &#45;3 -->
<g id="node3" class="node"><title>&#45;3</title>
<polygon fill="lightgray" stroke="black" points="627.5,-395.538 603.5,-395.538 603.5,-377.538 627.5,-377.538 627.5,-395.538"/>
<text text-anchor="middle" x="615.5" y="-384.338" font-family="Times,serif" font-size="9.00">&#45;3</text>
</g>
<!-- 2005 -->
<g id="node46" class="node"><title>2005</title>
<ellipse fill="white" stroke="black" cx="660.5" cy="-295.383" rx="25" ry="25"/>
<text text-anchor="middle" x="660.5" y="-293.183" font-family="Times,serif" font-size="9.00">2005</text>
</g>
<!-- &#45;3&#45;&gt;2005 -->
<g id="edge34" class="edge"><title>&#45;3&#45;&gt;2005</title>
<path fill="none" stroke="green" stroke-width="0.658214" d="M619.653,-377.31C625.397,-365.93 636.076,-344.772 645.075,-326.944"/>
<polygon fill="green" stroke="green" stroke-width="0.658214" points="648.211,-328.498 649.592,-317.994 641.962,-325.344 648.211,-328.498"/>
</g>
<!-- &#45;4 -->
<g id="node4" class="node"><title>&#45;4</title>
<polygon fill="lightgray" stroke="black" points="790.5,-486.692 766.5,-486.692 766.5,-468.692 790.5,-468.692 790.5,-486.692"/>
<text text-anchor="middle" x="778.5" y="-475.492" font-family="Times,serif" font-size="9.00">&#45;4</text>
</g>
<!-- &#45;5 -->
<g id="node5" class="node"><title>&#45;5</title>
<polygon fill="lightgray" stroke="black" points="847.5,-486.692 823.5,-486.692 823.5,-468.692 847.5,-468.692 847.5,-486.692"/>
<text text-anchor="middle" x="835.5" y="-475.492" font-family="Times,serif" font-size="9.00">&#45;5</text>
</g>
<!-- 2 -->
<g id="node27" class="node"><title>2</title>
<ellipse fill="lightblue" stroke="black" cx="775.5" cy="-386.538" rx="14.7" ry="14.7"/>
<text text-anchor="middle" x="775.5" y="-384.338" font-family="Times,serif" font-size="9.00">2</text>
</g>
<!-- &#45;5&#45;&gt;2 -->
<g id="edge37" class="edge"><title>&#45;5&#45;&gt;2</title>
<path fill="none" stroke="red" stroke-width="0.994924" d="M829.963,-468.464C820.747,-454.77 801.999,-426.913 789.097,-407.741"/>
<polygon fill="red" stroke="red" stroke-width="0.994924" points="791.955,-405.719 783.468,-399.377 786.147,-409.627 791.955,-405.719"/>
</g>
<!-- 13404 -->
<g id="node48" class="node"><title>13404</title>
<ellipse fill="white" stroke="black" cx="835.5" cy="-386.538" rx="27.6545" ry="27.6545"/>
<text text-anchor="middle" x="835.5" y="-384.338" font-family="Times,serif" font-size="9.00">13404</text>
</g>
<!-- &#45;5&#45;&gt;13404 -->
<g id="edge23" class="edge"><title>&#45;5&#45;&gt;13404</title>
<path fill="none" stroke="green" stroke-width="0.51611" d="M835.5,-468.464C835.5,-458.492 835.5,-441.011 835.5,-424.842"/>
<polygon fill="green" stroke="green" stroke-width="0.51611" points="839,-424.499 835.5,-414.499 832,-424.499 839,-424.499"/>
</g>
<!-- 2796 -->
<g id="node52" class="node"><title>2796</title>
<ellipse fill="white" stroke="black" cx="934.5" cy="-295.383" rx="25" ry="25"/>
<text text-anchor="middle" x="934.5" y="-293.183" font-family="Times,serif" font-size="9.00">2796</text>
</g>
<!-- &#45;5&#45;&gt;2796 -->
<g id="edge12" class="edge"><title>&#45;5&#45;&gt;2796</title>
<path fill="none" stroke="red" stroke-width="0.234725" d="M840.418,-468.665C847.631,-456.829 861.423,-433.949 872.5,-414.115 888.908,-384.737 906.717,-350.674 919.02,-326.769"/>
<polygon fill="red" stroke="red" stroke-width="0.234725" points="922.16,-328.316 923.612,-317.821 915.932,-325.12 922.16,-328.316"/>
</g>
<!-- &#45;6 -->
<g id="node6" class="node"><title>&#45;6</title>
<polygon fill="lightgray" stroke="black" points="1137.5,-486.692 1113.5,-486.692 1113.5,-468.692 1137.5,-468.692 1137.5,-486.692"/>
<text text-anchor="middle" x="1125.5" y="-475.492" font-family="Times,serif" font-size="9.00">&#45;6</text>
</g>
<!-- &#45;7 -->
<g id="node7" class="node"><title>&#45;7</title>
<polygon fill="lightgray" stroke="black" points="1179.5,-486.692 1155.5,-486.692 1155.5,-468.692 1179.5,-468.692 1179.5,-486.692"/>
<text text-anchor="middle" x="1167.5" y="-475.492" font-family="Times,serif" font-size="9.00">&#45;7</text>
</g>
<!-- &#45;8 -->
<g id="node8" class="node"><title>&#45;8</title>
<polygon fill="lightgray" stroke="black" points="1221.5,-486.692 1197.5,-486.692 1197.5,-468.692 1221.5,-468.692 1221.5,-486.692"/>
<text text-anchor="middle" x="1209.5" y="-475.492" font-family="Times,serif" font-size="9.00">&#45;8</text>
</g>
<!-- 10719 -->
<g id="node49" class="node"><title>10719</title>
<ellipse fill="white" stroke="black" cx="1209.5" cy="-386.538" rx="27.6545" ry="27.6545"/>
<text text-anchor="middle" x="1209.5" y="-384.338" font-family="Times,serif" font-size="9.00">10719</text>
</g>
<!-- &#45;8&#45;&gt;10719 -->
<g id="edge30" class="edge"><title>&#45;8&#45;&gt;10719</title>
<path fill="none" stroke="green" stroke-width="0.301603" d="M1209.5,-468.464C1209.5,-458.492 1209.5,-441.011 1209.5,-424.842"/>
<polygon fill="green" stroke="green" stroke-width="0.301603" points="1213,-424.499 1209.5,-414.499 1206,-424.499 1213,-424.499"/>
</g>
<!-- &#45;9 -->
<g id="node9" class="node"><title>&#45;9</title>
<polygon fill="lightgray" stroke="black" points="300.5,-395.538 276.5,-395.538 276.5,-377.538 300.5,-377.538 300.5,-395.538"/>
<text text-anchor="middle" x="288.5" y="-384.338" font-family="Times,serif" font-size="9.00">&#45;9</text>
</g>
<!-- 5233 -->
<g id="node53" class="node"><title>5233</title>
<ellipse fill="white" stroke="black" cx="288.5" cy="-295.383" rx="25" ry="25"/>
<text text-anchor="middle" x="288.5" y="-293.183" font-family="Times,serif" font-size="9.00">5233</text>
</g>
<!-- &#45;9&#45;&gt;5233 -->
<g id="edge10" class="edge"><title>&#45;9&#45;&gt;5233</title>
<path fill="none" stroke="green" stroke-width="0.415465" d="M288.5,-377.31C288.5,-366.672 288.5,-347.488 288.5,-330.468"/>
<polygon fill="green" stroke="green" stroke-width="0.415465" points="292,-330.246 288.5,-320.246 285,-330.246 292,-330.246"/>
</g>
<!-- &#45;10 -->
<g id="node10" class="node"><title>&#45;10</title>
<polygon fill="lightgray" stroke="black" points="675,-395.538 646,-395.538 646,-377.538 675,-377.538 675,-395.538"/>
<text text-anchor="middle" x="660.5" y="-384.338" font-family="Times,serif" font-size="9.00">&#45;10</text>
</g>
<!-- &#45;10&#45;&gt;2005 -->
<g id="edge24" class="edge"><title>&#45;10&#45;&gt;2005</title>
<path fill="none" stroke="red" stroke-width="0.298335" d="M660.5,-377.31C660.5,-366.672 660.5,-347.488 660.5,-330.468"/>
<polygon fill="red" stroke="red" stroke-width="0.298335" points="664,-330.246 660.5,-320.246 657,-330.246 664,-330.246"/>
</g>
<!-- &#45;11 -->
<g id="node11" class="node"><title>&#45;11</title>
<polygon fill="lightgray" stroke="black" points="732,-486.692 703,-486.692 703,-468.692 732,-468.692 732,-486.692"/>
<text text-anchor="middle" x="717.5" y="-475.492" font-family="Times,serif" font-size="9.00">&#45;11</text>
</g>
<!-- 3847 -->
<g id="node30" class="node"><title>3847</title>
<ellipse fill="white" stroke="black" cx="717.5" cy="-386.538" rx="25" ry="25"/>
<text text-anchor="middle" x="717.5" y="-384.338" font-family="Times,serif" font-size="9.00">3847</text>
</g>
<!-- &#45;11&#45;&gt;3847 -->
<g id="edge22" class="edge"><title>&#45;11&#45;&gt;3847</title>
<path fill="none" stroke="red" stroke-width="0.450453" d="M717.5,-468.464C717.5,-457.826 717.5,-438.642 717.5,-421.622"/>
<polygon fill="red" stroke="red" stroke-width="0.450453" points="721,-421.4 717.5,-411.4 714,-421.4 721,-421.4"/>
</g>
<!-- &#45;12 -->
<g id="node12" class="node"><title>&#45;12</title>
<polygon fill="lightgray" stroke="black" points="1269,-486.692 1240,-486.692 1240,-468.692 1269,-468.692 1269,-486.692"/>
<text text-anchor="middle" x="1254.5" y="-475.492" font-family="Times,serif" font-size="9.00">&#45;12</text>
</g>
<!-- &#45;13 -->
<g id="node13" class="node"><title>&#45;13</title>
<polygon fill="lightgray" stroke="black" points="1316,-486.692 1287,-486.692 1287,-468.692 1316,-468.692 1316,-486.692"/>
<text text-anchor="middle" x="1301.5" y="-475.492" font-family="Times,serif" font-size="9.00">&#45;13</text>
</g>
<!-- &#45;14 -->
<g id="node14" class="node"><title>&#45;14</title>
<polygon fill="lightgray" stroke="black" points="1363,-486.692 1334,-486.692 1334,-468.692 1363,-468.692 1363,-486.692"/>
<text text-anchor="middle" x="1348.5" y="-475.492" font-family="Times,serif" font-size="9.00">&#45;14</text>
</g>
<!-- &#45;15 -->
<g id="node15" class="node"><title>&#45;15</title>
<polygon fill="lightgray" stroke="black" points="1410,-486.692 1381,-486.692 1381,-468.692 1410,-468.692 1410,-486.692"/>
<text text-anchor="middle" x="1395.5" y="-475.492" font-family="Times,serif" font-size="9.00">&#45;15</text>
</g>
<!-- &#45;16 -->
<g id="node16" class="node"><title>&#45;16</title>
<polygon fill="lightgray" stroke="black" points="1457,-486.692 1428,-486.692 1428,-468.692 1457,-468.692 1457,-486.692"/>
<text text-anchor="middle" x="1442.5" y="-475.492" font-family="Times,serif" font-size="9.00">&#45;16</text>
</g>
<!-- &#45;17 -->
<g id="node17" class="node"><title>&#45;17</title>
<polygon fill="lightgray" stroke="black" points="1504,-486.692 1475,-486.692 1475,-468.692 1504,-468.692 1504,-486.692"/>
<text text-anchor="middle" x="1489.5" y="-475.492" font-family="Times,serif" font-size="9.00">&#45;17</text>
</g>
<!-- &#45;18 -->
<g id="node18" class="node"><title>&#45;18</title>
<polygon fill="lightgray" stroke="black" points="1551,-486.692 1522,-486.692 1522,-468.692 1551,-468.692 1551,-486.692"/>
<text text-anchor="middle" x="1536.5" y="-475.492" font-family="Times,serif" font-size="9.00">&#45;18</text>
</g>
<!-- &#45;19 -->
<g id="node19" class="node"><title>&#45;19</title>
<polygon fill="lightgray" stroke="black" points="1598,-486.692 1569,-486.692 1569,-468.692 1598,-468.692 1598,-486.692"/>
<text text-anchor="middle" x="1583.5" y="-475.492" font-family="Times,serif" font-size="9.00">&#45;19</text>
</g>
<!-- &#45;20 -->
<g id="node20" class="node"><title>&#45;20</title>
<polygon fill="lightgray" stroke="black" points="949,-395.538 920,-395.538 920,-377.538 949,-377.538 949,-395.538"/>
<text text-anchor="middle" x="934.5" y="-384.338" font-family="Times,serif" font-size="9.00">&#45;20</text>
</g>
<!-- &#45;20&#45;&gt;2796 -->
<g id="edge3" class="edge"><title>&#45;20&#45;&gt;2796</title>
<path fill="none" stroke="red" stroke-width="0.685269" d="M934.5,-377.31C934.5,-366.672 934.5,-347.488 934.5,-330.468"/>
<polygon fill="red" stroke="red" stroke-width="0.685269" points="938,-330.246 934.5,-320.246 931,-330.246 938,-330.246"/>
</g>
<!-- &#45;21 -->
<g id="node21" class="node"><title>&#45;21</title>
<polygon fill="lightgray" stroke="black" points="427,-304.383 398,-304.383 398,-286.383 427,-286.383 427,-304.383"/>
<text text-anchor="middle" x="412.5" y="-293.183" font-family="Times,serif" font-size="9.00">&#45;21</text>
</g>
<!-- 13080 -->
<g id="node35" class="node"><title>13080</title>
<ellipse fill="white" stroke="black" cx="405.5" cy="-204.229" rx="27.6545" ry="27.6545"/>
<text text-anchor="middle" x="405.5" y="-202.029" font-family="Times,serif" font-size="9.00">13080</text>
</g>
<!-- &#45;21&#45;&gt;13080 -->
<g id="edge36" class="edge"><title>&#45;21&#45;&gt;13080</title>
<path fill="none" stroke="red" stroke-width="1.26184" d="M411.854,-286.156C411.066,-276.113 409.679,-258.454 408.402,-242.19"/>
<polygon fill="red" stroke="red" stroke-width="1.26184" points="411.858,-241.492 407.586,-231.797 404.88,-242.04 411.858,-241.492"/>
</g>
<!-- &#45;22 -->
<g id="node22" class="node"><title>&#45;22</title>
<polygon fill="lightgray" stroke="black" points="1645,-486.692 1616,-486.692 1616,-468.692 1645,-468.692 1645,-486.692"/>
<text text-anchor="middle" x="1630.5" y="-475.492" font-family="Times,serif" font-size="9.00">&#45;22</text>
</g>
<!-- &#45;23 -->
<g id="node23" class="node"><title>&#45;23</title>
<polygon fill="lightgray" stroke="black" points="364,-486.692 335,-486.692 335,-468.692 364,-468.692 364,-486.692"/>
<text text-anchor="middle" x="349.5" y="-475.492" font-family="Times,serif" font-size="9.00">&#45;23</text>
</g>
<!-- 4423 -->
<g id="node43" class="node"><title>4423</title>
<ellipse fill="white" stroke="black" cx="349.5" cy="-386.538" rx="25" ry="25"/>
<text text-anchor="middle" x="349.5" y="-384.338" font-family="Times,serif" font-size="9.00">4423</text>
</g>
<!-- &#45;23&#45;&gt;4423 -->
<g id="edge25" class="edge"><title>&#45;23&#45;&gt;4423</title>
<path fill="none" stroke="red" stroke-width="0.357368" d="M349.5,-468.464C349.5,-457.826 349.5,-438.642 349.5,-421.622"/>
<polygon fill="red" stroke="red" stroke-width="0.357368" points="353,-421.4 349.5,-411.4 346,-421.4 353,-421.4"/>
</g>
<!-- &#45;24 -->
<g id="node24" class="node"><title>&#45;24</title>
<polygon fill="lightgray" stroke="black" points="29,-213.229 1.77636e-15,-213.229 1.77636e-15,-195.229 29,-195.229 29,-213.229"/>
<text text-anchor="middle" x="14.5" y="-202.029" font-family="Times,serif" font-size="9.00">&#45;24</text>
</g>
<!-- &#45;24&#45;&gt;3 -->
<g id="edge15" class="edge"><title>&#45;24&#45;&gt;3</title>
<path fill="none" stroke="green" stroke-width="1.08342" d="M18.8374,-195.001C25.9138,-181.578 40.1631,-154.549 50.2429,-135.428"/>
<polygon fill="green" stroke="green" stroke-width="1.08342" points="53.3728,-136.996 54.9401,-126.518 47.1805,-133.732 53.3728,-136.996"/>
</g>
<!-- 0 -->
<g id="node25" class="node"><title>0</title>
<ellipse fill="lightblue" stroke="black" cx="1677.5" cy="-477.692" rx="14.7" ry="14.7"/>
<text text-anchor="middle" x="1677.5" y="-475.492" font-family="Times,serif" font-size="9.00">0</text>
</g>
<!-- 1 -->
<g id="node26" class="node"><title>1</title>
<ellipse fill="lightblue" stroke="black" cx="660.5" cy="-204.229" rx="14.7" ry="14.7"/>
<text text-anchor="middle" x="660.5" y="-202.029" font-family="Times,serif" font-size="9.00">1</text>
</g>
<!-- 3847&#45;&gt;2005 -->
<g id="edge16" class="edge"><title>3847&#45;&gt;2005</title>
<path fill="none" stroke="red" stroke-width="1.13548" d="M704.566,-365.307C696.986,-353.452 687.288,-338.283 678.921,-325.196"/>
<polygon fill="red" stroke="red" stroke-width="1.13548" points="681.718,-323.074 673.383,-316.534 675.821,-326.844 681.718,-323.074"/>
</g>
<!-- 7694 -->
<g id="node31" class="node"><title>7694</title>
<ellipse fill="white" stroke="black" cx="312.5" cy="-204.229" rx="25" ry="25"/>
<text text-anchor="middle" x="312.5" y="-202.029" font-family="Times,serif" font-size="9.00">7694</text>
</g>
<!-- 7694&#45;&gt;2968 -->
<g id="edge19" class="edge"><title>7694&#45;&gt;2968</title>
<path fill="none" stroke="red" stroke-width="0.395026" d="M300.208,-182.551C293.318,-170.961 284.608,-156.311 277.015,-143.538"/>
<polygon fill="red" stroke="red" stroke-width="0.395026" points="279.844,-141.448 271.726,-134.64 273.827,-145.025 279.844,-141.448"/>
</g>
<!-- 3986 -->
<g id="node32" class="node"><title>3986</title>
<ellipse fill="white" stroke="black" cx="489.5" cy="-24.7487" rx="25" ry="25"/>
<text text-anchor="middle" x="489.5" y="-22.5487" font-family="Times,serif" font-size="9.00">3986</text>
</g>
<!-- 11670 -->
<g id="node33" class="node"><title>11670</title>
<ellipse fill="white" stroke="black" cx="590.5" cy="-204.229" rx="27.6545" ry="27.6545"/>
<text text-anchor="middle" x="590.5" y="-202.029" font-family="Times,serif" font-size="9.00">11670</text>
</g>
<!-- 12478 -->
<g id="node41" class="node"><title>12478</title>
<ellipse fill="white" stroke="black" cx="461.5" cy="-113.075" rx="27.6545" ry="27.6545"/>
<text text-anchor="middle" x="461.5" y="-110.875" font-family="Times,serif" font-size="9.00">12478</text>
</g>
<!-- 13080&#45;&gt;12478 -->
<g id="edge17" class="edge"><title>13080&#45;&gt;12478</title>
<path fill="none" stroke="red" stroke-width="0.82131" d="M419.921,-180.27C426.519,-169.766 434.443,-157.15 441.596,-145.762"/>
<polygon fill="red" stroke="red" stroke-width="0.82131" points="444.772,-147.286 447.127,-136.956 438.845,-143.563 444.772,-147.286"/>
</g>
<!-- 2714 -->
<g id="node36" class="node"><title>2714</title>
<ellipse fill="white" stroke="black" cx="1735.5" cy="-477.692" rx="25" ry="25"/>
<text text-anchor="middle" x="1735.5" y="-475.492" font-family="Times,serif" font-size="9.00">2714</text>
</g>
<!-- 13733 -->
<g id="node37" class="node"><title>13733</title>
<ellipse fill="white" stroke="black" cx="994.5" cy="-386.538" rx="27.6545" ry="27.6545"/>
<text text-anchor="middle" x="994.5" y="-384.338" font-family="Times,serif" font-size="9.00">13733</text>
</g>
<!-- 13733&#45;&gt;2796 -->
<g id="edge11" class="edge"><title>13733&#45;&gt;2796</title>
<path fill="none" stroke="green" stroke-width="0.530265" d="M979.359,-363.04C971.593,-351.501 962.05,-337.32 953.765,-325.009"/>
<polygon fill="green" stroke="green" stroke-width="0.530265" points="956.485,-322.782 947.998,-316.44 950.678,-326.69 956.485,-322.782"/>
</g>
<!-- 9126 -->
<g id="node38" class="node"><title>9126</title>
<ellipse fill="white" stroke="black" cx="517.5" cy="-204.229" rx="25" ry="25"/>
<text text-anchor="middle" x="517.5" y="-202.029" font-family="Times,serif" font-size="9.00">9126</text>
</g>
<!-- 9126&#45;&gt;3986 -->
<g id="edge27" class="edge"><title>9126&#45;&gt;3986</title>
<path fill="none" stroke="red" stroke-width="0.57727" d="M513.782,-179.661C508.928,-148.898 500.401,-94.8462 494.853,-59.6762"/>
<polygon fill="red" stroke="red" stroke-width="0.57727" points="498.249,-58.7466 493.234,-49.4142 491.335,-59.8375 498.249,-58.7466"/>
</g>
<!-- 9126&#45;&gt;12478 -->
<g id="edge4" class="edge"><title>9126&#45;&gt;12478</title>
<path fill="none" stroke="green" stroke-width="0.159182" d="M504.512,-182.551C497.596,-171.541 488.945,-157.768 481.219,-145.468"/>
<polygon fill="green" stroke="green" stroke-width="0.159182" points="484.077,-143.438 475.794,-136.832 478.149,-147.161 484.077,-143.438"/>
</g>
<!-- 11053 -->
<g id="node39" class="node"><title>11053</title>
<ellipse fill="white" stroke="black" cx="1067.5" cy="-386.538" rx="27.6545" ry="27.6545"/>
<text text-anchor="middle" x="1067.5" y="-384.338" font-family="Times,serif" font-size="9.00">11053</text>
</g>
<!-- 11053&#45;&gt;2796 -->
<g id="edge26" class="edge"><title>11053&#45;&gt;2796</title>
<path fill="none" stroke="red" stroke-width="0.430665" d="M1045.96,-369.293C1041.23,-365.827 1036.23,-362.228 1031.5,-358.96 1009.15,-343.524 983.277,-326.893 963.876,-314.658"/>
<polygon fill="red" stroke="red" stroke-width="0.430665" points="965.514,-311.554 955.184,-309.198 961.79,-317.481 965.514,-311.554"/>
</g>
<!-- 13361 -->
<g id="node40" class="node"><title>13361</title>
<ellipse fill="white" stroke="black" cx="1067.5" cy="-477.692" rx="27.6545" ry="27.6545"/>
<text text-anchor="middle" x="1067.5" y="-475.492" font-family="Times,serif" font-size="9.00">13361</text>
</g>
<!-- 13361&#45;&gt;11053 -->
<g id="edge9" class="edge"><title>13361&#45;&gt;11053</title>
<path fill="none" stroke="red" stroke-width="0.881684" d="M1067.5,-449.943C1067.5,-441.92 1067.5,-432.976 1067.5,-424.421"/>
<polygon fill="red" stroke="red" stroke-width="0.881684" points="1071,-424.268 1067.5,-414.268 1064,-424.268 1071,-424.268"/>
</g>
<!-- 12478&#45;&gt;3986 -->
<g id="edge13" class="edge"><title>12478&#45;&gt;3986</title>
<path fill="none" stroke="green" stroke-width="0.147488" d="M469.749,-86.6409C472.616,-77.8022 475.873,-67.7629 478.903,-58.4215"/>
<polygon fill="green" stroke="green" stroke-width="0.147488" points="482.316,-59.2408 482.072,-48.6488 475.658,-57.0811 482.316,-59.2408"/>
</g>
<!-- 13894 -->
<g id="node42" class="node"><title>13894</title>
<ellipse fill="white" stroke="black" cx="590.5" cy="-295.383" rx="27.6545" ry="27.6545"/>
<text text-anchor="middle" x="590.5" y="-293.183" font-family="Times,serif" font-size="9.00">13894</text>
</g>
<!-- 13894&#45;&gt;11670 -->
<g id="edge6" class="edge"><title>13894&#45;&gt;11670</title>
<path fill="none" stroke="green" stroke-width="0.502299" d="M590.5,-267.634C590.5,-259.612 590.5,-250.667 590.5,-242.113"/>
<polygon fill="green" stroke="green" stroke-width="0.502299" points="594,-241.959 590.5,-231.959 587,-241.959 594,-241.959"/>
</g>
<!-- 4423&#45;&gt;5233 -->
<g id="edge21" class="edge"><title>4423&#45;&gt;5233</title>
<path fill="none" stroke="green" stroke-width="0.913325" d="M335.962,-365.751C327.727,-353.716 317.074,-338.145 307.947,-324.806"/>
<polygon fill="green" stroke="green" stroke-width="0.913325" points="310.746,-322.699 302.211,-316.423 304.969,-326.652 310.746,-322.699"/>
</g>
<!-- 8318 -->
<g id="node55" class="node"><title>8318</title>
<ellipse fill="white" stroke="black" cx="355.5" cy="-295.383" rx="25" ry="25"/>
<text text-anchor="middle" x="355.5" y="-293.183" font-family="Times,serif" font-size="9.00">8318</text>
</g>
<!-- 4423&#45;&gt;8318 -->
<g id="edge20" class="edge"><title>4423&#45;&gt;8318</title>
<path fill="none" stroke="green" stroke-width="1.31587" d="M351.108,-361.646C351.754,-352.052 352.51,-340.816 353.211,-330.397"/>
<polygon fill="green" stroke="green" stroke-width="1.31587" points="356.708,-330.553 353.888,-320.341 349.724,-330.083 356.708,-330.553"/>
</g>
<!-- 5839 -->
<g id="node45" class="node"><title>5839</title>
<ellipse fill="white" stroke="black" cx="71.5" cy="-204.229" rx="25" ry="25"/>
<text text-anchor="middle" x="71.5" y="-202.029" font-family="Times,serif" font-size="9.00">5839</text>
</g>
<!-- 5839&#45;&gt;3 -->
<g id="edge2" class="edge"><title>5839&#45;&gt;3</title>
<path fill="none" stroke="red" stroke-width="0.313876" d="M68.8202,-179.337C67.3829,-166.523 65.6169,-150.779 64.1796,-137.965"/>
<polygon fill="red" stroke="red" stroke-width="0.313876" points="67.657,-137.566 63.064,-128.019 60.7006,-138.347 67.657,-137.566"/>
</g>
<!-- 2005&#45;&gt;1 -->
<g id="edge29" class="edge"><title>2005&#45;&gt;1</title>
<path fill="none" stroke="green" stroke-width="0.746458" d="M660.5,-270.492C660.5,-257.805 660.5,-242.247 660.5,-229.504"/>
<polygon fill="green" stroke="green" stroke-width="0.746458" points="664,-229.173 660.5,-219.173 657,-229.173 664,-229.173"/>
</g>
<!-- 4053 -->
<g id="node47" class="node"><title>4053</title>
<ellipse fill="white" stroke="black" cx="206.5" cy="-204.229" rx="25" ry="25"/>
<text text-anchor="middle" x="206.5" y="-202.029" font-family="Times,serif" font-size="9.00">4053</text>
</g>
<!-- 4053&#45;&gt;2968 -->
<g id="edge14" class="edge"><title>4053&#45;&gt;2968</title>
<path fill="none" stroke="green" stroke-width="0.216977" d="M218.792,-182.551C225.682,-170.961 234.392,-156.311 241.985,-143.538"/>
<polygon fill="green" stroke="green" stroke-width="0.216977" points="245.173,-145.025 247.274,-134.64 239.156,-141.448 245.173,-145.025"/>
</g>
<!-- 13404&#45;&gt;2796 -->
<g id="edge38" class="edge"><title>13404&#45;&gt;2796</title>
<path fill="none" stroke="green" stroke-width="0.475566" d="M855.534,-367.496C870.877,-353.679 892.159,-334.513 908.764,-319.56"/>
<polygon fill="green" stroke="green" stroke-width="0.475566" points="911.404,-321.892 916.493,-312.6 906.72,-316.691 911.404,-321.892"/>
</g>
<!-- 11383 -->
<g id="node54" class="node"><title>11383</title>
<ellipse fill="white" stroke="black" cx="1209.5" cy="-295.383" rx="27.6545" ry="27.6545"/>
<text text-anchor="middle" x="1209.5" y="-293.183" font-family="Times,serif" font-size="9.00">11383</text>
</g>
<!-- 10719&#45;&gt;11383 -->
<g id="edge35" class="edge"><title>10719&#45;&gt;11383</title>
<path fill="none" stroke="green" stroke-width="0.318379" d="M1209.5,-358.788C1209.5,-350.766 1209.5,-341.822 1209.5,-333.267"/>
<polygon fill="green" stroke="green" stroke-width="0.318379" points="1213,-333.114 1209.5,-323.114 1206,-333.114 1213,-333.114"/>
</g>
<!-- 13024 -->
<g id="node50" class="node"><title>13024</title>
<ellipse fill="white" stroke="black" cx="517.5" cy="-295.383" rx="27.6545" ry="27.6545"/>
<text text-anchor="middle" x="517.5" y="-293.183" font-family="Times,serif" font-size="9.00">13024</text>
</g>
<!-- 13024&#45;&gt;9126 -->
<g id="edge33" class="edge"><title>13024&#45;&gt;9126</title>
<path fill="none" stroke="red" stroke-width="0.742061" d="M517.5,-267.634C517.5,-258.765 517.5,-248.768 517.5,-239.417"/>
<polygon fill="red" stroke="red" stroke-width="0.742061" points="521,-239.229 517.5,-229.229 514,-239.229 521,-239.229"/>
</g>
<!-- 4708 -->
<g id="node51" class="node"><title>4708</title>
<ellipse fill="white" stroke="black" cx="517.5" cy="-386.538" rx="25" ry="25"/>
<text text-anchor="middle" x="517.5" y="-384.338" font-family="Times,serif" font-size="9.00">4708</text>
</g>
<!-- 4708&#45;&gt;12478 -->
<g id="edge39" class="edge"><title>4708&#45;&gt;12478</title>
<path fill="none" stroke="green" stroke-width="0.779313" d="M503.098,-366.329C495.004,-354.467 485.542,-338.574 480.5,-322.96 461.777,-264.979 459.412,-193.557 460.02,-151.033"/>
<polygon fill="green" stroke="green" stroke-width="0.779313" points="463.523,-150.941 460.231,-140.87 456.524,-150.796 463.523,-150.941"/>
</g>
<!-- 4708&#45;&gt;13894 -->
<g id="edge1" class="edge"><title>4708&#45;&gt;13894</title>
<path fill="none" stroke="red" stroke-width="0.206311" d="M532.981,-366.63C542.825,-354.609 555.761,-338.809 566.873,-325.239"/>
<polygon fill="red" stroke="red" stroke-width="0.206311" points="569.884,-327.086 573.511,-317.131 564.468,-322.651 569.884,-327.086"/>
</g>
<!-- 4708&#45;&gt;13024 -->
<g id="edge40" class="edge"><title>4708&#45;&gt;13024</title>
<path fill="none" stroke="red" stroke-width="0.317811" d="M517.5,-361.646C517.5,-352.934 517.5,-342.867 517.5,-333.288"/>
<polygon fill="red" stroke="red" stroke-width="0.317811" points="521,-333.172 517.5,-323.172 514,-333.172 521,-333.172"/>
</g>
<!-- 5233&#45;&gt;7694 -->
<g id="edge7" class="edge"><title>5233&#45;&gt;7694</title>
<path fill="none" stroke="green" stroke-width="0.320329" d="M294.806,-270.959C297.479,-261.028 300.643,-249.275 303.551,-238.472"/>
<polygon fill="green" stroke="green" stroke-width="0.320329" points="307.017,-239.063 306.236,-228.497 300.257,-237.243 307.017,-239.063"/>
</g>
<!-- 5233&#45;&gt;2968 -->
<g id="edge5" class="edge"><title>5233&#45;&gt;2968</title>
<path fill="none" stroke="red" stroke-width="0.115771" d="M284.709,-270.811C279.65,-239.36 270.663,-183.482 264.898,-147.639"/>
<polygon fill="red" stroke="red" stroke-width="0.115771" points="268.336,-146.97 263.292,-137.653 261.425,-148.082 268.336,-146.97"/>
</g>
<!-- 5233&#45;&gt;13080 -->
<g id="edge31" class="edge"><title>5233&#45;&gt;13080</title>
<path fill="none" stroke="green" stroke-width="0.327355" d="M307.25,-279.081C311.881,-275.357 316.848,-271.41 321.5,-267.806 339.088,-254.18 359.05,-239.286 375.1,-227.448"/>
<polygon fill="green" stroke="green" stroke-width="0.327355" points="377.594,-229.958 383.575,-221.213 373.446,-224.32 377.594,-229.958"/>
</g>
</g>
</svg>
