<?xml version="1.0" encoding="UTF-8" standalone="no"?>
<!DOCTYPE svg PUBLIC "-//W3C//DTD SVG 1.1//EN"
 "http://www.w3.org/Graphics/SVG/1.1/DTD/svg11.dtd">
<!-- Generated by graphviz version 2.38.0 (20140413.2041)
 -->
<!-- Title: %3 Pages: 1 -->
<svg width="1317pt" height="889pt"
 viewBox="0.00 0.00 1316.63 889.46" xmlns="http://www.w3.org/2000/svg" xmlns:xlink="http://www.w3.org/1999/xlink">
<g id="graph0" class="graph" transform="scale(1 1) rotate(0) translate(4 885.46)">
<title>%3</title>
<polygon fill="white" stroke="none" points="-4,4 -4,-885.46 1312.63,-885.46 1312.63,4 -4,4"/>
<!-- &#45;1 -->
<g id="node1" class="node"><title>&#45;1</title>
<polygon fill="lightgray" stroke="black" points="712.128,-881.46 688.128,-881.46 688.128,-863.46 712.128,-863.46 712.128,-881.46"/>
<text text-anchor="middle" x="700.128" y="-870.26" font-family="Times,serif" font-size="9.00">&#45;1</text>
</g>
<!-- &#45;2 -->
<g id="node2" class="node"><title>&#45;2</title>
<polygon fill="lightgray" stroke="black" points="963.128,-364.425 939.128,-364.425 939.128,-346.425 963.128,-346.425 963.128,-364.425"/>
<text text-anchor="middle" x="951.128" y="-353.225" font-family="Times,serif" font-size="9.00">&#45;2</text>
</g>
<!-- 3 -->
<g id="node28" class="node"><title>3</title>
<ellipse fill="lightblue" stroke="black" cx="845.128" cy="-14.8492" rx="14.7" ry="14.7"/>
<text text-anchor="middle" x="845.128" y="-12.6492" font-family="Times,serif" font-size="9.00">3</text>
</g>
<!-- &#45;2&#45;&gt;3 -->
<g id="edge55" class="edge"><title>&#45;2&#45;&gt;3</title>
<path fill="none" stroke="red" stroke-width="0.712511" d="M955.581,-346.247C959.253,-340.267 965.007,-332.431 972.128,-327.848 1028.32,-291.675 1076.91,-344.459 1118.13,-291.848 1133.24,-272.551 1128.69,-258.816 1118.13,-236.693 1064.61,-124.561 923.266,-50.9937 867.864,-25.6602"/>
<polygon fill="red" stroke="red" stroke-width="0.712511" points="869.117,-22.3864 858.56,-21.4927 866.256,-28.7748 869.117,-22.3864"/>
</g>
<!-- 5890 -->
<g id="node29" class="node"><title>5890</title>
<ellipse fill="white" stroke="black" cx="899.128" cy="-264.271" rx="25" ry="25"/>
<text text-anchor="middle" x="899.128" y="-262.071" font-family="Times,serif" font-size="9.00">5890</text>
</g>
<!-- &#45;2&#45;&gt;5890 -->
<g id="edge41" class="edge"><title>&#45;2&#45;&gt;5890</title>
<path fill="none" stroke="red" stroke-width="0.233522" d="M946.329,-346.197C939.606,-334.671 927.032,-313.112 916.551,-295.142"/>
<polygon fill="red" stroke="red" stroke-width="0.233522" points="919.365,-293.02 911.303,-286.145 913.318,-296.547 919.365,-293.02"/>
</g>
<!-- 2968 -->
<g id="node34" class="node"><title>2968</title>
<ellipse fill="white" stroke="black" cx="846.128" cy="-175.945" rx="25" ry="25"/>
<text text-anchor="middle" x="846.128" y="-173.745" font-family="Times,serif" font-size="9.00">2968</text>
</g>
<!-- &#45;2&#45;&gt;2968 -->
<g id="edge20" class="edge"><title>&#45;2&#45;&gt;2968</title>
<path fill="none" stroke="green" stroke-width="0.581662" d="M951.977,-346.248C953.666,-325.969 955.547,-272.423 933.128,-236.693 920.156,-216.019 897.129,-200.683 878.023,-190.728"/>
<polygon fill="green" stroke="green" stroke-width="0.581662" points="879.535,-187.571 869.02,-186.273 876.43,-193.845 879.535,-187.571"/>
</g>
<!-- 10445 -->
<g id="node44" class="node"><title>10445</title>
<ellipse fill="white" stroke="black" cx="1081.13" cy="-264.271" rx="27.6545" ry="27.6545"/>
<text text-anchor="middle" x="1081.13" y="-262.071" font-family="Times,serif" font-size="9.00">10445</text>
</g>
<!-- &#45;2&#45;&gt;10445 -->
<g id="edge62" class="edge"><title>&#45;2&#45;&gt;10445</title>
<path fill="none" stroke="green" stroke-width="0.125935" d="M956.213,-346.189C960.047,-340.488 965.727,-333.025 972.128,-327.848 1000.25,-305.098 1014.23,-310.665 1045.13,-291.848 1047.28,-290.539 1049.46,-289.137 1051.63,-287.685"/>
<polygon fill="green" stroke="green" stroke-width="0.125935" points="1053.66,-290.531 1059.86,-281.935 1049.66,-284.793 1053.66,-290.531"/>
</g>
<!-- &#45;3 -->
<g id="node3" class="node"><title>&#45;3</title>
<polygon fill="lightgray" stroke="black" points="862.128,-726.214 838.128,-726.214 838.128,-708.214 862.128,-708.214 862.128,-726.214"/>
<text text-anchor="middle" x="850.128" y="-715.014" font-family="Times,serif" font-size="9.00">&#45;3</text>
</g>
<!-- 2005 -->
<g id="node46" class="node"><title>2005</title>
<ellipse fill="white" stroke="black" cx="880.128" cy="-355.425" rx="25" ry="25"/>
<text text-anchor="middle" x="880.128" y="-353.225" font-family="Times,serif" font-size="9.00">2005</text>
</g>
<!-- &#45;3&#45;&gt;2005 -->
<g id="edge65" class="edge"><title>&#45;3&#45;&gt;2005</title>
<path fill="none" stroke="green" stroke-width="0.658214" d="M849.657,-707.861C847.828,-672.54 842.2,-532.057 861.128,-419.002 862.812,-408.946 865.652,-398.244 868.631,-388.588"/>
<polygon fill="green" stroke="green" stroke-width="0.658214" points="871.993,-389.565 871.742,-378.974 865.333,-387.41 871.993,-389.565"/>
</g>
<!-- 5233 -->
<g id="node53" class="node"><title>5233</title>
<ellipse fill="white" stroke="black" cx="775.128" cy="-628.888" rx="25" ry="25"/>
<text text-anchor="middle" x="775.128" y="-626.688" font-family="Times,serif" font-size="9.00">5233</text>
</g>
<!-- &#45;3&#45;&gt;5233 -->
<g id="edge1" class="edge"><title>&#45;3&#45;&gt;5233</title>
<path fill="none" stroke="green" stroke-width="0.832269" stroke-dasharray="1,5" d="M842.937,-707.937C832.635,-696.079 813.22,-673.732 797.795,-655.978"/>
<polygon fill="green" stroke="green" stroke-width="0.832269" points="800.237,-653.452 791.036,-648.199 794.953,-658.043 800.237,-653.452"/>
</g>
<!-- &#45;4 -->
<g id="node4" class="node"><title>&#45;4</title>
<polygon fill="lightgray" stroke="black" points="849.128,-881.46 825.128,-881.46 825.128,-863.46 849.128,-863.46 849.128,-881.46"/>
<text text-anchor="middle" x="837.128" y="-870.26" font-family="Times,serif" font-size="9.00">&#45;4</text>
</g>
<!-- &#45;5 -->
<g id="node5" class="node"><title>&#45;5</title>
<polygon fill="lightgray" stroke="black" points="446.128,-637.888 422.128,-637.888 422.128,-619.888 446.128,-619.888 446.128,-637.888"/>
<text text-anchor="middle" x="434.128" y="-626.688" font-family="Times,serif" font-size="9.00">&#45;5</text>
</g>
<!-- 2 -->
<g id="node27" class="node"><title>2</title>
<ellipse fill="lightblue" stroke="black" cx="383.128" cy="-355.425" rx="14.7" ry="14.7"/>
<text text-anchor="middle" x="383.128" y="-353.225" font-family="Times,serif" font-size="9.00">2</text>
</g>
<!-- &#45;5&#45;&gt;2 -->
<g id="edge69" class="edge"><title>&#45;5&#45;&gt;2</title>
<path fill="none" stroke="red" stroke-width="0.994924" d="M427.472,-619.59C418.725,-608.149 403.702,-586.529 397.128,-565.311 377.119,-500.731 378.796,-419.716 381.209,-380.246"/>
<polygon fill="red" stroke="red" stroke-width="0.994924" points="384.701,-380.478 381.891,-370.263 377.717,-380.001 384.701,-380.478"/>
</g>
<!-- 13404 -->
<g id="node48" class="node"><title>13404</title>
<ellipse fill="white" stroke="black" cx="434.128" cy="-537.734" rx="27.6545" ry="27.6545"/>
<text text-anchor="middle" x="434.128" y="-535.534" font-family="Times,serif" font-size="9.00">13404</text>
</g>
<!-- &#45;5&#45;&gt;13404 -->
<g id="edge47" class="edge"><title>&#45;5&#45;&gt;13404</title>
<path fill="none" stroke="green" stroke-width="0.51611" d="M434.128,-619.66C434.128,-609.688 434.128,-592.207 434.128,-576.038"/>
<polygon fill="green" stroke="green" stroke-width="0.51611" points="437.628,-575.694 434.128,-565.694 430.628,-575.695 437.628,-575.694"/>
</g>
<!-- 2796 -->
<g id="node52" class="node"><title>2796</title>
<ellipse fill="white" stroke="black" cx="490.128" cy="-446.579" rx="25" ry="25"/>
<text text-anchor="middle" x="490.128" y="-444.379" font-family="Times,serif" font-size="9.00">2796</text>
</g>
<!-- &#45;5&#45;&gt;2796 -->
<g id="edge27" class="edge"><title>&#45;5&#45;&gt;2796</title>
<path fill="none" stroke="red" stroke-width="0.234725" d="M440.212,-619.884C448.584,-608.438 463.488,-586.437 471.128,-565.311 480.941,-538.174 485.701,-505.689 488.001,-481.723"/>
<polygon fill="red" stroke="red" stroke-width="0.234725" points="491.494,-481.952 488.869,-471.688 484.52,-481.349 491.494,-481.952"/>
</g>
<!-- &#45;6 -->
<g id="node6" class="node"><title>&#45;6</title>
<polygon fill="lightgray" stroke="black" points="891.128,-881.46 867.128,-881.46 867.128,-863.46 891.128,-863.46 891.128,-881.46"/>
<text text-anchor="middle" x="879.128" y="-870.26" font-family="Times,serif" font-size="9.00">&#45;6</text>
</g>
<!-- &#45;7 -->
<g id="node7" class="node"><title>&#45;7</title>
<polygon fill="lightgray" stroke="black" points="933.128,-881.46 909.128,-881.46 909.128,-863.46 933.128,-863.46 933.128,-881.46"/>
<text text-anchor="middle" x="921.128" y="-870.26" font-family="Times,serif" font-size="9.00">&#45;7</text>
</g>
<!-- &#45;8 -->
<g id="node8" class="node"><title>&#45;8</title>
<polygon fill="lightgray" stroke="black" points="962.128,-455.579 938.128,-455.579 938.128,-437.579 962.128,-437.579 962.128,-455.579"/>
<text text-anchor="middle" x="950.128" y="-444.379" font-family="Times,serif" font-size="9.00">&#45;8</text>
</g>
<!-- 2714 -->
<g id="node36" class="node"><title>2714</title>
<ellipse fill="white" stroke="black" cx="813.128" cy="-355.425" rx="25" ry="25"/>
<text text-anchor="middle" x="813.128" y="-353.225" font-family="Times,serif" font-size="9.00">2714</text>
</g>
<!-- &#45;8&#45;&gt;2714 -->
<g id="edge37" class="edge"><title>&#45;8&#45;&gt;2714</title>
<path fill="none" stroke="green" stroke-width="0.150966" stroke-dasharray="1,5" d="M945.12,-437.246C941.322,-431.5 935.654,-424.022 929.128,-419.002 897.256,-394.487 880.541,-403.8 846.128,-383.002 843.924,-381.67 841.707,-380.206 839.52,-378.67"/>
<polygon fill="green" stroke="green" stroke-width="0.150966" points="841.431,-375.728 831.332,-372.522 837.227,-381.326 841.431,-375.728"/>
</g>
<!-- &#45;8&#45;&gt;2005 -->
<g id="edge24" class="edge"><title>&#45;8&#45;&gt;2005</title>
<path fill="none" stroke="green" stroke-width="0.284365" stroke-dasharray="1,5" d="M943.668,-437.352C934.158,-425.24 915.951,-402.05 901.456,-383.589"/>
<polygon fill="green" stroke="green" stroke-width="0.284365" points="904.03,-381.2 895.102,-375.496 898.524,-385.523 904.03,-381.2"/>
</g>
<!-- 10719 -->
<g id="node49" class="node"><title>10719</title>
<ellipse fill="white" stroke="black" cx="1009.13" cy="-355.425" rx="27.6545" ry="27.6545"/>
<text text-anchor="middle" x="1009.13" y="-353.225" font-family="Times,serif" font-size="9.00">10719</text>
</g>
<!-- &#45;8&#45;&gt;10719 -->
<g id="edge57" class="edge"><title>&#45;8&#45;&gt;10719</title>
<path fill="none" stroke="green" stroke-width="0.301603" d="M955.573,-437.352C963.075,-426.016 976.998,-404.976 988.768,-387.191"/>
<polygon fill="green" stroke="green" stroke-width="0.301603" points="991.735,-389.049 994.335,-378.779 985.897,-385.186 991.735,-389.049"/>
</g>
<!-- &#45;9 -->
<g id="node9" class="node"><title>&#45;9</title>
<polygon fill="lightgray" stroke="black" points="820.128,-726.214 796.128,-726.214 796.128,-708.214 820.128,-708.214 820.128,-726.214"/>
<text text-anchor="middle" x="808.128" y="-715.014" font-family="Times,serif" font-size="9.00">&#45;9</text>
</g>
<!-- &#45;9&#45;&gt;5233 -->
<g id="edge23" class="edge"><title>&#45;9&#45;&gt;5233</title>
<path fill="none" stroke="green" stroke-width="0.415465" d="M804.964,-707.937C800.918,-697.353 793.678,-678.413 787.343,-661.841"/>
<polygon fill="green" stroke="green" stroke-width="0.415465" points="790.589,-660.53 783.749,-652.439 784.05,-663.029 790.589,-660.53"/>
</g>
<!-- &#45;10 -->
<g id="node10" class="node"><title>&#45;10</title>
<polygon fill="lightgray" stroke="black" points="1055.63,-455.579 1026.63,-455.579 1026.63,-437.579 1055.63,-437.579 1055.63,-455.579"/>
<text text-anchor="middle" x="1041.13" y="-444.379" font-family="Times,serif" font-size="9.00">&#45;10</text>
</g>
<!-- &#45;10&#45;&gt;10445 -->
<g id="edge22" class="edge"><title>&#45;10&#45;&gt;10445</title>
<path fill="none" stroke="green" stroke-width="0.242002" stroke-dasharray="1,5" d="M1042.95,-437.363C1048.2,-413.701 1063.59,-344.341 1073.15,-301.243"/>
<polygon fill="green" stroke="green" stroke-width="0.242002" points="1076.58,-301.942 1075.33,-291.421 1069.74,-300.426 1076.58,-301.942"/>
</g>
<!-- &#45;10&#45;&gt;2005 -->
<g id="edge48" class="edge"><title>&#45;10&#45;&gt;2005</title>
<path fill="none" stroke="red" stroke-width="0.298335" d="M1026.56,-437.51C1000.41,-423.03 945.021,-392.36 910.361,-373.166"/>
<polygon fill="red" stroke="red" stroke-width="0.298335" points="912.045,-370.098 901.601,-368.316 908.654,-376.222 912.045,-370.098"/>
</g>
<!-- &#45;11 -->
<g id="node11" class="node"><title>&#45;11</title>
<polygon fill="lightgray" stroke="black" points="909.628,-546.734 880.628,-546.734 880.628,-528.734 909.628,-528.734 909.628,-546.734"/>
<text text-anchor="middle" x="895.128" y="-535.534" font-family="Times,serif" font-size="9.00">&#45;11</text>
</g>
<!-- 3847 -->
<g id="node30" class="node"><title>3847</title>
<ellipse fill="white" stroke="black" cx="895.128" cy="-446.579" rx="25" ry="25"/>
<text text-anchor="middle" x="895.128" y="-444.379" font-family="Times,serif" font-size="9.00">3847</text>
</g>
<!-- &#45;11&#45;&gt;3847 -->
<g id="edge46" class="edge"><title>&#45;11&#45;&gt;3847</title>
<path fill="none" stroke="red" stroke-width="0.450453" d="M895.128,-528.506C895.128,-517.868 895.128,-498.684 895.128,-481.664"/>
<polygon fill="red" stroke="red" stroke-width="0.450453" points="898.628,-481.442 895.128,-471.442 891.628,-481.442 898.628,-481.442"/>
</g>
<!-- &#45;12 -->
<g id="node12" class="node"><title>&#45;12</title>
<polygon fill="lightgray" stroke="black" points="980.628,-881.46 951.628,-881.46 951.628,-863.46 980.628,-863.46 980.628,-881.46"/>
<text text-anchor="middle" x="966.128" y="-870.26" font-family="Times,serif" font-size="9.00">&#45;12</text>
</g>
<!-- &#45;13 -->
<g id="node13" class="node"><title>&#45;13</title>
<polygon fill="lightgray" stroke="black" points="1027.63,-881.46 998.628,-881.46 998.628,-863.46 1027.63,-863.46 1027.63,-881.46"/>
<text text-anchor="middle" x="1013.13" y="-870.26" font-family="Times,serif" font-size="9.00">&#45;13</text>
</g>
<!-- &#45;14 -->
<g id="node14" class="node"><title>&#45;14</title>
<polygon fill="lightgray" stroke="black" points="1308.63,-184.945 1279.63,-184.945 1279.63,-166.945 1308.63,-166.945 1308.63,-184.945"/>
<text text-anchor="middle" x="1294.13" y="-173.745" font-family="Times,serif" font-size="9.00">&#45;14</text>
</g>
<!-- 0 -->
<g id="node25" class="node"><title>0</title>
<ellipse fill="lightblue" stroke="black" cx="1251.13" cy="-90.4472" rx="14.7" ry="14.7"/>
<text text-anchor="middle" x="1251.13" y="-88.2472" font-family="Times,serif" font-size="9.00">0</text>
</g>
<!-- &#45;14&#45;&gt;0 -->
<g id="edge50" class="edge"><title>&#45;14&#45;&gt;0</title>
<path fill="none" stroke="green" stroke-width="0.552439" stroke-dasharray="1,5" d="M1290,-166.939C1283.66,-154.609 1271.27,-130.552 1262.17,-112.897"/>
<polygon fill="green" stroke="green" stroke-width="0.552439" points="1265.21,-111.15 1257.52,-103.862 1258.99,-114.355 1265.21,-111.15"/>
</g>
<!-- &#45;15 -->
<g id="node15" class="node"><title>&#45;15</title>
<polygon fill="lightgray" stroke="black" points="519.628,-726.214 490.628,-726.214 490.628,-708.214 519.628,-708.214 519.628,-726.214"/>
<text text-anchor="middle" x="505.128" y="-715.014" font-family="Times,serif" font-size="9.00">&#45;15</text>
</g>
<!-- 4053 -->
<g id="node47" class="node"><title>4053</title>
<ellipse fill="white" stroke="black" cx="340.128" cy="-264.271" rx="25" ry="25"/>
<text text-anchor="middle" x="340.128" y="-262.071" font-family="Times,serif" font-size="9.00">4053</text>
</g>
<!-- &#45;15&#45;&gt;4053 -->
<g id="edge12" class="edge"><title>&#45;15&#45;&gt;4053</title>
<path fill="none" stroke="green" stroke-width="1.01778" stroke-dasharray="1,5" d="M490.509,-710.405C470.293,-701.654 433.948,-683.219 413.128,-656.465 328.807,-548.113 331.409,-372.248 336.793,-298.98"/>
<polygon fill="green" stroke="green" stroke-width="1.01778" points="340.288,-299.183 337.598,-288.935 333.31,-298.624 340.288,-299.183"/>
</g>
<!-- &#45;15&#45;&gt;5233 -->
<g id="edge32" class="edge"><title>&#45;15&#45;&gt;5233</title>
<path fill="none" stroke="green" stroke-width="0.184129" stroke-dasharray="1,5" d="M519.77,-714.22C557.183,-708.75 658.786,-691.529 736.128,-656.465 739.99,-654.714 743.884,-652.585 747.64,-650.303"/>
<polygon fill="green" stroke="green" stroke-width="0.184129" points="749.608,-653.198 756.071,-644.803 745.783,-647.335 749.608,-653.198"/>
</g>
<!-- &#45;16 -->
<g id="node16" class="node"><title>&#45;16</title>
<polygon fill="lightgray" stroke="black" points="1074.63,-881.46 1045.63,-881.46 1045.63,-863.46 1074.63,-863.46 1074.63,-881.46"/>
<text text-anchor="middle" x="1060.13" y="-870.26" font-family="Times,serif" font-size="9.00">&#45;16</text>
</g>
<!-- &#45;17 -->
<g id="node17" class="node"><title>&#45;17</title>
<polygon fill="lightgray" stroke="black" points="759.628,-881.46 730.628,-881.46 730.628,-863.46 759.628,-863.46 759.628,-881.46"/>
<text text-anchor="middle" x="745.128" y="-870.26" font-family="Times,serif" font-size="9.00">&#45;17</text>
</g>
<!-- 4423 -->
<g id="node43" class="node"><title>4423</title>
<ellipse fill="white" stroke="black" cx="768.128" cy="-802.711" rx="25" ry="25"/>
<text text-anchor="middle" x="768.128" y="-800.511" font-family="Times,serif" font-size="9.00">4423</text>
</g>
<!-- &#45;17&#45;&gt;4423 -->
<g id="edge3" class="edge"><title>&#45;17&#45;&gt;4423</title>
<path fill="none" stroke="red" stroke-width="0.475363" stroke-dasharray="1,5" d="M747.857,-863.422C750.183,-856.569 753.689,-846.243 757.134,-836.095"/>
<polygon fill="red" stroke="red" stroke-width="0.475363" points="760.477,-837.135 760.378,-826.54 753.849,-834.884 760.477,-837.135"/>
</g>
<!-- &#45;18 -->
<g id="node18" class="node"><title>&#45;18</title>
<polygon fill="lightgray" stroke="black" points="317.628,-726.214 288.628,-726.214 288.628,-708.214 317.628,-708.214 317.628,-726.214"/>
<text text-anchor="middle" x="303.128" y="-715.014" font-family="Times,serif" font-size="9.00">&#45;18</text>
</g>
<!-- 13361 -->
<g id="node40" class="node"><title>13361</title>
<ellipse fill="white" stroke="black" cx="303.128" cy="-628.888" rx="27.6545" ry="27.6545"/>
<text text-anchor="middle" x="303.128" y="-626.688" font-family="Times,serif" font-size="9.00">13361</text>
</g>
<!-- &#45;18&#45;&gt;13361 -->
<g id="edge8" class="edge"><title>&#45;18&#45;&gt;13361</title>
<path fill="none" stroke="green" stroke-width="0.326062" stroke-dasharray="1,5" d="M303.128,-707.937C303.128,-698.404 303.128,-682.093 303.128,-666.838"/>
<polygon fill="green" stroke="green" stroke-width="0.326062" points="306.628,-666.543 303.128,-656.543 299.628,-666.543 306.628,-666.543"/>
</g>
<!-- &#45;19 -->
<g id="node19" class="node"><title>&#45;19</title>
<polygon fill="lightgray" stroke="black" points="218.628,-637.888 189.628,-637.888 189.628,-619.888 218.628,-619.888 218.628,-637.888"/>
<text text-anchor="middle" x="204.128" y="-626.688" font-family="Times,serif" font-size="9.00">&#45;19</text>
</g>
<!-- 9126 -->
<g id="node38" class="node"><title>9126</title>
<ellipse fill="white" stroke="black" cx="175.128" cy="-537.734" rx="25" ry="25"/>
<text text-anchor="middle" x="175.128" y="-535.534" font-family="Times,serif" font-size="9.00">9126</text>
</g>
<!-- &#45;19&#45;&gt;9126 -->
<g id="edge11" class="edge"><title>&#45;19&#45;&gt;9126</title>
<path fill="none" stroke="green" stroke-width="0.552715" stroke-dasharray="1,5" d="M201.452,-619.66C197.888,-608.706 191.377,-588.689 185.723,-571.305"/>
<polygon fill="green" stroke="green" stroke-width="0.552715" points="188.943,-569.889 182.521,-561.462 182.286,-572.054 188.943,-569.889"/>
</g>
<!-- &#45;20 -->
<g id="node20" class="node"><title>&#45;20</title>
<polygon fill="lightgray" stroke="black" points="547.628,-546.734 518.628,-546.734 518.628,-528.734 547.628,-528.734 547.628,-546.734"/>
<text text-anchor="middle" x="533.128" y="-535.534" font-family="Times,serif" font-size="9.00">&#45;20</text>
</g>
<!-- &#45;20&#45;&gt;2796 -->
<g id="edge7" class="edge"><title>&#45;20&#45;&gt;2796</title>
<path fill="none" stroke="red" stroke-width="0.685269" d="M529.16,-528.506C523.722,-517.231 513.653,-496.355 505.105,-478.631"/>
<polygon fill="red" stroke="red" stroke-width="0.685269" points="508.048,-476.676 500.551,-469.189 501.743,-479.717 508.048,-476.676"/>
</g>
<!-- &#45;21 -->
<g id="node21" class="node"><title>&#45;21</title>
<polygon fill="lightgray" stroke="black" points="59.628,-637.888 30.628,-637.888 30.628,-619.888 59.628,-619.888 59.628,-637.888"/>
<text text-anchor="middle" x="45.128" y="-626.688" font-family="Times,serif" font-size="9.00">&#45;21</text>
</g>
<!-- 13080 -->
<g id="node35" class="node"><title>13080</title>
<ellipse fill="white" stroke="black" cx="105.128" cy="-537.734" rx="27.6545" ry="27.6545"/>
<text text-anchor="middle" x="105.128" y="-535.534" font-family="Times,serif" font-size="9.00">13080</text>
</g>
<!-- &#45;21&#45;&gt;13080 -->
<g id="edge68" class="edge"><title>&#45;21&#45;&gt;13080</title>
<path fill="none" stroke="red" stroke-width="1.26184" d="M50.6651,-619.66C58.294,-608.324 72.4534,-587.285 84.4226,-569.5"/>
<polygon fill="red" stroke="red" stroke-width="1.26184" points="87.4046,-571.338 90.0842,-561.087 81.5972,-567.429 87.4046,-571.338"/>
</g>
<!-- 5839 -->
<g id="node45" class="node"><title>5839</title>
<ellipse fill="white" stroke="black" cx="819.128" cy="-90.4472" rx="25" ry="25"/>
<text text-anchor="middle" x="819.128" y="-88.2472" font-family="Times,serif" font-size="9.00">5839</text>
</g>
<!-- &#45;21&#45;&gt;5839 -->
<g id="edge16" class="edge"><title>&#45;21&#45;&gt;5839</title>
<path fill="none" stroke="red" stroke-width="0.224453" stroke-dasharray="1,5" d="M44.7356,-619.623C43.5569,-594.055 40.128,-513.968 40.128,-447.579 40.128,-447.579 40.128,-447.579 40.128,-263.271 40.128,-94.4766 629.853,-181.387 785.128,-115.196 787.227,-114.301 789.327,-113.264 791.396,-112.134"/>
<polygon fill="red" stroke="red" stroke-width="0.224453" points="793.488,-114.956 800.167,-106.731 789.817,-108.996 793.488,-114.956"/>
</g>
<!-- &#45;22 -->
<g id="node22" class="node"><title>&#45;22</title>
<polygon fill="lightgray" stroke="black" points="1121.63,-881.46 1092.63,-881.46 1092.63,-863.46 1121.63,-863.46 1121.63,-881.46"/>
<text text-anchor="middle" x="1107.13" y="-870.26" font-family="Times,serif" font-size="9.00">&#45;22</text>
</g>
<!-- &#45;23 -->
<g id="node23" class="node"><title>&#45;23</title>
<polygon fill="lightgray" stroke="black" points="806.628,-881.46 777.628,-881.46 777.628,-863.46 806.628,-863.46 806.628,-881.46"/>
<text text-anchor="middle" x="792.128" y="-870.26" font-family="Times,serif" font-size="9.00">&#45;23</text>
</g>
<!-- &#45;23&#45;&gt;0 -->
<g id="edge2" class="edge"><title>&#45;23&#45;&gt;0</title>
<path fill="none" stroke="green" stroke-width="0.150275" stroke-dasharray="1,5" d="M806.88,-866.548C885.445,-840.385 1251.13,-718.589 1251.13,-718.214 1251.13,-718.214 1251.13,-718.214 1251.13,-263.271 1251.13,-210.741 1251.13,-149.178 1251.13,-115.864"/>
<polygon fill="green" stroke="green" stroke-width="0.150275" points="1254.63,-115.703 1251.13,-105.703 1247.63,-115.703 1254.63,-115.703"/>
</g>
<!-- 3986 -->
<g id="node32" class="node"><title>3986</title>
<ellipse fill="white" stroke="black" cx="228.128" cy="-355.425" rx="25" ry="25"/>
<text text-anchor="middle" x="228.128" y="-353.225" font-family="Times,serif" font-size="9.00">3986</text>
</g>
<!-- &#45;23&#45;&gt;3986 -->
<g id="edge43" class="edge"><title>&#45;23&#45;&gt;3986</title>
<path fill="none" stroke="red" stroke-width="0.892588" stroke-dasharray="1,5" d="M777.462,-866.369C774.392,-865.361 771.165,-864.342 768.128,-863.46 553.072,-801.005 432.304,-905.323 279.128,-741.963 231.851,-691.542 227.574,-475.165 227.757,-390.539"/>
<polygon fill="red" stroke="red" stroke-width="0.892588" points="231.257,-390.443 227.802,-380.427 224.257,-390.412 231.257,-390.443"/>
</g>
<!-- &#45;23&#45;&gt;4423 -->
<g id="edge49" class="edge"><title>&#45;23&#45;&gt;4423</title>
<path fill="none" stroke="red" stroke-width="0.357368" d="M789.281,-863.422C786.834,-856.516 783.138,-846.083 779.516,-835.859"/>
<polygon fill="red" stroke="red" stroke-width="0.357368" points="782.749,-834.501 776.11,-826.244 776.15,-836.839 782.749,-834.501"/>
</g>
<!-- &#45;24 -->
<g id="node24" class="node"><title>&#45;24</title>
<polygon fill="lightgray" stroke="black" points="776.628,-99.4472 747.628,-99.4472 747.628,-81.4472 776.628,-81.4472 776.628,-99.4472"/>
<text text-anchor="middle" x="762.128" y="-88.2472" font-family="Times,serif" font-size="9.00">&#45;24</text>
</g>
<!-- &#45;24&#45;&gt;3 -->
<g id="edge35" class="edge"><title>&#45;24&#45;&gt;3</title>
<path fill="none" stroke="green" stroke-width="1.08342" d="M769.586,-81.318C773.989,-76.6292 779.739,-70.692 785.128,-65.6985 798.237,-53.551 813.775,-40.6806 825.755,-31.0606"/>
<polygon fill="green" stroke="green" stroke-width="1.08342" points="828.118,-33.653 833.763,-24.6871 823.759,-28.176 828.118,-33.653"/>
</g>
<!-- 1 -->
<g id="node26" class="node"><title>1</title>
<ellipse fill="lightblue" stroke="black" cx="803.128" cy="-264.271" rx="14.7" ry="14.7"/>
<text text-anchor="middle" x="803.128" y="-262.071" font-family="Times,serif" font-size="9.00">1</text>
</g>
<!-- 2&#45;&gt;4053 -->
<g id="edge26" class="edge"><title>2&#45;&gt;4053</title>
<path fill="none" stroke="green" stroke-width="0.461755" stroke-dasharray="1,5" d="M376.967,-341.651C371.275,-329.849 362.589,-311.84 355.081,-296.273"/>
<polygon fill="green" stroke="green" stroke-width="0.461755" points="358.092,-294.46 350.595,-286.973 351.787,-297.501 358.092,-294.46"/>
</g>
<!-- 3847&#45;&gt;2005 -->
<g id="edge36" class="edge"><title>3847&#45;&gt;2005</title>
<path fill="none" stroke="red" stroke-width="1.13548" d="M891.108,-421.688C889.481,-412.016 887.573,-400.676 885.808,-390.186"/>
<polygon fill="red" stroke="red" stroke-width="1.13548" points="889.218,-389.354 884.107,-380.073 882.315,-390.516 889.218,-389.354"/>
</g>
<!-- 7694 -->
<g id="node31" class="node"><title>7694</title>
<ellipse fill="white" stroke="black" cx="1136.13" cy="-446.579" rx="25" ry="25"/>
<text text-anchor="middle" x="1136.13" y="-444.379" font-family="Times,serif" font-size="9.00">7694</text>
</g>
<!-- 7694&#45;&gt;2968 -->
<g id="edge42" class="edge"><title>7694&#45;&gt;2968</title>
<path fill="none" stroke="red" stroke-width="0.395026" d="M1142.03,-422.458C1151.37,-379.981 1164.1,-289.086 1118.13,-236.693 1087.24,-201.495 947.351,-185.354 881.11,-179.583"/>
<polygon fill="red" stroke="red" stroke-width="0.395026" points="881.022,-176.064 870.764,-178.715 880.436,-183.039 881.022,-176.064"/>
</g>
<!-- 3986&#45;&gt;2968 -->
<g id="edge40" class="edge"><title>3986&#45;&gt;2968</title>
<path fill="none" stroke="green" stroke-width="0.365369" stroke-dasharray="1,5" d="M236.183,-331.812C247.294,-304.256 270.13,-258.662 306.128,-236.693 391.461,-184.618 705.704,-177.817 811.274,-177.018"/>
<polygon fill="green" stroke="green" stroke-width="0.365369" points="811.417,-180.517 821.395,-176.955 811.373,-173.517 811.417,-180.517"/>
</g>
<!-- 3986&#45;&gt;4053 -->
<g id="edge17" class="edge"><title>3986&#45;&gt;4053</title>
<path fill="none" stroke="red" stroke-width="0.200398" stroke-dasharray="1,5" d="M247.127,-339.301C265.229,-324.892 292.666,-303.051 313.053,-286.823"/>
<polygon fill="red" stroke="red" stroke-width="0.200398" points="315.391,-289.435 321.036,-280.469 311.032,-283.958 315.391,-289.435"/>
</g>
<!-- 11670 -->
<g id="node33" class="node"><title>11670</title>
<ellipse fill="white" stroke="black" cx="666.128" cy="-537.734" rx="27.6545" ry="27.6545"/>
<text text-anchor="middle" x="666.128" y="-535.534" font-family="Times,serif" font-size="9.00">11670</text>
</g>
<!-- 11670&#45;&gt;2968 -->
<g id="edge38" class="edge"><title>11670&#45;&gt;2968</title>
<path fill="none" stroke="red" stroke-width="1.32413" stroke-dasharray="1,5" d="M661.905,-510.269C654.42,-453.728 645.048,-319.561 708.128,-236.693 733.099,-203.89 779.771,-188.821 811.871,-182.09"/>
<polygon fill="red" stroke="red" stroke-width="1.32413" points="812.58,-185.518 821.735,-180.186 811.253,-178.645 812.58,-185.518"/>
</g>
<!-- 2968&#45;&gt;0 -->
<g id="edge18" class="edge"><title>2968&#45;&gt;0</title>
<path fill="none" stroke="red" stroke-width="1.18113" stroke-dasharray="1,5" d="M870.25,-169.972C942.167,-155.145 1154.58,-111.352 1226.79,-96.4659"/>
<polygon fill="red" stroke="red" stroke-width="1.18113" points="1227.67,-99.8569 1236.76,-94.4097 1226.26,-93.0011 1227.67,-99.8569"/>
</g>
<!-- 2968&#45;&gt;3 -->
<g id="edge64" class="edge"><title>2968&#45;&gt;3</title>
<path fill="none" stroke="red" stroke-width="1.19121" stroke-dasharray="1,5" d="M849.559,-151.16C850.97,-140.23 852.434,-127.082 853.128,-115.196 854.41,-93.2345 854.876,-87.6278 853.128,-65.6985 852.45,-57.1932 851.131,-47.9485 849.756,-39.7565"/>
<polygon fill="red" stroke="red" stroke-width="1.19121" points="853.172,-38.9724 847.966,-29.7444 846.281,-40.2043 853.172,-38.9724"/>
</g>
<!-- 2968&#45;&gt;5839 -->
<g id="edge9" class="edge"><title>2968&#45;&gt;5839</title>
<path fill="none" stroke="green" stroke-width="0.128937" stroke-dasharray="1,5" d="M838.75,-152.129C835.923,-143.384 832.64,-133.235 829.579,-123.767"/>
<polygon fill="green" stroke="green" stroke-width="0.128937" points="832.904,-122.674 826.497,-114.236 826.244,-124.827 832.904,-122.674"/>
</g>
<!-- 12478 -->
<g id="node41" class="node"><title>12478</title>
<ellipse fill="white" stroke="black" cx="134.128" cy="-446.579" rx="27.6545" ry="27.6545"/>
<text text-anchor="middle" x="134.128" y="-444.379" font-family="Times,serif" font-size="9.00">12478</text>
</g>
<!-- 13080&#45;&gt;12478 -->
<g id="edge39" class="edge"><title>13080&#45;&gt;12478</title>
<path fill="none" stroke="red" stroke-width="0.82131" d="M113.516,-510.946C116.396,-502.091 119.671,-492.025 122.748,-482.565"/>
<polygon fill="red" stroke="red" stroke-width="0.82131" points="126.094,-483.593 125.859,-473.001 119.437,-481.427 126.094,-483.593"/>
</g>
<!-- 2714&#45;&gt;1 -->
<g id="edge54" class="edge"><title>2714&#45;&gt;1</title>
<path fill="none" stroke="green" stroke-width="1.56644" stroke-dasharray="1,5" d="M810.448,-330.533C809.011,-317.719 807.245,-301.975 805.808,-289.161"/>
<polygon fill="green" stroke="green" stroke-width="1.56644" points="809.285,-288.762 804.692,-279.215 802.329,-289.543 809.285,-288.762"/>
</g>
<!-- 13733 -->
<g id="node37" class="node"><title>13733</title>
<ellipse fill="white" stroke="black" cx="593.128" cy="-537.734" rx="27.6545" ry="27.6545"/>
<text text-anchor="middle" x="593.128" y="-535.534" font-family="Times,serif" font-size="9.00">13733</text>
</g>
<!-- 13733&#45;&gt;2796 -->
<g id="edge25" class="edge"><title>13733&#45;&gt;2796</title>
<path fill="none" stroke="green" stroke-width="0.530265" d="M572.778,-519.12C556.509,-505.037 533.597,-485.205 516.021,-469.992"/>
<polygon fill="green" stroke="green" stroke-width="0.530265" points="518.216,-467.263 508.364,-463.364 513.635,-472.555 518.216,-467.263"/>
</g>
<!-- 9126&#45;&gt;3986 -->
<g id="edge52" class="edge"><title>9126&#45;&gt;3986</title>
<path fill="none" stroke="red" stroke-width="0.57727" d="M181.84,-513.897C191.094,-482.417 207.826,-425.493 218.436,-389.396"/>
<polygon fill="red" stroke="red" stroke-width="0.57727" points="221.924,-389.941 221.386,-379.36 215.208,-387.967 221.924,-389.941"/>
</g>
<!-- 9126&#45;&gt;12478 -->
<g id="edge10" class="edge"><title>9126&#45;&gt;12478</title>
<path fill="none" stroke="green" stroke-width="0.159182" d="M164.993,-514.695C160.325,-504.544 154.683,-492.275 149.506,-481.019"/>
<polygon fill="green" stroke="green" stroke-width="0.159182" points="152.657,-479.494 145.299,-471.871 146.298,-482.419 152.657,-479.494"/>
</g>
<!-- 9126&#45;&gt;4053 -->
<g id="edge60" class="edge"><title>9126&#45;&gt;4053</title>
<path fill="none" stroke="red" stroke-width="1.15473" stroke-dasharray="1,5" d="M188.465,-516.869C196.596,-504.639 207.121,-488.591 216.128,-474.156 255.481,-411.089 299.43,-335.838 322.988,-295.082"/>
<polygon fill="red" stroke="red" stroke-width="1.15473" points="326.142,-296.619 328.11,-286.208 320.08,-293.119 326.142,-296.619"/>
</g>
<!-- 11053 -->
<g id="node39" class="node"><title>11053</title>
<ellipse fill="white" stroke="black" cx="284.128" cy="-537.734" rx="27.6545" ry="27.6545"/>
<text text-anchor="middle" x="284.128" y="-535.534" font-family="Times,serif" font-size="9.00">11053</text>
</g>
<!-- 11053&#45;&gt;2796 -->
<g id="edge51" class="edge"><title>11053&#45;&gt;2796</title>
<path fill="none" stroke="red" stroke-width="0.430665" d="M309.388,-525.802C346.885,-509.573 417.248,-479.121 458.244,-461.378"/>
<polygon fill="red" stroke="red" stroke-width="0.430665" points="459.718,-464.554 467.505,-457.37 456.938,-458.13 459.718,-464.554"/>
</g>
<!-- 13361&#45;&gt;11053 -->
<g id="edge21" class="edge"><title>13361&#45;&gt;11053</title>
<path fill="none" stroke="red" stroke-width="0.881684" d="M297.53,-601.621C295.733,-593.187 293.71,-583.694 291.791,-574.69"/>
<polygon fill="red" stroke="red" stroke-width="0.881684" points="295.193,-573.864 289.686,-564.813 288.347,-575.323 295.193,-573.864"/>
</g>
<!-- 12478&#45;&gt;3986 -->
<g id="edge31" class="edge"><title>12478&#45;&gt;3986</title>
<path fill="none" stroke="green" stroke-width="0.147488" d="M154.063,-426.672C168.29,-413.179 187.535,-394.925 202.842,-380.407"/>
<polygon fill="green" stroke="green" stroke-width="0.147488" points="205.593,-382.622 210.44,-373.201 200.776,-377.543 205.593,-382.622"/>
</g>
<!-- 13894 -->
<g id="node42" class="node"><title>13894</title>
<ellipse fill="white" stroke="black" cx="632.128" cy="-628.888" rx="27.6545" ry="27.6545"/>
<text text-anchor="middle" x="632.128" y="-626.688" font-family="Times,serif" font-size="9.00">13894</text>
</g>
<!-- 13894&#45;&gt;11670 -->
<g id="edge14" class="edge"><title>13894&#45;&gt;11670</title>
<path fill="none" stroke="green" stroke-width="0.502299" d="M641.78,-602.578C645.255,-593.466 649.237,-583.024 652.961,-573.261"/>
<polygon fill="green" stroke="green" stroke-width="0.502299" points="656.276,-574.389 656.569,-563.798 649.736,-571.894 656.276,-574.389"/>
</g>
<!-- 4423&#45;&gt;2968 -->
<g id="edge58" class="edge"><title>4423&#45;&gt;2968</title>
<path fill="none" stroke="green" stroke-width="0.910013" stroke-dasharray="1,5" d="M792.687,-797.772C885.976,-782.126 1213.13,-720.778 1213.13,-629.888 1213.13,-629.888 1213.13,-629.888 1213.13,-354.425 1213.13,-293.999 1194.23,-271.908 1145.13,-236.693 1102.98,-206.47 950.19,-187.51 880.818,-180.277"/>
<polygon fill="green" stroke="green" stroke-width="0.910013" points="881.124,-176.79 870.82,-179.256 880.412,-183.754 881.124,-176.79"/>
</g>
<!-- 4423&#45;&gt;5233 -->
<g id="edge45" class="edge"><title>4423&#45;&gt;5233</title>
<path fill="none" stroke="green" stroke-width="0.913325" d="M769.101,-777.82C770.305,-748.282 772.361,-697.799 773.733,-664.141"/>
<polygon fill="green" stroke="green" stroke-width="0.913325" points="777.242,-663.987 774.152,-653.853 770.247,-663.702 777.242,-663.987"/>
</g>
<!-- 8318 -->
<g id="node55" class="node"><title>8318</title>
<ellipse fill="white" stroke="black" cx="715.128" cy="-717.214" rx="25" ry="25"/>
<text text-anchor="middle" x="715.128" y="-715.014" font-family="Times,serif" font-size="9.00">8318</text>
</g>
<!-- 4423&#45;&gt;8318 -->
<g id="edge44" class="edge"><title>4423&#45;&gt;8318</title>
<path fill="none" stroke="green" stroke-width="1.31587" d="M755.298,-781.499C748.771,-771.216 740.721,-758.534 733.545,-747.228"/>
<polygon fill="green" stroke="green" stroke-width="1.31587" points="736.337,-745.097 728.023,-738.529 730.427,-748.848 736.337,-745.097"/>
</g>
<!-- 10445&#45;&gt;2968 -->
<g id="edge5" class="edge"><title>10445&#45;&gt;2968</title>
<path fill="none" stroke="green" stroke-width="1.0745" stroke-dasharray="1,5" d="M1060.21,-245.971C1055.45,-242.571 1050.27,-239.265 1045.13,-236.693 990.521,-209.379 921.127,-192.064 880.374,-183.466"/>
<polygon fill="green" stroke="green" stroke-width="1.0745" points="880.91,-180.004 870.411,-181.419 879.501,-186.86 880.91,-180.004"/>
</g>
<!-- 5839&#45;&gt;3 -->
<g id="edge6" class="edge"><title>5839&#45;&gt;3</title>
<path fill="none" stroke="red" stroke-width="0.313876" d="M827.07,-66.9655C830.238,-57.997 833.882,-47.6843 837.062,-38.6813"/>
<polygon fill="red" stroke="red" stroke-width="0.313876" points="840.375,-39.8094 840.406,-29.2146 833.775,-37.4777 840.375,-39.8094"/>
</g>
<!-- 2005&#45;&gt;1 -->
<g id="edge56" class="edge"><title>2005&#45;&gt;1</title>
<path fill="none" stroke="green" stroke-width="0.746458" d="M864.174,-335.952C851.091,-320.804 832.645,-299.446 819.46,-284.18"/>
<polygon fill="green" stroke="green" stroke-width="0.746458" points="821.929,-281.685 812.744,-276.404 816.631,-286.26 821.929,-281.685"/>
</g>
<!-- 2005&#45;&gt;2968 -->
<g id="edge61" class="edge"><title>2005&#45;&gt;2968</title>
<path fill="none" stroke="green" stroke-width="0.192992" stroke-dasharray="1,5" d="M874.176,-331.332C871.248,-319.559 867.786,-304.988 865.128,-291.848 859.636,-264.694 854.58,-233.692 851.067,-210.739"/>
<polygon fill="green" stroke="green" stroke-width="0.192992" points="854.52,-210.167 849.565,-200.802 847.599,-211.213 854.52,-210.167"/>
</g>
<!-- 4053&#45;&gt;2968 -->
<g id="edge33" class="edge"><title>4053&#45;&gt;2968</title>
<path fill="none" stroke="green" stroke-width="0.216977" d="M364.533,-259.107C447.02,-245.034 715.615,-199.211 811.621,-182.832"/>
<polygon fill="green" stroke="green" stroke-width="0.216977" points="812.403,-186.249 821.672,-181.117 811.226,-179.349 812.403,-186.249"/>
</g>
<!-- 13404&#45;&gt;2796 -->
<g id="edge70" class="edge"><title>13404&#45;&gt;2796</title>
<path fill="none" stroke="green" stroke-width="0.475566" d="M448.549,-513.774C455.625,-502.509 464.228,-488.814 471.768,-476.81"/>
<polygon fill="green" stroke="green" stroke-width="0.475566" points="474.929,-478.358 477.284,-468.028 469.001,-474.634 474.929,-478.358"/>
</g>
<!-- 11383 -->
<g id="node54" class="node"><title>11383</title>
<ellipse fill="white" stroke="black" cx="1008.13" cy="-264.271" rx="27.6545" ry="27.6545"/>
<text text-anchor="middle" x="1008.13" y="-262.071" font-family="Times,serif" font-size="9.00">11383</text>
</g>
<!-- 10719&#45;&gt;11383 -->
<g id="edge66" class="edge"><title>10719&#45;&gt;11383</title>
<path fill="none" stroke="green" stroke-width="0.318379" d="M1008.83,-327.676C1008.74,-319.653 1008.64,-310.709 1008.54,-302.154"/>
<polygon fill="green" stroke="green" stroke-width="0.318379" points="1012.04,-301.961 1008.43,-292.001 1005.04,-302.04 1012.04,-301.961"/>
</g>
<!-- 13024 -->
<g id="node50" class="node"><title>13024</title>
<ellipse fill="white" stroke="black" cx="105.128" cy="-628.888" rx="27.6545" ry="27.6545"/>
<text text-anchor="middle" x="105.128" y="-626.688" font-family="Times,serif" font-size="9.00">13024</text>
</g>
<!-- 13024&#45;&gt;9126 -->
<g id="edge63" class="edge"><title>13024&#45;&gt;9126</title>
<path fill="none" stroke="red" stroke-width="0.742061" d="M121.717,-606.76C131.335,-594.51 143.546,-578.958 153.864,-565.817"/>
<polygon fill="red" stroke="red" stroke-width="0.742061" points="156.902,-567.615 160.324,-557.588 151.396,-563.292 156.902,-567.615"/>
</g>
<!-- 4708 -->
<g id="node51" class="node"><title>4708</title>
<ellipse fill="white" stroke="black" cx="161.128" cy="-717.214" rx="25" ry="25"/>
<text text-anchor="middle" x="161.128" y="-715.014" font-family="Times,serif" font-size="9.00">4708</text>
</g>
<!-- 4708&#45;&gt;3986 -->
<g id="edge67" class="edge"><title>4708&#45;&gt;3986</title>
<path fill="none" stroke="green" stroke-width="0.597621" stroke-dasharray="1,5" d="M136.465,-714.97C100.542,-711.675 34.8767,-699.715 5.12798,-656.465 -11.0608,-632.929 16.993,-516.952 20.128,-510.156 42.3446,-462.002 55.1516,-451.413 97.128,-419.002 127.156,-395.817 167.159,-378.263 195.027,-367.734"/>
<polygon fill="green" stroke="green" stroke-width="0.597621" points="196.527,-370.911 204.704,-364.175 194.111,-364.342 196.527,-370.911"/>
</g>
<!-- 4708&#45;&gt;11670 -->
<g id="edge34" class="edge"><title>4708&#45;&gt;11670</title>
<path fill="none" stroke="red" stroke-width="0.271941" stroke-dasharray="1,5" d="M185.383,-711.331C255.2,-697.269 451.898,-657.609 455.128,-656.465 537.794,-627.19 555.737,-611.751 630.128,-565.311 632.261,-563.979 634.431,-562.559 636.594,-561.094"/>
<polygon fill="red" stroke="red" stroke-width="0.271941" points="638.642,-563.932 644.807,-555.316 634.615,-558.207 638.642,-563.932"/>
</g>
<!-- 4708&#45;&gt;2968 -->
<g id="edge15" class="edge"><title>4708&#45;&gt;2968</title>
<path fill="none" stroke="red" stroke-width="0.347773" stroke-dasharray="1,5" d="M185.403,-710.54C209.167,-705.172 246.459,-697.246 279.128,-692.465 365.246,-679.861 598.288,-707.03 669.128,-656.465 715.833,-623.127 722.128,-596.116 722.128,-538.734 722.128,-538.734 722.128,-538.734 722.128,-354.425 722.128,-299.837 724.78,-280.665 757.128,-236.693 771.818,-216.725 795.317,-201.361 814.48,-191.215"/>
<polygon fill="red" stroke="red" stroke-width="0.347773" points="816.141,-194.297 823.481,-186.657 812.979,-188.052 816.141,-194.297"/>
</g>
<!-- 4708&#45;&gt;9126 -->
<g id="edge53" class="edge"><title>4708&#45;&gt;9126</title>
<path fill="none" stroke="green" stroke-width="0.171744" stroke-dasharray="1,5" d="M163.016,-692.278C165.444,-661.495 169.677,-607.835 172.441,-572.801"/>
<polygon fill="green" stroke="green" stroke-width="0.171744" points="175.95,-572.817 173.247,-562.573 168.972,-572.267 175.95,-572.817"/>
</g>
<!-- 4708&#45;&gt;12478 -->
<g id="edge71" class="edge"><title>4708&#45;&gt;12478</title>
<path fill="none" stroke="green" stroke-width="0.779313" d="M136.446,-713.766C103.642,-709.039 46.8339,-695.385 21.128,-656.465 -21.4233,-592.041 58.7363,-510.101 104.855,-470.74"/>
<polygon fill="green" stroke="green" stroke-width="0.779313" points="107.338,-473.226 112.76,-464.124 102.845,-467.858 107.338,-473.226"/>
</g>
<!-- 4708&#45;&gt;13894 -->
<g id="edge4" class="edge"><title>4708&#45;&gt;13894</title>
<path fill="none" stroke="red" stroke-width="0.206311" d="M185.466,-710.934C209.277,-705.859 246.603,-698.143 279.128,-692.465 386.68,-673.688 414.957,-677.307 522.128,-656.465 546.822,-651.663 574.333,-645.015 595.665,-639.57"/>
<polygon fill="red" stroke="red" stroke-width="0.206311" points="596.793,-642.894 605.602,-637.007 595.044,-636.116 596.793,-642.894"/>
</g>
<!-- 4708&#45;&gt;13024 -->
<g id="edge72" class="edge"><title>4708&#45;&gt;13024</title>
<path fill="none" stroke="red" stroke-width="0.317811" d="M147.857,-695.756C141.104,-685.346 132.753,-672.474 125.231,-660.878"/>
<polygon fill="red" stroke="red" stroke-width="0.317811" points="128.059,-658.805 119.68,-652.321 122.186,-662.615 128.059,-658.805"/>
</g>
<!-- 2796&#45;&gt;3986 -->
<g id="edge28" class="edge"><title>2796&#45;&gt;3986</title>
<path fill="none" stroke="green" stroke-width="0.556411" stroke-dasharray="1,5" d="M466.877,-437.667C420.169,-421.773 314.822,-385.925 261.051,-367.628"/>
<polygon fill="green" stroke="green" stroke-width="0.556411" points="261.921,-364.227 251.327,-364.319 259.666,-370.854 261.921,-364.227"/>
</g>
<!-- 2796&#45;&gt;2714 -->
<g id="edge30" class="edge"><title>2796&#45;&gt;2714</title>
<path fill="none" stroke="red" stroke-width="0.91307" stroke-dasharray="1,5" d="M513.879,-439.024C570.578,-423.373 713.981,-383.792 779.518,-365.702"/>
<polygon fill="red" stroke="red" stroke-width="0.91307" points="780.634,-369.025 789.342,-362.99 778.771,-362.277 780.634,-369.025"/>
</g>
<!-- 5233&#45;&gt;7694 -->
<g id="edge19" class="edge"><title>5233&#45;&gt;7694</title>
<path fill="none" stroke="green" stroke-width="0.320329" d="M797.852,-618.732C826.466,-607.04 876.983,-585.853 919.128,-565.311 987.185,-532.14 1064.64,-488.692 1106.12,-464.943"/>
<polygon fill="green" stroke="green" stroke-width="0.320329" points="1107.96,-467.92 1114.89,-459.906 1104.48,-461.849 1107.96,-467.92"/>
</g>
<!-- 5233&#45;&gt;2968 -->
<g id="edge13" class="edge"><title>5233&#45;&gt;2968</title>
<path fill="none" stroke="red" stroke-width="0.115771" d="M771.91,-604.312C767.503,-569.925 760.128,-503.963 760.128,-447.579 760.128,-447.579 760.128,-447.579 760.128,-354.425 760.128,-301.423 753.658,-283.175 779.128,-236.693 788.121,-220.281 803.419,-206.12 817.128,-195.709"/>
<polygon fill="red" stroke="red" stroke-width="0.115771" points="819.343,-198.426 825.388,-189.725 815.236,-192.757 819.343,-198.426"/>
</g>
<!-- 5233&#45;&gt;13080 -->
<g id="edge59" class="edge"><title>5233&#45;&gt;13080</title>
<path fill="none" stroke="green" stroke-width="0.327355" d="M751.382,-620.645C730.062,-614.453 697.799,-605.846 669.128,-601.311 552.966,-582.938 251.522,-605.859 141.128,-565.311 138.703,-564.42 136.301,-563.313 133.957,-562.059"/>
<polygon fill="green" stroke="green" stroke-width="0.327355" points="135.613,-558.968 125.273,-556.655 131.914,-564.911 135.613,-558.968"/>
</g>
<!-- 8318&#45;&gt;5233 -->
<g id="edge29" class="edge"><title>8318&#45;&gt;5233</title>
<path fill="none" stroke="red" stroke-width="0.384728" stroke-dasharray="1,5" d="M729.044,-696.192C736.92,-684.861 746.895,-670.509 755.549,-658.057"/>
<polygon fill="red" stroke="red" stroke-width="0.384728" points="758.454,-660.01 761.287,-649.801 752.706,-656.015 758.454,-660.01"/>
</g>
</g>
</svg>
