<?xml version="1.0" encoding="UTF-8" standalone="no"?>
<!DOCTYPE svg PUBLIC "-//W3C//DTD SVG 1.1//EN"
 "http://www.w3.org/Graphics/SVG/1.1/DTD/svg11.dtd">
<!-- Generated by graphviz version 2.38.0 (20140413.2041)
 -->
<!-- Title: %3 Pages: 1 -->
<svg width="1710pt" height="197pt"
 viewBox="0.00 0.00 1709.92 196.99" xmlns="http://www.w3.org/2000/svg" xmlns:xlink="http://www.w3.org/1999/xlink">
<g id="graph0" class="graph" transform="scale(1 1) rotate(0) translate(4 192.995)">
<title>%3</title>
<polygon fill="white" stroke="none" points="-4,4 -4,-192.995 1705.92,-192.995 1705.92,4 -4,4"/>
<!-- &#45;1 -->
<g id="node1" class="node"><title>&#45;1</title>
<polygon fill="lightgray" stroke="black" points="1394.42,-188.995 1370.42,-188.995 1370.42,-170.995 1394.42,-170.995 1394.42,-188.995"/>
<text text-anchor="middle" x="1382.42" y="-177.795" font-family="Times,serif" font-size="9.00">&#45;1</text>
</g>
<!-- 0 -->
<g id="node25" class="node"><title>0</title>
<ellipse fill="lightblue" stroke="black" cx="677.419" cy="-24.7487" rx="14.7" ry="14.7"/>
<text text-anchor="middle" x="677.419" y="-22.5487" font-family="Times,serif" font-size="9.00">0</text>
</g>
<!-- &#45;1&#45;&gt;0 -->
<g id="edge3" class="edge"><title>&#45;1&#45;&gt;0</title>
<path fill="none" stroke="red" stroke-width="0.444967" d="M1370.18,-178.621C1290.95,-176.126 852.348,-161.201 799.419,-134.995 773.04,-121.935 776.977,-105.537 755.419,-85.4975 736.97,-68.3492 713.855,-51.1055 697.593,-39.5813"/>
<polygon fill="red" stroke="red" stroke-width="0.444967" points="699.537,-36.6698 689.337,-33.8043 695.523,-42.4052 699.537,-36.6698"/>
</g>
<!-- 1 -->
<g id="node26" class="node"><title>1</title>
<ellipse fill="lightblue" stroke="black" cx="353.419" cy="-24.7487" rx="14.7" ry="14.7"/>
<text text-anchor="middle" x="353.419" y="-22.5487" font-family="Times,serif" font-size="9.00">1</text>
</g>
<!-- &#45;1&#45;&gt;1 -->
<g id="edge16" class="edge"><title>&#45;1&#45;&gt;1</title>
<path fill="none" stroke="green" stroke-width="1.02346" stroke-dasharray="1,5" d="M1370.27,-178.677C1257.15,-175.693 392.131,-152.321 372.419,-134.995 348.739,-114.181 347.58,-75.2905 349.819,-49.9682"/>
<polygon fill="green" stroke="green" stroke-width="1.02346" points="353.332,-50.0496 350.974,-39.7204 346.376,-49.2654 353.332,-50.0496"/>
</g>
<!-- 3 -->
<g id="node28" class="node"><title>3</title>
<ellipse fill="lightblue" stroke="black" cx="1372.42" cy="-24.7487" rx="14.7" ry="14.7"/>
<text text-anchor="middle" x="1372.42" y="-22.5487" font-family="Times,serif" font-size="9.00">3</text>
</g>
<!-- &#45;1&#45;&gt;3 -->
<g id="edge51" class="edge"><title>&#45;1&#45;&gt;3</title>
<path fill="none" stroke="green" stroke-width="0.169775" stroke-dasharray="1,5" d="M1381.88,-170.756C1380.42,-148.316 1376.31,-85.4515 1374.02,-50.309"/>
<polygon fill="green" stroke="green" stroke-width="0.169775" points="1377.49,-49.7104 1373.35,-39.9596 1370.5,-50.1663 1377.49,-49.7104"/>
</g>
<!-- 8512 -->
<g id="node29" class="node"><title>8512</title>
<ellipse fill="white" stroke="black" cx="1435.42" cy="-110.246" rx="25" ry="25"/>
<text text-anchor="middle" x="1435.42" y="-108.046" font-family="Times,serif" font-size="9.00">8512</text>
</g>
<!-- &#45;1&#45;&gt;8512 -->
<g id="edge37" class="edge"><title>&#45;1&#45;&gt;8512</title>
<path fill="none" stroke="green" stroke-width="0.235555" d="M1388.71,-170.957C1395.03,-162.869 1405.15,-149.943 1414.35,-138.183"/>
<polygon fill="green" stroke="green" stroke-width="0.235555" points="1417.11,-140.334 1420.51,-130.301 1411.59,-136.021 1417.11,-140.334"/>
</g>
<!-- 9328 -->
<g id="node33" class="node"><title>9328</title>
<ellipse fill="white" stroke="black" cx="1502.42" cy="-110.246" rx="25" ry="25"/>
<text text-anchor="middle" x="1502.42" y="-108.046" font-family="Times,serif" font-size="9.00">9328</text>
</g>
<!-- &#45;1&#45;&gt;9328 -->
<g id="edge64" class="edge"><title>&#45;1&#45;&gt;9328</title>
<path fill="none" stroke="green" stroke-width="0.3" d="M1394.56,-173.587C1411.67,-165.801 1443.67,-150.64 1469.42,-134.995 1471.09,-133.978 1472.79,-132.902 1474.49,-131.793"/>
<polygon fill="green" stroke="green" stroke-width="0.3" points="1476.58,-134.604 1482.87,-126.076 1472.63,-128.823 1476.58,-134.604"/>
</g>
<!-- &#45;2 -->
<g id="node2" class="node"><title>&#45;2</title>
<polygon fill="lightgray" stroke="black" points="865.419,-119.246 841.419,-119.246 841.419,-101.246 865.419,-101.246 865.419,-119.246"/>
<text text-anchor="middle" x="853.419" y="-108.046" font-family="Times,serif" font-size="9.00">&#45;2</text>
</g>
<!-- &#45;2&#45;&gt;0 -->
<g id="edge26" class="edge"><title>&#45;2&#45;&gt;0</title>
<path fill="none" stroke="red" stroke-width="0.758518" d="M845.841,-100.944C840.956,-95.9616 834.257,-89.7814 827.419,-85.4975 786.406,-59.8064 732.49,-41.593 701.727,-32.456"/>
<polygon fill="red" stroke="red" stroke-width="0.758518" points="702.449,-29.0215 691.87,-29.6052 700.504,-35.7459 702.449,-29.0215"/>
</g>
<!-- 2 -->
<g id="node27" class="node"><title>2</title>
<ellipse fill="lightblue" stroke="black" cx="1026.42" cy="-24.7487" rx="14.7" ry="14.7"/>
<text text-anchor="middle" x="1026.42" y="-22.5487" font-family="Times,serif" font-size="9.00">2</text>
</g>
<!-- &#45;2&#45;&gt;2 -->
<g id="edge39" class="edge"><title>&#45;2&#45;&gt;2</title>
<path fill="none" stroke="red" stroke-width="0.268575" stroke-dasharray="1,5" d="M859.237,-100.86C863.069,-95.847 868.466,-89.6632 874.419,-85.4975 914.732,-57.2832 970.238,-39.8647 1001.81,-31.5707"/>
<polygon fill="red" stroke="red" stroke-width="0.268575" points="1003.08,-34.8598 1011.92,-29.0148 1001.37,-28.0735 1003.08,-34.8598"/>
</g>
<!-- &#45;3 -->
<g id="node3" class="node"><title>&#45;3</title>
<polygon fill="lightgray" stroke="black" points="1612.42,-188.995 1588.42,-188.995 1588.42,-170.995 1612.42,-170.995 1612.42,-188.995"/>
<text text-anchor="middle" x="1600.42" y="-177.795" font-family="Times,serif" font-size="9.00">&#45;3</text>
</g>
<!-- &#45;4 -->
<g id="node4" class="node"><title>&#45;4</title>
<polygon fill="lightgray" stroke="black" points="709.419,-119.246 685.419,-119.246 685.419,-101.246 709.419,-101.246 709.419,-119.246"/>
<text text-anchor="middle" x="697.419" y="-108.046" font-family="Times,serif" font-size="9.00">&#45;4</text>
</g>
<!-- &#45;4&#45;&gt;0 -->
<g id="edge44" class="edge"><title>&#45;4&#45;&gt;0</title>
<path fill="none" stroke="red" stroke-width="0.477913" stroke-dasharray="1,5" d="M695.501,-101.24C692.667,-89.4093 687.247,-66.7806 683.077,-49.3709"/>
<polygon fill="red" stroke="red" stroke-width="0.477913" points="686.409,-48.258 680.676,-39.3484 679.602,-49.8887 686.409,-48.258"/>
</g>
<!-- &#45;4&#45;&gt;1 -->
<g id="edge58" class="edge"><title>&#45;4&#45;&gt;1</title>
<path fill="none" stroke="green" stroke-width="0.350889" stroke-dasharray="1,5" d="M685.171,-106.236C666.774,-101.717 630.91,-92.918 600.419,-85.4975 518.64,-65.5955 421.58,-42.1757 377.427,-31.533"/>
<polygon fill="green" stroke="green" stroke-width="0.350889" points="378.165,-28.1106 367.623,-29.1701 376.524,-34.9157 378.165,-28.1106"/>
</g>
<!-- &#45;4&#45;&gt;3 -->
<g id="edge24" class="edge"><title>&#45;4&#45;&gt;3</title>
<path fill="none" stroke="red" stroke-width="0.474371" stroke-dasharray="1,5" d="M709.64,-106.66C733.252,-101.76 786.834,-91.1134 832.419,-85.4975 944.301,-71.7137 1232.16,-87.1303 1338.42,-49.4975 1343.71,-47.6226 1348.94,-44.6855 1353.64,-41.5076"/>
<polygon fill="red" stroke="red" stroke-width="0.474371" points="1356.02,-44.1034 1361.93,-35.3156 1351.83,-38.4947 1356.02,-44.1034"/>
</g>
<!-- &#45;5 -->
<g id="node5" class="node"><title>&#45;5</title>
<polygon fill="lightgray" stroke="black" points="1226.42,-119.246 1202.42,-119.246 1202.42,-101.246 1226.42,-101.246 1226.42,-119.246"/>
<text text-anchor="middle" x="1214.42" y="-108.046" font-family="Times,serif" font-size="9.00">&#45;5</text>
</g>
<!-- &#45;5&#45;&gt;0 -->
<g id="edge34" class="edge"><title>&#45;5&#45;&gt;0</title>
<path fill="none" stroke="red" stroke-width="2.19734" d="M1209.6,-101.233C1205.89,-95.8309 1200.25,-89.0625 1193.42,-85.4975 1149.39,-62.5214 799.142,-34.8515 702.206,-27.5736"/>
<polygon fill="red" stroke="red" stroke-width="2.19734" points="702.392,-24.0779 692.16,-26.8245 701.872,-31.0585 702.392,-24.0779"/>
</g>
<!-- &#45;5&#45;&gt;3 -->
<g id="edge48" class="edge"><title>&#45;5&#45;&gt;3</title>
<path fill="none" stroke="green" stroke-width="0.156041" stroke-dasharray="1,5" d="M1220.54,-100.796C1224.56,-95.7589 1230.22,-89.5721 1236.42,-85.4975 1276.59,-59.0935 1295.66,-71.4623 1338.42,-49.4975 1343.34,-46.9716 1348.36,-43.8245 1352.99,-40.6561"/>
<polygon fill="green" stroke="green" stroke-width="0.156041" points="1355.2,-43.3804 1361.26,-34.6947 1351.1,-37.7011 1355.2,-43.3804"/>
</g>
<!-- &#45;6 -->
<g id="node6" class="node"><title>&#45;6</title>
<polygon fill="lightgray" stroke="black" points="1316.42,-119.246 1292.42,-119.246 1292.42,-101.246 1316.42,-101.246 1316.42,-119.246"/>
<text text-anchor="middle" x="1304.42" y="-108.046" font-family="Times,serif" font-size="9.00">&#45;6</text>
</g>
<!-- &#45;6&#45;&gt;2 -->
<g id="edge12" class="edge"><title>&#45;6&#45;&gt;2</title>
<path fill="none" stroke="red" stroke-width="0.229284" stroke-dasharray="1,5" d="M1299.14,-101.01C1295.37,-95.7933 1289.85,-89.3304 1283.42,-85.4975 1207.31,-40.1246 1099.49,-29.2068 1051.33,-26.5803"/>
<polygon fill="red" stroke="red" stroke-width="0.229284" points="1051.36,-23.0779 1041.21,-26.1051 1051.03,-30.0702 1051.36,-23.0779"/>
</g>
<!-- 7994 -->
<g id="node36" class="node"><title>7994</title>
<ellipse fill="white" stroke="black" cx="1304.42" cy="-24.7487" rx="25" ry="25"/>
<text text-anchor="middle" x="1304.42" y="-22.5487" font-family="Times,serif" font-size="9.00">7994</text>
</g>
<!-- &#45;6&#45;&gt;7994 -->
<g id="edge38" class="edge"><title>&#45;6&#45;&gt;7994</title>
<path fill="none" stroke="green" stroke-width="0.354816" d="M1304.42,-101.24C1304.42,-91.6887 1304.42,-75.0995 1304.42,-59.9004"/>
<polygon fill="green" stroke="green" stroke-width="0.354816" points="1307.92,-59.7037 1304.42,-49.7037 1300.92,-59.7038 1307.92,-59.7037"/>
</g>
<!-- &#45;7 -->
<g id="node7" class="node"><title>&#45;7</title>
<polygon fill="lightgray" stroke="black" points="1654.42,-188.995 1630.42,-188.995 1630.42,-170.995 1654.42,-170.995 1654.42,-188.995"/>
<text text-anchor="middle" x="1642.42" y="-177.795" font-family="Times,serif" font-size="9.00">&#45;7</text>
</g>
<!-- &#45;8 -->
<g id="node8" class="node"><title>&#45;8</title>
<polygon fill="lightgray" stroke="black" points="107.419,-188.995 83.4186,-188.995 83.4186,-170.995 107.419,-170.995 107.419,-188.995"/>
<text text-anchor="middle" x="95.4186" y="-177.795" font-family="Times,serif" font-size="9.00">&#45;8</text>
</g>
<!-- &#45;8&#45;&gt;0 -->
<g id="edge61" class="edge"><title>&#45;8&#45;&gt;0</title>
<path fill="none" stroke="green" stroke-width="0.238556" stroke-dasharray="1,5" d="M107.756,-177.991C184.631,-171.728 594.887,-138.176 600.419,-134.995 634.336,-115.49 656.979,-74.2849 668.484,-48.4273"/>
<polygon fill="green" stroke="green" stroke-width="0.238556" points="671.789,-49.6004 672.478,-39.028 665.346,-46.8631 671.789,-49.6004"/>
</g>
<!-- &#45;8&#45;&gt;1 -->
<g id="edge10" class="edge"><title>&#45;8&#45;&gt;1</title>
<path fill="none" stroke="green" stroke-width="0.306158" stroke-dasharray="1,5" d="M96.9735,-170.854C100.875,-152.692 112.812,-108.649 140.419,-85.4975 195.915,-38.9568 285.235,-28.5617 328.43,-26.3143"/>
<polygon fill="green" stroke="green" stroke-width="0.306158" points="328.762,-29.8037 338.609,-25.8942 328.473,-22.8096 328.762,-29.8037"/>
</g>
<!-- 7386 -->
<g id="node32" class="node"><title>7386</title>
<ellipse fill="white" stroke="black" cx="42.4186" cy="-110.246" rx="25" ry="25"/>
<text text-anchor="middle" x="42.4186" y="-108.046" font-family="Times,serif" font-size="9.00">7386</text>
</g>
<!-- &#45;8&#45;&gt;7386 -->
<g id="edge23" class="edge"><title>&#45;8&#45;&gt;7386</title>
<path fill="none" stroke="red" stroke-width="0.28782" d="M89.1306,-170.957C82.8034,-162.869 72.6914,-149.943 63.4912,-138.183"/>
<polygon fill="red" stroke="red" stroke-width="0.28782" points="66.2436,-136.021 57.3253,-130.301 60.7302,-140.334 66.2436,-136.021"/>
</g>
<!-- &#45;9 -->
<g id="node9" class="node"><title>&#45;9</title>
<polygon fill="lightgray" stroke="black" points="907.419,-119.246 883.419,-119.246 883.419,-101.246 907.419,-101.246 907.419,-119.246"/>
<text text-anchor="middle" x="895.419" y="-108.046" font-family="Times,serif" font-size="9.00">&#45;9</text>
</g>
<!-- &#45;9&#45;&gt;0 -->
<g id="edge43" class="edge"><title>&#45;9&#45;&gt;0</title>
<path fill="none" stroke="red" stroke-width="0.946418" d="M890.054,-101.149C886.251,-95.9904 880.718,-89.5405 874.419,-85.4975 819.021,-49.9413 741.363,-34.6202 702.152,-28.8223"/>
<polygon fill="red" stroke="red" stroke-width="0.946418" points="702.549,-25.344 692.162,-27.4306 701.583,-32.277 702.549,-25.344"/>
</g>
<!-- &#45;9&#45;&gt;2 -->
<g id="edge7" class="edge"><title>&#45;9&#45;&gt;2</title>
<path fill="none" stroke="green" stroke-width="0.262569" d="M903.672,-100.824C908.59,-96.037 915.09,-90.0998 921.419,-85.4975 948.338,-65.9215 982.232,-47.6557 1004.11,-36.5983"/>
<polygon fill="green" stroke="green" stroke-width="0.262569" points="1005.86,-39.6381 1013.25,-32.0464 1002.73,-33.3725 1005.86,-39.6381"/>
</g>
<!-- &#45;10 -->
<g id="node10" class="node"><title>&#45;10</title>
<polygon fill="lightgray" stroke="black" points="1569.92,-188.995 1540.92,-188.995 1540.92,-170.995 1569.92,-170.995 1569.92,-188.995"/>
<text text-anchor="middle" x="1555.42" y="-177.795" font-family="Times,serif" font-size="9.00">&#45;10</text>
</g>
<!-- &#45;10&#45;&gt;0 -->
<g id="edge30" class="edge"><title>&#45;10&#45;&gt;0</title>
<path fill="none" stroke="green" stroke-width="0.154048" d="M1540.83,-178.186C1439.18,-172.544 840.626,-139.163 832.419,-134.995 806.949,-122.06 813.615,-103.479 791.419,-85.4975 763.161,-62.6052 724.757,-44.6716 700.529,-34.6441"/>
<polygon fill="green" stroke="green" stroke-width="0.154048" points="701.668,-31.3295 691.084,-30.8392 699.052,-37.8224 701.668,-31.3295"/>
</g>
<!-- &#45;10&#45;&gt;3 -->
<g id="edge15" class="edge"><title>&#45;10&#45;&gt;3</title>
<path fill="none" stroke="green" stroke-width="0.185402" stroke-dasharray="1,5" d="M1556.21,-170.868C1557.48,-153.117 1557.93,-110.474 1536.42,-85.4975 1500.76,-44.0874 1433.95,-31.3696 1397.58,-27.4694"/>
<polygon fill="green" stroke="green" stroke-width="0.185402" points="1397.62,-23.958 1387.34,-26.52 1396.97,-30.9281 1397.62,-23.958"/>
</g>
<!-- 7843 -->
<g id="node30" class="node"><title>7843</title>
<ellipse fill="white" stroke="black" cx="1608.42" cy="-110.246" rx="25" ry="25"/>
<text text-anchor="middle" x="1608.42" y="-108.046" font-family="Times,serif" font-size="9.00">7843</text>
</g>
<!-- &#45;10&#45;&gt;7843 -->
<g id="edge1" class="edge"><title>&#45;10&#45;&gt;7843</title>
<path fill="none" stroke="red" stroke-width="0.574027" d="M1561.71,-170.957C1568.03,-162.869 1578.15,-149.943 1587.35,-138.183"/>
<polygon fill="red" stroke="red" stroke-width="0.574027" points="1590.11,-140.334 1593.51,-130.301 1584.59,-136.021 1590.11,-140.334"/>
</g>
<!-- &#45;11 -->
<g id="node11" class="node"><title>&#45;11</title>
<polygon fill="lightgray" stroke="black" points="1273.92,-119.246 1244.92,-119.246 1244.92,-101.246 1273.92,-101.246 1273.92,-119.246"/>
<text text-anchor="middle" x="1259.42" y="-108.046" font-family="Times,serif" font-size="9.00">&#45;11</text>
</g>
<!-- &#45;11&#45;&gt;2 -->
<g id="edge54" class="edge"><title>&#45;11&#45;&gt;2</title>
<path fill="none" stroke="green" stroke-width="0.201211" d="M1253.08,-101.137C1248.64,-95.9737 1242.3,-89.5227 1235.42,-85.4975 1174.85,-50.0645 1092,-34.5822 1051.19,-28.7623"/>
<polygon fill="green" stroke="green" stroke-width="0.201211" points="1051.46,-25.2664 1041.08,-27.3973 1050.52,-32.2035 1051.46,-25.2664"/>
</g>
<!-- &#45;12 -->
<g id="node12" class="node"><title>&#45;12</title>
<polygon fill="lightgray" stroke="black" points="257.919,-119.246 228.919,-119.246 228.919,-101.246 257.919,-101.246 257.919,-119.246"/>
<text text-anchor="middle" x="243.419" y="-108.046" font-family="Times,serif" font-size="9.00">&#45;12</text>
</g>
<!-- &#45;12&#45;&gt;1 -->
<g id="edge22" class="edge"><title>&#45;12&#45;&gt;1</title>
<path fill="none" stroke="green" stroke-width="0.26616" stroke-dasharray="1,5" d="M250.71,-100.928C255.057,-96.1766 260.807,-90.2394 266.419,-85.4975 287.632,-67.5711 314.226,-49.9262 332.391,-38.5142"/>
<polygon fill="green" stroke="green" stroke-width="0.26616" points="334.394,-41.3904 341.048,-33.1461 330.705,-35.4411 334.394,-41.3904"/>
</g>
<!-- &#45;13 -->
<g id="node13" class="node"><title>&#45;13</title>
<polygon fill="lightgray" stroke="black" points="410.919,-119.246 381.919,-119.246 381.919,-101.246 410.919,-101.246 410.919,-119.246"/>
<text text-anchor="middle" x="396.419" y="-108.046" font-family="Times,serif" font-size="9.00">&#45;13</text>
</g>
<!-- &#45;13&#45;&gt;0 -->
<g id="edge60" class="edge"><title>&#45;13&#45;&gt;0</title>
<path fill="none" stroke="green" stroke-width="0.869311" d="M402.362,-101.016C406.557,-95.8012 412.623,-89.3387 419.419,-85.4975 496.654,-41.8383 604.045,-30.0496 652.245,-26.8912"/>
<polygon fill="green" stroke="green" stroke-width="0.869311" points="652.61,-30.376 662.389,-26.2993 652.203,-23.3879 652.61,-30.376"/>
</g>
<!-- &#45;13&#45;&gt;1 -->
<g id="edge47" class="edge"><title>&#45;13&#45;&gt;1</title>
<path fill="none" stroke="red" stroke-width="0.325745" d="M392.296,-101.24C385.946,-88.9106 373.557,-64.8535 364.465,-47.1981"/>
<polygon fill="red" stroke="red" stroke-width="0.325745" points="367.502,-45.4511 359.812,-38.1632 361.279,-48.656 367.502,-45.4511"/>
</g>
<!-- &#45;14 -->
<g id="node14" class="node"><title>&#45;14</title>
<polygon fill="lightgray" stroke="black" points="1136.92,-119.246 1107.92,-119.246 1107.92,-101.246 1136.92,-101.246 1136.92,-119.246"/>
<text text-anchor="middle" x="1122.42" y="-108.046" font-family="Times,serif" font-size="9.00">&#45;14</text>
</g>
<!-- &#45;14&#45;&gt;1 -->
<g id="edge63" class="edge"><title>&#45;14&#45;&gt;1</title>
<path fill="none" stroke="red" stroke-width="0.22806" stroke-dasharray="1,5" d="M1107.5,-102.165C1095.17,-96.6471 1077.05,-89.3045 1060.42,-85.4975 1043.39,-81.5991 501.135,-37.6732 378.085,-27.738"/>
<polygon fill="red" stroke="red" stroke-width="0.22806" points="378.364,-24.2492 368.115,-26.9333 377.801,-31.2265 378.364,-24.2492"/>
</g>
<!-- &#45;14&#45;&gt;2 -->
<g id="edge20" class="edge"><title>&#45;14&#45;&gt;2</title>
<path fill="none" stroke="red" stroke-width="0.270363" d="M1113.21,-101.24C1097.54,-87.6076 1065.38,-59.6379 1044.92,-41.8365"/>
<polygon fill="red" stroke="red" stroke-width="0.270363" points="1047.04,-39.0435 1037.2,-35.1217 1042.44,-44.3253 1047.04,-39.0435"/>
</g>
<!-- &#45;14&#45;&gt;3 -->
<g id="edge36" class="edge"><title>&#45;14&#45;&gt;3</title>
<path fill="none" stroke="red" stroke-width="0.288998" d="M1128.64,-100.923C1133.03,-95.6694 1139.36,-89.1982 1146.42,-85.4975 1223.32,-45.1946 1258.37,-83.1094 1338.42,-49.4975 1343.52,-47.3572 1348.61,-44.3644 1353.25,-41.2231"/>
<polygon fill="red" stroke="red" stroke-width="0.288998" points="1355.5,-43.9195 1361.49,-35.1843 1351.36,-38.274 1355.5,-43.9195"/>
</g>
<!-- &#45;15 -->
<g id="node15" class="node"><title>&#45;15</title>
<polygon fill="lightgray" stroke="black" points="234.919,-188.995 205.919,-188.995 205.919,-170.995 234.919,-170.995 234.919,-188.995"/>
<text text-anchor="middle" x="220.419" y="-177.795" font-family="Times,serif" font-size="9.00">&#45;15</text>
</g>
<!-- &#45;15&#45;&gt;1 -->
<g id="edge8" class="edge"><title>&#45;15&#45;&gt;1</title>
<path fill="none" stroke="red" stroke-width="0.283589" d="M205.839,-174.328C189.465,-168.211 163.708,-155.746 152.419,-134.995 141.906,-115.671 139.265,-103.13 152.419,-85.4975 173.718,-56.9449 279.914,-37.1302 328.761,-29.3796"/>
<polygon fill="red" stroke="red" stroke-width="0.283589" points="329.45,-32.8149 338.798,-27.8296 328.381,-25.8969 329.45,-32.8149"/>
</g>
<!-- 4550 -->
<g id="node31" class="node"><title>4550</title>
<ellipse fill="white" stroke="black" cx="300.419" cy="-110.246" rx="25" ry="25"/>
<text text-anchor="middle" x="300.419" y="-108.046" font-family="Times,serif" font-size="9.00">4550</text>
</g>
<!-- &#45;15&#45;&gt;4550 -->
<g id="edge11" class="edge"><title>&#45;15&#45;&gt;4550</title>
<path fill="none" stroke="red" stroke-width="0.285907" stroke-dasharray="1,5" d="M229.91,-170.957C240.666,-161.848 258.668,-146.603 273.789,-133.798"/>
<polygon fill="red" stroke="red" stroke-width="0.285907" points="276.46,-136.122 281.829,-126.989 271.936,-130.78 276.46,-136.122"/>
</g>
<!-- &#45;16 -->
<g id="node16" class="node"><title>&#45;16</title>
<polygon fill="lightgray" stroke="black" points="457.919,-119.246 428.919,-119.246 428.919,-101.246 457.919,-101.246 457.919,-119.246"/>
<text text-anchor="middle" x="443.419" y="-108.046" font-family="Times,serif" font-size="9.00">&#45;16</text>
</g>
<!-- &#45;16&#45;&gt;0 -->
<g id="edge27" class="edge"><title>&#45;16&#45;&gt;0</title>
<path fill="none" stroke="green" stroke-width="0.947592" d="M449.425,-101.123C453.646,-95.9542 459.718,-89.502 466.419,-85.4975 527.318,-49.1016 611.36,-34.0334 652.584,-28.5281"/>
<polygon fill="green" stroke="green" stroke-width="0.947592" points="653.077,-31.9937 662.562,-27.273 652.204,-25.0484 653.077,-31.9937"/>
</g>
<!-- &#45;16&#45;&gt;1 -->
<g id="edge42" class="edge"><title>&#45;16&#45;&gt;1</title>
<path fill="none" stroke="green" stroke-width="0.244336" d="M435.505,-101.24C430.868,-96.5924 424.868,-90.6553 419.419,-85.4975 403.616,-70.5396 385.234,-53.964 371.889,-42.0735"/>
<polygon fill="green" stroke="green" stroke-width="0.244336" points="374.099,-39.3558 364.299,-35.3318 369.451,-44.5895 374.099,-39.3558"/>
</g>
<!-- &#45;17 -->
<g id="node17" class="node"><title>&#45;17</title>
<polygon fill="lightgray" stroke="black" points="56.9186,-188.995 27.9186,-188.995 27.9186,-170.995 56.9186,-170.995 56.9186,-188.995"/>
<text text-anchor="middle" x="42.4186" y="-177.795" font-family="Times,serif" font-size="9.00">&#45;17</text>
</g>
<!-- &#45;17&#45;&gt;0 -->
<g id="edge6" class="edge"><title>&#45;17&#45;&gt;0</title>
<path fill="none" stroke="green" stroke-width="0.166375" stroke-dasharray="1,5" d="M56.9696,-174.824C62.4045,-173.408 68.6552,-171.945 74.4186,-170.995 171.218,-155.045 427.976,-181.386 514.419,-134.995 539.096,-121.751 531.575,-103.026 553.419,-85.4975 584.351,-60.6751 627.294,-42.925 653.674,-33.5102"/>
<polygon fill="green" stroke="green" stroke-width="0.166375" points="654.928,-36.7798 663.236,-30.2046 652.641,-30.1639 654.928,-36.7798"/>
</g>
<!-- &#45;17&#45;&gt;1 -->
<g id="edge56" class="edge"><title>&#45;17&#45;&gt;1</title>
<path fill="none" stroke="red" stroke-width="0.280004" stroke-dasharray="1,5" d="M33.4519,-170.934C25.1424,-162.807 13.3459,-149.43 8.41856,-134.995 1.31196,-114.176 -5.74772,-102.328 8.41856,-85.4975 49.561,-36.6173 255.754,-27.7252 328.202,-26.1081"/>
<polygon fill="red" stroke="red" stroke-width="0.280004" points="328.331,-29.6063 338.261,-25.9121 328.195,-22.6076 328.331,-29.6063"/>
</g>
<!-- &#45;17&#45;&gt;7386 -->
<g id="edge33" class="edge"><title>&#45;17&#45;&gt;7386</title>
<path fill="none" stroke="green" stroke-width="0.33973" d="M42.4186,-170.957C42.4186,-164.522 42.4186,-155.024 42.4186,-145.488"/>
<polygon fill="green" stroke="green" stroke-width="0.33973" points="45.9187,-145.267 42.4186,-135.267 38.9187,-145.268 45.9187,-145.267"/>
</g>
<!-- &#45;18 -->
<g id="node18" class="node"><title>&#45;18</title>
<polygon fill="lightgray" stroke="black" points="1066.92,-188.995 1037.92,-188.995 1037.92,-170.995 1066.92,-170.995 1066.92,-188.995"/>
<text text-anchor="middle" x="1052.42" y="-177.795" font-family="Times,serif" font-size="9.00">&#45;18</text>
</g>
<!-- &#45;18&#45;&gt;0 -->
<g id="edge59" class="edge"><title>&#45;18&#45;&gt;0</title>
<path fill="none" stroke="red" stroke-width="0.260103" stroke-dasharray="1,5" d="M1037.76,-176.853C979.119,-168.276 764.458,-136.787 761.419,-134.995 751.986,-129.434 713.09,-75.9633 691.692,-45.9455"/>
<polygon fill="red" stroke="red" stroke-width="0.260103" points="694.31,-43.5869 685.665,-37.4616 688.603,-47.6409 694.31,-43.5869"/>
</g>
<!-- &#45;18&#45;&gt;2 -->
<g id="edge31" class="edge"><title>&#45;18&#45;&gt;2</title>
<path fill="none" stroke="green" stroke-width="0.382335" stroke-dasharray="1,5" d="M1054.95,-170.83C1059.65,-154.382 1068.54,-116.209 1060.42,-85.4975 1056.6,-71.0751 1048.41,-56.4919 1041.02,-45.3435"/>
<polygon fill="green" stroke="green" stroke-width="0.382335" points="1043.7,-43.0725 1035.12,-36.8656 1037.96,-47.0723 1043.7,-43.0725"/>
</g>
<!-- &#45;18&#45;&gt;3 -->
<g id="edge45" class="edge"><title>&#45;18&#45;&gt;3</title>
<path fill="none" stroke="green" stroke-width="0.219215" stroke-dasharray="1,5" d="M1066.98,-178.458C1117.52,-176.324 1284.43,-166.946 1325.42,-134.995 1352.21,-114.113 1363.97,-74.9591 1368.96,-49.6379"/>
<polygon fill="green" stroke="green" stroke-width="0.219215" points="1372.42,-50.1823 1370.71,-39.7264 1365.53,-48.9667 1372.42,-50.1823"/>
</g>
<!-- 8664 -->
<g id="node35" class="node"><title>8664</title>
<ellipse fill="white" stroke="black" cx="1026.42" cy="-110.246" rx="25" ry="25"/>
<text text-anchor="middle" x="1026.42" y="-108.046" font-family="Times,serif" font-size="9.00">8664</text>
</g>
<!-- &#45;18&#45;&gt;8664 -->
<g id="edge55" class="edge"><title>&#45;18&#45;&gt;8664</title>
<path fill="none" stroke="green" stroke-width="0.224059" d="M1049.33,-170.957C1046.64,-163.926 1042.53,-153.239 1038.54,-142.84"/>
<polygon fill="green" stroke="green" stroke-width="0.224059" points="1041.8,-141.566 1034.95,-133.484 1035.27,-144.074 1041.8,-141.566"/>
</g>
<!-- &#45;19 -->
<g id="node19" class="node"><title>&#45;19</title>
<polygon fill="lightgray" stroke="black" points="590.919,-119.246 561.919,-119.246 561.919,-101.246 590.919,-101.246 590.919,-119.246"/>
<text text-anchor="middle" x="576.419" y="-108.046" font-family="Times,serif" font-size="9.00">&#45;19</text>
</g>
<!-- &#45;19&#45;&gt;0 -->
<g id="edge49" class="edge"><title>&#45;19&#45;&gt;0</title>
<path fill="none" stroke="red" stroke-width="0.328134" stroke-dasharray="1,5" d="M586.103,-101.24C602.753,-87.4749 637.086,-59.0922 658.584,-41.3197"/>
<polygon fill="red" stroke="red" stroke-width="0.328134" points="660.918,-43.9313 666.395,-34.8621 656.458,-38.5362 660.918,-43.9313"/>
</g>
<!-- &#45;19&#45;&gt;1 -->
<g id="edge35" class="edge"><title>&#45;19&#45;&gt;1</title>
<path fill="none" stroke="red" stroke-width="0.344635" d="M561.903,-103.637C549.349,-98.7974 530.704,-91.6383 514.419,-85.4975 465.545,-67.0688 408.162,-45.8807 376.806,-34.3411"/>
<polygon fill="red" stroke="red" stroke-width="0.344635" points="377.814,-30.9824 367.22,-30.8154 375.397,-37.5522 377.814,-30.9824"/>
</g>
<!-- &#45;19&#45;&gt;2 -->
<g id="edge17" class="edge"><title>&#45;19&#45;&gt;2</title>
<path fill="none" stroke="green" stroke-width="0.65555" d="M590.928,-105.492C610.326,-100.543 645.821,-91.7357 676.419,-85.4975 797.849,-60.7401 944.412,-38.0188 1001.74,-29.4043"/>
<polygon fill="green" stroke="green" stroke-width="0.65555" points="1002.31,-32.8581 1011.68,-27.9177 1001.28,-25.9351 1002.31,-32.8581"/>
</g>
<!-- &#45;20 -->
<g id="node20" class="node"><title>&#45;20</title>
<polygon fill="lightgray" stroke="black" points="987.919,-188.995 958.919,-188.995 958.919,-170.995 987.919,-170.995 987.919,-188.995"/>
<text text-anchor="middle" x="973.419" y="-177.795" font-family="Times,serif" font-size="9.00">&#45;20</text>
</g>
<!-- &#45;20&#45;&gt;2 -->
<g id="edge2" class="edge"><title>&#45;20&#45;&gt;2</title>
<path fill="none" stroke="green" stroke-width="0.158007" stroke-dasharray="1,5" d="M974.208,-170.75C975.988,-154.158 981.073,-115.739 992.419,-85.4975 997.593,-71.7041 1005.68,-57.3211 1012.67,-46.124"/>
<polygon fill="green" stroke="green" stroke-width="0.158007" points="1015.72,-47.8524 1018.2,-37.5507 1009.84,-44.0605 1015.72,-47.8524"/>
</g>
<!-- &#45;20&#45;&gt;4550 -->
<g id="edge40" class="edge"><title>&#45;20&#45;&gt;4550</title>
<path fill="none" stroke="green" stroke-width="0.1869" stroke-dasharray="1,5" d="M958.781,-178.395C869.521,-174.683 400.267,-154.361 339.419,-134.995 335.887,-133.871 332.345,-132.366 328.913,-130.655"/>
<polygon fill="green" stroke="green" stroke-width="0.1869" points="330.61,-127.594 320.173,-125.772 327.196,-133.705 330.61,-127.594"/>
</g>
<!-- &#45;20&#45;&gt;8664 -->
<g id="edge41" class="edge"><title>&#45;20&#45;&gt;8664</title>
<path fill="none" stroke="green" stroke-width="0.428948" d="M979.706,-170.957C986.034,-162.869 996.146,-149.943 1005.35,-138.183"/>
<polygon fill="green" stroke="green" stroke-width="0.428948" points="1008.11,-140.334 1011.51,-130.301 1002.59,-136.021 1008.11,-140.334"/>
</g>
<!-- &#45;21 -->
<g id="node21" class="node"><title>&#45;21</title>
<polygon fill="lightgray" stroke="black" points="671.919,-188.995 642.919,-188.995 642.919,-170.995 671.919,-170.995 671.919,-188.995"/>
<text text-anchor="middle" x="657.419" y="-177.795" font-family="Times,serif" font-size="9.00">&#45;21</text>
</g>
<!-- &#45;21&#45;&gt;0 -->
<g id="edge25" class="edge"><title>&#45;21&#45;&gt;0</title>
<path fill="none" stroke="green" stroke-width="2.19346" d="M658.494,-170.756C661.437,-148.204 669.709,-84.8218 674.282,-49.7839"/>
<polygon fill="green" stroke="green" stroke-width="2.19346" points="677.801,-49.8605 675.625,-39.4916 670.86,-48.9546 677.801,-49.8605"/>
</g>
<!-- &#45;21&#45;&gt;2 -->
<g id="edge52" class="edge"><title>&#45;21&#45;&gt;2</title>
<path fill="none" stroke="red" stroke-width="0.870758" d="M672.126,-179.506C713.234,-180.325 831.856,-178.496 916.419,-134.995 938.42,-123.677 985.554,-72.2697 1010.37,-44.1925"/>
<polygon fill="red" stroke="red" stroke-width="0.870758" points="1013.06,-46.4433 1017.03,-36.6208 1007.8,-41.8232 1013.06,-46.4433"/>
</g>
<!-- &#45;21&#45;&gt;4550 -->
<g id="edge13" class="edge"><title>&#45;21&#45;&gt;4550</title>
<path fill="none" stroke="red" stroke-width="0.842642" stroke-dasharray="1,5" d="M642.658,-179.058C596.445,-178.82 450.986,-174.741 339.419,-134.995 335.927,-133.751 332.411,-132.17 328.994,-130.415"/>
<polygon fill="red" stroke="red" stroke-width="0.842642" points="330.698,-127.358 320.271,-125.481 327.252,-133.451 330.698,-127.358"/>
</g>
<!-- &#45;22 -->
<g id="node22" class="node"><title>&#45;22</title>
<polygon fill="lightgray" stroke="black" points="1183.92,-119.246 1154.92,-119.246 1154.92,-101.246 1183.92,-101.246 1183.92,-119.246"/>
<text text-anchor="middle" x="1169.42" y="-108.046" font-family="Times,serif" font-size="9.00">&#45;22</text>
</g>
<!-- &#45;22&#45;&gt;1 -->
<g id="edge28" class="edge"><title>&#45;22&#45;&gt;1</title>
<path fill="none" stroke="green" stroke-width="0.280528" d="M1164.02,-101.132C1159.89,-95.6831 1153.7,-88.8994 1146.42,-85.4975 1046.9,-38.9923 762.949,-57.8318 653.419,-49.4975 551.496,-41.742 430.142,-31.9699 378.586,-27.7932"/>
<polygon fill="green" stroke="green" stroke-width="0.280528" points="378.65,-24.287 368.4,-26.9672 378.084,-31.2641 378.65,-24.287"/>
</g>
<!-- &#45;22&#45;&gt;2 -->
<g id="edge50" class="edge"><title>&#45;22&#45;&gt;2</title>
<path fill="none" stroke="green" stroke-width="0.350847" stroke-dasharray="1,5" d="M1162.76,-101.077C1158.46,-96.1457 1152.53,-89.9714 1146.42,-85.4975 1115.55,-62.9103 1074.86,-44.6983 1049.68,-34.5537"/>
<polygon fill="green" stroke="green" stroke-width="0.350847" points="1050.8,-31.2368 1040.22,-30.8297 1048.24,-37.7501 1050.8,-31.2368"/>
</g>
<!-- &#45;22&#45;&gt;3 -->
<g id="edge62" class="edge"><title>&#45;22&#45;&gt;3</title>
<path fill="none" stroke="red" stroke-width="0.967472" d="M1175.71,-101.057C1180.13,-95.8599 1186.47,-89.4014 1193.42,-85.4975 1251.31,-52.9809 1277.97,-76.9688 1338.42,-49.4975 1343.45,-47.2103 1348.52,-44.1587 1353.16,-41.0071"/>
<polygon fill="red" stroke="red" stroke-width="0.967472" points="1355.39,-43.7145 1361.41,-34.9977 1351.27,-38.0563 1355.39,-43.7145"/>
</g>
<!-- &#45;23 -->
<g id="node23" class="node"><title>&#45;23</title>
<polygon fill="lightgray" stroke="black" points="1701.92,-188.995 1672.92,-188.995 1672.92,-170.995 1701.92,-170.995 1701.92,-188.995"/>
<text text-anchor="middle" x="1687.42" y="-177.795" font-family="Times,serif" font-size="9.00">&#45;23</text>
</g>
<!-- &#45;24 -->
<g id="node24" class="node"><title>&#45;24</title>
<polygon fill="lightgray" stroke="black" points="504.919,-119.246 475.919,-119.246 475.919,-101.246 504.919,-101.246 504.919,-119.246"/>
<text text-anchor="middle" x="490.419" y="-108.046" font-family="Times,serif" font-size="9.00">&#45;24</text>
</g>
<!-- &#45;24&#45;&gt;0 -->
<g id="edge53" class="edge"><title>&#45;24&#45;&gt;0</title>
<path fill="none" stroke="green" stroke-width="1.29149" d="M499.004,-100.953C504.503,-95.9741 511.981,-89.7943 519.419,-85.4975 563.907,-59.7969 621.502,-41.2901 653.428,-32.1675"/>
<polygon fill="green" stroke="green" stroke-width="1.29149" points="654.524,-35.4956 663.216,-29.4367 652.643,-28.7531 654.524,-35.4956"/>
</g>
<!-- &#45;24&#45;&gt;1 -->
<g id="edge4" class="edge"><title>&#45;24&#45;&gt;1</title>
<path fill="none" stroke="red" stroke-width="0.134363" stroke-dasharray="1,5" d="M483.371,-101.151C478.842,-96.2473 472.656,-90.0764 466.419,-85.4975 437.461,-64.2393 399.943,-45.9757 376.269,-35.4193"/>
<polygon fill="red" stroke="red" stroke-width="0.134363" points="377.601,-32.1815 367.036,-31.3807 374.796,-38.5949 377.601,-32.1815"/>
</g>
<!-- 1&#45;&gt;1 -->
<g id="edge32" class="edge"><title>1&#45;&gt;1</title>
<path fill="none" stroke="red" stroke-width="0.516068" d="M362.834,-36.3113C373.691,-44.517 386.268,-40.6628 386.268,-24.7487 386.268,-13.3105 379.771,-8.10242 372.085,-9.12449"/>
<polygon fill="red" stroke="red" stroke-width="0.516068" points="370.584,-5.96114 362.834,-13.1862 373.398,-12.3705 370.584,-5.96114"/>
</g>
<!-- 2&#45;&gt;2 -->
<g id="edge29" class="edge"><title>2&#45;&gt;2</title>
<path fill="none" stroke="red" stroke-width="0.369925" d="M1035.83,-36.3113C1046.69,-44.517 1059.27,-40.6628 1059.27,-24.7487 1059.27,-13.3105 1052.77,-8.10242 1045.08,-9.12449"/>
<polygon fill="red" stroke="red" stroke-width="0.369925" points="1043.58,-5.96114 1035.83,-13.1862 1046.4,-12.3705 1043.58,-5.96114"/>
</g>
<!-- 3&#45;&gt;3 -->
<g id="edge18" class="edge"><title>3&#45;&gt;3</title>
<path fill="none" stroke="green" stroke-width="0.487803" d="M1381.83,-36.3113C1392.69,-44.517 1405.27,-40.6628 1405.27,-24.7487 1405.27,-13.3105 1398.77,-8.10242 1391.08,-9.12449"/>
<polygon fill="green" stroke="green" stroke-width="0.487803" points="1389.58,-5.96114 1381.83,-13.1862 1392.4,-12.3705 1389.58,-5.96114"/>
</g>
<!-- 8512&#45;&gt;3 -->
<g id="edge46" class="edge"><title>8512&#45;&gt;3</title>
<path fill="none" stroke="green" stroke-width="0.232109" d="M1420.81,-89.8803C1410.67,-76.4438 1397.22,-58.6156 1387.07,-45.1676"/>
<polygon fill="green" stroke="green" stroke-width="0.232109" points="1389.76,-42.9276 1380.95,-37.053 1384.18,-47.1438 1389.76,-42.9276"/>
</g>
<!-- 7843&#45;&gt;3 -->
<g id="edge14" class="edge"><title>7843&#45;&gt;3</title>
<path fill="none" stroke="red" stroke-width="0.670892" stroke-dasharray="1,5" d="M1588.3,-95.668C1582.38,-92.0433 1575.79,-88.3467 1569.42,-85.4975 1510.03,-58.9267 1435.5,-39.9334 1397.38,-31.1759"/>
<polygon fill="red" stroke="red" stroke-width="0.670892" points="1397.73,-27.6674 1387.21,-28.8842 1396.19,-34.4963 1397.73,-27.6674"/>
</g>
<!-- 4550&#45;&gt;1 -->
<g id="edge21" class="edge"><title>4550&#45;&gt;1</title>
<path fill="none" stroke="red" stroke-width="0.237241" stroke-dasharray="1,5" d="M313.248,-89.0338C321.433,-76.1397 332.013,-59.4713 340.261,-46.4781"/>
<polygon fill="red" stroke="red" stroke-width="0.237241" points="343.382,-48.0915 345.786,-37.773 337.472,-44.3401 343.382,-48.0915"/>
</g>
<!-- 7386&#45;&gt;1 -->
<g id="edge19" class="edge"><title>7386&#45;&gt;1</title>
<path fill="none" stroke="red" stroke-width="0.528921" d="M62.3969,-95.3434C68.3126,-91.7135 74.9442,-88.0954 81.4186,-85.4975 168.421,-50.5862 279.668,-34.2832 328.523,-28.4278"/>
<polygon fill="red" stroke="red" stroke-width="0.528921" points="329.231,-31.8695 338.763,-27.2458 328.428,-24.9157 329.231,-31.8695"/>
</g>
<!-- 9328&#45;&gt;3 -->
<g id="edge5" class="edge"><title>9328&#45;&gt;3</title>
<path fill="none" stroke="red" stroke-width="0.251965" d="M1482.69,-94.6962C1478.36,-91.6012 1473.76,-88.3946 1469.42,-85.4975 1443.82,-68.4337 1413.52,-50.0478 1393.68,-38.246"/>
<polygon fill="red" stroke="red" stroke-width="0.251965" points="1395.23,-35.0997 1384.85,-33.016 1391.67,-41.1229 1395.23,-35.0997"/>
</g>
<!-- 6800 -->
<g id="node34" class="node"><title>6800</title>
<ellipse fill="white" stroke="black" cx="186.419" cy="-110.246" rx="25" ry="25"/>
<text text-anchor="middle" x="186.419" y="-108.046" font-family="Times,serif" font-size="9.00">6800</text>
</g>
<!-- 6800&#45;&gt;1 -->
<g id="edge57" class="edge"><title>6800&#45;&gt;1</title>
<path fill="none" stroke="red" stroke-width="0.302732" d="M205.522,-94.4985C209.97,-91.3495 214.767,-88.1705 219.419,-85.4975 256.626,-64.1144 302.897,-44.9984 330.187,-34.4267"/>
<polygon fill="red" stroke="red" stroke-width="0.302732" points="331.567,-37.6462 339.658,-30.8065 329.068,-31.1076 331.567,-37.6462"/>
</g>
<!-- 8664&#45;&gt;2 -->
<g id="edge9" class="edge"><title>8664&#45;&gt;2</title>
<path fill="none" stroke="red" stroke-width="0.110041" d="M1026.42,-85.0953C1026.42,-74.1139 1026.42,-61.1442 1026.42,-50.1347"/>
<polygon fill="red" stroke="red" stroke-width="0.110041" points="1029.92,-49.9247 1026.42,-39.9248 1022.92,-49.9248 1029.92,-49.9247"/>
</g>
</g>
</svg>
