<?xml version="1.0" encoding="UTF-8" standalone="no"?>
<!DOCTYPE svg PUBLIC "-//W3C//DTD SVG 1.1//EN"
 "http://www.w3.org/Graphics/SVG/1.1/DTD/svg11.dtd">
<!-- Generated by graphviz version 2.38.0 (20140413.2041)
 -->
<!-- Title: %3 Pages: 1 -->
<svg width="1230pt" height="228pt"
 viewBox="0.00 0.00 1230.50 228.49" xmlns="http://www.w3.org/2000/svg" xmlns:xlink="http://www.w3.org/1999/xlink">
<g id="graph0" class="graph" transform="scale(1 1) rotate(0) translate(4 224.492)">
<title>%3</title>
<polygon fill="white" stroke="none" points="-4,4 -4,-224.492 1226.5,-224.492 1226.5,4 -4,4"/>
<!-- &#45;1 -->
<g id="node1" class="node"><title>&#45;1</title>
<polygon fill="lightgray" stroke="black" points="609.749,-204.744 585.749,-204.744 585.749,-186.744 609.749,-186.744 609.749,-204.744"/>
<text text-anchor="middle" x="597.749" y="-193.544" font-family="Times,serif" font-size="9.00">&#45;1</text>
</g>
<!-- 0 -->
<g id="node25" class="node"><title>0</title>
<ellipse fill="lightblue" stroke="black" cx="199.749" cy="-24.7487" rx="14.7" ry="14.7"/>
<text text-anchor="middle" x="199.749" y="-22.5487" font-family="Times,serif" font-size="9.00">0</text>
</g>
<!-- &#45;1&#45;&gt;0 -->
<g id="edge2" class="edge"><title>&#45;1&#45;&gt;0</title>
<path fill="none" stroke="red" stroke-width="0.444967" d="M585.624,-193.234C522.336,-185.302 232.278,-148.312 218.749,-134.995 196.4,-112.997 194.8,-74.7617 196.592,-49.8595"/>
<polygon fill="red" stroke="red" stroke-width="0.444967" points="200.088,-50.0634 197.554,-39.7761 193.12,-49.3983 200.088,-50.0634"/>
</g>
<!-- 8512 -->
<g id="node29" class="node"><title>8512</title>
<ellipse fill="white" stroke="black" cx="711.749" cy="-110.246" rx="25" ry="25"/>
<text text-anchor="middle" x="711.749" y="-108.046" font-family="Times,serif" font-size="9.00">8512</text>
</g>
<!-- &#45;1&#45;&gt;8512 -->
<g id="edge23" class="edge"><title>&#45;1&#45;&gt;8512</title>
<path fill="none" stroke="green" stroke-width="0.235555" d="M608.68,-186.738C625.828,-174.177 659.594,-149.446 683.809,-131.711"/>
<polygon fill="green" stroke="green" stroke-width="0.235555" points="685.933,-134.493 691.932,-125.761 681.796,-128.846 685.933,-134.493"/>
</g>
<!-- 9328 -->
<g id="node33" class="node"><title>9328</title>
<ellipse fill="white" stroke="black" cx="597.749" cy="-110.246" rx="25" ry="25"/>
<text text-anchor="middle" x="597.749" y="-108.046" font-family="Times,serif" font-size="9.00">9328</text>
</g>
<!-- &#45;1&#45;&gt;9328 -->
<g id="edge37" class="edge"><title>&#45;1&#45;&gt;9328</title>
<path fill="none" stroke="green" stroke-width="0.3" d="M597.749,-186.738C597.749,-177.186 597.749,-160.597 597.749,-145.398"/>
<polygon fill="green" stroke="green" stroke-width="0.3" points="601.249,-145.201 597.749,-135.201 594.249,-145.201 601.249,-145.201"/>
</g>
<!-- &#45;2 -->
<g id="node2" class="node"><title>&#45;2</title>
<polygon fill="lightgray" stroke="black" points="81.7487,-119.246 57.7487,-119.246 57.7487,-101.246 81.7487,-101.246 81.7487,-119.246"/>
<text text-anchor="middle" x="69.7487" y="-108.046" font-family="Times,serif" font-size="9.00">&#45;2</text>
</g>
<!-- &#45;2&#45;&gt;0 -->
<g id="edge13" class="edge"><title>&#45;2&#45;&gt;0</title>
<path fill="none" stroke="red" stroke-width="0.758518" d="M75.7616,-101.12C79.6669,-96.2045 85.0728,-90.0322 90.7487,-85.4975 117.772,-63.9076 153.685,-45.9311 176.763,-35.5064"/>
<polygon fill="red" stroke="red" stroke-width="0.758518" points="178.359,-38.6275 186.094,-31.3874 175.532,-32.2237 178.359,-38.6275"/>
</g>
<!-- &#45;3 -->
<g id="node3" class="node"><title>&#45;3</title>
<polygon fill="lightgray" stroke="black" points="929.749,-204.744 905.749,-204.744 905.749,-186.744 929.749,-186.744 929.749,-204.744"/>
<text text-anchor="middle" x="917.749" y="-193.544" font-family="Times,serif" font-size="9.00">&#45;3</text>
</g>
<!-- &#45;4 -->
<g id="node4" class="node"><title>&#45;4</title>
<polygon fill="lightgray" stroke="black" points="975.749,-204.744 951.749,-204.744 951.749,-186.744 975.749,-186.744 975.749,-204.744"/>
<text text-anchor="middle" x="963.749" y="-193.544" font-family="Times,serif" font-size="9.00">&#45;4</text>
</g>
<!-- &#45;5 -->
<g id="node5" class="node"><title>&#45;5</title>
<polygon fill="lightgray" stroke="black" points="123.749,-119.246 99.7487,-119.246 99.7487,-101.246 123.749,-101.246 123.749,-119.246"/>
<text text-anchor="middle" x="111.749" y="-108.046" font-family="Times,serif" font-size="9.00">&#45;5</text>
</g>
<!-- &#45;5&#45;&gt;0 -->
<g id="edge20" class="edge"><title>&#45;5&#45;&gt;0</title>
<path fill="none" stroke="red" stroke-width="2.19734" d="M118.521,-101.116C122.528,-96.4266 127.778,-90.4894 132.749,-85.4975 148.231,-69.9501 166.947,-53.4334 180.658,-41.7153"/>
<polygon fill="red" stroke="red" stroke-width="2.19734" points="183.109,-44.2263 188.475,-35.0908 178.583,-38.8861 183.109,-44.2263"/>
</g>
<!-- &#45;6 -->
<g id="node6" class="node"><title>&#45;6</title>
<polygon fill="lightgray" stroke="black" points="1018.75,-204.744 994.749,-204.744 994.749,-186.744 1018.75,-186.744 1018.75,-204.744"/>
<text text-anchor="middle" x="1006.75" y="-193.544" font-family="Times,serif" font-size="9.00">&#45;6</text>
</g>
<!-- 7994 -->
<g id="node36" class="node"><title>7994</title>
<ellipse fill="white" stroke="black" cx="1006.75" cy="-110.246" rx="25" ry="25"/>
<text text-anchor="middle" x="1006.75" y="-108.046" font-family="Times,serif" font-size="9.00">7994</text>
</g>
<!-- &#45;6&#45;&gt;7994 -->
<g id="edge24" class="edge"><title>&#45;6&#45;&gt;7994</title>
<path fill="none" stroke="green" stroke-width="0.354816" d="M1006.75,-186.738C1006.75,-177.186 1006.75,-160.597 1006.75,-145.398"/>
<polygon fill="green" stroke="green" stroke-width="0.354816" points="1010.25,-145.201 1006.75,-135.201 1003.25,-145.201 1010.25,-145.201"/>
</g>
<!-- &#45;7 -->
<g id="node7" class="node"><title>&#45;7</title>
<polygon fill="lightgray" stroke="black" points="1060.75,-204.744 1036.75,-204.744 1036.75,-186.744 1060.75,-186.744 1060.75,-204.744"/>
<text text-anchor="middle" x="1048.75" y="-193.544" font-family="Times,serif" font-size="9.00">&#45;7</text>
</g>
<!-- &#45;8 -->
<g id="node8" class="node"><title>&#45;8</title>
<polygon fill="lightgray" stroke="black" points="885.749,-204.744 861.749,-204.744 861.749,-186.744 885.749,-186.744 885.749,-204.744"/>
<text text-anchor="middle" x="873.749" y="-193.544" font-family="Times,serif" font-size="9.00">&#45;8</text>
</g>
<!-- 7386 -->
<g id="node32" class="node"><title>7386</title>
<ellipse fill="white" stroke="black" cx="872.749" cy="-110.246" rx="25" ry="25"/>
<text text-anchor="middle" x="872.749" y="-108.046" font-family="Times,serif" font-size="9.00">7386</text>
</g>
<!-- &#45;8&#45;&gt;7386 -->
<g id="edge11" class="edge"><title>&#45;8&#45;&gt;7386</title>
<path fill="none" stroke="red" stroke-width="0.28782" d="M873.653,-186.738C873.538,-177.186 873.34,-160.597 873.158,-145.398"/>
<polygon fill="red" stroke="red" stroke-width="0.28782" points="876.655,-145.159 873.036,-135.201 869.656,-145.242 876.655,-145.159"/>
</g>
<!-- &#45;9 -->
<g id="node9" class="node"><title>&#45;9</title>
<polygon fill="lightgray" stroke="black" points="299.749,-119.246 275.749,-119.246 275.749,-101.246 299.749,-101.246 299.749,-119.246"/>
<text text-anchor="middle" x="287.749" y="-108.046" font-family="Times,serif" font-size="9.00">&#45;9</text>
</g>
<!-- &#45;9&#45;&gt;0 -->
<g id="edge27" class="edge"><title>&#45;9&#45;&gt;0</title>
<path fill="none" stroke="red" stroke-width="0.946418" d="M280.586,-101.165C276.365,-96.4923 270.865,-90.5551 265.749,-85.4975 250.275,-70.1997 231.86,-53.6581 218.419,-41.867"/>
<polygon fill="red" stroke="red" stroke-width="0.946418" points="220.601,-39.126 210.763,-35.1928 216.001,-44.4024 220.601,-39.126"/>
</g>
<!-- 2 -->
<g id="node27" class="node"><title>2</title>
<ellipse fill="lightblue" stroke="black" cx="394.749" cy="-24.7487" rx="14.7" ry="14.7"/>
<text text-anchor="middle" x="394.749" y="-22.5487" font-family="Times,serif" font-size="9.00">2</text>
</g>
<!-- &#45;9&#45;&gt;2 -->
<g id="edge4" class="edge"><title>&#45;9&#45;&gt;2</title>
<path fill="none" stroke="green" stroke-width="0.262569" d="M294.301,-100.883C298.235,-96.1167 303.485,-90.1795 308.749,-85.4975 329.339,-67.1826 355.697,-49.6093 373.773,-38.3203"/>
<polygon fill="green" stroke="green" stroke-width="0.262569" points="375.711,-41.2378 382.397,-33.0191 372.045,-35.2744 375.711,-41.2378"/>
</g>
<!-- &#45;10 -->
<g id="node10" class="node"><title>&#45;10</title>
<polygon fill="lightgray" stroke="black" points="39.2487,-119.246 10.2487,-119.246 10.2487,-101.246 39.2487,-101.246 39.2487,-119.246"/>
<text text-anchor="middle" x="24.7487" y="-108.046" font-family="Times,serif" font-size="9.00">&#45;10</text>
</g>
<!-- &#45;10&#45;&gt;0 -->
<g id="edge17" class="edge"><title>&#45;10&#45;&gt;0</title>
<path fill="none" stroke="green" stroke-width="0.154048" d="M31.6263,-100.906C36.0916,-95.9097 42.27,-89.7279 48.7487,-85.4975 89.7145,-58.7481 144.529,-40.8084 175.592,-32.0267"/>
<polygon fill="green" stroke="green" stroke-width="0.154048" points="176.808,-35.3225 185.527,-29.303 174.957,-28.5716 176.808,-35.3225"/>
</g>
<!-- 7843 -->
<g id="node30" class="node"><title>7843</title>
<ellipse fill="white" stroke="black" cx="24.7487" cy="-24.7487" rx="25" ry="25"/>
<text text-anchor="middle" x="24.7487" y="-22.5487" font-family="Times,serif" font-size="9.00">7843</text>
</g>
<!-- &#45;10&#45;&gt;7843 -->
<g id="edge1" class="edge"><title>&#45;10&#45;&gt;7843</title>
<path fill="none" stroke="red" stroke-width="0.574027" d="M24.7487,-101.24C24.7487,-91.6887 24.7487,-75.0995 24.7487,-59.9004"/>
<polygon fill="red" stroke="red" stroke-width="0.574027" points="28.2488,-59.7037 24.7487,-49.7037 21.2488,-59.7038 28.2488,-59.7037"/>
</g>
<!-- &#45;11 -->
<g id="node11" class="node"><title>&#45;11</title>
<polygon fill="lightgray" stroke="black" points="461.249,-119.246 432.249,-119.246 432.249,-101.246 461.249,-101.246 461.249,-119.246"/>
<text text-anchor="middle" x="446.749" y="-108.046" font-family="Times,serif" font-size="9.00">&#45;11</text>
</g>
<!-- &#45;11&#45;&gt;2 -->
<g id="edge32" class="edge"><title>&#45;11&#45;&gt;2</title>
<path fill="none" stroke="green" stroke-width="0.201211" d="M441.763,-101.24C433.97,-88.7269 418.654,-64.1342 407.618,-46.4133"/>
<polygon fill="green" stroke="green" stroke-width="0.201211" points="410.557,-44.5115 402.3,-37.8732 404.615,-48.212 410.557,-44.5115"/>
</g>
<!-- &#45;12 -->
<g id="node12" class="node"><title>&#45;12</title>
<polygon fill="lightgray" stroke="black" points="1108.25,-204.744 1079.25,-204.744 1079.25,-186.744 1108.25,-186.744 1108.25,-204.744"/>
<text text-anchor="middle" x="1093.75" y="-193.544" font-family="Times,serif" font-size="9.00">&#45;12</text>
</g>
<!-- &#45;13 -->
<g id="node13" class="node"><title>&#45;13</title>
<polygon fill="lightgray" stroke="black" points="414.249,-119.246 385.249,-119.246 385.249,-101.246 414.249,-101.246 414.249,-119.246"/>
<text text-anchor="middle" x="399.749" y="-108.046" font-family="Times,serif" font-size="9.00">&#45;13</text>
</g>
<!-- &#45;13&#45;&gt;0 -->
<g id="edge35" class="edge"><title>&#45;13&#45;&gt;0</title>
<path fill="none" stroke="green" stroke-width="0.869311" d="M393.675,-101.232C389.427,-96.1088 383.348,-89.6669 376.749,-85.4975 327.549,-54.4128 260.36,-37.5498 224.572,-30.2436"/>
<polygon fill="green" stroke="green" stroke-width="0.869311" points="225.014,-26.7639 214.528,-28.2779 223.67,-33.6335 225.014,-26.7639"/>
</g>
<!-- 1 -->
<g id="node26" class="node"><title>1</title>
<ellipse fill="lightblue" stroke="black" cx="768.749" cy="-24.7487" rx="14.7" ry="14.7"/>
<text text-anchor="middle" x="768.749" y="-22.5487" font-family="Times,serif" font-size="9.00">1</text>
</g>
<!-- &#45;13&#45;&gt;1 -->
<g id="edge29" class="edge"><title>&#45;13&#45;&gt;1</title>
<path fill="none" stroke="red" stroke-width="0.325745" d="M405.578,-100.801C409.724,-95.4962 415.779,-89.0134 422.749,-85.4975 530.442,-31.1682 573.933,-75.3618 691.749,-49.4975 710.067,-45.476 730.316,-39.1536 745.45,-34.043"/>
<polygon fill="red" stroke="red" stroke-width="0.325745" points="746.711,-37.3105 755.024,-30.7416 744.429,-30.6929 746.711,-37.3105"/>
</g>
<!-- &#45;14 -->
<g id="node14" class="node"><title>&#45;14</title>
<polygon fill="lightgray" stroke="black" points="555.249,-119.246 526.249,-119.246 526.249,-101.246 555.249,-101.246 555.249,-119.246"/>
<text text-anchor="middle" x="540.749" y="-108.046" font-family="Times,serif" font-size="9.00">&#45;14</text>
</g>
<!-- &#45;14&#45;&gt;2 -->
<g id="edge10" class="edge"><title>&#45;14&#45;&gt;2</title>
<path fill="none" stroke="red" stroke-width="0.270363" d="M533.751,-101.083C529.24,-96.1532 523.056,-89.9792 516.749,-85.4975 484.982,-62.9257 443.397,-44.6002 417.903,-34.443"/>
<polygon fill="red" stroke="red" stroke-width="0.270363" points="418.937,-31.0899 408.349,-30.7201 416.396,-37.6122 418.937,-31.0899"/>
</g>
<!-- 3 -->
<g id="node28" class="node"><title>3</title>
<ellipse fill="lightblue" stroke="black" cx="649.749" cy="-24.7487" rx="14.7" ry="14.7"/>
<text text-anchor="middle" x="649.749" y="-22.5487" font-family="Times,serif" font-size="9.00">3</text>
</g>
<!-- &#45;14&#45;&gt;3 -->
<g id="edge22" class="edge"><title>&#45;14&#45;&gt;3</title>
<path fill="none" stroke="red" stroke-width="0.288998" d="M548.05,-100.94C552.4,-96.1917 558.15,-90.2546 563.749,-85.4975 584.631,-67.7543 610.736,-50.1923 628.674,-38.7489"/>
<polygon fill="red" stroke="red" stroke-width="0.288998" points="630.644,-41.6451 637.24,-33.354 626.913,-35.722 630.644,-41.6451"/>
</g>
<!-- &#45;15 -->
<g id="node15" class="node"><title>&#45;15</title>
<polygon fill="lightgray" stroke="black" points="830.249,-119.246 801.249,-119.246 801.249,-101.246 830.249,-101.246 830.249,-119.246"/>
<text text-anchor="middle" x="815.749" y="-108.046" font-family="Times,serif" font-size="9.00">&#45;15</text>
</g>
<!-- &#45;15&#45;&gt;1 -->
<g id="edge5" class="edge"><title>&#45;15&#45;&gt;1</title>
<path fill="none" stroke="red" stroke-width="0.283589" d="M811.242,-101.24C804.302,-88.9106 790.76,-64.8535 780.822,-47.1981"/>
<polygon fill="red" stroke="red" stroke-width="0.283589" points="783.692,-45.1607 775.737,-38.1632 777.592,-48.5944 783.692,-45.1607"/>
</g>
<!-- &#45;16 -->
<g id="node16" class="node"><title>&#45;16</title>
<polygon fill="lightgray" stroke="black" points="508.249,-119.246 479.249,-119.246 479.249,-101.246 508.249,-101.246 508.249,-119.246"/>
<text text-anchor="middle" x="493.749" y="-108.046" font-family="Times,serif" font-size="9.00">&#45;16</text>
</g>
<!-- &#45;16&#45;&gt;0 -->
<g id="edge14" class="edge"><title>&#45;16&#45;&gt;0</title>
<path fill="none" stroke="green" stroke-width="0.947592" d="M487.487,-100.998C483.085,-95.7763 476.749,-89.3122 469.749,-85.4975 427.076,-62.2429 283.036,-38.4016 224.645,-29.4453"/>
<polygon fill="green" stroke="green" stroke-width="0.947592" points="224.885,-25.9416 214.473,-27.9032 223.835,-32.8626 224.885,-25.9416"/>
</g>
<!-- &#45;16&#45;&gt;1 -->
<g id="edge26" class="edge"><title>&#45;16&#45;&gt;1</title>
<path fill="none" stroke="green" stroke-width="0.244336" d="M499.662,-100.96C503.843,-95.7223 509.906,-89.2546 516.749,-85.4975 586.352,-47.2784 614.831,-69.2219 691.749,-49.4975 709.916,-44.8389 730.172,-38.5466 745.347,-33.6093"/>
<polygon fill="green" stroke="green" stroke-width="0.244336" points="746.55,-36.8979 754.953,-30.4444 744.36,-30.2495 746.55,-36.8979"/>
</g>
<!-- &#45;17 -->
<g id="node17" class="node"><title>&#45;17</title>
<polygon fill="lightgray" stroke="black" points="843.249,-204.744 814.249,-204.744 814.249,-186.744 843.249,-186.744 843.249,-204.744"/>
<text text-anchor="middle" x="828.749" y="-193.544" font-family="Times,serif" font-size="9.00">&#45;17</text>
</g>
<!-- &#45;17&#45;&gt;7386 -->
<g id="edge19" class="edge"><title>&#45;17&#45;&gt;7386</title>
<path fill="none" stroke="green" stroke-width="0.33973" d="M832.968,-186.738C838.434,-176.365 848.274,-157.691 856.8,-141.513"/>
<polygon fill="green" stroke="green" stroke-width="0.33973" points="860.059,-142.835 861.624,-132.357 853.866,-139.572 860.059,-142.835"/>
</g>
<!-- &#45;18 -->
<g id="node18" class="node"><title>&#45;18</title>
<polygon fill="lightgray" stroke="black" points="381.249,-204.744 352.249,-204.744 352.249,-186.744 381.249,-186.744 381.249,-204.744"/>
<text text-anchor="middle" x="366.749" y="-193.544" font-family="Times,serif" font-size="9.00">&#45;18</text>
</g>
<!-- 8664 -->
<g id="node35" class="node"><title>8664</title>
<ellipse fill="white" stroke="black" cx="342.749" cy="-110.246" rx="25" ry="25"/>
<text text-anchor="middle" x="342.749" y="-108.046" font-family="Times,serif" font-size="9.00">8664</text>
</g>
<!-- &#45;18&#45;&gt;8664 -->
<g id="edge33" class="edge"><title>&#45;18&#45;&gt;8664</title>
<path fill="none" stroke="green" stroke-width="0.224059" d="M364.448,-186.738C361.618,-176.893 356.64,-159.573 352.165,-144.005"/>
<polygon fill="green" stroke="green" stroke-width="0.224059" points="355.451,-142.767 349.324,-134.123 348.723,-144.7 355.451,-142.767"/>
</g>
<!-- &#45;19 -->
<g id="node19" class="node"><title>&#45;19</title>
<polygon fill="lightgray" stroke="black" points="669.249,-119.246 640.249,-119.246 640.249,-101.246 669.249,-101.246 669.249,-119.246"/>
<text text-anchor="middle" x="654.749" y="-108.046" font-family="Times,serif" font-size="9.00">&#45;19</text>
</g>
<!-- &#45;19&#45;&gt;1 -->
<g id="edge21" class="edge"><title>&#45;19&#45;&gt;1</title>
<path fill="none" stroke="red" stroke-width="0.344635" d="M662.003,-100.884C666.338,-96.118 672.088,-90.1808 677.749,-85.4975 700.047,-67.0488 728.229,-49.2928 747.277,-38.0017"/>
<polygon fill="red" stroke="red" stroke-width="0.344635" points="749.209,-40.9269 756.078,-32.8603 745.678,-34.8828 749.209,-40.9269"/>
</g>
<!-- &#45;19&#45;&gt;2 -->
<g id="edge7" class="edge"><title>&#45;19&#45;&gt;2</title>
<path fill="none" stroke="green" stroke-width="0.65555" d="M648.78,-101.059C644.575,-95.8628 638.507,-89.4044 631.749,-85.4975 561.837,-45.0794 464.895,-31.7352 419.747,-27.5482"/>
<polygon fill="green" stroke="green" stroke-width="0.65555" points="419.941,-24.0521 409.679,-26.6892 419.345,-31.0268 419.941,-24.0521"/>
</g>
<!-- &#45;20 -->
<g id="node20" class="node"><title>&#45;20</title>
<polygon fill="lightgray" stroke="black" points="334.249,-204.744 305.249,-204.744 305.249,-186.744 334.249,-186.744 334.249,-204.744"/>
<text text-anchor="middle" x="319.749" y="-193.544" font-family="Times,serif" font-size="9.00">&#45;20</text>
</g>
<!-- &#45;20&#45;&gt;8664 -->
<g id="edge25" class="edge"><title>&#45;20&#45;&gt;8664</title>
<path fill="none" stroke="green" stroke-width="0.428948" d="M321.954,-186.738C324.647,-176.96 329.372,-159.809 333.638,-144.323"/>
<polygon fill="green" stroke="green" stroke-width="0.428948" points="337.067,-145.051 336.349,-134.481 330.319,-143.192 337.067,-145.051"/>
</g>
<!-- &#45;21 -->
<g id="node21" class="node"><title>&#45;21</title>
<polygon fill="lightgray" stroke="black" points="257.249,-119.246 228.249,-119.246 228.249,-101.246 257.249,-101.246 257.249,-119.246"/>
<text text-anchor="middle" x="242.749" y="-108.046" font-family="Times,serif" font-size="9.00">&#45;21</text>
</g>
<!-- &#45;21&#45;&gt;0 -->
<g id="edge12" class="edge"><title>&#45;21&#45;&gt;0</title>
<path fill="none" stroke="green" stroke-width="2.19346" d="M238.626,-101.24C232.276,-88.9106 219.887,-64.8535 210.795,-47.1981"/>
<polygon fill="green" stroke="green" stroke-width="2.19346" points="213.832,-45.4511 206.142,-38.1632 207.609,-48.656 213.832,-45.4511"/>
</g>
<!-- &#45;21&#45;&gt;2 -->
<g id="edge30" class="edge"><title>&#45;21&#45;&gt;2</title>
<path fill="none" stroke="red" stroke-width="0.870758" d="M249.718,-101.041C254.217,-96.096 260.4,-89.9201 266.749,-85.4975 300.324,-62.1091 344.507,-43.8271 371.208,-33.9305"/>
<polygon fill="red" stroke="red" stroke-width="0.870758" points="372.639,-37.1347 380.851,-30.4402 370.256,-30.5526 372.639,-37.1347"/>
</g>
<!-- &#45;22 -->
<g id="node22" class="node"><title>&#45;22</title>
<polygon fill="lightgray" stroke="black" points="783.249,-119.246 754.249,-119.246 754.249,-101.246 783.249,-101.246 783.249,-119.246"/>
<text text-anchor="middle" x="768.749" y="-108.046" font-family="Times,serif" font-size="9.00">&#45;22</text>
</g>
<!-- &#45;22&#45;&gt;1 -->
<g id="edge15" class="edge"><title>&#45;22&#45;&gt;1</title>
<path fill="none" stroke="green" stroke-width="0.280528" d="M768.749,-101.24C768.749,-89.4769 768.749,-67.0389 768.749,-49.6698"/>
<polygon fill="green" stroke="green" stroke-width="0.280528" points="772.249,-49.6509 768.749,-39.6509 765.249,-49.6509 772.249,-49.6509"/>
</g>
<!-- &#45;22&#45;&gt;3 -->
<g id="edge36" class="edge"><title>&#45;22&#45;&gt;3</title>
<path fill="none" stroke="red" stroke-width="0.967472" d="M761.536,-100.833C757.216,-96.0489 751.466,-90.1117 745.749,-85.4975 721.987,-66.3192 691.659,-48.3883 671.517,-37.2692"/>
<polygon fill="red" stroke="red" stroke-width="0.967472" points="672.978,-34.0801 662.52,-32.3824 669.637,-40.2312 672.978,-34.0801"/>
</g>
<!-- &#45;23 -->
<g id="node23" class="node"><title>&#45;23</title>
<polygon fill="lightgray" stroke="black" points="1155.25,-204.744 1126.25,-204.744 1126.25,-186.744 1155.25,-186.744 1155.25,-204.744"/>
<text text-anchor="middle" x="1140.75" y="-193.544" font-family="Times,serif" font-size="9.00">&#45;23</text>
</g>
<!-- &#45;24 -->
<g id="node24" class="node"><title>&#45;24</title>
<polygon fill="lightgray" stroke="black" points="171.249,-119.246 142.249,-119.246 142.249,-101.246 171.249,-101.246 171.249,-119.246"/>
<text text-anchor="middle" x="156.749" y="-108.046" font-family="Times,serif" font-size="9.00">&#45;24</text>
</g>
<!-- &#45;24&#45;&gt;0 -->
<g id="edge31" class="edge"><title>&#45;24&#45;&gt;0</title>
<path fill="none" stroke="green" stroke-width="1.29149" d="M160.872,-101.24C167.221,-88.9106 179.61,-64.8535 188.703,-47.1981"/>
<polygon fill="green" stroke="green" stroke-width="1.29149" points="191.889,-48.656 193.355,-38.1632 185.665,-45.4511 191.889,-48.656"/>
</g>
<!-- 1&#45;&gt;1 -->
<g id="edge18" class="edge"><title>1&#45;&gt;1</title>
<path fill="none" stroke="red" stroke-width="0.516068" d="M778.165,-36.3113C789.022,-44.517 801.598,-40.6628 801.598,-24.7487 801.598,-13.3105 795.101,-8.10242 787.415,-9.12449"/>
<polygon fill="red" stroke="red" stroke-width="0.516068" points="785.914,-5.96114 778.165,-13.1862 788.728,-12.3705 785.914,-5.96114"/>
</g>
<!-- 2&#45;&gt;2 -->
<g id="edge16" class="edge"><title>2&#45;&gt;2</title>
<path fill="none" stroke="red" stroke-width="0.369925" d="M404.165,-36.3113C415.022,-44.517 427.598,-40.6628 427.598,-24.7487 427.598,-13.3105 421.101,-8.10242 413.415,-9.12449"/>
<polygon fill="red" stroke="red" stroke-width="0.369925" points="411.914,-5.96114 404.165,-13.1862 414.728,-12.3705 411.914,-5.96114"/>
</g>
<!-- 3&#45;&gt;3 -->
<g id="edge8" class="edge"><title>3&#45;&gt;3</title>
<path fill="none" stroke="green" stroke-width="0.487803" d="M659.165,-36.3113C670.022,-44.517 682.598,-40.6628 682.598,-24.7487 682.598,-13.3105 676.101,-8.10242 668.415,-9.12449"/>
<polygon fill="green" stroke="green" stroke-width="0.487803" points="666.914,-5.96114 659.165,-13.1862 669.728,-12.3705 666.914,-5.96114"/>
</g>
<!-- 8512&#45;&gt;3 -->
<g id="edge28" class="edge"><title>8512&#45;&gt;3</title>
<path fill="none" stroke="green" stroke-width="0.232109" d="M697.369,-89.8803C687.392,-76.4438 674.154,-58.6156 664.168,-45.1676"/>
<polygon fill="green" stroke="green" stroke-width="0.232109" points="666.914,-42.9951 658.143,-37.053 661.294,-47.1683 666.914,-42.9951"/>
</g>
<!-- 4550 -->
<g id="node31" class="node"><title>4550</title>
<ellipse fill="white" stroke="black" cx="1197.75" cy="-195.744" rx="25" ry="25"/>
<text text-anchor="middle" x="1197.75" y="-193.544" font-family="Times,serif" font-size="9.00">4550</text>
</g>
<!-- 7386&#45;&gt;1 -->
<g id="edge9" class="edge"><title>7386&#45;&gt;1</title>
<path fill="none" stroke="red" stroke-width="0.528921" d="M853.674,-93.9315C834.96,-78.9071 806.582,-56.1234 787.857,-41.0899"/>
<polygon fill="red" stroke="red" stroke-width="0.528921" points="789.991,-38.315 780.002,-34.7836 785.609,-43.7735 789.991,-38.315"/>
</g>
<!-- 9328&#45;&gt;3 -->
<g id="edge3" class="edge"><title>9328&#45;&gt;3</title>
<path fill="none" stroke="red" stroke-width="0.251965" d="M610.603,-88.6064C618.638,-75.7046 628.945,-59.153 636.967,-46.2731"/>
<polygon fill="red" stroke="red" stroke-width="0.251965" points="640.023,-47.9869 642.338,-37.6481 634.081,-44.2864 640.023,-47.9869"/>
</g>
<!-- 6800 -->
<g id="node34" class="node"><title>6800</title>
<ellipse fill="white" stroke="black" cx="939.749" cy="-110.246" rx="25" ry="25"/>
<text text-anchor="middle" x="939.749" y="-108.046" font-family="Times,serif" font-size="9.00">6800</text>
</g>
<!-- 6800&#45;&gt;1 -->
<g id="edge34" class="edge"><title>6800&#45;&gt;1</title>
<path fill="none" stroke="red" stroke-width="0.302732" d="M920.667,-94.461C916.218,-91.314 911.414,-88.1453 906.749,-85.4975 868.294,-63.6733 820.32,-44.5748 792.254,-34.1476"/>
<polygon fill="red" stroke="red" stroke-width="0.302732" points="793.127,-30.7401 782.533,-30.5883 790.72,-37.3133 793.127,-30.7401"/>
</g>
<!-- 8664&#45;&gt;2 -->
<g id="edge6" class="edge"><title>8664&#45;&gt;2</title>
<path fill="none" stroke="red" stroke-width="0.110041" d="M355.603,-88.6064C363.638,-75.7046 373.945,-59.153 381.967,-46.2731"/>
<polygon fill="red" stroke="red" stroke-width="0.110041" points="385.023,-47.9869 387.338,-37.6481 379.081,-44.2864 385.023,-47.9869"/>
</g>
</g>
</svg>
