<?xml version="1.0" encoding="UTF-8" standalone="no"?>
<!DOCTYPE svg PUBLIC "-//W3C//DTD SVG 1.1//EN"
 "http://www.w3.org/Graphics/SVG/1.1/DTD/svg11.dtd">
<!-- Generated by graphviz version 2.38.0 (20140413.2041)
 -->
<!-- Title: %3 Pages: 1 -->
<svg width="1340pt" height="912pt"
 viewBox="0.00 0.00 1339.60 912.47" xmlns="http://www.w3.org/2000/svg" xmlns:xlink="http://www.w3.org/1999/xlink">
<g id="graph0" class="graph" transform="scale(1 1) rotate(0) translate(4 908.472)">
<title>%3</title>
<polygon fill="white" stroke="none" points="-4,4 -4,-908.472 1335.6,-908.472 1335.6,4 -4,4"/>
<!-- &#45;1 -->
<g id="node1" class="node"><title>&#45;1</title>
<polygon fill="lightgray" stroke="black" points="61.7487,-370.082 37.7487,-370.082 37.7487,-352.082 61.7487,-352.082 61.7487,-370.082"/>
<text text-anchor="middle" x="49.7487" y="-358.882" font-family="Times,serif" font-size="9.00">&#45;1</text>
</g>
<!-- 9931 -->
<g id="node39" class="node"><title>9931</title>
<ellipse fill="white" stroke="black" cx="24.7487" cy="-269.927" rx="25" ry="25"/>
<text text-anchor="middle" x="24.7487" y="-267.727" font-family="Times,serif" font-size="9.00">9931</text>
</g>
<!-- &#45;1&#45;&gt;9931 -->
<g id="edge8" class="edge"><title>&#45;1&#45;&gt;9931</title>
<path fill="none" stroke="green" stroke-width="0.316727" d="M47.4416,-351.854C44.39,-340.972 38.8306,-321.146 33.9784,-303.842"/>
<polygon fill="green" stroke="green" stroke-width="0.316727" points="37.2976,-302.715 31.2275,-294.032 30.5575,-304.605 37.2976,-302.715"/>
</g>
<!-- 6507 -->
<g id="node47" class="node"><title>6507</title>
<ellipse fill="white" stroke="black" cx="210.749" cy="-178.773" rx="25" ry="25"/>
<text text-anchor="middle" x="210.749" y="-176.573" font-family="Times,serif" font-size="9.00">6507</text>
</g>
<!-- &#45;1&#45;&gt;6507 -->
<g id="edge21" class="edge"><title>&#45;1&#45;&gt;6507</title>
<path fill="none" stroke="green" stroke-width="0.318016" d="M50.8857,-351.805C54.1753,-330.827 65.5402,-274.931 96.7487,-242.35 123.719,-214.194 143.37,-226.502 176.749,-206.35 179.214,-204.862 181.706,-203.221 184.16,-201.508"/>
<polygon fill="green" stroke="green" stroke-width="0.318016" points="186.306,-204.274 192.268,-195.516 182.146,-198.644 186.306,-204.274"/>
</g>
<!-- &#45;2 -->
<g id="node2" class="node"><title>&#45;2</title>
<polygon fill="lightgray" stroke="black" points="587.749,-898.623 563.749,-898.623 563.749,-880.623 587.749,-880.623 587.749,-898.623"/>
<text text-anchor="middle" x="575.749" y="-887.423" font-family="Times,serif" font-size="9.00">&#45;2</text>
</g>
<!-- &#45;3 -->
<g id="node3" class="node"><title>&#45;3</title>
<polygon fill="lightgray" stroke="black" points="167.749,-187.773 143.749,-187.773 143.749,-169.773 167.749,-169.773 167.749,-187.773"/>
<text text-anchor="middle" x="155.749" y="-176.573" font-family="Times,serif" font-size="9.00">&#45;3</text>
</g>
<!-- 2197 -->
<g id="node33" class="node"><title>2197</title>
<ellipse fill="white" stroke="black" cx="158.749" cy="-90.4472" rx="25" ry="25"/>
<text text-anchor="middle" x="158.749" y="-88.2472" font-family="Times,serif" font-size="9.00">2197</text>
</g>
<!-- &#45;3&#45;&gt;2197 -->
<g id="edge26" class="edge"><title>&#45;3&#45;&gt;2197</title>
<path fill="none" stroke="green" stroke-width="0.675606" d="M156.036,-169.496C156.388,-159.387 157.004,-141.655 157.56,-125.644"/>
<polygon fill="green" stroke="green" stroke-width="0.675606" points="161.064,-125.584 157.914,-115.469 154.069,-125.341 161.064,-125.584"/>
</g>
<!-- &#45;4 -->
<g id="node4" class="node"><title>&#45;4</title>
<polygon fill="lightgray" stroke="black" points="629.749,-898.623 605.749,-898.623 605.749,-880.623 629.749,-880.623 629.749,-898.623"/>
<text text-anchor="middle" x="617.749" y="-887.423" font-family="Times,serif" font-size="9.00">&#45;4</text>
</g>
<!-- &#45;5 -->
<g id="node5" class="node"><title>&#45;5</title>
<polygon fill="lightgray" stroke="black" points="278.749,-370.082 254.749,-370.082 254.749,-352.082 278.749,-352.082 278.749,-370.082"/>
<text text-anchor="middle" x="266.749" y="-358.882" font-family="Times,serif" font-size="9.00">&#45;5</text>
</g>
<!-- 2 -->
<g id="node27" class="node"><title>2</title>
<ellipse fill="lightblue" stroke="black" cx="266.749" cy="-269.927" rx="14.7" ry="14.7"/>
<text text-anchor="middle" x="266.749" y="-267.727" font-family="Times,serif" font-size="9.00">2</text>
</g>
<!-- &#45;5&#45;&gt;2 -->
<g id="edge38" class="edge"><title>&#45;5&#45;&gt;2</title>
<path fill="none" stroke="red" stroke-width="0.88203" d="M266.749,-351.854C266.749,-339.098 266.749,-314.053 266.749,-295.186"/>
<polygon fill="red" stroke="red" stroke-width="0.88203" points="270.249,-294.931 266.749,-284.931 263.249,-294.931 270.249,-294.931"/>
</g>
<!-- &#45;6 -->
<g id="node6" class="node"><title>&#45;6</title>
<polygon fill="lightgray" stroke="black" points="671.749,-898.623 647.749,-898.623 647.749,-880.623 671.749,-880.623 671.749,-898.623"/>
<text text-anchor="middle" x="659.749" y="-887.423" font-family="Times,serif" font-size="9.00">&#45;6</text>
</g>
<!-- &#45;7 -->
<g id="node7" class="node"><title>&#45;7</title>
<polygon fill="lightgray" stroke="black" points="429.749,-278.927 405.749,-278.927 405.749,-260.927 429.749,-260.927 429.749,-278.927"/>
<text text-anchor="middle" x="417.749" y="-267.727" font-family="Times,serif" font-size="9.00">&#45;7</text>
</g>
<!-- 2831 -->
<g id="node31" class="node"><title>2831</title>
<ellipse fill="white" stroke="black" cx="364.749" cy="-90.4472" rx="25" ry="25"/>
<text text-anchor="middle" x="364.749" y="-88.2472" font-family="Times,serif" font-size="9.00">2831</text>
</g>
<!-- &#45;7&#45;&gt;2831 -->
<g id="edge10" class="edge"><title>&#45;7&#45;&gt;2831</title>
<path fill="none" stroke="green" stroke-width="0.82602" d="M417.424,-260.688C416.44,-241.139 412.644,-190.642 398.749,-151.196 394.993,-140.533 389.361,-129.58 383.756,-120.012"/>
<polygon fill="green" stroke="green" stroke-width="0.82602" points="386.648,-118.032 378.453,-111.318 380.672,-121.678 386.648,-118.032"/>
</g>
<!-- 4505 -->
<g id="node34" class="node"><title>4505</title>
<ellipse fill="white" stroke="black" cx="364.749" cy="-178.773" rx="25" ry="25"/>
<text text-anchor="middle" x="364.749" y="-176.573" font-family="Times,serif" font-size="9.00">4505</text>
</g>
<!-- &#45;7&#45;&gt;4505 -->
<g id="edge20" class="edge"><title>&#45;7&#45;&gt;4505</title>
<path fill="none" stroke="red" stroke-width="0.40897" d="M412.858,-260.7C406.005,-249.173 393.189,-227.614 382.507,-209.645"/>
<polygon fill="red" stroke="red" stroke-width="0.40897" points="385.277,-207.455 377.158,-200.648 379.26,-211.032 385.277,-207.455"/>
</g>
<!-- 5851 -->
<g id="node43" class="node"><title>5851</title>
<ellipse fill="white" stroke="black" cx="470.749" cy="-178.773" rx="25" ry="25"/>
<text text-anchor="middle" x="470.749" y="-176.573" font-family="Times,serif" font-size="9.00">5851</text>
</g>
<!-- &#45;7&#45;&gt;5851 -->
<g id="edge22" class="edge"><title>&#45;7&#45;&gt;5851</title>
<path fill="none" stroke="green" stroke-width="0.126016" d="M422.64,-260.7C429.492,-249.173 442.308,-227.614 452.991,-209.645"/>
<polygon fill="green" stroke="green" stroke-width="0.126016" points="456.238,-211.032 458.339,-200.648 450.221,-207.455 456.238,-211.032"/>
</g>
<!-- &#45;7&#45;&gt;6507 -->
<g id="edge2" class="edge"><title>&#45;7&#45;&gt;6507</title>
<path fill="none" stroke="red" stroke-width="0.530016" d="M413.184,-260.916C409.452,-255.024 403.673,-247.224 396.749,-242.35 350.074,-209.497 284.833,-192.844 245.314,-185.258"/>
<polygon fill="red" stroke="red" stroke-width="0.530016" points="245.835,-181.795 235.368,-183.436 244.573,-188.68 245.835,-181.795"/>
</g>
<!-- &#45;8 -->
<g id="node8" class="node"><title>&#45;8</title>
<polygon fill="lightgray" stroke="black" points="120.749,-187.773 96.7487,-187.773 96.7487,-169.773 120.749,-169.773 120.749,-187.773"/>
<text text-anchor="middle" x="108.749" y="-176.573" font-family="Times,serif" font-size="9.00">&#45;8</text>
</g>
<!-- 1 -->
<g id="node26" class="node"><title>1</title>
<ellipse fill="lightblue" stroke="black" cx="158.749" cy="-14.8492" rx="14.7" ry="14.7"/>
<text text-anchor="middle" x="158.749" y="-12.6492" font-family="Times,serif" font-size="9.00">1</text>
</g>
<!-- &#45;8&#45;&gt;1 -->
<g id="edge11" class="edge"><title>&#45;8&#45;&gt;1</title>
<path fill="none" stroke="red" stroke-width="1.32781" d="M108.668,-169.577C108.744,-150.614 110.456,-102.528 124.749,-65.6985 129.069,-54.5651 136.284,-43.4622 142.959,-34.5703"/>
<polygon fill="red" stroke="red" stroke-width="1.32781" points="145.882,-36.5157 149.326,-26.4962 140.386,-32.181 145.882,-36.5157"/>
</g>
<!-- &#45;8&#45;&gt;2197 -->
<g id="edge30" class="edge"><title>&#45;8&#45;&gt;2197</title>
<path fill="none" stroke="green" stroke-width="0.471319" d="M113.543,-169.496C119.936,-158.458 131.595,-138.328 141.471,-121.277"/>
<polygon fill="green" stroke="green" stroke-width="0.471319" points="144.746,-122.606 146.73,-112.198 138.689,-119.097 144.746,-122.606"/>
</g>
<!-- &#45;9 -->
<g id="node9" class="node"><title>&#45;9</title>
<polygon fill="lightgray" stroke="black" points="412.749,-370.082 388.749,-370.082 388.749,-352.082 412.749,-352.082 412.749,-370.082"/>
<text text-anchor="middle" x="400.749" y="-358.882" font-family="Times,serif" font-size="9.00">&#45;9</text>
</g>
<!-- 6074 -->
<g id="node37" class="node"><title>6074</title>
<ellipse fill="white" stroke="black" cx="362.749" cy="-269.927" rx="25" ry="25"/>
<text text-anchor="middle" x="362.749" y="-267.727" font-family="Times,serif" font-size="9.00">6074</text>
</g>
<!-- &#45;9&#45;&gt;6074 -->
<g id="edge29" class="edge"><title>&#45;9&#45;&gt;6074</title>
<path fill="none" stroke="red" stroke-width="0.963422" d="M397.242,-351.854C392.467,-340.652 383.653,-319.972 376.13,-302.323"/>
<polygon fill="red" stroke="red" stroke-width="0.963422" points="379.258,-300.735 372.118,-292.908 372.819,-303.48 379.258,-300.735"/>
</g>
<!-- &#45;10 -->
<g id="node10" class="node"><title>&#45;10</title>
<polygon fill="lightgray" stroke="black" points="719.249,-898.623 690.249,-898.623 690.249,-880.623 719.249,-880.623 719.249,-898.623"/>
<text text-anchor="middle" x="704.749" y="-887.423" font-family="Times,serif" font-size="9.00">&#45;10</text>
</g>
<!-- &#45;11 -->
<g id="node11" class="node"><title>&#45;11</title>
<polygon fill="lightgray" stroke="black" points="766.249,-898.623 737.249,-898.623 737.249,-880.623 766.249,-880.623 766.249,-898.623"/>
<text text-anchor="middle" x="751.749" y="-887.423" font-family="Times,serif" font-size="9.00">&#45;11</text>
</g>
<!-- &#45;12 -->
<g id="node12" class="node"><title>&#45;12</title>
<polygon fill="lightgray" stroke="black" points="813.249,-898.623 784.249,-898.623 784.249,-880.623 813.249,-880.623 813.249,-898.623"/>
<text text-anchor="middle" x="798.749" y="-887.423" font-family="Times,serif" font-size="9.00">&#45;12</text>
</g>
<!-- &#45;13 -->
<g id="node13" class="node"><title>&#45;13</title>
<polygon fill="lightgray" stroke="black" points="860.249,-898.623 831.249,-898.623 831.249,-880.623 860.249,-880.623 860.249,-898.623"/>
<text text-anchor="middle" x="845.749" y="-887.423" font-family="Times,serif" font-size="9.00">&#45;13</text>
</g>
<!-- &#45;14 -->
<g id="node14" class="node"><title>&#45;14</title>
<polygon fill="lightgray" stroke="black" points="545.249,-898.623 516.249,-898.623 516.249,-880.623 545.249,-880.623 545.249,-898.623"/>
<text text-anchor="middle" x="530.749" y="-887.423" font-family="Times,serif" font-size="9.00">&#45;14</text>
</g>
<!-- 13885 -->
<g id="node38" class="node"><title>13885</title>
<ellipse fill="white" stroke="black" cx="487.749" cy="-811.197" rx="27.6545" ry="27.6545"/>
<text text-anchor="middle" x="487.749" y="-808.997" font-family="Times,serif" font-size="9.00">13885</text>
</g>
<!-- &#45;14&#45;&gt;13885 -->
<g id="edge35" class="edge"><title>&#45;14&#45;&gt;13885</title>
<path fill="none" stroke="green" stroke-width="0.306975" d="M526.147,-880.444C521.288,-871.809 513.32,-857.646 505.897,-844.453"/>
<polygon fill="green" stroke="green" stroke-width="0.306975" points="508.845,-842.554 500.891,-835.555 502.744,-845.987 508.845,-842.554"/>
</g>
<!-- 10861 -->
<g id="node48" class="node"><title>10861</title>
<ellipse fill="white" stroke="black" cx="586.749" cy="-269.927" rx="27.6545" ry="27.6545"/>
<text text-anchor="middle" x="586.749" y="-267.727" font-family="Times,serif" font-size="9.00">10861</text>
</g>
<!-- &#45;14&#45;&gt;10861 -->
<g id="edge1" class="edge"><title>&#45;14&#45;&gt;10861</title>
<path fill="none" stroke="red" stroke-width="0.201347" d="M534.415,-880.445C544.813,-856.478 573.749,-784.119 573.749,-721.042 573.749,-721.042 573.749,-721.042 573.749,-451.236 573.749,-401.39 578.752,-343.993 582.551,-307.6"/>
<polygon fill="red" stroke="red" stroke-width="0.201347" points="586.052,-307.779 583.635,-297.464 579.091,-307.035 586.052,-307.779"/>
</g>
<!-- &#45;15 -->
<g id="node15" class="node"><title>&#45;15</title>
<polygon fill="lightgray" stroke="black" points="907.249,-898.623 878.249,-898.623 878.249,-880.623 907.249,-880.623 907.249,-898.623"/>
<text text-anchor="middle" x="892.749" y="-887.423" font-family="Times,serif" font-size="9.00">&#45;15</text>
</g>
<!-- &#45;16 -->
<g id="node16" class="node"><title>&#45;16</title>
<polygon fill="lightgray" stroke="black" points="954.249,-898.623 925.249,-898.623 925.249,-880.623 954.249,-880.623 954.249,-898.623"/>
<text text-anchor="middle" x="939.749" y="-887.423" font-family="Times,serif" font-size="9.00">&#45;16</text>
</g>
<!-- &#45;17 -->
<g id="node17" class="node"><title>&#45;17</title>
<polygon fill="lightgray" stroke="black" points="529.249,-640.716 500.249,-640.716 500.249,-622.716 529.249,-622.716 529.249,-640.716"/>
<text text-anchor="middle" x="514.749" y="-629.516" font-family="Times,serif" font-size="9.00">&#45;17</text>
</g>
<!-- 12626 -->
<g id="node42" class="node"><title>12626</title>
<ellipse fill="white" stroke="black" cx="457.749" cy="-543.39" rx="27.6545" ry="27.6545"/>
<text text-anchor="middle" x="457.749" y="-541.19" font-family="Times,serif" font-size="9.00">12626</text>
</g>
<!-- &#45;17&#45;&gt;12626 -->
<g id="edge3" class="edge"><title>&#45;17&#45;&gt;12626</title>
<path fill="none" stroke="red" stroke-width="0.530983" d="M509.283,-622.439C502.165,-611.658 489.32,-592.205 478.235,-575.417"/>
<polygon fill="red" stroke="red" stroke-width="0.530983" points="481.07,-573.358 472.639,-566.941 475.228,-577.215 481.07,-573.358"/>
</g>
<!-- &#45;18 -->
<g id="node18" class="node"><title>&#45;18</title>
<polygon fill="lightgray" stroke="black" points="1001.25,-898.623 972.249,-898.623 972.249,-880.623 1001.25,-880.623 1001.25,-898.623"/>
<text text-anchor="middle" x="986.749" y="-887.423" font-family="Times,serif" font-size="9.00">&#45;18</text>
</g>
<!-- &#45;19 -->
<g id="node19" class="node"><title>&#45;19</title>
<polygon fill="lightgray" stroke="black" points="1048.25,-898.623 1019.25,-898.623 1019.25,-880.623 1048.25,-880.623 1048.25,-898.623"/>
<text text-anchor="middle" x="1033.75" y="-887.423" font-family="Times,serif" font-size="9.00">&#45;19</text>
</g>
<!-- &#45;20 -->
<g id="node20" class="node"><title>&#45;20</title>
<polygon fill="lightgray" stroke="black" points="532.249,-729.042 503.249,-729.042 503.249,-711.042 532.249,-711.042 532.249,-729.042"/>
<text text-anchor="middle" x="517.749" y="-717.842" font-family="Times,serif" font-size="9.00">&#45;20</text>
</g>
<!-- 9704 -->
<g id="node45" class="node"><title>9704</title>
<ellipse fill="white" stroke="black" cx="457.749" cy="-631.716" rx="25" ry="25"/>
<text text-anchor="middle" x="457.749" y="-629.516" font-family="Times,serif" font-size="9.00">9704</text>
</g>
<!-- &#45;20&#45;&gt;9704 -->
<g id="edge40" class="edge"><title>&#45;20&#45;&gt;9704</title>
<path fill="none" stroke="green" stroke-width="0.204644" d="M511.996,-710.765C504.103,-699.409 489.522,-678.431 477.464,-661.081"/>
<polygon fill="green" stroke="green" stroke-width="0.204644" points="480.018,-658.624 471.436,-652.41 474.27,-662.619 480.018,-658.624"/>
</g>
<!-- &#45;21 -->
<g id="node21" class="node"><title>&#45;21</title>
<polygon fill="lightgray" stroke="black" points="1095.25,-898.623 1066.25,-898.623 1066.25,-880.623 1095.25,-880.623 1095.25,-898.623"/>
<text text-anchor="middle" x="1080.75" y="-887.423" font-family="Times,serif" font-size="9.00">&#45;21</text>
</g>
<!-- &#45;22 -->
<g id="node22" class="node"><title>&#45;22</title>
<polygon fill="lightgray" stroke="black" points="1142.25,-898.623 1113.25,-898.623 1113.25,-880.623 1142.25,-880.623 1142.25,-898.623"/>
<text text-anchor="middle" x="1127.75" y="-887.423" font-family="Times,serif" font-size="9.00">&#45;22</text>
</g>
<!-- &#45;23 -->
<g id="node23" class="node"><title>&#45;23</title>
<polygon fill="lightgray" stroke="black" points="1189.25,-898.623 1160.25,-898.623 1160.25,-880.623 1189.25,-880.623 1189.25,-898.623"/>
<text text-anchor="middle" x="1174.75" y="-887.423" font-family="Times,serif" font-size="9.00">&#45;23</text>
</g>
<!-- &#45;24 -->
<g id="node24" class="node"><title>&#45;24</title>
<polygon fill="lightgray" stroke="black" points="1236.25,-898.623 1207.25,-898.623 1207.25,-880.623 1236.25,-880.623 1236.25,-898.623"/>
<text text-anchor="middle" x="1221.75" y="-887.423" font-family="Times,serif" font-size="9.00">&#45;24</text>
</g>
<!-- 0 -->
<g id="node25" class="node"><title>0</title>
<ellipse fill="lightblue" stroke="black" cx="1268.75" cy="-889.623" rx="14.7" ry="14.7"/>
<text text-anchor="middle" x="1268.75" y="-887.423" font-family="Times,serif" font-size="9.00">0</text>
</g>
<!-- 2&#45;&gt;2831 -->
<g id="edge37" class="edge"><title>2&#45;&gt;2831</title>
<path fill="none" stroke="green" stroke-width="0.410306" d="M272.11,-255.846C281.366,-233.721 301.412,-187.75 322.749,-151.196 329.126,-140.27 336.912,-128.785 344.04,-118.836"/>
<polygon fill="green" stroke="green" stroke-width="0.410306" points="347.023,-120.685 350.083,-110.542 341.365,-116.564 347.023,-120.685"/>
</g>
<!-- 2&#45;&gt;6507 -->
<g id="edge6" class="edge"><title>2&#45;&gt;6507</title>
<path fill="none" stroke="red" stroke-width="0.259141" d="M259.196,-256.904C251.488,-244.632 239.234,-225.123 228.979,-208.797"/>
<polygon fill="red" stroke="red" stroke-width="0.259141" points="231.812,-206.727 223.529,-200.12 225.885,-210.45 231.812,-206.727"/>
</g>
<!-- 3 -->
<g id="node28" class="node"><title>3</title>
<ellipse fill="lightblue" stroke="black" cx="1316.75" cy="-889.623" rx="14.7" ry="14.7"/>
<text text-anchor="middle" x="1316.75" y="-887.423" font-family="Times,serif" font-size="9.00">3</text>
</g>
<!-- 14216 -->
<g id="node29" class="node"><title>14216</title>
<ellipse fill="white" stroke="black" cx="342.749" cy="-361.082" rx="27.6545" ry="27.6545"/>
<text text-anchor="middle" x="342.749" y="-358.882" font-family="Times,serif" font-size="9.00">14216</text>
</g>
<!-- 14216&#45;&gt;6074 -->
<g id="edge39" class="edge"><title>14216&#45;&gt;6074</title>
<path fill="none" stroke="red" stroke-width="1.47778" d="M348.641,-333.815C350.728,-324.513 353.103,-313.924 355.302,-304.122"/>
<polygon fill="red" stroke="red" stroke-width="1.47778" points="358.736,-304.803 357.51,-294.279 351.906,-303.27 358.736,-304.803"/>
</g>
<!-- 14216&#45;&gt;6507 -->
<g id="edge17" class="edge"><title>14216&#45;&gt;6507</title>
<path fill="none" stroke="green" stroke-width="0.55659" d="M335.409,-334.258C327.346,-309.011 312.572,-270.385 290.749,-242.35 276.949,-224.623 257.07,-209.041 240.581,-197.86"/>
<polygon fill="green" stroke="green" stroke-width="0.55659" points="242.11,-194.677 231.829,-192.115 238.269,-200.529 242.11,-194.677"/>
</g>
<!-- 13193 -->
<g id="node30" class="node"><title>13193</title>
<ellipse fill="white" stroke="black" cx="133.749" cy="-361.082" rx="27.6545" ry="27.6545"/>
<text text-anchor="middle" x="133.749" y="-358.882" font-family="Times,serif" font-size="9.00">13193</text>
</g>
<!-- 10705 -->
<g id="node41" class="node"><title>10705</title>
<ellipse fill="white" stroke="black" cx="133.749" cy="-269.927" rx="27.6545" ry="27.6545"/>
<text text-anchor="middle" x="133.749" y="-267.727" font-family="Times,serif" font-size="9.00">10705</text>
</g>
<!-- 13193&#45;&gt;10705 -->
<g id="edge36" class="edge"><title>13193&#45;&gt;10705</title>
<path fill="none" stroke="green" stroke-width="1.00778" d="M133.749,-333.333C133.749,-325.31 133.749,-316.366 133.749,-307.811"/>
<polygon fill="green" stroke="green" stroke-width="1.00778" points="137.249,-307.658 133.749,-297.658 130.249,-307.658 137.249,-307.658"/>
</g>
<!-- 2831&#45;&gt;1 -->
<g id="edge7" class="edge"><title>2831&#45;&gt;1</title>
<path fill="none" stroke="red" stroke-width="0.599305" d="M341.518,-81.1477C301.916,-66.9988 221.775,-38.3667 182.094,-24.1899"/>
<polygon fill="red" stroke="red" stroke-width="0.599305" points="183.078,-20.8248 172.483,-20.7562 180.723,-27.4167 183.078,-20.8248"/>
</g>
<!-- 14355 -->
<g id="node32" class="node"><title>14355</title>
<ellipse fill="white" stroke="black" cx="584.749" cy="-178.773" rx="27.6545" ry="27.6545"/>
<text text-anchor="middle" x="584.749" y="-176.573" font-family="Times,serif" font-size="9.00">14355</text>
</g>
<!-- 14355&#45;&gt;2831 -->
<g id="edge32" class="edge"><title>14355&#45;&gt;2831</title>
<path fill="none" stroke="green" stroke-width="0.525938" d="M561.972,-162.737C555.294,-158.683 547.87,-154.508 540.749,-151.196 492.948,-128.965 434.478,-110.775 398.425,-100.522"/>
<polygon fill="green" stroke="green" stroke-width="0.525938" points="399.009,-97.0506 388.435,-97.7213 397.119,-103.791 399.009,-97.0506"/>
</g>
<!-- 2197&#45;&gt;1 -->
<g id="edge16" class="edge"><title>2197&#45;&gt;1</title>
<path fill="none" stroke="green" stroke-width="0.760997" d="M158.749,-65.3485C158.749,-57.1867 158.749,-48.0749 158.749,-39.9156"/>
<polygon fill="green" stroke="green" stroke-width="0.760997" points="162.249,-39.8982 158.749,-29.8983 155.249,-39.8983 162.249,-39.8982"/>
</g>
<!-- 4505&#45;&gt;2831 -->
<g id="edge27" class="edge"><title>4505&#45;&gt;2831</title>
<path fill="none" stroke="red" stroke-width="1.49906" d="M364.749,-153.727C364.749,-145.027 364.749,-135.029 364.749,-125.627"/>
<polygon fill="red" stroke="red" stroke-width="1.49906" points="368.249,-125.365 364.749,-115.365 361.249,-125.365 368.249,-125.365"/>
</g>
<!-- 7718 -->
<g id="node35" class="node"><title>7718</title>
<ellipse fill="white" stroke="black" cx="205.749" cy="-361.082" rx="25" ry="25"/>
<text text-anchor="middle" x="205.749" y="-358.882" font-family="Times,serif" font-size="9.00">7718</text>
</g>
<!-- 12339 -->
<g id="node36" class="node"><title>12339</title>
<ellipse fill="white" stroke="black" cx="206.749" cy="-269.927" rx="27.6545" ry="27.6545"/>
<text text-anchor="middle" x="206.749" y="-267.727" font-family="Times,serif" font-size="9.00">12339</text>
</g>
<!-- 7718&#45;&gt;12339 -->
<g id="edge13" class="edge"><title>7718&#45;&gt;12339</title>
<path fill="none" stroke="red" stroke-width="0.97004" d="M206.017,-336.19C206.114,-327.478 206.227,-317.411 206.335,-307.832"/>
<polygon fill="red" stroke="red" stroke-width="0.97004" points="209.836,-307.755 206.448,-297.716 202.836,-307.676 209.836,-307.755"/>
</g>
<!-- 7718&#45;&gt;10705 -->
<g id="edge34" class="edge"><title>7718&#45;&gt;10705</title>
<path fill="none" stroke="red" stroke-width="0.16643" d="M190.479,-341.174C180.839,-329.238 168.191,-313.576 157.284,-300.07"/>
<polygon fill="red" stroke="red" stroke-width="0.16643" points="159.766,-297.573 150.76,-291.992 154.32,-301.971 159.766,-297.573"/>
</g>
<!-- 12339&#45;&gt;6507 -->
<g id="edge31" class="edge"><title>12339&#45;&gt;6507</title>
<path fill="none" stroke="green" stroke-width="0.965195" d="M207.949,-242.178C208.347,-233.309 208.795,-223.312 209.215,-213.961"/>
<polygon fill="green" stroke="green" stroke-width="0.965195" points="212.72,-213.92 209.672,-203.773 205.727,-213.606 212.72,-213.92"/>
</g>
<!-- 6074&#45;&gt;2831 -->
<g id="edge25" class="edge"><title>6074&#45;&gt;2831</title>
<path fill="none" stroke="green" stroke-width="0.457484" d="M349.492,-249.027C342.406,-237.179 334.406,-221.535 330.749,-206.35 325.009,-182.519 324.478,-174.893 330.749,-151.196 333.664,-140.179 339.134,-129.068 344.849,-119.466"/>
<polygon fill="green" stroke="green" stroke-width="0.457484" points="347.955,-121.101 350.326,-110.775 342.033,-117.369 347.955,-121.101"/>
</g>
<!-- 6074&#45;&gt;4505 -->
<g id="edge24" class="edge"><title>6074&#45;&gt;4505</title>
<path fill="none" stroke="green" stroke-width="0.403637" d="M363.285,-245.036C363.5,-235.442 363.752,-224.206 363.986,-213.787"/>
<polygon fill="green" stroke="green" stroke-width="0.403637" points="367.486,-213.807 364.211,-203.731 360.488,-213.65 367.486,-213.807"/>
</g>
<!-- 12003 -->
<g id="node44" class="node"><title>12003</title>
<ellipse fill="white" stroke="black" cx="457.749" cy="-720.042" rx="27.6545" ry="27.6545"/>
<text text-anchor="middle" x="457.749" y="-717.842" font-family="Times,serif" font-size="9.00">12003</text>
</g>
<!-- 13885&#45;&gt;12003 -->
<g id="edge23" class="edge"><title>13885&#45;&gt;12003</title>
<path fill="none" stroke="green" stroke-width="0.35786" d="M479.232,-784.887C476.224,-775.946 472.784,-765.725 469.553,-756.121"/>
<polygon fill="green" stroke="green" stroke-width="0.35786" points="472.793,-754.777 466.287,-746.415 466.159,-757.009 472.793,-754.777"/>
</g>
<!-- 9931&#45;&gt;6507 -->
<g id="edge15" class="edge"><title>9931&#45;&gt;6507</title>
<path fill="none" stroke="red" stroke-width="0.294537" d="M43.9148,-254.245C50.0291,-250.012 56.972,-245.651 63.7487,-242.35 111.135,-219.267 130.141,-230.968 176.749,-206.35 179.295,-205.005 181.843,-203.465 184.336,-201.818"/>
<polygon fill="red" stroke="red" stroke-width="0.294537" points="186.434,-204.621 192.508,-195.94 182.346,-198.938 186.434,-204.621"/>
</g>
<!-- 13519 -->
<g id="node40" class="node"><title>13519</title>
<ellipse fill="white" stroke="black" cx="372.749" cy="-452.236" rx="27.6545" ry="27.6545"/>
<text text-anchor="middle" x="372.749" y="-450.036" font-family="Times,serif" font-size="9.00">13519</text>
</g>
<!-- 13519&#45;&gt;14216 -->
<g id="edge28" class="edge"><title>13519&#45;&gt;14216</title>
<path fill="none" stroke="green" stroke-width="0.697134" d="M364.232,-425.927C361.224,-416.986 357.784,-406.765 354.553,-397.16"/>
<polygon fill="green" stroke="green" stroke-width="0.697134" points="357.793,-395.816 351.287,-387.455 351.159,-398.049 357.793,-395.816"/>
</g>
<!-- 10705&#45;&gt;6507 -->
<g id="edge5" class="edge"><title>10705&#45;&gt;6507</title>
<path fill="none" stroke="green" stroke-width="0.40531" d="M151.608,-248.25C162.526,-235.607 176.589,-219.324 188.263,-205.809"/>
<polygon fill="green" stroke="green" stroke-width="0.40531" points="190.93,-208.075 194.818,-198.219 185.632,-203.499 190.93,-208.075"/>
</g>
<!-- 12626&#45;&gt;13519 -->
<g id="edge4" class="edge"><title>12626&#45;&gt;13519</title>
<path fill="none" stroke="green" stroke-width="1.1969" d="M438.884,-522.604C426.999,-510.138 411.499,-493.88 398.491,-480.237"/>
<polygon fill="green" stroke="green" stroke-width="1.1969" points="400.994,-477.79 391.56,-472.967 395.928,-482.62 400.994,-477.79"/>
</g>
<!-- 12626&#45;&gt;5851 -->
<g id="edge19" class="edge"><title>12626&#45;&gt;5851</title>
<path fill="none" stroke="red" stroke-width="0.340434" d="M458.705,-515.726C461.025,-451.008 466.952,-285.67 469.526,-213.889"/>
<polygon fill="red" stroke="red" stroke-width="0.340434" points="473.034,-213.719 469.895,-203.6 466.038,-213.469 473.034,-213.719"/>
</g>
<!-- 12003&#45;&gt;9704 -->
<g id="edge14" class="edge"><title>12003&#45;&gt;9704</title>
<path fill="none" stroke="green" stroke-width="0.305275" d="M457.749,-692.201C457.749,-684.108 457.749,-675.117 457.749,-666.627"/>
<polygon fill="green" stroke="green" stroke-width="0.305275" points="461.249,-666.614 457.749,-656.614 454.249,-666.614 461.249,-666.614"/>
</g>
<!-- 9704&#45;&gt;12626 -->
<g id="edge9" class="edge"><title>9704&#45;&gt;12626</title>
<path fill="none" stroke="green" stroke-width="0.257164" d="M457.749,-606.67C457.749,-598.796 457.749,-589.858 457.749,-581.261"/>
<polygon fill="green" stroke="green" stroke-width="0.257164" points="461.249,-581.038 457.749,-571.038 454.249,-581.038 461.249,-581.038"/>
</g>
<!-- 10472 -->
<g id="node46" class="node"><title>10472</title>
<ellipse fill="white" stroke="black" cx="513.749" cy="-269.927" rx="27.6545" ry="27.6545"/>
<text text-anchor="middle" x="513.749" y="-267.727" font-family="Times,serif" font-size="9.00">10472</text>
</g>
<!-- 10472&#45;&gt;5851 -->
<g id="edge12" class="edge"><title>10472&#45;&gt;5851</title>
<path fill="none" stroke="green" stroke-width="0.279538" d="M501.999,-244.566C496.96,-234.118 491.014,-221.791 485.669,-210.709"/>
<polygon fill="green" stroke="green" stroke-width="0.279538" points="488.661,-208.856 481.165,-201.369 482.356,-211.897 488.661,-208.856"/>
</g>
<!-- 10861&#45;&gt;2831 -->
<g id="edge18" class="edge"><title>10861&#45;&gt;2831</title>
<path fill="none" stroke="red" stroke-width="0.180162" d="M572.87,-245.931C554.318,-215.775 521.801,-165.067 504.749,-151.196 473.069,-125.426 428.623,-108.996 398.366,-100.021"/>
<polygon fill="red" stroke="red" stroke-width="0.180162" points="399.264,-96.6373 388.688,-97.2597 397.344,-103.369 399.264,-96.6373"/>
</g>
<!-- 10861&#45;&gt;14355 -->
<g id="edge33" class="edge"><title>10861&#45;&gt;14355</title>
<path fill="none" stroke="green" stroke-width="0.327125" d="M586.149,-242.178C585.969,-234.156 585.768,-225.211 585.576,-216.657"/>
<polygon fill="green" stroke="green" stroke-width="0.327125" points="589.072,-216.422 585.348,-206.503 582.074,-216.579 589.072,-216.422"/>
</g>
</g>
</svg>
