<?xml version="1.0" encoding="UTF-8" standalone="no"?>
<!DOCTYPE svg PUBLIC "-//W3C//DTD SVG 1.1//EN"
 "http://www.w3.org/Graphics/SVG/1.1/DTD/svg11.dtd">
<!-- Generated by graphviz version 2.38.0 (20140413.2041)
 -->
<!-- Title: %3 Pages: 1 -->
<svg width="1140pt" height="912pt"
 viewBox="0.00 0.00 1139.86 912.47" xmlns="http://www.w3.org/2000/svg" xmlns:xlink="http://www.w3.org/1999/xlink">
<g id="graph0" class="graph" transform="scale(1 1) rotate(0) translate(4 908.472)">
<title>%3</title>
<polygon fill="white" stroke="none" points="-4,4 -4,-908.472 1135.86,-908.472 1135.86,4 -4,4"/>
<!-- &#45;1 -->
<g id="node1" class="node"><title>&#45;1</title>
<polygon fill="lightgray" stroke="black" points="317,-461.236 293,-461.236 293,-443.236 317,-443.236 317,-461.236"/>
<text text-anchor="middle" x="305" y="-450.036" font-family="Times,serif" font-size="9.00">&#45;1</text>
</g>
<!-- 9931 -->
<g id="node39" class="node"><title>9931</title>
<ellipse fill="white" stroke="black" cx="279" cy="-361.082" rx="25" ry="25"/>
<text text-anchor="middle" x="279" y="-358.882" font-family="Times,serif" font-size="9.00">9931</text>
</g>
<!-- &#45;1&#45;&gt;9931 -->
<g id="edge8" class="edge"><title>&#45;1&#45;&gt;9931</title>
<path fill="none" stroke="green" stroke-width="0.316727" d="M302.601,-443.008C299.427,-432.126 293.645,-412.3 288.599,-394.996"/>
<polygon fill="green" stroke="green" stroke-width="0.316727" points="291.898,-393.806 285.738,-385.186 285.178,-395.766 291.898,-393.806"/>
</g>
<!-- 6507 -->
<g id="node47" class="node"><title>6507</title>
<ellipse fill="white" stroke="black" cx="426" cy="-269.927" rx="25" ry="25"/>
<text text-anchor="middle" x="426" y="-267.727" font-family="Times,serif" font-size="9.00">6507</text>
</g>
<!-- &#45;1&#45;&gt;6507 -->
<g id="edge26" class="edge"><title>&#45;1&#45;&gt;6507</title>
<path fill="none" stroke="green" stroke-width="0.318016" d="M307.167,-443.198C312.813,-423.235 329.411,-370.354 356,-333.505 367.641,-317.371 384.093,-302.398 398.122,-291.146"/>
<polygon fill="green" stroke="green" stroke-width="0.318016" points="400.311,-293.877 406.048,-284.97 396.008,-288.356 400.311,-293.877"/>
</g>
<!-- &#45;2 -->
<g id="node2" class="node"><title>&#45;2</title>
<polygon fill="lightgray" stroke="black" points="330,-898.623 306,-898.623 306,-880.623 330,-880.623 330,-898.623"/>
<text text-anchor="middle" x="318" y="-887.423" font-family="Times,serif" font-size="9.00">&#45;2</text>
</g>
<!-- &#45;3 -->
<g id="node3" class="node"><title>&#45;3</title>
<polygon fill="lightgray" stroke="black" points="929,-461.236 905,-461.236 905,-443.236 929,-443.236 929,-461.236"/>
<text text-anchor="middle" x="917" y="-450.036" font-family="Times,serif" font-size="9.00">&#45;3</text>
</g>
<!-- 2197 -->
<g id="node33" class="node"><title>2197</title>
<ellipse fill="white" stroke="black" cx="905" cy="-361.082" rx="25" ry="25"/>
<text text-anchor="middle" x="905" y="-358.882" font-family="Times,serif" font-size="9.00">2197</text>
</g>
<!-- &#45;3&#45;&gt;2197 -->
<g id="edge31" class="edge"><title>&#45;3&#45;&gt;2197</title>
<path fill="none" stroke="green" stroke-width="0.675606" d="M915.893,-443.008C914.461,-432.37 911.879,-413.187 909.588,-396.166"/>
<polygon fill="green" stroke="green" stroke-width="0.675606" points="913.015,-395.388 908.212,-385.944 906.077,-396.322 913.015,-395.388"/>
</g>
<!-- &#45;4 -->
<g id="node4" class="node"><title>&#45;4</title>
<polygon fill="lightgray" stroke="black" points="372,-898.623 348,-898.623 348,-880.623 372,-880.623 372,-898.623"/>
<text text-anchor="middle" x="360" y="-887.423" font-family="Times,serif" font-size="9.00">&#45;4</text>
</g>
<!-- &#45;5 -->
<g id="node5" class="node"><title>&#45;5</title>
<polygon fill="lightgray" stroke="black" points="157,-461.236 133,-461.236 133,-443.236 157,-443.236 157,-461.236"/>
<text text-anchor="middle" x="145" y="-450.036" font-family="Times,serif" font-size="9.00">&#45;5</text>
</g>
<!-- 2 -->
<g id="node27" class="node"><title>2</title>
<ellipse fill="lightblue" stroke="black" cx="145" cy="-361.082" rx="14.7" ry="14.7"/>
<text text-anchor="middle" x="145" y="-358.882" font-family="Times,serif" font-size="9.00">2</text>
</g>
<!-- &#45;5&#45;&gt;2 -->
<g id="edge52" class="edge"><title>&#45;5&#45;&gt;2</title>
<path fill="none" stroke="red" stroke-width="0.88203" d="M145,-443.008C145,-430.252 145,-405.208 145,-386.341"/>
<polygon fill="red" stroke="red" stroke-width="0.88203" points="148.5,-386.086 145,-376.086 141.5,-386.086 148.5,-386.086"/>
</g>
<!-- &#45;6 -->
<g id="node6" class="node"><title>&#45;6</title>
<polygon fill="lightgray" stroke="black" points="414,-898.623 390,-898.623 390,-880.623 414,-880.623 414,-898.623"/>
<text text-anchor="middle" x="402" y="-887.423" font-family="Times,serif" font-size="9.00">&#45;6</text>
</g>
<!-- &#45;7 -->
<g id="node7" class="node"><title>&#45;7</title>
<polygon fill="lightgray" stroke="black" points="382,-552.39 358,-552.39 358,-534.39 382,-534.39 382,-552.39"/>
<text text-anchor="middle" x="370" y="-541.19" font-family="Times,serif" font-size="9.00">&#45;7</text>
</g>
<!-- 2831 -->
<g id="node31" class="node"><title>2831</title>
<ellipse fill="white" stroke="black" cx="307" cy="-90.4472" rx="25" ry="25"/>
<text text-anchor="middle" x="307" y="-88.2472" font-family="Times,serif" font-size="9.00">2831</text>
</g>
<!-- &#45;7&#45;&gt;2831 -->
<g id="edge12" class="edge"><title>&#45;7&#45;&gt;2831</title>
<path fill="none" stroke="green" stroke-width="0.82602" d="M357.666,-539.455C332.555,-532.896 275.001,-514.802 241,-479.813 201.01,-438.66 188,-419.465 188,-362.082 188,-362.082 188,-362.082 188,-268.927 188,-203.33 244.774,-143.677 279.892,-113.052"/>
<polygon fill="green" stroke="green" stroke-width="0.82602" points="282.53,-115.403 287.881,-106.258 277.995,-110.071 282.53,-115.403"/>
</g>
<!-- 4505 -->
<g id="node34" class="node"><title>4505</title>
<ellipse fill="white" stroke="black" cx="426" cy="-178.773" rx="25" ry="25"/>
<text text-anchor="middle" x="426" y="-176.573" font-family="Times,serif" font-size="9.00">4505</text>
</g>
<!-- &#45;7&#45;&gt;4505 -->
<g id="edge25" class="edge"><title>&#45;7&#45;&gt;4505</title>
<path fill="none" stroke="red" stroke-width="0.40897" d="M357.848,-536.314C339.578,-526.634 304.948,-506.091 284,-479.813 242.051,-427.191 216.742,-394.581 245,-333.505 275.967,-266.574 352.027,-218.121 395.046,-195.001"/>
<polygon fill="red" stroke="red" stroke-width="0.40897" points="396.726,-198.072 403.951,-190.323 393.47,-191.875 396.726,-198.072"/>
</g>
<!-- 13519 -->
<g id="node40" class="node"><title>13519</title>
<ellipse fill="white" stroke="black" cx="592" cy="-452.236" rx="27.6545" ry="27.6545"/>
<text text-anchor="middle" x="592" y="-450.036" font-family="Times,serif" font-size="9.00">13519</text>
</g>
<!-- &#45;7&#45;&gt;13519 -->
<g id="edge38" class="edge"><title>&#45;7&#45;&gt;13519</title>
<path fill="none" stroke="green" stroke-width="0.367572" stroke-dasharray="1,5" d="M382.216,-538.175C409.879,-528.547 479.308,-503.903 536,-479.813 543.382,-476.677 551.212,-473.113 558.604,-469.638"/>
<polygon fill="green" stroke="green" stroke-width="0.367572" points="560.143,-472.782 567.666,-465.322 557.132,-466.463 560.143,-472.782"/>
</g>
<!-- 5851 -->
<g id="node43" class="node"><title>5851</title>
<ellipse fill="white" stroke="black" cx="838" cy="-361.082" rx="25" ry="25"/>
<text text-anchor="middle" x="838" y="-358.882" font-family="Times,serif" font-size="9.00">5851</text>
</g>
<!-- &#45;7&#45;&gt;5851 -->
<g id="edge27" class="edge"><title>&#45;7&#45;&gt;5851</title>
<path fill="none" stroke="green" stroke-width="0.126016" d="M382.173,-541.291C434.76,-536.356 642.201,-514.952 696,-479.813 720.923,-463.535 711.95,-444.657 734,-424.659 758.461,-402.473 770.881,-405.976 799,-388.659 802.434,-386.544 805.989,-384.26 809.492,-381.95"/>
<polygon fill="green" stroke="green" stroke-width="0.126016" points="811.645,-384.72 817.992,-376.236 807.74,-378.91 811.645,-384.72"/>
</g>
<!-- &#45;7&#45;&gt;6507 -->
<g id="edge2" class="edge"><title>&#45;7&#45;&gt;6507</title>
<path fill="none" stroke="red" stroke-width="0.530016" d="M369.476,-534.167C367.921,-505.604 364.83,-408.355 389,-333.505 392.9,-321.429 399.444,-309.185 405.953,-298.769"/>
<polygon fill="red" stroke="red" stroke-width="0.530016" points="409.055,-300.421 411.598,-290.136 403.196,-296.59 409.055,-300.421"/>
</g>
<!-- &#45;8 -->
<g id="node8" class="node"><title>&#45;8</title>
<polygon fill="lightgray" stroke="black" points="687,-461.236 663,-461.236 663,-443.236 687,-443.236 687,-461.236"/>
<text text-anchor="middle" x="675" y="-450.036" font-family="Times,serif" font-size="9.00">&#45;8</text>
</g>
<!-- 1 -->
<g id="node26" class="node"><title>1</title>
<ellipse fill="lightblue" stroke="black" cx="785" cy="-14.8492" rx="14.7" ry="14.7"/>
<text text-anchor="middle" x="785" y="-12.6492" font-family="Times,serif" font-size="9.00">1</text>
</g>
<!-- &#45;8&#45;&gt;1 -->
<g id="edge13" class="edge"><title>&#45;8&#45;&gt;1</title>
<path fill="none" stroke="red" stroke-width="1.32781" d="M678.78,-442.951C681.725,-437.227 686.272,-429.757 692,-424.659 719.321,-400.344 744.187,-418.017 766,-388.659 797.611,-346.115 785,-323.93 785,-270.927 785,-270.927 785,-270.927 785,-177.773 785,-128.737 785,-71.3472 785,-39.7545"/>
<polygon fill="red" stroke="red" stroke-width="1.32781" points="788.5,-39.7116 785,-29.7116 781.5,-39.7117 788.5,-39.7116"/>
</g>
<!-- &#45;8&#45;&gt;2197 -->
<g id="edge40" class="edge"><title>&#45;8&#45;&gt;2197</title>
<path fill="none" stroke="green" stroke-width="0.471319" d="M687.409,-444.908C699.179,-439.084 717.473,-430.49 734,-424.659 793.774,-403.568 815.39,-417.173 872,-388.659 874.299,-387.501 876.587,-386.162 878.823,-384.715"/>
<polygon fill="green" stroke="green" stroke-width="0.471319" points="881.043,-387.429 887.106,-378.741 876.948,-381.752 881.043,-387.429"/>
</g>
<!-- &#45;8&#45;&gt;4505 -->
<g id="edge35" class="edge"><title>&#45;8&#45;&gt;4505</title>
<path fill="none" stroke="green" stroke-width="0.173238" stroke-dasharray="1,5" d="M677.529,-443.136C683.301,-423.031 695.432,-369.852 675,-333.505 621.72,-238.724 557.744,-264.704 466,-206.35 462.359,-204.035 458.556,-201.569 454.805,-199.109"/>
<polygon fill="green" stroke="green" stroke-width="0.173238" points="456.519,-196.046 446.246,-193.451 452.658,-201.886 456.519,-196.046"/>
</g>
<!-- &#45;8&#45;&gt;5851 -->
<g id="edge33" class="edge"><title>&#45;8&#45;&gt;5851</title>
<path fill="none" stroke="red" stroke-width="0.621177" stroke-dasharray="1,5" d="M681.504,-442.834C686.348,-437.056 693.413,-429.567 701,-424.659 739.96,-399.455 757.738,-409.885 799,-388.659 802.586,-386.814 806.235,-384.696 809.79,-382.479"/>
<polygon fill="red" stroke="red" stroke-width="0.621177" points="811.907,-385.275 818.343,-376.859 808.064,-379.425 811.907,-385.275"/>
</g>
<!-- &#45;8&#45;&gt;6507 -->
<g id="edge43" class="edge"><title>&#45;8&#45;&gt;6507</title>
<path fill="none" stroke="green" stroke-width="0.287551" stroke-dasharray="1,5" d="M675.721,-443.098C677.117,-421.961 677.784,-364.794 648,-333.505 598.615,-281.623 509.858,-271.692 460.861,-270.417"/>
<polygon fill="green" stroke="green" stroke-width="0.287551" points="460.801,-266.916 450.748,-270.263 460.694,-273.915 460.801,-266.916"/>
</g>
<!-- &#45;9 -->
<g id="node9" class="node"><title>&#45;9</title>
<polygon fill="lightgray" stroke="black" points="757,-370.082 733,-370.082 733,-352.082 757,-352.082 757,-370.082"/>
<text text-anchor="middle" x="745" y="-358.882" font-family="Times,serif" font-size="9.00">&#45;9</text>
</g>
<!-- 6074 -->
<g id="node37" class="node"><title>6074</title>
<ellipse fill="white" stroke="black" cx="694" cy="-269.927" rx="25" ry="25"/>
<text text-anchor="middle" x="694" y="-267.727" font-family="Times,serif" font-size="9.00">6074</text>
</g>
<!-- &#45;9&#45;&gt;6074 -->
<g id="edge37" class="edge"><title>&#45;9&#45;&gt;6074</title>
<path fill="none" stroke="red" stroke-width="0.963422" d="M740.293,-351.854C733.7,-340.328 721.367,-318.768 711.088,-300.799"/>
<polygon fill="red" stroke="red" stroke-width="0.963422" points="713.945,-298.744 705.941,-291.802 707.869,-302.22 713.945,-298.744"/>
</g>
<!-- &#45;10 -->
<g id="node10" class="node"><title>&#45;10</title>
<polygon fill="lightgray" stroke="black" points="461.5,-898.623 432.5,-898.623 432.5,-880.623 461.5,-880.623 461.5,-898.623"/>
<text text-anchor="middle" x="447" y="-887.423" font-family="Times,serif" font-size="9.00">&#45;10</text>
</g>
<!-- &#45;11 -->
<g id="node11" class="node"><title>&#45;11</title>
<polygon fill="lightgray" stroke="black" points="508.5,-898.623 479.5,-898.623 479.5,-880.623 508.5,-880.623 508.5,-898.623"/>
<text text-anchor="middle" x="494" y="-887.423" font-family="Times,serif" font-size="9.00">&#45;11</text>
</g>
<!-- &#45;12 -->
<g id="node12" class="node"><title>&#45;12</title>
<polygon fill="lightgray" stroke="black" points="555.5,-898.623 526.5,-898.623 526.5,-880.623 555.5,-880.623 555.5,-898.623"/>
<text text-anchor="middle" x="541" y="-887.423" font-family="Times,serif" font-size="9.00">&#45;12</text>
</g>
<!-- &#45;13 -->
<g id="node13" class="node"><title>&#45;13</title>
<polygon fill="lightgray" stroke="black" points="602.5,-898.623 573.5,-898.623 573.5,-880.623 602.5,-880.623 602.5,-898.623"/>
<text text-anchor="middle" x="588" y="-887.423" font-family="Times,serif" font-size="9.00">&#45;13</text>
</g>
<!-- &#45;14 -->
<g id="node14" class="node"><title>&#45;14</title>
<polygon fill="lightgray" stroke="black" points="287.5,-898.623 258.5,-898.623 258.5,-880.623 287.5,-880.623 287.5,-898.623"/>
<text text-anchor="middle" x="273" y="-887.423" font-family="Times,serif" font-size="9.00">&#45;14</text>
</g>
<!-- &#45;14&#45;&gt;2831 -->
<g id="edge45" class="edge"><title>&#45;14&#45;&gt;2831</title>
<path fill="none" stroke="red" stroke-width="0.135215" stroke-dasharray="1,5" d="M258.322,-886.872C201.617,-879.215 0,-843.391 0,-721.042 0,-721.042 0,-721.042 0,-268.927 0,-213.067 1.94027,-187.956 44,-151.196 77.8274,-121.631 208.722,-102.817 272.152,-95.2486"/>
<polygon fill="red" stroke="red" stroke-width="0.135215" points="272.923,-98.6824 282.451,-94.0481 272.113,-91.7295 272.923,-98.6824"/>
</g>
<!-- 13885 -->
<g id="node38" class="node"><title>13885</title>
<ellipse fill="white" stroke="black" cx="660" cy="-811.197" rx="27.6545" ry="27.6545"/>
<text text-anchor="middle" x="660" y="-808.997" font-family="Times,serif" font-size="9.00">13885</text>
</g>
<!-- &#45;14&#45;&gt;13885 -->
<g id="edge48" class="edge"><title>&#45;14&#45;&gt;13885</title>
<path fill="none" stroke="green" stroke-width="0.306975" d="M285.299,-880.418C288.939,-878.3 293.019,-876.214 297,-874.774 356.712,-853.177 542.216,-827.431 622.423,-816.969"/>
<polygon fill="green" stroke="green" stroke-width="0.306975" points="623.101,-820.41 632.568,-815.654 622.201,-813.468 623.101,-820.41"/>
</g>
<!-- 12003 -->
<g id="node44" class="node"><title>12003</title>
<ellipse fill="white" stroke="black" cx="813" cy="-720.042" rx="27.6545" ry="27.6545"/>
<text text-anchor="middle" x="813" y="-717.842" font-family="Times,serif" font-size="9.00">12003</text>
</g>
<!-- &#45;14&#45;&gt;12003 -->
<g id="edge19" class="edge"><title>&#45;14&#45;&gt;12003</title>
<path fill="none" stroke="green" stroke-width="0.310147" stroke-dasharray="1,5" d="M285.899,-880.39C289.41,-878.369 293.275,-876.34 297,-874.774 435.686,-816.463 477.301,-821.113 623,-783.619 690.653,-766.21 712.415,-776.55 776,-747.619 778.479,-746.491 780.961,-745.186 783.399,-743.771"/>
<polygon fill="green" stroke="green" stroke-width="0.310147" points="785.426,-746.63 791.961,-738.291 781.652,-740.734 785.426,-746.63"/>
</g>
<!-- 10861 -->
<g id="node48" class="node"><title>10861</title>
<ellipse fill="white" stroke="black" cx="94" cy="-269.927" rx="27.6545" ry="27.6545"/>
<text text-anchor="middle" x="94" y="-267.727" font-family="Times,serif" font-size="9.00">10861</text>
</g>
<!-- &#45;14&#45;&gt;10861 -->
<g id="edge1" class="edge"><title>&#45;14&#45;&gt;10861</title>
<path fill="none" stroke="red" stroke-width="0.201347" d="M258.381,-883.015C216.321,-865.823 98,-809.59 98,-721.042 98,-721.042 98,-721.042 98,-451.236 98,-401.507 96.4604,-344.082 95.2916,-307.65"/>
<polygon fill="red" stroke="red" stroke-width="0.201347" points="98.7848,-307.382 94.9581,-297.503 91.7885,-307.612 98.7848,-307.382"/>
</g>
<!-- &#45;15 -->
<g id="node15" class="node"><title>&#45;15</title>
<polygon fill="lightgray" stroke="black" points="649.5,-898.623 620.5,-898.623 620.5,-880.623 649.5,-880.623 649.5,-898.623"/>
<text text-anchor="middle" x="635" y="-887.423" font-family="Times,serif" font-size="9.00">&#45;15</text>
</g>
<!-- &#45;16 -->
<g id="node16" class="node"><title>&#45;16</title>
<polygon fill="lightgray" stroke="black" points="772.5,-461.236 743.5,-461.236 743.5,-443.236 772.5,-443.236 772.5,-461.236"/>
<text text-anchor="middle" x="758" y="-450.036" font-family="Times,serif" font-size="9.00">&#45;16</text>
</g>
<!-- &#45;16&#45;&gt;5851 -->
<g id="edge10" class="edge"><title>&#45;16&#45;&gt;5851</title>
<path fill="none" stroke="green" stroke-width="0.713039" stroke-dasharray="1,5" d="M765.383,-443.008C776.552,-430.561 798.219,-406.414 814.991,-387.723"/>
<polygon fill="green" stroke="green" stroke-width="0.713039" points="817.761,-389.877 821.835,-380.097 812.551,-385.202 817.761,-389.877"/>
</g>
<!-- &#45;17 -->
<g id="node17" class="node"><title>&#45;17</title>
<polygon fill="lightgray" stroke="black" points="762.5,-640.716 733.5,-640.716 733.5,-622.716 762.5,-622.716 762.5,-640.716"/>
<text text-anchor="middle" x="748" y="-629.516" font-family="Times,serif" font-size="9.00">&#45;17</text>
</g>
<!-- 12626 -->
<g id="node42" class="node"><title>12626</title>
<ellipse fill="white" stroke="black" cx="748" cy="-543.39" rx="27.6545" ry="27.6545"/>
<text text-anchor="middle" x="748" y="-541.19" font-family="Times,serif" font-size="9.00">12626</text>
</g>
<!-- &#45;17&#45;&gt;12626 -->
<g id="edge3" class="edge"><title>&#45;17&#45;&gt;12626</title>
<path fill="none" stroke="red" stroke-width="0.530983" d="M748,-622.439C748,-612.907 748,-596.595 748,-581.341"/>
<polygon fill="red" stroke="red" stroke-width="0.530983" points="751.5,-581.045 748,-571.045 744.5,-581.045 751.5,-581.045"/>
</g>
<!-- &#45;18 -->
<g id="node18" class="node"><title>&#45;18</title>
<polygon fill="lightgray" stroke="black" points="696.5,-898.623 667.5,-898.623 667.5,-880.623 696.5,-880.623 696.5,-898.623"/>
<text text-anchor="middle" x="682" y="-887.423" font-family="Times,serif" font-size="9.00">&#45;18</text>
</g>
<!-- &#45;19 -->
<g id="node19" class="node"><title>&#45;19</title>
<polygon fill="lightgray" stroke="black" points="743.5,-898.623 714.5,-898.623 714.5,-880.623 743.5,-880.623 743.5,-898.623"/>
<text text-anchor="middle" x="729" y="-887.423" font-family="Times,serif" font-size="9.00">&#45;19</text>
</g>
<!-- &#45;20 -->
<g id="node20" class="node"><title>&#45;20</title>
<polygon fill="lightgray" stroke="black" points="767.5,-729.042 738.5,-729.042 738.5,-711.042 767.5,-711.042 767.5,-729.042"/>
<text text-anchor="middle" x="753" y="-717.842" font-family="Times,serif" font-size="9.00">&#45;20</text>
</g>
<!-- 9704 -->
<g id="node45" class="node"><title>9704</title>
<ellipse fill="white" stroke="black" cx="813" cy="-631.716" rx="25" ry="25"/>
<text text-anchor="middle" x="813" y="-629.516" font-family="Times,serif" font-size="9.00">9704</text>
</g>
<!-- &#45;20&#45;&gt;9704 -->
<g id="edge54" class="edge"><title>&#45;20&#45;&gt;9704</title>
<path fill="none" stroke="green" stroke-width="0.204644" d="M758.753,-710.765C766.646,-699.409 781.227,-678.431 793.285,-661.081"/>
<polygon fill="green" stroke="green" stroke-width="0.204644" points="796.479,-662.619 799.312,-652.41 790.731,-658.624 796.479,-662.619"/>
</g>
<!-- &#45;21 -->
<g id="node21" class="node"><title>&#45;21</title>
<polygon fill="lightgray" stroke="black" points="790.5,-898.623 761.5,-898.623 761.5,-880.623 790.5,-880.623 790.5,-898.623"/>
<text text-anchor="middle" x="776" y="-887.423" font-family="Times,serif" font-size="9.00">&#45;21</text>
</g>
<!-- &#45;22 -->
<g id="node22" class="node"><title>&#45;22</title>
<polygon fill="lightgray" stroke="black" points="837.5,-898.623 808.5,-898.623 808.5,-880.623 837.5,-880.623 837.5,-898.623"/>
<text text-anchor="middle" x="823" y="-887.423" font-family="Times,serif" font-size="9.00">&#45;22</text>
</g>
<!-- &#45;23 -->
<g id="node23" class="node"><title>&#45;23</title>
<polygon fill="lightgray" stroke="black" points="884.5,-898.623 855.5,-898.623 855.5,-880.623 884.5,-880.623 884.5,-898.623"/>
<text text-anchor="middle" x="870" y="-887.423" font-family="Times,serif" font-size="9.00">&#45;23</text>
</g>
<!-- &#45;24 -->
<g id="node24" class="node"><title>&#45;24</title>
<polygon fill="lightgray" stroke="black" points="931.5,-898.623 902.5,-898.623 902.5,-880.623 931.5,-880.623 931.5,-898.623"/>
<text text-anchor="middle" x="917" y="-887.423" font-family="Times,serif" font-size="9.00">&#45;24</text>
</g>
<!-- 0 -->
<g id="node25" class="node"><title>0</title>
<ellipse fill="lightblue" stroke="black" cx="964" cy="-889.623" rx="14.7" ry="14.7"/>
<text text-anchor="middle" x="964" y="-887.423" font-family="Times,serif" font-size="9.00">0</text>
</g>
<!-- 2&#45;&gt;2831 -->
<g id="edge51" class="edge"><title>2&#45;&gt;2831</title>
<path fill="none" stroke="green" stroke-width="0.410306" d="M142.709,-346.196C137.55,-310.028 128.761,-211.545 174,-151.196 197.667,-119.624 241.824,-104.348 272.743,-97.2282"/>
<polygon fill="green" stroke="green" stroke-width="0.410306" points="273.62,-100.62 282.672,-95.1147 272.162,-93.7734 273.62,-100.62"/>
</g>
<!-- 2&#45;&gt;6507 -->
<g id="edge6" class="edge"><title>2&#45;&gt;6507</title>
<path fill="none" stroke="red" stroke-width="0.259141" d="M158.935,-355.661C201.63,-342.114 331.455,-300.924 392.984,-281.403"/>
<polygon fill="red" stroke="red" stroke-width="0.259141" points="394.124,-284.713 402.598,-278.352 392.007,-278.041 394.124,-284.713"/>
</g>
<!-- 3 -->
<g id="node28" class="node"><title>3</title>
<ellipse fill="lightblue" stroke="black" cx="1012" cy="-889.623" rx="14.7" ry="14.7"/>
<text text-anchor="middle" x="1012" y="-887.423" font-family="Times,serif" font-size="9.00">3</text>
</g>
<!-- 14216 -->
<g id="node29" class="node"><title>14216</title>
<ellipse fill="white" stroke="black" cx="611" cy="-361.082" rx="27.6545" ry="27.6545"/>
<text text-anchor="middle" x="611" y="-358.882" font-family="Times,serif" font-size="9.00">14216</text>
</g>
<!-- 14216&#45;&gt;6074 -->
<g id="edge53" class="edge"><title>14216&#45;&gt;6074</title>
<path fill="none" stroke="red" stroke-width="1.47778" d="M629.42,-340.296C641.59,-327.224 657.642,-309.982 670.698,-295.958"/>
<polygon fill="red" stroke="red" stroke-width="1.47778" points="673.347,-298.249 677.599,-288.545 668.223,-293.479 673.347,-298.249"/>
</g>
<!-- 14216&#45;&gt;6507 -->
<g id="edge22" class="edge"><title>14216&#45;&gt;6507</title>
<path fill="none" stroke="green" stroke-width="0.55659" d="M588.267,-344.816C582.123,-340.936 575.401,-336.905 569,-333.505 532.018,-313.858 487.577,-295.128 458.158,-283.367"/>
<polygon fill="green" stroke="green" stroke-width="0.55659" points="459.376,-280.085 448.789,-279.655 456.797,-286.593 459.376,-280.085"/>
</g>
<!-- 13193 -->
<g id="node30" class="node"><title>13193</title>
<ellipse fill="white" stroke="black" cx="499" cy="-452.236" rx="27.6545" ry="27.6545"/>
<text text-anchor="middle" x="499" y="-450.036" font-family="Times,serif" font-size="9.00">13193</text>
</g>
<!-- 10705 -->
<g id="node41" class="node"><title>10705</title>
<ellipse fill="white" stroke="black" cx="499" cy="-361.082" rx="27.6545" ry="27.6545"/>
<text text-anchor="middle" x="499" y="-358.882" font-family="Times,serif" font-size="9.00">10705</text>
</g>
<!-- 13193&#45;&gt;10705 -->
<g id="edge50" class="edge"><title>13193&#45;&gt;10705</title>
<path fill="none" stroke="green" stroke-width="1.00778" d="M499,-424.487C499,-416.465 499,-407.52 499,-398.965"/>
<polygon fill="green" stroke="green" stroke-width="1.00778" points="502.5,-398.812 499,-388.812 495.5,-398.812 502.5,-398.812"/>
</g>
<!-- 2831&#45;&gt;1 -->
<g id="edge7" class="edge"><title>2831&#45;&gt;1</title>
<path fill="none" stroke="red" stroke-width="0.599305" d="M331.361,-85.6963C413.294,-73.081 678.35,-32.2702 760.496,-19.6222"/>
<polygon fill="red" stroke="red" stroke-width="0.599305" points="761.07,-23.0751 770.421,-18.094 760.005,-16.1566 761.07,-23.0751"/>
</g>
<!-- 14355 -->
<g id="node32" class="node"><title>14355</title>
<ellipse fill="white" stroke="black" cx="94" cy="-178.773" rx="27.6545" ry="27.6545"/>
<text text-anchor="middle" x="94" y="-176.573" font-family="Times,serif" font-size="9.00">14355</text>
</g>
<!-- 14355&#45;&gt;2831 -->
<g id="edge44" class="edge"><title>14355&#45;&gt;2831</title>
<path fill="none" stroke="green" stroke-width="0.525938" d="M116.564,-162.174C122.708,-158.295 129.474,-154.35 136,-151.196 182.001,-128.966 238.485,-110.888 273.619,-100.645"/>
<polygon fill="green" stroke="green" stroke-width="0.525938" points="274.724,-103.969 283.369,-97.8439 272.792,-97.2409 274.724,-103.969"/>
</g>
<!-- 2197&#45;&gt;1 -->
<g id="edge21" class="edge"><title>2197&#45;&gt;1</title>
<path fill="none" stroke="green" stroke-width="0.760997" d="M897.126,-337.496C875.439,-275.282 814.989,-101.877 793.07,-38.9982"/>
<polygon fill="green" stroke="green" stroke-width="0.760997" points="796.264,-37.5285 789.667,-29.2379 789.654,-39.8327 796.264,-37.5285"/>
</g>
<!-- 4505&#45;&gt;2831 -->
<g id="edge34" class="edge"><title>4505&#45;&gt;2831</title>
<path fill="none" stroke="red" stroke-width="1.49906" d="M406.35,-163.518C386.885,-149.398 356.889,-127.638 334.948,-111.722"/>
<polygon fill="red" stroke="red" stroke-width="1.49906" points="336.829,-108.762 326.68,-105.723 332.719,-114.428 336.829,-108.762"/>
</g>
<!-- 7718 -->
<g id="node35" class="node"><title>7718</title>
<ellipse fill="white" stroke="black" cx="427" cy="-452.236" rx="25" ry="25"/>
<text text-anchor="middle" x="427" y="-450.036" font-family="Times,serif" font-size="9.00">7718</text>
</g>
<!-- 12339 -->
<g id="node36" class="node"><title>12339</title>
<ellipse fill="white" stroke="black" cx="426" cy="-361.082" rx="27.6545" ry="27.6545"/>
<text text-anchor="middle" x="426" y="-358.882" font-family="Times,serif" font-size="9.00">12339</text>
</g>
<!-- 7718&#45;&gt;12339 -->
<g id="edge16" class="edge"><title>7718&#45;&gt;12339</title>
<path fill="none" stroke="red" stroke-width="0.97004" d="M426.732,-427.344C426.634,-418.632 426.521,-408.566 426.414,-398.987"/>
<polygon fill="red" stroke="red" stroke-width="0.97004" points="429.913,-398.831 426.3,-388.871 422.913,-398.909 429.913,-398.831"/>
</g>
<!-- 7718&#45;&gt;10705 -->
<g id="edge47" class="edge"><title>7718&#45;&gt;10705</title>
<path fill="none" stroke="red" stroke-width="0.16643" d="M442.269,-432.329C451.909,-420.392 464.558,-404.73 475.465,-391.224"/>
<polygon fill="red" stroke="red" stroke-width="0.16643" points="478.428,-393.125 481.988,-383.147 472.982,-388.727 478.428,-393.125"/>
</g>
<!-- 12339&#45;&gt;6507 -->
<g id="edge41" class="edge"><title>12339&#45;&gt;6507</title>
<path fill="none" stroke="green" stroke-width="0.965195" d="M426,-333.333C426,-324.463 426,-314.467 426,-305.116"/>
<polygon fill="green" stroke="green" stroke-width="0.965195" points="429.5,-304.927 426,-294.927 422.5,-304.927 429.5,-304.927"/>
</g>
<!-- 6074&#45;&gt;2831 -->
<g id="edge30" class="edge"><title>6074&#45;&gt;2831</title>
<path fill="none" stroke="green" stroke-width="0.457484" d="M674.154,-254.499C668.13,-250.368 661.408,-246 655,-242.35 544.694,-179.526 403.189,-125.751 340.016,-103.02"/>
<polygon fill="green" stroke="green" stroke-width="0.457484" points="340.807,-99.5858 330.212,-99.5158 338.451,-106.177 340.807,-99.5858"/>
</g>
<!-- 6074&#45;&gt;4505 -->
<g id="edge29" class="edge"><title>6074&#45;&gt;4505</title>
<path fill="none" stroke="green" stroke-width="0.403637" d="M674.917,-254.07C668.806,-249.831 661.844,-245.51 655,-242.35 589.387,-212.063 506.224,-193.908 460.333,-185.475"/>
<polygon fill="green" stroke="green" stroke-width="0.403637" points="460.774,-181.998 450.314,-183.68 459.54,-188.888 460.774,-181.998"/>
</g>
<!-- 13885&#45;&gt;12003 -->
<g id="edge28" class="edge"><title>13885&#45;&gt;12003</title>
<path fill="none" stroke="green" stroke-width="0.35786" d="M684.506,-798.133C708.343,-786.132 745.345,-766.787 776,-747.619 778.23,-746.225 780.504,-744.745 782.775,-743.224"/>
<polygon fill="green" stroke="green" stroke-width="0.35786" points="785.171,-745.823 791.406,-737.257 781.19,-740.065 785.171,-745.823"/>
</g>
<!-- 9931&#45;&gt;6507 -->
<g id="edge20" class="edge"><title>9931&#45;&gt;6507</title>
<path fill="none" stroke="red" stroke-width="0.294537" d="M299.056,-346.004C305.086,-341.883 311.759,-337.432 318,-333.505 343.838,-317.246 373.944,-299.931 395.796,-287.647"/>
<polygon fill="red" stroke="red" stroke-width="0.294537" points="397.603,-290.646 404.619,-282.708 394.184,-284.538 397.603,-290.646"/>
</g>
<!-- 13519&#45;&gt;14216 -->
<g id="edge36" class="edge"><title>13519&#45;&gt;14216</title>
<path fill="none" stroke="green" stroke-width="0.697134" d="M597.598,-424.969C599.395,-416.535 601.418,-407.042 603.337,-398.038"/>
<polygon fill="green" stroke="green" stroke-width="0.697134" points="606.781,-398.671 605.442,-388.161 599.935,-397.212 606.781,-398.671"/>
</g>
<!-- 13519&#45;&gt;6507 -->
<g id="edge9" class="edge"><title>13519&#45;&gt;6507</title>
<path fill="none" stroke="green" stroke-width="0.66239" stroke-dasharray="1,5" d="M584.682,-425.177C576.365,-399.389 560.653,-360.032 536,-333.505 514.573,-310.448 482.679,-293.599 458.743,-283.232"/>
<polygon fill="green" stroke="green" stroke-width="0.66239" points="459.928,-279.934 449.351,-279.316 457.234,-286.395 459.928,-279.934"/>
</g>
<!-- 10705&#45;&gt;6507 -->
<g id="edge5" class="edge"><title>10705&#45;&gt;6507</title>
<path fill="none" stroke="green" stroke-width="0.40531" d="M481.7,-338.953C471.505,-326.502 458.515,-310.638 447.645,-297.363"/>
<polygon fill="green" stroke="green" stroke-width="0.40531" points="450.238,-295.005 441.195,-289.485 444.822,-299.439 450.238,-295.005"/>
</g>
<!-- 12626&#45;&gt;13519 -->
<g id="edge4" class="edge"><title>12626&#45;&gt;13519</title>
<path fill="none" stroke="green" stroke-width="1.1969" d="M724.307,-528.85C697.658,-513.62 654.218,-488.794 624.432,-471.771"/>
<polygon fill="green" stroke="green" stroke-width="1.1969" points="626.079,-468.681 615.66,-466.758 622.605,-474.758 626.079,-468.681"/>
</g>
<!-- 12626&#45;&gt;5851 -->
<g id="edge24" class="edge"><title>12626&#45;&gt;5851</title>
<path fill="none" stroke="red" stroke-width="0.340434" d="M760.729,-518.718C766.939,-507.053 774.461,-492.747 781,-479.813 795.768,-450.601 811.977,-416.961 823.321,-393.14"/>
<polygon fill="red" stroke="red" stroke-width="0.340434" points="826.586,-394.425 827.717,-383.891 820.263,-391.42 826.586,-394.425"/>
</g>
<!-- 5851&#45;&gt;2831 -->
<g id="edge32" class="edge"><title>5851&#45;&gt;2831</title>
<path fill="none" stroke="red" stroke-width="0.239963" stroke-dasharray="1,5" d="M823.43,-340.474C803.913,-315.245 767.173,-271.237 728,-242.35 603.561,-150.586 417.979,-110.275 341.671,-96.8936"/>
<polygon fill="red" stroke="red" stroke-width="0.239963" points="342.093,-93.4151 331.646,-95.1816 340.915,-100.315 342.093,-93.4151"/>
</g>
<!-- 5851&#45;&gt;6074 -->
<g id="edge18" class="edge"><title>5851&#45;&gt;6074</title>
<path fill="none" stroke="red" stroke-width="0.563725" stroke-dasharray="1,5" d="M816.854,-347.985C795.485,-335.644 761.626,-315.765 733,-297.505 729.6,-295.336 726.066,-293.019 722.575,-290.69"/>
<polygon fill="red" stroke="red" stroke-width="0.563725" points="724.332,-287.654 714.086,-284.957 720.414,-293.455 724.332,-287.654"/>
</g>
<!-- 12003&#45;&gt;2831 -->
<g id="edge42" class="edge"><title>12003&#45;&gt;2831</title>
<path fill="none" stroke="green" stroke-width="0.393357" stroke-dasharray="1,5" d="M836.619,-705.337C877.707,-679.52 958,-619.465 958,-544.39 958,-544.39 958,-544.39 958,-360.082 958,-245.776 1518.33,-483.252 625,-151.196 526.152,-114.454 401.273,-99.4689 341.696,-94.0895"/>
<polygon fill="green" stroke="green" stroke-width="0.393357" points="341.956,-90.599 331.691,-93.2218 341.351,-97.5728 341.956,-90.599"/>
</g>
<!-- 12003&#45;&gt;9704 -->
<g id="edge17" class="edge"><title>12003&#45;&gt;9704</title>
<path fill="none" stroke="green" stroke-width="0.305275" d="M813,-692.201C813,-684.108 813,-675.117 813,-666.627"/>
<polygon fill="green" stroke="green" stroke-width="0.305275" points="816.5,-666.614 813,-656.614 809.5,-666.614 816.5,-666.614"/>
</g>
<!-- 9704&#45;&gt;12626 -->
<g id="edge11" class="edge"><title>9704&#45;&gt;12626</title>
<path fill="none" stroke="green" stroke-width="0.257164" d="M798.574,-611.558C790.309,-600.58 779.756,-586.565 770.43,-574.18"/>
<polygon fill="green" stroke="green" stroke-width="0.257164" points="773.025,-571.807 764.214,-565.924 767.433,-576.018 773.025,-571.807"/>
</g>
<!-- 9704&#45;&gt;5851 -->
<g id="edge15" class="edge"><title>9704&#45;&gt;5851</title>
<path fill="none" stroke="green" stroke-width="1.0333" stroke-dasharray="1,5" d="M830.388,-613.935C840.59,-602.834 852.522,-587.347 858,-570.968 878.069,-510.962 861.701,-436.231 849.1,-394.375"/>
<polygon fill="green" stroke="green" stroke-width="1.0333" points="852.406,-393.219 846.082,-384.718 845.724,-395.307 852.406,-393.219"/>
</g>
<!-- 10472 -->
<g id="node46" class="node"><title>10472</title>
<ellipse fill="white" stroke="black" cx="821" cy="-543.39" rx="27.6545" ry="27.6545"/>
<text text-anchor="middle" x="821" y="-541.19" font-family="Times,serif" font-size="9.00">10472</text>
</g>
<!-- 9704&#45;&gt;10472 -->
<g id="edge49" class="edge"><title>9704&#45;&gt;10472</title>
<path fill="none" stroke="green" stroke-width="0.351685" stroke-dasharray="1,5" d="M815.228,-606.67C815.958,-598.796 816.786,-589.858 817.583,-581.261"/>
<polygon fill="green" stroke="green" stroke-width="0.351685" points="821.093,-581.318 818.531,-571.038 814.123,-580.672 821.093,-581.318"/>
</g>
<!-- 10472&#45;&gt;5851 -->
<g id="edge14" class="edge"><title>10472&#45;&gt;5851</title>
<path fill="none" stroke="green" stroke-width="0.279538" d="M823.508,-515.785C826.505,-484.003 831.523,-430.782 834.797,-396.055"/>
<polygon fill="green" stroke="green" stroke-width="0.279538" points="838.299,-396.199 835.753,-385.915 831.33,-395.542 838.299,-396.199"/>
</g>
<!-- 6507&#45;&gt;4505 -->
<g id="edge39" class="edge"><title>6507&#45;&gt;4505</title>
<path fill="none" stroke="green" stroke-width="0.144186" stroke-dasharray="1,5" d="M426,-245.036C426,-235.442 426,-224.206 426,-213.787"/>
<polygon fill="green" stroke="green" stroke-width="0.144186" points="429.5,-213.731 426,-203.731 422.5,-213.731 429.5,-213.731"/>
</g>
<!-- 10861&#45;&gt;2831 -->
<g id="edge23" class="edge"><title>10861&#45;&gt;2831</title>
<path fill="none" stroke="red" stroke-width="0.180162" d="M76.9651,-248.121C58.4369,-222.824 34.3035,-179.956 57,-151.196 83.3946,-117.75 209.509,-100.956 271.893,-94.5813"/>
<polygon fill="red" stroke="red" stroke-width="0.180162" points="272.441,-98.0443 282.049,-93.5784 271.753,-91.0782 272.441,-98.0443"/>
</g>
<!-- 10861&#45;&gt;14355 -->
<g id="edge46" class="edge"><title>10861&#45;&gt;14355</title>
<path fill="none" stroke="green" stroke-width="0.327125" d="M94,-242.178C94,-234.156 94,-225.211 94,-216.657"/>
<polygon fill="green" stroke="green" stroke-width="0.327125" points="97.5001,-216.503 94,-206.503 90.5001,-216.504 97.5001,-216.503"/>
</g>
</g>
</svg>
