<?xml version="1.0" encoding="UTF-8" standalone="no"?>
<!DOCTYPE svg PUBLIC "-//W3C//DTD SVG 1.1//EN"
 "http://www.w3.org/Graphics/SVG/1.1/DTD/svg11.dtd">
<!-- Generated by graphviz version 2.38.0 (20140413.2041)
 -->
<!-- Title: %3 Pages: 1 -->
<svg width="1159pt" height="294pt"
 viewBox="0.00 0.00 1159.14 294.19" xmlns="http://www.w3.org/2000/svg" xmlns:xlink="http://www.w3.org/1999/xlink">
<g id="graph0" class="graph" transform="scale(1 1) rotate(0) translate(4 290.191)">
<title>%3</title>
<polygon fill="white" stroke="none" points="-4,4 -4,-290.191 1155.14,-290.191 1155.14,4 -4,4"/>
<!-- &#45;1 -->
<g id="node1" class="node"><title>&#45;1</title>
<polygon fill="lightgray" stroke="black" points="515.394,-184.945 491.394,-184.945 491.394,-166.945 515.394,-166.945 515.394,-184.945"/>
<text text-anchor="middle" x="503.394" y="-173.745" font-family="Times,serif" font-size="9.00">&#45;1</text>
</g>
<!-- 0 -->
<g id="node25" class="node"><title>0</title>
<ellipse fill="lightblue" stroke="black" cx="277.394" cy="-90.4472" rx="14.7" ry="14.7"/>
<text text-anchor="middle" x="277.394" y="-88.2472" font-family="Times,serif" font-size="9.00">0</text>
</g>
<!-- &#45;1&#45;&gt;0 -->
<g id="edge3" class="edge"><title>&#45;1&#45;&gt;0</title>
<path fill="none" stroke="red" stroke-width="0.356775" d="M497.487,-166.646C493.309,-161.403 487.246,-154.934 480.394,-151.196 408.773,-112.125 372.014,-154.267 300.394,-115.196 298.013,-113.897 295.727,-112.269 293.583,-110.477"/>
<polygon fill="red" stroke="red" stroke-width="0.356775" points="295.688,-107.636 286.11,-103.105 290.772,-112.62 295.688,-107.636"/>
</g>
<!-- 9328 -->
<g id="node35" class="node"><title>9328</title>
<ellipse fill="white" stroke="black" cx="505.394" cy="-90.4472" rx="25" ry="25"/>
<text text-anchor="middle" x="505.394" y="-88.2472" font-family="Times,serif" font-size="9.00">9328</text>
</g>
<!-- &#45;1&#45;&gt;9328 -->
<g id="edge40" class="edge"><title>&#45;1&#45;&gt;9328</title>
<path fill="none" stroke="green" stroke-width="0.297311" d="M503.585,-166.939C503.814,-157.387 504.211,-140.798 504.575,-125.599"/>
<polygon fill="green" stroke="green" stroke-width="0.297311" points="508.079,-125.483 504.82,-115.402 501.081,-125.315 508.079,-125.483"/>
</g>
<!-- &#45;2 -->
<g id="node2" class="node"><title>&#45;2</title>
<polygon fill="lightgray" stroke="black" points="381.394,-184.945 357.394,-184.945 357.394,-166.945 381.394,-166.945 381.394,-184.945"/>
<text text-anchor="middle" x="369.394" y="-173.745" font-family="Times,serif" font-size="9.00">&#45;2</text>
</g>
<!-- &#45;2&#45;&gt;0 -->
<g id="edge11" class="edge"><title>&#45;2&#45;&gt;0</title>
<path fill="none" stroke="red" stroke-width="0.526672" d="M362.383,-166.703C358.213,-161.977 352.713,-156.039 347.394,-151.196 327.938,-133.481 320.044,-132.694 300.394,-115.196 298.368,-113.392 296.307,-111.446 294.292,-109.47"/>
<polygon fill="red" stroke="red" stroke-width="0.526672" points="296.423,-106.643 286.925,-101.949 291.422,-111.542 296.423,-106.643"/>
</g>
<!-- &#45;3 -->
<g id="node3" class="node"><title>&#45;3</title>
<polygon fill="lightgray" stroke="black" points="863.394,-270.442 839.394,-270.442 839.394,-252.442 863.394,-252.442 863.394,-270.442"/>
<text text-anchor="middle" x="851.394" y="-259.242" font-family="Times,serif" font-size="9.00">&#45;3</text>
</g>
<!-- &#45;4 -->
<g id="node4" class="node"><title>&#45;4</title>
<polygon fill="lightgray" stroke="black" points="905.394,-270.442 881.394,-270.442 881.394,-252.442 905.394,-252.442 905.394,-270.442"/>
<text text-anchor="middle" x="893.394" y="-259.242" font-family="Times,serif" font-size="9.00">&#45;4</text>
</g>
<!-- &#45;5 -->
<g id="node5" class="node"><title>&#45;5</title>
<polygon fill="lightgray" stroke="black" points="244.394,-184.945 220.394,-184.945 220.394,-166.945 244.394,-166.945 244.394,-184.945"/>
<text text-anchor="middle" x="232.394" y="-173.745" font-family="Times,serif" font-size="9.00">&#45;5</text>
</g>
<!-- &#45;5&#45;&gt;0 -->
<g id="edge25" class="edge"><title>&#45;5&#45;&gt;0</title>
<path fill="none" stroke="red" stroke-width="2.26873" d="M236.708,-166.939C243.353,-154.609 256.318,-130.552 265.834,-112.897"/>
<polygon fill="red" stroke="red" stroke-width="2.26873" points="269.04,-114.325 270.703,-103.862 262.878,-111.004 269.04,-114.325"/>
</g>
<!-- &#45;6 -->
<g id="node6" class="node"><title>&#45;6</title>
<polygon fill="lightgray" stroke="black" points="947.394,-270.442 923.394,-270.442 923.394,-252.442 947.394,-252.442 947.394,-270.442"/>
<text text-anchor="middle" x="935.394" y="-259.242" font-family="Times,serif" font-size="9.00">&#45;6</text>
</g>
<!-- 7994 -->
<g id="node37" class="node"><title>7994</title>
<ellipse fill="white" stroke="black" cx="935.394" cy="-175.945" rx="25" ry="25"/>
<text text-anchor="middle" x="935.394" y="-173.745" font-family="Times,serif" font-size="9.00">7994</text>
</g>
<!-- &#45;6&#45;&gt;7994 -->
<g id="edge27" class="edge"><title>&#45;6&#45;&gt;7994</title>
<path fill="none" stroke="green" stroke-width="0.162668" d="M935.394,-252.436C935.394,-242.885 935.394,-226.295 935.394,-211.096"/>
<polygon fill="green" stroke="green" stroke-width="0.162668" points="938.894,-210.9 935.394,-200.9 931.894,-210.9 938.894,-210.9"/>
</g>
<!-- &#45;7 -->
<g id="node7" class="node"><title>&#45;7</title>
<polygon fill="lightgray" stroke="black" points="989.394,-270.442 965.394,-270.442 965.394,-252.442 989.394,-252.442 989.394,-270.442"/>
<text text-anchor="middle" x="977.394" y="-259.242" font-family="Times,serif" font-size="9.00">&#45;7</text>
</g>
<!-- &#45;8 -->
<g id="node8" class="node"><title>&#45;8</title>
<polygon fill="lightgray" stroke="black" points="745.394,-270.442 721.394,-270.442 721.394,-252.442 745.394,-252.442 745.394,-270.442"/>
<text text-anchor="middle" x="733.394" y="-259.242" font-family="Times,serif" font-size="9.00">&#45;8</text>
</g>
<!-- 1 -->
<g id="node26" class="node"><title>1</title>
<ellipse fill="lightblue" stroke="black" cx="706.394" cy="-90.4472" rx="14.7" ry="14.7"/>
<text text-anchor="middle" x="706.394" y="-88.2472" font-family="Times,serif" font-size="9.00">1</text>
</g>
<!-- &#45;8&#45;&gt;1 -->
<g id="edge9" class="edge"><title>&#45;8&#45;&gt;1</title>
<path fill="none" stroke="red" stroke-width="0.154297" d="M732.091,-252.291C728.18,-227.808 716.424,-154.23 710.261,-115.651"/>
<polygon fill="red" stroke="red" stroke-width="0.154297" points="713.646,-114.653 708.612,-105.331 706.733,-115.758 713.646,-114.653"/>
</g>
<!-- 7386 -->
<g id="node33" class="node"><title>7386</title>
<ellipse fill="white" stroke="black" cx="806.394" cy="-175.945" rx="25" ry="25"/>
<text text-anchor="middle" x="806.394" y="-173.745" font-family="Times,serif" font-size="9.00">7386</text>
</g>
<!-- &#45;8&#45;&gt;7386 -->
<g id="edge7" class="edge"><title>&#45;8&#45;&gt;7386</title>
<path fill="none" stroke="green" stroke-width="0.295858" d="M740.393,-252.436C750.207,-241.211 768.519,-220.266 783.369,-203.281"/>
<polygon fill="green" stroke="green" stroke-width="0.295858" points="786.381,-205.152 790.328,-195.32 781.111,-200.545 786.381,-205.152"/>
</g>
<!-- &#45;9 -->
<g id="node9" class="node"><title>&#45;9</title>
<polygon fill="lightgray" stroke="black" points="471.394,-184.945 447.394,-184.945 447.394,-166.945 471.394,-166.945 471.394,-184.945"/>
<text text-anchor="middle" x="459.394" y="-173.745" font-family="Times,serif" font-size="9.00">&#45;9</text>
</g>
<!-- &#45;9&#45;&gt;0 -->
<g id="edge29" class="edge"><title>&#45;9&#45;&gt;0</title>
<path fill="none" stroke="red" stroke-width="1.08495" d="M453.744,-166.774C449.748,-161.584 443.948,-155.128 437.394,-151.196 383.405,-118.813 354.738,-146.978 300.394,-115.196 298.052,-113.827 295.792,-112.154 293.662,-110.336"/>
<polygon fill="red" stroke="red" stroke-width="1.08495" points="295.769,-107.496 286.202,-102.944 290.842,-112.469 295.769,-107.496"/>
</g>
<!-- 2 -->
<g id="node27" class="node"><title>2</title>
<ellipse fill="lightblue" stroke="black" cx="392.394" cy="-14.8492" rx="14.7" ry="14.7"/>
<text text-anchor="middle" x="392.394" y="-12.6492" font-family="Times,serif" font-size="9.00">2</text>
</g>
<!-- &#45;9&#45;&gt;2 -->
<g id="edge6" class="edge"><title>&#45;9&#45;&gt;2</title>
<path fill="none" stroke="green" stroke-width="0.577544" d="M456.601,-166.886C450.212,-148.641 433.814,-102.873 417.394,-65.6985 413.244,-56.304 408.241,-46.1359 403.804,-37.4483"/>
<polygon fill="green" stroke="green" stroke-width="0.577544" points="406.818,-35.6584 399.111,-28.3891 400.603,-38.8783 406.818,-35.6584"/>
</g>
<!-- &#45;10 -->
<g id="node10" class="node"><title>&#45;10</title>
<polygon fill="lightgray" stroke="black" points="201.894,-184.945 172.894,-184.945 172.894,-166.945 201.894,-166.945 201.894,-184.945"/>
<text text-anchor="middle" x="187.394" y="-173.745" font-family="Times,serif" font-size="9.00">&#45;10</text>
</g>
<!-- &#45;10&#45;&gt;0 -->
<g id="edge22" class="edge"><title>&#45;10&#45;&gt;0</title>
<path fill="none" stroke="green" stroke-width="0.221662" d="M195.307,-166.939C199.944,-162.291 205.944,-156.354 211.394,-151.196 227.196,-136.238 245.578,-119.663 258.923,-107.772"/>
<polygon fill="green" stroke="green" stroke-width="0.221662" points="261.361,-110.288 266.514,-101.03 256.713,-105.054 261.361,-110.288"/>
</g>
<!-- 7843 -->
<g id="node30" class="node"><title>7843</title>
<ellipse fill="white" stroke="black" cx="187.394" cy="-90.4472" rx="25" ry="25"/>
<text text-anchor="middle" x="187.394" y="-88.2472" font-family="Times,serif" font-size="9.00">7843</text>
</g>
<!-- &#45;10&#45;&gt;7843 -->
<g id="edge1" class="edge"><title>&#45;10&#45;&gt;7843</title>
<path fill="none" stroke="green" stroke-width="0.297644" d="M187.394,-166.939C187.394,-157.387 187.394,-140.798 187.394,-125.599"/>
<polygon fill="green" stroke="green" stroke-width="0.297644" points="190.894,-125.402 187.394,-115.402 183.894,-125.402 190.894,-125.402"/>
</g>
<!-- &#45;11 -->
<g id="node11" class="node"><title>&#45;11</title>
<polygon fill="lightgray" stroke="black" points="338.894,-99.4472 309.894,-99.4472 309.894,-81.4472 338.894,-81.4472 338.894,-99.4472"/>
<text text-anchor="middle" x="324.394" y="-88.2472" font-family="Times,serif" font-size="9.00">&#45;11</text>
</g>
<!-- &#45;11&#45;&gt;2 -->
<g id="edge36" class="edge"><title>&#45;11&#45;&gt;2</title>
<path fill="none" stroke="red" stroke-width="0.15285" d="M331.931,-81.2897C342.317,-70.0479 361.327,-49.4731 375.267,-34.3854"/>
<polygon fill="red" stroke="red" stroke-width="0.15285" points="378.188,-36.382 382.403,-26.6619 373.046,-31.6316 378.188,-36.382"/>
</g>
<!-- &#45;12 -->
<g id="node12" class="node"><title>&#45;12</title>
<polygon fill="lightgray" stroke="black" points="1036.89,-270.442 1007.89,-270.442 1007.89,-252.442 1036.89,-252.442 1036.89,-270.442"/>
<text text-anchor="middle" x="1022.39" y="-259.242" font-family="Times,serif" font-size="9.00">&#45;12</text>
</g>
<!-- &#45;13 -->
<g id="node13" class="node"><title>&#45;13</title>
<polygon fill="lightgray" stroke="black" points="630.894,-184.945 601.894,-184.945 601.894,-166.945 630.894,-166.945 630.894,-184.945"/>
<text text-anchor="middle" x="616.394" y="-173.745" font-family="Times,serif" font-size="9.00">&#45;13</text>
</g>
<!-- &#45;13&#45;&gt;0 -->
<g id="edge38" class="edge"><title>&#45;13&#45;&gt;0</title>
<path fill="none" stroke="green" stroke-width="1.17364" d="M610.625,-166.94C606.263,-161.543 599.778,-154.776 592.394,-151.196 474.731,-94.1547 417.443,-173.486 300.394,-115.196 297.966,-113.987 295.651,-112.415 293.49,-110.656"/>
<polygon fill="green" stroke="green" stroke-width="1.17364" points="295.593,-107.816 286.003,-103.311 290.69,-112.813 295.593,-107.816"/>
</g>
<!-- &#45;13&#45;&gt;1 -->
<g id="edge12" class="edge"><title>&#45;13&#45;&gt;1</title>
<path fill="none" stroke="red" stroke-width="0.168663" d="M623.918,-166.886C628.343,-162.22 634.093,-156.283 639.394,-151.196 655.224,-136.004 673.905,-119.451 687.515,-107.629"/>
<polygon fill="red" stroke="red" stroke-width="0.168663" points="689.984,-110.121 695.262,-100.934 685.407,-104.825 689.984,-110.121"/>
</g>
<!-- &#45;14 -->
<g id="node14" class="node"><title>&#45;14</title>
<polygon fill="lightgray" stroke="black" points="385.894,-99.4472 356.894,-99.4472 356.894,-81.4472 385.894,-81.4472 385.894,-99.4472"/>
<text text-anchor="middle" x="371.394" y="-88.2472" font-family="Times,serif" font-size="9.00">&#45;14</text>
</g>
<!-- &#45;14&#45;&gt;2 -->
<g id="edge16" class="edge"><title>&#45;14&#45;&gt;2</title>
<path fill="none" stroke="green" stroke-width="0.72437" d="M373.721,-81.2897C376.608,-71.1707 381.653,-53.4899 385.772,-39.0555"/>
<polygon fill="green" stroke="green" stroke-width="0.72437" points="389.185,-39.8499 388.563,-29.2734 382.454,-37.9292 389.185,-39.8499"/>
</g>
<!-- &#45;15 -->
<g id="node15" class="node"><title>&#45;15</title>
<polygon fill="lightgray" stroke="black" points="763.894,-184.945 734.894,-184.945 734.894,-166.945 763.894,-166.945 763.894,-184.945"/>
<text text-anchor="middle" x="749.394" y="-173.745" font-family="Times,serif" font-size="9.00">&#45;15</text>
</g>
<!-- &#45;15&#45;&gt;1 -->
<g id="edge17" class="edge"><title>&#45;15&#45;&gt;1</title>
<path fill="none" stroke="red" stroke-width="0.21751" d="M745.27,-166.939C738.921,-154.609 726.532,-130.552 717.44,-112.897"/>
<polygon fill="red" stroke="red" stroke-width="0.21751" points="720.477,-111.15 712.787,-103.862 714.254,-114.355 720.477,-111.15"/>
</g>
<!-- &#45;16 -->
<g id="node16" class="node"><title>&#45;16</title>
<polygon fill="lightgray" stroke="black" points="291.894,-184.945 262.894,-184.945 262.894,-166.945 291.894,-166.945 291.894,-184.945"/>
<text text-anchor="middle" x="277.394" y="-173.745" font-family="Times,serif" font-size="9.00">&#45;16</text>
</g>
<!-- &#45;16&#45;&gt;0 -->
<g id="edge19" class="edge"><title>&#45;16&#45;&gt;0</title>
<path fill="none" stroke="green" stroke-width="1.42399" d="M277.394,-166.939C277.394,-155.175 277.394,-132.737 277.394,-115.368"/>
<polygon fill="green" stroke="green" stroke-width="1.42399" points="280.894,-115.349 277.394,-105.349 273.894,-115.349 280.894,-115.349"/>
</g>
<!-- &#45;17 -->
<g id="node17" class="node"><title>&#45;17</title>
<polygon fill="lightgray" stroke="black" points="820.894,-270.442 791.894,-270.442 791.894,-252.442 820.894,-252.442 820.894,-270.442"/>
<text text-anchor="middle" x="806.394" y="-259.242" font-family="Times,serif" font-size="9.00">&#45;17</text>
</g>
<!-- &#45;17&#45;&gt;7386 -->
<g id="edge23" class="edge"><title>&#45;17&#45;&gt;7386</title>
<path fill="none" stroke="red" stroke-width="0.508292" d="M806.394,-252.436C806.394,-242.885 806.394,-226.295 806.394,-211.096"/>
<polygon fill="red" stroke="red" stroke-width="0.508292" points="809.894,-210.9 806.394,-200.9 802.894,-210.9 809.894,-210.9"/>
</g>
<!-- &#45;18 -->
<g id="node18" class="node"><title>&#45;18</title>
<polygon fill="lightgray" stroke="black" points="48.8935,-184.945 19.8935,-184.945 19.8935,-166.945 48.8935,-166.945 48.8935,-184.945"/>
<text text-anchor="middle" x="34.3935" y="-173.745" font-family="Times,serif" font-size="9.00">&#45;18</text>
</g>
<!-- 8664 -->
<g id="node36" class="node"><title>8664</title>
<ellipse fill="white" stroke="black" cx="99.3935" cy="-90.4472" rx="25" ry="25"/>
<text text-anchor="middle" x="99.3935" y="-88.2472" font-family="Times,serif" font-size="9.00">8664</text>
</g>
<!-- &#45;18&#45;&gt;8664 -->
<g id="edge37" class="edge"><title>&#45;18&#45;&gt;8664</title>
<path fill="none" stroke="green" stroke-width="0.365733" d="M40.626,-166.939C49.255,-155.854 65.2629,-135.291 78.3947,-118.422"/>
<polygon fill="green" stroke="green" stroke-width="0.365733" points="81.1842,-120.536 84.5652,-110.495 75.6606,-116.236 81.1842,-120.536"/>
</g>
<!-- &#45;19 -->
<g id="node19" class="node"><title>&#45;19</title>
<polygon fill="lightgray" stroke="black" points="583.894,-184.945 554.894,-184.945 554.894,-166.945 583.894,-166.945 583.894,-184.945"/>
<text text-anchor="middle" x="569.394" y="-173.745" font-family="Times,serif" font-size="9.00">&#45;19</text>
</g>
<!-- &#45;19&#45;&gt;0 -->
<g id="edge32" class="edge"><title>&#45;19&#45;&gt;0</title>
<path fill="none" stroke="green" stroke-width="0.164686" d="M556.894,-166.922C548.129,-161.659 535.956,-155.059 524.394,-151.196 428.758,-119.24 389.814,-161.793 300.394,-115.196 297.988,-113.943 295.688,-112.343 293.535,-110.568"/>
<polygon fill="green" stroke="green" stroke-width="0.164686" points="295.638,-107.727 286.055,-103.21 290.729,-112.718 295.638,-107.727"/>
</g>
<!-- &#45;19&#45;&gt;1 -->
<g id="edge26" class="edge"><title>&#45;19&#45;&gt;1</title>
<path fill="none" stroke="red" stroke-width="0.401899" d="M576.084,-166.82C580.401,-161.905 586.326,-155.733 592.394,-151.196 621.518,-129.417 659.686,-111.181 683.628,-100.786"/>
<polygon fill="red" stroke="red" stroke-width="0.401899" points="685.116,-103.956 692.95,-96.8231 682.378,-97.5142 685.116,-103.956"/>
</g>
<!-- &#45;19&#45;&gt;2 -->
<g id="edge13" class="edge"><title>&#45;19&#45;&gt;2</title>
<path fill="none" stroke="green" stroke-width="0.232693" d="M576.744,-166.93C593.593,-147.575 631.667,-97.5364 606.394,-65.6985 583.026,-36.2625 468.85,-22.6078 417.499,-17.8796"/>
<polygon fill="green" stroke="green" stroke-width="0.232693" points="417.539,-14.3697 407.271,-16.9802 416.926,-21.3427 417.539,-14.3697"/>
</g>
<!-- 9793 -->
<g id="node29" class="node"><title>9793</title>
<ellipse fill="white" stroke="black" cx="572.394" cy="-90.4472" rx="25" ry="25"/>
<text text-anchor="middle" x="572.394" y="-88.2472" font-family="Times,serif" font-size="9.00">9793</text>
</g>
<!-- &#45;19&#45;&gt;9793 -->
<g id="edge4" class="edge"><title>&#45;19&#45;&gt;9793</title>
<path fill="none" stroke="green" stroke-width="0.303472" d="M569.681,-166.939C570.024,-157.387 570.62,-140.798 571.166,-125.599"/>
<polygon fill="green" stroke="green" stroke-width="0.303472" points="574.671,-125.521 571.533,-115.402 567.676,-125.27 574.671,-125.521"/>
</g>
<!-- &#45;20 -->
<g id="node20" class="node"><title>&#45;20</title>
<polygon fill="lightgray" stroke="black" points="91.8935,-270.442 62.8935,-270.442 62.8935,-252.442 91.8935,-252.442 91.8935,-270.442"/>
<text text-anchor="middle" x="77.3935" y="-259.242" font-family="Times,serif" font-size="9.00">&#45;20</text>
</g>
<!-- &#45;20&#45;&gt;2 -->
<g id="edge2" class="edge"><title>&#45;20&#45;&gt;2</title>
<path fill="none" stroke="green" stroke-width="0.571285" d="M62.881,-252.586C46.609,-242.852 21.1005,-224.588 10.3935,-200.693 -16.099,-141.571 11.0329,-100.943 65.3935,-65.6985 115.488,-33.2196 299.923,-20.6153 367.428,-17.0267"/>
<polygon fill="green" stroke="green" stroke-width="0.571285" points="367.763,-20.5143 377.572,-16.5093 367.407,-13.5234 367.763,-20.5143"/>
</g>
<!-- 9647 -->
<g id="node34" class="node"><title>9647</title>
<ellipse fill="white" stroke="black" cx="130.394" cy="-175.945" rx="25" ry="25"/>
<text text-anchor="middle" x="130.394" y="-173.745" font-family="Times,serif" font-size="9.00">9647</text>
</g>
<!-- &#45;20&#45;&gt;9647 -->
<g id="edge28" class="edge"><title>&#45;20&#45;&gt;9647</title>
<path fill="none" stroke="green" stroke-width="0.419182" d="M82.4754,-252.436C89.2085,-241.829 101.452,-222.541 111.877,-206.117"/>
<polygon fill="green" stroke="green" stroke-width="0.419182" points="115.03,-207.679 117.435,-197.36 109.121,-203.928 115.03,-207.679"/>
</g>
<!-- &#45;20&#45;&gt;8664 -->
<g id="edge31" class="edge"><title>&#45;20&#45;&gt;8664</title>
<path fill="none" stroke="green" stroke-width="0.317446" d="M78.4546,-252.291C81.3935,-229.716 89.7662,-165.401 94.9905,-125.269"/>
<polygon fill="green" stroke="green" stroke-width="0.317446" points="98.4892,-125.505 96.3095,-115.137 91.5478,-124.602 98.4892,-125.505"/>
</g>
<!-- &#45;21 -->
<g id="node21" class="node"><title>&#45;21</title>
<polygon fill="lightgray" stroke="black" points="428.894,-184.945 399.894,-184.945 399.894,-166.945 428.894,-166.945 428.894,-184.945"/>
<text text-anchor="middle" x="414.394" y="-173.745" font-family="Times,serif" font-size="9.00">&#45;21</text>
</g>
<!-- &#45;21&#45;&gt;0 -->
<g id="edge18" class="edge"><title>&#45;21&#45;&gt;0</title>
<path fill="none" stroke="green" stroke-width="2.30878" d="M407.51,-166.613C403.043,-161.62 396.864,-155.438 390.394,-151.196 354.365,-127.575 336.169,-139.199 300.394,-115.196 298.141,-113.685 295.937,-111.923 293.84,-110.053"/>
<polygon fill="green" stroke="green" stroke-width="2.30878" points="295.951,-107.215 286.405,-102.619 291.002,-112.165 295.951,-107.215"/>
</g>
<!-- &#45;21&#45;&gt;2 -->
<g id="edge34" class="edge"><title>&#45;21&#45;&gt;2</title>
<path fill="none" stroke="green" stroke-width="0.14066" d="M413.272,-166.836C410.066,-143.653 400.769,-76.4185 395.732,-39.9886"/>
<polygon fill="green" stroke="green" stroke-width="0.14066" points="399.153,-39.1809 394.316,-29.7546 392.219,-40.1398 399.153,-39.1809"/>
</g>
<!-- &#45;22 -->
<g id="node22" class="node"><title>&#45;22</title>
<polygon fill="lightgray" stroke="black" points="677.894,-184.945 648.894,-184.945 648.894,-166.945 677.894,-166.945 677.894,-184.945"/>
<text text-anchor="middle" x="663.394" y="-173.745" font-family="Times,serif" font-size="9.00">&#45;22</text>
</g>
<!-- &#45;22&#45;&gt;1 -->
<g id="edge20" class="edge"><title>&#45;22&#45;&gt;1</title>
<path fill="none" stroke="green" stroke-width="0.620044" d="M667.517,-166.939C673.866,-154.609 686.255,-130.552 695.347,-112.897"/>
<polygon fill="green" stroke="green" stroke-width="0.620044" points="698.533,-114.355 700,-103.862 692.31,-111.15 698.533,-114.355"/>
</g>
<!-- 3 -->
<g id="node28" class="node"><title>3</title>
<ellipse fill="lightblue" stroke="black" cx="663.394" cy="-14.8492" rx="14.7" ry="14.7"/>
<text text-anchor="middle" x="663.394" y="-12.6492" font-family="Times,serif" font-size="9.00">3</text>
</g>
<!-- &#45;22&#45;&gt;3 -->
<g id="edge39" class="edge"><title>&#45;22&#45;&gt;3</title>
<path fill="none" stroke="red" stroke-width="1.24551" d="M663.394,-166.836C663.394,-143.653 663.394,-76.4185 663.394,-39.9886"/>
<polygon fill="red" stroke="red" stroke-width="1.24551" points="666.894,-39.7546 663.394,-29.7546 659.894,-39.7547 666.894,-39.7546"/>
</g>
<!-- &#45;23 -->
<g id="node23" class="node"><title>&#45;23</title>
<polygon fill="lightgray" stroke="black" points="1083.89,-270.442 1054.89,-270.442 1054.89,-252.442 1083.89,-252.442 1083.89,-270.442"/>
<text text-anchor="middle" x="1069.39" y="-259.242" font-family="Times,serif" font-size="9.00">&#45;23</text>
</g>
<!-- &#45;24 -->
<g id="node24" class="node"><title>&#45;24</title>
<polygon fill="lightgray" stroke="black" points="338.894,-184.945 309.894,-184.945 309.894,-166.945 338.894,-166.945 338.894,-184.945"/>
<text text-anchor="middle" x="324.394" y="-173.745" font-family="Times,serif" font-size="9.00">&#45;24</text>
</g>
<!-- &#45;24&#45;&gt;0 -->
<g id="edge35" class="edge"><title>&#45;24&#45;&gt;0</title>
<path fill="none" stroke="green" stroke-width="0.952187" d="M319.887,-166.939C312.947,-154.609 299.405,-130.552 289.467,-112.897"/>
<polygon fill="green" stroke="green" stroke-width="0.952187" points="292.337,-110.859 284.382,-103.862 286.237,-114.293 292.337,-110.859"/>
</g>
<!-- 1&#45;&gt;1 -->
<g id="edge24" class="edge"><title>1&#45;&gt;1</title>
<path fill="none" stroke="red" stroke-width="0.821431" d="M716.821,-101.274C727.432,-107.642 739.243,-104.033 739.243,-90.4472 739.243,-81.1069 733.66,-76.4823 726.723,-76.5735"/>
<polygon fill="red" stroke="red" stroke-width="0.821431" points="725.349,-73.3343 716.821,-79.6209 727.408,-80.0247 725.349,-73.3343"/>
</g>
<!-- 2&#45;&gt;2 -->
<g id="edge21" class="edge"><title>2&#45;&gt;2</title>
<path fill="none" stroke="green" stroke-width="0.181442" d="M402.821,-25.6755C413.432,-32.0439 425.243,-28.4352 425.243,-14.8492 425.243,-5.50891 419.66,-0.884351 412.723,-0.975566"/>
<polygon fill="green" stroke="green" stroke-width="0.181442" points="411.349,2.26363 402.821,-4.02295 413.408,-4.42672 411.349,2.26363"/>
</g>
<!-- 3&#45;&gt;3 -->
<g id="edge14" class="edge"><title>3&#45;&gt;3</title>
<path fill="none" stroke="red" stroke-width="0.288759" d="M673.821,-25.6755C684.432,-32.0439 696.243,-28.4352 696.243,-14.8492 696.243,-5.50891 690.66,-0.884351 683.723,-0.975566"/>
<polygon fill="red" stroke="red" stroke-width="0.288759" points="682.349,2.26363 673.821,-4.02295 684.408,-4.42672 682.349,2.26363"/>
</g>
<!-- 9793&#45;&gt;2 -->
<g id="edge33" class="edge"><title>9793&#45;&gt;2</title>
<path fill="none" stroke="green" stroke-width="0.294537" d="M553.466,-74.3763C549.009,-71.2441 544.163,-68.1536 539.394,-65.6985 498.421,-44.6085 446.597,-29.4515 416.699,-21.7115"/>
<polygon fill="green" stroke="green" stroke-width="0.294537" points="417.289,-18.2508 406.737,-19.1982 415.577,-25.0381 417.289,-18.2508"/>
</g>
<!-- 4550 -->
<g id="node31" class="node"><title>4550</title>
<ellipse fill="white" stroke="black" cx="1126.39" cy="-261.442" rx="25" ry="25"/>
<text text-anchor="middle" x="1126.39" y="-259.242" font-family="Times,serif" font-size="9.00">4550</text>
</g>
<!-- 8512 -->
<g id="node32" class="node"><title>8512</title>
<ellipse fill="white" stroke="black" cx="782.394" cy="-90.4472" rx="25" ry="25"/>
<text text-anchor="middle" x="782.394" y="-88.2472" font-family="Times,serif" font-size="9.00">8512</text>
</g>
<!-- 8512&#45;&gt;3 -->
<g id="edge30" class="edge"><title>8512&#45;&gt;3</title>
<path fill="none" stroke="red" stroke-width="0.473038" d="M762.437,-75.115C757.868,-71.9445 753,-68.6517 748.394,-65.6985 727.128,-52.066 702.116,-37.5757 684.754,-27.7524"/>
<polygon fill="red" stroke="red" stroke-width="0.473038" points="686.399,-24.6623 675.968,-22.8102 682.967,-30.7634 686.399,-24.6623"/>
</g>
<!-- 7386&#45;&gt;1 -->
<g id="edge15" class="edge"><title>7386&#45;&gt;1</title>
<path fill="none" stroke="green" stroke-width="0.205587" d="M787.584,-159.239C769.789,-144.381 743.217,-122.194 725.368,-107.29"/>
<polygon fill="green" stroke="green" stroke-width="0.205587" points="727.302,-104.346 717.383,-100.623 722.816,-109.719 727.302,-104.346"/>
</g>
<!-- 9647&#45;&gt;8664 -->
<g id="edge10" class="edge"><title>9647&#45;&gt;8664</title>
<path fill="none" stroke="red" stroke-width="0.2802" d="M122.086,-152.569C118.75,-143.584 114.843,-133.061 111.22,-123.303"/>
<polygon fill="red" stroke="red" stroke-width="0.2802" points="114.486,-122.041 107.724,-113.885 107.923,-124.478 114.486,-122.041"/>
</g>
<!-- 9328&#45;&gt;3 -->
<g id="edge5" class="edge"><title>9328&#45;&gt;3</title>
<path fill="none" stroke="red" stroke-width="0.184934" d="M524.419,-74.5609C528.871,-71.4191 533.69,-68.278 538.394,-65.6985 572.062,-47.234 614.022,-31.9315 639.749,-23.3416"/>
<polygon fill="red" stroke="red" stroke-width="0.184934" points="640.981,-26.6213 649.395,-20.1827 638.802,-19.969 640.981,-26.6213"/>
</g>
<!-- 8664&#45;&gt;2 -->
<g id="edge8" class="edge"><title>8664&#45;&gt;2</title>
<path fill="none" stroke="red" stroke-width="0.395789" d="M121.321,-78.5587C130.977,-74.0916 142.567,-69.1662 153.394,-65.6985 229.679,-41.264 323.581,-25.7393 367.517,-19.2856"/>
<polygon fill="red" stroke="red" stroke-width="0.395789" points="368.169,-22.7279 377.569,-17.8404 367.173,-15.7992 368.169,-22.7279"/>
</g>
</g>
</svg>
