<?xml version="1.0" encoding="UTF-8" standalone="no"?>
<!DOCTYPE svg PUBLIC "-//W3C//DTD SVG 1.1//EN"
 "http://www.w3.org/Graphics/SVG/1.1/DTD/svg11.dtd">
<!-- Generated by graphviz version 2.38.0 (20140413.2041)
 -->
<!-- Title: %3 Pages: 1 -->
<svg width="1621pt" height="912pt"
 viewBox="0.00 0.00 1620.60 912.47" xmlns="http://www.w3.org/2000/svg" xmlns:xlink="http://www.w3.org/1999/xlink">
<g id="graph0" class="graph" transform="scale(1 1) rotate(0) translate(4 908.472)">
<title>%3</title>
<polygon fill="white" stroke="none" points="-4,4 -4,-908.472 1616.6,-908.472 1616.6,4 -4,4"/>
<!-- &#45;1 -->
<g id="node1" class="node"><title>&#45;1</title>
<polygon fill="lightgray" stroke="black" points="387.749,-461.236 363.749,-461.236 363.749,-443.236 387.749,-443.236 387.749,-461.236"/>
<text text-anchor="middle" x="375.749" y="-450.036" font-family="Times,serif" font-size="9.00">&#45;1</text>
</g>
<!-- 9931 -->
<g id="node40" class="node"><title>9931</title>
<ellipse fill="white" stroke="black" cx="406.749" cy="-361.082" rx="25" ry="25"/>
<text text-anchor="middle" x="406.749" y="-358.882" font-family="Times,serif" font-size="9.00">9931</text>
</g>
<!-- &#45;1&#45;&gt;9931 -->
<g id="edge8" class="edge"><title>&#45;1&#45;&gt;9931</title>
<path fill="none" stroke="green" stroke-width="0.341631" d="M378.61,-443.008C382.419,-432.054 389.379,-412.037 395.423,-394.653"/>
<polygon fill="green" stroke="green" stroke-width="0.341631" points="398.867,-395.405 398.846,-384.81 392.256,-393.106 398.867,-395.405"/>
</g>
<!-- 6507 -->
<g id="node48" class="node"><title>6507</title>
<ellipse fill="white" stroke="black" cx="406.749" cy="-269.927" rx="25" ry="25"/>
<text text-anchor="middle" x="406.749" y="-267.727" font-family="Times,serif" font-size="9.00">6507</text>
</g>
<!-- &#45;1&#45;&gt;6507 -->
<g id="edge17" class="edge"><title>&#45;1&#45;&gt;6507</title>
<path fill="none" stroke="red" stroke-width="0.180531" d="M374.047,-443.074C370.325,-423.694 362.577,-373.534 372.749,-333.505 375.787,-321.549 381.622,-309.407 387.611,-299.04"/>
<polygon fill="red" stroke="red" stroke-width="0.180531" points="390.639,-300.798 392.848,-290.436 384.659,-297.158 390.639,-300.798"/>
</g>
<!-- &#45;2 -->
<g id="node2" class="node"><title>&#45;2</title>
<polygon fill="lightgray" stroke="black" points="1009.75,-898.623 985.749,-898.623 985.749,-880.623 1009.75,-880.623 1009.75,-898.623"/>
<text text-anchor="middle" x="997.749" y="-887.423" font-family="Times,serif" font-size="9.00">&#45;2</text>
</g>
<!-- &#45;3 -->
<g id="node3" class="node"><title>&#45;3</title>
<polygon fill="lightgray" stroke="black" points="36.7487,-461.236 12.7487,-461.236 12.7487,-443.236 36.7487,-443.236 36.7487,-461.236"/>
<text text-anchor="middle" x="24.7487" y="-450.036" font-family="Times,serif" font-size="9.00">&#45;3</text>
</g>
<!-- 2197 -->
<g id="node34" class="node"><title>2197</title>
<ellipse fill="white" stroke="black" cx="24.7487" cy="-361.082" rx="25" ry="25"/>
<text text-anchor="middle" x="24.7487" y="-358.882" font-family="Times,serif" font-size="9.00">2197</text>
</g>
<!-- &#45;3&#45;&gt;2197 -->
<g id="edge25" class="edge"><title>&#45;3&#45;&gt;2197</title>
<path fill="none" stroke="green" stroke-width="0.645847" d="M24.7487,-443.008C24.7487,-432.37 24.7487,-413.187 24.7487,-396.166"/>
<polygon fill="green" stroke="green" stroke-width="0.645847" points="28.2488,-395.944 24.7487,-385.944 21.2488,-395.944 28.2488,-395.944"/>
</g>
<!-- &#45;4 -->
<g id="node4" class="node"><title>&#45;4</title>
<polygon fill="lightgray" stroke="black" points="1051.75,-898.623 1027.75,-898.623 1027.75,-880.623 1051.75,-880.623 1051.75,-898.623"/>
<text text-anchor="middle" x="1039.75" y="-887.423" font-family="Times,serif" font-size="9.00">&#45;4</text>
</g>
<!-- &#45;5 -->
<g id="node5" class="node"><title>&#45;5</title>
<polygon fill="lightgray" stroke="black" points="208.749,-461.236 184.749,-461.236 184.749,-443.236 208.749,-443.236 208.749,-461.236"/>
<text text-anchor="middle" x="196.749" y="-450.036" font-family="Times,serif" font-size="9.00">&#45;5</text>
</g>
<!-- 2 -->
<g id="node27" class="node"><title>2</title>
<ellipse fill="lightblue" stroke="black" cx="196.749" cy="-361.082" rx="14.7" ry="14.7"/>
<text text-anchor="middle" x="196.749" y="-358.882" font-family="Times,serif" font-size="9.00">2</text>
</g>
<!-- &#45;5&#45;&gt;2 -->
<g id="edge32" class="edge"><title>&#45;5&#45;&gt;2</title>
<path fill="none" stroke="red" stroke-width="0.875807" d="M196.749,-443.008C196.749,-430.252 196.749,-405.208 196.749,-386.341"/>
<polygon fill="red" stroke="red" stroke-width="0.875807" points="200.249,-386.086 196.749,-376.086 193.249,-386.086 200.249,-386.086"/>
</g>
<!-- &#45;6 -->
<g id="node6" class="node"><title>&#45;6</title>
<polygon fill="lightgray" stroke="black" points="1093.75,-898.623 1069.75,-898.623 1069.75,-880.623 1093.75,-880.623 1093.75,-898.623"/>
<text text-anchor="middle" x="1081.75" y="-887.423" font-family="Times,serif" font-size="9.00">&#45;6</text>
</g>
<!-- &#45;7 -->
<g id="node7" class="node"><title>&#45;7</title>
<polygon fill="lightgray" stroke="black" points="327.749,-552.39 303.749,-552.39 303.749,-534.39 327.749,-534.39 327.749,-552.39"/>
<text text-anchor="middle" x="315.749" y="-541.19" font-family="Times,serif" font-size="9.00">&#45;7</text>
</g>
<!-- 2831 -->
<g id="node32" class="node"><title>2831</title>
<ellipse fill="white" stroke="black" cx="750.749" cy="-90.4472" rx="25" ry="25"/>
<text text-anchor="middle" x="750.749" y="-88.2472" font-family="Times,serif" font-size="9.00">2831</text>
</g>
<!-- &#45;7&#45;&gt;2831 -->
<g id="edge12" class="edge"><title>&#45;7&#45;&gt;2831</title>
<path fill="none" stroke="red" stroke-width="1.10609" d="M303.68,-542.206C271.662,-540.984 184.505,-532.727 147.749,-479.813 56.1558,-347.956 157.633,-229.574 297.749,-151.196 369.577,-111.016 622.587,-96.7174 715.87,-92.7417"/>
<polygon fill="red" stroke="red" stroke-width="1.10609" points="716.077,-96.2362 725.924,-92.3271 715.788,-89.2422 716.077,-96.2362"/>
</g>
<!-- 4505 -->
<g id="node35" class="node"><title>4505</title>
<ellipse fill="white" stroke="black" cx="406.749" cy="-178.773" rx="25" ry="25"/>
<text text-anchor="middle" x="406.749" y="-176.573" font-family="Times,serif" font-size="9.00">4505</text>
</g>
<!-- &#45;7&#45;&gt;4505 -->
<g id="edge33" class="edge"><title>&#45;7&#45;&gt;4505</title>
<path fill="none" stroke="red" stroke-width="0.668979" d="M303.693,-541.17C275.57,-537.606 205.744,-524.45 175.749,-479.813 139.473,-425.83 145.213,-392.428 172.749,-333.505 211.205,-251.214 318.202,-207.147 373.186,-189.347"/>
<polygon fill="red" stroke="red" stroke-width="0.668979" points="374.324,-192.659 382.819,-186.326 372.23,-185.979 374.324,-192.659"/>
</g>
<!-- 13519 -->
<g id="node41" class="node"><title>13519</title>
<ellipse fill="white" stroke="black" cx="594.749" cy="-452.236" rx="27.6545" ry="27.6545"/>
<text text-anchor="middle" x="594.749" y="-450.036" font-family="Times,serif" font-size="9.00">13519</text>
</g>
<!-- &#45;7&#45;&gt;13519 -->
<g id="edge41" class="edge"><title>&#45;7&#45;&gt;13519</title>
<path fill="none" stroke="red" stroke-width="0.368928" stroke-dasharray="1,5" d="M327.94,-540.93C364.488,-536.205 475.741,-519.297 558.749,-479.813 561.02,-478.733 563.293,-477.501 565.53,-476.172"/>
<polygon fill="red" stroke="red" stroke-width="0.368928" points="567.455,-479.095 573.906,-470.691 563.622,-473.238 567.455,-479.095"/>
</g>
<!-- 5851 -->
<g id="node44" class="node"><title>5851</title>
<ellipse fill="white" stroke="black" cx="774.749" cy="-361.082" rx="25" ry="25"/>
<text text-anchor="middle" x="774.749" y="-358.882" font-family="Times,serif" font-size="9.00">5851</text>
</g>
<!-- &#45;7&#45;&gt;5851 -->
<g id="edge28" class="edge"><title>&#45;7&#45;&gt;5851</title>
<path fill="none" stroke="green" stroke-width="0.183937" d="M327.949,-542.237C371.584,-541.234 523.072,-533.829 631.749,-479.813 664.775,-463.398 665.312,-448.144 693.749,-424.659 714.037,-407.903 719.939,-404.761 740.749,-388.659 743.026,-386.897 745.386,-385.064 747.753,-383.223"/>
<polygon fill="green" stroke="green" stroke-width="0.183937" points="749.98,-385.924 755.713,-377.015 745.675,-380.405 749.98,-385.924"/>
</g>
<!-- &#45;7&#45;&gt;6507 -->
<g id="edge2" class="edge"><title>&#45;7&#45;&gt;6507</title>
<path fill="none" stroke="green" stroke-width="0.332805" d="M316.53,-534.074C319.474,-505.209 331.419,-407.09 363.749,-333.505 369.271,-320.935 377.418,-308.234 385.139,-297.591"/>
<polygon fill="green" stroke="green" stroke-width="0.332805" points="387.98,-299.637 391.182,-289.537 382.381,-295.435 387.98,-299.637"/>
</g>
<!-- &#45;8 -->
<g id="node8" class="node"><title>&#45;8</title>
<polygon fill="lightgray" stroke="black" points="251.749,-461.236 227.749,-461.236 227.749,-443.236 251.749,-443.236 251.749,-461.236"/>
<text text-anchor="middle" x="239.749" y="-450.036" font-family="Times,serif" font-size="9.00">&#45;8</text>
</g>
<!-- 1 -->
<g id="node26" class="node"><title>1</title>
<ellipse fill="lightblue" stroke="black" cx="82.7487" cy="-14.8492" rx="14.7" ry="14.7"/>
<text text-anchor="middle" x="82.7487" y="-12.6492" font-family="Times,serif" font-size="9.00">1</text>
</g>
<!-- &#45;8&#45;&gt;1 -->
<g id="edge13" class="edge"><title>&#45;8&#45;&gt;1</title>
<path fill="none" stroke="green" stroke-width="1.05866" d="M233.607,-442.957C229.403,-437.515 223.557,-430.371 217.749,-424.659 199.487,-406.7 186.494,-410.271 172.749,-388.659 99.2647,-273.117 85.764,-102.623 83.2959,-40.0301"/>
<polygon fill="green" stroke="green" stroke-width="1.05866" points="86.7915,-39.8355 82.9601,-29.9577 79.7954,-40.0688 86.7915,-39.8355"/>
</g>
<!-- &#45;8&#45;&gt;2197 -->
<g id="edge43" class="edge"><title>&#45;8&#45;&gt;2197</title>
<path fill="none" stroke="green" stroke-width="0.214761" d="M234.916,-443.182C230.98,-437.268 224.915,-429.459 217.749,-424.659 172.898,-394.62 153.046,-405.467 101.749,-388.659 87.1497,-383.875 71.0753,-378.366 57.4066,-373.608"/>
<polygon fill="green" stroke="green" stroke-width="0.214761" points="58.5292,-370.293 47.9343,-370.297 56.2196,-376.901 58.5292,-370.293"/>
</g>
<!-- &#45;8&#45;&gt;4505 -->
<g id="edge37" class="edge"><title>&#45;8&#45;&gt;4505</title>
<path fill="none" stroke="red" stroke-width="0.725439" stroke-dasharray="1,5" d="M239.727,-443.025C239.993,-423.113 242.615,-371.129 261.749,-333.505 290.265,-277.43 345.633,-227.504 379.088,-200.647"/>
<polygon fill="red" stroke="red" stroke-width="0.725439" points="381.413,-203.271 387.092,-194.326 377.075,-197.777 381.413,-203.271"/>
</g>
<!-- &#45;8&#45;&gt;5851 -->
<g id="edge35" class="edge"><title>&#45;8&#45;&gt;5851</title>
<path fill="none" stroke="red" stroke-width="0.270209" stroke-dasharray="1,5" d="M252.064,-447.816C272.994,-442.132 316.919,-430.766 354.749,-424.659 524.846,-397.199 580.627,-452.286 740.749,-388.659 743.49,-387.57 746.193,-386.187 748.803,-384.626"/>
<polygon fill="red" stroke="red" stroke-width="0.270209" points="751.001,-387.362 757.249,-378.805 747.029,-381.598 751.001,-387.362"/>
</g>
<!-- &#45;8&#45;&gt;6507 -->
<g id="edge46" class="edge"><title>&#45;8&#45;&gt;6507</title>
<path fill="none" stroke="green" stroke-width="0.377451" stroke-dasharray="1,5" d="M242.27,-443.171C249.006,-422.689 269.157,-367.862 301.749,-333.505 322.323,-311.816 352.05,-295.047 374.626,-284.352"/>
<polygon fill="green" stroke="green" stroke-width="0.377451" points="376.181,-287.49 383.816,-280.144 373.267,-281.125 376.181,-287.49"/>
</g>
<!-- &#45;9 -->
<g id="node9" class="node"><title>&#45;9</title>
<polygon fill="lightgray" stroke="black" points="731.749,-370.082 707.749,-370.082 707.749,-352.082 731.749,-352.082 731.749,-370.082"/>
<text text-anchor="middle" x="719.749" y="-358.882" font-family="Times,serif" font-size="9.00">&#45;9</text>
</g>
<!-- 6074 -->
<g id="node38" class="node"><title>6074</title>
<ellipse fill="white" stroke="black" cx="719.749" cy="-269.927" rx="25" ry="25"/>
<text text-anchor="middle" x="719.749" y="-267.727" font-family="Times,serif" font-size="9.00">6074</text>
</g>
<!-- &#45;9&#45;&gt;6074 -->
<g id="edge3" class="edge"><title>&#45;9&#45;&gt;6074</title>
<path fill="none" stroke="red" stroke-width="0.361384" d="M719.749,-351.854C719.749,-341.216 719.749,-322.032 719.749,-305.012"/>
<polygon fill="red" stroke="red" stroke-width="0.361384" points="723.249,-304.79 719.749,-294.79 716.249,-304.79 723.249,-304.79"/>
</g>
<!-- &#45;10 -->
<g id="node10" class="node"><title>&#45;10</title>
<polygon fill="lightgray" stroke="black" points="1141.25,-898.623 1112.25,-898.623 1112.25,-880.623 1141.25,-880.623 1141.25,-898.623"/>
<text text-anchor="middle" x="1126.75" y="-887.423" font-family="Times,serif" font-size="9.00">&#45;10</text>
</g>
<!-- &#45;11 -->
<g id="node11" class="node"><title>&#45;11</title>
<polygon fill="lightgray" stroke="black" points="793.249,-820.197 764.249,-820.197 764.249,-802.197 793.249,-802.197 793.249,-820.197"/>
<text text-anchor="middle" x="778.749" y="-808.997" font-family="Times,serif" font-size="9.00">&#45;11</text>
</g>
<!-- 12003 -->
<g id="node45" class="node"><title>12003</title>
<ellipse fill="white" stroke="black" cx="851.749" cy="-720.042" rx="27.6545" ry="27.6545"/>
<text text-anchor="middle" x="851.749" y="-717.842" font-family="Times,serif" font-size="9.00">12003</text>
</g>
<!-- &#45;11&#45;&gt;12003 -->
<g id="edge50" class="edge"><title>&#45;11&#45;&gt;12003</title>
<path fill="none" stroke="red" stroke-width="0.899045" d="M785.486,-801.969C795.097,-790.231 813.227,-768.089 828.096,-749.929"/>
<polygon fill="red" stroke="red" stroke-width="0.899045" points="831.029,-751.871 834.657,-741.917 825.613,-747.437 831.029,-751.871"/>
</g>
<!-- &#45;12 -->
<g id="node12" class="node"><title>&#45;12</title>
<polygon fill="lightgray" stroke="black" points="1188.25,-898.623 1159.25,-898.623 1159.25,-880.623 1188.25,-880.623 1188.25,-898.623"/>
<text text-anchor="middle" x="1173.75" y="-887.423" font-family="Times,serif" font-size="9.00">&#45;12</text>
</g>
<!-- &#45;13 -->
<g id="node13" class="node"><title>&#45;13</title>
<polygon fill="lightgray" stroke="black" points="1235.25,-898.623 1206.25,-898.623 1206.25,-880.623 1235.25,-880.623 1235.25,-898.623"/>
<text text-anchor="middle" x="1220.75" y="-887.423" font-family="Times,serif" font-size="9.00">&#45;13</text>
</g>
<!-- &#45;14 -->
<g id="node14" class="node"><title>&#45;14</title>
<polygon fill="lightgray" stroke="black" points="967.249,-898.623 938.249,-898.623 938.249,-880.623 967.249,-880.623 967.249,-898.623"/>
<text text-anchor="middle" x="952.749" y="-887.423" font-family="Times,serif" font-size="9.00">&#45;14</text>
</g>
<!-- &#45;14&#45;&gt;2831 -->
<g id="edge48" class="edge"><title>&#45;14&#45;&gt;2831</title>
<path fill="none" stroke="red" stroke-width="0.125649" stroke-dasharray="1,5" d="M959.404,-880.488C977.76,-857.199 1027.75,-787.66 1027.75,-721.042 1027.75,-721.042 1027.75,-721.042 1027.75,-268.927 1027.75,-215.925 1044.94,-189.919 1008.75,-151.196 978.701,-119.046 849.332,-101.569 785.979,-94.7974"/>
<polygon fill="red" stroke="red" stroke-width="0.125649" points="785.986,-91.2794 775.678,-93.7289 785.264,-98.2421 785.986,-91.2794"/>
</g>
<!-- 13885 -->
<g id="node39" class="node"><title>13885</title>
<ellipse fill="white" stroke="black" cx="924.749" cy="-811.197" rx="27.6545" ry="27.6545"/>
<text text-anchor="middle" x="924.749" y="-808.997" font-family="Times,serif" font-size="9.00">13885</text>
</g>
<!-- &#45;14&#45;&gt;13885 -->
<g id="edge52" class="edge"><title>&#45;14&#45;&gt;13885</title>
<path fill="none" stroke="green" stroke-width="0.139467" d="M949.752,-880.444C946.762,-872.282 941.962,-859.18 937.363,-846.628"/>
<polygon fill="green" stroke="green" stroke-width="0.139467" points="940.646,-845.414 933.919,-837.228 934.073,-847.822 940.646,-845.414"/>
</g>
<!-- &#45;14&#45;&gt;12003 -->
<g id="edge19" class="edge"><title>&#45;14&#45;&gt;12003</title>
<path fill="none" stroke="red" stroke-width="0.922134" d="M938.206,-881.051C923.424,-872.636 900.883,-857.701 887.749,-838.774 871.009,-814.651 861.868,-782.516 856.991,-757.913"/>
<polygon fill="red" stroke="red" stroke-width="0.922134" points="860.397,-757.082 855.153,-747.876 853.512,-758.343 860.397,-757.082"/>
</g>
<!-- 10861 -->
<g id="node49" class="node"><title>10861</title>
<ellipse fill="white" stroke="black" cx="971.749" cy="-269.927" rx="27.6545" ry="27.6545"/>
<text text-anchor="middle" x="971.749" y="-267.727" font-family="Times,serif" font-size="9.00">10861</text>
</g>
<!-- &#45;14&#45;&gt;10861 -->
<g id="edge1" class="edge"><title>&#45;14&#45;&gt;10861</title>
<path fill="none" stroke="green" stroke-width="0.270291" d="M955.136,-880.335C961.907,-856.071 980.749,-782.986 980.749,-721.042 980.749,-721.042 980.749,-721.042 980.749,-451.236 980.749,-401.457 977.285,-344.044 974.655,-307.629"/>
<polygon fill="green" stroke="green" stroke-width="0.270291" points="978.133,-307.201 973.904,-297.486 971.152,-307.717 978.133,-307.201"/>
</g>
<!-- &#45;15 -->
<g id="node15" class="node"><title>&#45;15</title>
<polygon fill="lightgray" stroke="black" points="840.249,-820.197 811.249,-820.197 811.249,-802.197 840.249,-802.197 840.249,-820.197"/>
<text text-anchor="middle" x="825.749" y="-808.997" font-family="Times,serif" font-size="9.00">&#45;15</text>
</g>
<!-- &#45;15&#45;&gt;12003 -->
<g id="edge38" class="edge"><title>&#45;15&#45;&gt;12003</title>
<path fill="none" stroke="green" stroke-width="0.465631" d="M828.148,-801.969C831.146,-791.688 836.472,-773.425 841.307,-756.847"/>
<polygon fill="green" stroke="green" stroke-width="0.465631" points="844.789,-757.409 844.228,-746.829 838.069,-755.45 844.789,-757.409"/>
</g>
<!-- &#45;16 -->
<g id="node16" class="node"><title>&#45;16</title>
<polygon fill="lightgray" stroke="black" points="746.249,-461.236 717.249,-461.236 717.249,-443.236 746.249,-443.236 746.249,-461.236"/>
<text text-anchor="middle" x="731.749" y="-450.036" font-family="Times,serif" font-size="9.00">&#45;16</text>
</g>
<!-- &#45;16&#45;&gt;5851 -->
<g id="edge10" class="edge"><title>&#45;16&#45;&gt;5851</title>
<path fill="none" stroke="green" stroke-width="1.01342" stroke-dasharray="1,5" d="M735.717,-443.008C741.155,-431.733 751.224,-410.858 759.772,-393.134"/>
<polygon fill="green" stroke="green" stroke-width="1.01342" points="763.134,-394.22 764.326,-383.692 756.829,-391.179 763.134,-394.22"/>
</g>
<!-- &#45;17 -->
<g id="node17" class="node"><title>&#45;17</title>
<polygon fill="lightgray" stroke="black" points="846.249,-640.716 817.249,-640.716 817.249,-622.716 846.249,-622.716 846.249,-640.716"/>
<text text-anchor="middle" x="831.749" y="-629.516" font-family="Times,serif" font-size="9.00">&#45;17</text>
</g>
<!-- 12626 -->
<g id="node43" class="node"><title>12626</title>
<ellipse fill="white" stroke="black" cx="830.749" cy="-543.39" rx="27.6545" ry="27.6545"/>
<text text-anchor="middle" x="830.749" y="-541.19" font-family="Times,serif" font-size="9.00">12626</text>
</g>
<!-- &#45;17&#45;&gt;12626 -->
<g id="edge40" class="edge"><title>&#45;17&#45;&gt;12626</title>
<path fill="none" stroke="red" stroke-width="0.508525" d="M831.653,-622.439C831.542,-612.907 831.353,-596.595 831.177,-581.341"/>
<polygon fill="red" stroke="red" stroke-width="0.508525" points="834.673,-581.004 831.058,-571.045 827.674,-581.085 834.673,-581.004"/>
</g>
<!-- &#45;18 -->
<g id="node18" class="node"><title>&#45;18</title>
<polygon fill="lightgray" stroke="black" points="1282.25,-898.623 1253.25,-898.623 1253.25,-880.623 1282.25,-880.623 1282.25,-898.623"/>
<text text-anchor="middle" x="1267.75" y="-887.423" font-family="Times,serif" font-size="9.00">&#45;18</text>
</g>
<!-- &#45;19 -->
<g id="node19" class="node"><title>&#45;19</title>
<polygon fill="lightgray" stroke="black" points="1329.25,-898.623 1300.25,-898.623 1300.25,-880.623 1329.25,-880.623 1329.25,-898.623"/>
<text text-anchor="middle" x="1314.75" y="-887.423" font-family="Times,serif" font-size="9.00">&#45;19</text>
</g>
<!-- &#45;20 -->
<g id="node20" class="node"><title>&#45;20</title>
<polygon fill="lightgray" stroke="black" points="789.249,-729.042 760.249,-729.042 760.249,-711.042 789.249,-711.042 789.249,-729.042"/>
<text text-anchor="middle" x="774.749" y="-717.842" font-family="Times,serif" font-size="9.00">&#45;20</text>
</g>
<!-- 9704 -->
<g id="node46" class="node"><title>9704</title>
<ellipse fill="white" stroke="black" cx="774.749" cy="-631.716" rx="25" ry="25"/>
<text text-anchor="middle" x="774.749" y="-629.516" font-family="Times,serif" font-size="9.00">9704</text>
</g>
<!-- &#45;20&#45;&gt;9704 -->
<g id="edge58" class="edge"><title>&#45;20&#45;&gt;9704</title>
<path fill="none" stroke="green" stroke-width="0.921403" d="M774.749,-710.765C774.749,-700.657 774.749,-682.924 774.749,-666.913"/>
<polygon fill="green" stroke="green" stroke-width="0.921403" points="778.249,-666.738 774.749,-656.738 771.249,-666.738 778.249,-666.738"/>
</g>
<!-- &#45;21 -->
<g id="node21" class="node"><title>&#45;21</title>
<polygon fill="lightgray" stroke="black" points="1376.25,-898.623 1347.25,-898.623 1347.25,-880.623 1376.25,-880.623 1376.25,-898.623"/>
<text text-anchor="middle" x="1361.75" y="-887.423" font-family="Times,serif" font-size="9.00">&#45;21</text>
</g>
<!-- &#45;22 -->
<g id="node22" class="node"><title>&#45;22</title>
<polygon fill="lightgray" stroke="black" points="1423.25,-898.623 1394.25,-898.623 1394.25,-880.623 1423.25,-880.623 1423.25,-898.623"/>
<text text-anchor="middle" x="1408.75" y="-887.423" font-family="Times,serif" font-size="9.00">&#45;22</text>
</g>
<!-- &#45;23 -->
<g id="node23" class="node"><title>&#45;23</title>
<polygon fill="lightgray" stroke="black" points="1470.25,-898.623 1441.25,-898.623 1441.25,-880.623 1470.25,-880.623 1470.25,-898.623"/>
<text text-anchor="middle" x="1455.75" y="-887.423" font-family="Times,serif" font-size="9.00">&#45;23</text>
</g>
<!-- &#45;24 -->
<g id="node24" class="node"><title>&#45;24</title>
<polygon fill="lightgray" stroke="black" points="1517.25,-898.623 1488.25,-898.623 1488.25,-880.623 1517.25,-880.623 1517.25,-898.623"/>
<text text-anchor="middle" x="1502.75" y="-887.423" font-family="Times,serif" font-size="9.00">&#45;24</text>
</g>
<!-- 0 -->
<g id="node25" class="node"><title>0</title>
<ellipse fill="lightblue" stroke="black" cx="1549.75" cy="-889.623" rx="14.7" ry="14.7"/>
<text text-anchor="middle" x="1549.75" y="-887.423" font-family="Times,serif" font-size="9.00">0</text>
</g>
<!-- 2&#45;&gt;2831 -->
<g id="edge55" class="edge"><title>2&#45;&gt;2831</title>
<path fill="none" stroke="red" stroke-width="0.464436" stroke-dasharray="1,5" d="M202.754,-347.471C221.554,-309.611 283.396,-196.753 372.749,-151.196 432.653,-120.653 634.139,-101.056 715.868,-94.1904"/>
<polygon fill="red" stroke="red" stroke-width="0.464436" points="716.451,-97.6543 726.128,-93.3427 715.874,-90.678 716.451,-97.6543"/>
</g>
<!-- 2&#45;&gt;6507 -->
<g id="edge6" class="edge"><title>2&#45;&gt;6507</title>
<path fill="none" stroke="green" stroke-width="0.56718" d="M210.205,-354.369C243.081,-340.412 328.204,-304.273 374.915,-284.442"/>
<polygon fill="green" stroke="green" stroke-width="0.56718" points="376.429,-287.602 384.267,-280.472 373.694,-281.158 376.429,-287.602"/>
</g>
<!-- 3 -->
<g id="node28" class="node"><title>3</title>
<ellipse fill="lightblue" stroke="black" cx="1597.75" cy="-889.623" rx="14.7" ry="14.7"/>
<text text-anchor="middle" x="1597.75" y="-887.423" font-family="Times,serif" font-size="9.00">3</text>
</g>
<!-- 14216 -->
<g id="node29" class="node"><title>14216</title>
<ellipse fill="white" stroke="black" cx="661.749" cy="-361.082" rx="27.6545" ry="27.6545"/>
<text text-anchor="middle" x="661.749" y="-358.882" font-family="Times,serif" font-size="9.00">14216</text>
</g>
<!-- 14216&#45;&gt;6074 -->
<g id="edge57" class="edge"><title>14216&#45;&gt;6074</title>
<path fill="none" stroke="red" stroke-width="0.899036" d="M676.385,-337.584C683.892,-326.045 693.117,-311.864 701.126,-299.553"/>
<polygon fill="red" stroke="red" stroke-width="0.899036" points="704.181,-301.275 706.701,-290.984 698.314,-297.458 704.181,-301.275"/>
</g>
<!-- 14216&#45;&gt;6507 -->
<g id="edge22" class="edge"><title>14216&#45;&gt;6507</title>
<path fill="none" stroke="green" stroke-width="1.01122" d="M639.29,-344.258C633.144,-340.382 626.352,-336.493 619.749,-333.505 559.25,-306.126 483.705,-287.256 440.77,-277.842"/>
<polygon fill="green" stroke="green" stroke-width="1.01122" points="441.354,-274.388 430.841,-275.707 439.882,-281.231 441.354,-274.388"/>
</g>
<!-- 13193 -->
<g id="node30" class="node"><title>13193</title>
<ellipse fill="white" stroke="black" cx="521.749" cy="-452.236" rx="27.6545" ry="27.6545"/>
<text text-anchor="middle" x="521.749" y="-450.036" font-family="Times,serif" font-size="9.00">13193</text>
</g>
<!-- 10705 -->
<g id="node42" class="node"><title>10705</title>
<ellipse fill="white" stroke="black" cx="549.749" cy="-361.082" rx="27.6545" ry="27.6545"/>
<text text-anchor="middle" x="549.749" y="-358.882" font-family="Times,serif" font-size="9.00">10705</text>
</g>
<!-- 13193&#45;&gt;10705 -->
<g id="edge54" class="edge"><title>13193&#45;&gt;10705</title>
<path fill="none" stroke="green" stroke-width="0.223114" d="M529.847,-425.449C532.629,-416.594 535.79,-406.528 538.761,-397.067"/>
<polygon fill="green" stroke="green" stroke-width="0.223114" points="542.108,-398.092 541.765,-387.503 535.429,-395.995 542.108,-398.092"/>
</g>
<!-- 15758 -->
<g id="node31" class="node"><title>15758</title>
<ellipse fill="white" stroke="black" cx="830.749" cy="-452.236" rx="27.6545" ry="27.6545"/>
<text text-anchor="middle" x="830.749" y="-450.036" font-family="Times,serif" font-size="9.00">15758</text>
</g>
<!-- 15758&#45;&gt;5851 -->
<g id="edge51" class="edge"><title>15758&#45;&gt;5851</title>
<path fill="none" stroke="red" stroke-width="0.625157" d="M816.327,-428.277C809.251,-417.012 800.649,-403.316 793.109,-391.312"/>
<polygon fill="red" stroke="red" stroke-width="0.625157" points="795.876,-389.137 787.593,-382.53 789.948,-392.86 795.876,-389.137"/>
</g>
<!-- 2831&#45;&gt;1 -->
<g id="edge7" class="edge"><title>2831&#45;&gt;1</title>
<path fill="none" stroke="red" stroke-width="0.448243" d="M726.182,-86.7405C621.379,-75.1937 212.268,-30.1193 107.367,-18.5616"/>
<polygon fill="red" stroke="red" stroke-width="0.448243" points="107.723,-15.0797 97.3994,-17.4634 106.956,-22.0376 107.723,-15.0797"/>
</g>
<!-- 14355 -->
<g id="node33" class="node"><title>14355</title>
<ellipse fill="white" stroke="black" cx="971.749" cy="-178.773" rx="27.6545" ry="27.6545"/>
<text text-anchor="middle" x="971.749" y="-176.573" font-family="Times,serif" font-size="9.00">14355</text>
</g>
<!-- 14355&#45;&gt;2831 -->
<g id="edge47" class="edge"><title>14355&#45;&gt;2831</title>
<path fill="none" stroke="red" stroke-width="0.850516" d="M949.215,-162.112C943.07,-158.234 936.297,-154.304 929.749,-151.196 881.052,-128.082 821.012,-109.999 784.324,-100.027"/>
<polygon fill="red" stroke="red" stroke-width="0.850516" points="785.189,-96.6355 774.624,-97.4323 783.38,-103.398 785.189,-96.6355"/>
</g>
<!-- 2197&#45;&gt;1 -->
<g id="edge21" class="edge"><title>2197&#45;&gt;1</title>
<path fill="none" stroke="green" stroke-width="0.835834" d="M27.284,-336.242C32.8615,-285.909 47.4196,-165.241 68.7487,-65.6985 70.6292,-56.9225 73.1724,-47.4094 75.5753,-39.0691"/>
<polygon fill="green" stroke="green" stroke-width="0.835834" points="78.992,-39.8583 78.4836,-29.2757 72.2816,-37.8655 78.992,-39.8583"/>
</g>
<!-- 4505&#45;&gt;2831 -->
<g id="edge29" class="edge"><title>4505&#45;&gt;2831</title>
<path fill="none" stroke="red" stroke-width="1.30455" d="M430.665,-171.771C490.665,-156.715 647.711,-117.304 717.033,-99.908"/>
<polygon fill="red" stroke="red" stroke-width="1.30455" points="718.143,-103.238 726.991,-97.4092 716.44,-96.4486 718.143,-103.238"/>
</g>
<!-- 7718 -->
<g id="node36" class="node"><title>7718</title>
<ellipse fill="white" stroke="black" cx="451.749" cy="-452.236" rx="25" ry="25"/>
<text text-anchor="middle" x="451.749" y="-450.036" font-family="Times,serif" font-size="9.00">7718</text>
</g>
<!-- 12339 -->
<g id="node37" class="node"><title>12339</title>
<ellipse fill="white" stroke="black" cx="476.749" cy="-361.082" rx="27.6545" ry="27.6545"/>
<text text-anchor="middle" x="476.749" y="-358.882" font-family="Times,serif" font-size="9.00">12339</text>
</g>
<!-- 7718&#45;&gt;12339 -->
<g id="edge16" class="edge"><title>7718&#45;&gt;12339</title>
<path fill="none" stroke="red" stroke-width="0.946126" d="M458.187,-428.277C460.818,-418.893 463.922,-407.823 466.831,-397.449"/>
<polygon fill="red" stroke="red" stroke-width="0.946126" points="470.209,-398.368 469.539,-387.794 463.469,-396.478 470.209,-398.368"/>
</g>
<!-- 7718&#45;&gt;10705 -->
<g id="edge56" class="edge"><title>7718&#45;&gt;10705</title>
<path fill="none" stroke="red" stroke-width="0.201426" stroke-dasharray="1,5" d="M469.723,-434.884C484.254,-421.664 504.969,-402.819 521.682,-387.615"/>
<polygon fill="red" stroke="red" stroke-width="0.201426" points="524.479,-389.802 529.521,-380.484 519.769,-384.624 524.479,-389.802"/>
</g>
<!-- 12339&#45;&gt;6507 -->
<g id="edge26" class="edge"><title>12339&#45;&gt;6507</title>
<path fill="none" stroke="green" stroke-width="0.951997" d="M460.16,-338.953C450.542,-326.704 438.331,-311.152 428.013,-298.011"/>
<polygon fill="green" stroke="green" stroke-width="0.951997" points="430.481,-295.486 421.552,-289.782 424.975,-299.809 430.481,-295.486"/>
</g>
<!-- 6074&#45;&gt;2831 -->
<g id="edge31" class="edge"><title>6074&#45;&gt;2831</title>
<path fill="none" stroke="green" stroke-width="0.49312" d="M723.865,-245.359C729.239,-214.596 738.68,-160.545 744.823,-125.375"/>
<polygon fill="green" stroke="green" stroke-width="0.49312" points="748.342,-125.566 746.615,-115.113 741.447,-124.361 748.342,-125.566"/>
</g>
<!-- 6074&#45;&gt;4505 -->
<g id="edge30" class="edge"><title>6074&#45;&gt;4505</title>
<path fill="none" stroke="green" stroke-width="0.417329" d="M696.223,-262.226C641.276,-246.575 504.34,-207.571 440.503,-189.388"/>
<polygon fill="green" stroke="green" stroke-width="0.417329" points="441.124,-185.925 430.548,-186.552 439.206,-192.658 441.124,-185.925"/>
</g>
<!-- 13885&#45;&gt;12003 -->
<g id="edge36" class="edge"><title>13885&#45;&gt;12003</title>
<path fill="none" stroke="green" stroke-width="0.111067" d="M907.449,-789.068C897.903,-777.41 885.908,-762.76 875.496,-750.045"/>
<polygon fill="green" stroke="green" stroke-width="0.111067" points="877.968,-747.539 868.925,-742.019 872.552,-751.974 877.968,-747.539"/>
</g>
<!-- 9931&#45;&gt;6507 -->
<g id="edge20" class="edge"><title>9931&#45;&gt;6507</title>
<path fill="none" stroke="red" stroke-width="1.54332" d="M406.749,-336.19C406.749,-326.596 406.749,-315.36 406.749,-304.941"/>
<polygon fill="red" stroke="red" stroke-width="1.54332" points="410.249,-304.885 406.749,-294.885 403.249,-304.885 410.249,-304.885"/>
</g>
<!-- 13519&#45;&gt;14216 -->
<g id="edge39" class="edge"><title>13519&#45;&gt;14216</title>
<path fill="none" stroke="red" stroke-width="0.456682" d="M610.968,-429.654C619.464,-418.349 630.002,-404.326 639.272,-391.99"/>
<polygon fill="red" stroke="red" stroke-width="0.456682" points="642.237,-393.871 645.447,-383.774 636.641,-389.665 642.237,-393.871"/>
</g>
<!-- 13519&#45;&gt;6507 -->
<g id="edge9" class="edge"><title>13519&#45;&gt;6507</title>
<path fill="none" stroke="red" stroke-width="1.12041" stroke-dasharray="1,5" d="M600.609,-424.977C604.791,-399.034 606.639,-359.559 586.749,-333.505 552.418,-288.534 483.633,-275.721 441.743,-272.17"/>
<polygon fill="red" stroke="red" stroke-width="1.12041" points="441.935,-268.674 431.711,-271.452 441.435,-275.657 441.935,-268.674"/>
</g>
<!-- 10705&#45;&gt;6507 -->
<g id="edge5" class="edge"><title>10705&#45;&gt;6507</title>
<path fill="none" stroke="green" stroke-width="0.222215" d="M528.313,-343.679C523.583,-340.222 518.549,-336.667 513.749,-333.505 488.433,-316.826 458.577,-299.553 436.845,-287.392"/>
<polygon fill="green" stroke="green" stroke-width="0.222215" points="438.505,-284.311 428.065,-282.509 435.103,-290.428 438.505,-284.311"/>
</g>
<!-- 12626&#45;&gt;15758 -->
<g id="edge23" class="edge"><title>12626&#45;&gt;15758</title>
<path fill="none" stroke="green" stroke-width="0.381759" d="M830.749,-515.641C830.749,-507.619 830.749,-498.674 830.749,-490.12"/>
<polygon fill="green" stroke="green" stroke-width="0.381759" points="834.249,-489.966 830.749,-479.966 827.249,-489.967 834.249,-489.966"/>
</g>
<!-- 12626&#45;&gt;13519 -->
<g id="edge4" class="edge"><title>12626&#45;&gt;13519</title>
<path fill="none" stroke="green" stroke-width="1.27697" d="M805.043,-532.68C762.661,-516.669 678.047,-484.704 630.075,-466.581"/>
<polygon fill="green" stroke="green" stroke-width="1.27697" points="631.014,-463.195 620.422,-462.935 628.54,-469.743 631.014,-463.195"/>
</g>
<!-- 12626&#45;&gt;5851 -->
<g id="edge24" class="edge"><title>12626&#45;&gt;5851</title>
<path fill="none" stroke="red" stroke-width="1.24882" d="M847.152,-521.047C863.695,-496.719 884.564,-456.241 867.749,-424.659 855.059,-400.825 828.805,-384.444 807.419,-374.439"/>
<polygon fill="red" stroke="red" stroke-width="1.24882" points="808.563,-371.119 798.001,-370.287 805.739,-377.524 808.563,-371.119"/>
</g>
<!-- 5851&#45;&gt;2831 -->
<g id="edge34" class="edge"><title>5851&#45;&gt;2831</title>
<path fill="none" stroke="red" stroke-width="0.101464" d="M772.619,-336.242C768.34,-288.351 758.69,-180.336 753.765,-125.204"/>
<polygon fill="red" stroke="red" stroke-width="0.101464" points="757.25,-124.882 752.874,-115.233 750.278,-125.505 757.25,-124.882"/>
</g>
<!-- 5851&#45;&gt;6074 -->
<g id="edge18" class="edge"><title>5851&#45;&gt;6074</title>
<path fill="none" stroke="red" stroke-width="0.383902" stroke-dasharray="1,5" d="M761.992,-339.404C754.773,-327.701 745.629,-312.879 737.696,-300.02"/>
<polygon fill="red" stroke="red" stroke-width="0.383902" points="740.665,-298.166 732.436,-291.493 734.708,-301.842 740.665,-298.166"/>
</g>
<!-- 12003&#45;&gt;2831 -->
<g id="edge45" class="edge"><title>12003&#45;&gt;2831</title>
<path fill="none" stroke="red" stroke-width="0.734315" stroke-dasharray="1,5" d="M859.889,-693.637C875.167,-642.392 904.939,-523.13 885.749,-424.659 862.79,-306.851 798.151,-178.019 767.403,-121.194"/>
<polygon fill="red" stroke="red" stroke-width="0.734315" points="770.459,-119.488 762.595,-112.388 764.315,-122.842 770.459,-119.488"/>
</g>
<!-- 12003&#45;&gt;9704 -->
<g id="edge27" class="edge"><title>12003&#45;&gt;9704</title>
<path fill="none" stroke="green" stroke-width="1.31693" d="M833.89,-699.02C823.147,-686.976 809.36,-671.519 797.8,-658.559"/>
<polygon fill="green" stroke="green" stroke-width="1.31693" points="800.206,-655.999 790.937,-650.866 794.982,-660.658 800.206,-655.999"/>
</g>
<!-- 9704&#45;&gt;12626 -->
<g id="edge11" class="edge"><title>9704&#45;&gt;12626</title>
<path fill="none" stroke="green" stroke-width="0.269288" d="M788.02,-610.258C794.773,-599.849 803.123,-586.976 810.646,-575.38"/>
<polygon fill="green" stroke="green" stroke-width="0.269288" points="813.69,-577.118 816.196,-566.823 807.818,-573.308 813.69,-577.118"/>
</g>
<!-- 9704&#45;&gt;5851 -->
<g id="edge15" class="edge"><title>9704&#45;&gt;5851</title>
<path fill="none" stroke="green" stroke-width="1.44885" d="M774.749,-606.877C774.749,-559.085 774.749,-451.42 774.749,-396.183"/>
<polygon fill="green" stroke="green" stroke-width="1.44885" points="778.249,-395.868 774.749,-385.868 771.249,-395.868 778.249,-395.868"/>
</g>
<!-- 10472 -->
<g id="node47" class="node"><title>10472</title>
<ellipse fill="white" stroke="black" cx="703.749" cy="-543.39" rx="27.6545" ry="27.6545"/>
<text text-anchor="middle" x="703.749" y="-541.19" font-family="Times,serif" font-size="9.00">10472</text>
</g>
<!-- 9704&#45;&gt;10472 -->
<g id="edge53" class="edge"><title>9704&#45;&gt;10472</title>
<path fill="none" stroke="red" stroke-width="0.599859" d="M759.343,-611.985C750.042,-600.676 737.997,-586.032 727.498,-573.267"/>
<polygon fill="red" stroke="red" stroke-width="0.599859" points="729.922,-570.703 720.867,-565.203 724.516,-575.15 729.922,-570.703"/>
</g>
<!-- 10472&#45;&gt;5851 -->
<g id="edge14" class="edge"><title>10472&#45;&gt;5851</title>
<path fill="none" stroke="green" stroke-width="0.806762" stroke-dasharray="1,5" d="M699.058,-515.827C695.947,-491.067 694.543,-453.702 707.749,-424.659 712.278,-414.698 731.27,-397.384 747.883,-383.49"/>
<polygon fill="green" stroke="green" stroke-width="0.806762" points="750.279,-386.051 755.773,-376.992 745.829,-380.648 750.279,-386.051"/>
</g>
<!-- 6507&#45;&gt;4505 -->
<g id="edge42" class="edge"><title>6507&#45;&gt;4505</title>
<path fill="none" stroke="green" stroke-width="0.135721" stroke-dasharray="1,5" d="M406.749,-245.036C406.749,-235.442 406.749,-224.206 406.749,-213.787"/>
<polygon fill="green" stroke="green" stroke-width="0.135721" points="410.249,-213.731 406.749,-203.731 403.249,-213.731 410.249,-213.731"/>
</g>
<!-- 10861&#45;&gt;2831 -->
<g id="edge44" class="edge"><title>10861&#45;&gt;2831</title>
<path fill="none" stroke="green" stroke-width="0.400033" d="M958.118,-245.664C940.066,-215.467 908.557,-164.994 891.749,-151.196 859.902,-125.052 814.938,-108.665 784.411,-99.8027"/>
<polygon fill="green" stroke="green" stroke-width="0.400033" points="785.225,-96.396 774.652,-97.0826 783.345,-103.139 785.225,-96.396"/>
</g>
<!-- 10861&#45;&gt;14355 -->
<g id="edge49" class="edge"><title>10861&#45;&gt;14355</title>
<path fill="none" stroke="green" stroke-width="0.322351" d="M971.749,-242.178C971.749,-234.156 971.749,-225.211 971.749,-216.657"/>
<polygon fill="green" stroke="green" stroke-width="0.322351" points="975.249,-216.503 971.749,-206.503 968.249,-216.504 975.249,-216.503"/>
</g>
</g>
</svg>
