<?xml version="1.0" encoding="UTF-8" standalone="no"?>
<!DOCTYPE svg PUBLIC "-//W3C//DTD SVG 1.1//EN"
 "http://www.w3.org/Graphics/SVG/1.1/DTD/svg11.dtd">
<!-- Generated by graphviz version 2.38.0 (20140413.2041)
 -->
<!-- Title: %3 Pages: 1 -->
<svg width="1386pt" height="203pt"
 viewBox="0.00 0.00 1386.50 202.65" xmlns="http://www.w3.org/2000/svg" xmlns:xlink="http://www.w3.org/1999/xlink">
<g id="graph0" class="graph" transform="scale(1 1) rotate(0) translate(4 198.652)">
<title>%3</title>
<polygon fill="white" stroke="none" points="-4,4 -4,-198.652 1382.5,-198.652 1382.5,4 -4,4"/>
<!-- &#45;1 -->
<g id="node1" class="node"><title>&#45;1</title>
<polygon fill="lightgray" stroke="black" points="205.749,-194.652 181.749,-194.652 181.749,-176.652 205.749,-176.652 205.749,-194.652"/>
<text text-anchor="middle" x="193.749" y="-183.452" font-family="Times,serif" font-size="9.00">&#45;1</text>
</g>
<!-- 0 -->
<g id="node25" class="node"><title>0</title>
<ellipse fill="lightblue" stroke="black" cx="747.749" cy="-24.7487" rx="14.7" ry="14.7"/>
<text text-anchor="middle" x="747.749" y="-22.5487" font-family="Times,serif" font-size="9.00">0</text>
</g>
<!-- &#45;1&#45;&gt;0 -->
<g id="edge11" class="edge"><title>&#45;1&#45;&gt;0</title>
<path fill="none" stroke="red" stroke-width="0.387499" stroke-dasharray="1,5" d="M205.969,-183.196C220.284,-181.514 244.72,-178.712 265.749,-176.652 359.859,-167.43 611.386,-193.577 689.749,-140.652 720.973,-119.563 736.227,-76.4061 743.003,-49.4009"/>
<polygon fill="red" stroke="red" stroke-width="0.387499" points="746.429,-50.1212 745.271,-39.5898 739.609,-48.5448 746.429,-50.1212"/>
</g>
<!-- 1 -->
<g id="node26" class="node"><title>1</title>
<ellipse fill="lightblue" stroke="black" cx="356.749" cy="-24.7487" rx="14.7" ry="14.7"/>
<text text-anchor="middle" x="356.749" y="-22.5487" font-family="Times,serif" font-size="9.00">1</text>
</g>
<!-- &#45;1&#45;&gt;1 -->
<g id="edge14" class="edge"><title>&#45;1&#45;&gt;1</title>
<path fill="none" stroke="green" stroke-width="0.385215" d="M187.807,-176.6C175.257,-158.532 148.858,-114.104 169.749,-85.4975 207.39,-33.9547 290.026,-25.848 331.686,-25.2105"/>
<polygon fill="green" stroke="green" stroke-width="0.385215" points="331.818,-28.7104 341.812,-25.1928 331.806,-21.7104 331.818,-28.7104"/>
</g>
<!-- 3 -->
<g id="node28" class="node"><title>3</title>
<ellipse fill="lightblue" stroke="black" cx="464.749" cy="-24.7487" rx="14.7" ry="14.7"/>
<text text-anchor="middle" x="464.749" y="-22.5487" font-family="Times,serif" font-size="9.00">3</text>
</g>
<!-- &#45;1&#45;&gt;3 -->
<g id="edge44" class="edge"><title>&#45;1&#45;&gt;3</title>
<path fill="none" stroke="red" stroke-width="0.619908" stroke-dasharray="1,5" d="M197.826,-176.504C208.709,-155.062 238.761,-97.8655 255.749,-85.4975 308.732,-46.9225 336.061,-68.6157 398.749,-49.4975 413.127,-45.1126 428.984,-39.4348 441.551,-34.7304"/>
<polygon fill="red" stroke="red" stroke-width="0.619908" points="443.121,-37.8781 451.229,-31.0574 440.638,-31.3335 443.121,-37.8781"/>
</g>
<!-- 10026 -->
<g id="node30" class="node"><title>10026</title>
<ellipse fill="white" stroke="black" cx="94.7487" cy="-113.075" rx="27.6545" ry="27.6545"/>
<text text-anchor="middle" x="94.7487" y="-110.875" font-family="Times,serif" font-size="9.00">10026</text>
</g>
<!-- &#45;1&#45;&gt;10026 -->
<g id="edge37" class="edge"><title>&#45;1&#45;&gt;10026</title>
<path fill="none" stroke="green" stroke-width="0.616606" d="M182.392,-176.556C168.5,-166.652 144.438,-149.498 125.037,-135.667"/>
<polygon fill="green" stroke="green" stroke-width="0.616606" points="126.952,-132.734 116.778,-129.779 122.889,-138.434 126.952,-132.734"/>
</g>
<!-- &#45;2 -->
<g id="node2" class="node"><title>&#45;2</title>
<polygon fill="lightgray" stroke="black" points="1068.75,-122.075 1044.75,-122.075 1044.75,-104.075 1068.75,-104.075 1068.75,-122.075"/>
<text text-anchor="middle" x="1056.75" y="-110.875" font-family="Times,serif" font-size="9.00">&#45;2</text>
</g>
<!-- &#45;2&#45;&gt;0 -->
<g id="edge2" class="edge"><title>&#45;2&#45;&gt;0</title>
<path fill="none" stroke="red" stroke-width="0.358312" d="M1052.34,-103.82C1048.7,-97.8005 1042.95,-89.9476 1035.75,-85.4975 950.167,-32.6349 825.766,-25.7486 772.961,-25.3828"/>
<polygon fill="red" stroke="red" stroke-width="0.358312" points="772.817,-21.8827 762.82,-25.3895 772.822,-28.8827 772.817,-21.8827"/>
</g>
<!-- 2 -->
<g id="node27" class="node"><title>2</title>
<ellipse fill="lightblue" stroke="black" cx="1012.75" cy="-24.7487" rx="14.7" ry="14.7"/>
<text text-anchor="middle" x="1012.75" y="-22.5487" font-family="Times,serif" font-size="9.00">2</text>
</g>
<!-- &#45;2&#45;&gt;2 -->
<g id="edge34" class="edge"><title>&#45;2&#45;&gt;2</title>
<path fill="none" stroke="red" stroke-width="0.399069" stroke-dasharray="1,5" d="M1052.53,-103.797C1045.97,-90.9196 1033.1,-65.6674 1023.77,-47.3659"/>
<polygon fill="red" stroke="red" stroke-width="0.399069" points="1026.8,-45.604 1019.14,-38.284 1020.56,-48.7828 1026.8,-45.604"/>
</g>
<!-- &#45;3 -->
<g id="node3" class="node"><title>&#45;3</title>
<polygon fill="lightgray" stroke="black" points="1234.75,-122.075 1210.75,-122.075 1210.75,-104.075 1234.75,-104.075 1234.75,-122.075"/>
<text text-anchor="middle" x="1222.75" y="-110.875" font-family="Times,serif" font-size="9.00">&#45;3</text>
</g>
<!-- &#45;3&#45;&gt;2 -->
<g id="edge25" class="edge"><title>&#45;3&#45;&gt;2</title>
<path fill="none" stroke="red" stroke-width="0.41636" stroke-dasharray="1,5" d="M1218.21,-104.027C1214.49,-98.1157 1208.72,-90.3078 1201.75,-85.4975 1150.19,-49.9131 1076.4,-34.7247 1038.05,-28.9183"/>
<polygon fill="red" stroke="red" stroke-width="0.41636" points="1038.18,-25.4018 1027.79,-27.4626 1037.2,-32.3324 1038.18,-25.4018"/>
</g>
<!-- &#45;4 -->
<g id="node4" class="node"><title>&#45;4</title>
<polygon fill="lightgray" stroke="black" points="403.749,-122.075 379.749,-122.075 379.749,-104.075 403.749,-104.075 403.749,-122.075"/>
<text text-anchor="middle" x="391.749" y="-110.875" font-family="Times,serif" font-size="9.00">&#45;4</text>
</g>
<!-- &#45;4&#45;&gt;0 -->
<g id="edge39" class="edge"><title>&#45;4&#45;&gt;0</title>
<path fill="none" stroke="red" stroke-width="0.492682" stroke-dasharray="1,5" d="M396.118,-103.762C399.746,-97.7117 405.482,-89.8461 412.749,-85.4975 419.498,-81.4583 646.978,-42.7696 723.166,-29.8935"/>
<polygon fill="red" stroke="red" stroke-width="0.492682" points="723.987,-33.3045 733.264,-28.1883 722.821,-26.4022 723.987,-33.3045"/>
</g>
<!-- &#45;4&#45;&gt;1 -->
<g id="edge53" class="edge"><title>&#45;4&#45;&gt;1</title>
<path fill="none" stroke="green" stroke-width="0.120854" stroke-dasharray="1,5" d="M388.393,-103.797C383.253,-91.1214 373.253,-66.4557 365.864,-48.2312"/>
<polygon fill="green" stroke="green" stroke-width="0.120854" points="369.076,-46.8384 362.075,-38.8862 362.589,-49.4686 369.076,-46.8384"/>
</g>
<!-- &#45;4&#45;&gt;3 -->
<g id="edge22" class="edge"><title>&#45;4&#45;&gt;3</title>
<path fill="none" stroke="green" stroke-width="0.193916" stroke-dasharray="1,5" d="M398.269,-103.614C402.365,-98.3515 407.793,-91.4722 412.749,-85.4975 424.334,-71.5295 437.794,-56.0847 448.116,-44.3977"/>
<polygon fill="green" stroke="green" stroke-width="0.193916" points="450.991,-46.4311 455.007,-36.6267 445.753,-41.787 450.991,-46.4311"/>
</g>
<!-- &#45;5 -->
<g id="node5" class="node"><title>&#45;5</title>
<polygon fill="lightgray" stroke="black" points="445.749,-122.075 421.749,-122.075 421.749,-104.075 445.749,-104.075 445.749,-122.075"/>
<text text-anchor="middle" x="433.749" y="-110.875" font-family="Times,serif" font-size="9.00">&#45;5</text>
</g>
<!-- &#45;5&#45;&gt;0 -->
<g id="edge32" class="edge"><title>&#45;5&#45;&gt;0</title>
<path fill="none" stroke="red" stroke-width="2.16437" d="M438.149,-103.813C441.794,-97.7898 447.537,-89.9354 454.749,-85.4975 477.732,-71.3549 656.667,-40.7707 723.062,-29.7824"/>
<polygon fill="red" stroke="red" stroke-width="2.16437" points="723.76,-33.2147 733.058,-28.1357 722.622,-26.3078 723.76,-33.2147"/>
</g>
<!-- &#45;5&#45;&gt;1 -->
<g id="edge15" class="edge"><title>&#45;5&#45;&gt;1</title>
<path fill="none" stroke="red" stroke-width="0.311962" d="M427.672,-104.025C423.568,-98.6801 417.967,-91.5581 412.749,-85.4975 400.237,-70.9666 385.365,-55.1622 374.092,-43.4597"/>
<polygon fill="red" stroke="red" stroke-width="0.311962" points="376.41,-40.8225 366.937,-36.0793 371.385,-45.6951 376.41,-40.8225"/>
</g>
<!-- &#45;5&#45;&gt;3 -->
<g id="edge41" class="edge"><title>&#45;5&#45;&gt;3</title>
<path fill="none" stroke="green" stroke-width="0.265727" stroke-dasharray="1,5" d="M436.721,-103.797C441.252,-91.18 450.049,-66.6838 456.584,-48.4847"/>
<polygon fill="green" stroke="green" stroke-width="0.265727" points="459.945,-49.4807 460.031,-38.8862 453.357,-47.1148 459.945,-49.4807"/>
</g>
<!-- &#45;6 -->
<g id="node6" class="node"><title>&#45;6</title>
<polygon fill="lightgray" stroke="black" points="1297.75,-194.652 1273.75,-194.652 1273.75,-176.652 1297.75,-176.652 1297.75,-194.652"/>
<text text-anchor="middle" x="1285.75" y="-183.452" font-family="Times,serif" font-size="9.00">&#45;6</text>
</g>
<!-- &#45;6&#45;&gt;2 -->
<g id="edge50" class="edge"><title>&#45;6&#45;&gt;2</title>
<path fill="none" stroke="green" stroke-width="0.175334" d="M1284.75,-176.57C1281.96,-157.637 1272.35,-110.159 1243.75,-85.4975 1183.63,-33.6554 1084.07,-25.9477 1037.81,-25.349"/>
<polygon fill="green" stroke="green" stroke-width="0.175334" points="1037.77,-21.849 1027.76,-25.323 1037.75,-28.8489 1037.77,-21.849"/>
</g>
<!-- 9899 -->
<g id="node31" class="node"><title>9899</title>
<ellipse fill="white" stroke="black" cx="1353.75" cy="-113.075" rx="25" ry="25"/>
<text text-anchor="middle" x="1353.75" y="-110.875" font-family="Times,serif" font-size="9.00">9899</text>
</g>
<!-- &#45;6&#45;&gt;9899 -->
<g id="edge57" class="edge"><title>&#45;6&#45;&gt;9899</title>
<path fill="none" stroke="green" stroke-width="0.649965" d="M1293.55,-176.556C1302.36,-167.415 1317.11,-152.098 1329.81,-138.918"/>
<polygon fill="green" stroke="green" stroke-width="0.649965" points="1332.57,-141.097 1336.99,-131.467 1327.53,-136.24 1332.57,-141.097"/>
</g>
<!-- &#45;7 -->
<g id="node7" class="node"><title>&#45;7</title>
<polygon fill="lightgray" stroke="black" points="1026.75,-122.075 1002.75,-122.075 1002.75,-104.075 1026.75,-104.075 1026.75,-122.075"/>
<text text-anchor="middle" x="1014.75" y="-110.875" font-family="Times,serif" font-size="9.00">&#45;7</text>
</g>
<!-- &#45;7&#45;&gt;1 -->
<g id="edge31" class="edge"><title>&#45;7&#45;&gt;1</title>
<path fill="none" stroke="green" stroke-width="0.324325" stroke-dasharray="1,5" d="M1010.8,-104.036C1007.27,-97.7945 1001.45,-89.5439 993.749,-85.4975 884.719,-28.2426 562.117,-70.3649 440.749,-49.4975 420.043,-45.9374 397.129,-39.2686 380.471,-33.902"/>
<polygon fill="green" stroke="green" stroke-width="0.324325" points="381.107,-30.426 370.513,-30.6093 378.909,-37.072 381.107,-30.426"/>
</g>
<!-- 6941 -->
<g id="node34" class="node"><title>6941</title>
<ellipse fill="white" stroke="black" cx="1238.75" cy="-24.7487" rx="25" ry="25"/>
<text text-anchor="middle" x="1238.75" y="-22.5487" font-family="Times,serif" font-size="9.00">6941</text>
</g>
<!-- &#45;7&#45;&gt;6941 -->
<g id="edge13" class="edge"><title>&#45;7&#45;&gt;6941</title>
<path fill="none" stroke="red" stroke-width="0.17733" d="M1019.26,-103.987C1022.96,-98.0547 1028.73,-90.2381 1035.75,-85.4975 1087.95,-50.2322 1161.29,-35.4031 1204.04,-29.455"/>
<polygon fill="red" stroke="red" stroke-width="0.17733" points="1204.75,-32.8916 1214.22,-28.1271 1203.85,-25.9504 1204.75,-32.8916"/>
</g>
<!-- &#45;8 -->
<g id="node8" class="node"><title>&#45;8</title>
<polygon fill="lightgray" stroke="black" points="799.749,-122.075 775.749,-122.075 775.749,-104.075 799.749,-104.075 799.749,-122.075"/>
<text text-anchor="middle" x="787.749" y="-110.875" font-family="Times,serif" font-size="9.00">&#45;8</text>
</g>
<!-- &#45;8&#45;&gt;0 -->
<g id="edge58" class="edge"><title>&#45;8&#45;&gt;0</title>
<path fill="none" stroke="red" stroke-width="0.479043" stroke-dasharray="1,5" d="M783.913,-103.797C777.979,-90.9911 766.375,-65.9476 757.907,-47.6716"/>
<polygon fill="red" stroke="red" stroke-width="0.479043" points="761.076,-46.1856 753.696,-38.5837 754.725,-49.1285 761.076,-46.1856"/>
</g>
<!-- &#45;9 -->
<g id="node9" class="node"><title>&#45;9</title>
<polygon fill="lightgray" stroke="black" points="936.749,-122.075 912.749,-122.075 912.749,-104.075 936.749,-104.075 936.749,-122.075"/>
<text text-anchor="middle" x="924.749" y="-110.875" font-family="Times,serif" font-size="9.00">&#45;9</text>
</g>
<!-- &#45;9&#45;&gt;0 -->
<g id="edge38" class="edge"><title>&#45;9&#45;&gt;0</title>
<path fill="none" stroke="red" stroke-width="1.12231" d="M919.967,-103.9C916.202,-98.0798 910.477,-90.4436 903.749,-85.4975 862.811,-55.402 804.844,-38.5156 772.328,-30.8539"/>
<polygon fill="red" stroke="red" stroke-width="1.12231" points="772.863,-27.3868 762.338,-28.6035 771.325,-34.2157 772.863,-27.3868"/>
</g>
<!-- &#45;9&#45;&gt;2 -->
<g id="edge4" class="edge"><title>&#45;9&#45;&gt;2</title>
<path fill="none" stroke="red" stroke-width="0.434669" d="M931.007,-103.91C935.26,-98.5167 941.117,-91.3838 946.749,-85.4975 961.791,-69.7744 980.248,-53.2753 993.816,-41.6085"/>
<polygon fill="red" stroke="red" stroke-width="0.434669" points="996.211,-44.166 1001.56,-35.019 991.674,-38.8355 996.211,-44.166"/>
</g>
<!-- &#45;10 -->
<g id="node10" class="node"><title>&#45;10</title>
<polygon fill="lightgray" stroke="black" points="634.249,-122.075 605.249,-122.075 605.249,-104.075 634.249,-104.075 634.249,-122.075"/>
<text text-anchor="middle" x="619.749" y="-110.875" font-family="Times,serif" font-size="9.00">&#45;10</text>
</g>
<!-- &#45;10&#45;&gt;0 -->
<g id="edge9" class="edge"><title>&#45;10&#45;&gt;0</title>
<path fill="none" stroke="green" stroke-width="0.467618" d="M625.569,-103.988C629.886,-98.3583 636.146,-90.918 642.749,-85.4975 668.475,-64.3779 702.655,-46.4822 724.922,-35.9293"/>
<polygon fill="green" stroke="green" stroke-width="0.467618" points="726.638,-38.9914 734.241,-31.6122 723.696,-32.6398 726.638,-38.9914"/>
</g>
<!-- &#45;10&#45;&gt;3 -->
<g id="edge12" class="edge"><title>&#45;10&#45;&gt;3</title>
<path fill="none" stroke="red" stroke-width="0.153309" stroke-dasharray="1,5" d="M613.757,-103.817C609.29,-98.1065 602.771,-90.6401 595.749,-85.4975 561.772,-60.6145 515.779,-42.6052 488.301,-33.1994"/>
<polygon fill="red" stroke="red" stroke-width="0.153309" points="489.334,-29.8545 478.74,-30.0194 487.124,-36.4967 489.334,-29.8545"/>
</g>
<!-- &#45;11 -->
<g id="node11" class="node"><title>&#45;11</title>
<polygon fill="lightgray" stroke="black" points="847.249,-122.075 818.249,-122.075 818.249,-104.075 847.249,-104.075 847.249,-122.075"/>
<text text-anchor="middle" x="832.749" y="-110.875" font-family="Times,serif" font-size="9.00">&#45;11</text>
</g>
<!-- &#45;11&#45;&gt;0 -->
<g id="edge18" class="edge"><title>&#45;11&#45;&gt;0</title>
<path fill="none" stroke="green" stroke-width="0.542663" stroke-dasharray="1,5" d="M825.733,-104.05C821.012,-98.7157 814.605,-91.5961 808.749,-85.4975 794.599,-70.7618 778.006,-54.5763 765.701,-42.7723"/>
<polygon fill="green" stroke="green" stroke-width="0.542663" points="767.952,-40.0825 758.302,-35.7074 763.117,-45.145 767.952,-40.0825"/>
</g>
<!-- &#45;11&#45;&gt;2 -->
<g id="edge48" class="edge"><title>&#45;11&#45;&gt;2</title>
<path fill="none" stroke="red" stroke-width="0.438652" stroke-dasharray="1,5" d="M838.325,-103.666C842.527,-97.8844 848.749,-90.3951 855.749,-85.4975 897.612,-56.205 955.707,-39.0226 988.21,-31.094"/>
<polygon fill="red" stroke="red" stroke-width="0.438652" points="989.253,-34.4444 998.191,-28.7557 987.657,-27.6289 989.253,-34.4444"/>
</g>
<!-- 8619 -->
<g id="node32" class="node"><title>8619</title>
<ellipse fill="white" stroke="black" cx="572.749" cy="-24.7487" rx="25" ry="25"/>
<text text-anchor="middle" x="572.749" y="-22.5487" font-family="Times,serif" font-size="9.00">8619</text>
</g>
<!-- &#45;11&#45;&gt;8619 -->
<g id="edge7" class="edge"><title>&#45;11&#45;&gt;8619</title>
<path fill="none" stroke="green" stroke-width="0.263281" d="M827.391,-103.917C823.053,-97.9484 816.417,-90.1166 808.749,-85.4975 744.629,-46.8756 656.275,-33.0959 607.907,-28.2707"/>
<polygon fill="green" stroke="green" stroke-width="0.263281" points="607.926,-24.7576 597.646,-27.3227 607.282,-31.728 607.926,-24.7576"/>
</g>
<!-- &#45;12 -->
<g id="node12" class="node"><title>&#45;12</title>
<polygon fill="lightgray" stroke="black" points="208.249,-122.075 179.249,-122.075 179.249,-104.075 208.249,-104.075 208.249,-122.075"/>
<text text-anchor="middle" x="193.749" y="-110.875" font-family="Times,serif" font-size="9.00">&#45;12</text>
</g>
<!-- &#45;12&#45;&gt;1 -->
<g id="edge21" class="edge"><title>&#45;12&#45;&gt;1</title>
<path fill="none" stroke="green" stroke-width="0.416135" stroke-dasharray="1,5" d="M201.292,-103.88C206.831,-98.1989 214.755,-90.7421 222.749,-85.4975 258.63,-61.957 305.32,-43.5232 333.052,-33.6702"/>
<polygon fill="green" stroke="green" stroke-width="0.416135" points="334.393,-36.9097 342.69,-30.3213 332.095,-30.2974 334.393,-36.9097"/>
</g>
<!-- &#45;13 -->
<g id="node13" class="node"><title>&#45;13</title>
<polygon fill="lightgray" stroke="black" points="894.249,-122.075 865.249,-122.075 865.249,-104.075 894.249,-104.075 894.249,-122.075"/>
<text text-anchor="middle" x="879.749" y="-110.875" font-family="Times,serif" font-size="9.00">&#45;13</text>
</g>
<!-- &#45;13&#45;&gt;0 -->
<g id="edge56" class="edge"><title>&#45;13&#45;&gt;0</title>
<path fill="none" stroke="green" stroke-width="1.37039" d="M873.631,-103.982C869.105,-98.3492 862.567,-90.908 855.749,-85.4975 828.846,-64.1477 793.295,-46.1106 770.471,-35.6071"/>
<polygon fill="green" stroke="green" stroke-width="1.37039" points="771.799,-32.3667 761.243,-31.4528 768.925,-38.7496 771.799,-32.3667"/>
</g>
<!-- &#45;14 -->
<g id="node14" class="node"><title>&#45;14</title>
<polygon fill="lightgray" stroke="black" points="587.249,-122.075 558.249,-122.075 558.249,-104.075 587.249,-104.075 587.249,-122.075"/>
<text text-anchor="middle" x="572.749" y="-110.875" font-family="Times,serif" font-size="9.00">&#45;14</text>
</g>
<!-- &#45;14&#45;&gt;1 -->
<g id="edge61" class="edge"><title>&#45;14&#45;&gt;1</title>
<path fill="none" stroke="red" stroke-width="0.371325" stroke-dasharray="1,5" d="M567.318,-104.034C562.942,-98.1272 556.291,-90.321 548.749,-85.4975 534.326,-76.2733 429.271,-46.1032 380.949,-32.5036"/>
<polygon fill="red" stroke="red" stroke-width="0.371325" points="381.597,-29.0501 371.023,-29.7185 379.706,-35.7898 381.597,-29.0501"/>
</g>
<!-- &#45;14&#45;&gt;2 -->
<g id="edge19" class="edge"><title>&#45;14&#45;&gt;2</title>
<path fill="none" stroke="green" stroke-width="0.529841" d="M577.675,-103.683C581.724,-97.5918 588.037,-89.7091 595.749,-85.4975 630.415,-66.5653 903.526,-37.0376 987.963,-28.2788"/>
<polygon fill="green" stroke="green" stroke-width="0.529841" points="988.355,-31.7571 997.943,-27.2494 987.636,-24.794 988.355,-31.7571"/>
</g>
<!-- &#45;14&#45;&gt;8619 -->
<g id="edge59" class="edge"><title>&#45;14&#45;&gt;8619</title>
<path fill="none" stroke="red" stroke-width="0.312274" d="M572.749,-103.797C572.749,-93.689 572.749,-75.9563 572.749,-59.9455"/>
<polygon fill="red" stroke="red" stroke-width="0.312274" points="576.249,-59.7702 572.749,-49.7702 569.249,-59.7703 576.249,-59.7702"/>
</g>
<!-- &#45;15 -->
<g id="node15" class="node"><title>&#45;15</title>
<polygon fill="lightgray" stroke="black" points="304.249,-194.652 275.249,-194.652 275.249,-176.652 304.249,-176.652 304.249,-194.652"/>
<text text-anchor="middle" x="289.749" y="-183.452" font-family="Times,serif" font-size="9.00">&#45;15</text>
</g>
<!-- 4550 -->
<g id="node29" class="node"><title>4550</title>
<ellipse fill="white" stroke="black" cx="289.749" cy="-113.075" rx="25" ry="25"/>
<text text-anchor="middle" x="289.749" y="-110.875" font-family="Times,serif" font-size="9.00">4550</text>
</g>
<!-- &#45;15&#45;&gt;4550 -->
<g id="edge33" class="edge"><title>&#45;15&#45;&gt;4550</title>
<path fill="none" stroke="red" stroke-width="0.155635" stroke-dasharray="1,5" d="M289.749,-176.556C289.749,-169.477 289.749,-158.693 289.749,-148.066"/>
<polygon fill="red" stroke="red" stroke-width="0.155635" points="293.249,-148.052 289.749,-138.052 286.249,-148.052 293.249,-148.052"/>
</g>
<!-- &#45;16 -->
<g id="node16" class="node"><title>&#45;16</title>
<polygon fill="lightgray" stroke="black" points="493.249,-122.075 464.249,-122.075 464.249,-104.075 493.249,-104.075 493.249,-122.075"/>
<text text-anchor="middle" x="478.749" y="-110.875" font-family="Times,serif" font-size="9.00">&#45;16</text>
</g>
<!-- &#45;16&#45;&gt;0 -->
<g id="edge24" class="edge"><title>&#45;16&#45;&gt;0</title>
<path fill="none" stroke="green" stroke-width="0.331266" d="M483.797,-103.893C487.908,-97.9112 494.248,-90.0741 501.749,-85.4975 539.296,-62.5882 668.511,-38.9779 723.098,-29.7673"/>
<polygon fill="green" stroke="green" stroke-width="0.331266" points="723.683,-33.2183 732.971,-28.1217 722.532,-26.3135 723.683,-33.2183"/>
</g>
<!-- &#45;16&#45;&gt;1 -->
<g id="edge36" class="edge"><title>&#45;16&#45;&gt;1</title>
<path fill="none" stroke="green" stroke-width="0.600841" d="M472.56,-104.07C468,-98.4784 461.451,-91.0506 454.749,-85.4975 430.773,-65.6323 399.556,-47.758 378.869,-36.8449"/>
<polygon fill="green" stroke="green" stroke-width="0.600841" points="380.393,-33.6927 369.903,-32.2035 377.175,-39.9091 380.393,-33.6927"/>
</g>
<!-- &#45;17 -->
<g id="node17" class="node"><title>&#45;17</title>
<polygon fill="lightgray" stroke="black" points="361.249,-122.075 332.249,-122.075 332.249,-104.075 361.249,-104.075 361.249,-122.075"/>
<text text-anchor="middle" x="346.749" y="-110.875" font-family="Times,serif" font-size="9.00">&#45;17</text>
</g>
<!-- &#45;17&#45;&gt;0 -->
<g id="edge3" class="edge"><title>&#45;17&#45;&gt;0</title>
<path fill="none" stroke="green" stroke-width="0.950933" stroke-dasharray="1,5" d="M351.984,-103.701C356.258,-97.6198 362.866,-89.7411 370.749,-85.4975 464.174,-35.2037 501.987,-66.3093 606.749,-49.4975 647.428,-42.9694 694.626,-34.9239 722.791,-30.0724"/>
<polygon fill="green" stroke="green" stroke-width="0.950933" points="723.683,-33.4703 732.942,-28.3202 722.492,-26.5723 723.683,-33.4703"/>
</g>
<!-- &#45;17&#45;&gt;1 -->
<g id="edge8" class="edge"><title>&#45;17&#45;&gt;1</title>
<path fill="none" stroke="green" stroke-width="0.662279" d="M347.708,-103.797C349.131,-91.5081 351.86,-67.9496 353.949,-49.9167"/>
<polygon fill="green" stroke="green" stroke-width="0.662279" points="357.446,-50.1455 355.12,-39.8091 350.492,-49.3399 357.446,-50.1455"/>
</g>
<!-- &#45;18 -->
<g id="node18" class="node"><title>&#45;18</title>
<polygon fill="lightgray" stroke="black" points="681.249,-122.075 652.249,-122.075 652.249,-104.075 681.249,-104.075 681.249,-122.075"/>
<text text-anchor="middle" x="666.749" y="-110.875" font-family="Times,serif" font-size="9.00">&#45;18</text>
</g>
<!-- &#45;18&#45;&gt;0 -->
<g id="edge54" class="edge"><title>&#45;18&#45;&gt;0</title>
<path fill="none" stroke="red" stroke-width="0.337186" stroke-dasharray="1,5" d="M674.515,-103.797C687.416,-90.0489 713.55,-62.1961 730.853,-43.7549"/>
<polygon fill="red" stroke="red" stroke-width="0.337186" points="733.593,-45.9499 737.884,-36.2625 728.489,-41.1601 733.593,-45.9499"/>
</g>
<!-- &#45;18&#45;&gt;2 -->
<g id="edge29" class="edge"><title>&#45;18&#45;&gt;2</title>
<path fill="none" stroke="green" stroke-width="0.155675" d="M681.297,-108.103C700.739,-102.82 736.282,-93.2451 766.749,-85.4975 847.809,-64.8841 944.298,-41.8993 988.48,-31.4605"/>
<polygon fill="green" stroke="green" stroke-width="0.155675" points="989.375,-34.8455 998.304,-29.1426 987.767,-28.0326 989.375,-34.8455"/>
</g>
<!-- &#45;18&#45;&gt;3 -->
<g id="edge40" class="edge"><title>&#45;18&#45;&gt;3</title>
<path fill="none" stroke="red" stroke-width="0.306234" stroke-dasharray="1,5" d="M661.102,-103.836C656.709,-97.9841 650.133,-90.3361 642.749,-85.4975 636.063,-81.1166 535.108,-48.3673 488.28,-33.2973"/>
<polygon fill="red" stroke="red" stroke-width="0.306234" points="489.24,-29.9295 478.649,-30.2014 487.098,-36.5937 489.24,-29.9295"/>
</g>
<!-- &#45;19 -->
<g id="node19" class="node"><title>&#45;19</title>
<polygon fill="lightgray" stroke="black" points="984.249,-122.075 955.249,-122.075 955.249,-104.075 984.249,-104.075 984.249,-122.075"/>
<text text-anchor="middle" x="969.749" y="-110.875" font-family="Times,serif" font-size="9.00">&#45;19</text>
</g>
<!-- &#45;19&#45;&gt;0 -->
<g id="edge42" class="edge"><title>&#45;19&#45;&gt;0</title>
<path fill="none" stroke="green" stroke-width="0.546668" stroke-dasharray="1,5" d="M964.33,-104.016C959.96,-98.0987 953.311,-90.2884 945.749,-85.4975 889.883,-50.1061 811.913,-34.7127 772.563,-28.8612"/>
<polygon fill="green" stroke="green" stroke-width="0.546668" points="772.929,-25.3783 762.539,-27.4551 771.956,-32.3104 772.929,-25.3783"/>
</g>
<!-- &#45;19&#45;&gt;2 -->
<g id="edge16" class="edge"><title>&#45;19&#45;&gt;2</title>
<path fill="none" stroke="red" stroke-width="0.115486" d="M973.872,-103.797C980.286,-90.9196 992.865,-65.6674 1001.98,-47.3659"/>
<polygon fill="red" stroke="red" stroke-width="0.115486" points="1005.18,-48.7955 1006.5,-38.284 998.913,-45.6745 1005.18,-48.7955"/>
</g>
<!-- &#45;20 -->
<g id="node20" class="node"><title>&#45;20</title>
<polygon fill="lightgray" stroke="black" points="1149.25,-194.652 1120.25,-194.652 1120.25,-176.652 1149.25,-176.652 1149.25,-194.652"/>
<text text-anchor="middle" x="1134.75" y="-183.452" font-family="Times,serif" font-size="9.00">&#45;20</text>
</g>
<!-- &#45;20&#45;&gt;2 -->
<g id="edge1" class="edge"><title>&#45;20&#45;&gt;2</title>
<path fill="none" stroke="red" stroke-width="0.564981" stroke-dasharray="1,5" d="M1134.8,-176.601C1134.53,-158.535 1131.63,-114.112 1110.75,-85.4975 1092.11,-59.9526 1058.92,-43.1182 1036.38,-34.0113"/>
<polygon fill="red" stroke="red" stroke-width="0.564981" points="1037.46,-30.6753 1026.87,-30.3673 1034.95,-37.2124 1037.46,-30.6753"/>
</g>
<!-- &#45;20&#45;&gt;4550 -->
<g id="edge35" class="edge"><title>&#45;20&#45;&gt;4550</title>
<path fill="none" stroke="green" stroke-width="0.945266" stroke-dasharray="1,5" d="M1120.16,-184.4C1017.07,-182.548 400.031,-170.278 322.749,-140.652 320.197,-139.673 317.69,-138.419 315.27,-136.99"/>
<polygon fill="green" stroke="green" stroke-width="0.945266" points="317.167,-134.046 306.954,-131.226 313.179,-139.799 317.167,-134.046"/>
</g>
<!-- &#45;20&#45;&gt;6941 -->
<g id="edge28" class="edge"><title>&#45;20&#45;&gt;6941</title>
<path fill="none" stroke="red" stroke-width="0.103888" d="M1149.58,-183.68C1174.08,-181.182 1222.4,-172.286 1243.75,-140.652 1260.04,-116.503 1256.14,-82.5586 1249.77,-57.8278"/>
<polygon fill="red" stroke="red" stroke-width="0.103888" points="1253.13,-56.8508 1247.04,-48.1801 1246.39,-58.7551 1253.13,-56.8508"/>
</g>
<!-- &#45;21 -->
<g id="node21" class="node"><title>&#45;21</title>
<polygon fill="lightgray" stroke="black" points="762.249,-194.652 733.249,-194.652 733.249,-176.652 762.249,-176.652 762.249,-194.652"/>
<text text-anchor="middle" x="747.749" y="-183.452" font-family="Times,serif" font-size="9.00">&#45;21</text>
</g>
<!-- &#45;21&#45;&gt;0 -->
<g id="edge23" class="edge"><title>&#45;21&#45;&gt;0</title>
<path fill="none" stroke="green" stroke-width="3.28232" d="M747.749,-176.553C747.749,-153.398 747.749,-86.2447 747.749,-49.8589"/>
<polygon fill="green" stroke="green" stroke-width="3.28232" points="751.249,-49.6373 747.749,-39.6373 744.249,-49.6373 751.249,-49.6373"/>
</g>
<!-- &#45;21&#45;&gt;2 -->
<g id="edge46" class="edge"><title>&#45;21&#45;&gt;2</title>
<path fill="none" stroke="red" stroke-width="0.344482" d="M762.547,-183.807C823.971,-180.151 1056.62,-164.787 1077.75,-140.652 1093.9,-122.209 1087.6,-107.942 1077.75,-85.4975 1068.84,-65.201 1049.25,-48.7686 1033.89,-38.3117"/>
<polygon fill="red" stroke="red" stroke-width="0.344482" points="1035.75,-35.346 1025.45,-32.8613 1031.96,-41.2265 1035.75,-35.346"/>
</g>
<!-- &#45;21&#45;&gt;4550 -->
<g id="edge10" class="edge"><title>&#45;21&#45;&gt;4550</title>
<path fill="none" stroke="red" stroke-width="0.438274" stroke-dasharray="1,5" d="M733.088,-184.244C667.345,-182.247 399.572,-172.283 322.749,-140.652 320.308,-139.647 317.904,-138.402 315.573,-137.004"/>
<polygon fill="red" stroke="red" stroke-width="0.438274" points="317.232,-133.893 307.03,-131.035 313.223,-139.631 317.232,-133.893"/>
</g>
<!-- &#45;22 -->
<g id="node22" class="node"><title>&#45;22</title>
<polygon fill="lightgray" stroke="black" points="540.249,-122.075 511.249,-122.075 511.249,-104.075 540.249,-104.075 540.249,-122.075"/>
<text text-anchor="middle" x="525.749" y="-110.875" font-family="Times,serif" font-size="9.00">&#45;22</text>
</g>
<!-- &#45;22&#45;&gt;1 -->
<g id="edge26" class="edge"><title>&#45;22&#45;&gt;1</title>
<path fill="none" stroke="red" stroke-width="0.435663" d="M519.815,-103.736C515.375,-97.9878 508.865,-90.5091 501.749,-85.4975 463.317,-58.4314 410.775,-40.6976 380.633,-32.0186"/>
<polygon fill="red" stroke="red" stroke-width="0.435663" points="381.538,-28.6375 370.965,-29.3259 379.66,-35.3808 381.538,-28.6375"/>
</g>
<!-- &#45;22&#45;&gt;2 -->
<g id="edge43" class="edge"><title>&#45;22&#45;&gt;2</title>
<path fill="none" stroke="green" stroke-width="0.862481" stroke-dasharray="1,5" d="M530.658,-103.651C534.698,-97.5437 541.007,-89.6541 548.749,-85.4975 568.346,-74.9752 894.258,-38.7004 987.82,-28.46"/>
<polygon fill="green" stroke="green" stroke-width="0.862481" points="988.482,-31.9087 998.043,-27.3437 987.722,-24.9501 988.482,-31.9087"/>
</g>
<!-- &#45;22&#45;&gt;3 -->
<g id="edge45" class="edge"><title>&#45;22&#45;&gt;3</title>
<path fill="none" stroke="red" stroke-width="0.50369" d="M519.9,-103.797C510.52,-90.524 491.852,-64.1042 478.846,-45.6994"/>
<polygon fill="red" stroke="red" stroke-width="0.50369" points="481.612,-43.5479 472.982,-37.4008 475.895,-47.5875 481.612,-43.5479"/>
</g>
<!-- &#45;23 -->
<g id="node23" class="node"><title>&#45;23</title>
<polygon fill="lightgray" stroke="black" points="1368.25,-194.652 1339.25,-194.652 1339.25,-176.652 1368.25,-176.652 1368.25,-194.652"/>
<text text-anchor="middle" x="1353.75" y="-183.452" font-family="Times,serif" font-size="9.00">&#45;23</text>
</g>
<!-- &#45;23&#45;&gt;9899 -->
<g id="edge52" class="edge"><title>&#45;23&#45;&gt;9899</title>
<path fill="none" stroke="green" stroke-width="0.241043" d="M1353.75,-176.556C1353.75,-169.477 1353.75,-158.693 1353.75,-148.066"/>
<polygon fill="green" stroke="green" stroke-width="0.241043" points="1357.25,-148.052 1353.75,-138.052 1350.25,-148.052 1357.25,-148.052"/>
</g>
<!-- &#45;24 -->
<g id="node24" class="node"><title>&#45;24</title>
<polygon fill="lightgray" stroke="black" points="1192.25,-122.075 1163.25,-122.075 1163.25,-104.075 1192.25,-104.075 1192.25,-122.075"/>
<text text-anchor="middle" x="1177.75" y="-110.875" font-family="Times,serif" font-size="9.00">&#45;24</text>
</g>
<!-- &#45;24&#45;&gt;0 -->
<g id="edge47" class="edge"><title>&#45;24&#45;&gt;0</title>
<path fill="none" stroke="green" stroke-width="0.151537" stroke-dasharray="1,5" d="M1162.93,-107.735C1143.49,-102.134 1108.26,-92.3016 1077.75,-85.4975 964.509,-60.2413 827.61,-38.1016 772.499,-29.5297"/>
<polygon fill="green" stroke="green" stroke-width="0.151537" points="772.725,-26.0231 762.307,-27.9546 771.655,-32.941 772.725,-26.0231"/>
</g>
<!-- &#45;24&#45;&gt;6941 -->
<g id="edge6" class="edge"><title>&#45;24&#45;&gt;6941</title>
<path fill="none" stroke="red" stroke-width="0.301748" d="M1183.6,-103.797C1191.7,-92.3373 1206.72,-71.0773 1219.04,-53.6371"/>
<polygon fill="red" stroke="red" stroke-width="0.301748" points="1221.92,-55.6287 1224.83,-45.4421 1216.2,-51.5891 1221.92,-55.6287"/>
</g>
<!-- 1&#45;&gt;1 -->
<g id="edge30" class="edge"><title>1&#45;&gt;1</title>
<path fill="none" stroke="red" stroke-width="0.188935" d="M365.829,-36.592C376.761,-45.5402 389.598,-41.5925 389.598,-24.7487 389.598,-12.5107 382.821,-7.08037 374.923,-8.45775"/>
<polygon fill="red" stroke="red" stroke-width="0.188935" points="373.275,-5.36758 365.829,-12.9055 376.35,-11.6557 373.275,-5.36758"/>
</g>
<!-- 2&#45;&gt;2 -->
<g id="edge27" class="edge"><title>2&#45;&gt;2</title>
<path fill="none" stroke="green" stroke-width="0.201158" d="M1021.83,-36.592C1032.76,-45.5402 1045.6,-41.5925 1045.6,-24.7487 1045.6,-12.5107 1038.82,-7.08037 1030.92,-8.45775"/>
<polygon fill="green" stroke="green" stroke-width="0.201158" points="1029.27,-5.36758 1021.83,-12.9055 1032.35,-11.6557 1029.27,-5.36758"/>
</g>
<!-- 3&#45;&gt;3 -->
<g id="edge17" class="edge"><title>3&#45;&gt;3</title>
<path fill="none" stroke="green" stroke-width="0.229816" d="M473.829,-36.592C484.761,-45.5402 497.598,-41.5925 497.598,-24.7487 497.598,-12.5107 490.821,-7.08037 482.923,-8.45775"/>
<polygon fill="green" stroke="green" stroke-width="0.229816" points="481.275,-5.36758 473.829,-12.9055 484.35,-11.6557 481.275,-5.36758"/>
</g>
<!-- 4550&#45;&gt;1 -->
<g id="edge20" class="edge"><title>4550&#45;&gt;1</title>
<path fill="none" stroke="red" stroke-width="0.110773" stroke-dasharray="1,5" d="M304.618,-92.9161C315.601,-78.7657 330.5,-59.5683 341.558,-45.3208"/>
<polygon fill="red" stroke="red" stroke-width="0.110773" points="344.511,-47.2245 347.878,-37.1787 338.981,-42.9326 344.511,-47.2245"/>
</g>
<!-- 4550&#45;&gt;8619 -->
<g id="edge51" class="edge"><title>4550&#45;&gt;8619</title>
<path fill="none" stroke="green" stroke-width="0.445641" stroke-dasharray="1,5" d="M307.181,-95.4587C311.929,-91.6843 317.28,-88.0428 322.749,-85.4975 398.295,-50.3361 426.424,-71.6682 506.749,-49.4975 517.983,-46.3967 530.042,-42.2952 540.738,-38.3747"/>
<polygon fill="green" stroke="green" stroke-width="0.445641" points="541.981,-41.6467 550.116,-34.8589 539.523,-35.0922 541.981,-41.6467"/>
</g>
<!-- 10026&#45;&gt;1 -->
<g id="edge55" class="edge"><title>10026&#45;&gt;1</title>
<path fill="none" stroke="red" stroke-width="0.146958" d="M117.166,-96.1589C123.312,-92.2832 130.115,-88.4178 136.749,-85.4975 204.417,-55.7092 290.474,-37.5796 332.051,-29.9554"/>
<polygon fill="red" stroke="red" stroke-width="0.146958" points="332.858,-33.3667 342.087,-28.1624 331.627,-26.4759 332.858,-33.3667"/>
</g>
<!-- 9899&#45;&gt;2 -->
<g id="edge60" class="edge"><title>9899&#45;&gt;2</title>
<path fill="none" stroke="red" stroke-width="0.21886" d="M1330.71,-103.38C1315.52,-97.8319 1295.11,-90.727 1276.75,-85.4975 1189.72,-60.7108 1084.25,-39.4072 1037.32,-30.371"/>
<polygon fill="red" stroke="red" stroke-width="0.21886" points="1037.68,-26.8767 1027.2,-28.4389 1036.36,-33.7525 1037.68,-26.8767"/>
</g>
<!-- 9899&#45;&gt;6941 -->
<g id="edge5" class="edge"><title>9899&#45;&gt;6941</title>
<path fill="none" stroke="red" stroke-width="0.355536" d="M1334.24,-97.4306C1315.65,-83.4786 1287.48,-62.3309 1266.55,-46.6171"/>
<polygon fill="red" stroke="red" stroke-width="0.355536" points="1268.45,-43.6689 1258.35,-40.4646 1264.25,-49.2671 1268.45,-43.6689"/>
</g>
<!-- 4017 -->
<g id="node33" class="node"><title>4017</title>
<ellipse fill="white" stroke="black" cx="24.7487" cy="-113.075" rx="25" ry="25"/>
<text text-anchor="middle" x="24.7487" y="-110.875" font-family="Times,serif" font-size="9.00">4017</text>
</g>
<!-- 4017&#45;&gt;1 -->
<g id="edge49" class="edge"><title>4017&#45;&gt;1</title>
<path fill="none" stroke="green" stroke-width="0.505308" d="M42.1882,-95.4739C46.9358,-91.6992 52.2851,-88.0538 57.7487,-85.4975 152.2,-41.3063 278.334,-29.7464 331.466,-26.7651"/>
<polygon fill="green" stroke="green" stroke-width="0.505308" points="331.848,-30.2504 341.658,-26.2505 331.495,-23.2593 331.848,-30.2504"/>
</g>
</g>
</svg>
