<?xml version="1.0" encoding="UTF-8" standalone="no"?>
<!DOCTYPE svg PUBLIC "-//W3C//DTD SVG 1.1//EN"
 "http://www.w3.org/Graphics/SVG/1.1/DTD/svg11.dtd">
<!-- Generated by graphviz version 2.38.0 (20140413.2041)
 -->
<!-- Title: %3 Pages: 1 -->
<svg width="1056pt" height="234pt"
 viewBox="0.00 0.00 1056.50 234.15" xmlns="http://www.w3.org/2000/svg" xmlns:xlink="http://www.w3.org/1999/xlink">
<g id="graph0" class="graph" transform="scale(1 1) rotate(0) translate(4 230.149)">
<title>%3</title>
<polygon fill="white" stroke="none" points="-4,4 -4,-230.149 1052.5,-230.149 1052.5,4 -4,4"/>
<!-- &#45;1 -->
<g id="node1" class="node"><title>&#45;1</title>
<polygon fill="lightgray" stroke="black" points="158.749,-210.401 134.749,-210.401 134.749,-192.401 158.749,-192.401 158.749,-210.401"/>
<text text-anchor="middle" x="146.749" y="-199.201" font-family="Times,serif" font-size="9.00">&#45;1</text>
</g>
<!-- 1 -->
<g id="node26" class="node"><title>1</title>
<ellipse fill="lightblue" stroke="black" cx="185.749" cy="-24.7487" rx="14.7" ry="14.7"/>
<text text-anchor="middle" x="185.749" y="-22.5487" font-family="Times,serif" font-size="9.00">1</text>
</g>
<!-- &#45;1&#45;&gt;1 -->
<g id="edge9" class="edge"><title>&#45;1&#45;&gt;1</title>
<path fill="none" stroke="green" stroke-width="0.385215" d="M152.308,-192.344C159.617,-181.267 172.182,-160.452 177.749,-140.652 186.299,-110.24 187.343,-73.6049 186.889,-50.0092"/>
<polygon fill="green" stroke="green" stroke-width="0.385215" points="190.382,-49.7467 186.584,-39.8562 183.386,-49.9567 190.382,-49.7467"/>
</g>
<!-- 10026 -->
<g id="node30" class="node"><title>10026</title>
<ellipse fill="white" stroke="black" cx="94.7487" cy="-113.075" rx="27.6545" ry="27.6545"/>
<text text-anchor="middle" x="94.7487" y="-110.875" font-family="Times,serif" font-size="9.00">10026</text>
</g>
<!-- &#45;1&#45;&gt;10026 -->
<g id="edge23" class="edge"><title>&#45;1&#45;&gt;10026</title>
<path fill="none" stroke="green" stroke-width="0.616606" d="M141.763,-192.123C135.371,-181.512 123.919,-162.5 113.918,-145.898"/>
<polygon fill="green" stroke="green" stroke-width="0.616606" points="116.711,-143.751 108.553,-136.991 110.714,-147.363 116.711,-143.751"/>
</g>
<!-- &#45;2 -->
<g id="node2" class="node"><title>&#45;2</title>
<polygon fill="lightgray" stroke="black" points="386.749,-122.075 362.749,-122.075 362.749,-104.075 386.749,-104.075 386.749,-122.075"/>
<text text-anchor="middle" x="374.749" y="-110.875" font-family="Times,serif" font-size="9.00">&#45;2</text>
</g>
<!-- 0 -->
<g id="node25" class="node"><title>0</title>
<ellipse fill="lightblue" stroke="black" cx="419.749" cy="-24.7487" rx="14.7" ry="14.7"/>
<text text-anchor="middle" x="419.749" y="-22.5487" font-family="Times,serif" font-size="9.00">0</text>
</g>
<!-- &#45;2&#45;&gt;0 -->
<g id="edge1" class="edge"><title>&#45;2&#45;&gt;0</title>
<path fill="none" stroke="red" stroke-width="0.358312" d="M379.064,-103.797C385.776,-90.9196 398.94,-65.6674 408.48,-47.3659"/>
<polygon fill="red" stroke="red" stroke-width="0.358312" points="411.695,-48.7694 413.214,-38.284 405.488,-45.5336 411.695,-48.7694"/>
</g>
<!-- &#45;3 -->
<g id="node3" class="node"><title>&#45;3</title>
<polygon fill="lightgray" stroke="black" points="802.749,-210.401 778.749,-210.401 778.749,-192.401 802.749,-192.401 802.749,-210.401"/>
<text text-anchor="middle" x="790.749" y="-199.201" font-family="Times,serif" font-size="9.00">&#45;3</text>
</g>
<!-- &#45;4 -->
<g id="node4" class="node"><title>&#45;4</title>
<polygon fill="lightgray" stroke="black" points="844.749,-210.401 820.749,-210.401 820.749,-192.401 844.749,-192.401 844.749,-210.401"/>
<text text-anchor="middle" x="832.749" y="-199.201" font-family="Times,serif" font-size="9.00">&#45;4</text>
</g>
<!-- &#45;5 -->
<g id="node5" class="node"><title>&#45;5</title>
<polygon fill="lightgray" stroke="black" points="344.749,-122.075 320.749,-122.075 320.749,-104.075 344.749,-104.075 344.749,-122.075"/>
<text text-anchor="middle" x="332.749" y="-110.875" font-family="Times,serif" font-size="9.00">&#45;5</text>
</g>
<!-- &#45;5&#45;&gt;0 -->
<g id="edge21" class="edge"><title>&#45;5&#45;&gt;0</title>
<path fill="none" stroke="red" stroke-width="2.16437" d="M338.665,-103.881C342.701,-98.4747 348.286,-91.339 353.749,-85.4975 368.611,-69.6044 387.086,-53.1222 400.707,-41.5052"/>
<polygon fill="red" stroke="red" stroke-width="2.16437" points="403.094,-44.0706 408.484,-34.9495 398.582,-38.7184 403.094,-44.0706"/>
</g>
<!-- &#45;5&#45;&gt;1 -->
<g id="edge10" class="edge"><title>&#45;5&#45;&gt;1</title>
<path fill="none" stroke="red" stroke-width="0.311962" d="M327.421,-103.752C323.404,-98.0106 317.453,-90.5343 310.749,-85.4975 278.6,-61.3463 263.744,-67.418 227.749,-49.4975 220.897,-46.0862 213.585,-42.0845 207.015,-38.3484"/>
<polygon fill="red" stroke="red" stroke-width="0.311962" points="208.468,-35.1453 198.06,-33.1645 204.961,-41.2035 208.468,-35.1453"/>
</g>
<!-- &#45;6 -->
<g id="node6" class="node"><title>&#45;6</title>
<polygon fill="lightgray" stroke="black" points="661.749,-210.401 637.749,-210.401 637.749,-192.401 661.749,-192.401 661.749,-210.401"/>
<text text-anchor="middle" x="649.749" y="-199.201" font-family="Times,serif" font-size="9.00">&#45;6</text>
</g>
<!-- 2 -->
<g id="node27" class="node"><title>2</title>
<ellipse fill="lightblue" stroke="black" cx="641.749" cy="-24.7487" rx="14.7" ry="14.7"/>
<text text-anchor="middle" x="641.749" y="-22.5487" font-family="Times,serif" font-size="9.00">2</text>
</g>
<!-- &#45;6&#45;&gt;2 -->
<g id="edge28" class="edge"><title>&#45;6&#45;&gt;2</title>
<path fill="none" stroke="green" stroke-width="0.175334" d="M643.987,-192.397C636.448,-181.381 623.624,-160.633 618.749,-140.652 612.939,-116.837 614.27,-109.598 618.749,-85.4975 621.143,-72.6127 626.211,-58.9224 630.981,-47.9017"/>
<polygon fill="green" stroke="green" stroke-width="0.175334" points="634.243,-49.1831 635.194,-38.631 627.871,-46.2873 634.243,-49.1831"/>
</g>
<!-- 9899 -->
<g id="node31" class="node"><title>9899</title>
<ellipse fill="white" stroke="black" cx="745.749" cy="-113.075" rx="25" ry="25"/>
<text text-anchor="middle" x="745.749" y="-110.875" font-family="Times,serif" font-size="9.00">9899</text>
</g>
<!-- &#45;6&#45;&gt;9899 -->
<g id="edge32" class="edge"><title>&#45;6&#45;&gt;9899</title>
<path fill="none" stroke="green" stroke-width="0.649965" d="M658.954,-192.123C672.874,-179.606 699.797,-155.396 719.984,-137.243"/>
<polygon fill="green" stroke="green" stroke-width="0.649965" points="722.526,-139.664 727.621,-130.375 717.845,-134.459 722.526,-139.664"/>
</g>
<!-- &#45;7 -->
<g id="node7" class="node"><title>&#45;7</title>
<polygon fill="lightgray" stroke="black" points="859.749,-122.075 835.749,-122.075 835.749,-104.075 859.749,-104.075 859.749,-122.075"/>
<text text-anchor="middle" x="847.749" y="-110.875" font-family="Times,serif" font-size="9.00">&#45;7</text>
</g>
<!-- 6941 -->
<g id="node34" class="node"><title>6941</title>
<ellipse fill="white" stroke="black" cx="824.749" cy="-24.7487" rx="25" ry="25"/>
<text text-anchor="middle" x="824.749" y="-22.5487" font-family="Times,serif" font-size="9.00">6941</text>
</g>
<!-- &#45;7&#45;&gt;6941 -->
<g id="edge8" class="edge"><title>&#45;7&#45;&gt;6941</title>
<path fill="none" stroke="red" stroke-width="0.17733" d="M845.543,-103.797C842.787,-93.4529 837.904,-75.1239 833.562,-58.8267"/>
<polygon fill="red" stroke="red" stroke-width="0.17733" points="836.909,-57.7934 830.952,-49.0316 830.145,-59.5956 836.909,-57.7934"/>
</g>
<!-- &#45;8 -->
<g id="node8" class="node"><title>&#45;8</title>
<polygon fill="lightgray" stroke="black" points="886.749,-210.401 862.749,-210.401 862.749,-192.401 886.749,-192.401 886.749,-210.401"/>
<text text-anchor="middle" x="874.749" y="-199.201" font-family="Times,serif" font-size="9.00">&#45;8</text>
</g>
<!-- &#45;9 -->
<g id="node9" class="node"><title>&#45;9</title>
<polygon fill="lightgray" stroke="black" points="570.749,-122.075 546.749,-122.075 546.749,-104.075 570.749,-104.075 570.749,-122.075"/>
<text text-anchor="middle" x="558.749" y="-110.875" font-family="Times,serif" font-size="9.00">&#45;9</text>
</g>
<!-- &#45;9&#45;&gt;0 -->
<g id="edge24" class="edge"><title>&#45;9&#45;&gt;0</title>
<path fill="none" stroke="red" stroke-width="1.12231" d="M553.647,-103.859C549.805,-98.1687 544.122,-90.7088 537.749,-85.4975 508.531,-61.6085 468.193,-43.7663 443.055,-34.0533"/>
<polygon fill="red" stroke="red" stroke-width="1.12231" points="444.192,-30.7416 433.6,-30.5069 441.734,-37.2958 444.192,-30.7416"/>
</g>
<!-- &#45;9&#45;&gt;2 -->
<g id="edge2" class="edge"><title>&#45;9&#45;&gt;2</title>
<path fill="none" stroke="red" stroke-width="0.434669" d="M566.707,-103.797C580.056,-89.9134 607.235,-61.6457 624.958,-43.2124"/>
<polygon fill="red" stroke="red" stroke-width="0.434669" points="627.499,-45.6195 631.907,-35.9851 622.453,-40.7679 627.499,-45.6195"/>
</g>
<!-- &#45;10 -->
<g id="node10" class="node"><title>&#45;10</title>
<polygon fill="lightgray" stroke="black" points="434.249,-122.075 405.249,-122.075 405.249,-104.075 434.249,-104.075 434.249,-122.075"/>
<text text-anchor="middle" x="419.749" y="-110.875" font-family="Times,serif" font-size="9.00">&#45;10</text>
</g>
<!-- &#45;10&#45;&gt;0 -->
<g id="edge7" class="edge"><title>&#45;10&#45;&gt;0</title>
<path fill="none" stroke="green" stroke-width="0.467618" d="M419.749,-103.797C419.749,-91.5081 419.749,-67.9496 419.749,-49.9167"/>
<polygon fill="green" stroke="green" stroke-width="0.467618" points="423.249,-49.8091 419.749,-39.8091 416.249,-49.8091 423.249,-49.8091"/>
</g>
<!-- &#45;11 -->
<g id="node11" class="node"><title>&#45;11</title>
<polygon fill="lightgray" stroke="black" points="1001.25,-122.075 972.249,-122.075 972.249,-104.075 1001.25,-104.075 1001.25,-122.075"/>
<text text-anchor="middle" x="986.749" y="-110.875" font-family="Times,serif" font-size="9.00">&#45;11</text>
</g>
<!-- 8619 -->
<g id="node32" class="node"><title>8619</title>
<ellipse fill="white" stroke="black" cx="962.749" cy="-24.7487" rx="25" ry="25"/>
<text text-anchor="middle" x="962.749" y="-22.5487" font-family="Times,serif" font-size="9.00">8619</text>
</g>
<!-- &#45;11&#45;&gt;8619 -->
<g id="edge5" class="edge"><title>&#45;11&#45;&gt;8619</title>
<path fill="none" stroke="green" stroke-width="0.263281" d="M984.448,-103.797C981.552,-93.383 976.407,-74.8759 971.853,-58.4967"/>
<polygon fill="green" stroke="green" stroke-width="0.263281" points="975.17,-57.3618 969.12,-48.6647 968.426,-59.2368 975.17,-57.3618"/>
</g>
<!-- &#45;12 -->
<g id="node12" class="node"><title>&#45;12</title>
<polygon fill="lightgray" stroke="black" points="934.249,-210.401 905.249,-210.401 905.249,-192.401 934.249,-192.401 934.249,-210.401"/>
<text text-anchor="middle" x="919.749" y="-199.201" font-family="Times,serif" font-size="9.00">&#45;12</text>
</g>
<!-- &#45;13 -->
<g id="node13" class="node"><title>&#45;13</title>
<polygon fill="lightgray" stroke="black" points="481.249,-122.075 452.249,-122.075 452.249,-104.075 481.249,-104.075 481.249,-122.075"/>
<text text-anchor="middle" x="466.749" y="-110.875" font-family="Times,serif" font-size="9.00">&#45;13</text>
</g>
<!-- &#45;13&#45;&gt;0 -->
<g id="edge31" class="edge"><title>&#45;13&#45;&gt;0</title>
<path fill="none" stroke="green" stroke-width="1.37039" d="M462.242,-103.797C455.199,-90.8602 441.356,-65.4344 431.381,-47.1133"/>
<polygon fill="green" stroke="green" stroke-width="1.37039" points="434.429,-45.393 426.574,-38.284 428.281,-48.7403 434.429,-45.393"/>
</g>
<!-- &#45;14 -->
<g id="node14" class="node"><title>&#45;14</title>
<polygon fill="lightgray" stroke="black" points="954.249,-122.075 925.249,-122.075 925.249,-104.075 954.249,-104.075 954.249,-122.075"/>
<text text-anchor="middle" x="939.749" y="-110.875" font-family="Times,serif" font-size="9.00">&#45;14</text>
</g>
<!-- &#45;14&#45;&gt;2 -->
<g id="edge13" class="edge"><title>&#45;14&#45;&gt;2</title>
<path fill="none" stroke="green" stroke-width="0.529841" d="M934.733,-103.84C930.638,-97.8311 924.305,-89.9826 916.749,-85.4975 874.033,-60.1425 725.671,-37.3697 666.445,-29.0742"/>
<polygon fill="green" stroke="green" stroke-width="0.529841" points="666.854,-25.5976 656.469,-27.6964 665.896,-32.5317 666.854,-25.5976"/>
</g>
<!-- &#45;14&#45;&gt;8619 -->
<g id="edge33" class="edge"><title>&#45;14&#45;&gt;8619</title>
<path fill="none" stroke="red" stroke-width="0.312274" d="M941.954,-103.797C944.71,-93.4529 949.594,-75.1239 953.936,-58.8267"/>
<polygon fill="red" stroke="red" stroke-width="0.312274" points="957.353,-59.5956 956.545,-49.0316 950.589,-57.7934 957.353,-59.5956"/>
</g>
<!-- &#45;15 -->
<g id="node15" class="node"><title>&#45;15</title>
<polygon fill="lightgray" stroke="black" points="981.249,-210.401 952.249,-210.401 952.249,-192.401 981.249,-192.401 981.249,-210.401"/>
<text text-anchor="middle" x="966.749" y="-199.201" font-family="Times,serif" font-size="9.00">&#45;15</text>
</g>
<!-- &#45;16 -->
<g id="node16" class="node"><title>&#45;16</title>
<polygon fill="lightgray" stroke="black" points="302.249,-122.075 273.249,-122.075 273.249,-104.075 302.249,-104.075 302.249,-122.075"/>
<text text-anchor="middle" x="287.749" y="-110.875" font-family="Times,serif" font-size="9.00">&#45;16</text>
</g>
<!-- &#45;16&#45;&gt;0 -->
<g id="edge15" class="edge"><title>&#45;16&#45;&gt;0</title>
<path fill="none" stroke="green" stroke-width="0.331266" d="M293.867,-103.982C298.392,-98.3492 304.931,-90.908 311.749,-85.4975 338.652,-64.1477 374.203,-46.1106 397.027,-35.6071"/>
<polygon fill="green" stroke="green" stroke-width="0.331266" points="398.573,-38.7496 406.254,-31.4528 395.699,-32.3667 398.573,-38.7496"/>
</g>
<!-- &#45;16&#45;&gt;1 -->
<g id="edge22" class="edge"><title>&#45;16&#45;&gt;1</title>
<path fill="none" stroke="green" stroke-width="0.600841" d="M280.969,-103.809C276.349,-98.3722 269.964,-91.2297 263.749,-85.4975 245.234,-68.4214 222.128,-51.1666 205.887,-39.6201"/>
<polygon fill="green" stroke="green" stroke-width="0.600841" points="207.838,-36.7134 197.643,-33.83 203.815,-42.4417 207.838,-36.7134"/>
</g>
<!-- &#45;17 -->
<g id="node17" class="node"><title>&#45;17</title>
<polygon fill="lightgray" stroke="black" points="169.249,-122.075 140.249,-122.075 140.249,-104.075 169.249,-104.075 169.249,-122.075"/>
<text text-anchor="middle" x="154.749" y="-110.875" font-family="Times,serif" font-size="9.00">&#45;17</text>
</g>
<!-- &#45;17&#45;&gt;1 -->
<g id="edge6" class="edge"><title>&#45;17&#45;&gt;1</title>
<path fill="none" stroke="green" stroke-width="0.662279" d="M157.721,-103.797C162.252,-91.18 171.049,-66.6838 177.584,-48.4847"/>
<polygon fill="green" stroke="green" stroke-width="0.662279" points="180.945,-49.4807 181.031,-38.8862 174.357,-47.1148 180.945,-49.4807"/>
</g>
<!-- &#45;18 -->
<g id="node18" class="node"><title>&#45;18</title>
<polygon fill="lightgray" stroke="black" points="656.249,-122.075 627.249,-122.075 627.249,-104.075 656.249,-104.075 656.249,-122.075"/>
<text text-anchor="middle" x="641.749" y="-110.875" font-family="Times,serif" font-size="9.00">&#45;18</text>
</g>
<!-- &#45;18&#45;&gt;2 -->
<g id="edge19" class="edge"><title>&#45;18&#45;&gt;2</title>
<path fill="none" stroke="green" stroke-width="0.155675" d="M641.749,-103.797C641.749,-91.5081 641.749,-67.9496 641.749,-49.9167"/>
<polygon fill="green" stroke="green" stroke-width="0.155675" points="645.249,-49.8091 641.749,-39.8091 638.249,-49.8091 645.249,-49.8091"/>
</g>
<!-- &#45;19 -->
<g id="node19" class="node"><title>&#45;19</title>
<polygon fill="lightgray" stroke="black" points="703.249,-122.075 674.249,-122.075 674.249,-104.075 703.249,-104.075 703.249,-122.075"/>
<text text-anchor="middle" x="688.749" y="-110.875" font-family="Times,serif" font-size="9.00">&#45;19</text>
</g>
<!-- &#45;19&#45;&gt;2 -->
<g id="edge11" class="edge"><title>&#45;19&#45;&gt;2</title>
<path fill="none" stroke="red" stroke-width="0.115486" d="M684.242,-103.797C677.199,-90.8602 663.356,-65.4344 653.381,-47.1133"/>
<polygon fill="red" stroke="red" stroke-width="0.115486" points="656.429,-45.393 648.574,-38.284 650.281,-48.7403 656.429,-45.393"/>
</g>
<!-- &#45;20 -->
<g id="node20" class="node"><title>&#45;20</title>
<polygon fill="lightgray" stroke="black" points="907.249,-122.075 878.249,-122.075 878.249,-104.075 907.249,-104.075 907.249,-122.075"/>
<text text-anchor="middle" x="892.749" y="-110.875" font-family="Times,serif" font-size="9.00">&#45;20</text>
</g>
<!-- &#45;20&#45;&gt;6941 -->
<g id="edge18" class="edge"><title>&#45;20&#45;&gt;6941</title>
<path fill="none" stroke="red" stroke-width="0.103888" d="M886.229,-103.797C877.087,-92.1922 860.029,-70.5376 846.197,-52.9767"/>
<polygon fill="red" stroke="red" stroke-width="0.103888" points="848.651,-50.4365 839.714,-44.7467 843.152,-54.7681 848.651,-50.4365"/>
</g>
<!-- &#45;21 -->
<g id="node21" class="node"><title>&#45;21</title>
<polygon fill="lightgray" stroke="black" points="528.249,-122.075 499.249,-122.075 499.249,-104.075 528.249,-104.075 528.249,-122.075"/>
<text text-anchor="middle" x="513.749" y="-110.875" font-family="Times,serif" font-size="9.00">&#45;21</text>
</g>
<!-- &#45;21&#45;&gt;0 -->
<g id="edge14" class="edge"><title>&#45;21&#45;&gt;0</title>
<path fill="none" stroke="green" stroke-width="3.28232" d="M507.22,-103.872C502.779,-98.4615 496.657,-91.3249 490.749,-85.4975 474.257,-69.2319 453.894,-52.3898 439.21,-40.7497"/>
<polygon fill="green" stroke="green" stroke-width="3.28232" points="441.322,-37.9579 431.293,-34.541 437.002,-43.4661 441.322,-37.9579"/>
</g>
<!-- &#45;21&#45;&gt;2 -->
<g id="edge26" class="edge"><title>&#45;21&#45;&gt;2</title>
<path fill="none" stroke="red" stroke-width="0.344482" d="M519.894,-104.016C524.432,-98.3989 530.975,-90.9628 537.749,-85.4975 563.467,-64.7474 597.265,-46.7632 619.242,-36.0895"/>
<polygon fill="red" stroke="red" stroke-width="0.344482" points="620.909,-39.1723 628.436,-31.7161 617.902,-32.8509 620.909,-39.1723"/>
</g>
<!-- &#45;22 -->
<g id="node22" class="node"><title>&#45;22</title>
<polygon fill="lightgray" stroke="black" points="255.249,-122.075 226.249,-122.075 226.249,-104.075 255.249,-104.075 255.249,-122.075"/>
<text text-anchor="middle" x="240.749" y="-110.875" font-family="Times,serif" font-size="9.00">&#45;22</text>
</g>
<!-- &#45;22&#45;&gt;1 -->
<g id="edge16" class="edge"><title>&#45;22&#45;&gt;1</title>
<path fill="none" stroke="red" stroke-width="0.435663" d="M235.475,-103.797C227.103,-90.6565 210.521,-64.6305 198.812,-46.2531"/>
<polygon fill="red" stroke="red" stroke-width="0.435663" points="201.683,-44.2455 193.358,-37.6925 195.78,-48.0069 201.683,-44.2455"/>
</g>
<!-- 3 -->
<g id="node28" class="node"><title>3</title>
<ellipse fill="lightblue" stroke="black" cx="251.749" cy="-24.7487" rx="14.7" ry="14.7"/>
<text text-anchor="middle" x="251.749" y="-22.5487" font-family="Times,serif" font-size="9.00">3</text>
</g>
<!-- &#45;22&#45;&gt;3 -->
<g id="edge25" class="edge"><title>&#45;22&#45;&gt;3</title>
<path fill="none" stroke="red" stroke-width="0.50369" d="M241.803,-103.797C243.378,-91.4379 246.406,-67.68 248.708,-49.6081"/>
<polygon fill="red" stroke="red" stroke-width="0.50369" points="252.204,-49.8611 249.997,-39.4989 245.261,-48.9763 252.204,-49.8611"/>
</g>
<!-- &#45;23 -->
<g id="node23" class="node"><title>&#45;23</title>
<polygon fill="lightgray" stroke="black" points="760.249,-210.401 731.249,-210.401 731.249,-192.401 760.249,-192.401 760.249,-210.401"/>
<text text-anchor="middle" x="745.749" y="-199.201" font-family="Times,serif" font-size="9.00">&#45;23</text>
</g>
<!-- &#45;23&#45;&gt;9899 -->
<g id="edge29" class="edge"><title>&#45;23&#45;&gt;9899</title>
<path fill="none" stroke="green" stroke-width="0.241043" d="M745.749,-192.123C745.749,-182.015 745.749,-164.282 745.749,-148.271"/>
<polygon fill="green" stroke="green" stroke-width="0.241043" points="749.249,-148.096 745.749,-138.096 742.249,-148.096 749.249,-148.096"/>
</g>
<!-- &#45;24 -->
<g id="node24" class="node"><title>&#45;24</title>
<polygon fill="lightgray" stroke="black" points="817.249,-122.075 788.249,-122.075 788.249,-104.075 817.249,-104.075 817.249,-122.075"/>
<text text-anchor="middle" x="802.749" y="-110.875" font-family="Times,serif" font-size="9.00">&#45;24</text>
</g>
<!-- &#45;24&#45;&gt;6941 -->
<g id="edge4" class="edge"><title>&#45;24&#45;&gt;6941</title>
<path fill="none" stroke="red" stroke-width="0.301748" d="M804.858,-103.797C807.494,-93.4529 812.166,-75.1239 816.319,-58.8267"/>
<polygon fill="red" stroke="red" stroke-width="0.301748" points="819.737,-59.5862 818.815,-49.0316 812.954,-57.8575 819.737,-59.5862"/>
</g>
<!-- 1&#45;&gt;1 -->
<g id="edge20" class="edge"><title>1&#45;&gt;1</title>
<path fill="none" stroke="red" stroke-width="0.188935" d="M194.829,-36.592C205.761,-45.5402 218.598,-41.5925 218.598,-24.7487 218.598,-12.5107 211.821,-7.08037 203.923,-8.45775"/>
<polygon fill="red" stroke="red" stroke-width="0.188935" points="202.275,-5.36758 194.829,-12.9055 205.35,-11.6557 202.275,-5.36758"/>
</g>
<!-- 2&#45;&gt;2 -->
<g id="edge17" class="edge"><title>2&#45;&gt;2</title>
<path fill="none" stroke="green" stroke-width="0.201158" d="M650.829,-36.592C661.761,-45.5402 674.598,-41.5925 674.598,-24.7487 674.598,-12.5107 667.821,-7.08037 659.923,-8.45775"/>
<polygon fill="green" stroke="green" stroke-width="0.201158" points="658.275,-5.36758 650.829,-12.9055 661.35,-11.6557 658.275,-5.36758"/>
</g>
<!-- 3&#45;&gt;3 -->
<g id="edge12" class="edge"><title>3&#45;&gt;3</title>
<path fill="none" stroke="green" stroke-width="0.229816" d="M260.829,-36.592C271.761,-45.5402 284.598,-41.5925 284.598,-24.7487 284.598,-12.5107 277.821,-7.08037 269.923,-8.45775"/>
<polygon fill="green" stroke="green" stroke-width="0.229816" points="268.275,-5.36758 260.829,-12.9055 271.35,-11.6557 268.275,-5.36758"/>
</g>
<!-- 4550 -->
<g id="node29" class="node"><title>4550</title>
<ellipse fill="white" stroke="black" cx="1023.75" cy="-201.401" rx="25" ry="25"/>
<text text-anchor="middle" x="1023.75" y="-199.201" font-family="Times,serif" font-size="9.00">4550</text>
</g>
<!-- 10026&#45;&gt;1 -->
<g id="edge30" class="edge"><title>10026&#45;&gt;1</title>
<path fill="none" stroke="red" stroke-width="0.146958" d="M114.494,-93.3432C130.341,-78.3102 152.403,-57.3818 167.764,-42.8096"/>
<polygon fill="red" stroke="red" stroke-width="0.146958" points="170.272,-45.2552 175.118,-35.8336 165.454,-40.1767 170.272,-45.2552"/>
</g>
<!-- 9899&#45;&gt;2 -->
<g id="edge34" class="edge"><title>9899&#45;&gt;2</title>
<path fill="none" stroke="red" stroke-width="0.21886" d="M727.156,-96.6413C708.409,-81.0806 679.617,-57.1817 660.733,-41.5064"/>
<polygon fill="red" stroke="red" stroke-width="0.21886" points="662.755,-38.6363 652.825,-34.9424 658.284,-44.0225 662.755,-38.6363"/>
</g>
<!-- 9899&#45;&gt;6941 -->
<g id="edge3" class="edge"><title>9899&#45;&gt;6941</title>
<path fill="none" stroke="red" stroke-width="0.355536" d="M762.118,-94.1879C773.452,-81.8029 788.708,-65.1311 801.326,-51.3432"/>
<polygon fill="red" stroke="red" stroke-width="0.355536" points="804.232,-53.3527 808.401,-43.6126 799.068,-48.6269 804.232,-53.3527"/>
</g>
<!-- 4017 -->
<g id="node33" class="node"><title>4017</title>
<ellipse fill="white" stroke="black" cx="24.7487" cy="-113.075" rx="25" ry="25"/>
<text text-anchor="middle" x="24.7487" y="-110.875" font-family="Times,serif" font-size="9.00">4017</text>
</g>
<!-- 4017&#45;&gt;1 -->
<g id="edge27" class="edge"><title>4017&#45;&gt;1</title>
<path fill="none" stroke="green" stroke-width="0.505308" d="M43.0132,-96.0755C47.659,-92.3731 52.7545,-88.6103 57.7487,-85.4975 92.4744,-63.8534 136.308,-45.042 162.626,-34.565"/>
<polygon fill="green" stroke="green" stroke-width="0.505308" points="164.084,-37.7529 172.118,-30.8463 161.531,-31.2352 164.084,-37.7529"/>
</g>
</g>
</svg>
