<?xml version="1.0" encoding="UTF-8" standalone="no"?>
<!DOCTYPE svg PUBLIC "-//W3C//DTD SVG 1.1//EN"
 "http://www.w3.org/Graphics/SVG/1.1/DTD/svg11.dtd">
<!-- Generated by graphviz version 2.38.0 (20140413.2041)
 -->
<!-- Title: %3 Pages: 1 -->
<svg width="1016pt" height="604pt"
 viewBox="0.00 0.00 1016.43 604.42" xmlns="http://www.w3.org/2000/svg" xmlns:xlink="http://www.w3.org/1999/xlink">
<g id="graph0" class="graph" transform="scale(1 1) rotate(0) translate(4 600.423)">
<title>%3</title>
<polygon fill="white" stroke="none" points="-4,4 -4,-600.423 1012.43,-600.423 1012.43,4 -4,4"/>
<!-- &#45;1 -->
<g id="node1" class="node"><title>&#45;1</title>
<polygon fill="lightgray" stroke="black" points="353.577,-310.04 329.577,-310.04 329.577,-292.04 353.577,-292.04 353.577,-310.04"/>
<text text-anchor="middle" x="341.577" y="-298.84" font-family="Times,serif" font-size="9.00">&#45;1</text>
</g>
<!-- 14752 -->
<g id="node34" class="node"><title>14752</title>
<ellipse fill="white" stroke="black" cx="267.577" cy="-209.886" rx="27.6545" ry="27.6545"/>
<text text-anchor="middle" x="267.577" y="-207.686" font-family="Times,serif" font-size="9.00">14752</text>
</g>
<!-- &#45;1&#45;&gt;14752 -->
<g id="edge13" class="edge"><title>&#45;1&#45;&gt;14752</title>
<path fill="none" stroke="red" stroke-width="1.41655" d="M334.748,-291.813C325.005,-280.075 306.627,-257.932 291.554,-239.772"/>
<polygon fill="red" stroke="red" stroke-width="1.41655" points="293.984,-237.22 284.904,-231.76 288.597,-241.691 293.984,-237.22"/>
</g>
<!-- 9931 -->
<g id="node41" class="node"><title>9931</title>
<ellipse fill="white" stroke="black" cx="417.577" cy="-118.731" rx="25" ry="25"/>
<text text-anchor="middle" x="417.577" y="-116.531" font-family="Times,serif" font-size="9.00">9931</text>
</g>
<!-- &#45;1&#45;&gt;9931 -->
<g id="edge9" class="edge"><title>&#45;1&#45;&gt;9931</title>
<path fill="none" stroke="green" stroke-width="0.368235" d="M343.647,-291.82C348.697,-272.313 362.567,-221.899 380.577,-182.309 385.791,-170.846 392.561,-158.814 398.883,-148.396"/>
<polygon fill="green" stroke="green" stroke-width="0.368235" points="401.973,-150.054 404.272,-139.712 396.025,-146.363 401.973,-150.054"/>
</g>
<!-- 10472 -->
<g id="node47" class="node"><title>10472</title>
<ellipse fill="white" stroke="black" cx="417.577" cy="-209.886" rx="27.6545" ry="27.6545"/>
<text text-anchor="middle" x="417.577" y="-207.686" font-family="Times,serif" font-size="9.00">10472</text>
</g>
<!-- &#45;1&#45;&gt;10472 -->
<g id="edge31" class="edge"><title>&#45;1&#45;&gt;10472</title>
<path fill="none" stroke="red" stroke-width="0.273196" d="M348.591,-291.813C358.661,-280 377.713,-257.65 393.248,-239.426"/>
<polygon fill="red" stroke="red" stroke-width="0.273196" points="396.27,-241.276 400.094,-231.396 390.943,-236.735 396.27,-241.276"/>
</g>
<!-- 6507 -->
<g id="node48" class="node"><title>6507</title>
<ellipse fill="white" stroke="black" cx="337.577" cy="-118.731" rx="25" ry="25"/>
<text text-anchor="middle" x="337.577" y="-116.531" font-family="Times,serif" font-size="9.00">6507</text>
</g>
<!-- &#45;1&#45;&gt;6507 -->
<g id="edge23" class="edge"><title>&#45;1&#45;&gt;6507</title>
<path fill="none" stroke="red" stroke-width="0.841617" d="M341.395,-291.824C340.862,-267.817 339.286,-196.772 338.334,-153.837"/>
<polygon fill="red" stroke="red" stroke-width="0.841617" points="341.827,-153.493 338.106,-143.573 334.829,-153.649 341.827,-153.493"/>
</g>
<!-- &#45;2 -->
<g id="node2" class="node"><title>&#45;2</title>
<polygon fill="lightgray" stroke="black" points="264.577,-577.846 240.577,-577.846 240.577,-559.846 264.577,-559.846 264.577,-577.846"/>
<text text-anchor="middle" x="252.577" y="-566.646" font-family="Times,serif" font-size="9.00">&#45;2</text>
</g>
<!-- &#45;3 -->
<g id="node3" class="node"><title>&#45;3</title>
<polygon fill="lightgray" stroke="black" points="222.577,-577.846 198.577,-577.846 198.577,-559.846 222.577,-559.846 222.577,-577.846"/>
<text text-anchor="middle" x="210.577" y="-566.646" font-family="Times,serif" font-size="9.00">&#45;3</text>
</g>
<!-- 2197 -->
<g id="node32" class="node"><title>2197</title>
<ellipse fill="white" stroke="black" cx="210.577" cy="-477.692" rx="25" ry="25"/>
<text text-anchor="middle" x="210.577" y="-475.492" font-family="Times,serif" font-size="9.00">2197</text>
</g>
<!-- &#45;3&#45;&gt;2197 -->
<g id="edge21" class="edge"><title>&#45;3&#45;&gt;2197</title>
<path fill="none" stroke="green" stroke-width="0.655815" d="M210.577,-559.619C210.577,-548.981 210.577,-529.797 210.577,-512.777"/>
<polygon fill="green" stroke="green" stroke-width="0.655815" points="214.077,-512.554 210.577,-502.554 207.077,-512.554 214.077,-512.554"/>
</g>
<!-- &#45;4 -->
<g id="node4" class="node"><title>&#45;4</title>
<polygon fill="lightgray" stroke="black" points="306.577,-577.846 282.577,-577.846 282.577,-559.846 306.577,-559.846 306.577,-577.846"/>
<text text-anchor="middle" x="294.577" y="-566.646" font-family="Times,serif" font-size="9.00">&#45;4</text>
</g>
<!-- &#45;5 -->
<g id="node5" class="node"><title>&#45;5</title>
<polygon fill="lightgray" stroke="black" points="690.577,-398.366 666.577,-398.366 666.577,-380.366 690.577,-380.366 690.577,-398.366"/>
<text text-anchor="middle" x="678.577" y="-387.166" font-family="Times,serif" font-size="9.00">&#45;5</text>
</g>
<!-- 2 -->
<g id="node27" class="node"><title>2</title>
<ellipse fill="lightblue" stroke="black" cx="627.577" cy="-301.04" rx="14.7" ry="14.7"/>
<text text-anchor="middle" x="627.577" y="-298.84" font-family="Times,serif" font-size="9.00">2</text>
</g>
<!-- &#45;5&#45;&gt;2 -->
<g id="edge37" class="edge"><title>&#45;5&#45;&gt;2</title>
<path fill="none" stroke="red" stroke-width="0.936253" d="M673.687,-380.089C666.002,-367.08 650.856,-341.443 640.019,-323.1"/>
<polygon fill="red" stroke="red" stroke-width="0.936253" points="642.907,-321.108 634.807,-314.278 636.88,-324.668 642.907,-321.108"/>
</g>
<!-- 12795 -->
<g id="node52" class="node"><title>12795</title>
<ellipse fill="white" stroke="black" cx="730.577" cy="-301.04" rx="27.6545" ry="27.6545"/>
<text text-anchor="middle" x="730.577" y="-298.84" font-family="Times,serif" font-size="9.00">12795</text>
</g>
<!-- &#45;5&#45;&gt;12795 -->
<g id="edge38" class="edge"><title>&#45;5&#45;&gt;12795</title>
<path fill="none" stroke="red" stroke-width="0.352087" d="M683.563,-380.089C689.955,-369.478 701.407,-350.466 711.408,-333.863"/>
<polygon fill="red" stroke="red" stroke-width="0.352087" points="714.611,-335.328 716.773,-324.956 708.615,-331.716 714.611,-335.328"/>
</g>
<!-- &#45;6 -->
<g id="node6" class="node"><title>&#45;6</title>
<polygon fill="lightgray" stroke="black" points="684.577,-310.04 660.577,-310.04 660.577,-292.04 684.577,-292.04 684.577,-310.04"/>
<text text-anchor="middle" x="672.577" y="-298.84" font-family="Times,serif" font-size="9.00">&#45;6</text>
</g>
<!-- 11577 -->
<g id="node39" class="node"><title>11577</title>
<ellipse fill="white" stroke="black" cx="747.577" cy="-118.731" rx="27.6545" ry="27.6545"/>
<text text-anchor="middle" x="747.577" y="-116.531" font-family="Times,serif" font-size="9.00">11577</text>
</g>
<!-- &#45;6&#45;&gt;11577 -->
<g id="edge15" class="edge"><title>&#45;6&#45;&gt;11577</title>
<path fill="none" stroke="green" stroke-width="0.635211" d="M675.995,-291.824C685.964,-267.856 715.436,-197.003 733.303,-154.048"/>
<polygon fill="green" stroke="green" stroke-width="0.635211" points="736.644,-155.13 737.253,-144.553 730.18,-152.442 736.644,-155.13"/>
</g>
<!-- 10861 -->
<g id="node50" class="node"><title>10861</title>
<ellipse fill="white" stroke="black" cx="765.577" cy="-209.886" rx="27.6545" ry="27.6545"/>
<text text-anchor="middle" x="765.577" y="-207.686" font-family="Times,serif" font-size="9.00">10861</text>
</g>
<!-- &#45;6&#45;&gt;10861 -->
<g id="edge14" class="edge"><title>&#45;6&#45;&gt;10861</title>
<path fill="none" stroke="green" stroke-width="0.259811" d="M678.454,-291.81C682.474,-286.388 688.056,-279.249 693.577,-273.463 706.738,-259.671 722.621,-245.63 736.116,-234.353"/>
<polygon fill="green" stroke="green" stroke-width="0.259811" points="738.677,-236.778 744.165,-227.715 734.223,-231.377 738.677,-236.778"/>
</g>
<!-- &#45;7 -->
<g id="node7" class="node"><title>&#45;7</title>
<polygon fill="lightgray" stroke="black" points="726.577,-486.692 702.577,-486.692 702.577,-468.692 726.577,-468.692 726.577,-486.692"/>
<text text-anchor="middle" x="714.577" y="-475.492" font-family="Times,serif" font-size="9.00">&#45;7</text>
</g>
<!-- 2831 -->
<g id="node31" class="node"><title>2831</title>
<ellipse fill="white" stroke="black" cx="894.577" cy="-118.731" rx="25" ry="25"/>
<text text-anchor="middle" x="894.577" y="-116.531" font-family="Times,serif" font-size="9.00">2831</text>
</g>
<!-- &#45;7&#45;&gt;2831 -->
<g id="edge12" class="edge"><title>&#45;7&#45;&gt;2831</title>
<path fill="none" stroke="green" stroke-width="0.846583" d="M726.791,-476.749C763.167,-476.262 872.123,-469.97 934.577,-414.115 1011.72,-345.126 1002.63,-274.983 956.577,-182.309 948.537,-166.131 934.717,-151.559 922.161,-140.556"/>
<polygon fill="green" stroke="green" stroke-width="0.846583" points="924.081,-137.598 914.167,-133.86 919.586,-142.964 924.081,-137.598"/>
</g>
<!-- 4505 -->
<g id="node33" class="node"><title>4505</title>
<ellipse fill="white" stroke="black" cx="900.577" cy="-389.366" rx="25" ry="25"/>
<text text-anchor="middle" x="900.577" y="-387.166" font-family="Times,serif" font-size="9.00">4505</text>
</g>
<!-- &#45;7&#45;&gt;4505 -->
<g id="edge29" class="edge"><title>&#45;7&#45;&gt;4505</title>
<path fill="none" stroke="red" stroke-width="0.586946" d="M726.781,-471.028C755.348,-457.769 827.304,-424.374 869.125,-404.964"/>
<polygon fill="red" stroke="red" stroke-width="0.586946" points="870.717,-408.083 878.314,-400.699 867.77,-401.734 870.717,-408.083"/>
</g>
<!-- 5851 -->
<g id="node46" class="node"><title>5851</title>
<ellipse fill="white" stroke="black" cx="82.5772" cy="-389.366" rx="25" ry="25"/>
<text text-anchor="middle" x="82.5772" y="-387.166" font-family="Times,serif" font-size="9.00">5851</text>
</g>
<!-- &#45;7&#45;&gt;5851 -->
<g id="edge25" class="edge"><title>&#45;7&#45;&gt;5851</title>
<path fill="none" stroke="red" stroke-width="0.170599" d="M702.276,-476.266C627.059,-473.533 228.677,-457.196 115.577,-414.115 113.697,-413.399 111.827,-412.548 109.987,-411.601"/>
<polygon fill="red" stroke="red" stroke-width="0.170599" points="111.511,-408.431 101.144,-406.246 107.885,-414.419 111.511,-408.431"/>
</g>
<!-- &#45;7&#45;&gt;6507 -->
<g id="edge2" class="edge"><title>&#45;7&#45;&gt;6507</title>
<path fill="none" stroke="green" stroke-width="1.35899" d="M706.044,-468.407C675.519,-438.585 569.475,-333.402 492.577,-237.463 473.96,-214.236 476.988,-201.901 454.577,-182.309 427.941,-159.022 414.684,-163.165 383.577,-146.309 378.278,-143.437 372.688,-140.3 367.299,-137.22"/>
<polygon fill="green" stroke="green" stroke-width="1.35899" points="368.92,-134.114 358.509,-132.147 365.421,-140.177 368.92,-134.114"/>
</g>
<!-- &#45;8 -->
<g id="node8" class="node"><title>&#45;8</title>
<polygon fill="lightgray" stroke="black" points="167.577,-577.846 143.577,-577.846 143.577,-559.846 167.577,-559.846 167.577,-577.846"/>
<text text-anchor="middle" x="155.577" y="-566.646" font-family="Times,serif" font-size="9.00">&#45;8</text>
</g>
<!-- &#45;8&#45;&gt;2197 -->
<g id="edge36" class="edge"><title>&#45;8&#45;&gt;2197</title>
<path fill="none" stroke="green" stroke-width="0.228228" d="M160.653,-559.619C167.875,-547.912 181.48,-525.858 192.666,-507.725"/>
<polygon fill="green" stroke="green" stroke-width="0.228228" points="195.653,-509.55 197.925,-499.202 189.695,-505.875 195.653,-509.55"/>
</g>
<!-- 17064 -->
<g id="node37" class="node"><title>17064</title>
<ellipse fill="white" stroke="black" cx="140.577" cy="-477.692" rx="27.6545" ry="27.6545"/>
<text text-anchor="middle" x="140.577" y="-475.492" font-family="Times,serif" font-size="9.00">17064</text>
</g>
<!-- &#45;8&#45;&gt;17064 -->
<g id="edge10" class="edge"><title>&#45;8&#45;&gt;17064</title>
<path fill="none" stroke="red" stroke-width="0.166727" d="M154.193,-559.619C152.487,-549.48 149.476,-531.58 146.718,-515.189"/>
<polygon fill="red" stroke="red" stroke-width="0.166727" points="150.158,-514.541 145.047,-505.26 143.255,-515.702 150.158,-514.541"/>
</g>
<!-- &#45;9 -->
<g id="node9" class="node"><title>&#45;9</title>
<polygon fill="lightgray" stroke="black" points="348.577,-577.846 324.577,-577.846 324.577,-559.846 348.577,-559.846 348.577,-577.846"/>
<text text-anchor="middle" x="336.577" y="-566.646" font-family="Times,serif" font-size="9.00">&#45;9</text>
</g>
<!-- &#45;10 -->
<g id="node10" class="node"><title>&#45;10</title>
<polygon fill="lightgray" stroke="black" points="396.077,-577.846 367.077,-577.846 367.077,-559.846 396.077,-559.846 396.077,-577.846"/>
<text text-anchor="middle" x="381.577" y="-566.646" font-family="Times,serif" font-size="9.00">&#45;10</text>
</g>
<!-- &#45;11 -->
<g id="node11" class="node"><title>&#45;11</title>
<polygon fill="lightgray" stroke="black" points="443.077,-577.846 414.077,-577.846 414.077,-559.846 443.077,-559.846 443.077,-577.846"/>
<text text-anchor="middle" x="428.577" y="-566.646" font-family="Times,serif" font-size="9.00">&#45;11</text>
</g>
<!-- &#45;12 -->
<g id="node12" class="node"><title>&#45;12</title>
<polygon fill="lightgray" stroke="black" points="643.077,-218.886 614.077,-218.886 614.077,-200.886 643.077,-200.886 643.077,-218.886"/>
<text text-anchor="middle" x="628.577" y="-207.686" font-family="Times,serif" font-size="9.00">&#45;12</text>
</g>
<!-- &#45;12&#45;&gt;9931 -->
<g id="edge7" class="edge"><title>&#45;12&#45;&gt;9931</title>
<path fill="none" stroke="red" stroke-width="1.46408" d="M621.172,-200.471C615.697,-194.686 607.795,-187.196 599.577,-182.309 551.933,-153.975 489.605,-136.084 451.635,-127"/>
<polygon fill="red" stroke="red" stroke-width="1.46408" points="452.136,-123.524 441.604,-124.67 450.552,-130.342 452.136,-123.524"/>
</g>
<!-- &#45;13 -->
<g id="node13" class="node"><title>&#45;13</title>
<polygon fill="lightgray" stroke="black" points="490.077,-577.846 461.077,-577.846 461.077,-559.846 490.077,-559.846 490.077,-577.846"/>
<text text-anchor="middle" x="475.577" y="-566.646" font-family="Times,serif" font-size="9.00">&#45;13</text>
</g>
<!-- &#45;14 -->
<g id="node14" class="node"><title>&#45;14</title>
<polygon fill="lightgray" stroke="black" points="829.077,-398.366 800.077,-398.366 800.077,-380.366 829.077,-380.366 829.077,-398.366"/>
<text text-anchor="middle" x="814.577" y="-387.166" font-family="Times,serif" font-size="9.00">&#45;14</text>
</g>
<!-- 12988 -->
<g id="node40" class="node"><title>12988</title>
<ellipse fill="white" stroke="black" cx="915.577" cy="-301.04" rx="27.6545" ry="27.6545"/>
<text text-anchor="middle" x="915.577" y="-298.84" font-family="Times,serif" font-size="9.00">12988</text>
</g>
<!-- &#45;14&#45;&gt;12988 -->
<g id="edge34" class="edge"><title>&#45;14&#45;&gt;12988</title>
<path fill="none" stroke="red" stroke-width="0.326053" d="M824.261,-380.089C838.622,-367.815 866.133,-344.3 887.221,-326.276"/>
<polygon fill="red" stroke="red" stroke-width="0.326053" points="889.62,-328.83 894.948,-319.672 885.072,-323.509 889.62,-328.83"/>
</g>
<!-- &#45;14&#45;&gt;10861 -->
<g id="edge1" class="edge"><title>&#45;14&#45;&gt;10861</title>
<path fill="none" stroke="green" stroke-width="0.244755" d="M812.344,-380.279C805.914,-356.987 787.065,-288.716 775.353,-246.294"/>
<polygon fill="green" stroke="green" stroke-width="0.244755" points="778.719,-245.334 772.684,-236.626 771.971,-247.197 778.719,-245.334"/>
</g>
<!-- 13815 -->
<g id="node51" class="node"><title>13815</title>
<ellipse fill="white" stroke="black" cx="842.577" cy="-301.04" rx="27.6545" ry="27.6545"/>
<text text-anchor="middle" x="842.577" y="-298.84" font-family="Times,serif" font-size="9.00">13815</text>
</g>
<!-- &#45;14&#45;&gt;13815 -->
<g id="edge39" class="edge"><title>&#45;14&#45;&gt;13815</title>
<path fill="none" stroke="green" stroke-width="0.339646" d="M817.262,-380.089C820.481,-370.164 826.084,-352.888 831.202,-337.11"/>
<polygon fill="green" stroke="green" stroke-width="0.339646" points="834.544,-338.15 834.301,-327.558 827.886,-335.99 834.544,-338.15"/>
</g>
<!-- &#45;14&#45;&gt;12795 -->
<g id="edge43" class="edge"><title>&#45;14&#45;&gt;12795</title>
<path fill="none" stroke="red" stroke-width="0.338508" d="M806.523,-380.089C795.097,-368.346 773.66,-346.316 756.467,-328.647"/>
<polygon fill="red" stroke="red" stroke-width="0.338508" points="758.883,-326.111 749.401,-321.385 753.866,-330.993 758.883,-326.111"/>
</g>
<!-- &#45;15 -->
<g id="node15" class="node"><title>&#45;15</title>
<polygon fill="lightgray" stroke="black" points="537.077,-577.846 508.077,-577.846 508.077,-559.846 537.077,-559.846 537.077,-577.846"/>
<text text-anchor="middle" x="522.577" y="-566.646" font-family="Times,serif" font-size="9.00">&#45;15</text>
</g>
<!-- &#45;16 -->
<g id="node16" class="node"><title>&#45;16</title>
<polygon fill="lightgray" stroke="black" points="584.077,-577.846 555.077,-577.846 555.077,-559.846 584.077,-559.846 584.077,-577.846"/>
<text text-anchor="middle" x="569.577" y="-566.646" font-family="Times,serif" font-size="9.00">&#45;16</text>
</g>
<!-- &#45;17 -->
<g id="node17" class="node"><title>&#45;17</title>
<polygon fill="lightgray" stroke="black" points="631.077,-577.846 602.077,-577.846 602.077,-559.846 631.077,-559.846 631.077,-577.846"/>
<text text-anchor="middle" x="616.577" y="-566.646" font-family="Times,serif" font-size="9.00">&#45;17</text>
</g>
<!-- &#45;18 -->
<g id="node18" class="node"><title>&#45;18</title>
<polygon fill="lightgray" stroke="black" points="678.077,-577.846 649.077,-577.846 649.077,-559.846 678.077,-559.846 678.077,-577.846"/>
<text text-anchor="middle" x="663.577" y="-566.646" font-family="Times,serif" font-size="9.00">&#45;18</text>
</g>
<!-- &#45;19 -->
<g id="node19" class="node"><title>&#45;19</title>
<polygon fill="lightgray" stroke="black" points="38.0772,-577.846 9.07716,-577.846 9.07716,-559.846 38.0772,-559.846 38.0772,-577.846"/>
<text text-anchor="middle" x="23.5772" y="-566.646" font-family="Times,serif" font-size="9.00">&#45;19</text>
</g>
<!-- 13963 -->
<g id="node29" class="node"><title>13963</title>
<ellipse fill="white" stroke="black" cx="27.5772" cy="-477.692" rx="27.6545" ry="27.6545"/>
<text text-anchor="middle" x="27.5772" y="-475.492" font-family="Times,serif" font-size="9.00">13963</text>
</g>
<!-- &#45;19&#45;&gt;13963 -->
<g id="edge16" class="edge"><title>&#45;19&#45;&gt;13963</title>
<path fill="none" stroke="green" stroke-width="0.357071" d="M23.9463,-559.619C24.3969,-549.576 25.1892,-531.917 25.9189,-515.653"/>
<polygon fill="green" stroke="green" stroke-width="0.357071" points="29.4333,-515.407 26.3852,-505.26 22.4404,-515.093 29.4333,-515.407"/>
</g>
<!-- &#45;20 -->
<g id="node20" class="node"><title>&#45;20</title>
<polygon fill="lightgray" stroke="black" points="725.077,-577.846 696.077,-577.846 696.077,-559.846 725.077,-559.846 725.077,-577.846"/>
<text text-anchor="middle" x="710.577" y="-566.646" font-family="Times,serif" font-size="9.00">&#45;20</text>
</g>
<!-- &#45;21 -->
<g id="node21" class="node"><title>&#45;21</title>
<polygon fill="lightgray" stroke="black" points="772.077,-577.846 743.077,-577.846 743.077,-559.846 772.077,-559.846 772.077,-577.846"/>
<text text-anchor="middle" x="757.577" y="-566.646" font-family="Times,serif" font-size="9.00">&#45;21</text>
</g>
<!-- &#45;22 -->
<g id="node22" class="node"><title>&#45;22</title>
<polygon fill="lightgray" stroke="black" points="819.077,-577.846 790.077,-577.846 790.077,-559.846 819.077,-559.846 819.077,-577.846"/>
<text text-anchor="middle" x="804.577" y="-566.646" font-family="Times,serif" font-size="9.00">&#45;22</text>
</g>
<!-- &#45;23 -->
<g id="node23" class="node"><title>&#45;23</title>
<polygon fill="lightgray" stroke="black" points="866.077,-577.846 837.077,-577.846 837.077,-559.846 866.077,-559.846 866.077,-577.846"/>
<text text-anchor="middle" x="851.577" y="-566.646" font-family="Times,serif" font-size="9.00">&#45;23</text>
</g>
<!-- &#45;24 -->
<g id="node24" class="node"><title>&#45;24</title>
<polygon fill="lightgray" stroke="black" points="913.077,-577.846 884.077,-577.846 884.077,-559.846 913.077,-559.846 913.077,-577.846"/>
<text text-anchor="middle" x="898.577" y="-566.646" font-family="Times,serif" font-size="9.00">&#45;24</text>
</g>
<!-- 0 -->
<g id="node25" class="node"><title>0</title>
<ellipse fill="lightblue" stroke="black" cx="945.577" cy="-568.846" rx="14.7" ry="14.7"/>
<text text-anchor="middle" x="945.577" y="-566.646" font-family="Times,serif" font-size="9.00">0</text>
</g>
<!-- 1 -->
<g id="node26" class="node"><title>1</title>
<ellipse fill="lightblue" stroke="black" cx="284.577" cy="-27.5772" rx="14.7" ry="14.7"/>
<text text-anchor="middle" x="284.577" y="-25.3772" font-family="Times,serif" font-size="9.00">1</text>
</g>
<!-- 2&#45;&gt;2831 -->
<g id="edge48" class="edge"><title>2&#45;&gt;2831</title>
<path fill="none" stroke="green" stroke-width="0.698785" d="M634.951,-287.943C649.849,-264.44 685.788,-212.286 728.577,-182.309 769.558,-153.598 825.38,-136.126 860.701,-127.19"/>
<polygon fill="green" stroke="green" stroke-width="0.698785" points="861.643,-130.563 870.527,-124.791 859.983,-123.763 861.643,-130.563"/>
</g>
<!-- 16436 -->
<g id="node38" class="node"><title>16436</title>
<ellipse fill="white" stroke="black" cx="529.577" cy="-209.886" rx="27.6545" ry="27.6545"/>
<text text-anchor="middle" x="529.577" y="-207.686" font-family="Times,serif" font-size="9.00">16436</text>
</g>
<!-- 2&#45;&gt;16436 -->
<g id="edge45" class="edge"><title>2&#45;&gt;16436</title>
<path fill="none" stroke="red" stroke-width="0.379191" d="M617.089,-290.499C602.966,-277.65 577.311,-254.311 557.416,-236.212"/>
<polygon fill="red" stroke="red" stroke-width="0.379191" points="559.591,-233.459 549.838,-229.318 554.88,-238.636 559.591,-233.459"/>
</g>
<!-- 2&#45;&gt;6507 -->
<g id="edge6" class="edge"><title>2&#45;&gt;6507</title>
<path fill="none" stroke="green" stroke-width="0.432232" d="M622.41,-286.754C611.329,-258.932 584.809,-195.983 566.577,-182.309 500.263,-132.574 461.183,-175.438 383.577,-146.309 377.935,-144.191 372.176,-141.423 366.727,-138.474"/>
<polygon fill="green" stroke="green" stroke-width="0.432232" points="368.342,-135.365 357.927,-133.424 364.858,-141.437 368.342,-135.365"/>
</g>
<!-- 2&#45;&gt;10861 -->
<g id="edge33" class="edge"><title>2&#45;&gt;10861</title>
<path fill="none" stroke="green" stroke-width="0.180916" d="M636.185,-288.902C640.463,-283.813 645.921,-277.937 651.577,-273.463 676.168,-254.014 707.625,-237.252 731.263,-225.984"/>
<polygon fill="green" stroke="green" stroke-width="0.180916" points="732.97,-229.05 740.55,-221.647 730.008,-222.708 732.97,-229.05"/>
</g>
<!-- 3 -->
<g id="node28" class="node"><title>3</title>
<ellipse fill="lightblue" stroke="black" cx="993.577" cy="-568.846" rx="14.7" ry="14.7"/>
<text text-anchor="middle" x="993.577" y="-566.646" font-family="Times,serif" font-size="9.00">3</text>
</g>
<!-- 13963&#45;&gt;5851 -->
<g id="edge46" class="edge"><title>13963&#45;&gt;5851</title>
<path fill="none" stroke="green" stroke-width="0.392269" d="M42.0278,-454.011C48.8085,-443.368 56.9671,-430.563 64.1829,-419.237"/>
<polygon fill="green" stroke="green" stroke-width="0.392269" points="67.3018,-420.855 69.7233,-410.541 61.3982,-417.094 67.3018,-420.855"/>
</g>
<!-- 13327 -->
<g id="node30" class="node"><title>13327</title>
<ellipse fill="white" stroke="black" cx="83.5772" cy="-568.846" rx="27.6545" ry="27.6545"/>
<text text-anchor="middle" x="83.5772" y="-566.646" font-family="Times,serif" font-size="9.00">13327</text>
</g>
<!-- 13327&#45;&gt;13963 -->
<g id="edge18" class="edge"><title>13327&#45;&gt;13963</title>
<path fill="none" stroke="green" stroke-width="0.259621" d="M69.1558,-544.887C62.5584,-534.384 54.634,-521.768 47.4809,-510.38"/>
<polygon fill="green" stroke="green" stroke-width="0.259621" points="50.2326,-508.18 41.9497,-501.574 44.3049,-511.903 50.2326,-508.18"/>
</g>
<!-- 13327&#45;&gt;5851 -->
<g id="edge28" class="edge"><title>13327&#45;&gt;5851</title>
<path fill="none" stroke="green" stroke-width="0.9407" d="M83.4253,-540.891C83.2498,-509.74 82.9606,-458.425 82.7695,-424.51"/>
<polygon fill="green" stroke="green" stroke-width="0.9407" points="86.2676,-424.138 82.7112,-414.158 79.2677,-424.178 86.2676,-424.138"/>
</g>
<!-- 2831&#45;&gt;1 -->
<g id="edge8" class="edge"><title>2831&#45;&gt;1</title>
<path fill="none" stroke="red" stroke-width="0.29269" d="M870.753,-110.892C848.613,-104.796 814.626,-96.0952 784.577,-91.1543 606.699,-61.906 557.949,-87.3348 380.577,-55.1543 355.452,-50.5959 327.374,-42.4543 308.107,-36.3794"/>
<polygon fill="red" stroke="red" stroke-width="0.29269" points="308.976,-32.9824 298.384,-33.253 306.833,-39.6463 308.976,-32.9824"/>
</g>
<!-- 2197&#45;&gt;1 -->
<g id="edge41" class="edge"><title>2197&#45;&gt;1</title>
<path fill="none" stroke="green" stroke-width="0.835049" d="M210.802,-452.679C211.096,-419.011 211.577,-355.862 211.577,-302.04 211.577,-302.04 211.577,-302.04 211.577,-208.886 211.577,-146.796 249.228,-80.8907 270.451,-48.6743"/>
<polygon fill="green" stroke="green" stroke-width="0.835049" points="273.508,-50.401 276.203,-40.1547 267.706,-46.4839 273.508,-50.401"/>
</g>
<!-- 4505&#45;&gt;2831 -->
<g id="edge40" class="edge"><title>4505&#45;&gt;2831</title>
<path fill="none" stroke="red" stroke-width="1.32356" d="M919.559,-373.075C931.546,-362.133 945.974,-346.262 952.577,-328.617 976.123,-265.697 938.635,-188.965 913.779,-148.273"/>
<polygon fill="red" stroke="red" stroke-width="1.32356" points="916.668,-146.291 908.388,-139.68 910.738,-150.011 916.668,-146.291"/>
</g>
<!-- 14752&#45;&gt;6507 -->
<g id="edge24" class="edge"><title>14752&#45;&gt;6507</title>
<path fill="none" stroke="red" stroke-width="0.426767" d="M284.166,-187.757C293.784,-175.508 305.995,-159.956 316.313,-146.815"/>
<polygon fill="red" stroke="red" stroke-width="0.426767" points="319.351,-148.613 322.773,-138.586 313.845,-144.29 319.351,-148.613"/>
</g>
<!-- 12709 -->
<g id="node35" class="node"><title>12709</title>
<ellipse fill="white" stroke="black" cx="417.577" cy="-27.5772" rx="27.6545" ry="27.6545"/>
<text text-anchor="middle" x="417.577" y="-25.3772" font-family="Times,serif" font-size="9.00">12709</text>
</g>
<!-- 7718 -->
<g id="node36" class="node"><title>7718</title>
<ellipse fill="white" stroke="black" cx="149.577" cy="-389.366" rx="25" ry="25"/>
<text text-anchor="middle" x="149.577" y="-387.166" font-family="Times,serif" font-size="9.00">7718</text>
</g>
<!-- 10705 -->
<g id="node43" class="node"><title>10705</title>
<ellipse fill="white" stroke="black" cx="155.577" cy="-209.886" rx="27.6545" ry="27.6545"/>
<text text-anchor="middle" x="155.577" y="-207.686" font-family="Times,serif" font-size="9.00">10705</text>
</g>
<!-- 7718&#45;&gt;10705 -->
<g id="edge49" class="edge"><title>7718&#45;&gt;10705</title>
<path fill="none" stroke="red" stroke-width="0.377421" d="M150.386,-364.43C151.398,-334.504 153.141,-282.959 154.325,-247.924"/>
<polygon fill="red" stroke="red" stroke-width="0.377421" points="157.833,-247.736 154.673,-237.623 150.837,-247.499 157.833,-247.736"/>
</g>
<!-- 12629 -->
<g id="node44" class="node"><title>12629</title>
<ellipse fill="white" stroke="black" cx="79.5772" cy="-301.04" rx="27.6545" ry="27.6545"/>
<text text-anchor="middle" x="79.5772" y="-298.84" font-family="Times,serif" font-size="9.00">12629</text>
</g>
<!-- 7718&#45;&gt;12629 -->
<g id="edge44" class="edge"><title>7718&#45;&gt;12629</title>
<path fill="none" stroke="red" stroke-width="0.523791" d="M134.388,-369.635C125.218,-358.326 113.343,-343.682 102.992,-330.916"/>
<polygon fill="red" stroke="red" stroke-width="0.523791" points="105.471,-328.416 96.4539,-322.853 100.034,-332.825 105.471,-328.416"/>
</g>
<!-- 11243 -->
<g id="node49" class="node"><title>11243</title>
<ellipse fill="white" stroke="black" cx="82.5772" cy="-209.886" rx="27.6545" ry="27.6545"/>
<text text-anchor="middle" x="82.5772" y="-207.686" font-family="Times,serif" font-size="9.00">11243</text>
</g>
<!-- 7718&#45;&gt;11243 -->
<g id="edge30" class="edge"><title>7718&#45;&gt;11243</title>
<path fill="none" stroke="green" stroke-width="1.45572" d="M144.445,-364.975C138.906,-341.395 129.162,-304.194 116.577,-273.463 112.352,-263.145 106.884,-252.331 101.574,-242.651"/>
<polygon fill="green" stroke="green" stroke-width="1.45572" points="104.531,-240.769 96.5764,-233.771 98.4306,-244.202 104.531,-240.769"/>
</g>
<!-- 17064&#45;&gt;5851 -->
<g id="edge35" class="edge"><title>17064&#45;&gt;5851</title>
<path fill="none" stroke="red" stroke-width="0.32733" d="M125.641,-454.461C118.366,-443.633 109.533,-430.486 101.764,-418.924"/>
<polygon fill="red" stroke="red" stroke-width="0.32733" points="104.557,-416.804 96.075,-410.456 98.7467,-420.708 104.557,-416.804"/>
</g>
<!-- 16436&#45;&gt;6507 -->
<g id="edge22" class="edge"><title>16436&#45;&gt;6507</title>
<path fill="none" stroke="red" stroke-width="1.24463" d="M507.02,-193.273C500.875,-189.395 494.108,-185.453 487.577,-182.309 443.506,-161.09 428.066,-166.636 383.577,-146.309 378.095,-143.804 372.415,-140.846 366.995,-137.83"/>
<polygon fill="red" stroke="red" stroke-width="1.24463" points="368.612,-134.723 358.199,-132.769 365.121,-140.79 368.612,-134.723"/>
</g>
<!-- 9931&#45;&gt;12709 -->
<g id="edge4" class="edge"><title>9931&#45;&gt;12709</title>
<path fill="none" stroke="red" stroke-width="0.126554" d="M417.577,-93.8398C417.577,-85.1277 417.577,-75.0612 417.577,-65.482"/>
<polygon fill="red" stroke="red" stroke-width="0.126554" points="421.077,-65.366 417.577,-55.3661 414.077,-65.3661 421.077,-65.366"/>
</g>
<!-- 13515 -->
<g id="node42" class="node"><title>13515</title>
<ellipse fill="white" stroke="black" cx="877.577" cy="-209.886" rx="27.6545" ry="27.6545"/>
<text text-anchor="middle" x="877.577" y="-207.686" font-family="Times,serif" font-size="9.00">13515</text>
</g>
<!-- 13515&#45;&gt;11577 -->
<g id="edge17" class="edge"><title>13515&#45;&gt;11577</title>
<path fill="none" stroke="green" stroke-width="0.214841" d="M855.229,-193.56C834.022,-179.016 801.97,-157.035 778.352,-140.837"/>
<polygon fill="green" stroke="green" stroke-width="0.214841" points="780.295,-137.925 770.068,-135.156 776.336,-143.698 780.295,-137.925"/>
</g>
<!-- 10705&#45;&gt;6507 -->
<g id="edge5" class="edge"><title>10705&#45;&gt;6507</title>
<path fill="none" stroke="green" stroke-width="0.224422" d="M180.122,-196.862C212.9,-180.806 270.968,-152.36 306.686,-134.864"/>
<polygon fill="green" stroke="green" stroke-width="0.224422" points="308.251,-137.995 315.692,-130.452 305.171,-131.708 308.251,-137.995"/>
</g>
<!-- 12629&#45;&gt;11243 -->
<g id="edge47" class="edge"><title>12629&#45;&gt;11243</title>
<path fill="none" stroke="green" stroke-width="0.484328" d="M80.4773,-273.291C80.7472,-265.269 81.0482,-256.324 81.336,-247.769"/>
<polygon fill="green" stroke="green" stroke-width="0.484328" points="84.8393,-247.728 81.6777,-237.616 77.8433,-247.493 84.8393,-247.728"/>
</g>
<!-- 12501 -->
<g id="node45" class="node"><title>12501</title>
<ellipse fill="white" stroke="black" cx="417.577" cy="-301.04" rx="27.6545" ry="27.6545"/>
<text text-anchor="middle" x="417.577" y="-298.84" font-family="Times,serif" font-size="9.00">12501</text>
</g>
<!-- 12501&#45;&gt;10472 -->
<g id="edge32" class="edge"><title>12501&#45;&gt;10472</title>
<path fill="none" stroke="red" stroke-width="0.982172" d="M417.577,-273.291C417.577,-265.269 417.577,-256.324 417.577,-247.769"/>
<polygon fill="red" stroke="red" stroke-width="0.982172" points="421.077,-247.616 417.577,-237.616 414.077,-247.616 421.077,-247.616"/>
</g>
<!-- 5851&#45;&gt;12629 -->
<g id="edge50" class="edge"><title>5851&#45;&gt;12629</title>
<path fill="none" stroke="green" stroke-width="0.40613" d="M81.7415,-364.319C81.4679,-356.446 81.1573,-347.508 80.8585,-338.911"/>
<polygon fill="green" stroke="green" stroke-width="0.40613" points="84.3485,-338.56 80.5032,-328.688 77.3527,-338.803 84.3485,-338.56"/>
</g>
<!-- 10472&#45;&gt;9931 -->
<g id="edge42" class="edge"><title>10472&#45;&gt;9931</title>
<path fill="none" stroke="green" stroke-width="0.178435" d="M417.577,-182.137C417.577,-173.267 417.577,-163.271 417.577,-153.92"/>
<polygon fill="green" stroke="green" stroke-width="0.178435" points="421.077,-153.731 417.577,-143.731 414.077,-153.731 421.077,-153.731"/>
</g>
<!-- 11243&#45;&gt;6507 -->
<g id="edge3" class="edge"><title>11243&#45;&gt;6507</title>
<path fill="none" stroke="red" stroke-width="0.503774" d="M103.47,-191.534C108.234,-188.137 113.419,-184.846 118.577,-182.309 180.169,-152.013 258.924,-134.031 303.249,-125.593"/>
<polygon fill="red" stroke="red" stroke-width="0.503774" points="304.023,-129.009 313.219,-123.746 302.748,-122.126 304.023,-129.009"/>
</g>
<!-- 10861&#45;&gt;2831 -->
<g id="edge20" class="edge"><title>10861&#45;&gt;2831</title>
<path fill="none" stroke="green" stroke-width="0.513518" d="M788.047,-193.356C809.682,-178.404 842.492,-155.729 865.98,-139.496"/>
<polygon fill="green" stroke="green" stroke-width="0.513518" points="868.246,-142.184 874.483,-133.619 864.266,-136.425 868.246,-142.184"/>
</g>
<!-- 13815&#45;&gt;2831 -->
<g id="edge11" class="edge"><title>13815&#45;&gt;2831</title>
<path fill="none" stroke="red" stroke-width="0.190656" d="M864.501,-284.235C883.655,-269.883 909.22,-249.217 914.577,-237.463 927.198,-209.773 918.772,-175.133 909.284,-150.616"/>
<polygon fill="red" stroke="red" stroke-width="0.190656" points="912.408,-149.009 905.355,-141.103 905.938,-151.682 912.408,-149.009"/>
</g>
<!-- 13815&#45;&gt;13515 -->
<g id="edge26" class="edge"><title>13815&#45;&gt;13515</title>
<path fill="none" stroke="green" stroke-width="0.883848" d="M852.327,-275.206C855.937,-266.009 860.099,-255.407 863.989,-245.497"/>
<polygon fill="green" stroke="green" stroke-width="0.883848" points="867.362,-246.484 867.759,-235.896 860.846,-243.926 867.362,-246.484"/>
</g>
<!-- 13815&#45;&gt;6507 -->
<g id="edge19" class="edge"><title>13815&#45;&gt;6507</title>
<path fill="none" stroke="green" stroke-width="0.84937" d="M841.543,-273.308C838.919,-245.803 830.277,-204.007 802.577,-182.309 729.007,-124.679 472.723,-174.355 383.577,-146.309 377.828,-144.5 372.017,-141.883 366.55,-138.988"/>
<polygon fill="green" stroke="green" stroke-width="0.84937" points="368.164,-135.879 357.746,-133.948 364.686,-141.954 368.164,-135.879"/>
</g>
<!-- 12795&#45;&gt;10861 -->
<g id="edge27" class="edge"><title>12795&#45;&gt;10861</title>
<path fill="none" stroke="green" stroke-width="0.591409" d="M740.327,-275.206C743.937,-266.009 748.099,-255.407 751.989,-245.497"/>
<polygon fill="green" stroke="green" stroke-width="0.591409" points="755.362,-246.484 755.759,-235.896 748.846,-243.926 755.362,-246.484"/>
</g>
</g>
</svg>
