<?xml version="1.0" encoding="UTF-8" standalone="no"?>
<!DOCTYPE svg PUBLIC "-//W3C//DTD SVG 1.1//EN"
 "http://www.w3.org/Graphics/SVG/1.1/DTD/svg11.dtd">
<!-- Generated by graphviz version 2.38.0 (20140413.2041)
 -->
<!-- Title: %3 Pages: 1 -->
<svg width="1941pt" height="750pt"
 viewBox="0.00 0.00 1941.36 749.96" xmlns="http://www.w3.org/2000/svg" xmlns:xlink="http://www.w3.org/1999/xlink">
<g id="graph0" class="graph" transform="scale(1 1) rotate(0) translate(4 745.963)">
<title>%3</title>
<polygon fill="white" stroke="none" points="-4,4 -4,-745.963 1937.36,-745.963 1937.36,4 -4,4"/>
<!-- &#45;1 -->
<g id="node1" class="node"><title>&#45;1</title>
<polygon fill="lightgray" stroke="black" points="768.51,-723.385 744.51,-723.385 744.51,-705.385 768.51,-705.385 768.51,-723.385"/>
<text text-anchor="middle" x="756.51" y="-712.185" font-family="Times,serif" font-size="9.00">&#45;1</text>
</g>
<!-- 14752 -->
<g id="node34" class="node"><title>14752</title>
<ellipse fill="white" stroke="black" cx="883.51" cy="-355.425" rx="27.6545" ry="27.6545"/>
<text text-anchor="middle" x="883.51" y="-353.225" font-family="Times,serif" font-size="9.00">14752</text>
</g>
<!-- &#45;1&#45;&gt;14752 -->
<g id="edge16" class="edge"><title>&#45;1&#45;&gt;14752</title>
<path fill="none" stroke="red" stroke-width="1.41655" d="M768.792,-708.187C787.865,-699.413 824.205,-679.746 841.51,-650.808 890.4,-569.054 890.633,-452.218 886.951,-393.344"/>
<polygon fill="red" stroke="red" stroke-width="1.41655" points="890.42,-392.777 886.228,-383.046 883.437,-393.267 890.42,-392.777"/>
</g>
<!-- 9931 -->
<g id="node41" class="node"><title>9931</title>
<ellipse fill="white" stroke="black" cx="666.51" cy="-534.905" rx="25" ry="25"/>
<text text-anchor="middle" x="666.51" y="-532.705" font-family="Times,serif" font-size="9.00">9931</text>
</g>
<!-- &#45;1&#45;&gt;9931 -->
<g id="edge9" class="edge"><title>&#45;1&#45;&gt;9931</title>
<path fill="none" stroke="green" stroke-width="0.368235" d="M752.409,-705.298C740.127,-681.077 703.177,-608.212 681.954,-566.36"/>
<polygon fill="green" stroke="green" stroke-width="0.368235" points="684.944,-564.518 677.3,-557.183 678.701,-567.684 684.944,-564.518"/>
</g>
<!-- 10472 -->
<g id="node47" class="node"><title>10472</title>
<ellipse fill="white" stroke="black" cx="555.51" cy="-623.231" rx="27.6545" ry="27.6545"/>
<text text-anchor="middle" x="555.51" y="-621.031" font-family="Times,serif" font-size="9.00">10472</text>
</g>
<!-- &#45;1&#45;&gt;10472 -->
<g id="edge42" class="edge"><title>&#45;1&#45;&gt;10472</title>
<path fill="none" stroke="red" stroke-width="0.273196" d="M744.421,-710.044C716.459,-702.053 645.575,-680.289 591.51,-650.808 589.302,-649.604 587.077,-648.28 584.874,-646.884"/>
<polygon fill="red" stroke="red" stroke-width="0.273196" points="586.813,-643.971 576.572,-641.257 582.886,-649.765 586.813,-643.971"/>
</g>
<!-- 6507 -->
<g id="node48" class="node"><title>6507</title>
<ellipse fill="white" stroke="black" cx="761.51" cy="-264.271" rx="25" ry="25"/>
<text text-anchor="middle" x="761.51" y="-262.071" font-family="Times,serif" font-size="9.00">6507</text>
</g>
<!-- &#45;1&#45;&gt;6507 -->
<g id="edge27" class="edge"><title>&#45;1&#45;&gt;6507</title>
<path fill="none" stroke="red" stroke-width="0.841617" d="M762.32,-705.352C779.277,-681.092 827.51,-605.929 827.51,-535.905 827.51,-535.905 827.51,-535.905 827.51,-445.579 827.51,-389.428 798.935,-329.105 779.389,-294.411"/>
<polygon fill="red" stroke="red" stroke-width="0.841617" points="782.42,-292.66 774.392,-285.746 776.356,-296.157 782.42,-292.66"/>
</g>
<!-- &#45;2 -->
<g id="node2" class="node"><title>&#45;2</title>
<polygon fill="lightgray" stroke="black" points="1236.51,-723.385 1212.51,-723.385 1212.51,-705.385 1236.51,-705.385 1236.51,-723.385"/>
<text text-anchor="middle" x="1224.51" y="-712.185" font-family="Times,serif" font-size="9.00">&#45;2</text>
</g>
<!-- &#45;3 -->
<g id="node3" class="node"><title>&#45;3</title>
<polygon fill="lightgray" stroke="black" points="1194.51,-723.385 1170.51,-723.385 1170.51,-705.385 1194.51,-705.385 1194.51,-723.385"/>
<text text-anchor="middle" x="1182.51" y="-712.185" font-family="Times,serif" font-size="9.00">&#45;3</text>
</g>
<!-- 2197 -->
<g id="node32" class="node"><title>2197</title>
<ellipse fill="white" stroke="black" cx="1182.51" cy="-623.231" rx="25" ry="25"/>
<text text-anchor="middle" x="1182.51" y="-621.031" font-family="Times,serif" font-size="9.00">2197</text>
</g>
<!-- &#45;3&#45;&gt;2197 -->
<g id="edge25" class="edge"><title>&#45;3&#45;&gt;2197</title>
<path fill="none" stroke="green" stroke-width="0.655815" d="M1182.51,-705.158C1182.51,-694.52 1182.51,-675.336 1182.51,-658.316"/>
<polygon fill="green" stroke="green" stroke-width="0.655815" points="1186.01,-658.093 1182.51,-648.093 1179.01,-658.094 1186.01,-658.093"/>
</g>
<!-- &#45;4 -->
<g id="node4" class="node"><title>&#45;4</title>
<polygon fill="lightgray" stroke="black" points="1278.51,-723.385 1254.51,-723.385 1254.51,-705.385 1278.51,-705.385 1278.51,-723.385"/>
<text text-anchor="middle" x="1266.51" y="-712.185" font-family="Times,serif" font-size="9.00">&#45;4</text>
</g>
<!-- &#45;5 -->
<g id="node5" class="node"><title>&#45;5</title>
<polygon fill="lightgray" stroke="black" points="485.51,-543.905 461.51,-543.905 461.51,-525.905 485.51,-525.905 485.51,-543.905"/>
<text text-anchor="middle" x="473.51" y="-532.705" font-family="Times,serif" font-size="9.00">&#45;5</text>
</g>
<!-- 2 -->
<g id="node27" class="node"><title>2</title>
<ellipse fill="lightblue" stroke="black" cx="461.51" cy="-446.579" rx="14.7" ry="14.7"/>
<text text-anchor="middle" x="461.51" y="-444.379" font-family="Times,serif" font-size="9.00">2</text>
</g>
<!-- &#45;5&#45;&gt;2 -->
<g id="edge50" class="edge"><title>&#45;5&#45;&gt;2</title>
<path fill="none" stroke="red" stroke-width="0.936253" d="M472.36,-525.628C470.642,-513.268 467.339,-489.511 464.827,-471.439"/>
<polygon fill="red" stroke="red" stroke-width="0.936253" points="468.265,-470.752 463.422,-461.329 461.332,-471.716 468.265,-470.752"/>
</g>
<!-- 12795 -->
<g id="node52" class="node"><title>12795</title>
<ellipse fill="white" stroke="black" cx="282.51" cy="-446.579" rx="27.6545" ry="27.6545"/>
<text text-anchor="middle" x="282.51" y="-444.379" font-family="Times,serif" font-size="9.00">12795</text>
</g>
<!-- &#45;5&#45;&gt;12795 -->
<g id="edge51" class="edge"><title>&#45;5&#45;&gt;12795</title>
<path fill="none" stroke="red" stroke-width="0.352087" d="M468.185,-525.745C464.399,-520.56 458.87,-514.104 452.51,-510.156 400.481,-477.859 374.821,-500.441 319.51,-474.156 317.05,-472.987 314.582,-471.652 312.154,-470.216"/>
<polygon fill="red" stroke="red" stroke-width="0.352087" points="313.91,-467.183 303.611,-464.694 310.109,-473.062 313.91,-467.183"/>
</g>
<!-- &#45;6 -->
<g id="node6" class="node"><title>&#45;6</title>
<polygon fill="lightgray" stroke="black" points="352.51,-455.579 328.51,-455.579 328.51,-437.579 352.51,-437.579 352.51,-455.579"/>
<text text-anchor="middle" x="340.51" y="-444.379" font-family="Times,serif" font-size="9.00">&#45;6</text>
</g>
<!-- 11577 -->
<g id="node39" class="node"><title>11577</title>
<ellipse fill="white" stroke="black" cx="340.51" cy="-264.271" rx="27.6545" ry="27.6545"/>
<text text-anchor="middle" x="340.51" y="-262.071" font-family="Times,serif" font-size="9.00">11577</text>
</g>
<!-- &#45;6&#45;&gt;11577 -->
<g id="edge18" class="edge"><title>&#45;6&#45;&gt;11577</title>
<path fill="none" stroke="green" stroke-width="0.635211" d="M340.51,-437.363C340.51,-413.878 340.51,-345.378 340.51,-302.216"/>
<polygon fill="green" stroke="green" stroke-width="0.635211" points="344.01,-302.096 340.51,-292.096 337.01,-302.096 344.01,-302.096"/>
</g>
<!-- 10861 -->
<g id="node50" class="node"><title>10861</title>
<ellipse fill="white" stroke="black" cx="284.51" cy="-355.425" rx="27.6545" ry="27.6545"/>
<text text-anchor="middle" x="284.51" y="-353.225" font-family="Times,serif" font-size="9.00">10861</text>
</g>
<!-- &#45;6&#45;&gt;10861 -->
<g id="edge17" class="edge"><title>&#45;6&#45;&gt;10861</title>
<path fill="none" stroke="green" stroke-width="0.259811" d="M335.342,-437.352C328.333,-426.192 315.416,-405.629 304.358,-388.024"/>
<polygon fill="green" stroke="green" stroke-width="0.259811" points="307.069,-385.759 298.786,-379.153 301.141,-389.483 307.069,-385.759"/>
</g>
<!-- &#45;7 -->
<g id="node7" class="node"><title>&#45;7</title>
<polygon fill="lightgray" stroke="black" points="1009.51,-632.231 985.51,-632.231 985.51,-614.231 1009.51,-614.231 1009.51,-632.231"/>
<text text-anchor="middle" x="997.51" y="-621.031" font-family="Times,serif" font-size="9.00">&#45;7</text>
</g>
<!-- 2831 -->
<g id="node31" class="node"><title>2831</title>
<ellipse fill="white" stroke="black" cx="435.51" cy="-90.4472" rx="25" ry="25"/>
<text text-anchor="middle" x="435.51" y="-88.2472" font-family="Times,serif" font-size="9.00">2831</text>
</g>
<!-- &#45;7&#45;&gt;2831 -->
<g id="edge13" class="edge"><title>&#45;7&#45;&gt;2831</title>
<path fill="none" stroke="green" stroke-width="0.846583" d="M998.983,-613.901C1003.28,-588.838 1015.51,-511.896 1015.51,-447.579 1015.51,-447.579 1015.51,-447.579 1015.51,-263.271 1015.51,-148.979 596.244,-104.827 470.648,-94.1645"/>
<polygon fill="green" stroke="green" stroke-width="0.846583" points="470.687,-90.6559 460.432,-93.3167 470.108,-97.6319 470.687,-90.6559"/>
</g>
<!-- 4505 -->
<g id="node33" class="node"><title>4505</title>
<ellipse fill="white" stroke="black" cx="1068.51" cy="-175.945" rx="25" ry="25"/>
<text text-anchor="middle" x="1068.51" y="-173.745" font-family="Times,serif" font-size="9.00">4505</text>
</g>
<!-- &#45;7&#45;&gt;4505 -->
<g id="edge36" class="edge"><title>&#45;7&#45;&gt;4505</title>
<path fill="none" stroke="red" stroke-width="0.586946" d="M1002.58,-614.042C1009.6,-602.377 1022.23,-580.117 1029.51,-559.654 1046.59,-511.661 1053.51,-498.52 1053.51,-447.579 1053.51,-447.579 1053.51,-447.579 1053.51,-354.425 1053.51,-304.403 1059.5,-246.732 1063.91,-211.052"/>
<polygon fill="red" stroke="red" stroke-width="0.586946" points="1067.43,-211.078 1065.22,-200.718 1060.49,-210.198 1067.43,-211.078"/>
</g>
<!-- 5851 -->
<g id="node46" class="node"><title>5851</title>
<ellipse fill="white" stroke="black" cx="418.51" cy="-534.905" rx="25" ry="25"/>
<text text-anchor="middle" x="418.51" y="-532.705" font-family="Times,serif" font-size="9.00">5851</text>
</g>
<!-- &#45;7&#45;&gt;5851 -->
<g id="edge30" class="edge"><title>&#45;7&#45;&gt;5851</title>
<path fill="none" stroke="red" stroke-width="0.170599" d="M985.271,-620.589C953.075,-616.288 863.347,-604.42 788.51,-595.654 639.342,-578.18 593.164,-612.312 452.51,-559.654 450.373,-558.854 448.245,-557.888 446.155,-556.81"/>
<polygon fill="red" stroke="red" stroke-width="0.170599" points="447.713,-553.664 437.336,-551.527 444.116,-559.669 447.713,-553.664"/>
</g>
<!-- &#45;7&#45;&gt;6507 -->
<g id="edge2" class="edge"><title>&#45;7&#45;&gt;6507</title>
<path fill="none" stroke="green" stroke-width="1.35899" d="M997.412,-614.051C996.734,-571.196 991.554,-372.827 953.51,-327.848 914.293,-281.48 840.243,-269.21 796.454,-266.124"/>
<polygon fill="green" stroke="green" stroke-width="1.35899" points="796.462,-262.618 786.276,-265.533 796.056,-269.607 796.462,-262.618"/>
</g>
<!-- &#45;8 -->
<g id="node8" class="node"><title>&#45;8</title>
<polygon fill="lightgray" stroke="black" points="1027.51,-723.385 1003.51,-723.385 1003.51,-705.385 1027.51,-705.385 1027.51,-723.385"/>
<text text-anchor="middle" x="1015.51" y="-712.185" font-family="Times,serif" font-size="9.00">&#45;8</text>
</g>
<!-- 1 -->
<g id="node26" class="node"><title>1</title>
<ellipse fill="lightblue" stroke="black" cx="1129.51" cy="-14.8492" rx="14.7" ry="14.7"/>
<text text-anchor="middle" x="1129.51" y="-12.6492" font-family="Times,serif" font-size="9.00">1</text>
</g>
<!-- &#45;8&#45;&gt;1 -->
<g id="edge14" class="edge"><title>&#45;8&#45;&gt;1</title>
<path fill="none" stroke="red" stroke-width="0.156986" stroke-dasharray="1,5" d="M1027.09,-705.31C1041.94,-694.438 1067.66,-673.787 1083.51,-650.808 1114.74,-605.528 1129.51,-590.914 1129.51,-535.905 1129.51,-535.905 1129.51,-535.905 1129.51,-174.945 1129.51,-127.221 1129.51,-71.4453 1129.51,-40.2259"/>
<polygon fill="red" stroke="red" stroke-width="0.156986" points="1133.01,-39.8954 1129.51,-29.8954 1126.01,-39.8954 1133.01,-39.8954"/>
</g>
<!-- &#45;8&#45;&gt;2197 -->
<g id="edge49" class="edge"><title>&#45;8&#45;&gt;2197</title>
<path fill="none" stroke="green" stroke-width="0.228228" d="M1027.81,-708.082C1050.98,-697.94 1102.45,-674.672 1143.51,-650.808 1147,-648.782 1150.58,-646.552 1154.11,-644.273"/>
<polygon fill="green" stroke="green" stroke-width="0.228228" points="1156.25,-647.051 1162.62,-638.589 1152.36,-641.228 1156.25,-647.051"/>
</g>
<!-- &#45;8&#45;&gt;4505 -->
<g id="edge44" class="edge"><title>&#45;8&#45;&gt;4505</title>
<path fill="none" stroke="red" stroke-width="0.623831" stroke-dasharray="1,5" d="M1021.99,-705.072C1040.37,-680.63 1091.51,-606.295 1091.51,-535.905 1091.51,-535.905 1091.51,-535.905 1091.51,-354.425 1091.51,-303.806 1082.2,-245.735 1075.42,-210.197"/>
<polygon fill="red" stroke="red" stroke-width="0.623831" points="1078.85,-209.505 1073.5,-200.361 1071.98,-210.846 1078.85,-209.505"/>
</g>
<!-- 17064 -->
<g id="node37" class="node"><title>17064</title>
<ellipse fill="white" stroke="black" cx="628.51" cy="-623.231" rx="27.6545" ry="27.6545"/>
<text text-anchor="middle" x="628.51" y="-621.031" font-family="Times,serif" font-size="9.00">17064</text>
</g>
<!-- &#45;8&#45;&gt;17064 -->
<g id="edge11" class="edge"><title>&#45;8&#45;&gt;17064</title>
<path fill="none" stroke="red" stroke-width="0.166727" d="M1003.39,-711.453C961.891,-704.719 821.763,-681.047 708.51,-650.808 693.718,-646.859 677.657,-641.699 663.834,-636.978"/>
<polygon fill="red" stroke="red" stroke-width="0.166727" points="664.809,-633.612 654.214,-633.641 662.515,-640.225 664.809,-633.612"/>
</g>
<!-- &#45;8&#45;&gt;5851 -->
<g id="edge40" class="edge"><title>&#45;8&#45;&gt;5851</title>
<path fill="none" stroke="green" stroke-width="0.926332" stroke-dasharray="1,5" d="M1003.48,-712.37C964.177,-708.7 836.591,-693.972 741.51,-650.808 703.508,-633.556 703.99,-611.814 665.51,-595.654 576.99,-558.478 541.362,-596.029 452.51,-559.654 450.399,-558.789 448.289,-557.775 446.213,-556.661"/>
<polygon fill="green" stroke="green" stroke-width="0.926332" points="447.785,-553.521 437.426,-551.297 444.138,-559.495 447.785,-553.521"/>
</g>
<!-- &#45;8&#45;&gt;6507 -->
<g id="edge53" class="edge"><title>&#45;8&#45;&gt;6507</title>
<path fill="none" stroke="green" stroke-width="0.367515" stroke-dasharray="1,5" d="M1009.03,-705.072C990.652,-680.63 939.51,-606.295 939.51,-535.905 939.51,-535.905 939.51,-535.905 939.51,-445.579 939.51,-392.577 953.752,-369.13 920.51,-327.848 889.945,-289.889 833.13,-274.879 796.343,-268.995"/>
<polygon fill="green" stroke="green" stroke-width="0.367515" points="796.478,-265.478 786.079,-267.506 795.473,-272.406 796.478,-265.478"/>
</g>
<!-- &#45;9 -->
<g id="node9" class="node"><title>&#45;9</title>
<polygon fill="lightgray" stroke="black" points="1320.51,-723.385 1296.51,-723.385 1296.51,-705.385 1320.51,-705.385 1320.51,-723.385"/>
<text text-anchor="middle" x="1308.51" y="-712.185" font-family="Times,serif" font-size="9.00">&#45;9</text>
</g>
<!-- &#45;10 -->
<g id="node10" class="node"><title>&#45;10</title>
<polygon fill="lightgray" stroke="black" points="1368.01,-723.385 1339.01,-723.385 1339.01,-705.385 1368.01,-705.385 1368.01,-723.385"/>
<text text-anchor="middle" x="1353.51" y="-712.185" font-family="Times,serif" font-size="9.00">&#45;10</text>
</g>
<!-- &#45;11 -->
<g id="node11" class="node"><title>&#45;11</title>
<polygon fill="lightgray" stroke="black" points="1415.01,-723.385 1386.01,-723.385 1386.01,-705.385 1415.01,-705.385 1415.01,-723.385"/>
<text text-anchor="middle" x="1400.51" y="-712.185" font-family="Times,serif" font-size="9.00">&#45;11</text>
</g>
<!-- &#45;12 -->
<g id="node12" class="node"><title>&#45;12</title>
<polygon fill="lightgray" stroke="black" points="780.01,-632.231 751.01,-632.231 751.01,-614.231 780.01,-614.231 780.01,-632.231"/>
<text text-anchor="middle" x="765.51" y="-621.031" font-family="Times,serif" font-size="9.00">&#45;12</text>
</g>
<!-- &#45;12&#45;&gt;9931 -->
<g id="edge7" class="edge"><title>&#45;12&#45;&gt;9931</title>
<path fill="none" stroke="red" stroke-width="1.46408" d="M756.699,-614.007C750.989,-608.714 743.365,-601.717 736.51,-595.654 722.238,-583.03 706.074,-569.203 692.876,-558.032"/>
<polygon fill="red" stroke="red" stroke-width="1.46408" points="694.985,-555.231 685.086,-551.454 690.469,-560.58 694.985,-555.231"/>
</g>
<!-- &#45;13 -->
<g id="node13" class="node"><title>&#45;13</title>
<polygon fill="lightgray" stroke="black" points="1462.01,-723.385 1433.01,-723.385 1433.01,-705.385 1462.01,-705.385 1462.01,-723.385"/>
<text text-anchor="middle" x="1447.51" y="-712.185" font-family="Times,serif" font-size="9.00">&#45;13</text>
</g>
<!-- &#45;14 -->
<g id="node14" class="node"><title>&#45;14</title>
<polygon fill="lightgray" stroke="black" points="129.01,-543.905 100.01,-543.905 100.01,-525.905 129.01,-525.905 129.01,-543.905"/>
<text text-anchor="middle" x="114.51" y="-532.705" font-family="Times,serif" font-size="9.00">&#45;14</text>
</g>
<!-- &#45;14&#45;&gt;2831 -->
<g id="edge55" class="edge"><title>&#45;14&#45;&gt;2831</title>
<path fill="none" stroke="green" stroke-width="0.144153" stroke-dasharray="1,5" d="M99.7917,-528.874C78.7259,-520.853 40.4372,-503.053 21.5102,-474.156 -7.53058,-429.818 2.51019,-409.427 2.51019,-356.425 2.51019,-356.425 2.51019,-356.425 2.51019,-263.271 2.51019,-177.652 298.698,-116.124 401.14,-97.4042"/>
<polygon fill="green" stroke="green" stroke-width="0.144153" points="401.77,-100.847 410.99,-95.6277 400.527,-93.9584 401.77,-100.847"/>
</g>
<!-- 12988 -->
<g id="node40" class="node"><title>12988</title>
<ellipse fill="white" stroke="black" cx="170.51" cy="-446.579" rx="27.6545" ry="27.6545"/>
<text text-anchor="middle" x="170.51" y="-444.379" font-family="Times,serif" font-size="9.00">12988</text>
</g>
<!-- &#45;14&#45;&gt;12988 -->
<g id="edge46" class="edge"><title>&#45;14&#45;&gt;12988</title>
<path fill="none" stroke="red" stroke-width="0.326053" d="M119.88,-525.628C126.873,-514.847 139.493,-495.393 150.383,-478.606"/>
<polygon fill="red" stroke="red" stroke-width="0.326053" points="153.375,-480.424 155.881,-470.13 147.503,-476.615 153.375,-480.424"/>
</g>
<!-- &#45;14&#45;&gt;10861 -->
<g id="edge1" class="edge"><title>&#45;14&#45;&gt;10861</title>
<path fill="none" stroke="green" stroke-width="0.244755" d="M113.234,-525.766C110.491,-505.147 106.315,-450.283 133.51,-419.002 168.649,-378.584 200.752,-407.241 248.51,-383.002 250.753,-381.864 253.004,-380.588 255.226,-379.229"/>
<polygon fill="green" stroke="green" stroke-width="0.244755" points="257.181,-382.132 263.568,-373.679 253.304,-376.304 257.181,-382.132"/>
</g>
<!-- 13815 -->
<g id="node51" class="node"><title>13815</title>
<ellipse fill="white" stroke="black" cx="58.5102" cy="-446.579" rx="27.6545" ry="27.6545"/>
<text text-anchor="middle" x="58.5102" y="-444.379" font-family="Times,serif" font-size="9.00">13815</text>
</g>
<!-- &#45;14&#45;&gt;13815 -->
<g id="edge52" class="edge"><title>&#45;14&#45;&gt;13815</title>
<path fill="none" stroke="green" stroke-width="0.339646" d="M109.141,-525.628C102.147,-514.847 89.5274,-495.393 78.6372,-478.606"/>
<polygon fill="green" stroke="green" stroke-width="0.339646" points="81.5176,-476.615 73.139,-470.13 75.645,-480.424 81.5176,-476.615"/>
</g>
<!-- &#45;14&#45;&gt;12795 -->
<g id="edge58" class="edge"><title>&#45;14&#45;&gt;12795</title>
<path fill="none" stroke="red" stroke-width="0.338508" d="M129.125,-526.395C155.653,-512.764 212.359,-483.626 248.894,-464.853"/>
<polygon fill="red" stroke="red" stroke-width="0.338508" points="250.875,-467.77 258.17,-460.086 247.676,-461.544 250.875,-467.77"/>
</g>
<!-- &#45;15 -->
<g id="node15" class="node"><title>&#45;15</title>
<polygon fill="lightgray" stroke="black" points="1509.01,-723.385 1480.01,-723.385 1480.01,-705.385 1509.01,-705.385 1509.01,-723.385"/>
<text text-anchor="middle" x="1494.51" y="-712.185" font-family="Times,serif" font-size="9.00">&#45;15</text>
</g>
<!-- &#45;16 -->
<g id="node16" class="node"><title>&#45;16</title>
<polygon fill="lightgray" stroke="black" points="476.01,-632.231 447.01,-632.231 447.01,-614.231 476.01,-614.231 476.01,-632.231"/>
<text text-anchor="middle" x="461.51" y="-621.031" font-family="Times,serif" font-size="9.00">&#45;16</text>
</g>
<!-- &#45;16&#45;&gt;5851 -->
<g id="edge10" class="edge"><title>&#45;16&#45;&gt;5851</title>
<path fill="none" stroke="red" stroke-width="0.690562" stroke-dasharray="1,5" d="M457.387,-613.954C451.96,-603.058 442.12,-583.304 433.698,-566.397"/>
<polygon fill="red" stroke="red" stroke-width="0.690562" points="436.794,-564.761 429.202,-557.371 430.528,-567.882 436.794,-564.761"/>
</g>
<!-- &#45;17 -->
<g id="node17" class="node"><title>&#45;17</title>
<polygon fill="lightgray" stroke="black" points="1556.01,-723.385 1527.01,-723.385 1527.01,-705.385 1556.01,-705.385 1556.01,-723.385"/>
<text text-anchor="middle" x="1541.51" y="-712.185" font-family="Times,serif" font-size="9.00">&#45;17</text>
</g>
<!-- &#45;18 -->
<g id="node18" class="node"><title>&#45;18</title>
<polygon fill="lightgray" stroke="black" points="1603.01,-723.385 1574.01,-723.385 1574.01,-705.385 1603.01,-705.385 1603.01,-723.385"/>
<text text-anchor="middle" x="1588.51" y="-712.185" font-family="Times,serif" font-size="9.00">&#45;18</text>
</g>
<!-- &#45;19 -->
<g id="node19" class="node"><title>&#45;19</title>
<polygon fill="lightgray" stroke="black" points="373.01,-723.385 344.01,-723.385 344.01,-705.385 373.01,-705.385 373.01,-723.385"/>
<text text-anchor="middle" x="358.51" y="-712.185" font-family="Times,serif" font-size="9.00">&#45;19</text>
</g>
<!-- 13963 -->
<g id="node29" class="node"><title>13963</title>
<ellipse fill="white" stroke="black" cx="362.51" cy="-623.231" rx="27.6545" ry="27.6545"/>
<text text-anchor="middle" x="362.51" y="-621.031" font-family="Times,serif" font-size="9.00">13963</text>
</g>
<!-- &#45;19&#45;&gt;13963 -->
<g id="edge19" class="edge"><title>&#45;19&#45;&gt;13963</title>
<path fill="none" stroke="green" stroke-width="0.357071" d="M358.879,-705.158C359.33,-695.115 360.122,-677.457 360.852,-661.192"/>
<polygon fill="green" stroke="green" stroke-width="0.357071" points="364.366,-660.946 361.318,-650.799 357.373,-660.632 364.366,-660.946"/>
</g>
<!-- &#45;20 -->
<g id="node20" class="node"><title>&#45;20</title>
<polygon fill="lightgray" stroke="black" points="1650.01,-723.385 1621.01,-723.385 1621.01,-705.385 1650.01,-705.385 1650.01,-723.385"/>
<text text-anchor="middle" x="1635.51" y="-712.185" font-family="Times,serif" font-size="9.00">&#45;20</text>
</g>
<!-- &#45;21 -->
<g id="node21" class="node"><title>&#45;21</title>
<polygon fill="lightgray" stroke="black" points="1697.01,-723.385 1668.01,-723.385 1668.01,-705.385 1697.01,-705.385 1697.01,-723.385"/>
<text text-anchor="middle" x="1682.51" y="-712.185" font-family="Times,serif" font-size="9.00">&#45;21</text>
</g>
<!-- &#45;22 -->
<g id="node22" class="node"><title>&#45;22</title>
<polygon fill="lightgray" stroke="black" points="1744.01,-723.385 1715.01,-723.385 1715.01,-705.385 1744.01,-705.385 1744.01,-723.385"/>
<text text-anchor="middle" x="1729.51" y="-712.185" font-family="Times,serif" font-size="9.00">&#45;22</text>
</g>
<!-- &#45;23 -->
<g id="node23" class="node"><title>&#45;23</title>
<polygon fill="lightgray" stroke="black" points="1791.01,-723.385 1762.01,-723.385 1762.01,-705.385 1791.01,-705.385 1791.01,-723.385"/>
<text text-anchor="middle" x="1776.51" y="-712.185" font-family="Times,serif" font-size="9.00">&#45;23</text>
</g>
<!-- &#45;24 -->
<g id="node24" class="node"><title>&#45;24</title>
<polygon fill="lightgray" stroke="black" points="1838.01,-723.385 1809.01,-723.385 1809.01,-705.385 1838.01,-705.385 1838.01,-723.385"/>
<text text-anchor="middle" x="1823.51" y="-712.185" font-family="Times,serif" font-size="9.00">&#45;24</text>
</g>
<!-- 0 -->
<g id="node25" class="node"><title>0</title>
<ellipse fill="lightblue" stroke="black" cx="1870.51" cy="-714.385" rx="14.7" ry="14.7"/>
<text text-anchor="middle" x="1870.51" y="-712.185" font-family="Times,serif" font-size="9.00">0</text>
</g>
<!-- 2&#45;&gt;2831 -->
<g id="edge63" class="edge"><title>2&#45;&gt;2831</title>
<path fill="none" stroke="green" stroke-width="0.698785" d="M460.491,-431.697C456.733,-380.505 443.58,-201.367 438.021,-125.648"/>
<polygon fill="green" stroke="green" stroke-width="0.698785" points="441.481,-124.971 437.258,-115.254 434.5,-125.484 441.481,-124.971"/>
</g>
<!-- 16436 -->
<g id="node38" class="node"><title>16436</title>
<ellipse fill="white" stroke="black" cx="548.51" cy="-355.425" rx="27.6545" ry="27.6545"/>
<text text-anchor="middle" x="548.51" y="-353.225" font-family="Times,serif" font-size="9.00">16436</text>
</g>
<!-- 2&#45;&gt;16436 -->
<g id="edge60" class="edge"><title>2&#45;&gt;16436</title>
<path fill="none" stroke="red" stroke-width="0.379191" d="M470.71,-434.536C474.839,-429.688 479.827,-423.979 484.51,-419.002 496.303,-406.469 509.87,-393.069 521.469,-381.898"/>
<polygon fill="red" stroke="red" stroke-width="0.379191" points="523.965,-384.353 528.768,-374.91 519.124,-379.297 523.965,-384.353"/>
</g>
<!-- 2&#45;&gt;6507 -->
<g id="edge6" class="edge"><title>2&#45;&gt;6507</title>
<path fill="none" stroke="green" stroke-width="0.432232" d="M463.371,-431.605C467.43,-406.834 479.437,-355.261 511.51,-327.848 573.398,-274.951 673.615,-265.636 726.404,-264.672"/>
<polygon fill="green" stroke="green" stroke-width="0.432232" points="726.643,-268.17 736.611,-264.58 726.58,-261.171 726.643,-268.17"/>
</g>
<!-- 2&#45;&gt;10861 -->
<g id="edge45" class="edge"><title>2&#45;&gt;10861</title>
<path fill="none" stroke="green" stroke-width="0.180916" d="M448.495,-439.024C421.222,-425.286 357.341,-393.11 317.844,-373.215"/>
<polygon fill="green" stroke="green" stroke-width="0.180916" points="319.352,-370.056 308.846,-368.683 316.203,-376.307 319.352,-370.056"/>
</g>
<!-- 3 -->
<g id="node28" class="node"><title>3</title>
<ellipse fill="lightblue" stroke="black" cx="1918.51" cy="-714.385" rx="14.7" ry="14.7"/>
<text text-anchor="middle" x="1918.51" y="-712.185" font-family="Times,serif" font-size="9.00">3</text>
</g>
<!-- 13963&#45;&gt;5851 -->
<g id="edge61" class="edge"><title>13963&#45;&gt;5851</title>
<path fill="none" stroke="green" stroke-width="0.392269" d="M377.224,-599.55C384.128,-588.907 392.434,-576.102 399.781,-564.776"/>
<polygon fill="green" stroke="green" stroke-width="0.392269" points="402.917,-566.374 405.423,-556.08 397.044,-562.565 402.917,-566.374"/>
</g>
<!-- 13327 -->
<g id="node30" class="node"><title>13327</title>
<ellipse fill="white" stroke="black" cx="418.51" cy="-714.385" rx="27.6545" ry="27.6545"/>
<text text-anchor="middle" x="418.51" y="-712.185" font-family="Times,serif" font-size="9.00">13327</text>
</g>
<!-- 13327&#45;&gt;13963 -->
<g id="edge22" class="edge"><title>13327&#45;&gt;13963</title>
<path fill="none" stroke="green" stroke-width="0.259621" d="M404.089,-690.426C397.491,-679.923 389.567,-667.307 382.414,-655.919"/>
<polygon fill="green" stroke="green" stroke-width="0.259621" points="385.166,-653.719 376.883,-647.113 379.238,-657.442 385.166,-653.719"/>
</g>
<!-- 13327&#45;&gt;5851 -->
<g id="edge35" class="edge"><title>13327&#45;&gt;5851</title>
<path fill="none" stroke="green" stroke-width="0.9407" d="M418.51,-686.43C418.51,-655.279 418.51,-603.964 418.51,-570.049"/>
<polygon fill="green" stroke="green" stroke-width="0.9407" points="422.01,-569.697 418.51,-559.697 415.01,-569.697 422.01,-569.697"/>
</g>
<!-- 2831&#45;&gt;1 -->
<g id="edge8" class="edge"><title>2831&#45;&gt;1</title>
<path fill="none" stroke="red" stroke-width="0.29269" d="M460.21,-86.8278C567.953,-75.4018 996.243,-29.982 1104.53,-18.498"/>
<polygon fill="red" stroke="red" stroke-width="0.29269" points="1105.22,-21.9444 1114.8,-17.4093 1104.49,-14.9835 1105.22,-21.9444"/>
</g>
<!-- 2197&#45;&gt;1 -->
<g id="edge56" class="edge"><title>2197&#45;&gt;1</title>
<path fill="none" stroke="green" stroke-width="0.835049" d="M1180.73,-598.517C1178.38,-564.94 1174.51,-501.608 1174.51,-447.579 1174.51,-447.579 1174.51,-447.579 1174.51,-174.945 1174.51,-124.398 1153.22,-68.1125 1139.93,-37.8999"/>
<polygon fill="green" stroke="green" stroke-width="0.835049" points="1143.08,-36.3701 1135.77,-28.6993 1136.7,-39.2533 1143.08,-36.3701"/>
</g>
<!-- 4505&#45;&gt;2831 -->
<g id="edge54" class="edge"><title>4505&#45;&gt;2831</title>
<path fill="none" stroke="red" stroke-width="1.32356" d="M1048.71,-160.551C1042.8,-156.914 1036.12,-153.414 1029.51,-151.196 924.664,-116.03 581.876,-97.975 470.681,-92.9391"/>
<polygon fill="red" stroke="red" stroke-width="1.32356" points="470.506,-89.428 460.36,-92.4792 470.194,-96.421 470.506,-89.428"/>
</g>
<!-- 14752&#45;&gt;6507 -->
<g id="edge29" class="edge"><title>14752&#45;&gt;6507</title>
<path fill="none" stroke="red" stroke-width="0.426767" d="M861.699,-338.486C841.49,-323.718 811.329,-301.677 789.382,-285.638"/>
<polygon fill="red" stroke="red" stroke-width="0.426767" points="791.257,-282.674 781.118,-279.599 787.127,-288.326 791.257,-282.674"/>
</g>
<!-- 12709 -->
<g id="node35" class="node"><title>12709</title>
<ellipse fill="white" stroke="black" cx="594.51" cy="-446.579" rx="27.6545" ry="27.6545"/>
<text text-anchor="middle" x="594.51" y="-444.379" font-family="Times,serif" font-size="9.00">12709</text>
</g>
<!-- 11243 -->
<g id="node49" class="node"><title>11243</title>
<ellipse fill="white" stroke="black" cx="621.51" cy="-355.425" rx="27.6545" ry="27.6545"/>
<text text-anchor="middle" x="621.51" y="-353.225" font-family="Times,serif" font-size="9.00">11243</text>
</g>
<!-- 12709&#45;&gt;11243 -->
<g id="edge37" class="edge"><title>12709&#45;&gt;11243</title>
<path fill="none" stroke="red" stroke-width="0.273756" stroke-dasharray="1,5" d="M602.32,-419.792C604.95,-411.106 607.934,-401.254 610.751,-391.952"/>
<polygon fill="red" stroke="red" stroke-width="0.273756" points="614.169,-392.739 613.718,-382.154 607.47,-390.71 614.169,-392.739"/>
</g>
<!-- 7718 -->
<g id="node36" class="node"><title>7718</title>
<ellipse fill="white" stroke="black" cx="733.51" cy="-534.905" rx="25" ry="25"/>
<text text-anchor="middle" x="733.51" y="-532.705" font-family="Times,serif" font-size="9.00">7718</text>
</g>
<!-- 10705 -->
<g id="node43" class="node"><title>10705</title>
<ellipse fill="white" stroke="black" cx="733.51" cy="-355.425" rx="27.6545" ry="27.6545"/>
<text text-anchor="middle" x="733.51" y="-353.225" font-family="Times,serif" font-size="9.00">10705</text>
</g>
<!-- 7718&#45;&gt;10705 -->
<g id="edge64" class="edge"><title>7718&#45;&gt;10705</title>
<path fill="none" stroke="red" stroke-width="0.377421" d="M733.51,-509.969C733.51,-480.043 733.51,-428.498 733.51,-393.463"/>
<polygon fill="red" stroke="red" stroke-width="0.377421" points="737.01,-393.162 733.51,-383.162 730.01,-393.162 737.01,-393.162"/>
</g>
<!-- 12629 -->
<g id="node44" class="node"><title>12629</title>
<ellipse fill="white" stroke="black" cx="521.51" cy="-446.579" rx="27.6545" ry="27.6545"/>
<text text-anchor="middle" x="521.51" y="-444.379" font-family="Times,serif" font-size="9.00">12629</text>
</g>
<!-- 7718&#45;&gt;12629 -->
<g id="edge59" class="edge"><title>7718&#45;&gt;12629</title>
<path fill="none" stroke="red" stroke-width="0.523791" d="M714.723,-518.547C710.259,-515.43 705.375,-512.418 700.51,-510.156 641.081,-482.525 616.771,-502.148 557.51,-474.156 555.236,-473.082 552.961,-471.855 550.723,-470.53"/>
<polygon fill="red" stroke="red" stroke-width="0.523791" points="552.629,-467.595 542.343,-465.055 548.8,-473.455 552.629,-467.595"/>
</g>
<!-- 7718&#45;&gt;6507 -->
<g id="edge28" class="edge"><title>7718&#45;&gt;6507</title>
<path fill="none" stroke="red" stroke-width="0.463801" stroke-dasharray="1,5" d="M740.891,-511.213C749.984,-481.958 764.913,-429.331 770.51,-383.002 773.45,-358.666 772.259,-352.298 770.51,-327.848 769.839,-318.462 768.608,-308.344 767.267,-299.037"/>
<polygon fill="red" stroke="red" stroke-width="0.463801" points="770.697,-298.315 765.731,-288.956 763.777,-299.37 770.697,-298.315"/>
</g>
<!-- 7718&#45;&gt;11243 -->
<g id="edge38" class="edge"><title>7718&#45;&gt;11243</title>
<path fill="none" stroke="green" stroke-width="1.45572" d="M720.662,-513.546C701.223,-482.741 664.179,-424.04 641.285,-387.762"/>
<polygon fill="green" stroke="green" stroke-width="1.45572" points="644.086,-385.641 635.789,-379.052 638.166,-389.377 644.086,-385.641"/>
</g>
<!-- 17064&#45;&gt;5851 -->
<g id="edge47" class="edge"><title>17064&#45;&gt;5851</title>
<path fill="none" stroke="red" stroke-width="0.32733" d="M607.668,-604.775C602.9,-601.384 597.702,-598.122 592.51,-595.654 534.488,-568.067 510.889,-586.477 452.51,-559.654 450.437,-558.701 448.356,-557.621 446.301,-556.458"/>
<polygon fill="red" stroke="red" stroke-width="0.32733" points="447.895,-553.327 437.563,-550.982 444.178,-559.258 447.895,-553.327"/>
</g>
<!-- 16436&#45;&gt;6507 -->
<g id="edge26" class="edge"><title>16436&#45;&gt;6507</title>
<path fill="none" stroke="red" stroke-width="1.24463" d="M569.525,-337.312C574.282,-333.9 579.432,-330.543 584.51,-327.848 631.879,-302.71 691.472,-284.036 728.01,-273.901"/>
<polygon fill="red" stroke="red" stroke-width="1.24463" points="728.945,-277.274 737.675,-271.27 727.107,-270.519 728.945,-277.274"/>
</g>
<!-- 12988&#45;&gt;10861 -->
<g id="edge32" class="edge"><title>12988&#45;&gt;10861</title>
<path fill="none" stroke="red" stroke-width="0.650731" stroke-dasharray="1,5" d="M191.953,-428.81C209.786,-414.863 235.352,-394.869 255.097,-379.427"/>
<polygon fill="red" stroke="red" stroke-width="0.650731" points="257.443,-382.036 263.164,-373.119 253.13,-376.522 257.443,-382.036"/>
</g>
<!-- 9931&#45;&gt;12709 -->
<g id="edge4" class="edge"><title>9931&#45;&gt;12709</title>
<path fill="none" stroke="red" stroke-width="0.126554" d="M650.887,-515.174C641.366,-503.758 629.008,-488.942 618.291,-476.091"/>
<polygon fill="red" stroke="red" stroke-width="0.126554" points="620.962,-473.83 611.869,-468.392 615.586,-478.313 620.962,-473.83"/>
</g>
<!-- 9931&#45;&gt;6507 -->
<g id="edge21" class="edge"><title>9931&#45;&gt;6507</title>
<path fill="none" stroke="red" stroke-width="0.54553" stroke-dasharray="1,5" d="M665.142,-510.172C663.853,-470.213 665.624,-387.982 696.51,-327.848 705.104,-311.116 719.937,-296.313 733.265,-285.31"/>
<polygon fill="red" stroke="red" stroke-width="0.54553" points="735.619,-287.911 741.3,-278.967 731.282,-282.416 735.619,-287.911"/>
</g>
<!-- 13515 -->
<g id="node42" class="node"><title>13515</title>
<ellipse fill="white" stroke="black" cx="211.51" cy="-355.425" rx="27.6545" ry="27.6545"/>
<text text-anchor="middle" x="211.51" y="-353.225" font-family="Times,serif" font-size="9.00">13515</text>
</g>
<!-- 13515&#45;&gt;11577 -->
<g id="edge20" class="edge"><title>13515&#45;&gt;11577</title>
<path fill="none" stroke="green" stroke-width="0.214841" d="M233.101,-338.249C237.822,-334.779 242.812,-331.16 247.51,-327.848 267.876,-313.489 291.135,-297.838 309.299,-285.781"/>
<polygon fill="green" stroke="green" stroke-width="0.214841" points="311.365,-288.61 317.771,-280.171 307.501,-282.774 311.365,-288.61"/>
</g>
<!-- 10705&#45;&gt;6507 -->
<g id="edge5" class="edge"><title>10705&#45;&gt;6507</title>
<path fill="none" stroke="green" stroke-width="0.224422" d="M741.609,-328.638C744.613,-319.072 748.061,-308.094 751.234,-297.992"/>
<polygon fill="green" stroke="green" stroke-width="0.224422" points="754.631,-298.856 754.288,-288.266 747.953,-296.758 754.631,-298.856"/>
</g>
<!-- 12629&#45;&gt;11243 -->
<g id="edge62" class="edge"><title>12629&#45;&gt;11243</title>
<path fill="none" stroke="green" stroke-width="0.484328" d="M541.747,-427.538C556.656,-414.245 577.118,-396.003 593.583,-381.323"/>
<polygon fill="green" stroke="green" stroke-width="0.484328" points="596.169,-383.707 601.304,-374.44 591.51,-378.482 596.169,-383.707"/>
</g>
<!-- 12501 -->
<g id="node45" class="node"><title>12501</title>
<ellipse fill="white" stroke="black" cx="555.51" cy="-714.385" rx="27.6545" ry="27.6545"/>
<text text-anchor="middle" x="555.51" y="-712.185" font-family="Times,serif" font-size="9.00">12501</text>
</g>
<!-- 12501&#45;&gt;10472 -->
<g id="edge43" class="edge"><title>12501&#45;&gt;10472</title>
<path fill="none" stroke="red" stroke-width="0.982172" d="M555.51,-686.636C555.51,-678.614 555.51,-669.669 555.51,-661.115"/>
<polygon fill="red" stroke="red" stroke-width="0.982172" points="559.01,-660.961 555.51,-650.961 552.01,-660.961 559.01,-660.961"/>
</g>
<!-- 5851&#45;&gt;2831 -->
<g id="edge39" class="edge"><title>5851&#45;&gt;2831</title>
<path fill="none" stroke="green" stroke-width="0.107919" stroke-dasharray="1,5" d="M419.424,-510.117C422.258,-436.367 430.902,-211.377 434.207,-125.369"/>
<polygon fill="green" stroke="green" stroke-width="0.107919" points="437.705,-125.48 434.592,-115.353 430.71,-125.212 437.705,-125.48"/>
</g>
<!-- 5851&#45;&gt;11577 -->
<g id="edge41" class="edge"><title>5851&#45;&gt;11577</title>
<path fill="none" stroke="green" stroke-width="0.64159" stroke-dasharray="1,5" d="M411.86,-511.002C398.23,-464.059 367.042,-356.648 350.789,-300.67"/>
<polygon fill="green" stroke="green" stroke-width="0.64159" points="354.085,-299.47 347.935,-290.842 347.362,-301.422 354.085,-299.47"/>
</g>
<!-- 5851&#45;&gt;12988 -->
<g id="edge33" class="edge"><title>5851&#45;&gt;12988</title>
<path fill="none" stroke="green" stroke-width="0.792377" stroke-dasharray="1,5" d="M394.257,-529.196C354.931,-521.054 275.322,-502.451 212.51,-474.156 208.896,-472.528 205.227,-470.629 201.638,-468.608"/>
<polygon fill="green" stroke="green" stroke-width="0.792377" points="203.341,-465.548 192.962,-463.418 199.747,-471.555 203.341,-465.548"/>
</g>
<!-- 5851&#45;&gt;13515 -->
<g id="edge66" class="edge"><title>5851&#45;&gt;13515</title>
<path fill="none" stroke="green" stroke-width="0.635482" stroke-dasharray="1,5" d="M393.793,-532.355C356.364,-528.665 285.448,-516.202 245.51,-474.156 224.906,-452.465 216.679,-419.079 213.448,-393.392"/>
<polygon fill="green" stroke="green" stroke-width="0.635482" points="216.909,-392.841 212.378,-383.264 209.948,-393.576 216.909,-392.841"/>
</g>
<!-- 5851&#45;&gt;12629 -->
<g id="edge65" class="edge"><title>5851&#45;&gt;12629</title>
<path fill="none" stroke="green" stroke-width="0.40613" d="M437.402,-518.072C452.914,-505.071 475.131,-486.451 492.835,-471.612"/>
<polygon fill="green" stroke="green" stroke-width="0.40613" points="495.196,-474.2 500.612,-465.094 490.7,-468.835 495.196,-474.2"/>
</g>
<!-- 10472&#45;&gt;9931 -->
<g id="edge57" class="edge"><title>10472&#45;&gt;9931</title>
<path fill="none" stroke="green" stroke-width="0.178435" d="M576.912,-605.587C594.692,-591.759 620.096,-572.002 639.316,-557.055"/>
<polygon fill="green" stroke="green" stroke-width="0.178435" points="641.652,-559.672 647.397,-550.77 637.355,-554.146 641.652,-559.672"/>
</g>
<!-- 10472&#45;&gt;5851 -->
<g id="edge15" class="edge"><title>10472&#45;&gt;5851</title>
<path fill="none" stroke="red" stroke-width="0.690129" stroke-dasharray="1,5" d="M531.929,-608.484C510.879,-596.077 479.326,-577.14 452.51,-559.654 450.648,-558.44 448.741,-557.173 446.826,-555.884"/>
<polygon fill="red" stroke="red" stroke-width="0.690129" points="448.73,-552.946 438.501,-550.184 444.775,-558.722 448.73,-552.946"/>
</g>
<!-- 6507&#45;&gt;4505 -->
<g id="edge48" class="edge"><title>6507&#45;&gt;4505</title>
<path fill="none" stroke="red" stroke-width="0.657552" stroke-dasharray="1,5" d="M785.09,-256.64C839.222,-241.419 972.534,-203.933 1035.09,-186.343"/>
<polygon fill="red" stroke="red" stroke-width="0.657552" points="1036.17,-189.674 1044.85,-183.598 1034.28,-182.935 1036.17,-189.674"/>
</g>
<!-- 11243&#45;&gt;6507 -->
<g id="edge3" class="edge"><title>11243&#45;&gt;6507</title>
<path fill="none" stroke="red" stroke-width="0.503774" d="M644.315,-339.902C668.296,-324.631 706.11,-300.55 732.27,-283.891"/>
<polygon fill="red" stroke="red" stroke-width="0.503774" points="734.44,-286.659 740.995,-278.335 730.68,-280.754 734.44,-286.659"/>
</g>
<!-- 10861&#45;&gt;2831 -->
<g id="edge24" class="edge"><title>10861&#45;&gt;2831</title>
<path fill="none" stroke="green" stroke-width="0.513518" d="M284.547,-327.41C285.557,-302.667 289.585,-265.606 303.51,-236.693 328.347,-185.122 377.428,-138.69 408.239,-112.859"/>
<polygon fill="green" stroke="green" stroke-width="0.513518" points="410.539,-115.499 416.032,-106.439 406.088,-110.097 410.539,-115.499"/>
</g>
<!-- 13815&#45;&gt;2831 -->
<g id="edge12" class="edge"><title>13815&#45;&gt;2831</title>
<path fill="none" stroke="red" stroke-width="0.190656" d="M64.5642,-419.326C71.3003,-394.108 84.0203,-355.818 104.51,-327.848 186.479,-215.957 337.518,-136.599 403.386,-105.72"/>
<polygon fill="red" stroke="red" stroke-width="0.190656" points="405.228,-108.725 412.836,-101.35 402.29,-102.371 405.228,-108.725"/>
</g>
<!-- 13815&#45;&gt;13515 -->
<g id="edge31" class="edge"><title>13815&#45;&gt;13515</title>
<path fill="none" stroke="green" stroke-width="0.883848" d="M81.4863,-430.745C87.628,-426.861 94.2887,-422.721 100.51,-419.002 126.429,-403.509 156.266,-386.747 178.474,-374.474"/>
<polygon fill="green" stroke="green" stroke-width="0.883848" points="180.421,-377.397 187.491,-369.505 177.043,-371.266 180.421,-377.397"/>
</g>
<!-- 13815&#45;&gt;6507 -->
<g id="edge23" class="edge"><title>13815&#45;&gt;6507</title>
<path fill="none" stroke="green" stroke-width="0.84937" d="M73.4243,-422.797C92.9749,-395.067 130.059,-349.293 174.51,-327.848 224.351,-303.802 607.915,-275.788 726.616,-267.617"/>
<polygon fill="green" stroke="green" stroke-width="0.84937" points="726.885,-271.107 736.623,-266.932 726.407,-264.123 726.885,-271.107"/>
</g>
<!-- 12795&#45;&gt;10861 -->
<g id="edge34" class="edge"><title>12795&#45;&gt;10861</title>
<path fill="none" stroke="green" stroke-width="0.591409" d="M283.11,-418.83C283.29,-410.808 283.491,-401.863 283.683,-393.309"/>
<polygon fill="green" stroke="green" stroke-width="0.591409" points="287.185,-393.231 283.911,-383.155 280.187,-393.074 287.185,-393.231"/>
</g>
</g>
</svg>
