<?xml version="1.0" encoding="UTF-8" standalone="no"?>
<!DOCTYPE svg PUBLIC "-//W3C//DTD SVG 1.1//EN"
 "http://www.w3.org/Graphics/SVG/1.1/DTD/svg11.dtd">
<!-- Generated by graphviz version 2.38.0 (20140413.2041)
 -->
<!-- Title: %3 Pages: 1 -->
<svg width="1076pt" height="92pt"
 viewBox="0.00 0.00 1075.50 91.70" xmlns="http://www.w3.org/2000/svg" xmlns:xlink="http://www.w3.org/1999/xlink">
<g id="graph0" class="graph" transform="scale(1 1) rotate(0) translate(4 87.6985)">
<title>%3</title>
<polygon fill="white" stroke="none" points="-4,4 -4,-87.6985 1071.5,-87.6985 1071.5,4 -4,4"/>
<!-- &#45;1 -->
<g id="node1" class="node"><title>&#45;1</title>
<polygon fill="lightgray" stroke="black" points="24,-83.6985 0,-83.6985 0,-65.6985 24,-65.6985 24,-83.6985"/>
<text text-anchor="middle" x="12" y="-72.4985" font-family="Times,serif" font-size="9.00">&#45;1</text>
</g>
<!-- &#45;2 -->
<g id="node2" class="node"><title>&#45;2</title>
<polygon fill="lightgray" stroke="black" points="66,-83.6985 42,-83.6985 42,-65.6985 66,-65.6985 66,-83.6985"/>
<text text-anchor="middle" x="54" y="-72.4985" font-family="Times,serif" font-size="9.00">&#45;2</text>
</g>
<!-- &#45;3 -->
<g id="node3" class="node"><title>&#45;3</title>
<polygon fill="lightgray" stroke="black" points="108,-83.6985 84,-83.6985 84,-65.6985 108,-65.6985 108,-83.6985"/>
<text text-anchor="middle" x="96" y="-72.4985" font-family="Times,serif" font-size="9.00">&#45;3</text>
</g>
<!-- &#45;4 -->
<g id="node4" class="node"><title>&#45;4</title>
<polygon fill="lightgray" stroke="black" points="150,-83.6985 126,-83.6985 126,-65.6985 150,-65.6985 150,-83.6985"/>
<text text-anchor="middle" x="138" y="-72.4985" font-family="Times,serif" font-size="9.00">&#45;4</text>
</g>
<!-- &#45;5 -->
<g id="node5" class="node"><title>&#45;5</title>
<polygon fill="lightgray" stroke="black" points="324,-83.6985 300,-83.6985 300,-65.6985 324,-65.6985 324,-83.6985"/>
<text text-anchor="middle" x="312" y="-72.4985" font-family="Times,serif" font-size="9.00">&#45;5</text>
</g>
<!-- 0 -->
<g id="node25" class="node"><title>0</title>
<ellipse fill="lightblue" stroke="black" cx="427" cy="-14.8492" rx="14.7" ry="14.7"/>
<text text-anchor="middle" x="427" y="-12.6492" font-family="Times,serif" font-size="9.00">0</text>
</g>
<!-- &#45;5&#45;&gt;0 -->
<g id="edge1" class="edge"><title>&#45;5&#45;&gt;0</title>
<path fill="none" stroke="red" stroke-width="2.13737" d="M324.307,-67.5076C343.557,-57.824 381.064,-38.9569 405.029,-26.9015"/>
<polygon fill="red" stroke="red" stroke-width="2.13737" points="406.72,-29.9689 414.08,-22.3483 403.574,-23.7155 406.72,-29.9689"/>
</g>
<!-- &#45;6 -->
<g id="node6" class="node"><title>&#45;6</title>
<polygon fill="lightgray" stroke="black" points="192,-83.6985 168,-83.6985 168,-65.6985 192,-65.6985 192,-83.6985"/>
<text text-anchor="middle" x="180" y="-72.4985" font-family="Times,serif" font-size="9.00">&#45;6</text>
</g>
<!-- 2 -->
<g id="node27" class="node"><title>2</title>
<ellipse fill="lightblue" stroke="black" cx="247" cy="-14.8492" rx="14.7" ry="14.7"/>
<text text-anchor="middle" x="247" y="-12.6492" font-family="Times,serif" font-size="9.00">2</text>
</g>
<!-- &#45;6&#45;&gt;2 -->
<g id="edge9" class="edge"><title>&#45;6&#45;&gt;2</title>
<path fill="none" stroke="red" stroke-width="0.559864" d="M189.316,-65.6548C199.345,-56.996 215.564,-42.9914 228.254,-32.0346"/>
<polygon fill="red" stroke="red" stroke-width="0.559864" points="230.702,-34.5458 235.983,-25.3614 226.127,-29.2475 230.702,-34.5458"/>
</g>
<!-- &#45;7 -->
<g id="node7" class="node"><title>&#45;7</title>
<polygon fill="lightgray" stroke="black" points="649,-83.6985 625,-83.6985 625,-65.6985 649,-65.6985 649,-83.6985"/>
<text text-anchor="middle" x="637" y="-72.4985" font-family="Times,serif" font-size="9.00">&#45;7</text>
</g>
<!-- &#45;8 -->
<g id="node8" class="node"><title>&#45;8</title>
<polygon fill="lightgray" stroke="black" points="691,-83.6985 667,-83.6985 667,-65.6985 691,-65.6985 691,-83.6985"/>
<text text-anchor="middle" x="679" y="-72.4985" font-family="Times,serif" font-size="9.00">&#45;8</text>
</g>
<!-- &#45;9 -->
<g id="node9" class="node"><title>&#45;9</title>
<polygon fill="lightgray" stroke="black" points="282,-83.6985 258,-83.6985 258,-65.6985 282,-65.6985 282,-83.6985"/>
<text text-anchor="middle" x="270" y="-72.4985" font-family="Times,serif" font-size="9.00">&#45;9</text>
</g>
<!-- &#45;9&#45;&gt;0 -->
<g id="edge7" class="edge"><title>&#45;9&#45;&gt;0</title>
<path fill="none" stroke="red" stroke-width="1.05964" d="M282.427,-68.9346C285.243,-67.8633 288.223,-66.7365 291,-65.6985 330.477,-50.9447 376.552,-34.1444 403.667,-24.3"/>
<polygon fill="red" stroke="red" stroke-width="1.05964" points="404.871,-27.5867 413.078,-20.8864 402.484,-21.0062 404.871,-27.5867"/>
</g>
<!-- &#45;9&#45;&gt;2 -->
<g id="edge5" class="edge"><title>&#45;9&#45;&gt;2</title>
<path fill="none" stroke="red" stroke-width="0.132205" d="M266.802,-65.6548C264.017,-58.6501 259.841,-48.1471 256.041,-38.5892"/>
<polygon fill="red" stroke="red" stroke-width="0.132205" points="259.238,-37.1567 252.291,-29.1573 252.733,-39.7429 259.238,-37.1567"/>
</g>
<!-- &#45;10 -->
<g id="node10" class="node"><title>&#45;10</title>
<polygon fill="lightgray" stroke="black" points="512.5,-83.6985 483.5,-83.6985 483.5,-65.6985 512.5,-65.6985 512.5,-83.6985"/>
<text text-anchor="middle" x="498" y="-72.4985" font-family="Times,serif" font-size="9.00">&#45;10</text>
</g>
<!-- &#45;10&#45;&gt;0 -->
<g id="edge18" class="edge"><title>&#45;10&#45;&gt;0</title>
<path fill="none" stroke="green" stroke-width="0.413917" d="M488.128,-65.6548C477.273,-56.8107 459.574,-42.3896 446.007,-31.3354"/>
<polygon fill="green" stroke="green" stroke-width="0.413917" points="448.155,-28.571 438.191,-24.9678 443.733,-33.9977 448.155,-28.571"/>
</g>
<!-- 3 -->
<g id="node28" class="node"><title>3</title>
<ellipse fill="lightblue" stroke="black" cx="498" cy="-14.8492" rx="14.7" ry="14.7"/>
<text text-anchor="middle" x="498" y="-12.6492" font-family="Times,serif" font-size="9.00">3</text>
</g>
<!-- &#45;10&#45;&gt;3 -->
<g id="edge10" class="edge"><title>&#45;10&#45;&gt;3</title>
<path fill="none" stroke="red" stroke-width="0.269083" d="M498,-65.6548C498,-59.0498 498,-49.3344 498,-40.2339"/>
<polygon fill="red" stroke="red" stroke-width="0.269083" points="501.5,-40.0563 498,-30.0563 494.5,-40.0564 501.5,-40.0563"/>
</g>
<!-- &#45;11 -->
<g id="node11" class="node"><title>&#45;11</title>
<polygon fill="lightgray" stroke="black" points="738.5,-83.6985 709.5,-83.6985 709.5,-65.6985 738.5,-65.6985 738.5,-83.6985"/>
<text text-anchor="middle" x="724" y="-72.4985" font-family="Times,serif" font-size="9.00">&#45;11</text>
</g>
<!-- &#45;12 -->
<g id="node12" class="node"><title>&#45;12</title>
<polygon fill="lightgray" stroke="black" points="785.5,-83.6985 756.5,-83.6985 756.5,-65.6985 785.5,-65.6985 785.5,-83.6985"/>
<text text-anchor="middle" x="771" y="-72.4985" font-family="Times,serif" font-size="9.00">&#45;12</text>
</g>
<!-- &#45;13 -->
<g id="node13" class="node"><title>&#45;13</title>
<polygon fill="lightgray" stroke="black" points="418.5,-83.6985 389.5,-83.6985 389.5,-65.6985 418.5,-65.6985 418.5,-83.6985"/>
<text text-anchor="middle" x="404" y="-72.4985" font-family="Times,serif" font-size="9.00">&#45;13</text>
</g>
<!-- &#45;13&#45;&gt;0 -->
<g id="edge16" class="edge"><title>&#45;13&#45;&gt;0</title>
<path fill="none" stroke="green" stroke-width="1.10461" d="M407.198,-65.6548C409.983,-58.6501 414.159,-48.1471 417.959,-38.5892"/>
<polygon fill="green" stroke="green" stroke-width="1.10461" points="421.267,-39.7429 421.709,-29.1573 414.762,-37.1567 421.267,-39.7429"/>
</g>
<!-- &#45;14 -->
<g id="node14" class="node"><title>&#45;14</title>
<polygon fill="lightgray" stroke="black" points="832.5,-83.6985 803.5,-83.6985 803.5,-65.6985 832.5,-65.6985 832.5,-83.6985"/>
<text text-anchor="middle" x="818" y="-72.4985" font-family="Times,serif" font-size="9.00">&#45;14</text>
</g>
<!-- &#45;15 -->
<g id="node15" class="node"><title>&#45;15</title>
<polygon fill="lightgray" stroke="black" points="879.5,-83.6985 850.5,-83.6985 850.5,-65.6985 879.5,-65.6985 879.5,-83.6985"/>
<text text-anchor="middle" x="865" y="-72.4985" font-family="Times,serif" font-size="9.00">&#45;15</text>
</g>
<!-- &#45;16 -->
<g id="node16" class="node"><title>&#45;16</title>
<polygon fill="lightgray" stroke="black" points="559.5,-83.6985 530.5,-83.6985 530.5,-65.6985 559.5,-65.6985 559.5,-83.6985"/>
<text text-anchor="middle" x="545" y="-72.4985" font-family="Times,serif" font-size="9.00">&#45;16</text>
</g>
<!-- &#45;16&#45;&gt;0 -->
<g id="edge13" class="edge"><title>&#45;16&#45;&gt;0</title>
<path fill="none" stroke="red" stroke-width="0.736663" d="M530.055,-66.3718C509.652,-56.3692 472.918,-38.3604 449.265,-26.7648"/>
<polygon fill="red" stroke="red" stroke-width="0.736663" points="450.535,-23.4892 440.015,-22.2299 447.453,-29.7745 450.535,-23.4892"/>
</g>
<!-- 1 -->
<g id="node26" class="node"><title>1</title>
<ellipse fill="lightblue" stroke="black" cx="578" cy="-14.8492" rx="14.7" ry="14.7"/>
<text text-anchor="middle" x="578" y="-12.6492" font-family="Times,serif" font-size="9.00">1</text>
</g>
<!-- &#45;16&#45;&gt;1 -->
<g id="edge6" class="edge"><title>&#45;16&#45;&gt;1</title>
<path fill="none" stroke="green" stroke-width="0.544375" d="M549.589,-65.6548C553.776,-58.3144 560.155,-47.1324 565.808,-37.2221"/>
<polygon fill="green" stroke="green" stroke-width="0.544375" points="568.996,-38.6975 570.911,-28.2771 562.915,-35.229 568.996,-38.6975"/>
</g>
<!-- &#45;17 -->
<g id="node17" class="node"><title>&#45;17</title>
<polygon fill="lightgray" stroke="black" points="926.5,-83.6985 897.5,-83.6985 897.5,-65.6985 926.5,-65.6985 926.5,-83.6985"/>
<text text-anchor="middle" x="912" y="-72.4985" font-family="Times,serif" font-size="9.00">&#45;17</text>
</g>
<!-- &#45;18 -->
<g id="node18" class="node"><title>&#45;18</title>
<polygon fill="lightgray" stroke="black" points="371.5,-83.6985 342.5,-83.6985 342.5,-65.6985 371.5,-65.6985 371.5,-83.6985"/>
<text text-anchor="middle" x="357" y="-72.4985" font-family="Times,serif" font-size="9.00">&#45;18</text>
</g>
<!-- &#45;18&#45;&gt;2 -->
<g id="edge3" class="edge"><title>&#45;18&#45;&gt;2</title>
<path fill="none" stroke="green" stroke-width="0.81929" d="M342.165,-65.8967C323.349,-56.0012 290.742,-38.8534 269.019,-27.4292"/>
<polygon fill="green" stroke="green" stroke-width="0.81929" points="270.373,-24.1865 259.893,-22.6296 267.114,-30.382 270.373,-24.1865"/>
</g>
<!-- &#45;18&#45;&gt;3 -->
<g id="edge8" class="edge"><title>&#45;18&#45;&gt;3</title>
<path fill="none" stroke="green" stroke-width="0.414978" d="M371.558,-67.7255C396.105,-57.6544 445.905,-37.2227 475.147,-25.2252"/>
<polygon fill="green" stroke="green" stroke-width="0.414978" points="476.635,-28.398 484.558,-21.3641 473.978,-21.9219 476.635,-28.398"/>
</g>
<!-- &#45;19 -->
<g id="node19" class="node"><title>&#45;19</title>
<polygon fill="lightgray" stroke="black" points="973.5,-83.6985 944.5,-83.6985 944.5,-65.6985 973.5,-65.6985 973.5,-83.6985"/>
<text text-anchor="middle" x="959" y="-72.4985" font-family="Times,serif" font-size="9.00">&#45;19</text>
</g>
<!-- &#45;20 -->
<g id="node20" class="node"><title>&#45;20</title>
<polygon fill="lightgray" stroke="black" points="239.5,-83.6985 210.5,-83.6985 210.5,-65.6985 239.5,-65.6985 239.5,-83.6985"/>
<text text-anchor="middle" x="225" y="-72.4985" font-family="Times,serif" font-size="9.00">&#45;20</text>
</g>
<!-- &#45;20&#45;&gt;2 -->
<g id="edge2" class="edge"><title>&#45;20&#45;&gt;2</title>
<path fill="none" stroke="green" stroke-width="0.326046" d="M228.059,-65.6548C230.723,-58.6501 234.717,-48.1471 238.352,-38.5892"/>
<polygon fill="green" stroke="green" stroke-width="0.326046" points="241.656,-39.7484 241.939,-29.1573 235.113,-37.2601 241.656,-39.7484"/>
</g>
<!-- &#45;21 -->
<g id="node21" class="node"><title>&#45;21</title>
<polygon fill="lightgray" stroke="black" points="465.5,-83.6985 436.5,-83.6985 436.5,-65.6985 465.5,-65.6985 465.5,-83.6985"/>
<text text-anchor="middle" x="451" y="-72.4985" font-family="Times,serif" font-size="9.00">&#45;21</text>
</g>
<!-- &#45;21&#45;&gt;0 -->
<g id="edge12" class="edge"><title>&#45;21&#45;&gt;0</title>
<path fill="none" stroke="green" stroke-width="3.55103" d="M447.663,-65.6548C444.719,-58.5579 440.285,-47.8701 436.278,-38.2124"/>
<polygon fill="green" stroke="green" stroke-width="3.55103" points="439.402,-36.6102 432.338,-28.7148 432.937,-39.2927 439.402,-36.6102"/>
</g>
<!-- &#45;22 -->
<g id="node22" class="node"><title>&#45;22</title>
<polygon fill="lightgray" stroke="black" points="606.5,-83.6985 577.5,-83.6985 577.5,-65.6985 606.5,-65.6985 606.5,-83.6985"/>
<text text-anchor="middle" x="592" y="-72.4985" font-family="Times,serif" font-size="9.00">&#45;22</text>
</g>
<!-- &#45;22&#45;&gt;1 -->
<g id="edge14" class="edge"><title>&#45;22&#45;&gt;1</title>
<path fill="none" stroke="green" stroke-width="0.348557" d="M590.053,-65.6548C588.416,-58.8878 585.988,-48.8559 583.739,-39.5653"/>
<polygon fill="green" stroke="green" stroke-width="0.348557" points="587.083,-38.5007 581.329,-29.6046 580.279,-40.1473 587.083,-38.5007"/>
</g>
<!-- &#45;22&#45;&gt;3 -->
<g id="edge17" class="edge"><title>&#45;22&#45;&gt;3</title>
<path fill="none" stroke="green" stroke-width="0.58091" d="M578.93,-65.6548C563.394,-56.0937 537.267,-40.0148 518.911,-28.7182"/>
<polygon fill="green" stroke="green" stroke-width="0.58091" points="520.712,-25.7171 510.361,-23.4566 517.043,-31.6786 520.712,-25.7171"/>
</g>
<!-- &#45;23 -->
<g id="node23" class="node"><title>&#45;23</title>
<polygon fill="lightgray" stroke="black" points="1020.5,-83.6985 991.5,-83.6985 991.5,-65.6985 1020.5,-65.6985 1020.5,-83.6985"/>
<text text-anchor="middle" x="1006" y="-72.4985" font-family="Times,serif" font-size="9.00">&#45;23</text>
</g>
<!-- &#45;24 -->
<g id="node24" class="node"><title>&#45;24</title>
<polygon fill="lightgray" stroke="black" points="1067.5,-83.6985 1038.5,-83.6985 1038.5,-65.6985 1067.5,-65.6985 1067.5,-83.6985"/>
<text text-anchor="middle" x="1053" y="-72.4985" font-family="Times,serif" font-size="9.00">&#45;24</text>
</g>
<!-- 1&#45;&gt;1 -->
<g id="edge4" class="edge"><title>1&#45;&gt;1</title>
<path fill="none" stroke="red" stroke-width="0.408855" d="M589.788,-23.9294C600.022,-28.0713 610.849,-25.0446 610.849,-14.8492 610.849,-7.99927 605.962,-4.3853 599.65,-4.00735"/>
<polygon fill="red" stroke="red" stroke-width="0.408855" points="599.016,-0.565092 589.788,-5.76904 600.247,-7.45602 599.016,-0.565092"/>
</g>
<!-- 2&#45;&gt;2 -->
<g id="edge15" class="edge"><title>2&#45;&gt;2</title>
<path fill="none" stroke="green" stroke-width="0.37821" d="M258.788,-23.9294C269.022,-28.0713 279.849,-25.0446 279.849,-14.8492 279.849,-7.99927 274.962,-4.3853 268.65,-4.00735"/>
<polygon fill="green" stroke="green" stroke-width="0.37821" points="268.016,-0.565092 258.788,-5.76904 269.247,-7.45602 268.016,-0.565092"/>
</g>
<!-- 3&#45;&gt;3 -->
<g id="edge11" class="edge"><title>3&#45;&gt;3</title>
<path fill="none" stroke="red" stroke-width="0.437606" d="M509.788,-23.9294C520.022,-28.0713 530.849,-25.0446 530.849,-14.8492 530.849,-7.99927 525.962,-4.3853 519.65,-4.00735"/>
<polygon fill="red" stroke="red" stroke-width="0.437606" points="519.016,-0.565092 509.788,-5.76904 520.247,-7.45602 519.016,-0.565092"/>
</g>
</g>
</svg>
