<?xml version="1.0" encoding="UTF-8" standalone="no"?>
<!DOCTYPE svg PUBLIC "-//W3C//DTD SVG 1.1//EN"
 "http://www.w3.org/Graphics/SVG/1.1/DTD/svg11.dtd">
<!-- Generated by graphviz version 2.38.0 (20140413.2041)
 -->
<!-- Title: %3 Pages: 1 -->
<svg width="1190pt" height="938pt"
 viewBox="0.00 0.00 1190.48 937.93" xmlns="http://www.w3.org/2000/svg" xmlns:xlink="http://www.w3.org/1999/xlink">
<g id="graph0" class="graph" transform="scale(1 1) rotate(0) translate(4 933.928)">
<title>%3</title>
<polygon fill="white" stroke="none" points="-4,4 -4,-933.928 1186.48,-933.928 1186.48,4 -4,4"/>
<!-- &#45;1 -->
<g id="node1" class="node"><title>&#45;1</title>
<polygon fill="lightgray" stroke="black" points="249.631,-213.229 225.631,-213.229 225.631,-195.229 249.631,-195.229 249.631,-213.229"/>
<text text-anchor="middle" x="237.631" y="-202.029" font-family="Times,serif" font-size="9.00">&#45;1</text>
</g>
<!-- 9931 -->
<g id="node44" class="node"><title>9931</title>
<ellipse fill="white" stroke="black" cx="264.631" cy="-113.075" rx="25" ry="25"/>
<text text-anchor="middle" x="264.631" y="-110.875" font-family="Times,serif" font-size="9.00">9931</text>
</g>
<!-- &#45;1&#45;&gt;9931 -->
<g id="edge8" class="edge"><title>&#45;1&#45;&gt;9931</title>
<path fill="none" stroke="red" stroke-width="0.738774" d="M240.122,-195.001C243.418,-184.119 249.422,-164.293 254.663,-146.989"/>
<polygon fill="red" stroke="red" stroke-width="0.738774" points="258.085,-147.764 257.633,-137.179 251.385,-145.735 258.085,-147.764"/>
</g>
<!-- 6507 -->
<g id="node53" class="node"><title>6507</title>
<ellipse fill="white" stroke="black" cx="211.631" cy="-24.7487" rx="25" ry="25"/>
<text text-anchor="middle" x="211.631" y="-22.5487" font-family="Times,serif" font-size="9.00">6507</text>
</g>
<!-- &#45;1&#45;&gt;6507 -->
<g id="edge16" class="edge"><title>&#45;1&#45;&gt;6507</title>
<path fill="none" stroke="red" stroke-width="0.676045" d="M236.446,-195.142C232.993,-171.574 222.794,-101.95 216.598,-59.6556"/>
<polygon fill="red" stroke="red" stroke-width="0.676045" points="220.028,-58.9233 215.115,-49.5363 213.102,-59.938 220.028,-58.9233"/>
</g>
<!-- &#45;2 -->
<g id="node2" class="node"><title>&#45;2</title>
<polygon fill="lightgray" stroke="black" points="532.631,-924.079 508.631,-924.079 508.631,-906.079 532.631,-906.079 532.631,-924.079"/>
<text text-anchor="middle" x="520.631" y="-912.879" font-family="Times,serif" font-size="9.00">&#45;2</text>
</g>
<!-- &#45;3 -->
<g id="node3" class="node"><title>&#45;3</title>
<polygon fill="lightgray" stroke="black" points="782.631,-213.229 758.631,-213.229 758.631,-195.229 782.631,-195.229 782.631,-213.229"/>
<text text-anchor="middle" x="770.631" y="-202.029" font-family="Times,serif" font-size="9.00">&#45;3</text>
</g>
<!-- 2197 -->
<g id="node35" class="node"><title>2197</title>
<ellipse fill="white" stroke="black" cx="770.631" cy="-113.075" rx="25" ry="25"/>
<text text-anchor="middle" x="770.631" y="-110.875" font-family="Times,serif" font-size="9.00">2197</text>
</g>
<!-- &#45;3&#45;&gt;2197 -->
<g id="edge27" class="edge"><title>&#45;3&#45;&gt;2197</title>
<path fill="none" stroke="green" stroke-width="0.640602" d="M770.631,-195.001C770.631,-184.363 770.631,-165.179 770.631,-148.159"/>
<polygon fill="green" stroke="green" stroke-width="0.640602" points="774.131,-147.937 770.631,-137.937 767.131,-147.937 774.131,-147.937"/>
</g>
<!-- &#45;4 -->
<g id="node4" class="node"><title>&#45;4</title>
<polygon fill="lightgray" stroke="black" points="574.631,-924.079 550.631,-924.079 550.631,-906.079 574.631,-906.079 574.631,-924.079"/>
<text text-anchor="middle" x="562.631" y="-912.879" font-family="Times,serif" font-size="9.00">&#45;4</text>
</g>
<!-- &#45;5 -->
<g id="node5" class="node"><title>&#45;5</title>
<polygon fill="lightgray" stroke="black" points="180.631,-213.229 156.631,-213.229 156.631,-195.229 180.631,-195.229 180.631,-213.229"/>
<text text-anchor="middle" x="168.631" y="-202.029" font-family="Times,serif" font-size="9.00">&#45;5</text>
</g>
<!-- 2 -->
<g id="node27" class="node"><title>2</title>
<ellipse fill="lightblue" stroke="black" cx="168.631" cy="-113.075" rx="14.7" ry="14.7"/>
<text text-anchor="middle" x="168.631" y="-110.875" font-family="Times,serif" font-size="9.00">2</text>
</g>
<!-- &#45;5&#45;&gt;2 -->
<g id="edge53" class="edge"><title>&#45;5&#45;&gt;2</title>
<path fill="none" stroke="red" stroke-width="0.840365" d="M168.631,-195.001C168.631,-182.245 168.631,-157.201 168.631,-138.334"/>
<polygon fill="red" stroke="red" stroke-width="0.840365" points="172.131,-138.079 168.631,-128.079 165.131,-138.079 172.131,-138.079"/>
</g>
<!-- &#45;6 -->
<g id="node6" class="node"><title>&#45;6</title>
<polygon fill="lightgray" stroke="black" points="616.631,-924.079 592.631,-924.079 592.631,-906.079 616.631,-906.079 616.631,-924.079"/>
<text text-anchor="middle" x="604.631" y="-912.879" font-family="Times,serif" font-size="9.00">&#45;6</text>
</g>
<!-- &#45;7 -->
<g id="node7" class="node"><title>&#45;7</title>
<polygon fill="lightgray" stroke="black" points="443.631,-666.172 419.631,-666.172 419.631,-648.172 443.631,-648.172 443.631,-666.172"/>
<text text-anchor="middle" x="431.631" y="-654.972" font-family="Times,serif" font-size="9.00">&#45;7</text>
</g>
<!-- 2831 -->
<g id="node33" class="node"><title>2831</title>
<ellipse fill="white" stroke="black" cx="518.631" cy="-113.075" rx="25" ry="25"/>
<text text-anchor="middle" x="518.631" y="-110.875" font-family="Times,serif" font-size="9.00">2831</text>
</g>
<!-- &#45;7&#45;&gt;2831 -->
<g id="edge10" class="edge"><title>&#45;7&#45;&gt;2831</title>
<path fill="none" stroke="green" stroke-width="0.552168" d="M434.612,-648.166C443.571,-623.37 469.631,-545.495 469.631,-478.692 469.631,-478.692 469.631,-478.692 469.631,-294.383 469.631,-241.381 472.789,-227.231 488.631,-176.652 492.069,-165.674 497.116,-154.179 502.093,-144.081"/>
<polygon fill="green" stroke="green" stroke-width="0.552168" points="505.356,-145.387 506.789,-134.889 499.123,-142.202 505.356,-145.387"/>
</g>
<!-- 4505 -->
<g id="node36" class="node"><title>4505</title>
<ellipse fill="white" stroke="black" cx="416.631" cy="-204.229" rx="25" ry="25"/>
<text text-anchor="middle" x="416.631" y="-202.029" font-family="Times,serif" font-size="9.00">4505</text>
</g>
<!-- &#45;7&#45;&gt;4505 -->
<g id="edge23" class="edge"><title>&#45;7&#45;&gt;4505</title>
<path fill="none" stroke="red" stroke-width="0.709475" d="M431.631,-648.035C431.631,-622.861 431.631,-544.015 431.631,-478.692 431.631,-478.692 431.631,-478.692 431.631,-385.538 431.631,-334.219 425.522,-274.967 421.101,-238.808"/>
<polygon fill="red" stroke="red" stroke-width="0.709475" points="424.564,-238.292 419.848,-228.805 417.618,-239.162 424.564,-238.292"/>
</g>
<!-- 16194 -->
<g id="node43" class="node"><title>16194</title>
<ellipse fill="white" stroke="black" cx="588.631" cy="-113.075" rx="27.6545" ry="27.6545"/>
<text text-anchor="middle" x="588.631" y="-110.875" font-family="Times,serif" font-size="9.00">16194</text>
</g>
<!-- &#45;7&#45;&gt;16194 -->
<g id="edge29" class="edge"><title>&#45;7&#45;&gt;16194</title>
<path fill="none" stroke="red" stroke-width="1.68421" d="M437.724,-647.979C445.9,-636.748 460.556,-615.758 470.631,-596.423 531.168,-480.246 553.275,-451.076 580.631,-322.96 593.275,-263.74 592.835,-192.976 590.996,-150.876"/>
<polygon fill="red" stroke="red" stroke-width="1.68421" points="594.488,-150.632 590.505,-140.815 587.496,-150.973 594.488,-150.632"/>
</g>
<!-- 12626 -->
<g id="node48" class="node"><title>12626</title>
<ellipse fill="white" stroke="black" cx="152.631" cy="-568.846" rx="27.6545" ry="27.6545"/>
<text text-anchor="middle" x="152.631" y="-566.646" font-family="Times,serif" font-size="9.00">12626</text>
</g>
<!-- &#45;7&#45;&gt;12626 -->
<g id="edge49" class="edge"><title>&#45;7&#45;&gt;12626</title>
<path fill="none" stroke="green" stroke-width="0.679638" d="M419.603,-652.902C387.981,-644.249 299.966,-619.813 227.631,-596.423 214.562,-592.198 200.333,-587.246 187.814,-582.769"/>
<polygon fill="green" stroke="green" stroke-width="0.679638" points="188.791,-579.401 178.197,-579.303 186.418,-585.986 188.791,-579.401"/>
</g>
<!-- 5851 -->
<g id="node49" class="node"><title>5851</title>
<ellipse fill="white" stroke="black" cx="264.631" cy="-477.692" rx="25" ry="25"/>
<text text-anchor="middle" x="264.631" y="-475.492" font-family="Times,serif" font-size="9.00">5851</text>
</g>
<!-- &#45;7&#45;&gt;5851 -->
<g id="edge26" class="edge"><title>&#45;7&#45;&gt;5851</title>
<path fill="none" stroke="green" stroke-width="0.228081" d="M429.392,-647.963C423.5,-627.648 405.828,-574.289 374.631,-541.269 353.014,-518.39 321.142,-501.52 297.263,-491.1"/>
<polygon fill="green" stroke="green" stroke-width="0.228081" points="298.471,-487.811 287.896,-487.161 295.758,-494.263 298.471,-487.811"/>
</g>
<!-- &#45;8 -->
<g id="node8" class="node"><title>&#45;8</title>
<polygon fill="lightgray" stroke="black" points="716.631,-213.229 692.631,-213.229 692.631,-195.229 716.631,-195.229 716.631,-213.229"/>
<text text-anchor="middle" x="704.631" y="-202.029" font-family="Times,serif" font-size="9.00">&#45;8</text>
</g>
<!-- 1 -->
<g id="node26" class="node"><title>1</title>
<ellipse fill="lightblue" stroke="black" cx="717.631" cy="-24.7487" rx="14.7" ry="14.7"/>
<text text-anchor="middle" x="717.631" y="-22.5487" font-family="Times,serif" font-size="9.00">1</text>
</g>
<!-- &#45;8&#45;&gt;1 -->
<g id="edge11" class="edge"><title>&#45;8&#45;&gt;1</title>
<path fill="none" stroke="green" stroke-width="1.15012" d="M705.223,-195.142C707.093,-169.611 712.922,-90.0375 715.876,-49.7024"/>
<polygon fill="green" stroke="green" stroke-width="1.15012" points="719.371,-49.8985 716.611,-39.6695 712.39,-49.3871 719.371,-49.8985"/>
</g>
<!-- &#45;8&#45;&gt;2197 -->
<g id="edge42" class="edge"><title>&#45;8&#45;&gt;2197</title>
<path fill="none" stroke="green" stroke-width="0.253496" d="M710.721,-195.001C719.632,-182.964 736.643,-159.986 750.268,-141.581"/>
<polygon fill="green" stroke="green" stroke-width="0.253496" points="753.112,-143.622 756.249,-133.502 747.485,-139.457 753.112,-143.622"/>
</g>
<!-- &#45;8&#45;&gt;16194 -->
<g id="edge52" class="edge"><title>&#45;8&#45;&gt;16194</title>
<path fill="none" stroke="green" stroke-width="0.392059" d="M694.587,-195.002C688.083,-189.709 679.406,-182.711 671.631,-176.652 654.336,-163.174 634.762,-148.393 618.967,-136.583"/>
<polygon fill="green" stroke="green" stroke-width="0.392059" points="620.728,-133.53 610.62,-130.355 616.542,-139.14 620.728,-133.53"/>
</g>
<!-- 16590 -->
<g id="node45" class="node"><title>16590</title>
<ellipse fill="white" stroke="black" cx="661.631" cy="-113.075" rx="27.6545" ry="27.6545"/>
<text text-anchor="middle" x="661.631" y="-110.875" font-family="Times,serif" font-size="9.00">16590</text>
</g>
<!-- &#45;8&#45;&gt;16590 -->
<g id="edge38" class="edge"><title>&#45;8&#45;&gt;16590</title>
<path fill="none" stroke="green" stroke-width="0.763946" d="M700.662,-195.001C695.47,-184.235 686.056,-164.717 677.774,-147.546"/>
<polygon fill="green" stroke="green" stroke-width="0.763946" points="680.82,-145.805 673.324,-138.319 674.515,-148.846 680.82,-145.805"/>
</g>
<!-- &#45;9 -->
<g id="node9" class="node"><title>&#45;9</title>
<polygon fill="lightgray" stroke="black" points="162.631,-395.538 138.631,-395.538 138.631,-377.538 162.631,-377.538 162.631,-395.538"/>
<text text-anchor="middle" x="150.631" y="-384.338" font-family="Times,serif" font-size="9.00">&#45;9</text>
</g>
<!-- 13193 -->
<g id="node30" class="node"><title>13193</title>
<ellipse fill="white" stroke="black" cx="41.6306" cy="-295.383" rx="27.6545" ry="27.6545"/>
<text text-anchor="middle" x="41.6306" y="-293.183" font-family="Times,serif" font-size="9.00">13193</text>
</g>
<!-- &#45;9&#45;&gt;13193 -->
<g id="edge37" class="edge"><title>&#45;9&#45;&gt;13193</title>
<path fill="none" stroke="red" stroke-width="0.277626" d="M140.571,-377.31C124.825,-364.431 93.7647,-339.025 70.6249,-320.099"/>
<polygon fill="red" stroke="red" stroke-width="0.277626" points="72.7649,-317.327 62.8085,-313.705 68.3331,-322.746 72.7649,-317.327"/>
</g>
<!-- 6074 -->
<g id="node41" class="node"><title>6074</title>
<ellipse fill="white" stroke="black" cx="370.631" cy="-295.383" rx="25" ry="25"/>
<text text-anchor="middle" x="370.631" y="-293.183" font-family="Times,serif" font-size="9.00">6074</text>
</g>
<!-- &#45;9&#45;&gt;6074 -->
<g id="edge41" class="edge"><title>&#45;9&#45;&gt;6074</title>
<path fill="none" stroke="red" stroke-width="0.369393" d="M162.772,-380.617C195.961,-367.168 289.019,-329.456 338.597,-309.365"/>
<polygon fill="red" stroke="red" stroke-width="0.369393" points="339.948,-312.594 347.902,-305.594 337.319,-306.106 339.948,-312.594"/>
</g>
<!-- &#45;10 -->
<g id="node10" class="node"><title>&#45;10</title>
<polygon fill="lightgray" stroke="black" points="664.131,-924.079 635.131,-924.079 635.131,-906.079 664.131,-906.079 664.131,-924.079"/>
<text text-anchor="middle" x="649.631" y="-912.879" font-family="Times,serif" font-size="9.00">&#45;10</text>
</g>
<!-- &#45;11 -->
<g id="node11" class="node"><title>&#45;11</title>
<polygon fill="lightgray" stroke="black" points="182.131,-845.652 153.131,-845.652 153.131,-827.652 182.131,-827.652 182.131,-845.652"/>
<text text-anchor="middle" x="167.631" y="-834.452" font-family="Times,serif" font-size="9.00">&#45;11</text>
</g>
<!-- 15758 -->
<g id="node32" class="node"><title>15758</title>
<ellipse fill="white" stroke="black" cx="102.631" cy="-477.692" rx="27.6545" ry="27.6545"/>
<text text-anchor="middle" x="102.631" y="-475.492" font-family="Times,serif" font-size="9.00">15758</text>
</g>
<!-- &#45;11&#45;&gt;15758 -->
<g id="edge44" class="edge"><title>&#45;11&#45;&gt;15758</title>
<path fill="none" stroke="red" stroke-width="0.817915" d="M165.23,-827.386C158.637,-804.458 139.99,-738.056 128.631,-681.921 121.007,-644.249 120.63,-634.533 115.631,-596.423 112.082,-569.371 108.72,-538.736 106.304,-515.498"/>
<polygon fill="red" stroke="red" stroke-width="0.817915" points="109.768,-514.971 105.263,-505.381 102.805,-515.687 109.768,-514.971"/>
</g>
<!-- 12003 -->
<g id="node50" class="node"><title>12003</title>
<ellipse fill="white" stroke="black" cx="350.631" cy="-745.498" rx="27.6545" ry="27.6545"/>
<text text-anchor="middle" x="350.631" y="-743.298" font-family="Times,serif" font-size="9.00">12003</text>
</g>
<!-- &#45;11&#45;&gt;12003 -->
<g id="edge47" class="edge"><title>&#45;11&#45;&gt;12003</title>
<path fill="none" stroke="green" stroke-width="0.184947" d="M182.297,-828.507C211.349,-814.353 276.873,-782.432 317.064,-762.851"/>
<polygon fill="green" stroke="green" stroke-width="0.184947" points="318.753,-765.922 326.21,-758.395 315.687,-759.629 318.753,-765.922"/>
</g>
<!-- &#45;12 -->
<g id="node12" class="node"><title>&#45;12</title>
<polygon fill="lightgray" stroke="black" points="711.131,-924.079 682.131,-924.079 682.131,-906.079 711.131,-906.079 711.131,-924.079"/>
<text text-anchor="middle" x="696.631" y="-912.879" font-family="Times,serif" font-size="9.00">&#45;12</text>
</g>
<!-- &#45;13 -->
<g id="node13" class="node"><title>&#45;13</title>
<polygon fill="lightgray" stroke="black" points="758.131,-924.079 729.131,-924.079 729.131,-906.079 758.131,-906.079 758.131,-924.079"/>
<text text-anchor="middle" x="743.631" y="-912.879" font-family="Times,serif" font-size="9.00">&#45;13</text>
</g>
<!-- &#45;14 -->
<g id="node14" class="node"><title>&#45;14</title>
<polygon fill="lightgray" stroke="black" points="490.131,-924.079 461.131,-924.079 461.131,-906.079 490.131,-906.079 490.131,-924.079"/>
<text text-anchor="middle" x="475.631" y="-912.879" font-family="Times,serif" font-size="9.00">&#45;14</text>
</g>
<!-- 17575 -->
<g id="node38" class="node"><title>17575</title>
<ellipse fill="white" stroke="black" cx="610.631" cy="-745.498" rx="27.6545" ry="27.6545"/>
<text text-anchor="middle" x="610.631" y="-743.298" font-family="Times,serif" font-size="9.00">17575</text>
</g>
<!-- &#45;14&#45;&gt;17575 -->
<g id="edge48" class="edge"><title>&#45;14&#45;&gt;17575</title>
<path fill="none" stroke="green" stroke-width="0.28706" d="M489.608,-905.932C513.153,-892.187 558.307,-865.733 559.631,-864.23 580.332,-840.721 593.679,-807.515 601.506,-782.358"/>
<polygon fill="green" stroke="green" stroke-width="0.28706" points="604.952,-783.047 604.431,-772.465 598.239,-781.062 604.952,-783.047"/>
</g>
<!-- 13885 -->
<g id="node42" class="node"><title>13885</title>
<ellipse fill="white" stroke="black" cx="350.631" cy="-836.652" rx="27.6545" ry="27.6545"/>
<text text-anchor="middle" x="350.631" y="-834.452" font-family="Times,serif" font-size="9.00">13885</text>
</g>
<!-- &#45;14&#45;&gt;13885 -->
<g id="edge50" class="edge"><title>&#45;14&#45;&gt;13885</title>
<path fill="none" stroke="red" stroke-width="0.110055" d="M462.058,-906.059C445.574,-896.288 416.954,-879.227 392.631,-864.23 389.256,-862.149 385.741,-859.96 382.243,-857.767"/>
<polygon fill="red" stroke="red" stroke-width="0.110055" points="384.004,-854.739 373.677,-852.371 380.273,-860.662 384.004,-854.739"/>
</g>
<!-- &#45;14&#45;&gt;12003 -->
<g id="edge17" class="edge"><title>&#45;14&#45;&gt;12003</title>
<path fill="none" stroke="green" stroke-width="0.718312" d="M466.388,-905.759C456.085,-896.248 439.219,-879.956 426.631,-864.23 404.792,-836.946 383.532,-803.213 369.078,-778.858"/>
<polygon fill="green" stroke="green" stroke-width="0.718312" points="371.967,-776.866 363.884,-770.016 365.931,-780.411 371.967,-776.866"/>
</g>
<!-- 10861 -->
<g id="node54" class="node"><title>10861</title>
<ellipse fill="white" stroke="black" cx="543.631" cy="-295.383" rx="27.6545" ry="27.6545"/>
<text text-anchor="middle" x="543.631" y="-293.183" font-family="Times,serif" font-size="9.00">10861</text>
</g>
<!-- &#45;14&#45;&gt;10861 -->
<g id="edge2" class="edge"><title>&#45;14&#45;&gt;10861</title>
<path fill="none" stroke="green" stroke-width="1.04339" d="M481.843,-905.871C498.974,-882.391 545.631,-812.396 545.631,-746.498 545.631,-746.498 545.631,-746.498 545.631,-567.846 545.631,-483.85 544.661,-385.238 544.072,-333.071"/>
<polygon fill="green" stroke="green" stroke-width="1.04339" points="547.571,-332.929 543.956,-322.97 540.571,-333.01 547.571,-332.929"/>
</g>
<!-- &#45;15 -->
<g id="node15" class="node"><title>&#45;15</title>
<polygon fill="lightgray" stroke="black" points="464.131,-845.652 435.131,-845.652 435.131,-827.652 464.131,-827.652 464.131,-845.652"/>
<text text-anchor="middle" x="449.631" y="-834.452" font-family="Times,serif" font-size="9.00">&#45;15</text>
</g>
<!-- &#45;15&#45;&gt;12003 -->
<g id="edge39" class="edge"><title>&#45;15&#45;&gt;12003</title>
<path fill="none" stroke="red" stroke-width="0.559838" d="M440.772,-827.482C435.043,-822.21 427.415,-815.216 420.631,-809.075 406.819,-796.574 391.389,-782.764 378.538,-771.304"/>
<polygon fill="red" stroke="red" stroke-width="0.559838" points="380.702,-768.544 370.907,-764.506 376.045,-773.771 380.702,-768.544"/>
</g>
<!-- &#45;16 -->
<g id="node16" class="node"><title>&#45;16</title>
<polygon fill="lightgray" stroke="black" points="805.131,-924.079 776.131,-924.079 776.131,-906.079 805.131,-906.079 805.131,-924.079"/>
<text text-anchor="middle" x="790.631" y="-912.879" font-family="Times,serif" font-size="9.00">&#45;16</text>
</g>
<!-- &#45;17 -->
<g id="node17" class="node"><title>&#45;17</title>
<polygon fill="lightgray" stroke="black" points="167.131,-666.172 138.131,-666.172 138.131,-648.172 167.131,-648.172 167.131,-666.172"/>
<text text-anchor="middle" x="152.631" y="-654.972" font-family="Times,serif" font-size="9.00">&#45;17</text>
</g>
<!-- &#45;17&#45;&gt;12626 -->
<g id="edge3" class="edge"><title>&#45;17&#45;&gt;12626</title>
<path fill="none" stroke="green" stroke-width="0.552763" d="M152.631,-647.895C152.631,-638.363 152.631,-622.051 152.631,-606.797"/>
<polygon fill="green" stroke="green" stroke-width="0.552763" points="156.131,-606.501 152.631,-596.501 149.131,-606.501 156.131,-606.501"/>
</g>
<!-- &#45;18 -->
<g id="node18" class="node"><title>&#45;18</title>
<polygon fill="lightgray" stroke="black" points="852.131,-924.079 823.131,-924.079 823.131,-906.079 852.131,-906.079 852.131,-924.079"/>
<text text-anchor="middle" x="837.631" y="-912.879" font-family="Times,serif" font-size="9.00">&#45;18</text>
</g>
<!-- &#45;19 -->
<g id="node19" class="node"><title>&#45;19</title>
<polygon fill="lightgray" stroke="black" points="899.131,-924.079 870.131,-924.079 870.131,-906.079 899.131,-906.079 899.131,-924.079"/>
<text text-anchor="middle" x="884.631" y="-912.879" font-family="Times,serif" font-size="9.00">&#45;19</text>
</g>
<!-- &#45;20 -->
<g id="node20" class="node"><title>&#45;20</title>
<polygon fill="lightgray" stroke="black" points="252.131,-754.498 223.131,-754.498 223.131,-736.498 252.131,-736.498 252.131,-754.498"/>
<text text-anchor="middle" x="237.631" y="-743.298" font-family="Times,serif" font-size="9.00">&#45;20</text>
</g>
<!-- 9704 -->
<g id="node51" class="node"><title>9704</title>
<ellipse fill="white" stroke="black" cx="237.631" cy="-657.172" rx="25" ry="25"/>
<text text-anchor="middle" x="237.631" y="-654.972" font-family="Times,serif" font-size="9.00">9704</text>
</g>
<!-- &#45;20&#45;&gt;9704 -->
<g id="edge55" class="edge"><title>&#45;20&#45;&gt;9704</title>
<path fill="none" stroke="red" stroke-width="0.104256" d="M237.631,-736.221C237.631,-726.112 237.631,-708.38 237.631,-692.369"/>
<polygon fill="red" stroke="red" stroke-width="0.104256" points="241.131,-692.194 237.631,-682.194 234.131,-692.194 241.131,-692.194"/>
</g>
<!-- &#45;21 -->
<g id="node21" class="node"><title>&#45;21</title>
<polygon fill="lightgray" stroke="black" points="946.131,-924.079 917.131,-924.079 917.131,-906.079 946.131,-906.079 946.131,-924.079"/>
<text text-anchor="middle" x="931.631" y="-912.879" font-family="Times,serif" font-size="9.00">&#45;21</text>
</g>
<!-- &#45;22 -->
<g id="node22" class="node"><title>&#45;22</title>
<polygon fill="lightgray" stroke="black" points="993.131,-924.079 964.131,-924.079 964.131,-906.079 993.131,-906.079 993.131,-924.079"/>
<text text-anchor="middle" x="978.631" y="-912.879" font-family="Times,serif" font-size="9.00">&#45;22</text>
</g>
<!-- &#45;23 -->
<g id="node23" class="node"><title>&#45;23</title>
<polygon fill="lightgray" stroke="black" points="1040.13,-924.079 1011.13,-924.079 1011.13,-906.079 1040.13,-906.079 1040.13,-924.079"/>
<text text-anchor="middle" x="1025.63" y="-912.879" font-family="Times,serif" font-size="9.00">&#45;23</text>
</g>
<!-- &#45;24 -->
<g id="node24" class="node"><title>&#45;24</title>
<polygon fill="lightgray" stroke="black" points="1087.13,-924.079 1058.13,-924.079 1058.13,-906.079 1087.13,-906.079 1087.13,-924.079"/>
<text text-anchor="middle" x="1072.63" y="-912.879" font-family="Times,serif" font-size="9.00">&#45;24</text>
</g>
<!-- 0 -->
<g id="node25" class="node"><title>0</title>
<ellipse fill="lightblue" stroke="black" cx="1119.63" cy="-915.079" rx="14.7" ry="14.7"/>
<text text-anchor="middle" x="1119.63" y="-912.879" font-family="Times,serif" font-size="9.00">0</text>
</g>
<!-- 2&#45;&gt;6507 -->
<g id="edge6" class="edge"><title>2&#45;&gt;6507</title>
<path fill="none" stroke="green" stroke-width="0.348831" d="M174.975,-99.337C180.571,-88.1028 188.954,-71.274 196.291,-56.544"/>
<polygon fill="green" stroke="green" stroke-width="0.348831" points="199.596,-57.7588 200.922,-47.2472 193.33,-54.6377 199.596,-57.7588"/>
</g>
<!-- 3 -->
<g id="node28" class="node"><title>3</title>
<ellipse fill="lightblue" stroke="black" cx="1167.63" cy="-915.079" rx="14.7" ry="14.7"/>
<text text-anchor="middle" x="1167.63" y="-912.879" font-family="Times,serif" font-size="9.00">3</text>
</g>
<!-- 14216 -->
<g id="node29" class="node"><title>14216</title>
<ellipse fill="white" stroke="black" cx="317.631" cy="-386.538" rx="27.6545" ry="27.6545"/>
<text text-anchor="middle" x="317.631" y="-384.338" font-family="Times,serif" font-size="9.00">14216</text>
</g>
<!-- 14216&#45;&gt;6074 -->
<g id="edge54" class="edge"><title>14216&#45;&gt;6074</title>
<path fill="none" stroke="red" stroke-width="0.937495" d="M331.556,-362.113C338.203,-350.931 346.225,-337.436 353.267,-325.592"/>
<polygon fill="red" stroke="red" stroke-width="0.937495" points="356.32,-327.305 358.421,-316.921 350.303,-323.728 356.32,-327.305"/>
</g>
<!-- 14216&#45;&gt;6507 -->
<g id="edge20" class="edge"><title>14216&#45;&gt;6507</title>
<path fill="none" stroke="red" stroke-width="1.25573" d="M323.154,-359.323C333.272,-304.396 349.375,-174.927 298.631,-85.4975 286.508,-64.1329 263.223,-48.7591 243.791,-38.9607"/>
<polygon fill="red" stroke="red" stroke-width="1.25573" points="245.161,-35.7363 234.627,-34.5966 242.151,-42.0563 245.161,-35.7363"/>
</g>
<!-- 17721 -->
<g id="node40" class="node"><title>17721</title>
<ellipse fill="white" stroke="black" cx="41.6306" cy="-204.229" rx="27.6545" ry="27.6545"/>
<text text-anchor="middle" x="41.6306" y="-202.029" font-family="Times,serif" font-size="9.00">17721</text>
</g>
<!-- 13193&#45;&gt;17721 -->
<g id="edge30" class="edge"><title>13193&#45;&gt;17721</title>
<path fill="none" stroke="green" stroke-width="0.266768" d="M41.6306,-267.634C41.6306,-259.612 41.6306,-250.667 41.6306,-242.113"/>
<polygon fill="green" stroke="green" stroke-width="0.266768" points="45.1307,-241.959 41.6306,-231.959 38.1307,-241.959 45.1307,-241.959"/>
</g>
<!-- 10705 -->
<g id="node47" class="node"><title>10705</title>
<ellipse fill="white" stroke="black" cx="35.6306" cy="-113.075" rx="27.6545" ry="27.6545"/>
<text text-anchor="middle" x="35.6306" y="-110.875" font-family="Times,serif" font-size="9.00">10705</text>
</g>
<!-- 13193&#45;&gt;10705 -->
<g id="edge32" class="edge"><title>13193&#45;&gt;10705</title>
<path fill="none" stroke="green" stroke-width="0.334981" d="M25.1698,-273.104C17.2865,-261.566 8.69289,-246.658 4.63056,-231.806 -1.83664,-208.162 -0.957279,-200.519 4.63056,-176.652 7.07647,-166.204 11.5361,-155.502 16.3248,-145.969"/>
<polygon fill="green" stroke="green" stroke-width="0.334981" points="19.554,-147.351 21.1609,-136.879 13.3741,-144.063 19.554,-147.351"/>
</g>
<!-- 16141 -->
<g id="node31" class="node"><title>16141</title>
<ellipse fill="white" stroke="black" cx="337.631" cy="-568.846" rx="27.6545" ry="27.6545"/>
<text text-anchor="middle" x="337.631" y="-566.646" font-family="Times,serif" font-size="9.00">16141</text>
</g>
<!-- 16141&#45;&gt;5851 -->
<g id="edge24" class="edge"><title>16141&#45;&gt;5851</title>
<path fill="none" stroke="green" stroke-width="0.219559" d="M320.331,-546.718C310.135,-534.266 297.146,-518.403 286.276,-505.127"/>
<polygon fill="green" stroke="green" stroke-width="0.219559" points="288.869,-502.769 279.825,-497.249 283.453,-507.204 288.869,-502.769"/>
</g>
<!-- 2831&#45;&gt;1 -->
<g id="edge7" class="edge"><title>2831&#45;&gt;1</title>
<path fill="none" stroke="red" stroke-width="0.426086" d="M536.701,-95.748C541.353,-92.0555 546.5,-88.3794 551.631,-85.4975 598.862,-58.9697 660.062,-40.5787 693.387,-31.743"/>
<polygon fill="red" stroke="red" stroke-width="0.426086" points="694.37,-35.1041 703.175,-29.2118 692.617,-28.3271 694.37,-35.1041"/>
</g>
<!-- 14355 -->
<g id="node34" class="node"><title>14355</title>
<ellipse fill="white" stroke="black" cx="525.631" cy="-204.229" rx="27.6545" ry="27.6545"/>
<text text-anchor="middle" x="525.631" y="-202.029" font-family="Times,serif" font-size="9.00">14355</text>
</g>
<!-- 14355&#45;&gt;2831 -->
<g id="edge45" class="edge"><title>14355&#45;&gt;2831</title>
<path fill="none" stroke="green" stroke-width="0.773794" d="M523.53,-176.48C522.828,-167.536 522.036,-157.446 521.296,-148.027"/>
<polygon fill="green" stroke="green" stroke-width="0.773794" points="524.764,-147.471 520.491,-137.776 517.785,-148.019 524.764,-147.471"/>
</g>
<!-- 2197&#45;&gt;1 -->
<g id="edge19" class="edge"><title>2197&#45;&gt;1</title>
<path fill="none" stroke="green" stroke-width="0.847254" d="M758.07,-91.6166C749.714,-78.0051 738.771,-60.1824 730.376,-46.5092"/>
<polygon fill="green" stroke="green" stroke-width="0.847254" points="733.25,-44.4995 725.035,-37.8088 727.284,-48.1621 733.25,-44.4995"/>
</g>
<!-- 4505&#45;&gt;2831 -->
<g id="edge28" class="edge"><title>4505&#45;&gt;2831</title>
<path fill="none" stroke="red" stroke-width="1.45289" d="M434.866,-187.29C450.867,-173.304 474.329,-152.797 492.356,-137.041"/>
<polygon fill="red" stroke="red" stroke-width="1.45289" points="494.983,-139.393 500.209,-130.176 490.376,-134.122 494.983,-139.393"/>
</g>
<!-- 7718 -->
<g id="node37" class="node"><title>7718</title>
<ellipse fill="white" stroke="black" cx="111.631" cy="-204.229" rx="25" ry="25"/>
<text text-anchor="middle" x="111.631" y="-202.029" font-family="Times,serif" font-size="9.00">7718</text>
</g>
<!-- 12339 -->
<g id="node39" class="node"><title>12339</title>
<ellipse fill="white" stroke="black" cx="108.631" cy="-113.075" rx="27.6545" ry="27.6545"/>
<text text-anchor="middle" x="108.631" y="-110.875" font-family="Times,serif" font-size="9.00">12339</text>
</g>
<!-- 7718&#45;&gt;12339 -->
<g id="edge15" class="edge"><title>7718&#45;&gt;12339</title>
<path fill="none" stroke="green" stroke-width="0.799402" d="M110.827,-179.337C110.533,-170.625 110.195,-160.559 109.872,-150.98"/>
<polygon fill="green" stroke="green" stroke-width="0.799402" points="113.366,-150.74 109.532,-140.864 106.37,-150.976 113.366,-150.74"/>
</g>
<!-- 17575&#45;&gt;2831 -->
<g id="edge34" class="edge"><title>17575&#45;&gt;2831</title>
<path fill="none" stroke="red" stroke-width="0.65679" d="M612.855,-717.89C615.52,-683.666 619.631,-622.372 619.631,-569.846 619.631,-569.846 619.631,-569.846 619.631,-294.383 619.631,-238.976 607.579,-223.895 578.631,-176.652 569.535,-161.808 556.41,-147.603 544.754,-136.49"/>
<polygon fill="red" stroke="red" stroke-width="0.65679" points="547.082,-133.876 537.363,-129.658 542.331,-139.017 547.082,-133.876"/>
</g>
<!-- 12339&#45;&gt;6507 -->
<g id="edge43" class="edge"><title>12339&#45;&gt;6507</title>
<path fill="none" stroke="green" stroke-width="0.498608" d="M129.474,-94.6053C145.437,-81.2262 167.579,-62.6689 184.855,-48.1901"/>
<polygon fill="green" stroke="green" stroke-width="0.498608" points="187.48,-50.5565 192.896,-41.4505 182.984,-45.1916 187.48,-50.5565"/>
</g>
<!-- 17721&#45;&gt;10705 -->
<g id="edge14" class="edge"><title>17721&#45;&gt;10705</title>
<path fill="none" stroke="red" stroke-width="0.236289" d="M39.8304,-176.48C39.2905,-168.458 38.6885,-159.513 38.1128,-150.958"/>
<polygon fill="red" stroke="red" stroke-width="0.236289" points="41.5932,-150.547 37.4295,-140.805 34.609,-151.017 41.5932,-150.547"/>
</g>
<!-- 6074&#45;&gt;2831 -->
<g id="edge1" class="edge"><title>6074&#45;&gt;2831</title>
<path fill="none" stroke="green" stroke-width="0.768837" d="M366.629,-270.785C363.631,-245.167 362.918,-204.231 382.631,-176.652 406.428,-143.358 452.402,-127.346 484.269,-119.953"/>
<polygon fill="green" stroke="green" stroke-width="0.768837" points="485.033,-123.369 494.074,-117.844 483.562,-116.525 485.033,-123.369"/>
</g>
<!-- 6074&#45;&gt;4505 -->
<g id="edge31" class="edge"><title>6074&#45;&gt;4505</title>
<path fill="none" stroke="green" stroke-width="0.333343" d="M381.766,-272.802C387.529,-261.631 394.661,-247.809 400.97,-235.581"/>
<polygon fill="green" stroke="green" stroke-width="0.333343" points="404.123,-237.104 405.598,-226.612 397.902,-233.894 404.123,-237.104"/>
</g>
<!-- 13885&#45;&gt;12003 -->
<g id="edge35" class="edge"><title>13885&#45;&gt;12003</title>
<path fill="none" stroke="red" stroke-width="0.842049" d="M350.631,-808.903C350.631,-800.881 350.631,-791.936 350.631,-783.382"/>
<polygon fill="red" stroke="red" stroke-width="0.842049" points="354.131,-783.228 350.631,-773.228 347.131,-783.228 354.131,-783.228"/>
</g>
<!-- 9931&#45;&gt;6507 -->
<g id="edge18" class="edge"><title>9931&#45;&gt;6507</title>
<path fill="none" stroke="red" stroke-width="0.683873" d="M252.07,-91.6166C245.387,-80.7302 237.049,-67.1501 229.684,-55.1534"/>
<polygon fill="red" stroke="red" stroke-width="0.683873" points="232.499,-53.0499 224.284,-46.3591 226.534,-56.7124 232.499,-53.0499"/>
</g>
<!-- 16590&#45;&gt;6507 -->
<g id="edge33" class="edge"><title>16590&#45;&gt;6507</title>
<path fill="none" stroke="green" stroke-width="1.21585" d="M640.979,-94.1869C636.2,-90.8231 630.948,-87.6812 625.631,-85.4975 493.413,-31.2051 319.786,-25.0785 246.577,-25.1473"/>
<polygon fill="green" stroke="green" stroke-width="1.21585" points="246.504,-21.6475 236.521,-25.1974 246.538,-28.6474 246.504,-21.6475"/>
</g>
<!-- 13519 -->
<g id="node46" class="node"><title>13519</title>
<ellipse fill="white" stroke="black" cx="187.631" cy="-477.692" rx="27.6545" ry="27.6545"/>
<text text-anchor="middle" x="187.631" y="-475.492" font-family="Times,serif" font-size="9.00">13519</text>
</g>
<!-- 13519&#45;&gt;14216 -->
<g id="edge40" class="edge"><title>13519&#45;&gt;14216</title>
<path fill="none" stroke="green" stroke-width="0.112328" d="M209.978,-461.366C231.185,-446.822 263.237,-424.841 286.855,-408.643"/>
<polygon fill="green" stroke="green" stroke-width="0.112328" points="288.872,-411.504 295.139,-402.962 284.913,-405.732 288.872,-411.504"/>
</g>
<!-- 10705&#45;&gt;6507 -->
<g id="edge5" class="edge"><title>10705&#45;&gt;6507</title>
<path fill="none" stroke="green" stroke-width="0.274943" d="M56.7792,-95.2044C61.5275,-91.7773 66.6406,-88.3522 71.6306,-85.4975 106.718,-65.424 149.858,-48.007 178.901,-37.2388"/>
<polygon fill="green" stroke="green" stroke-width="0.274943" points="180.358,-40.4329 188.55,-33.7138 177.956,-33.8579 180.358,-40.4329"/>
</g>
<!-- 12626&#45;&gt;15758 -->
<g id="edge36" class="edge"><title>12626&#45;&gt;15758</title>
<path fill="none" stroke="green" stroke-width="0.182104" d="M139.494,-544.422C133.797,-534.265 127.031,-522.2 120.86,-511.197"/>
<polygon fill="green" stroke="green" stroke-width="0.182104" points="123.798,-509.279 115.853,-502.269 117.692,-512.703 123.798,-509.279"/>
</g>
<!-- 12626&#45;&gt;13519 -->
<g id="edge4" class="edge"><title>12626&#45;&gt;13519</title>
<path fill="none" stroke="green" stroke-width="1.19746" d="M162.38,-543.012C165.991,-533.815 170.153,-523.213 174.043,-513.303"/>
<polygon fill="green" stroke="green" stroke-width="1.19746" points="177.416,-514.29 177.812,-503.702 170.9,-511.732 177.416,-514.29"/>
</g>
<!-- 12626&#45;&gt;5851 -->
<g id="edge22" class="edge"><title>12626&#45;&gt;5851</title>
<path fill="none" stroke="red" stroke-width="1.24164" d="M173.961,-550.867C192.065,-536.456 218.14,-515.7 237.684,-500.142"/>
<polygon fill="red" stroke="red" stroke-width="1.24164" points="239.974,-502.792 245.618,-493.826 235.615,-497.316 239.974,-502.792"/>
</g>
<!-- 12003&#45;&gt;9704 -->
<g id="edge25" class="edge"><title>12003&#45;&gt;9704</title>
<path fill="none" stroke="green" stroke-width="0.868967" d="M329.11,-728.058C310.844,-714.103 284.537,-694.006 264.817,-678.942"/>
<polygon fill="green" stroke="green" stroke-width="0.868967" points="266.884,-676.116 256.812,-672.826 262.634,-681.678 266.884,-676.116"/>
</g>
<!-- 9704&#45;&gt;12626 -->
<g id="edge9" class="edge"><title>9704&#45;&gt;12626</title>
<path fill="none" stroke="green" stroke-width="0.487277" d="M220.43,-638.703C208.478,-626.565 192.329,-610.164 178.79,-596.414"/>
<polygon fill="green" stroke="green" stroke-width="0.487277" points="181.091,-593.762 171.581,-589.092 176.103,-598.673 181.091,-593.762"/>
</g>
<!-- 9704&#45;&gt;5851 -->
<g id="edge13" class="edge"><title>9704&#45;&gt;5851</title>
<path fill="none" stroke="red" stroke-width="0.182684" d="M231.007,-633.293C225.273,-609.795 219.125,-572.365 227.631,-541.269 230.979,-529.029 237.404,-516.75 243.974,-506.352"/>
<polygon fill="red" stroke="red" stroke-width="0.182684" points="247.076,-508.008 249.71,-497.746 241.251,-504.125 247.076,-508.008"/>
</g>
<!-- 10472 -->
<g id="node52" class="node"><title>10472</title>
<ellipse fill="white" stroke="black" cx="264.631" cy="-568.846" rx="27.6545" ry="27.6545"/>
<text text-anchor="middle" x="264.631" y="-566.646" font-family="Times,serif" font-size="9.00">10472</text>
</g>
<!-- 9704&#45;&gt;10472 -->
<g id="edge51" class="edge"><title>9704&#45;&gt;10472</title>
<path fill="none" stroke="green" stroke-width="0.22077" d="M244.866,-633.038C247.556,-624.439 250.672,-614.476 253.623,-605.04"/>
<polygon fill="green" stroke="green" stroke-width="0.22077" points="256.969,-606.066 256.614,-595.477 250.289,-603.976 256.969,-606.066"/>
</g>
<!-- 10472&#45;&gt;5851 -->
<g id="edge12" class="edge"><title>10472&#45;&gt;5851</title>
<path fill="none" stroke="green" stroke-width="0.83222" d="M264.631,-541.097C264.631,-532.228 264.631,-522.231 264.631,-512.88"/>
<polygon fill="green" stroke="green" stroke-width="0.83222" points="268.131,-512.692 264.631,-502.692 261.131,-512.692 268.131,-512.692"/>
</g>
<!-- 10861&#45;&gt;2831 -->
<g id="edge21" class="edge"><title>10861&#45;&gt;2831</title>
<path fill="none" stroke="green" stroke-width="0.414404" d="M554.19,-269.545C562.948,-245.377 572.498,-207.84 562.631,-176.652 558.395,-163.263 550.152,-150.26 541.935,-139.606"/>
<polygon fill="green" stroke="green" stroke-width="0.414404" points="544.452,-137.154 535.427,-131.604 539.021,-141.571 544.452,-137.154"/>
</g>
<!-- 10861&#45;&gt;14355 -->
<g id="edge46" class="edge"><title>10861&#45;&gt;14355</title>
<path fill="none" stroke="green" stroke-width="0.229654" d="M538.327,-268.116C536.625,-259.682 534.708,-250.19 532.89,-241.185"/>
<polygon fill="green" stroke="green" stroke-width="0.229654" points="536.306,-240.418 530.896,-231.308 529.444,-241.803 536.306,-240.418"/>
</g>
</g>
</svg>
