<?xml version="1.0" encoding="UTF-8" standalone="no"?>
<!DOCTYPE svg PUBLIC "-//W3C//DTD SVG 1.1//EN"
 "http://www.w3.org/Graphics/SVG/1.1/DTD/svg11.dtd">
<!-- Generated by graphviz version 2.38.0 (20140413.2041)
 -->
<!-- Title: %3 Pages: 1 -->
<svg width="1846pt" height="912pt"
 viewBox="0.00 0.00 1845.60 912.47" xmlns="http://www.w3.org/2000/svg" xmlns:xlink="http://www.w3.org/1999/xlink">
<g id="graph0" class="graph" transform="scale(1 1) rotate(0) translate(4 908.472)">
<title>%3</title>
<polygon fill="white" stroke="none" points="-4,4 -4,-908.472 1841.6,-908.472 1841.6,4 -4,4"/>
<!-- &#45;1 -->
<g id="node1" class="node"><title>&#45;1</title>
<polygon fill="lightgray" stroke="black" points="472.749,-461.236 448.749,-461.236 448.749,-443.236 472.749,-443.236 472.749,-461.236"/>
<text text-anchor="middle" x="460.749" y="-450.036" font-family="Times,serif" font-size="9.00">&#45;1</text>
</g>
<!-- 9931 -->
<g id="node44" class="node"><title>9931</title>
<ellipse fill="white" stroke="black" cx="505.749" cy="-361.082" rx="25" ry="25"/>
<text text-anchor="middle" x="505.749" y="-358.882" font-family="Times,serif" font-size="9.00">9931</text>
</g>
<!-- &#45;1&#45;&gt;9931 -->
<g id="edge9" class="edge"><title>&#45;1&#45;&gt;9931</title>
<path fill="none" stroke="red" stroke-width="0.738774" d="M464.902,-443.008C470.645,-431.629 481.325,-410.47 490.324,-392.642"/>
<polygon fill="red" stroke="red" stroke-width="0.738774" points="493.46,-394.196 494.841,-383.692 487.211,-391.042 493.46,-394.196"/>
</g>
<!-- 6507 -->
<g id="node53" class="node"><title>6507</title>
<ellipse fill="white" stroke="black" cx="479.749" cy="-269.927" rx="25" ry="25"/>
<text text-anchor="middle" x="479.749" y="-267.727" font-family="Times,serif" font-size="9.00">6507</text>
</g>
<!-- &#45;1&#45;&gt;6507 -->
<g id="edge19" class="edge"><title>&#45;1&#45;&gt;6507</title>
<path fill="none" stroke="red" stroke-width="0.676045" d="M461.402,-443.233C462.977,-424.195 467.19,-374.721 471.749,-333.505 472.781,-324.171 474.019,-314.071 475.209,-304.764"/>
<polygon fill="red" stroke="red" stroke-width="0.676045" points="478.702,-305.044 476.52,-294.677 471.761,-304.143 478.702,-305.044"/>
</g>
<!-- &#45;2 -->
<g id="node2" class="node"><title>&#45;2</title>
<polygon fill="lightgray" stroke="black" points="1276.75,-898.623 1252.75,-898.623 1252.75,-880.623 1276.75,-880.623 1276.75,-898.623"/>
<text text-anchor="middle" x="1264.75" y="-887.423" font-family="Times,serif" font-size="9.00">&#45;2</text>
</g>
<!-- &#45;3 -->
<g id="node3" class="node"><title>&#45;3</title>
<polygon fill="lightgray" stroke="black" points="36.7487,-461.236 12.7487,-461.236 12.7487,-443.236 36.7487,-443.236 36.7487,-461.236"/>
<text text-anchor="middle" x="24.7487" y="-450.036" font-family="Times,serif" font-size="9.00">&#45;3</text>
</g>
<!-- 2197 -->
<g id="node35" class="node"><title>2197</title>
<ellipse fill="white" stroke="black" cx="24.7487" cy="-361.082" rx="25" ry="25"/>
<text text-anchor="middle" x="24.7487" y="-358.882" font-family="Times,serif" font-size="9.00">2197</text>
</g>
<!-- &#45;3&#45;&gt;2197 -->
<g id="edge33" class="edge"><title>&#45;3&#45;&gt;2197</title>
<path fill="none" stroke="green" stroke-width="0.640602" d="M24.7487,-443.008C24.7487,-432.37 24.7487,-413.187 24.7487,-396.166"/>
<polygon fill="green" stroke="green" stroke-width="0.640602" points="28.2488,-395.944 24.7487,-385.944 21.2488,-395.944 28.2488,-395.944"/>
</g>
<!-- &#45;4 -->
<g id="node4" class="node"><title>&#45;4</title>
<polygon fill="lightgray" stroke="black" points="1318.75,-898.623 1294.75,-898.623 1294.75,-880.623 1318.75,-880.623 1318.75,-898.623"/>
<text text-anchor="middle" x="1306.75" y="-887.423" font-family="Times,serif" font-size="9.00">&#45;4</text>
</g>
<!-- &#45;5 -->
<g id="node5" class="node"><title>&#45;5</title>
<polygon fill="lightgray" stroke="black" points="1155.75,-461.236 1131.75,-461.236 1131.75,-443.236 1155.75,-443.236 1155.75,-461.236"/>
<text text-anchor="middle" x="1143.75" y="-450.036" font-family="Times,serif" font-size="9.00">&#45;5</text>
</g>
<!-- 2 -->
<g id="node27" class="node"><title>2</title>
<ellipse fill="lightblue" stroke="black" cx="1075.75" cy="-361.082" rx="14.7" ry="14.7"/>
<text text-anchor="middle" x="1075.75" y="-358.882" font-family="Times,serif" font-size="9.00">2</text>
</g>
<!-- &#45;5&#45;&gt;2 -->
<g id="edge69" class="edge"><title>&#45;5&#45;&gt;2</title>
<path fill="none" stroke="red" stroke-width="0.840365" d="M1137.47,-443.008C1126.87,-429.102 1105.12,-400.593 1090.49,-381.403"/>
<polygon fill="red" stroke="red" stroke-width="0.840365" points="1093.17,-379.157 1084.33,-373.328 1087.61,-383.402 1093.17,-379.157"/>
</g>
<!-- &#45;6 -->
<g id="node6" class="node"><title>&#45;6</title>
<polygon fill="lightgray" stroke="black" points="205.749,-278.927 181.749,-278.927 181.749,-260.927 205.749,-260.927 205.749,-278.927"/>
<text text-anchor="middle" x="193.749" y="-267.727" font-family="Times,serif" font-size="9.00">&#45;6</text>
</g>
<!-- 4505 -->
<g id="node36" class="node"><title>4505</title>
<ellipse fill="white" stroke="black" cx="356.749" cy="-178.773" rx="25" ry="25"/>
<text text-anchor="middle" x="356.749" y="-176.573" font-family="Times,serif" font-size="9.00">4505</text>
</g>
<!-- &#45;6&#45;&gt;4505 -->
<g id="edge71" class="edge"><title>&#45;6&#45;&gt;4505</title>
<path fill="none" stroke="green" stroke-width="0.295218" stroke-dasharray="1,5" d="M200.371,-260.702C205.272,-255.007 212.354,-247.545 219.749,-242.35 252.382,-219.425 294.758,-201.605 323.686,-190.944"/>
<polygon fill="green" stroke="green" stroke-width="0.295218" points="325.096,-194.156 333.319,-187.475 322.725,-187.57 325.096,-194.156"/>
</g>
<!-- &#45;7 -->
<g id="node7" class="node"><title>&#45;7</title>
<polygon fill="lightgray" stroke="black" points="426.749,-640.716 402.749,-640.716 402.749,-622.716 426.749,-622.716 426.749,-640.716"/>
<text text-anchor="middle" x="414.749" y="-629.516" font-family="Times,serif" font-size="9.00">&#45;7</text>
</g>
<!-- 2831 -->
<g id="node33" class="node"><title>2831</title>
<ellipse fill="white" stroke="black" cx="1075.75" cy="-90.4472" rx="25" ry="25"/>
<text text-anchor="middle" x="1075.75" y="-88.2472" font-family="Times,serif" font-size="9.00">2831</text>
</g>
<!-- &#45;7&#45;&gt;2831 -->
<g id="edge13" class="edge"><title>&#45;7&#45;&gt;2831</title>
<path fill="none" stroke="green" stroke-width="0.552168" d="M402.355,-630.156C341.556,-626.687 77.7487,-603.009 77.7487,-453.236 77.7487,-453.236 77.7487,-453.236 77.7487,-360.082 77.7487,-216.988 185.984,-193.28 322.749,-151.196 459.596,-109.086 910.845,-95.3425 1040.58,-92.2113"/>
<polygon fill="green" stroke="green" stroke-width="0.552168" points="1040.83,-95.7065 1050.74,-91.972 1040.66,-88.7084 1040.83,-95.7065"/>
</g>
<!-- &#45;7&#45;&gt;4505 -->
<g id="edge27" class="edge"><title>&#45;7&#45;&gt;4505</title>
<path fill="none" stroke="red" stroke-width="0.709475" d="M402.546,-625.683C366.349,-610.071 258.972,-558.73 208.749,-479.813 164.406,-410.136 180.787,-379.703 172.749,-297.505 170.363,-273.108 158.476,-262.28 172.749,-242.35 206.688,-194.96 278.613,-183.033 321.801,-180.287"/>
<polygon fill="red" stroke="red" stroke-width="0.709475" points="322.049,-183.779 331.86,-179.781 321.696,-176.788 322.049,-183.779"/>
</g>
<!-- 16194 -->
<g id="node43" class="node"><title>16194</title>
<ellipse fill="white" stroke="black" cx="358.749" cy="-361.082" rx="27.6545" ry="27.6545"/>
<text text-anchor="middle" x="358.749" y="-358.882" font-family="Times,serif" font-size="9.00">16194</text>
</g>
<!-- &#45;7&#45;&gt;16194 -->
<g id="edge35" class="edge"><title>&#45;7&#45;&gt;16194</title>
<path fill="none" stroke="red" stroke-width="1.68421" d="M412.765,-622.617C409.975,-611.146 404.782,-589.498 400.749,-570.968 387.623,-510.657 373.765,-440.224 365.705,-398.487"/>
<polygon fill="red" stroke="red" stroke-width="1.68421" points="369.113,-397.675 363.785,-388.517 362.24,-398.999 369.113,-397.675"/>
</g>
<!-- 13519 -->
<g id="node46" class="node"><title>13519</title>
<ellipse fill="white" stroke="black" cx="700.749" cy="-452.236" rx="27.6545" ry="27.6545"/>
<text text-anchor="middle" x="700.749" y="-450.036" font-family="Times,serif" font-size="9.00">13519</text>
</g>
<!-- &#45;7&#45;&gt;13519 -->
<g id="edge52" class="edge"><title>&#45;7&#45;&gt;13519</title>
<path fill="none" stroke="green" stroke-width="0.602519" stroke-dasharray="1,5" d="M426.813,-629.347C471.423,-624.058 626.289,-603.615 661.749,-570.968 684.263,-550.239 693.799,-516.236 697.828,-490.089"/>
<polygon fill="green" stroke="green" stroke-width="0.602519" points="701.302,-490.517 699.159,-480.141 694.364,-489.589 701.302,-490.517"/>
</g>
<!-- 12626 -->
<g id="node48" class="node"><title>12626</title>
<ellipse fill="white" stroke="black" cx="953.749" cy="-543.39" rx="27.6545" ry="27.6545"/>
<text text-anchor="middle" x="953.749" y="-541.19" font-family="Times,serif" font-size="9.00">12626</text>
</g>
<!-- &#45;7&#45;&gt;12626 -->
<g id="edge64" class="edge"><title>&#45;7&#45;&gt;12626</title>
<path fill="none" stroke="green" stroke-width="0.679638" d="M426.762,-628.792C492.294,-618.297 807.644,-567.79 916.615,-550.338"/>
<polygon fill="green" stroke="green" stroke-width="0.679638" points="917.18,-553.792 926.501,-548.754 916.073,-546.88 917.18,-553.792"/>
</g>
<!-- 5851 -->
<g id="node49" class="node"><title>5851</title>
<ellipse fill="white" stroke="black" cx="925.749" cy="-361.082" rx="25" ry="25"/>
<text text-anchor="middle" x="925.749" y="-358.882" font-family="Times,serif" font-size="9.00">5851</text>
</g>
<!-- &#45;7&#45;&gt;5851 -->
<g id="edge31" class="edge"><title>&#45;7&#45;&gt;5851</title>
<path fill="none" stroke="green" stroke-width="0.228081" d="M426.824,-630.823C467.383,-630.649 601.251,-625.72 691.749,-570.968 764.189,-527.14 748.592,-478.724 813.749,-424.659 838.305,-404.283 870.452,-387.115 894.004,-375.946"/>
<polygon fill="green" stroke="green" stroke-width="0.228081" points="895.607,-379.06 903.207,-371.678 892.663,-372.71 895.607,-379.06"/>
</g>
<!-- &#45;7&#45;&gt;6507 -->
<g id="edge3" class="edge"><title>&#45;7&#45;&gt;6507</title>
<path fill="none" stroke="green" stroke-width="0.236774" stroke-dasharray="1,5" d="M415.377,-622.415C417.576,-594.397 425.577,-500.83 439.749,-424.659 447.391,-383.581 452.16,-373.923 462.749,-333.505 465.263,-323.907 468.061,-313.502 470.649,-303.983"/>
<polygon fill="green" stroke="green" stroke-width="0.236774" points="474.095,-304.649 473.352,-294.081 467.342,-302.806 474.095,-304.649"/>
</g>
<!-- &#45;8 -->
<g id="node8" class="node"><title>&#45;8</title>
<polygon fill="lightgray" stroke="black" points="241.749,-461.236 217.749,-461.236 217.749,-443.236 241.749,-443.236 241.749,-461.236"/>
<text text-anchor="middle" x="229.749" y="-450.036" font-family="Times,serif" font-size="9.00">&#45;8</text>
</g>
<!-- 1 -->
<g id="node26" class="node"><title>1</title>
<ellipse fill="lightblue" stroke="black" cx="115.749" cy="-14.8492" rx="14.7" ry="14.7"/>
<text text-anchor="middle" x="115.749" y="-12.6492" font-family="Times,serif" font-size="9.00">1</text>
</g>
<!-- &#45;8&#45;&gt;1 -->
<g id="edge14" class="edge"><title>&#45;8&#45;&gt;1</title>
<path fill="none" stroke="green" stroke-width="1.15012" d="M226.198,-443.055C216.457,-420.346 188.961,-354.449 172.749,-297.505 146.014,-203.602 126.844,-88.6724 119.297,-39.739"/>
<polygon fill="green" stroke="green" stroke-width="1.15012" points="122.75,-39.1663 117.785,-29.8066 115.829,-40.2193 122.75,-39.1663"/>
</g>
<!-- &#45;8&#45;&gt;2197 -->
<g id="edge54" class="edge"><title>&#45;8&#45;&gt;2197</title>
<path fill="none" stroke="green" stroke-width="0.253496" d="M217.539,-445.926C186.316,-432.347 102.773,-396.015 56.5707,-375.921"/>
<polygon fill="green" stroke="green" stroke-width="0.253496" points="57.8768,-372.673 47.3106,-371.894 55.085,-379.092 57.8768,-372.673"/>
</g>
<!-- &#45;8&#45;&gt;4505 -->
<g id="edge47" class="edge"><title>&#45;8&#45;&gt;4505</title>
<path fill="none" stroke="green" stroke-width="0.647161" stroke-dasharray="1,5" d="M227.219,-443.193C221.516,-423.654 209.245,-372.437 223.749,-333.505 244.728,-277.19 296.644,-227.774 329.057,-200.996"/>
<polygon fill="green" stroke="green" stroke-width="0.647161" points="331.672,-203.383 337.244,-194.371 327.269,-197.941 331.672,-203.383"/>
</g>
<!-- &#45;8&#45;&gt;16194 -->
<g id="edge67" class="edge"><title>&#45;8&#45;&gt;16194</title>
<path fill="none" stroke="green" stroke-width="0.392059" d="M241.902,-443.302C259.773,-431.581 294.12,-408.844 322.749,-388.659 324.804,-387.21 326.916,-385.702 329.036,-384.174"/>
<polygon fill="green" stroke="green" stroke-width="0.392059" points="331.136,-386.974 337.158,-378.258 327.014,-381.316 331.136,-386.974"/>
</g>
<!-- 16590 -->
<g id="node45" class="node"><title>16590</title>
<ellipse fill="white" stroke="black" cx="285.749" cy="-361.082" rx="27.6545" ry="27.6545"/>
<text text-anchor="middle" x="285.749" y="-358.882" font-family="Times,serif" font-size="9.00">16590</text>
</g>
<!-- &#45;8&#45;&gt;16590 -->
<g id="edge48" class="edge"><title>&#45;8&#45;&gt;16590</title>
<path fill="none" stroke="green" stroke-width="0.763946" d="M234.917,-443.008C241.926,-431.849 254.843,-411.286 265.901,-393.681"/>
<polygon fill="green" stroke="green" stroke-width="0.763946" points="269.117,-395.14 271.473,-384.81 263.19,-391.416 269.117,-395.14"/>
</g>
<!-- &#45;8&#45;&gt;5851 -->
<g id="edge42" class="edge"><title>&#45;8&#45;&gt;5851</title>
<path fill="none" stroke="red" stroke-width="0.505643" stroke-dasharray="1,5" d="M242.044,-449.568C274.386,-445.204 364.529,-433.199 439.749,-424.659 598.641,-406.618 639.69,-412.947 797.749,-388.659 829.886,-383.72 866.14,-375.986 891.839,-370.132"/>
<polygon fill="red" stroke="red" stroke-width="0.505643" points="892.863,-373.488 901.822,-367.831 891.291,-366.666 892.863,-373.488"/>
</g>
<!-- &#45;8&#45;&gt;6507 -->
<g id="edge58" class="edge"><title>&#45;8&#45;&gt;6507</title>
<path fill="none" stroke="green" stroke-width="0.180627" stroke-dasharray="1,5" d="M228.374,-443.144C225.297,-422.118 220.207,-365.197 248.749,-333.505 274.859,-304.511 386.987,-284.379 444.869,-275.711"/>
<polygon fill="green" stroke="green" stroke-width="0.180627" points="445.625,-279.137 455.012,-274.226 444.611,-272.211 445.625,-279.137"/>
</g>
<!-- &#45;9 -->
<g id="node9" class="node"><title>&#45;9</title>
<polygon fill="lightgray" stroke="black" points="702.749,-640.716 678.749,-640.716 678.749,-622.716 702.749,-622.716 702.749,-640.716"/>
<text text-anchor="middle" x="690.749" y="-629.516" font-family="Times,serif" font-size="9.00">&#45;9</text>
</g>
<!-- 13193 -->
<g id="node30" class="node"><title>13193</title>
<ellipse fill="white" stroke="black" cx="624.749" cy="-543.39" rx="27.6545" ry="27.6545"/>
<text text-anchor="middle" x="624.749" y="-541.19" font-family="Times,serif" font-size="9.00">13193</text>
</g>
<!-- &#45;9&#45;&gt;13193 -->
<g id="edge46" class="edge"><title>&#45;9&#45;&gt;13193</title>
<path fill="none" stroke="red" stroke-width="0.277626" d="M684.42,-622.439C675.936,-611.342 660.426,-591.055 647.345,-573.946"/>
<polygon fill="red" stroke="red" stroke-width="0.277626" points="650.014,-571.674 641.16,-565.856 644.453,-575.926 650.014,-571.674"/>
</g>
<!-- 6074 -->
<g id="node41" class="node"><title>6074</title>
<ellipse fill="white" stroke="black" cx="816.749" cy="-269.927" rx="25" ry="25"/>
<text text-anchor="middle" x="816.749" y="-267.727" font-family="Times,serif" font-size="9.00">6074</text>
</g>
<!-- &#45;9&#45;&gt;6074 -->
<g id="edge51" class="edge"><title>&#45;9&#45;&gt;6074</title>
<path fill="none" stroke="red" stroke-width="0.369393" d="M695.24,-622.647C711.708,-592.699 769.288,-484.694 797.749,-388.659 805.948,-360.992 810.851,-328.554 813.617,-304.741"/>
<polygon fill="red" stroke="red" stroke-width="0.369393" points="817.098,-305.101 814.708,-294.779 810.14,-304.339 817.098,-305.101"/>
</g>
<!-- &#45;10 -->
<g id="node10" class="node"><title>&#45;10</title>
<polygon fill="lightgray" stroke="black" points="1366.25,-898.623 1337.25,-898.623 1337.25,-880.623 1366.25,-880.623 1366.25,-898.623"/>
<text text-anchor="middle" x="1351.75" y="-887.423" font-family="Times,serif" font-size="9.00">&#45;10</text>
</g>
<!-- &#45;11 -->
<g id="node11" class="node"><title>&#45;11</title>
<polygon fill="lightgray" stroke="black" points="1029.25,-820.197 1000.25,-820.197 1000.25,-802.197 1029.25,-802.197 1029.25,-820.197"/>
<text text-anchor="middle" x="1014.75" y="-808.997" font-family="Times,serif" font-size="9.00">&#45;11</text>
</g>
<!-- 15758 -->
<g id="node32" class="node"><title>15758</title>
<ellipse fill="white" stroke="black" cx="1009.75" cy="-452.236" rx="27.6545" ry="27.6545"/>
<text text-anchor="middle" x="1009.75" y="-450.036" font-family="Times,serif" font-size="9.00">15758</text>
</g>
<!-- &#45;11&#45;&gt;15758 -->
<g id="edge56" class="edge"><title>&#45;11&#45;&gt;15758</title>
<path fill="none" stroke="red" stroke-width="0.817915" d="M1014.63,-802.07C1014.05,-760.605 1011.4,-571.414 1010.27,-490.318"/>
<polygon fill="red" stroke="red" stroke-width="0.817915" points="1013.76,-490.022 1010.12,-480.072 1006.77,-490.12 1013.76,-490.022"/>
</g>
<!-- 12003 -->
<g id="node50" class="node"><title>12003</title>
<ellipse fill="white" stroke="black" cx="1128.75" cy="-720.042" rx="27.6545" ry="27.6545"/>
<text text-anchor="middle" x="1128.75" y="-717.842" font-family="Times,serif" font-size="9.00">12003</text>
</g>
<!-- &#45;11&#45;&gt;12003 -->
<g id="edge62" class="edge"><title>&#45;11&#45;&gt;12003</title>
<path fill="none" stroke="green" stroke-width="0.184947" d="M1022.48,-801.953C1027.72,-796.526 1034.91,-789.386 1041.75,-783.619 1051.81,-775.134 1077.33,-756.91 1098.15,-742.306"/>
<polygon fill="green" stroke="green" stroke-width="0.184947" points="1100.24,-745.111 1106.43,-736.51 1096.23,-739.376 1100.24,-745.111"/>
</g>
<!-- &#45;12 -->
<g id="node12" class="node"><title>&#45;12</title>
<polygon fill="lightgray" stroke="black" points="1413.25,-898.623 1384.25,-898.623 1384.25,-880.623 1413.25,-880.623 1413.25,-898.623"/>
<text text-anchor="middle" x="1398.75" y="-887.423" font-family="Times,serif" font-size="9.00">&#45;12</text>
</g>
<!-- &#45;13 -->
<g id="node13" class="node"><title>&#45;13</title>
<polygon fill="lightgray" stroke="black" points="1460.25,-898.623 1431.25,-898.623 1431.25,-880.623 1460.25,-880.623 1460.25,-898.623"/>
<text text-anchor="middle" x="1445.75" y="-887.423" font-family="Times,serif" font-size="9.00">&#45;13</text>
</g>
<!-- &#45;14 -->
<g id="node14" class="node"><title>&#45;14</title>
<polygon fill="lightgray" stroke="black" points="1234.25,-898.623 1205.25,-898.623 1205.25,-880.623 1234.25,-880.623 1234.25,-898.623"/>
<text text-anchor="middle" x="1219.75" y="-887.423" font-family="Times,serif" font-size="9.00">&#45;14</text>
</g>
<!-- &#45;14&#45;&gt;2831 -->
<g id="edge60" class="edge"><title>&#45;14&#45;&gt;2831</title>
<path fill="none" stroke="green" stroke-width="0.351824" stroke-dasharray="1,5" d="M1223.16,-880.419C1232.83,-856.383 1259.75,-783.856 1259.75,-721.042 1259.75,-721.042 1259.75,-721.042 1259.75,-268.927 1259.75,-210.597 1243.3,-192.132 1201.75,-151.196 1175.94,-125.774 1137.26,-109.658 1109.57,-100.655"/>
<polygon fill="green" stroke="green" stroke-width="0.351824" points="1110.5,-97.2778 1099.91,-97.6552 1108.42,-103.963 1110.5,-97.2778"/>
</g>
<!-- 17575 -->
<g id="node38" class="node"><title>17575</title>
<ellipse fill="white" stroke="black" cx="1203.75" cy="-720.042" rx="27.6545" ry="27.6545"/>
<text text-anchor="middle" x="1203.75" y="-717.842" font-family="Times,serif" font-size="9.00">17575</text>
</g>
<!-- &#45;14&#45;&gt;17575 -->
<g id="edge63" class="edge"><title>&#45;14&#45;&gt;17575</title>
<path fill="none" stroke="green" stroke-width="0.28706" d="M1218.98,-880.54C1216.9,-858.754 1211.07,-797.767 1207.26,-757.832"/>
<polygon fill="green" stroke="green" stroke-width="0.28706" points="1210.73,-757.296 1206.29,-747.674 1203.76,-757.961 1210.73,-757.296"/>
</g>
<!-- 13885 -->
<g id="node42" class="node"><title>13885</title>
<ellipse fill="white" stroke="black" cx="1078.75" cy="-811.197" rx="27.6545" ry="27.6545"/>
<text text-anchor="middle" x="1078.75" y="-808.997" font-family="Times,serif" font-size="9.00">13885</text>
</g>
<!-- &#45;14&#45;&gt;13885 -->
<g id="edge65" class="edge"><title>&#45;14&#45;&gt;13885</title>
<path fill="none" stroke="red" stroke-width="0.110055" d="M1205.03,-882.7C1184.29,-874.12 1145.56,-857.229 1114.75,-838.774 1112.59,-837.482 1110.4,-836.091 1108.23,-834.648"/>
<polygon fill="red" stroke="red" stroke-width="0.110055" points="1110.19,-831.752 1099.99,-828.917 1106.2,-837.499 1110.19,-831.752"/>
</g>
<!-- &#45;14&#45;&gt;12003 -->
<g id="edge21" class="edge"><title>&#45;14&#45;&gt;12003</title>
<path fill="none" stroke="green" stroke-width="0.718312" d="M1215.36,-880.54C1203.1,-857.963 1167.98,-793.288 1146.41,-753.57"/>
<polygon fill="green" stroke="green" stroke-width="0.718312" points="1149.35,-751.652 1141.51,-744.534 1143.2,-754.992 1149.35,-751.652"/>
</g>
<!-- 10861 -->
<g id="node54" class="node"><title>10861</title>
<ellipse fill="white" stroke="black" cx="1315.75" cy="-269.927" rx="27.6545" ry="27.6545"/>
<text text-anchor="middle" x="1315.75" y="-267.727" font-family="Times,serif" font-size="9.00">10861</text>
</g>
<!-- &#45;14&#45;&gt;10861 -->
<g id="edge2" class="edge"><title>&#45;14&#45;&gt;10861</title>
<path fill="none" stroke="green" stroke-width="1.04339" d="M1231.88,-880.526C1244.2,-871.682 1262.96,-856.402 1273.75,-838.774 1302.12,-792.427 1306.75,-775.384 1306.75,-721.042 1306.75,-721.042 1306.75,-721.042 1306.75,-451.236 1306.75,-401.457 1310.21,-344.044 1312.84,-307.629"/>
<polygon fill="green" stroke="green" stroke-width="1.04339" points="1316.35,-307.717 1313.59,-297.486 1309.36,-307.201 1316.35,-307.717"/>
</g>
<!-- &#45;15 -->
<g id="node15" class="node"><title>&#45;15</title>
<polygon fill="lightgray" stroke="black" points="1153.25,-820.197 1124.25,-820.197 1124.25,-802.197 1153.25,-802.197 1153.25,-820.197"/>
<text text-anchor="middle" x="1138.75" y="-808.997" font-family="Times,serif" font-size="9.00">&#45;15</text>
</g>
<!-- &#45;15&#45;&gt;12003 -->
<g id="edge49" class="edge"><title>&#45;15&#45;&gt;12003</title>
<path fill="none" stroke="red" stroke-width="0.559838" d="M1137.83,-801.969C1136.7,-791.926 1134.72,-774.268 1132.89,-758.003"/>
<polygon fill="red" stroke="red" stroke-width="0.559838" points="1136.32,-757.158 1131.73,-747.61 1129.37,-757.938 1136.32,-757.158"/>
</g>
<!-- &#45;16 -->
<g id="node16" class="node"><title>&#45;16</title>
<polygon fill="lightgray" stroke="black" points="852.249,-461.236 823.249,-461.236 823.249,-443.236 852.249,-443.236 852.249,-461.236"/>
<text text-anchor="middle" x="837.749" y="-450.036" font-family="Times,serif" font-size="9.00">&#45;16</text>
</g>
<!-- &#45;16&#45;&gt;5851 -->
<g id="edge11" class="edge"><title>&#45;16&#45;&gt;5851</title>
<path fill="none" stroke="green" stroke-width="0.274302" stroke-dasharray="1,5" d="M844.408,-443.161C848.904,-437.805 855.038,-430.681 860.749,-424.659 873.393,-411.326 888.097,-397.073 900.319,-385.542"/>
<polygon fill="green" stroke="green" stroke-width="0.274302" points="903.042,-387.787 907.945,-378.395 898.255,-382.679 903.042,-387.787"/>
</g>
<!-- &#45;17 -->
<g id="node17" class="node"><title>&#45;17</title>
<polygon fill="lightgray" stroke="black" points="968.249,-640.716 939.249,-640.716 939.249,-622.716 968.249,-622.716 968.249,-640.716"/>
<text text-anchor="middle" x="953.749" y="-629.516" font-family="Times,serif" font-size="9.00">&#45;17</text>
</g>
<!-- &#45;17&#45;&gt;12626 -->
<g id="edge4" class="edge"><title>&#45;17&#45;&gt;12626</title>
<path fill="none" stroke="green" stroke-width="0.552763" d="M953.749,-622.439C953.749,-612.907 953.749,-596.595 953.749,-581.341"/>
<polygon fill="green" stroke="green" stroke-width="0.552763" points="957.249,-581.045 953.749,-571.045 950.249,-581.045 957.249,-581.045"/>
</g>
<!-- &#45;18 -->
<g id="node18" class="node"><title>&#45;18</title>
<polygon fill="lightgray" stroke="black" points="1507.25,-898.623 1478.25,-898.623 1478.25,-880.623 1507.25,-880.623 1507.25,-898.623"/>
<text text-anchor="middle" x="1492.75" y="-887.423" font-family="Times,serif" font-size="9.00">&#45;18</text>
</g>
<!-- &#45;19 -->
<g id="node19" class="node"><title>&#45;19</title>
<polygon fill="lightgray" stroke="black" points="1554.25,-898.623 1525.25,-898.623 1525.25,-880.623 1554.25,-880.623 1554.25,-898.623"/>
<text text-anchor="middle" x="1539.75" y="-887.423" font-family="Times,serif" font-size="9.00">&#45;19</text>
</g>
<!-- &#45;20 -->
<g id="node20" class="node"><title>&#45;20</title>
<polygon fill="lightgray" stroke="black" points="1081.25,-729.042 1052.25,-729.042 1052.25,-711.042 1081.25,-711.042 1081.25,-729.042"/>
<text text-anchor="middle" x="1066.75" y="-717.842" font-family="Times,serif" font-size="9.00">&#45;20</text>
</g>
<!-- 9704 -->
<g id="node51" class="node"><title>9704</title>
<ellipse fill="white" stroke="black" cx="1066.75" cy="-631.716" rx="25" ry="25"/>
<text text-anchor="middle" x="1066.75" y="-629.516" font-family="Times,serif" font-size="9.00">9704</text>
</g>
<!-- &#45;20&#45;&gt;9704 -->
<g id="edge72" class="edge"><title>&#45;20&#45;&gt;9704</title>
<path fill="none" stroke="red" stroke-width="0.104256" d="M1066.75,-710.765C1066.75,-700.657 1066.75,-682.924 1066.75,-666.913"/>
<polygon fill="red" stroke="red" stroke-width="0.104256" points="1070.25,-666.738 1066.75,-656.738 1063.25,-666.738 1070.25,-666.738"/>
</g>
<!-- &#45;21 -->
<g id="node21" class="node"><title>&#45;21</title>
<polygon fill="lightgray" stroke="black" points="1601.25,-898.623 1572.25,-898.623 1572.25,-880.623 1601.25,-880.623 1601.25,-898.623"/>
<text text-anchor="middle" x="1586.75" y="-887.423" font-family="Times,serif" font-size="9.00">&#45;21</text>
</g>
<!-- &#45;22 -->
<g id="node22" class="node"><title>&#45;22</title>
<polygon fill="lightgray" stroke="black" points="1648.25,-898.623 1619.25,-898.623 1619.25,-880.623 1648.25,-880.623 1648.25,-898.623"/>
<text text-anchor="middle" x="1633.75" y="-887.423" font-family="Times,serif" font-size="9.00">&#45;22</text>
</g>
<!-- &#45;23 -->
<g id="node23" class="node"><title>&#45;23</title>
<polygon fill="lightgray" stroke="black" points="1695.25,-898.623 1666.25,-898.623 1666.25,-880.623 1695.25,-880.623 1695.25,-898.623"/>
<text text-anchor="middle" x="1680.75" y="-887.423" font-family="Times,serif" font-size="9.00">&#45;23</text>
</g>
<!-- &#45;24 -->
<g id="node24" class="node"><title>&#45;24</title>
<polygon fill="lightgray" stroke="black" points="1742.25,-898.623 1713.25,-898.623 1713.25,-880.623 1742.25,-880.623 1742.25,-898.623"/>
<text text-anchor="middle" x="1727.75" y="-887.423" font-family="Times,serif" font-size="9.00">&#45;24</text>
</g>
<!-- 0 -->
<g id="node25" class="node"><title>0</title>
<ellipse fill="lightblue" stroke="black" cx="1774.75" cy="-889.623" rx="14.7" ry="14.7"/>
<text text-anchor="middle" x="1774.75" y="-887.423" font-family="Times,serif" font-size="9.00">0</text>
</g>
<!-- 2&#45;&gt;2831 -->
<g id="edge68" class="edge"><title>2&#45;&gt;2831</title>
<path fill="none" stroke="red" stroke-width="0.995365" stroke-dasharray="1,5" d="M1075.75,-346.017C1075.75,-305.06 1075.75,-185.025 1075.75,-125.592"/>
<polygon fill="red" stroke="red" stroke-width="0.995365" points="1079.25,-125.232 1075.75,-115.232 1072.25,-125.232 1079.25,-125.232"/>
</g>
<!-- 2&#45;&gt;6507 -->
<g id="edge7" class="edge"><title>2&#45;&gt;6507</title>
<path fill="none" stroke="green" stroke-width="0.348831" d="M1061.55,-356.367C1039.78,-350.775 996.761,-340.142 959.749,-333.505 794.237,-303.825 594.223,-282.313 514.751,-274.331"/>
<polygon fill="green" stroke="green" stroke-width="0.348831" points="514.651,-270.804 504.353,-273.295 513.957,-277.77 514.651,-270.804"/>
</g>
<!-- 3 -->
<g id="node28" class="node"><title>3</title>
<ellipse fill="lightblue" stroke="black" cx="1822.75" cy="-889.623" rx="14.7" ry="14.7"/>
<text text-anchor="middle" x="1822.75" y="-887.423" font-family="Times,serif" font-size="9.00">3</text>
</g>
<!-- 14216 -->
<g id="node29" class="node"><title>14216</title>
<ellipse fill="white" stroke="black" cx="760.749" cy="-361.082" rx="27.6545" ry="27.6545"/>
<text text-anchor="middle" x="760.749" y="-358.882" font-family="Times,serif" font-size="9.00">14216</text>
</g>
<!-- 14216&#45;&gt;6074 -->
<g id="edge70" class="edge"><title>14216&#45;&gt;6074</title>
<path fill="none" stroke="red" stroke-width="0.937495" d="M775.17,-337.122C782.246,-325.857 790.848,-312.162 798.388,-300.158"/>
<polygon fill="red" stroke="red" stroke-width="0.937495" points="801.549,-301.706 803.904,-291.376 795.622,-297.982 801.549,-301.706"/>
</g>
<!-- 14216&#45;&gt;6507 -->
<g id="edge24" class="edge"><title>14216&#45;&gt;6507</title>
<path fill="none" stroke="red" stroke-width="1.25573" d="M738.787,-344.402C732.527,-340.434 725.554,-336.464 718.749,-333.505 649.268,-303.295 561.882,-284.982 514.381,-276.531"/>
<polygon fill="red" stroke="red" stroke-width="1.25573" points="514.764,-273.045 504.312,-274.781 513.566,-279.941 514.764,-273.045"/>
</g>
<!-- 17721 -->
<g id="node40" class="node"><title>17721</title>
<ellipse fill="white" stroke="black" cx="588.749" cy="-452.236" rx="27.6545" ry="27.6545"/>
<text text-anchor="middle" x="588.749" y="-450.036" font-family="Times,serif" font-size="9.00">17721</text>
</g>
<!-- 13193&#45;&gt;17721 -->
<g id="edge36" class="edge"><title>13193&#45;&gt;17721</title>
<path fill="none" stroke="green" stroke-width="0.266768" d="M614.721,-517.556C610.968,-508.263 606.637,-497.536 602.6,-487.538"/>
<polygon fill="green" stroke="green" stroke-width="0.266768" points="605.838,-486.209 598.848,-478.247 599.347,-488.83 605.838,-486.209"/>
</g>
<!-- 10705 -->
<g id="node47" class="node"><title>10705</title>
<ellipse fill="white" stroke="black" cx="648.749" cy="-361.082" rx="27.6545" ry="27.6545"/>
<text text-anchor="middle" x="648.749" y="-358.882" font-family="Times,serif" font-size="9.00">10705</text>
</g>
<!-- 13193&#45;&gt;10705 -->
<g id="edge38" class="edge"><title>13193&#45;&gt;10705</title>
<path fill="none" stroke="green" stroke-width="0.334981" d="M628.29,-515.785C632.414,-484.802 639.25,-433.445 643.874,-398.708"/>
<polygon fill="green" stroke="green" stroke-width="0.334981" points="647.382,-398.877 645.232,-388.502 640.443,-397.953 647.382,-398.877"/>
</g>
<!-- 16141 -->
<g id="node31" class="node"><title>16141</title>
<ellipse fill="white" stroke="black" cx="897.749" cy="-452.236" rx="27.6545" ry="27.6545"/>
<text text-anchor="middle" x="897.749" y="-450.036" font-family="Times,serif" font-size="9.00">16141</text>
</g>
<!-- 16141&#45;&gt;5851 -->
<g id="edge28" class="edge"><title>16141&#45;&gt;5851</title>
<path fill="none" stroke="green" stroke-width="0.219559" d="M905.847,-425.449C908.852,-415.884 912.3,-404.905 915.472,-394.803"/>
<polygon fill="green" stroke="green" stroke-width="0.219559" points="918.869,-395.667 918.527,-385.077 912.191,-393.569 918.869,-395.667"/>
</g>
<!-- 15758&#45;&gt;5851 -->
<g id="edge30" class="edge"><title>15758&#45;&gt;5851</title>
<path fill="none" stroke="red" stroke-width="0.192079" stroke-dasharray="1,5" d="M991.106,-431.45C978.79,-418.378 962.545,-401.136 949.332,-387.112"/>
<polygon fill="red" stroke="red" stroke-width="0.192079" points="951.753,-384.577 942.348,-379.699 946.658,-389.378 951.753,-384.577"/>
</g>
<!-- 2831&#45;&gt;1 -->
<g id="edge8" class="edge"><title>2831&#45;&gt;1</title>
<path fill="none" stroke="red" stroke-width="0.426086" d="M1051.05,-87.554C916.747,-77.2574 275.307,-28.0817 140.602,-17.7546"/>
<polygon fill="red" stroke="red" stroke-width="0.426086" points="140.704,-14.2522 130.466,-16.9775 140.169,-21.2318 140.704,-14.2522"/>
</g>
<!-- 14355 -->
<g id="node34" class="node"><title>14355</title>
<ellipse fill="white" stroke="black" cx="1315.75" cy="-178.773" rx="27.6545" ry="27.6545"/>
<text text-anchor="middle" x="1315.75" y="-176.573" font-family="Times,serif" font-size="9.00">14355</text>
</g>
<!-- 14355&#45;&gt;2831 -->
<g id="edge59" class="edge"><title>14355&#45;&gt;2831</title>
<path fill="none" stroke="green" stroke-width="0.773794" d="M1293.28,-161.982C1287.13,-158.106 1280.34,-154.209 1273.75,-151.196 1218.62,-126.005 1150.1,-108.056 1109.83,-98.7525"/>
<polygon fill="green" stroke="green" stroke-width="0.773794" points="1110.5,-95.3172 1099.98,-96.5202 1108.95,-102.144 1110.5,-95.3172"/>
</g>
<!-- 2197&#45;&gt;1 -->
<g id="edge23" class="edge"><title>2197&#45;&gt;1</title>
<path fill="none" stroke="green" stroke-width="0.847254" d="M30.6958,-336.765C43.4389,-286.934 74.4414,-166.396 101.749,-65.6985 104.098,-57.0362 106.744,-47.5481 109.098,-39.196"/>
<polygon fill="green" stroke="green" stroke-width="0.847254" points="112.523,-39.9471 111.88,-29.3719 105.788,-38.04 112.523,-39.9471"/>
</g>
<!-- 4505&#45;&gt;2831 -->
<g id="edge34" class="edge"><title>4505&#45;&gt;2831</title>
<path fill="none" stroke="red" stroke-width="1.45289" d="M381.498,-174.802C488.991,-161.896 915.554,-110.681 1040.92,-95.6284"/>
<polygon fill="red" stroke="red" stroke-width="1.45289" points="1041.59,-99.0735 1051.1,-94.4063 1040.76,-92.1234 1041.59,-99.0735"/>
</g>
<!-- 7718 -->
<g id="node37" class="node"><title>7718</title>
<ellipse fill="white" stroke="black" cx="518.749" cy="-452.236" rx="25" ry="25"/>
<text text-anchor="middle" x="518.749" y="-450.036" font-family="Times,serif" font-size="9.00">7718</text>
</g>
<!-- 12339 -->
<g id="node39" class="node"><title>12339</title>
<ellipse fill="white" stroke="black" cx="575.749" cy="-361.082" rx="27.6545" ry="27.6545"/>
<text text-anchor="middle" x="575.749" y="-358.882" font-family="Times,serif" font-size="9.00">12339</text>
</g>
<!-- 7718&#45;&gt;12339 -->
<g id="edge18" class="edge"><title>7718&#45;&gt;12339</title>
<path fill="none" stroke="green" stroke-width="0.799402" d="M531.683,-431.006C538.766,-419.926 547.701,-405.952 555.67,-393.488"/>
<polygon fill="green" stroke="green" stroke-width="0.799402" points="558.824,-395.052 561.262,-384.741 552.926,-391.281 558.824,-395.052"/>
</g>
<!-- 7718&#45;&gt;10705 -->
<g id="edge32" class="edge"><title>7718&#45;&gt;10705</title>
<path fill="none" stroke="red" stroke-width="0.293334" stroke-dasharray="1,5" d="M537.234,-435.573C541.873,-431.861 546.91,-428.009 551.749,-424.659 577.631,-406.739 586.495,-406.031 612.749,-388.659 614.846,-387.271 616.989,-385.809 619.132,-384.314"/>
<polygon fill="red" stroke="red" stroke-width="0.293334" points="621.205,-387.134 627.303,-378.47 617.133,-381.44 621.205,-387.134"/>
</g>
<!-- 17575&#45;&gt;2831 -->
<g id="edge40" class="edge"><title>17575&#45;&gt;2831</title>
<path fill="none" stroke="red" stroke-width="0.65679" d="M1208.15,-692.795C1213.48,-658.699 1221.75,-597.277 1221.75,-544.39 1221.75,-544.39 1221.75,-544.39 1221.75,-268.927 1221.75,-211.174 1204.54,-194.865 1166.75,-151.196 1150.27,-132.161 1126.31,-116.758 1107.1,-106.362"/>
<polygon fill="red" stroke="red" stroke-width="0.65679" points="1108.6,-103.193 1098.11,-101.666 1105.36,-109.398 1108.6,-103.193"/>
</g>
<!-- 12339&#45;&gt;6507 -->
<g id="edge55" class="edge"><title>12339&#45;&gt;6507</title>
<path fill="none" stroke="green" stroke-width="0.498608" d="M555.857,-341.609C541.132,-327.934 520.957,-309.197 505.079,-294.451"/>
<polygon fill="green" stroke="green" stroke-width="0.498608" points="507.381,-291.813 497.672,-287.573 502.618,-296.942 507.381,-291.813"/>
</g>
<!-- 17721&#45;&gt;10705 -->
<g id="edge17" class="edge"><title>17721&#45;&gt;10705</title>
<path fill="none" stroke="red" stroke-width="0.236289" d="M603.889,-428.739C611.137,-417.969 619.933,-404.899 627.81,-393.195"/>
<polygon fill="red" stroke="red" stroke-width="0.236289" points="630.933,-394.822 633.613,-384.572 625.126,-390.914 630.933,-394.822"/>
</g>
<!-- 6074&#45;&gt;2831 -->
<g id="edge1" class="edge"><title>6074&#45;&gt;2831</title>
<path fill="none" stroke="green" stroke-width="0.768837" d="M830.113,-248.786C848.154,-222.981 882.588,-178.351 921.749,-151.196 958.962,-125.391 1008.86,-108.687 1041.64,-99.6754"/>
<polygon fill="green" stroke="green" stroke-width="0.768837" points="1042.87,-102.968 1051.64,-97.0179 1041.08,-96.2032 1042.87,-102.968"/>
</g>
<!-- 6074&#45;&gt;4505 -->
<g id="edge37" class="edge"><title>6074&#45;&gt;4505</title>
<path fill="none" stroke="green" stroke-width="0.333343" d="M792.342,-264.197C715.694,-249.342 479.637,-203.591 390.922,-186.396"/>
<polygon fill="green" stroke="green" stroke-width="0.333343" points="391.58,-182.959 381.097,-184.492 390.248,-189.831 391.58,-182.959"/>
</g>
<!-- 13885&#45;&gt;12003 -->
<g id="edge43" class="edge"><title>13885&#45;&gt;12003</title>
<path fill="none" stroke="red" stroke-width="0.842049" d="M1091.89,-786.772C1097.58,-776.615 1104.35,-764.551 1110.52,-753.548"/>
<polygon fill="red" stroke="red" stroke-width="0.842049" points="1113.69,-755.054 1115.53,-744.62 1107.58,-751.63 1113.69,-755.054"/>
</g>
<!-- 16194&#45;&gt;6507 -->
<g id="edge44" class="edge"><title>16194&#45;&gt;6507</title>
<path fill="none" stroke="red" stroke-width="0.978589" stroke-dasharray="1,5" d="M380.661,-343.937C400.622,-329.229 430.2,-307.435 451.844,-291.488"/>
<polygon fill="red" stroke="red" stroke-width="0.978589" points="454.028,-294.226 460.003,-285.476 449.876,-288.591 454.028,-294.226"/>
</g>
<!-- 9931&#45;&gt;6507 -->
<g id="edge22" class="edge"><title>9931&#45;&gt;6507</title>
<path fill="none" stroke="red" stroke-width="0.683873" d="M499.053,-337.122C496.081,-326.931 492.529,-314.751 489.287,-303.633"/>
<polygon fill="red" stroke="red" stroke-width="0.683873" points="492.581,-302.429 486.422,-293.809 485.861,-304.389 492.581,-302.429"/>
</g>
<!-- 16590&#45;&gt;6507 -->
<g id="edge39" class="edge"><title>16590&#45;&gt;6507</title>
<path fill="none" stroke="green" stroke-width="1.21585" d="M306.841,-343.112C311.593,-339.691 316.722,-336.294 321.749,-333.505 362.781,-310.74 413.814,-292.108 446.584,-281.26"/>
<polygon fill="green" stroke="green" stroke-width="1.21585" points="447.712,-284.573 456.136,-278.147 445.544,-277.918 447.712,-284.573"/>
</g>
<!-- 13519&#45;&gt;14216 -->
<g id="edge50" class="edge"><title>13519&#45;&gt;14216</title>
<path fill="none" stroke="green" stroke-width="0.112328" d="M715.889,-428.739C723.137,-417.969 731.933,-404.899 739.81,-393.195"/>
<polygon fill="green" stroke="green" stroke-width="0.112328" points="742.933,-394.822 745.613,-384.572 737.126,-390.914 742.933,-394.822"/>
</g>
<!-- 13519&#45;&gt;6507 -->
<g id="edge10" class="edge"><title>13519&#45;&gt;6507</title>
<path fill="none" stroke="green" stroke-width="0.283069" stroke-dasharray="1,5" d="M704.976,-424.611C707.561,-398.384 707.02,-358.692 685.749,-333.505 643.239,-283.168 561.604,-272.482 514.877,-270.709"/>
<polygon fill="green" stroke="green" stroke-width="0.283069" points="514.716,-267.203 504.629,-270.442 514.534,-274.201 514.716,-267.203"/>
</g>
<!-- 10705&#45;&gt;6507 -->
<g id="edge6" class="edge"><title>10705&#45;&gt;6507</title>
<path fill="none" stroke="green" stroke-width="0.274943" d="M627.52,-343.349C622.777,-339.913 617.686,-336.45 612.749,-333.505 579.763,-313.828 539.589,-295.657 512.082,-284.023"/>
<polygon fill="green" stroke="green" stroke-width="0.274943" points="513.134,-280.669 502.558,-280.042 510.434,-287.128 513.134,-280.669"/>
</g>
<!-- 12626&#45;&gt;15758 -->
<g id="edge45" class="edge"><title>12626&#45;&gt;15758</title>
<path fill="none" stroke="green" stroke-width="0.182104" d="M968.17,-519.431C974.767,-508.928 982.692,-496.312 989.845,-484.924"/>
<polygon fill="green" stroke="green" stroke-width="0.182104" points="993.021,-486.448 995.376,-476.118 987.093,-482.724 993.021,-486.448"/>
</g>
<!-- 12626&#45;&gt;13519 -->
<g id="edge5" class="edge"><title>12626&#45;&gt;13519</title>
<path fill="none" stroke="green" stroke-width="1.19746" d="M927.626,-533.185C882.057,-517.127 787.987,-483.978 736.444,-465.815"/>
<polygon fill="green" stroke="green" stroke-width="1.19746" points="737.324,-462.414 726.729,-462.391 734.997,-469.016 737.324,-462.414"/>
</g>
<!-- 12626&#45;&gt;5851 -->
<g id="edge26" class="edge"><title>12626&#45;&gt;5851</title>
<path fill="none" stroke="red" stroke-width="1.24164" d="M949.617,-515.785C944.668,-483.914 936.371,-430.485 930.979,-395.764"/>
<polygon fill="red" stroke="red" stroke-width="1.24164" points="934.399,-394.978 929.406,-385.634 927.482,-396.052 934.399,-394.978"/>
</g>
<!-- 5851&#45;&gt;2831 -->
<g id="edge41" class="edge"><title>5851&#45;&gt;2831</title>
<path fill="none" stroke="green" stroke-width="0.255665" stroke-dasharray="1,5" d="M937.519,-339.002C964.026,-291.532 1028.47,-176.127 1059.07,-121.309"/>
<polygon fill="green" stroke="green" stroke-width="0.255665" points="1062.21,-122.866 1064.03,-112.429 1056.1,-119.453 1062.21,-122.866"/>
</g>
<!-- 5851&#45;&gt;6074 -->
<g id="edge20" class="edge"><title>5851&#45;&gt;6074</title>
<path fill="none" stroke="green" stroke-width="0.566311" stroke-dasharray="1,5" d="M906.762,-344.552C889.257,-330.234 863.093,-308.834 843.479,-292.791"/>
<polygon fill="green" stroke="green" stroke-width="0.566311" points="845.474,-289.901 835.518,-286.279 841.042,-295.319 845.474,-289.901"/>
</g>
<!-- 12003&#45;&gt;2831 -->
<g id="edge57" class="edge"><title>12003&#45;&gt;2831</title>
<path fill="none" stroke="red" stroke-width="0.683234" stroke-dasharray="1,5" d="M1141.37,-695.207C1157.6,-662.259 1183.75,-600.499 1183.75,-544.39 1183.75,-544.39 1183.75,-544.39 1183.75,-268.927 1183.75,-205.817 1133.3,-146.066 1101.36,-114.565"/>
<polygon fill="red" stroke="red" stroke-width="0.683234" points="1103.7,-111.961 1094.07,-107.546 1098.84,-117.004 1103.7,-111.961"/>
</g>
<!-- 12003&#45;&gt;9704 -->
<g id="edge29" class="edge"><title>12003&#45;&gt;9704</title>
<path fill="none" stroke="green" stroke-width="0.868967" d="M1113.1,-697.259C1105.14,-686.165 1095.36,-672.552 1086.84,-660.692"/>
<polygon fill="green" stroke="green" stroke-width="0.868967" points="1089.58,-658.507 1080.9,-652.427 1083.9,-662.591 1089.58,-658.507"/>
</g>
<!-- 9704&#45;&gt;12626 -->
<g id="edge12" class="edge"><title>9704&#45;&gt;12626</title>
<path fill="none" stroke="green" stroke-width="0.487277" d="M1047.32,-615.876C1029.69,-602.403 1003.42,-582.337 983.203,-566.892"/>
<polygon fill="green" stroke="green" stroke-width="0.487277" points="985.3,-564.089 975.229,-560.8 981.05,-569.652 985.3,-564.089"/>
</g>
<!-- 9704&#45;&gt;5851 -->
<g id="edge16" class="edge"><title>9704&#45;&gt;5851</title>
<path fill="none" stroke="red" stroke-width="0.182684" d="M1071.18,-607.321C1077.58,-566.416 1084.83,-480.91 1046.75,-424.659 1026.67,-395.008 988.021,-378.541 959.786,-370.035"/>
<polygon fill="red" stroke="red" stroke-width="0.182684" points="960.483,-366.595 949.909,-367.252 958.585,-373.333 960.483,-366.595"/>
</g>
<!-- 10472 -->
<g id="node52" class="node"><title>10472</title>
<ellipse fill="white" stroke="black" cx="1121.75" cy="-543.39" rx="27.6545" ry="27.6545"/>
<text text-anchor="middle" x="1121.75" y="-541.19" font-family="Times,serif" font-size="9.00">10472</text>
</g>
<!-- 9704&#45;&gt;10472 -->
<g id="edge66" class="edge"><title>9704&#45;&gt;10472</title>
<path fill="none" stroke="green" stroke-width="0.22077" d="M1079.78,-610.258C1086.36,-599.928 1094.49,-587.172 1101.84,-575.646"/>
<polygon fill="green" stroke="green" stroke-width="0.22077" points="1104.84,-577.446 1107.26,-567.132 1098.93,-573.685 1104.84,-577.446"/>
</g>
<!-- 10472&#45;&gt;5851 -->
<g id="edge15" class="edge"><title>10472&#45;&gt;5851</title>
<path fill="none" stroke="green" stroke-width="0.83222" d="M1118.59,-515.719C1114.17,-489.456 1103.76,-449.737 1079.75,-424.659 1047.64,-391.13 995.079,-375.03 960.446,-367.694"/>
<polygon fill="green" stroke="green" stroke-width="0.83222" points="960.805,-364.197 950.315,-365.689 959.446,-371.064 960.805,-364.197"/>
</g>
<!-- 6507&#45;&gt;4505 -->
<g id="edge53" class="edge"><title>6507&#45;&gt;4505</title>
<path fill="none" stroke="green" stroke-width="0.45669" stroke-dasharray="1,5" d="M459.987,-254.603C439.634,-239.851 407.733,-216.728 384.779,-200.09"/>
<polygon fill="green" stroke="green" stroke-width="0.45669" points="386.613,-197.097 376.462,-194.062 382.504,-202.764 386.613,-197.097"/>
</g>
<!-- 10861&#45;&gt;2831 -->
<g id="edge25" class="edge"><title>10861&#45;&gt;2831</title>
<path fill="none" stroke="green" stroke-width="0.414404" d="M1332.89,-248.037C1351.52,-222.656 1375.76,-179.703 1352.75,-151.196 1322.68,-113.952 1178.28,-98.8062 1110.73,-93.6828"/>
<polygon fill="green" stroke="green" stroke-width="0.414404" points="1110.81,-90.1791 1100.58,-92.9447 1110.3,-97.1607 1110.81,-90.1791"/>
</g>
<!-- 10861&#45;&gt;14355 -->
<g id="edge61" class="edge"><title>10861&#45;&gt;14355</title>
<path fill="none" stroke="green" stroke-width="0.229654" d="M1315.75,-242.178C1315.75,-234.156 1315.75,-225.211 1315.75,-216.657"/>
<polygon fill="green" stroke="green" stroke-width="0.229654" points="1319.25,-216.503 1315.75,-206.503 1312.25,-216.504 1319.25,-216.503"/>
</g>
</g>
</svg>
