<?xml version="1.0" encoding="UTF-8" standalone="no"?>
<!DOCTYPE svg PUBLIC "-//W3C//DTD SVG 1.1//EN"
 "http://www.w3.org/Graphics/SVG/1.1/DTD/svg11.dtd">
<!-- Generated by graphviz version 2.38.0 (20140413.2041)
 -->
<!-- Title: %3 Pages: 1 -->
<svg width="1078pt" height="508pt"
 viewBox="0.00 0.00 1078.33 507.61" xmlns="http://www.w3.org/2000/svg" xmlns:xlink="http://www.w3.org/1999/xlink">
<g id="graph0" class="graph" transform="scale(1 1) rotate(0) translate(4 503.612)">
<title>%3</title>
<polygon fill="white" stroke="none" points="-4,4 -4,-503.612 1074.33,-503.612 1074.33,4 -4,4"/>
<!-- &#45;1 -->
<g id="node1" class="node"><title>&#45;1</title>
<polygon fill="lightgray" stroke="black" points="39.5772,-307.212 15.5772,-307.212 15.5772,-289.212 39.5772,-289.212 39.5772,-307.212"/>
<text text-anchor="middle" x="27.5772" y="-296.012" font-family="Times,serif" font-size="9.00">&#45;1</text>
</g>
<!-- 10026 -->
<g id="node33" class="node"><title>10026</title>
<ellipse fill="white" stroke="black" cx="27.5772" cy="-209.886" rx="27.6545" ry="27.6545"/>
<text text-anchor="middle" x="27.5772" y="-207.686" font-family="Times,serif" font-size="9.00">10026</text>
</g>
<!-- &#45;1&#45;&gt;10026 -->
<g id="edge26" class="edge"><title>&#45;1&#45;&gt;10026</title>
<path fill="none" stroke="red" stroke-width="0.627842" d="M27.5772,-288.934C27.5772,-279.402 27.5772,-263.091 27.5772,-247.836"/>
<polygon fill="red" stroke="red" stroke-width="0.627842" points="31.0773,-247.541 27.5772,-237.541 24.0773,-247.541 31.0773,-247.541"/>
</g>
<!-- &#45;2 -->
<g id="node2" class="node"><title>&#45;2</title>
<polygon fill="lightgray" stroke="black" points="225.577,-307.212 201.577,-307.212 201.577,-289.212 225.577,-289.212 225.577,-307.212"/>
<text text-anchor="middle" x="213.577" y="-296.012" font-family="Times,serif" font-size="9.00">&#45;2</text>
</g>
<!-- 0 -->
<g id="node25" class="node"><title>0</title>
<ellipse fill="lightblue" stroke="black" cx="349.577" cy="-209.886" rx="14.7" ry="14.7"/>
<text text-anchor="middle" x="349.577" y="-207.686" font-family="Times,serif" font-size="9.00">0</text>
</g>
<!-- &#45;2&#45;&gt;0 -->
<g id="edge2" class="edge"><title>&#45;2&#45;&gt;0</title>
<path fill="none" stroke="red" stroke-width="0.323177" d="M220.305,-289.136C224.635,-284.24 230.562,-278.07 236.577,-273.463 265.553,-251.272 303.357,-232.004 327.054,-220.913"/>
<polygon fill="red" stroke="red" stroke-width="0.323177" points="328.653,-224.03 336.279,-216.675 325.731,-217.669 328.653,-224.03"/>
</g>
<!-- 10337 -->
<g id="node29" class="node"><title>10337</title>
<ellipse fill="white" stroke="black" cx="212.577" cy="-209.886" rx="27.6545" ry="27.6545"/>
<text text-anchor="middle" x="212.577" y="-207.686" font-family="Times,serif" font-size="9.00">10337</text>
</g>
<!-- &#45;2&#45;&gt;10337 -->
<g id="edge1" class="edge"><title>&#45;2&#45;&gt;10337</title>
<path fill="none" stroke="green" stroke-width="0.137565" d="M213.481,-288.934C213.371,-279.402 213.182,-263.091 213.005,-247.836"/>
<polygon fill="green" stroke="green" stroke-width="0.137565" points="216.502,-247.499 212.886,-237.541 209.502,-247.58 216.502,-247.499"/>
</g>
<!-- &#45;3 -->
<g id="node3" class="node"><title>&#45;3</title>
<polygon fill="lightgray" stroke="black" points="706.577,-307.212 682.577,-307.212 682.577,-289.212 706.577,-289.212 706.577,-307.212"/>
<text text-anchor="middle" x="694.577" y="-296.012" font-family="Times,serif" font-size="9.00">&#45;3</text>
</g>
<!-- 8619 -->
<g id="node36" class="node"><title>8619</title>
<ellipse fill="white" stroke="black" cx="689.577" cy="-209.886" rx="25" ry="25"/>
<text text-anchor="middle" x="689.577" y="-207.686" font-family="Times,serif" font-size="9.00">8619</text>
</g>
<!-- &#45;3&#45;&gt;8619 -->
<g id="edge21" class="edge"><title>&#45;3&#45;&gt;8619</title>
<path fill="none" stroke="red" stroke-width="0.304021" d="M694.098,-288.934C693.512,-278.826 692.485,-261.093 691.558,-245.083"/>
<polygon fill="red" stroke="red" stroke-width="0.304021" points="695.041,-244.688 690.968,-234.907 688.053,-245.093 695.041,-244.688"/>
</g>
<!-- &#45;4 -->
<g id="node4" class="node"><title>&#45;4</title>
<polygon fill="lightgray" stroke="black" points="678.577,-483.864 654.577,-483.864 654.577,-465.864 678.577,-465.864 678.577,-483.864"/>
<text text-anchor="middle" x="666.577" y="-472.664" font-family="Times,serif" font-size="9.00">&#45;4</text>
</g>
<!-- &#45;5 -->
<g id="node5" class="node"><title>&#45;5</title>
<polygon fill="lightgray" stroke="black" points="411.577,-307.212 387.577,-307.212 387.577,-289.212 411.577,-289.212 411.577,-307.212"/>
<text text-anchor="middle" x="399.577" y="-296.012" font-family="Times,serif" font-size="9.00">&#45;5</text>
</g>
<!-- &#45;5&#45;&gt;0 -->
<g id="edge16" class="edge"><title>&#45;5&#45;&gt;0</title>
<path fill="none" stroke="red" stroke-width="2.25306" d="M394.783,-288.934C387.248,-275.925 372.399,-250.289 361.775,-231.946"/>
<polygon fill="red" stroke="red" stroke-width="2.25306" points="364.706,-230.023 356.665,-223.124 358.649,-233.531 364.706,-230.023"/>
</g>
<!-- 10790 -->
<g id="node32" class="node"><title>10790</title>
<ellipse fill="white" stroke="black" cx="409.577" cy="-209.886" rx="27.6545" ry="27.6545"/>
<text text-anchor="middle" x="409.577" y="-207.686" font-family="Times,serif" font-size="9.00">10790</text>
</g>
<!-- &#45;5&#45;&gt;10790 -->
<g id="edge25" class="edge"><title>&#45;5&#45;&gt;10790</title>
<path fill="none" stroke="green" stroke-width="0.529765" d="M400.536,-288.934C401.64,-279.402 403.53,-263.091 405.297,-247.836"/>
<polygon fill="green" stroke="green" stroke-width="0.529765" points="408.815,-247.877 406.489,-237.541 401.862,-247.071 408.815,-247.877"/>
</g>
<!-- &#45;6 -->
<g id="node6" class="node"><title>&#45;6</title>
<polygon fill="lightgray" stroke="black" points="575.577,-395.538 551.577,-395.538 551.577,-377.538 575.577,-377.538 575.577,-395.538"/>
<text text-anchor="middle" x="563.577" y="-384.338" font-family="Times,serif" font-size="9.00">&#45;6</text>
</g>
<!-- 9899 -->
<g id="node34" class="node"><title>9899</title>
<ellipse fill="white" stroke="black" cx="592.577" cy="-298.212" rx="25" ry="25"/>
<text text-anchor="middle" x="592.577" y="-296.012" font-family="Times,serif" font-size="9.00">9899</text>
</g>
<!-- &#45;6&#45;&gt;9899 -->
<g id="edge36" class="edge"><title>&#45;6&#45;&gt;9899</title>
<path fill="none" stroke="red" stroke-width="0.209522" d="M566.358,-377.26C569.856,-366.846 576.074,-348.339 581.576,-331.96"/>
<polygon fill="red" stroke="red" stroke-width="0.209522" points="585.012,-332.722 584.879,-322.128 578.377,-330.493 585.012,-332.722"/>
</g>
<!-- &#45;7 -->
<g id="node7" class="node"><title>&#45;7</title>
<polygon fill="lightgray" stroke="black" points="168.577,-307.212 144.577,-307.212 144.577,-289.212 168.577,-289.212 168.577,-307.212"/>
<text text-anchor="middle" x="156.577" y="-296.012" font-family="Times,serif" font-size="9.00">&#45;7</text>
</g>
<!-- &#45;7&#45;&gt;10337 -->
<g id="edge38" class="edge"><title>&#45;7&#45;&gt;10337</title>
<path fill="none" stroke="green" stroke-width="0.150222" d="M161.947,-288.934C168.94,-278.154 181.56,-258.7 192.45,-241.912"/>
<polygon fill="green" stroke="green" stroke-width="0.150222" points="195.442,-243.731 197.948,-233.437 189.57,-239.921 195.442,-243.731"/>
</g>
<!-- 10155 -->
<g id="node35" class="node"><title>10155</title>
<ellipse fill="white" stroke="black" cx="100.577" cy="-209.886" rx="27.6545" ry="27.6545"/>
<text text-anchor="middle" x="100.577" y="-207.686" font-family="Times,serif" font-size="9.00">10155</text>
</g>
<!-- &#45;7&#45;&gt;10155 -->
<g id="edge17" class="edge"><title>&#45;7&#45;&gt;10155</title>
<path fill="none" stroke="red" stroke-width="0.397747" d="M151.208,-288.934C144.214,-278.154 131.594,-258.7 120.704,-241.912"/>
<polygon fill="red" stroke="red" stroke-width="0.397747" points="123.585,-239.921 115.206,-233.437 117.712,-243.731 123.585,-239.921"/>
</g>
<!-- 6941 -->
<g id="node40" class="node"><title>6941</title>
<ellipse fill="white" stroke="black" cx="270.577" cy="-27.5772" rx="25" ry="25"/>
<text text-anchor="middle" x="270.577" y="-25.3772" font-family="Times,serif" font-size="9.00">6941</text>
</g>
<!-- &#45;7&#45;&gt;6941 -->
<g id="edge7" class="edge"><title>&#45;7&#45;&gt;6941</title>
<path fill="none" stroke="red" stroke-width="0.832579" d="M156.843,-289.136C157.698,-269.984 161.239,-220.552 175.577,-182.309 193.521,-134.447 227.101,-85.2421 249.149,-55.7874"/>
<polygon fill="red" stroke="red" stroke-width="0.832579" points="252.057,-57.7442 255.314,-47.6624 246.481,-53.5126 252.057,-57.7442"/>
</g>
<!-- &#45;8 -->
<g id="node8" class="node"><title>&#45;8</title>
<polygon fill="lightgray" stroke="black" points="720.577,-483.864 696.577,-483.864 696.577,-465.864 720.577,-465.864 720.577,-483.864"/>
<text text-anchor="middle" x="708.577" y="-472.664" font-family="Times,serif" font-size="9.00">&#45;8</text>
</g>
<!-- &#45;9 -->
<g id="node9" class="node"><title>&#45;9</title>
<polygon fill="lightgray" stroke="black" points="453.577,-307.212 429.577,-307.212 429.577,-289.212 453.577,-289.212 453.577,-307.212"/>
<text text-anchor="middle" x="441.577" y="-296.012" font-family="Times,serif" font-size="9.00">&#45;9</text>
</g>
<!-- &#45;9&#45;&gt;0 -->
<g id="edge24" class="edge"><title>&#45;9&#45;&gt;0</title>
<path fill="none" stroke="red" stroke-width="1.14405" d="M434.961,-288.92C431.005,-284.177 425.755,-278.24 420.577,-273.463 400.977,-255.381 392.08,-255.649 372.577,-237.463 370.033,-235.091 367.482,-232.458 365.053,-229.797"/>
<polygon fill="red" stroke="red" stroke-width="1.14405" points="367.457,-227.227 358.26,-221.967 362.169,-231.814 367.457,-227.227"/>
</g>
<!-- 2 -->
<g id="node27" class="node"><title>2</title>
<ellipse fill="lightblue" stroke="black" cx="537.577" cy="-209.886" rx="14.7" ry="14.7"/>
<text text-anchor="middle" x="537.577" y="-207.686" font-family="Times,serif" font-size="9.00">2</text>
</g>
<!-- &#45;9&#45;&gt;2 -->
<g id="edge3" class="edge"><title>&#45;9&#45;&gt;2</title>
<path fill="none" stroke="red" stroke-width="0.26946" d="M448.142,-288.864C452.081,-284.102 457.331,-278.165 462.577,-273.463 483.239,-254.946 492.819,-255.872 513.577,-237.463 516.228,-235.112 518.889,-232.49 521.423,-229.835"/>
<polygon fill="red" stroke="red" stroke-width="0.26946" points="524.394,-231.768 528.511,-222.005 519.205,-227.07 524.394,-231.768"/>
</g>
<!-- &#45;10 -->
<g id="node10" class="node"><title>&#45;10</title>
<polygon fill="lightgray" stroke="black" points="322.077,-307.212 293.077,-307.212 293.077,-289.212 322.077,-289.212 322.077,-307.212"/>
<text text-anchor="middle" x="307.577" y="-296.012" font-family="Times,serif" font-size="9.00">&#45;10</text>
</g>
<!-- &#45;10&#45;&gt;0 -->
<g id="edge9" class="edge"><title>&#45;10&#45;&gt;0</title>
<path fill="none" stroke="green" stroke-width="0.264384" d="M311.604,-288.934C317.835,-276.128 330.019,-251.085 338.911,-232.809"/>
<polygon fill="green" stroke="green" stroke-width="0.264384" points="342.105,-234.244 343.333,-223.721 335.81,-231.182 342.105,-234.244"/>
</g>
<!-- 3 -->
<g id="node28" class="node"><title>3</title>
<ellipse fill="lightblue" stroke="black" cx="306.577" cy="-118.731" rx="14.7" ry="14.7"/>
<text text-anchor="middle" x="306.577" y="-116.531" font-family="Times,serif" font-size="9.00">3</text>
</g>
<!-- &#45;10&#45;&gt;3 -->
<g id="edge6" class="edge"><title>&#45;10&#45;&gt;3</title>
<path fill="none" stroke="red" stroke-width="0.358075" d="M307.532,-289.125C307.388,-263.594 306.939,-184.02 306.712,-143.685"/>
<polygon fill="red" stroke="red" stroke-width="0.358075" points="310.212,-143.632 306.656,-133.652 303.212,-143.672 310.212,-143.632"/>
</g>
<!-- &#45;11 -->
<g id="node11" class="node"><title>&#45;11</title>
<polygon fill="lightgray" stroke="black" points="768.077,-483.864 739.077,-483.864 739.077,-465.864 768.077,-465.864 768.077,-483.864"/>
<text text-anchor="middle" x="753.577" y="-472.664" font-family="Times,serif" font-size="9.00">&#45;11</text>
</g>
<!-- &#45;12 -->
<g id="node12" class="node"><title>&#45;12</title>
<polygon fill="lightgray" stroke="black" points="815.077,-483.864 786.077,-483.864 786.077,-465.864 815.077,-465.864 815.077,-483.864"/>
<text text-anchor="middle" x="800.577" y="-472.664" font-family="Times,serif" font-size="9.00">&#45;12</text>
</g>
<!-- &#45;13 -->
<g id="node13" class="node"><title>&#45;13</title>
<polygon fill="lightgray" stroke="black" points="369.077,-307.212 340.077,-307.212 340.077,-289.212 369.077,-289.212 369.077,-307.212"/>
<text text-anchor="middle" x="354.577" y="-296.012" font-family="Times,serif" font-size="9.00">&#45;13</text>
</g>
<!-- &#45;13&#45;&gt;0 -->
<g id="edge35" class="edge"><title>&#45;13&#45;&gt;0</title>
<path fill="none" stroke="green" stroke-width="1.09343" d="M354.098,-288.934C353.386,-276.645 352.021,-253.087 350.977,-235.054"/>
<polygon fill="green" stroke="green" stroke-width="1.09343" points="354.464,-234.727 350.392,-224.946 347.476,-235.132 354.464,-234.727"/>
</g>
<!-- &#45;14 -->
<g id="node14" class="node"><title>&#45;14</title>
<polygon fill="lightgray" stroke="black" points="664.077,-307.212 635.077,-307.212 635.077,-289.212 664.077,-289.212 664.077,-307.212"/>
<text text-anchor="middle" x="649.577" y="-296.012" font-family="Times,serif" font-size="9.00">&#45;14</text>
</g>
<!-- &#45;14&#45;&gt;2 -->
<g id="edge33" class="edge"><title>&#45;14&#45;&gt;2</title>
<path fill="none" stroke="green" stroke-width="0.588532" d="M642.266,-288.917C637.912,-284.173 632.162,-278.236 626.577,-273.463 614.587,-263.217 580.369,-239.711 558.024,-224.604"/>
<polygon fill="green" stroke="green" stroke-width="0.588532" points="559.802,-221.582 549.554,-218.895 555.89,-227.386 559.802,-221.582"/>
</g>
<!-- &#45;14&#45;&gt;8619 -->
<g id="edge31" class="edge"><title>&#45;14&#45;&gt;8619</title>
<path fill="none" stroke="green" stroke-width="0.357614" d="M653.413,-288.934C658.382,-278.21 667.327,-258.904 675.078,-242.177"/>
<polygon fill="green" stroke="green" stroke-width="0.357614" points="678.435,-243.256 679.464,-232.711 672.084,-240.313 678.435,-243.256"/>
</g>
<!-- &#45;15 -->
<g id="node15" class="node"><title>&#45;15</title>
<polygon fill="lightgray" stroke="black" points="862.077,-483.864 833.077,-483.864 833.077,-465.864 862.077,-465.864 862.077,-483.864"/>
<text text-anchor="middle" x="847.577" y="-472.664" font-family="Times,serif" font-size="9.00">&#45;15</text>
</g>
<!-- &#45;16 -->
<g id="node16" class="node"><title>&#45;16</title>
<polygon fill="lightgray" stroke="black" points="275.077,-307.212 246.077,-307.212 246.077,-289.212 275.077,-289.212 275.077,-307.212"/>
<text text-anchor="middle" x="260.577" y="-296.012" font-family="Times,serif" font-size="9.00">&#45;16</text>
</g>
<!-- &#45;16&#45;&gt;0 -->
<g id="edge11" class="edge"><title>&#45;16&#45;&gt;0</title>
<path fill="none" stroke="red" stroke-width="0.275539" d="M268.581,-288.774C272.964,-284.197 278.518,-278.469 283.577,-273.463 299.565,-257.644 318.193,-240.056 331.575,-227.564"/>
<polygon fill="red" stroke="red" stroke-width="0.275539" points="334.223,-229.882 339.158,-220.507 329.454,-224.758 334.223,-229.882"/>
</g>
<!-- 1 -->
<g id="node26" class="node"><title>1</title>
<ellipse fill="lightblue" stroke="black" cx="66.5772" cy="-118.731" rx="14.7" ry="14.7"/>
<text text-anchor="middle" x="66.5772" y="-116.531" font-family="Times,serif" font-size="9.00">1</text>
</g>
<!-- &#45;16&#45;&gt;1 -->
<g id="edge22" class="edge"><title>&#45;16&#45;&gt;1</title>
<path fill="none" stroke="green" stroke-width="0.727425" d="M262.676,-289.017C267.454,-268.27 276.741,-213.127 249.577,-182.309 201.381,-127.629 152.118,-183.744 89.5772,-146.309 86.5405,-144.491 83.6992,-142.133 81.1206,-139.572"/>
<polygon fill="green" stroke="green" stroke-width="0.727425" points="83.4308,-136.893 74.2404,-131.622 78.1376,-141.474 83.4308,-136.893"/>
</g>
<!-- &#45;17 -->
<g id="node17" class="node"><title>&#45;17</title>
<polygon fill="lightgray" stroke="black" points="909.077,-483.864 880.077,-483.864 880.077,-465.864 909.077,-465.864 909.077,-483.864"/>
<text text-anchor="middle" x="894.577" y="-472.664" font-family="Times,serif" font-size="9.00">&#45;17</text>
</g>
<!-- &#45;18 -->
<g id="node18" class="node"><title>&#45;18</title>
<polygon fill="lightgray" stroke="black" points="550.077,-307.212 521.077,-307.212 521.077,-289.212 550.077,-289.212 550.077,-307.212"/>
<text text-anchor="middle" x="535.577" y="-296.012" font-family="Times,serif" font-size="9.00">&#45;18</text>
</g>
<!-- &#45;18&#45;&gt;2 -->
<g id="edge14" class="edge"><title>&#45;18&#45;&gt;2</title>
<path fill="none" stroke="red" stroke-width="0.374601" d="M535.769,-288.934C536.054,-276.645 536.599,-253.087 537.017,-235.054"/>
<polygon fill="red" stroke="red" stroke-width="0.374601" points="540.519,-235.025 537.251,-224.946 533.521,-234.862 540.519,-235.025"/>
</g>
<!-- &#45;19 -->
<g id="node19" class="node"><title>&#45;19</title>
<polygon fill="lightgray" stroke="black" points="956.077,-483.864 927.077,-483.864 927.077,-465.864 956.077,-465.864 956.077,-483.864"/>
<text text-anchor="middle" x="941.577" y="-472.664" font-family="Times,serif" font-size="9.00">&#45;19</text>
</g>
<!-- &#45;20 -->
<g id="node20" class="node"><title>&#45;20</title>
<polygon fill="lightgray" stroke="black" points="459.077,-127.731 430.077,-127.731 430.077,-109.731 459.077,-109.731 459.077,-127.731"/>
<text text-anchor="middle" x="444.577" y="-116.531" font-family="Times,serif" font-size="9.00">&#45;20</text>
</g>
<!-- &#45;20&#45;&gt;6941 -->
<g id="edge13" class="edge"><title>&#45;20&#45;&gt;6941</title>
<path fill="none" stroke="green" stroke-width="0.116079" d="M438.957,-109.386C434.734,-103.634 428.504,-96.1537 421.577,-91.1543 385.345,-65.0052 336.558,-47.3495 304.368,-37.6316"/>
<polygon fill="green" stroke="green" stroke-width="0.116079" points="305.117,-34.2041 294.537,-34.7546 303.151,-40.9224 305.117,-34.2041"/>
</g>
<!-- &#45;21 -->
<g id="node21" class="node"><title>&#45;21</title>
<polygon fill="lightgray" stroke="black" points="501.077,-307.212 472.077,-307.212 472.077,-289.212 501.077,-289.212 501.077,-307.212"/>
<text text-anchor="middle" x="486.577" y="-296.012" font-family="Times,serif" font-size="9.00">&#45;21</text>
</g>
<!-- &#45;21&#45;&gt;0 -->
<g id="edge10" class="edge"><title>&#45;21&#45;&gt;0</title>
<path fill="none" stroke="green" stroke-width="3.54735" d="M479.694,-288.88C475.227,-283.887 469.048,-277.705 462.577,-273.463 426.549,-249.842 407.666,-262.458 372.577,-237.463 369.744,-235.445 367.033,-233.008 364.529,-230.439"/>
<polygon fill="green" stroke="green" stroke-width="3.54735" points="366.931,-227.868 357.727,-222.621 361.65,-232.462 366.931,-227.868"/>
</g>
<!-- &#45;21&#45;&gt;2 -->
<g id="edge32" class="edge"><title>&#45;21&#45;&gt;2</title>
<path fill="none" stroke="red" stroke-width="0.24698" d="M491.467,-288.934C499.153,-275.925 514.299,-250.289 525.135,-231.946"/>
<polygon fill="red" stroke="red" stroke-width="0.24698" points="528.274,-233.514 530.347,-223.124 522.247,-229.953 528.274,-233.514"/>
</g>
<!-- 4550 -->
<g id="node31" class="node"><title>4550</title>
<ellipse fill="white" stroke="black" cx="479.577" cy="-209.886" rx="25" ry="25"/>
<text text-anchor="middle" x="479.577" y="-207.686" font-family="Times,serif" font-size="9.00">4550</text>
</g>
<!-- &#45;21&#45;&gt;4550 -->
<g id="edge5" class="edge"><title>&#45;21&#45;&gt;4550</title>
<path fill="none" stroke="red" stroke-width="0.764501" d="M485.906,-288.934C485.086,-278.826 483.648,-261.093 482.35,-245.083"/>
<polygon fill="red" stroke="red" stroke-width="0.764501" points="485.822,-244.592 481.525,-234.907 478.845,-245.158 485.822,-244.592"/>
</g>
<!-- &#45;22 -->
<g id="node22" class="node"><title>&#45;22</title>
<polygon fill="lightgray" stroke="black" points="1003.08,-483.864 974.077,-483.864 974.077,-465.864 1003.08,-465.864 1003.08,-483.864"/>
<text text-anchor="middle" x="988.577" y="-472.664" font-family="Times,serif" font-size="9.00">&#45;22</text>
</g>
<!-- &#45;23 -->
<g id="node23" class="node"><title>&#45;23</title>
<polygon fill="lightgray" stroke="black" points="636.077,-483.864 607.077,-483.864 607.077,-465.864 636.077,-465.864 636.077,-483.864"/>
<text text-anchor="middle" x="621.577" y="-472.664" font-family="Times,serif" font-size="9.00">&#45;23</text>
</g>
<!-- 11010 -->
<g id="node30" class="node"><title>11010</title>
<ellipse fill="white" stroke="black" cx="621.577" cy="-386.538" rx="27.6545" ry="27.6545"/>
<text text-anchor="middle" x="621.577" y="-384.338" font-family="Times,serif" font-size="9.00">11010</text>
</g>
<!-- &#45;23&#45;&gt;11010 -->
<g id="edge19" class="edge"><title>&#45;23&#45;&gt;11010</title>
<path fill="none" stroke="red" stroke-width="0.211559" d="M621.577,-465.586C621.577,-456.054 621.577,-439.742 621.577,-424.488"/>
<polygon fill="red" stroke="red" stroke-width="0.211559" points="625.077,-424.192 621.577,-414.192 618.077,-424.192 625.077,-424.192"/>
</g>
<!-- &#45;24 -->
<g id="node24" class="node"><title>&#45;24</title>
<polygon fill="lightgray" stroke="black" points="128.077,-127.731 99.0772,-127.731 99.0772,-109.731 128.077,-109.731 128.077,-127.731"/>
<text text-anchor="middle" x="113.577" y="-116.531" font-family="Times,serif" font-size="9.00">&#45;24</text>
</g>
<!-- &#45;24&#45;&gt;6941 -->
<g id="edge4" class="edge"><title>&#45;24&#45;&gt;6941</title>
<path fill="none" stroke="green" stroke-width="0.439232" d="M121.178,-109.623C126.744,-103.983 134.677,-96.5392 142.577,-91.1543 173.16,-70.3092 211.719,-52.454 238.483,-41.2146"/>
<polygon fill="green" stroke="green" stroke-width="0.439232" points="239.865,-44.4305 247.773,-37.3797 237.194,-37.9601 239.865,-44.4305"/>
</g>
<!-- 11198 -->
<g id="node41" class="node"><title>11198</title>
<ellipse fill="white" stroke="black" cx="66.5772" cy="-27.5772" rx="27.6545" ry="27.6545"/>
<text text-anchor="middle" x="66.5772" y="-25.3772" font-family="Times,serif" font-size="9.00">11198</text>
</g>
<!-- 1&#45;&gt;11198 -->
<g id="edge27" class="edge"><title>1&#45;&gt;11198</title>
<path fill="none" stroke="green" stroke-width="0.358635" d="M61.6218,-104.576C60.144,-94.1549 59.5788,-79.0714 59.9265,-65.0845"/>
<polygon fill="green" stroke="green" stroke-width="0.358635" points="63.4401,-64.838 60.3702,-54.6977 56.4465,-64.5392 63.4401,-64.838"/>
</g>
<!-- 2&#45;&gt;2 -->
<g id="edge12" class="edge"><title>2&#45;&gt;2</title>
<path fill="none" stroke="red" stroke-width="0.454277" d="M546.658,-221.729C557.589,-230.677 570.426,-226.73 570.426,-209.886 570.426,-197.648 563.65,-192.217 555.751,-193.595"/>
<polygon fill="red" stroke="red" stroke-width="0.454277" points="554.103,-190.505 546.658,-198.043 557.179,-196.793 554.103,-190.505"/>
</g>
<!-- 3&#45;&gt;3 -->
<g id="edge8" class="edge"><title>3&#45;&gt;3</title>
<path fill="none" stroke="green" stroke-width="0.156113" d="M315.658,-130.844C326.589,-139.996 339.426,-135.958 339.426,-118.731 339.426,-106.215 332.65,-100.662 324.751,-102.07"/>
<polygon fill="green" stroke="green" stroke-width="0.156113" points="323.035,-99.015 315.658,-106.619 326.167,-105.275 323.035,-99.015"/>
</g>
<!-- 11010&#45;&gt;9899 -->
<g id="edge20" class="edge"><title>11010&#45;&gt;9899</title>
<path fill="none" stroke="red" stroke-width="0.510894" d="M613.033,-360.104C610.007,-351.097 606.563,-340.844 603.375,-331.353"/>
<polygon fill="red" stroke="red" stroke-width="0.510894" points="606.675,-330.187 600.173,-321.822 600.04,-332.416 606.675,-330.187"/>
</g>
<!-- 10790&#45;&gt;3 -->
<g id="edge28" class="edge"><title>10790&#45;&gt;3</title>
<path fill="none" stroke="red" stroke-width="0.665607" d="M389.228,-191.272C370.518,-175.077 343.023,-151.278 324.962,-135.645"/>
<polygon fill="red" stroke="red" stroke-width="0.665607" points="327.245,-132.992 317.393,-129.094 322.664,-138.285 327.245,-132.992"/>
</g>
<!-- 10026&#45;&gt;1 -->
<g id="edge18" class="edge"><title>10026&#45;&gt;1</title>
<path fill="none" stroke="green" stroke-width="0.274068" d="M38.4408,-184.051C44.203,-170.879 51.2259,-154.825 56.8139,-142.05"/>
<polygon fill="green" stroke="green" stroke-width="0.274068" points="60.135,-143.191 60.9362,-132.627 53.7217,-140.386 60.135,-143.191"/>
</g>
<!-- 9899&#45;&gt;2 -->
<g id="edge37" class="edge"><title>9899&#45;&gt;2</title>
<path fill="none" stroke="red" stroke-width="0.601538" d="M579.543,-276.754C570.871,-263.142 559.516,-245.32 550.804,-231.646"/>
<polygon fill="red" stroke="red" stroke-width="0.601538" points="553.586,-229.499 545.261,-222.946 547.682,-233.26 553.586,-229.499"/>
</g>
<!-- 10899 -->
<g id="node39" class="node"><title>10899</title>
<ellipse fill="white" stroke="black" cx="615.577" cy="-209.886" rx="27.6545" ry="27.6545"/>
<text text-anchor="middle" x="615.577" y="-207.686" font-family="Times,serif" font-size="9.00">10899</text>
</g>
<!-- 9899&#45;&gt;10899 -->
<g id="edge34" class="edge"><title>9899&#45;&gt;10899</title>
<path fill="none" stroke="green" stroke-width="0.586044" d="M598.741,-274.078C600.988,-265.642 603.585,-255.895 606.056,-246.62"/>
<polygon fill="green" stroke="green" stroke-width="0.586044" points="609.474,-247.389 608.666,-236.825 602.71,-245.587 609.474,-247.389"/>
</g>
<!-- 10155&#45;&gt;1 -->
<g id="edge23" class="edge"><title>10155&#45;&gt;1</title>
<path fill="none" stroke="green" stroke-width="0.141374" d="M90.9251,-183.576C86.0169,-170.706 80.0969,-155.183 75.3233,-142.666"/>
<polygon fill="green" stroke="green" stroke-width="0.141374" points="78.4642,-141.079 71.6306,-132.983 71.9237,-143.573 78.4642,-141.079"/>
</g>
<!-- 11118 -->
<g id="node37" class="node"><title>11118</title>
<ellipse fill="white" stroke="black" cx="384.577" cy="-118.731" rx="27.6545" ry="27.6545"/>
<text text-anchor="middle" x="384.577" y="-116.531" font-family="Times,serif" font-size="9.00">11118</text>
</g>
<!-- 11118&#45;&gt;6941 -->
<g id="edge15" class="edge"><title>11118&#45;&gt;6941</title>
<path fill="none" stroke="red" stroke-width="0.198596" d="M363.135,-100.962C344.624,-86.4857 317.783,-65.4944 297.766,-49.8407"/>
<polygon fill="red" stroke="red" stroke-width="0.198596" points="299.684,-46.8967 289.65,-43.4933 295.371,-52.4107 299.684,-46.8967"/>
</g>
<!-- 4017 -->
<g id="node38" class="node"><title>4017</title>
<ellipse fill="white" stroke="black" cx="1045.58" cy="-474.864" rx="25" ry="25"/>
<text text-anchor="middle" x="1045.58" y="-472.664" font-family="Times,serif" font-size="9.00">4017</text>
</g>
<!-- 10899&#45;&gt;11118 -->
<g id="edge30" class="edge"><title>10899&#45;&gt;11118</title>
<path fill="none" stroke="green" stroke-width="0.171365" d="M594.788,-191.315C590.018,-187.932 584.804,-184.702 579.577,-182.309 513.697,-152.15 486.458,-176.467 420.577,-146.309 418.29,-145.262 416.006,-144.055 413.76,-142.744"/>
<polygon fill="green" stroke="green" stroke-width="0.171365" points="415.661,-139.805 405.366,-137.302 411.853,-145.679 415.661,-139.805"/>
</g>
<!-- 11198&#45;&gt;1 -->
<g id="edge29" class="edge"><title>11198&#45;&gt;1</title>
<path fill="none" stroke="green" stroke-width="0.451366" d="M72.7842,-54.6977C73.5652,-67.2396 73.5037,-82.1486 72.5996,-94.3177"/>
<polygon fill="green" stroke="green" stroke-width="0.451366" points="69.086,-94.268 71.5325,-104.576 76.0484,-94.9923 69.086,-94.268"/>
</g>
</g>
</svg>
