<?xml version="1.0" encoding="UTF-8" standalone="no"?>
<!DOCTYPE svg PUBLIC "-//W3C//DTD SVG 1.1//EN"
 "http://www.w3.org/Graphics/SVG/1.1/DTD/svg11.dtd">
<!-- Generated by graphviz version 2.38.0 (20140413.2041)
 -->
<!-- Title: %3 Pages: 1 -->
<svg width="1207pt" height="653pt"
 viewBox="0.00 0.00 1207.29 652.77" xmlns="http://www.w3.org/2000/svg" xmlns:xlink="http://www.w3.org/1999/xlink">
<g id="graph0" class="graph" transform="scale(1 1) rotate(0) translate(4 648.767)">
<title>%3</title>
<polygon fill="white" stroke="none" points="-4,4 -4,-648.767 1203.29,-648.767 1203.29,4 -4,4"/>
<!-- &#45;1 -->
<g id="node1" class="node"><title>&#45;1</title>
<polygon fill="lightgray" stroke="black" points="981.5,-304.383 957.5,-304.383 957.5,-286.383 981.5,-286.383 981.5,-304.383"/>
<text text-anchor="middle" x="969.5" y="-293.183" font-family="Times,serif" font-size="9.00">&#45;1</text>
</g>
<!-- 0 -->
<g id="node25" class="node"><title>0</title>
<ellipse fill="lightblue" stroke="black" cx="619.5" cy="-204.229" rx="14.7" ry="14.7"/>
<text text-anchor="middle" x="619.5" y="-202.029" font-family="Times,serif" font-size="9.00">0</text>
</g>
<!-- &#45;1&#45;&gt;0 -->
<g id="edge11" class="edge"><title>&#45;1&#45;&gt;0</title>
<path fill="none" stroke="red" stroke-width="0.647484" stroke-dasharray="1,5" d="M965.192,-285.965C961.596,-279.86 955.873,-271.972 948.5,-267.806 838.111,-205.433 785.645,-272.318 665.5,-231.806 656.677,-228.831 647.659,-224.069 639.972,-219.393"/>
<polygon fill="red" stroke="red" stroke-width="0.647484" points="641.663,-216.319 631.359,-213.857 637.878,-222.208 641.663,-216.319"/>
</g>
<!-- 1 -->
<g id="node26" class="node"><title>1</title>
<ellipse fill="lightblue" stroke="black" cx="658.5" cy="-115.903" rx="14.7" ry="14.7"/>
<text text-anchor="middle" x="658.5" y="-113.703" font-family="Times,serif" font-size="9.00">1</text>
</g>
<!-- &#45;1&#45;&gt;1 -->
<g id="edge14" class="edge"><title>&#45;1&#45;&gt;1</title>
<path fill="none" stroke="red" stroke-width="0.250309" stroke-dasharray="1,5" d="M964.369,-286.203C960.513,-280.53 954.826,-273.075 948.5,-267.806 922.224,-245.921 906.319,-254.229 880.5,-231.806 857.637,-211.951 864.963,-194.498 840.5,-176.652 791.594,-140.974 720.218,-125.825 683.054,-120.049"/>
<polygon fill="red" stroke="red" stroke-width="0.250309" points="683.503,-116.578 673.103,-118.602 682.495,-123.505 683.503,-116.578"/>
</g>
<!-- 3 -->
<g id="node28" class="node"><title>3</title>
<ellipse fill="lightblue" stroke="black" cx="689.5" cy="-204.229" rx="14.7" ry="14.7"/>
<text text-anchor="middle" x="689.5" y="-202.029" font-family="Times,serif" font-size="9.00">3</text>
</g>
<!-- &#45;1&#45;&gt;3 -->
<g id="edge57" class="edge"><title>&#45;1&#45;&gt;3</title>
<path fill="none" stroke="red" stroke-width="0.287594" stroke-dasharray="1,5" d="M965.147,-286.044C961.527,-279.979 955.794,-272.108 948.5,-267.806 863.914,-217.919 822.077,-267.262 730.5,-231.806 722.995,-228.9 715.421,-224.498 708.861,-220.108"/>
<polygon fill="red" stroke="red" stroke-width="0.287594" points="710.824,-217.209 700.644,-214.27 706.769,-222.915 710.824,-217.209"/>
</g>
<!-- 10026 -->
<g id="node33" class="node"><title>10026</title>
<ellipse fill="white" stroke="black" cx="917.5" cy="-204.229" rx="27.6545" ry="27.6545"/>
<text text-anchor="middle" x="917.5" y="-202.029" font-family="Times,serif" font-size="9.00">10026</text>
</g>
<!-- &#45;1&#45;&gt;10026 -->
<g id="edge49" class="edge"><title>&#45;1&#45;&gt;10026</title>
<path fill="none" stroke="red" stroke-width="0.627842" d="M964.701,-286.156C958.235,-275.07 946.356,-254.703 936.133,-237.176"/>
<polygon fill="red" stroke="red" stroke-width="0.627842" points="939.037,-235.208 930.976,-228.333 932.991,-238.735 939.037,-235.208"/>
</g>
<!-- &#45;2 -->
<g id="node2" class="node"><title>&#45;2</title>
<polygon fill="lightgray" stroke="black" points="610.5,-304.383 586.5,-304.383 586.5,-286.383 610.5,-286.383 610.5,-304.383"/>
<text text-anchor="middle" x="598.5" y="-293.183" font-family="Times,serif" font-size="9.00">&#45;2</text>
</g>
<!-- &#45;2&#45;&gt;0 -->
<g id="edge4" class="edge"><title>&#45;2&#45;&gt;0</title>
<path fill="none" stroke="red" stroke-width="0.323177" d="M600.438,-286.156C603.474,-273.267 609.464,-247.835 613.923,-228.904"/>
<polygon fill="red" stroke="red" stroke-width="0.323177" points="617.39,-229.451 616.276,-218.915 610.577,-227.846 617.39,-229.451"/>
</g>
<!-- 2 -->
<g id="node27" class="node"><title>2</title>
<ellipse fill="lightblue" stroke="black" cx="330.5" cy="-204.229" rx="14.7" ry="14.7"/>
<text text-anchor="middle" x="330.5" y="-202.029" font-family="Times,serif" font-size="9.00">2</text>
</g>
<!-- &#45;2&#45;&gt;2 -->
<g id="edge39" class="edge"><title>&#45;2&#45;&gt;2</title>
<path fill="none" stroke="red" stroke-width="0.57918" stroke-dasharray="1,5" d="M593.833,-286.064C589.984,-280.011 583.955,-272.144 576.5,-267.806 496.925,-221.501 458.356,-265.05 372.5,-231.806 364.866,-228.85 357.121,-224.435 350.397,-220.048"/>
<polygon fill="red" stroke="red" stroke-width="0.57918" points="352.183,-217.028 341.966,-214.223 348.204,-222.787 352.183,-217.028"/>
</g>
<!-- 10337 -->
<g id="node29" class="node"><title>10337</title>
<ellipse fill="white" stroke="black" cx="767.5" cy="-204.229" rx="27.6545" ry="27.6545"/>
<text text-anchor="middle" x="767.5" y="-202.029" font-family="Times,serif" font-size="9.00">10337</text>
</g>
<!-- &#45;2&#45;&gt;10337 -->
<g id="edge2" class="edge"><title>&#45;2&#45;&gt;10337</title>
<path fill="none" stroke="green" stroke-width="0.137565" d="M603.046,-286.345C606.768,-280.439 612.542,-272.633 619.5,-267.806 662.459,-238.001 684.966,-255.647 731.5,-231.806 733.738,-230.659 735.986,-229.377 738.206,-228.013"/>
<polygon fill="green" stroke="green" stroke-width="0.137565" points="740.165,-230.913 746.543,-222.453 736.282,-225.09 740.165,-230.913"/>
</g>
<!-- &#45;3 -->
<g id="node3" class="node"><title>&#45;3</title>
<polygon fill="lightgray" stroke="black" points="71.5,-304.383 47.5,-304.383 47.5,-286.383 71.5,-286.383 71.5,-304.383"/>
<text text-anchor="middle" x="59.5" y="-293.183" font-family="Times,serif" font-size="9.00">&#45;3</text>
</g>
<!-- &#45;3&#45;&gt;2 -->
<g id="edge26" class="edge"><title>&#45;3&#45;&gt;2</title>
<path fill="none" stroke="green" stroke-width="0.464719" stroke-dasharray="1,5" d="M63.8461,-286.032C67.4625,-279.961 73.1938,-272.087 80.5,-267.806 168.255,-216.386 217.101,-280.313 306.5,-231.806 309.926,-229.947 313.113,-227.405 315.972,-224.626"/>
<polygon fill="green" stroke="green" stroke-width="0.464719" points="318.7,-226.825 322.718,-217.022 313.464,-222.18 318.7,-226.825"/>
</g>
<!-- 8619 -->
<g id="node36" class="node"><title>8619</title>
<ellipse fill="white" stroke="black" cx="135.5" cy="-115.903" rx="25" ry="25"/>
<text text-anchor="middle" x="135.5" y="-113.703" font-family="Times,serif" font-size="9.00">8619</text>
</g>
<!-- &#45;3&#45;&gt;8619 -->
<g id="edge42" class="edge"><title>&#45;3&#45;&gt;8619</title>
<path fill="none" stroke="red" stroke-width="0.304021" d="M62.8707,-286.379C70.8947,-267.339 91.7832,-217.862 109.5,-176.652 113.513,-167.319 117.909,-157.181 121.927,-147.952"/>
<polygon fill="red" stroke="red" stroke-width="0.304021" points="125.158,-149.3 125.945,-138.734 118.741,-146.503 125.158,-149.3"/>
</g>
<!-- &#45;4 -->
<g id="node4" class="node"><title>&#45;4</title>
<polygon fill="lightgray" stroke="black" points="939.5,-304.383 915.5,-304.383 915.5,-286.383 939.5,-286.383 939.5,-304.383"/>
<text text-anchor="middle" x="927.5" y="-293.183" font-family="Times,serif" font-size="9.00">&#45;4</text>
</g>
<!-- &#45;4&#45;&gt;0 -->
<g id="edge47" class="edge"><title>&#45;4&#45;&gt;0</title>
<path fill="none" stroke="red" stroke-width="0.143717" stroke-dasharray="1,5" d="M915.191,-287.752C903.492,-281.713 885.246,-272.975 868.5,-267.806 780.946,-240.782 751.584,-263.201 665.5,-231.806 656.752,-228.616 647.751,-223.809 640.055,-219.156"/>
<polygon fill="red" stroke="red" stroke-width="0.143717" points="641.74,-216.08 631.422,-213.676 637.989,-221.99 641.74,-216.08"/>
</g>
<!-- &#45;4&#45;&gt;1 -->
<g id="edge66" class="edge"><title>&#45;4&#45;&gt;1</title>
<path fill="none" stroke="green" stroke-width="0.368859" stroke-dasharray="1,5" d="M915.369,-286.304C899.017,-275.11 869.427,-253.768 847.5,-231.806 825.539,-209.81 829.272,-195.426 804.5,-176.652 766.816,-148.092 713.558,-130.879 682.871,-122.698"/>
<polygon fill="green" stroke="green" stroke-width="0.368859" points="683.576,-119.266 673.02,-120.177 681.84,-126.047 683.576,-119.266"/>
</g>
<!-- &#45;4&#45;&gt;3 -->
<g id="edge23" class="edge"><title>&#45;4&#45;&gt;3</title>
<path fill="none" stroke="green" stroke-width="0.51132" stroke-dasharray="1,5" d="M921.604,-286.141C916.856,-280.128 909.648,-272.278 901.5,-267.806 833.414,-230.439 802.295,-261.428 730.5,-231.806 723.06,-228.737 715.504,-224.292 708.939,-219.913"/>
<polygon fill="green" stroke="green" stroke-width="0.51132" points="710.897,-217.011 700.705,-214.118 706.868,-222.736 710.897,-217.011"/>
</g>
<!-- &#45;5 -->
<g id="node5" class="node"><title>&#45;5</title>
<polygon fill="lightgray" stroke="black" points="791.5,-395.538 767.5,-395.538 767.5,-377.538 791.5,-377.538 791.5,-395.538"/>
<text text-anchor="middle" x="779.5" y="-384.338" font-family="Times,serif" font-size="9.00">&#45;5</text>
</g>
<!-- &#45;5&#45;&gt;0 -->
<g id="edge34" class="edge"><title>&#45;5&#45;&gt;0</title>
<path fill="none" stroke="red" stroke-width="2.25306" d="M775.18,-377.27C762.719,-353.596 726.516,-286.078 709.5,-267.806 698.671,-256.178 663.674,-233.093 640.646,-218.446"/>
<polygon fill="red" stroke="red" stroke-width="2.25306" points="642.229,-215.305 631.905,-212.924 638.49,-221.224 642.229,-215.305"/>
</g>
<!-- &#45;5&#45;&gt;1 -->
<g id="edge15" class="edge"><title>&#45;5&#45;&gt;1</title>
<path fill="none" stroke="red" stroke-width="0.290202" stroke-dasharray="1,5" d="M767.133,-385.596C706.221,-385.6 439.015,-382.202 388.5,-322.96 372.595,-304.308 377.123,-289.519 388.5,-267.806 401.546,-242.908 418.851,-249.735 440.5,-231.806 467.405,-209.525 467.006,-195.372 496.5,-176.652 541.068,-148.363 600.974,-130.722 634.03,-122.464"/>
<polygon fill="red" stroke="red" stroke-width="0.290202" points="635.25,-125.771 644.149,-120.022 633.607,-118.966 635.25,-125.771"/>
</g>
<!-- &#45;5&#45;&gt;3 -->
<g id="edge51" class="edge"><title>&#45;5&#45;&gt;3</title>
<path fill="none" stroke="green" stroke-width="0.47131" stroke-dasharray="1,5" d="M791.538,-381.308C811.807,-373.451 852.134,-354.474 868.5,-322.96 879.798,-301.206 883.487,-287.204 868.5,-267.806 829.747,-217.647 788.502,-257.372 730.5,-231.806 723.136,-228.56 715.599,-224.07 709.028,-219.703"/>
<polygon fill="green" stroke="green" stroke-width="0.47131" points="710.981,-216.798 700.775,-213.954 706.98,-222.542 710.981,-216.798"/>
</g>
<!-- 10790 -->
<g id="node32" class="node"><title>10790</title>
<ellipse fill="white" stroke="black" cx="831.5" cy="-295.383" rx="27.6545" ry="27.6545"/>
<text text-anchor="middle" x="831.5" y="-293.183" font-family="Times,serif" font-size="9.00">10790</text>
</g>
<!-- &#45;5&#45;&gt;10790 -->
<g id="edge46" class="edge"><title>&#45;5&#45;&gt;10790</title>
<path fill="none" stroke="green" stroke-width="0.529765" d="M784.299,-377.31C790.765,-366.224 802.644,-345.857 812.867,-328.33"/>
<polygon fill="green" stroke="green" stroke-width="0.529765" points="816.009,-329.889 818.024,-319.488 809.963,-326.362 816.009,-329.889"/>
</g>
<!-- &#45;6 -->
<g id="node6" class="node"><title>&#45;6</title>
<polygon fill="lightgray" stroke="black" points="1053.5,-572.189 1029.5,-572.189 1029.5,-554.189 1053.5,-554.189 1053.5,-572.189"/>
<text text-anchor="middle" x="1041.5" y="-560.989" font-family="Times,serif" font-size="9.00">&#45;6</text>
</g>
<!-- 9899 -->
<g id="node34" class="node"><title>9899</title>
<ellipse fill="white" stroke="black" cx="1099.5" cy="-474.864" rx="25" ry="25"/>
<text text-anchor="middle" x="1099.5" y="-472.664" font-family="Times,serif" font-size="9.00">9899</text>
</g>
<!-- &#45;6&#45;&gt;9899 -->
<g id="edge70" class="edge"><title>&#45;6&#45;&gt;9899</title>
<path fill="none" stroke="red" stroke-width="0.209522" d="M1047.06,-553.912C1054.64,-542.628 1068.61,-521.843 1080.22,-504.558"/>
<polygon fill="red" stroke="red" stroke-width="0.209522" points="1083.36,-506.16 1086.03,-495.907 1077.55,-502.256 1083.36,-506.16"/>
</g>
<!-- &#45;7 -->
<g id="node7" class="node"><title>&#45;7</title>
<polygon fill="lightgray" stroke="black" points="1071.5,-304.383 1047.5,-304.383 1047.5,-286.383 1071.5,-286.383 1071.5,-304.383"/>
<text text-anchor="middle" x="1059.5" y="-293.183" font-family="Times,serif" font-size="9.00">&#45;7</text>
</g>
<!-- &#45;7&#45;&gt;1 -->
<g id="edge67" class="edge"><title>&#45;7&#45;&gt;1</title>
<path fill="none" stroke="red" stroke-width="0.354563" stroke-dasharray="1,5" d="M1060.01,-286.319C1060.9,-264.857 1060.09,-205.987 1027.5,-176.652 976.578,-130.808 758.605,-119.941 683.81,-117.541"/>
<polygon fill="red" stroke="red" stroke-width="0.354563" points="683.564,-114.032 673.465,-117.234 683.357,-121.029 683.564,-114.032"/>
</g>
<!-- &#45;7&#45;&gt;10337 -->
<g id="edge75" class="edge"><title>&#45;7&#45;&gt;10337</title>
<path fill="none" stroke="green" stroke-width="0.150222" d="M1054.77,-286.172C1050.89,-280.175 1044.84,-272.332 1037.5,-267.806 976.558,-230.243 950.233,-248.001 880.5,-231.806 855.08,-225.902 826.463,-219.171 804.389,-213.96"/>
<polygon fill="green" stroke="green" stroke-width="0.150222" points="804.968,-210.501 794.432,-211.608 803.359,-217.313 804.968,-210.501"/>
</g>
<!-- 10155 -->
<g id="node35" class="node"><title>10155</title>
<ellipse fill="white" stroke="black" cx="990.5" cy="-204.229" rx="27.6545" ry="27.6545"/>
<text text-anchor="middle" x="990.5" y="-202.029" font-family="Times,serif" font-size="9.00">10155</text>
</g>
<!-- &#45;7&#45;&gt;10155 -->
<g id="edge35" class="edge"><title>&#45;7&#45;&gt;10155</title>
<path fill="none" stroke="red" stroke-width="0.397747" d="M1053.13,-286.156C1044.11,-274.492 1027.13,-252.557 1013.13,-234.463"/>
<polygon fill="red" stroke="red" stroke-width="0.397747" points="1015.83,-232.236 1006.94,-226.47 1010.29,-236.521 1015.83,-232.236"/>
</g>
<!-- 6941 -->
<g id="node40" class="node"><title>6941</title>
<ellipse fill="white" stroke="black" cx="1099.5" cy="-204.229" rx="25" ry="25"/>
<text text-anchor="middle" x="1099.5" y="-202.029" font-family="Times,serif" font-size="9.00">6941</text>
</g>
<!-- &#45;7&#45;&gt;6941 -->
<g id="edge13" class="edge"><title>&#45;7&#45;&gt;6941</title>
<path fill="none" stroke="red" stroke-width="0.832579" d="M1063.19,-286.156C1068.22,-274.953 1077.5,-254.274 1085.41,-236.624"/>
<polygon fill="red" stroke="red" stroke-width="0.832579" points="1088.74,-237.766 1089.64,-227.21 1082.35,-234.901 1088.74,-237.766"/>
</g>
<!-- &#45;8 -->
<g id="node8" class="node"><title>&#45;8</title>
<polygon fill="lightgray" stroke="black" points="700.5,-304.383 676.5,-304.383 676.5,-286.383 700.5,-286.383 700.5,-304.383"/>
<text text-anchor="middle" x="688.5" y="-293.183" font-family="Times,serif" font-size="9.00">&#45;8</text>
</g>
<!-- &#45;8&#45;&gt;0 -->
<g id="edge71" class="edge"><title>&#45;8&#45;&gt;0</title>
<path fill="none" stroke="green" stroke-width="0.414539" stroke-dasharray="1,5" d="M682.132,-286.156C671.37,-272.25 649.306,-243.74 634.454,-224.551"/>
<polygon fill="green" stroke="green" stroke-width="0.414539" points="637.092,-222.241 628.204,-216.475 631.557,-226.526 637.092,-222.241"/>
</g>
<!-- &#45;9 -->
<g id="node9" class="node"><title>&#45;9</title>
<polygon fill="lightgray" stroke="black" points="341.5,-304.383 317.5,-304.383 317.5,-286.383 341.5,-286.383 341.5,-304.383"/>
<text text-anchor="middle" x="329.5" y="-293.183" font-family="Times,serif" font-size="9.00">&#45;9</text>
</g>
<!-- &#45;9&#45;&gt;0 -->
<g id="edge45" class="edge"><title>&#45;9&#45;&gt;0</title>
<path fill="none" stroke="red" stroke-width="1.14405" d="M341.922,-288.09C353.701,-282.291 372.001,-273.715 388.5,-267.806 462.268,-241.388 552.708,-219.934 595.225,-210.466"/>
<polygon fill="red" stroke="red" stroke-width="1.14405" points="596.183,-213.839 605.197,-208.271 594.678,-207.003 596.183,-213.839"/>
</g>
<!-- &#45;9&#45;&gt;2 -->
<g id="edge5" class="edge"><title>&#45;9&#45;&gt;2</title>
<path fill="none" stroke="red" stroke-width="0.26946" d="M329.592,-286.156C329.735,-273.399 330.016,-248.355 330.228,-229.488"/>
<polygon fill="red" stroke="red" stroke-width="0.26946" points="333.73,-229.272 330.343,-219.233 326.731,-229.193 333.73,-229.272"/>
</g>
<!-- &#45;10 -->
<g id="node10" class="node"><title>&#45;10</title>
<polygon fill="lightgray" stroke="black" points="786,-304.383 757,-304.383 757,-286.383 786,-286.383 786,-304.383"/>
<text text-anchor="middle" x="771.5" y="-293.183" font-family="Times,serif" font-size="9.00">&#45;10</text>
</g>
<!-- &#45;10&#45;&gt;0 -->
<g id="edge22" class="edge"><title>&#45;10&#45;&gt;0</title>
<path fill="none" stroke="green" stroke-width="0.264384" d="M763.928,-286.232C758.375,-280.572 750.447,-273.122 742.5,-267.806 711.1,-246.801 698.998,-249.272 665.5,-231.806 657.244,-227.501 648.346,-222.459 640.596,-217.93"/>
<polygon fill="green" stroke="green" stroke-width="0.264384" points="642.221,-214.824 631.833,-212.744 638.656,-220.849 642.221,-214.824"/>
</g>
<!-- &#45;10&#45;&gt;3 -->
<g id="edge12" class="edge"><title>&#45;10&#45;&gt;3</title>
<path fill="none" stroke="red" stroke-width="0.358075" d="M763.933,-286.156C750.819,-271.898 723.587,-242.289 705.949,-223.113"/>
<polygon fill="red" stroke="red" stroke-width="0.358075" points="708.393,-220.6 699.047,-215.609 703.24,-225.338 708.393,-220.6"/>
</g>
<!-- &#45;11 -->
<g id="node11" class="node"><title>&#45;11</title>
<polygon fill="lightgray" stroke="black" points="205,-304.383 176,-304.383 176,-286.383 205,-286.383 205,-304.383"/>
<text text-anchor="middle" x="190.5" y="-293.183" font-family="Times,serif" font-size="9.00">&#45;11</text>
</g>
<!-- &#45;11&#45;&gt;0 -->
<g id="edge18" class="edge"><title>&#45;11&#45;&gt;0</title>
<path fill="none" stroke="red" stroke-width="0.626056" stroke-dasharray="1,5" d="M195.44,-286.015C199.495,-279.936 205.811,-272.059 213.5,-267.806 217.736,-265.463 507.068,-222.046 594.652,-208.942"/>
<polygon fill="red" stroke="red" stroke-width="0.626056" points="595.372,-212.374 604.745,-207.433 594.337,-205.451 595.372,-212.374"/>
</g>
<!-- &#45;11&#45;&gt;2 -->
<g id="edge61" class="edge"><title>&#45;11&#45;&gt;2</title>
<path fill="none" stroke="red" stroke-width="0.340151" stroke-dasharray="1,5" d="M196.085,-285.987C200.291,-280.211 206.515,-272.724 213.5,-267.806 249.742,-242.293 269.99,-256.935 306.5,-231.806 309.656,-229.634 312.683,-226.967 315.461,-224.171"/>
<polygon fill="red" stroke="red" stroke-width="0.340151" points="318.078,-226.494 322.147,-216.712 312.866,-221.822 318.078,-226.494"/>
</g>
<!-- &#45;11&#45;&gt;8619 -->
<g id="edge8" class="edge"><title>&#45;11&#45;&gt;8619</title>
<path fill="none" stroke="red" stroke-width="0.252827" stroke-dasharray="1,5" d="M187.994,-286.296C180.616,-262.49 158.677,-191.694 145.613,-149.538"/>
<polygon fill="red" stroke="red" stroke-width="0.252827" points="148.879,-148.252 142.576,-139.737 142.193,-150.324 148.879,-148.252"/>
</g>
<!-- &#45;12 -->
<g id="node12" class="node"><title>&#45;12</title>
<polygon fill="lightgray" stroke="black" points="1171,-213.229 1142,-213.229 1142,-195.229 1171,-195.229 1171,-213.229"/>
<text text-anchor="middle" x="1156.5" y="-202.029" font-family="Times,serif" font-size="9.00">&#45;12</text>
</g>
<!-- &#45;12&#45;&gt;1 -->
<g id="edge21" class="edge"><title>&#45;12&#45;&gt;1</title>
<path fill="none" stroke="red" stroke-width="0.189308" stroke-dasharray="1,5" d="M1151.59,-194.799C1147.56,-188.688 1141.25,-180.797 1133.5,-176.652 1054.34,-134.299 770.526,-120.879 683.832,-117.72"/>
<polygon fill="red" stroke="red" stroke-width="0.189308" points="683.718,-114.214 673.602,-117.363 683.473,-121.21 683.718,-114.214"/>
</g>
<!-- &#45;13 -->
<g id="node13" class="node"><title>&#45;13</title>
<polygon fill="lightgray" stroke="black" points="658,-304.383 629,-304.383 629,-286.383 658,-286.383 658,-304.383"/>
<text text-anchor="middle" x="643.5" y="-293.183" font-family="Times,serif" font-size="9.00">&#45;13</text>
</g>
<!-- &#45;13&#45;&gt;0 -->
<g id="edge69" class="edge"><title>&#45;13&#45;&gt;0</title>
<path fill="none" stroke="green" stroke-width="1.09343" d="M641.285,-286.156C637.8,-273.207 630.906,-247.598 625.802,-228.64"/>
<polygon fill="green" stroke="green" stroke-width="1.09343" points="629.163,-227.662 623.184,-218.915 622.404,-229.481 629.163,-227.662"/>
</g>
<!-- &#45;14 -->
<g id="node14" class="node"><title>&#45;14</title>
<polygon fill="lightgray" stroke="black" points="119,-304.383 90,-304.383 90,-286.383 119,-286.383 119,-304.383"/>
<text text-anchor="middle" x="104.5" y="-293.183" font-family="Times,serif" font-size="9.00">&#45;14</text>
</g>
<!-- &#45;14&#45;&gt;1 -->
<g id="edge74" class="edge"><title>&#45;14&#45;&gt;1</title>
<path fill="none" stroke="green" stroke-width="0.127517" stroke-dasharray="1,5" d="M107.786,-286.34C117.215,-264.405 146.656,-203.403 192.5,-176.652 268.595,-132.248 548.108,-120.238 633.534,-117.57"/>
<polygon fill="green" stroke="green" stroke-width="0.127517" points="633.723,-121.066 643.615,-117.272 633.515,-114.07 633.723,-121.066"/>
</g>
<!-- &#45;14&#45;&gt;2 -->
<g id="edge60" class="edge"><title>&#45;14&#45;&gt;2</title>
<path fill="none" stroke="green" stroke-width="0.588532" d="M111.27,-286.148C116.666,-280.139 124.748,-272.29 133.5,-267.806 203.395,-231.994 238.374,-270.879 306.5,-231.806 309.881,-229.867 313.045,-227.284 315.896,-224.489"/>
<polygon fill="green" stroke="green" stroke-width="0.588532" points="318.621,-226.691 322.644,-216.89 313.387,-222.043 318.621,-226.691"/>
</g>
<!-- &#45;14&#45;&gt;8619 -->
<g id="edge58" class="edge"><title>&#45;14&#45;&gt;8619</title>
<path fill="none" stroke="green" stroke-width="0.357614" d="M105.416,-286.35C107.647,-267.247 113.753,-217.642 121.5,-176.652 123.15,-167.924 125.21,-158.543 127.238,-149.861"/>
<polygon fill="green" stroke="green" stroke-width="0.357614" points="130.657,-150.61 129.578,-140.071 123.849,-148.983 130.657,-150.61"/>
</g>
<!-- &#45;15 -->
<g id="node15" class="node"><title>&#45;15</title>
<polygon fill="lightgray" stroke="black" points="29,-304.383 0,-304.383 0,-286.383 29,-286.383 29,-304.383"/>
<text text-anchor="middle" x="14.5" y="-293.183" font-family="Times,serif" font-size="9.00">&#45;15</text>
</g>
<!-- 4550 -->
<g id="node31" class="node"><title>4550</title>
<ellipse fill="white" stroke="black" cx="226.5" cy="-204.229" rx="25" ry="25"/>
<text text-anchor="middle" x="226.5" y="-202.029" font-family="Times,serif" font-size="9.00">4550</text>
</g>
<!-- &#45;15&#45;&gt;4550 -->
<g id="edge36" class="edge"><title>&#45;15&#45;&gt;4550</title>
<path fill="none" stroke="red" stroke-width="0.635787" stroke-dasharray="1,5" d="M20.1426,-286.139C24.5339,-280.284 31.1099,-272.635 38.5,-267.806 86.8742,-236.195 152.715,-219.124 192.269,-211.123"/>
<polygon fill="red" stroke="red" stroke-width="0.635787" points="193.063,-214.535 202.212,-209.192 191.728,-207.663 193.063,-214.535"/>
</g>
<!-- &#45;16 -->
<g id="node16" class="node"><title>&#45;16</title>
<polygon fill="lightgray" stroke="black" points="521,-304.383 492,-304.383 492,-286.383 521,-286.383 521,-304.383"/>
<text text-anchor="middle" x="506.5" y="-293.183" font-family="Times,serif" font-size="9.00">&#45;16</text>
</g>
<!-- &#45;16&#45;&gt;0 -->
<g id="edge25" class="edge"><title>&#45;16&#45;&gt;0</title>
<path fill="none" stroke="red" stroke-width="0.275539" d="M512.856,-285.997C517.224,-280.51 523.33,-273.356 529.5,-267.806 551.167,-248.318 579.115,-229.754 598.077,-217.982"/>
<polygon fill="red" stroke="red" stroke-width="0.275539" points="600.137,-220.825 606.845,-212.625 596.487,-214.852 600.137,-220.825"/>
</g>
<!-- &#45;16&#45;&gt;1 -->
<g id="edge43" class="edge"><title>&#45;16&#45;&gt;1</title>
<path fill="none" stroke="green" stroke-width="0.727425" d="M511.906,-286.32C525.181,-266.736 560.829,-215.425 595.5,-176.652 609.512,-160.982 626.953,-144.654 639.929,-133.035"/>
<polygon fill="green" stroke="green" stroke-width="0.727425" points="642.559,-135.381 647.731,-126.134 637.922,-130.138 642.559,-135.381"/>
</g>
<!-- &#45;17 -->
<g id="node17" class="node"><title>&#45;17</title>
<polygon fill="lightgray" stroke="black" points="298,-213.229 269,-213.229 269,-195.229 298,-195.229 298,-213.229"/>
<text text-anchor="middle" x="283.5" y="-202.029" font-family="Times,serif" font-size="9.00">&#45;17</text>
</g>
<!-- &#45;17&#45;&gt;1 -->
<g id="edge63" class="edge"><title>&#45;17&#45;&gt;1</title>
<path fill="none" stroke="red" stroke-width="0.236025" stroke-dasharray="1,5" d="M288.458,-194.894C292.523,-188.833 298.843,-180.963 306.5,-176.652 363.025,-144.827 562.417,-125.102 633.278,-118.965"/>
<polygon fill="red" stroke="red" stroke-width="0.236025" points="633.838,-122.43 643.506,-118.097 633.246,-115.455 633.838,-122.43"/>
</g>
<!-- &#45;18 -->
<g id="node18" class="node"><title>&#45;18</title>
<polygon fill="lightgray" stroke="black" points="568,-304.383 539,-304.383 539,-286.383 568,-286.383 568,-304.383"/>
<text text-anchor="middle" x="553.5" y="-293.183" font-family="Times,serif" font-size="9.00">&#45;18</text>
</g>
<!-- &#45;18&#45;&gt;0 -->
<g id="edge33" class="edge"><title>&#45;18&#45;&gt;0</title>
<path fill="none" stroke="red" stroke-width="0.10775" stroke-dasharray="1,5" d="M559.591,-286.156C569.83,-272.324 590.764,-244.047 604.967,-224.861"/>
<polygon fill="red" stroke="red" stroke-width="0.10775" points="607.819,-226.89 610.956,-216.77 602.193,-222.725 607.819,-226.89"/>
</g>
<!-- &#45;18&#45;&gt;2 -->
<g id="edge30" class="edge"><title>&#45;18&#45;&gt;2</title>
<path fill="none" stroke="red" stroke-width="0.374601" d="M548.171,-286.176C543.849,-280.181 537.22,-272.339 529.5,-267.806 467.764,-231.563 438.582,-259.34 372.5,-231.806 364.943,-228.657 357.219,-224.192 350.489,-219.819"/>
<polygon fill="red" stroke="red" stroke-width="0.374601" points="352.269,-216.796 342.038,-214.044 348.32,-222.576 352.269,-216.796"/>
</g>
<!-- &#45;18&#45;&gt;3 -->
<g id="edge48" class="edge"><title>&#45;18&#45;&gt;3</title>
<path fill="none" stroke="green" stroke-width="0.14266" stroke-dasharray="1,5" d="M559.608,-286.278C564.129,-280.639 570.666,-273.196 577.5,-267.806 603.735,-247.114 614.365,-248.165 643.5,-231.806 651.619,-227.247 660.488,-222.151 668.253,-217.65"/>
<polygon fill="green" stroke="green" stroke-width="0.14266" points="670.168,-220.585 677.052,-212.531 666.648,-214.534 670.168,-220.585"/>
</g>
<!-- &#45;19 -->
<g id="node19" class="node"><title>&#45;19</title>
<polygon fill="lightgray" stroke="black" points="427,-304.383 398,-304.383 398,-286.383 427,-286.383 427,-304.383"/>
<text text-anchor="middle" x="412.5" y="-293.183" font-family="Times,serif" font-size="9.00">&#45;19</text>
</g>
<!-- &#45;19&#45;&gt;0 -->
<g id="edge52" class="edge"><title>&#45;19&#45;&gt;0</title>
<path fill="none" stroke="green" stroke-width="0.338807" stroke-dasharray="1,5" d="M417.845,-286.145C422.022,-280.294 428.313,-272.646 435.5,-267.806 486.446,-233.501 557.972,-216.342 595.053,-209.291"/>
<polygon fill="green" stroke="green" stroke-width="0.338807" points="595.759,-212.72 604.974,-207.491 594.509,-205.832 595.759,-212.72"/>
</g>
<!-- &#45;19&#45;&gt;2 -->
<g id="edge16" class="edge"><title>&#45;19&#45;&gt;2</title>
<path fill="none" stroke="red" stroke-width="0.230066" stroke-dasharray="1,5" d="M404.933,-286.156C391.819,-271.898 364.587,-242.289 346.949,-223.113"/>
<polygon fill="red" stroke="red" stroke-width="0.230066" points="349.393,-220.6 340.047,-215.609 344.24,-225.338 349.393,-220.6"/>
</g>
<!-- &#45;20 -->
<g id="node20" class="node"><title>&#45;20</title>
<polygon fill="lightgray" stroke="black" points="299,-304.383 270,-304.383 270,-286.383 299,-286.383 299,-304.383"/>
<text text-anchor="middle" x="284.5" y="-293.183" font-family="Times,serif" font-size="9.00">&#45;20</text>
</g>
<!-- &#45;20&#45;&gt;2 -->
<g id="edge1" class="edge"><title>&#45;20&#45;&gt;2</title>
<path fill="none" stroke="green" stroke-width="0.795946" stroke-dasharray="1,5" d="M288.745,-286.156C295.671,-272.732 309.617,-245.703 319.482,-226.583"/>
<polygon fill="green" stroke="green" stroke-width="0.795946" points="322.605,-228.164 324.08,-217.672 316.384,-224.954 322.605,-228.164"/>
</g>
<!-- &#45;20&#45;&gt;4550 -->
<g id="edge41" class="edge"><title>&#45;20&#45;&gt;4550</title>
<path fill="none" stroke="red" stroke-width="0.314907" stroke-dasharray="1,5" d="M279.147,-286.156C271.484,-274.375 257.002,-252.115 245.164,-233.919"/>
<polygon fill="red" stroke="red" stroke-width="0.314907" points="247.994,-231.85 239.607,-225.376 242.126,-235.667 247.994,-231.85"/>
</g>
<!-- &#45;20&#45;&gt;6941 -->
<g id="edge29" class="edge"><title>&#45;20&#45;&gt;6941</title>
<path fill="none" stroke="green" stroke-width="0.116079" d="M289.272,-286.291C293.465,-280.018 300.188,-271.752 308.5,-267.806 453.024,-199.207 870.769,-263.874 1027.5,-231.806 1041.1,-229.024 1055.55,-224.107 1067.91,-219.252"/>
<polygon fill="green" stroke="green" stroke-width="0.116079" points="1069.38,-222.432 1077.32,-215.413 1066.73,-215.95 1069.38,-222.432"/>
</g>
<!-- &#45;21 -->
<g id="node21" class="node"><title>&#45;21</title>
<polygon fill="lightgray" stroke="black" points="252,-304.383 223,-304.383 223,-286.383 252,-286.383 252,-304.383"/>
<text text-anchor="middle" x="237.5" y="-293.183" font-family="Times,serif" font-size="9.00">&#45;21</text>
</g>
<!-- &#45;21&#45;&gt;0 -->
<g id="edge24" class="edge"><title>&#45;21&#45;&gt;0</title>
<path fill="none" stroke="green" stroke-width="3.54735" d="M242.464,-286.058C246.531,-280.002 252.853,-272.134 260.5,-267.806 275.224,-259.473 516.058,-221.365 594.802,-209.067"/>
<polygon fill="green" stroke="green" stroke-width="3.54735" points="595.455,-212.508 604.797,-207.509 594.377,-205.591 595.455,-212.508"/>
</g>
<!-- &#45;21&#45;&gt;2 -->
<g id="edge59" class="edge"><title>&#45;21&#45;&gt;2</title>
<path fill="none" stroke="red" stroke-width="0.24698" d="M243.961,-286.11C248.373,-280.671 254.489,-273.528 260.5,-267.806 279.304,-249.907 287.508,-249.506 306.5,-231.806 309.173,-229.315 311.885,-226.566 314.475,-223.81"/>
<polygon fill="red" stroke="red" stroke-width="0.24698" points="317.218,-225.995 321.325,-216.229 312.024,-221.302 317.218,-225.995"/>
</g>
<!-- &#45;21&#45;&gt;4550 -->
<g id="edge10" class="edge"><title>&#45;21&#45;&gt;4550</title>
<path fill="none" stroke="red" stroke-width="0.764501" d="M236.485,-286.156C235.172,-275.518 232.805,-256.334 230.705,-239.314"/>
<polygon fill="red" stroke="red" stroke-width="0.764501" points="234.142,-238.588 229.444,-229.091 227.195,-239.445 234.142,-238.588"/>
</g>
<!-- &#45;22 -->
<g id="node22" class="node"><title>&#45;22</title>
<polygon fill="lightgray" stroke="black" points="474,-304.383 445,-304.383 445,-286.383 474,-286.383 474,-304.383"/>
<text text-anchor="middle" x="459.5" y="-293.183" font-family="Times,serif" font-size="9.00">&#45;22</text>
</g>
<!-- &#45;22&#45;&gt;1 -->
<g id="edge27" class="edge"><title>&#45;22&#45;&gt;1</title>
<path fill="none" stroke="red" stroke-width="0.100721" stroke-dasharray="1,5" d="M463.949,-286.307C475.565,-265.798 508.684,-210.912 548.5,-176.652 575.047,-153.809 611.761,-136.048 635.322,-126.024"/>
<polygon fill="red" stroke="red" stroke-width="0.100721" points="636.937,-129.144 644.842,-122.09 634.264,-122.674 636.937,-129.144"/>
</g>
<!-- &#45;22&#45;&gt;2 -->
<g id="edge53" class="edge"><title>&#45;22&#45;&gt;2</title>
<path fill="none" stroke="green" stroke-width="0.110264" stroke-dasharray="1,5" d="M453.359,-286.32C448.822,-280.7 442.28,-273.264 435.5,-267.806 410.378,-247.585 400.133,-248.433 372.5,-231.806 365.485,-227.585 357.901,-222.843 351.133,-218.545"/>
<polygon fill="green" stroke="green" stroke-width="0.110264" points="352.851,-215.489 342.541,-213.05 349.08,-221.386 352.851,-215.489"/>
</g>
<!-- &#45;22&#45;&gt;3 -->
<g id="edge72" class="edge"><title>&#45;22&#45;&gt;3</title>
<path fill="none" stroke="red" stroke-width="0.280736" stroke-dasharray="1,5" d="M464.524,-286.162C468.623,-280.16 474.958,-272.314 482.5,-267.806 545.438,-230.19 575.191,-258.454 643.5,-231.806 652.174,-228.422 661.161,-223.574 668.864,-218.943"/>
<polygon fill="red" stroke="red" stroke-width="0.280736" points="670.906,-221.794 677.517,-213.514 667.186,-215.864 670.906,-221.794"/>
</g>
<!-- &#45;23 -->
<g id="node23" class="node"><title>&#45;23</title>
<polygon fill="lightgray" stroke="black" points="1142,-644.767 1113,-644.767 1113,-626.767 1142,-626.767 1142,-644.767"/>
<text text-anchor="middle" x="1127.5" y="-633.567" font-family="Times,serif" font-size="9.00">&#45;23</text>
</g>
<!-- 11010 -->
<g id="node30" class="node"><title>11010</title>
<ellipse fill="white" stroke="black" cx="1099.5" cy="-563.189" rx="27.6545" ry="27.6545"/>
<text text-anchor="middle" x="1099.5" y="-560.989" font-family="Times,serif" font-size="9.00">11010</text>
</g>
<!-- &#45;23&#45;&gt;11010 -->
<g id="edge38" class="edge"><title>&#45;23&#45;&gt;11010</title>
<path fill="none" stroke="red" stroke-width="0.211559" d="M1124.29,-626.67C1121.52,-619.685 1117.31,-609.091 1113.15,-598.601"/>
<polygon fill="red" stroke="red" stroke-width="0.211559" points="1116.33,-597.108 1109.38,-589.103 1109.82,-599.689 1116.33,-597.108"/>
</g>
<!-- &#45;23&#45;&gt;9899 -->
<g id="edge65" class="edge"><title>&#45;23&#45;&gt;9899</title>
<path fill="none" stroke="red" stroke-width="0.511639" stroke-dasharray="1,5" d="M1130.2,-626.613C1135.47,-609.426 1145.82,-568.364 1136.5,-535.612 1133.23,-524.112 1127.04,-512.661 1120.65,-502.906"/>
<polygon fill="red" stroke="red" stroke-width="0.511639" points="1123.37,-500.694 1114.79,-494.472 1117.62,-504.684 1123.37,-500.694"/>
</g>
<!-- &#45;24 -->
<g id="node24" class="node"><title>&#45;24</title>
<polygon fill="lightgray" stroke="black" points="1029,-304.383 1000,-304.383 1000,-286.383 1029,-286.383 1029,-304.383"/>
<text text-anchor="middle" x="1014.5" y="-293.183" font-family="Times,serif" font-size="9.00">&#45;24</text>
</g>
<!-- &#45;24&#45;&gt;0 -->
<g id="edge3" class="edge"><title>&#45;24&#45;&gt;0</title>
<path fill="none" stroke="green" stroke-width="0.485605" stroke-dasharray="1,5" d="M1009.31,-285.917C1005.07,-279.786 998.468,-271.887 990.5,-267.806 861.149,-201.56 803.582,-277.123 665.5,-231.806 656.653,-228.903 647.63,-224.156 639.946,-219.472"/>
<polygon fill="green" stroke="green" stroke-width="0.485605" points="641.639,-216.398 631.339,-213.916 637.843,-222.28 641.639,-216.398"/>
</g>
<!-- &#45;24&#45;&gt;6941 -->
<g id="edge7" class="edge"><title>&#45;24&#45;&gt;6941</title>
<path fill="none" stroke="green" stroke-width="0.439232" d="M1021.99,-285.93C1026.68,-280.67 1032.88,-273.791 1038.5,-267.806 1050.51,-255.009 1064.12,-241.001 1075.43,-229.49"/>
<polygon fill="green" stroke="green" stroke-width="0.439232" points="1077.97,-231.902 1082.49,-222.323 1072.98,-226.989 1077.97,-231.902"/>
</g>
<!-- 1&#45;&gt;1 -->
<g id="edge31" class="edge"><title>1&#45;&gt;1</title>
<path fill="none" stroke="red" stroke-width="0.307415" stroke-dasharray="1,5" d="M667.581,-127.746C678.512,-136.695 691.349,-132.747 691.349,-115.903 691.349,-103.665 684.573,-98.2347 676.674,-99.6121"/>
<polygon fill="red" stroke="red" stroke-width="0.307415" points="675.026,-96.5219 667.581,-104.06 678.101,-102.81 675.026,-96.5219"/>
</g>
<!-- 11198 -->
<g id="node41" class="node"><title>11198</title>
<ellipse fill="white" stroke="black" cx="658.5" cy="-27.5772" rx="27.6545" ry="27.6545"/>
<text text-anchor="middle" x="658.5" y="-25.3772" font-family="Times,serif" font-size="9.00">11198</text>
</g>
<!-- 1&#45;&gt;11198 -->
<g id="edge50" class="edge"><title>1&#45;&gt;11198</title>
<path fill="none" stroke="green" stroke-width="0.358635" d="M653.491,-101.792C652.089,-91.9666 651.534,-78.0167 651.825,-64.9249"/>
<polygon fill="green" stroke="green" stroke-width="0.358635" points="655.332,-64.8387 652.241,-54.7047 648.337,-64.5543 655.332,-64.8387"/>
</g>
<!-- 2&#45;&gt;2 -->
<g id="edge28" class="edge"><title>2&#45;&gt;2</title>
<path fill="none" stroke="red" stroke-width="0.454277" d="M339.581,-216.072C350.512,-225.02 363.349,-221.073 363.349,-204.229 363.349,-191.991 356.573,-186.561 348.674,-187.938"/>
<polygon fill="red" stroke="red" stroke-width="0.454277" points="347.026,-184.848 339.581,-192.386 350.101,-191.136 347.026,-184.848"/>
</g>
<!-- 3&#45;&gt;3 -->
<g id="edge17" class="edge"><title>3&#45;&gt;3</title>
<path fill="none" stroke="green" stroke-width="0.156113" d="M698.581,-216.072C709.512,-225.02 722.349,-221.073 722.349,-204.229 722.349,-191.991 715.573,-186.561 707.674,-187.938"/>
<polygon fill="green" stroke="green" stroke-width="0.156113" points="706.026,-184.848 698.581,-192.386 709.101,-191.136 706.026,-184.848"/>
</g>
<!-- 10337&#45;&gt;1 -->
<g id="edge9" class="edge"><title>10337&#45;&gt;1</title>
<path fill="none" stroke="green" stroke-width="0.238702" stroke-dasharray="1,5" d="M746.225,-186.38C726.346,-170.636 696.931,-147.339 677.738,-132.139"/>
<polygon fill="green" stroke="green" stroke-width="0.238702" points="679.723,-129.246 669.711,-125.782 675.377,-134.734 679.723,-129.246"/>
</g>
<!-- 11010&#45;&gt;9899 -->
<g id="edge40" class="edge"><title>11010&#45;&gt;9899</title>
<path fill="none" stroke="red" stroke-width="0.510894" d="M1099.5,-535.349C1099.5,-527.255 1099.5,-518.265 1099.5,-509.775"/>
<polygon fill="red" stroke="red" stroke-width="0.510894" points="1103,-509.761 1099.5,-499.761 1096,-509.761 1103,-509.761"/>
</g>
<!-- 4550&#45;&gt;1 -->
<g id="edge20" class="edge"><title>4550&#45;&gt;1</title>
<path fill="none" stroke="green" stroke-width="0.15158" stroke-dasharray="1,5" d="M243.856,-186.443C248.605,-182.672 253.976,-179.075 259.5,-176.652 391.385,-118.808 568.797,-115.338 633.534,-116.213"/>
<polygon fill="green" stroke="green" stroke-width="0.15158" points="633.545,-119.714 643.608,-116.399 633.674,-112.715 633.545,-119.714"/>
</g>
<!-- 4550&#45;&gt;8619 -->
<g id="edge64" class="edge"><title>4550&#45;&gt;8619</title>
<path fill="none" stroke="red" stroke-width="0.318812" stroke-dasharray="1,5" d="M208.954,-186.584C195.232,-173.567 175.972,-155.296 160.616,-140.729"/>
<polygon fill="red" stroke="red" stroke-width="0.318812" points="162.656,-137.84 152.992,-133.496 157.838,-142.918 162.656,-137.84"/>
</g>
<!-- 10790&#45;&gt;3 -->
<g id="edge54" class="edge"><title>10790&#45;&gt;3</title>
<path fill="none" stroke="red" stroke-width="0.665607" d="M809.864,-278.236C804.888,-274.693 799.568,-271.038 794.5,-267.806 766.983,-250.26 758.429,-248.69 730.5,-231.806 723.867,-227.796 716.745,-223.263 710.329,-219.09"/>
<polygon fill="red" stroke="red" stroke-width="0.665607" points="711.853,-215.904 701.573,-213.339 708.01,-221.754 711.853,-215.904"/>
</g>
<!-- 10026&#45;&gt;1 -->
<g id="edge37" class="edge"><title>10026&#45;&gt;1</title>
<path fill="none" stroke="green" stroke-width="0.274068" d="M895.075,-187.329C888.929,-183.453 882.129,-179.584 875.5,-176.652 808.743,-147.125 723.864,-128.875 682.858,-121.167"/>
<polygon fill="green" stroke="green" stroke-width="0.274068" points="683.428,-117.713 672.96,-119.353 682.165,-124.598 683.428,-117.713"/>
</g>
<!-- 9899&#45;&gt;2 -->
<g id="edge73" class="edge"><title>9899&#45;&gt;2</title>
<path fill="none" stroke="red" stroke-width="0.601538" d="M1074.62,-473.956C938.762,-473.888 288.282,-466.022 166.5,-322.96 150.611,-304.295 151.479,-287.178 166.5,-267.806 205.868,-217.034 251.528,-265.058 306.5,-231.806 309.778,-229.823 312.869,-227.255 315.672,-224.498"/>
<polygon fill="red" stroke="red" stroke-width="0.601538" points="318.293,-226.818 322.354,-217.032 313.077,-222.15 318.293,-226.818"/>
</g>
<!-- 10899 -->
<g id="node39" class="node"><title>10899</title>
<ellipse fill="white" stroke="black" cx="1155.5" cy="-386.538" rx="27.6545" ry="27.6545"/>
<text text-anchor="middle" x="1155.5" y="-384.338" font-family="Times,serif" font-size="9.00">10899</text>
</g>
<!-- 9899&#45;&gt;10899 -->
<g id="edge62" class="edge"><title>9899&#45;&gt;10899</title>
<path fill="none" stroke="green" stroke-width="0.586044" d="M1112.77,-453.405C1119.52,-442.996 1127.87,-430.123 1135.4,-418.527"/>
<polygon fill="green" stroke="green" stroke-width="0.586044" points="1138.44,-420.265 1140.95,-409.971 1132.57,-416.455 1138.44,-420.265"/>
</g>
<!-- 9899&#45;&gt;6941 -->
<g id="edge6" class="edge"><title>9899&#45;&gt;6941</title>
<path fill="none" stroke="red" stroke-width="0.438431" stroke-dasharray="1,5" d="M1099.5,-450.024C1099.5,-402.232 1099.5,-294.567 1099.5,-239.33"/>
<polygon fill="red" stroke="red" stroke-width="0.438431" points="1103,-239.015 1099.5,-229.015 1096,-239.015 1103,-239.015"/>
</g>
<!-- 10155&#45;&gt;1 -->
<g id="edge44" class="edge"><title>10155&#45;&gt;1</title>
<path fill="none" stroke="green" stroke-width="0.141374" d="M969.753,-185.565C964.98,-182.187 959.755,-178.983 954.5,-176.652 860.101,-134.772 735.715,-121.966 683.386,-118.288"/>
<polygon fill="green" stroke="green" stroke-width="0.141374" points="683.556,-114.792 673.35,-117.634 683.101,-121.777 683.556,-114.792"/>
</g>
<!-- 11118 -->
<g id="node37" class="node"><title>11118</title>
<ellipse fill="white" stroke="black" cx="1155.5" cy="-295.383" rx="27.6545" ry="27.6545"/>
<text text-anchor="middle" x="1155.5" y="-293.183" font-family="Times,serif" font-size="9.00">11118</text>
</g>
<!-- 11118&#45;&gt;6941 -->
<g id="edge32" class="edge"><title>11118&#45;&gt;6941</title>
<path fill="none" stroke="red" stroke-width="0.198596" d="M1141.08,-271.424C1134,-260.159 1125.4,-246.463 1117.86,-234.459"/>
<polygon fill="red" stroke="red" stroke-width="0.198596" points="1120.63,-232.284 1112.34,-225.678 1114.7,-236.007 1120.63,-232.284"/>
</g>
<!-- 4017 -->
<g id="node38" class="node"><title>4017</title>
<ellipse fill="white" stroke="black" cx="406.5" cy="-204.229" rx="25" ry="25"/>
<text text-anchor="middle" x="406.5" y="-202.029" font-family="Times,serif" font-size="9.00">4017</text>
</g>
<!-- 4017&#45;&gt;1 -->
<g id="edge68" class="edge"><title>4017&#45;&gt;1</title>
<path fill="none" stroke="green" stroke-width="0.19923" stroke-dasharray="1,5" d="M425.596,-188.4C431.708,-184.162 438.667,-179.834 445.5,-176.652 510.241,-146.502 593.312,-128.628 633.926,-121.103"/>
<polygon fill="green" stroke="green" stroke-width="0.19923" points="634.758,-124.51 643.98,-119.293 633.518,-117.621 634.758,-124.51"/>
</g>
<!-- 10899&#45;&gt;11118 -->
<g id="edge56" class="edge"><title>10899&#45;&gt;11118</title>
<path fill="none" stroke="green" stroke-width="0.171365" d="M1155.5,-358.788C1155.5,-350.766 1155.5,-341.822 1155.5,-333.267"/>
<polygon fill="green" stroke="green" stroke-width="0.171365" points="1159,-333.114 1155.5,-323.114 1152,-333.114 1159,-333.114"/>
</g>
<!-- 10899&#45;&gt;6941 -->
<g id="edge19" class="edge"><title>10899&#45;&gt;6941</title>
<path fill="none" stroke="red" stroke-width="0.780544" stroke-dasharray="1,5" d="M1172.16,-364.056C1188.93,-339.602 1210.01,-299.007 1192.5,-267.806 1177.46,-241.019 1158.75,-249.294 1133.5,-231.806 1131.13,-230.167 1128.71,-228.42 1126.3,-226.636"/>
<polygon fill="red" stroke="red" stroke-width="0.780544" points="1128.35,-223.795 1118.27,-220.525 1124.11,-229.366 1128.35,-223.795"/>
</g>
<!-- 11198&#45;&gt;1 -->
<g id="edge55" class="edge"><title>11198&#45;&gt;1</title>
<path fill="none" stroke="green" stroke-width="0.451366" d="M664.759,-54.7047C665.474,-66.4954 665.408,-80.3062 664.561,-91.7233"/>
<polygon fill="green" stroke="green" stroke-width="0.451366" points="661.067,-91.4825 663.509,-101.792 668.029,-92.2097 661.067,-91.4825"/>
</g>
</g>
</svg>
