<?xml version="1.0" encoding="UTF-8" standalone="no"?>
<!DOCTYPE svg PUBLIC "-//W3C//DTD SVG 1.1//EN"
 "http://www.w3.org/Graphics/SVG/1.1/DTD/svg11.dtd">
<!-- Generated by graphviz version 2.38.0 (20140413.2041)
 -->
<!-- Title: %3 Pages: 1 -->
<svg width="1874pt" height="513pt"
 viewBox="0.00 0.00 1873.60 513.27" xmlns="http://www.w3.org/2000/svg" xmlns:xlink="http://www.w3.org/1999/xlink">
<g id="graph0" class="graph" transform="scale(1 1) rotate(0) translate(4 509.269)">
<title>%3</title>
<polygon fill="white" stroke="none" points="-4,4 -4,-509.269 1869.6,-509.269 1869.6,4 -4,4"/>
<!-- &#45;1 -->
<g id="node1" class="node"><title>&#45;1</title>
<polygon fill="lightgray" stroke="black" points="959.749,-486.692 935.749,-486.692 935.749,-468.692 959.749,-468.692 959.749,-486.692"/>
<text text-anchor="middle" x="947.749" y="-475.492" font-family="Times,serif" font-size="9.00">&#45;1</text>
</g>
<!-- 14752 -->
<g id="node34" class="node"><title>14752</title>
<ellipse fill="white" stroke="black" cx="985.749" cy="-113.075" rx="27.6545" ry="27.6545"/>
<text text-anchor="middle" x="985.749" y="-110.875" font-family="Times,serif" font-size="9.00">14752</text>
</g>
<!-- &#45;1&#45;&gt;14752 -->
<g id="edge17" class="edge"><title>&#45;1&#45;&gt;14752</title>
<path fill="none" stroke="red" stroke-width="0.215027" d="M948.614,-468.437C953.044,-426.163 973.313,-232.743 981.894,-150.861"/>
<polygon fill="red" stroke="red" stroke-width="0.215027" points="985.415,-150.84 982.976,-140.53 978.453,-150.111 985.415,-150.84"/>
</g>
<!-- 9931 -->
<g id="node41" class="node"><title>9931</title>
<ellipse fill="white" stroke="black" cx="904.749" cy="-295.383" rx="25" ry="25"/>
<text text-anchor="middle" x="904.749" y="-293.183" font-family="Times,serif" font-size="9.00">9931</text>
</g>
<!-- &#45;1&#45;&gt;9931 -->
<g id="edge9" class="edge"><title>&#45;1&#45;&gt;9931</title>
<path fill="none" stroke="green" stroke-width="0.292106" d="M946.893,-468.589C944.747,-449.335 938.525,-399.43 927.749,-358.96 925.001,-348.642 921.247,-337.635 917.569,-327.774"/>
<polygon fill="green" stroke="green" stroke-width="0.292106" points="920.808,-326.445 913.956,-318.364 914.273,-328.954 920.808,-326.445"/>
</g>
<!-- 10472 -->
<g id="node46" class="node"><title>10472</title>
<ellipse fill="white" stroke="black" cx="844.749" cy="-386.538" rx="27.6545" ry="27.6545"/>
<text text-anchor="middle" x="844.749" y="-384.338" font-family="Times,serif" font-size="9.00">10472</text>
</g>
<!-- &#45;1&#45;&gt;10472 -->
<g id="edge31" class="edge"><title>&#45;1&#45;&gt;10472</title>
<path fill="none" stroke="green" stroke-width="0.134621" d="M938.243,-468.464C923.518,-455.718 894.618,-430.703 872.827,-411.841"/>
<polygon fill="green" stroke="green" stroke-width="0.134621" points="875.011,-409.103 865.16,-405.205 870.43,-414.396 875.011,-409.103"/>
</g>
<!-- &#45;2 -->
<g id="node2" class="node"><title>&#45;2</title>
<polygon fill="lightgray" stroke="black" points="1001.75,-486.692 977.749,-486.692 977.749,-468.692 1001.75,-468.692 1001.75,-486.692"/>
<text text-anchor="middle" x="989.749" y="-475.492" font-family="Times,serif" font-size="9.00">&#45;2</text>
</g>
<!-- &#45;3 -->
<g id="node3" class="node"><title>&#45;3</title>
<polygon fill="lightgray" stroke="black" points="36.7487,-304.383 12.7487,-304.383 12.7487,-286.383 36.7487,-286.383 36.7487,-304.383"/>
<text text-anchor="middle" x="24.7487" y="-293.183" font-family="Times,serif" font-size="9.00">&#45;3</text>
</g>
<!-- 2197 -->
<g id="node32" class="node"><title>2197</title>
<ellipse fill="white" stroke="black" cx="24.7487" cy="-204.229" rx="25" ry="25"/>
<text text-anchor="middle" x="24.7487" y="-202.029" font-family="Times,serif" font-size="9.00">2197</text>
</g>
<!-- &#45;3&#45;&gt;2197 -->
<g id="edge27" class="edge"><title>&#45;3&#45;&gt;2197</title>
<path fill="none" stroke="green" stroke-width="0.650276" d="M24.7487,-286.156C24.7487,-275.518 24.7487,-256.334 24.7487,-239.314"/>
<polygon fill="green" stroke="green" stroke-width="0.650276" points="28.2488,-239.091 24.7487,-229.091 21.2488,-239.091 28.2488,-239.091"/>
</g>
<!-- &#45;4 -->
<g id="node4" class="node"><title>&#45;4</title>
<polygon fill="lightgray" stroke="black" points="1043.75,-486.692 1019.75,-486.692 1019.75,-468.692 1043.75,-468.692 1043.75,-486.692"/>
<text text-anchor="middle" x="1031.75" y="-475.492" font-family="Times,serif" font-size="9.00">&#45;4</text>
</g>
<!-- &#45;5 -->
<g id="node5" class="node"><title>&#45;5</title>
<polygon fill="lightgray" stroke="black" points="546.749,-395.538 522.749,-395.538 522.749,-377.538 546.749,-377.538 546.749,-395.538"/>
<text text-anchor="middle" x="534.749" y="-384.338" font-family="Times,serif" font-size="9.00">&#45;5</text>
</g>
<!-- 2 -->
<g id="node27" class="node"><title>2</title>
<ellipse fill="lightblue" stroke="black" cx="652.749" cy="-295.383" rx="14.7" ry="14.7"/>
<text text-anchor="middle" x="652.749" y="-293.183" font-family="Times,serif" font-size="9.00">2</text>
</g>
<!-- &#45;5&#45;&gt;2 -->
<g id="edge38" class="edge"><title>&#45;5&#45;&gt;2</title>
<path fill="none" stroke="red" stroke-width="0.871624" d="M546.999,-378.717C565.619,-368.064 601.732,-346.268 628.749,-322.96 631.432,-320.646 634.11,-318.044 636.652,-315.398"/>
<polygon fill="red" stroke="red" stroke-width="0.871624" points="639.623,-317.332 643.741,-307.57 634.434,-312.633 639.623,-317.332"/>
</g>
<!-- 12795 -->
<g id="node51" class="node"><title>12795</title>
<ellipse fill="white" stroke="black" cx="360.749" cy="-295.383" rx="27.6545" ry="27.6545"/>
<text text-anchor="middle" x="360.749" y="-293.183" font-family="Times,serif" font-size="9.00">12795</text>
</g>
<!-- &#45;5&#45;&gt;12795 -->
<g id="edge39" class="edge"><title>&#45;5&#45;&gt;12795</title>
<path fill="none" stroke="red" stroke-width="0.340151" d="M522.633,-380.93C498.257,-371.462 441.854,-348.547 397.749,-322.96 395.474,-321.641 393.166,-320.216 390.872,-318.735"/>
<polygon fill="red" stroke="red" stroke-width="0.340151" points="392.432,-315.564 382.191,-312.851 388.505,-321.358 392.432,-315.564"/>
</g>
<!-- &#45;6 -->
<g id="node6" class="node"><title>&#45;6</title>
<polygon fill="lightgray" stroke="black" points="430.749,-304.383 406.749,-304.383 406.749,-286.383 430.749,-286.383 430.749,-304.383"/>
<text text-anchor="middle" x="418.749" y="-293.183" font-family="Times,serif" font-size="9.00">&#45;6</text>
</g>
<!-- 11577 -->
<g id="node39" class="node"><title>11577</title>
<ellipse fill="white" stroke="black" cx="434.749" cy="-113.075" rx="27.6545" ry="27.6545"/>
<text text-anchor="middle" x="434.749" y="-110.875" font-family="Times,serif" font-size="9.00">11577</text>
</g>
<!-- &#45;6&#45;&gt;11577 -->
<g id="edge14" class="edge"><title>&#45;6&#45;&gt;11577</title>
<path fill="none" stroke="green" stroke-width="0.285782" d="M418.994,-286.371C419.629,-267.314 421.574,-217.801 425.749,-176.652 426.607,-168.19 427.771,-159.117 428.976,-150.578"/>
<polygon fill="green" stroke="green" stroke-width="0.285782" points="432.465,-150.906 430.449,-140.505 425.539,-149.893 432.465,-150.906"/>
</g>
<!-- 10861 -->
<g id="node49" class="node"><title>10861</title>
<ellipse fill="white" stroke="black" cx="312.749" cy="-204.229" rx="27.6545" ry="27.6545"/>
<text text-anchor="middle" x="312.749" y="-202.029" font-family="Times,serif" font-size="9.00">10861</text>
</g>
<!-- &#45;6&#45;&gt;10861 -->
<g id="edge13" class="edge"><title>&#45;6&#45;&gt;10861</title>
<path fill="none" stroke="green" stroke-width="0.288554" d="M413.023,-286.003C409.067,-280.518 403.5,-273.364 397.749,-267.806 381.367,-251.973 360.848,-236.759 344.075,-225.298"/>
<polygon fill="green" stroke="green" stroke-width="0.288554" points="345.94,-222.334 335.687,-219.663 342.036,-228.144 345.94,-222.334"/>
</g>
<!-- &#45;7 -->
<g id="node7" class="node"><title>&#45;7</title>
<polygon fill="lightgray" stroke="black" points="203.749,-304.383 179.749,-304.383 179.749,-286.383 203.749,-286.383 203.749,-304.383"/>
<text text-anchor="middle" x="191.749" y="-293.183" font-family="Times,serif" font-size="9.00">&#45;7</text>
</g>
<!-- 2831 -->
<g id="node31" class="node"><title>2831</title>
<ellipse fill="white" stroke="black" cx="284.749" cy="-113.075" rx="25" ry="25"/>
<text text-anchor="middle" x="284.749" y="-110.875" font-family="Times,serif" font-size="9.00">2831</text>
</g>
<!-- &#45;7&#45;&gt;2831 -->
<g id="edge12" class="edge"><title>&#45;7&#45;&gt;2831</title>
<path fill="none" stroke="green" stroke-width="0.887103" d="M198.713,-286.339C208.41,-274.846 226.098,-252.789 237.749,-231.806 252.986,-204.364 265.833,-170.956 274.224,-146.748"/>
<polygon fill="green" stroke="green" stroke-width="0.887103" points="277.64,-147.575 277.542,-136.981 271.012,-145.324 277.64,-147.575"/>
</g>
<!-- 4505 -->
<g id="node33" class="node"><title>4505</title>
<ellipse fill="white" stroke="black" cx="203.749" cy="-204.229" rx="25" ry="25"/>
<text text-anchor="middle" x="203.749" y="-202.029" font-family="Times,serif" font-size="9.00">4505</text>
</g>
<!-- &#45;7&#45;&gt;4505 -->
<g id="edge21" class="edge"><title>&#45;7&#45;&gt;4505</title>
<path fill="none" stroke="red" stroke-width="0.908182" d="M192.856,-286.156C194.288,-275.518 196.87,-256.334 199.161,-239.314"/>
<polygon fill="red" stroke="red" stroke-width="0.908182" points="202.672,-239.469 200.537,-229.091 195.734,-238.535 202.672,-239.469"/>
</g>
<!-- 6507 -->
<g id="node47" class="node"><title>6507</title>
<ellipse fill="white" stroke="black" cx="734.749" cy="-24.7487" rx="25" ry="25"/>
<text text-anchor="middle" x="734.749" y="-22.5487" font-family="Times,serif" font-size="9.00">6507</text>
</g>
<!-- &#45;7&#45;&gt;6507 -->
<g id="edge10" class="edge"><title>&#45;7&#45;&gt;6507</title>
<path fill="none" stroke="red" stroke-width="0.76767" d="M187.233,-286.119C177.15,-266.517 154.825,-215.914 169.749,-176.652 189.005,-125.991 202.766,-110.696 250.749,-85.4975 329.049,-44.3775 601.893,-30.5799 699.603,-26.8957"/>
<polygon fill="red" stroke="red" stroke-width="0.76767" points="699.968,-30.3848 709.834,-26.5231 699.713,-23.3894 699.968,-30.3848"/>
</g>
<!-- &#45;8 -->
<g id="node8" class="node"><title>&#45;8</title>
<polygon fill="lightgray" stroke="black" points="106.749,-304.383 82.7487,-304.383 82.7487,-286.383 106.749,-286.383 106.749,-304.383"/>
<text text-anchor="middle" x="94.7487" y="-293.183" font-family="Times,serif" font-size="9.00">&#45;8</text>
</g>
<!-- &#45;8&#45;&gt;2197 -->
<g id="edge37" class="edge"><title>&#45;8&#45;&gt;2197</title>
<path fill="none" stroke="green" stroke-width="0.3257" d="M88.2888,-286.156C78.7791,-274.044 60.5719,-250.854 46.0767,-232.393"/>
<polygon fill="green" stroke="green" stroke-width="0.3257" points="48.6509,-230.004 39.7225,-224.3 43.1452,-234.327 48.6509,-230.004"/>
</g>
<!-- &#45;8&#45;&gt;4505 -->
<g id="edge33" class="edge"><title>&#45;8&#45;&gt;4505</title>
<path fill="none" stroke="green" stroke-width="0.313572" d="M104.808,-286.156C121.12,-272.814 153.866,-246.029 177.217,-226.93"/>
<polygon fill="green" stroke="green" stroke-width="0.313572" points="179.517,-229.57 185.042,-220.53 175.085,-224.152 179.517,-229.57"/>
</g>
<!-- 17064 -->
<g id="node37" class="node"><title>17064</title>
<ellipse fill="white" stroke="black" cx="94.7487" cy="-204.229" rx="27.6545" ry="27.6545"/>
<text text-anchor="middle" x="94.7487" y="-202.029" font-family="Times,serif" font-size="9.00">17064</text>
</g>
<!-- &#45;8&#45;&gt;17064 -->
<g id="edge2" class="edge"><title>&#45;8&#45;&gt;17064</title>
<path fill="none" stroke="green" stroke-width="0.667343" d="M94.7487,-286.156C94.7487,-276.184 94.7487,-258.703 94.7487,-242.534"/>
<polygon fill="green" stroke="green" stroke-width="0.667343" points="98.2488,-242.19 94.7487,-232.19 91.2488,-242.19 98.2488,-242.19"/>
</g>
<!-- &#45;9 -->
<g id="node9" class="node"><title>&#45;9</title>
<polygon fill="lightgray" stroke="black" points="1085.75,-486.692 1061.75,-486.692 1061.75,-468.692 1085.75,-468.692 1085.75,-486.692"/>
<text text-anchor="middle" x="1073.75" y="-475.492" font-family="Times,serif" font-size="9.00">&#45;9</text>
</g>
<!-- &#45;10 -->
<g id="node10" class="node"><title>&#45;10</title>
<polygon fill="lightgray" stroke="black" points="1133.25,-486.692 1104.25,-486.692 1104.25,-468.692 1133.25,-468.692 1133.25,-486.692"/>
<text text-anchor="middle" x="1118.75" y="-475.492" font-family="Times,serif" font-size="9.00">&#45;10</text>
</g>
<!-- &#45;11 -->
<g id="node11" class="node"><title>&#45;11</title>
<polygon fill="lightgray" stroke="black" points="1180.25,-486.692 1151.25,-486.692 1151.25,-468.692 1180.25,-468.692 1180.25,-486.692"/>
<text text-anchor="middle" x="1165.75" y="-475.492" font-family="Times,serif" font-size="9.00">&#45;11</text>
</g>
<!-- &#45;12 -->
<g id="node12" class="node"><title>&#45;12</title>
<polygon fill="lightgray" stroke="black" points="919.249,-395.538 890.249,-395.538 890.249,-377.538 919.249,-377.538 919.249,-395.538"/>
<text text-anchor="middle" x="904.749" y="-384.338" font-family="Times,serif" font-size="9.00">&#45;12</text>
</g>
<!-- &#45;12&#45;&gt;9931 -->
<g id="edge7" class="edge"><title>&#45;12&#45;&gt;9931</title>
<path fill="none" stroke="red" stroke-width="0.658167" d="M904.749,-377.31C904.749,-366.672 904.749,-347.488 904.749,-330.468"/>
<polygon fill="red" stroke="red" stroke-width="0.658167" points="908.249,-330.246 904.749,-320.246 901.249,-330.246 908.249,-330.246"/>
</g>
<!-- &#45;13 -->
<g id="node13" class="node"><title>&#45;13</title>
<polygon fill="lightgray" stroke="black" points="1227.25,-486.692 1198.25,-486.692 1198.25,-468.692 1227.25,-468.692 1227.25,-486.692"/>
<text text-anchor="middle" x="1212.75" y="-475.492" font-family="Times,serif" font-size="9.00">&#45;13</text>
</g>
<!-- &#45;14 -->
<g id="node14" class="node"><title>&#45;14</title>
<polygon fill="lightgray" stroke="black" points="375.249,-395.538 346.249,-395.538 346.249,-377.538 375.249,-377.538 375.249,-395.538"/>
<text text-anchor="middle" x="360.749" y="-384.338" font-family="Times,serif" font-size="9.00">&#45;14</text>
</g>
<!-- 7718 -->
<g id="node36" class="node"><title>7718</title>
<ellipse fill="white" stroke="black" cx="594.749" cy="-295.383" rx="25" ry="25"/>
<text text-anchor="middle" x="594.749" y="-293.183" font-family="Times,serif" font-size="9.00">7718</text>
</g>
<!-- &#45;14&#45;&gt;7718 -->
<g id="edge35" class="edge"><title>&#45;14&#45;&gt;7718</title>
<path fill="none" stroke="green" stroke-width="0.281806" d="M375.386,-379.961C412.438,-365.844 510.645,-328.427 562.162,-308.799"/>
<polygon fill="green" stroke="green" stroke-width="0.281806" points="563.712,-311.954 571.811,-305.123 561.22,-305.413 563.712,-311.954"/>
</g>
<!-- 12988 -->
<g id="node40" class="node"><title>12988</title>
<ellipse fill="white" stroke="black" cx="287.749" cy="-295.383" rx="27.6545" ry="27.6545"/>
<text text-anchor="middle" x="287.749" y="-293.183" font-family="Times,serif" font-size="9.00">12988</text>
</g>
<!-- &#45;14&#45;&gt;12988 -->
<g id="edge36" class="edge"><title>&#45;14&#45;&gt;12988</title>
<path fill="none" stroke="green" stroke-width="0.580349" d="M354.012,-377.31C344.401,-365.572 326.271,-343.43 311.401,-325.27"/>
<polygon fill="green" stroke="green" stroke-width="0.580349" points="313.884,-322.778 304.841,-317.258 308.468,-327.212 313.884,-322.778"/>
</g>
<!-- &#45;14&#45;&gt;10861 -->
<g id="edge1" class="edge"><title>&#45;14&#45;&gt;10861</title>
<path fill="none" stroke="green" stroke-width="0.19394" d="M345.984,-382.195C321.105,-375.677 271.516,-358.666 250.749,-322.96 238.425,-301.771 241.42,-290.475 250.749,-267.806 257.289,-251.912 270.036,-237.913 282.279,-227.209"/>
<polygon fill="green" stroke="green" stroke-width="0.19394" points="284.713,-229.737 290.181,-220.663 280.247,-224.346 284.713,-229.737"/>
</g>
<!-- 13815 -->
<g id="node50" class="node"><title>13815</title>
<ellipse fill="white" stroke="black" cx="476.749" cy="-295.383" rx="27.6545" ry="27.6545"/>
<text text-anchor="middle" x="476.749" y="-293.183" font-family="Times,serif" font-size="9.00">13815</text>
</g>
<!-- &#45;14&#45;&gt;13815 -->
<g id="edge40" class="edge"><title>&#45;14&#45;&gt;13815</title>
<path fill="none" stroke="green" stroke-width="0.193623" d="M371.454,-377.31C388.486,-364.22 422.355,-338.189 447.097,-319.173"/>
<polygon fill="green" stroke="green" stroke-width="0.193623" points="449.304,-321.891 455.1,-313.022 445.038,-316.341 449.304,-321.891"/>
</g>
<!-- &#45;14&#45;&gt;12795 -->
<g id="edge44" class="edge"><title>&#45;14&#45;&gt;12795</title>
<path fill="none" stroke="red" stroke-width="0.5121" d="M360.749,-377.31C360.749,-367.338 360.749,-349.857 360.749,-333.688"/>
<polygon fill="red" stroke="red" stroke-width="0.5121" points="364.249,-333.344 360.749,-323.344 357.249,-333.344 364.249,-333.344"/>
</g>
<!-- &#45;15 -->
<g id="node15" class="node"><title>&#45;15</title>
<polygon fill="lightgray" stroke="black" points="1274.25,-486.692 1245.25,-486.692 1245.25,-468.692 1274.25,-468.692 1274.25,-486.692"/>
<text text-anchor="middle" x="1259.75" y="-475.492" font-family="Times,serif" font-size="9.00">&#45;15</text>
</g>
<!-- &#45;16 -->
<g id="node16" class="node"><title>&#45;16</title>
<polygon fill="lightgray" stroke="black" points="1321.25,-486.692 1292.25,-486.692 1292.25,-468.692 1321.25,-468.692 1321.25,-486.692"/>
<text text-anchor="middle" x="1306.75" y="-475.492" font-family="Times,serif" font-size="9.00">&#45;16</text>
</g>
<!-- &#45;17 -->
<g id="node17" class="node"><title>&#45;17</title>
<polygon fill="lightgray" stroke="black" points="1368.25,-486.692 1339.25,-486.692 1339.25,-468.692 1368.25,-468.692 1368.25,-486.692"/>
<text text-anchor="middle" x="1353.75" y="-475.492" font-family="Times,serif" font-size="9.00">&#45;17</text>
</g>
<!-- &#45;18 -->
<g id="node18" class="node"><title>&#45;18</title>
<polygon fill="lightgray" stroke="black" points="1415.25,-486.692 1386.25,-486.692 1386.25,-468.692 1415.25,-468.692 1415.25,-486.692"/>
<text text-anchor="middle" x="1400.75" y="-475.492" font-family="Times,serif" font-size="9.00">&#45;18</text>
</g>
<!-- &#45;19 -->
<g id="node19" class="node"><title>&#45;19</title>
<polygon fill="lightgray" stroke="black" points="1462.25,-486.692 1433.25,-486.692 1433.25,-468.692 1462.25,-468.692 1462.25,-486.692"/>
<text text-anchor="middle" x="1447.75" y="-475.492" font-family="Times,serif" font-size="9.00">&#45;19</text>
</g>
<!-- 13963 -->
<g id="node29" class="node"><title>13963</title>
<ellipse fill="white" stroke="black" cx="1477.75" cy="-386.538" rx="27.6545" ry="27.6545"/>
<text text-anchor="middle" x="1477.75" y="-384.338" font-family="Times,serif" font-size="9.00">13963</text>
</g>
<!-- &#45;19&#45;&gt;13963 -->
<g id="edge15" class="edge"><title>&#45;19&#45;&gt;13963</title>
<path fill="none" stroke="green" stroke-width="0.620164" d="M1450.52,-468.464C1454.03,-458.014 1460.33,-439.317 1465.98,-422.526"/>
<polygon fill="green" stroke="green" stroke-width="0.620164" points="1469.33,-423.531 1469.2,-412.937 1462.7,-421.298 1469.33,-423.531"/>
</g>
<!-- &#45;20 -->
<g id="node20" class="node"><title>&#45;20</title>
<polygon fill="lightgray" stroke="black" points="1582.25,-486.692 1553.25,-486.692 1553.25,-468.692 1582.25,-468.692 1582.25,-486.692"/>
<text text-anchor="middle" x="1567.75" y="-475.492" font-family="Times,serif" font-size="9.00">&#45;20</text>
</g>
<!-- &#45;21 -->
<g id="node21" class="node"><title>&#45;21</title>
<polygon fill="lightgray" stroke="black" points="1629.25,-486.692 1600.25,-486.692 1600.25,-468.692 1629.25,-468.692 1629.25,-486.692"/>
<text text-anchor="middle" x="1614.75" y="-475.492" font-family="Times,serif" font-size="9.00">&#45;21</text>
</g>
<!-- &#45;22 -->
<g id="node22" class="node"><title>&#45;22</title>
<polygon fill="lightgray" stroke="black" points="1676.25,-486.692 1647.25,-486.692 1647.25,-468.692 1676.25,-468.692 1676.25,-486.692"/>
<text text-anchor="middle" x="1661.75" y="-475.492" font-family="Times,serif" font-size="9.00">&#45;22</text>
</g>
<!-- &#45;23 -->
<g id="node23" class="node"><title>&#45;23</title>
<polygon fill="lightgray" stroke="black" points="1723.25,-486.692 1694.25,-486.692 1694.25,-468.692 1723.25,-468.692 1723.25,-486.692"/>
<text text-anchor="middle" x="1708.75" y="-475.492" font-family="Times,serif" font-size="9.00">&#45;23</text>
</g>
<!-- &#45;24 -->
<g id="node24" class="node"><title>&#45;24</title>
<polygon fill="lightgray" stroke="black" points="1770.25,-486.692 1741.25,-486.692 1741.25,-468.692 1770.25,-468.692 1770.25,-486.692"/>
<text text-anchor="middle" x="1755.75" y="-475.492" font-family="Times,serif" font-size="9.00">&#45;24</text>
</g>
<!-- 0 -->
<g id="node25" class="node"><title>0</title>
<ellipse fill="lightblue" stroke="black" cx="1802.75" cy="-477.692" rx="14.7" ry="14.7"/>
<text text-anchor="middle" x="1802.75" y="-475.492" font-family="Times,serif" font-size="9.00">0</text>
</g>
<!-- 1 -->
<g id="node26" class="node"><title>1</title>
<ellipse fill="lightblue" stroke="black" cx="176.749" cy="-24.7487" rx="14.7" ry="14.7"/>
<text text-anchor="middle" x="176.749" y="-22.5487" font-family="Times,serif" font-size="9.00">1</text>
</g>
<!-- 2&#45;&gt;2831 -->
<g id="edge48" class="edge"><title>2&#45;&gt;2831</title>
<path fill="none" stroke="green" stroke-width="0.360747" d="M643.681,-283.265C639.389,-278.295 634.05,-272.51 628.749,-267.806 576.236,-221.214 562.987,-207.137 499.749,-176.652 467.493,-161.103 370.327,-135.528 318.372,-122.408"/>
<polygon fill="green" stroke="green" stroke-width="0.360747" points="319.168,-118.999 308.617,-119.957 317.463,-125.788 319.168,-118.999"/>
</g>
<!-- 16436 -->
<g id="node38" class="node"><title>16436</title>
<ellipse fill="white" stroke="black" cx="762.749" cy="-204.229" rx="27.6545" ry="27.6545"/>
<text text-anchor="middle" x="762.749" y="-202.029" font-family="Times,serif" font-size="9.00">16436</text>
</g>
<!-- 2&#45;&gt;16436 -->
<g id="edge46" class="edge"><title>2&#45;&gt;16436</title>
<path fill="none" stroke="red" stroke-width="0.386037" d="M664.106,-285.178C680.337,-272.023 710.721,-247.397 733.496,-228.938"/>
<polygon fill="red" stroke="red" stroke-width="0.386037" points="735.938,-231.464 741.503,-222.449 731.53,-226.026 735.938,-231.464"/>
</g>
<!-- 2&#45;&gt;6507 -->
<g id="edge6" class="edge"><title>2&#45;&gt;6507</title>
<path fill="none" stroke="red" stroke-width="0.330755" d="M667.444,-292.493C712.521,-286.366 847.321,-265.475 872.749,-231.806 923.137,-165.087 817.676,-81.0218 763.811,-44.3168"/>
<polygon fill="red" stroke="red" stroke-width="0.330755" points="765.587,-41.294 755.331,-38.6382 761.693,-47.1105 765.587,-41.294"/>
</g>
<!-- 2&#45;&gt;10861 -->
<g id="edge34" class="edge"><title>2&#45;&gt;10861</title>
<path fill="none" stroke="green" stroke-width="0.200012" d="M644.94,-282.64C640.766,-277.286 635.166,-271.361 628.749,-267.806 548.597,-223.402 515.492,-250.303 425.749,-231.806 400.189,-226.538 371.574,-219.799 349.535,-214.426"/>
<polygon fill="green" stroke="green" stroke-width="0.200012" points="350.143,-210.971 339.597,-211.987 348.475,-217.769 350.143,-210.971"/>
</g>
<!-- 3 -->
<g id="node28" class="node"><title>3</title>
<ellipse fill="lightblue" stroke="black" cx="1850.75" cy="-477.692" rx="14.7" ry="14.7"/>
<text text-anchor="middle" x="1850.75" y="-475.492" font-family="Times,serif" font-size="9.00">3</text>
</g>
<!-- 13327 -->
<g id="node30" class="node"><title>13327</title>
<ellipse fill="white" stroke="black" cx="1507.75" cy="-477.692" rx="27.6545" ry="27.6545"/>
<text text-anchor="middle" x="1507.75" y="-475.492" font-family="Times,serif" font-size="9.00">13327</text>
</g>
<!-- 13327&#45;&gt;13963 -->
<g id="edge18" class="edge"><title>13327&#45;&gt;13963</title>
<path fill="none" stroke="green" stroke-width="0.362051" d="M1499.23,-451.382C1496.22,-442.442 1492.78,-432.221 1489.55,-422.616"/>
<polygon fill="green" stroke="green" stroke-width="0.362051" points="1492.79,-421.272 1486.29,-412.91 1486.16,-423.505 1492.79,-421.272"/>
</g>
<!-- 2831&#45;&gt;1 -->
<g id="edge8" class="edge"><title>2831&#45;&gt;1</title>
<path fill="none" stroke="red" stroke-width="0.28236" d="M265.689,-96.84C246.066,-81.1551 215.655,-56.8474 195.973,-41.1146"/>
<polygon fill="red" stroke="red" stroke-width="0.28236" points="198.006,-38.2589 188.009,-34.7492 193.635,-43.7268 198.006,-38.2589"/>
</g>
<!-- 2197&#45;&gt;1 -->
<g id="edge41" class="edge"><title>2197&#45;&gt;1</title>
<path fill="none" stroke="green" stroke-width="0.814563" d="M40.4429,-184.904C69.5318,-150.939 131.517,-78.5632 160.798,-44.3735"/>
<polygon fill="green" stroke="green" stroke-width="0.814563" points="163.651,-46.4225 167.498,-36.5506 158.335,-41.8691 163.651,-46.4225"/>
</g>
<!-- 4505&#45;&gt;2831 -->
<g id="edge25" class="edge"><title>4505&#45;&gt;2831</title>
<path fill="none" stroke="red" stroke-width="1.33112" d="M220.14,-185.187C231.998,-172.136 248.19,-154.314 261.397,-139.777"/>
<polygon fill="red" stroke="red" stroke-width="1.33112" points="264.248,-141.845 268.382,-132.09 259.067,-137.137 264.248,-141.845"/>
</g>
<!-- 14752&#45;&gt;6507 -->
<g id="edge23" class="edge"><title>14752&#45;&gt;6507</title>
<path fill="none" stroke="red" stroke-width="0.689737" d="M963.305,-96.2184C957.159,-92.3422 950.363,-88.4618 943.749,-85.4975 884.857,-59.1049 811.384,-41.3115 769.089,-32.4058"/>
<polygon fill="red" stroke="red" stroke-width="0.689737" points="769.536,-28.9245 759.036,-30.3333 768.123,-35.7803 769.536,-28.9245"/>
</g>
<!-- 12709 -->
<g id="node35" class="node"><title>12709</title>
<ellipse fill="white" stroke="black" cx="835.749" cy="-204.229" rx="27.6545" ry="27.6545"/>
<text text-anchor="middle" x="835.749" y="-202.029" font-family="Times,serif" font-size="9.00">12709</text>
</g>
<!-- 11243 -->
<g id="node48" class="node"><title>11243</title>
<ellipse fill="white" stroke="black" cx="706.749" cy="-113.075" rx="27.6545" ry="27.6545"/>
<text text-anchor="middle" x="706.749" y="-110.875" font-family="Times,serif" font-size="9.00">11243</text>
</g>
<!-- 12709&#45;&gt;11243 -->
<g id="edge28" class="edge"><title>12709&#45;&gt;11243</title>
<path fill="none" stroke="red" stroke-width="0.528728" d="M814.158,-187.053C809.437,-183.583 804.447,-179.964 799.749,-176.652 779.383,-162.293 756.123,-146.642 737.96,-134.585"/>
<polygon fill="red" stroke="red" stroke-width="0.528728" points="739.758,-131.578 729.488,-128.975 735.894,-137.414 739.758,-131.578"/>
</g>
<!-- 10705 -->
<g id="node43" class="node"><title>10705</title>
<ellipse fill="white" stroke="black" cx="623.749" cy="-113.075" rx="27.6545" ry="27.6545"/>
<text text-anchor="middle" x="623.749" y="-110.875" font-family="Times,serif" font-size="9.00">10705</text>
</g>
<!-- 7718&#45;&gt;10705 -->
<g id="edge49" class="edge"><title>7718&#45;&gt;10705</title>
<path fill="none" stroke="green" stroke-width="1.20472" d="M598.54,-270.811C603.459,-240.229 612.092,-186.55 617.865,-150.654"/>
<polygon fill="green" stroke="green" stroke-width="1.20472" points="621.353,-151.012 619.485,-140.583 614.442,-149.9 621.353,-151.012"/>
</g>
<!-- 12629 -->
<g id="node45" class="node"><title>12629</title>
<ellipse fill="white" stroke="black" cx="650.749" cy="-204.229" rx="27.6545" ry="27.6545"/>
<text text-anchor="middle" x="650.749" y="-202.029" font-family="Times,serif" font-size="9.00">12629</text>
</g>
<!-- 7718&#45;&gt;12629 -->
<g id="edge45" class="edge"><title>7718&#45;&gt;12629</title>
<path fill="none" stroke="red" stroke-width="0.422154" d="M607.737,-273.705C614.653,-262.695 623.304,-248.923 631.03,-236.622"/>
<polygon fill="red" stroke="red" stroke-width="0.422154" points="634.099,-238.316 636.455,-227.986 628.172,-234.592 634.099,-238.316"/>
</g>
<!-- 7718&#45;&gt;11243 -->
<g id="edge29" class="edge"><title>7718&#45;&gt;11243</title>
<path fill="none" stroke="green" stroke-width="0.637928" d="M613.518,-279.087C618.394,-275.288 623.698,-271.304 628.749,-267.806 654.003,-250.318 670.621,-257.306 687.749,-231.806 703.708,-208.045 707.972,-175.613 708.517,-150.804"/>
<polygon fill="green" stroke="green" stroke-width="0.637928" points="712.017,-150.696 708.546,-140.686 705.017,-150.676 712.017,-150.696"/>
</g>
<!-- 16436&#45;&gt;6507 -->
<g id="edge22" class="edge"><title>16436&#45;&gt;6507</title>
<path fill="none" stroke="red" stroke-width="0.852665" d="M758.557,-176.658C753.621,-145.373 745.417,-93.3682 740.045,-59.3216"/>
<polygon fill="red" stroke="red" stroke-width="0.852665" points="743.492,-58.7071 738.476,-49.3748 736.577,-59.7981 743.492,-58.7071"/>
</g>
<!-- 16436&#45;&gt;11243 -->
<g id="edge43" class="edge"><title>16436&#45;&gt;11243</title>
<path fill="none" stroke="red" stroke-width="0.277634" d="M748.327,-180.27C741.73,-169.766 733.806,-157.15 726.652,-145.762"/>
<polygon fill="red" stroke="red" stroke-width="0.277634" points="729.404,-143.563 721.121,-136.956 723.476,-147.286 729.404,-143.563"/>
</g>
<!-- 9931&#45;&gt;12709 -->
<g id="edge4" class="edge"><title>9931&#45;&gt;12709</title>
<path fill="none" stroke="green" stroke-width="0.199444" d="M889.777,-275.038C880.652,-263.248 868.809,-247.946 858.538,-234.675"/>
<polygon fill="green" stroke="green" stroke-width="0.199444" points="861.273,-232.49 852.384,-226.724 855.737,-236.774 861.273,-232.49"/>
</g>
<!-- 9931&#45;&gt;6507 -->
<g id="edge24" class="edge"><title>9931&#45;&gt;6507</title>
<path fill="none" stroke="red" stroke-width="0.6501" d="M906.424,-270.539C908.067,-227.696 905.092,-137.34 856.749,-85.4975 832.788,-59.8026 795.402,-43.7799 768.328,-34.8734"/>
<polygon fill="red" stroke="red" stroke-width="0.6501" points="769.096,-31.4463 758.507,-31.8031 767.007,-38.1274 769.096,-31.4463"/>
</g>
<!-- 13515 -->
<g id="node42" class="node"><title>13515</title>
<ellipse fill="white" stroke="black" cx="462.749" cy="-204.229" rx="27.6545" ry="27.6545"/>
<text text-anchor="middle" x="462.749" y="-202.029" font-family="Times,serif" font-size="9.00">13515</text>
</g>
<!-- 13515&#45;&gt;11577 -->
<g id="edge16" class="edge"><title>13515&#45;&gt;11577</title>
<path fill="none" stroke="red" stroke-width="0.876663" d="M454.65,-177.442C451.869,-168.587 448.708,-158.521 445.736,-149.06"/>
<polygon fill="red" stroke="red" stroke-width="0.876663" points="449.068,-147.988 442.733,-139.496 442.39,-150.085 449.068,-147.988"/>
</g>
<!-- 10705&#45;&gt;6507 -->
<g id="edge5" class="edge"><title>10705&#45;&gt;6507</title>
<path fill="none" stroke="red" stroke-width="1.04729" d="M645.151,-95.4301C662.931,-81.6021 688.335,-61.8455 707.554,-46.8983"/>
<polygon fill="red" stroke="red" stroke-width="1.04729" points="709.89,-49.5152 715.636,-40.6132 705.593,-43.9895 709.89,-49.5152"/>
</g>
<!-- 12501 -->
<g id="node44" class="node"><title>12501</title>
<ellipse fill="white" stroke="black" cx="844.749" cy="-477.692" rx="27.6545" ry="27.6545"/>
<text text-anchor="middle" x="844.749" y="-475.492" font-family="Times,serif" font-size="9.00">12501</text>
</g>
<!-- 12501&#45;&gt;10472 -->
<g id="edge32" class="edge"><title>12501&#45;&gt;10472</title>
<path fill="none" stroke="green" stroke-width="0.937222" d="M844.749,-449.943C844.749,-441.92 844.749,-432.976 844.749,-424.421"/>
<polygon fill="green" stroke="green" stroke-width="0.937222" points="848.249,-424.268 844.749,-414.268 841.249,-424.268 848.249,-424.268"/>
</g>
<!-- 12629&#45;&gt;11243 -->
<g id="edge47" class="edge"><title>12629&#45;&gt;11243</title>
<path fill="none" stroke="green" stroke-width="1.30458" d="M665.17,-180.27C671.767,-169.766 679.692,-157.15 686.845,-145.762"/>
<polygon fill="green" stroke="green" stroke-width="1.30458" points="690.021,-147.286 692.376,-136.956 684.093,-143.563 690.021,-147.286"/>
</g>
<!-- 10472&#45;&gt;9931 -->
<g id="edge42" class="edge"><title>10472&#45;&gt;9931</title>
<path fill="none" stroke="green" stroke-width="0.482391" d="M859.889,-363.04C867.655,-351.501 877.199,-337.32 885.484,-325.009"/>
<polygon fill="green" stroke="green" stroke-width="0.482391" points="888.571,-326.69 891.251,-316.44 882.764,-322.782 888.571,-326.69"/>
</g>
<!-- 11243&#45;&gt;6507 -->
<g id="edge3" class="edge"><title>11243&#45;&gt;6507</title>
<path fill="none" stroke="red" stroke-width="0.597374" d="M714.998,-86.6409C717.865,-77.8022 721.121,-67.7629 724.151,-58.4215"/>
<polygon fill="red" stroke="red" stroke-width="0.597374" points="727.565,-59.2408 727.321,-48.6488 720.906,-57.0811 727.565,-59.2408"/>
</g>
<!-- 10861&#45;&gt;2831 -->
<g id="edge20" class="edge"><title>10861&#45;&gt;2831</title>
<path fill="none" stroke="green" stroke-width="0.487122" d="M304.65,-177.442C301.646,-167.876 298.198,-156.898 295.025,-146.796"/>
<polygon fill="green" stroke="green" stroke-width="0.487122" points="298.306,-145.562 291.971,-137.07 291.628,-147.66 298.306,-145.562"/>
</g>
<!-- 13815&#45;&gt;2831 -->
<g id="edge11" class="edge"><title>13815&#45;&gt;2831</title>
<path fill="none" stroke="green" stroke-width="0.189365" d="M456.925,-275.766C421.86,-242.837 348.956,-174.372 310.221,-137.996"/>
<polygon fill="green" stroke="green" stroke-width="0.189365" points="312.185,-135.039 302.5,-130.745 307.393,-140.142 312.185,-135.039"/>
</g>
<!-- 13815&#45;&gt;13515 -->
<g id="edge30" class="edge"><title>13815&#45;&gt;13515</title>
<path fill="none" stroke="red" stroke-width="0.595058" d="M472.624,-268.116C471.325,-259.847 469.867,-250.56 468.478,-241.712"/>
<polygon fill="red" stroke="red" stroke-width="0.595058" points="471.901,-240.952 466.892,-231.616 464.986,-242.038 471.901,-240.952"/>
</g>
<!-- 13815&#45;&gt;6507 -->
<g id="edge19" class="edge"><title>13815&#45;&gt;6507</title>
<path fill="none" stroke="green" stroke-width="0.803342" d="M487.133,-269.777C508.3,-220.567 556.949,-112.429 586.749,-85.4975 619.211,-56.1588 667.938,-40.2808 700.512,-32.4204"/>
<polygon fill="green" stroke="green" stroke-width="0.803342" points="701.51,-35.7826 710.48,-30.1432 699.951,-28.9585 701.51,-35.7826"/>
</g>
<!-- 12795&#45;&gt;10861 -->
<g id="edge26" class="edge"><title>12795&#45;&gt;10861</title>
<path fill="none" stroke="red" stroke-width="0.13603" d="M347.886,-270.492C342.462,-260.417 336.063,-248.532 330.222,-237.684"/>
<polygon fill="red" stroke="red" stroke-width="0.13603" points="333.303,-236.023 325.481,-228.877 327.14,-239.342 333.303,-236.023"/>
</g>
</g>
</svg>
