<?xml version="1.0" encoding="UTF-8" standalone="no"?>
<!DOCTYPE svg PUBLIC "-//W3C//DTD SVG 1.1//EN"
 "http://www.w3.org/Graphics/SVG/1.1/DTD/svg11.dtd">
<!-- Generated by graphviz version 2.38.0 (20140413.2041)
 -->
<!-- Title: %3 Pages: 1 -->
<svg width="1195pt" height="756pt"
 viewBox="0.00 0.00 1195.43 755.62" xmlns="http://www.w3.org/2000/svg" xmlns:xlink="http://www.w3.org/1999/xlink">
<g id="graph0" class="graph" transform="scale(1 1) rotate(0) translate(4 751.619)">
<title>%3</title>
<polygon fill="white" stroke="none" points="-4,4 -4,-751.619 1191.43,-751.619 1191.43,4 -4,4"/>
<!-- &#45;1 -->
<g id="node1" class="node"><title>&#45;1</title>
<polygon fill="lightgray" stroke="black" points="123.577,-729.042 99.5772,-729.042 99.5772,-711.042 123.577,-711.042 123.577,-729.042"/>
<text text-anchor="middle" x="111.577" y="-717.842" font-family="Times,serif" font-size="9.00">&#45;1</text>
</g>
<!-- 14752 -->
<g id="node34" class="node"><title>14752</title>
<ellipse fill="white" stroke="black" cx="27.5772" cy="-628.888" rx="27.6545" ry="27.6545"/>
<text text-anchor="middle" x="27.5772" y="-626.688" font-family="Times,serif" font-size="9.00">14752</text>
</g>
<!-- &#45;1&#45;&gt;14752 -->
<g id="edge19" class="edge"><title>&#45;1&#45;&gt;14752</title>
<path fill="none" stroke="red" stroke-width="0.215027" d="M103.825,-710.815C92.453,-698.745 70.7155,-675.673 53.3508,-657.243"/>
<polygon fill="red" stroke="red" stroke-width="0.215027" points="55.6245,-654.552 46.2195,-649.674 50.5296,-659.353 55.6245,-654.552"/>
</g>
<!-- 9931 -->
<g id="node41" class="node"><title>9931</title>
<ellipse fill="white" stroke="black" cx="146.577" cy="-537.734" rx="25" ry="25"/>
<text text-anchor="middle" x="146.577" y="-535.534" font-family="Times,serif" font-size="9.00">9931</text>
</g>
<!-- &#45;1&#45;&gt;9931 -->
<g id="edge9" class="edge"><title>&#45;1&#45;&gt;9931</title>
<path fill="none" stroke="green" stroke-width="0.292106" d="M113.172,-710.826C117.854,-686.704 131.755,-615.095 140.076,-572.227"/>
<polygon fill="green" stroke="green" stroke-width="0.292106" points="143.542,-572.736 142.012,-562.252 136.67,-571.402 143.542,-572.736"/>
</g>
<!-- 10472 -->
<g id="node46" class="node"><title>10472</title>
<ellipse fill="white" stroke="black" cx="187.577" cy="-628.888" rx="27.6545" ry="27.6545"/>
<text text-anchor="middle" x="187.577" y="-626.688" font-family="Times,serif" font-size="9.00">10472</text>
</g>
<!-- &#45;1&#45;&gt;10472 -->
<g id="edge36" class="edge"><title>&#45;1&#45;&gt;10472</title>
<path fill="none" stroke="green" stroke-width="0.134621" d="M118.591,-710.815C128.661,-699.002 147.713,-676.652 163.248,-658.428"/>
<polygon fill="green" stroke="green" stroke-width="0.134621" points="166.27,-660.278 170.094,-650.398 160.943,-655.737 166.27,-660.278"/>
</g>
<!-- 6507 -->
<g id="node47" class="node"><title>6507</title>
<ellipse fill="white" stroke="black" cx="307.577" cy="-264.271" rx="25" ry="25"/>
<text text-anchor="middle" x="307.577" y="-262.071" font-family="Times,serif" font-size="9.00">6507</text>
</g>
<!-- &#45;1&#45;&gt;6507 -->
<g id="edge25" class="edge"><title>&#45;1&#45;&gt;6507</title>
<path fill="none" stroke="green" stroke-width="0.258112" stroke-dasharray="1,5" d="M110.452,-710.949C106.783,-682.811 96.3129,-586.782 112.577,-510.156 121.763,-466.879 162.648,-360.43 192.577,-327.848 214.975,-303.465 249.117,-286.569 274.386,-276.535"/>
<polygon fill="green" stroke="green" stroke-width="0.258112" points="275.832,-279.73 283.932,-272.901 273.341,-273.188 275.832,-279.73"/>
</g>
<!-- &#45;2 -->
<g id="node2" class="node"><title>&#45;2</title>
<polygon fill="lightgray" stroke="black" points="323.577,-729.042 299.577,-729.042 299.577,-711.042 323.577,-711.042 323.577,-729.042"/>
<text text-anchor="middle" x="311.577" y="-717.842" font-family="Times,serif" font-size="9.00">&#45;2</text>
</g>
<!-- &#45;3 -->
<g id="node3" class="node"><title>&#45;3</title>
<polygon fill="lightgray" stroke="black" points="874.577,-364.425 850.577,-364.425 850.577,-346.425 874.577,-346.425 874.577,-364.425"/>
<text text-anchor="middle" x="862.577" y="-353.225" font-family="Times,serif" font-size="9.00">&#45;3</text>
</g>
<!-- 2197 -->
<g id="node32" class="node"><title>2197</title>
<ellipse fill="white" stroke="black" cx="862.577" cy="-264.271" rx="25" ry="25"/>
<text text-anchor="middle" x="862.577" y="-262.071" font-family="Times,serif" font-size="9.00">2197</text>
</g>
<!-- &#45;3&#45;&gt;2197 -->
<g id="edge32" class="edge"><title>&#45;3&#45;&gt;2197</title>
<path fill="none" stroke="green" stroke-width="0.650276" d="M862.577,-346.197C862.577,-335.559 862.577,-316.375 862.577,-299.355"/>
<polygon fill="green" stroke="green" stroke-width="0.650276" points="866.077,-299.133 862.577,-289.133 859.077,-299.133 866.077,-299.133"/>
</g>
<!-- &#45;4 -->
<g id="node4" class="node"><title>&#45;4</title>
<polygon fill="lightgray" stroke="black" points="365.577,-729.042 341.577,-729.042 341.577,-711.042 365.577,-711.042 365.577,-729.042"/>
<text text-anchor="middle" x="353.577" y="-717.842" font-family="Times,serif" font-size="9.00">&#45;4</text>
</g>
<!-- &#45;5 -->
<g id="node5" class="node"><title>&#45;5</title>
<polygon fill="lightgray" stroke="black" points="753.577,-637.888 729.577,-637.888 729.577,-619.888 753.577,-619.888 753.577,-637.888"/>
<text text-anchor="middle" x="741.577" y="-626.688" font-family="Times,serif" font-size="9.00">&#45;5</text>
</g>
<!-- 2 -->
<g id="node27" class="node"><title>2</title>
<ellipse fill="lightblue" stroke="black" cx="771.577" cy="-537.734" rx="14.7" ry="14.7"/>
<text text-anchor="middle" x="771.577" y="-535.534" font-family="Times,serif" font-size="9.00">2</text>
</g>
<!-- &#45;5&#45;&gt;2 -->
<g id="edge44" class="edge"><title>&#45;5&#45;&gt;2</title>
<path fill="none" stroke="red" stroke-width="0.871624" d="M744.346,-619.66C748.727,-606.639 757.417,-580.815 763.807,-561.826"/>
<polygon fill="red" stroke="red" stroke-width="0.871624" points="767.206,-562.699 767.078,-552.105 760.571,-560.467 767.206,-562.699"/>
</g>
<!-- 12795 -->
<g id="node51" class="node"><title>12795</title>
<ellipse fill="white" stroke="black" cx="711.577" cy="-537.734" rx="27.6545" ry="27.6545"/>
<text text-anchor="middle" x="711.577" y="-535.534" font-family="Times,serif" font-size="9.00">12795</text>
</g>
<!-- &#45;5&#45;&gt;12795 -->
<g id="edge45" class="edge"><title>&#45;5&#45;&gt;12795</title>
<path fill="none" stroke="red" stroke-width="0.340151" d="M738.809,-619.66C735.292,-609.21 729.001,-590.513 723.351,-573.722"/>
<polygon fill="red" stroke="red" stroke-width="0.340151" points="726.63,-572.494 720.124,-564.133 719.996,-574.727 726.63,-572.494"/>
</g>
<!-- &#45;6 -->
<g id="node6" class="node"><title>&#45;6</title>
<polygon fill="lightgray" stroke="black" points="554.577,-546.734 530.577,-546.734 530.577,-528.734 554.577,-528.734 554.577,-546.734"/>
<text text-anchor="middle" x="542.577" y="-535.534" font-family="Times,serif" font-size="9.00">&#45;6</text>
</g>
<!-- 11577 -->
<g id="node39" class="node"><title>11577</title>
<ellipse fill="white" stroke="black" cx="380.577" cy="-355.425" rx="27.6545" ry="27.6545"/>
<text text-anchor="middle" x="380.577" y="-353.225" font-family="Times,serif" font-size="9.00">11577</text>
</g>
<!-- &#45;6&#45;&gt;11577 -->
<g id="edge16" class="edge"><title>&#45;6&#45;&gt;11577</title>
<path fill="none" stroke="green" stroke-width="0.285782" d="M544.239,-528.599C547.965,-507.954 554.806,-452.775 529.577,-419.002 522.368,-409.352 457.779,-384.488 416.039,-369.165"/>
<polygon fill="green" stroke="green" stroke-width="0.285782" points="417.076,-365.818 406.482,-365.677 414.676,-372.394 417.076,-365.818"/>
</g>
<!-- 10861 -->
<g id="node49" class="node"><title>10861</title>
<ellipse fill="white" stroke="black" cx="642.577" cy="-446.579" rx="27.6545" ry="27.6545"/>
<text text-anchor="middle" x="642.577" y="-444.379" font-family="Times,serif" font-size="9.00">10861</text>
</g>
<!-- &#45;6&#45;&gt;10861 -->
<g id="edge14" class="edge"><title>&#45;6&#45;&gt;10861</title>
<path fill="none" stroke="green" stroke-width="0.288554" d="M550.123,-528.63C555.213,-523.262 562.149,-516.135 568.577,-510.156 582.996,-496.747 599.696,-482.52 613.579,-471.025"/>
<polygon fill="green" stroke="green" stroke-width="0.288554" points="615.891,-473.656 621.389,-464.6 611.443,-468.25 615.891,-473.656"/>
</g>
<!-- &#45;7 -->
<g id="node7" class="node"><title>&#45;7</title>
<polygon fill="lightgray" stroke="black" points="109.577,-364.425 85.5772,-364.425 85.5772,-346.425 109.577,-346.425 109.577,-364.425"/>
<text text-anchor="middle" x="97.5772" y="-353.225" font-family="Times,serif" font-size="9.00">&#45;7</text>
</g>
<!-- 2831 -->
<g id="node31" class="node"><title>2831</title>
<ellipse fill="white" stroke="black" cx="307.577" cy="-90.4472" rx="25" ry="25"/>
<text text-anchor="middle" x="307.577" y="-88.2472" font-family="Times,serif" font-size="9.00">2831</text>
</g>
<!-- &#45;7&#45;&gt;2831 -->
<g id="edge12" class="edge"><title>&#45;7&#45;&gt;2831</title>
<path fill="none" stroke="green" stroke-width="0.887103" d="M101.3,-346.272C110.524,-326.49 135.781,-274.771 164.577,-236.693 200.434,-189.28 250.808,-141.549 281.207,-114.333"/>
<polygon fill="green" stroke="green" stroke-width="0.887103" points="283.7,-116.8 288.854,-107.543 279.052,-111.566 283.7,-116.8"/>
</g>
<!-- 4505 -->
<g id="node33" class="node"><title>4505</title>
<ellipse fill="white" stroke="black" cx="307.577" cy="-175.945" rx="25" ry="25"/>
<text text-anchor="middle" x="307.577" y="-173.745" font-family="Times,serif" font-size="9.00">4505</text>
</g>
<!-- &#45;7&#45;&gt;4505 -->
<g id="edge23" class="edge"><title>&#45;7&#45;&gt;4505</title>
<path fill="none" stroke="red" stroke-width="0.908182" d="M105.093,-346.289C110.171,-340.908 117.104,-333.778 123.577,-327.848 176.879,-279.018 243.275,-226.442 279.966,-198.052"/>
<polygon fill="red" stroke="red" stroke-width="0.908182" points="282.414,-200.584 288.195,-191.705 278.139,-195.041 282.414,-200.584"/>
</g>
<!-- &#45;7&#45;&gt;6507 -->
<g id="edge10" class="edge"><title>&#45;7&#45;&gt;6507</title>
<path fill="none" stroke="red" stroke-width="0.76767" d="M103.602,-346.404C108.416,-340.507 115.652,-332.705 123.577,-327.848 169.239,-299.86 188.007,-309.482 238.577,-291.848 250.577,-287.663 263.615,-282.741 275.093,-278.276"/>
<polygon fill="red" stroke="red" stroke-width="0.76767" points="276.683,-281.412 284.714,-274.502 274.126,-274.896 276.683,-281.412"/>
</g>
<!-- &#45;8 -->
<g id="node8" class="node"><title>&#45;8</title>
<polygon fill="lightgray" stroke="black" points="781.577,-364.425 757.577,-364.425 757.577,-346.425 781.577,-346.425 781.577,-364.425"/>
<text text-anchor="middle" x="769.577" y="-353.225" font-family="Times,serif" font-size="9.00">&#45;8</text>
</g>
<!-- 1 -->
<g id="node26" class="node"><title>1</title>
<ellipse fill="lightblue" stroke="black" cx="770.577" cy="-14.8492" rx="14.7" ry="14.7"/>
<text text-anchor="middle" x="770.577" y="-12.6492" font-family="Times,serif" font-size="9.00">1</text>
</g>
<!-- &#45;8&#45;&gt;1 -->
<g id="edge13" class="edge"><title>&#45;8&#45;&gt;1</title>
<path fill="none" stroke="red" stroke-width="0.639813" stroke-dasharray="1,5" d="M769.601,-346.39C769.725,-304.367 770.301,-109.186 770.505,-40.1351"/>
<polygon fill="red" stroke="red" stroke-width="0.639813" points="774.006,-39.834 770.536,-29.8237 767.006,-39.8133 774.006,-39.834"/>
</g>
<!-- &#45;8&#45;&gt;2197 -->
<g id="edge43" class="edge"><title>&#45;8&#45;&gt;2197</title>
<path fill="none" stroke="green" stroke-width="0.3257" d="M778.16,-346.197C791.498,-333.411 817.715,-308.277 837.412,-289.395"/>
<polygon fill="green" stroke="green" stroke-width="0.3257" points="840.069,-291.697 844.866,-282.25 835.225,-286.643 840.069,-291.697"/>
</g>
<!-- &#45;8&#45;&gt;4505 -->
<g id="edge38" class="edge"><title>&#45;8&#45;&gt;4505</title>
<path fill="none" stroke="green" stroke-width="0.313572" d="M763.308,-346.226C758.472,-340.394 751.32,-332.754 743.577,-327.848 673.378,-283.367 430.526,-211.851 341.032,-186.351"/>
<polygon fill="green" stroke="green" stroke-width="0.313572" points="341.963,-182.977 331.387,-183.612 340.051,-189.71 341.963,-182.977"/>
</g>
<!-- 17064 -->
<g id="node37" class="node"><title>17064</title>
<ellipse fill="white" stroke="black" cx="714.577" cy="-264.271" rx="27.6545" ry="27.6545"/>
<text text-anchor="middle" x="714.577" y="-262.071" font-family="Times,serif" font-size="9.00">17064</text>
</g>
<!-- &#45;8&#45;&gt;17064 -->
<g id="edge2" class="edge"><title>&#45;8&#45;&gt;17064</title>
<path fill="none" stroke="green" stroke-width="0.667343" d="M764.501,-346.197C757.662,-335.111 745.098,-314.745 734.286,-297.218"/>
<polygon fill="green" stroke="green" stroke-width="0.667343" points="737.06,-295.048 728.83,-288.375 731.102,-298.723 737.06,-295.048"/>
</g>
<!-- &#45;8&#45;&gt;6507 -->
<g id="edge15" class="edge"><title>&#45;8&#45;&gt;6507</title>
<path fill="none" stroke="green" stroke-width="0.910588" stroke-dasharray="1,5" d="M763.781,-345.992C759.085,-339.88 751.899,-331.988 743.577,-327.848 630.455,-271.565 586.529,-310.596 461.577,-291.848 420.235,-285.645 372.871,-277.281 341.71,-271.604"/>
<polygon fill="green" stroke="green" stroke-width="0.910588" points="342.263,-268.147 331.796,-269.789 341.002,-275.033 342.263,-268.147"/>
</g>
<!-- &#45;9 -->
<g id="node9" class="node"><title>&#45;9</title>
<polygon fill="lightgray" stroke="black" points="407.577,-729.042 383.577,-729.042 383.577,-711.042 407.577,-711.042 407.577,-729.042"/>
<text text-anchor="middle" x="395.577" y="-717.842" font-family="Times,serif" font-size="9.00">&#45;9</text>
</g>
<!-- &#45;10 -->
<g id="node10" class="node"><title>&#45;10</title>
<polygon fill="lightgray" stroke="black" points="455.077,-729.042 426.077,-729.042 426.077,-711.042 455.077,-711.042 455.077,-729.042"/>
<text text-anchor="middle" x="440.577" y="-717.842" font-family="Times,serif" font-size="9.00">&#45;10</text>
</g>
<!-- &#45;11 -->
<g id="node11" class="node"><title>&#45;11</title>
<polygon fill="lightgray" stroke="black" points="502.077,-729.042 473.077,-729.042 473.077,-711.042 502.077,-711.042 502.077,-729.042"/>
<text text-anchor="middle" x="487.577" y="-717.842" font-family="Times,serif" font-size="9.00">&#45;11</text>
</g>
<!-- &#45;12 -->
<g id="node12" class="node"><title>&#45;12</title>
<polygon fill="lightgray" stroke="black" points="262.077,-637.888 233.077,-637.888 233.077,-619.888 262.077,-619.888 262.077,-637.888"/>
<text text-anchor="middle" x="247.577" y="-626.688" font-family="Times,serif" font-size="9.00">&#45;12</text>
</g>
<!-- &#45;12&#45;&gt;9931 -->
<g id="edge7" class="edge"><title>&#45;12&#45;&gt;9931</title>
<path fill="none" stroke="red" stroke-width="0.658167" d="M241.093,-619.639C236.671,-614.209 230.553,-607.069 224.577,-601.311 208.859,-586.167 189.768,-570.806 174.407,-559.093"/>
<polygon fill="red" stroke="red" stroke-width="0.658167" points="176.395,-556.208 166.302,-552.985 172.182,-561.799 176.395,-556.208"/>
</g>
<!-- &#45;13 -->
<g id="node13" class="node"><title>&#45;13</title>
<polygon fill="lightgray" stroke="black" points="549.077,-729.042 520.077,-729.042 520.077,-711.042 549.077,-711.042 549.077,-729.042"/>
<text text-anchor="middle" x="534.577" y="-717.842" font-family="Times,serif" font-size="9.00">&#45;13</text>
</g>
<!-- &#45;14 -->
<g id="node14" class="node"><title>&#45;14</title>
<polygon fill="lightgray" stroke="black" points="550.077,-637.888 521.077,-637.888 521.077,-619.888 550.077,-619.888 550.077,-637.888"/>
<text text-anchor="middle" x="535.577" y="-626.688" font-family="Times,serif" font-size="9.00">&#45;14</text>
</g>
<!-- &#45;14&#45;&gt;2831 -->
<g id="edge47" class="edge"><title>&#45;14&#45;&gt;2831</title>
<path fill="none" stroke="red" stroke-width="0.755263" stroke-dasharray="1,5" d="M520.853,-625.631C481.192,-619.262 369.202,-599.367 281.577,-565.311 233.905,-546.783 226.429,-532.818 180.577,-510.156 145.26,-492.701 127.869,-501.571 99.5772,-474.156 67.2706,-442.851 65.6074,-426.855 55.5772,-383.002 31.4338,-277.445 41.3089,-212.486 130.577,-151.196 174.691,-120.908 235.462,-104.843 273.097,-97.2486"/>
<polygon fill="red" stroke="red" stroke-width="0.755263" points="273.909,-100.657 283.065,-95.3264 272.583,-93.7832 273.909,-100.657"/>
</g>
<!-- 7718 -->
<g id="node36" class="node"><title>7718</title>
<ellipse fill="white" stroke="black" cx="487.577" cy="-537.734" rx="25" ry="25"/>
<text text-anchor="middle" x="487.577" y="-535.534" font-family="Times,serif" font-size="9.00">7718</text>
</g>
<!-- &#45;14&#45;&gt;7718 -->
<g id="edge40" class="edge"><title>&#45;14&#45;&gt;7718</title>
<path fill="none" stroke="green" stroke-width="0.281806" d="M531.147,-619.66C524.981,-608.207 513.482,-586.849 503.845,-568.949"/>
<polygon fill="green" stroke="green" stroke-width="0.281806" points="506.836,-567.121 499.013,-559.975 500.672,-570.439 506.836,-567.121"/>
</g>
<!-- 12988 -->
<g id="node40" class="node"><title>12988</title>
<ellipse fill="white" stroke="black" cx="638.577" cy="-537.734" rx="27.6545" ry="27.6545"/>
<text text-anchor="middle" x="638.577" y="-535.534" font-family="Times,serif" font-size="9.00">12988</text>
</g>
<!-- &#45;14&#45;&gt;12988 -->
<g id="edge41" class="edge"><title>&#45;14&#45;&gt;12988</title>
<path fill="none" stroke="green" stroke-width="0.580349" d="M545.083,-619.66C559.808,-606.914 588.708,-581.899 610.499,-563.037"/>
<polygon fill="green" stroke="green" stroke-width="0.580349" points="612.896,-565.592 618.166,-556.401 608.315,-560.299 612.896,-565.592"/>
</g>
<!-- &#45;14&#45;&gt;10861 -->
<g id="edge1" class="edge"><title>&#45;14&#45;&gt;10861</title>
<path fill="none" stroke="green" stroke-width="0.19394" d="M539.87,-619.784C550.124,-600.529 577.019,-550.62 601.577,-510.156 607.936,-499.679 615.177,-488.424 621.787,-478.388"/>
<polygon fill="green" stroke="green" stroke-width="0.19394" points="624.784,-480.2 627.394,-469.932 618.951,-476.331 624.784,-480.2"/>
</g>
<!-- 13815 -->
<g id="node50" class="node"><title>13815</title>
<ellipse fill="white" stroke="black" cx="318.577" cy="-537.734" rx="27.6545" ry="27.6545"/>
<text text-anchor="middle" x="318.577" y="-535.534" font-family="Times,serif" font-size="9.00">13815</text>
</g>
<!-- &#45;14&#45;&gt;13815 -->
<g id="edge46" class="edge"><title>&#45;14&#45;&gt;13815</title>
<path fill="none" stroke="green" stroke-width="0.193623" d="M521.002,-621.9C486.952,-607.91 401.42,-572.77 353.14,-552.934"/>
<polygon fill="green" stroke="green" stroke-width="0.193623" points="354.301,-549.627 343.721,-549.064 351.64,-556.102 354.301,-549.627"/>
</g>
<!-- &#45;14&#45;&gt;12795 -->
<g id="edge51" class="edge"><title>&#45;14&#45;&gt;12795</title>
<path fill="none" stroke="red" stroke-width="0.5121" d="M550.395,-622.483C576.519,-612.692 632.116,-590.667 675.577,-565.311 677.75,-564.043 679.948,-562.671 682.132,-561.242"/>
<polygon fill="red" stroke="red" stroke-width="0.5121" points="684.15,-564.101 690.391,-555.54 680.174,-558.341 684.15,-564.101"/>
</g>
<!-- &#45;15 -->
<g id="node15" class="node"><title>&#45;15</title>
<polygon fill="lightgray" stroke="black" points="596.077,-729.042 567.077,-729.042 567.077,-711.042 596.077,-711.042 596.077,-729.042"/>
<text text-anchor="middle" x="581.577" y="-717.842" font-family="Times,serif" font-size="9.00">&#45;15</text>
</g>
<!-- &#45;16 -->
<g id="node16" class="node"><title>&#45;16</title>
<polygon fill="lightgray" stroke="black" points="643.077,-729.042 614.077,-729.042 614.077,-711.042 643.077,-711.042 643.077,-729.042"/>
<text text-anchor="middle" x="628.577" y="-717.842" font-family="Times,serif" font-size="9.00">&#45;16</text>
</g>
<!-- &#45;17 -->
<g id="node17" class="node"><title>&#45;17</title>
<polygon fill="lightgray" stroke="black" points="690.077,-729.042 661.077,-729.042 661.077,-711.042 690.077,-711.042 690.077,-729.042"/>
<text text-anchor="middle" x="675.577" y="-717.842" font-family="Times,serif" font-size="9.00">&#45;17</text>
</g>
<!-- &#45;18 -->
<g id="node18" class="node"><title>&#45;18</title>
<polygon fill="lightgray" stroke="black" points="737.077,-729.042 708.077,-729.042 708.077,-711.042 737.077,-711.042 737.077,-729.042"/>
<text text-anchor="middle" x="722.577" y="-717.842" font-family="Times,serif" font-size="9.00">&#45;18</text>
</g>
<!-- &#45;19 -->
<g id="node19" class="node"><title>&#45;19</title>
<polygon fill="lightgray" stroke="black" points="784.077,-729.042 755.077,-729.042 755.077,-711.042 784.077,-711.042 784.077,-729.042"/>
<text text-anchor="middle" x="769.577" y="-717.842" font-family="Times,serif" font-size="9.00">&#45;19</text>
</g>
<!-- 13963 -->
<g id="node29" class="node"><title>13963</title>
<ellipse fill="white" stroke="black" cx="799.577" cy="-628.888" rx="27.6545" ry="27.6545"/>
<text text-anchor="middle" x="799.577" y="-626.688" font-family="Times,serif" font-size="9.00">13963</text>
</g>
<!-- &#45;19&#45;&gt;13963 -->
<g id="edge17" class="edge"><title>&#45;19&#45;&gt;13963</title>
<path fill="none" stroke="green" stroke-width="0.620164" d="M772.346,-710.815C775.862,-700.364 782.153,-681.668 787.804,-664.876"/>
<polygon fill="green" stroke="green" stroke-width="0.620164" points="791.158,-665.881 791.031,-655.287 784.524,-663.648 791.158,-665.881"/>
</g>
<!-- &#45;20 -->
<g id="node20" class="node"><title>&#45;20</title>
<polygon fill="lightgray" stroke="black" points="904.077,-729.042 875.077,-729.042 875.077,-711.042 904.077,-711.042 904.077,-729.042"/>
<text text-anchor="middle" x="889.577" y="-717.842" font-family="Times,serif" font-size="9.00">&#45;20</text>
</g>
<!-- &#45;21 -->
<g id="node21" class="node"><title>&#45;21</title>
<polygon fill="lightgray" stroke="black" points="951.077,-729.042 922.077,-729.042 922.077,-711.042 951.077,-711.042 951.077,-729.042"/>
<text text-anchor="middle" x="936.577" y="-717.842" font-family="Times,serif" font-size="9.00">&#45;21</text>
</g>
<!-- &#45;22 -->
<g id="node22" class="node"><title>&#45;22</title>
<polygon fill="lightgray" stroke="black" points="998.077,-729.042 969.077,-729.042 969.077,-711.042 998.077,-711.042 998.077,-729.042"/>
<text text-anchor="middle" x="983.577" y="-717.842" font-family="Times,serif" font-size="9.00">&#45;22</text>
</g>
<!-- &#45;23 -->
<g id="node23" class="node"><title>&#45;23</title>
<polygon fill="lightgray" stroke="black" points="1045.08,-729.042 1016.08,-729.042 1016.08,-711.042 1045.08,-711.042 1045.08,-729.042"/>
<text text-anchor="middle" x="1030.58" y="-717.842" font-family="Times,serif" font-size="9.00">&#45;23</text>
</g>
<!-- &#45;24 -->
<g id="node24" class="node"><title>&#45;24</title>
<polygon fill="lightgray" stroke="black" points="1092.08,-729.042 1063.08,-729.042 1063.08,-711.042 1092.08,-711.042 1092.08,-729.042"/>
<text text-anchor="middle" x="1077.58" y="-717.842" font-family="Times,serif" font-size="9.00">&#45;24</text>
</g>
<!-- 0 -->
<g id="node25" class="node"><title>0</title>
<ellipse fill="lightblue" stroke="black" cx="1124.58" cy="-720.042" rx="14.7" ry="14.7"/>
<text text-anchor="middle" x="1124.58" y="-717.842" font-family="Times,serif" font-size="9.00">0</text>
</g>
<!-- 2&#45;&gt;2831 -->
<g id="edge55" class="edge"><title>2&#45;&gt;2831</title>
<path fill="none" stroke="green" stroke-width="0.360747" d="M776.39,-523.366C786.615,-493.729 809.577,-420.087 809.577,-356.425 809.577,-356.425 809.577,-356.425 809.577,-263.271 809.577,-164.328 456.089,-110.448 342.367,-95.6743"/>
<polygon fill="green" stroke="green" stroke-width="0.360747" points="342.492,-92.162 332.129,-94.3665 341.605,-99.1056 342.492,-92.162"/>
</g>
<!-- 16436 -->
<g id="node38" class="node"><title>16436</title>
<ellipse fill="white" stroke="black" cx="715.577" cy="-446.579" rx="27.6545" ry="27.6545"/>
<text text-anchor="middle" x="715.577" y="-444.379" font-family="Times,serif" font-size="9.00">16436</text>
</g>
<!-- 2&#45;&gt;16436 -->
<g id="edge53" class="edge"><title>2&#45;&gt;16436</title>
<path fill="none" stroke="red" stroke-width="0.386037" d="M764.025,-524.71C756.669,-513 745.174,-494.699 735.227,-478.863"/>
<polygon fill="red" stroke="red" stroke-width="0.386037" points="738.179,-476.982 729.896,-470.376 732.252,-480.706 738.179,-476.982"/>
</g>
<!-- 2&#45;&gt;6507 -->
<g id="edge6" class="edge"><title>2&#45;&gt;6507</title>
<path fill="none" stroke="red" stroke-width="0.330755" d="M772.99,-522.619C774.611,-498.97 774.644,-450.814 752.577,-419.002 705.929,-351.756 668.969,-357.214 592.577,-327.848 505.914,-294.533 397.259,-276.846 342.523,-269.486"/>
<polygon fill="red" stroke="red" stroke-width="0.330755" points="342.687,-265.977 332.317,-268.15 341.779,-272.918 342.687,-265.977"/>
</g>
<!-- 2&#45;&gt;10861 -->
<g id="edge39" class="edge"><title>2&#45;&gt;10861</title>
<path fill="none" stroke="green" stroke-width="0.200012" d="M763.246,-525.242C759.205,-520.196 754.046,-514.456 748.577,-510.156 721.074,-488.536 708.302,-492.605 678.577,-474.156 676.44,-472.83 674.268,-471.414 672.104,-469.953"/>
<polygon fill="green" stroke="green" stroke-width="0.200012" points="674.081,-467.064 663.886,-464.181 670.058,-472.793 674.081,-467.064"/>
</g>
<!-- 3 -->
<g id="node28" class="node"><title>3</title>
<ellipse fill="lightblue" stroke="black" cx="1172.58" cy="-720.042" rx="14.7" ry="14.7"/>
<text text-anchor="middle" x="1172.58" y="-717.842" font-family="Times,serif" font-size="9.00">3</text>
</g>
<!-- 13327 -->
<g id="node30" class="node"><title>13327</title>
<ellipse fill="white" stroke="black" cx="829.577" cy="-720.042" rx="27.6545" ry="27.6545"/>
<text text-anchor="middle" x="829.577" y="-717.842" font-family="Times,serif" font-size="9.00">13327</text>
</g>
<!-- 13327&#45;&gt;13963 -->
<g id="edge20" class="edge"><title>13327&#45;&gt;13963</title>
<path fill="none" stroke="green" stroke-width="0.362051" d="M821.061,-693.733C818.052,-684.792 814.613,-674.571 811.381,-664.967"/>
<polygon fill="green" stroke="green" stroke-width="0.362051" points="814.622,-663.622 808.115,-655.261 807.987,-665.855 814.622,-663.622"/>
</g>
<!-- 2831&#45;&gt;1 -->
<g id="edge8" class="edge"><title>2831&#45;&gt;1</title>
<path fill="none" stroke="red" stroke-width="0.28236" d="M332.143,-85.5422C412.135,-72.8268 664.625,-32.6914 745.436,-19.8456"/>
<polygon fill="red" stroke="red" stroke-width="0.28236" points="746.338,-23.2464 755.664,-18.2198 745.239,-16.3332 746.338,-23.2464"/>
</g>
<!-- 2197&#45;&gt;1 -->
<g id="edge48" class="edge"><title>2197&#45;&gt;1</title>
<path fill="none" stroke="green" stroke-width="0.814563" d="M854.914,-240.426C847.228,-217.713 834.934,-181.921 823.577,-151.196 808.825,-111.285 790.513,-65.2313 779.73,-38.4419"/>
<polygon fill="green" stroke="green" stroke-width="0.814563" points="782.848,-36.8151 775.861,-28.8513 776.357,-39.4345 782.848,-36.8151"/>
</g>
<!-- 4505&#45;&gt;2831 -->
<g id="edge29" class="edge"><title>4505&#45;&gt;2831</title>
<path fill="none" stroke="red" stroke-width="1.33112" d="M307.577,-150.794C307.577,-142.85 307.577,-133.865 307.577,-125.335"/>
<polygon fill="red" stroke="red" stroke-width="1.33112" points="311.077,-125.255 307.577,-115.256 304.077,-125.256 311.077,-125.255"/>
</g>
<!-- 14752&#45;&gt;6507 -->
<g id="edge27" class="edge"><title>14752&#45;&gt;6507</title>
<path fill="none" stroke="red" stroke-width="0.689737" d="M30.6228,-601.251C36.2425,-559.952 50.8981,-478.985 84.5772,-419.002 95.3519,-399.812 104.24,-399.699 118.577,-383.002 138.826,-359.42 136.961,-346.825 161.577,-327.848 195.77,-301.488 242.745,-283.965 274.08,-274.329"/>
<polygon fill="red" stroke="red" stroke-width="0.689737" points="275.081,-277.683 283.668,-271.477 273.085,-270.974 275.081,-277.683"/>
</g>
<!-- 12709 -->
<g id="node35" class="node"><title>12709</title>
<ellipse fill="white" stroke="black" cx="268.577" cy="-446.579" rx="27.6545" ry="27.6545"/>
<text text-anchor="middle" x="268.577" y="-444.379" font-family="Times,serif" font-size="9.00">12709</text>
</g>
<!-- 11243 -->
<g id="node48" class="node"><title>11243</title>
<ellipse fill="white" stroke="black" cx="492.577" cy="-355.425" rx="27.6545" ry="27.6545"/>
<text text-anchor="middle" x="492.577" y="-353.225" font-family="Times,serif" font-size="9.00">11243</text>
</g>
<!-- 12709&#45;&gt;11243 -->
<g id="edge33" class="edge"><title>12709&#45;&gt;11243</title>
<path fill="none" stroke="red" stroke-width="0.528728" d="M294.273,-435.352C334.528,-419.33 412.525,-388.287 457.777,-370.276"/>
<polygon fill="red" stroke="red" stroke-width="0.528728" points="459.184,-373.483 467.181,-366.533 456.596,-366.979 459.184,-373.483"/>
</g>
<!-- 10705 -->
<g id="node43" class="node"><title>10705</title>
<ellipse fill="white" stroke="black" cx="307.577" cy="-355.425" rx="27.6545" ry="27.6545"/>
<text text-anchor="middle" x="307.577" y="-353.225" font-family="Times,serif" font-size="9.00">10705</text>
</g>
<!-- 7718&#45;&gt;10705 -->
<g id="edge56" class="edge"><title>7718&#45;&gt;10705</title>
<path fill="none" stroke="green" stroke-width="1.20472" d="M463.266,-532.648C431.29,-526.009 375.437,-509.843 343.577,-474.156 323.685,-451.875 314.783,-418.837 310.8,-393.426"/>
<polygon fill="green" stroke="green" stroke-width="1.20472" points="314.251,-392.833 309.418,-383.405 307.317,-393.789 314.251,-392.833"/>
</g>
<!-- 12629 -->
<g id="node45" class="node"><title>12629</title>
<ellipse fill="white" stroke="black" cx="492.577" cy="-446.579" rx="27.6545" ry="27.6545"/>
<text text-anchor="middle" x="492.577" y="-444.379" font-family="Times,serif" font-size="9.00">12629</text>
</g>
<!-- 7718&#45;&gt;12629 -->
<g id="edge52" class="edge"><title>7718&#45;&gt;12629</title>
<path fill="none" stroke="red" stroke-width="0.422154" d="M488.917,-512.842C489.406,-504.13 489.97,-494.063 490.507,-484.484"/>
<polygon fill="red" stroke="red" stroke-width="0.422154" points="494.009,-484.548 491.075,-474.368 487.02,-484.156 494.009,-484.548"/>
</g>
<!-- 7718&#45;&gt;6507 -->
<g id="edge26" class="edge"><title>7718&#45;&gt;6507</title>
<path fill="none" stroke="green" stroke-width="0.393482" stroke-dasharray="1,5" d="M475.43,-515.829C468.88,-503.911 461.042,-488.527 455.577,-474.156 431.696,-411.361 458.441,-381.175 417.577,-327.848 398.111,-302.444 365.184,-285.69 340.416,-275.967"/>
<polygon fill="green" stroke="green" stroke-width="0.393482" points="341.628,-272.683 331.035,-272.462 339.178,-279.24 341.628,-272.683"/>
</g>
<!-- 7718&#45;&gt;11243 -->
<g id="edge34" class="edge"><title>7718&#45;&gt;11243</title>
<path fill="none" stroke="green" stroke-width="0.637928" d="M503.837,-518.807C513.37,-507.044 524.508,-490.804 529.577,-474.156 536.717,-450.706 536.044,-442.647 529.577,-419.002 526.467,-407.631 520.701,-396.227 514.63,-386.328"/>
<polygon fill="green" stroke="green" stroke-width="0.637928" points="517.416,-384.19 509.038,-377.704 511.542,-387.999 517.416,-384.19"/>
</g>
<!-- 16436&#45;&gt;6507 -->
<g id="edge24" class="edge"><title>16436&#45;&gt;6507</title>
<path fill="none" stroke="red" stroke-width="0.852665" d="M694.101,-429.237C689.373,-425.777 684.351,-422.205 679.577,-419.002 614.798,-375.535 601.11,-358.973 529.577,-327.848 465.84,-300.115 386.47,-281.22 341.971,-271.929"/>
<polygon fill="red" stroke="red" stroke-width="0.852665" points="342.466,-268.458 331.967,-269.88 341.062,-275.315 342.466,-268.458"/>
</g>
<!-- 16436&#45;&gt;11243 -->
<g id="edge50" class="edge"><title>16436&#45;&gt;11243</title>
<path fill="none" stroke="red" stroke-width="0.277634" d="M694.645,-428.307C689.883,-424.904 684.71,-421.591 679.577,-419.002 631.002,-394.497 614.035,-400.667 562.577,-383.002 551.071,-379.052 538.622,-374.438 527.458,-370.174"/>
<polygon fill="red" stroke="red" stroke-width="0.277634" points="528.624,-366.872 518.034,-366.542 526.106,-373.404 528.624,-366.872"/>
</g>
<!-- 12988&#45;&gt;10861 -->
<g id="edge30" class="edge"><title>12988&#45;&gt;10861</title>
<path fill="none" stroke="green" stroke-width="0.222581" stroke-dasharray="1,5" d="M639.777,-509.984C640.137,-501.962 640.539,-493.018 640.922,-484.463"/>
<polygon fill="green" stroke="green" stroke-width="0.222581" points="644.426,-484.456 641.378,-474.31 637.433,-484.143 644.426,-484.456"/>
</g>
<!-- 9931&#45;&gt;12709 -->
<g id="edge4" class="edge"><title>9931&#45;&gt;12709</title>
<path fill="none" stroke="green" stroke-width="0.199444" d="M166.179,-522.409C185.649,-508.181 215.775,-486.166 238.318,-469.692"/>
<polygon fill="green" stroke="green" stroke-width="0.199444" points="240.539,-472.404 246.548,-463.678 236.409,-466.752 240.539,-472.404"/>
</g>
<!-- 9931&#45;&gt;6507 -->
<g id="edge28" class="edge"><title>9931&#45;&gt;6507</title>
<path fill="none" stroke="red" stroke-width="0.6501" d="M151.315,-513.43C160.495,-472.603 183.766,-386.88 227.577,-327.848 240.966,-309.807 260.843,-294.224 277.434,-283.121"/>
<polygon fill="red" stroke="red" stroke-width="0.6501" points="279.75,-285.792 286.251,-277.426 275.952,-279.912 279.75,-285.792"/>
</g>
<!-- 13515 -->
<g id="node42" class="node"><title>13515</title>
<ellipse fill="white" stroke="black" cx="380.577" cy="-446.579" rx="27.6545" ry="27.6545"/>
<text text-anchor="middle" x="380.577" y="-444.379" font-family="Times,serif" font-size="9.00">13515</text>
</g>
<!-- 13515&#45;&gt;11577 -->
<g id="edge18" class="edge"><title>13515&#45;&gt;11577</title>
<path fill="none" stroke="red" stroke-width="0.876663" d="M380.577,-418.83C380.577,-410.808 380.577,-401.863 380.577,-393.309"/>
<polygon fill="red" stroke="red" stroke-width="0.876663" points="384.077,-393.155 380.577,-383.155 377.077,-393.155 384.077,-393.155"/>
</g>
<!-- 10705&#45;&gt;6507 -->
<g id="edge5" class="edge"><title>10705&#45;&gt;6507</title>
<path fill="none" stroke="red" stroke-width="1.04729" d="M307.577,-327.676C307.577,-318.806 307.577,-308.81 307.577,-299.459"/>
<polygon fill="red" stroke="red" stroke-width="1.04729" points="311.077,-299.27 307.577,-289.27 304.077,-299.27 311.077,-299.27"/>
</g>
<!-- 12501 -->
<g id="node44" class="node"><title>12501</title>
<ellipse fill="white" stroke="black" cx="187.577" cy="-720.042" rx="27.6545" ry="27.6545"/>
<text text-anchor="middle" x="187.577" y="-717.842" font-family="Times,serif" font-size="9.00">12501</text>
</g>
<!-- 12501&#45;&gt;10472 -->
<g id="edge37" class="edge"><title>12501&#45;&gt;10472</title>
<path fill="none" stroke="green" stroke-width="0.937222" d="M187.577,-692.293C187.577,-684.271 187.577,-675.326 187.577,-666.772"/>
<polygon fill="green" stroke="green" stroke-width="0.937222" points="191.077,-666.618 187.577,-656.618 184.077,-666.618 191.077,-666.618"/>
</g>
<!-- 12629&#45;&gt;11243 -->
<g id="edge54" class="edge"><title>12629&#45;&gt;11243</title>
<path fill="none" stroke="green" stroke-width="1.30458" d="M492.577,-418.83C492.577,-410.808 492.577,-401.863 492.577,-393.309"/>
<polygon fill="green" stroke="green" stroke-width="1.30458" points="496.077,-393.155 492.577,-383.155 489.077,-393.155 496.077,-393.155"/>
</g>
<!-- 10472&#45;&gt;9931 -->
<g id="edge49" class="edge"><title>10472&#45;&gt;9931</title>
<path fill="none" stroke="green" stroke-width="0.482391" d="M176.374,-603.526C171.606,-593.158 165.987,-580.94 160.921,-569.924"/>
<polygon fill="green" stroke="green" stroke-width="0.482391" points="164.004,-568.252 156.646,-560.629 157.645,-571.177 164.004,-568.252"/>
</g>
<!-- 6507&#45;&gt;4505 -->
<g id="edge42" class="edge"><title>6507&#45;&gt;4505</title>
<path fill="none" stroke="red" stroke-width="0.126718" stroke-dasharray="1,5" d="M307.577,-239.224C307.577,-230.525 307.577,-220.527 307.577,-211.124"/>
<polygon fill="red" stroke="red" stroke-width="0.126718" points="311.077,-210.862 307.577,-200.862 304.077,-210.862 311.077,-210.862"/>
</g>
<!-- 11243&#45;&gt;6507 -->
<g id="edge3" class="edge"><title>11243&#45;&gt;6507</title>
<path fill="none" stroke="red" stroke-width="0.597374" d="M469.844,-339.16C463.701,-335.279 456.978,-331.248 450.577,-327.848 413.595,-308.201 369.154,-289.471 339.735,-277.711"/>
<polygon fill="red" stroke="red" stroke-width="0.597374" points="340.953,-274.428 330.367,-273.998 338.374,-280.936 340.953,-274.428"/>
</g>
<!-- 10861&#45;&gt;2831 -->
<g id="edge22" class="edge"><title>10861&#45;&gt;2831</title>
<path fill="none" stroke="green" stroke-width="0.487122" d="M624.089,-426.035C567.28,-365.981 395.271,-184.149 331.609,-116.851"/>
<polygon fill="green" stroke="green" stroke-width="0.487122" points="333.812,-114.087 324.397,-109.228 328.726,-118.897 333.812,-114.087"/>
</g>
<!-- 13815&#45;&gt;2831 -->
<g id="edge11" class="edge"><title>13815&#45;&gt;2831</title>
<path fill="none" stroke="green" stroke-width="0.189365" d="M292.212,-529.354C239.698,-513.055 123.097,-468.471 76.5772,-383.002 21.5968,-281.989 103.482,-225.127 191.577,-151.196 216.7,-130.112 250.509,-113.766 275.143,-103.542"/>
<polygon fill="green" stroke="green" stroke-width="0.189365" points="276.462,-106.784 284.427,-99.7974 273.844,-100.292 276.462,-106.784"/>
</g>
<!-- 13815&#45;&gt;13515 -->
<g id="edge35" class="edge"><title>13815&#45;&gt;13515</title>
<path fill="none" stroke="red" stroke-width="0.595058" d="M333.903,-514.695C341.579,-503.658 350.994,-490.119 359.353,-478.099"/>
<polygon fill="red" stroke="red" stroke-width="0.595058" points="362.377,-479.881 365.213,-469.673 356.63,-475.885 362.377,-479.881"/>
</g>
<!-- 13815&#45;&gt;6507 -->
<g id="edge21" class="edge"><title>13815&#45;&gt;6507</title>
<path fill="none" stroke="green" stroke-width="0.803342" d="M293.143,-526.405C272.357,-516.437 244.391,-499.158 231.577,-474.156 199.301,-411.183 252.255,-331.253 284.901,-290.966"/>
<polygon fill="green" stroke="green" stroke-width="0.803342" points="287.633,-293.154 291.324,-283.223 282.246,-288.685 287.633,-293.154"/>
</g>
<!-- 12795&#45;&gt;10861 -->
<g id="edge31" class="edge"><title>12795&#45;&gt;10861</title>
<path fill="none" stroke="red" stroke-width="0.13603" d="M694.874,-515.152C686.06,-503.763 675.111,-489.616 665.513,-477.214"/>
<polygon fill="red" stroke="red" stroke-width="0.13603" points="668.015,-474.728 659.126,-468.962 662.479,-479.013 668.015,-474.728"/>
</g>
</g>
</svg>
