<?xml version="1.0" encoding="UTF-8" standalone="no"?>
<!DOCTYPE svg PUBLIC "-//W3C//DTD SVG 1.1//EN"
 "http://www.w3.org/Graphics/SVG/1.1/DTD/svg11.dtd">
<!-- Generated by graphviz version 2.38.0 (20140413.2041)
 -->
<!-- Title: %3 Pages: 1 -->
<svg width="1352pt" height="653pt"
 viewBox="0.00 0.00 1351.58 652.77" xmlns="http://www.w3.org/2000/svg" xmlns:xlink="http://www.w3.org/1999/xlink">
<g id="graph0" class="graph" transform="scale(1 1) rotate(0) translate(4 648.767)">
<title>%3</title>
<polygon fill="white" stroke="none" points="-4,4 -4,-648.767 1347.58,-648.767 1347.58,4 -4,4"/>
<!-- &#45;1 -->
<g id="node1" class="node"><title>&#45;1</title>
<polygon fill="lightgray" stroke="black" points="745,-644.767 721,-644.767 721,-626.767 745,-626.767 745,-644.767"/>
<text text-anchor="middle" x="733" y="-633.567" font-family="Times,serif" font-size="9.00">&#45;1</text>
</g>
<!-- 0 -->
<g id="node25" class="node"><title>0</title>
<ellipse fill="lightblue" stroke="black" cx="279" cy="-380.881" rx="14.7" ry="14.7"/>
<text text-anchor="middle" x="279" y="-378.681" font-family="Times,serif" font-size="9.00">0</text>
</g>
<!-- &#45;1&#45;&gt;0 -->
<g id="edge13" class="edge"><title>&#45;1&#45;&gt;0</title>
<path fill="none" stroke="red" stroke-width="0.350821" stroke-dasharray="1,5" d="M720.614,-633.259C651.521,-624.573 314.702,-578.535 255,-499.612 233.352,-470.994 251.634,-427.676 265.958,-402.337"/>
<polygon fill="red" stroke="red" stroke-width="0.350821" points="269.066,-403.959 271.163,-393.573 263.047,-400.384 269.066,-403.959"/>
</g>
<!-- 1 -->
<g id="node26" class="node"><title>1</title>
<ellipse fill="lightblue" stroke="black" cx="752" cy="-380.881" rx="14.7" ry="14.7"/>
<text text-anchor="middle" x="752" y="-378.681" font-family="Times,serif" font-size="9.00">1</text>
</g>
<!-- &#45;1&#45;&gt;1 -->
<g id="edge16" class="edge"><title>&#45;1&#45;&gt;1</title>
<path fill="none" stroke="green" stroke-width="0.13354" stroke-dasharray="1,5" d="M745.223,-628.675C759.265,-621.219 782.375,-607.499 798,-590.767 829.985,-556.515 838.802,-544.86 851,-499.612 857.381,-475.944 862.829,-465.928 851,-444.458 835.103,-415.603 799.672,-398.206 775.802,-389.322"/>
<polygon fill="green" stroke="green" stroke-width="0.13354" points="776.659,-385.915 766.065,-385.928 774.355,-392.525 776.659,-385.915"/>
</g>
<!-- 3 -->
<g id="node28" class="node"><title>3</title>
<ellipse fill="lightblue" stroke="black" cx="596" cy="-380.881" rx="14.7" ry="14.7"/>
<text text-anchor="middle" x="596" y="-378.681" font-family="Times,serif" font-size="9.00">3</text>
</g>
<!-- &#45;1&#45;&gt;3 -->
<g id="edge55" class="edge"><title>&#45;1&#45;&gt;3</title>
<path fill="none" stroke="red" stroke-width="0.363256" stroke-dasharray="1,5" d="M722.684,-626.58C699.175,-607.284 641.604,-556.288 615,-499.612 600.886,-469.545 597,-430.926 596.066,-406.283"/>
<polygon fill="red" stroke="red" stroke-width="0.363256" points="599.559,-405.937 595.818,-396.024 592.561,-406.106 599.559,-405.937"/>
</g>
<!-- 10026 -->
<g id="node32" class="node"><title>10026</title>
<ellipse fill="white" stroke="black" cx="982" cy="-563.189" rx="27.6545" ry="27.6545"/>
<text text-anchor="middle" x="982" y="-560.989" font-family="Times,serif" font-size="9.00">10026</text>
</g>
<!-- &#45;1&#45;&gt;10026 -->
<g id="edge43" class="edge"><title>&#45;1&#45;&gt;10026</title>
<path fill="none" stroke="red" stroke-width="0.137425" d="M745.366,-629.83C748.186,-628.767 751.182,-627.688 754,-626.767 763.24,-623.746 883.674,-590.924 945.663,-574.064"/>
<polygon fill="red" stroke="red" stroke-width="0.137425" points="946.712,-577.406 955.443,-571.405 944.875,-570.652 946.712,-577.406"/>
</g>
<!-- &#45;2 -->
<g id="node2" class="node"><title>&#45;2</title>
<polygon fill="lightgray" stroke="black" points="336,-481.035 312,-481.035 312,-463.035 336,-463.035 336,-481.035"/>
<text text-anchor="middle" x="324" y="-469.835" font-family="Times,serif" font-size="9.00">&#45;2</text>
</g>
<!-- &#45;2&#45;&gt;0 -->
<g id="edge3" class="edge"><title>&#45;2&#45;&gt;0</title>
<path fill="none" stroke="green" stroke-width="0.141419" stroke-dasharray="1,5" d="M319.847,-462.807C313.14,-449.519 299.702,-422.896 290.07,-403.812"/>
<polygon fill="green" stroke="green" stroke-width="0.141419" points="293.066,-401.981 285.435,-394.631 286.817,-405.135 293.066,-401.981"/>
</g>
<!-- 2 -->
<g id="node27" class="node"><title>2</title>
<ellipse fill="lightblue" stroke="black" cx="390" cy="-110.246" rx="14.7" ry="14.7"/>
<text text-anchor="middle" x="390" y="-108.046" font-family="Times,serif" font-size="9.00">2</text>
</g>
<!-- &#45;2&#45;&gt;2 -->
<g id="edge39" class="edge"><title>&#45;2&#45;&gt;2</title>
<path fill="none" stroke="green" stroke-width="1.07389" stroke-dasharray="1,5" d="M324.813,-463.018C327.707,-435.131 338.127,-339.822 353,-262.149 361.72,-216.61 375.411,-164.192 383.466,-134.663"/>
<polygon fill="green" stroke="green" stroke-width="1.07389" points="386.881,-135.445 386.159,-124.875 380.132,-133.588 386.881,-135.445"/>
</g>
<!-- &#45;3 -->
<g id="node3" class="node"><title>&#45;3</title>
<polygon fill="lightgray" stroke="black" points="306,-207.572 282,-207.572 282,-189.572 306,-189.572 306,-207.572"/>
<text text-anchor="middle" x="294" y="-196.372" font-family="Times,serif" font-size="9.00">&#45;3</text>
</g>
<!-- &#45;3&#45;&gt;2 -->
<g id="edge29" class="edge"><title>&#45;3&#45;&gt;2</title>
<path fill="none" stroke="green" stroke-width="0.224379" d="M301.555,-189.478C306.649,-184.114 313.586,-176.988 320,-170.995 336.629,-155.458 356.424,-138.713 370.714,-126.915"/>
<polygon fill="green" stroke="green" stroke-width="0.224379" points="373.311,-129.312 378.822,-120.263 368.871,-123.9 373.311,-129.312"/>
</g>
<!-- &#45;4 -->
<g id="node4" class="node"><title>&#45;4</title>
<polygon fill="lightgray" stroke="black" points="473,-481.035 449,-481.035 449,-463.035 473,-463.035 473,-481.035"/>
<text text-anchor="middle" x="461" y="-469.835" font-family="Times,serif" font-size="9.00">&#45;4</text>
</g>
<!-- &#45;4&#45;&gt;0 -->
<g id="edge46" class="edge"><title>&#45;4&#45;&gt;0</title>
<path fill="none" stroke="red" stroke-width="0.181407" d="M455.728,-462.637C451.738,-456.86 445.795,-449.372 439,-444.458 396.439,-413.681 336.725,-395.636 303.594,-387.369"/>
<polygon fill="red" stroke="red" stroke-width="0.181407" points="303.981,-383.863 293.441,-384.937 302.35,-390.67 303.981,-383.863"/>
</g>
<!-- &#45;4&#45;&gt;1 -->
<g id="edge62" class="edge"><title>&#45;4&#45;&gt;1</title>
<path fill="none" stroke="red" stroke-width="0.163529" stroke-dasharray="1,5" d="M465.433,-462.826C469.095,-456.831 474.845,-448.988 482,-444.458 542.118,-406.394 568.685,-424.536 638,-408.458 668.933,-401.283 704.576,-392.965 727.655,-387.573"/>
<polygon fill="red" stroke="red" stroke-width="0.163529" points="728.665,-390.931 737.606,-385.247 727.071,-384.115 728.665,-390.931"/>
</g>
<!-- &#45;4&#45;&gt;3 -->
<g id="edge26" class="edge"><title>&#45;4&#45;&gt;3</title>
<path fill="none" stroke="red" stroke-width="0.382589" stroke-dasharray="1,5" d="M466.156,-462.885C470.023,-457.225 475.714,-449.775 482,-444.458 510.055,-420.729 548.514,-401.879 572.809,-391.295"/>
<polygon fill="red" stroke="red" stroke-width="0.382589" points="574.444,-394.404 582.283,-387.275 571.71,-387.96 574.444,-394.404"/>
</g>
<!-- &#45;5 -->
<g id="node5" class="node"><title>&#45;5</title>
<polygon fill="lightgray" stroke="black" points="648,-481.035 624,-481.035 624,-463.035 648,-463.035 648,-481.035"/>
<text text-anchor="middle" x="636" y="-469.835" font-family="Times,serif" font-size="9.00">&#45;5</text>
</g>
<!-- &#45;5&#45;&gt;0 -->
<g id="edge53" class="edge"><title>&#45;5&#45;&gt;0</title>
<path fill="none" stroke="red" stroke-width="2.0229" d="M623.885,-464.764C611.97,-458.816 593.13,-449.989 576,-444.458 477.66,-412.705 355.696,-392.878 304.012,-385.339"/>
<polygon fill="red" stroke="red" stroke-width="2.0229" points="304.203,-381.831 293.808,-383.878 303.211,-388.76 304.203,-381.831"/>
</g>
<!-- &#45;5&#45;&gt;1 -->
<g id="edge17" class="edge"><title>&#45;5&#45;&gt;1</title>
<path fill="none" stroke="red" stroke-width="0.355475" stroke-dasharray="1,5" d="M641.162,-462.892C645.032,-457.235 650.724,-449.786 657,-444.458 682.174,-423.084 695.034,-427.522 722,-408.458 726.183,-405.501 730.442,-402.046 734.386,-398.625"/>
<polygon fill="red" stroke="red" stroke-width="0.355475" points="736.844,-401.121 741.917,-391.819 732.151,-395.928 736.844,-401.121"/>
</g>
<!-- &#45;5&#45;&gt;3 -->
<g id="edge49" class="edge"><title>&#45;5&#45;&gt;3</title>
<path fill="none" stroke="green" stroke-width="0.699142" stroke-dasharray="1,5" d="M632.309,-462.807C626.347,-449.519 614.402,-422.896 605.84,-403.812"/>
<polygon fill="green" stroke="green" stroke-width="0.699142" points="609.007,-402.322 601.72,-394.631 602.621,-405.187 609.007,-402.322"/>
</g>
<!-- 10810 -->
<g id="node38" class="node"><title>10810</title>
<ellipse fill="white" stroke="black" cx="995" cy="-289.726" rx="27.6545" ry="27.6545"/>
<text text-anchor="middle" x="995" y="-287.526" font-family="Times,serif" font-size="9.00">10810</text>
</g>
<!-- &#45;5&#45;&gt;10810 -->
<g id="edge2" class="edge"><title>&#45;5&#45;&gt;10810</title>
<path fill="none" stroke="red" stroke-width="0.378088" d="M639.733,-462.737C650.127,-440.695 681.708,-380.512 728,-353.304 817.2,-300.876 862.267,-356.553 958,-317.304 960.52,-316.27 963.032,-315.034 965.492,-313.668"/>
<polygon fill="red" stroke="red" stroke-width="0.378088" points="967.474,-316.557 974.095,-308.285 963.762,-310.622 967.474,-316.557"/>
</g>
<!-- &#45;6 -->
<g id="node6" class="node"><title>&#45;6</title>
<polygon fill="lightgray" stroke="black" points="949,-298.726 925,-298.726 925,-280.726 949,-280.726 949,-298.726"/>
<text text-anchor="middle" x="937" y="-287.526" font-family="Times,serif" font-size="9.00">&#45;6</text>
</g>
<!-- 9899 -->
<g id="node33" class="node"><title>9899</title>
<ellipse fill="white" stroke="black" cx="995" cy="-198.572" rx="25" ry="25"/>
<text text-anchor="middle" x="995" y="-196.372" font-family="Times,serif" font-size="9.00">9899</text>
</g>
<!-- &#45;6&#45;&gt;9899 -->
<g id="edge8" class="edge"><title>&#45;6&#45;&gt;9899</title>
<path fill="none" stroke="green" stroke-width="0.612364" d="M942.353,-280.499C950.016,-268.718 964.498,-246.458 976.336,-228.262"/>
<polygon fill="green" stroke="green" stroke-width="0.612364" points="979.374,-230.01 981.893,-219.719 973.506,-226.193 979.374,-230.01"/>
</g>
<!-- &#45;7 -->
<g id="node7" class="node"><title>&#45;7</title>
<polygon fill="lightgray" stroke="black" points="789,-572.189 765,-572.189 765,-554.189 789,-554.189 789,-572.189"/>
<text text-anchor="middle" x="777" y="-560.989" font-family="Times,serif" font-size="9.00">&#45;7</text>
</g>
<!-- 10337 -->
<g id="node29" class="node"><title>10337</title>
<ellipse fill="white" stroke="black" cx="814" cy="-472.035" rx="27.6545" ry="27.6545"/>
<text text-anchor="middle" x="814" y="-469.835" font-family="Times,serif" font-size="9.00">10337</text>
</g>
<!-- &#45;7&#45;&gt;10337 -->
<g id="edge45" class="edge"><title>&#45;7&#45;&gt;10337</title>
<path fill="none" stroke="red" stroke-width="0.349933" d="M780.415,-553.962C784.811,-543.368 792.726,-524.298 799.767,-507.33"/>
<polygon fill="red" stroke="red" stroke-width="0.349933" points="803.179,-508.24 803.779,-497.662 796.714,-505.557 803.179,-508.24"/>
</g>
<!-- 10561 -->
<g id="node30" class="node"><title>10561</title>
<ellipse fill="white" stroke="black" cx="741" cy="-472.035" rx="27.6545" ry="27.6545"/>
<text text-anchor="middle" x="741" y="-469.835" font-family="Times,serif" font-size="9.00">10561</text>
</g>
<!-- &#45;7&#45;&gt;10561 -->
<g id="edge30" class="edge"><title>&#45;7&#45;&gt;10561</title>
<path fill="none" stroke="red" stroke-width="0.823989" d="M773.678,-553.962C769.429,-543.44 761.804,-524.557 754.988,-507.676"/>
<polygon fill="red" stroke="red" stroke-width="0.823989" points="758.09,-506.01 751.1,-498.047 751.599,-508.631 758.09,-506.01"/>
</g>
<!-- &#45;8 -->
<g id="node8" class="node"><title>&#45;8</title>
<polygon fill="lightgray" stroke="black" points="208,-481.035 184,-481.035 184,-463.035 208,-463.035 208,-481.035"/>
<text text-anchor="middle" x="196" y="-469.835" font-family="Times,serif" font-size="9.00">&#45;8</text>
</g>
<!-- &#45;8&#45;&gt;0 -->
<g id="edge67" class="edge"><title>&#45;8&#45;&gt;0</title>
<path fill="none" stroke="green" stroke-width="0.547369" stroke-dasharray="1,5" d="M203.66,-462.807C216.933,-448.55 244.498,-418.941 262.35,-399.765"/>
<polygon fill="green" stroke="green" stroke-width="0.547369" points="265.085,-401.965 269.337,-392.261 259.961,-397.195 265.085,-401.965"/>
</g>
<!-- &#45;9 -->
<g id="node9" class="node"><title>&#45;9</title>
<polygon fill="lightgray" stroke="black" points="24,-481.035 0,-481.035 0,-463.035 24,-463.035 24,-481.035"/>
<text text-anchor="middle" x="12" y="-469.835" font-family="Times,serif" font-size="9.00">&#45;9</text>
</g>
<!-- &#45;9&#45;&gt;0 -->
<g id="edge11" class="edge"><title>&#45;9&#45;&gt;0</title>
<path fill="none" stroke="red" stroke-width="0.957157" d="M16.4625,-462.872C20.1398,-456.9 25.8963,-449.067 33,-444.458 104.015,-398.377 206.971,-386.217 253.944,-383.018"/>
<polygon fill="red" stroke="red" stroke-width="0.957157" points="254.344,-386.5 264.117,-382.408 253.925,-379.513 254.344,-386.5"/>
</g>
<!-- &#45;9&#45;&gt;2 -->
<g id="edge6" class="edge"><title>&#45;9&#45;&gt;2</title>
<path fill="none" stroke="red" stroke-width="0.399827" d="M12.9579,-462.904C18.072,-423.403 45.8759,-250.223 148,-170.995 213.822,-119.93 317.493,-111.878 364.871,-111.026"/>
<polygon fill="red" stroke="red" stroke-width="0.399827" points="364.903,-114.526 374.873,-110.94 364.843,-107.526 364.903,-114.526"/>
</g>
<!-- &#45;10 -->
<g id="node10" class="node"><title>&#45;10</title>
<polygon fill="lightgray" stroke="black" points="383.5,-481.035 354.5,-481.035 354.5,-463.035 383.5,-463.035 383.5,-481.035"/>
<text text-anchor="middle" x="369" y="-469.835" font-family="Times,serif" font-size="9.00">&#45;10</text>
</g>
<!-- &#45;10&#45;&gt;0 -->
<g id="edge25" class="edge"><title>&#45;10&#45;&gt;0</title>
<path fill="none" stroke="green" stroke-width="0.395427" d="M362.016,-462.979C357.31,-457.631 350.906,-450.509 345,-444.458 329.291,-428.363 310.631,-410.806 297.167,-398.396"/>
<polygon fill="green" stroke="green" stroke-width="0.395427" points="299.264,-395.571 289.528,-391.394 294.534,-400.731 299.264,-395.571"/>
</g>
<!-- &#45;10&#45;&gt;3 -->
<g id="edge14" class="edge"><title>&#45;10&#45;&gt;3</title>
<path fill="none" stroke="green" stroke-width="0.327659" d="M374.128,-462.98C378.281,-457.065 384.638,-449.255 392,-444.458 449.572,-406.941 530.817,-390.938 571.202,-384.969"/>
<polygon fill="green" stroke="green" stroke-width="0.327659" points="571.809,-388.418 581.23,-383.571 570.843,-381.485 571.809,-388.418"/>
</g>
<!-- &#45;11 -->
<g id="node11" class="node"><title>&#45;11</title>
<polygon fill="lightgray" stroke="black" points="118.5,-481.035 89.5,-481.035 89.5,-463.035 118.5,-463.035 118.5,-481.035"/>
<text text-anchor="middle" x="104" y="-469.835" font-family="Times,serif" font-size="9.00">&#45;11</text>
</g>
<!-- &#45;11&#45;&gt;0 -->
<g id="edge20" class="edge"><title>&#45;11&#45;&gt;0</title>
<path fill="none" stroke="green" stroke-width="0.12581" stroke-dasharray="1,5" d="M109.617,-462.684C113.838,-456.93 120.067,-449.449 127,-444.458 167.367,-415.396 223.227,-396.9 254.77,-388.054"/>
<polygon fill="green" stroke="green" stroke-width="0.12581" points="255.742,-391.417 264.478,-385.422 253.911,-384.66 255.742,-391.417"/>
</g>
<!-- &#45;11&#45;&gt;2 -->
<g id="edge58" class="edge"><title>&#45;11&#45;&gt;2</title>
<path fill="none" stroke="red" stroke-width="0.856083" stroke-dasharray="1,5" d="M107.019,-462.777C123.896,-416.782 206.623,-193.451 230,-170.995 268.012,-134.481 330.381,-119.867 364.953,-114.346"/>
<polygon fill="red" stroke="red" stroke-width="0.856083" points="365.746,-117.767 375.134,-112.856 364.733,-110.84 365.746,-117.767"/>
</g>
<!-- 8619 -->
<g id="node35" class="node"><title>8619</title>
<ellipse fill="white" stroke="black" cx="468" cy="-24.7487" rx="25" ry="25"/>
<text text-anchor="middle" x="468" y="-22.5487" font-family="Times,serif" font-size="9.00">8619</text>
</g>
<!-- &#45;11&#45;&gt;8619 -->
<g id="edge5" class="edge"><title>&#45;11&#45;&gt;8619</title>
<path fill="none" stroke="red" stroke-width="0.479462" stroke-dasharray="1,5" d="M104.155,-462.889C105.313,-424.72 115.114,-261.631 198,-170.995 265.293,-97.4096 378.689,-53.7401 434.674,-35.6087"/>
<polygon fill="red" stroke="red" stroke-width="0.479462" points="435.958,-38.8735 444.436,-32.5189 433.846,-32.1999 435.958,-38.8735"/>
</g>
<!-- &#45;12 -->
<g id="node12" class="node"><title>&#45;12</title>
<polygon fill="lightgray" stroke="black" points="1130.5,-481.035 1101.5,-481.035 1101.5,-463.035 1130.5,-463.035 1130.5,-481.035"/>
<text text-anchor="middle" x="1116" y="-469.835" font-family="Times,serif" font-size="9.00">&#45;12</text>
</g>
<!-- &#45;12&#45;&gt;1 -->
<g id="edge24" class="edge"><title>&#45;12&#45;&gt;1</title>
<path fill="none" stroke="green" stroke-width="0.152581" stroke-dasharray="1,5" d="M1101.38,-465.037C1086.78,-459.209 1063.61,-450.394 1043,-444.458 945.85,-416.471 827.231,-394.713 776.698,-386.009"/>
<polygon fill="green" stroke="green" stroke-width="0.152581" points="777.156,-382.536 766.71,-384.306 775.98,-389.437 777.156,-382.536"/>
</g>
<!-- &#45;12&#45;&gt;8619 -->
<g id="edge9" class="edge"><title>&#45;12&#45;&gt;8619</title>
<path fill="none" stroke="green" stroke-width="0.37579" d="M1117.65,-462.808C1122.6,-437.347 1137,-357.539 1137,-290.726 1137,-290.726 1137,-290.726 1137,-197.572 1137,-65.3621 640.654,-33.4305 503.016,-27.1174"/>
<polygon fill="green" stroke="green" stroke-width="0.37579" points="503.149,-23.6199 493.005,-26.6748 502.84,-30.6131 503.149,-23.6199"/>
</g>
<!-- &#45;13 -->
<g id="node13" class="node"><title>&#45;13</title>
<polygon fill="lightgray" stroke="black" points="293.5,-481.035 264.5,-481.035 264.5,-463.035 293.5,-463.035 293.5,-481.035"/>
<text text-anchor="middle" x="279" y="-469.835" font-family="Times,serif" font-size="9.00">&#45;13</text>
</g>
<!-- &#45;13&#45;&gt;0 -->
<g id="edge65" class="edge"><title>&#45;13&#45;&gt;0</title>
<path fill="none" stroke="green" stroke-width="1.07867" d="M279,-462.807C279,-450.051 279,-425.007 279,-406.14"/>
<polygon fill="green" stroke="green" stroke-width="1.07867" points="282.5,-405.885 279,-395.885 275.5,-405.885 282.5,-405.885"/>
</g>
<!-- &#45;14 -->
<g id="node14" class="node"><title>&#45;14</title>
<polygon fill="lightgray" stroke="black" points="567.5,-481.035 538.5,-481.035 538.5,-463.035 567.5,-463.035 567.5,-481.035"/>
<text text-anchor="middle" x="553" y="-469.835" font-family="Times,serif" font-size="9.00">&#45;14</text>
</g>
<!-- &#45;14&#45;&gt;1 -->
<g id="edge70" class="edge"><title>&#45;14&#45;&gt;1</title>
<path fill="none" stroke="green" stroke-width="0.32351" stroke-dasharray="1,5" d="M567.633,-464.479C602.046,-449.062 688.298,-410.42 729.459,-391.98"/>
<polygon fill="green" stroke="green" stroke-width="0.32351" points="730.971,-395.137 738.666,-387.854 728.109,-388.749 730.971,-395.137"/>
</g>
<!-- &#45;14&#45;&gt;2 -->
<g id="edge21" class="edge"><title>&#45;14&#45;&gt;2</title>
<path fill="none" stroke="green" stroke-width="0.187089" d="M550.271,-462.906C538.202,-427.333 487.609,-282.185 429,-170.995 421.708,-157.16 412.123,-142.44 404.28,-131.072"/>
<polygon fill="green" stroke="green" stroke-width="0.187089" points="407.051,-128.928 398.441,-122.754 401.322,-132.95 407.051,-128.928"/>
</g>
<!-- &#45;14&#45;&gt;8619 -->
<g id="edge56" class="edge"><title>&#45;14&#45;&gt;8619</title>
<path fill="none" stroke="red" stroke-width="0.4485" d="M552.529,-462.771C551.115,-437.206 547,-357.127 547,-290.726 547,-290.726 547,-290.726 547,-197.572 547,-142.116 512.609,-85.0401 489.21,-52.6231"/>
<polygon fill="red" stroke="red" stroke-width="0.4485" points="491.993,-50.5003 483.232,-44.5421 486.365,-54.6631 491.993,-50.5003"/>
</g>
<!-- &#45;15 -->
<g id="node15" class="node"><title>&#45;15</title>
<polygon fill="lightgray" stroke="black" points="792.5,-644.767 763.5,-644.767 763.5,-626.767 792.5,-626.767 792.5,-644.767"/>
<text text-anchor="middle" x="778" y="-633.567" font-family="Times,serif" font-size="9.00">&#45;15</text>
</g>
<!-- &#45;16 -->
<g id="node16" class="node"><title>&#45;16</title>
<polygon fill="lightgray" stroke="black" points="520.5,-481.035 491.5,-481.035 491.5,-463.035 520.5,-463.035 520.5,-481.035"/>
<text text-anchor="middle" x="506" y="-469.835" font-family="Times,serif" font-size="9.00">&#45;16</text>
</g>
<!-- &#45;16&#45;&gt;0 -->
<g id="edge28" class="edge"><title>&#45;16&#45;&gt;0</title>
<path fill="none" stroke="red" stroke-width="0.298888" d="M500.573,-462.989C496.199,-457.079 489.548,-449.271 482,-444.458 424.32,-407.677 343.649,-391.343 303.588,-385.136"/>
<polygon fill="red" stroke="red" stroke-width="0.298888" points="304.044,-381.666 293.642,-383.676 303.027,-388.592 304.044,-381.666"/>
</g>
<!-- &#45;16&#45;&gt;1 -->
<g id="edge41" class="edge"><title>&#45;16&#45;&gt;1</title>
<path fill="none" stroke="red" stroke-width="0.224999" stroke-dasharray="1,5" d="M511.095,-462.929C515.231,-456.987 521.581,-449.166 529,-444.458 546.068,-433.626 673.923,-401.198 727.981,-387.787"/>
<polygon fill="red" stroke="red" stroke-width="0.224999" points="728.887,-391.168 737.754,-385.37 727.207,-384.373 728.887,-391.168"/>
</g>
<!-- &#45;17 -->
<g id="node17" class="node"><title>&#45;17</title>
<polygon fill="lightgray" stroke="black" points="927.5,-481.035 898.5,-481.035 898.5,-463.035 927.5,-463.035 927.5,-481.035"/>
<text text-anchor="middle" x="913" y="-469.835" font-family="Times,serif" font-size="9.00">&#45;17</text>
</g>
<!-- &#45;17&#45;&gt;1 -->
<g id="edge60" class="edge"><title>&#45;17&#45;&gt;1</title>
<path fill="none" stroke="red" stroke-width="0.226615" stroke-dasharray="1,5" d="M905.419,-462.897C899.862,-457.243 891.933,-449.795 884,-444.458 848.549,-420.606 802.589,-401.045 775.306,-390.459"/>
<polygon fill="red" stroke="red" stroke-width="0.226615" points="776.416,-387.136 765.825,-386.85 773.926,-393.678 776.416,-387.136"/>
</g>
<!-- &#45;18 -->
<g id="node18" class="node"><title>&#45;18</title>
<polygon fill="lightgray" stroke="black" points="430.5,-481.035 401.5,-481.035 401.5,-463.035 430.5,-463.035 430.5,-481.035"/>
<text text-anchor="middle" x="416" y="-469.835" font-family="Times,serif" font-size="9.00">&#45;18</text>
</g>
<!-- &#45;18&#45;&gt;0 -->
<g id="edge63" class="edge"><title>&#45;18&#45;&gt;0</title>
<path fill="none" stroke="green" stroke-width="0.237989" stroke-dasharray="1,5" d="M409.881,-462.943C405.355,-457.311 398.817,-449.87 392,-444.458 363.416,-421.764 325.505,-402.634 301.679,-391.708"/>
<polygon fill="green" stroke="green" stroke-width="0.237989" points="302.955,-388.444 292.398,-387.541 300.088,-394.83 302.955,-388.444"/>
</g>
<!-- &#45;18&#45;&gt;2 -->
<g id="edge35" class="edge"><title>&#45;18&#45;&gt;2</title>
<path fill="none" stroke="green" stroke-width="0.133489" d="M417.411,-463.033C422.109,-435.194 436.408,-340.024 427,-262.149 421.439,-216.117 406.665,-163.868 397.557,-134.504"/>
<polygon fill="green" stroke="green" stroke-width="0.133489" points="400.833,-133.257 394.485,-124.775 394.158,-135.364 400.833,-133.257"/>
</g>
<!-- &#45;18&#45;&gt;3 -->
<g id="edge47" class="edge"><title>&#45;18&#45;&gt;3</title>
<path fill="none" stroke="green" stroke-width="0.187637" stroke-dasharray="1,5" d="M421.92,-462.676C426.352,-456.918 432.86,-449.436 440,-444.458 481.936,-415.217 539.535,-396.691 571.719,-387.909"/>
<polygon fill="green" stroke="green" stroke-width="0.187637" points="572.823,-391.237 581.6,-385.303 571.038,-384.469 572.823,-391.237"/>
</g>
<!-- 11404 -->
<g id="node34" class="node"><title>11404</title>
<ellipse fill="white" stroke="black" cx="390" cy="-289.726" rx="27.6545" ry="27.6545"/>
<text text-anchor="middle" x="390" y="-287.526" font-family="Times,serif" font-size="9.00">11404</text>
</g>
<!-- &#45;18&#45;&gt;11404 -->
<g id="edge54" class="edge"><title>&#45;18&#45;&gt;11404</title>
<path fill="none" stroke="red" stroke-width="0.15182" d="M414.815,-462.819C411.42,-439.27 401.498,-370.462 395.277,-327.321"/>
<polygon fill="red" stroke="red" stroke-width="0.15182" points="398.711,-326.612 393.819,-317.214 391.782,-327.611 398.711,-326.612"/>
</g>
<!-- &#45;19 -->
<g id="node19" class="node"><title>&#45;19</title>
<polygon fill="lightgray" stroke="black" points="71.5,-481.035 42.5,-481.035 42.5,-463.035 71.5,-463.035 71.5,-481.035"/>
<text text-anchor="middle" x="57" y="-469.835" font-family="Times,serif" font-size="9.00">&#45;19</text>
</g>
<!-- &#45;19&#45;&gt;0 -->
<g id="edge50" class="edge"><title>&#45;19&#45;&gt;0</title>
<path fill="none" stroke="green" stroke-width="0.165135" stroke-dasharray="1,5" d="M62.1374,-462.995C66.2959,-457.087 72.6552,-449.281 80,-444.458 135.896,-407.753 214.683,-391.442 254.263,-385.201"/>
<polygon fill="green" stroke="green" stroke-width="0.165135" points="254.96,-388.636 264.335,-383.699 253.928,-381.712 254.96,-388.636"/>
</g>
<!-- &#45;19&#45;&gt;2 -->
<g id="edge18" class="edge"><title>&#45;19&#45;&gt;2</title>
<path fill="none" stroke="green" stroke-width="0.198786" stroke-dasharray="1,5" d="M58.3599,-462.903C65.2765,-424.113 100.134,-256.242 198,-170.995 246.605,-128.658 324.976,-116.311 364.891,-112.717"/>
<polygon fill="green" stroke="green" stroke-width="0.198786" points="365.378,-116.189 375.073,-111.917 364.83,-109.211 365.378,-116.189"/>
</g>
<!-- &#45;20 -->
<g id="node20" class="node"><title>&#45;20</title>
<polygon fill="lightgray" stroke="black" points="1227.5,-298.726 1198.5,-298.726 1198.5,-280.726 1227.5,-280.726 1227.5,-298.726"/>
<text text-anchor="middle" x="1213" y="-287.526" font-family="Times,serif" font-size="9.00">&#45;20</text>
</g>
<!-- &#45;20&#45;&gt;2 -->
<g id="edge1" class="edge"><title>&#45;20&#45;&gt;2</title>
<path fill="none" stroke="red" stroke-width="0.761674" stroke-dasharray="1,5" d="M1203.89,-280.567C1178.44,-258.336 1103.59,-196.647 1029,-170.995 912.217,-130.835 518.559,-115.425 415.088,-112.015"/>
<polygon fill="red" stroke="red" stroke-width="0.761674" points="415.067,-108.512 404.96,-111.689 414.842,-115.509 415.067,-108.512"/>
</g>
<!-- 11465 -->
<g id="node31" class="node"><title>11465</title>
<ellipse fill="white" stroke="black" cx="1316" cy="-198.572" rx="27.6545" ry="27.6545"/>
<text text-anchor="middle" x="1316" y="-196.372" font-family="Times,serif" font-size="9.00">11465</text>
</g>
<!-- &#45;20&#45;&gt;11465 -->
<g id="edge36" class="edge"><title>&#45;20&#45;&gt;11465</title>
<path fill="none" stroke="green" stroke-width="0.419431" d="M1222.51,-280.499C1237.23,-267.753 1266.13,-242.738 1287.92,-223.876"/>
<polygon fill="green" stroke="green" stroke-width="0.419431" points="1290.32,-226.43 1295.59,-217.239 1285.74,-221.138 1290.32,-226.43"/>
</g>
<!-- 6941 -->
<g id="node39" class="node"><title>6941</title>
<ellipse fill="white" stroke="black" cx="1234" cy="-110.246" rx="25" ry="25"/>
<text text-anchor="middle" x="1234" y="-108.046" font-family="Times,serif" font-size="9.00">6941</text>
</g>
<!-- &#45;20&#45;&gt;6941 -->
<g id="edge33" class="edge"><title>&#45;20&#45;&gt;6941</title>
<path fill="none" stroke="green" stroke-width="0.12645" d="M1213.96,-280.639C1216.75,-257.071 1224.98,-187.447 1229.99,-145.153"/>
<polygon fill="green" stroke="green" stroke-width="0.12645" points="1233.49,-145.376 1231.19,-135.034 1226.53,-144.553 1233.49,-145.376"/>
</g>
<!-- &#45;21 -->
<g id="node21" class="node"><title>&#45;21</title>
<polygon fill="lightgray" stroke="black" points="165.5,-481.035 136.5,-481.035 136.5,-463.035 165.5,-463.035 165.5,-481.035"/>
<text text-anchor="middle" x="151" y="-469.835" font-family="Times,serif" font-size="9.00">&#45;21</text>
</g>
<!-- &#45;21&#45;&gt;0 -->
<g id="edge27" class="edge"><title>&#45;21&#45;&gt;0</title>
<path fill="none" stroke="green" stroke-width="2.85057" d="M157.179,-463.018C161.734,-457.421 168.282,-449.991 175,-444.458 200.812,-423.198 234.587,-404.249 256.534,-392.916"/>
<polygon fill="green" stroke="green" stroke-width="2.85057" points="258.376,-395.906 265.714,-388.264 255.212,-389.662 258.376,-395.906"/>
</g>
<!-- &#45;21&#45;&gt;2 -->
<g id="edge57" class="edge"><title>&#45;21&#45;&gt;2</title>
<path fill="none" stroke="green" stroke-width="0.597179" stroke-dasharray="1,5" d="M154.39,-462.945C159.378,-451.029 168.969,-428.052 177,-408.458 220.173,-303.125 196.122,-254.951 273,-170.995 298.451,-143.201 339.79,-126.394 365.904,-117.971"/>
<polygon fill="green" stroke="green" stroke-width="0.597179" points="367.21,-121.232 375.75,-114.96 365.163,-114.538 367.21,-121.232"/>
</g>
<!-- &#45;22 -->
<g id="node22" class="node"><title>&#45;22</title>
<polygon fill="lightgray" stroke="black" points="695.5,-481.035 666.5,-481.035 666.5,-463.035 695.5,-463.035 695.5,-481.035"/>
<text text-anchor="middle" x="681" y="-469.835" font-family="Times,serif" font-size="9.00">&#45;22</text>
</g>
<!-- &#45;22&#45;&gt;1 -->
<g id="edge31" class="edge"><title>&#45;22&#45;&gt;1</title>
<path fill="none" stroke="red" stroke-width="0.165412" stroke-dasharray="1,5" d="M687.552,-462.807C698.627,-448.901 721.331,-420.392 736.613,-401.202"/>
<polygon fill="red" stroke="red" stroke-width="0.165412" points="739.552,-403.13 743.044,-393.127 734.076,-398.769 739.552,-403.13"/>
</g>
<!-- &#45;22&#45;&gt;2 -->
<g id="edge51" class="edge"><title>&#45;22&#45;&gt;2</title>
<path fill="none" stroke="red" stroke-width="0.133144" stroke-dasharray="1,5" d="M679.286,-462.776C674.868,-442.758 661.739,-390.556 638,-353.304 572.828,-251.035 456.541,-159.752 410.032,-125.554"/>
<polygon fill="red" stroke="red" stroke-width="0.133144" points="411.842,-122.543 401.697,-119.49 407.724,-128.203 411.842,-122.543"/>
</g>
<!-- &#45;22&#45;&gt;3 -->
<g id="edge68" class="edge"><title>&#45;22&#45;&gt;3</title>
<path fill="none" stroke="red" stroke-width="0.340104" d="M673.515,-462.582C668.821,-457.322 662.615,-450.443 657,-444.458 642.523,-429.029 625.717,-411.84 613.416,-399.387"/>
<polygon fill="red" stroke="red" stroke-width="0.340104" points="615.576,-396.595 606.052,-391.954 610.603,-401.522 615.576,-396.595"/>
</g>
<!-- &#45;23 -->
<g id="node23" class="node"><title>&#45;23</title>
<polygon fill="lightgray" stroke="black" points="1108.5,-389.881 1079.5,-389.881 1079.5,-371.881 1108.5,-371.881 1108.5,-389.881"/>
<text text-anchor="middle" x="1094" y="-378.681" font-family="Times,serif" font-size="9.00">&#45;23</text>
</g>
<!-- &#45;23&#45;&gt;9899 -->
<g id="edge61" class="edge"><title>&#45;23&#45;&gt;9899</title>
<path fill="none" stroke="red" stroke-width="0.283755" stroke-dasharray="1,5" d="M1089.93,-371.814C1080.2,-352.638 1054.75,-302.889 1032,-262.149 1025.86,-251.155 1018.89,-239.226 1012.66,-228.759"/>
<polygon fill="red" stroke="red" stroke-width="0.283755" points="1015.56,-226.786 1007.42,-219.999 1009.55,-230.378 1015.56,-226.786"/>
</g>
<!-- &#45;23&#45;&gt;10810 -->
<g id="edge38" class="edge"><title>&#45;23&#45;&gt;10810</title>
<path fill="none" stroke="green" stroke-width="0.429541" d="M1085.14,-371.71C1079.41,-366.439 1071.78,-359.445 1065,-353.304 1051.19,-340.802 1035.76,-326.992 1022.91,-315.533"/>
<polygon fill="green" stroke="green" stroke-width="0.429541" points="1025.07,-312.773 1015.28,-308.734 1020.41,-317.999 1025.07,-312.773"/>
</g>
<!-- &#45;24 -->
<g id="node24" class="node"><title>&#45;24</title>
<polygon fill="lightgray" stroke="black" points="1270.5,-207.572 1241.5,-207.572 1241.5,-189.572 1270.5,-189.572 1270.5,-207.572"/>
<text text-anchor="middle" x="1256" y="-196.372" font-family="Times,serif" font-size="9.00">&#45;24</text>
</g>
<!-- &#45;24&#45;&gt;6941 -->
<g id="edge66" class="edge"><title>&#45;24&#45;&gt;6941</title>
<path fill="none" stroke="red" stroke-width="0.594472" d="M1253.89,-189.295C1251.25,-178.95 1246.58,-160.621 1242.43,-144.324"/>
<polygon fill="red" stroke="red" stroke-width="0.594472" points="1245.79,-143.355 1239.93,-134.529 1239.01,-145.084 1245.79,-143.355"/>
</g>
<!-- 1&#45;&gt;1 -->
<g id="edge37" class="edge"><title>1&#45;&gt;1</title>
<path fill="none" stroke="green" stroke-width="0.156706" d="M761.081,-392.993C772.012,-402.145 784.849,-398.107 784.849,-380.881 784.849,-368.365 778.073,-362.811 770.174,-364.22"/>
<polygon fill="green" stroke="green" stroke-width="0.156706" points="768.458,-361.164 761.081,-368.768 771.59,-367.425 768.458,-361.164"/>
</g>
<!-- 2&#45;&gt;2 -->
<g id="edge32" class="edge"><title>2&#45;&gt;2</title>
<path fill="none" stroke="red" stroke-width="0.120938" d="M399.416,-121.809C410.273,-130.014 422.849,-126.16 422.849,-110.246 422.849,-98.808 416.352,-93.5999 408.666,-94.622"/>
<polygon fill="red" stroke="red" stroke-width="0.120938" points="407.165,-91.4586 399.416,-98.6837 409.979,-97.868 407.165,-91.4586"/>
</g>
<!-- 2&#45;&gt;8619 -->
<g id="edge40" class="edge"><title>2&#45;&gt;8619</title>
<path fill="none" stroke="green" stroke-width="0.295248" d="M399.879,-98.6712C411.011,-86.7543 429.498,-66.9642 444.406,-51.0052"/>
<polygon fill="green" stroke="green" stroke-width="0.295248" points="447.121,-53.2267 451.39,-43.5299 442.006,-48.4482 447.121,-53.2267"/>
</g>
<!-- 3&#45;&gt;3 -->
<g id="edge19" class="edge"><title>3&#45;&gt;3</title>
<path fill="none" stroke="red" stroke-width="0.75053" d="M605.081,-392.993C616.012,-402.145 628.849,-398.107 628.849,-380.881 628.849,-368.365 622.073,-362.811 614.174,-364.22"/>
<polygon fill="red" stroke="red" stroke-width="0.75053" points="612.458,-361.164 605.081,-368.768 615.59,-367.425 612.458,-361.164"/>
</g>
<!-- 3&#45;&gt;10810 -->
<g id="edge34" class="edge"><title>3&#45;&gt;10810</title>
<path fill="none" stroke="green" stroke-width="0.724422" d="M610.144,-375.425C629.072,-369.605 663.766,-359.438 694,-353.304 810.055,-329.757 847.994,-361.141 958,-317.304 960.53,-316.295 963.049,-315.077 965.514,-313.724"/>
<polygon fill="green" stroke="green" stroke-width="0.724422" points="967.485,-316.62 974.128,-308.367 963.788,-310.676 967.485,-316.62"/>
</g>
<!-- 10337&#45;&gt;1 -->
<g id="edge12" class="edge"><title>10337&#45;&gt;1</title>
<path fill="none" stroke="red" stroke-width="0.349814" d="M798.674,-448.997C788.673,-434.615 775.718,-415.986 765.994,-402.004"/>
<polygon fill="red" stroke="red" stroke-width="0.349814" points="768.718,-399.791 760.135,-393.579 762.971,-403.787 768.718,-399.791"/>
</g>
<!-- 10561&#45;&gt;1 -->
<g id="edge69" class="edge"><title>10561&#45;&gt;1</title>
<path fill="none" stroke="red" stroke-width="0.251344" d="M744.3,-444.286C745.812,-432.034 747.589,-417.63 749.055,-405.75"/>
<polygon fill="red" stroke="red" stroke-width="0.251344" points="752.546,-406.036 750.297,-395.683 745.599,-405.179 752.546,-406.036"/>
</g>
<!-- 11465&#45;&gt;6941 -->
<g id="edge42" class="edge"><title>11465&#45;&gt;6941</title>
<path fill="none" stroke="green" stroke-width="0.51162" d="M1297.39,-177.983C1285.62,-165.591 1270.3,-149.46 1257.67,-136.161"/>
<polygon fill="green" stroke="green" stroke-width="0.51162" points="1260.01,-133.547 1250.59,-128.707 1254.94,-138.368 1260.01,-133.547"/>
</g>
<!-- 10026&#45;&gt;1 -->
<g id="edge64" class="edge"><title>10026&#45;&gt;1</title>
<path fill="none" stroke="green" stroke-width="0.154196" d="M978.498,-535.673C973.643,-509.149 962.391,-468.88 937,-444.458 891.991,-401.168 815.985,-387.777 776.883,-383.671"/>
<polygon fill="green" stroke="green" stroke-width="0.154196" points="777.17,-380.183 766.889,-382.742 776.522,-387.153 777.17,-380.183"/>
</g>
<!-- 4017 -->
<g id="node36" class="node"><title>4017</title>
<ellipse fill="white" stroke="black" cx="1009" cy="-472.035" rx="25" ry="25"/>
<text text-anchor="middle" x="1009" y="-469.835" font-family="Times,serif" font-size="9.00">4017</text>
</g>
<!-- 10026&#45;&gt;4017 -->
<g id="edge4" class="edge"><title>10026&#45;&gt;4017</title>
<path fill="none" stroke="red" stroke-width="0.278348" d="M989.81,-536.402C992.706,-526.837 996.031,-515.859 999.091,-505.756"/>
<polygon fill="red" stroke="red" stroke-width="0.278348" points="1002.49,-506.616 1002.04,-496.031 995.788,-504.587 1002.49,-506.616"/>
</g>
<!-- 10026&#45;&gt;10810 -->
<g id="edge10" class="edge"><title>10026&#45;&gt;10810</title>
<path fill="none" stroke="red" stroke-width="0.318234" d="M1004.21,-546.676C1018.25,-535.434 1035.17,-518.866 1043,-499.612 1053.71,-473.288 1032.22,-353.958 1032,-353.304 1028.24,-342.231 1022.36,-330.978 1016.38,-321.124"/>
<polygon fill="red" stroke="red" stroke-width="0.318234" points="1019.23,-319.085 1010.92,-312.514 1013.32,-322.833 1019.23,-319.085"/>
</g>
<!-- 9899&#45;&gt;2 -->
<g id="edge22" class="edge"><title>9899&#45;&gt;2</title>
<path fill="none" stroke="red" stroke-width="0.166352" d="M970.534,-194.081C873.043,-180.17 512.799,-128.768 414.768,-114.78"/>
<polygon fill="red" stroke="red" stroke-width="0.166352" points="415.026,-111.282 404.632,-113.334 414.037,-118.212 415.026,-111.282"/>
</g>
<!-- 9899&#45;&gt;6941 -->
<g id="edge7" class="edge"><title>9899&#45;&gt;6941</title>
<path fill="none" stroke="green" stroke-width="0.248616" d="M1018.35,-189.138C1061.21,-173.658 1152.5,-140.685 1201.43,-123.012"/>
<polygon fill="green" stroke="green" stroke-width="0.248616" points="1202.69,-126.277 1210.91,-119.588 1200.31,-119.693 1202.69,-126.277"/>
</g>
<!-- 11404&#45;&gt;2 -->
<g id="edge15" class="edge"><title>11404&#45;&gt;2</title>
<path fill="none" stroke="red" stroke-width="0.208411" d="M390,-261.771C390,-227.445 390,-168.632 390,-135.6"/>
<polygon fill="red" stroke="red" stroke-width="0.208411" points="393.5,-135.458 390,-125.458 386.5,-135.459 393.5,-135.458"/>
</g>
<!-- 4017&#45;&gt;1 -->
<g id="edge59" class="edge"><title>4017&#45;&gt;1</title>
<path fill="none" stroke="red" stroke-width="0.291412" stroke-dasharray="1,5" d="M989.892,-456.232C983.78,-451.994 976.824,-447.661 970,-444.458 903.414,-413.204 817.924,-394.241 776.575,-386.274"/>
<polygon fill="red" stroke="red" stroke-width="0.291412" points="777.067,-382.806 766.593,-384.401 775.776,-389.685 777.067,-382.806"/>
</g>
<!-- 11634 -->
<g id="node37" class="node"><title>11634</title>
<ellipse fill="white" stroke="black" cx="995" cy="-380.881" rx="27.6545" ry="27.6545"/>
<text text-anchor="middle" x="995" y="-378.681" font-family="Times,serif" font-size="9.00">11634</text>
</g>
<!-- 4017&#45;&gt;11634 -->
<g id="edge52" class="edge"><title>4017&#45;&gt;11634</title>
<path fill="none" stroke="red" stroke-width="0.360515" d="M1005.25,-447.143C1003.87,-438.356 1002.27,-428.19 1000.76,-418.536"/>
<polygon fill="red" stroke="red" stroke-width="0.360515" points="1004.17,-417.687 999.157,-408.351 997.25,-418.773 1004.17,-417.687"/>
</g>
<!-- 4017&#45;&gt;10810 -->
<g id="edge23" class="edge"><title>4017&#45;&gt;10810</title>
<path fill="none" stroke="red" stroke-width="0.525447" d="M990.616,-455.02C978.798,-443.44 964.485,-426.679 958,-408.458 949.781,-385.364 951.533,-376.948 958,-353.304 961.11,-341.932 966.877,-330.528 972.947,-320.629"/>
<polygon fill="red" stroke="red" stroke-width="0.525447" points="976.035,-322.3 978.539,-312.006 970.162,-318.491 976.035,-322.3"/>
</g>
<!-- 11634&#45;&gt;10810 -->
<g id="edge48" class="edge"><title>11634&#45;&gt;10810</title>
<path fill="none" stroke="red" stroke-width="0.408583" d="M995,-353.132C995,-345.109 995,-336.165 995,-327.61"/>
<polygon fill="red" stroke="red" stroke-width="0.408583" points="998.5,-327.457 995,-317.457 991.5,-327.457 998.5,-327.457"/>
</g>
<!-- 10810&#45;&gt;9899 -->
<g id="edge44" class="edge"><title>10810&#45;&gt;9899</title>
<path fill="none" stroke="red" stroke-width="0.131656" d="M995,-261.977C995,-253.108 995,-243.111 995,-233.76"/>
<polygon fill="red" stroke="red" stroke-width="0.131656" points="998.5,-233.572 995,-223.572 991.5,-233.572 998.5,-233.572"/>
</g>
</g>
</svg>
