<?xml version="1.0" encoding="UTF-8" standalone="no"?>
<!DOCTYPE svg PUBLIC "-//W3C//DTD SVG 1.1//EN"
 "http://www.w3.org/Graphics/SVG/1.1/DTD/svg11.dtd">
<!-- Generated by graphviz version 2.38.0 (20140413.2041)
 -->
<!-- Title: %3 Pages: 1 -->
<svg width="730pt" height="647pt"
 viewBox="0.00 0.00 730.00 647.11" xmlns="http://www.w3.org/2000/svg" xmlns:xlink="http://www.w3.org/1999/xlink">
<g id="graph0" class="graph" transform="scale(1 1) rotate(0) translate(4 643.11)">
<title>%3</title>
<polygon fill="white" stroke="none" points="-4,4 -4,-643.11 726,-643.11 726,4 -4,4"/>
<!-- &#45;1 -->
<g id="node1" class="node"><title>&#45;1</title>
<polygon fill="lightgray" stroke="black" points="449.5,-639.11 425.5,-639.11 425.5,-621.11 449.5,-621.11 449.5,-639.11"/>
<text text-anchor="middle" x="437.5" y="-627.91" font-family="Times,serif" font-size="9.00">&#45;1</text>
</g>
<!-- 10026 -->
<g id="node32" class="node"><title>10026</title>
<ellipse fill="white" stroke="black" cx="437.5" cy="-557.533" rx="27.6545" ry="27.6545"/>
<text text-anchor="middle" x="437.5" y="-555.333" font-family="Times,serif" font-size="9.00">10026</text>
</g>
<!-- &#45;1&#45;&gt;10026 -->
<g id="edge30" class="edge"><title>&#45;1&#45;&gt;10026</title>
<path fill="none" stroke="red" stroke-width="0.137425" d="M437.5,-621.014C437.5,-614.564 437.5,-605.04 437.5,-595.361"/>
<polygon fill="red" stroke="red" stroke-width="0.137425" points="441,-595.341 437.5,-585.341 434,-595.341 441,-595.341"/>
</g>
<!-- &#45;2 -->
<g id="node2" class="node"><title>&#45;2</title>
<polygon fill="lightgray" stroke="black" points="491.5,-639.11 467.5,-639.11 467.5,-621.11 491.5,-621.11 491.5,-639.11"/>
<text text-anchor="middle" x="479.5" y="-627.91" font-family="Times,serif" font-size="9.00">&#45;2</text>
</g>
<!-- &#45;3 -->
<g id="node3" class="node"><title>&#45;3</title>
<polygon fill="lightgray" stroke="black" points="71.5,-207.572 47.5,-207.572 47.5,-189.572 71.5,-189.572 71.5,-207.572"/>
<text text-anchor="middle" x="59.5" y="-196.372" font-family="Times,serif" font-size="9.00">&#45;3</text>
</g>
<!-- 2 -->
<g id="node27" class="node"><title>2</title>
<ellipse fill="lightblue" stroke="black" cx="104.5" cy="-110.246" rx="14.7" ry="14.7"/>
<text text-anchor="middle" x="104.5" y="-108.046" font-family="Times,serif" font-size="9.00">2</text>
</g>
<!-- &#45;3&#45;&gt;2 -->
<g id="edge19" class="edge"><title>&#45;3&#45;&gt;2</title>
<path fill="none" stroke="green" stroke-width="0.224379" d="M63.8148,-189.295C70.5277,-176.417 83.6912,-151.165 93.2314,-132.863"/>
<polygon fill="green" stroke="green" stroke-width="0.224379" points="96.4468,-134.267 97.9656,-123.781 90.2395,-131.031 96.4468,-134.267"/>
</g>
<!-- &#45;4 -->
<g id="node4" class="node"><title>&#45;4</title>
<polygon fill="lightgray" stroke="black" points="251.5,-389.881 227.5,-389.881 227.5,-371.881 251.5,-371.881 251.5,-389.881"/>
<text text-anchor="middle" x="239.5" y="-378.681" font-family="Times,serif" font-size="9.00">&#45;4</text>
</g>
<!-- 0 -->
<g id="node25" class="node"><title>0</title>
<ellipse fill="lightblue" stroke="black" cx="147.5" cy="-289.726" rx="14.7" ry="14.7"/>
<text text-anchor="middle" x="147.5" y="-287.526" font-family="Times,serif" font-size="9.00">0</text>
</g>
<!-- &#45;4&#45;&gt;0 -->
<g id="edge33" class="edge"><title>&#45;4&#45;&gt;0</title>
<path fill="none" stroke="red" stroke-width="0.181407" d="M233.254,-371.705C229.006,-366.306 223.15,-359.172 217.5,-353.304 201.245,-336.419 181.168,-318.761 166.69,-306.524"/>
<polygon fill="red" stroke="red" stroke-width="0.181407" points="168.799,-303.726 158.883,-299.993 164.307,-309.094 168.799,-303.726"/>
</g>
<!-- &#45;5 -->
<g id="node5" class="node"><title>&#45;5</title>
<polygon fill="lightgray" stroke="black" points="293.5,-389.881 269.5,-389.881 269.5,-371.881 293.5,-371.881 293.5,-389.881"/>
<text text-anchor="middle" x="281.5" y="-378.681" font-family="Times,serif" font-size="9.00">&#45;5</text>
</g>
<!-- &#45;5&#45;&gt;0 -->
<g id="edge36" class="edge"><title>&#45;5&#45;&gt;0</title>
<path fill="none" stroke="red" stroke-width="2.0229" d="M276.463,-371.584C272.653,-365.855 266.979,-358.383 260.5,-353.304 230.133,-329.499 214.484,-337.324 181.5,-317.304 176.376,-314.194 171.134,-310.432 166.349,-306.73"/>
<polygon fill="red" stroke="red" stroke-width="2.0229" points="168.334,-303.834 158.351,-300.283 163.941,-309.284 168.334,-303.834"/>
</g>
<!-- 10810 -->
<g id="node38" class="node"><title>10810</title>
<ellipse fill="white" stroke="black" cx="387.5" cy="-289.726" rx="27.6545" ry="27.6545"/>
<text text-anchor="middle" x="387.5" y="-287.526" font-family="Times,serif" font-size="9.00">10810</text>
</g>
<!-- &#45;5&#45;&gt;10810 -->
<g id="edge1" class="edge"><title>&#45;5&#45;&gt;10810</title>
<path fill="none" stroke="red" stroke-width="0.378088" d="M287.226,-371.5C291.182,-366.015 296.749,-358.862 302.5,-353.304 318.882,-337.471 339.4,-322.257 356.173,-310.795"/>
<polygon fill="red" stroke="red" stroke-width="0.378088" points="358.212,-313.642 364.561,-305.16 354.309,-307.831 358.212,-313.642"/>
</g>
<!-- &#45;6 -->
<g id="node6" class="node"><title>&#45;6</title>
<polygon fill="lightgray" stroke="black" points="457.5,-298.726 433.5,-298.726 433.5,-280.726 457.5,-280.726 457.5,-298.726"/>
<text text-anchor="middle" x="445.5" y="-287.526" font-family="Times,serif" font-size="9.00">&#45;6</text>
</g>
<!-- 9899 -->
<g id="node33" class="node"><title>9899</title>
<ellipse fill="white" stroke="black" cx="387.5" cy="-198.572" rx="25" ry="25"/>
<text text-anchor="middle" x="387.5" y="-196.372" font-family="Times,serif" font-size="9.00">9899</text>
</g>
<!-- &#45;6&#45;&gt;9899 -->
<g id="edge5" class="edge"><title>&#45;6&#45;&gt;9899</title>
<path fill="none" stroke="green" stroke-width="0.612364" d="M440.147,-280.499C432.484,-268.718 418.002,-246.458 406.164,-228.262"/>
<polygon fill="green" stroke="green" stroke-width="0.612364" points="408.994,-226.193 400.607,-219.719 403.126,-230.01 408.994,-226.193"/>
</g>
<!-- &#45;7 -->
<g id="node7" class="node"><title>&#45;7</title>
<polygon fill="lightgray" stroke="black" points="251.5,-639.11 227.5,-639.11 227.5,-621.11 251.5,-621.11 251.5,-639.11"/>
<text text-anchor="middle" x="239.5" y="-627.91" font-family="Times,serif" font-size="9.00">&#45;7</text>
</g>
<!-- 10337 -->
<g id="node29" class="node"><title>10337</title>
<ellipse fill="white" stroke="black" cx="202.5" cy="-557.533" rx="27.6545" ry="27.6545"/>
<text text-anchor="middle" x="202.5" y="-555.333" font-family="Times,serif" font-size="9.00">10337</text>
</g>
<!-- &#45;7&#45;&gt;10337 -->
<g id="edge32" class="edge"><title>&#45;7&#45;&gt;10337</title>
<path fill="none" stroke="red" stroke-width="0.349933" d="M235.256,-621.014C231.4,-613.659 225.448,-602.306 219.67,-591.284"/>
<polygon fill="red" stroke="red" stroke-width="0.349933" points="222.65,-589.431 214.907,-582.199 216.451,-592.681 222.65,-589.431"/>
</g>
<!-- 10561 -->
<g id="node30" class="node"><title>10561</title>
<ellipse fill="white" stroke="black" cx="275.5" cy="-557.533" rx="27.6545" ry="27.6545"/>
<text text-anchor="middle" x="275.5" y="-555.333" font-family="Times,serif" font-size="9.00">10561</text>
</g>
<!-- &#45;7&#45;&gt;10561 -->
<g id="edge20" class="edge"><title>&#45;7&#45;&gt;10561</title>
<path fill="none" stroke="red" stroke-width="0.823989" d="M243.63,-621.014C247.352,-613.716 253.083,-602.48 258.664,-591.539"/>
<polygon fill="red" stroke="red" stroke-width="0.823989" points="261.844,-593.008 263.27,-582.51 255.608,-589.828 261.844,-593.008"/>
</g>
<!-- &#45;8 -->
<g id="node8" class="node"><title>&#45;8</title>
<polygon fill="lightgray" stroke="black" points="533.5,-639.11 509.5,-639.11 509.5,-621.11 533.5,-621.11 533.5,-639.11"/>
<text text-anchor="middle" x="521.5" y="-627.91" font-family="Times,serif" font-size="9.00">&#45;8</text>
</g>
<!-- &#45;9 -->
<g id="node9" class="node"><title>&#45;9</title>
<polygon fill="lightgray" stroke="black" points="29.5,-389.881 5.5,-389.881 5.5,-371.881 29.5,-371.881 29.5,-389.881"/>
<text text-anchor="middle" x="17.5" y="-378.681" font-family="Times,serif" font-size="9.00">&#45;9</text>
</g>
<!-- &#45;9&#45;&gt;0 -->
<g id="edge8" class="edge"><title>&#45;9&#45;&gt;0</title>
<path fill="none" stroke="red" stroke-width="0.957157" d="M24.1982,-371.76C29.1343,-366.115 36.2285,-358.669 43.5,-353.304 71.6505,-332.532 84.0324,-336.16 113.5,-317.304 118.549,-314.073 123.762,-310.266 128.544,-306.559"/>
<polygon fill="red" stroke="red" stroke-width="0.957157" points="130.942,-309.122 136.558,-300.138 126.566,-303.659 130.942,-309.122"/>
</g>
<!-- &#45;9&#45;&gt;2 -->
<g id="edge3" class="edge"><title>&#45;9&#45;&gt;2</title>
<path fill="none" stroke="red" stroke-width="0.399827" d="M21.4596,-371.743C32.317,-349.146 62.9182,-283.51 80.5,-226.149 89.9348,-195.368 96.8648,-158.82 100.788,-135.344"/>
<polygon fill="red" stroke="red" stroke-width="0.399827" points="104.28,-135.68 102.424,-125.249 97.3697,-134.561 104.28,-135.68"/>
</g>
<!-- &#45;10 -->
<g id="node10" class="node"><title>&#45;10</title>
<polygon fill="lightgray" stroke="black" points="318,-478.207 289,-478.207 289,-460.207 318,-460.207 318,-478.207"/>
<text text-anchor="middle" x="303.5" y="-467.007" font-family="Times,serif" font-size="9.00">&#45;10</text>
</g>
<!-- &#45;10&#45;&gt;0 -->
<g id="edge16" class="edge"><title>&#45;10&#45;&gt;0</title>
<path fill="none" stroke="green" stroke-width="0.395427" d="M297.622,-459.857C293.455,-454.592 287.395,-448.118 280.5,-444.458 199.181,-401.288 135.675,-478.99 76.5,-408.458 60.7446,-389.679 66.411,-375.644 76.5,-353.304 79.3107,-347.08 108.414,-322.548 128.475,-306.113"/>
<polygon fill="green" stroke="green" stroke-width="0.395427" points="130.875,-308.672 136.416,-299.641 126.453,-303.246 130.875,-308.672"/>
</g>
<!-- 3 -->
<g id="node28" class="node"><title>3</title>
<ellipse fill="lightblue" stroke="black" cx="326.5" cy="-380.881" rx="14.7" ry="14.7"/>
<text text-anchor="middle" x="326.5" y="-378.681" font-family="Times,serif" font-size="9.00">3</text>
</g>
<!-- &#45;10&#45;&gt;3 -->
<g id="edge10" class="edge"><title>&#45;10&#45;&gt;3</title>
<path fill="none" stroke="green" stroke-width="0.327659" d="M305.705,-459.929C309.033,-447.441 315.46,-423.316 320.293,-405.178"/>
<polygon fill="green" stroke="green" stroke-width="0.327659" points="323.726,-405.887 322.918,-395.323 316.962,-404.085 323.726,-405.887"/>
</g>
<!-- &#45;11 -->
<g id="node11" class="node"><title>&#45;11</title>
<polygon fill="lightgray" stroke="black" points="581,-639.11 552,-639.11 552,-621.11 581,-621.11 581,-639.11"/>
<text text-anchor="middle" x="566.5" y="-627.91" font-family="Times,serif" font-size="9.00">&#45;11</text>
</g>
<!-- &#45;12 -->
<g id="node12" class="node"><title>&#45;12</title>
<polygon fill="lightgray" stroke="black" points="72,-119.246 43,-119.246 43,-101.246 72,-101.246 72,-119.246"/>
<text text-anchor="middle" x="57.5" y="-108.046" font-family="Times,serif" font-size="9.00">&#45;12</text>
</g>
<!-- 8619 -->
<g id="node35" class="node"><title>8619</title>
<ellipse fill="white" stroke="black" cx="57.5" cy="-24.7487" rx="25" ry="25"/>
<text text-anchor="middle" x="57.5" y="-22.5487" font-family="Times,serif" font-size="9.00">8619</text>
</g>
<!-- &#45;12&#45;&gt;8619 -->
<g id="edge6" class="edge"><title>&#45;12&#45;&gt;8619</title>
<path fill="none" stroke="green" stroke-width="0.37579" d="M57.5,-101.24C57.5,-91.6887 57.5,-75.0995 57.5,-59.9004"/>
<polygon fill="green" stroke="green" stroke-width="0.37579" points="61.0001,-59.7037 57.5,-49.7037 54.0001,-59.7038 61.0001,-59.7037"/>
</g>
<!-- &#45;13 -->
<g id="node13" class="node"><title>&#45;13</title>
<polygon fill="lightgray" stroke="black" points="115,-389.881 86,-389.881 86,-371.881 115,-371.881 115,-389.881"/>
<text text-anchor="middle" x="100.5" y="-378.681" font-family="Times,serif" font-size="9.00">&#45;13</text>
</g>
<!-- &#45;13&#45;&gt;0 -->
<g id="edge40" class="edge"><title>&#45;13&#45;&gt;0</title>
<path fill="none" stroke="green" stroke-width="1.07867" d="M104.837,-371.653C111.914,-358.23 126.163,-331.2 136.243,-312.08"/>
<polygon fill="green" stroke="green" stroke-width="1.07867" points="139.373,-313.648 140.94,-303.17 133.181,-310.384 139.373,-313.648"/>
</g>
<!-- &#45;14 -->
<g id="node14" class="node"><title>&#45;14</title>
<polygon fill="lightgray" stroke="black" points="29,-207.572 0,-207.572 0,-189.572 29,-189.572 29,-207.572"/>
<text text-anchor="middle" x="14.5" y="-196.372" font-family="Times,serif" font-size="9.00">&#45;14</text>
</g>
<!-- &#45;14&#45;&gt;2 -->
<g id="edge13" class="edge"><title>&#45;14&#45;&gt;2</title>
<path fill="none" stroke="green" stroke-width="0.187089" d="M21.3848,-189.417C26.0496,-184.028 32.4445,-176.896 38.5,-170.995 56.1079,-153.837 62.4172,-151.652 80.5,-134.995 82.6826,-132.984 84.9406,-130.84 87.1587,-128.694"/>
<polygon fill="green" stroke="green" stroke-width="0.187089" points="89.7121,-131.092 94.3792,-121.58 84.7993,-126.105 89.7121,-131.092"/>
</g>
<!-- &#45;14&#45;&gt;8619 -->
<g id="edge38" class="edge"><title>&#45;14&#45;&gt;8619</title>
<path fill="none" stroke="red" stroke-width="0.4485" d="M15.2629,-189.562C17.1596,-170.993 22.7306,-123.675 33.5,-85.4975 36.1745,-76.0163 39.8517,-65.9825 43.5243,-56.9"/>
<polygon fill="red" stroke="red" stroke-width="0.4485" points="46.8307,-58.0653 47.46,-47.4891 40.3727,-55.3645 46.8307,-58.0653"/>
</g>
<!-- &#45;15 -->
<g id="node15" class="node"><title>&#45;15</title>
<polygon fill="lightgray" stroke="black" points="628,-639.11 599,-639.11 599,-621.11 628,-621.11 628,-639.11"/>
<text text-anchor="middle" x="613.5" y="-627.91" font-family="Times,serif" font-size="9.00">&#45;15</text>
</g>
<!-- &#45;16 -->
<g id="node16" class="node"><title>&#45;16</title>
<polygon fill="lightgray" stroke="black" points="162,-389.881 133,-389.881 133,-371.881 162,-371.881 162,-389.881"/>
<text text-anchor="middle" x="147.5" y="-378.681" font-family="Times,serif" font-size="9.00">&#45;16</text>
</g>
<!-- &#45;16&#45;&gt;0 -->
<g id="edge18" class="edge"><title>&#45;16&#45;&gt;0</title>
<path fill="none" stroke="red" stroke-width="0.298888" d="M147.5,-371.653C147.5,-358.897 147.5,-333.852 147.5,-314.985"/>
<polygon fill="red" stroke="red" stroke-width="0.298888" points="151,-314.73 147.5,-304.73 144,-314.73 151,-314.73"/>
</g>
<!-- &#45;17 -->
<g id="node17" class="node"><title>&#45;17</title>
<polygon fill="lightgray" stroke="black" points="675,-639.11 646,-639.11 646,-621.11 675,-621.11 675,-639.11"/>
<text text-anchor="middle" x="660.5" y="-627.91" font-family="Times,serif" font-size="9.00">&#45;17</text>
</g>
<!-- &#45;18 -->
<g id="node18" class="node"><title>&#45;18</title>
<polygon fill="lightgray" stroke="black" points="220,-298.726 191,-298.726 191,-280.726 220,-280.726 220,-298.726"/>
<text text-anchor="middle" x="205.5" y="-287.526" font-family="Times,serif" font-size="9.00">&#45;18</text>
</g>
<!-- &#45;18&#45;&gt;2 -->
<g id="edge24" class="edge"><title>&#45;18&#45;&gt;2</title>
<path fill="none" stroke="green" stroke-width="0.133489" d="M206.788,-280.575C209.549,-260.354 214.145,-206.929 192.5,-170.995 177.679,-146.39 148.38,-129.627 127.669,-120.26"/>
<polygon fill="green" stroke="green" stroke-width="0.133489" points="128.864,-116.964 118.293,-116.254 126.114,-123.401 128.864,-116.964"/>
</g>
<!-- 11404 -->
<g id="node34" class="node"><title>11404</title>
<ellipse fill="white" stroke="black" cx="155.5" cy="-198.572" rx="27.6545" ry="27.6545"/>
<text text-anchor="middle" x="155.5" y="-196.372" font-family="Times,serif" font-size="9.00">11404</text>
</g>
<!-- &#45;18&#45;&gt;11404 -->
<g id="edge37" class="edge"><title>&#45;18&#45;&gt;11404</title>
<path fill="none" stroke="red" stroke-width="0.15182" d="M200.886,-280.499C194.71,-269.486 183.397,-249.316 173.612,-231.868"/>
<polygon fill="red" stroke="red" stroke-width="0.15182" points="176.614,-230.065 168.67,-223.055 170.508,-233.489 176.614,-230.065"/>
</g>
<!-- &#45;19 -->
<g id="node19" class="node"><title>&#45;19</title>
<polygon fill="lightgray" stroke="black" points="722,-639.11 693,-639.11 693,-621.11 722,-621.11 722,-639.11"/>
<text text-anchor="middle" x="707.5" y="-627.91" font-family="Times,serif" font-size="9.00">&#45;19</text>
</g>
<!-- &#45;20 -->
<g id="node20" class="node"><title>&#45;20</title>
<polygon fill="lightgray" stroke="black" points="508,-298.726 479,-298.726 479,-280.726 508,-280.726 508,-298.726"/>
<text text-anchor="middle" x="493.5" y="-287.526" font-family="Times,serif" font-size="9.00">&#45;20</text>
</g>
<!-- 11465 -->
<g id="node31" class="node"><title>11465</title>
<ellipse fill="white" stroke="black" cx="496.5" cy="-198.572" rx="27.6545" ry="27.6545"/>
<text text-anchor="middle" x="496.5" y="-196.372" font-family="Times,serif" font-size="9.00">11465</text>
</g>
<!-- &#45;20&#45;&gt;11465 -->
<g id="edge25" class="edge"><title>&#45;20&#45;&gt;11465</title>
<path fill="none" stroke="green" stroke-width="0.419431" d="M493.777,-280.499C494.115,-270.456 494.709,-252.798 495.256,-236.533"/>
<polygon fill="green" stroke="green" stroke-width="0.419431" points="498.768,-236.252 495.606,-226.14 491.772,-236.017 498.768,-236.252"/>
</g>
<!-- 6941 -->
<g id="node39" class="node"><title>6941</title>
<ellipse fill="white" stroke="black" cx="468.5" cy="-110.246" rx="25" ry="25"/>
<text text-anchor="middle" x="468.5" y="-108.046" font-family="Times,serif" font-size="9.00">6941</text>
</g>
<!-- &#45;20&#45;&gt;6941 -->
<g id="edge22" class="edge"><title>&#45;20&#45;&gt;6941</title>
<path fill="none" stroke="green" stroke-width="0.12645" d="M487.184,-280.392C478.92,-268.908 464.86,-247.24 459.5,-226.149 452.662,-199.241 455.88,-167.748 460.262,-144.544"/>
<polygon fill="green" stroke="green" stroke-width="0.12645" points="463.739,-145.012 462.326,-134.512 456.883,-143.602 463.739,-145.012"/>
</g>
<!-- &#45;21 -->
<g id="node21" class="node"><title>&#45;21</title>
<polygon fill="lightgray" stroke="black" points="209,-389.881 180,-389.881 180,-371.881 209,-371.881 209,-389.881"/>
<text text-anchor="middle" x="194.5" y="-378.681" font-family="Times,serif" font-size="9.00">&#45;21</text>
</g>
<!-- &#45;21&#45;&gt;0 -->
<g id="edge17" class="edge"><title>&#45;21&#45;&gt;0</title>
<path fill="none" stroke="green" stroke-width="2.85057" d="M190.163,-371.653C183.086,-358.23 168.837,-331.2 158.757,-312.08"/>
<polygon fill="green" stroke="green" stroke-width="2.85057" points="161.819,-310.384 154.06,-303.17 155.627,-313.648 161.819,-310.384"/>
</g>
<!-- &#45;22 -->
<g id="node22" class="node"><title>&#45;22</title>
<polygon fill="lightgray" stroke="black" points="365,-478.207 336,-478.207 336,-460.207 365,-460.207 365,-478.207"/>
<text text-anchor="middle" x="350.5" y="-467.007" font-family="Times,serif" font-size="9.00">&#45;22</text>
</g>
<!-- &#45;22&#45;&gt;3 -->
<g id="edge42" class="edge"><title>&#45;22&#45;&gt;3</title>
<path fill="none" stroke="red" stroke-width="0.340104" d="M348.199,-459.929C344.727,-447.441 338.02,-423.316 332.977,-405.178"/>
<polygon fill="red" stroke="red" stroke-width="0.340104" points="336.288,-404.02 330.237,-395.323 329.544,-405.895 336.288,-404.02"/>
</g>
<!-- &#45;23 -->
<g id="node23" class="node"><title>&#45;23</title>
<polygon fill="lightgray" stroke="black" points="445,-389.881 416,-389.881 416,-371.881 445,-371.881 445,-389.881"/>
<text text-anchor="middle" x="430.5" y="-378.681" font-family="Times,serif" font-size="9.00">&#45;23</text>
</g>
<!-- &#45;23&#45;&gt;10810 -->
<g id="edge27" class="edge"><title>&#45;23&#45;&gt;10810</title>
<path fill="none" stroke="green" stroke-width="0.429541" d="M426.532,-371.653C421.339,-360.887 411.925,-341.368 403.644,-324.198"/>
<polygon fill="green" stroke="green" stroke-width="0.429541" points="406.69,-322.457 399.193,-314.97 400.385,-325.498 406.69,-322.457"/>
</g>
<!-- &#45;24 -->
<g id="node24" class="node"><title>&#45;24</title>
<polygon fill="lightgray" stroke="black" points="571,-207.572 542,-207.572 542,-189.572 571,-189.572 571,-207.572"/>
<text text-anchor="middle" x="556.5" y="-196.372" font-family="Times,serif" font-size="9.00">&#45;24</text>
</g>
<!-- &#45;24&#45;&gt;6941 -->
<g id="edge41" class="edge"><title>&#45;24&#45;&gt;6941</title>
<path fill="none" stroke="red" stroke-width="0.594472" d="M549.886,-189.453C545.41,-184.079 539.28,-176.95 533.5,-170.995 521.153,-158.272 506.694,-144.849 494.553,-133.956"/>
<polygon fill="red" stroke="red" stroke-width="0.594472" points="496.751,-131.228 486.954,-127.196 492.099,-136.458 496.751,-131.228"/>
</g>
<!-- 1 -->
<g id="node26" class="node"><title>1</title>
<ellipse fill="lightblue" stroke="black" cx="238.5" cy="-469.207" rx="14.7" ry="14.7"/>
<text text-anchor="middle" x="238.5" y="-467.007" font-family="Times,serif" font-size="9.00">1</text>
</g>
<!-- 1&#45;&gt;1 -->
<g id="edge26" class="edge"><title>1&#45;&gt;1</title>
<path fill="none" stroke="green" stroke-width="0.156706" d="M247.581,-481.05C258.512,-489.998 271.349,-486.05 271.349,-469.207 271.349,-456.969 264.573,-451.538 256.674,-452.916"/>
<polygon fill="green" stroke="green" stroke-width="0.156706" points="255.026,-449.826 247.581,-457.363 258.101,-456.114 255.026,-449.826"/>
</g>
<!-- 2&#45;&gt;2 -->
<g id="edge21" class="edge"><title>2&#45;&gt;2</title>
<path fill="none" stroke="red" stroke-width="0.120938" d="M113.916,-121.809C124.773,-130.014 137.349,-126.16 137.349,-110.246 137.349,-98.808 130.852,-93.5999 123.166,-94.622"/>
<polygon fill="red" stroke="red" stroke-width="0.120938" points="121.665,-91.4586 113.916,-98.6837 124.479,-97.868 121.665,-91.4586"/>
</g>
<!-- 2&#45;&gt;8619 -->
<g id="edge28" class="edge"><title>2&#45;&gt;8619</title>
<path fill="none" stroke="green" stroke-width="0.295248" d="M97.565,-96.9259C91.4905,-86.1343 82.4115,-70.0051 74.4314,-55.828"/>
<polygon fill="green" stroke="green" stroke-width="0.295248" points="77.3438,-53.8667 69.3886,-46.8693 71.2438,-57.3004 77.3438,-53.8667"/>
</g>
<!-- 3&#45;&gt;3 -->
<g id="edge12" class="edge"><title>3&#45;&gt;3</title>
<path fill="none" stroke="red" stroke-width="0.75053" d="M335.581,-392.724C346.512,-401.672 359.349,-397.725 359.349,-380.881 359.349,-368.643 352.573,-363.212 344.674,-364.59"/>
<polygon fill="red" stroke="red" stroke-width="0.75053" points="343.026,-361.5 335.581,-369.038 346.101,-367.788 343.026,-361.5"/>
</g>
<!-- 3&#45;&gt;10810 -->
<g id="edge23" class="edge"><title>3&#45;&gt;10810</title>
<path fill="none" stroke="green" stroke-width="0.724422" d="M334.475,-368.225C342.54,-356.437 355.354,-337.709 366.365,-321.617"/>
<polygon fill="green" stroke="green" stroke-width="0.724422" points="369.496,-323.238 372.255,-313.008 363.719,-319.285 369.496,-323.238"/>
</g>
<!-- 10337&#45;&gt;1 -->
<g id="edge9" class="edge"><title>10337&#45;&gt;1</title>
<path fill="none" stroke="red" stroke-width="0.349814" d="M212.913,-531.564C218.039,-519.27 224.171,-504.567 229.147,-492.636"/>
<polygon fill="red" stroke="red" stroke-width="0.349814" points="232.388,-493.956 233.007,-483.379 225.927,-491.262 232.388,-493.956"/>
</g>
<!-- 10561&#45;&gt;1 -->
<g id="edge43" class="edge"><title>10561&#45;&gt;1</title>
<path fill="none" stroke="red" stroke-width="0.251344" d="M264.996,-532.026C259.655,-519.564 253.213,-504.533 248.018,-492.413"/>
<polygon fill="red" stroke="red" stroke-width="0.251344" points="251.156,-490.85 243.999,-483.037 244.722,-493.607 251.156,-490.85"/>
</g>
<!-- 11465&#45;&gt;6941 -->
<g id="edge29" class="edge"><title>11465&#45;&gt;6941</title>
<path fill="none" stroke="green" stroke-width="0.51162" d="M488.251,-172.138C485.384,-163.3 482.127,-153.26 479.097,-143.919"/>
<polygon fill="green" stroke="green" stroke-width="0.51162" points="482.342,-142.579 475.928,-134.146 475.684,-144.738 482.342,-142.579"/>
</g>
<!-- 10026&#45;&gt;1 -->
<g id="edge39" class="edge"><title>10026&#45;&gt;1</title>
<path fill="none" stroke="green" stroke-width="0.154196" d="M411.55,-547.593C379.826,-536.361 324.773,-515.884 279.5,-493.955 272.835,-490.727 265.787,-486.832 259.449,-483.139"/>
<polygon fill="green" stroke="green" stroke-width="0.154196" points="261.181,-480.096 250.801,-477.973 257.591,-486.106 261.181,-480.096"/>
</g>
<!-- 4017 -->
<g id="node36" class="node"><title>4017</title>
<ellipse fill="white" stroke="black" cx="437.5" cy="-469.207" rx="25" ry="25"/>
<text text-anchor="middle" x="437.5" y="-467.007" font-family="Times,serif" font-size="9.00">4017</text>
</g>
<!-- 10026&#45;&gt;4017 -->
<g id="edge2" class="edge"><title>10026&#45;&gt;4017</title>
<path fill="none" stroke="red" stroke-width="0.278348" d="M437.5,-529.692C437.5,-521.599 437.5,-512.608 437.5,-504.118"/>
<polygon fill="red" stroke="red" stroke-width="0.278348" points="441,-504.105 437.5,-494.105 434,-504.105 441,-504.105"/>
</g>
<!-- 10026&#45;&gt;10810 -->
<g id="edge7" class="edge"><title>10026&#45;&gt;10810</title>
<path fill="none" stroke="red" stroke-width="0.318234" d="M457.52,-538.153C495.651,-500.902 571.165,-414.821 527.5,-353.304 499.431,-313.759 467.523,-339.678 424.5,-317.304 422.167,-316.09 419.816,-314.744 417.49,-313.319"/>
<polygon fill="red" stroke="red" stroke-width="0.318234" points="419.02,-310.135 408.744,-307.554 415.167,-315.98 419.02,-310.135"/>
</g>
<!-- 9899&#45;&gt;2 -->
<g id="edge14" class="edge"><title>9899&#45;&gt;2</title>
<path fill="none" stroke="red" stroke-width="0.166352" d="M363.858,-190.36C310.555,-174.101 181.508,-134.736 128.174,-118.468"/>
<polygon fill="red" stroke="red" stroke-width="0.166352" points="129.147,-115.105 118.561,-115.535 127.105,-121.801 129.147,-115.105"/>
</g>
<!-- 9899&#45;&gt;6941 -->
<g id="edge4" class="edge"><title>9899&#45;&gt;6941</title>
<path fill="none" stroke="green" stroke-width="0.248616" d="M404.283,-179.685C416.091,-167.101 432.051,-150.091 445.106,-136.178"/>
<polygon fill="green" stroke="green" stroke-width="0.248616" points="447.725,-138.502 452.015,-128.815 442.62,-133.712 447.725,-138.502"/>
</g>
<!-- 11404&#45;&gt;2 -->
<g id="edge11" class="edge"><title>11404&#45;&gt;2</title>
<path fill="none" stroke="red" stroke-width="0.208411" d="M141.833,-174.438C134.121,-161.385 124.554,-145.19 117.035,-132.464"/>
<polygon fill="red" stroke="red" stroke-width="0.208411" points="119.849,-130.347 111.75,-123.517 113.823,-133.907 119.849,-130.347"/>
</g>
<!-- 11634 -->
<g id="node37" class="node"><title>11634</title>
<ellipse fill="white" stroke="black" cx="490.5" cy="-380.881" rx="27.6545" ry="27.6545"/>
<text text-anchor="middle" x="490.5" y="-378.681" font-family="Times,serif" font-size="9.00">11634</text>
</g>
<!-- 4017&#45;&gt;11634 -->
<g id="edge35" class="edge"><title>4017&#45;&gt;11634</title>
<path fill="none" stroke="red" stroke-width="0.360515" d="M450.06,-447.749C456.292,-437.598 463.961,-425.107 470.94,-413.74"/>
<polygon fill="red" stroke="red" stroke-width="0.360515" points="474.099,-415.285 476.348,-404.931 468.133,-411.622 474.099,-415.285"/>
</g>
<!-- 4017&#45;&gt;10810 -->
<g id="edge15" class="edge"><title>4017&#45;&gt;10810</title>
<path fill="none" stroke="red" stroke-width="0.525447" d="M425.223,-447.568C419.047,-436.347 411.948,-422.024 407.5,-408.458 398.836,-382.03 393.76,-350.971 390.891,-327.391"/>
<polygon fill="red" stroke="red" stroke-width="0.525447" points="394.368,-326.993 389.758,-317.454 387.414,-327.786 394.368,-326.993"/>
</g>
<!-- 11634&#45;&gt;10810 -->
<g id="edge34" class="edge"><title>11634&#45;&gt;10810</title>
<path fill="none" stroke="red" stroke-width="0.408583" d="M470.151,-362.267C454.593,-348.801 432.961,-330.076 415.73,-315.161"/>
<polygon fill="red" stroke="red" stroke-width="0.408583" points="418.011,-312.507 408.16,-308.609 413.43,-317.8 418.011,-312.507"/>
</g>
<!-- 10810&#45;&gt;9899 -->
<g id="edge31" class="edge"><title>10810&#45;&gt;9899</title>
<path fill="none" stroke="red" stroke-width="0.131656" d="M387.5,-261.977C387.5,-253.108 387.5,-243.111 387.5,-233.76"/>
<polygon fill="red" stroke="red" stroke-width="0.131656" points="391,-233.572 387.5,-223.572 384,-233.572 391,-233.572"/>
</g>
</g>
</svg>
