<?xml version="1.0" encoding="UTF-8" standalone="no"?>
<!DOCTYPE svg PUBLIC "-//W3C//DTD SVG 1.1//EN"
 "http://www.w3.org/Graphics/SVG/1.1/DTD/svg11.dtd">
<!-- Generated by graphviz version 2.38.0 (20140413.2041)
 -->
<!-- Title: %3 Pages: 1 -->
<svg width="1226pt" height="878pt"
 viewBox="0.00 0.00 1226.37 877.89" xmlns="http://www.w3.org/2000/svg" xmlns:xlink="http://www.w3.org/1999/xlink">
<g id="graph0" class="graph" transform="scale(1 1) rotate(0) translate(4 873.886)">
<title>%3</title>
<polygon fill="white" stroke="none" points="-4,4 -4,-873.886 1222.37,-873.886 1222.37,4 -4,4"/>
<!-- &#45;1 -->
<g id="node1" class="node"><title>&#45;1</title>
<polygon fill="lightgray" stroke="black" points="594.695,-760.155 570.695,-760.155 570.695,-742.155 594.695,-742.155 594.695,-760.155"/>
<text text-anchor="middle" x="582.695" y="-748.955" font-family="Times,serif" font-size="9.00">&#45;1</text>
</g>
<!-- 14752 -->
<g id="node36" class="node"><title>14752</title>
<ellipse fill="white" stroke="black" cx="582.695" cy="-660.001" rx="27.6545" ry="27.6545"/>
<text text-anchor="middle" x="582.695" y="-657.801" font-family="Times,serif" font-size="9.00">14752</text>
</g>
<!-- &#45;1&#45;&gt;14752 -->
<g id="edge43" class="edge"><title>&#45;1&#45;&gt;14752</title>
<path fill="none" stroke="red" stroke-width="0.333985" d="M582.695,-741.927C582.695,-731.955 582.695,-714.474 582.695,-698.305"/>
<polygon fill="red" stroke="red" stroke-width="0.333985" points="586.195,-697.961 582.695,-687.962 579.195,-697.962 586.195,-697.961"/>
</g>
<!-- 9931 -->
<g id="node44" class="node"><title>9931</title>
<ellipse fill="white" stroke="black" cx="232.695" cy="-660.001" rx="25" ry="25"/>
<text text-anchor="middle" x="232.695" y="-657.801" font-family="Times,serif" font-size="9.00">9931</text>
</g>
<!-- &#45;1&#45;&gt;9931 -->
<g id="edge7" class="edge"><title>&#45;1&#45;&gt;9931</title>
<path fill="none" stroke="green" stroke-width="0.313516" d="M570.647,-747.086C522.43,-734.804 342.326,-688.927 266.588,-669.634"/>
<polygon fill="green" stroke="green" stroke-width="0.313516" points="267.173,-666.171 256.618,-667.095 265.445,-672.955 267.173,-666.171"/>
</g>
<!-- 6507 -->
<g id="node52" class="node"><title>6507</title>
<ellipse fill="white" stroke="black" cx="453.695" cy="-301.04" rx="25" ry="25"/>
<text text-anchor="middle" x="453.695" y="-298.84" font-family="Times,serif" font-size="9.00">6507</text>
</g>
<!-- &#45;1&#45;&gt;6507 -->
<g id="edge24" class="edge"><title>&#45;1&#45;&gt;6507</title>
<path fill="none" stroke="green" stroke-width="0.263248" d="M590.709,-742.116C613.441,-718.417 676.695,-645.896 676.695,-572.675 676.695,-572.675 676.695,-572.675 676.695,-482.349 676.695,-424.214 662.618,-403.826 619.695,-364.617 582.44,-330.587 524.884,-314.484 488.268,-307.3"/>
<polygon fill="green" stroke="green" stroke-width="0.263248" points="488.545,-303.793 478.077,-305.425 487.278,-310.677 488.545,-303.793"/>
</g>
<!-- &#45;2 -->
<g id="node2" class="node"><title>&#45;2</title>
<polygon fill="lightgray" stroke="black" points="289.695,-851.309 265.695,-851.309 265.695,-833.309 289.695,-833.309 289.695,-851.309"/>
<text text-anchor="middle" x="277.695" y="-840.109" font-family="Times,serif" font-size="9.00">&#45;2</text>
</g>
<!-- &#45;3 -->
<g id="node3" class="node"><title>&#45;3</title>
<polygon fill="lightgray" stroke="black" points="1009.69,-401.194 985.695,-401.194 985.695,-383.194 1009.69,-383.194 1009.69,-401.194"/>
<text text-anchor="middle" x="997.695" y="-389.994" font-family="Times,serif" font-size="9.00">&#45;3</text>
</g>
<!-- 2197 -->
<g id="node33" class="node"><title>2197</title>
<ellipse fill="white" stroke="black" cx="999.695" cy="-301.04" rx="25" ry="25"/>
<text text-anchor="middle" x="999.695" y="-298.84" font-family="Times,serif" font-size="9.00">2197</text>
</g>
<!-- &#45;3&#45;&gt;2197 -->
<g id="edge32" class="edge"><title>&#45;3&#45;&gt;2197</title>
<path fill="none" stroke="green" stroke-width="0.676104" d="M997.88,-382.967C998.118,-372.329 998.549,-353.145 998.93,-336.125"/>
<polygon fill="green" stroke="green" stroke-width="0.676104" points="1002.43,-335.979 999.16,-325.903 995.436,-335.822 1002.43,-335.979"/>
</g>
<!-- &#45;4 -->
<g id="node4" class="node"><title>&#45;4</title>
<polygon fill="lightgray" stroke="black" points="331.695,-851.309 307.695,-851.309 307.695,-833.309 331.695,-833.309 331.695,-851.309"/>
<text text-anchor="middle" x="319.695" y="-840.109" font-family="Times,serif" font-size="9.00">&#45;4</text>
</g>
<!-- &#45;5 -->
<g id="node5" class="node"><title>&#45;5</title>
<polygon fill="lightgray" stroke="black" points="509.695,-580.675 485.695,-580.675 485.695,-562.675 509.695,-562.675 509.695,-580.675"/>
<text text-anchor="middle" x="497.695" y="-569.475" font-family="Times,serif" font-size="9.00">&#45;5</text>
</g>
<!-- 2 -->
<g id="node27" class="node"><title>2</title>
<ellipse fill="lightblue" stroke="black" cx="459.695" cy="-483.349" rx="14.7" ry="14.7"/>
<text text-anchor="middle" x="459.695" y="-481.149" font-family="Times,serif" font-size="9.00">2</text>
</g>
<!-- &#45;5&#45;&gt;2 -->
<g id="edge29" class="edge"><title>&#45;5&#45;&gt;2</title>
<path fill="none" stroke="red" stroke-width="0.890617" d="M494.051,-562.397C488.44,-549.65 477.492,-524.778 469.457,-506.525"/>
<polygon fill="red" stroke="red" stroke-width="0.890617" points="472.577,-504.926 465.345,-497.184 466.17,-507.746 472.577,-504.926"/>
</g>
<!-- 5851 -->
<g id="node49" class="node"><title>5851</title>
<ellipse fill="white" stroke="black" cx="788.695" cy="-209.886" rx="25" ry="25"/>
<text text-anchor="middle" x="788.695" y="-207.686" font-family="Times,serif" font-size="9.00">5851</text>
</g>
<!-- &#45;5&#45;&gt;5851 -->
<g id="edge49" class="edge"><title>&#45;5&#45;&gt;5851</title>
<path fill="none" stroke="green" stroke-width="1.09844" d="M507.791,-562.306C520.897,-551.214 544.162,-530.729 561.695,-510.926 648.254,-413.161 653.528,-375.748 734.695,-273.463 744.528,-261.071 755.907,-247.747 765.676,-236.592"/>
<polygon fill="green" stroke="green" stroke-width="1.09844" points="768.472,-238.713 772.46,-228.897 763.221,-234.084 768.472,-238.713"/>
</g>
<!-- &#45;6 -->
<g id="node6" class="node"><title>&#45;6</title>
<polygon fill="lightgray" stroke="black" points="369.695,-492.349 345.695,-492.349 345.695,-474.349 369.695,-474.349 369.695,-492.349"/>
<text text-anchor="middle" x="357.695" y="-481.149" font-family="Times,serif" font-size="9.00">&#45;6</text>
</g>
<!-- 10861 -->
<g id="node54" class="node"><title>10861</title>
<ellipse fill="white" stroke="black" cx="397.695" cy="-392.194" rx="27.6545" ry="27.6545"/>
<text text-anchor="middle" x="397.695" y="-389.994" font-family="Times,serif" font-size="9.00">10861</text>
</g>
<!-- &#45;6&#45;&gt;10861 -->
<g id="edge46" class="edge"><title>&#45;6&#45;&gt;10861</title>
<path fill="none" stroke="green" stroke-width="0.781709" d="M361.386,-474.121C366.184,-463.428 374.856,-444.1 382.521,-427.014"/>
<polygon fill="green" stroke="green" stroke-width="0.781709" points="385.745,-428.378 386.646,-417.822 379.359,-425.513 385.745,-428.378"/>
</g>
<!-- &#45;7 -->
<g id="node7" class="node"><title>&#45;7</title>
<polygon fill="lightgray" stroke="black" points="1064.69,-492.349 1040.69,-492.349 1040.69,-474.349 1064.69,-474.349 1064.69,-492.349"/>
<text text-anchor="middle" x="1052.69" y="-481.149" font-family="Times,serif" font-size="9.00">&#45;7</text>
</g>
<!-- 4505 -->
<g id="node34" class="node"><title>4505</title>
<ellipse fill="white" stroke="black" cx="1052.69" cy="-392.194" rx="25" ry="25"/>
<text text-anchor="middle" x="1052.69" y="-389.994" font-family="Times,serif" font-size="9.00">4505</text>
</g>
<!-- &#45;7&#45;&gt;4505 -->
<g id="edge22" class="edge"><title>&#45;7&#45;&gt;4505</title>
<path fill="none" stroke="red" stroke-width="1.02851" d="M1052.69,-474.121C1052.69,-463.483 1052.69,-444.299 1052.69,-427.279"/>
<polygon fill="red" stroke="red" stroke-width="1.02851" points="1056.2,-427.057 1052.69,-417.057 1049.2,-427.057 1056.2,-427.057"/>
</g>
<!-- &#45;7&#45;&gt;5851 -->
<g id="edge26" class="edge"><title>&#45;7&#45;&gt;5851</title>
<path fill="none" stroke="green" stroke-width="0.102072" d="M1046.71,-473.9C1042.58,-468.386 1036.75,-461.226 1030.69,-455.772 1009.27,-436.457 997.943,-439.279 976.695,-419.772 953.596,-398.565 953.207,-388.335 932.695,-364.617 892.07,-317.644 841.975,-265.34 812.851,-235.45"/>
<polygon fill="green" stroke="green" stroke-width="0.102072" points="815.059,-232.701 805.568,-227.993 810.052,-237.593 815.059,-232.701"/>
</g>
<!-- &#45;8 -->
<g id="node8" class="node"><title>&#45;8</title>
<polygon fill="lightgray" stroke="black" points="849.695,-401.194 825.695,-401.194 825.695,-383.194 849.695,-383.194 849.695,-401.194"/>
<text text-anchor="middle" x="837.695" y="-389.994" font-family="Times,serif" font-size="9.00">&#45;8</text>
</g>
<!-- 13963 -->
<g id="node29" class="node"><title>13963</title>
<ellipse fill="white" stroke="black" cx="788.695" cy="-301.04" rx="27.6545" ry="27.6545"/>
<text text-anchor="middle" x="788.695" y="-298.84" font-family="Times,serif" font-size="9.00">13963</text>
</g>
<!-- &#45;8&#45;&gt;13963 -->
<g id="edge30" class="edge"><title>&#45;8&#45;&gt;13963</title>
<path fill="none" stroke="red" stroke-width="0.315035" d="M833.173,-382.967C827.12,-371.954 816.034,-351.784 806.445,-334.336"/>
<polygon fill="red" stroke="red" stroke-width="0.315035" points="809.485,-332.6 801.601,-325.523 803.351,-335.972 809.485,-332.6"/>
</g>
<!-- &#45;8&#45;&gt;2197 -->
<g id="edge12" class="edge"><title>&#45;8&#45;&gt;2197</title>
<path fill="none" stroke="green" stroke-width="0.325285" d="M842.716,-382.878C846.52,-377.14 852.19,-369.664 858.695,-364.617 891.487,-339.173 936.252,-321.601 966.474,-311.696"/>
<polygon fill="green" stroke="green" stroke-width="0.325285" points="967.656,-314.993 976.128,-308.631 965.537,-308.321 967.656,-314.993"/>
</g>
<!-- &#45;8&#45;&gt;5851 -->
<g id="edge35" class="edge"><title>&#45;8&#45;&gt;5851</title>
<path fill="none" stroke="red" stroke-width="0.302312" d="M838.049,-382.952C838.637,-363.397 838.662,-312.887 825.695,-273.463 821.73,-261.408 815.172,-249.17 808.669,-238.751"/>
<polygon fill="red" stroke="red" stroke-width="0.302312" points="811.43,-236.578 803.036,-230.114 805.567,-240.402 811.43,-236.578"/>
</g>
<!-- &#45;8&#45;&gt;6507 -->
<g id="edge14" class="edge"><title>&#45;8&#45;&gt;6507</title>
<path fill="none" stroke="green" stroke-width="0.357999" d="M833.032,-382.868C829.186,-376.811 823.158,-368.942 815.695,-364.617 760.112,-332.403 567.835,-312.138 488.423,-304.965"/>
<polygon fill="green" stroke="green" stroke-width="0.357999" points="488.703,-301.476 478.432,-304.078 488.084,-308.448 488.703,-301.476"/>
</g>
<!-- &#45;9 -->
<g id="node9" class="node"><title>&#45;9</title>
<polygon fill="lightgray" stroke="black" points="373.695,-851.309 349.695,-851.309 349.695,-833.309 373.695,-833.309 373.695,-851.309"/>
<text text-anchor="middle" x="361.695" y="-840.109" font-family="Times,serif" font-size="9.00">&#45;9</text>
</g>
<!-- &#45;10 -->
<g id="node10" class="node"><title>&#45;10</title>
<polygon fill="lightgray" stroke="black" points="417.195,-492.349 388.195,-492.349 388.195,-474.349 417.195,-474.349 417.195,-492.349"/>
<text text-anchor="middle" x="402.695" y="-481.149" font-family="Times,serif" font-size="9.00">&#45;10</text>
</g>
<!-- &#45;10&#45;&gt;10861 -->
<g id="edge2" class="edge"><title>&#45;10&#45;&gt;10861</title>
<path fill="none" stroke="green" stroke-width="0.524835" d="M402.234,-474.121C401.67,-464.079 400.68,-446.42 399.768,-430.155"/>
<polygon fill="green" stroke="green" stroke-width="0.524835" points="403.24,-429.551 399.185,-419.763 396.25,-429.943 403.24,-429.551"/>
</g>
<!-- &#45;11 -->
<g id="node11" class="node"><title>&#45;11</title>
<polygon fill="lightgray" stroke="black" points="421.195,-851.309 392.195,-851.309 392.195,-833.309 421.195,-833.309 421.195,-851.309"/>
<text text-anchor="middle" x="406.695" y="-840.109" font-family="Times,serif" font-size="9.00">&#45;11</text>
</g>
<!-- &#45;12 -->
<g id="node12" class="node"><title>&#45;12</title>
<polygon fill="lightgray" stroke="black" points="247.195,-851.309 218.195,-851.309 218.195,-833.309 247.195,-833.309 247.195,-851.309"/>
<text text-anchor="middle" x="232.695" y="-840.109" font-family="Times,serif" font-size="9.00">&#45;12</text>
</g>
<!-- 18613 -->
<g id="node41" class="node"><title>18613</title>
<ellipse fill="white" stroke="black" cx="260.695" cy="-751.155" rx="27.6545" ry="27.6545"/>
<text text-anchor="middle" x="260.695" y="-748.955" font-family="Times,serif" font-size="9.00">18613</text>
</g>
<!-- &#45;12&#45;&gt;18613 -->
<g id="edge47" class="edge"><title>&#45;12&#45;&gt;18613</title>
<path fill="none" stroke="red" stroke-width="0.983259" d="M235.279,-833.082C238.561,-822.632 244.433,-803.935 249.706,-787.143"/>
<polygon fill="red" stroke="red" stroke-width="0.983259" points="253.061,-788.143 252.718,-777.554 246.383,-786.046 253.061,-788.143"/>
</g>
<!-- &#45;12&#45;&gt;9931 -->
<g id="edge5" class="edge"><title>&#45;12&#45;&gt;9931</title>
<path fill="none" stroke="green" stroke-width="0.107999" d="M231.159,-833.249C228.982,-821.37 225.105,-798.438 223.695,-778.732 221.946,-754.282 221.946,-748.028 223.695,-723.578 224.366,-714.192 225.598,-704.074 226.938,-694.767"/>
<polygon fill="green" stroke="green" stroke-width="0.107999" points="230.428,-695.1 228.474,-684.686 223.508,-694.045 230.428,-695.1"/>
</g>
<!-- &#45;13 -->
<g id="node13" class="node"><title>&#45;13</title>
<polygon fill="lightgray" stroke="black" points="863.195,-127.731 834.195,-127.731 834.195,-109.731 863.195,-109.731 863.195,-127.731"/>
<text text-anchor="middle" x="848.695" y="-116.531" font-family="Times,serif" font-size="9.00">&#45;13</text>
</g>
<!-- 11577 -->
<g id="node42" class="node"><title>11577</title>
<ellipse fill="white" stroke="black" cx="818.695" cy="-27.5772" rx="27.6545" ry="27.6545"/>
<text text-anchor="middle" x="818.695" y="-25.3772" font-family="Times,serif" font-size="9.00">11577</text>
</g>
<!-- &#45;13&#45;&gt;11577 -->
<g id="edge40" class="edge"><title>&#45;13&#45;&gt;11577</title>
<path fill="none" stroke="green" stroke-width="1.15518" d="M845.926,-109.504C842.41,-99.0537 836.119,-80.357 830.468,-63.5657"/>
<polygon fill="green" stroke="green" stroke-width="1.15518" points="833.748,-62.3377 827.242,-53.9761 827.114,-64.5702 833.748,-62.3377"/>
</g>
<!-- &#45;14 -->
<g id="node14" class="node"><title>&#45;14</title>
<polygon fill="lightgray" stroke="black" points="1022.19,-492.349 993.195,-492.349 993.195,-474.349 1022.19,-474.349 1022.19,-492.349"/>
<text text-anchor="middle" x="1007.69" y="-481.149" font-family="Times,serif" font-size="9.00">&#45;14</text>
</g>
<!-- 12988 -->
<g id="node43" class="node"><title>12988</title>
<ellipse fill="white" stroke="black" cx="1122.69" cy="-392.194" rx="27.6545" ry="27.6545"/>
<text text-anchor="middle" x="1122.69" y="-389.994" font-family="Times,serif" font-size="9.00">12988</text>
</g>
<!-- &#45;14&#45;&gt;12988 -->
<g id="edge39" class="edge"><title>&#45;14&#45;&gt;12988</title>
<path fill="none" stroke="green" stroke-width="0.120853" d="M1014.34,-473.929C1018.9,-468.427 1025.27,-461.27 1031.69,-455.772 1053.89,-436.774 1062.71,-436.454 1086.69,-419.772 1088.76,-418.335 1090.88,-416.837 1093,-415.316"/>
<polygon fill="green" stroke="green" stroke-width="0.120853" points="1095.1,-418.121 1101.14,-409.416 1090.99,-412.455 1095.1,-418.121"/>
</g>
<!-- 12795 -->
<g id="node56" class="node"><title>12795</title>
<ellipse fill="white" stroke="black" cx="895.695" cy="-392.194" rx="27.6545" ry="27.6545"/>
<text text-anchor="middle" x="895.695" y="-389.994" font-family="Times,serif" font-size="9.00">12795</text>
</g>
<!-- &#45;14&#45;&gt;12795 -->
<g id="edge38" class="edge"><title>&#45;14&#45;&gt;12795</title>
<path fill="none" stroke="red" stroke-width="0.203641" d="M1001.33,-473.973C996.957,-468.49 990.851,-461.337 984.695,-455.772 974.721,-446.753 948.31,-428.409 926.832,-413.902"/>
<polygon fill="red" stroke="red" stroke-width="0.203641" points="928.543,-410.835 918.291,-408.159 924.637,-416.644 928.543,-410.835"/>
</g>
<!-- &#45;15 -->
<g id="node15" class="node"><title>&#45;15</title>
<polygon fill="lightgray" stroke="black" points="468.195,-851.309 439.195,-851.309 439.195,-833.309 468.195,-833.309 468.195,-851.309"/>
<text text-anchor="middle" x="453.695" y="-840.109" font-family="Times,serif" font-size="9.00">&#45;15</text>
</g>
<!-- &#45;16 -->
<g id="node16" class="node"><title>&#45;16</title>
<polygon fill="lightgray" stroke="black" points="515.195,-851.309 486.195,-851.309 486.195,-833.309 515.195,-833.309 515.195,-851.309"/>
<text text-anchor="middle" x="500.695" y="-840.109" font-family="Times,serif" font-size="9.00">&#45;16</text>
</g>
<!-- &#45;17 -->
<g id="node17" class="node"><title>&#45;17</title>
<polygon fill="lightgray" stroke="black" points="352.195,-401.194 323.195,-401.194 323.195,-383.194 352.195,-383.194 352.195,-401.194"/>
<text text-anchor="middle" x="337.695" y="-389.994" font-family="Times,serif" font-size="9.00">&#45;17</text>
</g>
<!-- &#45;17&#45;&gt;6507 -->
<g id="edge17" class="edge"><title>&#45;17&#45;&gt;6507</title>
<path fill="none" stroke="green" stroke-width="0.34227" d="M344.023,-382.777C348.38,-377.276 354.483,-370.12 360.695,-364.617 380.314,-347.241 405.028,-330.829 424.048,-319.175"/>
<polygon fill="green" stroke="green" stroke-width="0.34227" points="425.856,-322.172 432.613,-314.012 422.242,-316.177 425.856,-322.172"/>
</g>
<!-- &#45;18 -->
<g id="node18" class="node"><title>&#45;18</title>
<polygon fill="lightgray" stroke="black" points="562.195,-851.309 533.195,-851.309 533.195,-833.309 562.195,-833.309 562.195,-851.309"/>
<text text-anchor="middle" x="547.695" y="-840.109" font-family="Times,serif" font-size="9.00">&#45;18</text>
</g>
<!-- &#45;19 -->
<g id="node19" class="node"><title>&#45;19</title>
<polygon fill="lightgray" stroke="black" points="807.195,-401.194 778.195,-401.194 778.195,-383.194 807.195,-383.194 807.195,-401.194"/>
<text text-anchor="middle" x="792.695" y="-389.994" font-family="Times,serif" font-size="9.00">&#45;19</text>
</g>
<!-- &#45;19&#45;&gt;13963 -->
<g id="edge16" class="edge"><title>&#45;19&#45;&gt;13963</title>
<path fill="none" stroke="red" stroke-width="0.471166" d="M792.326,-382.967C791.875,-372.924 791.083,-355.266 790.353,-339.001"/>
<polygon fill="red" stroke="red" stroke-width="0.471166" points="793.832,-338.441 789.887,-328.608 786.839,-338.755 793.832,-338.441"/>
</g>
<!-- &#45;20 -->
<g id="node20" class="node"><title>&#45;20</title>
<polygon fill="lightgray" stroke="black" points="962.195,-580.675 933.195,-580.675 933.195,-562.675 962.195,-562.675 962.195,-580.675"/>
<text text-anchor="middle" x="947.695" y="-569.475" font-family="Times,serif" font-size="9.00">&#45;20</text>
</g>
<!-- 16336 -->
<g id="node46" class="node"><title>16336</title>
<ellipse fill="white" stroke="black" cx="1175.69" cy="-209.886" rx="27.6545" ry="27.6545"/>
<text text-anchor="middle" x="1175.69" y="-207.686" font-family="Times,serif" font-size="9.00">16336</text>
</g>
<!-- &#45;20&#45;&gt;16336 -->
<g id="edge44" class="edge"><title>&#45;20&#45;&gt;16336</title>
<path fill="none" stroke="green" stroke-width="0.428714" d="M962.241,-565.795C986.724,-557.158 1037.08,-537.548 1073.69,-510.926 1118.74,-478.173 1126.37,-464.397 1159.69,-419.772 1201.08,-364.359 1230.94,-340.174 1212.69,-273.463 1209.58,-262.092 1203.82,-250.688 1197.75,-240.789"/>
<polygon fill="green" stroke="green" stroke-width="0.428714" points="1200.53,-238.651 1192.16,-232.165 1194.66,-242.459 1200.53,-238.651"/>
</g>
<!-- 9704 -->
<g id="node50" class="node"><title>9704</title>
<ellipse fill="white" stroke="black" cx="877.695" cy="-483.349" rx="25" ry="25"/>
<text text-anchor="middle" x="877.695" y="-481.149" font-family="Times,serif" font-size="9.00">9704</text>
</g>
<!-- &#45;20&#45;&gt;9704 -->
<g id="edge57" class="edge"><title>&#45;20&#45;&gt;9704</title>
<path fill="none" stroke="red" stroke-width="0.227948" d="M940.983,-562.397C931.514,-550.72 913.794,-528.867 899.507,-511.248"/>
<polygon fill="red" stroke="red" stroke-width="0.227948" points="901.838,-508.565 892.821,-503.002 896.4,-512.974 901.838,-508.565"/>
</g>
<!-- 13815 -->
<g id="node55" class="node"><title>13815</title>
<ellipse fill="white" stroke="black" cx="947.695" cy="-483.349" rx="27.6545" ry="27.6545"/>
<text text-anchor="middle" x="947.695" y="-481.149" font-family="Times,serif" font-size="9.00">13815</text>
</g>
<!-- &#45;20&#45;&gt;13815 -->
<g id="edge48" class="edge"><title>&#45;20&#45;&gt;13815</title>
<path fill="none" stroke="red" stroke-width="0.296816" d="M947.695,-562.397C947.695,-552.865 947.695,-536.554 947.695,-521.299"/>
<polygon fill="red" stroke="red" stroke-width="0.296816" points="951.195,-521.003 947.695,-511.004 944.195,-521.004 951.195,-521.003"/>
</g>
<!-- &#45;21 -->
<g id="node21" class="node"><title>&#45;21</title>
<polygon fill="lightgray" stroke="black" points="609.195,-851.309 580.195,-851.309 580.195,-833.309 609.195,-833.309 609.195,-851.309"/>
<text text-anchor="middle" x="594.695" y="-840.109" font-family="Times,serif" font-size="9.00">&#45;21</text>
</g>
<!-- &#45;22 -->
<g id="node22" class="node"><title>&#45;22</title>
<polygon fill="lightgray" stroke="black" points="656.195,-851.309 627.195,-851.309 627.195,-833.309 656.195,-833.309 656.195,-851.309"/>
<text text-anchor="middle" x="641.695" y="-840.109" font-family="Times,serif" font-size="9.00">&#45;22</text>
</g>
<!-- &#45;23 -->
<g id="node23" class="node"><title>&#45;23</title>
<polygon fill="lightgray" stroke="black" points="703.195,-851.309 674.195,-851.309 674.195,-833.309 703.195,-833.309 703.195,-851.309"/>
<text text-anchor="middle" x="688.695" y="-840.109" font-family="Times,serif" font-size="9.00">&#45;23</text>
</g>
<!-- &#45;24 -->
<g id="node24" class="node"><title>&#45;24</title>
<polygon fill="lightgray" stroke="black" points="71.195,-580.675 42.195,-580.675 42.195,-562.675 71.195,-562.675 71.195,-580.675"/>
<text text-anchor="middle" x="56.695" y="-569.475" font-family="Times,serif" font-size="9.00">&#45;24</text>
</g>
<!-- 12629 -->
<g id="node48" class="node"><title>12629</title>
<ellipse fill="white" stroke="black" cx="56.695" cy="-483.349" rx="27.6545" ry="27.6545"/>
<text text-anchor="middle" x="56.695" y="-481.149" font-family="Times,serif" font-size="9.00">12629</text>
</g>
<!-- &#45;24&#45;&gt;12629 -->
<g id="edge51" class="edge"><title>&#45;24&#45;&gt;12629</title>
<path fill="none" stroke="red" stroke-width="0.849005" d="M56.695,-562.397C56.695,-552.865 56.695,-536.554 56.695,-521.299"/>
<polygon fill="red" stroke="red" stroke-width="0.849005" points="60.1951,-521.003 56.695,-511.004 53.1951,-521.004 60.1951,-521.003"/>
</g>
<!-- 0 -->
<g id="node25" class="node"><title>0</title>
<ellipse fill="lightblue" stroke="black" cx="735.695" cy="-842.309" rx="14.7" ry="14.7"/>
<text text-anchor="middle" x="735.695" y="-840.109" font-family="Times,serif" font-size="9.00">0</text>
</g>
<!-- 1 -->
<g id="node26" class="node"><title>1</title>
<ellipse fill="lightblue" stroke="black" cx="1032.69" cy="-209.886" rx="14.7" ry="14.7"/>
<text text-anchor="middle" x="1032.69" y="-207.686" font-family="Times,serif" font-size="9.00">1</text>
</g>
<!-- 16908 -->
<g id="node30" class="node"><title>16908</title>
<ellipse fill="white" stroke="black" cx="509.695" cy="-392.194" rx="27.6545" ry="27.6545"/>
<text text-anchor="middle" x="509.695" y="-389.994" font-family="Times,serif" font-size="9.00">16908</text>
</g>
<!-- 2&#45;&gt;16908 -->
<g id="edge23" class="edge"><title>2&#45;&gt;16908</title>
<path fill="none" stroke="red" stroke-width="0.399244" d="M466.647,-469.952C473.107,-458.433 483.01,-440.776 491.69,-425.3"/>
<polygon fill="red" stroke="red" stroke-width="0.399244" points="494.784,-426.936 496.623,-416.502 488.679,-423.512 494.784,-426.936"/>
</g>
<!-- 2&#45;&gt;6507 -->
<g id="edge4" class="edge"><title>2&#45;&gt;6507</title>
<path fill="none" stroke="green" stroke-width="0.406177" d="M459.234,-468.5C458.3,-440.415 456.157,-376.043 454.828,-336.083"/>
<polygon fill="green" stroke="green" stroke-width="0.406177" points="458.323,-335.877 454.492,-325.999 451.327,-336.11 458.323,-335.877"/>
</g>
<!-- 2&#45;&gt;10861 -->
<g id="edge52" class="edge"><title>2&#45;&gt;10861</title>
<path fill="none" stroke="red" stroke-width="0.474359" d="M451.59,-470.693C443.392,-458.905 430.368,-440.177 419.177,-424.085"/>
<polygon fill="red" stroke="red" stroke-width="0.474359" points="421.773,-421.688 413.19,-415.476 416.026,-425.685 421.773,-421.688"/>
</g>
<!-- 3 -->
<g id="node28" class="node"><title>3</title>
<ellipse fill="lightblue" stroke="black" cx="783.695" cy="-842.309" rx="14.7" ry="14.7"/>
<text text-anchor="middle" x="783.695" y="-840.109" font-family="Times,serif" font-size="9.00">3</text>
</g>
<!-- 13963&#45;&gt;5851 -->
<g id="edge53" class="edge"><title>13963&#45;&gt;5851</title>
<path fill="none" stroke="green" stroke-width="0.441952" d="M788.695,-273.291C788.695,-264.422 788.695,-254.425 788.695,-245.074"/>
<polygon fill="green" stroke="green" stroke-width="0.441952" points="792.195,-244.886 788.695,-234.886 785.195,-244.886 792.195,-244.886"/>
</g>
<!-- 16908&#45;&gt;6507 -->
<g id="edge27" class="edge"><title>16908&#45;&gt;6507</title>
<path fill="none" stroke="green" stroke-width="0.135508" d="M495.274,-368.235C488.198,-356.97 479.595,-343.275 472.055,-331.27"/>
<polygon fill="green" stroke="green" stroke-width="0.135508" points="474.822,-329.095 466.539,-322.489 468.894,-332.818 474.822,-329.095"/>
</g>
<!-- 13327 -->
<g id="node31" class="node"><title>13327</title>
<ellipse fill="white" stroke="black" cx="732.695" cy="-392.194" rx="27.6545" ry="27.6545"/>
<text text-anchor="middle" x="732.695" y="-389.994" font-family="Times,serif" font-size="9.00">13327</text>
</g>
<!-- 13327&#45;&gt;13963 -->
<g id="edge25" class="edge"><title>13327&#45;&gt;13963</title>
<path fill="none" stroke="green" stroke-width="0.21283" d="M747.116,-368.235C753.714,-357.732 761.638,-345.116 768.791,-333.728"/>
<polygon fill="green" stroke="green" stroke-width="0.21283" points="771.967,-335.252 774.322,-324.922 766.04,-331.528 771.967,-335.252"/>
</g>
<!-- 13327&#45;&gt;5851 -->
<g id="edge31" class="edge"><title>13327&#45;&gt;5851</title>
<path fill="none" stroke="green" stroke-width="0.956363" d="M734.176,-364.298C736.179,-339.961 740.852,-303.447 751.695,-273.463 755.977,-261.621 762.542,-249.504 768.959,-239.126"/>
<polygon fill="green" stroke="green" stroke-width="0.956363" points="772.038,-240.808 774.5,-230.503 766.149,-237.024 772.038,-240.808"/>
</g>
<!-- 2831 -->
<g id="node32" class="node"><title>2831</title>
<ellipse fill="white" stroke="black" cx="1066.69" cy="-301.04" rx="25" ry="25"/>
<text text-anchor="middle" x="1066.69" y="-298.84" font-family="Times,serif" font-size="9.00">2831</text>
</g>
<!-- 2831&#45;&gt;1 -->
<g id="edge6" class="edge"><title>2831&#45;&gt;1</title>
<path fill="none" stroke="red" stroke-width="0.335342" d="M1058.12,-277.543C1052.97,-264.06 1046.46,-246.972 1041.31,-233.473"/>
<polygon fill="red" stroke="red" stroke-width="0.335342" points="1044.52,-232.065 1037.68,-223.969 1037.98,-234.56 1044.52,-232.065"/>
</g>
<!-- 2197&#45;&gt;1 -->
<g id="edge54" class="edge"><title>2197&#45;&gt;1</title>
<path fill="none" stroke="green" stroke-width="0.796488" d="M1008.02,-277.543C1013.01,-264.06 1019.34,-246.972 1024.33,-233.473"/>
<polygon fill="green" stroke="green" stroke-width="0.796488" points="1027.66,-234.562 1027.85,-223.969 1021.1,-232.132 1027.66,-234.562"/>
</g>
<!-- 4505&#45;&gt;2831 -->
<g id="edge28" class="edge"><title>4505&#45;&gt;2831</title>
<path fill="none" stroke="red" stroke-width="1.35097" d="M1056.45,-367.303C1057.97,-357.632 1059.75,-346.291 1061.39,-335.802"/>
<polygon fill="red" stroke="red" stroke-width="1.35097" points="1064.89,-336.111 1062.98,-325.689 1057.97,-335.025 1064.89,-336.111"/>
</g>
<!-- 18457 -->
<g id="node35" class="node"><title>18457</title>
<ellipse fill="white" stroke="black" cx="168.695" cy="-483.349" rx="27.6545" ry="27.6545"/>
<text text-anchor="middle" x="168.695" y="-481.149" font-family="Times,serif" font-size="9.00">18457</text>
</g>
<!-- 11243 -->
<g id="node53" class="node"><title>11243</title>
<ellipse fill="white" stroke="black" cx="168.695" cy="-392.194" rx="27.6545" ry="27.6545"/>
<text text-anchor="middle" x="168.695" y="-389.994" font-family="Times,serif" font-size="9.00">11243</text>
</g>
<!-- 18457&#45;&gt;11243 -->
<g id="edge45" class="edge"><title>18457&#45;&gt;11243</title>
<path fill="none" stroke="green" stroke-width="0.740314" d="M168.695,-455.6C168.695,-447.577 168.695,-438.633 168.695,-430.078"/>
<polygon fill="green" stroke="green" stroke-width="0.740314" points="172.195,-429.925 168.695,-419.925 165.195,-429.925 172.195,-429.925"/>
</g>
<!-- 17317 -->
<g id="node37" class="node"><title>17317</title>
<ellipse fill="white" stroke="black" cx="582.695" cy="-392.194" rx="27.6545" ry="27.6545"/>
<text text-anchor="middle" x="582.695" y="-389.994" font-family="Times,serif" font-size="9.00">17317</text>
</g>
<!-- 14752&#45;&gt;17317 -->
<g id="edge10" class="edge"><title>14752&#45;&gt;17317</title>
<path fill="none" stroke="green" stroke-width="0.137005" d="M582.695,-632.051C582.695,-584.166 582.695,-484.206 582.695,-430.018"/>
<polygon fill="green" stroke="green" stroke-width="0.137005" points="586.195,-429.82 582.695,-419.82 579.195,-429.82 586.195,-429.82"/>
</g>
<!-- 17317&#45;&gt;6507 -->
<g id="edge33" class="edge"><title>17317&#45;&gt;6507</title>
<path fill="none" stroke="red" stroke-width="0.496091" d="M561.104,-375.019C556.384,-371.548 551.393,-367.93 546.695,-364.617 525.509,-349.68 501.192,-333.345 482.737,-321.111"/>
<polygon fill="red" stroke="red" stroke-width="0.496091" points="484.46,-318.055 474.188,-315.459 480.6,-323.894 484.46,-318.055"/>
</g>
<!-- 12709 -->
<g id="node38" class="node"><title>12709</title>
<ellipse fill="white" stroke="black" cx="241.695" cy="-483.349" rx="27.6545" ry="27.6545"/>
<text text-anchor="middle" x="241.695" y="-481.149" font-family="Times,serif" font-size="9.00">12709</text>
</g>
<!-- 12709&#45;&gt;11243 -->
<g id="edge21" class="edge"><title>12709&#45;&gt;11243</title>
<path fill="none" stroke="green" stroke-width="0.456569" d="M224.395,-461.22C214.849,-449.562 202.854,-434.913 192.442,-422.197"/>
<polygon fill="green" stroke="green" stroke-width="0.456569" points="194.914,-419.691 185.871,-414.171 189.498,-424.126 194.914,-419.691"/>
</g>
<!-- 7718 -->
<g id="node39" class="node"><title>7718</title>
<ellipse fill="white" stroke="black" cx="232.695" cy="-571.675" rx="25" ry="25"/>
<text text-anchor="middle" x="232.695" y="-569.475" font-family="Times,serif" font-size="9.00">7718</text>
</g>
<!-- 7718&#45;&gt;18457 -->
<g id="edge37" class="edge"><title>7718&#45;&gt;18457</title>
<path fill="none" stroke="green" stroke-width="0.316367" d="M218.172,-551.086C210.082,-540.173 199.841,-526.36 190.778,-514.135"/>
<polygon fill="green" stroke="green" stroke-width="0.316367" points="193.5,-511.93 184.733,-505.981 187.877,-516.099 193.5,-511.93"/>
</g>
<!-- 10705 -->
<g id="node47" class="node"><title>10705</title>
<ellipse fill="white" stroke="black" cx="524.695" cy="-483.349" rx="27.6545" ry="27.6545"/>
<text text-anchor="middle" x="524.695" y="-481.149" font-family="Times,serif" font-size="9.00">10705</text>
</g>
<!-- 7718&#45;&gt;10705 -->
<g id="edge55" class="edge"><title>7718&#45;&gt;10705</title>
<path fill="none" stroke="green" stroke-width="0.101183" d="M257.448,-567.635C303.503,-561.368 404.834,-544.679 483.695,-510.926 487.175,-509.437 490.688,-507.659 494.116,-505.738"/>
<polygon fill="green" stroke="green" stroke-width="0.101183" points="496.164,-508.59 502.912,-500.423 492.543,-502.599 496.164,-508.59"/>
</g>
<!-- 7718&#45;&gt;6507 -->
<g id="edge18" class="edge"><title>7718&#45;&gt;6507</title>
<path fill="none" stroke="green" stroke-width="0.322801" d="M249.377,-553.176C259.252,-541.918 271.249,-526.52 278.695,-510.926 307.503,-450.59 271,-416.071 313.695,-364.617 340.541,-332.264 387.536,-316.014 419.608,-308.312"/>
<polygon fill="green" stroke="green" stroke-width="0.322801" points="420.462,-311.707 429.452,-306.102 418.928,-304.877 420.462,-311.707"/>
</g>
<!-- 7718&#45;&gt;11243 -->
<g id="edge34" class="edge"><title>7718&#45;&gt;11243</title>
<path fill="none" stroke="red" stroke-width="0.110107" d="M208.905,-564.169C184.594,-556.108 148.146,-539.773 131.695,-510.926 115.908,-483.245 130.955,-447.988 146.336,-423.302"/>
<polygon fill="red" stroke="red" stroke-width="0.110107" points="149.407,-425.002 151.961,-414.72 143.552,-421.165 149.407,-425.002"/>
</g>
<!-- 17832 -->
<g id="node40" class="node"><title>17832</title>
<ellipse fill="white" stroke="black" cx="1175.69" cy="-301.04" rx="27.6545" ry="27.6545"/>
<text text-anchor="middle" x="1175.69" y="-298.84" font-family="Times,serif" font-size="9.00">17832</text>
</g>
<!-- 17832&#45;&gt;16336 -->
<g id="edge13" class="edge"><title>17832&#45;&gt;16336</title>
<path fill="none" stroke="red" stroke-width="0.504043" d="M1175.69,-273.291C1175.69,-265.269 1175.69,-256.324 1175.69,-247.769"/>
<polygon fill="red" stroke="red" stroke-width="0.504043" points="1179.2,-247.616 1175.69,-237.616 1172.2,-247.616 1179.2,-247.616"/>
</g>
<!-- 18613&#45;&gt;9931 -->
<g id="edge3" class="edge"><title>18613&#45;&gt;9931</title>
<path fill="none" stroke="red" stroke-width="0.122114" d="M252.596,-724.368C249.592,-714.802 246.144,-703.824 242.971,-693.722"/>
<polygon fill="red" stroke="red" stroke-width="0.122114" points="246.253,-692.488 239.917,-683.996 239.574,-694.586 246.253,-692.488"/>
</g>
<!-- 12988&#45;&gt;2831 -->
<g id="edge9" class="edge"><title>12988&#45;&gt;2831</title>
<path fill="none" stroke="green" stroke-width="0.599879" d="M1108.27,-368.235C1101.2,-356.97 1092.6,-343.275 1085.06,-331.27"/>
<polygon fill="green" stroke="green" stroke-width="0.599879" points="1087.82,-329.095 1079.54,-322.489 1081.89,-332.818 1087.82,-329.095"/>
</g>
<!-- 12988&#45;&gt;17832 -->
<g id="edge36" class="edge"><title>12988&#45;&gt;17832</title>
<path fill="none" stroke="green" stroke-width="0.285753" d="M1136.62,-367.77C1142.77,-357.43 1150.09,-345.113 1156.72,-333.952"/>
<polygon fill="green" stroke="green" stroke-width="0.285753" points="1159.76,-335.692 1161.86,-325.308 1153.74,-332.115 1159.76,-335.692"/>
</g>
<!-- 12988&#45;&gt;16336 -->
<g id="edge20" class="edge"><title>12988&#45;&gt;16336</title>
<path fill="none" stroke="green" stroke-width="0.11433" d="M1123.32,-364.308C1124.59,-339.978 1128.27,-303.468 1138.69,-273.463 1142.53,-262.419 1148.44,-251.173 1154.41,-241.318"/>
<polygon fill="green" stroke="green" stroke-width="0.11433" points="1157.47,-243.026 1159.86,-232.704 1151.56,-239.285 1157.47,-243.026"/>
</g>
<!-- 9931&#45;&gt;7718 -->
<g id="edge42" class="edge"><title>9931&#45;&gt;7718</title>
<path fill="none" stroke="red" stroke-width="0.72338" d="M232.695,-634.954C232.695,-626.255 232.695,-616.257 232.695,-606.854"/>
<polygon fill="red" stroke="red" stroke-width="0.72338" points="236.195,-606.592 232.695,-596.592 229.195,-606.592 236.195,-606.592"/>
</g>
<!-- 9931&#45;&gt;6507 -->
<g id="edge19" class="edge"><title>9931&#45;&gt;6507</title>
<path fill="none" stroke="green" stroke-width="0.203147" d="M207.629,-659.098C164.683,-657.796 77.3578,-648.467 32.695,-596.423 -8.18932,-548.783 -7.26189,-512.468 19.695,-455.772 47.2539,-397.809 73.5607,-391.812 131.695,-364.617 228.776,-319.204 357.144,-306.742 418.33,-303.327"/>
<polygon fill="green" stroke="green" stroke-width="0.203147" points="418.793,-306.808 428.603,-302.804 418.438,-299.817 418.793,-306.808"/>
</g>
<!-- 13515 -->
<g id="node45" class="node"><title>13515</title>
<ellipse fill="white" stroke="black" cx="788.695" cy="-118.731" rx="27.6545" ry="27.6545"/>
<text text-anchor="middle" x="788.695" y="-116.531" font-family="Times,serif" font-size="9.00">13515</text>
</g>
<!-- 13515&#45;&gt;11577 -->
<g id="edge56" class="edge"><title>13515&#45;&gt;11577</title>
<path fill="none" stroke="red" stroke-width="0.198251" d="M797.212,-92.4219C800.22,-83.4812 803.659,-73.2601 806.891,-63.6558"/>
<polygon fill="red" stroke="red" stroke-width="0.198251" points="810.285,-64.5441 810.157,-53.95 803.651,-62.3116 810.285,-64.5441"/>
</g>
<!-- 10705&#45;&gt;17317 -->
<g id="edge50" class="edge"><title>10705&#45;&gt;17317</title>
<path fill="none" stroke="red" stroke-width="0.699176" d="M539.331,-459.851C546.337,-449.082 554.84,-436.011 562.454,-424.308"/>
<polygon fill="red" stroke="red" stroke-width="0.699176" points="565.544,-425.976 568.064,-415.685 559.677,-422.158 565.544,-425.976"/>
</g>
<!-- 12629&#45;&gt;11243 -->
<g id="edge8" class="edge"><title>12629&#45;&gt;11243</title>
<path fill="none" stroke="red" stroke-width="1.51483" d="M78.0249,-465.37C95.4628,-451.489 120.295,-431.722 139.564,-416.383"/>
<polygon fill="red" stroke="red" stroke-width="1.51483" points="141.8,-419.077 147.444,-410.11 137.441,-413.6 141.8,-419.077"/>
</g>
<!-- 5851&#45;&gt;13515 -->
<g id="edge11" class="edge"><title>5851&#45;&gt;13515</title>
<path fill="none" stroke="red" stroke-width="0.161699" d="M788.695,-184.994C788.695,-176.282 788.695,-166.216 788.695,-156.636"/>
<polygon fill="red" stroke="red" stroke-width="0.161699" points="792.195,-156.52 788.695,-146.52 785.195,-156.52 792.195,-156.52"/>
</g>
<!-- 9704&#45;&gt;13327 -->
<g id="edge15" class="edge"><title>9704&#45;&gt;13327</title>
<path fill="none" stroke="red" stroke-width="0.220698" d="M855.956,-470.828C833.637,-458.78 798.109,-438.982 768.695,-419.772 766.589,-418.396 764.44,-416.944 762.293,-415.456"/>
<polygon fill="red" stroke="red" stroke-width="0.220698" points="764.287,-412.579 754.112,-409.627 760.225,-418.28 764.287,-412.579"/>
</g>
<!-- 9704&#45;&gt;12795 -->
<g id="edge41" class="edge"><title>9704&#45;&gt;12795</title>
<path fill="none" stroke="red" stroke-width="0.224541" d="M882.424,-458.925C884.249,-449.888 886.378,-439.342 888.39,-429.376"/>
<polygon fill="red" stroke="red" stroke-width="0.224541" points="891.878,-429.784 890.427,-419.289 885.017,-428.398 891.878,-429.784"/>
</g>
<!-- 10472 -->
<g id="node51" class="node"><title>10472</title>
<ellipse fill="white" stroke="black" cx="843.695" cy="-842.309" rx="27.6545" ry="27.6545"/>
<text text-anchor="middle" x="843.695" y="-840.109" font-family="Times,serif" font-size="9.00">10472</text>
</g>
<!-- 11243&#45;&gt;6507 -->
<g id="edge1" class="edge"><title>11243&#45;&gt;6507</title>
<path fill="none" stroke="green" stroke-width="0.550161" d="M194.742,-383.046C246.724,-366.785 363.252,-330.333 420.571,-312.402"/>
<polygon fill="green" stroke="green" stroke-width="0.550161" points="421.73,-315.707 430.229,-309.381 419.64,-309.026 421.73,-315.707"/>
</g>
</g>
</svg>
