<?xml version="1.0" encoding="UTF-8" standalone="no"?>
<!DOCTYPE svg PUBLIC "-//W3C//DTD SVG 1.1//EN"
 "http://www.w3.org/Graphics/SVG/1.1/DTD/svg11.dtd">
<!-- Generated by graphviz version 2.38.0 (20140413.2041)
 -->
<!-- Title: %3 Pages: 1 -->
<svg width="1771pt" height="907pt"
 viewBox="0.00 0.00 1770.60 906.82" xmlns="http://www.w3.org/2000/svg" xmlns:xlink="http://www.w3.org/1999/xlink">
<g id="graph0" class="graph" transform="scale(1 1) rotate(0) translate(4 902.815)">
<title>%3</title>
<polygon fill="white" stroke="none" points="-4,4 -4,-902.815 1766.6,-902.815 1766.6,4 -4,4"/>
<!-- &#45;1 -->
<g id="node1" class="node"><title>&#45;1</title>
<polygon fill="lightgray" stroke="black" points="465.749,-729.042 441.749,-729.042 441.749,-711.042 465.749,-711.042 465.749,-729.042"/>
<text text-anchor="middle" x="453.749" y="-717.842" font-family="Times,serif" font-size="9.00">&#45;1</text>
</g>
<!-- 14752 -->
<g id="node36" class="node"><title>14752</title>
<ellipse fill="white" stroke="black" cx="446.749" cy="-452.236" rx="27.6545" ry="27.6545"/>
<text text-anchor="middle" x="446.749" y="-450.036" font-family="Times,serif" font-size="9.00">14752</text>
</g>
<!-- &#45;1&#45;&gt;14752 -->
<g id="edge59" class="edge"><title>&#45;1&#45;&gt;14752</title>
<path fill="none" stroke="red" stroke-width="0.333985" d="M453.532,-710.796C452.661,-677.744 449.392,-553.613 447.731,-490.532"/>
<polygon fill="red" stroke="red" stroke-width="0.333985" points="451.222,-490.131 447.46,-480.226 444.224,-490.315 451.222,-490.131"/>
</g>
<!-- 9931 -->
<g id="node44" class="node"><title>9931</title>
<ellipse fill="white" stroke="black" cx="502.749" cy="-628.888" rx="25" ry="25"/>
<text text-anchor="middle" x="502.749" y="-626.688" font-family="Times,serif" font-size="9.00">9931</text>
</g>
<!-- &#45;1&#45;&gt;9931 -->
<g id="edge10" class="edge"><title>&#45;1&#45;&gt;9931</title>
<path fill="none" stroke="green" stroke-width="0.313516" d="M458.271,-710.815C464.565,-699.362 476.304,-678.003 486.142,-660.104"/>
<polygon fill="green" stroke="green" stroke-width="0.313516" points="489.325,-661.579 491.074,-651.129 483.19,-658.207 489.325,-661.579"/>
</g>
<!-- 10472 -->
<g id="node51" class="node"><title>10472</title>
<ellipse fill="white" stroke="black" cx="872.749" cy="-628.888" rx="27.6545" ry="27.6545"/>
<text text-anchor="middle" x="872.749" y="-626.688" font-family="Times,serif" font-size="9.00">10472</text>
</g>
<!-- &#45;1&#45;&gt;10472 -->
<g id="edge48" class="edge"><title>&#45;1&#45;&gt;10472</title>
<path fill="none" stroke="red" stroke-width="1.11217" stroke-dasharray="1,5" d="M465.789,-712.888C478.06,-706.855 497.789,-697.81 515.749,-692.465 629.437,-658.632 769.266,-640.695 835.095,-633.588"/>
<polygon fill="red" stroke="red" stroke-width="1.11217" points="835.807,-637.033 845.384,-632.501 835.072,-630.072 835.807,-637.033"/>
</g>
<!-- 6507 -->
<g id="node52" class="node"><title>6507</title>
<ellipse fill="white" stroke="black" cx="483.749" cy="-269.927" rx="25" ry="25"/>
<text text-anchor="middle" x="483.749" y="-267.727" font-family="Times,serif" font-size="9.00">6507</text>
</g>
<!-- &#45;1&#45;&gt;6507 -->
<g id="edge31" class="edge"><title>&#45;1&#45;&gt;6507</title>
<path fill="none" stroke="green" stroke-width="0.263248" d="M441.545,-714.458C400.165,-698.04 267.749,-637.971 267.749,-541.562 267.749,-541.562 267.749,-541.562 267.749,-451.236 267.749,-398.234 252.135,-373.644 286.749,-333.505 327.537,-286.205 403.922,-274.296 448.648,-271.519"/>
<polygon fill="green" stroke="green" stroke-width="0.263248" points="448.947,-275.008 458.76,-271.013 448.597,-268.017 448.947,-275.008"/>
</g>
<!-- &#45;2 -->
<g id="node2" class="node"><title>&#45;2</title>
<polygon fill="lightgray" stroke="black" points="1300.75,-892.966 1276.75,-892.966 1276.75,-874.966 1300.75,-874.966 1300.75,-892.966"/>
<text text-anchor="middle" x="1288.75" y="-881.766" font-family="Times,serif" font-size="9.00">&#45;2</text>
</g>
<!-- &#45;3 -->
<g id="node3" class="node"><title>&#45;3</title>
<polygon fill="lightgray" stroke="black" points="36.7487,-729.042 12.7487,-729.042 12.7487,-711.042 36.7487,-711.042 36.7487,-729.042"/>
<text text-anchor="middle" x="24.7487" y="-717.842" font-family="Times,serif" font-size="9.00">&#45;3</text>
</g>
<!-- 2197 -->
<g id="node33" class="node"><title>2197</title>
<ellipse fill="white" stroke="black" cx="24.7487" cy="-628.888" rx="25" ry="25"/>
<text text-anchor="middle" x="24.7487" y="-626.688" font-family="Times,serif" font-size="9.00">2197</text>
</g>
<!-- &#45;3&#45;&gt;2197 -->
<g id="edge42" class="edge"><title>&#45;3&#45;&gt;2197</title>
<path fill="none" stroke="green" stroke-width="0.676104" d="M24.7487,-710.815C24.7487,-700.177 24.7487,-680.993 24.7487,-663.972"/>
<polygon fill="green" stroke="green" stroke-width="0.676104" points="28.2488,-663.75 24.7487,-653.75 21.2488,-663.75 28.2488,-663.75"/>
</g>
<!-- &#45;4 -->
<g id="node4" class="node"><title>&#45;4</title>
<polygon fill="lightgray" stroke="black" points="1342.75,-892.966 1318.75,-892.966 1318.75,-874.966 1342.75,-874.966 1342.75,-892.966"/>
<text text-anchor="middle" x="1330.75" y="-881.766" font-family="Times,serif" font-size="9.00">&#45;4</text>
</g>
<!-- &#45;5 -->
<g id="node5" class="node"><title>&#45;5</title>
<polygon fill="lightgray" stroke="black" points="383.749,-637.888 359.749,-637.888 359.749,-619.888 383.749,-619.888 383.749,-637.888"/>
<text text-anchor="middle" x="371.749" y="-626.688" font-family="Times,serif" font-size="9.00">&#45;5</text>
</g>
<!-- 2 -->
<g id="node27" class="node"><title>2</title>
<ellipse fill="lightblue" stroke="black" cx="370.749" cy="-452.236" rx="14.7" ry="14.7"/>
<text text-anchor="middle" x="370.749" y="-450.036" font-family="Times,serif" font-size="9.00">2</text>
</g>
<!-- &#45;5&#45;&gt;2 -->
<g id="edge38" class="edge"><title>&#45;5&#45;&gt;2</title>
<path fill="none" stroke="red" stroke-width="0.890617" d="M371.701,-619.464C371.555,-593.99 371.114,-517.091 370.887,-477.448"/>
<polygon fill="red" stroke="red" stroke-width="0.890617" points="374.387,-477.307 370.829,-467.328 367.387,-477.348 374.387,-477.307"/>
</g>
<!-- 5851 -->
<g id="node49" class="node"><title>5851</title>
<ellipse fill="white" stroke="black" cx="984.749" cy="-540.562" rx="25" ry="25"/>
<text text-anchor="middle" x="984.749" y="-538.362" font-family="Times,serif" font-size="9.00">5851</text>
</g>
<!-- &#45;5&#45;&gt;5851 -->
<g id="edge66" class="edge"><title>&#45;5&#45;&gt;5851</title>
<path fill="none" stroke="green" stroke-width="1.09844" d="M377.116,-619.871C381.774,-613.643 389.114,-605.399 397.749,-601.311 480.013,-562.362 715.279,-575.299 805.749,-565.311 856.088,-559.753 914.178,-551.752 950.189,-546.605"/>
<polygon fill="green" stroke="green" stroke-width="1.09844" points="950.779,-550.056 960.179,-545.169 949.783,-543.128 950.779,-550.056"/>
</g>
<!-- &#45;6 -->
<g id="node6" class="node"><title>&#45;6</title>
<polygon fill="lightgray" stroke="black" points="1068.75,-278.927 1044.75,-278.927 1044.75,-260.927 1068.75,-260.927 1068.75,-278.927"/>
<text text-anchor="middle" x="1056.75" y="-267.727" font-family="Times,serif" font-size="9.00">&#45;6</text>
</g>
<!-- 10861 -->
<g id="node54" class="node"><title>10861</title>
<ellipse fill="white" stroke="black" cx="1161.75" cy="-178.773" rx="27.6545" ry="27.6545"/>
<text text-anchor="middle" x="1161.75" y="-176.573" font-family="Times,serif" font-size="9.00">10861</text>
</g>
<!-- &#45;6&#45;&gt;10861 -->
<g id="edge63" class="edge"><title>&#45;6&#45;&gt;10861</title>
<path fill="none" stroke="green" stroke-width="0.781709" d="M1062.49,-260.557C1066.45,-255.077 1072.01,-247.925 1077.75,-242.35 1093.85,-226.7 1113.96,-211.589 1130.47,-200.138"/>
<polygon fill="green" stroke="green" stroke-width="0.781709" points="1132.44,-203.027 1138.73,-194.499 1128.5,-197.245 1132.44,-203.027"/>
</g>
<!-- &#45;7 -->
<g id="node7" class="node"><title>&#45;7</title>
<polygon fill="lightgray" stroke="black" points="1119.75,-637.888 1095.75,-637.888 1095.75,-619.888 1119.75,-619.888 1119.75,-637.888"/>
<text text-anchor="middle" x="1107.75" y="-626.688" font-family="Times,serif" font-size="9.00">&#45;7</text>
</g>
<!-- 2831 -->
<g id="node32" class="node"><title>2831</title>
<ellipse fill="white" stroke="black" cx="1016.75" cy="-90.4472" rx="25" ry="25"/>
<text text-anchor="middle" x="1016.75" y="-88.2472" font-family="Times,serif" font-size="9.00">2831</text>
</g>
<!-- &#45;7&#45;&gt;2831 -->
<g id="edge15" class="edge"><title>&#45;7&#45;&gt;2831</title>
<path fill="none" stroke="green" stroke-width="0.920112" stroke-dasharray="1,5" d="M1120.13,-625.562C1152.58,-619.152 1242.24,-599.413 1309.75,-565.311 1366.91,-536.432 1396.87,-536.978 1425.75,-479.813 1436.8,-457.934 1430.89,-448.627 1425.75,-424.659 1396.12,-286.537 1379.45,-232.248 1263.75,-151.196 1198.64,-105.585 1102.82,-94.5807 1051.78,-92.0632"/>
<polygon fill="green" stroke="green" stroke-width="0.920112" points="1051.73,-88.5583 1041.59,-91.6454 1051.44,-95.5524 1051.73,-88.5583"/>
</g>
<!-- 4505 -->
<g id="node34" class="node"><title>4505</title>
<ellipse fill="white" stroke="black" cx="723.749" cy="-178.773" rx="25" ry="25"/>
<text text-anchor="middle" x="723.749" y="-176.573" font-family="Times,serif" font-size="9.00">4505</text>
</g>
<!-- &#45;7&#45;&gt;4505 -->
<g id="edge29" class="edge"><title>&#45;7&#45;&gt;4505</title>
<path fill="none" stroke="red" stroke-width="1.02851" d="M1107.21,-619.565C1104.4,-581.966 1088.28,-425.8 1010.75,-333.505 941.669,-251.268 817.029,-206.418 757.359,-188.759"/>
<polygon fill="red" stroke="red" stroke-width="1.02851" points="758.258,-185.376 747.679,-185.965 756.317,-192.101 758.258,-185.376"/>
</g>
<!-- &#45;7&#45;&gt;5851 -->
<g id="edge34" class="edge"><title>&#45;7&#45;&gt;5851</title>
<path fill="none" stroke="green" stroke-width="0.102072" d="M1095.95,-619.611C1077.05,-606.341 1039.42,-579.931 1013.19,-561.526"/>
<polygon fill="green" stroke="green" stroke-width="0.102072" points="1014.98,-558.502 1004.78,-555.622 1010.96,-564.232 1014.98,-558.502"/>
</g>
<!-- &#45;8 -->
<g id="node8" class="node"><title>&#45;8</title>
<polygon fill="lightgray" stroke="black" points="184.749,-729.042 160.749,-729.042 160.749,-711.042 184.749,-711.042 184.749,-729.042"/>
<text text-anchor="middle" x="172.749" y="-717.842" font-family="Times,serif" font-size="9.00">&#45;8</text>
</g>
<!-- 1 -->
<g id="node26" class="node"><title>1</title>
<ellipse fill="lightblue" stroke="black" cx="77.7487" cy="-14.8492" rx="14.7" ry="14.7"/>
<text text-anchor="middle" x="77.7487" y="-12.6492" font-family="Times,serif" font-size="9.00">1</text>
</g>
<!-- &#45;8&#45;&gt;1 -->
<g id="edge16" class="edge"><title>&#45;8&#45;&gt;1</title>
<path fill="none" stroke="red" stroke-width="0.653247" stroke-dasharray="1,5" d="M164.649,-711.019C141.675,-687.366 77.7487,-614.955 77.7487,-541.562 77.7487,-541.562 77.7487,-541.562 77.7487,-177.773 77.7487,-128.737 77.7487,-71.3472 77.7487,-39.7545"/>
<polygon fill="red" stroke="red" stroke-width="0.653247" points="81.2488,-39.7116 77.7487,-29.7116 74.2488,-39.7117 81.2488,-39.7116"/>
</g>
<!-- 13963 -->
<g id="node29" class="node"><title>13963</title>
<ellipse fill="white" stroke="black" cx="992.749" cy="-628.888" rx="27.6545" ry="27.6545"/>
<text text-anchor="middle" x="992.749" y="-626.688" font-family="Times,serif" font-size="9.00">13963</text>
</g>
<!-- &#45;8&#45;&gt;13963 -->
<g id="edge39" class="edge"><title>&#45;8&#45;&gt;13963</title>
<path fill="none" stroke="red" stroke-width="0.315035" d="M184.919,-717.653C222.041,-713.448 337.131,-700.641 432.749,-692.465 548.822,-682.54 846.148,-695.953 955.749,-656.465 958.469,-655.485 961.167,-654.243 963.794,-652.833"/>
<polygon fill="red" stroke="red" stroke-width="0.315035" points="965.707,-655.765 972.378,-647.534 962.03,-649.809 965.707,-655.765"/>
</g>
<!-- &#45;8&#45;&gt;2197 -->
<g id="edge17" class="edge"><title>&#45;8&#45;&gt;2197</title>
<path fill="none" stroke="green" stroke-width="0.325285" d="M160.471,-712.398C140.098,-701.283 98.1426,-678.012 63.7487,-656.465 60.3313,-654.324 56.7863,-652.024 53.2891,-649.705"/>
<polygon fill="green" stroke="green" stroke-width="0.325285" points="55.0435,-646.667 44.7945,-643.982 51.1322,-652.472 55.0435,-646.667"/>
</g>
<!-- &#45;8&#45;&gt;4505 -->
<g id="edge50" class="edge"><title>&#45;8&#45;&gt;4505</title>
<path fill="none" stroke="green" stroke-width="0.51173" stroke-dasharray="1,5" d="M168.084,-710.848C154.471,-686.137 115.749,-609.847 115.749,-541.562 115.749,-541.562 115.749,-541.562 115.749,-360.082 115.749,-239.607 560.081,-193.342 689.049,-182.451"/>
<polygon fill="green" stroke="green" stroke-width="0.51173" points="689.484,-185.928 699.161,-181.616 688.907,-178.951 689.484,-185.928"/>
</g>
<!-- &#45;8&#45;&gt;5851 -->
<g id="edge46" class="edge"><title>&#45;8&#45;&gt;5851</title>
<path fill="none" stroke="red" stroke-width="0.302312" d="M185.217,-717.076C219.658,-711.316 318.464,-692.573 392.749,-656.465 430.284,-638.22 429.794,-616.29 468.749,-601.311 609.343,-547.248 656.187,-583.218 805.749,-565.311 856.034,-559.29 914.138,-551.41 950.167,-546.416"/>
<polygon fill="red" stroke="red" stroke-width="0.302312" points="950.74,-549.87 960.163,-545.026 949.776,-542.937 950.74,-549.87"/>
</g>
<!-- &#45;8&#45;&gt;6507 -->
<g id="edge20" class="edge"><title>&#45;8&#45;&gt;6507</title>
<path fill="none" stroke="green" stroke-width="0.357999" d="M177.413,-710.848C191.027,-686.137 229.749,-609.847 229.749,-541.562 229.749,-541.562 229.749,-541.562 229.749,-451.236 229.749,-397.127 222.798,-372.072 260.749,-333.505 311.066,-282.37 399.558,-272.115 448.577,-270.596"/>
<polygon fill="green" stroke="green" stroke-width="0.357999" points="448.773,-274.093 458.699,-270.39 448.63,-267.095 448.773,-274.093"/>
</g>
<!-- &#45;9 -->
<g id="node9" class="node"><title>&#45;9</title>
<polygon fill="lightgray" stroke="black" points="1384.75,-892.966 1360.75,-892.966 1360.75,-874.966 1384.75,-874.966 1384.75,-892.966"/>
<text text-anchor="middle" x="1372.75" y="-881.766" font-family="Times,serif" font-size="9.00">&#45;9</text>
</g>
<!-- &#45;10 -->
<g id="node10" class="node"><title>&#45;10</title>
<polygon fill="lightgray" stroke="black" points="1116.25,-278.927 1087.25,-278.927 1087.25,-260.927 1116.25,-260.927 1116.25,-278.927"/>
<text text-anchor="middle" x="1101.75" y="-267.727" font-family="Times,serif" font-size="9.00">&#45;10</text>
</g>
<!-- &#45;10&#45;&gt;10861 -->
<g id="edge3" class="edge"><title>&#45;10&#45;&gt;10861</title>
<path fill="none" stroke="green" stroke-width="0.524835" d="M1107.29,-260.7C1114.91,-249.364 1129.07,-228.324 1141.04,-210.539"/>
<polygon fill="green" stroke="green" stroke-width="0.524835" points="1144.03,-212.377 1146.7,-202.127 1138.22,-208.469 1144.03,-212.377"/>
</g>
<!-- &#45;11 -->
<g id="node11" class="node"><title>&#45;11</title>
<polygon fill="lightgray" stroke="black" points="1432.25,-892.966 1403.25,-892.966 1403.25,-874.966 1432.25,-874.966 1432.25,-892.966"/>
<text text-anchor="middle" x="1417.75" y="-881.766" font-family="Times,serif" font-size="9.00">&#45;11</text>
</g>
<!-- &#45;12 -->
<g id="node12" class="node"><title>&#45;12</title>
<polygon fill="lightgray" stroke="black" points="539.249,-817.368 510.249,-817.368 510.249,-799.368 539.249,-799.368 539.249,-817.368"/>
<text text-anchor="middle" x="524.749" y="-806.168" font-family="Times,serif" font-size="9.00">&#45;12</text>
</g>
<!-- 18613 -->
<g id="node41" class="node"><title>18613</title>
<ellipse fill="white" stroke="black" cx="552.749" cy="-720.042" rx="27.6545" ry="27.6545"/>
<text text-anchor="middle" x="552.749" y="-717.842" font-family="Times,serif" font-size="9.00">18613</text>
</g>
<!-- &#45;12&#45;&gt;18613 -->
<g id="edge64" class="edge"><title>&#45;12&#45;&gt;18613</title>
<path fill="none" stroke="red" stroke-width="0.983259" d="M527.433,-799.091C530.653,-789.166 536.256,-771.89 541.374,-756.112"/>
<polygon fill="red" stroke="red" stroke-width="0.983259" points="544.716,-757.152 544.472,-746.56 538.057,-754.992 544.716,-757.152"/>
</g>
<!-- &#45;12&#45;&gt;9931 -->
<g id="edge8" class="edge"><title>&#45;12&#45;&gt;9931</title>
<path fill="none" stroke="green" stroke-width="0.107999" d="M523.424,-799.265C521.572,-787.788 518.165,-766.135 515.749,-747.619 512.08,-719.504 508.592,-687.521 506.155,-663.994"/>
<polygon fill="green" stroke="green" stroke-width="0.107999" points="509.614,-663.413 505.112,-653.823 502.65,-664.128 509.614,-663.413"/>
</g>
<!-- &#45;13 -->
<g id="node13" class="node"><title>&#45;13</title>
<polygon fill="lightgray" stroke="black" points="930.249,-461.236 901.249,-461.236 901.249,-443.236 930.249,-443.236 930.249,-461.236"/>
<text text-anchor="middle" x="915.749" y="-450.036" font-family="Times,serif" font-size="9.00">&#45;13</text>
</g>
<!-- 11577 -->
<g id="node42" class="node"><title>11577</title>
<ellipse fill="white" stroke="black" cx="973.749" cy="-361.082" rx="27.6545" ry="27.6545"/>
<text text-anchor="middle" x="973.749" y="-358.882" font-family="Times,serif" font-size="9.00">11577</text>
</g>
<!-- &#45;13&#45;&gt;11577 -->
<g id="edge54" class="edge"><title>&#45;13&#45;&gt;11577</title>
<path fill="none" stroke="green" stroke-width="1.15518" d="M921.101,-443.008C928.428,-431.747 941.985,-410.908 953.506,-393.197"/>
<polygon fill="green" stroke="green" stroke-width="1.15518" points="956.443,-395.101 958.963,-384.81 950.576,-391.284 956.443,-395.101"/>
</g>
<!-- &#45;14 -->
<g id="node14" class="node"><title>&#45;14</title>
<polygon fill="lightgray" stroke="black" points="1301.25,-549.562 1272.25,-549.562 1272.25,-531.562 1301.25,-531.562 1301.25,-549.562"/>
<text text-anchor="middle" x="1286.75" y="-538.362" font-family="Times,serif" font-size="9.00">&#45;14</text>
</g>
<!-- &#45;14&#45;&gt;2831 -->
<g id="edge71" class="edge"><title>&#45;14&#45;&gt;2831</title>
<path fill="none" stroke="red" stroke-width="0.741846" stroke-dasharray="1,5" d="M1288.57,-531.546C1298.29,-486.551 1339.61,-263.405 1230.75,-151.196 1183.18,-102.164 1099.01,-92.3777 1051.64,-91.003"/>
<polygon fill="red" stroke="red" stroke-width="0.741846" points="1051.62,-87.5021 1041.56,-90.822 1051.49,-94.501 1051.62,-87.5021"/>
</g>
<!-- 12988 -->
<g id="node43" class="node"><title>12988</title>
<ellipse fill="white" stroke="black" cx="1164.75" cy="-452.236" rx="27.6545" ry="27.6545"/>
<text text-anchor="middle" x="1164.75" y="-450.036" font-family="Times,serif" font-size="9.00">12988</text>
</g>
<!-- &#45;14&#45;&gt;12988 -->
<g id="edge53" class="edge"><title>&#45;14&#45;&gt;12988</title>
<path fill="none" stroke="green" stroke-width="0.120853" d="M1274.99,-531.55C1258.36,-520.182 1227.06,-498.657 1200.75,-479.813 1198.7,-478.349 1196.6,-476.83 1194.49,-475.293"/>
<polygon fill="green" stroke="green" stroke-width="0.120853" points="1196.51,-472.44 1186.38,-469.359 1192.38,-478.089 1196.51,-472.44"/>
</g>
<!-- &#45;14&#45;&gt;10861 -->
<g id="edge1" class="edge"><title>&#45;14&#45;&gt;10861</title>
<path fill="none" stroke="red" stroke-width="0.381262" stroke-dasharray="1,5" d="M1286.47,-531.395C1284.91,-495.076 1275.06,-345.49 1216.75,-242.35 1209.25,-229.077 1198.6,-216.125 1188.66,-205.48"/>
<polygon fill="red" stroke="red" stroke-width="0.381262" points="1191.07,-202.936 1181.61,-198.164 1186.03,-207.793 1191.07,-202.936"/>
</g>
<!-- 13815 -->
<g id="node55" class="node"><title>13815</title>
<ellipse fill="white" stroke="black" cx="1237.75" cy="-452.236" rx="27.6545" ry="27.6545"/>
<text text-anchor="middle" x="1237.75" y="-450.036" font-family="Times,serif" font-size="9.00">13815</text>
</g>
<!-- &#45;14&#45;&gt;13815 -->
<g id="edge60" class="edge"><title>&#45;14&#45;&gt;13815</title>
<path fill="none" stroke="green" stroke-width="0.777799" stroke-dasharray="1,5" d="M1282.05,-531.285C1276.07,-520.745 1265.38,-501.917 1256,-485.394"/>
<polygon fill="green" stroke="green" stroke-width="0.777799" points="1258.94,-483.488 1250.96,-476.519 1252.86,-486.943 1258.94,-483.488"/>
</g>
<!-- 12795 -->
<g id="node56" class="node"><title>12795</title>
<ellipse fill="white" stroke="black" cx="1388.75" cy="-452.236" rx="27.6545" ry="27.6545"/>
<text text-anchor="middle" x="1388.75" y="-450.036" font-family="Times,serif" font-size="9.00">12795</text>
</g>
<!-- &#45;14&#45;&gt;12795 -->
<g id="edge52" class="edge"><title>&#45;14&#45;&gt;12795</title>
<path fill="none" stroke="red" stroke-width="0.203641" d="M1296.53,-531.285C1311.03,-519.011 1338.82,-495.496 1360.11,-477.472"/>
<polygon fill="red" stroke="red" stroke-width="0.203641" points="1362.54,-480 1367.92,-470.868 1358.02,-474.657 1362.54,-480"/>
</g>
<!-- &#45;15 -->
<g id="node15" class="node"><title>&#45;15</title>
<polygon fill="lightgray" stroke="black" points="1479.25,-892.966 1450.25,-892.966 1450.25,-874.966 1479.25,-874.966 1479.25,-892.966"/>
<text text-anchor="middle" x="1464.75" y="-881.766" font-family="Times,serif" font-size="9.00">&#45;15</text>
</g>
<!-- &#45;16 -->
<g id="node16" class="node"><title>&#45;16</title>
<polygon fill="lightgray" stroke="black" points="947.249,-637.888 918.249,-637.888 918.249,-619.888 947.249,-619.888 947.249,-637.888"/>
<text text-anchor="middle" x="932.749" y="-626.688" font-family="Times,serif" font-size="9.00">&#45;16</text>
</g>
<!-- &#45;16&#45;&gt;5851 -->
<g id="edge72" class="edge"><title>&#45;16&#45;&gt;5851</title>
<path fill="none" stroke="green" stroke-width="0.353476" stroke-dasharray="1,5" d="M937.735,-619.611C944.445,-608.47 956.734,-588.07 967.065,-570.919"/>
<polygon fill="green" stroke="green" stroke-width="0.353476" points="970.087,-572.685 972.249,-562.313 964.091,-569.073 970.087,-572.685"/>
</g>
<!-- &#45;17 -->
<g id="node17" class="node"><title>&#45;17</title>
<polygon fill="lightgray" stroke="black" points="325.249,-370.082 296.249,-370.082 296.249,-352.082 325.249,-352.082 325.249,-370.082"/>
<text text-anchor="middle" x="310.749" y="-358.882" font-family="Times,serif" font-size="9.00">&#45;17</text>
</g>
<!-- &#45;17&#45;&gt;6507 -->
<g id="edge23" class="edge"><title>&#45;17&#45;&gt;6507</title>
<path fill="none" stroke="green" stroke-width="0.34227" d="M316.373,-351.741C320.598,-345.991 326.827,-338.512 333.749,-333.505 369.745,-307.461 418.208,-289.781 450.184,-280.029"/>
<polygon fill="green" stroke="green" stroke-width="0.34227" points="451.353,-283.333 459.95,-277.14 449.368,-276.62 451.353,-283.333"/>
</g>
<!-- &#45;18 -->
<g id="node18" class="node"><title>&#45;18</title>
<polygon fill="lightgray" stroke="black" points="1526.25,-892.966 1497.25,-892.966 1497.25,-874.966 1526.25,-874.966 1526.25,-892.966"/>
<text text-anchor="middle" x="1511.75" y="-881.766" font-family="Times,serif" font-size="9.00">&#45;18</text>
</g>
<!-- &#45;19 -->
<g id="node19" class="node"><title>&#45;19</title>
<polygon fill="lightgray" stroke="black" points="1006.25,-729.042 977.249,-729.042 977.249,-711.042 1006.25,-711.042 1006.25,-729.042"/>
<text text-anchor="middle" x="991.749" y="-717.842" font-family="Times,serif" font-size="9.00">&#45;19</text>
</g>
<!-- &#45;19&#45;&gt;13963 -->
<g id="edge22" class="edge"><title>&#45;19&#45;&gt;13963</title>
<path fill="none" stroke="red" stroke-width="0.471166" d="M991.841,-710.815C991.953,-700.843 992.149,-683.362 992.33,-667.193"/>
<polygon fill="red" stroke="red" stroke-width="0.471166" points="995.834,-666.887 992.446,-656.849 988.834,-666.809 995.834,-666.887"/>
</g>
<!-- &#45;20 -->
<g id="node20" class="node"><title>&#45;20</title>
<polygon fill="lightgray" stroke="black" points="1258.25,-892.966 1229.25,-892.966 1229.25,-874.966 1258.25,-874.966 1258.25,-892.966"/>
<text text-anchor="middle" x="1243.75" y="-881.766" font-family="Times,serif" font-size="9.00">&#45;20</text>
</g>
<!-- 16336 -->
<g id="node46" class="node"><title>16336</title>
<ellipse fill="white" stroke="black" cx="1161.75" cy="-269.927" rx="27.6545" ry="27.6545"/>
<text text-anchor="middle" x="1161.75" y="-267.727" font-family="Times,serif" font-size="9.00">16336</text>
</g>
<!-- &#45;20&#45;&gt;16336 -->
<g id="edge61" class="edge"><title>&#45;20&#45;&gt;16336</title>
<path fill="none" stroke="green" stroke-width="0.428714" d="M1256.94,-874.868C1307.04,-844.006 1482.75,-734.794 1482.75,-721.042 1482.75,-721.042 1482.75,-721.042 1482.75,-539.562 1482.75,-392.219 1281.39,-309.76 1197.63,-281.833"/>
<polygon fill="green" stroke="green" stroke-width="0.428714" points="1198.61,-278.472 1188.02,-278.697 1196.44,-285.127 1198.61,-278.472"/>
</g>
<!-- 9704 -->
<g id="node50" class="node"><title>9704</title>
<ellipse fill="white" stroke="black" cx="1121.75" cy="-808.368" rx="25" ry="25"/>
<text text-anchor="middle" x="1121.75" y="-806.168" font-family="Times,serif" font-size="9.00">9704</text>
</g>
<!-- &#45;20&#45;&gt;9704 -->
<g id="edge79" class="edge"><title>&#45;20&#45;&gt;9704</title>
<path fill="none" stroke="red" stroke-width="0.227948" d="M1230.23,-874.809C1211.33,-863.409 1176.52,-842.412 1151.43,-827.272"/>
<polygon fill="red" stroke="red" stroke-width="0.227948" points="1153.04,-824.156 1142.67,-821.987 1149.42,-830.15 1153.04,-824.156"/>
</g>
<!-- &#45;20&#45;&gt;13815 -->
<g id="edge65" class="edge"><title>&#45;20&#45;&gt;13815</title>
<path fill="none" stroke="red" stroke-width="0.296816" d="M1243.75,-874.879C1243.75,-851.218 1243.75,-780.077 1243.75,-721.042 1243.75,-721.042 1243.75,-721.042 1243.75,-627.888 1243.75,-580.321 1241.5,-525.511 1239.75,-490.17"/>
<polygon fill="red" stroke="red" stroke-width="0.296816" points="1243.23,-489.667 1239.23,-479.856 1236.24,-490.021 1243.23,-489.667"/>
</g>
<!-- &#45;21 -->
<g id="node21" class="node"><title>&#45;21</title>
<polygon fill="lightgray" stroke="black" points="1573.25,-892.966 1544.25,-892.966 1544.25,-874.966 1573.25,-874.966 1573.25,-892.966"/>
<text text-anchor="middle" x="1558.75" y="-881.766" font-family="Times,serif" font-size="9.00">&#45;21</text>
</g>
<!-- &#45;22 -->
<g id="node22" class="node"><title>&#45;22</title>
<polygon fill="lightgray" stroke="black" points="1620.25,-892.966 1591.25,-892.966 1591.25,-874.966 1620.25,-874.966 1620.25,-892.966"/>
<text text-anchor="middle" x="1605.75" y="-881.766" font-family="Times,serif" font-size="9.00">&#45;22</text>
</g>
<!-- &#45;23 -->
<g id="node23" class="node"><title>&#45;23</title>
<polygon fill="lightgray" stroke="black" points="1667.25,-892.966 1638.25,-892.966 1638.25,-874.966 1667.25,-874.966 1667.25,-892.966"/>
<text text-anchor="middle" x="1652.75" y="-881.766" font-family="Times,serif" font-size="9.00">&#45;23</text>
</g>
<!-- &#45;24 -->
<g id="node24" class="node"><title>&#45;24</title>
<polygon fill="lightgray" stroke="black" points="797.249,-549.562 768.249,-549.562 768.249,-531.562 797.249,-531.562 797.249,-549.562"/>
<text text-anchor="middle" x="782.749" y="-538.362" font-family="Times,serif" font-size="9.00">&#45;24</text>
</g>
<!-- 12629 -->
<g id="node48" class="node"><title>12629</title>
<ellipse fill="white" stroke="black" cx="782.749" cy="-452.236" rx="27.6545" ry="27.6545"/>
<text text-anchor="middle" x="782.749" y="-450.036" font-family="Times,serif" font-size="9.00">12629</text>
</g>
<!-- &#45;24&#45;&gt;12629 -->
<g id="edge68" class="edge"><title>&#45;24&#45;&gt;12629</title>
<path fill="none" stroke="red" stroke-width="0.849005" d="M782.749,-531.285C782.749,-521.753 782.749,-505.441 782.749,-490.186"/>
<polygon fill="red" stroke="red" stroke-width="0.849005" points="786.249,-489.891 782.749,-479.891 779.249,-489.891 786.249,-489.891"/>
</g>
<!-- 0 -->
<g id="node25" class="node"><title>0</title>
<ellipse fill="lightblue" stroke="black" cx="1699.75" cy="-883.966" rx="14.7" ry="14.7"/>
<text text-anchor="middle" x="1699.75" y="-881.766" font-family="Times,serif" font-size="9.00">0</text>
</g>
<!-- 16908 -->
<g id="node30" class="node"><title>16908</title>
<ellipse fill="white" stroke="black" cx="370.749" cy="-361.082" rx="27.6545" ry="27.6545"/>
<text text-anchor="middle" x="370.749" y="-358.882" font-family="Times,serif" font-size="9.00">16908</text>
</g>
<!-- 2&#45;&gt;16908 -->
<g id="edge30" class="edge"><title>2&#45;&gt;16908</title>
<path fill="none" stroke="red" stroke-width="0.399244" d="M370.749,-437.306C370.749,-427.003 370.749,-412.467 370.749,-398.915"/>
<polygon fill="red" stroke="red" stroke-width="0.399244" points="374.249,-398.831 370.749,-388.831 367.249,-398.831 374.249,-398.831"/>
</g>
<!-- 2&#45;&gt;2831 -->
<g id="edge76" class="edge"><title>2&#45;&gt;2831</title>
<path fill="none" stroke="green" stroke-width="0.406838" stroke-dasharray="1,5" d="M356.738,-446.933C334.609,-439.289 292.283,-421.019 274.749,-388.659 242.846,-329.781 260.199,-286.272 310.749,-242.35 414.048,-152.597 854.785,-106.166 982.151,-94.4535"/>
<polygon fill="green" stroke="green" stroke-width="0.406838" points="982.493,-97.937 992.136,-93.5479 981.86,-90.9657 982.493,-97.937"/>
</g>
<!-- 2&#45;&gt;6507 -->
<g id="edge7" class="edge"><title>2&#45;&gt;6507</title>
<path fill="none" stroke="green" stroke-width="0.406177" d="M378.338,-439.126C396.05,-410.863 440.514,-339.915 465.67,-299.776"/>
<polygon fill="green" stroke="green" stroke-width="0.406177" points="468.681,-301.561 471.026,-291.229 462.75,-297.843 468.681,-301.561"/>
</g>
<!-- 2&#45;&gt;10861 -->
<g id="edge69" class="edge"><title>2&#45;&gt;10861</title>
<path fill="none" stroke="red" stroke-width="0.474359" d="M357.146,-445.845C337.393,-437.177 301.516,-418.075 286.749,-388.659 275.751,-366.752 274.347,-354.649 286.749,-333.505 328.742,-261.908 370.423,-266.783 449.749,-242.35 514.473,-222.415 986.6,-190.972 1124.21,-182.146"/>
<polygon fill="red" stroke="red" stroke-width="0.474359" points="1124.51,-185.634 1134.27,-181.503 1124.07,-178.648 1124.51,-185.634"/>
</g>
<!-- 3 -->
<g id="node28" class="node"><title>3</title>
<ellipse fill="lightblue" stroke="black" cx="1747.75" cy="-883.966" rx="14.7" ry="14.7"/>
<text text-anchor="middle" x="1747.75" y="-881.766" font-family="Times,serif" font-size="9.00">3</text>
</g>
<!-- 13963&#45;&gt;5851 -->
<g id="edge74" class="edge"><title>13963&#45;&gt;5851</title>
<path fill="none" stroke="green" stroke-width="0.441952" d="M990.261,-601.047C989.511,-592.954 988.678,-583.963 987.891,-575.473"/>
<polygon fill="green" stroke="green" stroke-width="0.441952" points="991.371,-575.094 986.963,-565.46 984.401,-575.74 991.371,-575.094"/>
</g>
<!-- 16908&#45;&gt;6507 -->
<g id="edge35" class="edge"><title>16908&#45;&gt;6507</title>
<path fill="none" stroke="green" stroke-width="0.135508" d="M392.003,-343.313C410.24,-328.924 436.633,-308.1 456.434,-292.478"/>
<polygon fill="green" stroke="green" stroke-width="0.135508" points="458.791,-295.077 464.474,-286.135 454.455,-289.581 458.791,-295.077"/>
</g>
<!-- 13327 -->
<g id="node31" class="node"><title>13327</title>
<ellipse fill="white" stroke="black" cx="1051.75" cy="-720.042" rx="27.6545" ry="27.6545"/>
<text text-anchor="middle" x="1051.75" y="-717.842" font-family="Times,serif" font-size="9.00">13327</text>
</g>
<!-- 13327&#45;&gt;13963 -->
<g id="edge32" class="edge"><title>13327&#45;&gt;13963</title>
<path fill="none" stroke="green" stroke-width="0.21283" d="M1036.86,-696.545C1029.73,-685.775 1021.08,-672.705 1013.34,-661.001"/>
<polygon fill="green" stroke="green" stroke-width="0.21283" points="1016.07,-658.786 1007.63,-652.378 1010.23,-662.649 1016.07,-658.786"/>
</g>
<!-- 13327&#45;&gt;5851 -->
<g id="edge41" class="edge"><title>13327&#45;&gt;5851</title>
<path fill="none" stroke="green" stroke-width="0.956363" d="M1050.25,-692.298C1048.07,-667.741 1042.75,-630.803 1029.75,-601.311 1024.35,-589.056 1016,-576.979 1007.95,-566.925"/>
<polygon fill="green" stroke="green" stroke-width="0.956363" points="1010.42,-564.43 1001.33,-558.996 1005.05,-568.916 1010.42,-564.43"/>
</g>
<!-- 2831&#45;&gt;1 -->
<g id="edge9" class="edge"><title>2831&#45;&gt;1</title>
<path fill="none" stroke="red" stroke-width="0.335342" d="M992.115,-87.5165C859.833,-77.1483 234.827,-28.1609 102.429,-17.7836"/>
<polygon fill="red" stroke="red" stroke-width="0.335342" points="102.695,-14.2939 92.4524,-17.0017 102.148,-21.2725 102.695,-14.2939"/>
</g>
<!-- 2197&#45;&gt;1 -->
<g id="edge75" class="edge"><title>2197&#45;&gt;1</title>
<path fill="none" stroke="green" stroke-width="0.796488" d="M26.5242,-604.174C28.8811,-570.597 32.7487,-507.265 32.7487,-453.236 32.7487,-453.236 32.7487,-453.236 32.7487,-177.773 32.7487,-126.132 54.2588,-68.4979 67.5358,-37.8423"/>
<polygon fill="green" stroke="green" stroke-width="0.796488" points="70.8126,-39.0872 71.6798,-28.5279 64.4171,-36.2417 70.8126,-39.0872"/>
</g>
<!-- 4505&#45;&gt;2831 -->
<g id="edge36" class="edge"><title>4505&#45;&gt;2831</title>
<path fill="none" stroke="red" stroke-width="1.35097" d="M747.231,-170.855C799.092,-155.575 923.541,-118.909 983.435,-101.262"/>
<polygon fill="red" stroke="red" stroke-width="1.35097" points="984.552,-104.582 993.155,-98.3987 982.573,-97.8676 984.552,-104.582"/>
</g>
<!-- 18457 -->
<g id="node35" class="node"><title>18457</title>
<ellipse fill="white" stroke="black" cx="670.749" cy="-452.236" rx="27.6545" ry="27.6545"/>
<text text-anchor="middle" x="670.749" y="-450.036" font-family="Times,serif" font-size="9.00">18457</text>
</g>
<!-- 11243 -->
<g id="node53" class="node"><title>11243</title>
<ellipse fill="white" stroke="black" cx="726.749" cy="-361.082" rx="27.6545" ry="27.6545"/>
<text text-anchor="middle" x="726.749" y="-358.882" font-family="Times,serif" font-size="9.00">11243</text>
</g>
<!-- 18457&#45;&gt;11243 -->
<g id="edge62" class="edge"><title>18457&#45;&gt;11243</title>
<path fill="none" stroke="green" stroke-width="0.740314" d="M685.17,-428.277C691.767,-417.773 699.692,-405.157 706.845,-393.769"/>
<polygon fill="green" stroke="green" stroke-width="0.740314" points="710.021,-395.293 712.376,-384.963 704.093,-391.57 710.021,-395.293"/>
</g>
<!-- 17317 -->
<g id="node37" class="node"><title>17317</title>
<ellipse fill="white" stroke="black" cx="558.749" cy="-361.082" rx="27.6545" ry="27.6545"/>
<text text-anchor="middle" x="558.749" y="-358.882" font-family="Times,serif" font-size="9.00">17317</text>
</g>
<!-- 14752&#45;&gt;17317 -->
<g id="edge13" class="edge"><title>14752&#45;&gt;17317</title>
<path fill="none" stroke="green" stroke-width="0.137005" d="M468.079,-434.257C485.517,-420.376 510.349,-400.609 529.618,-385.27"/>
<polygon fill="green" stroke="green" stroke-width="0.137005" points="531.854,-387.964 537.498,-378.998 527.495,-382.487 531.854,-387.964"/>
</g>
<!-- 14752&#45;&gt;6507 -->
<g id="edge33" class="edge"><title>14752&#45;&gt;6507</title>
<path fill="none" stroke="red" stroke-width="0.684434" stroke-dasharray="1,5" d="M452.129,-425.018C458.668,-393.152 469.712,-339.331 476.865,-304.473"/>
<polygon fill="red" stroke="red" stroke-width="0.684434" points="480.369,-304.809 478.951,-294.309 473.512,-303.401 480.369,-304.809"/>
</g>
<!-- 17317&#45;&gt;6507 -->
<g id="edge43" class="edge"><title>17317&#45;&gt;6507</title>
<path fill="none" stroke="red" stroke-width="0.496091" d="M541.354,-339.404C530.818,-326.88 517.277,-310.783 505.97,-297.343"/>
<polygon fill="red" stroke="red" stroke-width="0.496091" points="508.382,-294.773 499.266,-289.373 503.025,-299.279 508.382,-294.773"/>
</g>
<!-- 12709 -->
<g id="node38" class="node"><title>12709</title>
<ellipse fill="white" stroke="black" cx="855.749" cy="-452.236" rx="27.6545" ry="27.6545"/>
<text text-anchor="middle" x="855.749" y="-450.036" font-family="Times,serif" font-size="9.00">12709</text>
</g>
<!-- 12709&#45;&gt;11243 -->
<g id="edge28" class="edge"><title>12709&#45;&gt;11243</title>
<path fill="none" stroke="green" stroke-width="0.456569" d="M834.158,-435.06C829.437,-431.59 824.447,-427.972 819.749,-424.659 799.383,-410.3 776.123,-394.649 757.96,-382.592"/>
<polygon fill="green" stroke="green" stroke-width="0.456569" points="759.758,-379.585 749.488,-376.983 755.894,-385.421 759.758,-379.585"/>
</g>
<!-- 7718 -->
<g id="node39" class="node"><title>7718</title>
<ellipse fill="white" stroke="black" cx="642.749" cy="-540.562" rx="25" ry="25"/>
<text text-anchor="middle" x="642.749" y="-538.362" font-family="Times,serif" font-size="9.00">7718</text>
</g>
<!-- 7718&#45;&gt;18457 -->
<g id="edge51" class="edge"><title>7718&#45;&gt;18457</title>
<path fill="none" stroke="green" stroke-width="0.316367" d="M650.105,-516.881C652.919,-508.205 656.2,-498.092 659.306,-488.515"/>
<polygon fill="green" stroke="green" stroke-width="0.316367" points="662.697,-489.404 662.453,-478.812 656.039,-487.244 662.697,-489.404"/>
</g>
<!-- 10705 -->
<g id="node47" class="node"><title>10705</title>
<ellipse fill="white" stroke="black" cx="558.749" cy="-452.236" rx="27.6545" ry="27.6545"/>
<text text-anchor="middle" x="558.749" y="-450.036" font-family="Times,serif" font-size="9.00">10705</text>
</g>
<!-- 7718&#45;&gt;10705 -->
<g id="edge77" class="edge"><title>7718&#45;&gt;10705</title>
<path fill="none" stroke="green" stroke-width="0.101183" d="M625.75,-522.093C613.939,-509.955 597.98,-493.554 584.601,-479.804"/>
<polygon fill="green" stroke="green" stroke-width="0.101183" points="586.958,-477.208 577.476,-472.482 581.941,-482.09 586.958,-477.208"/>
</g>
<!-- 7718&#45;&gt;12629 -->
<g id="edge70" class="edge"><title>7718&#45;&gt;12629</title>
<path fill="none" stroke="red" stroke-width="0.21918" stroke-dasharray="1,5" d="M663.839,-526.842C683.728,-514.815 714.343,-496.216 740.749,-479.813 744.116,-477.722 747.627,-475.525 751.122,-473.328"/>
<polygon fill="red" stroke="red" stroke-width="0.21918" points="753.094,-476.222 759.685,-467.927 749.36,-470.302 753.094,-476.222"/>
</g>
<!-- 7718&#45;&gt;6507 -->
<g id="edge24" class="edge"><title>7718&#45;&gt;6507</title>
<path fill="none" stroke="green" stroke-width="0.322801" d="M639.127,-516.019C637.455,-505.024 635.464,-491.754 633.749,-479.813 624.416,-414.849 652.362,-386.574 613.749,-333.505 590.909,-302.115 548.079,-285.797 517.832,-277.806"/>
<polygon fill="green" stroke="green" stroke-width="0.322801" points="518.652,-274.403 508.104,-275.406 516.975,-281.2 518.652,-274.403"/>
</g>
<!-- 7718&#45;&gt;11243 -->
<g id="edge44" class="edge"><title>7718&#45;&gt;11243</title>
<path fill="none" stroke="red" stroke-width="0.110107" d="M663.18,-526.42C678.029,-515.725 697.288,-499.249 707.749,-479.813 721.082,-455.039 725.614,-423.392 726.931,-399.151"/>
<polygon fill="red" stroke="red" stroke-width="0.110107" points="730.438,-399.048 727.323,-388.921 723.443,-398.78 730.438,-399.048"/>
</g>
<!-- 17832 -->
<g id="node40" class="node"><title>17832</title>
<ellipse fill="white" stroke="black" cx="1123.75" cy="-361.082" rx="27.6545" ry="27.6545"/>
<text text-anchor="middle" x="1123.75" y="-358.882" font-family="Times,serif" font-size="9.00">17832</text>
</g>
<!-- 17832&#45;&gt;16336 -->
<g id="edge19" class="edge"><title>17832&#45;&gt;16336</title>
<path fill="none" stroke="red" stroke-width="0.504043" d="M1134.33,-335.247C1138.33,-325.876 1142.94,-315.047 1147.24,-304.978"/>
<polygon fill="red" stroke="red" stroke-width="0.504043" points="1150.52,-306.2 1151.22,-295.629 1144.08,-303.456 1150.52,-306.2"/>
</g>
<!-- 18613&#45;&gt;9931 -->
<g id="edge5" class="edge"><title>18613&#45;&gt;9931</title>
<path fill="none" stroke="red" stroke-width="0.122114" d="M539.612,-695.618C533.448,-684.627 526.031,-671.402 519.471,-659.705"/>
<polygon fill="red" stroke="red" stroke-width="0.122114" points="522.378,-657.734 514.434,-650.724 516.273,-661.158 522.378,-657.734"/>
</g>
<!-- 12988&#45;&gt;2831 -->
<g id="edge12" class="edge"><title>12988&#45;&gt;2831</title>
<path fill="none" stroke="green" stroke-width="0.599879" d="M1183.3,-431.467C1192.98,-419.904 1203.97,-404.497 1209.75,-388.659 1245.98,-289.414 1268.75,-230.327 1198.75,-151.196 1161.25,-108.806 1093.17,-96.3709 1051.75,-92.7977"/>
<polygon fill="green" stroke="green" stroke-width="0.599879" points="1051.8,-89.2924 1041.57,-92.052 1051.29,-96.2737 1051.8,-89.2924"/>
</g>
<!-- 12988&#45;&gt;17832 -->
<g id="edge49" class="edge"><title>12988&#45;&gt;17832</title>
<path fill="none" stroke="green" stroke-width="0.285753" d="M1153.55,-426.874C1149.12,-417.243 1143.95,-406.014 1139.18,-395.636"/>
<polygon fill="green" stroke="green" stroke-width="0.285753" points="1142.3,-394.037 1134.94,-386.414 1135.94,-396.962 1142.3,-394.037"/>
</g>
<!-- 12988&#45;&gt;16336 -->
<g id="edge26" class="edge"><title>12988&#45;&gt;16336</title>
<path fill="none" stroke="green" stroke-width="0.11433" d="M1164.31,-424.631C1163.79,-393.737 1162.94,-342.585 1162.36,-307.853"/>
<polygon fill="green" stroke="green" stroke-width="0.11433" points="1165.86,-307.582 1162.19,-297.642 1158.86,-307.699 1165.86,-307.582"/>
</g>
<!-- 12988&#45;&gt;10861 -->
<g id="edge37" class="edge"><title>12988&#45;&gt;10861</title>
<path fill="none" stroke="green" stroke-width="0.806221" stroke-dasharray="1,5" d="M1175.41,-426.757C1191.08,-387.373 1216.63,-307.738 1198.75,-242.35 1195.64,-230.979 1189.87,-219.575 1183.8,-209.676"/>
<polygon fill="green" stroke="green" stroke-width="0.806221" points="1186.59,-207.538 1178.21,-201.052 1180.71,-211.347 1186.59,-207.538"/>
</g>
<!-- 9931&#45;&gt;7718 -->
<g id="edge58" class="edge"><title>9931&#45;&gt;7718</title>
<path fill="none" stroke="red" stroke-width="0.72338" d="M523.406,-615.15C547.187,-600.487 586.427,-576.291 613.378,-559.672"/>
<polygon fill="red" stroke="red" stroke-width="0.72338" points="615.332,-562.58 622.007,-554.352 611.658,-556.621 615.332,-562.58"/>
</g>
<!-- 9931&#45;&gt;6507 -->
<g id="edge25" class="edge"><title>9931&#45;&gt;6507</title>
<path fill="none" stroke="green" stroke-width="0.203147" d="M501.473,-603.912C498.18,-542.059 489.391,-376.93 485.567,-305.097"/>
<polygon fill="green" stroke="green" stroke-width="0.203147" points="489.046,-304.598 485.019,-294.799 482.056,-304.97 489.046,-304.598"/>
</g>
<!-- 13515 -->
<g id="node45" class="node"><title>13515</title>
<ellipse fill="white" stroke="black" cx="975.749" cy="-452.236" rx="27.6545" ry="27.6545"/>
<text text-anchor="middle" x="975.749" y="-450.036" font-family="Times,serif" font-size="9.00">13515</text>
</g>
<!-- 13515&#45;&gt;11577 -->
<g id="edge78" class="edge"><title>13515&#45;&gt;11577</title>
<path fill="none" stroke="red" stroke-width="0.198251" d="M975.149,-424.487C974.969,-416.465 974.768,-407.52 974.576,-398.965"/>
<polygon fill="red" stroke="red" stroke-width="0.198251" points="978.072,-398.731 974.348,-388.812 971.074,-398.888 978.072,-398.731"/>
</g>
<!-- 16336&#45;&gt;10861 -->
<g id="edge27" class="edge"><title>16336&#45;&gt;10861</title>
<path fill="none" stroke="green" stroke-width="0.27748" stroke-dasharray="1,5" d="M1161.75,-242.178C1161.75,-234.156 1161.75,-225.211 1161.75,-216.657"/>
<polygon fill="green" stroke="green" stroke-width="0.27748" points="1165.25,-216.503 1161.75,-206.503 1158.25,-216.504 1165.25,-216.503"/>
</g>
<!-- 10705&#45;&gt;17317 -->
<g id="edge67" class="edge"><title>10705&#45;&gt;17317</title>
<path fill="none" stroke="red" stroke-width="0.699176" d="M558.749,-424.487C558.749,-416.465 558.749,-407.52 558.749,-398.965"/>
<polygon fill="red" stroke="red" stroke-width="0.699176" points="562.249,-398.812 558.749,-388.812 555.249,-398.812 562.249,-398.812"/>
</g>
<!-- 10705&#45;&gt;6507 -->
<g id="edge6" class="edge"><title>10705&#45;&gt;6507</title>
<path fill="none" stroke="green" stroke-width="0.117265" stroke-dasharray="1,5" d="M575.317,-430.07C592.338,-405.55 613.965,-364.549 595.749,-333.505 578.956,-304.887 543.782,-288.385 517.305,-279.589"/>
<polygon fill="green" stroke="green" stroke-width="0.117265" points="518.228,-276.211 507.64,-276.586 516.151,-282.896 518.228,-276.211"/>
</g>
<!-- 12629&#45;&gt;11243 -->
<g id="edge11" class="edge"><title>12629&#45;&gt;11243</title>
<path fill="none" stroke="red" stroke-width="1.51483" d="M768.327,-428.277C761.73,-417.773 753.806,-405.157 746.652,-393.769"/>
<polygon fill="red" stroke="red" stroke-width="1.51483" points="749.404,-391.57 741.121,-384.963 743.476,-395.293 749.404,-391.57"/>
</g>
<!-- 5851&#45;&gt;2831 -->
<g id="edge45" class="edge"><title>5851&#45;&gt;2831</title>
<path fill="none" stroke="red" stroke-width="0.256171" stroke-dasharray="1,5" d="M1002.14,-522.781C1012.34,-511.68 1024.27,-496.193 1029.75,-479.813 1040.81,-446.729 1025.51,-213.572 1019.23,-125.249"/>
<polygon fill="red" stroke="red" stroke-width="0.256171" points="1022.71,-124.943 1018.51,-115.219 1015.73,-125.444 1022.71,-124.943"/>
</g>
<!-- 5851&#45;&gt;11577 -->
<g id="edge47" class="edge"><title>5851&#45;&gt;11577</title>
<path fill="none" stroke="red" stroke-width="0.85834" stroke-dasharray="1,5" d="M997.089,-519.075C1003.1,-507.897 1009.69,-493.567 1012.75,-479.813 1018.08,-455.886 1019.49,-448.226 1012.75,-424.659 1009.4,-412.951 1003.15,-401.302 996.626,-391.287"/>
<polygon fill="red" stroke="red" stroke-width="0.85834" points="999.437,-389.197 990.884,-382.945 993.671,-393.166 999.437,-389.197"/>
</g>
<!-- 5851&#45;&gt;12988 -->
<g id="edge56" class="edge"><title>5851&#45;&gt;12988</title>
<path fill="none" stroke="green" stroke-width="0.184931" stroke-dasharray="1,5" d="M1006.82,-528.977C1037.84,-514.098 1094.61,-486.873 1130.97,-469.437"/>
<polygon fill="green" stroke="green" stroke-width="0.184931" points="1132.69,-472.493 1140.19,-465.013 1129.66,-466.182 1132.69,-472.493"/>
</g>
<!-- 5851&#45;&gt;13515 -->
<g id="edge14" class="edge"><title>5851&#45;&gt;13515</title>
<path fill="none" stroke="red" stroke-width="0.161699" d="M982.242,-515.515C981.421,-507.642 980.489,-498.704 979.593,-490.107"/>
<polygon fill="red" stroke="red" stroke-width="0.161699" points="983.045,-489.467 978.527,-479.883 976.083,-490.193 983.045,-489.467"/>
</g>
<!-- 5851&#45;&gt;12629 -->
<g id="edge4" class="edge"><title>5851&#45;&gt;12629</title>
<path fill="none" stroke="green" stroke-width="0.327796" stroke-dasharray="1,5" d="M961.022,-533.381C927.961,-524.25 866.7,-505.434 818.749,-479.813 816.53,-478.628 814.297,-477.317 812.089,-475.932"/>
<polygon fill="green" stroke="green" stroke-width="0.327796" points="814.023,-473.015 803.775,-470.327 810.11,-478.819 814.023,-473.015"/>
</g>
<!-- 9704&#45;&gt;13327 -->
<g id="edge21" class="edge"><title>9704&#45;&gt;13327</title>
<path fill="none" stroke="red" stroke-width="0.220698" d="M1106.56,-788.637C1097.39,-777.328 1085.52,-762.684 1075.16,-749.918"/>
<polygon fill="red" stroke="red" stroke-width="0.220698" points="1077.64,-747.418 1068.63,-741.855 1072.21,-751.827 1077.64,-747.418"/>
</g>
<!-- 9704&#45;&gt;10472 -->
<g id="edge73" class="edge"><title>9704&#45;&gt;10472</title>
<path fill="none" stroke="red" stroke-width="0.210066" stroke-dasharray="1,5" d="M1097.7,-802.167C1065.68,-794.373 1008.39,-777.31 967.749,-747.619 935.93,-724.372 908.776,-687.934 891.749,-661.753"/>
<polygon fill="red" stroke="red" stroke-width="0.210066" points="894.692,-659.858 886.37,-653.301 888.786,-663.616 894.692,-659.858"/>
</g>
<!-- 9704&#45;&gt;12795 -->
<g id="edge57" class="edge"><title>9704&#45;&gt;12795</title>
<path fill="none" stroke="red" stroke-width="0.224541" d="M1136.92,-788.458C1169.28,-747.985 1247.23,-649.78 1309.75,-565.311 1329.97,-537.994 1352.2,-506.291 1367.92,-483.588"/>
<polygon fill="red" stroke="red" stroke-width="0.224541" points="1370.8,-485.573 1373.61,-475.356 1365.04,-481.595 1370.8,-485.573"/>
</g>
<!-- 10472&#45;&gt;5851 -->
<g id="edge18" class="edge"><title>10472&#45;&gt;5851</title>
<path fill="none" stroke="green" stroke-width="0.829345" stroke-dasharray="1,5" d="M894.343,-611.243C912.284,-597.415 937.916,-577.659 957.309,-562.712"/>
<polygon fill="green" stroke="green" stroke-width="0.829345" points="959.68,-565.303 965.463,-556.427 955.406,-559.759 959.68,-565.303"/>
</g>
<!-- 6507&#45;&gt;4505 -->
<g id="edge55" class="edge"><title>6507&#45;&gt;4505</title>
<path fill="none" stroke="green" stroke-width="0.238425" stroke-dasharray="1,5" d="M506.761,-260.379C549.678,-244.436 642.03,-210.13 691.273,-191.837"/>
<polygon fill="green" stroke="green" stroke-width="0.238425" points="692.651,-195.059 700.806,-188.296 690.213,-188.497 692.651,-195.059"/>
</g>
<!-- 11243&#45;&gt;6507 -->
<g id="edge2" class="edge"><title>11243&#45;&gt;6507</title>
<path fill="none" stroke="green" stroke-width="0.550161" d="M702.141,-348.599C691.368,-343.725 678.524,-338.116 666.749,-333.505 615.022,-313.249 553.721,-293.038 516.826,-281.274"/>
<polygon fill="green" stroke="green" stroke-width="0.550161" points="517.685,-277.875 507.095,-278.187 515.568,-284.548 517.685,-277.875"/>
</g>
<!-- 12795&#45;&gt;10861 -->
<g id="edge40" class="edge"><title>12795&#45;&gt;10861</title>
<path fill="none" stroke="green" stroke-width="1.60272" stroke-dasharray="1,5" d="M1385.16,-424.597C1377.99,-381.081 1358,-294.394 1307.75,-242.35 1278.28,-211.829 1231.5,-195.392 1198.86,-187.134"/>
<polygon fill="green" stroke="green" stroke-width="1.60272" points="1199.34,-183.65 1188.8,-184.732 1197.71,-190.458 1199.34,-183.65"/>
</g>
</g>
</svg>
