<?xml version="1.0" encoding="UTF-8" standalone="no"?>
<!DOCTYPE svg PUBLIC "-//W3C//DTD SVG 1.1//EN"
 "http://www.w3.org/Graphics/SVG/1.1/DTD/svg11.dtd">
<!-- Generated by graphviz version 2.38.0 (20140413.2041)
 -->
<!-- Title: %3 Pages: 1 -->
<svg width="1524pt" height="294pt"
 viewBox="0.00 0.00 1524.08 293.81" xmlns="http://www.w3.org/2000/svg" xmlns:xlink="http://www.w3.org/1999/xlink">
<g id="graph0" class="graph" transform="scale(1 1) rotate(0) translate(4 289.806)">
<title>%3</title>
<polygon fill="white" stroke="none" points="-4,4 -4,-289.806 1520.08,-289.806 1520.08,4 -4,4"/>
<!-- &#45;1 -->
<g id="node1" class="node"><title>&#45;1</title>
<polygon fill="lightgray" stroke="black" points="377.577,-285.806 353.577,-285.806 353.577,-267.806 377.577,-267.806 377.577,-285.806"/>
<text text-anchor="middle" x="365.577" y="-274.606" font-family="Times,serif" font-size="9.00">&#45;1</text>
</g>
<!-- 0 -->
<g id="node25" class="node"><title>0</title>
<ellipse fill="lightblue" stroke="black" cx="785.577" cy="-24.7487" rx="14.7" ry="14.7"/>
<text text-anchor="middle" x="785.577" y="-22.5487" font-family="Times,serif" font-size="9.00">0</text>
</g>
<!-- &#45;1&#45;&gt;0 -->
<g id="edge11" class="edge"><title>&#45;1&#45;&gt;0</title>
<path fill="none" stroke="green" stroke-width="0.990013" stroke-dasharray="1,5" d="M377.661,-270.235C414.421,-253.077 527.625,-198.682 613.577,-140.652 645.543,-119.07 648.811,-107.372 680.577,-85.4975 707.991,-66.6204 741.766,-48.187 763.482,-36.9013"/>
<polygon fill="green" stroke="green" stroke-width="0.990013" points="765.25,-39.9275 772.544,-32.243 762.05,-33.7018 765.25,-39.9275"/>
</g>
<!-- 1 -->
<g id="node26" class="node"><title>1</title>
<ellipse fill="lightblue" stroke="black" cx="283.577" cy="-24.7487" rx="14.7" ry="14.7"/>
<text text-anchor="middle" x="283.577" y="-22.5487" font-family="Times,serif" font-size="9.00">1</text>
</g>
<!-- &#45;1&#45;&gt;1 -->
<g id="edge13" class="edge"><title>&#45;1&#45;&gt;1</title>
<path fill="none" stroke="green" stroke-width="0.468605" stroke-dasharray="1,5" d="M353.511,-271.191C319.864,-257.529 225.567,-213.623 196.577,-140.652 187.527,-117.871 185.16,-107.189 196.577,-85.4975 209.852,-60.2768 239.114,-43.6462 260.035,-34.4781"/>
<polygon fill="green" stroke="green" stroke-width="0.468605" points="261.612,-37.6138 269.528,-30.5719 258.949,-31.1404 261.612,-37.6138"/>
</g>
<!-- 3 -->
<g id="node28" class="node"><title>3</title>
<ellipse fill="lightblue" stroke="black" cx="473.577" cy="-24.7487" rx="14.7" ry="14.7"/>
<text text-anchor="middle" x="473.577" y="-22.5487" font-family="Times,serif" font-size="9.00">3</text>
</g>
<!-- &#45;1&#45;&gt;3 -->
<g id="edge44" class="edge"><title>&#45;1&#45;&gt;3</title>
<path fill="none" stroke="red" stroke-width="0.12048" d="M367.485,-267.481C373.912,-240.269 396.309,-151.891 430.577,-85.4975 438.144,-70.8368 449.014,-55.7685 457.931,-44.4318"/>
<polygon fill="red" stroke="red" stroke-width="0.12048" points="460.728,-46.5392 464.283,-36.5585 455.28,-42.144 460.728,-46.5392"/>
</g>
<!-- 10026 -->
<g id="node31" class="node"><title>10026</title>
<ellipse fill="white" stroke="black" cx="319.577" cy="-204.229" rx="27.6545" ry="27.6545"/>
<text text-anchor="middle" x="319.577" y="-202.029" font-family="Times,serif" font-size="9.00">10026</text>
</g>
<!-- &#45;1&#45;&gt;10026 -->
<g id="edge36" class="edge"><title>&#45;1&#45;&gt;10026</title>
<path fill="none" stroke="red" stroke-width="0.649173" d="M360.3,-267.71C355.261,-259.977 347.34,-247.825 339.818,-236.285"/>
<polygon fill="red" stroke="red" stroke-width="0.649173" points="342.592,-234.13 334.199,-227.663 336.727,-237.952 342.592,-234.13"/>
</g>
<!-- &#45;2 -->
<g id="node2" class="node"><title>&#45;2</title>
<polygon fill="lightgray" stroke="black" points="1088.58,-122.075 1064.58,-122.075 1064.58,-104.075 1088.58,-104.075 1088.58,-122.075"/>
<text text-anchor="middle" x="1076.58" y="-110.875" font-family="Times,serif" font-size="9.00">&#45;2</text>
</g>
<!-- &#45;2&#45;&gt;0 -->
<g id="edge2" class="edge"><title>&#45;2&#45;&gt;0</title>
<path fill="none" stroke="green" stroke-width="0.640496" stroke-dasharray="1,5" d="M1072.16,-103.847C1068.5,-97.8421 1062.75,-89.9952 1055.58,-85.4975 976.35,-35.833 861.39,-27.1546 810.929,-25.8443"/>
<polygon fill="green" stroke="green" stroke-width="0.640496" points="810.692,-22.3396 800.631,-25.659 810.566,-29.3385 810.692,-22.3396"/>
</g>
<!-- 2 -->
<g id="node27" class="node"><title>2</title>
<ellipse fill="lightblue" stroke="black" cx="1121.58" cy="-24.7487" rx="14.7" ry="14.7"/>
<text text-anchor="middle" x="1121.58" y="-22.5487" font-family="Times,serif" font-size="9.00">2</text>
</g>
<!-- &#45;2&#45;&gt;2 -->
<g id="edge33" class="edge"><title>&#45;2&#45;&gt;2</title>
<path fill="none" stroke="red" stroke-width="0.596833" stroke-dasharray="1,5" d="M1080.89,-103.797C1087.6,-90.9196 1100.77,-65.6674 1110.31,-47.3659"/>
<polygon fill="red" stroke="red" stroke-width="0.596833" points="1113.52,-48.7694 1115.04,-38.284 1107.32,-45.5336 1113.52,-48.7694"/>
</g>
<!-- &#45;3 -->
<g id="node3" class="node"><title>&#45;3</title>
<polygon fill="lightgray" stroke="black" points="858.577,-285.806 834.577,-285.806 834.577,-267.806 858.577,-267.806 858.577,-285.806"/>
<text text-anchor="middle" x="846.577" y="-274.606" font-family="Times,serif" font-size="9.00">&#45;3</text>
</g>
<!-- &#45;3&#45;&gt;2 -->
<g id="edge24" class="edge"><title>&#45;3&#45;&gt;2</title>
<path fill="none" stroke="green" stroke-width="0.36587" d="M858.984,-271.069C921.087,-247.351 1195.27,-142.557 1196.58,-140.652 1210.44,-120.436 1207.22,-107.58 1196.58,-85.4975 1185.78,-63.1002 1162.06,-46.5009 1144.16,-36.5571"/>
<polygon fill="green" stroke="green" stroke-width="0.36587" points="1145.42,-33.2655 1134.94,-31.723 1142.17,-39.4654 1145.42,-33.2655"/>
</g>
<!-- &#45;3&#45;&gt;10026 -->
<g id="edge46" class="edge"><title>&#45;3&#45;&gt;10026</title>
<path fill="none" stroke="red" stroke-width="0.204049" d="M834.326,-274.165C769.341,-265.462 463.896,-224.557 356.796,-210.213"/>
<polygon fill="red" stroke="red" stroke-width="0.204049" points="357.149,-206.73 346.773,-208.871 356.22,-213.668 357.149,-206.73"/>
</g>
<!-- &#45;4 -->
<g id="node4" class="node"><title>&#45;4</title>
<polygon fill="lightgray" stroke="black" points="383.577,-122.075 359.577,-122.075 359.577,-104.075 383.577,-104.075 383.577,-122.075"/>
<text text-anchor="middle" x="371.577" y="-110.875" font-family="Times,serif" font-size="9.00">&#45;4</text>
</g>
<!-- &#45;4&#45;&gt;0 -->
<g id="edge39" class="edge"><title>&#45;4&#45;&gt;0</title>
<path fill="none" stroke="green" stroke-width="0.266113" d="M383.876,-105.409C395.568,-99.3472 413.809,-90.5927 430.577,-85.4975 551.08,-48.882 701.838,-32.8895 760.554,-27.7404"/>
<polygon fill="green" stroke="green" stroke-width="0.266113" points="761.058,-31.2103 770.727,-26.8774 760.467,-24.2354 761.058,-31.2103"/>
</g>
<!-- &#45;4&#45;&gt;1 -->
<g id="edge51" class="edge"><title>&#45;4&#45;&gt;1</title>
<path fill="none" stroke="green" stroke-width="0.244361" stroke-dasharray="1,5" d="M365.319,-103.91C361.065,-98.5167 355.208,-91.3838 349.577,-85.4975 334.535,-69.7744 316.078,-53.2753 302.51,-41.6085"/>
<polygon fill="green" stroke="green" stroke-width="0.244361" points="304.652,-38.8355 294.768,-35.019 300.115,-44.166 304.652,-38.8355"/>
</g>
<!-- &#45;4&#45;&gt;3 -->
<g id="edge21" class="edge"><title>&#45;4&#45;&gt;3</title>
<path fill="none" stroke="red" stroke-width="0.317723" stroke-dasharray="1,5" d="M379.053,-103.895C384.114,-98.4946 391.043,-91.3602 397.577,-85.4975 415.747,-69.1937 437.804,-52.1284 453.466,-40.4302"/>
<polygon fill="red" stroke="red" stroke-width="0.317723" points="455.915,-42.9719 461.87,-34.209 451.75,-37.3456 455.915,-42.9719"/>
</g>
<!-- &#45;5 -->
<g id="node5" class="node"><title>&#45;5</title>
<polygon fill="lightgray" stroke="black" points="463.577,-122.075 439.577,-122.075 439.577,-104.075 463.577,-104.075 463.577,-122.075"/>
<text text-anchor="middle" x="451.577" y="-110.875" font-family="Times,serif" font-size="9.00">&#45;5</text>
</g>
<!-- &#45;5&#45;&gt;0 -->
<g id="edge31" class="edge"><title>&#45;5&#45;&gt;0</title>
<path fill="none" stroke="red" stroke-width="2.23244" d="M455.961,-103.787C459.598,-97.7502 465.337,-89.8901 472.577,-85.4975 521.423,-55.8611 695.207,-35.1525 760.521,-28.2581"/>
<polygon fill="red" stroke="red" stroke-width="2.23244" points="761.136,-31.7132 770.722,-27.2012 760.415,-24.7505 761.136,-31.7132"/>
</g>
<!-- &#45;5&#45;&gt;1 -->
<g id="edge14" class="edge"><title>&#45;5&#45;&gt;1</title>
<path fill="none" stroke="green" stroke-width="0.214081" d="M439.495,-105.866C411.437,-91.4487 341.53,-55.5275 305.626,-37.0783"/>
<polygon fill="green" stroke="green" stroke-width="0.214081" points="306.958,-33.8277 296.464,-32.3703 303.758,-40.0538 306.958,-33.8277"/>
</g>
<!-- &#45;5&#45;&gt;3 -->
<g id="edge41" class="edge"><title>&#45;5&#45;&gt;3</title>
<path fill="none" stroke="green" stroke-width="0.169027" stroke-dasharray="1,5" d="M453.687,-103.797C456.851,-91.3798 462.948,-67.4567 467.561,-49.3539"/>
<polygon fill="green" stroke="green" stroke-width="0.169027" points="470.995,-50.0535 470.073,-39.4989 464.212,-48.3248 470.995,-50.0535"/>
</g>
<!-- &#45;6 -->
<g id="node6" class="node"><title>&#45;6</title>
<polygon fill="lightgray" stroke="black" points="1345.58,-213.229 1321.58,-213.229 1321.58,-195.229 1345.58,-195.229 1345.58,-213.229"/>
<text text-anchor="middle" x="1333.58" y="-202.029" font-family="Times,serif" font-size="9.00">&#45;6</text>
</g>
<!-- 9899 -->
<g id="node32" class="node"><title>9899</title>
<ellipse fill="white" stroke="black" cx="1293.58" cy="-113.075" rx="25" ry="25"/>
<text text-anchor="middle" x="1293.58" y="-110.875" font-family="Times,serif" font-size="9.00">9899</text>
</g>
<!-- &#45;6&#45;&gt;9899 -->
<g id="edge8" class="edge"><title>&#45;6&#45;&gt;9899</title>
<path fill="none" stroke="green" stroke-width="0.384254" d="M1329.89,-195.001C1324.86,-183.799 1315.58,-163.12 1307.66,-145.47"/>
<polygon fill="green" stroke="green" stroke-width="0.384254" points="1310.73,-143.747 1303.44,-136.056 1304.34,-146.612 1310.73,-143.747"/>
</g>
<!-- &#45;7 -->
<g id="node7" class="node"><title>&#45;7</title>
<polygon fill="lightgray" stroke="black" points="39.5772,-213.229 15.5772,-213.229 15.5772,-195.229 39.5772,-195.229 39.5772,-213.229"/>
<text text-anchor="middle" x="27.5772" y="-202.029" font-family="Times,serif" font-size="9.00">&#45;7</text>
</g>
<!-- 10337 -->
<g id="node29" class="node"><title>10337</title>
<ellipse fill="white" stroke="black" cx="27.5772" cy="-113.075" rx="27.6545" ry="27.6545"/>
<text text-anchor="middle" x="27.5772" y="-110.875" font-family="Times,serif" font-size="9.00">10337</text>
</g>
<!-- &#45;7&#45;&gt;10337 -->
<g id="edge38" class="edge"><title>&#45;7&#45;&gt;10337</title>
<path fill="none" stroke="red" stroke-width="0.521466" d="M27.5772,-195.001C27.5772,-185.029 27.5772,-167.548 27.5772,-151.379"/>
<polygon fill="red" stroke="red" stroke-width="0.521466" points="31.0773,-151.036 27.5772,-141.036 24.0773,-151.036 31.0773,-151.036"/>
</g>
<!-- &#45;8 -->
<g id="node8" class="node"><title>&#45;8</title>
<polygon fill="lightgray" stroke="black" points="797.577,-122.075 773.577,-122.075 773.577,-104.075 797.577,-104.075 797.577,-122.075"/>
<text text-anchor="middle" x="785.577" y="-110.875" font-family="Times,serif" font-size="9.00">&#45;8</text>
</g>
<!-- &#45;8&#45;&gt;0 -->
<g id="edge56" class="edge"><title>&#45;8&#45;&gt;0</title>
<path fill="none" stroke="red" stroke-width="0.369146" stroke-dasharray="1,5" d="M785.577,-103.797C785.577,-91.5081 785.577,-67.9496 785.577,-49.9167"/>
<polygon fill="red" stroke="red" stroke-width="0.369146" points="789.077,-49.8091 785.577,-39.8091 782.077,-49.8091 789.077,-49.8091"/>
</g>
<!-- &#45;9 -->
<g id="node9" class="node"><title>&#45;9</title>
<polygon fill="lightgray" stroke="black" points="1046.58,-122.075 1022.58,-122.075 1022.58,-104.075 1046.58,-104.075 1046.58,-122.075"/>
<text text-anchor="middle" x="1034.58" y="-110.875" font-family="Times,serif" font-size="9.00">&#45;9</text>
</g>
<!-- &#45;9&#45;&gt;0 -->
<g id="edge37" class="edge"><title>&#45;9&#45;&gt;0</title>
<path fill="none" stroke="red" stroke-width="1.11054" d="M1029.8,-103.931C1025.9,-97.9689 1019.85,-90.1401 1012.58,-85.4975 947.512,-43.9431 854.434,-31.1707 810.435,-27.3382"/>
<polygon fill="red" stroke="red" stroke-width="1.11054" points="810.597,-23.8402 800.353,-26.5444 810.047,-30.8186 810.597,-23.8402"/>
</g>
<!-- &#45;9&#45;&gt;2 -->
<g id="edge5" class="edge"><title>&#45;9&#45;&gt;2</title>
<path fill="none" stroke="red" stroke-width="0.632187" d="M1040.49,-103.881C1044.53,-98.4747 1050.11,-91.339 1055.58,-85.4975 1070.44,-69.6044 1088.91,-53.1222 1102.54,-41.5052"/>
<polygon fill="red" stroke="red" stroke-width="0.632187" points="1104.92,-44.0706 1110.31,-34.9495 1100.41,-38.7184 1104.92,-44.0706"/>
</g>
<!-- &#45;10 -->
<g id="node10" class="node"><title>&#45;10</title>
<polygon fill="lightgray" stroke="black" points="558.077,-122.075 529.077,-122.075 529.077,-104.075 558.077,-104.075 558.077,-122.075"/>
<text text-anchor="middle" x="543.577" y="-110.875" font-family="Times,serif" font-size="9.00">&#45;10</text>
</g>
<!-- &#45;10&#45;&gt;0 -->
<g id="edge48" class="edge"><title>&#45;10&#45;&gt;0</title>
<path fill="none" stroke="green" stroke-width="0.588522" d="M548.662,-103.953C552.793,-98.003 559.141,-90.179 566.577,-85.4975 629.319,-45.9967 718.112,-32.2855 760.786,-27.7917"/>
<polygon fill="green" stroke="green" stroke-width="0.588522" points="761.22,-31.2662 770.835,-26.8167 760.544,-24.2989 761.22,-31.2662"/>
</g>
<!-- &#45;10&#45;&gt;3 -->
<g id="edge12" class="edge"><title>&#45;10&#45;&gt;3</title>
<path fill="none" stroke="green" stroke-width="0.476792" d="M536.865,-103.797C525.886,-90.2569 503.812,-63.0358 488.862,-44.5984"/>
<polygon fill="green" stroke="green" stroke-width="0.476792" points="491.576,-42.3889 482.559,-36.826 486.139,-46.7977 491.576,-42.3889"/>
</g>
<!-- &#45;11 -->
<g id="node11" class="node"><title>&#45;11</title>
<polygon fill="lightgray" stroke="black" points="944.077,-213.229 915.077,-213.229 915.077,-195.229 944.077,-195.229 944.077,-213.229"/>
<text text-anchor="middle" x="929.577" y="-202.029" font-family="Times,serif" font-size="9.00">&#45;11</text>
</g>
<!-- &#45;11&#45;&gt;0 -->
<g id="edge17" class="edge"><title>&#45;11&#45;&gt;0</title>
<path fill="none" stroke="red" stroke-width="0.145905" stroke-dasharray="1,5" d="M924.713,-195.065C910.713,-171.673 870.258,-104.844 853.577,-85.4975 838.96,-68.5448 819.557,-51.9601 805.22,-40.582"/>
<polygon fill="red" stroke="red" stroke-width="0.145905" points="807.077,-37.5924 797.035,-34.2137 802.778,-43.117 807.077,-37.5924"/>
</g>
<!-- &#45;11&#45;&gt;2 -->
<g id="edge4" class="edge"><title>&#45;11&#45;&gt;2</title>
<path fill="none" stroke="green" stroke-width="0.245963" stroke-dasharray="1,5" d="M944.084,-201.87C992.786,-196.979 1149.04,-178.526 1178.58,-140.652 1193.65,-121.321 1187.69,-108.253 1178.58,-85.4975 1171.14,-66.9382 1154.9,-50.869 1141.64,-40.0842"/>
<polygon fill="green" stroke="green" stroke-width="0.245963" points="1143.54,-37.1287 1133.49,-33.7872 1139.26,-42.6692 1143.54,-37.1287"/>
</g>
<!-- 11966 -->
<g id="node36" class="node"><title>11966</title>
<ellipse fill="white" stroke="black" cx="929.577" cy="-113.075" rx="27.6545" ry="27.6545"/>
<text text-anchor="middle" x="929.577" y="-110.875" font-family="Times,serif" font-size="9.00">11966</text>
</g>
<!-- &#45;11&#45;&gt;11966 -->
<g id="edge7" class="edge"><title>&#45;11&#45;&gt;11966</title>
<path fill="none" stroke="red" stroke-width="0.253964" d="M929.577,-195.001C929.577,-185.029 929.577,-167.548 929.577,-151.379"/>
<polygon fill="red" stroke="red" stroke-width="0.253964" points="933.077,-151.036 929.577,-141.036 926.077,-151.036 933.077,-151.036"/>
</g>
<!-- &#45;12 -->
<g id="node12" class="node"><title>&#45;12</title>
<polygon fill="lightgray" stroke="black" points="102.077,-122.075 73.0772,-122.075 73.0772,-104.075 102.077,-104.075 102.077,-122.075"/>
<text text-anchor="middle" x="87.5772" y="-110.875" font-family="Times,serif" font-size="9.00">&#45;12</text>
</g>
<!-- &#45;12&#45;&gt;1 -->
<g id="edge20" class="edge"><title>&#45;12&#45;&gt;1</title>
<path fill="none" stroke="red" stroke-width="0.125186" d="M92.929,-103.847C97.1096,-98.0001 103.401,-90.3541 110.577,-85.4975 157.796,-53.5395 223.816,-37.0275 259.082,-30.0093"/>
<polygon fill="red" stroke="red" stroke-width="0.125186" points="259.812,-33.4332 268.984,-28.1295 258.507,-26.556 259.812,-33.4332"/>
</g>
<!-- &#45;13 -->
<g id="node13" class="node"><title>&#45;13</title>
<polygon fill="lightgray" stroke="black" points="845.077,-122.075 816.077,-122.075 816.077,-104.075 845.077,-104.075 845.077,-122.075"/>
<text text-anchor="middle" x="830.577" y="-110.875" font-family="Times,serif" font-size="9.00">&#45;13</text>
</g>
<!-- &#45;13&#45;&gt;0 -->
<g id="edge54" class="edge"><title>&#45;13&#45;&gt;0</title>
<path fill="none" stroke="green" stroke-width="0.871009" d="M826.262,-103.797C819.549,-90.9196 806.386,-65.6674 796.846,-47.3659"/>
<polygon fill="green" stroke="green" stroke-width="0.871009" points="799.838,-45.5336 792.112,-38.284 793.63,-48.7694 799.838,-45.5336"/>
</g>
<!-- &#45;14 -->
<g id="node14" class="node"><title>&#45;14</title>
<polygon fill="lightgray" stroke="black" points="605.077,-122.075 576.077,-122.075 576.077,-104.075 605.077,-104.075 605.077,-122.075"/>
<text text-anchor="middle" x="590.577" y="-110.875" font-family="Times,serif" font-size="9.00">&#45;14</text>
</g>
<!-- &#45;14&#45;&gt;1 -->
<g id="edge58" class="edge"><title>&#45;14&#45;&gt;1</title>
<path fill="none" stroke="red" stroke-width="0.883741" stroke-dasharray="1,5" d="M585.271,-103.829C580.96,-97.8138 574.337,-89.9628 566.577,-85.4975 522.224,-59.9736 369.114,-37.2193 308.533,-29.0031"/>
<polygon fill="red" stroke="red" stroke-width="0.883741" points="308.721,-25.4972 298.346,-27.6407 307.793,-32.4354 308.721,-25.4972"/>
</g>
<!-- &#45;14&#45;&gt;2 -->
<g id="edge18" class="edge"><title>&#45;14&#45;&gt;2</title>
<path fill="none" stroke="red" stroke-width="0.391913" d="M605.353,-107.541C624.75,-101.729 659.936,-91.6692 690.577,-85.4975 843.503,-54.6955 1030.16,-34.7086 1096.62,-28.1313"/>
<polygon fill="red" stroke="red" stroke-width="0.391913" points="1096.97,-31.6145 1106.58,-27.158 1096.29,-24.6477 1096.97,-31.6145"/>
</g>
<!-- &#45;15 -->
<g id="node15" class="node"><title>&#45;15</title>
<polygon fill="lightgray" stroke="black" points="906.077,-285.806 877.077,-285.806 877.077,-267.806 906.077,-267.806 906.077,-285.806"/>
<text text-anchor="middle" x="891.577" y="-274.606" font-family="Times,serif" font-size="9.00">&#45;15</text>
</g>
<!-- &#45;16 -->
<g id="node16" class="node"><title>&#45;16</title>
<polygon fill="lightgray" stroke="black" points="341.077,-122.075 312.077,-122.075 312.077,-104.075 341.077,-104.075 341.077,-122.075"/>
<text text-anchor="middle" x="326.577" y="-110.875" font-family="Times,serif" font-size="9.00">&#45;16</text>
</g>
<!-- &#45;16&#45;&gt;0 -->
<g id="edge23" class="edge"><title>&#45;16&#45;&gt;0</title>
<path fill="none" stroke="green" stroke-width="0.21401" d="M331.794,-103.668C336.059,-97.5684 342.663,-89.6823 350.577,-85.4975 387.09,-66.1902 673.56,-36.75 760.588,-28.1722"/>
<polygon fill="green" stroke="green" stroke-width="0.21401" points="761.014,-31.6474 770.624,-27.1885 760.331,-24.6807 761.014,-31.6474"/>
</g>
<!-- &#45;16&#45;&gt;1 -->
<g id="edge34" class="edge"><title>&#45;16&#45;&gt;1</title>
<path fill="none" stroke="green" stroke-width="0.168896" stroke-dasharray="1,5" d="M322.454,-103.797C316.04,-90.9196 303.461,-65.6674 294.345,-47.3659"/>
<polygon fill="green" stroke="green" stroke-width="0.168896" points="297.413,-45.6745 289.821,-38.284 291.147,-48.7955 297.413,-45.6745"/>
</g>
<!-- &#45;17 -->
<g id="node17" class="node"><title>&#45;17</title>
<polygon fill="lightgray" stroke="black" points="149.077,-122.075 120.077,-122.075 120.077,-104.075 149.077,-104.075 149.077,-122.075"/>
<text text-anchor="middle" x="134.577" y="-110.875" font-family="Times,serif" font-size="9.00">&#45;17</text>
</g>
<!-- &#45;17&#45;&gt;1 -->
<g id="edge9" class="edge"><title>&#45;17&#45;&gt;1</title>
<path fill="none" stroke="red" stroke-width="0.36759" stroke-dasharray="1,5" d="M142.19,-103.984C147.762,-98.3519 155.696,-90.911 163.577,-85.4975 195.105,-63.8398 235.612,-45.3638 260.574,-34.9111"/>
<polygon fill="red" stroke="red" stroke-width="0.36759" points="262.023,-38.0994 269.942,-31.0602 259.362,-31.6251 262.023,-38.0994"/>
</g>
<!-- &#45;18 -->
<g id="node18" class="node"><title>&#45;18</title>
<polygon fill="lightgray" stroke="black" points="1004.08,-122.075 975.077,-122.075 975.077,-104.075 1004.08,-104.075 1004.08,-122.075"/>
<text text-anchor="middle" x="989.577" y="-110.875" font-family="Times,serif" font-size="9.00">&#45;18</text>
</g>
<!-- &#45;18&#45;&gt;0 -->
<g id="edge52" class="edge"><title>&#45;18&#45;&gt;0</title>
<path fill="none" stroke="red" stroke-width="0.14447" stroke-dasharray="1,5" d="M984.42,-104.064C980.251,-98.1723 973.888,-90.3725 966.577,-85.4975 916.926,-52.3874 847.404,-36.2755 810.649,-29.6441"/>
<polygon fill="red" stroke="red" stroke-width="0.14447" points="810.8,-26.1191 800.353,-27.8822 809.619,-33.0188 810.8,-26.1191"/>
</g>
<!-- &#45;18&#45;&gt;2 -->
<g id="edge28" class="edge"><title>&#45;18&#45;&gt;2</title>
<path fill="none" stroke="green" stroke-width="0.290424" d="M995.695,-103.982C1000.22,-98.3492 1006.76,-90.908 1013.58,-85.4975 1040.48,-64.1477 1076.03,-46.1106 1098.86,-35.6071"/>
<polygon fill="green" stroke="green" stroke-width="0.290424" points="1100.4,-38.7496 1108.08,-31.4528 1097.53,-32.3667 1100.4,-38.7496"/>
</g>
<!-- &#45;18&#45;&gt;3 -->
<g id="edge40" class="edge"><title>&#45;18&#45;&gt;3</title>
<path fill="none" stroke="green" stroke-width="0.215841" d="M984.676,-103.635C980.642,-97.5184 974.334,-89.6252 966.577,-85.4975 924.846,-63.2912 592.783,-35.2812 498.474,-27.7098"/>
<polygon fill="green" stroke="green" stroke-width="0.215841" points="498.67,-24.2143 488.423,-26.9082 498.113,-31.1922 498.67,-24.2143"/>
</g>
<!-- &#45;19 -->
<g id="node19" class="node"><title>&#45;19</title>
<polygon fill="lightgray" stroke="black" points="742.077,-213.229 713.077,-213.229 713.077,-195.229 742.077,-195.229 742.077,-213.229"/>
<text text-anchor="middle" x="727.577" y="-202.029" font-family="Times,serif" font-size="9.00">&#45;19</text>
</g>
<!-- &#45;19&#45;&gt;0 -->
<g id="edge42" class="edge"><title>&#45;19&#45;&gt;0</title>
<path fill="none" stroke="green" stroke-width="0.519227" stroke-dasharray="1,5" d="M720.772,-195.075C705.135,-175.291 669.547,-123.568 690.577,-85.4975 705.61,-58.2845 738.81,-41.7829 761.69,-33.212"/>
<polygon fill="green" stroke="green" stroke-width="0.519227" points="763.092,-36.4295 771.374,-29.8221 760.779,-29.8226 763.092,-36.4295"/>
</g>
<!-- &#45;19&#45;&gt;2 -->
<g id="edge15" class="edge"><title>&#45;19&#45;&gt;2</title>
<path fill="none" stroke="green" stroke-width="0.451715" stroke-dasharray="1,5" d="M742.454,-201.002C816.916,-189.854 1145.58,-140.652 1145.58,-140.652 1168.46,-114.091 1149.75,-71.3431 1135.02,-46.1555"/>
<polygon fill="green" stroke="green" stroke-width="0.451715" points="1137.87,-44.1217 1129.66,-37.4323 1131.91,-47.7852 1137.87,-44.1217"/>
</g>
<!-- 12075 -->
<g id="node33" class="node"><title>12075</title>
<ellipse fill="white" stroke="black" cx="727.577" cy="-113.075" rx="27.6545" ry="27.6545"/>
<text text-anchor="middle" x="727.577" y="-110.875" font-family="Times,serif" font-size="9.00">12075</text>
</g>
<!-- &#45;19&#45;&gt;12075 -->
<g id="edge59" class="edge"><title>&#45;19&#45;&gt;12075</title>
<path fill="none" stroke="green" stroke-width="0.232501" d="M727.577,-195.001C727.577,-185.029 727.577,-167.548 727.577,-151.379"/>
<polygon fill="green" stroke="green" stroke-width="0.232501" points="731.077,-151.036 727.577,-141.036 724.077,-151.036 731.077,-151.036"/>
</g>
<!-- &#45;20 -->
<g id="node20" class="node"><title>&#45;20</title>
<polygon fill="lightgray" stroke="black" points="1417.08,-213.229 1388.08,-213.229 1388.08,-195.229 1417.08,-195.229 1417.08,-213.229"/>
<text text-anchor="middle" x="1402.58" y="-202.029" font-family="Times,serif" font-size="9.00">&#45;20</text>
</g>
<!-- &#45;20&#45;&gt;2 -->
<g id="edge1" class="edge"><title>&#45;20&#45;&gt;2</title>
<path fill="none" stroke="red" stroke-width="0.157124" stroke-dasharray="1,5" d="M1397.81,-195.035C1382.97,-169.599 1337.91,-93.2346 1327.58,-85.4975 1271.9,-43.7911 1187.79,-31.137 1146.39,-27.3434"/>
<polygon fill="red" stroke="red" stroke-width="0.157124" points="1146.61,-23.8503 1136.36,-26.5243 1146.04,-30.8271 1146.61,-23.8503"/>
</g>
<!-- 11465 -->
<g id="node30" class="node"><title>11465</title>
<ellipse fill="white" stroke="black" cx="1402.58" cy="-113.075" rx="27.6545" ry="27.6545"/>
<text text-anchor="middle" x="1402.58" y="-110.875" font-family="Times,serif" font-size="9.00">11465</text>
</g>
<!-- &#45;20&#45;&gt;11465 -->
<g id="edge29" class="edge"><title>&#45;20&#45;&gt;11465</title>
<path fill="none" stroke="green" stroke-width="0.300074" d="M1402.58,-195.001C1402.58,-185.029 1402.58,-167.548 1402.58,-151.379"/>
<polygon fill="green" stroke="green" stroke-width="0.300074" points="1406.08,-151.036 1402.58,-141.036 1399.08,-151.036 1406.08,-151.036"/>
</g>
<!-- 6941 -->
<g id="node35" class="node"><title>6941</title>
<ellipse fill="white" stroke="black" cx="1430.58" cy="-24.7487" rx="25" ry="25"/>
<text text-anchor="middle" x="1430.58" y="-22.5487" font-family="Times,serif" font-size="9.00">6941</text>
</g>
<!-- &#45;20&#45;&gt;6941 -->
<g id="edge27" class="edge"><title>&#45;20&#45;&gt;6941</title>
<path fill="none" stroke="red" stroke-width="0.337406" stroke-dasharray="1,5" d="M1409.44,-194.992C1418.43,-183.621 1433.72,-162.078 1439.58,-140.652 1446.9,-113.872 1443.64,-82.3679 1439.12,-59.127"/>
<polygon fill="red" stroke="red" stroke-width="0.337406" points="1442.49,-58.1323 1436.99,-49.0769 1435.64,-59.5857 1442.49,-58.1323"/>
</g>
<!-- &#45;21 -->
<g id="node21" class="node"><title>&#45;21</title>
<polygon fill="lightgray" stroke="black" points="1136.08,-122.075 1107.08,-122.075 1107.08,-104.075 1136.08,-104.075 1136.08,-122.075"/>
<text text-anchor="middle" x="1121.58" y="-110.875" font-family="Times,serif" font-size="9.00">&#45;21</text>
</g>
<!-- &#45;21&#45;&gt;0 -->
<g id="edge22" class="edge"><title>&#45;21&#45;&gt;0</title>
<path fill="none" stroke="green" stroke-width="2.69869" d="M1116.29,-103.787C1112,-97.7496 1105.38,-89.8894 1097.58,-85.4975 1002.04,-31.7087 866.726,-25.4294 811.033,-25.3085"/>
<polygon fill="green" stroke="green" stroke-width="2.69869" points="810.678,-21.8101 800.695,-25.3577 810.712,-28.81 810.678,-21.8101"/>
</g>
<!-- &#45;21&#45;&gt;2 -->
<g id="edge45" class="edge"><title>&#45;21&#45;&gt;2</title>
<path fill="none" stroke="green" stroke-width="0.252525" stroke-dasharray="1,5" d="M1121.58,-103.797C1121.58,-91.5081 1121.58,-67.9496 1121.58,-49.9167"/>
<polygon fill="green" stroke="green" stroke-width="0.252525" points="1125.08,-49.8091 1121.58,-39.8091 1118.08,-49.8091 1125.08,-49.8091"/>
</g>
<!-- &#45;22 -->
<g id="node22" class="node"><title>&#45;22</title>
<polygon fill="lightgray" stroke="black" points="511.077,-122.075 482.077,-122.075 482.077,-104.075 511.077,-104.075 511.077,-122.075"/>
<text text-anchor="middle" x="496.577" y="-110.875" font-family="Times,serif" font-size="9.00">&#45;22</text>
</g>
<!-- &#45;22&#45;&gt;1 -->
<g id="edge25" class="edge"><title>&#45;22&#45;&gt;1</title>
<path fill="none" stroke="green" stroke-width="0.271178" stroke-dasharray="1,5" d="M491.14,-104.044C486.761,-98.142 480.108,-90.3379 472.577,-85.4975 419.881,-51.6277 346.565,-35.7155 308.597,-29.3478"/>
<polygon fill="green" stroke="green" stroke-width="0.271178" points="308.866,-25.8466 298.441,-27.733 307.767,-32.7598 308.866,-25.8466"/>
</g>
<!-- &#45;22&#45;&gt;2 -->
<g id="edge43" class="edge"><title>&#45;22&#45;&gt;2</title>
<path fill="none" stroke="red" stroke-width="0.224656" stroke-dasharray="1,5" d="M501.452,-103.586C505.474,-97.4446 511.776,-89.5409 519.577,-85.4975 545.665,-71.9765 986.276,-36.4285 1096.66,-27.7035"/>
<polygon fill="red" stroke="red" stroke-width="0.224656" points="1097.14,-31.1766 1106.83,-26.9014 1096.59,-24.1983 1097.14,-31.1766"/>
</g>
<!-- &#45;22&#45;&gt;3 -->
<g id="edge57" class="edge"><title>&#45;22&#45;&gt;3</title>
<path fill="none" stroke="red" stroke-width="0.180392" d="M494.372,-103.797C491.045,-91.3093 484.617,-67.1844 479.784,-49.0459"/>
<polygon fill="red" stroke="red" stroke-width="0.180392" points="483.115,-47.9531 477.159,-39.1913 476.351,-49.7553 483.115,-47.9531"/>
</g>
<!-- &#45;23 -->
<g id="node23" class="node"><title>&#45;23</title>
<polygon fill="lightgray" stroke="black" points="1303.08,-213.229 1274.08,-213.229 1274.08,-195.229 1303.08,-195.229 1303.08,-213.229"/>
<text text-anchor="middle" x="1288.58" y="-202.029" font-family="Times,serif" font-size="9.00">&#45;23</text>
</g>
<!-- &#45;23&#45;&gt;9899 -->
<g id="edge50" class="edge"><title>&#45;23&#45;&gt;9899</title>
<path fill="none" stroke="red" stroke-width="0.282223" stroke-dasharray="1,5" d="M1289.04,-195.001C1289.64,-184.363 1290.71,-165.179 1291.67,-148.159"/>
<polygon fill="red" stroke="red" stroke-width="0.282223" points="1295.17,-148.117 1292.24,-137.937 1288.18,-147.725 1295.17,-148.117"/>
</g>
<!-- &#45;24 -->
<g id="node24" class="node"><title>&#45;24</title>
<polygon fill="lightgray" stroke="black" points="1516.08,-122.075 1487.08,-122.075 1487.08,-104.075 1516.08,-104.075 1516.08,-122.075"/>
<text text-anchor="middle" x="1501.58" y="-110.875" font-family="Times,serif" font-size="9.00">&#45;24</text>
</g>
<!-- &#45;24&#45;&gt;6941 -->
<g id="edge55" class="edge"><title>&#45;24&#45;&gt;6941</title>
<path fill="none" stroke="red" stroke-width="0.670254" d="M1494.77,-103.797C1485.08,-92.0135 1466.86,-69.8683 1452.31,-52.1685"/>
<polygon fill="red" stroke="red" stroke-width="0.670254" points="1454.97,-49.9022 1445.92,-44.4021 1449.57,-54.3487 1454.97,-49.9022"/>
</g>
<!-- 1&#45;&gt;1 -->
<g id="edge30" class="edge"><title>1&#45;&gt;1</title>
<path fill="none" stroke="green" stroke-width="0.659215" d="M292.658,-36.592C303.589,-45.5402 316.426,-41.5925 316.426,-24.7487 316.426,-12.5107 309.65,-7.08037 301.751,-8.45775"/>
<polygon fill="green" stroke="green" stroke-width="0.659215" points="300.103,-5.36758 292.658,-12.9055 303.179,-11.6557 300.103,-5.36758"/>
</g>
<!-- 2&#45;&gt;2 -->
<g id="edge26" class="edge"><title>2&#45;&gt;2</title>
<path fill="none" stroke="green" stroke-width="0.195959" d="M1130.66,-36.592C1141.59,-45.5402 1154.43,-41.5925 1154.43,-24.7487 1154.43,-12.5107 1147.65,-7.08037 1139.75,-8.45775"/>
<polygon fill="green" stroke="green" stroke-width="0.195959" points="1138.1,-5.36758 1130.66,-12.9055 1141.18,-11.6557 1138.1,-5.36758"/>
</g>
<!-- 3&#45;&gt;3 -->
<g id="edge16" class="edge"><title>3&#45;&gt;3</title>
<path fill="none" stroke="red" stroke-width="0.124515" d="M482.658,-36.592C493.589,-45.5402 506.426,-41.5925 506.426,-24.7487 506.426,-12.5107 499.65,-7.08037 491.751,-8.45775"/>
<polygon fill="red" stroke="red" stroke-width="0.124515" points="490.103,-5.36758 482.658,-12.9055 493.179,-11.6557 490.103,-5.36758"/>
</g>
<!-- 10337&#45;&gt;1 -->
<g id="edge10" class="edge"><title>10337&#45;&gt;1</title>
<path fill="none" stroke="green" stroke-width="0.587767" d="M48.445,-94.6718C53.2108,-91.2778 58.4021,-88.0009 63.5772,-85.4975 130.296,-53.2219 217.127,-36.1943 258.944,-29.3773"/>
<polygon fill="green" stroke="green" stroke-width="0.587767" points="259.695,-32.8023 269.03,-27.7908 258.607,-25.8873 259.695,-32.8023"/>
</g>
<!-- 11465&#45;&gt;6941 -->
<g id="edge35" class="edge"><title>11465&#45;&gt;6941</title>
<path fill="none" stroke="red" stroke-width="0.169443" stroke-dasharray="1,5" d="M1410.83,-86.6409C1413.69,-77.8022 1416.95,-67.7629 1419.98,-58.4215"/>
<polygon fill="red" stroke="red" stroke-width="0.169443" points="1423.39,-59.2408 1423.15,-48.6488 1416.73,-57.0811 1423.39,-59.2408"/>
</g>
<!-- 10026&#45;&gt;1 -->
<g id="edge53" class="edge"><title>10026&#45;&gt;1</title>
<path fill="none" stroke="green" stroke-width="0.438548" d="M311.955,-177.495C308.787,-166.248 305.238,-152.861 302.577,-140.652 295.776,-109.442 290.133,-72.9937 286.809,-49.6582"/>
<polygon fill="green" stroke="green" stroke-width="0.438548" points="290.258,-49.0505 285.409,-39.6307 283.326,-50.0186 290.258,-49.0505"/>
</g>
<!-- 4017 -->
<g id="node34" class="node"><title>4017</title>
<ellipse fill="white" stroke="black" cx="230.577" cy="-113.075" rx="25" ry="25"/>
<text text-anchor="middle" x="230.577" y="-110.875" font-family="Times,serif" font-size="9.00">4017</text>
</g>
<!-- 10026&#45;&gt;4017 -->
<g id="edge3" class="edge"><title>10026&#45;&gt;4017</title>
<path fill="none" stroke="green" stroke-width="0.370625" d="M300.265,-183.884C286.944,-170.539 269.131,-152.695 254.85,-138.389"/>
<polygon fill="green" stroke="green" stroke-width="0.370625" points="257.287,-135.877 247.745,-131.273 252.333,-140.823 257.287,-135.877"/>
</g>
<!-- 9899&#45;&gt;2 -->
<g id="edge19" class="edge"><title>9899&#45;&gt;2</title>
<path fill="none" stroke="green" stroke-width="0.582825" d="M1273.77,-97.5849C1267.74,-93.4526 1261.01,-89.0987 1254.58,-85.4975 1217.36,-64.6708 1171.53,-45.3789 1144.54,-34.6218"/>
<polygon fill="green" stroke="green" stroke-width="0.582825" points="1145.76,-31.3416 1135.17,-30.9316 1143.19,-37.8542 1145.76,-31.3416"/>
</g>
<!-- 9899&#45;&gt;6941 -->
<g id="edge6" class="edge"><title>9899&#45;&gt;6941</title>
<path fill="none" stroke="red" stroke-width="0.874576" d="M1314.09,-99.1508C1337.19,-84.593 1374.93,-60.8125 1401.17,-44.2796"/>
<polygon fill="red" stroke="red" stroke-width="0.874576" points="1403.33,-47.0532 1409.93,-38.7609 1399.6,-41.1309 1403.33,-47.0532"/>
</g>
<!-- 12075&#45;&gt;0 -->
<g id="edge49" class="edge"><title>12075&#45;&gt;0</title>
<path fill="none" stroke="red" stroke-width="0.380934" d="M742.514,-89.8436C751.568,-76.3678 763.035,-59.3004 771.859,-46.1664"/>
<polygon fill="red" stroke="red" stroke-width="0.380934" points="774.812,-48.047 777.484,-37.7946 769.002,-44.1432 774.812,-48.047"/>
</g>
<!-- 4017&#45;&gt;1 -->
<g id="edge47" class="edge"><title>4017&#45;&gt;1</title>
<path fill="none" stroke="green" stroke-width="0.52489" stroke-dasharray="1,5" d="M243.137,-91.6166C251.494,-78.0051 262.437,-60.1824 270.831,-46.5092"/>
<polygon fill="green" stroke="green" stroke-width="0.52489" points="273.923,-48.1621 276.173,-37.8088 267.958,-44.4995 273.923,-48.1621"/>
</g>
<!-- 11966&#45;&gt;0 -->
<g id="edge32" class="edge"><title>11966&#45;&gt;0</title>
<path fill="none" stroke="red" stroke-width="0.176591" d="M906.559,-97.3099C900.418,-93.4252 893.768,-89.2677 887.577,-85.4975 860.038,-68.725 827.882,-50.0345 807.149,-38.0981"/>
<polygon fill="red" stroke="red" stroke-width="0.176591" points="808.636,-34.9161 798.222,-32.9696 805.149,-40.9858 808.636,-34.9161"/>
</g>
</g>
</svg>
