<?xml version="1.0" encoding="UTF-8" standalone="no"?>
<!DOCTYPE svg PUBLIC "-//W3C//DTD SVG 1.1//EN"
 "http://www.w3.org/Graphics/SVG/1.1/DTD/svg11.dtd">
<!-- Generated by graphviz version 2.38.0 (20140413.2041)
 -->
<!-- Title: %3 Pages: 1 -->
<svg width="1243pt" height="858pt"
 viewBox="0.00 0.00 1243.33 858.09" xmlns="http://www.w3.org/2000/svg" xmlns:xlink="http://www.w3.org/1999/xlink">
<g id="graph0" class="graph" transform="scale(1 1) rotate(0) translate(4 854.087)">
<title>%3</title>
<polygon fill="white" stroke="none" points="-4,4 -4,-854.087 1239.33,-854.087 1239.33,4 -4,4"/>
<!-- &#45;1 -->
<g id="node1" class="node"><title>&#45;1</title>
<polygon fill="lightgray" stroke="black" points="321.749,-466.893 297.749,-466.893 297.749,-448.893 321.749,-448.893 321.749,-466.893"/>
<text text-anchor="middle" x="309.749" y="-455.693" font-family="Times,serif" font-size="9.00">&#45;1</text>
</g>
<!-- 9931 -->
<g id="node44" class="node"><title>9931</title>
<ellipse fill="white" stroke="black" cx="289.749" cy="-366.739" rx="25" ry="25"/>
<text text-anchor="middle" x="289.749" y="-364.539" font-family="Times,serif" font-size="9.00">9931</text>
</g>
<!-- &#45;1&#45;&gt;9931 -->
<g id="edge7" class="edge"><title>&#45;1&#45;&gt;9931</title>
<path fill="none" stroke="red" stroke-width="0.655742" d="M307.903,-448.665C305.478,-437.855 301.073,-418.219 297.21,-400.997"/>
<polygon fill="red" stroke="red" stroke-width="0.655742" points="300.621,-400.213 295.017,-391.221 293.79,-401.745 300.621,-400.213"/>
</g>
<!-- &#45;2 -->
<g id="node2" class="node"><title>&#45;2</title>
<polygon fill="lightgray" stroke="black" points="738.749,-831.51 714.749,-831.51 714.749,-813.51 738.749,-813.51 738.749,-831.51"/>
<text text-anchor="middle" x="726.749" y="-820.31" font-family="Times,serif" font-size="9.00">&#45;2</text>
</g>
<!-- &#45;3 -->
<g id="node3" class="node"><title>&#45;3</title>
<polygon fill="lightgray" stroke="black" points="36.7487,-466.893 12.7487,-466.893 12.7487,-448.893 36.7487,-448.893 36.7487,-466.893"/>
<text text-anchor="middle" x="24.7487" y="-455.693" font-family="Times,serif" font-size="9.00">&#45;3</text>
</g>
<!-- 2197 -->
<g id="node36" class="node"><title>2197</title>
<ellipse fill="white" stroke="black" cx="24.7487" cy="-366.739" rx="25" ry="25"/>
<text text-anchor="middle" x="24.7487" y="-364.539" font-family="Times,serif" font-size="9.00">2197</text>
</g>
<!-- &#45;3&#45;&gt;2197 -->
<g id="edge25" class="edge"><title>&#45;3&#45;&gt;2197</title>
<path fill="none" stroke="green" stroke-width="0.622439" d="M24.7487,-448.665C24.7487,-438.027 24.7487,-418.843 24.7487,-401.823"/>
<polygon fill="green" stroke="green" stroke-width="0.622439" points="28.2488,-401.601 24.7487,-391.601 21.2488,-401.601 28.2488,-401.601"/>
</g>
<!-- &#45;4 -->
<g id="node4" class="node"><title>&#45;4</title>
<polygon fill="lightgray" stroke="black" points="279.749,-466.893 255.749,-466.893 255.749,-448.893 279.749,-448.893 279.749,-466.893"/>
<text text-anchor="middle" x="267.749" y="-455.693" font-family="Times,serif" font-size="9.00">&#45;4</text>
</g>
<!-- &#45;4&#45;&gt;9931 -->
<g id="edge3" class="edge"><title>&#45;4&#45;&gt;9931</title>
<path fill="none" stroke="red" stroke-width="0.171648" d="M269.779,-448.665C272.464,-437.783 277.357,-417.957 281.627,-400.653"/>
<polygon fill="red" stroke="red" stroke-width="0.171648" points="285.05,-401.39 284.047,-390.843 278.254,-399.713 285.05,-401.39"/>
</g>
<!-- &#45;5 -->
<g id="node5" class="node"><title>&#45;5</title>
<polygon fill="lightgray" stroke="black" points="587.749,-831.51 563.749,-831.51 563.749,-813.51 587.749,-813.51 587.749,-831.51"/>
<text text-anchor="middle" x="575.749" y="-820.31" font-family="Times,serif" font-size="9.00">&#45;5</text>
</g>
<!-- 2 -->
<g id="node27" class="node"><title>2</title>
<ellipse fill="lightblue" stroke="black" cx="574.749" cy="-731.356" rx="14.7" ry="14.7"/>
<text text-anchor="middle" x="574.749" y="-729.156" font-family="Times,serif" font-size="9.00">2</text>
</g>
<!-- &#45;5&#45;&gt;2 -->
<g id="edge52" class="edge"><title>&#45;5&#45;&gt;2</title>
<path fill="none" stroke="red" stroke-width="0.89235" d="M575.656,-813.283C575.513,-800.526 575.232,-775.482 575.021,-756.615"/>
<polygon fill="red" stroke="red" stroke-width="0.89235" points="578.518,-756.32 574.906,-746.36 571.518,-756.399 578.518,-756.32"/>
</g>
<!-- &#45;6 -->
<g id="node6" class="node"><title>&#45;6</title>
<polygon fill="lightgray" stroke="black" points="281.749,-284.584 257.749,-284.584 257.749,-266.584 281.749,-266.584 281.749,-284.584"/>
<text text-anchor="middle" x="269.749" y="-273.384" font-family="Times,serif" font-size="9.00">&#45;6</text>
</g>
<!-- 4505 -->
<g id="node37" class="node"><title>4505</title>
<ellipse fill="white" stroke="black" cx="324.749" cy="-184.43" rx="25" ry="25"/>
<text text-anchor="middle" x="324.749" y="-182.23" font-family="Times,serif" font-size="9.00">4505</text>
</g>
<!-- &#45;6&#45;&gt;4505 -->
<g id="edge55" class="edge"><title>&#45;6&#45;&gt;4505</title>
<path fill="none" stroke="red" stroke-width="0.308188" d="M274.824,-266.357C282.046,-254.65 295.652,-232.596 306.838,-214.463"/>
<polygon fill="red" stroke="red" stroke-width="0.308188" points="309.824,-216.288 312.096,-205.94 303.867,-212.613 309.824,-216.288"/>
</g>
<!-- &#45;7 -->
<g id="node7" class="node"><title>&#45;7</title>
<polygon fill="lightgray" stroke="black" points="402.749,-740.356 378.749,-740.356 378.749,-722.356 402.749,-722.356 402.749,-740.356"/>
<text text-anchor="middle" x="390.749" y="-729.156" font-family="Times,serif" font-size="9.00">&#45;7</text>
</g>
<!-- &#45;7&#45;&gt;4505 -->
<g id="edge21" class="edge"><title>&#45;7&#45;&gt;4505</title>
<path fill="none" stroke="red" stroke-width="0.788236" d="M386.232,-722.274C382.527,-716.345 376.759,-708.53 369.749,-703.779 323.303,-672.301 291.745,-703.826 248.749,-667.779 203.898,-630.177 189.749,-608.575 189.749,-550.047 189.749,-550.047 189.749,-550.047 189.749,-365.739 189.749,-295.39 256.412,-234.874 296.049,-205.11"/>
<polygon fill="red" stroke="red" stroke-width="0.788236" points="298.538,-207.625 304.538,-198.893 294.402,-201.978 298.538,-207.625"/>
</g>
<!-- 16194 -->
<g id="node43" class="node"><title>16194</title>
<ellipse fill="white" stroke="black" cx="424.749" cy="-549.047" rx="27.6545" ry="27.6545"/>
<text text-anchor="middle" x="424.749" y="-546.847" font-family="Times,serif" font-size="9.00">16194</text>
</g>
<!-- &#45;7&#45;&gt;16194 -->
<g id="edge27" class="edge"><title>&#45;7&#45;&gt;16194</title>
<path fill="none" stroke="red" stroke-width="0.740649" d="M389.642,-722.198C387.281,-702.828 382.739,-652.687 392.749,-612.624 395.416,-601.949 400.175,-591.029 405.221,-581.362"/>
<polygon fill="red" stroke="red" stroke-width="0.740649" points="408.329,-582.975 410.088,-572.527 402.198,-579.597 408.329,-582.975"/>
</g>
<!-- 12626 -->
<g id="node48" class="node"><title>12626</title>
<ellipse fill="white" stroke="black" cx="497.749" cy="-549.047" rx="27.6545" ry="27.6545"/>
<text text-anchor="middle" x="497.749" y="-546.847" font-family="Times,serif" font-size="9.00">12626</text>
</g>
<!-- &#45;7&#45;&gt;12626 -->
<g id="edge49" class="edge"><title>&#45;7&#45;&gt;12626</title>
<path fill="none" stroke="green" stroke-width="0.205678" d="M391.579,-722.284C393.955,-702.243 402.197,-649.197 425.749,-612.624 431.721,-603.351 450.971,-586.786 468.065,-573.028"/>
<polygon fill="green" stroke="green" stroke-width="0.205678" points="470.569,-575.508 476.215,-566.544 466.211,-570.03 470.569,-575.508"/>
</g>
<!-- 5851 -->
<g id="node49" class="node"><title>5851</title>
<ellipse fill="white" stroke="black" cx="242.749" cy="-549.047" rx="25" ry="25"/>
<text text-anchor="middle" x="242.749" y="-546.847" font-family="Times,serif" font-size="9.00">5851</text>
</g>
<!-- &#45;7&#45;&gt;5851 -->
<g id="edge24" class="edge"><title>&#45;7&#45;&gt;5851</title>
<path fill="none" stroke="green" stroke-width="0.883267" d="M385.773,-721.98C381.99,-716.214 376.327,-708.73 369.749,-703.779 335.986,-678.367 310.589,-698.664 281.749,-667.779 260.308,-644.818 250.639,-609.789 246.288,-583.905"/>
<polygon fill="green" stroke="green" stroke-width="0.883267" points="249.715,-583.156 244.775,-573.783 242.791,-584.191 249.715,-583.156"/>
</g>
<!-- 19166 -->
<g id="node50" class="node"><title>19166</title>
<ellipse fill="white" stroke="black" cx="462.749" cy="-640.202" rx="27.6545" ry="27.6545"/>
<text text-anchor="middle" x="462.749" y="-638.002" font-family="Times,serif" font-size="9.00">19166</text>
</g>
<!-- &#45;7&#45;&gt;19166 -->
<g id="edge33" class="edge"><title>&#45;7&#45;&gt;19166</title>
<path fill="none" stroke="red" stroke-width="0.493524" d="M397.393,-722.128C406.873,-710.39 424.755,-688.248 439.42,-670.088"/>
<polygon fill="red" stroke="red" stroke-width="0.493524" points="442.331,-672.055 445.891,-662.076 436.885,-667.657 442.331,-672.055"/>
</g>
<!-- &#45;8 -->
<g id="node8" class="node"><title>&#45;8</title>
<polygon fill="lightgray" stroke="black" points="89.7487,-466.893 65.7487,-466.893 65.7487,-448.893 89.7487,-448.893 89.7487,-466.893"/>
<text text-anchor="middle" x="77.7487" y="-455.693" font-family="Times,serif" font-size="9.00">&#45;8</text>
</g>
<!-- 1 -->
<g id="node26" class="node"><title>1</title>
<ellipse fill="lightblue" stroke="black" cx="77.7487" cy="-14.8492" rx="14.7" ry="14.7"/>
<text text-anchor="middle" x="77.7487" y="-12.6492" font-family="Times,serif" font-size="9.00">1</text>
</g>
<!-- &#45;8&#45;&gt;1 -->
<g id="edge9" class="edge"><title>&#45;8&#45;&gt;1</title>
<path fill="none" stroke="green" stroke-width="1.0012" d="M77.7487,-448.626C77.7487,-423.051 77.7487,-342.948 77.7487,-276.584 77.7487,-276.584 77.7487,-276.584 77.7487,-183.43 77.7487,-132.42 77.7487,-72.6766 77.7487,-40.0888"/>
<polygon fill="green" stroke="green" stroke-width="1.0012" points="81.2488,-39.7533 77.7487,-29.7534 74.2488,-39.7534 81.2488,-39.7533"/>
</g>
<!-- &#45;8&#45;&gt;2197 -->
<g id="edge45" class="edge"><title>&#45;8&#45;&gt;2197</title>
<path fill="none" stroke="green" stroke-width="0.231879" d="M72.8576,-448.665C66.0054,-437.139 53.189,-415.58 42.5068,-397.61"/>
<polygon fill="green" stroke="green" stroke-width="0.231879" points="45.2767,-395.421 37.1581,-388.613 39.2597,-398.998 45.2767,-395.421"/>
</g>
<!-- 16590 -->
<g id="node45" class="node"><title>16590</title>
<ellipse fill="white" stroke="black" cx="133.749" cy="-366.739" rx="27.6545" ry="27.6545"/>
<text text-anchor="middle" x="133.749" y="-364.539" font-family="Times,serif" font-size="9.00">16590</text>
</g>
<!-- &#45;8&#45;&gt;16590 -->
<g id="edge40" class="edge"><title>&#45;8&#45;&gt;16590</title>
<path fill="none" stroke="green" stroke-width="1.25129" d="M82.9167,-448.665C89.9262,-437.506 102.843,-416.943 113.901,-399.338"/>
<polygon fill="green" stroke="green" stroke-width="1.25129" points="117.117,-400.796 119.473,-390.467 111.19,-397.073 117.117,-400.796"/>
</g>
<!-- &#45;9 -->
<g id="node9" class="node"><title>&#45;9</title>
<polygon fill="lightgray" stroke="black" points="788.749,-375.739 764.749,-375.739 764.749,-357.739 788.749,-357.739 788.749,-375.739"/>
<text text-anchor="middle" x="776.749" y="-364.539" font-family="Times,serif" font-size="9.00">&#45;9</text>
</g>
<!-- 13193 -->
<g id="node30" class="node"><title>13193</title>
<ellipse fill="white" stroke="black" cx="831.749" cy="-275.584" rx="27.6545" ry="27.6545"/>
<text text-anchor="middle" x="831.749" y="-273.384" font-family="Times,serif" font-size="9.00">13193</text>
</g>
<!-- &#45;9&#45;&gt;13193 -->
<g id="edge39" class="edge"><title>&#45;9&#45;&gt;13193</title>
<path fill="none" stroke="red" stroke-width="0.373668" d="M781.824,-357.511C788.663,-346.425 801.228,-326.058 812.04,-308.531"/>
<polygon fill="red" stroke="red" stroke-width="0.373668" points="815.224,-310.037 817.495,-299.689 809.266,-306.362 815.224,-310.037"/>
</g>
<!-- 6074 -->
<g id="node42" class="node"><title>6074</title>
<ellipse fill="white" stroke="black" cx="432.749" cy="-275.584" rx="25" ry="25"/>
<text text-anchor="middle" x="432.749" y="-273.384" font-family="Times,serif" font-size="9.00">6074</text>
</g>
<!-- &#45;9&#45;&gt;6074 -->
<g id="edge44" class="edge"><title>&#45;9&#45;&gt;6074</title>
<path fill="none" stroke="green" stroke-width="0.16315" d="M764.506,-362.566C716.609,-350.152 540.916,-304.618 466.457,-285.32"/>
<polygon fill="green" stroke="green" stroke-width="0.16315" points="467.204,-281.899 456.646,-282.778 465.448,-288.675 467.204,-281.899"/>
</g>
<!-- &#45;10 -->
<g id="node10" class="node"><title>&#45;10</title>
<polygon fill="lightgray" stroke="black" points="786.249,-831.51 757.249,-831.51 757.249,-813.51 786.249,-813.51 786.249,-831.51"/>
<text text-anchor="middle" x="771.749" y="-820.31" font-family="Times,serif" font-size="9.00">&#45;10</text>
</g>
<!-- &#45;11 -->
<g id="node11" class="node"><title>&#45;11</title>
<polygon fill="lightgray" stroke="black" points="739.249,-284.584 710.249,-284.584 710.249,-266.584 739.249,-266.584 739.249,-284.584"/>
<text text-anchor="middle" x="724.749" y="-273.384" font-family="Times,serif" font-size="9.00">&#45;11</text>
</g>
<!-- 15758 -->
<g id="node33" class="node"><title>15758</title>
<ellipse fill="white" stroke="black" cx="757.749" cy="-184.43" rx="27.6545" ry="27.6545"/>
<text text-anchor="middle" x="757.749" y="-182.23" font-family="Times,serif" font-size="9.00">15758</text>
</g>
<!-- &#45;11&#45;&gt;15758 -->
<g id="edge47" class="edge"><title>&#45;11&#45;&gt;15758</title>
<path fill="none" stroke="red" stroke-width="0.872903" d="M727.794,-266.357C731.689,-255.834 738.678,-236.952 744.926,-220.071"/>
<polygon fill="red" stroke="red" stroke-width="0.872903" points="748.302,-221.035 748.491,-210.442 741.737,-218.606 748.302,-221.035"/>
</g>
<!-- &#45;12 -->
<g id="node12" class="node"><title>&#45;12</title>
<polygon fill="lightgray" stroke="black" points="833.249,-831.51 804.249,-831.51 804.249,-813.51 833.249,-813.51 833.249,-831.51"/>
<text text-anchor="middle" x="818.749" y="-820.31" font-family="Times,serif" font-size="9.00">&#45;12</text>
</g>
<!-- &#45;13 -->
<g id="node13" class="node"><title>&#45;13</title>
<polygon fill="lightgray" stroke="black" points="880.249,-831.51 851.249,-831.51 851.249,-813.51 880.249,-813.51 880.249,-831.51"/>
<text text-anchor="middle" x="865.749" y="-820.31" font-family="Times,serif" font-size="9.00">&#45;13</text>
</g>
<!-- &#45;14 -->
<g id="node14" class="node"><title>&#45;14</title>
<polygon fill="lightgray" stroke="black" points="545.249,-831.51 516.249,-831.51 516.249,-813.51 545.249,-813.51 545.249,-831.51"/>
<text text-anchor="middle" x="530.749" y="-820.31" font-family="Times,serif" font-size="9.00">&#45;14</text>
</g>
<!-- 18570 -->
<g id="node31" class="node"><title>18570</title>
<ellipse fill="white" stroke="black" cx="681.749" cy="-731.356" rx="27.6545" ry="27.6545"/>
<text text-anchor="middle" x="681.749" y="-729.156" font-family="Times,serif" font-size="9.00">18570</text>
</g>
<!-- &#45;14&#45;&gt;18570 -->
<g id="edge53" class="edge"><title>&#45;14&#45;&gt;18570</title>
<path fill="none" stroke="red" stroke-width="0.623681" d="M536.667,-813.149C541.099,-807.39 547.607,-799.908 554.749,-794.933 590.1,-770.309 606.977,-779.652 644.749,-758.933 647.054,-757.668 649.385,-756.284 651.696,-754.832"/>
<polygon fill="red" stroke="red" stroke-width="0.623681" points="654.041,-757.475 660.412,-749.009 650.152,-751.654 654.041,-757.475"/>
</g>
<!-- 12003 -->
<g id="node51" class="node"><title>12003</title>
<ellipse fill="white" stroke="black" cx="332.749" cy="-731.356" rx="27.6545" ry="27.6545"/>
<text text-anchor="middle" x="332.749" y="-729.156" font-family="Times,serif" font-size="9.00">12003</text>
</g>
<!-- &#45;14&#45;&gt;12003 -->
<g id="edge14" class="edge"><title>&#45;14&#45;&gt;12003</title>
<path fill="none" stroke="green" stroke-width="0.355179" d="M515.992,-817.156C486.981,-808.301 420.893,-786.662 369.749,-758.933 367.437,-757.68 365.101,-756.304 362.787,-754.858"/>
<polygon fill="green" stroke="green" stroke-width="0.355179" points="364.328,-751.678 354.065,-749.048 360.447,-757.504 364.328,-751.678"/>
</g>
<!-- 10861 -->
<g id="node55" class="node"><title>10861</title>
<ellipse fill="white" stroke="black" cx="574.749" cy="-640.202" rx="27.6545" ry="27.6545"/>
<text text-anchor="middle" x="574.749" y="-638.002" font-family="Times,serif" font-size="9.00">10861</text>
</g>
<!-- &#45;14&#45;&gt;10861 -->
<g id="edge2" class="edge"><title>&#45;14&#45;&gt;10861</title>
<path fill="none" stroke="red" stroke-width="0.247912" d="M531.567,-813.397C533.631,-794.121 539.689,-744.171 550.749,-703.779 553.321,-694.383 556.778,-684.441 560.265,-675.313"/>
<polygon fill="red" stroke="red" stroke-width="0.247912" points="563.607,-676.381 564.021,-665.794 557.095,-673.811 563.607,-676.381"/>
</g>
<!-- &#45;15 -->
<g id="node15" class="node"><title>&#45;15</title>
<polygon fill="lightgray" stroke="black" points="319.249,-831.51 290.249,-831.51 290.249,-813.51 319.249,-813.51 319.249,-831.51"/>
<text text-anchor="middle" x="304.749" y="-820.31" font-family="Times,serif" font-size="9.00">&#45;15</text>
</g>
<!-- &#45;15&#45;&gt;12003 -->
<g id="edge42" class="edge"><title>&#45;15&#45;&gt;12003</title>
<path fill="none" stroke="red" stroke-width="0.214189" d="M307.333,-813.283C310.615,-802.833 316.487,-784.136 321.76,-767.344"/>
<polygon fill="red" stroke="red" stroke-width="0.214189" points="325.115,-768.344 324.772,-757.755 318.436,-766.247 325.115,-768.344"/>
</g>
<!-- 9704 -->
<g id="node52" class="node"><title>9704</title>
<ellipse fill="white" stroke="black" cx="315.749" cy="-640.202" rx="25" ry="25"/>
<text text-anchor="middle" x="315.749" y="-638.002" font-family="Times,serif" font-size="9.00">9704</text>
</g>
<!-- &#45;15&#45;&gt;9704 -->
<g id="edge32" class="edge"><title>&#45;15&#45;&gt;9704</title>
<path fill="none" stroke="red" stroke-width="1.07654" d="M302.865,-813.466C298.661,-794.341 289.37,-744.693 295.749,-703.779 297.34,-693.575 300.307,-682.76 303.479,-673.044"/>
<polygon fill="red" stroke="red" stroke-width="1.07654" points="306.857,-673.983 306.808,-663.388 300.24,-671.701 306.857,-673.983"/>
</g>
<!-- &#45;16 -->
<g id="node16" class="node"><title>&#45;16</title>
<polygon fill="lightgray" stroke="black" points="927.249,-831.51 898.249,-831.51 898.249,-813.51 927.249,-813.51 927.249,-831.51"/>
<text text-anchor="middle" x="912.749" y="-820.31" font-family="Times,serif" font-size="9.00">&#45;16</text>
</g>
<!-- &#45;17 -->
<g id="node17" class="node"><title>&#45;17</title>
<polygon fill="lightgray" stroke="black" points="974.249,-831.51 945.249,-831.51 945.249,-813.51 974.249,-813.51 974.249,-831.51"/>
<text text-anchor="middle" x="959.749" y="-820.31" font-family="Times,serif" font-size="9.00">&#45;17</text>
</g>
<!-- &#45;18 -->
<g id="node18" class="node"><title>&#45;18</title>
<polygon fill="lightgray" stroke="black" points="1021.25,-831.51 992.249,-831.51 992.249,-813.51 1021.25,-813.51 1021.25,-831.51"/>
<text text-anchor="middle" x="1006.75" y="-820.31" font-family="Times,serif" font-size="9.00">&#45;18</text>
</g>
<!-- &#45;19 -->
<g id="node19" class="node"><title>&#45;19</title>
<polygon fill="lightgray" stroke="black" points="786.249,-284.584 757.249,-284.584 757.249,-266.584 786.249,-266.584 786.249,-284.584"/>
<text text-anchor="middle" x="771.749" y="-273.384" font-family="Times,serif" font-size="9.00">&#45;19</text>
</g>
<!-- &#45;19&#45;&gt;15758 -->
<g id="edge23" class="edge"><title>&#45;19&#45;&gt;15758</title>
<path fill="none" stroke="red" stroke-width="0.791484" d="M770.457,-266.357C768.865,-256.218 766.054,-238.318 763.48,-221.927"/>
<polygon fill="red" stroke="red" stroke-width="0.791484" points="766.93,-221.334 761.921,-211.998 760.015,-222.42 766.93,-221.334"/>
</g>
<!-- 17721 -->
<g id="node41" class="node"><title>17721</title>
<ellipse fill="white" stroke="black" cx="831.749" cy="-184.43" rx="27.6545" ry="27.6545"/>
<text text-anchor="middle" x="831.749" y="-182.23" font-family="Times,serif" font-size="9.00">17721</text>
</g>
<!-- &#45;19&#45;&gt;17721 -->
<g id="edge50" class="edge"><title>&#45;19&#45;&gt;17721</title>
<path fill="none" stroke="red" stroke-width="0.300635" d="M777.286,-266.357C784.915,-255.021 799.074,-233.981 811.043,-216.196"/>
<polygon fill="red" stroke="red" stroke-width="0.300635" points="814.025,-218.034 816.705,-207.784 808.218,-214.126 814.025,-218.034"/>
</g>
<!-- &#45;20 -->
<g id="node20" class="node"><title>&#45;20</title>
<polygon fill="lightgray" stroke="black" points="503.249,-740.356 474.249,-740.356 474.249,-722.356 503.249,-722.356 503.249,-740.356"/>
<text text-anchor="middle" x="488.749" y="-729.156" font-family="Times,serif" font-size="9.00">&#45;20</text>
</g>
<!-- &#45;20&#45;&gt;12626 -->
<g id="edge28" class="edge"><title>&#45;20&#45;&gt;12626</title>
<path fill="none" stroke="red" stroke-width="0.33829" d="M490.625,-722.315C493.286,-710.46 498.023,-687.559 499.749,-667.779 502.106,-640.758 501.482,-610.122 500.335,-586.876"/>
<polygon fill="red" stroke="red" stroke-width="0.33829" points="503.822,-586.548 499.779,-576.755 496.833,-586.931 503.822,-586.548"/>
</g>
<!-- &#45;20&#45;&gt;9704 -->
<g id="edge56" class="edge"><title>&#45;20&#45;&gt;9704</title>
<path fill="none" stroke="red" stroke-width="0.283235" d="M473.999,-722.755C445.826,-708.236 383.835,-676.289 346.348,-656.971"/>
<polygon fill="red" stroke="red" stroke-width="0.283235" points="347.873,-653.819 337.38,-652.349 344.666,-660.041 347.873,-653.819"/>
</g>
<!-- &#45;20&#45;&gt;10861 -->
<g id="edge17" class="edge"><title>&#45;20&#45;&gt;10861</title>
<path fill="none" stroke="green" stroke-width="0.485259" d="M496.685,-722.128C508.401,-709.983 530.862,-686.698 548.694,-668.212"/>
<polygon fill="green" stroke="green" stroke-width="0.485259" points="551.585,-670.256 556.008,-660.629 546.547,-665.397 551.585,-670.256"/>
</g>
<!-- &#45;21 -->
<g id="node21" class="node"><title>&#45;21</title>
<polygon fill="lightgray" stroke="black" points="1068.25,-831.51 1039.25,-831.51 1039.25,-813.51 1068.25,-813.51 1068.25,-831.51"/>
<text text-anchor="middle" x="1053.75" y="-820.31" font-family="Times,serif" font-size="9.00">&#45;21</text>
</g>
<!-- &#45;22 -->
<g id="node22" class="node"><title>&#45;22</title>
<polygon fill="lightgray" stroke="black" points="696.249,-831.51 667.249,-831.51 667.249,-813.51 696.249,-813.51 696.249,-831.51"/>
<text text-anchor="middle" x="681.749" y="-820.31" font-family="Times,serif" font-size="9.00">&#45;22</text>
</g>
<!-- &#45;22&#45;&gt;18570 -->
<g id="edge48" class="edge"><title>&#45;22&#45;&gt;18570</title>
<path fill="none" stroke="green" stroke-width="0.449516" d="M681.749,-813.283C681.749,-803.311 681.749,-785.83 681.749,-769.661"/>
<polygon fill="green" stroke="green" stroke-width="0.449516" points="685.249,-769.317 681.749,-759.317 678.249,-769.317 685.249,-769.317"/>
</g>
<!-- &#45;23 -->
<g id="node23" class="node"><title>&#45;23</title>
<polygon fill="lightgray" stroke="black" points="636.249,-740.356 607.249,-740.356 607.249,-722.356 636.249,-722.356 636.249,-740.356"/>
<text text-anchor="middle" x="621.749" y="-729.156" font-family="Times,serif" font-size="9.00">&#45;23</text>
</g>
<!-- &#45;23&#45;&gt;10861 -->
<g id="edge35" class="edge"><title>&#45;23&#45;&gt;10861</title>
<path fill="none" stroke="red" stroke-width="0.307149" d="M617.411,-722.128C611.697,-711.29 601.307,-691.579 592.211,-674.325"/>
<polygon fill="red" stroke="red" stroke-width="0.307149" points="595.088,-672.278 587.328,-665.064 588.896,-675.542 595.088,-672.278"/>
</g>
<!-- &#45;24 -->
<g id="node24" class="node"><title>&#45;24</title>
<polygon fill="lightgray" stroke="black" points="1115.25,-831.51 1086.25,-831.51 1086.25,-813.51 1115.25,-813.51 1115.25,-831.51"/>
<text text-anchor="middle" x="1100.75" y="-820.31" font-family="Times,serif" font-size="9.00">&#45;24</text>
</g>
<!-- 0 -->
<g id="node25" class="node"><title>0</title>
<ellipse fill="lightblue" stroke="black" cx="1147.75" cy="-822.51" rx="14.7" ry="14.7"/>
<text text-anchor="middle" x="1147.75" y="-820.31" font-family="Times,serif" font-size="9.00">0</text>
</g>
<!-- 2&#45;&gt;10861 -->
<g id="edge41" class="edge"><title>2&#45;&gt;10861</title>
<path fill="none" stroke="red" stroke-width="0.190699" d="M574.749,-716.426C574.749,-706.123 574.749,-691.586 574.749,-678.035"/>
<polygon fill="red" stroke="red" stroke-width="0.190699" points="578.249,-677.951 574.749,-667.951 571.249,-677.951 578.249,-677.951"/>
</g>
<!-- 3 -->
<g id="node28" class="node"><title>3</title>
<ellipse fill="lightblue" stroke="black" cx="1207.75" cy="-731.356" rx="14.7" ry="14.7"/>
<text text-anchor="middle" x="1207.75" y="-729.156" font-family="Times,serif" font-size="9.00">3</text>
</g>
<!-- 14216 -->
<g id="node29" class="node"><title>14216</title>
<ellipse fill="white" stroke="black" cx="432.749" cy="-366.739" rx="27.6545" ry="27.6545"/>
<text text-anchor="middle" x="432.749" y="-364.539" font-family="Times,serif" font-size="9.00">14216</text>
</g>
<!-- 14216&#45;&gt;6074 -->
<g id="edge54" class="edge"><title>14216&#45;&gt;6074</title>
<path fill="none" stroke="green" stroke-width="1.72467" d="M432.749,-338.989C432.749,-330.12 432.749,-320.123 432.749,-310.773"/>
<polygon fill="green" stroke="green" stroke-width="1.72467" points="436.249,-310.584 432.749,-300.584 429.249,-310.584 436.249,-310.584"/>
</g>
<!-- 6507 -->
<g id="node54" class="node"><title>6507</title>
<ellipse fill="white" stroke="black" cx="324.749" cy="-275.584" rx="25" ry="25"/>
<text text-anchor="middle" x="324.749" y="-273.384" font-family="Times,serif" font-size="9.00">6507</text>
</g>
<!-- 14216&#45;&gt;6507 -->
<g id="edge19" class="edge"><title>14216&#45;&gt;6507</title>
<path fill="none" stroke="green" stroke-width="0.730276" d="M411.925,-348.549C394.625,-334.268 369.908,-313.864 351.208,-298.427"/>
<polygon fill="green" stroke="green" stroke-width="0.730276" points="353.285,-295.603 343.345,-291.936 348.829,-301.001 353.285,-295.603"/>
</g>
<!-- 13193&#45;&gt;17721 -->
<g id="edge29" class="edge"><title>13193&#45;&gt;17721</title>
<path fill="none" stroke="green" stroke-width="0.671907" d="M831.749,-247.835C831.749,-239.813 831.749,-230.868 831.749,-222.314"/>
<polygon fill="green" stroke="green" stroke-width="0.671907" points="835.249,-222.16 831.749,-212.16 828.249,-222.16 835.249,-222.16"/>
</g>
<!-- 17575 -->
<g id="node39" class="node"><title>17575</title>
<ellipse fill="white" stroke="black" cx="682.749" cy="-184.43" rx="27.6545" ry="27.6545"/>
<text text-anchor="middle" x="682.749" y="-182.23" font-family="Times,serif" font-size="9.00">17575</text>
</g>
<!-- 18570&#45;&gt;17575 -->
<g id="edge36" class="edge"><title>18570&#45;&gt;17575</title>
<path fill="none" stroke="red" stroke-width="1.20656" d="M681.749,-703.777C681.749,-668.605 681.749,-604.672 681.749,-550.047 681.749,-550.047 681.749,-550.047 681.749,-365.739 681.749,-316.021 682.134,-258.593 682.426,-222.158"/>
<polygon fill="red" stroke="red" stroke-width="1.20656" points="685.927,-222.037 682.509,-212.009 678.927,-221.98 685.927,-222.037"/>
</g>
<!-- 16141 -->
<g id="node32" class="node"><title>16141</title>
<ellipse fill="white" stroke="black" cx="1207.75" cy="-822.51" rx="27.6545" ry="27.6545"/>
<text text-anchor="middle" x="1207.75" y="-820.31" font-family="Times,serif" font-size="9.00">16141</text>
</g>
<!-- 16141&#45;&gt;3 -->
<g id="edge16" class="edge"><title>16141&#45;&gt;3</title>
<path fill="none" stroke="red" stroke-width="0.725001" d="M1207.75,-794.761C1207.75,-782.587 1207.75,-768.29 1207.75,-756.454"/>
<polygon fill="red" stroke="red" stroke-width="0.725001" points="1211.25,-756.407 1207.75,-746.407 1204.25,-756.407 1211.25,-756.407"/>
</g>
<!-- 2831 -->
<g id="node34" class="node"><title>2831</title>
<ellipse fill="white" stroke="black" cx="432.749" cy="-93.2756" rx="25" ry="25"/>
<text text-anchor="middle" x="432.749" y="-91.0756" font-family="Times,serif" font-size="9.00">2831</text>
</g>
<!-- 2831&#45;&gt;1 -->
<g id="edge6" class="edge"><title>2831&#45;&gt;1</title>
<path fill="none" stroke="red" stroke-width="0.488756" d="M408.627,-87.0826C344.012,-73.172 167.518,-35.1754 102.352,-21.1459"/>
<polygon fill="red" stroke="red" stroke-width="0.488756" points="102.715,-17.6441 92.2027,-18.961 101.242,-24.4873 102.715,-17.6441"/>
</g>
<!-- 14355 -->
<g id="node35" class="node"><title>14355</title>
<ellipse fill="white" stroke="black" cx="570.749" cy="-549.047" rx="27.6545" ry="27.6545"/>
<text text-anchor="middle" x="570.749" y="-546.847" font-family="Times,serif" font-size="9.00">14355</text>
</g>
<!-- 2197&#45;&gt;1 -->
<g id="edge18" class="edge"><title>2197&#45;&gt;1</title>
<path fill="none" stroke="green" stroke-width="0.889954" d="M26.6745,-341.819C31.0458,-290.733 42.9829,-167.343 63.7487,-65.6985 65.5452,-56.905 68.07,-47.388 70.4816,-39.0495"/>
<polygon fill="green" stroke="green" stroke-width="0.889954" points="73.897,-39.8446 73.4126,-29.2608 67.1912,-37.8366 73.897,-39.8446"/>
</g>
<!-- 4505&#45;&gt;2831 -->
<g id="edge26" class="edge"><title>4505&#45;&gt;2831</title>
<path fill="none" stroke="red" stroke-width="1.55427" d="M343.561,-167.9C360.906,-153.582 386.829,-132.182 406.264,-116.139"/>
<polygon fill="red" stroke="red" stroke-width="1.55427" points="408.668,-118.693 414.152,-109.627 404.212,-113.294 408.668,-118.693"/>
</g>
<!-- 7718 -->
<g id="node38" class="node"><title>7718</title>
<ellipse fill="white" stroke="black" cx="364.749" cy="-457.893" rx="25" ry="25"/>
<text text-anchor="middle" x="364.749" y="-455.693" font-family="Times,serif" font-size="9.00">7718</text>
</g>
<!-- 12339 -->
<g id="node40" class="node"><title>12339</title>
<ellipse fill="white" stroke="black" cx="359.749" cy="-366.739" rx="27.6545" ry="27.6545"/>
<text text-anchor="middle" x="359.749" y="-364.539" font-family="Times,serif" font-size="9.00">12339</text>
</g>
<!-- 7718&#45;&gt;12339 -->
<g id="edge13" class="edge"><title>7718&#45;&gt;12339</title>
<path fill="none" stroke="green" stroke-width="0.243715" d="M363.409,-433.001C362.92,-424.289 362.356,-414.223 361.818,-404.644"/>
<polygon fill="green" stroke="green" stroke-width="0.243715" points="365.306,-404.316 361.251,-394.528 358.317,-404.708 365.306,-404.316"/>
</g>
<!-- 17575&#45;&gt;2831 -->
<g id="edge34" class="edge"><title>17575&#45;&gt;2831</title>
<path fill="none" stroke="red" stroke-width="0.928523" d="M660.277,-167.635C654.131,-163.759 647.343,-159.863 640.749,-156.853 582.084,-130.075 508.981,-111.149 466.907,-101.534"/>
<polygon fill="red" stroke="red" stroke-width="0.928523" points="467.43,-98.064 456.906,-99.2905 465.898,-104.894 467.43,-98.064"/>
</g>
<!-- 12339&#45;&gt;6507 -->
<g id="edge46" class="edge"><title>12339&#45;&gt;6507</title>
<path fill="none" stroke="red" stroke-width="0.326454" d="M349.999,-340.904C346.035,-330.806 341.405,-319.013 337.201,-308.303"/>
<polygon fill="red" stroke="red" stroke-width="0.326454" points="340.403,-306.881 333.49,-298.852 333.887,-309.439 340.403,-306.881"/>
</g>
<!-- 10705 -->
<g id="node47" class="node"><title>10705</title>
<ellipse fill="white" stroke="black" cx="831.749" cy="-93.2756" rx="27.6545" ry="27.6545"/>
<text text-anchor="middle" x="831.749" y="-91.0756" font-family="Times,serif" font-size="9.00">10705</text>
</g>
<!-- 17721&#45;&gt;10705 -->
<g id="edge12" class="edge"><title>17721&#45;&gt;10705</title>
<path fill="none" stroke="red" stroke-width="0.337055" d="M831.749,-156.681C831.749,-148.659 831.749,-139.714 831.749,-131.159"/>
<polygon fill="red" stroke="red" stroke-width="0.337055" points="835.249,-131.006 831.749,-121.006 828.249,-131.006 835.249,-131.006"/>
</g>
<!-- 6074&#45;&gt;2831 -->
<g id="edge1" class="edge"><title>6074&#45;&gt;2831</title>
<path fill="none" stroke="green" stroke-width="0.736591" d="M432.749,-250.641C432.749,-219.3 432.749,-164.169 432.749,-128.446"/>
<polygon fill="green" stroke="green" stroke-width="0.736591" points="436.249,-128.031 432.749,-118.031 429.249,-128.031 436.249,-128.031"/>
</g>
<!-- 6074&#45;&gt;4505 -->
<g id="edge30" class="edge"><title>6074&#45;&gt;4505</title>
<path fill="none" stroke="green" stroke-width="0.30536" d="M413.937,-259.055C396.592,-244.737 370.668,-223.337 351.233,-207.293"/>
<polygon fill="green" stroke="green" stroke-width="0.30536" points="353.285,-204.449 343.345,-200.782 348.829,-209.847 353.285,-204.449"/>
</g>
<!-- 16194&#45;&gt;6507 -->
<g id="edge38" class="edge"><title>16194&#45;&gt;6507</title>
<path fill="none" stroke="green" stroke-width="0.35473" d="M399.072,-538.918C384.593,-533.777 366.167,-527.248 349.749,-521.47 304.006,-505.371 274.818,-525.014 246.749,-485.47 233.905,-467.375 248.826,-352.915 255.749,-339.161 260.747,-329.23 280.282,-311.915 297.296,-298.012"/>
<polygon fill="green" stroke="green" stroke-width="0.35473" points="299.778,-300.507 305.371,-291.509 295.387,-295.055 299.778,-300.507"/>
</g>
<!-- 9931&#45;&gt;6507 -->
<g id="edge15" class="edge"><title>9931&#45;&gt;6507</title>
<path fill="none" stroke="green" stroke-width="1.54395" d="M298.581,-343.241C302.757,-332.602 307.816,-319.718 312.367,-308.124"/>
<polygon fill="green" stroke="green" stroke-width="1.54395" points="315.644,-309.353 316.041,-298.766 309.129,-306.795 315.644,-309.353"/>
</g>
<!-- 16590&#45;&gt;6507 -->
<g id="edge31" class="edge"><title>16590&#45;&gt;6507</title>
<path fill="none" stroke="red" stroke-width="0.520357" d="M160.072,-357.799C192.13,-347.564 247.367,-328.079 290.749,-303.161 293.246,-301.727 295.76,-300.124 298.229,-298.436"/>
<polygon fill="red" stroke="red" stroke-width="0.520357" points="300.357,-301.216 306.362,-292.487 296.225,-295.566 300.357,-301.216"/>
</g>
<!-- 13519 -->
<g id="node46" class="node"><title>13519</title>
<ellipse fill="white" stroke="black" cx="485.749" cy="-457.893" rx="27.6545" ry="27.6545"/>
<text text-anchor="middle" x="485.749" y="-455.693" font-family="Times,serif" font-size="9.00">13519</text>
</g>
<!-- 13519&#45;&gt;14216 -->
<g id="edge43" class="edge"><title>13519&#45;&gt;14216</title>
<path fill="none" stroke="red" stroke-width="0.140161" d="M471.824,-433.469C465.677,-423.129 458.355,-410.812 451.719,-399.65"/>
<polygon fill="red" stroke="red" stroke-width="0.140161" points="454.699,-397.814 446.581,-391.006 448.682,-401.391 454.699,-397.814"/>
</g>
<!-- 12626&#45;&gt;13519 -->
<g id="edge5" class="edge"><title>12626&#45;&gt;13519</title>
<path fill="none" stroke="red" stroke-width="0.739018" d="M494.148,-521.298C493.047,-513.114 491.816,-503.97 490.644,-495.259"/>
<polygon fill="red" stroke="red" stroke-width="0.739018" points="494.108,-494.76 489.305,-485.316 487.171,-495.694 494.108,-494.76"/>
</g>
<!-- 19166&#45;&gt;12626 -->
<g id="edge10" class="edge"><title>19166&#45;&gt;12626</title>
<path fill="none" stroke="green" stroke-width="1.08522" d="M472.498,-614.367C476.109,-605.17 480.271,-594.568 484.161,-584.659"/>
<polygon fill="green" stroke="green" stroke-width="1.08522" points="487.534,-585.645 487.93,-575.058 481.018,-583.087 487.534,-585.645"/>
</g>
<!-- 12003&#45;&gt;9704 -->
<g id="edge22" class="edge"><title>12003&#45;&gt;9704</title>
<path fill="none" stroke="red" stroke-width="0.455508" d="M327.74,-704.089C325.966,-694.787 323.947,-684.198 322.078,-674.396"/>
<polygon fill="red" stroke="red" stroke-width="0.455508" points="325.513,-673.72 320.201,-664.553 318.636,-675.032 325.513,-673.72"/>
</g>
<!-- 9704&#45;&gt;14216 -->
<g id="edge51" class="edge"><title>9704&#45;&gt;14216</title>
<path fill="none" stroke="green" stroke-width="0.730073" d="M327.261,-618.069C333.857,-605.947 342.283,-590.439 349.749,-576.624 371.617,-536.16 381.381,-528.061 398.749,-485.47 409.595,-458.871 418.458,-427.581 424.413,-403.946"/>
<polygon fill="green" stroke="green" stroke-width="0.730073" points="427.87,-404.543 426.862,-393.996 421.073,-402.87 427.87,-404.543"/>
</g>
<!-- 9704&#45;&gt;12626 -->
<g id="edge8" class="edge"><title>9704&#45;&gt;12626</title>
<path fill="none" stroke="green" stroke-width="0.31187" d="M339.041,-631.122C368.534,-620.468 420.476,-600.279 461.749,-576.624 463.931,-575.374 466.137,-574.014 468.326,-572.594"/>
<polygon fill="green" stroke="green" stroke-width="0.31187" points="470.336,-575.459 476.597,-566.912 466.372,-569.689 470.336,-575.459"/>
</g>
<!-- 9704&#45;&gt;5851 -->
<g id="edge11" class="edge"><title>9704&#45;&gt;5851</title>
<path fill="none" stroke="red" stroke-width="0.731119" d="M300.267,-620.294C289.841,-607.561 275.945,-590.589 264.423,-576.518"/>
<polygon fill="red" stroke="red" stroke-width="0.731119" points="267.001,-574.142 257.958,-568.622 261.585,-578.576 267.001,-574.142"/>
</g>
<!-- 10472 -->
<g id="node53" class="node"><title>10472</title>
<ellipse fill="white" stroke="black" cx="312.749" cy="-549.047" rx="27.6545" ry="27.6545"/>
<text text-anchor="middle" x="312.749" y="-546.847" font-family="Times,serif" font-size="9.00">10472</text>
</g>
<!-- 9704&#45;&gt;10472 -->
<g id="edge4" class="edge"><title>9704&#45;&gt;10472</title>
<path fill="none" stroke="green" stroke-width="0.772325" d="M314.945,-615.31C314.652,-606.598 314.313,-596.531 313.991,-586.952"/>
<polygon fill="green" stroke="green" stroke-width="0.772325" points="317.485,-586.713 313.65,-576.836 310.489,-586.948 317.485,-586.713"/>
</g>
<!-- 10861&#45;&gt;2831 -->
<g id="edge20" class="edge"><title>10861&#45;&gt;2831</title>
<path fill="none" stroke="red" stroke-width="1.4829" d="M589.004,-616.528C595.658,-604.982 603.114,-590.486 607.749,-576.624 624.554,-526.357 626.749,-511.895 626.749,-458.893 626.749,-458.893 626.749,-458.893 626.749,-274.584 626.749,-187.396 520.318,-130.446 465.119,-106.773"/>
<polygon fill="red" stroke="red" stroke-width="1.4829" points="466.342,-103.491 455.765,-102.869 463.646,-109.951 466.342,-103.491"/>
</g>
<!-- 10861&#45;&gt;14355 -->
<g id="edge37" class="edge"><title>10861&#45;&gt;14355</title>
<path fill="none" stroke="green" stroke-width="0.644296" d="M573.549,-612.452C573.189,-604.43 572.787,-595.486 572.404,-586.931"/>
<polygon fill="green" stroke="green" stroke-width="0.644296" points="575.893,-586.611 571.948,-576.778 568.9,-586.925 575.893,-586.611"/>
</g>
</g>
</svg>
