<?xml version="1.0" encoding="UTF-8" standalone="no"?>
<!DOCTYPE svg PUBLIC "-//W3C//DTD SVG 1.1//EN"
 "http://www.w3.org/Graphics/SVG/1.1/DTD/svg11.dtd">
<!-- Generated by graphviz version 2.38.0 (20140413.2041)
 -->
<!-- Title: %3 Pages: 1 -->
<svg width="1354pt" height="422pt"
 viewBox="0.00 0.00 1353.51 422.11" xmlns="http://www.w3.org/2000/svg" xmlns:xlink="http://www.w3.org/1999/xlink">
<g id="graph0" class="graph" transform="scale(1 1) rotate(0) translate(4 418.115)">
<title>%3</title>
<polygon fill="white" stroke="none" points="-4,4 -4,-418.115 1349.51,-418.115 1349.51,4 -4,4"/>
<!-- &#45;1 -->
<g id="node1" class="node"><title>&#45;1</title>
<polygon fill="lightgray" stroke="black" points="329.758,-395.538 305.758,-395.538 305.758,-377.538 329.758,-377.538 329.758,-395.538"/>
<text text-anchor="middle" x="317.758" y="-384.338" font-family="Times,serif" font-size="9.00">&#45;1</text>
</g>
<!-- 3 -->
<g id="node28" class="node"><title>3</title>
<ellipse fill="lightblue" stroke="black" cx="108.758" cy="-204.229" rx="14.7" ry="14.7"/>
<text text-anchor="middle" x="108.758" y="-202.029" font-family="Times,serif" font-size="9.00">3</text>
</g>
<!-- &#45;1&#45;&gt;3 -->
<g id="edge39" class="edge"><title>&#45;1&#45;&gt;3</title>
<path fill="none" stroke="red" stroke-width="0.149441" d="M305.466,-381.766C281.459,-373.931 227.561,-353.998 191.758,-322.96 169.266,-303.461 170.893,-292.148 153.758,-267.806 143.593,-253.366 131.95,-237.184 123.054,-224.894"/>
<polygon fill="red" stroke="red" stroke-width="0.149441" points="125.826,-222.754 117.122,-216.713 120.159,-226.863 125.826,-222.754"/>
</g>
<!-- 12424 -->
<g id="node29" class="node"><title>12424</title>
<ellipse fill="white" stroke="black" cx="317.758" cy="-295.383" rx="27.6545" ry="27.6545"/>
<text text-anchor="middle" x="317.758" y="-293.183" font-family="Times,serif" font-size="9.00">12424</text>
</g>
<!-- &#45;1&#45;&gt;12424 -->
<g id="edge47" class="edge"><title>&#45;1&#45;&gt;12424</title>
<path fill="none" stroke="green" stroke-width="0.340629" d="M317.758,-377.31C317.758,-367.338 317.758,-349.857 317.758,-333.688"/>
<polygon fill="green" stroke="green" stroke-width="0.340629" points="321.258,-333.344 317.758,-323.344 314.258,-333.344 321.258,-333.344"/>
</g>
<!-- 12697 -->
<g id="node32" class="node"><title>12697</title>
<ellipse fill="white" stroke="black" cx="920.758" cy="-204.229" rx="27.6545" ry="27.6545"/>
<text text-anchor="middle" x="920.758" y="-202.029" font-family="Times,serif" font-size="9.00">12697</text>
</g>
<!-- &#45;1&#45;&gt;12697 -->
<g id="edge32" class="edge"><title>&#45;1&#45;&gt;12697</title>
<path fill="none" stroke="green" stroke-width="0.206064" d="M329.843,-384.66C403.519,-379.231 790.601,-349.592 835.758,-322.96 868.198,-303.83 891.722,-266.936 905.689,-239.525"/>
<polygon fill="green" stroke="green" stroke-width="0.206064" points="908.968,-240.788 910.23,-230.269 902.683,-237.705 908.968,-240.788"/>
</g>
<!-- &#45;2 -->
<g id="node2" class="node"><title>&#45;2</title>
<polygon fill="lightgray" stroke="black" points="1190.76,-304.383 1166.76,-304.383 1166.76,-286.383 1190.76,-286.383 1190.76,-304.383"/>
<text text-anchor="middle" x="1178.76" y="-293.183" font-family="Times,serif" font-size="9.00">&#45;2</text>
</g>
<!-- 10337 -->
<g id="node45" class="node"><title>10337</title>
<ellipse fill="white" stroke="black" cx="1178.76" cy="-204.229" rx="27.6545" ry="27.6545"/>
<text text-anchor="middle" x="1178.76" y="-202.029" font-family="Times,serif" font-size="9.00">10337</text>
</g>
<!-- &#45;2&#45;&gt;10337 -->
<g id="edge2" class="edge"><title>&#45;2&#45;&gt;10337</title>
<path fill="none" stroke="red" stroke-width="0.696111" d="M1178.76,-286.156C1178.76,-276.184 1178.76,-258.703 1178.76,-242.534"/>
<polygon fill="red" stroke="red" stroke-width="0.696111" points="1182.26,-242.19 1178.76,-232.19 1175.26,-242.19 1182.26,-242.19"/>
</g>
<!-- &#45;3 -->
<g id="node3" class="node"><title>&#45;3</title>
<polygon fill="lightgray" stroke="black" points="732.758,-304.383 708.758,-304.383 708.758,-286.383 732.758,-286.383 732.758,-304.383"/>
<text text-anchor="middle" x="720.758" y="-293.183" font-family="Times,serif" font-size="9.00">&#45;3</text>
</g>
<!-- 2 -->
<g id="node27" class="node"><title>2</title>
<ellipse fill="lightblue" stroke="black" cx="590.758" cy="-204.229" rx="14.7" ry="14.7"/>
<text text-anchor="middle" x="590.758" y="-202.029" font-family="Times,serif" font-size="9.00">2</text>
</g>
<!-- &#45;3&#45;&gt;2 -->
<g id="edge19" class="edge"><title>&#45;3&#45;&gt;2</title>
<path fill="none" stroke="green" stroke-width="0.408247" d="M715.627,-286.203C711.772,-280.53 706.084,-273.075 699.758,-267.806 673.483,-245.921 661.246,-249.123 631.758,-231.806 625.075,-227.881 617.939,-223.372 611.525,-219.196"/>
<polygon fill="green" stroke="green" stroke-width="0.408247" points="613.055,-216.012 602.781,-213.422 609.198,-221.853 613.055,-216.012"/>
</g>
<!-- 8619 -->
<g id="node39" class="node"><title>8619</title>
<ellipse fill="white" stroke="black" cx="738.758" cy="-204.229" rx="25" ry="25"/>
<text text-anchor="middle" x="738.758" y="-202.029" font-family="Times,serif" font-size="9.00">8619</text>
</g>
<!-- &#45;3&#45;&gt;8619 -->
<g id="edge28" class="edge"><title>&#45;3&#45;&gt;8619</title>
<path fill="none" stroke="red" stroke-width="0.529312" d="M722.419,-286.156C724.582,-275.446 728.492,-256.076 731.946,-238.971"/>
<polygon fill="red" stroke="red" stroke-width="0.529312" points="735.469,-239.206 734.017,-228.712 728.607,-237.821 735.469,-239.206"/>
</g>
<!-- &#45;4 -->
<g id="node4" class="node"><title>&#45;4</title>
<polygon fill="lightgray" stroke="black" points="55.7583,-395.538 31.7583,-395.538 31.7583,-377.538 55.7583,-377.538 55.7583,-395.538"/>
<text text-anchor="middle" x="43.7583" y="-384.338" font-family="Times,serif" font-size="9.00">&#45;4</text>
</g>
<!-- &#45;4&#45;&gt;3 -->
<g id="edge15" class="edge"><title>&#45;4&#45;&gt;3</title>
<path fill="none" stroke="green" stroke-width="0.276545" d="M36.9259,-377.369C21.2284,-357.55 -14.4837,-305.759 6.75828,-267.806 23.3607,-238.143 60.4095,-220.834 84.9852,-212.205"/>
<polygon fill="green" stroke="green" stroke-width="0.276545" points="86.2497,-215.474 94.658,-209.028 84.0651,-208.824 86.2497,-215.474"/>
</g>
<!-- 12191 -->
<g id="node35" class="node"><title>12191</title>
<ellipse fill="white" stroke="black" cx="43.7583" cy="-295.383" rx="27.6545" ry="27.6545"/>
<text text-anchor="middle" x="43.7583" y="-293.183" font-family="Times,serif" font-size="9.00">12191</text>
</g>
<!-- &#45;4&#45;&gt;12191 -->
<g id="edge27" class="edge"><title>&#45;4&#45;&gt;12191</title>
<path fill="none" stroke="red" stroke-width="0.666493" d="M43.7583,-377.31C43.7583,-367.338 43.7583,-349.857 43.7583,-333.688"/>
<polygon fill="red" stroke="red" stroke-width="0.666493" points="47.2584,-333.344 43.7583,-323.344 40.2584,-333.344 47.2584,-333.344"/>
</g>
<!-- 11487 -->
<g id="node44" class="node"><title>11487</title>
<ellipse fill="white" stroke="black" cx="116.758" cy="-295.383" rx="27.6545" ry="27.6545"/>
<text text-anchor="middle" x="116.758" y="-293.183" font-family="Times,serif" font-size="9.00">11487</text>
</g>
<!-- &#45;4&#45;&gt;11487 -->
<g id="edge36" class="edge"><title>&#45;4&#45;&gt;11487</title>
<path fill="none" stroke="green" stroke-width="0.539633" d="M50.4951,-377.31C60.1062,-365.572 78.2364,-343.43 93.1059,-325.27"/>
<polygon fill="green" stroke="green" stroke-width="0.539633" points="96.0388,-327.212 99.6661,-317.258 90.6227,-322.778 96.0388,-327.212"/>
</g>
<!-- &#45;5 -->
<g id="node5" class="node"><title>&#45;5</title>
<polygon fill="lightgray" stroke="black" points="224.758,-304.383 200.758,-304.383 200.758,-286.383 224.758,-286.383 224.758,-304.383"/>
<text text-anchor="middle" x="212.758" y="-293.183" font-family="Times,serif" font-size="9.00">&#45;5</text>
</g>
<!-- 0 -->
<g id="node25" class="node"><title>0</title>
<ellipse fill="lightblue" stroke="black" cx="347.758" cy="-204.229" rx="14.7" ry="14.7"/>
<text text-anchor="middle" x="347.758" y="-202.029" font-family="Times,serif" font-size="9.00">0</text>
</g>
<!-- &#45;5&#45;&gt;0 -->
<g id="edge25" class="edge"><title>&#45;5&#45;&gt;0</title>
<path fill="none" stroke="red" stroke-width="2.37518" d="M217.914,-286.233C221.781,-280.573 227.472,-273.123 233.758,-267.806 261.814,-244.077 300.272,-225.227 324.567,-214.644"/>
<polygon fill="red" stroke="red" stroke-width="2.37518" points="326.203,-217.752 334.041,-210.624 323.468,-211.308 326.203,-217.752"/>
</g>
<!-- &#45;6 -->
<g id="node6" class="node"><title>&#45;6</title>
<polygon fill="lightgray" stroke="black" points="654.758,-395.538 630.758,-395.538 630.758,-377.538 654.758,-377.538 654.758,-395.538"/>
<text text-anchor="middle" x="642.758" y="-384.338" font-family="Times,serif" font-size="9.00">&#45;6</text>
</g>
<!-- 9899 -->
<g id="node38" class="node"><title>9899</title>
<ellipse fill="white" stroke="black" cx="665.758" cy="-295.383" rx="25" ry="25"/>
<text text-anchor="middle" x="665.758" y="-293.183" font-family="Times,serif" font-size="9.00">9899</text>
</g>
<!-- &#45;6&#45;&gt;9899 -->
<g id="edge49" class="edge"><title>&#45;6&#45;&gt;9899</title>
<path fill="none" stroke="red" stroke-width="0.160305" d="M644.881,-377.31C647.688,-366.427 652.803,-346.602 657.267,-329.298"/>
<polygon fill="red" stroke="red" stroke-width="0.160305" points="660.689,-330.045 659.798,-319.488 653.911,-328.296 660.689,-330.045"/>
</g>
<!-- &#45;7 -->
<g id="node7" class="node"><title>&#45;7</title>
<polygon fill="lightgray" stroke="black" points="1263.76,-304.383 1239.76,-304.383 1239.76,-286.383 1263.76,-286.383 1263.76,-304.383"/>
<text text-anchor="middle" x="1251.76" y="-293.183" font-family="Times,serif" font-size="9.00">&#45;7</text>
</g>
<!-- 6941 -->
<g id="node33" class="node"><title>6941</title>
<ellipse fill="white" stroke="black" cx="792.758" cy="-24.7487" rx="25" ry="25"/>
<text text-anchor="middle" x="792.758" y="-22.5487" font-family="Times,serif" font-size="9.00">6941</text>
</g>
<!-- &#45;7&#45;&gt;6941 -->
<g id="edge12" class="edge"><title>&#45;7&#45;&gt;6941</title>
<path fill="none" stroke="red" stroke-width="0.388101" d="M1258.87,-286.179C1275.62,-265.837 1314.25,-212.158 1288.76,-176.652 1233.19,-99.2444 930.258,-46.6558 827.143,-30.7819"/>
<polygon fill="red" stroke="red" stroke-width="0.388101" points="827.657,-27.3198 817.245,-29.2768 826.605,-34.2403 827.657,-27.3198"/>
</g>
<!-- 10155 -->
<g id="node40" class="node"><title>10155</title>
<ellipse fill="white" stroke="black" cx="1251.76" cy="-204.229" rx="27.6545" ry="27.6545"/>
<text text-anchor="middle" x="1251.76" y="-202.029" font-family="Times,serif" font-size="9.00">10155</text>
</g>
<!-- &#45;7&#45;&gt;10155 -->
<g id="edge26" class="edge"><title>&#45;7&#45;&gt;10155</title>
<path fill="none" stroke="red" stroke-width="0.309808" d="M1251.76,-286.156C1251.76,-276.184 1251.76,-258.703 1251.76,-242.534"/>
<polygon fill="red" stroke="red" stroke-width="0.309808" points="1255.26,-242.19 1251.76,-232.19 1248.26,-242.19 1255.26,-242.19"/>
</g>
<!-- &#45;7&#45;&gt;10337 -->
<g id="edge30" class="edge"><title>&#45;7&#45;&gt;10337</title>
<path fill="none" stroke="green" stroke-width="0.632507" d="M1245.02,-286.156C1235.41,-274.418 1217.28,-252.275 1202.41,-234.115"/>
<polygon fill="green" stroke="green" stroke-width="0.632507" points="1204.89,-231.623 1195.85,-226.104 1199.48,-236.058 1204.89,-231.623"/>
</g>
<!-- &#45;8 -->
<g id="node8" class="node"><title>&#45;8</title>
<polygon fill="lightgray" stroke="black" points="1016.76,-395.538 992.758,-395.538 992.758,-377.538 1016.76,-377.538 1016.76,-395.538"/>
<text text-anchor="middle" x="1004.76" y="-384.338" font-family="Times,serif" font-size="9.00">&#45;8</text>
</g>
<!-- 10026 -->
<g id="node37" class="node"><title>10026</title>
<ellipse fill="white" stroke="black" cx="1004.76" cy="-295.383" rx="27.6545" ry="27.6545"/>
<text text-anchor="middle" x="1004.76" y="-293.183" font-family="Times,serif" font-size="9.00">10026</text>
</g>
<!-- &#45;8&#45;&gt;10026 -->
<g id="edge5" class="edge"><title>&#45;8&#45;&gt;10026</title>
<path fill="none" stroke="green" stroke-width="0.485208" d="M1004.76,-377.31C1004.76,-367.338 1004.76,-349.857 1004.76,-333.688"/>
<polygon fill="green" stroke="green" stroke-width="0.485208" points="1008.26,-333.344 1004.76,-323.344 1001.26,-333.344 1008.26,-333.344"/>
</g>
<!-- &#45;9 -->
<g id="node9" class="node"><title>&#45;9</title>
<polygon fill="lightgray" stroke="black" points="528.758,-304.383 504.758,-304.383 504.758,-286.383 528.758,-286.383 528.758,-304.383"/>
<text text-anchor="middle" x="516.758" y="-293.183" font-family="Times,serif" font-size="9.00">&#45;9</text>
</g>
<!-- &#45;9&#45;&gt;0 -->
<g id="edge29" class="edge"><title>&#45;9&#45;&gt;0</title>
<path fill="none" stroke="red" stroke-width="1.50087" d="M511.441,-286.046C507.429,-280.299 501.48,-272.82 494.758,-267.806 456.375,-239.174 402.906,-220.7 372.156,-211.705"/>
<polygon fill="red" stroke="red" stroke-width="1.50087" points="372.863,-208.268 362.288,-208.918 370.96,-215.004 372.863,-208.268"/>
</g>
<!-- &#45;9&#45;&gt;2 -->
<g id="edge6" class="edge"><title>&#45;9&#45;&gt;2</title>
<path fill="none" stroke="green" stroke-width="0.631191" d="M523.307,-285.946C527.413,-280.692 532.843,-273.814 537.758,-267.806 549.918,-252.944 563.976,-236.373 574.557,-224.018"/>
<polygon fill="green" stroke="green" stroke-width="0.631191" points="577.402,-226.078 581.261,-216.211 572.091,-221.518 577.402,-226.078"/>
</g>
<!-- &#45;10 -->
<g id="node10" class="node"><title>&#45;10</title>
<polygon fill="lightgray" stroke="black" points="272.258,-304.383 243.258,-304.383 243.258,-286.383 272.258,-286.383 272.258,-304.383"/>
<text text-anchor="middle" x="257.758" y="-293.183" font-family="Times,serif" font-size="9.00">&#45;10</text>
</g>
<!-- &#45;10&#45;&gt;0 -->
<g id="edge21" class="edge"><title>&#45;10&#45;&gt;0</title>
<path fill="none" stroke="green" stroke-width="0.45042" d="M264.387,-286.28C268.871,-280.912 275.002,-273.784 280.758,-267.806 296.482,-251.474 315.45,-233.944 329.185,-221.605"/>
<polygon fill="green" stroke="green" stroke-width="0.45042" points="331.85,-223.918 336.984,-214.65 327.191,-218.693 331.85,-223.918"/>
</g>
<!-- &#45;11 -->
<g id="node11" class="node"><title>&#45;11</title>
<polygon fill="lightgray" stroke="black" points="780.258,-304.383 751.258,-304.383 751.258,-286.383 780.258,-286.383 780.258,-304.383"/>
<text text-anchor="middle" x="765.758" y="-293.183" font-family="Times,serif" font-size="9.00">&#45;11</text>
</g>
<!-- &#45;11&#45;&gt;8619 -->
<g id="edge9" class="edge"><title>&#45;11&#45;&gt;8619</title>
<path fill="none" stroke="green" stroke-width="0.1923" d="M763.267,-286.156C759.971,-275.273 753.967,-255.447 748.726,-238.144"/>
<polygon fill="green" stroke="green" stroke-width="0.1923" points="752.004,-236.89 745.755,-228.333 745.304,-238.919 752.004,-236.89"/>
</g>
<!-- &#45;12 -->
<g id="node12" class="node"><title>&#45;12</title>
<polygon fill="lightgray" stroke="black" points="1064.26,-395.538 1035.26,-395.538 1035.26,-377.538 1064.26,-377.538 1064.26,-395.538"/>
<text text-anchor="middle" x="1049.76" y="-384.338" font-family="Times,serif" font-size="9.00">&#45;12</text>
</g>
<!-- &#45;13 -->
<g id="node13" class="node"><title>&#45;13</title>
<polygon fill="lightgray" stroke="black" points="392.258,-304.383 363.258,-304.383 363.258,-286.383 392.258,-286.383 392.258,-304.383"/>
<text text-anchor="middle" x="377.758" y="-293.183" font-family="Times,serif" font-size="9.00">&#45;13</text>
</g>
<!-- &#45;13&#45;&gt;0 -->
<g id="edge48" class="edge"><title>&#45;13&#45;&gt;0</title>
<path fill="none" stroke="green" stroke-width="1.34397" d="M374.99,-286.156C370.608,-273.135 361.918,-247.31 355.529,-228.322"/>
<polygon fill="green" stroke="green" stroke-width="1.34397" points="358.764,-226.962 352.258,-218.6 352.13,-229.194 358.764,-226.962"/>
</g>
<!-- &#45;14 -->
<g id="node14" class="node"><title>&#45;14</title>
<polygon fill="lightgray" stroke="black" points="827.258,-304.383 798.258,-304.383 798.258,-286.383 827.258,-286.383 827.258,-304.383"/>
<text text-anchor="middle" x="812.758" y="-293.183" font-family="Times,serif" font-size="9.00">&#45;14</text>
</g>
<!-- 1 -->
<g id="node26" class="node"><title>1</title>
<ellipse fill="lightblue" stroke="black" cx="976.758" cy="-113.075" rx="14.7" ry="14.7"/>
<text text-anchor="middle" x="976.758" y="-110.875" font-family="Times,serif" font-size="9.00">1</text>
</g>
<!-- &#45;14&#45;&gt;1 -->
<g id="edge51" class="edge"><title>&#45;14&#45;&gt;1</title>
<path fill="none" stroke="red" stroke-width="1.10054" d="M817.138,-286.104C829.773,-262.4 866.482,-194.808 883.758,-176.652 904.625,-154.723 934.469,-136.34 954.676,-125.289"/>
<polygon fill="red" stroke="red" stroke-width="1.10054" points="956.554,-128.255 963.741,-120.47 953.268,-122.074 956.554,-128.255"/>
</g>
<!-- &#45;14&#45;&gt;2 -->
<g id="edge42" class="edge"><title>&#45;14&#45;&gt;2</title>
<path fill="none" stroke="red" stroke-width="0.19814" d="M807.43,-286.176C803.107,-280.181 796.479,-272.339 788.758,-267.806 727.022,-231.563 697.688,-259.701 631.758,-231.806 624.346,-228.67 616.797,-224.208 610.23,-219.834"/>
<polygon fill="red" stroke="red" stroke-width="0.19814" points="612.186,-216.931 601.989,-214.056 608.168,-222.663 612.186,-216.931"/>
</g>
<!-- 12046 -->
<g id="node30" class="node"><title>12046</title>
<ellipse fill="white" stroke="black" cx="808.758" cy="-204.229" rx="27.6545" ry="27.6545"/>
<text text-anchor="middle" x="808.758" y="-202.029" font-family="Times,serif" font-size="9.00">12046</text>
</g>
<!-- &#45;14&#45;&gt;12046 -->
<g id="edge38" class="edge"><title>&#45;14&#45;&gt;12046</title>
<path fill="none" stroke="red" stroke-width="0.238725" d="M812.389,-286.156C811.939,-276.113 811.146,-258.454 810.417,-242.19"/>
<polygon fill="red" stroke="red" stroke-width="0.238725" points="813.895,-241.63 809.95,-231.797 806.902,-241.944 813.895,-241.63"/>
</g>
<!-- &#45;15 -->
<g id="node15" class="node"><title>&#45;15</title>
<polygon fill="lightgray" stroke="black" points="1111.26,-395.538 1082.26,-395.538 1082.26,-377.538 1111.26,-377.538 1111.26,-395.538"/>
<text text-anchor="middle" x="1096.76" y="-384.338" font-family="Times,serif" font-size="9.00">&#45;15</text>
</g>
<!-- &#45;16 -->
<g id="node16" class="node"><title>&#45;16</title>
<polygon fill="lightgray" stroke="black" points="1158.26,-395.538 1129.26,-395.538 1129.26,-377.538 1158.26,-377.538 1158.26,-395.538"/>
<text text-anchor="middle" x="1143.76" y="-384.338" font-family="Times,serif" font-size="9.00">&#45;16</text>
</g>
<!-- &#45;17 -->
<g id="node17" class="node"><title>&#45;17</title>
<polygon fill="lightgray" stroke="black" points="1120.26,-304.383 1091.26,-304.383 1091.26,-286.383 1120.26,-286.383 1120.26,-304.383"/>
<text text-anchor="middle" x="1105.76" y="-293.183" font-family="Times,serif" font-size="9.00">&#45;17</text>
</g>
<!-- 11953 -->
<g id="node41" class="node"><title>11953</title>
<ellipse fill="white" stroke="black" cx="1105.76" cy="-204.229" rx="27.6545" ry="27.6545"/>
<text text-anchor="middle" x="1105.76" y="-202.029" font-family="Times,serif" font-size="9.00">11953</text>
</g>
<!-- &#45;17&#45;&gt;11953 -->
<g id="edge37" class="edge"><title>&#45;17&#45;&gt;11953</title>
<path fill="none" stroke="red" stroke-width="0.566661" d="M1105.76,-286.156C1105.76,-276.184 1105.76,-258.703 1105.76,-242.534"/>
<polygon fill="red" stroke="red" stroke-width="0.566661" points="1109.26,-242.19 1105.76,-232.19 1102.26,-242.19 1109.26,-242.19"/>
</g>
<!-- &#45;18 -->
<g id="node18" class="node"><title>&#45;18</title>
<polygon fill="lightgray" stroke="black" points="623.258,-304.383 594.258,-304.383 594.258,-286.383 623.258,-286.383 623.258,-304.383"/>
<text text-anchor="middle" x="608.758" y="-293.183" font-family="Times,serif" font-size="9.00">&#45;18</text>
</g>
<!-- &#45;18&#45;&gt;2 -->
<g id="edge22" class="edge"><title>&#45;18&#45;&gt;2</title>
<path fill="none" stroke="green" stroke-width="0.166661" d="M607.097,-286.156C604.495,-273.267 599.36,-247.835 595.538,-228.904"/>
<polygon fill="green" stroke="green" stroke-width="0.166661" points="598.931,-228.025 593.522,-218.915 592.07,-229.41 598.931,-228.025"/>
</g>
<!-- &#45;19 -->
<g id="node19" class="node"><title>&#45;19</title>
<polygon fill="lightgray" stroke="black" points="486.258,-304.383 457.258,-304.383 457.258,-286.383 486.258,-286.383 486.258,-304.383"/>
<text text-anchor="middle" x="471.758" y="-293.183" font-family="Times,serif" font-size="9.00">&#45;19</text>
</g>
<!-- &#45;19&#45;&gt;0 -->
<g id="edge33" class="edge"><title>&#45;19&#45;&gt;0</title>
<path fill="none" stroke="green" stroke-width="0.627393" d="M465.153,-285.92C460.606,-280.4 454.237,-273.238 447.758,-267.806 422.989,-247.039 390.752,-228.093 369.669,-216.617"/>
<polygon fill="green" stroke="green" stroke-width="0.627393" points="371.303,-213.521 360.835,-211.889 368.001,-219.693 371.303,-213.521"/>
</g>
<!-- &#45;20 -->
<g id="node20" class="node"><title>&#45;20</title>
<polygon fill="lightgray" stroke="black" points="1205.26,-395.538 1176.26,-395.538 1176.26,-377.538 1205.26,-377.538 1205.26,-395.538"/>
<text text-anchor="middle" x="1190.76" y="-384.338" font-family="Times,serif" font-size="9.00">&#45;20</text>
</g>
<!-- &#45;21 -->
<g id="node21" class="node"><title>&#45;21</title>
<polygon fill="lightgray" stroke="black" points="576.258,-304.383 547.258,-304.383 547.258,-286.383 576.258,-286.383 576.258,-304.383"/>
<text text-anchor="middle" x="561.758" y="-293.183" font-family="Times,serif" font-size="9.00">&#45;21</text>
</g>
<!-- &#45;21&#45;&gt;0 -->
<g id="edge16" class="edge"><title>&#45;21&#45;&gt;0</title>
<path fill="none" stroke="green" stroke-width="3.54365" d="M556.304,-286.379C551.916,-280.49 545.26,-272.692 537.758,-267.806 484.783,-233.307 411.08,-216.231 372.911,-209.242"/>
<polygon fill="green" stroke="green" stroke-width="3.54365" points="373.153,-205.732 362.701,-207.461 371.95,-212.628 373.153,-205.732"/>
</g>
<!-- &#45;21&#45;&gt;2 -->
<g id="edge41" class="edge"><title>&#45;21&#45;&gt;2</title>
<path fill="none" stroke="green" stroke-width="0.243259" d="M564.435,-286.156C568.67,-273.135 577.07,-247.31 583.247,-228.322"/>
<polygon fill="green" stroke="green" stroke-width="0.243259" points="586.644,-229.193 586.409,-218.6 579.987,-227.027 586.644,-229.193"/>
</g>
<!-- 4550 -->
<g id="node43" class="node"><title>4550</title>
<ellipse fill="white" stroke="black" cx="532.758" cy="-204.229" rx="25" ry="25"/>
<text text-anchor="middle" x="532.758" y="-202.029" font-family="Times,serif" font-size="9.00">4550</text>
</g>
<!-- &#45;21&#45;&gt;4550 -->
<g id="edge11" class="edge"><title>&#45;21&#45;&gt;4550</title>
<path fill="none" stroke="green" stroke-width="0.151309" d="M559.082,-286.156C555.519,-275.201 549.008,-255.184 543.353,-237.8"/>
<polygon fill="green" stroke="green" stroke-width="0.151309" points="546.573,-236.384 540.151,-227.957 539.916,-238.549 546.573,-236.384"/>
</g>
<!-- &#45;22 -->
<g id="node22" class="node"><title>&#45;22</title>
<polygon fill="lightgray" stroke="black" points="439.258,-304.383 410.258,-304.383 410.258,-286.383 439.258,-286.383 439.258,-304.383"/>
<text text-anchor="middle" x="424.758" y="-293.183" font-family="Times,serif" font-size="9.00">&#45;22</text>
</g>
<!-- &#45;22&#45;&gt;2 -->
<g id="edge34" class="edge"><title>&#45;22&#45;&gt;2</title>
<path fill="none" stroke="red" stroke-width="0.456645" d="M429.881,-286.32C434.031,-280.4 440.387,-272.589 447.758,-267.806 494.111,-237.728 520.091,-261.393 566.758,-231.806 569.994,-229.755 573.063,-227.151 575.857,-224.379"/>
<polygon fill="red" stroke="red" stroke-width="0.456645" points="578.477,-226.701 582.54,-216.916 573.262,-222.031 578.477,-226.701"/>
</g>
<!-- &#45;22&#45;&gt;3 -->
<g id="edge40" class="edge"><title>&#45;22&#45;&gt;3</title>
<path fill="none" stroke="red" stroke-width="0.496086" d="M419.448,-286.144C415.136,-280.133 408.511,-272.283 400.758,-267.806 312.317,-216.731 187.089,-207.207 134.054,-205.53"/>
<polygon fill="red" stroke="red" stroke-width="0.496086" points="133.956,-202.026 123.872,-205.279 133.783,-209.024 133.956,-202.026"/>
</g>
<!-- &#45;23 -->
<g id="node23" class="node"><title>&#45;23</title>
<polygon fill="lightgray" stroke="black" points="702.258,-395.538 673.258,-395.538 673.258,-377.538 702.258,-377.538 702.258,-395.538"/>
<text text-anchor="middle" x="687.758" y="-384.338" font-family="Times,serif" font-size="9.00">&#45;23</text>
</g>
<!-- &#45;23&#45;&gt;9899 -->
<g id="edge45" class="edge"><title>&#45;23&#45;&gt;9899</title>
<path fill="none" stroke="green" stroke-width="0.127438" d="M685.728,-377.31C683.043,-366.427 678.15,-346.602 673.88,-329.298"/>
<polygon fill="green" stroke="green" stroke-width="0.127438" points="677.254,-328.358 671.46,-319.488 670.457,-330.035 677.254,-328.358"/>
</g>
<!-- &#45;24 -->
<g id="node24" class="node"><title>&#45;24</title>
<polygon fill="lightgray" stroke="black" points="747.258,-122.075 718.258,-122.075 718.258,-104.075 747.258,-104.075 747.258,-122.075"/>
<text text-anchor="middle" x="732.758" y="-110.875" font-family="Times,serif" font-size="9.00">&#45;24</text>
</g>
<!-- &#45;24&#45;&gt;6941 -->
<g id="edge7" class="edge"><title>&#45;24&#45;&gt;6941</title>
<path fill="none" stroke="green" stroke-width="0.226547" d="M738.511,-103.797C746.404,-92.4414 760.985,-71.4631 773.043,-54.1137"/>
<polygon fill="green" stroke="green" stroke-width="0.226547" points="776.237,-55.651 779.071,-45.4421 770.489,-51.6559 776.237,-55.651"/>
</g>
<!-- 1&#45;&gt;1 -->
<g id="edge23" class="edge"><title>1&#45;&gt;1</title>
<path fill="none" stroke="green" stroke-width="0.362712" d="M985.839,-124.918C996.77,-133.866 1009.61,-129.918 1009.61,-113.075 1009.61,-100.837 1002.83,-95.4063 994.932,-96.7836"/>
<polygon fill="green" stroke="green" stroke-width="0.362712" points="993.284,-93.6935 985.839,-101.231 996.36,-99.9816 993.284,-93.6935"/>
</g>
<!-- 2&#45;&gt;2 -->
<g id="edge20" class="edge"><title>2&#45;&gt;2</title>
<path fill="none" stroke="green" stroke-width="0.387208" d="M599.839,-216.341C610.77,-225.493 623.608,-221.456 623.608,-204.229 623.608,-191.713 616.831,-186.159 608.932,-187.568"/>
<polygon fill="green" stroke="green" stroke-width="0.387208" points="607.216,-184.512 599.839,-192.117 610.348,-190.773 607.216,-184.512"/>
</g>
<!-- 3&#45;&gt;3 -->
<g id="edge13" class="edge"><title>3&#45;&gt;3</title>
<path fill="none" stroke="red" stroke-width="0.507344" d="M117.839,-216.341C128.77,-225.493 141.608,-221.456 141.608,-204.229 141.608,-191.713 134.831,-186.159 126.932,-187.568"/>
<polygon fill="red" stroke="red" stroke-width="0.507344" points="125.216,-184.512 117.839,-192.117 128.348,-190.773 125.216,-184.512"/>
</g>
<!-- 12447 -->
<g id="node34" class="node"><title>12447</title>
<ellipse fill="white" stroke="black" cx="108.758" cy="-113.075" rx="27.6545" ry="27.6545"/>
<text text-anchor="middle" x="108.758" y="-110.875" font-family="Times,serif" font-size="9.00">12447</text>
</g>
<!-- 3&#45;&gt;12447 -->
<g id="edge17" class="edge"><title>3&#45;&gt;12447</title>
<path fill="none" stroke="green" stroke-width="0.337367" d="M103.803,-190.074C102.325,-179.652 101.76,-164.569 102.108,-150.582"/>
<polygon fill="green" stroke="green" stroke-width="0.337367" points="105.621,-150.336 102.551,-140.195 98.6276,-150.037 105.621,-150.336"/>
</g>
<!-- 12424&#45;&gt;0 -->
<g id="edge4" class="edge"><title>12424&#45;&gt;0</title>
<path fill="none" stroke="red" stroke-width="0.227605" d="M326.275,-269.074C330.606,-256.204 335.829,-240.68 340.041,-228.163"/>
<polygon fill="red" stroke="red" stroke-width="0.227605" points="343.427,-229.074 343.299,-218.48 336.793,-226.842 343.427,-229.074"/>
</g>
<!-- 12046&#45;&gt;1 -->
<g id="edge18" class="edge"><title>12046&#45;&gt;1</title>
<path fill="none" stroke="red" stroke-width="0.253086" d="M831.605,-188.172C837.748,-184.29 844.441,-180.207 850.758,-176.652 886.085,-156.772 928.566,-136.367 954.076,-124.473"/>
<polygon fill="red" stroke="red" stroke-width="0.253086" points="955.679,-127.588 963.281,-120.208 952.736,-121.237 955.679,-127.588"/>
</g>
<!-- 10899 -->
<g id="node31" class="node"><title>10899</title>
<ellipse fill="white" stroke="black" cx="668.758" cy="-204.229" rx="27.6545" ry="27.6545"/>
<text text-anchor="middle" x="668.758" y="-202.029" font-family="Times,serif" font-size="9.00">10899</text>
</g>
<!-- 11118 -->
<g id="node46" class="node"><title>11118</title>
<ellipse fill="white" stroke="black" cx="792.758" cy="-113.075" rx="27.6545" ry="27.6545"/>
<text text-anchor="middle" x="792.758" y="-110.875" font-family="Times,serif" font-size="9.00">11118</text>
</g>
<!-- 10899&#45;&gt;11118 -->
<g id="edge35" class="edge"><title>10899&#45;&gt;11118</title>
<path fill="none" stroke="green" stroke-width="0.268418" d="M690.406,-187.132C695.123,-183.657 700.097,-180.017 704.758,-176.652 727.253,-160.412 733.158,-156.745 755.758,-140.652 757.844,-139.167 759.994,-137.632 762.159,-136.084"/>
<polygon fill="green" stroke="green" stroke-width="0.268418" points="764.384,-138.795 770.475,-130.126 760.307,-133.105 764.384,-138.795"/>
</g>
<!-- 12697&#45;&gt;1 -->
<g id="edge8" class="edge"><title>12697&#45;&gt;1</title>
<path fill="none" stroke="red" stroke-width="0.486844" d="M935.18,-180.27C944.027,-166.185 955.26,-148.3 963.82,-134.673"/>
<polygon fill="red" stroke="red" stroke-width="0.486844" points="966.902,-136.347 969.257,-126.017 960.974,-132.624 966.902,-136.347"/>
</g>
<!-- 12447&#45;&gt;3 -->
<g id="edge44" class="edge"><title>12447&#45;&gt;3</title>
<path fill="none" stroke="green" stroke-width="0.252763" d="M114.965,-140.195C115.746,-152.737 115.685,-167.646 114.781,-179.815"/>
<polygon fill="green" stroke="green" stroke-width="0.252763" points="111.267,-179.765 113.714,-190.074 118.23,-180.49 111.267,-179.765"/>
</g>
<!-- 12191&#45;&gt;3 -->
<g id="edge31" class="edge"><title>12191&#45;&gt;3</title>
<path fill="none" stroke="red" stroke-width="0.32789" d="M59.8257,-272.345C70.311,-257.963 83.8931,-239.334 94.0867,-225.353"/>
<polygon fill="red" stroke="red" stroke-width="0.32789" points="97.1663,-227.07 100.229,-216.927 91.5099,-222.946 97.1663,-227.07"/>
</g>
<!-- 10790 -->
<g id="node36" class="node"><title>10790</title>
<ellipse fill="white" stroke="black" cx="1250.76" cy="-386.538" rx="27.6545" ry="27.6545"/>
<text text-anchor="middle" x="1250.76" y="-384.338" font-family="Times,serif" font-size="9.00">10790</text>
</g>
<!-- 10026&#45;&gt;1 -->
<g id="edge46" class="edge"><title>10026&#45;&gt;1</title>
<path fill="none" stroke="red" stroke-width="0.470431" d="M1000.63,-267.778C995.191,-232.774 985.717,-171.764 980.489,-138.097"/>
<polygon fill="red" stroke="red" stroke-width="0.470431" points="983.944,-137.539 978.951,-128.195 977.027,-138.614 983.944,-137.539"/>
</g>
<!-- 11135 -->
<g id="node47" class="node"><title>11135</title>
<ellipse fill="white" stroke="black" cx="1032.76" cy="-204.229" rx="27.6545" ry="27.6545"/>
<text text-anchor="middle" x="1032.76" y="-202.029" font-family="Times,serif" font-size="9.00">11135</text>
</g>
<!-- 10026&#45;&gt;11135 -->
<g id="edge1" class="edge"><title>10026&#45;&gt;11135</title>
<path fill="none" stroke="red" stroke-width="0.713776" d="M1012.86,-268.596C1015.64,-259.741 1018.8,-249.675 1021.77,-240.214"/>
<polygon fill="red" stroke="red" stroke-width="0.713776" points="1025.12,-241.24 1024.77,-230.65 1018.44,-239.142 1025.12,-241.24"/>
</g>
<!-- 9899&#45;&gt;2 -->
<g id="edge14" class="edge"><title>9899&#45;&gt;2</title>
<path fill="none" stroke="red" stroke-width="0.355372" d="M650.218,-275.91C637.475,-260.762 619.508,-239.405 606.666,-224.139"/>
<polygon fill="red" stroke="red" stroke-width="0.355372" points="609.24,-221.762 600.124,-216.363 603.884,-226.268 609.24,-221.762"/>
</g>
<!-- 9899&#45;&gt;10899 -->
<g id="edge3" class="edge"><title>9899&#45;&gt;10899</title>
<path fill="none" stroke="red" stroke-width="0.466856" d="M666.562,-270.492C666.855,-261.78 667.194,-251.713 667.516,-242.134"/>
<polygon fill="red" stroke="red" stroke-width="0.466856" points="671.018,-242.13 667.857,-232.018 664.022,-241.894 671.018,-242.13"/>
</g>
<!-- 11953&#45;&gt;1 -->
<g id="edge43" class="edge"><title>11953&#45;&gt;1</title>
<path fill="none" stroke="green" stroke-width="0.374997" d="M1084.17,-187.053C1079.45,-183.583 1074.46,-179.964 1069.76,-176.652 1045.16,-159.305 1016.33,-140.074 997.367,-127.569"/>
<polygon fill="green" stroke="green" stroke-width="0.374997" points="999.19,-124.579 988.912,-122.009 995.343,-130.428 999.19,-124.579"/>
</g>
<!-- 4017 -->
<g id="node42" class="node"><title>4017</title>
<ellipse fill="white" stroke="black" cx="1320.76" cy="-386.538" rx="25" ry="25"/>
<text text-anchor="middle" x="1320.76" y="-384.338" font-family="Times,serif" font-size="9.00">4017</text>
</g>
<!-- 11487&#45;&gt;0 -->
<g id="edge50" class="edge"><title>11487&#45;&gt;0</title>
<path fill="none" stroke="green" stroke-width="0.135629" d="M142.362,-284.502C187.711,-266.999 281.446,-230.822 324.818,-214.083"/>
<polygon fill="green" stroke="green" stroke-width="0.135629" points="326.159,-217.317 334.228,-210.451 323.638,-210.787 326.159,-217.317"/>
</g>
<!-- 10337&#45;&gt;1 -->
<g id="edge10" class="edge"><title>10337&#45;&gt;1</title>
<path fill="none" stroke="red" stroke-width="0.481036" d="M1157.7,-186.196C1152.95,-182.779 1147.81,-179.399 1142.76,-176.652 1094.91,-150.622 1033.94,-130.691 1000.82,-120.855"/>
<polygon fill="red" stroke="red" stroke-width="0.481036" points="1001.68,-117.46 991.101,-118.022 999.722,-124.18 1001.68,-117.46"/>
</g>
<!-- 11118&#45;&gt;6941 -->
<g id="edge24" class="edge"><title>11118&#45;&gt;6941</title>
<path fill="none" stroke="green" stroke-width="0.47999" d="M792.758,-85.2338C792.758,-77.1407 792.758,-68.1497 792.758,-59.6599"/>
<polygon fill="green" stroke="green" stroke-width="0.47999" points="796.258,-59.6466 792.758,-49.6467 789.258,-59.6467 796.258,-59.6466"/>
</g>
<!-- 11135&#45;&gt;1 -->
<g id="edge52" class="edge"><title>11135&#45;&gt;1</title>
<path fill="none" stroke="green" stroke-width="0.232762" d="M1018.34,-180.27C1009.49,-166.185 998.256,-148.3 989.696,-134.673"/>
<polygon fill="green" stroke="green" stroke-width="0.232762" points="992.543,-132.624 984.26,-126.017 986.615,-136.347 992.543,-132.624"/>
</g>
</g>
</svg>
