<?xml version="1.0" encoding="UTF-8" standalone="no"?>
<!DOCTYPE svg PUBLIC "-//W3C//DTD SVG 1.1//EN"
 "http://www.w3.org/Graphics/SVG/1.1/DTD/svg11.dtd">
<!-- Generated by graphviz version 2.38.0 (20140413.2041)
 -->
<!-- Title: %3 Pages: 1 -->
<svg width="1695pt" height="476pt"
 viewBox="0.00 0.00 1695.50 476.11" xmlns="http://www.w3.org/2000/svg" xmlns:xlink="http://www.w3.org/1999/xlink">
<g id="graph0" class="graph" transform="scale(1 1) rotate(0) translate(4 472.115)">
<title>%3</title>
<polygon fill="white" stroke="none" points="-4,4 -4,-472.115 1691.5,-472.115 1691.5,4 -4,4"/>
<!-- &#45;1 -->
<g id="node1" class="node"><title>&#45;1</title>
<polygon fill="lightgray" stroke="black" points="628.918,-310.04 604.918,-310.04 604.918,-292.04 628.918,-292.04 628.918,-310.04"/>
<text text-anchor="middle" x="616.918" y="-298.84" font-family="Times,serif" font-size="9.00">&#45;1</text>
</g>
<!-- 0 -->
<g id="node25" class="node"><title>0</title>
<ellipse fill="lightblue" stroke="black" cx="850.918" cy="-118.731" rx="14.7" ry="14.7"/>
<text text-anchor="middle" x="850.918" y="-116.531" font-family="Times,serif" font-size="9.00">0</text>
</g>
<!-- &#45;1&#45;&gt;0 -->
<g id="edge17" class="edge"><title>&#45;1&#45;&gt;0</title>
<path fill="none" stroke="red" stroke-width="0.829748" stroke-dasharray="1,5" d="M629.064,-298.614C672.495,-293.247 818.987,-272.75 846.918,-237.463 868.114,-210.684 863.359,-168.746 857.491,-142.82"/>
<polygon fill="red" stroke="red" stroke-width="0.829748" points="860.882,-141.953 855.066,-133.097 854.09,-143.647 860.882,-141.953"/>
</g>
<!-- 1 -->
<g id="node26" class="node"><title>1</title>
<ellipse fill="lightblue" stroke="black" cx="1097.92" cy="-27.5772" rx="14.7" ry="14.7"/>
<text text-anchor="middle" x="1097.92" y="-25.3772" font-family="Times,serif" font-size="9.00">1</text>
</g>
<!-- &#45;1&#45;&gt;1 -->
<g id="edge20" class="edge"><title>&#45;1&#45;&gt;1</title>
<path fill="none" stroke="red" stroke-width="0.540515" stroke-dasharray="1,5" d="M604.743,-297.542C568.472,-289.831 462.443,-265.235 442.918,-237.463 428.819,-217.41 432.25,-204.378 442.918,-182.309 443.805,-180.474 556.035,-91.9345 557.918,-91.1543 653.222,-51.6663 979.547,-33.9865 1072.83,-29.6647"/>
<polygon fill="red" stroke="red" stroke-width="0.540515" points="1073.19,-33.1522 1083.02,-29.2033 1072.87,-26.1593 1073.19,-33.1522"/>
</g>
<!-- 3 -->
<g id="node28" class="node"><title>3</title>
<ellipse fill="lightblue" stroke="black" cx="188.918" cy="-118.731" rx="14.7" ry="14.7"/>
<text text-anchor="middle" x="188.918" y="-116.531" font-family="Times,serif" font-size="9.00">3</text>
</g>
<!-- &#45;1&#45;&gt;3 -->
<g id="edge64" class="edge"><title>&#45;1&#45;&gt;3</title>
<path fill="none" stroke="red" stroke-width="0.149441" d="M604.882,-297.321C582.63,-292.331 533.528,-281.484 491.918,-273.463 399.795,-255.704 364.789,-285.022 283.918,-237.463 244.802,-214.459 215.212,-168.877 200.107,-141.673"/>
<polygon fill="red" stroke="red" stroke-width="0.149441" points="203.025,-139.709 195.207,-132.558 196.859,-143.023 203.025,-139.709"/>
</g>
<!-- 12424 -->
<g id="node29" class="node"><title>12424</title>
<ellipse fill="white" stroke="black" cx="809.918" cy="-209.886" rx="27.6545" ry="27.6545"/>
<text text-anchor="middle" x="809.918" y="-207.686" font-family="Times,serif" font-size="9.00">12424</text>
</g>
<!-- &#45;1&#45;&gt;12424 -->
<g id="edge76" class="edge"><title>&#45;1&#45;&gt;12424</title>
<path fill="none" stroke="green" stroke-width="0.340629" d="M629.105,-296.272C655.986,-287.724 722.018,-265.415 772.918,-237.463 775.223,-236.197 777.554,-234.812 779.864,-233.359"/>
<polygon fill="green" stroke="green" stroke-width="0.340629" points="782.209,-236.002 788.579,-227.535 778.32,-230.182 782.209,-236.002"/>
</g>
<!-- 12697 -->
<g id="node32" class="node"><title>12697</title>
<ellipse fill="white" stroke="black" cx="1659.92" cy="-118.731" rx="27.6545" ry="27.6545"/>
<text text-anchor="middle" x="1659.92" y="-116.531" font-family="Times,serif" font-size="9.00">12697</text>
</g>
<!-- &#45;1&#45;&gt;12697 -->
<g id="edge55" class="edge"><title>&#45;1&#45;&gt;12697</title>
<path fill="none" stroke="green" stroke-width="0.206064" d="M629.108,-300.209C724.045,-301.379 1345.96,-306.3 1517.92,-237.463 1543.58,-227.188 1599.22,-177.22 1632.73,-145.774"/>
<polygon fill="green" stroke="green" stroke-width="0.206064" points="1635.46,-148.006 1640.33,-138.598 1630.66,-142.915 1635.46,-148.006"/>
</g>
<!-- 10026 -->
<g id="node37" class="node"><title>10026</title>
<ellipse fill="white" stroke="black" cx="367.918" cy="-209.886" rx="27.6545" ry="27.6545"/>
<text text-anchor="middle" x="367.918" y="-207.686" font-family="Times,serif" font-size="9.00">10026</text>
</g>
<!-- &#45;1&#45;&gt;10026 -->
<g id="edge14" class="edge"><title>&#45;1&#45;&gt;10026</title>
<path fill="none" stroke="green" stroke-width="0.130996" stroke-dasharray="1,5" d="M604.838,-297.592C572.316,-290.749 480.595,-269.781 409.918,-237.463 406.313,-235.815 402.65,-233.902 399.064,-231.873"/>
<polygon fill="green" stroke="green" stroke-width="0.130996" points="400.769,-228.814 390.393,-226.674 397.17,-234.818 400.769,-228.814"/>
</g>
<!-- &#45;2 -->
<g id="node2" class="node"><title>&#45;2</title>
<polygon fill="lightgray" stroke="black" points="1187.92,-218.886 1163.92,-218.886 1163.92,-200.886 1187.92,-200.886 1187.92,-218.886"/>
<text text-anchor="middle" x="1175.92" y="-207.686" font-family="Times,serif" font-size="9.00">&#45;2</text>
</g>
<!-- &#45;2&#45;&gt;0 -->
<g id="edge5" class="edge"><title>&#45;2&#45;&gt;0</title>
<path fill="none" stroke="red" stroke-width="0.169103" stroke-dasharray="1,5" d="M1163.85,-202.454C1151.98,-196.387 1133.16,-187.474 1115.92,-182.309 1022.69,-154.379 991.957,-177.944 899.918,-146.309 890.21,-142.972 880.134,-137.837 871.661,-132.967"/>
<polygon fill="red" stroke="red" stroke-width="0.169103" points="873.257,-129.843 862.883,-127.692 869.651,-135.843 873.257,-129.843"/>
</g>
<!-- 2 -->
<g id="node27" class="node"><title>2</title>
<ellipse fill="lightblue" stroke="black" cx="923.918" cy="-118.731" rx="14.7" ry="14.7"/>
<text text-anchor="middle" x="923.918" y="-116.531" font-family="Times,serif" font-size="9.00">2</text>
</g>
<!-- &#45;2&#45;&gt;2 -->
<g id="edge45" class="edge"><title>&#45;2&#45;&gt;2</title>
<path fill="none" stroke="red" stroke-width="0.439259" stroke-dasharray="1,5" d="M1170.04,-200.61C1165.3,-194.58 1158.1,-186.722 1149.92,-182.309 1076.58,-142.74 1043.34,-177.116 965.918,-146.309 958.311,-143.282 950.574,-138.848 943.848,-134.466"/>
<polygon fill="red" stroke="red" stroke-width="0.439259" points="945.632,-131.445 935.41,-128.66 941.664,-137.212 945.632,-131.445"/>
</g>
<!-- 10337 -->
<g id="node45" class="node"><title>10337</title>
<ellipse fill="white" stroke="black" cx="1254.92" cy="-118.731" rx="27.6545" ry="27.6545"/>
<text text-anchor="middle" x="1254.92" y="-116.531" font-family="Times,serif" font-size="9.00">10337</text>
</g>
<!-- &#45;2&#45;&gt;10337 -->
<g id="edge3" class="edge"><title>&#45;2&#45;&gt;10337</title>
<path fill="none" stroke="red" stroke-width="0.696111" d="M1182.01,-200.846C1186.11,-195.505 1191.72,-188.384 1196.92,-182.309 1207.15,-170.357 1218.88,-157.55 1229.1,-146.655"/>
<polygon fill="red" stroke="red" stroke-width="0.696111" points="1231.91,-148.774 1236.23,-139.1 1226.82,-143.97 1231.91,-148.774"/>
</g>
<!-- &#45;3 -->
<g id="node3" class="node"><title>&#45;3</title>
<polygon fill="lightgray" stroke="black" points="1324.92,-218.886 1300.92,-218.886 1300.92,-200.886 1324.92,-200.886 1324.92,-218.886"/>
<text text-anchor="middle" x="1312.92" y="-207.686" font-family="Times,serif" font-size="9.00">&#45;3</text>
</g>
<!-- &#45;3&#45;&gt;2 -->
<g id="edge33" class="edge"><title>&#45;3&#45;&gt;2</title>
<path fill="none" stroke="green" stroke-width="0.408247" d="M1308.33,-200.428C1304.52,-194.302 1298.51,-186.405 1290.92,-182.309 1163.02,-113.295 1103.06,-194.397 965.918,-146.309 958.081,-143.56 950.199,-139.122 943.415,-134.652"/>
<polygon fill="green" stroke="green" stroke-width="0.408247" points="945.143,-131.589 934.952,-128.695 941.114,-137.313 945.143,-131.589"/>
</g>
<!-- 8619 -->
<g id="node39" class="node"><title>8619</title>
<ellipse fill="white" stroke="black" cx="999.918" cy="-118.731" rx="25" ry="25"/>
<text text-anchor="middle" x="999.918" y="-116.531" font-family="Times,serif" font-size="9.00">8619</text>
</g>
<!-- &#45;3&#45;&gt;8619 -->
<g id="edge47" class="edge"><title>&#45;3&#45;&gt;8619</title>
<path fill="none" stroke="red" stroke-width="0.529312" d="M1308.29,-200.489C1304.47,-194.396 1298.45,-186.512 1290.92,-182.309 1189.82,-125.891 1139.18,-192.281 1032.92,-146.309 1030.5,-145.261 1028.1,-143.985 1025.78,-142.565"/>
<polygon fill="red" stroke="red" stroke-width="0.529312" points="1027.45,-139.456 1017.26,-136.556 1023.41,-145.177 1027.45,-139.456"/>
</g>
<!-- &#45;4 -->
<g id="node4" class="node"><title>&#45;4</title>
<polygon fill="lightgray" stroke="black" points="238.918,-310.04 214.918,-310.04 214.918,-292.04 238.918,-292.04 238.918,-310.04"/>
<text text-anchor="middle" x="226.918" y="-298.84" font-family="Times,serif" font-size="9.00">&#45;4</text>
</g>
<!-- &#45;4&#45;&gt;0 -->
<g id="edge52" class="edge"><title>&#45;4&#45;&gt;0</title>
<path fill="none" stroke="green" stroke-width="0.476136" stroke-dasharray="1,5" d="M238.973,-299.001C293.002,-294.174 512.755,-272.666 570.918,-237.463 597.509,-221.369 587.976,-199.43 613.918,-182.309 681.675,-137.589 780.058,-124.769 825.795,-121.139"/>
<polygon fill="green" stroke="green" stroke-width="0.476136" points="826.261,-124.615 835.988,-120.416 825.766,-117.633 826.261,-124.615"/>
</g>
<!-- &#45;4&#45;&gt;1 -->
<g id="edge73" class="edge"><title>&#45;4&#45;&gt;1</title>
<path fill="none" stroke="red" stroke-width="0.316688" stroke-dasharray="1,5" d="M228.668,-291.964C233.618,-270.976 249.635,-214.138 283.918,-182.309 315.792,-152.715 340.883,-173.39 374.918,-146.309 398.212,-127.774 387.224,-106.185 412.918,-91.1543 470.897,-57.2376 956.073,-34.602 1072.76,-29.6162"/>
<polygon fill="red" stroke="red" stroke-width="0.316688" points="1073.03,-33.108 1082.87,-29.189 1072.73,-26.1142 1073.03,-33.108"/>
</g>
<!-- &#45;4&#45;&gt;3 -->
<g id="edge28" class="edge"><title>&#45;4&#45;&gt;3</title>
<path fill="none" stroke="green" stroke-width="0.276545" d="M225.057,-291.95C222.327,-280.035 217.107,-257.059 212.918,-237.463 205.96,-204.914 198.352,-167.202 193.607,-143.409"/>
<polygon fill="green" stroke="green" stroke-width="0.276545" points="197.025,-142.649 191.641,-133.524 190.159,-144.015 197.025,-142.649"/>
</g>
<!-- 12191 -->
<g id="node35" class="node"><title>12191</title>
<ellipse fill="white" stroke="black" cx="132.918" cy="-209.886" rx="27.6545" ry="27.6545"/>
<text text-anchor="middle" x="132.918" y="-207.686" font-family="Times,serif" font-size="9.00">12191</text>
</g>
<!-- &#45;4&#45;&gt;12191 -->
<g id="edge46" class="edge"><title>&#45;4&#45;&gt;12191</title>
<path fill="none" stroke="red" stroke-width="0.666493" d="M218.243,-291.813C205.163,-279.406 179.828,-255.378 160.148,-236.712"/>
<polygon fill="red" stroke="red" stroke-width="0.666493" points="162.316,-233.945 152.652,-229.603 157.499,-239.024 162.316,-233.945"/>
</g>
<!-- 11487 -->
<g id="node44" class="node"><title>11487</title>
<ellipse fill="white" stroke="black" cx="650.918" cy="-209.886" rx="27.6545" ry="27.6545"/>
<text text-anchor="middle" x="650.918" y="-207.686" font-family="Times,serif" font-size="9.00">11487</text>
</g>
<!-- &#45;4&#45;&gt;11487 -->
<g id="edge61" class="edge"><title>&#45;4&#45;&gt;11487</title>
<path fill="none" stroke="green" stroke-width="0.539633" d="M239.257,-298.691C296.717,-292.309 538.248,-264.328 608.918,-237.463 612.711,-236.021 616.529,-234.212 620.233,-232.219"/>
<polygon fill="green" stroke="green" stroke-width="0.539633" points="622.281,-235.075 629.13,-226.992 618.735,-229.04 622.281,-235.075"/>
</g>
<!-- &#45;5 -->
<g id="node5" class="node"><title>&#45;5</title>
<polygon fill="lightgray" stroke="black" points="43.918,-310.04 19.918,-310.04 19.918,-292.04 43.918,-292.04 43.918,-310.04"/>
<text text-anchor="middle" x="31.918" y="-298.84" font-family="Times,serif" font-size="9.00">&#45;5</text>
</g>
<!-- &#45;5&#45;&gt;0 -->
<g id="edge42" class="edge"><title>&#45;5&#45;&gt;0</title>
<path fill="none" stroke="red" stroke-width="2.37518" d="M44.1277,-297.989C72.4821,-293.267 145.013,-281.423 205.918,-273.463 279.283,-263.875 474.362,-276.975 536.918,-237.463 561.265,-222.085 547.467,-199.02 570.918,-182.309 591.913,-167.348 762.063,-135.661 826.4,-124.084"/>
<polygon fill="red" stroke="red" stroke-width="2.37518" points="827.227,-127.491 836.454,-122.283 825.993,-120.601 827.227,-127.491"/>
</g>
<!-- &#45;5&#45;&gt;1 -->
<g id="edge21" class="edge"><title>&#45;5&#45;&gt;1</title>
<path fill="none" stroke="green" stroke-width="0.146425" stroke-dasharray="1,5" d="M26.7215,-292.006C14.5327,-272.051 -13.3142,-219.187 7.91802,-182.309 48.176,-112.383 87.7527,-114.729 164.918,-91.1543 341.615,-37.172 941.677,-29.7138 1072.57,-28.7236"/>
<polygon fill="green" stroke="green" stroke-width="0.146425" points="1072.82,-32.222 1082.8,-28.6525 1072.77,-25.2222 1072.82,-32.222"/>
</g>
<!-- &#45;5&#45;&gt;3 -->
<g id="edge56" class="edge"><title>&#45;5&#45;&gt;3</title>
<path fill="none" stroke="green" stroke-width="0.465577" stroke-dasharray="1,5" d="M28.1424,-291.999C19.1641,-271.574 -0.988354,-216.869 22.918,-182.309 54.9715,-135.97 125.985,-123.903 163.907,-120.79"/>
<polygon fill="green" stroke="green" stroke-width="0.465577" points="164.358,-124.268 174.1,-120.106 163.888,-117.284 164.358,-124.268"/>
</g>
<!-- 10790 -->
<g id="node36" class="node"><title>10790</title>
<ellipse fill="white" stroke="black" cx="59.918" cy="-209.886" rx="27.6545" ry="27.6545"/>
<text text-anchor="middle" x="59.918" y="-207.686" font-family="Times,serif" font-size="9.00">10790</text>
</g>
<!-- &#45;5&#45;&gt;10790 -->
<g id="edge37" class="edge"><title>&#45;5&#45;&gt;10790</title>
<path fill="none" stroke="red" stroke-width="0.894051" stroke-dasharray="1,5" d="M34.502,-291.813C37.784,-281.362 43.6559,-262.666 48.9295,-245.874"/>
<polygon fill="red" stroke="red" stroke-width="0.894051" points="52.284,-246.874 51.9412,-236.285 45.6056,-244.777 52.284,-246.874"/>
</g>
<!-- &#45;6 -->
<g id="node6" class="node"><title>&#45;6</title>
<polygon fill="lightgray" stroke="black" points="1344.92,-468.115 1320.92,-468.115 1320.92,-450.115 1344.92,-450.115 1344.92,-468.115"/>
<text text-anchor="middle" x="1332.92" y="-456.915" font-family="Times,serif" font-size="9.00">&#45;6</text>
</g>
<!-- 9899 -->
<g id="node38" class="node"><title>9899</title>
<ellipse fill="white" stroke="black" cx="1354.92" cy="-389.366" rx="25" ry="25"/>
<text text-anchor="middle" x="1354.92" y="-387.166" font-family="Times,serif" font-size="9.00">9899</text>
</g>
<!-- &#45;6&#45;&gt;9899 -->
<g id="edge78" class="edge"><title>&#45;6&#45;&gt;9899</title>
<path fill="none" stroke="red" stroke-width="0.160305" d="M1335.53,-450.077C1337.75,-443.224 1341.11,-432.898 1344.4,-422.75"/>
<polygon fill="red" stroke="red" stroke-width="0.160305" points="1347.75,-423.787 1347.5,-413.195 1341.09,-421.625 1347.75,-423.787"/>
</g>
<!-- &#45;7 -->
<g id="node7" class="node"><title>&#45;7</title>
<polygon fill="lightgray" stroke="black" points="1508.92,-218.886 1484.92,-218.886 1484.92,-200.886 1508.92,-200.886 1508.92,-218.886"/>
<text text-anchor="middle" x="1496.92" y="-207.686" font-family="Times,serif" font-size="9.00">&#45;7</text>
</g>
<!-- &#45;7&#45;&gt;1 -->
<g id="edge74" class="edge"><title>&#45;7&#45;&gt;1</title>
<path fill="none" stroke="red" stroke-width="0.105675" stroke-dasharray="1,5" d="M1502.2,-200.874C1515.23,-180.042 1545.84,-123.549 1517.92,-91.1543 1466.26,-31.2305 1205.99,-27.8008 1123.23,-28.257"/>
<polygon fill="red" stroke="red" stroke-width="0.105675" points="1122.95,-24.759 1112.98,-28.3394 1123,-31.7588 1122.95,-24.759"/>
</g>
<!-- 6941 -->
<g id="node33" class="node"><title>6941</title>
<ellipse fill="white" stroke="black" cx="1589.92" cy="-118.731" rx="25" ry="25"/>
<text text-anchor="middle" x="1589.92" y="-116.531" font-family="Times,serif" font-size="9.00">6941</text>
</g>
<!-- &#45;7&#45;&gt;6941 -->
<g id="edge19" class="edge"><title>&#45;7&#45;&gt;6941</title>
<path fill="none" stroke="red" stroke-width="0.388101" d="M1504.56,-200.886C1509.69,-195.561 1516.64,-188.444 1522.92,-182.309 1536.49,-169.044 1551.96,-154.558 1564.61,-142.868"/>
<polygon fill="red" stroke="red" stroke-width="0.388101" points="1567.1,-145.336 1572.08,-135.986 1562.35,-140.188 1567.1,-145.336"/>
</g>
<!-- 10155 -->
<g id="node40" class="node"><title>10155</title>
<ellipse fill="white" stroke="black" cx="1480.92" cy="-118.731" rx="27.6545" ry="27.6545"/>
<text text-anchor="middle" x="1480.92" y="-116.531" font-family="Times,serif" font-size="9.00">10155</text>
</g>
<!-- &#45;7&#45;&gt;10155 -->
<g id="edge43" class="edge"><title>&#45;7&#45;&gt;10155</title>
<path fill="none" stroke="red" stroke-width="0.309808" d="M1495.44,-200.658C1493.61,-190.449 1490.36,-172.367 1487.41,-155.882"/>
<polygon fill="red" stroke="red" stroke-width="0.309808" points="1490.83,-155.133 1485.62,-145.908 1483.94,-156.369 1490.83,-155.133"/>
</g>
<!-- &#45;7&#45;&gt;10337 -->
<g id="edge51" class="edge"><title>&#45;7&#45;&gt;10337</title>
<path fill="none" stroke="green" stroke-width="0.632507" d="M1492.23,-200.606C1488.37,-194.574 1482.33,-186.716 1474.92,-182.309 1403.29,-139.733 1367.19,-179.873 1290.92,-146.309 1288.78,-145.368 1286.65,-144.282 1284.55,-143.097"/>
<polygon fill="green" stroke="green" stroke-width="0.632507" points="1285.97,-139.849 1275.65,-137.419 1282.2,-145.75 1285.97,-139.849"/>
</g>
<!-- &#45;8 -->
<g id="node8" class="node"><title>&#45;8</title>
<polygon fill="lightgray" stroke="black" points="482.918,-310.04 458.918,-310.04 458.918,-292.04 482.918,-292.04 482.918,-310.04"/>
<text text-anchor="middle" x="470.918" y="-298.84" font-family="Times,serif" font-size="9.00">&#45;8</text>
</g>
<!-- &#45;8&#45;&gt;0 -->
<g id="edge79" class="edge"><title>&#45;8&#45;&gt;0</title>
<path fill="none" stroke="red" stroke-width="0.27269" stroke-dasharray="1,5" d="M482.919,-297.691C523.3,-289.618 653.635,-262.152 687.918,-237.463 712.074,-220.067 703.457,-201.843 725.918,-182.309 756.472,-155.736 800.298,-137.219 827.116,-127.545"/>
<polygon fill="red" stroke="red" stroke-width="0.27269" points="828.534,-130.757 836.825,-124.161 826.231,-124.147 828.534,-130.757"/>
</g>
<!-- &#45;8&#45;&gt;10026 -->
<g id="edge8" class="edge"><title>&#45;8&#45;&gt;10026</title>
<path fill="none" stroke="green" stroke-width="0.485208" d="M461.413,-291.813C446.687,-279.066 417.787,-254.051 395.996,-235.19"/>
<polygon fill="green" stroke="green" stroke-width="0.485208" points="398.181,-232.451 388.329,-228.553 393.599,-237.744 398.181,-232.451"/>
</g>
<!-- &#45;9 -->
<g id="node9" class="node"><title>&#45;9</title>
<polygon fill="lightgray" stroke="black" points="1012.92,-218.886 988.918,-218.886 988.918,-200.886 1012.92,-200.886 1012.92,-218.886"/>
<text text-anchor="middle" x="1000.92" y="-207.686" font-family="Times,serif" font-size="9.00">&#45;9</text>
</g>
<!-- &#45;9&#45;&gt;0 -->
<g id="edge50" class="edge"><title>&#45;9&#45;&gt;0</title>
<path fill="none" stroke="red" stroke-width="1.50087" d="M995.562,-200.601C991.532,-194.877 985.576,-187.407 978.918,-182.309 948.282,-158.851 934.453,-163.517 899.918,-146.309 890.856,-141.793 881.016,-136.529 872.549,-131.883"/>
<polygon fill="red" stroke="red" stroke-width="1.50087" points="874.129,-128.757 863.686,-126.973 870.737,-134.88 874.129,-128.757"/>
</g>
<!-- &#45;9&#45;&gt;2 -->
<g id="edge9" class="edge"><title>&#45;9&#45;&gt;2</title>
<path fill="none" stroke="green" stroke-width="0.631191" d="M994.045,-200.454C989.738,-195.202 984.049,-188.324 978.918,-182.309 966.105,-167.288 951.319,-150.494 940.307,-138.089"/>
<polygon fill="green" stroke="green" stroke-width="0.631191" points="942.619,-135.422 933.357,-130.277 937.389,-140.075 942.619,-135.422"/>
</g>
<!-- &#45;10 -->
<g id="node10" class="node"><title>&#45;10</title>
<polygon fill="lightgray" stroke="black" points="322.418,-218.886 293.418,-218.886 293.418,-200.886 322.418,-200.886 322.418,-218.886"/>
<text text-anchor="middle" x="307.918" y="-207.686" font-family="Times,serif" font-size="9.00">&#45;10</text>
</g>
<!-- &#45;10&#45;&gt;0 -->
<g id="edge36" class="edge"><title>&#45;10&#45;&gt;0</title>
<path fill="none" stroke="green" stroke-width="0.45042" d="M312.818,-200.444C316.852,-194.327 323.159,-186.433 330.918,-182.309 375.13,-158.806 728.208,-129.422 825.929,-121.676"/>
<polygon fill="green" stroke="green" stroke-width="0.45042" points="826.363,-125.152 836.057,-120.878 825.813,-118.174 826.363,-125.152"/>
</g>
<!-- &#45;10&#45;&gt;3 -->
<g id="edge18" class="edge"><title>&#45;10&#45;&gt;3</title>
<path fill="none" stroke="green" stroke-width="0.242992" stroke-dasharray="1,5" d="M299.556,-200.666C293.902,-195.249 286.171,-188.11 278.918,-182.309 256.162,-164.105 228.428,-145.289 209.813,-133.106"/>
<polygon fill="green" stroke="green" stroke-width="0.242992" points="211.521,-130.042 201.227,-127.534 207.71,-135.914 211.521,-130.042"/>
</g>
<!-- &#45;11 -->
<g id="node11" class="node"><title>&#45;11</title>
<polygon fill="lightgray" stroke="black" points="1060.42,-218.886 1031.42,-218.886 1031.42,-200.886 1060.42,-200.886 1060.42,-218.886"/>
<text text-anchor="middle" x="1045.92" y="-207.686" font-family="Times,serif" font-size="9.00">&#45;11</text>
</g>
<!-- &#45;11&#45;&gt;0 -->
<g id="edge24" class="edge"><title>&#45;11&#45;&gt;0</title>
<path fill="none" stroke="red" stroke-width="0.247744" stroke-dasharray="1,5" d="M1040.51,-200.814C1036.14,-194.89 1029.5,-187.076 1021.92,-182.309 974.068,-152.201 952.164,-167.905 899.918,-146.309 890.561,-142.441 880.667,-137.295 872.239,-132.563"/>
<polygon fill="red" stroke="red" stroke-width="0.247744" points="873.862,-129.458 863.453,-127.485 870.36,-135.519 873.862,-129.458"/>
</g>
<!-- &#45;11&#45;&gt;2 -->
<g id="edge68" class="edge"><title>&#45;11&#45;&gt;2</title>
<path fill="none" stroke="green" stroke-width="0.563426" stroke-dasharray="1,5" d="M1039.3,-200.442C1034.74,-194.93 1028.37,-187.77 1021.92,-182.309 1020.2,-180.852 973.079,-150.907 944.815,-132.977"/>
<polygon fill="green" stroke="green" stroke-width="0.563426" points="946.364,-129.816 936.045,-127.416 942.615,-135.727 946.364,-129.816"/>
</g>
<!-- &#45;11&#45;&gt;8619 -->
<g id="edge13" class="edge"><title>&#45;11&#45;&gt;8619</title>
<path fill="none" stroke="green" stroke-width="0.1923" d="M1041.67,-200.658C1035.76,-189.205 1024.74,-167.847 1015.51,-149.947"/>
<polygon fill="green" stroke="green" stroke-width="0.1923" points="1018.57,-148.255 1010.88,-140.973 1012.35,-151.465 1018.57,-148.255"/>
</g>
<!-- &#45;12 -->
<g id="node12" class="node"><title>&#45;12</title>
<polygon fill="lightgray" stroke="black" points="1329.42,-127.731 1300.42,-127.731 1300.42,-109.731 1329.42,-109.731 1329.42,-127.731"/>
<text text-anchor="middle" x="1314.92" y="-116.531" font-family="Times,serif" font-size="9.00">&#45;12</text>
</g>
<!-- &#45;12&#45;&gt;1 -->
<g id="edge27" class="edge"><title>&#45;12&#45;&gt;1</title>
<path fill="none" stroke="red" stroke-width="0.559782" stroke-dasharray="1,5" d="M1309.77,-109.707C1305.61,-103.807 1299.25,-96.0044 1291.92,-91.1543 1237.7,-55.2653 1161.38,-38.6586 1122.61,-32.1424"/>
<polygon fill="red" stroke="red" stroke-width="0.559782" points="1123.15,-28.6838 1112.72,-30.5644 1122.04,-35.5964 1123.15,-28.6838"/>
</g>
<!-- &#45;13 -->
<g id="node13" class="node"><title>&#45;13</title>
<polygon fill="lightgray" stroke="black" points="764.418,-218.886 735.418,-218.886 735.418,-200.886 764.418,-200.886 764.418,-218.886"/>
<text text-anchor="middle" x="749.918" y="-207.686" font-family="Times,serif" font-size="9.00">&#45;13</text>
</g>
<!-- &#45;13&#45;&gt;0 -->
<g id="edge77" class="edge"><title>&#45;13&#45;&gt;0</title>
<path fill="none" stroke="green" stroke-width="1.34397" d="M756.402,-200.637C760.824,-195.207 766.942,-188.066 772.918,-182.309 791.484,-164.421 814.757,-146.229 831.029,-134.105"/>
<polygon fill="green" stroke="green" stroke-width="1.34397" points="833.296,-136.782 839.274,-128.034 829.146,-131.145 833.296,-136.782"/>
</g>
<!-- &#45;14 -->
<g id="node14" class="node"><title>&#45;14</title>
<polygon fill="lightgray" stroke="black" points="1372.42,-218.886 1343.42,-218.886 1343.42,-200.886 1372.42,-200.886 1372.42,-218.886"/>
<text text-anchor="middle" x="1357.92" y="-207.686" font-family="Times,serif" font-size="9.00">&#45;14</text>
</g>
<!-- &#45;14&#45;&gt;1 -->
<g id="edge82" class="edge"><title>&#45;14&#45;&gt;1</title>
<path fill="none" stroke="red" stroke-width="1.10054" d="M1352.64,-200.596C1348.34,-194.557 1341.72,-186.697 1333.92,-182.309 1259.38,-140.396 1210.89,-200.712 1144.92,-146.309 1116.56,-122.926 1105.2,-79.953 1100.73,-52.897"/>
<polygon fill="red" stroke="red" stroke-width="1.10054" points="1104.15,-52.1045 1099.25,-42.7133 1097.22,-53.1133 1104.15,-52.1045"/>
</g>
<!-- &#45;14&#45;&gt;2 -->
<g id="edge67" class="edge"><title>&#45;14&#45;&gt;2</title>
<path fill="none" stroke="red" stroke-width="0.19814" d="M1352.75,-200.39C1348.51,-194.244 1341.91,-186.338 1333.92,-182.309 1187.17,-108.336 1121.34,-199.693 965.918,-146.309 958.063,-143.611 950.178,-139.185 943.395,-134.711"/>
<polygon fill="red" stroke="red" stroke-width="0.19814" points="945.124,-131.647 934.936,-128.74 941.087,-137.366 945.124,-131.647"/>
</g>
<!-- 12046 -->
<g id="node30" class="node"><title>12046</title>
<ellipse fill="white" stroke="black" cx="1069.92" cy="-118.731" rx="27.6545" ry="27.6545"/>
<text text-anchor="middle" x="1069.92" y="-116.531" font-family="Times,serif" font-size="9.00">12046</text>
</g>
<!-- &#45;14&#45;&gt;12046 -->
<g id="edge63" class="edge"><title>&#45;14&#45;&gt;12046</title>
<path fill="none" stroke="red" stroke-width="0.238725" d="M1352.67,-200.534C1348.39,-194.463 1341.78,-186.589 1333.92,-182.309 1246.13,-134.516 1205.38,-181.752 1111.92,-146.309 1108.12,-144.87 1104.31,-143.062 1100.6,-141.071"/>
<polygon fill="red" stroke="red" stroke-width="0.238725" points="1102.1,-137.891 1091.7,-135.845 1098.55,-143.927 1102.1,-137.891"/>
</g>
<!-- &#45;15 -->
<g id="node15" class="node"><title>&#45;15</title>
<polygon fill="lightgray" stroke="black" points="1466.42,-218.886 1437.42,-218.886 1437.42,-200.886 1466.42,-200.886 1466.42,-218.886"/>
<text text-anchor="middle" x="1451.92" y="-207.686" font-family="Times,serif" font-size="9.00">&#45;15</text>
</g>
<!-- 4550 -->
<g id="node43" class="node"><title>4550</title>
<ellipse fill="white" stroke="black" cx="1371.92" cy="-118.731" rx="25" ry="25"/>
<text text-anchor="middle" x="1371.92" y="-116.531" font-family="Times,serif" font-size="9.00">4550</text>
</g>
<!-- &#45;15&#45;&gt;4550 -->
<g id="edge44" class="edge"><title>&#45;15&#45;&gt;4550</title>
<path fill="none" stroke="red" stroke-width="0.295891" stroke-dasharray="1,5" d="M1444.54,-200.658C1433.37,-188.211 1411.7,-164.064 1394.93,-145.373"/>
<polygon fill="red" stroke="red" stroke-width="0.295891" points="1397.37,-142.852 1388.08,-137.746 1392.16,-147.527 1397.37,-142.852"/>
</g>
<!-- &#45;16 -->
<g id="node16" class="node"><title>&#45;16</title>
<polygon fill="lightgray" stroke="black" points="528.418,-218.886 499.418,-218.886 499.418,-200.886 528.418,-200.886 528.418,-218.886"/>
<text text-anchor="middle" x="513.918" y="-207.686" font-family="Times,serif" font-size="9.00">&#45;16</text>
</g>
<!-- &#45;16&#45;&gt;0 -->
<g id="edge32" class="edge"><title>&#45;16&#45;&gt;0</title>
<path fill="none" stroke="red" stroke-width="0.110905" stroke-dasharray="1,5" d="M520.682,-200.639C526.075,-194.624 534.155,-186.772 542.918,-182.309 568.359,-169.349 758.082,-135.751 826.451,-123.925"/>
<polygon fill="red" stroke="red" stroke-width="0.110905" points="827.079,-127.368 836.338,-122.22 825.889,-120.47 827.079,-127.368"/>
</g>
<!-- &#45;16&#45;&gt;1 -->
<g id="edge48" class="edge"><title>&#45;16&#45;&gt;1</title>
<path fill="none" stroke="red" stroke-width="0.368524" stroke-dasharray="1,5" d="M508.629,-200.609C504.328,-194.578 497.708,-186.72 489.918,-182.309 417.789,-141.462 359.572,-210.33 306.918,-146.309 291.347,-127.376 290.282,-109.158 306.918,-91.1543 360.116,-33.5812 944.034,-28.9175 1072.86,-28.5911"/>
<polygon fill="red" stroke="red" stroke-width="0.368524" points="1072.95,-32.0911 1082.94,-28.5724 1072.94,-25.0911 1072.95,-32.0911"/>
</g>
<!-- &#45;17 -->
<g id="node17" class="node"><title>&#45;17</title>
<polygon fill="lightgray" stroke="black" points="1419.42,-218.886 1390.42,-218.886 1390.42,-200.886 1419.42,-200.886 1419.42,-218.886"/>
<text text-anchor="middle" x="1404.92" y="-207.686" font-family="Times,serif" font-size="9.00">&#45;17</text>
</g>
<!-- &#45;17&#45;&gt;1 -->
<g id="edge70" class="edge"><title>&#45;17&#45;&gt;1</title>
<path fill="none" stroke="red" stroke-width="0.49849" stroke-dasharray="1,5" d="M1408.18,-200.593C1415.84,-179.577 1432.43,-123.6 1405.92,-91.1543 1370.1,-47.3304 1190.08,-33.4395 1123.08,-29.7469"/>
<polygon fill="red" stroke="red" stroke-width="0.49849" points="1123.16,-26.2462 1112.99,-29.2216 1122.8,-33.2367 1123.16,-26.2462"/>
</g>
<!-- 11953 -->
<g id="node41" class="node"><title>11953</title>
<ellipse fill="white" stroke="black" cx="1181.92" cy="-118.731" rx="27.6545" ry="27.6545"/>
<text text-anchor="middle" x="1181.92" y="-116.531" font-family="Times,serif" font-size="9.00">11953</text>
</g>
<!-- &#45;17&#45;&gt;11953 -->
<g id="edge62" class="edge"><title>&#45;17&#45;&gt;11953</title>
<path fill="none" stroke="red" stroke-width="0.566661" d="M1399.6,-200.661C1395.28,-194.657 1388.66,-186.81 1380.92,-182.309 1316.79,-145.006 1285.46,-177.011 1217.92,-146.309 1215.63,-145.268 1213.34,-144.065 1211.09,-142.758"/>
<polygon fill="red" stroke="red" stroke-width="0.566661" points="1212.99,-139.818 1202.7,-137.323 1209.19,-145.695 1212.99,-139.818"/>
</g>
<!-- &#45;18 -->
<g id="node18" class="node"><title>&#45;18</title>
<polygon fill="lightgray" stroke="black" points="923.418,-218.886 894.418,-218.886 894.418,-200.886 923.418,-200.886 923.418,-218.886"/>
<text text-anchor="middle" x="908.918" y="-207.686" font-family="Times,serif" font-size="9.00">&#45;18</text>
</g>
<!-- &#45;18&#45;&gt;0 -->
<g id="edge41" class="edge"><title>&#45;18&#45;&gt;0</title>
<path fill="none" stroke="green" stroke-width="0.110735" stroke-dasharray="1,5" d="M903.565,-200.658C894.697,-187.026 876.698,-159.359 864.231,-140.196"/>
<polygon fill="green" stroke="green" stroke-width="0.110735" points="867.007,-138.044 858.62,-131.57 861.139,-141.861 867.007,-138.044"/>
</g>
<!-- &#45;18&#45;&gt;2 -->
<g id="edge38" class="edge"><title>&#45;18&#45;&gt;2</title>
<path fill="none" stroke="green" stroke-width="0.166661" d="M910.302,-200.658C912.471,-187.77 916.75,-162.338 919.935,-143.407"/>
<polygon fill="green" stroke="green" stroke-width="0.166661" points="923.408,-143.86 921.615,-133.418 916.505,-142.698 923.408,-143.86"/>
</g>
<!-- &#45;18&#45;&gt;3 -->
<g id="edge53" class="edge"><title>&#45;18&#45;&gt;3</title>
<path fill="none" stroke="red" stroke-width="0.328087" stroke-dasharray="1,5" d="M894.123,-200.848C881.86,-194.608 863.771,-186.357 846.918,-182.309 613.04,-126.122 544.959,-180.838 306.918,-146.309 273.938,-141.525 236.502,-132.459 212.808,-126.258"/>
<polygon fill="red" stroke="red" stroke-width="0.328087" points="213.517,-122.825 202.954,-123.637 211.718,-129.59 213.517,-122.825"/>
</g>
<!-- &#45;19 -->
<g id="node19" class="node"><title>&#45;19</title>
<polygon fill="lightgray" stroke="black" points="970.418,-218.886 941.418,-218.886 941.418,-200.886 970.418,-200.886 970.418,-218.886"/>
<text text-anchor="middle" x="955.918" y="-207.686" font-family="Times,serif" font-size="9.00">&#45;19</text>
</g>
<!-- &#45;19&#45;&gt;0 -->
<g id="edge57" class="edge"><title>&#45;19&#45;&gt;0</title>
<path fill="none" stroke="green" stroke-width="0.627393" d="M949.131,-200.628C944.507,-195.195 938.122,-188.054 931.918,-182.309 912.447,-164.276 888.127,-145.987 871.243,-133.877"/>
<polygon fill="green" stroke="green" stroke-width="0.627393" points="872.888,-130.753 862.705,-127.826 868.84,-136.464 872.888,-130.753"/>
</g>
<!-- &#45;19&#45;&gt;2 -->
<g id="edge22" class="edge"><title>&#45;19&#45;&gt;2</title>
<path fill="none" stroke="green" stroke-width="0.36003" stroke-dasharray="1,5" d="M952.965,-200.658C948.27,-187.577 938.936,-161.573 932.112,-142.561"/>
<polygon fill="green" stroke="green" stroke-width="0.36003" points="935.39,-141.333 928.717,-133.103 928.801,-143.697 935.39,-141.333"/>
</g>
<!-- &#45;20 -->
<g id="node20" class="node"><title>&#45;20</title>
<polygon fill="lightgray" stroke="black" points="1107.42,-218.886 1078.42,-218.886 1078.42,-200.886 1107.42,-200.886 1107.42,-218.886"/>
<text text-anchor="middle" x="1092.92" y="-207.686" font-family="Times,serif" font-size="9.00">&#45;20</text>
</g>
<!-- &#45;20&#45;&gt;2 -->
<g id="edge2" class="edge"><title>&#45;20&#45;&gt;2</title>
<path fill="none" stroke="green" stroke-width="0.379934" stroke-dasharray="1,5" d="M1087.25,-200.674C1082.85,-194.836 1076.27,-187.193 1068.92,-182.309 1028.52,-155.479 1009.58,-167.411 965.918,-146.309 958.547,-142.746 950.871,-138.174 944.128,-133.83"/>
<polygon fill="green" stroke="green" stroke-width="0.379934" points="945.89,-130.798 935.628,-128.163 942.008,-136.622 945.89,-130.798"/>
</g>
<!-- &#45;21 -->
<g id="node21" class="node"><title>&#45;21</title>
<polygon fill="lightgray" stroke="black" points="1235.42,-218.886 1206.42,-218.886 1206.42,-200.886 1235.42,-200.886 1235.42,-218.886"/>
<text text-anchor="middle" x="1220.92" y="-207.686" font-family="Times,serif" font-size="9.00">&#45;21</text>
</g>
<!-- &#45;21&#45;&gt;0 -->
<g id="edge29" class="edge"><title>&#45;21&#45;&gt;0</title>
<path fill="none" stroke="green" stroke-width="3.54365" d="M1215.72,-200.443C1211.47,-194.324 1204.87,-186.431 1196.92,-182.309 1078.88,-121.089 1026.59,-186.72 899.918,-146.309 890.138,-143.189 880.049,-138.091 871.588,-133.19"/>
<polygon fill="green" stroke="green" stroke-width="3.54365" points="873.19,-130.068 862.828,-127.857 869.549,-136.047 873.19,-130.068"/>
</g>
<!-- &#45;21&#45;&gt;2 -->
<g id="edge66" class="edge"><title>&#45;21&#45;&gt;2</title>
<path fill="none" stroke="green" stroke-width="0.243259" d="M1215.68,-200.52C1211.4,-194.442 1204.79,-186.565 1196.92,-182.309 1105.51,-132.908 1063.19,-182.853 965.918,-146.309 958.254,-143.429 950.502,-139.034 943.78,-134.642"/>
<polygon fill="green" stroke="green" stroke-width="0.243259" points="945.568,-131.622 935.357,-128.797 941.577,-137.373 945.568,-131.622"/>
</g>
<!-- &#45;21&#45;&gt;4550 -->
<g id="edge16" class="edge"><title>&#45;21&#45;&gt;4550</title>
<path fill="none" stroke="green" stroke-width="0.151309" d="M1226.5,-200.482C1230.7,-194.702 1236.92,-187.214 1243.92,-182.309 1280.55,-156.622 1298.98,-168.328 1337.92,-146.309 1340.42,-144.891 1342.95,-143.3 1345.42,-141.62"/>
<polygon fill="green" stroke="green" stroke-width="0.151309" points="1347.54,-144.404 1353.56,-135.684 1343.42,-138.747 1347.54,-144.404"/>
</g>
<!-- &#45;22 -->
<g id="node22" class="node"><title>&#45;22</title>
<polygon fill="lightgray" stroke="black" points="481.418,-218.886 452.418,-218.886 452.418,-200.886 481.418,-200.886 481.418,-218.886"/>
<text text-anchor="middle" x="466.918" y="-207.686" font-family="Times,serif" font-size="9.00">&#45;22</text>
</g>
<!-- &#45;22&#45;&gt;1 -->
<g id="edge34" class="edge"><title>&#45;22&#45;&gt;1</title>
<path fill="none" stroke="green" stroke-width="0.176215" stroke-dasharray="1,5" d="M472,-200.759C476.13,-194.807 482.477,-186.982 489.918,-182.309 621.313,-99.785 676.412,-128.872 826.918,-91.1543 917.518,-68.4492 1025.93,-44.329 1073.5,-33.8951"/>
<polygon fill="green" stroke="green" stroke-width="0.176215" points="1074.46,-37.2695 1083.48,-31.7131 1072.96,-30.4312 1074.46,-37.2695"/>
</g>
<!-- &#45;22&#45;&gt;2 -->
<g id="edge58" class="edge"><title>&#45;22&#45;&gt;2</title>
<path fill="none" stroke="red" stroke-width="0.456645" d="M471.787,-200.385C475.805,-194.236 482.105,-186.33 489.918,-182.309 642.724,-103.661 710.49,-196.292 874.918,-146.309 884.74,-143.323 894.836,-138.248 903.292,-133.328"/>
<polygon fill="red" stroke="red" stroke-width="0.456645" points="905.348,-136.173 912.04,-127.959 901.686,-130.207 905.348,-136.173"/>
</g>
<!-- &#45;22&#45;&gt;3 -->
<g id="edge65" class="edge"><title>&#45;22&#45;&gt;3</title>
<path fill="none" stroke="red" stroke-width="0.496086" d="M452.36,-201.973C439.935,-196.238 421.499,-188.11 404.918,-182.309 347.925,-162.367 331.853,-163.321 273.918,-146.309 253.156,-140.212 229.691,-132.838 212.683,-127.406"/>
<polygon fill="red" stroke="red" stroke-width="0.496086" points="213.601,-124.025 203.01,-124.303 211.463,-130.69 213.601,-124.025"/>
</g>
<!-- &#45;23 -->
<g id="node23" class="node"><title>&#45;23</title>
<polygon fill="lightgray" stroke="black" points="1392.42,-468.115 1363.42,-468.115 1363.42,-450.115 1392.42,-450.115 1392.42,-468.115"/>
<text text-anchor="middle" x="1377.92" y="-456.915" font-family="Times,serif" font-size="9.00">&#45;23</text>
</g>
<!-- &#45;23&#45;&gt;9899 -->
<g id="edge72" class="edge"><title>&#45;23&#45;&gt;9899</title>
<path fill="none" stroke="green" stroke-width="0.127438" d="M1375.19,-450.077C1372.86,-443.224 1369.36,-432.898 1365.91,-422.75"/>
<polygon fill="green" stroke="green" stroke-width="0.127438" points="1369.2,-421.539 1362.67,-413.195 1362.57,-423.789 1369.2,-421.539"/>
</g>
<!-- &#45;24 -->
<g id="node24" class="node"><title>&#45;24</title>
<polygon fill="lightgray" stroke="black" points="1282.42,-218.886 1253.42,-218.886 1253.42,-200.886 1282.42,-200.886 1282.42,-218.886"/>
<text text-anchor="middle" x="1267.92" y="-207.686" font-family="Times,serif" font-size="9.00">&#45;24</text>
</g>
<!-- &#45;24&#45;&gt;0 -->
<g id="edge4" class="edge"><title>&#45;24&#45;&gt;0</title>
<path fill="none" stroke="green" stroke-width="0.151817" stroke-dasharray="1,5" d="M1262.74,-200.405C1258.49,-194.268 1251.9,-186.365 1243.92,-182.309 1106.88,-112.649 1046.75,-191.829 899.918,-146.309 890.113,-143.269 880.02,-138.185 871.562,-133.273"/>
<polygon fill="green" stroke="green" stroke-width="0.151817" points="873.166,-130.151 862.809,-127.918 869.513,-136.122 873.166,-130.151"/>
</g>
<!-- &#45;24&#45;&gt;6941 -->
<g id="edge11" class="edge"><title>&#45;24&#45;&gt;6941</title>
<path fill="none" stroke="green" stroke-width="0.226547" d="M1273.16,-200.528C1277.44,-194.454 1284.05,-186.578 1291.92,-182.309 1381.32,-133.802 1419.52,-172.042 1517.92,-146.309 1531.24,-142.824 1545.55,-137.82 1557.86,-133.092"/>
<polygon fill="green" stroke="green" stroke-width="0.226547" points="1559.24,-136.313 1567.26,-129.394 1556.67,-129.799 1559.24,-136.313"/>
</g>
<!-- 1&#45;&gt;1 -->
<g id="edge39" class="edge"><title>1&#45;&gt;1</title>
<path fill="none" stroke="green" stroke-width="0.362712" d="M1107,-39.6896C1117.93,-48.8412 1130.77,-44.8037 1130.77,-27.5772 1130.77,-15.061 1123.99,-9.50724 1116.09,-10.9159"/>
<polygon fill="green" stroke="green" stroke-width="0.362712" points="1114.38,-7.86065 1107,-15.4647 1117.51,-14.1211 1114.38,-7.86065"/>
</g>
<!-- 2&#45;&gt;2 -->
<g id="edge35" class="edge"><title>2&#45;&gt;2</title>
<path fill="none" stroke="green" stroke-width="0.387208" d="M932.999,-130.844C943.93,-139.996 956.767,-135.958 956.767,-118.731 956.767,-106.215 949.991,-100.662 942.092,-102.07"/>
<polygon fill="green" stroke="green" stroke-width="0.387208" points="940.376,-99.015 932.999,-106.619 943.508,-105.275 940.376,-99.015"/>
</g>
<!-- 3&#45;&gt;3 -->
<g id="edge23" class="edge"><title>3&#45;&gt;3</title>
<path fill="none" stroke="red" stroke-width="0.507344" d="M197.999,-130.844C208.93,-139.996 221.767,-135.958 221.767,-118.731 221.767,-106.215 214.991,-100.662 207.092,-102.07"/>
<polygon fill="red" stroke="red" stroke-width="0.507344" points="205.376,-99.015 197.999,-106.619 208.508,-105.275 205.376,-99.015"/>
</g>
<!-- 12447 -->
<g id="node34" class="node"><title>12447</title>
<ellipse fill="white" stroke="black" cx="188.918" cy="-27.5772" rx="27.6545" ry="27.6545"/>
<text text-anchor="middle" x="188.918" y="-25.3772" font-family="Times,serif" font-size="9.00">12447</text>
</g>
<!-- 3&#45;&gt;12447 -->
<g id="edge30" class="edge"><title>3&#45;&gt;12447</title>
<path fill="none" stroke="green" stroke-width="0.337367" d="M183.963,-104.576C182.485,-94.1549 181.92,-79.0714 182.267,-65.0845"/>
<polygon fill="green" stroke="green" stroke-width="0.337367" points="185.781,-64.838 182.711,-54.6977 178.787,-64.5392 185.781,-64.838"/>
</g>
<!-- 12424&#45;&gt;0 -->
<g id="edge7" class="edge"><title>12424&#45;&gt;0</title>
<path fill="none" stroke="red" stroke-width="0.227605" d="M821.121,-184.524C827.243,-171.213 834.768,-154.85 840.724,-141.899"/>
<polygon fill="red" stroke="red" stroke-width="0.227605" points="843.925,-143.315 844.923,-132.767 837.565,-140.39 843.925,-143.315"/>
</g>
<!-- 12046&#45;&gt;1 -->
<g id="edge31" class="edge"><title>12046&#45;&gt;1</title>
<path fill="none" stroke="red" stroke-width="0.253086" d="M1078.02,-91.9444C1082.03,-79.168 1086.83,-63.8709 1090.72,-51.5075"/>
<polygon fill="red" stroke="red" stroke-width="0.253086" points="1094.07,-52.5213 1093.72,-41.932 1087.39,-50.4238 1094.07,-52.5213"/>
</g>
<!-- 10899 -->
<g id="node31" class="node"><title>10899</title>
<ellipse fill="white" stroke="black" cx="1574.92" cy="-301.04" rx="27.6545" ry="27.6545"/>
<text text-anchor="middle" x="1574.92" y="-298.84" font-family="Times,serif" font-size="9.00">10899</text>
</g>
<!-- 10899&#45;&gt;6941 -->
<g id="edge25" class="edge"><title>10899&#45;&gt;6941</title>
<path fill="none" stroke="green" stroke-width="0.453365" stroke-dasharray="1,5" d="M1577.13,-273.435C1579.78,-241.653 1584.2,-188.432 1587.09,-153.704"/>
<polygon fill="green" stroke="green" stroke-width="0.453365" points="1590.59,-153.82 1587.94,-143.565 1583.62,-153.24 1590.59,-153.82"/>
</g>
<!-- 11118 -->
<g id="node46" class="node"><title>11118</title>
<ellipse fill="white" stroke="black" cx="1630.92" cy="-209.886" rx="27.6545" ry="27.6545"/>
<text text-anchor="middle" x="1630.92" y="-207.686" font-family="Times,serif" font-size="9.00">11118</text>
</g>
<!-- 10899&#45;&gt;11118 -->
<g id="edge59" class="edge"><title>10899&#45;&gt;11118</title>
<path fill="none" stroke="green" stroke-width="0.268418" d="M1589.34,-277.081C1595.94,-266.577 1603.86,-253.961 1611.01,-242.573"/>
<polygon fill="green" stroke="green" stroke-width="0.268418" points="1614.19,-244.097 1616.55,-233.767 1608.26,-240.374 1614.19,-244.097"/>
</g>
<!-- 12697&#45;&gt;1 -->
<g id="edge12" class="edge"><title>12697&#45;&gt;1</title>
<path fill="none" stroke="red" stroke-width="0.486844" d="M1639.31,-99.743C1634.53,-96.3855 1629.26,-93.2716 1623.92,-91.1543 1530.67,-54.2137 1214.43,-34.7922 1122.92,-29.8549"/>
<polygon fill="red" stroke="red" stroke-width="0.486844" points="1123.07,-26.3583 1112.9,-29.3244 1122.7,-33.3485 1123.07,-26.3583"/>
</g>
<!-- 12447&#45;&gt;3 -->
<g id="edge71" class="edge"><title>12447&#45;&gt;3</title>
<path fill="none" stroke="green" stroke-width="0.252763" d="M195.125,-54.6977C195.906,-67.2396 195.845,-82.1486 194.941,-94.3177"/>
<polygon fill="green" stroke="green" stroke-width="0.252763" points="191.427,-94.268 193.873,-104.576 198.389,-94.9923 191.427,-94.268"/>
</g>
<!-- 12191&#45;&gt;3 -->
<g id="edge54" class="edge"><title>12191&#45;&gt;3</title>
<path fill="none" stroke="red" stroke-width="0.32789" d="M147.339,-185.926C156.187,-171.841 167.42,-153.957 175.98,-140.33"/>
<polygon fill="red" stroke="red" stroke-width="0.32789" points="179.061,-142.004 181.416,-131.674 173.134,-138.281 179.061,-142.004"/>
</g>
<!-- 10790&#45;&gt;3 -->
<g id="edge60" class="edge"><title>10790&#45;&gt;3</title>
<path fill="none" stroke="green" stroke-width="0.105708" stroke-dasharray="1,5" d="M81.5087,-192.71C86.2294,-189.24 91.2196,-185.621 95.918,-182.309 120.521,-164.962 149.347,-145.731 168.31,-133.226"/>
<polygon fill="green" stroke="green" stroke-width="0.105708" points="170.333,-136.085 176.765,-127.665 166.486,-130.236 170.333,-136.085"/>
</g>
<!-- 10026&#45;&gt;1 -->
<g id="edge75" class="edge"><title>10026&#45;&gt;1</title>
<path fill="none" stroke="red" stroke-width="0.470431" d="M346.01,-192.62C324.326,-176.283 293.934,-152.647 290.918,-146.309 280.384,-124.174 274.268,-109.145 290.918,-91.1543 345.29,-32.4035 942.202,-28.6622 1072.78,-28.5496"/>
<polygon fill="red" stroke="red" stroke-width="0.470431" points="1072.98,-32.0497 1082.98,-28.5478 1072.98,-25.0497 1072.98,-32.0497"/>
</g>
<!-- 11135 -->
<g id="node47" class="node"><title>11135</title>
<ellipse fill="white" stroke="black" cx="449.918" cy="-118.731" rx="27.6545" ry="27.6545"/>
<text text-anchor="middle" x="449.918" y="-116.531" font-family="Times,serif" font-size="9.00">11135</text>
</g>
<!-- 10026&#45;&gt;11135 -->
<g id="edge1" class="edge"><title>10026&#45;&gt;11135</title>
<path fill="none" stroke="red" stroke-width="0.713776" d="M386.116,-189.1C397.397,-176.835 412.054,-160.899 424.475,-147.395"/>
<polygon fill="red" stroke="red" stroke-width="0.713776" points="427.293,-149.5 431.487,-139.771 422.141,-144.762 427.293,-149.5"/>
</g>
<!-- 9899&#45;&gt;2 -->
<g id="edge26" class="edge"><title>9899&#45;&gt;2</title>
<path fill="none" stroke="red" stroke-width="0.355372" d="M1333.97,-375.657C1295.62,-351.753 1212.75,-297.11 1154.92,-237.463 1134.02,-215.909 1140.77,-199.147 1115.92,-182.309 1059.16,-143.856 1029.07,-172.998 965.918,-146.309 958.377,-143.122 950.657,-138.647 943.926,-134.276"/>
<polygon fill="red" stroke="red" stroke-width="0.355372" points="945.705,-131.253 935.471,-128.511 941.762,-137.036 945.705,-131.253"/>
</g>
<!-- 9899&#45;&gt;10899 -->
<g id="edge6" class="edge"><title>9899&#45;&gt;10899</title>
<path fill="none" stroke="red" stroke-width="0.466856" d="M1377.63,-379.453C1416.09,-364.363 1494.27,-333.685 1539.82,-315.812"/>
<polygon fill="red" stroke="red" stroke-width="0.466856" points="1541.26,-319.007 1549.29,-312.096 1538.7,-312.491 1541.26,-319.007"/>
</g>
<!-- 10155&#45;&gt;1 -->
<g id="edge49" class="edge"><title>10155&#45;&gt;1</title>
<path fill="none" stroke="green" stroke-width="0.297916" stroke-dasharray="1,5" d="M1459.1,-101.713C1452.84,-97.7437 1445.83,-93.8574 1438.92,-91.1543 1326.46,-47.1679 1180.83,-33.6919 1123.1,-29.92"/>
<polygon fill="green" stroke="green" stroke-width="0.297916" points="1122.95,-26.4047 1112.76,-29.2889 1122.52,-33.3917 1122.95,-26.4047"/>
</g>
<!-- 11953&#45;&gt;1 -->
<g id="edge69" class="edge"><title>11953&#45;&gt;1</title>
<path fill="none" stroke="green" stroke-width="0.374997" d="M1163.28,-97.9453C1148.76,-82.536 1128.78,-61.3318 1114.74,-46.4357"/>
<polygon fill="green" stroke="green" stroke-width="0.374997" points="1117.04,-43.7641 1107.63,-38.8859 1111.94,-48.5645 1117.04,-43.7641"/>
</g>
<!-- 4017 -->
<g id="node42" class="node"><title>4017</title>
<ellipse fill="white" stroke="black" cx="340.918" cy="-118.731" rx="25" ry="25"/>
<text text-anchor="middle" x="340.918" y="-116.531" font-family="Times,serif" font-size="9.00">4017</text>
</g>
<!-- 4017&#45;&gt;1 -->
<g id="edge10" class="edge"><title>4017&#45;&gt;1</title>
<path fill="none" stroke="red" stroke-width="0.275379" stroke-dasharray="1,5" d="M359.686,-102.102C365.784,-97.8309 372.818,-93.6863 379.918,-91.1543 511.664,-44.1717 960.914,-31.5239 1072.62,-29.0735"/>
<polygon fill="red" stroke="red" stroke-width="0.275379" points="1072.98,-32.5667 1082.9,-28.8561 1072.83,-25.5682 1072.98,-32.5667"/>
</g>
<!-- 4550&#45;&gt;1 -->
<g id="edge81" class="edge"><title>4550&#45;&gt;1</title>
<path fill="none" stroke="green" stroke-width="0.389704" stroke-dasharray="1,5" d="M1353.78,-101.362C1348.89,-97.5832 1343.42,-93.8777 1337.92,-91.1543 1264.46,-54.8284 1167.59,-37.9291 1122.71,-31.6482"/>
<polygon fill="green" stroke="green" stroke-width="0.389704" points="1123.08,-28.1676 1112.71,-30.3061 1122.15,-35.1054 1123.08,-28.1676"/>
</g>
<!-- 11487&#45;&gt;0 -->
<g id="edge80" class="edge"><title>11487&#45;&gt;0</title>
<path fill="none" stroke="green" stroke-width="0.135629" d="M673.571,-193.466C679.715,-189.587 686.458,-185.595 692.918,-182.309 738.987,-158.87 795.999,-138.204 827.4,-127.494"/>
<polygon fill="green" stroke="green" stroke-width="0.135629" points="828.656,-130.764 837.015,-124.254 826.421,-124.131 828.656,-130.764"/>
</g>
<!-- 10337&#45;&gt;1 -->
<g id="edge15" class="edge"><title>10337&#45;&gt;1</title>
<path fill="none" stroke="red" stroke-width="0.481036" d="M1233.6,-101.138C1228.87,-97.6935 1223.8,-94.1915 1218.92,-91.1543 1185.92,-70.6188 1145.42,-50.6583 1120.65,-38.9988"/>
<polygon fill="red" stroke="red" stroke-width="0.481036" points="1121.91,-35.7254 1111.37,-34.6725 1118.95,-42.07 1121.91,-35.7254"/>
</g>
<!-- 11118&#45;&gt;6941 -->
<g id="edge40" class="edge"><title>11118&#45;&gt;6941</title>
<path fill="none" stroke="green" stroke-width="0.47999" d="M1619.71,-184.524C1614.95,-174.156 1609.33,-161.938 1604.26,-150.921"/>
<polygon fill="green" stroke="green" stroke-width="0.47999" points="1607.35,-149.25 1599.99,-141.627 1600.99,-152.174 1607.35,-149.25"/>
</g>
<!-- 11135&#45;&gt;1 -->
<g id="edge83" class="edge"><title>11135&#45;&gt;1</title>
<path fill="none" stroke="green" stroke-width="0.232762" d="M471.607,-101.351C477.865,-97.3804 484.906,-93.5838 491.918,-91.1543 602.213,-52.9387 972.817,-34.1026 1072.85,-29.6373"/>
<polygon fill="green" stroke="green" stroke-width="0.232762" points="1073.1,-33.1301 1082.94,-29.1955 1072.79,-26.1368 1073.1,-33.1301"/>
</g>
</g>
</svg>
