<?xml version="1.0" encoding="UTF-8" standalone="no"?>
<!DOCTYPE svg PUBLIC "-//W3C//DTD SVG 1.1//EN"
 "http://www.w3.org/Graphics/SVG/1.1/DTD/svg11.dtd">
<!-- Generated by graphviz version 2.38.0 (20140413.2041)
 -->
<!-- Title: %3 Pages: 1 -->
<svg width="1189pt" height="761pt"
 viewBox="0.00 0.00 1188.86 761.28" xmlns="http://www.w3.org/2000/svg" xmlns:xlink="http://www.w3.org/1999/xlink">
<g id="graph0" class="graph" transform="scale(1 1) rotate(0) translate(4 757.276)">
<title>%3</title>
<polygon fill="white" stroke="none" points="-4,4 -4,-757.276 1184.86,-757.276 1184.86,4 -4,4"/>
<!-- &#45;1 -->
<g id="node1" class="node"><title>&#45;1</title>
<polygon fill="lightgray" stroke="black" points="406.282,-747.427 382.282,-747.427 382.282,-729.427 406.282,-729.427 406.282,-747.427"/>
<text text-anchor="middle" x="394.282" y="-736.227" font-family="Times,serif" font-size="9.00">&#45;1</text>
</g>
<!-- 14752 -->
<g id="node37" class="node"><title>14752</title>
<ellipse fill="white" stroke="black" cx="467.282" cy="-660.001" rx="27.6545" ry="27.6545"/>
<text text-anchor="middle" x="467.282" y="-657.801" font-family="Times,serif" font-size="9.00">14752</text>
</g>
<!-- &#45;1&#45;&gt;14752 -->
<g id="edge58" class="edge"><title>&#45;1&#45;&gt;14752</title>
<path fill="none" stroke="green" stroke-width="0.665402" d="M402.094,-729.248C411.49,-719.411 427.739,-702.399 441.663,-687.822"/>
<polygon fill="green" stroke="green" stroke-width="0.665402" points="444.307,-690.12 448.684,-680.472 439.245,-685.285 444.307,-690.12"/>
</g>
<!-- 9931 -->
<g id="node47" class="node"><title>9931</title>
<ellipse fill="white" stroke="black" cx="295.282" cy="-568.846" rx="25" ry="25"/>
<text text-anchor="middle" x="295.282" y="-566.646" font-family="Times,serif" font-size="9.00">9931</text>
</g>
<!-- &#45;1&#45;&gt;9931 -->
<g id="edge8" class="edge"><title>&#45;1&#45;&gt;9931</title>
<path fill="none" stroke="red" stroke-width="0.796912" d="M387.589,-729.238C379.846,-719.582 366.924,-702.903 357.282,-687.578 339.362,-659.097 321.761,-624.911 309.919,-600.732"/>
<polygon fill="red" stroke="red" stroke-width="0.796912" points="313.035,-599.138 305.52,-591.67 306.738,-602.194 313.035,-599.138"/>
</g>
<!-- 10472 -->
<g id="node55" class="node"><title>10472</title>
<ellipse fill="white" stroke="black" cx="394.282" cy="-660.001" rx="27.6545" ry="27.6545"/>
<text text-anchor="middle" x="394.282" y="-657.801" font-family="Times,serif" font-size="9.00">10472</text>
</g>
<!-- &#45;1&#45;&gt;10472 -->
<g id="edge23" class="edge"><title>&#45;1&#45;&gt;10472</title>
<path fill="none" stroke="red" stroke-width="0.131618" d="M394.282,-729.248C394.282,-721.624 394.282,-709.69 394.282,-697.92"/>
<polygon fill="red" stroke="red" stroke-width="0.131618" points="397.782,-697.731 394.282,-687.731 390.782,-697.731 397.782,-697.731"/>
</g>
<!-- &#45;2 -->
<g id="node2" class="node"><title>&#45;2</title>
<polygon fill="lightgray" stroke="black" points="537.282,-486.692 513.282,-486.692 513.282,-468.692 537.282,-468.692 537.282,-486.692"/>
<text text-anchor="middle" x="525.282" y="-475.492" font-family="Times,serif" font-size="9.00">&#45;2</text>
</g>
<!-- 17832 -->
<g id="node41" class="node"><title>17832</title>
<ellipse fill="white" stroke="black" cx="528.282" cy="-386.538" rx="27.6545" ry="27.6545"/>
<text text-anchor="middle" x="528.282" y="-384.338" font-family="Times,serif" font-size="9.00">17832</text>
</g>
<!-- &#45;2&#45;&gt;17832 -->
<g id="edge6" class="edge"><title>&#45;2&#45;&gt;17832</title>
<path fill="none" stroke="green" stroke-width="0.310921" d="M525.558,-468.464C525.896,-458.422 526.491,-440.763 527.038,-424.499"/>
<polygon fill="green" stroke="green" stroke-width="0.310921" points="530.549,-424.218 527.388,-414.106 523.553,-423.982 530.549,-424.218"/>
</g>
<!-- &#45;3 -->
<g id="node3" class="node"><title>&#45;3</title>
<polygon fill="lightgray" stroke="black" points="854.282,-395.538 830.282,-395.538 830.282,-377.538 854.282,-377.538 854.282,-395.538"/>
<text text-anchor="middle" x="842.282" y="-384.338" font-family="Times,serif" font-size="9.00">&#45;3</text>
</g>
<!-- 2197 -->
<g id="node34" class="node"><title>2197</title>
<ellipse fill="white" stroke="black" cx="843.282" cy="-295.383" rx="25" ry="25"/>
<text text-anchor="middle" x="843.282" y="-293.183" font-family="Times,serif" font-size="9.00">2197</text>
</g>
<!-- &#45;3&#45;&gt;2197 -->
<g id="edge53" class="edge"><title>&#45;3&#45;&gt;2197</title>
<path fill="none" stroke="green" stroke-width="0.662987" d="M842.374,-377.31C842.493,-366.672 842.708,-347.488 842.899,-330.468"/>
<polygon fill="green" stroke="green" stroke-width="0.662987" points="846.401,-330.284 843.014,-320.246 839.402,-330.206 846.401,-330.284"/>
</g>
<!-- &#45;4 -->
<g id="node4" class="node"><title>&#45;4</title>
<polygon fill="lightgray" stroke="black" points="448.282,-747.427 424.282,-747.427 424.282,-729.427 448.282,-729.427 448.282,-747.427"/>
<text text-anchor="middle" x="436.282" y="-736.227" font-family="Times,serif" font-size="9.00">&#45;4</text>
</g>
<!-- &#45;5 -->
<g id="node5" class="node"><title>&#45;5</title>
<polygon fill="lightgray" stroke="black" points="905.282,-486.692 881.282,-486.692 881.282,-468.692 905.282,-468.692 905.282,-486.692"/>
<text text-anchor="middle" x="893.282" y="-475.492" font-family="Times,serif" font-size="9.00">&#45;5</text>
</g>
<!-- 2 -->
<g id="node27" class="node"><title>2</title>
<ellipse fill="lightblue" stroke="black" cx="929.282" cy="-386.538" rx="14.7" ry="14.7"/>
<text text-anchor="middle" x="929.282" y="-384.338" font-family="Times,serif" font-size="9.00">2</text>
</g>
<!-- &#45;5&#45;&gt;2 -->
<g id="edge64" class="edge"><title>&#45;5&#45;&gt;2</title>
<path fill="none" stroke="red" stroke-width="0.876641" d="M896.604,-468.464C901.916,-455.31 912.504,-429.088 920.192,-410.049"/>
<polygon fill="red" stroke="red" stroke-width="0.876641" points="923.509,-411.18 924.008,-400.597 917.019,-408.559 923.509,-411.18"/>
</g>
<!-- 5851 -->
<g id="node53" class="node"><title>5851</title>
<ellipse fill="white" stroke="black" cx="696.282" cy="-207.057" rx="25" ry="25"/>
<text text-anchor="middle" x="696.282" y="-204.857" font-family="Times,serif" font-size="9.00">5851</text>
</g>
<!-- &#45;5&#45;&gt;5851 -->
<g id="edge38" class="edge"><title>&#45;5&#45;&gt;5851</title>
<path fill="none" stroke="green" stroke-width="0.859072" d="M881.186,-468.631C865.645,-457.774 838.61,-437.139 821.282,-414.115 778.161,-356.822 793.679,-327.05 753.282,-267.806 744.313,-254.653 732.4,-241.669 721.784,-231.181"/>
<polygon fill="green" stroke="green" stroke-width="0.859072" points="723.976,-228.433 714.344,-224.019 719.121,-233.476 723.976,-228.433"/>
</g>
<!-- &#45;6 -->
<g id="node6" class="node"><title>&#45;6</title>
<polygon fill="lightgray" stroke="black" points="1024.28,-395.538 1000.28,-395.538 1000.28,-377.538 1024.28,-377.538 1024.28,-395.538"/>
<text text-anchor="middle" x="1012.28" y="-384.338" font-family="Times,serif" font-size="9.00">&#45;6</text>
</g>
<!-- 10861 -->
<g id="node58" class="node"><title>10861</title>
<ellipse fill="white" stroke="black" cx="1019.28" cy="-295.383" rx="27.6545" ry="27.6545"/>
<text text-anchor="middle" x="1019.28" y="-293.183" font-family="Times,serif" font-size="9.00">10861</text>
</g>
<!-- &#45;6&#45;&gt;10861 -->
<g id="edge44" class="edge"><title>&#45;6&#45;&gt;10861</title>
<path fill="none" stroke="green" stroke-width="0.338386" d="M1012.93,-377.31C1013.72,-367.267 1015.1,-349.609 1016.38,-333.344"/>
<polygon fill="green" stroke="green" stroke-width="0.338386" points="1019.9,-333.195 1017.2,-322.951 1012.92,-332.647 1019.9,-333.195"/>
</g>
<!-- &#45;7 -->
<g id="node7" class="node"><title>&#45;7</title>
<polygon fill="lightgray" stroke="black" points="896.282,-395.538 872.282,-395.538 872.282,-377.538 896.282,-377.538 896.282,-395.538"/>
<text text-anchor="middle" x="884.282" y="-384.338" font-family="Times,serif" font-size="9.00">&#45;7</text>
</g>
<!-- 4505 -->
<g id="node35" class="node"><title>4505</title>
<ellipse fill="white" stroke="black" cx="910.282" cy="-295.383" rx="25" ry="25"/>
<text text-anchor="middle" x="910.282" y="-293.183" font-family="Times,serif" font-size="9.00">4505</text>
</g>
<!-- &#45;7&#45;&gt;4505 -->
<g id="edge18" class="edge"><title>&#45;7&#45;&gt;4505</title>
<path fill="none" stroke="red" stroke-width="0.824165" d="M886.681,-377.31C889.855,-366.427 895.636,-346.602 900.683,-329.298"/>
<polygon fill="red" stroke="red" stroke-width="0.824165" points="904.104,-330.068 903.544,-319.488 897.384,-328.108 904.104,-330.068"/>
</g>
<!-- &#45;8 -->
<g id="node8" class="node"><title>&#45;8</title>
<polygon fill="lightgray" stroke="black" points="653.282,-395.538 629.282,-395.538 629.282,-377.538 653.282,-377.538 653.282,-395.538"/>
<text text-anchor="middle" x="641.282" y="-384.338" font-family="Times,serif" font-size="9.00">&#45;8</text>
</g>
<!-- 13963 -->
<g id="node29" class="node"><title>13963</title>
<ellipse fill="white" stroke="black" cx="696.282" cy="-295.383" rx="27.6545" ry="27.6545"/>
<text text-anchor="middle" x="696.282" y="-293.183" font-family="Times,serif" font-size="9.00">13963</text>
</g>
<!-- &#45;8&#45;&gt;13963 -->
<g id="edge51" class="edge"><title>&#45;8&#45;&gt;13963</title>
<path fill="none" stroke="red" stroke-width="0.602403" d="M646.357,-377.31C653.196,-366.224 665.761,-345.857 676.573,-328.33"/>
<polygon fill="red" stroke="red" stroke-width="0.602403" points="679.757,-329.836 682.028,-319.488 673.799,-326.161 679.757,-329.836"/>
</g>
<!-- &#45;8&#45;&gt;2197 -->
<g id="edge17" class="edge"><title>&#45;8&#45;&gt;2197</title>
<path fill="none" stroke="green" stroke-width="0.294989" d="M646.015,-377.297C649.756,-371.444 655.473,-363.795 662.282,-358.96 707.256,-327.024 769.954,-310.2 808.516,-302.313"/>
<polygon fill="green" stroke="green" stroke-width="0.294989" points="809.574,-305.673 818.718,-300.321 808.232,-298.803 809.574,-305.673"/>
</g>
<!-- &#45;8&#45;&gt;5851 -->
<g id="edge55" class="edge"><title>&#45;8&#45;&gt;5851</title>
<path fill="none" stroke="red" stroke-width="0.153803" d="M641.418,-377.264C641.981,-357.642 644.838,-306.997 659.282,-267.806 663.384,-256.674 669.708,-245.379 675.974,-235.651"/>
<polygon fill="red" stroke="red" stroke-width="0.153803" points="678.975,-237.459 681.646,-227.206 673.165,-233.555 678.975,-237.459"/>
</g>
<!-- 6507 -->
<g id="node56" class="node"><title>6507</title>
<ellipse fill="white" stroke="black" cx="388.282" cy="-295.383" rx="25" ry="25"/>
<text text-anchor="middle" x="388.282" y="-293.183" font-family="Times,serif" font-size="9.00">6507</text>
</g>
<!-- &#45;8&#45;&gt;6507 -->
<g id="edge11" class="edge"><title>&#45;8&#45;&gt;6507</title>
<path fill="none" stroke="red" stroke-width="0.941591" d="M629.079,-381.238C591.646,-368.047 477.561,-327.844 420.909,-307.881"/>
<polygon fill="red" stroke="red" stroke-width="0.941591" points="421.95,-304.537 411.355,-304.514 419.623,-311.139 421.95,-304.537"/>
</g>
<!-- 19692 -->
<g id="node57" class="node"><title>19692</title>
<ellipse fill="white" stroke="black" cx="584.282" cy="-295.383" rx="27.6545" ry="27.6545"/>
<text text-anchor="middle" x="584.282" y="-293.183" font-family="Times,serif" font-size="9.00">19692</text>
</g>
<!-- &#45;8&#45;&gt;19692 -->
<g id="edge1" class="edge"><title>&#45;8&#45;&gt;19692</title>
<path fill="none" stroke="red" stroke-width="0.119852" d="M636.021,-377.31C628.887,-366.151 615.74,-345.587 604.484,-327.982"/>
<polygon fill="red" stroke="red" stroke-width="0.119852" points="607.148,-325.651 598.813,-319.111 601.25,-329.422 607.148,-325.651"/>
</g>
<!-- &#45;9 -->
<g id="node9" class="node"><title>&#45;9</title>
<polygon fill="lightgray" stroke="black" points="490.282,-747.427 466.282,-747.427 466.282,-729.427 490.282,-729.427 490.282,-747.427"/>
<text text-anchor="middle" x="478.282" y="-736.227" font-family="Times,serif" font-size="9.00">&#45;9</text>
</g>
<!-- &#45;10 -->
<g id="node10" class="node"><title>&#45;10</title>
<polygon fill="lightgray" stroke="black" points="537.782,-747.427 508.782,-747.427 508.782,-729.427 537.782,-729.427 537.782,-747.427"/>
<text text-anchor="middle" x="523.282" y="-736.227" font-family="Times,serif" font-size="9.00">&#45;10</text>
</g>
<!-- &#45;11 -->
<g id="node11" class="node"><title>&#45;11</title>
<polygon fill="lightgray" stroke="black" points="584.782,-747.427 555.782,-747.427 555.782,-729.427 584.782,-729.427 584.782,-747.427"/>
<text text-anchor="middle" x="570.282" y="-736.227" font-family="Times,serif" font-size="9.00">&#45;11</text>
</g>
<!-- &#45;12 -->
<g id="node12" class="node"><title>&#45;12</title>
<polygon fill="lightgray" stroke="black" points="249.782,-747.427 220.782,-747.427 220.782,-729.427 249.782,-729.427 249.782,-747.427"/>
<text text-anchor="middle" x="235.282" y="-736.227" font-family="Times,serif" font-size="9.00">&#45;12</text>
</g>
<!-- 18613 -->
<g id="node43" class="node"><title>18613</title>
<ellipse fill="white" stroke="black" cx="235.282" cy="-660.001" rx="27.6545" ry="27.6545"/>
<text text-anchor="middle" x="235.282" y="-657.801" font-family="Times,serif" font-size="9.00">18613</text>
</g>
<!-- &#45;12&#45;&gt;18613 -->
<g id="edge29" class="edge"><title>&#45;12&#45;&gt;18613</title>
<path fill="none" stroke="red" stroke-width="0.944945" d="M235.282,-729.248C235.282,-721.624 235.282,-709.69 235.282,-697.92"/>
<polygon fill="red" stroke="red" stroke-width="0.944945" points="238.782,-697.731 235.282,-687.731 231.782,-697.731 238.782,-697.731"/>
</g>
<!-- &#45;13 -->
<g id="node13" class="node"><title>&#45;13</title>
<polygon fill="lightgray" stroke="black" points="631.782,-747.427 602.782,-747.427 602.782,-729.427 631.782,-729.427 631.782,-747.427"/>
<text text-anchor="middle" x="617.282" y="-736.227" font-family="Times,serif" font-size="9.00">&#45;13</text>
</g>
<!-- &#45;14 -->
<g id="node14" class="node"><title>&#45;14</title>
<polygon fill="lightgray" stroke="black" points="986.782,-669.001 957.782,-669.001 957.782,-651.001 986.782,-651.001 986.782,-669.001"/>
<text text-anchor="middle" x="972.282" y="-657.801" font-family="Times,serif" font-size="9.00">&#45;14</text>
</g>
<!-- 12988 -->
<g id="node45" class="node"><title>12988</title>
<ellipse fill="white" stroke="black" cx="639.282" cy="-568.846" rx="27.6545" ry="27.6545"/>
<text text-anchor="middle" x="639.282" y="-566.646" font-family="Times,serif" font-size="9.00">12988</text>
</g>
<!-- &#45;14&#45;&gt;12988 -->
<g id="edge26" class="edge"><title>&#45;14&#45;&gt;12988</title>
<path fill="none" stroke="green" stroke-width="0.108197" d="M957.543,-655.055C908.356,-641.886 748.851,-599.182 676.082,-579.699"/>
<polygon fill="green" stroke="green" stroke-width="0.108197" points="676.563,-576.204 665.998,-576.999 674.753,-582.966 676.563,-576.204"/>
</g>
<!-- &#45;14&#45;&gt;10861 -->
<g id="edge36" class="edge"><title>&#45;14&#45;&gt;10861</title>
<path fill="none" stroke="green" stroke-width="0.233672" d="M971.757,-650.962C969.674,-615.766 963.39,-471.963 991.282,-358.96 993.737,-349.012 997.708,-338.678 1001.9,-329.342"/>
<polygon fill="green" stroke="green" stroke-width="0.233672" points="1005.19,-330.57 1006.29,-320.033 998.856,-327.584 1005.19,-330.57"/>
</g>
<!-- 12795 -->
<g id="node61" class="node"><title>12795</title>
<ellipse fill="white" stroke="black" cx="1070.28" cy="-386.538" rx="27.6545" ry="27.6545"/>
<text text-anchor="middle" x="1070.28" y="-384.338" font-family="Times,serif" font-size="9.00">12795</text>
</g>
<!-- &#45;14&#45;&gt;12795 -->
<g id="edge31" class="edge"><title>&#45;14&#45;&gt;12795</title>
<path fill="none" stroke="red" stroke-width="0.239729" d="M975.215,-650.876C987.428,-617.046 1034.68,-486.162 1057.63,-422.589"/>
<polygon fill="red" stroke="red" stroke-width="0.239729" points="1060.99,-423.583 1061.09,-412.988 1054.41,-421.206 1060.99,-423.583"/>
</g>
<!-- &#45;15 -->
<g id="node15" class="node"><title>&#45;15</title>
<polygon fill="lightgray" stroke="black" points="678.782,-747.427 649.782,-747.427 649.782,-729.427 678.782,-729.427 678.782,-747.427"/>
<text text-anchor="middle" x="664.282" y="-736.227" font-family="Times,serif" font-size="9.00">&#45;15</text>
</g>
<!-- &#45;16 -->
<g id="node16" class="node"><title>&#45;16</title>
<polygon fill="lightgray" stroke="black" points="725.782,-747.427 696.782,-747.427 696.782,-729.427 725.782,-729.427 725.782,-747.427"/>
<text text-anchor="middle" x="711.282" y="-736.227" font-family="Times,serif" font-size="9.00">&#45;16</text>
</g>
<!-- &#45;17 -->
<g id="node17" class="node"><title>&#45;17</title>
<polygon fill="lightgray" stroke="black" points="421.782,-486.692 392.782,-486.692 392.782,-468.692 421.782,-468.692 421.782,-486.692"/>
<text text-anchor="middle" x="407.282" y="-475.492" font-family="Times,serif" font-size="9.00">&#45;17</text>
</g>
<!-- 19636 -->
<g id="node42" class="node"><title>19636</title>
<ellipse fill="white" stroke="black" cx="416.282" cy="-386.538" rx="27.6545" ry="27.6545"/>
<text text-anchor="middle" x="416.282" y="-384.338" font-family="Times,serif" font-size="9.00">19636</text>
</g>
<!-- &#45;17&#45;&gt;19636 -->
<g id="edge3" class="edge"><title>&#45;17&#45;&gt;19636</title>
<path fill="none" stroke="green" stroke-width="0.460087" d="M408.112,-468.464C409.126,-458.422 410.909,-440.763 412.55,-424.499"/>
<polygon fill="green" stroke="green" stroke-width="0.460087" points="416.077,-424.407 413.6,-414.106 409.113,-423.704 416.077,-424.407"/>
</g>
<!-- &#45;18 -->
<g id="node18" class="node"><title>&#45;18</title>
<polygon fill="lightgray" stroke="black" points="772.782,-747.427 743.782,-747.427 743.782,-729.427 772.782,-729.427 772.782,-747.427"/>
<text text-anchor="middle" x="758.282" y="-736.227" font-family="Times,serif" font-size="9.00">&#45;18</text>
</g>
<!-- &#45;19 -->
<g id="node19" class="node"><title>&#45;19</title>
<polygon fill="lightgray" stroke="black" points="700.782,-395.538 671.782,-395.538 671.782,-377.538 700.782,-377.538 700.782,-395.538"/>
<text text-anchor="middle" x="686.282" y="-384.338" font-family="Times,serif" font-size="9.00">&#45;19</text>
</g>
<!-- &#45;19&#45;&gt;13963 -->
<g id="edge14" class="edge"><title>&#45;19&#45;&gt;13963</title>
<path fill="none" stroke="green" stroke-width="0.601185" d="M687.204,-377.31C688.331,-367.267 690.312,-349.609 692.136,-333.344"/>
<polygon fill="green" stroke="green" stroke-width="0.601185" points="695.665,-333.279 693.302,-322.951 688.709,-332.499 695.665,-333.279"/>
</g>
<!-- &#45;20 -->
<g id="node20" class="node"><title>&#45;20</title>
<polygon fill="lightgray" stroke="black" points="1125.78,-669.001 1096.78,-669.001 1096.78,-651.001 1125.78,-651.001 1125.78,-669.001"/>
<text text-anchor="middle" x="1111.28" y="-657.801" font-family="Times,serif" font-size="9.00">&#45;20</text>
</g>
<!-- 9704 -->
<g id="node54" class="node"><title>9704</title>
<ellipse fill="white" stroke="black" cx="1076.28" cy="-568.846" rx="25" ry="25"/>
<text text-anchor="middle" x="1076.28" y="-566.646" font-family="Times,serif" font-size="9.00">9704</text>
</g>
<!-- &#45;20&#45;&gt;9704 -->
<g id="edge35" class="edge"><title>&#45;20&#45;&gt;9704</title>
<path fill="none" stroke="red" stroke-width="0.517955" d="M1108.05,-650.773C1103.68,-639.643 1095.64,-619.159 1088.74,-601.586"/>
<polygon fill="red" stroke="red" stroke-width="0.517955" points="1091.97,-600.229 1085.06,-592.2 1085.45,-602.787 1091.97,-600.229"/>
</g>
<!-- 13815 -->
<g id="node60" class="node"><title>13815</title>
<ellipse fill="white" stroke="black" cx="1153.28" cy="-568.846" rx="27.6545" ry="27.6545"/>
<text text-anchor="middle" x="1153.28" y="-566.646" font-family="Times,serif" font-size="9.00">13815</text>
</g>
<!-- &#45;20&#45;&gt;13815 -->
<g id="edge30" class="edge"><title>&#45;20&#45;&gt;13815</title>
<path fill="none" stroke="green" stroke-width="0.894586" d="M1115.16,-650.773C1120.23,-640.007 1129.42,-620.488 1137.51,-603.318"/>
<polygon fill="green" stroke="green" stroke-width="0.894586" points="1140.76,-604.628 1141.86,-594.09 1134.43,-601.645 1140.76,-604.628"/>
</g>
<!-- &#45;21 -->
<g id="node21" class="node"><title>&#45;21</title>
<polygon fill="lightgray" stroke="black" points="819.782,-747.427 790.782,-747.427 790.782,-729.427 819.782,-729.427 819.782,-747.427"/>
<text text-anchor="middle" x="805.282" y="-736.227" font-family="Times,serif" font-size="9.00">&#45;21</text>
</g>
<!-- &#45;22 -->
<g id="node22" class="node"><title>&#45;22</title>
<polygon fill="lightgray" stroke="black" points="866.782,-747.427 837.782,-747.427 837.782,-729.427 866.782,-729.427 866.782,-747.427"/>
<text text-anchor="middle" x="852.282" y="-736.227" font-family="Times,serif" font-size="9.00">&#45;22</text>
</g>
<!-- &#45;23 -->
<g id="node23" class="node"><title>&#45;23</title>
<polygon fill="lightgray" stroke="black" points="309.782,-669.001 280.782,-669.001 280.782,-651.001 309.782,-651.001 309.782,-669.001"/>
<text text-anchor="middle" x="295.282" y="-657.801" font-family="Times,serif" font-size="9.00">&#45;23</text>
</g>
<!-- &#45;23&#45;&gt;9931 -->
<g id="edge25" class="edge"><title>&#45;23&#45;&gt;9931</title>
<path fill="none" stroke="red" stroke-width="0.371477" d="M295.282,-650.773C295.282,-640.135 295.282,-620.951 295.282,-603.931"/>
<polygon fill="red" stroke="red" stroke-width="0.371477" points="298.782,-603.709 295.282,-593.709 291.782,-603.709 298.782,-603.709"/>
</g>
<!-- &#45;24 -->
<g id="node24" class="node"><title>&#45;24</title>
<polygon fill="lightgray" stroke="black" points="351.782,-216.057 322.782,-216.057 322.782,-198.057 351.782,-198.057 351.782,-216.057"/>
<text text-anchor="middle" x="337.282" y="-204.857" font-family="Times,serif" font-size="9.00">&#45;24</text>
</g>
<!-- 12629 -->
<g id="node51" class="node"><title>12629</title>
<ellipse fill="white" stroke="black" cx="337.282" cy="-118.731" rx="27.6545" ry="27.6545"/>
<text text-anchor="middle" x="337.282" y="-116.531" font-family="Times,serif" font-size="9.00">12629</text>
</g>
<!-- &#45;24&#45;&gt;12629 -->
<g id="edge40" class="edge"><title>&#45;24&#45;&gt;12629</title>
<path fill="none" stroke="green" stroke-width="0.895714" d="M337.282,-197.78C337.282,-188.248 337.282,-171.936 337.282,-156.682"/>
<polygon fill="green" stroke="green" stroke-width="0.895714" points="340.782,-156.386 337.282,-146.386 333.782,-156.386 340.782,-156.386"/>
</g>
<!-- 0 -->
<g id="node25" class="node"><title>0</title>
<ellipse fill="lightblue" stroke="black" cx="899.282" cy="-738.427" rx="14.7" ry="14.7"/>
<text text-anchor="middle" x="899.282" y="-736.227" font-family="Times,serif" font-size="9.00">0</text>
</g>
<!-- 1 -->
<g id="node26" class="node"><title>1</title>
<ellipse fill="lightblue" stroke="black" cx="899.282" cy="-118.731" rx="14.7" ry="14.7"/>
<text text-anchor="middle" x="899.282" y="-116.531" font-family="Times,serif" font-size="9.00">1</text>
</g>
<!-- 2831 -->
<g id="node32" class="node"><title>2831</title>
<ellipse fill="white" stroke="black" cx="936.282" cy="-207.057" rx="25" ry="25"/>
<text text-anchor="middle" x="936.282" y="-204.857" font-family="Times,serif" font-size="9.00">2831</text>
</g>
<!-- 2&#45;&gt;2831 -->
<g id="edge63" class="edge"><title>2&#45;&gt;2831</title>
<path fill="none" stroke="red" stroke-width="1.20768" d="M933.424,-372.275C937.114,-359.719 942.236,-340.268 944.282,-322.96 947.497,-295.751 944.979,-264.753 941.944,-241.816"/>
<polygon fill="red" stroke="red" stroke-width="1.20768" points="945.405,-241.294 940.531,-231.887 938.474,-242.28 945.405,-241.294"/>
</g>
<!-- 2&#45;&gt;6507 -->
<g id="edge42" class="edge"><title>2&#45;&gt;6507</title>
<path fill="none" stroke="red" stroke-width="0.127097" d="M921.609,-373.533C917.468,-368.117 911.856,-362.216 905.282,-358.96 819.153,-316.307 568.635,-341.256 474.282,-322.96 456.411,-319.495 436.998,-313.681 421.146,-308.373"/>
<polygon fill="red" stroke="red" stroke-width="0.127097" points="421.89,-304.928 411.295,-304.987 419.615,-311.548 421.89,-304.928"/>
</g>
<!-- 2&#45;&gt;10861 -->
<g id="edge60" class="edge"><title>2&#45;&gt;10861</title>
<path fill="none" stroke="green" stroke-width="0.933363" d="M939.606,-375.31C952.453,-362.584 974.868,-340.379 992.658,-322.757"/>
<polygon fill="green" stroke="green" stroke-width="0.933363" points="995.316,-325.05 999.957,-315.526 990.389,-320.077 995.316,-325.05"/>
</g>
<!-- 3 -->
<g id="node28" class="node"><title>3</title>
<ellipse fill="lightblue" stroke="black" cx="947.282" cy="-738.427" rx="14.7" ry="14.7"/>
<text text-anchor="middle" x="947.282" y="-736.227" font-family="Times,serif" font-size="9.00">3</text>
</g>
<!-- 13963&#45;&gt;5851 -->
<g id="edge33" class="edge"><title>13963&#45;&gt;5851</title>
<path fill="none" stroke="green" stroke-width="0.343005" d="M696.282,-267.542C696.282,-259.449 696.282,-250.458 696.282,-241.969"/>
<polygon fill="green" stroke="green" stroke-width="0.343005" points="699.782,-241.955 696.282,-231.955 692.782,-241.955 699.782,-241.955"/>
</g>
<!-- 16908 -->
<g id="node30" class="node"><title>16908</title>
<ellipse fill="white" stroke="black" cx="304.282" cy="-386.538" rx="27.6545" ry="27.6545"/>
<text text-anchor="middle" x="304.282" y="-384.338" font-family="Times,serif" font-size="9.00">16908</text>
</g>
<!-- 16908&#45;&gt;6507 -->
<g id="edge21" class="edge"><title>16908&#45;&gt;6507</title>
<path fill="none" stroke="red" stroke-width="0.779039" d="M322.924,-365.751C335.24,-352.68 351.485,-335.437 364.698,-321.414"/>
<polygon fill="red" stroke="red" stroke-width="0.779039" points="367.373,-323.679 371.683,-314.001 362.278,-318.879 367.373,-323.679"/>
</g>
<!-- 13327 -->
<g id="node31" class="node"><title>13327</title>
<ellipse fill="white" stroke="black" cx="746.282" cy="-386.538" rx="27.6545" ry="27.6545"/>
<text text-anchor="middle" x="746.282" y="-384.338" font-family="Times,serif" font-size="9.00">13327</text>
</g>
<!-- 13327&#45;&gt;13963 -->
<g id="edge48" class="edge"><title>13327&#45;&gt;13963</title>
<path fill="none" stroke="green" stroke-width="0.403082" d="M733.145,-362.113C727.448,-351.956 720.682,-339.892 714.511,-328.889"/>
<polygon fill="green" stroke="green" stroke-width="0.403082" points="717.449,-326.971 709.504,-319.961 711.343,-330.395 717.449,-326.971"/>
</g>
<!-- 13327&#45;&gt;5851 -->
<g id="edge52" class="edge"><title>13327&#45;&gt;5851</title>
<path fill="none" stroke="green" stroke-width="0.28573" d="M746.654,-358.618C746.216,-334.266 743.61,-297.743 733.282,-267.806 729.412,-256.591 723.145,-245.276 716.859,-235.555"/>
<polygon fill="green" stroke="green" stroke-width="0.28573" points="719.654,-233.441 711.149,-227.124 713.858,-237.366 719.654,-233.441"/>
</g>
<!-- 2831&#45;&gt;1 -->
<g id="edge7" class="edge"><title>2831&#45;&gt;1</title>
<path fill="none" stroke="red" stroke-width="0.298236" d="M926.753,-183.826C921.279,-171.055 914.422,-155.057 908.928,-142.239"/>
<polygon fill="red" stroke="red" stroke-width="0.298236" points="912.024,-140.576 904.867,-132.763 905.59,-143.334 912.024,-140.576"/>
</g>
<!-- 18837 -->
<g id="node33" class="node"><title>18837</title>
<ellipse fill="white" stroke="black" cx="119.282" cy="-386.538" rx="27.6545" ry="27.6545"/>
<text text-anchor="middle" x="119.282" y="-384.338" font-family="Times,serif" font-size="9.00">18837</text>
</g>
<!-- 18837&#45;&gt;6507 -->
<g id="edge56" class="edge"><title>18837&#45;&gt;6507</title>
<path fill="none" stroke="red" stroke-width="0.392107" d="M141.707,-369.639C147.853,-365.763 154.653,-361.893 161.282,-358.96 226.657,-330.033 308.644,-311.426 354.039,-302.538"/>
<polygon fill="red" stroke="red" stroke-width="0.392107" points="354.794,-305.957 363.956,-300.637 353.476,-299.082 354.794,-305.957"/>
</g>
<!-- 2197&#45;&gt;1 -->
<g id="edge46" class="edge"><title>2197&#45;&gt;1</title>
<path fill="none" stroke="green" stroke-width="0.785517" d="M850.603,-271.551C861.303,-238.177 881.109,-176.409 891.864,-142.865"/>
<polygon fill="green" stroke="green" stroke-width="0.785517" points="895.295,-143.629 895.015,-133.038 888.629,-141.492 895.295,-143.629"/>
</g>
<!-- 4505&#45;&gt;2831 -->
<g id="edge49" class="edge"><title>4505&#45;&gt;2831</title>
<path fill="none" stroke="red" stroke-width="1.33862" d="M917.249,-271.25C920.069,-261.885 923.377,-250.905 926.436,-240.748"/>
<polygon fill="red" stroke="red" stroke-width="1.33862" points="929.852,-241.54 929.385,-230.956 923.15,-239.521 929.852,-241.54"/>
</g>
<!-- 18457 -->
<g id="node36" class="node"><title>18457</title>
<ellipse fill="white" stroke="black" cx="46.2816" cy="-386.538" rx="27.6545" ry="27.6545"/>
<text text-anchor="middle" x="46.2816" y="-384.338" font-family="Times,serif" font-size="9.00">18457</text>
</g>
<!-- 19797 -->
<g id="node52" class="node"><title>19797</title>
<ellipse fill="white" stroke="black" cx="467.282" cy="-568.846" rx="27.6545" ry="27.6545"/>
<text text-anchor="middle" x="467.282" y="-566.646" font-family="Times,serif" font-size="9.00">19797</text>
</g>
<!-- 14752&#45;&gt;19797 -->
<g id="edge37" class="edge"><title>14752&#45;&gt;19797</title>
<path fill="none" stroke="green" stroke-width="0.321181" d="M467.282,-632.251C467.282,-624.229 467.282,-615.285 467.282,-606.73"/>
<polygon fill="green" stroke="green" stroke-width="0.321181" points="470.782,-606.577 467.282,-596.577 463.782,-606.577 470.782,-606.577"/>
</g>
<!-- 17317 -->
<g id="node38" class="node"><title>17317</title>
<ellipse fill="white" stroke="black" cx="467.282" cy="-477.692" rx="27.6545" ry="27.6545"/>
<text text-anchor="middle" x="467.282" y="-475.492" font-family="Times,serif" font-size="9.00">17317</text>
</g>
<!-- 17317&#45;&gt;13327 -->
<g id="edge32" class="edge"><title>17317&#45;&gt;13327</title>
<path fill="none" stroke="red" stroke-width="0.164876" d="M488.218,-459.209C493.23,-455.736 498.741,-452.447 504.282,-450.115 589.543,-414.23 624.02,-449.999 709.282,-414.115 711.792,-413.058 714.296,-411.805 716.751,-410.427"/>
<polygon fill="red" stroke="red" stroke-width="0.164876" points="718.745,-413.308 725.345,-405.02 715.017,-407.383 718.745,-413.308"/>
</g>
<!-- 17317&#45;&gt;6507 -->
<g id="edge22" class="edge"><title>17317&#45;&gt;6507</title>
<path fill="none" stroke="green" stroke-width="0.47229" d="M469.085,-449.995C469.648,-425.142 467.576,-387.713 453.282,-358.96 444.908,-342.118 430.089,-327.307 416.713,-316.329"/>
<polygon fill="green" stroke="green" stroke-width="0.47229" points="418.672,-313.417 408.642,-310.004 414.355,-318.927 418.672,-313.417"/>
</g>
<!-- 12709 -->
<g id="node39" class="node"><title>12709</title>
<ellipse fill="white" stroke="black" cx="295.282" cy="-477.692" rx="27.6545" ry="27.6545"/>
<text text-anchor="middle" x="295.282" y="-475.492" font-family="Times,serif" font-size="9.00">12709</text>
</g>
<!-- 7718 -->
<g id="node40" class="node"><title>7718</title>
<ellipse fill="white" stroke="black" cx="147.282" cy="-477.692" rx="25" ry="25"/>
<text text-anchor="middle" x="147.282" y="-475.492" font-family="Times,serif" font-size="9.00">7718</text>
</g>
<!-- 7718&#45;&gt;18837 -->
<g id="edge19" class="edge"><title>7718&#45;&gt;18837</title>
<path fill="none" stroke="green" stroke-width="0.91262" d="M140.071,-453.732C137.124,-444.349 133.647,-433.279 130.389,-422.905"/>
<polygon fill="green" stroke="green" stroke-width="0.91262" points="133.692,-421.742 127.357,-413.25 127.014,-423.839 133.692,-421.742"/>
</g>
<!-- 7718&#45;&gt;18457 -->
<g id="edge24" class="edge"><title>7718&#45;&gt;18457</title>
<path fill="none" stroke="green" stroke-width="0.180855" d="M129.225,-460.753C113.971,-447.288 91.8697,-427.779 74.3163,-412.284"/>
<polygon fill="green" stroke="green" stroke-width="0.180855" points="76.4255,-409.478 66.6122,-405.484 71.793,-414.726 76.4255,-409.478"/>
</g>
<!-- 10705 -->
<g id="node50" class="node"><title>10705</title>
<ellipse fill="white" stroke="black" cx="231.282" cy="-386.538" rx="27.6545" ry="27.6545"/>
<text text-anchor="middle" x="231.282" y="-384.338" font-family="Times,serif" font-size="9.00">10705</text>
</g>
<!-- 7718&#45;&gt;10705 -->
<g id="edge43" class="edge"><title>7718&#45;&gt;10705</title>
<path fill="none" stroke="red" stroke-width="0.731537" d="M163.877,-459.078C175.738,-446.49 191.928,-429.306 205.468,-414.935"/>
<polygon fill="red" stroke="red" stroke-width="0.731537" points="208.363,-416.966 212.673,-407.288 203.268,-412.166 208.363,-416.966"/>
</g>
<!-- 7718&#45;&gt;12629 -->
<g id="edge61" class="edge"><title>7718&#45;&gt;12629</title>
<path fill="none" stroke="red" stroke-width="0.566042" d="M122.623,-473.579C90.1852,-468.015 34.3649,-453.031 9.28157,-414.115 -3.99873,-393.511 -1.82703,-380.812 9.28157,-358.96 71.8175,-235.947 230.555,-161.164 301.763,-132.792"/>
<polygon fill="red" stroke="red" stroke-width="0.566042" points="303.173,-135.999 311.211,-129.097 300.623,-129.48 303.173,-135.999"/>
</g>
<!-- 7718&#45;&gt;6507 -->
<g id="edge54" class="edge"><title>7718&#45;&gt;6507</title>
<path fill="none" stroke="green" stroke-width="0.676152" d="M150.636,-452.996C155.608,-426.509 167.427,-384.053 194.282,-358.96 238.62,-317.531 310.597,-303.526 353.297,-298.795"/>
<polygon fill="green" stroke="green" stroke-width="0.676152" points="353.883,-302.254 363.487,-297.781 353.19,-295.288 353.883,-302.254"/>
</g>
<!-- 16336 -->
<g id="node49" class="node"><title>16336</title>
<ellipse fill="white" stroke="black" cx="511.282" cy="-295.383" rx="27.6545" ry="27.6545"/>
<text text-anchor="middle" x="511.282" y="-293.183" font-family="Times,serif" font-size="9.00">16336</text>
</g>
<!-- 17832&#45;&gt;16336 -->
<g id="edge12" class="edge"><title>17832&#45;&gt;16336</title>
<path fill="none" stroke="red" stroke-width="0.925173" d="M523.273,-359.271C521.696,-351.001 519.925,-341.714 518.238,-332.867"/>
<polygon fill="red" stroke="red" stroke-width="0.925173" points="521.624,-331.938 516.313,-322.771 514.748,-333.249 521.624,-331.938"/>
</g>
<!-- 17832&#45;&gt;6507 -->
<g id="edge41" class="edge"><title>17832&#45;&gt;6507</title>
<path fill="none" stroke="red" stroke-width="0.603752" d="M505.477,-371.015C481.495,-355.743 443.681,-331.663 417.522,-315.004"/>
<polygon fill="red" stroke="red" stroke-width="0.603752" points="419.112,-311.867 408.797,-309.448 415.352,-317.772 419.112,-311.867"/>
</g>
<!-- 19636&#45;&gt;6507 -->
<g id="edge34" class="edge"><title>19636&#45;&gt;6507</title>
<path fill="none" stroke="green" stroke-width="0.244157" d="M408.183,-359.751C405.179,-350.185 401.731,-339.207 398.558,-329.104"/>
<polygon fill="green" stroke="green" stroke-width="0.244157" points="401.839,-327.871 395.504,-319.379 395.161,-329.968 401.839,-327.871"/>
</g>
<!-- 18613&#45;&gt;9931 -->
<g id="edge20" class="edge"><title>18613&#45;&gt;9931</title>
<path fill="none" stroke="red" stroke-width="0.153531" d="M250.422,-636.503C258.188,-624.964 267.732,-610.783 276.017,-598.472"/>
<polygon fill="red" stroke="red" stroke-width="0.153531" points="279.104,-600.153 281.784,-589.903 273.297,-596.245 279.104,-600.153"/>
</g>
<!-- 11577 -->
<g id="node44" class="node"><title>11577</title>
<ellipse fill="white" stroke="black" cx="696.282" cy="-27.5772" rx="27.6545" ry="27.6545"/>
<text text-anchor="middle" x="696.282" y="-25.3772" font-family="Times,serif" font-size="9.00">11577</text>
</g>
<!-- 20925 -->
<g id="node46" class="node"><title>20925</title>
<ellipse fill="white" stroke="black" cx="583.282" cy="-477.692" rx="27.6545" ry="27.6545"/>
<text text-anchor="middle" x="583.282" y="-475.492" font-family="Times,serif" font-size="9.00">20925</text>
</g>
<!-- 12988&#45;&gt;20925 -->
<g id="edge5" class="edge"><title>12988&#45;&gt;20925</title>
<path fill="none" stroke="green" stroke-width="0.3" d="M624.86,-544.887C618.263,-534.384 610.338,-521.768 603.185,-510.38"/>
<polygon fill="green" stroke="green" stroke-width="0.3" points="605.937,-508.18 597.654,-501.574 600.009,-511.903 605.937,-508.18"/>
</g>
<!-- 12988&#45;&gt;16336 -->
<g id="edge45" class="edge"><title>12988&#45;&gt;16336</title>
<path fill="none" stroke="green" stroke-width="0.70641" d="M637.864,-540.926C635.904,-516.574 631.258,-480.05 620.282,-450.115 602.059,-400.417 563.334,-352.134 537.299,-323.328"/>
<polygon fill="green" stroke="green" stroke-width="0.70641" points="539.664,-320.729 530.32,-315.734 534.51,-325.465 539.664,-320.729"/>
</g>
<!-- 20925&#45;&gt;17832 -->
<g id="edge59" class="edge"><title>20925&#45;&gt;17832</title>
<path fill="none" stroke="green" stroke-width="0.305062" d="M569.118,-453.732C562.638,-443.229 554.855,-430.613 547.83,-419.225"/>
<polygon fill="green" stroke="green" stroke-width="0.305062" points="550.627,-417.092 542.397,-410.419 544.669,-420.768 550.627,-417.092"/>
</g>
<!-- 9931&#45;&gt;12709 -->
<g id="edge2" class="edge"><title>9931&#45;&gt;12709</title>
<path fill="none" stroke="green" stroke-width="0.773831" d="M295.282,-543.955C295.282,-535.242 295.282,-525.176 295.282,-515.597"/>
<polygon fill="green" stroke="green" stroke-width="0.773831" points="298.782,-515.481 295.282,-505.481 291.782,-515.481 298.782,-515.481"/>
</g>
<!-- 9931&#45;&gt;7718 -->
<g id="edge28" class="edge"><title>9931&#45;&gt;7718</title>
<path fill="none" stroke="red" stroke-width="0.379373" d="M274.391,-555.262C248.938,-539.929 205.77,-513.925 176.897,-496.532"/>
<polygon fill="red" stroke="red" stroke-width="0.379373" points="178.438,-493.375 168.066,-491.212 174.826,-499.371 178.438,-493.375"/>
</g>
<!-- 9931&#45;&gt;6507 -->
<g id="edge16" class="edge"><title>9931&#45;&gt;6507</title>
<path fill="none" stroke="green" stroke-width="0.572742" d="M308.906,-548.006C316.626,-536.05 325.972,-520.278 332.282,-505.269 357.297,-445.762 373.971,-371.967 382.224,-329.917"/>
<polygon fill="green" stroke="green" stroke-width="0.572742" points="385.691,-330.419 384.14,-319.938 378.817,-329.098 385.691,-330.419"/>
</g>
<!-- 13515 -->
<g id="node48" class="node"><title>13515</title>
<ellipse fill="white" stroke="black" cx="696.282" cy="-118.731" rx="27.6545" ry="27.6545"/>
<text text-anchor="middle" x="696.282" y="-116.531" font-family="Times,serif" font-size="9.00">13515</text>
</g>
<!-- 13515&#45;&gt;11577 -->
<g id="edge27" class="edge"><title>13515&#45;&gt;11577</title>
<path fill="none" stroke="green" stroke-width="0.251592" d="M696.282,-90.9823C696.282,-82.96 696.282,-74.0155 696.282,-65.4608"/>
<polygon fill="green" stroke="green" stroke-width="0.251592" points="699.782,-65.3075 696.282,-55.3075 692.782,-65.3076 699.782,-65.3075"/>
</g>
<!-- 10705&#45;&gt;6507 -->
<g id="edge4" class="edge"><title>10705&#45;&gt;6507</title>
<path fill="none" stroke="green" stroke-width="1.2451" d="M252.595,-368.944C257.333,-365.5 262.401,-361.998 267.282,-358.96 296.531,-340.76 331.67,-323.012 356.526,-311.094"/>
<polygon fill="green" stroke="green" stroke-width="1.2451" points="358.312,-314.12 365.843,-306.668 355.308,-307.797 358.312,-314.12"/>
</g>
<!-- 19797&#45;&gt;17317 -->
<g id="edge9" class="edge"><title>19797&#45;&gt;17317</title>
<path fill="none" stroke="green" stroke-width="0.152485" d="M467.282,-541.097C467.282,-533.075 467.282,-524.13 467.282,-515.576"/>
<polygon fill="green" stroke="green" stroke-width="0.152485" points="470.782,-515.422 467.282,-505.422 463.782,-515.422 470.782,-515.422"/>
</g>
<!-- 5851&#45;&gt;13515 -->
<g id="edge15" class="edge"><title>5851&#45;&gt;13515</title>
<path fill="none" stroke="green" stroke-width="0.804198" d="M696.282,-182.011C696.282,-174.137 696.282,-165.199 696.282,-156.602"/>
<polygon fill="green" stroke="green" stroke-width="0.804198" points="699.782,-156.379 696.282,-146.379 692.782,-156.379 699.782,-156.379"/>
</g>
<!-- 5851&#45;&gt;12629 -->
<g id="edge39" class="edge"><title>5851&#45;&gt;12629</title>
<path fill="none" stroke="green" stroke-width="0.541035" d="M672.449,-200.326C611.125,-185.581 447.553,-146.248 374.004,-128.562"/>
<polygon fill="green" stroke="green" stroke-width="0.541035" points="374.784,-125.15 364.243,-126.215 373.148,-131.956 374.784,-125.15"/>
</g>
<!-- 9704&#45;&gt;13327 -->
<g id="edge13" class="edge"><title>9704&#45;&gt;13327</title>
<path fill="none" stroke="green" stroke-width="0.578589" d="M1051.92,-564.053C1012.15,-557.082 931.761,-539.686 872.282,-505.269 831.655,-481.761 793.532,-442.89 770.083,-416.29"/>
<polygon fill="green" stroke="green" stroke-width="0.578589" points="772.487,-413.72 763.291,-408.46 767.199,-418.307 772.487,-413.72"/>
</g>
<!-- 20077 -->
<g id="node59" class="node"><title>20077</title>
<ellipse fill="white" stroke="black" cx="1104.28" cy="-477.692" rx="27.6545" ry="27.6545"/>
<text text-anchor="middle" x="1104.28" y="-475.492" font-family="Times,serif" font-size="9.00">20077</text>
</g>
<!-- 9704&#45;&gt;20077 -->
<g id="edge10" class="edge"><title>9704&#45;&gt;20077</title>
<path fill="none" stroke="green" stroke-width="0.932757" d="M1083.49,-544.887C1086.44,-535.503 1089.92,-524.434 1093.17,-514.06"/>
<polygon fill="green" stroke="green" stroke-width="0.932757" points="1096.55,-514.994 1096.21,-504.404 1089.87,-512.896 1096.55,-514.994"/>
</g>
<!-- 9704&#45;&gt;12795 -->
<g id="edge57" class="edge"><title>9704&#45;&gt;12795</title>
<path fill="none" stroke="green" stroke-width="0.313229" d="M1072.06,-544.16C1070.19,-532.492 1068.21,-518.188 1067.28,-505.269 1065.35,-478.21 1066.22,-447.575 1067.52,-424.339"/>
<polygon fill="green" stroke="green" stroke-width="0.313229" points="1071.02,-424.418 1068.13,-414.223 1064.03,-423.993 1071.02,-424.418"/>
</g>
<!-- 10861&#45;&gt;2831 -->
<g id="edge47" class="edge"><title>10861&#45;&gt;2831</title>
<path fill="none" stroke="green" stroke-width="0.333164" d="M1000.45,-274.795C988.533,-262.403 973.023,-246.271 960.236,-232.972"/>
<polygon fill="green" stroke="green" stroke-width="0.333164" points="962.524,-230.301 953.07,-225.519 957.478,-235.153 962.524,-230.301"/>
</g>
<!-- 20077&#45;&gt;12795 -->
<g id="edge62" class="edge"><title>20077&#45;&gt;12795</title>
<path fill="none" stroke="green" stroke-width="0.330347" d="M1094.63,-451.382C1091.15,-442.27 1087.17,-431.828 1083.45,-422.065"/>
<polygon fill="green" stroke="green" stroke-width="0.330347" points="1086.67,-420.698 1079.84,-412.602 1080.13,-423.193 1086.67,-420.698"/>
</g>
<!-- 13815&#45;&gt;10861 -->
<g id="edge65" class="edge"><title>13815&#45;&gt;10861</title>
<path fill="none" stroke="green" stroke-width="0.64161" d="M1154.28,-541.13C1154.51,-498.271 1149.12,-413.448 1107.28,-358.96 1092.73,-340.008 1070.85,-324.415 1052.55,-313.534"/>
<polygon fill="green" stroke="green" stroke-width="0.64161" points="1054.05,-310.361 1043.63,-308.43 1050.57,-316.436 1054.05,-310.361"/>
</g>
<!-- 12795&#45;&gt;10861 -->
<g id="edge50" class="edge"><title>12795&#45;&gt;10861</title>
<path fill="none" stroke="green" stroke-width="0.33339" d="M1056.88,-362.113C1051.03,-351.876 1044.06,-339.7 1037.73,-328.627"/>
<polygon fill="green" stroke="green" stroke-width="0.33339" points="1040.6,-326.593 1032.59,-319.651 1034.52,-330.069 1040.6,-326.593"/>
</g>
</g>
</svg>
