<?xml version="1.0" encoding="UTF-8" standalone="no"?>
<!DOCTYPE svg PUBLIC "-//W3C//DTD SVG 1.1//EN"
 "http://www.w3.org/Graphics/SVG/1.1/DTD/svg11.dtd">
<!-- Generated by graphviz version 2.38.0 (20140413.2041)
 -->
<!-- Title: %3 Pages: 1 -->
<svg width="1154pt" height="208pt"
 viewBox="0.00 0.00 1154.08 208.31" xmlns="http://www.w3.org/2000/svg" xmlns:xlink="http://www.w3.org/1999/xlink">
<g id="graph0" class="graph" transform="scale(1 1) rotate(0) translate(4 204.309)">
<title>%3</title>
<polygon fill="white" stroke="none" points="-4,4 -4,-204.309 1150.08,-204.309 1150.08,4 -4,4"/>
<!-- &#45;1 -->
<g id="node1" class="node"><title>&#45;1</title>
<polygon fill="lightgray" stroke="black" points="39.5772,-200.309 15.5772,-200.309 15.5772,-182.309 39.5772,-182.309 39.5772,-200.309"/>
<text text-anchor="middle" x="27.5772" y="-189.109" font-family="Times,serif" font-size="9.00">&#45;1</text>
</g>
<!-- 10026 -->
<g id="node31" class="node"><title>10026</title>
<ellipse fill="white" stroke="black" cx="27.5772" cy="-118.731" rx="27.6545" ry="27.6545"/>
<text text-anchor="middle" x="27.5772" y="-116.531" font-family="Times,serif" font-size="9.00">10026</text>
</g>
<!-- &#45;1&#45;&gt;10026 -->
<g id="edge20" class="edge"><title>&#45;1&#45;&gt;10026</title>
<path fill="none" stroke="red" stroke-width="0.36095" d="M27.5772,-182.213C27.5772,-175.763 27.5772,-166.239 27.5772,-156.56"/>
<polygon fill="red" stroke="red" stroke-width="0.36095" points="31.0773,-156.539 27.5772,-146.539 24.0773,-156.54 31.0773,-156.539"/>
</g>
<!-- &#45;2 -->
<g id="node2" class="node"><title>&#45;2</title>
<polygon fill="lightgray" stroke="black" points="558.577,-200.309 534.577,-200.309 534.577,-182.309 558.577,-182.309 558.577,-200.309"/>
<text text-anchor="middle" x="546.577" y="-189.109" font-family="Times,serif" font-size="9.00">&#45;2</text>
</g>
<!-- &#45;3 -->
<g id="node3" class="node"><title>&#45;3</title>
<polygon fill="lightgray" stroke="black" points="255.577,-200.309 231.577,-200.309 231.577,-182.309 255.577,-182.309 255.577,-200.309"/>
<text text-anchor="middle" x="243.577" y="-189.109" font-family="Times,serif" font-size="9.00">&#45;3</text>
</g>
<!-- &#45;3&#45;&gt;10026 -->
<g id="edge2" class="edge"><title>&#45;3&#45;&gt;10026</title>
<path fill="none" stroke="red" stroke-width="0.541122" d="M231.323,-188.929C201.56,-185.237 123.573,-173.506 64.5772,-146.309 62.1037,-145.168 59.6261,-143.854 57.1903,-142.433"/>
<polygon fill="red" stroke="red" stroke-width="0.541122" points="58.9403,-139.397 48.6343,-136.94 55.1586,-145.288 58.9403,-139.397"/>
</g>
<!-- 13151 -->
<g id="node35" class="node"><title>13151</title>
<ellipse fill="white" stroke="black" cx="416.577" cy="-118.731" rx="27.6545" ry="27.6545"/>
<text text-anchor="middle" x="416.577" y="-116.531" font-family="Times,serif" font-size="9.00">13151</text>
</g>
<!-- &#45;3&#45;&gt;13151 -->
<g id="edge18" class="edge"><title>&#45;3&#45;&gt;13151</title>
<path fill="none" stroke="green" stroke-width="0.144198" d="M255.706,-187.722C280.085,-182.239 336.387,-168.134 379.577,-146.309 381.924,-145.123 384.286,-143.796 386.619,-142.386"/>
<polygon fill="green" stroke="green" stroke-width="0.144198" points="388.93,-145.056 395.381,-136.652 385.097,-139.199 388.93,-145.056"/>
</g>
<!-- &#45;4 -->
<g id="node4" class="node"><title>&#45;4</title>
<polygon fill="lightgray" stroke="black" points="97.5772,-127.731 73.5772,-127.731 73.5772,-109.731 97.5772,-109.731 97.5772,-127.731"/>
<text text-anchor="middle" x="85.5772" y="-116.531" font-family="Times,serif" font-size="9.00">&#45;4</text>
</g>
<!-- 0 -->
<g id="node25" class="node"><title>0</title>
<ellipse fill="lightblue" stroke="black" cx="219.577" cy="-27.5772" rx="14.7" ry="14.7"/>
<text text-anchor="middle" x="219.577" y="-25.3772" font-family="Times,serif" font-size="9.00">0</text>
</g>
<!-- &#45;4&#45;&gt;0 -->
<g id="edge22" class="edge"><title>&#45;4&#45;&gt;0</title>
<path fill="none" stroke="red" stroke-width="0.271768" d="M90.7391,-109.588C94.609,-103.932 100.301,-96.4827 106.577,-91.1543 134.4,-67.533 172.517,-48.6542 196.595,-38.0348"/>
<polygon fill="red" stroke="red" stroke-width="0.271768" points="198.178,-41.1639 205.983,-33.9995 195.414,-34.7328 198.178,-41.1639"/>
</g>
<!-- &#45;5 -->
<g id="node5" class="node"><title>&#45;5</title>
<polygon fill="lightgray" stroke="black" points="139.577,-127.731 115.577,-127.731 115.577,-109.731 139.577,-109.731 139.577,-127.731"/>
<text text-anchor="middle" x="127.577" y="-116.531" font-family="Times,serif" font-size="9.00">&#45;5</text>
</g>
<!-- &#45;5&#45;&gt;0 -->
<g id="edge16" class="edge"><title>&#45;5&#45;&gt;0</title>
<path fill="none" stroke="red" stroke-width="2.00795" d="M133.468,-109.514C137.493,-104.097 143.076,-96.9594 148.577,-91.1543 164.922,-73.9071 185.458,-56.1763 200.234,-44.0123"/>
<polygon fill="red" stroke="red" stroke-width="2.00795" points="202.643,-46.5643 208.193,-37.5393 198.226,-41.1336 202.643,-46.5643"/>
</g>
<!-- &#45;6 -->
<g id="node6" class="node"><title>&#45;6</title>
<polygon fill="lightgray" stroke="black" points="657.577,-200.309 633.577,-200.309 633.577,-182.309 657.577,-182.309 657.577,-200.309"/>
<text text-anchor="middle" x="645.577" y="-189.109" font-family="Times,serif" font-size="9.00">&#45;6</text>
</g>
<!-- &#45;7 -->
<g id="node7" class="node"><title>&#45;7</title>
<polygon fill="lightgray" stroke="black" points="727.577,-200.309 703.577,-200.309 703.577,-182.309 727.577,-182.309 727.577,-200.309"/>
<text text-anchor="middle" x="715.577" y="-189.109" font-family="Times,serif" font-size="9.00">&#45;7</text>
</g>
<!-- 10561 -->
<g id="node29" class="node"><title>10561</title>
<ellipse fill="white" stroke="black" cx="715.577" cy="-118.731" rx="27.6545" ry="27.6545"/>
<text text-anchor="middle" x="715.577" y="-116.531" font-family="Times,serif" font-size="9.00">10561</text>
</g>
<!-- &#45;7&#45;&gt;10561 -->
<g id="edge11" class="edge"><title>&#45;7&#45;&gt;10561</title>
<path fill="none" stroke="green" stroke-width="0.223161" d="M715.577,-182.213C715.577,-175.763 715.577,-166.239 715.577,-156.56"/>
<polygon fill="green" stroke="green" stroke-width="0.223161" points="719.077,-156.539 715.577,-146.539 712.077,-156.54 719.077,-156.539"/>
</g>
<!-- &#45;8 -->
<g id="node8" class="node"><title>&#45;8</title>
<polygon fill="lightgray" stroke="black" points="769.577,-200.309 745.577,-200.309 745.577,-182.309 769.577,-182.309 769.577,-200.309"/>
<text text-anchor="middle" x="757.577" y="-189.109" font-family="Times,serif" font-size="9.00">&#45;8</text>
</g>
<!-- &#45;9 -->
<g id="node9" class="node"><title>&#45;9</title>
<polygon fill="lightgray" stroke="black" points="370.577,-127.731 346.577,-127.731 346.577,-109.731 370.577,-109.731 370.577,-127.731"/>
<text text-anchor="middle" x="358.577" y="-116.531" font-family="Times,serif" font-size="9.00">&#45;9</text>
</g>
<!-- &#45;9&#45;&gt;0 -->
<g id="edge21" class="edge"><title>&#45;9&#45;&gt;0</title>
<path fill="none" stroke="red" stroke-width="0.989" d="M353.119,-109.575C349.041,-103.912 343.07,-96.4613 336.577,-91.1543 307.264,-67.1944 267.364,-48.2065 242.554,-37.6823"/>
<polygon fill="red" stroke="red" stroke-width="0.989" points="243.804,-34.4118 233.226,-33.8234 241.128,-40.8802 243.804,-34.4118"/>
</g>
<!-- 2 -->
<g id="node27" class="node"><title>2</title>
<ellipse fill="lightblue" stroke="black" cx="500.577" cy="-27.5772" rx="14.7" ry="14.7"/>
<text text-anchor="middle" x="500.577" y="-25.3772" font-family="Times,serif" font-size="9.00">2</text>
</g>
<!-- &#45;9&#45;&gt;2 -->
<g id="edge3" class="edge"><title>&#45;9&#45;&gt;2</title>
<path fill="none" stroke="red" stroke-width="0.135308" d="M363.693,-109.533C367.541,-103.85 373.226,-96.3929 379.577,-91.1543 409.724,-66.2892 451.363,-47.4526 477.1,-37.2211"/>
<polygon fill="red" stroke="red" stroke-width="0.135308" points="478.694,-40.3575 486.761,-33.4889 476.171,-33.8279 478.694,-40.3575"/>
</g>
<!-- &#45;10 -->
<g id="node10" class="node"><title>&#45;10</title>
<polygon fill="lightgray" stroke="black" points="187.077,-127.731 158.077,-127.731 158.077,-109.731 187.077,-109.731 187.077,-127.731"/>
<text text-anchor="middle" x="172.577" y="-116.531" font-family="Times,serif" font-size="9.00">&#45;10</text>
</g>
<!-- &#45;10&#45;&gt;0 -->
<g id="edge13" class="edge"><title>&#45;10&#45;&gt;0</title>
<path fill="none" stroke="green" stroke-width="0.208083" d="M176.915,-109.504C183.991,-96.0807 198.24,-69.0512 208.32,-49.9307"/>
<polygon fill="green" stroke="green" stroke-width="0.208083" points="211.45,-51.4989 213.017,-41.0206 205.258,-48.2344 211.45,-51.4989"/>
</g>
<!-- &#45;11 -->
<g id="node11" class="node"><title>&#45;11</title>
<polygon fill="lightgray" stroke="black" points="817.077,-200.309 788.077,-200.309 788.077,-182.309 817.077,-182.309 817.077,-200.309"/>
<text text-anchor="middle" x="802.577" y="-189.109" font-family="Times,serif" font-size="9.00">&#45;11</text>
</g>
<!-- &#45;12 -->
<g id="node12" class="node"><title>&#45;12</title>
<polygon fill="lightgray" stroke="black" points="864.077,-200.309 835.077,-200.309 835.077,-182.309 864.077,-182.309 864.077,-200.309"/>
<text text-anchor="middle" x="849.577" y="-189.109" font-family="Times,serif" font-size="9.00">&#45;12</text>
</g>
<!-- &#45;13 -->
<g id="node13" class="node"><title>&#45;13</title>
<polygon fill="lightgray" stroke="black" points="234.077,-127.731 205.077,-127.731 205.077,-109.731 234.077,-109.731 234.077,-127.731"/>
<text text-anchor="middle" x="219.577" y="-116.531" font-family="Times,serif" font-size="9.00">&#45;13</text>
</g>
<!-- &#45;13&#45;&gt;0 -->
<g id="edge25" class="edge"><title>&#45;13&#45;&gt;0</title>
<path fill="none" stroke="green" stroke-width="1.36047" d="M219.577,-109.504C219.577,-96.7475 219.577,-71.703 219.577,-52.8362"/>
<polygon fill="green" stroke="green" stroke-width="1.36047" points="223.077,-52.581 219.577,-42.5811 216.077,-52.5811 223.077,-52.581"/>
</g>
<!-- &#45;14 -->
<g id="node14" class="node"><title>&#45;14</title>
<polygon fill="lightgray" stroke="black" points="501.077,-200.309 472.077,-200.309 472.077,-182.309 501.077,-182.309 501.077,-200.309"/>
<text text-anchor="middle" x="486.577" y="-189.109" font-family="Times,serif" font-size="9.00">&#45;14</text>
</g>
<!-- &#45;14&#45;&gt;2 -->
<g id="edge7" class="edge"><title>&#45;14&#45;&gt;2</title>
<path fill="none" stroke="red" stroke-width="0.918972" d="M486.735,-182.063C487.119,-165.039 488.318,-124.78 491.577,-91.1543 492.813,-78.4049 494.792,-64.2749 496.58,-52.6727"/>
<polygon fill="red" stroke="red" stroke-width="0.918972" points="500.092,-52.8767 498.206,-42.4511 493.179,-51.7773 500.092,-52.8767"/>
</g>
<!-- 12668 -->
<g id="node34" class="node"><title>12668</title>
<ellipse fill="white" stroke="black" cx="528.577" cy="-118.731" rx="27.6545" ry="27.6545"/>
<text text-anchor="middle" x="528.577" y="-116.531" font-family="Times,serif" font-size="9.00">12668</text>
</g>
<!-- &#45;14&#45;&gt;12668 -->
<g id="edge5" class="edge"><title>&#45;14&#45;&gt;12668</title>
<path fill="none" stroke="red" stroke-width="0.227476" d="M491.395,-182.213C495.884,-174.67 502.875,-162.922 509.589,-151.64"/>
<polygon fill="red" stroke="red" stroke-width="0.227476" points="512.755,-153.163 514.861,-142.78 506.739,-149.584 512.755,-153.163"/>
</g>
<!-- &#45;15 -->
<g id="node15" class="node"><title>&#45;15</title>
<polygon fill="lightgray" stroke="black" points="911.077,-200.309 882.077,-200.309 882.077,-182.309 911.077,-182.309 911.077,-200.309"/>
<text text-anchor="middle" x="896.577" y="-189.109" font-family="Times,serif" font-size="9.00">&#45;15</text>
</g>
<!-- &#45;16 -->
<g id="node16" class="node"><title>&#45;16</title>
<polygon fill="lightgray" stroke="black" points="281.077,-127.731 252.077,-127.731 252.077,-109.731 281.077,-109.731 281.077,-127.731"/>
<text text-anchor="middle" x="266.577" y="-116.531" font-family="Times,serif" font-size="9.00">&#45;16</text>
</g>
<!-- &#45;16&#45;&gt;0 -->
<g id="edge10" class="edge"><title>&#45;16&#45;&gt;0</title>
<path fill="none" stroke="green" stroke-width="0.709889" d="M262.24,-109.504C255.163,-96.0807 240.914,-69.0512 230.834,-49.9307"/>
<polygon fill="green" stroke="green" stroke-width="0.709889" points="233.897,-48.2344 226.137,-41.0206 227.704,-51.4989 233.897,-48.2344"/>
</g>
<!-- &#45;17 -->
<g id="node17" class="node"><title>&#45;17</title>
<polygon fill="lightgray" stroke="black" points="958.077,-200.309 929.077,-200.309 929.077,-182.309 958.077,-182.309 958.077,-200.309"/>
<text text-anchor="middle" x="943.577" y="-189.109" font-family="Times,serif" font-size="9.00">&#45;17</text>
</g>
<!-- &#45;18 -->
<g id="node18" class="node"><title>&#45;18</title>
<polygon fill="lightgray" stroke="black" points="1005.08,-200.309 976.077,-200.309 976.077,-182.309 1005.08,-182.309 1005.08,-200.309"/>
<text text-anchor="middle" x="990.577" y="-189.109" font-family="Times,serif" font-size="9.00">&#45;18</text>
</g>
<!-- 3 -->
<g id="node28" class="node"><title>3</title>
<ellipse fill="lightblue" stroke="black" cx="1018.58" cy="-27.5772" rx="14.7" ry="14.7"/>
<text text-anchor="middle" x="1018.58" y="-25.3772" font-family="Times,serif" font-size="9.00">3</text>
</g>
<!-- &#45;18&#45;&gt;3 -->
<g id="edge23" class="edge"><title>&#45;18&#45;&gt;3</title>
<path fill="none" stroke="red" stroke-width="0.181551" d="M987.932,-182.17C982.766,-165.011 972.593,-123.999 981.577,-91.1543 985.876,-75.4386 995.248,-59.6601 1003.48,-47.8785"/>
<polygon fill="red" stroke="red" stroke-width="0.181551" points="1006.38,-49.8524 1009.46,-39.7154 1000.73,-45.7186 1006.38,-49.8524"/>
</g>
<!-- 12476 -->
<g id="node33" class="node"><title>12476</title>
<ellipse fill="white" stroke="black" cx="1018.58" cy="-118.731" rx="27.6545" ry="27.6545"/>
<text text-anchor="middle" x="1018.58" y="-116.531" font-family="Times,serif" font-size="9.00">12476</text>
</g>
<!-- &#45;18&#45;&gt;12476 -->
<g id="edge17" class="edge"><title>&#45;18&#45;&gt;12476</title>
<path fill="none" stroke="red" stroke-width="0.274719" d="M993.789,-182.213C996.561,-175.227 1000.76,-164.633 1004.92,-154.144"/>
<polygon fill="red" stroke="red" stroke-width="0.274719" points="1008.26,-155.231 1008.69,-144.645 1001.75,-152.65 1008.26,-155.231"/>
</g>
<!-- &#45;19 -->
<g id="node19" class="node"><title>&#45;19</title>
<polygon fill="lightgray" stroke="black" points="1052.08,-200.309 1023.08,-200.309 1023.08,-182.309 1052.08,-182.309 1052.08,-200.309"/>
<text text-anchor="middle" x="1037.58" y="-189.109" font-family="Times,serif" font-size="9.00">&#45;19</text>
</g>
<!-- &#45;20 -->
<g id="node20" class="node"><title>&#45;20</title>
<polygon fill="lightgray" stroke="black" points="670.077,-127.731 641.077,-127.731 641.077,-109.731 670.077,-109.731 670.077,-127.731"/>
<text text-anchor="middle" x="655.577" y="-116.531" font-family="Times,serif" font-size="9.00">&#45;20</text>
</g>
<!-- &#45;20&#45;&gt;2 -->
<g id="edge1" class="edge"><title>&#45;20&#45;&gt;2</title>
<path fill="none" stroke="red" stroke-width="0.360196" d="M649.878,-109.491C645.619,-103.788 639.378,-96.3247 632.577,-91.1543 598.564,-65.2939 552.149,-46.3687 524.387,-36.4509"/>
<polygon fill="red" stroke="red" stroke-width="0.360196" points="525.32,-33.0699 514.725,-33.0951 523.024,-39.6824 525.32,-33.0699"/>
</g>
<!-- 11465 -->
<g id="node30" class="node"><title>11465</title>
<ellipse fill="white" stroke="black" cx="655.577" cy="-27.5772" rx="27.6545" ry="27.6545"/>
<text text-anchor="middle" x="655.577" y="-25.3772" font-family="Times,serif" font-size="9.00">11465</text>
</g>
<!-- &#45;20&#45;&gt;11465 -->
<g id="edge14" class="edge"><title>&#45;20&#45;&gt;11465</title>
<path fill="none" stroke="green" stroke-width="0.388778" d="M655.577,-109.504C655.577,-99.5319 655.577,-82.051 655.577,-65.8819"/>
<polygon fill="green" stroke="green" stroke-width="0.388778" points="659.077,-65.538 655.577,-55.5381 652.077,-65.5381 659.077,-65.538"/>
</g>
<!-- &#45;21 -->
<g id="node21" class="node"><title>&#45;21</title>
<polygon fill="lightgray" stroke="black" points="328.077,-127.731 299.077,-127.731 299.077,-109.731 328.077,-109.731 328.077,-127.731"/>
<text text-anchor="middle" x="313.577" y="-116.531" font-family="Times,serif" font-size="9.00">&#45;21</text>
</g>
<!-- &#45;21&#45;&gt;0 -->
<g id="edge9" class="edge"><title>&#45;21&#45;&gt;0</title>
<path fill="none" stroke="green" stroke-width="3.48928" d="M306.652,-109.618C301.97,-104.246 295.571,-97.118 289.577,-91.1543 272.963,-74.6231 252.93,-56.9215 238.56,-44.579"/>
<polygon fill="green" stroke="green" stroke-width="3.48928" points="240.702,-41.8059 230.821,-37.9805 236.16,-47.1323 240.702,-41.8059"/>
</g>
<!-- &#45;22 -->
<g id="node22" class="node"><title>&#45;22</title>
<polygon fill="lightgray" stroke="black" points="1093.08,-127.731 1064.08,-127.731 1064.08,-109.731 1093.08,-109.731 1093.08,-127.731"/>
<text text-anchor="middle" x="1078.58" y="-116.531" font-family="Times,serif" font-size="9.00">&#45;22</text>
</g>
<!-- &#45;22&#45;&gt;3 -->
<g id="edge26" class="edge"><title>&#45;22&#45;&gt;3</title>
<path fill="none" stroke="green" stroke-width="0.325386" d="M1073.04,-109.504C1063.82,-95.8092 1045.08,-67.9524 1032.17,-48.7807"/>
<polygon fill="green" stroke="green" stroke-width="0.325386" points="1035.03,-46.7582 1026.54,-40.4162 1029.22,-50.6666 1035.03,-46.7582"/>
</g>
<!-- &#45;23 -->
<g id="node23" class="node"><title>&#45;23</title>
<polygon fill="lightgray" stroke="black" points="1099.08,-200.309 1070.08,-200.309 1070.08,-182.309 1099.08,-182.309 1099.08,-200.309"/>
<text text-anchor="middle" x="1084.58" y="-189.109" font-family="Times,serif" font-size="9.00">&#45;23</text>
</g>
<!-- &#45;24 -->
<g id="node24" class="node"><title>&#45;24</title>
<polygon fill="lightgray" stroke="black" points="1146.08,-200.309 1117.08,-200.309 1117.08,-182.309 1146.08,-182.309 1146.08,-200.309"/>
<text text-anchor="middle" x="1131.58" y="-189.109" font-family="Times,serif" font-size="9.00">&#45;24</text>
</g>
<!-- 1 -->
<g id="node26" class="node"><title>1</title>
<ellipse fill="lightblue" stroke="black" cx="715.577" cy="-27.5772" rx="14.7" ry="14.7"/>
<text text-anchor="middle" x="715.577" y="-25.3772" font-family="Times,serif" font-size="9.00">1</text>
</g>
<!-- 1&#45;&gt;1 -->
<g id="edge15" class="edge"><title>1&#45;&gt;1</title>
<path fill="none" stroke="red" stroke-width="0.140828" d="M724.658,-39.6896C735.589,-48.8412 748.426,-44.8037 748.426,-27.5772 748.426,-15.061 741.65,-9.50724 733.751,-10.9159"/>
<polygon fill="red" stroke="red" stroke-width="0.140828" points="732.035,-7.86065 724.658,-15.4647 735.167,-14.1211 732.035,-7.86065"/>
</g>
<!-- 2&#45;&gt;2 -->
<g id="edge12" class="edge"><title>2&#45;&gt;2</title>
<path fill="none" stroke="red" stroke-width="0.448825" d="M509.658,-39.6896C520.589,-48.8412 533.426,-44.8037 533.426,-27.5772 533.426,-15.061 526.65,-9.50724 518.751,-10.9159"/>
<polygon fill="red" stroke="red" stroke-width="0.448825" points="517.035,-7.86065 509.658,-15.4647 520.167,-14.1211 517.035,-7.86065"/>
</g>
<!-- 3&#45;&gt;3 -->
<g id="edge6" class="edge"><title>3&#45;&gt;3</title>
<path fill="none" stroke="red" stroke-width="0.673228" d="M1027.66,-39.6896C1038.59,-48.8412 1051.43,-44.8037 1051.43,-27.5772 1051.43,-15.061 1044.65,-9.50724 1036.75,-10.9159"/>
<polygon fill="red" stroke="red" stroke-width="0.673228" points="1035.04,-7.86065 1027.66,-15.4647 1038.17,-14.1211 1035.04,-7.86065"/>
</g>
<!-- 10561&#45;&gt;1 -->
<g id="edge27" class="edge"><title>10561&#45;&gt;1</title>
<path fill="none" stroke="red" stroke-width="0.483899" d="M715.577,-90.9823C715.577,-78.8087 715.577,-64.5113 715.577,-52.6751"/>
<polygon fill="red" stroke="red" stroke-width="0.483899" points="719.077,-52.6286 715.577,-42.6286 712.077,-52.6287 719.077,-52.6286"/>
</g>
<!-- 9899 -->
<g id="node32" class="node"><title>9899</title>
<ellipse fill="white" stroke="black" cx="598.577" cy="-118.731" rx="25" ry="25"/>
<text text-anchor="middle" x="598.577" y="-116.531" font-family="Times,serif" font-size="9.00">9899</text>
</g>
<!-- 9899&#45;&gt;2 -->
<g id="edge8" class="edge"><title>9899&#45;&gt;2</title>
<path fill="none" stroke="red" stroke-width="0.4569" d="M580.602,-101.379C562.968,-85.3369 536.228,-61.0096 518.583,-44.9576"/>
<polygon fill="red" stroke="red" stroke-width="0.4569" points="520.934,-42.3646 511.181,-38.2242 516.223,-47.5425 520.934,-42.3646"/>
</g>
<!-- 12476&#45;&gt;3 -->
<g id="edge24" class="edge"><title>12476&#45;&gt;3</title>
<path fill="none" stroke="red" stroke-width="0.17856" d="M1018.58,-90.9823C1018.58,-78.8087 1018.58,-64.5113 1018.58,-52.6751"/>
<polygon fill="red" stroke="red" stroke-width="0.17856" points="1022.08,-52.6286 1018.58,-42.6286 1015.08,-52.6287 1022.08,-52.6286"/>
</g>
<!-- 12668&#45;&gt;2 -->
<g id="edge4" class="edge"><title>12668&#45;&gt;2</title>
<path fill="none" stroke="red" stroke-width="0.300019" d="M520.478,-91.9444C516.466,-79.168 511.662,-63.8709 507.779,-51.5075"/>
<polygon fill="red" stroke="red" stroke-width="0.300019" points="511.107,-50.4238 504.771,-41.932 504.429,-52.5213 511.107,-50.4238"/>
</g>
<!-- 13151&#45;&gt;2 -->
<g id="edge19" class="edge"><title>13151&#45;&gt;2</title>
<path fill="none" stroke="red" stroke-width="0.300419" d="M435.219,-97.9453C449.738,-82.536 469.716,-61.3318 483.751,-46.4357"/>
<polygon fill="red" stroke="red" stroke-width="0.300419" points="486.554,-48.5645 490.864,-38.8859 481.459,-43.7641 486.554,-48.5645"/>
</g>
</g>
</svg>
