<?xml version="1.0" encoding="UTF-8" standalone="no"?>
<!DOCTYPE svg PUBLIC "-//W3C//DTD SVG 1.1//EN"
 "http://www.w3.org/Graphics/SVG/1.1/DTD/svg11.dtd">
<!-- Generated by graphviz version 2.38.0 (20140413.2041)
 -->
<!-- Title: %3 Pages: 1 -->
<svg width="1510pt" height="208pt"
 viewBox="0.00 0.00 1510.08 208.31" xmlns="http://www.w3.org/2000/svg" xmlns:xlink="http://www.w3.org/1999/xlink">
<g id="graph0" class="graph" transform="scale(1 1) rotate(0) translate(4 204.309)">
<title>%3</title>
<polygon fill="white" stroke="none" points="-4,4 -4,-204.309 1506.08,-204.309 1506.08,4 -4,4"/>
<!-- &#45;1 -->
<g id="node1" class="node"><title>&#45;1</title>
<polygon fill="lightgray" stroke="black" points="292.577,-200.309 268.577,-200.309 268.577,-182.309 292.577,-182.309 292.577,-200.309"/>
<text text-anchor="middle" x="280.577" y="-189.109" font-family="Times,serif" font-size="9.00">&#45;1</text>
</g>
<!-- 0 -->
<g id="node25" class="node"><title>0</title>
<ellipse fill="lightblue" stroke="black" cx="788.577" cy="-27.5772" rx="14.7" ry="14.7"/>
<text text-anchor="middle" x="788.577" y="-25.3772" font-family="Times,serif" font-size="9.00">0</text>
</g>
<!-- &#45;1&#45;&gt;0 -->
<g id="edge8" class="edge"><title>&#45;1&#45;&gt;0</title>
<path fill="none" stroke="green" stroke-width="0.189126" stroke-dasharray="1,5" d="M292.701,-190.322C352.508,-190.188 615.962,-187.252 684.577,-146.309 710.14,-131.055 703.227,-113.775 722.577,-91.1543 737.197,-74.0638 755.98,-56.619 769.768,-44.5051"/>
<polygon fill="green" stroke="green" stroke-width="0.189126" points="772.356,-46.8938 777.625,-37.7021 767.774,-41.6018 772.356,-46.8938"/>
</g>
<!-- 1 -->
<g id="node26" class="node"><title>1</title>
<ellipse fill="lightblue" stroke="black" cx="233.577" cy="-27.5772" rx="14.7" ry="14.7"/>
<text text-anchor="middle" x="233.577" y="-25.3772" font-family="Times,serif" font-size="9.00">1</text>
</g>
<!-- &#45;1&#45;&gt;1 -->
<g id="edge10" class="edge"><title>&#45;1&#45;&gt;1</title>
<path fill="none" stroke="green" stroke-width="0.151801" stroke-dasharray="1,5" d="M268.453,-189.211C231.798,-185.616 123.378,-172.877 102.577,-146.309 87.466,-127.007 89.5027,-111.889 102.577,-91.1543 125.907,-54.1555 177.805,-38.5626 208.819,-32.3561"/>
<polygon fill="green" stroke="green" stroke-width="0.151801" points="209.625,-35.7669 218.837,-30.5326 208.372,-28.8801 209.625,-35.7669"/>
</g>
<!-- 3 -->
<g id="node28" class="node"><title>3</title>
<ellipse fill="lightblue" stroke="black" cx="528.577" cy="-27.5772" rx="14.7" ry="14.7"/>
<text text-anchor="middle" x="528.577" y="-25.3772" font-family="Times,serif" font-size="9.00">3</text>
</g>
<!-- &#45;1&#45;&gt;3 -->
<g id="edge42" class="edge"><title>&#45;1&#45;&gt;3</title>
<path fill="none" stroke="green" stroke-width="0.176471" stroke-dasharray="1,5" d="M283.851,-182.062C291.752,-163.193 313.673,-116.551 346.577,-91.1543 394.725,-53.9915 466.421,-38.0392 503.833,-31.9234"/>
<polygon fill="green" stroke="green" stroke-width="0.176471" points="504.5,-35.3622 513.854,-30.3888 503.44,-28.4429 504.5,-35.3622"/>
</g>
<!-- 10026 -->
<g id="node31" class="node"><title>10026</title>
<ellipse fill="white" stroke="black" cx="233.577" cy="-118.731" rx="27.6545" ry="27.6545"/>
<text text-anchor="middle" x="233.577" y="-116.531" font-family="Times,serif" font-size="9.00">10026</text>
</g>
<!-- &#45;1&#45;&gt;10026 -->
<g id="edge35" class="edge"><title>&#45;1&#45;&gt;10026</title>
<path fill="none" stroke="red" stroke-width="0.36095" d="M275.186,-182.213C270.036,-174.48 261.943,-162.327 254.259,-150.787"/>
<polygon fill="red" stroke="red" stroke-width="0.36095" points="256.973,-148.549 248.517,-142.166 251.147,-152.429 256.973,-148.549"/>
</g>
<!-- &#45;2 -->
<g id="node2" class="node"><title>&#45;2</title>
<polygon fill="lightgray" stroke="black" points="1025.58,-127.731 1001.58,-127.731 1001.58,-109.731 1025.58,-109.731 1025.58,-127.731"/>
<text text-anchor="middle" x="1013.58" y="-116.531" font-family="Times,serif" font-size="9.00">&#45;2</text>
</g>
<!-- &#45;2&#45;&gt;0 -->
<g id="edge2" class="edge"><title>&#45;2&#45;&gt;0</title>
<path fill="none" stroke="green" stroke-width="0.695758" stroke-dasharray="1,5" d="M1009.05,-109.667C1005.34,-103.746 999.567,-95.9348 992.577,-91.1543 935.857,-52.3616 854.23,-36.9317 813.569,-31.375"/>
<polygon fill="green" stroke="green" stroke-width="0.695758" points="813.832,-27.8802 803.469,-30.0852 812.945,-34.8238 813.832,-27.8802"/>
</g>
<!-- 2 -->
<g id="node27" class="node"><title>2</title>
<ellipse fill="lightblue" stroke="black" cx="1095.58" cy="-27.5772" rx="14.7" ry="14.7"/>
<text text-anchor="middle" x="1095.58" y="-25.3772" font-family="Times,serif" font-size="9.00">2</text>
</g>
<!-- &#45;2&#45;&gt;2 -->
<g id="edge33" class="edge"><title>&#45;2&#45;&gt;2</title>
<path fill="none" stroke="green" stroke-width="0.269258" stroke-dasharray="1,5" d="M1019.62,-109.648C1023.7,-104.289 1029.3,-97.1635 1034.58,-91.1543 1048.54,-75.2574 1065.39,-58.1106 1077.84,-45.793"/>
<polygon fill="green" stroke="green" stroke-width="0.269258" points="1080.63,-47.9609 1085.31,-38.4575 1075.72,-42.9659 1080.63,-47.9609"/>
</g>
<!-- &#45;3 -->
<g id="node3" class="node"><title>&#45;3</title>
<polygon fill="lightgray" stroke="black" points="1163.58,-200.309 1139.58,-200.309 1139.58,-182.309 1163.58,-182.309 1163.58,-200.309"/>
<text text-anchor="middle" x="1151.58" y="-189.109" font-family="Times,serif" font-size="9.00">&#45;3</text>
</g>
<!-- &#45;3&#45;&gt;2 -->
<g id="edge21" class="edge"><title>&#45;3&#45;&gt;2</title>
<path fill="none" stroke="red" stroke-width="0.127718" stroke-dasharray="1,5" d="M1161.66,-182.109C1170.67,-174.076 1183.24,-160.937 1188.58,-146.309 1196.97,-123.278 1200.1,-112.792 1188.58,-91.1543 1173.98,-63.7454 1141.45,-46.1932 1119.01,-36.8587"/>
<polygon fill="red" stroke="red" stroke-width="0.127718" points="1120.1,-33.5265 1109.52,-33.1422 1117.55,-40.0453 1120.1,-33.5265"/>
</g>
<!-- &#45;3&#45;&gt;10026 -->
<g id="edge3" class="edge"><title>&#45;3&#45;&gt;10026</title>
<path fill="none" stroke="red" stroke-width="0.541122" d="M1139.55,-190.075C1040.57,-188.1 361.667,-173.619 275.577,-146.309 271.709,-145.082 267.844,-143.408 264.113,-141.494"/>
<polygon fill="red" stroke="red" stroke-width="0.541122" points="265.598,-138.311 255.184,-136.357 262.107,-144.378 265.598,-138.311"/>
</g>
<!-- 13151 -->
<g id="node35" class="node"><title>13151</title>
<ellipse fill="white" stroke="black" cx="1151.58" cy="-118.731" rx="27.6545" ry="27.6545"/>
<text text-anchor="middle" x="1151.58" y="-116.531" font-family="Times,serif" font-size="9.00">13151</text>
</g>
<!-- &#45;3&#45;&gt;13151 -->
<g id="edge31" class="edge"><title>&#45;3&#45;&gt;13151</title>
<path fill="none" stroke="green" stroke-width="0.144198" d="M1151.58,-182.213C1151.58,-175.763 1151.58,-166.239 1151.58,-156.56"/>
<polygon fill="green" stroke="green" stroke-width="0.144198" points="1155.08,-156.539 1151.58,-146.539 1148.08,-156.54 1155.08,-156.539"/>
</g>
<!-- &#45;4 -->
<g id="node4" class="node"><title>&#45;4</title>
<polygon fill="lightgray" stroke="black" points="675.577,-127.731 651.577,-127.731 651.577,-109.731 675.577,-109.731 675.577,-127.731"/>
<text text-anchor="middle" x="663.577" y="-116.531" font-family="Times,serif" font-size="9.00">&#45;4</text>
</g>
<!-- &#45;4&#45;&gt;0 -->
<g id="edge37" class="edge"><title>&#45;4&#45;&gt;0</title>
<path fill="none" stroke="red" stroke-width="0.271768" d="M670.861,-109.326C675.84,-103.83 682.751,-96.6744 689.577,-91.1543 714.418,-71.0656 746.058,-52.064 766.794,-40.3821"/>
<polygon fill="red" stroke="red" stroke-width="0.271768" points="768.712,-43.3211 775.756,-35.4074 765.314,-37.2009 768.712,-43.3211"/>
</g>
<!-- &#45;4&#45;&gt;3 -->
<g id="edge18" class="edge"><title>&#45;4&#45;&gt;3</title>
<path fill="none" stroke="red" stroke-width="0.383466" stroke-dasharray="1,5" d="M658.095,-109.604C654.006,-103.955 648.031,-96.5086 641.577,-91.1543 613.488,-67.851 575.443,-48.8858 551.453,-38.1613"/>
<polygon fill="red" stroke="red" stroke-width="0.383466" points="552.668,-34.8726 542.103,-34.081 549.868,-41.2884 552.668,-34.8726"/>
</g>
<!-- &#45;5 -->
<g id="node5" class="node"><title>&#45;5</title>
<polygon fill="lightgray" stroke="black" points="379.577,-127.731 355.577,-127.731 355.577,-109.731 379.577,-109.731 379.577,-127.731"/>
<text text-anchor="middle" x="367.577" y="-116.531" font-family="Times,serif" font-size="9.00">&#45;5</text>
</g>
<!-- &#45;5&#45;&gt;0 -->
<g id="edge29" class="edge"><title>&#45;5&#45;&gt;0</title>
<path fill="none" stroke="red" stroke-width="2.00795" d="M371.92,-109.374C375.534,-103.301 381.265,-95.4253 388.577,-91.1543 421.217,-72.0896 681.433,-40.8802 763.723,-31.3972"/>
<polygon fill="red" stroke="red" stroke-width="2.00795" points="764.367,-34.8464 773.903,-30.2305 763.57,-27.8919 764.367,-34.8464"/>
</g>
<!-- &#45;5&#45;&gt;1 -->
<g id="edge11" class="edge"><title>&#45;5&#45;&gt;1</title>
<path fill="none" stroke="green" stroke-width="0.574609" stroke-dasharray="1,5" d="M355.211,-109.504C332.16,-94.1671 282.412,-61.0682 254.2,-42.2981"/>
<polygon fill="green" stroke="green" stroke-width="0.574609" points="255.792,-39.1536 245.528,-36.5282 251.915,-44.9815 255.792,-39.1536"/>
</g>
<!-- &#45;5&#45;&gt;3 -->
<g id="edge39" class="edge"><title>&#45;5&#45;&gt;3</title>
<path fill="none" stroke="green" stroke-width="0.110425" stroke-dasharray="1,5" d="M372.603,-109.42C376.408,-103.684 382.079,-96.21 388.577,-91.1543 424.508,-63.1982 474.903,-44.6689 504.407,-35.4463"/>
<polygon fill="green" stroke="green" stroke-width="0.110425" points="505.705,-38.7106 514.267,-32.4694 503.682,-32.0094 505.705,-38.7106"/>
</g>
<!-- &#45;6 -->
<g id="node6" class="node"><title>&#45;6</title>
<polygon fill="lightgray" stroke="black" points="1360.58,-200.309 1336.58,-200.309 1336.58,-182.309 1360.58,-182.309 1360.58,-200.309"/>
<text text-anchor="middle" x="1348.58" y="-189.109" font-family="Times,serif" font-size="9.00">&#45;6</text>
</g>
<!-- 9899 -->
<g id="node32" class="node"><title>9899</title>
<ellipse fill="white" stroke="black" cx="1371.58" cy="-118.731" rx="25" ry="25"/>
<text text-anchor="middle" x="1371.58" y="-116.531" font-family="Times,serif" font-size="9.00">9899</text>
</g>
<!-- &#45;6&#45;&gt;9899 -->
<g id="edge6" class="edge"><title>&#45;6&#45;&gt;9899</title>
<path fill="none" stroke="green" stroke-width="0.225548" stroke-dasharray="1,5" d="M1351.22,-182.213C1353.64,-174.763 1357.41,-163.212 1361.04,-152.059"/>
<polygon fill="green" stroke="green" stroke-width="0.225548" points="1364.4,-153.065 1364.17,-142.472 1357.74,-150.896 1364.4,-153.065"/>
</g>
<!-- &#45;7 -->
<g id="node7" class="node"><title>&#45;7</title>
<polygon fill="lightgray" stroke="black" points="39.5772,-200.309 15.5772,-200.309 15.5772,-182.309 39.5772,-182.309 39.5772,-200.309"/>
<text text-anchor="middle" x="27.5772" y="-189.109" font-family="Times,serif" font-size="9.00">&#45;7</text>
</g>
<!-- 10561 -->
<g id="node29" class="node"><title>10561</title>
<ellipse fill="white" stroke="black" cx="27.5772" cy="-118.731" rx="27.6545" ry="27.6545"/>
<text text-anchor="middle" x="27.5772" y="-116.531" font-family="Times,serif" font-size="9.00">10561</text>
</g>
<!-- &#45;7&#45;&gt;10561 -->
<g id="edge22" class="edge"><title>&#45;7&#45;&gt;10561</title>
<path fill="none" stroke="green" stroke-width="0.223161" d="M27.5772,-182.213C27.5772,-175.763 27.5772,-166.239 27.5772,-156.56"/>
<polygon fill="green" stroke="green" stroke-width="0.223161" points="31.0773,-156.539 27.5772,-146.539 24.0773,-156.54 31.0773,-156.539"/>
</g>
<!-- &#45;8 -->
<g id="node8" class="node"><title>&#45;8</title>
<polygon fill="lightgray" stroke="black" points="755.577,-127.731 731.577,-127.731 731.577,-109.731 755.577,-109.731 755.577,-127.731"/>
<text text-anchor="middle" x="743.577" y="-116.531" font-family="Times,serif" font-size="9.00">&#45;8</text>
</g>
<!-- &#45;8&#45;&gt;0 -->
<g id="edge51" class="edge"><title>&#45;8&#45;&gt;0</title>
<path fill="none" stroke="green" stroke-width="0.148476" stroke-dasharray="1,5" d="M747.73,-109.504C754.437,-96.2154 767.875,-69.5923 777.507,-50.5088"/>
<polygon fill="green" stroke="green" stroke-width="0.148476" points="780.76,-51.8315 782.142,-41.3271 774.511,-48.6773 780.76,-51.8315"/>
</g>
<!-- &#45;9 -->
<g id="node9" class="node"><title>&#45;9</title>
<polygon fill="lightgray" stroke="black" points="1067.58,-127.731 1043.58,-127.731 1043.58,-109.731 1067.58,-109.731 1067.58,-127.731"/>
<text text-anchor="middle" x="1055.58" y="-116.531" font-family="Times,serif" font-size="9.00">&#45;9</text>
</g>
<!-- &#45;9&#45;&gt;0 -->
<g id="edge36" class="edge"><title>&#45;9&#45;&gt;0</title>
<path fill="none" stroke="red" stroke-width="0.989" d="M1051.11,-109.568C1047.44,-103.597 1041.68,-95.7638 1034.58,-91.1543 963.562,-45.0737 860.606,-32.9137 813.633,-29.7142"/>
<polygon fill="red" stroke="red" stroke-width="0.989" points="813.652,-26.2092 803.461,-29.1046 813.233,-33.1966 813.652,-26.2092"/>
</g>
<!-- &#45;9&#45;&gt;2 -->
<g id="edge4" class="edge"><title>&#45;9&#45;&gt;2</title>
<path fill="none" stroke="red" stroke-width="0.135308" d="M1059.27,-109.504C1065.23,-96.2154 1077.18,-69.5923 1085.74,-50.5088"/>
<polygon fill="red" stroke="red" stroke-width="0.135308" points="1088.96,-51.8836 1089.86,-41.3271 1082.57,-49.0182 1088.96,-51.8836"/>
</g>
<!-- &#45;10 -->
<g id="node10" class="node"><title>&#45;10</title>
<polygon fill="lightgray" stroke="black" points="633.077,-127.731 604.077,-127.731 604.077,-109.731 633.077,-109.731 633.077,-127.731"/>
<text text-anchor="middle" x="618.577" y="-116.531" font-family="Times,serif" font-size="9.00">&#45;10</text>
</g>
<!-- &#45;10&#45;&gt;0 -->
<g id="edge25" class="edge"><title>&#45;10&#45;&gt;0</title>
<path fill="none" stroke="green" stroke-width="0.208083" d="M624.533,-109.424C628.983,-103.69 635.496,-96.2159 642.577,-91.1543 681.309,-63.4669 734.202,-44.6634 764.54,-35.3538"/>
<polygon fill="green" stroke="green" stroke-width="0.208083" points="765.684,-38.6651 774.27,-32.4577 763.687,-31.9559 765.684,-38.6651"/>
</g>
<!-- &#45;10&#45;&gt;3 -->
<g id="edge9" class="edge"><title>&#45;10&#45;&gt;3</title>
<path fill="none" stroke="red" stroke-width="0.207334" stroke-dasharray="1,5" d="M611.594,-109.676C606.887,-104.328 600.483,-97.2052 594.577,-91.1543 578.868,-75.0589 560.208,-57.5019 546.744,-45.0925"/>
<polygon fill="red" stroke="red" stroke-width="0.207334" points="548.841,-42.2674 539.105,-38.0902 544.111,-47.4275 548.841,-42.2674"/>
</g>
<!-- &#45;11 -->
<g id="node11" class="node"><title>&#45;11</title>
<polygon fill="lightgray" stroke="black" points="889.077,-127.731 860.077,-127.731 860.077,-109.731 889.077,-109.731 889.077,-127.731"/>
<text text-anchor="middle" x="874.577" y="-116.531" font-family="Times,serif" font-size="9.00">&#45;11</text>
</g>
<!-- &#45;11&#45;&gt;0 -->
<g id="edge14" class="edge"><title>&#45;11&#45;&gt;0</title>
<path fill="none" stroke="green" stroke-width="0.177139" stroke-dasharray="1,5" d="M866.641,-109.504C852.826,-95.1825 824.071,-65.373 805.582,-46.2052"/>
<polygon fill="green" stroke="green" stroke-width="0.177139" points="808.051,-43.7243 798.59,-38.9569 803.013,-48.5841 808.051,-43.7243"/>
</g>
<!-- &#45;11&#45;&gt;2 -->
<g id="edge44" class="edge"><title>&#45;11&#45;&gt;2</title>
<path fill="none" stroke="red" stroke-width="0.124439" stroke-dasharray="1,5" d="M879.717,-109.694C883.876,-103.788 890.236,-95.9827 897.577,-91.1543 953.191,-54.5768 1031.58,-38.2096 1070.96,-31.927"/>
<polygon fill="red" stroke="red" stroke-width="0.124439" points="1071.62,-35.3677 1080.99,-30.414 1070.58,-28.4461 1071.62,-35.3677"/>
</g>
<!-- &#45;12 -->
<g id="node12" class="node"><title>&#45;12</title>
<polygon fill="lightgray" stroke="black" points="188.077,-127.731 159.077,-127.731 159.077,-109.731 188.077,-109.731 188.077,-127.731"/>
<text text-anchor="middle" x="173.577" y="-116.531" font-family="Times,serif" font-size="9.00">&#45;12</text>
</g>
<!-- &#45;12&#45;&gt;1 -->
<g id="edge17" class="edge"><title>&#45;12&#45;&gt;1</title>
<path fill="none" stroke="green" stroke-width="0.194786" stroke-dasharray="1,5" d="M179.114,-109.504C188.331,-95.8092 207.078,-67.9524 219.98,-48.7807"/>
<polygon fill="green" stroke="green" stroke-width="0.194786" points="222.93,-50.6666 225.61,-40.4162 217.123,-46.7582 222.93,-50.6666"/>
</g>
<!-- &#45;13 -->
<g id="node13" class="node"><title>&#45;13</title>
<polygon fill="lightgray" stroke="black" points="803.077,-127.731 774.077,-127.731 774.077,-109.731 803.077,-109.731 803.077,-127.731"/>
<text text-anchor="middle" x="788.577" y="-116.531" font-family="Times,serif" font-size="9.00">&#45;13</text>
</g>
<!-- &#45;13&#45;&gt;0 -->
<g id="edge50" class="edge"><title>&#45;13&#45;&gt;0</title>
<path fill="none" stroke="green" stroke-width="1.36047" d="M788.577,-109.504C788.577,-96.7475 788.577,-71.703 788.577,-52.8362"/>
<polygon fill="green" stroke="green" stroke-width="1.36047" points="792.077,-52.581 788.577,-42.5811 785.077,-52.5811 792.077,-52.581"/>
</g>
<!-- &#45;14 -->
<g id="node14" class="node"><title>&#45;14</title>
<polygon fill="lightgray" stroke="black" points="1260.08,-200.309 1231.08,-200.309 1231.08,-182.309 1260.08,-182.309 1260.08,-200.309"/>
<text text-anchor="middle" x="1245.58" y="-189.109" font-family="Times,serif" font-size="9.00">&#45;14</text>
</g>
<!-- &#45;14&#45;&gt;1 -->
<g id="edge54" class="edge"><title>&#45;14&#45;&gt;1</title>
<path fill="none" stroke="red" stroke-width="0.16489" stroke-dasharray="1,5" d="M1231.06,-188.434C1216.35,-186.601 1192.92,-183.865 1172.58,-182.309 1080.98,-175.301 430.28,-184.164 346.577,-146.309 300.889,-125.646 264.362,-77.2789 246.168,-49.3925"/>
<polygon fill="red" stroke="red" stroke-width="0.16489" points="249.024,-47.3615 240.714,-40.7902 243.112,-51.1099 249.024,-47.3615"/>
</g>
<!-- &#45;14&#45;&gt;2 -->
<g id="edge15" class="edge"><title>&#45;14&#45;&gt;2</title>
<path fill="none" stroke="red" stroke-width="0.918972" d="M1244.18,-182.162C1240.68,-163.9 1230.01,-119.101 1205.58,-91.1543 1182.04,-64.236 1143.97,-46.2522 1119.36,-36.7224"/>
<polygon fill="red" stroke="red" stroke-width="0.918972" points="1120.31,-33.3426 1109.72,-33.1543 1117.88,-39.9075 1120.31,-33.3426"/>
</g>
<!-- 12668 -->
<g id="node34" class="node"><title>12668</title>
<ellipse fill="white" stroke="black" cx="1301.58" cy="-118.731" rx="27.6545" ry="27.6545"/>
<text text-anchor="middle" x="1301.58" y="-116.531" font-family="Times,serif" font-size="9.00">12668</text>
</g>
<!-- &#45;14&#45;&gt;12668 -->
<g id="edge7" class="edge"><title>&#45;14&#45;&gt;12668</title>
<path fill="none" stroke="red" stroke-width="0.227476" d="M1252,-182.213C1258.44,-174.093 1268.75,-161.1 1278.31,-149.06"/>
<polygon fill="red" stroke="red" stroke-width="0.227476" points="1281.27,-150.958 1284.74,-140.949 1275.78,-146.607 1281.27,-150.958"/>
</g>
<!-- &#45;15 -->
<g id="node15" class="node"><title>&#45;15</title>
<polygon fill="lightgray" stroke="black" points="1455.08,-200.309 1426.08,-200.309 1426.08,-182.309 1455.08,-182.309 1455.08,-200.309"/>
<text text-anchor="middle" x="1440.58" y="-189.109" font-family="Times,serif" font-size="9.00">&#45;15</text>
</g>
<!-- &#45;16 -->
<g id="node16" class="node"><title>&#45;16</title>
<polygon fill="lightgray" stroke="black" points="500.077,-127.731 471.077,-127.731 471.077,-109.731 500.077,-109.731 500.077,-127.731"/>
<text text-anchor="middle" x="485.577" y="-116.531" font-family="Times,serif" font-size="9.00">&#45;16</text>
</g>
<!-- &#45;16&#45;&gt;0 -->
<g id="edge20" class="edge"><title>&#45;16&#45;&gt;0</title>
<path fill="none" stroke="green" stroke-width="0.709889" d="M500.114,-110.759C512.526,-104.986 530.955,-96.8385 547.577,-91.1543 625.253,-64.5911 720.308,-43.0021 764.212,-33.625"/>
<polygon fill="green" stroke="green" stroke-width="0.709889" points="765.17,-37 774.231,-31.5085 763.723,-30.1512 765.17,-37"/>
</g>
<!-- &#45;16&#45;&gt;1 -->
<g id="edge34" class="edge"><title>&#45;16&#45;&gt;1</title>
<path fill="none" stroke="green" stroke-width="0.171007" stroke-dasharray="1,5" d="M480.491,-109.611C476.36,-103.661 470.012,-95.8373 462.577,-91.1543 396.511,-49.5417 302.818,-35.2483 258.567,-30.6289"/>
<polygon fill="green" stroke="green" stroke-width="0.171007" points="258.718,-27.1274 248.429,-29.6522 258.047,-34.0951 258.718,-27.1274"/>
</g>
<!-- &#45;17 -->
<g id="node17" class="node"><title>&#45;17</title>
<polygon fill="lightgray" stroke="black" points="141.077,-127.731 112.077,-127.731 112.077,-109.731 141.077,-109.731 141.077,-127.731"/>
<text text-anchor="middle" x="126.577" y="-116.531" font-family="Times,serif" font-size="9.00">&#45;17</text>
</g>
<!-- &#45;17&#45;&gt;1 -->
<g id="edge46" class="edge"><title>&#45;17&#45;&gt;1</title>
<path fill="none" stroke="red" stroke-width="0.156867" stroke-dasharray="1,5" d="M132.994,-109.411C137.387,-103.952 143.499,-96.8041 149.577,-91.1543 169.768,-72.3883 195.498,-53.9065 213.129,-41.9514"/>
<polygon fill="red" stroke="red" stroke-width="0.156867" points="215.171,-44.796 221.538,-36.3276 211.28,-38.9772 215.171,-44.796"/>
</g>
<!-- &#45;18 -->
<g id="node18" class="node"><title>&#45;18</title>
<polygon fill="lightgray" stroke="black" points="694.077,-200.309 665.077,-200.309 665.077,-182.309 694.077,-182.309 694.077,-200.309"/>
<text text-anchor="middle" x="679.577" y="-189.109" font-family="Times,serif" font-size="9.00">&#45;18</text>
</g>
<!-- &#45;18&#45;&gt;0 -->
<g id="edge48" class="edge"><title>&#45;18&#45;&gt;0</title>
<path fill="none" stroke="green" stroke-width="0.16685" stroke-dasharray="1,5" d="M694.233,-190.506C722.5,-189.992 784.176,-184.326 811.577,-146.309 832.417,-117.395 815.115,-74.5256 801.354,-49.2804"/>
<polygon fill="green" stroke="green" stroke-width="0.16685" points="804.35,-47.4689 796.34,-40.5338 798.277,-50.9501 804.35,-47.4689"/>
</g>
<!-- &#45;18&#45;&gt;2 -->
<g id="edge26" class="edge"><title>&#45;18&#45;&gt;2</title>
<path fill="none" stroke="red" stroke-width="0.309567" stroke-dasharray="1,5" d="M694.389,-189.712C763.06,-186.81 1048.32,-173.198 1076.58,-146.309 1101.76,-122.35 1102.08,-79.1878 1099.32,-52.3099"/>
<polygon fill="red" stroke="red" stroke-width="0.309567" points="1102.78,-51.7102 1098.07,-42.2206 1095.83,-52.577 1102.78,-51.7102"/>
</g>
<!-- &#45;18&#45;&gt;3 -->
<g id="edge38" class="edge"><title>&#45;18&#45;&gt;3</title>
<path fill="none" stroke="red" stroke-width="0.181551" d="M665.015,-190.08C637.464,-188.801 577.773,-181.831 547.577,-146.309 525.401,-120.221 523.948,-78.7079 525.697,-52.5854"/>
<polygon fill="red" stroke="red" stroke-width="0.181551" points="529.202,-52.6907 526.592,-42.4222 522.229,-52.0766 529.202,-52.6907"/>
</g>
<!-- 12476 -->
<g id="node33" class="node"><title>12476</title>
<ellipse fill="white" stroke="black" cx="425.577" cy="-118.731" rx="27.6545" ry="27.6545"/>
<text text-anchor="middle" x="425.577" y="-116.531" font-family="Times,serif" font-size="9.00">12476</text>
</g>
<!-- &#45;18&#45;&gt;12476 -->
<g id="edge30" class="edge"><title>&#45;18&#45;&gt;12476</title>
<path fill="none" stroke="red" stroke-width="0.274719" d="M664.894,-189.536C628.79,-187.181 533.399,-178.171 461.577,-146.309 459.442,-145.362 457.312,-144.27 455.216,-143.082"/>
<polygon fill="red" stroke="red" stroke-width="0.274719" points="456.634,-139.835 446.324,-137.395 452.863,-145.732 456.634,-139.835"/>
</g>
<!-- &#45;19 -->
<g id="node19" class="node"><title>&#45;19</title>
<polygon fill="lightgray" stroke="black" points="936.077,-127.731 907.077,-127.731 907.077,-109.731 936.077,-109.731 936.077,-127.731"/>
<text text-anchor="middle" x="921.577" y="-116.531" font-family="Times,serif" font-size="9.00">&#45;19</text>
</g>
<!-- &#45;19&#45;&gt;0 -->
<g id="edge40" class="edge"><title>&#45;19&#45;&gt;0</title>
<path fill="none" stroke="green" stroke-width="0.237705" stroke-dasharray="1,5" d="M915.433,-109.672C910.895,-104.055 904.352,-96.6186 897.577,-91.1543 870.207,-69.078 834.102,-49.9982 811.106,-38.8906"/>
<polygon fill="green" stroke="green" stroke-width="0.237705" points="812.365,-35.6142 801.829,-34.4993 809.37,-41.9412 812.365,-35.6142"/>
</g>
<!-- &#45;19&#45;&gt;2 -->
<g id="edge12" class="edge"><title>&#45;19&#45;&gt;2</title>
<path fill="none" stroke="green" stroke-width="0.636655" stroke-dasharray="1,5" d="M927.518,-109.403C931.96,-103.659 938.472,-96.1815 945.577,-91.1543 985.551,-62.8714 1040.26,-44.1776 1071.36,-35.0691"/>
<polygon fill="green" stroke="green" stroke-width="0.636655" points="1072.64,-38.3425 1081.31,-32.2471 1070.73,-31.608 1072.64,-38.3425"/>
</g>
<!-- &#45;20 -->
<g id="node20" class="node"><title>&#45;20</title>
<polygon fill="lightgray" stroke="black" points="1443.08,-127.731 1414.08,-127.731 1414.08,-109.731 1443.08,-109.731 1443.08,-127.731"/>
<text text-anchor="middle" x="1428.58" y="-116.531" font-family="Times,serif" font-size="9.00">&#45;20</text>
</g>
<!-- &#45;20&#45;&gt;2 -->
<g id="edge1" class="edge"><title>&#45;20&#45;&gt;2</title>
<path fill="none" stroke="red" stroke-width="0.360196" d="M1423.58,-109.465C1419.49,-103.439 1413.17,-95.5835 1405.58,-91.1543 1311.31,-36.1334 1176.5,-28.8299 1120.97,-28.3129"/>
<polygon fill="red" stroke="red" stroke-width="0.360196" points="1120.67,-24.8123 1110.66,-28.2893 1120.65,-31.8123 1120.67,-24.8123"/>
</g>
<!-- 11465 -->
<g id="node30" class="node"><title>11465</title>
<ellipse fill="white" stroke="black" cx="1428.58" cy="-27.5772" rx="27.6545" ry="27.6545"/>
<text text-anchor="middle" x="1428.58" y="-25.3772" font-family="Times,serif" font-size="9.00">11465</text>
</g>
<!-- &#45;20&#45;&gt;11465 -->
<g id="edge27" class="edge"><title>&#45;20&#45;&gt;11465</title>
<path fill="none" stroke="green" stroke-width="0.388778" d="M1428.58,-109.504C1428.58,-99.5319 1428.58,-82.051 1428.58,-65.8819"/>
<polygon fill="green" stroke="green" stroke-width="0.388778" points="1432.08,-65.538 1428.58,-55.5381 1425.08,-65.5381 1432.08,-65.538"/>
</g>
<!-- &#45;21 -->
<g id="node21" class="node"><title>&#45;21</title>
<polygon fill="lightgray" stroke="black" points="983.077,-127.731 954.077,-127.731 954.077,-109.731 983.077,-109.731 983.077,-127.731"/>
<text text-anchor="middle" x="968.577" y="-116.531" font-family="Times,serif" font-size="9.00">&#45;21</text>
</g>
<!-- &#45;21&#45;&gt;0 -->
<g id="edge19" class="edge"><title>&#45;21&#45;&gt;0</title>
<path fill="none" stroke="green" stroke-width="3.48928" d="M962.977,-109.357C958.764,-103.591 952.538,-96.1065 945.577,-91.1543 903.69,-61.3543 845.604,-43.0344 813.109,-34.4382"/>
<polygon fill="green" stroke="green" stroke-width="3.48928" points="813.685,-30.9731 803.13,-31.8932 811.955,-37.756 813.685,-30.9731"/>
</g>
<!-- &#45;21&#45;&gt;2 -->
<g id="edge43" class="edge"><title>&#45;21&#45;&gt;2</title>
<path fill="none" stroke="red" stroke-width="0.253103" stroke-dasharray="1,5" d="M974.764,-109.723C979.322,-104.131 985.871,-96.7022 992.577,-91.1543 1018.16,-69.9895 1051.61,-51.0178 1073.34,-39.6534"/>
<polygon fill="red" stroke="red" stroke-width="0.253103" points="1075.13,-42.668 1082.42,-34.9867 1071.93,-36.4409 1075.13,-42.668"/>
</g>
<!-- &#45;22 -->
<g id="node22" class="node"><title>&#45;22</title>
<polygon fill="lightgray" stroke="black" points="586.077,-127.731 557.077,-127.731 557.077,-109.731 586.077,-109.731 586.077,-127.731"/>
<text text-anchor="middle" x="571.577" y="-116.531" font-family="Times,serif" font-size="9.00">&#45;22</text>
</g>
<!-- &#45;22&#45;&gt;1 -->
<g id="edge23" class="edge"><title>&#45;22&#45;&gt;1</title>
<path fill="none" stroke="green" stroke-width="0.408179" stroke-dasharray="1,5" d="M556.836,-110.642C544.243,-104.798 525.527,-96.6113 508.577,-91.1543 418.017,-61.9979 306.504,-41.0513 258.015,-32.6486"/>
<polygon fill="green" stroke="green" stroke-width="0.408179" points="258.578,-29.1941 248.132,-30.9592 257.399,-36.094 258.578,-29.1941"/>
</g>
<!-- &#45;22&#45;&gt;2 -->
<g id="edge41" class="edge"><title>&#45;22&#45;&gt;2</title>
<path fill="none" stroke="green" stroke-width="0.337149" stroke-dasharray="1,5" d="M576.482,-109.3C580.519,-103.188 586.828,-95.2962 594.577,-91.1543 637.01,-68.4752 975.17,-38.6685 1070.59,-30.6417"/>
<polygon fill="green" stroke="green" stroke-width="0.337149" points="1071.07,-34.1135 1080.75,-29.7925 1070.49,-27.1378 1071.07,-34.1135"/>
</g>
<!-- &#45;22&#45;&gt;3 -->
<g id="edge52" class="edge"><title>&#45;22&#45;&gt;3</title>
<path fill="none" stroke="green" stroke-width="0.325386" d="M567.609,-109.504C561.2,-96.2154 548.359,-69.5923 539.155,-50.5088"/>
<polygon fill="green" stroke="green" stroke-width="0.325386" points="542.223,-48.8137 534.727,-41.3271 535.918,-51.8547 542.223,-48.8137"/>
</g>
<!-- &#45;23 -->
<g id="node23" class="node"><title>&#45;23</title>
<polygon fill="lightgray" stroke="black" points="1408.08,-200.309 1379.08,-200.309 1379.08,-182.309 1408.08,-182.309 1408.08,-200.309"/>
<text text-anchor="middle" x="1393.58" y="-189.109" font-family="Times,serif" font-size="9.00">&#45;23</text>
</g>
<!-- &#45;23&#45;&gt;9899 -->
<g id="edge47" class="edge"><title>&#45;23&#45;&gt;9899</title>
<path fill="none" stroke="green" stroke-width="0.359304" stroke-dasharray="1,5" d="M1391.05,-182.213C1388.73,-174.763 1385.13,-163.212 1381.65,-152.059"/>
<polygon fill="green" stroke="green" stroke-width="0.359304" points="1384.98,-150.978 1378.67,-142.472 1378.3,-153.061 1384.98,-150.978"/>
</g>
<!-- &#45;24 -->
<g id="node24" class="node"><title>&#45;24</title>
<polygon fill="lightgray" stroke="black" points="1502.08,-200.309 1473.08,-200.309 1473.08,-182.309 1502.08,-182.309 1502.08,-200.309"/>
<text text-anchor="middle" x="1487.58" y="-189.109" font-family="Times,serif" font-size="9.00">&#45;24</text>
</g>
<!-- 1&#45;&gt;1 -->
<g id="edge28" class="edge"><title>1&#45;&gt;1</title>
<path fill="none" stroke="red" stroke-width="0.140828" d="M242.658,-39.6896C253.589,-48.8412 266.426,-44.8037 266.426,-27.5772 266.426,-15.061 259.65,-9.50724 251.751,-10.9159"/>
<polygon fill="red" stroke="red" stroke-width="0.140828" points="250.035,-7.86065 242.658,-15.4647 253.167,-14.1211 250.035,-7.86065"/>
</g>
<!-- 2&#45;&gt;2 -->
<g id="edge24" class="edge"><title>2&#45;&gt;2</title>
<path fill="none" stroke="red" stroke-width="0.448825" d="M1104.66,-39.6896C1115.59,-48.8412 1128.43,-44.8037 1128.43,-27.5772 1128.43,-15.061 1121.65,-9.50724 1113.75,-10.9159"/>
<polygon fill="red" stroke="red" stroke-width="0.448825" points="1112.04,-7.86065 1104.66,-15.4647 1115.17,-14.1211 1112.04,-7.86065"/>
</g>
<!-- 3&#45;&gt;3 -->
<g id="edge13" class="edge"><title>3&#45;&gt;3</title>
<path fill="none" stroke="red" stroke-width="0.673228" d="M537.658,-39.6896C548.589,-48.8412 561.426,-44.8037 561.426,-27.5772 561.426,-15.061 554.65,-9.50724 546.751,-10.9159"/>
<polygon fill="red" stroke="red" stroke-width="0.673228" points="545.035,-7.86065 537.658,-15.4647 548.167,-14.1211 545.035,-7.86065"/>
</g>
<!-- 10561&#45;&gt;1 -->
<g id="edge53" class="edge"><title>10561&#45;&gt;1</title>
<path fill="none" stroke="red" stroke-width="0.483899" d="M50.2022,-102.257C56.3466,-98.3777 63.0964,-94.4004 69.5772,-91.1543 117.559,-67.1215 177.129,-46.5424 209.642,-36.037"/>
<polygon fill="red" stroke="red" stroke-width="0.483899" points="211.11,-39.2424 219.575,-32.8701 208.984,-32.5732 211.11,-39.2424"/>
</g>
<!-- 10026&#45;&gt;1 -->
<g id="edge49" class="edge"><title>10026&#45;&gt;1</title>
<path fill="none" stroke="red" stroke-width="0.439076" stroke-dasharray="1,5" d="M233.577,-90.9823C233.577,-78.8087 233.577,-64.5113 233.577,-52.6751"/>
<polygon fill="red" stroke="red" stroke-width="0.439076" points="237.077,-52.6286 233.577,-42.6286 230.077,-52.6287 237.077,-52.6286"/>
</g>
<!-- 9899&#45;&gt;2 -->
<g id="edge16" class="edge"><title>9899&#45;&gt;2</title>
<path fill="none" stroke="red" stroke-width="0.4569" d="M1353.69,-101.061C1349.03,-97.3785 1343.84,-93.7934 1338.58,-91.1543 1264.3,-53.8854 1165.78,-37.4116 1120.4,-31.4361"/>
<polygon fill="red" stroke="red" stroke-width="0.4569" points="1120.66,-27.9414 1110.3,-30.1664 1119.79,-34.8867 1120.66,-27.9414"/>
</g>
<!-- 12476&#45;&gt;3 -->
<g id="edge45" class="edge"><title>12476&#45;&gt;3</title>
<path fill="none" stroke="red" stroke-width="0.17856" d="M445.927,-100.117C464.636,-83.9229 492.132,-60.1234 510.192,-44.4906"/>
<polygon fill="red" stroke="red" stroke-width="0.17856" points="512.491,-47.1302 517.761,-37.9392 507.91,-41.8375 512.491,-47.1302"/>
</g>
<!-- 12668&#45;&gt;2 -->
<g id="edge5" class="edge"><title>12668&#45;&gt;2</title>
<path fill="none" stroke="red" stroke-width="0.300019" d="M1278.95,-102.257C1272.81,-98.3777 1266.06,-94.4004 1259.58,-91.1543 1211.6,-67.1215 1152.03,-46.5424 1119.51,-36.037"/>
<polygon fill="red" stroke="red" stroke-width="0.300019" points="1120.17,-32.5732 1109.58,-32.8701 1118.04,-39.2424 1120.17,-32.5732"/>
</g>
<!-- 13151&#45;&gt;2 -->
<g id="edge32" class="edge"><title>13151&#45;&gt;2</title>
<path fill="none" stroke="red" stroke-width="0.300419" d="M1137.16,-94.772C1128.31,-80.6871 1117.08,-62.8028 1108.52,-49.1753"/>
<polygon fill="red" stroke="red" stroke-width="0.300419" points="1111.36,-47.1264 1103.08,-40.52 1105.43,-50.8497 1111.36,-47.1264"/>
</g>
</g>
</svg>
