<?xml version="1.0" encoding="UTF-8" standalone="no"?>
<!DOCTYPE svg PUBLIC "-//W3C//DTD SVG 1.1//EN"
 "http://www.w3.org/Graphics/SVG/1.1/DTD/svg11.dtd">
<!-- Generated by graphviz version 2.38.0 (20140413.2041)
 -->
<!-- Title: %3 Pages: 1 -->
<svg width="1242pt" height="767pt"
 viewBox="0.00 0.00 1242.33 766.93" xmlns="http://www.w3.org/2000/svg" xmlns:xlink="http://www.w3.org/1999/xlink">
<g id="graph0" class="graph" transform="scale(1 1) rotate(0) translate(4 762.933)">
<title>%3</title>
<polygon fill="white" stroke="none" points="-4,4 -4,-762.933 1238.33,-762.933 1238.33,4 -4,4"/>
<!-- &#45;1 -->
<g id="node1" class="node"><title>&#45;1</title>
<polygon fill="lightgray" stroke="black" points="503.577,-674.657 479.577,-674.657 479.577,-656.657 503.577,-656.657 503.577,-674.657"/>
<text text-anchor="middle" x="491.577" y="-663.457" font-family="Times,serif" font-size="9.00">&#45;1</text>
</g>
<!-- 14752 -->
<g id="node38" class="node"><title>14752</title>
<ellipse fill="white" stroke="black" cx="173.577" cy="-574.503" rx="27.6545" ry="27.6545"/>
<text text-anchor="middle" x="173.577" y="-572.303" font-family="Times,serif" font-size="9.00">14752</text>
</g>
<!-- &#45;1&#45;&gt;14752 -->
<g id="edge58" class="edge"><title>&#45;1&#45;&gt;14752</title>
<path fill="none" stroke="red" stroke-width="0.547116" d="M479.499,-661.271C435.273,-648.872 281.049,-605.634 209.966,-585.705"/>
<polygon fill="red" stroke="red" stroke-width="0.547116" points="210.678,-582.27 200.104,-582.94 208.788,-589.01 210.678,-582.27"/>
</g>
<!-- 9931 -->
<g id="node49" class="node"><title>9931</title>
<ellipse fill="white" stroke="black" cx="564.577" cy="-574.503" rx="25" ry="25"/>
<text text-anchor="middle" x="564.577" y="-572.303" font-family="Times,serif" font-size="9.00">9931</text>
</g>
<!-- &#45;1&#45;&gt;9931 -->
<g id="edge7" class="edge"><title>&#45;1&#45;&gt;9931</title>
<path fill="none" stroke="red" stroke-width="0.240876" d="M498.314,-656.43C508.337,-644.188 527.626,-620.631 542.819,-602.076"/>
<polygon fill="red" stroke="red" stroke-width="0.240876" points="545.624,-604.175 549.252,-594.22 540.208,-599.74 545.624,-604.175"/>
</g>
<!-- 10472 -->
<g id="node58" class="node"><title>10472</title>
<ellipse fill="white" stroke="black" cx="491.577" cy="-574.503" rx="27.6545" ry="27.6545"/>
<text text-anchor="middle" x="491.577" y="-572.303" font-family="Times,serif" font-size="9.00">10472</text>
</g>
<!-- &#45;1&#45;&gt;10472 -->
<g id="edge24" class="edge"><title>&#45;1&#45;&gt;10472</title>
<path fill="none" stroke="red" stroke-width="0.26814" d="M491.577,-656.43C491.577,-646.458 491.577,-628.977 491.577,-612.808"/>
<polygon fill="red" stroke="red" stroke-width="0.26814" points="495.077,-612.464 491.577,-602.464 488.077,-612.464 495.077,-612.464"/>
</g>
<!-- &#45;2 -->
<g id="node2" class="node"><title>&#45;2</title>
<polygon fill="lightgray" stroke="black" points="440.577,-583.503 416.577,-583.503 416.577,-565.503 440.577,-565.503 440.577,-583.503"/>
<text text-anchor="middle" x="428.577" y="-572.303" font-family="Times,serif" font-size="9.00">&#45;2</text>
</g>
<!-- 17832 -->
<g id="node42" class="node"><title>17832</title>
<ellipse fill="white" stroke="black" cx="428.577" cy="-483.349" rx="27.6545" ry="27.6545"/>
<text text-anchor="middle" x="428.577" y="-481.149" font-family="Times,serif" font-size="9.00">17832</text>
</g>
<!-- &#45;2&#45;&gt;17832 -->
<g id="edge5" class="edge"><title>&#45;2&#45;&gt;17832</title>
<path fill="none" stroke="green" stroke-width="0.3049" d="M428.577,-565.276C428.577,-555.304 428.577,-537.823 428.577,-521.654"/>
<polygon fill="green" stroke="green" stroke-width="0.3049" points="432.077,-521.31 428.577,-511.31 425.077,-521.31 432.077,-521.31"/>
</g>
<!-- &#45;3 -->
<g id="node3" class="node"><title>&#45;3</title>
<polygon fill="lightgray" stroke="black" points="1226.58,-310.04 1202.58,-310.04 1202.58,-292.04 1226.58,-292.04 1226.58,-310.04"/>
<text text-anchor="middle" x="1214.58" y="-298.84" font-family="Times,serif" font-size="9.00">&#45;3</text>
</g>
<!-- 2197 -->
<g id="node35" class="node"><title>2197</title>
<ellipse fill="white" stroke="black" cx="1209.58" cy="-209.886" rx="25" ry="25"/>
<text text-anchor="middle" x="1209.58" y="-207.686" font-family="Times,serif" font-size="9.00">2197</text>
</g>
<!-- &#45;3&#45;&gt;2197 -->
<g id="edge53" class="edge"><title>&#45;3&#45;&gt;2197</title>
<path fill="none" stroke="green" stroke-width="0.656728" d="M1214.12,-291.813C1213.52,-281.174 1212.44,-261.991 1211.49,-244.97"/>
<polygon fill="green" stroke="green" stroke-width="0.656728" points="1214.97,-244.537 1210.92,-234.748 1207.98,-244.929 1214.97,-244.537"/>
</g>
<!-- &#45;4 -->
<g id="node4" class="node"><title>&#45;4</title>
<polygon fill="lightgray" stroke="black" points="453.577,-127.731 429.577,-127.731 429.577,-109.731 453.577,-109.731 453.577,-127.731"/>
<text text-anchor="middle" x="441.577" y="-116.531" font-family="Times,serif" font-size="9.00">&#45;4</text>
</g>
<!-- 11577 -->
<g id="node47" class="node"><title>11577</title>
<ellipse fill="white" stroke="black" cx="375.577" cy="-27.5772" rx="27.6545" ry="27.6545"/>
<text text-anchor="middle" x="375.577" y="-25.3772" font-family="Times,serif" font-size="9.00">11577</text>
</g>
<!-- &#45;4&#45;&gt;11577 -->
<g id="edge67" class="edge"><title>&#45;4&#45;&gt;11577</title>
<path fill="none" stroke="red" stroke-width="0.121312" d="M435.486,-109.504C426.985,-98.0198 411.111,-76.5767 397.838,-58.6476"/>
<polygon fill="red" stroke="red" stroke-width="0.121312" points="400.338,-56.1422 391.575,-50.1874 394.712,-60.3072 400.338,-56.1422"/>
</g>
<!-- &#45;5 -->
<g id="node5" class="node"><title>&#45;5</title>
<polygon fill="lightgray" stroke="black" points="927.577,-492.349 903.577,-492.349 903.577,-474.349 927.577,-474.349 927.577,-492.349"/>
<text text-anchor="middle" x="915.577" y="-481.149" font-family="Times,serif" font-size="9.00">&#45;5</text>
</g>
<!-- 2 -->
<g id="node27" class="node"><title>2</title>
<ellipse fill="lightblue" stroke="black" cx="958.577" cy="-392.194" rx="14.7" ry="14.7"/>
<text text-anchor="middle" x="958.577" y="-389.994" font-family="Times,serif" font-size="9.00">2</text>
</g>
<!-- &#45;5&#45;&gt;2 -->
<g id="edge51" class="edge"><title>&#45;5&#45;&gt;2</title>
<path fill="none" stroke="red" stroke-width="0.872798" d="M919.545,-474.121C925.955,-460.833 938.795,-434.21 947.999,-415.126"/>
<polygon fill="red" stroke="red" stroke-width="0.872798" points="951.236,-416.472 952.428,-405.944 944.931,-413.431 951.236,-416.472"/>
</g>
<!-- 5851 -->
<g id="node56" class="node"><title>5851</title>
<ellipse fill="white" stroke="black" cx="346.577" cy="-209.886" rx="25" ry="25"/>
<text text-anchor="middle" x="346.577" y="-207.686" font-family="Times,serif" font-size="9.00">5851</text>
</g>
<!-- &#45;5&#45;&gt;5851 -->
<g id="edge35" class="edge"><title>&#45;5&#45;&gt;5851</title>
<path fill="none" stroke="red" stroke-width="0.764083" d="M914.648,-474.213C910.544,-442.404 891.003,-325.637 820.577,-273.463 785.349,-247.365 485.428,-221.722 381.702,-213.559"/>
<polygon fill="red" stroke="red" stroke-width="0.764083" points="381.689,-210.047 371.447,-212.759 381.144,-217.026 381.689,-210.047"/>
</g>
<!-- &#45;6 -->
<g id="node6" class="node"><title>&#45;6</title>
<polygon fill="lightgray" stroke="black" points="1020.58,-401.194 996.577,-401.194 996.577,-383.194 1020.58,-383.194 1020.58,-401.194"/>
<text text-anchor="middle" x="1008.58" y="-389.994" font-family="Times,serif" font-size="9.00">&#45;6</text>
</g>
<!-- 10861 -->
<g id="node61" class="node"><title>10861</title>
<ellipse fill="white" stroke="black" cx="1008.58" cy="-301.04" rx="27.6545" ry="27.6545"/>
<text text-anchor="middle" x="1008.58" y="-298.84" font-family="Times,serif" font-size="9.00">10861</text>
</g>
<!-- &#45;6&#45;&gt;10861 -->
<g id="edge42" class="edge"><title>&#45;6&#45;&gt;10861</title>
<path fill="none" stroke="green" stroke-width="0.308882" d="M1008.58,-382.967C1008.58,-372.995 1008.58,-355.514 1008.58,-339.345"/>
<polygon fill="green" stroke="green" stroke-width="0.308882" points="1012.08,-339.001 1008.58,-329.001 1005.08,-339.001 1012.08,-339.001"/>
</g>
<!-- &#45;7 -->
<g id="node7" class="node"><title>&#45;7</title>
<polygon fill="lightgray" stroke="black" points="1103.58,-401.194 1079.58,-401.194 1079.58,-383.194 1103.58,-383.194 1103.58,-401.194"/>
<text text-anchor="middle" x="1091.58" y="-389.994" font-family="Times,serif" font-size="9.00">&#45;7</text>
</g>
<!-- 2831 -->
<g id="node33" class="node"><title>2831</title>
<ellipse fill="white" stroke="black" cx="1064.58" cy="-209.886" rx="25" ry="25"/>
<text text-anchor="middle" x="1064.58" y="-207.686" font-family="Times,serif" font-size="9.00">2831</text>
</g>
<!-- &#45;7&#45;&gt;2831 -->
<g id="edge9" class="edge"><title>&#45;7&#45;&gt;2831</title>
<path fill="none" stroke="red" stroke-width="0.462756" d="M1090.35,-382.978C1086.73,-358.857 1076.01,-287.247 1069.59,-244.379"/>
<polygon fill="red" stroke="red" stroke-width="0.462756" points="1073.04,-243.776 1068.1,-234.405 1066.12,-244.813 1073.04,-243.776"/>
</g>
<!-- 4505 -->
<g id="node36" class="node"><title>4505</title>
<ellipse fill="white" stroke="black" cx="1117.58" cy="-301.04" rx="25" ry="25"/>
<text text-anchor="middle" x="1117.58" y="-298.84" font-family="Times,serif" font-size="9.00">4505</text>
</g>
<!-- &#45;7&#45;&gt;4505 -->
<g id="edge17" class="edge"><title>&#45;7&#45;&gt;4505</title>
<path fill="none" stroke="red" stroke-width="0.950656" d="M1093.98,-382.967C1097.15,-372.084 1102.93,-352.259 1107.98,-334.955"/>
<polygon fill="red" stroke="red" stroke-width="0.950656" points="1111.4,-335.725 1110.84,-325.145 1104.68,-333.765 1111.4,-335.725"/>
</g>
<!-- &#45;8 -->
<g id="node8" class="node"><title>&#45;8</title>
<polygon fill="lightgray" stroke="black" points="1184.58,-310.04 1160.58,-310.04 1160.58,-292.04 1184.58,-292.04 1184.58,-310.04"/>
<text text-anchor="middle" x="1172.58" y="-298.84" font-family="Times,serif" font-size="9.00">&#45;8</text>
</g>
<!-- &#45;8&#45;&gt;2197 -->
<g id="edge16" class="edge"><title>&#45;8&#45;&gt;2197</title>
<path fill="none" stroke="green" stroke-width="0.326095" d="M1175.99,-291.813C1180.61,-280.683 1189.11,-260.199 1196.4,-242.625"/>
<polygon fill="green" stroke="green" stroke-width="0.326095" points="1199.7,-243.817 1200.3,-233.239 1193.23,-241.134 1199.7,-243.817"/>
</g>
<!-- 19692 -->
<g id="node60" class="node"><title>19692</title>
<ellipse fill="white" stroke="black" cx="1139.58" cy="-209.886" rx="27.6545" ry="27.6545"/>
<text text-anchor="middle" x="1139.58" y="-207.686" font-family="Times,serif" font-size="9.00">19692</text>
</g>
<!-- &#45;8&#45;&gt;19692 -->
<g id="edge20" class="edge"><title>&#45;8&#45;&gt;19692</title>
<path fill="none" stroke="red" stroke-width="0.124758" d="M1169.53,-291.813C1165.64,-281.29 1158.65,-262.407 1152.4,-245.527"/>
<polygon fill="red" stroke="red" stroke-width="0.124758" points="1155.59,-244.061 1148.84,-235.898 1149.02,-246.491 1155.59,-244.061"/>
</g>
<!-- &#45;9 -->
<g id="node9" class="node"><title>&#45;9</title>
<polygon fill="lightgray" stroke="black" points="622.577,-753.084 598.577,-753.084 598.577,-735.084 622.577,-735.084 622.577,-753.084"/>
<text text-anchor="middle" x="610.577" y="-741.884" font-family="Times,serif" font-size="9.00">&#45;9</text>
</g>
<!-- &#45;10 -->
<g id="node10" class="node"><title>&#45;10</title>
<polygon fill="lightgray" stroke="black" points="680.077,-753.084 651.077,-753.084 651.077,-735.084 680.077,-735.084 680.077,-753.084"/>
<text text-anchor="middle" x="665.577" y="-741.884" font-family="Times,serif" font-size="9.00">&#45;10</text>
</g>
<!-- &#45;11 -->
<g id="node11" class="node"><title>&#45;11</title>
<polygon fill="lightgray" stroke="black" points="732.077,-753.084 703.077,-753.084 703.077,-735.084 732.077,-735.084 732.077,-753.084"/>
<text text-anchor="middle" x="717.577" y="-741.884" font-family="Times,serif" font-size="9.00">&#45;11</text>
</g>
<!-- &#45;12 -->
<g id="node12" class="node"><title>&#45;12</title>
<polygon fill="lightgray" stroke="black" points="579.077,-753.084 550.077,-753.084 550.077,-735.084 579.077,-735.084 579.077,-753.084"/>
<text text-anchor="middle" x="564.577" y="-741.884" font-family="Times,serif" font-size="9.00">&#45;12</text>
</g>
<!-- 18613 -->
<g id="node45" class="node"><title>18613</title>
<ellipse fill="white" stroke="black" cx="564.577" cy="-665.657" rx="27.6545" ry="27.6545"/>
<text text-anchor="middle" x="564.577" y="-663.457" font-family="Times,serif" font-size="9.00">18613</text>
</g>
<!-- &#45;12&#45;&gt;18613 -->
<g id="edge28" class="edge"><title>&#45;12&#45;&gt;18613</title>
<path fill="none" stroke="red" stroke-width="1.15478" d="M564.577,-734.905C564.577,-727.28 564.577,-715.346 564.577,-703.576"/>
<polygon fill="red" stroke="red" stroke-width="1.15478" points="568.077,-703.388 564.577,-693.388 561.077,-703.388 568.077,-703.388"/>
</g>
<!-- &#45;13 -->
<g id="node13" class="node"><title>&#45;13</title>
<polygon fill="lightgray" stroke="black" points="781.077,-753.084 752.077,-753.084 752.077,-735.084 781.077,-735.084 781.077,-753.084"/>
<text text-anchor="middle" x="766.577" y="-741.884" font-family="Times,serif" font-size="9.00">&#45;13</text>
</g>
<!-- &#45;14 -->
<g id="node14" class="node"><title>&#45;14</title>
<polygon fill="lightgray" stroke="black" points="360.077,-583.503 331.077,-583.503 331.077,-565.503 360.077,-565.503 360.077,-583.503"/>
<text text-anchor="middle" x="345.577" y="-572.303" font-family="Times,serif" font-size="9.00">&#45;14</text>
</g>
<!-- 12988 -->
<g id="node48" class="node"><title>12988</title>
<ellipse fill="white" stroke="black" cx="345.577" cy="-483.349" rx="27.6545" ry="27.6545"/>
<text text-anchor="middle" x="345.577" y="-481.149" font-family="Times,serif" font-size="9.00">12988</text>
</g>
<!-- &#45;14&#45;&gt;12988 -->
<g id="edge26" class="edge"><title>&#45;14&#45;&gt;12988</title>
<path fill="none" stroke="green" stroke-width="0.328727" d="M345.577,-565.276C345.577,-555.304 345.577,-537.823 345.577,-521.654"/>
<polygon fill="green" stroke="green" stroke-width="0.328727" points="349.077,-521.31 345.577,-511.31 342.077,-521.31 349.077,-521.31"/>
</g>
<!-- &#45;15 -->
<g id="node15" class="node"><title>&#45;15</title>
<polygon fill="lightgray" stroke="black" points="829.077,-753.084 800.077,-753.084 800.077,-735.084 829.077,-735.084 829.077,-753.084"/>
<text text-anchor="middle" x="814.577" y="-741.884" font-family="Times,serif" font-size="9.00">&#45;15</text>
</g>
<!-- &#45;16 -->
<g id="node16" class="node"><title>&#45;16</title>
<polygon fill="lightgray" stroke="black" points="877.077,-753.084 848.077,-753.084 848.077,-735.084 877.077,-735.084 877.077,-753.084"/>
<text text-anchor="middle" x="862.577" y="-741.884" font-family="Times,serif" font-size="9.00">&#45;16</text>
</g>
<!-- &#45;17 -->
<g id="node17" class="node"><title>&#45;17</title>
<polygon fill="lightgray" stroke="black" points="274.077,-492.349 245.077,-492.349 245.077,-474.349 274.077,-474.349 274.077,-492.349"/>
<text text-anchor="middle" x="259.577" y="-481.149" font-family="Times,serif" font-size="9.00">&#45;17</text>
</g>
<!-- 19636 -->
<g id="node44" class="node"><title>19636</title>
<ellipse fill="white" stroke="black" cx="224.577" cy="-392.194" rx="27.6545" ry="27.6545"/>
<text text-anchor="middle" x="224.577" y="-389.994" font-family="Times,serif" font-size="9.00">19636</text>
</g>
<!-- &#45;17&#45;&gt;19636 -->
<g id="edge3" class="edge"><title>&#45;17&#45;&gt;19636</title>
<path fill="none" stroke="green" stroke-width="0.433191" d="M256.347,-474.121C252.216,-463.599 244.803,-444.716 238.177,-427.836"/>
<polygon fill="green" stroke="green" stroke-width="0.433191" points="241.309,-426.236 234.396,-418.207 234.793,-428.794 241.309,-426.236"/>
</g>
<!-- 6507 -->
<g id="node59" class="node"><title>6507</title>
<ellipse fill="white" stroke="black" cx="465.577" cy="-301.04" rx="25" ry="25"/>
<text text-anchor="middle" x="465.577" y="-298.84" font-family="Times,serif" font-size="9.00">6507</text>
</g>
<!-- &#45;17&#45;&gt;6507 -->
<g id="edge62" class="edge"><title>&#45;17&#45;&gt;6507</title>
<path fill="none" stroke="red" stroke-width="0.611432" d="M260.02,-474.287C261.597,-453.335 268.655,-396.576 299.577,-364.617 334.911,-328.098 393.651,-312.659 430.95,-306.297"/>
<polygon fill="red" stroke="red" stroke-width="0.611432" points="431.532,-309.749 440.865,-304.733 430.442,-302.834 431.532,-309.749"/>
</g>
<!-- &#45;18 -->
<g id="node18" class="node"><title>&#45;18</title>
<polygon fill="lightgray" stroke="black" points="924.077,-753.084 895.077,-753.084 895.077,-735.084 924.077,-735.084 924.077,-753.084"/>
<text text-anchor="middle" x="909.577" y="-741.884" font-family="Times,serif" font-size="9.00">&#45;18</text>
</g>
<!-- &#45;19 -->
<g id="node19" class="node"><title>&#45;19</title>
<polygon fill="lightgray" stroke="black" points="102.077,-401.194 73.0772,-401.194 73.0772,-383.194 102.077,-383.194 102.077,-401.194"/>
<text text-anchor="middle" x="87.5772" y="-389.994" font-family="Times,serif" font-size="9.00">&#45;19</text>
</g>
<!-- 13963 -->
<g id="node30" class="node"><title>13963</title>
<ellipse fill="white" stroke="black" cx="87.5772" cy="-301.04" rx="27.6545" ry="27.6545"/>
<text text-anchor="middle" x="87.5772" y="-298.84" font-family="Times,serif" font-size="9.00">13963</text>
</g>
<!-- &#45;19&#45;&gt;13963 -->
<g id="edge12" class="edge"><title>&#45;19&#45;&gt;13963</title>
<path fill="none" stroke="green" stroke-width="0.58009" d="M87.5772,-382.967C87.5772,-372.995 87.5772,-355.514 87.5772,-339.345"/>
<polygon fill="green" stroke="green" stroke-width="0.58009" points="91.0773,-339.001 87.5772,-329.001 84.0773,-339.001 91.0773,-339.001"/>
</g>
<!-- &#45;20 -->
<g id="node20" class="node"><title>&#45;20</title>
<polygon fill="lightgray" stroke="black" points="971.077,-753.084 942.077,-753.084 942.077,-735.084 971.077,-735.084 971.077,-753.084"/>
<text text-anchor="middle" x="956.577" y="-741.884" font-family="Times,serif" font-size="9.00">&#45;20</text>
</g>
<!-- 20690 -->
<g id="node53" class="node"><title>20690</title>
<ellipse fill="white" stroke="black" cx="900.577" cy="-665.657" rx="27.6545" ry="27.6545"/>
<text text-anchor="middle" x="900.577" y="-663.457" font-family="Times,serif" font-size="9.00">20690</text>
</g>
<!-- &#45;20&#45;&gt;20690 -->
<g id="edge47" class="edge"><title>&#45;20&#45;&gt;20690</title>
<path fill="none" stroke="green" stroke-width="0.507318" d="M950.584,-734.905C943.901,-725.785 932.701,-710.498 922.592,-696.702"/>
<polygon fill="green" stroke="green" stroke-width="0.507318" points="925.223,-694.371 916.489,-688.373 919.576,-698.508 925.223,-694.371"/>
</g>
<!-- 9704 -->
<g id="node57" class="node"><title>9704</title>
<ellipse fill="white" stroke="black" cx="1009.58" cy="-665.657" rx="25" ry="25"/>
<text text-anchor="middle" x="1009.58" y="-663.457" font-family="Times,serif" font-size="9.00">9704</text>
</g>
<!-- &#45;20&#45;&gt;9704 -->
<g id="edge66" class="edge"><title>&#45;20&#45;&gt;9704</title>
<path fill="none" stroke="red" stroke-width="0.588717" d="M962.249,-734.905C968.839,-725.402 980.072,-709.205 989.94,-694.974"/>
<polygon fill="red" stroke="red" stroke-width="0.588717" points="993.033,-696.657 995.855,-686.445 987.28,-692.668 993.033,-696.657"/>
</g>
<!-- 13815 -->
<g id="node63" class="node"><title>13815</title>
<ellipse fill="white" stroke="black" cx="918.577" cy="-574.503" rx="27.6545" ry="27.6545"/>
<text text-anchor="middle" x="918.577" y="-572.303" font-family="Times,serif" font-size="9.00">13815</text>
</g>
<!-- &#45;20&#45;&gt;13815 -->
<g id="edge57" class="edge"><title>&#45;20&#45;&gt;13815</title>
<path fill="none" stroke="red" stroke-width="1.03922" d="M955.419,-734.847C952.844,-717.051 946.186,-673.737 937.577,-638.08 935.409,-629.099 932.699,-619.505 930.012,-610.595"/>
<polygon fill="red" stroke="red" stroke-width="1.03922" points="933.311,-609.417 927.016,-600.894 926.623,-611.482 933.311,-609.417"/>
</g>
<!-- &#45;21 -->
<g id="node21" class="node"><title>&#45;21</title>
<polygon fill="lightgray" stroke="black" points="1018.08,-753.084 989.077,-753.084 989.077,-735.084 1018.08,-735.084 1018.08,-753.084"/>
<text text-anchor="middle" x="1003.58" y="-741.884" font-family="Times,serif" font-size="9.00">&#45;21</text>
</g>
<!-- &#45;22 -->
<g id="node22" class="node"><title>&#45;22</title>
<polygon fill="lightgray" stroke="black" points="1065.08,-753.084 1036.08,-753.084 1036.08,-735.084 1065.08,-735.084 1065.08,-753.084"/>
<text text-anchor="middle" x="1050.58" y="-741.884" font-family="Times,serif" font-size="9.00">&#45;22</text>
</g>
<!-- &#45;23 -->
<g id="node23" class="node"><title>&#45;23</title>
<polygon fill="lightgray" stroke="black" points="1097.08,-674.657 1068.08,-674.657 1068.08,-656.657 1097.08,-656.657 1097.08,-674.657"/>
<text text-anchor="middle" x="1082.58" y="-663.457" font-family="Times,serif" font-size="9.00">&#45;23</text>
</g>
<!-- 21242 -->
<g id="node64" class="node"><title>21242</title>
<ellipse fill="white" stroke="black" cx="1082.58" cy="-574.503" rx="27.6545" ry="27.6545"/>
<text text-anchor="middle" x="1082.58" y="-572.303" font-family="Times,serif" font-size="9.00">21242</text>
</g>
<!-- &#45;23&#45;&gt;21242 -->
<g id="edge34" class="edge"><title>&#45;23&#45;&gt;21242</title>
<path fill="none" stroke="green" stroke-width="0.284419" d="M1082.58,-656.43C1082.58,-646.458 1082.58,-628.977 1082.58,-612.808"/>
<polygon fill="green" stroke="green" stroke-width="0.284419" points="1086.08,-612.464 1082.58,-602.464 1079.08,-612.464 1086.08,-612.464"/>
</g>
<!-- &#45;24 -->
<g id="node24" class="node"><title>&#45;24</title>
<polygon fill="lightgray" stroke="black" points="802.077,-218.886 773.077,-218.886 773.077,-200.886 802.077,-200.886 802.077,-218.886"/>
<text text-anchor="middle" x="787.577" y="-207.686" font-family="Times,serif" font-size="9.00">&#45;24</text>
</g>
<!-- 12629 -->
<g id="node55" class="node"><title>12629</title>
<ellipse fill="white" stroke="black" cx="757.577" cy="-118.731" rx="27.6545" ry="27.6545"/>
<text text-anchor="middle" x="757.577" y="-116.531" font-family="Times,serif" font-size="9.00">12629</text>
</g>
<!-- &#45;24&#45;&gt;12629 -->
<g id="edge29" class="edge"><title>&#45;24&#45;&gt;12629</title>
<path fill="none" stroke="red" stroke-width="1.89883" d="M784.809,-200.658C781.292,-190.208 775.001,-171.511 769.351,-154.72"/>
<polygon fill="red" stroke="red" stroke-width="1.89883" points="772.63,-153.492 766.124,-145.13 765.996,-155.724 772.63,-153.492"/>
</g>
<!-- 0 -->
<g id="node25" class="node"><title>0</title>
<ellipse fill="lightblue" stroke="black" cx="1097.58" cy="-744.084" rx="14.7" ry="14.7"/>
<text text-anchor="middle" x="1097.58" y="-741.884" font-family="Times,serif" font-size="9.00">0</text>
</g>
<!-- 1 -->
<g id="node26" class="node"><title>1</title>
<ellipse fill="lightblue" stroke="black" cx="1136.58" cy="-118.731" rx="14.7" ry="14.7"/>
<text text-anchor="middle" x="1136.58" y="-116.531" font-family="Times,serif" font-size="9.00">1</text>
</g>
<!-- 2&#45;&gt;2831 -->
<g id="edge64" class="edge"><title>2&#45;&gt;2831</title>
<path fill="none" stroke="green" stroke-width="0.928142" d="M956.562,-377.316C953.908,-354.017 951.667,-306.361 971.577,-273.463 985.47,-250.507 1011.38,-234.126 1032.32,-223.897"/>
<polygon fill="green" stroke="green" stroke-width="0.928142" points="1033.94,-227.007 1041.54,-219.628 1030.99,-220.656 1033.94,-227.007"/>
</g>
<!-- 2&#45;&gt;6507 -->
<g id="edge39" class="edge"><title>2&#45;&gt;6507</title>
<path fill="none" stroke="green" stroke-width="0.188615" d="M944.445,-386.951C925.174,-381.276 889.507,-371.172 858.577,-364.617 727.379,-336.813 569.186,-315.195 500.371,-306.368"/>
<polygon fill="green" stroke="green" stroke-width="0.188615" points="500.473,-302.853 490.111,-305.062 499.589,-309.797 500.473,-302.853"/>
</g>
<!-- 2&#45;&gt;10861 -->
<g id="edge25" class="edge"><title>2&#45;&gt;10861</title>
<path fill="none" stroke="red" stroke-width="1.07435" d="M965.529,-378.798C971.99,-367.279 981.892,-349.622 990.572,-334.145"/>
<polygon fill="red" stroke="red" stroke-width="1.07435" points="993.667,-335.782 995.506,-325.348 987.561,-332.358 993.667,-335.782"/>
</g>
<!-- 3 -->
<g id="node28" class="node"><title>3</title>
<ellipse fill="lightblue" stroke="black" cx="1145.58" cy="-744.084" rx="14.7" ry="14.7"/>
<text text-anchor="middle" x="1145.58" y="-741.884" font-family="Times,serif" font-size="9.00">3</text>
</g>
<!-- 20610 -->
<g id="node29" class="node"><title>20610</title>
<ellipse fill="white" stroke="black" cx="821.577" cy="-392.194" rx="27.6545" ry="27.6545"/>
<text text-anchor="middle" x="821.577" y="-389.994" font-family="Times,serif" font-size="9.00">20610</text>
</g>
<!-- 18457 -->
<g id="node37" class="node"><title>18457</title>
<ellipse fill="white" stroke="black" cx="783.577" cy="-301.04" rx="27.6545" ry="27.6545"/>
<text text-anchor="middle" x="783.577" y="-298.84" font-family="Times,serif" font-size="9.00">18457</text>
</g>
<!-- 20610&#45;&gt;18457 -->
<g id="edge63" class="edge"><title>20610&#45;&gt;18457</title>
<path fill="none" stroke="green" stroke-width="0.197465" d="M810.992,-366.36C806.998,-356.989 802.382,-346.16 798.09,-336.09"/>
<polygon fill="green" stroke="green" stroke-width="0.197465" points="801.246,-334.568 794.106,-326.741 794.807,-337.313 801.246,-334.568"/>
</g>
<!-- 13963&#45;&gt;5851 -->
<g id="edge31" class="edge"><title>13963&#45;&gt;5851</title>
<path fill="none" stroke="red" stroke-width="0.485839" d="M113.358,-291.166C160.718,-274.863 261.491,-240.175 313.696,-222.204"/>
<polygon fill="red" stroke="red" stroke-width="0.485839" points="314.841,-225.512 323.157,-218.948 312.563,-218.893 314.841,-225.512"/>
</g>
<!-- 16908 -->
<g id="node31" class="node"><title>16908</title>
<ellipse fill="white" stroke="black" cx="336.577" cy="-392.194" rx="27.6545" ry="27.6545"/>
<text text-anchor="middle" x="336.577" y="-389.994" font-family="Times,serif" font-size="9.00">16908</text>
</g>
<!-- 16908&#45;&gt;6507 -->
<g id="edge22" class="edge"><title>16908&#45;&gt;6507</title>
<path fill="none" stroke="green" stroke-width="0.502243" d="M358.168,-375.019C362.889,-371.548 367.879,-367.93 372.577,-364.617 393.763,-349.68 418.08,-333.345 436.535,-321.111"/>
<polygon fill="green" stroke="green" stroke-width="0.502243" points="438.672,-323.894 445.084,-315.459 434.812,-318.055 438.672,-323.894"/>
</g>
<!-- 13327 -->
<g id="node32" class="node"><title>13327</title>
<ellipse fill="white" stroke="black" cx="27.5772" cy="-392.194" rx="27.6545" ry="27.6545"/>
<text text-anchor="middle" x="27.5772" y="-389.994" font-family="Times,serif" font-size="9.00">13327</text>
</g>
<!-- 13327&#45;&gt;13963 -->
<g id="edge48" class="edge"><title>13327&#45;&gt;13963</title>
<path fill="none" stroke="green" stroke-width="0.235017" d="M42.7177,-368.697C49.9657,-357.927 58.7619,-344.857 66.6384,-333.153"/>
<polygon fill="green" stroke="green" stroke-width="0.235017" points="69.7618,-334.781 72.4415,-324.53 63.9545,-330.872 69.7618,-334.781"/>
</g>
<!-- 13327&#45;&gt;5851 -->
<g id="edge52" class="edge"><title>13327&#45;&gt;5851</title>
<path fill="none" stroke="green" stroke-width="0.931552" d="M25.0092,-364.459C24.0197,-337.76 27.0515,-297.354 50.5772,-273.463 86.7702,-236.708 241.674,-219.516 311.819,-213.504"/>
<polygon fill="green" stroke="green" stroke-width="0.931552" points="312.248,-216.981 321.924,-212.666 311.669,-210.005 312.248,-216.981"/>
</g>
<!-- 2831&#45;&gt;1 -->
<g id="edge6" class="edge"><title>2831&#45;&gt;1</title>
<path fill="none" stroke="red" stroke-width="0.340695" d="M1079.85,-189.978C1091.99,-174.938 1108.92,-153.984 1121.11,-138.88"/>
<polygon fill="red" stroke="red" stroke-width="0.340695" points="1124.12,-140.732 1127.68,-130.753 1118.67,-136.334 1124.12,-140.732"/>
</g>
<!-- 18837 -->
<g id="node34" class="node"><title>18837</title>
<ellipse fill="white" stroke="black" cx="559.577" cy="-392.194" rx="27.6545" ry="27.6545"/>
<text text-anchor="middle" x="559.577" y="-389.994" font-family="Times,serif" font-size="9.00">18837</text>
</g>
<!-- 18837&#45;&gt;6507 -->
<g id="edge56" class="edge"><title>18837&#45;&gt;6507</title>
<path fill="none" stroke="green" stroke-width="0.152148" d="M539.642,-372.287C525.415,-358.794 506.17,-340.54 490.863,-326.022"/>
<polygon fill="green" stroke="green" stroke-width="0.152148" points="492.929,-323.158 483.265,-318.816 488.112,-328.237 492.929,-323.158"/>
</g>
<!-- 2197&#45;&gt;1 -->
<g id="edge45" class="edge"><title>2197&#45;&gt;1</title>
<path fill="none" stroke="green" stroke-width="0.801378" d="M1194.1,-189.978C1181.78,-174.938 1164.62,-153.984 1152.26,-138.88"/>
<polygon fill="green" stroke="green" stroke-width="0.801378" points="1154.64,-136.273 1145.6,-130.753 1149.23,-140.708 1154.64,-136.273"/>
</g>
<!-- 4505&#45;&gt;2831 -->
<g id="edge50" class="edge"><title>4505&#45;&gt;2831</title>
<path fill="none" stroke="red" stroke-width="0.591285" d="M1105.28,-279.362C1098.39,-267.772 1089.69,-253.122 1082.09,-240.35"/>
<polygon fill="red" stroke="red" stroke-width="0.591285" points="1084.92,-238.259 1076.8,-231.452 1078.9,-241.836 1084.92,-238.259"/>
</g>
<!-- 17317 -->
<g id="node41" class="node"><title>17317</title>
<ellipse fill="white" stroke="black" cx="108.577" cy="-483.349" rx="27.6545" ry="27.6545"/>
<text text-anchor="middle" x="108.577" y="-481.149" font-family="Times,serif" font-size="9.00">17317</text>
</g>
<!-- 14752&#45;&gt;17317 -->
<g id="edge40" class="edge"><title>14752&#45;&gt;17317</title>
<path fill="none" stroke="green" stroke-width="0.551702" d="M157.51,-551.465C149.324,-540.237 139.25,-526.42 130.375,-514.246"/>
<polygon fill="green" stroke="green" stroke-width="0.551702" points="133.179,-512.152 124.46,-506.133 127.523,-516.276 133.179,-512.152"/>
</g>
<!-- 14752&#45;&gt;6507 -->
<g id="edge19" class="edge"><title>14752&#45;&gt;6507</title>
<path fill="none" stroke="red" stroke-width="0.155296" d="M166.527,-547.758C156.345,-504.374 143.251,-416.381 187.577,-364.617 218.885,-328.057 363.22,-310.921 430.665,-304.804"/>
<polygon fill="red" stroke="red" stroke-width="0.155296" points="431.144,-308.275 440.8,-303.915 430.533,-301.302 431.144,-308.275"/>
</g>
<!-- 12709 -->
<g id="node39" class="node"><title>12709</title>
<ellipse fill="white" stroke="black" cx="973.577" cy="-483.349" rx="27.6545" ry="27.6545"/>
<text text-anchor="middle" x="973.577" y="-481.149" font-family="Times,serif" font-size="9.00">12709</text>
</g>
<!-- 7718 -->
<g id="node40" class="node"><title>7718</title>
<ellipse fill="white" stroke="black" cx="699.577" cy="-483.349" rx="25" ry="25"/>
<text text-anchor="middle" x="699.577" y="-481.149" font-family="Times,serif" font-size="9.00">7718</text>
</g>
<!-- 7718&#45;&gt;20610 -->
<g id="edge49" class="edge"><title>7718&#45;&gt;20610</title>
<path fill="none" stroke="red" stroke-width="0.341339" d="M719.179,-468.025C738.649,-453.796 768.775,-431.781 791.318,-415.307"/>
<polygon fill="red" stroke="red" stroke-width="0.341339" points="793.539,-418.019 799.548,-409.293 789.409,-412.367 793.539,-418.019"/>
</g>
<!-- 7718&#45;&gt;18837 -->
<g id="edge18" class="edge"><title>7718&#45;&gt;18837</title>
<path fill="none" stroke="red" stroke-width="0.341307" d="M678.92,-469.194C655.822,-454.485 618.141,-430.489 591.301,-413.397"/>
<polygon fill="red" stroke="red" stroke-width="0.341307" points="592.966,-410.308 582.651,-407.888 589.206,-416.212 592.966,-410.308"/>
</g>
<!-- 7718&#45;&gt;18457 -->
<g id="edge59" class="edge"><title>7718&#45;&gt;18457</title>
<path fill="none" stroke="green" stroke-width="0.166541" d="M714.321,-463.108C723.045,-451.105 733.862,-435.077 741.577,-419.772 754.91,-393.32 765.966,-361.605 773.382,-337.76"/>
<polygon fill="green" stroke="green" stroke-width="0.166541" points="776.77,-338.646 776.333,-328.06 770.074,-336.608 776.77,-338.646"/>
</g>
<!-- 21292 -->
<g id="node43" class="node"><title>21292</title>
<ellipse fill="white" stroke="black" cx="727.577" cy="-209.886" rx="27.6545" ry="27.6545"/>
<text text-anchor="middle" x="727.577" y="-207.686" font-family="Times,serif" font-size="9.00">21292</text>
</g>
<!-- 7718&#45;&gt;21292 -->
<g id="edge41" class="edge"><title>7718&#45;&gt;21292</title>
<path fill="none" stroke="green" stroke-width="0.282463" d="M703.288,-458.615C705.038,-446.935 707.068,-432.635 708.577,-419.772 715.637,-359.591 721.546,-289.392 724.818,-247.624"/>
<polygon fill="green" stroke="green" stroke-width="0.282463" points="728.309,-247.882 725.592,-237.641 721.33,-247.34 728.309,-247.882"/>
</g>
<!-- 10705 -->
<g id="node52" class="node"><title>10705</title>
<ellipse fill="white" stroke="black" cx="671.577" cy="-392.194" rx="27.6545" ry="27.6545"/>
<text text-anchor="middle" x="671.577" y="-389.994" font-family="Times,serif" font-size="9.00">10705</text>
</g>
<!-- 7718&#45;&gt;10705 -->
<g id="edge65" class="edge"><title>7718&#45;&gt;10705</title>
<path fill="none" stroke="green" stroke-width="0.490168" d="M692.366,-459.389C689.419,-450.006 685.943,-438.936 682.685,-428.562"/>
<polygon fill="green" stroke="green" stroke-width="0.490168" points="685.988,-427.399 679.652,-418.907 679.31,-429.496 685.988,-427.399"/>
</g>
<!-- 7718&#45;&gt;12629 -->
<g id="edge60" class="edge"><title>7718&#45;&gt;12629</title>
<path fill="none" stroke="red" stroke-width="0.141146" d="M724.436,-480.841C761.013,-477.128 828.268,-464.273 858.577,-419.772 893.618,-368.324 860.107,-277.428 810.577,-182.309 803.765,-169.227 793.788,-156.486 784.322,-145.951"/>
<polygon fill="red" stroke="red" stroke-width="0.141146" points="786.622,-143.286 777.244,-138.357 781.501,-148.058 786.622,-143.286"/>
</g>
<!-- 7718&#45;&gt;6507 -->
<g id="edge54" class="edge"><title>7718&#45;&gt;6507</title>
<path fill="none" stroke="red" stroke-width="0.556036" d="M681.237,-466.517C667.656,-454.373 649.073,-436.849 634.577,-419.772 615.313,-397.078 619.218,-383.944 596.577,-364.617 567.723,-339.987 527.513,-322.688 499.276,-312.613"/>
<polygon fill="red" stroke="red" stroke-width="0.556036" points="500.052,-309.179 489.457,-309.228 497.771,-315.796 500.052,-309.179"/>
</g>
<!-- 17317&#45;&gt;13327 -->
<g id="edge30" class="edge"><title>17317&#45;&gt;13327</title>
<path fill="none" stroke="green" stroke-width="0.852006" d="M90.197,-462.118C79.1157,-449.921 64.8474,-434.217 52.7301,-420.88"/>
<polygon fill="green" stroke="green" stroke-width="0.852006" points="55.1996,-418.393 45.8846,-413.345 50.0186,-423.1 55.1996,-418.393"/>
</g>
<!-- 17317&#45;&gt;6507 -->
<g id="edge23" class="edge"><title>17317&#45;&gt;6507</title>
<path fill="none" stroke="green" stroke-width="0.489852" d="M111.616,-455.632C116.163,-428.55 127.352,-387.477 154.577,-364.617 196.186,-329.681 358.383,-311.426 430.581,-304.891"/>
<polygon fill="green" stroke="green" stroke-width="0.489852" points="430.902,-308.377 440.555,-304.012 430.286,-301.404 430.902,-308.377"/>
</g>
<!-- 16336 -->
<g id="node51" class="node"><title>16336</title>
<ellipse fill="white" stroke="black" cx="409.577" cy="-392.194" rx="27.6545" ry="27.6545"/>
<text text-anchor="middle" x="409.577" y="-389.994" font-family="Times,serif" font-size="9.00">16336</text>
</g>
<!-- 17832&#45;&gt;16336 -->
<g id="edge11" class="edge"><title>17832&#45;&gt;16336</title>
<path fill="none" stroke="red" stroke-width="0.461157" d="M422.979,-456.082C421.182,-447.648 419.159,-438.155 417.24,-429.151"/>
<polygon fill="red" stroke="red" stroke-width="0.461157" points="420.643,-428.325 415.135,-419.274 413.796,-429.784 420.643,-428.325"/>
</g>
<!-- 17832&#45;&gt;6507 -->
<g id="edge38" class="edge"><title>17832&#45;&gt;6507</title>
<path fill="none" stroke="red" stroke-width="0.626019" d="M436.633,-456.953C440.023,-445.65 443.814,-432.128 446.577,-419.772 452.847,-391.738 457.902,-359.508 461.217,-335.865"/>
<polygon fill="red" stroke="red" stroke-width="0.626019" points="464.726,-336.035 462.616,-325.653 457.791,-335.085 464.726,-336.035"/>
</g>
<!-- 21292&#45;&gt;12629 -->
<g id="edge43" class="edge"><title>21292&#45;&gt;12629</title>
<path fill="none" stroke="red" stroke-width="0.115778" d="M736.094,-183.576C739.102,-174.636 742.542,-164.414 745.773,-154.81"/>
<polygon fill="red" stroke="red" stroke-width="0.115778" points="749.167,-155.698 749.039,-145.104 742.533,-153.466 749.167,-155.698"/>
</g>
<!-- 19636&#45;&gt;6507 -->
<g id="edge32" class="edge"><title>19636&#45;&gt;6507</title>
<path fill="none" stroke="green" stroke-width="0.236461" d="M247.075,-375.455C253.22,-371.578 260.002,-367.668 266.577,-364.617 322.185,-338.816 391.256,-319.777 431.676,-309.837"/>
<polygon fill="green" stroke="green" stroke-width="0.236461" points="432.655,-313.201 441.553,-307.45 431.01,-306.397 432.655,-313.201"/>
</g>
<!-- 18613&#45;&gt;9931 -->
<g id="edge37" class="edge"><title>18613&#45;&gt;9931</title>
<path fill="none" stroke="red" stroke-width="0.142676" d="M564.577,-637.908C564.577,-629.039 564.577,-619.042 564.577,-609.691"/>
<polygon fill="red" stroke="red" stroke-width="0.142676" points="568.077,-609.503 564.577,-599.503 561.077,-609.503 568.077,-609.503"/>
</g>
<!-- 20921 -->
<g id="node46" class="node"><title>20921</title>
<ellipse fill="white" stroke="black" cx="383.577" cy="-118.731" rx="27.6545" ry="27.6545"/>
<text text-anchor="middle" x="383.577" y="-116.531" font-family="Times,serif" font-size="9.00">20921</text>
</g>
<!-- 12988&#45;&gt;16908 -->
<g id="edge21" class="edge"><title>12988&#45;&gt;16908</title>
<path fill="none" stroke="green" stroke-width="0.820697" d="M342.877,-455.6C342.067,-447.577 341.164,-438.633 340.301,-430.078"/>
<polygon fill="green" stroke="green" stroke-width="0.820697" points="343.762,-429.523 339.276,-419.925 336.798,-430.226 343.762,-429.523"/>
</g>
<!-- 12988&#45;&gt;16336 -->
<g id="edge44" class="edge"><title>12988&#45;&gt;16336</title>
<path fill="none" stroke="green" stroke-width="1.856" d="M361.397,-460.311C369.38,-449.19 379.186,-435.531 387.863,-423.444"/>
<polygon fill="green" stroke="green" stroke-width="1.856" points="390.951,-425.144 393.939,-414.979 385.264,-421.062 390.951,-425.144"/>
</g>
<!-- 9931&#45;&gt;12709 -->
<g id="edge2" class="edge"><title>9931&#45;&gt;12709</title>
<path fill="none" stroke="red" stroke-width="0.158265" d="M589.574,-573.154C651.052,-571.492 813.555,-562.184 936.577,-510.926 939.091,-509.878 941.599,-508.632 944.055,-507.259"/>
<polygon fill="red" stroke="red" stroke-width="0.158265" points="946.045,-510.142 952.653,-501.861 942.323,-504.214 946.045,-510.142"/>
</g>
<!-- 9931&#45;&gt;7718 -->
<g id="edge27" class="edge"><title>9931&#45;&gt;7718</title>
<path fill="none" stroke="green" stroke-width="0.3064" d="M584.788,-560.156C607.554,-545.121 644.743,-520.561 670.598,-503.487"/>
<polygon fill="green" stroke="green" stroke-width="0.3064" points="672.812,-506.219 679.228,-497.787 668.955,-500.378 672.812,-506.219"/>
</g>
<!-- 9931&#45;&gt;6507 -->
<g id="edge15" class="edge"><title>9931&#45;&gt;6507</title>
<path fill="none" stroke="red" stroke-width="0.282666" d="M556.307,-550.825C538.72,-502.601 497.562,-389.744 477.287,-334.149"/>
<polygon fill="red" stroke="red" stroke-width="0.282666" points="480.469,-332.658 473.754,-324.463 473.892,-335.056 480.469,-332.658"/>
</g>
<!-- 13515 -->
<g id="node50" class="node"><title>13515</title>
<ellipse fill="white" stroke="black" cx="310.577" cy="-118.731" rx="27.6545" ry="27.6545"/>
<text text-anchor="middle" x="310.577" y="-116.531" font-family="Times,serif" font-size="9.00">13515</text>
</g>
<!-- 13515&#45;&gt;11577 -->
<g id="edge13" class="edge"><title>13515&#45;&gt;11577</title>
<path fill="none" stroke="red" stroke-width="1.70159" d="M326.645,-95.6933C334.831,-84.4651 344.905,-70.6479 353.78,-58.4747"/>
<polygon fill="red" stroke="red" stroke-width="1.70159" points="356.631,-60.5042 359.695,-50.3618 350.975,-56.3803 356.631,-60.5042"/>
</g>
<!-- 10705&#45;&gt;6507 -->
<g id="edge4" class="edge"><title>10705&#45;&gt;6507</title>
<path fill="none" stroke="red" stroke-width="0.231845" d="M648.952,-375.72C642.808,-371.841 636.058,-367.863 629.577,-364.617 585.87,-342.726 532.547,-323.699 498.819,-312.543"/>
<polygon fill="red" stroke="red" stroke-width="0.231845" points="499.605,-309.118 489.013,-309.339 497.431,-315.772 499.605,-309.118"/>
</g>
<!-- 20690&#45;&gt;13815 -->
<g id="edge1" class="edge"><title>20690&#45;&gt;13815</title>
<path fill="none" stroke="red" stroke-width="0.253864" d="M905.88,-638.39C907.583,-629.956 909.5,-620.464 911.318,-611.459"/>
<polygon fill="red" stroke="red" stroke-width="0.253864" points="914.763,-612.077 913.312,-601.582 907.902,-610.692 914.763,-612.077"/>
</g>
<!-- 19797 -->
<g id="node54" class="node"><title>19797</title>
<ellipse fill="white" stroke="black" cx="100.577" cy="-574.503" rx="27.6545" ry="27.6545"/>
<text text-anchor="middle" x="100.577" y="-572.303" font-family="Times,serif" font-size="9.00">19797</text>
</g>
<!-- 19797&#45;&gt;17317 -->
<g id="edge8" class="edge"><title>19797&#45;&gt;17317</title>
<path fill="none" stroke="green" stroke-width="0.233737" d="M102.977,-546.754C103.697,-538.732 104.5,-529.787 105.268,-521.232"/>
<polygon fill="green" stroke="green" stroke-width="0.233737" points="108.771,-521.352 106.179,-511.079 101.799,-520.726 108.771,-521.352"/>
</g>
<!-- 5851&#45;&gt;20921 -->
<g id="edge55" class="edge"><title>5851&#45;&gt;20921</title>
<path fill="none" stroke="green" stroke-width="0.353637" d="M355.723,-186.848C359.828,-176.957 364.767,-165.057 369.338,-154.042"/>
<polygon fill="green" stroke="green" stroke-width="0.353637" points="372.63,-155.24 373.231,-144.662 366.165,-152.557 372.63,-155.24"/>
</g>
<!-- 5851&#45;&gt;13515 -->
<g id="edge33" class="edge"><title>5851&#45;&gt;13515</title>
<path fill="none" stroke="red" stroke-width="0.366459" d="M337.493,-186.388C333.57,-176.673 328.891,-165.085 324.543,-154.317"/>
<polygon fill="red" stroke="red" stroke-width="0.366459" points="327.664,-152.699 320.674,-144.736 321.173,-155.319 327.664,-152.699"/>
</g>
<!-- 5851&#45;&gt;12629 -->
<g id="edge36" class="edge"><title>5851&#45;&gt;12629</title>
<path fill="none" stroke="green" stroke-width="0.22052" d="M370.753,-203.642C439.811,-188.662 638.283,-145.609 720.853,-127.698"/>
<polygon fill="green" stroke="green" stroke-width="0.22052" points="721.762,-131.082 730.793,-125.542 720.278,-124.241 721.762,-131.082"/>
</g>
<!-- 20077 -->
<g id="node62" class="node"><title>20077</title>
<ellipse fill="white" stroke="black" cx="1009.58" cy="-574.503" rx="27.6545" ry="27.6545"/>
<text text-anchor="middle" x="1009.58" y="-572.303" font-family="Times,serif" font-size="9.00">20077</text>
</g>
<!-- 9704&#45;&gt;20077 -->
<g id="edge10" class="edge"><title>9704&#45;&gt;20077</title>
<path fill="none" stroke="green" stroke-width="0.221848" d="M1009.58,-640.766C1009.58,-632.054 1009.58,-621.987 1009.58,-612.408"/>
<polygon fill="green" stroke="green" stroke-width="0.221848" points="1013.08,-612.292 1009.58,-602.292 1006.08,-612.292 1013.08,-612.292"/>
</g>
<!-- 10861&#45;&gt;2831 -->
<g id="edge46" class="edge"><title>10861&#45;&gt;2831</title>
<path fill="none" stroke="red" stroke-width="0.391649" d="M1023,-277.081C1030.07,-265.816 1038.68,-252.12 1046.22,-240.116"/>
<polygon fill="red" stroke="red" stroke-width="0.391649" points="1049.38,-241.664 1051.73,-231.334 1043.45,-237.941 1049.38,-241.664"/>
</g>
<!-- 12795 -->
<g id="node65" class="node"><title>12795</title>
<ellipse fill="white" stroke="black" cx="1046.58" cy="-483.349" rx="27.6545" ry="27.6545"/>
<text text-anchor="middle" x="1046.58" y="-481.149" font-family="Times,serif" font-size="9.00">12795</text>
</g>
<!-- 20077&#45;&gt;12795 -->
<g id="edge61" class="edge"><title>20077&#45;&gt;12795</title>
<path fill="none" stroke="green" stroke-width="0.310432" d="M1019.88,-548.669C1023.77,-539.298 1028.27,-528.468 1032.45,-518.399"/>
<polygon fill="green" stroke="green" stroke-width="0.310432" points="1035.73,-519.628 1036.33,-509.05 1029.26,-516.945 1035.73,-519.628"/>
</g>
<!-- 21242&#45;&gt;12795 -->
<g id="edge14" class="edge"><title>21242&#45;&gt;12795</title>
<path fill="none" stroke="green" stroke-width="1.6568" d="M1072.55,-548.669C1068.8,-539.376 1064.47,-528.649 1060.43,-518.651"/>
<polygon fill="green" stroke="green" stroke-width="1.6568" points="1063.67,-517.321 1056.68,-509.359 1057.18,-519.942 1063.67,-517.321"/>
</g>
</g>
</svg>
