<?xml version="1.0" encoding="UTF-8" standalone="no"?>
<!DOCTYPE svg PUBLIC "-//W3C//DTD SVG 1.1//EN"
 "http://www.w3.org/Graphics/SVG/1.1/DTD/svg11.dtd">
<!-- Generated by graphviz version 2.38.0 (20140413.2041)
 -->
<!-- Title: %3 Pages: 1 -->
<svg width="1079pt" height="197pt"
 viewBox="0.00 0.00 1078.50 196.99" xmlns="http://www.w3.org/2000/svg" xmlns:xlink="http://www.w3.org/1999/xlink">
<g id="graph0" class="graph" transform="scale(1 1) rotate(0) translate(4 192.995)">
<title>%3</title>
<polygon fill="white" stroke="none" points="-4,4 -4,-192.995 1074.5,-192.995 1074.5,4 -4,4"/>
<!-- &#45;1 -->
<g id="node1" class="node"><title>&#45;1</title>
<polygon fill="lightgray" stroke="black" points="655,-188.995 631,-188.995 631,-170.995 655,-170.995 655,-188.995"/>
<text text-anchor="middle" x="643" y="-177.795" font-family="Times,serif" font-size="9.00">&#45;1</text>
</g>
<!-- 0 -->
<g id="node25" class="node"><title>0</title>
<ellipse fill="lightblue" stroke="black" cx="469" cy="-110.246" rx="14.7" ry="14.7"/>
<text text-anchor="middle" x="469" y="-108.046" font-family="Times,serif" font-size="9.00">0</text>
</g>
<!-- &#45;1&#45;&gt;0 -->
<g id="edge2" class="edge"><title>&#45;1&#45;&gt;0</title>
<path fill="none" stroke="green" stroke-width="0.159721" stroke-dasharray="1,5" d="M630.765,-174.231C602.057,-163.053 529.979,-134.989 492.485,-120.39"/>
<polygon fill="green" stroke="green" stroke-width="0.159721" points="493.48,-117.022 482.891,-116.655 490.94,-123.545 493.48,-117.022"/>
</g>
<!-- 1 -->
<g id="node26" class="node"><title>1</title>
<ellipse fill="lightblue" stroke="black" cx="735" cy="-110.246" rx="14.7" ry="14.7"/>
<text text-anchor="middle" x="735" y="-108.046" font-family="Times,serif" font-size="9.00">1</text>
</g>
<!-- &#45;1&#45;&gt;1 -->
<g id="edge12" class="edge"><title>&#45;1&#45;&gt;1</title>
<path fill="none" stroke="green" stroke-width="0.450546" stroke-dasharray="1,5" d="M653.915,-170.957C669.036,-159.822 696.61,-139.517 715.362,-125.708"/>
<polygon fill="green" stroke="green" stroke-width="0.450546" points="717.546,-128.446 723.523,-119.698 713.395,-122.81 717.546,-128.446"/>
</g>
<!-- 3 -->
<g id="node28" class="node"><title>3</title>
<ellipse fill="lightblue" stroke="black" cx="601" cy="-110.246" rx="14.7" ry="14.7"/>
<text text-anchor="middle" x="601" y="-108.046" font-family="Times,serif" font-size="9.00">3</text>
</g>
<!-- &#45;1&#45;&gt;3 -->
<g id="edge40" class="edge"><title>&#45;1&#45;&gt;3</title>
<path fill="none" stroke="green" stroke-width="0.424284" stroke-dasharray="1,5" d="M638.017,-170.957C632.142,-161.48 622.149,-145.361 614.026,-132.258"/>
<polygon fill="green" stroke="green" stroke-width="0.424284" points="616.771,-130.043 608.527,-123.388 610.821,-133.731 616.771,-130.043"/>
</g>
<!-- &#45;2 -->
<g id="node2" class="node"><title>&#45;2</title>
<polygon fill="lightgray" stroke="black" points="24,-188.995 0,-188.995 0,-170.995 24,-170.995 24,-188.995"/>
<text text-anchor="middle" x="12" y="-177.795" font-family="Times,serif" font-size="9.00">&#45;2</text>
</g>
<!-- 2 -->
<g id="node27" class="node"><title>2</title>
<ellipse fill="lightblue" stroke="black" cx="238" cy="-110.246" rx="14.7" ry="14.7"/>
<text text-anchor="middle" x="238" y="-108.046" font-family="Times,serif" font-size="9.00">2</text>
</g>
<!-- &#45;2&#45;&gt;2 -->
<g id="edge31" class="edge"><title>&#45;2&#45;&gt;2</title>
<path fill="none" stroke="green" stroke-width="0.272839" stroke-dasharray="1,5" d="M24.3773,-174.091C27.1962,-173.027 30.189,-171.938 33,-170.995 97.5703,-149.325 175.048,-127.985 213.647,-117.662"/>
<polygon fill="green" stroke="green" stroke-width="0.272839" points="214.697,-121.005 223.461,-115.052 212.897,-114.24 214.697,-121.005"/>
</g>
<!-- &#45;3 -->
<g id="node3" class="node"><title>&#45;3</title>
<polygon fill="lightgray" stroke="black" points="481,-188.995 457,-188.995 457,-170.995 481,-170.995 481,-188.995"/>
<text text-anchor="middle" x="469" y="-177.795" font-family="Times,serif" font-size="9.00">&#45;3</text>
</g>
<!-- &#45;3&#45;&gt;0 -->
<g id="edge44" class="edge"><title>&#45;3&#45;&gt;0</title>
<path fill="none" stroke="green" stroke-width="0.24965" stroke-dasharray="1,5" d="M469,-170.957C469,-162.228 469,-147.863 469,-135.41"/>
<polygon fill="green" stroke="green" stroke-width="0.24965" points="472.5,-135.149 469,-125.149 465.5,-135.149 472.5,-135.149"/>
</g>
<!-- &#45;3&#45;&gt;1 -->
<g id="edge32" class="edge"><title>&#45;3&#45;&gt;1</title>
<path fill="none" stroke="red" stroke-width="0.12867" stroke-dasharray="1,5" d="M481.347,-173.998C484.168,-172.939 487.169,-171.876 490,-170.995 531.751,-158.007 657.497,-128.914 710.751,-116.753"/>
<polygon fill="red" stroke="red" stroke-width="0.12867" points="711.702,-120.126 720.674,-114.492 710.147,-113.301 711.702,-120.126"/>
</g>
<!-- &#45;3&#45;&gt;2 -->
<g id="edge20" class="edge"><title>&#45;3&#45;&gt;2</title>
<path fill="none" stroke="red" stroke-width="0.458534" d="M456.949,-174.44C453.732,-173.271 450.247,-172.048 447,-170.995 380.718,-149.499 301.325,-127.929 262.214,-117.575"/>
<polygon fill="red" stroke="red" stroke-width="0.458534" points="262.857,-114.125 252.296,-114.961 261.074,-120.894 262.857,-114.125"/>
</g>
<!-- &#45;4 -->
<g id="node4" class="node"><title>&#45;4</title>
<polygon fill="lightgray" stroke="black" points="613,-188.995 589,-188.995 589,-170.995 613,-170.995 613,-188.995"/>
<text text-anchor="middle" x="601" y="-177.795" font-family="Times,serif" font-size="9.00">&#45;4</text>
</g>
<!-- &#45;4&#45;&gt;0 -->
<g id="edge34" class="edge"><title>&#45;4&#45;&gt;0</title>
<path fill="none" stroke="red" stroke-width="0.507136" d="M588.818,-172.743C566.552,-161.315 519,-136.909 490.959,-122.517"/>
<polygon fill="red" stroke="red" stroke-width="0.507136" points="492.422,-119.333 481.927,-117.881 489.226,-125.561 492.422,-119.333"/>
</g>
<!-- &#45;4&#45;&gt;1 -->
<g id="edge47" class="edge"><title>&#45;4&#45;&gt;1</title>
<path fill="none" stroke="green" stroke-width="0.398231" stroke-dasharray="1,5" d="M613.366,-172.743C635.97,-161.315 684.242,-136.909 712.709,-122.517"/>
<polygon fill="green" stroke="green" stroke-width="0.398231" points="714.532,-125.517 721.877,-117.881 711.373,-119.27 714.532,-125.517"/>
</g>
<!-- &#45;4&#45;&gt;3 -->
<g id="edge17" class="edge"><title>&#45;4&#45;&gt;3</title>
<path fill="none" stroke="green" stroke-width="0.595911" stroke-dasharray="1,5" d="M601,-170.957C601,-162.228 601,-147.863 601,-135.41"/>
<polygon fill="green" stroke="green" stroke-width="0.595911" points="604.5,-135.149 601,-125.149 597.5,-135.149 604.5,-135.149"/>
</g>
<!-- &#45;5 -->
<g id="node5" class="node"><title>&#45;5</title>
<polygon fill="lightgray" stroke="black" points="523,-188.995 499,-188.995 499,-170.995 523,-170.995 523,-188.995"/>
<text text-anchor="middle" x="511" y="-177.795" font-family="Times,serif" font-size="9.00">&#45;5</text>
</g>
<!-- &#45;5&#45;&gt;0 -->
<g id="edge27" class="edge"><title>&#45;5&#45;&gt;0</title>
<path fill="none" stroke="red" stroke-width="2.21231" d="M506.017,-170.957C500.142,-161.48 490.149,-145.361 482.026,-132.258"/>
<polygon fill="red" stroke="red" stroke-width="2.21231" points="484.771,-130.043 476.527,-123.388 478.821,-133.731 484.771,-130.043"/>
</g>
<!-- &#45;5&#45;&gt;3 -->
<g id="edge37" class="edge"><title>&#45;5&#45;&gt;3</title>
<path fill="none" stroke="red" stroke-width="0.294957" stroke-dasharray="1,5" d="M521.678,-170.957C536.323,-159.933 562.91,-139.919 581.239,-126.121"/>
<polygon fill="red" stroke="red" stroke-width="0.294957" points="583.601,-128.724 589.486,-119.914 579.391,-123.132 583.601,-128.724"/>
</g>
<!-- &#45;6 -->
<g id="node6" class="node"><title>&#45;6</title>
<polygon fill="lightgray" stroke="black" points="66,-188.995 42,-188.995 42,-170.995 66,-170.995 66,-188.995"/>
<text text-anchor="middle" x="54" y="-177.795" font-family="Times,serif" font-size="9.00">&#45;6</text>
</g>
<!-- &#45;6&#45;&gt;2 -->
<g id="edge45" class="edge"><title>&#45;6&#45;&gt;2</title>
<path fill="none" stroke="red" stroke-width="0.32872" stroke-dasharray="1,5" d="M66.4271,-174.231C69.2434,-173.16 72.2226,-172.033 75,-170.995 124.462,-152.509 182.565,-131.342 214.316,-119.821"/>
<polygon fill="red" stroke="red" stroke-width="0.32872" points="215.815,-123.001 224.024,-116.302 213.429,-116.42 215.815,-123.001"/>
</g>
<!-- &#45;7 -->
<g id="node7" class="node"><title>&#45;7</title>
<polygon fill="lightgray" stroke="black" points="1023,-188.995 999,-188.995 999,-170.995 1023,-170.995 1023,-188.995"/>
<text text-anchor="middle" x="1011" y="-177.795" font-family="Times,serif" font-size="9.00">&#45;7</text>
</g>
<!-- &#45;7&#45;&gt;1 -->
<g id="edge48" class="edge"><title>&#45;7&#45;&gt;1</title>
<path fill="none" stroke="green" stroke-width="0.251716" stroke-dasharray="1,5" d="M998.659,-173.979C995.838,-172.921 992.835,-171.863 990,-170.995 906.68,-145.488 805.208,-124.688 759.451,-115.841"/>
<polygon fill="green" stroke="green" stroke-width="0.251716" points="760.038,-112.39 749.559,-113.947 758.722,-119.265 760.038,-112.39"/>
</g>
<!-- 6941 -->
<g id="node30" class="node"><title>6941</title>
<ellipse fill="white" stroke="black" cx="966" cy="-110.246" rx="25" ry="25"/>
<text text-anchor="middle" x="966" y="-108.046" font-family="Times,serif" font-size="9.00">6941</text>
</g>
<!-- &#45;7&#45;&gt;6941 -->
<g id="edge11" class="edge"><title>&#45;7&#45;&gt;6941</title>
<path fill="none" stroke="green" stroke-width="0.21724" stroke-dasharray="1,5" d="M1005.66,-170.957C1000.54,-163.248 992.501,-151.144 984.995,-139.843"/>
<polygon fill="green" stroke="green" stroke-width="0.21724" points="987.864,-137.837 979.416,-131.444 982.033,-141.71 987.864,-137.837"/>
</g>
<!-- &#45;8 -->
<g id="node8" class="node"><title>&#45;8</title>
<polygon fill="lightgray" stroke="black" points="886,-188.995 862,-188.995 862,-170.995 886,-170.995 886,-188.995"/>
<text text-anchor="middle" x="874" y="-177.795" font-family="Times,serif" font-size="9.00">&#45;8</text>
</g>
<!-- &#45;8&#45;&gt;1 -->
<g id="edge6" class="edge"><title>&#45;8&#45;&gt;1</title>
<path fill="none" stroke="green" stroke-width="0.171909" d="M861.665,-172.983C838.264,-161.577 787.124,-136.652 757.479,-122.202"/>
<polygon fill="green" stroke="green" stroke-width="0.171909" points="758.843,-118.974 748.32,-117.738 755.776,-125.266 758.843,-118.974"/>
</g>
<!-- &#45;9 -->
<g id="node9" class="node"><title>&#45;9</title>
<polygon fill="lightgray" stroke="black" points="250,-188.995 226,-188.995 226,-170.995 250,-170.995 250,-188.995"/>
<text text-anchor="middle" x="238" y="-177.795" font-family="Times,serif" font-size="9.00">&#45;9</text>
</g>
<!-- &#45;9&#45;&gt;0 -->
<g id="edge33" class="edge"><title>&#45;9&#45;&gt;0</title>
<path fill="none" stroke="red" stroke-width="0.905201" d="M250.373,-174.077C253.192,-173.014 256.186,-171.929 259,-170.995 325.729,-148.838 406.011,-127.421 445.171,-117.304"/>
<polygon fill="red" stroke="red" stroke-width="0.905201" points="446.048,-120.693 454.863,-114.815 444.307,-113.913 446.048,-120.693"/>
</g>
<!-- &#45;9&#45;&gt;2 -->
<g id="edge5" class="edge"><title>&#45;9&#45;&gt;2</title>
<path fill="none" stroke="red" stroke-width="0.603249" stroke-dasharray="1,5" d="M238,-170.957C238,-162.228 238,-147.863 238,-135.41"/>
<polygon fill="red" stroke="red" stroke-width="0.603249" points="241.5,-135.149 238,-125.149 234.5,-135.149 241.5,-135.149"/>
</g>
<!-- &#45;10 -->
<g id="node10" class="node"><title>&#45;10</title>
<polygon fill="lightgray" stroke="black" points="749.5,-188.995 720.5,-188.995 720.5,-170.995 749.5,-170.995 749.5,-188.995"/>
<text text-anchor="middle" x="735" y="-177.795" font-family="Times,serif" font-size="9.00">&#45;10</text>
</g>
<!-- &#45;10&#45;&gt;0 -->
<g id="edge23" class="edge"><title>&#45;10&#45;&gt;0</title>
<path fill="none" stroke="green" stroke-width="0.489415" d="M720.466,-173.709C717.671,-172.758 714.757,-171.811 712,-170.995 632.893,-147.568 537.43,-126.018 493.41,-116.453"/>
<polygon fill="green" stroke="green" stroke-width="0.489415" points="493.881,-112.974 483.368,-114.285 492.404,-119.817 493.881,-112.974"/>
</g>
<!-- &#45;10&#45;&gt;3 -->
<g id="edge10" class="edge"><title>&#45;10&#45;&gt;3</title>
<path fill="none" stroke="red" stroke-width="0.63223" stroke-dasharray="1,5" d="M720.405,-171.616C696.964,-159.765 650.773,-136.411 623.219,-122.48"/>
<polygon fill="red" stroke="red" stroke-width="0.63223" points="624.491,-119.201 613.987,-117.812 621.332,-125.448 624.491,-119.201"/>
</g>
<!-- &#45;10&#45;&gt;6941 -->
<g id="edge29" class="edge"><title>&#45;10&#45;&gt;6941</title>
<path fill="none" stroke="green" stroke-width="0.315976" d="M749.693,-173.992C752.761,-172.977 755.98,-171.934 759,-170.995 819.917,-152.059 891.539,-131.836 932.567,-120.444"/>
<polygon fill="green" stroke="green" stroke-width="0.315976" points="933.611,-123.787 942.313,-117.745 931.742,-117.041 933.611,-123.787"/>
</g>
<!-- &#45;11 -->
<g id="node11" class="node"><title>&#45;11</title>
<polygon fill="lightgray" stroke="black" points="113.5,-188.995 84.5,-188.995 84.5,-170.995 113.5,-170.995 113.5,-188.995"/>
<text text-anchor="middle" x="99" y="-177.795" font-family="Times,serif" font-size="9.00">&#45;11</text>
</g>
<!-- &#45;11&#45;&gt;2 -->
<g id="edge43" class="edge"><title>&#45;11&#45;&gt;2</title>
<path fill="none" stroke="green" stroke-width="0.271417" stroke-dasharray="1,5" d="M113.613,-171.873C137.93,-160.021 186.859,-136.172 215.57,-122.179"/>
<polygon fill="green" stroke="green" stroke-width="0.271417" points="217.353,-125.203 224.809,-117.676 214.286,-118.911 217.353,-125.203"/>
</g>
<!-- &#45;12 -->
<g id="node12" class="node"><title>&#45;12</title>
<polygon fill="lightgray" stroke="black" points="933.5,-188.995 904.5,-188.995 904.5,-170.995 933.5,-170.995 933.5,-188.995"/>
<text text-anchor="middle" x="919" y="-177.795" font-family="Times,serif" font-size="9.00">&#45;12</text>
</g>
<!-- &#45;12&#45;&gt;1 -->
<g id="edge15" class="edge"><title>&#45;12&#45;&gt;1</title>
<path fill="none" stroke="red" stroke-width="0.247371" stroke-dasharray="1,5" d="M904.254,-173.565C872.45,-161.855 797.179,-134.14 758.637,-119.949"/>
<polygon fill="red" stroke="red" stroke-width="0.247371" points="759.4,-116.501 748.806,-116.33 756.981,-123.069 759.4,-116.501"/>
</g>
<!-- &#45;13 -->
<g id="node13" class="node"><title>&#45;13</title>
<polygon fill="lightgray" stroke="black" points="297.5,-188.995 268.5,-188.995 268.5,-170.995 297.5,-170.995 297.5,-188.995"/>
<text text-anchor="middle" x="283" y="-177.795" font-family="Times,serif" font-size="9.00">&#45;13</text>
</g>
<!-- &#45;13&#45;&gt;0 -->
<g id="edge49" class="edge"><title>&#45;13&#45;&gt;0</title>
<path fill="none" stroke="green" stroke-width="1.43188" d="M297.595,-173.679C329.67,-161.996 406.538,-133.997 445.503,-119.805"/>
<polygon fill="green" stroke="green" stroke-width="1.43188" points="446.783,-123.063 454.982,-116.352 444.388,-116.486 446.783,-123.063"/>
</g>
<!-- &#45;14 -->
<g id="node14" class="node"><title>&#45;14</title>
<polygon fill="lightgray" stroke="black" points="796.5,-188.995 767.5,-188.995 767.5,-170.995 796.5,-170.995 796.5,-188.995"/>
<text text-anchor="middle" x="782" y="-177.795" font-family="Times,serif" font-size="9.00">&#45;14</text>
</g>
<!-- &#45;14&#45;&gt;1 -->
<g id="edge51" class="edge"><title>&#45;14&#45;&gt;1</title>
<path fill="none" stroke="green" stroke-width="0.428778" d="M776.424,-170.957C769.707,-161.274 758.179,-144.658 748.987,-131.408"/>
<polygon fill="green" stroke="green" stroke-width="0.428778" points="751.66,-129.121 743.085,-122.9 745.909,-133.111 751.66,-129.121"/>
</g>
<!-- &#45;15 -->
<g id="node15" class="node"><title>&#45;15</title>
<polygon fill="lightgray" stroke="black" points="843.5,-188.995 814.5,-188.995 814.5,-170.995 843.5,-170.995 843.5,-188.995"/>
<text text-anchor="middle" x="829" y="-177.795" font-family="Times,serif" font-size="9.00">&#45;15</text>
</g>
<!-- &#45;15&#45;&gt;1 -->
<g id="edge16" class="edge"><title>&#45;15&#45;&gt;1</title>
<path fill="none" stroke="green" stroke-width="0.328196" stroke-dasharray="1,5" d="M817.848,-170.957C802.398,-159.822 774.225,-139.517 755.065,-125.708"/>
<polygon fill="green" stroke="green" stroke-width="0.328196" points="756.886,-122.706 746.727,-119.698 752.793,-128.385 756.886,-122.706"/>
</g>
<!-- &#45;16 -->
<g id="node16" class="node"><title>&#45;16</title>
<polygon fill="lightgray" stroke="black" points="438.5,-188.995 409.5,-188.995 409.5,-170.995 438.5,-170.995 438.5,-188.995"/>
<text text-anchor="middle" x="424" y="-177.795" font-family="Times,serif" font-size="9.00">&#45;16</text>
</g>
<!-- &#45;16&#45;&gt;0 -->
<g id="edge19" class="edge"><title>&#45;16&#45;&gt;0</title>
<path fill="none" stroke="red" stroke-width="0.153151" d="M429.339,-170.957C435.695,-161.388 446.548,-145.048 455.297,-131.877"/>
<polygon fill="red" stroke="red" stroke-width="0.153151" points="458.318,-133.654 460.935,-123.388 452.487,-129.781 458.318,-133.654"/>
</g>
<!-- &#45;17 -->
<g id="node17" class="node"><title>&#45;17</title>
<polygon fill="lightgray" stroke="black" points="570.5,-188.995 541.5,-188.995 541.5,-170.995 570.5,-170.995 570.5,-188.995"/>
<text text-anchor="middle" x="556" y="-177.795" font-family="Times,serif" font-size="9.00">&#45;17</text>
</g>
<!-- &#45;17&#45;&gt;0 -->
<g id="edge4" class="edge"><title>&#45;17&#45;&gt;0</title>
<path fill="none" stroke="green" stroke-width="0.42145" stroke-dasharray="1,5" d="M545.678,-170.957C531.598,-159.993 506.101,-140.138 488.393,-126.348"/>
<polygon fill="green" stroke="green" stroke-width="0.42145" points="490.45,-123.514 480.41,-120.131 486.15,-129.037 490.45,-123.514"/>
</g>
<!-- &#45;17&#45;&gt;1 -->
<g id="edge9" class="edge"><title>&#45;17&#45;&gt;1</title>
<path fill="none" stroke="green" stroke-width="0.252602" stroke-dasharray="1,5" d="M570.648,-173.451C601.635,-161.723 674.047,-134.316 711.553,-120.121"/>
<polygon fill="green" stroke="green" stroke-width="0.252602" points="713.029,-123.304 721.143,-116.491 710.551,-116.757 713.029,-123.304"/>
</g>
<!-- &#45;18 -->
<g id="node18" class="node"><title>&#45;18</title>
<polygon fill="lightgray" stroke="black" points="344.5,-188.995 315.5,-188.995 315.5,-170.995 344.5,-170.995 344.5,-188.995"/>
<text text-anchor="middle" x="330" y="-177.795" font-family="Times,serif" font-size="9.00">&#45;18</text>
</g>
<!-- &#45;18&#45;&gt;0 -->
<g id="edge26" class="edge"><title>&#45;18&#45;&gt;0</title>
<path fill="none" stroke="green" stroke-width="0.216774" stroke-dasharray="1,5" d="M344.613,-171.873C368.93,-160.021 417.859,-136.172 446.57,-122.179"/>
<polygon fill="green" stroke="green" stroke-width="0.216774" points="448.353,-125.203 455.809,-117.676 445.286,-118.911 448.353,-125.203"/>
</g>
<!-- &#45;18&#45;&gt;2 -->
<g id="edge24" class="edge"><title>&#45;18&#45;&gt;2</title>
<path fill="none" stroke="green" stroke-width="0.258678" stroke-dasharray="1,5" d="M319.085,-170.957C303.964,-159.822 276.39,-139.517 257.638,-125.708"/>
<polygon fill="green" stroke="green" stroke-width="0.258678" points="259.605,-122.81 249.477,-119.698 255.454,-128.446 259.605,-122.81"/>
</g>
<!-- &#45;18&#45;&gt;3 -->
<g id="edge35" class="edge"><title>&#45;18&#45;&gt;3</title>
<path fill="none" stroke="red" stroke-width="0.171539" d="M344.531,-173.699C347.326,-172.749 350.242,-171.805 353,-170.995 395.438,-158.535 522.626,-129.146 576.48,-116.83"/>
<polygon fill="red" stroke="red" stroke-width="0.171539" points="577.545,-120.177 586.515,-114.538 575.986,-113.352 577.545,-120.177"/>
</g>
<!-- &#45;19 -->
<g id="node19" class="node"><title>&#45;19</title>
<polygon fill="lightgray" stroke="black" points="391.5,-188.995 362.5,-188.995 362.5,-170.995 391.5,-170.995 391.5,-188.995"/>
<text text-anchor="middle" x="377" y="-177.795" font-family="Times,serif" font-size="9.00">&#45;19</text>
</g>
<!-- &#45;19&#45;&gt;0 -->
<g id="edge38" class="edge"><title>&#45;19&#45;&gt;0</title>
<path fill="none" stroke="green" stroke-width="0.24962" d="M387.915,-170.957C403.036,-159.822 430.61,-139.517 449.362,-125.708"/>
<polygon fill="green" stroke="green" stroke-width="0.24962" points="451.546,-128.446 457.523,-119.698 447.395,-122.81 451.546,-128.446"/>
</g>
<!-- &#45;19&#45;&gt;1 -->
<g id="edge28" class="edge"><title>&#45;19&#45;&gt;1</title>
<path fill="none" stroke="red" stroke-width="0.578811" d="M391.979,-173.36C394.627,-172.486 397.376,-171.656 400,-170.995 498.206,-146.264 525.468,-153.688 625,-134.995 654.537,-129.448 688.295,-121.992 710.536,-116.924"/>
<polygon fill="red" stroke="red" stroke-width="0.578811" points="711.496,-120.295 720.46,-114.647 709.931,-113.472 711.496,-120.295"/>
</g>
<!-- &#45;19&#45;&gt;2 -->
<g id="edge13" class="edge"><title>&#45;19&#45;&gt;2</title>
<path fill="none" stroke="red" stroke-width="0.51835" d="M362.387,-171.873C338.07,-160.021 289.141,-136.172 260.43,-122.179"/>
<polygon fill="red" stroke="red" stroke-width="0.51835" points="261.714,-118.911 251.191,-117.676 258.647,-125.203 261.714,-118.911"/>
</g>
<!-- &#45;20 -->
<g id="node20" class="node"><title>&#45;20</title>
<polygon fill="lightgray" stroke="black" points="160.5,-188.995 131.5,-188.995 131.5,-170.995 160.5,-170.995 160.5,-188.995"/>
<text text-anchor="middle" x="146" y="-177.795" font-family="Times,serif" font-size="9.00">&#45;20</text>
</g>
<!-- &#45;20&#45;&gt;2 -->
<g id="edge1" class="edge"><title>&#45;20&#45;&gt;2</title>
<path fill="none" stroke="red" stroke-width="0.226619" d="M156.915,-170.957C172.036,-159.822 199.61,-139.517 218.362,-125.708"/>
<polygon fill="red" stroke="red" stroke-width="0.226619" points="220.546,-128.446 226.523,-119.698 216.395,-122.81 220.546,-128.446"/>
</g>
<!-- &#45;21 -->
<g id="node21" class="node"><title>&#45;21</title>
<polygon fill="lightgray" stroke="black" points="207.5,-188.995 178.5,-188.995 178.5,-170.995 207.5,-170.995 207.5,-188.995"/>
<text text-anchor="middle" x="193" y="-177.795" font-family="Times,serif" font-size="9.00">&#45;21</text>
</g>
<!-- &#45;21&#45;&gt;0 -->
<g id="edge18" class="edge"><title>&#45;21&#45;&gt;0</title>
<path fill="none" stroke="green" stroke-width="3.53848" d="M207.659,-173.879C210.729,-172.872 213.959,-171.861 217,-170.995 299.699,-147.458 399.465,-125.745 444.652,-116.265"/>
<polygon fill="green" stroke="green" stroke-width="3.53848" points="445.601,-119.642 454.676,-114.175 444.172,-112.789 445.601,-119.642"/>
</g>
<!-- &#45;21&#45;&gt;2 -->
<g id="edge41" class="edge"><title>&#45;21&#45;&gt;2</title>
<path fill="none" stroke="red" stroke-width="0.74181" stroke-dasharray="1,5" d="M198.339,-170.957C204.695,-161.388 215.548,-145.048 224.297,-131.877"/>
<polygon fill="red" stroke="red" stroke-width="0.74181" points="227.318,-133.654 229.935,-123.388 221.487,-129.781 227.318,-133.654"/>
</g>
<!-- &#45;22 -->
<g id="node22" class="node"><title>&#45;22</title>
<polygon fill="lightgray" stroke="black" points="702.5,-188.995 673.5,-188.995 673.5,-170.995 702.5,-170.995 702.5,-188.995"/>
<text text-anchor="middle" x="688" y="-177.795" font-family="Times,serif" font-size="9.00">&#45;22</text>
</g>
<!-- &#45;22&#45;&gt;1 -->
<g id="edge21" class="edge"><title>&#45;22&#45;&gt;1</title>
<path fill="none" stroke="red" stroke-width="0.929516" stroke-dasharray="1,5" d="M693.576,-170.957C700.293,-161.274 711.821,-144.658 721.013,-131.408"/>
<polygon fill="red" stroke="red" stroke-width="0.929516" points="724.091,-133.111 726.915,-122.9 718.34,-129.121 724.091,-133.111"/>
</g>
<!-- &#45;22&#45;&gt;2 -->
<g id="edge39" class="edge"><title>&#45;22&#45;&gt;2</title>
<path fill="none" stroke="green" stroke-width="0.163091" stroke-dasharray="1,5" d="M673.399,-173.657C670.324,-172.667 667.079,-171.718 664,-170.995 586.401,-152.781 342.026,-123.4 262.952,-114.139"/>
<polygon fill="green" stroke="green" stroke-width="0.163091" points="263.264,-110.651 252.926,-112.969 262.453,-117.604 263.264,-110.651"/>
</g>
<!-- &#45;22&#45;&gt;3 -->
<g id="edge50" class="edge"><title>&#45;22&#45;&gt;3</title>
<path fill="none" stroke="red" stroke-width="0.21445" d="M677.678,-170.957C663.598,-159.993 638.101,-140.138 620.393,-126.348"/>
<polygon fill="red" stroke="red" stroke-width="0.21445" points="622.45,-123.514 612.41,-120.131 618.15,-129.037 622.45,-123.514"/>
</g>
<!-- &#45;22&#45;&gt;6941 -->
<g id="edge36" class="edge"><title>&#45;22&#45;&gt;6941</title>
<path fill="none" stroke="green" stroke-width="0.266783" d="M702.658,-173.875C705.728,-172.868 708.958,-171.858 712,-170.995 789.753,-148.94 882.496,-128.607 931.572,-118.307"/>
<polygon fill="green" stroke="green" stroke-width="0.266783" points="932.573,-121.674 941.647,-116.205 931.143,-114.821 932.573,-121.674"/>
</g>
<!-- &#45;23 -->
<g id="node23" class="node"><title>&#45;23</title>
<polygon fill="lightgray" stroke="black" points="1070.5,-188.995 1041.5,-188.995 1041.5,-170.995 1070.5,-170.995 1070.5,-188.995"/>
<text text-anchor="middle" x="1056" y="-177.795" font-family="Times,serif" font-size="9.00">&#45;23</text>
</g>
<!-- &#45;23&#45;&gt;6941 -->
<g id="edge46" class="edge"><title>&#45;23&#45;&gt;6941</title>
<path fill="none" stroke="red" stroke-width="0.133995" d="M1045.32,-170.957C1032.68,-161.439 1011.13,-145.22 993.684,-132.085"/>
<polygon fill="red" stroke="red" stroke-width="0.133995" points="995.599,-129.146 985.504,-125.928 991.389,-134.739 995.599,-129.146"/>
</g>
<!-- &#45;24 -->
<g id="node24" class="node"><title>&#45;24</title>
<polygon fill="lightgray" stroke="black" points="980.5,-188.995 951.5,-188.995 951.5,-170.995 980.5,-170.995 980.5,-188.995"/>
<text text-anchor="middle" x="966" y="-177.795" font-family="Times,serif" font-size="9.00">&#45;24</text>
</g>
<!-- &#45;24&#45;&gt;0 -->
<g id="edge42" class="edge"><title>&#45;24&#45;&gt;0</title>
<path fill="none" stroke="red" stroke-width="0.806753" stroke-dasharray="1,5" d="M951.053,-173.225C948.401,-172.366 945.643,-171.576 943,-170.995 783.36,-135.901 738.435,-160.592 577,-134.995 547.832,-130.37 514.722,-122.728 492.939,-117.365"/>
<polygon fill="red" stroke="red" stroke-width="0.806753" points="493.773,-113.966 483.223,-114.939 492.077,-120.757 493.773,-113.966"/>
</g>
<!-- &#45;24&#45;&gt;1 -->
<g id="edge3" class="edge"><title>&#45;24&#45;&gt;1</title>
<path fill="none" stroke="green" stroke-width="0.135165" stroke-dasharray="1,5" d="M951.44,-173.795C948.648,-172.836 945.74,-171.864 943,-170.995 876.876,-150.015 797.934,-128.217 759.061,-117.695"/>
<polygon fill="green" stroke="green" stroke-width="0.135165" points="759.77,-114.261 749.204,-115.036 757.947,-121.02 759.77,-114.261"/>
</g>
<!-- &#45;24&#45;&gt;6941 -->
<g id="edge7" class="edge"><title>&#45;24&#45;&gt;6941</title>
<path fill="none" stroke="green" stroke-width="0.394357" d="M966,-170.957C966,-164.522 966,-155.024 966,-145.488"/>
<polygon fill="green" stroke="green" stroke-width="0.394357" points="969.5,-145.267 966,-135.267 962.5,-145.268 969.5,-145.267"/>
</g>
<!-- 1&#45;&gt;1 -->
<g id="edge25" class="edge"><title>1&#45;&gt;1</title>
<path fill="none" stroke="red" stroke-width="0.37146" d="M746.106,-120.556C756.536,-125.901 767.849,-122.465 767.849,-110.246 767.849,-102.037 762.742,-97.7917 756.228,-97.5111"/>
<polygon fill="red" stroke="red" stroke-width="0.37146" points="755.015,-94.2024 746.106,-99.9366 756.647,-101.01 755.015,-94.2024"/>
</g>
<!-- 2&#45;&gt;2 -->
<g id="edge22" class="edge"><title>2&#45;&gt;2</title>
<path fill="none" stroke="green" stroke-width="0.190339" d="M249.106,-120.556C259.536,-125.901 270.849,-122.465 270.849,-110.246 270.849,-102.037 265.742,-97.7917 259.228,-97.5111"/>
<polygon fill="green" stroke="green" stroke-width="0.190339" points="258.015,-94.2024 249.106,-99.9366 259.647,-101.01 258.015,-94.2024"/>
</g>
<!-- 8687 -->
<g id="node29" class="node"><title>8687</title>
<ellipse fill="white" stroke="black" cx="601" cy="-24.7487" rx="25" ry="25"/>
<text text-anchor="middle" x="601" y="-22.5487" font-family="Times,serif" font-size="9.00">8687</text>
</g>
<!-- 2&#45;&gt;8687 -->
<g id="edge8" class="edge"><title>2&#45;&gt;8687</title>
<path fill="none" stroke="green" stroke-width="0.289004" d="M252.23,-105.973C304.936,-93.8495 489.959,-51.2904 566.969,-33.5765"/>
<polygon fill="green" stroke="green" stroke-width="0.289004" points="568.133,-36.9003 577.094,-31.2477 566.564,-30.0785 568.133,-36.9003"/>
</g>
<!-- 3&#45;&gt;8687 -->
<g id="edge30" class="edge"><title>3&#45;&gt;8687</title>
<path fill="none" stroke="red" stroke-width="0.305269" d="M595.938,-96.1997C594.502,-86.2109 593.982,-71.9732 594.379,-58.9084"/>
<polygon fill="red" stroke="red" stroke-width="0.305269" points="597.881,-58.9505 594.893,-48.7858 590.89,-58.5953 597.881,-58.9505"/>
</g>
<!-- 8687&#45;&gt;3 -->
<g id="edge14" class="edge"><title>8687&#45;&gt;3</title>
<path fill="none" stroke="red" stroke-width="0.366793" d="M607.107,-48.7858C607.958,-60.3588 607.964,-74.3504 607.125,-85.958"/>
<polygon fill="red" stroke="red" stroke-width="0.366793" points="603.614,-85.8918 606.062,-96.1997 610.576,-86.6145 603.614,-85.8918"/>
</g>
</g>
</svg>
