<?xml version="1.0" encoding="UTF-8" standalone="no"?>
<!DOCTYPE svg PUBLIC "-//W3C//DTD SVG 1.1//EN"
 "http://www.w3.org/Graphics/SVG/1.1/DTD/svg11.dtd">
<!-- Generated by graphviz version 2.38.0 (20140413.2041)
 -->
<!-- Title: %3 Pages: 1 -->
<svg width="1033pt" height="263pt"
 viewBox="0.00 0.00 1032.50 262.69" xmlns="http://www.w3.org/2000/svg" xmlns:xlink="http://www.w3.org/1999/xlink">
<g id="graph0" class="graph" transform="scale(1 1) rotate(0) translate(4 258.693)">
<title>%3</title>
<polygon fill="white" stroke="none" points="-4,4 -4,-258.693 1028.5,-258.693 1028.5,4 -4,4"/>
<!-- &#45;1 -->
<g id="node1" class="node"><title>&#45;1</title>
<polygon fill="lightgray" stroke="black" points="24,-254.693 0,-254.693 0,-236.693 24,-236.693 24,-254.693"/>
<text text-anchor="middle" x="12" y="-243.493" font-family="Times,serif" font-size="9.00">&#45;1</text>
</g>
<!-- &#45;2 -->
<g id="node2" class="node"><title>&#45;2</title>
<polygon fill="lightgray" stroke="black" points="66,-254.693 42,-254.693 42,-236.693 66,-236.693 66,-254.693"/>
<text text-anchor="middle" x="54" y="-243.493" font-family="Times,serif" font-size="9.00">&#45;2</text>
</g>
<!-- &#45;3 -->
<g id="node3" class="node"><title>&#45;3</title>
<polygon fill="lightgray" stroke="black" points="108,-254.693 84,-254.693 84,-236.693 108,-236.693 108,-254.693"/>
<text text-anchor="middle" x="96" y="-243.493" font-family="Times,serif" font-size="9.00">&#45;3</text>
</g>
<!-- 2 -->
<g id="node27" class="node"><title>2</title>
<ellipse fill="lightblue" stroke="black" cx="137" cy="-175.945" rx="14.7" ry="14.7"/>
<text text-anchor="middle" x="137" y="-173.745" font-family="Times,serif" font-size="9.00">2</text>
</g>
<!-- &#45;3&#45;&gt;2 -->
<g id="edge9" class="edge"><title>&#45;3&#45;&gt;2</title>
<path fill="none" stroke="red" stroke-width="0.458534" d="M100.864,-236.656C106.599,-227.179 116.354,-211.06 124.284,-197.956"/>
<polygon fill="red" stroke="red" stroke-width="0.458534" points="127.469,-199.454 129.652,-189.086 121.48,-195.829 127.469,-199.454"/>
</g>
<!-- &#45;4 -->
<g id="node4" class="node"><title>&#45;4</title>
<polygon fill="lightgray" stroke="black" points="662,-254.693 638,-254.693 638,-236.693 662,-236.693 662,-254.693"/>
<text text-anchor="middle" x="650" y="-243.493" font-family="Times,serif" font-size="9.00">&#45;4</text>
</g>
<!-- 0 -->
<g id="node25" class="node"><title>0</title>
<ellipse fill="lightblue" stroke="black" cx="487" cy="-175.945" rx="14.7" ry="14.7"/>
<text text-anchor="middle" x="487" y="-173.745" font-family="Times,serif" font-size="9.00">0</text>
</g>
<!-- &#45;4&#45;&gt;0 -->
<g id="edge18" class="edge"><title>&#45;4&#45;&gt;0</title>
<path fill="none" stroke="red" stroke-width="0.507136" d="M637.749,-239.601C610.659,-228.342 545.303,-201.178 510.206,-186.59"/>
<polygon fill="red" stroke="red" stroke-width="0.507136" points="511.341,-183.271 500.763,-182.665 508.654,-189.735 511.341,-183.271"/>
</g>
<!-- &#45;5 -->
<g id="node5" class="node"><title>&#45;5</title>
<polygon fill="lightgray" stroke="black" points="389,-254.693 365,-254.693 365,-236.693 389,-236.693 389,-254.693"/>
<text text-anchor="middle" x="377" y="-243.493" font-family="Times,serif" font-size="9.00">&#45;5</text>
</g>
<!-- &#45;5&#45;&gt;0 -->
<g id="edge13" class="edge"><title>&#45;5&#45;&gt;0</title>
<path fill="none" stroke="red" stroke-width="2.21231" d="M389.192,-237.184C407.776,-225.739 443.424,-203.783 466.166,-189.776"/>
<polygon fill="red" stroke="red" stroke-width="2.21231" points="468.074,-192.712 474.753,-184.487 464.403,-186.752 468.074,-192.712"/>
</g>
<!-- &#45;6 -->
<g id="node6" class="node"><title>&#45;6</title>
<polygon fill="lightgray" stroke="black" points="794,-254.693 770,-254.693 770,-236.693 794,-236.693 794,-254.693"/>
<text text-anchor="middle" x="782" y="-243.493" font-family="Times,serif" font-size="9.00">&#45;6</text>
</g>
<!-- &#45;7 -->
<g id="node7" class="node"><title>&#45;7</title>
<polygon fill="lightgray" stroke="black" points="836,-254.693 812,-254.693 812,-236.693 836,-236.693 836,-254.693"/>
<text text-anchor="middle" x="824" y="-243.493" font-family="Times,serif" font-size="9.00">&#45;7</text>
</g>
<!-- &#45;8 -->
<g id="node8" class="node"><title>&#45;8</title>
<polygon fill="lightgray" stroke="black" points="752,-254.693 728,-254.693 728,-236.693 752,-236.693 752,-254.693"/>
<text text-anchor="middle" x="740" y="-243.493" font-family="Times,serif" font-size="9.00">&#45;8</text>
</g>
<!-- 1 -->
<g id="node26" class="node"><title>1</title>
<ellipse fill="lightblue" stroke="black" cx="695" cy="-175.945" rx="14.7" ry="14.7"/>
<text text-anchor="middle" x="695" y="-173.745" font-family="Times,serif" font-size="9.00">1</text>
</g>
<!-- &#45;8&#45;&gt;1 -->
<g id="edge2" class="edge"><title>&#45;8&#45;&gt;1</title>
<path fill="none" stroke="green" stroke-width="0.171909" d="M734.661,-236.656C728.305,-227.087 717.452,-210.746 708.703,-197.576"/>
<polygon fill="green" stroke="green" stroke-width="0.171909" points="711.513,-195.48 703.065,-189.086 705.682,-199.353 711.513,-195.48"/>
</g>
<!-- &#45;9 -->
<g id="node9" class="node"><title>&#45;9</title>
<polygon fill="lightgray" stroke="black" points="431,-254.693 407,-254.693 407,-236.693 431,-236.693 431,-254.693"/>
<text text-anchor="middle" x="419" y="-243.493" font-family="Times,serif" font-size="9.00">&#45;9</text>
</g>
<!-- &#45;9&#45;&gt;0 -->
<g id="edge17" class="edge"><title>&#45;9&#45;&gt;0</title>
<path fill="none" stroke="red" stroke-width="0.905201" d="M427.068,-236.656C437.419,-226.342 455.668,-208.161 469.317,-194.562"/>
<polygon fill="red" stroke="red" stroke-width="0.905201" points="472.114,-196.717 476.728,-187.179 467.173,-191.758 472.114,-196.717"/>
</g>
<!-- &#45;10 -->
<g id="node10" class="node"><title>&#45;10</title>
<polygon fill="lightgray" stroke="black" points="346.5,-254.693 317.5,-254.693 317.5,-236.693 346.5,-236.693 346.5,-254.693"/>
<text text-anchor="middle" x="332" y="-243.493" font-family="Times,serif" font-size="9.00">&#45;10</text>
</g>
<!-- &#45;10&#45;&gt;0 -->
<g id="edge11" class="edge"><title>&#45;10&#45;&gt;0</title>
<path fill="none" stroke="green" stroke-width="0.489415" d="M346.582,-238.32C373.647,-226.49 431.83,-201.059 464.161,-186.928"/>
<polygon fill="green" stroke="green" stroke-width="0.489415" points="465.916,-189.98 473.677,-182.768 463.112,-183.566 465.916,-189.98"/>
</g>
<!-- 6941 -->
<g id="node30" class="node"><title>6941</title>
<ellipse fill="white" stroke="black" cx="265" cy="-175.945" rx="25" ry="25"/>
<text text-anchor="middle" x="265" y="-173.745" font-family="Times,serif" font-size="9.00">6941</text>
</g>
<!-- &#45;10&#45;&gt;6941 -->
<g id="edge15" class="edge"><title>&#45;10&#45;&gt;6941</title>
<path fill="none" stroke="green" stroke-width="0.315976" d="M324.051,-236.656C315.497,-228.006 301.47,-213.822 289.234,-201.449"/>
<polygon fill="green" stroke="green" stroke-width="0.315976" points="291.431,-198.694 281.911,-194.045 286.454,-203.616 291.431,-198.694"/>
</g>
<!-- &#45;11 -->
<g id="node11" class="node"><title>&#45;11</title>
<polygon fill="lightgray" stroke="black" points="883.5,-254.693 854.5,-254.693 854.5,-236.693 883.5,-236.693 883.5,-254.693"/>
<text text-anchor="middle" x="869" y="-243.493" font-family="Times,serif" font-size="9.00">&#45;11</text>
</g>
<!-- &#45;12 -->
<g id="node12" class="node"><title>&#45;12</title>
<polygon fill="lightgray" stroke="black" points="930.5,-254.693 901.5,-254.693 901.5,-236.693 930.5,-236.693 930.5,-254.693"/>
<text text-anchor="middle" x="916" y="-243.493" font-family="Times,serif" font-size="9.00">&#45;12</text>
</g>
<!-- &#45;13 -->
<g id="node13" class="node"><title>&#45;13</title>
<polygon fill="lightgray" stroke="black" points="478.5,-254.693 449.5,-254.693 449.5,-236.693 478.5,-236.693 478.5,-254.693"/>
<text text-anchor="middle" x="464" y="-243.493" font-family="Times,serif" font-size="9.00">&#45;13</text>
</g>
<!-- &#45;13&#45;&gt;0 -->
<g id="edge23" class="edge"><title>&#45;13&#45;&gt;0</title>
<path fill="none" stroke="green" stroke-width="1.43188" d="M466.729,-236.656C469.79,-227.639 474.892,-212.611 479.211,-199.887"/>
<polygon fill="green" stroke="green" stroke-width="1.43188" points="482.553,-200.93 482.454,-190.336 475.925,-198.68 482.553,-200.93"/>
</g>
<!-- &#45;14 -->
<g id="node14" class="node"><title>&#45;14</title>
<polygon fill="lightgray" stroke="black" points="709.5,-254.693 680.5,-254.693 680.5,-236.693 709.5,-236.693 709.5,-254.693"/>
<text text-anchor="middle" x="695" y="-243.493" font-family="Times,serif" font-size="9.00">&#45;14</text>
</g>
<!-- &#45;14&#45;&gt;1 -->
<g id="edge25" class="edge"><title>&#45;14&#45;&gt;1</title>
<path fill="none" stroke="green" stroke-width="0.428778" d="M695,-236.656C695,-227.926 695,-213.561 695,-201.109"/>
<polygon fill="green" stroke="green" stroke-width="0.428778" points="698.5,-200.848 695,-190.848 691.5,-200.848 698.5,-200.848"/>
</g>
<!-- &#45;15 -->
<g id="node15" class="node"><title>&#45;15</title>
<polygon fill="lightgray" stroke="black" points="977.5,-254.693 948.5,-254.693 948.5,-236.693 977.5,-236.693 977.5,-254.693"/>
<text text-anchor="middle" x="963" y="-243.493" font-family="Times,serif" font-size="9.00">&#45;15</text>
</g>
<!-- &#45;16 -->
<g id="node16" class="node"><title>&#45;16</title>
<polygon fill="lightgray" stroke="black" points="525.5,-254.693 496.5,-254.693 496.5,-236.693 525.5,-236.693 525.5,-254.693"/>
<text text-anchor="middle" x="511" y="-243.493" font-family="Times,serif" font-size="9.00">&#45;16</text>
</g>
<!-- &#45;16&#45;&gt;0 -->
<g id="edge8" class="edge"><title>&#45;16&#45;&gt;0</title>
<path fill="none" stroke="red" stroke-width="0.153151" d="M508.153,-236.656C504.939,-227.584 499.569,-212.426 495.045,-199.653"/>
<polygon fill="red" stroke="red" stroke-width="0.153151" points="498.292,-198.34 491.654,-190.083 491.694,-200.677 498.292,-198.34"/>
</g>
<!-- &#45;17 -->
<g id="node17" class="node"><title>&#45;17</title>
<polygon fill="lightgray" stroke="black" points="1024.5,-254.693 995.5,-254.693 995.5,-236.693 1024.5,-236.693 1024.5,-254.693"/>
<text text-anchor="middle" x="1010" y="-243.493" font-family="Times,serif" font-size="9.00">&#45;17</text>
</g>
<!-- &#45;18 -->
<g id="node18" class="node"><title>&#45;18</title>
<polygon fill="lightgray" stroke="black" points="98.5,-99.4472 69.5,-99.4472 69.5,-81.4472 98.5,-81.4472 98.5,-99.4472"/>
<text text-anchor="middle" x="84" y="-88.2472" font-family="Times,serif" font-size="9.00">&#45;18</text>
</g>
<!-- 3 -->
<g id="node28" class="node"><title>3</title>
<ellipse fill="lightblue" stroke="black" cx="141" cy="-14.8492" rx="14.7" ry="14.7"/>
<text text-anchor="middle" x="141" y="-12.6492" font-family="Times,serif" font-size="9.00">3</text>
</g>
<!-- &#45;18&#45;&gt;3 -->
<g id="edge19" class="edge"><title>&#45;18&#45;&gt;3</title>
<path fill="none" stroke="red" stroke-width="0.171539" d="M90.3178,-81.2897C98.8468,-70.2771 114.312,-50.3083 125.924,-35.3151"/>
<polygon fill="red" stroke="red" stroke-width="0.171539" points="128.878,-37.2168 132.234,-27.1675 123.344,-32.9306 128.878,-37.2168"/>
</g>
<!-- &#45;19 -->
<g id="node19" class="node"><title>&#45;19</title>
<polygon fill="lightgray" stroke="black" points="572.5,-254.693 543.5,-254.693 543.5,-236.693 572.5,-236.693 572.5,-254.693"/>
<text text-anchor="middle" x="558" y="-243.493" font-family="Times,serif" font-size="9.00">&#45;19</text>
</g>
<!-- &#45;19&#45;&gt;0 -->
<g id="edge21" class="edge"><title>&#45;19&#45;&gt;0</title>
<path fill="none" stroke="green" stroke-width="0.24962" d="M549.577,-236.656C538.543,-226.127 518.918,-207.401 504.58,-193.719"/>
<polygon fill="green" stroke="green" stroke-width="0.24962" points="506.897,-191.093 497.246,-186.721 502.064,-196.157 506.897,-191.093"/>
</g>
<!-- &#45;19&#45;&gt;1 -->
<g id="edge14" class="edge"><title>&#45;19&#45;&gt;1</title>
<path fill="none" stroke="red" stroke-width="0.578811" d="M572.661,-237.443C596.743,-225.534 644.806,-201.766 672.99,-187.829"/>
<polygon fill="red" stroke="red" stroke-width="0.578811" points="674.645,-190.915 682.057,-183.345 671.542,-184.64 674.645,-190.915"/>
</g>
<!-- &#45;19&#45;&gt;2 -->
<g id="edge5" class="edge"><title>&#45;19&#45;&gt;2</title>
<path fill="none" stroke="red" stroke-width="0.51835" d="M543.043,-238.968C540.393,-238.104 537.637,-237.301 535,-236.693 402.414,-206.166 364.792,-225.409 231,-200.693 206.951,-196.251 179.921,-189.201 161.041,-183.935"/>
<polygon fill="red" stroke="red" stroke-width="0.51835" points="161.781,-180.507 151.206,-181.147 159.872,-187.242 161.781,-180.507"/>
</g>
<!-- &#45;20 -->
<g id="node20" class="node"><title>&#45;20</title>
<polygon fill="lightgray" stroke="black" points="155.5,-254.693 126.5,-254.693 126.5,-236.693 155.5,-236.693 155.5,-254.693"/>
<text text-anchor="middle" x="141" y="-243.493" font-family="Times,serif" font-size="9.00">&#45;20</text>
</g>
<!-- &#45;20&#45;&gt;2 -->
<g id="edge1" class="edge"><title>&#45;20&#45;&gt;2</title>
<path fill="none" stroke="red" stroke-width="0.226619" d="M140.525,-236.656C140.01,-227.926 139.162,-213.561 138.427,-201.109"/>
<polygon fill="red" stroke="red" stroke-width="0.226619" points="141.904,-200.624 137.821,-190.848 134.916,-201.037 141.904,-200.624"/>
</g>
<!-- &#45;21 -->
<g id="node21" class="node"><title>&#45;21</title>
<polygon fill="lightgray" stroke="black" points="619.5,-254.693 590.5,-254.693 590.5,-236.693 619.5,-236.693 619.5,-254.693"/>
<text text-anchor="middle" x="605" y="-243.493" font-family="Times,serif" font-size="9.00">&#45;21</text>
</g>
<!-- &#45;21&#45;&gt;0 -->
<g id="edge7" class="edge"><title>&#45;21&#45;&gt;0</title>
<path fill="none" stroke="green" stroke-width="3.53848" d="M591,-236.656C570.521,-224.897 532.23,-202.913 508.261,-189.151"/>
<polygon fill="green" stroke="green" stroke-width="3.53848" points="509.963,-186.093 499.548,-184.149 506.477,-192.163 509.963,-186.093"/>
</g>
<!-- &#45;22 -->
<g id="node22" class="node"><title>&#45;22</title>
<polygon fill="lightgray" stroke="black" points="205.5,-254.693 176.5,-254.693 176.5,-236.693 205.5,-236.693 205.5,-254.693"/>
<text text-anchor="middle" x="191" y="-243.493" font-family="Times,serif" font-size="9.00">&#45;22</text>
</g>
<!-- &#45;22&#45;&gt;3 -->
<g id="edge24" class="edge"><title>&#45;22&#45;&gt;3</title>
<path fill="none" stroke="red" stroke-width="0.21445" d="M191.694,-236.535C193.603,-210.63 197.404,-128.263 175,-65.6985 170.974,-54.4553 163.791,-43.3403 157.062,-34.4689"/>
<polygon fill="red" stroke="red" stroke-width="0.21445" points="159.601,-32.0401 150.617,-26.4237 154.137,-36.4165 159.601,-32.0401"/>
</g>
<!-- &#45;22&#45;&gt;6941 -->
<g id="edge20" class="edge"><title>&#45;22&#45;&gt;6941</title>
<path fill="none" stroke="green" stroke-width="0.266783" d="M199.779,-236.656C209.599,-227.665 225.949,-212.697 239.822,-199.996"/>
<polygon fill="green" stroke="green" stroke-width="0.266783" points="242.204,-202.56 247.216,-193.226 237.477,-197.397 242.204,-202.56"/>
</g>
<!-- &#45;23 -->
<g id="node23" class="node"><title>&#45;23</title>
<polygon fill="lightgray" stroke="black" points="299.5,-254.693 270.5,-254.693 270.5,-236.693 299.5,-236.693 299.5,-254.693"/>
<text text-anchor="middle" x="285" y="-243.493" font-family="Times,serif" font-size="9.00">&#45;23</text>
</g>
<!-- &#45;23&#45;&gt;6941 -->
<g id="edge22" class="edge"><title>&#45;23&#45;&gt;6941</title>
<path fill="none" stroke="red" stroke-width="0.133995" d="M282.627,-236.656C280.625,-229.873 277.618,-219.689 274.653,-209.643"/>
<polygon fill="red" stroke="red" stroke-width="0.133995" points="277.927,-208.373 271.739,-199.774 271.214,-210.355 277.927,-208.373"/>
</g>
<!-- &#45;24 -->
<g id="node24" class="node"><title>&#45;24</title>
<polygon fill="lightgray" stroke="black" points="252.5,-254.693 223.5,-254.693 223.5,-236.693 252.5,-236.693 252.5,-254.693"/>
<text text-anchor="middle" x="238" y="-243.493" font-family="Times,serif" font-size="9.00">&#45;24</text>
</g>
<!-- &#45;24&#45;&gt;6941 -->
<g id="edge3" class="edge"><title>&#45;24&#45;&gt;6941</title>
<path fill="none" stroke="green" stroke-width="0.394357" d="M241.203,-236.656C244.005,-229.625 248.264,-218.938 252.409,-208.539"/>
<polygon fill="green" stroke="green" stroke-width="0.394357" points="255.687,-209.768 256.138,-199.182 249.184,-207.176 255.687,-209.768"/>
</g>
<!-- 1&#45;&gt;1 -->
<g id="edge12" class="edge"><title>1&#45;&gt;1</title>
<path fill="none" stroke="red" stroke-width="0.37146" d="M706.106,-186.254C716.536,-191.6 727.849,-188.163 727.849,-175.945 727.849,-167.735 722.742,-163.49 716.228,-163.21"/>
<polygon fill="red" stroke="red" stroke-width="0.37146" points="715.015,-159.901 706.106,-165.635 716.647,-166.708 715.015,-159.901"/>
</g>
<!-- 2&#45;&gt;2 -->
<g id="edge10" class="edge"><title>2&#45;&gt;2</title>
<path fill="none" stroke="green" stroke-width="0.190339" d="M148.106,-186.254C158.536,-191.6 169.849,-188.163 169.849,-175.945 169.849,-167.735 164.742,-163.49 158.228,-163.21"/>
<polygon fill="green" stroke="green" stroke-width="0.190339" points="157.015,-159.901 148.106,-165.635 158.647,-166.708 157.015,-159.901"/>
</g>
<!-- 8687 -->
<g id="node29" class="node"><title>8687</title>
<ellipse fill="white" stroke="black" cx="141" cy="-90.4472" rx="25" ry="25"/>
<text text-anchor="middle" x="141" y="-88.2472" font-family="Times,serif" font-size="9.00">8687</text>
</g>
<!-- 2&#45;&gt;8687 -->
<g id="edge4" class="edge"><title>2&#45;&gt;8687</title>
<path fill="none" stroke="green" stroke-width="0.289004" d="M137.679,-160.78C138.145,-151.039 138.786,-137.67 139.38,-125.27"/>
<polygon fill="green" stroke="green" stroke-width="0.289004" points="142.88,-125.338 139.863,-115.182 135.888,-125.003 142.88,-125.338"/>
</g>
<!-- 3&#45;&gt;8687 -->
<g id="edge16" class="edge"><title>3&#45;&gt;8687</title>
<path fill="none" stroke="red" stroke-width="0.305269" d="M146.304,-28.9223C147.394,-36.491 147.868,-46.394 147.725,-55.9913"/>
<polygon fill="red" stroke="red" stroke-width="0.305269" points="144.221,-56.0314 147.328,-66.1604 151.216,-56.3046 144.221,-56.0314"/>
</g>
<!-- 8687&#45;&gt;3 -->
<g id="edge6" class="edge"><title>8687&#45;&gt;3</title>
<path fill="none" stroke="red" stroke-width="0.366793" d="M134.672,-66.1604C134.108,-57.514 134.109,-47.7119 134.676,-39.0714"/>
<polygon fill="red" stroke="red" stroke-width="0.366793" points="138.178,-39.2222 135.696,-28.9223 131.214,-38.522 138.178,-39.2222"/>
</g>
</g>
</svg>
