<?xml version="1.0" encoding="UTF-8" standalone="no"?>
<!DOCTYPE svg PUBLIC "-//W3C//DTD SVG 1.1//EN"
 "http://www.w3.org/Graphics/SVG/1.1/DTD/svg11.dtd">
<!-- Generated by graphviz version 2.38.0 (20140413.2041)
 -->
<!-- Title: %3 Pages: 1 -->
<svg width="1244pt" height="787pt"
 viewBox="0.00 0.00 1244.08 786.73" xmlns="http://www.w3.org/2000/svg" xmlns:xlink="http://www.w3.org/1999/xlink">
<g id="graph0" class="graph" transform="scale(1 1) rotate(0) translate(4 782.732)">
<title>%3</title>
<polygon fill="white" stroke="none" points="-4,4 -4,-782.732 1240.08,-782.732 1240.08,4 -4,4"/>
<!-- &#45;1 -->
<g id="node1" class="node"><title>&#45;1</title>
<polygon fill="lightgray" stroke="black" points="363.5,-395.538 339.5,-395.538 339.5,-377.538 363.5,-377.538 363.5,-395.538"/>
<text text-anchor="middle" x="351.5" y="-384.338" font-family="Times,serif" font-size="9.00">&#45;1</text>
</g>
<!-- 9931 -->
<g id="node47" class="node"><title>9931</title>
<ellipse fill="white" stroke="black" cx="266.5" cy="-295.383" rx="25" ry="25"/>
<text text-anchor="middle" x="266.5" y="-293.183" font-family="Times,serif" font-size="9.00">9931</text>
</g>
<!-- &#45;1&#45;&gt;9931 -->
<g id="edge5" class="edge"><title>&#45;1&#45;&gt;9931</title>
<path fill="none" stroke="green" stroke-width="0.431224" d="M345.509,-377.412C341.442,-372.035 335.849,-364.906 330.5,-358.96 318.393,-345.504 304.053,-331.337 292.019,-319.893"/>
<polygon fill="green" stroke="green" stroke-width="0.431224" points="294.169,-317.11 284.49,-312.8 289.369,-322.205 294.169,-317.11"/>
</g>
<!-- &#45;2 -->
<g id="node2" class="node"><title>&#45;2</title>
<polygon fill="lightgray" stroke="black" points="607.5,-760.155 583.5,-760.155 583.5,-742.155 607.5,-742.155 607.5,-760.155"/>
<text text-anchor="middle" x="595.5" y="-748.955" font-family="Times,serif" font-size="9.00">&#45;2</text>
</g>
<!-- &#45;3 -->
<g id="node3" class="node"><title>&#45;3</title>
<polygon fill="lightgray" stroke="black" points="222.5,-486.692 198.5,-486.692 198.5,-468.692 222.5,-468.692 222.5,-486.692"/>
<text text-anchor="middle" x="210.5" y="-475.492" font-family="Times,serif" font-size="9.00">&#45;3</text>
</g>
<!-- 2197 -->
<g id="node35" class="node"><title>2197</title>
<ellipse fill="white" stroke="black" cx="218.5" cy="-386.538" rx="25" ry="25"/>
<text text-anchor="middle" x="218.5" y="-384.338" font-family="Times,serif" font-size="9.00">2197</text>
</g>
<!-- &#45;3&#45;&gt;2197 -->
<g id="edge45" class="edge"><title>&#45;3&#45;&gt;2197</title>
<path fill="none" stroke="green" stroke-width="0.668463" d="M211.238,-468.464C212.193,-457.826 213.914,-438.642 215.442,-421.622"/>
<polygon fill="green" stroke="green" stroke-width="0.668463" points="218.951,-421.673 216.359,-411.4 211.979,-421.047 218.951,-421.673"/>
</g>
<!-- &#45;4 -->
<g id="node4" class="node"><title>&#45;4</title>
<polygon fill="lightgray" stroke="black" points="649.5,-760.155 625.5,-760.155 625.5,-742.155 649.5,-742.155 649.5,-760.155"/>
<text text-anchor="middle" x="637.5" y="-748.955" font-family="Times,serif" font-size="9.00">&#45;4</text>
</g>
<!-- &#45;5 -->
<g id="node5" class="node"><title>&#45;5</title>
<polygon fill="lightgray" stroke="black" points="361.5,-577.846 337.5,-577.846 337.5,-559.846 361.5,-559.846 361.5,-577.846"/>
<text text-anchor="middle" x="349.5" y="-566.646" font-family="Times,serif" font-size="9.00">&#45;5</text>
</g>
<!-- 2 -->
<g id="node27" class="node"><title>2</title>
<ellipse fill="lightblue" stroke="black" cx="389.5" cy="-477.692" rx="14.7" ry="14.7"/>
<text text-anchor="middle" x="389.5" y="-475.492" font-family="Times,serif" font-size="9.00">2</text>
</g>
<!-- &#45;5&#45;&gt;2 -->
<g id="edge13" class="edge"><title>&#45;5&#45;&gt;2</title>
<path fill="none" stroke="red" stroke-width="0.861736" d="M353.191,-559.619C359.153,-546.33 371.098,-519.707 379.66,-500.624"/>
<polygon fill="red" stroke="red" stroke-width="0.861736" points="382.879,-501.998 383.78,-491.442 376.493,-499.133 382.879,-501.998"/>
</g>
<!-- 5851 -->
<g id="node53" class="node"><title>5851</title>
<ellipse fill="white" stroke="black" cx="148.5" cy="-477.692" rx="25" ry="25"/>
<text text-anchor="middle" x="148.5" y="-475.492" font-family="Times,serif" font-size="9.00">5851</text>
</g>
<!-- &#45;5&#45;&gt;5851 -->
<g id="edge31" class="edge"><title>&#45;5&#45;&gt;5851</title>
<path fill="none" stroke="green" stroke-width="0.395035" d="M345.032,-559.692C341.351,-553.725 335.594,-545.894 328.5,-541.269 275.042,-506.416 247.918,-530.957 189.5,-505.269 185.28,-503.414 181.004,-501.148 176.886,-498.73"/>
<polygon fill="green" stroke="green" stroke-width="0.395035" points="178.54,-495.636 168.207,-493.295 174.824,-501.569 178.54,-495.636"/>
</g>
<!-- &#45;6 -->
<g id="node6" class="node"><title>&#45;6</title>
<polygon fill="lightgray" stroke="black" points="534.5,-486.692 510.5,-486.692 510.5,-468.692 534.5,-468.692 534.5,-486.692"/>
<text text-anchor="middle" x="522.5" y="-475.492" font-family="Times,serif" font-size="9.00">&#45;6</text>
</g>
<!-- 10861 -->
<g id="node58" class="node"><title>10861</title>
<ellipse fill="white" stroke="black" cx="522.5" cy="-386.538" rx="27.6545" ry="27.6545"/>
<text text-anchor="middle" x="522.5" y="-384.338" font-family="Times,serif" font-size="9.00">10861</text>
</g>
<!-- &#45;6&#45;&gt;10861 -->
<g id="edge33" class="edge"><title>&#45;6&#45;&gt;10861</title>
<path fill="none" stroke="green" stroke-width="0.259374" d="M522.5,-468.464C522.5,-458.492 522.5,-441.011 522.5,-424.842"/>
<polygon fill="green" stroke="green" stroke-width="0.259374" points="526,-424.499 522.5,-414.499 519,-424.499 526,-424.499"/>
</g>
<!-- &#45;7 -->
<g id="node7" class="node"><title>&#45;7</title>
<polygon fill="lightgray" stroke="black" points="403.5,-577.846 379.5,-577.846 379.5,-559.846 403.5,-559.846 403.5,-577.846"/>
<text text-anchor="middle" x="391.5" y="-566.646" font-family="Times,serif" font-size="9.00">&#45;7</text>
</g>
<!-- 4505 -->
<g id="node36" class="node"><title>4505</title>
<ellipse fill="white" stroke="black" cx="310.5" cy="-477.692" rx="25" ry="25"/>
<text text-anchor="middle" x="310.5" y="-475.492" font-family="Times,serif" font-size="9.00">4505</text>
</g>
<!-- &#45;7&#45;&gt;4505 -->
<g id="edge14" class="edge"><title>&#45;7&#45;&gt;4505</title>
<path fill="none" stroke="red" stroke-width="0.933291" d="M385.446,-559.777C381.351,-554.424 375.753,-547.3 370.5,-541.269 359.256,-528.359 346.158,-514.567 335.073,-503.225"/>
<polygon fill="red" stroke="red" stroke-width="0.933291" points="337.279,-500.476 327.769,-495.806 332.291,-505.388 337.279,-500.476"/>
</g>
<!-- &#45;8 -->
<g id="node8" class="node"><title>&#45;8</title>
<polygon fill="lightgray" stroke="black" points="264.5,-486.692 240.5,-486.692 240.5,-468.692 264.5,-468.692 264.5,-486.692"/>
<text text-anchor="middle" x="252.5" y="-475.492" font-family="Times,serif" font-size="9.00">&#45;8</text>
</g>
<!-- &#45;8&#45;&gt;2197 -->
<g id="edge12" class="edge"><title>&#45;8&#45;&gt;2197</title>
<path fill="none" stroke="green" stroke-width="0.3396" d="M249.362,-468.464C245.118,-457.335 237.306,-436.851 230.604,-419.277"/>
<polygon fill="green" stroke="green" stroke-width="0.3396" points="233.858,-417.988 227.025,-409.891 227.318,-420.482 233.858,-417.988"/>
</g>
<!-- &#45;9 -->
<g id="node9" class="node"><title>&#45;9</title>
<polygon fill="lightgray" stroke="black" points="691.5,-760.155 667.5,-760.155 667.5,-742.155 691.5,-742.155 691.5,-760.155"/>
<text text-anchor="middle" x="679.5" y="-748.955" font-family="Times,serif" font-size="9.00">&#45;9</text>
</g>
<!-- &#45;10 -->
<g id="node10" class="node"><title>&#45;10</title>
<polygon fill="lightgray" stroke="black" points="739,-760.155 710,-760.155 710,-742.155 739,-742.155 739,-760.155"/>
<text text-anchor="middle" x="724.5" y="-748.955" font-family="Times,serif" font-size="9.00">&#45;10</text>
</g>
<!-- &#45;11 -->
<g id="node11" class="node"><title>&#45;11</title>
<polygon fill="lightgray" stroke="black" points="786,-760.155 757,-760.155 757,-742.155 786,-742.155 786,-760.155"/>
<text text-anchor="middle" x="771.5" y="-748.955" font-family="Times,serif" font-size="9.00">&#45;11</text>
</g>
<!-- &#45;12 -->
<g id="node12" class="node"><title>&#45;12</title>
<polygon fill="lightgray" stroke="black" points="833,-760.155 804,-760.155 804,-742.155 833,-742.155 833,-760.155"/>
<text text-anchor="middle" x="818.5" y="-748.955" font-family="Times,serif" font-size="9.00">&#45;12</text>
</g>
<!-- &#45;13 -->
<g id="node13" class="node"><title>&#45;13</title>
<polygon fill="lightgray" stroke="black" points="880,-760.155 851,-760.155 851,-742.155 880,-742.155 880,-760.155"/>
<text text-anchor="middle" x="865.5" y="-748.955" font-family="Times,serif" font-size="9.00">&#45;13</text>
</g>
<!-- &#45;14 -->
<g id="node14" class="node"><title>&#45;14</title>
<polygon fill="lightgray" stroke="black" points="277,-760.155 248,-760.155 248,-742.155 277,-742.155 277,-760.155"/>
<text text-anchor="middle" x="262.5" y="-748.955" font-family="Times,serif" font-size="9.00">&#45;14</text>
</g>
<!-- 12988 -->
<g id="node45" class="node"><title>12988</title>
<ellipse fill="white" stroke="black" cx="262.5" cy="-660.001" rx="27.6545" ry="27.6545"/>
<text text-anchor="middle" x="262.5" y="-657.801" font-family="Times,serif" font-size="9.00">12988</text>
</g>
<!-- &#45;14&#45;&gt;12988 -->
<g id="edge21" class="edge"><title>&#45;14&#45;&gt;12988</title>
<path fill="none" stroke="red" stroke-width="0.385689" d="M262.5,-741.927C262.5,-731.955 262.5,-714.474 262.5,-698.305"/>
<polygon fill="red" stroke="red" stroke-width="0.385689" points="266,-697.961 262.5,-687.962 259,-697.962 266,-697.961"/>
</g>
<!-- &#45;15 -->
<g id="node15" class="node"><title>&#45;15</title>
<polygon fill="lightgray" stroke="black" points="927,-760.155 898,-760.155 898,-742.155 927,-742.155 927,-760.155"/>
<text text-anchor="middle" x="912.5" y="-748.955" font-family="Times,serif" font-size="9.00">&#45;15</text>
</g>
<!-- &#45;16 -->
<g id="node16" class="node"><title>&#45;16</title>
<polygon fill="lightgray" stroke="black" points="565,-760.155 536,-760.155 536,-742.155 565,-742.155 565,-760.155"/>
<text text-anchor="middle" x="550.5" y="-748.955" font-family="Times,serif" font-size="9.00">&#45;16</text>
</g>
<!-- 14752 -->
<g id="node37" class="node"><title>14752</title>
<ellipse fill="white" stroke="black" cx="550.5" cy="-660.001" rx="27.6545" ry="27.6545"/>
<text text-anchor="middle" x="550.5" y="-657.801" font-family="Times,serif" font-size="9.00">14752</text>
</g>
<!-- &#45;16&#45;&gt;14752 -->
<g id="edge20" class="edge"><title>&#45;16&#45;&gt;14752</title>
<path fill="none" stroke="green" stroke-width="0.502419" d="M550.5,-741.927C550.5,-731.955 550.5,-714.474 550.5,-698.305"/>
<polygon fill="green" stroke="green" stroke-width="0.502419" points="554,-697.961 550.5,-687.962 547,-697.962 554,-697.961"/>
</g>
<!-- &#45;17 -->
<g id="node17" class="node"><title>&#45;17</title>
<polygon fill="lightgray" stroke="black" points="29,-122.075 1.77636e-15,-122.075 1.77636e-15,-104.075 29,-104.075 29,-122.075"/>
<text text-anchor="middle" x="14.5" y="-110.875" font-family="Times,serif" font-size="9.00">&#45;17</text>
</g>
<!-- 6507 -->
<g id="node56" class="node"><title>6507</title>
<ellipse fill="white" stroke="black" cx="308.5" cy="-24.7487" rx="25" ry="25"/>
<text text-anchor="middle" x="308.5" y="-22.5487" font-family="Times,serif" font-size="9.00">6507</text>
</g>
<!-- &#45;17&#45;&gt;6507 -->
<g id="edge49" class="edge"><title>&#45;17&#45;&gt;6507</title>
<path fill="none" stroke="green" stroke-width="0.357692" d="M19.5201,-103.847C23.6172,-97.8412 29.9509,-89.9941 37.5,-85.4975 113.17,-40.4248 218.964,-29.2568 273.27,-26.555"/>
<polygon fill="green" stroke="green" stroke-width="0.357692" points="273.58,-30.0451 283.421,-26.12 273.28,-23.0515 273.58,-30.0451"/>
</g>
<!-- &#45;18 -->
<g id="node18" class="node"><title>&#45;18</title>
<polygon fill="lightgray" stroke="black" points="974,-760.155 945,-760.155 945,-742.155 974,-742.155 974,-760.155"/>
<text text-anchor="middle" x="959.5" y="-748.955" font-family="Times,serif" font-size="9.00">&#45;18</text>
</g>
<!-- &#45;19 -->
<g id="node19" class="node"><title>&#45;19</title>
<polygon fill="lightgray" stroke="black" points="160,-669.001 131,-669.001 131,-651.001 160,-651.001 160,-669.001"/>
<text text-anchor="middle" x="145.5" y="-657.801" font-family="Times,serif" font-size="9.00">&#45;19</text>
</g>
<!-- 13963 -->
<g id="node30" class="node"><title>13963</title>
<ellipse fill="white" stroke="black" cx="145.5" cy="-568.846" rx="27.6545" ry="27.6545"/>
<text text-anchor="middle" x="145.5" y="-566.646" font-family="Times,serif" font-size="9.00">13963</text>
</g>
<!-- &#45;19&#45;&gt;13963 -->
<g id="edge42" class="edge"><title>&#45;19&#45;&gt;13963</title>
<path fill="none" stroke="green" stroke-width="0.594738" d="M145.5,-650.773C145.5,-640.801 145.5,-623.32 145.5,-607.151"/>
<polygon fill="green" stroke="green" stroke-width="0.594738" points="149,-606.807 145.5,-596.807 142,-606.807 149,-606.807"/>
</g>
<!-- &#45;20 -->
<g id="node20" class="node"><title>&#45;20</title>
<polygon fill="lightgray" stroke="black" points="429,-760.155 400,-760.155 400,-742.155 429,-742.155 429,-760.155"/>
<text text-anchor="middle" x="414.5" y="-748.955" font-family="Times,serif" font-size="9.00">&#45;20</text>
</g>
<!-- 9704 -->
<g id="node54" class="node"><title>9704</title>
<ellipse fill="white" stroke="black" cx="449.5" cy="-660.001" rx="25" ry="25"/>
<text text-anchor="middle" x="449.5" y="-657.801" font-family="Times,serif" font-size="9.00">9704</text>
</g>
<!-- &#45;20&#45;&gt;9704 -->
<g id="edge30" class="edge"><title>&#45;20&#45;&gt;9704</title>
<path fill="none" stroke="red" stroke-width="1.35882" d="M417.73,-741.927C422.099,-730.798 430.141,-710.314 437.04,-692.74"/>
<polygon fill="red" stroke="red" stroke-width="1.35882" points="440.328,-693.942 440.724,-683.354 433.812,-691.384 440.328,-693.942"/>
</g>
<!-- 13815 -->
<g id="node59" class="node"><title>13815</title>
<ellipse fill="white" stroke="black" cx="379.5" cy="-660.001" rx="27.6545" ry="27.6545"/>
<text text-anchor="middle" x="379.5" y="-657.801" font-family="Times,serif" font-size="9.00">13815</text>
</g>
<!-- &#45;20&#45;&gt;13815 -->
<g id="edge25" class="edge"><title>&#45;20&#45;&gt;13815</title>
<path fill="none" stroke="green" stroke-width="1.35156" d="M411.27,-741.927C407.139,-731.405 399.726,-712.522 393.099,-695.642"/>
<polygon fill="green" stroke="green" stroke-width="1.35156" points="396.232,-694.042 389.319,-686.013 389.716,-696.6 396.232,-694.042"/>
</g>
<!-- &#45;21 -->
<g id="node21" class="node"><title>&#45;21</title>
<polygon fill="lightgray" stroke="black" points="1021,-760.155 992,-760.155 992,-742.155 1021,-742.155 1021,-760.155"/>
<text text-anchor="middle" x="1006.5" y="-748.955" font-family="Times,serif" font-size="9.00">&#45;21</text>
</g>
<!-- &#45;22 -->
<g id="node22" class="node"><title>&#45;22</title>
<polygon fill="lightgray" stroke="black" points="1068,-760.155 1039,-760.155 1039,-742.155 1068,-742.155 1068,-760.155"/>
<text text-anchor="middle" x="1053.5" y="-748.955" font-family="Times,serif" font-size="9.00">&#45;22</text>
</g>
<!-- &#45;23 -->
<g id="node23" class="node"><title>&#45;23</title>
<polygon fill="lightgray" stroke="black" points="484,-304.383 455,-304.383 455,-286.383 484,-286.383 484,-304.383"/>
<text text-anchor="middle" x="469.5" y="-293.183" font-family="Times,serif" font-size="9.00">&#45;23</text>
</g>
<!-- 19009 -->
<g id="node46" class="node"><title>19009</title>
<ellipse fill="white" stroke="black" cx="462.5" cy="-204.229" rx="27.6545" ry="27.6545"/>
<text text-anchor="middle" x="462.5" y="-202.029" font-family="Times,serif" font-size="9.00">19009</text>
</g>
<!-- &#45;23&#45;&gt;19009 -->
<g id="edge11" class="edge"><title>&#45;23&#45;&gt;19009</title>
<path fill="none" stroke="green" stroke-width="0.358092" d="M468.854,-286.156C468.066,-276.113 466.679,-258.454 465.402,-242.19"/>
<polygon fill="green" stroke="green" stroke-width="0.358092" points="468.858,-241.492 464.586,-231.797 461.88,-242.04 468.858,-241.492"/>
</g>
<!-- &#45;24 -->
<g id="node24" class="node"><title>&#45;24</title>
<polygon fill="lightgray" stroke="black" points="103,-395.538 74,-395.538 74,-377.538 103,-377.538 103,-395.538"/>
<text text-anchor="middle" x="88.5" y="-384.338" font-family="Times,serif" font-size="9.00">&#45;24</text>
</g>
<!-- 12629 -->
<g id="node52" class="node"><title>12629</title>
<ellipse fill="white" stroke="black" cx="74.5" cy="-295.383" rx="27.6545" ry="27.6545"/>
<text text-anchor="middle" x="74.5" y="-293.183" font-family="Times,serif" font-size="9.00">12629</text>
</g>
<!-- &#45;24&#45;&gt;12629 -->
<g id="edge26" class="edge"><title>&#45;24&#45;&gt;12629</title>
<path fill="none" stroke="red" stroke-width="1.37349" d="M87.208,-377.31C85.616,-367.172 82.8051,-349.272 80.2311,-332.88"/>
<polygon fill="red" stroke="red" stroke-width="1.37349" points="83.681,-332.287 78.672,-322.951 76.7658,-333.373 83.681,-332.287"/>
</g>
<!-- 0 -->
<g id="node25" class="node"><title>0</title>
<ellipse fill="lightblue" stroke="black" cx="1100.5" cy="-751.155" rx="14.7" ry="14.7"/>
<text text-anchor="middle" x="1100.5" y="-748.955" font-family="Times,serif" font-size="9.00">0</text>
</g>
<!-- 1 -->
<g id="node26" class="node"><title>1</title>
<ellipse fill="lightblue" stroke="black" cx="208.5" cy="-295.383" rx="14.7" ry="14.7"/>
<text text-anchor="middle" x="208.5" y="-293.183" font-family="Times,serif" font-size="9.00">1</text>
</g>
<!-- 2831 -->
<g id="node33" class="node"><title>2831</title>
<ellipse fill="white" stroke="black" cx="296.5" cy="-386.538" rx="25" ry="25"/>
<text text-anchor="middle" x="296.5" y="-384.338" font-family="Times,serif" font-size="9.00">2831</text>
</g>
<!-- 2&#45;&gt;2831 -->
<g id="edge50" class="edge"><title>2&#45;&gt;2831</title>
<path fill="none" stroke="red" stroke-width="0.227655" d="M379.192,-466.81C365.392,-453.581 340.463,-429.683 321.573,-411.573"/>
<polygon fill="red" stroke="red" stroke-width="0.227655" points="323.794,-408.855 314.153,-404.461 318.95,-413.908 323.794,-408.855"/>
</g>
<!-- 2&#45;&gt;6507 -->
<g id="edge32" class="edge"><title>2&#45;&gt;6507</title>
<path fill="none" stroke="red" stroke-width="0.163561" d="M399.433,-466.206C420.942,-442.756 471.574,-383.37 492.5,-322.96 513.809,-261.446 511.366,-240.662 499.5,-176.652 491.59,-133.982 495.199,-116.171 464.5,-85.4975 431.405,-52.4303 378.077,-37.3123 343.155,-30.6527"/>
<polygon fill="red" stroke="red" stroke-width="0.163561" points="343.408,-27.1431 332.951,-28.8469 342.188,-34.036 343.408,-27.1431"/>
</g>
<!-- 2&#45;&gt;10861 -->
<g id="edge19" class="edge"><title>2&#45;&gt;10861</title>
<path fill="none" stroke="red" stroke-width="0.845147" d="M400.537,-467.239C406.827,-461.998 414.939,-455.476 422.5,-450.115 447.25,-432.567 454.792,-430.227 480.5,-414.115 483.859,-412.01 487.365,-409.804 490.856,-407.603"/>
<polygon fill="red" stroke="red" stroke-width="0.845147" points="492.831,-410.495 499.416,-402.195 489.092,-404.577 492.831,-410.495"/>
</g>
<!-- 3 -->
<g id="node28" class="node"><title>3</title>
<ellipse fill="lightblue" stroke="black" cx="1148.5" cy="-751.155" rx="14.7" ry="14.7"/>
<text text-anchor="middle" x="1148.5" y="-748.955" font-family="Times,serif" font-size="9.00">3</text>
</g>
<!-- 21254 -->
<g id="node29" class="node"><title>21254</title>
<ellipse fill="white" stroke="black" cx="74.5" cy="-204.229" rx="27.6545" ry="27.6545"/>
<text text-anchor="middle" x="74.5" y="-202.029" font-family="Times,serif" font-size="9.00">21254</text>
</g>
<!-- 11243 -->
<g id="node57" class="node"><title>11243</title>
<ellipse fill="white" stroke="black" cx="74.5" cy="-113.075" rx="27.6545" ry="27.6545"/>
<text text-anchor="middle" x="74.5" y="-110.875" font-family="Times,serif" font-size="9.00">11243</text>
</g>
<!-- 21254&#45;&gt;11243 -->
<g id="edge27" class="edge"><title>21254&#45;&gt;11243</title>
<path fill="none" stroke="red" stroke-width="0.54917" d="M74.5,-176.48C74.5,-168.458 74.5,-159.513 74.5,-150.958"/>
<polygon fill="red" stroke="red" stroke-width="0.54917" points="78.0001,-150.805 74.5,-140.805 71.0001,-150.805 78.0001,-150.805"/>
</g>
<!-- 13963&#45;&gt;5851 -->
<g id="edge28" class="edge"><title>13963&#45;&gt;5851</title>
<path fill="none" stroke="red" stroke-width="0.408724" d="M146.4,-541.097C146.699,-532.228 147.035,-522.231 147.35,-512.88"/>
<polygon fill="red" stroke="red" stroke-width="0.408724" points="150.854,-512.804 147.692,-502.692 143.858,-512.568 150.854,-512.804"/>
</g>
<!-- 16908 -->
<g id="node31" class="node"><title>16908</title>
<ellipse fill="white" stroke="black" cx="336.5" cy="-295.383" rx="27.6545" ry="27.6545"/>
<text text-anchor="middle" x="336.5" y="-293.183" font-family="Times,serif" font-size="9.00">16908</text>
</g>
<!-- 18510 -->
<g id="node49" class="node"><title>18510</title>
<ellipse fill="white" stroke="black" cx="336.5" cy="-204.229" rx="27.6545" ry="27.6545"/>
<text text-anchor="middle" x="336.5" y="-202.029" font-family="Times,serif" font-size="9.00">18510</text>
</g>
<!-- 16908&#45;&gt;18510 -->
<g id="edge9" class="edge"><title>16908&#45;&gt;18510</title>
<path fill="none" stroke="red" stroke-width="0.336938" d="M336.5,-267.634C336.5,-259.612 336.5,-250.667 336.5,-242.113"/>
<polygon fill="red" stroke="red" stroke-width="0.336938" points="340,-241.959 336.5,-231.959 333,-241.959 340,-241.959"/>
</g>
<!-- 16908&#45;&gt;6507 -->
<g id="edge39" class="edge"><title>16908&#45;&gt;6507</title>
<path fill="none" stroke="green" stroke-width="0.342766" d="M320.38,-272.661C312.691,-261.121 304.17,-246.346 299.5,-231.806 279.587,-169.802 282.503,-149.996 291.5,-85.4975 292.753,-76.5151 295.017,-66.9868 297.493,-58.2404"/>
<polygon fill="green" stroke="green" stroke-width="0.342766" points="300.921,-58.9959 300.449,-48.4116 294.217,-56.9799 300.921,-58.9959"/>
</g>
<!-- 13327 -->
<g id="node32" class="node"><title>13327</title>
<ellipse fill="white" stroke="black" cx="291.5" cy="-568.846" rx="27.6545" ry="27.6545"/>
<text text-anchor="middle" x="291.5" y="-566.646" font-family="Times,serif" font-size="9.00">13327</text>
</g>
<!-- 13327&#45;&gt;5851 -->
<g id="edge44" class="edge"><title>13327&#45;&gt;5851</title>
<path fill="none" stroke="green" stroke-width="0.273375" d="M270.135,-551.334C265.4,-547.885 260.347,-544.36 255.5,-541.269 227.327,-523.305 218.206,-522.369 189.5,-505.269 185.54,-502.91 181.413,-500.355 177.369,-497.793"/>
<polygon fill="green" stroke="green" stroke-width="0.273375" points="179.05,-494.713 168.746,-492.248 175.264,-500.601 179.05,-494.713"/>
</g>
<!-- 2831&#45;&gt;1 -->
<g id="edge4" class="edge"><title>2831&#45;&gt;1</title>
<path fill="none" stroke="red" stroke-width="0.337851" d="M278.826,-368.827C265.81,-356.384 247.791,-338.87 232.5,-322.96 229.968,-320.326 227.333,-317.5 224.776,-314.709"/>
<polygon fill="red" stroke="red" stroke-width="0.337851" points="227.228,-312.202 217.928,-307.127 222.033,-316.894 227.228,-312.202"/>
</g>
<!-- 20755 -->
<g id="node34" class="node"><title>20755</title>
<ellipse fill="white" stroke="black" cx="186.5" cy="-113.075" rx="27.6545" ry="27.6545"/>
<text text-anchor="middle" x="186.5" y="-110.875" font-family="Times,serif" font-size="9.00">20755</text>
</g>
<!-- 2197&#45;&gt;1 -->
<g id="edge36" class="edge"><title>2197&#45;&gt;1</title>
<path fill="none" stroke="green" stroke-width="0.753042" d="M215.82,-361.646C214.383,-348.832 212.617,-333.087 211.18,-320.273"/>
<polygon fill="green" stroke="green" stroke-width="0.753042" points="214.657,-319.875 210.064,-310.327 207.701,-320.655 214.657,-319.875"/>
</g>
<!-- 4505&#45;&gt;2831 -->
<g id="edge40" class="edge"><title>4505&#45;&gt;2831</title>
<path fill="none" stroke="red" stroke-width="1.44092" d="M306.748,-452.8C305.23,-443.129 303.449,-431.789 301.802,-421.299"/>
<polygon fill="red" stroke="red" stroke-width="1.44092" points="305.223,-420.522 300.214,-411.186 298.307,-421.608 305.223,-420.522"/>
</g>
<!-- 17832 -->
<g id="node40" class="node"><title>17832</title>
<ellipse fill="white" stroke="black" cx="522.5" cy="-568.846" rx="27.6545" ry="27.6545"/>
<text text-anchor="middle" x="522.5" y="-566.646" font-family="Times,serif" font-size="9.00">17832</text>
</g>
<!-- 14752&#45;&gt;17832 -->
<g id="edge34" class="edge"><title>14752&#45;&gt;17832</title>
<path fill="none" stroke="red" stroke-width="0.207747" d="M542.401,-633.213C539.62,-624.358 536.459,-614.292 533.488,-604.832"/>
<polygon fill="red" stroke="red" stroke-width="0.207747" points="536.819,-603.759 530.484,-595.268 530.141,-605.857 536.819,-603.759"/>
</g>
<!-- 14752&#45;&gt;6507 -->
<g id="edge15" class="edge"><title>14752&#45;&gt;6507</title>
<path fill="none" stroke="red" stroke-width="0.949371" d="M557.136,-632.92C565.416,-598.032 578.5,-534.13 578.5,-478.692 578.5,-478.692 578.5,-478.692 578.5,-203.229 578.5,-91.7528 415.797,-46.3988 342.996,-31.6849"/>
<polygon fill="red" stroke="red" stroke-width="0.949371" points="343.421,-28.2021 332.937,-29.7321 342.087,-35.0739 343.421,-28.2021"/>
</g>
<!-- 17317 -->
<g id="node38" class="node"><title>17317</title>
<ellipse fill="white" stroke="black" cx="409.5" cy="-295.383" rx="27.6545" ry="27.6545"/>
<text text-anchor="middle" x="409.5" y="-293.183" font-family="Times,serif" font-size="9.00">17317</text>
</g>
<!-- 17317&#45;&gt;19009 -->
<g id="edge51" class="edge"><title>17317&#45;&gt;19009</title>
<path fill="none" stroke="red" stroke-width="1.27237" d="M423.425,-270.959C429.572,-260.619 436.894,-248.302 443.529,-237.141"/>
<polygon fill="red" stroke="red" stroke-width="1.27237" points="446.566,-238.881 448.668,-228.497 440.549,-235.304 446.566,-238.881"/>
</g>
<!-- 17317&#45;&gt;18510 -->
<g id="edge48" class="edge"><title>17317&#45;&gt;18510</title>
<path fill="none" stroke="green" stroke-width="0.177966" d="M392.2,-273.255C382.654,-261.597 370.659,-246.947 360.247,-234.232"/>
<polygon fill="green" stroke="green" stroke-width="0.177966" points="362.719,-231.726 353.676,-226.206 357.303,-236.16 362.719,-231.726"/>
</g>
<!-- 17317&#45;&gt;6507 -->
<g id="edge16" class="edge"><title>17317&#45;&gt;6507</title>
<path fill="none" stroke="green" stroke-width="0.781002" d="M410.171,-267.511C411.47,-243.191 415.159,-206.688 425.5,-176.652 431.53,-159.137 441.666,-158.533 446.5,-140.652 452.897,-116.988 459.956,-105.987 446.5,-85.4975 423.74,-50.8411 376.11,-36.1895 343.225,-30.0597"/>
<polygon fill="green" stroke="green" stroke-width="0.781002" points="343.56,-26.5668 333.117,-28.3544 342.396,-33.4692 343.56,-26.5668"/>
</g>
<!-- 7718 -->
<g id="node39" class="node"><title>7718</title>
<ellipse fill="white" stroke="black" cx="165.5" cy="-204.229" rx="25" ry="25"/>
<text text-anchor="middle" x="165.5" y="-202.029" font-family="Times,serif" font-size="9.00">7718</text>
</g>
<!-- 7718&#45;&gt;20755 -->
<g id="edge1" class="edge"><title>7718&#45;&gt;20755</title>
<path fill="none" stroke="red" stroke-width="0.641144" d="M171.018,-179.805C173.168,-170.673 175.683,-160 178.052,-149.942"/>
<polygon fill="red" stroke="red" stroke-width="0.641144" points="181.468,-150.705 180.354,-140.169 174.654,-149.1 181.468,-150.705"/>
</g>
<!-- 7718&#45;&gt;6507 -->
<g id="edge46" class="edge"><title>7718&#45;&gt;6507</title>
<path fill="none" stroke="red" stroke-width="0.603305" d="M154.336,-181.609C142.984,-156.285 129.654,-114.157 149.5,-85.4975 177.352,-45.2772 235.881,-32.0938 273.629,-27.7961"/>
<polygon fill="red" stroke="red" stroke-width="0.603305" points="274.074,-31.2693 283.682,-26.8045 273.387,-24.3031 274.074,-31.2693"/>
</g>
<!-- 7718&#45;&gt;11243 -->
<g id="edge17" class="edge"><title>7718&#45;&gt;11243</title>
<path fill="none" stroke="green" stroke-width="1.30062" d="M147.954,-186.039C134.76,-173.112 116.445,-155.169 101.405,-140.434"/>
<polygon fill="green" stroke="green" stroke-width="1.30062" points="103.475,-137.562 93.8823,-133.064 98.5761,-142.562 103.475,-137.562"/>
</g>
<!-- 22448 -->
<g id="node41" class="node"><title>22448</title>
<ellipse fill="white" stroke="black" cx="459.5" cy="-477.692" rx="27.6545" ry="27.6545"/>
<text text-anchor="middle" x="459.5" y="-475.492" font-family="Times,serif" font-size="9.00">22448</text>
</g>
<!-- 22448&#45;&gt;10861 -->
<g id="edge29" class="edge"><title>22448&#45;&gt;10861</title>
<path fill="none" stroke="green" stroke-width="0.168819" d="M475.073,-454.654C482.872,-443.617 492.44,-430.078 500.933,-418.058"/>
<polygon fill="green" stroke="green" stroke-width="0.168819" points="503.975,-419.818 506.888,-409.631 498.258,-415.778 503.975,-419.818"/>
</g>
<!-- 20537 -->
<g id="node42" class="node"><title>20537</title>
<ellipse fill="white" stroke="black" cx="28.5" cy="-386.538" rx="27.6545" ry="27.6545"/>
<text text-anchor="middle" x="28.5" y="-384.338" font-family="Times,serif" font-size="9.00">20537</text>
</g>
<!-- 20537&#45;&gt;12629 -->
<g id="edge41" class="edge"><title>20537&#45;&gt;12629</title>
<path fill="none" stroke="green" stroke-width="0.62995" d="M40.8272,-361.646C45.9318,-351.752 51.9377,-340.112 57.4532,-329.422"/>
<polygon fill="green" stroke="green" stroke-width="0.62995" points="60.6639,-330.833 62.1388,-320.341 54.4431,-327.623 60.6639,-330.833"/>
</g>
<!-- 11577 -->
<g id="node43" class="node"><title>11577</title>
<ellipse fill="white" stroke="black" cx="148.5" cy="-295.383" rx="27.6545" ry="27.6545"/>
<text text-anchor="middle" x="148.5" y="-293.183" font-family="Times,serif" font-size="9.00">11577</text>
</g>
<!-- 20922 -->
<g id="node44" class="node"><title>20922</title>
<ellipse fill="white" stroke="black" cx="336.5" cy="-113.075" rx="27.6545" ry="27.6545"/>
<text text-anchor="middle" x="336.5" y="-110.875" font-family="Times,serif" font-size="9.00">20922</text>
</g>
<!-- 20922&#45;&gt;6507 -->
<g id="edge6" class="edge"><title>20922&#45;&gt;6507</title>
<path fill="none" stroke="red" stroke-width="0.289352" d="M328.251,-86.6409C325.384,-77.8022 322.127,-67.7629 319.097,-58.4215"/>
<polygon fill="red" stroke="red" stroke-width="0.289352" points="322.342,-57.0811 315.928,-48.6488 315.684,-59.2408 322.342,-57.0811"/>
</g>
<!-- 12988&#45;&gt;17832 -->
<g id="edge47" class="edge"><title>12988&#45;&gt;17832</title>
<path fill="none" stroke="green" stroke-width="0.347113" d="M288.285,-649.883C303.886,-644.504 324.23,-637.734 342.5,-632.423 405.848,-614.011 426.827,-624.55 486.5,-596.423 488.775,-595.351 491.05,-594.125 493.29,-592.801"/>
<polygon fill="green" stroke="green" stroke-width="0.347113" points="495.211,-595.727 501.67,-587.329 491.383,-589.866 495.211,-595.727"/>
</g>
<!-- 16336 -->
<g id="node50" class="node"><title>16336</title>
<ellipse fill="white" stroke="black" cx="218.5" cy="-568.846" rx="27.6545" ry="27.6545"/>
<text text-anchor="middle" x="218.5" y="-566.646" font-family="Times,serif" font-size="9.00">16336</text>
</g>
<!-- 12988&#45;&gt;16336 -->
<g id="edge35" class="edge"><title>12988&#45;&gt;16336</title>
<path fill="none" stroke="green" stroke-width="0.710371" d="M250.477,-634.639C245.684,-624.928 240.091,-613.594 234.934,-603.145"/>
<polygon fill="green" stroke="green" stroke-width="0.710371" points="237.921,-601.288 230.356,-593.87 231.643,-604.386 237.921,-601.288"/>
</g>
<!-- 9931&#45;&gt;7718 -->
<g id="edge24" class="edge"><title>9931&#45;&gt;7718</title>
<path fill="none" stroke="green" stroke-width="1.04159" d="M248.443,-278.444C232.599,-264.459 209.367,-243.951 191.517,-228.195"/>
<polygon fill="green" stroke="green" stroke-width="1.04159" points="193.554,-225.324 183.741,-221.331 188.922,-230.572 193.554,-225.324"/>
</g>
<!-- 13515 -->
<g id="node48" class="node"><title>13515</title>
<ellipse fill="white" stroke="black" cx="148.5" cy="-386.538" rx="27.6545" ry="27.6545"/>
<text text-anchor="middle" x="148.5" y="-384.338" font-family="Times,serif" font-size="9.00">13515</text>
</g>
<!-- 13515&#45;&gt;11577 -->
<g id="edge10" class="edge"><title>13515&#45;&gt;11577</title>
<path fill="none" stroke="red" stroke-width="0.225883" d="M148.5,-358.788C148.5,-350.766 148.5,-341.822 148.5,-333.267"/>
<polygon fill="red" stroke="red" stroke-width="0.225883" points="152,-333.114 148.5,-323.114 145,-333.114 152,-333.114"/>
</g>
<!-- 18510&#45;&gt;20922 -->
<g id="edge23" class="edge"><title>18510&#45;&gt;20922</title>
<path fill="none" stroke="green" stroke-width="0.286416" d="M336.5,-176.48C336.5,-168.458 336.5,-159.513 336.5,-150.958"/>
<polygon fill="green" stroke="green" stroke-width="0.286416" points="340,-150.805 336.5,-140.805 333,-150.805 340,-150.805"/>
</g>
<!-- 18510&#45;&gt;6507 -->
<g id="edge43" class="edge"><title>18510&#45;&gt;6507</title>
<path fill="none" stroke="red" stroke-width="0.607006" d="M320.039,-181.95C312.156,-170.412 303.562,-155.504 299.5,-140.652 292.175,-113.872 295.434,-82.3679 299.956,-59.127"/>
<polygon fill="red" stroke="red" stroke-width="0.607006" points="303.437,-59.5857 302.089,-49.0769 296.589,-58.1323 303.437,-59.5857"/>
</g>
<!-- 10705 -->
<g id="node51" class="node"><title>10705</title>
<ellipse fill="white" stroke="black" cx="409.5" cy="-113.075" rx="27.6545" ry="27.6545"/>
<text text-anchor="middle" x="409.5" y="-110.875" font-family="Times,serif" font-size="9.00">10705</text>
</g>
<!-- 10705&#45;&gt;6507 -->
<g id="edge3" class="edge"><title>10705&#45;&gt;6507</title>
<path fill="none" stroke="red" stroke-width="0.204406" d="M388.573,-94.1879C372.981,-80.8615 351.582,-62.5718 334.829,-48.2522"/>
<polygon fill="red" stroke="red" stroke-width="0.204406" points="336.899,-45.4174 327.023,-41.5807 332.351,-50.7386 336.899,-45.4174"/>
</g>
<!-- 12629&#45;&gt;21254 -->
<g id="edge22" class="edge"><title>12629&#45;&gt;21254</title>
<path fill="none" stroke="green" stroke-width="0.64956" d="M74.5,-267.634C74.5,-259.612 74.5,-250.667 74.5,-242.113"/>
<polygon fill="green" stroke="green" stroke-width="0.64956" points="78.0001,-241.959 74.5,-231.959 71.0001,-241.959 78.0001,-241.959"/>
</g>
<!-- 5851&#45;&gt;20537 -->
<g id="edge18" class="edge"><title>5851&#45;&gt;20537</title>
<path fill="none" stroke="green" stroke-width="0.598358" d="M128.953,-462.169C109.873,-447.994 80.5763,-426.228 58.5367,-409.853"/>
<polygon fill="green" stroke="green" stroke-width="0.598358" points="60.5959,-407.023 50.4815,-403.869 56.4213,-412.642 60.5959,-407.023"/>
</g>
<!-- 5851&#45;&gt;13515 -->
<g id="edge7" class="edge"><title>5851&#45;&gt;13515</title>
<path fill="none" stroke="green" stroke-width="0.455342" d="M148.5,-452.8C148.5,-444.088 148.5,-434.022 148.5,-424.442"/>
<polygon fill="green" stroke="green" stroke-width="0.455342" points="152,-424.326 148.5,-414.327 145,-424.327 152,-424.326"/>
</g>
<!-- 9704&#45;&gt;13327 -->
<g id="edge8" class="edge"><title>9704&#45;&gt;13327</title>
<path fill="none" stroke="green" stroke-width="0.113488" d="M431.34,-642.829C426.691,-639.132 421.568,-635.415 416.5,-632.423 380.108,-610.946 365.47,-616.89 328.5,-596.423 326.199,-595.15 323.872,-593.759 321.564,-592.302"/>
<polygon fill="green" stroke="green" stroke-width="0.113488" points="323.11,-589.125 312.854,-586.469 319.215,-594.941 323.11,-589.125"/>
</g>
<!-- 9704&#45;&gt;17832 -->
<g id="edge38" class="edge"><title>9704&#45;&gt;17832</title>
<path fill="none" stroke="green" stroke-width="0.12596" d="M464.981,-640.093C474.825,-628.072 487.761,-612.272 498.873,-598.702"/>
<polygon fill="green" stroke="green" stroke-width="0.12596" points="501.884,-600.549 505.511,-590.594 496.468,-596.114 501.884,-600.549"/>
</g>
<!-- 12795 -->
<g id="node60" class="node"><title>12795</title>
<ellipse fill="white" stroke="black" cx="449.5" cy="-568.846" rx="27.6545" ry="27.6545"/>
<text text-anchor="middle" x="449.5" y="-566.646" font-family="Times,serif" font-size="9.00">12795</text>
</g>
<!-- 9704&#45;&gt;12795 -->
<g id="edge52" class="edge"><title>9704&#45;&gt;12795</title>
<path fill="none" stroke="red" stroke-width="0.487344" d="M449.5,-635.109C449.5,-626.397 449.5,-616.33 449.5,-606.751"/>
<polygon fill="red" stroke="red" stroke-width="0.487344" points="453,-606.635 449.5,-596.635 446,-606.635 453,-606.635"/>
</g>
<!-- 10472 -->
<g id="node55" class="node"><title>10472</title>
<ellipse fill="white" stroke="black" cx="1208.5" cy="-751.155" rx="27.6545" ry="27.6545"/>
<text text-anchor="middle" x="1208.5" y="-748.955" font-family="Times,serif" font-size="9.00">10472</text>
</g>
<!-- 11243&#45;&gt;6507 -->
<g id="edge2" class="edge"><title>11243&#45;&gt;6507</title>
<path fill="none" stroke="green" stroke-width="0.64243" d="M96.9913,-96.3222C103.137,-92.4452 109.92,-88.5384 116.5,-85.4975 169.589,-60.961 235.418,-42.9507 274.578,-33.4329"/>
<polygon fill="green" stroke="green" stroke-width="0.64243" points="275.495,-36.8124 284.409,-31.0862 273.87,-30.0037 275.495,-36.8124"/>
</g>
<!-- 12795&#45;&gt;22448 -->
<g id="edge37" class="edge"><title>12795&#45;&gt;22448</title>
<path fill="none" stroke="green" stroke-width="0.3" d="M452.5,-541.097C453.418,-532.913 454.444,-523.769 455.421,-515.058"/>
<polygon fill="green" stroke="green" stroke-width="0.3" points="458.9,-515.443 456.536,-505.115 451.943,-514.663 458.9,-515.443"/>
</g>
</g>
</svg>
