<?xml version="1.0" encoding="UTF-8" standalone="no"?>
<!DOCTYPE svg PUBLIC "-//W3C//DTD SVG 1.1//EN"
 "http://www.w3.org/Graphics/SVG/1.1/DTD/svg11.dtd">
<!-- Generated by graphviz version 2.38.0 (20140413.2041)
 -->
<!-- Title: %3 Pages: 1 -->
<svg width="1169pt" height="176pt"
 viewBox="0.00 0.00 1168.85 176.17" xmlns="http://www.w3.org/2000/svg" xmlns:xlink="http://www.w3.org/1999/xlink">
<g id="graph0" class="graph" transform="scale(1 1) rotate(0) translate(4 172.167)">
<title>%3</title>
<polygon fill="white" stroke="none" points="-4,4 -4,-172.167 1164.85,-172.167 1164.85,4 -4,4"/>
<!-- &#45;1 -->
<g id="node1" class="node"><title>&#45;1</title>
<polygon fill="lightgray" stroke="black" points="24,-162.317 0,-162.317 0,-144.317 24,-144.317 24,-162.317"/>
<text text-anchor="middle" x="12" y="-151.117" font-family="Times,serif" font-size="9.00">&#45;1</text>
</g>
<!-- &#45;2 -->
<g id="node2" class="node"><title>&#45;2</title>
<polygon fill="lightgray" stroke="black" points="66,-162.317 42,-162.317 42,-144.317 66,-144.317 66,-162.317"/>
<text text-anchor="middle" x="54" y="-151.117" font-family="Times,serif" font-size="9.00">&#45;2</text>
</g>
<!-- &#45;3 -->
<g id="node3" class="node"><title>&#45;3</title>
<polygon fill="lightgray" stroke="black" points="108,-162.317 84,-162.317 84,-144.317 108,-144.317 108,-162.317"/>
<text text-anchor="middle" x="96" y="-151.117" font-family="Times,serif" font-size="9.00">&#45;3</text>
</g>
<!-- &#45;4 -->
<g id="node4" class="node"><title>&#45;4</title>
<polygon fill="lightgray" stroke="black" points="150,-162.317 126,-162.317 126,-144.317 150,-144.317 150,-162.317"/>
<text text-anchor="middle" x="138" y="-151.117" font-family="Times,serif" font-size="9.00">&#45;4</text>
</g>
<!-- &#45;5 -->
<g id="node5" class="node"><title>&#45;5</title>
<polygon fill="lightgray" stroke="black" points="192,-162.317 168,-162.317 168,-144.317 192,-144.317 192,-162.317"/>
<text text-anchor="middle" x="180" y="-151.117" font-family="Times,serif" font-size="9.00">&#45;5</text>
</g>
<!-- &#45;6 -->
<g id="node6" class="node"><title>&#45;6</title>
<polygon fill="lightgray" stroke="black" points="234,-162.317 210,-162.317 210,-144.317 234,-144.317 234,-162.317"/>
<text text-anchor="middle" x="222" y="-151.117" font-family="Times,serif" font-size="9.00">&#45;6</text>
</g>
<!-- &#45;7 -->
<g id="node7" class="node"><title>&#45;7</title>
<polygon fill="lightgray" stroke="black" points="276,-162.317 252,-162.317 252,-144.317 276,-144.317 276,-162.317"/>
<text text-anchor="middle" x="264" y="-151.117" font-family="Times,serif" font-size="9.00">&#45;7</text>
</g>
<!-- &#45;8 -->
<g id="node8" class="node"><title>&#45;8</title>
<polygon fill="lightgray" stroke="black" points="318,-162.317 294,-162.317 294,-144.317 318,-144.317 318,-162.317"/>
<text text-anchor="middle" x="306" y="-151.117" font-family="Times,serif" font-size="9.00">&#45;8</text>
</g>
<!-- &#45;9 -->
<g id="node9" class="node"><title>&#45;9</title>
<polygon fill="lightgray" stroke="black" points="360,-162.317 336,-162.317 336,-144.317 360,-144.317 360,-162.317"/>
<text text-anchor="middle" x="348" y="-151.117" font-family="Times,serif" font-size="9.00">&#45;9</text>
</g>
<!-- &#45;10 -->
<g id="node10" class="node"><title>&#45;10</title>
<polygon fill="lightgray" stroke="black" points="407.5,-162.317 378.5,-162.317 378.5,-144.317 407.5,-144.317 407.5,-162.317"/>
<text text-anchor="middle" x="393" y="-151.117" font-family="Times,serif" font-size="9.00">&#45;10</text>
</g>
<!-- &#45;11 -->
<g id="node11" class="node"><title>&#45;11</title>
<polygon fill="lightgray" stroke="black" points="454.5,-162.317 425.5,-162.317 425.5,-144.317 454.5,-144.317 454.5,-162.317"/>
<text text-anchor="middle" x="440" y="-151.117" font-family="Times,serif" font-size="9.00">&#45;11</text>
</g>
<!-- 1 -->
<g id="node26" class="node"><title>1</title>
<ellipse fill="lightblue" stroke="black" cx="440" cy="-84.0833" rx="14.7" ry="14.7"/>
<text text-anchor="middle" x="440" y="-81.8833" font-family="Times,serif" font-size="9.00">1</text>
</g>
<!-- &#45;11&#45;&gt;1 -->
<g id="edge2" class="edge"><title>&#45;11&#45;&gt;1</title>
<path fill="none" stroke="green" stroke-width="2.89533" d="M440,-144.073C440,-135.394 440,-121.322 440,-109.098"/>
<polygon fill="green" stroke="green" stroke-width="2.89533" points="443.5,-109.014 440,-99.0142 436.5,-109.014 443.5,-109.014"/>
</g>
<!-- &#45;12 -->
<g id="node12" class="node"><title>&#45;12</title>
<polygon fill="lightgray" stroke="black" points="501.5,-162.317 472.5,-162.317 472.5,-144.317 501.5,-144.317 501.5,-162.317"/>
<text text-anchor="middle" x="487" y="-151.117" font-family="Times,serif" font-size="9.00">&#45;12</text>
</g>
<!-- &#45;13 -->
<g id="node13" class="node"><title>&#45;13</title>
<polygon fill="lightgray" stroke="black" points="548.5,-162.317 519.5,-162.317 519.5,-144.317 548.5,-144.317 548.5,-162.317"/>
<text text-anchor="middle" x="534" y="-151.117" font-family="Times,serif" font-size="9.00">&#45;13</text>
</g>
<!-- 2 -->
<g id="node27" class="node"><title>2</title>
<ellipse fill="lightblue" stroke="black" cx="534" cy="-14.8492" rx="14.7" ry="14.7"/>
<text text-anchor="middle" x="534" y="-12.6492" font-family="Times,serif" font-size="9.00">2</text>
</g>
<!-- &#45;13&#45;&gt;2 -->
<g id="edge3" class="edge"><title>&#45;13&#45;&gt;2</title>
<path fill="none" stroke="red" stroke-width="3.37745" d="M533.149,-144.213C532.161,-134.359 530.591,-117.216 530,-102.468 529.346,-86.1391 529.346,-82.0274 530,-65.6985 530.338,-57.2537 530.998,-48.0235 531.685,-39.8262"/>
<polygon fill="red" stroke="red" stroke-width="3.37745" points="535.177,-40.0696 532.58,-29.798 528.205,-39.4472 535.177,-40.0696"/>
</g>
<!-- 16 -->
<g id="node29" class="node"><title>16</title>
<ellipse fill="white" stroke="black" cx="557" cy="-84.0833" rx="18.2703" ry="18.2703"/>
<text text-anchor="middle" x="557" y="-81.8833" font-family="Times,serif" font-size="9.00">16</text>
</g>
<!-- &#45;13&#45;&gt;16 -->
<g id="edge1" class="edge"><title>&#45;13&#45;&gt;16</title>
<path fill="none" stroke="green" stroke-width="0.3" d="M536.82,-144.073C539.604,-135.937 544.009,-123.06 547.994,-111.41"/>
<polygon fill="green" stroke="green" stroke-width="0.3" points="551.412,-112.233 551.337,-101.638 544.788,-109.967 551.412,-112.233"/>
</g>
<!-- &#45;14 -->
<g id="node14" class="node"><title>&#45;14</title>
<polygon fill="lightgray" stroke="black" points="595.5,-162.317 566.5,-162.317 566.5,-144.317 595.5,-144.317 595.5,-162.317"/>
<text text-anchor="middle" x="581" y="-151.117" font-family="Times,serif" font-size="9.00">&#45;14</text>
</g>
<!-- &#45;15 -->
<g id="node15" class="node"><title>&#45;15</title>
<polygon fill="lightgray" stroke="black" points="642.5,-162.317 613.5,-162.317 613.5,-144.317 642.5,-144.317 642.5,-162.317"/>
<text text-anchor="middle" x="628" y="-151.117" font-family="Times,serif" font-size="9.00">&#45;15</text>
</g>
<!-- &#45;16 -->
<g id="node16" class="node"><title>&#45;16</title>
<polygon fill="lightgray" stroke="black" points="689.5,-162.317 660.5,-162.317 660.5,-144.317 689.5,-144.317 689.5,-162.317"/>
<text text-anchor="middle" x="675" y="-151.117" font-family="Times,serif" font-size="9.00">&#45;16</text>
</g>
<!-- &#45;17 -->
<g id="node17" class="node"><title>&#45;17</title>
<polygon fill="lightgray" stroke="black" points="736.5,-162.317 707.5,-162.317 707.5,-144.317 736.5,-144.317 736.5,-162.317"/>
<text text-anchor="middle" x="722" y="-151.117" font-family="Times,serif" font-size="9.00">&#45;17</text>
</g>
<!-- &#45;18 -->
<g id="node18" class="node"><title>&#45;18</title>
<polygon fill="lightgray" stroke="black" points="783.5,-162.317 754.5,-162.317 754.5,-144.317 783.5,-144.317 783.5,-162.317"/>
<text text-anchor="middle" x="769" y="-151.117" font-family="Times,serif" font-size="9.00">&#45;18</text>
</g>
<!-- &#45;19 -->
<g id="node19" class="node"><title>&#45;19</title>
<polygon fill="lightgray" stroke="black" points="830.5,-162.317 801.5,-162.317 801.5,-144.317 830.5,-144.317 830.5,-162.317"/>
<text text-anchor="middle" x="816" y="-151.117" font-family="Times,serif" font-size="9.00">&#45;19</text>
</g>
<!-- &#45;20 -->
<g id="node20" class="node"><title>&#45;20</title>
<polygon fill="lightgray" stroke="black" points="877.5,-162.317 848.5,-162.317 848.5,-144.317 877.5,-144.317 877.5,-162.317"/>
<text text-anchor="middle" x="863" y="-151.117" font-family="Times,serif" font-size="9.00">&#45;20</text>
</g>
<!-- &#45;21 -->
<g id="node21" class="node"><title>&#45;21</title>
<polygon fill="lightgray" stroke="black" points="924.5,-162.317 895.5,-162.317 895.5,-144.317 924.5,-144.317 924.5,-162.317"/>
<text text-anchor="middle" x="910" y="-151.117" font-family="Times,serif" font-size="9.00">&#45;21</text>
</g>
<!-- &#45;22 -->
<g id="node22" class="node"><title>&#45;22</title>
<polygon fill="lightgray" stroke="black" points="971.5,-162.317 942.5,-162.317 942.5,-144.317 971.5,-144.317 971.5,-162.317"/>
<text text-anchor="middle" x="957" y="-151.117" font-family="Times,serif" font-size="9.00">&#45;22</text>
</g>
<!-- &#45;23 -->
<g id="node23" class="node"><title>&#45;23</title>
<polygon fill="lightgray" stroke="black" points="1018.5,-162.317 989.5,-162.317 989.5,-144.317 1018.5,-144.317 1018.5,-162.317"/>
<text text-anchor="middle" x="1004" y="-151.117" font-family="Times,serif" font-size="9.00">&#45;23</text>
</g>
<!-- &#45;24 -->
<g id="node24" class="node"><title>&#45;24</title>
<polygon fill="lightgray" stroke="black" points="1065.5,-162.317 1036.5,-162.317 1036.5,-144.317 1065.5,-144.317 1065.5,-162.317"/>
<text text-anchor="middle" x="1051" y="-151.117" font-family="Times,serif" font-size="9.00">&#45;24</text>
</g>
<!-- 0 -->
<g id="node25" class="node"><title>0</title>
<ellipse fill="lightblue" stroke="black" cx="1098" cy="-153.317" rx="14.7" ry="14.7"/>
<text text-anchor="middle" x="1098" y="-151.117" font-family="Times,serif" font-size="9.00">0</text>
</g>
<!-- 3 -->
<g id="node28" class="node"><title>3</title>
<ellipse fill="lightblue" stroke="black" cx="1146" cy="-153.317" rx="14.7" ry="14.7"/>
<text text-anchor="middle" x="1146" y="-151.117" font-family="Times,serif" font-size="9.00">3</text>
</g>
<!-- 16&#45;&gt;2 -->
<g id="edge4" class="edge"><title>16&#45;&gt;2</title>
<path fill="none" stroke="red" stroke-width="3.37745" d="M551.315,-66.4636C548.454,-58.1006 544.941,-47.833 541.829,-38.7364"/>
<polygon fill="red" stroke="red" stroke-width="3.37745" points="545.091,-37.4563 538.542,-29.1275 538.468,-39.7221 545.091,-37.4563"/>
</g>
</g>
</svg>
