<?xml version="1.0" encoding="UTF-8" standalone="no"?>
<!DOCTYPE svg PUBLIC "-//W3C//DTD SVG 1.1//EN"
 "http://www.w3.org/Graphics/SVG/1.1/DTD/svg11.dtd">
<!-- Generated by graphviz version 2.38.0 (20140413.2041)
 -->
<!-- Title: %3 Pages: 1 -->
<svg width="1580pt" height="858pt"
 viewBox="0.00 0.00 1580.33 858.09" xmlns="http://www.w3.org/2000/svg" xmlns:xlink="http://www.w3.org/1999/xlink">
<g id="graph0" class="graph" transform="scale(1 1) rotate(0) translate(4 854.087)">
<title>%3</title>
<polygon fill="white" stroke="none" points="-4,4 -4,-854.087 1576.33,-854.087 1576.33,4 -4,4"/>
<!-- &#45;1 -->
<g id="node1" class="node"><title>&#45;1</title>
<polygon fill="lightgray" stroke="black" points="466.749,-740.356 442.749,-740.356 442.749,-722.356 466.749,-722.356 466.749,-740.356"/>
<text text-anchor="middle" x="454.749" y="-729.156" font-family="Times,serif" font-size="9.00">&#45;1</text>
</g>
<!-- 9931 -->
<g id="node46" class="node"><title>9931</title>
<ellipse fill="white" stroke="black" cx="454.749" cy="-640.202" rx="25" ry="25"/>
<text text-anchor="middle" x="454.749" y="-638.002" font-family="Times,serif" font-size="9.00">9931</text>
</g>
<!-- &#45;1&#45;&gt;9931 -->
<g id="edge7" class="edge"><title>&#45;1&#45;&gt;9931</title>
<path fill="none" stroke="green" stroke-width="1.12603" d="M454.749,-722.128C454.749,-711.49 454.749,-692.306 454.749,-675.286"/>
<polygon fill="green" stroke="green" stroke-width="1.12603" points="458.249,-675.064 454.749,-665.064 451.249,-675.064 458.249,-675.064"/>
</g>
<!-- 5851 -->
<g id="node51" class="node"><title>5851</title>
<ellipse fill="white" stroke="black" cx="307.749" cy="-275.584" rx="25" ry="25"/>
<text text-anchor="middle" x="307.749" y="-273.384" font-family="Times,serif" font-size="9.00">5851</text>
</g>
<!-- &#45;1&#45;&gt;5851 -->
<g id="edge14" class="edge"><title>&#45;1&#45;&gt;5851</title>
<path fill="none" stroke="green" stroke-width="0.953064" d="M442.507,-728.233C416.537,-723.039 355.92,-707.12 326.749,-667.779 295.179,-625.204 307.749,-603.049 307.749,-550.047 307.749,-550.047 307.749,-550.047 307.749,-456.893 307.749,-405.894 307.749,-346.781 307.749,-310.536"/>
<polygon fill="green" stroke="green" stroke-width="0.953064" points="311.249,-310.501 307.749,-300.501 304.249,-310.501 311.249,-310.501"/>
</g>
<!-- 6507 -->
<g id="node56" class="node"><title>6507</title>
<ellipse fill="white" stroke="black" cx="674.749" cy="-549.047" rx="25" ry="25"/>
<text text-anchor="middle" x="674.749" y="-546.847" font-family="Times,serif" font-size="9.00">6507</text>
</g>
<!-- &#45;1&#45;&gt;6507 -->
<g id="edge17" class="edge"><title>&#45;1&#45;&gt;6507</title>
<path fill="none" stroke="red" stroke-width="0.405251" d="M460.977,-722.133C476.702,-701.75 519.959,-647.984 564.749,-612.624 589.193,-593.326 620.293,-576.214 643.183,-564.783"/>
<polygon fill="red" stroke="red" stroke-width="0.405251" points="645.008,-567.786 652.447,-560.242 641.927,-561.5 645.008,-567.786"/>
</g>
<!-- &#45;2 -->
<g id="node2" class="node"><title>&#45;2</title>
<polygon fill="lightgray" stroke="black" points="874.749,-831.51 850.749,-831.51 850.749,-813.51 874.749,-813.51 874.749,-831.51"/>
<text text-anchor="middle" x="862.749" y="-820.31" font-family="Times,serif" font-size="9.00">&#45;2</text>
</g>
<!-- &#45;3 -->
<g id="node3" class="node"><title>&#45;3</title>
<polygon fill="lightgray" stroke="black" points="401.749,-558.047 377.749,-558.047 377.749,-540.047 401.749,-540.047 401.749,-558.047"/>
<text text-anchor="middle" x="389.749" y="-546.847" font-family="Times,serif" font-size="9.00">&#45;3</text>
</g>
<!-- 2197 -->
<g id="node36" class="node"><title>2197</title>
<ellipse fill="white" stroke="black" cx="360.749" cy="-457.893" rx="25" ry="25"/>
<text text-anchor="middle" x="360.749" y="-455.693" font-family="Times,serif" font-size="9.00">2197</text>
</g>
<!-- &#45;3&#45;&gt;2197 -->
<g id="edge45" class="edge"><title>&#45;3&#45;&gt;2197</title>
<path fill="none" stroke="green" stroke-width="0.638429" d="M387.072,-539.82C383.509,-528.865 376.998,-508.848 371.343,-491.464"/>
<polygon fill="green" stroke="green" stroke-width="0.638429" points="374.563,-490.048 368.142,-481.621 367.907,-492.213 374.563,-490.048"/>
</g>
<!-- &#45;4 -->
<g id="node4" class="node"><title>&#45;4</title>
<polygon fill="lightgray" stroke="black" points="916.749,-831.51 892.749,-831.51 892.749,-813.51 916.749,-813.51 916.749,-831.51"/>
<text text-anchor="middle" x="904.749" y="-820.31" font-family="Times,serif" font-size="9.00">&#45;4</text>
</g>
<!-- &#45;5 -->
<g id="node5" class="node"><title>&#45;5</title>
<polygon fill="lightgray" stroke="black" points="832.749,-831.51 808.749,-831.51 808.749,-813.51 832.749,-813.51 832.749,-831.51"/>
<text text-anchor="middle" x="820.749" y="-820.31" font-family="Times,serif" font-size="9.00">&#45;5</text>
</g>
<!-- 2 -->
<g id="node27" class="node"><title>2</title>
<ellipse fill="lightblue" stroke="black" cx="820.749" cy="-731.356" rx="14.7" ry="14.7"/>
<text text-anchor="middle" x="820.749" y="-729.156" font-family="Times,serif" font-size="9.00">2</text>
</g>
<!-- &#45;5&#45;&gt;2 -->
<g id="edge58" class="edge"><title>&#45;5&#45;&gt;2</title>
<path fill="none" stroke="red" stroke-width="0.847948" d="M820.749,-813.283C820.749,-800.526 820.749,-775.482 820.749,-756.615"/>
<polygon fill="red" stroke="red" stroke-width="0.847948" points="824.249,-756.36 820.749,-746.36 817.249,-756.36 824.249,-756.36"/>
</g>
<!-- &#45;6 -->
<g id="node6" class="node"><title>&#45;6</title>
<polygon fill="lightgray" stroke="black" points="36.7487,-466.893 12.7487,-466.893 12.7487,-448.893 36.7487,-448.893 36.7487,-466.893"/>
<text text-anchor="middle" x="24.7487" y="-455.693" font-family="Times,serif" font-size="9.00">&#45;6</text>
</g>
<!-- 4505 -->
<g id="node37" class="node"><title>4505</title>
<ellipse fill="white" stroke="black" cx="24.7487" cy="-366.739" rx="25" ry="25"/>
<text text-anchor="middle" x="24.7487" y="-364.539" font-family="Times,serif" font-size="9.00">4505</text>
</g>
<!-- &#45;6&#45;&gt;4505 -->
<g id="edge31" class="edge"><title>&#45;6&#45;&gt;4505</title>
<path fill="none" stroke="green" stroke-width="0.317927" d="M24.7487,-448.665C24.7487,-438.027 24.7487,-418.843 24.7487,-401.823"/>
<polygon fill="green" stroke="green" stroke-width="0.317927" points="28.2488,-401.601 24.7487,-391.601 21.2488,-401.601 28.2488,-401.601"/>
</g>
<!-- &#45;7 -->
<g id="node7" class="node"><title>&#45;7</title>
<polygon fill="lightgray" stroke="black" points="129.749,-466.893 105.749,-466.893 105.749,-448.893 129.749,-448.893 129.749,-466.893"/>
<text text-anchor="middle" x="117.749" y="-455.693" font-family="Times,serif" font-size="9.00">&#45;7</text>
</g>
<!-- 2831 -->
<g id="node34" class="node"><title>2831</title>
<ellipse fill="white" stroke="black" cx="149.749" cy="-93.2756" rx="25" ry="25"/>
<text text-anchor="middle" x="149.749" y="-91.0756" font-family="Times,serif" font-size="9.00">2831</text>
</g>
<!-- &#45;7&#45;&gt;2831 -->
<g id="edge9" class="edge"><title>&#45;7&#45;&gt;2831</title>
<path fill="none" stroke="red" stroke-width="0.73187" d="M118.272,-448.528C120.517,-413.138 129.765,-272.242 141.749,-156.853 142.719,-147.513 143.936,-137.41 145.127,-128.104"/>
<polygon fill="red" stroke="red" stroke-width="0.73187" points="148.62,-128.386 146.445,-118.017 141.679,-127.479 148.62,-128.386"/>
</g>
<!-- &#45;7&#45;&gt;4505 -->
<g id="edge16" class="edge"><title>&#45;7&#45;&gt;4505</title>
<path fill="none" stroke="red" stroke-width="0.687781" d="M109.166,-448.665C95.828,-435.879 69.6106,-410.745 49.914,-391.863"/>
<polygon fill="red" stroke="red" stroke-width="0.687781" points="52.1011,-389.111 42.4602,-384.718 47.2569,-394.165 52.1011,-389.111"/>
</g>
<!-- 12626 -->
<g id="node50" class="node"><title>12626</title>
<ellipse fill="white" stroke="black" cx="416.749" cy="-366.739" rx="27.6545" ry="27.6545"/>
<text text-anchor="middle" x="416.749" y="-364.539" font-family="Times,serif" font-size="9.00">12626</text>
</g>
<!-- &#45;7&#45;&gt;12626 -->
<g id="edge29" class="edge"><title>&#45;7&#45;&gt;12626</title>
<path fill="none" stroke="green" stroke-width="0.909092" d="M130.158,-450.564C141.928,-444.74 160.221,-436.146 176.749,-430.316 247.115,-405.492 332.185,-385.603 379.812,-375.341"/>
<polygon fill="green" stroke="green" stroke-width="0.909092" points="380.62,-378.748 389.671,-373.24 379.161,-371.901 380.62,-378.748"/>
</g>
<!-- &#45;8 -->
<g id="node8" class="node"><title>&#45;8</title>
<polygon fill="lightgray" stroke="black" points="359.749,-558.047 335.749,-558.047 335.749,-540.047 359.749,-540.047 359.749,-558.047"/>
<text text-anchor="middle" x="347.749" y="-546.847" font-family="Times,serif" font-size="9.00">&#45;8</text>
</g>
<!-- &#45;8&#45;&gt;2197 -->
<g id="edge55" class="edge"><title>&#45;8&#45;&gt;2197</title>
<path fill="none" stroke="green" stroke-width="0.205114" d="M348.948,-539.82C350.5,-529.182 353.297,-509.998 355.779,-492.978"/>
<polygon fill="green" stroke="green" stroke-width="0.205114" points="359.29,-493.156 357.269,-482.755 352.363,-492.146 359.29,-493.156"/>
</g>
<!-- &#45;9 -->
<g id="node9" class="node"><title>&#45;9</title>
<polygon fill="lightgray" stroke="black" points="958.749,-831.51 934.749,-831.51 934.749,-813.51 958.749,-813.51 958.749,-831.51"/>
<text text-anchor="middle" x="946.749" y="-820.31" font-family="Times,serif" font-size="9.00">&#45;9</text>
</g>
<!-- &#45;10 -->
<g id="node10" class="node"><title>&#45;10</title>
<polygon fill="lightgray" stroke="black" points="1006.25,-831.51 977.249,-831.51 977.249,-813.51 1006.25,-813.51 1006.25,-831.51"/>
<text text-anchor="middle" x="991.749" y="-820.31" font-family="Times,serif" font-size="9.00">&#45;10</text>
</g>
<!-- &#45;11 -->
<g id="node11" class="node"><title>&#45;11</title>
<polygon fill="lightgray" stroke="black" points="1053.25,-831.51 1024.25,-831.51 1024.25,-813.51 1053.25,-813.51 1053.25,-831.51"/>
<text text-anchor="middle" x="1038.75" y="-820.31" font-family="Times,serif" font-size="9.00">&#45;11</text>
</g>
<!-- &#45;12 -->
<g id="node12" class="node"><title>&#45;12</title>
<polygon fill="lightgray" stroke="black" points="265.249,-284.584 236.249,-284.584 236.249,-266.584 265.249,-266.584 265.249,-284.584"/>
<text text-anchor="middle" x="250.749" y="-273.384" font-family="Times,serif" font-size="9.00">&#45;12</text>
</g>
<!-- 6074 -->
<g id="node42" class="node"><title>6074</title>
<ellipse fill="white" stroke="black" cx="250.749" cy="-184.43" rx="25" ry="25"/>
<text text-anchor="middle" x="250.749" y="-182.23" font-family="Times,serif" font-size="9.00">6074</text>
</g>
<!-- &#45;12&#45;&gt;6074 -->
<g id="edge26" class="edge"><title>&#45;12&#45;&gt;6074</title>
<path fill="none" stroke="green" stroke-width="0.552864" d="M250.749,-266.357C250.749,-255.719 250.749,-236.535 250.749,-219.515"/>
<polygon fill="green" stroke="green" stroke-width="0.552864" points="254.249,-219.292 250.749,-209.292 247.249,-219.292 254.249,-219.292"/>
</g>
<!-- &#45;13 -->
<g id="node13" class="node"><title>&#45;13</title>
<polygon fill="lightgray" stroke="black" points="1100.25,-831.51 1071.25,-831.51 1071.25,-813.51 1100.25,-813.51 1100.25,-831.51"/>
<text text-anchor="middle" x="1085.75" y="-820.31" font-family="Times,serif" font-size="9.00">&#45;13</text>
</g>
<!-- &#45;14 -->
<g id="node14" class="node"><title>&#45;14</title>
<polygon fill="lightgray" stroke="black" points="403.249,-831.51 374.249,-831.51 374.249,-813.51 403.249,-813.51 403.249,-831.51"/>
<text text-anchor="middle" x="388.749" y="-820.31" font-family="Times,serif" font-size="9.00">&#45;14</text>
</g>
<!-- 23047 -->
<g id="node31" class="node"><title>23047</title>
<ellipse fill="white" stroke="black" cx="563.749" cy="-731.356" rx="27.6545" ry="27.6545"/>
<text text-anchor="middle" x="563.749" y="-729.156" font-family="Times,serif" font-size="9.00">23047</text>
</g>
<!-- &#45;14&#45;&gt;23047 -->
<g id="edge54" class="edge"><title>&#45;14&#45;&gt;23047</title>
<path fill="none" stroke="green" stroke-width="0.31121" d="M403.409,-815.327C428.232,-804.701 479.916,-781.894 521.749,-758.933 525.224,-757.026 528.804,-754.947 532.34,-752.82"/>
<polygon fill="green" stroke="green" stroke-width="0.31121" points="534.282,-755.735 540.952,-747.504 530.604,-749.778 534.282,-755.735"/>
</g>
<!-- 18570 -->
<g id="node32" class="node"><title>18570</title>
<ellipse fill="white" stroke="black" cx="127.749" cy="-731.356" rx="27.6545" ry="27.6545"/>
<text text-anchor="middle" x="127.749" y="-729.156" font-family="Times,serif" font-size="9.00">18570</text>
</g>
<!-- &#45;14&#45;&gt;18570 -->
<g id="edge49" class="edge"><title>&#45;14&#45;&gt;18570</title>
<path fill="none" stroke="green" stroke-width="0.409894" d="M374.16,-818.846C338.255,-811.972 243.183,-791.837 169.749,-758.933 166.131,-757.312 162.46,-755.417 158.87,-753.399"/>
<polygon fill="green" stroke="green" stroke-width="0.409894" points="160.572,-750.339 150.193,-748.213 156.981,-756.347 160.572,-750.339"/>
</g>
<!-- 17575 -->
<g id="node39" class="node"><title>17575</title>
<ellipse fill="white" stroke="black" cx="178.749" cy="-184.43" rx="27.6545" ry="27.6545"/>
<text text-anchor="middle" x="178.749" y="-182.23" font-family="Times,serif" font-size="9.00">17575</text>
</g>
<!-- &#45;14&#45;&gt;17575 -->
<g id="edge28" class="edge"><title>&#45;14&#45;&gt;17575</title>
<path fill="none" stroke="red" stroke-width="0.46476" d="M378.188,-813.436C349.065,-790.164 269.749,-719.59 269.749,-641.202 269.749,-641.202 269.749,-641.202 269.749,-456.893 269.749,-409.357 218.951,-281.318 193.261,-219.605"/>
<polygon fill="red" stroke="red" stroke-width="0.46476" points="196.454,-218.167 189.366,-210.292 189.996,-220.868 196.454,-218.167"/>
</g>
<!-- 13885 -->
<g id="node43" class="node"><title>13885</title>
<ellipse fill="white" stroke="black" cx="601.749" cy="-640.202" rx="27.6545" ry="27.6545"/>
<text text-anchor="middle" x="601.749" y="-638.002" font-family="Times,serif" font-size="9.00">13885</text>
</g>
<!-- &#45;14&#45;&gt;13885 -->
<g id="edge30" class="edge"><title>&#45;14&#45;&gt;13885</title>
<path fill="none" stroke="red" stroke-width="0.301249" d="M403.524,-819.432C447.551,-812.91 576.314,-791.335 600.749,-758.933 618.164,-735.84 616.632,-702.305 611.778,-676.928"/>
<polygon fill="red" stroke="red" stroke-width="0.301249" points="615.156,-675.988 609.624,-666.952 608.314,-677.466 615.156,-675.988"/>
</g>
<!-- 12003 -->
<g id="node53" class="node"><title>12003</title>
<ellipse fill="white" stroke="black" cx="558.749" cy="-549.047" rx="27.6545" ry="27.6545"/>
<text text-anchor="middle" x="558.749" y="-546.847" font-family="Times,serif" font-size="9.00">12003</text>
</g>
<!-- &#45;14&#45;&gt;12003 -->
<g id="edge12" class="edge"><title>&#45;14&#45;&gt;12003</title>
<path fill="none" stroke="green" stroke-width="0.183497" d="M403.35,-814.389C422.416,-804.418 455.716,-784.6 475.749,-758.933 516.957,-706.136 540.217,-630.242 551.073,-585.953"/>
<polygon fill="green" stroke="green" stroke-width="0.183497" points="554.483,-586.743 553.387,-576.205 547.672,-585.126 554.483,-586.743"/>
</g>
<!-- 10861 -->
<g id="node58" class="node"><title>10861</title>
<ellipse fill="white" stroke="black" cx="198.749" cy="-549.047" rx="27.6545" ry="27.6545"/>
<text text-anchor="middle" x="198.749" y="-546.847" font-family="Times,serif" font-size="9.00">10861</text>
</g>
<!-- &#45;14&#45;&gt;10861 -->
<g id="edge5" class="edge"><title>&#45;14&#45;&gt;10861</title>
<path fill="none" stroke="red" stroke-width="1.23596" d="M373.913,-817.71C347.439,-810.297 291.489,-791.696 255.749,-758.933 221.204,-727.266 215.714,-712.813 202.749,-667.779 195.193,-641.533 194.432,-610.631 195.432,-587.074"/>
<polygon fill="red" stroke="red" stroke-width="1.23596" points="198.942,-586.987 195.998,-576.81 191.953,-586.602 198.942,-586.987"/>
</g>
<!-- &#45;15 -->
<g id="node15" class="node"><title>&#45;15</title>
<polygon fill="lightgray" stroke="black" points="412.249,-649.202 383.249,-649.202 383.249,-631.202 412.249,-631.202 412.249,-649.202"/>
<text text-anchor="middle" x="397.749" y="-638.002" font-family="Times,serif" font-size="9.00">&#45;15</text>
</g>
<!-- &#45;15&#45;&gt;12003 -->
<g id="edge25" class="edge"><title>&#45;15&#45;&gt;12003</title>
<path fill="none" stroke="red" stroke-width="0.479449" d="M403.11,-630.988C407.296,-625.149 413.589,-617.505 420.749,-612.624 460.47,-585.545 480.278,-599.148 522.749,-576.624 524.971,-575.446 527.206,-574.141 529.417,-572.759"/>
<polygon fill="red" stroke="red" stroke-width="0.479449" points="531.392,-575.649 537.735,-567.162 527.484,-569.841 531.392,-575.649"/>
</g>
<!-- &#45;16 -->
<g id="node16" class="node"><title>&#45;16</title>
<polygon fill="lightgray" stroke="black" points="1147.25,-831.51 1118.25,-831.51 1118.25,-813.51 1147.25,-813.51 1147.25,-831.51"/>
<text text-anchor="middle" x="1132.75" y="-820.31" font-family="Times,serif" font-size="9.00">&#45;16</text>
</g>
<!-- &#45;17 -->
<g id="node17" class="node"><title>&#45;17</title>
<polygon fill="lightgray" stroke="black" points="432.249,-466.893 403.249,-466.893 403.249,-448.893 432.249,-448.893 432.249,-466.893"/>
<text text-anchor="middle" x="417.749" y="-455.693" font-family="Times,serif" font-size="9.00">&#45;17</text>
</g>
<!-- &#45;17&#45;&gt;12626 -->
<g id="edge57" class="edge"><title>&#45;17&#45;&gt;12626</title>
<path fill="none" stroke="red" stroke-width="0.237112" d="M417.656,-448.665C417.545,-438.693 417.349,-421.212 417.167,-405.043"/>
<polygon fill="red" stroke="red" stroke-width="0.237112" points="420.663,-404.66 417.051,-394.7 413.664,-404.738 420.663,-404.66"/>
</g>
<!-- &#45;18 -->
<g id="node18" class="node"><title>&#45;18</title>
<polygon fill="lightgray" stroke="black" points="1194.25,-831.51 1165.25,-831.51 1165.25,-813.51 1194.25,-813.51 1194.25,-831.51"/>
<text text-anchor="middle" x="1179.75" y="-820.31" font-family="Times,serif" font-size="9.00">&#45;18</text>
</g>
<!-- &#45;19 -->
<g id="node19" class="node"><title>&#45;19</title>
<polygon fill="lightgray" stroke="black" points="1241.25,-831.51 1212.25,-831.51 1212.25,-813.51 1241.25,-813.51 1241.25,-831.51"/>
<text text-anchor="middle" x="1226.75" y="-820.31" font-family="Times,serif" font-size="9.00">&#45;19</text>
</g>
<!-- &#45;20 -->
<g id="node20" class="node"><title>&#45;20</title>
<polygon fill="lightgray" stroke="black" points="365.249,-649.202 336.249,-649.202 336.249,-631.202 365.249,-631.202 365.249,-649.202"/>
<text text-anchor="middle" x="350.749" y="-638.002" font-family="Times,serif" font-size="9.00">&#45;20</text>
</g>
<!-- 21223 -->
<g id="node54" class="node"><title>21223</title>
<ellipse fill="white" stroke="black" cx="485.749" cy="-549.047" rx="27.6545" ry="27.6545"/>
<text text-anchor="middle" x="485.749" y="-546.847" font-family="Times,serif" font-size="9.00">21223</text>
</g>
<!-- &#45;20&#45;&gt;21223 -->
<g id="edge51" class="edge"><title>&#45;20&#45;&gt;21223</title>
<path fill="none" stroke="green" stroke-width="0.436304" d="M356.499,-631.028C360.784,-625.358 367.033,-617.904 373.749,-612.624 401.252,-591.004 413.382,-593.995 443.749,-576.624 447.189,-574.656 450.748,-572.539 454.271,-570.389"/>
<polygon fill="green" stroke="green" stroke-width="0.436304" points="456.223,-573.296 462.868,-565.044 452.527,-567.351 456.223,-573.296"/>
</g>
<!-- 9704 -->
<g id="node55" class="node"><title>9704</title>
<ellipse fill="white" stroke="black" cx="479.749" cy="-457.893" rx="25" ry="25"/>
<text text-anchor="middle" x="479.749" y="-455.693" font-family="Times,serif" font-size="9.00">9704</text>
</g>
<!-- &#45;20&#45;&gt;9704 -->
<g id="edge32" class="edge"><title>&#45;20&#45;&gt;9704</title>
<path fill="none" stroke="green" stroke-width="1.57984" d="M357.418,-631.136C361.919,-625.785 368.054,-618.661 373.749,-612.624 389.492,-595.935 396.598,-594.685 410.749,-576.624 432.291,-549.131 451.905,-514.258 464.667,-489.623"/>
<polygon fill="green" stroke="green" stroke-width="1.57984" points="467.949,-490.894 469.376,-480.395 461.713,-487.712 467.949,-490.894"/>
</g>
<!-- &#45;20&#45;&gt;10861 -->
<g id="edge15" class="edge"><title>&#45;20&#45;&gt;10861</title>
<path fill="none" stroke="red" stroke-width="0.692034" d="M336.992,-631.133C313.211,-617.184 263.818,-588.213 230.974,-568.948"/>
<polygon fill="red" stroke="red" stroke-width="0.692034" points="232.58,-565.833 222.184,-563.793 229.039,-571.871 232.58,-565.833"/>
</g>
<!-- &#45;21 -->
<g id="node21" class="node"><title>&#45;21</title>
<polygon fill="lightgray" stroke="black" points="1288.25,-831.51 1259.25,-831.51 1259.25,-813.51 1288.25,-813.51 1288.25,-831.51"/>
<text text-anchor="middle" x="1273.75" y="-820.31" font-family="Times,serif" font-size="9.00">&#45;21</text>
</g>
<!-- &#45;22 -->
<g id="node22" class="node"><title>&#45;22</title>
<polygon fill="lightgray" stroke="black" points="1335.25,-831.51 1306.25,-831.51 1306.25,-813.51 1335.25,-813.51 1335.25,-831.51"/>
<text text-anchor="middle" x="1320.75" y="-820.31" font-family="Times,serif" font-size="9.00">&#45;22</text>
</g>
<!-- &#45;23 -->
<g id="node23" class="node"><title>&#45;23</title>
<polygon fill="lightgray" stroke="black" points="241.249,-649.202 212.249,-649.202 212.249,-631.202 241.249,-631.202 241.249,-649.202"/>
<text text-anchor="middle" x="226.749" y="-638.002" font-family="Times,serif" font-size="9.00">&#45;23</text>
</g>
<!-- &#45;23&#45;&gt;10861 -->
<g id="edge56" class="edge"><title>&#45;23&#45;&gt;10861</title>
<path fill="none" stroke="green" stroke-width="1.2349" d="M224.165,-630.974C220.883,-620.524 215.011,-601.827 209.737,-585.036"/>
<polygon fill="green" stroke="green" stroke-width="1.2349" points="213.061,-583.938 206.726,-575.446 206.383,-586.036 213.061,-583.938"/>
</g>
<!-- &#45;24 -->
<g id="node24" class="node"><title>&#45;24</title>
<polygon fill="lightgray" stroke="black" points="1382.25,-831.51 1353.25,-831.51 1353.25,-813.51 1382.25,-813.51 1382.25,-831.51"/>
<text text-anchor="middle" x="1367.75" y="-820.31" font-family="Times,serif" font-size="9.00">&#45;24</text>
</g>
<!-- 17721 -->
<g id="node41" class="node"><title>17721</title>
<ellipse fill="white" stroke="black" cx="1367.75" cy="-731.356" rx="27.6545" ry="27.6545"/>
<text text-anchor="middle" x="1367.75" y="-729.156" font-family="Times,serif" font-size="9.00">17721</text>
</g>
<!-- &#45;24&#45;&gt;17721 -->
<g id="edge1" class="edge"><title>&#45;24&#45;&gt;17721</title>
<path fill="none" stroke="green" stroke-width="0.646386" d="M1367.75,-813.283C1367.75,-803.311 1367.75,-785.83 1367.75,-769.661"/>
<polygon fill="green" stroke="green" stroke-width="0.646386" points="1371.25,-769.317 1367.75,-759.317 1364.25,-769.317 1371.25,-769.317"/>
</g>
<!-- 0 -->
<g id="node25" class="node"><title>0</title>
<ellipse fill="lightblue" stroke="black" cx="1414.75" cy="-822.51" rx="14.7" ry="14.7"/>
<text text-anchor="middle" x="1414.75" y="-820.31" font-family="Times,serif" font-size="9.00">0</text>
</g>
<!-- 1 -->
<g id="node26" class="node"><title>1</title>
<ellipse fill="lightblue" stroke="black" cx="269.749" cy="-14.8492" rx="14.7" ry="14.7"/>
<text text-anchor="middle" x="269.749" y="-12.6492" font-family="Times,serif" font-size="9.00">1</text>
</g>
<!-- 21821 -->
<g id="node44" class="node"><title>21821</title>
<ellipse fill="white" stroke="black" cx="820.749" cy="-640.202" rx="27.6545" ry="27.6545"/>
<text text-anchor="middle" x="820.749" y="-638.002" font-family="Times,serif" font-size="9.00">21821</text>
</g>
<!-- 2&#45;&gt;21821 -->
<g id="edge27" class="edge"><title>2&#45;&gt;21821</title>
<path fill="none" stroke="green" stroke-width="0.303111" d="M820.749,-716.426C820.749,-706.123 820.749,-691.586 820.749,-678.035"/>
<polygon fill="green" stroke="green" stroke-width="0.303111" points="824.249,-677.951 820.749,-667.951 817.249,-677.951 824.249,-677.951"/>
</g>
<!-- 3 -->
<g id="node28" class="node"><title>3</title>
<ellipse fill="lightblue" stroke="black" cx="1474.75" cy="-731.356" rx="14.7" ry="14.7"/>
<text text-anchor="middle" x="1474.75" y="-729.156" font-family="Times,serif" font-size="9.00">3</text>
</g>
<!-- 19847 -->
<g id="node29" class="node"><title>19847</title>
<ellipse fill="white" stroke="black" cx="213.749" cy="-457.893" rx="27.6545" ry="27.6545"/>
<text text-anchor="middle" x="213.749" y="-455.693" font-family="Times,serif" font-size="9.00">19847</text>
</g>
<!-- 14355 -->
<g id="node35" class="node"><title>14355</title>
<ellipse fill="white" stroke="black" cx="195.749" cy="-366.739" rx="27.6545" ry="27.6545"/>
<text text-anchor="middle" x="195.749" y="-364.539" font-family="Times,serif" font-size="9.00">14355</text>
</g>
<!-- 19847&#45;&gt;14355 -->
<g id="edge44" class="edge"><title>19847&#45;&gt;14355</title>
<path fill="none" stroke="red" stroke-width="0.47498" d="M208.445,-430.626C206.743,-422.192 204.826,-412.699 203.008,-403.695"/>
<polygon fill="red" stroke="red" stroke-width="0.47498" points="206.424,-402.927 201.014,-393.818 199.562,-404.313 206.424,-402.927"/>
</g>
<!-- 14216 -->
<g id="node30" class="node"><title>14216</title>
<ellipse fill="white" stroke="black" cx="527.749" cy="-93.2756" rx="27.6545" ry="27.6545"/>
<text text-anchor="middle" x="527.749" y="-91.0756" font-family="Times,serif" font-size="9.00">14216</text>
</g>
<!-- 23047&#45;&gt;13885 -->
<g id="edge59" class="edge"><title>23047&#45;&gt;13885</title>
<path fill="none" stroke="green" stroke-width="0.113219" d="M574.334,-705.522C578.328,-696.151 582.944,-685.321 587.236,-675.252"/>
<polygon fill="green" stroke="green" stroke-width="0.113219" points="590.519,-676.474 591.22,-665.903 584.08,-673.73 590.519,-676.474"/>
</g>
<!-- 20575 -->
<g id="node52" class="node"><title>20575</title>
<ellipse fill="white" stroke="black" cx="127.749" cy="-640.202" rx="27.6545" ry="27.6545"/>
<text text-anchor="middle" x="127.749" y="-638.002" font-family="Times,serif" font-size="9.00">20575</text>
</g>
<!-- 18570&#45;&gt;20575 -->
<g id="edge33" class="edge"><title>18570&#45;&gt;20575</title>
<path fill="none" stroke="green" stroke-width="0.436979" d="M127.749,-703.607C127.749,-695.584 127.749,-686.64 127.749,-678.085"/>
<polygon fill="green" stroke="green" stroke-width="0.436979" points="131.249,-677.932 127.749,-667.932 124.249,-677.932 131.249,-677.932"/>
</g>
<!-- 16141 -->
<g id="node33" class="node"><title>16141</title>
<ellipse fill="white" stroke="black" cx="1474.75" cy="-822.51" rx="27.6545" ry="27.6545"/>
<text text-anchor="middle" x="1474.75" y="-820.31" font-family="Times,serif" font-size="9.00">16141</text>
</g>
<!-- 16141&#45;&gt;3 -->
<g id="edge40" class="edge"><title>16141&#45;&gt;3</title>
<path fill="none" stroke="green" stroke-width="0.369945" d="M1474.75,-794.761C1474.75,-782.587 1474.75,-768.29 1474.75,-756.454"/>
<polygon fill="green" stroke="green" stroke-width="0.369945" points="1478.25,-756.407 1474.75,-746.407 1471.25,-756.407 1478.25,-756.407"/>
</g>
<!-- 2831&#45;&gt;1 -->
<g id="edge6" class="edge"><title>2831&#45;&gt;1</title>
<path fill="none" stroke="red" stroke-width="0.362075" d="M170.377,-79.1375C192.307,-65.1709 226.799,-43.2032 248.836,-29.1681"/>
<polygon fill="red" stroke="red" stroke-width="0.362075" points="250.891,-32.0092 257.445,-23.6852 247.13,-26.105 250.891,-32.0092"/>
</g>
<!-- 2197&#45;&gt;1 -->
<g id="edge41" class="edge"><title>2197&#45;&gt;1</title>
<path fill="none" stroke="green" stroke-width="0.861732" d="M360.749,-432.977C360.749,-398.446 360.749,-332.618 360.749,-276.584 360.749,-276.584 360.749,-276.584 360.749,-183.43 360.749,-122.262 313.348,-62.096 286.967,-33.3476"/>
<polygon fill="green" stroke="green" stroke-width="0.861732" points="289.241,-30.6576 279.835,-25.7818 284.148,-35.4592 289.241,-30.6576"/>
</g>
<!-- 2197&#45;&gt;12626 -->
<g id="edge10" class="edge"><title>2197&#45;&gt;12626</title>
<path fill="none" stroke="green" stroke-width="1.27641" d="M373.737,-436.215C380.653,-425.205 389.304,-411.432 397.03,-399.132"/>
<polygon fill="green" stroke="green" stroke-width="1.27641" points="400.099,-400.825 402.455,-390.496 394.172,-397.102 400.099,-400.825"/>
</g>
<!-- 4505&#45;&gt;2831 -->
<g id="edge22" class="edge"><title>4505&#45;&gt;2831</title>
<path fill="none" stroke="red" stroke-width="0.83766" d="M23.7045,-341.767C23.0451,-300.662 26.7217,-215.498 63.7487,-156.853 76.8796,-136.055 99.6293,-119.959 118.433,-109.302"/>
<polygon fill="red" stroke="red" stroke-width="0.83766" points="120.158,-112.348 127.287,-104.51 116.827,-106.191 120.158,-112.348"/>
</g>
<!-- 7718 -->
<g id="node38" class="node"><title>7718</title>
<ellipse fill="white" stroke="black" cx="1544.75" cy="-822.51" rx="25" ry="25"/>
<text text-anchor="middle" x="1544.75" y="-820.31" font-family="Times,serif" font-size="9.00">7718</text>
</g>
<!-- 12339 -->
<g id="node40" class="node"><title>12339</title>
<ellipse fill="white" stroke="black" cx="1544.75" cy="-731.356" rx="27.6545" ry="27.6545"/>
<text text-anchor="middle" x="1544.75" y="-729.156" font-family="Times,serif" font-size="9.00">12339</text>
</g>
<!-- 7718&#45;&gt;12339 -->
<g id="edge38" class="edge"><title>7718&#45;&gt;12339</title>
<path fill="none" stroke="green" stroke-width="0.110921" d="M1544.75,-797.619C1544.75,-788.906 1544.75,-778.84 1544.75,-769.261"/>
<polygon fill="green" stroke="green" stroke-width="0.110921" points="1548.25,-769.145 1544.75,-759.145 1541.25,-769.145 1548.25,-769.145"/>
</g>
<!-- 17575&#45;&gt;2831 -->
<g id="edge21" class="edge"><title>17575&#45;&gt;2831</title>
<path fill="none" stroke="red" stroke-width="0.132402" d="M170.361,-157.643C167.224,-148 163.621,-136.922 160.313,-126.753"/>
<polygon fill="red" stroke="red" stroke-width="0.132402" points="163.553,-125.4 157.132,-116.973 156.897,-127.565 163.553,-125.4"/>
</g>
<!-- 10705 -->
<g id="node49" class="node"><title>10705</title>
<ellipse fill="white" stroke="black" cx="1367.75" cy="-640.202" rx="27.6545" ry="27.6545"/>
<text text-anchor="middle" x="1367.75" y="-638.002" font-family="Times,serif" font-size="9.00">10705</text>
</g>
<!-- 17721&#45;&gt;10705 -->
<g id="edge50" class="edge"><title>17721&#45;&gt;10705</title>
<path fill="none" stroke="green" stroke-width="0.694092" d="M1367.75,-703.607C1367.75,-695.584 1367.75,-686.64 1367.75,-678.085"/>
<polygon fill="green" stroke="green" stroke-width="0.694092" points="1371.25,-677.932 1367.75,-667.932 1364.25,-677.932 1371.25,-677.932"/>
</g>
<!-- 6074&#45;&gt;2831 -->
<g id="edge20" class="edge"><title>6074&#45;&gt;2831</title>
<path fill="none" stroke="green" stroke-width="0.514161" d="M232.692,-167.491C216.848,-153.505 193.615,-132.998 175.766,-117.242"/>
<polygon fill="green" stroke="green" stroke-width="0.514161" points="177.803,-114.371 167.99,-110.377 173.171,-119.619 177.803,-114.371"/>
</g>
<!-- 13885&#45;&gt;12003 -->
<g id="edge46" class="edge"><title>13885&#45;&gt;12003</title>
<path fill="none" stroke="green" stroke-width="0.803004" d="M589.999,-614.84C585.353,-605.208 579.938,-593.98 574.932,-583.601"/>
<polygon fill="green" stroke="green" stroke-width="0.803004" points="577.981,-581.866 570.484,-574.38 571.676,-584.907 577.981,-581.866"/>
</g>
<!-- 21821&#45;&gt;6507 -->
<g id="edge24" class="edge"><title>21821&#45;&gt;6507</title>
<path fill="none" stroke="red" stroke-width="0.677911" d="M799.342,-622.755C794.609,-619.301 789.568,-615.759 784.749,-612.624 758.64,-595.646 727.719,-578.284 705.32,-566.169"/>
<polygon fill="red" stroke="red" stroke-width="0.677911" points="706.747,-562.962 696.281,-561.314 703.435,-569.129 706.747,-562.962"/>
</g>
<!-- 16194 -->
<g id="node45" class="node"><title>16194</title>
<ellipse fill="white" stroke="black" cx="674.749" cy="-640.202" rx="27.6545" ry="27.6545"/>
<text text-anchor="middle" x="674.749" y="-638.002" font-family="Times,serif" font-size="9.00">16194</text>
</g>
<!-- 16194&#45;&gt;6507 -->
<g id="edge23" class="edge"><title>16194&#45;&gt;6507</title>
<path fill="none" stroke="red" stroke-width="1.26642" d="M674.749,-612.452C674.749,-603.583 674.749,-593.586 674.749,-584.236"/>
<polygon fill="red" stroke="red" stroke-width="1.26642" points="678.249,-584.047 674.749,-574.047 671.249,-584.047 678.249,-584.047"/>
</g>
<!-- 9931&#45;&gt;21223 -->
<g id="edge2" class="edge"><title>9931&#45;&gt;21223</title>
<path fill="none" stroke="green" stroke-width="0.410737" d="M462.571,-616.704C465.922,-607.068 469.913,-595.589 473.631,-584.896"/>
<polygon fill="green" stroke="green" stroke-width="0.410737" points="476.965,-585.967 476.943,-575.372 470.353,-583.668 476.965,-585.967"/>
</g>
<!-- 9931&#45;&gt;6507 -->
<g id="edge13" class="edge"><title>9931&#45;&gt;6507</title>
<path fill="none" stroke="red" stroke-width="0.23431" d="M477.464,-629.996C516.842,-614.039 597.869,-581.203 642.865,-562.968"/>
<polygon fill="red" stroke="red" stroke-width="0.23431" points="644.204,-566.202 652.157,-559.202 641.575,-559.715 644.204,-566.202"/>
</g>
<!-- 16590 -->
<g id="node47" class="node"><title>16590</title>
<ellipse fill="white" stroke="black" cx="747.749" cy="-640.202" rx="27.6545" ry="27.6545"/>
<text text-anchor="middle" x="747.749" y="-638.002" font-family="Times,serif" font-size="9.00">16590</text>
</g>
<!-- 16590&#45;&gt;6507 -->
<g id="edge34" class="edge"><title>16590&#45;&gt;6507</title>
<path fill="none" stroke="red" stroke-width="0.513611" d="M730.449,-618.073C720.253,-605.622 707.264,-589.758 696.394,-576.482"/>
<polygon fill="red" stroke="red" stroke-width="0.513611" points="698.987,-574.125 689.944,-568.605 693.571,-578.559 698.987,-574.125"/>
</g>
<!-- 13519 -->
<g id="node48" class="node"><title>13519</title>
<ellipse fill="white" stroke="black" cx="454.749" cy="-184.43" rx="27.6545" ry="27.6545"/>
<text text-anchor="middle" x="454.749" y="-182.23" font-family="Times,serif" font-size="9.00">13519</text>
</g>
<!-- 13519&#45;&gt;14216 -->
<g id="edge53" class="edge"><title>13519&#45;&gt;14216</title>
<path fill="none" stroke="green" stroke-width="0.337057" d="M472.049,-162.302C481.595,-150.643 493.59,-135.994 504.001,-123.278"/>
<polygon fill="green" stroke="green" stroke-width="0.337057" points="506.946,-125.207 510.573,-115.252 501.53,-120.772 506.946,-125.207"/>
</g>
<!-- 12626&#45;&gt;13519 -->
<g id="edge4" class="edge"><title>12626&#45;&gt;13519</title>
<path fill="none" stroke="red" stroke-width="0.910539" d="M413.082,-339.005C410.666,-314.778 409.315,-278.334 417.749,-248.007 420.907,-236.649 426.687,-225.249 432.754,-215.349"/>
<polygon fill="red" stroke="red" stroke-width="0.910539" points="435.842,-217.019 438.34,-206.723 429.966,-213.214 435.842,-217.019"/>
</g>
<!-- 12626&#45;&gt;5851 -->
<g id="edge43" class="edge"><title>12626&#45;&gt;5851</title>
<path fill="none" stroke="red" stroke-width="0.450215" d="M395.732,-348.549C378.272,-334.268 353.327,-313.864 334.453,-298.427"/>
<polygon fill="red" stroke="red" stroke-width="0.450215" points="336.474,-295.558 326.518,-291.936 332.042,-300.976 336.474,-295.558"/>
</g>
<!-- 21996 -->
<g id="node57" class="node"><title>21996</title>
<ellipse fill="white" stroke="black" cx="454.749" cy="-275.584" rx="27.6545" ry="27.6545"/>
<text text-anchor="middle" x="454.749" y="-273.384" font-family="Times,serif" font-size="9.00">21996</text>
</g>
<!-- 12626&#45;&gt;21996 -->
<g id="edge3" class="edge"><title>12626&#45;&gt;21996</title>
<path fill="none" stroke="green" stroke-width="0.376701" d="M427.334,-340.904C431.328,-331.533 435.944,-320.704 440.236,-310.634"/>
<polygon fill="green" stroke="green" stroke-width="0.376701" points="443.519,-311.857 444.22,-301.286 437.08,-309.112 443.519,-311.857"/>
</g>
<!-- 5851&#45;&gt;6074 -->
<g id="edge39" class="edge"><title>5851&#45;&gt;6074</title>
<path fill="none" stroke="green" stroke-width="0.460406" d="M294.815,-254.354C287.235,-242.499 277.537,-227.33 269.17,-214.242"/>
<polygon fill="green" stroke="green" stroke-width="0.460406" points="271.967,-212.12 263.632,-205.58 266.07,-215.891 271.967,-212.12"/>
</g>
<!-- 12003&#45;&gt;14216 -->
<g id="edge48" class="edge"><title>12003&#45;&gt;14216</title>
<path fill="none" stroke="green" stroke-width="0.590643" d="M564.673,-521.927C572.066,-486.995 583.749,-423.044 583.749,-367.739 583.749,-367.739 583.749,-367.739 583.749,-274.584 583.749,-221.253 561.128,-162.879 544.641,-127.414"/>
<polygon fill="green" stroke="green" stroke-width="0.590643" points="547.637,-125.566 540.177,-118.042 541.317,-128.576 547.637,-125.566"/>
</g>
<!-- 12003&#45;&gt;9704 -->
<g id="edge11" class="edge"><title>12003&#45;&gt;9704</title>
<path fill="none" stroke="red" stroke-width="0.660191" d="M540.822,-527.817C529.482,-515.019 514.719,-498.358 502.549,-484.624"/>
<polygon fill="red" stroke="red" stroke-width="0.660191" points="504.98,-482.09 495.728,-476.926 499.741,-486.732 504.98,-482.09"/>
</g>
<!-- 21223&#45;&gt;9704 -->
<g id="edge47" class="edge"><title>21223&#45;&gt;9704</title>
<path fill="none" stroke="green" stroke-width="0.791898" d="M483.949,-521.298C483.347,-512.354 482.668,-502.264 482.034,-492.846"/>
<polygon fill="green" stroke="green" stroke-width="0.791898" points="485.507,-492.337 481.344,-482.594 478.523,-492.807 485.507,-492.337"/>
</g>
<!-- 9704&#45;&gt;12626 -->
<g id="edge36" class="edge"><title>9704&#45;&gt;12626</title>
<path fill="none" stroke="green" stroke-width="0.389894" d="M465.767,-437.107C457.619,-425.576 447.178,-410.801 438.028,-397.852"/>
<polygon fill="green" stroke="green" stroke-width="0.389894" points="440.868,-395.806 432.238,-389.659 435.151,-399.845 440.868,-395.806"/>
</g>
<!-- 9704&#45;&gt;5851 -->
<g id="edge37" class="edge"><title>9704&#45;&gt;5851</title>
<path fill="none" stroke="red" stroke-width="0.647506" d="M480.579,-432.924C480.21,-406.982 475.776,-365.763 453.749,-339.161 425.616,-305.186 375.641,-289.238 342.101,-282.053"/>
<polygon fill="red" stroke="red" stroke-width="0.647506" points="342.754,-278.614 332.263,-280.094 341.387,-285.48 342.754,-278.614"/>
</g>
<!-- 22512 -->
<g id="node59" class="node"><title>22512</title>
<ellipse fill="white" stroke="black" cx="527.749" cy="-275.584" rx="27.6545" ry="27.6545"/>
<text text-anchor="middle" x="527.749" y="-273.384" font-family="Times,serif" font-size="9.00">22512</text>
</g>
<!-- 9704&#45;&gt;22512 -->
<g id="edge19" class="edge"><title>9704&#45;&gt;22512</title>
<path fill="none" stroke="green" stroke-width="0.158715" d="M485.926,-433.69C494.107,-402.958 508.618,-348.447 518.212,-312.409"/>
<polygon fill="green" stroke="green" stroke-width="0.158715" points="521.708,-312.881 520.898,-302.317 514.944,-311.08 521.708,-312.881"/>
</g>
<!-- 21996&#45;&gt;13519 -->
<g id="edge35" class="edge"><title>21996&#45;&gt;13519</title>
<path fill="none" stroke="green" stroke-width="0.929419" d="M454.749,-247.835C454.749,-239.813 454.749,-230.868 454.749,-222.314"/>
<polygon fill="green" stroke="green" stroke-width="0.929419" points="458.249,-222.16 454.749,-212.16 451.249,-222.16 458.249,-222.16"/>
</g>
<!-- 10861&#45;&gt;19847 -->
<g id="edge8" class="edge"><title>10861&#45;&gt;19847</title>
<path fill="none" stroke="green" stroke-width="0.508738" d="M203.168,-521.78C204.559,-513.511 206.122,-504.224 207.61,-495.376"/>
<polygon fill="green" stroke="green" stroke-width="0.508738" points="211.101,-495.722 209.309,-485.28 204.198,-494.561 211.101,-495.722"/>
</g>
<!-- 10861&#45;&gt;2831 -->
<g id="edge42" class="edge"><title>10861&#45;&gt;2831</title>
<path fill="none" stroke="green" stroke-width="0.156935" d="M172.473,-539.187C148.718,-529.743 114.787,-512.396 96.7487,-485.47 67.2491,-441.436 77.7487,-420.741 77.7487,-367.739 77.7487,-367.739 77.7487,-367.739 77.7487,-274.584 77.7487,-217.496 109.263,-157.026 130.592,-122.635"/>
<polygon fill="green" stroke="green" stroke-width="0.156935" points="133.631,-124.379 136.037,-114.061 127.721,-120.627 133.631,-124.379"/>
</g>
<!-- 10861&#45;&gt;14355 -->
<g id="edge18" class="edge"><title>10861&#45;&gt;14355</title>
<path fill="none" stroke="red" stroke-width="0.218431" d="M187.99,-523.591C183.562,-512.236 178.957,-498.411 176.749,-485.47 172.625,-461.306 173.149,-454.563 176.749,-430.316 178.106,-421.177 180.52,-411.525 183.182,-402.61"/>
<polygon fill="red" stroke="red" stroke-width="0.218431" points="186.567,-403.514 186.249,-392.924 179.893,-401.4 186.567,-403.514"/>
</g>
<!-- 22512&#45;&gt;14216 -->
<g id="edge52" class="edge"><title>22512&#45;&gt;14216</title>
<path fill="none" stroke="green" stroke-width="0.16651" d="M527.749,-247.979C527.749,-217.085 527.749,-165.933 527.749,-131.201"/>
<polygon fill="green" stroke="green" stroke-width="0.16651" points="531.249,-130.99 527.749,-120.99 524.249,-130.99 531.249,-130.99"/>
</g>
</g>
</svg>
