<?xml version="1.0" encoding="UTF-8" standalone="no"?>
<!DOCTYPE svg PUBLIC "-//W3C//DTD SVG 1.1//EN"
 "http://www.w3.org/Graphics/SVG/1.1/DTD/svg11.dtd">
<!-- Generated by graphviz version 2.38.0 (20140413.2041)
 -->
<!-- Title: %3 Pages: 1 -->
<svg width="1238pt" height="975pt"
 viewBox="0.00 0.00 1238.33 974.70" xmlns="http://www.w3.org/2000/svg" xmlns:xlink="http://www.w3.org/1999/xlink">
<g id="graph0" class="graph" transform="scale(1 1) rotate(0) translate(4 970.698)">
<title>%3</title>
<polygon fill="white" stroke="none" points="-4,4 -4,-970.698 1234.33,-970.698 1234.33,4 -4,4"/>
<!-- &#45;1 -->
<g id="node1" class="node"><title>&#45;1</title>
<polygon fill="lightgray" stroke="black" points="64.5772,-492.349 40.5772,-492.349 40.5772,-474.349 64.5772,-474.349 64.5772,-492.349"/>
<text text-anchor="middle" x="52.5772" y="-481.149" font-family="Times,serif" font-size="9.00">&#45;1</text>
</g>
<!-- 9931 -->
<g id="node51" class="node"><title>9931</title>
<ellipse fill="white" stroke="black" cx="28.5772" cy="-392.194" rx="25" ry="25"/>
<text text-anchor="middle" x="28.5772" y="-389.994" font-family="Times,serif" font-size="9.00">9931</text>
</g>
<!-- &#45;1&#45;&gt;9931 -->
<g id="edge4" class="edge"><title>&#45;1&#45;&gt;9931</title>
<path fill="none" stroke="red" stroke-width="0.303394" d="M50.3623,-474.121C47.4328,-463.239 42.0958,-443.413 37.4376,-426.109"/>
<polygon fill="red" stroke="red" stroke-width="0.303394" points="40.776,-425.045 34.7968,-416.299 34.0166,-426.865 40.776,-425.045"/>
</g>
<!-- 5851 -->
<g id="node56" class="node"><title>5851</title>
<ellipse fill="white" stroke="black" cx="134.577" cy="-392.194" rx="25" ry="25"/>
<text text-anchor="middle" x="134.577" y="-389.994" font-family="Times,serif" font-size="9.00">5851</text>
</g>
<!-- &#45;1&#45;&gt;5851 -->
<g id="edge10" class="edge"><title>&#45;1&#45;&gt;5851</title>
<path fill="none" stroke="red" stroke-width="0.636684" d="M58.6152,-474.266C62.7027,-468.906 68.2996,-461.781 73.5772,-455.772 85.1571,-442.587 98.7253,-428.542 110.121,-417.105"/>
<polygon fill="red" stroke="red" stroke-width="0.636684" points="112.638,-419.539 117.254,-410.002 107.698,-414.579 112.638,-419.539"/>
</g>
<!-- 6507 -->
<g id="node63" class="node"><title>6507</title>
<ellipse fill="white" stroke="black" cx="639.577" cy="-301.04" rx="25" ry="25"/>
<text text-anchor="middle" x="639.577" y="-298.84" font-family="Times,serif" font-size="9.00">6507</text>
</g>
<!-- &#45;1&#45;&gt;6507 -->
<g id="edge8" class="edge"><title>&#45;1&#45;&gt;6507</title>
<path fill="none" stroke="green" stroke-width="0.114033" d="M53.1806,-474.098C55.2652,-452.173 64.1928,-392.255 100.577,-364.617 110.693,-356.933 486.641,-317.749 604.568,-305.622"/>
<polygon fill="green" stroke="green" stroke-width="0.114033" points="605.249,-309.071 614.839,-304.567 604.534,-302.107 605.249,-309.071"/>
</g>
<!-- &#45;2 -->
<g id="node2" class="node"><title>&#45;2</title>
<polygon fill="lightgray" stroke="black" points="821.577,-674.657 797.577,-674.657 797.577,-656.657 821.577,-656.657 821.577,-674.657"/>
<text text-anchor="middle" x="809.577" y="-663.457" font-family="Times,serif" font-size="9.00">&#45;2</text>
</g>
<!-- 24845 -->
<g id="node36" class="node"><title>24845</title>
<ellipse fill="white" stroke="black" cx="811.577" cy="-574.503" rx="27.6545" ry="27.6545"/>
<text text-anchor="middle" x="811.577" y="-572.303" font-family="Times,serif" font-size="9.00">24845</text>
</g>
<!-- &#45;2&#45;&gt;24845 -->
<g id="edge73" class="edge"><title>&#45;2&#45;&gt;24845</title>
<path fill="none" stroke="red" stroke-width="0.249724" d="M809.762,-656.43C809.985,-646.458 810.378,-628.977 810.74,-612.808"/>
<polygon fill="red" stroke="red" stroke-width="0.249724" points="814.247,-612.54 810.972,-602.464 807.249,-612.383 814.247,-612.54"/>
</g>
<!-- &#45;3 -->
<g id="node3" class="node"><title>&#45;3</title>
<polygon fill="lightgray" stroke="black" points="417.577,-674.657 393.577,-674.657 393.577,-656.657 417.577,-656.657 417.577,-674.657"/>
<text text-anchor="middle" x="405.577" y="-663.457" font-family="Times,serif" font-size="9.00">&#45;3</text>
</g>
<!-- 2197 -->
<g id="node39" class="node"><title>2197</title>
<ellipse fill="white" stroke="black" cx="362.577" cy="-574.503" rx="25" ry="25"/>
<text text-anchor="middle" x="362.577" y="-572.303" font-family="Times,serif" font-size="9.00">2197</text>
</g>
<!-- &#45;3&#45;&gt;2197 -->
<g id="edge49" class="edge"><title>&#45;3&#45;&gt;2197</title>
<path fill="none" stroke="green" stroke-width="0.626062" d="M401.609,-656.43C396.171,-645.155 386.102,-624.279 377.554,-606.555"/>
<polygon fill="green" stroke="green" stroke-width="0.626062" points="380.497,-604.6 373,-597.113 374.192,-607.641 380.497,-604.6"/>
</g>
<!-- &#45;4 -->
<g id="node4" class="node"><title>&#45;4</title>
<polygon fill="lightgray" stroke="black" points="577.577,-948.12 553.577,-948.12 553.577,-930.12 577.577,-930.12 577.577,-948.12"/>
<text text-anchor="middle" x="565.577" y="-936.92" font-family="Times,serif" font-size="9.00">&#45;4</text>
</g>
<!-- &#45;5 -->
<g id="node5" class="node"><title>&#45;5</title>
<polygon fill="lightgray" stroke="black" points="919.577,-583.503 895.577,-583.503 895.577,-565.503 919.577,-565.503 919.577,-583.503"/>
<text text-anchor="middle" x="907.577" y="-572.303" font-family="Times,serif" font-size="9.00">&#45;5</text>
</g>
<!-- 2 -->
<g id="node27" class="node"><title>2</title>
<ellipse fill="lightblue" stroke="black" cx="898.577" cy="-483.349" rx="14.7" ry="14.7"/>
<text text-anchor="middle" x="898.577" y="-481.149" font-family="Times,serif" font-size="9.00">2</text>
</g>
<!-- &#45;5&#45;&gt;2 -->
<g id="edge71" class="edge"><title>&#45;5&#45;&gt;2</title>
<path fill="none" stroke="red" stroke-width="0.891242" d="M906.747,-565.276C905.453,-552.46 902.907,-527.24 900.999,-508.344"/>
<polygon fill="red" stroke="red" stroke-width="0.891242" points="904.478,-507.951 899.991,-498.353 897.513,-508.654 904.478,-507.951"/>
</g>
<!-- &#45;6 -->
<g id="node6" class="node"><title>&#45;6</title>
<polygon fill="lightgray" stroke="black" points="676.577,-674.657 652.577,-674.657 652.577,-656.657 676.577,-656.657 676.577,-674.657"/>
<text text-anchor="middle" x="664.577" y="-663.457" font-family="Times,serif" font-size="9.00">&#45;6</text>
</g>
<!-- 4505 -->
<g id="node40" class="node"><title>4505</title>
<ellipse fill="white" stroke="black" cx="664.577" cy="-574.503" rx="25" ry="25"/>
<text text-anchor="middle" x="664.577" y="-572.303" font-family="Times,serif" font-size="9.00">4505</text>
</g>
<!-- &#45;6&#45;&gt;4505 -->
<g id="edge34" class="edge"><title>&#45;6&#45;&gt;4505</title>
<path fill="none" stroke="green" stroke-width="0.35729" d="M664.577,-656.43C664.577,-645.792 664.577,-626.608 664.577,-609.588"/>
<polygon fill="green" stroke="green" stroke-width="0.35729" points="668.077,-609.366 664.577,-599.366 661.077,-609.366 668.077,-609.366"/>
</g>
<!-- &#45;7 -->
<g id="node7" class="node"><title>&#45;7</title>
<polygon fill="lightgray" stroke="black" points="723.577,-674.657 699.577,-674.657 699.577,-656.657 723.577,-656.657 723.577,-674.657"/>
<text text-anchor="middle" x="711.577" y="-663.457" font-family="Times,serif" font-size="9.00">&#45;7</text>
</g>
<!-- &#45;7&#45;&gt;24845 -->
<g id="edge25" class="edge"><title>&#45;7&#45;&gt;24845</title>
<path fill="none" stroke="green" stroke-width="0.827362" d="M720.806,-656.43C734.954,-643.816 762.579,-619.187 783.656,-600.396"/>
<polygon fill="green" stroke="green" stroke-width="0.827362" points="786.236,-602.785 791.371,-593.518 781.577,-597.56 786.236,-602.785"/>
</g>
<!-- 2831 -->
<g id="node37" class="node"><title>2831</title>
<ellipse fill="white" stroke="black" cx="664.577" cy="-483.349" rx="25" ry="25"/>
<text text-anchor="middle" x="664.577" y="-481.149" font-family="Times,serif" font-size="9.00">2831</text>
</g>
<!-- &#45;7&#45;&gt;2831 -->
<g id="edge6" class="edge"><title>&#45;7&#45;&gt;2831</title>
<path fill="none" stroke="red" stroke-width="0.387838" d="M711.745,-656.443C711.914,-636.949 711.005,-586.562 698.577,-546.926 694.952,-535.364 689.12,-523.484 683.302,-513.223"/>
<polygon fill="red" stroke="red" stroke-width="0.387838" points="686.132,-511.134 678.026,-504.312 680.108,-514.7 686.132,-511.134"/>
</g>
<!-- &#45;7&#45;&gt;4505 -->
<g id="edge12" class="edge"><title>&#45;7&#45;&gt;4505</title>
<path fill="none" stroke="red" stroke-width="0.936928" d="M707.24,-656.43C701.202,-644.977 689.942,-623.618 680.506,-605.719"/>
<polygon fill="red" stroke="red" stroke-width="0.936928" points="683.535,-603.958 675.775,-596.745 677.342,-607.223 683.535,-603.958"/>
</g>
<!-- 16194 -->
<g id="node49" class="node"><title>16194</title>
<ellipse fill="white" stroke="black" cx="755.577" cy="-483.349" rx="27.6545" ry="27.6545"/>
<text text-anchor="middle" x="755.577" y="-481.149" font-family="Times,serif" font-size="9.00">16194</text>
</g>
<!-- &#45;7&#45;&gt;16194 -->
<g id="edge41" class="edge"><title>&#45;7&#45;&gt;16194</title>
<path fill="none" stroke="red" stroke-width="0.186605" d="M714.448,-656.639C718.612,-644.812 726.394,-621.945 731.577,-602.08 738.642,-575.004 744.893,-543.976 749.243,-520.573"/>
<polygon fill="red" stroke="red" stroke-width="0.186605" points="752.688,-521.188 751.046,-510.722 745.803,-519.928 752.688,-521.188"/>
</g>
<!-- 12626 -->
<g id="node55" class="node"><title>12626</title>
<ellipse fill="white" stroke="black" cx="256.577" cy="-483.349" rx="27.6545" ry="27.6545"/>
<text text-anchor="middle" x="256.577" y="-481.149" font-family="Times,serif" font-size="9.00">12626</text>
</g>
<!-- &#45;7&#45;&gt;12626 -->
<g id="edge65" class="edge"><title>&#45;7&#45;&gt;12626</title>
<path fill="none" stroke="green" stroke-width="0.929275" d="M705.687,-656.405C700.943,-650.386 693.736,-642.534 685.577,-638.08 615.877,-600.037 585.782,-627.567 510.577,-602.08 457.27,-584.015 447.609,-570.669 396.577,-546.926 360.842,-530.299 319.617,-511.975 291.204,-499.478"/>
<polygon fill="green" stroke="green" stroke-width="0.929275" points="292.281,-496.128 281.718,-495.312 289.467,-502.538 292.281,-496.128"/>
</g>
<!-- 24172 -->
<g id="node64" class="node"><title>24172</title>
<ellipse fill="white" stroke="black" cx="547.577" cy="-574.503" rx="27.6545" ry="27.6545"/>
<text text-anchor="middle" x="547.577" y="-572.303" font-family="Times,serif" font-size="9.00">24172</text>
</g>
<!-- &#45;7&#45;&gt;24172 -->
<g id="edge22" class="edge"><title>&#45;7&#45;&gt;24172</title>
<path fill="none" stroke="red" stroke-width="0.737" d="M705.299,-656.473C700.459,-650.648 693.305,-643.01 685.577,-638.08 645.048,-612.226 626.048,-624.604 583.577,-602.08 581.355,-600.902 579.119,-599.597 576.909,-598.215"/>
<polygon fill="red" stroke="red" stroke-width="0.737" points="578.842,-595.297 568.591,-592.618 574.934,-601.105 578.842,-595.297"/>
</g>
<!-- &#45;8 -->
<g id="node8" class="node"><title>&#45;8</title>
<polygon fill="lightgray" stroke="black" points="463.577,-674.657 439.577,-674.657 439.577,-656.657 463.577,-656.657 463.577,-674.657"/>
<text text-anchor="middle" x="451.577" y="-663.457" font-family="Times,serif" font-size="9.00">&#45;8</text>
</g>
<!-- &#45;8&#45;&gt;2197 -->
<g id="edge62" class="edge"><title>&#45;8&#45;&gt;2197</title>
<path fill="none" stroke="green" stroke-width="0.256758" d="M443.784,-656.193C438.896,-650.929 432.432,-644.05 426.577,-638.08 413.902,-625.158 399.511,-611.039 387.59,-599.488"/>
<polygon fill="green" stroke="green" stroke-width="0.256758" points="389.78,-596.737 380.156,-592.307 384.916,-601.772 389.78,-596.737"/>
</g>
<!-- &#45;8&#45;&gt;4505 -->
<g id="edge24" class="edge"><title>&#45;8&#45;&gt;4505</title>
<path fill="none" stroke="red" stroke-width="0.268292" d="M463.875,-661.841C493.737,-654.693 571.926,-634.113 630.577,-602.08 633.105,-600.7 635.64,-599.135 638.123,-597.472"/>
<polygon fill="red" stroke="red" stroke-width="0.268292" points="640.233,-600.265 646.28,-591.565 636.128,-594.595 640.233,-600.265"/>
</g>
<!-- 16590 -->
<g id="node52" class="node"><title>16590</title>
<ellipse fill="white" stroke="black" cx="434.577" cy="-392.194" rx="27.6545" ry="27.6545"/>
<text text-anchor="middle" x="434.577" y="-389.994" font-family="Times,serif" font-size="9.00">16590</text>
</g>
<!-- &#45;8&#45;&gt;16590 -->
<g id="edge58" class="edge"><title>&#45;8&#45;&gt;16590</title>
<path fill="none" stroke="green" stroke-width="0.585344" d="M451.068,-656.533C448.97,-623.023 440.908,-494.289 436.886,-430.069"/>
<polygon fill="green" stroke="green" stroke-width="0.585344" points="440.372,-429.733 436.254,-419.971 433.386,-430.17 440.372,-429.733"/>
</g>
<!-- &#45;9 -->
<g id="node9" class="node"><title>&#45;9</title>
<polygon fill="lightgray" stroke="black" points="619.577,-948.12 595.577,-948.12 595.577,-930.12 619.577,-930.12 619.577,-948.12"/>
<text text-anchor="middle" x="607.577" y="-936.92" font-family="Times,serif" font-size="9.00">&#45;9</text>
</g>
<!-- &#45;10 -->
<g id="node10" class="node"><title>&#45;10</title>
<polygon fill="lightgray" stroke="black" points="622.077,-583.503 593.077,-583.503 593.077,-565.503 622.077,-565.503 622.077,-583.503"/>
<text text-anchor="middle" x="607.577" y="-572.303" font-family="Times,serif" font-size="9.00">&#45;10</text>
</g>
<!-- &#45;10&#45;&gt;2831 -->
<g id="edge1" class="edge"><title>&#45;10&#45;&gt;2831</title>
<path fill="none" stroke="red" stroke-width="0.261836" d="M612.837,-565.276C620.369,-553.495 634.601,-531.235 646.235,-513.038"/>
<polygon fill="red" stroke="red" stroke-width="0.261836" points="649.259,-514.806 651.696,-504.496 643.361,-511.036 649.259,-514.806"/>
</g>
<!-- &#45;11 -->
<g id="node11" class="node"><title>&#45;11</title>
<polygon fill="lightgray" stroke="black" points="667.077,-948.12 638.077,-948.12 638.077,-930.12 667.077,-930.12 667.077,-948.12"/>
<text text-anchor="middle" x="652.577" y="-936.92" font-family="Times,serif" font-size="9.00">&#45;11</text>
</g>
<!-- &#45;12 -->
<g id="node12" class="node"><title>&#45;12</title>
<polygon fill="lightgray" stroke="black" points="535.077,-948.12 506.077,-948.12 506.077,-930.12 535.077,-930.12 535.077,-948.12"/>
<text text-anchor="middle" x="520.577" y="-936.92" font-family="Times,serif" font-size="9.00">&#45;12</text>
</g>
<!-- 6074 -->
<g id="node45" class="node"><title>6074</title>
<ellipse fill="white" stroke="black" cx="554.577" cy="-847.966" rx="25" ry="25"/>
<text text-anchor="middle" x="554.577" y="-845.766" font-family="Times,serif" font-size="9.00">6074</text>
</g>
<!-- &#45;12&#45;&gt;6074 -->
<g id="edge26" class="edge"><title>&#45;12&#45;&gt;6074</title>
<path fill="none" stroke="green" stroke-width="0.466845" d="M523.715,-929.893C527.959,-918.763 535.771,-898.279 542.473,-880.706"/>
<polygon fill="green" stroke="green" stroke-width="0.466845" points="545.759,-881.91 546.052,-871.32 539.219,-879.416 545.759,-881.91"/>
</g>
<!-- 13885 -->
<g id="node46" class="node"><title>13885</title>
<ellipse fill="white" stroke="black" cx="372.577" cy="-847.966" rx="27.6545" ry="27.6545"/>
<text text-anchor="middle" x="372.577" y="-845.766" font-family="Times,serif" font-size="9.00">13885</text>
</g>
<!-- &#45;12&#45;&gt;13885 -->
<g id="edge57" class="edge"><title>&#45;12&#45;&gt;13885</title>
<path fill="none" stroke="green" stroke-width="0.438966" d="M505.734,-930.594C483.955,-919.381 442.272,-897.271 408.577,-875.543 406.463,-874.18 404.309,-872.737 402.157,-871.255"/>
<polygon fill="green" stroke="green" stroke-width="0.438966" points="404.146,-868.376 393.966,-865.441 400.094,-874.084 404.146,-868.376"/>
</g>
<!-- &#45;13 -->
<g id="node13" class="node"><title>&#45;13</title>
<polygon fill="lightgray" stroke="black" points="714.077,-948.12 685.077,-948.12 685.077,-930.12 714.077,-930.12 714.077,-948.12"/>
<text text-anchor="middle" x="699.577" y="-936.92" font-family="Times,serif" font-size="9.00">&#45;13</text>
</g>
<!-- &#45;14 -->
<g id="node14" class="node"><title>&#45;14</title>
<polygon fill="lightgray" stroke="black" points="421.077,-948.12 392.077,-948.12 392.077,-930.12 421.077,-930.12 421.077,-948.12"/>
<text text-anchor="middle" x="406.577" y="-936.92" font-family="Times,serif" font-size="9.00">&#45;14</text>
</g>
<!-- 18570 -->
<g id="node33" class="node"><title>18570</title>
<ellipse fill="white" stroke="black" cx="445.577" cy="-847.966" rx="27.6545" ry="27.6545"/>
<text text-anchor="middle" x="445.577" y="-845.766" font-family="Times,serif" font-size="9.00">18570</text>
</g>
<!-- &#45;14&#45;&gt;18570 -->
<g id="edge54" class="edge"><title>&#45;14&#45;&gt;18570</title>
<path fill="none" stroke="red" stroke-width="0.115214" d="M410.176,-929.893C414.854,-919.2 423.309,-899.871 430.783,-882.786"/>
<polygon fill="red" stroke="red" stroke-width="0.115214" points="434.003,-884.158 434.804,-873.593 427.59,-881.353 434.003,-884.158"/>
</g>
<!-- &#45;14&#45;&gt;13885 -->
<g id="edge32" class="edge"><title>&#45;14&#45;&gt;13885</title>
<path fill="none" stroke="red" stroke-width="0.180964" d="M403.439,-929.893C399.427,-919.371 392.225,-900.488 385.788,-883.608"/>
<polygon fill="red" stroke="red" stroke-width="0.180964" points="388.95,-882.075 382.116,-873.978 382.409,-884.569 388.95,-882.075"/>
</g>
<!-- 12003 -->
<g id="node58" class="node"><title>12003</title>
<ellipse fill="white" stroke="black" cx="333.577" cy="-756.812" rx="27.6545" ry="27.6545"/>
<text text-anchor="middle" x="333.577" y="-754.612" font-family="Times,serif" font-size="9.00">12003</text>
</g>
<!-- &#45;14&#45;&gt;12003 -->
<g id="edge9" class="edge"><title>&#45;14&#45;&gt;12003</title>
<path fill="none" stroke="green" stroke-width="0.577686" d="M391.888,-930.264C374.756,-920.176 347.289,-900.901 335.577,-875.543 323.855,-850.162 324.086,-818.299 326.845,-794.124"/>
<polygon fill="green" stroke="green" stroke-width="0.577686" points="330.35,-794.318 328.205,-783.942 323.412,-793.391 330.35,-794.318"/>
</g>
<!-- 10861 -->
<g id="node66" class="node"><title>10861</title>
<ellipse fill="white" stroke="black" cx="844.577" cy="-756.812" rx="27.6545" ry="27.6545"/>
<text text-anchor="middle" x="844.577" y="-754.612" font-family="Times,serif" font-size="9.00">10861</text>
</g>
<!-- &#45;14&#45;&gt;10861 -->
<g id="edge2" class="edge"><title>&#45;14&#45;&gt;10861</title>
<path fill="none" stroke="red" stroke-width="0.143164" d="M418.245,-930.099C433.942,-918.971 462.236,-897.704 482.577,-875.543 502.707,-853.613 495.664,-836.681 520.577,-820.389 567.477,-789.719 731.902,-769.381 806.844,-761.494"/>
<polygon fill="red" stroke="red" stroke-width="0.143164" points="807.64,-764.93 817.227,-760.421 806.921,-757.967 807.64,-764.93"/>
</g>
<!-- &#45;15 -->
<g id="node15" class="node"><title>&#45;15</title>
<polygon fill="lightgray" stroke="black" points="761.077,-948.12 732.077,-948.12 732.077,-930.12 761.077,-930.12 761.077,-948.12"/>
<text text-anchor="middle" x="746.577" y="-936.92" font-family="Times,serif" font-size="9.00">&#45;15</text>
</g>
<!-- &#45;16 -->
<g id="node16" class="node"><title>&#45;16</title>
<polygon fill="lightgray" stroke="black" points="808.077,-948.12 779.077,-948.12 779.077,-930.12 808.077,-930.12 808.077,-948.12"/>
<text text-anchor="middle" x="793.577" y="-936.92" font-family="Times,serif" font-size="9.00">&#45;16</text>
</g>
<!-- &#45;17 -->
<g id="node17" class="node"><title>&#45;17</title>
<polygon fill="lightgray" stroke="black" points="375.077,-674.657 346.077,-674.657 346.077,-656.657 375.077,-656.657 375.077,-674.657"/>
<text text-anchor="middle" x="360.577" y="-663.457" font-family="Times,serif" font-size="9.00">&#45;17</text>
</g>
<!-- 24138 -->
<g id="node50" class="node"><title>24138</title>
<ellipse fill="white" stroke="black" cx="292.577" cy="-574.503" rx="27.6545" ry="27.6545"/>
<text text-anchor="middle" x="292.577" y="-572.303" font-family="Times,serif" font-size="9.00">24138</text>
</g>
<!-- &#45;17&#45;&gt;24138 -->
<g id="edge67" class="edge"><title>&#45;17&#45;&gt;24138</title>
<path fill="none" stroke="red" stroke-width="0.107565" d="M354.302,-656.43C345.463,-644.841 328.89,-623.112 315.14,-605.086"/>
<polygon fill="red" stroke="red" stroke-width="0.107565" points="317.907,-602.942 309.06,-597.113 312.341,-607.187 317.907,-602.942"/>
</g>
<!-- &#45;17&#45;&gt;12626 -->
<g id="edge60" class="edge"><title>&#45;17&#45;&gt;12626</title>
<path fill="none" stroke="red" stroke-width="0.253041" d="M354.924,-656.356C350.686,-650.625 344.452,-643.152 337.577,-638.08 305.547,-614.453 277.341,-635.405 255.577,-602.08 239.86,-578.014 241.712,-544.863 246.573,-519.869"/>
<polygon fill="red" stroke="red" stroke-width="0.253041" points="250.004,-520.564 248.716,-510.048 243.165,-519.072 250.004,-520.564"/>
</g>
<!-- 9704 -->
<g id="node61" class="node"><title>9704</title>
<ellipse fill="white" stroke="black" cx="183.577" cy="-574.503" rx="25" ry="25"/>
<text text-anchor="middle" x="183.577" y="-572.303" font-family="Times,serif" font-size="9.00">9704</text>
</g>
<!-- &#45;17&#45;&gt;9704 -->
<g id="edge70" class="edge"><title>&#45;17&#45;&gt;9704</title>
<path fill="none" stroke="red" stroke-width="0.615441" d="M355.442,-656.614C351.284,-650.706 344.925,-642.899 337.577,-638.08 292.791,-608.712 270.784,-625.413 222.577,-602.08 218.761,-600.233 214.893,-598.047 211.152,-595.733"/>
<polygon fill="red" stroke="red" stroke-width="0.615441" points="213.013,-592.769 202.733,-590.207 209.172,-598.62 213.013,-592.769"/>
</g>
<!-- &#45;18 -->
<g id="node18" class="node"><title>&#45;18</title>
<polygon fill="lightgray" stroke="black" points="855.077,-948.12 826.077,-948.12 826.077,-930.12 855.077,-930.12 855.077,-948.12"/>
<text text-anchor="middle" x="840.577" y="-936.92" font-family="Times,serif" font-size="9.00">&#45;18</text>
</g>
<!-- &#45;19 -->
<g id="node19" class="node"><title>&#45;19</title>
<polygon fill="lightgray" stroke="black" points="29.0772,-583.503 0.0771645,-583.503 0.0771645,-565.503 29.0772,-565.503 29.0772,-583.503"/>
<text text-anchor="middle" x="14.5772" y="-572.303" font-family="Times,serif" font-size="9.00">&#45;19</text>
</g>
<!-- 15758 -->
<g id="node35" class="node"><title>15758</title>
<ellipse fill="white" stroke="black" cx="110.577" cy="-483.349" rx="27.6545" ry="27.6545"/>
<text text-anchor="middle" x="110.577" y="-481.149" font-family="Times,serif" font-size="9.00">15758</text>
</g>
<!-- &#45;19&#45;&gt;15758 -->
<g id="edge19" class="edge"><title>&#45;19&#45;&gt;15758</title>
<path fill="none" stroke="green" stroke-width="0.489835" d="M21.1233,-565.318C25.5717,-559.915 31.6953,-552.78 37.5772,-546.926 51.4234,-533.145 67.8662,-518.886 81.6377,-507.466"/>
<polygon fill="green" stroke="green" stroke-width="0.489835" points="83.8894,-510.146 89.3977,-501.095 79.4478,-504.735 83.8894,-510.146"/>
</g>
<!-- &#45;20 -->
<g id="node20" class="node"><title>&#45;20</title>
<polygon fill="lightgray" stroke="black" points="227.077,-948.12 198.077,-948.12 198.077,-930.12 227.077,-930.12 227.077,-948.12"/>
<text text-anchor="middle" x="212.577" y="-936.92" font-family="Times,serif" font-size="9.00">&#45;20</text>
</g>
<!-- &#45;20&#45;&gt;13885 -->
<g id="edge31" class="edge"><title>&#45;20&#45;&gt;13885</title>
<path fill="none" stroke="red" stroke-width="0.567992" d="M227.307,-930.768C249.834,-919.42 294.077,-896.729 330.577,-875.543 334.005,-873.553 337.556,-871.422 341.074,-869.264"/>
<polygon fill="red" stroke="red" stroke-width="0.567992" points="343.03,-872.169 349.665,-863.909 339.327,-866.228 343.03,-872.169"/>
</g>
<!-- 24931 -->
<g id="node59" class="node"><title>24931</title>
<ellipse fill="white" stroke="black" cx="109.577" cy="-756.812" rx="27.6545" ry="27.6545"/>
<text text-anchor="middle" x="109.577" y="-754.612" font-family="Times,serif" font-size="9.00">24931</text>
</g>
<!-- &#45;20&#45;&gt;24931 -->
<g id="edge53" class="edge"><title>&#45;20&#45;&gt;24931</title>
<path fill="none" stroke="green" stroke-width="0.230985" d="M197.905,-932.972C176.53,-924.616 137.433,-905.906 119.577,-875.543 105.292,-851.253 103.459,-819.13 104.827,-794.575"/>
<polygon fill="green" stroke="green" stroke-width="0.230985" points="108.32,-794.795 105.582,-784.56 101.34,-794.268 108.32,-794.795"/>
</g>
<!-- 21223 -->
<g id="node60" class="node"><title>21223</title>
<ellipse fill="white" stroke="black" cx="156.577" cy="-847.966" rx="27.6545" ry="27.6545"/>
<text text-anchor="middle" x="156.577" y="-845.766" font-family="Times,serif" font-size="9.00">21223</text>
</g>
<!-- &#45;20&#45;&gt;21223 -->
<g id="edge66" class="edge"><title>&#45;20&#45;&gt;21223</title>
<path fill="none" stroke="green" stroke-width="0.270782" d="M207.409,-929.893C200.4,-918.733 187.483,-898.17 176.425,-880.565"/>
<polygon fill="green" stroke="green" stroke-width="0.270782" points="179.136,-878.301 170.853,-871.694 173.208,-882.024 179.136,-878.301"/>
</g>
<!-- &#45;20&#45;&gt;9704 -->
<g id="edge35" class="edge"><title>&#45;20&#45;&gt;9704</title>
<path fill="none" stroke="red" stroke-width="0.601222" d="M211.995,-929.764C209.521,-894.408 199.545,-753.631 189.577,-638.08 188.773,-628.758 187.835,-618.661 186.942,-609.354"/>
<polygon fill="red" stroke="red" stroke-width="0.601222" points="190.412,-608.881 185.963,-599.265 183.445,-609.557 190.412,-608.881"/>
</g>
<!-- &#45;20&#45;&gt;10861 -->
<g id="edge33" class="edge"><title>&#45;20&#45;&gt;10861</title>
<path fill="none" stroke="green" stroke-width="0.798428" d="M218.069,-930.035C233.546,-907.992 280.026,-846.74 335.577,-820.389 356.931,-810.259 693.143,-773.871 807.124,-761.762"/>
<polygon fill="green" stroke="green" stroke-width="0.798428" points="807.558,-765.236 817.133,-760.701 806.819,-758.275 807.558,-765.236"/>
</g>
<!-- &#45;21 -->
<g id="node21" class="node"><title>&#45;21</title>
<polygon fill="lightgray" stroke="black" points="902.077,-948.12 873.077,-948.12 873.077,-930.12 902.077,-930.12 902.077,-948.12"/>
<text text-anchor="middle" x="887.577" y="-936.92" font-family="Times,serif" font-size="9.00">&#45;21</text>
</g>
<!-- &#45;22 -->
<g id="node22" class="node"><title>&#45;22</title>
<polygon fill="lightgray" stroke="black" points="949.077,-948.12 920.077,-948.12 920.077,-930.12 949.077,-930.12 949.077,-948.12"/>
<text text-anchor="middle" x="934.577" y="-936.92" font-family="Times,serif" font-size="9.00">&#45;22</text>
</g>
<!-- &#45;23 -->
<g id="node23" class="node"><title>&#45;23</title>
<polygon fill="lightgray" stroke="black" points="996.077,-948.12 967.077,-948.12 967.077,-930.12 996.077,-930.12 996.077,-948.12"/>
<text text-anchor="middle" x="981.577" y="-936.92" font-family="Times,serif" font-size="9.00">&#45;23</text>
</g>
<!-- &#45;24 -->
<g id="node24" class="node"><title>&#45;24</title>
<polygon fill="lightgray" stroke="black" points="1043.08,-948.12 1014.08,-948.12 1014.08,-930.12 1043.08,-930.12 1043.08,-948.12"/>
<text text-anchor="middle" x="1028.58" y="-936.92" font-family="Times,serif" font-size="9.00">&#45;24</text>
</g>
<!-- 0 -->
<g id="node25" class="node"><title>0</title>
<ellipse fill="lightblue" stroke="black" cx="1075.58" cy="-939.12" rx="14.7" ry="14.7"/>
<text text-anchor="middle" x="1075.58" y="-936.92" font-family="Times,serif" font-size="9.00">0</text>
</g>
<!-- 1 -->
<g id="node26" class="node"><title>1</title>
<ellipse fill="lightblue" stroke="black" cx="562.577" cy="-392.194" rx="14.7" ry="14.7"/>
<text text-anchor="middle" x="562.577" y="-389.994" font-family="Times,serif" font-size="9.00">1</text>
</g>
<!-- 21821 -->
<g id="node47" class="node"><title>21821</title>
<ellipse fill="white" stroke="black" cx="825.577" cy="-392.194" rx="27.6545" ry="27.6545"/>
<text text-anchor="middle" x="825.577" y="-389.994" font-family="Times,serif" font-size="9.00">21821</text>
</g>
<!-- 2&#45;&gt;21821 -->
<g id="edge27" class="edge"><title>2&#45;&gt;21821</title>
<path fill="none" stroke="green" stroke-width="0.276787" d="M889.626,-471.417C879.614,-459.189 862.991,-438.887 849.189,-422.031"/>
<polygon fill="green" stroke="green" stroke-width="0.276787" points="851.724,-419.603 842.681,-414.083 846.308,-424.038 851.724,-419.603"/>
</g>
<!-- 3 -->
<g id="node28" class="node"><title>3</title>
<ellipse fill="lightblue" stroke="black" cx="1135.58" cy="-847.966" rx="14.7" ry="14.7"/>
<text text-anchor="middle" x="1135.58" y="-845.766" font-family="Times,serif" font-size="9.00">3</text>
</g>
<!-- 25600 -->
<g id="node29" class="node"><title>25600</title>
<ellipse fill="white" stroke="black" cx="329.577" cy="-301.04" rx="27.6545" ry="27.6545"/>
<text text-anchor="middle" x="329.577" y="-298.84" font-family="Times,serif" font-size="9.00">25600</text>
</g>
<!-- 13519 -->
<g id="node53" class="node"><title>13519</title>
<ellipse fill="white" stroke="black" cx="329.577" cy="-209.886" rx="27.6545" ry="27.6545"/>
<text text-anchor="middle" x="329.577" y="-207.686" font-family="Times,serif" font-size="9.00">13519</text>
</g>
<!-- 25600&#45;&gt;13519 -->
<g id="edge28" class="edge"><title>25600&#45;&gt;13519</title>
<path fill="none" stroke="green" stroke-width="1.36038" d="M329.577,-273.291C329.577,-265.269 329.577,-256.324 329.577,-247.769"/>
<polygon fill="green" stroke="green" stroke-width="1.36038" points="333.077,-247.616 329.577,-237.616 326.077,-247.616 333.077,-247.616"/>
</g>
<!-- 19847 -->
<g id="node30" class="node"><title>19847</title>
<ellipse fill="white" stroke="black" cx="1003.58" cy="-209.886" rx="27.6545" ry="27.6545"/>
<text text-anchor="middle" x="1003.58" y="-207.686" font-family="Times,serif" font-size="9.00">19847</text>
</g>
<!-- 14355 -->
<g id="node38" class="node"><title>14355</title>
<ellipse fill="white" stroke="black" cx="947.577" cy="-27.5772" rx="27.6545" ry="27.6545"/>
<text text-anchor="middle" x="947.577" y="-25.3772" font-family="Times,serif" font-size="9.00">14355</text>
</g>
<!-- 19847&#45;&gt;14355 -->
<g id="edge48" class="edge"><title>19847&#45;&gt;14355</title>
<path fill="none" stroke="red" stroke-width="0.321182" d="M995.673,-183.434C985.986,-152.246 969.518,-99.2216 958.593,-64.0469"/>
<polygon fill="red" stroke="red" stroke-width="0.321182" points="961.841,-62.7023 955.532,-54.1904 955.156,-64.7785 961.841,-62.7023"/>
</g>
<!-- 14216 -->
<g id="node31" class="node"><title>14216</title>
<ellipse fill="white" stroke="black" cx="510.577" cy="-118.731" rx="27.6545" ry="27.6545"/>
<text text-anchor="middle" x="510.577" y="-116.531" font-family="Times,serif" font-size="9.00">14216</text>
</g>
<!-- 14216&#45;&gt;14355 -->
<g id="edge42" class="edge"><title>14216&#45;&gt;14355</title>
<path fill="none" stroke="green" stroke-width="0.216803" d="M537.584,-112.222C612.866,-96.8632 825.152,-53.5538 910.934,-36.0528"/>
<polygon fill="green" stroke="green" stroke-width="0.216803" points="911.652,-39.4785 920.751,-34.0501 910.253,-32.6198 911.652,-39.4785"/>
</g>
<!-- 13193 -->
<g id="node32" class="node"><title>13193</title>
<ellipse fill="white" stroke="black" cx="27.5772" cy="-756.812" rx="27.6545" ry="27.6545"/>
<text text-anchor="middle" x="27.5772" y="-754.612" font-family="Times,serif" font-size="9.00">13193</text>
</g>
<!-- 17721 -->
<g id="node44" class="node"><title>17721</title>
<ellipse fill="white" stroke="black" cx="74.5772" cy="-665.657" rx="27.6545" ry="27.6545"/>
<text text-anchor="middle" x="74.5772" y="-663.457" font-family="Times,serif" font-size="9.00">17721</text>
</g>
<!-- 13193&#45;&gt;17721 -->
<g id="edge52" class="edge"><title>13193&#45;&gt;17721</title>
<path fill="none" stroke="red" stroke-width="0.205746" d="M40.1723,-731.92C45.43,-721.947 51.6234,-710.198 57.296,-699.438"/>
<polygon fill="red" stroke="red" stroke-width="0.205746" points="60.5429,-700.784 62.1102,-690.306 54.3506,-697.52 60.5429,-700.784"/>
</g>
<!-- 10705 -->
<g id="node54" class="node"><title>10705</title>
<ellipse fill="white" stroke="black" cx="74.5772" cy="-574.503" rx="27.6545" ry="27.6545"/>
<text text-anchor="middle" x="74.5772" y="-572.303" font-family="Times,serif" font-size="9.00">10705</text>
</g>
<!-- 13193&#45;&gt;10705 -->
<g id="edge69" class="edge"><title>13193&#45;&gt;10705</title>
<path fill="none" stroke="green" stroke-width="1.13345" d="M26.4943,-728.966C26.2945,-704.663 27.9597,-668.171 37.5772,-638.08 41.1368,-626.943 46.9655,-615.672 52.9548,-605.822"/>
<polygon fill="green" stroke="green" stroke-width="1.13345" points="56.0143,-607.533 58.4399,-597.22 50.1122,-603.77 56.0143,-607.533"/>
</g>
<!-- 20575 -->
<g id="node57" class="node"><title>20575</title>
<ellipse fill="white" stroke="black" cx="554.577" cy="-756.812" rx="27.6545" ry="27.6545"/>
<text text-anchor="middle" x="554.577" y="-754.612" font-family="Times,serif" font-size="9.00">20575</text>
</g>
<!-- 18570&#45;&gt;20575 -->
<g id="edge36" class="edge"><title>18570&#45;&gt;20575</title>
<path fill="none" stroke="red" stroke-width="0.350628" d="M466.593,-829.776C483.407,-816.024 507.162,-796.594 525.751,-781.389"/>
<polygon fill="red" stroke="red" stroke-width="0.350628" points="528.101,-783.989 533.625,-774.949 523.669,-778.571 528.101,-783.989"/>
</g>
<!-- 18570&#45;&gt;12003 -->
<g id="edge72" class="edge"><title>18570&#45;&gt;12003</title>
<path fill="none" stroke="red" stroke-width="0.561481" d="M424.247,-829.987C406.809,-816.106 381.977,-796.339 362.708,-781"/>
<polygon fill="red" stroke="red" stroke-width="0.561481" points="364.831,-778.217 354.828,-774.728 360.472,-783.694 364.831,-778.217"/>
</g>
<!-- 16141 -->
<g id="node34" class="node"><title>16141</title>
<ellipse fill="white" stroke="black" cx="1135.58" cy="-939.12" rx="27.6545" ry="27.6545"/>
<text text-anchor="middle" x="1135.58" y="-936.92" font-family="Times,serif" font-size="9.00">16141</text>
</g>
<!-- 16141&#45;&gt;3 -->
<g id="edge45" class="edge"><title>16141&#45;&gt;3</title>
<path fill="none" stroke="green" stroke-width="0.459274" d="M1135.58,-911.371C1135.58,-899.198 1135.58,-884.9 1135.58,-873.064"/>
<polygon fill="green" stroke="green" stroke-width="0.459274" points="1139.08,-873.018 1135.58,-863.018 1132.08,-873.018 1139.08,-873.018"/>
</g>
<!-- 15758&#45;&gt;5851 -->
<g id="edge44" class="edge"><title>15758&#45;&gt;5851</title>
<path fill="none" stroke="green" stroke-width="1.03593" d="M117.519,-456.562C120.094,-446.996 123.049,-436.018 125.769,-425.916"/>
<polygon fill="green" stroke="green" stroke-width="1.03593" points="129.167,-426.756 128.387,-416.19 122.408,-424.937 129.167,-426.756"/>
</g>
<!-- 24845&#45;&gt;16194 -->
<g id="edge39" class="edge"><title>24845&#45;&gt;16194</title>
<path fill="none" stroke="red" stroke-width="0.61489" d="M797.156,-550.544C790.558,-540.04 782.634,-527.424 775.481,-516.036"/>
<polygon fill="red" stroke="red" stroke-width="0.61489" points="778.233,-513.837 769.95,-507.23 772.305,-517.56 778.233,-513.837"/>
</g>
<!-- 2831&#45;&gt;1 -->
<g id="edge3" class="edge"><title>2831&#45;&gt;1</title>
<path fill="none" stroke="red" stroke-width="0.394703" d="M646.342,-466.41C627.956,-450.339 599.717,-425.657 581.196,-409.468"/>
<polygon fill="red" stroke="red" stroke-width="0.394703" points="583.273,-406.635 573.44,-402.689 578.666,-411.906 583.273,-406.635"/>
</g>
<!-- 2197&#45;&gt;1 -->
<g id="edge46" class="edge"><title>2197&#45;&gt;1</title>
<path fill="none" stroke="green" stroke-width="0.901828" d="M380.679,-557.184C418.582,-523.012 505.941,-444.255 544.137,-409.819"/>
<polygon fill="green" stroke="green" stroke-width="0.901828" points="546.833,-412.101 551.917,-402.805 542.146,-406.901 546.833,-412.101"/>
</g>
<!-- 2197&#45;&gt;12626 -->
<g id="edge7" class="edge"><title>2197&#45;&gt;12626</title>
<path fill="none" stroke="red" stroke-width="0.587723" d="M344.113,-557.974C327.816,-544.267 303.803,-524.069 285.047,-508.295"/>
<polygon fill="red" stroke="red" stroke-width="0.587723" points="287.275,-505.595 277.369,-501.837 282.769,-510.952 287.275,-505.595"/>
</g>
<!-- 4505&#45;&gt;2831 -->
<g id="edge50" class="edge"><title>4505&#45;&gt;2831</title>
<path fill="none" stroke="red" stroke-width="0.887244" d="M664.577,-549.611C664.577,-540.018 664.577,-528.781 664.577,-518.362"/>
<polygon fill="red" stroke="red" stroke-width="0.887244" points="668.077,-518.306 664.577,-508.306 661.077,-518.307 668.077,-518.306"/>
</g>
<!-- 7718 -->
<g id="node41" class="node"><title>7718</title>
<ellipse fill="white" stroke="black" cx="1205.58" cy="-939.12" rx="25" ry="25"/>
<text text-anchor="middle" x="1205.58" y="-936.92" font-family="Times,serif" font-size="9.00">7718</text>
</g>
<!-- 17575 -->
<g id="node42" class="node"><title>17575</title>
<ellipse fill="white" stroke="black" cx="867.577" cy="-665.657" rx="27.6545" ry="27.6545"/>
<text text-anchor="middle" x="867.577" y="-663.457" font-family="Times,serif" font-size="9.00">17575</text>
</g>
<!-- 17575&#45;&gt;2831 -->
<g id="edge18" class="edge"><title>17575&#45;&gt;2831</title>
<path fill="none" stroke="green" stroke-width="0.719666" d="M870.888,-637.817C872.573,-611.423 870.676,-571.604 848.577,-546.926 808.582,-502.264 774.607,-532.256 718.577,-510.926 710.818,-507.972 702.674,-504.292 695.131,-500.62"/>
<polygon fill="green" stroke="green" stroke-width="0.719666" points="696.48,-497.382 685.972,-496.03 693.344,-503.64 696.48,-497.382"/>
</g>
<!-- 12339 -->
<g id="node43" class="node"><title>12339</title>
<ellipse fill="white" stroke="black" cx="639.577" cy="-392.194" rx="27.6545" ry="27.6545"/>
<text text-anchor="middle" x="639.577" y="-389.994" font-family="Times,serif" font-size="9.00">12339</text>
</g>
<!-- 12339&#45;&gt;6507 -->
<g id="edge63" class="edge"><title>12339&#45;&gt;6507</title>
<path fill="none" stroke="red" stroke-width="0.599877" d="M639.577,-364.445C639.577,-355.576 639.577,-345.579 639.577,-336.228"/>
<polygon fill="red" stroke="red" stroke-width="0.599877" points="643.077,-336.04 639.577,-326.04 636.077,-336.04 643.077,-336.04"/>
</g>
<!-- 17721&#45;&gt;10705 -->
<g id="edge56" class="edge"><title>17721&#45;&gt;10705</title>
<path fill="none" stroke="green" stroke-width="0.715482" d="M74.5772,-637.908C74.5772,-629.886 74.5772,-620.941 74.5772,-612.387"/>
<polygon fill="green" stroke="green" stroke-width="0.715482" points="78.0773,-612.233 74.5772,-602.233 71.0773,-612.234 78.0773,-612.233"/>
</g>
<!-- 13885&#45;&gt;12003 -->
<g id="edge20" class="edge"><title>13885&#45;&gt;12003</title>
<path fill="none" stroke="green" stroke-width="0.221207" d="M361.713,-822.132C357.614,-812.761 352.877,-801.931 348.472,-791.862"/>
<polygon fill="green" stroke="green" stroke-width="0.221207" points="351.597,-790.272 344.383,-782.513 345.184,-793.078 351.597,-790.272"/>
</g>
<!-- 21821&#45;&gt;6507 -->
<g id="edge23" class="edge"><title>21821&#45;&gt;6507</title>
<path fill="none" stroke="red" stroke-width="0.254746" d="M800.878,-379.355C767.405,-363.311 707.622,-334.656 670.993,-317.098"/>
<polygon fill="red" stroke="red" stroke-width="0.254746" points="672.293,-313.841 661.763,-312.674 669.268,-320.153 672.293,-313.841"/>
</g>
<!-- 25152 -->
<g id="node48" class="node"><title>25152</title>
<ellipse fill="white" stroke="black" cx="300.577" cy="-665.657" rx="27.6545" ry="27.6545"/>
<text text-anchor="middle" x="300.577" y="-663.457" font-family="Times,serif" font-size="9.00">25152</text>
</g>
<!-- 25152&#45;&gt;9704 -->
<g id="edge16" class="edge"><title>25152&#45;&gt;9704</title>
<path fill="none" stroke="green" stroke-width="0.294641" d="M279.118,-648.305C259.984,-633.725 231.869,-612.301 211.088,-596.466"/>
<polygon fill="green" stroke="green" stroke-width="0.294641" points="213.034,-593.549 202.959,-590.272 208.791,-599.117 213.034,-593.549"/>
</g>
<!-- 16194&#45;&gt;6507 -->
<g id="edge21" class="edge"><title>16194&#45;&gt;6507</title>
<path fill="none" stroke="red" stroke-width="0.386116" d="M740.886,-459.513C719.81,-426.753 681.009,-366.441 658.027,-330.718"/>
<polygon fill="red" stroke="red" stroke-width="0.386116" points="660.899,-328.714 652.545,-322.198 655.012,-332.501 660.899,-328.714"/>
</g>
<!-- 16590&#45;&gt;6507 -->
<g id="edge37" class="edge"><title>16590&#45;&gt;6507</title>
<path fill="none" stroke="red" stroke-width="0.495201" d="M459.714,-380.262C497.03,-364.034 567.051,-333.582 607.848,-315.839"/>
<polygon fill="red" stroke="red" stroke-width="0.495201" points="609.29,-319.029 617.064,-311.831 606.498,-312.61 609.29,-319.029"/>
</g>
<!-- 13519&#45;&gt;14216 -->
<g id="edge59" class="edge"><title>13519&#45;&gt;14216</title>
<path fill="none" stroke="green" stroke-width="0.622162" d="M353.988,-196.862C385.699,-181.242 441.214,-153.897 476.911,-136.314"/>
<polygon fill="green" stroke="green" stroke-width="0.622162" points="478.551,-139.408 485.975,-131.849 475.458,-133.128 478.551,-139.408"/>
</g>
<!-- 10705&#45;&gt;12626 -->
<g id="edge17" class="edge"><title>10705&#45;&gt;12626</title>
<path fill="none" stroke="red" stroke-width="1.06782" d="M97.1345,-557.891C103.279,-554.013 110.046,-550.07 116.577,-546.926 160.648,-525.707 177.296,-533.712 220.577,-510.926 222.803,-509.754 225.041,-508.454 227.253,-507.076"/>
<polygon fill="red" stroke="red" stroke-width="1.06782" points="229.225,-509.968 235.576,-501.487 225.323,-504.157 229.225,-509.968"/>
</g>
<!-- 12626&#45;&gt;25600 -->
<g id="edge55" class="edge"><title>12626&#45;&gt;25600</title>
<path fill="none" stroke="green" stroke-width="0.3" d="M271.635,-459.864C278.954,-448.245 287.466,-433.629 293.577,-419.772 305.222,-393.367 314.598,-362.065 320.859,-338.377"/>
<polygon fill="green" stroke="green" stroke-width="0.3" points="324.323,-338.959 323.431,-328.402 317.545,-337.211 324.323,-338.959"/>
</g>
<!-- 12626&#45;&gt;16590 -->
<g id="edge29" class="edge"><title>12626&#45;&gt;16590</title>
<path fill="none" stroke="red" stroke-width="1.47463" d="M280.954,-470.139C312.024,-454.577 365.893,-427.596 400.878,-410.074"/>
<polygon fill="red" stroke="red" stroke-width="1.47463" points="402.836,-413.007 410.21,-405.399 399.701,-406.748 402.836,-413.007"/>
</g>
<!-- 12626&#45;&gt;5851 -->
<g id="edge47" class="edge"><title>12626&#45;&gt;5851</title>
<path fill="none" stroke="green" stroke-width="0.25819" d="M234.893,-466.303C230.178,-462.825 225.214,-459.17 220.577,-455.772 201.3,-441.643 179.531,-425.804 162.718,-413.596"/>
<polygon fill="green" stroke="green" stroke-width="0.25819" points="164.566,-410.613 154.417,-407.571 160.454,-416.278 164.566,-410.613"/>
</g>
<!-- 24316 -->
<g id="node67" class="node"><title>24316</title>
<ellipse fill="white" stroke="black" cx="256.577" cy="-392.194" rx="27.6545" ry="27.6545"/>
<text text-anchor="middle" x="256.577" y="-389.994" font-family="Times,serif" font-size="9.00">24316</text>
</g>
<!-- 12626&#45;&gt;24316 -->
<g id="edge14" class="edge"><title>12626&#45;&gt;24316</title>
<path fill="none" stroke="red" stroke-width="0.416519" d="M256.577,-455.6C256.577,-447.577 256.577,-438.633 256.577,-430.078"/>
<polygon fill="red" stroke="red" stroke-width="0.416519" points="260.077,-429.925 256.577,-419.925 253.077,-429.925 260.077,-429.925"/>
</g>
<!-- 20575&#45;&gt;17575 -->
<g id="edge40" class="edge"><title>20575&#45;&gt;17575</title>
<path fill="none" stroke="green" stroke-width="0.517403" d="M581.971,-753.251C632.9,-747.711 744.778,-731.852 830.577,-693.235 833.061,-692.117 835.546,-690.819 837.987,-689.409"/>
<polygon fill="green" stroke="green" stroke-width="0.517403" points="840.009,-692.271 846.553,-683.939 836.241,-686.371 840.009,-692.271"/>
</g>
<!-- 12003&#45;&gt;14216 -->
<g id="edge64" class="edge"><title>12003&#45;&gt;14216</title>
<path fill="none" stroke="green" stroke-width="0.64422" d="M360.755,-751.673C392.996,-745.224 445.743,-729.511 472.577,-693.235 512.545,-639.202 510.577,-460.403 510.577,-393.194 510.577,-393.194 510.577,-393.194 510.577,-300.04 510.577,-250.323 510.577,-192.895 510.577,-156.459"/>
<polygon fill="green" stroke="green" stroke-width="0.64422" points="514.077,-156.311 510.577,-146.311 507.077,-156.311 514.077,-156.311"/>
</g>
<!-- 12003&#45;&gt;25152 -->
<g id="edge11" class="edge"><title>12003&#45;&gt;25152</title>
<path fill="none" stroke="green" stroke-width="0.27996" d="M324.209,-730.502C320.836,-721.39 316.971,-710.948 313.357,-701.185"/>
<polygon fill="green" stroke="green" stroke-width="0.27996" points="316.608,-699.885 309.855,-691.722 310.044,-702.315 316.608,-699.885"/>
</g>
<!-- 12003&#45;&gt;9704 -->
<g id="edge13" class="edge"><title>12003&#45;&gt;9704</title>
<path fill="none" stroke="red" stroke-width="0.603895" d="M312.115,-738.971C297.578,-727.022 278.395,-710.16 263.577,-693.235 239.222,-665.414 216.008,-629.896 200.921,-605.183"/>
<polygon fill="red" stroke="red" stroke-width="0.603895" points="203.906,-603.355 195.743,-596.601 197.912,-606.971 203.906,-603.355"/>
</g>
<!-- 24931&#45;&gt;12626 -->
<g id="edge30" class="edge"><title>24931&#45;&gt;12626</title>
<path fill="none" stroke="red" stroke-width="1.03813" d="M111.758,-729.258C116.294,-679.662 128.145,-575.391 149.577,-546.926 170.858,-518.662 190.463,-529.497 220.577,-510.926 222.718,-509.606 224.893,-508.194 227.059,-506.736"/>
<polygon fill="red" stroke="red" stroke-width="1.03813" points="229.102,-509.578 235.282,-500.972 225.084,-503.846 229.102,-509.578"/>
</g>
<!-- 21223&#45;&gt;9704 -->
<g id="edge51" class="edge"><title>21223&#45;&gt;9704</title>
<path fill="none" stroke="green" stroke-width="0.953917" d="M159.215,-820.443C164.141,-770.914 174.732,-664.43 180.183,-609.628"/>
<polygon fill="green" stroke="green" stroke-width="0.953917" points="183.694,-609.686 181.201,-599.389 176.729,-608.994 183.694,-609.686"/>
</g>
<!-- 9704&#45;&gt;12626 -->
<g id="edge43" class="edge"><title>9704&#45;&gt;12626</title>
<path fill="none" stroke="green" stroke-width="0.455092" d="M199.059,-554.596C208.902,-542.574 221.839,-526.775 232.95,-513.204"/>
<polygon fill="green" stroke="green" stroke-width="0.455092" points="235.961,-515.051 239.589,-505.097 230.545,-510.617 235.961,-515.051"/>
</g>
<!-- 10472 -->
<g id="node62" class="node"><title>10472</title>
<ellipse fill="white" stroke="black" cx="183.577" cy="-483.349" rx="27.6545" ry="27.6545"/>
<text text-anchor="middle" x="183.577" y="-481.149" font-family="Times,serif" font-size="9.00">10472</text>
</g>
<!-- 9704&#45;&gt;10472 -->
<g id="edge68" class="edge"><title>9704&#45;&gt;10472</title>
<path fill="none" stroke="green" stroke-width="0.516925" d="M183.577,-549.611C183.577,-540.899 183.577,-530.833 183.577,-521.254"/>
<polygon fill="green" stroke="green" stroke-width="0.516925" points="187.077,-521.138 183.577,-511.138 180.077,-521.138 187.077,-521.138"/>
</g>
<!-- 21996 -->
<g id="node65" class="node"><title>21996</title>
<ellipse fill="white" stroke="black" cx="256.577" cy="-301.04" rx="27.6545" ry="27.6545"/>
<text text-anchor="middle" x="256.577" y="-298.84" font-family="Times,serif" font-size="9.00">21996</text>
</g>
<!-- 21996&#45;&gt;13519 -->
<g id="edge38" class="edge"><title>21996&#45;&gt;13519</title>
<path fill="none" stroke="green" stroke-width="0.335387" d="M273.877,-278.912C283.423,-267.254 295.418,-252.604 305.83,-239.888"/>
<polygon fill="green" stroke="green" stroke-width="0.335387" points="308.774,-241.817 312.401,-231.862 303.358,-237.382 308.774,-241.817"/>
</g>
<!-- 10861&#45;&gt;19847 -->
<g id="edge5" class="edge"><title>10861&#45;&gt;19847</title>
<path fill="none" stroke="green" stroke-width="0.44314" d="M870.867,-748.467C897.568,-739.664 938.215,-722.334 961.577,-693.235 995.598,-650.86 994.577,-629.845 994.577,-575.503 994.577,-575.503 994.577,-575.503 994.577,-391.194 994.577,-341.416 998.041,-284.002 1000.67,-247.587"/>
<polygon fill="green" stroke="green" stroke-width="0.44314" points="1004.17,-247.675 1001.42,-237.444 997.193,-247.159 1004.17,-247.675"/>
</g>
<!-- 10861&#45;&gt;14355 -->
<g id="edge15" class="edge"><title>10861&#45;&gt;14355</title>
<path fill="none" stroke="green" stroke-width="0.756917" d="M865.202,-738.384C877.971,-726.695 893.91,-710.352 904.577,-693.235 934.039,-645.957 947.577,-631.209 947.577,-575.503 947.577,-575.503 947.577,-575.503 947.577,-208.886 947.577,-159.169 947.577,-101.741 947.577,-65.3051"/>
<polygon fill="green" stroke="green" stroke-width="0.756917" points="951.077,-65.1564 947.577,-55.1565 944.077,-65.1565 951.077,-65.1564"/>
</g>
<!-- 24316&#45;&gt;21996 -->
<g id="edge61" class="edge"><title>24316&#45;&gt;21996</title>
<path fill="none" stroke="red" stroke-width="1.0645" d="M256.577,-364.445C256.577,-356.423 256.577,-347.479 256.577,-338.924"/>
<polygon fill="red" stroke="red" stroke-width="1.0645" points="260.077,-338.77 256.577,-328.771 253.077,-338.771 260.077,-338.77"/>
</g>
</g>
</svg>
