<?xml version="1.0" encoding="UTF-8" standalone="no"?>
<!DOCTYPE svg PUBLIC "-//W3C//DTD SVG 1.1//EN"
 "http://www.w3.org/Graphics/SVG/1.1/DTD/svg11.dtd">
<!-- Generated by graphviz version 2.38.0 (20140413.2041)
 -->
<!-- Title: %3 Pages: 1 -->
<svg width="1710pt" height="604pt"
 viewBox="0.00 0.00 1710.15 604.42" xmlns="http://www.w3.org/2000/svg" xmlns:xlink="http://www.w3.org/1999/xlink">
<g id="graph0" class="graph" transform="scale(1 1) rotate(0) translate(4 600.423)">
<title>%3</title>
<polygon fill="white" stroke="none" points="-4,4 -4,-600.423 1706.15,-600.423 1706.15,4 -4,4"/>
<!-- &#45;1 -->
<g id="node1" class="node"><title>&#45;1</title>
<polygon fill="lightgray" stroke="black" points="684.577,-395.538 660.577,-395.538 660.577,-377.538 684.577,-377.538 684.577,-395.538"/>
<text text-anchor="middle" x="672.577" y="-384.338" font-family="Times,serif" font-size="9.00">&#45;1</text>
</g>
<!-- 9931 -->
<g id="node50" class="node"><title>9931</title>
<ellipse fill="white" stroke="black" cx="699.577" cy="-295.383" rx="25" ry="25"/>
<text text-anchor="middle" x="699.577" y="-293.183" font-family="Times,serif" font-size="9.00">9931</text>
</g>
<!-- &#45;1&#45;&gt;9931 -->
<g id="edge4" class="edge"><title>&#45;1&#45;&gt;9931</title>
<path fill="none" stroke="green" stroke-width="0.301975" d="M675.069,-377.31C678.365,-366.427 684.369,-346.602 689.609,-329.298"/>
<polygon fill="green" stroke="green" stroke-width="0.301975" points="693.031,-330.073 692.58,-319.488 686.332,-328.044 693.031,-330.073"/>
</g>
<!-- 5851 -->
<g id="node54" class="node"><title>5851</title>
<ellipse fill="white" stroke="black" cx="330.577" cy="-24.7487" rx="25" ry="25"/>
<text text-anchor="middle" x="330.577" y="-22.5487" font-family="Times,serif" font-size="9.00">5851</text>
</g>
<!-- &#45;1&#45;&gt;5851 -->
<g id="edge30" class="edge"><title>&#45;1&#45;&gt;5851</title>
<path fill="none" stroke="red" stroke-width="0.210535" d="M671.03,-377.528C663.074,-338.596 623.067,-167.671 519.577,-85.4975 473.959,-49.2758 406.039,-34.8324 365.253,-29.2033"/>
<polygon fill="red" stroke="red" stroke-width="0.210535" points="365.614,-25.7211 355.251,-27.9251 364.726,-32.6646 365.614,-25.7211"/>
</g>
<!-- 6507 -->
<g id="node60" class="node"><title>6507</title>
<ellipse fill="white" stroke="black" cx="803.577" cy="-295.383" rx="25" ry="25"/>
<text text-anchor="middle" x="803.577" y="-293.183" font-family="Times,serif" font-size="9.00">6507</text>
</g>
<!-- &#45;1&#45;&gt;6507 -->
<g id="edge9" class="edge"><title>&#45;1&#45;&gt;6507</title>
<path fill="none" stroke="green" stroke-width="0.226804" d="M677.758,-377.417C681.637,-371.77 687.332,-364.325 693.577,-358.96 717.308,-338.577 748.669,-321.51 771.831,-310.376"/>
<polygon fill="green" stroke="green" stroke-width="0.226804" points="773.333,-313.537 780.897,-306.118 770.358,-307.201 773.333,-313.537"/>
</g>
<!-- &#45;2 -->
<g id="node2" class="node"><title>&#45;2</title>
<polygon fill="lightgray" stroke="black" points="834.577,-577.846 810.577,-577.846 810.577,-559.846 834.577,-559.846 834.577,-577.846"/>
<text text-anchor="middle" x="822.577" y="-566.646" font-family="Times,serif" font-size="9.00">&#45;2</text>
</g>
<!-- &#45;3 -->
<g id="node3" class="node"><title>&#45;3</title>
<polygon fill="lightgray" stroke="black" points="600.577,-395.538 576.577,-395.538 576.577,-377.538 600.577,-377.538 600.577,-395.538"/>
<text text-anchor="middle" x="588.577" y="-384.338" font-family="Times,serif" font-size="9.00">&#45;3</text>
</g>
<!-- 2197 -->
<g id="node38" class="node"><title>2197</title>
<ellipse fill="white" stroke="black" cx="593.577" cy="-295.383" rx="25" ry="25"/>
<text text-anchor="middle" x="593.577" y="-293.183" font-family="Times,serif" font-size="9.00">2197</text>
</g>
<!-- &#45;3&#45;&gt;2197 -->
<g id="edge50" class="edge"><title>&#45;3&#45;&gt;2197</title>
<path fill="none" stroke="green" stroke-width="0.633455" d="M589.039,-377.31C589.635,-366.672 590.711,-347.488 591.666,-330.468"/>
<polygon fill="green" stroke="green" stroke-width="0.633455" points="595.173,-330.426 592.239,-320.246 588.184,-330.034 595.173,-330.426"/>
</g>
<!-- &#45;4 -->
<g id="node4" class="node"><title>&#45;4</title>
<polygon fill="lightgray" stroke="black" points="401.577,-486.692 377.577,-486.692 377.577,-468.692 401.577,-468.692 401.577,-486.692"/>
<text text-anchor="middle" x="389.577" y="-475.492" font-family="Times,serif" font-size="9.00">&#45;4</text>
</g>
<!-- 12003 -->
<g id="node56" class="node"><title>12003</title>
<ellipse fill="white" stroke="black" cx="477.577" cy="-386.538" rx="27.6545" ry="27.6545"/>
<text text-anchor="middle" x="477.577" y="-384.338" font-family="Times,serif" font-size="9.00">12003</text>
</g>
<!-- &#45;4&#45;&gt;12003 -->
<g id="edge2" class="edge"><title>&#45;4&#45;&gt;12003</title>
<path fill="none" stroke="red" stroke-width="0.810811" d="M395.523,-468.526C399.572,-463.132 405.16,-455.999 410.577,-450.115 422.693,-436.955 437.083,-423.29 449.416,-412.099"/>
<polygon fill="red" stroke="red" stroke-width="0.810811" points="452.074,-414.417 457.179,-405.133 447.398,-409.207 452.074,-414.417"/>
</g>
<!-- &#45;5 -->
<g id="node5" class="node"><title>&#45;5</title>
<polygon fill="lightgray" stroke="black" points="744.577,-577.846 720.577,-577.846 720.577,-559.846 744.577,-559.846 744.577,-577.846"/>
<text text-anchor="middle" x="732.577" y="-566.646" font-family="Times,serif" font-size="9.00">&#45;5</text>
</g>
<!-- 2 -->
<g id="node27" class="node"><title>2</title>
<ellipse fill="lightblue" stroke="black" cx="732.577" cy="-477.692" rx="14.7" ry="14.7"/>
<text text-anchor="middle" x="732.577" y="-475.492" font-family="Times,serif" font-size="9.00">2</text>
</g>
<!-- &#45;5&#45;&gt;2 -->
<g id="edge57" class="edge"><title>&#45;5&#45;&gt;2</title>
<path fill="none" stroke="red" stroke-width="0.853651" d="M732.577,-559.619C732.577,-546.862 732.577,-521.818 732.577,-502.951"/>
<polygon fill="red" stroke="red" stroke-width="0.853651" points="736.077,-502.696 732.577,-492.696 729.077,-502.696 736.077,-502.696"/>
</g>
<!-- &#45;6 -->
<g id="node6" class="node"><title>&#45;6</title>
<polygon fill="lightgray" stroke="black" points="900.577,-577.846 876.577,-577.846 876.577,-559.846 900.577,-559.846 900.577,-577.846"/>
<text text-anchor="middle" x="888.577" y="-566.646" font-family="Times,serif" font-size="9.00">&#45;6</text>
</g>
<!-- &#45;7 -->
<g id="node7" class="node"><title>&#45;7</title>
<polygon fill="lightgray" stroke="black" points="196.577,-395.538 172.577,-395.538 172.577,-377.538 196.577,-377.538 196.577,-395.538"/>
<text text-anchor="middle" x="184.577" y="-384.338" font-family="Times,serif" font-size="9.00">&#45;7</text>
</g>
<!-- 2831 -->
<g id="node36" class="node"><title>2831</title>
<ellipse fill="white" stroke="black" cx="235.577" cy="-204.229" rx="25" ry="25"/>
<text text-anchor="middle" x="235.577" y="-202.029" font-family="Times,serif" font-size="9.00">2831</text>
</g>
<!-- &#45;7&#45;&gt;2831 -->
<g id="edge6" class="edge"><title>&#45;7&#45;&gt;2831</title>
<path fill="none" stroke="red" stroke-width="0.425651" d="M184.773,-377.317C185.447,-357.811 188.433,-307.397 201.577,-267.806 205.395,-256.307 211.272,-244.441 217.073,-234.175"/>
<polygon fill="red" stroke="red" stroke-width="0.425651" points="220.267,-235.647 222.317,-225.253 214.233,-232.1 220.267,-235.647"/>
</g>
<!-- 4505 -->
<g id="node39" class="node"><title>4505</title>
<ellipse fill="white" stroke="black" cx="235.577" cy="-295.383" rx="25" ry="25"/>
<text text-anchor="middle" x="235.577" y="-293.183" font-family="Times,serif" font-size="9.00">4505</text>
</g>
<!-- &#45;7&#45;&gt;4505 -->
<g id="edge12" class="edge"><title>&#45;7&#45;&gt;4505</title>
<path fill="none" stroke="red" stroke-width="0.939985" d="M189.284,-377.31C195.877,-365.784 208.21,-344.224 218.489,-326.255"/>
<polygon fill="red" stroke="red" stroke-width="0.939985" points="221.709,-327.676 223.636,-317.258 215.633,-324.2 221.709,-327.676"/>
</g>
<!-- 12626 -->
<g id="node53" class="node"><title>12626</title>
<ellipse fill="white" stroke="black" cx="433.577" cy="-204.229" rx="27.6545" ry="27.6545"/>
<text text-anchor="middle" x="433.577" y="-202.029" font-family="Times,serif" font-size="9.00">12626</text>
</g>
<!-- &#45;7&#45;&gt;12626 -->
<g id="edge54" class="edge"><title>&#45;7&#45;&gt;12626</title>
<path fill="none" stroke="green" stroke-width="0.928538" d="M192.959,-377.518C198.825,-372.057 206.946,-364.789 214.577,-358.96 237.795,-341.227 248.675,-343.372 269.577,-322.96 290.874,-302.163 284.319,-286.385 307.577,-267.806 341.238,-240.918 359.941,-252.771 397.577,-231.806 399.774,-230.582 401.992,-229.243 404.189,-227.837"/>
<polygon fill="green" stroke="green" stroke-width="0.928538" points="406.186,-230.711 412.477,-222.186 402.243,-224.927 406.186,-230.711"/>
</g>
<!-- 24172 -->
<g id="node61" class="node"><title>24172</title>
<ellipse fill="white" stroke="black" cx="81.5772" cy="-204.229" rx="27.6545" ry="27.6545"/>
<text text-anchor="middle" x="81.5772" y="-202.029" font-family="Times,serif" font-size="9.00">24172</text>
</g>
<!-- &#45;7&#45;&gt;24172 -->
<g id="edge20" class="edge"><title>&#45;7&#45;&gt;24172</title>
<path fill="none" stroke="green" stroke-width="0.878082" d="M172.327,-381.548C151.203,-373.945 108.385,-355.202 89.5772,-322.96 75.3059,-298.496 74.1155,-266.12 76.0398,-241.512"/>
<polygon fill="green" stroke="green" stroke-width="0.878082" points="79.5301,-241.781 77.0262,-231.487 72.5638,-241.096 79.5301,-241.781"/>
</g>
<!-- &#45;8 -->
<g id="node8" class="node"><title>&#45;8</title>
<polygon fill="lightgray" stroke="black" points="642.577,-395.538 618.577,-395.538 618.577,-377.538 642.577,-377.538 642.577,-395.538"/>
<text text-anchor="middle" x="630.577" y="-384.338" font-family="Times,serif" font-size="9.00">&#45;8</text>
</g>
<!-- &#45;8&#45;&gt;2197 -->
<g id="edge53" class="edge"><title>&#45;8&#45;&gt;2197</title>
<path fill="none" stroke="green" stroke-width="0.319317" d="M627.163,-377.31C622.544,-366.18 614.043,-345.696 606.749,-328.123"/>
<polygon fill="green" stroke="green" stroke-width="0.319317" points="609.92,-326.631 602.854,-318.737 603.455,-329.315 609.92,-326.631"/>
</g>
<!-- &#45;8&#45;&gt;6507 -->
<g id="edge7" class="edge"><title>&#45;8&#45;&gt;6507</title>
<path fill="none" stroke="green" stroke-width="0.155636" d="M635.557,-377.166C639.34,-371.402 645.005,-363.919 651.577,-358.96 661.595,-351.403 729.607,-324.687 771.188,-308.709"/>
<polygon fill="green" stroke="green" stroke-width="0.155636" points="772.55,-311.936 780.635,-305.089 770.045,-305.399 772.55,-311.936"/>
</g>
<!-- &#45;9 -->
<g id="node9" class="node"><title>&#45;9</title>
<polygon fill="lightgray" stroke="black" points="954.577,-577.846 930.577,-577.846 930.577,-559.846 954.577,-559.846 954.577,-577.846"/>
<text text-anchor="middle" x="942.577" y="-566.646" font-family="Times,serif" font-size="9.00">&#45;9</text>
</g>
<!-- &#45;10 -->
<g id="node10" class="node"><title>&#45;10</title>
<polygon fill="lightgray" stroke="black" points="1008.08,-577.846 979.077,-577.846 979.077,-559.846 1008.08,-559.846 1008.08,-577.846"/>
<text text-anchor="middle" x="993.577" y="-566.646" font-family="Times,serif" font-size="9.00">&#45;10</text>
</g>
<!-- &#45;11 -->
<g id="node11" class="node"><title>&#45;11</title>
<polygon fill="lightgray" stroke="black" points="1057.08,-577.846 1028.08,-577.846 1028.08,-559.846 1057.08,-559.846 1057.08,-577.846"/>
<text text-anchor="middle" x="1042.58" y="-566.646" font-family="Times,serif" font-size="9.00">&#45;11</text>
</g>
<!-- &#45;12 -->
<g id="node12" class="node"><title>&#45;12</title>
<polygon fill="lightgray" stroke="black" points="1107.08,-577.846 1078.08,-577.846 1078.08,-559.846 1107.08,-559.846 1107.08,-577.846"/>
<text text-anchor="middle" x="1092.58" y="-566.646" font-family="Times,serif" font-size="9.00">&#45;12</text>
</g>
<!-- 6074 -->
<g id="node45" class="node"><title>6074</title>
<ellipse fill="white" stroke="black" cx="1092.58" cy="-477.692" rx="25" ry="25"/>
<text text-anchor="middle" x="1092.58" y="-475.492" font-family="Times,serif" font-size="9.00">6074</text>
</g>
<!-- &#45;12&#45;&gt;6074 -->
<g id="edge23" class="edge"><title>&#45;12&#45;&gt;6074</title>
<path fill="none" stroke="red" stroke-width="0.560397" d="M1092.58,-559.619C1092.58,-548.981 1092.58,-529.797 1092.58,-512.777"/>
<polygon fill="red" stroke="red" stroke-width="0.560397" points="1096.08,-512.554 1092.58,-502.554 1089.08,-512.554 1096.08,-512.554"/>
</g>
<!-- &#45;13 -->
<g id="node13" class="node"><title>&#45;13</title>
<polygon fill="lightgray" stroke="black" points="1154.08,-577.846 1125.08,-577.846 1125.08,-559.846 1154.08,-559.846 1154.08,-577.846"/>
<text text-anchor="middle" x="1139.58" y="-566.646" font-family="Times,serif" font-size="9.00">&#45;13</text>
</g>
<!-- &#45;14 -->
<g id="node14" class="node"><title>&#45;14</title>
<polygon fill="lightgray" stroke="black" points="346.077,-577.846 317.077,-577.846 317.077,-559.846 346.077,-559.846 346.077,-577.846"/>
<text text-anchor="middle" x="331.577" y="-566.646" font-family="Times,serif" font-size="9.00">&#45;14</text>
</g>
<!-- 18570 -->
<g id="node33" class="node"><title>18570</title>
<ellipse fill="white" stroke="black" cx="331.577" cy="-477.692" rx="27.6545" ry="27.6545"/>
<text text-anchor="middle" x="331.577" y="-475.492" font-family="Times,serif" font-size="9.00">18570</text>
</g>
<!-- &#45;14&#45;&gt;18570 -->
<g id="edge49" class="edge"><title>&#45;14&#45;&gt;18570</title>
<path fill="none" stroke="green" stroke-width="0.510718" d="M331.577,-559.619C331.577,-549.647 331.577,-532.166 331.577,-515.997"/>
<polygon fill="green" stroke="green" stroke-width="0.510718" points="335.077,-515.653 331.577,-505.653 328.077,-515.653 335.077,-515.653"/>
</g>
<!-- 17575 -->
<g id="node42" class="node"><title>17575</title>
<ellipse fill="white" stroke="black" cx="344.577" cy="-295.383" rx="27.6545" ry="27.6545"/>
<text text-anchor="middle" x="344.577" y="-293.183" font-family="Times,serif" font-size="9.00">17575</text>
</g>
<!-- &#45;14&#45;&gt;17575 -->
<g id="edge26" class="edge"><title>&#45;14&#45;&gt;17575</title>
<path fill="none" stroke="green" stroke-width="0.470843" d="M323.107,-559.571C294.754,-530.837 207.179,-433.097 247.577,-358.96 248.05,-358.092 284.847,-334.485 312.976,-316.522"/>
<polygon fill="green" stroke="green" stroke-width="0.470843" points="315.2,-319.254 321.747,-310.924 311.435,-313.354 315.2,-319.254"/>
</g>
<!-- 13885 -->
<g id="node46" class="node"><title>13885</title>
<ellipse fill="white" stroke="black" cx="447.577" cy="-477.692" rx="27.6545" ry="27.6545"/>
<text text-anchor="middle" x="447.577" y="-475.492" font-family="Times,serif" font-size="9.00">13885</text>
</g>
<!-- &#45;14&#45;&gt;13885 -->
<g id="edge27" class="edge"><title>&#45;14&#45;&gt;13885</title>
<path fill="none" stroke="green" stroke-width="0.102192" d="M342.282,-559.619C359.314,-546.528 393.183,-520.498 417.925,-501.482"/>
<polygon fill="green" stroke="green" stroke-width="0.102192" points="420.133,-504.199 425.929,-495.331 415.867,-498.649 420.133,-504.199"/>
</g>
<!-- &#45;14&#45;&gt;12003 -->
<g id="edge10" class="edge"><title>&#45;14&#45;&gt;12003</title>
<path fill="none" stroke="red" stroke-width="0.12263" d="M346.22,-566.973C377.949,-564.196 452.743,-552.683 484.577,-505.269 500.728,-481.214 496.885,-447.781 490.217,-422.687"/>
<polygon fill="red" stroke="red" stroke-width="0.12263" points="493.504,-421.457 487.345,-412.836 486.784,-423.416 493.504,-421.457"/>
</g>
<!-- 10861 -->
<g id="node63" class="node"><title>10861</title>
<ellipse fill="white" stroke="black" cx="126.577" cy="-295.383" rx="27.6545" ry="27.6545"/>
<text text-anchor="middle" x="126.577" y="-293.183" font-family="Times,serif" font-size="9.00">10861</text>
</g>
<!-- &#45;14&#45;&gt;10861 -->
<g id="edge31" class="edge"><title>&#45;14&#45;&gt;10861</title>
<path fill="none" stroke="red" stroke-width="0.193902" d="M318.016,-559.801C285.508,-539.744 202.925,-484.063 163.577,-414.115 149.239,-388.626 139.672,-356.847 133.864,-332.732"/>
<polygon fill="red" stroke="red" stroke-width="0.193902" points="137.257,-331.867 131.602,-322.907 130.435,-333.437 137.257,-331.867"/>
</g>
<!-- &#45;15 -->
<g id="node15" class="node"><title>&#45;15</title>
<polygon fill="lightgray" stroke="black" points="1201.08,-577.846 1172.08,-577.846 1172.08,-559.846 1201.08,-559.846 1201.08,-577.846"/>
<text text-anchor="middle" x="1186.58" y="-566.646" font-family="Times,serif" font-size="9.00">&#45;15</text>
</g>
<!-- &#45;16 -->
<g id="node16" class="node"><title>&#45;16</title>
<polygon fill="lightgray" stroke="black" points="1248.08,-577.846 1219.08,-577.846 1219.08,-559.846 1248.08,-559.846 1248.08,-577.846"/>
<text text-anchor="middle" x="1233.58" y="-566.646" font-family="Times,serif" font-size="9.00">&#45;16</text>
</g>
<!-- &#45;17 -->
<g id="node17" class="node"><title>&#45;17</title>
<polygon fill="lightgray" stroke="black" points="552.077,-395.538 523.077,-395.538 523.077,-377.538 552.077,-377.538 552.077,-395.538"/>
<text text-anchor="middle" x="537.577" y="-384.338" font-family="Times,serif" font-size="9.00">&#45;17</text>
</g>
<!-- 24138 -->
<g id="node49" class="node"><title>24138</title>
<ellipse fill="white" stroke="black" cx="484.577" cy="-295.383" rx="27.6545" ry="27.6545"/>
<text text-anchor="middle" x="484.577" y="-293.183" font-family="Times,serif" font-size="9.00">24138</text>
</g>
<!-- &#45;17&#45;&gt;24138 -->
<g id="edge55" class="edge"><title>&#45;17&#45;&gt;24138</title>
<path fill="none" stroke="red" stroke-width="0.13176" d="M532.686,-377.31C526.096,-366.224 513.988,-345.857 503.569,-328.33"/>
<polygon fill="red" stroke="red" stroke-width="0.13176" points="506.431,-326.295 498.312,-319.488 500.414,-329.872 506.431,-326.295"/>
</g>
<!-- &#45;17&#45;&gt;12626 -->
<g id="edge52" class="edge"><title>&#45;17&#45;&gt;12626</title>
<path fill="none" stroke="green" stroke-width="0.439746" d="M538.56,-377.395C540.583,-357.195 543.351,-303.814 521.577,-267.806 509.073,-247.127 486.849,-231.407 467.864,-220.895"/>
<polygon fill="green" stroke="green" stroke-width="0.439746" points="469.34,-217.717 458.861,-216.154 466.078,-223.91 469.34,-217.717"/>
</g>
<!-- 9704 -->
<g id="node58" class="node"><title>9704</title>
<ellipse fill="white" stroke="black" cx="414.577" cy="-295.383" rx="25" ry="25"/>
<text text-anchor="middle" x="414.577" y="-293.183" font-family="Times,serif" font-size="9.00">9704</text>
</g>
<!-- &#45;17&#45;&gt;9704 -->
<g id="edge51" class="edge"><title>&#45;17&#45;&gt;9704</title>
<path fill="none" stroke="red" stroke-width="0.684807" d="M531.797,-377.402C527.499,-371.748 521.245,-364.3 514.577,-358.96 488.191,-337.83 475.75,-341.642 447.577,-322.96 445.431,-321.538 443.256,-320.007 441.098,-318.425"/>
<polygon fill="red" stroke="red" stroke-width="0.684807" points="443.032,-315.497 432.969,-312.185 438.77,-321.05 443.032,-315.497"/>
</g>
<!-- &#45;18 -->
<g id="node18" class="node"><title>&#45;18</title>
<polygon fill="lightgray" stroke="black" points="1295.08,-577.846 1266.08,-577.846 1266.08,-559.846 1295.08,-559.846 1295.08,-577.846"/>
<text text-anchor="middle" x="1280.58" y="-566.646" font-family="Times,serif" font-size="9.00">&#45;18</text>
</g>
<!-- &#45;19 -->
<g id="node19" class="node"><title>&#45;19</title>
<polygon fill="lightgray" stroke="black" points="36.0772,-213.229 7.07716,-213.229 7.07716,-195.229 36.0772,-195.229 36.0772,-213.229"/>
<text text-anchor="middle" x="21.5772" y="-202.029" font-family="Times,serif" font-size="9.00">&#45;19</text>
</g>
<!-- 15758 -->
<g id="node35" class="node"><title>15758</title>
<ellipse fill="white" stroke="black" cx="27.5772" cy="-113.075" rx="27.6545" ry="27.6545"/>
<text text-anchor="middle" x="27.5772" y="-110.875" font-family="Times,serif" font-size="9.00">15758</text>
</g>
<!-- &#45;19&#45;&gt;15758 -->
<g id="edge17" class="edge"><title>&#45;19&#45;&gt;15758</title>
<path fill="none" stroke="green" stroke-width="0.515487" d="M22.1309,-195.001C22.8067,-184.959 23.9951,-167.3 25.0897,-151.036"/>
<polygon fill="green" stroke="green" stroke-width="0.515487" points="28.6097,-150.855 25.7892,-140.643 21.6255,-150.385 28.6097,-150.855"/>
</g>
<!-- &#45;20 -->
<g id="node20" class="node"><title>&#45;20</title>
<polygon fill="lightgray" stroke="black" points="286.077,-395.538 257.077,-395.538 257.077,-377.538 286.077,-377.538 286.077,-395.538"/>
<text text-anchor="middle" x="271.577" y="-384.338" font-family="Times,serif" font-size="9.00">&#45;20</text>
</g>
<!-- &#45;20&#45;&gt;9704 -->
<g id="edge28" class="edge"><title>&#45;20&#45;&gt;9704</title>
<path fill="none" stroke="red" stroke-width="0.601816" d="M277.197,-377.191C281.42,-371.438 287.649,-363.958 294.577,-358.96 328.516,-334.48 345.582,-344.302 381.577,-322.96 383.792,-321.647 386.018,-320.197 388.21,-318.67"/>
<polygon fill="red" stroke="red" stroke-width="0.601816" points="390.496,-321.332 396.409,-312.541 386.304,-315.726 390.496,-321.332"/>
</g>
<!-- &#45;20&#45;&gt;10861 -->
<g id="edge11" class="edge"><title>&#45;20&#45;&gt;10861</title>
<path fill="none" stroke="green" stroke-width="0.960475" d="M258.454,-377.469C236.056,-363.697 189.839,-335.28 158.516,-316.021"/>
<polygon fill="green" stroke="green" stroke-width="0.960475" points="160.064,-312.865 149.713,-310.608 156.398,-318.828 160.064,-312.865"/>
</g>
<!-- &#45;21 -->
<g id="node21" class="node"><title>&#45;21</title>
<polygon fill="lightgray" stroke="black" points="315.077,-122.075 286.077,-122.075 286.077,-104.075 315.077,-104.075 315.077,-122.075"/>
<text text-anchor="middle" x="300.577" y="-110.875" font-family="Times,serif" font-size="9.00">&#45;21</text>
</g>
<!-- &#45;21&#45;&gt;5851 -->
<g id="edge22" class="edge"><title>&#45;21&#45;&gt;5851</title>
<path fill="none" stroke="green" stroke-width="0.533765" d="M303.454,-103.797C307.097,-93.3132 313.591,-74.6271 319.311,-58.1672"/>
<polygon fill="green" stroke="green" stroke-width="0.533765" points="322.764,-58.8943 322.74,-48.2995 316.152,-56.5964 322.764,-58.8943"/>
</g>
<!-- &#45;22 -->
<g id="node22" class="node"><title>&#45;22</title>
<polygon fill="lightgray" stroke="black" points="1342.08,-577.846 1313.08,-577.846 1313.08,-559.846 1342.08,-559.846 1342.08,-577.846"/>
<text text-anchor="middle" x="1327.58" y="-566.646" font-family="Times,serif" font-size="9.00">&#45;22</text>
</g>
<!-- &#45;23 -->
<g id="node23" class="node"><title>&#45;23</title>
<polygon fill="lightgray" stroke="black" points="1389.08,-577.846 1360.08,-577.846 1360.08,-559.846 1389.08,-559.846 1389.08,-577.846"/>
<text text-anchor="middle" x="1374.58" y="-566.646" font-family="Times,serif" font-size="9.00">&#45;23</text>
</g>
<!-- &#45;24 -->
<g id="node24" class="node"><title>&#45;24</title>
<polygon fill="lightgray" stroke="black" points="1436.08,-577.846 1407.08,-577.846 1407.08,-559.846 1436.08,-559.846 1436.08,-577.846"/>
<text text-anchor="middle" x="1421.58" y="-566.646" font-family="Times,serif" font-size="9.00">&#45;24</text>
</g>
<!-- 0 -->
<g id="node25" class="node"><title>0</title>
<ellipse fill="lightblue" stroke="black" cx="1468.58" cy="-568.846" rx="14.7" ry="14.7"/>
<text text-anchor="middle" x="1468.58" y="-566.646" font-family="Times,serif" font-size="9.00">0</text>
</g>
<!-- 1 -->
<g id="node26" class="node"><title>1</title>
<ellipse fill="lightblue" stroke="black" cx="495.577" cy="-113.075" rx="14.7" ry="14.7"/>
<text text-anchor="middle" x="495.577" y="-110.875" font-family="Times,serif" font-size="9.00">1</text>
</g>
<!-- 24582 -->
<g id="node29" class="node"><title>24582</title>
<ellipse fill="white" stroke="black" cx="730.577" cy="-386.538" rx="27.6545" ry="27.6545"/>
<text text-anchor="middle" x="730.577" y="-384.338" font-family="Times,serif" font-size="9.00">24582</text>
</g>
<!-- 2&#45;&gt;24582 -->
<g id="edge15" class="edge"><title>2&#45;&gt;24582</title>
<path fill="none" stroke="green" stroke-width="0.658394" d="M732.265,-462.762C732.034,-452.459 731.707,-437.922 731.403,-424.371"/>
<polygon fill="green" stroke="green" stroke-width="0.658394" points="734.901,-424.206 731.177,-414.287 727.902,-424.363 734.901,-424.206"/>
</g>
<!-- 21821 -->
<g id="node47" class="node"><title>21821</title>
<ellipse fill="white" stroke="black" cx="803.577" cy="-386.538" rx="27.6545" ry="27.6545"/>
<text text-anchor="middle" x="803.577" y="-384.338" font-family="Times,serif" font-size="9.00">21821</text>
</g>
<!-- 2&#45;&gt;21821 -->
<g id="edge24" class="edge"><title>2&#45;&gt;21821</title>
<path fill="none" stroke="green" stroke-width="0.675959" d="M741.569,-465.4C751.318,-453.159 767.262,-433.138 780.541,-416.464"/>
<polygon fill="green" stroke="green" stroke-width="0.675959" points="783.316,-418.598 786.807,-408.595 777.84,-414.238 783.316,-418.598"/>
</g>
<!-- 3 -->
<g id="node28" class="node"><title>3</title>
<ellipse fill="lightblue" stroke="black" cx="1528.58" cy="-477.692" rx="14.7" ry="14.7"/>
<text text-anchor="middle" x="1528.58" y="-475.492" font-family="Times,serif" font-size="9.00">3</text>
</g>
<!-- 19847 -->
<g id="node30" class="node"><title>19847</title>
<ellipse fill="white" stroke="black" cx="154.577" cy="-204.229" rx="27.6545" ry="27.6545"/>
<text text-anchor="middle" x="154.577" y="-202.029" font-family="Times,serif" font-size="9.00">19847</text>
</g>
<!-- 14355 -->
<g id="node37" class="node"><title>14355</title>
<ellipse fill="white" stroke="black" cx="154.577" cy="-113.075" rx="27.6545" ry="27.6545"/>
<text text-anchor="middle" x="154.577" y="-110.875" font-family="Times,serif" font-size="9.00">14355</text>
</g>
<!-- 19847&#45;&gt;14355 -->
<g id="edge45" class="edge"><title>19847&#45;&gt;14355</title>
<path fill="none" stroke="red" stroke-width="0.34753" d="M154.577,-176.48C154.577,-168.458 154.577,-159.513 154.577,-150.958"/>
<polygon fill="red" stroke="red" stroke-width="0.34753" points="158.077,-150.805 154.577,-140.805 151.077,-150.805 158.077,-150.805"/>
</g>
<!-- 14216 -->
<g id="node31" class="node"><title>14216</title>
<ellipse fill="white" stroke="black" cx="1601.58" cy="-568.846" rx="27.6545" ry="27.6545"/>
<text text-anchor="middle" x="1601.58" y="-566.646" font-family="Times,serif" font-size="9.00">14216</text>
</g>
<!-- 13193 -->
<g id="node32" class="node"><title>13193</title>
<ellipse fill="white" stroke="black" cx="1674.58" cy="-568.846" rx="27.6545" ry="27.6545"/>
<text text-anchor="middle" x="1674.58" y="-566.646" font-family="Times,serif" font-size="9.00">13193</text>
</g>
<!-- 17721 -->
<g id="node44" class="node"><title>17721</title>
<ellipse fill="white" stroke="black" cx="1646.58" cy="-477.692" rx="27.6545" ry="27.6545"/>
<text text-anchor="middle" x="1646.58" y="-475.492" font-family="Times,serif" font-size="9.00">17721</text>
</g>
<!-- 13193&#45;&gt;17721 -->
<g id="edge48" class="edge"><title>13193&#45;&gt;17721</title>
<path fill="none" stroke="red" stroke-width="0.529262" d="M1666.48,-542.059C1663.7,-533.204 1660.54,-523.138 1657.56,-513.677"/>
<polygon fill="red" stroke="red" stroke-width="0.529262" points="1660.9,-512.605 1654.56,-504.113 1654.22,-514.703 1660.9,-512.605"/>
</g>
<!-- 10705 -->
<g id="node52" class="node"><title>10705</title>
<ellipse fill="white" stroke="black" cx="1674.58" cy="-386.538" rx="27.6545" ry="27.6545"/>
<text text-anchor="middle" x="1674.58" y="-384.338" font-family="Times,serif" font-size="9.00">10705</text>
</g>
<!-- 13193&#45;&gt;10705 -->
<g id="edge56" class="edge"><title>13193&#45;&gt;10705</title>
<path fill="none" stroke="red" stroke-width="0.21551" d="M1679.23,-541.446C1680.97,-530.318 1682.72,-517.202 1683.58,-505.269 1685.33,-480.819 1685.33,-474.565 1683.58,-450.115 1682.97,-441.631 1681.91,-432.549 1680.72,-424.009"/>
<polygon fill="red" stroke="red" stroke-width="0.21551" points="1684.15,-423.318 1679.23,-413.938 1677.23,-424.342 1684.15,-423.318"/>
</g>
<!-- 20575 -->
<g id="node55" class="node"><title>20575</title>
<ellipse fill="white" stroke="black" cx="331.577" cy="-386.538" rx="27.6545" ry="27.6545"/>
<text text-anchor="middle" x="331.577" y="-384.338" font-family="Times,serif" font-size="9.00">20575</text>
</g>
<!-- 18570&#45;&gt;20575 -->
<g id="edge29" class="edge"><title>18570&#45;&gt;20575</title>
<path fill="none" stroke="green" stroke-width="0.341031" d="M331.577,-449.943C331.577,-441.92 331.577,-432.976 331.577,-424.421"/>
<polygon fill="green" stroke="green" stroke-width="0.341031" points="335.077,-424.268 331.577,-414.268 328.077,-424.268 335.077,-424.268"/>
</g>
<!-- 18570&#45;&gt;12003 -->
<g id="edge58" class="edge"><title>18570&#45;&gt;12003</title>
<path fill="none" stroke="red" stroke-width="1.02609" d="M353.086,-460.339C358.068,-456.807 363.423,-453.208 368.577,-450.115 399.595,-431.499 410.681,-432.932 441.577,-414.115 443.725,-412.807 445.906,-411.404 448.076,-409.952"/>
<polygon fill="red" stroke="red" stroke-width="1.02609" points="450.114,-412.798 456.307,-404.202 446.105,-407.06 450.114,-412.798"/>
</g>
<!-- 16141 -->
<g id="node34" class="node"><title>16141</title>
<ellipse fill="white" stroke="black" cx="1528.58" cy="-568.846" rx="27.6545" ry="27.6545"/>
<text text-anchor="middle" x="1528.58" y="-566.646" font-family="Times,serif" font-size="9.00">16141</text>
</g>
<!-- 16141&#45;&gt;3 -->
<g id="edge39" class="edge"><title>16141&#45;&gt;3</title>
<path fill="none" stroke="red" stroke-width="0.361391" d="M1528.58,-541.097C1528.58,-528.923 1528.58,-514.626 1528.58,-502.79"/>
<polygon fill="red" stroke="red" stroke-width="0.361391" points="1532.08,-502.743 1528.58,-492.743 1525.08,-502.743 1532.08,-502.743"/>
</g>
<!-- 15758&#45;&gt;5851 -->
<g id="edge37" class="edge"><title>15758&#45;&gt;5851</title>
<path fill="none" stroke="green" stroke-width="0.43259" d="M51.1148,-98.5381C59.8481,-93.9222 69.9689,-89.0384 79.5772,-85.4975 154.564,-57.8624 246.939,-39.7266 296.047,-31.2718"/>
<polygon fill="green" stroke="green" stroke-width="0.43259" points="296.857,-34.6846 306.134,-29.5671 295.69,-27.7825 296.857,-34.6846"/>
</g>
<!-- 2831&#45;&gt;1 -->
<g id="edge3" class="edge"><title>2831&#45;&gt;1</title>
<path fill="none" stroke="red" stroke-width="0.394703" d="M259.109,-195.16C308.591,-178.193 422.905,-138.994 472.227,-122.081"/>
<polygon fill="red" stroke="red" stroke-width="0.394703" points="473.395,-125.381 481.719,-118.827 471.124,-118.76 473.395,-125.381"/>
</g>
<!-- 2197&#45;&gt;1 -->
<g id="edge40" class="edge"><title>2197&#45;&gt;1</title>
<path fill="none" stroke="green" stroke-width="0.884873" d="M582.144,-273.347C563.314,-238.702 525.986,-170.024 507.099,-135.273"/>
<polygon fill="green" stroke="green" stroke-width="0.884873" points="510.142,-133.543 502.291,-126.428 503.992,-136.886 510.142,-133.543"/>
</g>
<!-- 2197&#45;&gt;12626 -->
<g id="edge8" class="edge"><title>2197&#45;&gt;12626</title>
<path fill="none" stroke="red" stroke-width="0.556655" d="M573.638,-280.115C567.611,-275.989 560.911,-271.583 554.577,-267.806 525.886,-250.696 492.019,-233.417 467.423,-221.363"/>
<polygon fill="red" stroke="red" stroke-width="0.556655" points="468.675,-218.08 458.152,-216.852 465.612,-224.375 468.675,-218.08"/>
</g>
<!-- 4505&#45;&gt;2831 -->
<g id="edge18" class="edge"><title>4505&#45;&gt;2831</title>
<path fill="none" stroke="red" stroke-width="0.888916" d="M235.577,-270.492C235.577,-260.898 235.577,-249.662 235.577,-239.242"/>
<polygon fill="red" stroke="red" stroke-width="0.888916" points="239.077,-239.187 235.577,-229.187 232.077,-239.187 239.077,-239.187"/>
</g>
<!-- 26270 -->
<g id="node40" class="node"><title>26270</title>
<ellipse fill="white" stroke="black" cx="360.577" cy="-204.229" rx="27.6545" ry="27.6545"/>
<text text-anchor="middle" x="360.577" y="-202.029" font-family="Times,serif" font-size="9.00">26270</text>
</g>
<!-- 10472 -->
<g id="node59" class="node"><title>10472</title>
<ellipse fill="white" stroke="black" cx="360.577" cy="-113.075" rx="27.6545" ry="27.6545"/>
<text text-anchor="middle" x="360.577" y="-110.875" font-family="Times,serif" font-size="9.00">10472</text>
</g>
<!-- 26270&#45;&gt;10472 -->
<g id="edge43" class="edge"><title>26270&#45;&gt;10472</title>
<path fill="none" stroke="red" stroke-width="0.298575" d="M360.577,-176.48C360.577,-168.458 360.577,-159.513 360.577,-150.958"/>
<polygon fill="red" stroke="red" stroke-width="0.298575" points="364.077,-150.805 360.577,-140.805 357.077,-150.805 364.077,-150.805"/>
</g>
<!-- 7718 -->
<g id="node41" class="node"><title>7718</title>
<ellipse fill="white" stroke="black" cx="878.577" cy="-477.692" rx="25" ry="25"/>
<text text-anchor="middle" x="878.577" y="-475.492" font-family="Times,serif" font-size="9.00">7718</text>
</g>
<!-- 12339 -->
<g id="node43" class="node"><title>12339</title>
<ellipse fill="white" stroke="black" cx="1022.58" cy="-386.538" rx="27.6545" ry="27.6545"/>
<text text-anchor="middle" x="1022.58" y="-384.338" font-family="Times,serif" font-size="9.00">12339</text>
</g>
<!-- 7718&#45;&gt;12339 -->
<g id="edge36" class="edge"><title>7718&#45;&gt;12339</title>
<path fill="none" stroke="green" stroke-width="0.97063" d="M900.105,-465.141C922.209,-453.068 957.404,-433.251 986.577,-414.115 988.68,-412.735 990.827,-411.28 992.973,-409.789"/>
<polygon fill="green" stroke="green" stroke-width="0.97063" points="995.043,-412.612 1001.15,-403.955 990.978,-406.913 995.043,-412.612"/>
</g>
<!-- 7718&#45;&gt;21821 -->
<g id="edge25" class="edge"><title>7718&#45;&gt;21821</title>
<path fill="none" stroke="red" stroke-width="1.82744" d="M863.037,-458.219C852.779,-446.025 839.136,-429.808 827.506,-415.983"/>
<polygon fill="red" stroke="red" stroke-width="1.82744" points="830.048,-413.567 820.932,-408.168 824.692,-418.074 830.048,-413.567"/>
</g>
<!-- 17575&#45;&gt;2831 -->
<g id="edge16" class="edge"><title>17575&#45;&gt;2831</title>
<path fill="none" stroke="green" stroke-width="0.778329" d="M323.561,-277.193C306.101,-262.912 281.155,-242.508 262.282,-227.071"/>
<polygon fill="green" stroke="green" stroke-width="0.778329" points="264.302,-224.203 254.346,-220.581 259.871,-229.621 264.302,-224.203"/>
</g>
<!-- 17721&#45;&gt;10705 -->
<g id="edge35" class="edge"><title>17721&#45;&gt;10705</title>
<path fill="none" stroke="green" stroke-width="0.753422" d="M1654.68,-450.905C1657.46,-442.05 1660.62,-431.984 1663.59,-422.523"/>
<polygon fill="green" stroke="green" stroke-width="0.753422" points="1666.94,-423.548 1666.59,-412.959 1660.26,-421.451 1666.94,-423.548"/>
</g>
<!-- 13885&#45;&gt;12003 -->
<g id="edge46" class="edge"><title>13885&#45;&gt;12003</title>
<path fill="none" stroke="green" stroke-width="0.803141" d="M456.094,-451.382C459.102,-442.442 462.542,-432.221 465.773,-422.616"/>
<polygon fill="green" stroke="green" stroke-width="0.803141" points="469.167,-423.505 469.039,-412.91 462.533,-421.272 469.167,-423.505"/>
</g>
<!-- 21821&#45;&gt;6507 -->
<g id="edge21" class="edge"><title>21821&#45;&gt;6507</title>
<path fill="none" stroke="green" stroke-width="0.433315" d="M803.577,-358.788C803.577,-349.919 803.577,-339.922 803.577,-330.572"/>
<polygon fill="green" stroke="green" stroke-width="0.433315" points="807.077,-330.383 803.577,-320.383 800.077,-330.383 807.077,-330.383"/>
</g>
<!-- 16194 -->
<g id="node48" class="node"><title>16194</title>
<ellipse fill="white" stroke="black" cx="876.577" cy="-386.538" rx="27.6545" ry="27.6545"/>
<text text-anchor="middle" x="876.577" y="-384.338" font-family="Times,serif" font-size="9.00">16194</text>
</g>
<!-- 16194&#45;&gt;6507 -->
<g id="edge19" class="edge"><title>16194&#45;&gt;6507</title>
<path fill="none" stroke="red" stroke-width="1.49067" d="M859.277,-364.409C849.082,-351.958 836.092,-336.094 825.222,-322.818"/>
<polygon fill="red" stroke="red" stroke-width="1.49067" points="827.815,-320.461 818.772,-314.941 822.399,-324.895 827.815,-320.461"/>
</g>
<!-- 16590 -->
<g id="node51" class="node"><title>16590</title>
<ellipse fill="white" stroke="black" cx="949.577" cy="-386.538" rx="27.6545" ry="27.6545"/>
<text text-anchor="middle" x="949.577" y="-384.338" font-family="Times,serif" font-size="9.00">16590</text>
</g>
<!-- 16590&#45;&gt;6507 -->
<g id="edge1" class="edge"><title>16590&#45;&gt;6507</title>
<path fill="none" stroke="green" stroke-width="0.206395" d="M928.17,-369.091C923.438,-365.637 918.397,-362.095 913.577,-358.96 887.468,-341.982 856.547,-324.62 834.148,-312.505"/>
<polygon fill="green" stroke="green" stroke-width="0.206395" points="835.575,-309.298 825.109,-307.65 832.263,-315.465 835.575,-309.298"/>
</g>
<!-- 12626&#45;&gt;5851 -->
<g id="edge42" class="edge"><title>12626&#45;&gt;5851</title>
<path fill="none" stroke="green" stroke-width="0.284188" d="M429.71,-176.704C425.115,-151.634 415.676,-113.755 397.577,-85.4975 387.553,-69.8468 372.33,-55.8121 358.926,-45.284"/>
<polygon fill="green" stroke="green" stroke-width="0.284188" points="360.966,-42.4382 350.878,-39.1987 356.744,-48.0218 360.966,-42.4382"/>
</g>
<!-- 20575&#45;&gt;17575 -->
<g id="edge32" class="edge"><title>20575&#45;&gt;17575</title>
<path fill="none" stroke="red" stroke-width="0.826909" d="M335.478,-358.788C336.671,-350.604 338.004,-341.46 339.274,-332.75"/>
<polygon fill="red" stroke="red" stroke-width="0.826909" points="342.745,-333.207 340.724,-322.806 335.818,-332.197 342.745,-333.207"/>
</g>
<!-- 12003&#45;&gt;9704 -->
<g id="edge13" class="edge"><title>12003&#45;&gt;9704</title>
<path fill="none" stroke="red" stroke-width="0.17166" d="M462.004,-363.499C453.655,-351.685 443.281,-337.003 434.366,-324.387"/>
<polygon fill="red" stroke="red" stroke-width="0.17166" points="437.099,-322.19 428.47,-316.043 431.382,-326.23 437.099,-322.19"/>
</g>
<!-- 21223 -->
<g id="node57" class="node"><title>21223</title>
<ellipse fill="white" stroke="black" cx="404.577" cy="-386.538" rx="27.6545" ry="27.6545"/>
<text text-anchor="middle" x="404.577" y="-384.338" font-family="Times,serif" font-size="9.00">21223</text>
</g>
<!-- 21223&#45;&gt;9704 -->
<g id="edge47" class="edge"><title>21223&#45;&gt;9704</title>
<path fill="none" stroke="green" stroke-width="0.548282" d="M407.577,-358.788C408.591,-349.748 409.737,-339.537 410.803,-330.032"/>
<polygon fill="green" stroke="green" stroke-width="0.548282" points="414.282,-330.413 411.919,-320.085 407.326,-329.632 414.282,-330.413"/>
</g>
<!-- 9704&#45;&gt;26270 -->
<g id="edge14" class="edge"><title>9704&#45;&gt;26270</title>
<path fill="none" stroke="green" stroke-width="0.336706" d="M402.053,-273.705C395.434,-262.778 387.167,-249.13 379.76,-236.9"/>
<polygon fill="green" stroke="green" stroke-width="0.336706" points="382.728,-235.044 374.554,-228.304 376.741,-238.671 382.728,-235.044"/>
</g>
<!-- 9704&#45;&gt;12626 -->
<g id="edge33" class="edge"><title>9704&#45;&gt;12626</title>
<path fill="none" stroke="green" stroke-width="0.427962" d="M419.569,-270.959C421.495,-261.922 423.743,-251.376 425.866,-241.411"/>
<polygon fill="green" stroke="green" stroke-width="0.427962" points="429.355,-241.833 428.016,-231.323 422.509,-240.374 429.355,-241.833"/>
</g>
<!-- 10472&#45;&gt;5851 -->
<g id="edge34" class="edge"><title>10472&#45;&gt;5851</title>
<path fill="none" stroke="green" stroke-width="0.643339" d="M351.738,-86.6409C348.608,-77.6343 345.045,-67.3812 341.747,-57.8901"/>
<polygon fill="green" stroke="green" stroke-width="0.643339" points="345.024,-56.6563 338.435,-48.3594 338.411,-58.9542 345.024,-56.6563"/>
</g>
<!-- 24172&#45;&gt;5851 -->
<g id="edge38" class="edge"><title>24172&#45;&gt;5851</title>
<path fill="none" stroke="red" stroke-width="0.112057" d="M82.6016,-176.558C85.07,-149.911 92.963,-109.545 117.577,-85.4975 166.001,-38.1873 248.725,-27.701 295.555,-25.7583"/>
<polygon fill="red" stroke="red" stroke-width="0.112057" points="295.924,-29.2488 305.813,-25.4464 295.711,-22.252 295.924,-29.2488"/>
</g>
<!-- 21996 -->
<g id="node62" class="node"><title>21996</title>
<ellipse fill="white" stroke="black" cx="1022.58" cy="-477.692" rx="27.6545" ry="27.6545"/>
<text text-anchor="middle" x="1022.58" y="-475.492" font-family="Times,serif" font-size="9.00">21996</text>
</g>
<!-- 21996&#45;&gt;12339 -->
<g id="edge44" class="edge"><title>21996&#45;&gt;12339</title>
<path fill="none" stroke="red" stroke-width="1.46325" d="M1022.58,-449.943C1022.58,-441.92 1022.58,-432.976 1022.58,-424.421"/>
<polygon fill="red" stroke="red" stroke-width="1.46325" points="1026.08,-424.268 1022.58,-414.268 1019.08,-424.268 1026.08,-424.268"/>
</g>
<!-- 10861&#45;&gt;19847 -->
<g id="edge5" class="edge"><title>10861&#45;&gt;19847</title>
<path fill="none" stroke="green" stroke-width="0.658082" d="M134.676,-268.596C137.457,-259.741 140.618,-249.675 143.59,-240.214"/>
<polygon fill="green" stroke="green" stroke-width="0.658082" points="146.936,-241.24 146.593,-230.65 140.258,-239.142 146.936,-241.24"/>
</g>
<!-- 10861&#45;&gt;2831 -->
<g id="edge41" class="edge"><title>10861&#45;&gt;2831</title>
<path fill="none" stroke="green" stroke-width="0.485268" d="M147.593,-277.193C165.053,-262.912 189.999,-242.508 208.873,-227.071"/>
<polygon fill="green" stroke="green" stroke-width="0.485268" points="211.284,-229.621 216.808,-220.581 206.852,-224.203 211.284,-229.621"/>
</g>
</g>
</svg>
