<?xml version="1.0" encoding="UTF-8" standalone="no"?>
<!DOCTYPE svg PUBLIC "-//W3C//DTD SVG 1.1//EN"
 "http://www.w3.org/Graphics/SVG/1.1/DTD/svg11.dtd">
<!-- Generated by graphviz version 2.38.0 (20140413.2041)
 -->
<!-- Title: %3 Pages: 1 -->
<svg width="1756pt" height="604pt"
 viewBox="0.00 0.00 1756.33 604.42" xmlns="http://www.w3.org/2000/svg" xmlns:xlink="http://www.w3.org/1999/xlink">
<g id="graph0" class="graph" transform="scale(1 1) rotate(0) translate(4 600.423)">
<title>%3</title>
<polygon fill="white" stroke="none" points="-4,4 -4,-600.423 1752.33,-600.423 1752.33,4 -4,4"/>
<!-- &#45;1 -->
<g id="node1" class="node"><title>&#45;1</title>
<polygon fill="lightgray" stroke="black" points="213.577,-213.229 189.577,-213.229 189.577,-195.229 213.577,-195.229 213.577,-213.229"/>
<text text-anchor="middle" x="201.577" y="-202.029" font-family="Times,serif" font-size="9.00">&#45;1</text>
</g>
<!-- 9931 -->
<g id="node50" class="node"><title>9931</title>
<ellipse fill="white" stroke="black" cx="148.577" cy="-113.075" rx="25" ry="25"/>
<text text-anchor="middle" x="148.577" y="-110.875" font-family="Times,serif" font-size="9.00">9931</text>
</g>
<!-- &#45;1&#45;&gt;9931 -->
<g id="edge5" class="edge"><title>&#45;1&#45;&gt;9931</title>
<path fill="none" stroke="green" stroke-width="1.09922" d="M196.686,-195.001C189.834,-183.475 177.017,-161.916 166.335,-143.946"/>
<polygon fill="green" stroke="green" stroke-width="1.09922" points="169.105,-141.757 160.987,-134.949 163.088,-145.334 169.105,-141.757"/>
</g>
<!-- 5851 -->
<g id="node55" class="node"><title>5851</title>
<ellipse fill="white" stroke="black" cx="732.577" cy="-113.075" rx="25" ry="25"/>
<text text-anchor="middle" x="732.577" y="-110.875" font-family="Times,serif" font-size="9.00">5851</text>
</g>
<!-- &#45;1&#45;&gt;5851 -->
<g id="edge31" class="edge"><title>&#45;1&#45;&gt;5851</title>
<path fill="none" stroke="red" stroke-width="0.623879" d="M213.666,-201.199C279.186,-190.199 592.656,-137.567 697.976,-119.884"/>
<polygon fill="red" stroke="red" stroke-width="0.623879" points="698.79,-123.297 708.072,-118.189 697.631,-116.393 698.79,-123.297"/>
</g>
<!-- 6507 -->
<g id="node61" class="node"><title>6507</title>
<ellipse fill="white" stroke="black" cx="257.577" cy="-24.7487" rx="25" ry="25"/>
<text text-anchor="middle" x="257.577" y="-22.5487" font-family="Times,serif" font-size="9.00">6507</text>
</g>
<!-- &#45;1&#45;&gt;6507 -->
<g id="edge14" class="edge"><title>&#45;1&#45;&gt;6507</title>
<path fill="none" stroke="green" stroke-width="0.521479" d="M201.805,-194.954C202.578,-175.329 205.953,-124.679 220.577,-85.4975 224.726,-74.3829 231.061,-63.0919 237.322,-53.3618"/>
<polygon fill="green" stroke="green" stroke-width="0.521479" points="240.324,-55.1693 242.988,-44.9147 234.511,-51.2702 240.324,-55.1693"/>
</g>
<!-- &#45;2 -->
<g id="node2" class="node"><title>&#45;2</title>
<polygon fill="lightgray" stroke="black" points="928.577,-577.846 904.577,-577.846 904.577,-559.846 928.577,-559.846 928.577,-577.846"/>
<text text-anchor="middle" x="916.577" y="-566.646" font-family="Times,serif" font-size="9.00">&#45;2</text>
</g>
<!-- &#45;3 -->
<g id="node3" class="node"><title>&#45;3</title>
<polygon fill="lightgray" stroke="black" points="576.577,-395.538 552.577,-395.538 552.577,-377.538 576.577,-377.538 576.577,-395.538"/>
<text text-anchor="middle" x="564.577" y="-384.338" font-family="Times,serif" font-size="9.00">&#45;3</text>
</g>
<!-- 2197 -->
<g id="node38" class="node"><title>2197</title>
<ellipse fill="white" stroke="black" cx="564.577" cy="-295.383" rx="25" ry="25"/>
<text text-anchor="middle" x="564.577" y="-293.183" font-family="Times,serif" font-size="9.00">2197</text>
</g>
<!-- &#45;3&#45;&gt;2197 -->
<g id="edge48" class="edge"><title>&#45;3&#45;&gt;2197</title>
<path fill="none" stroke="green" stroke-width="0.658362" d="M564.577,-377.31C564.577,-366.672 564.577,-347.488 564.577,-330.468"/>
<polygon fill="green" stroke="green" stroke-width="0.658362" points="568.077,-330.246 564.577,-320.246 561.077,-330.246 568.077,-330.246"/>
</g>
<!-- &#45;4 -->
<g id="node4" class="node"><title>&#45;4</title>
<polygon fill="lightgray" stroke="black" points="749.577,-486.692 725.577,-486.692 725.577,-468.692 749.577,-468.692 749.577,-486.692"/>
<text text-anchor="middle" x="737.577" y="-475.492" font-family="Times,serif" font-size="9.00">&#45;4</text>
</g>
<!-- 12003 -->
<g id="node57" class="node"><title>12003</title>
<ellipse fill="white" stroke="black" cx="777.577" cy="-386.538" rx="27.6545" ry="27.6545"/>
<text text-anchor="middle" x="777.577" y="-384.338" font-family="Times,serif" font-size="9.00">12003</text>
</g>
<!-- &#45;4&#45;&gt;12003 -->
<g id="edge22" class="edge"><title>&#45;4&#45;&gt;12003</title>
<path fill="none" stroke="red" stroke-width="0.860243" d="M741.269,-468.464C746.066,-457.771 754.738,-438.443 762.404,-421.357"/>
<polygon fill="red" stroke="red" stroke-width="0.860243" points="765.628,-422.722 766.528,-412.165 759.241,-419.856 765.628,-422.722"/>
</g>
<!-- &#45;5 -->
<g id="node5" class="node"><title>&#45;5</title>
<polygon fill="lightgray" stroke="black" points="95.5772,-395.538 71.5772,-395.538 71.5772,-377.538 95.5772,-377.538 95.5772,-395.538"/>
<text text-anchor="middle" x="83.5772" y="-384.338" font-family="Times,serif" font-size="9.00">&#45;5</text>
</g>
<!-- 2 -->
<g id="node27" class="node"><title>2</title>
<ellipse fill="lightblue" stroke="black" cx="83.5772" cy="-295.383" rx="14.7" ry="14.7"/>
<text text-anchor="middle" x="83.5772" y="-293.183" font-family="Times,serif" font-size="9.00">2</text>
</g>
<!-- &#45;5&#45;&gt;2 -->
<g id="edge47" class="edge"><title>&#45;5&#45;&gt;2</title>
<path fill="none" stroke="red" stroke-width="0.79894" d="M83.5772,-377.31C83.5772,-364.554 83.5772,-339.509 83.5772,-320.642"/>
<polygon fill="red" stroke="red" stroke-width="0.79894" points="87.0773,-320.387 83.5772,-310.387 80.0773,-320.387 87.0773,-320.387"/>
</g>
<!-- &#45;6 -->
<g id="node6" class="node"><title>&#45;6</title>
<polygon fill="lightgray" stroke="black" points="970.577,-577.846 946.577,-577.846 946.577,-559.846 970.577,-559.846 970.577,-577.846"/>
<text text-anchor="middle" x="958.577" y="-566.646" font-family="Times,serif" font-size="9.00">&#45;6</text>
</g>
<!-- &#45;7 -->
<g id="node7" class="node"><title>&#45;7</title>
<polygon fill="lightgray" stroke="black" points="470.577,-395.538 446.577,-395.538 446.577,-377.538 470.577,-377.538 470.577,-395.538"/>
<text text-anchor="middle" x="458.577" y="-384.338" font-family="Times,serif" font-size="9.00">&#45;7</text>
</g>
<!-- 2831 -->
<g id="node36" class="node"><title>2831</title>
<ellipse fill="white" stroke="black" cx="404.577" cy="-204.229" rx="25" ry="25"/>
<text text-anchor="middle" x="404.577" y="-202.029" font-family="Times,serif" font-size="9.00">2831</text>
</g>
<!-- &#45;7&#45;&gt;2831 -->
<g id="edge7" class="edge"><title>&#45;7&#45;&gt;2831</title>
<path fill="none" stroke="green" stroke-width="1.32185" d="M453.035,-377.442C445.399,-365.888 431.771,-343.76 424.577,-322.96 415.132,-295.652 410.043,-263.182 407.367,-239.266"/>
<polygon fill="green" stroke="green" stroke-width="1.32185" points="410.842,-238.841 406.331,-229.254 403.879,-239.562 410.842,-238.841"/>
</g>
<!-- 4505 -->
<g id="node39" class="node"><title>4505</title>
<ellipse fill="white" stroke="black" cx="458.577" cy="-295.383" rx="25" ry="25"/>
<text text-anchor="middle" x="458.577" y="-293.183" font-family="Times,serif" font-size="9.00">4505</text>
</g>
<!-- &#45;7&#45;&gt;4505 -->
<g id="edge13" class="edge"><title>&#45;7&#45;&gt;4505</title>
<path fill="none" stroke="red" stroke-width="0.956746" d="M458.577,-377.31C458.577,-366.672 458.577,-347.488 458.577,-330.468"/>
<polygon fill="red" stroke="red" stroke-width="0.956746" points="462.077,-330.246 458.577,-320.246 455.077,-330.246 462.077,-330.246"/>
</g>
<!-- 12626 -->
<g id="node53" class="node"><title>12626</title>
<ellipse fill="white" stroke="black" cx="513.577" cy="-204.229" rx="27.6545" ry="27.6545"/>
<text text-anchor="middle" x="513.577" y="-202.029" font-family="Times,serif" font-size="9.00">12626</text>
</g>
<!-- &#45;7&#45;&gt;12626 -->
<g id="edge57" class="edge"><title>&#45;7&#45;&gt;12626</title>
<path fill="none" stroke="red" stroke-width="0.477847" d="M464.096,-377.434C471.704,-365.87 485.298,-343.73 492.577,-322.96 501.79,-296.676 507.114,-265.61 510.095,-241.992"/>
<polygon fill="red" stroke="red" stroke-width="0.477847" points="513.573,-242.376 511.269,-232.035 506.622,-241.556 513.573,-242.376"/>
</g>
<!-- &#45;8 -->
<g id="node8" class="node"><title>&#45;8</title>
<polygon fill="lightgray" stroke="black" points="650.577,-395.538 626.577,-395.538 626.577,-377.538 650.577,-377.538 650.577,-395.538"/>
<text text-anchor="middle" x="638.577" y="-384.338" font-family="Times,serif" font-size="9.00">&#45;8</text>
</g>
<!-- &#45;8&#45;&gt;2197 -->
<g id="edge54" class="edge"><title>&#45;8&#45;&gt;2197</title>
<path fill="none" stroke="green" stroke-width="0.248015" d="M631.748,-377.31C621.587,-365.069 602.034,-341.511 586.633,-322.956"/>
<polygon fill="green" stroke="green" stroke-width="0.248015" points="589.193,-320.559 580.113,-315.1 583.806,-325.03 589.193,-320.559"/>
</g>
<!-- &#45;8&#45;&gt;5851 -->
<g id="edge49" class="edge"><title>&#45;8&#45;&gt;5851</title>
<path fill="none" stroke="green" stroke-width="0.640431" d="M645.224,-377.479C661.053,-358.324 702.295,-308.613 737.577,-267.806 751.578,-251.612 761.969,-251.816 769.577,-231.806 778.289,-208.893 776.044,-200.296 769.577,-176.652 766.229,-164.411 759.803,-152.133 753.234,-141.734"/>
<polygon fill="green" stroke="green" stroke-width="0.640431" points="755.956,-139.508 747.498,-133.128 750.132,-143.391 755.956,-139.508"/>
</g>
<!-- &#45;9 -->
<g id="node9" class="node"><title>&#45;9</title>
<polygon fill="lightgray" stroke="black" points="1012.58,-577.846 988.577,-577.846 988.577,-559.846 1012.58,-559.846 1012.58,-577.846"/>
<text text-anchor="middle" x="1000.58" y="-566.646" font-family="Times,serif" font-size="9.00">&#45;9</text>
</g>
<!-- &#45;10 -->
<g id="node10" class="node"><title>&#45;10</title>
<polygon fill="lightgray" stroke="black" points="291.077,-486.692 262.077,-486.692 262.077,-468.692 291.077,-468.692 291.077,-486.692"/>
<text text-anchor="middle" x="276.577" y="-475.492" font-family="Times,serif" font-size="9.00">&#45;10</text>
</g>
<!-- 21996 -->
<g id="node62" class="node"><title>21996</title>
<ellipse fill="white" stroke="black" cx="276.577" cy="-386.538" rx="27.6545" ry="27.6545"/>
<text text-anchor="middle" x="276.577" y="-384.338" font-family="Times,serif" font-size="9.00">21996</text>
</g>
<!-- &#45;10&#45;&gt;21996 -->
<g id="edge26" class="edge"><title>&#45;10&#45;&gt;21996</title>
<path fill="none" stroke="red" stroke-width="0.32033" d="M276.577,-468.464C276.577,-458.492 276.577,-441.011 276.577,-424.842"/>
<polygon fill="red" stroke="red" stroke-width="0.32033" points="280.077,-424.499 276.577,-414.499 273.077,-424.499 280.077,-424.499"/>
</g>
<!-- &#45;11 -->
<g id="node11" class="node"><title>&#45;11</title>
<polygon fill="lightgray" stroke="black" points="1060.08,-577.846 1031.08,-577.846 1031.08,-559.846 1060.08,-559.846 1060.08,-577.846"/>
<text text-anchor="middle" x="1045.58" y="-566.646" font-family="Times,serif" font-size="9.00">&#45;11</text>
</g>
<!-- &#45;12 -->
<g id="node12" class="node"><title>&#45;12</title>
<polygon fill="lightgray" stroke="black" points="1107.08,-577.846 1078.08,-577.846 1078.08,-559.846 1107.08,-559.846 1107.08,-577.846"/>
<text text-anchor="middle" x="1092.58" y="-566.646" font-family="Times,serif" font-size="9.00">&#45;12</text>
</g>
<!-- 6074 -->
<g id="node45" class="node"><title>6074</title>
<ellipse fill="white" stroke="black" cx="1122.58" cy="-477.692" rx="25" ry="25"/>
<text text-anchor="middle" x="1122.58" y="-475.492" font-family="Times,serif" font-size="9.00">6074</text>
</g>
<!-- &#45;12&#45;&gt;6074 -->
<g id="edge23" class="edge"><title>&#45;12&#45;&gt;6074</title>
<path fill="none" stroke="green" stroke-width="0.244593" d="M1095.35,-559.619C1099.03,-548.664 1105.77,-528.647 1111.62,-511.263"/>
<polygon fill="green" stroke="green" stroke-width="0.244593" points="1115.06,-512.014 1114.93,-501.42 1108.42,-509.782 1115.06,-512.014"/>
</g>
<!-- &#45;13 -->
<g id="node13" class="node"><title>&#45;13</title>
<polygon fill="lightgray" stroke="black" points="1227.08,-577.846 1198.08,-577.846 1198.08,-559.846 1227.08,-559.846 1227.08,-577.846"/>
<text text-anchor="middle" x="1212.58" y="-566.646" font-family="Times,serif" font-size="9.00">&#45;13</text>
</g>
<!-- &#45;14 -->
<g id="node14" class="node"><title>&#45;14</title>
<polygon fill="lightgray" stroke="black" points="792.077,-577.846 763.077,-577.846 763.077,-559.846 792.077,-559.846 792.077,-577.846"/>
<text text-anchor="middle" x="777.577" y="-566.646" font-family="Times,serif" font-size="9.00">&#45;14</text>
</g>
<!-- 18570 -->
<g id="node33" class="node"><title>18570</title>
<ellipse fill="white" stroke="black" cx="679.577" cy="-477.692" rx="27.6545" ry="27.6545"/>
<text text-anchor="middle" x="679.577" y="-475.492" font-family="Times,serif" font-size="9.00">18570</text>
</g>
<!-- &#45;14&#45;&gt;18570 -->
<g id="edge46" class="edge"><title>&#45;14&#45;&gt;18570</title>
<path fill="none" stroke="green" stroke-width="0.567901" d="M768.533,-559.619C754.752,-547.081 727.923,-522.674 707.317,-503.928"/>
<polygon fill="green" stroke="green" stroke-width="0.567901" points="709.516,-501.197 699.764,-497.057 704.806,-506.375 709.516,-501.197"/>
</g>
<!-- &#45;14&#45;&gt;12003 -->
<g id="edge10" class="edge"><title>&#45;14&#45;&gt;12003</title>
<path fill="none" stroke="green" stroke-width="0.357033" d="M777.577,-559.63C777.577,-536.145 777.577,-467.645 777.577,-424.483"/>
<polygon fill="green" stroke="green" stroke-width="0.357033" points="781.077,-424.363 777.577,-414.363 774.077,-424.363 781.077,-424.363"/>
</g>
<!-- 10861 -->
<g id="node64" class="node"><title>10861</title>
<ellipse fill="white" stroke="black" cx="850.577" cy="-386.538" rx="27.6545" ry="27.6545"/>
<text text-anchor="middle" x="850.577" y="-384.338" font-family="Times,serif" font-size="9.00">10861</text>
</g>
<!-- &#45;14&#45;&gt;10861 -->
<g id="edge32" class="edge"><title>&#45;14&#45;&gt;10861</title>
<path fill="none" stroke="green" stroke-width="0.309212" d="M780.904,-559.63C790.607,-535.662 819.293,-464.809 836.684,-421.854"/>
<polygon fill="green" stroke="green" stroke-width="0.309212" points="840.019,-422.942 840.528,-412.359 833.531,-420.315 840.019,-422.942"/>
</g>
<!-- &#45;15 -->
<g id="node15" class="node"><title>&#45;15</title>
<polygon fill="lightgray" stroke="black" points="1274.08,-577.846 1245.08,-577.846 1245.08,-559.846 1274.08,-559.846 1274.08,-577.846"/>
<text text-anchor="middle" x="1259.58" y="-566.646" font-family="Times,serif" font-size="9.00">&#45;15</text>
</g>
<!-- &#45;16 -->
<g id="node16" class="node"><title>&#45;16</title>
<polygon fill="lightgray" stroke="black" points="675.077,-304.383 646.077,-304.383 646.077,-286.383 675.077,-286.383 675.077,-304.383"/>
<text text-anchor="middle" x="660.577" y="-293.183" font-family="Times,serif" font-size="9.00">&#45;16</text>
</g>
<!-- 26295 -->
<g id="node43" class="node"><title>26295</title>
<ellipse fill="white" stroke="black" cx="586.577" cy="-204.229" rx="27.6545" ry="27.6545"/>
<text text-anchor="middle" x="586.577" y="-202.029" font-family="Times,serif" font-size="9.00">26295</text>
</g>
<!-- &#45;16&#45;&gt;26295 -->
<g id="edge50" class="edge"><title>&#45;16&#45;&gt;26295</title>
<path fill="none" stroke="red" stroke-width="0.415717" d="M653.748,-286.156C644.005,-274.418 625.627,-252.275 610.554,-234.115"/>
<polygon fill="red" stroke="red" stroke-width="0.415717" points="612.984,-231.563 603.904,-226.104 607.597,-236.034 612.984,-231.563"/>
</g>
<!-- &#45;17 -->
<g id="node17" class="node"><title>&#45;17</title>
<polygon fill="lightgray" stroke="black" points="732.077,-395.538 703.077,-395.538 703.077,-377.538 732.077,-377.538 732.077,-395.538"/>
<text text-anchor="middle" x="717.577" y="-384.338" font-family="Times,serif" font-size="9.00">&#45;17</text>
</g>
<!-- 24138 -->
<g id="node49" class="node"><title>24138</title>
<ellipse fill="white" stroke="black" cx="774.577" cy="-295.383" rx="27.6545" ry="27.6545"/>
<text text-anchor="middle" x="774.577" y="-293.183" font-family="Times,serif" font-size="9.00">24138</text>
</g>
<!-- &#45;17&#45;&gt;24138 -->
<g id="edge59" class="edge"><title>&#45;17&#45;&gt;24138</title>
<path fill="none" stroke="red" stroke-width="0.923186" d="M722.837,-377.31C729.972,-366.151 743.119,-345.587 754.375,-327.982"/>
<polygon fill="red" stroke="red" stroke-width="0.923186" points="757.608,-329.422 760.046,-319.111 751.711,-325.651 757.608,-329.422"/>
</g>
<!-- &#45;17&#45;&gt;12626 -->
<g id="edge52" class="edge"><title>&#45;17&#45;&gt;12626</title>
<path fill="none" stroke="green" stroke-width="0.386643" d="M704.803,-377.49C687.96,-366.492 657.96,-345.541 636.577,-322.96 616.109,-301.346 619.304,-289.172 598.577,-267.806 579.761,-248.41 571.336,-247.831 549.577,-231.806 547.552,-230.315 545.463,-228.775 543.36,-227.224"/>
<polygon fill="green" stroke="green" stroke-width="0.386643" points="545.398,-224.379 535.273,-221.259 541.243,-230.012 545.398,-224.379"/>
</g>
<!-- 9704 -->
<g id="node59" class="node"><title>9704</title>
<ellipse fill="white" stroke="black" cx="917.577" cy="-295.383" rx="25" ry="25"/>
<text text-anchor="middle" x="917.577" y="-293.183" font-family="Times,serif" font-size="9.00">9704</text>
</g>
<!-- &#45;17&#45;&gt;9704 -->
<g id="edge51" class="edge"><title>&#45;17&#45;&gt;9704</title>
<path fill="none" stroke="red" stroke-width="0.124801" d="M722.634,-377.37C726.75,-371.396 733.092,-363.562 740.577,-358.96 796.776,-324.411 825.509,-352.336 884.577,-322.96 886.882,-321.814 889.174,-320.484 891.413,-319.043"/>
<polygon fill="red" stroke="red" stroke-width="0.124801" points="893.628,-321.761 899.703,-313.081 889.541,-316.078 893.628,-321.761"/>
</g>
<!-- &#45;18 -->
<g id="node18" class="node"><title>&#45;18</title>
<polygon fill="lightgray" stroke="black" points="886.077,-577.846 857.077,-577.846 857.077,-559.846 886.077,-559.846 886.077,-577.846"/>
<text text-anchor="middle" x="871.577" y="-566.646" font-family="Times,serif" font-size="9.00">&#45;18</text>
</g>
<!-- 13885 -->
<g id="node46" class="node"><title>13885</title>
<ellipse fill="white" stroke="black" cx="871.577" cy="-477.692" rx="27.6545" ry="27.6545"/>
<text text-anchor="middle" x="871.577" y="-475.492" font-family="Times,serif" font-size="9.00">13885</text>
</g>
<!-- &#45;18&#45;&gt;13885 -->
<g id="edge56" class="edge"><title>&#45;18&#45;&gt;13885</title>
<path fill="none" stroke="red" stroke-width="0.703116" d="M871.577,-559.619C871.577,-549.647 871.577,-532.166 871.577,-515.997"/>
<polygon fill="red" stroke="red" stroke-width="0.703116" points="875.077,-515.653 871.577,-505.653 868.077,-515.653 875.077,-515.653"/>
</g>
<!-- &#45;19 -->
<g id="node19" class="node"><title>&#45;19</title>
<polygon fill="lightgray" stroke="black" points="1321.08,-577.846 1292.08,-577.846 1292.08,-559.846 1321.08,-559.846 1321.08,-577.846"/>
<text text-anchor="middle" x="1306.58" y="-566.646" font-family="Times,serif" font-size="9.00">&#45;19</text>
</g>
<!-- &#45;20 -->
<g id="node20" class="node"><title>&#45;20</title>
<polygon fill="lightgray" stroke="black" points="946.077,-486.692 917.077,-486.692 917.077,-468.692 946.077,-468.692 946.077,-486.692"/>
<text text-anchor="middle" x="931.577" y="-475.492" font-family="Times,serif" font-size="9.00">&#45;20</text>
</g>
<!-- 21223 -->
<g id="node58" class="node"><title>21223</title>
<ellipse fill="white" stroke="black" cx="969.577" cy="-386.538" rx="27.6545" ry="27.6545"/>
<text text-anchor="middle" x="969.577" y="-384.338" font-family="Times,serif" font-size="9.00">21223</text>
</g>
<!-- &#45;20&#45;&gt;21223 -->
<g id="edge58" class="edge"><title>&#45;20&#45;&gt;21223</title>
<path fill="none" stroke="red" stroke-width="0.745898" d="M935.084,-468.464C939.6,-457.87 947.728,-438.8 954.96,-421.832"/>
<polygon fill="red" stroke="red" stroke-width="0.745898" points="958.379,-422.737 959.08,-412.165 951.94,-419.992 958.379,-422.737"/>
</g>
<!-- &#45;20&#45;&gt;9704 -->
<g id="edge29" class="edge"><title>&#45;20&#45;&gt;9704</title>
<path fill="none" stroke="red" stroke-width="0.670343" d="M930.939,-468.476C929.071,-444.418 923.536,-373.122 920.204,-330.217"/>
<polygon fill="red" stroke="red" stroke-width="0.670343" points="923.692,-329.924 919.428,-320.225 916.713,-330.466 923.692,-329.924"/>
</g>
<!-- &#45;20&#45;&gt;10861 -->
<g id="edge11" class="edge"><title>&#45;20&#45;&gt;10861</title>
<path fill="none" stroke="green" stroke-width="0.888129" d="M924.398,-468.249C919.898,-462.993 913.951,-456.115 908.577,-450.115 898.08,-438.394 886.308,-425.627 876.127,-414.699"/>
<polygon fill="green" stroke="green" stroke-width="0.888129" points="878.42,-412.026 869.036,-407.108 873.305,-416.805 878.42,-412.026"/>
</g>
<!-- &#45;21 -->
<g id="node21" class="node"><title>&#45;21</title>
<polygon fill="lightgray" stroke="black" points="1368.08,-577.846 1339.08,-577.846 1339.08,-559.846 1368.08,-559.846 1368.08,-577.846"/>
<text text-anchor="middle" x="1353.58" y="-566.646" font-family="Times,serif" font-size="9.00">&#45;21</text>
</g>
<!-- &#45;22 -->
<g id="node22" class="node"><title>&#45;22</title>
<polygon fill="lightgray" stroke="black" points="389.077,-486.692 360.077,-486.692 360.077,-468.692 389.077,-468.692 389.077,-486.692"/>
<text text-anchor="middle" x="374.577" y="-475.492" font-family="Times,serif" font-size="9.00">&#45;22</text>
</g>
<!-- 20575 -->
<g id="node56" class="node"><title>20575</title>
<ellipse fill="white" stroke="black" cx="374.577" cy="-386.538" rx="27.6545" ry="27.6545"/>
<text text-anchor="middle" x="374.577" y="-384.338" font-family="Times,serif" font-size="9.00">20575</text>
</g>
<!-- &#45;22&#45;&gt;20575 -->
<g id="edge16" class="edge"><title>&#45;22&#45;&gt;20575</title>
<path fill="none" stroke="red" stroke-width="0.295764" d="M374.577,-468.464C374.577,-458.492 374.577,-441.011 374.577,-424.842"/>
<polygon fill="red" stroke="red" stroke-width="0.295764" points="378.077,-424.499 374.577,-414.499 371.077,-424.499 378.077,-424.499"/>
</g>
<!-- &#45;23 -->
<g id="node23" class="node"><title>&#45;23</title>
<polygon fill="lightgray" stroke="black" points="1415.08,-577.846 1386.08,-577.846 1386.08,-559.846 1415.08,-559.846 1415.08,-577.846"/>
<text text-anchor="middle" x="1400.58" y="-566.646" font-family="Times,serif" font-size="9.00">&#45;23</text>
</g>
<!-- &#45;24 -->
<g id="node24" class="node"><title>&#45;24</title>
<polygon fill="lightgray" stroke="black" points="1462.08,-577.846 1433.08,-577.846 1433.08,-559.846 1462.08,-559.846 1462.08,-577.846"/>
<text text-anchor="middle" x="1447.58" y="-566.646" font-family="Times,serif" font-size="9.00">&#45;24</text>
</g>
<!-- 0 -->
<g id="node25" class="node"><title>0</title>
<ellipse fill="lightblue" stroke="black" cx="1494.58" cy="-568.846" rx="14.7" ry="14.7"/>
<text text-anchor="middle" x="1494.58" y="-566.646" font-family="Times,serif" font-size="9.00">0</text>
</g>
<!-- 1 -->
<g id="node26" class="node"><title>1</title>
<ellipse fill="lightblue" stroke="black" cx="404.577" cy="-113.075" rx="14.7" ry="14.7"/>
<text text-anchor="middle" x="404.577" y="-110.875" font-family="Times,serif" font-size="9.00">1</text>
</g>
<!-- 24582 -->
<g id="node29" class="node"><title>24582</title>
<ellipse fill="white" stroke="black" cx="139.577" cy="-204.229" rx="27.6545" ry="27.6545"/>
<text text-anchor="middle" x="139.577" y="-202.029" font-family="Times,serif" font-size="9.00">24582</text>
</g>
<!-- 2&#45;&gt;24582 -->
<g id="edge17" class="edge"><title>2&#45;&gt;24582</title>
<path fill="none" stroke="green" stroke-width="0.25885" d="M91.1296,-282.36C98.485,-270.649 109.98,-252.349 119.927,-236.513"/>
<polygon fill="green" stroke="green" stroke-width="0.25885" points="122.903,-238.355 125.258,-228.026 116.975,-234.632 122.903,-238.355"/>
</g>
<!-- 21821 -->
<g id="node47" class="node"><title>21821</title>
<ellipse fill="white" stroke="black" cx="78.5772" cy="-113.075" rx="27.6545" ry="27.6545"/>
<text text-anchor="middle" x="78.5772" y="-110.875" font-family="Times,serif" font-size="9.00">21821</text>
</g>
<!-- 2&#45;&gt;21821 -->
<g id="edge24" class="edge"><title>2&#45;&gt;21821</title>
<path fill="none" stroke="green" stroke-width="0.24863" d="M83.1931,-280.534C82.4332,-253.131 80.7153,-191.179 79.603,-151.068"/>
<polygon fill="green" stroke="green" stroke-width="0.24863" points="83.0964,-150.778 79.3204,-140.879 76.0991,-150.972 83.0964,-150.778"/>
</g>
<!-- 26327 -->
<g id="node54" class="node"><title>26327</title>
<ellipse fill="white" stroke="black" cx="27.5772" cy="-204.229" rx="27.6545" ry="27.6545"/>
<text text-anchor="middle" x="27.5772" y="-202.029" font-family="Times,serif" font-size="9.00">26327</text>
</g>
<!-- 2&#45;&gt;26327 -->
<g id="edge60" class="edge"><title>2&#45;&gt;26327</title>
<path fill="none" stroke="red" stroke-width="0.669533" d="M76.0248,-282.36C68.6693,-270.649 57.1745,-252.349 47.2272,-236.513"/>
<polygon fill="red" stroke="red" stroke-width="0.669533" points="50.1792,-234.632 41.8963,-228.026 44.2515,-238.355 50.1792,-234.632"/>
</g>
<!-- 3 -->
<g id="node28" class="node"><title>3</title>
<ellipse fill="lightblue" stroke="black" cx="1554.58" cy="-477.692" rx="14.7" ry="14.7"/>
<text text-anchor="middle" x="1554.58" y="-475.492" font-family="Times,serif" font-size="9.00">3</text>
</g>
<!-- 24582&#45;&gt;21821 -->
<g id="edge1" class="edge"><title>24582&#45;&gt;21821</title>
<path fill="none" stroke="green" stroke-width="1.35374" d="M124.184,-180.732C116.686,-169.773 107.559,-156.433 99.4451,-144.574"/>
<polygon fill="green" stroke="green" stroke-width="1.35374" points="102.289,-142.533 93.7538,-136.256 96.5121,-146.486 102.289,-142.533"/>
</g>
<!-- 19847 -->
<g id="node30" class="node"><title>19847</title>
<ellipse fill="white" stroke="black" cx="847.577" cy="-295.383" rx="27.6545" ry="27.6545"/>
<text text-anchor="middle" x="847.577" y="-293.183" font-family="Times,serif" font-size="9.00">19847</text>
</g>
<!-- 14355 -->
<g id="node37" class="node"><title>14355</title>
<ellipse fill="white" stroke="black" cx="844.577" cy="-204.229" rx="27.6545" ry="27.6545"/>
<text text-anchor="middle" x="844.577" y="-202.029" font-family="Times,serif" font-size="9.00">14355</text>
</g>
<!-- 19847&#45;&gt;14355 -->
<g id="edge42" class="edge"><title>19847&#45;&gt;14355</title>
<path fill="none" stroke="green" stroke-width="1.01532" d="M846.677,-267.634C846.407,-259.612 846.106,-250.667 845.818,-242.113"/>
<polygon fill="green" stroke="green" stroke-width="1.01532" points="849.311,-241.836 845.477,-231.959 842.315,-242.071 849.311,-241.836"/>
</g>
<!-- 14216 -->
<g id="node31" class="node"><title>14216</title>
<ellipse fill="white" stroke="black" cx="1152.58" cy="-568.846" rx="27.6545" ry="27.6545"/>
<text text-anchor="middle" x="1152.58" y="-566.646" font-family="Times,serif" font-size="9.00">14216</text>
</g>
<!-- 14216&#45;&gt;6074 -->
<g id="edge64" class="edge"><title>14216&#45;&gt;6074</title>
<path fill="none" stroke="green" stroke-width="0.942765" d="M1144.06,-542.537C1140.75,-532.706 1136.92,-521.326 1133.42,-510.921"/>
<polygon fill="green" stroke="green" stroke-width="0.942765" points="1136.7,-509.688 1130.19,-501.326 1130.07,-511.92 1136.7,-509.688"/>
</g>
<!-- 13193 -->
<g id="node32" class="node"><title>13193</title>
<ellipse fill="white" stroke="black" cx="1649.58" cy="-568.846" rx="27.6545" ry="27.6545"/>
<text text-anchor="middle" x="1649.58" y="-566.646" font-family="Times,serif" font-size="9.00">13193</text>
</g>
<!-- 17721 -->
<g id="node44" class="node"><title>17721</title>
<ellipse fill="white" stroke="black" cx="1614.58" cy="-477.692" rx="27.6545" ry="27.6545"/>
<text text-anchor="middle" x="1614.58" y="-475.492" font-family="Times,serif" font-size="9.00">17721</text>
</g>
<!-- 13193&#45;&gt;17721 -->
<g id="edge45" class="edge"><title>13193&#45;&gt;17721</title>
<path fill="none" stroke="red" stroke-width="0.537818" d="M1639.83,-543.012C1636.22,-533.815 1632.06,-523.213 1628.16,-513.303"/>
<polygon fill="red" stroke="red" stroke-width="0.537818" points="1631.31,-511.732 1624.4,-503.702 1624.79,-514.29 1631.31,-511.732"/>
</g>
<!-- 10705 -->
<g id="node52" class="node"><title>10705</title>
<ellipse fill="white" stroke="black" cx="1670.58" cy="-386.538" rx="27.6545" ry="27.6545"/>
<text text-anchor="middle" x="1670.58" y="-384.338" font-family="Times,serif" font-size="9.00">10705</text>
</g>
<!-- 13193&#45;&gt;10705 -->
<g id="edge15" class="edge"><title>13193&#45;&gt;10705</title>
<path fill="none" stroke="green" stroke-width="0.242479" d="M1652.68,-541.241C1656.28,-510.258 1662.27,-458.901 1666.31,-424.164"/>
<polygon fill="green" stroke="green" stroke-width="0.242479" points="1669.82,-424.296 1667.5,-413.958 1662.87,-423.486 1669.82,-424.296"/>
</g>
<!-- 18570&#45;&gt;20575 -->
<g id="edge30" class="edge"><title>18570&#45;&gt;20575</title>
<path fill="none" stroke="red" stroke-width="0.330276" d="M652.705,-471.093C607.643,-461.405 514.244,-440.044 437.577,-414.115 428.063,-410.897 417.956,-406.903 408.687,-402.998"/>
<polygon fill="red" stroke="red" stroke-width="0.330276" points="409.961,-399.735 399.392,-398.996 407.193,-406.165 409.961,-399.735"/>
</g>
<!-- 18570&#45;&gt;12003 -->
<g id="edge63" class="edge"><title>18570&#45;&gt;12003</title>
<path fill="none" stroke="red" stroke-width="1.00927" d="M699.883,-458.219C714.433,-444.982 734.196,-427.003 750.148,-412.491"/>
<polygon fill="red" stroke="red" stroke-width="1.00927" points="752.591,-415 757.633,-405.682 747.88,-409.822 752.591,-415"/>
</g>
<!-- 16141 -->
<g id="node34" class="node"><title>16141</title>
<ellipse fill="white" stroke="black" cx="1554.58" cy="-568.846" rx="27.6545" ry="27.6545"/>
<text text-anchor="middle" x="1554.58" y="-566.646" font-family="Times,serif" font-size="9.00">16141</text>
</g>
<!-- 16141&#45;&gt;3 -->
<g id="edge39" class="edge"><title>16141&#45;&gt;3</title>
<path fill="none" stroke="red" stroke-width="0.315808" d="M1554.58,-541.097C1554.58,-528.923 1554.58,-514.626 1554.58,-502.79"/>
<polygon fill="red" stroke="red" stroke-width="0.315808" points="1558.08,-502.743 1554.58,-492.743 1551.08,-502.743 1558.08,-502.743"/>
</g>
<!-- 15758 -->
<g id="node35" class="node"><title>15758</title>
<ellipse fill="white" stroke="black" cx="659.577" cy="-204.229" rx="27.6545" ry="27.6545"/>
<text text-anchor="middle" x="659.577" y="-202.029" font-family="Times,serif" font-size="9.00">15758</text>
</g>
<!-- 15758&#45;&gt;5851 -->
<g id="edge28" class="edge"><title>15758&#45;&gt;5851</title>
<path fill="none" stroke="green" stroke-width="0.541984" d="M676.877,-182.101C687.073,-169.649 700.062,-153.785 710.932,-140.51"/>
<polygon fill="green" stroke="green" stroke-width="0.541984" points="713.755,-142.587 717.382,-132.632 708.339,-138.152 713.755,-142.587"/>
</g>
<!-- 2831&#45;&gt;1 -->
<g id="edge4" class="edge"><title>2831&#45;&gt;1</title>
<path fill="none" stroke="red" stroke-width="0.419574" d="M404.577,-179.337C404.577,-166.651 404.577,-151.093 404.577,-138.35"/>
<polygon fill="red" stroke="red" stroke-width="0.419574" points="408.077,-138.019 404.577,-128.019 401.077,-138.019 408.077,-138.019"/>
</g>
<!-- 2197&#45;&gt;1 -->
<g id="edge40" class="edge"><title>2197&#45;&gt;1</title>
<path fill="none" stroke="green" stroke-width="0.8788" d="M543.179,-282.55C524.117,-271.272 496.272,-252.915 476.577,-231.806 461.966,-216.146 432.645,-164.936 416.288,-135.47"/>
<polygon fill="green" stroke="green" stroke-width="0.8788" points="419.174,-133.456 411.277,-126.393 413.046,-136.839 419.174,-133.456"/>
</g>
<!-- 2197&#45;&gt;12626 -->
<g id="edge8" class="edge"><title>2197&#45;&gt;12626</title>
<path fill="none" stroke="red" stroke-width="0.574341" d="M552.491,-273.255C546.388,-262.586 538.852,-249.413 532.042,-237.508"/>
<polygon fill="red" stroke="red" stroke-width="0.574341" points="535.016,-235.657 527.012,-228.715 528.94,-239.133 535.016,-235.657"/>
</g>
<!-- 4505&#45;&gt;2831 -->
<g id="edge43" class="edge"><title>4505&#45;&gt;2831</title>
<path fill="none" stroke="red" stroke-width="0.840535" d="M446.053,-273.705C439.033,-262.115 430.159,-247.465 422.423,-234.693"/>
<polygon fill="red" stroke="red" stroke-width="0.840535" points="425.208,-232.535 417.034,-225.795 419.221,-236.161 425.208,-232.535"/>
</g>
<!-- 7718 -->
<g id="node40" class="node"><title>7718</title>
<ellipse fill="white" stroke="black" cx="1723.58" cy="-477.692" rx="25" ry="25"/>
<text text-anchor="middle" x="1723.58" y="-475.492" font-family="Times,serif" font-size="9.00">7718</text>
</g>
<!-- 7718&#45;&gt;10705 -->
<g id="edge62" class="edge"><title>7718&#45;&gt;10705</title>
<path fill="none" stroke="red" stroke-width="0.330159" d="M1711.28,-456.014C1704.85,-445.192 1696.83,-431.703 1689.62,-419.565"/>
<polygon fill="red" stroke="red" stroke-width="0.330159" points="1692.41,-417.42 1684.29,-410.613 1686.4,-420.997 1692.41,-417.42"/>
</g>
<!-- 17575 -->
<g id="node41" class="node"><title>17575</title>
<ellipse fill="white" stroke="black" cx="349.577" cy="-295.383" rx="27.6545" ry="27.6545"/>
<text text-anchor="middle" x="349.577" y="-293.183" font-family="Times,serif" font-size="9.00">17575</text>
</g>
<!-- 17575&#45;&gt;2831 -->
<g id="edge18" class="edge"><title>17575&#45;&gt;2831</title>
<path fill="none" stroke="red" stroke-width="1.11626" d="M363.741,-271.424C370.691,-260.159 379.139,-246.463 386.545,-234.459"/>
<polygon fill="red" stroke="red" stroke-width="1.11626" points="389.691,-236.026 391.962,-225.678 383.733,-232.351 389.691,-236.026"/>
</g>
<!-- 12339 -->
<g id="node42" class="node"><title>12339</title>
<ellipse fill="white" stroke="black" cx="276.577" cy="-295.383" rx="27.6545" ry="27.6545"/>
<text text-anchor="middle" x="276.577" y="-293.183" font-family="Times,serif" font-size="9.00">12339</text>
</g>
<!-- 12339&#45;&gt;24582 -->
<g id="edge25" class="edge"><title>12339&#45;&gt;24582</title>
<path fill="none" stroke="red" stroke-width="0.544419" d="M253.646,-279.461C231.024,-264.739 196.267,-242.12 171.063,-225.719"/>
<polygon fill="red" stroke="red" stroke-width="0.544419" points="172.873,-222.721 162.583,-220.2 169.055,-228.588 172.873,-222.721"/>
</g>
<!-- 16590 -->
<g id="node51" class="node"><title>16590</title>
<ellipse fill="white" stroke="black" cx="464.577" cy="-113.075" rx="27.6545" ry="27.6545"/>
<text text-anchor="middle" x="464.577" y="-110.875" font-family="Times,serif" font-size="9.00">16590</text>
</g>
<!-- 12339&#45;&gt;16590 -->
<g id="edge3" class="edge"><title>12339&#45;&gt;16590</title>
<path fill="none" stroke="green" stroke-width="0.373417" d="M293.69,-273.616C303.645,-261.478 316.395,-245.834 327.577,-231.806 346.952,-207.501 347.458,-197.427 370.577,-176.652 393.144,-156.373 403.464,-157.675 428.577,-140.652 430.659,-139.241 432.79,-137.761 434.925,-136.254"/>
<polygon fill="green" stroke="green" stroke-width="0.373417" points="437.008,-139.066 443.078,-130.382 432.917,-133.386 437.008,-139.066"/>
</g>
<!-- 12339&#45;&gt;6507 -->
<g id="edge55" class="edge"><title>12339&#45;&gt;6507</title>
<path fill="none" stroke="red" stroke-width="0.605994" d="M284.581,-268.743C295.776,-228.777 312.808,-149.565 294.577,-85.4975 291.305,-73.9971 285.115,-62.5458 278.722,-52.7913"/>
<polygon fill="red" stroke="red" stroke-width="0.605994" points="281.447,-50.5789 272.871,-44.3574 275.696,-54.5689 281.447,-50.5789"/>
</g>
<!-- 26295&#45;&gt;5851 -->
<g id="edge53" class="edge"><title>26295&#45;&gt;5851</title>
<path fill="none" stroke="green" stroke-width="0.535585" d="M607.984,-186.782C612.717,-183.329 617.758,-179.786 622.577,-176.652 648.686,-159.673 679.607,-142.311 702.006,-130.196"/>
<polygon fill="green" stroke="green" stroke-width="0.535585" points="703.891,-133.156 711.045,-125.341 700.579,-126.989 703.891,-133.156"/>
</g>
<!-- 17721&#45;&gt;10705 -->
<g id="edge37" class="edge"><title>17721&#45;&gt;10705</title>
<path fill="none" stroke="green" stroke-width="0.776274" d="M1629,-453.732C1635.6,-443.229 1643.52,-430.613 1650.67,-419.225"/>
<polygon fill="green" stroke="green" stroke-width="0.776274" points="1653.85,-420.749 1656.2,-410.419 1647.92,-417.026 1653.85,-420.749"/>
</g>
<!-- 13885&#45;&gt;12003 -->
<g id="edge19" class="edge"><title>13885&#45;&gt;12003</title>
<path fill="none" stroke="red" stroke-width="0.457506" d="M851.642,-457.785C837.966,-444.814 819.652,-427.444 804.658,-413.222"/>
<polygon fill="red" stroke="red" stroke-width="0.457506" points="806.825,-410.454 797.161,-406.112 802.008,-415.533 806.825,-410.454"/>
</g>
<!-- 21821&#45;&gt;6507 -->
<g id="edge21" class="edge"><title>21821&#45;&gt;6507</title>
<path fill="none" stroke="green" stroke-width="0.297077" d="M99.7094,-95.1757C104.459,-91.7503 109.576,-88.3333 114.577,-85.4975 150.64,-65.0471 195.095,-47.5694 224.776,-36.8944"/>
<polygon fill="green" stroke="green" stroke-width="0.297077" points="225.985,-40.1794 234.242,-33.5405 223.647,-33.5813 225.985,-40.1794"/>
</g>
<!-- 16194 -->
<g id="node48" class="node"><title>16194</title>
<ellipse fill="white" stroke="black" cx="257.577" cy="-113.075" rx="27.6545" ry="27.6545"/>
<text text-anchor="middle" x="257.577" y="-110.875" font-family="Times,serif" font-size="9.00">16194</text>
</g>
<!-- 16194&#45;&gt;6507 -->
<g id="edge20" class="edge"><title>16194&#45;&gt;6507</title>
<path fill="none" stroke="red" stroke-width="0.301372" d="M257.577,-85.2338C257.577,-77.1407 257.577,-68.1497 257.577,-59.6599"/>
<polygon fill="red" stroke="red" stroke-width="0.301372" points="261.077,-59.6466 257.577,-49.6467 254.077,-59.6467 261.077,-59.6466"/>
</g>
<!-- 16590&#45;&gt;6507 -->
<g id="edge2" class="edge"><title>16590&#45;&gt;6507</title>
<path fill="none" stroke="green" stroke-width="0.347896" d="M443.57,-94.9477C438.813,-91.5366 433.66,-88.1829 428.577,-85.4975 383.404,-61.6314 326.697,-43.9937 291.289,-34.291"/>
<polygon fill="green" stroke="green" stroke-width="0.347896" points="292.023,-30.8642 281.458,-31.6513 290.208,-37.6248 292.023,-30.8642"/>
</g>
<!-- 12626&#45;&gt;16590 -->
<g id="edge27" class="edge"><title>12626&#45;&gt;16590</title>
<path fill="none" stroke="green" stroke-width="0.610754" d="M500.703,-179.805C495.121,-169.648 488.49,-157.583 482.442,-146.58"/>
<polygon fill="green" stroke="green" stroke-width="0.610754" points="485.419,-144.73 477.535,-137.652 479.285,-148.101 485.419,-144.73"/>
</g>
<!-- 26327&#45;&gt;21821 -->
<g id="edge12" class="edge"><title>26327&#45;&gt;21821</title>
<path fill="none" stroke="green" stroke-width="0.706374" d="M40.9768,-179.805C46.8332,-169.567 53.7981,-157.392 60.1325,-146.318"/>
<polygon fill="green" stroke="green" stroke-width="0.706374" points="63.3396,-147.761 65.267,-137.342 57.2635,-144.285 63.3396,-147.761"/>
</g>
<!-- 20575&#45;&gt;17575 -->
<g id="edge33" class="edge"><title>20575&#45;&gt;17575</title>
<path fill="none" stroke="red" stroke-width="0.226518" d="M367.346,-359.751C364.91,-351.064 362.148,-341.213 359.539,-331.91"/>
<polygon fill="red" stroke="red" stroke-width="0.226518" points="362.862,-330.796 356.792,-322.112 356.122,-332.686 362.862,-330.796"/>
</g>
<!-- 12003&#45;&gt;9704 -->
<g id="edge9" class="edge"><title>12003&#45;&gt;9704</title>
<path fill="none" stroke="red" stroke-width="0.325705" d="M798.873,-368.914C803.612,-365.472 808.684,-361.978 813.577,-358.96 843.691,-340.389 854.86,-342.161 884.577,-322.96 886.74,-321.563 888.928,-320.051 891.094,-318.482"/>
<polygon fill="red" stroke="red" stroke-width="0.325705" points="893.412,-321.116 899.24,-312.268 889.166,-315.55 893.412,-321.116"/>
</g>
<!-- 21223&#45;&gt;9704 -->
<g id="edge44" class="edge"><title>21223&#45;&gt;9704</title>
<path fill="none" stroke="red" stroke-width="0.739732" d="M955.915,-362.113C949.504,-351.122 941.79,-337.897 934.968,-326.2"/>
<polygon fill="red" stroke="red" stroke-width="0.739732" points="937.791,-324.094 929.73,-317.219 931.745,-327.621 937.791,-324.094"/>
</g>
<!-- 9704&#45;&gt;12626 -->
<g id="edge34" class="edge"><title>9704&#45;&gt;12626</title>
<path fill="none" stroke="green" stroke-width="0.119809" d="M900.29,-277.438C895.539,-273.67 890.15,-270.114 884.577,-267.806 746.22,-210.524 689.108,-286.166 549.577,-231.806 547.401,-230.958 545.24,-229.943 543.119,-228.812"/>
<polygon fill="green" stroke="green" stroke-width="0.119809" points="544.513,-225.558 534.17,-223.264 540.825,-231.507 544.513,-225.558"/>
</g>
<!-- 9704&#45;&gt;5851 -->
<g id="edge36" class="edge"><title>9704&#45;&gt;5851</title>
<path fill="none" stroke="green" stroke-width="0.615656" d="M932.827,-275.885C951.315,-251.088 977.338,-206.716 954.577,-176.652 931.936,-146.747 823.546,-127.099 767.033,-118.711"/>
<polygon fill="green" stroke="green" stroke-width="0.615656" points="767.515,-115.244 757.117,-117.276 766.512,-122.172 767.515,-115.244"/>
</g>
<!-- 10472 -->
<g id="node60" class="node"><title>10472</title>
<ellipse fill="white" stroke="black" cx="917.577" cy="-204.229" rx="27.6545" ry="27.6545"/>
<text text-anchor="middle" x="917.577" y="-202.029" font-family="Times,serif" font-size="9.00">10472</text>
</g>
<!-- 9704&#45;&gt;10472 -->
<g id="edge61" class="edge"><title>9704&#45;&gt;10472</title>
<path fill="none" stroke="green" stroke-width="0.225772" d="M917.577,-270.492C917.577,-261.78 917.577,-251.713 917.577,-242.134"/>
<polygon fill="green" stroke="green" stroke-width="0.225772" points="921.077,-242.018 917.577,-232.018 914.077,-242.018 921.077,-242.018"/>
</g>
<!-- 10472&#45;&gt;5851 -->
<g id="edge35" class="edge"><title>10472&#45;&gt;5851</title>
<path fill="none" stroke="green" stroke-width="0.138876" d="M896.441,-186.337C891.692,-182.911 886.575,-179.492 881.577,-176.652 843.388,-154.949 796.183,-136.388 765.272,-125.242"/>
<polygon fill="green" stroke="green" stroke-width="0.138876" points="766.435,-121.941 755.841,-121.889 764.091,-128.537 766.435,-121.941"/>
</g>
<!-- 21996&#45;&gt;12339 -->
<g id="edge41" class="edge"><title>21996&#45;&gt;12339</title>
<path fill="none" stroke="red" stroke-width="0.302417" d="M276.577,-358.788C276.577,-350.766 276.577,-341.822 276.577,-333.267"/>
<polygon fill="red" stroke="red" stroke-width="0.302417" points="280.077,-333.114 276.577,-323.114 273.077,-333.114 280.077,-333.114"/>
</g>
<!-- 24172 -->
<g id="node63" class="node"><title>24172</title>
<ellipse fill="white" stroke="black" cx="732.577" cy="-204.229" rx="27.6545" ry="27.6545"/>
<text text-anchor="middle" x="732.577" y="-202.029" font-family="Times,serif" font-size="9.00">24172</text>
</g>
<!-- 24172&#45;&gt;5851 -->
<g id="edge38" class="edge"><title>24172&#45;&gt;5851</title>
<path fill="none" stroke="green" stroke-width="0.123608" d="M732.577,-176.48C732.577,-167.61 732.577,-157.614 732.577,-148.263"/>
<polygon fill="green" stroke="green" stroke-width="0.123608" points="736.077,-148.074 732.577,-138.074 729.077,-148.075 736.077,-148.074"/>
</g>
<!-- 10861&#45;&gt;19847 -->
<g id="edge6" class="edge"><title>10861&#45;&gt;19847</title>
<path fill="none" stroke="green" stroke-width="0.135678" d="M849.677,-358.788C849.407,-350.766 849.106,-341.822 848.818,-333.267"/>
<polygon fill="green" stroke="green" stroke-width="0.135678" points="852.311,-332.99 848.477,-323.114 845.315,-333.226 852.311,-332.99"/>
</g>
</g>
</svg>
