<?xml version="1.0" encoding="UTF-8" standalone="no"?>
<!DOCTYPE svg PUBLIC "-//W3C//DTD SVG 1.1//EN"
 "http://www.w3.org/Graphics/SVG/1.1/DTD/svg11.dtd">
<!-- Generated by graphviz version 2.38.0 (20140413.2041)
 -->
<!-- Title: %3 Pages: 1 -->
<svg width="1172pt" height="103pt"
 viewBox="0.00 0.00 1171.70 103.40" xmlns="http://www.w3.org/2000/svg" xmlns:xlink="http://www.w3.org/1999/xlink">
<g id="graph0" class="graph" transform="scale(1 1) rotate(0) translate(4 99.397)">
<title>%3</title>
<polygon fill="white" stroke="none" points="-4,4 -4,-99.397 1167.7,-99.397 1167.7,4 -4,4"/>
<!-- &#45;1 -->
<g id="node1" class="node"><title>&#45;1</title>
<polygon fill="lightgray" stroke="black" points="26.8492,-89.5477 2.84924,-89.5477 2.84924,-71.5477 26.8492,-71.5477 26.8492,-89.5477"/>
<text text-anchor="middle" x="14.8492" y="-78.3477" font-family="Times,serif" font-size="9.00">&#45;1</text>
</g>
<!-- 0 -->
<g id="node25" class="node"><title>0</title>
<ellipse fill="lightblue" stroke="black" cx="14.8492" cy="-14.8492" rx="14.7" ry="14.7"/>
<text text-anchor="middle" x="14.8492" y="-12.6492" font-family="Times,serif" font-size="9.00">0</text>
</g>
<!-- &#45;1&#45;&gt;0 -->
<g id="edge2" class="edge"><title>&#45;1&#45;&gt;0</title>
<path fill="none" stroke="green" stroke-width="0.667761" d="M14.8492,-71.4803C14.8492,-63.565 14.8492,-51.0967 14.8492,-39.9685"/>
<polygon fill="green" stroke="green" stroke-width="0.667761" points="18.3493,-39.902 14.8492,-29.9021 11.3493,-39.9021 18.3493,-39.902"/>
</g>
<!-- &#45;2 -->
<g id="node2" class="node"><title>&#45;2</title>
<polygon fill="lightgray" stroke="black" points="68.8492,-89.5477 44.8492,-89.5477 44.8492,-71.5477 68.8492,-71.5477 68.8492,-89.5477"/>
<text text-anchor="middle" x="56.8492" y="-78.3477" font-family="Times,serif" font-size="9.00">&#45;2</text>
</g>
<!-- &#45;3 -->
<g id="node3" class="node"><title>&#45;3</title>
<polygon fill="lightgray" stroke="black" points="110.849,-89.5477 86.8492,-89.5477 86.8492,-71.5477 110.849,-71.5477 110.849,-89.5477"/>
<text text-anchor="middle" x="98.8492" y="-78.3477" font-family="Times,serif" font-size="9.00">&#45;3</text>
</g>
<!-- &#45;4 -->
<g id="node4" class="node"><title>&#45;4</title>
<polygon fill="lightgray" stroke="black" points="152.849,-89.5477 128.849,-89.5477 128.849,-71.5477 152.849,-71.5477 152.849,-89.5477"/>
<text text-anchor="middle" x="140.849" y="-78.3477" font-family="Times,serif" font-size="9.00">&#45;4</text>
</g>
<!-- &#45;5 -->
<g id="node5" class="node"><title>&#45;5</title>
<polygon fill="lightgray" stroke="black" points="194.849,-89.5477 170.849,-89.5477 170.849,-71.5477 194.849,-71.5477 194.849,-89.5477"/>
<text text-anchor="middle" x="182.849" y="-78.3477" font-family="Times,serif" font-size="9.00">&#45;5</text>
</g>
<!-- &#45;6 -->
<g id="node6" class="node"><title>&#45;6</title>
<polygon fill="lightgray" stroke="black" points="236.849,-89.5477 212.849,-89.5477 212.849,-71.5477 236.849,-71.5477 236.849,-89.5477"/>
<text text-anchor="middle" x="224.849" y="-78.3477" font-family="Times,serif" font-size="9.00">&#45;6</text>
</g>
<!-- &#45;7 -->
<g id="node7" class="node"><title>&#45;7</title>
<polygon fill="lightgray" stroke="black" points="278.849,-89.5477 254.849,-89.5477 254.849,-71.5477 278.849,-71.5477 278.849,-89.5477"/>
<text text-anchor="middle" x="266.849" y="-78.3477" font-family="Times,serif" font-size="9.00">&#45;7</text>
</g>
<!-- &#45;8 -->
<g id="node8" class="node"><title>&#45;8</title>
<polygon fill="lightgray" stroke="black" points="320.849,-89.5477 296.849,-89.5477 296.849,-71.5477 320.849,-71.5477 320.849,-89.5477"/>
<text text-anchor="middle" x="308.849" y="-78.3477" font-family="Times,serif" font-size="9.00">&#45;8</text>
</g>
<!-- &#45;9 -->
<g id="node9" class="node"><title>&#45;9</title>
<polygon fill="lightgray" stroke="black" points="362.849,-89.5477 338.849,-89.5477 338.849,-71.5477 362.849,-71.5477 362.849,-89.5477"/>
<text text-anchor="middle" x="350.849" y="-78.3477" font-family="Times,serif" font-size="9.00">&#45;9</text>
</g>
<!-- &#45;10 -->
<g id="node10" class="node"><title>&#45;10</title>
<polygon fill="lightgray" stroke="black" points="410.349,-89.5477 381.349,-89.5477 381.349,-71.5477 410.349,-71.5477 410.349,-89.5477"/>
<text text-anchor="middle" x="395.849" y="-78.3477" font-family="Times,serif" font-size="9.00">&#45;10</text>
</g>
<!-- &#45;11 -->
<g id="node11" class="node"><title>&#45;11</title>
<polygon fill="lightgray" stroke="black" points="457.349,-89.5477 428.349,-89.5477 428.349,-71.5477 457.349,-71.5477 457.349,-89.5477"/>
<text text-anchor="middle" x="442.849" y="-78.3477" font-family="Times,serif" font-size="9.00">&#45;11</text>
</g>
<!-- &#45;12 -->
<g id="node12" class="node"><title>&#45;12</title>
<polygon fill="lightgray" stroke="black" points="504.349,-89.5477 475.349,-89.5477 475.349,-71.5477 504.349,-71.5477 504.349,-89.5477"/>
<text text-anchor="middle" x="489.849" y="-78.3477" font-family="Times,serif" font-size="9.00">&#45;12</text>
</g>
<!-- &#45;13 -->
<g id="node13" class="node"><title>&#45;13</title>
<polygon fill="lightgray" stroke="black" points="551.349,-89.5477 522.349,-89.5477 522.349,-71.5477 551.349,-71.5477 551.349,-89.5477"/>
<text text-anchor="middle" x="536.849" y="-78.3477" font-family="Times,serif" font-size="9.00">&#45;13</text>
</g>
<!-- &#45;14 -->
<g id="node14" class="node"><title>&#45;14</title>
<polygon fill="lightgray" stroke="black" points="598.349,-89.5477 569.349,-89.5477 569.349,-71.5477 598.349,-71.5477 598.349,-89.5477"/>
<text text-anchor="middle" x="583.849" y="-78.3477" font-family="Times,serif" font-size="9.00">&#45;14</text>
</g>
<!-- &#45;15 -->
<g id="node15" class="node"><title>&#45;15</title>
<polygon fill="lightgray" stroke="black" points="645.349,-89.5477 616.349,-89.5477 616.349,-71.5477 645.349,-71.5477 645.349,-89.5477"/>
<text text-anchor="middle" x="630.849" y="-78.3477" font-family="Times,serif" font-size="9.00">&#45;15</text>
</g>
<!-- &#45;16 -->
<g id="node16" class="node"><title>&#45;16</title>
<polygon fill="lightgray" stroke="black" points="692.349,-89.5477 663.349,-89.5477 663.349,-71.5477 692.349,-71.5477 692.349,-89.5477"/>
<text text-anchor="middle" x="677.849" y="-78.3477" font-family="Times,serif" font-size="9.00">&#45;16</text>
</g>
<!-- &#45;17 -->
<g id="node17" class="node"><title>&#45;17</title>
<polygon fill="lightgray" stroke="black" points="739.349,-89.5477 710.349,-89.5477 710.349,-71.5477 739.349,-71.5477 739.349,-89.5477"/>
<text text-anchor="middle" x="724.849" y="-78.3477" font-family="Times,serif" font-size="9.00">&#45;17</text>
</g>
<!-- 3 -->
<g id="node28" class="node"><title>3</title>
<ellipse fill="lightblue" stroke="black" cx="724.849" cy="-14.8492" rx="14.7" ry="14.7"/>
<text text-anchor="middle" x="724.849" y="-12.6492" font-family="Times,serif" font-size="9.00">3</text>
</g>
<!-- &#45;17&#45;&gt;3 -->
<g id="edge1" class="edge"><title>&#45;17&#45;&gt;3</title>
<path fill="none" stroke="green" stroke-width="4.06099" d="M724.849,-71.4803C724.849,-63.565 724.849,-51.0967 724.849,-39.9685"/>
<polygon fill="green" stroke="green" stroke-width="4.06099" points="728.403,-39.902 724.849,-29.9021 721.296,-39.9021 728.403,-39.902"/>
</g>
<!-- &#45;18 -->
<g id="node18" class="node"><title>&#45;18</title>
<polygon fill="lightgray" stroke="black" points="786.349,-89.5477 757.349,-89.5477 757.349,-71.5477 786.349,-71.5477 786.349,-89.5477"/>
<text text-anchor="middle" x="771.849" y="-78.3477" font-family="Times,serif" font-size="9.00">&#45;18</text>
</g>
<!-- &#45;19 -->
<g id="node19" class="node"><title>&#45;19</title>
<polygon fill="lightgray" stroke="black" points="833.349,-89.5477 804.349,-89.5477 804.349,-71.5477 833.349,-71.5477 833.349,-89.5477"/>
<text text-anchor="middle" x="818.849" y="-78.3477" font-family="Times,serif" font-size="9.00">&#45;19</text>
</g>
<!-- &#45;20 -->
<g id="node20" class="node"><title>&#45;20</title>
<polygon fill="lightgray" stroke="black" points="880.349,-89.5477 851.349,-89.5477 851.349,-71.5477 880.349,-71.5477 880.349,-89.5477"/>
<text text-anchor="middle" x="865.849" y="-78.3477" font-family="Times,serif" font-size="9.00">&#45;20</text>
</g>
<!-- &#45;21 -->
<g id="node21" class="node"><title>&#45;21</title>
<polygon fill="lightgray" stroke="black" points="927.349,-89.5477 898.349,-89.5477 898.349,-71.5477 927.349,-71.5477 927.349,-89.5477"/>
<text text-anchor="middle" x="912.849" y="-78.3477" font-family="Times,serif" font-size="9.00">&#45;21</text>
</g>
<!-- &#45;22 -->
<g id="node22" class="node"><title>&#45;22</title>
<polygon fill="lightgray" stroke="black" points="974.349,-89.5477 945.349,-89.5477 945.349,-71.5477 974.349,-71.5477 974.349,-89.5477"/>
<text text-anchor="middle" x="959.849" y="-78.3477" font-family="Times,serif" font-size="9.00">&#45;22</text>
</g>
<!-- &#45;23 -->
<g id="node23" class="node"><title>&#45;23</title>
<polygon fill="lightgray" stroke="black" points="1021.35,-89.5477 992.349,-89.5477 992.349,-71.5477 1021.35,-71.5477 1021.35,-89.5477"/>
<text text-anchor="middle" x="1006.85" y="-78.3477" font-family="Times,serif" font-size="9.00">&#45;23</text>
</g>
<!-- &#45;24 -->
<g id="node24" class="node"><title>&#45;24</title>
<polygon fill="lightgray" stroke="black" points="1068.35,-89.5477 1039.35,-89.5477 1039.35,-71.5477 1068.35,-71.5477 1068.35,-89.5477"/>
<text text-anchor="middle" x="1053.85" y="-78.3477" font-family="Times,serif" font-size="9.00">&#45;24</text>
</g>
<!-- 1 -->
<g id="node26" class="node"><title>1</title>
<ellipse fill="lightblue" stroke="black" cx="1100.85" cy="-80.5477" rx="14.7" ry="14.7"/>
<text text-anchor="middle" x="1100.85" y="-78.3477" font-family="Times,serif" font-size="9.00">1</text>
</g>
<!-- 2 -->
<g id="node27" class="node"><title>2</title>
<ellipse fill="lightblue" stroke="black" cx="1148.85" cy="-80.5477" rx="14.7" ry="14.7"/>
<text text-anchor="middle" x="1148.85" y="-78.3477" font-family="Times,serif" font-size="9.00">2</text>
</g>
</g>
</svg>
