<?xml version="1.0" encoding="UTF-8" standalone="no"?>
<!DOCTYPE svg PUBLIC "-//W3C//DTD SVG 1.1//EN"
 "http://www.w3.org/Graphics/SVG/1.1/DTD/svg11.dtd">
<!-- Generated by graphviz version 2.38.0 (20140413.2041)
 -->
<!-- Title: %3 Pages: 1 -->
<svg width="1078pt" height="92pt"
 viewBox="0.00 0.00 1078.00 91.70" xmlns="http://www.w3.org/2000/svg" xmlns:xlink="http://www.w3.org/1999/xlink">
<g id="graph0" class="graph" transform="scale(1 1) rotate(0) translate(4 87.6985)">
<title>%3</title>
<polygon fill="white" stroke="none" points="-4,4 -4,-87.6985 1074,-87.6985 1074,4 -4,4"/>
<!-- &#45;1 -->
<g id="node1" class="node"><title>&#45;1</title>
<polygon fill="lightgray" stroke="black" points="113.5,-83.6985 89.5,-83.6985 89.5,-65.6985 113.5,-65.6985 113.5,-83.6985"/>
<text text-anchor="middle" x="101.5" y="-72.4985" font-family="Times,serif" font-size="9.00">&#45;1</text>
</g>
<!-- 0 -->
<g id="node25" class="node"><title>0</title>
<ellipse fill="lightblue" stroke="black" cx="419.5" cy="-14.8492" rx="14.7" ry="14.7"/>
<text text-anchor="middle" x="419.5" y="-12.6492" font-family="Times,serif" font-size="9.00">0</text>
</g>
<!-- &#45;1&#45;&gt;0 -->
<g id="edge3" class="edge"><title>&#45;1&#45;&gt;0</title>
<path fill="none" stroke="red" stroke-width="0.470551" d="M113.802,-68.5474C116.625,-67.4962 119.639,-66.4755 122.5,-65.6985 221.451,-38.8305 343.09,-23.8737 394.588,-18.346"/>
<polygon fill="red" stroke="red" stroke-width="0.470551" points="395.174,-21.8039 404.754,-17.2805 394.444,-14.842 395.174,-21.8039"/>
</g>
<!-- 3 -->
<g id="node28" class="node"><title>3</title>
<ellipse fill="lightblue" stroke="black" cx="258.5" cy="-14.8492" rx="14.7" ry="14.7"/>
<text text-anchor="middle" x="258.5" y="-12.6492" font-family="Times,serif" font-size="9.00">3</text>
</g>
<!-- &#45;1&#45;&gt;3 -->
<g id="edge39" class="edge"><title>&#45;1&#45;&gt;3</title>
<path fill="none" stroke="red" stroke-width="0.237609" d="M113.927,-68.9346C116.743,-67.8633 119.723,-66.7365 122.5,-65.6985 161.977,-50.9447 208.052,-34.1444 235.167,-24.3"/>
<polygon fill="red" stroke="red" stroke-width="0.237609" points="236.371,-27.5867 244.578,-20.8864 233.984,-21.0062 236.371,-27.5867"/>
</g>
<!-- &#45;2 -->
<g id="node2" class="node"><title>&#45;2</title>
<polygon fill="lightgray" stroke="black" points="655.5,-83.6985 631.5,-83.6985 631.5,-65.6985 655.5,-65.6985 655.5,-83.6985"/>
<text text-anchor="middle" x="643.5" y="-72.4985" font-family="Times,serif" font-size="9.00">&#45;2</text>
</g>
<!-- 1 -->
<g id="node26" class="node"><title>1</title>
<ellipse fill="lightblue" stroke="black" cx="753.5" cy="-14.8492" rx="14.7" ry="14.7"/>
<text text-anchor="middle" x="753.5" y="-12.6492" font-family="Times,serif" font-size="9.00">1</text>
</g>
<!-- &#45;2&#45;&gt;1 -->
<g id="edge10" class="edge"><title>&#45;2&#45;&gt;1</title>
<path fill="none" stroke="green" stroke-width="0.330336" d="M655.692,-67.2866C673.998,-57.6597 708.86,-39.3256 731.636,-27.3477"/>
<polygon fill="green" stroke="green" stroke-width="0.330336" points="733.352,-30.3998 740.573,-22.6474 730.094,-24.2043 733.352,-30.3998"/>
</g>
<!-- 2 -->
<g id="node27" class="node"><title>2</title>
<ellipse fill="lightblue" stroke="black" cx="622.5" cy="-14.8492" rx="14.7" ry="14.7"/>
<text text-anchor="middle" x="622.5" y="-12.6492" font-family="Times,serif" font-size="9.00">2</text>
</g>
<!-- &#45;2&#45;&gt;2 -->
<g id="edge30" class="edge"><title>&#45;2&#45;&gt;2</title>
<path fill="none" stroke="green" stroke-width="0.298649" d="M640.58,-65.6548C638.037,-58.6501 634.225,-48.1471 630.755,-38.5892"/>
<polygon fill="green" stroke="green" stroke-width="0.298649" points="634.033,-37.3628 627.331,-29.1573 627.453,-39.7515 634.033,-37.3628"/>
</g>
<!-- &#45;2&#45;&gt;3 -->
<g id="edge45" class="edge"><title>&#45;2&#45;&gt;3</title>
<path fill="none" stroke="red" stroke-width="0.378213" d="M631.214,-68.4833C628.391,-67.4353 625.373,-66.4322 622.5,-65.6985 557.678,-49.1439 354.671,-26.2473 283.475,-18.5187"/>
<polygon fill="red" stroke="red" stroke-width="0.378213" points="283.54,-15.0054 273.222,-17.4118 282.788,-21.965 283.54,-15.0054"/>
</g>
<!-- &#45;3 -->
<g id="node3" class="node"><title>&#45;3</title>
<polygon fill="lightgray" stroke="black" points="476.5,-83.6985 452.5,-83.6985 452.5,-65.6985 476.5,-65.6985 476.5,-83.6985"/>
<text text-anchor="middle" x="464.5" y="-72.4985" font-family="Times,serif" font-size="9.00">&#45;3</text>
</g>
<!-- &#45;3&#45;&gt;0 -->
<g id="edge43" class="edge"><title>&#45;3&#45;&gt;0</title>
<path fill="none" stroke="green" stroke-width="0.120474" d="M458.243,-65.6548C452.13,-57.7964 442.592,-45.5348 434.51,-35.1446"/>
<polygon fill="green" stroke="green" stroke-width="0.120474" points="437.072,-32.7387 428.17,-26.9946 431.547,-37.0367 437.072,-32.7387"/>
</g>
<!-- &#45;3&#45;&gt;2 -->
<g id="edge17" class="edge"><title>&#45;3&#45;&gt;2</title>
<path fill="none" stroke="green" stroke-width="0.339374" d="M476.925,-68.9297C479.742,-67.8587 482.721,-66.7332 485.5,-65.6985 525.461,-50.8176 572.161,-33.933 599.422,-24.1271"/>
<polygon fill="green" stroke="green" stroke-width="0.339374" points="600.636,-27.4099 608.864,-20.7345 598.269,-20.8223 600.636,-27.4099"/>
</g>
<!-- &#45;4 -->
<g id="node4" class="node"><title>&#45;4</title>
<polygon fill="lightgray" stroke="black" points="71.5,-83.6985 47.5,-83.6985 47.5,-65.6985 71.5,-65.6985 71.5,-83.6985"/>
<text text-anchor="middle" x="59.5" y="-72.4985" font-family="Times,serif" font-size="9.00">&#45;4</text>
</g>
<!-- &#45;4&#45;&gt;3 -->
<g id="edge16" class="edge"><title>&#45;4&#45;&gt;3</title>
<path fill="none" stroke="red" stroke-width="0.415317" d="M71.87,-68.7723C74.6893,-67.7093 77.6841,-66.627 80.5,-65.6985 134.677,-47.8337 199.441,-30.7433 233.966,-21.9656"/>
<polygon fill="red" stroke="red" stroke-width="0.415317" points="235.222,-25.2584 244.061,-19.4173 233.509,-18.4713 235.222,-25.2584"/>
</g>
<!-- &#45;5 -->
<g id="node5" class="node"><title>&#45;5</title>
<polygon fill="lightgray" stroke="black" points="834.5,-83.6985 810.5,-83.6985 810.5,-65.6985 834.5,-65.6985 834.5,-83.6985"/>
<text text-anchor="middle" x="822.5" y="-72.4985" font-family="Times,serif" font-size="9.00">&#45;5</text>
</g>
<!-- &#45;5&#45;&gt;0 -->
<g id="edge24" class="edge"><title>&#45;5&#45;&gt;0</title>
<path fill="none" stroke="green" stroke-width="0.557796" d="M810.218,-68.4697C807.394,-67.4225 804.375,-66.4231 801.5,-65.6985 669.623,-32.4641 506.233,-20.5752 444.598,-17.0905"/>
<polygon fill="green" stroke="green" stroke-width="0.557796" points="444.478,-13.579 434.304,-16.5343 444.101,-20.5688 444.478,-13.579"/>
</g>
<!-- &#45;5&#45;&gt;1 -->
<g id="edge11" class="edge"><title>&#45;5&#45;&gt;1</title>
<path fill="none" stroke="red" stroke-width="0.509802" d="M812.906,-65.6548C802.456,-56.8941 785.48,-42.6612 772.345,-31.6492"/>
<polygon fill="red" stroke="red" stroke-width="0.509802" points="774.288,-28.7104 764.376,-24.9678 769.791,-34.0746 774.288,-28.7104"/>
</g>
<!-- &#45;5&#45;&gt;2 -->
<g id="edge49" class="edge"><title>&#45;5&#45;&gt;2</title>
<path fill="none" stroke="green" stroke-width="0.369613" d="M810.131,-68.7692C807.312,-67.7065 804.317,-66.625 801.5,-65.6985 746.791,-47.7026 681.332,-30.5628 646.725,-21.8373"/>
<polygon fill="green" stroke="green" stroke-width="0.369613" points="647.572,-18.4414 637.021,-19.4079 645.872,-25.2318 647.572,-18.4414"/>
</g>
<!-- &#45;6 -->
<g id="node6" class="node"><title>&#45;6</title>
<polygon fill="lightgray" stroke="black" points="697.5,-83.6985 673.5,-83.6985 673.5,-65.6985 697.5,-65.6985 697.5,-83.6985"/>
<text text-anchor="middle" x="685.5" y="-72.4985" font-family="Times,serif" font-size="9.00">&#45;6</text>
</g>
<!-- &#45;6&#45;&gt;1 -->
<g id="edge27" class="edge"><title>&#45;6&#45;&gt;1</title>
<path fill="none" stroke="green" stroke-width="0.324339" d="M694.955,-65.6548C705.133,-56.996 721.595,-42.9914 734.475,-32.0346"/>
<polygon fill="green" stroke="green" stroke-width="0.324339" points="736.97,-34.5069 742.319,-25.3614 732.434,-29.1752 736.97,-34.5069"/>
</g>
<!-- &#45;6&#45;&gt;2 -->
<g id="edge44" class="edge"><title>&#45;6&#45;&gt;2</title>
<path fill="none" stroke="red" stroke-width="0.377598" d="M676.74,-65.6548C667.51,-57.1793 652.702,-43.5822 640.889,-32.7347"/>
<polygon fill="red" stroke="red" stroke-width="0.377598" points="643.027,-29.9466 633.294,-25.761 638.293,-35.1026 643.027,-29.9466"/>
</g>
<!-- &#45;6&#45;&gt;3 -->
<g id="edge4" class="edge"><title>&#45;6&#45;&gt;3</title>
<path fill="none" stroke="green" stroke-width="0.504433" d="M673.222,-68.4535C670.398,-67.4071 667.378,-66.4121 664.5,-65.6985 627.394,-56.4971 365.459,-27.5058 283.173,-18.5269"/>
<polygon fill="green" stroke="green" stroke-width="0.504433" points="283.533,-15.0455 273.213,-17.4422 282.775,-22.0044 283.533,-15.0455"/>
</g>
<!-- &#45;7 -->
<g id="node7" class="node"><title>&#45;7</title>
<polygon fill="lightgray" stroke="black" points="155.5,-83.6985 131.5,-83.6985 131.5,-65.6985 155.5,-65.6985 155.5,-83.6985"/>
<text text-anchor="middle" x="143.5" y="-72.4985" font-family="Times,serif" font-size="9.00">&#45;7</text>
</g>
<!-- &#45;7&#45;&gt;0 -->
<g id="edge5" class="edge"><title>&#45;7&#45;&gt;0</title>
<path fill="none" stroke="green" stroke-width="0.136196" d="M155.818,-68.6041C158.64,-67.5499 161.649,-66.5137 164.5,-65.6985 247.614,-41.9322 349.188,-25.8137 395.01,-19.211"/>
<polygon fill="green" stroke="green" stroke-width="0.136196" points="395.507,-22.6756 404.917,-17.8075 394.525,-15.7448 395.507,-22.6756"/>
</g>
<!-- &#45;7&#45;&gt;3 -->
<g id="edge38" class="edge"><title>&#45;7&#45;&gt;3</title>
<path fill="none" stroke="red" stroke-width="0.300886" d="M155.807,-67.5076C175.057,-57.824 212.564,-38.9569 236.529,-26.9015"/>
<polygon fill="red" stroke="red" stroke-width="0.300886" points="238.22,-29.9689 245.58,-22.3483 235.074,-23.7155 238.22,-29.9689"/>
</g>
<!-- &#45;8 -->
<g id="node8" class="node"><title>&#45;8</title>
<polygon fill="lightgray" stroke="black" points="613.5,-83.6985 589.5,-83.6985 589.5,-65.6985 613.5,-65.6985 613.5,-83.6985"/>
<text text-anchor="middle" x="601.5" y="-72.4985" font-family="Times,serif" font-size="9.00">&#45;8</text>
</g>
<!-- &#45;8&#45;&gt;1 -->
<g id="edge6" class="edge"><title>&#45;8&#45;&gt;1</title>
<path fill="none" stroke="green" stroke-width="0.124419" d="M613.682,-69.0622C638.982,-59.4334 697.581,-37.1314 730.317,-24.6724"/>
<polygon fill="green" stroke="green" stroke-width="0.124419" points="731.861,-27.8298 739.962,-21.0016 729.371,-21.2876 731.861,-27.8298"/>
</g>
<!-- &#45;8&#45;&gt;2 -->
<g id="edge18" class="edge"><title>&#45;8&#45;&gt;2</title>
<path fill="none" stroke="green" stroke-width="0.801002" d="M604.42,-65.6548C606.963,-58.6501 610.775,-48.1471 614.245,-38.5892"/>
<polygon fill="green" stroke="green" stroke-width="0.801002" points="617.547,-39.7515 617.669,-29.1573 610.967,-37.3628 617.547,-39.7515"/>
</g>
<!-- &#45;8&#45;&gt;3 -->
<g id="edge33" class="edge"><title>&#45;8&#45;&gt;3</title>
<path fill="none" stroke="green" stroke-width="0.205871" d="M589.205,-68.5205C586.382,-67.4706 583.366,-66.4573 580.5,-65.6985 472.04,-36.9868 338.362,-22.8425 283.643,-17.9272"/>
<polygon fill="green" stroke="green" stroke-width="0.205871" points="283.759,-14.4241 273.493,-17.041 283.15,-21.3976 283.759,-14.4241"/>
</g>
<!-- &#45;9 -->
<g id="node9" class="node"><title>&#45;9</title>
<polygon fill="lightgray" stroke="black" points="339.5,-83.6985 315.5,-83.6985 315.5,-65.6985 339.5,-65.6985 339.5,-83.6985"/>
<text text-anchor="middle" x="327.5" y="-72.4985" font-family="Times,serif" font-size="9.00">&#45;9</text>
</g>
<!-- &#45;9&#45;&gt;0 -->
<g id="edge34" class="edge"><title>&#45;9&#45;&gt;0</title>
<path fill="none" stroke="green" stroke-width="0.137722" d="M339.527,-66.1357C354.527,-56.7037 380.417,-40.4246 398.669,-28.948"/>
<polygon fill="green" stroke="green" stroke-width="0.137722" points="400.574,-31.8846 407.176,-23.5985 396.847,-25.9587 400.574,-31.8846"/>
</g>
<!-- &#45;9&#45;&gt;1 -->
<g id="edge9" class="edge"><title>&#45;9&#45;&gt;1</title>
<path fill="none" stroke="red" stroke-width="0.363302" d="M339.773,-68.4349C342.598,-67.3895 345.619,-66.3996 348.5,-65.6985 485.845,-32.2761 524.412,-48.5696 664.5,-29.6985 686.42,-26.7456 711.288,-22.8279 729.154,-19.913"/>
<polygon fill="red" stroke="red" stroke-width="0.363302" points="729.737,-23.3641 739.036,-18.2864 728.6,-16.4571 729.737,-23.3641"/>
</g>
<!-- &#45;9&#45;&gt;3 -->
<g id="edge46" class="edge"><title>&#45;9&#45;&gt;3</title>
<path fill="none" stroke="green" stroke-width="0.570146" d="M317.906,-65.6548C307.456,-56.8941 290.48,-42.6612 277.345,-31.6492"/>
<polygon fill="green" stroke="green" stroke-width="0.570146" points="279.288,-28.7104 269.376,-24.9678 274.791,-34.0746 279.288,-28.7104"/>
</g>
<!-- &#45;10 -->
<g id="node10" class="node"><title>&#45;10</title>
<polygon fill="lightgray" stroke="black" points="203,-83.6985 174,-83.6985 174,-65.6985 203,-65.6985 203,-83.6985"/>
<text text-anchor="middle" x="188.5" y="-72.4985" font-family="Times,serif" font-size="9.00">&#45;10</text>
</g>
<!-- &#45;10&#45;&gt;0 -->
<g id="edge21" class="edge"><title>&#45;10&#45;&gt;0</title>
<path fill="none" stroke="red" stroke-width="0.214133" d="M203.03,-68.3996C205.825,-67.45 208.741,-66.5067 211.5,-65.6985 277.136,-46.4703 355.994,-29.1066 395.073,-20.8776"/>
<polygon fill="red" stroke="red" stroke-width="0.214133" points="395.923,-24.2757 404.996,-18.8049 394.492,-17.4235 395.923,-24.2757"/>
</g>
<!-- &#45;10&#45;&gt;3 -->
<g id="edge8" class="edge"><title>&#45;10&#45;&gt;3</title>
<path fill="none" stroke="green" stroke-width="0.538223" d="M198.233,-65.6548C208.834,-56.8941 226.056,-42.6612 239.381,-31.6492"/>
<polygon fill="green" stroke="green" stroke-width="0.538223" points="241.987,-34.0361 247.466,-24.9678 237.528,-28.6402 241.987,-34.0361"/>
</g>
<!-- &#45;11 -->
<g id="node11" class="node"><title>&#45;11</title>
<polygon fill="lightgray" stroke="black" points="571,-83.6985 542,-83.6985 542,-65.6985 571,-65.6985 571,-83.6985"/>
<text text-anchor="middle" x="556.5" y="-72.4985" font-family="Times,serif" font-size="9.00">&#45;11</text>
</g>
<!-- &#45;11&#45;&gt;0 -->
<g id="edge13" class="edge"><title>&#45;11&#45;&gt;0</title>
<path fill="none" stroke="red" stroke-width="0.282122" d="M541.839,-67.5076C517.985,-57.4353 470.602,-37.4274 442.317,-25.4837"/>
<polygon fill="red" stroke="red" stroke-width="0.282122" points="443.413,-22.1473 432.839,-21.4816 440.69,-28.596 443.413,-22.1473"/>
</g>
<!-- &#45;11&#45;&gt;2 -->
<g id="edge41" class="edge"><title>&#45;11&#45;&gt;2</title>
<path fill="none" stroke="red" stroke-width="0.454724" d="M565.677,-65.6548C575.556,-56.996 591.534,-42.9914 604.034,-32.0346"/>
<polygon fill="red" stroke="red" stroke-width="0.454724" points="606.434,-34.5849 611.648,-25.3614 601.82,-29.3208 606.434,-34.5849"/>
</g>
<!-- &#45;12 -->
<g id="node12" class="node"><title>&#45;12</title>
<polygon fill="lightgray" stroke="black" points="792,-83.6985 763,-83.6985 763,-65.6985 792,-65.6985 792,-83.6985"/>
<text text-anchor="middle" x="777.5" y="-72.4985" font-family="Times,serif" font-size="9.00">&#45;12</text>
</g>
<!-- &#45;12&#45;&gt;2 -->
<g id="edge28" class="edge"><title>&#45;12&#45;&gt;2</title>
<path fill="none" stroke="red" stroke-width="0.215588" d="M762.918,-68.2562C735.989,-58.2058 678.254,-36.6578 645.829,-24.556"/>
<polygon fill="red" stroke="red" stroke-width="0.215588" points="646.854,-21.203 636.262,-20.9854 644.407,-27.7611 646.854,-21.203"/>
</g>
<!-- &#45;13 -->
<g id="node13" class="node"><title>&#45;13</title>
<polygon fill="lightgray" stroke="black" points="387,-83.6985 358,-83.6985 358,-65.6985 387,-65.6985 387,-83.6985"/>
<text text-anchor="middle" x="372.5" y="-72.4985" font-family="Times,serif" font-size="9.00">&#45;13</text>
</g>
<!-- &#45;13&#45;&gt;0 -->
<g id="edge48" class="edge"><title>&#45;13&#45;&gt;0</title>
<path fill="none" stroke="red" stroke-width="0.746985" d="M379.035,-65.6548C385.484,-57.7178 395.581,-45.2891 404.076,-34.8334"/>
<polygon fill="red" stroke="red" stroke-width="0.746985" points="406.856,-36.9629 410.445,-26.9946 401.423,-32.5489 406.856,-36.9629"/>
</g>
<!-- &#45;14 -->
<g id="node14" class="node"><title>&#45;14</title>
<polygon fill="lightgray" stroke="black" points="976,-83.6985 947,-83.6985 947,-65.6985 976,-65.6985 976,-83.6985"/>
<text text-anchor="middle" x="961.5" y="-72.4985" font-family="Times,serif" font-size="9.00">&#45;14</text>
</g>
<!-- &#45;14&#45;&gt;1 -->
<g id="edge50" class="edge"><title>&#45;14&#45;&gt;1</title>
<path fill="none" stroke="green" stroke-width="0.585248" d="M946.951,-68.4619C944.158,-67.5066 941.247,-66.5452 938.5,-65.6985 881.46,-48.1184 813.492,-30.6921 777.938,-21.8411"/>
<polygon fill="green" stroke="green" stroke-width="0.585248" points="778.541,-18.3848 767.993,-19.3789 776.859,-25.1797 778.541,-18.3848"/>
</g>
<!-- &#45;14&#45;&gt;2 -->
<g id="edge14" class="edge"><title>&#45;14&#45;&gt;2</title>
<path fill="none" stroke="red" stroke-width="0.510813" d="M946.523,-68.0586C943.874,-67.1853 941.125,-66.3563 938.5,-65.6985 882.863,-51.7524 711.293,-27.8595 647.088,-19.1495"/>
<polygon fill="red" stroke="red" stroke-width="0.510813" points="647.445,-15.666 637.067,-17.7951 646.508,-22.6029 647.445,-15.666"/>
</g>
<!-- &#45;15 -->
<g id="node15" class="node"><title>&#45;15</title>
<polygon fill="lightgray" stroke="black" points="434,-83.6985 405,-83.6985 405,-65.6985 434,-65.6985 434,-83.6985"/>
<text text-anchor="middle" x="419.5" y="-72.4985" font-family="Times,serif" font-size="9.00">&#45;15</text>
</g>
<!-- &#45;15&#45;&gt;0 -->
<g id="edge29" class="edge"><title>&#45;15&#45;&gt;0</title>
<path fill="none" stroke="red" stroke-width="0.573945" d="M419.5,-65.6548C419.5,-59.0498 419.5,-49.3344 419.5,-40.2339"/>
<polygon fill="red" stroke="red" stroke-width="0.573945" points="423,-40.0563 419.5,-30.0563 416,-40.0564 423,-40.0563"/>
</g>
<!-- &#45;16 -->
<g id="node16" class="node"><title>&#45;16</title>
<polygon fill="lightgray" stroke="black" points="1023,-83.6985 994,-83.6985 994,-65.6985 1023,-65.6985 1023,-83.6985"/>
<text text-anchor="middle" x="1008.5" y="-72.4985" font-family="Times,serif" font-size="9.00">&#45;16</text>
</g>
<!-- &#45;16&#45;&gt;1 -->
<g id="edge32" class="edge"><title>&#45;16&#45;&gt;1</title>
<path fill="none" stroke="green" stroke-width="0.107162" d="M993.985,-68.3469C991.189,-67.4022 988.268,-66.4741 985.5,-65.6985 910.873,-44.788 820.642,-27.6905 778.041,-20.0941"/>
<polygon fill="green" stroke="green" stroke-width="0.107162" points="778.496,-16.6204 768.04,-18.33 777.28,-23.514 778.496,-16.6204"/>
</g>
<!-- &#45;17 -->
<g id="node17" class="node"><title>&#45;17</title>
<polygon fill="lightgray" stroke="black" points="250,-83.6985 221,-83.6985 221,-65.6985 250,-65.6985 250,-83.6985"/>
<text text-anchor="middle" x="235.5" y="-72.4985" font-family="Times,serif" font-size="9.00">&#45;17</text>
</g>
<!-- &#45;17&#45;&gt;0 -->
<g id="edge2" class="edge"><title>&#45;17&#45;&gt;0</title>
<path fill="none" stroke="green" stroke-width="0.461689" d="M250.075,-68.5441C252.866,-67.5811 255.769,-66.596 258.5,-65.6985 306.951,-49.7767 364.059,-32.4277 395.576,-22.9756"/>
<polygon fill="green" stroke="green" stroke-width="0.461689" points="396.656,-26.3057 405.233,-20.0863 394.65,-19.5994 396.656,-26.3057"/>
</g>
<!-- &#45;17&#45;&gt;2 -->
<g id="edge12" class="edge"><title>&#45;17&#45;&gt;2</title>
<path fill="none" stroke="red" stroke-width="0.693969" d="M250.466,-68.0135C253.116,-67.1452 255.869,-66.3296 258.5,-65.6985 383.779,-35.6481 537.964,-21.9851 597.453,-17.5571"/>
<polygon fill="red" stroke="red" stroke-width="0.693969" points="598.02,-21.0254 607.742,-16.8142 597.516,-14.0436 598.02,-21.0254"/>
</g>
<!-- &#45;17&#45;&gt;3 -->
<g id="edge15" class="edge"><title>&#45;17&#45;&gt;3</title>
<path fill="none" stroke="red" stroke-width="0.123304" d="M238.698,-65.6548C241.483,-58.6501 245.659,-48.1471 249.459,-38.5892"/>
<polygon fill="red" stroke="red" stroke-width="0.123304" points="252.767,-39.7429 253.209,-29.1573 246.262,-37.1567 252.767,-39.7429"/>
</g>
<!-- &#45;18 -->
<g id="node18" class="node"><title>&#45;18</title>
<polygon fill="lightgray" stroke="black" points="524,-83.6985 495,-83.6985 495,-65.6985 524,-65.6985 524,-83.6985"/>
<text text-anchor="middle" x="509.5" y="-72.4985" font-family="Times,serif" font-size="9.00">&#45;18</text>
</g>
<!-- &#45;18&#45;&gt;0 -->
<g id="edge47" class="edge"><title>&#45;18&#45;&gt;0</title>
<path fill="none" stroke="green" stroke-width="0.305031" d="M496.986,-65.6548C482.261,-56.1902 457.6,-40.3388 440.056,-29.0619"/>
<polygon fill="green" stroke="green" stroke-width="0.305031" points="441.925,-26.1026 431.62,-23.6398 438.14,-31.9911 441.925,-26.1026"/>
</g>
<!-- &#45;18&#45;&gt;1 -->
<g id="edge42" class="edge"><title>&#45;18&#45;&gt;1</title>
<path fill="none" stroke="green" stroke-width="0.214766" d="M524.152,-68.559C527.223,-67.5538 530.454,-66.5489 533.5,-65.6985 603.79,-46.0719 688.32,-28.605 729.114,-20.5531"/>
<polygon fill="green" stroke="green" stroke-width="0.214766" points="729.82,-23.9814 738.962,-18.6252 728.475,-17.1118 729.82,-23.9814"/>
</g>
<!-- &#45;18&#45;&gt;2 -->
<g id="edge22" class="edge"><title>&#45;18&#45;&gt;2</title>
<path fill="none" stroke="red" stroke-width="0.127142" d="M524.273,-66.1357C543.659,-56.2113 577.852,-38.7062 600.345,-27.1914"/>
<polygon fill="red" stroke="red" stroke-width="0.127142" points="602.169,-30.1895 609.475,-22.5171 598.979,-23.9586 602.169,-30.1895"/>
</g>
<!-- &#45;18&#45;&gt;3 -->
<g id="edge35" class="edge"><title>&#45;18&#45;&gt;3</title>
<path fill="none" stroke="red" stroke-width="0.614684" d="M494.852,-68.5433C491.781,-67.5392 488.549,-66.5388 485.5,-65.6985 412.657,-45.6202 324.916,-28.2423 283.052,-20.358"/>
<polygon fill="red" stroke="red" stroke-width="0.614684" points="283.443,-16.8707 272.971,-18.4766 282.159,-23.7519 283.443,-16.8707"/>
</g>
<!-- &#45;19 -->
<g id="node19" class="node"><title>&#45;19</title>
<polygon fill="lightgray" stroke="black" points="882,-83.6985 853,-83.6985 853,-65.6985 882,-65.6985 882,-83.6985"/>
<text text-anchor="middle" x="867.5" y="-72.4985" font-family="Times,serif" font-size="9.00">&#45;19</text>
</g>
<!-- &#45;19&#45;&gt;0 -->
<g id="edge36" class="edge"><title>&#45;19&#45;&gt;0</title>
<path fill="none" stroke="green" stroke-width="0.249341" d="M852.911,-68.3076C849.835,-67.3206 846.586,-66.3867 843.5,-65.6985 766.29,-48.4822 523.046,-25.3181 444.337,-18.0951"/>
<polygon fill="green" stroke="green" stroke-width="0.249341" points="444.634,-14.6077 434.357,-17.1839 443.997,-21.5787 444.634,-14.6077"/>
</g>
<!-- &#45;19&#45;&gt;1 -->
<g id="edge25" class="edge"><title>&#45;19&#45;&gt;1</title>
<path fill="none" stroke="green" stroke-width="0.121908" d="M852.596,-66.1357C833.039,-56.2113 798.543,-38.7062 775.851,-27.1914"/>
<polygon fill="green" stroke="green" stroke-width="0.121908" points="777.141,-23.9212 766.64,-22.5171 773.974,-30.1634 777.141,-23.9212"/>
</g>
<!-- &#45;20 -->
<g id="node20" class="node"><title>&#45;20</title>
<polygon fill="lightgray" stroke="black" points="745,-83.6985 716,-83.6985 716,-65.6985 745,-65.6985 745,-83.6985"/>
<text text-anchor="middle" x="730.5" y="-72.4985" font-family="Times,serif" font-size="9.00">&#45;20</text>
</g>
<!-- &#45;20&#45;&gt;2 -->
<g id="edge1" class="edge"><title>&#45;20&#45;&gt;2</title>
<path fill="none" stroke="red" stroke-width="0.684533" d="M715.935,-65.8967C697.461,-56.0012 665.447,-38.8534 644.119,-27.4292"/>
<polygon fill="red" stroke="red" stroke-width="0.684533" points="645.626,-24.2661 635.158,-22.6296 642.321,-30.4366 645.626,-24.2661"/>
</g>
<!-- &#45;21 -->
<g id="node21" class="node"><title>&#45;21</title>
<polygon fill="lightgray" stroke="black" points="297,-83.6985 268,-83.6985 268,-65.6985 297,-65.6985 297,-83.6985"/>
<text text-anchor="middle" x="282.5" y="-72.4985" font-family="Times,serif" font-size="9.00">&#45;21</text>
</g>
<!-- &#45;21&#45;&gt;2 -->
<g id="edge40" class="edge"><title>&#45;21&#45;&gt;2</title>
<path fill="none" stroke="green" stroke-width="0.503447" d="M297.111,-68.4017C300.185,-67.4079 303.428,-66.4474 306.5,-65.6985 413.298,-39.6645 543.842,-24.0894 597.577,-18.3623"/>
<polygon fill="green" stroke="green" stroke-width="0.503447" points="598.26,-21.8101 607.842,-17.2895 597.532,-14.8481 598.26,-21.8101"/>
</g>
<!-- &#45;21&#45;&gt;3 -->
<g id="edge31" class="edge"><title>&#45;21&#45;&gt;3</title>
<path fill="none" stroke="red" stroke-width="0.156841" d="M279.163,-65.6548C276.219,-58.5579 271.785,-47.8701 267.778,-38.2124"/>
<polygon fill="red" stroke="red" stroke-width="0.156841" points="270.902,-36.6102 263.838,-28.7148 264.437,-39.2927 270.902,-36.6102"/>
</g>
<!-- &#45;22 -->
<g id="node22" class="node"><title>&#45;22</title>
<polygon fill="lightgray" stroke="black" points="929,-83.6985 900,-83.6985 900,-65.6985 929,-65.6985 929,-83.6985"/>
<text text-anchor="middle" x="914.5" y="-72.4985" font-family="Times,serif" font-size="9.00">&#45;22</text>
</g>
<!-- &#45;22&#45;&gt;0 -->
<g id="edge7" class="edge"><title>&#45;22&#45;&gt;0</title>
<path fill="none" stroke="green" stroke-width="0.17953" d="M899.55,-67.9448C896.898,-67.0841 894.141,-66.2889 891.5,-65.6985 804.833,-46.3198 529.483,-24.2335 444.635,-17.738"/>
<polygon fill="green" stroke="green" stroke-width="0.17953" points="444.845,-14.2439 434.608,-16.9753 444.314,-21.2238 444.845,-14.2439"/>
</g>
<!-- &#45;22&#45;&gt;1 -->
<g id="edge19" class="edge"><title>&#45;22&#45;&gt;1</title>
<path fill="none" stroke="green" stroke-width="0.187562" d="M899.928,-68.4627C872.009,-58.431 810.758,-36.4226 776.992,-24.2904"/>
<polygon fill="green" stroke="green" stroke-width="0.187562" points="778.058,-20.9541 767.463,-20.8664 775.691,-27.5418 778.058,-20.9541"/>
</g>
<!-- &#45;23 -->
<g id="node23" class="node"><title>&#45;23</title>
<polygon fill="lightgray" stroke="black" points="1070,-83.6985 1041,-83.6985 1041,-65.6985 1070,-65.6985 1070,-83.6985"/>
<text text-anchor="middle" x="1055.5" y="-72.4985" font-family="Times,serif" font-size="9.00">&#45;23</text>
</g>
<!-- &#45;24 -->
<g id="node24" class="node"><title>&#45;24</title>
<polygon fill="lightgray" stroke="black" points="29,-83.6985 0,-83.6985 0,-65.6985 29,-65.6985 29,-83.6985"/>
<text text-anchor="middle" x="14.5" y="-72.4985" font-family="Times,serif" font-size="9.00">&#45;24</text>
</g>
<!-- &#45;24&#45;&gt;3 -->
<g id="edge26" class="edge"><title>&#45;24&#45;&gt;3</title>
<path fill="none" stroke="green" stroke-width="0.266703" d="M29.1522,-68.559C32.2233,-67.5538 35.4542,-66.5489 38.5,-65.6985 108.79,-46.0719 193.32,-28.605 234.114,-20.5531"/>
<polygon fill="green" stroke="green" stroke-width="0.266703" points="234.82,-23.9814 243.962,-18.6252 233.475,-17.1118 234.82,-23.9814"/>
</g>
<!-- 1&#45;&gt;1 -->
<g id="edge23" class="edge"><title>1&#45;&gt;1</title>
<path fill="none" stroke="green" stroke-width="0.559401" d="M765.288,-23.9294C775.522,-28.0713 786.349,-25.0446 786.349,-14.8492 786.349,-7.99927 781.462,-4.3853 775.15,-4.00735"/>
<polygon fill="green" stroke="green" stroke-width="0.559401" points="774.516,-0.565092 765.288,-5.76904 775.747,-7.45602 774.516,-0.565092"/>
</g>
<!-- 2&#45;&gt;2 -->
<g id="edge20" class="edge"><title>2&#45;&gt;2</title>
<path fill="none" stroke="green" stroke-width="0.3189" d="M634.288,-23.9294C644.522,-28.0713 655.349,-25.0446 655.349,-14.8492 655.349,-7.99927 650.462,-4.3853 644.15,-4.00735"/>
<polygon fill="green" stroke="green" stroke-width="0.3189" points="643.516,-0.565092 634.288,-5.76904 644.747,-7.45602 643.516,-0.565092"/>
</g>
<!-- 3&#45;&gt;3 -->
<g id="edge37" class="edge"><title>3&#45;&gt;3</title>
<path fill="none" stroke="green" stroke-width="0.364525" d="M270.288,-23.9294C280.522,-28.0713 291.349,-25.0446 291.349,-14.8492 291.349,-7.99927 286.462,-4.3853 280.15,-4.00735"/>
<polygon fill="green" stroke="green" stroke-width="0.364525" points="279.516,-0.565092 270.288,-5.76904 280.747,-7.45602 279.516,-0.565092"/>
</g>
</g>
</svg>
