<?xml version="1.0" encoding="UTF-8" standalone="no"?>
<!DOCTYPE svg PUBLIC "-//W3C//DTD SVG 1.1//EN"
 "http://www.w3.org/Graphics/SVG/1.1/DTD/svg11.dtd">
<!-- Generated by graphviz version 2.38.0 (20140413.2041)
 -->
<!-- Title: %3 Pages: 1 -->
<svg width="1174pt" height="189pt"
 viewBox="0.00 0.00 1173.85 188.89" xmlns="http://www.w3.org/2000/svg" xmlns:xlink="http://www.w3.org/1999/xlink">
<g id="graph0" class="graph" transform="scale(1 1) rotate(0) translate(4 184.894)">
<title>%3</title>
<polygon fill="white" stroke="none" points="-4,4 -4,-184.894 1169.85,-184.894 1169.85,4 -4,4"/>
<!-- &#45;1 -->
<g id="node1" class="node"><title>&#45;1</title>
<polygon fill="lightgray" stroke="black" points="24,-175.045 0,-175.045 0,-157.045 24,-157.045 24,-175.045"/>
<text text-anchor="middle" x="12" y="-163.845" font-family="Times,serif" font-size="9.00">&#45;1</text>
</g>
<!-- &#45;2 -->
<g id="node2" class="node"><title>&#45;2</title>
<polygon fill="lightgray" stroke="black" points="66,-175.045 42,-175.045 42,-157.045 66,-157.045 66,-175.045"/>
<text text-anchor="middle" x="54" y="-163.845" font-family="Times,serif" font-size="9.00">&#45;2</text>
</g>
<!-- &#45;3 -->
<g id="node3" class="node"><title>&#45;3</title>
<polygon fill="lightgray" stroke="black" points="108,-175.045 84,-175.045 84,-157.045 108,-157.045 108,-175.045"/>
<text text-anchor="middle" x="96" y="-163.845" font-family="Times,serif" font-size="9.00">&#45;3</text>
</g>
<!-- 2197 -->
<g id="node29" class="node"><title>2197</title>
<ellipse fill="white" stroke="black" cx="96" cy="-90.4472" rx="25" ry="25"/>
<text text-anchor="middle" x="96" y="-88.2472" font-family="Times,serif" font-size="9.00">2197</text>
</g>
<!-- &#45;3&#45;&gt;2197 -->
<g id="edge5" class="edge"><title>&#45;3&#45;&gt;2197</title>
<path fill="none" stroke="green" stroke-width="0.592986" d="M96,-156.888C96,-149.188 96,-137.11 96,-125.415"/>
<polygon fill="green" stroke="green" stroke-width="0.592986" points="99.5001,-125.357 96,-115.357 92.5001,-125.357 99.5001,-125.357"/>
</g>
<!-- &#45;4 -->
<g id="node4" class="node"><title>&#45;4</title>
<polygon fill="lightgray" stroke="black" points="197,-175.045 173,-175.045 173,-157.045 197,-157.045 197,-175.045"/>
<text text-anchor="middle" x="185" y="-163.845" font-family="Times,serif" font-size="9.00">&#45;4</text>
</g>
<!-- &#45;5 -->
<g id="node5" class="node"><title>&#45;5</title>
<polygon fill="lightgray" stroke="black" points="239,-175.045 215,-175.045 215,-157.045 239,-157.045 239,-175.045"/>
<text text-anchor="middle" x="227" y="-163.845" font-family="Times,serif" font-size="9.00">&#45;5</text>
</g>
<!-- 2 -->
<g id="node27" class="node"><title>2</title>
<ellipse fill="lightblue" stroke="black" cx="227" cy="-90.4472" rx="14.7" ry="14.7"/>
<text text-anchor="middle" x="227" y="-88.2472" font-family="Times,serif" font-size="9.00">2</text>
</g>
<!-- &#45;5&#45;&gt;2 -->
<g id="edge3" class="edge"><title>&#45;5&#45;&gt;2</title>
<path fill="none" stroke="red" stroke-width="0.854689" d="M227,-156.888C227,-146.986 227,-129.845 227,-115.589"/>
<polygon fill="red" stroke="red" stroke-width="0.854689" points="230.5,-115.418 227,-105.418 223.5,-115.418 230.5,-115.418"/>
</g>
<!-- &#45;6 -->
<g id="node6" class="node"><title>&#45;6</title>
<polygon fill="lightgray" stroke="black" points="281,-175.045 257,-175.045 257,-157.045 281,-157.045 281,-175.045"/>
<text text-anchor="middle" x="269" y="-163.845" font-family="Times,serif" font-size="9.00">&#45;6</text>
</g>
<!-- &#45;7 -->
<g id="node7" class="node"><title>&#45;7</title>
<polygon fill="lightgray" stroke="black" points="323,-175.045 299,-175.045 299,-157.045 323,-157.045 323,-175.045"/>
<text text-anchor="middle" x="311" y="-163.845" font-family="Times,serif" font-size="9.00">&#45;7</text>
</g>
<!-- &#45;8 -->
<g id="node8" class="node"><title>&#45;8</title>
<polygon fill="lightgray" stroke="black" points="155,-175.045 131,-175.045 131,-157.045 155,-157.045 155,-175.045"/>
<text text-anchor="middle" x="143" y="-163.845" font-family="Times,serif" font-size="9.00">&#45;8</text>
</g>
<!-- 1 -->
<g id="node26" class="node"><title>1</title>
<ellipse fill="lightblue" stroke="black" cx="122" cy="-14.8492" rx="14.7" ry="14.7"/>
<text text-anchor="middle" x="122" y="-12.6492" font-family="Times,serif" font-size="9.00">1</text>
</g>
<!-- &#45;8&#45;&gt;1 -->
<g id="edge1" class="edge"><title>&#45;8&#45;&gt;1</title>
<path fill="none" stroke="green" stroke-width="0.634482" d="M142.002,-156.791C139.924,-139.748 134.914,-99.4362 130,-65.6985 128.77,-57.2553 127.319,-48.0254 125.993,-39.828"/>
<polygon fill="green" stroke="green" stroke-width="0.634482" points="129.42,-39.102 124.35,-29.7994 122.513,-40.2337 129.42,-39.102"/>
</g>
<!-- &#45;8&#45;&gt;2197 -->
<g id="edge4" class="edge"><title>&#45;8&#45;&gt;2197</title>
<path fill="none" stroke="green" stroke-width="0.348585" d="M137.791,-156.888C132.198,-148.13 122.988,-133.708 114.636,-120.629"/>
<polygon fill="green" stroke="green" stroke-width="0.348585" points="117.377,-118.419 109.045,-111.875 111.478,-122.187 117.377,-118.419"/>
</g>
<!-- &#45;9 -->
<g id="node9" class="node"><title>&#45;9</title>
<polygon fill="lightgray" stroke="black" points="365,-175.045 341,-175.045 341,-157.045 365,-157.045 365,-175.045"/>
<text text-anchor="middle" x="353" y="-163.845" font-family="Times,serif" font-size="9.00">&#45;9</text>
</g>
<!-- &#45;10 -->
<g id="node10" class="node"><title>&#45;10</title>
<polygon fill="lightgray" stroke="black" points="412.5,-175.045 383.5,-175.045 383.5,-157.045 412.5,-157.045 412.5,-175.045"/>
<text text-anchor="middle" x="398" y="-163.845" font-family="Times,serif" font-size="9.00">&#45;10</text>
</g>
<!-- &#45;11 -->
<g id="node11" class="node"><title>&#45;11</title>
<polygon fill="lightgray" stroke="black" points="459.5,-175.045 430.5,-175.045 430.5,-157.045 459.5,-157.045 459.5,-175.045"/>
<text text-anchor="middle" x="445" y="-163.845" font-family="Times,serif" font-size="9.00">&#45;11</text>
</g>
<!-- &#45;12 -->
<g id="node12" class="node"><title>&#45;12</title>
<polygon fill="lightgray" stroke="black" points="506.5,-175.045 477.5,-175.045 477.5,-157.045 506.5,-157.045 506.5,-175.045"/>
<text text-anchor="middle" x="492" y="-163.845" font-family="Times,serif" font-size="9.00">&#45;12</text>
</g>
<!-- &#45;13 -->
<g id="node13" class="node"><title>&#45;13</title>
<polygon fill="lightgray" stroke="black" points="553.5,-175.045 524.5,-175.045 524.5,-157.045 553.5,-157.045 553.5,-175.045"/>
<text text-anchor="middle" x="539" y="-163.845" font-family="Times,serif" font-size="9.00">&#45;13</text>
</g>
<!-- &#45;14 -->
<g id="node14" class="node"><title>&#45;14</title>
<polygon fill="lightgray" stroke="black" points="600.5,-175.045 571.5,-175.045 571.5,-157.045 600.5,-157.045 600.5,-175.045"/>
<text text-anchor="middle" x="586" y="-163.845" font-family="Times,serif" font-size="9.00">&#45;14</text>
</g>
<!-- &#45;15 -->
<g id="node15" class="node"><title>&#45;15</title>
<polygon fill="lightgray" stroke="black" points="647.5,-175.045 618.5,-175.045 618.5,-157.045 647.5,-157.045 647.5,-175.045"/>
<text text-anchor="middle" x="633" y="-163.845" font-family="Times,serif" font-size="9.00">&#45;15</text>
</g>
<!-- &#45;16 -->
<g id="node16" class="node"><title>&#45;16</title>
<polygon fill="lightgray" stroke="black" points="694.5,-175.045 665.5,-175.045 665.5,-157.045 694.5,-157.045 694.5,-175.045"/>
<text text-anchor="middle" x="680" y="-163.845" font-family="Times,serif" font-size="9.00">&#45;16</text>
</g>
<!-- &#45;17 -->
<g id="node17" class="node"><title>&#45;17</title>
<polygon fill="lightgray" stroke="black" points="741.5,-175.045 712.5,-175.045 712.5,-157.045 741.5,-157.045 741.5,-175.045"/>
<text text-anchor="middle" x="727" y="-163.845" font-family="Times,serif" font-size="9.00">&#45;17</text>
</g>
<!-- &#45;18 -->
<g id="node18" class="node"><title>&#45;18</title>
<polygon fill="lightgray" stroke="black" points="788.5,-175.045 759.5,-175.045 759.5,-157.045 788.5,-157.045 788.5,-175.045"/>
<text text-anchor="middle" x="774" y="-163.845" font-family="Times,serif" font-size="9.00">&#45;18</text>
</g>
<!-- &#45;19 -->
<g id="node19" class="node"><title>&#45;19</title>
<polygon fill="lightgray" stroke="black" points="835.5,-175.045 806.5,-175.045 806.5,-157.045 835.5,-157.045 835.5,-175.045"/>
<text text-anchor="middle" x="821" y="-163.845" font-family="Times,serif" font-size="9.00">&#45;19</text>
</g>
<!-- &#45;20 -->
<g id="node20" class="node"><title>&#45;20</title>
<polygon fill="lightgray" stroke="black" points="882.5,-175.045 853.5,-175.045 853.5,-157.045 882.5,-157.045 882.5,-175.045"/>
<text text-anchor="middle" x="868" y="-163.845" font-family="Times,serif" font-size="9.00">&#45;20</text>
</g>
<!-- &#45;21 -->
<g id="node21" class="node"><title>&#45;21</title>
<polygon fill="lightgray" stroke="black" points="929.5,-175.045 900.5,-175.045 900.5,-157.045 929.5,-157.045 929.5,-175.045"/>
<text text-anchor="middle" x="915" y="-163.845" font-family="Times,serif" font-size="9.00">&#45;21</text>
</g>
<!-- &#45;22 -->
<g id="node22" class="node"><title>&#45;22</title>
<polygon fill="lightgray" stroke="black" points="976.5,-175.045 947.5,-175.045 947.5,-157.045 976.5,-157.045 976.5,-175.045"/>
<text text-anchor="middle" x="962" y="-163.845" font-family="Times,serif" font-size="9.00">&#45;22</text>
</g>
<!-- &#45;23 -->
<g id="node23" class="node"><title>&#45;23</title>
<polygon fill="lightgray" stroke="black" points="1023.5,-175.045 994.5,-175.045 994.5,-157.045 1023.5,-157.045 1023.5,-175.045"/>
<text text-anchor="middle" x="1009" y="-163.845" font-family="Times,serif" font-size="9.00">&#45;23</text>
</g>
<!-- &#45;24 -->
<g id="node24" class="node"><title>&#45;24</title>
<polygon fill="lightgray" stroke="black" points="1070.5,-175.045 1041.5,-175.045 1041.5,-157.045 1070.5,-157.045 1070.5,-175.045"/>
<text text-anchor="middle" x="1056" y="-163.845" font-family="Times,serif" font-size="9.00">&#45;24</text>
</g>
<!-- 0 -->
<g id="node25" class="node"><title>0</title>
<ellipse fill="lightblue" stroke="black" cx="1103" cy="-166.045" rx="14.7" ry="14.7"/>
<text text-anchor="middle" x="1103" y="-163.845" font-family="Times,serif" font-size="9.00">0</text>
</g>
<!-- 3 -->
<g id="node28" class="node"><title>3</title>
<ellipse fill="lightblue" stroke="black" cx="1151" cy="-166.045" rx="14.7" ry="14.7"/>
<text text-anchor="middle" x="1151" y="-163.845" font-family="Times,serif" font-size="9.00">3</text>
</g>
<!-- 2197&#45;&gt;1 -->
<g id="edge2" class="edge"><title>2197&#45;&gt;1</title>
<path fill="none" stroke="green" stroke-width="0.703257" d="M103.942,-66.9655C107.11,-57.997 110.754,-47.6843 113.934,-38.6813"/>
<polygon fill="green" stroke="green" stroke-width="0.703257" points="117.248,-39.8094 117.278,-29.2146 110.647,-37.4777 117.248,-39.8094"/>
</g>
</g>
</svg>
