<?xml version="1.0" encoding="UTF-8" standalone="no"?>
<!DOCTYPE svg PUBLIC "-//W3C//DTD SVG 1.1//EN"
 "http://www.w3.org/Graphics/SVG/1.1/DTD/svg11.dtd">
<!-- Generated by graphviz version 2.38.0 (20140413.2041)
 -->
<!-- Title: %3 Pages: 1 -->
<svg width="1506pt" height="256pt"
 viewBox="0.00 0.00 1505.50 255.62" xmlns="http://www.w3.org/2000/svg" xmlns:xlink="http://www.w3.org/1999/xlink">
<g id="graph0" class="graph" transform="scale(1 1) rotate(0) translate(4 251.622)">
<title>%3</title>
<polygon fill="white" stroke="none" points="-4,4 -4,-251.622 1501.5,-251.622 1501.5,4 -4,4"/>
<!-- &#45;1 -->
<g id="node1" class="node"><title>&#45;1</title>
<polygon fill="lightgray" stroke="black" points="474,-181.409 450,-181.409 450,-163.409 474,-163.409 474,-181.409"/>
<text text-anchor="middle" x="462" y="-170.209" font-family="Times,serif" font-size="9.00">&#45;1</text>
</g>
<!-- 2 -->
<g id="node27" class="node"><title>2</title>
<ellipse fill="lightblue" stroke="black" cx="846" cy="-90.4472" rx="14.7" ry="14.7"/>
<text text-anchor="middle" x="846" y="-88.2472" font-family="Times,serif" font-size="9.00">2</text>
</g>
<!-- &#45;1&#45;&gt;2 -->
<g id="edge43" class="edge"><title>&#45;1&#45;&gt;2</title>
<path fill="none" stroke="green" stroke-width="0.142837" d="M474.259,-164.802C483.116,-160.305 495.496,-154.577 507,-151.196 610.062,-120.907 640.54,-135.624 746,-115.196 772.135,-110.133 801.77,-102.906 821.95,-97.7563"/>
<polygon fill="green" stroke="green" stroke-width="0.142837" points="823.031,-101.092 831.84,-95.2056 821.282,-94.3141 823.031,-101.092"/>
</g>
<!-- 3 -->
<g id="node28" class="node"><title>3</title>
<ellipse fill="lightblue" stroke="black" cx="245" cy="-14.8492" rx="14.7" ry="14.7"/>
<text text-anchor="middle" x="245" y="-12.6492" font-family="Times,serif" font-size="9.00">3</text>
</g>
<!-- &#45;1&#45;&gt;3 -->
<g id="edge59" class="edge"><title>&#45;1&#45;&gt;3</title>
<path fill="none" stroke="red" stroke-width="0.516864" d="M449.81,-165.898C430.521,-156.864 392.257,-137.647 364,-115.196 340.486,-96.5136 340.764,-85.2874 318,-65.6985 301.623,-51.6062 281.182,-37.938 266.099,-28.4892"/>
<polygon fill="red" stroke="red" stroke-width="0.516864" points="267.835,-25.4478 257.485,-23.1852 264.165,-31.4086 267.835,-25.4478"/>
</g>
<!-- &#45;2 -->
<g id="node2" class="node"><title>&#45;2</title>
<polygon fill="lightgray" stroke="black" points="895,-181.409 871,-181.409 871,-163.409 895,-163.409 895,-181.409"/>
<text text-anchor="middle" x="883" y="-170.209" font-family="Times,serif" font-size="9.00">&#45;2</text>
</g>
<!-- 0 -->
<g id="node25" class="node"><title>0</title>
<ellipse fill="lightblue" stroke="black" cx="733" cy="-14.8492" rx="14.7" ry="14.7"/>
<text text-anchor="middle" x="733" y="-12.6492" font-family="Times,serif" font-size="9.00">0</text>
</g>
<!-- &#45;2&#45;&gt;0 -->
<g id="edge2" class="edge"><title>&#45;2&#45;&gt;0</title>
<path fill="none" stroke="green" stroke-width="0.246223" d="M884.613,-163.184C887.905,-143.847 893.256,-94.9267 870,-65.6985 842.652,-31.3277 789.426,-20.6487 757.974,-17.3352"/>
<polygon fill="green" stroke="green" stroke-width="0.246223" points="758.103,-13.8331 747.835,-16.4435 757.49,-20.8062 758.103,-13.8331"/>
</g>
<!-- 1 -->
<g id="node26" class="node"><title>1</title>
<ellipse fill="lightblue" stroke="black" cx="1193" cy="-14.8492" rx="14.7" ry="14.7"/>
<text text-anchor="middle" x="1193" y="-12.6492" font-family="Times,serif" font-size="9.00">1</text>
</g>
<!-- &#45;2&#45;&gt;1 -->
<g id="edge17" class="edge"><title>&#45;2&#45;&gt;1</title>
<path fill="none" stroke="green" stroke-width="0.215961" d="M890.928,-163.139C910.444,-143.268 963.151,-92.5032 1017,-65.6985 1067.54,-40.5422 1132.75,-26.2864 1167.89,-19.9225"/>
<polygon fill="green" stroke="green" stroke-width="0.215961" points="1168.94,-23.2933 1178.19,-18.1297 1167.74,-16.3971 1168.94,-23.2933"/>
</g>
<!-- &#45;2&#45;&gt;2 -->
<g id="edge11" class="edge"><title>&#45;2&#45;&gt;2</title>
<path fill="none" stroke="green" stroke-width="0.183465" d="M879.18,-163.153C873.828,-151.587 863.902,-130.137 856.297,-113.7"/>
<polygon fill="green" stroke="green" stroke-width="0.183465" points="859.298,-111.852 851.922,-104.246 852.945,-114.791 859.298,-111.852"/>
</g>
<!-- 75 -->
<g id="node31" class="node"><title>75</title>
<ellipse fill="white" stroke="black" cx="701" cy="-90.4472" rx="18.2703" ry="18.2703"/>
<text text-anchor="middle" x="701" y="-88.2472" font-family="Times,serif" font-size="9.00">75</text>
</g>
<!-- &#45;2&#45;&gt;75 -->
<g id="edge55" class="edge"><title>&#45;2&#45;&gt;75</title>
<path fill="none" stroke="green" stroke-width="0.438074" d="M870.776,-166.038C841.46,-153.158 766.641,-120.287 726.83,-102.796"/>
<polygon fill="green" stroke="green" stroke-width="0.438074" points="728.075,-99.5199 717.512,-98.7018 725.259,-105.929 728.075,-99.5199"/>
</g>
<!-- &#45;3 -->
<g id="node3" class="node"><title>&#45;3</title>
<polygon fill="lightgray" stroke="black" points="815,-181.409 791,-181.409 791,-163.409 815,-163.409 815,-181.409"/>
<text text-anchor="middle" x="803" y="-170.209" font-family="Times,serif" font-size="9.00">&#45;3</text>
</g>
<!-- &#45;3&#45;&gt;2 -->
<g id="edge29" class="edge"><title>&#45;3&#45;&gt;2</title>
<path fill="none" stroke="red" stroke-width="0.272293" d="M807.44,-163.153C813.754,-151.412 825.546,-129.482 834.435,-112.953"/>
<polygon fill="red" stroke="red" stroke-width="0.272293" points="837.616,-114.428 839.269,-103.963 831.451,-111.113 837.616,-114.428"/>
</g>
<!-- &#45;3&#45;&gt;75 -->
<g id="edge62" class="edge"><title>&#45;3&#45;&gt;75</title>
<path fill="none" stroke="green" stroke-width="0.170129" d="M794.613,-163.331C790.583,-159.547 785.632,-155.036 781,-151.196 762.422,-135.791 740.391,-119.471 724.157,-107.787"/>
<polygon fill="green" stroke="green" stroke-width="0.170129" points="725.963,-104.776 715.793,-101.808 721.893,-110.471 725.963,-104.776"/>
</g>
<!-- &#45;4 -->
<g id="node4" class="node"><title>&#45;4</title>
<polygon fill="lightgray" stroke="black" points="24,-99.4472 0,-99.4472 0,-81.4472 24,-81.4472 24,-99.4472"/>
<text text-anchor="middle" x="12" y="-88.2472" font-family="Times,serif" font-size="9.00">&#45;4</text>
</g>
<!-- &#45;4&#45;&gt;3 -->
<g id="edge25" class="edge"><title>&#45;4&#45;&gt;3</title>
<path fill="none" stroke="red" stroke-width="0.134752" d="M18.9426,-81.2555C23.7782,-76.0573 30.6571,-69.5986 38,-65.6985 98.4062,-33.6144 179.633,-21.8679 220.025,-17.8209"/>
<polygon fill="red" stroke="red" stroke-width="0.134752" points="220.422,-21.2992 230.057,-16.8922 219.777,-14.329 220.422,-21.2992"/>
</g>
<!-- &#45;5 -->
<g id="node5" class="node"><title>&#45;5</title>
<polygon fill="lightgray" stroke="black" points="1032,-181.409 1008,-181.409 1008,-163.409 1032,-163.409 1032,-181.409"/>
<text text-anchor="middle" x="1020" y="-170.209" font-family="Times,serif" font-size="9.00">&#45;5</text>
</g>
<!-- &#45;5&#45;&gt;0 -->
<g id="edge37" class="edge"><title>&#45;5&#45;&gt;0</title>
<path fill="none" stroke="green" stroke-width="0.516575" d="M1017.31,-163.259C1010.26,-143.206 989.22,-91.2493 953,-65.6985 892.65,-23.1263 801.829,-16.2249 758.18,-15.5424"/>
<polygon fill="green" stroke="green" stroke-width="0.516575" points="757.923,-12.0411 747.904,-15.4862 757.885,-19.041 757.923,-12.0411"/>
</g>
<!-- &#45;5&#45;&gt;1 -->
<g id="edge18" class="edge"><title>&#45;5&#45;&gt;1</title>
<path fill="none" stroke="red" stroke-width="0.27664" d="M1027.16,-163.145C1030.97,-159.137 1035.9,-154.49 1041,-151.196 1077.19,-127.824 1097.96,-142.84 1131,-115.196 1156.02,-94.2665 1174.03,-60.5531 1183.99,-38.2981"/>
<polygon fill="red" stroke="red" stroke-width="0.27664" points="1187.27,-39.536 1188,-28.9663 1180.83,-36.7743 1187.27,-39.536"/>
</g>
<!-- &#45;5&#45;&gt;75 -->
<g id="edge36" class="edge"><title>&#45;5&#45;&gt;75</title>
<path fill="none" stroke="green" stroke-width="0.151031" d="M1013.06,-163.156C1009.07,-158.947 1003.73,-154.113 998,-151.196 994.963,-149.65 802.087,-111.428 728.821,-96.9425"/>
<polygon fill="green" stroke="green" stroke-width="0.151031" points="729.404,-93.4903 718.915,-94.9848 728.047,-100.357 729.404,-93.4903"/>
</g>
<!-- &#45;6 -->
<g id="node6" class="node"><title>&#45;6</title>
<polygon fill="lightgray" stroke="black" points="635,-181.409 611,-181.409 611,-163.409 635,-163.409 635,-181.409"/>
<text text-anchor="middle" x="623" y="-170.209" font-family="Times,serif" font-size="9.00">&#45;6</text>
</g>
<!-- &#45;6&#45;&gt;75 -->
<g id="edge33" class="edge"><title>&#45;6&#45;&gt;75</title>
<path fill="none" stroke="red" stroke-width="0.278345" d="M631.054,-163.153C642.867,-151.042 665.255,-128.091 681.528,-111.409"/>
<polygon fill="red" stroke="red" stroke-width="0.278345" points="684.038,-113.848 688.515,-104.246 679.027,-108.96 684.038,-113.848"/>
</g>
<!-- &#45;7 -->
<g id="node7" class="node"><title>&#45;7</title>
<polygon fill="lightgray" stroke="black" points="855,-247.622 831,-247.622 831,-229.622 855,-229.622 855,-247.622"/>
<text text-anchor="middle" x="843" y="-236.422" font-family="Times,serif" font-size="9.00">&#45;7</text>
</g>
<!-- &#45;7&#45;&gt;0 -->
<g id="edge61" class="edge"><title>&#45;7&#45;&gt;0</title>
<path fill="none" stroke="red" stroke-width="0.243908" d="M855.119,-237.783C905.552,-238.168 1097.88,-236.755 1135,-193.622 1147.3,-179.33 1144.4,-167.541 1135,-151.196 1097.31,-85.6814 1058.74,-92.3179 988,-65.6985 907.094,-35.2524 804.422,-22.4549 757.909,-17.9443"/>
<polygon fill="red" stroke="red" stroke-width="0.243908" points="758.125,-14.4494 747.845,-17.0144 757.481,-21.4197 758.125,-14.4494"/>
</g>
<!-- &#45;7&#45;&gt;1 -->
<g id="edge65" class="edge"><title>&#45;7&#45;&gt;1</title>
<path fill="none" stroke="green" stroke-width="0.268567" d="M855.096,-237.89C921.232,-239.154 1239.09,-242.563 1321,-193.622 1373.69,-162.145 1410.16,-114.545 1373,-65.6985 1354.18,-40.9624 1262.62,-25.3204 1217.81,-19.0228"/>
<polygon fill="green" stroke="green" stroke-width="0.268567" points="1218.12,-15.5336 1207.74,-17.6558 1217.18,-22.47 1218.12,-15.5336"/>
</g>
<!-- &#45;7&#45;&gt;2 -->
<g id="edge50" class="edge"><title>&#45;7&#45;&gt;2</title>
<path fill="none" stroke="green" stroke-width="0.268864" d="M843.17,-229.345C843.613,-207.748 844.818,-149.057 845.504,-115.619"/>
<polygon fill="green" stroke="green" stroke-width="0.268864" points="849.009,-115.407 845.715,-105.337 842.01,-115.263 849.009,-115.407"/>
</g>
<!-- &#45;7&#45;&gt;3 -->
<g id="edge57" class="edge"><title>&#45;7&#45;&gt;3</title>
<path fill="none" stroke="green" stroke-width="0.274899" stroke-dasharray="1,5" d="M830.965,-237.73C748.108,-238.348 264.172,-239.956 221,-193.622 180.853,-150.535 213.113,-74.1019 232.715,-37.0971"/>
<polygon fill="green" stroke="green" stroke-width="0.274899" points="235.869,-38.6246 237.606,-28.1731 229.73,-35.2601 235.869,-38.6246"/>
</g>
<!-- 309 -->
<g id="node32" class="node"><title>309</title>
<ellipse fill="white" stroke="black" cx="139" cy="-172.409" rx="21.4286" ry="21.4286"/>
<text text-anchor="middle" x="139" y="-170.209" font-family="Times,serif" font-size="9.00">309</text>
</g>
<!-- &#45;7&#45;&gt;309 -->
<g id="edge51" class="edge"><title>&#45;7&#45;&gt;309</title>
<path fill="none" stroke="red" stroke-width="0.202442" d="M830.912,-237.574C751.505,-237.148 303.756,-233.009 174,-193.622 171.008,-192.714 167.997,-191.51 165.064,-190.139"/>
<polygon fill="red" stroke="red" stroke-width="0.202442" points="166.555,-186.968 156.083,-185.359 163.265,-193.147 166.555,-186.968"/>
</g>
<!-- &#45;8 -->
<g id="node8" class="node"><title>&#45;8</title>
<polygon fill="lightgray" stroke="black" points="725,-181.409 701,-181.409 701,-163.409 725,-163.409 725,-181.409"/>
<text text-anchor="middle" x="713" y="-170.209" font-family="Times,serif" font-size="9.00">&#45;8</text>
</g>
<!-- &#45;8&#45;&gt;1 -->
<g id="edge12" class="edge"><title>&#45;8&#45;&gt;1</title>
<path fill="none" stroke="green" stroke-width="0.310172" d="M718.466,-163.304C732.732,-142.886 773.382,-89.293 822,-65.6985 883.591,-35.8083 1095.09,-21.3533 1168.03,-17.1724"/>
<polygon fill="green" stroke="green" stroke-width="0.310172" points="1168.34,-20.6607 1178.13,-16.6091 1167.95,-13.6716 1168.34,-20.6607"/>
</g>
<!-- &#45;8&#45;&gt;2 -->
<g id="edge30" class="edge"><title>&#45;8&#45;&gt;2</title>
<path fill="none" stroke="green" stroke-width="0.129731" d="M720.205,-163.207C724.017,-159.215 728.947,-154.563 734,-151.196 767.461,-128.899 782.673,-136.134 817,-115.196 820.585,-113.009 824.205,-110.416 827.616,-107.76"/>
<polygon fill="green" stroke="green" stroke-width="0.129731" points="830.043,-110.294 835.519,-101.224 825.582,-104.9 830.043,-110.294"/>
</g>
<!-- &#45;8&#45;&gt;3 -->
<g id="edge47" class="edge"><title>&#45;8&#45;&gt;3</title>
<path fill="none" stroke="red" stroke-width="0.626066" d="M706.123,-163.021C702.159,-158.772 696.815,-153.944 691,-151.196 587.115,-102.111 535.642,-170.626 435,-115.196 409.728,-101.277 416.877,-81.8943 393,-65.6985 354.262,-39.4222 300.462,-25.9153 269.534,-19.9052"/>
<polygon fill="red" stroke="red" stroke-width="0.626066" points="270.078,-16.4466 259.61,-18.0834 268.814,-23.3316 270.078,-16.4466"/>
</g>
<!-- &#45;8&#45;&gt;75 -->
<g id="edge68" class="edge"><title>&#45;8&#45;&gt;75</title>
<path fill="none" stroke="red" stroke-width="0.33921" d="M711.761,-163.153C710.204,-152.778 707.453,-134.449 705.123,-118.92"/>
<polygon fill="red" stroke="red" stroke-width="0.33921" points="708.542,-118.118 703.596,-108.749 701.619,-119.157 708.542,-118.118"/>
</g>
<!-- &#45;9 -->
<g id="node9" class="node"><title>&#45;9</title>
<polygon fill="lightgray" stroke="black" points="232,-247.622 208,-247.622 208,-229.622 232,-229.622 232,-247.622"/>
<text text-anchor="middle" x="220" y="-236.422" font-family="Times,serif" font-size="9.00">&#45;9</text>
</g>
<!-- &#45;9&#45;&gt;0 -->
<g id="edge49" class="edge"><title>&#45;9&#45;&gt;0</title>
<path fill="none" stroke="red" stroke-width="0.609784" d="M229.181,-229.224C263.845,-197.687 387.218,-87.0443 435,-65.6985 529.344,-23.5518 654.943,-16.7515 707.835,-15.8559"/>
<polygon fill="red" stroke="red" stroke-width="0.609784" points="708.02,-19.3542 717.981,-15.7438 707.943,-12.3546 708.02,-19.3542"/>
</g>
<!-- &#45;9&#45;&gt;1 -->
<g id="edge32" class="edge"><title>&#45;9&#45;&gt;1</title>
<path fill="none" stroke="green" stroke-width="0.548637" d="M232.231,-237.402C334.425,-235.511 1044.76,-221.427 1135,-193.622 1198.76,-173.977 1230.4,-173.406 1263,-115.196 1273.75,-96.0024 1273.08,-85.252 1263,-65.6985 1253.21,-46.7001 1232.45,-33.3537 1216.07,-25.2834"/>
<polygon fill="green" stroke="green" stroke-width="0.548637" points="1217.12,-21.9161 1206.57,-20.9369 1214.21,-28.2811 1217.12,-21.9161"/>
</g>
<!-- &#45;9&#45;&gt;3 -->
<g id="edge63" class="edge"><title>&#45;9&#45;&gt;3</title>
<path fill="none" stroke="red" stroke-width="0.437747" d="M207.996,-236.693C184.786,-234.203 133.859,-225.234 109,-193.622 73.7259,-148.766 64.7538,-112.078 98,-65.6985 125.909,-26.7644 185.937,-17.8649 220.022,-16.0618"/>
<polygon fill="red" stroke="red" stroke-width="0.437747" points="220.237,-19.5564 230.103,-15.6966 219.983,-12.561 220.237,-19.5564"/>
</g>
<!-- &#45;9&#45;&gt;309 -->
<g id="edge28" class="edge"><title>&#45;9&#45;&gt;309</title>
<path fill="none" stroke="green" stroke-width="0.281984" d="M209.741,-229.49C198.175,-220.321 178.965,-205.092 163.48,-192.816"/>
<polygon fill="green" stroke="green" stroke-width="0.281984" points="165.343,-189.826 155.332,-186.357 160.994,-195.312 165.343,-189.826"/>
</g>
<!-- &#45;10 -->
<g id="node10" class="node"><title>&#45;10</title>
<polygon fill="lightgray" stroke="black" points="772.5,-181.409 743.5,-181.409 743.5,-163.409 772.5,-163.409 772.5,-181.409"/>
<text text-anchor="middle" x="758" y="-170.209" font-family="Times,serif" font-size="9.00">&#45;10</text>
</g>
<!-- &#45;10&#45;&gt;0 -->
<g id="edge35" class="edge"><title>&#45;10&#45;&gt;0</title>
<path fill="none" stroke="green" stroke-width="0.312173" d="M757.481,-163.395C756.247,-145.667 752.728,-101.834 746,-65.6985 744.366,-56.9195 742.029,-47.4057 739.786,-39.0657"/>
<polygon fill="green" stroke="green" stroke-width="0.312173" points="743.112,-37.9655 737.055,-29.2731 736.37,-39.8458 743.112,-37.9655"/>
</g>
<!-- &#45;10&#45;&gt;2 -->
<g id="edge1" class="edge"><title>&#45;10&#45;&gt;2</title>
<path fill="none" stroke="red" stroke-width="0.492917" d="M767.086,-163.153C781.393,-150.153 809.444,-124.664 827.955,-107.844"/>
<polygon fill="red" stroke="red" stroke-width="0.492917" points="830.424,-110.33 835.471,-101.014 825.716,-105.149 830.424,-110.33"/>
</g>
<!-- &#45;10&#45;&gt;75 -->
<g id="edge26" class="edge"><title>&#45;10&#45;&gt;75</title>
<path fill="none" stroke="green" stroke-width="0.300783" d="M752.115,-163.153C744.003,-151.773 729.069,-130.824 717.43,-114.496"/>
<polygon fill="green" stroke="green" stroke-width="0.300783" points="720.021,-112.101 711.367,-105.99 714.321,-116.165 720.021,-112.101"/>
</g>
<!-- &#45;11 -->
<g id="node11" class="node"><title>&#45;11</title>
<polygon fill="lightgray" stroke="black" points="942.5,-181.409 913.5,-181.409 913.5,-163.409 942.5,-163.409 942.5,-181.409"/>
<text text-anchor="middle" x="928" y="-170.209" font-family="Times,serif" font-size="9.00">&#45;11</text>
</g>
<!-- &#45;11&#45;&gt;0 -->
<g id="edge21" class="edge"><title>&#45;11&#45;&gt;0</title>
<path fill="none" stroke="red" stroke-width="0.18402" d="M927.72,-163.229C926.6,-143.557 920.995,-93.2019 893,-65.6985 856.107,-29.4526 793.303,-19.5081 758.361,-16.8151"/>
<polygon fill="red" stroke="red" stroke-width="0.18402" points="758.262,-13.3022 748.063,-16.1714 757.825,-20.2885 758.262,-13.3022"/>
</g>
<!-- &#45;11&#45;&gt;1 -->
<g id="edge4" class="edge"><title>&#45;11&#45;&gt;1</title>
<path fill="none" stroke="red" stroke-width="0.557664" d="M936.578,-163.056C940.75,-159.211 945.946,-154.729 951,-151.196 978.384,-132.05 991.611,-136.917 1017,-115.196 1038.07,-97.1663 1032.61,-82.0681 1055,-65.6985 1089.83,-40.2342 1138.97,-26.6449 1168.25,-20.3634"/>
<polygon fill="red" stroke="red" stroke-width="0.557664" points="1169.32,-23.7182 1178.42,-18.3043 1167.93,-16.8572 1169.32,-23.7182"/>
</g>
<!-- &#45;11&#45;&gt;2 -->
<g id="edge60" class="edge"><title>&#45;11&#45;&gt;2</title>
<path fill="none" stroke="red" stroke-width="0.149013" d="M919.533,-163.153C906.404,-150.35 880.852,-125.433 863.604,-108.613"/>
<polygon fill="red" stroke="red" stroke-width="0.149013" points="865.94,-106.003 856.337,-101.528 861.053,-111.015 865.94,-106.003"/>
</g>
<!-- &#45;11&#45;&gt;75 -->
<g id="edge66" class="edge"><title>&#45;11&#45;&gt;75</title>
<path fill="none" stroke="green" stroke-width="0.20209" d="M920.184,-163.379C915.767,-159.236 909.95,-154.393 904,-151.196 845.924,-119.987 769.511,-103.172 729.012,-95.9069"/>
<polygon fill="green" stroke="green" stroke-width="0.20209" points="729.504,-92.4401 719.054,-94.1846 728.311,-99.3377 729.504,-92.4401"/>
</g>
<!-- &#45;12 -->
<g id="node12" class="node"><title>&#45;12</title>
<polygon fill="lightgray" stroke="black" points="1364.5,-99.4472 1335.5,-99.4472 1335.5,-81.4472 1364.5,-81.4472 1364.5,-99.4472"/>
<text text-anchor="middle" x="1350" y="-88.2472" font-family="Times,serif" font-size="9.00">&#45;12</text>
</g>
<!-- &#45;12&#45;&gt;1 -->
<g id="edge24" class="edge"><title>&#45;12&#45;&gt;1</title>
<path fill="none" stroke="green" stroke-width="0.471951" d="M1341.4,-81.1794C1335.9,-76.2105 1328.42,-70.0319 1321,-65.6985 1286.98,-45.8196 1243.55,-30.835 1217.03,-22.7082"/>
<polygon fill="green" stroke="green" stroke-width="0.471951" points="1217.69,-19.251 1207.1,-19.7448 1215.68,-25.9586 1217.69,-19.251"/>
</g>
<!-- &#45;13 -->
<g id="node13" class="node"><title>&#45;13</title>
<polygon fill="lightgray" stroke="black" points="626.5,-99.4472 597.5,-99.4472 597.5,-81.4472 626.5,-81.4472 626.5,-99.4472"/>
<text text-anchor="middle" x="612" y="-88.2472" font-family="Times,serif" font-size="9.00">&#45;13</text>
</g>
<!-- &#45;13&#45;&gt;0 -->
<g id="edge67" class="edge"><title>&#45;13&#45;&gt;0</title>
<path fill="none" stroke="green" stroke-width="0.131756" d="M621.056,-81.2787C626.608,-76.4652 633.977,-70.4148 641,-65.6985 663.731,-50.4336 691.588,-35.8633 710.654,-26.4614"/>
<polygon fill="green" stroke="green" stroke-width="0.131756" points="712.287,-29.5596 719.75,-22.0396 709.226,-23.2641 712.287,-29.5596"/>
</g>
<!-- &#45;13&#45;&gt;1 -->
<g id="edge52" class="edge"><title>&#45;13&#45;&gt;1</title>
<path fill="none" stroke="green" stroke-width="0.461059" d="M626.926,-82.4167C639.266,-76.9284 657.393,-69.6006 674,-65.6985 860.034,-21.9867 1092.2,-16.4691 1167.89,-15.8779"/>
<polygon fill="green" stroke="green" stroke-width="0.461059" points="1167.92,-19.3779 1177.9,-15.8225 1167.88,-12.378 1167.92,-19.3779"/>
</g>
<!-- &#45;13&#45;&gt;3 -->
<g id="edge10" class="edge"><title>&#45;13&#45;&gt;3</title>
<path fill="none" stroke="green" stroke-width="0.152093" d="M606.158,-81.0272C602.007,-75.7326 595.95,-69.2522 589,-65.6985 532.899,-37.0129 339.419,-21.9561 270.021,-17.3812"/>
<polygon fill="green" stroke="green" stroke-width="0.152093" points="270.193,-13.8851 259.989,-16.7365 269.744,-20.8707 270.193,-13.8851"/>
</g>
<!-- &#45;14 -->
<g id="node14" class="node"><title>&#45;14</title>
<polygon fill="lightgray" stroke="black" points="1079.5,-181.409 1050.5,-181.409 1050.5,-163.409 1079.5,-163.409 1079.5,-181.409"/>
<text text-anchor="middle" x="1065" y="-170.209" font-family="Times,serif" font-size="9.00">&#45;14</text>
</g>
<!-- &#45;14&#45;&gt;1 -->
<g id="edge56" class="edge"><title>&#45;14&#45;&gt;1</title>
<path fill="none" stroke="red" stroke-width="0.359705" d="M1072.44,-163.384C1076.66,-159.241 1082.24,-154.399 1088,-151.196 1136.29,-124.347 1174.07,-159.566 1207,-115.196 1223.74,-92.6363 1213.83,-59.0658 1204.2,-37.3154"/>
<polygon fill="red" stroke="red" stroke-width="0.359705" points="1207.35,-35.7715 1199.9,-28.2357 1201.02,-38.771 1207.35,-35.7715"/>
</g>
<!-- &#45;14&#45;&gt;2 -->
<g id="edge22" class="edge"><title>&#45;14&#45;&gt;2</title>
<path fill="none" stroke="red" stroke-width="0.371443" stroke-dasharray="1,5" d="M1057.17,-163.406C1052.75,-159.27 1046.93,-154.426 1041,-151.196 984.112,-120.218 908.949,-103.003 870.681,-95.6995"/>
<polygon fill="red" stroke="red" stroke-width="0.371443" points="870.948,-92.19 860.48,-93.8228 869.681,-99.0745 870.948,-92.19"/>
</g>
<!-- &#45;15 -->
<g id="node15" class="node"><title>&#45;15</title>
<polygon fill="lightgray" stroke="black" points="383.5,-181.409 354.5,-181.409 354.5,-163.409 383.5,-163.409 383.5,-181.409"/>
<text text-anchor="middle" x="369" y="-170.209" font-family="Times,serif" font-size="9.00">&#45;15</text>
</g>
<!-- &#45;15&#45;&gt;3 -->
<g id="edge64" class="edge"><title>&#45;15&#45;&gt;3</title>
<path fill="none" stroke="red" stroke-width="0.773346" d="M362.333,-163.046C343.134,-138.96 287.361,-68.9919 260.208,-34.9284"/>
<polygon fill="red" stroke="red" stroke-width="0.773346" points="262.932,-32.7295 253.961,-27.0915 257.458,-37.0928 262.932,-32.7295"/>
</g>
<!-- &#45;15&#45;&gt;75 -->
<g id="edge42" class="edge"><title>&#45;15&#45;&gt;75</title>
<path fill="none" stroke="green" stroke-width="0.500564" d="M383.518,-166.917C397.989,-162.538 420.894,-155.874 441,-151.196 526.413,-131.324 550.354,-138.117 635,-115.196 648.315,-111.59 662.77,-106.526 674.748,-101.999"/>
<polygon fill="green" stroke="green" stroke-width="0.500564" points="676.082,-105.236 684.148,-98.3669 673.559,-98.7063 676.082,-105.236"/>
</g>
<!-- &#45;16 -->
<g id="node16" class="node"><title>&#45;16</title>
<polygon fill="lightgray" stroke="black" points="473.5,-99.4472 444.5,-99.4472 444.5,-81.4472 473.5,-81.4472 473.5,-99.4472"/>
<text text-anchor="middle" x="459" y="-88.2472" font-family="Times,serif" font-size="9.00">&#45;16</text>
</g>
<!-- &#45;16&#45;&gt;1 -->
<g id="edge45" class="edge"><title>&#45;16&#45;&gt;1</title>
<path fill="none" stroke="red" stroke-width="0.358283" d="M473.904,-82.3203C486.231,-76.7761 504.352,-69.4201 521,-65.6985 647.945,-37.3212 1061.43,-20.6292 1167.84,-16.7344"/>
<polygon fill="red" stroke="red" stroke-width="0.358283" points="1168.09,-20.2277 1177.96,-16.369 1167.84,-13.2323 1168.09,-20.2277"/>
</g>
<!-- &#45;16&#45;&gt;3 -->
<g id="edge5" class="edge"><title>&#45;16&#45;&gt;3</title>
<path fill="none" stroke="green" stroke-width="0.148108" d="M451.046,-81.3511C445.564,-76.1933 437.872,-69.7436 430,-65.6985 376.644,-38.2799 306.652,-24.7534 269.943,-19.1531"/>
<polygon fill="green" stroke="green" stroke-width="0.148108" points="270.073,-15.6354 259.674,-17.6629 269.068,-22.5629 270.073,-15.6354"/>
</g>
<!-- &#45;17 -->
<g id="node17" class="node"><title>&#45;17</title>
<polygon fill="lightgray" stroke="black" points="545.5,-181.409 516.5,-181.409 516.5,-163.409 545.5,-163.409 545.5,-181.409"/>
<text text-anchor="middle" x="531" y="-170.209" font-family="Times,serif" font-size="9.00">&#45;17</text>
</g>
<!-- &#45;17&#45;&gt;0 -->
<g id="edge6" class="edge"><title>&#45;17&#45;&gt;0</title>
<path fill="none" stroke="red" stroke-width="0.197621" stroke-dasharray="1,5" d="M526.766,-163.179C517.472,-143.83 497.878,-94.8879 521,-65.6985 544.13,-36.4993 657.249,-22.7168 708.126,-17.9172"/>
<polygon fill="red" stroke="red" stroke-width="0.197621" points="708.615,-21.3875 718.26,-17.0033 707.986,-14.4158 708.615,-21.3875"/>
</g>
<!-- &#45;17&#45;&gt;2 -->
<g id="edge41" class="edge"><title>&#45;17&#45;&gt;2</title>
<path fill="none" stroke="green" stroke-width="0.441214" d="M538.312,-163.131C542.492,-158.915 548.074,-154.082 554,-151.196 632.057,-113.184 661.074,-133.232 746,-115.196 772.04,-109.666 801.691,-102.516 821.901,-97.5121"/>
<polygon fill="green" stroke="green" stroke-width="0.441214" points="822.95,-100.858 831.807,-95.044 821.257,-94.0655 822.95,-100.858"/>
</g>
<!-- &#45;17&#45;&gt;3 -->
<g id="edge23" class="edge"><title>&#45;17&#45;&gt;3</title>
<path fill="none" stroke="green" stroke-width="0.194074" d="M516.392,-165.228C483.685,-151.363 407.027,-118.718 402,-115.196 377.154,-97.7896 379.719,-83.285 355,-65.6985 327.888,-46.4094 292.119,-31.879 268.844,-23.6198"/>
<polygon fill="green" stroke="green" stroke-width="0.194074" points="269.701,-20.2131 259.106,-20.2718 267.425,-26.8329 269.701,-20.2131"/>
</g>
<!-- 1096 -->
<g id="node30" class="node"><title>1096</title>
<ellipse fill="white" stroke="black" cx="555" cy="-90.4472" rx="25" ry="25"/>
<text text-anchor="middle" x="555" y="-88.2472" font-family="Times,serif" font-size="9.00">1096</text>
</g>
<!-- &#45;17&#45;&gt;1096 -->
<g id="edge38" class="edge"><title>&#45;17&#45;&gt;1096</title>
<path fill="none" stroke="green" stroke-width="0.276007" d="M533.478,-163.153C536.261,-153.881 540.951,-138.255 545.244,-123.952"/>
<polygon fill="green" stroke="green" stroke-width="0.276007" points="548.602,-124.94 548.124,-114.356 541.897,-122.928 548.602,-124.94"/>
</g>
<!-- &#45;17&#45;&gt;75 -->
<g id="edge46" class="edge"><title>&#45;17&#45;&gt;75</title>
<path fill="none" stroke="green" stroke-width="0.36455" d="M538.982,-163.196C543.181,-159.2 548.573,-154.549 554,-151.196 574.885,-138.289 637.95,-114.391 674.333,-101.063"/>
<polygon fill="green" stroke="green" stroke-width="0.36455" points="675.633,-104.315 683.83,-97.6027 673.236,-97.7379 675.633,-104.315"/>
</g>
<!-- &#45;18 -->
<g id="node18" class="node"><title>&#45;18</title>
<polygon fill="lightgray" stroke="black" points="1126.5,-181.409 1097.5,-181.409 1097.5,-163.409 1126.5,-163.409 1126.5,-181.409"/>
<text text-anchor="middle" x="1112" y="-170.209" font-family="Times,serif" font-size="9.00">&#45;18</text>
</g>
<!-- &#45;18&#45;&gt;1 -->
<g id="edge9" class="edge"><title>&#45;18&#45;&gt;1</title>
<path fill="none" stroke="green" stroke-width="0.265699" d="M1126.9,-170.247C1155.6,-167.111 1218.13,-155.729 1245,-115.196 1257.16,-96.8608 1253.63,-85.9328 1245,-65.6985 1238.66,-50.849 1225.5,-38.2997 1214,-29.5068"/>
<polygon fill="green" stroke="green" stroke-width="0.265699" points="1215.84,-26.5192 1205.67,-23.5392 1211.76,-32.2091 1215.84,-26.5192"/>
</g>
<!-- &#45;18&#45;&gt;2 -->
<g id="edge34" class="edge"><title>&#45;18&#45;&gt;2</title>
<path fill="none" stroke="red" stroke-width="0.214377" d="M1104.24,-163.274C1099.84,-159.099 1094.02,-154.261 1088,-151.196 1014.43,-113.733 916.122,-98.925 870.799,-93.8111"/>
<polygon fill="red" stroke="red" stroke-width="0.214377" points="871.027,-90.3156 860.713,-92.7365 870.286,-97.2762 871.027,-90.3156"/>
</g>
<!-- &#45;19 -->
<g id="node19" class="node"><title>&#45;19</title>
<polygon fill="lightgray" stroke="black" points="592.5,-181.409 563.5,-181.409 563.5,-163.409 592.5,-163.409 592.5,-181.409"/>
<text text-anchor="middle" x="578" y="-170.209" font-family="Times,serif" font-size="9.00">&#45;19</text>
</g>
<!-- &#45;19&#45;&gt;0 -->
<g id="edge53" class="edge"><title>&#45;19&#45;&gt;0</title>
<path fill="none" stroke="red" stroke-width="0.775582" d="M586.835,-163.349C598.338,-152.711 618.876,-133.219 635,-115.196 653.674,-94.3228 654.538,-85.8382 674,-65.6985 686.298,-52.973 701.595,-40.1205 713.532,-30.6536"/>
<polygon fill="red" stroke="red" stroke-width="0.775582" points="715.806,-33.3188 721.538,-24.4088 711.501,-27.7991 715.806,-33.3188"/>
</g>
<!-- &#45;19&#45;&gt;75 -->
<g id="edge27" class="edge"><title>&#45;19&#45;&gt;75</title>
<path fill="none" stroke="red" stroke-width="0.151817" d="M586.992,-163.07C591.354,-159.229 596.772,-154.746 602,-151.196 629.966,-132.206 640.463,-133.317 669,-115.196 672.227,-113.147 675.551,-110.876 678.781,-108.575"/>
<polygon fill="red" stroke="red" stroke-width="0.151817" points="680.997,-111.289 686.977,-102.543 676.848,-105.652 680.997,-111.289"/>
</g>
<!-- &#45;20 -->
<g id="node20" class="node"><title>&#45;20</title>
<polygon fill="lightgray" stroke="black" points="1450.5,-99.4472 1421.5,-99.4472 1421.5,-81.4472 1450.5,-81.4472 1450.5,-99.4472"/>
<text text-anchor="middle" x="1436" y="-88.2472" font-family="Times,serif" font-size="9.00">&#45;20</text>
</g>
<!-- &#45;20&#45;&gt;1 -->
<g id="edge58" class="edge"><title>&#45;20&#45;&gt;1</title>
<path fill="none" stroke="green" stroke-width="0.483374" d="M1428.09,-81.2616C1422.63,-76.066 1414.94,-69.6078 1407,-65.6985 1343.22,-34.2979 1258.9,-22.1981 1217.74,-17.9383"/>
<polygon fill="green" stroke="green" stroke-width="0.483374" points="1218.08,-14.4544 1207.79,-16.976 1217.4,-21.422 1218.08,-14.4544"/>
</g>
<!-- &#45;21 -->
<g id="node21" class="node"><title>&#45;21</title>
<polygon fill="lightgray" stroke="black" points="259.5,-181.409 230.5,-181.409 230.5,-163.409 259.5,-163.409 259.5,-181.409"/>
<text text-anchor="middle" x="245" y="-170.209" font-family="Times,serif" font-size="9.00">&#45;21</text>
</g>
<!-- &#45;21&#45;&gt;3 -->
<g id="edge44" class="edge"><title>&#45;21&#45;&gt;3</title>
<path fill="none" stroke="green" stroke-width="0.316689" d="M245,-163.046C245,-140.154 245,-75.8142 245,-40.2473"/>
<polygon fill="green" stroke="green" stroke-width="0.316689" points="248.5,-39.7996 245,-29.7996 241.5,-39.7997 248.5,-39.7996"/>
</g>
<!-- &#45;21&#45;&gt;75 -->
<g id="edge20" class="edge"><title>&#45;21&#45;&gt;75</title>
<path fill="none" stroke="red" stroke-width="0.197282" d="M259.51,-168.116C278.91,-163.795 314.407,-156.179 345,-151.196 473.189,-130.315 508.675,-145.368 635,-115.196 648.51,-111.969 663.083,-106.903 675.091,-102.278"/>
<polygon fill="red" stroke="red" stroke-width="0.197282" points="676.49,-105.488 684.493,-98.5456 673.908,-98.9815 676.49,-105.488"/>
</g>
<!-- &#45;22 -->
<g id="node22" class="node"><title>&#45;22</title>
<polygon fill="lightgray" stroke="black" points="989.5,-181.409 960.5,-181.409 960.5,-163.409 989.5,-163.409 989.5,-181.409"/>
<text text-anchor="middle" x="975" y="-170.209" font-family="Times,serif" font-size="9.00">&#45;22</text>
</g>
<!-- &#45;22&#45;&gt;0 -->
<g id="edge13" class="edge"><title>&#45;22&#45;&gt;0</title>
<path fill="none" stroke="green" stroke-width="0.624476" d="M973.271,-163.364C968.583,-143.55 953.72,-92.0963 921,-65.6985 872.819,-26.8275 797.228,-18.0652 758.197,-16.2227"/>
<polygon fill="green" stroke="green" stroke-width="0.624476" points="758.107,-12.7174 747.99,-15.8621 757.86,-19.7131 758.107,-12.7174"/>
</g>
<!-- &#45;22&#45;&gt;1 -->
<g id="edge31" class="edge"><title>&#45;22&#45;&gt;1</title>
<path fill="none" stroke="green" stroke-width="0.558548" d="M984.12,-163.252C988.511,-159.45 993.915,-154.948 999,-151.196 1022.81,-133.63 1030.54,-131.845 1055,-115.196 1097.75,-86.0935 1146.62,-50.2955 1173.21,-30.5962"/>
<polygon fill="green" stroke="green" stroke-width="0.558548" points="1175.39,-33.3371 1181.33,-24.5657 1171.22,-27.7168 1175.39,-33.3371"/>
</g>
<!-- &#45;22&#45;&gt;2 -->
<g id="edge54" class="edge"><title>&#45;22&#45;&gt;2</title>
<path fill="none" stroke="green" stroke-width="0.259556" d="M965.969,-163.127C961.598,-159.298 956.184,-154.809 951,-151.196 923.693,-132.165 889.892,-113.769 868.142,-102.533"/>
<polygon fill="green" stroke="green" stroke-width="0.259556" points="869.561,-99.328 859.063,-97.8982 866.378,-105.563 869.561,-99.328"/>
</g>
<!-- &#45;22&#45;&gt;75 -->
<g id="edge19" class="edge"><title>&#45;22&#45;&gt;75</title>
<path fill="none" stroke="red" stroke-width="0.354453" d="M967.248,-163.256C962.85,-159.076 957.031,-154.239 951,-151.196 931.127,-141.169 790.374,-110.479 729.235,-97.4246"/>
<polygon fill="red" stroke="red" stroke-width="0.354453" points="729.636,-93.9316 719.126,-95.2722 728.178,-100.778 729.636,-93.9316"/>
</g>
<!-- &#45;23 -->
<g id="node23" class="node"><title>&#45;23</title>
<polygon fill="lightgray" stroke="black" points="682.5,-181.409 653.5,-181.409 653.5,-163.409 682.5,-163.409 682.5,-181.409"/>
<text text-anchor="middle" x="668" y="-170.209" font-family="Times,serif" font-size="9.00">&#45;23</text>
</g>
<!-- &#45;23&#45;&gt;75 -->
<g id="edge48" class="edge"><title>&#45;23&#45;&gt;75</title>
<path fill="none" stroke="red" stroke-width="0.552639" d="M671.407,-163.153C675.853,-152.381 683.838,-133.032 690.394,-117.147"/>
<polygon fill="red" stroke="red" stroke-width="0.552639" points="693.667,-118.39 694.247,-107.811 687.196,-115.72 693.667,-118.39"/>
</g>
<!-- &#45;24 -->
<g id="node24" class="node"><title>&#45;24</title>
<polygon fill="lightgray" stroke="black" points="1497.5,-99.4472 1468.5,-99.4472 1468.5,-81.4472 1497.5,-81.4472 1497.5,-99.4472"/>
<text text-anchor="middle" x="1483" y="-88.2472" font-family="Times,serif" font-size="9.00">&#45;24</text>
</g>
<!-- &#45;24&#45;&gt;1 -->
<g id="edge3" class="edge"><title>&#45;24&#45;&gt;1</title>
<path fill="none" stroke="red" stroke-width="0.171864" d="M1476.78,-81.1238C1472.39,-75.8701 1466.06,-69.3989 1459,-65.6985 1378.33,-23.4245 1267.32,-16.589 1218.16,-15.7619"/>
<polygon fill="red" stroke="red" stroke-width="0.171864" points="1218.15,-12.2616 1208.11,-15.6646 1218.08,-19.2613 1218.15,-12.2616"/>
</g>
<!-- 0&#45;&gt;0 -->
<g id="edge39" class="edge"><title>0&#45;&gt;0</title>
<path fill="none" stroke="red" stroke-width="0.119337" stroke-dasharray="1,5" d="M743.428,-25.6755C754.039,-32.0439 765.849,-28.4352 765.849,-14.8492 765.849,-5.50891 760.267,-0.884351 753.33,-0.975566"/>
<polygon fill="red" stroke="red" stroke-width="0.119337" points="751.956,2.26363 743.428,-4.02295 754.015,-4.42672 751.956,2.26363"/>
</g>
<!-- 3&#45;&gt;3 -->
<g id="edge70" class="edge"><title>3&#45;&gt;3</title>
<path fill="none" stroke="green" stroke-width="0.222911" d="M255.428,-25.6755C266.039,-32.0439 277.849,-28.4352 277.849,-14.8492 277.849,-5.50891 272.267,-0.884351 265.33,-0.975566"/>
<polygon fill="green" stroke="green" stroke-width="0.222911" points="263.956,2.26363 255.428,-4.02295 266.015,-4.42672 263.956,2.26363"/>
</g>
<!-- 423 -->
<g id="node29" class="node"><title>423</title>
<ellipse fill="white" stroke="black" cx="139" cy="-90.4472" rx="21.4286" ry="21.4286"/>
<text text-anchor="middle" x="139" y="-88.2472" font-family="Times,serif" font-size="9.00">423</text>
</g>
<!-- 423&#45;&gt;3 -->
<g id="edge16" class="edge"><title>423&#45;&gt;3</title>
<path fill="none" stroke="green" stroke-width="0.593496" d="M156.031,-77.6224C174.808,-64.5847 204.991,-43.628 224.91,-29.7978"/>
<polygon fill="green" stroke="green" stroke-width="0.593496" points="227.044,-32.5773 233.262,-23.999 223.052,-26.8273 227.044,-32.5773"/>
</g>
<!-- 1096&#45;&gt;0 -->
<g id="edge40" class="edge"><title>1096&#45;&gt;0</title>
<path fill="none" stroke="red" stroke-width="0.370189" d="M573.935,-74.3912C578.391,-71.2582 583.235,-68.1636 588,-65.6985 628.218,-44.8898 679.012,-29.7247 708.568,-21.8909"/>
<polygon fill="red" stroke="red" stroke-width="0.370189" points="709.631,-25.2311 718.437,-19.3396 707.879,-18.4539 709.631,-25.2311"/>
</g>
<!-- 75&#45;&gt;0 -->
<g id="edge8" class="edge"><title>75&#45;&gt;0</title>
<path fill="none" stroke="red" stroke-width="0.16536" d="M708.102,-73.1134C712.602,-62.7631 718.479,-49.2457 723.394,-37.9433"/>
<polygon fill="red" stroke="red" stroke-width="0.16536" points="726.628,-39.2826 727.405,-28.7164 720.208,-36.4915 726.628,-39.2826"/>
</g>
<!-- 75&#45;&gt;1 -->
<g id="edge15" class="edge"><title>75&#45;&gt;1</title>
<path fill="none" stroke="green" stroke-width="0.400051" d="M718.361,-83.9836C735.989,-78.6209 764.152,-70.5593 789,-65.6985 930.978,-37.9246 1104.22,-22.694 1167.94,-17.7059"/>
<polygon fill="green" stroke="green" stroke-width="0.400051" points="1168.5,-21.1732 1178.21,-16.9177 1167.97,-14.1938 1168.5,-21.1732"/>
</g>
<!-- 75&#45;&gt;75 -->
<g id="edge14" class="edge"><title>75&#45;&gt;75</title>
<path fill="none" stroke="green" stroke-width="0.340927" d="M715.192,-102.53C726.179,-107.049 737.385,-103.021 737.385,-90.4472 737.385,-81.8024 732.088,-77.1972 725.208,-76.6316"/>
<polygon fill="green" stroke="green" stroke-width="0.340927" points="724.449,-73.2108 715.192,-78.3642 725.642,-80.1084 724.449,-73.2108"/>
</g>
<!-- 309&#45;&gt;3 -->
<g id="edge7" class="edge"><title>309&#45;&gt;3</title>
<path fill="none" stroke="red" stroke-width="0.233773" d="M126.409,-154.955C111.163,-132.867 89.7728,-93.2242 109,-65.6985 133.991,-29.9221 187.596,-19.7432 219.537,-16.8977"/>
<polygon fill="red" stroke="red" stroke-width="0.233773" points="220.121,-20.3651 229.849,-16.1671 219.626,-13.3826 220.121,-20.3651"/>
</g>
<!-- 309&#45;&gt;423 -->
<g id="edge69" class="edge"><title>309&#45;&gt;423</title>
<path fill="none" stroke="green" stroke-width="0.166285" d="M139,-150.817C139,-141.982 139,-131.479 139,-121.782"/>
<polygon fill="green" stroke="green" stroke-width="0.166285" points="142.5,-121.693 139,-111.693 135.5,-121.693 142.5,-121.693"/>
</g>
</g>
</svg>
