<?xml version="1.0" encoding="UTF-8" standalone="no"?>
<!DOCTYPE svg PUBLIC "-//W3C//DTD SVG 1.1//EN"
 "http://www.w3.org/Graphics/SVG/1.1/DTD/svg11.dtd">
<!-- Generated by graphviz version 2.38.0 (20140413.2041)
 -->
<!-- Title: %3 Pages: 1 -->
<svg width="1165pt" height="189pt"
 viewBox="0.00 0.00 1164.85 188.89" xmlns="http://www.w3.org/2000/svg" xmlns:xlink="http://www.w3.org/1999/xlink">
<g id="graph0" class="graph" transform="scale(1 1) rotate(0) translate(4 184.894)">
<title>%3</title>
<polygon fill="white" stroke="none" points="-4,4 -4,-184.894 1160.85,-184.894 1160.85,4 -4,4"/>
<!-- &#45;1 -->
<g id="node1" class="node"><title>&#45;1</title>
<polygon fill="lightgray" stroke="black" points="24,-175.045 0,-175.045 0,-157.045 24,-157.045 24,-175.045"/>
<text text-anchor="middle" x="12" y="-163.845" font-family="Times,serif" font-size="9.00">&#45;1</text>
</g>
<!-- &#45;2 -->
<g id="node2" class="node"><title>&#45;2</title>
<polygon fill="lightgray" stroke="black" points="66,-175.045 42,-175.045 42,-157.045 66,-157.045 66,-175.045"/>
<text text-anchor="middle" x="54" y="-163.845" font-family="Times,serif" font-size="9.00">&#45;2</text>
</g>
<!-- &#45;3 -->
<g id="node3" class="node"><title>&#45;3</title>
<polygon fill="lightgray" stroke="black" points="108,-175.045 84,-175.045 84,-157.045 108,-157.045 108,-175.045"/>
<text text-anchor="middle" x="96" y="-163.845" font-family="Times,serif" font-size="9.00">&#45;3</text>
</g>
<!-- 1 -->
<g id="node26" class="node"><title>1</title>
<ellipse fill="lightblue" stroke="black" cx="148" cy="-14.8492" rx="14.7" ry="14.7"/>
<text text-anchor="middle" x="148" y="-12.6492" font-family="Times,serif" font-size="9.00">1</text>
</g>
<!-- &#45;3&#45;&gt;1 -->
<g id="edge1" class="edge"><title>&#45;3&#45;&gt;1</title>
<path fill="none" stroke="green" stroke-width="0.167009" d="M92.7128,-156.833C86.1904,-139.182 73.445,-96.7141 88,-65.6985 95.8533,-48.9638 112.39,-35.9026 126.118,-27.3553"/>
<polygon fill="green" stroke="green" stroke-width="0.167009" points="128.148,-30.2235 135.031,-22.1694 124.627,-24.173 128.148,-30.2235"/>
</g>
<!-- 2197 -->
<g id="node29" class="node"><title>2197</title>
<ellipse fill="white" stroke="black" cx="122" cy="-90.4472" rx="25" ry="25"/>
<text text-anchor="middle" x="122" y="-88.2472" font-family="Times,serif" font-size="9.00">2197</text>
</g>
<!-- &#45;3&#45;&gt;2197 -->
<g id="edge7" class="edge"><title>&#45;3&#45;&gt;2197</title>
<path fill="none" stroke="green" stroke-width="0.596685" d="M98.8818,-156.888C101.74,-148.796 106.307,-135.869 110.629,-123.634"/>
<polygon fill="green" stroke="green" stroke-width="0.596685" points="113.975,-124.669 114.006,-114.075 107.375,-122.338 113.975,-124.669"/>
</g>
<!-- &#45;4 -->
<g id="node4" class="node"><title>&#45;4</title>
<polygon fill="lightgray" stroke="black" points="214,-175.045 190,-175.045 190,-157.045 214,-157.045 214,-175.045"/>
<text text-anchor="middle" x="202" y="-163.845" font-family="Times,serif" font-size="9.00">&#45;4</text>
</g>
<!-- &#45;5 -->
<g id="node5" class="node"><title>&#45;5</title>
<polygon fill="lightgray" stroke="black" points="277,-175.045 253,-175.045 253,-157.045 277,-157.045 277,-175.045"/>
<text text-anchor="middle" x="265" y="-163.845" font-family="Times,serif" font-size="9.00">&#45;5</text>
</g>
<!-- 2 -->
<g id="node27" class="node"><title>2</title>
<ellipse fill="lightblue" stroke="black" cx="265" cy="-90.4472" rx="14.7" ry="14.7"/>
<text text-anchor="middle" x="265" y="-88.2472" font-family="Times,serif" font-size="9.00">2</text>
</g>
<!-- &#45;5&#45;&gt;2 -->
<g id="edge4" class="edge"><title>&#45;5&#45;&gt;2</title>
<path fill="none" stroke="red" stroke-width="0.826814" d="M265,-156.888C265,-146.986 265,-129.845 265,-115.589"/>
<polygon fill="red" stroke="red" stroke-width="0.826814" points="268.5,-115.418 265,-105.418 261.5,-115.418 268.5,-115.418"/>
</g>
<!-- &#45;6 -->
<g id="node6" class="node"><title>&#45;6</title>
<polygon fill="lightgray" stroke="black" points="319,-175.045 295,-175.045 295,-157.045 319,-157.045 319,-175.045"/>
<text text-anchor="middle" x="307" y="-163.845" font-family="Times,serif" font-size="9.00">&#45;6</text>
</g>
<!-- &#45;7 -->
<g id="node7" class="node"><title>&#45;7</title>
<polygon fill="lightgray" stroke="black" points="361,-175.045 337,-175.045 337,-157.045 361,-157.045 361,-175.045"/>
<text text-anchor="middle" x="349" y="-163.845" font-family="Times,serif" font-size="9.00">&#45;7</text>
</g>
<!-- &#45;8 -->
<g id="node8" class="node"><title>&#45;8</title>
<polygon fill="lightgray" stroke="black" points="169,-175.045 145,-175.045 145,-157.045 169,-157.045 169,-175.045"/>
<text text-anchor="middle" x="157" y="-163.845" font-family="Times,serif" font-size="9.00">&#45;8</text>
</g>
<!-- &#45;8&#45;&gt;1 -->
<g id="edge2" class="edge"><title>&#45;8&#45;&gt;1</title>
<path fill="none" stroke="green" stroke-width="0.65513" d="M157.323,-157.042C157.916,-140.136 158.871,-99.5566 156,-65.6985 155.279,-57.1967 153.95,-47.9528 152.579,-39.7605"/>
<polygon fill="green" stroke="green" stroke-width="0.65513" points="155.995,-38.9814 150.8,-29.7475 149.103,-40.2055 155.995,-38.9814"/>
</g>
<!-- &#45;8&#45;&gt;2197 -->
<g id="edge6" class="edge"><title>&#45;8&#45;&gt;2197</title>
<path fill="none" stroke="green" stroke-width="0.217071" d="M153.121,-156.888C149.149,-148.537 142.729,-135.037 136.749,-122.461"/>
<polygon fill="green" stroke="green" stroke-width="0.217071" points="139.764,-120.652 132.309,-113.125 133.443,-123.659 139.764,-120.652"/>
</g>
<!-- &#45;9 -->
<g id="node9" class="node"><title>&#45;9</title>
<polygon fill="lightgray" stroke="black" points="403,-175.045 379,-175.045 379,-157.045 403,-157.045 403,-175.045"/>
<text text-anchor="middle" x="391" y="-163.845" font-family="Times,serif" font-size="9.00">&#45;9</text>
</g>
<!-- &#45;10 -->
<g id="node10" class="node"><title>&#45;10</title>
<polygon fill="lightgray" stroke="black" points="450.5,-175.045 421.5,-175.045 421.5,-157.045 450.5,-157.045 450.5,-175.045"/>
<text text-anchor="middle" x="436" y="-163.845" font-family="Times,serif" font-size="9.00">&#45;10</text>
</g>
<!-- &#45;11 -->
<g id="node11" class="node"><title>&#45;11</title>
<polygon fill="lightgray" stroke="black" points="497.5,-175.045 468.5,-175.045 468.5,-157.045 497.5,-157.045 497.5,-175.045"/>
<text text-anchor="middle" x="483" y="-163.845" font-family="Times,serif" font-size="9.00">&#45;11</text>
</g>
<!-- &#45;12 -->
<g id="node12" class="node"><title>&#45;12</title>
<polygon fill="lightgray" stroke="black" points="544.5,-175.045 515.5,-175.045 515.5,-157.045 544.5,-157.045 544.5,-175.045"/>
<text text-anchor="middle" x="530" y="-163.845" font-family="Times,serif" font-size="9.00">&#45;12</text>
</g>
<!-- &#45;13 -->
<g id="node13" class="node"><title>&#45;13</title>
<polygon fill="lightgray" stroke="black" points="232.5,-99.4472 203.5,-99.4472 203.5,-81.4472 232.5,-81.4472 232.5,-99.4472"/>
<text text-anchor="middle" x="218" y="-88.2472" font-family="Times,serif" font-size="9.00">&#45;13</text>
</g>
<!-- &#45;13&#45;&gt;1 -->
<g id="edge5" class="edge"><title>&#45;13&#45;&gt;1</title>
<path fill="none" stroke="green" stroke-width="0.110088" d="M210.241,-81.2897C199.329,-69.8163 179.17,-48.6215 164.75,-33.4601"/>
<polygon fill="green" stroke="green" stroke-width="0.110088" points="167.239,-30.9989 157.812,-26.1651 162.167,-35.8232 167.239,-30.9989"/>
</g>
<!-- &#45;14 -->
<g id="node14" class="node"><title>&#45;14</title>
<polygon fill="lightgray" stroke="black" points="591.5,-175.045 562.5,-175.045 562.5,-157.045 591.5,-157.045 591.5,-175.045"/>
<text text-anchor="middle" x="577" y="-163.845" font-family="Times,serif" font-size="9.00">&#45;14</text>
</g>
<!-- &#45;15 -->
<g id="node15" class="node"><title>&#45;15</title>
<polygon fill="lightgray" stroke="black" points="638.5,-175.045 609.5,-175.045 609.5,-157.045 638.5,-157.045 638.5,-175.045"/>
<text text-anchor="middle" x="624" y="-163.845" font-family="Times,serif" font-size="9.00">&#45;15</text>
</g>
<!-- &#45;16 -->
<g id="node16" class="node"><title>&#45;16</title>
<polygon fill="lightgray" stroke="black" points="685.5,-175.045 656.5,-175.045 656.5,-157.045 685.5,-157.045 685.5,-175.045"/>
<text text-anchor="middle" x="671" y="-163.845" font-family="Times,serif" font-size="9.00">&#45;16</text>
</g>
<!-- &#45;17 -->
<g id="node17" class="node"><title>&#45;17</title>
<polygon fill="lightgray" stroke="black" points="732.5,-175.045 703.5,-175.045 703.5,-157.045 732.5,-157.045 732.5,-175.045"/>
<text text-anchor="middle" x="718" y="-163.845" font-family="Times,serif" font-size="9.00">&#45;17</text>
</g>
<!-- &#45;18 -->
<g id="node18" class="node"><title>&#45;18</title>
<polygon fill="lightgray" stroke="black" points="779.5,-175.045 750.5,-175.045 750.5,-157.045 779.5,-157.045 779.5,-175.045"/>
<text text-anchor="middle" x="765" y="-163.845" font-family="Times,serif" font-size="9.00">&#45;18</text>
</g>
<!-- &#45;19 -->
<g id="node19" class="node"><title>&#45;19</title>
<polygon fill="lightgray" stroke="black" points="826.5,-175.045 797.5,-175.045 797.5,-157.045 826.5,-157.045 826.5,-175.045"/>
<text text-anchor="middle" x="812" y="-163.845" font-family="Times,serif" font-size="9.00">&#45;19</text>
</g>
<!-- &#45;20 -->
<g id="node20" class="node"><title>&#45;20</title>
<polygon fill="lightgray" stroke="black" points="873.5,-175.045 844.5,-175.045 844.5,-157.045 873.5,-157.045 873.5,-175.045"/>
<text text-anchor="middle" x="859" y="-163.845" font-family="Times,serif" font-size="9.00">&#45;20</text>
</g>
<!-- &#45;21 -->
<g id="node21" class="node"><title>&#45;21</title>
<polygon fill="lightgray" stroke="black" points="920.5,-175.045 891.5,-175.045 891.5,-157.045 920.5,-157.045 920.5,-175.045"/>
<text text-anchor="middle" x="906" y="-163.845" font-family="Times,serif" font-size="9.00">&#45;21</text>
</g>
<!-- &#45;22 -->
<g id="node22" class="node"><title>&#45;22</title>
<polygon fill="lightgray" stroke="black" points="967.5,-175.045 938.5,-175.045 938.5,-157.045 967.5,-157.045 967.5,-175.045"/>
<text text-anchor="middle" x="953" y="-163.845" font-family="Times,serif" font-size="9.00">&#45;22</text>
</g>
<!-- &#45;23 -->
<g id="node23" class="node"><title>&#45;23</title>
<polygon fill="lightgray" stroke="black" points="1014.5,-175.045 985.5,-175.045 985.5,-157.045 1014.5,-157.045 1014.5,-175.045"/>
<text text-anchor="middle" x="1000" y="-163.845" font-family="Times,serif" font-size="9.00">&#45;23</text>
</g>
<!-- &#45;24 -->
<g id="node24" class="node"><title>&#45;24</title>
<polygon fill="lightgray" stroke="black" points="1061.5,-175.045 1032.5,-175.045 1032.5,-157.045 1061.5,-157.045 1061.5,-175.045"/>
<text text-anchor="middle" x="1047" y="-163.845" font-family="Times,serif" font-size="9.00">&#45;24</text>
</g>
<!-- 0 -->
<g id="node25" class="node"><title>0</title>
<ellipse fill="lightblue" stroke="black" cx="1094" cy="-166.045" rx="14.7" ry="14.7"/>
<text text-anchor="middle" x="1094" y="-163.845" font-family="Times,serif" font-size="9.00">0</text>
</g>
<!-- 3 -->
<g id="node28" class="node"><title>3</title>
<ellipse fill="lightblue" stroke="black" cx="1142" cy="-166.045" rx="14.7" ry="14.7"/>
<text text-anchor="middle" x="1142" y="-163.845" font-family="Times,serif" font-size="9.00">3</text>
</g>
<!-- 2197&#45;&gt;1 -->
<g id="edge3" class="edge"><title>2197&#45;&gt;1</title>
<path fill="none" stroke="green" stroke-width="0.680584" d="M129.942,-66.9655C133.11,-57.997 136.754,-47.6843 139.934,-38.6813"/>
<polygon fill="green" stroke="green" stroke-width="0.680584" points="143.248,-39.8094 143.278,-29.2146 136.647,-37.4777 143.248,-39.8094"/>
</g>
</g>
</svg>
