<?xml version="1.0" encoding="UTF-8" standalone="no"?>
<!DOCTYPE svg PUBLIC "-//W3C//DTD SVG 1.1//EN"
 "http://www.w3.org/Graphics/SVG/1.1/DTD/svg11.dtd">
<!-- Generated by graphviz version 2.38.0 (20140413.2041)
 -->
<!-- Title: %3 Pages: 1 -->
<svg width="1203pt" height="177pt"
 viewBox="0.00 0.00 1202.50 177.20" xmlns="http://www.w3.org/2000/svg" xmlns:xlink="http://www.w3.org/1999/xlink">
<g id="graph0" class="graph" transform="scale(1 1) rotate(0) translate(4 173.196)">
<title>%3</title>
<polygon fill="white" stroke="none" points="-4,4 -4,-173.196 1198.5,-173.196 1198.5,4 -4,4"/>
<!-- &#45;1 -->
<g id="node1" class="node"><title>&#45;1</title>
<polygon fill="lightgray" stroke="black" points="526,-99.4472 502,-99.4472 502,-81.4472 526,-81.4472 526,-99.4472"/>
<text text-anchor="middle" x="514" y="-88.2472" font-family="Times,serif" font-size="9.00">&#45;1</text>
</g>
<!-- 0 -->
<g id="node25" class="node"><title>0</title>
<ellipse fill="lightblue" stroke="black" cx="297" cy="-14.8492" rx="14.7" ry="14.7"/>
<text text-anchor="middle" x="297" y="-12.6492" font-family="Times,serif" font-size="9.00">0</text>
</g>
<!-- &#45;1&#45;&gt;0 -->
<g id="edge2" class="edge"><title>&#45;1&#45;&gt;0</title>
<path fill="none" stroke="red" stroke-width="0.201047" d="M501.901,-84.2588C490.048,-79.2514 471.423,-71.5846 455,-65.6985 408.011,-48.8572 352.123,-31.9416 320.993,-22.7916"/>
<polygon fill="red" stroke="red" stroke-width="0.201047" points="321.651,-19.3373 311.07,-19.8918 319.687,-26.0563 321.651,-19.3373"/>
</g>
<!-- 1 -->
<g id="node26" class="node"><title>1</title>
<ellipse fill="lightblue" stroke="black" cx="982" cy="-14.8492" rx="14.7" ry="14.7"/>
<text text-anchor="middle" x="982" y="-12.6492" font-family="Times,serif" font-size="9.00">1</text>
</g>
<!-- &#45;1&#45;&gt;1 -->
<g id="edge9" class="edge"><title>&#45;1&#45;&gt;1</title>
<path fill="none" stroke="green" stroke-width="0.128876" d="M519.131,-81.4218C523.055,-76.0143 528.976,-69.2441 536,-65.6985 573.77,-46.6336 868.527,-24.0338 956.985,-17.6228"/>
<polygon fill="green" stroke="green" stroke-width="0.128876" points="957.444,-21.0989 967.167,-16.8906 956.941,-14.117 957.444,-21.0989"/>
</g>
<!-- 3 -->
<g id="node28" class="node"><title>3</title>
<ellipse fill="lightblue" stroke="black" cx="474" cy="-14.8492" rx="14.7" ry="14.7"/>
<text text-anchor="middle" x="474" y="-12.6492" font-family="Times,serif" font-size="9.00">3</text>
</g>
<!-- &#45;1&#45;&gt;3 -->
<g id="edge33" class="edge"><title>&#45;1&#45;&gt;3</title>
<path fill="none" stroke="green" stroke-width="0.612364" d="M509.566,-81.2897C503.827,-70.7286 493.61,-51.9305 485.595,-37.1831"/>
<polygon fill="green" stroke="green" stroke-width="0.612364" points="488.565,-35.319 480.715,-28.2042 482.415,-38.6617 488.565,-35.319"/>
</g>
<!-- &#45;2 -->
<g id="node2" class="node"><title>&#45;2</title>
<polygon fill="lightgray" stroke="black" points="267,-99.4472 243,-99.4472 243,-81.4472 267,-81.4472 267,-99.4472"/>
<text text-anchor="middle" x="255" y="-88.2472" font-family="Times,serif" font-size="9.00">&#45;2</text>
</g>
<!-- &#45;2&#45;&gt;0 -->
<g id="edge8" class="edge"><title>&#45;2&#45;&gt;0</title>
<path fill="none" stroke="green" stroke-width="0.34108" d="M259.655,-81.2897C265.682,-70.7286 276.41,-51.9305 284.825,-37.1831"/>
<polygon fill="green" stroke="green" stroke-width="0.34108" points="288.033,-38.6242 289.949,-28.2042 281.953,-35.1547 288.033,-38.6242"/>
</g>
<!-- &#45;3 -->
<g id="node3" class="node"><title>&#45;3</title>
<polygon fill="lightgray" stroke="black" points="963,-169.196 939,-169.196 939,-151.196 963,-151.196 963,-169.196"/>
<text text-anchor="middle" x="951" y="-157.996" font-family="Times,serif" font-size="9.00">&#45;3</text>
</g>
<!-- &#45;4 -->
<g id="node4" class="node"><title>&#45;4</title>
<polygon fill="lightgray" stroke="black" points="309,-99.4472 285,-99.4472 285,-81.4472 309,-81.4472 309,-99.4472"/>
<text text-anchor="middle" x="297" y="-88.2472" font-family="Times,serif" font-size="9.00">&#45;4</text>
</g>
<!-- &#45;4&#45;&gt;0 -->
<g id="edge28" class="edge"><title>&#45;4&#45;&gt;0</title>
<path fill="none" stroke="red" stroke-width="0.140717" d="M297,-81.2897C297,-71.3882 297,-54.2466 297,-39.9908"/>
<polygon fill="red" stroke="red" stroke-width="0.140717" points="300.5,-39.8196 297,-29.8196 293.5,-39.8196 300.5,-39.8196"/>
</g>
<!-- &#45;4&#45;&gt;3 -->
<g id="edge15" class="edge"><title>&#45;4&#45;&gt;3</title>
<path fill="none" stroke="green" stroke-width="0.197536" d="M302.384,-81.3804C306.196,-76.235 311.731,-69.7881 318,-65.6985 359.506,-38.6223 416.808,-25.3078 449.156,-19.5671"/>
<polygon fill="green" stroke="green" stroke-width="0.197536" points="449.826,-23.0038 459.111,-17.9016 448.67,-16.0998 449.826,-23.0038"/>
</g>
<!-- &#45;5 -->
<g id="node5" class="node"><title>&#45;5</title>
<polygon fill="lightgray" stroke="black" points="351,-99.4472 327,-99.4472 327,-81.4472 351,-81.4472 351,-99.4472"/>
<text text-anchor="middle" x="339" y="-88.2472" font-family="Times,serif" font-size="9.00">&#45;5</text>
</g>
<!-- &#45;5&#45;&gt;0 -->
<g id="edge23" class="edge"><title>&#45;5&#45;&gt;0</title>
<path fill="none" stroke="red" stroke-width="1.12509" d="M334.345,-81.2897C328.318,-70.7286 317.59,-51.9305 309.175,-37.1831"/>
<polygon fill="red" stroke="red" stroke-width="1.12509" points="312.047,-35.1547 304.051,-28.2042 305.967,-38.6242 312.047,-35.1547"/>
</g>
<!-- &#45;5&#45;&gt;3 -->
<g id="edge30" class="edge"><title>&#45;5&#45;&gt;3</title>
<path fill="none" stroke="green" stroke-width="0.734007" d="M344.875,-81.1398C348.728,-76.156 354.127,-69.9756 360,-65.6985 387.986,-45.3152 425.616,-30.915 449.843,-22.996"/>
<polygon fill="green" stroke="green" stroke-width="0.734007" points="451.158,-26.2515 459.644,-19.9078 449.054,-19.5751 451.158,-26.2515"/>
</g>
<!-- &#45;6 -->
<g id="node6" class="node"><title>&#45;6</title>
<polygon fill="lightgray" stroke="black" points="777,-99.4472 753,-99.4472 753,-81.4472 777,-81.4472 777,-99.4472"/>
<text text-anchor="middle" x="765" y="-88.2472" font-family="Times,serif" font-size="9.00">&#45;6</text>
</g>
<!-- 2 -->
<g id="node27" class="node"><title>2</title>
<ellipse fill="lightblue" stroke="black" cx="681" cy="-14.8492" rx="14.7" ry="14.7"/>
<text text-anchor="middle" x="681" y="-12.6492" font-family="Times,serif" font-size="9.00">2</text>
</g>
<!-- &#45;6&#45;&gt;2 -->
<g id="edge6" class="edge"><title>&#45;6&#45;&gt;2</title>
<path fill="none" stroke="green" stroke-width="0.393558" d="M758.337,-81.2055C754.366,-76.4791 749.116,-70.5419 744,-65.6985 730.34,-52.7653 713.586,-39.6229 700.79,-30.0818"/>
<polygon fill="green" stroke="green" stroke-width="0.393558" points="702.781,-27.2013 692.651,-24.0986 698.635,-32.8414 702.781,-27.2013"/>
</g>
<!-- &#45;7 -->
<g id="node7" class="node"><title>&#45;7</title>
<polygon fill="lightgray" stroke="black" points="973,-99.4472 949,-99.4472 949,-81.4472 973,-81.4472 973,-99.4472"/>
<text text-anchor="middle" x="961" y="-88.2472" font-family="Times,serif" font-size="9.00">&#45;7</text>
</g>
<!-- &#45;7&#45;&gt;1 -->
<g id="edge39" class="edge"><title>&#45;7&#45;&gt;1</title>
<path fill="none" stroke="green" stroke-width="0.369092" d="M963.328,-81.2897C966.215,-71.1707 971.26,-53.4899 975.378,-39.0555"/>
<polygon fill="green" stroke="green" stroke-width="0.369092" points="978.791,-39.8499 978.17,-29.2734 972.06,-37.9292 978.791,-39.8499"/>
</g>
<!-- &#45;8 -->
<g id="node8" class="node"><title>&#45;8</title>
<polygon fill="lightgray" stroke="black" points="1015,-99.4472 991,-99.4472 991,-81.4472 1015,-81.4472 1015,-99.4472"/>
<text text-anchor="middle" x="1003" y="-88.2472" font-family="Times,serif" font-size="9.00">&#45;8</text>
</g>
<!-- &#45;8&#45;&gt;1 -->
<g id="edge5" class="edge"><title>&#45;8&#45;&gt;1</title>
<path fill="none" stroke="green" stroke-width="0.266326" d="M1000.67,-81.2897C997.785,-71.1707 992.74,-53.4899 988.622,-39.0555"/>
<polygon fill="green" stroke="green" stroke-width="0.266326" points="991.94,-37.9292 985.83,-29.2734 985.209,-39.8499 991.94,-37.9292"/>
</g>
<!-- &#45;9 -->
<g id="node9" class="node"><title>&#45;9</title>
<polygon fill="lightgray" stroke="black" points="24,-99.4472 0,-99.4472 0,-81.4472 24,-81.4472 24,-99.4472"/>
<text text-anchor="middle" x="12" y="-88.2472" font-family="Times,serif" font-size="9.00">&#45;9</text>
</g>
<!-- &#45;9&#45;&gt;0 -->
<g id="edge27" class="edge"><title>&#45;9&#45;&gt;0</title>
<path fill="none" stroke="red" stroke-width="0.373674" d="M17.2269,-81.1221C20.972,-75.8676 26.492,-69.3962 33,-65.6985 111.799,-20.9271 223.067,-15.4015 272.121,-15.3385"/>
<polygon fill="red" stroke="red" stroke-width="0.373674" points="272.12,-18.8385 282.143,-15.4033 272.165,-11.8386 272.12,-18.8385"/>
</g>
<!-- &#45;10 -->
<g id="node10" class="node"><title>&#45;10</title>
<polygon fill="lightgray" stroke="black" points="138.5,-99.4472 109.5,-99.4472 109.5,-81.4472 138.5,-81.4472 138.5,-99.4472"/>
<text text-anchor="middle" x="124" y="-88.2472" font-family="Times,serif" font-size="9.00">&#45;10</text>
</g>
<!-- &#45;10&#45;&gt;0 -->
<g id="edge19" class="edge"><title>&#45;10&#45;&gt;0</title>
<path fill="none" stroke="red" stroke-width="0.139803" d="M132.543,-81.0794C138.026,-76.0729 145.502,-69.8898 153,-65.6985 192.283,-43.7399 242.942,-28.9531 272.514,-21.5026"/>
<polygon fill="red" stroke="red" stroke-width="0.139803" points="273.51,-24.8622 282.394,-19.0899 271.85,-18.062 273.51,-24.8622"/>
</g>
<!-- &#45;11 -->
<g id="node11" class="node"><title>&#45;11</title>
<polygon fill="lightgray" stroke="black" points="445.5,-99.4472 416.5,-99.4472 416.5,-81.4472 445.5,-81.4472 445.5,-99.4472"/>
<text text-anchor="middle" x="431" y="-88.2472" font-family="Times,serif" font-size="9.00">&#45;11</text>
</g>
<!-- &#45;11&#45;&gt;0 -->
<g id="edge12" class="edge"><title>&#45;11&#45;&gt;0</title>
<path fill="none" stroke="red" stroke-width="0.264158" d="M424.404,-81.1919C420.124,-76.2277 414.202,-70.0496 408,-65.6985 380.432,-46.3586 344.157,-31.7754 320.708,-23.524"/>
<polygon fill="red" stroke="red" stroke-width="0.264158" points="321.804,-20.2001 311.21,-20.2819 319.543,-26.8248 321.804,-20.2001"/>
</g>
<!-- &#45;11&#45;&gt;2 -->
<g id="edge36" class="edge"><title>&#45;11&#45;&gt;2</title>
<path fill="none" stroke="red" stroke-width="0.155083" d="M445.624,-83.3381C458.089,-78.2539 476.548,-71.014 493,-65.6985 550.947,-46.9768 620.55,-29.8938 656.629,-21.4318"/>
<polygon fill="red" stroke="red" stroke-width="0.155083" points="657.752,-24.7641 666.7,-19.0902 656.167,-17.946 657.752,-24.7641"/>
</g>
<!-- &#45;12 -->
<g id="node12" class="node"><title>&#45;12</title>
<polygon fill="lightgray" stroke="black" points="1100.5,-99.4472 1071.5,-99.4472 1071.5,-81.4472 1100.5,-81.4472 1100.5,-99.4472"/>
<text text-anchor="middle" x="1086" y="-88.2472" font-family="Times,serif" font-size="9.00">&#45;12</text>
</g>
<!-- &#45;12&#45;&gt;1 -->
<g id="edge13" class="edge"><title>&#45;12&#45;&gt;1</title>
<path fill="none" stroke="green" stroke-width="0.257519" d="M1076.52,-81.2856C1070.95,-76.5859 1063.7,-70.6488 1057,-65.6985 1039.19,-52.5407 1018.14,-38.6864 1002.88,-28.9323"/>
<polygon fill="green" stroke="green" stroke-width="0.257519" points="1004.52,-25.8319 994.203,-23.4318 1000.77,-31.7433 1004.52,-25.8319"/>
</g>
<!-- &#45;13 -->
<g id="node13" class="node"><title>&#45;13</title>
<polygon fill="lightgray" stroke="black" points="1010.5,-169.196 981.5,-169.196 981.5,-151.196 1010.5,-151.196 1010.5,-169.196"/>
<text text-anchor="middle" x="996" y="-157.996" font-family="Times,serif" font-size="9.00">&#45;13</text>
</g>
<!-- &#45;14 -->
<g id="node14" class="node"><title>&#45;14</title>
<polygon fill="lightgray" stroke="black" points="920.5,-169.196 891.5,-169.196 891.5,-151.196 920.5,-151.196 920.5,-169.196"/>
<text text-anchor="middle" x="906" y="-157.996" font-family="Times,serif" font-size="9.00">&#45;14</text>
</g>
<!-- &#45;14&#45;&gt;1 -->
<g id="edge41" class="edge"><title>&#45;14&#45;&gt;1</title>
<path fill="none" stroke="green" stroke-width="0.604319" d="M920.951,-154.128C952.013,-143.531 1020.91,-119.641 1024,-115.196 1036.55,-97.1262 1031.54,-86.3631 1024,-65.6985 1019.26,-52.708 1009.47,-40.7606 1000.54,-31.8205"/>
<polygon fill="green" stroke="green" stroke-width="0.604319" points="1002.74,-29.0861 993.056,-24.7877 997.946,-34.1868 1002.74,-29.0861"/>
</g>
<!-- &#45;14&#45;&gt;3 -->
<g id="edge25" class="edge"><title>&#45;14&#45;&gt;3</title>
<path fill="none" stroke="green" stroke-width="0.210706" d="M891.084,-158.643C820.579,-155.896 522.91,-142.725 493,-115.196 472.57,-96.3913 470.129,-62.9139 471.249,-40.0642"/>
<polygon fill="green" stroke="green" stroke-width="0.210706" points="474.76,-40.0464 472.022,-29.8117 467.78,-39.5203 474.76,-40.0464"/>
</g>
<!-- 1785 -->
<g id="node30" class="node"><title>1785</title>
<ellipse fill="white" stroke="black" cx="906" cy="-90.4472" rx="25" ry="25"/>
<text text-anchor="middle" x="906" y="-88.2472" font-family="Times,serif" font-size="9.00">1785</text>
</g>
<!-- &#45;14&#45;&gt;1785 -->
<g id="edge32" class="edge"><title>&#45;14&#45;&gt;1785</title>
<path fill="none" stroke="green" stroke-width="0.285966" d="M906,-151.158C906,-144.723 906,-135.225 906,-125.689"/>
<polygon fill="green" stroke="green" stroke-width="0.285966" points="909.5,-125.468 906,-115.468 902.5,-125.469 909.5,-125.468"/>
</g>
<!-- &#45;15 -->
<g id="node15" class="node"><title>&#45;15</title>
<polygon fill="lightgray" stroke="black" points="1147.5,-99.4472 1118.5,-99.4472 1118.5,-81.4472 1147.5,-81.4472 1147.5,-99.4472"/>
<text text-anchor="middle" x="1133" y="-88.2472" font-family="Times,serif" font-size="9.00">&#45;15</text>
</g>
<!-- &#45;15&#45;&gt;1 -->
<g id="edge14" class="edge"><title>&#45;15&#45;&gt;1</title>
<path fill="none" stroke="green" stroke-width="0.185147" d="M1126.48,-81.0802C1122.23,-76.074 1116.31,-69.891 1110,-65.6985 1077.03,-43.7963 1033.01,-29.3409 1006.13,-21.8823"/>
<polygon fill="green" stroke="green" stroke-width="0.185147" points="1006.96,-18.4813 996.391,-19.2809 1005.15,-25.244 1006.96,-18.4813"/>
</g>
<!-- &#45;16 -->
<g id="node16" class="node"><title>&#45;16</title>
<polygon fill="lightgray" stroke="black" points="573.5,-99.4472 544.5,-99.4472 544.5,-81.4472 573.5,-81.4472 573.5,-99.4472"/>
<text text-anchor="middle" x="559" y="-88.2472" font-family="Times,serif" font-size="9.00">&#45;16</text>
</g>
<!-- &#45;16&#45;&gt;0 -->
<g id="edge17" class="edge"><title>&#45;16&#45;&gt;0</title>
<path fill="none" stroke="green" stroke-width="0.589884" d="M552.752,-81.1731C548.356,-75.9401 542.022,-69.4735 535,-65.6985 464.238,-27.6542 367.157,-18.6253 321.994,-16.4966"/>
<polygon fill="green" stroke="green" stroke-width="0.589884" points="322.055,-12.9964 311.925,-16.0984 321.779,-19.991 322.055,-12.9964"/>
</g>
<!-- &#45;16&#45;&gt;1 -->
<g id="edge26" class="edge"><title>&#45;16&#45;&gt;1</title>
<path fill="none" stroke="red" stroke-width="0.437003" d="M564.771,-81.4466C569.133,-76.0508 575.618,-69.2844 583,-65.6985 649.582,-33.3538 879.663,-20.3889 956.667,-16.8918"/>
<polygon fill="red" stroke="red" stroke-width="0.437003" points="957.042,-20.3788 966.879,-16.4434 956.735,-13.3855 957.042,-20.3788"/>
</g>
<!-- &#45;17 -->
<g id="node17" class="node"><title>&#45;17</title>
<polygon fill="lightgray" stroke="black" points="181.5,-169.196 152.5,-169.196 152.5,-151.196 181.5,-151.196 181.5,-169.196"/>
<text text-anchor="middle" x="167" y="-157.996" font-family="Times,serif" font-size="9.00">&#45;17</text>
</g>
<!-- &#45;17&#45;&gt;0 -->
<g id="edge3" class="edge"><title>&#45;17&#45;&gt;0</title>
<path fill="none" stroke="green" stroke-width="0.422646" d="M166.344,-151.183C165.351,-133.659 165.412,-91.4408 186,-65.6985 207.474,-38.8483 246.506,-25.9903 272.093,-20.1855"/>
<polygon fill="green" stroke="green" stroke-width="0.422646" points="273.06,-23.5598 282.146,-18.1094 271.644,-16.7045 273.06,-23.5598"/>
</g>
<!-- &#45;17&#45;&gt;1 -->
<g id="edge38" class="edge"><title>&#45;17&#45;&gt;1</title>
<path fill="none" stroke="red" stroke-width="0.487498" d="M181.623,-158.95C273.993,-157.305 774.577,-146.965 834,-115.196 858.458,-102.12 850.275,-82.9378 872,-65.6985 898.325,-44.8095 934.806,-30.5368 958.406,-22.7839"/>
<polygon fill="red" stroke="red" stroke-width="0.487498" points="959.478,-26.1158 967.962,-19.7701 957.373,-19.4399 959.478,-26.1158"/>
</g>
<!-- 1924 -->
<g id="node29" class="node"><title>1924</title>
<ellipse fill="white" stroke="black" cx="67" cy="-90.4472" rx="25" ry="25"/>
<text text-anchor="middle" x="67" y="-88.2472" font-family="Times,serif" font-size="9.00">1924</text>
</g>
<!-- &#45;17&#45;&gt;1924 -->
<g id="edge20" class="edge"><title>&#45;17&#45;&gt;1924</title>
<path fill="none" stroke="green" stroke-width="0.195046" d="M154.047,-150.923C140.471,-142.197 118.575,-127.971 100,-115.196 98.3861,-114.086 96.7343,-112.938 95.0718,-111.772"/>
<polygon fill="green" stroke="green" stroke-width="0.195046" points="96.9776,-108.833 86.7962,-105.902 92.9276,-114.542 96.9776,-108.833"/>
</g>
<!-- &#45;18 -->
<g id="node18" class="node"><title>&#45;18</title>
<polygon fill="lightgray" stroke="black" points="620.5,-99.4472 591.5,-99.4472 591.5,-81.4472 620.5,-81.4472 620.5,-99.4472"/>
<text text-anchor="middle" x="606" y="-88.2472" font-family="Times,serif" font-size="9.00">&#45;18</text>
</g>
<!-- &#45;18&#45;&gt;2 -->
<g id="edge21" class="edge"><title>&#45;18&#45;&gt;2</title>
<path fill="none" stroke="red" stroke-width="0.60346" d="M614.429,-81.0816C619.025,-76.5263 624.818,-70.7952 630,-65.6985 641.145,-54.738 653.701,-42.4643 663.566,-32.8383"/>
<polygon fill="red" stroke="red" stroke-width="0.60346" points="666.106,-35.2494 670.822,-25.7618 661.219,-30.2381 666.106,-35.2494"/>
</g>
<!-- &#45;18&#45;&gt;3 -->
<g id="edge4" class="edge"><title>&#45;18&#45;&gt;3</title>
<path fill="none" stroke="green" stroke-width="0.276337" d="M599.394,-81.2068C595.109,-76.2482 589.187,-70.0708 583,-65.6985 556.031,-46.6412 520.612,-32.0552 497.583,-23.7203"/>
<polygon fill="green" stroke="green" stroke-width="0.276337" points="498.543,-20.3481 487.949,-20.337 496.224,-26.9527 498.543,-20.3481"/>
</g>
<!-- &#45;19 -->
<g id="node19" class="node"><title>&#45;19</title>
<polygon fill="lightgray" stroke="black" points="667.5,-99.4472 638.5,-99.4472 638.5,-81.4472 667.5,-81.4472 667.5,-99.4472"/>
<text text-anchor="middle" x="653" y="-88.2472" font-family="Times,serif" font-size="9.00">&#45;19</text>
</g>
<!-- &#45;19&#45;&gt;0 -->
<g id="edge31" class="edge"><title>&#45;19&#45;&gt;0</title>
<path fill="none" stroke="green" stroke-width="0.124761" d="M647.153,-81.0379C642.999,-75.7479 636.942,-69.2685 630,-65.6985 602.619,-51.617 394.763,-26.95 322.035,-18.6585"/>
<polygon fill="green" stroke="green" stroke-width="0.124761" points="322.276,-15.1635 311.945,-17.5147 321.487,-22.1189 322.276,-15.1635"/>
</g>
<!-- &#45;19&#45;&gt;1 -->
<g id="edge24" class="edge"><title>&#45;19&#45;&gt;1</title>
<path fill="none" stroke="red" stroke-width="0.485945" d="M658.863,-81.0673C663.023,-75.7898 669.081,-69.3132 676,-65.6985 725.157,-40.0164 893.464,-23.3791 957.237,-17.867"/>
<polygon fill="red" stroke="red" stroke-width="0.485945" points="957.543,-21.3537 967.212,-17.0224 956.952,-14.3786 957.543,-21.3537"/>
</g>
<!-- &#45;19&#45;&gt;2 -->
<g id="edge10" class="edge"><title>&#45;19&#45;&gt;2</title>
<path fill="none" stroke="green" stroke-width="0.626657" d="M656.103,-81.2897C660.014,-71.0116 666.892,-52.9321 672.429,-38.3773"/>
<polygon fill="green" stroke="green" stroke-width="0.626657" points="675.711,-39.5941 675.996,-29.0031 669.169,-37.105 675.711,-39.5941"/>
</g>
<!-- &#45;20 -->
<g id="node20" class="node"><title>&#45;20</title>
<polygon fill="lightgray" stroke="black" points="824.5,-99.4472 795.5,-99.4472 795.5,-81.4472 824.5,-81.4472 824.5,-99.4472"/>
<text text-anchor="middle" x="810" y="-88.2472" font-family="Times,serif" font-size="9.00">&#45;20</text>
</g>
<!-- &#45;20&#45;&gt;2 -->
<g id="edge1" class="edge"><title>&#45;20&#45;&gt;2</title>
<path fill="none" stroke="green" stroke-width="0.353851" d="M803.021,-81.2568C798.517,-76.317 792.335,-70.1418 786,-65.6985 760.044,-47.4918 726.397,-32.8564 704.277,-24.2667"/>
<polygon fill="green" stroke="green" stroke-width="0.353851" points="705.303,-20.9127 694.711,-20.6503 702.828,-27.4604 705.303,-20.9127"/>
</g>
<!-- &#45;21 -->
<g id="node21" class="node"><title>&#45;21</title>
<polygon fill="lightgray" stroke="black" points="398.5,-99.4472 369.5,-99.4472 369.5,-81.4472 398.5,-81.4472 398.5,-99.4472"/>
<text text-anchor="middle" x="384" y="-88.2472" font-family="Times,serif" font-size="9.00">&#45;21</text>
</g>
<!-- &#45;21&#45;&gt;0 -->
<g id="edge16" class="edge"><title>&#45;21&#45;&gt;0</title>
<path fill="none" stroke="green" stroke-width="0.724647" d="M376.213,-81.3035C371.617,-76.6099 365.617,-70.6727 360,-65.6985 345.917,-53.2273 329.186,-40.0602 316.506,-30.3921"/>
<polygon fill="green" stroke="green" stroke-width="0.724647" points="318.546,-27.5465 308.458,-24.3094 314.325,-33.1311 318.546,-27.5465"/>
</g>
<!-- &#45;21&#45;&gt;2 -->
<g id="edge34" class="edge"><title>&#45;21&#45;&gt;2</title>
<path fill="none" stroke="green" stroke-width="0.308163" d="M390.216,-81.113C394.599,-75.8547 400.93,-69.3824 408,-65.6985 451.251,-43.1613 596.83,-25.094 655.84,-18.5217"/>
<polygon fill="green" stroke="green" stroke-width="0.308163" points="656.561,-21.9639 666.121,-17.3961 655.799,-15.0055 656.561,-21.9639"/>
</g>
<!-- &#45;22 -->
<g id="node22" class="node"><title>&#45;22</title>
<polygon fill="lightgray" stroke="black" points="1194.5,-99.4472 1165.5,-99.4472 1165.5,-81.4472 1194.5,-81.4472 1194.5,-99.4472"/>
<text text-anchor="middle" x="1180" y="-88.2472" font-family="Times,serif" font-size="9.00">&#45;22</text>
</g>
<!-- &#45;22&#45;&gt;1 -->
<g id="edge18" class="edge"><title>&#45;22&#45;&gt;1</title>
<path fill="none" stroke="red" stroke-width="0.456817" d="M1173.99,-81.3277C1169.77,-76.1601 1163.7,-69.7082 1157,-65.6985 1108.61,-36.728 1042.6,-23.9207 1007.08,-18.8223"/>
<polygon fill="red" stroke="red" stroke-width="0.456817" points="1007.47,-15.3429 997.093,-17.4782 1006.54,-22.2804 1007.47,-15.3429"/>
</g>
<!-- &#45;23 -->
<g id="node23" class="node"><title>&#45;23</title>
<polygon fill="lightgray" stroke="black" points="1057.5,-169.196 1028.5,-169.196 1028.5,-151.196 1057.5,-151.196 1057.5,-169.196"/>
<text text-anchor="middle" x="1043" y="-157.996" font-family="Times,serif" font-size="9.00">&#45;23</text>
</g>
<!-- &#45;24 -->
<g id="node24" class="node"><title>&#45;24</title>
<polygon fill="lightgray" stroke="black" points="224.5,-99.4472 195.5,-99.4472 195.5,-81.4472 224.5,-81.4472 224.5,-99.4472"/>
<text text-anchor="middle" x="210" y="-88.2472" font-family="Times,serif" font-size="9.00">&#45;24</text>
</g>
<!-- &#45;24&#45;&gt;0 -->
<g id="edge35" class="edge"><title>&#45;24&#45;&gt;0</title>
<path fill="none" stroke="green" stroke-width="1.01902" d="M217.787,-81.3035C222.383,-76.6099 228.383,-70.6727 234,-65.6985 248.083,-53.2273 264.814,-40.0602 277.494,-30.3921"/>
<polygon fill="green" stroke="green" stroke-width="1.01902" points="279.675,-33.1311 285.542,-24.3094 275.454,-27.5465 279.675,-33.1311"/>
</g>
<!-- 1&#45;&gt;1 -->
<g id="edge22" class="edge"><title>1&#45;&gt;1</title>
<path fill="none" stroke="red" stroke-width="0.434148" d="M992.428,-25.6755C1003.04,-32.0439 1014.85,-28.4352 1014.85,-14.8492 1014.85,-5.50891 1009.27,-0.884351 1002.33,-0.975566"/>
<polygon fill="red" stroke="red" stroke-width="0.434148" points="1000.96,2.26363 992.428,-4.02295 1003.01,-4.42672 1000.96,2.26363"/>
</g>
<!-- 2&#45;&gt;2 -->
<g id="edge37" class="edge"><title>2&#45;&gt;2</title>
<path fill="none" stroke="green" stroke-width="0.132427" d="M691.428,-25.6755C702.039,-32.0439 713.849,-28.4352 713.849,-14.8492 713.849,-5.50891 708.267,-0.884351 701.33,-0.975566"/>
<polygon fill="green" stroke="green" stroke-width="0.132427" points="699.956,2.26363 691.428,-4.02295 702.015,-4.42672 699.956,2.26363"/>
</g>
<!-- 3&#45;&gt;3 -->
<g id="edge11" class="edge"><title>3&#45;&gt;3</title>
<path fill="none" stroke="red" stroke-width="0.106786" d="M484.428,-25.6755C495.039,-32.0439 506.849,-28.4352 506.849,-14.8492 506.849,-5.50891 501.267,-0.884351 494.33,-0.975566"/>
<polygon fill="red" stroke="red" stroke-width="0.106786" points="492.956,2.26363 484.428,-4.02295 495.015,-4.42672 492.956,2.26363"/>
</g>
<!-- 1924&#45;&gt;0 -->
<g id="edge7" class="edge"><title>1924&#45;&gt;0</title>
<path fill="none" stroke="red" stroke-width="0.231697" d="M85.7889,-74.0938C90.2529,-70.9762 95.137,-67.9631 100,-65.6985 158.217,-38.5881 233.247,-24.8278 271.745,-19.1394"/>
<polygon fill="red" stroke="red" stroke-width="0.231697" points="272.615,-22.5513 282.026,-17.6857 271.635,-15.6202 272.615,-22.5513"/>
</g>
<!-- 1785&#45;&gt;2 -->
<g id="edge29" class="edge"><title>1785&#45;&gt;2</title>
<path fill="none" stroke="red" stroke-width="0.505523" d="M882.66,-81.725C868.573,-77.0697 850.26,-71.0289 834,-65.6985 788.169,-50.6737 734.569,-33.2424 704.523,-23.4838"/>
<polygon fill="red" stroke="red" stroke-width="0.505523" points="705.521,-20.1281 694.929,-20.3686 703.359,-26.7859 705.521,-20.1281"/>
</g>
<!-- 1439 -->
<g id="node31" class="node"><title>1439</title>
<ellipse fill="white" stroke="black" cx="710" cy="-90.4472" rx="25" ry="25"/>
<text text-anchor="middle" x="710" y="-88.2472" font-family="Times,serif" font-size="9.00">1439</text>
</g>
<!-- 1439&#45;&gt;2 -->
<g id="edge40" class="edge"><title>1439&#45;&gt;2</title>
<path fill="none" stroke="green" stroke-width="0.509616" d="M701.141,-66.9655C697.608,-57.997 693.544,-47.6843 689.997,-38.6813"/>
<polygon fill="green" stroke="green" stroke-width="0.509616" points="693.189,-37.2353 686.266,-29.2146 686.676,-39.8015 693.189,-37.2353"/>
</g>
</g>
</svg>
