<?xml version="1.0" encoding="UTF-8" standalone="no"?>
<!DOCTYPE svg PUBLIC "-//W3C//DTD SVG 1.1//EN"
 "http://www.w3.org/Graphics/SVG/1.1/DTD/svg11.dtd">
<!-- Generated by graphviz version 2.38.0 (20140413.2041)
 -->
<!-- Title: %3 Pages: 1 -->
<svg width="1299pt" height="189pt"
 viewBox="0.00 0.00 1298.85 188.89" xmlns="http://www.w3.org/2000/svg" xmlns:xlink="http://www.w3.org/1999/xlink">
<g id="graph0" class="graph" transform="scale(1 1) rotate(0) translate(4 184.894)">
<title>%3</title>
<polygon fill="white" stroke="none" points="-4,4 -4,-184.894 1294.85,-184.894 1294.85,4 -4,4"/>
<!-- &#45;1 -->
<g id="node1" class="node"><title>&#45;1</title>
<polygon fill="lightgray" stroke="black" points="24,-175.045 0,-175.045 0,-157.045 24,-157.045 24,-175.045"/>
<text text-anchor="middle" x="12" y="-163.845" font-family="Times,serif" font-size="9.00">&#45;1</text>
</g>
<!-- &#45;2 -->
<g id="node2" class="node"><title>&#45;2</title>
<polygon fill="lightgray" stroke="black" points="66,-175.045 42,-175.045 42,-157.045 66,-157.045 66,-175.045"/>
<text text-anchor="middle" x="54" y="-163.845" font-family="Times,serif" font-size="9.00">&#45;2</text>
</g>
<!-- &#45;3 -->
<g id="node3" class="node"><title>&#45;3</title>
<polygon fill="lightgray" stroke="black" points="108,-175.045 84,-175.045 84,-157.045 108,-157.045 108,-175.045"/>
<text text-anchor="middle" x="96" y="-163.845" font-family="Times,serif" font-size="9.00">&#45;3</text>
</g>
<!-- 2197 -->
<g id="node31" class="node"><title>2197</title>
<ellipse fill="white" stroke="black" cx="96" cy="-90.4472" rx="25" ry="25"/>
<text text-anchor="middle" x="96" y="-88.2472" font-family="Times,serif" font-size="9.00">2197</text>
</g>
<!-- &#45;3&#45;&gt;2197 -->
<g id="edge6" class="edge"><title>&#45;3&#45;&gt;2197</title>
<path fill="none" stroke="green" stroke-width="0.581914" d="M96,-156.888C96,-149.188 96,-137.11 96,-125.415"/>
<polygon fill="green" stroke="green" stroke-width="0.581914" points="99.5001,-125.357 96,-115.357 92.5001,-125.357 99.5001,-125.357"/>
</g>
<!-- &#45;4 -->
<g id="node4" class="node"><title>&#45;4</title>
<polygon fill="lightgray" stroke="black" points="416,-175.045 392,-175.045 392,-157.045 416,-157.045 416,-175.045"/>
<text text-anchor="middle" x="404" y="-163.845" font-family="Times,serif" font-size="9.00">&#45;4</text>
</g>
<!-- &#45;5 -->
<g id="node5" class="node"><title>&#45;5</title>
<polygon fill="lightgray" stroke="black" points="458,-175.045 434,-175.045 434,-157.045 458,-157.045 458,-175.045"/>
<text text-anchor="middle" x="446" y="-163.845" font-family="Times,serif" font-size="9.00">&#45;5</text>
</g>
<!-- 2 -->
<g id="node27" class="node"><title>2</title>
<ellipse fill="lightblue" stroke="black" cx="446" cy="-90.4472" rx="14.7" ry="14.7"/>
<text text-anchor="middle" x="446" y="-88.2472" font-family="Times,serif" font-size="9.00">2</text>
</g>
<!-- &#45;5&#45;&gt;2 -->
<g id="edge10" class="edge"><title>&#45;5&#45;&gt;2</title>
<path fill="none" stroke="red" stroke-width="0.898965" d="M446,-156.888C446,-146.986 446,-129.845 446,-115.589"/>
<polygon fill="red" stroke="red" stroke-width="0.898965" points="449.5,-115.418 446,-105.418 442.5,-115.418 449.5,-115.418"/>
</g>
<!-- &#45;6 -->
<g id="node6" class="node"><title>&#45;6</title>
<polygon fill="lightgray" stroke="black" points="500,-175.045 476,-175.045 476,-157.045 500,-157.045 500,-175.045"/>
<text text-anchor="middle" x="488" y="-163.845" font-family="Times,serif" font-size="9.00">&#45;6</text>
</g>
<!-- &#45;7 -->
<g id="node7" class="node"><title>&#45;7</title>
<polygon fill="lightgray" stroke="black" points="542,-175.045 518,-175.045 518,-157.045 542,-157.045 542,-175.045"/>
<text text-anchor="middle" x="530" y="-163.845" font-family="Times,serif" font-size="9.00">&#45;7</text>
</g>
<!-- &#45;8 -->
<g id="node8" class="node"><title>&#45;8</title>
<polygon fill="lightgray" stroke="black" points="214,-175.045 190,-175.045 190,-157.045 214,-157.045 214,-175.045"/>
<text text-anchor="middle" x="202" y="-163.845" font-family="Times,serif" font-size="9.00">&#45;8</text>
</g>
<!-- 1 -->
<g id="node26" class="node"><title>1</title>
<ellipse fill="lightblue" stroke="black" cx="202" cy="-14.8492" rx="14.7" ry="14.7"/>
<text text-anchor="middle" x="202" y="-12.6492" font-family="Times,serif" font-size="9.00">1</text>
</g>
<!-- &#45;8&#45;&gt;1 -->
<g id="edge9" class="edge"><title>&#45;8&#45;&gt;1</title>
<path fill="none" stroke="green" stroke-width="0.613683" d="M193.945,-156.719C185.594,-147.453 173.065,-131.612 168,-115.196 161.514,-94.175 161.514,-86.7194 168,-65.6985 171.558,-54.1682 178.797,-42.9217 185.685,-34.0381"/>
<polygon fill="green" stroke="green" stroke-width="0.613683" points="188.393,-36.2563 192.05,-26.3126 182.99,-31.8054 188.393,-36.2563"/>
</g>
<!-- 4393 -->
<g id="node29" class="node"><title>4393</title>
<ellipse fill="white" stroke="black" cx="202" cy="-90.4472" rx="25" ry="25"/>
<text text-anchor="middle" x="202" y="-88.2472" font-family="Times,serif" font-size="9.00">4393</text>
</g>
<!-- &#45;8&#45;&gt;4393 -->
<g id="edge1" class="edge"><title>&#45;8&#45;&gt;4393</title>
<path fill="none" stroke="green" stroke-width="0.290895" d="M202,-156.888C202,-149.188 202,-137.11 202,-125.415"/>
<polygon fill="green" stroke="green" stroke-width="0.290895" points="205.5,-125.357 202,-115.357 198.5,-125.357 205.5,-125.357"/>
</g>
<!-- 2831 -->
<g id="node30" class="node"><title>2831</title>
<ellipse fill="white" stroke="black" cx="336" cy="-90.4472" rx="25" ry="25"/>
<text text-anchor="middle" x="336" y="-88.2472" font-family="Times,serif" font-size="9.00">2831</text>
</g>
<!-- &#45;8&#45;&gt;2831 -->
<g id="edge7" class="edge"><title>&#45;8&#45;&gt;2831</title>
<path fill="none" stroke="red" stroke-width="1.25877" d="M214.156,-159.832C233.476,-151.373 272.161,-133.73 303,-115.196 304.679,-114.187 306.382,-113.118 308.083,-112.013"/>
<polygon fill="red" stroke="red" stroke-width="1.25877" points="310.167,-114.829 316.467,-106.31 306.23,-109.041 310.167,-114.829"/>
</g>
<!-- &#45;8&#45;&gt;2197 -->
<g id="edge12" class="edge"><title>&#45;8&#45;&gt;2197</title>
<path fill="none" stroke="green" stroke-width="0.36813" d="M190.251,-156.888C174.522,-145.967 146.109,-126.239 124.577,-111.289"/>
<polygon fill="green" stroke="green" stroke-width="0.36813" points="126.331,-108.246 116.121,-105.418 122.339,-113.996 126.331,-108.246"/>
</g>
<!-- 4250 -->
<g id="node32" class="node"><title>4250</title>
<ellipse fill="white" stroke="black" cx="269" cy="-90.4472" rx="25" ry="25"/>
<text text-anchor="middle" x="269" y="-88.2472" font-family="Times,serif" font-size="9.00">4250</text>
</g>
<!-- &#45;8&#45;&gt;4250 -->
<g id="edge8" class="edge"><title>&#45;8&#45;&gt;4250</title>
<path fill="none" stroke="green" stroke-width="0.3" d="M209.426,-156.888C218.165,-147.288 233.1,-130.883 245.829,-116.9"/>
<polygon fill="green" stroke="green" stroke-width="0.3" points="248.477,-119.19 252.621,-109.44 243.301,-114.478 248.477,-119.19"/>
</g>
<!-- &#45;9 -->
<g id="node9" class="node"><title>&#45;9</title>
<polygon fill="lightgray" stroke="black" points="584,-175.045 560,-175.045 560,-157.045 584,-157.045 584,-175.045"/>
<text text-anchor="middle" x="572" y="-163.845" font-family="Times,serif" font-size="9.00">&#45;9</text>
</g>
<!-- &#45;10 -->
<g id="node10" class="node"><title>&#45;10</title>
<polygon fill="lightgray" stroke="black" points="631.5,-175.045 602.5,-175.045 602.5,-157.045 631.5,-157.045 631.5,-175.045"/>
<text text-anchor="middle" x="617" y="-163.845" font-family="Times,serif" font-size="9.00">&#45;10</text>
</g>
<!-- &#45;11 -->
<g id="node11" class="node"><title>&#45;11</title>
<polygon fill="lightgray" stroke="black" points="678.5,-175.045 649.5,-175.045 649.5,-157.045 678.5,-157.045 678.5,-175.045"/>
<text text-anchor="middle" x="664" y="-163.845" font-family="Times,serif" font-size="9.00">&#45;11</text>
</g>
<!-- &#45;12 -->
<g id="node12" class="node"><title>&#45;12</title>
<polygon fill="lightgray" stroke="black" points="725.5,-175.045 696.5,-175.045 696.5,-157.045 725.5,-157.045 725.5,-175.045"/>
<text text-anchor="middle" x="711" y="-163.845" font-family="Times,serif" font-size="9.00">&#45;12</text>
</g>
<!-- &#45;13 -->
<g id="node13" class="node"><title>&#45;13</title>
<polygon fill="lightgray" stroke="black" points="772.5,-175.045 743.5,-175.045 743.5,-157.045 772.5,-157.045 772.5,-175.045"/>
<text text-anchor="middle" x="758" y="-163.845" font-family="Times,serif" font-size="9.00">&#45;13</text>
</g>
<!-- &#45;14 -->
<g id="node14" class="node"><title>&#45;14</title>
<polygon fill="lightgray" stroke="black" points="326.5,-175.045 297.5,-175.045 297.5,-157.045 326.5,-157.045 326.5,-175.045"/>
<text text-anchor="middle" x="312" y="-163.845" font-family="Times,serif" font-size="9.00">&#45;14</text>
</g>
<!-- &#45;14&#45;&gt;2831 -->
<g id="edge4" class="edge"><title>&#45;14&#45;&gt;2831</title>
<path fill="none" stroke="red" stroke-width="0.317494" d="M314.66,-156.888C317.299,-148.796 321.514,-135.869 325.504,-123.634"/>
<polygon fill="red" stroke="red" stroke-width="0.317494" points="328.848,-124.667 328.621,-114.075 322.193,-122.497 328.848,-124.667"/>
</g>
<!-- &#45;15 -->
<g id="node15" class="node"><title>&#45;15</title>
<polygon fill="lightgray" stroke="black" points="819.5,-175.045 790.5,-175.045 790.5,-157.045 819.5,-157.045 819.5,-175.045"/>
<text text-anchor="middle" x="805" y="-163.845" font-family="Times,serif" font-size="9.00">&#45;15</text>
</g>
<!-- &#45;16 -->
<g id="node16" class="node"><title>&#45;16</title>
<polygon fill="lightgray" stroke="black" points="866.5,-175.045 837.5,-175.045 837.5,-157.045 866.5,-157.045 866.5,-175.045"/>
<text text-anchor="middle" x="852" y="-163.845" font-family="Times,serif" font-size="9.00">&#45;16</text>
</g>
<!-- &#45;17 -->
<g id="node17" class="node"><title>&#45;17</title>
<polygon fill="lightgray" stroke="black" points="373.5,-175.045 344.5,-175.045 344.5,-157.045 373.5,-157.045 373.5,-175.045"/>
<text text-anchor="middle" x="359" y="-163.845" font-family="Times,serif" font-size="9.00">&#45;17</text>
</g>
<!-- &#45;17&#45;&gt;2831 -->
<g id="edge13" class="edge"><title>&#45;17&#45;&gt;2831</title>
<path fill="none" stroke="green" stroke-width="0.647582" d="M356.451,-156.888C353.965,-148.935 350.02,-136.311 346.255,-124.263"/>
<polygon fill="green" stroke="green" stroke-width="0.647582" points="349.494,-122.894 343.171,-114.394 342.813,-124.982 349.494,-122.894"/>
</g>
<!-- &#45;18 -->
<g id="node18" class="node"><title>&#45;18</title>
<polygon fill="lightgray" stroke="black" points="913.5,-175.045 884.5,-175.045 884.5,-157.045 913.5,-157.045 913.5,-175.045"/>
<text text-anchor="middle" x="899" y="-163.845" font-family="Times,serif" font-size="9.00">&#45;18</text>
</g>
<!-- &#45;19 -->
<g id="node19" class="node"><title>&#45;19</title>
<polygon fill="lightgray" stroke="black" points="960.5,-175.045 931.5,-175.045 931.5,-157.045 960.5,-157.045 960.5,-175.045"/>
<text text-anchor="middle" x="946" y="-163.845" font-family="Times,serif" font-size="9.00">&#45;19</text>
</g>
<!-- &#45;20 -->
<g id="node20" class="node"><title>&#45;20</title>
<polygon fill="lightgray" stroke="black" points="1007.5,-175.045 978.5,-175.045 978.5,-157.045 1007.5,-157.045 1007.5,-175.045"/>
<text text-anchor="middle" x="993" y="-163.845" font-family="Times,serif" font-size="9.00">&#45;20</text>
</g>
<!-- &#45;21 -->
<g id="node21" class="node"><title>&#45;21</title>
<polygon fill="lightgray" stroke="black" points="1054.5,-175.045 1025.5,-175.045 1025.5,-157.045 1054.5,-157.045 1054.5,-175.045"/>
<text text-anchor="middle" x="1040" y="-163.845" font-family="Times,serif" font-size="9.00">&#45;21</text>
</g>
<!-- &#45;22 -->
<g id="node22" class="node"><title>&#45;22</title>
<polygon fill="lightgray" stroke="black" points="1101.5,-175.045 1072.5,-175.045 1072.5,-157.045 1101.5,-157.045 1101.5,-175.045"/>
<text text-anchor="middle" x="1087" y="-163.845" font-family="Times,serif" font-size="9.00">&#45;22</text>
</g>
<!-- &#45;23 -->
<g id="node23" class="node"><title>&#45;23</title>
<polygon fill="lightgray" stroke="black" points="1148.5,-175.045 1119.5,-175.045 1119.5,-157.045 1148.5,-157.045 1148.5,-175.045"/>
<text text-anchor="middle" x="1134" y="-163.845" font-family="Times,serif" font-size="9.00">&#45;23</text>
</g>
<!-- &#45;24 -->
<g id="node24" class="node"><title>&#45;24</title>
<polygon fill="lightgray" stroke="black" points="1195.5,-175.045 1166.5,-175.045 1166.5,-157.045 1195.5,-157.045 1195.5,-175.045"/>
<text text-anchor="middle" x="1181" y="-163.845" font-family="Times,serif" font-size="9.00">&#45;24</text>
</g>
<!-- 0 -->
<g id="node25" class="node"><title>0</title>
<ellipse fill="lightblue" stroke="black" cx="1228" cy="-166.045" rx="14.7" ry="14.7"/>
<text text-anchor="middle" x="1228" y="-163.845" font-family="Times,serif" font-size="9.00">0</text>
</g>
<!-- 3 -->
<g id="node28" class="node"><title>3</title>
<ellipse fill="lightblue" stroke="black" cx="1276" cy="-166.045" rx="14.7" ry="14.7"/>
<text text-anchor="middle" x="1276" y="-163.845" font-family="Times,serif" font-size="9.00">3</text>
</g>
<!-- 4393&#45;&gt;1 -->
<g id="edge2" class="edge"><title>4393&#45;&gt;1</title>
<path fill="none" stroke="green" stroke-width="0.636976" d="M202,-65.3485C202,-57.1867 202,-48.0749 202,-39.9156"/>
<polygon fill="green" stroke="green" stroke-width="0.636976" points="205.5,-39.8982 202,-29.8983 198.5,-39.8983 205.5,-39.8982"/>
</g>
<!-- 2831&#45;&gt;1 -->
<g id="edge11" class="edge"><title>2831&#45;&gt;1</title>
<path fill="none" stroke="red" stroke-width="0.399423" d="M316.467,-74.5841C312.123,-71.5085 307.477,-68.3891 303,-65.6985 277.074,-50.1174 245.603,-35.1653 224.754,-25.7709"/>
<polygon fill="red" stroke="red" stroke-width="0.399423" points="226.002,-22.4955 215.443,-21.6272 223.156,-28.8908 226.002,-22.4955"/>
</g>
<!-- 2197&#45;&gt;1 -->
<g id="edge5" class="edge"><title>2197&#45;&gt;1</title>
<path fill="none" stroke="green" stroke-width="0.712215" d="M115.938,-75.604C134.783,-62.5194 162.914,-42.9877 181.834,-29.8512"/>
<polygon fill="green" stroke="green" stroke-width="0.712215" points="183.838,-32.7204 190.056,-24.1421 179.846,-26.9705 183.838,-32.7204"/>
</g>
<!-- 4250&#45;&gt;1 -->
<g id="edge3" class="edge"><title>4250&#45;&gt;1</title>
<path fill="none" stroke="green" stroke-width="0.647793" d="M252.781,-71.6312C242.435,-60.2658 229.06,-45.5737 218.634,-34.1209"/>
<polygon fill="green" stroke="green" stroke-width="0.647793" points="220.969,-31.4865 211.649,-26.4479 215.792,-36.1988 220.969,-31.4865"/>
</g>
</g>
</svg>
