<?xml version="1.0" encoding="UTF-8" standalone="no"?>
<!DOCTYPE svg PUBLIC "-//W3C//DTD SVG 1.1//EN"
 "http://www.w3.org/Graphics/SVG/1.1/DTD/svg11.dtd">
<!-- Generated by graphviz version 2.38.0 (20140413.2041)
 -->
<!-- Title: %3 Pages: 1 -->
<svg width="1302pt" height="177pt"
 viewBox="0.00 0.00 1301.75 177.20" xmlns="http://www.w3.org/2000/svg" xmlns:xlink="http://www.w3.org/1999/xlink">
<g id="graph0" class="graph" transform="scale(1 1) rotate(0) translate(4 173.196)">
<title>%3</title>
<polygon fill="white" stroke="none" points="-4,4 -4,-173.196 1297.75,-173.196 1297.75,4 -4,4"/>
<!-- &#45;1 -->
<g id="node1" class="node"><title>&#45;1</title>
<polygon fill="lightgray" stroke="black" points="356,-99.4472 332,-99.4472 332,-81.4472 356,-81.4472 356,-99.4472"/>
<text text-anchor="middle" x="344" y="-88.2472" font-family="Times,serif" font-size="9.00">&#45;1</text>
</g>
<!-- 0 -->
<g id="node25" class="node"><title>0</title>
<ellipse fill="lightblue" stroke="black" cx="699" cy="-14.8492" rx="14.7" ry="14.7"/>
<text text-anchor="middle" x="699" y="-12.6492" font-family="Times,serif" font-size="9.00">0</text>
</g>
<!-- &#45;1&#45;&gt;0 -->
<g id="edge10" class="edge"><title>&#45;1&#45;&gt;0</title>
<path fill="none" stroke="green" stroke-width="0.445484" d="M349.181,-81.0391C352.906,-75.7496 358.422,-69.2703 365,-65.6985 392.138,-50.9628 600.828,-26.7184 673.86,-18.597"/>
<polygon fill="green" stroke="green" stroke-width="0.445484" points="674.436,-22.0546 683.991,-17.4772 673.667,-15.097 674.436,-22.0546"/>
</g>
<!-- 1 -->
<g id="node26" class="node"><title>1</title>
<ellipse fill="lightblue" stroke="black" cx="227" cy="-14.8492" rx="14.7" ry="14.7"/>
<text text-anchor="middle" x="227" y="-12.6492" font-family="Times,serif" font-size="9.00">1</text>
</g>
<!-- &#45;1&#45;&gt;1 -->
<g id="edge12" class="edge"><title>&#45;1&#45;&gt;1</title>
<path fill="none" stroke="red" stroke-width="0.230086" d="M336.23,-81.4326C331.272,-76.5591 324.565,-70.3917 318,-65.6985 295.912,-49.9079 268.288,-35.431 249.304,-26.1947"/>
<polygon fill="red" stroke="red" stroke-width="0.230086" points="250.771,-23.0167 240.239,-21.8632 247.753,-29.3327 250.771,-23.0167"/>
</g>
<!-- 3 -->
<g id="node28" class="node"><title>3</title>
<ellipse fill="lightblue" stroke="black" cx="501" cy="-14.8492" rx="14.7" ry="14.7"/>
<text text-anchor="middle" x="501" y="-12.6492" font-family="Times,serif" font-size="9.00">3</text>
</g>
<!-- &#45;1&#45;&gt;3 -->
<g id="edge37" class="edge"><title>&#45;1&#45;&gt;3</title>
<path fill="none" stroke="green" stroke-width="0.663228" d="M349.785,-81.0125C353.604,-75.9809 359,-69.7948 365,-65.6985 399.99,-41.8098 447.828,-27.7737 476.449,-20.9684"/>
<polygon fill="green" stroke="green" stroke-width="0.663228" points="477.433,-24.3344 486.411,-18.7088 475.884,-17.5078 477.433,-24.3344"/>
</g>
<!-- &#45;2 -->
<g id="node2" class="node"><title>&#45;2</title>
<polygon fill="lightgray" stroke="black" points="846,-99.4472 822,-99.4472 822,-81.4472 846,-81.4472 846,-99.4472"/>
<text text-anchor="middle" x="834" y="-88.2472" font-family="Times,serif" font-size="9.00">&#45;2</text>
</g>
<!-- &#45;2&#45;&gt;0 -->
<g id="edge2" class="edge"><title>&#45;2&#45;&gt;0</title>
<path fill="none" stroke="red" stroke-width="0.730822" d="M828.125,-81.1398C824.272,-76.156 818.873,-69.9756 813,-65.6985 785.014,-45.3152 747.384,-30.915 723.157,-22.996"/>
<polygon fill="red" stroke="red" stroke-width="0.730822" points="723.946,-19.5751 713.356,-19.9078 721.842,-26.2515 723.946,-19.5751"/>
</g>
<!-- &#45;3 -->
<g id="node3" class="node"><title>&#45;3</title>
<polygon fill="lightgray" stroke="black" points="626,-169.196 602,-169.196 602,-151.196 626,-151.196 626,-169.196"/>
<text text-anchor="middle" x="614" y="-157.996" font-family="Times,serif" font-size="9.00">&#45;3</text>
</g>
<!-- &#45;4 -->
<g id="node4" class="node"><title>&#45;4</title>
<polygon fill="lightgray" stroke="black" points="603,-99.4472 579,-99.4472 579,-81.4472 603,-81.4472 603,-99.4472"/>
<text text-anchor="middle" x="591" y="-88.2472" font-family="Times,serif" font-size="9.00">&#45;4</text>
</g>
<!-- &#45;4&#45;&gt;0 -->
<g id="edge31" class="edge"><title>&#45;4&#45;&gt;0</title>
<path fill="none" stroke="red" stroke-width="0.286097" d="M597.043,-81.3586C600.96,-76.4573 606.367,-70.2866 612,-65.6985 632.136,-49.2973 658.349,-35.0827 676.718,-26.0762"/>
<polygon fill="red" stroke="red" stroke-width="0.286097" points="678.27,-29.214 685.781,-21.7423 675.25,-22.8989 678.27,-29.214"/>
</g>
<!-- &#45;4&#45;&gt;3 -->
<g id="edge18" class="edge"><title>&#45;4&#45;&gt;3</title>
<path fill="none" stroke="red" stroke-width="0.339159" d="M584.027,-81.1633C579.87,-76.4229 574.37,-70.4857 569,-65.6985 553.942,-52.2745 535.39,-38.8573 521.47,-29.3298"/>
<polygon fill="red" stroke="red" stroke-width="0.339159" points="523.322,-26.3577 513.074,-23.6697 519.409,-32.1619 523.322,-26.3577"/>
</g>
<!-- &#45;5 -->
<g id="node5" class="node"><title>&#45;5</title>
<polygon fill="lightgray" stroke="black" points="513,-99.4472 489,-99.4472 489,-81.4472 513,-81.4472 513,-99.4472"/>
<text text-anchor="middle" x="501" y="-88.2472" font-family="Times,serif" font-size="9.00">&#45;5</text>
</g>
<!-- &#45;5&#45;&gt;0 -->
<g id="edge26" class="edge"><title>&#45;5&#45;&gt;0</title>
<path fill="none" stroke="red" stroke-width="1.23351" d="M506.338,-81.3082C510.13,-76.1323 515.661,-69.6785 522,-65.6985 570.515,-35.2388 637.979,-22.9883 673.993,-18.3851"/>
<polygon fill="red" stroke="red" stroke-width="1.23351" points="674.584,-21.8397 684.104,-17.1904 673.763,-14.8881 674.584,-21.8397"/>
</g>
<!-- &#45;5&#45;&gt;3 -->
<g id="edge33" class="edge"><title>&#45;5&#45;&gt;3</title>
<path fill="none" stroke="red" stroke-width="0.610607" d="M501,-81.2897C501,-71.3882 501,-54.2466 501,-39.9908"/>
<polygon fill="red" stroke="red" stroke-width="0.610607" points="504.5,-39.8196 501,-29.8196 497.5,-39.8196 504.5,-39.8196"/>
</g>
<!-- &#45;6 -->
<g id="node6" class="node"><title>&#45;6</title>
<polygon fill="lightgray" stroke="black" points="1140,-99.4472 1116,-99.4472 1116,-81.4472 1140,-81.4472 1140,-99.4472"/>
<text text-anchor="middle" x="1128" y="-88.2472" font-family="Times,serif" font-size="9.00">&#45;6</text>
</g>
<!-- 2 -->
<g id="node27" class="node"><title>2</title>
<ellipse fill="lightblue" stroke="black" cx="1073" cy="-14.8492" rx="14.7" ry="14.7"/>
<text text-anchor="middle" x="1073" y="-12.6492" font-family="Times,serif" font-size="9.00">2</text>
</g>
<!-- &#45;6&#45;&gt;2 -->
<g id="edge8" class="edge"><title>&#45;6&#45;&gt;2</title>
<path fill="none" stroke="green" stroke-width="0.455151" d="M1121.9,-81.2897C1113.67,-70.2771 1098.75,-50.3083 1087.55,-35.3151"/>
<polygon fill="green" stroke="green" stroke-width="0.455151" points="1090.25,-33.0827 1081.46,-27.1675 1084.64,-37.2731 1090.25,-33.0827"/>
</g>
<!-- &#45;7 -->
<g id="node7" class="node"><title>&#45;7</title>
<polygon fill="lightgray" stroke="black" points="200,-99.4472 176,-99.4472 176,-81.4472 200,-81.4472 200,-99.4472"/>
<text text-anchor="middle" x="188" y="-88.2472" font-family="Times,serif" font-size="9.00">&#45;7</text>
</g>
<!-- &#45;7&#45;&gt;1 -->
<g id="edge43" class="edge"><title>&#45;7&#45;&gt;1</title>
<path fill="none" stroke="green" stroke-width="0.362425" d="M192.323,-81.2897C197.919,-70.7286 207.88,-51.9305 215.695,-37.1831"/>
<polygon fill="green" stroke="green" stroke-width="0.362425" points="218.863,-38.6791 220.453,-28.2042 212.678,-35.4015 218.863,-38.6791"/>
</g>
<!-- &#45;8 -->
<g id="node8" class="node"><title>&#45;8</title>
<polygon fill="lightgray" stroke="black" points="24,-99.4472 0,-99.4472 0,-81.4472 24,-81.4472 24,-99.4472"/>
<text text-anchor="middle" x="12" y="-88.2472" font-family="Times,serif" font-size="9.00">&#45;8</text>
</g>
<!-- &#45;8&#45;&gt;1 -->
<g id="edge7" class="edge"><title>&#45;8&#45;&gt;1</title>
<path fill="none" stroke="green" stroke-width="0.120853" d="M17.3083,-81.2599C21.0876,-76.0637 26.6153,-69.6053 33,-65.6985 87.2642,-32.4937 163.043,-21.2895 201.876,-17.5988"/>
<polygon fill="green" stroke="green" stroke-width="0.120853" points="202.575,-21.0518 212.24,-16.7115 201.978,-14.0773 202.575,-21.0518"/>
</g>
<!-- &#45;9 -->
<g id="node9" class="node"><title>&#45;9</title>
<polygon fill="lightgray" stroke="black" points="936,-99.4472 912,-99.4472 912,-81.4472 936,-81.4472 936,-99.4472"/>
<text text-anchor="middle" x="924" y="-88.2472" font-family="Times,serif" font-size="9.00">&#45;9</text>
</g>
<!-- &#45;9&#45;&gt;0 -->
<g id="edge30" class="edge"><title>&#45;9&#45;&gt;0</title>
<path fill="none" stroke="red" stroke-width="0.482839" d="M918.707,-81.2349C914.934,-76.0281 909.408,-69.5674 903,-65.6985 845.249,-30.8289 764.406,-20.3236 724.024,-17.1788"/>
<polygon fill="red" stroke="red" stroke-width="0.482839" points="724.203,-13.6829 713.986,-16.4863 723.721,-20.6663 724.203,-13.6829"/>
</g>
<!-- &#45;10 -->
<g id="node10" class="node"><title>&#45;10</title>
<polygon fill="lightgray" stroke="black" points="560.5,-99.4472 531.5,-99.4472 531.5,-81.4472 560.5,-81.4472 560.5,-99.4472"/>
<text text-anchor="middle" x="546" y="-88.2472" font-family="Times,serif" font-size="9.00">&#45;10</text>
</g>
<!-- &#45;10&#45;&gt;0 -->
<g id="edge22" class="edge"><title>&#45;10&#45;&gt;0</title>
<path fill="none" stroke="green" stroke-width="0.116928" d="M552.866,-81.0885C557.326,-76.0855 563.504,-69.9028 570,-65.6985 603.453,-44.0459 647.75,-29.5165 674.77,-21.9749"/>
<polygon fill="green" stroke="green" stroke-width="0.116928" points="675.805,-25.3209 684.551,-19.3407 673.985,-18.5617 675.805,-25.3209"/>
</g>
<!-- &#45;10&#45;&gt;3 -->
<g id="edge11" class="edge"><title>&#45;10&#45;&gt;3</title>
<path fill="none" stroke="red" stroke-width="0.267132" d="M541.012,-81.2897C534.455,-70.566 522.706,-51.3498 513.63,-36.505"/>
<polygon fill="red" stroke="red" stroke-width="0.267132" points="516.596,-34.6477 508.394,-27.9419 510.624,-38.2993 516.596,-34.6477"/>
</g>
<!-- &#45;11 -->
<g id="node11" class="node"><title>&#45;11</title>
<polygon fill="lightgray" stroke="black" points="983.5,-99.4472 954.5,-99.4472 954.5,-81.4472 983.5,-81.4472 983.5,-99.4472"/>
<text text-anchor="middle" x="969" y="-88.2472" font-family="Times,serif" font-size="9.00">&#45;11</text>
</g>
<!-- &#45;11&#45;&gt;0 -->
<g id="edge15" class="edge"><title>&#45;11&#45;&gt;0</title>
<path fill="none" stroke="red" stroke-width="0.467153" d="M962.76,-81.1579C958.368,-75.9186 952.034,-69.4506 945,-65.6985 871.319,-26.3948 770.099,-18.0009 723.859,-16.2646"/>
<polygon fill="red" stroke="red" stroke-width="0.467153" points="723.941,-12.7656 713.84,-15.9629 723.73,-19.7624 723.941,-12.7656"/>
</g>
<!-- &#45;11&#45;&gt;2 -->
<g id="edge40" class="edge"><title>&#45;11&#45;&gt;2</title>
<path fill="none" stroke="red" stroke-width="0.17572" d="M976.585,-81.0616C981.113,-76.2873 987.113,-70.3501 993,-65.6985 1011.57,-51.0266 1034.69,-37.0232 1051.29,-27.6152"/>
<polygon fill="red" stroke="red" stroke-width="0.17572" points="1053.2,-30.5602 1060.23,-22.6366 1049.79,-24.4448 1053.2,-30.5602"/>
</g>
<!-- &#45;12 -->
<g id="node12" class="node"><title>&#45;12</title>
<polygon fill="lightgray" stroke="black" points="71.5,-99.4472 42.5,-99.4472 42.5,-81.4472 71.5,-81.4472 71.5,-99.4472"/>
<text text-anchor="middle" x="57" y="-88.2472" font-family="Times,serif" font-size="9.00">&#45;12</text>
</g>
<!-- &#45;12&#45;&gt;1 -->
<g id="edge16" class="edge"><title>&#45;12&#45;&gt;1</title>
<path fill="none" stroke="green" stroke-width="0.274068" d="M65.5527,-81.0967C71.0395,-76.0967 78.5158,-69.9144 86,-65.6985 124.313,-44.1166 173.645,-29.2727 202.648,-21.6974"/>
<polygon fill="green" stroke="green" stroke-width="0.274068" points="203.868,-24.999 212.702,-19.1511 202.149,-18.2132 203.868,-24.999"/>
</g>
<!-- &#45;13 -->
<g id="node13" class="node"><title>&#45;13</title>
<polygon fill="lightgray" stroke="black" points="673.5,-169.196 644.5,-169.196 644.5,-151.196 673.5,-151.196 673.5,-169.196"/>
<text text-anchor="middle" x="659" y="-157.996" font-family="Times,serif" font-size="9.00">&#45;13</text>
</g>
<!-- &#45;14 -->
<g id="node14" class="node"><title>&#45;14</title>
<polygon fill="lightgray" stroke="black" points="242.5,-169.196 213.5,-169.196 213.5,-151.196 242.5,-151.196 242.5,-169.196"/>
<text text-anchor="middle" x="228" y="-157.996" font-family="Times,serif" font-size="9.00">&#45;14</text>
</g>
<!-- &#45;14&#45;&gt;1 -->
<g id="edge45" class="edge"><title>&#45;14&#45;&gt;1</title>
<path fill="none" stroke="green" stroke-width="0.129972" d="M213.165,-158.224C188.667,-155.726 140.345,-146.83 119,-115.196 106.696,-96.9599 107.144,-84.2291 119,-65.6985 137.211,-37.2357 176.263,-24.7928 202.075,-19.519"/>
<polygon fill="green" stroke="green" stroke-width="0.129972" points="203.016,-22.9054 212.228,-17.6719 201.763,-16.0185 203.016,-22.9054"/>
</g>
<!-- &#45;14&#45;&gt;3 -->
<g id="edge28" class="edge"><title>&#45;14&#45;&gt;3</title>
<path fill="none" stroke="green" stroke-width="0.504718" d="M233.9,-151.063C247.498,-132.918 282.957,-88.9053 323,-65.6985 372.822,-36.8243 440.252,-23.9366 476.129,-18.8106"/>
<polygon fill="green" stroke="green" stroke-width="0.504718" points="476.75,-22.2587 486.196,-17.4598 475.819,-15.3209 476.75,-22.2587"/>
</g>
<!-- 1785 -->
<g id="node30" class="node"><title>1785</title>
<ellipse fill="white" stroke="black" cx="1073" cy="-90.4472" rx="25" ry="25"/>
<text text-anchor="middle" x="1073" y="-88.2472" font-family="Times,serif" font-size="9.00">1785</text>
</g>
<!-- &#45;14&#45;&gt;1785 -->
<g id="edge36" class="edge"><title>&#45;14&#45;&gt;1785</title>
<path fill="none" stroke="green" stroke-width="0.245922" d="M242.706,-158.635C349.338,-154.536 1000.89,-128.986 1040,-115.196 1041.9,-114.527 1043.78,-113.713 1045.63,-112.794"/>
<polygon fill="green" stroke="green" stroke-width="0.245922" points="1047.7,-115.636 1054.5,-107.514 1044.12,-109.621 1047.7,-115.636"/>
</g>
<!-- &#45;15 -->
<g id="node15" class="node"><title>&#45;15</title>
<polygon fill="lightgray" stroke="black" points="157.5,-99.4472 128.5,-99.4472 128.5,-81.4472 157.5,-81.4472 157.5,-99.4472"/>
<text text-anchor="middle" x="143" y="-88.2472" font-family="Times,serif" font-size="9.00">&#45;15</text>
</g>
<!-- &#45;15&#45;&gt;1 -->
<g id="edge17" class="edge"><title>&#45;15&#45;&gt;1</title>
<path fill="none" stroke="red" stroke-width="0.886943" d="M150.832,-81.3535C155.443,-76.6766 161.443,-70.7394 167,-65.6985 180.238,-53.6912 195.772,-40.8164 207.717,-31.1593"/>
<polygon fill="red" stroke="red" stroke-width="0.886943" points="210.089,-33.7437 215.696,-24.7546 205.707,-28.2847 210.089,-33.7437"/>
</g>
<!-- &#45;16 -->
<g id="node16" class="node"><title>&#45;16</title>
<polygon fill="lightgray" stroke="black" points="403.5,-99.4472 374.5,-99.4472 374.5,-81.4472 403.5,-81.4472 403.5,-99.4472"/>
<text text-anchor="middle" x="389" y="-88.2472" font-family="Times,serif" font-size="9.00">&#45;16</text>
</g>
<!-- &#45;16&#45;&gt;0 -->
<g id="edge20" class="edge"><title>&#45;16&#45;&gt;0</title>
<path fill="none" stroke="green" stroke-width="0.434395" d="M394.875,-81.0912C399.04,-75.8237 405.1,-69.3494 412,-65.6985 457.553,-41.5943 612.488,-24.274 673.762,-18.2142"/>
<polygon fill="green" stroke="green" stroke-width="0.434395" points="674.451,-21.6639 684.066,-17.2146 673.775,-14.6966 674.451,-21.6639"/>
</g>
<!-- &#45;16&#45;&gt;1 -->
<g id="edge29" class="edge"><title>&#45;16&#45;&gt;1</title>
<path fill="none" stroke="red" stroke-width="0.23528" d="M382.167,-81.0378C377.718,-76.0157 371.542,-69.8308 365,-65.6985 328.716,-42.7785 280.42,-28.4361 251.638,-21.3081"/>
<polygon fill="red" stroke="red" stroke-width="0.23528" points="252.167,-17.8363 241.628,-18.9267 250.547,-24.6462 252.167,-17.8363"/>
</g>
<!-- &#45;17 -->
<g id="node17" class="node"><title>&#45;17</title>
<polygon fill="lightgray" stroke="black" points="536.5,-169.196 507.5,-169.196 507.5,-151.196 536.5,-151.196 536.5,-169.196"/>
<text text-anchor="middle" x="522" y="-157.996" font-family="Times,serif" font-size="9.00">&#45;17</text>
</g>
<!-- &#45;17&#45;&gt;0 -->
<g id="edge4" class="edge"><title>&#45;17&#45;&gt;0</title>
<path fill="none" stroke="red" stroke-width="0.19738" d="M536.547,-153.954C539.34,-152.999 542.252,-152.039 545,-151.196 604.366,-132.983 637.692,-160.649 680,-115.196 698.816,-94.9815 701.684,-62.1111 701.098,-39.763"/>
<polygon fill="red" stroke="red" stroke-width="0.19738" points="704.592,-39.5479 700.587,-29.7389 697.601,-39.904 704.592,-39.5479"/>
</g>
<!-- &#45;17&#45;&gt;1 -->
<g id="edge42" class="edge"><title>&#45;17&#45;&gt;1</title>
<path fill="none" stroke="red" stroke-width="0.673369" d="M507.302,-157.936C462.101,-153.829 326.035,-139.666 290,-115.196 262.625,-96.6063 244.666,-61.7525 235.169,-38.6683"/>
<polygon fill="red" stroke="red" stroke-width="0.673369" points="238.403,-37.3269 231.506,-29.2842 231.882,-39.8723 238.403,-37.3269"/>
</g>
<!-- 1924 -->
<g id="node29" class="node"><title>1924</title>
<ellipse fill="white" stroke="black" cx="646" cy="-90.4472" rx="25" ry="25"/>
<text text-anchor="middle" x="646" y="-88.2472" font-family="Times,serif" font-size="9.00">1924</text>
</g>
<!-- &#45;17&#45;&gt;1924 -->
<g id="edge23" class="edge"><title>&#45;17&#45;&gt;1924</title>
<path fill="none" stroke="red" stroke-width="0.101098" d="M536.701,-152.856C554.825,-144.85 586.373,-130.288 612,-115.196 613.966,-114.038 615.966,-112.803 617.962,-111.528"/>
<polygon fill="red" stroke="red" stroke-width="0.101098" points="620.186,-114.252 626.565,-105.792 616.303,-108.427 620.186,-114.252"/>
</g>
<!-- &#45;18 -->
<g id="node18" class="node"><title>&#45;18</title>
<polygon fill="lightgray" stroke="black" points="893.5,-99.4472 864.5,-99.4472 864.5,-81.4472 893.5,-81.4472 893.5,-99.4472"/>
<text text-anchor="middle" x="879" y="-88.2472" font-family="Times,serif" font-size="9.00">&#45;18</text>
</g>
<!-- &#45;18&#45;&gt;2 -->
<g id="edge24" class="edge"><title>&#45;18&#45;&gt;2</title>
<path fill="none" stroke="green" stroke-width="0.342684" d="M885.35,-81.3534C889.788,-76.1966 896.133,-69.7471 903,-65.6985 950.098,-37.9327 1013.76,-24.6914 1048.27,-19.1912"/>
<polygon fill="green" stroke="green" stroke-width="0.342684" points="1049.02,-22.6172 1058.39,-17.6689 1047.98,-15.695 1049.02,-22.6172"/>
</g>
<!-- &#45;18&#45;&gt;3 -->
<g id="edge6" class="edge"><title>&#45;18&#45;&gt;3</title>
<path fill="none" stroke="green" stroke-width="0.136264" d="M872.832,-81.0177C868.47,-75.7191 862.143,-69.2378 855,-65.6985 796.8,-36.8624 597.136,-21.8566 526.23,-17.3417"/>
<polygon fill="green" stroke="green" stroke-width="0.136264" points="526.195,-13.8328 515.997,-16.7066 525.761,-20.8194 526.195,-13.8328"/>
</g>
<!-- &#45;19 -->
<g id="node19" class="node"><title>&#45;19</title>
<polygon fill="lightgray" stroke="black" points="803.5,-99.4472 774.5,-99.4472 774.5,-81.4472 803.5,-81.4472 803.5,-99.4472"/>
<text text-anchor="middle" x="789" y="-88.2472" font-family="Times,serif" font-size="9.00">&#45;19</text>
</g>
<!-- &#45;19&#45;&gt;0 -->
<g id="edge34" class="edge"><title>&#45;19&#45;&gt;0</title>
<path fill="none" stroke="red" stroke-width="0.181789" d="M781.641,-81.2084C777.271,-76.483 771.521,-70.5458 766,-65.6985 751.075,-52.5941 732.937,-39.2399 719.299,-29.6558"/>
<polygon fill="red" stroke="red" stroke-width="0.181789" points="721.277,-26.7681 711.066,-23.9426 717.287,-32.5192 721.277,-26.7681"/>
</g>
<!-- &#45;19&#45;&gt;1 -->
<g id="edge27" class="edge"><title>&#45;19&#45;&gt;1</title>
<path fill="none" stroke="red" stroke-width="0.362229" d="M783.576,-81.3765C779.446,-75.9477 773.247,-69.1706 766,-65.6985 719.183,-43.2667 351.616,-22.4198 251.89,-17.1341"/>
<polygon fill="red" stroke="red" stroke-width="0.362229" points="252.004,-13.6354 241.834,-16.606 251.637,-20.6258 252.004,-13.6354"/>
</g>
<!-- &#45;19&#45;&gt;2 -->
<g id="edge13" class="edge"><title>&#45;19&#45;&gt;2</title>
<path fill="none" stroke="green" stroke-width="0.153326" d="M795.227,-81.1335C799.614,-75.8839 805.947,-69.4136 813,-65.6985 891.471,-24.3673 999.371,-17.0218 1047.75,-15.9103"/>
<polygon fill="green" stroke="green" stroke-width="0.153326" points="1047.98,-19.4071 1057.93,-15.7509 1047.87,-12.408 1047.98,-19.4071"/>
</g>
<!-- &#45;20 -->
<g id="node20" class="node"><title>&#45;20</title>
<polygon fill="lightgray" stroke="black" points="1187.5,-99.4472 1158.5,-99.4472 1158.5,-81.4472 1187.5,-81.4472 1187.5,-99.4472"/>
<text text-anchor="middle" x="1173" y="-88.2472" font-family="Times,serif" font-size="9.00">&#45;20</text>
</g>
<!-- &#45;20&#45;&gt;2 -->
<g id="edge1" class="edge"><title>&#45;20&#45;&gt;2</title>
<path fill="none" stroke="green" stroke-width="0.222485" d="M1165.37,-81.1127C1160.83,-76.3555 1154.83,-70.4183 1149,-65.6985 1131.63,-51.6423 1110.22,-37.8835 1094.56,-28.3942"/>
<polygon fill="green" stroke="green" stroke-width="0.222485" points="1096.02,-25.1888 1085.63,-23.0729 1092.43,-31.2009 1096.02,-25.1888"/>
</g>
<!-- &#45;21 -->
<g id="node21" class="node"><title>&#45;21</title>
<polygon fill="lightgray" stroke="black" points="1030.5,-99.4472 1001.5,-99.4472 1001.5,-81.4472 1030.5,-81.4472 1030.5,-99.4472"/>
<text text-anchor="middle" x="1016" y="-88.2472" font-family="Times,serif" font-size="9.00">&#45;21</text>
</g>
<!-- &#45;21&#45;&gt;0 -->
<g id="edge19" class="edge"><title>&#45;21&#45;&gt;0</title>
<path fill="none" stroke="red" stroke-width="0.381494" d="M1010.13,-81.0821C1005.97,-75.8107 999.907,-69.3355 993,-65.6985 902.765,-18.1824 777.319,-14.2761 724.28,-15"/>
<polygon fill="red" stroke="red" stroke-width="0.381494" points="724.025,-11.5044 714.1,-15.2107 724.17,-18.5029 724.025,-11.5044"/>
</g>
<!-- &#45;21&#45;&gt;2 -->
<g id="edge38" class="edge"><title>&#45;21&#45;&gt;2</title>
<path fill="none" stroke="green" stroke-width="0.115223" d="M1022.32,-81.2897C1030.85,-70.2771 1046.31,-50.3083 1057.92,-35.3151"/>
<polygon fill="green" stroke="green" stroke-width="0.115223" points="1060.88,-37.2168 1064.23,-27.1675 1055.34,-32.9306 1060.88,-37.2168"/>
</g>
<!-- &#45;22 -->
<g id="node22" class="node"><title>&#45;22</title>
<polygon fill="lightgray" stroke="black" points="583.5,-169.196 554.5,-169.196 554.5,-151.196 583.5,-151.196 583.5,-169.196"/>
<text text-anchor="middle" x="569" y="-157.996" font-family="Times,serif" font-size="9.00">&#45;22</text>
</g>
<!-- &#45;22&#45;&gt;1 -->
<g id="edge21" class="edge"><title>&#45;22&#45;&gt;1</title>
<path fill="none" stroke="red" stroke-width="0.467085" d="M554.386,-153.909C551.313,-152.915 548.071,-151.952 545,-151.196 447.939,-127.314 409.135,-165.909 323,-115.196 298.865,-100.986 303.29,-86.0033 284,-65.6985 272.311,-53.3946 257.916,-40.8236 246.517,-31.3835"/>
<polygon fill="red" stroke="red" stroke-width="0.467085" points="248.441,-28.4364 238.478,-24.8313 244.018,-33.8623 248.441,-28.4364"/>
</g>
<!-- &#45;22&#45;&gt;2 -->
<g id="edge35" class="edge"><title>&#45;22&#45;&gt;2</title>
<path fill="none" stroke="red" stroke-width="0.128717" d="M583.56,-153.667C586.638,-152.69 589.895,-151.795 593,-151.196 659.012,-138.457 1150.9,-164.129 1197,-115.196 1212.09,-99.1843 1209.32,-83.9257 1197,-65.6985 1175,-33.1396 1127.84,-21.8429 1098.43,-17.9258"/>
<polygon fill="red" stroke="red" stroke-width="0.128717" points="1098.45,-14.4058 1088.12,-16.7569 1097.67,-21.3613 1098.45,-14.4058"/>
</g>
<!-- 3261 -->
<g id="node31" class="node"><title>3261</title>
<ellipse fill="white" stroke="black" cx="446" cy="-90.4472" rx="25" ry="25"/>
<text text-anchor="middle" x="446" y="-88.2472" font-family="Times,serif" font-size="9.00">3261</text>
</g>
<!-- &#45;22&#45;&gt;3261 -->
<g id="edge5" class="edge"><title>&#45;22&#45;&gt;3261</title>
<path fill="none" stroke="red" stroke-width="0.209645" d="M554.469,-152.83C536.554,-144.797 505.365,-130.209 480,-115.196 478.037,-114.034 476.038,-112.796 474.044,-111.518"/>
<polygon fill="red" stroke="red" stroke-width="0.209645" points="475.705,-108.418 465.445,-105.776 471.818,-114.24 475.705,-108.418"/>
</g>
<!-- &#45;23 -->
<g id="node23" class="node"><title>&#45;23</title>
<polygon fill="lightgray" stroke="black" points="720.5,-169.196 691.5,-169.196 691.5,-151.196 720.5,-151.196 720.5,-169.196"/>
<text text-anchor="middle" x="706" y="-157.996" font-family="Times,serif" font-size="9.00">&#45;23</text>
</g>
<!-- &#45;24 -->
<g id="node24" class="node"><title>&#45;24</title>
<polygon fill="lightgray" stroke="black" points="756.5,-99.4472 727.5,-99.4472 727.5,-81.4472 756.5,-81.4472 756.5,-99.4472"/>
<text text-anchor="middle" x="742" y="-88.2472" font-family="Times,serif" font-size="9.00">&#45;24</text>
</g>
<!-- &#45;24&#45;&gt;0 -->
<g id="edge39" class="edge"><title>&#45;24&#45;&gt;0</title>
<path fill="none" stroke="green" stroke-width="1.0267" d="M737.234,-81.2897C731.028,-70.6672 719.953,-51.7116 711.314,-36.9263"/>
<polygon fill="green" stroke="green" stroke-width="1.0267" points="714.132,-34.8106 706.065,-27.9419 708.088,-38.3419 714.132,-34.8106"/>
</g>
<!-- 1&#45;&gt;1 -->
<g id="edge25" class="edge"><title>1&#45;&gt;1</title>
<path fill="none" stroke="red" stroke-width="0.560724" d="M237.428,-25.6755C248.039,-32.0439 259.849,-28.4352 259.849,-14.8492 259.849,-5.50891 254.267,-0.884351 247.33,-0.975566"/>
<polygon fill="red" stroke="red" stroke-width="0.560724" points="245.956,2.26363 237.428,-4.02295 248.015,-4.42672 245.956,2.26363"/>
</g>
<!-- 2&#45;&gt;2 -->
<g id="edge41" class="edge"><title>2&#45;&gt;2</title>
<path fill="none" stroke="green" stroke-width="0.21735" d="M1083.43,-25.6755C1094.04,-32.0439 1105.85,-28.4352 1105.85,-14.8492 1105.85,-5.50891 1100.27,-0.884351 1093.33,-0.975566"/>
<polygon fill="green" stroke="green" stroke-width="0.21735" points="1091.96,2.26363 1083.43,-4.02295 1094.01,-4.42672 1091.96,2.26363"/>
</g>
<!-- 3&#45;&gt;3 -->
<g id="edge14" class="edge"><title>3&#45;&gt;3</title>
<path fill="none" stroke="green" stroke-width="0.14575" d="M511.428,-25.6755C522.039,-32.0439 533.849,-28.4352 533.849,-14.8492 533.849,-5.50891 528.267,-0.884351 521.33,-0.975566"/>
<polygon fill="green" stroke="green" stroke-width="0.14575" points="519.956,2.26363 511.428,-4.02295 522.015,-4.42672 519.956,2.26363"/>
</g>
<!-- 1924&#45;&gt;0 -->
<g id="edge9" class="edge"><title>1924&#45;&gt;0</title>
<path fill="none" stroke="red" stroke-width="0.157097" d="M660.203,-69.7243C667.773,-59.2125 677.063,-46.3122 684.654,-35.7706"/>
<polygon fill="red" stroke="red" stroke-width="0.157097" points="687.553,-37.7348 690.556,-27.5746 681.872,-33.6442 687.553,-37.7348"/>
</g>
<!-- 1785&#45;&gt;2 -->
<g id="edge32" class="edge"><title>1785&#45;&gt;2</title>
<path fill="none" stroke="green" stroke-width="0.217339" d="M1073,-65.3485C1073,-57.1867 1073,-48.0749 1073,-39.9156"/>
<polygon fill="green" stroke="green" stroke-width="0.217339" points="1076.5,-39.8982 1073,-29.8983 1069.5,-39.8983 1076.5,-39.8982"/>
</g>
<!-- 3261&#45;&gt;3 -->
<g id="edge3" class="edge"><title>3261&#45;&gt;3</title>
<path fill="none" stroke="red" stroke-width="0.607454" d="M460.451,-70.1102C468.407,-59.4628 478.262,-46.2765 486.263,-35.5691"/>
<polygon fill="red" stroke="red" stroke-width="0.607454" points="489.284,-37.3737 492.467,-27.2682 483.677,-33.1834 489.284,-37.3737"/>
</g>
<!-- 1439 -->
<g id="node32" class="node"><title>1439</title>
<ellipse fill="white" stroke="black" cx="1269" cy="-90.4472" rx="25" ry="25"/>
<text text-anchor="middle" x="1269" y="-88.2472" font-family="Times,serif" font-size="9.00">1439</text>
</g>
<!-- 1439&#45;&gt;2 -->
<g id="edge44" class="edge"><title>1439&#45;&gt;2</title>
<path fill="none" stroke="red" stroke-width="0.301699" d="M1248.86,-75.9223C1242.94,-72.2984 1236.35,-68.5889 1230,-65.6985 1184.83,-45.1359 1128.76,-29.5443 1097.32,-21.6333"/>
<polygon fill="red" stroke="red" stroke-width="0.301699" points="1097.83,-18.1548 1087.28,-19.1598 1096.15,-24.9514 1097.83,-18.1548"/>
</g>
</g>
</svg>
