<?xml version="1.0" encoding="UTF-8" standalone="no"?>
<!DOCTYPE svg PUBLIC "-//W3C//DTD SVG 1.1//EN"
 "http://www.w3.org/Graphics/SVG/1.1/DTD/svg11.dtd">
<!-- Generated by graphviz version 2.38.0 (20140413.2041)
 -->
<!-- Title: %3 Pages: 1 -->
<svg width="1438pt" height="177pt"
 viewBox="0.00 0.00 1438.14 177.20" xmlns="http://www.w3.org/2000/svg" xmlns:xlink="http://www.w3.org/1999/xlink">
<g id="graph0" class="graph" transform="scale(1 1) rotate(0) translate(4 173.196)">
<title>%3</title>
<polygon fill="white" stroke="none" points="-4,4 -4,-173.196 1434.14,-173.196 1434.14,4 -4,4"/>
<!-- &#45;1 -->
<g id="node1" class="node"><title>&#45;1</title>
<polygon fill="lightgray" stroke="black" points="239.138,-99.4472 215.138,-99.4472 215.138,-81.4472 239.138,-81.4472 239.138,-99.4472"/>
<text text-anchor="middle" x="227.138" y="-88.2472" font-family="Times,serif" font-size="9.00">&#45;1</text>
</g>
<!-- 0 -->
<g id="node25" class="node"><title>0</title>
<ellipse fill="lightblue" stroke="black" cx="466.138" cy="-14.8492" rx="14.7" ry="14.7"/>
<text text-anchor="middle" x="466.138" y="-12.6492" font-family="Times,serif" font-size="9.00">0</text>
</g>
<!-- &#45;1&#45;&gt;0 -->
<g id="edge11" class="edge"><title>&#45;1&#45;&gt;0</title>
<path fill="none" stroke="green" stroke-width="0.445484" d="M232.412,-81.2035C236.177,-75.9834 241.702,-69.5197 248.138,-65.6985 310.788,-28.5035 398.734,-19.053 441.223,-16.658"/>
<polygon fill="green" stroke="green" stroke-width="0.445484" points="441.417,-20.1528 451.238,-16.1792 441.082,-13.1608 441.417,-20.1528"/>
</g>
<!-- 1 -->
<g id="node26" class="node"><title>1</title>
<ellipse fill="lightblue" stroke="black" cx="730.138" cy="-14.8492" rx="14.7" ry="14.7"/>
<text text-anchor="middle" x="730.138" y="-12.6492" font-family="Times,serif" font-size="9.00">1</text>
</g>
<!-- &#45;1&#45;&gt;1 -->
<g id="edge13" class="edge"><title>&#45;1&#45;&gt;1</title>
<path fill="none" stroke="red" stroke-width="0.230086" d="M231.945,-81.408C235.648,-75.994 241.286,-69.2217 248.138,-65.6985 289.073,-44.6519 612.287,-23.1584 705.224,-17.364"/>
<polygon fill="red" stroke="red" stroke-width="0.230086" points="705.616,-20.8465 715.381,-16.7362 705.184,-13.8598 705.616,-20.8465"/>
</g>
<!-- 3 -->
<g id="node28" class="node"><title>3</title>
<ellipse fill="lightblue" stroke="black" cx="162.138" cy="-14.8492" rx="14.7" ry="14.7"/>
<text text-anchor="middle" x="162.138" y="-12.6492" font-family="Times,serif" font-size="9.00">3</text>
</g>
<!-- &#45;1&#45;&gt;3 -->
<g id="edge45" class="edge"><title>&#45;1&#45;&gt;3</title>
<path fill="none" stroke="green" stroke-width="0.663228" d="M219.934,-81.2897C210.005,-70.0479 191.834,-49.4731 178.509,-34.3854"/>
<polygon fill="green" stroke="green" stroke-width="0.663228" points="180.931,-31.8404 171.688,-26.6619 175.684,-36.4742 180.931,-31.8404"/>
</g>
<!-- &#45;2 -->
<g id="node2" class="node"><title>&#45;2</title>
<polygon fill="lightgray" stroke="black" points="784.138,-99.4472 760.138,-99.4472 760.138,-81.4472 784.138,-81.4472 784.138,-99.4472"/>
<text text-anchor="middle" x="772.138" y="-88.2472" font-family="Times,serif" font-size="9.00">&#45;2</text>
</g>
<!-- &#45;2&#45;&gt;0 -->
<g id="edge2" class="edge"><title>&#45;2&#45;&gt;0</title>
<path fill="none" stroke="red" stroke-width="0.730822" d="M766.928,-81.0931C763.19,-75.8264 757.671,-69.3523 751.138,-65.6985 706.463,-40.7116 552.275,-23.9142 491.27,-18.1042"/>
<polygon fill="red" stroke="red" stroke-width="0.730822" points="491.292,-14.5912 481.01,-17.1477 490.642,-21.5609 491.292,-14.5912"/>
</g>
<!-- 2 -->
<g id="node27" class="node"><title>2</title>
<ellipse fill="lightblue" stroke="black" cx="1125.14" cy="-14.8492" rx="14.7" ry="14.7"/>
<text text-anchor="middle" x="1125.14" y="-12.6492" font-family="Times,serif" font-size="9.00">2</text>
</g>
<!-- &#45;2&#45;&gt;2 -->
<g id="edge35" class="edge"><title>&#45;2&#45;&gt;2</title>
<path fill="none" stroke="green" stroke-width="0.301831" stroke-dasharray="1,5" d="M777.655,-81.0405C781.595,-75.7516 787.382,-69.2724 794.138,-65.6985 847.543,-37.4497 1032.55,-22.2041 1100.15,-17.4743"/>
<polygon fill="green" stroke="green" stroke-width="0.301831" points="1100.57,-20.954 1110.31,-16.7817 1100.09,-13.9703 1100.57,-20.954"/>
</g>
<!-- &#45;3 -->
<g id="node3" class="node"><title>&#45;3</title>
<polygon fill="lightgray" stroke="black" points="1430.14,-99.4472 1406.14,-99.4472 1406.14,-81.4472 1430.14,-81.4472 1430.14,-99.4472"/>
<text text-anchor="middle" x="1418.14" y="-88.2472" font-family="Times,serif" font-size="9.00">&#45;3</text>
</g>
<!-- &#45;3&#45;&gt;2 -->
<g id="edge23" class="edge"><title>&#45;3&#45;&gt;2</title>
<path fill="none" stroke="red" stroke-width="0.371269" stroke-dasharray="1,5" d="M1412.92,-81.1105C1409.18,-75.8512 1403.66,-69.3787 1397.14,-65.6985 1315.71,-19.7246 1200.74,-14.8513 1150.4,-15.1502"/>
<polygon fill="red" stroke="red" stroke-width="0.371269" points="1150.08,-11.6541 1140.13,-15.2912 1150.18,-18.6535 1150.08,-11.6541"/>
</g>
<!-- &#45;4 -->
<g id="node4" class="node"><title>&#45;4</title>
<polygon fill="lightgray" stroke="black" points="281.138,-99.4472 257.138,-99.4472 257.138,-81.4472 281.138,-81.4472 281.138,-99.4472"/>
<text text-anchor="middle" x="269.138" y="-88.2472" font-family="Times,serif" font-size="9.00">&#45;4</text>
</g>
<!-- &#45;4&#45;&gt;0 -->
<g id="edge38" class="edge"><title>&#45;4&#45;&gt;0</title>
<path fill="none" stroke="red" stroke-width="0.286097" d="M274.478,-81.3113C278.271,-76.1367 283.802,-69.6832 290.138,-65.6985 338.377,-35.3625 405.461,-23.0622 441.272,-18.4183"/>
<polygon fill="red" stroke="red" stroke-width="0.286097" points="441.815,-21.8784 451.326,-17.2114 440.98,-14.9283 441.815,-21.8784"/>
</g>
<!-- &#45;4&#45;&gt;1 -->
<g id="edge51" class="edge"><title>&#45;4&#45;&gt;1</title>
<path fill="none" stroke="green" stroke-width="0.221879" stroke-dasharray="1,5" d="M273.956,-81.4286C277.663,-76.0243 283.303,-69.2551 290.138,-65.6985 327.09,-46.4715 616.839,-24.071 704.863,-17.6511"/>
<polygon fill="green" stroke="green" stroke-width="0.221879" points="705.293,-21.1292 715.014,-16.9165 704.788,-14.1474 705.293,-21.1292"/>
</g>
<!-- &#45;4&#45;&gt;3 -->
<g id="edge20" class="edge"><title>&#45;4&#45;&gt;3</title>
<path fill="none" stroke="red" stroke-width="0.339159" d="M263.087,-81.3686C259.167,-76.4709 253.76,-70.3006 248.138,-65.6985 228.421,-49.5565 202.839,-35.4516 184.717,-26.404"/>
<polygon fill="red" stroke="red" stroke-width="0.339159" points="186.024,-23.1477 175.501,-21.917 182.96,-29.4414 186.024,-23.1477"/>
</g>
<!-- &#45;5 -->
<g id="node5" class="node"><title>&#45;5</title>
<polygon fill="lightgray" stroke="black" points="197.138,-99.4472 173.138,-99.4472 173.138,-81.4472 197.138,-81.4472 197.138,-99.4472"/>
<text text-anchor="middle" x="185.138" y="-88.2472" font-family="Times,serif" font-size="9.00">&#45;5</text>
</g>
<!-- &#45;5&#45;&gt;0 -->
<g id="edge31" class="edge"><title>&#45;5&#45;&gt;0</title>
<path fill="none" stroke="red" stroke-width="1.23351" d="M190.369,-81.1281C194.115,-75.8761 199.635,-69.4053 206.138,-65.6985 283.375,-21.6716 392.333,-15.7176 440.979,-15.4371"/>
<polygon fill="red" stroke="red" stroke-width="1.23351" points="441.197,-18.9375 451.205,-15.4595 441.213,-11.9375 441.197,-18.9375"/>
</g>
<!-- &#45;5&#45;&gt;3 -->
<g id="edge40" class="edge"><title>&#45;5&#45;&gt;3</title>
<path fill="none" stroke="red" stroke-width="0.610607" d="M182.589,-81.2897C179.427,-71.1707 173.901,-53.4899 169.39,-39.0555"/>
<polygon fill="red" stroke="red" stroke-width="0.610607" points="172.657,-37.7741 166.333,-29.2734 165.976,-39.8621 172.657,-37.7741"/>
</g>
<!-- &#45;6 -->
<g id="node6" class="node"><title>&#45;6</title>
<polygon fill="lightgray" stroke="black" points="1215.14,-99.4472 1191.14,-99.4472 1191.14,-81.4472 1215.14,-81.4472 1215.14,-99.4472"/>
<text text-anchor="middle" x="1203.14" y="-88.2472" font-family="Times,serif" font-size="9.00">&#45;6</text>
</g>
<!-- &#45;6&#45;&gt;2 -->
<g id="edge9" class="edge"><title>&#45;6&#45;&gt;2</title>
<path fill="none" stroke="green" stroke-width="0.455151" d="M1194.49,-81.2897C1182.09,-69.5824 1158.95,-47.7533 1142.83,-32.5405"/>
<polygon fill="green" stroke="green" stroke-width="0.455151" points="1145.23,-29.9944 1135.55,-25.6772 1140.43,-35.0857 1145.23,-29.9944"/>
</g>
<!-- &#45;7 -->
<g id="node7" class="node"><title>&#45;7</title>
<polygon fill="lightgray" stroke="black" points="742.138,-99.4472 718.138,-99.4472 718.138,-81.4472 742.138,-81.4472 742.138,-99.4472"/>
<text text-anchor="middle" x="730.138" y="-88.2472" font-family="Times,serif" font-size="9.00">&#45;7</text>
</g>
<!-- &#45;7&#45;&gt;1 -->
<g id="edge52" class="edge"><title>&#45;7&#45;&gt;1</title>
<path fill="none" stroke="green" stroke-width="0.362425" d="M730.138,-81.2897C730.138,-71.3882 730.138,-54.2466 730.138,-39.9908"/>
<polygon fill="green" stroke="green" stroke-width="0.362425" points="733.638,-39.8196 730.138,-29.8196 726.638,-39.8196 733.638,-39.8196"/>
</g>
<!-- &#45;8 -->
<g id="node8" class="node"><title>&#45;8</title>
<polygon fill="lightgray" stroke="black" points="566.138,-99.4472 542.138,-99.4472 542.138,-81.4472 566.138,-81.4472 566.138,-99.4472"/>
<text text-anchor="middle" x="554.138" y="-88.2472" font-family="Times,serif" font-size="9.00">&#45;8</text>
</g>
<!-- &#45;8&#45;&gt;0 -->
<g id="edge54" class="edge"><title>&#45;8&#45;&gt;0</title>
<path fill="none" stroke="red" stroke-width="0.27418" stroke-dasharray="1,5" d="M547.529,-81.148C543.575,-76.4026 538.325,-70.4654 533.138,-65.6985 518.514,-52.2592 500.355,-38.9285 486.633,-29.4387"/>
<polygon fill="red" stroke="red" stroke-width="0.27418" points="488.574,-26.5262 478.337,-23.7946 484.636,-32.3136 488.574,-26.5262"/>
</g>
<!-- &#45;8&#45;&gt;1 -->
<g id="edge8" class="edge"><title>&#45;8&#45;&gt;1</title>
<path fill="none" stroke="green" stroke-width="0.120853" d="M559.862,-81.3965C563.89,-76.2579 569.696,-69.8124 576.138,-65.6985 617.24,-39.4505 673.385,-25.8816 705.29,-19.8635"/>
<polygon fill="green" stroke="green" stroke-width="0.120853" points="706.271,-23.2439 715.5,-18.0414 705.041,-16.3528 706.271,-23.2439"/>
</g>
<!-- &#45;9 -->
<g id="node9" class="node"><title>&#45;9</title>
<polygon fill="lightgray" stroke="black" points="323.138,-99.4472 299.138,-99.4472 299.138,-81.4472 323.138,-81.4472 323.138,-99.4472"/>
<text text-anchor="middle" x="311.138" y="-88.2472" font-family="Times,serif" font-size="9.00">&#45;9</text>
</g>
<!-- &#45;9&#45;&gt;0 -->
<g id="edge37" class="edge"><title>&#45;9&#45;&gt;0</title>
<path fill="none" stroke="red" stroke-width="0.482839" d="M316.93,-81.0227C320.752,-75.9949 326.148,-69.8093 332.138,-65.6985 366.618,-42.0361 413.752,-27.9285 441.95,-21.0478"/>
<polygon fill="red" stroke="red" stroke-width="0.482839" points="442.82,-24.4389 451.765,-18.7597 441.231,-17.6217 442.82,-24.4389"/>
</g>
<!-- &#45;10 -->
<g id="node10" class="node"><title>&#45;10</title>
<polygon fill="lightgray" stroke="black" points="154.638,-99.4472 125.638,-99.4472 125.638,-81.4472 154.638,-81.4472 154.638,-99.4472"/>
<text text-anchor="middle" x="140.138" y="-88.2472" font-family="Times,serif" font-size="9.00">&#45;10</text>
</g>
<!-- &#45;10&#45;&gt;0 -->
<g id="edge26" class="edge"><title>&#45;10&#45;&gt;0</title>
<path fill="none" stroke="green" stroke-width="0.116928" d="M146.334,-81.0733C150.708,-75.7982 157.037,-69.3221 164.138,-65.6985 257.795,-17.9043 387.091,-14.2121 440.981,-14.9998"/>
<polygon fill="green" stroke="green" stroke-width="0.116928" points="440.937,-18.4995 451.01,-15.2134 441.086,-11.5011 440.937,-18.4995"/>
</g>
<!-- &#45;10&#45;&gt;3 -->
<g id="edge12" class="edge"><title>&#45;10&#45;&gt;3</title>
<path fill="none" stroke="red" stroke-width="0.267132" d="M142.577,-81.2897C145.602,-71.1707 150.887,-53.4899 155.201,-39.0555"/>
<polygon fill="red" stroke="red" stroke-width="0.267132" points="158.615,-39.8569 158.126,-29.2734 151.908,-37.852 158.615,-39.8569"/>
</g>
<!-- &#45;11 -->
<g id="node11" class="node"><title>&#45;11</title>
<polygon fill="lightgray" stroke="black" points="699.638,-99.4472 670.638,-99.4472 670.638,-81.4472 699.638,-81.4472 699.638,-99.4472"/>
<text text-anchor="middle" x="685.138" y="-88.2472" font-family="Times,serif" font-size="9.00">&#45;11</text>
</g>
<!-- &#45;11&#45;&gt;0 -->
<g id="edge16" class="edge"><title>&#45;11&#45;&gt;0</title>
<path fill="none" stroke="red" stroke-width="0.467153" d="M670.446,-83.5414C657.939,-78.5813 639.458,-71.4093 623.138,-65.6985 576.295,-49.3061 520.814,-32.2308 489.933,-22.9313"/>
<polygon fill="red" stroke="red" stroke-width="0.467153" points="490.674,-19.4996 480.09,-19.9801 488.663,-26.2047 490.674,-19.4996"/>
</g>
<!-- &#45;11&#45;&gt;2 -->
<g id="edge48" class="edge"><title>&#45;11&#45;&gt;2</title>
<path fill="none" stroke="red" stroke-width="0.17572" d="M690.903,-81.4351C695.263,-76.034 701.748,-69.2658 709.138,-65.6985 778.911,-32.0204 1020.61,-19.8739 1099.8,-16.7448"/>
<polygon fill="red" stroke="red" stroke-width="0.17572" points="1100.41,-20.2244 1110.27,-16.3471 1100.14,-13.2295 1100.41,-20.2244"/>
</g>
<!-- &#45;12 -->
<g id="node12" class="node"><title>&#45;12</title>
<polygon fill="lightgray" stroke="black" points="831.638,-99.4472 802.638,-99.4472 802.638,-81.4472 831.638,-81.4472 831.638,-99.4472"/>
<text text-anchor="middle" x="817.138" y="-88.2472" font-family="Times,serif" font-size="9.00">&#45;12</text>
</g>
<!-- &#45;12&#45;&gt;1 -->
<g id="edge18" class="edge"><title>&#45;12&#45;&gt;1</title>
<path fill="none" stroke="green" stroke-width="0.274068" d="M809.351,-81.3035C804.756,-76.6099 798.756,-70.6727 793.138,-65.6985 779.055,-53.2273 762.324,-40.0602 749.645,-30.3921"/>
<polygon fill="green" stroke="green" stroke-width="0.274068" points="751.684,-27.5465 741.596,-24.3094 747.464,-33.1311 751.684,-27.5465"/>
</g>
<!-- &#45;13 -->
<g id="node13" class="node"><title>&#45;13</title>
<polygon fill="lightgray" stroke="black" points="1324.64,-169.196 1295.64,-169.196 1295.64,-151.196 1324.64,-151.196 1324.64,-169.196"/>
<text text-anchor="middle" x="1310.14" y="-157.996" font-family="Times,serif" font-size="9.00">&#45;13</text>
</g>
<!-- &#45;14 -->
<g id="node14" class="node"><title>&#45;14</title>
<polygon fill="lightgray" stroke="black" points="1141.64,-169.196 1112.64,-169.196 1112.64,-151.196 1141.64,-151.196 1141.64,-169.196"/>
<text text-anchor="middle" x="1127.14" y="-157.996" font-family="Times,serif" font-size="9.00">&#45;14</text>
</g>
<!-- &#45;14&#45;&gt;1 -->
<g id="edge56" class="edge"><title>&#45;14&#45;&gt;1</title>
<path fill="none" stroke="green" stroke-width="0.129972" d="M1113.5,-151.104C1099.51,-142.638 1077.29,-128.723 1059.14,-115.196 1031.96,-94.9473 1031.74,-80.2614 1001.14,-65.6985 917.207,-25.7548 804.565,-17.7284 755.147,-16.1797"/>
<polygon fill="green" stroke="green" stroke-width="0.129972" points="755.143,-12.6786 745.059,-15.9284 754.968,-19.6764 755.143,-12.6786"/>
</g>
<!-- &#45;14&#45;&gt;2 -->
<g id="edge17" class="edge"><title>&#45;14&#45;&gt;2</title>
<path fill="none" stroke="green" stroke-width="0.322592" stroke-dasharray="1,5" d="M1141.83,-157.442C1164.12,-153.902 1205.81,-143.641 1224.14,-115.196 1236.06,-96.7045 1235.68,-84.4281 1224.14,-65.6985 1208.03,-39.5563 1173.54,-26.6365 1149.84,-20.6123"/>
<polygon fill="green" stroke="green" stroke-width="0.322592" points="1150.35,-17.1372 1139.82,-18.3069 1148.78,-23.9591 1150.35,-17.1372"/>
</g>
<!-- &#45;14&#45;&gt;3 -->
<g id="edge33" class="edge"><title>&#45;14&#45;&gt;3</title>
<path fill="none" stroke="green" stroke-width="0.504718" d="M1112.63,-159.13C991.51,-158.511 152.208,-152.87 116.138,-115.196 100.925,-99.3058 108.129,-86.1876 116.138,-65.6985 121.497,-51.9886 132.59,-39.7823 142.54,-30.8799"/>
<polygon fill="green" stroke="green" stroke-width="0.504718" points="145.067,-33.3279 150.477,-24.2185 140.567,-27.9659 145.067,-33.3279"/>
</g>
<!-- 1785 -->
<g id="node30" class="node"><title>1785</title>
<ellipse fill="white" stroke="black" cx="1296.14" cy="-90.4472" rx="25" ry="25"/>
<text text-anchor="middle" x="1296.14" y="-88.2472" font-family="Times,serif" font-size="9.00">1785</text>
</g>
<!-- &#45;14&#45;&gt;1785 -->
<g id="edge44" class="edge"><title>&#45;14&#45;&gt;1785</title>
<path fill="none" stroke="green" stroke-width="0.245922" d="M1141.97,-155.33C1166.55,-148.673 1216.98,-133.939 1257.14,-115.196 1260.5,-113.629 1263.93,-111.842 1267.3,-109.968"/>
<polygon fill="green" stroke="green" stroke-width="0.245922" points="1269.1,-112.967 1275.96,-104.895 1265.56,-106.926 1269.1,-112.967"/>
</g>
<!-- &#45;15 -->
<g id="node15" class="node"><title>&#45;15</title>
<polygon fill="lightgray" stroke="black" points="972.638,-99.4472 943.638,-99.4472 943.638,-81.4472 972.638,-81.4472 972.638,-99.4472"/>
<text text-anchor="middle" x="958.138" y="-88.2472" font-family="Times,serif" font-size="9.00">&#45;15</text>
</g>
<!-- &#45;15&#45;&gt;1 -->
<g id="edge19" class="edge"><title>&#45;15&#45;&gt;1</title>
<path fill="none" stroke="red" stroke-width="0.886943" d="M952.18,-81.2412C947.98,-76.0371 941.913,-69.5769 935.138,-65.6985 876.322,-32.0246 795.432,-20.9865 755.104,-17.4544"/>
<polygon fill="red" stroke="red" stroke-width="0.886943" points="755.329,-13.9613 745.084,-16.6606 754.776,-20.9395 755.329,-13.9613"/>
</g>
<!-- &#45;16 -->
<g id="node16" class="node"><title>&#45;16</title>
<polygon fill="lightgray" stroke="black" points="613.638,-99.4472 584.638,-99.4472 584.638,-81.4472 613.638,-81.4472 613.638,-99.4472"/>
<text text-anchor="middle" x="599.138" y="-88.2472" font-family="Times,serif" font-size="9.00">&#45;16</text>
</g>
<!-- &#45;16&#45;&gt;0 -->
<g id="edge22" class="edge"><title>&#45;16&#45;&gt;0</title>
<path fill="none" stroke="green" stroke-width="0.434395" d="M592.181,-81.2248C587.686,-76.273 581.504,-70.0964 575.138,-65.6985 547.969,-46.9292 512.597,-32.2741 489.634,-23.8451"/>
<polygon fill="green" stroke="green" stroke-width="0.434395" points="490.625,-20.4826 480.03,-20.418 488.272,-27.0754 490.625,-20.4826"/>
</g>
<!-- &#45;16&#45;&gt;1 -->
<g id="edge36" class="edge"><title>&#45;16&#45;&gt;1</title>
<path fill="none" stroke="red" stroke-width="0.23528" d="M607.87,-81.3939C613.424,-76.5057 620.908,-70.3366 628.138,-65.6985 653.801,-49.236 685.692,-34.4676 706.915,-25.3568"/>
<polygon fill="red" stroke="red" stroke-width="0.23528" points="708.548,-28.4666 716.402,-21.356 705.828,-22.0166 708.548,-28.4666"/>
</g>
<!-- &#45;17 -->
<g id="node17" class="node"><title>&#45;17</title>
<polygon fill="lightgray" stroke="black" points="480.638,-169.196 451.638,-169.196 451.638,-151.196 480.638,-151.196 480.638,-169.196"/>
<text text-anchor="middle" x="466.138" y="-157.996" font-family="Times,serif" font-size="9.00">&#45;17</text>
</g>
<!-- &#45;17&#45;&gt;0 -->
<g id="edge5" class="edge"><title>&#45;17&#45;&gt;0</title>
<path fill="none" stroke="red" stroke-width="0.19738" d="M466.138,-151.078C466.138,-130.007 466.138,-72.9222 466.138,-40.0494"/>
<polygon fill="red" stroke="red" stroke-width="0.19738" points="469.638,-39.9164 466.138,-29.9164 462.638,-39.9164 469.638,-39.9164"/>
</g>
<!-- &#45;17&#45;&gt;1 -->
<g id="edge50" class="edge"><title>&#45;17&#45;&gt;1</title>
<path fill="none" stroke="red" stroke-width="0.673369" d="M480.721,-159.098C561.056,-158.413 947.284,-153.149 982.138,-115.196 997.018,-98.9931 996.103,-82.6965 982.138,-65.6985 953.547,-30.8973 813.2,-19.9803 755.244,-16.9226"/>
<polygon fill="red" stroke="red" stroke-width="0.673369" points="755.277,-13.4201 745.117,-16.425 754.934,-20.4116 755.277,-13.4201"/>
</g>
<!-- 1924 -->
<g id="node29" class="node"><title>1924</title>
<ellipse fill="white" stroke="black" cx="366.138" cy="-90.4472" rx="25" ry="25"/>
<text text-anchor="middle" x="366.138" y="-88.2472" font-family="Times,serif" font-size="9.00">1924</text>
</g>
<!-- &#45;17&#45;&gt;1924 -->
<g id="edge27" class="edge"><title>&#45;17&#45;&gt;1924</title>
<path fill="none" stroke="red" stroke-width="0.101098" d="M453.185,-150.923C439.61,-142.197 417.713,-127.971 399.138,-115.196 397.524,-114.086 395.873,-112.938 394.21,-111.772"/>
<polygon fill="red" stroke="red" stroke-width="0.101098" points="396.116,-108.833 385.934,-105.902 392.066,-114.542 396.116,-108.833"/>
</g>
<!-- &#45;18 -->
<g id="node18" class="node"><title>&#45;18</title>
<polygon fill="lightgray" stroke="black" points="437.638,-99.4472 408.638,-99.4472 408.638,-81.4472 437.638,-81.4472 437.638,-99.4472"/>
<text text-anchor="middle" x="423.138" y="-88.2472" font-family="Times,serif" font-size="9.00">&#45;18</text>
</g>
<!-- &#45;18&#45;&gt;0 -->
<g id="edge30" class="edge"><title>&#45;18&#45;&gt;0</title>
<path fill="none" stroke="red" stroke-width="0.299391" stroke-dasharray="1,5" d="M427.904,-81.2897C434.111,-70.6672 445.185,-51.7116 453.824,-36.9263"/>
<polygon fill="red" stroke="red" stroke-width="0.299391" points="457.05,-38.3419 459.073,-27.9419 451.006,-34.8106 457.05,-38.3419"/>
</g>
<!-- &#45;18&#45;&gt;2 -->
<g id="edge28" class="edge"><title>&#45;18&#45;&gt;2</title>
<path fill="none" stroke="green" stroke-width="0.342684" d="M437.795,-82.5648C450.337,-77.0089 469.024,-69.5106 486.138,-65.6985 606.521,-38.8832 997.544,-21.1302 1100.24,-16.8513"/>
<polygon fill="green" stroke="green" stroke-width="0.342684" points="1100.45,-20.346 1110.3,-16.4375 1100.16,-13.352 1100.45,-20.346"/>
</g>
<!-- &#45;18&#45;&gt;3 -->
<g id="edge7" class="edge"><title>&#45;18&#45;&gt;3</title>
<path fill="none" stroke="green" stroke-width="0.136264" d="M417.221,-81.1693C413.038,-75.9348 406.974,-69.4678 400.138,-65.6985 329.785,-26.9036 232.505,-18.2401 187.213,-16.3483"/>
<polygon fill="green" stroke="green" stroke-width="0.136264" points="187.227,-12.8469 177.114,-16.0054 186.989,-19.8429 187.227,-12.8469"/>
</g>
<!-- &#45;19 -->
<g id="node19" class="node"><title>&#45;19</title>
<polygon fill="lightgray" stroke="black" points="925.638,-99.4472 896.638,-99.4472 896.638,-81.4472 925.638,-81.4472 925.638,-99.4472"/>
<text text-anchor="middle" x="911.138" y="-88.2472" font-family="Times,serif" font-size="9.00">&#45;19</text>
</g>
<!-- &#45;19&#45;&gt;0 -->
<g id="edge41" class="edge"><title>&#45;19&#45;&gt;0</title>
<path fill="none" stroke="red" stroke-width="0.181789" d="M905.687,-81.4329C901.544,-76.0307 895.34,-69.2622 888.138,-65.6985 817.567,-30.7783 571.281,-19.4343 491.378,-16.6285"/>
<polygon fill="red" stroke="red" stroke-width="0.181789" points="491.355,-13.1258 481.243,-16.2877 491.12,-20.1219 491.355,-13.1258"/>
</g>
<!-- &#45;19&#45;&gt;1 -->
<g id="edge32" class="edge"><title>&#45;19&#45;&gt;1</title>
<path fill="none" stroke="red" stroke-width="0.362229" d="M905.092,-81.3895C900.855,-76.248 894.779,-69.8019 888.138,-65.6985 845.49,-39.3442 787.675,-25.7686 755.114,-19.7877"/>
<polygon fill="red" stroke="red" stroke-width="0.362229" points="755.551,-16.3111 745.099,-18.043 754.35,-23.2073 755.551,-16.3111"/>
</g>
<!-- &#45;19&#45;&gt;2 -->
<g id="edge14" class="edge"><title>&#45;19&#45;&gt;2</title>
<path fill="none" stroke="green" stroke-width="0.153326" d="M917.45,-81.2882C921.873,-76.1039 928.213,-69.6483 935.138,-65.6985 989.061,-34.942 1062.36,-22.7208 1100.22,-18.2262"/>
<polygon fill="green" stroke="green" stroke-width="0.153326" points="1100.79,-21.6851 1110.35,-17.1107 1100.02,-14.7272 1100.79,-21.6851"/>
</g>
<!-- &#45;20 -->
<g id="node20" class="node"><title>&#45;20</title>
<polygon fill="lightgray" stroke="black" points="1096.64,-99.4472 1067.64,-99.4472 1067.64,-81.4472 1096.64,-81.4472 1096.64,-99.4472"/>
<text text-anchor="middle" x="1082.14" y="-88.2472" font-family="Times,serif" font-size="9.00">&#45;20</text>
</g>
<!-- &#45;20&#45;&gt;1 -->
<g id="edge43" class="edge"><title>&#45;20&#45;&gt;1</title>
<path fill="none" stroke="green" stroke-width="0.77275" stroke-dasharray="1,5" d="M1074.32,-81.0616C1068.9,-75.7816 1061.22,-69.3044 1053.14,-65.6985 949.666,-19.5343 811.089,-15.0584 755.129,-15.323"/>
<polygon fill="green" stroke="green" stroke-width="0.77275" points="755.037,-11.8237 745.074,-15.4282 755.11,-18.8233 755.037,-11.8237"/>
</g>
<!-- &#45;20&#45;&gt;2 -->
<g id="edge1" class="edge"><title>&#45;20&#45;&gt;2</title>
<path fill="none" stroke="green" stroke-width="0.222485" d="M1086.9,-81.2897C1093.11,-70.6672 1104.19,-51.7116 1112.82,-36.9263"/>
<polygon fill="green" stroke="green" stroke-width="0.222485" points="1116.05,-38.3419 1118.07,-27.9419 1110.01,-34.8106 1116.05,-38.3419"/>
</g>
<!-- &#45;21 -->
<g id="node21" class="node"><title>&#45;21</title>
<polygon fill="lightgray" stroke="black" points="878.638,-99.4472 849.638,-99.4472 849.638,-81.4472 878.638,-81.4472 878.638,-99.4472"/>
<text text-anchor="middle" x="864.138" y="-88.2472" font-family="Times,serif" font-size="9.00">&#45;21</text>
</g>
<!-- &#45;21&#45;&gt;0 -->
<g id="edge21" class="edge"><title>&#45;21&#45;&gt;0</title>
<path fill="none" stroke="red" stroke-width="0.381494" d="M858.31,-81.0002C854.165,-75.6943 848.109,-69.2113 841.138,-65.6985 779.354,-34.5638 565.275,-20.9127 491.421,-17.0555"/>
<polygon fill="red" stroke="red" stroke-width="0.381494" points="491.36,-13.548 481.195,-16.5378 491.006,-20.539 491.36,-13.548"/>
</g>
<!-- &#45;21&#45;&gt;2 -->
<g id="edge46" class="edge"><title>&#45;21&#45;&gt;2</title>
<path fill="none" stroke="green" stroke-width="0.115223" d="M870.387,-81.175C874.784,-75.9429 881.118,-69.4765 888.138,-65.6985 958.6,-27.7775 1055.27,-18.6886 1100.25,-16.521"/>
<polygon fill="green" stroke="green" stroke-width="0.115223" points="1100.43,-20.0168 1110.28,-16.1137 1100.14,-13.0225 1100.43,-20.0168"/>
</g>
<!-- &#45;22 -->
<g id="node22" class="node"><title>&#45;22</title>
<polygon fill="lightgray" stroke="black" points="245.638,-169.196 216.638,-169.196 216.638,-151.196 245.638,-151.196 245.638,-169.196"/>
<text text-anchor="middle" x="231.138" y="-157.996" font-family="Times,serif" font-size="9.00">&#45;22</text>
</g>
<!-- &#45;22&#45;&gt;1 -->
<g id="edge24" class="edge"><title>&#45;22&#45;&gt;1</title>
<path fill="none" stroke="red" stroke-width="0.467085" d="M245.674,-159.041C308.483,-158.153 556.408,-152.314 623.138,-115.196 647.614,-101.582 641.993,-85.1554 662.138,-65.6985 676.648,-51.6841 695.242,-38.3121 709.318,-28.9523"/>
<polygon fill="red" stroke="red" stroke-width="0.467085" points="711.355,-31.8027 717.827,-23.4145 707.537,-25.9357 711.355,-31.8027"/>
</g>
<!-- &#45;22&#45;&gt;2 -->
<g id="edge42" class="edge"><title>&#45;22&#45;&gt;2</title>
<path fill="none" stroke="red" stroke-width="0.128717" d="M245.807,-158.582C359.633,-153.806 1097.67,-122.567 1106.14,-115.196 1127.3,-96.7872 1129.45,-62.682 1128.08,-39.6295"/>
<polygon fill="red" stroke="red" stroke-width="0.128717" points="1131.56,-39.2803 1127.22,-29.6149 1124.58,-39.8767 1131.56,-39.2803"/>
</g>
<!-- &#45;22&#45;&gt;3 -->
<g id="edge55" class="edge"><title>&#45;22&#45;&gt;3</title>
<path fill="none" stroke="red" stroke-width="0.58048" stroke-dasharray="1,5" d="M216.448,-158.6C171.374,-156.434 36.5047,-147.329 10.1383,-115.196 -3.81619,-98.1894 -2.76794,-83.5137 10.1383,-65.6985 39.248,-25.5166 101.761,-17.1408 136.874,-15.7474"/>
<polygon fill="red" stroke="red" stroke-width="0.58048" points="137.318,-19.2382 147.235,-15.5088 137.157,-12.24 137.318,-19.2382"/>
</g>
<!-- 3261 -->
<g id="node31" class="node"><title>3261</title>
<ellipse fill="white" stroke="black" cx="44.1383" cy="-90.4472" rx="25" ry="25"/>
<text text-anchor="middle" x="44.1383" y="-88.2472" font-family="Times,serif" font-size="9.00">3261</text>
</g>
<!-- &#45;22&#45;&gt;3261 -->
<g id="edge6" class="edge"><title>&#45;22&#45;&gt;3261</title>
<path fill="none" stroke="red" stroke-width="0.209645" d="M216.409,-156.146C189.285,-150.242 129.93,-135.978 83.1383,-115.196 79.7512,-113.692 76.3007,-111.945 72.9227,-110.094"/>
<polygon fill="red" stroke="red" stroke-width="0.209645" points="74.6484,-107.049 64.2442,-105.048 71.1298,-113.1 74.6484,-107.049"/>
</g>
<!-- &#45;23 -->
<g id="node23" class="node"><title>&#45;23</title>
<polygon fill="lightgray" stroke="black" points="1277.64,-169.196 1248.64,-169.196 1248.64,-151.196 1277.64,-151.196 1277.64,-169.196"/>
<text text-anchor="middle" x="1263.14" y="-157.996" font-family="Times,serif" font-size="9.00">&#45;23</text>
</g>
<!-- &#45;23&#45;&gt;2 -->
<g id="edge34" class="edge"><title>&#45;23&#45;&gt;2</title>
<path fill="none" stroke="green" stroke-width="0.177481" stroke-dasharray="1,5" d="M1248.44,-154.072C1230.93,-147.373 1201.6,-134.208 1182.14,-115.196 1159.55,-93.1228 1143.04,-60.1932 1133.77,-38.3779"/>
<polygon fill="green" stroke="green" stroke-width="0.177481" points="1136.94,-36.8709 1129.92,-28.9367 1130.46,-39.5177 1136.94,-36.8709"/>
</g>
<!-- 1439 -->
<g id="node32" class="node"><title>1439</title>
<ellipse fill="white" stroke="black" cx="1363.14" cy="-90.4472" rx="25" ry="25"/>
<text text-anchor="middle" x="1363.14" y="-88.2472" font-family="Times,serif" font-size="9.00">1439</text>
</g>
<!-- &#45;23&#45;&gt;1439 -->
<g id="edge25" class="edge"><title>&#45;23&#45;&gt;1439</title>
<path fill="none" stroke="green" stroke-width="0.257812" stroke-dasharray="1,5" d="M1276.09,-150.923C1289.67,-142.197 1311.56,-127.971 1330.14,-115.196 1331.75,-114.086 1333.4,-112.938 1335.07,-111.772"/>
<polygon fill="green" stroke="green" stroke-width="0.257812" points="1337.21,-114.542 1343.34,-105.902 1333.16,-108.833 1337.21,-114.542"/>
</g>
<!-- &#45;24 -->
<g id="node24" class="node"><title>&#45;24</title>
<polygon fill="lightgray" stroke="black" points="523.638,-99.4472 494.638,-99.4472 494.638,-81.4472 523.638,-81.4472 523.638,-99.4472"/>
<text text-anchor="middle" x="509.138" y="-88.2472" font-family="Times,serif" font-size="9.00">&#45;24</text>
</g>
<!-- &#45;24&#45;&gt;0 -->
<g id="edge47" class="edge"><title>&#45;24&#45;&gt;0</title>
<path fill="none" stroke="green" stroke-width="1.0267" d="M504.372,-81.2897C498.166,-70.6672 487.091,-51.7116 478.453,-36.9263"/>
<polygon fill="green" stroke="green" stroke-width="1.0267" points="481.27,-34.8106 473.203,-27.9419 475.226,-38.3419 481.27,-34.8106"/>
</g>
<!-- &#45;24&#45;&gt;1 -->
<g id="edge3" class="edge"><title>&#45;24&#45;&gt;1</title>
<path fill="none" stroke="green" stroke-width="0.158274" stroke-dasharray="1,5" d="M515.439,-81.2683C519.857,-76.0755 526.196,-69.618 533.138,-65.6985 589.46,-33.8988 666.147,-22.0796 705.145,-17.9319"/>
<polygon fill="green" stroke="green" stroke-width="0.158274" points="705.706,-21.3939 715.317,-16.9356 705.023,-14.4272 705.706,-21.3939"/>
</g>
<!-- 1&#45;&gt;1 -->
<g id="edge29" class="edge"><title>1&#45;&gt;1</title>
<path fill="none" stroke="red" stroke-width="0.560724" d="M740.566,-25.6755C751.177,-32.0439 762.987,-28.4352 762.987,-14.8492 762.987,-5.50891 757.405,-0.884351 750.468,-0.975566"/>
<polygon fill="red" stroke="red" stroke-width="0.560724" points="749.094,2.26363 740.566,-4.02295 751.153,-4.42672 749.094,2.26363"/>
</g>
<!-- 2&#45;&gt;2 -->
<g id="edge49" class="edge"><title>2&#45;&gt;2</title>
<path fill="none" stroke="green" stroke-width="0.21735" d="M1135.57,-25.6755C1146.18,-32.0439 1157.99,-28.4352 1157.99,-14.8492 1157.99,-5.50891 1152.41,-0.884351 1145.47,-0.975566"/>
<polygon fill="green" stroke="green" stroke-width="0.21735" points="1144.09,2.26363 1135.57,-4.02295 1146.15,-4.42672 1144.09,2.26363"/>
</g>
<!-- 3&#45;&gt;3 -->
<g id="edge15" class="edge"><title>3&#45;&gt;3</title>
<path fill="none" stroke="green" stroke-width="0.14575" d="M172.566,-25.6755C183.177,-32.0439 194.987,-28.4352 194.987,-14.8492 194.987,-5.50891 189.405,-0.884351 182.468,-0.975566"/>
<polygon fill="green" stroke="green" stroke-width="0.14575" points="181.094,2.26363 172.566,-4.02295 183.153,-4.42672 181.094,2.26363"/>
</g>
<!-- 1924&#45;&gt;0 -->
<g id="edge10" class="edge"><title>1924&#45;&gt;0</title>
<path fill="none" stroke="red" stroke-width="0.157097" d="M385.895,-74.9066C403.345,-62.0641 428.666,-43.4281 446.177,-30.5405"/>
<polygon fill="red" stroke="red" stroke-width="0.157097" points="448.559,-33.1327 454.539,-24.3863 444.41,-27.4949 448.559,-33.1327"/>
</g>
<!-- 1785&#45;&gt;2 -->
<g id="edge39" class="edge"><title>1785&#45;&gt;2</title>
<path fill="none" stroke="green" stroke-width="0.217339" d="M1275.9,-76.141C1269.98,-72.5205 1263.41,-68.7581 1257.14,-65.6985 1220.6,-47.8671 1175.96,-32.2041 1149.08,-23.3927"/>
<polygon fill="green" stroke="green" stroke-width="0.217339" points="1149.96,-20.0009 1139.37,-20.2569 1147.81,-26.6619 1149.96,-20.0009"/>
</g>
<!-- 3261&#45;&gt;3 -->
<g id="edge4" class="edge"><title>3261&#45;&gt;3</title>
<path fill="none" stroke="red" stroke-width="0.607454" d="M64.6923,-76.6274C86.0894,-63.2818 119.436,-42.4834 141.035,-29.0119"/>
<polygon fill="red" stroke="red" stroke-width="0.607454" points="143.142,-31.8223 149.775,-23.5604 139.438,-25.8829 143.142,-31.8223"/>
</g>
<!-- 1439&#45;&gt;2 -->
<g id="edge53" class="edge"><title>1439&#45;&gt;2</title>
<path fill="none" stroke="red" stroke-width="0.301699" d="M1344.36,-74.0602C1339.9,-70.9444 1335.01,-67.9405 1330.14,-65.6985 1268.85,-37.5041 1189.64,-24.076 1150.02,-18.7608"/>
<polygon fill="red" stroke="red" stroke-width="0.301699" points="1150.3,-15.2689 1139.94,-17.4712 1149.41,-22.2123 1150.3,-15.2689"/>
</g>
</g>
</svg>
