<?xml version="1.0" encoding="UTF-8" standalone="no"?>
<!DOCTYPE svg PUBLIC "-//W3C//DTD SVG 1.1//EN"
 "http://www.w3.org/Graphics/SVG/1.1/DTD/svg11.dtd">
<!-- Generated by graphviz version 2.38.0 (20140413.2041)
 -->
<!-- Title: %3 Pages: 1 -->
<svg width="1128pt" height="274pt"
 viewBox="0.00 0.00 1127.60 274.39" xmlns="http://www.w3.org/2000/svg" xmlns:xlink="http://www.w3.org/1999/xlink">
<g id="graph0" class="graph" transform="scale(1 1) rotate(0) translate(4 270.392)">
<title>%3</title>
<polygon fill="white" stroke="none" points="-4,4 -4,-270.392 1123.6,-270.392 1123.6,4 -4,4"/>
<!-- &#45;1 -->
<g id="node1" class="node"><title>&#45;1</title>
<polygon fill="lightgray" stroke="black" points="36.7487,-260.543 12.7487,-260.543 12.7487,-242.543 36.7487,-242.543 36.7487,-260.543"/>
<text text-anchor="middle" x="24.7487" y="-249.343" font-family="Times,serif" font-size="9.00">&#45;1</text>
</g>
<!-- 2796 -->
<g id="node30" class="node"><title>2796</title>
<ellipse fill="white" stroke="black" cx="24.7487" cy="-175.945" rx="25" ry="25"/>
<text text-anchor="middle" x="24.7487" y="-173.745" font-family="Times,serif" font-size="9.00">2796</text>
</g>
<!-- &#45;1&#45;&gt;2796 -->
<g id="edge1" class="edge"><title>&#45;1&#45;&gt;2796</title>
<path fill="none" stroke="red" stroke-width="1.05613" d="M24.7487,-242.385C24.7487,-234.685 24.7487,-222.607 24.7487,-210.913"/>
<polygon fill="red" stroke="red" stroke-width="1.05613" points="28.2488,-210.854 24.7487,-200.854 21.2488,-210.854 28.2488,-210.854"/>
</g>
<!-- &#45;2 -->
<g id="node2" class="node"><title>&#45;2</title>
<polygon fill="lightgray" stroke="black" points="141.749,-260.543 117.749,-260.543 117.749,-242.543 141.749,-242.543 141.749,-260.543"/>
<text text-anchor="middle" x="129.749" y="-249.343" font-family="Times,serif" font-size="9.00">&#45;2</text>
</g>
<!-- &#45;3 -->
<g id="node3" class="node"><title>&#45;3</title>
<polygon fill="lightgray" stroke="black" points="139.749,-184.945 115.749,-184.945 115.749,-166.945 139.749,-166.945 139.749,-184.945"/>
<text text-anchor="middle" x="127.749" y="-173.745" font-family="Times,serif" font-size="9.00">&#45;3</text>
</g>
<!-- 2005 -->
<g id="node31" class="node"><title>2005</title>
<ellipse fill="white" stroke="black" cx="179.749" cy="-90.4472" rx="25" ry="25"/>
<text text-anchor="middle" x="179.749" y="-88.2472" font-family="Times,serif" font-size="9.00">2005</text>
</g>
<!-- &#45;3&#45;&gt;2005 -->
<g id="edge5" class="edge"><title>&#45;3&#45;&gt;2005</title>
<path fill="none" stroke="green" stroke-width="0.704077" d="M132.735,-166.939C139.341,-156.331 151.353,-137.043 161.581,-120.619"/>
<polygon fill="green" stroke="green" stroke-width="0.704077" points="164.719,-122.202 167.034,-111.863 158.777,-118.501 164.719,-122.202"/>
</g>
<!-- &#45;4 -->
<g id="node4" class="node"><title>&#45;4</title>
<polygon fill="lightgray" stroke="black" points="239.749,-260.543 215.749,-260.543 215.749,-242.543 239.749,-242.543 239.749,-260.543"/>
<text text-anchor="middle" x="227.749" y="-249.343" font-family="Times,serif" font-size="9.00">&#45;4</text>
</g>
<!-- &#45;5 -->
<g id="node5" class="node"><title>&#45;5</title>
<polygon fill="lightgray" stroke="black" points="85.7487,-260.543 61.7487,-260.543 61.7487,-242.543 85.7487,-242.543 85.7487,-260.543"/>
<text text-anchor="middle" x="73.7487" y="-249.343" font-family="Times,serif" font-size="9.00">&#45;5</text>
</g>
<!-- 2 -->
<g id="node27" class="node"><title>2</title>
<ellipse fill="lightblue" stroke="black" cx="82.7487" cy="-175.945" rx="14.7" ry="14.7"/>
<text text-anchor="middle" x="82.7487" y="-173.745" font-family="Times,serif" font-size="9.00">2</text>
</g>
<!-- &#45;5&#45;&gt;2 -->
<g id="edge8" class="edge"><title>&#45;5&#45;&gt;2</title>
<path fill="none" stroke="red" stroke-width="0.797745" d="M74.7463,-242.385C75.9571,-232.484 78.0533,-215.342 79.7966,-201.086"/>
<polygon fill="red" stroke="red" stroke-width="0.797745" points="83.3006,-201.266 81.0404,-190.915 76.3523,-200.416 83.3006,-201.266"/>
</g>
<!-- &#45;5&#45;&gt;2796 -->
<g id="edge4" class="edge"><title>&#45;5&#45;&gt;2796</title>
<path fill="none" stroke="red" stroke-width="1.00066" d="M68.3177,-242.385C62.39,-233.482 52.565,-218.725 43.7439,-205.475"/>
<polygon fill="red" stroke="red" stroke-width="1.00066" points="46.5986,-203.448 38.1433,-197.063 40.7718,-207.327 46.5986,-203.448"/>
</g>
<!-- &#45;6 -->
<g id="node6" class="node"><title>&#45;6</title>
<polygon fill="lightgray" stroke="black" points="281.749,-260.543 257.749,-260.543 257.749,-242.543 281.749,-242.543 281.749,-260.543"/>
<text text-anchor="middle" x="269.749" y="-249.343" font-family="Times,serif" font-size="9.00">&#45;6</text>
</g>
<!-- &#45;7 -->
<g id="node7" class="node"><title>&#45;7</title>
<polygon fill="lightgray" stroke="black" points="323.749,-260.543 299.749,-260.543 299.749,-242.543 323.749,-242.543 323.749,-260.543"/>
<text text-anchor="middle" x="311.749" y="-249.343" font-family="Times,serif" font-size="9.00">&#45;7</text>
</g>
<!-- &#45;8 -->
<g id="node8" class="node"><title>&#45;8</title>
<polygon fill="lightgray" stroke="black" points="255.749,-184.945 231.749,-184.945 231.749,-166.945 255.749,-166.945 255.749,-184.945"/>
<text text-anchor="middle" x="243.749" y="-173.745" font-family="Times,serif" font-size="9.00">&#45;8</text>
</g>
<!-- &#45;8&#45;&gt;2005 -->
<g id="edge10" class="edge"><title>&#45;8&#45;&gt;2005</title>
<path fill="none" stroke="green" stroke-width="0.933044" d="M237.612,-166.939C229.193,-155.955 213.64,-135.664 200.778,-118.883"/>
<polygon fill="green" stroke="green" stroke-width="0.933044" points="203.21,-116.303 194.349,-110.495 197.655,-120.561 203.21,-116.303"/>
</g>
<!-- 3449 -->
<g id="node32" class="node"><title>3449</title>
<ellipse fill="white" stroke="black" cx="246.749" cy="-90.4472" rx="25" ry="25"/>
<text text-anchor="middle" x="246.749" y="-88.2472" font-family="Times,serif" font-size="9.00">3449</text>
</g>
<!-- &#45;8&#45;&gt;3449 -->
<g id="edge6" class="edge"><title>&#45;8&#45;&gt;3449</title>
<path fill="none" stroke="green" stroke-width="0.655445" d="M244.036,-166.939C244.38,-157.387 244.976,-140.798 245.522,-125.599"/>
<polygon fill="green" stroke="green" stroke-width="0.655445" points="249.027,-125.521 245.888,-115.402 242.031,-125.27 249.027,-125.521"/>
</g>
<!-- &#45;9 -->
<g id="node9" class="node"><title>&#45;9</title>
<polygon fill="lightgray" stroke="black" points="365.749,-260.543 341.749,-260.543 341.749,-242.543 365.749,-242.543 365.749,-260.543"/>
<text text-anchor="middle" x="353.749" y="-249.343" font-family="Times,serif" font-size="9.00">&#45;9</text>
</g>
<!-- &#45;10 -->
<g id="node10" class="node"><title>&#45;10</title>
<polygon fill="lightgray" stroke="black" points="413.249,-260.543 384.249,-260.543 384.249,-242.543 413.249,-242.543 413.249,-260.543"/>
<text text-anchor="middle" x="398.749" y="-249.343" font-family="Times,serif" font-size="9.00">&#45;10</text>
</g>
<!-- &#45;11 -->
<g id="node11" class="node"><title>&#45;11</title>
<polygon fill="lightgray" stroke="black" points="197.249,-260.543 168.249,-260.543 168.249,-242.543 197.249,-242.543 197.249,-260.543"/>
<text text-anchor="middle" x="182.749" y="-249.343" font-family="Times,serif" font-size="9.00">&#45;11</text>
</g>
<!-- 3847 -->
<g id="node29" class="node"><title>3847</title>
<ellipse fill="white" stroke="black" cx="182.749" cy="-175.945" rx="25" ry="25"/>
<text text-anchor="middle" x="182.749" y="-173.745" font-family="Times,serif" font-size="9.00">3847</text>
</g>
<!-- &#45;11&#45;&gt;3847 -->
<g id="edge9" class="edge"><title>&#45;11&#45;&gt;3847</title>
<path fill="none" stroke="green" stroke-width="0.353866" d="M182.749,-242.385C182.749,-234.685 182.749,-222.607 182.749,-210.913"/>
<polygon fill="green" stroke="green" stroke-width="0.353866" points="186.249,-210.854 182.749,-200.854 179.249,-210.854 186.249,-210.854"/>
</g>
<!-- &#45;12 -->
<g id="node12" class="node"><title>&#45;12</title>
<polygon fill="lightgray" stroke="black" points="460.249,-260.543 431.249,-260.543 431.249,-242.543 460.249,-242.543 460.249,-260.543"/>
<text text-anchor="middle" x="445.749" y="-249.343" font-family="Times,serif" font-size="9.00">&#45;12</text>
</g>
<!-- &#45;13 -->
<g id="node13" class="node"><title>&#45;13</title>
<polygon fill="lightgray" stroke="black" points="507.249,-260.543 478.249,-260.543 478.249,-242.543 507.249,-242.543 507.249,-260.543"/>
<text text-anchor="middle" x="492.749" y="-249.343" font-family="Times,serif" font-size="9.00">&#45;13</text>
</g>
<!-- &#45;14 -->
<g id="node14" class="node"><title>&#45;14</title>
<polygon fill="lightgray" stroke="black" points="554.249,-260.543 525.249,-260.543 525.249,-242.543 554.249,-242.543 554.249,-260.543"/>
<text text-anchor="middle" x="539.749" y="-249.343" font-family="Times,serif" font-size="9.00">&#45;14</text>
</g>
<!-- &#45;15 -->
<g id="node15" class="node"><title>&#45;15</title>
<polygon fill="lightgray" stroke="black" points="601.249,-260.543 572.249,-260.543 572.249,-242.543 601.249,-242.543 601.249,-260.543"/>
<text text-anchor="middle" x="586.749" y="-249.343" font-family="Times,serif" font-size="9.00">&#45;15</text>
</g>
<!-- &#45;16 -->
<g id="node16" class="node"><title>&#45;16</title>
<polygon fill="lightgray" stroke="black" points="648.249,-260.543 619.249,-260.543 619.249,-242.543 648.249,-242.543 648.249,-260.543"/>
<text text-anchor="middle" x="633.749" y="-249.343" font-family="Times,serif" font-size="9.00">&#45;16</text>
</g>
<!-- &#45;17 -->
<g id="node17" class="node"><title>&#45;17</title>
<polygon fill="lightgray" stroke="black" points="695.249,-260.543 666.249,-260.543 666.249,-242.543 695.249,-242.543 695.249,-260.543"/>
<text text-anchor="middle" x="680.749" y="-249.343" font-family="Times,serif" font-size="9.00">&#45;17</text>
</g>
<!-- &#45;18 -->
<g id="node18" class="node"><title>&#45;18</title>
<polygon fill="lightgray" stroke="black" points="742.249,-260.543 713.249,-260.543 713.249,-242.543 742.249,-242.543 742.249,-260.543"/>
<text text-anchor="middle" x="727.749" y="-249.343" font-family="Times,serif" font-size="9.00">&#45;18</text>
</g>
<!-- &#45;19 -->
<g id="node19" class="node"><title>&#45;19</title>
<polygon fill="lightgray" stroke="black" points="789.249,-260.543 760.249,-260.543 760.249,-242.543 789.249,-242.543 789.249,-260.543"/>
<text text-anchor="middle" x="774.749" y="-249.343" font-family="Times,serif" font-size="9.00">&#45;19</text>
</g>
<!-- &#45;20 -->
<g id="node20" class="node"><title>&#45;20</title>
<polygon fill="lightgray" stroke="black" points="836.249,-260.543 807.249,-260.543 807.249,-242.543 836.249,-242.543 836.249,-260.543"/>
<text text-anchor="middle" x="821.749" y="-249.343" font-family="Times,serif" font-size="9.00">&#45;20</text>
</g>
<!-- &#45;21 -->
<g id="node21" class="node"><title>&#45;21</title>
<polygon fill="lightgray" stroke="black" points="883.249,-260.543 854.249,-260.543 854.249,-242.543 883.249,-242.543 883.249,-260.543"/>
<text text-anchor="middle" x="868.749" y="-249.343" font-family="Times,serif" font-size="9.00">&#45;21</text>
</g>
<!-- &#45;22 -->
<g id="node22" class="node"><title>&#45;22</title>
<polygon fill="lightgray" stroke="black" points="930.249,-260.543 901.249,-260.543 901.249,-242.543 930.249,-242.543 930.249,-260.543"/>
<text text-anchor="middle" x="915.749" y="-249.343" font-family="Times,serif" font-size="9.00">&#45;22</text>
</g>
<!-- &#45;23 -->
<g id="node23" class="node"><title>&#45;23</title>
<polygon fill="lightgray" stroke="black" points="977.249,-260.543 948.249,-260.543 948.249,-242.543 977.249,-242.543 977.249,-260.543"/>
<text text-anchor="middle" x="962.749" y="-249.343" font-family="Times,serif" font-size="9.00">&#45;23</text>
</g>
<!-- &#45;24 -->
<g id="node24" class="node"><title>&#45;24</title>
<polygon fill="lightgray" stroke="black" points="1024.25,-260.543 995.249,-260.543 995.249,-242.543 1024.25,-242.543 1024.25,-260.543"/>
<text text-anchor="middle" x="1009.75" y="-249.343" font-family="Times,serif" font-size="9.00">&#45;24</text>
</g>
<!-- 0 -->
<g id="node25" class="node"><title>0</title>
<ellipse fill="lightblue" stroke="black" cx="1056.75" cy="-251.543" rx="14.7" ry="14.7"/>
<text text-anchor="middle" x="1056.75" y="-249.343" font-family="Times,serif" font-size="9.00">0</text>
</g>
<!-- 1 -->
<g id="node26" class="node"><title>1</title>
<ellipse fill="lightblue" stroke="black" cx="179.749" cy="-14.8492" rx="14.7" ry="14.7"/>
<text text-anchor="middle" x="179.749" y="-12.6492" font-family="Times,serif" font-size="9.00">1</text>
</g>
<!-- 3 -->
<g id="node28" class="node"><title>3</title>
<ellipse fill="lightblue" stroke="black" cx="1104.75" cy="-251.543" rx="14.7" ry="14.7"/>
<text text-anchor="middle" x="1104.75" y="-249.343" font-family="Times,serif" font-size="9.00">3</text>
</g>
<!-- 3847&#45;&gt;2005 -->
<g id="edge2" class="edge"><title>3847&#45;&gt;2005</title>
<path fill="none" stroke="green" stroke-width="0.504467" d="M181.881,-150.794C181.596,-142.85 181.273,-133.865 180.966,-125.335"/>
<polygon fill="green" stroke="green" stroke-width="0.504467" points="184.461,-125.123 180.604,-115.256 177.466,-125.375 184.461,-125.123"/>
</g>
<!-- 2714 -->
<g id="node33" class="node"><title>2714</title>
<ellipse fill="white" stroke="black" cx="24.7487" cy="-90.4472" rx="25" ry="25"/>
<text text-anchor="middle" x="24.7487" y="-88.2472" font-family="Times,serif" font-size="9.00">2714</text>
</g>
<!-- 2796&#45;&gt;2714 -->
<g id="edge3" class="edge"><title>2796&#45;&gt;2714</title>
<path fill="none" stroke="green" stroke-width="0.354922" d="M24.7487,-150.794C24.7487,-142.85 24.7487,-133.865 24.7487,-125.335"/>
<polygon fill="green" stroke="green" stroke-width="0.354922" points="28.2488,-125.255 24.7487,-115.256 21.2488,-125.256 28.2488,-125.255"/>
</g>
<!-- 2005&#45;&gt;1 -->
<g id="edge7" class="edge"><title>2005&#45;&gt;1</title>
<path fill="none" stroke="green" stroke-width="0.509704" d="M179.749,-65.3485C179.749,-57.1867 179.749,-48.0749 179.749,-39.9156"/>
<polygon fill="green" stroke="green" stroke-width="0.509704" points="183.249,-39.8982 179.749,-29.8983 176.249,-39.8983 183.249,-39.8982"/>
</g>
</g>
</svg>
