<?xml version="1.0" encoding="UTF-8" standalone="no"?>
<!DOCTYPE svg PUBLIC "-//W3C//DTD SVG 1.1//EN"
 "http://www.w3.org/Graphics/SVG/1.1/DTD/svg11.dtd">
<!-- Generated by graphviz version 2.38.0 (20140413.2041)
 -->
<!-- Title: %3 Pages: 1 -->
<svg width="1147pt" height="360pt"
 viewBox="0.00 0.00 1147.12 359.89" xmlns="http://www.w3.org/2000/svg" xmlns:xlink="http://www.w3.org/1999/xlink">
<g id="graph0" class="graph" transform="scale(1 1) rotate(0) translate(4 355.889)">
<title>%3</title>
<polygon fill="white" stroke="none" points="-4,4 -4,-355.889 1143.12,-355.889 1143.12,4 -4,4"/>
<!-- &#45;1 -->
<g id="node1" class="node"><title>&#45;1</title>
<polygon fill="lightgray" stroke="black" points="263.273,-270.442 239.273,-270.442 239.273,-252.442 263.273,-252.442 263.273,-270.442"/>
<text text-anchor="middle" x="251.273" y="-259.242" font-family="Times,serif" font-size="9.00">&#45;1</text>
</g>
<!-- 2796 -->
<g id="node30" class="node"><title>2796</title>
<ellipse fill="white" stroke="black" cx="291.273" cy="-175.945" rx="25" ry="25"/>
<text text-anchor="middle" x="291.273" y="-173.745" font-family="Times,serif" font-size="9.00">2796</text>
</g>
<!-- &#45;1&#45;&gt;2796 -->
<g id="edge1" class="edge"><title>&#45;1&#45;&gt;2796</title>
<path fill="none" stroke="red" stroke-width="1.05613" d="M255.109,-252.436C260.012,-242.2 268.789,-223.88 276.467,-207.851"/>
<polygon fill="red" stroke="red" stroke-width="1.05613" points="279.66,-209.287 280.824,-198.757 273.347,-206.263 279.66,-209.287"/>
</g>
<!-- &#45;2 -->
<g id="node2" class="node"><title>&#45;2</title>
<polygon fill="lightgray" stroke="black" points="265.273,-346.04 241.273,-346.04 241.273,-328.04 265.273,-328.04 265.273,-346.04"/>
<text text-anchor="middle" x="253.273" y="-334.84" font-family="Times,serif" font-size="9.00">&#45;2</text>
</g>
<!-- &#45;3 -->
<g id="node3" class="node"><title>&#45;3</title>
<polygon fill="lightgray" stroke="black" points="39.2732,-184.945 15.2732,-184.945 15.2732,-166.945 39.2732,-166.945 39.2732,-184.945"/>
<text text-anchor="middle" x="27.2732" y="-173.745" font-family="Times,serif" font-size="9.00">&#45;3</text>
</g>
<!-- 2005 -->
<g id="node31" class="node"><title>2005</title>
<ellipse fill="white" stroke="black" cx="86.2732" cy="-90.4472" rx="25" ry="25"/>
<text text-anchor="middle" x="86.2732" y="-88.2472" font-family="Times,serif" font-size="9.00">2005</text>
</g>
<!-- &#45;3&#45;&gt;2005 -->
<g id="edge12" class="edge"><title>&#45;3&#45;&gt;2005</title>
<path fill="none" stroke="green" stroke-width="0.704077" d="M32.9303,-166.939C40.5934,-156.094 54.6675,-136.176 66.4355,-119.522"/>
<polygon fill="green" stroke="green" stroke-width="0.704077" points="69.4206,-121.362 72.333,-111.175 63.7038,-117.323 69.4206,-121.362"/>
</g>
<!-- &#45;4 -->
<g id="node4" class="node"><title>&#45;4</title>
<polygon fill="lightgray" stroke="black" points="307.273,-346.04 283.273,-346.04 283.273,-328.04 307.273,-328.04 307.273,-346.04"/>
<text text-anchor="middle" x="295.273" y="-334.84" font-family="Times,serif" font-size="9.00">&#45;4</text>
</g>
<!-- &#45;5 -->
<g id="node5" class="node"><title>&#45;5</title>
<polygon fill="lightgray" stroke="black" points="411.273,-270.442 387.273,-270.442 387.273,-252.442 411.273,-252.442 411.273,-270.442"/>
<text text-anchor="middle" x="399.273" y="-259.242" font-family="Times,serif" font-size="9.00">&#45;5</text>
</g>
<!-- 2 -->
<g id="node27" class="node"><title>2</title>
<ellipse fill="lightblue" stroke="black" cx="399.273" cy="-175.945" rx="14.7" ry="14.7"/>
<text text-anchor="middle" x="399.273" y="-173.745" font-family="Times,serif" font-size="9.00">2</text>
</g>
<!-- &#45;5&#45;&gt;2 -->
<g id="edge16" class="edge"><title>&#45;5&#45;&gt;2</title>
<path fill="none" stroke="red" stroke-width="0.797745" d="M399.273,-252.436C399.273,-240.673 399.273,-218.235 399.273,-200.866"/>
<polygon fill="red" stroke="red" stroke-width="0.797745" points="402.773,-200.847 399.273,-190.847 395.773,-200.847 402.773,-200.847"/>
</g>
<!-- &#45;5&#45;&gt;2796 -->
<g id="edge9" class="edge"><title>&#45;5&#45;&gt;2796</title>
<path fill="none" stroke="red" stroke-width="1.00066" d="M392.731,-252.069C388.8,-247.298 383.55,-241.361 378.273,-236.693 360.51,-220.979 338.468,-205.881 321.015,-194.793"/>
<polygon fill="red" stroke="red" stroke-width="1.00066" points="322.689,-191.712 312.354,-189.379 318.978,-197.647 322.689,-191.712"/>
</g>
<!-- &#45;6 -->
<g id="node6" class="node"><title>&#45;6</title>
<polygon fill="lightgray" stroke="black" points="349.273,-346.04 325.273,-346.04 325.273,-328.04 349.273,-328.04 349.273,-346.04"/>
<text text-anchor="middle" x="337.273" y="-334.84" font-family="Times,serif" font-size="9.00">&#45;6</text>
</g>
<!-- &#45;7 -->
<g id="node7" class="node"><title>&#45;7</title>
<polygon fill="lightgray" stroke="black" points="391.273,-346.04 367.273,-346.04 367.273,-328.04 391.273,-328.04 391.273,-346.04"/>
<text text-anchor="middle" x="379.273" y="-334.84" font-family="Times,serif" font-size="9.00">&#45;7</text>
</g>
<!-- &#45;8 -->
<g id="node8" class="node"><title>&#45;8</title>
<polygon fill="lightgray" stroke="black" points="223.273,-346.04 199.273,-346.04 199.273,-328.04 223.273,-328.04 223.273,-346.04"/>
<text text-anchor="middle" x="211.273" y="-334.84" font-family="Times,serif" font-size="9.00">&#45;8</text>
</g>
<!-- 1 -->
<g id="node26" class="node"><title>1</title>
<ellipse fill="lightblue" stroke="black" cx="86.2732" cy="-14.8492" rx="14.7" ry="14.7"/>
<text text-anchor="middle" x="86.2732" y="-12.6492" font-family="Times,serif" font-size="9.00">1</text>
</g>
<!-- &#45;8&#45;&gt;1 -->
<g id="edge15" class="edge"><title>&#45;8&#45;&gt;1</title>
<path fill="none" stroke="green" stroke-width="0.162108" stroke-dasharray="1,5" d="M199.215,-333.169C160.437,-323.16 39.5279,-285.685 6.27316,-200.693 -18.1582,-138.253 38.8926,-65.6468 69.0684,-33.1352"/>
<polygon fill="green" stroke="green" stroke-width="0.162108" points="71.7286,-35.4171 76.0952,-25.764 66.6619,-30.5871 71.7286,-35.4171"/>
</g>
<!-- &#45;8&#45;&gt;2796 -->
<g id="edge8" class="edge"><title>&#45;8&#45;&gt;2796</title>
<path fill="none" stroke="green" stroke-width="0.942958" stroke-dasharray="1,5" d="M223.1,-327.904C239.039,-316.695 266.131,-296.7 272.273,-286.191 285.607,-263.377 290.105,-233.621 291.408,-210.926"/>
<polygon fill="green" stroke="green" stroke-width="0.942958" points="294.913,-210.86 291.809,-200.73 287.919,-210.585 294.913,-210.86"/>
</g>
<!-- &#45;8&#45;&gt;2005 -->
<g id="edge18" class="edge"><title>&#45;8&#45;&gt;2005</title>
<path fill="none" stroke="green" stroke-width="0.933044" d="M199.228,-333.921C177.476,-329.404 131.897,-316.643 110.273,-286.191 76.3446,-238.411 77.1771,-166.908 81.374,-125.14"/>
<polygon fill="green" stroke="green" stroke-width="0.933044" points="84.8811,-125.273 82.5258,-114.944 77.9254,-124.488 84.8811,-125.273"/>
</g>
<!-- 3449 -->
<g id="node32" class="node"><title>3449</title>
<ellipse fill="white" stroke="black" cx="344.273" cy="-261.442" rx="25" ry="25"/>
<text text-anchor="middle" x="344.273" y="-259.242" font-family="Times,serif" font-size="9.00">3449</text>
</g>
<!-- &#45;8&#45;&gt;3449 -->
<g id="edge13" class="edge"><title>&#45;8&#45;&gt;3449</title>
<path fill="none" stroke="green" stroke-width="0.655445" d="M223.105,-327.867C226.055,-325.933 229.242,-323.929 232.273,-322.191 263.656,-304.198 273.571,-303.615 305.273,-286.191 308.354,-284.498 311.537,-282.678 314.696,-280.828"/>
<polygon fill="green" stroke="green" stroke-width="0.655445" points="316.639,-283.744 323.424,-275.607 313.045,-277.737 316.639,-283.744"/>
</g>
<!-- 2714 -->
<g id="node33" class="node"><title>2714</title>
<ellipse fill="white" stroke="black" cx="211.273" cy="-90.4472" rx="25" ry="25"/>
<text text-anchor="middle" x="211.273" y="-88.2472" font-family="Times,serif" font-size="9.00">2714</text>
</g>
<!-- &#45;8&#45;&gt;2714 -->
<g id="edge10" class="edge"><title>&#45;8&#45;&gt;2714</title>
<path fill="none" stroke="red" stroke-width="0.798657" stroke-dasharray="1,5" d="M211.273,-327.902C211.273,-296.61 211.273,-182.918 211.273,-125.347"/>
<polygon fill="red" stroke="red" stroke-width="0.798657" points="214.773,-125.282 211.273,-115.282 207.773,-125.282 214.773,-125.282"/>
</g>
<!-- &#45;9 -->
<g id="node9" class="node"><title>&#45;9</title>
<polygon fill="lightgray" stroke="black" points="433.273,-346.04 409.273,-346.04 409.273,-328.04 433.273,-328.04 433.273,-346.04"/>
<text text-anchor="middle" x="421.273" y="-334.84" font-family="Times,serif" font-size="9.00">&#45;9</text>
</g>
<!-- &#45;10 -->
<g id="node10" class="node"><title>&#45;10</title>
<polygon fill="lightgray" stroke="black" points="480.773,-346.04 451.773,-346.04 451.773,-328.04 480.773,-328.04 480.773,-346.04"/>
<text text-anchor="middle" x="466.273" y="-334.84" font-family="Times,serif" font-size="9.00">&#45;10</text>
</g>
<!-- &#45;11 -->
<g id="node11" class="node"><title>&#45;11</title>
<polygon fill="lightgray" stroke="black" points="148.773,-270.442 119.773,-270.442 119.773,-252.442 148.773,-252.442 148.773,-270.442"/>
<text text-anchor="middle" x="134.273" y="-259.242" font-family="Times,serif" font-size="9.00">&#45;11</text>
</g>
<!-- 3847 -->
<g id="node29" class="node"><title>3847</title>
<ellipse fill="white" stroke="black" cx="158.273" cy="-175.945" rx="25" ry="25"/>
<text text-anchor="middle" x="158.273" y="-173.745" font-family="Times,serif" font-size="9.00">3847</text>
</g>
<!-- &#45;11&#45;&gt;3847 -->
<g id="edge17" class="edge"><title>&#45;11&#45;&gt;3847</title>
<path fill="none" stroke="green" stroke-width="0.353866" d="M136.574,-252.436C139.404,-242.592 144.382,-225.272 148.857,-209.703"/>
<polygon fill="green" stroke="green" stroke-width="0.353866" points="152.299,-210.399 151.698,-199.821 145.571,-208.465 152.299,-210.399"/>
</g>
<!-- &#45;11&#45;&gt;2005 -->
<g id="edge4" class="edge"><title>&#45;11&#45;&gt;2005</title>
<path fill="none" stroke="green" stroke-width="0.32843" stroke-dasharray="1,5" d="M131.958,-252.291C125.498,-229.546 107.004,-164.433 95.6244,-124.37"/>
<polygon fill="green" stroke="green" stroke-width="0.32843" points="98.9263,-123.185 92.8271,-114.522 92.1926,-125.098 98.9263,-123.185"/>
</g>
<!-- &#45;12 -->
<g id="node12" class="node"><title>&#45;12</title>
<polygon fill="lightgray" stroke="black" points="527.773,-346.04 498.773,-346.04 498.773,-328.04 527.773,-328.04 527.773,-346.04"/>
<text text-anchor="middle" x="513.273" y="-334.84" font-family="Times,serif" font-size="9.00">&#45;12</text>
</g>
<!-- &#45;13 -->
<g id="node13" class="node"><title>&#45;13</title>
<polygon fill="lightgray" stroke="black" points="574.773,-346.04 545.773,-346.04 545.773,-328.04 574.773,-328.04 574.773,-346.04"/>
<text text-anchor="middle" x="560.273" y="-334.84" font-family="Times,serif" font-size="9.00">&#45;13</text>
</g>
<!-- &#45;14 -->
<g id="node14" class="node"><title>&#45;14</title>
<polygon fill="lightgray" stroke="black" points="621.773,-346.04 592.773,-346.04 592.773,-328.04 621.773,-328.04 621.773,-346.04"/>
<text text-anchor="middle" x="607.273" y="-334.84" font-family="Times,serif" font-size="9.00">&#45;14</text>
</g>
<!-- 0 -->
<g id="node25" class="node"><title>0</title>
<ellipse fill="lightblue" stroke="black" cx="630.273" cy="-261.442" rx="14.7" ry="14.7"/>
<text text-anchor="middle" x="630.273" y="-259.242" font-family="Times,serif" font-size="9.00">0</text>
</g>
<!-- &#45;14&#45;&gt;0 -->
<g id="edge6" class="edge"><title>&#45;14&#45;&gt;0</title>
<path fill="none" stroke="red" stroke-width="0.245779" stroke-dasharray="1,5" d="M609.822,-327.883C612.985,-317.764 618.51,-300.083 623.021,-285.648"/>
<polygon fill="red" stroke="red" stroke-width="0.245779" points="626.436,-286.455 626.078,-275.866 619.754,-284.367 626.436,-286.455"/>
</g>
<!-- &#45;15 -->
<g id="node15" class="node"><title>&#45;15</title>
<polygon fill="lightgray" stroke="black" points="715.773,-346.04 686.773,-346.04 686.773,-328.04 715.773,-328.04 715.773,-346.04"/>
<text text-anchor="middle" x="701.273" y="-334.84" font-family="Times,serif" font-size="9.00">&#45;15</text>
</g>
<!-- &#45;16 -->
<g id="node16" class="node"><title>&#45;16</title>
<polygon fill="lightgray" stroke="black" points="762.773,-346.04 733.773,-346.04 733.773,-328.04 762.773,-328.04 762.773,-346.04"/>
<text text-anchor="middle" x="748.273" y="-334.84" font-family="Times,serif" font-size="9.00">&#45;16</text>
</g>
<!-- &#45;17 -->
<g id="node17" class="node"><title>&#45;17</title>
<polygon fill="lightgray" stroke="black" points="809.773,-346.04 780.773,-346.04 780.773,-328.04 809.773,-328.04 809.773,-346.04"/>
<text text-anchor="middle" x="795.273" y="-334.84" font-family="Times,serif" font-size="9.00">&#45;17</text>
</g>
<!-- &#45;18 -->
<g id="node18" class="node"><title>&#45;18</title>
<polygon fill="lightgray" stroke="black" points="856.773,-346.04 827.773,-346.04 827.773,-328.04 856.773,-328.04 856.773,-346.04"/>
<text text-anchor="middle" x="842.273" y="-334.84" font-family="Times,serif" font-size="9.00">&#45;18</text>
</g>
<!-- &#45;19 -->
<g id="node19" class="node"><title>&#45;19</title>
<polygon fill="lightgray" stroke="black" points="903.773,-346.04 874.773,-346.04 874.773,-328.04 903.773,-328.04 903.773,-346.04"/>
<text text-anchor="middle" x="889.273" y="-334.84" font-family="Times,serif" font-size="9.00">&#45;19</text>
</g>
<!-- &#45;20 -->
<g id="node20" class="node"><title>&#45;20</title>
<polygon fill="lightgray" stroke="black" points="950.773,-346.04 921.773,-346.04 921.773,-328.04 950.773,-328.04 950.773,-346.04"/>
<text text-anchor="middle" x="936.273" y="-334.84" font-family="Times,serif" font-size="9.00">&#45;20</text>
</g>
<!-- &#45;21 -->
<g id="node21" class="node"><title>&#45;21</title>
<polygon fill="lightgray" stroke="black" points="997.773,-346.04 968.773,-346.04 968.773,-328.04 997.773,-328.04 997.773,-346.04"/>
<text text-anchor="middle" x="983.273" y="-334.84" font-family="Times,serif" font-size="9.00">&#45;21</text>
</g>
<!-- &#45;22 -->
<g id="node22" class="node"><title>&#45;22</title>
<polygon fill="lightgray" stroke="black" points="1044.77,-346.04 1015.77,-346.04 1015.77,-328.04 1044.77,-328.04 1044.77,-346.04"/>
<text text-anchor="middle" x="1030.27" y="-334.84" font-family="Times,serif" font-size="9.00">&#45;22</text>
</g>
<!-- &#45;23 -->
<g id="node23" class="node"><title>&#45;23</title>
<polygon fill="lightgray" stroke="black" points="668.773,-346.04 639.773,-346.04 639.773,-328.04 668.773,-328.04 668.773,-346.04"/>
<text text-anchor="middle" x="654.273" y="-334.84" font-family="Times,serif" font-size="9.00">&#45;23</text>
</g>
<!-- &#45;23&#45;&gt;0 -->
<g id="edge2" class="edge"><title>&#45;23&#45;&gt;0</title>
<path fill="none" stroke="green" stroke-width="0.212185" stroke-dasharray="1,5" d="M651.613,-327.883C648.313,-317.764 642.548,-300.083 637.841,-285.648"/>
<polygon fill="green" stroke="green" stroke-width="0.212185" points="641.079,-284.288 634.651,-275.866 634.424,-286.459 641.079,-284.288"/>
</g>
<!-- &#45;24 -->
<g id="node24" class="node"><title>&#45;24</title>
<polygon fill="lightgray" stroke="black" points="1091.77,-346.04 1062.77,-346.04 1062.77,-328.04 1091.77,-328.04 1091.77,-346.04"/>
<text text-anchor="middle" x="1077.27" y="-334.84" font-family="Times,serif" font-size="9.00">&#45;24</text>
</g>
<!-- 3 -->
<g id="node28" class="node"><title>3</title>
<ellipse fill="lightblue" stroke="black" cx="1124.27" cy="-337.04" rx="14.7" ry="14.7"/>
<text text-anchor="middle" x="1124.27" y="-334.84" font-family="Times,serif" font-size="9.00">3</text>
</g>
<!-- 3847&#45;&gt;2005 -->
<g id="edge3" class="edge"><title>3847&#45;&gt;2005</title>
<path fill="none" stroke="green" stroke-width="0.504467" d="M142.294,-156.414C132.438,-144.984 119.647,-130.151 108.776,-117.544"/>
<polygon fill="green" stroke="green" stroke-width="0.504467" points="111.141,-114.927 101.96,-109.639 105.84,-119.498 111.141,-114.927"/>
</g>
<!-- 2796&#45;&gt;2714 -->
<g id="edge7" class="edge"><title>2796&#45;&gt;2714</title>
<path fill="none" stroke="green" stroke-width="0.354922" d="M274.307,-157.237C262.882,-145.312 247.652,-129.417 235.026,-116.238"/>
<polygon fill="green" stroke="green" stroke-width="0.354922" points="237.386,-113.642 227.94,-108.843 232.331,-118.485 237.386,-113.642"/>
</g>
<!-- 2005&#45;&gt;1 -->
<g id="edge14" class="edge"><title>2005&#45;&gt;1</title>
<path fill="none" stroke="green" stroke-width="0.509704" d="M86.2732,-65.3485C86.2732,-57.1867 86.2732,-48.0749 86.2732,-39.9156"/>
<polygon fill="green" stroke="green" stroke-width="0.509704" points="89.7733,-39.8982 86.2732,-29.8983 82.7733,-39.8983 89.7733,-39.8982"/>
</g>
<!-- 3449&#45;&gt;2796 -->
<g id="edge11" class="edge"><title>3449&#45;&gt;2796</title>
<path fill="none" stroke="green" stroke-width="0.382594" stroke-dasharray="1,5" d="M331.443,-240.23C324.916,-229.947 316.866,-217.264 309.69,-205.959"/>
<polygon fill="green" stroke="green" stroke-width="0.382594" points="312.483,-203.827 304.169,-197.26 306.573,-207.579 312.483,-203.827"/>
</g>
<!-- 2714&#45;&gt;1 -->
<g id="edge5" class="edge"><title>2714&#45;&gt;1</title>
<path fill="none" stroke="green" stroke-width="0.143478" stroke-dasharray="1,5" d="M190.351,-77.1286C167.383,-63.6055 130.705,-42.0102 107.584,-28.3968"/>
<polygon fill="green" stroke="green" stroke-width="0.143478" points="109.264,-25.3242 98.8707,-23.2665 105.712,-31.3563 109.264,-25.3242"/>
</g>
</g>
</svg>
