<?xml version="1.0" encoding="UTF-8" standalone="no"?>
<!DOCTYPE svg PUBLIC "-//W3C//DTD SVG 1.1//EN"
 "http://www.w3.org/Graphics/SVG/1.1/DTD/svg11.dtd">
<!-- Generated by graphviz version 2.38.0 (20140413.2041)
 -->
<!-- Title: %3 Pages: 1 -->
<svg width="1146pt" height="123pt"
 viewBox="0.00 0.00 1146.00 123.20" xmlns="http://www.w3.org/2000/svg" xmlns:xlink="http://www.w3.org/1999/xlink">
<g id="graph0" class="graph" transform="scale(1 1) rotate(0) translate(4 119.196)">
<title>%3</title>
<polygon fill="white" stroke="none" points="-4,4 -4,-119.196 1142,-119.196 1142,4 -4,4"/>
<!-- &#45;1 -->
<g id="node1" class="node"><title>&#45;1</title>
<polygon fill="lightgray" stroke="black" points="297.5,-99.4472 273.5,-99.4472 273.5,-81.4472 297.5,-81.4472 297.5,-99.4472"/>
<text text-anchor="middle" x="285.5" y="-88.2472" font-family="Times,serif" font-size="9.00">&#45;1</text>
</g>
<!-- 0 -->
<g id="node25" class="node"><title>0</title>
<ellipse fill="lightblue" stroke="black" cx="509.5" cy="-14.8492" rx="14.7" ry="14.7"/>
<text text-anchor="middle" x="509.5" y="-12.6492" font-family="Times,serif" font-size="9.00">0</text>
</g>
<!-- &#45;1&#45;&gt;0 -->
<g id="edge6" class="edge"><title>&#45;1&#45;&gt;0</title>
<path fill="none" stroke="red" stroke-width="0.108719" d="M290.795,-81.2373C294.568,-76.0315 300.094,-69.5711 306.5,-65.6985 321.834,-56.4278 434.34,-31.79 484.951,-21.0153"/>
<polygon fill="red" stroke="red" stroke-width="0.108719" points="485.973,-24.3766 495.03,-18.8789 484.521,-17.5288 485.973,-24.3766"/>
</g>
<!-- 1 -->
<g id="node26" class="node"><title>1</title>
<ellipse fill="lightblue" stroke="black" cx="217.5" cy="-14.8492" rx="14.7" ry="14.7"/>
<text text-anchor="middle" x="217.5" y="-12.6492" font-family="Times,serif" font-size="9.00">1</text>
</g>
<!-- &#45;1&#45;&gt;1 -->
<g id="edge7" class="edge"><title>&#45;1&#45;&gt;1</title>
<path fill="none" stroke="red" stroke-width="0.612242" d="M277.963,-81.2897C267.576,-70.0479 248.566,-49.4731 234.626,-34.3854"/>
<polygon fill="red" stroke="red" stroke-width="0.612242" points="236.847,-31.6316 227.49,-26.6619 231.706,-36.382 236.847,-31.6316"/>
</g>
<!-- 3 -->
<g id="node28" class="node"><title>3</title>
<ellipse fill="lightblue" stroke="black" cx="399.5" cy="-14.8492" rx="14.7" ry="14.7"/>
<text text-anchor="middle" x="399.5" y="-12.6492" font-family="Times,serif" font-size="9.00">3</text>
</g>
<!-- &#45;1&#45;&gt;3 -->
<g id="edge29" class="edge"><title>&#45;1&#45;&gt;3</title>
<path fill="none" stroke="red" stroke-width="0.256744" d="M291.498,-81.3023C295.398,-76.3797 300.803,-70.2065 306.5,-65.6985 328.275,-48.4684 356.869,-34.1658 376.572,-25.3647"/>
<polygon fill="red" stroke="red" stroke-width="0.256744" points="378.204,-28.4716 385.982,-21.2773 375.415,-22.0511 378.204,-28.4716"/>
</g>
<!-- &#45;2 -->
<g id="node2" class="node"><title>&#45;2</title>
<polygon fill="lightgray" stroke="black" points="660.5,-99.4472 636.5,-99.4472 636.5,-81.4472 660.5,-81.4472 660.5,-99.4472"/>
<text text-anchor="middle" x="648.5" y="-88.2472" font-family="Times,serif" font-size="9.00">&#45;2</text>
</g>
<!-- &#45;2&#45;&gt;0 -->
<g id="edge2" class="edge"><title>&#45;2&#45;&gt;0</title>
<path fill="none" stroke="red" stroke-width="0.263751" d="M642.644,-81.1138C638.798,-76.1203 633.399,-69.9388 627.5,-65.6985 598.11,-44.5734 558.397,-30.1611 533.365,-22.4644"/>
<polygon fill="red" stroke="red" stroke-width="0.263751" points="534.191,-19.0588 523.609,-19.577 532.205,-25.771 534.191,-19.0588"/>
</g>
<!-- &#45;3 -->
<g id="node3" class="node"><title>&#45;3</title>
<polygon fill="lightgray" stroke="black" points="996.5,-99.4472 972.5,-99.4472 972.5,-81.4472 996.5,-81.4472 996.5,-99.4472"/>
<text text-anchor="middle" x="984.5" y="-88.2472" font-family="Times,serif" font-size="9.00">&#45;3</text>
</g>
<!-- &#45;4 -->
<g id="node4" class="node"><title>&#45;4</title>
<polygon fill="lightgray" stroke="black" points="434.5,-99.4472 410.5,-99.4472 410.5,-81.4472 434.5,-81.4472 434.5,-99.4472"/>
<text text-anchor="middle" x="422.5" y="-88.2472" font-family="Times,serif" font-size="9.00">&#45;4</text>
</g>
<!-- &#45;4&#45;&gt;0 -->
<g id="edge26" class="edge"><title>&#45;4&#45;&gt;0</title>
<path fill="none" stroke="green" stroke-width="0.306642" d="M429.123,-81.162C433.08,-76.4213 438.33,-70.4841 443.5,-65.6985 457.713,-52.5423 475.269,-39.4119 488.701,-29.932"/>
<polygon fill="green" stroke="green" stroke-width="0.306642" points="491.032,-32.5751 497.25,-23.9968 487.039,-26.8251 491.032,-32.5751"/>
</g>
<!-- &#45;4&#45;&gt;3 -->
<g id="edge13" class="edge"><title>&#45;4&#45;&gt;3</title>
<path fill="none" stroke="red" stroke-width="0.459828" d="M419.951,-81.2897C416.788,-71.1707 411.263,-53.4899 406.752,-39.0555"/>
<polygon fill="red" stroke="red" stroke-width="0.459828" points="410.019,-37.7741 403.695,-29.2734 403.337,-39.8621 410.019,-37.7741"/>
</g>
<!-- &#45;5 -->
<g id="node5" class="node"><title>&#45;5</title>
<polygon fill="lightgray" stroke="black" points="476.5,-99.4472 452.5,-99.4472 452.5,-81.4472 476.5,-81.4472 476.5,-99.4472"/>
<text text-anchor="middle" x="464.5" y="-88.2472" font-family="Times,serif" font-size="9.00">&#45;5</text>
</g>
<!-- &#45;5&#45;&gt;0 -->
<g id="edge21" class="edge"><title>&#45;5&#45;&gt;0</title>
<path fill="none" stroke="red" stroke-width="1.05683" d="M469.488,-81.2897C476.045,-70.566 487.794,-51.3498 496.87,-36.505"/>
<polygon fill="red" stroke="red" stroke-width="1.05683" points="499.876,-38.2993 502.106,-27.9419 493.904,-34.6477 499.876,-38.2993"/>
</g>
<!-- &#45;5&#45;&gt;3 -->
<g id="edge27" class="edge"><title>&#45;5&#45;&gt;3</title>
<path fill="none" stroke="red" stroke-width="0.169549" d="M457.296,-81.2897C447.367,-70.0479 429.196,-49.4731 415.871,-34.3854"/>
<polygon fill="red" stroke="red" stroke-width="0.169549" points="418.293,-31.8404 409.05,-26.6619 413.046,-36.4742 418.293,-31.8404"/>
</g>
<!-- &#45;6 -->
<g id="node6" class="node"><title>&#45;6</title>
<polygon fill="lightgray" stroke="black" points="859.5,-99.4472 835.5,-99.4472 835.5,-81.4472 859.5,-81.4472 859.5,-99.4472"/>
<text text-anchor="middle" x="847.5" y="-88.2472" font-family="Times,serif" font-size="9.00">&#45;6</text>
</g>
<!-- 2 -->
<g id="node27" class="node"><title>2</title>
<ellipse fill="lightblue" stroke="black" cx="792.5" cy="-14.8492" rx="14.7" ry="14.7"/>
<text text-anchor="middle" x="792.5" y="-12.6492" font-family="Times,serif" font-size="9.00">2</text>
</g>
<!-- &#45;6&#45;&gt;2 -->
<g id="edge5" class="edge"><title>&#45;6&#45;&gt;2</title>
<path fill="none" stroke="red" stroke-width="0.332563" d="M841.404,-81.2897C833.174,-70.2771 818.251,-50.3083 807.047,-35.3151"/>
<polygon fill="red" stroke="red" stroke-width="0.332563" points="809.748,-33.0827 800.958,-27.1675 804.141,-37.2731 809.748,-33.0827"/>
</g>
<!-- &#45;7 -->
<g id="node7" class="node"><title>&#45;7</title>
<polygon fill="lightgray" stroke="black" points="165.5,-99.4472 141.5,-99.4472 141.5,-81.4472 165.5,-81.4472 165.5,-99.4472"/>
<text text-anchor="middle" x="153.5" y="-88.2472" font-family="Times,serif" font-size="9.00">&#45;7</text>
</g>
<!-- &#45;7&#45;&gt;1 -->
<g id="edge33" class="edge"><title>&#45;7&#45;&gt;1</title>
<path fill="none" stroke="red" stroke-width="0.198041" d="M160.594,-81.2897C170.369,-70.0479 188.261,-49.4731 201.381,-34.3854"/>
<polygon fill="red" stroke="red" stroke-width="0.198041" points="204.177,-36.5046 208.097,-26.6619 198.894,-31.9112 204.177,-36.5046"/>
</g>
<!-- &#45;8 -->
<g id="node8" class="node"><title>&#45;8</title>
<polygon fill="lightgray" stroke="black" points="207.5,-99.4472 183.5,-99.4472 183.5,-81.4472 207.5,-81.4472 207.5,-99.4472"/>
<text text-anchor="middle" x="195.5" y="-88.2472" font-family="Times,serif" font-size="9.00">&#45;8</text>
</g>
<!-- &#45;8&#45;&gt;1 -->
<g id="edge4" class="edge"><title>&#45;8&#45;&gt;1</title>
<path fill="none" stroke="red" stroke-width="0.103571" d="M197.938,-81.2897C200.963,-71.1707 206.248,-53.4899 210.563,-39.0555"/>
<polygon fill="red" stroke="red" stroke-width="0.103571" points="213.977,-39.8569 213.487,-29.2734 207.27,-37.852 213.977,-39.8569"/>
</g>
<!-- &#45;9 -->
<g id="node9" class="node"><title>&#45;9</title>
<polygon fill="lightgray" stroke="black" points="702.5,-99.4472 678.5,-99.4472 678.5,-81.4472 702.5,-81.4472 702.5,-99.4472"/>
<text text-anchor="middle" x="690.5" y="-88.2472" font-family="Times,serif" font-size="9.00">&#45;9</text>
</g>
<!-- &#45;9&#45;&gt;0 -->
<g id="edge25" class="edge"><title>&#45;9&#45;&gt;0</title>
<path fill="none" stroke="red" stroke-width="0.489077" d="M685.125,-81.3654C681.318,-76.2137 675.784,-69.7653 669.5,-65.6985 626.707,-38.0041 567.55,-24.8688 534.469,-19.3358"/>
<polygon fill="red" stroke="red" stroke-width="0.489077" points="534.733,-15.8345 524.311,-17.7409 533.647,-22.7498 534.733,-15.8345"/>
</g>
<!-- &#45;10 -->
<g id="node10" class="node"><title>&#45;10</title>
<polygon fill="lightgray" stroke="black" points="524,-99.4472 495,-99.4472 495,-81.4472 524,-81.4472 524,-99.4472"/>
<text text-anchor="middle" x="509.5" y="-88.2472" font-family="Times,serif" font-size="9.00">&#45;10</text>
</g>
<!-- &#45;10&#45;&gt;0 -->
<g id="edge18" class="edge"><title>&#45;10&#45;&gt;0</title>
<path fill="none" stroke="green" stroke-width="0.281889" d="M509.5,-81.2897C509.5,-71.3882 509.5,-54.2466 509.5,-39.9908"/>
<polygon fill="green" stroke="green" stroke-width="0.281889" points="513,-39.8196 509.5,-29.8196 506,-39.8196 513,-39.8196"/>
</g>
<!-- &#45;11 -->
<g id="node11" class="node"><title>&#45;11</title>
<polygon fill="lightgray" stroke="black" points="1044,-99.4472 1015,-99.4472 1015,-81.4472 1044,-81.4472 1044,-99.4472"/>
<text text-anchor="middle" x="1029.5" y="-88.2472" font-family="Times,serif" font-size="9.00">&#45;11</text>
</g>
<!-- &#45;12 -->
<g id="node12" class="node"><title>&#45;12</title>
<polygon fill="lightgray" stroke="black" points="29,-99.4472 0,-99.4472 0,-81.4472 29,-81.4472 29,-99.4472"/>
<text text-anchor="middle" x="14.5" y="-88.2472" font-family="Times,serif" font-size="9.00">&#45;12</text>
</g>
<!-- &#45;12&#45;&gt;1 -->
<g id="edge11" class="edge"><title>&#45;12&#45;&gt;1</title>
<path fill="none" stroke="green" stroke-width="0.452825" d="M20.4988,-81.3115C24.7162,-76.1371 30.7879,-69.6836 37.5,-65.6985 87.5311,-35.9939 155.86,-23.4399 192.255,-18.5877"/>
<polygon fill="green" stroke="green" stroke-width="0.452825" points="192.977,-22.025 202.47,-17.3187 192.114,-15.0784 192.977,-22.025"/>
</g>
<!-- &#45;13 -->
<g id="node13" class="node"><title>&#45;13</title>
<polygon fill="lightgray" stroke="black" points="1091,-99.4472 1062,-99.4472 1062,-81.4472 1091,-81.4472 1091,-99.4472"/>
<text text-anchor="middle" x="1076.5" y="-88.2472" font-family="Times,serif" font-size="9.00">&#45;13</text>
</g>
<!-- &#45;14 -->
<g id="node14" class="node"><title>&#45;14</title>
<polygon fill="lightgray" stroke="black" points="392,-99.4472 363,-99.4472 363,-81.4472 392,-81.4472 392,-99.4472"/>
<text text-anchor="middle" x="377.5" y="-88.2472" font-family="Times,serif" font-size="9.00">&#45;14</text>
</g>
<!-- &#45;14&#45;&gt;1 -->
<g id="edge35" class="edge"><title>&#45;14&#45;&gt;1</title>
<path fill="none" stroke="green" stroke-width="0.266821" d="M370.66,-81.0486C366.209,-76.0305 360.032,-69.8461 353.5,-65.6985 317.734,-42.9882 270.141,-28.5795 241.778,-21.3817"/>
<polygon fill="green" stroke="green" stroke-width="0.266821" points="242.459,-17.9452 231.915,-18.9738 240.799,-24.7455 242.459,-17.9452"/>
</g>
<!-- &#45;14&#45;&gt;2 -->
<g id="edge10" class="edge"><title>&#45;14&#45;&gt;2</title>
<path fill="none" stroke="red" stroke-width="0.378831" d="M383.653,-80.9868C388.008,-75.6752 394.334,-69.1909 401.5,-65.6985 466.728,-33.9102 692.208,-20.5799 767.673,-16.941"/>
<polygon fill="red" stroke="red" stroke-width="0.378831" points="767.856,-20.4363 777.681,-16.4734 767.529,-13.444 767.856,-20.4363"/>
</g>
<!-- &#45;14&#45;&gt;3 -->
<g id="edge23" class="edge"><title>&#45;14&#45;&gt;3</title>
<path fill="none" stroke="green" stroke-width="0.565971" d="M379.938,-81.2897C382.963,-71.1707 388.248,-53.4899 392.563,-39.0555"/>
<polygon fill="green" stroke="green" stroke-width="0.565971" points="395.977,-39.8569 395.487,-29.2734 389.27,-37.852 395.977,-39.8569"/>
</g>
<!-- &#45;15 -->
<g id="node15" class="node"><title>&#45;15</title>
<polygon fill="lightgray" stroke="black" points="76,-99.4472 47,-99.4472 47,-81.4472 76,-81.4472 76,-99.4472"/>
<text text-anchor="middle" x="61.5" y="-88.2472" font-family="Times,serif" font-size="9.00">&#45;15</text>
</g>
<!-- &#45;15&#45;&gt;1 -->
<g id="edge12" class="edge"><title>&#45;15&#45;&gt;1</title>
<path fill="none" stroke="red" stroke-width="0.227889" d="M68.0005,-81.0518C72.2457,-76.0349 78.1627,-69.8506 84.5,-65.6985 119.067,-43.0507 165.375,-28.692 193.237,-21.4755"/>
<polygon fill="red" stroke="red" stroke-width="0.227889" points="194.091,-24.8697 202.949,-19.0571 192.4,-18.0772 194.091,-24.8697"/>
</g>
<!-- &#45;16 -->
<g id="node16" class="node"><title>&#45;16</title>
<polygon fill="lightgray" stroke="black" points="255,-99.4472 226,-99.4472 226,-81.4472 255,-81.4472 255,-99.4472"/>
<text text-anchor="middle" x="240.5" y="-88.2472" font-family="Times,serif" font-size="9.00">&#45;16</text>
</g>
<!-- &#45;16&#45;&gt;0 -->
<g id="edge15" class="edge"><title>&#45;16&#45;&gt;0</title>
<path fill="none" stroke="green" stroke-width="0.599158" d="M246.741,-81.1596C251.134,-75.921 257.467,-69.4531 264.5,-65.6985 335.316,-27.89 362.835,-45.7089 441.5,-29.6985 455.981,-26.7513 472.195,-23.449 485.158,-20.8084"/>
<polygon fill="green" stroke="green" stroke-width="0.599158" points="486.073,-24.1941 495.173,-18.7683 484.675,-17.335 486.073,-24.1941"/>
</g>
<!-- &#45;16&#45;&gt;1 -->
<g id="edge24" class="edge"><title>&#45;16&#45;&gt;1</title>
<path fill="none" stroke="red" stroke-width="0.260698" d="M237.951,-81.2897C234.788,-71.1707 229.263,-53.4899 224.752,-39.0555"/>
<polygon fill="red" stroke="red" stroke-width="0.260698" points="228.019,-37.7741 221.695,-29.2734 221.337,-39.8621 228.019,-37.7741"/>
</g>
<!-- &#45;17 -->
<g id="node17" class="node"><title>&#45;17</title>
<polygon fill="lightgray" stroke="black" points="345,-99.4472 316,-99.4472 316,-81.4472 345,-81.4472 345,-99.4472"/>
<text text-anchor="middle" x="330.5" y="-88.2472" font-family="Times,serif" font-size="9.00">&#45;17</text>
</g>
<!-- &#45;17&#45;&gt;0 -->
<g id="edge3" class="edge"><title>&#45;17&#45;&gt;0</title>
<path fill="none" stroke="red" stroke-width="0.257363" d="M336.551,-81.3976C340.79,-76.2594 346.867,-69.8141 353.5,-65.6985 395.609,-39.57 452.693,-25.9127 484.84,-19.8567"/>
<polygon fill="red" stroke="red" stroke-width="0.257363" points="485.502,-23.294 494.729,-18.0872 484.269,-16.4034 485.502,-23.294"/>
</g>
<!-- &#45;17&#45;&gt;1 -->
<g id="edge32" class="edge"><title>&#45;17&#45;&gt;1</title>
<path fill="none" stroke="green" stroke-width="0.135521" d="M323.413,-81.405C318.869,-76.5211 312.681,-70.3525 306.5,-65.6985 285.392,-49.8067 258.661,-35.5078 240.028,-26.3422"/>
<polygon fill="green" stroke="green" stroke-width="0.135521" points="241.375,-23.106 230.847,-21.9184 238.336,-29.4122 241.375,-23.106"/>
</g>
<!-- &#45;18 -->
<g id="node18" class="node"><title>&#45;18</title>
<polygon fill="lightgray" stroke="black" points="907,-99.4472 878,-99.4472 878,-81.4472 907,-81.4472 907,-99.4472"/>
<text text-anchor="middle" x="892.5" y="-88.2472" font-family="Times,serif" font-size="9.00">&#45;18</text>
</g>
<!-- &#45;18&#45;&gt;2 -->
<g id="edge19" class="edge"><title>&#45;18&#45;&gt;2</title>
<path fill="none" stroke="red" stroke-width="0.420096" d="M884.874,-81.1127C880.333,-76.3555 874.333,-70.4183 868.5,-65.6985 851.13,-51.6423 829.721,-37.8835 814.058,-28.3942"/>
<polygon fill="red" stroke="red" stroke-width="0.420096" points="815.516,-25.1888 805.135,-23.0729 811.931,-31.2009 815.516,-25.1888"/>
</g>
<!-- &#45;19 -->
<g id="node19" class="node"><title>&#45;19</title>
<polygon fill="lightgray" stroke="black" points="618,-99.4472 589,-99.4472 589,-81.4472 618,-81.4472 618,-99.4472"/>
<text text-anchor="middle" x="603.5" y="-88.2472" font-family="Times,serif" font-size="9.00">&#45;19</text>
</g>
<!-- &#45;19&#45;&gt;0 -->
<g id="edge28" class="edge"><title>&#45;19&#45;&gt;0</title>
<path fill="none" stroke="green" stroke-width="0.141878" d="M596.19,-81.151C591.837,-76.4066 586.087,-70.4694 580.5,-65.6985 564.622,-52.1395 545.119,-38.6471 530.574,-29.1254"/>
<polygon fill="green" stroke="green" stroke-width="0.141878" points="532.121,-25.9583 521.82,-23.4809 528.328,-31.8415 532.121,-25.9583"/>
</g>
<!-- &#45;19&#45;&gt;1 -->
<g id="edge22" class="edge"><title>&#45;19&#45;&gt;1</title>
<path fill="none" stroke="red" stroke-width="0.684167" d="M597.667,-81.0101C593.519,-75.7084 587.463,-69.2263 580.5,-65.6985 550.347,-50.4221 320.036,-26.1497 242.719,-18.3499"/>
<polygon fill="red" stroke="red" stroke-width="0.684167" points="242.763,-14.8369 232.464,-17.3217 242.064,-21.802 242.763,-14.8369"/>
</g>
<!-- &#45;19&#45;&gt;2 -->
<g id="edge8" class="edge"><title>&#45;19&#45;&gt;2</title>
<path fill="none" stroke="green" stroke-width="0.172114" d="M609.86,-81.3718C614.304,-76.2228 620.649,-69.7751 627.5,-65.6985 672.982,-38.635 734.372,-25.1733 767.983,-19.4366"/>
<polygon fill="green" stroke="green" stroke-width="0.172114" points="768.551,-22.8902 777.864,-17.838 767.433,-15.9801 768.551,-22.8902"/>
</g>
<!-- &#45;20 -->
<g id="node20" class="node"><title>&#45;20</title>
<polygon fill="lightgray" stroke="black" points="954,-99.4472 925,-99.4472 925,-81.4472 954,-81.4472 954,-99.4472"/>
<text text-anchor="middle" x="939.5" y="-88.2472" font-family="Times,serif" font-size="9.00">&#45;20</text>
</g>
<!-- &#45;20&#45;&gt;2 -->
<g id="edge1" class="edge"><title>&#45;20&#45;&gt;2</title>
<path fill="none" stroke="green" stroke-width="0.172075" d="M932.965,-81.1043C928.706,-76.1071 922.788,-69.9252 916.5,-65.6985 884.852,-44.4243 842.73,-29.9198 816.628,-22.2614"/>
<polygon fill="green" stroke="green" stroke-width="0.172075" points="817.396,-18.8413 806.821,-19.486 815.49,-25.5768 817.396,-18.8413"/>
</g>
<!-- &#45;21 -->
<g id="node21" class="node"><title>&#45;21</title>
<polygon fill="lightgray" stroke="black" points="750,-99.4472 721,-99.4472 721,-81.4472 750,-81.4472 750,-99.4472"/>
<text text-anchor="middle" x="735.5" y="-88.2472" font-family="Times,serif" font-size="9.00">&#45;21</text>
</g>
<!-- &#45;21&#45;&gt;0 -->
<g id="edge14" class="edge"><title>&#45;21&#45;&gt;0</title>
<path fill="none" stroke="green" stroke-width="0.544771" d="M729.207,-81.2548C724.792,-76.0563 718.454,-69.5975 711.5,-65.6985 653.47,-33.1597 574.38,-21.6385 534.571,-17.7351"/>
<polygon fill="green" stroke="green" stroke-width="0.544771" points="534.708,-14.2334 524.435,-16.825 534.082,-21.2053 534.708,-14.2334"/>
</g>
<!-- &#45;21&#45;&gt;2 -->
<g id="edge30" class="edge"><title>&#45;21&#45;&gt;2</title>
<path fill="none" stroke="red" stroke-width="0.457787" d="M741.818,-81.2897C750.347,-70.2771 765.812,-50.3083 777.424,-35.3151"/>
<polygon fill="red" stroke="red" stroke-width="0.457787" points="780.378,-37.2168 783.734,-27.1675 774.844,-32.9306 780.378,-37.2168"/>
</g>
<!-- &#45;22 -->
<g id="node22" class="node"><title>&#45;22</title>
<polygon fill="lightgray" stroke="black" points="123,-99.4472 94,-99.4472 94,-81.4472 123,-81.4472 123,-99.4472"/>
<text text-anchor="middle" x="108.5" y="-88.2472" font-family="Times,serif" font-size="9.00">&#45;22</text>
</g>
<!-- &#45;22&#45;&gt;1 -->
<g id="edge16" class="edge"><title>&#45;22&#45;&gt;1</title>
<path fill="none" stroke="red" stroke-width="0.166083" d="M116.038,-81.002C120.551,-76.2079 126.551,-70.2707 132.5,-65.6985 152.528,-50.3055 177.73,-36.0856 195.475,-26.8064"/>
<polygon fill="red" stroke="red" stroke-width="0.166083" points="197.186,-29.8625 204.485,-22.1836 193.99,-23.6343 197.186,-29.8625"/>
</g>
<!-- &#45;23 -->
<g id="node23" class="node"><title>&#45;23</title>
<polygon fill="lightgray" stroke="black" points="1138,-99.4472 1109,-99.4472 1109,-81.4472 1138,-81.4472 1138,-99.4472"/>
<text text-anchor="middle" x="1123.5" y="-88.2472" font-family="Times,serif" font-size="9.00">&#45;23</text>
</g>
<!-- &#45;24 -->
<g id="node24" class="node"><title>&#45;24</title>
<polygon fill="lightgray" stroke="black" points="571,-99.4472 542,-99.4472 542,-81.4472 571,-81.4472 571,-99.4472"/>
<text text-anchor="middle" x="556.5" y="-88.2472" font-family="Times,serif" font-size="9.00">&#45;24</text>
</g>
<!-- &#45;24&#45;&gt;0 -->
<g id="edge31" class="edge"><title>&#45;24&#45;&gt;0</title>
<path fill="none" stroke="green" stroke-width="0.236679" d="M551.291,-81.2897C544.403,-70.504 532.029,-51.1274 522.527,-36.248"/>
<polygon fill="green" stroke="green" stroke-width="0.236679" points="525.388,-34.226 517.056,-27.6817 519.489,-37.9935 525.388,-34.226"/>
</g>
<!-- 1&#45;&gt;1 -->
<g id="edge20" class="edge"><title>1&#45;&gt;1</title>
<path fill="none" stroke="green" stroke-width="0.420884" d="M227.928,-25.6755C238.539,-32.0439 250.349,-28.4352 250.349,-14.8492 250.349,-5.50891 244.767,-0.884351 237.83,-0.975566"/>
<polygon fill="green" stroke="green" stroke-width="0.420884" points="236.456,2.26363 227.928,-4.02295 238.515,-4.42672 236.456,2.26363"/>
</g>
<!-- 2&#45;&gt;2 -->
<g id="edge17" class="edge"><title>2&#45;&gt;2</title>
<path fill="none" stroke="green" stroke-width="0.802195" d="M802.928,-25.6755C813.539,-32.0439 825.349,-28.4352 825.349,-14.8492 825.349,-5.50891 819.767,-0.884351 812.83,-0.975566"/>
<polygon fill="green" stroke="green" stroke-width="0.802195" points="811.456,2.26363 802.928,-4.02295 813.515,-4.42672 811.456,2.26363"/>
</g>
<!-- 3&#45;&gt;3 -->
<g id="edge9" class="edge"><title>3&#45;&gt;3</title>
<path fill="none" stroke="green" stroke-width="0.390153" d="M409.928,-25.6755C420.539,-32.0439 432.349,-28.4352 432.349,-14.8492 432.349,-5.50891 426.767,-0.884351 419.83,-0.975566"/>
<polygon fill="green" stroke="green" stroke-width="0.390153" points="418.456,2.26363 409.928,-4.02295 420.515,-4.42672 418.456,2.26363"/>
</g>
<!-- 1439 -->
<g id="node29" class="node"><title>1439</title>
<ellipse fill="white" stroke="black" cx="792.5" cy="-90.4472" rx="25" ry="25"/>
<text text-anchor="middle" x="792.5" y="-88.2472" font-family="Times,serif" font-size="9.00">1439</text>
</g>
<!-- 1439&#45;&gt;2 -->
<g id="edge34" class="edge"><title>1439&#45;&gt;2</title>
<path fill="none" stroke="red" stroke-width="0.226787" d="M792.5,-65.3485C792.5,-57.1867 792.5,-48.0749 792.5,-39.9156"/>
<polygon fill="red" stroke="red" stroke-width="0.226787" points="796,-39.8982 792.5,-29.8983 789,-39.8983 796,-39.8982"/>
</g>
</g>
</svg>
