<?xml version="1.0" encoding="UTF-8" standalone="no"?>
<!DOCTYPE svg PUBLIC "-//W3C//DTD SVG 1.1//EN"
 "http://www.w3.org/Graphics/SVG/1.1/DTD/svg11.dtd">
<!-- Generated by graphviz version 2.38.0 (20140413.2041)
 -->
<!-- Title: %3 Pages: 1 -->
<svg width="1146pt" height="123pt"
 viewBox="0.00 0.00 1145.50 123.20" xmlns="http://www.w3.org/2000/svg" xmlns:xlink="http://www.w3.org/1999/xlink">
<g id="graph0" class="graph" transform="scale(1 1) rotate(0) translate(4 119.196)">
<title>%3</title>
<polygon fill="white" stroke="none" points="-4,4 -4,-119.196 1141.5,-119.196 1141.5,4 -4,4"/>
<!-- &#45;1 -->
<g id="node1" class="node"><title>&#45;1</title>
<polygon fill="lightgray" stroke="black" points="204,-99.4472 180,-99.4472 180,-81.4472 204,-81.4472 204,-99.4472"/>
<text text-anchor="middle" x="192" y="-88.2472" font-family="Times,serif" font-size="9.00">&#45;1</text>
</g>
<!-- 0 -->
<g id="node25" class="node"><title>0</title>
<ellipse fill="lightblue" stroke="black" cx="298" cy="-14.8492" rx="14.7" ry="14.7"/>
<text text-anchor="middle" x="298" y="-12.6492" font-family="Times,serif" font-size="9.00">0</text>
</g>
<!-- &#45;1&#45;&gt;0 -->
<g id="edge7" class="edge"><title>&#45;1&#45;&gt;0</title>
<path fill="none" stroke="red" stroke-width="0.108719" d="M198.06,-81.3786C201.982,-76.4847 207.39,-70.3149 213,-65.6985 232.505,-49.6471 257.787,-35.5283 275.693,-26.4527"/>
<polygon fill="red" stroke="red" stroke-width="0.108719" points="277.387,-29.5198 284.799,-21.9492 274.284,-23.2452 277.387,-29.5198"/>
</g>
<!-- 1 -->
<g id="node26" class="node"><title>1</title>
<ellipse fill="lightblue" stroke="black" cx="462" cy="-14.8492" rx="14.7" ry="14.7"/>
<text text-anchor="middle" x="462" y="-12.6492" font-family="Times,serif" font-size="9.00">1</text>
</g>
<!-- &#45;1&#45;&gt;1 -->
<g id="edge9" class="edge"><title>&#45;1&#45;&gt;1</title>
<path fill="none" stroke="red" stroke-width="0.612242" d="M197.24,-81.1455C200.991,-75.901 206.512,-69.4318 213,-65.6985 251.252,-43.687 381.966,-25.6155 437.125,-18.7839"/>
<polygon fill="red" stroke="red" stroke-width="0.612242" points="437.89,-22.2167 447.394,-17.5344 437.045,-15.2679 437.89,-22.2167"/>
</g>
<!-- 3 -->
<g id="node28" class="node"><title>3</title>
<ellipse fill="lightblue" stroke="black" cx="201" cy="-14.8492" rx="14.7" ry="14.7"/>
<text text-anchor="middle" x="201" y="-12.6492" font-family="Times,serif" font-size="9.00">3</text>
</g>
<!-- &#45;1&#45;&gt;3 -->
<g id="edge38" class="edge"><title>&#45;1&#45;&gt;3</title>
<path fill="none" stroke="red" stroke-width="0.256744" d="M192.998,-81.2897C194.208,-71.3882 196.305,-54.2466 198.048,-39.9908"/>
<polygon fill="red" stroke="red" stroke-width="0.256744" points="201.552,-40.1705 199.292,-29.8196 194.604,-39.3208 201.552,-40.1705"/>
</g>
<!-- &#45;2 -->
<g id="node2" class="node"><title>&#45;2</title>
<polygon fill="lightgray" stroke="black" points="613,-99.4472 589,-99.4472 589,-81.4472 613,-81.4472 613,-99.4472"/>
<text text-anchor="middle" x="601" y="-88.2472" font-family="Times,serif" font-size="9.00">&#45;2</text>
</g>
<!-- &#45;2&#45;&gt;0 -->
<g id="edge2" class="edge"><title>&#45;2&#45;&gt;0</title>
<path fill="none" stroke="red" stroke-width="0.263751" d="M595.787,-81.097C592.048,-75.8319 586.529,-69.3581 580,-65.6985 535.803,-40.9269 383.234,-24.0019 322.868,-18.131"/>
<polygon fill="red" stroke="red" stroke-width="0.263751" points="323.003,-14.6281 312.716,-17.164 322.339,-21.5966 323.003,-14.6281"/>
</g>
<!-- 2 -->
<g id="node27" class="node"><title>2</title>
<ellipse fill="lightblue" stroke="black" cx="740" cy="-14.8492" rx="14.7" ry="14.7"/>
<text text-anchor="middle" x="740" y="-12.6492" font-family="Times,serif" font-size="9.00">2</text>
</g>
<!-- &#45;2&#45;&gt;2 -->
<g id="edge30" class="edge"><title>&#45;2&#45;&gt;2</title>
<path fill="none" stroke="green" stroke-width="0.267984" stroke-dasharray="1,5" d="M607.214,-81.1343C611.273,-76.1485 616.933,-69.9678 623,-65.6985 652.23,-45.1304 691.275,-30.6423 716.035,-22.769"/>
<polygon fill="green" stroke="green" stroke-width="0.267984" points="717.169,-26.082 725.702,-19.8012 715.115,-19.3903 717.169,-26.082"/>
</g>
<!-- &#45;3 -->
<g id="node3" class="node"><title>&#45;3</title>
<polygon fill="lightgray" stroke="black" points="934,-99.4472 910,-99.4472 910,-81.4472 934,-81.4472 934,-99.4472"/>
<text text-anchor="middle" x="922" y="-88.2472" font-family="Times,serif" font-size="9.00">&#45;3</text>
</g>
<!-- &#45;3&#45;&gt;2 -->
<g id="edge19" class="edge"><title>&#45;3&#45;&gt;2</title>
<path fill="none" stroke="red" stroke-width="0.258088" stroke-dasharray="1,5" d="M916.628,-81.3617C912.821,-76.2085 907.288,-69.7598 901,-65.6985 857.939,-37.8842 798.413,-24.7931 765.125,-19.3"/>
<polygon fill="red" stroke="red" stroke-width="0.258088" points="765.321,-15.7888 754.903,-17.7181 764.25,-22.7065 765.321,-15.7888"/>
</g>
<!-- &#45;4 -->
<g id="node4" class="node"><title>&#45;4</title>
<polygon fill="lightgray" stroke="black" points="246,-99.4472 222,-99.4472 222,-81.4472 246,-81.4472 246,-99.4472"/>
<text text-anchor="middle" x="234" y="-88.2472" font-family="Times,serif" font-size="9.00">&#45;4</text>
</g>
<!-- &#45;4&#45;&gt;0 -->
<g id="edge33" class="edge"><title>&#45;4&#45;&gt;0</title>
<path fill="none" stroke="green" stroke-width="0.306642" d="M241.094,-81.2897C250.869,-70.0479 268.761,-49.4731 281.881,-34.3854"/>
<polygon fill="green" stroke="green" stroke-width="0.306642" points="284.677,-36.5046 288.597,-26.6619 279.394,-31.9112 284.677,-36.5046"/>
</g>
<!-- &#45;4&#45;&gt;1 -->
<g id="edge42" class="edge"><title>&#45;4&#45;&gt;1</title>
<path fill="none" stroke="green" stroke-width="0.671609" stroke-dasharray="1,5" d="M239.289,-81.2279C243.06,-76.0181 248.586,-69.5567 255,-65.6985 313.757,-30.3555 396.044,-20.0585 436.914,-17.0675"/>
<polygon fill="green" stroke="green" stroke-width="0.671609" points="437.306,-20.5496 447.061,-16.4154 436.857,-13.564 437.306,-20.5496"/>
</g>
<!-- &#45;4&#45;&gt;3 -->
<g id="edge16" class="edge"><title>&#45;4&#45;&gt;3</title>
<path fill="none" stroke="red" stroke-width="0.459828" d="M230.342,-81.2897C225.707,-70.9508 217.531,-52.7179 210.985,-38.1193"/>
<polygon fill="red" stroke="red" stroke-width="0.459828" points="214.063,-36.4276 206.778,-28.7348 207.675,-39.2916 214.063,-36.4276"/>
</g>
<!-- &#45;5 -->
<g id="node5" class="node"><title>&#45;5</title>
<polygon fill="lightgray" stroke="black" points="24,-99.4472 0,-99.4472 0,-81.4472 24,-81.4472 24,-99.4472"/>
<text text-anchor="middle" x="12" y="-88.2472" font-family="Times,serif" font-size="9.00">&#45;5</text>
</g>
<!-- &#45;5&#45;&gt;0 -->
<g id="edge26" class="edge"><title>&#45;5&#45;&gt;0</title>
<path fill="none" stroke="red" stroke-width="1.05683" d="M17.2066,-81.0858C20.943,-75.8161 26.461,-69.3412 33,-65.6985 115.725,-19.6143 150.351,-49.2743 243,-29.6985 253.08,-27.5688 264.107,-24.8666 273.624,-22.4157"/>
<polygon fill="red" stroke="red" stroke-width="1.05683" points="274.811,-25.7226 283.595,-19.7991 273.035,-18.9518 274.811,-25.7226"/>
</g>
<!-- &#45;5&#45;&gt;3 -->
<g id="edge34" class="edge"><title>&#45;5&#45;&gt;3</title>
<path fill="none" stroke="red" stroke-width="0.169549" d="M17.3565,-81.3372C21.1563,-76.1736 26.6886,-69.7226 33,-65.6985 78.3697,-36.7715 141.235,-24.0211 175.768,-18.9023"/>
<polygon fill="red" stroke="red" stroke-width="0.169549" points="176.5,-22.3344 185.926,-17.4976 175.541,-15.4004 176.5,-22.3344"/>
</g>
<!-- &#45;6 -->
<g id="node6" class="node"><title>&#45;6</title>
<polygon fill="lightgray" stroke="black" points="976,-99.4472 952,-99.4472 952,-81.4472 976,-81.4472 976,-99.4472"/>
<text text-anchor="middle" x="964" y="-88.2472" font-family="Times,serif" font-size="9.00">&#45;6</text>
</g>
<!-- &#45;6&#45;&gt;2 -->
<g id="edge6" class="edge"><title>&#45;6&#45;&gt;2</title>
<path fill="none" stroke="red" stroke-width="0.332563" d="M958.705,-81.2373C954.932,-76.0315 949.406,-69.5711 943,-65.6985 885.536,-30.9575 805.088,-20.3949 764.902,-17.2084"/>
<polygon fill="red" stroke="red" stroke-width="0.332563" points="765.134,-13.7162 754.913,-16.505 764.642,-20.6989 765.134,-13.7162"/>
</g>
<!-- &#45;7 -->
<g id="node7" class="node"><title>&#45;7</title>
<polygon fill="lightgray" stroke="black" points="797,-99.4472 773,-99.4472 773,-81.4472 797,-81.4472 797,-99.4472"/>
<text text-anchor="middle" x="785" y="-88.2472" font-family="Times,serif" font-size="9.00">&#45;7</text>
</g>
<!-- &#45;7&#45;&gt;1 -->
<g id="edge43" class="edge"><title>&#45;7&#45;&gt;1</title>
<path fill="none" stroke="red" stroke-width="0.198041" d="M779.801,-81.0725C776.068,-75.7971 770.55,-69.321 764,-65.6985 716.293,-39.315 551.06,-23.2013 487.338,-17.8435"/>
<polygon fill="red" stroke="red" stroke-width="0.198041" points="487.258,-14.3252 477.005,-16.9948 486.685,-21.3018 487.258,-14.3252"/>
</g>
<!-- &#45;8 -->
<g id="node8" class="node"><title>&#45;8</title>
<polygon fill="lightgray" stroke="black" points="288,-99.4472 264,-99.4472 264,-81.4472 288,-81.4472 288,-99.4472"/>
<text text-anchor="middle" x="276" y="-88.2472" font-family="Times,serif" font-size="9.00">&#45;8</text>
</g>
<!-- &#45;8&#45;&gt;0 -->
<g id="edge45" class="edge"><title>&#45;8&#45;&gt;0</title>
<path fill="none" stroke="red" stroke-width="0.103283" stroke-dasharray="1,5" d="M278.438,-81.2897C281.463,-71.1707 286.748,-53.4899 291.063,-39.0555"/>
<polygon fill="red" stroke="red" stroke-width="0.103283" points="294.477,-39.8569 293.987,-29.2734 287.77,-37.852 294.477,-39.8569"/>
</g>
<!-- &#45;8&#45;&gt;1 -->
<g id="edge5" class="edge"><title>&#45;8&#45;&gt;1</title>
<path fill="none" stroke="red" stroke-width="0.103571" d="M281.699,-81.3582C285.717,-76.2034 291.521,-69.7544 298,-65.6985 342.417,-37.892 403.326,-24.7531 437.023,-19.2601"/>
<polygon fill="red" stroke="red" stroke-width="0.103571" points="437.988,-22.6531 447.344,-17.6802 436.929,-15.7337 437.988,-22.6531"/>
</g>
<!-- &#45;9 -->
<g id="node9" class="node"><title>&#45;9</title>
<polygon fill="lightgray" stroke="black" points="114,-99.4472 90,-99.4472 90,-81.4472 114,-81.4472 114,-99.4472"/>
<text text-anchor="middle" x="102" y="-88.2472" font-family="Times,serif" font-size="9.00">&#45;9</text>
</g>
<!-- &#45;9&#45;&gt;0 -->
<g id="edge32" class="edge"><title>&#45;9&#45;&gt;0</title>
<path fill="none" stroke="red" stroke-width="0.489077" d="M107.342,-81.3144C111.136,-76.1411 116.667,-69.688 123,-65.6985 135.899,-57.5734 228.838,-33.3605 273.782,-21.9397"/>
<polygon fill="red" stroke="red" stroke-width="0.489077" points="274.765,-25.3015 283.6,-19.4545 273.047,-18.5155 274.765,-25.3015"/>
</g>
<!-- &#45;10 -->
<g id="node10" class="node"><title>&#45;10</title>
<polygon fill="lightgray" stroke="black" points="71.5,-99.4472 42.5,-99.4472 42.5,-81.4472 71.5,-81.4472 71.5,-99.4472"/>
<text text-anchor="middle" x="57" y="-88.2472" font-family="Times,serif" font-size="9.00">&#45;10</text>
</g>
<!-- &#45;10&#45;&gt;0 -->
<g id="edge22" class="edge"><title>&#45;10&#45;&gt;0</title>
<path fill="none" stroke="green" stroke-width="0.281889" d="M63.2633,-81.2013C67.6656,-75.9802 74.0016,-69.5163 81,-65.6985 145.748,-30.3765 171.231,-46.7051 243,-29.6985 253.024,-27.323 264.042,-24.576 273.566,-22.1579"/>
<polygon fill="green" stroke="green" stroke-width="0.281889" points="274.731,-25.4728 283.552,-19.6049 272.997,-18.6909 274.731,-25.4728"/>
</g>
<!-- &#45;10&#45;&gt;3 -->
<g id="edge8" class="edge"><title>&#45;10&#45;&gt;3</title>
<path fill="none" stroke="red" stroke-width="0.215634" stroke-dasharray="1,5" d="M63.903,-81.1454C68.3778,-76.1637 74.5573,-69.9836 81,-65.6985 111.571,-45.3653 151.772,-30.738 177.002,-22.7796"/>
<polygon fill="red" stroke="red" stroke-width="0.215634" points="178.285,-26.0476 186.827,-19.78 176.241,-19.3526 178.285,-26.0476"/>
</g>
<!-- &#45;11 -->
<g id="node11" class="node"><title>&#45;11</title>
<polygon fill="lightgray" stroke="black" points="161.5,-99.4472 132.5,-99.4472 132.5,-81.4472 161.5,-81.4472 161.5,-99.4472"/>
<text text-anchor="middle" x="147" y="-88.2472" font-family="Times,serif" font-size="9.00">&#45;11</text>
</g>
<!-- &#45;11&#45;&gt;0 -->
<g id="edge12" class="edge"><title>&#45;11&#45;&gt;0</title>
<path fill="none" stroke="red" stroke-width="0.152441" stroke-dasharray="1,5" d="M153.874,-81.1006C158.337,-76.1021 164.515,-69.92 171,-65.6985 203.8,-44.3455 247.167,-29.7897 273.796,-22.1523"/>
<polygon fill="red" stroke="red" stroke-width="0.152441" points="275.073,-25.4303 283.778,-19.3898 273.206,-18.6839 275.073,-25.4303"/>
</g>
<!-- &#45;12 -->
<g id="node12" class="node"><title>&#45;12</title>
<polygon fill="lightgray" stroke="black" points="844.5,-99.4472 815.5,-99.4472 815.5,-81.4472 844.5,-81.4472 844.5,-99.4472"/>
<text text-anchor="middle" x="830" y="-88.2472" font-family="Times,serif" font-size="9.00">&#45;12</text>
</g>
<!-- &#45;12&#45;&gt;1 -->
<g id="edge14" class="edge"><title>&#45;12&#45;&gt;1</title>
<path fill="none" stroke="green" stroke-width="0.452825" d="M823.828,-81.0271C819.464,-75.7325 813.136,-69.2521 806,-65.6985 749.597,-37.6113 556.308,-22.1767 486.99,-17.4422"/>
<polygon fill="green" stroke="green" stroke-width="0.452825" points="487.18,-13.9472 476.97,-16.7739 486.715,-20.9317 487.18,-13.9472"/>
</g>
<!-- &#45;13 -->
<g id="node13" class="node"><title>&#45;13</title>
<polygon fill="lightgray" stroke="black" points="1137.5,-99.4472 1108.5,-99.4472 1108.5,-81.4472 1137.5,-81.4472 1137.5,-99.4472"/>
<text text-anchor="middle" x="1123" y="-88.2472" font-family="Times,serif" font-size="9.00">&#45;13</text>
</g>
<!-- &#45;14 -->
<g id="node14" class="node"><title>&#45;14</title>
<polygon fill="lightgray" stroke="black" points="523.5,-99.4472 494.5,-99.4472 494.5,-81.4472 523.5,-81.4472 523.5,-99.4472"/>
<text text-anchor="middle" x="509" y="-88.2472" font-family="Times,serif" font-size="9.00">&#45;14</text>
</g>
<!-- &#45;14&#45;&gt;1 -->
<g id="edge47" class="edge"><title>&#45;14&#45;&gt;1</title>
<path fill="none" stroke="green" stroke-width="0.266821" d="M503.791,-81.2897C496.903,-70.504 484.529,-51.1274 475.027,-36.248"/>
<polygon fill="green" stroke="green" stroke-width="0.266821" points="477.888,-34.226 469.556,-27.6817 471.989,-37.9935 477.888,-34.226"/>
</g>
<!-- &#45;14&#45;&gt;2 -->
<g id="edge13" class="edge"><title>&#45;14&#45;&gt;2</title>
<path fill="none" stroke="red" stroke-width="0.378831" d="M515.286,-81.2419C519.697,-76.038 526.036,-69.5779 533,-65.6985 592.901,-32.3316 674.675,-21.147 715.175,-17.5172"/>
<polygon fill="red" stroke="red" stroke-width="0.378831" points="715.542,-20.9989 725.225,-16.698 714.974,-14.022 715.542,-20.9989"/>
</g>
<!-- &#45;14&#45;&gt;3 -->
<g id="edge28" class="edge"><title>&#45;14&#45;&gt;3</title>
<path fill="none" stroke="green" stroke-width="0.565971" d="M503.129,-81.0827C498.966,-75.8115 492.906,-69.3364 486,-65.6985 401.442,-21.1585 368.064,-46.6061 274,-29.6985 257.812,-26.7888 239.641,-23.3421 225.478,-20.6151"/>
<polygon fill="green" stroke="green" stroke-width="0.565971" points="226.01,-17.1533 215.528,-18.6908 224.681,-24.0259 226.01,-17.1533"/>
</g>
<!-- &#45;15 -->
<g id="node15" class="node"><title>&#45;15</title>
<polygon fill="lightgray" stroke="black" points="476.5,-99.4472 447.5,-99.4472 447.5,-81.4472 476.5,-81.4472 476.5,-99.4472"/>
<text text-anchor="middle" x="462" y="-88.2472" font-family="Times,serif" font-size="9.00">&#45;15</text>
</g>
<!-- &#45;15&#45;&gt;1 -->
<g id="edge15" class="edge"><title>&#45;15&#45;&gt;1</title>
<path fill="none" stroke="red" stroke-width="0.227889" d="M462,-81.2897C462,-71.3882 462,-54.2466 462,-39.9908"/>
<polygon fill="red" stroke="red" stroke-width="0.227889" points="465.5,-39.8196 462,-29.8196 458.5,-39.8196 465.5,-39.8196"/>
</g>
<!-- &#45;16 -->
<g id="node16" class="node"><title>&#45;16</title>
<polygon fill="lightgray" stroke="black" points="335.5,-99.4472 306.5,-99.4472 306.5,-81.4472 335.5,-81.4472 335.5,-99.4472"/>
<text text-anchor="middle" x="321" y="-88.2472" font-family="Times,serif" font-size="9.00">&#45;16</text>
</g>
<!-- &#45;16&#45;&gt;0 -->
<g id="edge18" class="edge"><title>&#45;16&#45;&gt;0</title>
<path fill="none" stroke="green" stroke-width="0.599158" d="M318.451,-81.2897C315.288,-71.1707 309.763,-53.4899 305.252,-39.0555"/>
<polygon fill="green" stroke="green" stroke-width="0.599158" points="308.519,-37.7741 302.195,-29.2734 301.837,-39.8621 308.519,-37.7741"/>
</g>
<!-- &#45;16&#45;&gt;1 -->
<g id="edge31" class="edge"><title>&#45;16&#45;&gt;1</title>
<path fill="none" stroke="red" stroke-width="0.260698" d="M327.917,-81.1659C332.397,-76.1919 338.577,-70.0127 345,-65.6985 374.67,-45.7705 413.598,-31.113 438.213,-23.0286"/>
<polygon fill="red" stroke="red" stroke-width="0.260698" points="439.351,-26.3395 447.818,-19.97 437.227,-19.6695 439.351,-26.3395"/>
</g>
<!-- &#45;17 -->
<g id="node17" class="node"><title>&#45;17</title>
<polygon fill="lightgray" stroke="black" points="382.5,-99.4472 353.5,-99.4472 353.5,-81.4472 382.5,-81.4472 382.5,-99.4472"/>
<text text-anchor="middle" x="368" y="-88.2472" font-family="Times,serif" font-size="9.00">&#45;17</text>
</g>
<!-- &#45;17&#45;&gt;0 -->
<g id="edge4" class="edge"><title>&#45;17&#45;&gt;0</title>
<path fill="none" stroke="red" stroke-width="0.257363" d="M360.241,-81.2897C349.329,-69.8163 329.17,-48.6215 314.75,-33.4601"/>
<polygon fill="red" stroke="red" stroke-width="0.257363" points="317.239,-30.9989 307.812,-26.1651 312.167,-35.8232 317.239,-30.9989"/>
</g>
<!-- &#45;17&#45;&gt;1 -->
<g id="edge41" class="edge"><title>&#45;17&#45;&gt;1</title>
<path fill="none" stroke="green" stroke-width="0.135521" d="M375.694,-81.1958C380.259,-76.4663 386.259,-70.5291 392,-65.6985 407.733,-52.4611 426.813,-39.0296 441.077,-29.4491"/>
<polygon fill="green" stroke="green" stroke-width="0.135521" points="443.271,-32.1937 449.671,-23.7503 439.402,-26.3597 443.271,-32.1937"/>
</g>
<!-- &#45;18 -->
<g id="node18" class="node"><title>&#45;18</title>
<polygon fill="lightgray" stroke="black" points="660.5,-99.4472 631.5,-99.4472 631.5,-81.4472 660.5,-81.4472 660.5,-99.4472"/>
<text text-anchor="middle" x="646" y="-88.2472" font-family="Times,serif" font-size="9.00">&#45;18</text>
</g>
<!-- &#45;18&#45;&gt;0 -->
<g id="edge25" class="edge"><title>&#45;18&#45;&gt;0</title>
<path fill="none" stroke="red" stroke-width="0.387038" stroke-dasharray="1,5" d="M639.817,-81.0477C635.449,-75.7618 629.121,-69.2833 622,-65.6985 595.341,-52.2771 394.811,-27.3787 323.266,-18.8251"/>
<polygon fill="red" stroke="red" stroke-width="0.387038" points="323.281,-15.3023 312.938,-17.5969 322.454,-22.2533 323.281,-15.3023"/>
</g>
<!-- &#45;18&#45;&gt;2 -->
<g id="edge23" class="edge"><title>&#45;18&#45;&gt;2</title>
<path fill="none" stroke="red" stroke-width="0.420096" d="M653.694,-81.1958C658.259,-76.4663 664.259,-70.5291 670,-65.6985 685.733,-52.4611 704.813,-39.0296 719.077,-29.4491"/>
<polygon fill="red" stroke="red" stroke-width="0.420096" points="721.271,-32.1937 727.671,-23.7503 717.402,-26.3597 721.271,-32.1937"/>
</g>
<!-- &#45;19 -->
<g id="node19" class="node"><title>&#45;19</title>
<polygon fill="lightgray" stroke="black" points="707.5,-99.4472 678.5,-99.4472 678.5,-81.4472 707.5,-81.4472 707.5,-99.4472"/>
<text text-anchor="middle" x="693" y="-88.2472" font-family="Times,serif" font-size="9.00">&#45;19</text>
</g>
<!-- &#45;19&#45;&gt;0 -->
<g id="edge35" class="edge"><title>&#45;19&#45;&gt;0</title>
<path fill="none" stroke="green" stroke-width="0.141878" d="M687.171,-81.0026C683.025,-75.6977 676.969,-69.215 670,-65.6985 639.019,-50.0657 402.015,-25.9327 323.313,-18.2705"/>
<polygon fill="green" stroke="green" stroke-width="0.141878" points="323.183,-14.7417 312.893,-17.2625 322.509,-21.7092 323.183,-14.7417"/>
</g>
<!-- &#45;19&#45;&gt;1 -->
<g id="edge27" class="edge"><title>&#45;19&#45;&gt;1</title>
<path fill="none" stroke="red" stroke-width="0.684167" d="M687.046,-81.2338C682.848,-76.0265 676.781,-69.5657 670,-65.6985 610.167,-31.5737 527.838,-20.7295 487.026,-17.3447"/>
<polygon fill="red" stroke="red" stroke-width="0.684167" points="487.13,-13.8428 476.898,-16.5896 486.61,-20.8234 487.13,-13.8428"/>
</g>
<!-- &#45;19&#45;&gt;2 -->
<g id="edge10" class="edge"><title>&#45;19&#45;&gt;2</title>
<path fill="none" stroke="green" stroke-width="0.172114" d="M698.209,-81.2897C705.097,-70.504 717.471,-51.1274 726.973,-36.248"/>
<polygon fill="green" stroke="green" stroke-width="0.172114" points="730.011,-37.9935 732.444,-27.6817 724.112,-34.226 730.011,-37.9935"/>
</g>
<!-- &#45;20 -->
<g id="node20" class="node"><title>&#45;20</title>
<polygon fill="lightgray" stroke="black" points="891.5,-99.4472 862.5,-99.4472 862.5,-81.4472 891.5,-81.4472 891.5,-99.4472"/>
<text text-anchor="middle" x="877" y="-88.2472" font-family="Times,serif" font-size="9.00">&#45;20</text>
</g>
<!-- &#45;20&#45;&gt;1 -->
<g id="edge37" class="edge"><title>&#45;20&#45;&gt;1</title>
<path fill="none" stroke="green" stroke-width="0.721928" stroke-dasharray="1,5" d="M871.178,-80.9872C867.036,-75.6757 860.981,-69.1915 854,-65.6985 788.946,-33.1467 562.665,-20.3178 486.921,-16.8735"/>
<polygon fill="green" stroke="green" stroke-width="0.721928" points="487.019,-13.3745 476.875,-16.4322 486.712,-20.3678 487.019,-13.3745"/>
</g>
<!-- &#45;20&#45;&gt;2 -->
<g id="edge1" class="edge"><title>&#45;20&#45;&gt;2</title>
<path fill="none" stroke="green" stroke-width="0.172075" d="M870.42,-81.1703C866.144,-76.198 860.224,-70.019 854,-65.6985 825.559,-45.9548 788.044,-31.3932 763.966,-23.2642"/>
<polygon fill="green" stroke="green" stroke-width="0.172075" points="764.825,-19.8629 754.232,-20.0821 762.65,-26.5163 764.825,-19.8629"/>
</g>
<!-- &#45;21 -->
<g id="node21" class="node"><title>&#45;21</title>
<polygon fill="lightgray" stroke="black" points="754.5,-99.4472 725.5,-99.4472 725.5,-81.4472 754.5,-81.4472 754.5,-99.4472"/>
<text text-anchor="middle" x="740" y="-88.2472" font-family="Times,serif" font-size="9.00">&#45;21</text>
</g>
<!-- &#45;21&#45;&gt;0 -->
<g id="edge17" class="edge"><title>&#45;21&#45;&gt;0</title>
<path fill="none" stroke="green" stroke-width="0.544771" d="M734.548,-81.4348C730.404,-76.0334 724.201,-69.2652 717,-65.6985 699.177,-56.8699 409.956,-27.1359 322.717,-18.3278"/>
<polygon fill="green" stroke="green" stroke-width="0.544771" points="322.969,-14.8356 312.669,-17.3158 322.268,-21.8004 322.969,-14.8356"/>
</g>
<!-- &#45;21&#45;&gt;2 -->
<g id="edge39" class="edge"><title>&#45;21&#45;&gt;2</title>
<path fill="none" stroke="red" stroke-width="0.457787" d="M740,-81.2897C740,-71.3882 740,-54.2466 740,-39.9908"/>
<polygon fill="red" stroke="red" stroke-width="0.457787" points="743.5,-39.8196 740,-29.8196 736.5,-39.8196 743.5,-39.8196"/>
</g>
<!-- &#45;22 -->
<g id="node22" class="node"><title>&#45;22</title>
<polygon fill="lightgray" stroke="black" points="570.5,-99.4472 541.5,-99.4472 541.5,-81.4472 570.5,-81.4472 570.5,-99.4472"/>
<text text-anchor="middle" x="556" y="-88.2472" font-family="Times,serif" font-size="9.00">&#45;22</text>
</g>
<!-- &#45;22&#45;&gt;1 -->
<g id="edge20" class="edge"><title>&#45;22&#45;&gt;1</title>
<path fill="none" stroke="red" stroke-width="0.166083" d="M548.69,-81.151C544.337,-76.4066 538.587,-70.4694 533,-65.6985 517.122,-52.1395 497.619,-38.6471 483.074,-29.1254"/>
<polygon fill="red" stroke="red" stroke-width="0.166083" points="484.621,-25.9583 474.32,-23.4809 480.828,-31.8415 484.621,-25.9583"/>
</g>
<!-- &#45;22&#45;&gt;2 -->
<g id="edge36" class="edge"><title>&#45;22&#45;&gt;2</title>
<path fill="none" stroke="green" stroke-width="0.255489" stroke-dasharray="1,5" d="M562.372,-81.3913C566.82,-76.2505 573.167,-69.8046 580,-65.6985 623.691,-39.4444 682.517,-25.778 715.3,-19.7663"/>
<polygon fill="green" stroke="green" stroke-width="0.255489" points="716.108,-23.1783 725.359,-18.0139 714.907,-16.2821 716.108,-23.1783"/>
</g>
<!-- &#45;22&#45;&gt;3 -->
<g id="edge46" class="edge"><title>&#45;22&#45;&gt;3</title>
<path fill="none" stroke="red" stroke-width="0.34512" stroke-dasharray="1,5" d="M550.165,-81.0139C546.017,-75.7137 539.96,-69.232 533,-65.6985 429.371,-13.0897 388.681,-48.5352 274,-29.6985 257.77,-27.0327 239.599,-23.587 225.446,-20.7995"/>
<polygon fill="red" stroke="red" stroke-width="0.34512" points="225.997,-17.3404 215.506,-18.8199 224.629,-24.2056 225.997,-17.3404"/>
</g>
<!-- &#45;23 -->
<g id="node23" class="node"><title>&#45;23</title>
<polygon fill="lightgray" stroke="black" points="1023.5,-99.4472 994.5,-99.4472 994.5,-81.4472 1023.5,-81.4472 1023.5,-99.4472"/>
<text text-anchor="middle" x="1009" y="-88.2472" font-family="Times,serif" font-size="9.00">&#45;23</text>
</g>
<!-- &#45;23&#45;&gt;2 -->
<g id="edge29" class="edge"><title>&#45;23&#45;&gt;2</title>
<path fill="none" stroke="green" stroke-width="0.130489" stroke-dasharray="1,5" d="M1002.76,-81.1598C998.366,-75.9212 992.032,-69.4534 985,-65.6985 911.8,-26.6137 811.298,-18.1044 765.093,-16.3011"/>
<polygon fill="green" stroke="green" stroke-width="0.130489" points="765.175,-12.8021 755.069,-15.9844 764.954,-19.7986 765.175,-12.8021"/>
</g>
<!-- &#45;24 -->
<g id="node24" class="node"><title>&#45;24</title>
<polygon fill="lightgray" stroke="black" points="429.5,-99.4472 400.5,-99.4472 400.5,-81.4472 429.5,-81.4472 429.5,-99.4472"/>
<text text-anchor="middle" x="415" y="-88.2472" font-family="Times,serif" font-size="9.00">&#45;24</text>
</g>
<!-- &#45;24&#45;&gt;0 -->
<g id="edge40" class="edge"><title>&#45;24&#45;&gt;0</title>
<path fill="none" stroke="green" stroke-width="0.236679" d="M408.302,-81.3332C403.982,-76.4222 398.057,-70.2504 392,-65.6985 369.514,-48.7989 340.52,-34.3666 320.716,-25.4456"/>
<polygon fill="green" stroke="green" stroke-width="0.236679" points="322.104,-22.2325 311.541,-21.4106 319.286,-28.6402 322.104,-22.2325"/>
</g>
<!-- &#45;24&#45;&gt;1 -->
<g id="edge3" class="edge"><title>&#45;24&#45;&gt;1</title>
<path fill="none" stroke="green" stroke-width="0.241969" stroke-dasharray="1,5" d="M420.209,-81.2897C427.097,-70.504 439.471,-51.1274 448.973,-36.248"/>
<polygon fill="green" stroke="green" stroke-width="0.241969" points="452.011,-37.9935 454.444,-27.6817 446.112,-34.226 452.011,-37.9935"/>
</g>
<!-- 1&#45;&gt;1 -->
<g id="edge24" class="edge"><title>1&#45;&gt;1</title>
<path fill="none" stroke="green" stroke-width="0.420884" d="M472.428,-25.6755C483.039,-32.0439 494.849,-28.4352 494.849,-14.8492 494.849,-5.50891 489.267,-0.884351 482.33,-0.975566"/>
<polygon fill="green" stroke="green" stroke-width="0.420884" points="480.956,2.26363 472.428,-4.02295 483.015,-4.42672 480.956,2.26363"/>
</g>
<!-- 2&#45;&gt;2 -->
<g id="edge21" class="edge"><title>2&#45;&gt;2</title>
<path fill="none" stroke="green" stroke-width="0.802195" d="M750.428,-25.6755C761.039,-32.0439 772.849,-28.4352 772.849,-14.8492 772.849,-5.50891 767.267,-0.884351 760.33,-0.975566"/>
<polygon fill="green" stroke="green" stroke-width="0.802195" points="758.956,2.26363 750.428,-4.02295 761.015,-4.42672 758.956,2.26363"/>
</g>
<!-- 3&#45;&gt;3 -->
<g id="edge11" class="edge"><title>3&#45;&gt;3</title>
<path fill="none" stroke="green" stroke-width="0.390153" d="M211.428,-25.6755C222.039,-32.0439 233.849,-28.4352 233.849,-14.8492 233.849,-5.50891 228.267,-0.884351 221.33,-0.975566"/>
<polygon fill="green" stroke="green" stroke-width="0.390153" points="219.956,2.26363 211.428,-4.02295 222.015,-4.42672 219.956,2.26363"/>
</g>
<!-- 1439 -->
<g id="node29" class="node"><title>1439</title>
<ellipse fill="white" stroke="black" cx="1066" cy="-90.4472" rx="25" ry="25"/>
<text text-anchor="middle" x="1066" y="-88.2472" font-family="Times,serif" font-size="9.00">1439</text>
</g>
<!-- 1439&#45;&gt;2 -->
<g id="edge44" class="edge"><title>1439&#45;&gt;2</title>
<path fill="none" stroke="red" stroke-width="0.226787" d="M1047.34,-73.8052C1042.87,-70.7026 1037.95,-67.7685 1033,-65.6985 939.646,-26.6511 817.376,-18.1751 765.277,-16.3463"/>
<polygon fill="red" stroke="red" stroke-width="0.226787" points="765.08,-12.839 754.981,-16.0416 764.873,-19.836 765.08,-12.839"/>
</g>
</g>
</svg>
