<?xml version="1.0" encoding="UTF-8" standalone="no"?>
<!DOCTYPE svg PUBLIC "-//W3C//DTD SVG 1.1//EN"
 "http://www.w3.org/Graphics/SVG/1.1/DTD/svg11.dtd">
<!-- Generated by graphviz version 2.38.0 (20140413.2041)
 -->
<!-- Title: %3 Pages: 1 -->
<svg width="1259pt" height="360pt"
 viewBox="0.00 0.00 1258.85 359.89" xmlns="http://www.w3.org/2000/svg" xmlns:xlink="http://www.w3.org/1999/xlink">
<g id="graph0" class="graph" transform="scale(1 1) rotate(0) translate(4 355.889)">
<title>%3</title>
<polygon fill="white" stroke="none" points="-4,4 -4,-355.889 1254.85,-355.889 1254.85,4 -4,4"/>
<!-- &#45;1 -->
<g id="node1" class="node"><title>&#45;1</title>
<polygon fill="lightgray" stroke="black" points="24,-346.04 0,-346.04 0,-328.04 24,-328.04 24,-346.04"/>
<text text-anchor="middle" x="12" y="-334.84" font-family="Times,serif" font-size="9.00">&#45;1</text>
</g>
<!-- &#45;2 -->
<g id="node2" class="node"><title>&#45;2</title>
<polygon fill="lightgray" stroke="black" points="66,-346.04 42,-346.04 42,-328.04 66,-328.04 66,-346.04"/>
<text text-anchor="middle" x="54" y="-334.84" font-family="Times,serif" font-size="9.00">&#45;2</text>
</g>
<!-- &#45;3 -->
<g id="node3" class="node"><title>&#45;3</title>
<polygon fill="lightgray" stroke="black" points="329,-346.04 305,-346.04 305,-328.04 329,-328.04 329,-346.04"/>
<text text-anchor="middle" x="317" y="-334.84" font-family="Times,serif" font-size="9.00">&#45;3</text>
</g>
<!-- 2197 -->
<g id="node33" class="node"><title>2197</title>
<ellipse fill="white" stroke="black" cx="317" cy="-261.442" rx="25" ry="25"/>
<text text-anchor="middle" x="317" y="-259.242" font-family="Times,serif" font-size="9.00">2197</text>
</g>
<!-- &#45;3&#45;&gt;2197 -->
<g id="edge8" class="edge"><title>&#45;3&#45;&gt;2197</title>
<path fill="none" stroke="green" stroke-width="0.563957" d="M317,-327.883C317,-320.183 317,-308.105 317,-296.41"/>
<polygon fill="green" stroke="green" stroke-width="0.563957" points="320.5,-296.352 317,-286.352 313.5,-296.352 320.5,-296.352"/>
</g>
<!-- &#45;4 -->
<g id="node4" class="node"><title>&#45;4</title>
<polygon fill="lightgray" stroke="black" points="371,-346.04 347,-346.04 347,-328.04 371,-328.04 371,-346.04"/>
<text text-anchor="middle" x="359" y="-334.84" font-family="Times,serif" font-size="9.00">&#45;4</text>
</g>
<!-- &#45;5 -->
<g id="node5" class="node"><title>&#45;5</title>
<polygon fill="lightgray" stroke="black" points="413,-346.04 389,-346.04 389,-328.04 413,-328.04 413,-346.04"/>
<text text-anchor="middle" x="401" y="-334.84" font-family="Times,serif" font-size="9.00">&#45;5</text>
</g>
<!-- 2 -->
<g id="node27" class="node"><title>2</title>
<ellipse fill="lightblue" stroke="black" cx="401" cy="-261.442" rx="14.7" ry="14.7"/>
<text text-anchor="middle" x="401" y="-259.242" font-family="Times,serif" font-size="9.00">2</text>
</g>
<!-- &#45;5&#45;&gt;2 -->
<g id="edge14" class="edge"><title>&#45;5&#45;&gt;2</title>
<path fill="none" stroke="red" stroke-width="0.901774" d="M401,-327.883C401,-317.981 401,-300.839 401,-286.584"/>
<polygon fill="red" stroke="red" stroke-width="0.901774" points="404.5,-286.413 401,-276.413 397.5,-286.413 404.5,-286.413"/>
</g>
<!-- &#45;6 -->
<g id="node6" class="node"><title>&#45;6</title>
<polygon fill="lightgray" stroke="black" points="455,-346.04 431,-346.04 431,-328.04 455,-328.04 455,-346.04"/>
<text text-anchor="middle" x="443" y="-334.84" font-family="Times,serif" font-size="9.00">&#45;6</text>
</g>
<!-- &#45;7 -->
<g id="node7" class="node"><title>&#45;7</title>
<polygon fill="lightgray" stroke="black" points="189,-270.442 165,-270.442 165,-252.442 189,-252.442 189,-270.442"/>
<text text-anchor="middle" x="177" y="-259.242" font-family="Times,serif" font-size="9.00">&#45;7</text>
</g>
<!-- 2831 -->
<g id="node31" class="node"><title>2831</title>
<ellipse fill="white" stroke="black" cx="196" cy="-90.4472" rx="25" ry="25"/>
<text text-anchor="middle" x="196" y="-88.2472" font-family="Times,serif" font-size="9.00">2831</text>
</g>
<!-- &#45;7&#45;&gt;2831 -->
<g id="edge7" class="edge"><title>&#45;7&#45;&gt;2831</title>
<path fill="none" stroke="green" stroke-width="0.608221" d="M177.916,-252.291C180.455,-229.716 187.685,-165.401 192.197,-125.269"/>
<polygon fill="green" stroke="green" stroke-width="0.608221" points="195.697,-125.466 193.337,-115.137 188.741,-124.683 195.697,-125.466"/>
</g>
<!-- 4505 -->
<g id="node34" class="node"><title>4505</title>
<ellipse fill="white" stroke="black" cx="123" cy="-175.945" rx="25" ry="25"/>
<text text-anchor="middle" x="123" y="-173.745" font-family="Times,serif" font-size="9.00">4505</text>
</g>
<!-- &#45;7&#45;&gt;4505 -->
<g id="edge4" class="edge"><title>&#45;7&#45;&gt;4505</title>
<path fill="none" stroke="red" stroke-width="0.223283" d="M171.822,-252.436C164.962,-241.829 152.488,-222.541 141.866,-206.117"/>
<polygon fill="red" stroke="red" stroke-width="0.223283" points="144.573,-203.857 136.203,-197.36 138.695,-207.658 144.573,-203.857"/>
</g>
<!-- &#45;8 -->
<g id="node8" class="node"><title>&#45;8</title>
<polygon fill="lightgray" stroke="black" points="108,-346.04 84,-346.04 84,-328.04 108,-328.04 108,-346.04"/>
<text text-anchor="middle" x="96" y="-334.84" font-family="Times,serif" font-size="9.00">&#45;8</text>
</g>
<!-- 1 -->
<g id="node26" class="node"><title>1</title>
<ellipse fill="lightblue" stroke="black" cx="196" cy="-14.8492" rx="14.7" ry="14.7"/>
<text text-anchor="middle" x="196" y="-12.6492" font-family="Times,serif" font-size="9.00">1</text>
</g>
<!-- &#45;8&#45;&gt;1 -->
<g id="edge13" class="edge"><title>&#45;8&#45;&gt;1</title>
<path fill="none" stroke="green" stroke-width="0.216465" d="M87.3476,-327.773C60.9252,-301.488 -14.9595,-217.663 18,-151.196 50.7527,-85.1459 132.865,-42.6094 173.082,-25.048"/>
<polygon fill="green" stroke="green" stroke-width="0.216465" points="174.505,-28.246 182.348,-21.1222 171.775,-21.8005 174.505,-28.246"/>
</g>
<!-- 6058 -->
<g id="node29" class="node"><title>6058</title>
<ellipse fill="white" stroke="black" cx="52" cy="-175.945" rx="25" ry="25"/>
<text text-anchor="middle" x="52" y="-173.745" font-family="Times,serif" font-size="9.00">6058</text>
</g>
<!-- &#45;8&#45;&gt;6058 -->
<g id="edge18" class="edge"><title>&#45;8&#45;&gt;6058</title>
<path fill="none" stroke="green" stroke-width="0.197093" d="M93.4758,-327.948C90.4265,-318.106 85.1851,-300.974 81,-286.191 73.7553,-260.6 66.0531,-231.485 60.4085,-209.75"/>
<polygon fill="green" stroke="green" stroke-width="0.197093" points="63.7849,-208.827 57.8915,-200.022 57.0081,-210.58 63.7849,-208.827"/>
</g>
<!-- 5707 -->
<g id="node30" class="node"><title>5707</title>
<ellipse fill="white" stroke="black" cx="122" cy="-261.442" rx="25" ry="25"/>
<text text-anchor="middle" x="122" y="-259.242" font-family="Times,serif" font-size="9.00">5707</text>
</g>
<!-- &#45;8&#45;&gt;5707 -->
<g id="edge3" class="edge"><title>&#45;8&#45;&gt;5707</title>
<path fill="none" stroke="green" stroke-width="0.25649" d="M98.8818,-327.883C101.74,-319.791 106.307,-306.864 110.629,-294.629"/>
<polygon fill="green" stroke="green" stroke-width="0.25649" points="113.975,-295.664 114.006,-285.07 107.375,-293.333 113.975,-295.664"/>
</g>
<!-- &#45;8&#45;&gt;2831 -->
<g id="edge9" class="edge"><title>&#45;8&#45;&gt;2831</title>
<path fill="none" stroke="red" stroke-width="0.919671" stroke-dasharray="1,5" d="M108.075,-334.203C130.325,-330.103 177.399,-317.935 198,-286.191 229.9,-237.035 217.691,-165.179 206.475,-123.889"/>
<polygon fill="red" stroke="red" stroke-width="0.919671" points="209.786,-122.736 203.673,-114.082 203.055,-124.659 209.786,-122.736"/>
</g>
<!-- &#45;8&#45;&gt;2197 -->
<g id="edge17" class="edge"><title>&#45;8&#45;&gt;2197</title>
<path fill="none" stroke="green" stroke-width="0.197067" d="M108.41,-334.349C139.317,-329.803 221.721,-315.625 284,-286.191 285.819,-285.331 287.642,-284.369 289.445,-283.337"/>
<polygon fill="green" stroke="green" stroke-width="0.197067" points="291.645,-286.085 298.192,-277.755 287.879,-280.184 291.645,-286.085"/>
</g>
<!-- &#45;8&#45;&gt;4505 -->
<g id="edge1" class="edge"><title>&#45;8&#45;&gt;4505</title>
<path fill="none" stroke="green" stroke-width="0.255106" d="M93.4987,-327.884C88.6229,-310.689 79.0737,-269.592 88,-236.693 91.061,-225.412 96.846,-214.081 102.844,-204.365"/>
<polygon fill="green" stroke="green" stroke-width="0.255106" points="105.805,-206.232 108.34,-195.945 99.9436,-202.406 105.805,-206.232"/>
</g>
<!-- &#45;9 -->
<g id="node9" class="node"><title>&#45;9</title>
<polygon fill="lightgray" stroke="black" points="497,-346.04 473,-346.04 473,-328.04 497,-328.04 497,-346.04"/>
<text text-anchor="middle" x="485" y="-334.84" font-family="Times,serif" font-size="9.00">&#45;9</text>
</g>
<!-- &#45;10 -->
<g id="node10" class="node"><title>&#45;10</title>
<polygon fill="lightgray" stroke="black" points="544.5,-346.04 515.5,-346.04 515.5,-328.04 544.5,-328.04 544.5,-346.04"/>
<text text-anchor="middle" x="530" y="-334.84" font-family="Times,serif" font-size="9.00">&#45;10</text>
</g>
<!-- &#45;11 -->
<g id="node11" class="node"><title>&#45;11</title>
<polygon fill="lightgray" stroke="black" points="591.5,-346.04 562.5,-346.04 562.5,-328.04 591.5,-328.04 591.5,-346.04"/>
<text text-anchor="middle" x="577" y="-334.84" font-family="Times,serif" font-size="9.00">&#45;11</text>
</g>
<!-- &#45;12 -->
<g id="node12" class="node"><title>&#45;12</title>
<polygon fill="lightgray" stroke="black" points="638.5,-346.04 609.5,-346.04 609.5,-328.04 638.5,-328.04 638.5,-346.04"/>
<text text-anchor="middle" x="624" y="-334.84" font-family="Times,serif" font-size="9.00">&#45;12</text>
</g>
<!-- &#45;13 -->
<g id="node13" class="node"><title>&#45;13</title>
<polygon fill="lightgray" stroke="black" points="685.5,-346.04 656.5,-346.04 656.5,-328.04 685.5,-328.04 685.5,-346.04"/>
<text text-anchor="middle" x="671" y="-334.84" font-family="Times,serif" font-size="9.00">&#45;13</text>
</g>
<!-- &#45;14 -->
<g id="node14" class="node"><title>&#45;14</title>
<polygon fill="lightgray" stroke="black" points="274.5,-270.442 245.5,-270.442 245.5,-252.442 274.5,-252.442 274.5,-270.442"/>
<text text-anchor="middle" x="260" y="-259.242" font-family="Times,serif" font-size="9.00">&#45;14</text>
</g>
<!-- &#45;14&#45;&gt;2831 -->
<g id="edge5" class="edge"><title>&#45;14&#45;&gt;2831</title>
<path fill="none" stroke="green" stroke-width="0.101882" d="M258.482,-252.264C254.896,-233.775 245.053,-187.539 230,-151.196 225.674,-140.751 219.894,-129.855 214.329,-120.272"/>
<polygon fill="green" stroke="green" stroke-width="0.101882" points="217.247,-118.333 209.113,-111.544 211.238,-121.924 217.247,-118.333"/>
</g>
<!-- 5620 -->
<g id="node32" class="node"><title>5620</title>
<ellipse fill="white" stroke="black" cx="307" cy="-175.945" rx="25" ry="25"/>
<text text-anchor="middle" x="307" y="-173.745" font-family="Times,serif" font-size="9.00">5620</text>
</g>
<!-- &#45;14&#45;&gt;5620 -->
<g id="edge19" class="edge"><title>&#45;14&#45;&gt;5620</title>
<path fill="none" stroke="green" stroke-width="0.286404" d="M264.507,-252.436C270.345,-242.063 280.856,-223.39 289.963,-207.211"/>
<polygon fill="green" stroke="green" stroke-width="0.286404" points="293.262,-208.486 295.117,-198.055 287.162,-205.053 293.262,-208.486"/>
</g>
<!-- &#45;15 -->
<g id="node15" class="node"><title>&#45;15</title>
<polygon fill="lightgray" stroke="black" points="732.5,-346.04 703.5,-346.04 703.5,-328.04 732.5,-328.04 732.5,-346.04"/>
<text text-anchor="middle" x="718" y="-334.84" font-family="Times,serif" font-size="9.00">&#45;15</text>
</g>
<!-- &#45;16 -->
<g id="node16" class="node"><title>&#45;16</title>
<polygon fill="lightgray" stroke="black" points="779.5,-346.04 750.5,-346.04 750.5,-328.04 779.5,-328.04 779.5,-346.04"/>
<text text-anchor="middle" x="765" y="-334.84" font-family="Times,serif" font-size="9.00">&#45;16</text>
</g>
<!-- &#45;17 -->
<g id="node17" class="node"><title>&#45;17</title>
<polygon fill="lightgray" stroke="black" points="826.5,-346.04 797.5,-346.04 797.5,-328.04 826.5,-328.04 826.5,-346.04"/>
<text text-anchor="middle" x="812" y="-334.84" font-family="Times,serif" font-size="9.00">&#45;17</text>
</g>
<!-- &#45;18 -->
<g id="node18" class="node"><title>&#45;18</title>
<polygon fill="lightgray" stroke="black" points="873.5,-346.04 844.5,-346.04 844.5,-328.04 873.5,-328.04 873.5,-346.04"/>
<text text-anchor="middle" x="859" y="-334.84" font-family="Times,serif" font-size="9.00">&#45;18</text>
</g>
<!-- &#45;19 -->
<g id="node19" class="node"><title>&#45;19</title>
<polygon fill="lightgray" stroke="black" points="920.5,-346.04 891.5,-346.04 891.5,-328.04 920.5,-328.04 920.5,-346.04"/>
<text text-anchor="middle" x="906" y="-334.84" font-family="Times,serif" font-size="9.00">&#45;19</text>
</g>
<!-- &#45;20 -->
<g id="node20" class="node"><title>&#45;20</title>
<polygon fill="lightgray" stroke="black" points="967.5,-346.04 938.5,-346.04 938.5,-328.04 967.5,-328.04 967.5,-346.04"/>
<text text-anchor="middle" x="953" y="-334.84" font-family="Times,serif" font-size="9.00">&#45;20</text>
</g>
<!-- &#45;21 -->
<g id="node21" class="node"><title>&#45;21</title>
<polygon fill="lightgray" stroke="black" points="1014.5,-346.04 985.5,-346.04 985.5,-328.04 1014.5,-328.04 1014.5,-346.04"/>
<text text-anchor="middle" x="1000" y="-334.84" font-family="Times,serif" font-size="9.00">&#45;21</text>
</g>
<!-- &#45;22 -->
<g id="node22" class="node"><title>&#45;22</title>
<polygon fill="lightgray" stroke="black" points="1061.5,-346.04 1032.5,-346.04 1032.5,-328.04 1061.5,-328.04 1061.5,-346.04"/>
<text text-anchor="middle" x="1047" y="-334.84" font-family="Times,serif" font-size="9.00">&#45;22</text>
</g>
<!-- &#45;23 -->
<g id="node23" class="node"><title>&#45;23</title>
<polygon fill="lightgray" stroke="black" points="1108.5,-346.04 1079.5,-346.04 1079.5,-328.04 1108.5,-328.04 1108.5,-346.04"/>
<text text-anchor="middle" x="1094" y="-334.84" font-family="Times,serif" font-size="9.00">&#45;23</text>
</g>
<!-- &#45;24 -->
<g id="node24" class="node"><title>&#45;24</title>
<polygon fill="lightgray" stroke="black" points="1155.5,-346.04 1126.5,-346.04 1126.5,-328.04 1155.5,-328.04 1155.5,-346.04"/>
<text text-anchor="middle" x="1141" y="-334.84" font-family="Times,serif" font-size="9.00">&#45;24</text>
</g>
<!-- 0 -->
<g id="node25" class="node"><title>0</title>
<ellipse fill="lightblue" stroke="black" cx="1188" cy="-337.04" rx="14.7" ry="14.7"/>
<text text-anchor="middle" x="1188" y="-334.84" font-family="Times,serif" font-size="9.00">0</text>
</g>
<!-- 3 -->
<g id="node28" class="node"><title>3</title>
<ellipse fill="lightblue" stroke="black" cx="1236" cy="-337.04" rx="14.7" ry="14.7"/>
<text text-anchor="middle" x="1236" y="-334.84" font-family="Times,serif" font-size="9.00">3</text>
</g>
<!-- 6058&#45;&gt;2831 -->
<g id="edge11" class="edge"><title>6058&#45;&gt;2831</title>
<path fill="none" stroke="red" stroke-width="0.126953" d="M72.2156,-161.653C77.6264,-158.182 83.5005,-154.492 89,-151.196 114.435,-135.951 143.89,-119.596 165.449,-107.858"/>
<polygon fill="red" stroke="red" stroke-width="0.126953" points="167.342,-110.813 174.463,-102.969 164.004,-104.66 167.342,-110.813"/>
</g>
<!-- 5707&#45;&gt;4505 -->
<g id="edge16" class="edge"><title>5707&#45;&gt;4505</title>
<path fill="none" stroke="green" stroke-width="0.26706" d="M122.289,-236.291C122.384,-228.347 122.492,-219.363 122.594,-210.832"/>
<polygon fill="green" stroke="green" stroke-width="0.26706" points="126.095,-210.794 122.715,-200.753 119.095,-210.71 126.095,-210.794"/>
</g>
<!-- 2831&#45;&gt;1 -->
<g id="edge10" class="edge"><title>2831&#45;&gt;1</title>
<path fill="none" stroke="red" stroke-width="0.439619" d="M196,-65.3485C196,-57.1867 196,-48.0749 196,-39.9156"/>
<polygon fill="red" stroke="red" stroke-width="0.439619" points="199.5,-39.8982 196,-29.8983 192.5,-39.8983 199.5,-39.8982"/>
</g>
<!-- 5620&#45;&gt;2831 -->
<g id="edge15" class="edge"><title>5620&#45;&gt;2831</title>
<path fill="none" stroke="green" stroke-width="0.137021" d="M287.665,-160.401C269.947,-147.073 243.52,-127.193 223.586,-112.199"/>
<polygon fill="green" stroke="green" stroke-width="0.137021" points="225.581,-109.319 215.486,-106.105 221.373,-114.913 225.581,-109.319"/>
</g>
<!-- 2197&#45;&gt;1 -->
<g id="edge6" class="edge"><title>2197&#45;&gt;1</title>
<path fill="none" stroke="green" stroke-width="0.737242" d="M328.988,-239.572C340.273,-217.024 353.692,-180.404 341,-151.196 315.66,-92.8802 251.444,-48.2771 217.612,-27.9423"/>
<polygon fill="green" stroke="green" stroke-width="0.737242" points="219.331,-24.8929 208.933,-22.8592 215.793,-30.9332 219.331,-24.8929"/>
</g>
<!-- 2197&#45;&gt;5620 -->
<g id="edge2" class="edge"><title>2197&#45;&gt;5620</title>
<path fill="none" stroke="green" stroke-width="0.909282" d="M314.161,-236.738C313.19,-228.63 312.084,-219.396 311.037,-210.651"/>
<polygon fill="green" stroke="green" stroke-width="0.909282" points="314.51,-210.22 309.846,-200.708 307.56,-211.053 314.51,-210.22"/>
</g>
<!-- 4505&#45;&gt;2831 -->
<g id="edge12" class="edge"><title>4505&#45;&gt;2831</title>
<path fill="none" stroke="red" stroke-width="0.912343" d="M138.84,-156.827C148.98,-145.229 162.292,-130.003 173.518,-117.162"/>
<polygon fill="red" stroke="red" stroke-width="0.912343" points="176.244,-119.362 180.191,-109.53 170.974,-114.754 176.244,-119.362"/>
</g>
</g>
</svg>
