<?xml version="1.0" encoding="UTF-8" standalone="no"?>
<!DOCTYPE svg PUBLIC "-//W3C//DTD SVG 1.1//EN"
 "http://www.w3.org/Graphics/SVG/1.1/DTD/svg11.dtd">
<!-- Generated by graphviz version 2.38.0 (20140413.2041)
 -->
<!-- Title: %3 Pages: 1 -->
<svg width="1044pt" height="263pt"
 viewBox="0.00 0.00 1043.50 262.69" xmlns="http://www.w3.org/2000/svg" xmlns:xlink="http://www.w3.org/1999/xlink">
<g id="graph0" class="graph" transform="scale(1 1) rotate(0) translate(4 258.693)">
<title>%3</title>
<polygon fill="white" stroke="none" points="-4,4 -4,-258.693 1039.5,-258.693 1039.5,4 -4,4"/>
<!-- &#45;1 -->
<g id="node1" class="node"><title>&#45;1</title>
<polygon fill="lightgray" stroke="black" points="562,-184.945 538,-184.945 538,-166.945 562,-166.945 562,-184.945"/>
<text text-anchor="middle" x="550" y="-173.745" font-family="Times,serif" font-size="9.00">&#45;1</text>
</g>
<!-- 0 -->
<g id="node25" class="node"><title>0</title>
<ellipse fill="lightblue" stroke="black" cx="279" cy="-100.347" rx="14.7" ry="14.7"/>
<text text-anchor="middle" x="279" y="-98.1467" font-family="Times,serif" font-size="9.00">0</text>
</g>
<!-- &#45;1&#45;&gt;0 -->
<g id="edge2" class="edge"><title>&#45;1&#45;&gt;0</title>
<path fill="none" stroke="red" stroke-width="0.218239" d="M544.761,-166.641C541.01,-161.396 535.489,-154.927 529,-151.196 455.295,-108.821 351.434,-101.972 304.176,-101.193"/>
<polygon fill="red" stroke="red" stroke-width="0.218239" points="303.976,-97.6915 293.947,-101.108 303.917,-104.691 303.976,-97.6915"/>
</g>
<!-- 1 -->
<g id="node26" class="node"><title>1</title>
<ellipse fill="lightblue" stroke="black" cx="846" cy="-100.347" rx="14.7" ry="14.7"/>
<text text-anchor="middle" x="846" y="-98.1467" font-family="Times,serif" font-size="9.00">1</text>
</g>
<!-- &#45;1&#45;&gt;1 -->
<g id="edge9" class="edge"><title>&#45;1&#45;&gt;1</title>
<path fill="none" stroke="red" stroke-width="0.486533" d="M555.553,-166.606C559.509,-161.345 565.299,-154.872 572,-151.196 654.563,-105.9 770.098,-100.673 820.643,-100.764"/>
<polygon fill="red" stroke="red" stroke-width="0.486533" points="820.921,-104.267 830.954,-100.861 820.987,-97.267 820.921,-104.267"/>
</g>
<!-- 3 -->
<g id="node28" class="node"><title>3</title>
<ellipse fill="lightblue" stroke="black" cx="496" cy="-100.347" rx="14.7" ry="14.7"/>
<text text-anchor="middle" x="496" y="-98.1467" font-family="Times,serif" font-size="9.00">3</text>
</g>
<!-- &#45;1&#45;&gt;3 -->
<g id="edge31" class="edge"><title>&#45;1&#45;&gt;3</title>
<path fill="none" stroke="green" stroke-width="0.232112" d="M544.015,-166.787C535.935,-155.775 521.283,-135.806 510.282,-120.813"/>
<polygon fill="green" stroke="green" stroke-width="0.232112" points="513.042,-118.657 504.304,-112.665 507.398,-122.798 513.042,-118.657"/>
</g>
<!-- &#45;2 -->
<g id="node2" class="node"><title>&#45;2</title>
<polygon fill="lightgray" stroke="black" points="24,-184.945 0,-184.945 0,-166.945 24,-166.945 24,-184.945"/>
<text text-anchor="middle" x="12" y="-173.745" font-family="Times,serif" font-size="9.00">&#45;2</text>
</g>
<!-- &#45;2&#45;&gt;0 -->
<g id="edge7" class="edge"><title>&#45;2&#45;&gt;0</title>
<path fill="none" stroke="red" stroke-width="0.152178" d="M17.2433,-166.648C20.9952,-161.406 26.5167,-154.937 33,-151.196 105.331,-109.461 207.223,-102.276 253.886,-101.301"/>
<polygon fill="red" stroke="red" stroke-width="0.152178" points="254.045,-104.799 264,-101.172 253.956,-97.7998 254.045,-104.799"/>
</g>
<!-- &#45;3 -->
<g id="node3" class="node"><title>&#45;3</title>
<polygon fill="lightgray" stroke="black" points="799,-254.693 775,-254.693 775,-236.693 799,-236.693 799,-254.693"/>
<text text-anchor="middle" x="787" y="-243.493" font-family="Times,serif" font-size="9.00">&#45;3</text>
</g>
<!-- &#45;4 -->
<g id="node4" class="node"><title>&#45;4</title>
<polygon fill="lightgray" stroke="black" points="336,-184.945 312,-184.945 312,-166.945 336,-166.945 336,-184.945"/>
<text text-anchor="middle" x="324" y="-173.745" font-family="Times,serif" font-size="9.00">&#45;4</text>
</g>
<!-- &#45;4&#45;&gt;0 -->
<g id="edge28" class="edge"><title>&#45;4&#45;&gt;0</title>
<path fill="none" stroke="red" stroke-width="0.110984" d="M319.012,-166.787C312.455,-156.063 300.706,-136.847 291.63,-122.002"/>
<polygon fill="red" stroke="red" stroke-width="0.110984" points="294.596,-120.145 286.394,-113.439 288.624,-123.797 294.596,-120.145"/>
</g>
<!-- &#45;4&#45;&gt;3 -->
<g id="edge16" class="edge"><title>&#45;4&#45;&gt;3</title>
<path fill="none" stroke="green" stroke-width="0.226817" d="M329.397,-166.898C333.214,-161.761 338.75,-155.316 345,-151.196 384.794,-124.964 439.59,-111.442 471.055,-105.417"/>
<polygon fill="green" stroke="green" stroke-width="0.226817" points="471.932,-108.815 481.149,-103.59 470.685,-101.927 471.932,-108.815"/>
</g>
<!-- &#45;5 -->
<g id="node5" class="node"><title>&#45;5</title>
<polygon fill="lightgray" stroke="black" points="66,-184.945 42,-184.945 42,-166.945 66,-166.945 66,-184.945"/>
<text text-anchor="middle" x="54" y="-173.745" font-family="Times,serif" font-size="9.00">&#45;5</text>
</g>
<!-- &#45;5&#45;&gt;0 -->
<g id="edge25" class="edge"><title>&#45;5&#45;&gt;0</title>
<path fill="none" stroke="red" stroke-width="1.30817" d="M59.2931,-166.732C63.066,-161.526 68.5923,-155.065 75,-151.196 132.751,-116.326 213.594,-105.821 253.976,-102.676"/>
<polygon fill="red" stroke="red" stroke-width="1.30817" points="254.279,-106.164 264.014,-101.984 253.797,-99.1804 254.279,-106.164"/>
</g>
<!-- &#45;6 -->
<g id="node6" class="node"><title>&#45;6</title>
<polygon fill="lightgray" stroke="black" points="652,-184.945 628,-184.945 628,-166.945 652,-166.945 652,-184.945"/>
<text text-anchor="middle" x="640" y="-173.745" font-family="Times,serif" font-size="9.00">&#45;6</text>
</g>
<!-- 2 -->
<g id="node27" class="node"><title>2</title>
<ellipse fill="lightblue" stroke="black" cx="595" cy="-100.347" rx="14.7" ry="14.7"/>
<text text-anchor="middle" x="595" y="-98.1467" font-family="Times,serif" font-size="9.00">2</text>
</g>
<!-- &#45;6&#45;&gt;2 -->
<g id="edge6" class="edge"><title>&#45;6&#45;&gt;2</title>
<path fill="none" stroke="red" stroke-width="0.929072" d="M635.012,-166.787C628.455,-156.063 616.706,-136.847 607.63,-122.002"/>
<polygon fill="red" stroke="red" stroke-width="0.929072" points="610.596,-120.145 602.394,-113.439 604.624,-123.797 610.596,-120.145"/>
</g>
<!-- &#45;7 -->
<g id="node7" class="node"><title>&#45;7</title>
<polygon fill="lightgray" stroke="black" points="988,-184.945 964,-184.945 964,-166.945 988,-166.945 988,-184.945"/>
<text text-anchor="middle" x="976" y="-173.745" font-family="Times,serif" font-size="9.00">&#45;7</text>
</g>
<!-- &#45;7&#45;&gt;1 -->
<g id="edge37" class="edge"><title>&#45;7&#45;&gt;1</title>
<path fill="none" stroke="green" stroke-width="0.434591" d="M968.318,-166.804C963.393,-161.883 956.689,-155.71 950,-151.196 924.066,-133.697 891.045,-118.988 869.251,-110.183"/>
<polygon fill="green" stroke="green" stroke-width="0.434591" points="870.4,-106.874 859.813,-106.456 867.829,-113.385 870.4,-106.874"/>
</g>
<!-- &#45;8 -->
<g id="node8" class="node"><title>&#45;8</title>
<polygon fill="lightgray" stroke="black" points="841,-254.693 817,-254.693 817,-236.693 841,-236.693 841,-254.693"/>
<text text-anchor="middle" x="829" y="-243.493" font-family="Times,serif" font-size="9.00">&#45;8</text>
</g>
<!-- &#45;9 -->
<g id="node9" class="node"><title>&#45;9</title>
<polygon fill="lightgray" stroke="black" points="520,-184.945 496,-184.945 496,-166.945 520,-166.945 520,-184.945"/>
<text text-anchor="middle" x="508" y="-173.745" font-family="Times,serif" font-size="9.00">&#45;9</text>
</g>
<!-- &#45;9&#45;&gt;0 -->
<g id="edge27" class="edge"><title>&#45;9&#45;&gt;0</title>
<path fill="none" stroke="red" stroke-width="0.743133" d="M502.713,-166.723C498.942,-161.512 493.416,-155.051 487,-151.196 427.956,-115.724 345.272,-105.485 304.206,-102.536"/>
<polygon fill="red" stroke="red" stroke-width="0.743133" points="304.21,-99.029 294.01,-101.894 303.771,-106.015 304.21,-99.029"/>
</g>
<!-- &#45;9&#45;&gt;2 -->
<g id="edge4" class="edge"><title>&#45;9&#45;&gt;2</title>
<path fill="none" stroke="red" stroke-width="0.19667" d="M514.623,-166.66C518.58,-161.919 523.83,-155.982 529,-151.196 543.213,-138.04 560.769,-124.909 574.201,-115.43"/>
<polygon fill="red" stroke="red" stroke-width="0.19667" points="576.532,-118.073 582.75,-109.494 572.539,-112.323 576.532,-118.073"/>
</g>
<!-- &#45;10 -->
<g id="node10" class="node"><title>&#45;10</title>
<polygon fill="lightgray" stroke="black" points="113.5,-184.945 84.5,-184.945 84.5,-166.945 113.5,-166.945 113.5,-184.945"/>
<text text-anchor="middle" x="99" y="-173.745" font-family="Times,serif" font-size="9.00">&#45;10</text>
</g>
<!-- &#45;10&#45;&gt;0 -->
<g id="edge21" class="edge"><title>&#45;10&#45;&gt;0</title>
<path fill="none" stroke="green" stroke-width="0.265391" d="M105.049,-166.891C109.287,-161.751 115.363,-155.305 122,-151.196 164.378,-124.955 221.828,-111.338 254.182,-105.32"/>
<polygon fill="green" stroke="green" stroke-width="0.265391" points="254.895,-108.748 264.134,-103.563 253.678,-101.855 254.895,-108.748"/>
</g>
<!-- &#45;11 -->
<g id="node11" class="node"><title>&#45;11</title>
<polygon fill="lightgray" stroke="black" points="383.5,-184.945 354.5,-184.945 354.5,-166.945 383.5,-166.945 383.5,-184.945"/>
<text text-anchor="middle" x="369" y="-173.745" font-family="Times,serif" font-size="9.00">&#45;11</text>
</g>
<!-- &#45;11&#45;&gt;0 -->
<g id="edge12" class="edge"><title>&#45;11&#45;&gt;0</title>
<path fill="none" stroke="red" stroke-width="0.170446" d="M361.255,-166.753C356.673,-162.044 350.673,-156.107 345,-151.196 330.357,-138.52 312.823,-125.364 299.51,-115.752"/>
<polygon fill="red" stroke="red" stroke-width="0.170446" points="301.226,-112.677 291.054,-109.714 297.158,-118.374 301.226,-112.677"/>
</g>
<!-- &#45;11&#45;&gt;2 -->
<g id="edge34" class="edge"><title>&#45;11&#45;&gt;2</title>
<path fill="none" stroke="red" stroke-width="0.280268" d="M374.961,-166.744C379.162,-161.542 385.23,-155.082 392,-151.196 392.987,-150.629 517.165,-120.32 570.793,-107.246"/>
<polygon fill="red" stroke="red" stroke-width="0.280268" points="571.922,-110.573 580.809,-104.804 570.264,-103.772 571.922,-110.573"/>
</g>
<!-- &#45;12 -->
<g id="node12" class="node"><title>&#45;12</title>
<polygon fill="lightgray" stroke="black" points="1035.5,-184.945 1006.5,-184.945 1006.5,-166.945 1035.5,-166.945 1035.5,-184.945"/>
<text text-anchor="middle" x="1021" y="-173.745" font-family="Times,serif" font-size="9.00">&#45;12</text>
</g>
<!-- &#45;12&#45;&gt;1 -->
<g id="edge14" class="edge"><title>&#45;12&#45;&gt;1</title>
<path fill="none" stroke="green" stroke-width="1.06313" d="M1014.6,-166.927C1010.15,-161.802 1003.8,-155.359 997,-151.196 956.355,-126.304 901.856,-112.314 870.674,-105.843"/>
<polygon fill="green" stroke="green" stroke-width="1.06313" points="871.168,-102.373 860.678,-103.862 869.807,-109.239 871.168,-102.373"/>
</g>
<!-- &#45;13 -->
<g id="node13" class="node"><title>&#45;13</title>
<polygon fill="lightgray" stroke="black" points="160.5,-184.945 131.5,-184.945 131.5,-166.945 160.5,-166.945 160.5,-184.945"/>
<text text-anchor="middle" x="146" y="-173.745" font-family="Times,serif" font-size="9.00">&#45;13</text>
</g>
<!-- &#45;13&#45;&gt;0 -->
<g id="edge38" class="edge"><title>&#45;13&#45;&gt;0</title>
<path fill="none" stroke="green" stroke-width="0.143467" d="M154.719,-166.872C160.269,-161.977 167.752,-155.807 175,-151.196 201.397,-134.403 234.316,-119.539 255.96,-110.505"/>
<polygon fill="green" stroke="green" stroke-width="0.143467" points="257.399,-113.698 265.325,-106.667 254.744,-107.221 257.399,-113.698"/>
</g>
<!-- &#45;14 -->
<g id="node14" class="node"><title>&#45;14</title>
<polygon fill="lightgray" stroke="black" points="813.5,-184.945 784.5,-184.945 784.5,-166.945 813.5,-166.945 813.5,-184.945"/>
<text text-anchor="middle" x="799" y="-173.745" font-family="Times,serif" font-size="9.00">&#45;14</text>
</g>
<!-- &#45;14&#45;&gt;1 -->
<g id="edge39" class="edge"><title>&#45;14&#45;&gt;1</title>
<path fill="none" stroke="green" stroke-width="0.267677" d="M804.209,-166.787C811.097,-156.002 823.471,-136.625 832.973,-121.745"/>
<polygon fill="green" stroke="green" stroke-width="0.267677" points="836.011,-123.491 838.444,-113.179 830.112,-119.723 836.011,-123.491"/>
</g>
<!-- &#45;14&#45;&gt;2 -->
<g id="edge13" class="edge"><title>&#45;14&#45;&gt;2</title>
<path fill="none" stroke="green" stroke-width="0.145997" d="M793.003,-166.806C788.786,-161.63 782.715,-155.176 776,-151.196 725.689,-121.374 656.982,-108.867 620.385,-104.054"/>
<polygon fill="green" stroke="green" stroke-width="0.145997" points="620.465,-100.537 610.114,-102.796 619.614,-107.486 620.465,-100.537"/>
</g>
<!-- &#45;15 -->
<g id="node15" class="node"><title>&#45;15</title>
<polygon fill="lightgray" stroke="black" points="860.5,-184.945 831.5,-184.945 831.5,-166.945 860.5,-166.945 860.5,-184.945"/>
<text text-anchor="middle" x="846" y="-173.745" font-family="Times,serif" font-size="9.00">&#45;15</text>
</g>
<!-- &#45;15&#45;&gt;1 -->
<g id="edge15" class="edge"><title>&#45;15&#45;&gt;1</title>
<path fill="none" stroke="red" stroke-width="0.143143" d="M846,-166.787C846,-156.886 846,-139.744 846,-125.488"/>
<polygon fill="red" stroke="red" stroke-width="0.143143" points="849.5,-125.317 846,-115.317 842.5,-125.317 849.5,-125.317"/>
</g>
<!-- &#45;16 -->
<g id="node16" class="node"><title>&#45;16</title>
<polygon fill="lightgray" stroke="black" points="246.5,-184.945 217.5,-184.945 217.5,-166.945 246.5,-166.945 246.5,-184.945"/>
<text text-anchor="middle" x="232" y="-173.745" font-family="Times,serif" font-size="9.00">&#45;16</text>
</g>
<!-- &#45;16&#45;&gt;0 -->
<g id="edge18" class="edge"><title>&#45;16&#45;&gt;0</title>
<path fill="none" stroke="red" stroke-width="0.178839" d="M237.209,-166.787C244.097,-156.002 256.471,-136.625 265.973,-121.745"/>
<polygon fill="red" stroke="red" stroke-width="0.178839" points="269.011,-123.491 271.444,-113.179 263.112,-119.723 269.011,-123.491"/>
</g>
<!-- &#45;17 -->
<g id="node17" class="node"><title>&#45;17</title>
<polygon fill="lightgray" stroke="black" points="756.5,-254.693 727.5,-254.693 727.5,-236.693 756.5,-236.693 756.5,-254.693"/>
<text text-anchor="middle" x="742" y="-243.493" font-family="Times,serif" font-size="9.00">&#45;17</text>
</g>
<!-- &#45;17&#45;&gt;0 -->
<g id="edge3" class="edge"><title>&#45;17&#45;&gt;0</title>
<path fill="none" stroke="green" stroke-width="0.277314" d="M727.449,-244.64C645.526,-244.192 244.196,-239.995 208,-200.693 193.097,-184.512 197.854,-170.716 208,-151.196 218.045,-131.87 239.399,-118.47 256.079,-110.469"/>
<polygon fill="green" stroke="green" stroke-width="0.277314" points="257.536,-113.652 265.239,-106.378 254.681,-107.261 257.536,-113.652"/>
</g>
<!-- &#45;17&#45;&gt;1 -->
<g id="edge36" class="edge"><title>&#45;17&#45;&gt;1</title>
<path fill="none" stroke="green" stroke-width="0.128524" d="M756.66,-239.58C759.73,-238.573 762.959,-237.561 766,-236.693 832.345,-217.767 874.245,-254.84 917,-200.693 930.633,-183.428 927.146,-170.716 917,-151.196 906.955,-131.87 885.601,-118.47 868.921,-110.469"/>
<polygon fill="green" stroke="green" stroke-width="0.128524" points="870.319,-107.261 859.761,-106.378 867.464,-113.652 870.319,-107.261"/>
</g>
<!-- 4017 -->
<g id="node30" class="node"><title>4017</title>
<ellipse fill="white" stroke="black" cx="742" cy="-175.945" rx="25" ry="25"/>
<text text-anchor="middle" x="742" y="-173.745" font-family="Times,serif" font-size="9.00">4017</text>
</g>
<!-- &#45;17&#45;&gt;4017 -->
<g id="edge23" class="edge"><title>&#45;17&#45;&gt;4017</title>
<path fill="none" stroke="green" stroke-width="0.458486" d="M742,-236.656C742,-230.221 742,-220.723 742,-211.186"/>
<polygon fill="green" stroke="green" stroke-width="0.458486" points="745.5,-210.966 742,-200.966 738.5,-210.966 745.5,-210.966"/>
</g>
<!-- &#45;18 -->
<g id="node18" class="node"><title>&#45;18</title>
<polygon fill="lightgray" stroke="black" points="477.5,-184.945 448.5,-184.945 448.5,-166.945 477.5,-166.945 477.5,-184.945"/>
<text text-anchor="middle" x="463" y="-173.745" font-family="Times,serif" font-size="9.00">&#45;18</text>
</g>
<!-- &#45;18&#45;&gt;3 -->
<g id="edge29" class="edge"><title>&#45;18&#45;&gt;3</title>
<path fill="none" stroke="red" stroke-width="0.529485" d="M466.658,-166.787C471.293,-156.448 479.469,-138.215 486.015,-123.617"/>
<polygon fill="red" stroke="red" stroke-width="0.529485" points="489.325,-124.789 490.222,-114.232 482.937,-121.925 489.325,-124.789"/>
</g>
<!-- &#45;19 -->
<g id="node19" class="node"><title>&#45;19</title>
<polygon fill="lightgray" stroke="black" points="699.5,-184.945 670.5,-184.945 670.5,-166.945 699.5,-166.945 699.5,-184.945"/>
<text text-anchor="middle" x="685" y="-173.745" font-family="Times,serif" font-size="9.00">&#45;19</text>
</g>
<!-- &#45;19&#45;&gt;0 -->
<g id="edge30" class="edge"><title>&#45;19&#45;&gt;0</title>
<path fill="none" stroke="green" stroke-width="0.285244" d="M678.844,-166.491C674.487,-161.183 668.161,-154.699 661,-151.196 628.867,-135.477 383.658,-111.217 303.947,-103.669"/>
<polygon fill="green" stroke="green" stroke-width="0.285244" points="304.121,-100.17 293.837,-102.717 303.465,-107.139 304.121,-100.17"/>
</g>
<!-- &#45;19&#45;&gt;1 -->
<g id="edge26" class="edge"><title>&#45;19&#45;&gt;1</title>
<path fill="none" stroke="red" stroke-width="0.411493" d="M691.483,-166.523C695.722,-161.496 701.638,-155.31 708,-151.196 744.038,-127.891 792.411,-113.671 821.275,-106.671"/>
<polygon fill="red" stroke="red" stroke-width="0.411493" points="822.368,-110.01 831.316,-104.338 820.784,-103.192 822.368,-110.01"/>
</g>
<!-- &#45;19&#45;&gt;2 -->
<g id="edge10" class="edge"><title>&#45;19&#45;&gt;2</title>
<path fill="none" stroke="green" stroke-width="0.322562" d="M677.255,-166.753C672.673,-162.044 666.673,-156.107 661,-151.196 646.357,-138.52 628.823,-125.364 615.51,-115.752"/>
<polygon fill="green" stroke="green" stroke-width="0.322562" points="617.226,-112.677 607.054,-109.714 613.158,-118.374 617.226,-112.677"/>
</g>
<!-- &#45;20 -->
<g id="node20" class="node"><title>&#45;20</title>
<polygon fill="lightgray" stroke="black" points="609.5,-184.945 580.5,-184.945 580.5,-166.945 609.5,-166.945 609.5,-184.945"/>
<text text-anchor="middle" x="595" y="-173.745" font-family="Times,serif" font-size="9.00">&#45;20</text>
</g>
<!-- &#45;20&#45;&gt;2 -->
<g id="edge1" class="edge"><title>&#45;20&#45;&gt;2</title>
<path fill="none" stroke="red" stroke-width="0.575322" d="M595,-166.787C595,-156.886 595,-139.744 595,-125.488"/>
<polygon fill="red" stroke="red" stroke-width="0.575322" points="598.5,-125.317 595,-115.317 591.5,-125.317 598.5,-125.317"/>
</g>
<!-- &#45;21 -->
<g id="node21" class="node"><title>&#45;21</title>
<polygon fill="lightgray" stroke="black" points="430.5,-184.945 401.5,-184.945 401.5,-166.945 430.5,-166.945 430.5,-184.945"/>
<text text-anchor="middle" x="416" y="-173.745" font-family="Times,serif" font-size="9.00">&#45;21</text>
</g>
<!-- &#45;21&#45;&gt;0 -->
<g id="edge17" class="edge"><title>&#45;21&#45;&gt;0</title>
<path fill="none" stroke="green" stroke-width="1.33034" d="M409.064,-166.692C404.577,-161.729 398.396,-155.551 392,-151.196 363.592,-131.853 326.461,-117.19 302.665,-108.93"/>
<polygon fill="green" stroke="green" stroke-width="1.33034" points="303.643,-105.566 293.049,-105.689 301.407,-112.199 303.643,-105.566"/>
</g>
<!-- &#45;21&#45;&gt;2 -->
<g id="edge32" class="edge"><title>&#45;21&#45;&gt;2</title>
<path fill="none" stroke="red" stroke-width="0.201256" d="M422.051,-166.895C426.29,-161.757 432.367,-155.312 439,-151.196 461.415,-137.288 533.293,-117.352 571.155,-107.434"/>
<polygon fill="red" stroke="red" stroke-width="0.201256" points="572.062,-110.815 580.862,-104.915 570.304,-104.039 572.062,-110.815"/>
</g>
<!-- &#45;22 -->
<g id="node22" class="node"><title>&#45;22</title>
<polygon fill="lightgray" stroke="black" points="907.5,-184.945 878.5,-184.945 878.5,-166.945 907.5,-166.945 907.5,-184.945"/>
<text text-anchor="middle" x="893" y="-173.745" font-family="Times,serif" font-size="9.00">&#45;22</text>
</g>
<!-- &#45;22&#45;&gt;1 -->
<g id="edge19" class="edge"><title>&#45;22&#45;&gt;1</title>
<path fill="none" stroke="green" stroke-width="0.220129" d="M887.791,-166.787C880.903,-156.002 868.529,-136.625 859.027,-121.745"/>
<polygon fill="green" stroke="green" stroke-width="0.220129" points="861.888,-119.723 853.556,-113.179 855.989,-123.491 861.888,-119.723"/>
</g>
<!-- &#45;23 -->
<g id="node23" class="node"><title>&#45;23</title>
<polygon fill="lightgray" stroke="black" points="888.5,-254.693 859.5,-254.693 859.5,-236.693 888.5,-236.693 888.5,-254.693"/>
<text text-anchor="middle" x="874" y="-243.493" font-family="Times,serif" font-size="9.00">&#45;23</text>
</g>
<!-- &#45;24 -->
<g id="node24" class="node"><title>&#45;24</title>
<polygon fill="lightgray" stroke="black" points="293.5,-184.945 264.5,-184.945 264.5,-166.945 293.5,-166.945 293.5,-184.945"/>
<text text-anchor="middle" x="279" y="-173.745" font-family="Times,serif" font-size="9.00">&#45;24</text>
</g>
<!-- &#45;24&#45;&gt;0 -->
<g id="edge33" class="edge"><title>&#45;24&#45;&gt;0</title>
<path fill="none" stroke="green" stroke-width="0.394221" d="M279,-166.787C279,-156.886 279,-139.744 279,-125.488"/>
<polygon fill="green" stroke="green" stroke-width="0.394221" points="282.5,-125.317 279,-115.317 275.5,-125.317 282.5,-125.317"/>
</g>
<!-- 1&#45;&gt;1 -->
<g id="edge24" class="edge"><title>1&#45;&gt;1</title>
<path fill="none" stroke="green" stroke-width="0.299388" d="M856.428,-111.173C867.039,-117.541 878.849,-113.933 878.849,-100.347 878.849,-91.0064 873.267,-86.3818 866.33,-86.473"/>
<polygon fill="green" stroke="green" stroke-width="0.299388" points="864.956,-83.2338 856.428,-89.5204 867.015,-89.9242 864.956,-83.2338"/>
</g>
<!-- 2&#45;&gt;2 -->
<g id="edge20" class="edge"><title>2&#45;&gt;2</title>
<path fill="none" stroke="green" stroke-width="0.280491" d="M605.428,-111.173C616.039,-117.541 627.849,-113.933 627.849,-100.347 627.849,-91.0064 622.267,-86.3818 615.33,-86.473"/>
<polygon fill="green" stroke="green" stroke-width="0.280491" points="613.956,-83.2338 605.428,-89.5204 616.015,-89.9242 613.956,-83.2338"/>
</g>
<!-- 3760 -->
<g id="node29" class="node"><title>3760</title>
<ellipse fill="white" stroke="black" cx="595" cy="-24.7487" rx="25" ry="25"/>
<text text-anchor="middle" x="595" y="-22.5487" font-family="Times,serif" font-size="9.00">3760</text>
</g>
<!-- 2&#45;&gt;3760 -->
<g id="edge8" class="edge"><title>2&#45;&gt;3760</title>
<path fill="none" stroke="red" stroke-width="0.218917" d="M589.684,-86.1889C588.598,-78.5979 588.128,-68.6795 588.277,-59.0788"/>
<polygon fill="red" stroke="red" stroke-width="0.218917" points="591.781,-59.0418 588.68,-48.9109 584.786,-58.7643 591.781,-59.0418"/>
</g>
<!-- 3&#45;&gt;3 -->
<g id="edge11" class="edge"><title>3&#45;&gt;3</title>
<path fill="none" stroke="red" stroke-width="0.331862" d="M506.428,-111.173C517.039,-117.541 528.849,-113.933 528.849,-100.347 528.849,-91.0064 523.267,-86.3818 516.33,-86.473"/>
<polygon fill="red" stroke="red" stroke-width="0.331862" points="514.956,-83.2338 506.428,-89.5204 517.015,-89.9242 514.956,-83.2338"/>
</g>
<!-- 3760&#45;&gt;2 -->
<g id="edge5" class="edge"><title>3760&#45;&gt;2</title>
<path fill="none" stroke="green" stroke-width="0.105676" d="M601.32,-48.9109C601.89,-57.5516 601.893,-67.3607 601.331,-76.0165"/>
<polygon fill="green" stroke="green" stroke-width="0.105676" points="597.826,-75.8907 600.316,-86.1889 604.792,-76.5859 597.826,-75.8907"/>
</g>
<!-- 4017&#45;&gt;1 -->
<g id="edge35" class="edge"><title>4017&#45;&gt;1</title>
<path fill="none" stroke="green" stroke-width="0.186123" d="M762.052,-160.754C780.415,-147.76 807.455,-128.624 825.849,-115.607"/>
<polygon fill="green" stroke="green" stroke-width="0.186123" points="827.967,-118.396 834.108,-109.762 823.923,-112.682 827.967,-118.396"/>
</g>
<!-- 4017&#45;&gt;3 -->
<g id="edge22" class="edge"><title>4017&#45;&gt;3</title>
<path fill="none" stroke="red" stroke-width="0.221669" d="M723.241,-159.526C718.775,-156.412 713.883,-153.417 709,-151.196 675.253,-135.847 569.096,-114.917 520.601,-105.845"/>
<polygon fill="red" stroke="red" stroke-width="0.221669" points="521.115,-102.381 510.644,-103.998 519.838,-109.263 521.115,-102.381"/>
</g>
</g>
</svg>
