<?xml version="1.0" encoding="UTF-8" standalone="no"?>
<!DOCTYPE svg PUBLIC "-//W3C//DTD SVG 1.1//EN"
 "http://www.w3.org/Graphics/SVG/1.1/DTD/svg11.dtd">
<!-- Generated by graphviz version 2.38.0 (20140413.2041)
 -->
<!-- Title: %3 Pages: 1 -->
<svg width="1129pt" height="263pt"
 viewBox="0.00 0.00 1128.50 262.69" xmlns="http://www.w3.org/2000/svg" xmlns:xlink="http://www.w3.org/1999/xlink">
<g id="graph0" class="graph" transform="scale(1 1) rotate(0) translate(4 258.693)">
<title>%3</title>
<polygon fill="white" stroke="none" points="-4,4 -4,-258.693 1124.5,-258.693 1124.5,4 -4,4"/>
<!-- &#45;1 -->
<g id="node1" class="node"><title>&#45;1</title>
<polygon fill="lightgray" stroke="black" points="270.5,-184.945 246.5,-184.945 246.5,-166.945 270.5,-166.945 270.5,-184.945"/>
<text text-anchor="middle" x="258.5" y="-173.745" font-family="Times,serif" font-size="9.00">&#45;1</text>
</g>
<!-- 0 -->
<g id="node25" class="node"><title>0</title>
<ellipse fill="lightblue" stroke="black" cx="389.5" cy="-100.347" rx="14.7" ry="14.7"/>
<text text-anchor="middle" x="389.5" y="-98.1467" font-family="Times,serif" font-size="9.00">0</text>
</g>
<!-- &#45;1&#45;&gt;0 -->
<g id="edge2" class="edge"><title>&#45;1&#45;&gt;0</title>
<path fill="none" stroke="red" stroke-width="0.218239" d="M264.395,-166.665C268.255,-161.691 273.656,-155.512 279.5,-151.196 306.265,-131.429 342.118,-117.013 365.505,-108.91"/>
<polygon fill="red" stroke="red" stroke-width="0.218239" points="366.924,-112.127 375.297,-105.635 364.703,-105.488 366.924,-112.127"/>
</g>
<!-- 1 -->
<g id="node26" class="node"><title>1</title>
<ellipse fill="lightblue" stroke="black" cx="526.5" cy="-100.347" rx="14.7" ry="14.7"/>
<text text-anchor="middle" x="526.5" y="-98.1467" font-family="Times,serif" font-size="9.00">1</text>
</g>
<!-- &#45;1&#45;&gt;1 -->
<g id="edge13" class="edge"><title>&#45;1&#45;&gt;1</title>
<path fill="none" stroke="red" stroke-width="0.486533" d="M263.742,-166.646C267.494,-161.403 273.015,-154.934 279.5,-151.196 317.35,-129.376 446.501,-111.259 501.439,-104.35"/>
<polygon fill="red" stroke="red" stroke-width="0.486533" points="502.188,-107.784 511.683,-103.084 501.329,-100.837 502.188,-107.784"/>
</g>
<!-- 3 -->
<g id="node28" class="node"><title>3</title>
<ellipse fill="lightblue" stroke="black" cx="230.5" cy="-100.347" rx="14.7" ry="14.7"/>
<text text-anchor="middle" x="230.5" y="-98.1467" font-family="Times,serif" font-size="9.00">3</text>
</g>
<!-- &#45;1&#45;&gt;3 -->
<g id="edge43" class="edge"><title>&#45;1&#45;&gt;3</title>
<path fill="none" stroke="green" stroke-width="0.232112" d="M255.397,-166.787C251.486,-156.509 244.608,-138.43 239.071,-123.875"/>
<polygon fill="green" stroke="green" stroke-width="0.232112" points="242.331,-122.602 235.504,-114.501 235.789,-125.092 242.331,-122.602"/>
</g>
<!-- &#45;2 -->
<g id="node2" class="node"><title>&#45;2</title>
<polygon fill="lightgray" stroke="black" points="810.5,-184.945 786.5,-184.945 786.5,-166.945 810.5,-166.945 810.5,-184.945"/>
<text text-anchor="middle" x="798.5" y="-173.745" font-family="Times,serif" font-size="9.00">&#45;2</text>
</g>
<!-- &#45;2&#45;&gt;0 -->
<g id="edge10" class="edge"><title>&#45;2&#45;&gt;0</title>
<path fill="none" stroke="red" stroke-width="0.152178" d="M793.343,-166.492C789.627,-161.184 784.114,-154.701 777.5,-151.196 773.449,-149.049 499.934,-115.027 414.625,-104.456"/>
<polygon fill="red" stroke="red" stroke-width="0.152178" points="414.884,-100.961 404.53,-103.205 414.024,-107.908 414.884,-100.961"/>
</g>
<!-- 2 -->
<g id="node27" class="node"><title>2</title>
<ellipse fill="lightblue" stroke="black" cx="819.5" cy="-100.347" rx="14.7" ry="14.7"/>
<text text-anchor="middle" x="819.5" y="-98.1467" font-family="Times,serif" font-size="9.00">2</text>
</g>
<!-- &#45;2&#45;&gt;2 -->
<g id="edge34" class="edge"><title>&#45;2&#45;&gt;2</title>
<path fill="none" stroke="red" stroke-width="0.587941" stroke-dasharray="1,5" d="M800.828,-166.787C803.715,-156.668 808.76,-138.987 812.878,-124.553"/>
<polygon fill="red" stroke="red" stroke-width="0.587941" points="816.291,-125.347 815.67,-114.771 809.56,-123.427 816.291,-125.347"/>
</g>
<!-- &#45;3 -->
<g id="node3" class="node"><title>&#45;3</title>
<polygon fill="lightgray" stroke="black" points="1078.5,-184.945 1054.5,-184.945 1054.5,-166.945 1078.5,-166.945 1078.5,-184.945"/>
<text text-anchor="middle" x="1066.5" y="-173.745" font-family="Times,serif" font-size="9.00">&#45;3</text>
</g>
<!-- &#45;3&#45;&gt;2 -->
<g id="edge23" class="edge"><title>&#45;3&#45;&gt;2</title>
<path fill="none" stroke="red" stroke-width="0.349817" stroke-dasharray="1,5" d="M1061.24,-166.685C1057.47,-161.458 1051.95,-154.992 1045.5,-151.196 980.059,-112.684 888.075,-103.866 844.4,-101.889"/>
<polygon fill="red" stroke="red" stroke-width="0.349817" points="844.505,-98.3905 834.383,-101.52 844.247,-105.386 844.505,-98.3905"/>
</g>
<!-- &#45;4 -->
<g id="node4" class="node"><title>&#45;4</title>
<polygon fill="lightgray" stroke="black" points="113.5,-184.945 89.5,-184.945 89.5,-166.945 113.5,-166.945 113.5,-184.945"/>
<text text-anchor="middle" x="101.5" y="-173.745" font-family="Times,serif" font-size="9.00">&#45;4</text>
</g>
<!-- &#45;4&#45;&gt;0 -->
<g id="edge37" class="edge"><title>&#45;4&#45;&gt;0</title>
<path fill="none" stroke="red" stroke-width="0.110984" d="M106.724,-166.615C110.468,-161.359 115.988,-154.887 122.5,-151.196 163.93,-127.713 306.194,-110.254 364.387,-103.932"/>
<polygon fill="red" stroke="red" stroke-width="0.110984" points="364.969,-107.39 374.542,-102.85 364.227,-100.429 364.969,-107.39"/>
</g>
<!-- &#45;4&#45;&gt;1 -->
<g id="edge49" class="edge"><title>&#45;4&#45;&gt;1</title>
<path fill="none" stroke="red" stroke-width="0.937108" stroke-dasharray="1,5" d="M106.651,-166.481C110.364,-161.169 115.877,-154.684 122.5,-151.196 123.031,-150.917 413.505,-115.224 501.521,-104.414"/>
<polygon fill="red" stroke="red" stroke-width="0.937108" points="502.166,-107.861 511.664,-103.168 501.312,-100.914 502.166,-107.861"/>
</g>
<!-- &#45;4&#45;&gt;3 -->
<g id="edge20" class="edge"><title>&#45;4&#45;&gt;3</title>
<path fill="none" stroke="green" stroke-width="0.226817" d="M107.405,-166.679C111.27,-161.711 116.671,-155.532 122.5,-151.196 148.794,-131.635 183.991,-117.17 206.949,-109"/>
<polygon fill="green" stroke="green" stroke-width="0.226817" points="208.242,-112.256 216.559,-105.693 205.965,-105.637 208.242,-112.256"/>
</g>
<!-- &#45;5 -->
<g id="node5" class="node"><title>&#45;5</title>
<polygon fill="lightgray" stroke="black" points="71.5,-184.945 47.5,-184.945 47.5,-166.945 71.5,-166.945 71.5,-184.945"/>
<text text-anchor="middle" x="59.5" y="-173.745" font-family="Times,serif" font-size="9.00">&#45;5</text>
</g>
<!-- &#45;5&#45;&gt;0 -->
<g id="edge31" class="edge"><title>&#45;5&#45;&gt;0</title>
<path fill="none" stroke="red" stroke-width="1.30817" d="M64.6948,-166.562C68.4263,-161.283 73.9432,-154.806 80.5,-151.196 105.407,-137.481 296.138,-112.871 364.892,-104.349"/>
<polygon fill="red" stroke="red" stroke-width="1.30817" points="365.339,-107.82 374.836,-103.123 364.483,-100.873 365.339,-107.82"/>
</g>
<!-- &#45;5&#45;&gt;3 -->
<g id="edge39" class="edge"><title>&#45;5&#45;&gt;3</title>
<path fill="none" stroke="red" stroke-width="0.772954" stroke-dasharray="1,5" d="M64.9001,-166.902C68.7182,-161.766 74.2546,-155.322 80.5,-151.196 120.03,-125.082 174.464,-111.518 205.72,-105.454"/>
<polygon fill="red" stroke="red" stroke-width="0.772954" points="206.543,-108.862 215.747,-103.614 205.28,-101.977 206.543,-108.862"/>
</g>
<!-- &#45;6 -->
<g id="node6" class="node"><title>&#45;6</title>
<polygon fill="lightgray" stroke="black" points="1120.5,-184.945 1096.5,-184.945 1096.5,-166.945 1120.5,-166.945 1120.5,-184.945"/>
<text text-anchor="middle" x="1108.5" y="-173.745" font-family="Times,serif" font-size="9.00">&#45;6</text>
</g>
<!-- &#45;6&#45;&gt;2 -->
<g id="edge9" class="edge"><title>&#45;6&#45;&gt;2</title>
<path fill="none" stroke="red" stroke-width="0.929072" d="M1103.28,-166.614C1099.53,-161.357 1094.01,-154.885 1087.5,-151.196 1007.49,-105.878 894.543,-100.636 844.752,-100.741"/>
<polygon fill="red" stroke="red" stroke-width="0.929072" points="844.545,-97.2426 834.58,-100.841 844.614,-104.242 844.545,-97.2426"/>
</g>
<!-- 3760 -->
<g id="node29" class="node"><title>3760</title>
<ellipse fill="white" stroke="black" cx="819.5" cy="-24.7487" rx="25" ry="25"/>
<text text-anchor="middle" x="819.5" y="-22.5487" font-family="Times,serif" font-size="9.00">3760</text>
</g>
<!-- &#45;6&#45;&gt;3760 -->
<g id="edge8" class="edge"><title>&#45;6&#45;&gt;3760</title>
<path fill="none" stroke="green" stroke-width="0.225679" stroke-dasharray="1,5" d="M1102.59,-166.69C1098.72,-161.726 1093.32,-155.548 1087.5,-151.196 1011.56,-94.3882 905.785,-54.2776 852.69,-36.3229"/>
<polygon fill="green" stroke="green" stroke-width="0.225679" points="853.696,-32.9692 843.103,-33.129 851.484,-39.6103 853.696,-32.9692"/>
</g>
<!-- &#45;7 -->
<g id="node7" class="node"><title>&#45;7</title>
<polygon fill="lightgray" stroke="black" points="894.5,-184.945 870.5,-184.945 870.5,-166.945 894.5,-166.945 894.5,-184.945"/>
<text text-anchor="middle" x="882.5" y="-173.745" font-family="Times,serif" font-size="9.00">&#45;7</text>
</g>
<!-- &#45;7&#45;&gt;1 -->
<g id="edge50" class="edge"><title>&#45;7&#45;&gt;1</title>
<path fill="none" stroke="green" stroke-width="0.434591" d="M877.32,-166.536C873.594,-161.246 868.079,-154.766 861.5,-151.196 807.773,-122.037 620.328,-107.36 551.821,-102.875"/>
<polygon fill="green" stroke="green" stroke-width="0.434591" points="551.731,-99.3628 541.529,-102.221 551.287,-106.349 551.731,-99.3628"/>
</g>
<!-- &#45;8 -->
<g id="node8" class="node"><title>&#45;8</title>
<polygon fill="lightgray" stroke="black" points="446.5,-184.945 422.5,-184.945 422.5,-166.945 446.5,-166.945 446.5,-184.945"/>
<text text-anchor="middle" x="434.5" y="-173.745" font-family="Times,serif" font-size="9.00">&#45;8</text>
</g>
<!-- &#45;8&#45;&gt;0 -->
<g id="edge52" class="edge"><title>&#45;8&#45;&gt;0</title>
<path fill="none" stroke="green" stroke-width="0.418822" stroke-dasharray="1,5" d="M429.512,-166.787C422.955,-156.063 411.206,-136.847 402.13,-122.002"/>
<polygon fill="green" stroke="green" stroke-width="0.418822" points="405.096,-120.145 396.894,-113.439 399.124,-123.797 405.096,-120.145"/>
</g>
<!-- &#45;8&#45;&gt;1 -->
<g id="edge7" class="edge"><title>&#45;8&#45;&gt;1</title>
<path fill="none" stroke="red" stroke-width="0.321031" stroke-dasharray="1,5" d="M441.448,-166.633C445.597,-161.883 451.097,-155.946 456.5,-151.196 472.033,-137.539 491.271,-124.055 505.646,-114.561"/>
<polygon fill="red" stroke="red" stroke-width="0.321031" points="507.823,-117.32 514.302,-108.937 504.01,-111.45 507.823,-117.32"/>
</g>
<!-- &#45;9 -->
<g id="node9" class="node"><title>&#45;9</title>
<polygon fill="lightgray" stroke="black" points="852.5,-184.945 828.5,-184.945 828.5,-166.945 852.5,-166.945 852.5,-184.945"/>
<text text-anchor="middle" x="840.5" y="-173.745" font-family="Times,serif" font-size="9.00">&#45;9</text>
</g>
<!-- &#45;9&#45;&gt;0 -->
<g id="edge36" class="edge"><title>&#45;9&#45;&gt;0</title>
<path fill="none" stroke="red" stroke-width="0.743133" d="M835.682,-166.927C831.975,-161.523 826.335,-154.754 819.5,-151.196 756.612,-118.463 572.908,-123.508 502.5,-115.196 472.137,-111.611 437.21,-107.302 414.32,-104.453"/>
<polygon fill="red" stroke="red" stroke-width="0.743133" points="414.479,-100.946 404.123,-103.181 413.613,-107.892 414.479,-100.946"/>
</g>
<!-- &#45;9&#45;&gt;2 -->
<g id="edge5" class="edge"><title>&#45;9&#45;&gt;2</title>
<path fill="none" stroke="red" stroke-width="0.19667" d="M838.172,-166.787C835.285,-156.668 830.24,-138.987 826.122,-124.553"/>
<polygon fill="red" stroke="red" stroke-width="0.19667" points="829.44,-123.427 823.33,-114.771 822.709,-125.347 829.44,-123.427"/>
</g>
<!-- &#45;10 -->
<g id="node10" class="node"><title>&#45;10</title>
<polygon fill="lightgray" stroke="black" points="29,-184.945 0,-184.945 0,-166.945 29,-166.945 29,-184.945"/>
<text text-anchor="middle" x="14.5" y="-173.745" font-family="Times,serif" font-size="9.00">&#45;10</text>
</g>
<!-- &#45;10&#45;&gt;0 -->
<g id="edge26" class="edge"><title>&#45;10&#45;&gt;0</title>
<path fill="none" stroke="green" stroke-width="0.265391" d="M20.6691,-166.518C25.0317,-161.221 31.3588,-154.739 38.5,-151.196 53.1812,-143.911 286.472,-114.233 364.386,-104.474"/>
<polygon fill="green" stroke="green" stroke-width="0.265391" points="365.221,-107.897 374.71,-103.183 364.353,-100.951 365.221,-107.897"/>
</g>
<!-- &#45;10&#45;&gt;3 -->
<g id="edge11" class="edge"><title>&#45;10&#45;&gt;3</title>
<path fill="none" stroke="green" stroke-width="0.454105" stroke-dasharray="1,5" d="M20.8085,-166.78C25.2299,-161.593 31.5702,-155.137 38.5,-151.196 92.9933,-120.206 167.067,-108.083 205.323,-103.665"/>
<polygon fill="green" stroke="green" stroke-width="0.454105" points="205.981,-107.115 215.552,-102.571 205.236,-100.155 205.981,-107.115"/>
</g>
<!-- &#45;11 -->
<g id="node11" class="node"><title>&#45;11</title>
<polygon fill="lightgray" stroke="black" points="721,-184.945 692,-184.945 692,-166.945 721,-166.945 721,-184.945"/>
<text text-anchor="middle" x="706.5" y="-173.745" font-family="Times,serif" font-size="9.00">&#45;11</text>
</g>
<!-- &#45;11&#45;&gt;0 -->
<g id="edge16" class="edge"><title>&#45;11&#45;&gt;0</title>
<path fill="none" stroke="red" stroke-width="0.170446" d="M691.961,-168.554C679.549,-163.298 661.119,-155.965 644.5,-151.196 561.408,-127.354 459.823,-111.273 413.994,-104.694"/>
<polygon fill="red" stroke="red" stroke-width="0.170446" points="414.477,-101.228 404.086,-103.296 413.499,-108.159 414.477,-101.228"/>
</g>
<!-- &#45;11&#45;&gt;2 -->
<g id="edge46" class="edge"><title>&#45;11&#45;&gt;2</title>
<path fill="none" stroke="red" stroke-width="0.280268" d="M713.587,-166.903C718.131,-162.019 724.319,-155.85 730.5,-151.196 751.608,-135.304 778.339,-121.005 796.972,-111.84"/>
<polygon fill="red" stroke="red" stroke-width="0.280268" points="798.664,-114.91 806.153,-107.416 795.625,-108.603 798.664,-114.91"/>
</g>
<!-- &#45;12 -->
<g id="node12" class="node"><title>&#45;12</title>
<polygon fill="lightgray" stroke="black" points="989,-184.945 960,-184.945 960,-166.945 989,-166.945 989,-184.945"/>
<text text-anchor="middle" x="974.5" y="-173.745" font-family="Times,serif" font-size="9.00">&#45;12</text>
</g>
<!-- &#45;12&#45;&gt;1 -->
<g id="edge18" class="edge"><title>&#45;12&#45;&gt;1</title>
<path fill="none" stroke="green" stroke-width="1.06313" d="M969.05,-166.929C964.907,-161.526 958.704,-154.757 951.5,-151.196 880.42,-116.06 632.387,-104.86 551.918,-102.108"/>
<polygon fill="green" stroke="green" stroke-width="1.06313" points="551.821,-98.6031 541.712,-101.774 551.592,-105.599 551.821,-98.6031"/>
</g>
<!-- &#45;13 -->
<g id="node13" class="node"><title>&#45;13</title>
<polygon fill="lightgray" stroke="black" points="161,-184.945 132,-184.945 132,-166.945 161,-166.945 161,-184.945"/>
<text text-anchor="middle" x="146.5" y="-173.745" font-family="Times,serif" font-size="9.00">&#45;13</text>
</g>
<!-- &#45;13&#45;&gt;0 -->
<g id="edge51" class="edge"><title>&#45;13&#45;&gt;0</title>
<path fill="none" stroke="green" stroke-width="0.143467" d="M152.438,-166.704C156.63,-161.485 162.695,-155.021 169.5,-151.196 203.054,-132.334 314.797,-113.046 364.865,-105.109"/>
<polygon fill="green" stroke="green" stroke-width="0.143467" points="365.496,-108.553 374.835,-103.549 364.414,-101.637 365.496,-108.553"/>
</g>
<!-- &#45;14 -->
<g id="node14" class="node"><title>&#45;14</title>
<polygon fill="lightgray" stroke="black" points="588,-184.945 559,-184.945 559,-166.945 588,-166.945 588,-184.945"/>
<text text-anchor="middle" x="573.5" y="-173.745" font-family="Times,serif" font-size="9.00">&#45;14</text>
</g>
<!-- &#45;14&#45;&gt;1 -->
<g id="edge54" class="edge"><title>&#45;14&#45;&gt;1</title>
<path fill="none" stroke="green" stroke-width="0.267677" d="M568.291,-166.787C561.403,-156.002 549.029,-136.625 539.527,-121.745"/>
<polygon fill="green" stroke="green" stroke-width="0.267677" points="542.388,-119.723 534.056,-113.179 536.489,-123.491 542.388,-119.723"/>
</g>
<!-- &#45;14&#45;&gt;2 -->
<g id="edge17" class="edge"><title>&#45;14&#45;&gt;2</title>
<path fill="none" stroke="green" stroke-width="0.145997" d="M579.766,-166.704C584.17,-161.485 590.506,-155.022 597.5,-151.196 662.537,-115.623 751.52,-105.416 794.392,-102.502"/>
<polygon fill="green" stroke="green" stroke-width="0.145997" points="794.721,-105.989 804.493,-101.895 794.301,-99.0014 794.721,-105.989"/>
</g>
<!-- &#45;14&#45;&gt;3 -->
<g id="edge33" class="edge"><title>&#45;14&#45;&gt;3</title>
<path fill="none" stroke="red" stroke-width="0.264455" stroke-dasharray="1,5" d="M567.646,-166.549C563.489,-161.265 557.431,-154.787 550.5,-151.196 524.318,-137.632 326.169,-112.825 255.469,-104.309"/>
<polygon fill="red" stroke="red" stroke-width="0.264455" points="255.607,-100.8 245.262,-103.086 254.775,-107.751 255.607,-100.8"/>
</g>
<!-- &#45;15 -->
<g id="node15" class="node"><title>&#45;15</title>
<polygon fill="lightgray" stroke="black" points="541,-184.945 512,-184.945 512,-166.945 541,-166.945 541,-184.945"/>
<text text-anchor="middle" x="526.5" y="-173.745" font-family="Times,serif" font-size="9.00">&#45;15</text>
</g>
<!-- &#45;15&#45;&gt;1 -->
<g id="edge19" class="edge"><title>&#45;15&#45;&gt;1</title>
<path fill="none" stroke="red" stroke-width="0.143143" d="M526.5,-166.787C526.5,-156.886 526.5,-139.744 526.5,-125.488"/>
<polygon fill="red" stroke="red" stroke-width="0.143143" points="530,-125.317 526.5,-115.317 523,-125.317 530,-125.317"/>
</g>
<!-- &#45;16 -->
<g id="node16" class="node"><title>&#45;16</title>
<polygon fill="lightgray" stroke="black" points="494,-184.945 465,-184.945 465,-166.945 494,-166.945 494,-184.945"/>
<text text-anchor="middle" x="479.5" y="-173.745" font-family="Times,serif" font-size="9.00">&#45;16</text>
</g>
<!-- &#45;16&#45;&gt;0 -->
<g id="edge22" class="edge"><title>&#45;16&#45;&gt;0</title>
<path fill="none" stroke="red" stroke-width="0.178839" d="M471.755,-166.753C467.173,-162.044 461.173,-156.107 455.5,-151.196 440.857,-138.52 423.323,-125.364 410.01,-115.752"/>
<polygon fill="red" stroke="red" stroke-width="0.178839" points="411.726,-112.677 401.554,-109.714 407.658,-118.374 411.726,-112.677"/>
</g>
<!-- &#45;16&#45;&gt;1 -->
<g id="edge35" class="edge"><title>&#45;16&#45;&gt;1</title>
<path fill="none" stroke="green" stroke-width="0.152706" stroke-dasharray="1,5" d="M484.709,-166.787C491.597,-156.002 503.971,-136.625 513.473,-121.745"/>
<polygon fill="green" stroke="green" stroke-width="0.152706" points="516.511,-123.491 518.944,-113.179 510.612,-119.723 516.511,-123.491"/>
</g>
<!-- &#45;17 -->
<g id="node17" class="node"><title>&#45;17</title>
<polygon fill="lightgray" stroke="black" points="361,-254.693 332,-254.693 332,-236.693 361,-236.693 361,-254.693"/>
<text text-anchor="middle" x="346.5" y="-243.493" font-family="Times,serif" font-size="9.00">&#45;17</text>
</g>
<!-- &#45;17&#45;&gt;0 -->
<g id="edge4" class="edge"><title>&#45;17&#45;&gt;0</title>
<path fill="none" stroke="green" stroke-width="0.277314" d="M347.623,-236.529C350.021,-220.08 356.271,-181.906 366.5,-151.196 369.695,-141.604 374.191,-131.402 378.362,-122.742"/>
<polygon fill="green" stroke="green" stroke-width="0.277314" points="381.522,-124.248 382.845,-113.736 375.256,-121.128 381.522,-124.248"/>
</g>
<!-- &#45;17&#45;&gt;1 -->
<g id="edge48" class="edge"><title>&#45;17&#45;&gt;1</title>
<path fill="none" stroke="green" stroke-width="0.128524" d="M361.096,-239.335C364.172,-238.346 367.418,-237.403 370.5,-236.693 430.348,-222.92 604.002,-246.86 644.5,-200.693 659.007,-184.156 656.658,-169.53 644.5,-151.196 623.885,-120.107 579.626,-108.358 551.558,-103.951"/>
<polygon fill="green" stroke="green" stroke-width="0.128524" points="551.71,-100.44 541.329,-102.556 550.764,-107.375 551.71,-100.44"/>
</g>
<!-- 4017 -->
<g id="node30" class="node"><title>4017</title>
<ellipse fill="white" stroke="black" cx="203.5" cy="-175.945" rx="25" ry="25"/>
<text text-anchor="middle" x="203.5" y="-173.745" font-family="Times,serif" font-size="9.00">4017</text>
</g>
<!-- &#45;17&#45;&gt;4017 -->
<g id="edge28" class="edge"><title>&#45;17&#45;&gt;4017</title>
<path fill="none" stroke="green" stroke-width="0.458486" d="M331.923,-239.99C310.563,-232.839 269.794,-218.197 237.5,-200.693 235.494,-199.606 233.464,-198.424 231.446,-197.188"/>
<polygon fill="green" stroke="green" stroke-width="0.458486" points="233.08,-194.075 222.793,-191.541 229.255,-199.937 233.08,-194.075"/>
</g>
<!-- &#45;18 -->
<g id="node18" class="node"><title>&#45;18</title>
<polygon fill="lightgray" stroke="black" points="318,-184.945 289,-184.945 289,-166.945 318,-166.945 318,-184.945"/>
<text text-anchor="middle" x="303.5" y="-173.745" font-family="Times,serif" font-size="9.00">&#45;18</text>
</g>
<!-- &#45;18&#45;&gt;0 -->
<g id="edge30" class="edge"><title>&#45;18&#45;&gt;0</title>
<path fill="none" stroke="green" stroke-width="0.663551" stroke-dasharray="1,5" d="M313.032,-166.787C326.863,-154.951 352.782,-132.77 370.579,-117.539"/>
<polygon fill="green" stroke="green" stroke-width="0.663551" points="373.253,-119.857 378.575,-110.696 368.702,-114.539 373.253,-119.857"/>
</g>
<!-- &#45;18&#45;&gt;2 -->
<g id="edge42" class="edge"><title>&#45;18&#45;&gt;2</title>
<path fill="none" stroke="red" stroke-width="0.632923" stroke-dasharray="1,5" d="M318.189,-168.202C330.75,-162.731 349.449,-155.279 366.5,-151.196 526.123,-112.97 724.518,-103.963 794.026,-101.921"/>
<polygon fill="red" stroke="red" stroke-width="0.632923" points="794.505,-105.409 804.407,-101.641 794.316,-98.4118 794.505,-105.409"/>
</g>
<!-- &#45;18&#45;&gt;3 -->
<g id="edge38" class="edge"><title>&#45;18&#45;&gt;3</title>
<path fill="none" stroke="red" stroke-width="0.529485" d="M295.409,-166.787C284.029,-155.314 263.006,-134.119 247.968,-118.958"/>
<polygon fill="red" stroke="red" stroke-width="0.529485" points="250.259,-116.298 240.732,-111.663 245.289,-121.227 250.259,-116.298"/>
</g>
<!-- &#45;19 -->
<g id="node19" class="node"><title>&#45;19</title>
<polygon fill="lightgray" stroke="black" points="942,-184.945 913,-184.945 913,-166.945 942,-166.945 942,-184.945"/>
<text text-anchor="middle" x="927.5" y="-173.745" font-family="Times,serif" font-size="9.00">&#45;19</text>
</g>
<!-- &#45;19&#45;&gt;0 -->
<g id="edge40" class="edge"><title>&#45;19&#45;&gt;0</title>
<path fill="none" stroke="green" stroke-width="0.285244" d="M921.767,-166.865C917.423,-161.432 910.943,-154.653 903.5,-151.196 822.357,-113.506 591.47,-124.639 502.5,-115.196 472.097,-111.969 437.178,-107.585 414.301,-104.621"/>
<polygon fill="green" stroke="green" stroke-width="0.285244" points="414.479,-101.115 404.11,-103.291 413.573,-108.056 414.479,-101.115"/>
</g>
<!-- &#45;19&#45;&gt;1 -->
<g id="edge32" class="edge"><title>&#45;19&#45;&gt;1</title>
<path fill="none" stroke="red" stroke-width="0.411493" d="M921.342,-166.495C916.984,-161.188 910.658,-154.705 903.5,-151.196 841.052,-120.582 626.047,-106.595 551.886,-102.602"/>
<polygon fill="red" stroke="red" stroke-width="0.411493" points="551.787,-99.092 541.618,-102.065 551.422,-106.083 551.787,-99.092"/>
</g>
<!-- &#45;19&#45;&gt;2 -->
<g id="edge14" class="edge"><title>&#45;19&#45;&gt;2</title>
<path fill="none" stroke="green" stroke-width="0.322562" d="M919.953,-166.511C915.437,-161.721 909.437,-155.784 903.5,-151.196 883.799,-135.974 859.068,-121.816 841.556,-112.509"/>
<polygon fill="green" stroke="green" stroke-width="0.322562" points="843.132,-109.383 832.647,-107.861 839.894,-115.589 843.132,-109.383"/>
</g>
<!-- &#45;20 -->
<g id="node20" class="node"><title>&#45;20</title>
<polygon fill="lightgray" stroke="black" points="1036,-184.945 1007,-184.945 1007,-166.945 1036,-166.945 1036,-184.945"/>
<text text-anchor="middle" x="1021.5" y="-173.745" font-family="Times,serif" font-size="9.00">&#45;20</text>
</g>
<!-- &#45;20&#45;&gt;2 -->
<g id="edge1" class="edge"><title>&#45;20&#45;&gt;2</title>
<path fill="none" stroke="red" stroke-width="0.575322" d="M1015.5,-166.812C1011.28,-161.639 1005.21,-155.186 998.5,-151.196 948.748,-121.609 880.799,-109.008 844.605,-104.117"/>
<polygon fill="red" stroke="red" stroke-width="0.575322" points="844.806,-100.615 834.447,-102.836 843.931,-107.56 844.806,-100.615"/>
</g>
<!-- &#45;21 -->
<g id="node21" class="node"><title>&#45;21</title>
<polygon fill="lightgray" stroke="black" points="768,-184.945 739,-184.945 739,-166.945 768,-166.945 768,-184.945"/>
<text text-anchor="middle" x="753.5" y="-173.745" font-family="Times,serif" font-size="9.00">&#45;21</text>
</g>
<!-- &#45;21&#45;&gt;0 -->
<g id="edge21" class="edge"><title>&#45;21&#45;&gt;0</title>
<path fill="none" stroke="green" stroke-width="1.33034" d="M747.657,-166.528C743.505,-161.234 737.448,-154.754 730.5,-151.196 716.351,-143.95 490.634,-114.373 414.416,-104.542"/>
<polygon fill="green" stroke="green" stroke-width="1.33034" points="414.663,-101.045 404.298,-103.239 413.769,-107.987 414.663,-101.045"/>
</g>
<!-- &#45;21&#45;&gt;2 -->
<g id="edge44" class="edge"><title>&#45;21&#45;&gt;2</title>
<path fill="none" stroke="red" stroke-width="0.201256" d="M760.815,-166.787C770.897,-155.545 789.347,-134.971 802.877,-119.883"/>
<polygon fill="red" stroke="red" stroke-width="0.201256" points="805.733,-121.941 809.804,-112.159 800.521,-117.268 805.733,-121.941"/>
</g>
<!-- &#45;22 -->
<g id="node22" class="node"><title>&#45;22</title>
<polygon fill="lightgray" stroke="black" points="635,-184.945 606,-184.945 606,-166.945 635,-166.945 635,-184.945"/>
<text text-anchor="middle" x="620.5" y="-173.745" font-family="Times,serif" font-size="9.00">&#45;22</text>
</g>
<!-- &#45;22&#45;&gt;1 -->
<g id="edge24" class="edge"><title>&#45;22&#45;&gt;1</title>
<path fill="none" stroke="green" stroke-width="0.220129" d="M613.19,-166.648C608.837,-161.904 603.087,-155.967 597.5,-151.196 581.622,-137.637 562.119,-124.145 547.574,-114.623"/>
<polygon fill="green" stroke="green" stroke-width="0.220129" points="549.121,-111.456 538.82,-108.978 545.328,-117.339 549.121,-111.456"/>
</g>
<!-- &#45;22&#45;&gt;2 -->
<g id="edge41" class="edge"><title>&#45;22&#45;&gt;2</title>
<path fill="none" stroke="red" stroke-width="0.448375" stroke-dasharray="1,5" d="M635.252,-169.34C648.01,-164.504 666.956,-157.346 683.5,-151.196 723.003,-136.511 769.07,-119.689 796.176,-109.822"/>
<polygon fill="red" stroke="red" stroke-width="0.448375" points="797.383,-113.108 805.584,-106.4 794.99,-106.529 797.383,-113.108"/>
</g>
<!-- &#45;22&#45;&gt;3 -->
<g id="edge53" class="edge"><title>&#45;22&#45;&gt;3</title>
<path fill="none" stroke="red" stroke-width="0.322679" stroke-dasharray="1,5" d="M614.668,-166.504C610.522,-161.201 604.466,-154.719 597.5,-151.196 566.942,-135.742 333.119,-111.49 255.473,-103.783"/>
<polygon fill="red" stroke="red" stroke-width="0.322679" points="255.488,-100.268 245.193,-102.769 254.801,-107.234 255.488,-100.268"/>
</g>
<!-- &#45;23 -->
<g id="node23" class="node"><title>&#45;23</title>
<polygon fill="lightgray" stroke="black" points="408,-254.693 379,-254.693 379,-236.693 408,-236.693 408,-254.693"/>
<text text-anchor="middle" x="393.5" y="-243.493" font-family="Times,serif" font-size="9.00">&#45;23</text>
</g>
<!-- &#45;24 -->
<g id="node24" class="node"><title>&#45;24</title>
<polygon fill="lightgray" stroke="black" points="404,-184.945 375,-184.945 375,-166.945 404,-166.945 404,-184.945"/>
<text text-anchor="middle" x="389.5" y="-173.745" font-family="Times,serif" font-size="9.00">&#45;24</text>
</g>
<!-- &#45;24&#45;&gt;0 -->
<g id="edge45" class="edge"><title>&#45;24&#45;&gt;0</title>
<path fill="none" stroke="green" stroke-width="0.394221" d="M389.5,-166.787C389.5,-156.886 389.5,-139.744 389.5,-125.488"/>
<polygon fill="green" stroke="green" stroke-width="0.394221" points="393,-125.317 389.5,-115.317 386,-125.317 393,-125.317"/>
</g>
<!-- &#45;24&#45;&gt;1 -->
<g id="edge3" class="edge"><title>&#45;24&#45;&gt;1</title>
<path fill="none" stroke="red" stroke-width="0.24662" stroke-dasharray="1,5" d="M396.436,-166.692C400.923,-161.729 407.104,-155.551 413.5,-151.196 441.908,-131.853 479.039,-117.19 502.835,-108.93"/>
<polygon fill="red" stroke="red" stroke-width="0.24662" points="504.093,-112.199 512.451,-105.689 501.857,-105.566 504.093,-112.199"/>
</g>
<!-- 1&#45;&gt;1 -->
<g id="edge29" class="edge"><title>1&#45;&gt;1</title>
<path fill="none" stroke="green" stroke-width="0.299388" d="M536.928,-111.173C547.539,-117.541 559.349,-113.933 559.349,-100.347 559.349,-91.0064 553.767,-86.3818 546.83,-86.473"/>
<polygon fill="green" stroke="green" stroke-width="0.299388" points="545.456,-83.2338 536.928,-89.5204 547.515,-89.9242 545.456,-83.2338"/>
</g>
<!-- 2&#45;&gt;2 -->
<g id="edge25" class="edge"><title>2&#45;&gt;2</title>
<path fill="none" stroke="green" stroke-width="0.280491" d="M829.928,-111.173C840.539,-117.541 852.349,-113.933 852.349,-100.347 852.349,-91.0064 846.767,-86.3818 839.83,-86.473"/>
<polygon fill="green" stroke="green" stroke-width="0.280491" points="838.456,-83.2338 829.928,-89.5204 840.515,-89.9242 838.456,-83.2338"/>
</g>
<!-- 2&#45;&gt;3760 -->
<g id="edge12" class="edge"><title>2&#45;&gt;3760</title>
<path fill="none" stroke="red" stroke-width="0.218917" d="M814.184,-86.1889C813.098,-78.5979 812.628,-68.6795 812.777,-59.0788"/>
<polygon fill="red" stroke="red" stroke-width="0.218917" points="816.281,-59.0418 813.18,-48.9109 809.286,-58.7643 816.281,-59.0418"/>
</g>
<!-- 3&#45;&gt;3 -->
<g id="edge15" class="edge"><title>3&#45;&gt;3</title>
<path fill="none" stroke="red" stroke-width="0.331862" d="M240.928,-111.173C251.539,-117.541 263.349,-113.933 263.349,-100.347 263.349,-91.0064 257.767,-86.3818 250.83,-86.473"/>
<polygon fill="red" stroke="red" stroke-width="0.331862" points="249.456,-83.2338 240.928,-89.5204 251.515,-89.9242 249.456,-83.2338"/>
</g>
<!-- 3760&#45;&gt;2 -->
<g id="edge6" class="edge"><title>3760&#45;&gt;2</title>
<path fill="none" stroke="green" stroke-width="0.105676" d="M825.82,-48.9109C826.39,-57.5516 826.393,-67.3607 825.831,-76.0165"/>
<polygon fill="green" stroke="green" stroke-width="0.105676" points="822.326,-75.8907 824.816,-86.1889 829.292,-76.5859 822.326,-75.8907"/>
</g>
<!-- 4017&#45;&gt;1 -->
<g id="edge47" class="edge"><title>4017&#45;&gt;1</title>
<path fill="none" stroke="green" stroke-width="0.186123" d="M222.421,-159.565C227.121,-156.372 232.306,-153.332 237.5,-151.196 285.484,-131.457 440.247,-111.551 501.35,-104.256"/>
<polygon fill="green" stroke="green" stroke-width="0.186123" points="502.102,-107.692 511.623,-103.043 501.281,-100.74 502.102,-107.692"/>
</g>
<!-- 4017&#45;&gt;3 -->
<g id="edge27" class="edge"><title>4017&#45;&gt;3</title>
<path fill="none" stroke="red" stroke-width="0.221669" d="M211.748,-152.463C215.038,-143.494 218.821,-133.182 222.124,-124.179"/>
<polygon fill="red" stroke="red" stroke-width="0.221669" points="225.438,-125.306 225.597,-114.712 218.867,-122.895 225.438,-125.306"/>
</g>
</g>
</svg>
