<?xml version="1.0" encoding="UTF-8" standalone="no"?>
<!DOCTYPE svg PUBLIC "-//W3C//DTD SVG 1.1//EN"
 "http://www.w3.org/Graphics/SVG/1.1/DTD/svg11.dtd">
<!-- Generated by graphviz version 2.38.0 (20140413.2041)
 -->
<!-- Title: %3 Pages: 1 -->
<svg width="1109pt" height="274pt"
 viewBox="0.00 0.00 1108.85 274.39" xmlns="http://www.w3.org/2000/svg" xmlns:xlink="http://www.w3.org/1999/xlink">
<g id="graph0" class="graph" transform="scale(1 1) rotate(0) translate(4 270.392)">
<title>%3</title>
<polygon fill="white" stroke="none" points="-4,4 -4,-270.392 1104.85,-270.392 1104.85,4 -4,4"/>
<!-- &#45;1 -->
<g id="node1" class="node"><title>&#45;1</title>
<polygon fill="lightgray" stroke="black" points="49,-260.543 25,-260.543 25,-242.543 49,-242.543 49,-260.543"/>
<text text-anchor="middle" x="37" y="-249.343" font-family="Times,serif" font-size="9.00">&#45;1</text>
</g>
<!-- &#45;2 -->
<g id="node2" class="node"><title>&#45;2</title>
<polygon fill="lightgray" stroke="black" points="91,-260.543 67,-260.543 67,-242.543 91,-242.543 91,-260.543"/>
<text text-anchor="middle" x="79" y="-249.343" font-family="Times,serif" font-size="9.00">&#45;2</text>
</g>
<!-- &#45;3 -->
<g id="node3" class="node"><title>&#45;3</title>
<polygon fill="lightgray" stroke="black" points="24,-184.945 0,-184.945 0,-166.945 24,-166.945 24,-184.945"/>
<text text-anchor="middle" x="12" y="-173.745" font-family="Times,serif" font-size="9.00">&#45;3</text>
</g>
<!-- 2197 -->
<g id="node30" class="node"><title>2197</title>
<ellipse fill="white" stroke="black" cx="40" cy="-90.4472" rx="25" ry="25"/>
<text text-anchor="middle" x="40" y="-88.2472" font-family="Times,serif" font-size="9.00">2197</text>
</g>
<!-- &#45;3&#45;&gt;2197 -->
<g id="edge2" class="edge"><title>&#45;3&#45;&gt;2197</title>
<path fill="none" stroke="green" stroke-width="0.668813" d="M14.6848,-166.939C17.9859,-157.094 23.794,-139.774 29.0148,-124.206"/>
<polygon fill="green" stroke="green" stroke-width="0.668813" points="32.4676,-124.918 32.3286,-114.324 25.8308,-122.692 32.4676,-124.918"/>
</g>
<!-- &#45;4 -->
<g id="node4" class="node"><title>&#45;4</title>
<polygon fill="lightgray" stroke="black" points="232,-260.543 208,-260.543 208,-242.543 232,-242.543 232,-260.543"/>
<text text-anchor="middle" x="220" y="-249.343" font-family="Times,serif" font-size="9.00">&#45;4</text>
</g>
<!-- &#45;5 -->
<g id="node5" class="node"><title>&#45;5</title>
<polygon fill="lightgray" stroke="black" points="357,-260.543 333,-260.543 333,-242.543 357,-242.543 357,-260.543"/>
<text text-anchor="middle" x="345" y="-249.343" font-family="Times,serif" font-size="9.00">&#45;5</text>
</g>
<!-- 2 -->
<g id="node27" class="node"><title>2</title>
<ellipse fill="lightblue" stroke="black" cx="345" cy="-175.945" rx="14.7" ry="14.7"/>
<text text-anchor="middle" x="345" y="-173.745" font-family="Times,serif" font-size="9.00">2</text>
</g>
<!-- &#45;5&#45;&gt;2 -->
<g id="edge11" class="edge"><title>&#45;5&#45;&gt;2</title>
<path fill="none" stroke="red" stroke-width="0.872459" d="M345,-242.385C345,-232.484 345,-215.342 345,-201.086"/>
<polygon fill="red" stroke="red" stroke-width="0.872459" points="348.5,-200.915 345,-190.915 341.5,-200.915 348.5,-200.915"/>
</g>
<!-- &#45;6 -->
<g id="node6" class="node"><title>&#45;6</title>
<polygon fill="lightgray" stroke="black" points="399,-260.543 375,-260.543 375,-242.543 399,-242.543 399,-260.543"/>
<text text-anchor="middle" x="387" y="-249.343" font-family="Times,serif" font-size="9.00">&#45;6</text>
</g>
<!-- &#45;7 -->
<g id="node7" class="node"><title>&#45;7</title>
<polygon fill="lightgray" stroke="black" points="133,-260.543 109,-260.543 109,-242.543 133,-242.543 133,-260.543"/>
<text text-anchor="middle" x="121" y="-249.343" font-family="Times,serif" font-size="9.00">&#45;7</text>
</g>
<!-- 2831 -->
<g id="node29" class="node"><title>2831</title>
<ellipse fill="white" stroke="black" cx="160" cy="-90.4472" rx="25" ry="25"/>
<text text-anchor="middle" x="160" y="-88.2472" font-family="Times,serif" font-size="9.00">2831</text>
</g>
<!-- &#45;7&#45;&gt;2831 -->
<g id="edge5" class="edge"><title>&#45;7&#45;&gt;2831</title>
<path fill="none" stroke="green" stroke-width="0.565886" d="M118.228,-242.54C112.707,-225.296 101.792,-183.572 113,-151.196 117.565,-138.009 126.377,-125.523 135.149,-115.408"/>
<polygon fill="green" stroke="green" stroke-width="0.565886" points="137.913,-117.572 142.093,-107.836 132.754,-112.84 137.913,-117.572"/>
</g>
<!-- 4505 -->
<g id="node31" class="node"><title>4505</title>
<ellipse fill="white" stroke="black" cx="147" cy="-175.945" rx="25" ry="25"/>
<text text-anchor="middle" x="147" y="-173.745" font-family="Times,serif" font-size="9.00">4505</text>
</g>
<!-- &#45;7&#45;&gt;4505 -->
<g id="edge6" class="edge"><title>&#45;7&#45;&gt;4505</title>
<path fill="none" stroke="red" stroke-width="0.368076" d="M123.882,-242.385C126.74,-234.294 131.307,-221.367 135.629,-209.131"/>
<polygon fill="red" stroke="red" stroke-width="0.368076" points="138.975,-210.167 139.006,-199.572 132.375,-207.835 138.975,-210.167"/>
</g>
<!-- &#45;8 -->
<g id="node8" class="node"><title>&#45;8</title>
<polygon fill="lightgray" stroke="black" points="66,-184.945 42,-184.945 42,-166.945 66,-166.945 66,-184.945"/>
<text text-anchor="middle" x="54" y="-173.745" font-family="Times,serif" font-size="9.00">&#45;8</text>
</g>
<!-- 1 -->
<g id="node26" class="node"><title>1</title>
<ellipse fill="lightblue" stroke="black" cx="93" cy="-14.8492" rx="14.7" ry="14.7"/>
<text text-anchor="middle" x="93" y="-12.6492" font-family="Times,serif" font-size="9.00">1</text>
</g>
<!-- &#45;8&#45;&gt;1 -->
<g id="edge10" class="edge"><title>&#45;8&#45;&gt;1</title>
<path fill="none" stroke="green" stroke-width="0.640283" d="M57.0656,-166.931C61.3265,-155.561 69.0699,-134.032 74,-115.196 80.671,-89.7079 86.0488,-59.9717 89.3578,-39.7215"/>
<polygon fill="green" stroke="green" stroke-width="0.640283" points="92.8212,-40.2281 90.937,-29.8022 85.9082,-39.1275 92.8212,-40.2281"/>
</g>
<!-- &#45;8&#45;&gt;2197 -->
<g id="edge12" class="edge"><title>&#45;8&#45;&gt;2197</title>
<path fill="none" stroke="green" stroke-width="0.257291" d="M52.6576,-166.939C51.045,-157.321 48.2359,-140.567 45.6731,-125.282"/>
<polygon fill="green" stroke="green" stroke-width="0.257291" points="49.0615,-124.325 43.956,-115.041 42.1579,-125.482 49.0615,-124.325"/>
</g>
<!-- &#45;9 -->
<g id="node9" class="node"><title>&#45;9</title>
<polygon fill="lightgray" stroke="black" points="441,-260.543 417,-260.543 417,-242.543 441,-242.543 441,-260.543"/>
<text text-anchor="middle" x="429" y="-249.343" font-family="Times,serif" font-size="9.00">&#45;9</text>
</g>
<!-- &#45;10 -->
<g id="node10" class="node"><title>&#45;10</title>
<polygon fill="lightgray" stroke="black" points="488.5,-260.543 459.5,-260.543 459.5,-242.543 488.5,-242.543 488.5,-260.543"/>
<text text-anchor="middle" x="474" y="-249.343" font-family="Times,serif" font-size="9.00">&#45;10</text>
</g>
<!-- &#45;11 -->
<g id="node11" class="node"><title>&#45;11</title>
<polygon fill="lightgray" stroke="black" points="535.5,-260.543 506.5,-260.543 506.5,-242.543 535.5,-242.543 535.5,-260.543"/>
<text text-anchor="middle" x="521" y="-249.343" font-family="Times,serif" font-size="9.00">&#45;11</text>
</g>
<!-- &#45;12 -->
<g id="node12" class="node"><title>&#45;12</title>
<polygon fill="lightgray" stroke="black" points="582.5,-260.543 553.5,-260.543 553.5,-242.543 582.5,-242.543 582.5,-260.543"/>
<text text-anchor="middle" x="568" y="-249.343" font-family="Times,serif" font-size="9.00">&#45;12</text>
</g>
<!-- &#45;13 -->
<g id="node13" class="node"><title>&#45;13</title>
<polygon fill="lightgray" stroke="black" points="218.5,-184.945 189.5,-184.945 189.5,-166.945 218.5,-166.945 218.5,-184.945"/>
<text text-anchor="middle" x="204" y="-173.745" font-family="Times,serif" font-size="9.00">&#45;13</text>
</g>
<!-- &#45;13&#45;&gt;2831 -->
<g id="edge8" class="edge"><title>&#45;13&#45;&gt;2831</title>
<path fill="none" stroke="red" stroke-width="0.394679" d="M199.781,-166.939C194.315,-156.566 184.475,-137.892 175.949,-121.714"/>
<polygon fill="red" stroke="red" stroke-width="0.394679" points="178.883,-119.773 171.124,-112.558 172.69,-123.036 178.883,-119.773"/>
</g>
<!-- &#45;14 -->
<g id="node14" class="node"><title>&#45;14</title>
<polygon fill="lightgray" stroke="black" points="265.5,-184.945 236.5,-184.945 236.5,-166.945 265.5,-166.945 265.5,-184.945"/>
<text text-anchor="middle" x="251" y="-173.745" font-family="Times,serif" font-size="9.00">&#45;14</text>
</g>
<!-- &#45;14&#45;&gt;2831 -->
<g id="edge3" class="edge"><title>&#45;14&#45;&gt;2831</title>
<path fill="none" stroke="green" stroke-width="0.169307" d="M243.101,-166.923C238.468,-162.271 232.468,-156.333 227,-151.196 213.769,-138.766 198.706,-125.277 186.219,-114.267"/>
<polygon fill="green" stroke="green" stroke-width="0.169307" points="188.253,-111.395 178.43,-107.425 183.634,-116.654 188.253,-111.395"/>
</g>
<!-- &#45;15 -->
<g id="node15" class="node"><title>&#45;15</title>
<polygon fill="lightgray" stroke="black" points="629.5,-260.543 600.5,-260.543 600.5,-242.543 629.5,-242.543 629.5,-260.543"/>
<text text-anchor="middle" x="615" y="-249.343" font-family="Times,serif" font-size="9.00">&#45;15</text>
</g>
<!-- &#45;16 -->
<g id="node16" class="node"><title>&#45;16</title>
<polygon fill="lightgray" stroke="black" points="676.5,-260.543 647.5,-260.543 647.5,-242.543 676.5,-242.543 676.5,-260.543"/>
<text text-anchor="middle" x="662" y="-249.343" font-family="Times,serif" font-size="9.00">&#45;16</text>
</g>
<!-- &#45;17 -->
<g id="node17" class="node"><title>&#45;17</title>
<polygon fill="lightgray" stroke="black" points="723.5,-260.543 694.5,-260.543 694.5,-242.543 723.5,-242.543 723.5,-260.543"/>
<text text-anchor="middle" x="709" y="-249.343" font-family="Times,serif" font-size="9.00">&#45;17</text>
</g>
<!-- &#45;18 -->
<g id="node18" class="node"><title>&#45;18</title>
<polygon fill="lightgray" stroke="black" points="770.5,-260.543 741.5,-260.543 741.5,-242.543 770.5,-242.543 770.5,-260.543"/>
<text text-anchor="middle" x="756" y="-249.343" font-family="Times,serif" font-size="9.00">&#45;18</text>
</g>
<!-- &#45;19 -->
<g id="node19" class="node"><title>&#45;19</title>
<polygon fill="lightgray" stroke="black" points="817.5,-260.543 788.5,-260.543 788.5,-242.543 817.5,-242.543 817.5,-260.543"/>
<text text-anchor="middle" x="803" y="-249.343" font-family="Times,serif" font-size="9.00">&#45;19</text>
</g>
<!-- &#45;20 -->
<g id="node20" class="node"><title>&#45;20</title>
<polygon fill="lightgray" stroke="black" points="864.5,-260.543 835.5,-260.543 835.5,-242.543 864.5,-242.543 864.5,-260.543"/>
<text text-anchor="middle" x="850" y="-249.343" font-family="Times,serif" font-size="9.00">&#45;20</text>
</g>
<!-- &#45;21 -->
<g id="node21" class="node"><title>&#45;21</title>
<polygon fill="lightgray" stroke="black" points="911.5,-260.543 882.5,-260.543 882.5,-242.543 911.5,-242.543 911.5,-260.543"/>
<text text-anchor="middle" x="897" y="-249.343" font-family="Times,serif" font-size="9.00">&#45;21</text>
</g>
<!-- &#45;22 -->
<g id="node22" class="node"><title>&#45;22</title>
<polygon fill="lightgray" stroke="black" points="312.5,-184.945 283.5,-184.945 283.5,-166.945 312.5,-166.945 312.5,-184.945"/>
<text text-anchor="middle" x="298" y="-173.745" font-family="Times,serif" font-size="9.00">&#45;22</text>
</g>
<!-- &#45;22&#45;&gt;2831 -->
<g id="edge1" class="edge"><title>&#45;22&#45;&gt;2831</title>
<path fill="none" stroke="green" stroke-width="0.54478" d="M290.958,-166.842C286.431,-161.935 280.246,-155.764 274,-151.196 248.161,-132.299 215.54,-115.84 191.82,-105.009"/>
<polygon fill="green" stroke="green" stroke-width="0.54478" points="193.121,-101.757 182.564,-100.861 190.258,-108.145 193.121,-101.757"/>
</g>
<!-- &#45;23 -->
<g id="node23" class="node"><title>&#45;23</title>
<polygon fill="lightgray" stroke="black" points="958.5,-260.543 929.5,-260.543 929.5,-242.543 958.5,-242.543 958.5,-260.543"/>
<text text-anchor="middle" x="944" y="-249.343" font-family="Times,serif" font-size="9.00">&#45;23</text>
</g>
<!-- &#45;24 -->
<g id="node24" class="node"><title>&#45;24</title>
<polygon fill="lightgray" stroke="black" points="1005.5,-260.543 976.5,-260.543 976.5,-242.543 1005.5,-242.543 1005.5,-260.543"/>
<text text-anchor="middle" x="991" y="-249.343" font-family="Times,serif" font-size="9.00">&#45;24</text>
</g>
<!-- 0 -->
<g id="node25" class="node"><title>0</title>
<ellipse fill="lightblue" stroke="black" cx="1038" cy="-251.543" rx="14.7" ry="14.7"/>
<text text-anchor="middle" x="1038" y="-249.343" font-family="Times,serif" font-size="9.00">0</text>
</g>
<!-- 3 -->
<g id="node28" class="node"><title>3</title>
<ellipse fill="lightblue" stroke="black" cx="1086" cy="-251.543" rx="14.7" ry="14.7"/>
<text text-anchor="middle" x="1086" y="-249.343" font-family="Times,serif" font-size="9.00">3</text>
</g>
<!-- 2831&#45;&gt;1 -->
<g id="edge7" class="edge"><title>2831&#45;&gt;1</title>
<path fill="none" stroke="red" stroke-width="0.437271" d="M143.781,-71.6312C133.435,-60.2658 120.06,-45.5737 109.634,-34.1209"/>
<polygon fill="red" stroke="red" stroke-width="0.437271" points="111.969,-31.4865 102.649,-26.4479 106.792,-36.1988 111.969,-31.4865"/>
</g>
<!-- 2197&#45;&gt;1 -->
<g id="edge4" class="edge"><title>2197&#45;&gt;1</title>
<path fill="none" stroke="green" stroke-width="0.695308" d="M54.203,-69.7243C61.7729,-59.2125 71.0628,-46.3122 78.6541,-35.7706"/>
<polygon fill="green" stroke="green" stroke-width="0.695308" points="81.5526,-37.7348 84.5562,-27.5746 75.8722,-33.6442 81.5526,-37.7348"/>
</g>
<!-- 4505&#45;&gt;2831 -->
<g id="edge9" class="edge"><title>4505&#45;&gt;2831</title>
<path fill="none" stroke="red" stroke-width="1.16145" d="M150.691,-151.241C151.953,-143.132 153.391,-133.898 154.752,-125.154"/>
<polygon fill="red" stroke="red" stroke-width="1.16145" points="158.22,-125.63 156.3,-115.21 151.303,-124.553 158.22,-125.63"/>
</g>
</g>
</svg>
