<?xml version="1.0" encoding="UTF-8" standalone="no"?>
<!DOCTYPE svg PUBLIC "-//W3C//DTD SVG 1.1//EN"
 "http://www.w3.org/Graphics/SVG/1.1/DTD/svg11.dtd">
<!-- Generated by graphviz version 2.38.0 (20140413.2041)
 -->
<!-- Title: %3 Pages: 1 -->
<svg width="1203pt" height="274pt"
 viewBox="0.00 0.00 1202.85 274.39" xmlns="http://www.w3.org/2000/svg" xmlns:xlink="http://www.w3.org/1999/xlink">
<g id="graph0" class="graph" transform="scale(1 1) rotate(0) translate(4 270.392)">
<title>%3</title>
<polygon fill="white" stroke="none" points="-4,4 -4,-270.392 1198.85,-270.392 1198.85,4 -4,4"/>
<!-- &#45;1 -->
<g id="node1" class="node"><title>&#45;1</title>
<polygon fill="lightgray" stroke="black" points="24,-260.543 0,-260.543 0,-242.543 24,-242.543 24,-260.543"/>
<text text-anchor="middle" x="12" y="-249.343" font-family="Times,serif" font-size="9.00">&#45;1</text>
</g>
<!-- &#45;2 -->
<g id="node2" class="node"><title>&#45;2</title>
<polygon fill="lightgray" stroke="black" points="66,-260.543 42,-260.543 42,-242.543 66,-242.543 66,-260.543"/>
<text text-anchor="middle" x="54" y="-249.343" font-family="Times,serif" font-size="9.00">&#45;2</text>
</g>
<!-- &#45;3 -->
<g id="node3" class="node"><title>&#45;3</title>
<polygon fill="lightgray" stroke="black" points="108,-260.543 84,-260.543 84,-242.543 108,-242.543 108,-260.543"/>
<text text-anchor="middle" x="96" y="-249.343" font-family="Times,serif" font-size="9.00">&#45;3</text>
</g>
<!-- 2197 -->
<g id="node30" class="node"><title>2197</title>
<ellipse fill="white" stroke="black" cx="96" cy="-175.945" rx="25" ry="25"/>
<text text-anchor="middle" x="96" y="-173.745" font-family="Times,serif" font-size="9.00">2197</text>
</g>
<!-- &#45;3&#45;&gt;2197 -->
<g id="edge2" class="edge"><title>&#45;3&#45;&gt;2197</title>
<path fill="none" stroke="green" stroke-width="0.668813" d="M96,-242.385C96,-234.685 96,-222.607 96,-210.913"/>
<polygon fill="green" stroke="green" stroke-width="0.668813" points="99.5001,-210.854 96,-200.854 92.5001,-210.854 99.5001,-210.854"/>
</g>
<!-- &#45;4 -->
<g id="node4" class="node"><title>&#45;4</title>
<polygon fill="lightgray" stroke="black" points="333,-260.543 309,-260.543 309,-242.543 333,-242.543 333,-260.543"/>
<text text-anchor="middle" x="321" y="-249.343" font-family="Times,serif" font-size="9.00">&#45;4</text>
</g>
<!-- &#45;5 -->
<g id="node5" class="node"><title>&#45;5</title>
<polygon fill="lightgray" stroke="black" points="451,-260.543 427,-260.543 427,-242.543 451,-242.543 451,-260.543"/>
<text text-anchor="middle" x="439" y="-249.343" font-family="Times,serif" font-size="9.00">&#45;5</text>
</g>
<!-- 2 -->
<g id="node27" class="node"><title>2</title>
<ellipse fill="lightblue" stroke="black" cx="439" cy="-175.945" rx="14.7" ry="14.7"/>
<text text-anchor="middle" x="439" y="-173.745" font-family="Times,serif" font-size="9.00">2</text>
</g>
<!-- &#45;5&#45;&gt;2 -->
<g id="edge12" class="edge"><title>&#45;5&#45;&gt;2</title>
<path fill="none" stroke="red" stroke-width="0.872459" d="M439,-242.385C439,-232.484 439,-215.342 439,-201.086"/>
<polygon fill="red" stroke="red" stroke-width="0.872459" points="442.5,-200.915 439,-190.915 435.5,-200.915 442.5,-200.915"/>
</g>
<!-- &#45;6 -->
<g id="node6" class="node"><title>&#45;6</title>
<polygon fill="lightgray" stroke="black" points="493,-260.543 469,-260.543 469,-242.543 493,-242.543 493,-260.543"/>
<text text-anchor="middle" x="481" y="-249.343" font-family="Times,serif" font-size="9.00">&#45;6</text>
</g>
<!-- &#45;7 -->
<g id="node7" class="node"><title>&#45;7</title>
<polygon fill="lightgray" stroke="black" points="241,-260.543 217,-260.543 217,-242.543 241,-242.543 241,-260.543"/>
<text text-anchor="middle" x="229" y="-249.343" font-family="Times,serif" font-size="9.00">&#45;7</text>
</g>
<!-- 2831 -->
<g id="node29" class="node"><title>2831</title>
<ellipse fill="white" stroke="black" cx="276" cy="-90.4472" rx="25" ry="25"/>
<text text-anchor="middle" x="276" y="-88.2472" font-family="Times,serif" font-size="9.00">2831</text>
</g>
<!-- &#45;7&#45;&gt;2831 -->
<g id="edge5" class="edge"><title>&#45;7&#45;&gt;2831</title>
<path fill="none" stroke="green" stroke-width="0.565886" d="M231.395,-242.434C237.722,-221.019 255.153,-162.015 266.258,-124.426"/>
<polygon fill="green" stroke="green" stroke-width="0.565886" points="269.731,-125.022 269.207,-114.44 263.018,-123.039 269.731,-125.022"/>
</g>
<!-- 4505 -->
<g id="node31" class="node"><title>4505</title>
<ellipse fill="white" stroke="black" cx="202" cy="-175.945" rx="25" ry="25"/>
<text text-anchor="middle" x="202" y="-173.745" font-family="Times,serif" font-size="9.00">4505</text>
</g>
<!-- &#45;7&#45;&gt;4505 -->
<g id="edge6" class="edge"><title>&#45;7&#45;&gt;4505</title>
<path fill="none" stroke="red" stroke-width="0.368076" d="M226.007,-242.385C223.039,-234.294 218.297,-221.367 213.808,-209.131"/>
<polygon fill="red" stroke="red" stroke-width="0.368076" points="217.031,-207.755 210.301,-199.572 210.459,-210.166 217.031,-207.755"/>
</g>
<!-- &#45;8 -->
<g id="node8" class="node"><title>&#45;8</title>
<polygon fill="lightgray" stroke="black" points="161,-260.543 137,-260.543 137,-242.543 161,-242.543 161,-260.543"/>
<text text-anchor="middle" x="149" y="-249.343" font-family="Times,serif" font-size="9.00">&#45;8</text>
</g>
<!-- 1 -->
<g id="node26" class="node"><title>1</title>
<ellipse fill="lightblue" stroke="black" cx="149" cy="-14.8492" rx="14.7" ry="14.7"/>
<text text-anchor="middle" x="149" y="-12.6492" font-family="Times,serif" font-size="9.00">1</text>
</g>
<!-- &#45;8&#45;&gt;1 -->
<g id="edge11" class="edge"><title>&#45;8&#45;&gt;1</title>
<path fill="none" stroke="green" stroke-width="0.640283" d="M149,-242.464C149,-210.475 149,-91.914 149,-40.2155"/>
<polygon fill="green" stroke="green" stroke-width="0.640283" points="152.5,-39.9759 149,-29.9759 145.5,-39.9759 152.5,-39.9759"/>
</g>
<!-- &#45;8&#45;&gt;2197 -->
<g id="edge13" class="edge"><title>&#45;8&#45;&gt;2197</title>
<path fill="none" stroke="green" stroke-width="0.257291" d="M143.126,-242.385C136.626,-233.359 125.793,-218.316 116.152,-204.928"/>
<polygon fill="green" stroke="green" stroke-width="0.257291" points="118.729,-202.518 110.045,-196.449 113.049,-206.609 118.729,-202.518"/>
</g>
<!-- &#45;8&#45;&gt;4505 -->
<g id="edge8" class="edge"><title>&#45;8&#45;&gt;4505</title>
<path fill="none" stroke="green" stroke-width="0.224781" stroke-dasharray="1,5" d="M154.874,-242.385C161.374,-233.359 172.207,-218.316 181.848,-204.928"/>
<polygon fill="green" stroke="green" stroke-width="0.224781" points="184.951,-206.609 187.955,-196.449 179.271,-202.518 184.951,-206.609"/>
</g>
<!-- &#45;9 -->
<g id="node9" class="node"><title>&#45;9</title>
<polygon fill="lightgray" stroke="black" points="535,-260.543 511,-260.543 511,-242.543 535,-242.543 535,-260.543"/>
<text text-anchor="middle" x="523" y="-249.343" font-family="Times,serif" font-size="9.00">&#45;9</text>
</g>
<!-- &#45;10 -->
<g id="node10" class="node"><title>&#45;10</title>
<polygon fill="lightgray" stroke="black" points="582.5,-260.543 553.5,-260.543 553.5,-242.543 582.5,-242.543 582.5,-260.543"/>
<text text-anchor="middle" x="568" y="-249.343" font-family="Times,serif" font-size="9.00">&#45;10</text>
</g>
<!-- &#45;11 -->
<g id="node11" class="node"><title>&#45;11</title>
<polygon fill="lightgray" stroke="black" points="629.5,-260.543 600.5,-260.543 600.5,-242.543 629.5,-242.543 629.5,-260.543"/>
<text text-anchor="middle" x="615" y="-249.343" font-family="Times,serif" font-size="9.00">&#45;11</text>
</g>
<!-- &#45;12 -->
<g id="node12" class="node"><title>&#45;12</title>
<polygon fill="lightgray" stroke="black" points="676.5,-260.543 647.5,-260.543 647.5,-242.543 676.5,-242.543 676.5,-260.543"/>
<text text-anchor="middle" x="662" y="-249.343" font-family="Times,serif" font-size="9.00">&#45;12</text>
</g>
<!-- &#45;13 -->
<g id="node13" class="node"><title>&#45;13</title>
<polygon fill="lightgray" stroke="black" points="312.5,-184.945 283.5,-184.945 283.5,-166.945 312.5,-166.945 312.5,-184.945"/>
<text text-anchor="middle" x="298" y="-173.745" font-family="Times,serif" font-size="9.00">&#45;13</text>
</g>
<!-- &#45;13&#45;&gt;2831 -->
<g id="edge9" class="edge"><title>&#45;13&#45;&gt;2831</title>
<path fill="none" stroke="red" stroke-width="0.394679" d="M295.891,-166.939C293.314,-157.161 288.795,-140.01 284.715,-124.524"/>
<polygon fill="red" stroke="red" stroke-width="0.394679" points="288.054,-123.46 282.122,-114.682 281.285,-125.243 288.054,-123.46"/>
</g>
<!-- &#45;14 -->
<g id="node14" class="node"><title>&#45;14</title>
<polygon fill="lightgray" stroke="black" points="359.5,-184.945 330.5,-184.945 330.5,-166.945 359.5,-166.945 359.5,-184.945"/>
<text text-anchor="middle" x="345" y="-173.745" font-family="Times,serif" font-size="9.00">&#45;14</text>
</g>
<!-- &#45;14&#45;&gt;2831 -->
<g id="edge3" class="edge"><title>&#45;14&#45;&gt;2831</title>
<path fill="none" stroke="green" stroke-width="0.169307" d="M338.384,-166.939C329.166,-155.784 312.016,-135.03 298.027,-118.102"/>
<polygon fill="green" stroke="green" stroke-width="0.169307" points="300.53,-115.637 291.462,-110.158 295.134,-120.096 300.53,-115.637"/>
</g>
<!-- &#45;15 -->
<g id="node15" class="node"><title>&#45;15</title>
<polygon fill="lightgray" stroke="black" points="723.5,-260.543 694.5,-260.543 694.5,-242.543 723.5,-242.543 723.5,-260.543"/>
<text text-anchor="middle" x="709" y="-249.343" font-family="Times,serif" font-size="9.00">&#45;15</text>
</g>
<!-- &#45;16 -->
<g id="node16" class="node"><title>&#45;16</title>
<polygon fill="lightgray" stroke="black" points="770.5,-260.543 741.5,-260.543 741.5,-242.543 770.5,-242.543 770.5,-260.543"/>
<text text-anchor="middle" x="756" y="-249.343" font-family="Times,serif" font-size="9.00">&#45;16</text>
</g>
<!-- &#45;17 -->
<g id="node17" class="node"><title>&#45;17</title>
<polygon fill="lightgray" stroke="black" points="817.5,-260.543 788.5,-260.543 788.5,-242.543 817.5,-242.543 817.5,-260.543"/>
<text text-anchor="middle" x="803" y="-249.343" font-family="Times,serif" font-size="9.00">&#45;17</text>
</g>
<!-- &#45;18 -->
<g id="node18" class="node"><title>&#45;18</title>
<polygon fill="lightgray" stroke="black" points="864.5,-260.543 835.5,-260.543 835.5,-242.543 864.5,-242.543 864.5,-260.543"/>
<text text-anchor="middle" x="850" y="-249.343" font-family="Times,serif" font-size="9.00">&#45;18</text>
</g>
<!-- &#45;19 -->
<g id="node19" class="node"><title>&#45;19</title>
<polygon fill="lightgray" stroke="black" points="911.5,-260.543 882.5,-260.543 882.5,-242.543 911.5,-242.543 911.5,-260.543"/>
<text text-anchor="middle" x="897" y="-249.343" font-family="Times,serif" font-size="9.00">&#45;19</text>
</g>
<!-- &#45;20 -->
<g id="node20" class="node"><title>&#45;20</title>
<polygon fill="lightgray" stroke="black" points="958.5,-260.543 929.5,-260.543 929.5,-242.543 958.5,-242.543 958.5,-260.543"/>
<text text-anchor="middle" x="944" y="-249.343" font-family="Times,serif" font-size="9.00">&#45;20</text>
</g>
<!-- &#45;21 -->
<g id="node21" class="node"><title>&#45;21</title>
<polygon fill="lightgray" stroke="black" points="1005.5,-260.543 976.5,-260.543 976.5,-242.543 1005.5,-242.543 1005.5,-260.543"/>
<text text-anchor="middle" x="991" y="-249.343" font-family="Times,serif" font-size="9.00">&#45;21</text>
</g>
<!-- &#45;22 -->
<g id="node22" class="node"><title>&#45;22</title>
<polygon fill="lightgray" stroke="black" points="406.5,-184.945 377.5,-184.945 377.5,-166.945 406.5,-166.945 406.5,-184.945"/>
<text text-anchor="middle" x="392" y="-173.745" font-family="Times,serif" font-size="9.00">&#45;22</text>
</g>
<!-- &#45;22&#45;&gt;2831 -->
<g id="edge1" class="edge"><title>&#45;22&#45;&gt;2831</title>
<path fill="none" stroke="green" stroke-width="0.54478" d="M384.383,-166.6C379.843,-161.84 373.843,-155.903 368,-151.196 348.371,-135.385 324.449,-119.954 305.92,-108.735"/>
<polygon fill="green" stroke="green" stroke-width="0.54478" points="307.678,-105.708 297.299,-103.582 304.087,-111.717 307.678,-105.708"/>
</g>
<!-- &#45;23 -->
<g id="node23" class="node"><title>&#45;23</title>
<polygon fill="lightgray" stroke="black" points="1052.5,-260.543 1023.5,-260.543 1023.5,-242.543 1052.5,-242.543 1052.5,-260.543"/>
<text text-anchor="middle" x="1038" y="-249.343" font-family="Times,serif" font-size="9.00">&#45;23</text>
</g>
<!-- &#45;24 -->
<g id="node24" class="node"><title>&#45;24</title>
<polygon fill="lightgray" stroke="black" points="1099.5,-260.543 1070.5,-260.543 1070.5,-242.543 1099.5,-242.543 1099.5,-260.543"/>
<text text-anchor="middle" x="1085" y="-249.343" font-family="Times,serif" font-size="9.00">&#45;24</text>
</g>
<!-- 0 -->
<g id="node25" class="node"><title>0</title>
<ellipse fill="lightblue" stroke="black" cx="1132" cy="-251.543" rx="14.7" ry="14.7"/>
<text text-anchor="middle" x="1132" y="-249.343" font-family="Times,serif" font-size="9.00">0</text>
</g>
<!-- 3 -->
<g id="node28" class="node"><title>3</title>
<ellipse fill="lightblue" stroke="black" cx="1180" cy="-251.543" rx="14.7" ry="14.7"/>
<text text-anchor="middle" x="1180" y="-249.343" font-family="Times,serif" font-size="9.00">3</text>
</g>
<!-- 2831&#45;&gt;1 -->
<g id="edge7" class="edge"><title>2831&#45;&gt;1</title>
<path fill="none" stroke="red" stroke-width="0.437271" d="M255.029,-77.294C231.622,-63.7299 193.949,-41.8977 170.379,-28.2385"/>
<polygon fill="red" stroke="red" stroke-width="0.437271" points="171.921,-25.087 161.514,-23.1012 168.411,-31.1435 171.921,-25.087"/>
</g>
<!-- 2197&#45;&gt;1 -->
<g id="edge4" class="edge"><title>2197&#45;&gt;1</title>
<path fill="none" stroke="green" stroke-width="0.695308" d="M103.594,-152.15C113.63,-122.022 131.217,-69.2291 141.305,-38.9486"/>
<polygon fill="green" stroke="green" stroke-width="0.695308" points="144.695,-39.8445 144.535,-29.2509 138.054,-37.6321 144.695,-39.8445"/>
</g>
<!-- 4505&#45;&gt;2831 -->
<g id="edge10" class="edge"><title>4505&#45;&gt;2831</title>
<path fill="none" stroke="red" stroke-width="1.16145" d="M218.057,-156.827C228.336,-145.229 241.83,-130.003 253.21,-117.162"/>
<polygon fill="red" stroke="red" stroke-width="1.16145" points="255.961,-119.335 259.974,-109.53 250.722,-114.692 255.961,-119.335"/>
</g>
</g>
</svg>
