<?xml version="1.0" encoding="utf-8" standalone="no"?>
<!DOCTYPE svg PUBLIC "-//W3C//DTD SVG 1.1//EN"
  "http://www.w3.org/Graphics/SVG/1.1/DTD/svg11.dtd">
<!-- Created with matplotlib (http://matplotlib.org/) -->
<svg height="345.6pt" version="1.1" viewBox="0 0 460.8 345.6" width="460.8pt" xmlns="http://www.w3.org/2000/svg" xmlns:xlink="http://www.w3.org/1999/xlink">
 <defs>
  <style type="text/css">
*{stroke-linecap:butt;stroke-linejoin:round;}
  </style>
 </defs>
 <g id="figure_1">
  <g id="patch_1">
   <path d="M 0 345.6 
L 460.8 345.6 
L 460.8 0 
L 0 0 
z
" style="fill:#ffffff;"/>
  </g>
  <g id="axes_1">
   <g id="patch_2">
    <path d="M 57.6 307.584 
L 414.72 307.584 
L 414.72 41.472 
L 57.6 41.472 
z
" style="fill:#ffffff;"/>
   </g>
   <g id="matplotlib.axis_1">
    <g id="xtick_1">
     <g id="line2d_1">
      <path clip-path="url(#pe8f51ddc5b)" d="M 73.832727 307.584 
L 73.832727 41.472 
" style="fill:none;stroke:#b0b0b0;stroke-linecap:square;stroke-width:0.8;"/>
     </g>
     <g id="line2d_2">
      <defs>
       <path d="M 0 0 
L 0 3.5 
" id="ma2688ad6ed" style="stroke:#000000;stroke-width:0.8;"/>
      </defs>
      <g>
       <use style="stroke:#000000;stroke-width:0.8;" x="73.832727" xlink:href="#ma2688ad6ed" y="307.584"/>
      </g>
     </g>
     <g id="text_1">
      <!-- 0 -->
      <defs>
       <path d="M 31.78125 66.40625 
Q 24.171875 66.40625 20.328125 58.90625 
Q 16.5 51.421875 16.5 36.375 
Q 16.5 21.390625 20.328125 13.890625 
Q 24.171875 6.390625 31.78125 6.390625 
Q 39.453125 6.390625 43.28125 13.890625 
Q 47.125 21.390625 47.125 36.375 
Q 47.125 51.421875 43.28125 58.90625 
Q 39.453125 66.40625 31.78125 66.40625 
z
M 31.78125 74.21875 
Q 44.046875 74.21875 50.515625 64.515625 
Q 56.984375 54.828125 56.984375 36.375 
Q 56.984375 17.96875 50.515625 8.265625 
Q 44.046875 -1.421875 31.78125 -1.421875 
Q 19.53125 -1.421875 13.0625 8.265625 
Q 6.59375 17.96875 6.59375 36.375 
Q 6.59375 54.828125 13.0625 64.515625 
Q 19.53125 74.21875 31.78125 74.21875 
z
" id="DejaVuSans-30"/>
      </defs>
      <g transform="translate(70.651477 322.182437)scale(0.1 -0.1)">
       <use xlink:href="#DejaVuSans-30"/>
      </g>
     </g>
    </g>
    <g id="xtick_2">
     <g id="line2d_3">
      <path clip-path="url(#pe8f51ddc5b)" d="M 128.122785 307.584 
L 128.122785 41.472 
" style="fill:none;stroke:#b0b0b0;stroke-linecap:square;stroke-width:0.8;"/>
     </g>
     <g id="line2d_4">
      <g>
       <use style="stroke:#000000;stroke-width:0.8;" x="128.122785" xlink:href="#ma2688ad6ed" y="307.584"/>
      </g>
     </g>
     <g id="text_2">
      <!-- 50 -->
      <defs>
       <path d="M 10.796875 72.90625 
L 49.515625 72.90625 
L 49.515625 64.59375 
L 19.828125 64.59375 
L 19.828125 46.734375 
Q 21.96875 47.46875 24.109375 47.828125 
Q 26.265625 48.1875 28.421875 48.1875 
Q 40.625 48.1875 47.75 41.5 
Q 54.890625 34.8125 54.890625 23.390625 
Q 54.890625 11.625 47.5625 5.09375 
Q 40.234375 -1.421875 26.90625 -1.421875 
Q 22.3125 -1.421875 17.546875 -0.640625 
Q 12.796875 0.140625 7.71875 1.703125 
L 7.71875 11.625 
Q 12.109375 9.234375 16.796875 8.0625 
Q 21.484375 6.890625 26.703125 6.890625 
Q 35.15625 6.890625 40.078125 11.328125 
Q 45.015625 15.765625 45.015625 23.390625 
Q 45.015625 31 40.078125 35.4375 
Q 35.15625 39.890625 26.703125 39.890625 
Q 22.75 39.890625 18.8125 39.015625 
Q 14.890625 38.140625 10.796875 36.28125 
z
" id="DejaVuSans-35"/>
      </defs>
      <g transform="translate(121.760285 322.182437)scale(0.1 -0.1)">
       <use xlink:href="#DejaVuSans-35"/>
       <use x="63.623047" xlink:href="#DejaVuSans-30"/>
      </g>
     </g>
    </g>
    <g id="xtick_3">
     <g id="line2d_5">
      <path clip-path="url(#pe8f51ddc5b)" d="M 182.412843 307.584 
L 182.412843 41.472 
" style="fill:none;stroke:#b0b0b0;stroke-linecap:square;stroke-width:0.8;"/>
     </g>
     <g id="line2d_6">
      <g>
       <use style="stroke:#000000;stroke-width:0.8;" x="182.412843" xlink:href="#ma2688ad6ed" y="307.584"/>
      </g>
     </g>
     <g id="text_3">
      <!-- 100 -->
      <defs>
       <path d="M 12.40625 8.296875 
L 28.515625 8.296875 
L 28.515625 63.921875 
L 10.984375 60.40625 
L 10.984375 69.390625 
L 28.421875 72.90625 
L 38.28125 72.90625 
L 38.28125 8.296875 
L 54.390625 8.296875 
L 54.390625 0 
L 12.40625 0 
z
" id="DejaVuSans-31"/>
      </defs>
      <g transform="translate(172.869093 322.182437)scale(0.1 -0.1)">
       <use xlink:href="#DejaVuSans-31"/>
       <use x="63.623047" xlink:href="#DejaVuSans-30"/>
       <use x="127.246094" xlink:href="#DejaVuSans-30"/>
      </g>
     </g>
    </g>
    <g id="xtick_4">
     <g id="line2d_7">
      <path clip-path="url(#pe8f51ddc5b)" d="M 236.702901 307.584 
L 236.702901 41.472 
" style="fill:none;stroke:#b0b0b0;stroke-linecap:square;stroke-width:0.8;"/>
     </g>
     <g id="line2d_8">
      <g>
       <use style="stroke:#000000;stroke-width:0.8;" x="236.702901" xlink:href="#ma2688ad6ed" y="307.584"/>
      </g>
     </g>
     <g id="text_4">
      <!-- 150 -->
      <g transform="translate(227.159151 322.182437)scale(0.1 -0.1)">
       <use xlink:href="#DejaVuSans-31"/>
       <use x="63.623047" xlink:href="#DejaVuSans-35"/>
       <use x="127.246094" xlink:href="#DejaVuSans-30"/>
      </g>
     </g>
    </g>
    <g id="xtick_5">
     <g id="line2d_9">
      <path clip-path="url(#pe8f51ddc5b)" d="M 290.992958 307.584 
L 290.992958 41.472 
" style="fill:none;stroke:#b0b0b0;stroke-linecap:square;stroke-width:0.8;"/>
     </g>
     <g id="line2d_10">
      <g>
       <use style="stroke:#000000;stroke-width:0.8;" x="290.992958" xlink:href="#ma2688ad6ed" y="307.584"/>
      </g>
     </g>
     <g id="text_5">
      <!-- 200 -->
      <defs>
       <path d="M 19.1875 8.296875 
L 53.609375 8.296875 
L 53.609375 0 
L 7.328125 0 
L 7.328125 8.296875 
Q 12.9375 14.109375 22.625 23.890625 
Q 32.328125 33.6875 34.8125 36.53125 
Q 39.546875 41.84375 41.421875 45.53125 
Q 43.3125 49.21875 43.3125 52.78125 
Q 43.3125 58.59375 39.234375 62.25 
Q 35.15625 65.921875 28.609375 65.921875 
Q 23.96875 65.921875 18.8125 64.3125 
Q 13.671875 62.703125 7.8125 59.421875 
L 7.8125 69.390625 
Q 13.765625 71.78125 18.9375 73 
Q 24.125 74.21875 28.421875 74.21875 
Q 39.75 74.21875 46.484375 68.546875 
Q 53.21875 62.890625 53.21875 53.421875 
Q 53.21875 48.921875 51.53125 44.890625 
Q 49.859375 40.875 45.40625 35.40625 
Q 44.1875 33.984375 37.640625 27.21875 
Q 31.109375 20.453125 19.1875 8.296875 
z
" id="DejaVuSans-32"/>
      </defs>
      <g transform="translate(281.449208 322.182437)scale(0.1 -0.1)">
       <use xlink:href="#DejaVuSans-32"/>
       <use x="63.623047" xlink:href="#DejaVuSans-30"/>
       <use x="127.246094" xlink:href="#DejaVuSans-30"/>
      </g>
     </g>
    </g>
    <g id="xtick_6">
     <g id="line2d_11">
      <path clip-path="url(#pe8f51ddc5b)" d="M 345.283016 307.584 
L 345.283016 41.472 
" style="fill:none;stroke:#b0b0b0;stroke-linecap:square;stroke-width:0.8;"/>
     </g>
     <g id="line2d_12">
      <g>
       <use style="stroke:#000000;stroke-width:0.8;" x="345.283016" xlink:href="#ma2688ad6ed" y="307.584"/>
      </g>
     </g>
     <g id="text_6">
      <!-- 250 -->
      <g transform="translate(335.739266 322.182437)scale(0.1 -0.1)">
       <use xlink:href="#DejaVuSans-32"/>
       <use x="63.623047" xlink:href="#DejaVuSans-35"/>
       <use x="127.246094" xlink:href="#DejaVuSans-30"/>
      </g>
     </g>
    </g>
    <g id="xtick_7">
     <g id="line2d_13">
      <path clip-path="url(#pe8f51ddc5b)" d="M 399.573074 307.584 
L 399.573074 41.472 
" style="fill:none;stroke:#b0b0b0;stroke-linecap:square;stroke-width:0.8;"/>
     </g>
     <g id="line2d_14">
      <g>
       <use style="stroke:#000000;stroke-width:0.8;" x="399.573074" xlink:href="#ma2688ad6ed" y="307.584"/>
      </g>
     </g>
     <g id="text_7">
      <!-- 300 -->
      <defs>
       <path d="M 40.578125 39.3125 
Q 47.65625 37.796875 51.625 33 
Q 55.609375 28.21875 55.609375 21.1875 
Q 55.609375 10.40625 48.1875 4.484375 
Q 40.765625 -1.421875 27.09375 -1.421875 
Q 22.515625 -1.421875 17.65625 -0.515625 
Q 12.796875 0.390625 7.625 2.203125 
L 7.625 11.71875 
Q 11.71875 9.328125 16.59375 8.109375 
Q 21.484375 6.890625 26.8125 6.890625 
Q 36.078125 6.890625 40.9375 10.546875 
Q 45.796875 14.203125 45.796875 21.1875 
Q 45.796875 27.640625 41.28125 31.265625 
Q 36.765625 34.90625 28.71875 34.90625 
L 20.21875 34.90625 
L 20.21875 43.015625 
L 29.109375 43.015625 
Q 36.375 43.015625 40.234375 45.921875 
Q 44.09375 48.828125 44.09375 54.296875 
Q 44.09375 59.90625 40.109375 62.90625 
Q 36.140625 65.921875 28.71875 65.921875 
Q 24.65625 65.921875 20.015625 65.03125 
Q 15.375 64.15625 9.8125 62.3125 
L 9.8125 71.09375 
Q 15.4375 72.65625 20.34375 73.4375 
Q 25.25 74.21875 29.59375 74.21875 
Q 40.828125 74.21875 47.359375 69.109375 
Q 53.90625 64.015625 53.90625 55.328125 
Q 53.90625 49.265625 50.4375 45.09375 
Q 46.96875 40.921875 40.578125 39.3125 
z
" id="DejaVuSans-33"/>
      </defs>
      <g transform="translate(390.029324 322.182437)scale(0.1 -0.1)">
       <use xlink:href="#DejaVuSans-33"/>
       <use x="63.623047" xlink:href="#DejaVuSans-30"/>
       <use x="127.246094" xlink:href="#DejaVuSans-30"/>
      </g>
     </g>
    </g>
    <g id="text_8">
     <!-- Generations -->
     <defs>
      <path d="M 59.515625 10.40625 
L 59.515625 29.984375 
L 43.40625 29.984375 
L 43.40625 38.09375 
L 69.28125 38.09375 
L 69.28125 6.78125 
Q 63.578125 2.734375 56.6875 0.65625 
Q 49.8125 -1.421875 42 -1.421875 
Q 24.90625 -1.421875 15.25 8.5625 
Q 5.609375 18.5625 5.609375 36.375 
Q 5.609375 54.25 15.25 64.234375 
Q 24.90625 74.21875 42 74.21875 
Q 49.125 74.21875 55.546875 72.453125 
Q 61.96875 70.703125 67.390625 67.28125 
L 67.390625 56.78125 
Q 61.921875 61.421875 55.765625 63.765625 
Q 49.609375 66.109375 42.828125 66.109375 
Q 29.4375 66.109375 22.71875 58.640625 
Q 16.015625 51.171875 16.015625 36.375 
Q 16.015625 21.625 22.71875 14.15625 
Q 29.4375 6.6875 42.828125 6.6875 
Q 48.046875 6.6875 52.140625 7.59375 
Q 56.25 8.5 59.515625 10.40625 
z
" id="DejaVuSans-47"/>
      <path d="M 56.203125 29.59375 
L 56.203125 25.203125 
L 14.890625 25.203125 
Q 15.484375 15.921875 20.484375 11.0625 
Q 25.484375 6.203125 34.421875 6.203125 
Q 39.59375 6.203125 44.453125 7.46875 
Q 49.3125 8.734375 54.109375 11.28125 
L 54.109375 2.78125 
Q 49.265625 0.734375 44.1875 -0.34375 
Q 39.109375 -1.421875 33.890625 -1.421875 
Q 20.796875 -1.421875 13.15625 6.1875 
Q 5.515625 13.8125 5.515625 26.8125 
Q 5.515625 40.234375 12.765625 48.109375 
Q 20.015625 56 32.328125 56 
Q 43.359375 56 49.78125 48.890625 
Q 56.203125 41.796875 56.203125 29.59375 
z
M 47.21875 32.234375 
Q 47.125 39.59375 43.09375 43.984375 
Q 39.0625 48.390625 32.421875 48.390625 
Q 24.90625 48.390625 20.390625 44.140625 
Q 15.875 39.890625 15.1875 32.171875 
z
" id="DejaVuSans-65"/>
      <path d="M 54.890625 33.015625 
L 54.890625 0 
L 45.90625 0 
L 45.90625 32.71875 
Q 45.90625 40.484375 42.875 44.328125 
Q 39.84375 48.1875 33.796875 48.1875 
Q 26.515625 48.1875 22.3125 43.546875 
Q 18.109375 38.921875 18.109375 30.90625 
L 18.109375 0 
L 9.078125 0 
L 9.078125 54.6875 
L 18.109375 54.6875 
L 18.109375 46.1875 
Q 21.34375 51.125 25.703125 53.5625 
Q 30.078125 56 35.796875 56 
Q 45.21875 56 50.046875 50.171875 
Q 54.890625 44.34375 54.890625 33.015625 
z
" id="DejaVuSans-6e"/>
      <path d="M 41.109375 46.296875 
Q 39.59375 47.171875 37.8125 47.578125 
Q 36.03125 48 33.890625 48 
Q 26.265625 48 22.1875 43.046875 
Q 18.109375 38.09375 18.109375 28.8125 
L 18.109375 0 
L 9.078125 0 
L 9.078125 54.6875 
L 18.109375 54.6875 
L 18.109375 46.1875 
Q 20.953125 51.171875 25.484375 53.578125 
Q 30.03125 56 36.53125 56 
Q 37.453125 56 38.578125 55.875 
Q 39.703125 55.765625 41.0625 55.515625 
z
" id="DejaVuSans-72"/>
      <path d="M 34.28125 27.484375 
Q 23.390625 27.484375 19.1875 25 
Q 14.984375 22.515625 14.984375 16.5 
Q 14.984375 11.71875 18.140625 8.90625 
Q 21.296875 6.109375 26.703125 6.109375 
Q 34.1875 6.109375 38.703125 11.40625 
Q 43.21875 16.703125 43.21875 25.484375 
L 43.21875 27.484375 
z
M 52.203125 31.203125 
L 52.203125 0 
L 43.21875 0 
L 43.21875 8.296875 
Q 40.140625 3.328125 35.546875 0.953125 
Q 30.953125 -1.421875 24.3125 -1.421875 
Q 15.921875 -1.421875 10.953125 3.296875 
Q 6 8.015625 6 15.921875 
Q 6 25.140625 12.171875 29.828125 
Q 18.359375 34.515625 30.609375 34.515625 
L 43.21875 34.515625 
L 43.21875 35.40625 
Q 43.21875 41.609375 39.140625 45 
Q 35.0625 48.390625 27.6875 48.390625 
Q 23 48.390625 18.546875 47.265625 
Q 14.109375 46.140625 10.015625 43.890625 
L 10.015625 52.203125 
Q 14.9375 54.109375 19.578125 55.046875 
Q 24.21875 56 28.609375 56 
Q 40.484375 56 46.34375 49.84375 
Q 52.203125 43.703125 52.203125 31.203125 
z
" id="DejaVuSans-61"/>
      <path d="M 18.3125 70.21875 
L 18.3125 54.6875 
L 36.8125 54.6875 
L 36.8125 47.703125 
L 18.3125 47.703125 
L 18.3125 18.015625 
Q 18.3125 11.328125 20.140625 9.421875 
Q 21.96875 7.515625 27.59375 7.515625 
L 36.8125 7.515625 
L 36.8125 0 
L 27.59375 0 
Q 17.1875 0 13.234375 3.875 
Q 9.28125 7.765625 9.28125 18.015625 
L 9.28125 47.703125 
L 2.6875 47.703125 
L 2.6875 54.6875 
L 9.28125 54.6875 
L 9.28125 70.21875 
z
" id="DejaVuSans-74"/>
      <path d="M 9.421875 54.6875 
L 18.40625 54.6875 
L 18.40625 0 
L 9.421875 0 
z
M 9.421875 75.984375 
L 18.40625 75.984375 
L 18.40625 64.59375 
L 9.421875 64.59375 
z
" id="DejaVuSans-69"/>
      <path d="M 30.609375 48.390625 
Q 23.390625 48.390625 19.1875 42.75 
Q 14.984375 37.109375 14.984375 27.296875 
Q 14.984375 17.484375 19.15625 11.84375 
Q 23.34375 6.203125 30.609375 6.203125 
Q 37.796875 6.203125 41.984375 11.859375 
Q 46.1875 17.53125 46.1875 27.296875 
Q 46.1875 37.015625 41.984375 42.703125 
Q 37.796875 48.390625 30.609375 48.390625 
z
M 30.609375 56 
Q 42.328125 56 49.015625 48.375 
Q 55.71875 40.765625 55.71875 27.296875 
Q 55.71875 13.875 49.015625 6.21875 
Q 42.328125 -1.421875 30.609375 -1.421875 
Q 18.84375 -1.421875 12.171875 6.21875 
Q 5.515625 13.875 5.515625 27.296875 
Q 5.515625 40.765625 12.171875 48.375 
Q 18.84375 56 30.609375 56 
z
" id="DejaVuSans-6f"/>
      <path d="M 44.28125 53.078125 
L 44.28125 44.578125 
Q 40.484375 46.53125 36.375 47.5 
Q 32.28125 48.484375 27.875 48.484375 
Q 21.1875 48.484375 17.84375 46.4375 
Q 14.5 44.390625 14.5 40.28125 
Q 14.5 37.15625 16.890625 35.375 
Q 19.28125 33.59375 26.515625 31.984375 
L 29.59375 31.296875 
Q 39.15625 29.25 43.1875 25.515625 
Q 47.21875 21.78125 47.21875 15.09375 
Q 47.21875 7.46875 41.1875 3.015625 
Q 35.15625 -1.421875 24.609375 -1.421875 
Q 20.21875 -1.421875 15.453125 -0.5625 
Q 10.6875 0.296875 5.421875 2 
L 5.421875 11.28125 
Q 10.40625 8.6875 15.234375 7.390625 
Q 20.0625 6.109375 24.8125 6.109375 
Q 31.15625 6.109375 34.5625 8.28125 
Q 37.984375 10.453125 37.984375 14.40625 
Q 37.984375 18.0625 35.515625 20.015625 
Q 33.0625 21.96875 24.703125 23.78125 
L 21.578125 24.515625 
Q 13.234375 26.265625 9.515625 29.90625 
Q 5.8125 33.546875 5.8125 39.890625 
Q 5.8125 47.609375 11.28125 51.796875 
Q 16.75 56 26.8125 56 
Q 31.78125 56 36.171875 55.265625 
Q 40.578125 54.546875 44.28125 53.078125 
z
" id="DejaVuSans-73"/>
     </defs>
     <g transform="translate(205.662344 335.860562)scale(0.1 -0.1)">
      <use xlink:href="#DejaVuSans-47"/>
      <use x="77.490234" xlink:href="#DejaVuSans-65"/>
      <use x="139.013672" xlink:href="#DejaVuSans-6e"/>
      <use x="202.392578" xlink:href="#DejaVuSans-65"/>
      <use x="263.916016" xlink:href="#DejaVuSans-72"/>
      <use x="305.029297" xlink:href="#DejaVuSans-61"/>
      <use x="366.308594" xlink:href="#DejaVuSans-74"/>
      <use x="405.517578" xlink:href="#DejaVuSans-69"/>
      <use x="433.300781" xlink:href="#DejaVuSans-6f"/>
      <use x="494.482422" xlink:href="#DejaVuSans-6e"/>
      <use x="557.861328" xlink:href="#DejaVuSans-73"/>
     </g>
    </g>
   </g>
   <g id="matplotlib.axis_2">
    <g id="ytick_1">
     <g id="line2d_15">
      <path clip-path="url(#pe8f51ddc5b)" d="M 57.6 304.508788 
L 414.72 304.508788 
" style="fill:none;stroke:#b0b0b0;stroke-linecap:square;stroke-width:0.8;"/>
     </g>
     <g id="line2d_16">
      <defs>
       <path d="M 0 0 
L -3.5 0 
" id="m7b089a35e7" style="stroke:#000000;stroke-width:0.8;"/>
      </defs>
      <g>
       <use style="stroke:#000000;stroke-width:0.8;" x="57.6" xlink:href="#m7b089a35e7" y="304.508788"/>
      </g>
     </g>
     <g id="text_9">
      <!-- −125 -->
      <defs>
       <path d="M 10.59375 35.5 
L 73.1875 35.5 
L 73.1875 27.203125 
L 10.59375 27.203125 
z
" id="DejaVuSans-2212"/>
      </defs>
      <g transform="translate(23.132812 308.308007)scale(0.1 -0.1)">
       <use xlink:href="#DejaVuSans-2212"/>
       <use x="83.789062" xlink:href="#DejaVuSans-31"/>
       <use x="147.412109" xlink:href="#DejaVuSans-32"/>
       <use x="211.035156" xlink:href="#DejaVuSans-35"/>
      </g>
     </g>
    </g>
    <g id="ytick_2">
     <g id="line2d_17">
      <path clip-path="url(#pe8f51ddc5b)" d="M 57.6 273.008363 
L 414.72 273.008363 
" style="fill:none;stroke:#b0b0b0;stroke-linecap:square;stroke-width:0.8;"/>
     </g>
     <g id="line2d_18">
      <g>
       <use style="stroke:#000000;stroke-width:0.8;" x="57.6" xlink:href="#m7b089a35e7" y="273.008363"/>
      </g>
     </g>
     <g id="text_10">
      <!-- −100 -->
      <g transform="translate(23.132812 276.807582)scale(0.1 -0.1)">
       <use xlink:href="#DejaVuSans-2212"/>
       <use x="83.789062" xlink:href="#DejaVuSans-31"/>
       <use x="147.412109" xlink:href="#DejaVuSans-30"/>
       <use x="211.035156" xlink:href="#DejaVuSans-30"/>
      </g>
     </g>
    </g>
    <g id="ytick_3">
     <g id="line2d_19">
      <path clip-path="url(#pe8f51ddc5b)" d="M 57.6 241.507938 
L 414.72 241.507938 
" style="fill:none;stroke:#b0b0b0;stroke-linecap:square;stroke-width:0.8;"/>
     </g>
     <g id="line2d_20">
      <g>
       <use style="stroke:#000000;stroke-width:0.8;" x="57.6" xlink:href="#m7b089a35e7" y="241.507938"/>
      </g>
     </g>
     <g id="text_11">
      <!-- −75 -->
      <defs>
       <path d="M 8.203125 72.90625 
L 55.078125 72.90625 
L 55.078125 68.703125 
L 28.609375 0 
L 18.3125 0 
L 43.21875 64.59375 
L 8.203125 64.59375 
z
" id="DejaVuSans-37"/>
      </defs>
      <g transform="translate(29.495313 245.307157)scale(0.1 -0.1)">
       <use xlink:href="#DejaVuSans-2212"/>
       <use x="83.789062" xlink:href="#DejaVuSans-37"/>
       <use x="147.412109" xlink:href="#DejaVuSans-35"/>
      </g>
     </g>
    </g>
    <g id="ytick_4">
     <g id="line2d_21">
      <path clip-path="url(#pe8f51ddc5b)" d="M 57.6 210.007513 
L 414.72 210.007513 
" style="fill:none;stroke:#b0b0b0;stroke-linecap:square;stroke-width:0.8;"/>
     </g>
     <g id="line2d_22">
      <g>
       <use style="stroke:#000000;stroke-width:0.8;" x="57.6" xlink:href="#m7b089a35e7" y="210.007513"/>
      </g>
     </g>
     <g id="text_12">
      <!-- −50 -->
      <g transform="translate(29.495313 213.806732)scale(0.1 -0.1)">
       <use xlink:href="#DejaVuSans-2212"/>
       <use x="83.789062" xlink:href="#DejaVuSans-35"/>
       <use x="147.412109" xlink:href="#DejaVuSans-30"/>
      </g>
     </g>
    </g>
    <g id="ytick_5">
     <g id="line2d_23">
      <path clip-path="url(#pe8f51ddc5b)" d="M 57.6 178.507088 
L 414.72 178.507088 
" style="fill:none;stroke:#b0b0b0;stroke-linecap:square;stroke-width:0.8;"/>
     </g>
     <g id="line2d_24">
      <g>
       <use style="stroke:#000000;stroke-width:0.8;" x="57.6" xlink:href="#m7b089a35e7" y="178.507088"/>
      </g>
     </g>
     <g id="text_13">
      <!-- −25 -->
      <g transform="translate(29.495313 182.306307)scale(0.1 -0.1)">
       <use xlink:href="#DejaVuSans-2212"/>
       <use x="83.789062" xlink:href="#DejaVuSans-32"/>
       <use x="147.412109" xlink:href="#DejaVuSans-35"/>
      </g>
     </g>
    </g>
    <g id="ytick_6">
     <g id="line2d_25">
      <path clip-path="url(#pe8f51ddc5b)" d="M 57.6 147.006663 
L 414.72 147.006663 
" style="fill:none;stroke:#b0b0b0;stroke-linecap:square;stroke-width:0.8;"/>
     </g>
     <g id="line2d_26">
      <g>
       <use style="stroke:#000000;stroke-width:0.8;" x="57.6" xlink:href="#m7b089a35e7" y="147.006663"/>
      </g>
     </g>
     <g id="text_14">
      <!-- 0 -->
      <g transform="translate(44.2375 150.805882)scale(0.1 -0.1)">
       <use xlink:href="#DejaVuSans-30"/>
      </g>
     </g>
    </g>
    <g id="ytick_7">
     <g id="line2d_27">
      <path clip-path="url(#pe8f51ddc5b)" d="M 57.6 115.506239 
L 414.72 115.506239 
" style="fill:none;stroke:#b0b0b0;stroke-linecap:square;stroke-width:0.8;"/>
     </g>
     <g id="line2d_28">
      <g>
       <use style="stroke:#000000;stroke-width:0.8;" x="57.6" xlink:href="#m7b089a35e7" y="115.506239"/>
      </g>
     </g>
     <g id="text_15">
      <!-- 25 -->
      <g transform="translate(37.875 119.305457)scale(0.1 -0.1)">
       <use xlink:href="#DejaVuSans-32"/>
       <use x="63.623047" xlink:href="#DejaVuSans-35"/>
      </g>
     </g>
    </g>
    <g id="ytick_8">
     <g id="line2d_29">
      <path clip-path="url(#pe8f51ddc5b)" d="M 57.6 84.005814 
L 414.72 84.005814 
" style="fill:none;stroke:#b0b0b0;stroke-linecap:square;stroke-width:0.8;"/>
     </g>
     <g id="line2d_30">
      <g>
       <use style="stroke:#000000;stroke-width:0.8;" x="57.6" xlink:href="#m7b089a35e7" y="84.005814"/>
      </g>
     </g>
     <g id="text_16">
      <!-- 50 -->
      <g transform="translate(37.875 87.805032)scale(0.1 -0.1)">
       <use xlink:href="#DejaVuSans-35"/>
       <use x="63.623047" xlink:href="#DejaVuSans-30"/>
      </g>
     </g>
    </g>
    <g id="ytick_9">
     <g id="line2d_31">
      <path clip-path="url(#pe8f51ddc5b)" d="M 57.6 52.505389 
L 414.72 52.505389 
" style="fill:none;stroke:#b0b0b0;stroke-linecap:square;stroke-width:0.8;"/>
     </g>
     <g id="line2d_32">
      <g>
       <use style="stroke:#000000;stroke-width:0.8;" x="57.6" xlink:href="#m7b089a35e7" y="52.505389"/>
      </g>
     </g>
     <g id="text_17">
      <!-- 75 -->
      <g transform="translate(37.875 56.304607)scale(0.1 -0.1)">
       <use xlink:href="#DejaVuSans-37"/>
       <use x="63.623047" xlink:href="#DejaVuSans-35"/>
      </g>
     </g>
    </g>
    <g id="text_18">
     <!-- Fitness -->
     <defs>
      <path d="M 9.8125 72.90625 
L 51.703125 72.90625 
L 51.703125 64.59375 
L 19.671875 64.59375 
L 19.671875 43.109375 
L 48.578125 43.109375 
L 48.578125 34.8125 
L 19.671875 34.8125 
L 19.671875 0 
L 9.8125 0 
z
" id="DejaVuSans-46"/>
     </defs>
     <g transform="translate(17.053125 192.202219)rotate(-90)scale(0.1 -0.1)">
      <use xlink:href="#DejaVuSans-46"/>
      <use x="57.410156" xlink:href="#DejaVuSans-69"/>
      <use x="85.193359" xlink:href="#DejaVuSans-74"/>
      <use x="124.402344" xlink:href="#DejaVuSans-6e"/>
      <use x="187.78125" xlink:href="#DejaVuSans-65"/>
      <use x="249.304688" xlink:href="#DejaVuSans-73"/>
      <use x="301.404297" xlink:href="#DejaVuSans-73"/>
     </g>
    </g>
   </g>
   <g id="line2d_33">
    <path clip-path="url(#pe8f51ddc5b)" d="M 73.832727 273.869575 
L 74.918528 261.126546 
L 76.00433 251.560974 
L 77.090131 243.420772 
L 78.175932 236.634813 
L 79.261733 235.574397 
L 80.347534 234.695525 
L 81.433335 229.484824 
L 82.519137 227.456647 
L 83.604938 226.805372 
L 84.690739 233.131974 
L 85.77654 224.912391 
L 86.862341 226.068934 
L 87.948142 225.162832 
L 89.033943 222.77135 
L 90.119745 222.116983 
L 91.205546 222.848702 
L 92.291347 221.919202 
L 93.377148 217.197944 
L 94.462949 219.800848 
L 95.54875 226.18574 
L 96.634552 227.016279 
L 97.720353 223.82224 
L 98.806154 218.891733 
L 99.891955 217.431283 
L 100.977756 220.768991 
L 102.063557 219.767855 
L 103.149358 217.894291 
L 104.23516 222.720061 
L 105.320961 218.718752 
L 106.406762 212.37144 
L 107.492563 214.541014 
L 108.578364 213.521669 
L 109.664165 222.990804 
L 110.749967 216.842658 
L 111.835768 214.008506 
L 112.921569 215.254645 
L 114.00737 216.206178 
L 115.093171 216.843044 
L 116.178972 216.6264 
L 117.264773 210.833756 
L 118.350575 215.292588 
L 119.436376 218.593158 
L 120.522177 218.376572 
L 121.607978 217.577743 
L 122.693779 217.025406 
L 123.77958 220.511646 
L 124.865382 219.425286 
L 125.951183 219.890958 
L 127.036984 222.36552 
L 128.122785 220.161159 
L 129.208586 215.084774 
L 130.294387 220.083409 
L 131.380189 217.831431 
L 132.46599 219.204752 
L 133.551791 218.294544 
L 134.637592 216.675802 
L 135.723393 217.780195 
L 136.809194 216.356302 
L 137.894995 217.056028 
L 138.980797 216.176362 
L 140.066598 211.630901 
L 141.152399 218.196196 
L 142.2382 223.307445 
L 143.324001 217.337898 
L 144.409802 224.194491 
L 145.495604 225.85156 
L 146.581405 230.140071 
L 147.667206 223.267494 
L 148.753007 228.746481 
L 149.838808 220.812856 
L 150.924609 224.10497 
L 152.01041 221.501719 
L 153.096212 219.260718 
L 154.182013 222.371658 
L 155.267814 223.528579 
L 156.353615 220.136542 
L 157.439416 218.688775 
L 158.525217 219.310737 
L 159.611019 219.653372 
L 160.69682 219.290667 
L 161.782621 218.563651 
L 162.868422 219.862004 
L 163.954223 220.241334 
L 165.040024 215.557019 
L 166.125825 214.472273 
L 167.211627 205.282092 
L 168.297428 214.452759 
L 169.383229 209.700512 
L 170.46903 206.791147 
L 171.554831 210.419335 
L 172.640632 196.932245 
L 173.726434 197.567527 
L 174.812235 202.213691 
L 175.898036 198.684493 
L 176.983837 191.938579 
L 178.069638 197.362404 
L 179.155439 197.361646 
L 180.24124 194.883685 
L 181.327042 199.131983 
L 182.412843 199.470949 
L 183.498644 191.26985 
L 184.584445 191.920093 
L 185.670246 189.25193 
L 186.756047 190.816666 
L 187.841849 189.537516 
L 188.92765 194.494084 
L 190.013451 191.187481 
L 191.099252 191.251726 
L 192.185053 184.382822 
L 193.270854 192.345175 
L 194.356656 188.385864 
L 195.442457 189.922555 
L 196.528258 195.443348 
L 197.614059 188.837245 
L 198.69986 192.129942 
L 199.785661 196.569047 
L 200.871462 191.365271 
L 201.957264 190.362685 
L 203.043065 184.802399 
L 204.128866 180.988936 
L 205.214667 183.570507 
L 206.300468 190.316618 
L 207.386269 183.679012 
L 208.472071 188.842209 
L 209.557872 185.519261 
L 210.643673 191.74834 
L 211.729474 185.028109 
L 212.815275 183.404985 
L 213.901076 176.810537 
L 214.986877 191.227878 
L 216.072679 180.949132 
L 217.15848 193.991281 
L 218.244281 194.392636 
L 219.330082 193.584533 
L 220.415883 180.197127 
L 221.501684 185.141448 
L 222.587486 186.787588 
L 223.673287 181.627813 
L 224.759088 185.204364 
L 225.844889 186.330996 
L 226.93069 188.579747 
L 228.016491 185.742234 
L 229.102292 185.578567 
L 230.188094 183.940336 
L 231.273895 181.826283 
L 233.445497 187.677616 
L 234.531298 187.424652 
L 235.617099 193.314566 
L 236.702901 186.876469 
L 237.788702 179.161774 
L 238.874503 182.639254 
L 239.960304 184.440605 
L 242.131906 187.297297 
L 243.217708 188.277895 
L 244.303509 178.349592 
L 245.38931 180.382163 
L 246.475111 187.104629 
L 247.560912 196.895644 
L 248.646713 193.572769 
L 249.732514 183.666674 
L 250.818316 187.053241 
L 251.904117 183.814019 
L 252.989918 189.820767 
L 254.075719 192.932819 
L 255.16152 184.296956 
L 256.247321 187.32581 
L 257.333123 182.630243 
L 258.418924 188.057641 
L 259.504725 183.52934 
L 260.590526 186.640229 
L 261.676327 182.702528 
L 262.762128 182.406864 
L 263.847929 185.300899 
L 264.933731 179.935135 
L 266.019532 182.441262 
L 267.105333 185.833617 
L 268.191134 188.492503 
L 269.276935 192.440355 
L 270.362736 185.314274 
L 271.448538 187.469132 
L 272.534339 180.222135 
L 273.62014 180.133611 
L 274.705941 181.125504 
L 275.791742 180.262993 
L 276.877543 183.543467 
L 277.963344 179.08606 
L 279.049146 179.351494 
L 280.134947 185.446843 
L 281.220748 189.856341 
L 282.306549 181.048138 
L 283.39235 188.457109 
L 284.478151 185.775585 
L 285.563953 184.836311 
L 286.649754 182.480034 
L 287.735555 180.745079 
L 288.821356 180.136568 
L 289.907157 184.629754 
L 290.992958 174.969286 
L 292.07876 183.859806 
L 293.164561 182.429107 
L 294.250362 180.308337 
L 295.336163 173.238614 
L 296.421964 176.691593 
L 297.507765 194.584917 
L 298.593566 185.285626 
L 299.679368 187.578905 
L 300.765169 180.140417 
L 301.85097 186.990465 
L 302.936771 187.869021 
L 304.022572 176.96136 
L 305.108373 178.655726 
L 306.194175 178.331874 
L 307.279976 168.850612 
L 308.365777 173.232013 
L 309.451578 170.915207 
L 310.537379 173.621792 
L 311.62318 171.760682 
L 312.708981 173.160754 
L 313.794783 181.048909 
L 314.880584 167.725602 
L 315.966385 173.673794 
L 317.052186 172.974201 
L 318.137987 180.055601 
L 319.223788 182.011682 
L 320.30959 175.873967 
L 321.395391 178.236995 
L 322.481192 176.421607 
L 323.566993 170.591623 
L 324.652794 174.181748 
L 325.738595 176.195198 
L 326.824396 183.000768 
L 327.910198 173.65667 
L 328.995999 180.66166 
L 330.0818 169.578425 
L 331.167601 172.885301 
L 332.253402 166.133743 
L 333.339203 170.667901 
L 334.425005 180.610206 
L 335.510806 171.437826 
L 336.596607 169.905033 
L 337.682408 172.077547 
L 338.768209 176.729671 
L 339.85401 179.082631 
L 340.939811 171.855566 
L 342.025613 174.741011 
L 343.111414 174.312511 
L 344.197215 179.803363 
L 345.283016 176.134316 
L 346.368817 174.909305 
L 347.454618 186.767392 
L 348.54042 182.662854 
L 349.626221 179.329871 
L 350.712022 173.653351 
L 351.797823 173.404944 
L 352.883624 177.159108 
L 353.969425 182.024415 
L 355.055227 179.108023 
L 356.141028 184.618432 
L 357.226829 176.242637 
L 358.31263 177.558136 
L 359.398431 178.086052 
L 360.484232 186.466964 
L 361.570033 180.733347 
L 362.655835 177.359286 
L 363.741636 177.514838 
L 364.827437 185.211995 
L 365.913238 175.10743 
L 366.999039 179.396875 
L 368.08484 179.2677 
L 369.170642 172.546583 
L 370.256443 169.59155 
L 371.342244 178.106393 
L 372.428045 177.086903 
L 373.513846 179.115457 
L 374.599647 181.602305 
L 375.685448 182.728164 
L 376.77125 176.535466 
L 377.857051 177.750536 
L 378.942852 177.537342 
L 380.028653 179.538605 
L 381.114454 178.409278 
L 382.200255 174.24079 
L 383.286057 180.176928 
L 384.371858 170.048823 
L 386.54346 188.468607 
L 387.629261 179.091201 
L 388.715062 183.005878 
L 389.800863 172.244888 
L 390.886665 174.090942 
L 391.972466 177.830411 
L 393.058267 172.623561 
L 394.144068 182.008005 
L 395.229869 180.405655 
L 397.401472 173.358783 
L 398.487273 170.957834 
L 398.487273 170.957834 
" style="fill:none;stroke:#0000ff;stroke-linecap:square;stroke-width:1.5;"/>
   </g>
   <g id="line2d_34">
    <path clip-path="url(#pe8f51ddc5b)" d="M 73.832727 295.488 
L 74.918528 287.989898 
L 76.00433 287.789411 
L 77.090131 283.310196 
L 78.175932 277.906448 
L 79.261733 279.014738 
L 80.347534 277.239603 
L 81.433335 273.01426 
L 82.519137 274.703873 
L 83.604938 272.634637 
L 84.690739 279.960917 
L 85.77654 272.940934 
L 86.862341 277.014319 
L 87.948142 274.659575 
L 90.119745 269.278806 
L 91.205546 271.263999 
L 92.291347 269.282461 
L 93.377148 265.260963 
L 95.54875 274.477318 
L 96.634552 277.501153 
L 97.720353 274.567034 
L 98.806154 268.991156 
L 99.891955 268.363572 
L 100.977756 272.412411 
L 102.063557 272.303021 
L 103.149358 269.406453 
L 104.23516 273.663162 
L 105.320961 270.957026 
L 106.406762 260.977602 
L 107.492563 265.4199 
L 108.578364 264.630936 
L 109.664165 277.297547 
L 110.749967 265.775982 
L 111.835768 266.188981 
L 112.921569 266.063487 
L 114.00737 268.211422 
L 115.093171 269.087448 
L 116.178972 269.152993 
L 117.264773 261.070352 
L 118.350575 267.538224 
L 119.436376 271.517055 
L 120.522177 271.49741 
L 121.607978 270.085781 
L 122.693779 268.166487 
L 123.77958 271.018641 
L 124.865382 271.161335 
L 125.951183 269.950908 
L 127.036984 274.599294 
L 128.122785 271.916055 
L 129.208586 264.904504 
L 130.294387 273.967705 
L 131.380189 269.784409 
L 132.46599 271.523924 
L 133.551791 272.552317 
L 134.637592 267.478948 
L 135.723393 271.566061 
L 136.809194 268.371156 
L 137.894995 269.831993 
L 138.980797 270.257501 
L 140.066598 263.568013 
L 141.152399 271.621915 
L 142.2382 275.159771 
L 143.324001 271.463774 
L 144.409802 275.063454 
L 145.495604 280.485709 
L 146.581405 281.625133 
L 147.667206 275.931402 
L 148.753007 280.944172 
L 149.838808 273.035657 
L 150.924609 275.893708 
L 152.01041 273.00748 
L 153.096212 272.203791 
L 154.182013 280.280863 
L 155.267814 275.225585 
L 156.353615 274.276444 
L 157.439416 272.287921 
L 158.525217 271.245166 
L 159.611019 275.017205 
L 160.69682 272.309234 
L 161.782621 270.398667 
L 162.868422 274.779046 
L 163.954223 276.006684 
L 165.040024 267.882174 
L 166.125825 267.130451 
L 167.211627 257.474974 
L 168.297428 270.719185 
L 169.383229 265.112304 
L 170.46903 260.204731 
L 171.554831 269.584921 
L 172.640632 250.795397 
L 173.726434 250.095528 
L 174.812235 258.556171 
L 175.898036 253.387432 
L 176.983837 244.889563 
L 178.069638 251.368515 
L 179.155439 251.076952 
L 180.24124 246.613396 
L 181.327042 253.347272 
L 182.412843 252.848728 
L 183.498644 243.239034 
L 184.584445 245.973693 
L 185.670246 243.461875 
L 186.756047 247.71732 
L 187.841849 248.142531 
L 188.92765 252.018955 
L 190.013451 246.221587 
L 191.099252 245.528914 
L 192.185053 236.212101 
L 193.270854 246.831853 
L 194.356656 242.516417 
L 195.442457 245.240262 
L 196.528258 249.900143 
L 197.614059 243.956571 
L 198.69986 248.598011 
L 199.785661 256.586181 
L 200.871462 249.775451 
L 203.043065 238.889704 
L 204.128866 235.699504 
L 205.214667 238.429635 
L 206.300468 245.980185 
L 207.386269 238.948584 
L 208.472071 241.4777 
L 209.557872 240.801608 
L 210.643673 248.433384 
L 211.729474 241.981213 
L 212.815275 238.009952 
L 213.901076 230.675379 
L 214.986877 246.517528 
L 216.072679 234.882865 
L 217.15848 249.692654 
L 218.244281 249.694629 
L 219.330082 248.40213 
L 220.415883 234.112697 
L 221.501684 240.261034 
L 222.587486 244.201306 
L 223.673287 239.425664 
L 224.759088 245.087312 
L 225.844889 246.470692 
L 226.93069 251.812656 
L 228.016491 247.183927 
L 229.102292 245.096316 
L 230.188094 246.170573 
L 231.273895 242.75348 
L 232.359696 246.51318 
L 233.445497 254.611574 
L 234.531298 249.904408 
L 235.617099 256.106768 
L 236.702901 247.535572 
L 237.788702 241.511428 
L 238.874503 243.825007 
L 239.960304 244.7358 
L 241.046105 250.955931 
L 242.131906 248.699371 
L 243.217708 248.679038 
L 244.303509 239.916565 
L 246.475111 249.00832 
L 247.560912 257.216324 
L 248.646713 254.81187 
L 249.732514 245.561111 
L 250.818316 247.050465 
L 251.904117 243.039505 
L 252.989918 254.005417 
L 254.075719 252.153929 
L 255.16152 245.470089 
L 256.247321 249.379619 
L 257.333123 242.776318 
L 258.418924 248.938157 
L 259.504725 246.504054 
L 260.590526 250.650084 
L 261.676327 242.176299 
L 262.762128 245.142411 
L 263.847929 251.27812 
L 264.933731 245.996153 
L 266.019532 243.459622 
L 267.105333 251.54805 
L 268.191134 254.732166 
L 269.276935 258.817605 
L 270.362736 252.191256 
L 271.448538 247.460154 
L 273.62014 241.659721 
L 274.705941 242.713826 
L 275.791742 240.915235 
L 276.877543 246.977375 
L 277.963344 240.126968 
L 279.049146 242.062857 
L 280.134947 250.234599 
L 281.220748 254.139461 
L 282.306549 249.647135 
L 283.39235 254.954591 
L 284.478151 248.844304 
L 285.563953 248.307757 
L 286.649754 245.798137 
L 287.735555 246.761742 
L 288.821356 245.928007 
L 289.907157 253.411166 
L 290.992958 241.816976 
L 292.07876 253.079991 
L 293.164561 250.060963 
L 294.250362 246.152424 
L 295.336163 238.256 
L 296.421964 240.838173 
L 297.507765 262.149295 
L 298.593566 251.939573 
L 299.679368 253.711931 
L 300.765169 244.545699 
L 301.85097 255.304056 
L 302.936771 249.712641 
L 304.022572 241.114125 
L 305.108373 243.971487 
L 306.194175 246.475041 
L 307.279976 233.843079 
L 308.365777 241.921874 
L 309.451578 233.692633 
L 310.537379 240.263599 
L 311.62318 236.249013 
L 312.708981 240.107625 
L 313.794783 247.908162 
L 314.880584 233.994963 
L 315.966385 243.51691 
L 317.052186 239.405747 
L 318.137987 247.361321 
L 319.223788 251.230783 
L 320.30959 241.875204 
L 321.395391 247.147906 
L 322.481192 241.89542 
L 323.566993 235.937448 
L 324.652794 241.119278 
L 325.738595 238.122987 
L 326.824396 248.992169 
L 327.910198 240.126216 
L 328.995999 246.463561 
L 330.0818 234.155582 
L 331.167601 237.105354 
L 332.253402 227.781712 
L 333.339203 242.134293 
L 334.425005 247.481475 
L 335.510806 239.143656 
L 336.596607 236.07671 
L 337.682408 240.487198 
L 338.768209 243.404678 
L 339.85401 244.348284 
L 340.939811 233.544977 
L 342.025613 239.241466 
L 343.111414 238.669505 
L 344.197215 249.61678 
L 345.283016 241.563399 
L 346.368817 238.426989 
L 347.454618 252.922081 
L 348.54042 251.27295 
L 349.626221 245.093979 
L 351.797823 236.765746 
L 352.883624 250.016726 
L 353.969425 249.695779 
L 355.055227 245.961902 
L 356.141028 252.940374 
L 357.226829 243.374106 
L 358.31263 241.335965 
L 359.398431 245.870945 
L 360.484232 255.388316 
L 362.655835 243.794362 
L 363.741636 244.842523 
L 364.827437 253.141567 
L 365.913238 239.788555 
L 366.999039 244.212621 
L 368.08484 244.994182 
L 369.170642 235.73126 
L 370.256443 232.597637 
L 371.342244 240.267573 
L 372.428045 245.726596 
L 373.513846 245.620447 
L 374.599647 247.615282 
L 375.685448 248.925569 
L 376.77125 236.770519 
L 377.857051 245.319667 
L 378.942852 243.026693 
L 380.028653 248.36695 
L 382.200255 239.044637 
L 383.286057 249.042992 
L 384.371858 235.496184 
L 385.457659 244.032081 
L 386.54346 257.084282 
L 387.629261 242.95664 
L 388.715062 253.327495 
L 389.800863 238.799933 
L 390.886665 239.159014 
L 391.972466 247.286601 
L 393.058267 239.476338 
L 394.144068 249.098867 
L 395.229869 248.044493 
L 396.31567 243.577474 
L 397.401472 241.326425 
L 398.487273 238.288814 
L 398.487273 238.288814 
" style="fill:none;stroke:#008000;stroke-dasharray:9.6,2.4,1.5,2.4;stroke-dashoffset:0;stroke-width:1.5;"/>
   </g>
   <g id="line2d_35">
    <path clip-path="url(#pe8f51ddc5b)" d="M 73.832727 252.251151 
L 76.00433 215.332537 
L 77.090131 203.531347 
L 78.175932 195.363178 
L 79.261733 192.134056 
L 80.347534 192.151446 
L 82.519137 180.209421 
L 83.604938 180.976107 
L 84.690739 186.30303 
L 85.77654 176.883847 
L 86.862341 175.12355 
L 87.948142 175.666089 
L 89.033943 173.645718 
L 90.119745 174.955159 
L 91.205546 174.433406 
L 92.291347 174.555943 
L 93.377148 169.134926 
L 94.462949 169.619289 
L 95.54875 177.894162 
L 96.634552 176.531406 
L 97.720353 173.077447 
L 98.806154 168.79231 
L 99.891955 166.498994 
L 100.977756 169.125572 
L 102.063557 167.232689 
L 103.149358 166.382129 
L 104.23516 171.77696 
L 105.320961 166.480478 
L 106.406762 163.765279 
L 107.492563 163.662127 
L 108.578364 162.412403 
L 109.664165 168.684062 
L 110.749967 167.909334 
L 111.835768 161.828031 
L 112.921569 164.445802 
L 114.00737 164.200934 
L 115.093171 164.598639 
L 116.178972 164.099808 
L 117.264773 160.59716 
L 119.436376 165.669261 
L 120.522177 165.255733 
L 121.607978 165.069704 
L 122.693779 165.884325 
L 123.77958 170.004652 
L 124.865382 167.689238 
L 125.951183 169.831009 
L 127.036984 170.131746 
L 128.122785 168.406263 
L 129.208586 165.265044 
L 130.294387 166.199114 
L 131.380189 165.878452 
L 132.46599 166.88558 
L 133.551791 164.036772 
L 134.637592 165.872656 
L 135.723393 163.994328 
L 136.809194 164.341449 
L 137.894995 164.280064 
L 140.066598 159.693789 
L 141.152399 164.770476 
L 142.2382 171.45512 
L 143.324001 163.212022 
L 144.409802 173.325528 
L 145.495604 171.217411 
L 146.581405 178.65501 
L 147.667206 170.603585 
L 148.753007 176.54879 
L 149.838808 168.590055 
L 150.924609 172.316232 
L 152.01041 169.995957 
L 153.096212 166.317645 
L 154.182013 164.462452 
L 155.267814 171.831574 
L 156.353615 165.99664 
L 157.439416 165.089629 
L 158.525217 167.376308 
L 159.611019 164.289539 
L 160.69682 166.272101 
L 161.782621 166.728634 
L 162.868422 164.944961 
L 163.954223 164.475985 
L 165.040024 163.231864 
L 166.125825 161.814096 
L 167.211627 153.08921 
L 168.297428 158.186332 
L 169.383229 154.28872 
L 170.46903 153.377564 
L 171.554831 151.253749 
L 172.640632 143.069093 
L 173.726434 145.039527 
L 174.812235 145.871211 
L 175.898036 143.981553 
L 176.983837 138.987596 
L 178.069638 143.356292 
L 179.155439 143.64634 
L 180.24124 143.153973 
L 181.327042 144.916694 
L 182.412843 146.09317 
L 183.498644 139.300665 
L 184.584445 137.866493 
L 185.670246 135.041986 
L 186.756047 133.916012 
L 187.841849 130.932502 
L 188.92765 136.969213 
L 190.013451 136.153375 
L 191.099252 136.974539 
L 192.185053 132.553543 
L 193.270854 137.858497 
L 194.356656 134.255311 
L 195.442457 134.604848 
L 196.528258 140.986552 
L 197.614059 133.717919 
L 198.69986 135.661873 
L 199.785661 136.551913 
L 200.871462 132.955091 
L 201.957264 136.467825 
L 203.043065 130.715094 
L 204.128866 126.278369 
L 205.214667 128.711379 
L 206.300468 134.653052 
L 207.386269 128.409439 
L 208.472071 136.206717 
L 209.557872 130.236914 
L 210.643673 135.063297 
L 211.729474 128.075006 
L 212.815275 128.800018 
L 213.901076 122.945695 
L 214.986877 135.938228 
L 216.072679 127.015399 
L 217.15848 138.289908 
L 218.244281 139.090643 
L 219.330082 138.766936 
L 220.415883 126.281557 
L 221.501684 130.021862 
L 222.587486 129.373869 
L 223.673287 123.829962 
L 224.759088 125.321416 
L 225.844889 126.1913 
L 226.93069 125.346837 
L 228.016491 124.30054 
L 229.102292 126.060817 
L 230.188094 121.710098 
L 231.273895 120.899086 
L 232.359696 123.197753 
L 233.445497 120.743657 
L 234.531298 124.944895 
L 235.617099 130.522363 
L 236.702901 126.217365 
L 237.788702 116.81212 
L 238.874503 121.4535 
L 239.960304 124.14541 
L 241.046105 120.694166 
L 242.131906 125.895222 
L 243.217708 127.876752 
L 244.303509 116.78262 
L 245.38931 116.350357 
L 246.475111 125.200938 
L 247.560912 136.574964 
L 248.646713 132.333669 
L 249.732514 121.772238 
L 250.818316 127.056017 
L 251.904117 124.588532 
L 252.989918 125.636117 
L 254.075719 133.711709 
L 255.16152 123.123824 
L 256.247321 125.272002 
L 257.333123 122.484169 
L 258.418924 127.177125 
L 259.504725 120.554625 
L 260.590526 122.630374 
L 261.676327 123.228757 
L 262.762128 119.671317 
L 263.847929 119.323678 
L 264.933731 113.874117 
L 266.019532 121.422902 
L 267.105333 120.119184 
L 268.191134 122.252839 
L 269.276935 126.063106 
L 270.362736 118.437291 
L 271.448538 127.478109 
L 272.534339 115.842621 
L 273.62014 118.6075 
L 274.705941 119.537183 
L 275.791742 119.610751 
L 276.877543 120.109558 
L 277.963344 118.045152 
L 279.049146 116.64013 
L 280.134947 120.659088 
L 281.220748 125.573221 
L 282.306549 112.449142 
L 283.39235 121.959627 
L 284.478151 122.706867 
L 285.563953 121.364865 
L 286.649754 119.161932 
L 287.735555 114.728416 
L 288.821356 114.345128 
L 289.907157 115.848342 
L 290.992958 108.121596 
L 292.07876 114.639621 
L 293.164561 114.79725 
L 294.250362 114.46425 
L 295.336163 108.221227 
L 296.421964 112.545012 
L 297.507765 127.02054 
L 298.593566 118.63168 
L 299.679368 121.445878 
L 300.765169 115.735135 
L 301.85097 118.676875 
L 302.936771 126.025401 
L 304.022572 112.808595 
L 305.108373 113.339965 
L 306.194175 110.188708 
L 307.279976 103.858145 
L 308.365777 104.542152 
L 309.451578 108.13778 
L 310.537379 106.979984 
L 311.62318 107.272352 
L 312.708981 106.213883 
L 313.794783 114.189656 
L 314.880584 101.456242 
L 315.966385 103.830679 
L 317.052186 106.542654 
L 318.137987 112.749882 
L 319.223788 112.792581 
L 320.30959 109.87273 
L 321.395391 109.326084 
L 322.481192 110.947794 
L 323.566993 105.245798 
L 324.652794 107.244218 
L 325.738595 114.267409 
L 326.824396 117.009368 
L 327.910198 107.187125 
L 328.995999 114.85976 
L 330.0818 105.001268 
L 331.167601 108.665248 
L 332.253402 104.485775 
L 333.339203 99.20151 
L 334.425005 113.738937 
L 335.510806 103.731996 
L 337.682408 103.667896 
L 338.768209 110.054665 
L 339.85401 113.816978 
L 340.939811 110.166155 
L 342.025613 110.240556 
L 343.111414 109.955516 
L 344.197215 109.989946 
L 346.368817 111.391622 
L 347.454618 120.612704 
L 348.54042 114.052758 
L 349.626221 113.565763 
L 350.712022 106.285373 
L 351.797823 110.044142 
L 352.883624 104.30149 
L 353.969425 114.353051 
L 355.055227 112.254145 
L 356.141028 116.296491 
L 357.226829 109.111168 
L 358.31263 113.780308 
L 359.398431 110.301159 
L 360.484232 117.545612 
L 361.570033 111.871982 
L 362.655835 110.92421 
L 363.741636 110.187153 
L 364.827437 117.282423 
L 365.913238 110.426306 
L 366.999039 114.581129 
L 368.08484 113.541218 
L 369.170642 109.361907 
L 370.256443 106.585462 
L 371.342244 115.945213 
L 372.428045 108.447211 
L 373.513846 112.610466 
L 374.599647 115.589327 
L 375.685448 116.530758 
L 376.77125 116.300412 
L 377.857051 110.181405 
L 378.942852 112.04799 
L 380.028653 110.71026 
L 381.114454 112.988527 
L 382.200255 109.436944 
L 383.286057 111.310863 
L 384.371858 104.601462 
L 385.457659 114.852821 
L 386.54346 119.852932 
L 387.629261 115.225763 
L 388.715062 112.684261 
L 389.800863 105.689842 
L 390.886665 109.022871 
L 391.972466 108.37422 
L 393.058267 105.770784 
L 394.144068 114.917144 
L 396.31567 110.539501 
L 397.401472 105.391142 
L 398.487273 103.626855 
L 398.487273 103.626855 
" style="fill:none;stroke:#008000;stroke-dasharray:9.6,2.4,1.5,2.4;stroke-dashoffset:0;stroke-width:1.5;"/>
   </g>
   <g id="line2d_36">
    <path clip-path="url(#pe8f51ddc5b)" d="M 73.832727 175.231269 
L 74.918528 144.619138 
L 76.00433 152.606543 
L 77.090131 150.835801 
L 78.175932 145.330914 
L 79.261733 145.477415 
L 80.347534 141.712426 
L 81.433335 141.74765 
L 82.519137 142.236307 
L 83.604938 141.563741 
L 84.690739 142.123113 
L 89.033943 141.739469 
L 90.119745 142.189542 
L 91.205546 142.176891 
L 92.291347 142.331526 
L 93.377148 142.072428 
L 94.462949 138.641297 
L 95.54875 139.289862 
L 96.634552 138.024241 
L 97.720353 140.925087 
L 98.806154 138.301687 
L 99.891955 137.672187 
L 100.977756 120.077194 
L 102.063557 139.739889 
L 103.149358 128.941958 
L 104.23516 130.64241 
L 105.320961 140.020369 
L 106.406762 139.809193 
L 107.492563 123.947849 
L 108.578364 141.925884 
L 109.664165 139.082282 
L 110.749967 142.240655 
L 111.835768 139.927749 
L 112.921569 140.542908 
L 114.00737 140.517273 
L 115.093171 140.061333 
L 116.178972 140.870392 
L 117.264773 139.796952 
L 118.350575 139.393417 
L 119.436376 130.252073 
L 120.522177 130.760371 
L 121.607978 117.631212 
L 122.693779 137.903236 
L 123.77958 138.24957 
L 124.865382 138.786647 
L 125.951183 141.623467 
L 127.036984 140.505924 
L 128.122785 142.067207 
L 129.208586 140.925637 
L 130.294387 142.944444 
L 131.380189 103.153397 
L 132.46599 105.233906 
L 133.551791 111.102897 
L 134.637592 129.353903 
L 135.723393 115.037472 
L 136.809194 133.579011 
L 137.894995 132.065062 
L 138.980797 125.445358 
L 140.066598 128.733977 
L 141.152399 127.520263 
L 142.2382 132.387167 
L 143.324001 132.12774 
L 144.409802 125.171435 
L 145.495604 130.785537 
L 146.581405 116.951151 
L 147.667206 115.068461 
L 148.753007 127.898558 
L 149.838808 101.165018 
L 150.924609 110.427615 
L 152.01041 95.917127 
L 153.096212 97.68886 
L 154.182013 96.253616 
L 155.267814 87.943953 
L 156.353615 98.031957 
L 157.439416 97.021065 
L 158.525217 102.165261 
L 159.611019 98.066668 
L 160.69682 82.38474 
L 161.782621 107.761018 
L 162.868422 99.219205 
L 163.954223 92.228343 
L 165.040024 109.41929 
L 166.125825 90.342803 
L 167.211627 100.000676 
L 168.297428 100.556052 
L 169.383229 78.419198 
L 170.46903 94.365757 
L 171.554831 85.440301 
L 172.640632 85.639772 
L 173.726434 90.341277 
L 174.812235 71.807838 
L 175.898036 76.993306 
L 176.983837 88.994399 
L 178.069638 83.653613 
L 179.155439 82.077067 
L 180.24124 77.771574 
L 181.327042 95.78262 
L 182.412843 71.671988 
L 183.498644 89.314848 
L 184.584445 84.701604 
L 186.756047 67.387303 
L 187.841849 67.053827 
L 188.92765 89.779161 
L 190.013451 85.367406 
L 191.099252 89.750416 
L 192.185053 85.268595 
L 193.270854 88.591607 
L 194.356656 90.36706 
L 195.442457 86.32485 
L 196.528258 86.795283 
L 197.614059 88.202824 
L 198.69986 77.455306 
L 199.785661 78.105215 
L 200.871462 92.048889 
L 201.957264 89.072015 
L 203.043065 87.493588 
L 204.128866 82.553736 
L 205.214667 88.525141 
L 206.300468 91.042452 
L 207.386269 69.844714 
L 208.472071 81.54874 
L 209.557872 81.124147 
L 210.643673 73.729886 
L 211.729474 74.391248 
L 212.815275 80.678018 
L 213.901076 79.68428 
L 214.986877 83.12206 
L 216.072679 72.887361 
L 217.15848 63.778114 
L 218.244281 65.957865 
L 219.330082 83.689227 
L 221.501684 74.318619 
L 222.587486 78.730682 
L 223.673287 65.245338 
L 224.759088 75.849581 
L 225.844889 65.870562 
L 226.93069 77.652496 
L 228.016491 74.943045 
L 229.102292 70.449708 
L 230.188094 69.324876 
L 231.273895 53.568 
L 232.359696 75.146796 
L 233.445497 65.117879 
L 234.531298 74.280803 
L 235.617099 77.036579 
L 236.702901 80.533866 
L 237.788702 71.510236 
L 238.874503 58.214104 
L 239.960304 60.328305 
L 241.046105 63.426223 
L 242.131906 63.930006 
L 243.217708 71.775263 
L 244.303509 69.92565 
L 245.38931 65.125533 
L 246.475111 69.292813 
L 247.560912 76.661999 
L 248.646713 63.395839 
L 249.732514 75.279817 
L 250.818316 67.376401 
L 251.904117 70.992723 
L 252.989918 70.549283 
L 254.075719 73.526831 
L 255.16152 65.834061 
L 256.247321 73.693427 
L 257.333123 74.413233 
L 258.418924 70.975945 
L 259.504725 67.928511 
L 260.590526 70.642365 
L 261.676327 64.788586 
L 262.762128 69.617714 
L 263.847929 66.784883 
L 264.933731 66.416788 
L 266.019532 66.46347 
L 267.105333 72.760685 
L 268.191134 73.724336 
L 269.276935 65.98748 
L 270.362736 63.645195 
L 271.448538 72.452336 
L 272.534339 70.008933 
L 273.62014 75.418986 
L 274.705941 68.347469 
L 275.791742 62.291262 
L 276.877543 75.559189 
L 277.963344 68.270849 
L 279.049146 69.327591 
L 280.134947 59.994839 
L 281.220748 61.057963 
L 282.306549 69.47403 
L 283.39235 68.418226 
L 284.478151 68.272376 
L 285.563953 57.638962 
L 286.649754 68.180668 
L 287.735555 69.180568 
L 288.821356 66.286475 
L 289.907157 71.031513 
L 290.992958 69.959429 
L 292.07876 63.026009 
L 293.164561 62.120319 
L 294.250362 64.248147 
L 295.336163 62.436091 
L 296.421964 65.914457 
L 297.507765 66.64103 
L 298.593566 65.888667 
L 299.679368 68.892391 
L 300.765169 65.00877 
L 301.85097 68.617908 
L 302.936771 72.986613 
L 304.022572 69.582916 
L 305.108373 70.940633 
L 306.194175 70.483693 
L 307.279976 64.416598 
L 308.365777 68.022076 
L 310.537379 69.399621 
L 311.62318 63.324335 
L 312.708981 67.28424 
L 313.794783 56.569449 
L 314.880584 65.824526 
L 315.966385 68.850041 
L 317.052186 66.135502 
L 318.137987 66.463928 
L 319.223788 70.661052 
L 320.30959 67.775729 
L 321.395391 71.577733 
L 322.481192 73.77501 
L 323.566993 63.568452 
L 324.652794 70.793971 
L 325.738595 70.281293 
L 326.824396 64.401095 
L 327.910198 72.091934 
L 328.995999 66.930978 
L 330.0818 70.371976 
L 331.167601 72.447115 
L 332.253402 70.767492 
L 333.339203 63.30126 
L 334.425005 67.275421 
L 335.510806 68.960037 
L 336.596607 65.570936 
L 337.682408 71.009176 
L 338.768209 70.637447 
L 339.85401 64.121823 
L 340.939811 63.55979 
L 342.025613 65.026066 
L 343.111414 70.245504 
L 344.197215 62.86117 
L 345.283016 65.920969 
L 346.368817 71.196209 
L 347.454618 70.640794 
L 348.54042 74.455913 
L 349.626221 73.595472 
L 350.712022 66.3528 
L 351.797823 68.411047 
L 352.883624 74.205721 
L 353.969425 68.111065 
L 355.055227 68.108769 
L 356.141028 63.48626 
L 357.226829 65.802602 
L 358.31263 66.548923 
L 359.398431 67.917691 
L 360.484232 69.977435 
L 361.570033 60.866478 
L 362.655835 64.13073 
L 363.741636 62.455212 
L 364.827437 63.878518 
L 365.913238 59.281792 
L 366.999039 59.038921 
L 368.08484 65.122137 
L 369.170642 67.724724 
L 370.256443 67.29906 
L 371.342244 64.375391 
L 372.428045 69.919538 
L 373.513846 73.005956 
L 374.599647 71.461972 
L 375.685448 66.087224 
L 376.77125 77.288486 
L 377.857051 68.352863 
L 378.942852 66.650317 
L 380.028653 69.656634 
L 381.114454 64.289137 
L 382.200255 70.327821 
L 383.286057 67.963285 
L 385.457659 60.179844 
L 387.629261 70.636496 
L 388.715062 73.735965 
L 389.800863 71.969877 
L 390.886665 71.114468 
L 391.972466 65.488323 
L 393.058267 64.458518 
L 394.144068 67.854099 
L 395.229869 62.985366 
L 396.31567 69.854149 
L 397.401472 65.893177 
L 398.487273 66.592239 
L 398.487273 66.592239 
" style="fill:none;stroke:#ff0000;stroke-linecap:square;stroke-width:1.5;"/>
   </g>
   <g id="patch_3">
    <path d="M 57.6 307.584 
L 57.6 41.472 
" style="fill:none;stroke:#000000;stroke-linecap:square;stroke-linejoin:miter;stroke-width:0.8;"/>
   </g>
   <g id="patch_4">
    <path d="M 414.72 307.584 
L 414.72 41.472 
" style="fill:none;stroke:#000000;stroke-linecap:square;stroke-linejoin:miter;stroke-width:0.8;"/>
   </g>
   <g id="patch_5">
    <path d="M 57.6 307.584 
L 414.72 307.584 
" style="fill:none;stroke:#000000;stroke-linecap:square;stroke-linejoin:miter;stroke-width:0.8;"/>
   </g>
   <g id="patch_6">
    <path d="M 57.6 41.472 
L 414.72 41.472 
" style="fill:none;stroke:#000000;stroke-linecap:square;stroke-linejoin:miter;stroke-width:0.8;"/>
   </g>
   <g id="text_19">
    <!-- Population's average and best fitness -->
    <defs>
     <path d="M 19.671875 64.796875 
L 19.671875 37.40625 
L 32.078125 37.40625 
Q 38.96875 37.40625 42.71875 40.96875 
Q 46.484375 44.53125 46.484375 51.125 
Q 46.484375 57.671875 42.71875 61.234375 
Q 38.96875 64.796875 32.078125 64.796875 
z
M 9.8125 72.90625 
L 32.078125 72.90625 
Q 44.34375 72.90625 50.609375 67.359375 
Q 56.890625 61.8125 56.890625 51.125 
Q 56.890625 40.328125 50.609375 34.8125 
Q 44.34375 29.296875 32.078125 29.296875 
L 19.671875 29.296875 
L 19.671875 0 
L 9.8125 0 
z
" id="DejaVuSans-50"/>
     <path d="M 18.109375 8.203125 
L 18.109375 -20.796875 
L 9.078125 -20.796875 
L 9.078125 54.6875 
L 18.109375 54.6875 
L 18.109375 46.390625 
Q 20.953125 51.265625 25.265625 53.625 
Q 29.59375 56 35.59375 56 
Q 45.5625 56 51.78125 48.09375 
Q 58.015625 40.1875 58.015625 27.296875 
Q 58.015625 14.40625 51.78125 6.484375 
Q 45.5625 -1.421875 35.59375 -1.421875 
Q 29.59375 -1.421875 25.265625 0.953125 
Q 20.953125 3.328125 18.109375 8.203125 
z
M 48.6875 27.296875 
Q 48.6875 37.203125 44.609375 42.84375 
Q 40.53125 48.484375 33.40625 48.484375 
Q 26.265625 48.484375 22.1875 42.84375 
Q 18.109375 37.203125 18.109375 27.296875 
Q 18.109375 17.390625 22.1875 11.75 
Q 26.265625 6.109375 33.40625 6.109375 
Q 40.53125 6.109375 44.609375 11.75 
Q 48.6875 17.390625 48.6875 27.296875 
z
" id="DejaVuSans-70"/>
     <path d="M 8.5 21.578125 
L 8.5 54.6875 
L 17.484375 54.6875 
L 17.484375 21.921875 
Q 17.484375 14.15625 20.5 10.265625 
Q 23.53125 6.390625 29.59375 6.390625 
Q 36.859375 6.390625 41.078125 11.03125 
Q 45.3125 15.671875 45.3125 23.6875 
L 45.3125 54.6875 
L 54.296875 54.6875 
L 54.296875 0 
L 45.3125 0 
L 45.3125 8.40625 
Q 42.046875 3.421875 37.71875 1 
Q 33.40625 -1.421875 27.6875 -1.421875 
Q 18.265625 -1.421875 13.375 4.4375 
Q 8.5 10.296875 8.5 21.578125 
z
M 31.109375 56 
z
" id="DejaVuSans-75"/>
     <path d="M 9.421875 75.984375 
L 18.40625 75.984375 
L 18.40625 0 
L 9.421875 0 
z
" id="DejaVuSans-6c"/>
     <path d="M 17.921875 72.90625 
L 17.921875 45.796875 
L 9.625 45.796875 
L 9.625 72.90625 
z
" id="DejaVuSans-27"/>
     <path id="DejaVuSans-20"/>
     <path d="M 2.984375 54.6875 
L 12.5 54.6875 
L 29.59375 8.796875 
L 46.6875 54.6875 
L 56.203125 54.6875 
L 35.6875 0 
L 23.484375 0 
z
" id="DejaVuSans-76"/>
     <path d="M 45.40625 27.984375 
Q 45.40625 37.75 41.375 43.109375 
Q 37.359375 48.484375 30.078125 48.484375 
Q 22.859375 48.484375 18.828125 43.109375 
Q 14.796875 37.75 14.796875 27.984375 
Q 14.796875 18.265625 18.828125 12.890625 
Q 22.859375 7.515625 30.078125 7.515625 
Q 37.359375 7.515625 41.375 12.890625 
Q 45.40625 18.265625 45.40625 27.984375 
z
M 54.390625 6.78125 
Q 54.390625 -7.171875 48.1875 -13.984375 
Q 42 -20.796875 29.203125 -20.796875 
Q 24.46875 -20.796875 20.265625 -20.09375 
Q 16.0625 -19.390625 12.109375 -17.921875 
L 12.109375 -9.1875 
Q 16.0625 -11.328125 19.921875 -12.34375 
Q 23.78125 -13.375 27.78125 -13.375 
Q 36.625 -13.375 41.015625 -8.765625 
Q 45.40625 -4.15625 45.40625 5.171875 
L 45.40625 9.625 
Q 42.625 4.78125 38.28125 2.390625 
Q 33.9375 0 27.875 0 
Q 17.828125 0 11.671875 7.65625 
Q 5.515625 15.328125 5.515625 27.984375 
Q 5.515625 40.671875 11.671875 48.328125 
Q 17.828125 56 27.875 56 
Q 33.9375 56 38.28125 53.609375 
Q 42.625 51.21875 45.40625 46.390625 
L 45.40625 54.6875 
L 54.390625 54.6875 
z
" id="DejaVuSans-67"/>
     <path d="M 45.40625 46.390625 
L 45.40625 75.984375 
L 54.390625 75.984375 
L 54.390625 0 
L 45.40625 0 
L 45.40625 8.203125 
Q 42.578125 3.328125 38.25 0.953125 
Q 33.9375 -1.421875 27.875 -1.421875 
Q 17.96875 -1.421875 11.734375 6.484375 
Q 5.515625 14.40625 5.515625 27.296875 
Q 5.515625 40.1875 11.734375 48.09375 
Q 17.96875 56 27.875 56 
Q 33.9375 56 38.25 53.625 
Q 42.578125 51.265625 45.40625 46.390625 
z
M 14.796875 27.296875 
Q 14.796875 17.390625 18.875 11.75 
Q 22.953125 6.109375 30.078125 6.109375 
Q 37.203125 6.109375 41.296875 11.75 
Q 45.40625 17.390625 45.40625 27.296875 
Q 45.40625 37.203125 41.296875 42.84375 
Q 37.203125 48.484375 30.078125 48.484375 
Q 22.953125 48.484375 18.875 42.84375 
Q 14.796875 37.203125 14.796875 27.296875 
z
" id="DejaVuSans-64"/>
     <path d="M 48.6875 27.296875 
Q 48.6875 37.203125 44.609375 42.84375 
Q 40.53125 48.484375 33.40625 48.484375 
Q 26.265625 48.484375 22.1875 42.84375 
Q 18.109375 37.203125 18.109375 27.296875 
Q 18.109375 17.390625 22.1875 11.75 
Q 26.265625 6.109375 33.40625 6.109375 
Q 40.53125 6.109375 44.609375 11.75 
Q 48.6875 17.390625 48.6875 27.296875 
z
M 18.109375 46.390625 
Q 20.953125 51.265625 25.265625 53.625 
Q 29.59375 56 35.59375 56 
Q 45.5625 56 51.78125 48.09375 
Q 58.015625 40.1875 58.015625 27.296875 
Q 58.015625 14.40625 51.78125 6.484375 
Q 45.5625 -1.421875 35.59375 -1.421875 
Q 29.59375 -1.421875 25.265625 0.953125 
Q 20.953125 3.328125 18.109375 8.203125 
L 18.109375 0 
L 9.078125 0 
L 9.078125 75.984375 
L 18.109375 75.984375 
z
" id="DejaVuSans-62"/>
     <path d="M 37.109375 75.984375 
L 37.109375 68.5 
L 28.515625 68.5 
Q 23.6875 68.5 21.796875 66.546875 
Q 19.921875 64.59375 19.921875 59.515625 
L 19.921875 54.6875 
L 34.71875 54.6875 
L 34.71875 47.703125 
L 19.921875 47.703125 
L 19.921875 0 
L 10.890625 0 
L 10.890625 47.703125 
L 2.296875 47.703125 
L 2.296875 54.6875 
L 10.890625 54.6875 
L 10.890625 58.5 
Q 10.890625 67.625 15.140625 71.796875 
Q 19.390625 75.984375 28.609375 75.984375 
z
" id="DejaVuSans-66"/>
    </defs>
    <g transform="translate(123.315 35.472)scale(0.12 -0.12)">
     <use xlink:href="#DejaVuSans-50"/>
     <use x="60.255859" xlink:href="#DejaVuSans-6f"/>
     <use x="121.4375" xlink:href="#DejaVuSans-70"/>
     <use x="184.914062" xlink:href="#DejaVuSans-75"/>
     <use x="248.292969" xlink:href="#DejaVuSans-6c"/>
     <use x="276.076172" xlink:href="#DejaVuSans-61"/>
     <use x="337.355469" xlink:href="#DejaVuSans-74"/>
     <use x="376.564453" xlink:href="#DejaVuSans-69"/>
     <use x="404.347656" xlink:href="#DejaVuSans-6f"/>
     <use x="465.529297" xlink:href="#DejaVuSans-6e"/>
     <use x="528.908203" xlink:href="#DejaVuSans-27"/>
     <use x="556.398438" xlink:href="#DejaVuSans-73"/>
     <use x="608.498047" xlink:href="#DejaVuSans-20"/>
     <use x="640.285156" xlink:href="#DejaVuSans-61"/>
     <use x="701.564453" xlink:href="#DejaVuSans-76"/>
     <use x="760.744141" xlink:href="#DejaVuSans-65"/>
     <use x="822.267578" xlink:href="#DejaVuSans-72"/>
     <use x="863.380859" xlink:href="#DejaVuSans-61"/>
     <use x="924.660156" xlink:href="#DejaVuSans-67"/>
     <use x="988.136719" xlink:href="#DejaVuSans-65"/>
     <use x="1049.660156" xlink:href="#DejaVuSans-20"/>
     <use x="1081.447266" xlink:href="#DejaVuSans-61"/>
     <use x="1142.726562" xlink:href="#DejaVuSans-6e"/>
     <use x="1206.105469" xlink:href="#DejaVuSans-64"/>
     <use x="1269.582031" xlink:href="#DejaVuSans-20"/>
     <use x="1301.369141" xlink:href="#DejaVuSans-62"/>
     <use x="1364.845703" xlink:href="#DejaVuSans-65"/>
     <use x="1426.369141" xlink:href="#DejaVuSans-73"/>
     <use x="1478.46875" xlink:href="#DejaVuSans-74"/>
     <use x="1517.677734" xlink:href="#DejaVuSans-20"/>
     <use x="1549.464844" xlink:href="#DejaVuSans-66"/>
     <use x="1584.669922" xlink:href="#DejaVuSans-69"/>
     <use x="1612.453125" xlink:href="#DejaVuSans-74"/>
     <use x="1651.662109" xlink:href="#DejaVuSans-6e"/>
     <use x="1715.041016" xlink:href="#DejaVuSans-65"/>
     <use x="1776.564453" xlink:href="#DejaVuSans-73"/>
     <use x="1828.664062" xlink:href="#DejaVuSans-73"/>
    </g>
   </g>
   <g id="legend_1">
    <g id="patch_7">
     <path d="M 64.6 108.1845 
L 137.540625 108.1845 
Q 139.540625 108.1845 139.540625 106.1845 
L 139.540625 48.472 
Q 139.540625 46.472 137.540625 46.472 
L 64.6 46.472 
Q 62.6 46.472 62.6 48.472 
L 62.6 106.1845 
Q 62.6 108.1845 64.6 108.1845 
z
" style="fill:#ffffff;opacity:0.8;stroke:#cccccc;stroke-linejoin:miter;"/>
    </g>
    <g id="line2d_37">
     <path d="M 66.6 54.570438 
L 86.6 54.570438 
" style="fill:none;stroke:#0000ff;stroke-linecap:square;stroke-width:1.5;"/>
    </g>
    <g id="line2d_38"/>
    <g id="text_20">
     <!-- average -->
     <g transform="translate(94.6 58.070438)scale(0.1 -0.1)">
      <use xlink:href="#DejaVuSans-61"/>
      <use x="61.279297" xlink:href="#DejaVuSans-76"/>
      <use x="120.458984" xlink:href="#DejaVuSans-65"/>
      <use x="181.982422" xlink:href="#DejaVuSans-72"/>
      <use x="223.095703" xlink:href="#DejaVuSans-61"/>
      <use x="284.375" xlink:href="#DejaVuSans-67"/>
      <use x="347.851562" xlink:href="#DejaVuSans-65"/>
     </g>
    </g>
    <g id="line2d_39">
     <path d="M 66.6 69.248563 
L 86.6 69.248563 
" style="fill:none;stroke:#008000;stroke-dasharray:9.6,2.4,1.5,2.4;stroke-dashoffset:0;stroke-width:1.5;"/>
    </g>
    <g id="line2d_40"/>
    <g id="text_21">
     <!-- -1 sd -->
     <defs>
      <path d="M 4.890625 31.390625 
L 31.203125 31.390625 
L 31.203125 23.390625 
L 4.890625 23.390625 
z
" id="DejaVuSans-2d"/>
     </defs>
     <g transform="translate(94.6 72.748563)scale(0.1 -0.1)">
      <use xlink:href="#DejaVuSans-2d"/>
      <use x="36.083984" xlink:href="#DejaVuSans-31"/>
      <use x="99.707031" xlink:href="#DejaVuSans-20"/>
      <use x="131.494141" xlink:href="#DejaVuSans-73"/>
      <use x="183.59375" xlink:href="#DejaVuSans-64"/>
     </g>
    </g>
    <g id="line2d_41">
     <path d="M 66.6 83.926688 
L 86.6 83.926688 
" style="fill:none;stroke:#008000;stroke-dasharray:9.6,2.4,1.5,2.4;stroke-dashoffset:0;stroke-width:1.5;"/>
    </g>
    <g id="line2d_42"/>
    <g id="text_22">
     <!-- +1 sd -->
     <defs>
      <path d="M 46 62.703125 
L 46 35.5 
L 73.1875 35.5 
L 73.1875 27.203125 
L 46 27.203125 
L 46 0 
L 37.796875 0 
L 37.796875 27.203125 
L 10.59375 27.203125 
L 10.59375 35.5 
L 37.796875 35.5 
L 37.796875 62.703125 
z
" id="DejaVuSans-2b"/>
     </defs>
     <g transform="translate(94.6 87.426688)scale(0.1 -0.1)">
      <use xlink:href="#DejaVuSans-2b"/>
      <use x="83.789062" xlink:href="#DejaVuSans-31"/>
      <use x="147.412109" xlink:href="#DejaVuSans-20"/>
      <use x="179.199219" xlink:href="#DejaVuSans-73"/>
      <use x="231.298828" xlink:href="#DejaVuSans-64"/>
     </g>
    </g>
    <g id="line2d_43">
     <path d="M 66.6 98.604813 
L 86.6 98.604813 
" style="fill:none;stroke:#ff0000;stroke-linecap:square;stroke-width:1.5;"/>
    </g>
    <g id="line2d_44"/>
    <g id="text_23">
     <!-- best -->
     <g transform="translate(94.6 102.104813)scale(0.1 -0.1)">
      <use xlink:href="#DejaVuSans-62"/>
      <use x="63.476562" xlink:href="#DejaVuSans-65"/>
      <use x="125" xlink:href="#DejaVuSans-73"/>
      <use x="177.099609" xlink:href="#DejaVuSans-74"/>
     </g>
    </g>
   </g>
  </g>
 </g>
 <defs>
  <clipPath id="pe8f51ddc5b">
   <rect height="266.112" width="357.12" x="57.6" y="41.472"/>
  </clipPath>
 </defs>
</svg>
