<?xml version="1.0" encoding="UTF-8" standalone="no"?>
<!DOCTYPE svg PUBLIC "-//W3C//DTD SVG 1.1//EN"
 "http://www.w3.org/Graphics/SVG/1.1/DTD/svg11.dtd">
<!-- Generated by graphviz version 2.38.0 (20140413.2041)
 -->
<!-- Title: %3 Pages: 1 -->
<svg width="1439pt" height="294pt"
 viewBox="0.00 0.00 1439.08 293.81" xmlns="http://www.w3.org/2000/svg" xmlns:xlink="http://www.w3.org/1999/xlink">
<g id="graph0" class="graph" transform="scale(1 1) rotate(0) translate(4 289.806)">
<title>%3</title>
<polygon fill="white" stroke="none" points="-4,4 -4,-289.806 1435.08,-289.806 1435.08,4 -4,4"/>
<!-- &#45;1 -->
<g id="node1" class="node"><title>&#45;1</title>
<polygon fill="lightgray" stroke="black" points="908.577,-213.229 884.577,-213.229 884.577,-195.229 908.577,-195.229 908.577,-213.229"/>
<text text-anchor="middle" x="896.577" y="-202.029" font-family="Times,serif" font-size="9.00">&#45;1</text>
</g>
<!-- 0 -->
<g id="node25" class="node"><title>0</title>
<ellipse fill="lightblue" stroke="black" cx="1006.58" cy="-113.075" rx="14.7" ry="14.7"/>
<text text-anchor="middle" x="1006.58" y="-110.875" font-family="Times,serif" font-size="9.00">0</text>
</g>
<!-- &#45;1&#45;&gt;0 -->
<g id="edge4" class="edge"><title>&#45;1&#45;&gt;0</title>
<path fill="none" stroke="green" stroke-width="0.386698" stroke-dasharray="1,5" d="M902.264,-194.807C906.203,-189.304 911.766,-182.147 917.577,-176.652 938.593,-156.779 966.311,-138.291 985.194,-126.641"/>
<polygon fill="green" stroke="green" stroke-width="0.386698" points="987.192,-129.522 993.933,-121.348 983.566,-123.535 987.192,-129.522"/>
</g>
<!-- 1 -->
<g id="node26" class="node"><title>1</title>
<ellipse fill="lightblue" stroke="black" cx="591.577" cy="-113.075" rx="14.7" ry="14.7"/>
<text text-anchor="middle" x="591.577" y="-110.875" font-family="Times,serif" font-size="9.00">1</text>
</g>
<!-- &#45;1&#45;&gt;1 -->
<g id="edge14" class="edge"><title>&#45;1&#45;&gt;1</title>
<path fill="none" stroke="red" stroke-width="0.128303" stroke-dasharray="1,5" d="M884.409,-197.117C872.455,-191.287 853.586,-182.545 836.577,-176.652 757.635,-149.301 660.668,-128.033 616.101,-118.919"/>
<polygon fill="red" stroke="red" stroke-width="0.128303" points="616.68,-115.465 606.185,-116.915 615.294,-122.326 616.68,-115.465"/>
</g>
<!-- 3 -->
<g id="node28" class="node"><title>3</title>
<ellipse fill="lightblue" stroke="black" cx="856.577" cy="-113.075" rx="14.7" ry="14.7"/>
<text text-anchor="middle" x="856.577" y="-110.875" font-family="Times,serif" font-size="9.00">3</text>
</g>
<!-- &#45;1&#45;&gt;3 -->
<g id="edge42" class="edge"><title>&#45;1&#45;&gt;3</title>
<path fill="none" stroke="red" stroke-width="0.882653" stroke-dasharray="1,5" d="M892.886,-195.001C886.924,-181.713 874.979,-155.09 866.417,-136.006"/>
<polygon fill="red" stroke="red" stroke-width="0.882653" points="869.584,-134.516 862.298,-126.825 863.198,-137.381 869.584,-134.516"/>
</g>
<!-- &#45;2 -->
<g id="node2" class="node"><title>&#45;2</title>
<polygon fill="lightgray" stroke="black" points="183.577,-213.229 159.577,-213.229 159.577,-195.229 183.577,-195.229 183.577,-213.229"/>
<text text-anchor="middle" x="171.577" y="-202.029" font-family="Times,serif" font-size="9.00">&#45;2</text>
</g>
<!-- 2 -->
<g id="node27" class="node"><title>2</title>
<ellipse fill="lightblue" stroke="black" cx="301.577" cy="-113.075" rx="14.7" ry="14.7"/>
<text text-anchor="middle" x="301.577" y="-110.875" font-family="Times,serif" font-size="9.00">2</text>
</g>
<!-- &#45;2&#45;&gt;2 -->
<g id="edge33" class="edge"><title>&#45;2&#45;&gt;2</title>
<path fill="none" stroke="red" stroke-width="0.241837" stroke-dasharray="1,5" d="M176.765,-195.115C180.646,-189.473 186.342,-182.028 192.577,-176.652 219.207,-153.687 255.503,-134.838 278.744,-124.022"/>
<polygon fill="red" stroke="red" stroke-width="0.241837" points="280.471,-127.082 288.13,-119.761 277.577,-120.708 280.471,-127.082"/>
</g>
<!-- &#45;3 -->
<g id="node3" class="node"><title>&#45;3</title>
<polygon fill="lightgray" stroke="black" points="391.577,-213.229 367.577,-213.229 367.577,-195.229 391.577,-195.229 391.577,-213.229"/>
<text text-anchor="middle" x="379.577" y="-202.029" font-family="Times,serif" font-size="9.00">&#45;3</text>
</g>
<!-- &#45;3&#45;&gt;1 -->
<g id="edge34" class="edge"><title>&#45;3&#45;&gt;1</title>
<path fill="none" stroke="green" stroke-width="0.20414" stroke-dasharray="1,5" d="M384.131,-195.202C387.857,-189.302 393.633,-181.498 400.577,-176.652 452.924,-140.117 527.994,-123.842 566.578,-117.529"/>
<polygon fill="green" stroke="green" stroke-width="0.20414" points="567.531,-120.923 576.881,-115.94 566.465,-114.005 567.531,-120.923"/>
</g>
<!-- &#45;3&#45;&gt;2 -->
<g id="edge22" class="edge"><title>&#45;3&#45;&gt;2</title>
<path fill="none" stroke="red" stroke-width="0.205002" d="M372.379,-195.001C360.026,-180.882 334.504,-151.71 317.716,-132.522"/>
<polygon fill="red" stroke="red" stroke-width="0.205002" points="320.127,-129.962 310.908,-124.74 314.859,-134.571 320.127,-129.962"/>
</g>
<!-- &#45;4 -->
<g id="node4" class="node"><title>&#45;4</title>
<polygon fill="lightgray" stroke="black" points="780.577,-213.229 756.577,-213.229 756.577,-195.229 780.577,-195.229 780.577,-213.229"/>
<text text-anchor="middle" x="768.577" y="-202.029" font-family="Times,serif" font-size="9.00">&#45;4</text>
</g>
<!-- &#45;4&#45;&gt;0 -->
<g id="edge36" class="edge"><title>&#45;4&#45;&gt;0</title>
<path fill="none" stroke="red" stroke-width="0.294013" d="M773.082,-195.13C776.782,-189.192 782.547,-181.373 789.577,-176.652 821.569,-155.165 932.38,-129.779 982.1,-119.151"/>
<polygon fill="red" stroke="red" stroke-width="0.294013" points="982.943,-122.551 992.002,-117.058 981.495,-115.702 982.943,-122.551"/>
</g>
<!-- &#45;4&#45;&gt;1 -->
<g id="edge47" class="edge"><title>&#45;4&#45;&gt;1</title>
<path fill="none" stroke="red" stroke-width="0.369454" stroke-dasharray="1,5" d="M763.612,-194.839C759.834,-189.067 754.172,-181.58 747.577,-176.652 706.626,-146.048 648.663,-128.024 616.153,-119.695"/>
<polygon fill="red" stroke="red" stroke-width="0.369454" points="616.711,-116.228 606.164,-117.238 615.039,-123.026 616.711,-116.228"/>
</g>
<!-- &#45;5 -->
<g id="node5" class="node"><title>&#45;5</title>
<polygon fill="lightgray" stroke="black" points="998.577,-213.229 974.577,-213.229 974.577,-195.229 998.577,-195.229 998.577,-213.229"/>
<text text-anchor="middle" x="986.577" y="-202.029" font-family="Times,serif" font-size="9.00">&#45;5</text>
</g>
<!-- &#45;5&#45;&gt;0 -->
<g id="edge29" class="edge"><title>&#45;5&#45;&gt;0</title>
<path fill="none" stroke="red" stroke-width="1.44047" d="M988.423,-195.001C991.314,-182.113 997.019,-156.681 1001.27,-137.75"/>
<polygon fill="red" stroke="red" stroke-width="1.44047" points="1004.73,-138.285 1003.51,-127.761 997.903,-136.752 1004.73,-138.285"/>
</g>
<!-- &#45;5&#45;&gt;3 -->
<g id="edge38" class="edge"><title>&#45;5&#45;&gt;3</title>
<path fill="none" stroke="red" stroke-width="0.396501" stroke-dasharray="1,5" d="M981.063,-195.14C976.958,-189.509 970.979,-182.068 964.577,-176.652 937.918,-154.095 902.026,-135.139 879.089,-124.19"/>
<polygon fill="red" stroke="red" stroke-width="0.396501" points="880.371,-120.926 869.829,-119.869 877.411,-127.27 880.371,-120.926"/>
</g>
<!-- &#45;6 -->
<g id="node6" class="node"><title>&#45;6</title>
<polygon fill="lightgray" stroke="black" points="225.577,-213.229 201.577,-213.229 201.577,-195.229 225.577,-195.229 225.577,-213.229"/>
<text text-anchor="middle" x="213.577" y="-202.029" font-family="Times,serif" font-size="9.00">&#45;6</text>
</g>
<!-- &#45;6&#45;&gt;2 -->
<g id="edge46" class="edge"><title>&#45;6&#45;&gt;2</title>
<path fill="none" stroke="red" stroke-width="0.36122" stroke-dasharray="1,5" d="M219.523,-195.063C223.572,-189.669 229.16,-182.536 234.577,-176.652 249.933,-159.973 268.942,-142.482 282.786,-130.246"/>
<polygon fill="red" stroke="red" stroke-width="0.36122" points="285.436,-132.578 290.659,-123.36 280.828,-127.309 285.436,-132.578"/>
</g>
<!-- &#45;7 -->
<g id="node7" class="node"><title>&#45;7</title>
<polygon fill="lightgray" stroke="black" points="738.577,-213.229 714.577,-213.229 714.577,-195.229 738.577,-195.229 738.577,-213.229"/>
<text text-anchor="middle" x="726.577" y="-202.029" font-family="Times,serif" font-size="9.00">&#45;7</text>
</g>
<!-- &#45;7&#45;&gt;1 -->
<g id="edge28" class="edge"><title>&#45;7&#45;&gt;1</title>
<path fill="none" stroke="red" stroke-width="0.261851" stroke-dasharray="1,5" d="M721.095,-195.102C717.006,-189.453 711.031,-182.006 704.577,-176.652 676.488,-153.348 638.443,-134.383 614.453,-123.659"/>
<polygon fill="red" stroke="red" stroke-width="0.261851" points="615.668,-120.37 605.103,-119.578 612.868,-126.786 615.668,-120.37"/>
</g>
<!-- &#45;8 -->
<g id="node8" class="node"><title>&#45;8</title>
<polygon fill="lightgray" stroke="black" points="1383.58,-285.806 1359.58,-285.806 1359.58,-267.806 1383.58,-267.806 1383.58,-285.806"/>
<text text-anchor="middle" x="1371.58" y="-274.606" font-family="Times,serif" font-size="9.00">&#45;8</text>
</g>
<!-- &#45;9 -->
<g id="node9" class="node"><title>&#45;9</title>
<polygon fill="lightgray" stroke="black" points="648.577,-213.229 624.577,-213.229 624.577,-195.229 648.577,-195.229 648.577,-213.229"/>
<text text-anchor="middle" x="636.577" y="-202.029" font-family="Times,serif" font-size="9.00">&#45;9</text>
</g>
<!-- &#45;9&#45;&gt;0 -->
<g id="edge35" class="edge"><title>&#45;9&#45;&gt;0</title>
<path fill="none" stroke="red" stroke-width="0.839196" d="M640.926,-194.882C644.544,-188.814 650.275,-180.941 657.577,-176.652 744.144,-125.806 781.877,-159.017 880.577,-140.652 916.156,-134.032 957.119,-125.157 982.432,-119.526"/>
<polygon fill="red" stroke="red" stroke-width="0.839196" points="983.266,-122.926 992.26,-117.328 981.738,-116.095 983.266,-122.926"/>
</g>
<!-- &#45;9&#45;&gt;2 -->
<g id="edge6" class="edge"><title>&#45;9&#45;&gt;2</title>
<path fill="none" stroke="red" stroke-width="0.521623" d="M631.881,-194.958C628.018,-188.93 621.983,-181.074 614.577,-176.652 519.57,-119.917 382.336,-113.617 326.558,-113.591"/>
<polygon fill="red" stroke="red" stroke-width="0.521623" points="326.502,-110.091 316.525,-113.656 326.548,-117.091 326.502,-110.091"/>
</g>
<!-- &#45;10 -->
<g id="node10" class="node"><title>&#45;10</title>
<polygon fill="lightgray" stroke="black" points="956.077,-213.229 927.077,-213.229 927.077,-195.229 956.077,-195.229 956.077,-213.229"/>
<text text-anchor="middle" x="941.577" y="-202.029" font-family="Times,serif" font-size="9.00">&#45;10</text>
</g>
<!-- &#45;10&#45;&gt;0 -->
<g id="edge25" class="edge"><title>&#45;10&#45;&gt;0</title>
<path fill="none" stroke="green" stroke-width="0.331342" d="M947.576,-195.001C957.66,-181.17 978.276,-152.892 992.264,-133.707"/>
<polygon fill="green" stroke="green" stroke-width="0.331342" points="995.1,-135.758 998.163,-125.616 989.443,-131.634 995.1,-135.758"/>
</g>
<!-- &#45;10&#45;&gt;3 -->
<g id="edge12" class="edge"><title>&#45;10&#45;&gt;3</title>
<path fill="none" stroke="red" stroke-width="0.266975" stroke-dasharray="1,5" d="M934.092,-194.775C929.398,-189.515 923.192,-182.636 917.577,-176.652 903.1,-161.223 886.295,-144.034 873.993,-131.581"/>
<polygon fill="red" stroke="red" stroke-width="0.266975" points="876.154,-128.789 866.629,-124.148 871.181,-133.716 876.154,-128.789"/>
</g>
<!-- &#45;11 -->
<g id="node11" class="node"><title>&#45;11</title>
<polygon fill="lightgray" stroke="black" points="141.077,-213.229 112.077,-213.229 112.077,-195.229 141.077,-195.229 141.077,-213.229"/>
<text text-anchor="middle" x="126.577" y="-202.029" font-family="Times,serif" font-size="9.00">&#45;11</text>
</g>
<!-- &#45;11&#45;&gt;2 -->
<g id="edge45" class="edge"><title>&#45;11&#45;&gt;2</title>
<path fill="none" stroke="red" stroke-width="0.196882" stroke-dasharray="1,5" d="M132.514,-194.895C136.955,-189.149 143.466,-181.671 150.577,-176.652 190.811,-148.256 245.886,-129.602 277.192,-120.531"/>
<polygon fill="red" stroke="red" stroke-width="0.196882" points="278.527,-123.792 287.211,-117.722 276.637,-117.052 278.527,-123.792"/>
</g>
<!-- 8687 -->
<g id="node30" class="node"><title>8687</title>
<ellipse fill="white" stroke="black" cx="246.577" cy="-24.7487" rx="25" ry="25"/>
<text text-anchor="middle" x="246.577" y="-22.5487" font-family="Times,serif" font-size="9.00">8687</text>
</g>
<!-- &#45;11&#45;&gt;8687 -->
<g id="edge41" class="edge"><title>&#45;11&#45;&gt;8687</title>
<path fill="none" stroke="red" stroke-width="0.220565" d="M132.045,-195.142C148.697,-170.514 199.35,-95.5982 227.391,-54.1249"/>
<polygon fill="red" stroke="red" stroke-width="0.220565" points="230.31,-56.0573 233.011,-45.8127 224.511,-52.1364 230.31,-56.0573"/>
</g>
<!-- &#45;12 -->
<g id="node12" class="node"><title>&#45;12</title>
<polygon fill="lightgray" stroke="black" points="512.077,-213.229 483.077,-213.229 483.077,-195.229 512.077,-195.229 512.077,-213.229"/>
<text text-anchor="middle" x="497.577" y="-202.029" font-family="Times,serif" font-size="9.00">&#45;12</text>
</g>
<!-- &#45;12&#45;&gt;1 -->
<g id="edge18" class="edge"><title>&#45;12&#45;&gt;1</title>
<path fill="none" stroke="green" stroke-width="0.292007" stroke-dasharray="1,5" d="M504.15,-195.07C508.61,-189.679 514.736,-182.546 520.577,-176.652 537.206,-159.871 557.553,-142.201 572.195,-129.933"/>
<polygon fill="green" stroke="green" stroke-width="0.292007" points="574.628,-132.462 580.086,-123.382 570.156,-127.076 574.628,-132.462"/>
</g>
<!-- &#45;13 -->
<g id="node13" class="node"><title>&#45;13</title>
<polygon fill="lightgray" stroke="black" points="1122.08,-213.229 1093.08,-213.229 1093.08,-195.229 1122.08,-195.229 1122.08,-213.229"/>
<text text-anchor="middle" x="1107.58" y="-202.029" font-family="Times,serif" font-size="9.00">&#45;13</text>
</g>
<!-- &#45;13&#45;&gt;0 -->
<g id="edge49" class="edge"><title>&#45;13&#45;&gt;0</title>
<path fill="none" stroke="green" stroke-width="1.56177" d="M1098.75,-195.026C1093.03,-189.741 1085.4,-182.745 1078.58,-176.652 1060.61,-160.612 1039.81,-142.597 1025.21,-130.03"/>
<polygon fill="green" stroke="green" stroke-width="1.56177" points="1027.26,-127.177 1017.39,-123.317 1022.69,-132.487 1027.26,-127.177"/>
</g>
<!-- &#45;14 -->
<g id="node14" class="node"><title>&#45;14</title>
<polygon fill="lightgray" stroke="black" points="1431.08,-285.806 1402.08,-285.806 1402.08,-267.806 1431.08,-267.806 1431.08,-285.806"/>
<text text-anchor="middle" x="1416.58" y="-274.606" font-family="Times,serif" font-size="9.00">&#45;14</text>
</g>
<!-- &#45;15 -->
<g id="node15" class="node"><title>&#45;15</title>
<polygon fill="lightgray" stroke="black" points="606.077,-213.229 577.077,-213.229 577.077,-195.229 606.077,-195.229 606.077,-213.229"/>
<text text-anchor="middle" x="591.577" y="-202.029" font-family="Times,serif" font-size="9.00">&#45;15</text>
</g>
<!-- &#45;15&#45;&gt;1 -->
<g id="edge19" class="edge"><title>&#45;15&#45;&gt;1</title>
<path fill="none" stroke="red" stroke-width="0.39275" stroke-dasharray="1,5" d="M591.577,-195.001C591.577,-182.245 591.577,-157.201 591.577,-138.334"/>
<polygon fill="red" stroke="red" stroke-width="0.39275" points="595.077,-138.079 591.577,-128.079 588.077,-138.079 595.077,-138.079"/>
</g>
<!-- &#45;16 -->
<g id="node16" class="node"><title>&#45;16</title>
<polygon fill="lightgray" stroke="black" points="1169.08,-213.229 1140.08,-213.229 1140.08,-195.229 1169.08,-195.229 1169.08,-213.229"/>
<text text-anchor="middle" x="1154.58" y="-202.029" font-family="Times,serif" font-size="9.00">&#45;16</text>
</g>
<!-- &#45;16&#45;&gt;0 -->
<g id="edge21" class="edge"><title>&#45;16&#45;&gt;0</title>
<path fill="none" stroke="green" stroke-width="0.225972" d="M1148.52,-195.056C1144.03,-189.385 1137.5,-181.932 1130.58,-176.652 1098.76,-152.373 1056.08,-133.273 1029.99,-122.841"/>
<polygon fill="green" stroke="green" stroke-width="0.225972" points="1031.14,-119.53 1020.55,-119.153 1028.59,-126.05 1031.14,-119.53"/>
</g>
<!-- &#45;17 -->
<g id="node17" class="node"><title>&#45;17</title>
<polygon fill="lightgray" stroke="black" points="828.077,-213.229 799.077,-213.229 799.077,-195.229 828.077,-195.229 828.077,-213.229"/>
<text text-anchor="middle" x="813.577" y="-202.029" font-family="Times,serif" font-size="9.00">&#45;17</text>
</g>
<!-- &#45;17&#45;&gt;0 -->
<g id="edge5" class="edge"><title>&#45;17&#45;&gt;0</title>
<path fill="none" stroke="green" stroke-width="0.166932" stroke-dasharray="1,5" d="M828.084,-196.528C861.541,-181.072 944.3,-142.843 984.268,-124.38"/>
<polygon fill="green" stroke="green" stroke-width="0.166932" points="985.841,-127.509 993.451,-120.138 982.905,-121.154 985.841,-127.509"/>
</g>
<!-- &#45;17&#45;&gt;1 -->
<g id="edge11" class="edge"><title>&#45;17&#45;&gt;1</title>
<path fill="none" stroke="green" stroke-width="0.121788" stroke-dasharray="1,5" d="M808.14,-195.198C803.761,-189.296 797.108,-181.492 789.577,-176.652 733.718,-140.753 655.745,-124.118 616.393,-117.61"/>
<polygon fill="green" stroke="green" stroke-width="0.121788" points="616.791,-114.13 606.369,-116.035 615.705,-121.045 616.791,-114.13"/>
</g>
<!-- &#45;18 -->
<g id="node18" class="node"><title>&#45;18</title>
<polygon fill="lightgray" stroke="black" points="975.077,-285.806 946.077,-285.806 946.077,-267.806 975.077,-267.806 975.077,-285.806"/>
<text text-anchor="middle" x="960.577" y="-274.606" font-family="Times,serif" font-size="9.00">&#45;18</text>
</g>
<!-- &#45;18&#45;&gt;0 -->
<g id="edge48" class="edge"><title>&#45;18&#45;&gt;0</title>
<path fill="none" stroke="green" stroke-width="0.608799" stroke-dasharray="1,5" d="M975.296,-272.55C994.259,-267.477 1026.46,-255.684 1040.58,-231.806 1059.2,-200.303 1037.45,-157.978 1021.17,-133.599"/>
<polygon fill="green" stroke="green" stroke-width="0.608799" points="1023.89,-131.385 1015.29,-125.195 1018.15,-135.396 1023.89,-131.385"/>
</g>
<!-- &#45;18&#45;&gt;2 -->
<g id="edge26" class="edge"><title>&#45;18&#45;&gt;2</title>
<path fill="none" stroke="green" stroke-width="0.362253" stroke-dasharray="1,5" d="M945.908,-275.602C858.519,-274.271 408.646,-265.799 358.577,-231.806 326.731,-210.185 312.068,-165.583 305.795,-137.91"/>
<polygon fill="green" stroke="green" stroke-width="0.362253" points="309.173,-136.962 303.72,-127.878 302.318,-138.38 309.173,-136.962"/>
</g>
<!-- &#45;18&#45;&gt;3 -->
<g id="edge37" class="edge"><title>&#45;18&#45;&gt;3</title>
<path fill="none" stroke="green" stroke-width="0.486879" d="M945.887,-272.542C926.471,-267.409 892.726,-255.496 875.577,-231.806 855.696,-204.341 853.476,-163.836 854.457,-138.214"/>
<polygon fill="green" stroke="green" stroke-width="0.486879" points="857.97,-138.094 855.056,-127.908 850.981,-137.688 857.97,-138.094"/>
</g>
<!-- 13746 -->
<g id="node31" class="node"><title>13746</title>
<ellipse fill="white" stroke="black" cx="1214.58" cy="-204.229" rx="27.6545" ry="27.6545"/>
<text text-anchor="middle" x="1214.58" y="-202.029" font-family="Times,serif" font-size="9.00">13746</text>
</g>
<!-- &#45;18&#45;&gt;13746 -->
<g id="edge17" class="edge"><title>&#45;18&#45;&gt;13746</title>
<path fill="none" stroke="green" stroke-width="0.613058" d="M975.167,-274.961C1011.05,-272.443 1105.88,-263.094 1177.58,-231.806 1180.07,-230.717 1182.57,-229.44 1185.02,-228.045"/>
<polygon fill="green" stroke="green" stroke-width="0.613058" points="1187.02,-230.915 1193.59,-222.604 1183.28,-225.004 1187.02,-230.915"/>
</g>
<!-- &#45;19 -->
<g id="node19" class="node"><title>&#45;19</title>
<polygon fill="lightgray" stroke="black" points="316.077,-285.806 287.077,-285.806 287.077,-267.806 316.077,-267.806 316.077,-285.806"/>
<text text-anchor="middle" x="301.577" y="-274.606" font-family="Times,serif" font-size="9.00">&#45;19</text>
</g>
<!-- &#45;19&#45;&gt;0 -->
<g id="edge39" class="edge"><title>&#45;19&#45;&gt;0</title>
<path fill="none" stroke="green" stroke-width="0.371529" stroke-dasharray="1,5" d="M316.093,-275.459C414.696,-273.036 983.006,-257.956 1007.58,-231.806 1031.3,-206.557 1023.17,-163.131 1014.97,-136.667"/>
<polygon fill="green" stroke="green" stroke-width="0.371529" points="1018.26,-135.482 1011.77,-127.108 1011.62,-137.701 1018.26,-135.482"/>
</g>
<!-- &#45;19&#45;&gt;2 -->
<g id="edge15" class="edge"><title>&#45;19&#45;&gt;2</title>
<path fill="none" stroke="green" stroke-width="0.343297" d="M301.577,-267.563C301.577,-243.996 301.577,-175.647 301.577,-138.614"/>
<polygon fill="green" stroke="green" stroke-width="0.343297" points="305.077,-138.21 301.577,-128.21 298.077,-138.21 305.077,-138.21"/>
</g>
<!-- &#45;19&#45;&gt;8687 -->
<g id="edge9" class="edge"><title>&#45;19&#45;&gt;8687</title>
<path fill="none" stroke="green" stroke-width="0.439829" d="M286.864,-274.861C244.847,-271.825 125.84,-260.774 102.577,-231.806 49.1419,-165.265 161.351,-80.156 217.333,-43.666"/>
<polygon fill="green" stroke="green" stroke-width="0.439829" points="219.271,-46.5808 225.801,-38.2373 215.494,-40.6878 219.271,-46.5808"/>
</g>
<!-- 13845 -->
<g id="node32" class="node"><title>13845</title>
<ellipse fill="white" stroke="black" cx="27.5772" cy="-113.075" rx="27.6545" ry="27.6545"/>
<text text-anchor="middle" x="27.5772" y="-110.875" font-family="Times,serif" font-size="9.00">13845</text>
</g>
<!-- &#45;19&#45;&gt;13845 -->
<g id="edge51" class="edge"><title>&#45;19&#45;&gt;13845</title>
<path fill="none" stroke="red" stroke-width="0.123439" d="M286.947,-274.902C241.329,-271.802 102.751,-260.192 69.5772,-231.806 45.9957,-211.628 35.654,-177.252 31.1189,-150.838"/>
<polygon fill="red" stroke="red" stroke-width="0.123439" points="34.5559,-150.158 29.6024,-140.793 27.6343,-151.203 34.5559,-150.158"/>
</g>
<!-- 13470 -->
<g id="node33" class="node"><title>13470</title>
<ellipse fill="white" stroke="black" cx="437.577" cy="-204.229" rx="27.6545" ry="27.6545"/>
<text text-anchor="middle" x="437.577" y="-202.029" font-family="Times,serif" font-size="9.00">13470</text>
</g>
<!-- &#45;19&#45;&gt;13470 -->
<g id="edge7" class="edge"><title>&#45;19&#45;&gt;13470</title>
<path fill="none" stroke="green" stroke-width="0.119767" d="M316.125,-270.425C335.835,-262.893 371.859,-248.271 400.577,-231.806 402.859,-230.498 405.172,-229.082 407.469,-227.607"/>
<polygon fill="green" stroke="green" stroke-width="0.119767" points="409.832,-230.235 416.158,-221.736 405.913,-224.435 409.832,-230.235"/>
</g>
<!-- &#45;20 -->
<g id="node20" class="node"><title>&#45;20</title>
<polygon fill="lightgray" stroke="black" points="273.077,-213.229 244.077,-213.229 244.077,-195.229 273.077,-195.229 273.077,-213.229"/>
<text text-anchor="middle" x="258.577" y="-202.029" font-family="Times,serif" font-size="9.00">&#45;20</text>
</g>
<!-- &#45;20&#45;&gt;2 -->
<g id="edge1" class="edge"><title>&#45;20&#45;&gt;2</title>
<path fill="none" stroke="red" stroke-width="0.318369" d="M262.545,-195.001C268.955,-181.713 281.795,-155.09 290.999,-136.006"/>
<polygon fill="red" stroke="red" stroke-width="0.318369" points="294.236,-137.352 295.428,-126.825 287.931,-134.311 294.236,-137.352"/>
</g>
<!-- &#45;21 -->
<g id="node21" class="node"><title>&#45;21</title>
<polygon fill="lightgray" stroke="black" points="696.077,-213.229 667.077,-213.229 667.077,-195.229 696.077,-195.229 696.077,-213.229"/>
<text text-anchor="middle" x="681.577" y="-202.029" font-family="Times,serif" font-size="9.00">&#45;21</text>
</g>
<!-- &#45;21&#45;&gt;0 -->
<g id="edge20" class="edge"><title>&#45;21&#45;&gt;0</title>
<path fill="none" stroke="green" stroke-width="3.57734" d="M686.877,-194.972C691.184,-188.951 697.806,-181.097 705.577,-176.652 774.504,-137.224 802.84,-156.846 880.577,-140.652 916.006,-133.271 957.009,-124.598 982.371,-119.218"/>
<polygon fill="green" stroke="green" stroke-width="3.57734" points="983.166,-122.627 992.221,-117.127 981.712,-115.78 983.166,-122.627"/>
</g>
<!-- &#45;21&#45;&gt;2 -->
<g id="edge43" class="edge"><title>&#45;21&#45;&gt;2</title>
<path fill="none" stroke="red" stroke-width="0.55862" stroke-dasharray="1,5" d="M676.314,-194.907C672.026,-188.852 665.411,-180.984 657.577,-176.652 599.977,-144.798 397.728,-123.129 326.57,-116.343"/>
<polygon fill="red" stroke="red" stroke-width="0.55862" points="326.601,-112.83 316.318,-115.382 325.948,-119.8 326.601,-112.83"/>
</g>
<!-- &#45;22 -->
<g id="node22" class="node"><title>&#45;22</title>
<polygon fill="lightgray" stroke="black" points="559.077,-213.229 530.077,-213.229 530.077,-195.229 559.077,-195.229 559.077,-213.229"/>
<text text-anchor="middle" x="544.577" y="-202.029" font-family="Times,serif" font-size="9.00">&#45;22</text>
</g>
<!-- &#45;22&#45;&gt;1 -->
<g id="edge23" class="edge"><title>&#45;22&#45;&gt;1</title>
<path fill="none" stroke="green" stroke-width="0.236356" stroke-dasharray="1,5" d="M548.915,-195.001C555.991,-181.578 570.24,-154.549 580.32,-135.428"/>
<polygon fill="green" stroke="green" stroke-width="0.236356" points="583.45,-136.996 585.017,-126.518 577.258,-133.732 583.45,-136.996"/>
</g>
<!-- &#45;22&#45;&gt;2 -->
<g id="edge40" class="edge"><title>&#45;22&#45;&gt;2</title>
<path fill="none" stroke="red" stroke-width="0.474333" stroke-dasharray="1,5" d="M539.178,-195.138C534.819,-189.204 528.175,-181.387 520.577,-176.652 457.445,-137.307 368.835,-121.995 326.285,-116.641"/>
<polygon fill="red" stroke="red" stroke-width="0.474333" points="326.609,-113.155 316.268,-115.46 325.789,-120.107 326.609,-113.155"/>
</g>
<!-- &#45;22&#45;&gt;3 -->
<g id="edge50" class="edge"><title>&#45;22&#45;&gt;3</title>
<path fill="none" stroke="green" stroke-width="0.292939" d="M549.592,-194.993C553.687,-188.983 560.02,-181.134 567.577,-176.652 654.556,-125.064 778.796,-115.816 831.453,-114.294"/>
<polygon fill="green" stroke="green" stroke-width="0.292939" points="831.642,-117.79 841.563,-114.073 831.489,-110.792 831.642,-117.79"/>
</g>
<!-- &#45;23 -->
<g id="node23" class="node"><title>&#45;23</title>
<polygon fill="lightgray" stroke="black" points="1341.08,-285.806 1312.08,-285.806 1312.08,-267.806 1341.08,-267.806 1341.08,-285.806"/>
<text text-anchor="middle" x="1326.58" y="-274.606" font-family="Times,serif" font-size="9.00">&#45;23</text>
</g>
<!-- 13184 -->
<g id="node29" class="node"><title>13184</title>
<ellipse fill="white" stroke="black" cx="1326.58" cy="-204.229" rx="27.6545" ry="27.6545"/>
<text text-anchor="middle" x="1326.58" y="-202.029" font-family="Times,serif" font-size="9.00">13184</text>
</g>
<!-- &#45;23&#45;&gt;13184 -->
<g id="edge2" class="edge"><title>&#45;23&#45;&gt;13184</title>
<path fill="none" stroke="green" stroke-width="0.203711" d="M1326.58,-267.71C1326.58,-261.261 1326.58,-251.736 1326.58,-242.057"/>
<polygon fill="green" stroke="green" stroke-width="0.203711" points="1330.08,-242.037 1326.58,-232.037 1323.08,-242.037 1330.08,-242.037"/>
</g>
<!-- &#45;24 -->
<g id="node24" class="node"><title>&#45;24</title>
<polygon fill="lightgray" stroke="black" points="1289.08,-285.806 1260.08,-285.806 1260.08,-267.806 1289.08,-267.806 1289.08,-285.806"/>
<text text-anchor="middle" x="1274.58" y="-274.606" font-family="Times,serif" font-size="9.00">&#45;24</text>
</g>
<!-- &#45;24&#45;&gt;0 -->
<g id="edge3" class="edge"><title>&#45;24&#45;&gt;0</title>
<path fill="none" stroke="green" stroke-width="0.338481" stroke-dasharray="1,5" d="M1275.29,-267.559C1276.43,-248.688 1276.41,-202.044 1251.58,-176.652 1220.71,-145.096 1087.16,-124.503 1031.29,-117.121"/>
<polygon fill="green" stroke="green" stroke-width="0.338481" points="1031.57,-113.628 1021.21,-115.821 1030.68,-120.571 1031.57,-113.628"/>
</g>
<!-- &#45;24&#45;&gt;13184 -->
<g id="edge44" class="edge"><title>&#45;24&#45;&gt;13184</title>
<path fill="none" stroke="green" stroke-width="0.326011" d="M1280.54,-267.71C1286.38,-259.785 1295.64,-247.218 1304.33,-235.425"/>
<polygon fill="green" stroke="green" stroke-width="0.326011" points="1307.38,-237.179 1310.5,-227.053 1301.75,-233.027 1307.38,-237.179"/>
</g>
<!-- 1&#45;&gt;1 -->
<g id="edge27" class="edge"><title>1&#45;&gt;1</title>
<path fill="none" stroke="green" stroke-width="0.114958" d="M600.658,-124.918C611.589,-133.866 624.426,-129.918 624.426,-113.075 624.426,-100.837 617.65,-95.4063 609.751,-96.7836"/>
<polygon fill="green" stroke="green" stroke-width="0.114958" points="608.103,-93.6935 600.658,-101.231 611.179,-99.9816 608.103,-93.6935"/>
</g>
<!-- 2&#45;&gt;2 -->
<g id="edge24" class="edge"><title>2&#45;&gt;2</title>
<path fill="none" stroke="red" stroke-width="0.140462" d="M310.658,-124.918C321.589,-133.866 334.426,-129.918 334.426,-113.075 334.426,-100.837 327.65,-95.4063 319.751,-96.7836"/>
<polygon fill="red" stroke="red" stroke-width="0.140462" points="318.103,-93.6935 310.658,-101.231 321.179,-99.9816 318.103,-93.6935"/>
</g>
<!-- 2&#45;&gt;8687 -->
<g id="edge10" class="edge"><title>2&#45;&gt;8687</title>
<path fill="none" stroke="red" stroke-width="0.544659" d="M293.93,-100.071C286.478,-88.3757 274.862,-70.1443 265.001,-54.6658"/>
<polygon fill="red" stroke="red" stroke-width="0.544659" points="267.767,-52.4937 259.442,-45.9406 261.863,-56.255 267.767,-52.4937"/>
</g>
<!-- 3&#45;&gt;8687 -->
<g id="edge13" class="edge"><title>3&#45;&gt;8687</title>
<path fill="none" stroke="red" stroke-width="0.122229" stroke-dasharray="1,5" d="M841.716,-110.272C762.948,-99.929 395.631,-48.0107 280.846,-31.0895"/>
<polygon fill="red" stroke="red" stroke-width="0.122229" points="281.256,-27.612 270.851,-29.6094 280.23,-34.5365 281.256,-27.612"/>
</g>
<!-- 13184&#45;&gt;0 -->
<g id="edge31" class="edge"><title>13184&#45;&gt;0</title>
<path fill="none" stroke="green" stroke-width="0.280572" d="M1304.68,-187.392C1298.42,-183.424 1291.43,-179.492 1284.58,-176.652 1195.56,-139.77 1081.08,-122.786 1031.4,-116.772"/>
<polygon fill="green" stroke="green" stroke-width="0.280572" points="1031.62,-113.274 1021.28,-115.592 1030.81,-120.227 1031.62,-113.274"/>
</g>
<!-- 8687&#45;&gt;3 -->
<g id="edge16" class="edge"><title>8687&#45;&gt;3</title>
<path fill="none" stroke="red" stroke-width="0.11983" d="M271.057,-28.8288C369.395,-41.9985 733.907,-93.5694 832.149,-108.191"/>
<polygon fill="red" stroke="red" stroke-width="0.11983" points="831.639,-111.654 842.047,-109.676 832.677,-104.731 831.639,-111.654"/>
</g>
<!-- 13746&#45;&gt;0 -->
<g id="edge32" class="edge"><title>13746&#45;&gt;0</title>
<path fill="none" stroke="green" stroke-width="0.180918" d="M1193.3,-186.459C1188.31,-182.949 1182.89,-179.464 1177.58,-176.652 1127.91,-150.361 1064.77,-130.409 1030.81,-120.67"/>
<polygon fill="green" stroke="green" stroke-width="0.180918" points="1031.44,-117.211 1020.87,-117.871 1029.55,-123.949 1031.44,-117.211"/>
</g>
<!-- 13845&#45;&gt;8687 -->
<g id="edge8" class="edge"><title>13845&#45;&gt;8687</title>
<path fill="none" stroke="green" stroke-width="0.261208" d="M50.1182,-96.4282C56.2633,-92.5504 63.0344,-88.6167 69.5772,-85.4975 117.406,-62.6954 176.275,-44.6631 212.614,-34.5991"/>
<polygon fill="green" stroke="green" stroke-width="0.261208" points="213.956,-37.861 222.684,-31.8548 212.116,-31.1073 213.956,-37.861"/>
</g>
<!-- 13470&#45;&gt;1 -->
<g id="edge30" class="edge"><title>13470&#45;&gt;1</title>
<path fill="none" stroke="green" stroke-width="0.347636" d="M458.915,-186.673C463.651,-183.227 468.712,-179.714 473.577,-176.652 505.832,-156.35 545.308,-136.323 569.438,-124.586"/>
<polygon fill="green" stroke="green" stroke-width="0.347636" points="570.991,-127.723 578.479,-120.228 567.951,-121.418 570.991,-127.723"/>
</g>
</g>
</svg>
