<?xml version="1.0" encoding="UTF-8" standalone="no"?>
<!DOCTYPE svg PUBLIC "-//W3C//DTD SVG 1.1//EN"
 "http://www.w3.org/Graphics/SVG/1.1/DTD/svg11.dtd">
<!-- Generated by graphviz version 2.38.0 (20140413.2041)
 -->
<!-- Title: %3 Pages: 1 -->
<svg width="159pt" height="164pt"
 viewBox="0.00 0.00 159.00 164.47" xmlns="http://www.w3.org/2000/svg" xmlns:xlink="http://www.w3.org/1999/xlink">
<g id="graph0" class="graph" transform="scale(1 1) rotate(0) translate(4 160.468)">
<title>%3</title>
<polygon fill="white" stroke="none" points="-4,4 -4,-160.468 155,-160.468 155,4 -4,4"/>
<!-- &#45;1 -->
<g id="node1" class="node"><title>&#45;1</title>
<polygon fill="lightgray" stroke="black" points="24,-93.0833 0,-93.0833 0,-75.0833 24,-75.0833 24,-93.0833"/>
<text text-anchor="middle" x="12" y="-81.8833" font-family="Times,serif" font-size="9.00">&#45;1</text>
</g>
<!-- 0 -->
<g id="node5" class="node"><title>0</title>
<ellipse fill="lightblue" stroke="black" cx="52" cy="-14.8492" rx="14.7" ry="14.7"/>
<text text-anchor="middle" x="52" y="-12.6492" font-family="Times,serif" font-size="9.00">0</text>
</g>
<!-- &#45;1&#45;&gt;0 -->
<g id="edge6" class="edge"><title>&#45;1&#45;&gt;0</title>
<path fill="none" stroke="green" stroke-width="0.278337" d="M16.9048,-74.8391C22.4781,-65.4711 31.7904,-49.8186 39.4223,-36.9904"/>
<polygon fill="green" stroke="green" stroke-width="0.278337" points="42.5001,-38.6626 44.6051,-28.279 36.4842,-35.0835 42.5001,-38.6626"/>
</g>
<!-- &#45;2 -->
<g id="node2" class="node"><title>&#45;2</title>
<polygon fill="lightgray" stroke="black" points="109,-156.468 85,-156.468 85,-138.468 109,-138.468 109,-156.468"/>
<text text-anchor="middle" x="97" y="-145.268" font-family="Times,serif" font-size="9.00">&#45;2</text>
</g>
<!-- 46 -->
<g id="node6" class="node"><title>46</title>
<ellipse fill="white" stroke="black" cx="98" cy="-84.0833" rx="18.2703" ry="18.2703"/>
<text text-anchor="middle" x="98" y="-81.8833" font-family="Times,serif" font-size="9.00">46</text>
</g>
<!-- &#45;2&#45;&gt;46 -->
<g id="edge5" class="edge"><title>&#45;2&#45;&gt;46</title>
<path fill="none" stroke="green" stroke-width="0.174486" d="M97.1307,-138.443C97.2377,-131.879 97.3955,-122.189 97.5475,-112.862"/>
<polygon fill="green" stroke="green" stroke-width="0.174486" points="101.05,-112.727 97.7135,-102.671 94.051,-112.613 101.05,-112.727"/>
</g>
<!-- &#45;3 -->
<g id="node3" class="node"><title>&#45;3</title>
<polygon fill="lightgray" stroke="black" points="151,-156.468 127,-156.468 127,-138.468 151,-138.468 151,-156.468"/>
<text text-anchor="middle" x="139" y="-145.268" font-family="Times,serif" font-size="9.00">&#45;3</text>
</g>
<!-- &#45;3&#45;&gt;46 -->
<g id="edge4" class="edge"><title>&#45;3&#45;&gt;46</title>
<path fill="none" stroke="red" stroke-width="0.403" d="M133.64,-138.443C128.553,-130.826 120.655,-119.001 113.585,-108.417"/>
<polygon fill="red" stroke="red" stroke-width="0.403" points="116.386,-106.31 107.922,-99.9379 110.565,-110.198 116.386,-106.31"/>
</g>
<!-- &#45;4 -->
<g id="node4" class="node"><title>&#45;4</title>
<polygon fill="lightgray" stroke="black" points="65,-156.468 41,-156.468 41,-138.468 65,-138.468 65,-156.468"/>
<text text-anchor="middle" x="53" y="-145.268" font-family="Times,serif" font-size="9.00">&#45;4</text>
</g>
<!-- &#45;4&#45;&gt;0 -->
<g id="edge3" class="edge"><title>&#45;4&#45;&gt;0</title>
<path fill="none" stroke="red" stroke-width="0.297372" d="M52.9374,-138.297C52.7897,-118.997 52.4144,-69.9712 52.1859,-40.1365"/>
<polygon fill="red" stroke="red" stroke-width="0.297372" points="55.6857,-40.0766 52.1091,-30.1037 48.6859,-40.1302 55.6857,-40.0766"/>
</g>
<!-- &#45;4&#45;&gt;46 -->
<g id="edge2" class="edge"><title>&#45;4&#45;&gt;46</title>
<path fill="none" stroke="green" stroke-width="0.142218" d="M58.883,-138.443C64.5977,-130.648 73.5438,-118.444 81.439,-107.674"/>
<polygon fill="green" stroke="green" stroke-width="0.142218" points="84.3741,-109.59 87.4637,-99.4559 78.7286,-105.452 84.3741,-109.59"/>
</g>
<!-- 46&#45;&gt;0 -->
<g id="edge1" class="edge"><title>46&#45;&gt;0</title>
<path fill="none" stroke="green" stroke-width="0.338942" d="M88.0187,-68.4945C81.5606,-59.0552 73.0605,-46.6315 65.9397,-36.2236"/>
<polygon fill="green" stroke="green" stroke-width="0.338942" points="68.6583,-33.9987 60.1229,-27.7218 62.881,-37.9514 68.6583,-33.9987"/>
</g>
</g>
</svg>
