<?xml version="1.0" encoding="UTF-8" standalone="no"?>
<!DOCTYPE svg PUBLIC "-//W3C//DTD SVG 1.1//EN"
 "http://www.w3.org/Graphics/SVG/1.1/DTD/svg11.dtd">
<!-- Generated by graphviz version 2.38.0 (20140413.2041)
 -->
<!-- Title: %3 Pages: 1 -->
<svg width="229pt" height="249pt"
 viewBox="0.00 0.00 229.00 248.55" xmlns="http://www.w3.org/2000/svg" xmlns:xlink="http://www.w3.org/1999/xlink">
<g id="graph0" class="graph" transform="scale(1 1) rotate(0) translate(4 244.551)">
<title>%3</title>
<polygon fill="white" stroke="none" points="-4,4 -4,-244.551 225,-244.551 225,4 -4,4"/>
<!-- &#45;1 -->
<g id="node1" class="node"><title>&#45;1</title>
<polygon fill="lightgray" stroke="black" points="24,-240.551 0,-240.551 0,-222.551 24,-222.551 24,-240.551"/>
<text text-anchor="middle" x="12" y="-229.351" font-family="Times,serif" font-size="9.00">&#45;1</text>
</g>
<!-- &#45;2 -->
<g id="node2" class="node"><title>&#45;2</title>
<polygon fill="lightgray" stroke="black" points="66,-240.551 42,-240.551 42,-222.551 66,-222.551 66,-240.551"/>
<text text-anchor="middle" x="54" y="-229.351" font-family="Times,serif" font-size="9.00">&#45;2</text>
</g>
<!-- 0 -->
<g id="node5" class="node"><title>0</title>
<ellipse fill="lightblue" stroke="black" cx="116" cy="-14.8492" rx="14.7" ry="14.7"/>
<text text-anchor="middle" x="116" y="-12.6492" font-family="Times,serif" font-size="9.00">0</text>
</g>
<!-- &#45;2&#45;&gt;0 -->
<g id="edge3" class="edge"><title>&#45;2&#45;&gt;0</title>
<path fill="none" stroke="green" stroke-width="0.214049" d="M52.169,-222.388C48.9922,-206.981 43.2344,-172.607 48,-144.125 54.0834,-107.766 57.0061,-97.8726 75,-65.6985 81.449,-54.1673 90.6548,-42.6836 98.7098,-33.6498"/>
<polygon fill="green" stroke="green" stroke-width="0.214049" points="101.459,-35.8322 105.672,-26.1111 96.316,-31.0831 101.459,-35.8322"/>
</g>
<!-- 331 -->
<g id="node6" class="node"><title>331</title>
<ellipse fill="white" stroke="black" cx="78" cy="-165.338" rx="21.4286" ry="21.4286"/>
<text text-anchor="middle" x="78" y="-163.138" font-family="Times,serif" font-size="9.00">331</text>
</g>
<!-- &#45;2&#45;&gt;331 -->
<g id="edge1" class="edge"><title>&#45;2&#45;&gt;331</title>
<path fill="none" stroke="green" stroke-width="0.366199" d="M57.0396,-222.419C59.6587,-215.411 63.6008,-204.864 67.362,-194.801"/>
<polygon fill="green" stroke="green" stroke-width="0.366199" points="70.6411,-196.024 70.8637,-185.432 64.0841,-193.573 70.6411,-196.024"/>
</g>
<!-- &#45;3 -->
<g id="node3" class="node"><title>&#45;3</title>
<polygon fill="lightgray" stroke="black" points="179,-95.9117 155,-95.9117 155,-77.9117 179,-77.9117 179,-95.9117"/>
<text text-anchor="middle" x="167" y="-84.7117" font-family="Times,serif" font-size="9.00">&#45;3</text>
</g>
<!-- &#45;3&#45;&gt;0 -->
<g id="edge7" class="edge"><title>&#45;3&#45;&gt;0</title>
<path fill="none" stroke="green" stroke-width="0.414197" d="M161.15,-77.8746C153.696,-67.6352 140.56,-49.5885 130.371,-35.5923"/>
<polygon fill="green" stroke="green" stroke-width="0.414197" points="133.201,-33.5322 124.486,-27.5071 127.542,-37.6518 133.201,-33.5322"/>
</g>
<!-- &#45;4 -->
<g id="node4" class="node"><title>&#45;4</title>
<polygon fill="lightgray" stroke="black" points="221,-95.9117 197,-95.9117 197,-77.9117 221,-77.9117 221,-95.9117"/>
<text text-anchor="middle" x="209" y="-84.7117" font-family="Times,serif" font-size="9.00">&#45;4</text>
</g>
<!-- &#45;4&#45;&gt;0 -->
<g id="edge4" class="edge"><title>&#45;4&#45;&gt;0</title>
<path fill="none" stroke="green" stroke-width="0.826224" d="M201.103,-77.7239C197.28,-73.9153 192.542,-69.4165 188,-65.6985 171.437,-52.1413 151.317,-38.4197 136.561,-28.8144"/>
<polygon fill="green" stroke="green" stroke-width="0.826224" points="138.45,-25.8682 128.146,-23.404 134.664,-31.7562 138.45,-25.8682"/>
</g>
<!-- 331&#45;&gt;0 -->
<g id="edge2" class="edge"><title>331&#45;&gt;0</title>
<path fill="none" stroke="green" stroke-width="0.571223" stroke-dasharray="1,5" d="M76.9709,-143.785C76.5722,-123.456 77.6316,-91.7032 86,-65.6985 89.4447,-54.9941 95.5669,-44.1726 101.386,-35.3601"/>
<polygon fill="green" stroke="green" stroke-width="0.571223" points="104.371,-37.1987 107.216,-26.993 98.6278,-33.1969 104.371,-37.1987"/>
</g>
<!-- 371 -->
<g id="node7" class="node"><title>371</title>
<ellipse fill="white" stroke="black" cx="116" cy="-86.9117" rx="21.4286" ry="21.4286"/>
<text text-anchor="middle" x="116" y="-84.7117" font-family="Times,serif" font-size="9.00">371</text>
</g>
<!-- 331&#45;&gt;371 -->
<g id="edge6" class="edge"><title>331&#45;&gt;371</title>
<path fill="none" stroke="green" stroke-width="0.3" d="M87.1987,-145.837C91.7263,-136.731 97.2764,-125.569 102.292,-115.482"/>
<polygon fill="green" stroke="green" stroke-width="0.3" points="105.568,-116.755 106.886,-106.242 99.2998,-113.638 105.568,-116.755"/>
</g>
<!-- 371&#45;&gt;0 -->
<g id="edge5" class="edge"><title>371&#45;&gt;0</title>
<path fill="none" stroke="green" stroke-width="0.426567" d="M116,-65.6467C116,-57.6662 116,-48.4341 116,-40.1031"/>
<polygon fill="green" stroke="green" stroke-width="0.426567" points="119.5,-39.8511 116,-29.8512 112.5,-39.8512 119.5,-39.8511"/>
</g>
</g>
</svg>
