<?xml version="1.0" encoding="UTF-8" standalone="no"?>
<!DOCTYPE svg PUBLIC "-//W3C//DTD SVG 1.1//EN"
 "http://www.w3.org/Graphics/SVG/1.1/DTD/svg11.dtd">
<!-- Generated by graphviz version 2.38.0 (20140413.2041)
 -->
<!-- Title: %3 Pages: 1 -->
<svg width="136pt" height="183pt"
 viewBox="0.00 0.00 136.21 182.85" xmlns="http://www.w3.org/2000/svg" xmlns:xlink="http://www.w3.org/1999/xlink">
<g id="graph0" class="graph" transform="scale(1 1) rotate(0) translate(4 178.853)">
<title>%3</title>
<polygon fill="white" stroke="none" points="-4,4 -4,-178.853 132.213,-178.853 132.213,4 -4,4"/>
<!-- &#45;1 -->
<g id="node1" class="node"><title>&#45;1</title>
<polygon fill="lightgray" stroke="black" points="76,-174.853 52,-174.853 52,-156.853 76,-156.853 76,-174.853"/>
<text text-anchor="middle" x="64" y="-163.653" font-family="Times,serif" font-size="9.00">&#45;1</text>
</g>
<!-- &#45;2 -->
<g id="node2" class="node"><title>&#45;2</title>
<polygon fill="lightgray" stroke="black" points="118,-174.853 94,-174.853 94,-156.853 118,-156.853 118,-174.853"/>
<text text-anchor="middle" x="106" y="-163.653" font-family="Times,serif" font-size="9.00">&#45;2</text>
</g>
<!-- 331 -->
<g id="node7" class="node"><title>331</title>
<ellipse fill="white" stroke="black" cx="106" cy="-99.6396" rx="21.4286" ry="21.4286"/>
<text text-anchor="middle" x="106" y="-97.4396" font-family="Times,serif" font-size="9.00">331</text>
</g>
<!-- &#45;2&#45;&gt;331 -->
<g id="edge1" class="edge"><title>&#45;2&#45;&gt;331</title>
<path fill="none" stroke="green" stroke-width="0.365386" d="M106,-156.72C106,-150.177 106,-140.548 106,-131.109"/>
<polygon fill="green" stroke="green" stroke-width="0.365386" points="109.5,-131.095 106,-121.095 102.5,-131.095 109.5,-131.095"/>
</g>
<!-- &#45;3 -->
<g id="node3" class="node"><title>&#45;3</title>
<polygon fill="lightgray" stroke="black" points="24,-108.64 0,-108.64 0,-90.6396 24,-90.6396 24,-108.64"/>
<text text-anchor="middle" x="12" y="-97.4396" font-family="Times,serif" font-size="9.00">&#45;3</text>
</g>
<!-- 0 -->
<g id="node5" class="node"><title>0</title>
<ellipse fill="lightblue" stroke="black" cx="53" cy="-21.2132" rx="14.7" ry="14.7"/>
<text text-anchor="middle" x="53" y="-19.0132" font-family="Times,serif" font-size="9.00">0</text>
</g>
<!-- &#45;3&#45;&gt;0 -->
<g id="edge5" class="edge"><title>&#45;3&#45;&gt;0</title>
<path fill="none" stroke="green" stroke-width="0.692246" d="M16.3877,-90.4606C22.3411,-79.3632 33.192,-59.1365 41.541,-43.5735"/>
<polygon fill="green" stroke="green" stroke-width="0.692246" points="44.7068,-45.0759 46.35,-34.6093 38.5383,-41.7667 44.7068,-45.0759"/>
</g>
<!-- &#45;4 -->
<g id="node4" class="node"><title>&#45;4</title>
<polygon fill="lightgray" stroke="black" points="66,-108.64 42,-108.64 42,-90.6396 66,-90.6396 66,-108.64"/>
<text text-anchor="middle" x="54" y="-97.4396" font-family="Times,serif" font-size="9.00">&#45;4</text>
</g>
<!-- &#45;4&#45;&gt;0 -->
<g id="edge3" class="edge"><title>&#45;4&#45;&gt;0</title>
<path fill="none" stroke="green" stroke-width="0.425132" d="M53.893,-90.4606C53.7568,-80.0491 53.5154,-61.602 53.3179,-46.5094"/>
<polygon fill="green" stroke="green" stroke-width="0.425132" points="56.8146,-46.2288 53.184,-36.2755 49.8152,-46.3205 56.8146,-46.2288"/>
</g>
<!-- 371 -->
<g id="node6" class="node"><title>371</title>
<ellipse fill="white" stroke="black" cx="107" cy="-21.2132" rx="21.4286" ry="21.4286"/>
<text text-anchor="middle" x="107" y="-19.0132" font-family="Times,serif" font-size="9.00">371</text>
</g>
<!-- 331&#45;&gt;0 -->
<g id="edge2" class="edge"><title>331&#45;&gt;0</title>
<path fill="none" stroke="green" stroke-width="0.574436" d="M94.2376,-81.6781C86.1884,-70.0711 75.4794,-54.6286 66.9918,-42.3895"/>
<polygon fill="green" stroke="green" stroke-width="0.574436" points="69.8487,-40.3672 61.274,-34.1443 64.0965,-44.3563 69.8487,-40.3672"/>
</g>
<!-- 331&#45;&gt;371 -->
<g id="edge4" class="edge"><title>331&#45;&gt;371</title>
<path fill="none" stroke="red" stroke-width="0.13316" d="M106.268,-78.1587C106.371,-70.3001 106.49,-61.1558 106.603,-52.5655"/>
<polygon fill="red" stroke="red" stroke-width="0.13316" points="110.104,-52.5306 106.735,-42.4856 103.104,-52.4389 110.104,-52.5306"/>
</g>
</g>
</svg>
