<?xml version="1.0" encoding="UTF-8" standalone="no"?>
<!DOCTYPE svg PUBLIC "-//W3C//DTD SVG 1.1//EN"
 "http://www.w3.org/Graphics/SVG/1.1/DTD/svg11.dtd">
<!-- Generated by graphviz version 2.38.0 (20140413.2041)
 -->
<!-- Title: %3 Pages: 1 -->
<svg width="191pt" height="170pt"
 viewBox="0.00 0.00 191.00 170.12" xmlns="http://www.w3.org/2000/svg" xmlns:xlink="http://www.w3.org/1999/xlink">
<g id="graph0" class="graph" transform="scale(1 1) rotate(0) translate(4 166.125)">
<title>%3</title>
<polygon fill="white" stroke="none" points="-4,4 -4,-166.125 187,-166.125 187,4 -4,4"/>
<!-- &#45;1 -->
<g id="node1" class="node"><title>&#45;1</title>
<polygon fill="lightgray" stroke="black" points="24,-162.125 0,-162.125 0,-144.125 24,-144.125 24,-162.125"/>
<text text-anchor="middle" x="12" y="-150.925" font-family="Times,serif" font-size="9.00">&#45;1</text>
</g>
<!-- &#45;2 -->
<g id="node2" class="node"><title>&#45;2</title>
<polygon fill="lightgray" stroke="black" points="66,-162.125 42,-162.125 42,-144.125 66,-144.125 66,-162.125"/>
<text text-anchor="middle" x="54" y="-150.925" font-family="Times,serif" font-size="9.00">&#45;2</text>
</g>
<!-- 0 -->
<g id="node5" class="node"><title>0</title>
<ellipse fill="lightblue" stroke="black" cx="103" cy="-14.8492" rx="14.7" ry="14.7"/>
<text text-anchor="middle" x="103" y="-12.6492" font-family="Times,serif" font-size="9.00">0</text>
</g>
<!-- &#45;2&#45;&gt;0 -->
<g id="edge3" class="edge"><title>&#45;2&#45;&gt;0</title>
<path fill="none" stroke="green" stroke-width="0.116199" d="M51.034,-144.066C45.7182,-128.252 36.1755,-92.3742 48,-65.6985 54.8918,-50.1507 69.294,-37.3857 81.6319,-28.6661"/>
<polygon fill="green" stroke="green" stroke-width="0.116199" points="83.7083,-31.489 90.114,-23.0499 79.8438,-25.6524 83.7083,-31.489"/>
</g>
<!-- 331 -->
<g id="node6" class="node"><title>331</title>
<ellipse fill="white" stroke="black" cx="78" cy="-86.9117" rx="21.4286" ry="21.4286"/>
<text text-anchor="middle" x="78" y="-84.7117" font-family="Times,serif" font-size="9.00">331</text>
</g>
<!-- &#45;2&#45;&gt;331 -->
<g id="edge1" class="edge"><title>&#45;2&#45;&gt;331</title>
<path fill="none" stroke="green" stroke-width="0.586752" d="M57.0396,-143.992C59.6587,-136.985 63.6008,-126.438 67.362,-116.374"/>
<polygon fill="green" stroke="green" stroke-width="0.586752" points="70.6411,-117.598 70.8637,-107.005 64.0841,-115.147 70.6411,-117.598"/>
</g>
<!-- &#45;3 -->
<g id="node3" class="node"><title>&#45;3</title>
<polygon fill="lightgray" stroke="black" points="141,-95.9117 117,-95.9117 117,-77.9117 141,-77.9117 141,-95.9117"/>
<text text-anchor="middle" x="129" y="-84.7117" font-family="Times,serif" font-size="9.00">&#45;3</text>
</g>
<!-- &#45;3&#45;&gt;0 -->
<g id="edge5" class="edge"><title>&#45;3&#45;&gt;0</title>
<path fill="none" stroke="green" stroke-width="0.487951" d="M126.017,-77.8746C122.489,-68.3653 116.461,-52.1224 111.459,-38.6437"/>
<polygon fill="green" stroke="green" stroke-width="0.487951" points="114.653,-37.1901 107.892,-29.0326 108.09,-39.6256 114.653,-37.1901"/>
</g>
<!-- &#45;4 -->
<g id="node4" class="node"><title>&#45;4</title>
<polygon fill="lightgray" stroke="black" points="183,-95.9117 159,-95.9117 159,-77.9117 183,-77.9117 183,-95.9117"/>
<text text-anchor="middle" x="171" y="-84.7117" font-family="Times,serif" font-size="9.00">&#45;4</text>
</g>
<!-- &#45;4&#45;&gt;0 -->
<g id="edge4" class="edge"><title>&#45;4&#45;&gt;0</title>
<path fill="none" stroke="green" stroke-width="0.611769" d="M163.2,-77.8746C152.721,-67.0781 133.818,-47.6015 119.981,-33.3456"/>
<polygon fill="green" stroke="green" stroke-width="0.611769" points="122.378,-30.7893 112.901,-26.051 117.355,-35.6645 122.378,-30.7893"/>
</g>
<!-- 331&#45;&gt;0 -->
<g id="edge2" class="edge"><title>331&#45;&gt;0</title>
<path fill="none" stroke="green" stroke-width="0.409267" d="M84.8314,-66.7668C87.9405,-58.0533 91.6434,-47.6762 94.8925,-38.5704"/>
<polygon fill="green" stroke="green" stroke-width="0.409267" points="98.248,-39.581 98.3124,-28.9863 91.6552,-37.2284 98.248,-39.581"/>
</g>
</g>
</svg>
