<?xml version="1.0" encoding="UTF-8" standalone="no"?>
<!DOCTYPE svg PUBLIC "-//W3C//DTD SVG 1.1//EN"
 "http://www.w3.org/Graphics/SVG/1.1/DTD/svg11.dtd">
<!-- Generated by graphviz version 2.38.0 (20140413.2041)
 -->
<!-- Title: %3 Pages: 1 -->
<svg width="172pt" height="170pt"
 viewBox="0.00 0.00 172.21 170.12" xmlns="http://www.w3.org/2000/svg" xmlns:xlink="http://www.w3.org/1999/xlink">
<g id="graph0" class="graph" transform="scale(1 1) rotate(0) translate(4 166.125)">
<title>%3</title>
<polygon fill="white" stroke="none" points="-4,4 -4,-166.125 168.213,-166.125 168.213,4 -4,4"/>
<!-- &#45;1 -->
<g id="node1" class="node"><title>&#45;1</title>
<polygon fill="lightgray" stroke="black" points="33.2132,-162.125 9.2132,-162.125 9.2132,-144.125 33.2132,-144.125 33.2132,-162.125"/>
<text text-anchor="middle" x="21.2132" y="-150.925" font-family="Times,serif" font-size="9.00">&#45;1</text>
</g>
<!-- 331 -->
<g id="node6" class="node"><title>331</title>
<ellipse fill="white" stroke="black" cx="21.2132" cy="-86.9117" rx="21.4286" ry="21.4286"/>
<text text-anchor="middle" x="21.2132" y="-84.7117" font-family="Times,serif" font-size="9.00">331</text>
</g>
<!-- &#45;1&#45;&gt;331 -->
<g id="edge5" class="edge"><title>&#45;1&#45;&gt;331</title>
<path fill="none" stroke="green" stroke-width="0.392729" d="M21.2132,-143.992C21.2132,-137.449 21.2132,-127.82 21.2132,-118.381"/>
<polygon fill="green" stroke="green" stroke-width="0.392729" points="24.7133,-118.367 21.2132,-108.367 17.7133,-118.367 24.7133,-118.367"/>
</g>
<!-- &#45;2 -->
<g id="node2" class="node"><title>&#45;2</title>
<polygon fill="lightgray" stroke="black" points="78.2132,-162.125 54.2132,-162.125 54.2132,-144.125 78.2132,-144.125 78.2132,-162.125"/>
<text text-anchor="middle" x="66.2132" y="-150.925" font-family="Times,serif" font-size="9.00">&#45;2</text>
</g>
<!-- 0 -->
<g id="node5" class="node"><title>0</title>
<ellipse fill="lightblue" stroke="black" cx="90.2132" cy="-14.8492" rx="14.7" ry="14.7"/>
<text text-anchor="middle" x="90.2132" y="-12.6492" font-family="Times,serif" font-size="9.00">0</text>
</g>
<!-- &#45;2&#45;&gt;0 -->
<g id="edge3" class="edge"><title>&#45;2&#45;&gt;0</title>
<path fill="none" stroke="green" stroke-width="0.348347" d="M67.6426,-144.008C71.1993,-123.813 80.5545,-70.6929 86.0398,-39.5464"/>
<polygon fill="green" stroke="green" stroke-width="0.348347" points="89.5152,-39.9914 87.8028,-29.5359 82.6213,-38.7772 89.5152,-39.9914"/>
</g>
<!-- &#45;2&#45;&gt;331 -->
<g id="edge1" class="edge"><title>&#45;2&#45;&gt;331</title>
<path fill="none" stroke="green" stroke-width="0.470812" d="M60.5139,-143.992C55.0648,-136.217 46.5612,-124.082 38.8557,-113.087"/>
<polygon fill="green" stroke="green" stroke-width="0.470812" points="41.526,-110.799 32.9208,-104.618 35.7935,-114.816 41.526,-110.799"/>
</g>
<!-- &#45;3 -->
<g id="node3" class="node"><title>&#45;3</title>
<polygon fill="lightgray" stroke="black" points="122.213,-95.9117 98.2132,-95.9117 98.2132,-77.9117 122.213,-77.9117 122.213,-95.9117"/>
<text text-anchor="middle" x="110.213" y="-84.7117" font-family="Times,serif" font-size="9.00">&#45;3</text>
</g>
<!-- &#45;3&#45;&gt;0 -->
<g id="edge6" class="edge"><title>&#45;3&#45;&gt;0</title>
<path fill="none" stroke="green" stroke-width="0.585288" d="M107.919,-77.8746C105.247,-68.5153 100.713,-52.633 96.9027,-39.2834"/>
<polygon fill="green" stroke="green" stroke-width="0.585288" points="100.161,-37.9483 94.0509,-29.2932 93.4304,-39.8699 100.161,-37.9483"/>
</g>
<!-- &#45;4 -->
<g id="node4" class="node"><title>&#45;4</title>
<polygon fill="lightgray" stroke="black" points="164.213,-95.9117 140.213,-95.9117 140.213,-77.9117 164.213,-77.9117 164.213,-95.9117"/>
<text text-anchor="middle" x="152.213" y="-84.7117" font-family="Times,serif" font-size="9.00">&#45;4</text>
</g>
<!-- &#45;4&#45;&gt;0 -->
<g id="edge4" class="edge"><title>&#45;4&#45;&gt;0</title>
<path fill="none" stroke="green" stroke-width="0.874888" d="M145.101,-77.8746C135.742,-67.2982 119.011,-48.3922 106.474,-34.2241"/>
<polygon fill="green" stroke="green" stroke-width="0.874888" points="108.912,-31.6977 99.6634,-26.5283 103.669,-36.3366 108.912,-31.6977"/>
</g>
<!-- 331&#45;&gt;0 -->
<g id="edge2" class="edge"><title>331&#45;&gt;0</title>
<path fill="none" stroke="green" stroke-width="0.19861" d="M35.8463,-71.0532C46.646,-60.0873 61.3856,-45.1207 72.7932,-33.5374"/>
<polygon fill="green" stroke="green" stroke-width="0.19861" points="75.5459,-35.7304 80.0691,-26.1496 70.5585,-30.8186 75.5459,-35.7304"/>
</g>
</g>
</svg>
