<?xml version="1.0" encoding="UTF-8" standalone="no"?>
<!DOCTYPE svg PUBLIC "-//W3C//DTD SVG 1.1//EN"
 "http://www.w3.org/Graphics/SVG/1.1/DTD/svg11.dtd">
<!-- Generated by graphviz version 2.38.0 (20140413.2041)
 -->
<!-- Title: %3 Pages: 1 -->
<svg width="146pt" height="170pt"
 viewBox="0.00 0.00 146.00 170.12" xmlns="http://www.w3.org/2000/svg" xmlns:xlink="http://www.w3.org/1999/xlink">
<g id="graph0" class="graph" transform="scale(1 1) rotate(0) translate(4 166.125)">
<title>%3</title>
<polygon fill="white" stroke="none" points="-4,4 -4,-166.125 142,-166.125 142,4 -4,4"/>
<!-- &#45;1 -->
<g id="node1" class="node"><title>&#45;1</title>
<polygon fill="lightgray" stroke="black" points="24,-162.125 0,-162.125 0,-144.125 24,-144.125 24,-162.125"/>
<text text-anchor="middle" x="12" y="-150.925" font-family="Times,serif" font-size="9.00">&#45;1</text>
</g>
<!-- 331 -->
<g id="node6" class="node"><title>331</title>
<ellipse fill="white" stroke="black" cx="33" cy="-86.9117" rx="21.4286" ry="21.4286"/>
<text text-anchor="middle" x="33" y="-84.7117" font-family="Times,serif" font-size="9.00">331</text>
</g>
<!-- &#45;1&#45;&gt;331 -->
<g id="edge4" class="edge"><title>&#45;1&#45;&gt;331</title>
<path fill="none" stroke="green" stroke-width="0.181483" d="M14.6597,-143.992C16.9112,-137.108 20.2801,-126.806 23.5185,-116.904"/>
<polygon fill="green" stroke="green" stroke-width="0.181483" points="26.8855,-117.868 26.6673,-107.276 20.2322,-115.692 26.8855,-117.868"/>
</g>
<!-- &#45;2 -->
<g id="node2" class="node"><title>&#45;2</title>
<polygon fill="lightgray" stroke="black" points="66,-162.125 42,-162.125 42,-144.125 66,-144.125 66,-162.125"/>
<text text-anchor="middle" x="54" y="-150.925" font-family="Times,serif" font-size="9.00">&#45;2</text>
</g>
<!-- &#45;2&#45;&gt;331 -->
<g id="edge1" class="edge"><title>&#45;2&#45;&gt;331</title>
<path fill="none" stroke="green" stroke-width="0.562695" d="M51.3403,-143.992C49.0888,-137.108 45.7199,-126.806 42.4815,-116.904"/>
<polygon fill="green" stroke="green" stroke-width="0.562695" points="45.7678,-115.692 39.3327,-107.276 39.1145,-117.868 45.7678,-115.692"/>
</g>
<!-- &#45;3 -->
<g id="node3" class="node"><title>&#45;3</title>
<polygon fill="lightgray" stroke="black" points="96,-95.9117 72,-95.9117 72,-77.9117 96,-77.9117 96,-95.9117"/>
<text text-anchor="middle" x="84" y="-84.7117" font-family="Times,serif" font-size="9.00">&#45;3</text>
</g>
<!-- 0 -->
<g id="node5" class="node"><title>0</title>
<ellipse fill="lightblue" stroke="black" cx="84" cy="-14.8492" rx="14.7" ry="14.7"/>
<text text-anchor="middle" x="84" y="-12.6492" font-family="Times,serif" font-size="9.00">0</text>
</g>
<!-- &#45;3&#45;&gt;0 -->
<g id="edge5" class="edge"><title>&#45;3&#45;&gt;0</title>
<path fill="none" stroke="green" stroke-width="0.778242" d="M84,-77.8746C84,-68.7202 84,-53.3256 84,-40.1641"/>
<polygon fill="green" stroke="green" stroke-width="0.778242" points="87.5001,-39.8196 84,-29.8197 80.5001,-39.8197 87.5001,-39.8196"/>
</g>
<!-- &#45;4 -->
<g id="node4" class="node"><title>&#45;4</title>
<polygon fill="lightgray" stroke="black" points="138,-95.9117 114,-95.9117 114,-77.9117 138,-77.9117 138,-95.9117"/>
<text text-anchor="middle" x="126" y="-84.7117" font-family="Times,serif" font-size="9.00">&#45;4</text>
</g>
<!-- &#45;4&#45;&gt;0 -->
<g id="edge3" class="edge"><title>&#45;4&#45;&gt;0</title>
<path fill="none" stroke="green" stroke-width="0.833876" d="M121.182,-77.8746C115.23,-67.9452 104.876,-50.6741 96.6038,-36.8744"/>
<polygon fill="green" stroke="green" stroke-width="0.833876" points="99.4324,-34.7856 91.2889,-28.0082 93.4286,-38.3847 99.4324,-34.7856"/>
</g>
<!-- 331&#45;&gt;0 -->
<g id="edge2" class="edge"><title>331&#45;&gt;0</title>
<path fill="none" stroke="green" stroke-width="0.701004" d="M45.0863,-69.3079C52.4502,-59.1915 61.9006,-46.2088 69.6441,-35.571"/>
<polygon fill="green" stroke="green" stroke-width="0.701004" points="72.6085,-37.4457 75.664,-27.301 66.9491,-33.3261 72.6085,-37.4457"/>
</g>
</g>
</svg>
