<?xml version="1.0" encoding="utf-8" standalone="no"?>
<!DOCTYPE svg PUBLIC "-//W3C//DTD SVG 1.1//EN"
  "http://www.w3.org/Graphics/SVG/1.1/DTD/svg11.dtd">
<!-- Created with matplotlib (http://matplotlib.org/) -->
<svg height="345.6pt" version="1.1" viewBox="0 0 460.8 345.6" width="460.8pt" xmlns="http://www.w3.org/2000/svg" xmlns:xlink="http://www.w3.org/1999/xlink">
 <defs>
  <style type="text/css">
*{stroke-linecap:butt;stroke-linejoin:round;}
  </style>
 </defs>
 <g id="figure_1">
  <g id="patch_1">
   <path d="M 0 345.6 
L 460.8 345.6 
L 460.8 0 
L 0 0 
z
" style="fill:#ffffff;"/>
  </g>
  <g id="axes_1">
   <g id="patch_2">
    <path d="M 57.6 307.584 
L 414.72 307.584 
L 414.72 41.472 
L 57.6 41.472 
z
" style="fill:#ffffff;"/>
   </g>
   <g id="matplotlib.axis_1">
    <g id="xtick_1">
     <g id="line2d_1">
      <path clip-path="url(#pb72240862f)" d="M 73.832727 307.584 
L 73.832727 41.472 
" style="fill:none;stroke:#b0b0b0;stroke-linecap:square;stroke-width:0.8;"/>
     </g>
     <g id="line2d_2">
      <defs>
       <path d="M 0 0 
L 0 3.5 
" id="meeba89c3b0" style="stroke:#000000;stroke-width:0.8;"/>
      </defs>
      <g>
       <use style="stroke:#000000;stroke-width:0.8;" x="73.832727" xlink:href="#meeba89c3b0" y="307.584"/>
      </g>
     </g>
     <g id="text_1">
      <!-- 0 -->
      <defs>
       <path d="M 31.78125 66.40625 
Q 24.171875 66.40625 20.328125 58.90625 
Q 16.5 51.421875 16.5 36.375 
Q 16.5 21.390625 20.328125 13.890625 
Q 24.171875 6.390625 31.78125 6.390625 
Q 39.453125 6.390625 43.28125 13.890625 
Q 47.125 21.390625 47.125 36.375 
Q 47.125 51.421875 43.28125 58.90625 
Q 39.453125 66.40625 31.78125 66.40625 
z
M 31.78125 74.21875 
Q 44.046875 74.21875 50.515625 64.515625 
Q 56.984375 54.828125 56.984375 36.375 
Q 56.984375 17.96875 50.515625 8.265625 
Q 44.046875 -1.421875 31.78125 -1.421875 
Q 19.53125 -1.421875 13.0625 8.265625 
Q 6.59375 17.96875 6.59375 36.375 
Q 6.59375 54.828125 13.0625 64.515625 
Q 19.53125 74.21875 31.78125 74.21875 
z
" id="DejaVuSans-30"/>
      </defs>
      <g transform="translate(70.651477 322.182437)scale(0.1 -0.1)">
       <use xlink:href="#DejaVuSans-30"/>
      </g>
     </g>
    </g>
    <g id="xtick_2">
     <g id="line2d_3">
      <path clip-path="url(#pb72240862f)" d="M 128.122785 307.584 
L 128.122785 41.472 
" style="fill:none;stroke:#b0b0b0;stroke-linecap:square;stroke-width:0.8;"/>
     </g>
     <g id="line2d_4">
      <g>
       <use style="stroke:#000000;stroke-width:0.8;" x="128.122785" xlink:href="#meeba89c3b0" y="307.584"/>
      </g>
     </g>
     <g id="text_2">
      <!-- 50 -->
      <defs>
       <path d="M 10.796875 72.90625 
L 49.515625 72.90625 
L 49.515625 64.59375 
L 19.828125 64.59375 
L 19.828125 46.734375 
Q 21.96875 47.46875 24.109375 47.828125 
Q 26.265625 48.1875 28.421875 48.1875 
Q 40.625 48.1875 47.75 41.5 
Q 54.890625 34.8125 54.890625 23.390625 
Q 54.890625 11.625 47.5625 5.09375 
Q 40.234375 -1.421875 26.90625 -1.421875 
Q 22.3125 -1.421875 17.546875 -0.640625 
Q 12.796875 0.140625 7.71875 1.703125 
L 7.71875 11.625 
Q 12.109375 9.234375 16.796875 8.0625 
Q 21.484375 6.890625 26.703125 6.890625 
Q 35.15625 6.890625 40.078125 11.328125 
Q 45.015625 15.765625 45.015625 23.390625 
Q 45.015625 31 40.078125 35.4375 
Q 35.15625 39.890625 26.703125 39.890625 
Q 22.75 39.890625 18.8125 39.015625 
Q 14.890625 38.140625 10.796875 36.28125 
z
" id="DejaVuSans-35"/>
      </defs>
      <g transform="translate(121.760285 322.182437)scale(0.1 -0.1)">
       <use xlink:href="#DejaVuSans-35"/>
       <use x="63.623047" xlink:href="#DejaVuSans-30"/>
      </g>
     </g>
    </g>
    <g id="xtick_3">
     <g id="line2d_5">
      <path clip-path="url(#pb72240862f)" d="M 182.412843 307.584 
L 182.412843 41.472 
" style="fill:none;stroke:#b0b0b0;stroke-linecap:square;stroke-width:0.8;"/>
     </g>
     <g id="line2d_6">
      <g>
       <use style="stroke:#000000;stroke-width:0.8;" x="182.412843" xlink:href="#meeba89c3b0" y="307.584"/>
      </g>
     </g>
     <g id="text_3">
      <!-- 100 -->
      <defs>
       <path d="M 12.40625 8.296875 
L 28.515625 8.296875 
L 28.515625 63.921875 
L 10.984375 60.40625 
L 10.984375 69.390625 
L 28.421875 72.90625 
L 38.28125 72.90625 
L 38.28125 8.296875 
L 54.390625 8.296875 
L 54.390625 0 
L 12.40625 0 
z
" id="DejaVuSans-31"/>
      </defs>
      <g transform="translate(172.869093 322.182437)scale(0.1 -0.1)">
       <use xlink:href="#DejaVuSans-31"/>
       <use x="63.623047" xlink:href="#DejaVuSans-30"/>
       <use x="127.246094" xlink:href="#DejaVuSans-30"/>
      </g>
     </g>
    </g>
    <g id="xtick_4">
     <g id="line2d_7">
      <path clip-path="url(#pb72240862f)" d="M 236.702901 307.584 
L 236.702901 41.472 
" style="fill:none;stroke:#b0b0b0;stroke-linecap:square;stroke-width:0.8;"/>
     </g>
     <g id="line2d_8">
      <g>
       <use style="stroke:#000000;stroke-width:0.8;" x="236.702901" xlink:href="#meeba89c3b0" y="307.584"/>
      </g>
     </g>
     <g id="text_4">
      <!-- 150 -->
      <g transform="translate(227.159151 322.182437)scale(0.1 -0.1)">
       <use xlink:href="#DejaVuSans-31"/>
       <use x="63.623047" xlink:href="#DejaVuSans-35"/>
       <use x="127.246094" xlink:href="#DejaVuSans-30"/>
      </g>
     </g>
    </g>
    <g id="xtick_5">
     <g id="line2d_9">
      <path clip-path="url(#pb72240862f)" d="M 290.992958 307.584 
L 290.992958 41.472 
" style="fill:none;stroke:#b0b0b0;stroke-linecap:square;stroke-width:0.8;"/>
     </g>
     <g id="line2d_10">
      <g>
       <use style="stroke:#000000;stroke-width:0.8;" x="290.992958" xlink:href="#meeba89c3b0" y="307.584"/>
      </g>
     </g>
     <g id="text_5">
      <!-- 200 -->
      <defs>
       <path d="M 19.1875 8.296875 
L 53.609375 8.296875 
L 53.609375 0 
L 7.328125 0 
L 7.328125 8.296875 
Q 12.9375 14.109375 22.625 23.890625 
Q 32.328125 33.6875 34.8125 36.53125 
Q 39.546875 41.84375 41.421875 45.53125 
Q 43.3125 49.21875 43.3125 52.78125 
Q 43.3125 58.59375 39.234375 62.25 
Q 35.15625 65.921875 28.609375 65.921875 
Q 23.96875 65.921875 18.8125 64.3125 
Q 13.671875 62.703125 7.8125 59.421875 
L 7.8125 69.390625 
Q 13.765625 71.78125 18.9375 73 
Q 24.125 74.21875 28.421875 74.21875 
Q 39.75 74.21875 46.484375 68.546875 
Q 53.21875 62.890625 53.21875 53.421875 
Q 53.21875 48.921875 51.53125 44.890625 
Q 49.859375 40.875 45.40625 35.40625 
Q 44.1875 33.984375 37.640625 27.21875 
Q 31.109375 20.453125 19.1875 8.296875 
z
" id="DejaVuSans-32"/>
      </defs>
      <g transform="translate(281.449208 322.182437)scale(0.1 -0.1)">
       <use xlink:href="#DejaVuSans-32"/>
       <use x="63.623047" xlink:href="#DejaVuSans-30"/>
       <use x="127.246094" xlink:href="#DejaVuSans-30"/>
      </g>
     </g>
    </g>
    <g id="xtick_6">
     <g id="line2d_11">
      <path clip-path="url(#pb72240862f)" d="M 345.283016 307.584 
L 345.283016 41.472 
" style="fill:none;stroke:#b0b0b0;stroke-linecap:square;stroke-width:0.8;"/>
     </g>
     <g id="line2d_12">
      <g>
       <use style="stroke:#000000;stroke-width:0.8;" x="345.283016" xlink:href="#meeba89c3b0" y="307.584"/>
      </g>
     </g>
     <g id="text_6">
      <!-- 250 -->
      <g transform="translate(335.739266 322.182437)scale(0.1 -0.1)">
       <use xlink:href="#DejaVuSans-32"/>
       <use x="63.623047" xlink:href="#DejaVuSans-35"/>
       <use x="127.246094" xlink:href="#DejaVuSans-30"/>
      </g>
     </g>
    </g>
    <g id="xtick_7">
     <g id="line2d_13">
      <path clip-path="url(#pb72240862f)" d="M 399.573074 307.584 
L 399.573074 41.472 
" style="fill:none;stroke:#b0b0b0;stroke-linecap:square;stroke-width:0.8;"/>
     </g>
     <g id="line2d_14">
      <g>
       <use style="stroke:#000000;stroke-width:0.8;" x="399.573074" xlink:href="#meeba89c3b0" y="307.584"/>
      </g>
     </g>
     <g id="text_7">
      <!-- 300 -->
      <defs>
       <path d="M 40.578125 39.3125 
Q 47.65625 37.796875 51.625 33 
Q 55.609375 28.21875 55.609375 21.1875 
Q 55.609375 10.40625 48.1875 4.484375 
Q 40.765625 -1.421875 27.09375 -1.421875 
Q 22.515625 -1.421875 17.65625 -0.515625 
Q 12.796875 0.390625 7.625 2.203125 
L 7.625 11.71875 
Q 11.71875 9.328125 16.59375 8.109375 
Q 21.484375 6.890625 26.8125 6.890625 
Q 36.078125 6.890625 40.9375 10.546875 
Q 45.796875 14.203125 45.796875 21.1875 
Q 45.796875 27.640625 41.28125 31.265625 
Q 36.765625 34.90625 28.71875 34.90625 
L 20.21875 34.90625 
L 20.21875 43.015625 
L 29.109375 43.015625 
Q 36.375 43.015625 40.234375 45.921875 
Q 44.09375 48.828125 44.09375 54.296875 
Q 44.09375 59.90625 40.109375 62.90625 
Q 36.140625 65.921875 28.71875 65.921875 
Q 24.65625 65.921875 20.015625 65.03125 
Q 15.375 64.15625 9.8125 62.3125 
L 9.8125 71.09375 
Q 15.4375 72.65625 20.34375 73.4375 
Q 25.25 74.21875 29.59375 74.21875 
Q 40.828125 74.21875 47.359375 69.109375 
Q 53.90625 64.015625 53.90625 55.328125 
Q 53.90625 49.265625 50.4375 45.09375 
Q 46.96875 40.921875 40.578125 39.3125 
z
" id="DejaVuSans-33"/>
      </defs>
      <g transform="translate(390.029324 322.182437)scale(0.1 -0.1)">
       <use xlink:href="#DejaVuSans-33"/>
       <use x="63.623047" xlink:href="#DejaVuSans-30"/>
       <use x="127.246094" xlink:href="#DejaVuSans-30"/>
      </g>
     </g>
    </g>
    <g id="text_8">
     <!-- Generations -->
     <defs>
      <path d="M 59.515625 10.40625 
L 59.515625 29.984375 
L 43.40625 29.984375 
L 43.40625 38.09375 
L 69.28125 38.09375 
L 69.28125 6.78125 
Q 63.578125 2.734375 56.6875 0.65625 
Q 49.8125 -1.421875 42 -1.421875 
Q 24.90625 -1.421875 15.25 8.5625 
Q 5.609375 18.5625 5.609375 36.375 
Q 5.609375 54.25 15.25 64.234375 
Q 24.90625 74.21875 42 74.21875 
Q 49.125 74.21875 55.546875 72.453125 
Q 61.96875 70.703125 67.390625 67.28125 
L 67.390625 56.78125 
Q 61.921875 61.421875 55.765625 63.765625 
Q 49.609375 66.109375 42.828125 66.109375 
Q 29.4375 66.109375 22.71875 58.640625 
Q 16.015625 51.171875 16.015625 36.375 
Q 16.015625 21.625 22.71875 14.15625 
Q 29.4375 6.6875 42.828125 6.6875 
Q 48.046875 6.6875 52.140625 7.59375 
Q 56.25 8.5 59.515625 10.40625 
z
" id="DejaVuSans-47"/>
      <path d="M 56.203125 29.59375 
L 56.203125 25.203125 
L 14.890625 25.203125 
Q 15.484375 15.921875 20.484375 11.0625 
Q 25.484375 6.203125 34.421875 6.203125 
Q 39.59375 6.203125 44.453125 7.46875 
Q 49.3125 8.734375 54.109375 11.28125 
L 54.109375 2.78125 
Q 49.265625 0.734375 44.1875 -0.34375 
Q 39.109375 -1.421875 33.890625 -1.421875 
Q 20.796875 -1.421875 13.15625 6.1875 
Q 5.515625 13.8125 5.515625 26.8125 
Q 5.515625 40.234375 12.765625 48.109375 
Q 20.015625 56 32.328125 56 
Q 43.359375 56 49.78125 48.890625 
Q 56.203125 41.796875 56.203125 29.59375 
z
M 47.21875 32.234375 
Q 47.125 39.59375 43.09375 43.984375 
Q 39.0625 48.390625 32.421875 48.390625 
Q 24.90625 48.390625 20.390625 44.140625 
Q 15.875 39.890625 15.1875 32.171875 
z
" id="DejaVuSans-65"/>
      <path d="M 54.890625 33.015625 
L 54.890625 0 
L 45.90625 0 
L 45.90625 32.71875 
Q 45.90625 40.484375 42.875 44.328125 
Q 39.84375 48.1875 33.796875 48.1875 
Q 26.515625 48.1875 22.3125 43.546875 
Q 18.109375 38.921875 18.109375 30.90625 
L 18.109375 0 
L 9.078125 0 
L 9.078125 54.6875 
L 18.109375 54.6875 
L 18.109375 46.1875 
Q 21.34375 51.125 25.703125 53.5625 
Q 30.078125 56 35.796875 56 
Q 45.21875 56 50.046875 50.171875 
Q 54.890625 44.34375 54.890625 33.015625 
z
" id="DejaVuSans-6e"/>
      <path d="M 41.109375 46.296875 
Q 39.59375 47.171875 37.8125 47.578125 
Q 36.03125 48 33.890625 48 
Q 26.265625 48 22.1875 43.046875 
Q 18.109375 38.09375 18.109375 28.8125 
L 18.109375 0 
L 9.078125 0 
L 9.078125 54.6875 
L 18.109375 54.6875 
L 18.109375 46.1875 
Q 20.953125 51.171875 25.484375 53.578125 
Q 30.03125 56 36.53125 56 
Q 37.453125 56 38.578125 55.875 
Q 39.703125 55.765625 41.0625 55.515625 
z
" id="DejaVuSans-72"/>
      <path d="M 34.28125 27.484375 
Q 23.390625 27.484375 19.1875 25 
Q 14.984375 22.515625 14.984375 16.5 
Q 14.984375 11.71875 18.140625 8.90625 
Q 21.296875 6.109375 26.703125 6.109375 
Q 34.1875 6.109375 38.703125 11.40625 
Q 43.21875 16.703125 43.21875 25.484375 
L 43.21875 27.484375 
z
M 52.203125 31.203125 
L 52.203125 0 
L 43.21875 0 
L 43.21875 8.296875 
Q 40.140625 3.328125 35.546875 0.953125 
Q 30.953125 -1.421875 24.3125 -1.421875 
Q 15.921875 -1.421875 10.953125 3.296875 
Q 6 8.015625 6 15.921875 
Q 6 25.140625 12.171875 29.828125 
Q 18.359375 34.515625 30.609375 34.515625 
L 43.21875 34.515625 
L 43.21875 35.40625 
Q 43.21875 41.609375 39.140625 45 
Q 35.0625 48.390625 27.6875 48.390625 
Q 23 48.390625 18.546875 47.265625 
Q 14.109375 46.140625 10.015625 43.890625 
L 10.015625 52.203125 
Q 14.9375 54.109375 19.578125 55.046875 
Q 24.21875 56 28.609375 56 
Q 40.484375 56 46.34375 49.84375 
Q 52.203125 43.703125 52.203125 31.203125 
z
" id="DejaVuSans-61"/>
      <path d="M 18.3125 70.21875 
L 18.3125 54.6875 
L 36.8125 54.6875 
L 36.8125 47.703125 
L 18.3125 47.703125 
L 18.3125 18.015625 
Q 18.3125 11.328125 20.140625 9.421875 
Q 21.96875 7.515625 27.59375 7.515625 
L 36.8125 7.515625 
L 36.8125 0 
L 27.59375 0 
Q 17.1875 0 13.234375 3.875 
Q 9.28125 7.765625 9.28125 18.015625 
L 9.28125 47.703125 
L 2.6875 47.703125 
L 2.6875 54.6875 
L 9.28125 54.6875 
L 9.28125 70.21875 
z
" id="DejaVuSans-74"/>
      <path d="M 9.421875 54.6875 
L 18.40625 54.6875 
L 18.40625 0 
L 9.421875 0 
z
M 9.421875 75.984375 
L 18.40625 75.984375 
L 18.40625 64.59375 
L 9.421875 64.59375 
z
" id="DejaVuSans-69"/>
      <path d="M 30.609375 48.390625 
Q 23.390625 48.390625 19.1875 42.75 
Q 14.984375 37.109375 14.984375 27.296875 
Q 14.984375 17.484375 19.15625 11.84375 
Q 23.34375 6.203125 30.609375 6.203125 
Q 37.796875 6.203125 41.984375 11.859375 
Q 46.1875 17.53125 46.1875 27.296875 
Q 46.1875 37.015625 41.984375 42.703125 
Q 37.796875 48.390625 30.609375 48.390625 
z
M 30.609375 56 
Q 42.328125 56 49.015625 48.375 
Q 55.71875 40.765625 55.71875 27.296875 
Q 55.71875 13.875 49.015625 6.21875 
Q 42.328125 -1.421875 30.609375 -1.421875 
Q 18.84375 -1.421875 12.171875 6.21875 
Q 5.515625 13.875 5.515625 27.296875 
Q 5.515625 40.765625 12.171875 48.375 
Q 18.84375 56 30.609375 56 
z
" id="DejaVuSans-6f"/>
      <path d="M 44.28125 53.078125 
L 44.28125 44.578125 
Q 40.484375 46.53125 36.375 47.5 
Q 32.28125 48.484375 27.875 48.484375 
Q 21.1875 48.484375 17.84375 46.4375 
Q 14.5 44.390625 14.5 40.28125 
Q 14.5 37.15625 16.890625 35.375 
Q 19.28125 33.59375 26.515625 31.984375 
L 29.59375 31.296875 
Q 39.15625 29.25 43.1875 25.515625 
Q 47.21875 21.78125 47.21875 15.09375 
Q 47.21875 7.46875 41.1875 3.015625 
Q 35.15625 -1.421875 24.609375 -1.421875 
Q 20.21875 -1.421875 15.453125 -0.5625 
Q 10.6875 0.296875 5.421875 2 
L 5.421875 11.28125 
Q 10.40625 8.6875 15.234375 7.390625 
Q 20.0625 6.109375 24.8125 6.109375 
Q 31.15625 6.109375 34.5625 8.28125 
Q 37.984375 10.453125 37.984375 14.40625 
Q 37.984375 18.0625 35.515625 20.015625 
Q 33.0625 21.96875 24.703125 23.78125 
L 21.578125 24.515625 
Q 13.234375 26.265625 9.515625 29.90625 
Q 5.8125 33.546875 5.8125 39.890625 
Q 5.8125 47.609375 11.28125 51.796875 
Q 16.75 56 26.8125 56 
Q 31.78125 56 36.171875 55.265625 
Q 40.578125 54.546875 44.28125 53.078125 
z
" id="DejaVuSans-73"/>
     </defs>
     <g transform="translate(205.662344 335.860562)scale(0.1 -0.1)">
      <use xlink:href="#DejaVuSans-47"/>
      <use x="77.490234" xlink:href="#DejaVuSans-65"/>
      <use x="139.013672" xlink:href="#DejaVuSans-6e"/>
      <use x="202.392578" xlink:href="#DejaVuSans-65"/>
      <use x="263.916016" xlink:href="#DejaVuSans-72"/>
      <use x="305.029297" xlink:href="#DejaVuSans-61"/>
      <use x="366.308594" xlink:href="#DejaVuSans-74"/>
      <use x="405.517578" xlink:href="#DejaVuSans-69"/>
      <use x="433.300781" xlink:href="#DejaVuSans-6f"/>
      <use x="494.482422" xlink:href="#DejaVuSans-6e"/>
      <use x="557.861328" xlink:href="#DejaVuSans-73"/>
     </g>
    </g>
   </g>
   <g id="matplotlib.axis_2">
    <g id="ytick_1">
     <g id="line2d_15">
      <path clip-path="url(#pb72240862f)" d="M 57.6 300.259199 
L 414.72 300.259199 
" style="fill:none;stroke:#b0b0b0;stroke-linecap:square;stroke-width:0.8;"/>
     </g>
     <g id="line2d_16">
      <defs>
       <path d="M 0 0 
L -3.5 0 
" id="m9d194ad935" style="stroke:#000000;stroke-width:0.8;"/>
      </defs>
      <g>
       <use style="stroke:#000000;stroke-width:0.8;" x="57.6" xlink:href="#m9d194ad935" y="300.259199"/>
      </g>
     </g>
     <g id="text_9">
      <!-- −1000 -->
      <defs>
       <path d="M 10.59375 35.5 
L 73.1875 35.5 
L 73.1875 27.203125 
L 10.59375 27.203125 
z
" id="DejaVuSans-2212"/>
      </defs>
      <g transform="translate(16.770313 304.058418)scale(0.1 -0.1)">
       <use xlink:href="#DejaVuSans-2212"/>
       <use x="83.789062" xlink:href="#DejaVuSans-31"/>
       <use x="147.412109" xlink:href="#DejaVuSans-30"/>
       <use x="211.035156" xlink:href="#DejaVuSans-30"/>
       <use x="274.658203" xlink:href="#DejaVuSans-30"/>
      </g>
     </g>
    </g>
    <g id="ytick_2">
     <g id="line2d_17">
      <path clip-path="url(#pb72240862f)" d="M 57.6 262.827081 
L 414.72 262.827081 
" style="fill:none;stroke:#b0b0b0;stroke-linecap:square;stroke-width:0.8;"/>
     </g>
     <g id="line2d_18">
      <g>
       <use style="stroke:#000000;stroke-width:0.8;" x="57.6" xlink:href="#m9d194ad935" y="262.827081"/>
      </g>
     </g>
     <g id="text_10">
      <!-- 0 -->
      <g transform="translate(44.2375 266.6263)scale(0.1 -0.1)">
       <use xlink:href="#DejaVuSans-30"/>
      </g>
     </g>
    </g>
    <g id="ytick_3">
     <g id="line2d_19">
      <path clip-path="url(#pb72240862f)" d="M 57.6 225.394963 
L 414.72 225.394963 
" style="fill:none;stroke:#b0b0b0;stroke-linecap:square;stroke-width:0.8;"/>
     </g>
     <g id="line2d_20">
      <g>
       <use style="stroke:#000000;stroke-width:0.8;" x="57.6" xlink:href="#m9d194ad935" y="225.394963"/>
      </g>
     </g>
     <g id="text_11">
      <!-- 1000 -->
      <g transform="translate(25.15 229.194182)scale(0.1 -0.1)">
       <use xlink:href="#DejaVuSans-31"/>
       <use x="63.623047" xlink:href="#DejaVuSans-30"/>
       <use x="127.246094" xlink:href="#DejaVuSans-30"/>
       <use x="190.869141" xlink:href="#DejaVuSans-30"/>
      </g>
     </g>
    </g>
    <g id="ytick_4">
     <g id="line2d_21">
      <path clip-path="url(#pb72240862f)" d="M 57.6 187.962845 
L 414.72 187.962845 
" style="fill:none;stroke:#b0b0b0;stroke-linecap:square;stroke-width:0.8;"/>
     </g>
     <g id="line2d_22">
      <g>
       <use style="stroke:#000000;stroke-width:0.8;" x="57.6" xlink:href="#m9d194ad935" y="187.962845"/>
      </g>
     </g>
     <g id="text_12">
      <!-- 2000 -->
      <g transform="translate(25.15 191.762064)scale(0.1 -0.1)">
       <use xlink:href="#DejaVuSans-32"/>
       <use x="63.623047" xlink:href="#DejaVuSans-30"/>
       <use x="127.246094" xlink:href="#DejaVuSans-30"/>
       <use x="190.869141" xlink:href="#DejaVuSans-30"/>
      </g>
     </g>
    </g>
    <g id="ytick_5">
     <g id="line2d_23">
      <path clip-path="url(#pb72240862f)" d="M 57.6 150.530727 
L 414.72 150.530727 
" style="fill:none;stroke:#b0b0b0;stroke-linecap:square;stroke-width:0.8;"/>
     </g>
     <g id="line2d_24">
      <g>
       <use style="stroke:#000000;stroke-width:0.8;" x="57.6" xlink:href="#m9d194ad935" y="150.530727"/>
      </g>
     </g>
     <g id="text_13">
      <!-- 3000 -->
      <g transform="translate(25.15 154.329946)scale(0.1 -0.1)">
       <use xlink:href="#DejaVuSans-33"/>
       <use x="63.623047" xlink:href="#DejaVuSans-30"/>
       <use x="127.246094" xlink:href="#DejaVuSans-30"/>
       <use x="190.869141" xlink:href="#DejaVuSans-30"/>
      </g>
     </g>
    </g>
    <g id="ytick_6">
     <g id="line2d_25">
      <path clip-path="url(#pb72240862f)" d="M 57.6 113.098609 
L 414.72 113.098609 
" style="fill:none;stroke:#b0b0b0;stroke-linecap:square;stroke-width:0.8;"/>
     </g>
     <g id="line2d_26">
      <g>
       <use style="stroke:#000000;stroke-width:0.8;" x="57.6" xlink:href="#m9d194ad935" y="113.098609"/>
      </g>
     </g>
     <g id="text_14">
      <!-- 4000 -->
      <defs>
       <path d="M 37.796875 64.3125 
L 12.890625 25.390625 
L 37.796875 25.390625 
z
M 35.203125 72.90625 
L 47.609375 72.90625 
L 47.609375 25.390625 
L 58.015625 25.390625 
L 58.015625 17.1875 
L 47.609375 17.1875 
L 47.609375 0 
L 37.796875 0 
L 37.796875 17.1875 
L 4.890625 17.1875 
L 4.890625 26.703125 
z
" id="DejaVuSans-34"/>
      </defs>
      <g transform="translate(25.15 116.897828)scale(0.1 -0.1)">
       <use xlink:href="#DejaVuSans-34"/>
       <use x="63.623047" xlink:href="#DejaVuSans-30"/>
       <use x="127.246094" xlink:href="#DejaVuSans-30"/>
       <use x="190.869141" xlink:href="#DejaVuSans-30"/>
      </g>
     </g>
    </g>
    <g id="ytick_7">
     <g id="line2d_27">
      <path clip-path="url(#pb72240862f)" d="M 57.6 75.666491 
L 414.72 75.666491 
" style="fill:none;stroke:#b0b0b0;stroke-linecap:square;stroke-width:0.8;"/>
     </g>
     <g id="line2d_28">
      <g>
       <use style="stroke:#000000;stroke-width:0.8;" x="57.6" xlink:href="#m9d194ad935" y="75.666491"/>
      </g>
     </g>
     <g id="text_15">
      <!-- 5000 -->
      <g transform="translate(25.15 79.46571)scale(0.1 -0.1)">
       <use xlink:href="#DejaVuSans-35"/>
       <use x="63.623047" xlink:href="#DejaVuSans-30"/>
       <use x="127.246094" xlink:href="#DejaVuSans-30"/>
       <use x="190.869141" xlink:href="#DejaVuSans-30"/>
      </g>
     </g>
    </g>
    <g id="text_16">
     <!-- Fitness -->
     <defs>
      <path d="M 9.8125 72.90625 
L 51.703125 72.90625 
L 51.703125 64.59375 
L 19.671875 64.59375 
L 19.671875 43.109375 
L 48.578125 43.109375 
L 48.578125 34.8125 
L 19.671875 34.8125 
L 19.671875 0 
L 9.8125 0 
z
" id="DejaVuSans-46"/>
     </defs>
     <g transform="translate(10.690625 192.202219)rotate(-90)scale(0.1 -0.1)">
      <use xlink:href="#DejaVuSans-46"/>
      <use x="57.410156" xlink:href="#DejaVuSans-69"/>
      <use x="85.193359" xlink:href="#DejaVuSans-74"/>
      <use x="124.402344" xlink:href="#DejaVuSans-6e"/>
      <use x="187.78125" xlink:href="#DejaVuSans-65"/>
      <use x="249.304688" xlink:href="#DejaVuSans-73"/>
      <use x="301.404297" xlink:href="#DejaVuSans-73"/>
     </g>
    </g>
   </g>
   <g id="line2d_29">
    <path clip-path="url(#pb72240862f)" d="M 73.832727 262.429053 
L 74.918528 262.396555 
L 76.00433 262.246392 
L 78.175932 262.159973 
L 79.261733 261.882989 
L 81.433335 261.824452 
L 82.519137 261.359162 
L 83.604938 260.29181 
L 84.690739 259.69593 
L 85.77654 259.600266 
L 86.862341 257.524474 
L 87.948142 257.614144 
L 89.033943 256.238096 
L 90.119745 256.385008 
L 91.205546 253.868957 
L 92.291347 254.65966 
L 93.377148 253.736961 
L 94.462949 254.948492 
L 95.54875 253.375785 
L 96.634552 252.861659 
L 97.720353 249.255706 
L 98.806154 244.285639 
L 99.891955 246.354543 
L 100.977756 242.636453 
L 102.063557 241.898068 
L 103.149358 238.872351 
L 104.23516 243.425004 
L 105.320961 237.375844 
L 107.492563 235.220939 
L 108.578364 230.042949 
L 109.664165 230.282087 
L 110.749967 224.833164 
L 111.835768 231.027061 
L 112.921569 220.77466 
L 115.093171 212.458327 
L 116.178972 209.444026 
L 117.264773 200.21074 
L 118.350575 200.283789 
L 119.436376 196.324147 
L 120.522177 202.759564 
L 121.607978 194.722425 
L 122.693779 199.347529 
L 123.77958 203.304694 
L 124.865382 199.589453 
L 125.951183 202.70661 
L 127.036984 204.697775 
L 128.122785 202.578916 
L 129.208586 202.983922 
L 130.294387 198.711809 
L 131.380189 198.504097 
L 132.46599 192.202745 
L 133.551791 187.059783 
L 134.637592 186.305979 
L 135.723393 174.325127 
L 136.809194 177.948933 
L 137.894995 176.504125 
L 138.980797 176.01842 
L 140.066598 173.837667 
L 141.152399 177.854284 
L 142.2382 174.890635 
L 143.324001 174.332513 
L 144.409802 166.339109 
L 145.495604 174.35642 
L 146.581405 167.671992 
L 147.667206 162.259358 
L 148.753007 168.845414 
L 149.838808 170.688842 
L 150.924609 166.557291 
L 152.01041 172.510997 
L 153.096212 170.602009 
L 154.182013 173.395738 
L 155.267814 155.278567 
L 156.353615 181.187083 
L 157.439416 171.583385 
L 158.525217 169.896007 
L 159.611019 161.946176 
L 160.69682 172.992831 
L 161.782621 168.640316 
L 162.868422 169.989988 
L 163.954223 167.95443 
L 165.040024 154.12396 
L 166.125825 177.079047 
L 167.211627 175.14893 
L 168.297428 171.664102 
L 169.383229 162.394612 
L 170.46903 171.181972 
L 171.554831 160.452434 
L 172.640632 151.812153 
L 173.726434 163.89604 
L 174.812235 167.00582 
L 175.898036 167.695282 
L 176.983837 161.737953 
L 178.069638 170.505653 
L 179.155439 168.393801 
L 180.24124 163.727695 
L 181.327042 174.838761 
L 182.412843 187.780077 
L 183.498644 165.397018 
L 184.584445 163.728743 
L 185.670246 161.51381 
L 186.756047 176.140634 
L 187.841849 176.114859 
L 188.92765 166.307187 
L 190.013451 175.246464 
L 191.099252 175.585985 
L 192.185053 165.957134 
L 193.270854 171.085086 
L 194.356656 162.260402 
L 195.442457 158.753216 
L 196.528258 156.035993 
L 197.614059 170.764883 
L 198.69986 170.509895 
L 199.785661 165.766398 
L 200.871462 159.918353 
L 201.957264 165.36948 
L 203.043065 178.324823 
L 204.128866 163.693203 
L 205.214667 169.570045 
L 206.300468 157.87985 
L 207.386269 168.043169 
L 208.472071 162.608674 
L 209.557872 160.269216 
L 210.643673 154.119129 
L 211.729474 156.438169 
L 212.815275 152.356132 
L 213.901076 149.330686 
L 214.986877 159.785521 
L 216.072679 152.680895 
L 217.15848 151.652846 
L 218.244281 162.908778 
L 219.330082 151.650459 
L 220.415883 162.368987 
L 222.587486 155.978802 
L 223.673287 164.914752 
L 224.759088 152.443758 
L 225.844889 159.183058 
L 226.93069 153.258131 
L 228.016491 152.557557 
L 229.102292 159.413523 
L 230.188094 164.602447 
L 231.273895 161.86642 
L 232.359696 176.316612 
L 233.445497 172.341125 
L 234.531298 160.970908 
L 235.617099 167.098974 
L 236.702901 169.083843 
L 237.788702 164.818214 
L 238.874503 170.226034 
L 239.960304 166.48182 
L 241.046105 164.935455 
L 242.131906 162.722774 
L 243.217708 162.67131 
L 244.303509 161.917865 
L 245.38931 155.001671 
L 246.475111 163.887529 
L 247.560912 164.137851 
L 248.646713 159.233619 
L 249.732514 150.74159 
L 250.818316 156.219 
L 251.904117 156.801261 
L 252.989918 147.940554 
L 254.075719 159.135755 
L 255.16152 153.428808 
L 256.247321 158.757758 
L 257.333123 159.011883 
L 258.418924 155.020569 
L 259.504725 156.688185 
L 260.590526 148.455441 
L 261.676327 160.453283 
L 262.762128 153.927505 
L 263.847929 151.344352 
L 264.933731 156.475347 
L 266.019532 156.396889 
L 267.105333 149.695344 
L 268.191134 158.555474 
L 269.276935 157.898968 
L 270.362736 158.084142 
L 271.448538 170.607621 
L 272.534339 153.796954 
L 273.62014 155.428046 
L 274.705941 144.290394 
L 275.791742 146.611429 
L 276.877543 153.854949 
L 277.963344 146.31048 
L 279.049146 151.106832 
L 280.134947 151.127395 
L 281.220748 156.030503 
L 282.306549 152.316582 
L 283.39235 143.532368 
L 284.478151 148.432682 
L 285.563953 159.732939 
L 286.649754 161.84461 
L 287.735555 155.446912 
L 288.821356 155.813788 
L 289.907157 147.222177 
L 290.992958 143.463762 
L 292.07876 145.436543 
L 293.164561 153.424533 
L 294.250362 145.341433 
L 295.336163 141.608958 
L 296.421964 155.193303 
L 297.507765 153.701128 
L 298.593566 156.600393 
L 299.679368 144.344717 
L 300.765169 150.078134 
L 301.85097 153.508911 
L 302.936771 148.267931 
L 304.022572 157.746675 
L 305.108373 149.463021 
L 306.194175 147.644344 
L 307.279976 148.344204 
L 308.365777 150.192347 
L 309.451578 145.03933 
L 310.537379 154.075053 
L 311.62318 155.896397 
L 312.708981 149.239294 
L 313.794783 155.177459 
L 314.880584 159.373124 
L 315.966385 148.680248 
L 317.052186 154.781319 
L 318.137987 147.496829 
L 319.223788 152.207686 
L 320.30959 154.924065 
L 321.395391 151.629035 
L 322.481192 157.885989 
L 323.566993 153.377507 
L 324.652794 162.326796 
L 325.738595 146.448688 
L 326.824396 165.01641 
L 327.910198 154.62625 
L 328.995999 158.049941 
L 330.0818 152.386575 
L 331.167601 158.724285 
L 332.253402 151.889458 
L 333.339203 155.311465 
L 334.425005 156.144703 
L 335.510806 162.640639 
L 336.596607 153.715788 
L 337.682408 150.654705 
L 338.768209 164.153622 
L 339.85401 149.944837 
L 340.939811 155.191625 
L 342.025613 157.818706 
L 343.111414 162.94795 
L 344.197215 158.754999 
L 345.283016 167.3935 
L 346.368817 156.622903 
L 347.454618 152.129422 
L 348.54042 144.408679 
L 349.626221 151.558513 
L 351.797823 141.33675 
L 352.883624 156.456377 
L 353.969425 155.35486 
L 355.055227 158.545393 
L 356.141028 154.118949 
L 357.226829 163.707434 
L 358.31263 154.588568 
L 359.398431 152.356766 
L 360.484232 154.930748 
L 361.570033 158.316459 
L 362.655835 161.281301 
L 363.741636 141.390303 
L 364.827437 153.356253 
L 365.913238 145.789823 
L 366.999039 151.467027 
L 368.08484 141.152645 
L 369.170642 138.669251 
L 370.256443 156.260227 
L 371.342244 145.759002 
L 372.428045 151.860566 
L 373.513846 153.649068 
L 374.599647 147.740857 
L 375.685448 147.49653 
L 376.77125 150.233926 
L 377.857051 140.837713 
L 378.942852 149.874367 
L 380.028653 161.352934 
L 381.114454 143.496583 
L 382.200255 147.113029 
L 383.286057 145.659561 
L 384.371858 144.824974 
L 385.457659 147.274383 
L 386.54346 151.059549 
L 387.629261 148.326574 
L 388.715062 156.974012 
L 389.800863 143.450367 
L 390.886665 145.507736 
L 391.972466 148.762519 
L 393.058267 147.326438 
L 394.144068 146.609937 
L 395.229869 141.950537 
L 396.31567 140.42141 
L 397.401472 140.441723 
L 398.487273 150.346811 
L 398.487273 150.346811 
" style="fill:none;stroke:#0000ff;stroke-linecap:square;stroke-width:1.5;"/>
   </g>
   <g id="line2d_30">
    <path clip-path="url(#pb72240862f)" d="M 73.832727 262.712102 
L 74.918528 262.773541 
L 76.00433 263.118514 
L 78.175932 263.266562 
L 79.261733 266.452748 
L 80.347534 265.22808 
L 81.433335 264.91886 
L 83.604938 271.821464 
L 84.690739 274.298 
L 85.77654 273.699109 
L 86.862341 280.347201 
L 87.948142 279.184008 
L 89.033943 283.336953 
L 90.119745 283.292248 
L 91.205546 287.413523 
L 92.291347 286.005403 
L 93.377148 287.491931 
L 94.462949 285.749758 
L 95.54875 288.56608 
L 96.634552 289.392461 
L 97.720353 293.90304 
L 98.806154 294.661419 
L 99.891955 292.549781 
L 100.977756 294.551375 
L 102.063557 293.265536 
L 103.149358 294.609032 
L 104.23516 295.488 
L 105.320961 295.360203 
L 106.406762 293.594674 
L 108.578364 291.320826 
L 110.749967 289.634721 
L 111.835768 292.590305 
L 112.921569 290.896108 
L 114.00737 291.69625 
L 115.093171 289.088309 
L 116.178972 286.008568 
L 117.264773 282.472311 
L 118.350575 281.000901 
L 119.436376 280.106795 
L 120.522177 282.46448 
L 121.607978 276.958313 
L 123.77958 284.307604 
L 124.865382 283.394838 
L 125.951183 283.962433 
L 127.036984 283.874617 
L 128.122785 284.251349 
L 129.208586 283.970444 
L 130.294387 282.321734 
L 131.380189 282.468147 
L 133.551791 272.965316 
L 134.637592 272.88358 
L 135.723393 263.147342 
L 136.809194 266.5377 
L 137.894995 264.67639 
L 138.980797 265.262632 
L 140.066598 262.359573 
L 141.152399 265.186237 
L 142.2382 261.751052 
L 143.324001 261.97652 
L 144.409802 253.709285 
L 145.495604 261.897146 
L 146.581405 256.938969 
L 147.667206 250.421615 
L 148.753007 256.728378 
L 149.838808 258.361134 
L 150.924609 256.26027 
L 152.01041 258.708355 
L 153.096212 258.581481 
L 154.182013 260.942057 
L 155.267814 242.010856 
L 156.353615 267.316286 
L 157.439416 259.060016 
L 158.525217 257.287504 
L 159.611019 249.705704 
L 160.69682 261.755247 
L 161.782621 256.329545 
L 162.868422 257.930639 
L 163.954223 257.05448 
L 165.040024 243.1603 
L 166.125825 265.38002 
L 167.211627 264.710827 
L 168.297428 260.481998 
L 169.383229 252.751358 
L 170.46903 259.555772 
L 171.554831 248.144224 
L 172.640632 239.273504 
L 173.726434 252.769225 
L 174.812235 256.350588 
L 175.898036 256.938515 
L 176.983837 250.846239 
L 178.069638 259.340725 
L 179.155439 257.878634 
L 180.24124 252.792335 
L 182.412843 274.365075 
L 183.498644 253.923536 
L 184.584445 251.422151 
L 185.670246 251.316962 
L 186.756047 263.94183 
L 187.841849 264.298829 
L 188.92765 253.277315 
L 190.013451 264.605709 
L 191.099252 265.518222 
L 192.185053 255.671849 
L 193.270854 260.830099 
L 194.356656 249.933941 
L 195.442457 247.55199 
L 196.528258 244.741966 
L 197.614059 260.601543 
L 198.69986 260.623633 
L 199.785661 254.478276 
L 200.871462 249.534923 
L 201.957264 255.386444 
L 203.043065 266.136286 
L 204.128866 251.146766 
L 205.214667 258.041124 
L 206.300468 246.43235 
L 207.386269 257.095972 
L 208.472071 251.684718 
L 209.557872 247.679802 
L 210.643673 241.259598 
L 211.729474 244.751688 
L 212.815275 239.469666 
L 213.901076 235.746173 
L 214.986877 247.788926 
L 216.072679 238.913636 
L 217.15848 237.551842 
L 218.244281 251.252913 
L 219.330082 239.15913 
L 220.415883 250.666482 
L 222.587486 243.062418 
L 223.673287 252.77102 
L 224.759088 238.19156 
L 225.844889 246.87133 
L 226.93069 242.338307 
L 228.016491 240.593265 
L 229.102292 248.436263 
L 230.188094 253.682674 
L 231.273895 251.812664 
L 232.359696 264.36796 
L 233.445497 260.429034 
L 234.531298 249.003632 
L 235.617099 255.949821 
L 236.702901 258.567939 
L 237.788702 253.653993 
L 238.874503 259.159865 
L 239.960304 255.457165 
L 241.046105 253.822258 
L 242.131906 251.952521 
L 243.217708 250.70406 
L 244.303509 250.594167 
L 245.38931 243.576805 
L 246.475111 251.387171 
L 247.560912 252.641324 
L 248.646713 248.127013 
L 249.732514 238.389769 
L 250.818316 244.582559 
L 251.904117 245.462439 
L 252.989918 234.338063 
L 254.075719 248.744156 
L 255.16152 241.99544 
L 256.247321 247.945083 
L 257.333123 248.457971 
L 258.418924 244.635376 
L 259.504725 245.488193 
L 260.590526 236.964254 
L 261.676327 249.696962 
L 262.762128 243.124098 
L 263.847929 239.88618 
L 264.933731 245.214737 
L 266.019532 244.674575 
L 267.105333 238.441706 
L 268.191134 247.567185 
L 269.276935 246.314693 
L 270.362736 246.405216 
L 271.448538 259.085995 
L 272.534339 242.663153 
L 273.62014 244.099359 
L 274.705941 230.517801 
L 275.791742 234.556628 
L 276.877543 242.689869 
L 277.963344 233.788619 
L 279.049146 239.39677 
L 280.134947 239.497423 
L 281.220748 244.775495 
L 282.306549 240.688655 
L 283.39235 229.062845 
L 284.478151 236.666175 
L 285.563953 249.054202 
L 286.649754 250.405195 
L 287.735555 243.769021 
L 288.821356 244.301288 
L 289.907157 234.459529 
L 290.992958 230.624555 
L 292.07876 232.383541 
L 293.164561 241.485386 
L 294.250362 232.871092 
L 295.336163 225.405259 
L 296.421964 242.587625 
L 297.507765 242.065476 
L 298.593566 245.992989 
L 299.679368 230.583909 
L 300.765169 237.547667 
L 301.85097 242.707229 
L 302.936771 235.955272 
L 304.022572 246.828829 
L 305.108373 236.999446 
L 306.194175 235.671251 
L 307.279976 236.341141 
L 308.365777 238.625038 
L 309.451578 232.780452 
L 310.537379 243.59303 
L 311.62318 243.968266 
L 312.708981 236.575444 
L 314.880584 249.208828 
L 315.966385 237.486394 
L 317.052186 244.727343 
L 318.137987 233.904987 
L 319.223788 240.939275 
L 320.30959 243.065412 
L 321.395391 239.11697 
L 322.481192 245.778835 
L 323.566993 241.825931 
L 324.652794 250.591449 
L 325.738595 233.352973 
L 326.824396 254.620404 
L 327.910198 242.727263 
L 328.995999 247.12862 
L 330.0818 239.736248 
L 331.167601 247.878027 
L 332.253402 240.274906 
L 333.339203 242.968509 
L 334.425005 244.910887 
L 335.510806 251.923893 
L 336.596607 242.711841 
L 337.682408 238.334679 
L 338.768209 253.997799 
L 339.85401 237.124182 
L 340.939811 244.085414 
L 342.025613 247.188131 
L 343.111414 252.42134 
L 344.197215 248.717819 
L 345.283016 257.054284 
L 346.368817 245.081945 
L 347.454618 239.610314 
L 348.54042 229.231591 
L 349.626221 238.566582 
L 350.712022 234.10584 
L 351.797823 227.525963 
L 352.883624 246.162255 
L 353.969425 244.558544 
L 355.055227 247.529153 
L 356.141028 243.159732 
L 357.226829 252.839059 
L 358.31263 243.486163 
L 359.398431 240.673476 
L 360.484232 243.746921 
L 361.570033 247.624822 
L 362.655835 250.321066 
L 363.741636 227.869696 
L 364.827437 241.027518 
L 365.913238 231.8729 
L 366.999039 239.162345 
L 368.08484 227.62938 
L 369.170642 223.770503 
L 370.256443 246.141415 
L 371.342244 232.416291 
L 372.428045 240.050397 
L 373.513846 242.460374 
L 374.599647 235.323702 
L 375.685448 235.617163 
L 376.77125 237.307812 
L 377.857051 226.697474 
L 378.942852 236.725491 
L 380.028653 250.026732 
L 381.114454 230.1926 
L 382.200255 233.575531 
L 383.286057 233.624863 
L 384.371858 230.904936 
L 385.457659 233.875355 
L 386.54346 238.242275 
L 387.629261 235.853084 
L 388.715062 245.12861 
L 389.800863 229.817566 
L 390.886665 231.965192 
L 391.972466 235.788959 
L 393.058267 234.383073 
L 394.144068 233.547173 
L 395.229869 226.937671 
L 396.31567 225.345351 
L 397.401472 224.959834 
L 398.487273 238.915011 
L 398.487273 238.915011 
" style="fill:none;stroke:#008000;stroke-dasharray:9.6,2.4,1.5,2.4;stroke-dashoffset:0;stroke-width:1.5;"/>
   </g>
   <g id="line2d_31">
    <path clip-path="url(#pb72240862f)" d="M 73.832727 262.146003 
L 74.918528 262.019568 
L 76.00433 261.374271 
L 78.175932 261.053385 
L 79.261733 257.31323 
L 80.347534 258.421462 
L 81.433335 258.730043 
L 82.519137 254.504481 
L 83.604938 248.762156 
L 84.690739 245.093861 
L 85.77654 245.501423 
L 86.862341 234.701747 
L 87.948142 236.044281 
L 89.033943 229.139239 
L 90.119745 229.477768 
L 91.205546 220.324391 
L 92.291347 223.313917 
L 93.377148 219.981991 
L 94.462949 224.147226 
L 95.54875 218.18549 
L 96.634552 216.330857 
L 98.806154 193.909859 
L 99.891955 200.159305 
L 100.977756 190.721532 
L 102.063557 190.5306 
L 103.149358 183.135671 
L 104.23516 191.362008 
L 105.320961 179.391484 
L 106.406762 178.94146 
L 107.492563 178.065364 
L 108.578364 168.765072 
L 109.664165 170.085708 
L 110.749967 160.031606 
L 111.835768 169.463816 
L 112.921569 150.653211 
L 114.00737 141.872397 
L 115.093171 135.828345 
L 116.178972 132.879484 
L 117.264773 117.94917 
L 118.350575 119.566677 
L 119.436376 112.541499 
L 120.522177 123.054647 
L 121.607978 112.486537 
L 122.693779 117.932346 
L 123.77958 122.301783 
L 124.865382 115.784068 
L 125.951183 121.450786 
L 127.036984 125.520932 
L 128.122785 120.906483 
L 129.208586 121.9974 
L 130.294387 115.101884 
L 131.380189 114.540047 
L 132.46599 106.603799 
L 133.551791 101.15425 
L 134.637592 99.728377 
L 135.723393 85.502911 
L 136.809194 89.360167 
L 137.894995 88.33186 
L 140.066598 85.315761 
L 141.152399 90.522332 
L 142.2382 88.030217 
L 143.324001 86.688507 
L 144.409802 78.968933 
L 145.495604 86.815694 
L 146.581405 78.405015 
L 147.667206 74.097101 
L 148.753007 80.96245 
L 149.838808 83.016551 
L 150.924609 76.854312 
L 152.01041 86.313639 
L 153.096212 82.622537 
L 154.182013 85.849419 
L 155.267814 68.546278 
L 156.353615 95.057879 
L 157.439416 84.106754 
L 158.525217 82.504511 
L 159.611019 74.186647 
L 160.69682 84.230415 
L 161.782621 80.951088 
L 162.868422 82.049337 
L 163.954223 78.854379 
L 165.040024 65.08762 
L 166.125825 88.778073 
L 167.211627 85.587033 
L 168.297428 82.846206 
L 169.383229 72.037867 
L 170.46903 82.808172 
L 171.554831 72.760645 
L 172.640632 64.350803 
L 173.726434 75.022854 
L 174.812235 77.661052 
L 175.898036 78.45205 
L 176.983837 72.629667 
L 178.069638 81.670581 
L 179.155439 78.908969 
L 180.24124 74.663055 
L 181.327042 86.194253 
L 182.412843 101.195078 
L 183.498644 76.870499 
L 184.584445 76.035335 
L 185.670246 71.710658 
L 186.756047 88.339438 
L 187.841849 87.930889 
L 188.92765 79.33706 
L 190.013451 85.887218 
L 191.099252 85.653747 
L 192.185053 76.24242 
L 193.270854 81.340072 
L 194.356656 74.586863 
L 195.442457 69.954441 
L 196.528258 67.330021 
L 197.614059 80.928223 
L 198.69986 80.396158 
L 199.785661 77.054519 
L 200.871462 70.301783 
L 201.957264 75.352516 
L 203.043065 90.513361 
L 204.128866 76.23964 
L 205.214667 81.098967 
L 206.300468 69.32735 
L 207.386269 78.990366 
L 208.472071 73.53263 
L 209.557872 72.85863 
L 210.643673 66.97866 
L 211.729474 68.12465 
L 212.815275 65.242597 
L 213.901076 62.915198 
L 214.986877 71.782116 
L 216.072679 66.448154 
L 217.15848 65.753849 
L 218.244281 74.564643 
L 219.330082 64.141789 
L 220.415883 74.071491 
L 221.501684 71.972234 
L 222.587486 68.895186 
L 223.673287 77.058484 
L 224.759088 66.695956 
L 225.844889 71.494787 
L 226.93069 64.177955 
L 228.016491 64.52185 
L 229.102292 70.390782 
L 230.188094 75.522221 
L 231.273895 71.920177 
L 232.359696 88.265265 
L 233.445497 84.253215 
L 234.531298 72.938183 
L 235.617099 78.248127 
L 236.702901 79.599748 
L 237.788702 75.982435 
L 238.874503 81.292204 
L 239.960304 77.506476 
L 241.046105 76.048651 
L 242.131906 73.493026 
L 243.217708 74.63856 
L 244.303509 73.241562 
L 245.38931 66.426537 
L 246.475111 76.387887 
L 247.560912 75.634378 
L 248.646713 70.340225 
L 249.732514 63.09341 
L 250.818316 67.855442 
L 251.904117 68.140083 
L 252.989918 61.543044 
L 254.075719 69.527353 
L 255.16152 64.862177 
L 256.247321 69.570432 
L 257.333123 69.565795 
L 258.418924 65.405762 
L 259.504725 67.888177 
L 260.590526 59.946627 
L 261.676327 71.209604 
L 262.762128 64.730913 
L 263.847929 62.802523 
L 264.933731 67.735956 
L 266.019532 68.119203 
L 267.105333 60.948983 
L 268.191134 69.543764 
L 269.276935 69.483243 
L 270.362736 69.763068 
L 271.448538 82.129248 
L 272.534339 64.930754 
L 273.62014 66.756733 
L 274.705941 58.062987 
L 275.791742 58.66623 
L 276.877543 65.020028 
L 277.963344 58.832342 
L 279.049146 62.816895 
L 280.134947 62.757367 
L 281.220748 67.285512 
L 282.306549 63.944509 
L 283.39235 58.001891 
L 284.478151 60.199188 
L 285.563953 70.411677 
L 286.649754 73.284025 
L 287.735555 67.124803 
L 288.821356 67.326287 
L 289.907157 59.984825 
L 290.992958 56.302969 
L 292.07876 58.489544 
L 293.164561 65.36368 
L 294.250362 57.811773 
L 295.336163 57.812657 
L 296.421964 67.798981 
L 297.507765 65.336779 
L 298.593566 67.207796 
L 299.679368 58.105526 
L 300.765169 62.608602 
L 301.85097 64.310592 
L 302.936771 60.580589 
L 304.022572 68.664522 
L 305.108373 61.926595 
L 306.194175 59.617438 
L 307.279976 60.347267 
L 308.365777 61.759655 
L 309.451578 57.298208 
L 310.537379 64.557076 
L 311.62318 67.824527 
L 312.708981 61.903144 
L 313.794783 67.705311 
L 314.880584 69.537421 
L 315.966385 59.874102 
L 317.052186 64.835295 
L 318.137987 61.088671 
L 319.223788 63.476097 
L 320.30959 66.782719 
L 321.395391 64.141101 
L 322.481192 69.993143 
L 323.566993 64.929082 
L 324.652794 74.062142 
L 325.738595 59.544402 
L 326.824396 75.412416 
L 327.910198 66.525237 
L 328.995999 68.971263 
L 330.0818 65.036902 
L 331.167601 69.570542 
L 332.253402 63.50401 
L 333.339203 67.654421 
L 334.425005 67.378519 
L 335.510806 73.357384 
L 336.596607 64.719735 
L 337.682408 62.974732 
L 338.768209 74.309445 
L 339.85401 62.765493 
L 340.939811 66.297836 
L 342.025613 68.44928 
L 343.111414 73.47456 
L 344.197215 68.792179 
L 345.283016 77.732716 
L 346.368817 68.163862 
L 347.454618 64.648529 
L 348.54042 59.585768 
L 349.626221 64.550444 
L 350.712022 58.894129 
L 351.797823 55.147537 
L 352.883624 66.750498 
L 353.969425 66.151176 
L 355.055227 69.561632 
L 356.141028 65.078166 
L 357.226829 74.575808 
L 358.31263 65.690974 
L 359.398431 64.040056 
L 360.484232 66.114575 
L 361.570033 69.008097 
L 362.655835 72.241536 
L 363.741636 54.91091 
L 364.827437 65.684989 
L 365.913238 59.706745 
L 366.999039 63.77171 
L 368.08484 54.67591 
L 369.170642 53.568 
L 370.256443 66.37904 
L 371.342244 59.101714 
L 372.428045 63.670734 
L 373.513846 64.837762 
L 374.599647 60.158012 
L 375.685448 59.375896 
L 376.77125 63.16004 
L 377.857051 54.977952 
L 378.942852 63.023244 
L 380.028653 72.679136 
L 381.114454 56.800567 
L 382.200255 60.650527 
L 383.286057 57.694259 
L 384.371858 58.745013 
L 385.457659 60.673412 
L 386.54346 63.876823 
L 387.629261 60.800065 
L 388.715062 68.819414 
L 389.800863 57.083168 
L 390.886665 59.05028 
L 391.972466 61.73608 
L 393.058267 60.269804 
L 394.144068 59.672702 
L 395.229869 56.963404 
L 396.31567 55.497469 
L 397.401472 55.923612 
L 398.487273 61.77861 
L 398.487273 61.77861 
" style="fill:none;stroke:#008000;stroke-dasharray:9.6,2.4,1.5,2.4;stroke-dashoffset:0;stroke-width:1.5;"/>
   </g>
   <g id="line2d_32">
    <path clip-path="url(#pb72240862f)" d="M 73.832727 259.932331 
L 74.918528 257.411901 
L 76.00433 251.584968 
L 77.090131 250.91119 
L 78.175932 252.545726 
L 79.261733 171.517668 
L 80.347534 200.128283 
L 81.433335 224.234567 
L 82.519137 153.550251 
L 83.604938 120.210712 
L 84.690739 113.809819 
L 85.77654 104.364448 
L 86.862341 75.666491 
L 87.948142 87.794497 
L 89.033943 75.666491 
L 398.487273 75.666491 
L 398.487273 75.666491 
" style="fill:none;stroke:#ff0000;stroke-linecap:square;stroke-width:1.5;"/>
   </g>
   <g id="patch_3">
    <path d="M 57.6 307.584 
L 57.6 41.472 
" style="fill:none;stroke:#000000;stroke-linecap:square;stroke-linejoin:miter;stroke-width:0.8;"/>
   </g>
   <g id="patch_4">
    <path d="M 414.72 307.584 
L 414.72 41.472 
" style="fill:none;stroke:#000000;stroke-linecap:square;stroke-linejoin:miter;stroke-width:0.8;"/>
   </g>
   <g id="patch_5">
    <path d="M 57.6 307.584 
L 414.72 307.584 
" style="fill:none;stroke:#000000;stroke-linecap:square;stroke-linejoin:miter;stroke-width:0.8;"/>
   </g>
   <g id="patch_6">
    <path d="M 57.6 41.472 
L 414.72 41.472 
" style="fill:none;stroke:#000000;stroke-linecap:square;stroke-linejoin:miter;stroke-width:0.8;"/>
   </g>
   <g id="text_17">
    <!-- Population's average and best fitness -->
    <defs>
     <path d="M 19.671875 64.796875 
L 19.671875 37.40625 
L 32.078125 37.40625 
Q 38.96875 37.40625 42.71875 40.96875 
Q 46.484375 44.53125 46.484375 51.125 
Q 46.484375 57.671875 42.71875 61.234375 
Q 38.96875 64.796875 32.078125 64.796875 
z
M 9.8125 72.90625 
L 32.078125 72.90625 
Q 44.34375 72.90625 50.609375 67.359375 
Q 56.890625 61.8125 56.890625 51.125 
Q 56.890625 40.328125 50.609375 34.8125 
Q 44.34375 29.296875 32.078125 29.296875 
L 19.671875 29.296875 
L 19.671875 0 
L 9.8125 0 
z
" id="DejaVuSans-50"/>
     <path d="M 18.109375 8.203125 
L 18.109375 -20.796875 
L 9.078125 -20.796875 
L 9.078125 54.6875 
L 18.109375 54.6875 
L 18.109375 46.390625 
Q 20.953125 51.265625 25.265625 53.625 
Q 29.59375 56 35.59375 56 
Q 45.5625 56 51.78125 48.09375 
Q 58.015625 40.1875 58.015625 27.296875 
Q 58.015625 14.40625 51.78125 6.484375 
Q 45.5625 -1.421875 35.59375 -1.421875 
Q 29.59375 -1.421875 25.265625 0.953125 
Q 20.953125 3.328125 18.109375 8.203125 
z
M 48.6875 27.296875 
Q 48.6875 37.203125 44.609375 42.84375 
Q 40.53125 48.484375 33.40625 48.484375 
Q 26.265625 48.484375 22.1875 42.84375 
Q 18.109375 37.203125 18.109375 27.296875 
Q 18.109375 17.390625 22.1875 11.75 
Q 26.265625 6.109375 33.40625 6.109375 
Q 40.53125 6.109375 44.609375 11.75 
Q 48.6875 17.390625 48.6875 27.296875 
z
" id="DejaVuSans-70"/>
     <path d="M 8.5 21.578125 
L 8.5 54.6875 
L 17.484375 54.6875 
L 17.484375 21.921875 
Q 17.484375 14.15625 20.5 10.265625 
Q 23.53125 6.390625 29.59375 6.390625 
Q 36.859375 6.390625 41.078125 11.03125 
Q 45.3125 15.671875 45.3125 23.6875 
L 45.3125 54.6875 
L 54.296875 54.6875 
L 54.296875 0 
L 45.3125 0 
L 45.3125 8.40625 
Q 42.046875 3.421875 37.71875 1 
Q 33.40625 -1.421875 27.6875 -1.421875 
Q 18.265625 -1.421875 13.375 4.4375 
Q 8.5 10.296875 8.5 21.578125 
z
M 31.109375 56 
z
" id="DejaVuSans-75"/>
     <path d="M 9.421875 75.984375 
L 18.40625 75.984375 
L 18.40625 0 
L 9.421875 0 
z
" id="DejaVuSans-6c"/>
     <path d="M 17.921875 72.90625 
L 17.921875 45.796875 
L 9.625 45.796875 
L 9.625 72.90625 
z
" id="DejaVuSans-27"/>
     <path id="DejaVuSans-20"/>
     <path d="M 2.984375 54.6875 
L 12.5 54.6875 
L 29.59375 8.796875 
L 46.6875 54.6875 
L 56.203125 54.6875 
L 35.6875 0 
L 23.484375 0 
z
" id="DejaVuSans-76"/>
     <path d="M 45.40625 27.984375 
Q 45.40625 37.75 41.375 43.109375 
Q 37.359375 48.484375 30.078125 48.484375 
Q 22.859375 48.484375 18.828125 43.109375 
Q 14.796875 37.75 14.796875 27.984375 
Q 14.796875 18.265625 18.828125 12.890625 
Q 22.859375 7.515625 30.078125 7.515625 
Q 37.359375 7.515625 41.375 12.890625 
Q 45.40625 18.265625 45.40625 27.984375 
z
M 54.390625 6.78125 
Q 54.390625 -7.171875 48.1875 -13.984375 
Q 42 -20.796875 29.203125 -20.796875 
Q 24.46875 -20.796875 20.265625 -20.09375 
Q 16.0625 -19.390625 12.109375 -17.921875 
L 12.109375 -9.1875 
Q 16.0625 -11.328125 19.921875 -12.34375 
Q 23.78125 -13.375 27.78125 -13.375 
Q 36.625 -13.375 41.015625 -8.765625 
Q 45.40625 -4.15625 45.40625 5.171875 
L 45.40625 9.625 
Q 42.625 4.78125 38.28125 2.390625 
Q 33.9375 0 27.875 0 
Q 17.828125 0 11.671875 7.65625 
Q 5.515625 15.328125 5.515625 27.984375 
Q 5.515625 40.671875 11.671875 48.328125 
Q 17.828125 56 27.875 56 
Q 33.9375 56 38.28125 53.609375 
Q 42.625 51.21875 45.40625 46.390625 
L 45.40625 54.6875 
L 54.390625 54.6875 
z
" id="DejaVuSans-67"/>
     <path d="M 45.40625 46.390625 
L 45.40625 75.984375 
L 54.390625 75.984375 
L 54.390625 0 
L 45.40625 0 
L 45.40625 8.203125 
Q 42.578125 3.328125 38.25 0.953125 
Q 33.9375 -1.421875 27.875 -1.421875 
Q 17.96875 -1.421875 11.734375 6.484375 
Q 5.515625 14.40625 5.515625 27.296875 
Q 5.515625 40.1875 11.734375 48.09375 
Q 17.96875 56 27.875 56 
Q 33.9375 56 38.25 53.625 
Q 42.578125 51.265625 45.40625 46.390625 
z
M 14.796875 27.296875 
Q 14.796875 17.390625 18.875 11.75 
Q 22.953125 6.109375 30.078125 6.109375 
Q 37.203125 6.109375 41.296875 11.75 
Q 45.40625 17.390625 45.40625 27.296875 
Q 45.40625 37.203125 41.296875 42.84375 
Q 37.203125 48.484375 30.078125 48.484375 
Q 22.953125 48.484375 18.875 42.84375 
Q 14.796875 37.203125 14.796875 27.296875 
z
" id="DejaVuSans-64"/>
     <path d="M 48.6875 27.296875 
Q 48.6875 37.203125 44.609375 42.84375 
Q 40.53125 48.484375 33.40625 48.484375 
Q 26.265625 48.484375 22.1875 42.84375 
Q 18.109375 37.203125 18.109375 27.296875 
Q 18.109375 17.390625 22.1875 11.75 
Q 26.265625 6.109375 33.40625 6.109375 
Q 40.53125 6.109375 44.609375 11.75 
Q 48.6875 17.390625 48.6875 27.296875 
z
M 18.109375 46.390625 
Q 20.953125 51.265625 25.265625 53.625 
Q 29.59375 56 35.59375 56 
Q 45.5625 56 51.78125 48.09375 
Q 58.015625 40.1875 58.015625 27.296875 
Q 58.015625 14.40625 51.78125 6.484375 
Q 45.5625 -1.421875 35.59375 -1.421875 
Q 29.59375 -1.421875 25.265625 0.953125 
Q 20.953125 3.328125 18.109375 8.203125 
L 18.109375 0 
L 9.078125 0 
L 9.078125 75.984375 
L 18.109375 75.984375 
z
" id="DejaVuSans-62"/>
     <path d="M 37.109375 75.984375 
L 37.109375 68.5 
L 28.515625 68.5 
Q 23.6875 68.5 21.796875 66.546875 
Q 19.921875 64.59375 19.921875 59.515625 
L 19.921875 54.6875 
L 34.71875 54.6875 
L 34.71875 47.703125 
L 19.921875 47.703125 
L 19.921875 0 
L 10.890625 0 
L 10.890625 47.703125 
L 2.296875 47.703125 
L 2.296875 54.6875 
L 10.890625 54.6875 
L 10.890625 58.5 
Q 10.890625 67.625 15.140625 71.796875 
Q 19.390625 75.984375 28.609375 75.984375 
z
" id="DejaVuSans-66"/>
    </defs>
    <g transform="translate(123.315 35.472)scale(0.12 -0.12)">
     <use xlink:href="#DejaVuSans-50"/>
     <use x="60.255859" xlink:href="#DejaVuSans-6f"/>
     <use x="121.4375" xlink:href="#DejaVuSans-70"/>
     <use x="184.914062" xlink:href="#DejaVuSans-75"/>
     <use x="248.292969" xlink:href="#DejaVuSans-6c"/>
     <use x="276.076172" xlink:href="#DejaVuSans-61"/>
     <use x="337.355469" xlink:href="#DejaVuSans-74"/>
     <use x="376.564453" xlink:href="#DejaVuSans-69"/>
     <use x="404.347656" xlink:href="#DejaVuSans-6f"/>
     <use x="465.529297" xlink:href="#DejaVuSans-6e"/>
     <use x="528.908203" xlink:href="#DejaVuSans-27"/>
     <use x="556.398438" xlink:href="#DejaVuSans-73"/>
     <use x="608.498047" xlink:href="#DejaVuSans-20"/>
     <use x="640.285156" xlink:href="#DejaVuSans-61"/>
     <use x="701.564453" xlink:href="#DejaVuSans-76"/>
     <use x="760.744141" xlink:href="#DejaVuSans-65"/>
     <use x="822.267578" xlink:href="#DejaVuSans-72"/>
     <use x="863.380859" xlink:href="#DejaVuSans-61"/>
     <use x="924.660156" xlink:href="#DejaVuSans-67"/>
     <use x="988.136719" xlink:href="#DejaVuSans-65"/>
     <use x="1049.660156" xlink:href="#DejaVuSans-20"/>
     <use x="1081.447266" xlink:href="#DejaVuSans-61"/>
     <use x="1142.726562" xlink:href="#DejaVuSans-6e"/>
     <use x="1206.105469" xlink:href="#DejaVuSans-64"/>
     <use x="1269.582031" xlink:href="#DejaVuSans-20"/>
     <use x="1301.369141" xlink:href="#DejaVuSans-62"/>
     <use x="1364.845703" xlink:href="#DejaVuSans-65"/>
     <use x="1426.369141" xlink:href="#DejaVuSans-73"/>
     <use x="1478.46875" xlink:href="#DejaVuSans-74"/>
     <use x="1517.677734" xlink:href="#DejaVuSans-20"/>
     <use x="1549.464844" xlink:href="#DejaVuSans-66"/>
     <use x="1584.669922" xlink:href="#DejaVuSans-69"/>
     <use x="1612.453125" xlink:href="#DejaVuSans-74"/>
     <use x="1651.662109" xlink:href="#DejaVuSans-6e"/>
     <use x="1715.041016" xlink:href="#DejaVuSans-65"/>
     <use x="1776.564453" xlink:href="#DejaVuSans-73"/>
     <use x="1828.664062" xlink:href="#DejaVuSans-73"/>
    </g>
   </g>
   <g id="legend_1">
    <g id="patch_7">
     <path d="M 334.779375 302.584 
L 407.72 302.584 
Q 409.72 302.584 409.72 300.584 
L 409.72 242.8715 
Q 409.72 240.8715 407.72 240.8715 
L 334.779375 240.8715 
Q 332.779375 240.8715 332.779375 242.8715 
L 332.779375 300.584 
Q 332.779375 302.584 334.779375 302.584 
z
" style="fill:#ffffff;opacity:0.8;stroke:#cccccc;stroke-linejoin:miter;"/>
    </g>
    <g id="line2d_33">
     <path d="M 336.779375 248.969937 
L 356.779375 248.969937 
" style="fill:none;stroke:#0000ff;stroke-linecap:square;stroke-width:1.5;"/>
    </g>
    <g id="line2d_34"/>
    <g id="text_18">
     <!-- average -->
     <g transform="translate(364.779375 252.469937)scale(0.1 -0.1)">
      <use xlink:href="#DejaVuSans-61"/>
      <use x="61.279297" xlink:href="#DejaVuSans-76"/>
      <use x="120.458984" xlink:href="#DejaVuSans-65"/>
      <use x="181.982422" xlink:href="#DejaVuSans-72"/>
      <use x="223.095703" xlink:href="#DejaVuSans-61"/>
      <use x="284.375" xlink:href="#DejaVuSans-67"/>
      <use x="347.851562" xlink:href="#DejaVuSans-65"/>
     </g>
    </g>
    <g id="line2d_35">
     <path d="M 336.779375 263.648062 
L 356.779375 263.648062 
" style="fill:none;stroke:#008000;stroke-dasharray:9.6,2.4,1.5,2.4;stroke-dashoffset:0;stroke-width:1.5;"/>
    </g>
    <g id="line2d_36"/>
    <g id="text_19">
     <!-- -1 sd -->
     <defs>
      <path d="M 4.890625 31.390625 
L 31.203125 31.390625 
L 31.203125 23.390625 
L 4.890625 23.390625 
z
" id="DejaVuSans-2d"/>
     </defs>
     <g transform="translate(364.779375 267.148062)scale(0.1 -0.1)">
      <use xlink:href="#DejaVuSans-2d"/>
      <use x="36.083984" xlink:href="#DejaVuSans-31"/>
      <use x="99.707031" xlink:href="#DejaVuSans-20"/>
      <use x="131.494141" xlink:href="#DejaVuSans-73"/>
      <use x="183.59375" xlink:href="#DejaVuSans-64"/>
     </g>
    </g>
    <g id="line2d_37">
     <path d="M 336.779375 278.326187 
L 356.779375 278.326187 
" style="fill:none;stroke:#008000;stroke-dasharray:9.6,2.4,1.5,2.4;stroke-dashoffset:0;stroke-width:1.5;"/>
    </g>
    <g id="line2d_38"/>
    <g id="text_20">
     <!-- +1 sd -->
     <defs>
      <path d="M 46 62.703125 
L 46 35.5 
L 73.1875 35.5 
L 73.1875 27.203125 
L 46 27.203125 
L 46 0 
L 37.796875 0 
L 37.796875 27.203125 
L 10.59375 27.203125 
L 10.59375 35.5 
L 37.796875 35.5 
L 37.796875 62.703125 
z
" id="DejaVuSans-2b"/>
     </defs>
     <g transform="translate(364.779375 281.826187)scale(0.1 -0.1)">
      <use xlink:href="#DejaVuSans-2b"/>
      <use x="83.789062" xlink:href="#DejaVuSans-31"/>
      <use x="147.412109" xlink:href="#DejaVuSans-20"/>
      <use x="179.199219" xlink:href="#DejaVuSans-73"/>
      <use x="231.298828" xlink:href="#DejaVuSans-64"/>
     </g>
    </g>
    <g id="line2d_39">
     <path d="M 336.779375 293.004312 
L 356.779375 293.004312 
" style="fill:none;stroke:#ff0000;stroke-linecap:square;stroke-width:1.5;"/>
    </g>
    <g id="line2d_40"/>
    <g id="text_21">
     <!-- best -->
     <g transform="translate(364.779375 296.504312)scale(0.1 -0.1)">
      <use xlink:href="#DejaVuSans-62"/>
      <use x="63.476562" xlink:href="#DejaVuSans-65"/>
      <use x="125" xlink:href="#DejaVuSans-73"/>
      <use x="177.099609" xlink:href="#DejaVuSans-74"/>
     </g>
    </g>
   </g>
  </g>
 </g>
 <defs>
  <clipPath id="pb72240862f">
   <rect height="266.112" width="357.12" x="57.6" y="41.472"/>
  </clipPath>
 </defs>
</svg>
