<?xml version="1.0" encoding="UTF-8" standalone="no"?>
<!DOCTYPE svg PUBLIC "-//W3C//DTD SVG 1.1//EN"
 "http://www.w3.org/Graphics/SVG/1.1/DTD/svg11.dtd">
<!-- Generated by graphviz version 2.38.0 (20140413.2041)
 -->
<!-- Title: %3 Pages: 1 -->
<svg width="206pt" height="38pt"
 viewBox="0.00 0.00 205.85 37.70" xmlns="http://www.w3.org/2000/svg" xmlns:xlink="http://www.w3.org/1999/xlink">
<g id="graph0" class="graph" transform="scale(1 1) rotate(0) translate(4 33.6985)">
<title>%3</title>
<polygon fill="white" stroke="none" points="-4,4 -4,-33.6985 201.849,-33.6985 201.849,4 -4,4"/>
<!-- &#45;1 -->
<g id="node1" class="node"><title>&#45;1</title>
<polygon fill="lightgray" stroke="black" points="24,-23.8492 0,-23.8492 0,-5.84924 24,-5.84924 24,-23.8492"/>
<text text-anchor="middle" x="12" y="-12.6492" font-family="Times,serif" font-size="9.00">&#45;1</text>
</g>
<!-- &#45;2 -->
<g id="node2" class="node"><title>&#45;2</title>
<polygon fill="lightgray" stroke="black" points="66,-23.8492 42,-23.8492 42,-5.84924 66,-5.84924 66,-23.8492"/>
<text text-anchor="middle" x="54" y="-12.6492" font-family="Times,serif" font-size="9.00">&#45;2</text>
</g>
<!-- &#45;3 -->
<g id="node3" class="node"><title>&#45;3</title>
<polygon fill="lightgray" stroke="black" points="108,-23.8492 84,-23.8492 84,-5.84924 108,-5.84924 108,-23.8492"/>
<text text-anchor="middle" x="96" y="-12.6492" font-family="Times,serif" font-size="9.00">&#45;3</text>
</g>
<!-- &#45;4 -->
<g id="node4" class="node"><title>&#45;4</title>
<polygon fill="lightgray" stroke="black" points="150,-23.8492 126,-23.8492 126,-5.84924 150,-5.84924 150,-23.8492"/>
<text text-anchor="middle" x="138" y="-12.6492" font-family="Times,serif" font-size="9.00">&#45;4</text>
</g>
<!-- 0 -->
<g id="node5" class="node"><title>0</title>
<ellipse fill="lightblue" stroke="black" cx="183" cy="-14.8492" rx="14.7" ry="14.7"/>
<text text-anchor="middle" x="183" y="-12.6492" font-family="Times,serif" font-size="9.00">0</text>
</g>
</g>
</svg>
