<?xml version="1.0" encoding="UTF-8" standalone="no"?>
<!DOCTYPE svg PUBLIC "-//W3C//DTD SVG 1.1//EN"
 "http://www.w3.org/Graphics/SVG/1.1/DTD/svg11.dtd">
<!-- Generated by graphviz version 2.38.0 (20140413.2041)
 -->
<!-- Title: %3 Pages: 1 -->
<svg width="158pt" height="99pt"
 viewBox="0.00 0.00 158.00 98.77" xmlns="http://www.w3.org/2000/svg" xmlns:xlink="http://www.w3.org/1999/xlink">
<g id="graph0" class="graph" transform="scale(1 1) rotate(0) translate(4 94.7696)">
<title>%3</title>
<polygon fill="white" stroke="none" points="-4,4 -4,-94.7696 154,-94.7696 154,4 -4,4"/>
<!-- &#45;1 -->
<g id="node1" class="node"><title>&#45;1</title>
<polygon fill="lightgray" stroke="black" points="24,-90.7696 0,-90.7696 0,-72.7696 24,-72.7696 24,-90.7696"/>
<text text-anchor="middle" x="12" y="-79.5696" font-family="Times,serif" font-size="9.00">&#45;1</text>
</g>
<!-- 51 -->
<g id="node6" class="node"><title>51</title>
<ellipse fill="white" stroke="black" cx="54" cy="-18.3848" rx="18.2703" ry="18.2703"/>
<text text-anchor="middle" x="54" y="-16.1848" font-family="Times,serif" font-size="9.00">51</text>
</g>
<!-- &#45;1&#45;&gt;51 -->
<g id="edge3" class="edge"><title>&#45;1&#45;&gt;51</title>
<path fill="none" stroke="green" stroke-width="0.378179" d="M17.4908,-72.7446C22.7022,-65.1278 30.7929,-53.303 38.0347,-42.7188"/>
<polygon fill="green" stroke="green" stroke-width="0.378179" points="41.078,-44.4689 43.8363,-34.2394 35.3009,-40.5161 41.078,-44.4689"/>
</g>
<!-- &#45;2 -->
<g id="node2" class="node"><title>&#45;2</title>
<polygon fill="lightgray" stroke="black" points="150,-90.7696 126,-90.7696 126,-72.7696 150,-72.7696 150,-90.7696"/>
<text text-anchor="middle" x="138" y="-79.5696" font-family="Times,serif" font-size="9.00">&#45;2</text>
</g>
<!-- 0 -->
<g id="node5" class="node"><title>0</title>
<ellipse fill="lightblue" stroke="black" cx="130" cy="-18.3848" rx="14.7" ry="14.7"/>
<text text-anchor="middle" x="130" y="-16.1848" font-family="Times,serif" font-size="9.00">0</text>
</g>
<!-- &#45;2&#45;&gt;0 -->
<g id="edge1" class="edge"><title>&#45;2&#45;&gt;0</title>
<path fill="none" stroke="green" stroke-width="0.401605" d="M136.954,-72.7446C135.986,-65.3157 134.496,-53.8838 133.143,-43.5042"/>
<polygon fill="green" stroke="green" stroke-width="0.401605" points="136.574,-42.7442 131.811,-33.2804 129.633,-43.6489 136.574,-42.7442"/>
</g>
<!-- &#45;3 -->
<g id="node3" class="node"><title>&#45;3</title>
<polygon fill="lightgray" stroke="black" points="66,-90.7696 42,-90.7696 42,-72.7696 66,-72.7696 66,-90.7696"/>
<text text-anchor="middle" x="54" y="-79.5696" font-family="Times,serif" font-size="9.00">&#45;3</text>
</g>
<!-- &#45;3&#45;&gt;51 -->
<g id="edge2" class="edge"><title>&#45;3&#45;&gt;51</title>
<path fill="none" stroke="red" stroke-width="0.11591" d="M54,-72.7446C54,-66.1804 54,-56.491 54,-47.1637"/>
<polygon fill="red" stroke="red" stroke-width="0.11591" points="57.5001,-46.9726 54,-36.9726 50.5001,-46.9727 57.5001,-46.9726"/>
</g>
<!-- &#45;4 -->
<g id="node4" class="node"><title>&#45;4</title>
<polygon fill="lightgray" stroke="black" points="108,-90.7696 84,-90.7696 84,-72.7696 108,-72.7696 108,-90.7696"/>
<text text-anchor="middle" x="96" y="-79.5696" font-family="Times,serif" font-size="9.00">&#45;4</text>
</g>
<!-- &#45;4&#45;&gt;0 -->
<g id="edge4" class="edge"><title>&#45;4&#45;&gt;0</title>
<path fill="none" stroke="green" stroke-width="0.52128" d="M100.445,-72.7446C104.9,-64.7013 111.954,-51.9654 118.054,-40.9532"/>
<polygon fill="green" stroke="green" stroke-width="0.52128" points="121.295,-42.3245 123.079,-31.8809 115.172,-38.9328 121.295,-42.3245"/>
</g>
<!-- &#45;4&#45;&gt;51 -->
<g id="edge5" class="edge"><title>&#45;4&#45;&gt;51</title>
<path fill="none" stroke="green" stroke-width="0.283596" d="M90.5092,-72.7446C85.2978,-65.1278 77.2071,-53.303 69.9653,-42.7188"/>
<polygon fill="green" stroke="green" stroke-width="0.283596" points="72.6991,-40.5161 64.1637,-34.2394 66.922,-44.4689 72.6991,-40.5161"/>
</g>
<!-- 51&#45;&gt;51 -->
<g id="edge6" class="edge"><title>51&#45;&gt;51</title>
<path fill="none" stroke="red" stroke-width="0.379132" d="M69.3287,-28.8745C79.9384,-32.0532 90.3848,-28.5567 90.3848,-18.3848 90.3848,-11.5505 85.6691,-7.72965 79.3566,-6.92209"/>
<polygon fill="red" stroke="red" stroke-width="0.379132" points="78.944,-3.4456 69.3287,-7.89503 79.62,-10.4129 78.944,-3.4456"/>
</g>
</g>
</svg>
