<?xml version="1.0" encoding="UTF-8" standalone="no"?>
<!DOCTYPE svg PUBLIC "-//W3C//DTD SVG 1.1//EN"
 "http://www.w3.org/Graphics/SVG/1.1/DTD/svg11.dtd">
<!-- Generated by graphviz version 2.38.0 (20140413.2041)
 -->
<!-- Title: %3 Pages: 1 -->
<svg width="184pt" height="177pt"
 viewBox="0.00 0.00 183.75 177.20" xmlns="http://www.w3.org/2000/svg" xmlns:xlink="http://www.w3.org/1999/xlink">
<g id="graph0" class="graph" transform="scale(1 1) rotate(0) translate(4 173.196)">
<title>%3</title>
<polygon fill="white" stroke="none" points="-4,4 -4,-173.196 179.749,-173.196 179.749,4 -4,4"/>
<!-- &#45;1 -->
<g id="node1" class="node"><title>&#45;1</title>
<polygon fill="lightgray" stroke="black" points="24,-99.4472 0,-99.4472 0,-81.4472 24,-81.4472 24,-99.4472"/>
<text text-anchor="middle" x="12" y="-88.2472" font-family="Times,serif" font-size="9.00">&#45;1</text>
</g>
<!-- 0 -->
<g id="node5" class="node"><title>0</title>
<ellipse fill="lightblue" stroke="black" cx="75" cy="-14.8492" rx="14.7" ry="14.7"/>
<text text-anchor="middle" x="75" y="-12.6492" font-family="Times,serif" font-size="9.00">0</text>
</g>
<!-- &#45;1&#45;&gt;0 -->
<g id="edge2" class="edge"><title>&#45;1&#45;&gt;0</title>
<path fill="none" stroke="red" stroke-width="0.605801" d="M18.9828,-81.2897C28.6059,-70.0479 46.2179,-49.4731 59.133,-34.3854"/>
<polygon fill="red" stroke="red" stroke-width="0.605801" points="61.9003,-36.5348 65.7443,-26.6619 56.5825,-31.9828 61.9003,-36.5348"/>
</g>
<!-- &#45;2 -->
<g id="node2" class="node"><title>&#45;2</title>
<polygon fill="lightgray" stroke="black" points="163,-169.196 139,-169.196 139,-151.196 163,-151.196 163,-169.196"/>
<text text-anchor="middle" x="151" y="-157.996" font-family="Times,serif" font-size="9.00">&#45;2</text>
</g>
<!-- 3330 -->
<g id="node6" class="node"><title>3330</title>
<ellipse fill="white" stroke="black" cx="151" cy="-90.4472" rx="25" ry="25"/>
<text text-anchor="middle" x="151" y="-88.2472" font-family="Times,serif" font-size="9.00">3330</text>
</g>
<!-- &#45;2&#45;&gt;3330 -->
<g id="edge4" class="edge"><title>&#45;2&#45;&gt;3330</title>
<path fill="none" stroke="green" stroke-width="0.3" d="M151,-151.158C151,-144.723 151,-135.225 151,-125.689"/>
<polygon fill="green" stroke="green" stroke-width="0.3" points="154.5,-125.468 151,-115.468 147.5,-125.469 154.5,-125.468"/>
</g>
<!-- &#45;3 -->
<g id="node3" class="node"><title>&#45;3</title>
<polygon fill="lightgray" stroke="black" points="66,-99.4472 42,-99.4472 42,-81.4472 66,-81.4472 66,-99.4472"/>
<text text-anchor="middle" x="54" y="-88.2472" font-family="Times,serif" font-size="9.00">&#45;3</text>
</g>
<!-- &#45;3&#45;&gt;0 -->
<g id="edge5" class="edge"><title>&#45;3&#45;&gt;0</title>
<path fill="none" stroke="red" stroke-width="2.29984" d="M56.3276,-81.2897C59.2149,-71.1707 64.2599,-53.4899 68.3785,-39.0555"/>
<polygon fill="red" stroke="red" stroke-width="2.29984" points="71.7914,-39.8499 71.1696,-29.2734 65.0601,-37.9292 71.7914,-39.8499"/>
</g>
<!-- &#45;4 -->
<g id="node4" class="node"><title>&#45;4</title>
<polygon fill="lightgray" stroke="black" points="108,-99.4472 84,-99.4472 84,-81.4472 108,-81.4472 108,-99.4472"/>
<text text-anchor="middle" x="96" y="-88.2472" font-family="Times,serif" font-size="9.00">&#45;4</text>
</g>
<!-- &#45;4&#45;&gt;0 -->
<g id="edge3" class="edge"><title>&#45;4&#45;&gt;0</title>
<path fill="none" stroke="red" stroke-width="0.580253" d="M93.6724,-81.2897C90.7851,-71.1707 85.7401,-53.4899 81.6215,-39.0555"/>
<polygon fill="red" stroke="red" stroke-width="0.580253" points="84.9399,-37.9292 78.8304,-29.2734 78.2086,-39.8499 84.9399,-37.9292"/>
</g>
<!-- 3330&#45;&gt;0 -->
<g id="edge1" class="edge"><title>3330&#45;&gt;0</title>
<path fill="none" stroke="red" stroke-width="0.738233" d="M133.373,-72.3774C121.143,-60.5339 104.916,-44.8194 92.6752,-32.9658"/>
<polygon fill="red" stroke="red" stroke-width="0.738233" points="94.9078,-30.2556 85.2892,-25.8133 90.0381,-35.2842 94.9078,-30.2556"/>
</g>
</g>
</svg>
