<?xml version="1.0" encoding="UTF-8" standalone="no"?>
<!DOCTYPE svg PUBLIC "-//W3C//DTD SVG 1.1//EN"
 "http://www.w3.org/Graphics/SVG/1.1/DTD/svg11.dtd">
<!-- Generated by graphviz version 2.38.0 (20140413.2041)
 -->
<!-- Title: %3 Pages: 1 -->
<svg width="167pt" height="104pt"
 viewBox="0.00 0.00 167.21 104.43" xmlns="http://www.w3.org/2000/svg" xmlns:xlink="http://www.w3.org/1999/xlink">
<g id="graph0" class="graph" transform="scale(1 1) rotate(0) translate(4 100.426)">
<title>%3</title>
<polygon fill="white" stroke="none" points="-4,4 -4,-100.426 163.213,-100.426 163.213,4 -4,4"/>
<!-- &#45;1 -->
<g id="node1" class="node"><title>&#45;1</title>
<polygon fill="lightgray" stroke="black" points="33.2132,-96.4264 9.2132,-96.4264 9.2132,-78.4264 33.2132,-78.4264 33.2132,-96.4264"/>
<text text-anchor="middle" x="21.2132" y="-85.2264" font-family="Times,serif" font-size="9.00">&#45;1</text>
</g>
<!-- 352 -->
<g id="node6" class="node"><title>352</title>
<ellipse fill="white" stroke="black" cx="21.2132" cy="-21.2132" rx="21.4286" ry="21.4286"/>
<text text-anchor="middle" x="21.2132" y="-19.0132" font-family="Times,serif" font-size="9.00">352</text>
</g>
<!-- &#45;1&#45;&gt;352 -->
<g id="edge1" class="edge"><title>&#45;1&#45;&gt;352</title>
<path fill="none" stroke="green" stroke-width="0.189731" d="M21.2132,-78.2938C21.2132,-71.7509 21.2132,-62.122 21.2132,-52.6823"/>
<polygon fill="green" stroke="green" stroke-width="0.189731" points="24.7133,-52.6685 21.2132,-42.6686 17.7133,-52.6686 24.7133,-52.6685"/>
</g>
<!-- &#45;2 -->
<g id="node2" class="node"><title>&#45;2</title>
<polygon fill="lightgray" stroke="black" points="75.2132,-96.4264 51.2132,-96.4264 51.2132,-78.4264 75.2132,-78.4264 75.2132,-96.4264"/>
<text text-anchor="middle" x="63.2132" y="-85.2264" font-family="Times,serif" font-size="9.00">&#45;2</text>
</g>
<!-- 0 -->
<g id="node5" class="node"><title>0</title>
<ellipse fill="lightblue" stroke="black" cx="105.213" cy="-21.2132" rx="14.7" ry="14.7"/>
<text text-anchor="middle" x="105.213" y="-19.0132" font-family="Times,serif" font-size="9.00">0</text>
</g>
<!-- &#45;2&#45;&gt;0 -->
<g id="edge2" class="edge"><title>&#45;2&#45;&gt;0</title>
<path fill="none" stroke="red" stroke-width="0.636324" d="M68.5325,-78.2938C74.3723,-69.3654 83.9709,-54.6903 91.8844,-42.5914"/>
<polygon fill="red" stroke="red" stroke-width="0.636324" points="94.9726,-44.2639 97.5174,-33.9792 89.1144,-40.4322 94.9726,-44.2639"/>
</g>
<!-- &#45;3 -->
<g id="node3" class="node"><title>&#45;3</title>
<polygon fill="lightgray" stroke="black" points="117.213,-96.4264 93.2132,-96.4264 93.2132,-78.4264 117.213,-78.4264 117.213,-96.4264"/>
<text text-anchor="middle" x="105.213" y="-85.2264" font-family="Times,serif" font-size="9.00">&#45;3</text>
</g>
<!-- &#45;3&#45;&gt;0 -->
<g id="edge3" class="edge"><title>&#45;3&#45;&gt;0</title>
<path fill="none" stroke="red" stroke-width="0.549981" d="M105.213,-78.2938C105.213,-70.3145 105.213,-57.7455 105.213,-46.5273"/>
<polygon fill="red" stroke="red" stroke-width="0.549981" points="108.713,-46.3795 105.213,-36.3796 101.713,-46.3796 108.713,-46.3795"/>
</g>
<!-- &#45;4 -->
<g id="node4" class="node"><title>&#45;4</title>
<polygon fill="lightgray" stroke="black" points="159.213,-96.4264 135.213,-96.4264 135.213,-78.4264 159.213,-78.4264 159.213,-96.4264"/>
<text text-anchor="middle" x="147.213" y="-85.2264" font-family="Times,serif" font-size="9.00">&#45;4</text>
</g>
<!-- &#45;4&#45;&gt;0 -->
<g id="edge4" class="edge"><title>&#45;4&#45;&gt;0</title>
<path fill="none" stroke="red" stroke-width="0.631312" d="M141.894,-78.2938C136.054,-69.3654 126.456,-54.6903 118.542,-42.5914"/>
<polygon fill="red" stroke="red" stroke-width="0.631312" points="121.312,-40.4322 112.909,-33.9792 115.454,-44.2639 121.312,-40.4322"/>
</g>
</g>
</svg>
