<?xml version="1.0" encoding="UTF-8" standalone="no"?>
<!DOCTYPE svg PUBLIC "-//W3C//DTD SVG 1.1//EN"
 "http://www.w3.org/Graphics/SVG/1.1/DTD/svg11.dtd">
<!-- Generated by graphviz version 2.38.0 (20140413.2041)
 -->
<!-- Title: %3 Pages: 1 -->
<svg width="208pt" height="263pt"
 viewBox="0.00 0.00 208.33 262.69" xmlns="http://www.w3.org/2000/svg" xmlns:xlink="http://www.w3.org/1999/xlink">
<g id="graph0" class="graph" transform="scale(1 1) rotate(0) translate(4 258.693)">
<title>%3</title>
<polygon fill="white" stroke="none" points="-4,4 -4,-258.693 204.329,-258.693 204.329,4 -4,4"/>
<!-- &#45;1 -->
<g id="node1" class="node"><title>&#45;1</title>
<polygon fill="lightgray" stroke="black" points="65.3292,-254.693 41.3292,-254.693 41.3292,-236.693 65.3292,-236.693 65.3292,-254.693"/>
<text text-anchor="middle" x="53.3292" y="-243.493" font-family="Times,serif" font-size="9.00">&#45;1</text>
</g>
<!-- 0 -->
<g id="node5" class="node"><title>0</title>
<ellipse fill="lightblue" stroke="black" cx="108.329" cy="-14.8492" rx="14.7" ry="14.7"/>
<text text-anchor="middle" x="108.329" y="-12.6492" font-family="Times,serif" font-size="9.00">0</text>
</g>
<!-- &#45;1&#45;&gt;0 -->
<g id="edge5" class="edge"><title>&#45;1&#45;&gt;0</title>
<path fill="none" stroke="red" stroke-width="0.173078" d="M44.3626,-236.632C36.053,-228.506 24.2566,-215.129 19.3292,-200.693 -0.0527249,-143.913 -11.0076,-117.461 19.3292,-65.6985 33.258,-41.932 63.1178,-28.6433 84.4067,-21.8738"/>
<polygon fill="red" stroke="red" stroke-width="0.173078" points="85.4423,-25.2177 94.0618,-19.057 83.4817,-18.4978 85.4423,-25.2177"/>
</g>
<!-- 4465 -->
<g id="node6" class="node"><title>4465</title>
<ellipse fill="white" stroke="black" cx="53.3292" cy="-175.945" rx="25" ry="25"/>
<text text-anchor="middle" x="53.3292" y="-173.745" font-family="Times,serif" font-size="9.00">4465</text>
</g>
<!-- &#45;1&#45;&gt;4465 -->
<g id="edge3" class="edge"><title>&#45;1&#45;&gt;4465</title>
<path fill="none" stroke="green" stroke-width="0.3" d="M53.3292,-236.656C53.3292,-230.221 53.3292,-220.723 53.3292,-211.186"/>
<polygon fill="green" stroke="green" stroke-width="0.3" points="56.8293,-210.966 53.3292,-200.966 49.8293,-210.966 56.8293,-210.966"/>
</g>
<!-- 3554 -->
<g id="node7" class="node"><title>3554</title>
<ellipse fill="white" stroke="black" cx="53.3292" cy="-90.4472" rx="25" ry="25"/>
<text text-anchor="middle" x="53.3292" y="-88.2472" font-family="Times,serif" font-size="9.00">3554</text>
</g>
<!-- &#45;1&#45;&gt;3554 -->
<g id="edge7" class="edge"><title>&#45;1&#45;&gt;3554</title>
<path fill="none" stroke="green" stroke-width="0.436926" stroke-dasharray="1,5" d="M62.2958,-236.632C70.6054,-228.506 82.4018,-215.129 87.3292,-200.693 94.4358,-179.874 92.9565,-172.463 87.3292,-151.196 84.4141,-140.179 78.9435,-129.068 73.2294,-119.466"/>
<polygon fill="green" stroke="green" stroke-width="0.436926" points="76.0446,-117.369 67.7517,-110.775 70.1226,-121.101 76.0446,-117.369"/>
</g>
<!-- &#45;2 -->
<g id="node2" class="node"><title>&#45;2</title>
<polygon fill="lightgray" stroke="black" points="120.329,-99.4472 96.3292,-99.4472 96.3292,-81.4472 120.329,-81.4472 120.329,-99.4472"/>
<text text-anchor="middle" x="108.329" y="-88.2472" font-family="Times,serif" font-size="9.00">&#45;2</text>
</g>
<!-- &#45;2&#45;&gt;0 -->
<g id="edge9" class="edge"><title>&#45;2&#45;&gt;0</title>
<path fill="none" stroke="red" stroke-width="0.29086" d="M108.329,-81.2897C108.329,-71.3882 108.329,-54.2466 108.329,-39.9908"/>
<polygon fill="red" stroke="red" stroke-width="0.29086" points="111.829,-39.8196 108.329,-29.8196 104.829,-39.8196 111.829,-39.8196"/>
</g>
<!-- &#45;3 -->
<g id="node3" class="node"><title>&#45;3</title>
<polygon fill="lightgray" stroke="black" points="159.329,-184.945 135.329,-184.945 135.329,-166.945 159.329,-166.945 159.329,-184.945"/>
<text text-anchor="middle" x="147.329" y="-173.745" font-family="Times,serif" font-size="9.00">&#45;3</text>
</g>
<!-- &#45;3&#45;&gt;0 -->
<g id="edge8" class="edge"><title>&#45;3&#45;&gt;0</title>
<path fill="none" stroke="red" stroke-width="1.21177" d="M146.653,-166.851C144.98,-148.537 139.99,-102.635 129.329,-65.6985 126.634,-56.3601 122.685,-46.4245 118.937,-37.901"/>
<polygon fill="red" stroke="red" stroke-width="1.21177" points="122.057,-36.3053 114.717,-28.6642 115.69,-39.2144 122.057,-36.3053"/>
</g>
<!-- &#45;3&#45;&gt;3554 -->
<g id="edge4" class="edge"><title>&#45;3&#45;&gt;3554</title>
<path fill="none" stroke="red" stroke-width="0.190679" stroke-dasharray="1,5" d="M138.316,-166.939C124.827,-154.956 98.8679,-131.898 79.1727,-114.403"/>
<polygon fill="red" stroke="red" stroke-width="0.190679" points="81.2385,-111.557 71.4377,-107.532 76.5897,-116.79 81.2385,-111.557"/>
</g>
<!-- &#45;4 -->
<g id="node4" class="node"><title>&#45;4</title>
<polygon fill="lightgray" stroke="black" points="200.329,-99.4472 176.329,-99.4472 176.329,-81.4472 200.329,-81.4472 200.329,-99.4472"/>
<text text-anchor="middle" x="188.329" y="-88.2472" font-family="Times,serif" font-size="9.00">&#45;4</text>
</g>
<!-- &#45;4&#45;&gt;0 -->
<g id="edge6" class="edge"><title>&#45;4&#45;&gt;0</title>
<path fill="none" stroke="red" stroke-width="0.736612" d="M179.462,-81.2897C166.666,-69.5181 142.747,-47.5131 126.2,-32.2903"/>
<polygon fill="red" stroke="red" stroke-width="0.736612" points="128.48,-29.6314 118.751,-25.4367 123.74,-34.783 128.48,-29.6314"/>
</g>
<!-- 4465&#45;&gt;3554 -->
<g id="edge1" class="edge"><title>4465&#45;&gt;3554</title>
<path fill="none" stroke="green" stroke-width="0.142178" d="M53.3292,-150.794C53.3292,-142.85 53.3292,-133.865 53.3292,-125.335"/>
<polygon fill="green" stroke="green" stroke-width="0.142178" points="56.8293,-125.255 53.3292,-115.256 49.8293,-125.256 56.8293,-125.255"/>
</g>
<!-- 3554&#45;&gt;0 -->
<g id="edge2" class="edge"><title>3554&#45;&gt;0</title>
<path fill="none" stroke="red" stroke-width="0.227972" d="M67.7798,-70.1102C75.7366,-59.4628 85.5908,-46.2765 93.5925,-35.5691"/>
<polygon fill="red" stroke="red" stroke-width="0.227972" points="96.6132,-37.3737 99.7958,-27.2682 91.006,-33.1834 96.6132,-37.3737"/>
</g>
</g>
</svg>
