<?xml version="1.0" encoding="UTF-8" standalone="no"?>
<!DOCTYPE svg PUBLIC "-//W3C//DTD SVG 1.1//EN"
 "http://www.w3.org/Graphics/SVG/1.1/DTD/svg11.dtd">
<!-- Generated by graphviz version 2.38.0 (20140413.2041)
 -->
<!-- Title: %3 Pages: 1 -->
<svg width="209pt" height="263pt"
 viewBox="0.00 0.00 209.35 262.69" xmlns="http://www.w3.org/2000/svg" xmlns:xlink="http://www.w3.org/1999/xlink">
<g id="graph0" class="graph" transform="scale(1 1) rotate(0) translate(4 258.693)">
<title>%3</title>
<polygon fill="white" stroke="none" points="-4,4 -4,-258.693 205.353,-258.693 205.353,4 -4,4"/>
<!-- &#45;1 -->
<g id="node1" class="node"><title>&#45;1</title>
<polygon fill="lightgray" stroke="black" points="35.3532,-254.693 11.3532,-254.693 11.3532,-236.693 35.3532,-236.693 35.3532,-254.693"/>
<text text-anchor="middle" x="23.3532" y="-243.493" font-family="Times,serif" font-size="9.00">&#45;1</text>
</g>
<!-- 0 -->
<g id="node5" class="node"><title>0</title>
<ellipse fill="lightblue" stroke="black" cx="105.353" cy="-14.8492" rx="14.7" ry="14.7"/>
<text text-anchor="middle" x="105.353" y="-12.6492" font-family="Times,serif" font-size="9.00">0</text>
</g>
<!-- &#45;1&#45;&gt;0 -->
<g id="edge5" class="edge"><title>&#45;1&#45;&gt;0</title>
<path fill="none" stroke="red" stroke-width="0.476701" d="M20.1325,-236.457C10.203,-209.619 -17.2978,-123.117 16.3532,-65.6985 30.282,-41.932 60.1418,-28.6433 81.4307,-21.8738"/>
<polygon fill="red" stroke="red" stroke-width="0.476701" points="82.4663,-25.2177 91.0858,-19.057 80.5057,-18.4978 82.4663,-25.2177"/>
</g>
<!-- 4114 -->
<g id="node6" class="node"><title>4114</title>
<ellipse fill="white" stroke="black" cx="50.3532" cy="-175.945" rx="25" ry="25"/>
<text text-anchor="middle" x="50.3532" y="-173.745" font-family="Times,serif" font-size="9.00">4114</text>
</g>
<!-- &#45;1&#45;&gt;4114 -->
<g id="edge1" class="edge"><title>&#45;1&#45;&gt;4114</title>
<path fill="none" stroke="green" stroke-width="0.102859" d="M26.5565,-236.656C29.3585,-229.625 33.6177,-218.938 37.7621,-208.539"/>
<polygon fill="green" stroke="green" stroke-width="0.102859" points="41.0399,-209.768 41.4908,-199.182 34.5373,-207.176 41.0399,-209.768"/>
</g>
<!-- &#45;2 -->
<g id="node2" class="node"><title>&#45;2</title>
<polygon fill="lightgray" stroke="black" points="117.353,-99.4472 93.3532,-99.4472 93.3532,-81.4472 117.353,-81.4472 117.353,-99.4472"/>
<text text-anchor="middle" x="105.353" y="-88.2472" font-family="Times,serif" font-size="9.00">&#45;2</text>
</g>
<!-- &#45;2&#45;&gt;0 -->
<g id="edge7" class="edge"><title>&#45;2&#45;&gt;0</title>
<path fill="none" stroke="red" stroke-width="0.609507" d="M105.353,-81.2897C105.353,-71.3882 105.353,-54.2466 105.353,-39.9908"/>
<polygon fill="red" stroke="red" stroke-width="0.609507" points="108.853,-39.8196 105.353,-29.8196 101.853,-39.8196 108.853,-39.8196"/>
</g>
<!-- &#45;3 -->
<g id="node3" class="node"><title>&#45;3</title>
<polygon fill="lightgray" stroke="black" points="159.353,-99.4472 135.353,-99.4472 135.353,-81.4472 159.353,-81.4472 159.353,-99.4472"/>
<text text-anchor="middle" x="147.353" y="-88.2472" font-family="Times,serif" font-size="9.00">&#45;3</text>
</g>
<!-- &#45;3&#45;&gt;0 -->
<g id="edge6" class="edge"><title>&#45;3&#45;&gt;0</title>
<path fill="none" stroke="red" stroke-width="1.61652" d="M142.698,-81.2897C136.671,-70.7286 125.944,-51.9305 117.528,-37.1831"/>
<polygon fill="red" stroke="red" stroke-width="1.61652" points="120.4,-35.1547 112.404,-28.2042 114.32,-38.6242 120.4,-35.1547"/>
</g>
<!-- &#45;4 -->
<g id="node4" class="node"><title>&#45;4</title>
<polygon fill="lightgray" stroke="black" points="201.353,-99.4472 177.353,-99.4472 177.353,-81.4472 201.353,-81.4472 201.353,-99.4472"/>
<text text-anchor="middle" x="189.353" y="-88.2472" font-family="Times,serif" font-size="9.00">&#45;4</text>
</g>
<!-- &#45;4&#45;&gt;0 -->
<g id="edge3" class="edge"><title>&#45;4&#45;&gt;0</title>
<path fill="none" stroke="red" stroke-width="0.653506" d="M182.69,-81.2055C178.719,-76.4791 173.469,-70.5419 168.353,-65.6985 154.693,-52.7653 137.939,-39.6229 125.144,-30.0818"/>
<polygon fill="red" stroke="red" stroke-width="0.653506" points="127.134,-27.2013 117.004,-24.0986 122.988,-32.8414 127.134,-27.2013"/>
</g>
<!-- 3982 -->
<g id="node7" class="node"><title>3982</title>
<ellipse fill="white" stroke="black" cx="50.3532" cy="-90.4472" rx="25" ry="25"/>
<text text-anchor="middle" x="50.3532" y="-88.2472" font-family="Times,serif" font-size="9.00">3982</text>
</g>
<!-- 4114&#45;&gt;3982 -->
<g id="edge4" class="edge"><title>4114&#45;&gt;3982</title>
<path fill="none" stroke="green" stroke-width="0.160388" d="M50.3532,-150.794C50.3532,-142.85 50.3532,-133.865 50.3532,-125.335"/>
<polygon fill="green" stroke="green" stroke-width="0.160388" points="53.8533,-125.255 50.3532,-115.256 46.8533,-125.256 53.8533,-125.255"/>
</g>
<!-- 3982&#45;&gt;0 -->
<g id="edge2" class="edge"><title>3982&#45;&gt;0</title>
<path fill="none" stroke="red" stroke-width="0.190278" d="M64.8038,-70.1102C72.7606,-59.4628 82.6148,-46.2765 90.6165,-35.5691"/>
<polygon fill="red" stroke="red" stroke-width="0.190278" points="93.6372,-37.3737 96.8198,-27.2682 88.03,-33.1834 93.6372,-37.3737"/>
</g>
</g>
</svg>
