<?xml version="1.0" encoding="UTF-8" standalone="no"?>
<!DOCTYPE svg PUBLIC "-//W3C//DTD SVG 1.1//EN"
 "http://www.w3.org/Graphics/SVG/1.1/DTD/svg11.dtd">
<!-- Generated by graphviz version 2.38.0 (20140413.2041)
 -->
<!-- Title: %3 Pages: 1 -->
<svg width="167pt" height="197pt"
 viewBox="0.00 0.00 166.75 196.99" xmlns="http://www.w3.org/2000/svg" xmlns:xlink="http://www.w3.org/1999/xlink">
<g id="graph0" class="graph" transform="scale(1 1) rotate(0) translate(4 192.995)">
<title>%3</title>
<polygon fill="white" stroke="none" points="-4,4 -4,-192.995 162.749,-192.995 162.749,4 -4,4"/>
<!-- &#45;1 -->
<g id="node1" class="node"><title>&#45;1</title>
<polygon fill="lightgray" stroke="black" points="24,-188.995 0,-188.995 0,-170.995 24,-170.995 24,-188.995"/>
<text text-anchor="middle" x="12" y="-177.795" font-family="Times,serif" font-size="9.00">&#45;1</text>
</g>
<!-- 0 -->
<g id="node5" class="node"><title>0</title>
<ellipse fill="lightblue" stroke="black" cx="64" cy="-110.246" rx="14.7" ry="14.7"/>
<text text-anchor="middle" x="64" y="-108.046" font-family="Times,serif" font-size="9.00">0</text>
</g>
<!-- &#45;1&#45;&gt;0 -->
<g id="edge2" class="edge"><title>&#45;1&#45;&gt;0</title>
<path fill="none" stroke="red" stroke-width="0.533856" d="M18.1693,-170.957C25.7609,-161.066 38.906,-143.94 49.177,-130.559"/>
<polygon fill="red" stroke="red" stroke-width="0.533856" points="52.1119,-132.483 55.4242,-122.419 46.559,-128.221 52.1119,-132.483"/>
</g>
<!-- 3554 -->
<g id="node6" class="node"><title>3554</title>
<ellipse fill="white" stroke="black" cx="74" cy="-24.7487" rx="25" ry="25"/>
<text text-anchor="middle" x="74" y="-22.5487" font-family="Times,serif" font-size="9.00">3554</text>
</g>
<!-- &#45;1&#45;&gt;3554 -->
<g id="edge5" class="edge"><title>&#45;1&#45;&gt;3554</title>
<path fill="none" stroke="green" stroke-width="0.225097" d="M13.7985,-170.774C17.5617,-154.224 27.0064,-115.877 40,-85.4975 44.4459,-75.1028 50.2568,-64.22 55.8139,-54.6335"/>
<polygon fill="green" stroke="green" stroke-width="0.225097" points="58.9061,-56.2814 61.0112,-45.8978 52.8902,-52.7023 58.9061,-56.2814"/>
</g>
<!-- &#45;2 -->
<g id="node2" class="node"><title>&#45;2</title>
<polygon fill="lightgray" stroke="black" points="66,-188.995 42,-188.995 42,-170.995 66,-170.995 66,-188.995"/>
<text text-anchor="middle" x="54" y="-177.795" font-family="Times,serif" font-size="9.00">&#45;2</text>
</g>
<!-- &#45;2&#45;&gt;0 -->
<g id="edge7" class="edge"><title>&#45;2&#45;&gt;0</title>
<path fill="none" stroke="red" stroke-width="0.742786" d="M55.1864,-170.957C56.4749,-162.228 58.5952,-147.863 60.4333,-135.41"/>
<polygon fill="red" stroke="red" stroke-width="0.742786" points="63.9501,-135.553 61.9479,-125.149 57.0251,-134.531 63.9501,-135.553"/>
</g>
<!-- &#45;3 -->
<g id="node3" class="node"><title>&#45;3</title>
<polygon fill="lightgray" stroke="black" points="150,-188.995 126,-188.995 126,-170.995 150,-170.995 150,-188.995"/>
<text text-anchor="middle" x="138" y="-177.795" font-family="Times,serif" font-size="9.00">&#45;3</text>
</g>
<!-- &#45;3&#45;&gt;0 -->
<g id="edge6" class="edge"><title>&#45;3&#45;&gt;0</title>
<path fill="none" stroke="red" stroke-width="1.15708" d="M129.221,-170.957C117.721,-160.429 97.2665,-141.702 82.3223,-128.021"/>
<polygon fill="red" stroke="red" stroke-width="1.15708" points="84.4179,-125.194 74.6787,-121.023 79.6911,-130.357 84.4179,-125.194"/>
</g>
<!-- 5103 -->
<g id="node7" class="node"><title>5103</title>
<ellipse fill="white" stroke="black" cx="134" cy="-110.246" rx="25" ry="25"/>
<text text-anchor="middle" x="134" y="-108.046" font-family="Times,serif" font-size="9.00">5103</text>
</g>
<!-- &#45;3&#45;&gt;5103 -->
<g id="edge1" class="edge"><title>&#45;3&#45;&gt;5103</title>
<path fill="none" stroke="green" stroke-width="0.3" d="M137.525,-170.957C137.138,-164.402 136.564,-154.668 135.99,-144.952"/>
<polygon fill="green" stroke="green" stroke-width="0.3" points="139.484,-144.744 135.401,-134.968 132.496,-145.157 139.484,-144.744"/>
</g>
<!-- &#45;4 -->
<g id="node4" class="node"><title>&#45;4</title>
<polygon fill="lightgray" stroke="black" points="108,-188.995 84,-188.995 84,-170.995 108,-170.995 108,-188.995"/>
<text text-anchor="middle" x="96" y="-177.795" font-family="Times,serif" font-size="9.00">&#45;4</text>
</g>
<!-- &#45;4&#45;&gt;0 -->
<g id="edge4" class="edge"><title>&#45;4&#45;&gt;0</title>
<path fill="none" stroke="red" stroke-width="0.851066" d="M92.2035,-170.957C87.8235,-161.684 80.4396,-146.051 74.3256,-133.107"/>
<polygon fill="red" stroke="red" stroke-width="0.851066" points="77.4042,-131.43 69.9685,-123.882 71.0747,-134.419 77.4042,-131.43"/>
</g>
<!-- 5103&#45;&gt;3554 -->
<g id="edge3" class="edge"><title>5103&#45;&gt;3554</title>
<path fill="none" stroke="red" stroke-width="0.244268" d="M119.781,-89.4585C112.084,-78.7479 102.451,-65.3416 94.0088,-53.5935"/>
<polygon fill="red" stroke="red" stroke-width="0.244268" points="96.7949,-51.4728 88.1171,-45.3944 91.1103,-55.5577 96.7949,-51.4728"/>
</g>
</g>
</svg>
