<?xml version="1.0" encoding="UTF-8" standalone="no"?>
<!DOCTYPE svg PUBLIC "-//W3C//DTD SVG 1.1//EN"
 "http://www.w3.org/Graphics/SVG/1.1/DTD/svg11.dtd">
<!-- Generated by graphviz version 2.38.0 (20140413.2041)
 -->
<!-- Title: %3 Pages: 1 -->
<svg width="184pt" height="197pt"
 viewBox="0.00 0.00 183.75 196.99" xmlns="http://www.w3.org/2000/svg" xmlns:xlink="http://www.w3.org/1999/xlink">
<g id="graph0" class="graph" transform="scale(1 1) rotate(0) translate(4 192.995)">
<title>%3</title>
<polygon fill="white" stroke="none" points="-4,4 -4,-192.995 179.749,-192.995 179.749,4 -4,4"/>
<!-- &#45;1 -->
<g id="node1" class="node"><title>&#45;1</title>
<polygon fill="lightgray" stroke="black" points="24,-188.995 0,-188.995 0,-170.995 24,-170.995 24,-188.995"/>
<text text-anchor="middle" x="12" y="-177.795" font-family="Times,serif" font-size="9.00">&#45;1</text>
</g>
<!-- 0 -->
<g id="node5" class="node"><title>0</title>
<ellipse fill="lightblue" stroke="black" cx="55" cy="-110.246" rx="14.7" ry="14.7"/>
<text text-anchor="middle" x="55" y="-108.046" font-family="Times,serif" font-size="9.00">0</text>
</g>
<!-- &#45;1&#45;&gt;0 -->
<g id="edge3" class="edge"><title>&#45;1&#45;&gt;0</title>
<path fill="none" stroke="red" stroke-width="0.533856" d="M17.1015,-170.957C23.1748,-161.388 33.5463,-145.048 41.9056,-131.877"/>
<polygon fill="red" stroke="red" stroke-width="0.533856" points="44.8901,-133.706 47.2939,-123.388 38.98,-129.955 44.8901,-133.706"/>
</g>
<!-- 3554 -->
<g id="node6" class="node"><title>3554</title>
<ellipse fill="white" stroke="black" cx="98" cy="-24.7487" rx="25" ry="25"/>
<text text-anchor="middle" x="98" y="-22.5487" font-family="Times,serif" font-size="9.00">3554</text>
</g>
<!-- &#45;1&#45;&gt;3554 -->
<g id="edge6" class="edge"><title>&#45;1&#45;&gt;3554</title>
<path fill="none" stroke="green" stroke-width="0.225097" d="M11.972,-170.894C12.2553,-153.906 14.7434,-113.791 31,-85.4975 40.3235,-69.2707 55.6414,-55.121 69.279,-44.6699"/>
<polygon fill="green" stroke="green" stroke-width="0.225097" points="71.4885,-47.3899 77.4845,-38.655 67.35,-41.7442 71.4885,-47.3899"/>
</g>
<!-- &#45;2 -->
<g id="node2" class="node"><title>&#45;2</title>
<polygon fill="lightgray" stroke="black" points="66,-188.995 42,-188.995 42,-170.995 66,-170.995 66,-188.995"/>
<text text-anchor="middle" x="54" y="-177.795" font-family="Times,serif" font-size="9.00">&#45;2</text>
</g>
<!-- &#45;2&#45;&gt;0 -->
<g id="edge8" class="edge"><title>&#45;2&#45;&gt;0</title>
<path fill="none" stroke="red" stroke-width="0.742786" d="M54.1186,-170.957C54.2475,-162.228 54.4595,-147.863 54.6433,-135.41"/>
<polygon fill="red" stroke="red" stroke-width="0.742786" points="58.1467,-135.2 54.7948,-125.149 51.1475,-135.096 58.1467,-135.2"/>
</g>
<!-- &#45;3 -->
<g id="node3" class="node"><title>&#45;3</title>
<polygon fill="lightgray" stroke="black" points="150,-188.995 126,-188.995 126,-170.995 150,-170.995 150,-188.995"/>
<text text-anchor="middle" x="138" y="-177.795" font-family="Times,serif" font-size="9.00">&#45;3</text>
</g>
<!-- &#45;3&#45;&gt;0 -->
<g id="edge7" class="edge"><title>&#45;3&#45;&gt;0</title>
<path fill="none" stroke="red" stroke-width="1.15708" d="M128.041,-170.893C117.201,-162.071 99.3596,-147.542 84,-134.995 80.7478,-132.338 77.2924,-129.512 73.943,-126.77"/>
<polygon fill="red" stroke="red" stroke-width="1.15708" points="75.9656,-123.903 66.0114,-120.274 71.5303,-129.318 75.9656,-123.903"/>
</g>
<!-- &#45;3&#45;&gt;3554 -->
<g id="edge2" class="edge"><title>&#45;3&#45;&gt;3554</title>
<path fill="none" stroke="green" stroke-width="0.199857" stroke-dasharray="1,5" d="M133.271,-170.838C128.469,-162.209 121.167,-148.059 117,-134.995 109.158,-110.407 104.318,-81.6115 101.488,-59.7585"/>
<polygon fill="green" stroke="green" stroke-width="0.199857" points="104.939,-59.1407 100.255,-49.6372 97.9898,-59.987 104.939,-59.1407"/>
</g>
<!-- 5103 -->
<g id="node7" class="node"><title>5103</title>
<ellipse fill="white" stroke="black" cx="151" cy="-110.246" rx="25" ry="25"/>
<text text-anchor="middle" x="151" y="-108.046" font-family="Times,serif" font-size="9.00">5103</text>
</g>
<!-- &#45;3&#45;&gt;5103 -->
<g id="edge1" class="edge"><title>&#45;3&#45;&gt;5103</title>
<path fill="none" stroke="green" stroke-width="0.3" d="M139.542,-170.957C140.81,-164.35 142.698,-154.513 144.577,-144.721"/>
<polygon fill="green" stroke="green" stroke-width="0.3" points="148.058,-145.15 146.505,-134.67 141.184,-143.831 148.058,-145.15"/>
</g>
<!-- &#45;4 -->
<g id="node4" class="node"><title>&#45;4</title>
<polygon fill="lightgray" stroke="black" points="108,-188.995 84,-188.995 84,-170.995 108,-170.995 108,-188.995"/>
<text text-anchor="middle" x="96" y="-177.795" font-family="Times,serif" font-size="9.00">&#45;4</text>
</g>
<!-- &#45;4&#45;&gt;0 -->
<g id="edge5" class="edge"><title>&#45;4&#45;&gt;0</title>
<path fill="none" stroke="red" stroke-width="0.851066" d="M91.1358,-170.957C85.4006,-161.48 75.6457,-145.361 67.7158,-132.258"/>
<polygon fill="red" stroke="red" stroke-width="0.851066" points="70.5196,-130.131 62.3477,-123.388 64.5309,-133.755 70.5196,-130.131"/>
</g>
<!-- 5103&#45;&gt;3554 -->
<g id="edge4" class="edge"><title>5103&#45;&gt;3554</title>
<path fill="none" stroke="red" stroke-width="0.244268" d="M138.17,-89.0338C131.643,-78.7512 123.593,-66.0685 116.417,-54.7634"/>
<polygon fill="red" stroke="red" stroke-width="0.244268" points="119.209,-52.6315 110.895,-46.0644 113.299,-56.3829 119.209,-52.6315"/>
</g>
</g>
</svg>
