<?xml version="1.0" encoding="UTF-8" standalone="no"?>
<!DOCTYPE svg PUBLIC "-//W3C//DTD SVG 1.1//EN"
 "http://www.w3.org/Graphics/SVG/1.1/DTD/svg11.dtd">
<!-- Generated by graphviz version 2.38.0 (20140413.2041)
 -->
<!-- Title: %3 Pages: 1 -->
<svg width="164pt" height="111pt"
 viewBox="0.00 0.00 163.75 111.50" xmlns="http://www.w3.org/2000/svg" xmlns:xlink="http://www.w3.org/1999/xlink">
<g id="graph0" class="graph" transform="scale(1 1) rotate(0) translate(4 107.497)">
<title>%3</title>
<polygon fill="white" stroke="none" points="-4,4 -4,-107.497 159.749,-107.497 159.749,4 -4,4"/>
<!-- &#45;1 -->
<g id="node1" class="node"><title>&#45;1</title>
<polygon fill="lightgray" stroke="black" points="108,-103.497 84,-103.497 84,-85.4975 108,-85.4975 108,-103.497"/>
<text text-anchor="middle" x="96" y="-92.2975" font-family="Times,serif" font-size="9.00">&#45;1</text>
</g>
<!-- 0 -->
<g id="node5" class="node"><title>0</title>
<ellipse fill="lightblue" stroke="black" cx="67" cy="-24.7487" rx="14.7" ry="14.7"/>
<text text-anchor="middle" x="67" y="-22.5487" font-family="Times,serif" font-size="9.00">0</text>
</g>
<!-- &#45;1&#45;&gt;0 -->
<g id="edge2" class="edge"><title>&#45;1&#45;&gt;0</title>
<path fill="none" stroke="red" stroke-width="0.393416" d="M92.5594,-85.4598C88.614,-76.2425 81.9789,-60.7419 76.4578,-47.8438"/>
<polygon fill="red" stroke="red" stroke-width="0.393416" points="79.6688,-46.4509 72.516,-38.635 73.2336,-49.2055 79.6688,-46.4509"/>
</g>
<!-- 3554 -->
<g id="node6" class="node"><title>3554</title>
<ellipse fill="white" stroke="black" cx="131" cy="-24.7487" rx="25" ry="25"/>
<text text-anchor="middle" x="131" y="-22.5487" font-family="Times,serif" font-size="9.00">3554</text>
</g>
<!-- &#45;1&#45;&gt;3554 -->
<g id="edge4" class="edge"><title>&#45;1&#45;&gt;3554</title>
<path fill="none" stroke="green" stroke-width="0.225097" d="M100.152,-85.4598C103.906,-78.1944 109.676,-67.0251 115.215,-56.3036"/>
<polygon fill="green" stroke="green" stroke-width="0.225097" points="118.486,-57.5973 119.966,-47.1064 112.267,-54.3844 118.486,-57.5973"/>
</g>
<!-- &#45;2 -->
<g id="node2" class="node"><title>&#45;2</title>
<polygon fill="lightgray" stroke="black" points="24,-103.497 0,-103.497 0,-85.4975 24,-85.4975 24,-103.497"/>
<text text-anchor="middle" x="12" y="-92.2975" font-family="Times,serif" font-size="9.00">&#45;2</text>
</g>
<!-- &#45;2&#45;&gt;0 -->
<g id="edge6" class="edge"><title>&#45;2&#45;&gt;0</title>
<path fill="none" stroke="red" stroke-width="0.555486" d="M18.5252,-85.4598C26.5548,-75.5689 40.4583,-58.4427 51.3218,-45.061"/>
<polygon fill="red" stroke="red" stroke-width="0.555486" points="54.3439,-46.8915 57.9294,-36.9218 48.9093,-42.4796 54.3439,-46.8915"/>
</g>
<!-- &#45;3 -->
<g id="node3" class="node"><title>&#45;3</title>
<polygon fill="lightgray" stroke="black" points="150,-103.497 126,-103.497 126,-85.4975 150,-85.4975 150,-103.497"/>
<text text-anchor="middle" x="138" y="-92.2975" font-family="Times,serif" font-size="9.00">&#45;3</text>
</g>
<!-- &#45;3&#45;&gt;0 -->
<g id="edge5" class="edge"><title>&#45;3&#45;&gt;0</title>
<path fill="none" stroke="red" stroke-width="1.24219" d="M129.577,-85.4598C118.543,-74.9314 98.9178,-56.205 84.5795,-42.5232"/>
<polygon fill="red" stroke="red" stroke-width="1.24219" points="86.8968,-39.8967 77.2458,-35.5254 82.0644,-44.9611 86.8968,-39.8967"/>
</g>
<!-- &#45;3&#45;&gt;3554 -->
<g id="edge1" class="edge"><title>&#45;3&#45;&gt;3554</title>
<path fill="none" stroke="green" stroke-width="0.411115" stroke-dasharray="1,5" d="M137.17,-85.4598C136.492,-78.9042 135.486,-69.1702 134.483,-59.4546"/>
<polygon fill="green" stroke="green" stroke-width="0.411115" points="137.96,-59.058 133.451,-49.4707 130.997,-59.7775 137.96,-59.058"/>
</g>
<!-- &#45;4 -->
<g id="node4" class="node"><title>&#45;4</title>
<polygon fill="lightgray" stroke="black" points="66,-103.497 42,-103.497 42,-85.4975 66,-85.4975 66,-103.497"/>
<text text-anchor="middle" x="54" y="-92.2975" font-family="Times,serif" font-size="9.00">&#45;4</text>
</g>
<!-- &#45;4&#45;&gt;0 -->
<g id="edge3" class="edge"><title>&#45;4&#45;&gt;0</title>
<path fill="none" stroke="red" stroke-width="0.700551" d="M55.5423,-85.4598C57.2448,-76.5876 60.0643,-61.8936 62.4803,-49.3027"/>
<polygon fill="red" stroke="red" stroke-width="0.700551" points="65.9342,-49.8755 64.3815,-39.395 59.0596,-48.5563 65.9342,-49.8755"/>
</g>
</g>
</svg>
