<?xml version="1.0" encoding="UTF-8" standalone="no"?>
<!DOCTYPE svg PUBLIC "-//W3C//DTD SVG 1.1//EN"
 "http://www.w3.org/Graphics/SVG/1.1/DTD/svg11.dtd">
<!-- Generated by graphviz version 2.38.0 (20140413.2041)
 -->
<!-- Title: %3 Pages: 1 -->
<svg width="201pt" height="177pt"
 viewBox="0.00 0.00 201.22 177.20" xmlns="http://www.w3.org/2000/svg" xmlns:xlink="http://www.w3.org/1999/xlink">
<g id="graph0" class="graph" transform="scale(1 1) rotate(0) translate(4 173.196)">
<title>%3</title>
<polygon fill="white" stroke="none" points="-4,4 -4,-173.196 197.22,-173.196 197.22,4 -4,4"/>
<!-- &#45;1 -->
<g id="node1" class="node"><title>&#45;1</title>
<polygon fill="lightgray" stroke="black" points="27.2199,-169.196 3.21993,-169.196 3.21993,-151.196 27.2199,-151.196 27.2199,-169.196"/>
<text text-anchor="middle" x="15.2199" y="-157.996" font-family="Times,serif" font-size="9.00">&#45;1</text>
</g>
<!-- 0 -->
<g id="node5" class="node"><title>0</title>
<ellipse fill="lightblue" stroke="black" cx="97.2199" cy="-14.8492" rx="14.7" ry="14.7"/>
<text text-anchor="middle" x="97.2199" y="-12.6492" font-family="Times,serif" font-size="9.00">0</text>
</g>
<!-- &#45;1&#45;&gt;0 -->
<g id="edge6" class="edge"><title>&#45;1&#45;&gt;0</title>
<path fill="none" stroke="red" stroke-width="0.51552" stroke-dasharray="1,5" d="M11.6922,-150.995C4.89151,-133.818 -7.99414,-93.3642 8.21993,-65.6985 22.1487,-41.932 52.0085,-28.6433 73.2974,-21.8738"/>
<polygon fill="red" stroke="red" stroke-width="0.51552" points="74.333,-25.2177 82.9525,-19.057 72.3725,-18.4978 74.333,-25.2177"/>
</g>
<!-- 8812 -->
<g id="node6" class="node"><title>8812</title>
<ellipse fill="white" stroke="black" cx="42.2199" cy="-90.4472" rx="25" ry="25"/>
<text text-anchor="middle" x="42.2199" y="-88.2472" font-family="Times,serif" font-size="9.00">8812</text>
</g>
<!-- &#45;1&#45;&gt;8812 -->
<g id="edge1" class="edge"><title>&#45;1&#45;&gt;8812</title>
<path fill="none" stroke="green" stroke-width="0.291252" d="M18.4232,-151.158C21.2253,-144.127 25.4844,-133.44 29.6288,-123.041"/>
<polygon fill="green" stroke="green" stroke-width="0.291252" points="32.9066,-124.27 33.3575,-113.685 26.404,-121.679 32.9066,-124.27"/>
</g>
<!-- &#45;2 -->
<g id="node2" class="node"><title>&#45;2</title>
<polygon fill="lightgray" stroke="black" points="109.22,-99.4472 85.2199,-99.4472 85.2199,-81.4472 109.22,-81.4472 109.22,-99.4472"/>
<text text-anchor="middle" x="97.2199" y="-88.2472" font-family="Times,serif" font-size="9.00">&#45;2</text>
</g>
<!-- &#45;2&#45;&gt;0 -->
<g id="edge2" class="edge"><title>&#45;2&#45;&gt;0</title>
<path fill="none" stroke="red" stroke-width="0.581544" d="M97.2199,-81.2897C97.2199,-71.3882 97.2199,-54.2466 97.2199,-39.9908"/>
<polygon fill="red" stroke="red" stroke-width="0.581544" points="100.72,-39.8196 97.2199,-29.8196 93.72,-39.8196 100.72,-39.8196"/>
</g>
<!-- &#45;3 -->
<g id="node3" class="node"><title>&#45;3</title>
<polygon fill="lightgray" stroke="black" points="151.22,-99.4472 127.22,-99.4472 127.22,-81.4472 151.22,-81.4472 151.22,-99.4472"/>
<text text-anchor="middle" x="139.22" y="-88.2472" font-family="Times,serif" font-size="9.00">&#45;3</text>
</g>
<!-- &#45;3&#45;&gt;0 -->
<g id="edge5" class="edge"><title>&#45;3&#45;&gt;0</title>
<path fill="none" stroke="red" stroke-width="2.51483" d="M134.565,-81.2897C128.538,-70.7286 117.81,-51.9305 109.394,-37.1831"/>
<polygon fill="red" stroke="red" stroke-width="2.51483" points="112.267,-35.1547 104.27,-28.2042 106.187,-38.6242 112.267,-35.1547"/>
</g>
<!-- &#45;4 -->
<g id="node4" class="node"><title>&#45;4</title>
<polygon fill="lightgray" stroke="black" points="193.22,-99.4472 169.22,-99.4472 169.22,-81.4472 193.22,-81.4472 193.22,-99.4472"/>
<text text-anchor="middle" x="181.22" y="-88.2472" font-family="Times,serif" font-size="9.00">&#45;4</text>
</g>
<!-- &#45;4&#45;&gt;0 -->
<g id="edge3" class="edge"><title>&#45;4&#45;&gt;0</title>
<path fill="none" stroke="red" stroke-width="0.517512" d="M174.557,-81.2055C170.586,-76.4791 165.336,-70.5419 160.22,-65.6985 146.56,-52.7653 129.806,-39.6229 117.01,-30.0818"/>
<polygon fill="red" stroke="red" stroke-width="0.517512" points="119.001,-27.2013 108.871,-24.0986 114.855,-32.8414 119.001,-27.2013"/>
</g>
<!-- 8812&#45;&gt;0 -->
<g id="edge4" class="edge"><title>8812&#45;&gt;0</title>
<path fill="none" stroke="red" stroke-width="0.359166" d="M56.6705,-70.1102C64.6273,-59.4628 74.4816,-46.2765 82.4832,-35.5691"/>
<polygon fill="red" stroke="red" stroke-width="0.359166" points="85.504,-37.3737 88.6865,-27.2682 79.8967,-33.1834 85.504,-37.3737"/>
</g>
</g>
</svg>
