<?xml version="1.0" encoding="UTF-8" standalone="no"?>
<!DOCTYPE svg PUBLIC "-//W3C//DTD SVG 1.1//EN"
 "http://www.w3.org/Graphics/SVG/1.1/DTD/svg11.dtd">
<!-- Generated by graphviz version 2.38.0 (20140413.2041)
 -->
<!-- Title: %3 Pages: 1 -->
<svg width="199pt" height="354pt"
 viewBox="0.00 0.00 199.00 353.85" xmlns="http://www.w3.org/2000/svg" xmlns:xlink="http://www.w3.org/1999/xlink">
<g id="graph0" class="graph" transform="scale(1 1) rotate(0) translate(4 349.848)">
<title>%3</title>
<polygon fill="white" stroke="none" points="-4,4 -4,-349.848 195,-349.848 195,4 -4,4"/>
<!-- &#45;1 -->
<g id="node1" class="node"><title>&#45;1</title>
<polygon fill="lightgray" stroke="black" points="24,-345.848 0,-345.848 0,-327.848 24,-327.848 24,-345.848"/>
<text text-anchor="middle" x="12" y="-334.648" font-family="Times,serif" font-size="9.00">&#45;1</text>
</g>
<!-- &#45;2 -->
<g id="node2" class="node"><title>&#45;2</title>
<polygon fill="lightgray" stroke="black" points="66,-345.848 42,-345.848 42,-327.848 66,-327.848 66,-345.848"/>
<text text-anchor="middle" x="54" y="-334.648" font-family="Times,serif" font-size="9.00">&#45;2</text>
</g>
<!-- 0 -->
<g id="node5" class="node"><title>0</title>
<ellipse fill="lightblue" stroke="black" cx="111" cy="-14.8492" rx="14.7" ry="14.7"/>
<text text-anchor="middle" x="111" y="-12.6492" font-family="Times,serif" font-size="9.00">0</text>
</g>
<!-- &#45;2&#45;&gt;0 -->
<g id="edge3" class="edge"><title>&#45;2&#45;&gt;0</title>
<path fill="none" stroke="red" stroke-width="0.341676" d="M51.1755,-327.761C39.7752,-293.669 -0.0835214,-159.116 46,-65.6985 54.7738,-47.9129 73.2768,-34.712 88.3058,-26.3786"/>
<polygon fill="red" stroke="red" stroke-width="0.341676" points="90.2655,-29.3058 97.5432,-21.606 87.0523,-23.0868 90.2655,-29.3058"/>
</g>
<!-- 9987 -->
<g id="node7" class="node"><title>9987</title>
<ellipse fill="white" stroke="black" cx="81" cy="-267.099" rx="25" ry="25"/>
<text text-anchor="middle" x="81" y="-264.899" font-family="Times,serif" font-size="9.00">9987</text>
</g>
<!-- &#45;2&#45;&gt;9987 -->
<g id="edge6" class="edge"><title>&#45;2&#45;&gt;9987</title>
<path fill="none" stroke="green" stroke-width="0.289882" d="M57.2033,-327.81C60.0053,-320.779 64.2645,-310.092 68.4089,-299.693"/>
<polygon fill="green" stroke="green" stroke-width="0.289882" points="71.6867,-300.922 72.1376,-290.337 65.1841,-298.33 71.6867,-300.922"/>
</g>
<!-- &#45;3 -->
<g id="node3" class="node"><title>&#45;3</title>
<polygon fill="lightgray" stroke="black" points="150,-276.099 126,-276.099 126,-258.099 150,-258.099 150,-276.099"/>
<text text-anchor="middle" x="138" y="-264.899" font-family="Times,serif" font-size="9.00">&#45;3</text>
</g>
<!-- &#45;3&#45;&gt;0 -->
<g id="edge8" class="edge"><title>&#45;3&#45;&gt;0</title>
<path fill="none" stroke="red" stroke-width="0.740148" d="M137.535,-258.052C135.912,-230.889 130.041,-140.128 120,-65.6985 118.855,-57.2146 117.28,-47.9751 115.767,-39.7812"/>
<polygon fill="red" stroke="red" stroke-width="0.740148" points="119.168,-38.93 113.855,-29.7634 112.292,-40.2423 119.168,-38.93"/>
</g>
<!-- 8194 -->
<g id="node6" class="node"><title>8194</title>
<ellipse fill="white" stroke="black" cx="83" cy="-181.602" rx="25" ry="25"/>
<text text-anchor="middle" x="83" y="-179.402" font-family="Times,serif" font-size="9.00">8194</text>
</g>
<!-- &#45;3&#45;&gt;8194 -->
<g id="edge2" class="edge"><title>&#45;3&#45;&gt;8194</title>
<path fill="none" stroke="red" stroke-width="0.322587" d="M132.726,-258.093C125.694,-247.417 112.869,-227.947 102.005,-211.454"/>
<polygon fill="red" stroke="red" stroke-width="0.322587" points="104.645,-209.098 96.2209,-202.673 98.7989,-212.949 104.645,-209.098"/>
</g>
<!-- &#45;4 -->
<g id="node4" class="node"><title>&#45;4</title>
<polygon fill="lightgray" stroke="black" points="191,-102.276 167,-102.276 167,-84.2756 191,-84.2756 191,-102.276"/>
<text text-anchor="middle" x="179" y="-91.0756" font-family="Times,serif" font-size="9.00">&#45;4</text>
</g>
<!-- &#45;4&#45;&gt;0 -->
<g id="edge5" class="edge"><title>&#45;4&#45;&gt;0</title>
<path fill="none" stroke="red" stroke-width="1.68781" d="M171.723,-84.0967C161.161,-72.2261 141.305,-49.9098 127.176,-34.0292"/>
<polygon fill="red" stroke="red" stroke-width="1.68781" points="129.65,-31.5452 120.388,-26.4008 124.421,-36.1983 129.65,-31.5452"/>
</g>
<!-- 10805 -->
<g id="node8" class="node"><title>10805</title>
<ellipse fill="white" stroke="black" cx="83" cy="-93.2756" rx="27.6545" ry="27.6545"/>
<text text-anchor="middle" x="83" y="-91.0756" font-family="Times,serif" font-size="9.00">10805</text>
</g>
<!-- 8194&#45;&gt;10805 -->
<g id="edge7" class="edge"><title>8194&#45;&gt;10805</title>
<path fill="none" stroke="red" stroke-width="0.351377" d="M83,-156.555C83,-148.681 83,-139.744 83,-131.146"/>
<polygon fill="red" stroke="red" stroke-width="0.351377" points="86.5001,-130.923 83,-120.923 79.5001,-130.923 86.5001,-130.923"/>
</g>
<!-- 9987&#45;&gt;8194 -->
<g id="edge1" class="edge"><title>9987&#45;&gt;8194</title>
<path fill="none" stroke="green" stroke-width="0.402994" d="M81.5785,-241.948C81.7688,-234.004 81.984,-225.019 82.1883,-216.489"/>
<polygon fill="green" stroke="green" stroke-width="0.402994" points="85.6892,-216.491 82.4297,-206.41 78.6912,-216.323 85.6892,-216.491"/>
</g>
<!-- 10805&#45;&gt;0 -->
<g id="edge4" class="edge"><title>10805&#45;&gt;0</title>
<path fill="none" stroke="green" stroke-width="0.182042" d="M92.1682,-67.2508C95.552,-58.0149 99.3649,-47.6074 102.67,-38.5851"/>
<polygon fill="green" stroke="green" stroke-width="0.182042" points="105.983,-39.7172 106.137,-29.1235 99.4103,-37.3092 105.983,-39.7172"/>
</g>
</g>
</svg>
