<?xml version="1.0" encoding="UTF-8" standalone="no"?>
<!DOCTYPE svg PUBLIC "-//W3C//DTD SVG 1.1//EN"
 "http://www.w3.org/Graphics/SVG/1.1/DTD/svg11.dtd">
<!-- Generated by graphviz version 2.38.0 (20140413.2041)
 -->
<!-- Title: %3 Pages: 1 -->
<svg width="225pt" height="354pt"
 viewBox="0.00 0.00 225.00 353.85" xmlns="http://www.w3.org/2000/svg" xmlns:xlink="http://www.w3.org/1999/xlink">
<g id="graph0" class="graph" transform="scale(1 1) rotate(0) translate(4 349.848)">
<title>%3</title>
<polygon fill="white" stroke="none" points="-4,4 -4,-349.848 221,-349.848 221,4 -4,4"/>
<!-- &#45;1 -->
<g id="node1" class="node"><title>&#45;1</title>
<polygon fill="lightgray" stroke="black" points="24,-345.848 0,-345.848 0,-327.848 24,-327.848 24,-345.848"/>
<text text-anchor="middle" x="12" y="-334.648" font-family="Times,serif" font-size="9.00">&#45;1</text>
</g>
<!-- &#45;2 -->
<g id="node2" class="node"><title>&#45;2</title>
<polygon fill="lightgray" stroke="black" points="66,-345.848 42,-345.848 42,-327.848 66,-327.848 66,-345.848"/>
<text text-anchor="middle" x="54" y="-334.648" font-family="Times,serif" font-size="9.00">&#45;2</text>
</g>
<!-- 0 -->
<g id="node5" class="node"><title>0</title>
<ellipse fill="lightblue" stroke="black" cx="109" cy="-14.8492" rx="14.7" ry="14.7"/>
<text text-anchor="middle" x="109" y="-12.6492" font-family="Times,serif" font-size="9.00">0</text>
</g>
<!-- &#45;2&#45;&gt;0 -->
<g id="edge4" class="edge"><title>&#45;2&#45;&gt;0</title>
<path fill="none" stroke="red" stroke-width="0.341676" d="M52.2498,-327.459C45.5217,-293.261 23.609,-161.635 63,-65.6985 68.5911,-52.0815 79.6893,-39.8774 89.5837,-30.9529"/>
<polygon fill="red" stroke="red" stroke-width="0.341676" points="92.1021,-33.4063 97.4645,-24.2687 87.5742,-28.0679 92.1021,-33.4063"/>
</g>
<!-- 8194 -->
<g id="node6" class="node"><title>8194</title>
<ellipse fill="white" stroke="black" cx="107" cy="-181.602" rx="25" ry="25"/>
<text text-anchor="middle" x="107" y="-179.402" font-family="Times,serif" font-size="9.00">8194</text>
</g>
<!-- &#45;2&#45;&gt;8194 -->
<g id="edge9" class="edge"><title>&#45;2&#45;&gt;8194</title>
<path fill="none" stroke="green" stroke-width="0.117906" stroke-dasharray="1,5" d="M54.7897,-327.603C56.569,-311.011 61.6544,-272.592 73,-242.35 76.9712,-231.765 82.6588,-220.833 88.2487,-211.26"/>
<polygon fill="green" stroke="green" stroke-width="0.117906" points="91.3347,-212.92 93.5191,-202.553 85.3464,-209.295 91.3347,-212.92"/>
</g>
<!-- 9987 -->
<g id="node7" class="node"><title>9987</title>
<ellipse fill="white" stroke="black" cx="107" cy="-267.099" rx="25" ry="25"/>
<text text-anchor="middle" x="107" y="-264.899" font-family="Times,serif" font-size="9.00">9987</text>
</g>
<!-- &#45;2&#45;&gt;9987 -->
<g id="edge7" class="edge"><title>&#45;2&#45;&gt;9987</title>
<path fill="none" stroke="green" stroke-width="0.289882" d="M60.2879,-327.81C66.6151,-319.722 76.7272,-306.796 85.9273,-295.036"/>
<polygon fill="green" stroke="green" stroke-width="0.289882" points="88.6884,-297.187 92.0933,-287.154 83.175,-292.874 88.6884,-297.187"/>
</g>
<!-- &#45;3 -->
<g id="node3" class="node"><title>&#45;3</title>
<polygon fill="lightgray" stroke="black" points="175,-276.099 151,-276.099 151,-258.099 175,-258.099 175,-276.099"/>
<text text-anchor="middle" x="163" y="-264.899" font-family="Times,serif" font-size="9.00">&#45;3</text>
</g>
<!-- &#45;3&#45;&gt;0 -->
<g id="edge10" class="edge"><title>&#45;3&#45;&gt;0</title>
<path fill="none" stroke="red" stroke-width="0.740148" d="M163.875,-257.728C166.497,-229.54 172.556,-135.916 146,-65.6985 141.551,-53.9337 133.469,-42.5358 125.991,-33.6152"/>
<polygon fill="red" stroke="red" stroke-width="0.740148" points="128.397,-31.0528 119.145,-25.8904 123.158,-35.6957 128.397,-31.0528"/>
</g>
<!-- &#45;3&#45;&gt;8194 -->
<g id="edge3" class="edge"><title>&#45;3&#45;&gt;8194</title>
<path fill="none" stroke="red" stroke-width="0.322587" d="M157.63,-258.093C150.404,-247.318 137.17,-227.585 126.044,-210.997"/>
<polygon fill="red" stroke="red" stroke-width="0.322587" points="128.938,-209.028 120.461,-202.673 123.125,-212.927 128.938,-209.028"/>
</g>
<!-- &#45;4 -->
<g id="node4" class="node"><title>&#45;4</title>
<polygon fill="lightgray" stroke="black" points="217,-102.276 193,-102.276 193,-84.2756 217,-84.2756 217,-102.276"/>
<text text-anchor="middle" x="205" y="-91.0756" font-family="Times,serif" font-size="9.00">&#45;4</text>
</g>
<!-- &#45;4&#45;&gt;0 -->
<g id="edge6" class="edge"><title>&#45;4&#45;&gt;0</title>
<path fill="none" stroke="red" stroke-width="1.68781" d="M197.615,-83.9926C192.592,-78.5488 185.671,-71.4047 179,-65.6985 163.282,-52.2542 144.06,-38.7522 129.738,-29.1977"/>
<polygon fill="red" stroke="red" stroke-width="1.68781" points="131.398,-26.1005 121.12,-23.5294 127.551,-31.9489 131.398,-26.1005"/>
</g>
<!-- 8194&#45;&gt;0 -->
<g id="edge1" class="edge"><title>8194&#45;&gt;0</title>
<path fill="none" stroke="green" stroke-width="0.321946" stroke-dasharray="1,5" d="M92.3405,-161.602C84.6431,-150.407 75.998,-135.588 72,-120.853 65.581,-97.1952 64.3063,-88.9728 72,-65.6985 75.9885,-53.6329 84.1516,-42.1071 91.798,-33.1833"/>
<polygon fill="green" stroke="green" stroke-width="0.321946" points="94.3955,-35.5292 98.5402,-25.7787 89.2197,-30.8164 94.3955,-35.5292"/>
</g>
<!-- 10805 -->
<g id="node8" class="node"><title>10805</title>
<ellipse fill="white" stroke="black" cx="109" cy="-93.2756" rx="27.6545" ry="27.6545"/>
<text text-anchor="middle" x="109" y="-91.0756" font-family="Times,serif" font-size="9.00">10805</text>
</g>
<!-- 8194&#45;&gt;10805 -->
<g id="edge8" class="edge"><title>8194&#45;&gt;10805</title>
<path fill="none" stroke="red" stroke-width="0.351377" d="M107.557,-156.555C107.74,-148.681 107.947,-139.744 108.146,-131.146"/>
<polygon fill="red" stroke="red" stroke-width="0.351377" points="111.65,-131.001 108.383,-120.923 104.652,-130.839 111.65,-131.001"/>
</g>
<!-- 9987&#45;&gt;8194 -->
<g id="edge2" class="edge"><title>9987&#45;&gt;8194</title>
<path fill="none" stroke="green" stroke-width="0.402994" d="M107,-241.948C107,-234.004 107,-225.019 107,-216.489"/>
<polygon fill="green" stroke="green" stroke-width="0.402994" points="110.5,-216.41 107,-206.41 103.5,-216.41 110.5,-216.41"/>
</g>
<!-- 10805&#45;&gt;0 -->
<g id="edge5" class="edge"><title>10805&#45;&gt;0</title>
<path fill="none" stroke="green" stroke-width="0.182042" d="M109,-65.5454C109,-57.165 109,-47.9724 109,-39.7969"/>
<polygon fill="green" stroke="green" stroke-width="0.182042" points="112.5,-39.7892 109,-29.7893 105.5,-39.7893 112.5,-39.7892"/>
</g>
</g>
</svg>
