<?xml version="1.0" encoding="UTF-8" standalone="no"?>
<!DOCTYPE svg PUBLIC "-//W3C//DTD SVG 1.1//EN"
 "http://www.w3.org/Graphics/SVG/1.1/DTD/svg11.dtd">
<!-- Generated by graphviz version 2.38.0 (20140413.2041)
 -->
<!-- Title: %3 Pages: 1 -->
<svg width="149pt" height="170pt"
 viewBox="0.00 0.00 149.21 170.12" xmlns="http://www.w3.org/2000/svg" xmlns:xlink="http://www.w3.org/1999/xlink">
<g id="graph0" class="graph" transform="scale(1 1) rotate(0) translate(4 166.125)">
<title>%3</title>
<polygon fill="white" stroke="none" points="-4,4 -4,-166.125 145.213,-166.125 145.213,4 -4,4"/>
<!-- &#45;1 -->
<g id="node1" class="node"><title>&#45;1</title>
<polygon fill="lightgray" stroke="black" points="33.2132,-162.125 9.2132,-162.125 9.2132,-144.125 33.2132,-144.125 33.2132,-162.125"/>
<text text-anchor="middle" x="21.2132" y="-150.925" font-family="Times,serif" font-size="9.00">&#45;1</text>
</g>
<!-- 314 -->
<g id="node6" class="node"><title>314</title>
<ellipse fill="white" stroke="black" cx="21.2132" cy="-86.9117" rx="21.4286" ry="21.4286"/>
<text text-anchor="middle" x="21.2132" y="-84.7117" font-family="Times,serif" font-size="9.00">314</text>
</g>
<!-- &#45;1&#45;&gt;314 -->
<g id="edge1" class="edge"><title>&#45;1&#45;&gt;314</title>
<path fill="none" stroke="red" stroke-width="0.381241" d="M21.2132,-143.992C21.2132,-137.449 21.2132,-127.82 21.2132,-118.381"/>
<polygon fill="red" stroke="red" stroke-width="0.381241" points="24.7133,-118.367 21.2132,-108.367 17.7133,-118.367 24.7133,-118.367"/>
</g>
<!-- &#45;2 -->
<g id="node2" class="node"><title>&#45;2</title>
<polygon fill="lightgray" stroke="black" points="84.2132,-95.9117 60.2132,-95.9117 60.2132,-77.9117 84.2132,-77.9117 84.2132,-95.9117"/>
<text text-anchor="middle" x="72.2132" y="-84.7117" font-family="Times,serif" font-size="9.00">&#45;2</text>
</g>
<!-- 0 -->
<g id="node5" class="node"><title>0</title>
<ellipse fill="lightblue" stroke="black" cx="72.2132" cy="-14.8492" rx="14.7" ry="14.7"/>
<text text-anchor="middle" x="72.2132" y="-12.6492" font-family="Times,serif" font-size="9.00">0</text>
</g>
<!-- &#45;2&#45;&gt;0 -->
<g id="edge5" class="edge"><title>&#45;2&#45;&gt;0</title>
<path fill="none" stroke="red" stroke-width="0.224039" d="M72.2132,-77.8746C72.2132,-68.7202 72.2132,-53.3256 72.2132,-40.1641"/>
<polygon fill="red" stroke="red" stroke-width="0.224039" points="75.7133,-39.8196 72.2132,-29.8197 68.7133,-39.8197 75.7133,-39.8196"/>
</g>
<!-- &#45;3 -->
<g id="node3" class="node"><title>&#45;3</title>
<polygon fill="lightgray" stroke="black" points="141.213,-162.125 117.213,-162.125 117.213,-144.125 141.213,-144.125 141.213,-162.125"/>
<text text-anchor="middle" x="129.213" y="-150.925" font-family="Times,serif" font-size="9.00">&#45;3</text>
</g>
<!-- &#45;4 -->
<g id="node4" class="node"><title>&#45;4</title>
<polygon fill="lightgray" stroke="black" points="99.2132,-162.125 75.2132,-162.125 75.2132,-144.125 99.2132,-144.125 99.2132,-162.125"/>
<text text-anchor="middle" x="87.2132" y="-150.925" font-family="Times,serif" font-size="9.00">&#45;4</text>
</g>
<!-- &#45;4&#45;&gt;0 -->
<g id="edge2" class="edge"><title>&#45;4&#45;&gt;0</title>
<path fill="none" stroke="red" stroke-width="0.608092" d="M89.223,-143.928C92.6977,-128.466 98.9321,-94.0047 93.2132,-65.6985 91.2616,-56.039 87.3814,-45.9225 83.4816,-37.3468"/>
<polygon fill="red" stroke="red" stroke-width="0.608092" points="86.5164,-35.583 79.009,-28.107 80.2158,-38.6329 86.5164,-35.583"/>
</g>
<!-- &#45;4&#45;&gt;314 -->
<g id="edge3" class="edge"><title>&#45;4&#45;&gt;314</title>
<path fill="none" stroke="red" stroke-width="0.114967" d="M78.8543,-143.992C69.9495,-135.329 55.4832,-121.254 43.2712,-109.373"/>
<polygon fill="red" stroke="red" stroke-width="0.114967" points="45.6369,-106.791 36.0287,-102.326 40.7555,-111.808 45.6369,-106.791"/>
</g>
<!-- 314&#45;&gt;0 -->
<g id="edge4" class="edge"><title>314&#45;&gt;0</title>
<path fill="none" stroke="red" stroke-width="0.241614" d="M33.2995,-69.3079C40.6635,-59.1915 50.1138,-46.2088 57.8573,-35.571"/>
<polygon fill="red" stroke="red" stroke-width="0.241614" points="60.8217,-37.4457 63.8772,-27.301 55.1623,-33.3261 60.8217,-37.4457"/>
</g>
</g>
</svg>
