<?xml version="1.0" encoding="UTF-8" standalone="no"?>
<!DOCTYPE svg PUBLIC "-//W3C//DTD SVG 1.1//EN"
 "http://www.w3.org/Graphics/SVG/1.1/DTD/svg11.dtd">
<!-- Generated by graphviz version 2.38.0 (20140413.2041)
 -->
<!-- Title: %3 Pages: 1 -->
<svg width="121pt" height="170pt"
 viewBox="0.00 0.00 121.42 170.12" xmlns="http://www.w3.org/2000/svg" xmlns:xlink="http://www.w3.org/1999/xlink">
<g id="graph0" class="graph" transform="scale(1 1) rotate(0) translate(4 166.125)">
<title>%3</title>
<polygon fill="white" stroke="none" points="-4,4 -4,-166.125 117.424,-166.125 117.424,4 -4,4"/>
<!-- &#45;1 -->
<g id="node1" class="node"><title>&#45;1</title>
<polygon fill="lightgray" stroke="black" points="24.8007,-162.125 0.800744,-162.125 0.800744,-144.125 24.8007,-144.125 24.8007,-162.125"/>
<text text-anchor="middle" x="12.8007" y="-150.925" font-family="Times,serif" font-size="9.00">&#45;1</text>
</g>
<!-- 0 -->
<g id="node5" class="node"><title>0</title>
<ellipse fill="lightblue" stroke="black" cx="60.8007" cy="-14.8492" rx="14.7" ry="14.7"/>
<text text-anchor="middle" x="60.8007" y="-12.6492" font-family="Times,serif" font-size="9.00">0</text>
</g>
<!-- &#45;1&#45;&gt;0 -->
<g id="edge2" class="edge"><title>&#45;1&#45;&gt;0</title>
<path fill="none" stroke="red" stroke-width="0.397751" stroke-dasharray="1,5" d="M9.68538,-144.07C4.08825,-128.264 -6.03399,-92.3973 5.80074,-65.6985 12.6926,-50.1507 27.0948,-37.3857 39.4326,-28.6661"/>
<polygon fill="red" stroke="red" stroke-width="0.397751" points="41.5091,-31.489 47.9148,-23.0499 37.6445,-25.6524 41.5091,-31.489"/>
</g>
<!-- 314 -->
<g id="node6" class="node"><title>314</title>
<ellipse fill="white" stroke="black" cx="35.8007" cy="-86.9117" rx="21.4286" ry="21.4286"/>
<text text-anchor="middle" x="35.8007" y="-84.7117" font-family="Times,serif" font-size="9.00">314</text>
</g>
<!-- &#45;1&#45;&gt;314 -->
<g id="edge1" class="edge"><title>&#45;1&#45;&gt;314</title>
<path fill="none" stroke="red" stroke-width="0.381241" d="M15.7137,-143.992C18.1978,-137.057 21.9237,-126.655 25.4945,-116.686"/>
<polygon fill="red" stroke="red" stroke-width="0.381241" points="28.8847,-117.6 28.9618,-107.005 22.2947,-115.239 28.8847,-117.6"/>
</g>
<!-- &#45;2 -->
<g id="node2" class="node"><title>&#45;2</title>
<polygon fill="lightgray" stroke="black" points="98.8007,-95.9117 74.8007,-95.9117 74.8007,-77.9117 98.8007,-77.9117 98.8007,-95.9117"/>
<text text-anchor="middle" x="86.8007" y="-84.7117" font-family="Times,serif" font-size="9.00">&#45;2</text>
</g>
<!-- &#45;2&#45;&gt;0 -->
<g id="edge6" class="edge"><title>&#45;2&#45;&gt;0</title>
<path fill="none" stroke="red" stroke-width="0.224039" d="M83.8182,-77.8746C80.2893,-68.3653 74.2616,-52.1224 69.2597,-38.6437"/>
<polygon fill="red" stroke="red" stroke-width="0.224039" points="72.4536,-37.1901 65.6931,-29.0326 65.8909,-39.6256 72.4536,-37.1901"/>
</g>
<!-- &#45;3 -->
<g id="node3" class="node"><title>&#45;3</title>
<polygon fill="lightgray" stroke="black" points="111.801,-162.125 87.8007,-162.125 87.8007,-144.125 111.801,-144.125 111.801,-162.125"/>
<text text-anchor="middle" x="99.8007" y="-150.925" font-family="Times,serif" font-size="9.00">&#45;3</text>
</g>
<!-- &#45;4 -->
<g id="node4" class="node"><title>&#45;4</title>
<polygon fill="lightgray" stroke="black" points="69.8007,-162.125 45.8007,-162.125 45.8007,-144.125 69.8007,-144.125 69.8007,-162.125"/>
<text text-anchor="middle" x="57.8007" y="-150.925" font-family="Times,serif" font-size="9.00">&#45;4</text>
</g>
<!-- &#45;4&#45;&gt;0 -->
<g id="edge3" class="edge"><title>&#45;4&#45;&gt;0</title>
<path fill="none" stroke="red" stroke-width="0.608092" d="M69.953,-145.588C82.1115,-138.28 100.084,-125.194 107.801,-108.125 115.568,-90.9428 114.76,-83.2236 107.801,-65.6985 102.259,-51.7417 90.752,-39.4271 80.5117,-30.5292"/>
<polygon fill="red" stroke="red" stroke-width="0.608092" points="82.6688,-27.7721 72.7088,-24.1598 78.2423,-33.1948 82.6688,-27.7721"/>
</g>
<!-- &#45;4&#45;&gt;314 -->
<g id="edge4" class="edge"><title>&#45;4&#45;&gt;314</title>
<path fill="none" stroke="red" stroke-width="0.114967" d="M55.0144,-143.992C52.6557,-137.108 49.1264,-126.806 45.7337,-116.904"/>
<polygon fill="red" stroke="red" stroke-width="0.114967" points="48.9873,-115.602 42.435,-107.276 42.3652,-117.87 48.9873,-115.602"/>
</g>
<!-- 314&#45;&gt;0 -->
<g id="edge5" class="edge"><title>314&#45;&gt;0</title>
<path fill="none" stroke="red" stroke-width="0.241614" d="M42.6321,-66.7668C45.7413,-58.0533 49.4441,-47.6762 52.6933,-38.5704"/>
<polygon fill="red" stroke="red" stroke-width="0.241614" points="56.0488,-39.581 56.1131,-28.9863 49.4559,-37.2284 56.0488,-39.581"/>
</g>
</g>
</svg>
