<?xml version="1.0" encoding="UTF-8" standalone="no"?>
<!DOCTYPE svg PUBLIC "-//W3C//DTD SVG 1.1//EN"
 "http://www.w3.org/Graphics/SVG/1.1/DTD/svg11.dtd">
<!-- Generated by graphviz version 2.38.0 (20140413.2041)
 -->
<!-- Title: %3 Pages: 1 -->
<svg width="150pt" height="170pt"
 viewBox="0.00 0.00 150.00 170.12" xmlns="http://www.w3.org/2000/svg" xmlns:xlink="http://www.w3.org/1999/xlink">
<g id="graph0" class="graph" transform="scale(1 1) rotate(0) translate(4 166.125)">
<title>%3</title>
<polygon fill="white" stroke="none" points="-4,4 -4,-166.125 146,-166.125 146,4 -4,4"/>
<!-- &#45;1 -->
<g id="node1" class="node"><title>&#45;1</title>
<polygon fill="lightgray" stroke="black" points="24,-162.125 0,-162.125 0,-144.125 24,-144.125 24,-162.125"/>
<text text-anchor="middle" x="12" y="-150.925" font-family="Times,serif" font-size="9.00">&#45;1</text>
</g>
<!-- 0 -->
<g id="node5" class="node"><title>0</title>
<ellipse fill="lightblue" stroke="black" cx="62" cy="-14.8492" rx="14.7" ry="14.7"/>
<text text-anchor="middle" x="62" y="-12.6492" font-family="Times,serif" font-size="9.00">0</text>
</g>
<!-- &#45;1&#45;&gt;0 -->
<g id="edge4" class="edge"><title>&#45;1&#45;&gt;0</title>
<path fill="none" stroke="red" stroke-width="0.185204" stroke-dasharray="1,5" d="M9.18307,-144.063C4.14811,-128.243 -4.81583,-92.3546 7,-65.6985 13.8918,-50.1507 28.294,-37.3857 40.6319,-28.6661"/>
<polygon fill="red" stroke="red" stroke-width="0.185204" points="42.7083,-31.489 49.114,-23.0499 38.8438,-25.6524 42.7083,-31.489"/>
</g>
<!-- 352 -->
<g id="node6" class="node"><title>352</title>
<ellipse fill="white" stroke="black" cx="37" cy="-86.9117" rx="21.4286" ry="21.4286"/>
<text text-anchor="middle" x="37" y="-84.7117" font-family="Times,serif" font-size="9.00">352</text>
</g>
<!-- &#45;1&#45;&gt;352 -->
<g id="edge2" class="edge"><title>&#45;1&#45;&gt;352</title>
<path fill="none" stroke="green" stroke-width="0.438926" d="M15.1663,-143.992C17.8945,-136.985 22.0008,-126.438 25.9188,-116.374"/>
<polygon fill="green" stroke="green" stroke-width="0.438926" points="29.1998,-117.594 29.5663,-107.005 22.6767,-115.054 29.1998,-117.594"/>
</g>
<!-- &#45;2 -->
<g id="node2" class="node"><title>&#45;2</title>
<polygon fill="lightgray" stroke="black" points="100,-95.9117 76,-95.9117 76,-77.9117 100,-77.9117 100,-95.9117"/>
<text text-anchor="middle" x="88" y="-84.7117" font-family="Times,serif" font-size="9.00">&#45;2</text>
</g>
<!-- &#45;2&#45;&gt;0 -->
<g id="edge3" class="edge"><title>&#45;2&#45;&gt;0</title>
<path fill="none" stroke="red" stroke-width="0.297949" d="M85.0175,-77.8746C81.4886,-68.3653 75.4609,-52.1224 70.459,-38.6437"/>
<polygon fill="red" stroke="red" stroke-width="0.297949" points="73.6529,-37.1901 66.8923,-29.0326 67.0902,-39.6256 73.6529,-37.1901"/>
</g>
<!-- &#45;3 -->
<g id="node3" class="node"><title>&#45;3</title>
<polygon fill="lightgray" stroke="black" points="66,-162.125 42,-162.125 42,-144.125 66,-144.125 66,-162.125"/>
<text text-anchor="middle" x="54" y="-150.925" font-family="Times,serif" font-size="9.00">&#45;3</text>
</g>
<!-- &#45;4 -->
<g id="node4" class="node"><title>&#45;4</title>
<polygon fill="lightgray" stroke="black" points="142,-95.9117 118,-95.9117 118,-77.9117 142,-77.9117 142,-95.9117"/>
<text text-anchor="middle" x="130" y="-84.7117" font-family="Times,serif" font-size="9.00">&#45;4</text>
</g>
<!-- &#45;4&#45;&gt;0 -->
<g id="edge5" class="edge"><title>&#45;4&#45;&gt;0</title>
<path fill="none" stroke="red" stroke-width="0.642605" d="M122.2,-77.8746C111.721,-67.0781 92.8176,-47.6015 78.9813,-33.3456"/>
<polygon fill="red" stroke="red" stroke-width="0.642605" points="81.3777,-30.7893 71.9014,-26.051 76.3545,-35.6645 81.3777,-30.7893"/>
</g>
<!-- 352&#45;&gt;0 -->
<g id="edge1" class="edge"><title>352&#45;&gt;0</title>
<path fill="none" stroke="green" stroke-width="0.233106" d="M43.8314,-66.7668C46.9405,-58.0533 50.6434,-47.6762 53.8925,-38.5704"/>
<polygon fill="green" stroke="green" stroke-width="0.233106" points="57.248,-39.581 57.3124,-28.9863 50.6552,-37.2284 57.248,-39.581"/>
</g>
</g>
</svg>
