<?xml version="1.0" encoding="UTF-8" standalone="no"?>
<!DOCTYPE svg PUBLIC "-//W3C//DTD SVG 1.1//EN"
 "http://www.w3.org/Graphics/SVG/1.1/DTD/svg11.dtd">
<!-- Generated by graphviz version 2.38.0 (20140413.2041)
 -->
<!-- Title: %3 Pages: 1 -->
<svg width="145pt" height="164pt"
 viewBox="0.00 0.00 145.38 164.47" xmlns="http://www.w3.org/2000/svg" xmlns:xlink="http://www.w3.org/1999/xlink">
<g id="graph0" class="graph" transform="scale(1 1) rotate(0) translate(4 160.468)">
<title>%3</title>
<polygon fill="white" stroke="none" points="-4,4 -4,-160.468 141.385,-160.468 141.385,4 -4,4"/>
<!-- &#45;1 -->
<g id="node1" class="node"><title>&#45;1</title>
<polygon fill="lightgray" stroke="black" points="24,-156.468 0,-156.468 0,-138.468 24,-138.468 24,-156.468"/>
<text text-anchor="middle" x="12" y="-145.268" font-family="Times,serif" font-size="9.00">&#45;1</text>
</g>
<!-- &#45;2 -->
<g id="node2" class="node"><title>&#45;2</title>
<polygon fill="lightgray" stroke="black" points="66,-156.468 42,-156.468 42,-138.468 66,-138.468 66,-156.468"/>
<text text-anchor="middle" x="54" y="-145.268" font-family="Times,serif" font-size="9.00">&#45;2</text>
</g>
<!-- &#45;3 -->
<g id="node3" class="node"><title>&#45;3</title>
<polygon fill="lightgray" stroke="black" points="45,-93.0833 21,-93.0833 21,-75.0833 45,-75.0833 45,-93.0833"/>
<text text-anchor="middle" x="33" y="-81.8833" font-family="Times,serif" font-size="9.00">&#45;3</text>
</g>
<!-- 0 -->
<g id="node5" class="node"><title>0</title>
<ellipse fill="lightblue" stroke="black" cx="73" cy="-14.8492" rx="14.7" ry="14.7"/>
<text text-anchor="middle" x="73" y="-12.6492" font-family="Times,serif" font-size="9.00">0</text>
</g>
<!-- &#45;3&#45;&gt;0 -->
<g id="edge3" class="edge"><title>&#45;3&#45;&gt;0</title>
<path fill="none" stroke="green" stroke-width="0.681807" d="M37.9048,-74.8391C43.4781,-65.4711 52.7904,-49.8186 60.4223,-36.9904"/>
<polygon fill="green" stroke="green" stroke-width="0.681807" points="63.5001,-38.6626 65.6051,-28.279 57.4842,-35.0835 63.5001,-38.6626"/>
</g>
<!-- &#45;4 -->
<g id="node4" class="node"><title>&#45;4</title>
<polygon fill="lightgray" stroke="black" points="108,-156.468 84,-156.468 84,-138.468 108,-138.468 108,-156.468"/>
<text text-anchor="middle" x="96" y="-145.268" font-family="Times,serif" font-size="9.00">&#45;4</text>
</g>
<!-- &#45;4&#45;&gt;0 -->
<g id="edge1" class="edge"><title>&#45;4&#45;&gt;0</title>
<path fill="none" stroke="green" stroke-width="0.278698" d="M94.5612,-138.297C91.1453,-118.898 82.4409,-69.465 77.1957,-39.6767"/>
<polygon fill="green" stroke="green" stroke-width="0.278698" points="80.6171,-38.9244 75.4359,-29.6829 73.7232,-40.1383 80.6171,-38.9244"/>
</g>
<!-- 36 -->
<g id="node6" class="node"><title>36</title>
<ellipse fill="white" stroke="black" cx="119" cy="-84.0833" rx="18.2703" ry="18.2703"/>
<text text-anchor="middle" x="119" y="-81.8833" font-family="Times,serif" font-size="9.00">36</text>
</g>
<!-- &#45;4&#45;&gt;36 -->
<g id="edge2" class="edge"><title>&#45;4&#45;&gt;36</title>
<path fill="none" stroke="green" stroke-width="0.143308" d="M99.0068,-138.443C101.619,-131.472 105.551,-120.977 109.239,-111.133"/>
<polygon fill="green" stroke="green" stroke-width="0.143308" points="112.557,-112.254 112.788,-101.662 106.002,-109.798 112.557,-112.254"/>
</g>
<!-- 36&#45;&gt;0 -->
<g id="edge4" class="edge"><title>36&#45;&gt;0</title>
<path fill="none" stroke="red" stroke-width="0.106377" d="M109.019,-68.4945C102.561,-59.0552 94.0605,-46.6315 86.9397,-36.2236"/>
<polygon fill="red" stroke="red" stroke-width="0.106377" points="89.6583,-33.9987 81.1229,-27.7218 83.881,-37.9514 89.6583,-33.9987"/>
</g>
</g>
</svg>
