<?xml version="1.0" encoding="UTF-8" standalone="no"?>
<!DOCTYPE svg PUBLIC "-//W3C//DTD SVG 1.1//EN"
 "http://www.w3.org/Graphics/SVG/1.1/DTD/svg11.dtd">
<!-- Generated by graphviz version 2.38.0 (20140413.2041)
 -->
<!-- Title: %3 Pages: 1 -->
<svg width="163pt" height="183pt"
 viewBox="0.00 0.00 163.21 182.85" xmlns="http://www.w3.org/2000/svg" xmlns:xlink="http://www.w3.org/1999/xlink">
<g id="graph0" class="graph" transform="scale(1 1) rotate(0) translate(4 178.853)">
<title>%3</title>
<polygon fill="white" stroke="none" points="-4,4 -4,-178.853 159.213,-178.853 159.213,4 -4,4"/>
<!-- &#45;1 -->
<g id="node1" class="node"><title>&#45;1</title>
<polygon fill="lightgray" stroke="black" points="29.2132,-174.853 5.2132,-174.853 5.2132,-156.853 29.2132,-156.853 29.2132,-174.853"/>
<text text-anchor="middle" x="17.2132" y="-163.653" font-family="Times,serif" font-size="9.00">&#45;1</text>
</g>
<!-- 0 -->
<g id="node5" class="node"><title>0</title>
<ellipse fill="lightblue" stroke="black" cx="82.2132" cy="-99.6396" rx="14.7" ry="14.7"/>
<text text-anchor="middle" x="82.2132" y="-97.4396" font-family="Times,serif" font-size="9.00">0</text>
</g>
<!-- &#45;1&#45;&gt;0 -->
<g id="edge2" class="edge"><title>&#45;1&#45;&gt;0</title>
<path fill="none" stroke="green" stroke-width="0.140447" d="M25.4455,-156.72C35.2904,-146.994 52.0376,-130.45 64.7979,-117.844"/>
<polygon fill="green" stroke="green" stroke-width="0.140447" points="67.4762,-120.118 72.1305,-110.6 62.5567,-115.138 67.4762,-120.118"/>
</g>
<!-- 390 -->
<g id="node7" class="node"><title>390</title>
<ellipse fill="white" stroke="black" cx="21.2132" cy="-99.6396" rx="21.4286" ry="21.4286"/>
<text text-anchor="middle" x="21.2132" y="-97.4396" font-family="Times,serif" font-size="9.00">390</text>
</g>
<!-- &#45;1&#45;&gt;390 -->
<g id="edge5" class="edge"><title>&#45;1&#45;&gt;390</title>
<path fill="none" stroke="green" stroke-width="0.232742" d="M17.7198,-156.72C18.1305,-150.128 18.7363,-140.402 19.3286,-130.894"/>
<polygon fill="green" stroke="green" stroke-width="0.232742" points="22.8275,-131.019 19.9561,-120.821 15.841,-130.584 22.8275,-131.019"/>
</g>
<!-- &#45;2 -->
<g id="node2" class="node"><title>&#45;2</title>
<polygon fill="lightgray" stroke="black" points="71.2132,-174.853 47.2132,-174.853 47.2132,-156.853 71.2132,-156.853 71.2132,-174.853"/>
<text text-anchor="middle" x="59.2132" y="-163.653" font-family="Times,serif" font-size="9.00">&#45;2</text>
</g>
<!-- &#45;2&#45;&gt;0 -->
<g id="edge7" class="edge"><title>&#45;2&#45;&gt;0</title>
<path fill="none" stroke="red" stroke-width="0.114881" d="M62.1262,-156.72C65.1179,-148.368 69.9111,-134.986 74.0649,-123.389"/>
<polygon fill="red" stroke="red" stroke-width="0.114881" points="77.4123,-124.422 77.4894,-113.828 70.8223,-122.062 77.4123,-124.422"/>
</g>
<!-- &#45;3 -->
<g id="node3" class="node"><title>&#45;3</title>
<polygon fill="lightgray" stroke="black" points="155.213,-174.853 131.213,-174.853 131.213,-156.853 155.213,-156.853 155.213,-174.853"/>
<text text-anchor="middle" x="143.213" y="-163.653" font-family="Times,serif" font-size="9.00">&#45;3</text>
</g>
<!-- &#45;3&#45;&gt;0 -->
<g id="edge6" class="edge"><title>&#45;3&#45;&gt;0</title>
<path fill="none" stroke="red" stroke-width="0.327098" d="M135.488,-156.72C126.441,-147.197 111.183,-131.136 99.3095,-118.636"/>
<polygon fill="red" stroke="red" stroke-width="0.327098" points="101.519,-115.881 92.0944,-111.041 96.4443,-120.702 101.519,-115.881"/>
</g>
<!-- 233 -->
<g id="node6" class="node"><title>233</title>
<ellipse fill="white" stroke="black" cx="80.2132" cy="-21.2132" rx="21.4286" ry="21.4286"/>
<text text-anchor="middle" x="80.2132" y="-19.0132" font-family="Times,serif" font-size="9.00">233</text>
</g>
<!-- &#45;3&#45;&gt;233 -->
<g id="edge4" class="edge"><title>&#45;3&#45;&gt;233</title>
<path fill="none" stroke="green" stroke-width="0.172251" d="M139.822,-156.717C133.399,-141.356 118.959,-107.055 106.213,-78.4264 102.07,-69.1206 97.433,-59.0042 93.2347,-49.9515"/>
<polygon fill="green" stroke="green" stroke-width="0.172251" points="96.2903,-48.222 88.8956,-40.6346 89.9447,-51.1773 96.2903,-48.222"/>
</g>
<!-- &#45;4 -->
<g id="node4" class="node"><title>&#45;4</title>
<polygon fill="lightgray" stroke="black" points="113.213,-174.853 89.2132,-174.853 89.2132,-156.853 113.213,-156.853 113.213,-174.853"/>
<text text-anchor="middle" x="101.213" y="-163.653" font-family="Times,serif" font-size="9.00">&#45;4</text>
</g>
<!-- &#45;4&#45;&gt;0 -->
<g id="edge3" class="edge"><title>&#45;4&#45;&gt;0</title>
<path fill="none" stroke="red" stroke-width="0.298348" d="M98.8068,-156.72C96.3909,-148.555 92.5531,-135.585 89.1765,-124.173"/>
<polygon fill="red" stroke="red" stroke-width="0.298348" points="92.4529,-122.91 86.2593,-114.314 85.7405,-124.896 92.4529,-122.91"/>
</g>
<!-- 390&#45;&gt;233 -->
<g id="edge1" class="edge"><title>390&#45;&gt;233</title>
<path fill="none" stroke="red" stroke-width="0.138859" d="M33.7256,-82.4315C41.7825,-71.9949 52.404,-58.2362 61.4602,-46.5051"/>
<polygon fill="red" stroke="red" stroke-width="0.138859" points="64.3785,-48.4524 67.7189,-38.3979 58.8375,-44.1748 64.3785,-48.4524"/>
</g>
</g>
</svg>
