<?xml version="1.0" encoding="UTF-8" standalone="no"?>
<!DOCTYPE svg PUBLIC "-//W3C//DTD SVG 1.1//EN"
 "http://www.w3.org/Graphics/SVG/1.1/DTD/svg11.dtd">
<!-- Generated by graphviz version 2.38.0 (20140413.2041)
 -->
<!-- Title: %3 Pages: 1 -->
<svg width="158pt" height="183pt"
 viewBox="0.00 0.00 158.00 182.85" xmlns="http://www.w3.org/2000/svg" xmlns:xlink="http://www.w3.org/1999/xlink">
<g id="graph0" class="graph" transform="scale(1 1) rotate(0) translate(4 178.853)">
<title>%3</title>
<polygon fill="white" stroke="none" points="-4,4 -4,-178.853 154,-178.853 154,4 -4,4"/>
<!-- &#45;1 -->
<g id="node1" class="node"><title>&#45;1</title>
<polygon fill="lightgray" stroke="black" points="24,-174.853 0,-174.853 0,-156.853 24,-156.853 24,-174.853"/>
<text text-anchor="middle" x="12" y="-163.653" font-family="Times,serif" font-size="9.00">&#45;1</text>
</g>
<!-- 0 -->
<g id="node5" class="node"><title>0</title>
<ellipse fill="lightblue" stroke="black" cx="95" cy="-99.6396" rx="14.7" ry="14.7"/>
<text text-anchor="middle" x="95" y="-97.4396" font-family="Times,serif" font-size="9.00">0</text>
</g>
<!-- &#45;1&#45;&gt;0 -->
<g id="edge2" class="edge"><title>&#45;1&#45;&gt;0</title>
<path fill="none" stroke="green" stroke-width="0.140447" d="M23.4617,-156.614C35.4615,-147.917 54.7796,-133.713 71,-120.853 72.6007,-119.584 74.2475,-118.253 75.8925,-116.905"/>
<polygon fill="green" stroke="green" stroke-width="0.140447" points="78.4451,-119.333 83.8806,-110.239 73.9602,-113.959 78.4451,-119.333"/>
</g>
<!-- 233 -->
<g id="node6" class="node"><title>233</title>
<ellipse fill="white" stroke="black" cx="41" cy="-21.2132" rx="21.4286" ry="21.4286"/>
<text text-anchor="middle" x="41" y="-19.0132" font-family="Times,serif" font-size="9.00">233</text>
</g>
<!-- &#45;1&#45;&gt;233 -->
<g id="edge5" class="edge"><title>&#45;1&#45;&gt;233</title>
<path fill="none" stroke="green" stroke-width="0.105667" stroke-dasharray="1,5" d="M10.5329,-156.589C8.06679,-141.016 4.00857,-106.376 11,-78.4264 13.6576,-67.8023 18.7462,-56.9885 23.9882,-47.7206"/>
<polygon fill="green" stroke="green" stroke-width="0.105667" points="27.0569,-49.4087 29.197,-39.0323 21.0532,-45.8094 27.0569,-49.4087"/>
</g>
<!-- 390 -->
<g id="node7" class="node"><title>390</title>
<ellipse fill="white" stroke="black" cx="41" cy="-99.6396" rx="21.4286" ry="21.4286"/>
<text text-anchor="middle" x="41" y="-97.4396" font-family="Times,serif" font-size="9.00">390</text>
</g>
<!-- &#45;1&#45;&gt;390 -->
<g id="edge6" class="edge"><title>&#45;1&#45;&gt;390</title>
<path fill="none" stroke="green" stroke-width="0.232742" d="M15.6729,-156.72C18.9169,-149.537 23.8406,-138.635 28.487,-128.347"/>
<polygon fill="green" stroke="green" stroke-width="0.232742" points="31.6937,-129.75 32.6199,-119.195 25.3141,-126.868 31.6937,-129.75"/>
</g>
<!-- &#45;2 -->
<g id="node2" class="node"><title>&#45;2</title>
<polygon fill="lightgray" stroke="black" points="66,-174.853 42,-174.853 42,-156.853 66,-156.853 66,-174.853"/>
<text text-anchor="middle" x="54" y="-163.653" font-family="Times,serif" font-size="9.00">&#45;2</text>
</g>
<!-- &#45;2&#45;&gt;0 -->
<g id="edge8" class="edge"><title>&#45;2&#45;&gt;0</title>
<path fill="none" stroke="red" stroke-width="0.114881" d="M59.1927,-156.72C64.8248,-147.899 74.0382,-133.469 81.7087,-121.456"/>
<polygon fill="red" stroke="red" stroke-width="0.114881" points="84.7571,-123.186 87.1887,-112.874 78.8571,-119.418 84.7571,-123.186"/>
</g>
<!-- &#45;3 -->
<g id="node3" class="node"><title>&#45;3</title>
<polygon fill="lightgray" stroke="black" points="150,-174.853 126,-174.853 126,-156.853 150,-156.853 150,-174.853"/>
<text text-anchor="middle" x="138" y="-163.653" font-family="Times,serif" font-size="9.00">&#45;3</text>
</g>
<!-- &#45;3&#45;&gt;0 -->
<g id="edge7" class="edge"><title>&#45;3&#45;&gt;0</title>
<path fill="none" stroke="red" stroke-width="0.327098" d="M132.554,-156.72C126.575,-147.792 116.748,-133.117 108.646,-121.018"/>
<polygon fill="red" stroke="red" stroke-width="0.327098" points="111.351,-118.767 102.879,-112.406 105.535,-122.662 111.351,-118.767"/>
</g>
<!-- &#45;3&#45;&gt;233 -->
<g id="edge4" class="edge"><title>&#45;3&#45;&gt;233</title>
<path fill="none" stroke="green" stroke-width="0.172251" d="M138.077,-156.483C137.839,-140.124 135.367,-103.334 119,-78.4264 106.78,-59.8297 86.1348,-45.3575 69.1533,-35.7572"/>
<polygon fill="green" stroke="green" stroke-width="0.172251" points="70.638,-32.5818 60.1728,-30.9297 67.3236,-38.7474 70.638,-32.5818"/>
</g>
<!-- &#45;4 -->
<g id="node4" class="node"><title>&#45;4</title>
<polygon fill="lightgray" stroke="black" points="108,-174.853 84,-174.853 84,-156.853 108,-156.853 108,-174.853"/>
<text text-anchor="middle" x="96" y="-163.653" font-family="Times,serif" font-size="9.00">&#45;4</text>
</g>
<!-- &#45;4&#45;&gt;0 -->
<g id="edge3" class="edge"><title>&#45;4&#45;&gt;0</title>
<path fill="none" stroke="red" stroke-width="0.298348" d="M95.8733,-156.72C95.7491,-148.741 95.5533,-136.172 95.3786,-124.954"/>
<polygon fill="red" stroke="red" stroke-width="0.298348" points="98.876,-124.75 95.2206,-114.806 91.8768,-124.859 98.876,-124.75"/>
</g>
<!-- 390&#45;&gt;233 -->
<g id="edge1" class="edge"><title>390&#45;&gt;233</title>
<path fill="none" stroke="red" stroke-width="0.138859" d="M41,-78.1587C41,-70.3001 41,-61.1558 41,-52.5655"/>
<polygon fill="red" stroke="red" stroke-width="0.138859" points="44.5001,-52.4856 41,-42.4856 37.5001,-52.4856 44.5001,-52.4856"/>
</g>
</g>
</svg>
