<?xml version="1.0" encoding="utf-8" standalone="no"?>
<!DOCTYPE svg PUBLIC "-//W3C//DTD SVG 1.1//EN"
  "http://www.w3.org/Graphics/SVG/1.1/DTD/svg11.dtd">
<!-- Created with matplotlib (http://matplotlib.org/) -->
<svg height="345.6pt" version="1.1" viewBox="0 0 460.8 345.6" width="460.8pt" xmlns="http://www.w3.org/2000/svg" xmlns:xlink="http://www.w3.org/1999/xlink">
 <defs>
  <style type="text/css">
*{stroke-linecap:butt;stroke-linejoin:round;}
  </style>
 </defs>
 <g id="figure_1">
  <g id="patch_1">
   <path d="M 0 345.6 
L 460.8 345.6 
L 460.8 0 
L 0 0 
z
" style="fill:#ffffff;"/>
  </g>
  <g id="axes_1">
   <g id="patch_2">
    <path d="M 57.6 307.584 
L 414.72 307.584 
L 414.72 41.472 
L 57.6 41.472 
z
" style="fill:#ffffff;"/>
   </g>
   <g id="matplotlib.axis_1">
    <g id="xtick_1">
     <g id="line2d_1">
      <path clip-path="url(#pe900091b31)" d="M 73.832727 307.584 
L 73.832727 41.472 
" style="fill:none;stroke:#b0b0b0;stroke-linecap:square;stroke-width:0.8;"/>
     </g>
     <g id="line2d_2">
      <defs>
       <path d="M 0 0 
L 0 3.5 
" id="mc48545c308" style="stroke:#000000;stroke-width:0.8;"/>
      </defs>
      <g>
       <use style="stroke:#000000;stroke-width:0.8;" x="73.832727" xlink:href="#mc48545c308" y="307.584"/>
      </g>
     </g>
     <g id="text_1">
      <!-- 0 -->
      <defs>
       <path d="M 31.78125 66.40625 
Q 24.171875 66.40625 20.328125 58.90625 
Q 16.5 51.421875 16.5 36.375 
Q 16.5 21.390625 20.328125 13.890625 
Q 24.171875 6.390625 31.78125 6.390625 
Q 39.453125 6.390625 43.28125 13.890625 
Q 47.125 21.390625 47.125 36.375 
Q 47.125 51.421875 43.28125 58.90625 
Q 39.453125 66.40625 31.78125 66.40625 
z
M 31.78125 74.21875 
Q 44.046875 74.21875 50.515625 64.515625 
Q 56.984375 54.828125 56.984375 36.375 
Q 56.984375 17.96875 50.515625 8.265625 
Q 44.046875 -1.421875 31.78125 -1.421875 
Q 19.53125 -1.421875 13.0625 8.265625 
Q 6.59375 17.96875 6.59375 36.375 
Q 6.59375 54.828125 13.0625 64.515625 
Q 19.53125 74.21875 31.78125 74.21875 
z
" id="DejaVuSans-30"/>
      </defs>
      <g transform="translate(70.651477 322.182437)scale(0.1 -0.1)">
       <use xlink:href="#DejaVuSans-30"/>
      </g>
     </g>
    </g>
    <g id="xtick_2">
     <g id="line2d_3">
      <path clip-path="url(#pe900091b31)" d="M 128.122785 307.584 
L 128.122785 41.472 
" style="fill:none;stroke:#b0b0b0;stroke-linecap:square;stroke-width:0.8;"/>
     </g>
     <g id="line2d_4">
      <g>
       <use style="stroke:#000000;stroke-width:0.8;" x="128.122785" xlink:href="#mc48545c308" y="307.584"/>
      </g>
     </g>
     <g id="text_2">
      <!-- 50 -->
      <defs>
       <path d="M 10.796875 72.90625 
L 49.515625 72.90625 
L 49.515625 64.59375 
L 19.828125 64.59375 
L 19.828125 46.734375 
Q 21.96875 47.46875 24.109375 47.828125 
Q 26.265625 48.1875 28.421875 48.1875 
Q 40.625 48.1875 47.75 41.5 
Q 54.890625 34.8125 54.890625 23.390625 
Q 54.890625 11.625 47.5625 5.09375 
Q 40.234375 -1.421875 26.90625 -1.421875 
Q 22.3125 -1.421875 17.546875 -0.640625 
Q 12.796875 0.140625 7.71875 1.703125 
L 7.71875 11.625 
Q 12.109375 9.234375 16.796875 8.0625 
Q 21.484375 6.890625 26.703125 6.890625 
Q 35.15625 6.890625 40.078125 11.328125 
Q 45.015625 15.765625 45.015625 23.390625 
Q 45.015625 31 40.078125 35.4375 
Q 35.15625 39.890625 26.703125 39.890625 
Q 22.75 39.890625 18.8125 39.015625 
Q 14.890625 38.140625 10.796875 36.28125 
z
" id="DejaVuSans-35"/>
      </defs>
      <g transform="translate(121.760285 322.182437)scale(0.1 -0.1)">
       <use xlink:href="#DejaVuSans-35"/>
       <use x="63.623047" xlink:href="#DejaVuSans-30"/>
      </g>
     </g>
    </g>
    <g id="xtick_3">
     <g id="line2d_5">
      <path clip-path="url(#pe900091b31)" d="M 182.412843 307.584 
L 182.412843 41.472 
" style="fill:none;stroke:#b0b0b0;stroke-linecap:square;stroke-width:0.8;"/>
     </g>
     <g id="line2d_6">
      <g>
       <use style="stroke:#000000;stroke-width:0.8;" x="182.412843" xlink:href="#mc48545c308" y="307.584"/>
      </g>
     </g>
     <g id="text_3">
      <!-- 100 -->
      <defs>
       <path d="M 12.40625 8.296875 
L 28.515625 8.296875 
L 28.515625 63.921875 
L 10.984375 60.40625 
L 10.984375 69.390625 
L 28.421875 72.90625 
L 38.28125 72.90625 
L 38.28125 8.296875 
L 54.390625 8.296875 
L 54.390625 0 
L 12.40625 0 
z
" id="DejaVuSans-31"/>
      </defs>
      <g transform="translate(172.869093 322.182437)scale(0.1 -0.1)">
       <use xlink:href="#DejaVuSans-31"/>
       <use x="63.623047" xlink:href="#DejaVuSans-30"/>
       <use x="127.246094" xlink:href="#DejaVuSans-30"/>
      </g>
     </g>
    </g>
    <g id="xtick_4">
     <g id="line2d_7">
      <path clip-path="url(#pe900091b31)" d="M 236.702901 307.584 
L 236.702901 41.472 
" style="fill:none;stroke:#b0b0b0;stroke-linecap:square;stroke-width:0.8;"/>
     </g>
     <g id="line2d_8">
      <g>
       <use style="stroke:#000000;stroke-width:0.8;" x="236.702901" xlink:href="#mc48545c308" y="307.584"/>
      </g>
     </g>
     <g id="text_4">
      <!-- 150 -->
      <g transform="translate(227.159151 322.182437)scale(0.1 -0.1)">
       <use xlink:href="#DejaVuSans-31"/>
       <use x="63.623047" xlink:href="#DejaVuSans-35"/>
       <use x="127.246094" xlink:href="#DejaVuSans-30"/>
      </g>
     </g>
    </g>
    <g id="xtick_5">
     <g id="line2d_9">
      <path clip-path="url(#pe900091b31)" d="M 290.992958 307.584 
L 290.992958 41.472 
" style="fill:none;stroke:#b0b0b0;stroke-linecap:square;stroke-width:0.8;"/>
     </g>
     <g id="line2d_10">
      <g>
       <use style="stroke:#000000;stroke-width:0.8;" x="290.992958" xlink:href="#mc48545c308" y="307.584"/>
      </g>
     </g>
     <g id="text_5">
      <!-- 200 -->
      <defs>
       <path d="M 19.1875 8.296875 
L 53.609375 8.296875 
L 53.609375 0 
L 7.328125 0 
L 7.328125 8.296875 
Q 12.9375 14.109375 22.625 23.890625 
Q 32.328125 33.6875 34.8125 36.53125 
Q 39.546875 41.84375 41.421875 45.53125 
Q 43.3125 49.21875 43.3125 52.78125 
Q 43.3125 58.59375 39.234375 62.25 
Q 35.15625 65.921875 28.609375 65.921875 
Q 23.96875 65.921875 18.8125 64.3125 
Q 13.671875 62.703125 7.8125 59.421875 
L 7.8125 69.390625 
Q 13.765625 71.78125 18.9375 73 
Q 24.125 74.21875 28.421875 74.21875 
Q 39.75 74.21875 46.484375 68.546875 
Q 53.21875 62.890625 53.21875 53.421875 
Q 53.21875 48.921875 51.53125 44.890625 
Q 49.859375 40.875 45.40625 35.40625 
Q 44.1875 33.984375 37.640625 27.21875 
Q 31.109375 20.453125 19.1875 8.296875 
z
" id="DejaVuSans-32"/>
      </defs>
      <g transform="translate(281.449208 322.182437)scale(0.1 -0.1)">
       <use xlink:href="#DejaVuSans-32"/>
       <use x="63.623047" xlink:href="#DejaVuSans-30"/>
       <use x="127.246094" xlink:href="#DejaVuSans-30"/>
      </g>
     </g>
    </g>
    <g id="xtick_6">
     <g id="line2d_11">
      <path clip-path="url(#pe900091b31)" d="M 345.283016 307.584 
L 345.283016 41.472 
" style="fill:none;stroke:#b0b0b0;stroke-linecap:square;stroke-width:0.8;"/>
     </g>
     <g id="line2d_12">
      <g>
       <use style="stroke:#000000;stroke-width:0.8;" x="345.283016" xlink:href="#mc48545c308" y="307.584"/>
      </g>
     </g>
     <g id="text_6">
      <!-- 250 -->
      <g transform="translate(335.739266 322.182437)scale(0.1 -0.1)">
       <use xlink:href="#DejaVuSans-32"/>
       <use x="63.623047" xlink:href="#DejaVuSans-35"/>
       <use x="127.246094" xlink:href="#DejaVuSans-30"/>
      </g>
     </g>
    </g>
    <g id="xtick_7">
     <g id="line2d_13">
      <path clip-path="url(#pe900091b31)" d="M 399.573074 307.584 
L 399.573074 41.472 
" style="fill:none;stroke:#b0b0b0;stroke-linecap:square;stroke-width:0.8;"/>
     </g>
     <g id="line2d_14">
      <g>
       <use style="stroke:#000000;stroke-width:0.8;" x="399.573074" xlink:href="#mc48545c308" y="307.584"/>
      </g>
     </g>
     <g id="text_7">
      <!-- 300 -->
      <defs>
       <path d="M 40.578125 39.3125 
Q 47.65625 37.796875 51.625 33 
Q 55.609375 28.21875 55.609375 21.1875 
Q 55.609375 10.40625 48.1875 4.484375 
Q 40.765625 -1.421875 27.09375 -1.421875 
Q 22.515625 -1.421875 17.65625 -0.515625 
Q 12.796875 0.390625 7.625 2.203125 
L 7.625 11.71875 
Q 11.71875 9.328125 16.59375 8.109375 
Q 21.484375 6.890625 26.8125 6.890625 
Q 36.078125 6.890625 40.9375 10.546875 
Q 45.796875 14.203125 45.796875 21.1875 
Q 45.796875 27.640625 41.28125 31.265625 
Q 36.765625 34.90625 28.71875 34.90625 
L 20.21875 34.90625 
L 20.21875 43.015625 
L 29.109375 43.015625 
Q 36.375 43.015625 40.234375 45.921875 
Q 44.09375 48.828125 44.09375 54.296875 
Q 44.09375 59.90625 40.109375 62.90625 
Q 36.140625 65.921875 28.71875 65.921875 
Q 24.65625 65.921875 20.015625 65.03125 
Q 15.375 64.15625 9.8125 62.3125 
L 9.8125 71.09375 
Q 15.4375 72.65625 20.34375 73.4375 
Q 25.25 74.21875 29.59375 74.21875 
Q 40.828125 74.21875 47.359375 69.109375 
Q 53.90625 64.015625 53.90625 55.328125 
Q 53.90625 49.265625 50.4375 45.09375 
Q 46.96875 40.921875 40.578125 39.3125 
z
" id="DejaVuSans-33"/>
      </defs>
      <g transform="translate(390.029324 322.182437)scale(0.1 -0.1)">
       <use xlink:href="#DejaVuSans-33"/>
       <use x="63.623047" xlink:href="#DejaVuSans-30"/>
       <use x="127.246094" xlink:href="#DejaVuSans-30"/>
      </g>
     </g>
    </g>
    <g id="text_8">
     <!-- Generations -->
     <defs>
      <path d="M 59.515625 10.40625 
L 59.515625 29.984375 
L 43.40625 29.984375 
L 43.40625 38.09375 
L 69.28125 38.09375 
L 69.28125 6.78125 
Q 63.578125 2.734375 56.6875 0.65625 
Q 49.8125 -1.421875 42 -1.421875 
Q 24.90625 -1.421875 15.25 8.5625 
Q 5.609375 18.5625 5.609375 36.375 
Q 5.609375 54.25 15.25 64.234375 
Q 24.90625 74.21875 42 74.21875 
Q 49.125 74.21875 55.546875 72.453125 
Q 61.96875 70.703125 67.390625 67.28125 
L 67.390625 56.78125 
Q 61.921875 61.421875 55.765625 63.765625 
Q 49.609375 66.109375 42.828125 66.109375 
Q 29.4375 66.109375 22.71875 58.640625 
Q 16.015625 51.171875 16.015625 36.375 
Q 16.015625 21.625 22.71875 14.15625 
Q 29.4375 6.6875 42.828125 6.6875 
Q 48.046875 6.6875 52.140625 7.59375 
Q 56.25 8.5 59.515625 10.40625 
z
" id="DejaVuSans-47"/>
      <path d="M 56.203125 29.59375 
L 56.203125 25.203125 
L 14.890625 25.203125 
Q 15.484375 15.921875 20.484375 11.0625 
Q 25.484375 6.203125 34.421875 6.203125 
Q 39.59375 6.203125 44.453125 7.46875 
Q 49.3125 8.734375 54.109375 11.28125 
L 54.109375 2.78125 
Q 49.265625 0.734375 44.1875 -0.34375 
Q 39.109375 -1.421875 33.890625 -1.421875 
Q 20.796875 -1.421875 13.15625 6.1875 
Q 5.515625 13.8125 5.515625 26.8125 
Q 5.515625 40.234375 12.765625 48.109375 
Q 20.015625 56 32.328125 56 
Q 43.359375 56 49.78125 48.890625 
Q 56.203125 41.796875 56.203125 29.59375 
z
M 47.21875 32.234375 
Q 47.125 39.59375 43.09375 43.984375 
Q 39.0625 48.390625 32.421875 48.390625 
Q 24.90625 48.390625 20.390625 44.140625 
Q 15.875 39.890625 15.1875 32.171875 
z
" id="DejaVuSans-65"/>
      <path d="M 54.890625 33.015625 
L 54.890625 0 
L 45.90625 0 
L 45.90625 32.71875 
Q 45.90625 40.484375 42.875 44.328125 
Q 39.84375 48.1875 33.796875 48.1875 
Q 26.515625 48.1875 22.3125 43.546875 
Q 18.109375 38.921875 18.109375 30.90625 
L 18.109375 0 
L 9.078125 0 
L 9.078125 54.6875 
L 18.109375 54.6875 
L 18.109375 46.1875 
Q 21.34375 51.125 25.703125 53.5625 
Q 30.078125 56 35.796875 56 
Q 45.21875 56 50.046875 50.171875 
Q 54.890625 44.34375 54.890625 33.015625 
z
" id="DejaVuSans-6e"/>
      <path d="M 41.109375 46.296875 
Q 39.59375 47.171875 37.8125 47.578125 
Q 36.03125 48 33.890625 48 
Q 26.265625 48 22.1875 43.046875 
Q 18.109375 38.09375 18.109375 28.8125 
L 18.109375 0 
L 9.078125 0 
L 9.078125 54.6875 
L 18.109375 54.6875 
L 18.109375 46.1875 
Q 20.953125 51.171875 25.484375 53.578125 
Q 30.03125 56 36.53125 56 
Q 37.453125 56 38.578125 55.875 
Q 39.703125 55.765625 41.0625 55.515625 
z
" id="DejaVuSans-72"/>
      <path d="M 34.28125 27.484375 
Q 23.390625 27.484375 19.1875 25 
Q 14.984375 22.515625 14.984375 16.5 
Q 14.984375 11.71875 18.140625 8.90625 
Q 21.296875 6.109375 26.703125 6.109375 
Q 34.1875 6.109375 38.703125 11.40625 
Q 43.21875 16.703125 43.21875 25.484375 
L 43.21875 27.484375 
z
M 52.203125 31.203125 
L 52.203125 0 
L 43.21875 0 
L 43.21875 8.296875 
Q 40.140625 3.328125 35.546875 0.953125 
Q 30.953125 -1.421875 24.3125 -1.421875 
Q 15.921875 -1.421875 10.953125 3.296875 
Q 6 8.015625 6 15.921875 
Q 6 25.140625 12.171875 29.828125 
Q 18.359375 34.515625 30.609375 34.515625 
L 43.21875 34.515625 
L 43.21875 35.40625 
Q 43.21875 41.609375 39.140625 45 
Q 35.0625 48.390625 27.6875 48.390625 
Q 23 48.390625 18.546875 47.265625 
Q 14.109375 46.140625 10.015625 43.890625 
L 10.015625 52.203125 
Q 14.9375 54.109375 19.578125 55.046875 
Q 24.21875 56 28.609375 56 
Q 40.484375 56 46.34375 49.84375 
Q 52.203125 43.703125 52.203125 31.203125 
z
" id="DejaVuSans-61"/>
      <path d="M 18.3125 70.21875 
L 18.3125 54.6875 
L 36.8125 54.6875 
L 36.8125 47.703125 
L 18.3125 47.703125 
L 18.3125 18.015625 
Q 18.3125 11.328125 20.140625 9.421875 
Q 21.96875 7.515625 27.59375 7.515625 
L 36.8125 7.515625 
L 36.8125 0 
L 27.59375 0 
Q 17.1875 0 13.234375 3.875 
Q 9.28125 7.765625 9.28125 18.015625 
L 9.28125 47.703125 
L 2.6875 47.703125 
L 2.6875 54.6875 
L 9.28125 54.6875 
L 9.28125 70.21875 
z
" id="DejaVuSans-74"/>
      <path d="M 9.421875 54.6875 
L 18.40625 54.6875 
L 18.40625 0 
L 9.421875 0 
z
M 9.421875 75.984375 
L 18.40625 75.984375 
L 18.40625 64.59375 
L 9.421875 64.59375 
z
" id="DejaVuSans-69"/>
      <path d="M 30.609375 48.390625 
Q 23.390625 48.390625 19.1875 42.75 
Q 14.984375 37.109375 14.984375 27.296875 
Q 14.984375 17.484375 19.15625 11.84375 
Q 23.34375 6.203125 30.609375 6.203125 
Q 37.796875 6.203125 41.984375 11.859375 
Q 46.1875 17.53125 46.1875 27.296875 
Q 46.1875 37.015625 41.984375 42.703125 
Q 37.796875 48.390625 30.609375 48.390625 
z
M 30.609375 56 
Q 42.328125 56 49.015625 48.375 
Q 55.71875 40.765625 55.71875 27.296875 
Q 55.71875 13.875 49.015625 6.21875 
Q 42.328125 -1.421875 30.609375 -1.421875 
Q 18.84375 -1.421875 12.171875 6.21875 
Q 5.515625 13.875 5.515625 27.296875 
Q 5.515625 40.765625 12.171875 48.375 
Q 18.84375 56 30.609375 56 
z
" id="DejaVuSans-6f"/>
      <path d="M 44.28125 53.078125 
L 44.28125 44.578125 
Q 40.484375 46.53125 36.375 47.5 
Q 32.28125 48.484375 27.875 48.484375 
Q 21.1875 48.484375 17.84375 46.4375 
Q 14.5 44.390625 14.5 40.28125 
Q 14.5 37.15625 16.890625 35.375 
Q 19.28125 33.59375 26.515625 31.984375 
L 29.59375 31.296875 
Q 39.15625 29.25 43.1875 25.515625 
Q 47.21875 21.78125 47.21875 15.09375 
Q 47.21875 7.46875 41.1875 3.015625 
Q 35.15625 -1.421875 24.609375 -1.421875 
Q 20.21875 -1.421875 15.453125 -0.5625 
Q 10.6875 0.296875 5.421875 2 
L 5.421875 11.28125 
Q 10.40625 8.6875 15.234375 7.390625 
Q 20.0625 6.109375 24.8125 6.109375 
Q 31.15625 6.109375 34.5625 8.28125 
Q 37.984375 10.453125 37.984375 14.40625 
Q 37.984375 18.0625 35.515625 20.015625 
Q 33.0625 21.96875 24.703125 23.78125 
L 21.578125 24.515625 
Q 13.234375 26.265625 9.515625 29.90625 
Q 5.8125 33.546875 5.8125 39.890625 
Q 5.8125 47.609375 11.28125 51.796875 
Q 16.75 56 26.8125 56 
Q 31.78125 56 36.171875 55.265625 
Q 40.578125 54.546875 44.28125 53.078125 
z
" id="DejaVuSans-73"/>
     </defs>
     <g transform="translate(205.662344 335.860562)scale(0.1 -0.1)">
      <use xlink:href="#DejaVuSans-47"/>
      <use x="77.490234" xlink:href="#DejaVuSans-65"/>
      <use x="139.013672" xlink:href="#DejaVuSans-6e"/>
      <use x="202.392578" xlink:href="#DejaVuSans-65"/>
      <use x="263.916016" xlink:href="#DejaVuSans-72"/>
      <use x="305.029297" xlink:href="#DejaVuSans-61"/>
      <use x="366.308594" xlink:href="#DejaVuSans-74"/>
      <use x="405.517578" xlink:href="#DejaVuSans-69"/>
      <use x="433.300781" xlink:href="#DejaVuSans-6f"/>
      <use x="494.482422" xlink:href="#DejaVuSans-6e"/>
      <use x="557.861328" xlink:href="#DejaVuSans-73"/>
     </g>
    </g>
   </g>
   <g id="matplotlib.axis_2">
    <g id="ytick_1">
     <g id="line2d_15">
      <path clip-path="url(#pe900091b31)" d="M 57.6 298.953533 
L 414.72 298.953533 
" style="fill:none;stroke:#b0b0b0;stroke-linecap:square;stroke-width:0.8;"/>
     </g>
     <g id="line2d_16">
      <defs>
       <path d="M 0 0 
L -3.5 0 
" id="m2a0850f01a" style="stroke:#000000;stroke-width:0.8;"/>
      </defs>
      <g>
       <use style="stroke:#000000;stroke-width:0.8;" x="57.6" xlink:href="#m2a0850f01a" y="298.953533"/>
      </g>
     </g>
     <g id="text_9">
      <!-- −1000 -->
      <defs>
       <path d="M 10.59375 35.5 
L 73.1875 35.5 
L 73.1875 27.203125 
L 10.59375 27.203125 
z
" id="DejaVuSans-2212"/>
      </defs>
      <g transform="translate(16.770313 302.752752)scale(0.1 -0.1)">
       <use xlink:href="#DejaVuSans-2212"/>
       <use x="83.789062" xlink:href="#DejaVuSans-31"/>
       <use x="147.412109" xlink:href="#DejaVuSans-30"/>
       <use x="211.035156" xlink:href="#DejaVuSans-30"/>
       <use x="274.658203" xlink:href="#DejaVuSans-30"/>
      </g>
     </g>
    </g>
    <g id="ytick_2">
     <g id="line2d_17">
      <path clip-path="url(#pe900091b31)" d="M 57.6 258.741164 
L 414.72 258.741164 
" style="fill:none;stroke:#b0b0b0;stroke-linecap:square;stroke-width:0.8;"/>
     </g>
     <g id="line2d_18">
      <g>
       <use style="stroke:#000000;stroke-width:0.8;" x="57.6" xlink:href="#m2a0850f01a" y="258.741164"/>
      </g>
     </g>
     <g id="text_10">
      <!-- 0 -->
      <g transform="translate(44.2375 262.540382)scale(0.1 -0.1)">
       <use xlink:href="#DejaVuSans-30"/>
      </g>
     </g>
    </g>
    <g id="ytick_3">
     <g id="line2d_19">
      <path clip-path="url(#pe900091b31)" d="M 57.6 218.528794 
L 414.72 218.528794 
" style="fill:none;stroke:#b0b0b0;stroke-linecap:square;stroke-width:0.8;"/>
     </g>
     <g id="line2d_20">
      <g>
       <use style="stroke:#000000;stroke-width:0.8;" x="57.6" xlink:href="#m2a0850f01a" y="218.528794"/>
      </g>
     </g>
     <g id="text_11">
      <!-- 1000 -->
      <g transform="translate(25.15 222.328013)scale(0.1 -0.1)">
       <use xlink:href="#DejaVuSans-31"/>
       <use x="63.623047" xlink:href="#DejaVuSans-30"/>
       <use x="127.246094" xlink:href="#DejaVuSans-30"/>
       <use x="190.869141" xlink:href="#DejaVuSans-30"/>
      </g>
     </g>
    </g>
    <g id="ytick_4">
     <g id="line2d_21">
      <path clip-path="url(#pe900091b31)" d="M 57.6 178.316424 
L 414.72 178.316424 
" style="fill:none;stroke:#b0b0b0;stroke-linecap:square;stroke-width:0.8;"/>
     </g>
     <g id="line2d_22">
      <g>
       <use style="stroke:#000000;stroke-width:0.8;" x="57.6" xlink:href="#m2a0850f01a" y="178.316424"/>
      </g>
     </g>
     <g id="text_12">
      <!-- 2000 -->
      <g transform="translate(25.15 182.115643)scale(0.1 -0.1)">
       <use xlink:href="#DejaVuSans-32"/>
       <use x="63.623047" xlink:href="#DejaVuSans-30"/>
       <use x="127.246094" xlink:href="#DejaVuSans-30"/>
       <use x="190.869141" xlink:href="#DejaVuSans-30"/>
      </g>
     </g>
    </g>
    <g id="ytick_5">
     <g id="line2d_23">
      <path clip-path="url(#pe900091b31)" d="M 57.6 138.104055 
L 414.72 138.104055 
" style="fill:none;stroke:#b0b0b0;stroke-linecap:square;stroke-width:0.8;"/>
     </g>
     <g id="line2d_24">
      <g>
       <use style="stroke:#000000;stroke-width:0.8;" x="57.6" xlink:href="#m2a0850f01a" y="138.104055"/>
      </g>
     </g>
     <g id="text_13">
      <!-- 3000 -->
      <g transform="translate(25.15 141.903274)scale(0.1 -0.1)">
       <use xlink:href="#DejaVuSans-33"/>
       <use x="63.623047" xlink:href="#DejaVuSans-30"/>
       <use x="127.246094" xlink:href="#DejaVuSans-30"/>
       <use x="190.869141" xlink:href="#DejaVuSans-30"/>
      </g>
     </g>
    </g>
    <g id="ytick_6">
     <g id="line2d_25">
      <path clip-path="url(#pe900091b31)" d="M 57.6 97.891685 
L 414.72 97.891685 
" style="fill:none;stroke:#b0b0b0;stroke-linecap:square;stroke-width:0.8;"/>
     </g>
     <g id="line2d_26">
      <g>
       <use style="stroke:#000000;stroke-width:0.8;" x="57.6" xlink:href="#m2a0850f01a" y="97.891685"/>
      </g>
     </g>
     <g id="text_14">
      <!-- 4000 -->
      <defs>
       <path d="M 37.796875 64.3125 
L 12.890625 25.390625 
L 37.796875 25.390625 
z
M 35.203125 72.90625 
L 47.609375 72.90625 
L 47.609375 25.390625 
L 58.015625 25.390625 
L 58.015625 17.1875 
L 47.609375 17.1875 
L 47.609375 0 
L 37.796875 0 
L 37.796875 17.1875 
L 4.890625 17.1875 
L 4.890625 26.703125 
z
" id="DejaVuSans-34"/>
      </defs>
      <g transform="translate(25.15 101.690904)scale(0.1 -0.1)">
       <use xlink:href="#DejaVuSans-34"/>
       <use x="63.623047" xlink:href="#DejaVuSans-30"/>
       <use x="127.246094" xlink:href="#DejaVuSans-30"/>
       <use x="190.869141" xlink:href="#DejaVuSans-30"/>
      </g>
     </g>
    </g>
    <g id="ytick_7">
     <g id="line2d_27">
      <path clip-path="url(#pe900091b31)" d="M 57.6 57.679316 
L 414.72 57.679316 
" style="fill:none;stroke:#b0b0b0;stroke-linecap:square;stroke-width:0.8;"/>
     </g>
     <g id="line2d_28">
      <g>
       <use style="stroke:#000000;stroke-width:0.8;" x="57.6" xlink:href="#m2a0850f01a" y="57.679316"/>
      </g>
     </g>
     <g id="text_15">
      <!-- 5000 -->
      <g transform="translate(25.15 61.478535)scale(0.1 -0.1)">
       <use xlink:href="#DejaVuSans-35"/>
       <use x="63.623047" xlink:href="#DejaVuSans-30"/>
       <use x="127.246094" xlink:href="#DejaVuSans-30"/>
       <use x="190.869141" xlink:href="#DejaVuSans-30"/>
      </g>
     </g>
    </g>
    <g id="text_16">
     <!-- Fitness -->
     <defs>
      <path d="M 9.8125 72.90625 
L 51.703125 72.90625 
L 51.703125 64.59375 
L 19.671875 64.59375 
L 19.671875 43.109375 
L 48.578125 43.109375 
L 48.578125 34.8125 
L 19.671875 34.8125 
L 19.671875 0 
L 9.8125 0 
z
" id="DejaVuSans-46"/>
     </defs>
     <g transform="translate(10.690625 192.202219)rotate(-90)scale(0.1 -0.1)">
      <use xlink:href="#DejaVuSans-46"/>
      <use x="57.410156" xlink:href="#DejaVuSans-69"/>
      <use x="85.193359" xlink:href="#DejaVuSans-74"/>
      <use x="124.402344" xlink:href="#DejaVuSans-6e"/>
      <use x="187.78125" xlink:href="#DejaVuSans-65"/>
      <use x="249.304688" xlink:href="#DejaVuSans-73"/>
      <use x="301.404297" xlink:href="#DejaVuSans-73"/>
     </g>
    </g>
   </g>
   <g id="line2d_29">
    <path clip-path="url(#pe900091b31)" d="M 73.832727 258.244889 
L 74.918528 257.974261 
L 76.00433 257.513652 
L 77.090131 257.38076 
L 78.175932 257.108971 
L 79.261733 256.694788 
L 80.347534 256.447435 
L 81.433335 256.346002 
L 82.519137 255.67268 
L 83.604938 255.243851 
L 84.690739 255.272251 
L 85.77654 253.335303 
L 87.948142 245.455627 
L 89.033943 243.945946 
L 90.119745 246.130999 
L 91.205546 245.837388 
L 92.291347 244.198198 
L 93.377148 245.747315 
L 94.462949 244.653939 
L 95.54875 242.173522 
L 96.634552 239.990499 
L 97.720353 239.899695 
L 98.806154 239.380751 
L 99.891955 236.669866 
L 100.977756 231.648687 
L 102.063557 231.970216 
L 103.149358 227.27725 
L 104.23516 218.832228 
L 105.320961 217.846237 
L 106.406762 223.750015 
L 107.492563 220.466717 
L 108.578364 220.905909 
L 109.664165 217.927221 
L 110.749967 220.665643 
L 111.835768 209.824947 
L 112.921569 212.264176 
L 114.00737 208.295974 
L 115.093171 212.178145 
L 116.178972 206.501466 
L 117.264773 216.10074 
L 118.350575 207.943418 
L 119.436376 210.329801 
L 120.522177 213.827874 
L 121.607978 211.504824 
L 122.693779 213.802093 
L 123.77958 212.765859 
L 124.865382 211.439217 
L 125.951183 211.408503 
L 127.036984 214.775534 
L 128.122785 213.026507 
L 129.208586 210.284358 
L 131.380189 217.592207 
L 132.46599 197.944316 
L 133.551791 194.420392 
L 134.637592 205.561581 
L 135.723393 202.825413 
L 136.809194 197.715595 
L 137.894995 193.84073 
L 138.980797 192.552933 
L 140.066598 198.757659 
L 141.152399 199.751896 
L 142.2382 199.694253 
L 143.324001 197.538732 
L 144.409802 201.036996 
L 145.495604 196.859572 
L 146.581405 207.645494 
L 147.667206 199.332281 
L 148.753007 198.409417 
L 149.838808 199.857118 
L 150.924609 200.33016 
L 152.01041 195.085621 
L 153.096212 207.111899 
L 154.182013 204.661401 
L 155.267814 192.851621 
L 156.353615 199.179567 
L 157.439416 194.514586 
L 158.525217 200.693567 
L 159.611019 195.435733 
L 160.69682 202.330555 
L 161.782621 192.885371 
L 162.868422 188.927257 
L 163.954223 183.438829 
L 165.040024 187.351711 
L 166.125825 185.528964 
L 167.211627 197.143313 
L 168.297428 195.551777 
L 169.383229 197.083318 
L 170.46903 198.011356 
L 171.554831 190.18436 
L 172.640632 185.854935 
L 173.726434 187.248003 
L 174.812235 185.948089 
L 175.898036 180.495155 
L 176.983837 189.337752 
L 178.069638 182.827152 
L 179.155439 191.507368 
L 180.24124 192.084008 
L 181.327042 177.918268 
L 182.412843 174.42258 
L 183.498644 178.561182 
L 184.584445 169.631727 
L 185.670246 170.766272 
L 186.756047 163.919967 
L 187.841849 171.38224 
L 188.92765 172.544267 
L 190.013451 167.297384 
L 191.099252 176.887096 
L 192.185053 169.726785 
L 193.270854 168.936273 
L 195.442457 160.403603 
L 196.528258 161.812478 
L 197.614059 167.802155 
L 198.69986 167.671774 
L 199.785661 171.684855 
L 200.871462 168.093919 
L 201.957264 163.46739 
L 203.043065 177.477563 
L 204.128866 173.653357 
L 205.214667 181.163138 
L 206.300468 180.559899 
L 207.386269 175.048982 
L 209.557872 165.599986 
L 210.643673 167.969675 
L 211.729474 172.636186 
L 212.815275 175.909366 
L 213.901076 180.32464 
L 214.986877 167.281146 
L 216.072679 174.649485 
L 217.15848 174.270685 
L 218.244281 178.986092 
L 219.330082 163.636068 
L 220.415883 168.416053 
L 221.501684 167.403216 
L 222.587486 174.182539 
L 223.673287 165.255554 
L 224.759088 174.121309 
L 225.844889 173.676229 
L 226.93069 171.89445 
L 228.016491 166.734562 
L 229.102292 169.338235 
L 230.188094 162.438919 
L 231.273895 171.076649 
L 232.359696 164.709798 
L 233.445497 165.732955 
L 234.531298 166.988338 
L 235.617099 178.532332 
L 236.702901 167.452383 
L 237.788702 173.674184 
L 238.874503 164.104878 
L 239.960304 171.807704 
L 241.046105 164.900072 
L 242.131906 162.158421 
L 243.217708 156.516995 
L 244.303509 162.992681 
L 245.38931 160.353392 
L 246.475111 166.415932 
L 247.560912 166.336623 
L 248.646713 172.431436 
L 249.732514 172.606429 
L 250.818316 173.43334 
L 251.904117 169.202913 
L 252.989918 172.602338 
L 255.16152 177.614692 
L 256.247321 168.170736 
L 257.333123 168.192482 
L 258.418924 183.682417 
L 259.504725 171.59188 
L 260.590526 171.711609 
L 261.676327 177.62756 
L 262.762128 166.675795 
L 263.847929 160.229276 
L 264.933731 165.445582 
L 266.019532 154.271297 
L 267.105333 161.810534 
L 268.191134 174.713245 
L 269.276935 158.698031 
L 270.362736 163.065721 
L 271.448538 159.604376 
L 272.534339 168.274431 
L 273.62014 169.520596 
L 274.705941 158.483148 
L 275.791742 169.393764 
L 276.877543 162.427284 
L 277.963344 161.462026 
L 279.049146 159.6385 
L 280.134947 161.522019 
L 282.306549 168.161934 
L 283.39235 169.399037 
L 284.478151 163.448249 
L 285.563953 174.971023 
L 286.649754 168.854239 
L 287.735555 172.560403 
L 288.821356 174.407675 
L 289.907157 160.5684 
L 290.992958 168.616772 
L 292.07876 173.236959 
L 293.164561 166.554306 
L 294.250362 170.628784 
L 295.336163 175.395666 
L 296.421964 177.105901 
L 297.507765 163.935776 
L 298.593566 178.560058 
L 299.679368 166.516651 
L 300.765169 171.406088 
L 302.936771 162.304745 
L 304.022572 169.346992 
L 305.108373 154.822147 
L 306.194175 175.30039 
L 307.279976 161.785189 
L 308.365777 153.906875 
L 309.451578 163.499024 
L 310.537379 163.811241 
L 311.62318 165.274374 
L 312.708981 162.721929 
L 313.794783 157.368794 
L 314.880584 163.456689 
L 317.052186 164.332573 
L 318.137987 168.006785 
L 319.223788 168.553773 
L 320.30959 161.104938 
L 321.395391 161.70931 
L 322.481192 163.202637 
L 323.566993 159.232883 
L 324.652794 154.82022 
L 325.738595 157.000491 
L 326.824396 155.258673 
L 327.910198 160.771773 
L 328.995999 163.795557 
L 330.0818 166.375881 
L 331.167601 152.873407 
L 332.253402 164.701399 
L 333.339203 166.205214 
L 334.425005 163.148968 
L 335.510806 149.199331 
L 336.596607 158.889807 
L 337.682408 162.730498 
L 338.768209 160.080168 
L 339.85401 158.256589 
L 340.939811 162.722889 
L 342.025613 168.063605 
L 343.111414 151.246985 
L 344.197215 149.509629 
L 345.283016 153.243238 
L 346.368817 163.281324 
L 347.454618 155.051873 
L 348.54042 157.819117 
L 349.626221 161.428333 
L 350.712022 161.920885 
L 351.797823 165.209852 
L 352.883624 154.12847 
L 353.969425 163.21886 
L 355.055227 158.873478 
L 356.141028 156.969632 
L 357.226829 168.95891 
L 358.31263 161.819084 
L 359.398431 163.3296 
L 360.484232 164.097788 
L 361.570033 164.33587 
L 362.655835 162.566792 
L 363.741636 163.555416 
L 364.827437 154.290522 
L 365.913238 165.30017 
L 366.999039 160.830427 
L 368.08484 160.312551 
L 369.170642 160.706838 
L 370.256443 163.124942 
L 371.342244 155.950218 
L 372.428045 158.899641 
L 373.513846 162.895521 
L 374.599647 160.88211 
L 375.685448 164.240862 
L 376.77125 159.049424 
L 377.857051 153.312567 
L 378.942852 166.536763 
L 380.028653 155.491133 
L 381.114454 157.673541 
L 382.200255 155.3624 
L 383.286057 153.56782 
L 384.371858 160.200377 
L 385.457659 151.112783 
L 386.54346 153.273916 
L 387.629261 157.797565 
L 388.715062 161.5892 
L 389.800863 150.506783 
L 390.886665 156.30349 
L 391.972466 153.92521 
L 393.058267 160.903718 
L 394.144068 164.931035 
L 395.229869 172.598193 
L 396.31567 168.039069 
L 397.401472 164.611651 
L 398.487273 160.257894 
L 398.487273 160.257894 
" style="fill:none;stroke:#0000ff;stroke-linecap:square;stroke-width:1.5;"/>
   </g>
   <g id="line2d_30">
    <path clip-path="url(#pe900091b31)" d="M 73.832727 258.930855 
L 74.918528 259.354347 
L 77.090131 259.682452 
L 78.175932 260.195381 
L 79.261733 260.524314 
L 81.433335 260.763755 
L 82.519137 261.252561 
L 83.604938 267.141306 
L 84.690739 271.055727 
L 87.948142 288.103295 
L 89.033943 291.123862 
L 90.119745 289.229034 
L 91.205546 289.492078 
L 92.291347 291.91206 
L 93.377148 288.334869 
L 94.462949 290.709168 
L 95.54875 292.578715 
L 96.634552 293.665183 
L 97.720353 293.755131 
L 98.806154 293.355665 
L 99.891955 293.089637 
L 100.977756 293.247424 
L 102.063557 293.91527 
L 103.149358 295.488 
L 104.23516 293.49958 
L 105.320961 290.998714 
L 106.406762 294.072614 
L 107.492563 293.838467 
L 108.578364 293.136803 
L 109.664165 291.442607 
L 110.749967 293.841046 
L 111.835768 289.621624 
L 112.921569 290.320239 
L 114.00737 289.082592 
L 115.093171 291.652346 
L 116.178972 287.880293 
L 117.264773 290.910587 
L 118.350575 288.42644 
L 119.436376 289.996238 
L 120.522177 290.581446 
L 121.607978 291.024799 
L 122.693779 289.988595 
L 123.77958 291.701465 
L 124.865382 291.107129 
L 125.951183 290.824686 
L 127.036984 291.283859 
L 128.122785 289.291428 
L 129.208586 288.31761 
L 130.294387 290.484134 
L 131.380189 291.968134 
L 132.46599 283.695976 
L 133.551791 283.167889 
L 134.637592 289.184257 
L 135.723393 287.739648 
L 136.809194 284.891146 
L 137.894995 282.911155 
L 138.980797 282.018508 
L 140.066598 284.590429 
L 141.152399 285.129242 
L 142.2382 287.279876 
L 143.324001 283.57082 
L 144.409802 287.104605 
L 145.495604 284.487529 
L 146.581405 290.429783 
L 147.667206 286.119632 
L 149.838808 284.79825 
L 150.924609 286.324043 
L 152.01041 283.051285 
L 153.096212 289.606883 
L 154.182013 288.102797 
L 155.267814 280.357023 
L 156.353615 284.087801 
L 157.439416 281.383101 
L 158.525217 286.32464 
L 159.611019 282.67832 
L 160.69682 287.344101 
L 161.782621 280.915583 
L 162.868422 280.01917 
L 163.954223 275.874184 
L 165.040024 277.334107 
L 166.125825 276.258777 
L 167.211627 284.393641 
L 168.297428 283.207792 
L 170.46903 284.710751 
L 172.640632 276.710544 
L 173.726434 277.509533 
L 174.812235 276.884 
L 175.898036 273.896075 
L 176.983837 280.110824 
L 178.069638 275.712083 
L 179.155439 282.229359 
L 180.24124 281.26336 
L 181.327042 271.299625 
L 182.412843 267.832315 
L 183.498644 271.336024 
L 184.584445 263.611149 
L 185.670246 265.281059 
L 186.756047 259.527301 
L 187.841849 266.939691 
L 188.92765 267.781754 
L 190.013451 262.042485 
L 191.099252 270.813678 
L 192.185053 264.422723 
L 193.270854 263.143685 
L 194.356656 258.334202 
L 195.442457 255.580821 
L 196.528258 257.788506 
L 197.614059 262.672102 
L 198.69986 263.82672 
L 199.785661 266.571878 
L 200.871462 262.897722 
L 201.957264 258.562276 
L 203.043065 271.934794 
L 204.128866 268.330023 
L 205.214667 273.014435 
L 206.300468 274.140702 
L 207.386269 269.593763 
L 208.472071 265.959801 
L 209.557872 261.228077 
L 210.643673 262.083647 
L 211.729474 265.956795 
L 212.815275 269.402732 
L 213.901076 271.335217 
L 214.986877 262.258866 
L 216.072679 267.78959 
L 217.15848 267.940377 
L 218.244281 272.485515 
L 219.330082 259.294339 
L 220.415883 262.313685 
L 221.501684 262.002106 
L 222.587486 267.394192 
L 223.673287 260.900203 
L 224.759088 267.849057 
L 225.844889 267.142073 
L 226.93069 267.113279 
L 228.016491 262.148565 
L 229.102292 264.763289 
L 230.188094 258.701298 
L 231.273895 266.255608 
L 232.359696 261.431184 
L 233.445497 261.366879 
L 234.531298 260.074324 
L 235.617099 273.037905 
L 236.702901 262.470806 
L 237.788702 268.227691 
L 238.874503 258.339998 
L 239.960304 266.665195 
L 241.046105 260.82494 
L 242.131906 257.842223 
L 243.217708 252.856731 
L 244.303509 258.008259 
L 245.38931 255.506491 
L 246.475111 261.260749 
L 247.560912 262.407442 
L 248.646713 266.921756 
L 249.732514 267.140102 
L 250.818316 266.829577 
L 251.904117 264.030003 
L 252.989918 266.854417 
L 254.075719 268.76598 
L 255.16152 271.635305 
L 256.247321 262.885837 
L 257.333123 262.029793 
L 258.418924 274.803554 
L 259.504725 264.643104 
L 260.590526 267.6116 
L 261.676327 272.139023 
L 262.762128 261.072333 
L 263.847929 254.779185 
L 264.933731 259.868413 
L 266.019532 249.310756 
L 268.191134 268.305944 
L 269.276935 254.767752 
L 270.362736 257.655539 
L 271.448538 255.204359 
L 272.534339 263.366722 
L 273.62014 264.993403 
L 274.705941 253.431123 
L 275.791742 265.060394 
L 276.877543 257.555542 
L 277.963344 257.088314 
L 279.049146 254.937475 
L 280.134947 257.264641 
L 281.220748 260.474266 
L 282.306549 262.9384 
L 283.39235 264.957865 
L 284.478151 259.290889 
L 285.563953 269.038634 
L 286.649754 262.586706 
L 287.735555 265.766442 
L 288.821356 268.372432 
L 289.907157 256.094647 
L 290.992958 264.358081 
L 292.07876 266.061178 
L 293.164561 261.975688 
L 294.250362 265.297946 
L 295.336163 267.78821 
L 296.421964 269.828086 
L 297.507765 259.422603 
L 298.593566 272.698949 
L 299.679368 261.832468 
L 300.765169 266.758552 
L 301.85097 262.639041 
L 302.936771 257.471173 
L 304.022572 265.260827 
L 305.108373 251.010612 
L 306.194175 269.680519 
L 307.279976 258.304085 
L 308.365777 251.632558 
L 309.451578 259.835334 
L 310.537379 259.191345 
L 311.62318 261.66023 
L 312.708981 257.564331 
L 313.794783 252.171663 
L 314.880584 259.766486 
L 315.966385 260.079228 
L 317.052186 259.3012 
L 318.137987 262.358415 
L 319.223788 263.645545 
L 320.30959 255.969712 
L 321.395391 255.449336 
L 322.481192 256.900606 
L 323.566993 254.791182 
L 324.652794 250.42738 
L 325.738595 252.579827 
L 326.824396 249.619957 
L 327.910198 255.607911 
L 328.995999 258.927008 
L 330.0818 261.089084 
L 331.167601 246.665925 
L 332.253402 258.576921 
L 333.339203 260.271454 
L 334.425005 258.969395 
L 335.510806 244.830663 
L 336.596607 254.160895 
L 337.682408 258.265499 
L 338.768209 255.224169 
L 339.85401 254.114528 
L 340.939811 257.707772 
L 342.025613 262.588621 
L 343.111414 245.687267 
L 344.197215 243.908882 
L 345.283016 248.747532 
L 346.368817 258.771411 
L 347.454618 250.689837 
L 349.626221 254.748024 
L 350.712022 256.225073 
L 351.797823 260.189544 
L 352.883624 249.404247 
L 353.969425 258.879567 
L 355.055227 254.775238 
L 356.141028 252.600843 
L 357.226829 263.87139 
L 358.31263 257.14495 
L 359.398431 259.321107 
L 360.484232 259.24279 
L 361.570033 258.189337 
L 362.655835 258.731545 
L 363.741636 258.628177 
L 364.827437 247.594265 
L 365.913238 259.369891 
L 366.999039 255.549257 
L 368.08484 255.883612 
L 369.170642 255.199107 
L 370.256443 257.81916 
L 371.342244 250.438424 
L 372.428045 254.491398 
L 373.513846 257.740958 
L 374.599647 256.290675 
L 375.685448 258.914647 
L 376.77125 254.543757 
L 377.857051 249.430261 
L 378.942852 260.972775 
L 380.028653 250.481735 
L 381.114454 252.723014 
L 382.200255 249.552136 
L 383.286057 248.063495 
L 384.371858 254.203898 
L 385.457659 244.688676 
L 386.54346 247.070338 
L 387.629261 251.725684 
L 388.715062 255.658227 
L 389.800863 245.540079 
L 390.886665 250.746759 
L 391.972466 249.436021 
L 393.058267 255.186305 
L 394.144068 258.204622 
L 395.229869 263.660343 
L 396.31567 260.027077 
L 397.401472 257.015056 
L 398.487273 254.458636 
L 398.487273 254.458636 
" style="fill:none;stroke:#008000;stroke-dasharray:9.6,2.4,1.5,2.4;stroke-dashoffset:0;stroke-width:1.5;"/>
   </g>
   <g id="line2d_31">
    <path clip-path="url(#pe900091b31)" d="M 73.832727 257.558924 
L 76.00433 255.483809 
L 77.090131 255.079067 
L 79.261733 252.865262 
L 80.347534 252.231361 
L 81.433335 251.92825 
L 82.519137 250.092798 
L 83.604938 243.346397 
L 84.690739 239.488775 
L 85.77654 229.778443 
L 87.948142 202.807958 
L 89.033943 196.76803 
L 90.119745 203.032965 
L 91.205546 202.182699 
L 92.291347 196.484337 
L 93.377148 203.159761 
L 94.462949 198.598709 
L 95.54875 191.768329 
L 96.634552 186.315815 
L 97.720353 186.044259 
L 98.806154 185.405836 
L 99.891955 180.250095 
L 100.977756 170.049949 
L 102.063557 170.025161 
L 103.149358 159.066499 
L 104.23516 144.164876 
L 105.320961 144.69376 
L 106.406762 153.427415 
L 107.492563 147.094967 
L 108.578364 148.675016 
L 109.664165 144.411835 
L 110.749967 147.49024 
L 111.835768 130.028271 
L 112.921569 134.208112 
L 114.00737 127.509355 
L 115.093171 132.703943 
L 116.178972 125.122638 
L 117.264773 141.290894 
L 118.350575 127.460396 
L 119.436376 130.663364 
L 120.522177 137.074302 
L 121.607978 131.984849 
L 122.693779 137.615592 
L 123.77958 133.830253 
L 124.865382 131.771305 
L 125.951183 131.992319 
L 127.036984 138.267209 
L 128.122785 136.761586 
L 129.208586 132.251105 
L 131.380189 143.216281 
L 132.46599 112.192657 
L 133.551791 105.672896 
L 134.637592 121.938906 
L 135.723393 117.911179 
L 136.809194 110.540043 
L 137.894995 104.770305 
L 138.980797 103.087358 
L 140.066598 112.924889 
L 141.152399 114.37455 
L 142.2382 112.108629 
L 143.324001 111.506643 
L 144.409802 114.969387 
L 145.495604 109.231615 
L 146.581405 124.861204 
L 147.667206 112.54493 
L 148.753007 111.400832 
L 149.838808 114.915987 
L 150.924609 114.336277 
L 152.01041 107.119957 
L 153.096212 124.616915 
L 154.182013 121.220005 
L 155.267814 105.346218 
L 156.353615 114.271333 
L 157.439416 107.646072 
L 158.525217 115.062494 
L 159.611019 108.193145 
L 160.69682 117.317008 
L 161.782621 104.85516 
L 163.954223 91.003473 
L 165.040024 97.369315 
L 166.125825 94.799152 
L 167.211627 109.892985 
L 168.297428 107.895762 
L 169.383229 110.190471 
L 170.46903 111.311961 
L 171.554831 99.854729 
L 172.640632 94.999327 
L 173.726434 96.986473 
L 174.812235 95.012178 
L 175.898036 87.094235 
L 176.983837 98.56468 
L 178.069638 89.942222 
L 179.155439 100.785378 
L 180.24124 102.904655 
L 181.327042 84.536912 
L 182.412843 81.012845 
L 183.498644 85.786339 
L 184.584445 75.652306 
L 185.670246 76.251484 
L 186.756047 68.312634 
L 187.841849 75.824789 
L 188.92765 77.30678 
L 190.013451 72.552283 
L 191.099252 82.960515 
L 192.185053 75.030847 
L 193.270854 74.72886 
L 194.356656 71.132564 
L 195.442457 65.226385 
L 196.528258 65.83645 
L 197.614059 72.932207 
L 198.69986 71.516829 
L 199.785661 76.797831 
L 200.871462 73.290115 
L 201.957264 68.372504 
L 203.043065 83.020333 
L 204.128866 78.976691 
L 205.214667 89.311842 
L 206.300468 86.979097 
L 208.472071 74.685827 
L 209.557872 69.971896 
L 210.643673 73.855702 
L 211.729474 79.315576 
L 212.815275 82.415999 
L 213.901076 89.314062 
L 214.986877 72.303427 
L 216.072679 81.50938 
L 217.15848 80.600992 
L 218.244281 85.48667 
L 219.330082 67.977796 
L 220.415883 74.518421 
L 221.501684 72.804326 
L 222.587486 80.970886 
L 223.673287 69.610905 
L 224.759088 80.393561 
L 225.844889 80.210386 
L 226.93069 76.675621 
L 228.016491 71.320559 
L 229.102292 73.913182 
L 230.188094 66.17654 
L 231.273895 75.897691 
L 232.359696 67.988411 
L 233.445497 70.099031 
L 234.531298 73.902353 
L 235.617099 84.026759 
L 236.702901 72.433959 
L 237.788702 79.120676 
L 238.874503 69.869758 
L 239.960304 76.950213 
L 241.046105 68.975204 
L 242.131906 66.47462 
L 243.217708 60.177258 
L 244.303509 67.977104 
L 245.38931 65.200293 
L 246.475111 71.571114 
L 247.560912 70.265805 
L 248.646713 77.941116 
L 249.732514 78.072755 
L 250.818316 80.037103 
L 251.904117 74.375822 
L 252.989918 78.350259 
L 254.075719 81.541092 
L 255.16152 83.594079 
L 256.247321 73.455635 
L 257.333123 74.355171 
L 258.418924 92.56128 
L 259.504725 78.540656 
L 260.590526 75.811619 
L 261.676327 83.116096 
L 262.762128 72.279256 
L 263.847929 65.679367 
L 264.933731 71.022752 
L 266.019532 59.231837 
L 267.105333 65.000002 
L 268.191134 81.120547 
L 269.276935 62.628309 
L 270.362736 68.475904 
L 271.448538 64.004393 
L 272.534339 73.182139 
L 273.62014 74.04779 
L 274.705941 63.535172 
L 275.791742 73.727135 
L 276.877543 67.299027 
L 279.049146 64.339525 
L 280.134947 65.779398 
L 281.220748 69.265212 
L 282.306549 73.385468 
L 283.39235 73.840208 
L 284.478151 67.60561 
L 285.563953 80.903413 
L 286.649754 75.121773 
L 287.735555 79.354364 
L 288.821356 80.442918 
L 289.907157 65.042154 
L 292.07876 80.41274 
L 293.164561 71.132924 
L 294.250362 75.959623 
L 295.336163 83.003122 
L 296.421964 84.383716 
L 297.507765 68.44895 
L 298.593566 84.421167 
L 299.679368 71.200834 
L 300.765169 76.053623 
L 302.936771 67.138317 
L 304.022572 73.433156 
L 305.108373 58.633682 
L 306.194175 80.920261 
L 307.279976 65.266292 
L 308.365777 56.181192 
L 309.451578 67.162714 
L 310.537379 68.431136 
L 311.62318 68.888518 
L 312.708981 67.879526 
L 313.794783 62.565926 
L 314.880584 67.146891 
L 315.966385 67.78525 
L 317.052186 69.363946 
L 318.137987 73.655154 
L 319.223788 73.462 
L 320.30959 66.240164 
L 322.481192 69.504669 
L 323.566993 63.674583 
L 324.652794 59.21306 
L 325.738595 61.421154 
L 326.824396 60.897389 
L 327.910198 65.935635 
L 330.0818 71.662678 
L 331.167601 59.080888 
L 332.253402 70.825877 
L 333.339203 72.138974 
L 334.425005 67.32854 
L 335.510806 53.568 
L 336.596607 63.61872 
L 337.682408 67.195496 
L 338.768209 64.936167 
L 339.85401 62.39865 
L 342.025613 73.538589 
L 343.111414 56.806703 
L 344.197215 55.110375 
L 345.283016 57.738944 
L 346.368817 67.791237 
L 347.454618 59.413909 
L 348.54042 62.878839 
L 349.626221 68.108643 
L 350.712022 67.616698 
L 351.797823 70.230159 
L 352.883624 58.852693 
L 353.969425 67.558152 
L 355.055227 62.971717 
L 356.141028 61.33842 
L 357.226829 74.046431 
L 358.31263 66.493218 
L 359.398431 67.338093 
L 361.570033 70.482403 
L 362.655835 66.40204 
L 363.741636 68.482656 
L 364.827437 60.986779 
L 365.913238 71.230448 
L 366.999039 66.111596 
L 368.08484 64.74149 
L 369.170642 66.214569 
L 370.256443 68.430724 
L 371.342244 61.462013 
L 372.428045 63.307883 
L 373.513846 68.050084 
L 374.599647 65.473546 
L 375.685448 69.567077 
L 377.857051 57.194873 
L 378.942852 72.100752 
L 380.028653 60.50053 
L 381.114454 62.624067 
L 382.200255 61.172663 
L 383.286057 59.072146 
L 384.371858 66.196855 
L 385.457659 57.53689 
L 386.54346 59.477493 
L 387.629261 63.869445 
L 388.715062 67.520173 
L 389.800863 55.473487 
L 390.886665 61.86022 
L 391.972466 58.414399 
L 393.058267 66.62113 
L 394.144068 71.657448 
L 395.229869 81.536043 
L 396.31567 76.05106 
L 397.401472 72.208245 
L 398.487273 66.057153 
L 398.487273 66.057153 
" style="fill:none;stroke:#008000;stroke-dasharray:9.6,2.4,1.5,2.4;stroke-dashoffset:0;stroke-width:1.5;"/>
   </g>
   <g id="line2d_32">
    <path clip-path="url(#pe900091b31)" d="M 73.832727 249.23764 
L 74.918528 246.315541 
L 76.00433 244.492581 
L 77.090131 244.8813 
L 78.175932 240.52496 
L 79.261733 235.297352 
L 80.347534 239.988795 
L 81.433335 239.264973 
L 82.519137 226.54446 
L 83.604938 57.679316 
L 398.487273 57.679316 
L 398.487273 57.679316 
" style="fill:none;stroke:#ff0000;stroke-linecap:square;stroke-width:1.5;"/>
   </g>
   <g id="patch_3">
    <path d="M 57.6 307.584 
L 57.6 41.472 
" style="fill:none;stroke:#000000;stroke-linecap:square;stroke-linejoin:miter;stroke-width:0.8;"/>
   </g>
   <g id="patch_4">
    <path d="M 414.72 307.584 
L 414.72 41.472 
" style="fill:none;stroke:#000000;stroke-linecap:square;stroke-linejoin:miter;stroke-width:0.8;"/>
   </g>
   <g id="patch_5">
    <path d="M 57.6 307.584 
L 414.72 307.584 
" style="fill:none;stroke:#000000;stroke-linecap:square;stroke-linejoin:miter;stroke-width:0.8;"/>
   </g>
   <g id="patch_6">
    <path d="M 57.6 41.472 
L 414.72 41.472 
" style="fill:none;stroke:#000000;stroke-linecap:square;stroke-linejoin:miter;stroke-width:0.8;"/>
   </g>
   <g id="text_17">
    <!-- Population's average and best fitness -->
    <defs>
     <path d="M 19.671875 64.796875 
L 19.671875 37.40625 
L 32.078125 37.40625 
Q 38.96875 37.40625 42.71875 40.96875 
Q 46.484375 44.53125 46.484375 51.125 
Q 46.484375 57.671875 42.71875 61.234375 
Q 38.96875 64.796875 32.078125 64.796875 
z
M 9.8125 72.90625 
L 32.078125 72.90625 
Q 44.34375 72.90625 50.609375 67.359375 
Q 56.890625 61.8125 56.890625 51.125 
Q 56.890625 40.328125 50.609375 34.8125 
Q 44.34375 29.296875 32.078125 29.296875 
L 19.671875 29.296875 
L 19.671875 0 
L 9.8125 0 
z
" id="DejaVuSans-50"/>
     <path d="M 18.109375 8.203125 
L 18.109375 -20.796875 
L 9.078125 -20.796875 
L 9.078125 54.6875 
L 18.109375 54.6875 
L 18.109375 46.390625 
Q 20.953125 51.265625 25.265625 53.625 
Q 29.59375 56 35.59375 56 
Q 45.5625 56 51.78125 48.09375 
Q 58.015625 40.1875 58.015625 27.296875 
Q 58.015625 14.40625 51.78125 6.484375 
Q 45.5625 -1.421875 35.59375 -1.421875 
Q 29.59375 -1.421875 25.265625 0.953125 
Q 20.953125 3.328125 18.109375 8.203125 
z
M 48.6875 27.296875 
Q 48.6875 37.203125 44.609375 42.84375 
Q 40.53125 48.484375 33.40625 48.484375 
Q 26.265625 48.484375 22.1875 42.84375 
Q 18.109375 37.203125 18.109375 27.296875 
Q 18.109375 17.390625 22.1875 11.75 
Q 26.265625 6.109375 33.40625 6.109375 
Q 40.53125 6.109375 44.609375 11.75 
Q 48.6875 17.390625 48.6875 27.296875 
z
" id="DejaVuSans-70"/>
     <path d="M 8.5 21.578125 
L 8.5 54.6875 
L 17.484375 54.6875 
L 17.484375 21.921875 
Q 17.484375 14.15625 20.5 10.265625 
Q 23.53125 6.390625 29.59375 6.390625 
Q 36.859375 6.390625 41.078125 11.03125 
Q 45.3125 15.671875 45.3125 23.6875 
L 45.3125 54.6875 
L 54.296875 54.6875 
L 54.296875 0 
L 45.3125 0 
L 45.3125 8.40625 
Q 42.046875 3.421875 37.71875 1 
Q 33.40625 -1.421875 27.6875 -1.421875 
Q 18.265625 -1.421875 13.375 4.4375 
Q 8.5 10.296875 8.5 21.578125 
z
M 31.109375 56 
z
" id="DejaVuSans-75"/>
     <path d="M 9.421875 75.984375 
L 18.40625 75.984375 
L 18.40625 0 
L 9.421875 0 
z
" id="DejaVuSans-6c"/>
     <path d="M 17.921875 72.90625 
L 17.921875 45.796875 
L 9.625 45.796875 
L 9.625 72.90625 
z
" id="DejaVuSans-27"/>
     <path id="DejaVuSans-20"/>
     <path d="M 2.984375 54.6875 
L 12.5 54.6875 
L 29.59375 8.796875 
L 46.6875 54.6875 
L 56.203125 54.6875 
L 35.6875 0 
L 23.484375 0 
z
" id="DejaVuSans-76"/>
     <path d="M 45.40625 27.984375 
Q 45.40625 37.75 41.375 43.109375 
Q 37.359375 48.484375 30.078125 48.484375 
Q 22.859375 48.484375 18.828125 43.109375 
Q 14.796875 37.75 14.796875 27.984375 
Q 14.796875 18.265625 18.828125 12.890625 
Q 22.859375 7.515625 30.078125 7.515625 
Q 37.359375 7.515625 41.375 12.890625 
Q 45.40625 18.265625 45.40625 27.984375 
z
M 54.390625 6.78125 
Q 54.390625 -7.171875 48.1875 -13.984375 
Q 42 -20.796875 29.203125 -20.796875 
Q 24.46875 -20.796875 20.265625 -20.09375 
Q 16.0625 -19.390625 12.109375 -17.921875 
L 12.109375 -9.1875 
Q 16.0625 -11.328125 19.921875 -12.34375 
Q 23.78125 -13.375 27.78125 -13.375 
Q 36.625 -13.375 41.015625 -8.765625 
Q 45.40625 -4.15625 45.40625 5.171875 
L 45.40625 9.625 
Q 42.625 4.78125 38.28125 2.390625 
Q 33.9375 0 27.875 0 
Q 17.828125 0 11.671875 7.65625 
Q 5.515625 15.328125 5.515625 27.984375 
Q 5.515625 40.671875 11.671875 48.328125 
Q 17.828125 56 27.875 56 
Q 33.9375 56 38.28125 53.609375 
Q 42.625 51.21875 45.40625 46.390625 
L 45.40625 54.6875 
L 54.390625 54.6875 
z
" id="DejaVuSans-67"/>
     <path d="M 45.40625 46.390625 
L 45.40625 75.984375 
L 54.390625 75.984375 
L 54.390625 0 
L 45.40625 0 
L 45.40625 8.203125 
Q 42.578125 3.328125 38.25 0.953125 
Q 33.9375 -1.421875 27.875 -1.421875 
Q 17.96875 -1.421875 11.734375 6.484375 
Q 5.515625 14.40625 5.515625 27.296875 
Q 5.515625 40.1875 11.734375 48.09375 
Q 17.96875 56 27.875 56 
Q 33.9375 56 38.25 53.625 
Q 42.578125 51.265625 45.40625 46.390625 
z
M 14.796875 27.296875 
Q 14.796875 17.390625 18.875 11.75 
Q 22.953125 6.109375 30.078125 6.109375 
Q 37.203125 6.109375 41.296875 11.75 
Q 45.40625 17.390625 45.40625 27.296875 
Q 45.40625 37.203125 41.296875 42.84375 
Q 37.203125 48.484375 30.078125 48.484375 
Q 22.953125 48.484375 18.875 42.84375 
Q 14.796875 37.203125 14.796875 27.296875 
z
" id="DejaVuSans-64"/>
     <path d="M 48.6875 27.296875 
Q 48.6875 37.203125 44.609375 42.84375 
Q 40.53125 48.484375 33.40625 48.484375 
Q 26.265625 48.484375 22.1875 42.84375 
Q 18.109375 37.203125 18.109375 27.296875 
Q 18.109375 17.390625 22.1875 11.75 
Q 26.265625 6.109375 33.40625 6.109375 
Q 40.53125 6.109375 44.609375 11.75 
Q 48.6875 17.390625 48.6875 27.296875 
z
M 18.109375 46.390625 
Q 20.953125 51.265625 25.265625 53.625 
Q 29.59375 56 35.59375 56 
Q 45.5625 56 51.78125 48.09375 
Q 58.015625 40.1875 58.015625 27.296875 
Q 58.015625 14.40625 51.78125 6.484375 
Q 45.5625 -1.421875 35.59375 -1.421875 
Q 29.59375 -1.421875 25.265625 0.953125 
Q 20.953125 3.328125 18.109375 8.203125 
L 18.109375 0 
L 9.078125 0 
L 9.078125 75.984375 
L 18.109375 75.984375 
z
" id="DejaVuSans-62"/>
     <path d="M 37.109375 75.984375 
L 37.109375 68.5 
L 28.515625 68.5 
Q 23.6875 68.5 21.796875 66.546875 
Q 19.921875 64.59375 19.921875 59.515625 
L 19.921875 54.6875 
L 34.71875 54.6875 
L 34.71875 47.703125 
L 19.921875 47.703125 
L 19.921875 0 
L 10.890625 0 
L 10.890625 47.703125 
L 2.296875 47.703125 
L 2.296875 54.6875 
L 10.890625 54.6875 
L 10.890625 58.5 
Q 10.890625 67.625 15.140625 71.796875 
Q 19.390625 75.984375 28.609375 75.984375 
z
" id="DejaVuSans-66"/>
    </defs>
    <g transform="translate(123.315 35.472)scale(0.12 -0.12)">
     <use xlink:href="#DejaVuSans-50"/>
     <use x="60.255859" xlink:href="#DejaVuSans-6f"/>
     <use x="121.4375" xlink:href="#DejaVuSans-70"/>
     <use x="184.914062" xlink:href="#DejaVuSans-75"/>
     <use x="248.292969" xlink:href="#DejaVuSans-6c"/>
     <use x="276.076172" xlink:href="#DejaVuSans-61"/>
     <use x="337.355469" xlink:href="#DejaVuSans-74"/>
     <use x="376.564453" xlink:href="#DejaVuSans-69"/>
     <use x="404.347656" xlink:href="#DejaVuSans-6f"/>
     <use x="465.529297" xlink:href="#DejaVuSans-6e"/>
     <use x="528.908203" xlink:href="#DejaVuSans-27"/>
     <use x="556.398438" xlink:href="#DejaVuSans-73"/>
     <use x="608.498047" xlink:href="#DejaVuSans-20"/>
     <use x="640.285156" xlink:href="#DejaVuSans-61"/>
     <use x="701.564453" xlink:href="#DejaVuSans-76"/>
     <use x="760.744141" xlink:href="#DejaVuSans-65"/>
     <use x="822.267578" xlink:href="#DejaVuSans-72"/>
     <use x="863.380859" xlink:href="#DejaVuSans-61"/>
     <use x="924.660156" xlink:href="#DejaVuSans-67"/>
     <use x="988.136719" xlink:href="#DejaVuSans-65"/>
     <use x="1049.660156" xlink:href="#DejaVuSans-20"/>
     <use x="1081.447266" xlink:href="#DejaVuSans-61"/>
     <use x="1142.726562" xlink:href="#DejaVuSans-6e"/>
     <use x="1206.105469" xlink:href="#DejaVuSans-64"/>
     <use x="1269.582031" xlink:href="#DejaVuSans-20"/>
     <use x="1301.369141" xlink:href="#DejaVuSans-62"/>
     <use x="1364.845703" xlink:href="#DejaVuSans-65"/>
     <use x="1426.369141" xlink:href="#DejaVuSans-73"/>
     <use x="1478.46875" xlink:href="#DejaVuSans-74"/>
     <use x="1517.677734" xlink:href="#DejaVuSans-20"/>
     <use x="1549.464844" xlink:href="#DejaVuSans-66"/>
     <use x="1584.669922" xlink:href="#DejaVuSans-69"/>
     <use x="1612.453125" xlink:href="#DejaVuSans-74"/>
     <use x="1651.662109" xlink:href="#DejaVuSans-6e"/>
     <use x="1715.041016" xlink:href="#DejaVuSans-65"/>
     <use x="1776.564453" xlink:href="#DejaVuSans-73"/>
     <use x="1828.664062" xlink:href="#DejaVuSans-73"/>
    </g>
   </g>
   <g id="legend_1">
    <g id="patch_7">
     <path d="M 64.6 205.38425 
L 137.540625 205.38425 
Q 139.540625 205.38425 139.540625 203.38425 
L 139.540625 145.67175 
Q 139.540625 143.67175 137.540625 143.67175 
L 64.6 143.67175 
Q 62.6 143.67175 62.6 145.67175 
L 62.6 203.38425 
Q 62.6 205.38425 64.6 205.38425 
z
" style="fill:#ffffff;opacity:0.8;stroke:#cccccc;stroke-linejoin:miter;"/>
    </g>
    <g id="line2d_33">
     <path d="M 66.6 151.770188 
L 86.6 151.770188 
" style="fill:none;stroke:#0000ff;stroke-linecap:square;stroke-width:1.5;"/>
    </g>
    <g id="line2d_34"/>
    <g id="text_18">
     <!-- average -->
     <g transform="translate(94.6 155.270188)scale(0.1 -0.1)">
      <use xlink:href="#DejaVuSans-61"/>
      <use x="61.279297" xlink:href="#DejaVuSans-76"/>
      <use x="120.458984" xlink:href="#DejaVuSans-65"/>
      <use x="181.982422" xlink:href="#DejaVuSans-72"/>
      <use x="223.095703" xlink:href="#DejaVuSans-61"/>
      <use x="284.375" xlink:href="#DejaVuSans-67"/>
      <use x="347.851562" xlink:href="#DejaVuSans-65"/>
     </g>
    </g>
    <g id="line2d_35">
     <path d="M 66.6 166.448313 
L 86.6 166.448313 
" style="fill:none;stroke:#008000;stroke-dasharray:9.6,2.4,1.5,2.4;stroke-dashoffset:0;stroke-width:1.5;"/>
    </g>
    <g id="line2d_36"/>
    <g id="text_19">
     <!-- -1 sd -->
     <defs>
      <path d="M 4.890625 31.390625 
L 31.203125 31.390625 
L 31.203125 23.390625 
L 4.890625 23.390625 
z
" id="DejaVuSans-2d"/>
     </defs>
     <g transform="translate(94.6 169.948313)scale(0.1 -0.1)">
      <use xlink:href="#DejaVuSans-2d"/>
      <use x="36.083984" xlink:href="#DejaVuSans-31"/>
      <use x="99.707031" xlink:href="#DejaVuSans-20"/>
      <use x="131.494141" xlink:href="#DejaVuSans-73"/>
      <use x="183.59375" xlink:href="#DejaVuSans-64"/>
     </g>
    </g>
    <g id="line2d_37">
     <path d="M 66.6 181.126438 
L 86.6 181.126438 
" style="fill:none;stroke:#008000;stroke-dasharray:9.6,2.4,1.5,2.4;stroke-dashoffset:0;stroke-width:1.5;"/>
    </g>
    <g id="line2d_38"/>
    <g id="text_20">
     <!-- +1 sd -->
     <defs>
      <path d="M 46 62.703125 
L 46 35.5 
L 73.1875 35.5 
L 73.1875 27.203125 
L 46 27.203125 
L 46 0 
L 37.796875 0 
L 37.796875 27.203125 
L 10.59375 27.203125 
L 10.59375 35.5 
L 37.796875 35.5 
L 37.796875 62.703125 
z
" id="DejaVuSans-2b"/>
     </defs>
     <g transform="translate(94.6 184.626438)scale(0.1 -0.1)">
      <use xlink:href="#DejaVuSans-2b"/>
      <use x="83.789062" xlink:href="#DejaVuSans-31"/>
      <use x="147.412109" xlink:href="#DejaVuSans-20"/>
      <use x="179.199219" xlink:href="#DejaVuSans-73"/>
      <use x="231.298828" xlink:href="#DejaVuSans-64"/>
     </g>
    </g>
    <g id="line2d_39">
     <path d="M 66.6 195.804563 
L 86.6 195.804563 
" style="fill:none;stroke:#ff0000;stroke-linecap:square;stroke-width:1.5;"/>
    </g>
    <g id="line2d_40"/>
    <g id="text_21">
     <!-- best -->
     <g transform="translate(94.6 199.304563)scale(0.1 -0.1)">
      <use xlink:href="#DejaVuSans-62"/>
      <use x="63.476562" xlink:href="#DejaVuSans-65"/>
      <use x="125" xlink:href="#DejaVuSans-73"/>
      <use x="177.099609" xlink:href="#DejaVuSans-74"/>
     </g>
    </g>
   </g>
  </g>
 </g>
 <defs>
  <clipPath id="pe900091b31">
   <rect height="266.112" width="357.12" x="57.6" y="41.472"/>
  </clipPath>
 </defs>
</svg>
