<?xml version="1.0" encoding="UTF-8" standalone="no"?>
<!DOCTYPE svg PUBLIC "-//W3C//DTD SVG 1.1//EN"
 "http://www.w3.org/Graphics/SVG/1.1/DTD/svg11.dtd">
<!-- Generated by graphviz version 2.38.0 (20140413.2041)
 -->
<!-- Title: %3 Pages: 1 -->
<svg width="1079pt" height="92pt"
 viewBox="0.00 0.00 1078.50 91.70" xmlns="http://www.w3.org/2000/svg" xmlns:xlink="http://www.w3.org/1999/xlink">
<g id="graph0" class="graph" transform="scale(1 1) rotate(0) translate(4 87.6985)">
<title>%3</title>
<polygon fill="white" stroke="none" points="-4,4 -4,-87.6985 1074.5,-87.6985 1074.5,4 -4,4"/>
<!-- &#45;1 -->
<g id="node1" class="node"><title>&#45;1</title>
<polygon fill="lightgray" stroke="black" points="345,-83.6985 321,-83.6985 321,-65.6985 345,-65.6985 345,-83.6985"/>
<text text-anchor="middle" x="333" y="-72.4985" font-family="Times,serif" font-size="9.00">&#45;1</text>
</g>
<!-- 0 -->
<g id="node25" class="node"><title>0</title>
<ellipse fill="lightblue" stroke="black" cx="194" cy="-14.8492" rx="14.7" ry="14.7"/>
<text text-anchor="middle" x="194" y="-12.6492" font-family="Times,serif" font-size="9.00">0</text>
</g>
<!-- &#45;1&#45;&gt;0 -->
<g id="edge10" class="edge"><title>&#45;1&#45;&gt;0</title>
<path fill="none" stroke="green" stroke-width="2.11796" d="M320.665,-68.5648C297.485,-58.9178 247.086,-37.9426 217.323,-25.5557"/>
<polygon fill="green" stroke="green" stroke-width="2.11796" points="218.311,-22.1762 207.734,-21.5652 215.622,-28.6389 218.311,-22.1762"/>
</g>
<!-- 2 -->
<g id="node27" class="node"><title>2</title>
<ellipse fill="lightblue" stroke="black" cx="603" cy="-14.8492" rx="14.7" ry="14.7"/>
<text text-anchor="middle" x="603" y="-12.6492" font-family="Times,serif" font-size="9.00">2</text>
</g>
<!-- &#45;1&#45;&gt;2 -->
<g id="edge21" class="edge"><title>&#45;1&#45;&gt;2</title>
<path fill="none" stroke="green" stroke-width="0.311091" d="M345.321,-68.6137C348.143,-67.559 351.151,-66.5201 354,-65.6985 434.616,-42.4488 532.979,-26.2181 578.152,-19.4192"/>
<polygon fill="green" stroke="green" stroke-width="0.311091" points="578.822,-22.8582 588.201,-17.9311 577.796,-15.9337 578.822,-22.8582"/>
</g>
<!-- &#45;2 -->
<g id="node2" class="node"><title>&#45;2</title>
<polygon fill="lightgray" stroke="black" points="161,-83.6985 137,-83.6985 137,-65.6985 161,-65.6985 161,-83.6985"/>
<text text-anchor="middle" x="149" y="-72.4985" font-family="Times,serif" font-size="9.00">&#45;2</text>
</g>
<!-- &#45;2&#45;&gt;0 -->
<g id="edge3" class="edge"><title>&#45;2&#45;&gt;0</title>
<path fill="none" stroke="red" stroke-width="0.916048" d="M155.257,-65.6548C161.37,-57.7964 170.908,-45.5348 178.99,-35.1446"/>
<polygon fill="red" stroke="red" stroke-width="0.916048" points="181.953,-37.0367 185.33,-26.9946 176.428,-32.7387 181.953,-37.0367"/>
</g>
<!-- 3 -->
<g id="node28" class="node"><title>3</title>
<ellipse fill="lightblue" stroke="black" cx="375" cy="-14.8492" rx="14.7" ry="14.7"/>
<text text-anchor="middle" x="375" y="-12.6492" font-family="Times,serif" font-size="9.00">3</text>
</g>
<!-- &#45;2&#45;&gt;3 -->
<g id="edge27" class="edge"><title>&#45;2&#45;&gt;3</title>
<path fill="none" stroke="green" stroke-width="0.274513" d="M161.347,-68.7C164.167,-67.6408 167.168,-66.5783 170,-65.6985 234.264,-45.7308 311.874,-28.7483 350.574,-20.7508"/>
<polygon fill="green" stroke="green" stroke-width="0.274513" points="351.318,-24.1712 360.414,-18.7384 349.916,-17.3131 351.318,-24.1712"/>
</g>
<!-- &#45;3 -->
<g id="node3" class="node"><title>&#45;3</title>
<polygon fill="lightgray" stroke="black" points="661,-83.6985 637,-83.6985 637,-65.6985 661,-65.6985 661,-83.6985"/>
<text text-anchor="middle" x="649" y="-72.4985" font-family="Times,serif" font-size="9.00">&#45;3</text>
</g>
<!-- 1 -->
<g id="node26" class="node"><title>1</title>
<ellipse fill="lightblue" stroke="black" cx="465" cy="-14.8492" rx="14.7" ry="14.7"/>
<text text-anchor="middle" x="465" y="-12.6492" font-family="Times,serif" font-size="9.00">1</text>
</g>
<!-- &#45;3&#45;&gt;1 -->
<g id="edge23" class="edge"><title>&#45;3&#45;&gt;1</title>
<path fill="none" stroke="green" stroke-width="0.286176" d="M636.613,-68.8217C633.795,-67.7562 630.805,-66.6604 628,-65.6985 578.959,-48.8798 520.701,-31.7345 488.81,-22.5865"/>
<polygon fill="green" stroke="green" stroke-width="0.286176" points="489.633,-19.1818 479.056,-19.8028 487.712,-25.913 489.633,-19.1818"/>
</g>
<!-- &#45;3&#45;&gt;2 -->
<g id="edge14" class="edge"><title>&#45;3&#45;&gt;2</title>
<path fill="none" stroke="green" stroke-width="0.175382" d="M642.604,-65.6548C636.293,-57.7178 626.41,-45.2891 618.096,-34.8334"/>
<polygon fill="green" stroke="green" stroke-width="0.175382" points="620.826,-32.6433 611.862,-26.9946 615.347,-37.0001 620.826,-32.6433"/>
</g>
<!-- &#45;4 -->
<g id="node4" class="node"><title>&#45;4</title>
<polygon fill="lightgray" stroke="black" points="387,-83.6985 363,-83.6985 363,-65.6985 387,-65.6985 387,-83.6985"/>
<text text-anchor="middle" x="375" y="-72.4985" font-family="Times,serif" font-size="9.00">&#45;4</text>
</g>
<!-- &#45;4&#45;&gt;0 -->
<g id="edge24" class="edge"><title>&#45;4&#45;&gt;0</title>
<path fill="none" stroke="red" stroke-width="0.459764" d="M362.61,-68.8326C359.791,-67.7665 356.802,-66.6677 354,-65.6985 306.075,-49.1219 249.24,-32.0098 217.845,-22.7755"/>
<polygon fill="red" stroke="red" stroke-width="0.459764" points="218.803,-19.4092 208.222,-19.958 216.836,-26.1271 218.803,-19.4092"/>
</g>
<!-- &#45;4&#45;&gt;1 -->
<g id="edge31" class="edge"><title>&#45;4&#45;&gt;1</title>
<path fill="none" stroke="green" stroke-width="0.34774" d="M387.138,-65.8967C401.765,-56.4946 426.578,-40.5455 444.262,-29.1793"/>
<polygon fill="green" stroke="green" stroke-width="0.34774" points="446.247,-32.0635 452.767,-23.7122 442.462,-26.175 446.247,-32.0635"/>
</g>
<!-- &#45;4&#45;&gt;2 -->
<g id="edge8" class="edge"><title>&#45;4&#45;&gt;2</title>
<path fill="none" stroke="green" stroke-width="0.298373" d="M387.022,-69.053C390.24,-67.8852 393.732,-66.6848 397,-65.6985 461.882,-46.1178 540.036,-28.9088 578.779,-20.7944"/>
<polygon fill="green" stroke="green" stroke-width="0.298373" points="579.537,-24.2117 588.617,-18.7525 578.115,-17.3577 579.537,-24.2117"/>
</g>
<!-- &#45;4&#45;&gt;3 -->
<g id="edge11" class="edge"><title>&#45;4&#45;&gt;3</title>
<path fill="none" stroke="green" stroke-width="1.27838" d="M375,-65.6548C375,-59.0498 375,-49.3344 375,-40.2339"/>
<polygon fill="green" stroke="green" stroke-width="1.27838" points="378.5,-40.0563 375,-30.0563 371.5,-40.0564 378.5,-40.0563"/>
</g>
<!-- &#45;5 -->
<g id="node5" class="node"><title>&#45;5</title>
<polygon fill="lightgray" stroke="black" points="24,-83.6985 0,-83.6985 0,-65.6985 24,-65.6985 24,-83.6985"/>
<text text-anchor="middle" x="12" y="-72.4985" font-family="Times,serif" font-size="9.00">&#45;5</text>
</g>
<!-- &#45;5&#45;&gt;0 -->
<g id="edge18" class="edge"><title>&#45;5&#45;&gt;0</title>
<path fill="none" stroke="red" stroke-width="1.2516" d="M24.3891,-68.8289C27.2074,-67.7631 30.1969,-66.6652 33,-65.6985 81.2132,-49.07 138.407,-31.9767 170.003,-22.7596"/>
<polygon fill="red" stroke="red" stroke-width="1.2516" points="171.059,-26.0975 179.687,-19.9479 169.107,-19.3751 171.059,-26.0975"/>
</g>
<!-- &#45;6 -->
<g id="node6" class="node"><title>&#45;6</title>
<polygon fill="lightgray" stroke="black" points="845,-83.6985 821,-83.6985 821,-65.6985 845,-65.6985 845,-83.6985"/>
<text text-anchor="middle" x="833" y="-72.4985" font-family="Times,serif" font-size="9.00">&#45;6</text>
</g>
<!-- &#45;7 -->
<g id="node7" class="node"><title>&#45;7</title>
<polygon fill="lightgray" stroke="black" points="477,-83.6985 453,-83.6985 453,-65.6985 477,-65.6985 477,-83.6985"/>
<text text-anchor="middle" x="465" y="-72.4985" font-family="Times,serif" font-size="9.00">&#45;7</text>
</g>
<!-- &#45;7&#45;&gt;1 -->
<g id="edge32" class="edge"><title>&#45;7&#45;&gt;1</title>
<path fill="none" stroke="red" stroke-width="0.225648" d="M465,-65.6548C465,-59.0498 465,-49.3344 465,-40.2339"/>
<polygon fill="red" stroke="red" stroke-width="0.225648" points="468.5,-40.0563 465,-30.0563 461.5,-40.0564 468.5,-40.0563"/>
</g>
<!-- &#45;7&#45;&gt;3 -->
<g id="edge15" class="edge"><title>&#45;7&#45;&gt;3</title>
<path fill="none" stroke="green" stroke-width="0.142966" d="M452.862,-65.8967C438.235,-56.4946 413.422,-40.5455 395.738,-29.1793"/>
<polygon fill="green" stroke="green" stroke-width="0.142966" points="397.538,-26.175 387.233,-23.7122 393.753,-32.0635 397.538,-26.175"/>
</g>
<!-- &#45;8 -->
<g id="node8" class="node"><title>&#45;8</title>
<polygon fill="lightgray" stroke="black" points="887,-83.6985 863,-83.6985 863,-65.6985 887,-65.6985 887,-83.6985"/>
<text text-anchor="middle" x="875" y="-72.4985" font-family="Times,serif" font-size="9.00">&#45;8</text>
</g>
<!-- &#45;9 -->
<g id="node9" class="node"><title>&#45;9</title>
<polygon fill="lightgray" stroke="black" points="929,-83.6985 905,-83.6985 905,-65.6985 929,-65.6985 929,-83.6985"/>
<text text-anchor="middle" x="917" y="-72.4985" font-family="Times,serif" font-size="9.00">&#45;9</text>
</g>
<!-- &#45;10 -->
<g id="node10" class="node"><title>&#45;10</title>
<polygon fill="lightgray" stroke="black" points="434.5,-83.6985 405.5,-83.6985 405.5,-65.6985 434.5,-65.6985 434.5,-83.6985"/>
<text text-anchor="middle" x="420" y="-72.4985" font-family="Times,serif" font-size="9.00">&#45;10</text>
</g>
<!-- &#45;10&#45;&gt;0 -->
<g id="edge30" class="edge"><title>&#45;10&#45;&gt;0</title>
<path fill="none" stroke="red" stroke-width="0.326368" d="M405.335,-68.6041C402.265,-67.5956 399.038,-66.578 396,-65.6985 332.526,-47.3193 256.615,-29.7514 218.456,-21.2211"/>
<polygon fill="red" stroke="red" stroke-width="0.326368" points="218.829,-17.7187 208.308,-18.9671 217.311,-24.5522 218.829,-17.7187"/>
</g>
<!-- &#45;10&#45;&gt;2 -->
<g id="edge2" class="edge"><title>&#45;10&#45;&gt;2</title>
<path fill="none" stroke="red" stroke-width="0.720914" d="M434.709,-68.749C437.776,-67.7301 440.991,-66.6715 444,-65.6985 491.767,-50.2507 547.838,-32.8393 579.005,-23.2253"/>
<polygon fill="red" stroke="red" stroke-width="0.720914" points="580.409,-26.455 588.935,-20.1659 578.348,-19.7653 580.409,-26.455"/>
</g>
<!-- &#45;11 -->
<g id="node11" class="node"><title>&#45;11</title>
<polygon fill="lightgray" stroke="black" points="708.5,-83.6985 679.5,-83.6985 679.5,-65.6985 708.5,-65.6985 708.5,-83.6985"/>
<text text-anchor="middle" x="694" y="-72.4985" font-family="Times,serif" font-size="9.00">&#45;11</text>
</g>
<!-- &#45;11&#45;&gt;2 -->
<g id="edge29" class="edge"><title>&#45;11&#45;&gt;2</title>
<path fill="none" stroke="green" stroke-width="0.236901" d="M681.347,-65.6548C666.459,-56.1902 641.523,-40.3388 623.784,-29.0619"/>
<polygon fill="green" stroke="green" stroke-width="0.236901" points="625.572,-26.0509 615.255,-23.6398 621.816,-31.9583 625.572,-26.0509"/>
</g>
<!-- &#45;12 -->
<g id="node12" class="node"><title>&#45;12</title>
<polygon fill="lightgray" stroke="black" points="302.5,-83.6985 273.5,-83.6985 273.5,-65.6985 302.5,-65.6985 302.5,-83.6985"/>
<text text-anchor="middle" x="288" y="-72.4985" font-family="Times,serif" font-size="9.00">&#45;12</text>
</g>
<!-- &#45;12&#45;&gt;3 -->
<g id="edge26" class="edge"><title>&#45;12&#45;&gt;3</title>
<path fill="none" stroke="red" stroke-width="0.36934" d="M300.097,-65.6548C314.121,-56.3294 337.471,-40.8037 354.377,-29.5624"/>
<polygon fill="red" stroke="red" stroke-width="0.36934" points="356.617,-32.2762 363.006,-23.8246 352.741,-26.4472 356.617,-32.2762"/>
</g>
<!-- &#45;13 -->
<g id="node13" class="node"><title>&#45;13</title>
<polygon fill="lightgray" stroke="black" points="976.5,-83.6985 947.5,-83.6985 947.5,-65.6985 976.5,-65.6985 976.5,-83.6985"/>
<text text-anchor="middle" x="962" y="-72.4985" font-family="Times,serif" font-size="9.00">&#45;13</text>
</g>
<!-- &#45;14 -->
<g id="node14" class="node"><title>&#45;14</title>
<polygon fill="lightgray" stroke="black" points="1023.5,-83.6985 994.5,-83.6985 994.5,-65.6985 1023.5,-65.6985 1023.5,-83.6985"/>
<text text-anchor="middle" x="1009" y="-72.4985" font-family="Times,serif" font-size="9.00">&#45;14</text>
</g>
<!-- &#45;15 -->
<g id="node15" class="node"><title>&#45;15</title>
<polygon fill="lightgray" stroke="black" points="755.5,-83.6985 726.5,-83.6985 726.5,-65.6985 755.5,-65.6985 755.5,-83.6985"/>
<text text-anchor="middle" x="741" y="-72.4985" font-family="Times,serif" font-size="9.00">&#45;15</text>
</g>
<!-- &#45;15&#45;&gt;2 -->
<g id="edge7" class="edge"><title>&#45;15&#45;&gt;2</title>
<path fill="none" stroke="red" stroke-width="0.205421" d="M726.492,-67.6169C702.579,-57.5925 654.691,-37.5181 626.084,-25.526"/>
<polygon fill="red" stroke="red" stroke-width="0.205421" points="627.073,-22.1454 616.497,-21.5072 624.366,-28.6011 627.073,-22.1454"/>
</g>
<!-- &#45;16 -->
<g id="node16" class="node"><title>&#45;16</title>
<polygon fill="lightgray" stroke="black" points="255.5,-83.6985 226.5,-83.6985 226.5,-65.6985 255.5,-65.6985 255.5,-83.6985"/>
<text text-anchor="middle" x="241" y="-72.4985" font-family="Times,serif" font-size="9.00">&#45;16</text>
</g>
<!-- &#45;16&#45;&gt;0 -->
<g id="edge13" class="edge"><title>&#45;16&#45;&gt;0</title>
<path fill="none" stroke="red" stroke-width="1.03258" d="M234.465,-65.6548C228.016,-57.7178 217.919,-45.2891 209.424,-34.8334"/>
<polygon fill="red" stroke="red" stroke-width="1.03258" points="212.077,-32.5489 203.055,-26.9946 206.644,-36.9629 212.077,-32.5489"/>
</g>
<!-- &#45;16&#45;&gt;1 -->
<g id="edge22" class="edge"><title>&#45;16&#45;&gt;1</title>
<path fill="none" stroke="green" stroke-width="0.22506" d="M255.535,-68.4172C258.33,-67.466 261.244,-66.5176 264,-65.6985 326.733,-47.0519 401.879,-29.7189 440.067,-21.2593"/>
<polygon fill="green" stroke="green" stroke-width="0.22506" points="441.233,-24.5866 450.248,-19.0207 439.73,-17.7499 441.233,-24.5866"/>
</g>
<!-- &#45;16&#45;&gt;3 -->
<g id="edge6" class="edge"><title>&#45;16&#45;&gt;3</title>
<path fill="none" stroke="red" stroke-width="0.456372" d="M255.595,-67.3975C278.915,-57.3303 324.751,-37.5422 352.353,-25.626"/>
<polygon fill="red" stroke="red" stroke-width="0.456372" points="353.828,-28.8016 361.622,-21.6246 351.054,-22.3749 353.828,-28.8016"/>
</g>
<!-- &#45;17 -->
<g id="node17" class="node"><title>&#45;17</title>
<polygon fill="lightgray" stroke="black" points="802.5,-83.6985 773.5,-83.6985 773.5,-65.6985 802.5,-65.6985 802.5,-83.6985"/>
<text text-anchor="middle" x="788" y="-72.4985" font-family="Times,serif" font-size="9.00">&#45;17</text>
</g>
<!-- &#45;17&#45;&gt;2 -->
<g id="edge20" class="edge"><title>&#45;17&#45;&gt;2</title>
<path fill="none" stroke="red" stroke-width="0.396527" d="M773.426,-68.5402C770.635,-67.5776 767.732,-66.5936 765,-65.6985 716.26,-49.7289 658.794,-32.3973 627.077,-22.961"/>
<polygon fill="red" stroke="red" stroke-width="0.396527" points="627.94,-19.5664 617.358,-20.0769 625.949,-26.2772 627.94,-19.5664"/>
</g>
<!-- &#45;18 -->
<g id="node18" class="node"><title>&#45;18</title>
<polygon fill="lightgray" stroke="black" points="71.5,-83.6985 42.5,-83.6985 42.5,-65.6985 71.5,-65.6985 71.5,-83.6985"/>
<text text-anchor="middle" x="57" y="-72.4985" font-family="Times,serif" font-size="9.00">&#45;18</text>
</g>
<!-- &#45;18&#45;&gt;0 -->
<g id="edge17" class="edge"><title>&#45;18&#45;&gt;0</title>
<path fill="none" stroke="red" stroke-width="0.34395" d="M71.6614,-67.5076C95.5148,-57.4353 142.898,-37.4274 171.183,-25.4837"/>
<polygon fill="red" stroke="red" stroke-width="0.34395" points="172.81,-28.596 180.661,-21.4816 170.087,-22.1473 172.81,-28.596"/>
</g>
<!-- &#45;19 -->
<g id="node19" class="node"><title>&#45;19</title>
<polygon fill="lightgray" stroke="black" points="524.5,-83.6985 495.5,-83.6985 495.5,-65.6985 524.5,-65.6985 524.5,-83.6985"/>
<text text-anchor="middle" x="510" y="-72.4985" font-family="Times,serif" font-size="9.00">&#45;19</text>
</g>
<!-- &#45;19&#45;&gt;1 -->
<g id="edge19" class="edge"><title>&#45;19&#45;&gt;1</title>
<path fill="none" stroke="green" stroke-width="0.269095" d="M503.743,-65.6548C497.63,-57.7964 488.092,-45.5348 480.01,-35.1446"/>
<polygon fill="green" stroke="green" stroke-width="0.269095" points="482.572,-32.7387 473.67,-26.9946 477.047,-37.0367 482.572,-32.7387"/>
</g>
<!-- &#45;19&#45;&gt;3 -->
<g id="edge4" class="edge"><title>&#45;19&#45;&gt;3</title>
<path fill="none" stroke="red" stroke-width="0.339936" d="M495.296,-67.3975C471.802,-57.3303 425.624,-37.5422 397.816,-25.626"/>
<polygon fill="red" stroke="red" stroke-width="0.339936" points="399.048,-22.3463 388.478,-21.6246 396.291,-28.7805 399.048,-22.3463"/>
</g>
<!-- &#45;20 -->
<g id="node20" class="node"><title>&#45;20</title>
<polygon fill="lightgray" stroke="black" points="571.5,-83.6985 542.5,-83.6985 542.5,-65.6985 571.5,-65.6985 571.5,-83.6985"/>
<text text-anchor="middle" x="557" y="-72.4985" font-family="Times,serif" font-size="9.00">&#45;20</text>
</g>
<!-- &#45;20&#45;&gt;2 -->
<g id="edge1" class="edge"><title>&#45;20&#45;&gt;2</title>
<path fill="none" stroke="red" stroke-width="0.757038" d="M563.396,-65.6548C569.707,-57.7178 579.59,-45.2891 587.904,-34.8334"/>
<polygon fill="red" stroke="red" stroke-width="0.757038" points="590.653,-37.0001 594.138,-26.9946 585.174,-32.6433 590.653,-37.0001"/>
</g>
<!-- &#45;20&#45;&gt;3 -->
<g id="edge9" class="edge"><title>&#45;20&#45;&gt;3</title>
<path fill="none" stroke="green" stroke-width="0.258974" d="M542.422,-68.5519C539.632,-67.5883 536.73,-66.6008 534,-65.6985 486.334,-49.9408 430.227,-32.6397 399.027,-23.1289"/>
<polygon fill="green" stroke="green" stroke-width="0.258974" points="399.67,-19.6663 389.085,-20.105 397.633,-26.3634 399.67,-19.6663"/>
</g>
<!-- &#45;21 -->
<g id="node21" class="node"><title>&#45;21</title>
<polygon fill="lightgray" stroke="black" points="118.5,-83.6985 89.5,-83.6985 89.5,-65.6985 118.5,-65.6985 118.5,-83.6985"/>
<text text-anchor="middle" x="104" y="-72.4985" font-family="Times,serif" font-size="9.00">&#45;21</text>
</g>
<!-- &#45;21&#45;&gt;0 -->
<g id="edge12" class="edge"><title>&#45;21&#45;&gt;0</title>
<path fill="none" stroke="red" stroke-width="1.17299" d="M116.514,-65.6548C131.239,-56.1902 155.9,-40.3388 173.444,-29.0619"/>
<polygon fill="red" stroke="red" stroke-width="1.17299" points="175.36,-31.9911 181.88,-23.6398 171.575,-26.1026 175.36,-31.9911"/>
</g>
<!-- &#45;22 -->
<g id="node22" class="node"><title>&#45;22</title>
<polygon fill="lightgray" stroke="black" points="1070.5,-83.6985 1041.5,-83.6985 1041.5,-65.6985 1070.5,-65.6985 1070.5,-83.6985"/>
<text text-anchor="middle" x="1056" y="-72.4985" font-family="Times,serif" font-size="9.00">&#45;22</text>
</g>
<!-- &#45;23 -->
<g id="node23" class="node"><title>&#45;23</title>
<polygon fill="lightgray" stroke="black" points="618.5,-83.6985 589.5,-83.6985 589.5,-65.6985 618.5,-65.6985 618.5,-83.6985"/>
<text text-anchor="middle" x="604" y="-72.4985" font-family="Times,serif" font-size="9.00">&#45;23</text>
</g>
<!-- &#45;23&#45;&gt;1 -->
<g id="edge25" class="edge"><title>&#45;23&#45;&gt;1</title>
<path fill="none" stroke="red" stroke-width="0.213411" d="M589.387,-67.6169C565.195,-57.5486 516.642,-37.3418 487.873,-25.3687"/>
<polygon fill="red" stroke="red" stroke-width="0.213411" points="489.172,-22.1183 478.595,-21.5072 486.482,-28.5809 489.172,-22.1183"/>
</g>
<!-- &#45;24 -->
<g id="node24" class="node"><title>&#45;24</title>
<polygon fill="lightgray" stroke="black" points="208.5,-83.6985 179.5,-83.6985 179.5,-65.6985 208.5,-65.6985 208.5,-83.6985"/>
<text text-anchor="middle" x="194" y="-72.4985" font-family="Times,serif" font-size="9.00">&#45;24</text>
</g>
<!-- &#45;24&#45;&gt;0 -->
<g id="edge28" class="edge"><title>&#45;24&#45;&gt;0</title>
<path fill="none" stroke="green" stroke-width="0.254065" d="M194,-65.6548C194,-59.0498 194,-49.3344 194,-40.2339"/>
<polygon fill="green" stroke="green" stroke-width="0.254065" points="197.5,-40.0563 194,-30.0563 190.5,-40.0564 197.5,-40.0563"/>
</g>
<!-- &#45;24&#45;&gt;1 -->
<g id="edge5" class="edge"><title>&#45;24&#45;&gt;1</title>
<path fill="none" stroke="red" stroke-width="0.101598" d="M208.505,-68.3102C211.302,-67.3689 214.226,-66.4515 217,-65.6985 296.578,-44.1017 318.205,-46.1655 399,-29.6985 412.753,-26.8955 428.099,-23.6806 440.53,-21.0543"/>
<polygon fill="red" stroke="red" stroke-width="0.101598" points="441.532,-24.4196 450.59,-18.923 440.082,-17.5716 441.532,-24.4196"/>
</g>
<!-- 1&#45;&gt;1 -->
<g id="edge16" class="edge"><title>1&#45;&gt;1</title>
<path fill="none" stroke="red" stroke-width="0.237712" d="M476.788,-23.9294C487.022,-28.0713 497.849,-25.0446 497.849,-14.8492 497.849,-7.99927 492.962,-4.3853 486.65,-4.00735"/>
<polygon fill="red" stroke="red" stroke-width="0.237712" points="486.016,-0.565092 476.788,-5.76904 487.247,-7.45602 486.016,-0.565092"/>
</g>
</g>
</svg>
