<?xml version="1.0" encoding="UTF-8" standalone="no"?>
<!DOCTYPE svg PUBLIC "-//W3C//DTD SVG 1.1//EN"
 "http://www.w3.org/Graphics/SVG/1.1/DTD/svg11.dtd">
<!-- Generated by graphviz version 2.38.0 (20140413.2041)
 -->
<!-- Title: %3 Pages: 1 -->
<svg width="1172pt" height="170pt"
 viewBox="0.00 0.00 1172.00 170.12" xmlns="http://www.w3.org/2000/svg" xmlns:xlink="http://www.w3.org/1999/xlink">
<g id="graph0" class="graph" transform="scale(1 1) rotate(0) translate(4 166.125)">
<title>%3</title>
<polygon fill="white" stroke="none" points="-4,4 -4,-166.125 1168,-166.125 1168,4 -4,4"/>
<!-- &#45;1 -->
<g id="node1" class="node"><title>&#45;1</title>
<polygon fill="lightgray" stroke="black" points="285.5,-95.9117 261.5,-95.9117 261.5,-77.9117 285.5,-77.9117 285.5,-95.9117"/>
<text text-anchor="middle" x="273.5" y="-84.7117" font-family="Times,serif" font-size="9.00">&#45;1</text>
</g>
<!-- 1 -->
<g id="node26" class="node"><title>1</title>
<ellipse fill="lightblue" stroke="black" cx="273.5" cy="-14.8492" rx="14.7" ry="14.7"/>
<text text-anchor="middle" x="273.5" y="-12.6492" font-family="Times,serif" font-size="9.00">1</text>
</g>
<!-- &#45;1&#45;&gt;1 -->
<g id="edge15" class="edge"><title>&#45;1&#45;&gt;1</title>
<path fill="none" stroke="red" stroke-width="0.34229" d="M273.5,-77.8746C273.5,-68.7202 273.5,-53.3256 273.5,-40.1641"/>
<polygon fill="red" stroke="red" stroke-width="0.34229" points="277,-39.8196 273.5,-29.8197 270,-39.8197 277,-39.8196"/>
</g>
<!-- 3 -->
<g id="node28" class="node"><title>3</title>
<ellipse fill="lightblue" stroke="black" cx="574.5" cy="-14.8492" rx="14.7" ry="14.7"/>
<text text-anchor="middle" x="574.5" y="-12.6492" font-family="Times,serif" font-size="9.00">3</text>
</g>
<!-- &#45;1&#45;&gt;3 -->
<g id="edge14" class="edge"><title>&#45;1&#45;&gt;3</title>
<path fill="none" stroke="red" stroke-width="0.344052" d="M280.033,-77.6037C283.807,-73.3787 288.909,-68.5472 294.5,-65.6985 380.571,-21.842 498.621,-15.9041 549.5,-15.542"/>
<polygon fill="red" stroke="red" stroke-width="0.344052" points="549.577,-19.0421 559.576,-15.5396 549.575,-12.0421 549.577,-19.0421"/>
</g>
<!-- &#45;2 -->
<g id="node2" class="node"><title>&#45;2</title>
<polygon fill="lightgray" stroke="black" points="327.5,-95.9117 303.5,-95.9117 303.5,-77.9117 327.5,-77.9117 327.5,-95.9117"/>
<text text-anchor="middle" x="315.5" y="-84.7117" font-family="Times,serif" font-size="9.00">&#45;2</text>
</g>
<!-- &#45;2&#45;&gt;1 -->
<g id="edge31" class="edge"><title>&#45;2&#45;&gt;1</title>
<path fill="none" stroke="green" stroke-width="0.352022" d="M310.682,-77.8746C304.73,-67.9452 294.376,-50.6741 286.104,-36.8744"/>
<polygon fill="green" stroke="green" stroke-width="0.352022" points="288.932,-34.7856 280.789,-28.0082 282.929,-38.3847 288.932,-34.7856"/>
</g>
<!-- &#45;2&#45;&gt;3 -->
<g id="edge42" class="edge"><title>&#45;2&#45;&gt;3</title>
<path fill="none" stroke="green" stroke-width="0.268777" d="M322.068,-77.6709C325.853,-73.4656 330.953,-68.6315 336.5,-65.6985 407.523,-28.1443 504.477,-18.8768 549.558,-16.5934"/>
<polygon fill="green" stroke="green" stroke-width="0.268777" points="549.768,-20.0877 559.608,-16.1591 549.466,-13.0943 549.768,-20.0877"/>
</g>
<!-- &#45;3 -->
<g id="node3" class="node"><title>&#45;3</title>
<polygon fill="lightgray" stroke="black" points="713.5,-95.9117 689.5,-95.9117 689.5,-77.9117 713.5,-77.9117 713.5,-95.9117"/>
<text text-anchor="middle" x="701.5" y="-84.7117" font-family="Times,serif" font-size="9.00">&#45;3</text>
</g>
<!-- 0 -->
<g id="node25" class="node"><title>0</title>
<ellipse fill="lightblue" stroke="black" cx="793.5" cy="-14.8492" rx="14.7" ry="14.7"/>
<text text-anchor="middle" x="793.5" y="-12.6492" font-family="Times,serif" font-size="9.00">0</text>
</g>
<!-- &#45;3&#45;&gt;0 -->
<g id="edge44" class="edge"><title>&#45;3&#45;&gt;0</title>
<path fill="none" stroke="red" stroke-width="0.323489" d="M709.848,-77.7864C713.87,-73.9915 718.825,-69.4862 723.5,-65.6985 739.475,-52.7547 758.536,-39.3007 772.732,-29.6369"/>
<polygon fill="red" stroke="red" stroke-width="0.323489" points="774.94,-32.3691 781.276,-23.8772 771.027,-26.5647 774.94,-32.3691"/>
</g>
<!-- &#45;3&#45;&gt;1 -->
<g id="edge33" class="edge"><title>&#45;3&#45;&gt;1</title>
<path fill="none" stroke="green" stroke-width="0.511722" d="M695.387,-77.8922C691.599,-73.5346 686.349,-68.4813 680.5,-65.6985 612.185,-33.1948 376.75,-20.3015 298.793,-16.8609"/>
<polygon fill="green" stroke="green" stroke-width="0.511722" points="298.613,-13.3501 288.473,-16.4207 298.314,-20.3438 298.613,-13.3501"/>
</g>
<!-- &#45;4 -->
<g id="node4" class="node"><title>&#45;4</title>
<polygon fill="lightgray" stroke="black" points="940.5,-95.9117 916.5,-95.9117 916.5,-77.9117 940.5,-77.9117 940.5,-95.9117"/>
<text text-anchor="middle" x="928.5" y="-84.7117" font-family="Times,serif" font-size="9.00">&#45;4</text>
</g>
<!-- &#45;4&#45;&gt;0 -->
<g id="edge35" class="edge"><title>&#45;4&#45;&gt;0</title>
<path fill="none" stroke="red" stroke-width="0.275127" d="M921.291,-77.7161C917.478,-73.7255 912.548,-69.0732 907.5,-65.6985 878.717,-46.457 841.288,-31.7688 817.322,-23.4749"/>
<polygon fill="red" stroke="red" stroke-width="0.275127" points="818.233,-20.0886 807.639,-20.2189 816.002,-26.7236 818.233,-20.0886"/>
</g>
<!-- &#45;5 -->
<g id="node5" class="node"><title>&#45;5</title>
<polygon fill="lightgray" stroke="black" points="1030.5,-95.9117 1006.5,-95.9117 1006.5,-77.9117 1030.5,-77.9117 1030.5,-95.9117"/>
<text text-anchor="middle" x="1018.5" y="-84.7117" font-family="Times,serif" font-size="9.00">&#45;5</text>
</g>
<!-- &#45;5&#45;&gt;0 -->
<g id="edge24" class="edge"><title>&#45;5&#45;&gt;0</title>
<path fill="none" stroke="green" stroke-width="0.570484" d="M1011.89,-77.744C1008.1,-73.5601 1003,-68.7232 997.5,-65.6985 938.52,-33.2484 858.497,-21.6759 818.467,-17.7457"/>
<polygon fill="green" stroke="green" stroke-width="0.570484" points="818.562,-14.2401 808.288,-16.8288 817.934,-21.2119 818.562,-14.2401"/>
</g>
<!-- 2 -->
<g id="node27" class="node"><title>2</title>
<ellipse fill="lightblue" stroke="black" cx="1018.5" cy="-14.8492" rx="14.7" ry="14.7"/>
<text text-anchor="middle" x="1018.5" y="-12.6492" font-family="Times,serif" font-size="9.00">2</text>
</g>
<!-- &#45;5&#45;&gt;2 -->
<g id="edge49" class="edge"><title>&#45;5&#45;&gt;2</title>
<path fill="none" stroke="green" stroke-width="0.140955" d="M1018.5,-77.8746C1018.5,-68.7202 1018.5,-53.3256 1018.5,-40.1641"/>
<polygon fill="green" stroke="green" stroke-width="0.140955" points="1022,-39.8196 1018.5,-29.8197 1015,-39.8197 1022,-39.8196"/>
</g>
<!-- &#45;5&#45;&gt;3 -->
<g id="edge38" class="edge"><title>&#45;5&#45;&gt;3</title>
<path fill="none" stroke="red" stroke-width="0.198849" d="M1012.39,-77.8822C1008.61,-73.5213 1003.36,-68.468 997.5,-65.6985 961.398,-48.6227 685.001,-24.8679 599.574,-17.8665"/>
<polygon fill="red" stroke="red" stroke-width="0.198849" points="599.728,-14.3676 589.477,-17.0444 599.16,-21.3445 599.728,-14.3676"/>
</g>
<!-- &#45;6 -->
<g id="node6" class="node"><title>&#45;6</title>
<polygon fill="lightgray" stroke="black" points="157.5,-95.9117 133.5,-95.9117 133.5,-77.9117 157.5,-77.9117 157.5,-95.9117"/>
<text text-anchor="middle" x="145.5" y="-84.7117" font-family="Times,serif" font-size="9.00">&#45;6</text>
</g>
<!-- &#45;6&#45;&gt;1 -->
<g id="edge40" class="edge"><title>&#45;6&#45;&gt;1</title>
<path fill="none" stroke="red" stroke-width="0.216254" d="M152.743,-77.7667C156.565,-73.789 161.492,-69.133 166.5,-65.6985 193.174,-47.4049 227.628,-32.7206 250.13,-24.1485"/>
<polygon fill="red" stroke="red" stroke-width="0.216254" points="251.401,-27.4104 259.557,-20.649 248.964,-20.8479 251.401,-27.4104"/>
</g>
<!-- &#45;7 -->
<g id="node7" class="node"><title>&#45;7</title>
<polygon fill="lightgray" stroke="black" points="850.5,-95.9117 826.5,-95.9117 826.5,-77.9117 850.5,-77.9117 850.5,-95.9117"/>
<text text-anchor="middle" x="838.5" y="-84.7117" font-family="Times,serif" font-size="9.00">&#45;7</text>
</g>
<!-- &#45;7&#45;&gt;0 -->
<g id="edge9" class="edge"><title>&#45;7&#45;&gt;0</title>
<path fill="none" stroke="red" stroke-width="0.123507" d="M833.338,-77.8746C826.861,-67.7908 815.521,-50.1351 806.592,-36.233"/>
<polygon fill="red" stroke="red" stroke-width="0.123507" points="809.497,-34.2792 801.148,-27.7567 803.607,-38.0622 809.497,-34.2792"/>
</g>
<!-- &#45;7&#45;&gt;2 -->
<g id="edge36" class="edge"><title>&#45;7&#45;&gt;2</title>
<path fill="none" stroke="green" stroke-width="0.279549" d="M845.575,-77.8998C849.597,-73.7615 854.932,-68.9185 860.5,-65.6985 903.898,-40.5987 961.443,-26.5694 993.753,-20.171"/>
<polygon fill="green" stroke="green" stroke-width="0.279549" points="994.513,-23.5894 1003.69,-18.2887 993.21,-16.7118 994.513,-23.5894"/>
</g>
<!-- &#45;7&#45;&gt;3 -->
<g id="edge22" class="edge"><title>&#45;7&#45;&gt;3</title>
<path fill="none" stroke="green" stroke-width="0.414014" d="M831.937,-77.6618C828.154,-73.4538 823.053,-68.6201 817.5,-65.6985 744.792,-27.4454 645.505,-18.5223 599.628,-16.4586"/>
<polygon fill="green" stroke="green" stroke-width="0.414014" points="599.539,-12.9528 589.415,-16.0754 599.276,-19.9479 599.539,-12.9528"/>
</g>
<!-- &#45;8 -->
<g id="node8" class="node"><title>&#45;8</title>
<polygon fill="lightgray" stroke="black" points="662.5,-162.125 638.5,-162.125 638.5,-144.125 662.5,-144.125 662.5,-162.125"/>
<text text-anchor="middle" x="650.5" y="-150.925" font-family="Times,serif" font-size="9.00">&#45;8</text>
</g>
<!-- &#45;8&#45;&gt;1 -->
<g id="edge12" class="edge"><title>&#45;8&#45;&gt;1</title>
<path fill="none" stroke="green" stroke-width="0.284981" d="M638.207,-151.72C573.981,-149.483 278.935,-137.644 252.5,-108.125 234.726,-88.2773 247.896,-56.5479 259.94,-35.954"/>
<polygon fill="green" stroke="green" stroke-width="0.284981" points="262.976,-37.6997 265.279,-27.3582 257.029,-34.0063 262.976,-37.6997"/>
</g>
<!-- &#45;8&#45;&gt;2 -->
<g id="edge19" class="edge"><title>&#45;8&#45;&gt;2</title>
<path fill="none" stroke="red" stroke-width="0.524134" d="M662.896,-146.976C665.986,-145.871 669.325,-144.827 672.5,-144.125 717.692,-134.13 1056.22,-142.238 1087.5,-108.125 1100.24,-94.2273 1096.08,-82.488 1087.5,-65.6985 1077.92,-46.9557 1057.64,-33.6376 1041.53,-25.5099"/>
<polygon fill="red" stroke="red" stroke-width="0.524134" points="1042.71,-22.1988 1032.17,-21.118 1039.74,-28.5355 1042.71,-22.1988"/>
</g>
<!-- 425 -->
<g id="node29" class="node"><title>425</title>
<ellipse fill="white" stroke="black" cx="650.5" cy="-86.9117" rx="21.4286" ry="21.4286"/>
<text text-anchor="middle" x="650.5" y="-84.7117" font-family="Times,serif" font-size="9.00">425</text>
</g>
<!-- &#45;8&#45;&gt;425 -->
<g id="edge25" class="edge"><title>&#45;8&#45;&gt;425</title>
<path fill="none" stroke="green" stroke-width="0.3" d="M650.5,-143.992C650.5,-137.449 650.5,-127.82 650.5,-118.381"/>
<polygon fill="green" stroke="green" stroke-width="0.3" points="654,-118.367 650.5,-108.367 647,-118.367 654,-118.367"/>
</g>
<!-- &#45;9 -->
<g id="node9" class="node"><title>&#45;9</title>
<polygon fill="lightgray" stroke="black" points="369.5,-95.9117 345.5,-95.9117 345.5,-77.9117 369.5,-77.9117 369.5,-95.9117"/>
<text text-anchor="middle" x="357.5" y="-84.7117" font-family="Times,serif" font-size="9.00">&#45;9</text>
</g>
<!-- &#45;9&#45;&gt;0 -->
<g id="edge34" class="edge"><title>&#45;9&#45;&gt;0</title>
<path fill="none" stroke="red" stroke-width="0.336037" d="M363.977,-77.8874C367.969,-73.5283 373.469,-68.475 379.5,-65.6985 414.936,-49.3838 684.208,-25.2018 768.414,-17.9675"/>
<polygon fill="red" stroke="red" stroke-width="0.336037" points="768.719,-21.4543 778.385,-17.116 768.124,-14.4797 768.719,-21.4543"/>
</g>
<!-- &#45;9&#45;&gt;1 -->
<g id="edge21" class="edge"><title>&#45;9&#45;&gt;1</title>
<path fill="none" stroke="red" stroke-width="0.186783" d="M349.495,-77.8522C345.648,-74.0717 340.921,-69.5596 336.5,-65.6985 322.331,-53.325 305.605,-40.1526 292.949,-30.4577"/>
<polygon fill="red" stroke="red" stroke-width="0.186783" points="294.998,-27.619 284.919,-24.354 290.762,-33.1918 294.998,-27.619"/>
</g>
<!-- &#45;9&#45;&gt;3 -->
<g id="edge45" class="edge"><title>&#45;9&#45;&gt;3</title>
<path fill="none" stroke="red" stroke-width="0.11919" d="M364.505,-77.776C368.507,-73.6014 373.846,-68.7633 379.5,-65.6985 435.421,-35.3888 510.409,-22.9791 549.074,-18.3381"/>
<polygon fill="red" stroke="red" stroke-width="0.11919" points="549.861,-21.772 559.409,-17.1811 549.082,-14.8155 549.861,-21.772"/>
</g>
<!-- &#45;10 -->
<g id="node10" class="node"><title>&#45;10</title>
<polygon fill="lightgray" stroke="black" points="898,-95.9117 869,-95.9117 869,-77.9117 898,-77.9117 898,-95.9117"/>
<text text-anchor="middle" x="883.5" y="-84.7117" font-family="Times,serif" font-size="9.00">&#45;10</text>
</g>
<!-- &#45;10&#45;&gt;2 -->
<g id="edge3" class="edge"><title>&#45;10&#45;&gt;2</title>
<path fill="none" stroke="red" stroke-width="0.308576" d="M891.937,-77.8037C896.346,-73.8353 901.965,-69.1766 907.5,-65.6985 935.885,-47.8616 971.733,-32.983 994.884,-24.2492"/>
<polygon fill="red" stroke="red" stroke-width="0.308576" points="996.385,-27.4261 1004.55,-20.6803 993.962,-20.859 996.385,-27.4261"/>
</g>
<!-- &#45;10&#45;&gt;3 -->
<g id="edge13" class="edge"><title>&#45;10&#45;&gt;3</title>
<path fill="none" stroke="red" stroke-width="0.233651" d="M875.82,-77.6096C871.444,-73.3863 865.621,-68.5546 859.5,-65.6985 770.444,-24.1465 651.051,-16.9908 599.705,-15.9263"/>
<polygon fill="red" stroke="red" stroke-width="0.233651" points="599.589,-12.4244 589.54,-15.7792 599.488,-19.4236 599.589,-12.4244"/>
</g>
<!-- &#45;11 -->
<g id="node11" class="node"><title>&#45;11</title>
<polygon fill="lightgray" stroke="black" points="710,-162.125 681,-162.125 681,-144.125 710,-144.125 710,-162.125"/>
<text text-anchor="middle" x="695.5" y="-150.925" font-family="Times,serif" font-size="9.00">&#45;11</text>
</g>
<!-- &#45;12 -->
<g id="node12" class="node"><title>&#45;12</title>
<polygon fill="lightgray" stroke="black" points="757,-162.125 728,-162.125 728,-144.125 757,-144.125 757,-162.125"/>
<text text-anchor="middle" x="742.5" y="-150.925" font-family="Times,serif" font-size="9.00">&#45;12</text>
</g>
<!-- &#45;13 -->
<g id="node13" class="node"><title>&#45;13</title>
<polygon fill="lightgray" stroke="black" points="417,-95.9117 388,-95.9117 388,-77.9117 417,-77.9117 417,-95.9117"/>
<text text-anchor="middle" x="402.5" y="-84.7117" font-family="Times,serif" font-size="9.00">&#45;13</text>
</g>
<!-- &#45;13&#45;&gt;0 -->
<g id="edge48" class="edge"><title>&#45;13&#45;&gt;0</title>
<path fill="none" stroke="red" stroke-width="0.111628" d="M410.137,-77.516C414.501,-73.2653 420.325,-68.4373 426.5,-65.6985 488.278,-38.2966 696.051,-22.2847 768.404,-17.4333"/>
<polygon fill="red" stroke="red" stroke-width="0.111628" points="768.689,-20.9222 778.438,-16.7743 768.23,-13.9372 768.689,-20.9222"/>
</g>
<!-- &#45;13&#45;&gt;1 -->
<g id="edge37" class="edge"><title>&#45;13&#45;&gt;1</title>
<path fill="none" stroke="green" stroke-width="0.222637" d="M394.031,-77.853C389.615,-73.8973 383.998,-69.2349 378.5,-65.6985 351.981,-48.6409 318.718,-33.8349 296.822,-24.8866"/>
<polygon fill="green" stroke="green" stroke-width="0.222637" points="297.931,-21.5605 287.346,-21.0903 295.327,-28.0583 297.931,-21.5605"/>
</g>
<!-- &#45;13&#45;&gt;3 -->
<g id="edge11" class="edge"><title>&#45;13&#45;&gt;3</title>
<path fill="none" stroke="green" stroke-width="0.192999" d="M410.8,-77.5725C415.173,-73.5452 420.803,-68.9035 426.5,-65.6985 466.908,-42.9673 519.368,-28.3617 549.751,-21.1687"/>
<polygon fill="green" stroke="green" stroke-width="0.192999" points="550.913,-24.4932 559.882,-18.8527 549.353,-17.6693 550.913,-24.4932"/>
</g>
<!-- &#45;14 -->
<g id="node14" class="node"><title>&#45;14</title>
<polygon fill="lightgray" stroke="black" points="611,-95.9117 582,-95.9117 582,-77.9117 611,-77.9117 611,-95.9117"/>
<text text-anchor="middle" x="596.5" y="-84.7117" font-family="Times,serif" font-size="9.00">&#45;14</text>
</g>
<!-- &#45;14&#45;&gt;0 -->
<g id="edge39" class="edge"><title>&#45;14&#45;&gt;0</title>
<path fill="none" stroke="red" stroke-width="0.220448" d="M604.309,-77.8683C608.724,-73.7208 614.541,-68.8791 620.5,-65.6985 669.518,-39.537 733.876,-25.672 768.636,-19.6408"/>
<polygon fill="red" stroke="red" stroke-width="0.220448" points="769.532,-23.0402 778.825,-17.9522 768.387,-16.1344 769.532,-23.0402"/>
</g>
<!-- &#45;14&#45;&gt;1 -->
<g id="edge50" class="edge"><title>&#45;14&#45;&gt;1</title>
<path fill="none" stroke="red" stroke-width="0.412434" d="M581.872,-80.5624C569.405,-76.1439 550.946,-69.9318 534.5,-65.6985 448.679,-43.6076 344.691,-26.6009 298.126,-19.4872"/>
<polygon fill="red" stroke="red" stroke-width="0.412434" points="298.483,-16.0016 288.072,-17.9696 297.438,-22.9231 298.483,-16.0016"/>
</g>
<!-- &#45;14&#45;&gt;3 -->
<g id="edge27" class="edge"><title>&#45;14&#45;&gt;3</title>
<path fill="none" stroke="red" stroke-width="0.246867" d="M593.976,-77.8746C591.008,-68.4226 585.951,-52.3178 581.734,-38.8876"/>
<polygon fill="red" stroke="red" stroke-width="0.246867" points="585.057,-37.7853 578.721,-29.2932 578.378,-39.8825 585.057,-37.7853"/>
</g>
<!-- &#45;15 -->
<g id="node15" class="node"><title>&#45;15</title>
<polygon fill="lightgray" stroke="black" points="808,-95.9117 779,-95.9117 779,-77.9117 808,-77.9117 808,-95.9117"/>
<text text-anchor="middle" x="793.5" y="-84.7117" font-family="Times,serif" font-size="9.00">&#45;15</text>
</g>
<!-- &#45;15&#45;&gt;0 -->
<g id="edge30" class="edge"><title>&#45;15&#45;&gt;0</title>
<path fill="none" stroke="red" stroke-width="0.291077" d="M793.5,-77.8746C793.5,-68.7202 793.5,-53.3256 793.5,-40.1641"/>
<polygon fill="red" stroke="red" stroke-width="0.291077" points="797,-39.8196 793.5,-29.8197 790,-39.8197 797,-39.8196"/>
</g>
<!-- &#45;15&#45;&gt;3 -->
<g id="edge46" class="edge"><title>&#45;15&#45;&gt;3</title>
<path fill="none" stroke="green" stroke-width="0.115878" d="M786.112,-77.7828C781.91,-73.6102 776.331,-68.7718 770.5,-65.6985 713.958,-35.9002 638.727,-23.2746 599.973,-18.4662"/>
<polygon fill="green" stroke="green" stroke-width="0.115878" points="599.953,-14.9404 589.615,-17.2618 599.144,-21.8935 599.953,-14.9404"/>
</g>
<!-- &#45;16 -->
<g id="node16" class="node"><title>&#45;16</title>
<polygon fill="lightgray" stroke="black" points="471,-162.125 442,-162.125 442,-144.125 471,-144.125 471,-162.125"/>
<text text-anchor="middle" x="456.5" y="-150.925" font-family="Times,serif" font-size="9.00">&#45;16</text>
</g>
<!-- &#45;16&#45;&gt;1 -->
<g id="edge32" class="edge"><title>&#45;16&#45;&gt;1</title>
<path fill="none" stroke="green" stroke-width="0.129093" d="M441.782,-151.554C374.84,-148.812 101.295,-135.956 76.5,-108.125 63.9569,-94.0456 64.9169,-80.5776 76.5,-65.6985 97.5605,-38.6451 200.196,-23.9368 248.4,-18.4223"/>
<polygon fill="green" stroke="green" stroke-width="0.129093" points="249.052,-21.8718 258.609,-17.2995 248.286,-14.9137 249.052,-21.8718"/>
</g>
<!-- &#45;16&#45;&gt;3 -->
<g id="edge6" class="edge"><title>&#45;16&#45;&gt;3</title>
<path fill="none" stroke="green" stroke-width="0.175671" d="M471.005,-147.214C488.22,-140.724 516.813,-127.766 534.5,-108.125 552.31,-88.3475 563.093,-59.4072 568.902,-39.2275"/>
<polygon fill="green" stroke="green" stroke-width="0.175671" points="572.282,-40.134 571.497,-29.5683 565.522,-38.3175 572.282,-40.134"/>
</g>
<!-- 701 -->
<g id="node30" class="node"><title>701</title>
<ellipse fill="white" stroke="black" cx="456.5" cy="-86.9117" rx="21.4286" ry="21.4286"/>
<text text-anchor="middle" x="456.5" y="-84.7117" font-family="Times,serif" font-size="9.00">701</text>
</g>
<!-- &#45;16&#45;&gt;701 -->
<g id="edge18" class="edge"><title>&#45;16&#45;&gt;701</title>
<path fill="none" stroke="green" stroke-width="0.3" d="M456.5,-143.992C456.5,-137.449 456.5,-127.82 456.5,-118.381"/>
<polygon fill="green" stroke="green" stroke-width="0.3" points="460,-118.367 456.5,-108.367 453,-118.367 460,-118.367"/>
</g>
<!-- &#45;17 -->
<g id="node17" class="node"><title>&#45;17</title>
<polygon fill="lightgray" stroke="black" points="1078,-95.9117 1049,-95.9117 1049,-77.9117 1078,-77.9117 1078,-95.9117"/>
<text text-anchor="middle" x="1063.5" y="-84.7117" font-family="Times,serif" font-size="9.00">&#45;17</text>
</g>
<!-- &#45;17&#45;&gt;0 -->
<g id="edge8" class="edge"><title>&#45;17&#45;&gt;0</title>
<path fill="none" stroke="green" stroke-width="0.154895" d="M1055.79,-77.6747C1051.4,-73.4705 1045.58,-68.6363 1039.5,-65.6985 964.643,-29.5435 864.744,-19.5915 818.695,-16.8672"/>
<polygon fill="green" stroke="green" stroke-width="0.154895" points="818.616,-13.3584 808.447,-16.3301 818.25,-20.3488 818.616,-13.3584"/>
</g>
<!-- &#45;17&#45;&gt;2 -->
<g id="edge28" class="edge"><title>&#45;17&#45;&gt;2</title>
<path fill="none" stroke="green" stroke-width="0.195656" d="M1058.34,-77.8746C1051.86,-67.7908 1040.52,-50.1351 1031.59,-36.233"/>
<polygon fill="green" stroke="green" stroke-width="0.195656" points="1034.5,-34.2792 1026.15,-27.7567 1028.61,-38.0622 1034.5,-34.2792"/>
</g>
<!-- &#45;18 -->
<g id="node18" class="node"><title>&#45;18</title>
<polygon fill="lightgray" stroke="black" points="988,-95.9117 959,-95.9117 959,-77.9117 988,-77.9117 988,-95.9117"/>
<text text-anchor="middle" x="973.5" y="-84.7117" font-family="Times,serif" font-size="9.00">&#45;18</text>
</g>
<!-- &#45;18&#45;&gt;0 -->
<g id="edge47" class="edge"><title>&#45;18&#45;&gt;0</title>
<path fill="none" stroke="red" stroke-width="0.349028" d="M965.221,-77.5348C960.853,-73.4979 955.222,-68.859 949.5,-65.6985 906.309,-41.8429 849.988,-27.4229 818.187,-20.6082"/>
<polygon fill="red" stroke="red" stroke-width="0.349028" points="818.523,-17.104 808.022,-18.512 817.109,-23.9598 818.523,-17.104"/>
</g>
<!-- &#45;19 -->
<g id="node19" class="node"><title>&#45;19</title>
<polygon fill="lightgray" stroke="black" points="525,-95.9117 496,-95.9117 496,-77.9117 525,-77.9117 525,-95.9117"/>
<text text-anchor="middle" x="510.5" y="-84.7117" font-family="Times,serif" font-size="9.00">&#45;19</text>
</g>
<!-- &#45;19&#45;&gt;3 -->
<g id="edge4" class="edge"><title>&#45;19&#45;&gt;3</title>
<path fill="none" stroke="green" stroke-width="0.136122" d="M517.842,-77.8746C527.503,-67.2982 544.773,-48.3922 557.715,-34.2241"/>
<polygon fill="green" stroke="green" stroke-width="0.136122" points="560.585,-36.2722 564.745,-26.5283 555.416,-31.5511 560.585,-36.2722"/>
</g>
<!-- &#45;20 -->
<g id="node20" class="node"><title>&#45;20</title>
<polygon fill="lightgray" stroke="black" points="1164,-95.9117 1135,-95.9117 1135,-77.9117 1164,-77.9117 1164,-95.9117"/>
<text text-anchor="middle" x="1149.5" y="-84.7117" font-family="Times,serif" font-size="9.00">&#45;20</text>
</g>
<!-- &#45;20&#45;&gt;2 -->
<g id="edge1" class="edge"><title>&#45;20&#45;&gt;2</title>
<path fill="none" stroke="red" stroke-width="0.184146" d="M1138.75,-77.8236C1133.39,-73.9511 1126.74,-69.3697 1120.5,-65.6985 1094.22,-50.242 1062.46,-35.2639 1041.43,-25.8294"/>
<polygon fill="red" stroke="red" stroke-width="0.184146" points="1042.61,-22.5209 1032.05,-21.6655 1039.77,-28.9197 1042.61,-22.5209"/>
</g>
<!-- &#45;21 -->
<g id="node21" class="node"><title>&#45;21</title>
<polygon fill="lightgray" stroke="black" points="205,-95.9117 176,-95.9117 176,-77.9117 205,-77.9117 205,-95.9117"/>
<text text-anchor="middle" x="190.5" y="-84.7117" font-family="Times,serif" font-size="9.00">&#45;21</text>
</g>
<!-- &#45;21&#45;&gt;1 -->
<g id="edge10" class="edge"><title>&#45;21&#45;&gt;1</title>
<path fill="none" stroke="red" stroke-width="0.134246" d="M200.021,-77.8746C213.341,-66.631 237.813,-45.9737 254.838,-31.6025"/>
<polygon fill="red" stroke="red" stroke-width="0.134246" points="257.132,-34.2463 262.516,-25.1214 252.617,-28.8972 257.132,-34.2463"/>
</g>
<!-- &#45;22 -->
<g id="node22" class="node"><title>&#45;22</title>
<polygon fill="lightgray" stroke="black" points="29,-95.9117 0,-95.9117 0,-77.9117 29,-77.9117 29,-95.9117"/>
<text text-anchor="middle" x="14.5" y="-84.7117" font-family="Times,serif" font-size="9.00">&#45;22</text>
</g>
<!-- &#45;22&#45;&gt;1 -->
<g id="edge20" class="edge"><title>&#45;22&#45;&gt;1</title>
<path fill="none" stroke="red" stroke-width="0.143599" d="M24.1154,-77.7569C29.5021,-73.5768 36.524,-68.7394 43.5,-65.6985 113.96,-34.9844 205.068,-22.4919 248.427,-18.0265"/>
<polygon fill="red" stroke="red" stroke-width="0.143599" points="249.005,-21.4869 258.62,-17.0362 248.328,-14.5197 249.005,-21.4869"/>
</g>
<!-- &#45;23 -->
<g id="node23" class="node"><title>&#45;23</title>
<polygon fill="lightgray" stroke="black" points="761,-95.9117 732,-95.9117 732,-77.9117 761,-77.9117 761,-95.9117"/>
<text text-anchor="middle" x="746.5" y="-84.7117" font-family="Times,serif" font-size="9.00">&#45;23</text>
</g>
<!-- &#45;23&#45;&gt;0 -->
<g id="edge2" class="edge"><title>&#45;23&#45;&gt;0</title>
<path fill="none" stroke="red" stroke-width="0.380772" d="M751.891,-77.8746C758.696,-67.7318 770.639,-49.9283 779.989,-35.9895"/>
<polygon fill="red" stroke="red" stroke-width="0.380772" points="783.015,-37.7615 785.68,-27.5071 777.202,-33.8618 783.015,-37.7615"/>
</g>
<!-- &#45;23&#45;&gt;1 -->
<g id="edge41" class="edge"><title>&#45;23&#45;&gt;1</title>
<path fill="none" stroke="green" stroke-width="0.504807" d="M739.306,-77.8669C734.908,-73.5009 728.908,-68.4476 722.5,-65.6985 645.07,-32.4799 381.344,-19.9075 298.568,-16.7242"/>
<polygon fill="green" stroke="green" stroke-width="0.504807" points="298.67,-13.2256 288.546,-16.3512 298.409,-20.2208 298.67,-13.2256"/>
</g>
<!-- &#45;23&#45;&gt;2 -->
<g id="edge29" class="edge"><title>&#45;23&#45;&gt;2</title>
<path fill="none" stroke="red" stroke-width="0.141465" d="M754.209,-77.6709C758.594,-73.4656 764.415,-68.6316 770.5,-65.6985 846.13,-29.2435 947.105,-19.4363 993.395,-16.807"/>
<polygon fill="red" stroke="red" stroke-width="0.141465" points="993.62,-20.3002 1003.43,-16.303 993.269,-13.309 993.62,-20.3002"/>
</g>
<!-- &#45;23&#45;&gt;3 -->
<g id="edge17" class="edge"><title>&#45;23&#45;&gt;3</title>
<path fill="none" stroke="green" stroke-width="0.249222" d="M738.2,-77.5725C733.827,-73.5452 728.197,-68.9035 722.5,-65.6985 682.092,-42.9673 629.632,-28.3617 599.249,-21.1687"/>
<polygon fill="green" stroke="green" stroke-width="0.249222" points="599.647,-17.6693 589.118,-18.8527 598.087,-24.4932 599.647,-17.6693"/>
</g>
<!-- &#45;24 -->
<g id="node24" class="node"><title>&#45;24</title>
<polygon fill="lightgray" stroke="black" points="115,-95.9117 86,-95.9117 86,-77.9117 115,-77.9117 115,-95.9117"/>
<text text-anchor="middle" x="100.5" y="-84.7117" font-family="Times,serif" font-size="9.00">&#45;24</text>
</g>
<!-- &#45;24&#45;&gt;1 -->
<g id="edge5" class="edge"><title>&#45;24&#45;&gt;1</title>
<path fill="none" stroke="red" stroke-width="0.225351" d="M108.797,-77.5676C113.17,-73.5391 118.799,-68.8977 124.5,-65.6985 165.355,-42.7705 218.456,-28.1698 248.983,-21.0429"/>
<polygon fill="red" stroke="red" stroke-width="0.225351" points="249.798,-24.4472 258.782,-18.8323 248.257,-17.6188 249.798,-24.4472"/>
</g>
<!-- 0&#45;&gt;0 -->
<g id="edge26" class="edge"><title>0&#45;&gt;0</title>
<path fill="none" stroke="red" stroke-width="0.359661" d="M804.267,-25.5774C814.789,-31.5034 826.349,-27.9274 826.349,-14.8492 826.349,-5.85803 820.885,-1.35804 814.051,-1.34926"/>
<polygon fill="red" stroke="red" stroke-width="0.359661" points="812.934,1.97218 804.267,-4.12109 814.842,-4.76277 812.934,1.97218"/>
</g>
<!-- 1&#45;&gt;1 -->
<g id="edge23" class="edge"><title>1&#45;&gt;1</title>
<path fill="none" stroke="red" stroke-width="0.207955" d="M284.267,-25.5774C294.789,-31.5034 306.349,-27.9274 306.349,-14.8492 306.349,-5.85803 300.885,-1.35804 294.051,-1.34926"/>
<polygon fill="red" stroke="red" stroke-width="0.207955" points="292.934,1.97218 284.267,-4.12109 294.842,-4.76277 292.934,1.97218"/>
</g>
<!-- 3&#45;&gt;3 -->
<g id="edge16" class="edge"><title>3&#45;&gt;3</title>
<path fill="none" stroke="green" stroke-width="0.204432" d="M585.267,-25.5774C595.789,-31.5034 607.349,-27.9274 607.349,-14.8492 607.349,-5.85803 601.885,-1.35804 595.051,-1.34926"/>
<polygon fill="green" stroke="green" stroke-width="0.204432" points="593.934,1.97218 585.267,-4.12109 595.842,-4.76277 593.934,1.97218"/>
</g>
<!-- 425&#45;&gt;3 -->
<g id="edge43" class="edge"><title>425&#45;&gt;3</title>
<path fill="none" stroke="red" stroke-width="0.175501" d="M635.12,-71.7335C622.764,-60.3427 605.391,-44.327 592.409,-32.3593"/>
<polygon fill="red" stroke="red" stroke-width="0.175501" points="594.703,-29.7131 584.978,-25.5084 589.958,-34.8598 594.703,-29.7131"/>
</g>
<!-- 701&#45;&gt;3 -->
<g id="edge7" class="edge"><title>701&#45;&gt;3</title>
<path fill="none" stroke="green" stroke-width="0.380287" d="M473.767,-74.4022C478.21,-71.51 483.006,-68.448 487.5,-65.6985 509.426,-52.284 535.002,-37.7603 552.723,-27.8696"/>
<polygon fill="green" stroke="green" stroke-width="0.380287" points="554.646,-30.8049 561.687,-22.8878 551.246,-24.6863 554.646,-30.8049"/>
</g>
</g>
</svg>
