<?xml version="1.0" encoding="UTF-8" standalone="no"?>
<!DOCTYPE svg PUBLIC "-//W3C//DTD SVG 1.1//EN"
 "http://www.w3.org/Graphics/SVG/1.1/DTD/svg11.dtd">
<!-- Generated by graphviz version 2.38.0 (20140413.2041)
 -->
<!-- Title: %3 Pages: 1 -->
<svg width="1172pt" height="236pt"
 viewBox="0.00 0.00 1171.51 235.82" xmlns="http://www.w3.org/2000/svg" xmlns:xlink="http://www.w3.org/1999/xlink">
<g id="graph0" class="graph" transform="scale(1 1) rotate(0) translate(4 231.823)">
<title>%3</title>
<polygon fill="white" stroke="none" points="-4,4 -4,-231.823 1167.51,-231.823 1167.51,4 -4,4"/>
<!-- &#45;1 -->
<g id="node1" class="node"><title>&#45;1</title>
<polygon fill="lightgray" stroke="black" points="84.0072,-227.823 60.0072,-227.823 60.0072,-209.823 84.0072,-209.823 84.0072,-227.823"/>
<text text-anchor="middle" x="72.0072" y="-216.623" font-family="Times,serif" font-size="9.00">&#45;1</text>
</g>
<!-- 1 -->
<g id="node26" class="node"><title>1</title>
<ellipse fill="lightblue" stroke="black" cx="433.007" cy="-158.974" rx="14.7" ry="14.7"/>
<text text-anchor="middle" x="433.007" y="-156.774" font-family="Times,serif" font-size="9.00">1</text>
</g>
<!-- &#45;1&#45;&gt;1 -->
<g id="edge16" class="edge"><title>&#45;1&#45;&gt;1</title>
<path fill="none" stroke="red" stroke-width="0.245758" d="M84.2569,-216.871C137.226,-212.652 346.696,-194.93 409.007,-173.823 409.884,-173.526 410.765,-173.196 411.644,-172.838"/>
<polygon fill="red" stroke="red" stroke-width="0.245758" points="413.369,-175.889 420.746,-168.284 410.236,-169.629 413.369,-175.889"/>
</g>
<!-- 3 -->
<g id="node28" class="node"><title>3</title>
<ellipse fill="lightblue" stroke="black" cx="213.007" cy="-14.8492" rx="14.7" ry="14.7"/>
<text text-anchor="middle" x="213.007" y="-12.6492" font-family="Times,serif" font-size="9.00">3</text>
</g>
<!-- &#45;1&#45;&gt;3 -->
<g id="edge47" class="edge"><title>&#45;1&#45;&gt;3</title>
<path fill="none" stroke="green" stroke-width="0.169318" d="M59.6168,-210.913C47.636,-203.475 30.1373,-190.442 22.0072,-173.823 0.87525,-130.627 -11.4864,-103.68 18.0072,-65.6985 38.8341,-38.8777 140.438,-24.0488 188.158,-18.4628"/>
<polygon fill="green" stroke="green" stroke-width="0.169318" points="188.72,-21.9217 198.265,-17.3243 187.936,-14.9657 188.72,-21.9217"/>
</g>
<!-- &#45;2 -->
<g id="node2" class="node"><title>&#45;2</title>
<polygon fill="lightgray" stroke="black" points="445.007,-227.823 421.007,-227.823 421.007,-209.823 445.007,-209.823 445.007,-227.823"/>
<text text-anchor="middle" x="433.007" y="-216.623" font-family="Times,serif" font-size="9.00">&#45;2</text>
</g>
<!-- 0 -->
<g id="node25" class="node"><title>0</title>
<ellipse fill="lightblue" stroke="black" cx="385.007" cy="-158.974" rx="14.7" ry="14.7"/>
<text text-anchor="middle" x="385.007" y="-156.774" font-family="Times,serif" font-size="9.00">0</text>
</g>
<!-- &#45;2&#45;&gt;0 -->
<g id="edge15" class="edge"><title>&#45;2&#45;&gt;0</title>
<path fill="none" stroke="red" stroke-width="0.252777" d="M426.333,-209.78C419.747,-201.843 409.435,-189.414 400.759,-178.958"/>
<polygon fill="red" stroke="red" stroke-width="0.252777" points="403.334,-176.58 394.255,-171.119 397.947,-181.05 403.334,-176.58"/>
</g>
<!-- &#45;2&#45;&gt;1 -->
<g id="edge6" class="edge"><title>&#45;2&#45;&gt;1</title>
<path fill="none" stroke="red" stroke-width="0.165488" d="M433.007,-209.78C433.007,-203.175 433.007,-193.459 433.007,-184.359"/>
<polygon fill="red" stroke="red" stroke-width="0.165488" points="436.507,-184.181 433.007,-174.181 429.507,-184.181 436.507,-184.181"/>
</g>
<!-- &#45;3 -->
<g id="node3" class="node"><title>&#45;3</title>
<polygon fill="lightgray" stroke="black" points="487.007,-227.823 463.007,-227.823 463.007,-209.823 487.007,-209.823 487.007,-227.823"/>
<text text-anchor="middle" x="475.007" y="-216.623" font-family="Times,serif" font-size="9.00">&#45;3</text>
</g>
<!-- &#45;3&#45;&gt;1 -->
<g id="edge40" class="edge"><title>&#45;3&#45;&gt;1</title>
<path fill="none" stroke="green" stroke-width="0.335954" d="M469.167,-209.78C463.532,-202.018 454.779,-189.962 447.296,-179.655"/>
<polygon fill="green" stroke="green" stroke-width="0.335954" points="450.113,-177.578 441.406,-171.542 444.448,-181.69 450.113,-177.578"/>
</g>
<!-- &#45;4 -->
<g id="node4" class="node"><title>&#45;4</title>
<polygon fill="lightgray" stroke="black" points="546.007,-167.974 522.007,-167.974 522.007,-149.974 546.007,-149.974 546.007,-167.974"/>
<text text-anchor="middle" x="534.007" y="-156.774" font-family="Times,serif" font-size="9.00">&#45;4</text>
</g>
<!-- 209 -->
<g id="node29" class="node"><title>209</title>
<ellipse fill="white" stroke="black" cx="442.007" cy="-86.9117" rx="21.4286" ry="21.4286"/>
<text text-anchor="middle" x="442.007" y="-84.7117" font-family="Times,serif" font-size="9.00">209</text>
</g>
<!-- &#45;4&#45;&gt;209 -->
<g id="edge2" class="edge"><title>&#45;4&#45;&gt;209</title>
<path fill="none" stroke="green" stroke-width="0.305276" d="M523.454,-149.937C509.701,-139.464 485.224,-120.823 466.683,-106.703"/>
<polygon fill="green" stroke="green" stroke-width="0.305276" points="468.717,-103.853 458.641,-100.579 464.476,-109.422 468.717,-103.853"/>
</g>
<!-- &#45;5 -->
<g id="node5" class="node"><title>&#45;5</title>
<polygon fill="lightgray" stroke="black" points="577.007,-227.823 553.007,-227.823 553.007,-209.823 577.007,-209.823 577.007,-227.823"/>
<text text-anchor="middle" x="565.007" y="-216.623" font-family="Times,serif" font-size="9.00">&#45;5</text>
</g>
<!-- &#45;5&#45;&gt;0 -->
<g id="edge31" class="edge"><title>&#45;5&#45;&gt;0</title>
<path fill="none" stroke="red" stroke-width="0.637504" d="M552.968,-213.233C549.751,-212.065 546.263,-210.851 543.007,-209.823 484.197,-191.269 465.975,-197.435 409.007,-173.823 408.152,-173.469 407.289,-173.089 406.426,-172.69"/>
<polygon fill="red" stroke="red" stroke-width="0.637504" points="407.877,-169.499 397.396,-167.945 404.62,-175.695 407.877,-169.499"/>
</g>
<!-- &#45;5&#45;&gt;1 -->
<g id="edge17" class="edge"><title>&#45;5&#45;&gt;1</title>
<path fill="none" stroke="green" stroke-width="0.546533" d="M552.826,-212.485C530.77,-202.819 483.906,-182.281 455.768,-169.949"/>
<polygon fill="green" stroke="green" stroke-width="0.546533" points="456.893,-166.621 446.329,-165.813 454.083,-173.032 456.893,-166.621"/>
</g>
<!-- 2 -->
<g id="node27" class="node"><title>2</title>
<ellipse fill="lightblue" stroke="black" cx="897.007" cy="-14.8492" rx="14.7" ry="14.7"/>
<text text-anchor="middle" x="897.007" y="-12.6492" font-family="Times,serif" font-size="9.00">2</text>
</g>
<!-- &#45;5&#45;&gt;2 -->
<g id="edge57" class="edge"><title>&#45;5&#45;&gt;2</title>
<path fill="none" stroke="red" stroke-width="0.292217" d="M577.083,-215.999C614.798,-210.17 729.851,-191.347 763.007,-173.823 822.297,-142.488 866.309,-72.9874 885.843,-37.5453"/>
<polygon fill="red" stroke="red" stroke-width="0.292217" points="889.047,-38.9776 890.696,-28.5119 882.88,-35.6649 889.047,-38.9776"/>
</g>
<!-- &#45;5&#45;&gt;3 -->
<g id="edge45" class="edge"><title>&#45;5&#45;&gt;3</title>
<path fill="none" stroke="red" stroke-width="0.235728" d="M555.302,-209.653C532.998,-190.908 479.642,-146.251 475.007,-144.125 390.923,-105.563 346.582,-160.024 270.007,-108.125 245.382,-91.4351 229.443,-60.2032 220.847,-38.7334"/>
<polygon fill="red" stroke="red" stroke-width="0.235728" points="224.116,-37.4834 217.31,-29.3638 217.567,-39.9555 224.116,-37.4834"/>
</g>
<!-- &#45;5&#45;&gt;209 -->
<g id="edge24" class="edge"><title>&#45;5&#45;&gt;209</title>
<path fill="none" stroke="red" stroke-width="0.631626" d="M566.206,-209.629C567.886,-195.002 569.302,-164.063 555.007,-144.125 535.508,-116.928 499.056,-102.175 472.819,-94.6972"/>
<polygon fill="red" stroke="red" stroke-width="0.631626" points="473.537,-91.2668 462.974,-92.092 471.746,-98.0339 473.537,-91.2668"/>
</g>
<!-- &#45;6 -->
<g id="node6" class="node"><title>&#45;6</title>
<polygon fill="lightgray" stroke="black" points="925.007,-227.823 901.007,-227.823 901.007,-209.823 925.007,-209.823 925.007,-227.823"/>
<text text-anchor="middle" x="913.007" y="-216.623" font-family="Times,serif" font-size="9.00">&#45;6</text>
</g>
<!-- &#45;6&#45;&gt;1 -->
<g id="edge19" class="edge"><title>&#45;6&#45;&gt;1</title>
<path fill="none" stroke="red" stroke-width="0.478328" d="M900.864,-216.764C852.065,-212.449 665.538,-195.394 513.007,-173.823 494.297,-171.177 473.243,-167.505 457.432,-164.606"/>
<polygon fill="red" stroke="red" stroke-width="0.478328" points="457.888,-161.131 447.417,-162.745 456.609,-168.013 457.888,-161.131"/>
</g>
<!-- &#45;6&#45;&gt;2 -->
<g id="edge51" class="edge"><title>&#45;6&#45;&gt;2</title>
<path fill="none" stroke="green" stroke-width="0.278282" d="M922.826,-209.565C931.595,-201.491 943.831,-188.324 949.007,-173.823 965.163,-128.565 967.865,-109.899 949.007,-65.6985 942.672,-50.849 929.503,-38.2997 918.003,-29.5068"/>
<polygon fill="green" stroke="green" stroke-width="0.278282" points="919.843,-26.5192 909.676,-23.5392 915.765,-32.2091 919.843,-26.5192"/>
</g>
<!-- &#45;7 -->
<g id="node7" class="node"><title>&#45;7</title>
<polygon fill="lightgray" stroke="black" points="355.007,-227.823 331.007,-227.823 331.007,-209.823 355.007,-209.823 355.007,-227.823"/>
<text text-anchor="middle" x="343.007" y="-216.623" font-family="Times,serif" font-size="9.00">&#45;7</text>
</g>
<!-- &#45;7&#45;&gt;0 -->
<g id="edge8" class="edge"><title>&#45;7&#45;&gt;0</title>
<path fill="none" stroke="green" stroke-width="0.227256" d="M348.847,-209.78C354.482,-202.018 363.235,-189.962 370.718,-179.655"/>
<polygon fill="green" stroke="green" stroke-width="0.227256" points="373.566,-181.69 376.609,-171.542 367.901,-177.578 373.566,-181.69"/>
</g>
<!-- &#45;7&#45;&gt;209 -->
<g id="edge3" class="edge"><title>&#45;7&#45;&gt;209</title>
<path fill="none" stroke="green" stroke-width="0.295405" d="M343.154,-209.767C343.787,-195.357 346.839,-164.753 361.007,-144.125 374.09,-125.077 395.9,-110.486 413.594,-100.949"/>
<polygon fill="green" stroke="green" stroke-width="0.295405" points="415.614,-103.847 422.92,-96.1739 412.423,-97.6162 415.614,-103.847"/>
</g>
<!-- &#45;8 -->
<g id="node8" class="node"><title>&#45;8</title>
<polygon fill="lightgray" stroke="black" points="1036.01,-227.823 1012.01,-227.823 1012.01,-209.823 1036.01,-209.823 1036.01,-227.823"/>
<text text-anchor="middle" x="1024.01" y="-216.623" font-family="Times,serif" font-size="9.00">&#45;8</text>
</g>
<!-- &#45;8&#45;&gt;1 -->
<g id="edge11" class="edge"><title>&#45;8&#45;&gt;1</title>
<path fill="none" stroke="red" stroke-width="0.501798" d="M1011.78,-216.723C994.469,-215.169 961.824,-212.249 934.007,-209.823 746.923,-193.51 699.256,-197.862 513.007,-173.823 494.266,-171.404 473.214,-167.721 457.412,-164.761"/>
<polygon fill="red" stroke="red" stroke-width="0.501798" points="457.881,-161.287 447.403,-162.851 456.57,-168.163 457.881,-161.287"/>
</g>
<!-- &#45;8&#45;&gt;2 -->
<g id="edge25" class="edge"><title>&#45;8&#45;&gt;2</title>
<path fill="none" stroke="red" stroke-width="0.234586" d="M1028.32,-209.609C1040.55,-185.102 1072.46,-111.378 1040.01,-65.6985 1013.19,-27.9555 955.607,-18.5501 922.269,-16.3558"/>
<polygon fill="red" stroke="red" stroke-width="0.234586" points="922.13,-12.8451 911.973,-15.8576 921.792,-19.8369 922.13,-12.8451"/>
</g>
<!-- &#45;9 -->
<g id="node9" class="node"><title>&#45;9</title>
<polygon fill="lightgray" stroke="black" points="218.007,-227.823 194.007,-227.823 194.007,-209.823 218.007,-209.823 218.007,-227.823"/>
<text text-anchor="middle" x="206.007" y="-216.623" font-family="Times,serif" font-size="9.00">&#45;9</text>
</g>
<!-- &#45;9&#45;&gt;0 -->
<g id="edge42" class="edge"><title>&#45;9&#45;&gt;0</title>
<path fill="none" stroke="red" stroke-width="0.319831" d="M218.4,-212.965C221.218,-211.899 224.207,-210.798 227.007,-209.823 274.151,-193.422 329.985,-176.35 361.062,-167.053"/>
<polygon fill="red" stroke="red" stroke-width="0.319831" points="362.383,-170.312 370.968,-164.103 360.385,-163.603 362.383,-170.312"/>
</g>
<!-- &#45;9&#45;&gt;1 -->
<g id="edge27" class="edge"><title>&#45;9&#45;&gt;1</title>
<path fill="none" stroke="green" stroke-width="0.319486" d="M218.327,-212.734C221.149,-211.679 224.157,-210.642 227.007,-209.823 306.261,-187.065 331.817,-202.819 409.007,-173.823 409.874,-173.498 410.746,-173.143 411.618,-172.765"/>
<polygon fill="green" stroke="green" stroke-width="0.319486" points="413.384,-175.793 420.685,-168.116 410.19,-169.564 413.384,-175.793"/>
</g>
<!-- &#45;9&#45;&gt;3 -->
<g id="edge44" class="edge"><title>&#45;9&#45;&gt;3</title>
<path fill="none" stroke="red" stroke-width="0.527934" d="M193.849,-216.451C159.135,-212.258 60.8463,-198.383 42.0072,-173.823 12.759,-135.694 13.1712,-104.141 42.0072,-65.6985 59.6692,-42.1526 145.622,-26.0599 188.534,-19.3559"/>
<polygon fill="red" stroke="red" stroke-width="0.527934" points="189.085,-22.8124 198.449,-17.855 188.037,-15.8913 189.085,-22.8124"/>
</g>
<!-- &#45;9&#45;&gt;209 -->
<g id="edge35" class="edge"><title>&#45;9&#45;&gt;209</title>
<path fill="none" stroke="red" stroke-width="0.522091" d="M214.626,-209.716C230.701,-194.951 266.822,-163.427 302.007,-144.125 343.055,-121.607 357.947,-126.504 401.007,-108.125 405.311,-106.288 409.808,-104.225 414.18,-102.137"/>
<polygon fill="red" stroke="red" stroke-width="0.522091" points="415.989,-105.148 423.43,-97.6056 412.91,-98.862 415.989,-105.148"/>
</g>
<!-- &#45;10 -->
<g id="node10" class="node"><title>&#45;10</title>
<polygon fill="lightgray" stroke="black" points="1083.51,-227.823 1054.51,-227.823 1054.51,-209.823 1083.51,-209.823 1083.51,-227.823"/>
<text text-anchor="middle" x="1069.01" y="-216.623" font-family="Times,serif" font-size="9.00">&#45;10</text>
</g>
<!-- &#45;11 -->
<g id="node11" class="node"><title>&#45;11</title>
<polygon fill="lightgray" stroke="black" points="1030.51,-95.9117 1001.51,-95.9117 1001.51,-77.9117 1030.51,-77.9117 1030.51,-95.9117"/>
<text text-anchor="middle" x="1016.01" y="-84.7117" font-family="Times,serif" font-size="9.00">&#45;11</text>
</g>
<!-- &#45;11&#45;&gt;2 -->
<g id="edge50" class="edge"><title>&#45;11&#45;&gt;2</title>
<path fill="none" stroke="green" stroke-width="0.338007" d="M1004.9,-77.766C999.57,-73.9667 993.049,-69.4635 987.007,-65.6985 964.391,-51.6056 937.57,-37.0088 919.125,-27.2817"/>
<polygon fill="green" stroke="green" stroke-width="0.338007" points="920.548,-24.076 910.065,-22.5401 917.302,-30.278 920.548,-24.076"/>
</g>
<!-- &#45;12 -->
<g id="node12" class="node"><title>&#45;12</title>
<polygon fill="lightgray" stroke="black" points="754.507,-167.974 725.507,-167.974 725.507,-149.974 754.507,-149.974 754.507,-167.974"/>
<text text-anchor="middle" x="740.007" y="-156.774" font-family="Times,serif" font-size="9.00">&#45;12</text>
</g>
<!-- &#45;12&#45;&gt;2 -->
<g id="edge37" class="edge"><title>&#45;12&#45;&gt;2</title>
<path fill="none" stroke="green" stroke-width="0.339543" d="M748.898,-149.926C773.775,-127.406 844.48,-63.4 878.403,-32.6907"/>
<polygon fill="green" stroke="green" stroke-width="0.339543" points="881.12,-34.952 886.185,-25.6461 876.423,-29.7625 881.12,-34.952"/>
</g>
<!-- &#45;12&#45;&gt;209 -->
<g id="edge29" class="edge"><title>&#45;12&#45;&gt;209</title>
<path fill="none" stroke="red" stroke-width="0.144659" d="M727.679,-149.851C724.038,-147.734 719.965,-145.628 716.007,-144.125 631.664,-112.102 525.432,-96.9526 473.503,-91.0513"/>
<polygon fill="red" stroke="red" stroke-width="0.144659" points="473.595,-87.5406 463.273,-89.9297 472.832,-94.4989 473.595,-87.5406"/>
</g>
<!-- &#45;13 -->
<g id="node13" class="node"><title>&#45;13</title>
<polygon fill="lightgray" stroke="black" points="237.507,-167.974 208.507,-167.974 208.507,-149.974 237.507,-149.974 237.507,-167.974"/>
<text text-anchor="middle" x="223.007" y="-156.774" font-family="Times,serif" font-size="9.00">&#45;13</text>
</g>
<!-- &#45;13&#45;&gt;2 -->
<g id="edge23" class="edge"><title>&#45;13&#45;&gt;2</title>
<path fill="none" stroke="green" stroke-width="0.245333" d="M237.745,-151.156C242.863,-148.851 248.659,-146.309 254.007,-144.125 296.578,-126.737 310.252,-129.422 351.007,-108.125 380.276,-92.83 381.043,-77.1793 412.007,-65.6985 497.821,-33.8804 784.737,-20.2468 871.767,-16.7802"/>
<polygon fill="green" stroke="green" stroke-width="0.245333" points="871.948,-20.2758 881.805,-16.3905 871.677,-13.2811 871.948,-20.2758"/>
</g>
<!-- &#45;13&#45;&gt;3 -->
<g id="edge10" class="edge"><title>&#45;13&#45;&gt;3</title>
<path fill="none" stroke="green" stroke-width="0.441132" d="M222.441,-149.926C220.971,-129.034 216.989,-72.4358 214.695,-39.8431"/>
<polygon fill="green" stroke="green" stroke-width="0.441132" points="218.182,-39.5261 213.989,-29.7965 211.199,-40.0175 218.182,-39.5261"/>
</g>
<!-- &#45;13&#45;&gt;209 -->
<g id="edge49" class="edge"><title>&#45;13&#45;&gt;209</title>
<path fill="none" stroke="green" stroke-width="0.546546" d="M237.508,-150.321C242.065,-148.115 247.17,-145.843 252.007,-144.125 316.205,-121.322 336.953,-131.329 401.007,-108.125 405.407,-106.531 409.956,-104.599 414.351,-102.569"/>
<polygon fill="green" stroke="green" stroke-width="0.546546" points="416.15,-105.586 423.61,-98.0621 413.086,-99.2917 416.15,-105.586"/>
</g>
<!-- &#45;14 -->
<g id="node14" class="node"><title>&#45;14</title>
<polygon fill="lightgray" stroke="black" points="1116.51,-95.9117 1087.51,-95.9117 1087.51,-77.9117 1116.51,-77.9117 1116.51,-95.9117"/>
<text text-anchor="middle" x="1102.01" y="-84.7117" font-family="Times,serif" font-size="9.00">&#45;14</text>
</g>
<!-- &#45;14&#45;&gt;2 -->
<g id="edge20" class="edge"><title>&#45;14&#45;&gt;2</title>
<path fill="none" stroke="red" stroke-width="0.745198" d="M1092.05,-77.7294C1086.68,-73.6444 1079.77,-68.9035 1073.01,-65.6985 1021.99,-41.5326 956.961,-26.8918 921.98,-20.2"/>
<polygon fill="red" stroke="red" stroke-width="0.745198" points="922.204,-16.682 911.734,-18.3046 920.93,-23.5653 922.204,-16.682"/>
</g>
<!-- &#45;15 -->
<g id="node15" class="node"><title>&#45;15</title>
<polygon fill="lightgray" stroke="black" points="308.507,-95.9117 279.507,-95.9117 279.507,-77.9117 308.507,-77.9117 308.507,-95.9117"/>
<text text-anchor="middle" x="294.007" y="-84.7117" font-family="Times,serif" font-size="9.00">&#45;15</text>
</g>
<!-- &#45;15&#45;&gt;3 -->
<g id="edge53" class="edge"><title>&#45;15&#45;&gt;3</title>
<path fill="none" stroke="red" stroke-width="0.535897" d="M284.715,-77.8746C271.906,-66.7944 248.526,-46.5723 231.949,-32.2332"/>
<polygon fill="red" stroke="red" stroke-width="0.535897" points="233.845,-29.2454 223.992,-25.3506 229.265,-34.5397 233.845,-29.2454"/>
</g>
<!-- &#45;16 -->
<g id="node16" class="node"><title>&#45;16</title>
<polygon fill="lightgray" stroke="black" points="534.507,-227.823 505.507,-227.823 505.507,-209.823 534.507,-209.823 534.507,-227.823"/>
<text text-anchor="middle" x="520.007" y="-216.623" font-family="Times,serif" font-size="9.00">&#45;16</text>
</g>
<!-- &#45;16&#45;&gt;1 -->
<g id="edge39" class="edge"><title>&#45;16&#45;&gt;1</title>
<path fill="none" stroke="red" stroke-width="0.646037" d="M507.91,-209.78C493.886,-200.454 470.537,-184.929 453.631,-173.687"/>
<polygon fill="red" stroke="red" stroke-width="0.646037" points="455.267,-170.572 445.001,-167.95 451.391,-176.401 455.267,-170.572"/>
</g>
<!-- &#45;17 -->
<g id="node17" class="node"><title>&#45;17</title>
<polygon fill="lightgray" stroke="black" points="312.507,-227.823 283.507,-227.823 283.507,-209.823 312.507,-209.823 312.507,-227.823"/>
<text text-anchor="middle" x="298.007" y="-216.623" font-family="Times,serif" font-size="9.00">&#45;17</text>
</g>
<!-- &#45;17&#45;&gt;0 -->
<g id="edge7" class="edge"><title>&#45;17&#45;&gt;0</title>
<path fill="none" stroke="red" stroke-width="0.27225" d="M310.104,-209.78C324.129,-200.454 347.478,-184.929 364.384,-173.687"/>
<polygon fill="red" stroke="red" stroke-width="0.27225" points="366.624,-176.401 373.013,-167.95 362.748,-170.572 366.624,-176.401"/>
</g>
<!-- &#45;17&#45;&gt;1 -->
<g id="edge13" class="edge"><title>&#45;17&#45;&gt;1</title>
<path fill="none" stroke="red" stroke-width="0.147099" d="M312.665,-212.787C334.185,-205.221 375.415,-190.066 409.007,-173.823 409.841,-173.42 410.685,-172.999 411.533,-172.566"/>
<polygon fill="red" stroke="red" stroke-width="0.147099" points="413.402,-175.533 420.489,-167.658 410.038,-169.394 413.402,-175.533"/>
</g>
<!-- &#45;17&#45;&gt;2 -->
<g id="edge34" class="edge"><title>&#45;17&#45;&gt;2</title>
<path fill="none" stroke="red" stroke-width="0.1482" d="M283.461,-212.368C257.154,-202.358 203.927,-181.393 199.007,-173.823 191.815,-162.756 191.153,-154.733 199.007,-144.125 231.635,-100.058 271.62,-138.888 317.007,-108.125 337.01,-94.5675 329.722,-77.1374 351.007,-65.6985 442.849,-16.3413 777.355,-14.9541 871.939,-15.5808"/>
<polygon fill="red" stroke="red" stroke-width="0.1482" points="871.988,-19.0812 882.016,-15.6618 872.045,-12.0814 871.988,-19.0812"/>
</g>
<!-- &#45;17&#45;&gt;3 -->
<g id="edge21" class="edge"><title>&#45;17&#45;&gt;3</title>
<path fill="none" stroke="green" stroke-width="0.356638" d="M283.357,-212.677C280.286,-211.672 277.054,-210.669 274.007,-209.823 203.358,-190.205 158.85,-231.048 113.007,-173.823 73.1978,-124.129 153.114,-57.8364 192.647,-29.5614"/>
<polygon fill="green" stroke="green" stroke-width="0.356638" points="194.665,-32.4211 200.854,-23.8221 190.654,-26.6845 194.665,-32.4211"/>
</g>
<!-- &#45;18 -->
<g id="node18" class="node"><title>&#45;18</title>
<polygon fill="lightgray" stroke="black" points="1163.51,-95.9117 1134.51,-95.9117 1134.51,-77.9117 1163.51,-77.9117 1163.51,-95.9117"/>
<text text-anchor="middle" x="1149.01" y="-84.7117" font-family="Times,serif" font-size="9.00">&#45;18</text>
</g>
<!-- &#45;18&#45;&gt;2 -->
<g id="edge28" class="edge"><title>&#45;18&#45;&gt;2</title>
<path fill="none" stroke="red" stroke-width="0.226065" d="M1141.66,-77.7017C1137.47,-73.5054 1131.89,-68.6701 1126.01,-65.6985 1057.52,-31.1077 965.664,-20.4286 922.037,-17.203"/>
<polygon fill="red" stroke="red" stroke-width="0.226065" points="921.998,-13.6927 911.787,-16.5192 921.532,-20.6772 921.998,-13.6927"/>
</g>
<!-- &#45;19 -->
<g id="node19" class="node"><title>&#45;19</title>
<polygon fill="lightgray" stroke="black" points="660.507,-227.823 631.507,-227.823 631.507,-209.823 660.507,-209.823 660.507,-227.823"/>
<text text-anchor="middle" x="646.007" y="-216.623" font-family="Times,serif" font-size="9.00">&#45;19</text>
</g>
<!-- &#45;19&#45;&gt;1 -->
<g id="edge32" class="edge"><title>&#45;19&#45;&gt;1</title>
<path fill="none" stroke="green" stroke-width="0.413434" d="M631.367,-213.847C595.169,-204.016 501.195,-178.493 456.844,-166.448"/>
<polygon fill="green" stroke="green" stroke-width="0.413434" points="457.757,-163.069 447.189,-163.826 455.922,-169.825 457.757,-163.069"/>
</g>
<!-- &#45;19&#45;&gt;2 -->
<g id="edge18" class="edge"><title>&#45;19&#45;&gt;2</title>
<path fill="none" stroke="green" stroke-width="0.172068" d="M660.563,-217.126C705.914,-214.644 843.398,-204.663 873.007,-173.823 907.68,-137.71 905.394,-74.0062 901.027,-39.5589"/>
<polygon fill="green" stroke="green" stroke-width="0.172068" points="904.465,-38.8763 899.58,-29.4747 897.536,-39.8705 904.465,-38.8763"/>
</g>
<!-- &#45;19&#45;&gt;3 -->
<g id="edge4" class="edge"><title>&#45;19&#45;&gt;3</title>
<path fill="none" stroke="green" stroke-width="0.228179" d="M660.647,-217.318C686.457,-215.541 739.537,-207.725 763.007,-173.823 770.52,-162.971 770.948,-154.668 763.007,-144.125 697.972,-57.7767 336.927,-25.0105 238.049,-17.5837"/>
<polygon fill="green" stroke="green" stroke-width="0.228179" points="238.045,-14.0742 227.817,-16.8364 237.535,-21.0556 238.045,-14.0742"/>
</g>
<!-- &#45;19&#45;&gt;209 -->
<g id="edge22" class="edge"><title>&#45;19&#45;&gt;209</title>
<path fill="none" stroke="red" stroke-width="0.181339" d="M639.831,-209.465C628.463,-194.577 602.83,-163.24 575.007,-144.125 542.62,-121.874 500.031,-105.797 471.875,-96.6746"/>
<polygon fill="red" stroke="red" stroke-width="0.181339" points="472.79,-93.2935 462.201,-93.6301 470.689,-99.9706 472.79,-93.2935"/>
</g>
<!-- &#45;20 -->
<g id="node20" class="node"><title>&#45;20</title>
<polygon fill="lightgray" stroke="black" points="151.507,-167.974 122.507,-167.974 122.507,-149.974 151.507,-149.974 151.507,-167.974"/>
<text text-anchor="middle" x="137.007" y="-156.774" font-family="Times,serif" font-size="9.00">&#45;20</text>
</g>
<!-- &#45;20&#45;&gt;3 -->
<g id="edge14" class="edge"><title>&#45;20&#45;&gt;3</title>
<path fill="none" stroke="green" stroke-width="0.637026" d="M141.311,-149.926C152.751,-128.533 184.211,-69.7009 201.408,-37.5407"/>
<polygon fill="green" stroke="green" stroke-width="0.637026" points="204.62,-38.9561 206.249,-28.4872 198.447,-35.6552 204.62,-38.9561"/>
</g>
<!-- &#45;20&#45;&gt;209 -->
<g id="edge56" class="edge"><title>&#45;20&#45;&gt;209</title>
<path fill="none" stroke="red" stroke-width="0.306306" d="M151.718,-154.595C198.834,-143.772 346.691,-109.807 411.292,-94.9673"/>
<polygon fill="red" stroke="red" stroke-width="0.306306" points="412.313,-98.3241 421.276,-92.674 410.746,-91.5017 412.313,-98.3241"/>
</g>
<!-- &#45;21 -->
<g id="node21" class="node"><title>&#45;21</title>
<polygon fill="lightgray" stroke="black" points="788.507,-227.823 759.507,-227.823 759.507,-209.823 788.507,-209.823 788.507,-227.823"/>
<text text-anchor="middle" x="774.007" y="-216.623" font-family="Times,serif" font-size="9.00">&#45;21</text>
</g>
<!-- &#45;21&#45;&gt;1 -->
<g id="edge9" class="edge"><title>&#45;21&#45;&gt;1</title>
<path fill="none" stroke="red" stroke-width="0.162996" d="M759.287,-215.365C719.548,-208.724 606.769,-189.842 513.007,-173.823 494.38,-170.641 473.323,-166.994 457.489,-164.241"/>
<polygon fill="red" stroke="red" stroke-width="0.162996" points="457.908,-160.761 447.456,-162.495 456.708,-167.658 457.908,-160.761"/>
</g>
<!-- &#45;21&#45;&gt;2 -->
<g id="edge48" class="edge"><title>&#45;21&#45;&gt;2</title>
<path fill="none" stroke="red" stroke-width="0.196677" d="M788.747,-218.224C817.84,-218.111 882.307,-213.185 911.007,-173.823 940.556,-133.298 920.966,-70.4618 907.206,-37.5832"/>
<polygon fill="red" stroke="red" stroke-width="0.196677" points="910.401,-36.1549 903.183,-28.3991 903.989,-38.9632 910.401,-36.1549"/>
</g>
<!-- &#45;21&#45;&gt;3 -->
<g id="edge38" class="edge"><title>&#45;21&#45;&gt;3</title>
<path fill="none" stroke="red" stroke-width="0.359736" d="M777.448,-209.498C782.784,-195.195 791.326,-165.44 780.007,-144.125 750.82,-89.1607 722.418,-87.1719 664.007,-65.6985 584.579,-36.4984 320.8,-21.1993 238.059,-17.0356"/>
<polygon fill="red" stroke="red" stroke-width="0.359736" points="238.202,-13.5385 228.042,-16.5419 237.858,-20.53 238.202,-13.5385"/>
</g>
<!-- &#45;21&#45;&gt;209 -->
<g id="edge1" class="edge"><title>&#45;21&#45;&gt;209</title>
<path fill="none" stroke="green" stroke-width="0.139201" d="M759.312,-211.902C738.929,-203.635 700.97,-188.046 669.007,-173.823 640.726,-161.239 634.692,-155.761 606.007,-144.125 559.878,-125.413 504.901,-107.416 471.763,-97.0206"/>
<polygon fill="green" stroke="green" stroke-width="0.139201" points="472.802,-93.6785 462.213,-94.0461 470.72,-100.362 472.802,-93.6785"/>
</g>
<!-- &#45;22 -->
<g id="node22" class="node"><title>&#45;22</title>
<polygon fill="lightgray" stroke="black" points="402.507,-227.823 373.507,-227.823 373.507,-209.823 402.507,-209.823 402.507,-227.823"/>
<text text-anchor="middle" x="388.007" y="-216.623" font-family="Times,serif" font-size="9.00">&#45;22</text>
</g>
<!-- &#45;22&#45;&gt;0 -->
<g id="edge12" class="edge"><title>&#45;22&#45;&gt;0</title>
<path fill="none" stroke="green" stroke-width="0.364955" d="M387.59,-209.78C387.248,-203.175 386.744,-193.459 386.272,-184.359"/>
<polygon fill="green" stroke="green" stroke-width="0.364955" points="389.757,-183.986 385.744,-174.181 382.767,-184.349 389.757,-183.986"/>
</g>
<!-- &#45;22&#45;&gt;1 -->
<g id="edge26" class="edge"><title>&#45;22&#45;&gt;1</title>
<path fill="none" stroke="green" stroke-width="0.323933" d="M394.264,-209.78C400.377,-201.921 409.915,-189.66 417.998,-179.269"/>
<polygon fill="green" stroke="green" stroke-width="0.323933" points="420.96,-181.162 424.337,-171.119 415.435,-176.864 420.96,-181.162"/>
</g>
<!-- &#45;23 -->
<g id="node23" class="node"><title>&#45;23</title>
<polygon fill="lightgray" stroke="black" points="707.507,-167.974 678.507,-167.974 678.507,-149.974 707.507,-149.974 707.507,-167.974"/>
<text text-anchor="middle" x="693.007" y="-156.774" font-family="Times,serif" font-size="9.00">&#45;23</text>
</g>
<!-- &#45;23&#45;&gt;2 -->
<g id="edge36" class="edge"><title>&#45;23&#45;&gt;2</title>
<path fill="none" stroke="green" stroke-width="0.842393" d="M700.024,-149.937C715.348,-132.744 753.526,-91.8418 792.007,-65.6985 818.232,-47.8815 851.818,-33.1575 873.85,-24.4411"/>
<polygon fill="green" stroke="green" stroke-width="0.842393" points="875.306,-27.6309 883.374,-20.7635 872.784,-21.1009 875.306,-27.6309"/>
</g>
<!-- &#45;23&#45;&gt;209 -->
<g id="edge43" class="edge"><title>&#45;23&#45;&gt;209</title>
<path fill="none" stroke="green" stroke-width="0.357457" d="M678.495,-150.353C673.938,-148.149 668.835,-145.869 664.007,-144.125 597.511,-120.095 516.27,-102.324 472.859,-93.7124"/>
<polygon fill="green" stroke="green" stroke-width="0.357457" points="473.408,-90.2535 462.922,-91.7707 472.065,-97.1236 473.408,-90.2535"/>
</g>
<!-- &#45;24 -->
<g id="node24" class="node"><title>&#45;24</title>
<polygon fill="lightgray" stroke="black" points="265.507,-227.823 236.507,-227.823 236.507,-209.823 265.507,-209.823 265.507,-227.823"/>
<text text-anchor="middle" x="251.007" y="-216.623" font-family="Times,serif" font-size="9.00">&#45;24</text>
</g>
<!-- &#45;24&#45;&gt;1 -->
<g id="edge5" class="edge"><title>&#45;24&#45;&gt;1</title>
<path fill="none" stroke="green" stroke-width="0.282596" d="M265.554,-212.581C268.348,-211.626 271.259,-210.667 274.007,-209.823 333.373,-191.611 351.62,-197.546 409.007,-173.823 409.863,-173.47 410.726,-173.091 411.59,-172.693"/>
<polygon fill="green" stroke="green" stroke-width="0.282596" points="413.394,-175.698 420.62,-167.95 410.139,-169.501 413.394,-175.698"/>
</g>
<!-- &#45;24&#45;&gt;3 -->
<g id="edge33" class="edge"><title>&#45;24&#45;&gt;3</title>
<path fill="none" stroke="green" stroke-width="0.207299" d="M236.343,-212.725C233.273,-211.717 230.045,-210.7 227.007,-209.823 162.381,-191.172 121.53,-226.742 80.0072,-173.823 50.3423,-136.017 52.6317,-105.194 80.0072,-65.6985 104.385,-30.5281 156.829,-20.1335 188.086,-17.0863"/>
<polygon fill="green" stroke="green" stroke-width="0.207299" points="188.486,-20.5657 198.178,-16.2863 187.933,-13.5876 188.486,-20.5657"/>
</g>
<!-- &#45;24&#45;&gt;209 -->
<g id="edge55" class="edge"><title>&#45;24&#45;&gt;209</title>
<path fill="none" stroke="red" stroke-width="0.251416" d="M260.547,-209.612C277.161,-195.481 312.723,-165.979 345.007,-144.125 367.688,-128.772 394.742,-113.313 414.509,-102.503"/>
<polygon fill="red" stroke="red" stroke-width="0.251416" points="416.181,-105.578 423.306,-97.7362 412.846,-99.4235 416.181,-105.578"/>
</g>
<!-- 1&#45;&gt;1 -->
<g id="edge30" class="edge"><title>1&#45;&gt;1</title>
<path fill="none" stroke="green" stroke-width="0.204676" d="M444.795,-168.054C455.03,-172.196 465.856,-169.169 465.856,-158.974 465.856,-152.124 460.969,-148.51 454.658,-148.132"/>
<polygon fill="green" stroke="green" stroke-width="0.204676" points="454.024,-144.69 444.795,-149.894 455.255,-151.581 454.024,-144.69"/>
</g>
<!-- 1&#45;&gt;209 -->
<g id="edge54" class="edge"><title>1&#45;&gt;209</title>
<path fill="none" stroke="green" stroke-width="0.367362" d="M434.785,-144.132C435.746,-136.656 436.971,-127.119 438.138,-118.031"/>
<polygon fill="green" stroke="green" stroke-width="0.367362" points="441.612,-118.46 439.414,-108.096 434.669,-117.568 441.612,-118.46"/>
</g>
<!-- 3&#45;&gt;3 -->
<g id="edge46" class="edge"><title>3&#45;&gt;3</title>
<path fill="none" stroke="green" stroke-width="0.118281" d="M223.774,-25.5774C234.296,-31.5034 245.856,-27.9274 245.856,-14.8492 245.856,-5.85803 240.392,-1.35804 233.558,-1.34926"/>
<polygon fill="green" stroke="green" stroke-width="0.118281" points="232.441,1.97218 223.774,-4.12109 234.349,-4.76277 232.441,1.97218"/>
</g>
<!-- 209&#45;&gt;2 -->
<g id="edge52" class="edge"><title>209&#45;&gt;2</title>
<path fill="none" stroke="red" stroke-width="0.111753" d="M463.04,-82.6729C537.989,-71.1321 791.82,-32.0464 872.307,-19.6527"/>
<polygon fill="red" stroke="red" stroke-width="0.111753" points="873.126,-23.0678 882.477,-18.0866 872.061,-16.1494 873.126,-23.0678"/>
</g>
<!-- 209&#45;&gt;3 -->
<g id="edge41" class="edge"><title>209&#45;&gt;3</title>
<path fill="none" stroke="green" stroke-width="1.01882" d="M421.685,-79.6941C379.326,-66.7342 281.79,-36.8932 236.682,-23.0924"/>
<polygon fill="green" stroke="green" stroke-width="1.01882" points="237.486,-19.6783 226.899,-20.0995 235.438,-26.372 237.486,-19.6783"/>
</g>
<!-- 209&#45;&gt;209 -->
<g id="edge58" class="edge"><title>209&#45;&gt;209</title>
<path fill="none" stroke="green" stroke-width="0.348343" d="M459.344,-99.3438C470.492,-102.587 481.22,-98.4429 481.22,-86.9117 481.22,-78.984 476.149,-74.5478 469.358,-73.6033"/>
<polygon fill="green" stroke="green" stroke-width="0.348343" points="469.001,-70.1211 459.344,-74.4796 469.611,-77.0944 469.001,-70.1211"/>
</g>
</g>
</svg>
