<?xml version="1.0" encoding="UTF-8" standalone="no"?>
<!DOCTYPE svg PUBLIC "-//W3C//DTD SVG 1.1//EN"
 "http://www.w3.org/Graphics/SVG/1.1/DTD/svg11.dtd">
<!-- Generated by graphviz version 2.38.0 (20140413.2041)
 -->
<!-- Title: %3 Pages: 1 -->
<svg width="1079pt" height="92pt"
 viewBox="0.00 0.00 1079.00 91.70" xmlns="http://www.w3.org/2000/svg" xmlns:xlink="http://www.w3.org/1999/xlink">
<g id="graph0" class="graph" transform="scale(1 1) rotate(0) translate(4 87.6985)">
<title>%3</title>
<polygon fill="white" stroke="none" points="-4,4 -4,-87.6985 1075,-87.6985 1075,4 -4,4"/>
<!-- &#45;1 -->
<g id="node1" class="node"><title>&#45;1</title>
<polygon fill="lightgray" stroke="black" points="666.5,-83.6985 642.5,-83.6985 642.5,-65.6985 666.5,-65.6985 666.5,-83.6985"/>
<text text-anchor="middle" x="654.5" y="-72.4985" font-family="Times,serif" font-size="9.00">&#45;1</text>
</g>
<!-- 0 -->
<g id="node25" class="node"><title>0</title>
<ellipse fill="lightblue" stroke="black" cx="423.5" cy="-14.8492" rx="14.7" ry="14.7"/>
<text text-anchor="middle" x="423.5" y="-12.6492" font-family="Times,serif" font-size="9.00">0</text>
</g>
<!-- &#45;1&#45;&gt;0 -->
<g id="edge9" class="edge"><title>&#45;1&#45;&gt;0</title>
<path fill="none" stroke="green" stroke-width="1.52585" d="M642.157,-68.6885C639.336,-67.6299 636.334,-66.5705 633.5,-65.6985 567.373,-45.3499 487.391,-28.4224 447.94,-20.5665"/>
<polygon fill="green" stroke="green" stroke-width="1.52585" points="448.421,-17.094 437.933,-18.596 447.068,-23.9621 448.421,-17.094"/>
</g>
<!-- 2 -->
<g id="node27" class="node"><title>2</title>
<ellipse fill="lightblue" stroke="black" cx="631.5" cy="-14.8492" rx="14.7" ry="14.7"/>
<text text-anchor="middle" x="631.5" y="-12.6492" font-family="Times,serif" font-size="9.00">2</text>
</g>
<!-- &#45;1&#45;&gt;2 -->
<g id="edge21" class="edge"><title>&#45;1&#45;&gt;2</title>
<path fill="none" stroke="green" stroke-width="0.452237" d="M651.302,-65.6548C648.517,-58.6501 644.341,-48.1471 640.541,-38.5892"/>
<polygon fill="green" stroke="green" stroke-width="0.452237" points="643.738,-37.1567 636.791,-29.1573 637.233,-39.7429 643.738,-37.1567"/>
</g>
<!-- &#45;2 -->
<g id="node2" class="node"><title>&#45;2</title>
<polygon fill="lightgray" stroke="black" points="255.5,-83.6985 231.5,-83.6985 231.5,-65.6985 255.5,-65.6985 255.5,-83.6985"/>
<text text-anchor="middle" x="243.5" y="-72.4985" font-family="Times,serif" font-size="9.00">&#45;2</text>
</g>
<!-- &#45;2&#45;&gt;0 -->
<g id="edge2" class="edge"><title>&#45;2&#45;&gt;0</title>
<path fill="none" stroke="green" stroke-width="0.339778" d="M255.892,-68.8363C258.71,-67.7701 261.699,-66.6702 264.5,-65.6985 311.931,-49.2456 368.121,-32.1919 399.4,-22.9125"/>
<polygon fill="green" stroke="green" stroke-width="0.339778" points="400.77,-26.1573 409.369,-19.9682 398.787,-19.444 400.77,-26.1573"/>
</g>
<!-- 3 -->
<g id="node28" class="node"><title>3</title>
<ellipse fill="lightblue" stroke="black" cx="151.5" cy="-14.8492" rx="14.7" ry="14.7"/>
<text text-anchor="middle" x="151.5" y="-12.6492" font-family="Times,serif" font-size="9.00">3</text>
</g>
<!-- &#45;2&#45;&gt;3 -->
<g id="edge27" class="edge"><title>&#45;2&#45;&gt;3</title>
<path fill="none" stroke="red" stroke-width="0.944841" d="M231.473,-66.1357C216.473,-56.7037 190.583,-40.4246 172.331,-28.948"/>
<polygon fill="red" stroke="red" stroke-width="0.944841" points="174.153,-25.9587 163.824,-23.5985 170.426,-31.8846 174.153,-25.9587"/>
</g>
<!-- &#45;3 -->
<g id="node3" class="node"><title>&#45;3</title>
<polygon fill="lightgray" stroke="black" points="708.5,-83.6985 684.5,-83.6985 684.5,-65.6985 708.5,-65.6985 708.5,-83.6985"/>
<text text-anchor="middle" x="696.5" y="-72.4985" font-family="Times,serif" font-size="9.00">&#45;3</text>
</g>
<!-- &#45;3&#45;&gt;2 -->
<g id="edge13" class="edge"><title>&#45;3&#45;&gt;2</title>
<path fill="none" stroke="red" stroke-width="0.343556" d="M687.462,-65.6548C677.733,-56.996 661.997,-42.9914 649.686,-32.0346"/>
<polygon fill="red" stroke="red" stroke-width="0.343556" points="651.985,-29.3951 642.188,-25.3614 647.331,-34.6241 651.985,-29.3951"/>
</g>
<!-- &#45;4 -->
<g id="node4" class="node"><title>&#45;4</title>
<polygon fill="lightgray" stroke="black" points="345.5,-83.6985 321.5,-83.6985 321.5,-65.6985 345.5,-65.6985 345.5,-83.6985"/>
<text text-anchor="middle" x="333.5" y="-72.4985" font-family="Times,serif" font-size="9.00">&#45;4</text>
</g>
<!-- &#45;4&#45;&gt;0 -->
<g id="edge23" class="edge"><title>&#45;4&#45;&gt;0</title>
<path fill="none" stroke="red" stroke-width="1.19156" d="M345.638,-65.8967C360.265,-56.4946 385.078,-40.5455 402.762,-29.1793"/>
<polygon fill="red" stroke="red" stroke-width="1.19156" points="404.747,-32.0635 411.267,-23.7122 400.962,-26.175 404.747,-32.0635"/>
</g>
<!-- 1 -->
<g id="node26" class="node"><title>1</title>
<ellipse fill="lightblue" stroke="black" cx="243.5" cy="-14.8492" rx="14.7" ry="14.7"/>
<text text-anchor="middle" x="243.5" y="-12.6492" font-family="Times,serif" font-size="9.00">1</text>
</g>
<!-- &#45;4&#45;&gt;1 -->
<g id="edge32" class="edge"><title>&#45;4&#45;&gt;1</title>
<path fill="none" stroke="red" stroke-width="0.282201" d="M321.362,-65.8967C306.735,-56.4946 281.922,-40.5455 264.238,-29.1793"/>
<polygon fill="red" stroke="red" stroke-width="0.282201" points="266.038,-26.175 255.733,-23.7122 262.253,-32.0635 266.038,-26.175"/>
</g>
<!-- &#45;4&#45;&gt;2 -->
<g id="edge7" class="edge"><title>&#45;4&#45;&gt;2</title>
<path fill="none" stroke="green" stroke-width="0.37216" d="M345.809,-68.5724C348.632,-67.5198 351.643,-66.4923 354.5,-65.6985 445.977,-40.2812 558.167,-24.7301 606.929,-18.7108"/>
<polygon fill="green" stroke="green" stroke-width="0.37216" points="607.361,-22.1842 616.868,-17.5085 606.52,-15.2348 607.361,-22.1842"/>
</g>
<!-- &#45;4&#45;&gt;3 -->
<g id="edge10" class="edge"><title>&#45;4&#45;&gt;3</title>
<path fill="none" stroke="green" stroke-width="0.157296" d="M321.432,-69.1952C318.215,-68.0263 314.735,-66.7899 311.5,-65.6985 263.45,-49.4868 206.661,-32.2427 175.306,-22.887"/>
<polygon fill="green" stroke="green" stroke-width="0.157296" points="176.28,-19.5252 165.698,-20.0295 174.285,-26.2348 176.28,-19.5252"/>
</g>
<!-- &#45;5 -->
<g id="node5" class="node"><title>&#45;5</title>
<polygon fill="lightgray" stroke="black" points="435.5,-83.6985 411.5,-83.6985 411.5,-65.6985 435.5,-65.6985 435.5,-83.6985"/>
<text text-anchor="middle" x="423.5" y="-72.4985" font-family="Times,serif" font-size="9.00">&#45;5</text>
</g>
<!-- &#45;5&#45;&gt;0 -->
<g id="edge18" class="edge"><title>&#45;5&#45;&gt;0</title>
<path fill="none" stroke="red" stroke-width="0.86583" d="M423.5,-65.6548C423.5,-59.0498 423.5,-49.3344 423.5,-40.2339"/>
<polygon fill="red" stroke="red" stroke-width="0.86583" points="427,-40.0563 423.5,-30.0563 420,-40.0564 427,-40.0563"/>
</g>
<!-- &#45;6 -->
<g id="node6" class="node"><title>&#45;6</title>
<polygon fill="lightgray" stroke="black" points="845.5,-83.6985 821.5,-83.6985 821.5,-65.6985 845.5,-65.6985 845.5,-83.6985"/>
<text text-anchor="middle" x="833.5" y="-72.4985" font-family="Times,serif" font-size="9.00">&#45;6</text>
</g>
<!-- &#45;7 -->
<g id="node7" class="node"><title>&#45;7</title>
<polygon fill="lightgray" stroke="black" points="71.5,-83.6985 47.5,-83.6985 47.5,-65.6985 71.5,-65.6985 71.5,-83.6985"/>
<text text-anchor="middle" x="59.5" y="-72.4985" font-family="Times,serif" font-size="9.00">&#45;7</text>
</g>
<!-- &#45;7&#45;&gt;1 -->
<g id="edge17" class="edge"><title>&#45;7&#45;&gt;1</title>
<path fill="none" stroke="green" stroke-width="0.103588" d="M71.8866,-68.8217C74.705,-67.7562 77.6953,-66.6604 80.5,-65.6985 129.541,-48.8798 187.799,-31.7345 219.69,-22.5865"/>
<polygon fill="green" stroke="green" stroke-width="0.103588" points="220.788,-25.913 229.444,-19.8028 218.867,-19.1818 220.788,-25.913"/>
</g>
<!-- &#45;7&#45;&gt;3 -->
<g id="edge15" class="edge"><title>&#45;7&#45;&gt;3</title>
<path fill="none" stroke="green" stroke-width="0.26332" d="M71.5274,-66.1357C86.5275,-56.7037 112.417,-40.4246 130.669,-28.948"/>
<polygon fill="green" stroke="green" stroke-width="0.26332" points="132.574,-31.8846 139.176,-23.5985 128.847,-25.9587 132.574,-31.8846"/>
</g>
<!-- &#45;8 -->
<g id="node8" class="node"><title>&#45;8</title>
<polygon fill="lightgray" stroke="black" points="887.5,-83.6985 863.5,-83.6985 863.5,-65.6985 887.5,-65.6985 887.5,-83.6985"/>
<text text-anchor="middle" x="875.5" y="-72.4985" font-family="Times,serif" font-size="9.00">&#45;8</text>
</g>
<!-- &#45;9 -->
<g id="node9" class="node"><title>&#45;9</title>
<polygon fill="lightgray" stroke="black" points="929.5,-83.6985 905.5,-83.6985 905.5,-65.6985 929.5,-65.6985 929.5,-83.6985"/>
<text text-anchor="middle" x="917.5" y="-72.4985" font-family="Times,serif" font-size="9.00">&#45;9</text>
</g>
<!-- &#45;10 -->
<g id="node10" class="node"><title>&#45;10</title>
<polygon fill="lightgray" stroke="black" points="577,-83.6985 548,-83.6985 548,-65.6985 577,-65.6985 577,-83.6985"/>
<text text-anchor="middle" x="562.5" y="-72.4985" font-family="Times,serif" font-size="9.00">&#45;10</text>
</g>
<!-- &#45;10&#45;&gt;0 -->
<g id="edge14" class="edge"><title>&#45;10&#45;&gt;0</title>
<path fill="none" stroke="red" stroke-width="0.17771" d="M547.887,-67.6169C523.695,-57.5486 475.142,-37.3418 446.373,-25.3687"/>
<polygon fill="red" stroke="red" stroke-width="0.17771" points="447.672,-22.1183 437.095,-21.5072 444.982,-28.5809 447.672,-22.1183"/>
</g>
<!-- &#45;10&#45;&gt;2 -->
<g id="edge1" class="edge"><title>&#45;10&#45;&gt;2</title>
<path fill="none" stroke="red" stroke-width="0.978147" d="M572.094,-65.6548C582.544,-56.8941 599.52,-42.6612 612.655,-31.6492"/>
<polygon fill="red" stroke="red" stroke-width="0.978147" points="615.209,-34.0746 620.624,-24.9678 610.712,-28.7104 615.209,-34.0746"/>
</g>
<!-- &#45;11 -->
<g id="node11" class="node"><title>&#45;11</title>
<polygon fill="lightgray" stroke="black" points="756,-83.6985 727,-83.6985 727,-65.6985 756,-65.6985 756,-83.6985"/>
<text text-anchor="middle" x="741.5" y="-72.4985" font-family="Times,serif" font-size="9.00">&#45;11</text>
</g>
<!-- &#45;11&#45;&gt;2 -->
<g id="edge30" class="edge"><title>&#45;11&#45;&gt;2</title>
<path fill="none" stroke="red" stroke-width="0.255174" d="M726.665,-65.8967C707.849,-56.0012 675.242,-38.8534 653.519,-27.4292"/>
<polygon fill="red" stroke="red" stroke-width="0.255174" points="654.873,-24.1865 644.393,-22.6296 651.614,-30.382 654.873,-24.1865"/>
</g>
<!-- &#45;12 -->
<g id="node12" class="node"><title>&#45;12</title>
<polygon fill="lightgray" stroke="black" points="29,-83.6985 0,-83.6985 0,-65.6985 29,-65.6985 29,-83.6985"/>
<text text-anchor="middle" x="14.5" y="-72.4985" font-family="Times,serif" font-size="9.00">&#45;12</text>
</g>
<!-- &#45;12&#45;&gt;3 -->
<g id="edge26" class="edge"><title>&#45;12&#45;&gt;3</title>
<path fill="none" stroke="red" stroke-width="0.652225" d="M29.1614,-67.5076C53.0148,-57.4353 100.398,-37.4274 128.683,-25.4837"/>
<polygon fill="red" stroke="red" stroke-width="0.652225" points="130.31,-28.596 138.161,-21.4816 127.587,-22.1473 130.31,-28.596"/>
</g>
<!-- &#45;13 -->
<g id="node13" class="node"><title>&#45;13</title>
<polygon fill="lightgray" stroke="black" points="977,-83.6985 948,-83.6985 948,-65.6985 977,-65.6985 977,-83.6985"/>
<text text-anchor="middle" x="962.5" y="-72.4985" font-family="Times,serif" font-size="9.00">&#45;13</text>
</g>
<!-- &#45;14 -->
<g id="node14" class="node"><title>&#45;14</title>
<polygon fill="lightgray" stroke="black" points="1024,-83.6985 995,-83.6985 995,-65.6985 1024,-65.6985 1024,-83.6985"/>
<text text-anchor="middle" x="1009.5" y="-72.4985" font-family="Times,serif" font-size="9.00">&#45;14</text>
</g>
<!-- &#45;15 -->
<g id="node15" class="node"><title>&#45;15</title>
<polygon fill="lightgray" stroke="black" points="803,-83.6985 774,-83.6985 774,-65.6985 803,-65.6985 803,-83.6985"/>
<text text-anchor="middle" x="788.5" y="-72.4985" font-family="Times,serif" font-size="9.00">&#45;15</text>
</g>
<!-- &#45;15&#45;&gt;2 -->
<g id="edge6" class="edge"><title>&#45;15&#45;&gt;2</title>
<path fill="none" stroke="green" stroke-width="0.115566" d="M773.73,-68.2562C746.454,-58.2058 687.973,-36.6578 655.13,-24.556"/>
<polygon fill="green" stroke="green" stroke-width="0.115566" points="656.033,-21.1587 645.439,-20.9854 653.612,-27.727 656.033,-21.1587"/>
</g>
<!-- &#45;16 -->
<g id="node16" class="node"><title>&#45;16</title>
<polygon fill="lightgray" stroke="black" points="213,-83.6985 184,-83.6985 184,-65.6985 213,-65.6985 213,-83.6985"/>
<text text-anchor="middle" x="198.5" y="-72.4985" font-family="Times,serif" font-size="9.00">&#45;16</text>
</g>
<!-- &#45;16&#45;&gt;0 -->
<g id="edge12" class="edge"><title>&#45;16&#45;&gt;0</title>
<path fill="none" stroke="red" stroke-width="0.579212" d="M213.166,-68.6068C216.236,-67.5981 219.463,-66.5798 222.5,-65.6985 285.353,-47.4597 360.448,-29.9546 398.597,-21.3614"/>
<polygon fill="red" stroke="red" stroke-width="0.579212" points="399.773,-24.6849 408.767,-19.085 398.244,-17.8539 399.773,-24.6849"/>
</g>
<!-- &#45;16&#45;&gt;1 -->
<g id="edge22" class="edge"><title>&#45;16&#45;&gt;1</title>
<path fill="none" stroke="green" stroke-width="0.181365" d="M204.757,-65.6548C210.87,-57.7964 220.408,-45.5348 228.49,-35.1446"/>
<polygon fill="green" stroke="green" stroke-width="0.181365" points="231.453,-37.0367 234.83,-26.9946 225.928,-32.7387 231.453,-37.0367"/>
</g>
<!-- &#45;16&#45;&gt;3 -->
<g id="edge5" class="edge"><title>&#45;16&#45;&gt;3</title>
<path fill="none" stroke="green" stroke-width="0.129495" d="M191.965,-65.6548C185.516,-57.7178 175.419,-45.2891 166.924,-34.8334"/>
<polygon fill="green" stroke="green" stroke-width="0.129495" points="169.577,-32.5489 160.555,-26.9946 164.144,-36.9629 169.577,-32.5489"/>
</g>
<!-- &#45;17 -->
<g id="node17" class="node"><title>&#45;17</title>
<polygon fill="lightgray" stroke="black" points="483,-83.6985 454,-83.6985 454,-65.6985 483,-65.6985 483,-83.6985"/>
<text text-anchor="middle" x="468.5" y="-72.4985" font-family="Times,serif" font-size="9.00">&#45;17</text>
</g>
<!-- &#45;17&#45;&gt;1 -->
<g id="edge31" class="edge"><title>&#45;17&#45;&gt;1</title>
<path fill="none" stroke="red" stroke-width="1.07261" d="M453.834,-68.6068C450.764,-67.5981 447.537,-66.5798 444.5,-65.6985 381.647,-47.4597 306.552,-29.9546 268.403,-21.3614"/>
<polygon fill="red" stroke="red" stroke-width="1.07261" points="268.756,-17.8539 258.233,-19.085 267.227,-24.6849 268.756,-17.8539"/>
</g>
<!-- &#45;17&#45;&gt;2 -->
<g id="edge20" class="edge"><title>&#45;17&#45;&gt;2</title>
<path fill="none" stroke="red" stroke-width="0.571395" d="M483.253,-68.4627C511.661,-58.3806 574.155,-36.2011 608.229,-24.1082"/>
<polygon fill="red" stroke="red" stroke-width="0.571395" points="609.569,-27.3468 617.822,-20.7036 607.227,-20.7499 609.569,-27.3468"/>
</g>
<!-- &#45;18 -->
<g id="node18" class="node"><title>&#45;18</title>
<polygon fill="lightgray" stroke="black" points="530,-83.6985 501,-83.6985 501,-65.6985 530,-65.6985 530,-83.6985"/>
<text text-anchor="middle" x="515.5" y="-72.4985" font-family="Times,serif" font-size="9.00">&#45;18</text>
</g>
<!-- &#45;18&#45;&gt;0 -->
<g id="edge33" class="edge"><title>&#45;18&#45;&gt;0</title>
<path fill="none" stroke="green" stroke-width="0.340434" d="M502.708,-65.6548C487.656,-56.1902 462.447,-40.3388 444.513,-29.0619"/>
<polygon fill="green" stroke="green" stroke-width="0.340434" points="446.218,-26 435.89,-23.6398 442.492,-31.9258 446.218,-26"/>
</g>
<!-- &#45;19 -->
<g id="node19" class="node"><title>&#45;19</title>
<polygon fill="lightgray" stroke="black" points="119,-83.6985 90,-83.6985 90,-65.6985 119,-65.6985 119,-83.6985"/>
<text text-anchor="middle" x="104.5" y="-72.4985" font-family="Times,serif" font-size="9.00">&#45;19</text>
</g>
<!-- &#45;19&#45;&gt;1 -->
<g id="edge19" class="edge"><title>&#45;19&#45;&gt;1</title>
<path fill="none" stroke="green" stroke-width="0.786529" d="M119.113,-67.6169C143.305,-57.5486 191.858,-37.3418 220.627,-25.3687"/>
<polygon fill="green" stroke="green" stroke-width="0.786529" points="222.018,-28.5809 229.905,-21.5072 219.328,-22.1183 222.018,-28.5809"/>
</g>
<!-- &#45;19&#45;&gt;3 -->
<g id="edge3" class="edge"><title>&#45;19&#45;&gt;3</title>
<path fill="none" stroke="red" stroke-width="0.425182" d="M111.035,-65.6548C117.484,-57.7178 127.581,-45.2891 136.076,-34.8334"/>
<polygon fill="red" stroke="red" stroke-width="0.425182" points="138.856,-36.9629 142.445,-26.9946 133.423,-32.5489 138.856,-36.9629"/>
</g>
<!-- &#45;20 -->
<g id="node20" class="node"><title>&#45;20</title>
<polygon fill="lightgray" stroke="black" points="166,-83.6985 137,-83.6985 137,-65.6985 166,-65.6985 166,-83.6985"/>
<text text-anchor="middle" x="151.5" y="-72.4985" font-family="Times,serif" font-size="9.00">&#45;20</text>
</g>
<!-- &#45;20&#45;&gt;1 -->
<g id="edge24" class="edge"><title>&#45;20&#45;&gt;1</title>
<path fill="none" stroke="red" stroke-width="0.386132" d="M164.292,-65.6548C179.344,-56.1902 204.553,-40.3388 222.487,-29.0619"/>
<polygon fill="red" stroke="red" stroke-width="0.386132" points="224.508,-31.9258 231.11,-23.6398 220.782,-26 224.508,-31.9258"/>
</g>
<!-- &#45;20&#45;&gt;3 -->
<g id="edge8" class="edge"><title>&#45;20&#45;&gt;3</title>
<path fill="none" stroke="green" stroke-width="0.111501" d="M151.5,-65.6548C151.5,-59.0498 151.5,-49.3344 151.5,-40.2339"/>
<polygon fill="green" stroke="green" stroke-width="0.111501" points="155,-40.0563 151.5,-30.0563 148,-40.0564 155,-40.0563"/>
</g>
<!-- &#45;21 -->
<g id="node21" class="node"><title>&#45;21</title>
<polygon fill="lightgray" stroke="black" points="624,-83.6985 595,-83.6985 595,-65.6985 624,-65.6985 624,-83.6985"/>
<text text-anchor="middle" x="609.5" y="-72.4985" font-family="Times,serif" font-size="9.00">&#45;21</text>
</g>
<!-- &#45;21&#45;&gt;0 -->
<g id="edge11" class="edge"><title>&#45;21&#45;&gt;0</title>
<path fill="none" stroke="red" stroke-width="1.04905" d="M594.928,-68.5364C592.136,-67.5742 589.233,-66.5912 586.5,-65.6985 537.219,-49.5986 479.049,-32.1882 447.238,-22.8014"/>
<polygon fill="red" stroke="red" stroke-width="1.04905" points="448.092,-19.4044 437.511,-19.9391 446.116,-26.1197 448.092,-19.4044"/>
</g>
<!-- &#45;21&#45;&gt;2 -->
<g id="edge28" class="edge"><title>&#45;21&#45;&gt;2</title>
<path fill="none" stroke="green" stroke-width="0.413639" d="M612.559,-65.6548C615.223,-58.6501 619.217,-48.1471 622.852,-38.5892"/>
<polygon fill="green" stroke="green" stroke-width="0.413639" points="626.156,-39.7484 626.439,-29.1573 619.613,-37.2601 626.156,-39.7484"/>
</g>
<!-- &#45;22 -->
<g id="node22" class="node"><title>&#45;22</title>
<polygon fill="lightgray" stroke="black" points="1071,-83.6985 1042,-83.6985 1042,-65.6985 1071,-65.6985 1071,-83.6985"/>
<text text-anchor="middle" x="1056.5" y="-72.4985" font-family="Times,serif" font-size="9.00">&#45;22</text>
</g>
<!-- &#45;23 -->
<g id="node23" class="node"><title>&#45;23</title>
<polygon fill="lightgray" stroke="black" points="303,-83.6985 274,-83.6985 274,-65.6985 303,-65.6985 303,-83.6985"/>
<text text-anchor="middle" x="288.5" y="-72.4985" font-family="Times,serif" font-size="9.00">&#45;23</text>
</g>
<!-- &#45;23&#45;&gt;1 -->
<g id="edge25" class="edge"><title>&#45;23&#45;&gt;1</title>
<path fill="none" stroke="green" stroke-width="0.198439" d="M282.243,-65.6548C276.13,-57.7964 266.592,-45.5348 258.51,-35.1446"/>
<polygon fill="green" stroke="green" stroke-width="0.198439" points="261.072,-32.7387 252.17,-26.9946 255.547,-37.0367 261.072,-32.7387"/>
</g>
<!-- &#45;24 -->
<g id="node24" class="node"><title>&#45;24</title>
<polygon fill="lightgray" stroke="black" points="393,-83.6985 364,-83.6985 364,-65.6985 393,-65.6985 393,-83.6985"/>
<text text-anchor="middle" x="378.5" y="-72.4985" font-family="Times,serif" font-size="9.00">&#45;24</text>
</g>
<!-- &#45;24&#45;&gt;0 -->
<g id="edge29" class="edge"><title>&#45;24&#45;&gt;0</title>
<path fill="none" stroke="red" stroke-width="0.184186" d="M384.757,-65.6548C390.87,-57.7964 400.408,-45.5348 408.49,-35.1446"/>
<polygon fill="red" stroke="red" stroke-width="0.184186" points="411.453,-37.0367 414.83,-26.9946 405.928,-32.7387 411.453,-37.0367"/>
</g>
<!-- &#45;24&#45;&gt;1 -->
<g id="edge4" class="edge"><title>&#45;24&#45;&gt;1</title>
<path fill="none" stroke="red" stroke-width="0.621631" d="M363.796,-67.3975C340.302,-57.3303 294.124,-37.5422 266.316,-25.626"/>
<polygon fill="red" stroke="red" stroke-width="0.621631" points="267.548,-22.3463 256.978,-21.6246 264.791,-28.7805 267.548,-22.3463"/>
</g>
<!-- 1&#45;&gt;1 -->
<g id="edge16" class="edge"><title>1&#45;&gt;1</title>
<path fill="none" stroke="green" stroke-width="0.264016" d="M255.288,-23.9294C265.522,-28.0713 276.349,-25.0446 276.349,-14.8492 276.349,-7.99927 271.462,-4.3853 265.15,-4.00735"/>
<polygon fill="green" stroke="green" stroke-width="0.264016" points="264.516,-0.565092 255.288,-5.76904 265.747,-7.45602 264.516,-0.565092"/>
</g>
</g>
</svg>
