<?xml version="1.0" encoding="UTF-8" standalone="no"?>
<!DOCTYPE svg PUBLIC "-//W3C//DTD SVG 1.1//EN"
 "http://www.w3.org/Graphics/SVG/1.1/DTD/svg11.dtd">
<!-- Generated by graphviz version 2.38.0 (20140413.2041)
 -->
<!-- Title: %3 Pages: 1 -->
<svg width="1177pt" height="256pt"
 viewBox="0.00 0.00 1177.00 255.62" xmlns="http://www.w3.org/2000/svg" xmlns:xlink="http://www.w3.org/1999/xlink">
<g id="graph0" class="graph" transform="scale(1 1) rotate(0) translate(4 251.622)">
<title>%3</title>
<polygon fill="white" stroke="none" points="-4,4 -4,-251.622 1173,-251.622 1173,4 -4,4"/>
<!-- &#45;1 -->
<g id="node1" class="node"><title>&#45;1</title>
<polygon fill="lightgray" stroke="black" points="71.5,-177.874 47.5,-177.874 47.5,-159.874 71.5,-159.874 71.5,-177.874"/>
<text text-anchor="middle" x="59.5" y="-166.674" font-family="Times,serif" font-size="9.00">&#45;1</text>
</g>
<!-- 1 -->
<g id="node26" class="node"><title>1</title>
<ellipse fill="lightblue" stroke="black" cx="456.5" cy="-86.9117" rx="14.7" ry="14.7"/>
<text text-anchor="middle" x="456.5" y="-84.7117" font-family="Times,serif" font-size="9.00">1</text>
</g>
<!-- &#45;1&#45;&gt;1 -->
<g id="edge6" class="edge"><title>&#45;1&#45;&gt;1</title>
<path fill="none" stroke="green" stroke-width="0.364486" d="M64.3056,-159.832C68.0075,-154.417 73.6454,-147.644 80.5,-144.125 220.399,-72.297 287.711,-169.501 432.5,-108.125 434.619,-107.227 436.692,-106.074 438.677,-104.776"/>
<polygon fill="green" stroke="green" stroke-width="0.364486" points="440.979,-107.419 446.681,-98.4889 436.655,-101.914 440.979,-107.419"/>
</g>
<!-- 3 -->
<g id="node28" class="node"><title>3</title>
<ellipse fill="lightblue" stroke="black" cx="517.5" cy="-14.8492" rx="14.7" ry="14.7"/>
<text text-anchor="middle" x="517.5" y="-12.6492" font-family="Times,serif" font-size="9.00">3</text>
</g>
<!-- &#45;1&#45;&gt;3 -->
<g id="edge52" class="edge"><title>&#45;1&#45;&gt;3</title>
<path fill="none" stroke="green" stroke-width="0.45543" d="M66.1409,-159.68C82.9737,-139.576 129.672,-87.8415 181.5,-65.6985 290.27,-19.2274 434.855,-14.9753 492.365,-15.3124"/>
<polygon fill="green" stroke="green" stroke-width="0.45543" points="492.328,-18.8121 502.366,-15.4247 492.406,-11.8126 492.328,-18.8121"/>
</g>
<!-- 228 -->
<g id="node29" class="node"><title>228</title>
<ellipse fill="white" stroke="black" cx="211.5" cy="-86.9117" rx="21.4286" ry="21.4286"/>
<text text-anchor="middle" x="211.5" y="-84.7117" font-family="Times,serif" font-size="9.00">228</text>
</g>
<!-- &#45;1&#45;&gt;228 -->
<g id="edge38" class="edge"><title>&#45;1&#45;&gt;228</title>
<path fill="none" stroke="red" stroke-width="0.223089" d="M65.3642,-159.552C69.2135,-154.563 74.6128,-148.382 80.5,-144.125 111.758,-121.523 153.512,-105.606 181.395,-96.6117"/>
<polygon fill="red" stroke="red" stroke-width="0.223089" points="182.495,-99.9352 190.996,-93.6117 180.407,-93.2538 182.495,-99.9352"/>
</g>
<!-- &#45;2 -->
<g id="node2" class="node"><title>&#45;2</title>
<polygon fill="lightgray" stroke="black" points="1031.5,-177.874 1007.5,-177.874 1007.5,-159.874 1031.5,-159.874 1031.5,-177.874"/>
<text text-anchor="middle" x="1019.5" y="-166.674" font-family="Times,serif" font-size="9.00">&#45;2</text>
</g>
<!-- &#45;2&#45;&gt;1 -->
<g id="edge13" class="edge"><title>&#45;2&#45;&gt;1</title>
<path fill="none" stroke="green" stroke-width="0.579357" d="M1014.71,-159.796C1011.02,-154.363 1005.38,-147.585 998.5,-144.125 914.01,-101.66 668.298,-120.119 574.5,-108.125 541.961,-103.964 504.693,-97.2509 480.894,-92.7139"/>
<polygon fill="green" stroke="green" stroke-width="0.579357" points="481.455,-89.2576 470.973,-90.7994 480.129,-96.1308 481.455,-89.2576"/>
</g>
<!-- 2 -->
<g id="node27" class="node"><title>2</title>
<ellipse fill="lightblue" stroke="black" cx="974.5" cy="-86.9117" rx="14.7" ry="14.7"/>
<text text-anchor="middle" x="974.5" y="-84.7117" font-family="Times,serif" font-size="9.00">2</text>
</g>
<!-- &#45;2&#45;&gt;2 -->
<g id="edge28" class="edge"><title>&#45;2&#45;&gt;2</title>
<path fill="none" stroke="green" stroke-width="0.296428" d="M1014.85,-159.617C1008.21,-147.809 995.765,-125.697 986.445,-109.137"/>
<polygon fill="green" stroke="green" stroke-width="0.296428" points="989.34,-107.146 981.386,-100.147 983.24,-110.579 989.34,-107.146"/>
</g>
<!-- &#45;2&#45;&gt;3 -->
<g id="edge47" class="edge"><title>&#45;2&#45;&gt;3</title>
<path fill="none" stroke="green" stroke-width="0.289594" d="M1020.68,-159.721C1022.99,-140.161 1025.75,-90.3693 998.5,-65.6985 964.411,-34.8412 636.414,-20.2908 542.506,-16.7354"/>
<polygon fill="green" stroke="green" stroke-width="0.289594" points="542.607,-13.2369 532.485,-16.3645 542.348,-20.2321 542.607,-13.2369"/>
</g>
<!-- &#45;3 -->
<g id="node3" class="node"><title>&#45;3</title>
<polygon fill="lightgray" stroke="black" points="400.5,-177.874 376.5,-177.874 376.5,-159.874 400.5,-159.874 400.5,-177.874"/>
<text text-anchor="middle" x="388.5" y="-166.674" font-family="Times,serif" font-size="9.00">&#45;3</text>
</g>
<!-- 0 -->
<g id="node25" class="node"><title>0</title>
<ellipse fill="lightblue" stroke="black" cx="723.5" cy="-86.9117" rx="14.7" ry="14.7"/>
<text text-anchor="middle" x="723.5" y="-84.7117" font-family="Times,serif" font-size="9.00">0</text>
</g>
<!-- &#45;3&#45;&gt;0 -->
<g id="edge50" class="edge"><title>&#45;3&#45;&gt;0</title>
<path fill="none" stroke="red" stroke-width="0.182268" d="M393.705,-159.509C397.44,-154.238 402.958,-147.762 409.5,-144.125 493.027,-97.6799 527.506,-125.415 621.5,-108.125 648.11,-103.23 678.523,-97.1383 699.165,-92.929"/>
<polygon fill="red" stroke="red" stroke-width="0.182268" points="699.903,-96.3507 708.998,-90.9157 698.499,-89.493 699.903,-96.3507"/>
</g>
<!-- &#45;3&#45;&gt;1 -->
<g id="edge32" class="edge"><title>&#45;3&#45;&gt;1</title>
<path fill="none" stroke="red" stroke-width="0.11858" d="M395.521,-159.617C406.039,-147.249 426.172,-123.575 440.422,-106.818"/>
<polygon fill="red" stroke="red" stroke-width="0.11858" points="443.444,-108.667 447.256,-98.7815 438.112,-104.132 443.444,-108.667"/>
</g>
<!-- &#45;3&#45;&gt;228 -->
<g id="edge39" class="edge"><title>&#45;3&#45;&gt;228</title>
<path fill="none" stroke="green" stroke-width="0.437333" d="M382.723,-159.427C378.907,-154.391 373.511,-148.205 367.5,-144.125 328.382,-117.574 275.253,-101.955 242.189,-94.1684"/>
<polygon fill="green" stroke="green" stroke-width="0.437333" points="242.727,-90.7019 232.202,-91.9115 241.184,-97.5297 242.727,-90.7019"/>
</g>
<!-- &#45;4 -->
<g id="node4" class="node"><title>&#45;4</title>
<polygon fill="lightgray" stroke="black" points="735.5,-247.622 711.5,-247.622 711.5,-229.622 735.5,-229.622 735.5,-247.622"/>
<text text-anchor="middle" x="723.5" y="-236.422" font-family="Times,serif" font-size="9.00">&#45;4</text>
</g>
<!-- &#45;4&#45;&gt;0 -->
<g id="edge36" class="edge"><title>&#45;4&#45;&gt;0</title>
<path fill="none" stroke="red" stroke-width="0.111227" d="M723.5,-229.573C723.5,-207.652 723.5,-146.237 723.5,-111.905"/>
<polygon fill="red" stroke="red" stroke-width="0.111227" points="727,-111.795 723.5,-101.795 720,-111.795 727,-111.795"/>
</g>
<!-- 1006 -->
<g id="node31" class="node"><title>1006</title>
<ellipse fill="white" stroke="black" cx="776.5" cy="-168.874" rx="25" ry="25"/>
<text text-anchor="middle" x="776.5" y="-166.674" font-family="Times,serif" font-size="9.00">1006</text>
</g>
<!-- &#45;4&#45;&gt;1006 -->
<g id="edge58" class="edge"><title>&#45;4&#45;&gt;1006</title>
<path fill="none" stroke="red" stroke-width="0.338383" d="M729.788,-229.585C736.115,-221.497 746.227,-208.571 755.427,-196.81"/>
<polygon fill="red" stroke="red" stroke-width="0.338383" points="758.188,-198.961 761.593,-188.929 752.675,-194.648 758.188,-198.961"/>
</g>
<!-- 4792 -->
<g id="node32" class="node"><title>4792</title>
<ellipse fill="white" stroke="black" cx="670.5" cy="-168.874" rx="25" ry="25"/>
<text text-anchor="middle" x="670.5" y="-166.674" font-family="Times,serif" font-size="9.00">4792</text>
</g>
<!-- &#45;4&#45;&gt;4792 -->
<g id="edge41" class="edge"><title>&#45;4&#45;&gt;4792</title>
<path fill="none" stroke="green" stroke-width="0.202313" d="M717.212,-229.585C710.885,-221.497 700.773,-208.571 691.573,-196.81"/>
<polygon fill="green" stroke="green" stroke-width="0.202313" points="694.325,-194.648 685.407,-188.929 688.812,-198.961 694.325,-194.648"/>
</g>
<!-- &#45;5 -->
<g id="node5" class="node"><title>&#45;5</title>
<polygon fill="lightgray" stroke="black" points="1121.5,-177.874 1097.5,-177.874 1097.5,-159.874 1121.5,-159.874 1121.5,-177.874"/>
<text text-anchor="middle" x="1109.5" y="-166.674" font-family="Times,serif" font-size="9.00">&#45;5</text>
</g>
<!-- &#45;5&#45;&gt;0 -->
<g id="edge23" class="edge"><title>&#45;5&#45;&gt;0</title>
<path fill="none" stroke="green" stroke-width="0.18506" d="M1104.31,-159.476C1100.59,-154.19 1095.07,-147.712 1088.5,-144.125 1029.35,-111.831 821.239,-94.6699 748.68,-89.5641"/>
<polygon fill="green" stroke="green" stroke-width="0.18506" points="748.832,-86.0664 738.615,-88.8727 748.352,-93.05 748.832,-86.0664"/>
</g>
<!-- &#45;5&#45;&gt;2 -->
<g id="edge56" class="edge"><title>&#45;5&#45;&gt;2</title>
<path fill="none" stroke="green" stroke-width="0.198076" d="M1103.56,-159.66C1099.68,-154.712 1094.27,-148.536 1088.5,-144.125 1060.12,-122.438 1022.05,-105.701 997.889,-96.326"/>
<polygon fill="green" stroke="green" stroke-width="0.198076" points="999.049,-93.0226 988.457,-92.7656 996.577,-99.5716 999.049,-93.0226"/>
</g>
<!-- &#45;5&#45;&gt;3 -->
<g id="edge40" class="edge"><title>&#45;5&#45;&gt;3</title>
<path fill="none" stroke="green" stroke-width="0.242474" d="M1105.4,-159.666C1094.86,-139.53 1064.61,-87.7268 1022.5,-65.6985 937.63,-21.3072 632.631,-16.3624 542.655,-15.88"/>
<polygon fill="green" stroke="green" stroke-width="0.242474" points="542.564,-12.3797 532.55,-15.8404 542.536,-19.3796 542.564,-12.3797"/>
</g>
<!-- &#45;6 -->
<g id="node6" class="node"><title>&#45;6</title>
<polygon fill="lightgray" stroke="black" points="358.5,-177.874 334.5,-177.874 334.5,-159.874 358.5,-159.874 358.5,-177.874"/>
<text text-anchor="middle" x="346.5" y="-166.674" font-family="Times,serif" font-size="9.00">&#45;6</text>
</g>
<!-- &#45;6&#45;&gt;1 -->
<g id="edge43" class="edge"><title>&#45;6&#45;&gt;1</title>
<path fill="none" stroke="red" stroke-width="0.348669" d="M352.52,-159.756C356.428,-154.844 361.834,-148.672 367.5,-144.125 393.256,-123.456 405.298,-126.85 432.5,-108.125 434.183,-106.967 435.887,-105.714 437.572,-104.419"/>
<polygon fill="red" stroke="red" stroke-width="0.348669" points="440.094,-106.878 445.624,-97.8406 435.666,-101.457 440.094,-106.878"/>
</g>
<!-- &#45;7 -->
<g id="node7" class="node"><title>&#45;7</title>
<polygon fill="lightgray" stroke="black" points="627.5,-177.874 603.5,-177.874 603.5,-159.874 627.5,-159.874 627.5,-177.874"/>
<text text-anchor="middle" x="615.5" y="-166.674" font-family="Times,serif" font-size="9.00">&#45;7</text>
</g>
<!-- &#45;7&#45;&gt;2 -->
<g id="edge37" class="edge"><title>&#45;7&#45;&gt;2</title>
<path fill="none" stroke="green" stroke-width="0.111931" d="M620.701,-159.502C624.434,-154.227 629.952,-147.751 636.5,-144.125 690.724,-114.094 880.654,-95.7051 949.411,-89.9047"/>
<polygon fill="green" stroke="green" stroke-width="0.111931" points="950.046,-93.3643 959.724,-89.0532 949.47,-86.3881 950.046,-93.3643"/>
</g>
<!-- &#45;7&#45;&gt;3 -->
<g id="edge20" class="edge"><title>&#45;7&#45;&gt;3</title>
<path fill="none" stroke="green" stroke-width="0.282801" d="M609.805,-159.839C601.77,-148.445 586.723,-126.888 574.5,-108.125 558.674,-83.8298 541.264,-55.3761 529.901,-36.5566"/>
<polygon fill="green" stroke="green" stroke-width="0.282801" points="532.852,-34.6725 524.697,-27.9095 526.855,-38.2823 532.852,-34.6725"/>
</g>
<!-- &#45;7&#45;&gt;228 -->
<g id="edge46" class="edge"><title>&#45;7&#45;&gt;228</title>
<path fill="none" stroke="red" stroke-width="0.412002" d="M609.988,-159.459C606.049,-154.167 600.263,-147.687 593.5,-144.125 562.574,-127.833 328.457,-100.773 242.783,-91.3066"/>
<polygon fill="red" stroke="red" stroke-width="0.412002" points="242.955,-87.8045 232.633,-90.1908 242.19,-94.7626 242.955,-87.8045"/>
</g>
<!-- &#45;8 -->
<g id="node8" class="node"><title>&#45;8</title>
<polygon fill="lightgray" stroke="black" points="268.5,-177.874 244.5,-177.874 244.5,-159.874 268.5,-159.874 268.5,-177.874"/>
<text text-anchor="middle" x="256.5" y="-166.674" font-family="Times,serif" font-size="9.00">&#45;8</text>
</g>
<!-- &#45;8&#45;&gt;1 -->
<g id="edge10" class="edge"><title>&#45;8&#45;&gt;1</title>
<path fill="none" stroke="red" stroke-width="0.160965" d="M261.779,-159.637C265.545,-154.42 271.07,-147.957 277.5,-144.125 338.251,-107.917 369.258,-139.781 432.5,-108.125 434.558,-107.095 436.591,-105.854 438.55,-104.5"/>
<polygon fill="red" stroke="red" stroke-width="0.160965" points="440.884,-107.115 446.523,-98.1455 436.521,-101.642 440.884,-107.115"/>
</g>
<!-- &#45;8&#45;&gt;2 -->
<g id="edge17" class="edge"><title>&#45;8&#45;&gt;2</title>
<path fill="none" stroke="green" stroke-width="0.361442" d="M261.275,-159.772C264.963,-154.329 270.596,-147.547 277.5,-144.125 374.927,-95.8316 657.154,-117.359 765.5,-108.125 832.091,-102.449 910.494,-94.5361 949.637,-90.5011"/>
<polygon fill="green" stroke="green" stroke-width="0.361442" points="950.227,-93.9588 959.814,-89.4481 949.507,-86.996 950.227,-93.9588"/>
</g>
<!-- &#45;8&#45;&gt;3 -->
<g id="edge49" class="edge"><title>&#45;8&#45;&gt;3</title>
<path fill="none" stroke="red" stroke-width="0.22527" d="M263.173,-159.642C267.148,-154.92 272.398,-148.982 277.5,-144.125 317.904,-105.66 326.712,-92.7494 375.5,-65.6985 414.371,-44.1464 464.283,-29.2258 493.399,-21.6399"/>
<polygon fill="red" stroke="red" stroke-width="0.22527" points="494.291,-25.0247 503.126,-19.1782 492.573,-18.2386 494.291,-25.0247"/>
</g>
<!-- &#45;8&#45;&gt;228 -->
<g id="edge30" class="edge"><title>&#45;8&#45;&gt;228</title>
<path fill="none" stroke="green" stroke-width="0.457794" d="M251.854,-159.617C245.922,-149.077 235.369,-130.326 226.543,-114.642"/>
<polygon fill="green" stroke="green" stroke-width="0.457794" points="229.548,-112.846 221.594,-105.847 223.448,-116.279 229.548,-112.846"/>
</g>
<!-- &#45;9 -->
<g id="node9" class="node"><title>&#45;9</title>
<polygon fill="lightgray" stroke="black" points="537.5,-177.874 513.5,-177.874 513.5,-159.874 537.5,-159.874 537.5,-177.874"/>
<text text-anchor="middle" x="525.5" y="-166.674" font-family="Times,serif" font-size="9.00">&#45;9</text>
</g>
<!-- &#45;9&#45;&gt;0 -->
<g id="edge34" class="edge"><title>&#45;9&#45;&gt;0</title>
<path fill="none" stroke="red" stroke-width="0.325991" d="M530.882,-159.803C534.693,-154.656 540.227,-148.209 546.5,-144.125 594.983,-112.559 662.46,-97.6262 698.484,-91.5179"/>
<polygon fill="red" stroke="red" stroke-width="0.325991" points="699.279,-94.9353 708.599,-89.8968 698.171,-88.0235 699.279,-94.9353"/>
</g>
<!-- &#45;9&#45;&gt;1 -->
<g id="edge12" class="edge"><title>&#45;9&#45;&gt;1</title>
<path fill="none" stroke="green" stroke-width="0.668023" d="M518.376,-159.617C507.605,-147.135 486.898,-123.14 472.418,-106.358"/>
<polygon fill="green" stroke="green" stroke-width="0.668023" points="475.063,-104.066 465.88,-98.7815 469.763,-108.639 475.063,-104.066"/>
</g>
<!-- &#45;10 -->
<g id="node10" class="node"><title>&#45;10</title>
<polygon fill="lightgray" stroke="black" points="1079,-177.874 1050,-177.874 1050,-159.874 1079,-159.874 1079,-177.874"/>
<text text-anchor="middle" x="1064.5" y="-166.674" font-family="Times,serif" font-size="9.00">&#45;10</text>
</g>
<!-- &#45;10&#45;&gt;2 -->
<g id="edge3" class="edge"><title>&#45;10&#45;&gt;2</title>
<path fill="none" stroke="green" stroke-width="0.624988" d="M1056.64,-159.805C1052.03,-155.137 1046.03,-149.2 1040.5,-144.125 1025.22,-130.096 1007.27,-114.881 993.944,-103.822"/>
<polygon fill="green" stroke="green" stroke-width="0.624988" points="995.873,-100.876 985.932,-97.2095 991.417,-106.275 995.873,-100.876"/>
</g>
<!-- &#45;11 -->
<g id="node11" class="node"><title>&#45;11</title>
<polygon fill="lightgray" stroke="black" points="29,-177.874 0,-177.874 0,-159.874 29,-159.874 29,-177.874"/>
<text text-anchor="middle" x="14.5" y="-166.674" font-family="Times,serif" font-size="9.00">&#45;11</text>
</g>
<!-- &#45;11&#45;&gt;228 -->
<g id="edge33" class="edge"><title>&#45;11&#45;&gt;228</title>
<path fill="none" stroke="green" stroke-width="0.116601" d="M20.8886,-159.845C25.3439,-154.716 31.6918,-148.272 38.5,-144.125 84.0346,-116.385 144.755,-100.785 180.825,-93.377"/>
<polygon fill="green" stroke="green" stroke-width="0.116601" points="181.615,-96.7887 190.748,-91.4189 180.26,-89.9211 181.615,-96.7887"/>
</g>
<!-- &#45;12 -->
<g id="node12" class="node"><title>&#45;12</title>
<polygon fill="lightgray" stroke="black" points="895,-177.874 866,-177.874 866,-159.874 895,-159.874 895,-177.874"/>
<text text-anchor="middle" x="880.5" y="-166.674" font-family="Times,serif" font-size="9.00">&#45;12</text>
</g>
<!-- &#45;12&#45;&gt;0 -->
<g id="edge8" class="edge"><title>&#45;12&#45;&gt;0</title>
<path fill="none" stroke="red" stroke-width="0.106209" d="M873.942,-159.564C869.676,-154.579 863.756,-148.399 857.5,-144.125 822.404,-120.15 775.465,-103.385 747.472,-94.7236"/>
<polygon fill="red" stroke="red" stroke-width="0.106209" points="748.319,-91.3237 737.735,-91.8028 746.308,-98.0285 748.319,-91.3237"/>
</g>
<!-- &#45;13 -->
<g id="node13" class="node"><title>&#45;13</title>
<polygon fill="lightgray" stroke="black" points="942,-177.874 913,-177.874 913,-159.874 942,-159.874 942,-177.874"/>
<text text-anchor="middle" x="927.5" y="-166.674" font-family="Times,serif" font-size="9.00">&#45;13</text>
</g>
<!-- &#45;13&#45;&gt;0 -->
<g id="edge55" class="edge"><title>&#45;13&#45;&gt;0</title>
<path fill="none" stroke="red" stroke-width="0.464799" d="M921.46,-159.806C917.225,-154.66 911.15,-148.213 904.5,-144.125 853.95,-113.044 784.796,-97.8569 748.336,-91.5949"/>
<polygon fill="red" stroke="red" stroke-width="0.464799" points="748.561,-88.0854 738.128,-89.9304 747.434,-94.9941 748.561,-88.0854"/>
</g>
<!-- &#45;14 -->
<g id="node14" class="node"><title>&#45;14</title>
<polygon fill="lightgray" stroke="black" points="448,-177.874 419,-177.874 419,-159.874 448,-159.874 448,-177.874"/>
<text text-anchor="middle" x="433.5" y="-166.674" font-family="Times,serif" font-size="9.00">&#45;14</text>
</g>
<!-- &#45;14&#45;&gt;0 -->
<g id="edge42" class="edge"><title>&#45;14&#45;&gt;0</title>
<path fill="none" stroke="green" stroke-width="0.204337" d="M439.419,-159.598C443.602,-154.365 449.666,-147.898 456.5,-144.125 461.878,-141.156 633.947,-106.07 698.957,-92.8811"/>
<polygon fill="green" stroke="green" stroke-width="0.204337" points="700.006,-96.2396 709.112,-90.8225 698.615,-89.3792 700.006,-96.2396"/>
</g>
<!-- &#45;14&#45;&gt;1 -->
<g id="edge57" class="edge"><title>&#45;14&#45;&gt;1</title>
<path fill="none" stroke="green" stroke-width="0.113521" d="M435.875,-159.617C439.132,-148.292 445.117,-127.487 449.803,-111.194"/>
<polygon fill="green" stroke="green" stroke-width="0.113521" points="453.253,-111.861 452.654,-101.283 446.526,-109.926 453.253,-111.861"/>
</g>
<!-- &#45;14&#45;&gt;3 -->
<g id="edge11" class="edge"><title>&#45;14&#45;&gt;3</title>
<path fill="none" stroke="green" stroke-width="0.251413" d="M425.617,-159.533C413.085,-146.049 389.608,-119.798 385.5,-108.125 379.24,-90.3381 374.778,-81.2093 385.5,-65.6985 409.549,-30.91 461.195,-20.372 492.279,-17.1978"/>
<polygon fill="green" stroke="green" stroke-width="0.251413" points="492.664,-20.6778 502.337,-16.3545 492.079,-13.7023 492.664,-20.6778"/>
</g>
<!-- &#45;15 -->
<g id="node15" class="node"><title>&#45;15</title>
<polygon fill="lightgray" stroke="black" points="424,-95.9117 395,-95.9117 395,-77.9117 424,-77.9117 424,-95.9117"/>
<text text-anchor="middle" x="409.5" y="-84.7117" font-family="Times,serif" font-size="9.00">&#45;15</text>
</g>
<!-- &#45;15&#45;&gt;3 -->
<g id="edge53" class="edge"><title>&#45;15&#45;&gt;3</title>
<path fill="none" stroke="green" stroke-width="0.304162" d="M418.128,-77.6283C422.311,-73.7988 427.502,-69.31 432.5,-65.6985 452.975,-50.9044 478.108,-36.5925 495.715,-27.1282"/>
<polygon fill="green" stroke="green" stroke-width="0.304162" points="497.447,-30.1715 504.644,-22.3968 494.169,-23.9861 497.447,-30.1715"/>
</g>
<!-- &#45;16 -->
<g id="node16" class="node"><title>&#45;16</title>
<polygon fill="lightgray" stroke="black" points="495,-177.874 466,-177.874 466,-159.874 495,-159.874 495,-177.874"/>
<text text-anchor="middle" x="480.5" y="-166.674" font-family="Times,serif" font-size="9.00">&#45;16</text>
</g>
<!-- &#45;16&#45;&gt;1 -->
<g id="edge31" class="edge"><title>&#45;16&#45;&gt;1</title>
<path fill="none" stroke="green" stroke-width="0.181136" d="M478.022,-159.617C474.623,-148.292 468.378,-127.487 463.488,-111.194"/>
<polygon fill="green" stroke="green" stroke-width="0.181136" points="466.74,-109.855 460.513,-101.283 460.036,-111.867 466.74,-109.855"/>
</g>
<!-- &#45;16&#45;&gt;3 -->
<g id="edge7" class="edge"><title>&#45;16&#45;&gt;3</title>
<path fill="none" stroke="red" stroke-width="0.139465" d="M483.177,-159.82C486.915,-148.403 493.769,-126.819 498.5,-108.125 504.336,-85.0613 509.674,-58.4172 513.196,-39.7069"/>
<polygon fill="red" stroke="red" stroke-width="0.139465" points="516.67,-40.1645 515.05,-29.6944 509.787,-38.8901 516.67,-40.1645"/>
</g>
<!-- &#45;17 -->
<g id="node17" class="node"><title>&#45;17</title>
<polygon fill="lightgray" stroke="black" points="585,-177.874 556,-177.874 556,-159.874 585,-159.874 585,-177.874"/>
<text text-anchor="middle" x="570.5" y="-166.674" font-family="Times,serif" font-size="9.00">&#45;17</text>
</g>
<!-- &#45;17&#45;&gt;0 -->
<g id="edge27" class="edge"><title>&#45;17&#45;&gt;0</title>
<path fill="none" stroke="red" stroke-width="0.382317" d="M577.429,-159.611C581.914,-154.644 588.095,-148.465 594.5,-144.125 628.244,-121.259 672.801,-104.321 699.741,-95.296"/>
<polygon fill="red" stroke="red" stroke-width="0.382317" points="701.048,-98.5512 709.471,-92.1251 698.879,-91.8957 701.048,-98.5512"/>
</g>
<!-- &#45;17&#45;&gt;1 -->
<g id="edge51" class="edge"><title>&#45;17&#45;&gt;1</title>
<path fill="none" stroke="green" stroke-width="0.118235" d="M562.914,-159.49C558.385,-154.717 552.385,-148.78 546.5,-144.125 524.599,-126.801 497.08,-110.285 478.275,-99.6932"/>
<polygon fill="green" stroke="green" stroke-width="0.118235" points="479.754,-96.5111 469.311,-94.7216 476.359,-102.633 479.754,-96.5111"/>
</g>
<!-- &#45;18 -->
<g id="node18" class="node"><title>&#45;18</title>
<polygon fill="lightgray" stroke="black" points="226,-177.874 197,-177.874 197,-159.874 226,-159.874 226,-177.874"/>
<text text-anchor="middle" x="211.5" y="-166.674" font-family="Times,serif" font-size="9.00">&#45;18</text>
</g>
<!-- &#45;18&#45;&gt;0 -->
<g id="edge22" class="edge"><title>&#45;18&#45;&gt;0</title>
<path fill="none" stroke="green" stroke-width="0.353307" d="M217.237,-159.802C221.583,-154.372 228.063,-147.595 235.5,-144.125 313.57,-107.698 536.246,-120.514 621.5,-108.125 648.275,-104.234 678.66,-97.9707 699.251,-93.4466"/>
<polygon fill="green" stroke="green" stroke-width="0.353307" points="700.056,-96.8532 709.054,-91.2611 698.532,-90.0209 700.056,-96.8532"/>
</g>
<!-- &#45;18&#45;&gt;228 -->
<g id="edge19" class="edge"><title>&#45;18&#45;&gt;228</title>
<path fill="none" stroke="green" stroke-width="0.380569" d="M211.5,-159.617C211.5,-149.985 211.5,-133.495 211.5,-118.755"/>
<polygon fill="green" stroke="green" stroke-width="0.380569" points="215,-118.455 211.5,-108.455 208,-118.455 215,-118.455"/>
</g>
<!-- &#45;19 -->
<g id="node19" class="node"><title>&#45;19</title>
<polygon fill="lightgray" stroke="black" points="613,-95.9117 584,-95.9117 584,-77.9117 613,-77.9117 613,-95.9117"/>
<text text-anchor="middle" x="598.5" y="-84.7117" font-family="Times,serif" font-size="9.00">&#45;19</text>
</g>
<!-- &#45;19&#45;&gt;3 -->
<g id="edge4" class="edge"><title>&#45;19&#45;&gt;3</title>
<path fill="none" stroke="green" stroke-width="0.177105" d="M589.208,-77.8746C576.398,-66.7944 553.019,-46.5723 536.442,-32.2332"/>
<polygon fill="green" stroke="green" stroke-width="0.177105" points="538.338,-29.2454 528.485,-25.3506 533.758,-34.5397 538.338,-29.2454"/>
</g>
<!-- &#45;20 -->
<g id="node20" class="node"><title>&#45;20</title>
<polygon fill="lightgray" stroke="black" points="1169,-177.874 1140,-177.874 1140,-159.874 1169,-159.874 1169,-177.874"/>
<text text-anchor="middle" x="1154.5" y="-166.674" font-family="Times,serif" font-size="9.00">&#45;20</text>
</g>
<!-- &#45;20&#45;&gt;2 -->
<g id="edge1" class="edge"><title>&#45;20&#45;&gt;2</title>
<path fill="none" stroke="red" stroke-width="0.103049" d="M1147.67,-159.462C1143.22,-154.44 1137.04,-148.255 1130.5,-144.125 1088.07,-117.344 1031.1,-100.973 999.061,-93.2508"/>
<polygon fill="red" stroke="red" stroke-width="0.103049" points="999.74,-89.8156 989.208,-90.961 998.156,-96.6339 999.74,-89.8156"/>
</g>
<!-- &#45;21 -->
<g id="node21" class="node"><title>&#45;21</title>
<polygon fill="lightgray" stroke="black" points="848,-177.874 819,-177.874 819,-159.874 848,-159.874 848,-177.874"/>
<text text-anchor="middle" x="833.5" y="-166.674" font-family="Times,serif" font-size="9.00">&#45;21</text>
</g>
<!-- &#45;21&#45;&gt;0 -->
<g id="edge16" class="edge"><title>&#45;21&#45;&gt;0</title>
<path fill="none" stroke="red" stroke-width="0.240193" d="M826.258,-159.496C821.928,-154.725 816.178,-148.787 810.5,-144.125 789.553,-126.923 763.113,-110.491 744.91,-99.8848"/>
<polygon fill="red" stroke="red" stroke-width="0.240193" points="746.63,-96.8365 736.214,-94.8964 743.147,-102.908 746.63,-96.8365"/>
</g>
<!-- &#45;21&#45;&gt;1 -->
<g id="edge9" class="edge"><title>&#45;21&#45;&gt;1</title>
<path fill="none" stroke="red" stroke-width="0.127804" d="M827.649,-159.471C823.494,-154.183 817.437,-147.705 810.5,-144.125 716.212,-95.4688 679.238,-125.083 574.5,-108.125 542.118,-102.882 504.813,-96.4209 480.964,-92.2364"/>
<polygon fill="red" stroke="red" stroke-width="0.127804" points="481.474,-88.7725 471.019,-90.4866 480.261,-95.6666 481.474,-88.7725"/>
</g>
<!-- &#45;21&#45;&gt;2 -->
<g id="edge48" class="edge"><title>&#45;21&#45;&gt;2</title>
<path fill="none" stroke="red" stroke-width="0.109502" d="M840.486,-159.693C844.993,-154.758 851.176,-148.583 857.5,-144.125 887.477,-122.994 926.626,-106.011 951.17,-96.4425"/>
<polygon fill="red" stroke="red" stroke-width="0.109502" points="952.624,-99.6339 960.725,-92.8052 950.134,-93.0919 952.624,-99.6339"/>
</g>
<!-- &#45;22 -->
<g id="node22" class="node"><title>&#45;22</title>
<polygon fill="lightgray" stroke="black" points="179,-177.874 150,-177.874 150,-159.874 179,-159.874 179,-177.874"/>
<text text-anchor="middle" x="164.5" y="-166.674" font-family="Times,serif" font-size="9.00">&#45;22</text>
</g>
<!-- &#45;22&#45;&gt;1 -->
<g id="edge18" class="edge"><title>&#45;22&#45;&gt;1</title>
<path fill="none" stroke="red" stroke-width="0.314126" d="M170.344,-159.458C174.496,-154.166 180.553,-147.686 187.5,-144.125 285.442,-93.9229 332.139,-153.296 432.5,-108.125 434.599,-107.18 436.659,-105.997 438.635,-104.679"/>
<polygon fill="red" stroke="red" stroke-width="0.314126" points="440.949,-107.312 446.629,-98.3682 436.611,-101.818 440.949,-107.312"/>
</g>
<!-- &#45;22&#45;&gt;228 -->
<g id="edge25" class="edge"><title>&#45;22&#45;&gt;228</title>
<path fill="none" stroke="red" stroke-width="0.323525" d="M169.353,-159.617C175.588,-149.01 186.71,-130.088 195.963,-114.345"/>
<polygon fill="red" stroke="red" stroke-width="0.323525" points="199.095,-115.924 201.145,-105.529 193.06,-112.377 199.095,-115.924"/>
</g>
<!-- &#45;23 -->
<g id="node23" class="node"><title>&#45;23</title>
<polygon fill="lightgray" stroke="black" points="989,-177.874 960,-177.874 960,-159.874 989,-159.874 989,-177.874"/>
<text text-anchor="middle" x="974.5" y="-166.674" font-family="Times,serif" font-size="9.00">&#45;23</text>
</g>
<!-- &#45;23&#45;&gt;0 -->
<g id="edge2" class="edge"><title>&#45;23&#45;&gt;0</title>
<path fill="none" stroke="red" stroke-width="0.223094" d="M968.538,-159.675C964.336,-154.474 958.268,-148.014 951.5,-144.125 916.519,-124.023 799.345,-101.404 747.979,-92.1748"/>
<polygon fill="red" stroke="red" stroke-width="0.223094" points="748.528,-88.7177 738.07,-90.4145 747.304,-95.6097 748.528,-88.7177"/>
</g>
<!-- &#45;23&#45;&gt;1 -->
<g id="edge45" class="edge"><title>&#45;23&#45;&gt;1</title>
<path fill="none" stroke="red" stroke-width="0.43" d="M969.073,-159.81C964.941,-154.384 958.742,-147.608 951.5,-144.125 875.658,-107.647 657.922,-119.237 574.5,-108.125 541.983,-103.793 504.71,-97.12 480.904,-92.6386"/>
<polygon fill="red" stroke="red" stroke-width="0.43" points="481.458,-89.1811 470.98,-90.7501 480.149,-96.0578 481.458,-89.1811"/>
</g>
<!-- &#45;23&#45;&gt;2 -->
<g id="edge26" class="edge"><title>&#45;23&#45;&gt;2</title>
<path fill="none" stroke="green" stroke-width="0.159397" d="M974.5,-159.617C974.5,-148.53 974.5,-128.356 974.5,-112.225"/>
<polygon fill="green" stroke="green" stroke-width="0.159397" points="978,-111.864 974.5,-101.864 971,-111.864 978,-111.864"/>
</g>
<!-- &#45;23&#45;&gt;3 -->
<g id="edge15" class="edge"><title>&#45;23&#45;&gt;3</title>
<path fill="none" stroke="red" stroke-width="0.344731" d="M967.939,-159.568C963.672,-154.585 957.752,-148.404 951.5,-144.125 877.466,-93.4518 851.242,-92.0991 765.5,-65.6985 685.623,-41.1039 587.453,-25.5279 542.331,-19.1535"/>
<polygon fill="red" stroke="red" stroke-width="0.344731" points="542.676,-15.6681 532.291,-17.7645 541.717,-22.602 542.676,-15.6681"/>
</g>
<!-- &#45;24 -->
<g id="node24" class="node"><title>&#45;24</title>
<polygon fill="lightgray" stroke="black" points="316,-177.874 287,-177.874 287,-159.874 316,-159.874 316,-177.874"/>
<text text-anchor="middle" x="301.5" y="-166.674" font-family="Times,serif" font-size="9.00">&#45;24</text>
</g>
<!-- &#45;24&#45;&gt;1 -->
<g id="edge5" class="edge"><title>&#45;24&#45;&gt;1</title>
<path fill="none" stroke="red" stroke-width="0.262288" d="M307.903,-159.868C312.364,-154.749 318.713,-148.308 325.5,-144.125 368.214,-117.799 388.765,-132.718 432.5,-108.125 434.506,-106.997 436.504,-105.69 438.441,-104.296"/>
<polygon fill="red" stroke="red" stroke-width="0.262288" points="440.798,-106.891 446.387,-97.8906 436.405,-101.441 440.798,-106.891"/>
</g>
<!-- 0&#45;&gt;0 -->
<g id="edge24" class="edge"><title>0&#45;&gt;0</title>
<path fill="none" stroke="red" stroke-width="0.406232" d="M734.267,-97.6398C744.789,-103.566 756.349,-99.9898 756.349,-86.9117 756.349,-77.9205 750.885,-73.4205 744.051,-73.4117"/>
<polygon fill="red" stroke="red" stroke-width="0.406232" points="742.934,-70.0903 734.267,-76.1835 744.842,-76.8252 742.934,-70.0903"/>
</g>
<!-- 1&#45;&gt;1 -->
<g id="edge21" class="edge"><title>1&#45;&gt;1</title>
<path fill="none" stroke="red" stroke-width="0.133166" d="M467.267,-97.6398C477.789,-103.566 489.349,-99.9898 489.349,-86.9117 489.349,-77.9205 483.885,-73.4205 477.051,-73.4117"/>
<polygon fill="red" stroke="red" stroke-width="0.133166" points="475.934,-70.0903 467.267,-76.1835 477.842,-76.8252 475.934,-70.0903"/>
</g>
<!-- 3&#45;&gt;3 -->
<g id="edge14" class="edge"><title>3&#45;&gt;3</title>
<path fill="none" stroke="red" stroke-width="0.222471" d="M528.267,-25.5774C538.789,-31.5034 550.349,-27.9274 550.349,-14.8492 550.349,-5.85803 544.885,-1.35804 538.051,-1.34926"/>
<polygon fill="red" stroke="red" stroke-width="0.222471" points="536.934,1.97218 528.267,-4.12109 538.842,-4.76277 536.934,1.97218"/>
</g>
<!-- 228&#45;&gt;3 -->
<g id="edge35" class="edge"><title>228&#45;&gt;3</title>
<path fill="none" stroke="red" stroke-width="0.246522" d="M231.063,-78.1918C241.962,-74.0899 255.848,-69.1889 268.5,-65.6985 349.38,-43.3854 447.614,-26.6987 492.704,-19.6042"/>
<polygon fill="red" stroke="red" stroke-width="0.246522" points="493.389,-23.0398 502.734,-18.0471 492.315,-16.1227 493.389,-23.0398"/>
</g>
<!-- 801 -->
<g id="node30" class="node"><title>801</title>
<ellipse fill="white" stroke="black" cx="110.5" cy="-168.874" rx="21.4286" ry="21.4286"/>
<text text-anchor="middle" x="110.5" y="-166.674" font-family="Times,serif" font-size="9.00">801</text>
</g>
<!-- 801&#45;&gt;228 -->
<g id="edge29" class="edge"><title>801&#45;&gt;228</title>
<path fill="none" stroke="green" stroke-width="0.166836" d="M126.727,-155.026C143.072,-142.086 168.485,-121.966 187.228,-107.128"/>
<polygon fill="green" stroke="green" stroke-width="0.166836" points="189.645,-109.678 195.313,-100.727 185.3,-104.19 189.645,-109.678"/>
</g>
<!-- 1006&#45;&gt;0 -->
<g id="edge54" class="edge"><title>1006&#45;&gt;0</title>
<path fill="none" stroke="red" stroke-width="0.714418" d="M763.126,-147.696C755.111,-135.603 744.952,-120.277 736.927,-108.17"/>
<polygon fill="red" stroke="red" stroke-width="0.714418" points="739.72,-106.048 731.278,-99.6459 733.885,-109.915 739.72,-106.048"/>
</g>
<!-- 4792&#45;&gt;0 -->
<g id="edge44" class="edge"><title>4792&#45;&gt;0</title>
<path fill="none" stroke="green" stroke-width="0.459719" d="M683.874,-147.696C691.889,-135.603 702.048,-120.277 710.073,-108.17"/>
<polygon fill="green" stroke="green" stroke-width="0.459719" points="713.115,-109.915 715.722,-99.6459 707.28,-106.048 713.115,-109.915"/>
</g>
</g>
</svg>
