<?xml version="1.0" encoding="UTF-8" standalone="no"?>
<!DOCTYPE svg PUBLIC "-//W3C//DTD SVG 1.1//EN"
 "http://www.w3.org/Graphics/SVG/1.1/DTD/svg11.dtd">
<!-- Generated by graphviz version 2.38.0 (20140413.2041)
 -->
<!-- Title: %3 Pages: 1 -->
<svg width="1079pt" height="92pt"
 viewBox="0.00 0.00 1079.00 91.70" xmlns="http://www.w3.org/2000/svg" xmlns:xlink="http://www.w3.org/1999/xlink">
<g id="graph0" class="graph" transform="scale(1 1) rotate(0) translate(4 87.6985)">
<title>%3</title>
<polygon fill="white" stroke="none" points="-4,4 -4,-87.6985 1075,-87.6985 1075,4 -4,4"/>
<!-- &#45;1 -->
<g id="node1" class="node"><title>&#45;1</title>
<polygon fill="lightgray" stroke="black" points="345.5,-83.6985 321.5,-83.6985 321.5,-65.6985 345.5,-65.6985 345.5,-83.6985"/>
<text text-anchor="middle" x="333.5" y="-72.4985" font-family="Times,serif" font-size="9.00">&#45;1</text>
</g>
<!-- 0 -->
<g id="node25" class="node"><title>0</title>
<ellipse fill="lightblue" stroke="black" cx="218.5" cy="-14.8492" rx="14.7" ry="14.7"/>
<text text-anchor="middle" x="218.5" y="-12.6492" font-family="Times,serif" font-size="9.00">0</text>
</g>
<!-- &#45;1&#45;&gt;0 -->
<g id="edge8" class="edge"><title>&#45;1&#45;&gt;0</title>
<path fill="none" stroke="green" stroke-width="1.37214" d="M321.193,-67.5076C301.943,-57.824 264.436,-38.9569 240.471,-26.9015"/>
<polygon fill="green" stroke="green" stroke-width="1.37214" points="241.926,-23.7155 231.42,-22.3483 238.78,-29.9689 241.926,-23.7155"/>
</g>
<!-- 2 -->
<g id="node27" class="node"><title>2</title>
<ellipse fill="lightblue" stroke="black" cx="518.5" cy="-14.8492" rx="14.7" ry="14.7"/>
<text text-anchor="middle" x="518.5" y="-12.6492" font-family="Times,serif" font-size="9.00">2</text>
</g>
<!-- &#45;1&#45;&gt;2 -->
<g id="edge20" class="edge"><title>&#45;1&#45;&gt;2</title>
<path fill="none" stroke="red" stroke-width="0.13485" d="M345.533,-69.0883C348.75,-67.9203 352.24,-66.7109 355.5,-65.6985 416.445,-46.7726 435.437,-53.8661 494.5,-29.6985 495.357,-29.3478 496.221,-28.9715 497.086,-28.5755"/>
<polygon fill="red" stroke="red" stroke-width="0.13485" points="498.886,-31.5836 506.12,-23.8428 495.638,-25.3829 498.886,-31.5836"/>
</g>
<!-- &#45;2 -->
<g id="node2" class="node"><title>&#45;2</title>
<polygon fill="lightgray" stroke="black" points="208.5,-83.6985 184.5,-83.6985 184.5,-65.6985 208.5,-65.6985 208.5,-83.6985"/>
<text text-anchor="middle" x="196.5" y="-72.4985" font-family="Times,serif" font-size="9.00">&#45;2</text>
</g>
<!-- &#45;2&#45;&gt;0 -->
<g id="edge2" class="edge"><title>&#45;2&#45;&gt;0</title>
<path fill="none" stroke="green" stroke-width="0.585904" d="M199.559,-65.6548C202.223,-58.6501 206.217,-48.1471 209.852,-38.5892"/>
<polygon fill="green" stroke="green" stroke-width="0.585904" points="213.156,-39.7484 213.439,-29.1573 206.613,-37.2601 213.156,-39.7484"/>
</g>
<!-- 3 -->
<g id="node28" class="node"><title>3</title>
<ellipse fill="lightblue" stroke="black" cx="470.5" cy="-14.8492" rx="14.7" ry="14.7"/>
<text text-anchor="middle" x="470.5" y="-12.6492" font-family="Times,serif" font-size="9.00">3</text>
</g>
<!-- &#45;2&#45;&gt;3 -->
<g id="edge26" class="edge"><title>&#45;2&#45;&gt;3</title>
<path fill="none" stroke="red" stroke-width="1.76042" d="M208.957,-68.7927C212.045,-67.6809 215.368,-66.5721 218.5,-65.6985 300.451,-42.8386 400.203,-26.3667 445.717,-19.4567"/>
<polygon fill="red" stroke="red" stroke-width="1.76042" points="446.456,-22.8852 455.828,-17.9443 445.42,-15.9622 446.456,-22.8852"/>
</g>
<!-- &#45;3 -->
<g id="node3" class="node"><title>&#45;3</title>
<polygon fill="lightgray" stroke="black" points="661.5,-83.6985 637.5,-83.6985 637.5,-65.6985 661.5,-65.6985 661.5,-83.6985"/>
<text text-anchor="middle" x="649.5" y="-72.4985" font-family="Times,serif" font-size="9.00">&#45;3</text>
</g>
<!-- &#45;3&#45;&gt;2 -->
<g id="edge14" class="edge"><title>&#45;3&#45;&gt;2</title>
<path fill="none" stroke="red" stroke-width="0.111768" d="M637.411,-68.3599C615.523,-58.6942 569.013,-38.1558 541.088,-25.8242"/>
<polygon fill="red" stroke="red" stroke-width="0.111768" points="542.283,-22.5256 531.721,-21.6877 539.455,-28.9291 542.283,-22.5256"/>
</g>
<!-- &#45;4 -->
<g id="node4" class="node"><title>&#45;4</title>
<polygon fill="lightgray" stroke="black" points="529.5,-83.6985 505.5,-83.6985 505.5,-65.6985 529.5,-65.6985 529.5,-83.6985"/>
<text text-anchor="middle" x="517.5" y="-72.4985" font-family="Times,serif" font-size="9.00">&#45;4</text>
</g>
<!-- &#45;4&#45;&gt;0 -->
<g id="edge22" class="edge"><title>&#45;4&#45;&gt;0</title>
<path fill="none" stroke="red" stroke-width="0.919232" d="M505.191,-68.5711C502.369,-67.5186 499.357,-66.4914 496.5,-65.6985 404.695,-40.2211 292.099,-24.7011 243.16,-18.7003"/>
<polygon fill="red" stroke="red" stroke-width="0.919232" points="243.531,-15.2198 233.185,-17.5019 242.696,-22.1698 243.531,-15.2198"/>
</g>
<!-- 1 -->
<g id="node26" class="node"><title>1</title>
<ellipse fill="lightblue" stroke="black" cx="604.5" cy="-14.8492" rx="14.7" ry="14.7"/>
<text text-anchor="middle" x="604.5" y="-12.6492" font-family="Times,serif" font-size="9.00">1</text>
</g>
<!-- &#45;4&#45;&gt;1 -->
<g id="edge31" class="edge"><title>&#45;4&#45;&gt;1</title>
<path fill="none" stroke="green" stroke-width="0.154381" d="M529.597,-65.6548C543.621,-56.3294 566.971,-40.8037 583.877,-29.5624"/>
<polygon fill="green" stroke="green" stroke-width="0.154381" points="586.117,-32.2762 592.506,-23.8246 582.241,-26.4472 586.117,-32.2762"/>
</g>
<!-- &#45;4&#45;&gt;2 -->
<g id="edge6" class="edge"><title>&#45;4&#45;&gt;2</title>
<path fill="none" stroke="red" stroke-width="0.272079" d="M517.639,-65.6548C517.753,-59.0498 517.921,-49.3344 518.078,-40.2339"/>
<polygon fill="red" stroke="red" stroke-width="0.272079" points="521.581,-40.1153 518.254,-30.0563 514.582,-39.9943 521.581,-40.1153"/>
</g>
<!-- &#45;4&#45;&gt;3 -->
<g id="edge11" class="edge"><title>&#45;4&#45;&gt;3</title>
<path fill="none" stroke="green" stroke-width="0.921652" d="M510.965,-65.6548C504.516,-57.7178 494.419,-45.2891 485.924,-34.8334"/>
<polygon fill="green" stroke="green" stroke-width="0.921652" points="488.577,-32.5489 479.555,-26.9946 483.144,-36.9629 488.577,-32.5489"/>
</g>
<!-- &#45;5 -->
<g id="node5" class="node"><title>&#45;5</title>
<polygon fill="lightgray" stroke="black" points="118.5,-83.6985 94.5,-83.6985 94.5,-65.6985 118.5,-65.6985 118.5,-83.6985"/>
<text text-anchor="middle" x="106.5" y="-72.4985" font-family="Times,serif" font-size="9.00">&#45;5</text>
</g>
<!-- &#45;5&#45;&gt;0 -->
<g id="edge19" class="edge"><title>&#45;5&#45;&gt;0</title>
<path fill="none" stroke="red" stroke-width="0.621185" d="M118.914,-67.2866C137.652,-57.6082 173.428,-39.1292 196.609,-27.1561"/>
<polygon fill="red" stroke="red" stroke-width="0.621185" points="198.408,-30.1665 205.686,-22.4677 195.195,-23.9471 198.408,-30.1665"/>
</g>
<!-- &#45;6 -->
<g id="node6" class="node"><title>&#45;6</title>
<polygon fill="lightgray" stroke="black" points="845.5,-83.6985 821.5,-83.6985 821.5,-65.6985 845.5,-65.6985 845.5,-83.6985"/>
<text text-anchor="middle" x="833.5" y="-72.4985" font-family="Times,serif" font-size="9.00">&#45;6</text>
</g>
<!-- &#45;7 -->
<g id="node7" class="node"><title>&#45;7</title>
<polygon fill="lightgray" stroke="black" points="571.5,-83.6985 547.5,-83.6985 547.5,-65.6985 571.5,-65.6985 571.5,-83.6985"/>
<text text-anchor="middle" x="559.5" y="-72.4985" font-family="Times,serif" font-size="9.00">&#45;7</text>
</g>
<!-- &#45;7&#45;&gt;1 -->
<g id="edge18" class="edge"><title>&#45;7&#45;&gt;1</title>
<path fill="none" stroke="green" stroke-width="0.277021" d="M565.757,-65.6548C571.87,-57.7964 581.408,-45.5348 589.49,-35.1446"/>
<polygon fill="green" stroke="green" stroke-width="0.277021" points="592.453,-37.0367 595.83,-26.9946 586.928,-32.7387 592.453,-37.0367"/>
</g>
<!-- &#45;7&#45;&gt;3 -->
<g id="edge16" class="edge"><title>&#45;7&#45;&gt;3</title>
<path fill="none" stroke="green" stroke-width="0.21273" d="M547.497,-65.8967C533.032,-56.4946 508.495,-40.5455 491.008,-29.1793"/>
<polygon fill="green" stroke="green" stroke-width="0.21273" points="492.889,-26.2275 482.597,-23.7122 489.074,-32.0966 492.889,-26.2275"/>
</g>
<!-- &#45;8 -->
<g id="node8" class="node"><title>&#45;8</title>
<polygon fill="lightgray" stroke="black" points="887.5,-83.6985 863.5,-83.6985 863.5,-65.6985 887.5,-65.6985 887.5,-83.6985"/>
<text text-anchor="middle" x="875.5" y="-72.4985" font-family="Times,serif" font-size="9.00">&#45;8</text>
</g>
<!-- &#45;9 -->
<g id="node9" class="node"><title>&#45;9</title>
<polygon fill="lightgray" stroke="black" points="929.5,-83.6985 905.5,-83.6985 905.5,-65.6985 929.5,-65.6985 929.5,-83.6985"/>
<text text-anchor="middle" x="917.5" y="-72.4985" font-family="Times,serif" font-size="9.00">&#45;9</text>
</g>
<!-- &#45;10 -->
<g id="node10" class="node"><title>&#45;10</title>
<polygon fill="lightgray" stroke="black" points="166,-83.6985 137,-83.6985 137,-65.6985 166,-65.6985 166,-83.6985"/>
<text text-anchor="middle" x="151.5" y="-72.4985" font-family="Times,serif" font-size="9.00">&#45;10</text>
</g>
<!-- &#45;10&#45;&gt;0 -->
<g id="edge15" class="edge"><title>&#45;10&#45;&gt;0</title>
<path fill="none" stroke="red" stroke-width="0.104045" d="M160.816,-65.6548C170.845,-56.996 187.064,-42.9914 199.754,-32.0346"/>
<polygon fill="red" stroke="red" stroke-width="0.104045" points="202.202,-34.5458 207.483,-25.3614 197.627,-29.2475 202.202,-34.5458"/>
</g>
<!-- &#45;11 -->
<g id="node11" class="node"><title>&#45;11</title>
<polygon fill="lightgray" stroke="black" points="256,-83.6985 227,-83.6985 227,-65.6985 256,-65.6985 256,-83.6985"/>
<text text-anchor="middle" x="241.5" y="-72.4985" font-family="Times,serif" font-size="9.00">&#45;11</text>
</g>
<!-- &#45;11&#45;&gt;0 -->
<g id="edge9" class="edge"><title>&#45;11&#45;&gt;0</title>
<path fill="none" stroke="red" stroke-width="0.201034" d="M238.302,-65.6548C235.517,-58.6501 231.341,-48.1471 227.541,-38.5892"/>
<polygon fill="red" stroke="red" stroke-width="0.201034" points="230.738,-37.1567 223.791,-29.1573 224.233,-39.7429 230.738,-37.1567"/>
</g>
<!-- &#45;11&#45;&gt;2 -->
<g id="edge29" class="edge"><title>&#45;11&#45;&gt;2</title>
<path fill="none" stroke="red" stroke-width="0.272239" d="M256.111,-68.4004C259.185,-67.4067 262.427,-66.4466 265.5,-65.6985 365.603,-41.3246 397.358,-64.0231 494.5,-29.6985 495.373,-29.39 496.251,-29.0495 497.127,-28.6837"/>
<polygon fill="red" stroke="red" stroke-width="0.272239" points="498.868,-31.7255 506.215,-24.0919 495.711,-25.4777 498.868,-31.7255"/>
</g>
<!-- &#45;12 -->
<g id="node12" class="node"><title>&#45;12</title>
<polygon fill="lightgray" stroke="black" points="440,-83.6985 411,-83.6985 411,-65.6985 440,-65.6985 440,-83.6985"/>
<text text-anchor="middle" x="425.5" y="-72.4985" font-family="Times,serif" font-size="9.00">&#45;12</text>
</g>
<!-- &#45;12&#45;&gt;3 -->
<g id="edge25" class="edge"><title>&#45;12&#45;&gt;3</title>
<path fill="none" stroke="red" stroke-width="0.590601" d="M431.757,-65.6548C437.87,-57.7964 447.408,-45.5348 455.49,-35.1446"/>
<polygon fill="red" stroke="red" stroke-width="0.590601" points="458.453,-37.0367 461.83,-26.9946 452.928,-32.7387 458.453,-37.0367"/>
</g>
<!-- &#45;13 -->
<g id="node13" class="node"><title>&#45;13</title>
<polygon fill="lightgray" stroke="black" points="977,-83.6985 948,-83.6985 948,-65.6985 977,-65.6985 977,-83.6985"/>
<text text-anchor="middle" x="962.5" y="-72.4985" font-family="Times,serif" font-size="9.00">&#45;13</text>
</g>
<!-- &#45;14 -->
<g id="node14" class="node"><title>&#45;14</title>
<polygon fill="lightgray" stroke="black" points="1024,-83.6985 995,-83.6985 995,-65.6985 1024,-65.6985 1024,-83.6985"/>
<text text-anchor="middle" x="1009.5" y="-72.4985" font-family="Times,serif" font-size="9.00">&#45;14</text>
</g>
<!-- &#45;15 -->
<g id="node15" class="node"><title>&#45;15</title>
<polygon fill="lightgray" stroke="black" points="709,-83.6985 680,-83.6985 680,-65.6985 709,-65.6985 709,-83.6985"/>
<text text-anchor="middle" x="694.5" y="-72.4985" font-family="Times,serif" font-size="9.00">&#45;15</text>
</g>
<!-- &#45;15&#45;&gt;1 -->
<g id="edge10" class="edge"><title>&#45;15&#45;&gt;1</title>
<path fill="none" stroke="red" stroke-width="0.424308" d="M681.986,-65.6548C667.261,-56.1902 642.6,-40.3388 625.056,-29.0619"/>
<polygon fill="red" stroke="red" stroke-width="0.424308" points="626.925,-26.1026 616.62,-23.6398 623.14,-31.9911 626.925,-26.1026"/>
</g>
<!-- &#45;15&#45;&gt;2 -->
<g id="edge5" class="edge"><title>&#45;15&#45;&gt;2</title>
<path fill="none" stroke="red" stroke-width="0.126349" d="M679.781,-68.7795C676.714,-67.7583 673.502,-66.6912 670.5,-65.6985 624.977,-50.6468 571.725,-33.2249 541.872,-23.4753"/>
<polygon fill="red" stroke="red" stroke-width="0.126349" points="542.932,-20.1396 532.34,-20.3631 540.759,-26.794 542.932,-20.1396"/>
</g>
<!-- &#45;16 -->
<g id="node16" class="node"><title>&#45;16</title>
<polygon fill="lightgray" stroke="black" points="393,-83.6985 364,-83.6985 364,-65.6985 393,-65.6985 393,-83.6985"/>
<text text-anchor="middle" x="378.5" y="-72.4985" font-family="Times,serif" font-size="9.00">&#45;16</text>
</g>
<!-- &#45;16&#45;&gt;0 -->
<g id="edge13" class="edge"><title>&#45;16&#45;&gt;0</title>
<path fill="none" stroke="red" stroke-width="0.463612" d="M363.734,-68.3599C335.831,-58.2711 275.165,-36.3371 241.745,-24.2538"/>
<polygon fill="red" stroke="red" stroke-width="0.463612" points="242.909,-20.9528 232.315,-20.8441 240.529,-27.5358 242.909,-20.9528"/>
</g>
<!-- &#45;16&#45;&gt;1 -->
<g id="edge21" class="edge"><title>&#45;16&#45;&gt;1</title>
<path fill="none" stroke="red" stroke-width="0.386608" d="M393.165,-68.6041C396.235,-67.5956 399.462,-66.578 402.5,-65.6985 465.974,-47.3193 541.885,-29.7514 580.044,-21.2211"/>
<polygon fill="red" stroke="red" stroke-width="0.386608" points="581.189,-24.5522 590.192,-18.9671 579.671,-17.7187 581.189,-24.5522"/>
</g>
<!-- &#45;16&#45;&gt;3 -->
<g id="edge4" class="edge"><title>&#45;16&#45;&gt;3</title>
<path fill="none" stroke="green" stroke-width="0.211047" d="M391.292,-65.6548C406.344,-56.1902 431.553,-40.3388 449.487,-29.0619"/>
<polygon fill="green" stroke="green" stroke-width="0.211047" points="451.508,-31.9258 458.11,-23.6398 447.782,-26 451.508,-31.9258"/>
</g>
<!-- &#45;17 -->
<g id="node17" class="node"><title>&#45;17</title>
<polygon fill="lightgray" stroke="black" points="756,-83.6985 727,-83.6985 727,-65.6985 756,-65.6985 756,-83.6985"/>
<text text-anchor="middle" x="741.5" y="-72.4985" font-family="Times,serif" font-size="9.00">&#45;17</text>
</g>
<!-- &#45;17&#45;&gt;1 -->
<g id="edge30" class="edge"><title>&#45;17&#45;&gt;1</title>
<path fill="none" stroke="green" stroke-width="0.14045" d="M726.839,-67.5076C702.985,-57.4353 655.602,-37.4274 627.317,-25.4837"/>
<polygon fill="green" stroke="green" stroke-width="0.14045" points="628.413,-22.1473 617.839,-21.4816 625.69,-28.596 628.413,-22.1473"/>
</g>
<!-- &#45;18 -->
<g id="node18" class="node"><title>&#45;18</title>
<polygon fill="lightgray" stroke="black" points="29,-83.6985 0,-83.6985 0,-65.6985 29,-65.6985 29,-83.6985"/>
<text text-anchor="middle" x="14.5" y="-72.4985" font-family="Times,serif" font-size="9.00">&#45;18</text>
</g>
<!-- &#45;18&#45;&gt;0 -->
<g id="edge32" class="edge"><title>&#45;18&#45;&gt;0</title>
<path fill="none" stroke="red" stroke-width="0.283364" d="M29.0526,-68.4743C31.8455,-67.5178 34.755,-66.5528 37.5,-65.6985 93.3428,-48.3176 159.827,-30.8113 194.6,-21.8946"/>
<polygon fill="red" stroke="red" stroke-width="0.283364" points="195.502,-25.2766 204.326,-19.4128 193.771,-18.4939 195.502,-25.2766"/>
</g>
<!-- &#45;19 -->
<g id="node19" class="node"><title>&#45;19</title>
<polygon fill="lightgray" stroke="black" points="487,-83.6985 458,-83.6985 458,-65.6985 487,-65.6985 487,-83.6985"/>
<text text-anchor="middle" x="472.5" y="-72.4985" font-family="Times,serif" font-size="9.00">&#45;19</text>
</g>
<!-- &#45;19&#45;&gt;3 -->
<g id="edge3" class="edge"><title>&#45;19&#45;&gt;3</title>
<path fill="none" stroke="red" stroke-width="0.165895" d="M472.222,-65.6548C471.994,-59.0498 471.658,-49.3344 471.343,-40.2339"/>
<polygon fill="red" stroke="red" stroke-width="0.165895" points="474.835,-39.9294 470.991,-30.0563 467.839,-40.1713 474.835,-39.9294"/>
</g>
<!-- &#45;20 -->
<g id="node20" class="node"><title>&#45;20</title>
<polygon fill="lightgray" stroke="black" points="619,-83.6985 590,-83.6985 590,-65.6985 619,-65.6985 619,-83.6985"/>
<text text-anchor="middle" x="604.5" y="-72.4985" font-family="Times,serif" font-size="9.00">&#45;20</text>
</g>
<!-- &#45;20&#45;&gt;1 -->
<g id="edge23" class="edge"><title>&#45;20&#45;&gt;1</title>
<path fill="none" stroke="green" stroke-width="0.152751" d="M604.5,-65.6548C604.5,-59.0498 604.5,-49.3344 604.5,-40.2339"/>
<polygon fill="green" stroke="green" stroke-width="0.152751" points="608,-40.0563 604.5,-30.0563 601,-40.0564 608,-40.0563"/>
</g>
<!-- &#45;20&#45;&gt;2 -->
<g id="edge1" class="edge"><title>&#45;20&#45;&gt;2</title>
<path fill="none" stroke="green" stroke-width="0.226269" d="M592.542,-65.6548C578.679,-56.3294 555.598,-40.8037 538.886,-29.5624"/>
<polygon fill="green" stroke="green" stroke-width="0.226269" points="540.607,-26.502 530.356,-23.8246 536.7,-32.3102 540.607,-26.502"/>
</g>
<!-- &#45;20&#45;&gt;3 -->
<g id="edge7" class="edge"><title>&#45;20&#45;&gt;3</title>
<path fill="none" stroke="red" stroke-width="0.176541" d="M589.978,-68.6422C568.658,-61.0514 527.806,-45.8669 494.5,-29.6985 493.667,-29.2941 492.823,-28.8722 491.976,-28.4377"/>
<polygon fill="red" stroke="red" stroke-width="0.176541" points="493.472,-25.2666 483.022,-23.5255 490.106,-31.4038 493.472,-25.2666"/>
</g>
<!-- &#45;21 -->
<g id="node21" class="node"><title>&#45;21</title>
<polygon fill="lightgray" stroke="black" points="303,-83.6985 274,-83.6985 274,-65.6985 303,-65.6985 303,-83.6985"/>
<text text-anchor="middle" x="288.5" y="-72.4985" font-family="Times,serif" font-size="9.00">&#45;21</text>
</g>
<!-- &#45;21&#45;&gt;0 -->
<g id="edge12" class="edge"><title>&#45;21&#45;&gt;0</title>
<path fill="none" stroke="red" stroke-width="0.135265" d="M278.767,-65.6548C268.166,-56.8941 250.944,-42.6612 237.619,-31.6492"/>
<polygon fill="red" stroke="red" stroke-width="0.135265" points="239.472,-28.6402 229.534,-24.9678 235.013,-34.0361 239.472,-28.6402"/>
</g>
<!-- &#45;21&#45;&gt;2 -->
<g id="edge27" class="edge"><title>&#45;21&#45;&gt;2</title>
<path fill="none" stroke="green" stroke-width="0.468763" d="M303.135,-68.4939C306.207,-67.4934 309.443,-66.5069 312.5,-65.6985 392.216,-44.6189 417.31,-58.6938 494.5,-29.6985 495.367,-29.3728 496.239,-29.0179 497.111,-28.6398"/>
<polygon fill="green" stroke="green" stroke-width="0.468763" points="498.877,-31.6678 506.178,-23.9908 495.683,-25.4389 498.877,-31.6678"/>
</g>
<!-- &#45;22 -->
<g id="node22" class="node"><title>&#45;22</title>
<polygon fill="lightgray" stroke="black" points="1071,-83.6985 1042,-83.6985 1042,-65.6985 1071,-65.6985 1071,-83.6985"/>
<text text-anchor="middle" x="1056.5" y="-72.4985" font-family="Times,serif" font-size="9.00">&#45;22</text>
</g>
<!-- &#45;23 -->
<g id="node23" class="node"><title>&#45;23</title>
<polygon fill="lightgray" stroke="black" points="803,-83.6985 774,-83.6985 774,-65.6985 803,-65.6985 803,-83.6985"/>
<text text-anchor="middle" x="788.5" y="-72.4985" font-family="Times,serif" font-size="9.00">&#45;23</text>
</g>
<!-- &#45;23&#45;&gt;1 -->
<g id="edge24" class="edge"><title>&#45;23&#45;&gt;1</title>
<path fill="none" stroke="red" stroke-width="0.411019" d="M773.925,-68.5441C771.134,-67.5811 768.231,-66.596 765.5,-65.6985 717.049,-49.7767 659.941,-32.4277 628.424,-22.9756"/>
<polygon fill="red" stroke="red" stroke-width="0.411019" points="629.35,-19.5994 618.767,-20.0863 627.344,-26.3057 629.35,-19.5994"/>
</g>
<!-- &#45;24 -->
<g id="node24" class="node"><title>&#45;24</title>
<polygon fill="lightgray" stroke="black" points="76,-83.6985 47,-83.6985 47,-65.6985 76,-65.6985 76,-83.6985"/>
<text text-anchor="middle" x="61.5" y="-72.4985" font-family="Times,serif" font-size="9.00">&#45;24</text>
</g>
<!-- &#45;24&#45;&gt;0 -->
<g id="edge28" class="edge"><title>&#45;24&#45;&gt;0</title>
<path fill="none" stroke="green" stroke-width="0.122149" d="M76.2702,-68.2562C103.546,-58.2058 162.027,-36.6578 194.87,-24.556"/>
<polygon fill="green" stroke="green" stroke-width="0.122149" points="196.388,-27.727 204.561,-20.9854 193.967,-21.1587 196.388,-27.727"/>
</g>
<!-- 1&#45;&gt;1 -->
<g id="edge17" class="edge"><title>1&#45;&gt;1</title>
<path fill="none" stroke="green" stroke-width="0.385325" d="M616.288,-23.9294C626.522,-28.0713 637.349,-25.0446 637.349,-14.8492 637.349,-7.99927 632.462,-4.3853 626.15,-4.00735"/>
<polygon fill="green" stroke="green" stroke-width="0.385325" points="625.516,-0.565092 616.288,-5.76904 626.747,-7.45602 625.516,-0.565092"/>
</g>
</g>
</svg>
