<?xml version="1.0" encoding="UTF-8" standalone="no"?>
<!DOCTYPE svg PUBLIC "-//W3C//DTD SVG 1.1//EN"
 "http://www.w3.org/Graphics/SVG/1.1/DTD/svg11.dtd">
<!-- Generated by graphviz version 2.38.0 (20140413.2041)
 -->
<!-- Title: %3 Pages: 1 -->
<svg width="1163pt" height="202pt"
 viewBox="0.00 0.00 1162.50 201.62" xmlns="http://www.w3.org/2000/svg" xmlns:xlink="http://www.w3.org/1999/xlink">
<g id="graph0" class="graph" transform="scale(1 1) rotate(0) translate(4 197.622)">
<title>%3</title>
<polygon fill="white" stroke="none" points="-4,4 -4,-197.622 1158.5,-197.622 1158.5,4 -4,4"/>
<!-- &#45;1 -->
<g id="node1" class="node"><title>&#45;1</title>
<polygon fill="lightgray" stroke="black" points="208,-99.4472 184,-99.4472 184,-81.4472 208,-81.4472 208,-99.4472"/>
<text text-anchor="middle" x="196" y="-88.2472" font-family="Times,serif" font-size="9.00">&#45;1</text>
</g>
<!-- 1 -->
<g id="node26" class="node"><title>1</title>
<ellipse fill="lightblue" stroke="black" cx="307" cy="-14.8492" rx="14.7" ry="14.7"/>
<text text-anchor="middle" x="307" y="-12.6492" font-family="Times,serif" font-size="9.00">1</text>
</g>
<!-- &#45;1&#45;&gt;1 -->
<g id="edge6" class="edge"><title>&#45;1&#45;&gt;1</title>
<path fill="none" stroke="green" stroke-width="0.480473" d="M202.02,-81.3298C205.928,-76.4176 211.334,-70.2456 217,-65.6985 237.997,-48.8479 265.468,-34.5592 284.511,-25.6569"/>
<polygon fill="green" stroke="green" stroke-width="0.480473" points="285.972,-28.8375 293.622,-21.5076 283.071,-22.467 285.972,-28.8375"/>
</g>
<!-- 3 -->
<g id="node28" class="node"><title>3</title>
<ellipse fill="lightblue" stroke="black" cx="373" cy="-14.8492" rx="14.7" ry="14.7"/>
<text text-anchor="middle" x="373" y="-12.6492" font-family="Times,serif" font-size="9.00">3</text>
</g>
<!-- &#45;1&#45;&gt;3 -->
<g id="edge15" class="edge"><title>&#45;1&#45;&gt;3</title>
<path fill="none" stroke="green" stroke-width="0.37803" d="M201.327,-81.2909C205.115,-76.1077 210.644,-69.6523 217,-65.6985 268.634,-33.5779 292.869,-53.088 349,-29.6985 349.855,-29.3423 350.717,-28.9614 351.58,-28.5614"/>
<polygon fill="green" stroke="green" stroke-width="0.37803" points="353.388,-31.5652 360.607,-23.8104 350.127,-25.3707 353.388,-31.5652"/>
</g>
<!-- &#45;2 -->
<g id="node2" class="node"><title>&#45;2</title>
<polygon fill="lightgray" stroke="black" points="340,-99.4472 316,-99.4472 316,-81.4472 340,-81.4472 340,-99.4472"/>
<text text-anchor="middle" x="328" y="-88.2472" font-family="Times,serif" font-size="9.00">&#45;2</text>
</g>
<!-- &#45;2&#45;&gt;1 -->
<g id="edge13" class="edge"><title>&#45;2&#45;&gt;1</title>
<path fill="none" stroke="green" stroke-width="0.301672" d="M325.672,-81.2897C322.785,-71.1707 317.74,-53.4899 313.622,-39.0555"/>
<polygon fill="green" stroke="green" stroke-width="0.301672" points="316.94,-37.9292 310.83,-29.2734 310.209,-39.8499 316.94,-37.9292"/>
</g>
<!-- 2 -->
<g id="node27" class="node"><title>2</title>
<ellipse fill="lightblue" stroke="black" cx="665" cy="-14.8492" rx="14.7" ry="14.7"/>
<text text-anchor="middle" x="665" y="-12.6492" font-family="Times,serif" font-size="9.00">2</text>
</g>
<!-- &#45;2&#45;&gt;2 -->
<g id="edge27" class="edge"><title>&#45;2&#45;&gt;2</title>
<path fill="none" stroke="green" stroke-width="0.167101" d="M333.191,-81.0571C336.92,-75.7752 342.437,-69.2976 349,-65.6985 399.293,-38.1186 574.142,-22.5924 639.813,-17.6234"/>
<polygon fill="green" stroke="green" stroke-width="0.167101" points="640.354,-21.0931 650.069,-16.8667 639.839,-14.1121 640.354,-21.0931"/>
</g>
<!-- &#45;2&#45;&gt;3 -->
<g id="edge38" class="edge"><title>&#45;2&#45;&gt;3</title>
<path fill="none" stroke="green" stroke-width="0.291664" d="M332.988,-81.2897C339.545,-70.566 351.294,-51.3498 360.37,-36.505"/>
<polygon fill="green" stroke="green" stroke-width="0.291664" points="363.376,-38.2993 365.606,-27.9419 357.404,-34.6477 363.376,-38.2993"/>
</g>
<!-- &#45;3 -->
<g id="node3" class="node"><title>&#45;3</title>
<polygon fill="lightgray" stroke="black" points="430,-99.4472 406,-99.4472 406,-81.4472 430,-81.4472 430,-99.4472"/>
<text text-anchor="middle" x="418" y="-88.2472" font-family="Times,serif" font-size="9.00">&#45;3</text>
</g>
<!-- 0 -->
<g id="node25" class="node"><title>0</title>
<ellipse fill="lightblue" stroke="black" cx="734" cy="-14.8492" rx="14.7" ry="14.7"/>
<text text-anchor="middle" x="734" y="-12.6492" font-family="Times,serif" font-size="9.00">0</text>
</g>
<!-- &#45;3&#45;&gt;0 -->
<g id="edge41" class="edge"><title>&#45;3&#45;&gt;0</title>
<path fill="none" stroke="red" stroke-width="0.182268" d="M423.175,-81.0279C426.898,-75.7337 432.413,-69.2534 439,-65.6985 537.789,-12.3844 579.468,-54.2828 689,-29.6985 695.909,-28.1478 703.295,-26.0608 710.044,-23.978"/>
<polygon fill="red" stroke="red" stroke-width="0.182268" points="711.517,-27.1807 719.964,-20.7862 709.373,-20.5171 711.517,-27.1807"/>
</g>
<!-- &#45;3&#45;&gt;1 -->
<g id="edge29" class="edge"><title>&#45;3&#45;&gt;1</title>
<path fill="none" stroke="red" stroke-width="0.101012" d="M411.618,-81.36C407.495,-76.4591 401.828,-70.2885 396,-65.6985 375.243,-49.3518 348.453,-35.1281 329.711,-26.1046"/>
<polygon fill="red" stroke="red" stroke-width="0.101012" points="331.007,-22.8464 320.468,-21.7612 328.03,-29.1818 331.007,-22.8464"/>
</g>
<!-- &#45;4 -->
<g id="node4" class="node"><title>&#45;4</title>
<polygon fill="lightgray" stroke="black" points="988,-181.409 964,-181.409 964,-163.409 988,-163.409 988,-181.409"/>
<text text-anchor="middle" x="976" y="-170.209" font-family="Times,serif" font-size="9.00">&#45;4</text>
</g>
<!-- &#45;4&#45;&gt;0 -->
<g id="edge31" class="edge"><title>&#45;4&#45;&gt;0</title>
<path fill="none" stroke="red" stroke-width="0.280386" d="M969.914,-163.081C952.095,-138.735 900.973,-69.1797 896,-65.6985 853.549,-35.9821 792.848,-23.5608 759.089,-18.7018"/>
<polygon fill="red" stroke="red" stroke-width="0.280386" points="759.112,-15.1744 748.739,-17.3299 758.192,-22.1137 759.112,-15.1744"/>
</g>
<!-- 1006 -->
<g id="node30" class="node"><title>1006</title>
<ellipse fill="white" stroke="black" cx="1036" cy="-90.4472" rx="25" ry="25"/>
<text text-anchor="middle" x="1036" y="-88.2472" font-family="Times,serif" font-size="9.00">1006</text>
</g>
<!-- &#45;4&#45;&gt;1006 -->
<g id="edge48" class="edge"><title>&#45;4&#45;&gt;1006</title>
<path fill="none" stroke="red" stroke-width="0.135917" d="M982.195,-163.153C989.976,-152.783 1003.72,-134.467 1015.37,-118.943"/>
<polygon fill="red" stroke="red" stroke-width="0.135917" points="1018.37,-120.773 1021.57,-110.673 1012.77,-116.571 1018.37,-120.773"/>
</g>
<!-- &#45;5 -->
<g id="node5" class="node"><title>&#45;5</title>
<polygon fill="lightgray" stroke="black" points="746,-99.4472 722,-99.4472 722,-81.4472 746,-81.4472 746,-99.4472"/>
<text text-anchor="middle" x="734" y="-88.2472" font-family="Times,serif" font-size="9.00">&#45;5</text>
</g>
<!-- &#45;5&#45;&gt;0 -->
<g id="edge23" class="edge"><title>&#45;5&#45;&gt;0</title>
<path fill="none" stroke="green" stroke-width="0.20017" d="M734,-81.2897C734,-71.3882 734,-54.2466 734,-39.9908"/>
<polygon fill="green" stroke="green" stroke-width="0.20017" points="737.5,-39.8196 734,-29.8196 730.5,-39.8196 737.5,-39.8196"/>
</g>
<!-- &#45;5&#45;&gt;2 -->
<g id="edge46" class="edge"><title>&#45;5&#45;&gt;2</title>
<path fill="none" stroke="green" stroke-width="0.198076" d="M726.28,-81.0776C722.069,-76.5212 716.759,-70.7902 712,-65.6985 701.975,-54.9715 690.69,-42.9995 681.692,-33.477"/>
<polygon fill="green" stroke="green" stroke-width="0.198076" points="684.162,-30.9957 674.748,-26.1353 679.077,-35.8057 684.162,-30.9957"/>
</g>
<!-- &#45;5&#45;&gt;3 -->
<g id="edge33" class="edge"><title>&#45;5&#45;&gt;3</title>
<path fill="none" stroke="red" stroke-width="0.227784" d="M728.488,-81.0327C724.549,-75.7405 718.763,-69.2607 712,-65.6985 657.158,-36.8113 466.954,-21.9212 398.115,-17.3826"/>
<polygon fill="red" stroke="red" stroke-width="0.227784" points="397.995,-13.8677 387.791,-16.7202 397.547,-20.8534 397.995,-13.8677"/>
</g>
<!-- &#45;6 -->
<g id="node6" class="node"><title>&#45;6</title>
<polygon fill="lightgray" stroke="black" points="24,-99.4472 0,-99.4472 0,-81.4472 24,-81.4472 24,-99.4472"/>
<text text-anchor="middle" x="12" y="-88.2472" font-family="Times,serif" font-size="9.00">&#45;6</text>
</g>
<!-- &#45;6&#45;&gt;1 -->
<g id="edge35" class="edge"><title>&#45;6&#45;&gt;1</title>
<path fill="none" stroke="green" stroke-width="0.203077" d="M17.2188,-81.1078C20.9604,-75.8472 26.4797,-69.3745 33,-65.6985 115.205,-19.3534 231.332,-14.7005 281.871,-15.1056"/>
<polygon fill="green" stroke="green" stroke-width="0.203077" points="281.844,-18.6055 291.897,-15.262 281.953,-11.6064 281.844,-18.6055"/>
</g>
<!-- &#45;7 -->
<g id="node7" class="node"><title>&#45;7</title>
<polygon fill="lightgray" stroke="black" points="656,-99.4472 632,-99.4472 632,-81.4472 656,-81.4472 656,-99.4472"/>
<text text-anchor="middle" x="644" y="-88.2472" font-family="Times,serif" font-size="9.00">&#45;7</text>
</g>
<!-- &#45;7&#45;&gt;2 -->
<g id="edge32" class="edge"><title>&#45;7&#45;&gt;2</title>
<path fill="none" stroke="green" stroke-width="0.111931" d="M646.328,-81.2897C649.215,-71.1707 654.26,-53.4899 658.378,-39.0555"/>
<polygon fill="green" stroke="green" stroke-width="0.111931" points="661.791,-39.8499 661.17,-29.2734 655.06,-37.9292 661.791,-39.8499"/>
</g>
<!-- &#45;7&#45;&gt;3 -->
<g id="edge20" class="edge"><title>&#45;7&#45;&gt;3</title>
<path fill="none" stroke="green" stroke-width="0.282801" d="M638.426,-81.1469C634.461,-75.9029 628.669,-69.4339 622,-65.6985 548.111,-24.3104 444.905,-16.9673 397.986,-15.8802"/>
<polygon fill="green" stroke="green" stroke-width="0.282801" points="397.884,-12.3784 387.831,-15.7251 397.777,-19.3775 397.884,-12.3784"/>
</g>
<!-- &#45;8 -->
<g id="node8" class="node"><title>&#45;8</title>
<polygon fill="lightgray" stroke="black" points="298,-99.4472 274,-99.4472 274,-81.4472 298,-81.4472 298,-99.4472"/>
<text text-anchor="middle" x="286" y="-88.2472" font-family="Times,serif" font-size="9.00">&#45;8</text>
</g>
<!-- &#45;8&#45;&gt;1 -->
<g id="edge10" class="edge"><title>&#45;8&#45;&gt;1</title>
<path fill="none" stroke="red" stroke-width="0.160965" d="M288.328,-81.2897C291.215,-71.1707 296.26,-53.4899 300.378,-39.0555"/>
<polygon fill="red" stroke="red" stroke-width="0.160965" points="303.791,-39.8499 303.17,-29.2734 297.06,-37.9292 303.791,-39.8499"/>
</g>
<!-- &#45;8&#45;&gt;2 -->
<g id="edge18" class="edge"><title>&#45;8&#45;&gt;2</title>
<path fill="none" stroke="green" stroke-width="0.361442" d="M291.169,-81.0178C294.89,-75.7193 300.405,-69.238 307,-65.6985 364.996,-34.5738 568.335,-20.9858 639.873,-17.0937"/>
<polygon fill="green" stroke="green" stroke-width="0.361442" points="640.379,-20.572 650.181,-16.5511 640.011,-13.5817 640.379,-20.572"/>
</g>
<!-- &#45;8&#45;&gt;3 -->
<g id="edge40" class="edge"><title>&#45;8&#45;&gt;3</title>
<path fill="none" stroke="green" stroke-width="0.239359" d="M292.623,-81.162C296.58,-76.4213 301.83,-70.4841 307,-65.6985 321.213,-52.5423 338.769,-39.4119 352.201,-29.932"/>
<polygon fill="green" stroke="green" stroke-width="0.239359" points="354.532,-32.5751 360.75,-23.9968 350.539,-26.8251 354.532,-32.5751"/>
</g>
<!-- &#45;9 -->
<g id="node9" class="node"><title>&#45;9</title>
<polygon fill="lightgray" stroke="black" points="472,-99.4472 448,-99.4472 448,-81.4472 472,-81.4472 472,-99.4472"/>
<text text-anchor="middle" x="460" y="-88.2472" font-family="Times,serif" font-size="9.00">&#45;9</text>
</g>
<!-- &#45;9&#45;&gt;0 -->
<g id="edge30" class="edge"><title>&#45;9&#45;&gt;0</title>
<path fill="none" stroke="red" stroke-width="0.325991" d="M465.208,-81.0893C468.946,-75.821 474.464,-69.3464 481,-65.6985 562.923,-19.975 597.759,-51.5408 689,-29.6985 695.886,-28.05 703.265,-25.9314 710.014,-23.8495"/>
<polygon fill="red" stroke="red" stroke-width="0.325991" points="711.478,-27.0563 719.94,-20.6813 709.349,-20.3877 711.478,-27.0563"/>
</g>
<!-- &#45;9&#45;&gt;1 -->
<g id="edge12" class="edge"><title>&#45;9&#45;&gt;1</title>
<path fill="none" stroke="green" stroke-width="0.668023" d="M454.201,-81.0331C450.376,-76.0092 444.98,-69.8241 439,-65.6985 429.732,-59.3047 365.695,-36.3839 330.335,-23.9722"/>
<polygon fill="green" stroke="green" stroke-width="0.668023" points="331.378,-20.6289 320.783,-20.6299 329.066,-27.2361 331.378,-20.6289"/>
</g>
<!-- &#45;10 -->
<g id="node10" class="node"><title>&#45;10</title>
<polygon fill="lightgray" stroke="black" points="793.5,-99.4472 764.5,-99.4472 764.5,-81.4472 793.5,-81.4472 793.5,-99.4472"/>
<text text-anchor="middle" x="779" y="-88.2472" font-family="Times,serif" font-size="9.00">&#45;10</text>
</g>
<!-- &#45;10&#45;&gt;2 -->
<g id="edge3" class="edge"><title>&#45;10&#45;&gt;2</title>
<path fill="none" stroke="green" stroke-width="0.624988" d="M771.921,-81.3947C767.38,-76.5069 761.192,-70.3378 755,-65.6985 733.553,-49.6305 706.331,-35.2742 687.471,-26.1423"/>
<polygon fill="green" stroke="green" stroke-width="0.624988" points="688.729,-22.8657 678.194,-21.7453 685.731,-29.1911 688.729,-22.8657"/>
</g>
<!-- &#45;11 -->
<g id="node11" class="node"><title>&#45;11</title>
<polygon fill="lightgray" stroke="black" points="1035.5,-181.409 1006.5,-181.409 1006.5,-163.409 1035.5,-163.409 1035.5,-181.409"/>
<text text-anchor="middle" x="1021" y="-170.209" font-family="Times,serif" font-size="9.00">&#45;11</text>
</g>
<!-- &#45;12 -->
<g id="node12" class="node"><title>&#45;12</title>
<polygon fill="lightgray" stroke="black" points="1107.5,-99.4472 1078.5,-99.4472 1078.5,-81.4472 1107.5,-81.4472 1107.5,-99.4472"/>
<text text-anchor="middle" x="1093" y="-88.2472" font-family="Times,serif" font-size="9.00">&#45;12</text>
</g>
<!-- &#45;12&#45;&gt;0 -->
<g id="edge8" class="edge"><title>&#45;12&#45;&gt;0</title>
<path fill="none" stroke="red" stroke-width="0.106209" d="M1087.15,-81.0349C1083,-75.7436 1076.94,-69.2639 1070,-65.6985 1015.46,-37.6952 827.864,-22.2963 759.328,-17.5002"/>
<polygon fill="red" stroke="red" stroke-width="0.106209" points="759.247,-13.9867 749.032,-16.7975 758.771,-20.9704 759.247,-13.9867"/>
</g>
<!-- &#45;13 -->
<g id="node13" class="node"><title>&#45;13</title>
<polygon fill="lightgray" stroke="black" points="1154.5,-99.4472 1125.5,-99.4472 1125.5,-81.4472 1154.5,-81.4472 1154.5,-99.4472"/>
<text text-anchor="middle" x="1140" y="-88.2472" font-family="Times,serif" font-size="9.00">&#45;13</text>
</g>
<!-- &#45;13&#45;&gt;0 -->
<g id="edge45" class="edge"><title>&#45;13&#45;&gt;0</title>
<path fill="none" stroke="red" stroke-width="0.464799" d="M1134.17,-80.9939C1130.03,-75.6854 1123.98,-69.2018 1117,-65.6985 1053.73,-33.9256 834.256,-20.6522 759.312,-16.9772"/>
<polygon fill="red" stroke="red" stroke-width="0.464799" points="759.108,-13.4637 748.953,-16.4859 758.776,-20.4558 759.108,-13.4637"/>
</g>
<!-- &#45;14 -->
<g id="node14" class="node"><title>&#45;14</title>
<polygon fill="lightgray" stroke="black" points="566.5,-99.4472 537.5,-99.4472 537.5,-81.4472 566.5,-81.4472 566.5,-99.4472"/>
<text text-anchor="middle" x="552" y="-88.2472" font-family="Times,serif" font-size="9.00">&#45;14</text>
</g>
<!-- &#45;14&#45;&gt;0 -->
<g id="edge34" class="edge"><title>&#45;14&#45;&gt;0</title>
<path fill="none" stroke="green" stroke-width="0.204337" d="M558.044,-81.3856C562.28,-76.2424 568.356,-69.7959 575,-65.6985 576.489,-64.7803 666.557,-36.7735 710.454,-23.1505"/>
<polygon fill="green" stroke="green" stroke-width="0.204337" points="711.539,-26.4787 720.052,-20.1727 709.464,-19.7931 711.539,-26.4787"/>
</g>
<!-- &#45;14&#45;&gt;1 -->
<g id="edge47" class="edge"><title>&#45;14&#45;&gt;1</title>
<path fill="none" stroke="red" stroke-width="0.227021" d="M545.762,-81.1545C541.37,-75.9138 535.037,-69.4454 528,-65.6985 456.373,-27.5578 427.452,-50.442 349,-29.6985 342.913,-28.0891 336.417,-26.0898 330.397,-24.1155"/>
<polygon fill="red" stroke="red" stroke-width="0.227021" points="331.468,-20.783 320.874,-20.8897 329.223,-27.413 331.468,-20.783"/>
</g>
<!-- &#45;14&#45;&gt;3 -->
<g id="edge11" class="edge"><title>&#45;14&#45;&gt;3</title>
<path fill="none" stroke="green" stroke-width="0.251413" d="M545.615,-81.4118C541.162,-76.2797 534.814,-69.8358 528,-65.6985 486.069,-40.2405 429.759,-26.3905 397.834,-20.1095"/>
<polygon fill="green" stroke="green" stroke-width="0.251413" points="398.096,-16.5977 387.622,-18.1968 396.807,-23.478 398.096,-16.5977"/>
</g>
<!-- &#45;15 -->
<g id="node15" class="node"><title>&#45;15</title>
<polygon fill="lightgray" stroke="black" points="387.5,-99.4472 358.5,-99.4472 358.5,-81.4472 387.5,-81.4472 387.5,-99.4472"/>
<text text-anchor="middle" x="373" y="-88.2472" font-family="Times,serif" font-size="9.00">&#45;15</text>
</g>
<!-- &#45;15&#45;&gt;3 -->
<g id="edge43" class="edge"><title>&#45;15&#45;&gt;3</title>
<path fill="none" stroke="green" stroke-width="0.416664" d="M373,-81.2897C373,-71.3882 373,-54.2466 373,-39.9908"/>
<polygon fill="green" stroke="green" stroke-width="0.416664" points="376.5,-39.8196 373,-29.8196 369.5,-39.8196 376.5,-39.8196"/>
</g>
<!-- &#45;16 -->
<g id="node16" class="node"><title>&#45;16</title>
<polygon fill="lightgray" stroke="black" points="165.5,-99.4472 136.5,-99.4472 136.5,-81.4472 165.5,-81.4472 165.5,-99.4472"/>
<text text-anchor="middle" x="151" y="-88.2472" font-family="Times,serif" font-size="9.00">&#45;16</text>
</g>
<!-- &#45;16&#45;&gt;1 -->
<g id="edge28" class="edge"><title>&#45;16&#45;&gt;1</title>
<path fill="none" stroke="red" stroke-width="0.320965" d="M157.854,-81.071C162.311,-76.0614 168.488,-69.8779 175,-65.6985 209.397,-43.6213 255.03,-29.1466 282.64,-21.7426"/>
<polygon fill="red" stroke="red" stroke-width="0.320965" points="283.807,-25.0561 292.615,-19.1666 282.057,-18.2785 283.807,-25.0561"/>
</g>
<!-- &#45;16&#45;&gt;3 -->
<g id="edge7" class="edge"><title>&#45;16&#45;&gt;3</title>
<path fill="none" stroke="red" stroke-width="0.139465" d="M157.245,-81.1674C161.64,-75.9321 167.974,-69.4649 175,-65.6985 244.602,-28.388 275.194,-57.791 349,-29.6985 349.865,-29.3691 350.736,-29.0109 351.607,-28.6301"/>
<polygon fill="red" stroke="red" stroke-width="0.139465" points="353.378,-31.6551 360.67,-23.9685 350.176,-25.4303 353.378,-31.6551"/>
</g>
<!-- &#45;17 -->
<g id="node17" class="node"><title>&#45;17</title>
<polygon fill="lightgray" stroke="black" points="519.5,-99.4472 490.5,-99.4472 490.5,-81.4472 519.5,-81.4472 519.5,-99.4472"/>
<text text-anchor="middle" x="505" y="-88.2472" font-family="Times,serif" font-size="9.00">&#45;17</text>
</g>
<!-- &#45;17&#45;&gt;0 -->
<g id="edge26" class="edge"><title>&#45;17&#45;&gt;0</title>
<path fill="none" stroke="red" stroke-width="0.459267" d="M510.934,-81.1997C515.124,-75.978 521.19,-69.5139 528,-65.6985 591.967,-29.8594 618.128,-48.4968 689,-29.6985 695.844,-27.8831 703.209,-25.7106 709.958,-23.6304"/>
<polygon fill="red" stroke="red" stroke-width="0.459267" points="711.408,-26.8437 719.895,-20.5023 709.305,-20.1667 711.408,-26.8437"/>
</g>
<!-- &#45;17&#45;&gt;1 -->
<g id="edge42" class="edge"><title>&#45;17&#45;&gt;1</title>
<path fill="none" stroke="green" stroke-width="0.118235" d="M498.676,-81.3103C494.247,-76.1353 487.906,-69.6817 481,-65.6985 428.325,-35.3151 407.229,-47.2259 349,-29.6985 342.971,-27.8838 336.496,-25.8107 330.478,-23.8309"/>
<polygon fill="green" stroke="green" stroke-width="0.118235" points="331.536,-20.4943 320.942,-20.6493 329.32,-27.1345 331.536,-20.4943"/>
</g>
<!-- &#45;18 -->
<g id="node18" class="node"><title>&#45;18</title>
<polygon fill="lightgray" stroke="black" points="887.5,-99.4472 858.5,-99.4472 858.5,-81.4472 887.5,-81.4472 887.5,-99.4472"/>
<text text-anchor="middle" x="873" y="-88.2472" font-family="Times,serif" font-size="9.00">&#45;18</text>
</g>
<!-- &#45;18&#45;&gt;0 -->
<g id="edge22" class="edge"><title>&#45;18&#45;&gt;0</title>
<path fill="none" stroke="green" stroke-width="0.353307" d="M866.074,-81.18C861.59,-76.2114 855.41,-70.0328 849,-65.6985 819.951,-46.0552 781.903,-31.389 757.698,-23.2178"/>
<polygon fill="green" stroke="green" stroke-width="0.353307" points="758.528,-19.8068 747.935,-20.0219 756.35,-26.4594 758.528,-19.8068"/>
</g>
<!-- &#45;19 -->
<g id="node19" class="node"><title>&#45;19</title>
<polygon fill="lightgray" stroke="black" points="255.5,-99.4472 226.5,-99.4472 226.5,-81.4472 255.5,-81.4472 255.5,-99.4472"/>
<text text-anchor="middle" x="241" y="-88.2472" font-family="Times,serif" font-size="9.00">&#45;19</text>
</g>
<!-- &#45;19&#45;&gt;3 -->
<g id="edge4" class="edge"><title>&#45;19&#45;&gt;3</title>
<path fill="none" stroke="green" stroke-width="0.177105" d="M247.92,-81.1707C252.401,-76.1985 258.581,-70.0195 265,-65.6985 298.694,-43.0157 312.679,-47.8808 349,-29.6985 349.828,-29.2839 350.667,-28.8534 351.511,-28.4117"/>
<polygon fill="green" stroke="green" stroke-width="0.177105" points="353.394,-31.3701 360.449,-23.4657 350.005,-25.2454 353.394,-31.3701"/>
</g>
<!-- &#45;20 -->
<g id="node20" class="node"><title>&#45;20</title>
<polygon fill="lightgray" stroke="black" points="840.5,-99.4472 811.5,-99.4472 811.5,-81.4472 840.5,-81.4472 840.5,-99.4472"/>
<text text-anchor="middle" x="826" y="-88.2472" font-family="Times,serif" font-size="9.00">&#45;20</text>
</g>
<!-- &#45;20&#45;&gt;2 -->
<g id="edge1" class="edge"><title>&#45;20&#45;&gt;2</title>
<path fill="none" stroke="red" stroke-width="0.103049" d="M819.163,-81.0432C814.713,-76.0231 808.537,-69.8384 802,-65.6985 782.719,-53.4874 722.614,-33.742 688.772,-23.1377"/>
<polygon fill="red" stroke="red" stroke-width="0.103049" points="689.775,-19.7844 679.187,-20.1587 687.697,-26.469 689.775,-19.7844"/>
</g>
<!-- &#45;21 -->
<g id="node21" class="node"><title>&#45;21</title>
<polygon fill="lightgray" stroke="black" points="703.5,-99.4472 674.5,-99.4472 674.5,-81.4472 703.5,-81.4472 703.5,-99.4472"/>
<text text-anchor="middle" x="689" y="-88.2472" font-family="Times,serif" font-size="9.00">&#45;21</text>
</g>
<!-- &#45;21&#45;&gt;0 -->
<g id="edge17" class="edge"><title>&#45;21&#45;&gt;0</title>
<path fill="none" stroke="red" stroke-width="0.240193" d="M693.988,-81.2897C700.545,-70.566 712.294,-51.3498 721.37,-36.505"/>
<polygon fill="red" stroke="red" stroke-width="0.240193" points="724.376,-38.2993 726.606,-27.9419 718.404,-34.6477 724.376,-38.2993"/>
</g>
<!-- &#45;21&#45;&gt;1 -->
<g id="edge9" class="edge"><title>&#45;21&#45;&gt;1</title>
<path fill="none" stroke="red" stroke-width="0.127804" d="M683.241,-81.4219C678.885,-76.0144 672.401,-69.2443 665,-65.6985 537.522,-4.62431 487.069,-59.9905 349,-29.6985 342.85,-28.3493 336.331,-26.4435 330.31,-24.4761"/>
<polygon fill="red" stroke="red" stroke-width="0.127804" points="331.395,-21.1481 320.8,-21.1943 329.112,-27.7651 331.395,-21.1481"/>
</g>
<!-- &#45;21&#45;&gt;2 -->
<g id="edge39" class="edge"><title>&#45;21&#45;&gt;2</title>
<path fill="none" stroke="red" stroke-width="0.109502" d="M686.34,-81.2897C683.04,-71.1707 677.274,-53.4899 672.567,-39.0555"/>
<polygon fill="red" stroke="red" stroke-width="0.109502" points="675.805,-37.6955 669.378,-29.2734 669.15,-39.8658 675.805,-37.6955"/>
</g>
<!-- &#45;22 -->
<g id="node22" class="node"><title>&#45;22</title>
<polygon fill="lightgray" stroke="black" points="71.5,-99.4472 42.5,-99.4472 42.5,-81.4472 71.5,-81.4472 71.5,-99.4472"/>
<text text-anchor="middle" x="57" y="-88.2472" font-family="Times,serif" font-size="9.00">&#45;22</text>
</g>
<!-- &#45;22&#45;&gt;1 -->
<g id="edge19" class="edge"><title>&#45;22&#45;&gt;1</title>
<path fill="none" stroke="red" stroke-width="0.377587" d="M62.9295,-81.1911C67.1176,-75.9658 73.1828,-69.5009 80,-65.6985 146.594,-28.554 238.574,-19.0849 282.167,-16.6726"/>
<polygon fill="red" stroke="red" stroke-width="0.377587" points="282.34,-20.1685 292.163,-16.1989 282.008,-13.1763 282.34,-20.1685"/>
</g>
<!-- &#45;23 -->
<g id="node23" class="node"><title>&#45;23</title>
<polygon fill="lightgray" stroke="black" points="613.5,-99.4472 584.5,-99.4472 584.5,-81.4472 613.5,-81.4472 613.5,-99.4472"/>
<text text-anchor="middle" x="599" y="-88.2472" font-family="Times,serif" font-size="9.00">&#45;23</text>
</g>
<!-- &#45;23&#45;&gt;0 -->
<g id="edge2" class="edge"><title>&#45;23&#45;&gt;0</title>
<path fill="none" stroke="red" stroke-width="0.223094" d="M605.946,-81.2094C610.437,-76.2519 616.619,-70.0746 623,-65.6985 650.772,-46.6529 686.997,-31.9975 710.38,-23.6497"/>
<polygon fill="red" stroke="red" stroke-width="0.223094" points="711.547,-26.9493 719.847,-20.3643 709.253,-20.3361 711.547,-26.9493"/>
</g>
<!-- &#45;23&#45;&gt;1 -->
<g id="edge37" class="edge"><title>&#45;23&#45;&gt;1</title>
<path fill="none" stroke="red" stroke-width="0.310745" d="M592.811,-81.0601C588.44,-75.7795 582.111,-69.3022 575,-65.6985 484.274,-19.7212 447.838,-53.7016 349,-29.6985 342.882,-28.2127 336.374,-26.2578 330.354,-24.2868"/>
<polygon fill="red" stroke="red" stroke-width="0.310745" points="331.432,-20.9566 320.837,-21.0344 329.168,-27.5804 331.432,-20.9566"/>
</g>
<!-- &#45;23&#45;&gt;2 -->
<g id="edge25" class="edge"><title>&#45;23&#45;&gt;2</title>
<path fill="none" stroke="green" stroke-width="0.159397" d="M606.315,-81.2897C616.397,-70.0479 634.847,-49.4731 648.377,-34.3854"/>
<polygon fill="green" stroke="green" stroke-width="0.159397" points="651.233,-36.4436 655.304,-26.6619 646.021,-31.7701 651.233,-36.4436"/>
</g>
<!-- &#45;23&#45;&gt;3 -->
<g id="edge16" class="edge"><title>&#45;23&#45;&gt;3</title>
<path fill="none" stroke="red" stroke-width="0.365763" d="M592.707,-81.2548C588.292,-76.0563 581.954,-69.5975 575,-65.6985 516.97,-33.1597 437.88,-21.6385 398.071,-17.7351"/>
<polygon fill="red" stroke="red" stroke-width="0.365763" points="398.208,-14.2334 387.935,-16.825 397.582,-21.2053 398.208,-14.2334"/>
</g>
<!-- &#45;24 -->
<g id="node24" class="node"><title>&#45;24</title>
<polygon fill="lightgray" stroke="black" points="118.5,-99.4472 89.5,-99.4472 89.5,-81.4472 118.5,-81.4472 118.5,-99.4472"/>
<text text-anchor="middle" x="104" y="-88.2472" font-family="Times,serif" font-size="9.00">&#45;24</text>
</g>
<!-- &#45;24&#45;&gt;1 -->
<g id="edge5" class="edge"><title>&#45;24&#45;&gt;1</title>
<path fill="none" stroke="green" stroke-width="0.235176" d="M109.999,-81.3115C114.216,-76.1371 120.288,-69.6836 127,-65.6985 177.031,-35.9939 245.36,-23.4399 281.755,-18.5877"/>
<polygon fill="green" stroke="green" stroke-width="0.235176" points="282.477,-22.025 291.97,-17.3187 281.614,-15.0784 282.477,-22.025"/>
</g>
<!-- 0&#45;&gt;0 -->
<g id="edge24" class="edge"><title>0&#45;&gt;0</title>
<path fill="none" stroke="red" stroke-width="0.533891" d="M744.428,-25.6755C755.039,-32.0439 766.849,-28.4352 766.849,-14.8492 766.849,-5.50891 761.267,-0.884351 754.33,-0.975566"/>
<polygon fill="red" stroke="red" stroke-width="0.533891" points="752.956,2.26363 744.428,-4.02295 755.015,-4.42672 752.956,2.26363"/>
</g>
<!-- 1&#45;&gt;1 -->
<g id="edge21" class="edge"><title>1&#45;&gt;1</title>
<path fill="none" stroke="red" stroke-width="0.133166" d="M317.428,-25.6755C328.039,-32.0439 339.849,-28.4352 339.849,-14.8492 339.849,-5.50891 334.267,-0.884351 327.33,-0.975566"/>
<polygon fill="red" stroke="red" stroke-width="0.133166" points="325.956,2.26363 317.428,-4.02295 328.015,-4.42672 325.956,2.26363"/>
</g>
<!-- 3&#45;&gt;3 -->
<g id="edge14" class="edge"><title>3&#45;&gt;3</title>
<path fill="none" stroke="red" stroke-width="0.222471" d="M383.428,-25.6755C394.039,-32.0439 405.849,-28.4352 405.849,-14.8492 405.849,-5.50891 400.267,-0.884351 393.33,-0.975566"/>
<polygon fill="red" stroke="red" stroke-width="0.222471" points="391.956,2.26363 383.428,-4.02295 394.015,-4.42672 391.956,2.26363"/>
</g>
<!-- 801 -->
<g id="node29" class="node"><title>801</title>
<ellipse fill="white" stroke="black" cx="1075" cy="-172.409" rx="21.4286" ry="21.4286"/>
<text text-anchor="middle" x="1075" y="-170.209" font-family="Times,serif" font-size="9.00">801</text>
</g>
<!-- 1006&#45;&gt;0 -->
<g id="edge44" class="edge"><title>1006&#45;&gt;0</title>
<path fill="none" stroke="red" stroke-width="0.593659" d="M1017.32,-73.8591C1012.85,-70.7537 1007.93,-67.8049 1003,-65.6985 918.505,-29.6238 808.119,-19.6047 759.209,-16.8621"/>
<polygon fill="red" stroke="red" stroke-width="0.593659" points="759.103,-13.3525 748.94,-16.3448 758.751,-20.3436 759.103,-13.3525"/>
</g>
<!-- 4792 -->
<g id="node31" class="node"><title>4792</title>
<ellipse fill="white" stroke="black" cx="969" cy="-90.4472" rx="25" ry="25"/>
<text text-anchor="middle" x="969" y="-88.2472" font-family="Times,serif" font-size="9.00">4792</text>
</g>
<!-- 4792&#45;&gt;0 -->
<g id="edge36" class="edge"><title>4792&#45;&gt;0</title>
<path fill="none" stroke="green" stroke-width="0.459719" d="M948.965,-75.6813C943.049,-72.0535 936.431,-68.4023 930,-65.6985 871.083,-40.9267 796.854,-26.1793 758.878,-19.7251"/>
<polygon fill="green" stroke="green" stroke-width="0.459719" points="759.177,-16.2273 748.741,-18.0546 758.038,-23.1341 759.177,-16.2273"/>
</g>
</g>
</svg>
