<?xml version="1.0" encoding="UTF-8" standalone="no"?>
<!DOCTYPE svg PUBLIC "-//W3C//DTD SVG 1.1//EN"
 "http://www.w3.org/Graphics/SVG/1.1/DTD/svg11.dtd">
<!-- Generated by graphviz version 2.38.0 (20140413.2041)
 -->
<!-- Title: %3 Pages: 1 -->
<svg width="1116pt" height="263pt"
 viewBox="0.00 0.00 1116.00 262.69" xmlns="http://www.w3.org/2000/svg" xmlns:xlink="http://www.w3.org/1999/xlink">
<g id="graph0" class="graph" transform="scale(1 1) rotate(0) translate(4 258.693)">
<title>%3</title>
<polygon fill="white" stroke="none" points="-4,4 -4,-258.693 1112,-258.693 1112,4 -4,4"/>
<!-- &#45;1 -->
<g id="node1" class="node"><title>&#45;1</title>
<polygon fill="lightgray" stroke="black" points="382.5,-184.945 358.5,-184.945 358.5,-166.945 382.5,-166.945 382.5,-184.945"/>
<text text-anchor="middle" x="370.5" y="-173.745" font-family="Times,serif" font-size="9.00">&#45;1</text>
</g>
<!-- 1 -->
<g id="node26" class="node"><title>1</title>
<ellipse fill="lightblue" stroke="black" cx="509.5" cy="-90.4472" rx="14.7" ry="14.7"/>
<text text-anchor="middle" x="509.5" y="-88.2472" font-family="Times,serif" font-size="9.00">1</text>
</g>
<!-- &#45;1&#45;&gt;1 -->
<g id="edge10" class="edge"><title>&#45;1&#45;&gt;1</title>
<path fill="none" stroke="green" stroke-width="0.480473" d="M376.461,-166.753C380.347,-161.812 385.751,-155.637 391.5,-151.196 421.367,-128.125 461.521,-110.05 486.443,-100.066"/>
<polygon fill="green" stroke="green" stroke-width="0.480473" points="487.768,-103.306 495.81,-96.4081 485.222,-96.7856 487.768,-103.306"/>
</g>
<!-- 3 -->
<g id="node28" class="node"><title>3</title>
<ellipse fill="lightblue" stroke="black" cx="323.5" cy="-14.8492" rx="14.7" ry="14.7"/>
<text text-anchor="middle" x="323.5" y="-12.6492" font-family="Times,serif" font-size="9.00">3</text>
</g>
<!-- &#45;1&#45;&gt;3 -->
<g id="edge46" class="edge"><title>&#45;1&#45;&gt;3</title>
<path fill="none" stroke="green" stroke-width="0.282467" d="M368.105,-166.836C361.192,-143.438 341.024,-75.1665 330.334,-38.9822"/>
<polygon fill="green" stroke="green" stroke-width="0.282467" points="333.657,-37.8773 327.467,-29.2787 326.944,-39.8606 333.657,-37.8773"/>
</g>
<!-- 228 -->
<g id="node29" class="node"><title>228</title>
<ellipse fill="white" stroke="black" cx="391.5" cy="-90.4472" rx="21.4286" ry="21.4286"/>
<text text-anchor="middle" x="391.5" y="-88.2472" font-family="Times,serif" font-size="9.00">228</text>
</g>
<!-- &#45;1&#45;&gt;228 -->
<g id="edge37" class="edge"><title>&#45;1&#45;&gt;228</title>
<path fill="none" stroke="red" stroke-width="0.352238" d="M372.514,-166.939C375.166,-156.392 379.976,-137.265 384.091,-120.904"/>
<polygon fill="red" stroke="red" stroke-width="0.352238" points="387.493,-121.727 386.538,-111.175 380.705,-120.02 387.493,-121.727"/>
</g>
<!-- &#45;2 -->
<g id="node2" class="node"><title>&#45;2</title>
<polygon fill="lightgray" stroke="black" points="160.5,-184.945 136.5,-184.945 136.5,-166.945 160.5,-166.945 160.5,-184.945"/>
<text text-anchor="middle" x="148.5" y="-173.745" font-family="Times,serif" font-size="9.00">&#45;2</text>
</g>
<!-- &#45;2&#45;&gt;1 -->
<g id="edge28" class="edge"><title>&#45;2&#45;&gt;1</title>
<path fill="none" stroke="green" stroke-width="0.301672" d="M153.674,-166.523C157.396,-161.228 162.911,-154.747 169.5,-151.196 269.094,-97.5198 310.68,-137.977 421.5,-115.196 443.45,-110.684 468.043,-103.897 485.639,-98.7322"/>
<polygon fill="green" stroke="green" stroke-width="0.301672" points="487.021,-101.972 495.604,-95.761 485.021,-95.2642 487.021,-101.972"/>
</g>
<!-- 2 -->
<g id="node27" class="node"><title>2</title>
<ellipse fill="lightblue" stroke="black" cx="193.5" cy="-90.4472" rx="14.7" ry="14.7"/>
<text text-anchor="middle" x="193.5" y="-88.2472" font-family="Times,serif" font-size="9.00">2</text>
</g>
<!-- &#45;2&#45;&gt;2 -->
<g id="edge27" class="edge"><title>&#45;2&#45;&gt;2</title>
<path fill="none" stroke="green" stroke-width="0.391016" d="M152.815,-166.939C159.46,-154.609 172.425,-130.552 181.94,-112.897"/>
<polygon fill="green" stroke="green" stroke-width="0.391016" points="185.146,-114.325 186.809,-103.862 178.984,-111.004 185.146,-114.325"/>
</g>
<!-- &#45;2&#45;&gt;3 -->
<g id="edge50" class="edge"><title>&#45;2&#45;&gt;3</title>
<path fill="none" stroke="red" stroke-width="0.2432" d="M147.518,-166.908C145.565,-147.064 143.407,-95.2198 169.5,-65.6985 202.583,-28.2688 263.975,-18.7845 298.41,-16.4833"/>
<polygon fill="red" stroke="red" stroke-width="0.2432" points="298.765,-19.9698 308.573,-15.9623 298.407,-12.979 298.765,-19.9698"/>
</g>
<!-- &#45;3 -->
<g id="node3" class="node"><title>&#45;3</title>
<polygon fill="lightgray" stroke="black" points="723.5,-184.945 699.5,-184.945 699.5,-166.945 723.5,-166.945 723.5,-184.945"/>
<text text-anchor="middle" x="711.5" y="-173.745" font-family="Times,serif" font-size="9.00">&#45;3</text>
</g>
<!-- 0 -->
<g id="node25" class="node"><title>0</title>
<ellipse fill="lightblue" stroke="black" cx="832.5" cy="-90.4472" rx="14.7" ry="14.7"/>
<text text-anchor="middle" x="832.5" y="-88.2472" font-family="Times,serif" font-size="9.00">0</text>
</g>
<!-- &#45;3&#45;&gt;0 -->
<g id="edge48" class="edge"><title>&#45;3&#45;&gt;0</title>
<path fill="none" stroke="red" stroke-width="0.182268" d="M717.935,-166.924C722.077,-162.048 727.747,-155.88 733.5,-151.196 757.96,-131.282 789.687,-113.306 810.547,-102.39"/>
<polygon fill="red" stroke="red" stroke-width="0.182268" points="812.273,-105.439 819.568,-97.7558 809.074,-99.2123 812.273,-105.439"/>
</g>
<!-- &#45;3&#45;&gt;1 -->
<g id="edge31" class="edge"><title>&#45;3&#45;&gt;1</title>
<path fill="none" stroke="red" stroke-width="0.388938" d="M706.103,-166.898C702.286,-161.761 696.75,-155.315 690.5,-151.196 640.673,-118.351 571.223,-102.131 534.526,-95.4122"/>
<polygon fill="red" stroke="red" stroke-width="0.388938" points="534.698,-91.8897 524.246,-93.6242 533.499,-98.7862 534.698,-91.8897"/>
</g>
<!-- &#45;3&#45;&gt;228 -->
<g id="edge38" class="edge"><title>&#45;3&#45;&gt;228</title>
<path fill="none" stroke="green" stroke-width="0.347027" d="M706.289,-166.592C702.55,-161.326 697.032,-154.852 690.5,-151.196 609.78,-106.013 575.96,-134.539 485.5,-115.196 464.073,-110.614 440.131,-104.551 421.773,-99.6984"/>
<polygon fill="green" stroke="green" stroke-width="0.347027" points="422.5,-96.27 411.936,-97.0727 420.695,-103.033 422.5,-96.27"/>
</g>
<!-- &#45;4 -->
<g id="node4" class="node"><title>&#45;4</title>
<polygon fill="lightgray" stroke="black" points="948.5,-254.693 924.5,-254.693 924.5,-236.693 948.5,-236.693 948.5,-254.693"/>
<text text-anchor="middle" x="936.5" y="-243.493" font-family="Times,serif" font-size="9.00">&#45;4</text>
</g>
<!-- &#45;4&#45;&gt;0 -->
<g id="edge35" class="edge"><title>&#45;4&#45;&gt;0</title>
<path fill="none" stroke="green" stroke-width="0.345677" d="M936.784,-236.435C936.985,-219.15 935.363,-178.503 917.5,-151.196 902.379,-128.081 874.935,-111.241 855.32,-101.44"/>
<polygon fill="green" stroke="green" stroke-width="0.345677" points="856.681,-98.211 846.146,-97.0783 853.675,-104.533 856.681,-98.211"/>
</g>
<!-- 1006 -->
<g id="node30" class="node"><title>1006</title>
<ellipse fill="white" stroke="black" cx="989.5" cy="-175.945" rx="25" ry="25"/>
<text text-anchor="middle" x="989.5" y="-173.745" font-family="Times,serif" font-size="9.00">1006</text>
</g>
<!-- &#45;4&#45;&gt;1006 -->
<g id="edge56" class="edge"><title>&#45;4&#45;&gt;1006</title>
<path fill="none" stroke="green" stroke-width="0.152109" d="M942.788,-236.656C949.115,-228.568 959.227,-215.642 968.427,-203.881"/>
<polygon fill="green" stroke="green" stroke-width="0.152109" points="971.188,-206.032 974.593,-196 965.675,-201.719 971.188,-206.032"/>
</g>
<!-- 4792 -->
<g id="node31" class="node"><title>4792</title>
<ellipse fill="white" stroke="black" cx="656.5" cy="-175.945" rx="25" ry="25"/>
<text text-anchor="middle" x="656.5" y="-173.745" font-family="Times,serif" font-size="9.00">4792</text>
</g>
<!-- &#45;4&#45;&gt;4792 -->
<g id="edge40" class="edge"><title>&#45;4&#45;&gt;4792</title>
<path fill="none" stroke="green" stroke-width="0.268068" d="M924.467,-244.355C887.875,-242.953 775.254,-235.864 690.5,-200.693 688.393,-199.819 686.286,-198.797 684.212,-197.678"/>
<polygon fill="green" stroke="green" stroke-width="0.268068" points="685.787,-194.538 675.431,-192.301 682.132,-200.508 685.787,-194.538"/>
</g>
<!-- &#45;5 -->
<g id="node5" class="node"><title>&#45;5</title>
<polygon fill="lightgray" stroke="black" points="292.5,-184.945 268.5,-184.945 268.5,-166.945 292.5,-166.945 292.5,-184.945"/>
<text text-anchor="middle" x="280.5" y="-173.745" font-family="Times,serif" font-size="9.00">&#45;5</text>
</g>
<!-- &#45;5&#45;&gt;0 -->
<g id="edge21" class="edge"><title>&#45;5&#45;&gt;0</title>
<path fill="none" stroke="green" stroke-width="0.20017" d="M285.292,-166.875C288.987,-161.447 294.623,-154.671 301.5,-151.196 381.949,-110.552 616.209,-127.494 705.5,-115.196 741.47,-110.242 782.73,-102.057 808.207,-96.7086"/>
<polygon fill="green" stroke="green" stroke-width="0.20017" points="809.044,-100.109 818.099,-94.6076 807.589,-93.2618 809.044,-100.109"/>
</g>
<!-- &#45;5&#45;&gt;2 -->
<g id="edge54" class="edge"><title>&#45;5&#45;&gt;2</title>
<path fill="none" stroke="green" stroke-width="0.198076" d="M273.765,-166.777C269.77,-162.076 264.52,-156.139 259.5,-151.196 241.982,-133.946 235.583,-131.853 217.5,-115.196 215.317,-113.185 213.059,-111.041 210.841,-108.895"/>
<polygon fill="green" stroke="green" stroke-width="0.198076" points="213.201,-106.306 203.621,-101.781 208.288,-111.293 213.201,-106.306"/>
</g>
<!-- &#45;5&#45;&gt;3 -->
<g id="edge39" class="edge"><title>&#45;5&#45;&gt;3</title>
<path fill="none" stroke="red" stroke-width="0.300044" d="M282.691,-166.836C289.016,-143.438 307.468,-75.1665 317.248,-38.9822"/>
<polygon fill="red" stroke="red" stroke-width="0.300044" points="320.64,-39.8455 319.87,-29.2787 313.882,-38.019 320.64,-39.8455"/>
</g>
<!-- &#45;6 -->
<g id="node6" class="node"><title>&#45;6</title>
<polygon fill="lightgray" stroke="black" points="566.5,-184.945 542.5,-184.945 542.5,-166.945 566.5,-166.945 566.5,-184.945"/>
<text text-anchor="middle" x="554.5" y="-173.745" font-family="Times,serif" font-size="9.00">&#45;6</text>
</g>
<!-- &#45;6&#45;&gt;1 -->
<g id="edge43" class="edge"><title>&#45;6&#45;&gt;1</title>
<path fill="none" stroke="green" stroke-width="0.203077" d="M550.185,-166.939C543.54,-154.609 530.575,-130.552 521.06,-112.897"/>
<polygon fill="green" stroke="green" stroke-width="0.203077" points="524.016,-111.004 516.191,-103.862 517.854,-114.325 524.016,-111.004"/>
</g>
<!-- &#45;7 -->
<g id="node7" class="node"><title>&#45;7</title>
<polygon fill="lightgray" stroke="black" points="118.5,-184.945 94.5,-184.945 94.5,-166.945 118.5,-166.945 118.5,-184.945"/>
<text text-anchor="middle" x="106.5" y="-173.745" font-family="Times,serif" font-size="9.00">&#45;7</text>
</g>
<!-- &#45;7&#45;&gt;2 -->
<g id="edge36" class="edge"><title>&#45;7&#45;&gt;2</title>
<path fill="none" stroke="green" stroke-width="0.111931" d="M113.286,-166.828C117.298,-162.144 122.548,-156.206 127.5,-151.196 142.796,-135.72 161.228,-119.196 174.722,-107.457"/>
<polygon fill="green" stroke="green" stroke-width="0.111931" points="177.13,-110.002 182.413,-100.819 172.556,-104.703 177.13,-110.002"/>
</g>
<!-- &#45;7&#45;&gt;3 -->
<g id="edge18" class="edge"><title>&#45;7&#45;&gt;3</title>
<path fill="none" stroke="green" stroke-width="0.42799" d="M100.758,-166.76C87.6804,-147.03 58.668,-96.2183 83.5,-65.6985 110.442,-32.5854 242.557,-20.7572 298.451,-17.1894"/>
<polygon fill="green" stroke="green" stroke-width="0.42799" points="298.788,-20.6756 308.56,-16.5822 298.368,-13.6882 298.788,-20.6756"/>
</g>
<!-- &#45;7&#45;&gt;228 -->
<g id="edge45" class="edge"><title>&#45;7&#45;&gt;228</title>
<path fill="none" stroke="green" stroke-width="0.133014" d="M111.771,-166.696C115.535,-161.474 121.059,-155.01 127.5,-151.196 128.774,-150.442 291.841,-113.804 361.025,-98.2813"/>
<polygon fill="green" stroke="green" stroke-width="0.133014" points="361.912,-101.669 370.903,-96.0653 360.379,-94.8392 361.912,-101.669"/>
</g>
<!-- &#45;8 -->
<g id="node8" class="node"><title>&#45;8</title>
<polygon fill="lightgray" stroke="black" points="250.5,-184.945 226.5,-184.945 226.5,-166.945 250.5,-166.945 250.5,-184.945"/>
<text text-anchor="middle" x="238.5" y="-173.745" font-family="Times,serif" font-size="9.00">&#45;8</text>
</g>
<!-- &#45;8&#45;&gt;1 -->
<g id="edge8" class="edge"><title>&#45;8&#45;&gt;1</title>
<path fill="none" stroke="red" stroke-width="0.160965" d="M243.767,-166.688C247.528,-161.462 253.052,-154.997 259.5,-151.196 323.036,-113.737 349.878,-132.809 421.5,-115.196 443.133,-109.876 467.586,-103.225 485.215,-98.316"/>
<polygon fill="red" stroke="red" stroke-width="0.160965" points="486.538,-101.58 495.223,-95.512 484.65,-94.8396 486.538,-101.58"/>
</g>
<!-- &#45;8&#45;&gt;2 -->
<g id="edge15" class="edge"><title>&#45;8&#45;&gt;2</title>
<path fill="none" stroke="green" stroke-width="0.361442" d="M234.185,-166.939C227.54,-154.609 214.575,-130.552 205.06,-112.897"/>
<polygon fill="green" stroke="green" stroke-width="0.361442" points="208.016,-111.004 200.191,-103.862 201.854,-114.325 208.016,-111.004"/>
</g>
<!-- &#45;8&#45;&gt;228 -->
<g id="edge29" class="edge"><title>&#45;8&#45;&gt;228</title>
<path fill="none" stroke="green" stroke-width="0.499376" d="M244.394,-166.664C248.254,-161.69 253.655,-155.511 259.5,-151.196 291.223,-127.778 333.587,-110.637 361.667,-100.866"/>
<polygon fill="green" stroke="green" stroke-width="0.499376" points="362.968,-104.121 371.32,-97.6018 360.726,-97.4898 362.968,-104.121"/>
</g>
<!-- 9310 -->
<g id="node33" class="node"><title>9310</title>
<ellipse fill="white" stroke="black" cx="251.5" cy="-90.4472" rx="25" ry="25"/>
<text text-anchor="middle" x="251.5" y="-88.2472" font-family="Times,serif" font-size="9.00">9310</text>
</g>
<!-- &#45;8&#45;&gt;9310 -->
<g id="edge9" class="edge"><title>&#45;8&#45;&gt;9310</title>
<path fill="none" stroke="green" stroke-width="0.3" d="M239.746,-166.939C241.244,-157.321 243.852,-140.567 246.232,-125.282"/>
<polygon fill="green" stroke="green" stroke-width="0.3" points="249.746,-125.461 247.827,-115.041 242.83,-124.384 249.746,-125.461"/>
</g>
<!-- &#45;9 -->
<g id="node9" class="node"><title>&#45;9</title>
<polygon fill="lightgray" stroke="black" points="813.5,-184.945 789.5,-184.945 789.5,-166.945 813.5,-166.945 813.5,-184.945"/>
<text text-anchor="middle" x="801.5" y="-173.745" font-family="Times,serif" font-size="9.00">&#45;9</text>
</g>
<!-- &#45;9&#45;&gt;0 -->
<g id="edge33" class="edge"><title>&#45;9&#45;&gt;0</title>
<path fill="none" stroke="green" stroke-width="0.171308" d="M804.472,-166.939C808.932,-154.928 817.523,-131.789 824.023,-114.279"/>
<polygon fill="green" stroke="green" stroke-width="0.171308" points="827.363,-115.34 827.562,-104.747 820.8,-112.903 827.363,-115.34"/>
</g>
<!-- &#45;9&#45;&gt;1 -->
<g id="edge41" class="edge"><title>&#45;9&#45;&gt;1</title>
<path fill="none" stroke="green" stroke-width="0.497246" d="M796.236,-166.684C792.475,-161.457 786.951,-154.992 780.5,-151.196 759.152,-138.634 597.216,-107.697 534.346,-96.0136"/>
<polygon fill="green" stroke="green" stroke-width="0.497246" points="534.615,-92.504 524.145,-94.1256 533.341,-99.3871 534.615,-92.504"/>
</g>
<!-- &#45;10 -->
<g id="node10" class="node"><title>&#45;10</title>
<polygon fill="lightgray" stroke="black" points="76,-184.945 47,-184.945 47,-166.945 76,-166.945 76,-184.945"/>
<text text-anchor="middle" x="61.5" y="-173.745" font-family="Times,serif" font-size="9.00">&#45;10</text>
</g>
<!-- &#45;10&#45;&gt;2 -->
<g id="edge3" class="edge"><title>&#45;10&#45;&gt;2</title>
<path fill="none" stroke="green" stroke-width="0.624988" d="M68.5782,-166.891C73.119,-162.003 79.3064,-155.834 85.5,-151.196 112.992,-130.61 148.395,-112.38 171.025,-101.626"/>
<polygon fill="green" stroke="green" stroke-width="0.624988" points="172.585,-104.761 180.166,-97.3594 169.624,-98.4176 172.585,-104.761"/>
</g>
<!-- &#45;11 -->
<g id="node11" class="node"><title>&#45;11</title>
<polygon fill="lightgray" stroke="black" points="340,-184.945 311,-184.945 311,-166.945 340,-166.945 340,-184.945"/>
<text text-anchor="middle" x="325.5" y="-173.745" font-family="Times,serif" font-size="9.00">&#45;11</text>
</g>
<!-- &#45;11&#45;&gt;228 -->
<g id="edge32" class="edge"><title>&#45;11&#45;&gt;228</title>
<path fill="none" stroke="green" stroke-width="0.114685" d="M331.828,-166.939C341.089,-155.223 358.72,-132.917 372.426,-115.578"/>
<polygon fill="green" stroke="green" stroke-width="0.114685" points="375.33,-117.548 378.786,-107.532 369.839,-113.207 375.33,-117.548"/>
</g>
<!-- &#45;12 -->
<g id="node12" class="node"><title>&#45;12</title>
<polygon fill="lightgray" stroke="black" points="1061,-184.945 1032,-184.945 1032,-166.945 1061,-166.945 1061,-184.945"/>
<text text-anchor="middle" x="1046.5" y="-173.745" font-family="Times,serif" font-size="9.00">&#45;12</text>
</g>
<!-- &#45;12&#45;&gt;0 -->
<g id="edge6" class="edge"><title>&#45;12&#45;&gt;0</title>
<path fill="none" stroke="red" stroke-width="0.215966" d="M1040.46,-166.882C1036.22,-161.738 1030.15,-155.291 1023.5,-151.196 969.658,-118.015 895.815,-101.812 857.638,-95.2187"/>
<polygon fill="red" stroke="red" stroke-width="0.215966" points="857.863,-91.7089 847.428,-93.5401 856.728,-98.6162 857.863,-91.7089"/>
</g>
<!-- &#45;13 -->
<g id="node13" class="node"><title>&#45;13</title>
<polygon fill="lightgray" stroke="black" points="1108,-184.945 1079,-184.945 1079,-166.945 1108,-166.945 1108,-184.945"/>
<text text-anchor="middle" x="1093.5" y="-173.745" font-family="Times,serif" font-size="9.00">&#45;13</text>
</g>
<!-- &#45;13&#45;&gt;0 -->
<g id="edge53" class="edge"><title>&#45;13&#45;&gt;0</title>
<path fill="none" stroke="red" stroke-width="0.464799" d="M1087.53,-166.755C1083.33,-161.558 1077.26,-155.1 1070.5,-151.196 1000.29,-110.652 902.941,-97.3693 857.603,-93.2219"/>
<polygon fill="red" stroke="red" stroke-width="0.464799" points="857.751,-89.7221 847.493,-92.3722 857.165,-96.6976 857.751,-89.7221"/>
</g>
<!-- &#45;14 -->
<g id="node14" class="node"><title>&#45;14</title>
<polygon fill="lightgray" stroke="black" points="908,-184.945 879,-184.945 879,-166.945 908,-166.945 908,-184.945"/>
<text text-anchor="middle" x="893.5" y="-173.745" font-family="Times,serif" font-size="9.00">&#45;14</text>
</g>
<!-- &#45;14&#45;&gt;0 -->
<g id="edge42" class="edge"><title>&#45;14&#45;&gt;0</title>
<path fill="none" stroke="green" stroke-width="0.204337" d="M887.651,-166.939C878.408,-154.286 860.143,-129.285 847.167,-111.524"/>
<polygon fill="green" stroke="green" stroke-width="0.204337" points="849.665,-109.01 840.94,-103 844.013,-113.139 849.665,-109.01"/>
</g>
<!-- &#45;14&#45;&gt;1 -->
<g id="edge55" class="edge"><title>&#45;14&#45;&gt;1</title>
<path fill="none" stroke="green" stroke-width="0.113521" d="M887.647,-166.546C883.491,-161.261 877.433,-154.782 870.5,-151.196 777.429,-103.055 740.803,-132.756 637.5,-115.196 601.431,-109.065 559.798,-101.192 534.059,-96.2314"/>
<polygon fill="green" stroke="green" stroke-width="0.113521" points="534.546,-92.7608 524.064,-94.2973 533.217,-99.6334 534.546,-92.7608"/>
</g>
<!-- &#45;14&#45;&gt;3 -->
<g id="edge23" class="edge"><title>&#45;14&#45;&gt;3</title>
<path fill="none" stroke="green" stroke-width="0.251413" d="M894.994,-166.849C898.249,-146.406 903.526,-92.4374 874.5,-65.6985 835.35,-29.6334 450.861,-18.6496 348.453,-16.3524"/>
<polygon fill="green" stroke="green" stroke-width="0.251413" points="348.486,-12.8524 338.412,-16.1351 348.334,-19.8508 348.486,-12.8524"/>
</g>
<!-- &#45;15 -->
<g id="node15" class="node"><title>&#45;15</title>
<polygon fill="lightgray" stroke="black" points="996,-254.693 967,-254.693 967,-236.693 996,-236.693 996,-254.693"/>
<text text-anchor="middle" x="981.5" y="-243.493" font-family="Times,serif" font-size="9.00">&#45;15</text>
</g>
<!-- &#45;16 -->
<g id="node16" class="node"><title>&#45;16</title>
<polygon fill="lightgray" stroke="black" points="771,-184.945 742,-184.945 742,-166.945 771,-166.945 771,-184.945"/>
<text text-anchor="middle" x="756.5" y="-173.745" font-family="Times,serif" font-size="9.00">&#45;16</text>
</g>
<!-- &#45;16&#45;&gt;1 -->
<g id="edge30" class="edge"><title>&#45;16&#45;&gt;1</title>
<path fill="none" stroke="red" stroke-width="0.431852" d="M750.181,-166.798C745.756,-161.618 739.414,-155.164 732.5,-151.196 698.25,-131.542 584.612,-106.746 534.086,-96.3675"/>
<polygon fill="red" stroke="red" stroke-width="0.431852" points="534.537,-92.8875 524.04,-94.3234 533.141,-99.747 534.537,-92.8875"/>
</g>
<!-- 9373 -->
<g id="node32" class="node"><title>9373</title>
<ellipse fill="white" stroke="black" cx="671.5" cy="-90.4472" rx="25" ry="25"/>
<text text-anchor="middle" x="671.5" y="-88.2472" font-family="Times,serif" font-size="9.00">9373</text>
</g>
<!-- &#45;16&#45;&gt;9373 -->
<g id="edge51" class="edge"><title>&#45;16&#45;&gt;9373</title>
<path fill="none" stroke="green" stroke-width="0.3" d="M748.069,-166.581C743.472,-162.027 737.68,-156.295 732.5,-151.196 720.57,-139.45 707.294,-126.44 696.181,-115.566"/>
<polygon fill="green" stroke="green" stroke-width="0.3" points="698.473,-112.912 688.877,-108.421 693.578,-117.916 698.473,-112.912"/>
</g>
<!-- &#45;17 -->
<g id="node17" class="node"><title>&#45;17</title>
<polygon fill="lightgray" stroke="black" points="861,-184.945 832,-184.945 832,-166.945 861,-166.945 861,-184.945"/>
<text text-anchor="middle" x="846.5" y="-173.745" font-family="Times,serif" font-size="9.00">&#45;17</text>
</g>
<!-- &#45;17&#45;&gt;0 -->
<g id="edge12" class="edge"><title>&#45;17&#45;&gt;0</title>
<path fill="none" stroke="red" stroke-width="0.452436" d="M845.158,-166.939C843.185,-155.175 839.423,-132.737 836.511,-115.368"/>
<polygon fill="red" stroke="red" stroke-width="0.452436" points="839.936,-114.633 834.831,-105.349 833.033,-115.791 839.936,-114.633"/>
</g>
<!-- &#45;17&#45;&gt;1 -->
<g id="edge49" class="edge"><title>&#45;17&#45;&gt;1</title>
<path fill="none" stroke="green" stroke-width="0.118235" d="M840.274,-166.629C835.887,-161.379 829.555,-154.908 822.5,-151.196 819.262,-149.492 607.462,-109.771 534.15,-96.0549"/>
<polygon fill="green" stroke="green" stroke-width="0.118235" points="534.475,-92.555 524.002,-94.1569 533.188,-99.4357 534.475,-92.555"/>
</g>
<!-- &#45;18 -->
<g id="node18" class="node"><title>&#45;18</title>
<polygon fill="lightgray" stroke="black" points="614,-184.945 585,-184.945 585,-166.945 614,-166.945 614,-184.945"/>
<text text-anchor="middle" x="599.5" y="-173.745" font-family="Times,serif" font-size="9.00">&#45;18</text>
</g>
<!-- &#45;18&#45;&gt;0 -->
<g id="edge52" class="edge"><title>&#45;18&#45;&gt;0</title>
<path fill="none" stroke="green" stroke-width="0.124618" d="M605.508,-166.825C609.729,-161.657 615.802,-155.205 622.5,-151.196 683.11,-114.922 766.754,-99.7981 807.783,-94.2537"/>
<polygon fill="green" stroke="green" stroke-width="0.124618" points="808.236,-97.7242 817.714,-92.9885 807.352,-90.7804 808.236,-97.7242"/>
</g>
<!-- &#45;18&#45;&gt;228 -->
<g id="edge26" class="edge"><title>&#45;18&#45;&gt;228</title>
<path fill="none" stroke="green" stroke-width="0.214026" d="M593.112,-166.916C588.656,-161.786 582.309,-155.343 575.5,-151.196 549.287,-135.231 466.721,-111.608 421.625,-99.3993"/>
<polygon fill="green" stroke="green" stroke-width="0.214026" points="422.378,-95.9778 411.813,-96.763 420.562,-102.738 422.378,-95.9778"/>
</g>
<!-- &#45;19 -->
<g id="node19" class="node"><title>&#45;19</title>
<polygon fill="lightgray" stroke="black" points="122,-99.4472 93,-99.4472 93,-81.4472 122,-81.4472 122,-99.4472"/>
<text text-anchor="middle" x="107.5" y="-88.2472" font-family="Times,serif" font-size="9.00">&#45;19</text>
</g>
<!-- &#45;19&#45;&gt;3 -->
<g id="edge4" class="edge"><title>&#45;19&#45;&gt;3</title>
<path fill="none" stroke="green" stroke-width="0.208468" d="M115.45,-81.3441C120.931,-76.1834 128.623,-69.733 136.5,-65.6985 190.664,-37.9569 261.791,-24.5172 298.765,-19.0285"/>
<polygon fill="green" stroke="green" stroke-width="0.208468" points="299.255,-22.4942 308.667,-17.6295 298.276,-15.563 299.255,-22.4942"/>
</g>
<!-- &#45;20 -->
<g id="node20" class="node"><title>&#45;20</title>
<polygon fill="lightgray" stroke="black" points="29,-184.945 0,-184.945 0,-166.945 29,-166.945 29,-184.945"/>
<text text-anchor="middle" x="14.5" y="-173.745" font-family="Times,serif" font-size="9.00">&#45;20</text>
</g>
<!-- &#45;20&#45;&gt;2 -->
<g id="edge1" class="edge"><title>&#45;20&#45;&gt;2</title>
<path fill="none" stroke="red" stroke-width="0.103049" d="M21.011,-166.565C25.2602,-161.554 31.1776,-155.371 37.5,-151.196 40.4136,-149.272 127.259,-116.418 170.083,-100.267"/>
<polygon fill="red" stroke="red" stroke-width="0.103049" points="171.584,-103.442 179.707,-96.6398 169.115,-96.8921 171.584,-103.442"/>
</g>
<!-- &#45;21 -->
<g id="node21" class="node"><title>&#45;21</title>
<polygon fill="lightgray" stroke="black" points="208,-184.945 179,-184.945 179,-166.945 208,-166.945 208,-184.945"/>
<text text-anchor="middle" x="193.5" y="-173.745" font-family="Times,serif" font-size="9.00">&#45;21</text>
</g>
<!-- &#45;21&#45;&gt;1 -->
<g id="edge7" class="edge"><title>&#45;21&#45;&gt;1</title>
<path fill="none" stroke="green" stroke-width="0.37355" d="M199.709,-166.597C204.088,-161.333 210.419,-154.859 217.5,-151.196 299.274,-108.893 331.634,-135.21 421.5,-115.196 443.373,-110.325 467.974,-103.576 485.593,-98.5171"/>
<polygon fill="green" stroke="green" stroke-width="0.37355" points="486.947,-101.768 495.573,-95.6176 484.994,-95.0464 486.947,-101.768"/>
</g>
<!-- &#45;21&#45;&gt;2 -->
<g id="edge47" class="edge"><title>&#45;21&#45;&gt;2</title>
<path fill="none" stroke="red" stroke-width="0.109502" d="M193.5,-166.939C193.5,-155.175 193.5,-132.737 193.5,-115.368"/>
<polygon fill="red" stroke="red" stroke-width="0.109502" points="197,-115.349 193.5,-105.349 190,-115.349 197,-115.349"/>
</g>
<!-- &#45;22 -->
<g id="node22" class="node"><title>&#45;22</title>
<polygon fill="lightgray" stroke="black" points="430,-184.945 401,-184.945 401,-166.945 430,-166.945 430,-184.945"/>
<text text-anchor="middle" x="415.5" y="-173.745" font-family="Times,serif" font-size="9.00">&#45;22</text>
</g>
<!-- &#45;22&#45;&gt;1 -->
<g id="edge16" class="edge"><title>&#45;22&#45;&gt;1</title>
<path fill="none" stroke="red" stroke-width="0.152701" d="M422.97,-166.828C427.377,-162.144 433.127,-156.206 438.5,-151.196 455.441,-135.399 475.749,-118.499 490.298,-106.718"/>
<polygon fill="red" stroke="red" stroke-width="0.152701" points="492.53,-109.415 498.129,-100.42 488.143,-103.959 492.53,-109.415"/>
</g>
<!-- &#45;22&#45;&gt;228 -->
<g id="edge24" class="edge"><title>&#45;22&#45;&gt;228</title>
<path fill="none" stroke="green" stroke-width="0.24801" d="M413.199,-166.939C410.167,-156.392 404.67,-137.265 399.967,-120.904"/>
<polygon fill="green" stroke="green" stroke-width="0.24801" points="403.297,-119.819 397.171,-111.175 396.569,-121.753 403.297,-119.819"/>
</g>
<!-- &#45;23 -->
<g id="node23" class="node"><title>&#45;23</title>
<polygon fill="lightgray" stroke="black" points="477,-184.945 448,-184.945 448,-166.945 477,-166.945 477,-184.945"/>
<text text-anchor="middle" x="462.5" y="-173.745" font-family="Times,serif" font-size="9.00">&#45;23</text>
</g>
<!-- &#45;23&#45;&gt;0 -->
<g id="edge2" class="edge"><title>&#45;23&#45;&gt;0</title>
<path fill="none" stroke="red" stroke-width="0.223094" d="M468.364,-166.566C472.524,-161.29 478.583,-154.813 485.5,-151.196 573.299,-105.285 607.91,-132.303 705.5,-115.196 741.265,-108.927 782.578,-101.09 808.124,-96.1753"/>
<polygon fill="red" stroke="red" stroke-width="0.223094" points="808.889,-99.5923 818.044,-94.2608 807.562,-92.7192 808.889,-99.5923"/>
</g>
<!-- &#45;23&#45;&gt;1 -->
<g id="edge44" class="edge"><title>&#45;23&#45;&gt;1</title>
<path fill="none" stroke="green" stroke-width="0.277995" d="M467.007,-166.939C473.947,-154.609 487.488,-130.552 497.426,-112.897"/>
<polygon fill="green" stroke="green" stroke-width="0.277995" points="500.657,-114.293 502.512,-103.862 494.557,-110.859 500.657,-114.293"/>
</g>
<!-- &#45;23&#45;&gt;2 -->
<g id="edge25" class="edge"><title>&#45;23&#45;&gt;2</title>
<path fill="none" stroke="green" stroke-width="0.159397" d="M456.307,-166.566C451.934,-161.289 445.605,-154.812 438.5,-151.196 349.81,-106.055 306.19,-160.337 217.5,-115.196 214.757,-113.8 212.13,-111.978 209.687,-109.963"/>
<polygon fill="green" stroke="green" stroke-width="0.159397" points="211.807,-107.144 202.184,-102.71 206.941,-112.177 211.807,-107.144"/>
</g>
<!-- &#45;23&#45;&gt;3 -->
<g id="edge13" class="edge"><title>&#45;23&#45;&gt;3</title>
<path fill="none" stroke="red" stroke-width="0.322533" d="M461.481,-166.778C458.632,-147.085 448.913,-96.3529 421.5,-65.6985 401.618,-43.4653 369.497,-29.8017 347.484,-22.5294"/>
<polygon fill="red" stroke="red" stroke-width="0.322533" points="348.463,-19.1687 337.875,-19.5465 346.388,-25.8539 348.463,-19.1687"/>
</g>
<!-- &#45;24 -->
<g id="node24" class="node"><title>&#45;24</title>
<polygon fill="lightgray" stroke="black" points="524,-184.945 495,-184.945 495,-166.945 524,-166.945 524,-184.945"/>
<text text-anchor="middle" x="509.5" y="-173.745" font-family="Times,serif" font-size="9.00">&#45;24</text>
</g>
<!-- &#45;24&#45;&gt;1 -->
<g id="edge5" class="edge"><title>&#45;24&#45;&gt;1</title>
<path fill="none" stroke="red" stroke-width="0.262288" d="M509.5,-166.939C509.5,-155.175 509.5,-132.737 509.5,-115.368"/>
<polygon fill="red" stroke="red" stroke-width="0.262288" points="513,-115.349 509.5,-105.349 506,-115.349 513,-115.349"/>
</g>
<!-- 0&#45;&gt;0 -->
<g id="edge22" class="edge"><title>0&#45;&gt;0</title>
<path fill="none" stroke="red" stroke-width="0.432329" d="M842.928,-101.274C853.539,-107.642 865.349,-104.033 865.349,-90.4472 865.349,-81.1069 859.767,-76.4823 852.83,-76.5735"/>
<polygon fill="red" stroke="red" stroke-width="0.432329" points="851.456,-73.3343 842.928,-79.6209 853.515,-80.0247 851.456,-73.3343"/>
</g>
<!-- 1&#45;&gt;1 -->
<g id="edge19" class="edge"><title>1&#45;&gt;1</title>
<path fill="none" stroke="red" stroke-width="0.133166" d="M519.928,-101.274C530.539,-107.642 542.349,-104.033 542.349,-90.4472 542.349,-81.1069 536.767,-76.4823 529.83,-76.5735"/>
<polygon fill="red" stroke="red" stroke-width="0.133166" points="528.456,-73.3343 519.928,-79.6209 530.515,-80.0247 528.456,-73.3343"/>
</g>
<!-- 3&#45;&gt;3 -->
<g id="edge11" class="edge"><title>3&#45;&gt;3</title>
<path fill="none" stroke="red" stroke-width="0.113296" d="M333.928,-25.6755C344.539,-32.0439 356.349,-28.4352 356.349,-14.8492 356.349,-5.50891 350.767,-0.884351 343.83,-0.975566"/>
<polygon fill="red" stroke="red" stroke-width="0.113296" points="342.456,2.26363 333.928,-4.02295 344.515,-4.42672 342.456,2.26363"/>
</g>
<!-- 228&#45;&gt;3 -->
<g id="edge34" class="edge"><title>228&#45;&gt;3</title>
<path fill="none" stroke="red" stroke-width="0.216571" d="M377.41,-74.1977C366.56,-62.4546 351.534,-46.191 340.101,-33.8165"/>
<polygon fill="red" stroke="red" stroke-width="0.216571" points="342.543,-31.3027 333.186,-26.333 337.402,-36.053 342.543,-31.3027"/>
</g>
<!-- 1006&#45;&gt;0 -->
<g id="edge20" class="edge"><title>1006&#45;&gt;0</title>
<path fill="none" stroke="red" stroke-width="0.127006" d="M968.628,-161.822C962.813,-158.279 956.457,-154.511 950.5,-151.196 917.845,-133.022 879.018,-113.808 855.065,-102.221"/>
<polygon fill="red" stroke="red" stroke-width="0.127006" points="856.3,-98.931 845.772,-97.7473 853.264,-105.238 856.3,-98.931"/>
</g>
<!-- 9373&#45;&gt;3 -->
<g id="edge17" class="edge"><title>9373&#45;&gt;3</title>
<path fill="none" stroke="red" stroke-width="0.149821" d="M647.306,-84.3304C583.631,-70.8639 411.913,-34.5475 347.95,-21.0201"/>
<polygon fill="red" stroke="red" stroke-width="0.149821" points="348.481,-17.555 337.973,-18.9101 347.032,-24.4035 348.481,-17.555"/>
</g>
<!-- 9310&#45;&gt;3 -->
<g id="edge14" class="edge"><title>9310&#45;&gt;3</title>
<path fill="none" stroke="red" stroke-width="0.199571" d="M268.563,-72.0055C279.916,-60.4009 294.781,-45.206 306.185,-33.5488"/>
<polygon fill="red" stroke="red" stroke-width="0.199571" points="308.95,-35.727 313.441,-26.1311 303.946,-30.8318 308.95,-35.727"/>
</g>
</g>
</svg>
