<?xml version="1.0" encoding="UTF-8" standalone="no"?>
<!DOCTYPE svg PUBLIC "-//W3C//DTD SVG 1.1//EN"
 "http://www.w3.org/Graphics/SVG/1.1/DTD/svg11.dtd">
<!-- Generated by graphviz version 2.38.0 (20140413.2041)
 -->
<!-- Title: %3 Pages: 1 -->
<svg width="864pt" height="177pt"
 viewBox="0.00 0.00 864.08 177.20" xmlns="http://www.w3.org/2000/svg" xmlns:xlink="http://www.w3.org/1999/xlink">
<g id="graph0" class="graph" transform="scale(1 1) rotate(0) translate(4 173.196)">
<title>%3</title>
<polygon fill="white" stroke="none" points="-4,4 -4,-173.196 860.079,-173.196 860.079,4 -4,4"/>
<!-- &#45;1 -->
<g id="node1" class="node"><title>&#45;1</title>
<polygon fill="lightgray" stroke="black" points="180.579,-99.4472 156.579,-99.4472 156.579,-81.4472 180.579,-81.4472 180.579,-99.4472"/>
<text text-anchor="middle" x="168.579" y="-88.2472" font-family="Times,serif" font-size="9.00">&#45;1</text>
</g>
<!-- 0 -->
<g id="node25" class="node"><title>0</title>
<ellipse fill="lightblue" stroke="black" cx="168.579" cy="-14.8492" rx="14.7" ry="14.7"/>
<text text-anchor="middle" x="168.579" y="-12.6492" font-family="Times,serif" font-size="9.00">0</text>
</g>
<!-- &#45;1&#45;&gt;0 -->
<g id="edge8" class="edge"><title>&#45;1&#45;&gt;0</title>
<path fill="none" stroke="green" stroke-width="1.70078" d="M168.579,-81.2897C168.579,-71.3882 168.579,-54.2466 168.579,-39.9908"/>
<polygon fill="green" stroke="green" stroke-width="1.70078" points="172.079,-39.8196 168.579,-29.8196 165.079,-39.8196 172.079,-39.8196"/>
</g>
<!-- 2 -->
<g id="node27" class="node"><title>2</title>
<ellipse fill="lightblue" stroke="black" cx="307.579" cy="-14.8492" rx="14.7" ry="14.7"/>
<text text-anchor="middle" x="307.579" y="-12.6492" font-family="Times,serif" font-size="9.00">2</text>
</g>
<!-- &#45;1&#45;&gt;2 -->
<g id="edge18" class="edge"><title>&#45;1&#45;&gt;2</title>
<path fill="none" stroke="green" stroke-width="0.201101" d="M174.435,-81.1138C178.281,-76.1203 183.68,-69.9388 189.579,-65.6985 218.969,-44.5734 258.682,-30.1611 283.714,-22.4644"/>
<polygon fill="green" stroke="green" stroke-width="0.201101" points="284.874,-25.771 293.47,-19.577 282.888,-19.0588 284.874,-25.771"/>
</g>
<!-- &#45;2 -->
<g id="node2" class="node"><title>&#45;2</title>
<polygon fill="lightgray" stroke="black" points="546.579,-169.196 522.579,-169.196 522.579,-151.196 546.579,-151.196 546.579,-169.196"/>
<text text-anchor="middle" x="534.579" y="-157.996" font-family="Times,serif" font-size="9.00">&#45;2</text>
</g>
<!-- &#45;2&#45;&gt;0 -->
<g id="edge3" class="edge"><title>&#45;2&#45;&gt;0</title>
<path fill="none" stroke="green" stroke-width="0.389754" d="M522.571,-159.136C447.655,-158.641 46.4195,-154.172 10.5791,-115.196 -4.31139,-99.0027 -2.42737,-83.4406 10.5791,-65.6985 41.2483,-23.8629 107.118,-16.2321 143.373,-15.3756"/>
<polygon fill="green" stroke="green" stroke-width="0.389754" points="143.629,-18.8738 153.602,-15.2969 143.575,-11.874 143.629,-18.8738"/>
</g>
<!-- 3 -->
<g id="node28" class="node"><title>3</title>
<ellipse fill="lightblue" stroke="black" cx="534.579" cy="-14.8492" rx="14.7" ry="14.7"/>
<text text-anchor="middle" x="534.579" y="-12.6492" font-family="Times,serif" font-size="9.00">3</text>
</g>
<!-- &#45;2&#45;&gt;3 -->
<g id="edge24" class="edge"><title>&#45;2&#45;&gt;3</title>
<path fill="none" stroke="red" stroke-width="1.86168" d="M534.579,-151.078C534.579,-130.007 534.579,-72.9222 534.579,-40.0494"/>
<polygon fill="red" stroke="red" stroke-width="1.86168" points="538.079,-39.9164 534.579,-29.9164 531.079,-39.9164 538.079,-39.9164"/>
</g>
<!-- 6045 -->
<g id="node29" class="node"><title>6045</title>
<ellipse fill="white" stroke="black" cx="818.579" cy="-90.4472" rx="25" ry="25"/>
<text text-anchor="middle" x="818.579" y="-88.2472" font-family="Times,serif" font-size="9.00">6045</text>
</g>
<!-- &#45;2&#45;&gt;6045 -->
<g id="edge7" class="edge"><title>&#45;2&#45;&gt;6045</title>
<path fill="none" stroke="green" stroke-width="0.189431" d="M546.875,-154.021C549.698,-152.971 552.713,-151.957 555.579,-151.196 655.579,-124.635 689.863,-154.488 785.579,-115.196 787.44,-114.432 789.296,-113.544 791.124,-112.569"/>
<polygon fill="green" stroke="green" stroke-width="0.189431" points="793.26,-115.363 799.938,-107.138 789.588,-109.404 793.26,-115.363"/>
</g>
<!-- &#45;3 -->
<g id="node3" class="node"><title>&#45;3</title>
<polygon fill="lightgray" stroke="black" points="588.579,-169.196 564.579,-169.196 564.579,-151.196 588.579,-151.196 588.579,-169.196"/>
<text text-anchor="middle" x="576.579" y="-157.996" font-family="Times,serif" font-size="9.00">&#45;3</text>
</g>
<!-- &#45;4 -->
<g id="node4" class="node"><title>&#45;4</title>
<polygon fill="lightgray" stroke="black" points="411.579,-99.4472 387.579,-99.4472 387.579,-81.4472 411.579,-81.4472 411.579,-99.4472"/>
<text text-anchor="middle" x="399.579" y="-88.2472" font-family="Times,serif" font-size="9.00">&#45;4</text>
</g>
<!-- &#45;4&#45;&gt;0 -->
<g id="edge20" class="edge"><title>&#45;4&#45;&gt;0</title>
<path fill="none" stroke="red" stroke-width="0.438689" d="M394.294,-81.221C390.525,-76.0083 385,-69.5463 378.579,-65.6985 318.684,-29.8035 234.715,-19.7524 193.455,-16.9402"/>
<polygon fill="red" stroke="red" stroke-width="0.438689" points="193.655,-13.446 183.465,-16.3464 193.24,-20.4336 193.655,-13.446"/>
</g>
<!-- &#45;4&#45;&gt;2 -->
<g id="edge6" class="edge"><title>&#45;4&#45;&gt;2</title>
<path fill="none" stroke="red" stroke-width="0.479979" d="M393.018,-81.0941C389.081,-76.3307 383.831,-70.3935 378.579,-65.6985 363.012,-51.7831 343.484,-38.3203 328.85,-28.9007"/>
<polygon fill="red" stroke="red" stroke-width="0.479979" points="330.355,-25.7114 320.031,-23.3304 326.616,-31.6298 330.355,-25.7114"/>
</g>
<!-- &#45;4&#45;&gt;3 -->
<g id="edge9" class="edge"><title>&#45;4&#45;&gt;3</title>
<path fill="none" stroke="green" stroke-width="1.48708" d="M405.812,-81.1613C409.879,-76.1857 415.539,-70.0062 421.579,-65.6985 449.56,-45.7426 486.799,-31.2346 510.735,-23.1753"/>
<polygon fill="green" stroke="green" stroke-width="1.48708" points="511.989,-26.448 520.414,-20.0243 509.822,-19.7918 511.989,-26.448"/>
</g>
<!-- &#45;5 -->
<g id="node5" class="node"><title>&#45;5</title>
<polygon fill="lightgray" stroke="black" points="43.5791,-99.4472 19.5791,-99.4472 19.5791,-81.4472 43.5791,-81.4472 43.5791,-99.4472"/>
<text text-anchor="middle" x="31.5791" y="-88.2472" font-family="Times,serif" font-size="9.00">&#45;5</text>
</g>
<!-- &#45;5&#45;&gt;0 -->
<g id="edge16" class="edge"><title>&#45;5&#45;&gt;0</title>
<path fill="none" stroke="red" stroke-width="0.959885" d="M37.4442,-81.1266C41.2938,-76.1379 46.6931,-69.9569 52.5791,-65.6985 81.3269,-44.9001 120.1,-30.4729 144.725,-22.6755"/>
<polygon fill="red" stroke="red" stroke-width="0.959885" points="145.799,-26.0071 154.342,-19.7405 143.756,-19.312 145.799,-26.0071"/>
</g>
<!-- &#45;6 -->
<g id="node6" class="node"><title>&#45;6</title>
<polygon fill="lightgray" stroke="black" points="630.579,-169.196 606.579,-169.196 606.579,-151.196 630.579,-151.196 630.579,-169.196"/>
<text text-anchor="middle" x="618.579" y="-157.996" font-family="Times,serif" font-size="9.00">&#45;6</text>
</g>
<!-- &#45;7 -->
<g id="node7" class="node"><title>&#45;7</title>
<polygon fill="lightgray" stroke="black" points="681.579,-99.4472 657.579,-99.4472 657.579,-81.4472 681.579,-81.4472 681.579,-99.4472"/>
<text text-anchor="middle" x="669.579" y="-88.2472" font-family="Times,serif" font-size="9.00">&#45;7</text>
</g>
<!-- 1 -->
<g id="node26" class="node"><title>1</title>
<ellipse fill="lightblue" stroke="black" cx="669.579" cy="-14.8492" rx="14.7" ry="14.7"/>
<text text-anchor="middle" x="669.579" y="-12.6492" font-family="Times,serif" font-size="9.00">1</text>
</g>
<!-- &#45;7&#45;&gt;1 -->
<g id="edge30" class="edge"><title>&#45;7&#45;&gt;1</title>
<path fill="none" stroke="green" stroke-width="0.179558" d="M669.579,-81.2897C669.579,-71.3882 669.579,-54.2466 669.579,-39.9908"/>
<polygon fill="green" stroke="green" stroke-width="0.179558" points="673.079,-39.8196 669.579,-29.8196 666.079,-39.8196 673.079,-39.8196"/>
</g>
<!-- &#45;7&#45;&gt;3 -->
<g id="edge13" class="edge"><title>&#45;7&#45;&gt;3</title>
<path fill="none" stroke="green" stroke-width="0.158639" d="M663.705,-81.1398C659.851,-76.156 654.452,-69.9756 648.579,-65.6985 620.593,-45.3152 582.963,-30.915 558.736,-22.996"/>
<polygon fill="green" stroke="green" stroke-width="0.158639" points="559.525,-19.5751 548.935,-19.9078 557.421,-26.2515 559.525,-19.5751"/>
</g>
<!-- &#45;8 -->
<g id="node8" class="node"><title>&#45;8</title>
<polygon fill="lightgray" stroke="black" points="672.579,-169.196 648.579,-169.196 648.579,-151.196 672.579,-151.196 672.579,-169.196"/>
<text text-anchor="middle" x="660.579" y="-157.996" font-family="Times,serif" font-size="9.00">&#45;8</text>
</g>
<!-- &#45;9 -->
<g id="node9" class="node"><title>&#45;9</title>
<polygon fill="lightgray" stroke="black" points="714.579,-169.196 690.579,-169.196 690.579,-151.196 714.579,-151.196 714.579,-169.196"/>
<text text-anchor="middle" x="702.579" y="-157.996" font-family="Times,serif" font-size="9.00">&#45;9</text>
</g>
<!-- &#45;10 -->
<g id="node10" class="node"><title>&#45;10</title>
<polygon fill="lightgray" stroke="black" points="228.079,-99.4472 199.079,-99.4472 199.079,-81.4472 228.079,-81.4472 228.079,-99.4472"/>
<text text-anchor="middle" x="213.579" y="-88.2472" font-family="Times,serif" font-size="9.00">&#45;10</text>
</g>
<!-- &#45;10&#45;&gt;0 -->
<g id="edge12" class="edge"><title>&#45;10&#45;&gt;0</title>
<path fill="none" stroke="red" stroke-width="0.540375" d="M208.591,-81.2897C202.035,-70.566 190.285,-51.3498 181.209,-36.505"/>
<polygon fill="red" stroke="red" stroke-width="0.540375" points="184.176,-34.6477 175.973,-27.9419 178.203,-38.2993 184.176,-34.6477"/>
</g>
<!-- &#45;10&#45;&gt;2 -->
<g id="edge2" class="edge"><title>&#45;10&#45;&gt;2</title>
<path fill="none" stroke="red" stroke-width="1.59254" d="M220.889,-81.151C225.242,-76.4066 230.992,-70.4694 236.579,-65.6985 252.457,-52.1395 271.96,-38.6471 286.505,-29.1254"/>
<polygon fill="red" stroke="red" stroke-width="1.59254" points="288.751,-31.8415 295.259,-23.4809 284.958,-25.9583 288.751,-31.8415"/>
</g>
<!-- &#45;11 -->
<g id="node11" class="node"><title>&#45;11</title>
<polygon fill="lightgray" stroke="black" points="369.079,-99.4472 340.079,-99.4472 340.079,-81.4472 369.079,-81.4472 369.079,-99.4472"/>
<text text-anchor="middle" x="354.579" y="-88.2472" font-family="Times,serif" font-size="9.00">&#45;11</text>
</g>
<!-- &#45;11&#45;&gt;2 -->
<g id="edge27" class="edge"><title>&#45;11&#45;&gt;2</title>
<path fill="none" stroke="green" stroke-width="0.257706" d="M349.37,-81.2897C342.482,-70.504 330.108,-51.1274 320.606,-36.248"/>
<polygon fill="green" stroke="green" stroke-width="0.257706" points="323.467,-34.226 315.135,-27.6817 317.568,-37.9935 323.467,-34.226"/>
</g>
<!-- &#45;12 -->
<g id="node12" class="node"><title>&#45;12</title>
<polygon fill="lightgray" stroke="black" points="506.079,-99.4472 477.079,-99.4472 477.079,-81.4472 506.079,-81.4472 506.079,-99.4472"/>
<text text-anchor="middle" x="491.579" y="-88.2472" font-family="Times,serif" font-size="9.00">&#45;12</text>
</g>
<!-- &#45;12&#45;&gt;3 -->
<g id="edge23" class="edge"><title>&#45;12&#45;&gt;3</title>
<path fill="none" stroke="red" stroke-width="0.880831" d="M496.345,-81.2897C502.551,-70.6672 513.626,-51.7116 522.265,-36.9263"/>
<polygon fill="red" stroke="red" stroke-width="0.880831" points="525.491,-38.3419 527.514,-27.9419 519.447,-34.8106 525.491,-38.3419"/>
</g>
<!-- &#45;13 -->
<g id="node13" class="node"><title>&#45;13</title>
<polygon fill="lightgray" stroke="black" points="762.079,-169.196 733.079,-169.196 733.079,-151.196 762.079,-151.196 762.079,-169.196"/>
<text text-anchor="middle" x="747.579" y="-157.996" font-family="Times,serif" font-size="9.00">&#45;13</text>
</g>
<!-- &#45;14 -->
<g id="node14" class="node"><title>&#45;14</title>
<polygon fill="lightgray" stroke="black" points="809.079,-169.196 780.079,-169.196 780.079,-151.196 809.079,-151.196 809.079,-169.196"/>
<text text-anchor="middle" x="794.579" y="-157.996" font-family="Times,serif" font-size="9.00">&#45;14</text>
</g>
<!-- &#45;15 -->
<g id="node15" class="node"><title>&#45;15</title>
<polygon fill="lightgray" stroke="black" points="322.079,-99.4472 293.079,-99.4472 293.079,-81.4472 322.079,-81.4472 322.079,-99.4472"/>
<text text-anchor="middle" x="307.579" y="-88.2472" font-family="Times,serif" font-size="9.00">&#45;15</text>
</g>
<!-- &#45;15&#45;&gt;2 -->
<g id="edge5" class="edge"><title>&#45;15&#45;&gt;2</title>
<path fill="none" stroke="red" stroke-width="0.455194" d="M307.579,-81.2897C307.579,-71.3882 307.579,-54.2466 307.579,-39.9908"/>
<polygon fill="red" stroke="red" stroke-width="0.455194" points="311.079,-39.8196 307.579,-29.8196 304.079,-39.8196 311.079,-39.8196"/>
</g>
<!-- &#45;16 -->
<g id="node16" class="node"><title>&#45;16</title>
<polygon fill="lightgray" stroke="black" points="459.079,-99.4472 430.079,-99.4472 430.079,-81.4472 459.079,-81.4472 459.079,-99.4472"/>
<text text-anchor="middle" x="444.579" y="-88.2472" font-family="Times,serif" font-size="9.00">&#45;16</text>
</g>
<!-- &#45;16&#45;&gt;0 -->
<g id="edge11" class="edge"><title>&#45;16&#45;&gt;0</title>
<path fill="none" stroke="green" stroke-width="0.307763" d="M438.345,-81.1472C433.955,-75.9033 427.622,-69.4342 420.579,-65.6985 381.058,-44.7343 248.71,-26.013 193.303,-18.8947"/>
<polygon fill="green" stroke="green" stroke-width="0.307763" points="193.659,-15.4119 183.298,-17.6286 192.78,-22.3565 193.659,-15.4119"/>
</g>
<!-- &#45;16&#45;&gt;1 -->
<g id="edge19" class="edge"><title>&#45;16&#45;&gt;1</title>
<path fill="none" stroke="red" stroke-width="0.173313" d="M450.873,-81.2574C455.289,-76.0601 461.628,-69.6015 468.579,-65.6985 526.319,-33.2781 605.019,-21.7049 644.631,-17.763"/>
<polygon fill="red" stroke="red" stroke-width="0.173313" points="645.077,-21.237 654.717,-16.8426 644.441,-14.266 645.077,-21.237"/>
</g>
<!-- &#45;17 -->
<g id="node17" class="node"><title>&#45;17</title>
<polygon fill="lightgray" stroke="black" points="729.079,-99.4472 700.079,-99.4472 700.079,-81.4472 729.079,-81.4472 729.079,-99.4472"/>
<text text-anchor="middle" x="714.579" y="-88.2472" font-family="Times,serif" font-size="9.00">&#45;17</text>
</g>
<!-- &#45;17&#45;&gt;1 -->
<g id="edge28" class="edge"><title>&#45;17&#45;&gt;1</title>
<path fill="none" stroke="red" stroke-width="0.274084" d="M709.591,-81.2897C703.035,-70.566 691.285,-51.3498 682.209,-36.505"/>
<polygon fill="red" stroke="red" stroke-width="0.274084" points="685.176,-34.6477 676.973,-27.9419 679.203,-38.2993 685.176,-34.6477"/>
</g>
<!-- &#45;18 -->
<g id="node18" class="node"><title>&#45;18</title>
<polygon fill="lightgray" stroke="black" points="91.0791,-99.4472 62.0791,-99.4472 62.0791,-81.4472 91.0791,-81.4472 91.0791,-99.4472"/>
<text text-anchor="middle" x="76.5791" y="-88.2472" font-family="Times,serif" font-size="9.00">&#45;18</text>
</g>
<!-- &#45;18&#45;&gt;0 -->
<g id="edge15" class="edge"><title>&#45;18&#45;&gt;0</title>
<path fill="none" stroke="green" stroke-width="0.213372" d="M83.9132,-81.1792C88.2745,-76.4442 94.0245,-70.507 99.5791,-65.6985 114.977,-52.3686 133.793,-38.9442 147.884,-29.3901"/>
<polygon fill="green" stroke="green" stroke-width="0.213372" points="150.011,-32.1783 156.379,-23.7104 146.12,-26.3592 150.011,-32.1783"/>
</g>
<!-- &#45;19 -->
<g id="node19" class="node"><title>&#45;19</title>
<polygon fill="lightgray" stroke="black" points="639.079,-99.4472 610.079,-99.4472 610.079,-81.4472 639.079,-81.4472 639.079,-99.4472"/>
<text text-anchor="middle" x="624.579" y="-88.2472" font-family="Times,serif" font-size="9.00">&#45;19</text>
</g>
<!-- &#45;19&#45;&gt;1 -->
<g id="edge17" class="edge"><title>&#45;19&#45;&gt;1</title>
<path fill="none" stroke="green" stroke-width="0.191086" d="M629.567,-81.2897C636.124,-70.566 647.873,-51.3498 656.95,-36.505"/>
<polygon fill="green" stroke="green" stroke-width="0.191086" points="659.955,-38.2993 662.185,-27.9419 653.983,-34.6477 659.955,-38.2993"/>
</g>
<!-- &#45;19&#45;&gt;3 -->
<g id="edge4" class="edge"><title>&#45;19&#45;&gt;3</title>
<path fill="none" stroke="red" stroke-width="0.992812" d="M617.22,-81.2084C612.85,-76.483 607.1,-70.5458 601.579,-65.6985 586.654,-52.5941 568.517,-39.2399 554.879,-29.6558"/>
<polygon fill="red" stroke="red" stroke-width="0.992812" points="556.856,-26.7681 546.645,-23.9426 552.866,-32.5192 556.856,-26.7681"/>
</g>
<!-- &#45;20 -->
<g id="node20" class="node"><title>&#45;20</title>
<polygon fill="lightgray" stroke="black" points="592.079,-99.4472 563.079,-99.4472 563.079,-81.4472 592.079,-81.4472 592.079,-99.4472"/>
<text text-anchor="middle" x="577.579" y="-88.2472" font-family="Times,serif" font-size="9.00">&#45;20</text>
</g>
<!-- &#45;20&#45;&gt;1 -->
<g id="edge21" class="edge"><title>&#45;20&#45;&gt;1</title>
<path fill="none" stroke="green" stroke-width="0.352297" d="M585.298,-81.2254C589.871,-76.5057 595.871,-70.5685 601.579,-65.6985 616.925,-52.6049 635.455,-39.1624 649.294,-29.5411"/>
<polygon fill="green" stroke="green" stroke-width="0.352297" points="651.37,-32.3608 657.63,-23.8125 647.406,-26.5918 651.37,-32.3608"/>
</g>
<!-- &#45;20&#45;&gt;2 -->
<g id="edge1" class="edge"><title>&#45;20&#45;&gt;2</title>
<path fill="none" stroke="red" stroke-width="0.367622" d="M562.987,-83.2365C550.542,-78.0903 532.094,-70.8165 515.579,-65.6985 450.25,-45.4531 371.258,-28.5359 332.079,-20.6375"/>
<polygon fill="red" stroke="red" stroke-width="0.367622" points="332.62,-17.1766 322.129,-18.6536 331.251,-24.0415 332.62,-17.1766"/>
</g>
<!-- &#45;21 -->
<g id="node21" class="node"><title>&#45;21</title>
<polygon fill="lightgray" stroke="black" points="275.079,-99.4472 246.079,-99.4472 246.079,-81.4472 275.079,-81.4472 275.079,-99.4472"/>
<text text-anchor="middle" x="260.579" y="-88.2472" font-family="Times,serif" font-size="9.00">&#45;21</text>
</g>
<!-- &#45;21&#45;&gt;0 -->
<g id="edge10" class="edge"><title>&#45;21&#45;&gt;0</title>
<path fill="none" stroke="red" stroke-width="1.15066" d="M252.86,-81.2254C248.287,-76.5057 242.287,-70.5685 236.579,-65.6985 221.233,-52.6049 202.703,-39.1624 188.865,-29.5411"/>
<polygon fill="red" stroke="red" stroke-width="1.15066" points="190.753,-26.5918 180.529,-23.8125 186.788,-32.3608 190.753,-26.5918"/>
</g>
<!-- &#45;21&#45;&gt;2 -->
<g id="edge25" class="edge"><title>&#45;21&#45;&gt;2</title>
<path fill="none" stroke="red" stroke-width="0.31172" d="M265.789,-81.2897C272.676,-70.504 285.05,-51.1274 294.552,-36.248"/>
<polygon fill="red" stroke="red" stroke-width="0.31172" points="297.59,-37.9935 300.023,-27.6817 291.691,-34.226 297.59,-37.9935"/>
</g>
<!-- &#45;22 -->
<g id="node22" class="node"><title>&#45;22</title>
<polygon fill="lightgray" stroke="black" points="856.079,-169.196 827.079,-169.196 827.079,-151.196 856.079,-151.196 856.079,-169.196"/>
<text text-anchor="middle" x="841.579" y="-157.996" font-family="Times,serif" font-size="9.00">&#45;22</text>
</g>
<!-- &#45;23 -->
<g id="node23" class="node"><title>&#45;23</title>
<polygon fill="lightgray" stroke="black" points="776.079,-99.4472 747.079,-99.4472 747.079,-81.4472 776.079,-81.4472 776.079,-99.4472"/>
<text text-anchor="middle" x="761.579" y="-88.2472" font-family="Times,serif" font-size="9.00">&#45;23</text>
</g>
<!-- &#45;23&#45;&gt;1 -->
<g id="edge22" class="edge"><title>&#45;23&#45;&gt;1</title>
<path fill="none" stroke="red" stroke-width="0.247168" d="M754.245,-81.1792C749.884,-76.4442 744.134,-70.507 738.579,-65.6985 723.181,-52.3686 704.365,-38.9442 690.274,-29.3901"/>
<polygon fill="red" stroke="red" stroke-width="0.247168" points="692.038,-26.3592 681.779,-23.7104 688.147,-32.1783 692.038,-26.3592"/>
</g>
<!-- &#45;24 -->
<g id="node24" class="node"><title>&#45;24</title>
<polygon fill="lightgray" stroke="black" points="138.079,-99.4472 109.079,-99.4472 109.079,-81.4472 138.079,-81.4472 138.079,-99.4472"/>
<text text-anchor="middle" x="123.579" y="-88.2472" font-family="Times,serif" font-size="9.00">&#45;24</text>
</g>
<!-- &#45;24&#45;&gt;0 -->
<g id="edge26" class="edge"><title>&#45;24&#45;&gt;0</title>
<path fill="none" stroke="green" stroke-width="0.130507" d="M128.567,-81.2897C135.124,-70.566 146.873,-51.3498 155.95,-36.505"/>
<polygon fill="green" stroke="green" stroke-width="0.130507" points="158.955,-38.2993 161.185,-27.9419 152.983,-34.6477 158.955,-38.2993"/>
</g>
<!-- 1&#45;&gt;1 -->
<g id="edge14" class="edge"><title>1&#45;&gt;1</title>
<path fill="none" stroke="green" stroke-width="0.362374" d="M680.007,-25.6755C690.618,-32.0439 702.428,-28.4352 702.428,-14.8492 702.428,-5.50891 696.846,-0.884351 689.909,-0.975566"/>
<polygon fill="green" stroke="green" stroke-width="0.362374" points="688.535,2.26363 680.007,-4.02295 690.594,-4.42672 688.535,2.26363"/>
</g>
<!-- 6045&#45;&gt;1 -->
<g id="edge29" class="edge"><title>6045&#45;&gt;1</title>
<path fill="none" stroke="red" stroke-width="0.22333" d="M799.503,-74.6526C795.054,-71.5061 790.248,-68.3399 785.579,-65.6985 755,-48.3992 717.24,-33.2211 693.278,-24.2894"/>
<polygon fill="red" stroke="red" stroke-width="0.22333" points="694.208,-20.9028 683.615,-20.748 691.8,-27.4753 694.208,-20.9028"/>
</g>
</g>
</svg>
