<?xml version="1.0" encoding="UTF-8" standalone="no"?>
<!DOCTYPE svg PUBLIC "-//W3C//DTD SVG 1.1//EN"
 "http://www.w3.org/Graphics/SVG/1.1/DTD/svg11.dtd">
<!-- Generated by graphviz version 2.38.0 (20140413.2041)
 -->
<!-- Title: %3 Pages: 1 -->
<svg width="1078pt" height="92pt"
 viewBox="0.00 0.00 1078.00 91.70" xmlns="http://www.w3.org/2000/svg" xmlns:xlink="http://www.w3.org/1999/xlink">
<g id="graph0" class="graph" transform="scale(1 1) rotate(0) translate(4 87.6985)">
<title>%3</title>
<polygon fill="white" stroke="none" points="-4,4 -4,-87.6985 1074,-87.6985 1074,4 -4,4"/>
<!-- &#45;1 -->
<g id="node1" class="node"><title>&#45;1</title>
<polygon fill="lightgray" stroke="black" points="118.5,-83.6985 94.5,-83.6985 94.5,-65.6985 118.5,-65.6985 118.5,-83.6985"/>
<text text-anchor="middle" x="106.5" y="-72.4985" font-family="Times,serif" font-size="9.00">&#45;1</text>
</g>
<!-- 0 -->
<g id="node25" class="node"><title>0</title>
<ellipse fill="lightblue" stroke="black" cx="285.5" cy="-14.8492" rx="14.7" ry="14.7"/>
<text text-anchor="middle" x="285.5" y="-12.6492" font-family="Times,serif" font-size="9.00">0</text>
</g>
<!-- &#45;1&#45;&gt;0 -->
<g id="edge8" class="edge"><title>&#45;1&#45;&gt;0</title>
<path fill="none" stroke="green" stroke-width="1.76198" d="M118.893,-68.8401C121.711,-67.7736 124.7,-66.6727 127.5,-65.6985 174.644,-49.2972 230.477,-32.2251 261.555,-22.9286"/>
<polygon fill="green" stroke="green" stroke-width="1.76198" points="262.876,-26.1873 271.46,-19.9784 260.877,-19.4785 262.876,-26.1873"/>
</g>
<!-- 2 -->
<g id="node27" class="node"><title>2</title>
<ellipse fill="lightblue" stroke="black" cx="151.5" cy="-14.8492" rx="14.7" ry="14.7"/>
<text text-anchor="middle" x="151.5" y="-12.6492" font-family="Times,serif" font-size="9.00">2</text>
</g>
<!-- &#45;1&#45;&gt;2 -->
<g id="edge17" class="edge"><title>&#45;1&#45;&gt;2</title>
<path fill="none" stroke="green" stroke-width="0.343831" d="M112.757,-65.6548C118.87,-57.7964 128.408,-45.5348 136.49,-35.1446"/>
<polygon fill="green" stroke="green" stroke-width="0.343831" points="139.453,-37.0367 142.83,-26.9946 133.928,-32.7387 139.453,-37.0367"/>
</g>
<!-- &#45;2 -->
<g id="node2" class="node"><title>&#45;2</title>
<polygon fill="lightgray" stroke="black" points="481.5,-83.6985 457.5,-83.6985 457.5,-65.6985 481.5,-65.6985 481.5,-83.6985"/>
<text text-anchor="middle" x="469.5" y="-72.4985" font-family="Times,serif" font-size="9.00">&#45;2</text>
</g>
<!-- &#45;2&#45;&gt;0 -->
<g id="edge3" class="edge"><title>&#45;2&#45;&gt;0</title>
<path fill="none" stroke="green" stroke-width="1.00349" d="M457.113,-68.8217C454.295,-67.7562 451.305,-66.6604 448.5,-65.6985 399.459,-48.8798 341.201,-31.7345 309.31,-22.5865"/>
<polygon fill="green" stroke="green" stroke-width="1.00349" points="310.133,-19.1818 299.556,-19.8028 308.212,-25.913 310.133,-19.1818"/>
</g>
<!-- 3 -->
<g id="node28" class="node"><title>3</title>
<ellipse fill="lightblue" stroke="black" cx="514.5" cy="-14.8492" rx="14.7" ry="14.7"/>
<text text-anchor="middle" x="514.5" y="-12.6492" font-family="Times,serif" font-size="9.00">3</text>
</g>
<!-- &#45;2&#45;&gt;3 -->
<g id="edge23" class="edge"><title>&#45;2&#45;&gt;3</title>
<path fill="none" stroke="red" stroke-width="1.8414" d="M475.757,-65.6548C481.87,-57.7964 491.408,-45.5348 499.49,-35.1446"/>
<polygon fill="red" stroke="red" stroke-width="1.8414" points="502.453,-37.0367 505.83,-26.9946 496.928,-32.7387 502.453,-37.0367"/>
</g>
<!-- &#45;3 -->
<g id="node3" class="node"><title>&#45;3</title>
<polygon fill="lightgray" stroke="black" points="802.5,-83.6985 778.5,-83.6985 778.5,-65.6985 802.5,-65.6985 802.5,-83.6985"/>
<text text-anchor="middle" x="790.5" y="-72.4985" font-family="Times,serif" font-size="9.00">&#45;3</text>
</g>
<!-- &#45;4 -->
<g id="node4" class="node"><title>&#45;4</title>
<polygon fill="lightgray" stroke="black" points="255.5,-83.6985 231.5,-83.6985 231.5,-65.6985 255.5,-65.6985 255.5,-83.6985"/>
<text text-anchor="middle" x="243.5" y="-72.4985" font-family="Times,serif" font-size="9.00">&#45;4</text>
</g>
<!-- &#45;4&#45;&gt;0 -->
<g id="edge19" class="edge"><title>&#45;4&#45;&gt;0</title>
<path fill="none" stroke="red" stroke-width="0.938103" d="M249.34,-65.6548C254.975,-57.8934 263.728,-45.8369 271.211,-35.5302"/>
<polygon fill="red" stroke="red" stroke-width="0.938103" points="274.059,-37.5653 277.102,-27.4169 268.394,-33.4527 274.059,-37.5653"/>
</g>
<!-- &#45;4&#45;&gt;2 -->
<g id="edge6" class="edge"><title>&#45;4&#45;&gt;2</title>
<path fill="none" stroke="green" stroke-width="0.293796" d="M231.473,-66.1357C216.473,-56.7037 190.583,-40.4246 172.331,-28.948"/>
<polygon fill="green" stroke="green" stroke-width="0.293796" points="174.153,-25.9587 163.824,-23.5985 170.426,-31.8846 174.153,-25.9587"/>
</g>
<!-- &#45;4&#45;&gt;3 -->
<g id="edge9" class="edge"><title>&#45;4&#45;&gt;3</title>
<path fill="none" stroke="green" stroke-width="1.39618" d="M255.821,-68.6121C258.642,-67.5575 261.651,-66.519 264.5,-65.6985 345.632,-42.3336 444.675,-26.1094 489.881,-19.3584"/>
<polygon fill="green" stroke="green" stroke-width="1.39618" points="490.539,-22.7993 499.924,-17.883 489.522,-15.8736 490.539,-22.7993"/>
</g>
<!-- &#45;5 -->
<g id="node5" class="node"><title>&#45;5</title>
<polygon fill="lightgray" stroke="black" points="297.5,-83.6985 273.5,-83.6985 273.5,-65.6985 297.5,-65.6985 297.5,-83.6985"/>
<text text-anchor="middle" x="285.5" y="-72.4985" font-family="Times,serif" font-size="9.00">&#45;5</text>
</g>
<!-- &#45;5&#45;&gt;0 -->
<g id="edge15" class="edge"><title>&#45;5&#45;&gt;0</title>
<path fill="none" stroke="red" stroke-width="0.986487" d="M285.5,-65.6548C285.5,-59.0498 285.5,-49.3344 285.5,-40.2339"/>
<polygon fill="red" stroke="red" stroke-width="0.986487" points="289,-40.0563 285.5,-30.0563 282,-40.0564 289,-40.0563"/>
</g>
<!-- &#45;6 -->
<g id="node6" class="node"><title>&#45;6</title>
<polygon fill="lightgray" stroke="black" points="844.5,-83.6985 820.5,-83.6985 820.5,-65.6985 844.5,-65.6985 844.5,-83.6985"/>
<text text-anchor="middle" x="832.5" y="-72.4985" font-family="Times,serif" font-size="9.00">&#45;6</text>
</g>
<!-- &#45;7 -->
<g id="node7" class="node"><title>&#45;7</title>
<polygon fill="lightgray" stroke="black" points="665.5,-83.6985 641.5,-83.6985 641.5,-65.6985 665.5,-65.6985 665.5,-83.6985"/>
<text text-anchor="middle" x="653.5" y="-72.4985" font-family="Times,serif" font-size="9.00">&#45;7</text>
</g>
<!-- 1 -->
<g id="node26" class="node"><title>1</title>
<ellipse fill="lightblue" stroke="black" cx="630.5" cy="-14.8492" rx="14.7" ry="14.7"/>
<text text-anchor="middle" x="630.5" y="-12.6492" font-family="Times,serif" font-size="9.00">1</text>
</g>
<!-- &#45;7&#45;&gt;1 -->
<g id="edge14" class="edge"><title>&#45;7&#45;&gt;1</title>
<path fill="none" stroke="green" stroke-width="0.438785" d="M650.302,-65.6548C647.517,-58.6501 643.341,-48.1471 639.541,-38.5892"/>
<polygon fill="green" stroke="green" stroke-width="0.438785" points="642.738,-37.1567 635.791,-29.1573 636.233,-39.7429 642.738,-37.1567"/>
</g>
<!-- &#45;7&#45;&gt;3 -->
<g id="edge12" class="edge"><title>&#45;7&#45;&gt;3</title>
<path fill="none" stroke="green" stroke-width="0.413541" d="M641.165,-68.5648C617.985,-58.9178 567.586,-37.9426 537.823,-25.5557"/>
<polygon fill="green" stroke="green" stroke-width="0.413541" points="538.811,-22.1762 528.234,-21.5652 536.122,-28.6389 538.811,-22.1762"/>
</g>
<!-- &#45;8 -->
<g id="node8" class="node"><title>&#45;8</title>
<polygon fill="lightgray" stroke="black" points="886.5,-83.6985 862.5,-83.6985 862.5,-65.6985 886.5,-65.6985 886.5,-83.6985"/>
<text text-anchor="middle" x="874.5" y="-72.4985" font-family="Times,serif" font-size="9.00">&#45;8</text>
</g>
<!-- &#45;9 -->
<g id="node9" class="node"><title>&#45;9</title>
<polygon fill="lightgray" stroke="black" points="928.5,-83.6985 904.5,-83.6985 904.5,-65.6985 928.5,-65.6985 928.5,-83.6985"/>
<text text-anchor="middle" x="916.5" y="-72.4985" font-family="Times,serif" font-size="9.00">&#45;9</text>
</g>
<!-- &#45;10 -->
<g id="node10" class="node"><title>&#45;10</title>
<polygon fill="lightgray" stroke="black" points="166,-83.6985 137,-83.6985 137,-65.6985 166,-65.6985 166,-83.6985"/>
<text text-anchor="middle" x="151.5" y="-72.4985" font-family="Times,serif" font-size="9.00">&#45;10</text>
</g>
<!-- &#45;10&#45;&gt;0 -->
<g id="edge27" class="edge"><title>&#45;10&#45;&gt;0</title>
<path fill="none" stroke="red" stroke-width="0.516888" d="M166.095,-67.3975C189.415,-57.3303 235.251,-37.5422 262.853,-25.626"/>
<polygon fill="red" stroke="red" stroke-width="0.516888" points="264.328,-28.8016 272.122,-21.6246 261.554,-22.3749 264.328,-28.8016"/>
</g>
<!-- &#45;10&#45;&gt;2 -->
<g id="edge2" class="edge"><title>&#45;10&#45;&gt;2</title>
<path fill="none" stroke="red" stroke-width="1.60132" d="M151.5,-65.6548C151.5,-59.0498 151.5,-49.3344 151.5,-40.2339"/>
<polygon fill="red" stroke="red" stroke-width="1.60132" points="155,-40.0563 151.5,-30.0563 148,-40.0564 155,-40.0563"/>
</g>
<!-- &#45;11 -->
<g id="node11" class="node"><title>&#45;11</title>
<polygon fill="lightgray" stroke="black" points="76,-83.6985 47,-83.6985 47,-65.6985 76,-65.6985 76,-83.6985"/>
<text text-anchor="middle" x="61.5" y="-72.4985" font-family="Times,serif" font-size="9.00">&#45;11</text>
</g>
<!-- &#45;11&#45;&gt;2 -->
<g id="edge26" class="edge"><title>&#45;11&#45;&gt;2</title>
<path fill="none" stroke="red" stroke-width="0.313245" d="M74.0141,-65.6548C88.7388,-56.1902 113.4,-40.3388 130.944,-29.0619"/>
<polygon fill="red" stroke="red" stroke-width="0.313245" points="132.86,-31.9911 139.38,-23.6398 129.075,-26.1026 132.86,-31.9911"/>
</g>
<!-- &#45;12 -->
<g id="node12" class="node"><title>&#45;12</title>
<polygon fill="lightgray" stroke="black" points="529,-83.6985 500,-83.6985 500,-65.6985 529,-65.6985 529,-83.6985"/>
<text text-anchor="middle" x="514.5" y="-72.4985" font-family="Times,serif" font-size="9.00">&#45;12</text>
</g>
<!-- &#45;12&#45;&gt;3 -->
<g id="edge22" class="edge"><title>&#45;12&#45;&gt;3</title>
<path fill="none" stroke="red" stroke-width="0.880831" d="M514.5,-65.6548C514.5,-59.0498 514.5,-49.3344 514.5,-40.2339"/>
<polygon fill="red" stroke="red" stroke-width="0.880831" points="518,-40.0563 514.5,-30.0563 511,-40.0564 518,-40.0563"/>
</g>
<!-- &#45;13 -->
<g id="node13" class="node"><title>&#45;13</title>
<polygon fill="lightgray" stroke="black" points="976,-83.6985 947,-83.6985 947,-65.6985 976,-65.6985 976,-83.6985"/>
<text text-anchor="middle" x="961.5" y="-72.4985" font-family="Times,serif" font-size="9.00">&#45;13</text>
</g>
<!-- &#45;14 -->
<g id="node14" class="node"><title>&#45;14</title>
<polygon fill="lightgray" stroke="black" points="1023,-83.6985 994,-83.6985 994,-65.6985 1023,-65.6985 1023,-83.6985"/>
<text text-anchor="middle" x="1008.5" y="-72.4985" font-family="Times,serif" font-size="9.00">&#45;14</text>
</g>
<!-- &#45;15 -->
<g id="node15" class="node"><title>&#45;15</title>
<polygon fill="lightgray" stroke="black" points="29,-83.6985 0,-83.6985 0,-65.6985 29,-65.6985 29,-83.6985"/>
<text text-anchor="middle" x="14.5" y="-72.4985" font-family="Times,serif" font-size="9.00">&#45;15</text>
</g>
<!-- &#45;15&#45;&gt;2 -->
<g id="edge5" class="edge"><title>&#45;15&#45;&gt;2</title>
<path fill="none" stroke="red" stroke-width="0.209222" d="M29.1614,-67.5076C53.0148,-57.4353 100.398,-37.4274 128.683,-25.4837"/>
<polygon fill="red" stroke="red" stroke-width="0.209222" points="130.31,-28.596 138.161,-21.4816 127.587,-22.1473 130.31,-28.596"/>
</g>
<!-- &#45;16 -->
<g id="node16" class="node"><title>&#45;16</title>
<polygon fill="lightgray" stroke="black" points="576,-83.6985 547,-83.6985 547,-65.6985 576,-65.6985 576,-83.6985"/>
<text text-anchor="middle" x="561.5" y="-72.4985" font-family="Times,serif" font-size="9.00">&#45;16</text>
</g>
<!-- &#45;16&#45;&gt;0 -->
<g id="edge11" class="edge"><title>&#45;16&#45;&gt;0</title>
<path fill="none" stroke="red" stroke-width="0.255946" d="M546.996,-68.3086C544.198,-67.3674 541.275,-66.4504 538.5,-65.6985 456.069,-43.3601 355.997,-26.6325 310.352,-19.5583"/>
<polygon fill="red" stroke="red" stroke-width="0.255946" points="310.625,-16.0596 300.211,-18.0076 309.567,-22.9791 310.625,-16.0596"/>
</g>
<!-- &#45;16&#45;&gt;1 -->
<g id="edge18" class="edge"><title>&#45;16&#45;&gt;1</title>
<path fill="none" stroke="green" stroke-width="0.170803" d="M571.094,-65.6548C581.544,-56.8941 598.52,-42.6612 611.655,-31.6492"/>
<polygon fill="green" stroke="green" stroke-width="0.170803" points="614.209,-34.0746 619.624,-24.9678 609.712,-28.7104 614.209,-34.0746"/>
</g>
<!-- &#45;17 -->
<g id="node17" class="node"><title>&#45;17</title>
<polygon fill="lightgray" stroke="black" points="760,-83.6985 731,-83.6985 731,-65.6985 760,-65.6985 760,-83.6985"/>
<text text-anchor="middle" x="745.5" y="-72.4985" font-family="Times,serif" font-size="9.00">&#45;17</text>
</g>
<!-- &#45;17&#45;&gt;1 -->
<g id="edge7" class="edge"><title>&#45;17&#45;&gt;1</title>
<path fill="none" stroke="red" stroke-width="0.305991" d="M730.935,-66.3718C711.156,-56.4224 675.631,-38.5518 652.568,-26.9503"/>
<polygon fill="red" stroke="red" stroke-width="0.305991" points="654.036,-23.7707 643.529,-22.4035 650.89,-30.0241 654.036,-23.7707"/>
</g>
<!-- &#45;18 -->
<g id="node18" class="node"><title>&#45;18</title>
<polygon fill="lightgray" stroke="black" points="345,-83.6985 316,-83.6985 316,-65.6985 345,-65.6985 345,-83.6985"/>
<text text-anchor="middle" x="330.5" y="-72.4985" font-family="Times,serif" font-size="9.00">&#45;18</text>
</g>
<!-- &#45;18&#45;&gt;0 -->
<g id="edge28" class="edge"><title>&#45;18&#45;&gt;0</title>
<path fill="none" stroke="green" stroke-width="0.487252" d="M324.243,-65.6548C318.13,-57.7964 308.592,-45.5348 300.51,-35.1446"/>
<polygon fill="green" stroke="green" stroke-width="0.487252" points="303.072,-32.7387 294.17,-26.9946 297.547,-37.0367 303.072,-32.7387"/>
</g>
<!-- &#45;19 -->
<g id="node19" class="node"><title>&#45;19</title>
<polygon fill="lightgray" stroke="black" points="623,-83.6985 594,-83.6985 594,-65.6985 623,-65.6985 623,-83.6985"/>
<text text-anchor="middle" x="608.5" y="-72.4985" font-family="Times,serif" font-size="9.00">&#45;19</text>
</g>
<!-- &#45;19&#45;&gt;1 -->
<g id="edge16" class="edge"><title>&#45;19&#45;&gt;1</title>
<path fill="none" stroke="green" stroke-width="0.106087" d="M611.559,-65.6548C614.223,-58.6501 618.217,-48.1471 621.852,-38.5892"/>
<polygon fill="green" stroke="green" stroke-width="0.106087" points="625.156,-39.7484 625.439,-29.1573 618.613,-37.2601 625.156,-39.7484"/>
</g>
<!-- &#45;19&#45;&gt;3 -->
<g id="edge4" class="edge"><title>&#45;19&#45;&gt;3</title>
<path fill="none" stroke="red" stroke-width="0.999303" d="M595.43,-65.6548C579.894,-56.0937 553.767,-40.0148 535.411,-28.7182"/>
<polygon fill="red" stroke="red" stroke-width="0.999303" points="537.212,-25.7171 526.861,-23.4566 533.543,-31.6786 537.212,-25.7171"/>
</g>
<!-- &#45;20 -->
<g id="node20" class="node"><title>&#45;20</title>
<polygon fill="lightgray" stroke="black" points="392,-83.6985 363,-83.6985 363,-65.6985 392,-65.6985 392,-83.6985"/>
<text text-anchor="middle" x="377.5" y="-72.4985" font-family="Times,serif" font-size="9.00">&#45;20</text>
</g>
<!-- &#45;20&#45;&gt;1 -->
<g id="edge20" class="edge"><title>&#45;20&#45;&gt;1</title>
<path fill="none" stroke="green" stroke-width="0.161142" d="M392.147,-68.539C395.218,-67.5352 398.451,-66.536 401.5,-65.6985 475.13,-45.4757 563.869,-28.114 605.999,-20.286"/>
<polygon fill="green" stroke="green" stroke-width="0.161142" points="606.699,-23.7159 615.9,-18.4629 605.432,-16.8317 606.699,-23.7159"/>
</g>
<!-- &#45;20&#45;&gt;2 -->
<g id="edge1" class="edge"><title>&#45;20&#45;&gt;2</title>
<path fill="none" stroke="red" stroke-width="0.245629" d="M362.835,-68.6041C359.765,-67.5956 356.538,-66.578 353.5,-65.6985 290.026,-47.3193 214.115,-29.7514 175.956,-21.2211"/>
<polygon fill="red" stroke="red" stroke-width="0.245629" points="176.329,-17.7187 165.808,-18.9671 174.811,-24.5522 176.329,-17.7187"/>
</g>
<!-- &#45;21 -->
<g id="node21" class="node"><title>&#45;21</title>
<polygon fill="lightgray" stroke="black" points="213,-83.6985 184,-83.6985 184,-65.6985 213,-65.6985 213,-83.6985"/>
<text text-anchor="middle" x="198.5" y="-72.4985" font-family="Times,serif" font-size="9.00">&#45;21</text>
</g>
<!-- &#45;21&#45;&gt;0 -->
<g id="edge10" class="edge"><title>&#45;21&#45;&gt;0</title>
<path fill="none" stroke="red" stroke-width="1.02364" d="M210.597,-65.6548C224.621,-56.3294 247.971,-40.8037 264.877,-29.5624"/>
<polygon fill="red" stroke="red" stroke-width="1.02364" points="267.117,-32.2762 273.506,-23.8246 263.241,-26.4472 267.117,-32.2762"/>
</g>
<!-- &#45;21&#45;&gt;2 -->
<g id="edge24" class="edge"><title>&#45;21&#45;&gt;2</title>
<path fill="none" stroke="red" stroke-width="0.428105" d="M191.965,-65.6548C185.516,-57.7178 175.419,-45.2891 166.924,-34.8334"/>
<polygon fill="red" stroke="red" stroke-width="0.428105" points="169.577,-32.5489 160.555,-26.9946 164.144,-36.9629 169.577,-32.5489"/>
</g>
<!-- &#45;22 -->
<g id="node22" class="node"><title>&#45;22</title>
<polygon fill="lightgray" stroke="black" points="1070,-83.6985 1041,-83.6985 1041,-65.6985 1070,-65.6985 1070,-83.6985"/>
<text text-anchor="middle" x="1055.5" y="-72.4985" font-family="Times,serif" font-size="9.00">&#45;22</text>
</g>
<!-- &#45;23 -->
<g id="node23" class="node"><title>&#45;23</title>
<polygon fill="lightgray" stroke="black" points="713,-83.6985 684,-83.6985 684,-65.6985 713,-65.6985 713,-83.6985"/>
<text text-anchor="middle" x="698.5" y="-72.4985" font-family="Times,serif" font-size="9.00">&#45;23</text>
</g>
<!-- &#45;23&#45;&gt;1 -->
<g id="edge21" class="edge"><title>&#45;23&#45;&gt;1</title>
<path fill="none" stroke="red" stroke-width="0.237662" d="M689.045,-65.6548C678.867,-56.996 662.405,-42.9914 649.525,-32.0346"/>
<polygon fill="red" stroke="red" stroke-width="0.237662" points="651.566,-29.1752 641.681,-25.3614 647.03,-34.5069 651.566,-29.1752"/>
</g>
<!-- &#45;24 -->
<g id="node24" class="node"><title>&#45;24</title>
<polygon fill="lightgray" stroke="black" points="439,-83.6985 410,-83.6985 410,-65.6985 439,-65.6985 439,-83.6985"/>
<text text-anchor="middle" x="424.5" y="-72.4985" font-family="Times,serif" font-size="9.00">&#45;24</text>
</g>
<!-- &#45;24&#45;&gt;0 -->
<g id="edge25" class="edge"><title>&#45;24&#45;&gt;0</title>
<path fill="none" stroke="red" stroke-width="0.157276" d="M409.887,-67.6169C385.695,-57.5486 337.142,-37.3418 308.373,-25.3687"/>
<polygon fill="red" stroke="red" stroke-width="0.157276" points="309.672,-22.1183 299.095,-21.5072 306.982,-28.5809 309.672,-22.1183"/>
</g>
<!-- 1&#45;&gt;1 -->
<g id="edge13" class="edge"><title>1&#45;&gt;1</title>
<path fill="none" stroke="green" stroke-width="0.295834" d="M642.288,-23.9294C652.522,-28.0713 663.349,-25.0446 663.349,-14.8492 663.349,-7.99927 658.462,-4.3853 652.15,-4.00735"/>
<polygon fill="green" stroke="green" stroke-width="0.295834" points="651.516,-0.565092 642.288,-5.76904 652.747,-7.45602 651.516,-0.565092"/>
</g>
</g>
</svg>
