<?xml version="1.0" encoding="UTF-8" standalone="no"?>
<!DOCTYPE svg PUBLIC "-//W3C//DTD SVG 1.1//EN"
 "http://www.w3.org/Graphics/SVG/1.1/DTD/svg11.dtd">
<!-- Generated by graphviz version 2.38.0 (20140413.2041)
 -->
<!-- Title: %3 Pages: 1 -->
<svg width="1248pt" height="268pt"
 viewBox="0.00 0.00 1248.50 268.35" xmlns="http://www.w3.org/2000/svg" xmlns:xlink="http://www.w3.org/1999/xlink">
<g id="graph0" class="graph" transform="scale(1 1) rotate(0) translate(4 264.35)">
<title>%3</title>
<polygon fill="white" stroke="none" points="-4,4 -4,-264.35 1244.5,-264.35 1244.5,4 -4,4"/>
<!-- &#45;1 -->
<g id="node1" class="node"><title>&#45;1</title>
<polygon fill="lightgray" stroke="black" points="505.749,-187.773 481.749,-187.773 481.749,-169.773 505.749,-169.773 505.749,-187.773"/>
<text text-anchor="middle" x="493.749" y="-176.573" font-family="Times,serif" font-size="9.00">&#45;1</text>
</g>
<!-- 1 -->
<g id="node26" class="node"><title>1</title>
<ellipse fill="lightblue" stroke="black" cx="364.749" cy="-90.4472" rx="14.7" ry="14.7"/>
<text text-anchor="middle" x="364.749" y="-88.2472" font-family="Times,serif" font-size="9.00">1</text>
</g>
<!-- &#45;1&#45;&gt;1 -->
<g id="edge10" class="edge"><title>&#45;1&#45;&gt;1</title>
<path fill="none" stroke="green" stroke-width="0.128019" d="M488.597,-169.618C484.732,-163.955 479.042,-156.504 472.749,-151.196 447.208,-129.652 435.959,-131.42 406.749,-115.196 400.057,-111.48 392.792,-107.391 386.215,-103.668"/>
<polygon fill="green" stroke="green" stroke-width="0.128019" points="387.642,-100.454 377.218,-98.5636 384.188,-106.543 387.642,-100.454"/>
</g>
<!-- 3 -->
<g id="node28" class="node"><title>3</title>
<ellipse fill="lightblue" stroke="black" cx="493.749" cy="-14.8492" rx="14.7" ry="14.7"/>
<text text-anchor="middle" x="493.749" y="-12.6492" font-family="Times,serif" font-size="9.00">3</text>
</g>
<!-- &#45;1&#45;&gt;3 -->
<g id="edge52" class="edge"><title>&#45;1&#45;&gt;3</title>
<path fill="none" stroke="green" stroke-width="0.282467" d="M493.749,-169.521C493.749,-145.925 493.749,-77.4953 493.749,-40.4178"/>
<polygon fill="green" stroke="green" stroke-width="0.282467" points="497.249,-40.0018 493.749,-30.0018 490.249,-40.0019 497.249,-40.0018"/>
</g>
<!-- 228 -->
<g id="node29" class="node"><title>228</title>
<ellipse fill="white" stroke="black" cx="542.749" cy="-90.4472" rx="21.4286" ry="21.4286"/>
<text text-anchor="middle" x="542.749" y="-88.2472" font-family="Times,serif" font-size="9.00">228</text>
</g>
<!-- &#45;1&#45;&gt;228 -->
<g id="edge38" class="edge"><title>&#45;1&#45;&gt;228</title>
<path fill="none" stroke="red" stroke-width="0.116862" d="M498.447,-169.496C505.097,-157.781 517.56,-135.824 527.577,-118.176"/>
<polygon fill="red" stroke="red" stroke-width="0.116862" points="530.656,-119.842 532.548,-109.418 524.568,-116.387 530.656,-119.842"/>
</g>
<!-- &#45;2 -->
<g id="node2" class="node"><title>&#45;2</title>
<polygon fill="lightgray" stroke="black" points="73.7487,-187.773 49.7487,-187.773 49.7487,-169.773 73.7487,-169.773 73.7487,-187.773"/>
<text text-anchor="middle" x="61.7487" y="-176.573" font-family="Times,serif" font-size="9.00">&#45;2</text>
</g>
<!-- &#45;2&#45;&gt;1 -->
<g id="edge29" class="edge"><title>&#45;2&#45;&gt;1</title>
<path fill="none" stroke="green" stroke-width="0.160239" d="M66.1155,-169.456C69.7428,-163.404 75.4785,-155.538 82.7487,-151.196 161.792,-103.989 197.214,-136.643 286.749,-115.196 305.204,-110.775 325.721,-104.472 341.079,-99.4697"/>
<polygon fill="green" stroke="green" stroke-width="0.160239" points="342.404,-102.718 350.798,-96.2538 340.205,-96.0722 342.404,-102.718"/>
</g>
<!-- 2 -->
<g id="node27" class="node"><title>2</title>
<ellipse fill="lightblue" stroke="black" cx="262.749" cy="-90.4472" rx="14.7" ry="14.7"/>
<text text-anchor="middle" x="262.749" y="-88.2472" font-family="Times,serif" font-size="9.00">2</text>
</g>
<!-- &#45;2&#45;&gt;2 -->
<g id="edge28" class="edge"><title>&#45;2&#45;&gt;2</title>
<path fill="none" stroke="red" stroke-width="0.19716" d="M66.3083,-169.754C70.0364,-163.858 75.8141,-156.056 82.7487,-151.196 131.376,-117.116 200.82,-101.4 237.619,-95.0884"/>
<polygon fill="red" stroke="red" stroke-width="0.19716" points="238.619,-98.4723 247.932,-93.4214 237.502,-91.562 238.619,-98.4723"/>
</g>
<!-- &#45;2&#45;&gt;3 -->
<g id="edge48" class="edge"><title>&#45;2&#45;&gt;3</title>
<path fill="none" stroke="red" stroke-width="0.2432" d="M67.6282,-169.759C83.7413,-148.491 131.066,-90.5547 185.749,-65.6985 283.553,-21.2411 414.683,-15.749 468.794,-15.5305"/>
<polygon fill="red" stroke="red" stroke-width="0.2432" points="468.839,-19.0305 478.845,-15.5494 468.852,-12.0305 468.839,-19.0305"/>
</g>
<!-- &#45;3 -->
<g id="node3" class="node"><title>&#45;3</title>
<polygon fill="lightgray" stroke="black" points="684.749,-187.773 660.749,-187.773 660.749,-169.773 684.749,-169.773 684.749,-187.773"/>
<text text-anchor="middle" x="672.749" y="-176.573" font-family="Times,serif" font-size="9.00">&#45;3</text>
</g>
<!-- 0 -->
<g id="node25" class="node"><title>0</title>
<ellipse fill="lightblue" stroke="black" cx="877.749" cy="-90.4472" rx="14.7" ry="14.7"/>
<text text-anchor="middle" x="877.749" y="-88.2472" font-family="Times,serif" font-size="9.00">0</text>
</g>
<!-- &#45;3&#45;&gt;0 -->
<g id="edge50" class="edge"><title>&#45;3&#45;&gt;0</title>
<path fill="none" stroke="green" stroke-width="0.177829" d="M684.898,-172.152C696.788,-166.685 715.44,-158.204 731.749,-151.196 774.777,-132.707 825.465,-112.259 854.381,-100.719"/>
<polygon fill="green" stroke="green" stroke-width="0.177829" points="855.999,-103.842 863.995,-96.8905 853.41,-97.3387 855.999,-103.842"/>
</g>
<!-- &#45;3&#45;&gt;1 -->
<g id="edge32" class="edge"><title>&#45;3&#45;&gt;1</title>
<path fill="none" stroke="red" stroke-width="0.388938" d="M668.417,-169.396C664.809,-163.312 659.081,-155.433 651.749,-151.196 556.457,-96.1294 510.859,-150.887 406.749,-115.196 399.508,-112.714 392.086,-108.978 385.533,-105.2"/>
<polygon fill="red" stroke="red" stroke-width="0.388938" points="387.034,-102.015 376.679,-99.7746 383.377,-107.983 387.034,-102.015"/>
</g>
<!-- &#45;3&#45;&gt;228 -->
<g id="edge39" class="edge"><title>&#45;3&#45;&gt;228</title>
<path fill="none" stroke="green" stroke-width="0.347027" d="M667.594,-169.622C663.727,-163.961 658.036,-156.511 651.749,-151.196 627.378,-130.595 594.792,-113.858 571.614,-103.394"/>
<polygon fill="green" stroke="green" stroke-width="0.347027" points="572.871,-100.124 562.308,-99.3013 570.053,-106.531 572.871,-100.124"/>
</g>
<!-- &#45;4 -->
<g id="node4" class="node"><title>&#45;4</title>
<polygon fill="lightgray" stroke="black" points="1132.75,-260.35 1108.75,-260.35 1108.75,-242.35 1132.75,-242.35 1132.75,-260.35"/>
<text text-anchor="middle" x="1120.75" y="-249.15" font-family="Times,serif" font-size="9.00">&#45;4</text>
</g>
<!-- &#45;4&#45;&gt;0 -->
<g id="edge36" class="edge"><title>&#45;4&#45;&gt;0</title>
<path fill="none" stroke="green" stroke-width="0.244434" d="M1121.82,-242.157C1123.78,-223.401 1125.76,-176.98 1101.75,-151.196 1074.54,-121.976 954.979,-102.162 902.543,-94.7237"/>
<polygon fill="green" stroke="green" stroke-width="0.244434" points="902.815,-91.2281 892.429,-93.3254 901.856,-98.1621 902.815,-91.2281"/>
</g>
<!-- 1006 -->
<g id="node31" class="node"><title>1006</title>
<ellipse fill="white" stroke="black" cx="1215.75" cy="-178.773" rx="25" ry="25"/>
<text text-anchor="middle" x="1215.75" y="-176.573" font-family="Times,serif" font-size="9.00">1006</text>
</g>
<!-- &#45;4&#45;&gt;1006 -->
<g id="edge58" class="edge"><title>&#45;4&#45;&gt;1006</title>
<path fill="none" stroke="green" stroke-width="0.152109" d="M1132.54,-242.048C1144.9,-233.299 1164.83,-219.054 1181.75,-206.35 1184.05,-204.621 1186.43,-202.812 1188.81,-200.985"/>
<polygon fill="green" stroke="green" stroke-width="0.152109" points="1191.03,-203.695 1196.79,-194.803 1186.74,-198.161 1191.03,-203.695"/>
</g>
<!-- 4792 -->
<g id="node32" class="node"><title>4792</title>
<ellipse fill="white" stroke="black" cx="1067.75" cy="-178.773" rx="25" ry="25"/>
<text text-anchor="middle" x="1067.75" y="-176.573" font-family="Times,serif" font-size="9.00">4792</text>
</g>
<!-- &#45;4&#45;&gt;4792 -->
<g id="edge42" class="edge"><title>&#45;4&#45;&gt;4792</title>
<path fill="none" stroke="red" stroke-width="0.134015" d="M1114.67,-242.254C1108.31,-233.782 1097.96,-220.003 1088.6,-207.537"/>
<polygon fill="red" stroke="red" stroke-width="0.134015" points="1091.14,-205.093 1082.34,-199.199 1085.54,-209.297 1091.14,-205.093"/>
</g>
<!-- &#45;5 -->
<g id="node5" class="node"><title>&#45;5</title>
<polygon fill="lightgray" stroke="black" points="642.749,-187.773 618.749,-187.773 618.749,-169.773 642.749,-169.773 642.749,-187.773"/>
<text text-anchor="middle" x="630.749" y="-176.573" font-family="Times,serif" font-size="9.00">&#45;5</text>
</g>
<!-- &#45;5&#45;&gt;0 -->
<g id="edge22" class="edge"><title>&#45;5&#45;&gt;0</title>
<path fill="none" stroke="green" stroke-width="0.260361" d="M635.224,-169.629C638.907,-163.667 644.667,-155.839 651.749,-151.196 716.048,-109.044 808.946,-96.5582 852.904,-92.9154"/>
<polygon fill="green" stroke="green" stroke-width="0.260361" points="853.264,-96.3984 862.977,-92.1671 852.746,-89.4176 853.264,-96.3984"/>
</g>
<!-- &#45;5&#45;&gt;2 -->
<g id="edge56" class="edge"><title>&#45;5&#45;&gt;2</title>
<path fill="none" stroke="green" stroke-width="0.125781" d="M626.132,-169.366C622.31,-163.266 616.291,-155.38 608.749,-151.196 503.653,-92.9004 458.174,-140.782 340.749,-115.196 322.207,-111.156 301.694,-104.834 286.36,-99.7287"/>
<polygon fill="green" stroke="green" stroke-width="0.125781" points="287.253,-96.3358 276.659,-96.4314 285,-102.963 287.253,-96.3358"/>
</g>
<!-- &#45;5&#45;&gt;3 -->
<g id="edge41" class="edge"><title>&#45;5&#45;&gt;3</title>
<path fill="none" stroke="red" stroke-width="0.300044" d="M628.188,-169.564C621.673,-149.736 602.827,-98.4595 572.749,-65.6985 556.887,-48.4221 533.736,-34.7569 516.592,-26.1361"/>
<polygon fill="red" stroke="red" stroke-width="0.300044" points="517.821,-22.8431 507.293,-21.6541 514.782,-29.1489 517.821,-22.8431"/>
</g>
<!-- &#45;6 -->
<g id="node6" class="node"><title>&#45;6</title>
<polygon fill="lightgray" stroke="black" points="373.749,-187.773 349.749,-187.773 349.749,-169.773 373.749,-169.773 373.749,-187.773"/>
<text text-anchor="middle" x="361.749" y="-176.573" font-family="Times,serif" font-size="9.00">&#45;6</text>
</g>
<!-- &#45;6&#45;&gt;1 -->
<g id="edge44" class="edge"><title>&#45;6&#45;&gt;1</title>
<path fill="none" stroke="green" stroke-width="0.203077" d="M362.036,-169.496C362.463,-157.207 363.282,-133.648 363.909,-115.615"/>
<polygon fill="green" stroke="green" stroke-width="0.203077" points="367.411,-115.623 364.26,-105.508 360.415,-115.38 367.411,-115.623"/>
</g>
<!-- &#45;7 -->
<g id="node7" class="node"><title>&#45;7</title>
<polygon fill="lightgray" stroke="black" points="163.749,-187.773 139.749,-187.773 139.749,-169.773 163.749,-169.773 163.749,-187.773"/>
<text text-anchor="middle" x="151.749" y="-176.573" font-family="Times,serif" font-size="9.00">&#45;7</text>
</g>
<!-- &#45;7&#45;&gt;2 -->
<g id="edge37" class="edge"><title>&#45;7&#45;&gt;2</title>
<path fill="none" stroke="green" stroke-width="0.111931" d="M157.387,-169.299C161.306,-163.775 166.865,-156.613 172.749,-151.196 193.878,-131.745 221.931,-114.186 241.065,-103.215"/>
<polygon fill="green" stroke="green" stroke-width="0.111931" points="242.918,-106.189 249.923,-98.2407 239.49,-100.085 242.918,-106.189"/>
</g>
<!-- &#45;7&#45;&gt;3 -->
<g id="edge19" class="edge"><title>&#45;7&#45;&gt;3</title>
<path fill="none" stroke="green" stroke-width="0.167666" d="M155.464,-169.662C165.536,-148.661 195.54,-92.3014 238.749,-65.6985 312.872,-20.0618 420.138,-14.9016 468.466,-15.1272"/>
<polygon fill="green" stroke="green" stroke-width="0.167666" points="468.597,-18.6292 478.643,-15.2614 468.69,-11.6298 468.597,-18.6292"/>
</g>
<!-- &#45;7&#45;&gt;228 -->
<g id="edge47" class="edge"><title>&#45;7&#45;&gt;228</title>
<path fill="none" stroke="red" stroke-width="0.10716" d="M156.047,-169.339C159.639,-163.225 165.36,-155.333 172.749,-151.196 290.696,-85.1645 343.054,-145.66 474.749,-115.196 487.884,-112.158 502.016,-107.466 513.976,-103.053"/>
<polygon fill="red" stroke="red" stroke-width="0.10716" points="515.338,-106.28 523.441,-99.454 512.85,-99.7366 515.338,-106.28"/>
</g>
<!-- &#45;8 -->
<g id="node8" class="node"><title>&#45;8</title>
<polygon fill="lightgray" stroke="black" points="463.749,-187.773 439.749,-187.773 439.749,-169.773 463.749,-169.773 463.749,-187.773"/>
<text text-anchor="middle" x="451.749" y="-176.573" font-family="Times,serif" font-size="9.00">&#45;8</text>
</g>
<!-- &#45;8&#45;&gt;1 -->
<g id="edge8" class="edge"><title>&#45;8&#45;&gt;1</title>
<path fill="none" stroke="red" stroke-width="0.160965" d="M445.476,-169.623C441.216,-164.235 435.358,-157.104 429.749,-151.196 414.891,-135.547 396.717,-119.04 383.368,-107.352"/>
<polygon fill="red" stroke="red" stroke-width="0.160965" points="385.6,-104.655 375.752,-100.748 381.014,-109.944 385.6,-104.655"/>
</g>
<!-- &#45;8&#45;&gt;2 -->
<g id="edge17" class="edge"><title>&#45;8&#45;&gt;2</title>
<path fill="none" stroke="green" stroke-width="0.616109" d="M446.689,-169.561C442.72,-163.722 436.713,-156.079 429.749,-151.196 417.636,-142.704 329.617,-113.297 286.468,-99.1575"/>
<polygon fill="green" stroke="green" stroke-width="0.616109" points="287.37,-95.7702 276.778,-95.9917 285.196,-102.424 287.37,-95.7702"/>
</g>
<!-- &#45;8&#45;&gt;228 -->
<g id="edge30" class="edge"><title>&#45;8&#45;&gt;228</title>
<path fill="none" stroke="green" stroke-width="0.539966" d="M457.609,-169.526C461.621,-164.098 467.202,-156.957 472.749,-151.196 486.79,-136.613 504.08,-121.829 517.962,-110.615"/>
<polygon fill="green" stroke="green" stroke-width="0.539966" points="520.465,-113.097 526.107,-104.129 516.104,-107.621 520.465,-113.097"/>
</g>
<!-- 9310 -->
<g id="node35" class="node"><title>9310</title>
<ellipse fill="white" stroke="black" cx="440.749" cy="-90.4472" rx="25" ry="25"/>
<text text-anchor="middle" x="440.749" y="-88.2472" font-family="Times,serif" font-size="9.00">9310</text>
</g>
<!-- &#45;8&#45;&gt;9310 -->
<g id="edge9" class="edge"><title>&#45;8&#45;&gt;9310</title>
<path fill="none" stroke="green" stroke-width="0.3" d="M450.694,-169.496C449.397,-159.318 447.115,-141.412 445.064,-125.315"/>
<polygon fill="green" stroke="green" stroke-width="0.3" points="448.499,-124.576 443.762,-115.099 441.555,-125.461 448.499,-124.576"/>
</g>
<!-- &#45;9 -->
<g id="node9" class="node"><title>&#45;9</title>
<polygon fill="lightgray" stroke="black" points="1172.75,-187.773 1148.75,-187.773 1148.75,-169.773 1172.75,-169.773 1172.75,-187.773"/>
<text text-anchor="middle" x="1160.75" y="-176.573" font-family="Times,serif" font-size="9.00">&#45;9</text>
</g>
<!-- &#45;9&#45;&gt;0 -->
<g id="edge34" class="edge"><title>&#45;9&#45;&gt;0</title>
<path fill="none" stroke="green" stroke-width="0.171308" d="M1154.83,-169.58C1150.06,-163.593 1142.85,-155.753 1134.75,-151.196 1057.71,-107.858 950.786,-95.9065 902.805,-92.6482"/>
<polygon fill="green" stroke="green" stroke-width="0.171308" points="902.902,-89.1477 892.708,-92.0343 902.477,-96.1348 902.902,-89.1477"/>
</g>
<!-- &#45;10 -->
<g id="node10" class="node"><title>&#45;10</title>
<polygon fill="lightgray" stroke="black" points="224.249,-260.35 195.249,-260.35 195.249,-242.35 224.249,-242.35 224.249,-260.35"/>
<text text-anchor="middle" x="209.749" y="-249.15" font-family="Times,serif" font-size="9.00">&#45;10</text>
</g>
<!-- 10460 -->
<g id="node33" class="node"><title>10460</title>
<ellipse fill="white" stroke="black" cx="209.749" cy="-178.773" rx="27.6545" ry="27.6545"/>
<text text-anchor="middle" x="209.749" y="-176.573" font-family="Times,serif" font-size="9.00">10460</text>
</g>
<!-- &#45;10&#45;&gt;10460 -->
<g id="edge7" class="edge"><title>&#45;10&#45;&gt;10460</title>
<path fill="none" stroke="green" stroke-width="0.3" d="M209.749,-242.254C209.749,-235.805 209.749,-226.28 209.749,-216.601"/>
<polygon fill="green" stroke="green" stroke-width="0.3" points="213.249,-216.581 209.749,-206.581 206.249,-216.581 213.249,-216.581"/>
</g>
<!-- &#45;11 -->
<g id="node11" class="node"><title>&#45;11</title>
<polygon fill="lightgray" stroke="black" points="600.249,-187.773 571.249,-187.773 571.249,-169.773 600.249,-169.773 600.249,-187.773"/>
<text text-anchor="middle" x="585.749" y="-176.573" font-family="Times,serif" font-size="9.00">&#45;11</text>
</g>
<!-- &#45;11&#45;&gt;228 -->
<g id="edge33" class="edge"><title>&#45;11&#45;&gt;228</title>
<path fill="none" stroke="red" stroke-width="0.113918" d="M581.626,-169.496C575.879,-157.959 565.186,-136.492 556.467,-118.987"/>
<polygon fill="red" stroke="red" stroke-width="0.113918" points="559.461,-117.149 551.87,-109.758 553.195,-120.27 559.461,-117.149"/>
</g>
<!-- &#45;12 -->
<g id="node12" class="node"><title>&#45;12</title>
<polygon fill="lightgray" stroke="black" points="978.249,-187.773 949.249,-187.773 949.249,-169.773 978.249,-169.773 978.249,-187.773"/>
<text text-anchor="middle" x="963.749" y="-176.573" font-family="Times,serif" font-size="9.00">&#45;12</text>
</g>
<!-- &#45;12&#45;&gt;0 -->
<g id="edge5" class="edge"><title>&#45;12&#45;&gt;0</title>
<path fill="none" stroke="red" stroke-width="0.215966" d="M957.104,-169.684C952.615,-164.322 946.482,-157.196 940.749,-151.196 926.398,-136.176 909.24,-120.012 896.457,-108.289"/>
<polygon fill="red" stroke="red" stroke-width="0.215966" points="898.513,-105.427 888.762,-101.283 893.8,-110.603 898.513,-105.427"/>
</g>
<!-- &#45;13 -->
<g id="node13" class="node"><title>&#45;13</title>
<polygon fill="lightgray" stroke="black" points="1025.25,-187.773 996.249,-187.773 996.249,-169.773 1025.25,-169.773 1025.25,-187.773"/>
<text text-anchor="middle" x="1010.75" y="-176.573" font-family="Times,serif" font-size="9.00">&#45;13</text>
</g>
<!-- &#45;13&#45;&gt;0 -->
<g id="edge55" class="edge"><title>&#45;13&#45;&gt;0</title>
<path fill="none" stroke="red" stroke-width="0.483566" d="M1004.96,-169.646C1000.66,-163.997 994.405,-156.551 987.749,-151.196 960.461,-129.242 923.939,-111.251 900.622,-100.934"/>
<polygon fill="red" stroke="red" stroke-width="0.483566" points="901.778,-97.6212 891.21,-96.8698 899.003,-104.048 901.778,-97.6212"/>
</g>
<!-- &#45;14 -->
<g id="node14" class="node"><title>&#45;14</title>
<polygon fill="lightgray" stroke="black" points="770.249,-187.773 741.249,-187.773 741.249,-169.773 770.249,-169.773 770.249,-187.773"/>
<text text-anchor="middle" x="755.749" y="-176.573" font-family="Times,serif" font-size="9.00">&#45;14</text>
</g>
<!-- &#45;14&#45;&gt;0 -->
<g id="edge43" class="edge"><title>&#45;14&#45;&gt;0</title>
<path fill="none" stroke="red" stroke-width="0.14536" d="M761.938,-169.768C766.497,-164.177 773.047,-156.749 779.749,-151.196 803.725,-131.331 834.942,-113.456 855.629,-102.543"/>
<polygon fill="red" stroke="red" stroke-width="0.14536" points="857.323,-105.608 864.594,-97.902 854.105,-99.3912 857.323,-105.608"/>
</g>
<!-- &#45;14&#45;&gt;1 -->
<g id="edge57" class="edge"><title>&#45;14&#45;&gt;1</title>
<path fill="none" stroke="green" stroke-width="0.113521" d="M740.887,-169.996C728.585,-163.907 710.477,-155.733 693.749,-151.196 569.677,-117.541 528.79,-155.599 406.749,-115.196 399.482,-112.79 392.052,-109.076 385.501,-105.295"/>
<polygon fill="green" stroke="green" stroke-width="0.113521" points="387.004,-102.11 376.654,-99.8497 383.336,-108.072 387.004,-102.11"/>
</g>
<!-- &#45;14&#45;&gt;3 -->
<g id="edge24" class="edge"><title>&#45;14&#45;&gt;3</title>
<path fill="none" stroke="red" stroke-width="0.168346" d="M756.296,-169.596C757.197,-148.926 756.494,-94.2076 726.749,-65.6985 696.993,-37.1792 572.383,-22.8546 518.619,-17.9066"/>
<polygon fill="red" stroke="red" stroke-width="0.168346" points="518.84,-14.4125 508.57,-17.0158 518.221,-21.3852 518.84,-14.4125"/>
</g>
<!-- &#45;15 -->
<g id="node15" class="node"><title>&#45;15</title>
<polygon fill="lightgray" stroke="black" points="824.249,-260.35 795.249,-260.35 795.249,-242.35 824.249,-242.35 824.249,-260.35"/>
<text text-anchor="middle" x="809.749" y="-249.15" font-family="Times,serif" font-size="9.00">&#45;15</text>
</g>
<!-- &#45;15&#45;&gt;3 -->
<g id="edge16" class="edge"><title>&#45;15&#45;&gt;3</title>
<path fill="none" stroke="red" stroke-width="0.273604" d="M795.189,-245.09C778.184,-238.338 750.054,-225.2 731.749,-206.35 682.538,-155.677 712.191,-110.703 657.749,-65.6985 616.977,-31.9945 553.752,-21.0618 518.915,-17.5273"/>
<polygon fill="red" stroke="red" stroke-width="0.273604" points="518.936,-14.0156 508.666,-16.6202 518.319,-20.9883 518.936,-14.0156"/>
</g>
<!-- 9830 -->
<g id="node30" class="node"><title>9830</title>
<ellipse fill="white" stroke="black" cx="906.749" cy="-178.773" rx="25" ry="25"/>
<text text-anchor="middle" x="906.749" y="-176.573" font-family="Times,serif" font-size="9.00">9830</text>
</g>
<!-- &#45;15&#45;&gt;9830 -->
<g id="edge45" class="edge"><title>&#45;15&#45;&gt;9830</title>
<path fill="none" stroke="green" stroke-width="0.3" d="M822.213,-242.187C835.255,-233.552 856.23,-219.398 873.749,-206.35 875.814,-204.812 877.931,-203.198 880.047,-201.557"/>
<polygon fill="green" stroke="green" stroke-width="0.3" points="882.416,-204.146 888.095,-195.202 878.078,-198.653 882.416,-204.146"/>
</g>
<!-- &#45;16 -->
<g id="node16" class="node"><title>&#45;16</title>
<polygon fill="lightgray" stroke="black" points="31.2487,-187.773 2.24874,-187.773 2.24874,-169.773 31.2487,-169.773 31.2487,-187.773"/>
<text text-anchor="middle" x="16.7487" y="-176.573" font-family="Times,serif" font-size="9.00">&#45;16</text>
</g>
<!-- &#45;16&#45;&gt;1 -->
<g id="edge31" class="edge"><title>&#45;16&#45;&gt;1</title>
<path fill="none" stroke="red" stroke-width="0.221912" d="M21.9766,-169.386C26.2463,-163.297 32.8531,-155.416 40.7487,-151.196 138.202,-99.1139 178.925,-139.356 286.749,-115.196 305.267,-111.047 325.781,-104.73 341.121,-99.6544"/>
<polygon fill="red" stroke="red" stroke-width="0.221912" points="342.471,-102.893 350.828,-96.3804 340.233,-96.2603 342.471,-102.893"/>
</g>
<!-- 9373 -->
<g id="node34" class="node"><title>9373</title>
<ellipse fill="white" stroke="black" cx="24.7487" cy="-90.4472" rx="25" ry="25"/>
<text text-anchor="middle" x="24.7487" y="-88.2472" font-family="Times,serif" font-size="9.00">9373</text>
</g>
<!-- &#45;16&#45;&gt;9373 -->
<g id="edge53" class="edge"><title>&#45;16&#45;&gt;9373</title>
<path fill="none" stroke="green" stroke-width="0.228963" d="M17.5158,-169.496C18.4526,-159.387 20.0959,-141.655 21.5797,-125.644"/>
<polygon fill="green" stroke="green" stroke-width="0.228963" points="25.0848,-125.749 22.5226,-115.469 18.1147,-125.103 25.0848,-125.749"/>
</g>
<!-- &#45;17 -->
<g id="node17" class="node"><title>&#45;17</title>
<polygon fill="lightgray" stroke="black" points="817.249,-187.773 788.249,-187.773 788.249,-169.773 817.249,-169.773 817.249,-187.773"/>
<text text-anchor="middle" x="802.749" y="-176.573" font-family="Times,serif" font-size="9.00">&#45;17</text>
</g>
<!-- &#45;17&#45;&gt;0 -->
<g id="edge12" class="edge"><title>&#45;17&#45;&gt;0</title>
<path fill="none" stroke="red" stroke-width="0.44439" d="M809.94,-169.496C821.768,-155.882 845.61,-128.44 861.631,-109.999"/>
<polygon fill="red" stroke="red" stroke-width="0.44439" points="864.454,-112.086 868.371,-102.241 859.17,-107.495 864.454,-112.086"/>
</g>
<!-- &#45;17&#45;&gt;1 -->
<g id="edge51" class="edge"><title>&#45;17&#45;&gt;1</title>
<path fill="none" stroke="green" stroke-width="0.118235" d="M797.877,-169.279C793.857,-163.134 787.556,-155.229 779.749,-151.196 631.778,-74.7574 565.589,-165.276 406.749,-115.196 399.449,-112.894 392.009,-109.21 385.46,-105.424"/>
<polygon fill="green" stroke="green" stroke-width="0.118235" points="386.965,-102.239 376.621,-99.9517 383.281,-108.191 386.965,-102.239"/>
</g>
<!-- &#45;18 -->
<g id="node18" class="node"><title>&#45;18</title>
<polygon fill="lightgray" stroke="black" points="864.249,-187.773 835.249,-187.773 835.249,-169.773 864.249,-169.773 864.249,-187.773"/>
<text text-anchor="middle" x="849.749" y="-176.573" font-family="Times,serif" font-size="9.00">&#45;18</text>
</g>
<!-- &#45;18&#45;&gt;0 -->
<g id="edge54" class="edge"><title>&#45;18&#45;&gt;0</title>
<path fill="none" stroke="green" stroke-width="0.124618" d="M852.433,-169.496C856.503,-156.949 864.382,-132.657 870.275,-114.491"/>
<polygon fill="green" stroke="green" stroke-width="0.124618" points="873.633,-115.482 873.389,-104.89 866.974,-113.322 873.633,-115.482"/>
</g>
<!-- &#45;18&#45;&gt;228 -->
<g id="edge27" class="edge"><title>&#45;18&#45;&gt;228</title>
<path fill="none" stroke="green" stroke-width="0.243941" d="M844.794,-169.432C840.731,-163.367 834.412,-155.495 826.749,-151.196 741.871,-103.575 705.033,-139.329 610.749,-115.196 597.688,-111.853 583.568,-107.114 571.596,-102.747"/>
<polygon fill="green" stroke="green" stroke-width="0.243941" points="572.709,-99.4265 562.117,-99.2055 570.26,-105.984 572.709,-99.4265"/>
</g>
<!-- &#45;19 -->
<g id="node19" class="node"><title>&#45;19</title>
<polygon fill="lightgray" stroke="black" points="649.249,-99.4472 620.249,-99.4472 620.249,-81.4472 649.249,-81.4472 649.249,-99.4472"/>
<text text-anchor="middle" x="634.749" y="-88.2472" font-family="Times,serif" font-size="9.00">&#45;19</text>
</g>
<!-- &#45;19&#45;&gt;3 -->
<g id="edge3" class="edge"><title>&#45;19&#45;&gt;3</title>
<path fill="none" stroke="green" stroke-width="0.208468" d="M626.075,-81.3022C620.542,-76.3796 613.061,-70.2064 605.749,-65.6985 576.868,-47.8935 540.527,-32.9337 517.215,-24.1795"/>
<polygon fill="green" stroke="green" stroke-width="0.208468" points="518.382,-20.8794 507.789,-20.7117 515.965,-27.449 518.382,-20.8794"/>
</g>
<!-- &#45;20 -->
<g id="node20" class="node"><title>&#45;20</title>
<polygon fill="lightgray" stroke="black" points="121.249,-187.773 92.2487,-187.773 92.2487,-169.773 121.249,-169.773 121.249,-187.773"/>
<text text-anchor="middle" x="106.749" y="-176.573" font-family="Times,serif" font-size="9.00">&#45;20</text>
</g>
<!-- &#45;20&#45;&gt;2 -->
<g id="edge1" class="edge"><title>&#45;20&#45;&gt;2</title>
<path fill="none" stroke="red" stroke-width="0.103049" d="M112.736,-169.509C117.201,-163.796 123.719,-156.329 130.749,-151.196 164.976,-126.205 211.323,-108.23 239.014,-98.8599"/>
<polygon fill="red" stroke="red" stroke-width="0.103049" points="240.241,-102.141 248.649,-95.6936 238.056,-95.4906 240.241,-102.141"/>
</g>
<!-- &#45;21 -->
<g id="node21" class="node"><title>&#45;21</title>
<polygon fill="lightgray" stroke="black" points="284.249,-187.773 255.249,-187.773 255.249,-169.773 284.249,-169.773 284.249,-187.773"/>
<text text-anchor="middle" x="269.749" y="-176.573" font-family="Times,serif" font-size="9.00">&#45;21</text>
</g>
<!-- &#45;21&#45;&gt;1 -->
<g id="edge6" class="edge"><title>&#45;21&#45;&gt;1</title>
<path fill="none" stroke="red" stroke-width="0.505983" d="M276.264,-169.557C280.7,-164.141 286.82,-157.003 292.749,-151.196 309.53,-134.758 330.329,-117.825 345.25,-106.202"/>
<polygon fill="red" stroke="red" stroke-width="0.505983" points="347.495,-108.89 353.282,-100.016 343.224,-103.345 347.495,-108.89"/>
</g>
<!-- &#45;21&#45;&gt;2 -->
<g id="edge49" class="edge"><title>&#45;21&#45;&gt;2</title>
<path fill="none" stroke="red" stroke-width="0.140064" d="M269.078,-169.496C268.081,-157.207 266.171,-133.648 264.708,-115.615"/>
<polygon fill="red" stroke="red" stroke-width="0.140064" points="268.186,-115.192 263.889,-105.508 261.209,-115.758 268.186,-115.192"/>
</g>
<!-- &#45;22 -->
<g id="node22" class="node"><title>&#45;22</title>
<polygon fill="lightgray" stroke="black" points="553.249,-187.773 524.249,-187.773 524.249,-169.773 553.249,-169.773 553.249,-187.773"/>
<text text-anchor="middle" x="538.749" y="-176.573" font-family="Times,serif" font-size="9.00">&#45;22</text>
</g>
<!-- &#45;22&#45;&gt;228 -->
<g id="edge25" class="edge"><title>&#45;22&#45;&gt;228</title>
<path fill="none" stroke="green" stroke-width="0.229808" d="M539.132,-169.496C539.638,-158.592 540.554,-138.818 541.338,-121.902"/>
<polygon fill="green" stroke="green" stroke-width="0.229808" points="544.837,-121.995 541.804,-111.844 537.844,-121.671 544.837,-121.995"/>
</g>
<!-- &#45;23 -->
<g id="node23" class="node"><title>&#45;23</title>
<polygon fill="lightgray" stroke="black" points="331.249,-187.773 302.249,-187.773 302.249,-169.773 331.249,-169.773 331.249,-187.773"/>
<text text-anchor="middle" x="316.749" y="-176.573" font-family="Times,serif" font-size="9.00">&#45;23</text>
</g>
<!-- &#45;23&#45;&gt;0 -->
<g id="edge2" class="edge"><title>&#45;23&#45;&gt;0</title>
<path fill="none" stroke="red" stroke-width="0.223094" d="M321.936,-169.308C326.184,-163.178 332.781,-155.279 340.749,-151.196 343.653,-149.708 747.602,-105.624 852.89,-94.1537"/>
<polygon fill="red" stroke="red" stroke-width="0.223094" points="853.353,-97.624 862.915,-93.0617 852.595,-90.6652 853.353,-97.624"/>
</g>
<!-- &#45;23&#45;&gt;1 -->
<g id="edge46" class="edge"><title>&#45;23&#45;&gt;1</title>
<path fill="none" stroke="green" stroke-width="0.277995" d="M321.351,-169.496C328.585,-156.487 342.839,-130.85 353.039,-112.507"/>
<polygon fill="green" stroke="green" stroke-width="0.277995" points="356.143,-114.126 357.944,-103.685 350.025,-110.724 356.143,-114.126"/>
</g>
<!-- &#45;23&#45;&gt;2 -->
<g id="edge15" class="edge"><title>&#45;23&#45;&gt;2</title>
<path fill="none" stroke="green" stroke-width="0.159397" d="M311.571,-169.496C303.351,-156.355 287.071,-130.329 275.575,-111.952"/>
<polygon fill="green" stroke="green" stroke-width="0.159397" points="278.491,-110.013 270.22,-103.391 272.556,-113.725 278.491,-110.013"/>
</g>
<!-- &#45;23&#45;&gt;3 -->
<g id="edge13" class="edge"><title>&#45;23&#45;&gt;3</title>
<path fill="none" stroke="red" stroke-width="0.389665" d="M315.954,-169.512C314.47,-149.118 313.576,-95.8553 340.749,-65.6985 373.823,-28.9923 434.222,-19.2113 468.406,-16.6719"/>
<polygon fill="red" stroke="red" stroke-width="0.389665" points="468.738,-20.1585 478.515,-16.0769 468.327,-13.1706 468.738,-20.1585"/>
</g>
<!-- &#45;24 -->
<g id="node24" class="node"><title>&#45;24</title>
<polygon fill="lightgray" stroke="black" points="421.249,-187.773 392.249,-187.773 392.249,-169.773 421.249,-169.773 421.249,-187.773"/>
<text text-anchor="middle" x="406.749" y="-176.573" font-family="Times,serif" font-size="9.00">&#45;24</text>
</g>
<!-- &#45;24&#45;&gt;1 -->
<g id="edge4" class="edge"><title>&#45;24&#45;&gt;1</title>
<path fill="none" stroke="green" stroke-width="0.403109" d="M402.722,-169.496C396.491,-156.69 384.307,-131.646 375.415,-113.37"/>
<polygon fill="green" stroke="green" stroke-width="0.403109" points="378.516,-111.743 370.993,-104.282 372.221,-114.806 378.516,-111.743"/>
</g>
<!-- 0&#45;&gt;0 -->
<g id="edge23" class="edge"><title>0&#45;&gt;0</title>
<path fill="none" stroke="red" stroke-width="0.365669" d="M888.176,-101.274C898.787,-107.642 910.598,-104.033 910.598,-90.4472 910.598,-81.1069 905.016,-76.4823 898.079,-76.5735"/>
<polygon fill="red" stroke="red" stroke-width="0.365669" points="896.705,-73.3343 888.176,-79.6209 898.764,-80.0247 896.705,-73.3343"/>
</g>
<!-- 1&#45;&gt;1 -->
<g id="edge20" class="edge"><title>1&#45;&gt;1</title>
<path fill="none" stroke="red" stroke-width="0.133166" d="M375.176,-101.274C385.787,-107.642 397.598,-104.033 397.598,-90.4472 397.598,-81.1069 392.016,-76.4823 385.079,-76.5735"/>
<polygon fill="red" stroke="red" stroke-width="0.133166" points="383.705,-73.3343 375.176,-79.6209 385.764,-80.0247 383.705,-73.3343"/>
</g>
<!-- 3&#45;&gt;3 -->
<g id="edge11" class="edge"><title>3&#45;&gt;3</title>
<path fill="none" stroke="red" stroke-width="0.113296" d="M504.176,-25.6755C514.787,-32.0439 526.598,-28.4352 526.598,-14.8492 526.598,-5.50891 521.016,-0.884351 514.079,-0.975566"/>
<polygon fill="red" stroke="red" stroke-width="0.113296" points="512.705,2.26363 504.176,-4.02295 514.764,-4.42672 512.705,2.26363"/>
</g>
<!-- 228&#45;&gt;3 -->
<g id="edge35" class="edge"><title>228&#45;&gt;3</title>
<path fill="none" stroke="green" stroke-width="0.218665" d="M531.384,-72.3774C524.156,-61.5212 514.763,-47.4125 507.169,-36.0062"/>
<polygon fill="green" stroke="green" stroke-width="0.218665" points="509.995,-33.936 501.54,-27.5517 504.169,-37.8153 509.995,-33.936"/>
</g>
<!-- 9830&#45;&gt;0 -->
<g id="edge14" class="edge"><title>9830&#45;&gt;0</title>
<path fill="none" stroke="green" stroke-width="0.27219" d="M899.129,-155.092C894.934,-142.603 889.738,-127.136 885.519,-114.577"/>
<polygon fill="green" stroke="green" stroke-width="0.27219" points="888.751,-113.206 882.248,-104.841 882.115,-115.435 888.751,-113.206"/>
</g>
<!-- 1006&#45;&gt;0 -->
<g id="edge21" class="edge"><title>1006&#45;&gt;0</title>
<path fill="none" stroke="red" stroke-width="0.127006" d="M1197.72,-161.169C1192.83,-157.395 1187.34,-153.75 1181.75,-151.196 1085.16,-107.041 956.714,-95.4545 903.019,-92.4646"/>
<polygon fill="red" stroke="red" stroke-width="0.127006" points="902.897,-88.9541 892.734,-91.9484 902.546,-95.9453 902.897,-88.9541"/>
</g>
<!-- 10460&#45;&gt;2 -->
<g id="edge40" class="edge"><title>10460&#45;&gt;2</title>
<path fill="none" stroke="green" stroke-width="0.649735" d="M223.952,-154.639C232.045,-141.458 242.104,-125.073 249.951,-112.291"/>
<polygon fill="green" stroke="green" stroke-width="0.649735" points="252.965,-114.072 255.215,-103.718 247,-110.409 252.965,-114.072"/>
</g>
<!-- 9373&#45;&gt;3 -->
<g id="edge18" class="edge"><title>9373&#45;&gt;3</title>
<path fill="none" stroke="red" stroke-width="0.196639" d="M48.3626,-82.9924C68.12,-77.7687 97.1126,-70.5135 122.749,-65.6985 252.027,-41.4174 408.794,-24.3704 468.771,-18.2965"/>
<polygon fill="red" stroke="red" stroke-width="0.196639" points="469.214,-21.7698 478.816,-17.2909 468.517,-14.8046 469.214,-21.7698"/>
</g>
<!-- 9310&#45;&gt;3 -->
<g id="edge26" class="edge"><title>9310&#45;&gt;3</title>
<path fill="none" stroke="red" stroke-width="0.381946" d="M454.952,-69.7243C462.522,-59.2125 471.812,-46.3122 479.403,-35.7706"/>
<polygon fill="red" stroke="red" stroke-width="0.381946" points="482.301,-37.7348 485.305,-27.5746 476.621,-33.6442 482.301,-37.7348"/>
</g>
</g>
</svg>
