<?xml version="1.0" encoding="UTF-8" standalone="no"?>
<!DOCTYPE svg PUBLIC "-//W3C//DTD SVG 1.1//EN"
 "http://www.w3.org/Graphics/SVG/1.1/DTD/svg11.dtd">
<!-- Generated by graphviz version 2.38.0 (20140413.2041)
 -->
<!-- Title: %3 Pages: 1 -->
<svg width="1078pt" height="92pt"
 viewBox="0.00 0.00 1078.00 91.70" xmlns="http://www.w3.org/2000/svg" xmlns:xlink="http://www.w3.org/1999/xlink">
<g id="graph0" class="graph" transform="scale(1 1) rotate(0) translate(4 87.6985)">
<title>%3</title>
<polygon fill="white" stroke="none" points="-4,4 -4,-87.6985 1074,-87.6985 1074,4 -4,4"/>
<!-- &#45;1 -->
<g id="node1" class="node"><title>&#45;1</title>
<polygon fill="lightgray" stroke="black" points="208.5,-83.6985 184.5,-83.6985 184.5,-65.6985 208.5,-65.6985 208.5,-83.6985"/>
<text text-anchor="middle" x="196.5" y="-72.4985" font-family="Times,serif" font-size="9.00">&#45;1</text>
</g>
<!-- 0 -->
<g id="node25" class="node"><title>0</title>
<ellipse fill="lightblue" stroke="black" cx="127.5" cy="-14.8492" rx="14.7" ry="14.7"/>
<text text-anchor="middle" x="127.5" y="-12.6492" font-family="Times,serif" font-size="9.00">0</text>
</g>
<!-- &#45;1&#45;&gt;0 -->
<g id="edge5" class="edge"><title>&#45;1&#45;&gt;0</title>
<path fill="none" stroke="green" stroke-width="2.119" d="M186.906,-65.6548C176.456,-56.8941 159.48,-42.6612 146.345,-31.6492"/>
<polygon fill="green" stroke="green" stroke-width="2.119" points="148.288,-28.7104 138.376,-24.9678 143.791,-34.0746 148.288,-28.7104"/>
</g>
<!-- 2 -->
<g id="node27" class="node"><title>2</title>
<ellipse fill="lightblue" stroke="black" cx="352.5" cy="-14.8492" rx="14.7" ry="14.7"/>
<text text-anchor="middle" x="352.5" y="-12.6492" font-family="Times,serif" font-size="9.00">2</text>
</g>
<!-- &#45;1&#45;&gt;2 -->
<g id="edge15" class="edge"><title>&#45;1&#45;&gt;2</title>
<path fill="none" stroke="red" stroke-width="0.138719" d="M208.929,-68.9395C211.745,-67.8679 214.724,-66.7398 217.5,-65.6985 256.531,-51.0582 302.032,-34.3261 328.988,-24.4482"/>
<polygon fill="red" stroke="red" stroke-width="0.138719" points="330.498,-27.6228 338.684,-20.8977 328.091,-21.0496 330.498,-27.6228"/>
</g>
<!-- &#45;2 -->
<g id="node2" class="node"><title>&#45;2</title>
<polygon fill="lightgray" stroke="black" points="755.5,-83.6985 731.5,-83.6985 731.5,-65.6985 755.5,-65.6985 755.5,-83.6985"/>
<text text-anchor="middle" x="743.5" y="-72.4985" font-family="Times,serif" font-size="9.00">&#45;2</text>
</g>
<!-- 3 -->
<g id="node28" class="node"><title>3</title>
<ellipse fill="lightblue" stroke="black" cx="653.5" cy="-14.8492" rx="14.7" ry="14.7"/>
<text text-anchor="middle" x="653.5" y="-12.6492" font-family="Times,serif" font-size="9.00">3</text>
</g>
<!-- &#45;2&#45;&gt;3 -->
<g id="edge20" class="edge"><title>&#45;2&#45;&gt;3</title>
<path fill="none" stroke="red" stroke-width="0.147077" d="M731.362,-65.8967C716.735,-56.4946 691.922,-40.5455 674.238,-29.1793"/>
<polygon fill="red" stroke="red" stroke-width="0.147077" points="676.038,-26.175 665.733,-23.7122 672.253,-32.0635 676.038,-26.175"/>
</g>
<!-- &#45;3 -->
<g id="node3" class="node"><title>&#45;3</title>
<polygon fill="lightgray" stroke="black" points="250.5,-83.6985 226.5,-83.6985 226.5,-65.6985 250.5,-65.6985 250.5,-83.6985"/>
<text text-anchor="middle" x="238.5" y="-72.4985" font-family="Times,serif" font-size="9.00">&#45;3</text>
</g>
<!-- &#45;3&#45;&gt;2 -->
<g id="edge9" class="edge"><title>&#45;3&#45;&gt;2</title>
<path fill="none" stroke="green" stroke-width="0.107676" d="M250.7,-67.5076C269.682,-57.8753 306.57,-39.1563 330.342,-27.0934"/>
<polygon fill="green" stroke="green" stroke-width="0.107676" points="332.006,-30.1741 339.339,-22.5277 328.838,-23.9318 332.006,-30.1741"/>
</g>
<!-- &#45;4 -->
<g id="node4" class="node"><title>&#45;4</title>
<polygon fill="lightgray" stroke="black" points="387.5,-83.6985 363.5,-83.6985 363.5,-65.6985 387.5,-65.6985 387.5,-83.6985"/>
<text text-anchor="middle" x="375.5" y="-72.4985" font-family="Times,serif" font-size="9.00">&#45;4</text>
</g>
<!-- &#45;4&#45;&gt;0 -->
<g id="edge16" class="edge"><title>&#45;4&#45;&gt;0</title>
<path fill="none" stroke="green" stroke-width="0.192636" d="M363.168,-68.6529C360.346,-67.5962 357.341,-66.5466 354.5,-65.6985 282.097,-44.0868 194.153,-27.4189 152.147,-20.0264"/>
<polygon fill="green" stroke="green" stroke-width="0.192636" points="152.482,-16.5322 142.03,-18.2698 151.284,-23.429 152.482,-16.5322"/>
</g>
<!-- &#45;4&#45;&gt;2 -->
<g id="edge4" class="edge"><title>&#45;4&#45;&gt;2</title>
<path fill="none" stroke="green" stroke-width="0.591034" d="M372.302,-65.6548C369.517,-58.6501 365.341,-48.1471 361.541,-38.5892"/>
<polygon fill="green" stroke="green" stroke-width="0.591034" points="364.738,-37.1567 357.791,-29.1573 358.233,-39.7429 364.738,-37.1567"/>
</g>
<!-- &#45;4&#45;&gt;3 -->
<g id="edge7" class="edge"><title>&#45;4&#45;&gt;3</title>
<path fill="none" stroke="green" stroke-width="2.00935" d="M387.943,-68.7431C391.032,-67.6329 394.359,-66.5371 397.5,-65.6985 487.298,-41.7246 512.83,-50.1275 603.5,-29.6985 612.15,-27.7496 621.54,-25.2518 629.823,-22.9153"/>
<polygon fill="green" stroke="green" stroke-width="2.00935" points="630.947,-26.2338 639.583,-20.0956 629.004,-19.5088 630.947,-26.2338"/>
</g>
<!-- &#45;5 -->
<g id="node5" class="node"><title>&#45;5</title>
<polygon fill="lightgray" stroke="black" points="71.5,-83.6985 47.5,-83.6985 47.5,-65.6985 71.5,-65.6985 71.5,-83.6985"/>
<text text-anchor="middle" x="59.5" y="-72.4985" font-family="Times,serif" font-size="9.00">&#45;5</text>
</g>
<!-- &#45;5&#45;&gt;0 -->
<g id="edge13" class="edge"><title>&#45;5&#45;&gt;0</title>
<path fill="none" stroke="red" stroke-width="1.279" d="M68.9551,-65.6548C79.1333,-56.996 95.5952,-42.9914 108.475,-32.0346"/>
<polygon fill="red" stroke="red" stroke-width="1.279" points="110.97,-34.5069 116.319,-25.3614 106.434,-29.1752 110.97,-34.5069"/>
</g>
<!-- &#45;6 -->
<g id="node6" class="node"><title>&#45;6</title>
<polygon fill="lightgray" stroke="black" points="797.5,-83.6985 773.5,-83.6985 773.5,-65.6985 797.5,-65.6985 797.5,-83.6985"/>
<text text-anchor="middle" x="785.5" y="-72.4985" font-family="Times,serif" font-size="9.00">&#45;6</text>
</g>
<!-- &#45;7 -->
<g id="node7" class="node"><title>&#45;7</title>
<polygon fill="lightgray" stroke="black" points="665.5,-83.6985 641.5,-83.6985 641.5,-65.6985 665.5,-65.6985 665.5,-83.6985"/>
<text text-anchor="middle" x="653.5" y="-72.4985" font-family="Times,serif" font-size="9.00">&#45;7</text>
</g>
<!-- 1 -->
<g id="node26" class="node"><title>1</title>
<ellipse fill="lightblue" stroke="black" cx="561.5" cy="-14.8492" rx="14.7" ry="14.7"/>
<text text-anchor="middle" x="561.5" y="-12.6492" font-family="Times,serif" font-size="9.00">1</text>
</g>
<!-- &#45;7&#45;&gt;1 -->
<g id="edge12" class="edge"><title>&#45;7&#45;&gt;1</title>
<path fill="none" stroke="red" stroke-width="0.161769" d="M641.473,-66.1357C626.473,-56.7037 600.583,-40.4246 582.331,-28.948"/>
<polygon fill="red" stroke="red" stroke-width="0.161769" points="584.153,-25.9587 573.824,-23.5985 580.426,-31.8846 584.153,-25.9587"/>
</g>
<!-- &#45;7&#45;&gt;3 -->
<g id="edge10" class="edge"><title>&#45;7&#45;&gt;3</title>
<path fill="none" stroke="green" stroke-width="0.429238" d="M653.5,-65.6548C653.5,-59.0498 653.5,-49.3344 653.5,-40.2339"/>
<polygon fill="green" stroke="green" stroke-width="0.429238" points="657,-40.0563 653.5,-30.0563 650,-40.0564 657,-40.0563"/>
</g>
<!-- &#45;8 -->
<g id="node8" class="node"><title>&#45;8</title>
<polygon fill="lightgray" stroke="black" points="839.5,-83.6985 815.5,-83.6985 815.5,-65.6985 839.5,-65.6985 839.5,-83.6985"/>
<text text-anchor="middle" x="827.5" y="-72.4985" font-family="Times,serif" font-size="9.00">&#45;8</text>
</g>
<!-- &#45;9 -->
<g id="node9" class="node"><title>&#45;9</title>
<polygon fill="lightgray" stroke="black" points="881.5,-83.6985 857.5,-83.6985 857.5,-65.6985 881.5,-65.6985 881.5,-83.6985"/>
<text text-anchor="middle" x="869.5" y="-72.4985" font-family="Times,serif" font-size="9.00">&#45;9</text>
</g>
<!-- &#45;10 -->
<g id="node10" class="node"><title>&#45;10</title>
<polygon fill="lightgray" stroke="black" points="929,-83.6985 900,-83.6985 900,-65.6985 929,-65.6985 929,-83.6985"/>
<text text-anchor="middle" x="914.5" y="-72.4985" font-family="Times,serif" font-size="9.00">&#45;10</text>
</g>
<!-- &#45;11 -->
<g id="node11" class="node"><title>&#45;11</title>
<polygon fill="lightgray" stroke="black" points="298,-83.6985 269,-83.6985 269,-65.6985 298,-65.6985 298,-83.6985"/>
<text text-anchor="middle" x="283.5" y="-72.4985" font-family="Times,serif" font-size="9.00">&#45;11</text>
</g>
<!-- &#45;11&#45;&gt;2 -->
<g id="edge23" class="edge"><title>&#45;11&#45;&gt;2</title>
<path fill="none" stroke="green" stroke-width="0.153163" d="M293.094,-65.6548C303.544,-56.8941 320.52,-42.6612 333.655,-31.6492"/>
<polygon fill="green" stroke="green" stroke-width="0.153163" points="336.209,-34.0746 341.624,-24.9678 331.712,-28.7104 336.209,-34.0746"/>
</g>
<!-- &#45;12 -->
<g id="node12" class="node"><title>&#45;12</title>
<polygon fill="lightgray" stroke="black" points="713,-83.6985 684,-83.6985 684,-65.6985 713,-65.6985 713,-83.6985"/>
<text text-anchor="middle" x="698.5" y="-72.4985" font-family="Times,serif" font-size="9.00">&#45;12</text>
</g>
<!-- &#45;12&#45;&gt;3 -->
<g id="edge19" class="edge"><title>&#45;12&#45;&gt;3</title>
<path fill="none" stroke="red" stroke-width="0.982701" d="M692.243,-65.6548C686.13,-57.7964 676.592,-45.5348 668.51,-35.1446"/>
<polygon fill="red" stroke="red" stroke-width="0.982701" points="671.072,-32.7387 662.17,-26.9946 665.547,-37.0367 671.072,-32.7387"/>
</g>
<!-- &#45;13 -->
<g id="node13" class="node"><title>&#45;13</title>
<polygon fill="lightgray" stroke="black" points="976,-83.6985 947,-83.6985 947,-65.6985 976,-65.6985 976,-83.6985"/>
<text text-anchor="middle" x="961.5" y="-72.4985" font-family="Times,serif" font-size="9.00">&#45;13</text>
</g>
<!-- &#45;14 -->
<g id="node14" class="node"><title>&#45;14</title>
<polygon fill="lightgray" stroke="black" points="1023,-83.6985 994,-83.6985 994,-65.6985 1023,-65.6985 1023,-83.6985"/>
<text text-anchor="middle" x="1008.5" y="-72.4985" font-family="Times,serif" font-size="9.00">&#45;14</text>
</g>
<!-- &#45;15 -->
<g id="node15" class="node"><title>&#45;15</title>
<polygon fill="lightgray" stroke="black" points="345,-83.6985 316,-83.6985 316,-65.6985 345,-65.6985 345,-83.6985"/>
<text text-anchor="middle" x="330.5" y="-72.4985" font-family="Times,serif" font-size="9.00">&#45;15</text>
</g>
<!-- &#45;15&#45;&gt;2 -->
<g id="edge3" class="edge"><title>&#45;15&#45;&gt;2</title>
<path fill="none" stroke="red" stroke-width="0.609509" d="M333.559,-65.6548C336.223,-58.6501 340.217,-48.1471 343.852,-38.5892"/>
<polygon fill="red" stroke="red" stroke-width="0.609509" points="347.156,-39.7484 347.439,-29.1573 340.613,-37.2601 347.156,-39.7484"/>
</g>
<!-- &#45;16 -->
<g id="node16" class="node"><title>&#45;16</title>
<polygon fill="lightgray" stroke="black" points="119,-83.6985 90,-83.6985 90,-65.6985 119,-65.6985 119,-83.6985"/>
<text text-anchor="middle" x="104.5" y="-72.4985" font-family="Times,serif" font-size="9.00">&#45;16</text>
</g>
<!-- &#45;16&#45;&gt;0 -->
<g id="edge8" class="edge"><title>&#45;16&#45;&gt;0</title>
<path fill="none" stroke="red" stroke-width="0.54035" d="M107.698,-65.6548C110.483,-58.6501 114.659,-48.1471 118.459,-38.5892"/>
<polygon fill="red" stroke="red" stroke-width="0.54035" points="121.767,-39.7429 122.209,-29.1573 115.262,-37.1567 121.767,-39.7429"/>
</g>
<!-- &#45;17 -->
<g id="node17" class="node"><title>&#45;17</title>
<polygon fill="lightgray" stroke="black" points="576,-83.6985 547,-83.6985 547,-65.6985 576,-65.6985 576,-83.6985"/>
<text text-anchor="middle" x="561.5" y="-72.4985" font-family="Times,serif" font-size="9.00">&#45;17</text>
</g>
<!-- &#45;17&#45;&gt;1 -->
<g id="edge24" class="edge"><title>&#45;17&#45;&gt;1</title>
<path fill="none" stroke="red" stroke-width="0.254398" d="M561.5,-65.6548C561.5,-59.0498 561.5,-49.3344 561.5,-40.2339"/>
<polygon fill="red" stroke="red" stroke-width="0.254398" points="565,-40.0563 561.5,-30.0563 558,-40.0564 565,-40.0563"/>
</g>
<!-- &#45;18 -->
<g id="node18" class="node"><title>&#45;18</title>
<polygon fill="lightgray" stroke="black" points="166,-83.6985 137,-83.6985 137,-65.6985 166,-65.6985 166,-83.6985"/>
<text text-anchor="middle" x="151.5" y="-72.4985" font-family="Times,serif" font-size="9.00">&#45;18</text>
</g>
<!-- &#45;18&#45;&gt;0 -->
<g id="edge25" class="edge"><title>&#45;18&#45;&gt;0</title>
<path fill="none" stroke="green" stroke-width="0.293376" d="M148.163,-65.6548C145.219,-58.5579 140.785,-47.8701 136.778,-38.2124"/>
<polygon fill="green" stroke="green" stroke-width="0.293376" points="139.902,-36.6102 132.838,-28.7148 133.437,-39.2927 139.902,-36.6102"/>
</g>
<!-- &#45;19 -->
<g id="node19" class="node"><title>&#45;19</title>
<polygon fill="lightgray" stroke="black" points="529,-83.6985 500,-83.6985 500,-65.6985 529,-65.6985 529,-83.6985"/>
<text text-anchor="middle" x="514.5" y="-72.4985" font-family="Times,serif" font-size="9.00">&#45;19</text>
</g>
<!-- &#45;19&#45;&gt;1 -->
<g id="edge14" class="edge"><title>&#45;19&#45;&gt;1</title>
<path fill="none" stroke="red" stroke-width="0.892494" d="M521.035,-65.6548C527.484,-57.7178 537.581,-45.2891 546.076,-34.8334"/>
<polygon fill="red" stroke="red" stroke-width="0.892494" points="548.856,-36.9629 552.445,-26.9946 543.423,-32.5489 548.856,-36.9629"/>
</g>
<!-- &#45;19&#45;&gt;2 -->
<g id="edge6" class="edge"><title>&#45;19&#45;&gt;2</title>
<path fill="none" stroke="green" stroke-width="0.274571" d="M499.838,-68.4627C471.745,-58.431 410.113,-36.4226 376.138,-24.2904"/>
<polygon fill="green" stroke="green" stroke-width="0.274571" points="377.145,-20.9333 366.55,-20.8664 374.791,-27.5256 377.145,-20.9333"/>
</g>
<!-- &#45;19&#45;&gt;3 -->
<g id="edge2" class="edge"><title>&#45;19&#45;&gt;3</title>
<path fill="none" stroke="red" stroke-width="0.195375" d="M529.113,-67.6169C553.305,-57.5486 601.858,-37.3418 630.627,-25.3687"/>
<polygon fill="red" stroke="red" stroke-width="0.195375" points="632.018,-28.5809 639.905,-21.5072 629.328,-22.1183 632.018,-28.5809"/>
</g>
<!-- &#45;20 -->
<g id="node20" class="node"><title>&#45;20</title>
<polygon fill="lightgray" stroke="black" points="482,-83.6985 453,-83.6985 453,-65.6985 482,-65.6985 482,-83.6985"/>
<text text-anchor="middle" x="467.5" y="-72.4985" font-family="Times,serif" font-size="9.00">&#45;20</text>
</g>
<!-- &#45;20&#45;&gt;1 -->
<g id="edge17" class="edge"><title>&#45;20&#45;&gt;1</title>
<path fill="none" stroke="red" stroke-width="0.730885" d="M480.57,-65.6548C496.106,-56.0937 522.233,-40.0148 540.589,-28.7182"/>
<polygon fill="red" stroke="red" stroke-width="0.730885" points="542.457,-31.6786 549.139,-23.4566 538.788,-25.7171 542.457,-31.6786"/>
</g>
<!-- &#45;20&#45;&gt;2 -->
<g id="edge1" class="edge"><title>&#45;20&#45;&gt;2</title>
<path fill="none" stroke="red" stroke-width="0.336749" d="M452.935,-66.3718C433.156,-56.4224 397.631,-38.5518 374.568,-26.9503"/>
<polygon fill="red" stroke="red" stroke-width="0.336749" points="376.036,-23.7707 365.529,-22.4035 372.89,-30.0241 376.036,-23.7707"/>
</g>
<!-- &#45;21 -->
<g id="node21" class="node"><title>&#45;21</title>
<polygon fill="lightgray" stroke="black" points="435,-83.6985 406,-83.6985 406,-65.6985 435,-65.6985 435,-83.6985"/>
<text text-anchor="middle" x="420.5" y="-72.4985" font-family="Times,serif" font-size="9.00">&#45;21</text>
</g>
<!-- &#45;21&#45;&gt;2 -->
<g id="edge21" class="edge"><title>&#45;21&#45;&gt;2</title>
<path fill="none" stroke="red" stroke-width="0.158904" d="M411.045,-65.6548C400.867,-56.996 384.405,-42.9914 371.525,-32.0346"/>
<polygon fill="red" stroke="red" stroke-width="0.158904" points="373.566,-29.1752 363.681,-25.3614 369.03,-34.5069 373.566,-29.1752"/>
</g>
<!-- &#45;22 -->
<g id="node22" class="node"><title>&#45;22</title>
<polygon fill="lightgray" stroke="black" points="1070,-83.6985 1041,-83.6985 1041,-65.6985 1070,-65.6985 1070,-83.6985"/>
<text text-anchor="middle" x="1055.5" y="-72.4985" font-family="Times,serif" font-size="9.00">&#45;22</text>
</g>
<!-- &#45;23 -->
<g id="node23" class="node"><title>&#45;23</title>
<polygon fill="lightgray" stroke="black" points="623,-83.6985 594,-83.6985 594,-65.6985 623,-65.6985 623,-83.6985"/>
<text text-anchor="middle" x="608.5" y="-72.4985" font-family="Times,serif" font-size="9.00">&#45;23</text>
</g>
<!-- &#45;23&#45;&gt;1 -->
<g id="edge18" class="edge"><title>&#45;23&#45;&gt;1</title>
<path fill="none" stroke="green" stroke-width="0.145499" d="M601.965,-65.6548C595.516,-57.7178 585.419,-45.2891 576.924,-34.8334"/>
<polygon fill="green" stroke="green" stroke-width="0.145499" points="579.577,-32.5489 570.555,-26.9946 574.144,-36.9629 579.577,-32.5489"/>
</g>
<!-- &#45;24 -->
<g id="node24" class="node"><title>&#45;24</title>
<polygon fill="lightgray" stroke="black" points="29,-83.6985 0,-83.6985 0,-65.6985 29,-65.6985 29,-83.6985"/>
<text text-anchor="middle" x="14.5" y="-72.4985" font-family="Times,serif" font-size="9.00">&#45;24</text>
</g>
<!-- &#45;24&#45;&gt;0 -->
<g id="edge22" class="edge"><title>&#45;24&#45;&gt;0</title>
<path fill="none" stroke="green" stroke-width="0.252452" d="M29.2728,-66.1357C48.6586,-56.2113 82.8523,-38.7062 105.345,-27.1914"/>
<polygon fill="green" stroke="green" stroke-width="0.252452" points="107.169,-30.1895 114.475,-22.5171 103.979,-23.9586 107.169,-30.1895"/>
</g>
<!-- 1&#45;&gt;1 -->
<g id="edge11" class="edge"><title>1&#45;&gt;1</title>
<path fill="none" stroke="red" stroke-width="0.543753" d="M573.288,-23.9294C583.522,-28.0713 594.349,-25.0446 594.349,-14.8492 594.349,-7.99927 589.462,-4.3853 583.15,-4.00735"/>
<polygon fill="red" stroke="red" stroke-width="0.543753" points="582.516,-0.565092 573.288,-5.76904 583.747,-7.45602 582.516,-0.565092"/>
</g>
</g>
</svg>
