<?xml version="1.0" encoding="UTF-8" standalone="no"?>
<!DOCTYPE svg PUBLIC "-//W3C//DTD SVG 1.1//EN"
 "http://www.w3.org/Graphics/SVG/1.1/DTD/svg11.dtd">
<!-- Generated by graphviz version 2.38.0 (20140413.2041)
 -->
<!-- Title: %3 Pages: 1 -->
<svg width="1183pt" height="354pt"
 viewBox="0.00 0.00 1182.55 353.85" xmlns="http://www.w3.org/2000/svg" xmlns:xlink="http://www.w3.org/1999/xlink">
<g id="graph0" class="graph" transform="scale(1 1) rotate(0) translate(4 349.848)">
<title>%3</title>
<polygon fill="white" stroke="none" points="-4,4 -4,-349.848 1178.55,-349.848 1178.55,4 -4,4"/>
<!-- &#45;1 -->
<g id="node1" class="node"><title>&#45;1</title>
<polygon fill="lightgray" stroke="black" points="521.792,-187.773 497.792,-187.773 497.792,-169.773 521.792,-169.773 521.792,-187.773"/>
<text text-anchor="middle" x="509.792" y="-176.573" font-family="Times,serif" font-size="9.00">&#45;1</text>
</g>
<!-- 1 -->
<g id="node26" class="node"><title>1</title>
<ellipse fill="lightblue" stroke="black" cx="336.792" cy="-90.4472" rx="14.7" ry="14.7"/>
<text text-anchor="middle" x="336.792" y="-88.2472" font-family="Times,serif" font-size="9.00">1</text>
</g>
<!-- &#45;1&#45;&gt;1 -->
<g id="edge30" class="edge"><title>&#45;1&#45;&gt;1</title>
<path fill="none" stroke="green" stroke-width="0.128019" d="M505.238,-169.746C501.513,-163.845 495.736,-156.041 488.792,-151.196 446.605,-121.762 425.856,-135.958 378.792,-115.196 371.789,-112.107 364.434,-108.197 357.871,-104.446"/>
<polygon fill="green" stroke="green" stroke-width="0.128019" points="359.345,-101.252 348.955,-99.1789 355.784,-107.279 359.345,-101.252"/>
</g>
<!-- 3 -->
<g id="node28" class="node"><title>3</title>
<ellipse fill="lightblue" stroke="black" cx="465.792" cy="-14.8492" rx="14.7" ry="14.7"/>
<text text-anchor="middle" x="465.792" y="-12.6492" font-family="Times,serif" font-size="9.00">3</text>
</g>
<!-- &#45;1&#45;&gt;3 -->
<g id="edge60" class="edge"><title>&#45;1&#45;&gt;3</title>
<path fill="none" stroke="green" stroke-width="0.282467" d="M514.698,-169.703C525.625,-150.605 549.644,-101.554 531.792,-65.6985 522.729,-47.4957 503.497,-34.1778 488.12,-25.9104"/>
<polygon fill="green" stroke="green" stroke-width="0.282467" points="489.676,-22.7754 479.169,-21.4169 486.535,-29.0314 489.676,-22.7754"/>
</g>
<!-- 228 -->
<g id="node29" class="node"><title>228</title>
<ellipse fill="white" stroke="black" cx="638.792" cy="-90.4472" rx="21.4286" ry="21.4286"/>
<text text-anchor="middle" x="638.792" y="-88.2472" font-family="Times,serif" font-size="9.00">228</text>
</g>
<!-- &#45;1&#45;&gt;228 -->
<g id="edge8" class="edge"><title>&#45;1&#45;&gt;228</title>
<path fill="none" stroke="green" stroke-width="0.261701" d="M514.953,-169.629C518.822,-163.972 524.514,-156.523 530.792,-151.196 554.951,-130.693 587.236,-113.941 610.197,-103.447"/>
<polygon fill="green" stroke="green" stroke-width="0.261701" points="611.706,-106.607 619.416,-99.3401 608.857,-100.212 611.706,-106.607"/>
</g>
<!-- &#45;2 -->
<g id="node2" class="node"><title>&#45;2</title>
<polygon fill="lightgray" stroke="black" points="89.7916,-187.773 65.7916,-187.773 65.7916,-169.773 89.7916,-169.773 89.7916,-187.773"/>
<text text-anchor="middle" x="77.7916" y="-176.573" font-family="Times,serif" font-size="9.00">&#45;2</text>
</g>
<!-- &#45;2&#45;&gt;1 -->
<g id="edge13" class="edge"><title>&#45;2&#45;&gt;1</title>
<path fill="none" stroke="green" stroke-width="0.160239" d="M82.1925,-169.513C85.8376,-163.49 91.5808,-155.636 98.7916,-151.196 166.778,-109.333 198.143,-137.551 274.792,-115.196 287.972,-111.352 302.309,-105.944 313.873,-101.259"/>
<polygon fill="green" stroke="green" stroke-width="0.160239" points="315.324,-104.447 323.223,-97.3864 312.645,-97.9798 315.324,-104.447"/>
</g>
<!-- 2 -->
<g id="node27" class="node"><title>2</title>
<ellipse fill="lightblue" stroke="black" cx="182.792" cy="-90.4472" rx="14.7" ry="14.7"/>
<text text-anchor="middle" x="182.792" y="-88.2472" font-family="Times,serif" font-size="9.00">2</text>
</g>
<!-- &#45;2&#45;&gt;2 -->
<g id="edge29" class="edge"><title>&#45;2&#45;&gt;2</title>
<path fill="none" stroke="red" stroke-width="0.19716" d="M83.4879,-169.361C87.431,-163.863 92.9956,-156.707 98.7916,-151.196 118.34,-132.609 143.989,-115.197 161.777,-104.02"/>
<polygon fill="red" stroke="red" stroke-width="0.19716" points="163.615,-106.998 170.289,-98.7695 159.94,-101.04 163.615,-106.998"/>
</g>
<!-- &#45;2&#45;&gt;3 -->
<g id="edge49" class="edge"><title>&#45;2&#45;&gt;3</title>
<path fill="none" stroke="red" stroke-width="0.2432" d="M81.0381,-169.59C89.9031,-148.416 116.707,-91.6731 158.792,-65.6985 206.137,-36.4765 376.197,-21.9985 440.723,-17.4631"/>
<polygon fill="red" stroke="red" stroke-width="0.2432" points="441.079,-20.9471 450.817,-16.7749 440.602,-13.9633 441.079,-20.9471"/>
</g>
<!-- &#45;3 -->
<g id="node3" class="node"><title>&#45;3</title>
<polygon fill="lightgray" stroke="black" points="658.792,-187.773 634.792,-187.773 634.792,-169.773 658.792,-169.773 658.792,-187.773"/>
<text text-anchor="middle" x="646.792" y="-176.573" font-family="Times,serif" font-size="9.00">&#45;3</text>
</g>
<!-- 0 -->
<g id="node25" class="node"><title>0</title>
<ellipse fill="lightblue" stroke="black" cx="852.792" cy="-90.4472" rx="14.7" ry="14.7"/>
<text text-anchor="middle" x="852.792" y="-88.2472" font-family="Times,serif" font-size="9.00">0</text>
</g>
<!-- &#45;3&#45;&gt;0 -->
<g id="edge51" class="edge"><title>&#45;3&#45;&gt;0</title>
<path fill="none" stroke="green" stroke-width="0.139827" d="M651.34,-169.738C655.062,-163.833 660.837,-156.028 667.792,-151.196 718.246,-116.139 790.486,-100.728 828.019,-94.7489"/>
<polygon fill="green" stroke="green" stroke-width="0.139827" points="828.694,-98.187 838.065,-93.2442 827.657,-91.2642 828.694,-98.187"/>
</g>
<!-- &#45;3&#45;&gt;1 -->
<g id="edge33" class="edge"><title>&#45;3&#45;&gt;1</title>
<path fill="none" stroke="red" stroke-width="0.388938" d="M642.16,-169.391C638.331,-163.305 632.309,-155.424 624.792,-151.196 528.481,-97.0291 483.328,-150.999 378.792,-115.196 371.55,-112.716 364.128,-108.981 357.575,-105.202"/>
<polygon fill="red" stroke="red" stroke-width="0.388938" points="359.076,-102.017 348.721,-99.7766 355.419,-107.986 359.076,-102.017"/>
</g>
<!-- &#45;3&#45;&gt;228 -->
<g id="edge40" class="edge"><title>&#45;3&#45;&gt;228</title>
<path fill="none" stroke="green" stroke-width="0.347027" d="M646.025,-169.496C645.014,-158.592 643.181,-138.818 641.614,-121.902"/>
<polygon fill="green" stroke="green" stroke-width="0.347027" points="645.09,-121.478 640.682,-111.844 638.12,-122.124 645.09,-121.478"/>
</g>
<!-- &#45;4 -->
<g id="node4" class="node"><title>&#45;4</title>
<polygon fill="lightgray" stroke="black" points="1145.79,-276.099 1121.79,-276.099 1121.79,-258.099 1145.79,-258.099 1145.79,-276.099"/>
<text text-anchor="middle" x="1133.79" y="-264.899" font-family="Times,serif" font-size="9.00">&#45;4</text>
</g>
<!-- &#45;4&#45;&gt;0 -->
<g id="edge37" class="edge"><title>&#45;4&#45;&gt;0</title>
<path fill="none" stroke="green" stroke-width="0.256653" d="M1121.79,-262.565C1098.35,-255.202 1045.72,-236.366 1010.79,-206.35 988.214,-186.95 995.274,-170.706 972.792,-151.196 943.748,-125.992 902.204,-108.432 876.397,-99.1488"/>
<polygon fill="green" stroke="green" stroke-width="0.256653" points="877.294,-95.7556 866.699,-95.7847 875,-102.369 877.294,-95.7556"/>
</g>
<!-- 1006 -->
<g id="node31" class="node"><title>1006</title>
<ellipse fill="white" stroke="black" cx="1133.79" cy="-178.773" rx="25" ry="25"/>
<text text-anchor="middle" x="1133.79" y="-176.573" font-family="Times,serif" font-size="9.00">1006</text>
</g>
<!-- &#45;4&#45;&gt;1006 -->
<g id="edge20" class="edge"><title>&#45;4&#45;&gt;1006</title>
<path fill="none" stroke="green" stroke-width="0.152109" d="M1133.79,-257.822C1133.79,-247.713 1133.79,-229.981 1133.79,-213.97"/>
<polygon fill="green" stroke="green" stroke-width="0.152109" points="1137.29,-213.795 1133.79,-203.795 1130.29,-213.795 1137.29,-213.795"/>
</g>
<!-- 4792 -->
<g id="node33" class="node"><title>4792</title>
<ellipse fill="white" stroke="black" cx="1068.79" cy="-90.4472" rx="25" ry="25"/>
<text text-anchor="middle" x="1068.79" y="-88.2472" font-family="Times,serif" font-size="9.00">4792</text>
</g>
<!-- &#45;4&#45;&gt;4792 -->
<g id="edge42" class="edge"><title>&#45;4&#45;&gt;4792</title>
<path fill="none" stroke="red" stroke-width="0.134015" d="M1140.23,-258.092C1155.01,-238.675 1188.55,-187.972 1167.79,-151.196 1153.8,-126.415 1124.95,-110.758 1101.99,-101.719"/>
<polygon fill="red" stroke="red" stroke-width="0.134015" points="1103.16,-98.4211 1092.57,-98.2432 1100.74,-104.988 1103.16,-98.4211"/>
</g>
<!-- &#45;5 -->
<g id="node5" class="node"><title>&#45;5</title>
<polygon fill="lightgray" stroke="black" points="842.792,-187.773 818.792,-187.773 818.792,-169.773 842.792,-169.773 842.792,-187.773"/>
<text text-anchor="middle" x="830.792" y="-176.573" font-family="Times,serif" font-size="9.00">&#45;5</text>
</g>
<!-- &#45;5&#45;&gt;0 -->
<g id="edge24" class="edge"><title>&#45;5&#45;&gt;0</title>
<path fill="none" stroke="green" stroke-width="0.260361" d="M832.901,-169.496C836.066,-157.078 842.162,-133.155 846.776,-115.052"/>
<polygon fill="green" stroke="green" stroke-width="0.260361" points="850.209,-115.752 849.287,-105.197 843.426,-114.023 850.209,-115.752"/>
</g>
<!-- &#45;5&#45;&gt;2 -->
<g id="edge58" class="edge"><title>&#45;5&#45;&gt;2</title>
<path fill="none" stroke="green" stroke-width="0.125781" d="M826.853,-169.723C823.321,-163.475 817.508,-155.222 809.792,-151.196 690.776,-89.105 329.37,-169.919 206.792,-115.196 203.981,-113.941 201.315,-112.203 198.85,-110.231"/>
<polygon fill="green" stroke="green" stroke-width="0.125781" points="200.97,-107.413 191.339,-102.996 196.113,-112.454 200.97,-107.413"/>
</g>
<!-- &#45;5&#45;&gt;3 -->
<g id="edge16" class="edge"><title>&#45;5&#45;&gt;3</title>
<path fill="none" stroke="red" stroke-width="0.300044" d="M825.564,-169.705C821.664,-164.084 815.962,-156.647 809.792,-151.196 754.868,-102.674 736.493,-93.7608 668.792,-65.6985 607.199,-40.1683 529.455,-25.6075 490.468,-19.4208"/>
<polygon fill="red" stroke="red" stroke-width="0.300044" points="490.96,-15.9555 480.545,-17.8957 489.897,-22.8742 490.96,-15.9555"/>
</g>
<!-- &#45;5&#45;&gt;4792 -->
<g id="edge3" class="edge"><title>&#45;5&#45;&gt;4792</title>
<path fill="none" stroke="red" stroke-width="0.314029" d="M835.582,-169.655C839.495,-163.707 845.551,-155.884 852.792,-151.196 909.635,-114.391 989.026,-100.014 1034.03,-94.5807"/>
<polygon fill="red" stroke="red" stroke-width="0.314029" points="1034.62,-98.0369 1044.16,-93.4395 1033.83,-91.0809 1034.62,-98.0369"/>
</g>
<!-- &#45;6 -->
<g id="node6" class="node"><title>&#45;6</title>
<polygon fill="lightgray" stroke="black" points="342.792,-187.773 318.792,-187.773 318.792,-169.773 342.792,-169.773 342.792,-187.773"/>
<text text-anchor="middle" x="330.792" y="-176.573" font-family="Times,serif" font-size="9.00">&#45;6</text>
</g>
<!-- &#45;6&#45;&gt;1 -->
<g id="edge44" class="edge"><title>&#45;6&#45;&gt;1</title>
<path fill="none" stroke="green" stroke-width="0.194069" d="M331.367,-169.496C332.221,-157.207 333.858,-133.648 335.112,-115.615"/>
<polygon fill="green" stroke="green" stroke-width="0.194069" points="338.612,-115.726 335.814,-105.508 331.629,-115.241 338.612,-115.726"/>
</g>
<!-- &#45;7 -->
<g id="node7" class="node"><title>&#45;7</title>
<polygon fill="lightgray" stroke="black" points="479.792,-187.773 455.792,-187.773 455.792,-169.773 479.792,-169.773 479.792,-187.773"/>
<text text-anchor="middle" x="467.792" y="-176.573" font-family="Times,serif" font-size="9.00">&#45;7</text>
</g>
<!-- &#45;7&#45;&gt;2 -->
<g id="edge38" class="edge"><title>&#45;7&#45;&gt;2</title>
<path fill="none" stroke="green" stroke-width="0.111931" d="M463.155,-169.4C459.323,-163.319 453.301,-155.44 445.792,-151.196 352.274,-98.3414 302.815,-163.348 206.792,-115.196 204.041,-113.816 201.409,-112.004 198.963,-109.994"/>
<polygon fill="green" stroke="green" stroke-width="0.111931" points="201.082,-107.175 191.459,-102.743 196.218,-112.209 201.082,-107.175"/>
</g>
<!-- &#45;7&#45;&gt;3 -->
<g id="edge21" class="edge"><title>&#45;7&#45;&gt;3</title>
<path fill="none" stroke="green" stroke-width="0.167666" d="M467.69,-169.521C467.398,-145.925 466.553,-77.4953 466.095,-40.4178"/>
<polygon fill="green" stroke="green" stroke-width="0.167666" points="469.59,-39.9578 465.966,-30.0018 462.59,-40.0443 469.59,-39.9578"/>
</g>
<!-- &#45;7&#45;&gt;228 -->
<g id="edge47" class="edge"><title>&#45;7&#45;&gt;228</title>
<path fill="none" stroke="red" stroke-width="0.183689" d="M472.753,-169.379C476.529,-163.604 482.191,-156.116 488.792,-151.196 525.498,-123.834 576.422,-107.066 608.482,-98.5111"/>
<polygon fill="red" stroke="red" stroke-width="0.183689" points="609.371,-101.896 618.186,-96.0192 607.63,-95.1164 609.371,-101.896"/>
</g>
<!-- &#45;8 -->
<g id="node8" class="node"><title>&#45;8</title>
<polygon fill="lightgray" stroke="black" points="252.792,-187.773 228.792,-187.773 228.792,-169.773 252.792,-169.773 252.792,-187.773"/>
<text text-anchor="middle" x="240.792" y="-176.573" font-family="Times,serif" font-size="9.00">&#45;8</text>
</g>
<!-- &#45;8&#45;&gt;1 -->
<g id="edge9" class="edge"><title>&#45;8&#45;&gt;1</title>
<path fill="none" stroke="red" stroke-width="0.160965" d="M246.588,-169.464C250.574,-164.009 256.148,-156.862 261.792,-151.196 278.88,-134.04 300.761,-117.091 316.473,-105.652"/>
<polygon fill="red" stroke="red" stroke-width="0.160965" points="318.838,-108.263 324.928,-99.5936 314.761,-102.573 318.838,-108.263"/>
</g>
<!-- &#45;8&#45;&gt;2 -->
<g id="edge18" class="edge"><title>&#45;8&#45;&gt;2</title>
<path fill="none" stroke="green" stroke-width="0.616109" d="M235.23,-169.496C226.353,-156.283 208.723,-130.043 196.365,-111.649"/>
<polygon fill="green" stroke="green" stroke-width="0.616109" points="199.102,-109.448 190.62,-103.099 193.292,-113.352 199.102,-109.448"/>
</g>
<!-- &#45;8&#45;&gt;228 -->
<g id="edge31" class="edge"><title>&#45;8&#45;&gt;228</title>
<path fill="none" stroke="green" stroke-width="0.539966" d="M245.107,-169.368C248.707,-163.27 254.432,-155.384 261.792,-151.196 367.012,-91.3244 412.589,-136.331 531.792,-115.196 557.876,-110.571 587.234,-103.953 608.591,-98.8772"/>
<polygon fill="green" stroke="green" stroke-width="0.539966" points="609.478,-102.264 618.384,-96.5249 607.843,-95.4575 609.478,-102.264"/>
</g>
<!-- 9310 -->
<g id="node36" class="node"><title>9310</title>
<ellipse fill="white" stroke="black" cx="240.792" cy="-90.4472" rx="25" ry="25"/>
<text text-anchor="middle" x="240.792" y="-88.2472" font-family="Times,serif" font-size="9.00">9310</text>
</g>
<!-- &#45;8&#45;&gt;9310 -->
<g id="edge12" class="edge"><title>&#45;8&#45;&gt;9310</title>
<path fill="none" stroke="green" stroke-width="0.3" d="M240.792,-169.496C240.792,-159.387 240.792,-141.655 240.792,-125.644"/>
<polygon fill="green" stroke="green" stroke-width="0.3" points="244.292,-125.469 240.792,-115.469 237.292,-125.469 244.292,-125.469"/>
</g>
<!-- &#45;9 -->
<g id="node9" class="node"><title>&#45;9</title>
<polygon fill="lightgray" stroke="black" points="1043.79,-187.773 1019.79,-187.773 1019.79,-169.773 1043.79,-169.773 1043.79,-187.773"/>
<text text-anchor="middle" x="1031.79" y="-176.573" font-family="Times,serif" font-size="9.00">&#45;9</text>
</g>
<!-- &#45;9&#45;&gt;0 -->
<g id="edge35" class="edge"><title>&#45;9&#45;&gt;0</title>
<path fill="none" stroke="green" stroke-width="0.171308" d="M1025.26,-169.418C1020.4,-163.662 1013.33,-156.181 1005.79,-151.196 964.336,-123.778 908.407,-105.998 876.929,-97.4419"/>
<polygon fill="green" stroke="green" stroke-width="0.171308" points="877.809,-94.0545 867.248,-94.8933 876.027,-100.824 877.809,-94.0545"/>
</g>
<!-- &#45;10 -->
<g id="node10" class="node"><title>&#45;10</title>
<polygon fill="lightgray" stroke="black" points="150.292,-276.099 121.292,-276.099 121.292,-258.099 150.292,-258.099 150.292,-276.099"/>
<text text-anchor="middle" x="135.792" y="-264.899" font-family="Times,serif" font-size="9.00">&#45;10</text>
</g>
<!-- 10460 -->
<g id="node34" class="node"><title>10460</title>
<ellipse fill="white" stroke="black" cx="135.792" cy="-178.773" rx="27.6545" ry="27.6545"/>
<text text-anchor="middle" x="135.792" y="-176.573" font-family="Times,serif" font-size="9.00">10460</text>
</g>
<!-- &#45;10&#45;&gt;10460 -->
<g id="edge39" class="edge"><title>&#45;10&#45;&gt;10460</title>
<path fill="none" stroke="green" stroke-width="0.3" d="M135.792,-257.822C135.792,-248.29 135.792,-231.978 135.792,-216.723"/>
<polygon fill="green" stroke="green" stroke-width="0.3" points="139.292,-216.428 135.792,-206.428 132.292,-216.428 139.292,-216.428"/>
</g>
<!-- &#45;11 -->
<g id="node11" class="node"><title>&#45;11</title>
<polygon fill="lightgray" stroke="black" points="753.292,-187.773 724.292,-187.773 724.292,-169.773 753.292,-169.773 753.292,-187.773"/>
<text text-anchor="middle" x="738.792" y="-176.573" font-family="Times,serif" font-size="9.00">&#45;11</text>
</g>
<!-- &#45;11&#45;&gt;228 -->
<g id="edge34" class="edge"><title>&#45;11&#45;&gt;228</title>
<path fill="none" stroke="red" stroke-width="0.113918" d="M731.988,-169.533C727.358,-164.107 720.971,-156.967 714.792,-151.196 698.796,-136.256 679.376,-121.033 664.17,-109.692"/>
<polygon fill="red" stroke="red" stroke-width="0.113918" points="665.889,-106.611 655.763,-103.494 661.735,-112.245 665.889,-106.611"/>
</g>
<!-- &#45;12 -->
<g id="node12" class="node"><title>&#45;12</title>
<polygon fill="lightgray" stroke="black" points="1091.29,-187.773 1062.29,-187.773 1062.29,-169.773 1091.29,-169.773 1091.29,-187.773"/>
<text text-anchor="middle" x="1076.79" y="-176.573" font-family="Times,serif" font-size="9.00">&#45;12</text>
</g>
<!-- &#45;12&#45;&gt;0 -->
<g id="edge6" class="edge"><title>&#45;12&#45;&gt;0</title>
<path fill="none" stroke="red" stroke-width="0.215966" d="M1071.38,-169.708C1067.01,-163.788 1060.36,-155.976 1052.79,-151.196 996.219,-115.466 917.211,-100.195 877.561,-94.458"/>
<polygon fill="red" stroke="red" stroke-width="0.215966" points="877.854,-90.9656 867.473,-93.0835 876.909,-97.9015 877.854,-90.9656"/>
</g>
<!-- &#45;13 -->
<g id="node13" class="node"><title>&#45;13</title>
<polygon fill="lightgray" stroke="black" points="890.292,-187.773 861.292,-187.773 861.292,-169.773 890.292,-169.773 890.292,-187.773"/>
<text text-anchor="middle" x="875.792" y="-176.573" font-family="Times,serif" font-size="9.00">&#45;13</text>
</g>
<!-- &#45;13&#45;&gt;0 -->
<g id="edge57" class="edge"><title>&#45;13&#45;&gt;0</title>
<path fill="none" stroke="red" stroke-width="0.483566" d="M873.586,-169.496C870.259,-157.008 863.831,-132.883 858.999,-114.744"/>
<polygon fill="red" stroke="red" stroke-width="0.483566" points="862.33,-113.652 856.373,-104.89 855.566,-115.454 862.33,-113.652"/>
</g>
<!-- &#45;14 -->
<g id="node14" class="node"><title>&#45;14</title>
<polygon fill="lightgray" stroke="black" points="569.292,-187.773 540.292,-187.773 540.292,-169.773 569.292,-169.773 569.292,-187.773"/>
<text text-anchor="middle" x="554.792" y="-176.573" font-family="Times,serif" font-size="9.00">&#45;14</text>
</g>
<!-- &#45;14&#45;&gt;0 -->
<g id="edge43" class="edge"><title>&#45;14&#45;&gt;0</title>
<path fill="none" stroke="red" stroke-width="0.14536" d="M559.808,-169.539C563.903,-163.53 570.236,-155.681 577.792,-151.196 620.507,-125.841 768.87,-103.068 828.095,-94.7727"/>
<polygon fill="red" stroke="red" stroke-width="0.14536" points="828.644,-98.2302 838.071,-93.3949 827.686,-91.296 828.644,-98.2302"/>
</g>
<!-- &#45;14&#45;&gt;1 -->
<g id="edge59" class="edge"><title>&#45;14&#45;&gt;1</title>
<path fill="none" stroke="green" stroke-width="0.113521" d="M549.454,-169.582C545.126,-163.595 538.496,-155.756 530.792,-151.196 471.048,-115.834 443.427,-140.533 378.792,-115.196 371.665,-112.402 364.275,-108.578 357.718,-104.813"/>
<polygon fill="green" stroke="green" stroke-width="0.113521" points="359.207,-101.625 348.834,-99.4691 355.599,-107.623 359.207,-101.625"/>
</g>
<!-- &#45;14&#45;&gt;3 -->
<g id="edge10" class="edge"><title>&#45;14&#45;&gt;3</title>
<path fill="none" stroke="red" stroke-width="0.168346" d="M556.851,-169.712C561.351,-150.213 570.116,-99.6125 549.792,-65.6985 536.578,-43.6501 509.563,-30.2351 489.723,-22.9597"/>
<polygon fill="red" stroke="red" stroke-width="0.168346" points="490.707,-19.5977 480.112,-19.7015 488.459,-26.2271 490.707,-19.5977"/>
</g>
<!-- &#45;15 -->
<g id="node15" class="node"><title>&#45;15</title>
<polygon fill="lightgray" stroke="black" points="291.292,-345.848 262.292,-345.848 262.292,-327.848 291.292,-327.848 291.292,-345.848"/>
<text text-anchor="middle" x="276.792" y="-334.648" font-family="Times,serif" font-size="9.00">&#45;15</text>
</g>
<!-- &#45;15&#45;&gt;3 -->
<g id="edge54" class="edge"><title>&#45;15&#45;&gt;3</title>
<path fill="none" stroke="red" stroke-width="0.239441" d="M261.9,-334.062C232.006,-330.019 163.158,-318.375 111.792,-291.848 42.9486,-256.295 -23.4536,-221.649 8.79157,-151.196 32.9863,-98.3327 54.8348,-89.6881 107.792,-65.6985 167.611,-38.6 368.921,-22.4906 440.373,-17.5151"/>
<polygon fill="red" stroke="red" stroke-width="0.239441" points="440.945,-20.9843 450.684,-16.8122 440.469,-14.0005 440.945,-20.9843"/>
</g>
<!-- 9830 -->
<g id="node30" class="node"><title>9830</title>
<ellipse fill="white" stroke="black" cx="564.792" cy="-267.099" rx="25" ry="25"/>
<text text-anchor="middle" x="564.792" y="-264.899" font-family="Times,serif" font-size="9.00">9830</text>
</g>
<!-- &#45;15&#45;&gt;9830 -->
<g id="edge45" class="edge"><title>&#45;15&#45;&gt;9830</title>
<path fill="none" stroke="green" stroke-width="0.3" d="M291.469,-332.395C335.662,-321.999 468.278,-290.803 531.093,-276.026"/>
<polygon fill="green" stroke="green" stroke-width="0.3" points="531.974,-279.414 540.907,-273.718 530.371,-272.6 531.974,-279.414"/>
</g>
<!-- &#45;16 -->
<g id="node16" class="node"><title>&#45;16</title>
<polygon fill="lightgray" stroke="black" points="437.292,-187.773 408.292,-187.773 408.292,-169.773 437.292,-169.773 437.292,-187.773"/>
<text text-anchor="middle" x="422.792" y="-176.573" font-family="Times,serif" font-size="9.00">&#45;16</text>
</g>
<!-- &#45;16&#45;&gt;1 -->
<g id="edge32" class="edge"><title>&#45;16&#45;&gt;1</title>
<path fill="none" stroke="red" stroke-width="0.221912" d="M415.792,-169.733C411.078,-164.392 404.673,-157.271 398.792,-151.196 384.462,-136.395 367.593,-120.214 355.072,-108.429"/>
<polygon fill="red" stroke="red" stroke-width="0.221912" points="357.233,-105.658 347.541,-101.378 352.448,-110.767 357.233,-105.658"/>
</g>
<!-- 9373 -->
<g id="node35" class="node"><title>9373</title>
<ellipse fill="white" stroke="black" cx="412.792" cy="-90.4472" rx="25" ry="25"/>
<text text-anchor="middle" x="412.792" y="-88.2472" font-family="Times,serif" font-size="9.00">9373</text>
</g>
<!-- &#45;16&#45;&gt;9373 -->
<g id="edge55" class="edge"><title>&#45;16&#45;&gt;9373</title>
<path fill="none" stroke="green" stroke-width="0.228963" d="M421.833,-169.496C420.654,-159.318 418.579,-141.412 416.715,-125.315"/>
<polygon fill="green" stroke="green" stroke-width="0.228963" points="420.159,-124.629 415.531,-115.099 413.205,-125.435 420.159,-124.629"/>
</g>
<!-- &#45;17 -->
<g id="node17" class="node"><title>&#45;17</title>
<polygon fill="lightgray" stroke="black" points="706.292,-187.773 677.292,-187.773 677.292,-169.773 706.292,-169.773 706.292,-187.773"/>
<text text-anchor="middle" x="691.792" y="-176.573" font-family="Times,serif" font-size="9.00">&#45;17</text>
</g>
<!-- &#45;17&#45;&gt;0 -->
<g id="edge28" class="edge"><title>&#45;17&#45;&gt;0</title>
<path fill="none" stroke="red" stroke-width="0.44439" d="M697.437,-169.461C701.671,-163.724 707.904,-156.25 714.792,-151.196 750.598,-124.923 799.752,-107.185 828.705,-98.239"/>
<polygon fill="red" stroke="red" stroke-width="0.44439" points="829.817,-101.56 838.395,-95.3416 827.812,-94.853 829.817,-101.56"/>
</g>
<!-- &#45;17&#45;&gt;1 -->
<g id="edge52" class="edge"><title>&#45;17&#45;&gt;1</title>
<path fill="none" stroke="green" stroke-width="0.237787" d="M686.589,-169.338C682.333,-163.223 675.732,-155.331 667.792,-151.196 552.989,-91.4109 501.687,-155.824 378.792,-115.196 371.524,-112.793 364.094,-109.08 357.543,-105.298"/>
<polygon fill="green" stroke="green" stroke-width="0.237787" points="359.046,-102.114 348.695,-99.8527 355.377,-108.075 359.046,-102.114"/>
</g>
<!-- &#45;18 -->
<g id="node18" class="node"><title>&#45;18</title>
<polygon fill="lightgray" stroke="black" points="800.292,-187.773 771.292,-187.773 771.292,-169.773 800.292,-169.773 800.292,-187.773"/>
<text text-anchor="middle" x="785.792" y="-176.573" font-family="Times,serif" font-size="9.00">&#45;18</text>
</g>
<!-- &#45;18&#45;&gt;0 -->
<g id="edge23" class="edge"><title>&#45;18&#45;&gt;0</title>
<path fill="none" stroke="green" stroke-width="0.124618" d="M792.216,-169.496C802.621,-156.089 823.435,-129.271 837.735,-110.846"/>
<polygon fill="green" stroke="green" stroke-width="0.124618" points="840.606,-112.856 843.972,-102.81 835.076,-108.564 840.606,-112.856"/>
</g>
<!-- &#45;18&#45;&gt;228 -->
<g id="edge19" class="edge"><title>&#45;18&#45;&gt;228</title>
<path fill="none" stroke="green" stroke-width="0.243941" d="M779.761,-169.568C775.276,-163.882 768.751,-156.423 761.792,-151.196 732.673,-129.323 694.286,-112.21 668.194,-102.006"/>
<polygon fill="green" stroke="green" stroke-width="0.243941" points="669.431,-98.7319 658.84,-98.4377 666.936,-105.272 669.431,-98.7319"/>
</g>
<!-- &#45;19 -->
<g id="node19" class="node"><title>&#45;19</title>
<polygon fill="lightgray" stroke="black" points="523.292,-99.4472 494.292,-99.4472 494.292,-81.4472 523.292,-81.4472 523.292,-99.4472"/>
<text text-anchor="middle" x="508.792" y="-88.2472" font-family="Times,serif" font-size="9.00">&#45;19</text>
</g>
<!-- &#45;19&#45;&gt;3 -->
<g id="edge4" class="edge"><title>&#45;19&#45;&gt;3</title>
<path fill="none" stroke="green" stroke-width="0.208468" d="M504.026,-81.2897C497.819,-70.6672 486.744,-51.7116 478.106,-36.9263"/>
<polygon fill="green" stroke="green" stroke-width="0.208468" points="480.923,-34.8106 472.857,-27.9419 474.879,-38.3419 480.923,-34.8106"/>
</g>
<!-- &#45;20 -->
<g id="node20" class="node"><title>&#45;20</title>
<polygon fill="lightgray" stroke="black" points="47.2916,-187.773 18.2916,-187.773 18.2916,-169.773 47.2916,-169.773 47.2916,-187.773"/>
<text text-anchor="middle" x="32.7916" y="-176.573" font-family="Times,serif" font-size="9.00">&#45;20</text>
</g>
<!-- &#45;20&#45;&gt;2 -->
<g id="edge1" class="edge"><title>&#45;20&#45;&gt;2</title>
<path fill="none" stroke="red" stroke-width="0.103049" d="M38.8074,-169.548C43.2849,-163.852 49.808,-156.391 56.7916,-151.196 89.2026,-127.087 132.889,-109.024 159.385,-99.3668"/>
<polygon fill="red" stroke="red" stroke-width="0.103049" points="160.706,-102.612 168.962,-95.971 158.367,-96.0145 160.706,-102.612"/>
</g>
<!-- &#45;21 -->
<g id="node21" class="node"><title>&#45;21</title>
<polygon fill="lightgray" stroke="black" points="210.292,-187.773 181.292,-187.773 181.292,-169.773 210.292,-169.773 210.292,-187.773"/>
<text text-anchor="middle" x="195.792" y="-176.573" font-family="Times,serif" font-size="9.00">&#45;21</text>
</g>
<!-- &#45;21&#45;&gt;1 -->
<g id="edge7" class="edge"><title>&#45;21&#45;&gt;1</title>
<path fill="none" stroke="red" stroke-width="0.505983" d="M201.855,-169.61C206.355,-163.945 212.885,-156.493 219.792,-151.196 249.378,-128.506 288.889,-110.43 313.584,-100.328"/>
<polygon fill="red" stroke="red" stroke-width="0.505983" points="314.893,-103.574 322.883,-96.6154 312.298,-97.0729 314.893,-103.574"/>
</g>
<!-- &#45;21&#45;&gt;2 -->
<g id="edge50" class="edge"><title>&#45;21&#45;&gt;2</title>
<path fill="none" stroke="red" stroke-width="0.140064" d="M194.545,-169.496C192.684,-157.136 189.106,-133.378 186.385,-115.307"/>
<polygon fill="red" stroke="red" stroke-width="0.140064" points="189.812,-114.565 184.862,-105.197 182.89,-115.607 189.812,-114.565"/>
</g>
<!-- &#45;22 -->
<g id="node22" class="node"><title>&#45;22</title>
<polygon fill="lightgray" stroke="black" points="616.292,-187.773 587.292,-187.773 587.292,-169.773 616.292,-169.773 616.292,-187.773"/>
<text text-anchor="middle" x="601.792" y="-176.573" font-family="Times,serif" font-size="9.00">&#45;22</text>
</g>
<!-- &#45;22&#45;&gt;228 -->
<g id="edge26" class="edge"><title>&#45;22&#45;&gt;228</title>
<path fill="none" stroke="green" stroke-width="0.229808" d="M605.339,-169.496C610.253,-158.03 619.372,-136.756 626.849,-119.312"/>
<polygon fill="green" stroke="green" stroke-width="0.229808" points="630.074,-120.671 630.797,-110.101 623.64,-117.913 630.074,-120.671"/>
</g>
<!-- &#45;23 -->
<g id="node23" class="node"><title>&#45;23</title>
<polygon fill="lightgray" stroke="black" points="300.292,-187.773 271.292,-187.773 271.292,-169.773 300.292,-169.773 300.292,-187.773"/>
<text text-anchor="middle" x="285.792" y="-176.573" font-family="Times,serif" font-size="9.00">&#45;23</text>
</g>
<!-- &#45;23&#45;&gt;0 -->
<g id="edge2" class="edge"><title>&#45;23&#45;&gt;0</title>
<path fill="none" stroke="red" stroke-width="0.223094" d="M290.966,-169.283C295.207,-163.14 301.802,-155.235 309.792,-151.196 381.344,-115.018 589.136,-124.329 668.792,-115.196 725.675,-108.674 792.279,-99.7588 827.677,-94.9185"/>
<polygon fill="red" stroke="red" stroke-width="0.223094" points="828.591,-98.326 838.022,-93.4984 827.639,-91.3911 828.591,-98.326"/>
</g>
<!-- &#45;23&#45;&gt;1 -->
<g id="edge46" class="edge"><title>&#45;23&#45;&gt;1</title>
<path fill="none" stroke="green" stroke-width="0.277995" d="M290.682,-169.496C298.367,-156.487 313.513,-130.85 324.35,-112.507"/>
<polygon fill="green" stroke="green" stroke-width="0.277995" points="327.488,-114.075 329.561,-103.685 321.462,-110.515 327.488,-114.075"/>
</g>
<!-- &#45;23&#45;&gt;2 -->
<g id="edge17" class="edge"><title>&#45;23&#45;&gt;2</title>
<path fill="none" stroke="green" stroke-width="0.159397" d="M279.149,-169.353C274.587,-163.851 268.215,-156.694 261.792,-151.196 239.597,-132.198 229.511,-133.563 206.792,-115.196 204.484,-113.33 202.15,-111.274 199.891,-109.175"/>
<polygon fill="green" stroke="green" stroke-width="0.159397" points="202.242,-106.579 192.645,-102.091 197.349,-111.584 202.242,-106.579"/>
</g>
<!-- &#45;23&#45;&gt;3 -->
<g id="edge15" class="edge"><title>&#45;23&#45;&gt;3</title>
<path fill="none" stroke="red" stroke-width="0.389665" d="M285.251,-169.49C284.387,-149.047 285.077,-95.6802 312.792,-65.6985 346.33,-29.4161 406.552,-19.4734 440.582,-16.7934"/>
<polygon fill="red" stroke="red" stroke-width="0.389665" points="440.885,-20.2813 450.643,-16.1543 440.441,-13.2954 440.885,-20.2813"/>
</g>
<!-- &#45;24 -->
<g id="node24" class="node"><title>&#45;24</title>
<polygon fill="lightgray" stroke="black" points="390.292,-187.773 361.292,-187.773 361.292,-169.773 390.292,-169.773 390.292,-187.773"/>
<text text-anchor="middle" x="375.792" y="-176.573" font-family="Times,serif" font-size="9.00">&#45;24</text>
</g>
<!-- &#45;24&#45;&gt;1 -->
<g id="edge5" class="edge"><title>&#45;24&#45;&gt;1</title>
<path fill="none" stroke="green" stroke-width="0.403109" d="M372.052,-169.496C366.293,-156.749 355.057,-131.877 346.81,-113.623"/>
<polygon fill="green" stroke="green" stroke-width="0.403109" points="349.897,-111.954 342.59,-104.282 343.518,-114.836 349.897,-111.954"/>
</g>
<!-- 0&#45;&gt;0 -->
<g id="edge25" class="edge"><title>0&#45;&gt;0</title>
<path fill="none" stroke="red" stroke-width="0.365669" d="M863.219,-101.274C873.83,-107.642 885.641,-104.033 885.641,-90.4472 885.641,-81.1069 880.058,-76.4823 873.121,-76.5735"/>
<polygon fill="red" stroke="red" stroke-width="0.365669" points="871.747,-73.3343 863.219,-79.6209 873.806,-80.0247 871.747,-73.3343"/>
</g>
<!-- 1&#45;&gt;1 -->
<g id="edge22" class="edge"><title>1&#45;&gt;1</title>
<path fill="none" stroke="red" stroke-width="0.133166" d="M347.219,-101.274C357.83,-107.642 369.641,-104.033 369.641,-90.4472 369.641,-81.1069 364.058,-76.4823 357.121,-76.5735"/>
<polygon fill="red" stroke="red" stroke-width="0.133166" points="355.747,-73.3343 347.219,-79.6209 357.806,-80.0247 355.747,-73.3343"/>
</g>
<!-- 3&#45;&gt;3 -->
<g id="edge14" class="edge"><title>3&#45;&gt;3</title>
<path fill="none" stroke="red" stroke-width="0.108054" d="M476.219,-25.6755C486.83,-32.0439 498.641,-28.4352 498.641,-14.8492 498.641,-5.50891 493.058,-0.884351 486.121,-0.975566"/>
<polygon fill="red" stroke="red" stroke-width="0.108054" points="484.747,2.26363 476.219,-4.02295 486.806,-4.42672 484.747,2.26363"/>
</g>
<!-- 228&#45;&gt;3 -->
<g id="edge36" class="edge"><title>228&#45;&gt;3</title>
<path fill="none" stroke="green" stroke-width="0.218665" d="M622.226,-76.9644C616.564,-73.0399 610.072,-68.8999 603.792,-65.6985 565.556,-46.2082 517.877,-30.7812 489.745,-22.5108"/>
<polygon fill="green" stroke="green" stroke-width="0.218665" points="490.559,-19.1029 479.981,-19.6979 488.621,-25.8294 490.559,-19.1029"/>
</g>
<!-- 12052 -->
<g id="node32" class="node"><title>12052</title>
<ellipse fill="white" stroke="black" cx="935.792" cy="-178.773" rx="27.6545" ry="27.6545"/>
<text text-anchor="middle" x="935.792" y="-176.573" font-family="Times,serif" font-size="9.00">12052</text>
</g>
<!-- 9830&#45;&gt;12052 -->
<g id="edge48" class="edge"><title>9830&#45;&gt;12052</title>
<path fill="none" stroke="green" stroke-width="0.3" d="M589.858,-265.491C647.12,-263.295 790.981,-253.155 899.792,-206.35 901.937,-205.427 904.075,-204.355 906.178,-203.18"/>
<polygon fill="green" stroke="green" stroke-width="0.3" points="908.517,-205.841 915.084,-197.528 904.766,-199.931 908.517,-205.841"/>
</g>
<!-- 1006&#45;&gt;0 -->
<g id="edge56" class="edge"><title>1006&#45;&gt;0</title>
<path fill="none" stroke="red" stroke-width="0.127006" d="M1115.93,-161.044C1111.27,-157.363 1106.07,-153.794 1100.79,-151.196 1024.64,-113.73 923.526,-98.875 877.497,-93.7737"/>
<polygon fill="red" stroke="red" stroke-width="0.127006" points="877.84,-90.2906 867.53,-92.7282 877.11,-97.2524 877.84,-90.2906"/>
</g>
<!-- 12052&#45;&gt;0 -->
<g id="edge11" class="edge"><title>12052&#45;&gt;0</title>
<path fill="none" stroke="green" stroke-width="0.27219" d="M916.958,-158.184C902.752,-143.41 883.436,-123.32 869.718,-109.052"/>
<polygon fill="green" stroke="green" stroke-width="0.27219" points="872.195,-106.579 862.741,-101.796 867.149,-111.43 872.195,-106.579"/>
</g>
<!-- 10460&#45;&gt;2 -->
<g id="edge53" class="edge"><title>10460&#45;&gt;2</title>
<path fill="none" stroke="green" stroke-width="0.649735" d="M148.635,-154.184C155.652,-141.295 164.278,-125.452 171.105,-112.911"/>
<polygon fill="green" stroke="green" stroke-width="0.649735" points="174.212,-114.525 175.92,-104.069 168.064,-111.178 174.212,-114.525"/>
</g>
<!-- 9373&#45;&gt;3 -->
<g id="edge41" class="edge"><title>9373&#45;&gt;3</title>
<path fill="none" stroke="red" stroke-width="0.196639" d="M426.995,-69.7243C434.564,-59.2125 443.854,-46.3122 451.446,-35.7706"/>
<polygon fill="red" stroke="red" stroke-width="0.196639" points="454.344,-37.7348 457.348,-27.5746 448.664,-33.6442 454.344,-37.7348"/>
</g>
<!-- 9310&#45;&gt;3 -->
<g id="edge27" class="edge"><title>9310&#45;&gt;3</title>
<path fill="none" stroke="red" stroke-width="0.381946" d="M260.849,-75.7344C266.766,-72.1075 273.378,-68.4434 279.792,-65.6985 335.219,-41.9753 404.86,-26.9376 441.181,-20.1214"/>
<polygon fill="red" stroke="red" stroke-width="0.381946" points="442.122,-23.5076 451.331,-18.2694 440.865,-16.6213 442.122,-23.5076"/>
</g>
</g>
</svg>
