<?xml version="1.0" encoding="UTF-8" standalone="no"?>
<!DOCTYPE svg PUBLIC "-//W3C//DTD SVG 1.1//EN"
 "http://www.w3.org/Graphics/SVG/1.1/DTD/svg11.dtd">
<!-- Generated by graphviz version 2.38.0 (20140413.2041)
 -->
<!-- Title: %3 Pages: 1 -->
<svg width="1046pt" height="263pt"
 viewBox="0.00 0.00 1045.50 262.69" xmlns="http://www.w3.org/2000/svg" xmlns:xlink="http://www.w3.org/1999/xlink">
<g id="graph0" class="graph" transform="scale(1 1) rotate(0) translate(4 258.693)">
<title>%3</title>
<polygon fill="white" stroke="none" points="-4,4 -4,-258.693 1041.5,-258.693 1041.5,4 -4,4"/>
<!-- &#45;1 -->
<g id="node1" class="node"><title>&#45;1</title>
<polygon fill="lightgray" stroke="black" points="161,-184.945 137,-184.945 137,-166.945 161,-166.945 161,-184.945"/>
<text text-anchor="middle" x="149" y="-173.745" font-family="Times,serif" font-size="9.00">&#45;1</text>
</g>
<!-- 0 -->
<g id="node25" class="node"><title>0</title>
<ellipse fill="lightblue" stroke="black" cx="171" cy="-100.347" rx="14.7" ry="14.7"/>
<text text-anchor="middle" x="171" y="-98.1467" font-family="Times,serif" font-size="9.00">0</text>
</g>
<!-- &#45;1&#45;&gt;0 -->
<g id="edge7" class="edge"><title>&#45;1&#45;&gt;0</title>
<path fill="none" stroke="green" stroke-width="1.64527" d="M151.438,-166.787C154.463,-156.668 159.748,-138.987 164.063,-124.553"/>
<polygon fill="green" stroke="green" stroke-width="1.64527" points="167.477,-125.354 166.987,-114.771 160.77,-123.35 167.477,-125.354"/>
</g>
<!-- 2 -->
<g id="node27" class="node"><title>2</title>
<ellipse fill="lightblue" stroke="black" cx="308" cy="-100.347" rx="14.7" ry="14.7"/>
<text text-anchor="middle" x="308" y="-98.1467" font-family="Times,serif" font-size="9.00">2</text>
</g>
<!-- &#45;1&#45;&gt;2 -->
<g id="edge17" class="edge"><title>&#45;1&#45;&gt;2</title>
<path fill="none" stroke="green" stroke-width="0.510063" d="M154.778,-166.5C158.595,-161.465 163.99,-155.278 170,-151.196 205.688,-126.954 254.555,-112.969 283.544,-106.281"/>
<polygon fill="green" stroke="green" stroke-width="0.510063" points="284.596,-109.633 293.612,-104.068 283.094,-102.796 284.596,-109.633"/>
</g>
<!-- &#45;2 -->
<g id="node2" class="node"><title>&#45;2</title>
<polygon fill="lightgray" stroke="black" points="529,-184.945 505,-184.945 505,-166.945 529,-166.945 529,-184.945"/>
<text text-anchor="middle" x="517" y="-173.745" font-family="Times,serif" font-size="9.00">&#45;2</text>
</g>
<!-- &#45;2&#45;&gt;0 -->
<g id="edge3" class="edge"><title>&#45;2&#45;&gt;0</title>
<path fill="none" stroke="red" stroke-width="0.314375" d="M511.48,-166.545C507.538,-161.259 501.751,-154.781 495,-151.196 481.732,-144.151 269.913,-114.812 196.117,-104.751"/>
<polygon fill="red" stroke="red" stroke-width="0.314375" points="196.27,-101.239 185.889,-103.359 195.326,-108.175 196.27,-101.239"/>
</g>
<!-- 1 -->
<g id="node26" class="node"><title>1</title>
<ellipse fill="lightblue" stroke="black" cx="585" cy="-100.347" rx="14.7" ry="14.7"/>
<text text-anchor="middle" x="585" y="-98.1467" font-family="Times,serif" font-size="9.00">1</text>
</g>
<!-- &#45;2&#45;&gt;1 -->
<g id="edge8" class="edge"><title>&#45;2&#45;&gt;1</title>
<path fill="none" stroke="red" stroke-width="0.311212" d="M524.322,-166.534C528.327,-161.965 533.398,-156.236 538,-151.196 547.9,-140.354 559.18,-128.378 568.208,-118.882"/>
<polygon fill="red" stroke="red" stroke-width="0.311212" points="570.814,-121.221 575.182,-111.568 565.748,-116.39 570.814,-121.221"/>
</g>
<!-- 3 -->
<g id="node28" class="node"><title>3</title>
<ellipse fill="lightblue" stroke="black" cx="723" cy="-100.347" rx="14.7" ry="14.7"/>
<text text-anchor="middle" x="723" y="-98.1467" font-family="Times,serif" font-size="9.00">3</text>
</g>
<!-- &#45;2&#45;&gt;3 -->
<g id="edge23" class="edge"><title>&#45;2&#45;&gt;3</title>
<path fill="none" stroke="red" stroke-width="2.06583" d="M522.323,-166.782C526.109,-161.596 531.638,-155.14 538,-151.196 589.334,-119.37 660.917,-107.613 698.2,-103.467"/>
<polygon fill="red" stroke="red" stroke-width="2.06583" points="698.592,-106.945 708.186,-102.45 697.882,-99.9813 698.592,-106.945"/>
</g>
<!-- &#45;3 -->
<g id="node3" class="node"><title>&#45;3</title>
<polygon fill="lightgray" stroke="black" points="770,-254.693 746,-254.693 746,-236.693 770,-236.693 770,-254.693"/>
<text text-anchor="middle" x="758" y="-243.493" font-family="Times,serif" font-size="9.00">&#45;3</text>
</g>
<!-- &#45;4 -->
<g id="node4" class="node"><title>&#45;4</title>
<polygon fill="lightgray" stroke="black" points="298,-184.945 274,-184.945 274,-166.945 298,-166.945 298,-184.945"/>
<text text-anchor="middle" x="286" y="-173.745" font-family="Times,serif" font-size="9.00">&#45;4</text>
</g>
<!-- &#45;4&#45;&gt;0 -->
<g id="edge18" class="edge"><title>&#45;4&#45;&gt;0</title>
<path fill="none" stroke="red" stroke-width="0.106956" d="M279.648,-166.819C275.536,-161.904 269.871,-155.732 264,-151.196 242.027,-134.219 213.47,-119.87 193.829,-110.988"/>
<polygon fill="red" stroke="red" stroke-width="0.106956" points="195.016,-107.687 184.453,-106.858 192.193,-114.092 195.016,-107.687"/>
</g>
<!-- &#45;4&#45;&gt;2 -->
<g id="edge6" class="edge"><title>&#45;4&#45;&gt;2</title>
<path fill="none" stroke="red" stroke-width="0.47918" d="M288.438,-166.787C291.463,-156.668 296.748,-138.987 301.063,-124.553"/>
<polygon fill="red" stroke="red" stroke-width="0.47918" points="304.477,-125.354 303.987,-114.771 297.77,-123.35 304.477,-125.354"/>
</g>
<!-- &#45;4&#45;&gt;3 -->
<g id="edge9" class="edge"><title>&#45;4&#45;&gt;3</title>
<path fill="none" stroke="green" stroke-width="1.20721" d="M290.824,-166.938C294.534,-161.54 300.175,-154.773 307,-151.196 426.729,-88.4531 474.796,-131.347 609,-115.196 639.759,-111.494 675.179,-107.184 698.269,-104.367"/>
<polygon fill="green" stroke="green" stroke-width="1.20721" points="698.742,-107.836 708.244,-103.15 697.894,-100.887 698.742,-107.836"/>
</g>
<!-- &#45;5 -->
<g id="node5" class="node"><title>&#45;5</title>
<polygon fill="lightgray" stroke="black" points="24,-184.945 0,-184.945 0,-166.945 24,-166.945 24,-184.945"/>
<text text-anchor="middle" x="12" y="-173.745" font-family="Times,serif" font-size="9.00">&#45;5</text>
</g>
<!-- &#45;5&#45;&gt;0 -->
<g id="edge15" class="edge"><title>&#45;5&#45;&gt;0</title>
<path fill="none" stroke="red" stroke-width="1.11439" d="M17.7781,-166.5C21.595,-161.465 26.9904,-155.278 33,-151.196 68.6876,-126.954 117.555,-112.969 146.544,-106.281"/>
<polygon fill="red" stroke="red" stroke-width="1.11439" points="147.596,-109.633 156.612,-104.068 146.094,-102.796 147.596,-109.633"/>
</g>
<!-- &#45;6 -->
<g id="node6" class="node"><title>&#45;6</title>
<polygon fill="lightgray" stroke="black" points="812,-254.693 788,-254.693 788,-236.693 812,-236.693 812,-254.693"/>
<text text-anchor="middle" x="800" y="-243.493" font-family="Times,serif" font-size="9.00">&#45;6</text>
</g>
<!-- &#45;7 -->
<g id="node7" class="node"><title>&#45;7</title>
<polygon fill="lightgray" stroke="black" points="728,-254.693 704,-254.693 704,-236.693 728,-236.693 728,-254.693"/>
<text text-anchor="middle" x="716" y="-243.493" font-family="Times,serif" font-size="9.00">&#45;7</text>
</g>
<!-- &#45;7&#45;&gt;3 -->
<g id="edge14" class="edge"><title>&#45;7&#45;&gt;3</title>
<path fill="none" stroke="green" stroke-width="0.28742" d="M723.93,-236.423C731.276,-228.141 741.694,-214.652 746,-200.693 752.484,-179.672 750.718,-172.683 746,-151.196 743.832,-141.321 739.511,-131.07 735.194,-122.451"/>
<polygon fill="green" stroke="green" stroke-width="0.28742" points="738.228,-120.701 730.437,-113.52 732.049,-123.992 738.228,-120.701"/>
</g>
<!-- 8149 -->
<g id="node30" class="node"><title>8149</title>
<ellipse fill="white" stroke="black" cx="666" cy="-175.945" rx="25" ry="25"/>
<text text-anchor="middle" x="666" y="-173.745" font-family="Times,serif" font-size="9.00">8149</text>
</g>
<!-- &#45;7&#45;&gt;8149 -->
<g id="edge30" class="edge"><title>&#45;7&#45;&gt;8149</title>
<path fill="none" stroke="red" stroke-width="0.480857" d="M710.068,-236.656C704.198,-228.702 694.875,-216.069 686.313,-204.468"/>
<polygon fill="red" stroke="red" stroke-width="0.480857" points="689.027,-202.251 680.273,-196.284 683.395,-206.408 689.027,-202.251"/>
</g>
<!-- &#45;8 -->
<g id="node8" class="node"><title>&#45;8</title>
<polygon fill="lightgray" stroke="black" points="854,-254.693 830,-254.693 830,-236.693 854,-236.693 854,-254.693"/>
<text text-anchor="middle" x="842" y="-243.493" font-family="Times,serif" font-size="9.00">&#45;8</text>
</g>
<!-- &#45;9 -->
<g id="node9" class="node"><title>&#45;9</title>
<polygon fill="lightgray" stroke="black" points="896,-254.693 872,-254.693 872,-236.693 896,-236.693 896,-254.693"/>
<text text-anchor="middle" x="884" y="-243.493" font-family="Times,serif" font-size="9.00">&#45;9</text>
</g>
<!-- &#45;10 -->
<g id="node10" class="node"><title>&#45;10</title>
<polygon fill="lightgray" stroke="black" points="208.5,-184.945 179.5,-184.945 179.5,-166.945 208.5,-166.945 208.5,-184.945"/>
<text text-anchor="middle" x="194" y="-173.745" font-family="Times,serif" font-size="9.00">&#45;10</text>
</g>
<!-- &#45;10&#45;&gt;0 -->
<g id="edge13" class="edge"><title>&#45;10&#45;&gt;0</title>
<path fill="none" stroke="red" stroke-width="0.227381" d="M191.451,-166.787C188.288,-156.668 182.763,-138.987 178.252,-124.553"/>
<polygon fill="red" stroke="red" stroke-width="0.227381" points="181.519,-123.272 175.195,-114.771 174.837,-125.36 181.519,-123.272"/>
</g>
<!-- &#45;10&#45;&gt;2 -->
<g id="edge2" class="edge"><title>&#45;10&#45;&gt;2</title>
<path fill="none" stroke="red" stroke-width="1.14847" d="M200.72,-166.859C205.048,-161.959 210.974,-155.789 217,-151.196 238.594,-134.737 266.306,-120.378 285.445,-111.353"/>
<polygon fill="red" stroke="red" stroke-width="1.14847" points="286.978,-114.5 294.595,-107.136 284.048,-108.143 286.978,-114.5"/>
</g>
<!-- &#45;11 -->
<g id="node11" class="node"><title>&#45;11</title>
<polygon fill="lightgray" stroke="black" points="345.5,-184.945 316.5,-184.945 316.5,-166.945 345.5,-166.945 345.5,-184.945"/>
<text text-anchor="middle" x="331" y="-173.745" font-family="Times,serif" font-size="9.00">&#45;11</text>
</g>
<!-- &#45;11&#45;&gt;2 -->
<g id="edge27" class="edge"><title>&#45;11&#45;&gt;2</title>
<path fill="none" stroke="green" stroke-width="0.469466" d="M328.451,-166.787C325.288,-156.668 319.763,-138.987 315.252,-124.553"/>
<polygon fill="green" stroke="green" stroke-width="0.469466" points="318.519,-123.272 312.195,-114.771 311.837,-125.36 318.519,-123.272"/>
</g>
<!-- &#45;12 -->
<g id="node12" class="node"><title>&#45;12</title>
<polygon fill="lightgray" stroke="black" points="823.5,-184.945 794.5,-184.945 794.5,-166.945 823.5,-166.945 823.5,-184.945"/>
<text text-anchor="middle" x="809" y="-173.745" font-family="Times,serif" font-size="9.00">&#45;12</text>
</g>
<!-- &#45;12&#45;&gt;3 -->
<g id="edge22" class="edge"><title>&#45;12&#45;&gt;3</title>
<path fill="none" stroke="red" stroke-width="0.777147" d="M799.468,-166.787C785.637,-154.951 759.718,-132.77 741.921,-117.539"/>
<polygon fill="red" stroke="red" stroke-width="0.777147" points="743.798,-114.539 733.925,-110.696 739.247,-119.857 743.798,-114.539"/>
</g>
<!-- &#45;13 -->
<g id="node13" class="node"><title>&#45;13</title>
<polygon fill="lightgray" stroke="black" points="392.5,-184.945 363.5,-184.945 363.5,-166.945 392.5,-166.945 392.5,-184.945"/>
<text text-anchor="middle" x="378" y="-173.745" font-family="Times,serif" font-size="9.00">&#45;13</text>
</g>
<!-- &#45;13&#45;&gt;2 -->
<g id="edge12" class="edge"><title>&#45;13&#45;&gt;2</title>
<path fill="none" stroke="green" stroke-width="0.167413" d="M370.241,-166.787C359.329,-155.314 339.17,-134.119 324.75,-118.958"/>
<polygon fill="green" stroke="green" stroke-width="0.167413" points="327.239,-116.496 317.812,-111.663 322.167,-121.321 327.239,-116.496"/>
</g>
<!-- &#45;14 -->
<g id="node14" class="node"><title>&#45;14</title>
<polygon fill="lightgray" stroke="black" points="943.5,-254.693 914.5,-254.693 914.5,-236.693 943.5,-236.693 943.5,-254.693"/>
<text text-anchor="middle" x="929" y="-243.493" font-family="Times,serif" font-size="9.00">&#45;14</text>
</g>
<!-- &#45;15 -->
<g id="node15" class="node"><title>&#45;15</title>
<polygon fill="lightgray" stroke="black" points="439.5,-184.945 410.5,-184.945 410.5,-166.945 439.5,-166.945 439.5,-184.945"/>
<text text-anchor="middle" x="425" y="-173.745" font-family="Times,serif" font-size="9.00">&#45;15</text>
</g>
<!-- &#45;15&#45;&gt;2 -->
<g id="edge5" class="edge"><title>&#45;15&#45;&gt;2</title>
<path fill="none" stroke="green" stroke-width="0.243863" d="M417.943,-166.862C413.411,-161.963 407.224,-155.792 401,-151.196 378.663,-134.701 350.173,-120.263 330.648,-111.229"/>
<polygon fill="green" stroke="green" stroke-width="0.243863" points="331.888,-107.948 321.334,-107.015 329.002,-114.326 331.888,-107.948"/>
</g>
<!-- &#45;16 -->
<g id="node16" class="node"><title>&#45;16</title>
<polygon fill="lightgray" stroke="black" points="990.5,-254.693 961.5,-254.693 961.5,-236.693 990.5,-236.693 990.5,-254.693"/>
<text text-anchor="middle" x="976" y="-243.493" font-family="Times,serif" font-size="9.00">&#45;16</text>
</g>
<!-- &#45;17 -->
<g id="node17" class="node"><title>&#45;17</title>
<polygon fill="lightgray" stroke="black" points="576.5,-184.945 547.5,-184.945 547.5,-166.945 576.5,-166.945 576.5,-184.945"/>
<text text-anchor="middle" x="562" y="-173.745" font-family="Times,serif" font-size="9.00">&#45;17</text>
</g>
<!-- &#45;17&#45;&gt;1 -->
<g id="edge28" class="edge"><title>&#45;17&#45;&gt;1</title>
<path fill="none" stroke="green" stroke-width="0.255369" d="M564.549,-166.787C567.712,-156.668 573.237,-138.987 577.748,-124.553"/>
<polygon fill="green" stroke="green" stroke-width="0.255369" points="581.163,-125.36 580.805,-114.771 574.481,-123.272 581.163,-125.36"/>
</g>
<!-- &#45;18 -->
<g id="node18" class="node"><title>&#45;18</title>
<polygon fill="lightgray" stroke="black" points="71.5,-184.945 42.5,-184.945 42.5,-166.945 71.5,-166.945 71.5,-184.945"/>
<text text-anchor="middle" x="57" y="-173.745" font-family="Times,serif" font-size="9.00">&#45;18</text>
</g>
<!-- &#45;18&#45;&gt;0 -->
<g id="edge29" class="edge"><title>&#45;18&#45;&gt;0</title>
<path fill="none" stroke="red" stroke-width="0.154336" d="M63.72,-166.859C68.0477,-161.959 73.9744,-155.789 80,-151.196 101.594,-134.737 129.306,-120.378 148.445,-111.353"/>
<polygon fill="red" stroke="red" stroke-width="0.154336" points="149.978,-114.5 157.595,-107.136 147.048,-108.143 149.978,-114.5"/>
</g>
<!-- &#45;19 -->
<g id="node19" class="node"><title>&#45;19</title>
<polygon fill="lightgray" stroke="black" points="737.5,-184.945 708.5,-184.945 708.5,-166.945 737.5,-166.945 737.5,-184.945"/>
<text text-anchor="middle" x="723" y="-173.745" font-family="Times,serif" font-size="9.00">&#45;19</text>
</g>
<!-- &#45;19&#45;&gt;1 -->
<g id="edge16" class="edge"><title>&#45;19&#45;&gt;1</title>
<path fill="none" stroke="green" stroke-width="0.357011" d="M716.424,-166.661C712.151,-161.686 706.231,-155.506 700,-151.196 671.161,-131.245 633.059,-116.658 608.785,-108.588"/>
<polygon fill="green" stroke="green" stroke-width="0.357011" points="609.583,-105.169 598.991,-105.438 607.439,-111.832 609.583,-105.169"/>
</g>
<!-- &#45;19&#45;&gt;3 -->
<g id="edge4" class="edge"><title>&#45;19&#45;&gt;3</title>
<path fill="none" stroke="red" stroke-width="1.417" d="M723,-166.787C723,-156.886 723,-139.744 723,-125.488"/>
<polygon fill="red" stroke="red" stroke-width="1.417" points="726.5,-125.317 723,-115.317 719.5,-125.317 726.5,-125.317"/>
</g>
<!-- &#45;20 -->
<g id="node20" class="node"><title>&#45;20</title>
<polygon fill="lightgray" stroke="black" points="486.5,-184.945 457.5,-184.945 457.5,-166.945 486.5,-166.945 486.5,-184.945"/>
<text text-anchor="middle" x="472" y="-173.745" font-family="Times,serif" font-size="9.00">&#45;20</text>
</g>
<!-- &#45;20&#45;&gt;1 -->
<g id="edge20" class="edge"><title>&#45;20&#45;&gt;1</title>
<path fill="none" stroke="red" stroke-width="0.230504" d="M479.087,-166.903C483.631,-162.019 489.819,-155.85 496,-151.196 517.108,-135.304 543.839,-121.005 562.472,-111.84"/>
<polygon fill="red" stroke="red" stroke-width="0.230504" points="564.164,-114.91 571.653,-107.416 561.125,-108.603 564.164,-114.91"/>
</g>
<!-- &#45;20&#45;&gt;2 -->
<g id="edge1" class="edge"><title>&#45;20&#45;&gt;2</title>
<path fill="none" stroke="red" stroke-width="0.461844" d="M465.173,-166.525C460.727,-161.499 454.551,-155.313 448,-151.196 411.004,-127.944 361.684,-113.64 332.539,-106.621"/>
<polygon fill="red" stroke="red" stroke-width="0.461844" points="332.955,-103.125 322.424,-104.284 331.379,-109.946 332.955,-103.125"/>
</g>
<!-- &#45;21 -->
<g id="node21" class="node"><title>&#45;21</title>
<polygon fill="lightgray" stroke="black" points="255.5,-184.945 226.5,-184.945 226.5,-166.945 255.5,-166.945 255.5,-184.945"/>
<text text-anchor="middle" x="241" y="-173.745" font-family="Times,serif" font-size="9.00">&#45;21</text>
</g>
<!-- &#45;21&#45;&gt;0 -->
<g id="edge10" class="edge"><title>&#45;21&#45;&gt;0</title>
<path fill="none" stroke="red" stroke-width="0.890073" d="M233.241,-166.787C222.329,-155.314 202.17,-134.119 187.75,-118.958"/>
<polygon fill="red" stroke="red" stroke-width="0.890073" points="190.239,-116.496 180.812,-111.663 185.167,-121.321 190.239,-116.496"/>
</g>
<!-- &#45;21&#45;&gt;2 -->
<g id="edge25" class="edge"><title>&#45;21&#45;&gt;2</title>
<path fill="none" stroke="red" stroke-width="0.425213" d="M248.426,-166.787C258.66,-155.545 277.39,-134.971 291.126,-119.883"/>
<polygon fill="red" stroke="red" stroke-width="0.425213" points="294.013,-121.91 298.157,-112.159 288.837,-117.198 294.013,-121.91"/>
</g>
<!-- &#45;22 -->
<g id="node22" class="node"><title>&#45;22</title>
<polygon fill="lightgray" stroke="black" points="1037.5,-254.693 1008.5,-254.693 1008.5,-236.693 1037.5,-236.693 1037.5,-254.693"/>
<text text-anchor="middle" x="1023" y="-243.493" font-family="Times,serif" font-size="9.00">&#45;22</text>
</g>
<!-- &#45;23 -->
<g id="node23" class="node"><title>&#45;23</title>
<polygon fill="lightgray" stroke="black" points="623.5,-184.945 594.5,-184.945 594.5,-166.945 623.5,-166.945 623.5,-184.945"/>
<text text-anchor="middle" x="609" y="-173.745" font-family="Times,serif" font-size="9.00">&#45;23</text>
</g>
<!-- &#45;23&#45;&gt;1 -->
<g id="edge21" class="edge"><title>&#45;23&#45;&gt;1</title>
<path fill="none" stroke="green" stroke-width="0.214713" d="M606.34,-166.787C603.04,-156.668 597.274,-138.987 592.567,-124.553"/>
<polygon fill="green" stroke="green" stroke-width="0.214713" points="595.805,-123.193 589.378,-114.771 589.15,-125.363 595.805,-123.193"/>
</g>
<!-- &#45;24 -->
<g id="node24" class="node"><title>&#45;24</title>
<polygon fill="lightgray" stroke="black" points="118.5,-184.945 89.5,-184.945 89.5,-166.945 118.5,-166.945 118.5,-184.945"/>
<text text-anchor="middle" x="104" y="-173.745" font-family="Times,serif" font-size="9.00">&#45;24</text>
</g>
<!-- &#45;24&#45;&gt;0 -->
<g id="edge26" class="edge"><title>&#45;24&#45;&gt;0</title>
<path fill="none" stroke="green" stroke-width="0.641754" d="M111.426,-166.787C121.66,-155.545 140.39,-134.971 154.126,-119.883"/>
<polygon fill="green" stroke="green" stroke-width="0.641754" points="157.013,-121.91 161.157,-112.159 151.837,-117.198 157.013,-121.91"/>
</g>
<!-- 8553 -->
<g id="node29" class="node"><title>8553</title>
<ellipse fill="white" stroke="black" cx="585" cy="-24.7487" rx="25" ry="25"/>
<text text-anchor="middle" x="585" y="-22.5487" font-family="Times,serif" font-size="9.00">8553</text>
</g>
<!-- 1&#45;&gt;8553 -->
<g id="edge11" class="edge"><title>1&#45;&gt;8553</title>
<path fill="none" stroke="green" stroke-width="0.249849" d="M579.684,-86.1889C578.598,-78.5979 578.128,-68.6795 578.277,-59.0788"/>
<polygon fill="green" stroke="green" stroke-width="0.249849" points="581.781,-59.0418 578.68,-48.9109 574.786,-58.7643 581.781,-59.0418"/>
</g>
<!-- 8553&#45;&gt;1 -->
<g id="edge19" class="edge"><title>8553&#45;&gt;1</title>
<path fill="none" stroke="red" stroke-width="0.237062" d="M591.32,-48.9109C591.89,-57.5516 591.893,-67.3607 591.331,-76.0165"/>
<polygon fill="red" stroke="red" stroke-width="0.237062" points="587.826,-75.8907 590.316,-86.1889 594.792,-76.5859 587.826,-75.8907"/>
</g>
<!-- 8149&#45;&gt;1 -->
<g id="edge24" class="edge"><title>8149&#45;&gt;1</title>
<path fill="none" stroke="green" stroke-width="0.424206" d="M648.023,-158.611C634.746,-146.547 616.733,-130.18 603.365,-118.033"/>
<polygon fill="green" stroke="green" stroke-width="0.424206" points="605.48,-115.226 595.725,-111.091 600.772,-120.407 605.48,-115.226"/>
</g>
</g>
</svg>
