<?xml version="1.0" encoding="UTF-8" standalone="no"?>
<!DOCTYPE svg PUBLIC "-//W3C//DTD SVG 1.1//EN"
 "http://www.w3.org/Graphics/SVG/1.1/DTD/svg11.dtd">
<!-- Generated by graphviz version 2.38.0 (20140413.2041)
 -->
<!-- Title: %3 Pages: 1 -->
<svg width="1006pt" height="177pt"
 viewBox="0.00 0.00 1006.00 177.20" xmlns="http://www.w3.org/2000/svg" xmlns:xlink="http://www.w3.org/1999/xlink">
<g id="graph0" class="graph" transform="scale(1 1) rotate(0) translate(4 173.196)">
<title>%3</title>
<polygon fill="white" stroke="none" points="-4,4 -4,-173.196 1002,-173.196 1002,4 -4,4"/>
<!-- &#45;1 -->
<g id="node1" class="node"><title>&#45;1</title>
<polygon fill="lightgray" stroke="black" points="165.5,-99.4472 141.5,-99.4472 141.5,-81.4472 165.5,-81.4472 165.5,-99.4472"/>
<text text-anchor="middle" x="153.5" y="-88.2472" font-family="Times,serif" font-size="9.00">&#45;1</text>
</g>
<!-- 0 -->
<g id="node25" class="node"><title>0</title>
<ellipse fill="lightblue" stroke="black" cx="314.5" cy="-14.8492" rx="14.7" ry="14.7"/>
<text text-anchor="middle" x="314.5" y="-12.6492" font-family="Times,serif" font-size="9.00">0</text>
</g>
<!-- &#45;1&#45;&gt;0 -->
<g id="edge8" class="edge"><title>&#45;1&#45;&gt;0</title>
<path fill="none" stroke="green" stroke-width="1.825" d="M159.272,-80.9929C163.086,-75.9539 168.481,-69.767 174.5,-65.6985 210.861,-41.1199 260.716,-27.195 290.076,-20.6178"/>
<polygon fill="green" stroke="green" stroke-width="1.825" points="290.853,-24.0308 299.903,-18.521 289.392,-17.185 290.853,-24.0308"/>
</g>
<!-- 2 -->
<g id="node27" class="node"><title>2</title>
<ellipse fill="lightblue" stroke="black" cx="175.5" cy="-14.8492" rx="14.7" ry="14.7"/>
<text text-anchor="middle" x="175.5" y="-12.6492" font-family="Times,serif" font-size="9.00">2</text>
</g>
<!-- &#45;1&#45;&gt;2 -->
<g id="edge17" class="edge"><title>&#45;1&#45;&gt;2</title>
<path fill="none" stroke="green" stroke-width="0.171494" d="M155.938,-81.2897C158.963,-71.1707 164.248,-53.4899 168.563,-39.0555"/>
<polygon fill="green" stroke="green" stroke-width="0.171494" points="171.977,-39.8569 171.487,-29.2734 165.27,-37.852 171.977,-39.8569"/>
</g>
<!-- &#45;2 -->
<g id="node2" class="node"><title>&#45;2</title>
<polygon fill="lightgray" stroke="black" points="528.5,-99.4472 504.5,-99.4472 504.5,-81.4472 528.5,-81.4472 528.5,-99.4472"/>
<text text-anchor="middle" x="516.5" y="-88.2472" font-family="Times,serif" font-size="9.00">&#45;2</text>
</g>
<!-- &#45;2&#45;&gt;0 -->
<g id="edge3" class="edge"><title>&#45;2&#45;&gt;0</title>
<path fill="none" stroke="green" stroke-width="0.116698" d="M510.834,-81.3048C506.83,-76.1275 501.029,-69.6734 494.5,-65.6985 444.802,-35.4406 376.339,-23.109 339.834,-18.4393"/>
<polygon fill="green" stroke="green" stroke-width="0.116698" points="339.929,-14.9262 329.587,-17.2247 339.105,-21.8775 339.929,-14.9262"/>
</g>
<!-- 3 -->
<g id="node28" class="node"><title>3</title>
<ellipse fill="lightblue" stroke="black" cx="556.5" cy="-14.8492" rx="14.7" ry="14.7"/>
<text text-anchor="middle" x="556.5" y="-12.6492" font-family="Times,serif" font-size="9.00">3</text>
</g>
<!-- &#45;2&#45;&gt;3 -->
<g id="edge22" class="edge"><title>&#45;2&#45;&gt;3</title>
<path fill="none" stroke="red" stroke-width="2.0901" d="M520.934,-81.2897C526.673,-70.7286 536.89,-51.9305 544.905,-37.1831"/>
<polygon fill="red" stroke="red" stroke-width="2.0901" points="548.085,-38.6617 549.785,-28.2042 541.935,-35.319 548.085,-38.6617"/>
</g>
<!-- &#45;3 -->
<g id="node3" class="node"><title>&#45;3</title>
<polygon fill="lightgray" stroke="black" points="730.5,-169.196 706.5,-169.196 706.5,-151.196 730.5,-151.196 730.5,-169.196"/>
<text text-anchor="middle" x="718.5" y="-157.996" font-family="Times,serif" font-size="9.00">&#45;3</text>
</g>
<!-- &#45;4 -->
<g id="node4" class="node"><title>&#45;4</title>
<polygon fill="lightgray" stroke="black" points="391.5,-99.4472 367.5,-99.4472 367.5,-81.4472 391.5,-81.4472 391.5,-99.4472"/>
<text text-anchor="middle" x="379.5" y="-88.2472" font-family="Times,serif" font-size="9.00">&#45;4</text>
</g>
<!-- &#45;4&#45;&gt;0 -->
<g id="edge18" class="edge"><title>&#45;4&#45;&gt;0</title>
<path fill="none" stroke="green" stroke-width="0.458019" d="M372.296,-81.2897C362.367,-70.0479 344.196,-49.4731 330.871,-34.3854"/>
<polygon fill="green" stroke="green" stroke-width="0.458019" points="333.293,-31.8404 324.05,-26.6619 328.046,-36.4742 333.293,-31.8404"/>
</g>
<!-- &#45;4&#45;&gt;2 -->
<g id="edge6" class="edge"><title>&#45;4&#45;&gt;2</title>
<path fill="none" stroke="red" stroke-width="0.311068" d="M374.173,-81.2902C370.386,-76.1068 364.856,-69.6513 358.5,-65.6985 308.071,-34.3383 237.875,-22.4237 200.789,-18.1203"/>
<polygon fill="red" stroke="red" stroke-width="0.311068" points="200.715,-14.5928 190.401,-17.0161 199.975,-21.5536 200.715,-14.5928"/>
</g>
<!-- &#45;4&#45;&gt;3 -->
<g id="edge9" class="edge"><title>&#45;4&#45;&gt;3</title>
<path fill="none" stroke="green" stroke-width="1.29657" d="M384.884,-81.3804C388.696,-76.235 394.231,-69.7881 400.5,-65.6985 442.006,-38.6223 499.308,-25.3078 531.656,-19.5671"/>
<polygon fill="green" stroke="green" stroke-width="1.29657" points="532.326,-23.0038 541.611,-17.9016 531.17,-16.0998 532.326,-23.0038"/>
</g>
<!-- &#45;5 -->
<g id="node5" class="node"><title>&#45;5</title>
<polygon fill="lightgray" stroke="black" points="349.5,-99.4472 325.5,-99.4472 325.5,-81.4472 349.5,-81.4472 349.5,-99.4472"/>
<text text-anchor="middle" x="337.5" y="-88.2472" font-family="Times,serif" font-size="9.00">&#45;5</text>
</g>
<!-- &#45;5&#45;&gt;0 -->
<g id="edge15" class="edge"><title>&#45;5&#45;&gt;0</title>
<path fill="none" stroke="red" stroke-width="1.12629" d="M334.951,-81.2897C331.788,-71.1707 326.263,-53.4899 321.752,-39.0555"/>
<polygon fill="red" stroke="red" stroke-width="1.12629" points="325.019,-37.7741 318.695,-29.2734 318.337,-39.8621 325.019,-37.7741"/>
</g>
<!-- &#45;6 -->
<g id="node6" class="node"><title>&#45;6</title>
<polygon fill="lightgray" stroke="black" points="772.5,-169.196 748.5,-169.196 748.5,-151.196 772.5,-151.196 772.5,-169.196"/>
<text text-anchor="middle" x="760.5" y="-157.996" font-family="Times,serif" font-size="9.00">&#45;6</text>
</g>
<!-- &#45;7 -->
<g id="node7" class="node"><title>&#45;7</title>
<polygon fill="lightgray" stroke="black" points="688.5,-169.196 664.5,-169.196 664.5,-151.196 688.5,-151.196 688.5,-169.196"/>
<text text-anchor="middle" x="676.5" y="-157.996" font-family="Times,serif" font-size="9.00">&#45;7</text>
</g>
<!-- &#45;7&#45;&gt;3 -->
<g id="edge12" class="edge"><title>&#45;7&#45;&gt;3</title>
<path fill="none" stroke="green" stroke-width="0.306613" d="M664.347,-157.59C642.836,-154.068 598.193,-143.579 575.5,-115.196 558.427,-93.8417 555.093,-61.7149 555.102,-39.8176"/>
<polygon fill="green" stroke="green" stroke-width="0.306613" points="558.603,-39.7766 555.342,-29.6963 551.605,-39.6103 558.603,-39.7766"/>
</g>
<!-- 8149 -->
<g id="node29" class="node"><title>8149</title>
<ellipse fill="white" stroke="black" cx="797.5" cy="-90.4472" rx="25" ry="25"/>
<text text-anchor="middle" x="797.5" y="-88.2472" font-family="Times,serif" font-size="9.00">8149</text>
</g>
<!-- &#45;7&#45;&gt;8149 -->
<g id="edge28" class="edge"><title>&#45;7&#45;&gt;8149</title>
<path fill="none" stroke="red" stroke-width="0.519838" d="M688.607,-153.738C705.682,-145.891 737.643,-130.659 763.5,-115.196 765.458,-114.025 767.452,-112.78 769.444,-111.497"/>
<polygon fill="red" stroke="red" stroke-width="0.519838" points="771.674,-114.216 778.036,-105.745 767.78,-108.4 771.674,-114.216"/>
</g>
<!-- &#45;8 -->
<g id="node8" class="node"><title>&#45;8</title>
<polygon fill="lightgray" stroke="black" points="814.5,-169.196 790.5,-169.196 790.5,-151.196 814.5,-151.196 814.5,-169.196"/>
<text text-anchor="middle" x="802.5" y="-157.996" font-family="Times,serif" font-size="9.00">&#45;8</text>
</g>
<!-- &#45;9 -->
<g id="node9" class="node"><title>&#45;9</title>
<polygon fill="lightgray" stroke="black" points="856.5,-169.196 832.5,-169.196 832.5,-151.196 856.5,-151.196 856.5,-169.196"/>
<text text-anchor="middle" x="844.5" y="-157.996" font-family="Times,serif" font-size="9.00">&#45;9</text>
</g>
<!-- &#45;10 -->
<g id="node10" class="node"><title>&#45;10</title>
<polygon fill="lightgray" stroke="black" points="213,-99.4472 184,-99.4472 184,-81.4472 213,-81.4472 213,-99.4472"/>
<text text-anchor="middle" x="198.5" y="-88.2472" font-family="Times,serif" font-size="9.00">&#45;10</text>
</g>
<!-- &#45;10&#45;&gt;0 -->
<g id="edge27" class="edge"><title>&#45;10&#45;&gt;0</title>
<path fill="none" stroke="green" stroke-width="0.187384" d="M205.205,-81.3426C209.528,-76.4352 215.454,-70.2638 221.5,-65.6985 243.66,-48.9663 272.183,-34.5721 291.764,-25.6132"/>
<polygon fill="green" stroke="green" stroke-width="0.187384" points="293.404,-28.7139 301.108,-21.4402 290.55,-22.3224 293.404,-28.7139"/>
</g>
<!-- &#45;10&#45;&gt;2 -->
<g id="edge2" class="edge"><title>&#45;10&#45;&gt;2</title>
<path fill="none" stroke="red" stroke-width="1.3182" d="M195.951,-81.2897C192.788,-71.1707 187.263,-53.4899 182.752,-39.0555"/>
<polygon fill="red" stroke="red" stroke-width="1.3182" points="186.019,-37.7741 179.695,-29.2734 179.337,-39.8621 186.019,-37.7741"/>
</g>
<!-- &#45;11 -->
<g id="node11" class="node"><title>&#45;11</title>
<polygon fill="lightgray" stroke="black" points="29,-99.4472 0,-99.4472 0,-81.4472 29,-81.4472 29,-99.4472"/>
<text text-anchor="middle" x="14.5" y="-88.2472" font-family="Times,serif" font-size="9.00">&#45;11</text>
</g>
<!-- &#45;11&#45;&gt;2 -->
<g id="edge26" class="edge"><title>&#45;11&#45;&gt;2</title>
<path fill="none" stroke="red" stroke-width="0.389788" d="M20.9831,-81.025C25.2218,-75.9981 31.1379,-69.8126 37.5,-65.6985 73.5382,-42.3938 121.911,-28.1731 150.775,-21.1732"/>
<polygon fill="red" stroke="red" stroke-width="0.389788" points="151.868,-24.5127 160.816,-18.8402 150.284,-17.6944 151.868,-24.5127"/>
</g>
<!-- &#45;12 -->
<g id="node12" class="node"><title>&#45;12</title>
<polygon fill="lightgray" stroke="black" points="614,-99.4472 585,-99.4472 585,-81.4472 614,-81.4472 614,-99.4472"/>
<text text-anchor="middle" x="599.5" y="-88.2472" font-family="Times,serif" font-size="9.00">&#45;12</text>
</g>
<!-- &#45;12&#45;&gt;3 -->
<g id="edge21" class="edge"><title>&#45;12&#45;&gt;3</title>
<path fill="none" stroke="red" stroke-width="1.26518" d="M594.734,-81.2897C588.528,-70.6672 577.453,-51.7116 568.814,-36.9263"/>
<polygon fill="red" stroke="red" stroke-width="1.26518" points="571.632,-34.8106 563.565,-27.9419 565.588,-38.3419 571.632,-34.8106"/>
</g>
<!-- &#45;13 -->
<g id="node13" class="node"><title>&#45;13</title>
<polygon fill="lightgray" stroke="black" points="76,-99.4472 47,-99.4472 47,-81.4472 76,-81.4472 76,-99.4472"/>
<text text-anchor="middle" x="61.5" y="-88.2472" font-family="Times,serif" font-size="9.00">&#45;13</text>
</g>
<!-- &#45;13&#45;&gt;2 -->
<g id="edge11" class="edge"><title>&#45;13&#45;&gt;2</title>
<path fill="none" stroke="red" stroke-width="0.511298" d="M68.22,-81.362C72.5477,-76.4619 78.4744,-70.2913 84.5,-65.6985 106.094,-49.2391 133.806,-34.8809 152.945,-25.8554"/>
<polygon fill="red" stroke="red" stroke-width="0.511298" points="154.478,-29.003 162.095,-21.6389 151.548,-22.6455 154.478,-29.003"/>
</g>
<!-- &#45;14 -->
<g id="node14" class="node"><title>&#45;14</title>
<polygon fill="lightgray" stroke="black" points="904,-169.196 875,-169.196 875,-151.196 904,-151.196 904,-169.196"/>
<text text-anchor="middle" x="889.5" y="-157.996" font-family="Times,serif" font-size="9.00">&#45;14</text>
</g>
<!-- &#45;15 -->
<g id="node15" class="node"><title>&#45;15</title>
<polygon fill="lightgray" stroke="black" points="123,-99.4472 94,-99.4472 94,-81.4472 123,-81.4472 123,-99.4472"/>
<text text-anchor="middle" x="108.5" y="-88.2472" font-family="Times,serif" font-size="9.00">&#45;15</text>
</g>
<!-- &#45;15&#45;&gt;2 -->
<g id="edge5" class="edge"><title>&#45;15&#45;&gt;2</title>
<path fill="none" stroke="green" stroke-width="0.376566" d="M115.926,-81.2897C126.16,-70.0479 144.89,-49.4731 158.626,-34.3854"/>
<polygon fill="green" stroke="green" stroke-width="0.376566" points="161.513,-36.4129 165.657,-26.6619 156.337,-31.7006 161.513,-36.4129"/>
</g>
<!-- &#45;16 -->
<g id="node16" class="node"><title>&#45;16</title>
<polygon fill="lightgray" stroke="black" points="951,-169.196 922,-169.196 922,-151.196 951,-151.196 951,-169.196"/>
<text text-anchor="middle" x="936.5" y="-157.996" font-family="Times,serif" font-size="9.00">&#45;16</text>
</g>
<!-- &#45;17 -->
<g id="node17" class="node"><title>&#45;17</title>
<polygon fill="lightgray" stroke="black" points="708,-99.4472 679,-99.4472 679,-81.4472 708,-81.4472 708,-99.4472"/>
<text text-anchor="middle" x="693.5" y="-88.2472" font-family="Times,serif" font-size="9.00">&#45;17</text>
</g>
<!-- 1 -->
<g id="node26" class="node"><title>1</title>
<ellipse fill="lightblue" stroke="black" cx="693.5" cy="-14.8492" rx="14.7" ry="14.7"/>
<text text-anchor="middle" x="693.5" y="-12.6492" font-family="Times,serif" font-size="9.00">1</text>
</g>
<!-- &#45;17&#45;&gt;1 -->
<g id="edge7" class="edge"><title>&#45;17&#45;&gt;1</title>
<path fill="none" stroke="green" stroke-width="0.235609" d="M693.5,-81.2897C693.5,-71.3882 693.5,-54.2466 693.5,-39.9908"/>
<polygon fill="green" stroke="green" stroke-width="0.235609" points="697,-39.8196 693.5,-29.8196 690,-39.8196 697,-39.8196"/>
</g>
<!-- &#45;18 -->
<g id="node18" class="node"><title>&#45;18</title>
<polygon fill="lightgray" stroke="black" points="307,-99.4472 278,-99.4472 278,-81.4472 307,-81.4472 307,-99.4472"/>
<text text-anchor="middle" x="292.5" y="-88.2472" font-family="Times,serif" font-size="9.00">&#45;18</text>
</g>
<!-- &#45;18&#45;&gt;0 -->
<g id="edge14" class="edge"><title>&#45;18&#45;&gt;0</title>
<path fill="none" stroke="red" stroke-width="0.383342" d="M294.938,-81.2897C297.963,-71.1707 303.248,-53.4899 307.563,-39.0555"/>
<polygon fill="red" stroke="red" stroke-width="0.383342" points="310.977,-39.8569 310.487,-29.2734 304.27,-37.852 310.977,-39.8569"/>
</g>
<!-- &#45;19 -->
<g id="node19" class="node"><title>&#45;19</title>
<polygon fill="lightgray" stroke="black" points="661,-99.4472 632,-99.4472 632,-81.4472 661,-81.4472 661,-99.4472"/>
<text text-anchor="middle" x="646.5" y="-88.2472" font-family="Times,serif" font-size="9.00">&#45;19</text>
</g>
<!-- &#45;19&#45;&gt;1 -->
<g id="edge16" class="edge"><title>&#45;19&#45;&gt;1</title>
<path fill="none" stroke="green" stroke-width="0.336505" d="M651.709,-81.2897C658.597,-70.504 670.971,-51.1274 680.473,-36.248"/>
<polygon fill="green" stroke="green" stroke-width="0.336505" points="683.511,-37.9935 685.944,-27.6817 677.612,-34.226 683.511,-37.9935"/>
</g>
<!-- &#45;19&#45;&gt;3 -->
<g id="edge4" class="edge"><title>&#45;19&#45;&gt;3</title>
<path fill="none" stroke="red" stroke-width="1.26636" d="M638.755,-81.2559C634.173,-76.5464 628.173,-70.6092 622.5,-65.6985 607.857,-53.0228 590.323,-39.8667 577.01,-30.2548"/>
<polygon fill="red" stroke="red" stroke-width="1.26636" points="578.726,-27.1796 568.554,-24.2161 574.658,-32.8761 578.726,-27.1796"/>
</g>
<!-- &#45;20 -->
<g id="node20" class="node"><title>&#45;20</title>
<polygon fill="lightgray" stroke="black" points="486,-99.4472 457,-99.4472 457,-81.4472 486,-81.4472 486,-99.4472"/>
<text text-anchor="middle" x="471.5" y="-88.2472" font-family="Times,serif" font-size="9.00">&#45;20</text>
</g>
<!-- &#45;20&#45;&gt;1 -->
<g id="edge19" class="edge"><title>&#45;20&#45;&gt;1</title>
<path fill="none" stroke="green" stroke-width="0.133226" d="M477.799,-81.2655C482.216,-76.0716 488.556,-69.6138 495.5,-65.6985 552.231,-33.7127 629.516,-21.9624 668.632,-17.8772"/>
<polygon fill="green" stroke="green" stroke-width="0.133226" points="668.985,-21.3595 678.604,-16.9178 668.314,-14.3917 668.985,-21.3595"/>
</g>
<!-- &#45;20&#45;&gt;2 -->
<g id="edge1" class="edge"><title>&#45;20&#45;&gt;2</title>
<path fill="none" stroke="red" stroke-width="0.501255" d="M465.283,-81.1145C460.9,-75.8569 454.569,-69.3847 447.5,-65.6985 404.41,-43.2272 259.362,-25.1216 200.568,-18.5304"/>
<polygon fill="red" stroke="red" stroke-width="0.501255" points="200.648,-15.0182 190.325,-17.4014 199.881,-21.976 200.648,-15.0182"/>
</g>
<!-- &#45;21 -->
<g id="node21" class="node"><title>&#45;21</title>
<polygon fill="lightgray" stroke="black" points="260,-99.4472 231,-99.4472 231,-81.4472 260,-81.4472 260,-99.4472"/>
<text text-anchor="middle" x="245.5" y="-88.2472" font-family="Times,serif" font-size="9.00">&#45;21</text>
</g>
<!-- &#45;21&#45;&gt;0 -->
<g id="edge10" class="edge"><title>&#45;21&#45;&gt;0</title>
<path fill="none" stroke="red" stroke-width="0.638684" d="M253.148,-81.2897C263.806,-69.9216 283.411,-49.0096 297.597,-33.8789"/>
<polygon fill="red" stroke="red" stroke-width="0.638684" points="300.542,-35.8542 304.829,-26.1651 295.436,-31.0665 300.542,-35.8542"/>
</g>
<!-- &#45;21&#45;&gt;2 -->
<g id="edge24" class="edge"><title>&#45;21&#45;&gt;2</title>
<path fill="none" stroke="green" stroke-width="0.306782" d="M237.741,-81.2897C226.829,-69.8163 206.67,-48.6215 192.25,-33.4601"/>
<polygon fill="green" stroke="green" stroke-width="0.306782" points="194.739,-30.9989 185.312,-26.1651 189.667,-35.8232 194.739,-30.9989"/>
</g>
<!-- &#45;22 -->
<g id="node22" class="node"><title>&#45;22</title>
<polygon fill="lightgray" stroke="black" points="998,-169.196 969,-169.196 969,-151.196 998,-151.196 998,-169.196"/>
<text text-anchor="middle" x="983.5" y="-157.996" font-family="Times,serif" font-size="9.00">&#45;22</text>
</g>
<!-- &#45;23 -->
<g id="node23" class="node"><title>&#45;23</title>
<polygon fill="lightgray" stroke="black" points="755,-99.4472 726,-99.4472 726,-81.4472 755,-81.4472 755,-99.4472"/>
<text text-anchor="middle" x="740.5" y="-88.2472" font-family="Times,serif" font-size="9.00">&#45;23</text>
</g>
<!-- &#45;23&#45;&gt;1 -->
<g id="edge20" class="edge"><title>&#45;23&#45;&gt;1</title>
<path fill="none" stroke="green" stroke-width="0.364284" d="M735.291,-81.2897C728.403,-70.504 716.029,-51.1274 706.527,-36.248"/>
<polygon fill="green" stroke="green" stroke-width="0.364284" points="709.388,-34.226 701.056,-27.6817 703.489,-37.9935 709.388,-34.226"/>
</g>
<!-- &#45;24 -->
<g id="node24" class="node"><title>&#45;24</title>
<polygon fill="lightgray" stroke="black" points="439,-99.4472 410,-99.4472 410,-81.4472 439,-81.4472 439,-99.4472"/>
<text text-anchor="middle" x="424.5" y="-88.2472" font-family="Times,serif" font-size="9.00">&#45;24</text>
</g>
<!-- &#45;24&#45;&gt;0 -->
<g id="edge25" class="edge"><title>&#45;24&#45;&gt;0</title>
<path fill="none" stroke="green" stroke-width="0.488904" d="M417.389,-81.437C412.836,-76.5651 406.647,-70.3979 400.5,-65.6985 380.257,-50.2221 354.755,-36.015 336.795,-26.7616"/>
<polygon fill="green" stroke="green" stroke-width="0.488904" points="338.179,-23.5393 327.675,-22.1539 335.022,-29.7872 338.179,-23.5393"/>
</g>
<!-- 1&#45;&gt;1 -->
<g id="edge13" class="edge"><title>1&#45;&gt;1</title>
<path fill="none" stroke="red" stroke-width="0.161439" d="M703.928,-25.6755C714.539,-32.0439 726.349,-28.4352 726.349,-14.8492 726.349,-5.50891 720.767,-0.884351 713.83,-0.975566"/>
<polygon fill="red" stroke="red" stroke-width="0.161439" points="712.456,2.26363 703.928,-4.02295 714.515,-4.42672 712.456,2.26363"/>
</g>
<!-- 8149&#45;&gt;1 -->
<g id="edge23" class="edge"><title>8149&#45;&gt;1</title>
<path fill="none" stroke="green" stroke-width="0.186527" d="M777.448,-75.2568C759.085,-62.2621 732.045,-43.1264 713.651,-30.1097"/>
<polygon fill="green" stroke="green" stroke-width="0.186527" points="715.577,-27.1846 705.392,-24.265 711.533,-32.8986 715.577,-27.1846"/>
</g>
</g>
</svg>
