<?xml version="1.0" encoding="UTF-8" standalone="no"?>
<!DOCTYPE svg PUBLIC "-//W3C//DTD SVG 1.1//EN"
 "http://www.w3.org/Graphics/SVG/1.1/DTD/svg11.dtd">
<!-- Generated by graphviz version 2.38.0 (20140413.2041)
 -->
<!-- Title: %3 Pages: 1 -->
<svg width="1334pt" height="249pt"
 viewBox="0.00 0.00 1333.50 248.55" xmlns="http://www.w3.org/2000/svg" xmlns:xlink="http://www.w3.org/1999/xlink">
<g id="graph0" class="graph" transform="scale(1 1) rotate(0) translate(4 244.551)">
<title>%3</title>
<polygon fill="white" stroke="none" points="-4,4 -4,-244.551 1329.5,-244.551 1329.5,4 -4,4"/>
<!-- &#45;1 -->
<g id="node1" class="node"><title>&#45;1</title>
<polygon fill="lightgray" stroke="black" points="596,-240.551 572,-240.551 572,-222.551 596,-222.551 596,-240.551"/>
<text text-anchor="middle" x="584" y="-229.351" font-family="Times,serif" font-size="9.00">&#45;1</text>
</g>
<!-- 1 -->
<g id="node26" class="node"><title>1</title>
<ellipse fill="lightblue" stroke="black" cx="696" cy="-165.338" rx="14.7" ry="14.7"/>
<text text-anchor="middle" x="696" y="-163.138" font-family="Times,serif" font-size="9.00">1</text>
</g>
<!-- &#45;1&#45;&gt;1 -->
<g id="edge16" class="edge"><title>&#45;1&#45;&gt;1</title>
<path fill="none" stroke="red" stroke-width="0.165215" d="M596.073,-224.728C612.457,-216.696 642.5,-201.508 667,-186.551 669.933,-184.761 672.971,-182.786 675.927,-180.794"/>
<polygon fill="red" stroke="red" stroke-width="0.165215" points="678.15,-183.511 684.364,-174.93 674.155,-177.763 678.15,-183.511"/>
</g>
<!-- 3 -->
<g id="node28" class="node"><title>3</title>
<ellipse fill="lightblue" stroke="black" cx="440" cy="-14.8492" rx="14.7" ry="14.7"/>
<text text-anchor="middle" x="440" y="-12.6492" font-family="Times,serif" font-size="9.00">3</text>
</g>
<!-- &#45;1&#45;&gt;3 -->
<g id="edge48" class="edge"><title>&#45;1&#45;&gt;3</title>
<path fill="none" stroke="red" stroke-width="0.213633" d="M571.912,-228.059C536.529,-220.647 435.085,-198.512 426,-186.551 392.769,-142.802 414.798,-73.2858 429.631,-37.9848"/>
<polygon fill="red" stroke="red" stroke-width="0.213633" points="432.941,-39.1523 433.753,-28.5887 426.531,-36.3399 432.941,-39.1523"/>
</g>
<!-- &#45;2 -->
<g id="node2" class="node"><title>&#45;2</title>
<polygon fill="lightgray" stroke="black" points="338,-240.551 314,-240.551 314,-222.551 338,-222.551 338,-240.551"/>
<text text-anchor="middle" x="326" y="-229.351" font-family="Times,serif" font-size="9.00">&#45;2</text>
</g>
<!-- 0 -->
<g id="node25" class="node"><title>0</title>
<ellipse fill="lightblue" stroke="black" cx="231" cy="-86.9117" rx="14.7" ry="14.7"/>
<text text-anchor="middle" x="231" y="-84.7117" font-family="Times,serif" font-size="9.00">0</text>
</g>
<!-- &#45;2&#45;&gt;0 -->
<g id="edge15" class="edge"><title>&#45;2&#45;&gt;0</title>
<path fill="none" stroke="red" stroke-width="0.1837" d="M313.878,-222.734C302.349,-214.788 285.156,-201.541 274,-186.551 256.73,-163.347 244.62,-132.126 237.746,-111.076"/>
<polygon fill="red" stroke="red" stroke-width="0.1837" points="241.035,-109.866 234.711,-101.365 234.354,-111.954 241.035,-109.866"/>
</g>
<!-- &#45;2&#45;&gt;1 -->
<g id="edge6" class="edge"><title>&#45;2&#45;&gt;1</title>
<path fill="none" stroke="red" stroke-width="0.821956" d="M338.13,-229.552C379.677,-225.972 519.929,-212.598 633,-186.551 646.333,-183.48 660.897,-178.891 672.66,-174.861"/>
<polygon fill="red" stroke="red" stroke-width="0.821956" points="673.902,-178.135 682.175,-171.516 671.581,-171.531 673.902,-178.135"/>
</g>
<!-- &#45;2&#45;&gt;3 -->
<g id="edge55" class="edge"><title>&#45;2&#45;&gt;3</title>
<path fill="none" stroke="green" stroke-width="0.213558" d="M326.191,-222.541C327.161,-197.207 333.069,-117.448 369,-65.6985 381.164,-48.1793 401.596,-34.7888 417.427,-26.3199"/>
<polygon fill="green" stroke="green" stroke-width="0.213558" points="419.232,-29.3288 426.574,-21.6899 416.071,-23.0833 419.232,-29.3288"/>
</g>
<!-- &#45;3 -->
<g id="node3" class="node"><title>&#45;3</title>
<polygon fill="lightgray" stroke="black" points="697,-240.551 673,-240.551 673,-222.551 697,-222.551 697,-240.551"/>
<text text-anchor="middle" x="685" y="-229.351" font-family="Times,serif" font-size="9.00">&#45;3</text>
</g>
<!-- &#45;3&#45;&gt;1 -->
<g id="edge41" class="edge"><title>&#45;3&#45;&gt;1</title>
<path fill="none" stroke="green" stroke-width="0.187141" d="M686.393,-222.419C687.792,-214.254 690.014,-201.283 691.969,-189.872"/>
<polygon fill="green" stroke="green" stroke-width="0.187141" points="695.419,-190.46 693.658,-180.013 688.519,-189.278 695.419,-190.46"/>
</g>
<!-- &#45;4 -->
<g id="node4" class="node"><title>&#45;4</title>
<polygon fill="lightgray" stroke="black" points="945,-174.338 921,-174.338 921,-156.338 945,-156.338 945,-174.338"/>
<text text-anchor="middle" x="933" y="-163.138" font-family="Times,serif" font-size="9.00">&#45;4</text>
</g>
<!-- 209 -->
<g id="node29" class="node"><title>209</title>
<ellipse fill="white" stroke="black" cx="857" cy="-86.9117" rx="21.4286" ry="21.4286"/>
<text text-anchor="middle" x="857" y="-84.7117" font-family="Times,serif" font-size="9.00">209</text>
</g>
<!-- &#45;4&#45;&gt;209 -->
<g id="edge2" class="edge"><title>&#45;4&#45;&gt;209</title>
<path fill="none" stroke="green" stroke-width="0.212394" d="M924.867,-156.159C913.941,-145.172 894.118,-125.238 878.706,-109.739"/>
<polygon fill="green" stroke="green" stroke-width="0.212394" points="881.085,-107.169 871.552,-102.546 876.122,-112.105 881.085,-107.169"/>
</g>
<!-- &#45;5 -->
<g id="node5" class="node"><title>&#45;5</title>
<polygon fill="lightgray" stroke="black" points="532,-240.551 508,-240.551 508,-222.551 532,-222.551 532,-240.551"/>
<text text-anchor="middle" x="520" y="-229.351" font-family="Times,serif" font-size="9.00">&#45;5</text>
</g>
<!-- &#45;5&#45;&gt;0 -->
<g id="edge32" class="edge"><title>&#45;5&#45;&gt;0</title>
<path fill="none" stroke="red" stroke-width="0.578288" d="M507.818,-229.247C478.977,-225.775 404.83,-214.589 350,-186.551 308.932,-165.551 269.364,-128.281 247.797,-106.058"/>
<polygon fill="red" stroke="red" stroke-width="0.578288" points="250.129,-103.432 240.696,-98.6089 245.062,-108.262 250.129,-103.432"/>
</g>
<!-- &#45;5&#45;&gt;1 -->
<g id="edge17" class="edge"><title>&#45;5&#45;&gt;1</title>
<path fill="none" stroke="green" stroke-width="0.421362" d="M532.294,-228.253C558.166,-223.124 619.739,-209.368 667,-186.551 670.249,-184.983 673.534,-183.069 676.669,-181.051"/>
<polygon fill="green" stroke="green" stroke-width="0.421362" points="678.739,-183.875 684.946,-175.289 674.739,-178.13 678.739,-183.875"/>
</g>
<!-- 2 -->
<g id="node27" class="node"><title>2</title>
<ellipse fill="lightblue" stroke="black" cx="1064" cy="-14.8492" rx="14.7" ry="14.7"/>
<text text-anchor="middle" x="1064" y="-12.6492" font-family="Times,serif" font-size="9.00">2</text>
</g>
<!-- &#45;5&#45;&gt;2 -->
<g id="edge60" class="edge"><title>&#45;5&#45;&gt;2</title>
<path fill="none" stroke="red" stroke-width="0.166967" d="M519.143,-222.297C517.858,-205.143 517.543,-165.469 539,-144.125 593.139,-90.2724 642.026,-148.243 707,-108.125 727.561,-95.4298 720.08,-77.7924 741,-65.6985 791.952,-36.2424 972.432,-21.7913 1039.05,-17.3696"/>
<polygon fill="red" stroke="red" stroke-width="0.166967" points="1039.33,-20.8594 1049.08,-16.7235 1038.88,-13.8739 1039.33,-20.8594"/>
</g>
<!-- &#45;5&#45;&gt;3 -->
<g id="edge45" class="edge"><title>&#45;5&#45;&gt;3</title>
<path fill="none" stroke="red" stroke-width="0.603556" d="M507.869,-230.782C480.925,-230.554 416.249,-225.744 388,-186.551 356.594,-142.978 366.922,-115.102 388,-65.6985 394.335,-50.849 407.504,-38.2997 419.004,-29.5068"/>
<polygon fill="red" stroke="red" stroke-width="0.603556" points="421.242,-32.2091 427.331,-23.5392 417.164,-26.5192 421.242,-32.2091"/>
</g>
<!-- &#45;5&#45;&gt;209 -->
<g id="edge25" class="edge"><title>&#45;5&#45;&gt;209</title>
<path fill="none" stroke="red" stroke-width="0.508202" d="M532.074,-227.785C553.725,-222.424 599.972,-209.117 633,-186.551 654.148,-172.102 650.316,-157.756 672,-144.125 675.372,-142.005 775.481,-112.116 826.997,-96.8089"/>
<polygon fill="red" stroke="red" stroke-width="0.508202" points="828.019,-100.156 836.609,-93.9545 826.026,-93.4461 828.019,-100.156"/>
</g>
<!-- &#45;6 -->
<g id="node6" class="node"><title>&#45;6</title>
<polygon fill="lightgray" stroke="black" points="1229,-240.551 1205,-240.551 1205,-222.551 1229,-222.551 1229,-240.551"/>
<text text-anchor="middle" x="1217" y="-229.351" font-family="Times,serif" font-size="9.00">&#45;6</text>
</g>
<!-- &#45;6&#45;&gt;1 -->
<g id="edge19" class="edge"><title>&#45;6&#45;&gt;1</title>
<path fill="none" stroke="red" stroke-width="0.301983" d="M1204.61,-229.678C1134.04,-224.67 784.278,-199.363 738,-186.551 731.142,-184.653 724.04,-181.673 717.67,-178.58"/>
<polygon fill="red" stroke="red" stroke-width="0.301983" points="718.891,-175.27 708.404,-173.763 715.663,-181.481 718.891,-175.27"/>
</g>
<!-- &#45;6&#45;&gt;2 -->
<g id="edge53" class="edge"><title>&#45;6&#45;&gt;2</title>
<path fill="none" stroke="red" stroke-width="0.491832" d="M1221.07,-222.313C1233.26,-196.305 1266.5,-114.764 1230,-65.6985 1197.31,-21.7487 1127.18,-15.0967 1089.38,-14.9218"/>
<polygon fill="red" stroke="red" stroke-width="0.491832" points="1089.16,-11.4238 1079.2,-15.0297 1089.24,-18.4234 1089.16,-11.4238"/>
</g>
<!-- &#45;7 -->
<g id="node7" class="node"><title>&#45;7</title>
<polygon fill="lightgray" stroke="black" points="492,-174.338 468,-174.338 468,-156.338 492,-156.338 492,-174.338"/>
<text text-anchor="middle" x="480" y="-163.138" font-family="Times,serif" font-size="9.00">&#45;7</text>
</g>
<!-- &#45;7&#45;&gt;0 -->
<g id="edge8" class="edge"><title>&#45;7&#45;&gt;0</title>
<path fill="none" stroke="red" stroke-width="0.117713" d="M467.99,-160.652C429.183,-148.741 306.662,-111.135 254.685,-95.1813"/>
<polygon fill="red" stroke="red" stroke-width="0.117713" points="255.583,-91.7961 244.997,-92.2077 253.529,-98.488 255.583,-91.7961"/>
</g>
<!-- &#45;7&#45;&gt;209 -->
<g id="edge3" class="edge"><title>&#45;7&#45;&gt;209</title>
<path fill="none" stroke="green" stroke-width="0.43501" d="M492.036,-159.599C503.843,-155.097 522.435,-148.399 539,-144.125 642.529,-117.412 768.286,-99.303 825.699,-91.8033"/>
<polygon fill="green" stroke="green" stroke-width="0.43501" points="826.453,-95.2352 835.924,-90.486 825.558,-88.2926 826.453,-95.2352"/>
</g>
<!-- &#45;8 -->
<g id="node8" class="node"><title>&#45;8</title>
<polygon fill="lightgray" stroke="black" points="739,-240.551 715,-240.551 715,-222.551 739,-222.551 739,-240.551"/>
<text text-anchor="middle" x="727" y="-229.351" font-family="Times,serif" font-size="9.00">&#45;8</text>
</g>
<!-- &#45;8&#45;&gt;1 -->
<g id="edge11" class="edge"><title>&#45;8&#45;&gt;1</title>
<path fill="none" stroke="green" stroke-width="0.537948" d="M723.074,-222.419C718.95,-213.876 712.286,-200.073 706.602,-188.299"/>
<polygon fill="green" stroke="green" stroke-width="0.537948" points="709.635,-186.53 702.135,-179.046 703.331,-189.573 709.635,-186.53"/>
</g>
<!-- &#45;9 -->
<g id="node9" class="node"><title>&#45;9</title>
<polygon fill="lightgray" stroke="black" points="24,-240.551 0,-240.551 0,-222.551 24,-222.551 24,-240.551"/>
<text text-anchor="middle" x="12" y="-229.351" font-family="Times,serif" font-size="9.00">&#45;9</text>
</g>
<!-- &#45;9&#45;&gt;0 -->
<g id="edge43" class="edge"><title>&#45;9&#45;&gt;0</title>
<path fill="none" stroke="red" stroke-width="0.296241" d="M19.1927,-222.492C34.1988,-206.045 70.4903,-168.144 107,-144.125 139.454,-122.774 181.347,-105.668 207.182,-96.1569"/>
<polygon fill="red" stroke="red" stroke-width="0.296241" points="208.655,-99.3466 216.879,-92.667 206.285,-92.7601 208.655,-99.3466"/>
</g>
<!-- &#45;9&#45;&gt;1 -->
<g id="edge27" class="edge"><title>&#45;9&#45;&gt;1</title>
<path fill="none" stroke="green" stroke-width="0.441758" d="M24.2212,-229.383C41.5255,-227.748 74.1631,-224.732 102,-222.551 337.819,-204.079 400.674,-231.011 633,-186.551 646.438,-183.98 661.009,-179.425 672.75,-175.29"/>
<polygon fill="green" stroke="green" stroke-width="0.441758" points="674.048,-178.542 682.24,-171.824 671.646,-171.967 674.048,-178.542"/>
</g>
<!-- &#45;9&#45;&gt;3 -->
<g id="edge20" class="edge"><title>&#45;9&#45;&gt;3</title>
<path fill="none" stroke="green" stroke-width="0.582889" d="M10.7329,-222.51C7.00773,-195.668 -0.943053,-108.446 45,-65.6985 98.7782,-15.6608 335.543,-14.3491 414.37,-15.3454"/>
<polygon fill="green" stroke="green" stroke-width="0.582889" points="414.762,-18.8516 424.814,-15.5036 414.868,-11.8524 414.762,-18.8516"/>
</g>
<!-- &#45;10 -->
<g id="node10" class="node"><title>&#45;10</title>
<polygon fill="lightgray" stroke="black" points="145.5,-174.338 116.5,-174.338 116.5,-156.338 145.5,-156.338 145.5,-174.338"/>
<text text-anchor="middle" x="131" y="-163.138" font-family="Times,serif" font-size="9.00">&#45;10</text>
</g>
<!-- &#45;10&#45;&gt;0 -->
<g id="edge30" class="edge"><title>&#45;10&#45;&gt;0</title>
<path fill="none" stroke="green" stroke-width="0.524015" d="M141.702,-156.159C158.279,-143.49 190.423,-118.923 211.284,-102.98"/>
<polygon fill="green" stroke="green" stroke-width="0.524015" points="213.636,-105.588 219.455,-96.7347 209.385,-100.026 213.636,-105.588"/>
</g>
<!-- &#45;11 -->
<g id="node11" class="node"><title>&#45;11</title>
<polygon fill="lightgray" stroke="black" points="698.5,-95.9117 669.5,-95.9117 669.5,-77.9117 698.5,-77.9117 698.5,-95.9117"/>
<text text-anchor="middle" x="684" y="-84.7117" font-family="Times,serif" font-size="9.00">&#45;11</text>
</g>
<!-- &#45;11&#45;&gt;2 -->
<g id="edge51" class="edge"><title>&#45;11&#45;&gt;2</title>
<path fill="none" stroke="green" stroke-width="0.124364" d="M693.273,-77.7587C698.667,-73.4709 705.804,-68.53 713,-65.6985 828.415,-20.2821 979.616,-15.478 1038.75,-15.4904"/>
<polygon fill="green" stroke="green" stroke-width="0.124364" points="1038.99,-18.9916 1049,-15.5432 1039.02,-11.9916 1038.99,-18.9916"/>
</g>
<!-- &#45;11&#45;&gt;3 -->
<g id="edge39" class="edge"><title>&#45;11&#45;&gt;3</title>
<path fill="none" stroke="red" stroke-width="0.182037" d="M674.367,-77.7969C668.975,-73.6285 661.954,-68.7895 655,-65.6985 589.892,-36.7579 505.932,-23.5593 464.859,-18.5032"/>
<polygon fill="red" stroke="red" stroke-width="0.182037" points="465.03,-14.9994 454.691,-17.3119 464.216,-21.9518 465.03,-14.9994"/>
</g>
<!-- &#45;12 -->
<g id="node12" class="node"><title>&#45;12</title>
<polygon fill="lightgray" stroke="black" points="1078.5,-174.338 1049.5,-174.338 1049.5,-156.338 1078.5,-156.338 1078.5,-174.338"/>
<text text-anchor="middle" x="1064" y="-163.138" font-family="Times,serif" font-size="9.00">&#45;12</text>
</g>
<!-- &#45;12&#45;&gt;2 -->
<g id="edge37" class="edge"><title>&#45;12&#45;&gt;2</title>
<path fill="none" stroke="green" stroke-width="0.243435" d="M1064,-155.929C1064,-133.896 1064,-73.8522 1064,-39.9619"/>
<polygon fill="green" stroke="green" stroke-width="0.243435" points="1067.5,-39.9588 1064,-29.9589 1060.5,-39.9589 1067.5,-39.9588"/>
</g>
<!-- &#45;12&#45;&gt;209 -->
<g id="edge29" class="edge"><title>&#45;12&#45;&gt;209</title>
<path fill="none" stroke="green" stroke-width="0.18133" d="M1054,-156.239C1048.62,-152.176 1041.72,-147.431 1035,-144.125 985.908,-119.967 924.148,-103.224 887.782,-94.6226"/>
<polygon fill="green" stroke="green" stroke-width="0.18133" points="888.323,-91.1554 877.791,-92.3142 886.747,-97.9757 888.323,-91.1554"/>
</g>
<!-- &#45;13 -->
<g id="node13" class="node"><title>&#45;13</title>
<polygon fill="lightgray" stroke="black" points="624.5,-174.338 595.5,-174.338 595.5,-156.338 624.5,-156.338 624.5,-174.338"/>
<text text-anchor="middle" x="610" y="-163.138" font-family="Times,serif" font-size="9.00">&#45;13</text>
</g>
<!-- &#45;13&#45;&gt;2 -->
<g id="edge24" class="edge"><title>&#45;13&#45;&gt;2</title>
<path fill="none" stroke="red" stroke-width="0.226882" d="M615.919,-156.303C619.336,-152.158 623.952,-147.316 629,-144.125 673.198,-116.189 692.534,-127.744 741,-108.125 780.506,-92.1323 786.718,-79.6224 827,-65.6985 902.101,-39.7391 995.477,-24.9409 1039.22,-18.9721"/>
<polygon fill="red" stroke="red" stroke-width="0.226882" points="1039.78,-22.4289 1049.23,-17.6435 1038.86,-15.4898 1039.78,-22.4289"/>
</g>
<!-- &#45;13&#45;&gt;3 -->
<g id="edge10" class="edge"><title>&#45;13&#45;&gt;3</title>
<path fill="none" stroke="green" stroke-width="0.668495" d="M603.042,-156.114C587.882,-138.449 550.314,-96.0305 514,-65.6985 497.263,-51.7185 476.555,-38.0391 461.306,-28.5574"/>
<polygon fill="green" stroke="green" stroke-width="0.668495" points="462.957,-25.4646 452.6,-23.2311 459.303,-31.4357 462.957,-25.4646"/>
</g>
<!-- &#45;13&#45;&gt;209 -->
<g id="edge50" class="edge"><title>&#45;13&#45;&gt;209</title>
<path fill="none" stroke="green" stroke-width="0.102434" d="M619.644,-156.249C625.04,-152.088 632.06,-147.248 639,-144.125 701.126,-116.165 722.18,-125.706 788,-108.125 800.908,-104.677 815.083,-100.579 827.211,-96.977"/>
<polygon fill="green" stroke="green" stroke-width="0.102434" points="828.267,-100.314 836.843,-94.0933 826.259,-93.6085 828.267,-100.314"/>
</g>
<!-- &#45;14 -->
<g id="node14" class="node"><title>&#45;14</title>
<polygon fill="lightgray" stroke="black" points="992.5,-174.338 963.5,-174.338 963.5,-156.338 992.5,-156.338 992.5,-174.338"/>
<text text-anchor="middle" x="978" y="-163.138" font-family="Times,serif" font-size="9.00">&#45;14</text>
</g>
<!-- &#45;14&#45;&gt;209 -->
<g id="edge52" class="edge"><title>&#45;14&#45;&gt;209</title>
<path fill="none" stroke="red" stroke-width="0.164933" d="M968.956,-156.074C964.583,-152.249 959.17,-147.758 954,-144.125 931.592,-128.377 904.511,-112.957 884.664,-102.263"/>
<polygon fill="red" stroke="red" stroke-width="0.164933" points="886.298,-99.1677 875.826,-97.5551 883.007,-105.346 886.298,-99.1677"/>
</g>
<!-- &#45;15 -->
<g id="node15" class="node"><title>&#45;15</title>
<polygon fill="lightgray" stroke="black" points="107.5,-95.9117 78.5,-95.9117 78.5,-77.9117 107.5,-77.9117 107.5,-95.9117"/>
<text text-anchor="middle" x="93" y="-84.7117" font-family="Times,serif" font-size="9.00">&#45;15</text>
</g>
<!-- &#45;15&#45;&gt;3 -->
<g id="edge56" class="edge"><title>&#45;15&#45;&gt;3</title>
<path fill="none" stroke="green" stroke-width="0.255046" d="M102.289,-77.7988C107.688,-73.5235 114.825,-68.5818 122,-65.6985 225.085,-24.2735 359.84,-17.1252 414.909,-15.9989"/>
<polygon fill="green" stroke="green" stroke-width="0.255046" points="415.174,-19.4953 425.119,-15.8426 415.067,-12.4962 415.174,-19.4953"/>
</g>
<!-- &#45;16 -->
<g id="node16" class="node"><title>&#45;16</title>
<polygon fill="lightgray" stroke="black" points="786.5,-240.551 757.5,-240.551 757.5,-222.551 786.5,-222.551 786.5,-240.551"/>
<text text-anchor="middle" x="772" y="-229.351" font-family="Times,serif" font-size="9.00">&#45;16</text>
</g>
<!-- &#45;16&#45;&gt;1 -->
<g id="edge40" class="edge"><title>&#45;16&#45;&gt;1</title>
<path fill="none" stroke="red" stroke-width="0.588951" d="M762.375,-222.419C750.512,-212.396 730.077,-195.13 715.007,-182.397"/>
<polygon fill="red" stroke="red" stroke-width="0.588951" points="717.173,-179.645 707.275,-175.865 712.655,-184.992 717.173,-179.645"/>
</g>
<!-- &#45;17 -->
<g id="node17" class="node"><title>&#45;17</title>
<polygon fill="lightgray" stroke="black" points="140.5,-240.551 111.5,-240.551 111.5,-222.551 140.5,-222.551 140.5,-240.551"/>
<text text-anchor="middle" x="126" y="-229.351" font-family="Times,serif" font-size="9.00">&#45;17</text>
</g>
<!-- &#45;17&#45;&gt;0 -->
<g id="edge7" class="edge"><title>&#45;17&#45;&gt;0</title>
<path fill="none" stroke="green" stroke-width="0.365489" d="M131.946,-222.474C148.125,-200.495 193.289,-139.142 216.628,-107.435"/>
<polygon fill="green" stroke="green" stroke-width="0.365489" points="219.481,-109.464 222.59,-99.3359 213.843,-105.314 219.481,-109.464"/>
</g>
<!-- &#45;17&#45;&gt;1 -->
<g id="edge13" class="edge"><title>&#45;17&#45;&gt;1</title>
<path fill="none" stroke="red" stroke-width="0.802854" d="M140.507,-229.337C222.093,-222.504 620.562,-189.053 633,-186.551 646.413,-183.853 660.983,-179.29 672.729,-175.181"/>
<polygon fill="red" stroke="red" stroke-width="0.802854" points="674.012,-178.439 682.225,-171.746 671.631,-171.857 674.012,-178.439"/>
</g>
<!-- &#45;17&#45;&gt;2 -->
<g id="edge35" class="edge"><title>&#45;17&#45;&gt;2</title>
<path fill="none" stroke="red" stroke-width="0.708845" d="M120.902,-222.515C111.595,-206.739 93.9595,-170.925 107,-144.125 131.713,-93.336 154.17,-85.6796 207,-65.6985 286.573,-35.6028 905.96,-19.5369 1038.92,-16.4156"/>
<polygon fill="red" stroke="red" stroke-width="0.708845" points="1039.04,-19.9139 1048.96,-16.1831 1038.88,-12.9157 1039.04,-19.9139"/>
</g>
<!-- &#45;17&#45;&gt;3 -->
<g id="edge21" class="edge"><title>&#45;17&#45;&gt;3</title>
<path fill="none" stroke="green" stroke-width="0.495415" d="M111.227,-222.617C98.8957,-215.11 82.0783,-202.609 74,-186.551 49.8405,-138.528 33.6086,-106.163 69,-65.6985 91.8832,-39.535 335.62,-22.2869 415.097,-17.3253"/>
<polygon fill="green" stroke="green" stroke-width="0.495415" points="415.415,-20.8125 425.182,-16.7071 414.986,-13.8256 415.415,-20.8125"/>
</g>
<!-- &#45;18 -->
<g id="node18" class="node"><title>&#45;18</title>
<polygon fill="lightgray" stroke="black" points="1325.5,-95.9117 1296.5,-95.9117 1296.5,-77.9117 1325.5,-77.9117 1325.5,-95.9117"/>
<text text-anchor="middle" x="1311" y="-84.7117" font-family="Times,serif" font-size="9.00">&#45;18</text>
</g>
<!-- &#45;18&#45;&gt;2 -->
<g id="edge28" class="edge"><title>&#45;18&#45;&gt;2</title>
<path fill="none" stroke="red" stroke-width="0.596985" d="M1301.37,-77.7885C1295.98,-73.6176 1288.96,-68.779 1282,-65.6985 1215.84,-36.4122 1130.49,-23.3486 1088.94,-18.4079"/>
<polygon fill="red" stroke="red" stroke-width="0.596985" points="1089.23,-14.9179 1078.9,-17.2721 1088.44,-21.8736 1089.23,-14.9179"/>
</g>
<!-- &#45;19 -->
<g id="node19" class="node"><title>&#45;19</title>
<polygon fill="lightgray" stroke="black" points="869.5,-240.551 840.5,-240.551 840.5,-222.551 869.5,-222.551 869.5,-240.551"/>
<text text-anchor="middle" x="855" y="-229.351" font-family="Times,serif" font-size="9.00">&#45;19</text>
</g>
<!-- &#45;19&#45;&gt;1 -->
<g id="edge33" class="edge"><title>&#45;19&#45;&gt;1</title>
<path fill="none" stroke="green" stroke-width="0.372827" d="M840.426,-225.54C818.13,-217.769 774.315,-202.082 738,-186.551 731.555,-183.795 724.662,-180.59 718.364,-177.555"/>
<polygon fill="green" stroke="green" stroke-width="0.372827" points="719.623,-174.274 709.103,-173.015 716.542,-180.559 719.623,-174.274"/>
</g>
<!-- &#45;19&#45;&gt;2 -->
<g id="edge18" class="edge"><title>&#45;19&#45;&gt;2</title>
<path fill="none" stroke="green" stroke-width="0.374204" d="M869.682,-230.616C922.187,-230.505 1099.35,-227.09 1134,-186.551 1174.27,-139.438 1113.68,-66.0281 1081.69,-32.986"/>
<polygon fill="green" stroke="green" stroke-width="0.374204" points="1084.14,-30.4872 1074.61,-25.8519 1079.17,-35.4166 1084.14,-30.4872"/>
</g>
<!-- &#45;19&#45;&gt;3 -->
<g id="edge4" class="edge"><title>&#45;19&#45;&gt;3</title>
<path fill="none" stroke="green" stroke-width="0.230921" d="M852.004,-222.443C845.209,-205.215 826.934,-164.846 798,-144.125 746.466,-107.22 720.044,-128.435 660,-108.125 621.082,-94.9609 510.361,-46.7832 462.498,-25.7657"/>
<polygon fill="green" stroke="green" stroke-width="0.230921" points="463.85,-22.5368 453.287,-21.7154 461.032,-28.9446 463.85,-22.5368"/>
</g>
<!-- &#45;19&#45;&gt;209 -->
<g id="edge23" class="edge"><title>&#45;19&#45;&gt;209</title>
<path fill="none" stroke="red" stroke-width="0.816219" d="M858.471,-222.301C861.931,-213.595 867.008,-199.384 869,-186.551 872.59,-163.431 869.008,-137.123 864.845,-117.494"/>
<polygon fill="red" stroke="red" stroke-width="0.816219" points="868.227,-116.582 862.583,-107.615 861.404,-118.144 868.227,-116.582"/>
</g>
<!-- 693 -->
<g id="node30" class="node"><title>693</title>
<ellipse fill="white" stroke="black" cx="768" cy="-165.338" rx="21.4286" ry="21.4286"/>
<text text-anchor="middle" x="768" y="-163.138" font-family="Times,serif" font-size="9.00">693</text>
</g>
<!-- &#45;19&#45;&gt;693 -->
<g id="edge22" class="edge"><title>&#45;19&#45;&gt;693</title>
<path fill="none" stroke="green" stroke-width="0.149802" d="M843.981,-222.419C831.288,-213.05 810.022,-197.354 793.211,-184.946"/>
<polygon fill="green" stroke="green" stroke-width="0.149802" points="795.02,-181.931 784.895,-178.808 790.863,-187.563 795.02,-181.931"/>
</g>
<!-- &#45;20 -->
<g id="node20" class="node"><title>&#45;20</title>
<polygon fill="lightgray" stroke="black" points="577.5,-174.338 548.5,-174.338 548.5,-156.338 577.5,-156.338 577.5,-174.338"/>
<text text-anchor="middle" x="563" y="-163.138" font-family="Times,serif" font-size="9.00">&#45;20</text>
</g>
<!-- &#45;20&#45;&gt;3 -->
<g id="edge14" class="edge"><title>&#45;20&#45;&gt;3</title>
<path fill="none" stroke="green" stroke-width="0.504742" d="M556.035,-155.929C536.814,-132.726 482.675,-67.3682 455.693,-34.7939"/>
<polygon fill="green" stroke="green" stroke-width="0.504742" points="458.228,-32.3685 449.154,-26.9001 452.838,-36.8339 458.228,-32.3685"/>
</g>
<!-- &#45;20&#45;&gt;209 -->
<g id="edge59" class="edge"><title>&#45;20&#45;&gt;209</title>
<path fill="none" stroke="green" stroke-width="0.35984" d="M570.334,-156.105C574.521,-151.902 580.102,-147.068 586,-144.125 607.427,-133.435 759.794,-105.31 826.195,-93.3835"/>
<polygon fill="green" stroke="green" stroke-width="0.35984" points="826.855,-96.8213 836.081,-91.6136 825.621,-89.9308 826.855,-96.8213"/>
</g>
<!-- &#45;21 -->
<g id="node21" class="node"><title>&#45;21</title>
<polygon fill="lightgray" stroke="black" points="1085.5,-240.551 1056.5,-240.551 1056.5,-222.551 1085.5,-222.551 1085.5,-240.551"/>
<text text-anchor="middle" x="1071" y="-229.351" font-family="Times,serif" font-size="9.00">&#45;21</text>
</g>
<!-- &#45;21&#45;&gt;1 -->
<g id="edge9" class="edge"><title>&#45;21&#45;&gt;1</title>
<path fill="none" stroke="red" stroke-width="0.135072" d="M1056.38,-230.259C1009.22,-228.974 857.305,-222.148 738,-186.551 731.181,-184.517 724.091,-181.495 717.721,-178.404"/>
<polygon fill="red" stroke="red" stroke-width="0.135072" points="718.937,-175.093 708.445,-173.622 715.73,-181.315 718.937,-175.093"/>
</g>
<!-- &#45;21&#45;&gt;2 -->
<g id="edge49" class="edge"><title>&#45;21&#45;&gt;2</title>
<path fill="none" stroke="green" stroke-width="0.34331" d="M1085.53,-230.873C1114.21,-230.62 1177.76,-225.453 1206,-186.551 1237.55,-143.083 1237.06,-109.52 1206,-65.6985 1179.39,-28.1617 1122.2,-18.6788 1089.09,-16.4161"/>
<polygon fill="green" stroke="green" stroke-width="0.34331" points="1089.03,-12.9085 1078.86,-15.8954 1088.67,-19.8994 1089.03,-12.9085"/>
</g>
<!-- &#45;21&#45;&gt;3 -->
<g id="edge38" class="edge"><title>&#45;21&#45;&gt;3</title>
<path fill="none" stroke="green" stroke-width="0.349293" d="M1085.64,-225.105C1100.88,-218.553 1123.89,-205.952 1134,-186.551 1142.72,-169.831 1144.96,-159.467 1134,-144.125 1054.03,-32.2089 580.505,-17.933 465.269,-16.1143"/>
<polygon fill="green" stroke="green" stroke-width="0.349293" points="465.024,-12.6107 454.976,-15.9709 464.927,-19.61 465.024,-12.6107"/>
</g>
<!-- &#45;21&#45;&gt;209 -->
<g id="edge1" class="edge"><title>&#45;21&#45;&gt;209</title>
<path fill="none" stroke="red" stroke-width="0.312992" d="M1065.28,-222.459C1051.57,-203.258 1016.82,-155.689 1001,-144.125 966.154,-118.659 918.26,-103.005 887.464,-94.8845"/>
<polygon fill="red" stroke="red" stroke-width="0.312992" points="888.272,-91.4787 877.719,-92.4162 886.554,-98.2645 888.272,-91.4787"/>
</g>
<!-- &#45;22 -->
<g id="node22" class="node"><title>&#45;22</title>
<polygon fill="lightgray" stroke="black" points="260.5,-240.551 231.5,-240.551 231.5,-222.551 260.5,-222.551 260.5,-240.551"/>
<text text-anchor="middle" x="246" y="-229.351" font-family="Times,serif" font-size="9.00">&#45;22</text>
</g>
<!-- &#45;22&#45;&gt;0 -->
<g id="edge12" class="edge"><title>&#45;22&#45;&gt;0</title>
<path fill="none" stroke="red" stroke-width="0.366266" d="M243.734,-222.519C241.366,-213.756 237.755,-199.278 236,-186.551 232.521,-161.327 231.396,-132.175 231.064,-112.141"/>
<polygon fill="red" stroke="red" stroke-width="0.366266" points="234.563,-111.991 230.952,-102.031 227.563,-112.069 234.563,-111.991"/>
</g>
<!-- &#45;22&#45;&gt;1 -->
<g id="edge26" class="edge"><title>&#45;22&#45;&gt;1</title>
<path fill="none" stroke="red" stroke-width="0.252402" d="M260.535,-228.476C272.468,-226.797 289.815,-224.414 305,-222.551 450.562,-204.697 489.565,-217.107 633,-186.551 646.381,-183.701 660.949,-179.127 672.702,-175.051"/>
<polygon fill="red" stroke="red" stroke-width="0.252402" points="673.968,-178.315 682.206,-171.652 671.611,-171.724 673.968,-178.315"/>
</g>
<!-- &#45;23 -->
<g id="node23" class="node"><title>&#45;23</title>
<polygon fill="lightgray" stroke="black" points="1125.5,-174.338 1096.5,-174.338 1096.5,-156.338 1125.5,-156.338 1125.5,-174.338"/>
<text text-anchor="middle" x="1111" y="-163.138" font-family="Times,serif" font-size="9.00">&#45;23</text>
</g>
<!-- &#45;23&#45;&gt;2 -->
<g id="edge36" class="edge"><title>&#45;23&#45;&gt;2</title>
<path fill="none" stroke="green" stroke-width="0.84948" d="M1108.34,-155.929C1101.33,-133.785 1082.17,-73.2478 1071.47,-39.453"/>
<polygon fill="green" stroke="green" stroke-width="0.84948" points="1074.68,-37.9805 1068.32,-29.5029 1068,-40.0929 1074.68,-37.9805"/>
</g>
<!-- &#45;23&#45;&gt;209 -->
<g id="edge44" class="edge"><title>&#45;23&#45;&gt;209</title>
<path fill="none" stroke="green" stroke-width="0.16696" d="M1103.24,-156.197C1098.84,-152.021 1093.02,-147.183 1087,-144.125 1021,-110.615 934.058,-96.4342 888.284,-90.9701"/>
<polygon fill="green" stroke="green" stroke-width="0.16696" points="888.431,-87.4645 878.101,-89.8186 887.645,-94.4202 888.431,-87.4645"/>
</g>
<!-- &#45;24 -->
<g id="node24" class="node"><title>&#45;24</title>
<polygon fill="lightgray" stroke="black" points="654.5,-240.551 625.5,-240.551 625.5,-222.551 654.5,-222.551 654.5,-240.551"/>
<text text-anchor="middle" x="640" y="-229.351" font-family="Times,serif" font-size="9.00">&#45;24</text>
</g>
<!-- &#45;24&#45;&gt;1 -->
<g id="edge5" class="edge"><title>&#45;24&#45;&gt;1</title>
<path fill="none" stroke="red" stroke-width="0.119787" d="M647.092,-222.419C655.301,-213.006 669.079,-197.207 679.924,-184.772"/>
<polygon fill="red" stroke="red" stroke-width="0.119787" points="682.603,-187.025 686.538,-177.188 677.327,-182.424 682.603,-187.025"/>
</g>
<!-- &#45;24&#45;&gt;3 -->
<g id="edge34" class="edge"><title>&#45;24&#45;&gt;3</title>
<path fill="none" stroke="green" stroke-width="0.188029" d="M625.319,-227.099C582.455,-217.005 460.409,-188.152 459,-186.551 422.941,-145.57 428.737,-75.9104 434.967,-39.5435"/>
<polygon fill="green" stroke="green" stroke-width="0.188029" points="438.467,-39.8682 436.868,-29.3947 431.587,-38.5791 438.467,-39.8682"/>
</g>
<!-- &#45;24&#45;&gt;209 -->
<g id="edge58" class="edge"><title>&#45;24&#45;&gt;209</title>
<path fill="none" stroke="red" stroke-width="0.265943" d="M654.679,-225.505C657.748,-224.493 660.972,-223.462 664,-222.551 723.055,-204.793 748.8,-223.729 798,-186.551 821.437,-168.841 837.43,-138.88 846.789,-116.615"/>
<polygon fill="red" stroke="red" stroke-width="0.265943" points="850.051,-117.886 850.511,-107.301 843.55,-115.288 850.051,-117.886"/>
</g>
<!-- 1&#45;&gt;1 -->
<g id="edge31" class="edge"><title>1&#45;&gt;1</title>
<path fill="none" stroke="green" stroke-width="0.442547" d="M707.106,-175.344C717.536,-180.533 728.849,-177.197 728.849,-165.338 728.849,-157.37 723.742,-153.25 717.228,-152.978"/>
<polygon fill="green" stroke="green" stroke-width="0.442547" points="716.053,-149.657 707.106,-155.332 717.639,-156.475 716.053,-149.657"/>
</g>
<!-- 1&#45;&gt;209 -->
<g id="edge57" class="edge"><title>1&#45;&gt;209</title>
<path fill="none" stroke="green" stroke-width="0.256161" d="M709.23,-157.941C717.493,-153.953 728.358,-148.722 738,-144.125 768.997,-129.345 804.613,-112.544 828.742,-101.19"/>
<polygon fill="green" stroke="green" stroke-width="0.256161" points="830.46,-104.25 838.019,-96.8263 827.48,-97.9157 830.46,-104.25"/>
</g>
<!-- 3&#45;&gt;3 -->
<g id="edge46" class="edge"><title>3&#45;&gt;3</title>
<path fill="none" stroke="green" stroke-width="0.441812" d="M450.767,-25.5774C461.289,-31.5034 472.849,-27.9274 472.849,-14.8492 472.849,-5.85803 467.385,-1.35804 460.551,-1.34926"/>
<polygon fill="green" stroke="green" stroke-width="0.441812" points="459.434,1.97218 450.767,-4.12109 461.342,-4.76277 459.434,1.97218"/>
</g>
<!-- 209&#45;&gt;2 -->
<g id="edge54" class="edge"><title>209&#45;&gt;2</title>
<path fill="none" stroke="green" stroke-width="0.106929" d="M876.848,-79.1938C915.201,-66.2127 999.326,-37.7392 1040.44,-23.8231"/>
<polygon fill="green" stroke="green" stroke-width="0.106929" points="1041.79,-27.061 1050.14,-20.5397 1039.55,-20.4305 1041.79,-27.061"/>
</g>
<!-- 209&#45;&gt;3 -->
<g id="edge42" class="edge"><title>209&#45;&gt;3</title>
<path fill="none" stroke="green" stroke-width="1.14923" d="M836.035,-82.3893C765.985,-70.6198 540.216,-32.6872 464.795,-20.0152"/>
<polygon fill="green" stroke="green" stroke-width="1.14923" points="465.237,-16.5404 454.795,-18.335 464.077,-23.4436 465.237,-16.5404"/>
</g>
<!-- 209&#45;&gt;209 -->
<g id="edge61" class="edge"><title>209&#45;&gt;209</title>
<path fill="none" stroke="red" stroke-width="0.269128" d="M874.337,-99.3438C885.484,-102.587 896.213,-98.4429 896.213,-86.9117 896.213,-78.984 891.142,-74.5478 884.35,-73.6033"/>
<polygon fill="red" stroke="red" stroke-width="0.269128" points="883.993,-70.1211 874.337,-74.4796 884.604,-77.0944 883.993,-70.1211"/>
</g>
<!-- 693&#45;&gt;0 -->
<g id="edge47" class="edge"><title>693&#45;&gt;0</title>
<path fill="none" stroke="red" stroke-width="0.426275" d="M751.646,-151.267C747.415,-148.478 742.717,-145.856 738,-144.125 647.613,-110.961 345.026,-93.5808 255.902,-89.0967"/>
<polygon fill="red" stroke="red" stroke-width="0.426275" points="256.055,-85.6001 245.895,-88.6027 255.71,-92.5916 256.055,-85.6001"/>
</g>
</g>
</svg>
