<?xml version="1.0" encoding="UTF-8" standalone="no"?>
<!DOCTYPE svg PUBLIC "-//W3C//DTD SVG 1.1//EN"
 "http://www.w3.org/Graphics/SVG/1.1/DTD/svg11.dtd">
<!-- Generated by graphviz version 2.38.0 (20140413.2041)
 -->
<!-- Title: %3 Pages: 1 -->
<svg width="1077pt" height="92pt"
 viewBox="0.00 0.00 1077.00 91.70" xmlns="http://www.w3.org/2000/svg" xmlns:xlink="http://www.w3.org/1999/xlink">
<g id="graph0" class="graph" transform="scale(1 1) rotate(0) translate(4 87.6985)">
<title>%3</title>
<polygon fill="white" stroke="none" points="-4,4 -4,-87.6985 1073,-87.6985 1073,4 -4,4"/>
<!-- &#45;1 -->
<g id="node1" class="node"><title>&#45;1</title>
<polygon fill="lightgray" stroke="black" points="165.5,-83.6985 141.5,-83.6985 141.5,-65.6985 165.5,-65.6985 165.5,-83.6985"/>
<text text-anchor="middle" x="153.5" y="-72.4985" font-family="Times,serif" font-size="9.00">&#45;1</text>
</g>
<!-- 0 -->
<g id="node25" class="node"><title>0</title>
<ellipse fill="lightblue" stroke="black" cx="312.5" cy="-14.8492" rx="14.7" ry="14.7"/>
<text text-anchor="middle" x="312.5" y="-12.6492" font-family="Times,serif" font-size="9.00">0</text>
</g>
<!-- &#45;1&#45;&gt;0 -->
<g id="edge6" class="edge"><title>&#45;1&#45;&gt;0</title>
<path fill="none" stroke="green" stroke-width="1.84591" d="M165.923,-68.9249C168.74,-67.8541 171.72,-66.73 174.5,-65.6985 214.736,-50.7685 261.782,-33.8995 289.248,-24.1099"/>
<polygon fill="green" stroke="green" stroke-width="1.84591" points="290.513,-27.3746 298.76,-20.7234 288.166,-20.78 290.513,-27.3746"/>
</g>
<!-- 2 -->
<g id="node27" class="node"><title>2</title>
<ellipse fill="lightblue" stroke="black" cx="175.5" cy="-14.8492" rx="14.7" ry="14.7"/>
<text text-anchor="middle" x="175.5" y="-12.6492" font-family="Times,serif" font-size="9.00">2</text>
</g>
<!-- &#45;1&#45;&gt;2 -->
<g id="edge15" class="edge"><title>&#45;1&#45;&gt;2</title>
<path fill="none" stroke="green" stroke-width="0.106626" d="M156.559,-65.6548C159.223,-58.6501 163.217,-48.1471 166.852,-38.5892"/>
<polygon fill="green" stroke="green" stroke-width="0.106626" points="170.156,-39.7484 170.439,-29.1573 163.613,-37.2601 170.156,-39.7484"/>
</g>
<!-- &#45;2 -->
<g id="node2" class="node"><title>&#45;2</title>
<polygon fill="lightgray" stroke="black" points="533.5,-83.6985 509.5,-83.6985 509.5,-65.6985 533.5,-65.6985 533.5,-83.6985"/>
<text text-anchor="middle" x="521.5" y="-72.4985" font-family="Times,serif" font-size="9.00">&#45;2</text>
</g>
<!-- &#45;2&#45;&gt;0 -->
<g id="edge3" class="edge"><title>&#45;2&#45;&gt;0</title>
<path fill="none" stroke="green" stroke-width="0.11333" d="M509.139,-68.7433C506.32,-67.6818 503.322,-66.6075 500.5,-65.6985 442.536,-47.0297 372.94,-29.9251 336.867,-21.4457"/>
<polygon fill="green" stroke="green" stroke-width="0.11333" points="337.331,-17.9602 326.798,-19.0989 335.742,-24.7775 337.331,-17.9602"/>
</g>
<!-- 3 -->
<g id="node28" class="node"><title>3</title>
<ellipse fill="lightblue" stroke="black" cx="655.5" cy="-14.8492" rx="14.7" ry="14.7"/>
<text text-anchor="middle" x="655.5" y="-12.6492" font-family="Times,serif" font-size="9.00">3</text>
</g>
<!-- &#45;2&#45;&gt;3 -->
<g id="edge21" class="edge"><title>&#45;2&#45;&gt;3</title>
<path fill="none" stroke="red" stroke-width="1.69543" d="M533.866,-68.3599C556.354,-58.6518 604.248,-37.9754 632.769,-25.6624"/>
<polygon fill="red" stroke="red" stroke-width="1.69543" points="634.182,-28.8646 641.976,-21.6877 631.408,-22.4379 634.182,-28.8646"/>
</g>
<!-- &#45;3 -->
<g id="node3" class="node"><title>&#45;3</title>
<polygon fill="lightgray" stroke="black" points="801.5,-83.6985 777.5,-83.6985 777.5,-65.6985 801.5,-65.6985 801.5,-83.6985"/>
<text text-anchor="middle" x="789.5" y="-72.4985" font-family="Times,serif" font-size="9.00">&#45;3</text>
</g>
<!-- &#45;4 -->
<g id="node4" class="node"><title>&#45;4</title>
<polygon fill="lightgray" stroke="black" points="575.5,-83.6985 551.5,-83.6985 551.5,-65.6985 575.5,-65.6985 575.5,-83.6985"/>
<text text-anchor="middle" x="563.5" y="-72.4985" font-family="Times,serif" font-size="9.00">&#45;4</text>
</g>
<!-- &#45;4&#45;&gt;0 -->
<g id="edge17" class="edge"><title>&#45;4&#45;&gt;0</title>
<path fill="none" stroke="red" stroke-width="0.319412" d="M551.169,-68.6472C548.348,-67.5907 545.342,-66.5427 542.5,-65.6985 468.998,-43.8681 379.662,-27.2558 337.205,-19.9424"/>
<polygon fill="red" stroke="red" stroke-width="0.319412" points="337.669,-16.4712 327.224,-18.2466 336.496,-23.3723 337.669,-16.4712"/>
</g>
<!-- 1 -->
<g id="node26" class="node"><title>1</title>
<ellipse fill="lightblue" stroke="black" cx="563.5" cy="-14.8492" rx="14.7" ry="14.7"/>
<text text-anchor="middle" x="563.5" y="-12.6492" font-family="Times,serif" font-size="9.00">1</text>
</g>
<!-- &#45;4&#45;&gt;1 -->
<g id="edge26" class="edge"><title>&#45;4&#45;&gt;1</title>
<path fill="none" stroke="green" stroke-width="0.493471" d="M563.5,-65.6548C563.5,-59.0498 563.5,-49.3344 563.5,-40.2339"/>
<polygon fill="green" stroke="green" stroke-width="0.493471" points="567,-40.0563 563.5,-30.0563 560,-40.0564 567,-40.0563"/>
</g>
<!-- &#45;4&#45;&gt;3 -->
<g id="edge7" class="edge"><title>&#45;4&#45;&gt;3</title>
<path fill="none" stroke="green" stroke-width="1.68786" d="M575.527,-66.1357C590.527,-56.7037 616.417,-40.4246 634.669,-28.948"/>
<polygon fill="green" stroke="green" stroke-width="1.68786" points="636.574,-31.8846 643.176,-23.5985 632.847,-25.9587 636.574,-31.8846"/>
</g>
<!-- &#45;5 -->
<g id="node5" class="node"><title>&#45;5</title>
<polygon fill="lightgray" stroke="black" points="302.5,-83.6985 278.5,-83.6985 278.5,-65.6985 302.5,-65.6985 302.5,-83.6985"/>
<text text-anchor="middle" x="290.5" y="-72.4985" font-family="Times,serif" font-size="9.00">&#45;5</text>
</g>
<!-- &#45;5&#45;&gt;0 -->
<g id="edge12" class="edge"><title>&#45;5&#45;&gt;0</title>
<path fill="none" stroke="red" stroke-width="1.2543" d="M293.559,-65.6548C296.223,-58.6501 300.217,-48.1471 303.852,-38.5892"/>
<polygon fill="red" stroke="red" stroke-width="1.2543" points="307.156,-39.7484 307.439,-29.1573 300.613,-37.2601 307.156,-39.7484"/>
</g>
<!-- &#45;6 -->
<g id="node6" class="node"><title>&#45;6</title>
<polygon fill="lightgray" stroke="black" points="843.5,-83.6985 819.5,-83.6985 819.5,-65.6985 843.5,-65.6985 843.5,-83.6985"/>
<text text-anchor="middle" x="831.5" y="-72.4985" font-family="Times,serif" font-size="9.00">&#45;6</text>
</g>
<!-- &#45;7 -->
<g id="node7" class="node"><title>&#45;7</title>
<polygon fill="lightgray" stroke="black" points="759.5,-83.6985 735.5,-83.6985 735.5,-65.6985 759.5,-65.6985 759.5,-83.6985"/>
<text text-anchor="middle" x="747.5" y="-72.4985" font-family="Times,serif" font-size="9.00">&#45;7</text>
</g>
<!-- &#45;7&#45;&gt;3 -->
<g id="edge10" class="edge"><title>&#45;7&#45;&gt;3</title>
<path fill="none" stroke="green" stroke-width="0.397239" d="M735.473,-66.1357C720.473,-56.7037 694.583,-40.4246 676.331,-28.948"/>
<polygon fill="green" stroke="green" stroke-width="0.397239" points="678.153,-25.9587 667.824,-23.5985 674.426,-31.8846 678.153,-25.9587"/>
</g>
<!-- &#45;8 -->
<g id="node8" class="node"><title>&#45;8</title>
<polygon fill="lightgray" stroke="black" points="885.5,-83.6985 861.5,-83.6985 861.5,-65.6985 885.5,-65.6985 885.5,-83.6985"/>
<text text-anchor="middle" x="873.5" y="-72.4985" font-family="Times,serif" font-size="9.00">&#45;8</text>
</g>
<!-- &#45;9 -->
<g id="node9" class="node"><title>&#45;9</title>
<polygon fill="lightgray" stroke="black" points="927.5,-83.6985 903.5,-83.6985 903.5,-65.6985 927.5,-65.6985 927.5,-83.6985"/>
<text text-anchor="middle" x="915.5" y="-72.4985" font-family="Times,serif" font-size="9.00">&#45;9</text>
</g>
<!-- &#45;10 -->
<g id="node10" class="node"><title>&#45;10</title>
<polygon fill="lightgray" stroke="black" points="213,-83.6985 184,-83.6985 184,-65.6985 213,-65.6985 213,-83.6985"/>
<text text-anchor="middle" x="198.5" y="-72.4985" font-family="Times,serif" font-size="9.00">&#45;10</text>
</g>
<!-- &#45;10&#45;&gt;0 -->
<g id="edge11" class="edge"><title>&#45;10&#45;&gt;0</title>
<path fill="none" stroke="red" stroke-width="0.577561" d="M213.404,-66.1357C232.961,-56.2113 267.457,-38.7062 290.149,-27.1914"/>
<polygon fill="red" stroke="red" stroke-width="0.577561" points="292.026,-30.1634 299.36,-22.5171 288.859,-23.9212 292.026,-30.1634"/>
</g>
<!-- &#45;10&#45;&gt;2 -->
<g id="edge2" class="edge"><title>&#45;10&#45;&gt;2</title>
<path fill="none" stroke="red" stroke-width="1.03097" d="M195.302,-65.6548C192.517,-58.6501 188.341,-48.1471 184.541,-38.5892"/>
<polygon fill="red" stroke="red" stroke-width="1.03097" points="187.738,-37.1567 180.791,-29.1573 181.233,-39.7429 187.738,-37.1567"/>
</g>
<!-- &#45;11 -->
<g id="node11" class="node"><title>&#45;11</title>
<polygon fill="lightgray" stroke="black" points="29,-83.6985 0,-83.6985 0,-65.6985 29,-65.6985 29,-83.6985"/>
<text text-anchor="middle" x="14.5" y="-72.4985" font-family="Times,serif" font-size="9.00">&#45;11</text>
</g>
<!-- &#45;11&#45;&gt;2 -->
<g id="edge24" class="edge"><title>&#45;11&#45;&gt;2</title>
<path fill="none" stroke="red" stroke-width="1.04613" d="M29.0716,-68.4627C56.9908,-58.431 118.242,-36.4226 152.008,-24.2904"/>
<polygon fill="red" stroke="red" stroke-width="1.04613" points="153.309,-27.5418 161.537,-20.8664 150.942,-20.9541 153.309,-27.5418"/>
</g>
<!-- &#45;12 -->
<g id="node12" class="node"><title>&#45;12</title>
<polygon fill="lightgray" stroke="black" points="717,-83.6985 688,-83.6985 688,-65.6985 717,-65.6985 717,-83.6985"/>
<text text-anchor="middle" x="702.5" y="-72.4985" font-family="Times,serif" font-size="9.00">&#45;12</text>
</g>
<!-- &#45;12&#45;&gt;3 -->
<g id="edge20" class="edge"><title>&#45;12&#45;&gt;3</title>
<path fill="none" stroke="red" stroke-width="0.484079" d="M695.965,-65.6548C689.516,-57.7178 679.419,-45.2891 670.924,-34.8334"/>
<polygon fill="red" stroke="red" stroke-width="0.484079" points="673.577,-32.5489 664.555,-26.9946 668.144,-36.9629 673.577,-32.5489"/>
</g>
<!-- &#45;13 -->
<g id="node13" class="node"><title>&#45;13</title>
<polygon fill="lightgray" stroke="black" points="76,-83.6985 47,-83.6985 47,-65.6985 76,-65.6985 76,-83.6985"/>
<text text-anchor="middle" x="61.5" y="-72.4985" font-family="Times,serif" font-size="9.00">&#45;13</text>
</g>
<!-- &#45;13&#45;&gt;2 -->
<g id="edge9" class="edge"><title>&#45;13&#45;&gt;2</title>
<path fill="none" stroke="green" stroke-width="0.307984" d="M76.4035,-66.1357C95.9609,-56.2113 130.457,-38.7062 153.149,-27.1914"/>
<polygon fill="green" stroke="green" stroke-width="0.307984" points="155.026,-30.1634 162.36,-22.5171 151.859,-23.9212 155.026,-30.1634"/>
</g>
<!-- &#45;14 -->
<g id="node14" class="node"><title>&#45;14</title>
<polygon fill="lightgray" stroke="black" points="975,-83.6985 946,-83.6985 946,-65.6985 975,-65.6985 975,-83.6985"/>
<text text-anchor="middle" x="960.5" y="-72.4985" font-family="Times,serif" font-size="9.00">&#45;14</text>
</g>
<!-- &#45;15 -->
<g id="node15" class="node"><title>&#45;15</title>
<polygon fill="lightgray" stroke="black" points="123,-83.6985 94,-83.6985 94,-65.6985 123,-65.6985 123,-83.6985"/>
<text text-anchor="middle" x="108.5" y="-72.4985" font-family="Times,serif" font-size="9.00">&#45;15</text>
</g>
<!-- &#45;15&#45;&gt;2 -->
<g id="edge5" class="edge"><title>&#45;15&#45;&gt;2</title>
<path fill="none" stroke="green" stroke-width="0.326216" d="M117.816,-65.6548C127.845,-56.996 144.064,-42.9914 156.754,-32.0346"/>
<polygon fill="green" stroke="green" stroke-width="0.326216" points="159.202,-34.5458 164.483,-25.3614 154.627,-29.2475 159.202,-34.5458"/>
</g>
<!-- &#45;16 -->
<g id="node16" class="node"><title>&#45;16</title>
<polygon fill="lightgray" stroke="black" points="1022,-83.6985 993,-83.6985 993,-65.6985 1022,-65.6985 1022,-83.6985"/>
<text text-anchor="middle" x="1007.5" y="-72.4985" font-family="Times,serif" font-size="9.00">&#45;16</text>
</g>
<!-- &#45;17 -->
<g id="node17" class="node"><title>&#45;17</title>
<polygon fill="lightgray" stroke="black" points="444,-83.6985 415,-83.6985 415,-65.6985 444,-65.6985 444,-83.6985"/>
<text text-anchor="middle" x="429.5" y="-72.4985" font-family="Times,serif" font-size="9.00">&#45;17</text>
</g>
<!-- &#45;17&#45;&gt;1 -->
<g id="edge25" class="edge"><title>&#45;17&#45;&gt;1</title>
<path fill="none" stroke="green" stroke-width="0.497001" d="M444.095,-67.3975C467.415,-57.3303 513.251,-37.5422 540.853,-25.626"/>
<polygon fill="green" stroke="green" stroke-width="0.497001" points="542.328,-28.8016 550.122,-21.6246 539.554,-22.3749 542.328,-28.8016"/>
</g>
<!-- &#45;17&#45;&gt;2 -->
<g id="edge14" class="edge"><title>&#45;17&#45;&gt;2</title>
<path fill="none" stroke="green" stroke-width="0.126572" d="M414.854,-68.5368C411.782,-67.5332 408.55,-66.5346 405.5,-65.6985 331.554,-45.4248 242.424,-28.0868 200.11,-20.2752"/>
<polygon fill="green" stroke="green" stroke-width="0.126572" points="200.631,-16.8125 190.164,-18.4561 199.371,-23.6983 200.631,-16.8125"/>
</g>
<!-- &#45;18 -->
<g id="node18" class="node"><title>&#45;18</title>
<polygon fill="lightgray" stroke="black" points="350,-83.6985 321,-83.6985 321,-65.6985 350,-65.6985 350,-83.6985"/>
<text text-anchor="middle" x="335.5" y="-72.4985" font-family="Times,serif" font-size="9.00">&#45;18</text>
</g>
<!-- &#45;18&#45;&gt;0 -->
<g id="edge27" class="edge"><title>&#45;18&#45;&gt;0</title>
<path fill="none" stroke="green" stroke-width="0.125998" d="M332.302,-65.6548C329.517,-58.6501 325.341,-48.1471 321.541,-38.5892"/>
<polygon fill="green" stroke="green" stroke-width="0.125998" points="324.738,-37.1567 317.791,-29.1573 318.233,-39.7429 324.738,-37.1567"/>
</g>
<!-- &#45;19 -->
<g id="node19" class="node"><title>&#45;19</title>
<polygon fill="lightgray" stroke="black" points="670,-83.6985 641,-83.6985 641,-65.6985 670,-65.6985 670,-83.6985"/>
<text text-anchor="middle" x="655.5" y="-72.4985" font-family="Times,serif" font-size="9.00">&#45;19</text>
</g>
<!-- &#45;19&#45;&gt;1 -->
<g id="edge13" class="edge"><title>&#45;19&#45;&gt;1</title>
<path fill="none" stroke="red" stroke-width="0.109572" d="M642.708,-65.6548C627.656,-56.1902 602.447,-40.3388 584.513,-29.0619"/>
<polygon fill="red" stroke="red" stroke-width="0.109572" points="586.218,-26 575.89,-23.6398 582.492,-31.9258 586.218,-26"/>
</g>
<!-- &#45;19&#45;&gt;3 -->
<g id="edge4" class="edge"><title>&#45;19&#45;&gt;3</title>
<path fill="none" stroke="red" stroke-width="1.12177" d="M655.5,-65.6548C655.5,-59.0498 655.5,-49.3344 655.5,-40.2339"/>
<polygon fill="red" stroke="red" stroke-width="1.12177" points="659,-40.0563 655.5,-30.0563 652,-40.0564 659,-40.0563"/>
</g>
<!-- &#45;20 -->
<g id="node20" class="node"><title>&#45;20</title>
<polygon fill="lightgray" stroke="black" points="491,-83.6985 462,-83.6985 462,-65.6985 491,-65.6985 491,-83.6985"/>
<text text-anchor="middle" x="476.5" y="-72.4985" font-family="Times,serif" font-size="9.00">&#45;20</text>
</g>
<!-- &#45;20&#45;&gt;1 -->
<g id="edge18" class="edge"><title>&#45;20&#45;&gt;1</title>
<path fill="none" stroke="green" stroke-width="0.96458" d="M488.597,-65.6548C502.621,-56.3294 525.971,-40.8037 542.877,-29.5624"/>
<polygon fill="green" stroke="green" stroke-width="0.96458" points="545.117,-32.2762 551.506,-23.8246 541.241,-26.4472 545.117,-32.2762"/>
</g>
<!-- &#45;20&#45;&gt;2 -->
<g id="edge1" class="edge"><title>&#45;20&#45;&gt;2</title>
<path fill="none" stroke="red" stroke-width="0.160587" d="M461.511,-68.105C458.864,-67.2265 456.117,-66.3838 453.5,-65.6985 361.332,-41.5661 248.924,-25.3494 200.097,-18.9346"/>
<polygon fill="red" stroke="red" stroke-width="0.160587" points="200.512,-15.4593 190.146,-17.6482 199.614,-22.4015 200.512,-15.4593"/>
</g>
<!-- &#45;21 -->
<g id="node21" class="node"><title>&#45;21</title>
<polygon fill="lightgray" stroke="black" points="260,-83.6985 231,-83.6985 231,-65.6985 260,-65.6985 260,-83.6985"/>
<text text-anchor="middle" x="245.5" y="-72.4985" font-family="Times,serif" font-size="9.00">&#45;21</text>
</g>
<!-- &#45;21&#45;&gt;0 -->
<g id="edge8" class="edge"><title>&#45;21&#45;&gt;0</title>
<path fill="none" stroke="red" stroke-width="0.630179" d="M254.816,-65.6548C264.845,-56.996 281.064,-42.9914 293.754,-32.0346"/>
<polygon fill="red" stroke="red" stroke-width="0.630179" points="296.202,-34.5458 301.483,-25.3614 291.627,-29.2475 296.202,-34.5458"/>
</g>
<!-- &#45;21&#45;&gt;2 -->
<g id="edge22" class="edge"><title>&#45;21&#45;&gt;2</title>
<path fill="none" stroke="red" stroke-width="0.536523" d="M235.767,-65.6548C225.166,-56.8941 207.944,-42.6612 194.619,-31.6492"/>
<polygon fill="red" stroke="red" stroke-width="0.536523" points="196.472,-28.6402 186.534,-24.9678 192.013,-34.0361 196.472,-28.6402"/>
</g>
<!-- &#45;22 -->
<g id="node22" class="node"><title>&#45;22</title>
<polygon fill="lightgray" stroke="black" points="1069,-83.6985 1040,-83.6985 1040,-65.6985 1069,-65.6985 1069,-83.6985"/>
<text text-anchor="middle" x="1054.5" y="-72.4985" font-family="Times,serif" font-size="9.00">&#45;22</text>
</g>
<!-- &#45;23 -->
<g id="node23" class="node"><title>&#45;23</title>
<polygon fill="lightgray" stroke="black" points="623,-83.6985 594,-83.6985 594,-65.6985 623,-65.6985 623,-83.6985"/>
<text text-anchor="middle" x="608.5" y="-72.4985" font-family="Times,serif" font-size="9.00">&#45;23</text>
</g>
<!-- &#45;23&#45;&gt;1 -->
<g id="edge19" class="edge"><title>&#45;23&#45;&gt;1</title>
<path fill="none" stroke="green" stroke-width="0.212918" d="M602.243,-65.6548C596.13,-57.7964 586.592,-45.5348 578.51,-35.1446"/>
<polygon fill="green" stroke="green" stroke-width="0.212918" points="581.072,-32.7387 572.17,-26.9946 575.547,-37.0367 581.072,-32.7387"/>
</g>
<!-- &#45;24 -->
<g id="node24" class="node"><title>&#45;24</title>
<polygon fill="lightgray" stroke="black" points="397,-83.6985 368,-83.6985 368,-65.6985 397,-65.6985 397,-83.6985"/>
<text text-anchor="middle" x="382.5" y="-72.4985" font-family="Times,serif" font-size="9.00">&#45;24</text>
</g>
<!-- &#45;24&#45;&gt;0 -->
<g id="edge23" class="edge"><title>&#45;24&#45;&gt;0</title>
<path fill="none" stroke="red" stroke-width="0.10025" d="M372.767,-65.6548C362.166,-56.8941 344.944,-42.6612 331.619,-31.6492"/>
<polygon fill="red" stroke="red" stroke-width="0.10025" points="333.472,-28.6402 323.534,-24.9678 329.013,-34.0361 333.472,-28.6402"/>
</g>
<!-- 1&#45;&gt;1 -->
<g id="edge16" class="edge"><title>1&#45;&gt;1</title>
<path fill="none" stroke="green" stroke-width="0.377747" d="M575.288,-23.9294C585.522,-28.0713 596.349,-25.0446 596.349,-14.8492 596.349,-7.99927 591.462,-4.3853 585.15,-4.00735"/>
<polygon fill="green" stroke="green" stroke-width="0.377747" points="584.516,-0.565092 575.288,-5.76904 585.747,-7.45602 584.516,-0.565092"/>
</g>
</g>
</svg>
