<?xml version="1.0" encoding="UTF-8" standalone="no"?>
<!DOCTYPE svg PUBLIC "-//W3C//DTD SVG 1.1//EN"
 "http://www.w3.org/Graphics/SVG/1.1/DTD/svg11.dtd">
<!-- Generated by graphviz version 2.38.0 (20140413.2041)
 -->
<!-- Title: %3 Pages: 1 -->
<svg width="982pt" height="263pt"
 viewBox="0.00 0.00 982.00 262.69" xmlns="http://www.w3.org/2000/svg" xmlns:xlink="http://www.w3.org/1999/xlink">
<g id="graph0" class="graph" transform="scale(1 1) rotate(0) translate(4 258.693)">
<title>%3</title>
<polygon fill="white" stroke="none" points="-4,4 -4,-258.693 978,-258.693 978,4 -4,4"/>
<!-- &#45;1 -->
<g id="node1" class="node"><title>&#45;1</title>
<polygon fill="lightgray" stroke="black" points="260,-254.693 236,-254.693 236,-236.693 260,-236.693 260,-254.693"/>
<text text-anchor="middle" x="248" y="-243.493" font-family="Times,serif" font-size="9.00">&#45;1</text>
</g>
<!-- 3 -->
<g id="node28" class="node"><title>3</title>
<ellipse fill="lightblue" stroke="black" cx="655" cy="-100.347" rx="14.7" ry="14.7"/>
<text text-anchor="middle" x="655" y="-98.1467" font-family="Times,serif" font-size="9.00">3</text>
</g>
<!-- &#45;1&#45;&gt;3 -->
<g id="edge36" class="edge"><title>&#45;1&#45;&gt;3</title>
<path fill="none" stroke="green" stroke-width="0.32555" d="M260.196,-242.416C269.877,-240.668 283.769,-238.29 296,-236.693 338.054,-231.204 647.46,-232.065 676,-200.693 695.619,-179.128 681.127,-143.967 668.408,-121.775"/>
<polygon fill="green" stroke="green" stroke-width="0.32555" points="671.347,-119.872 663.17,-113.135 665.361,-123.501 671.347,-119.872"/>
</g>
<!-- 3030 -->
<g id="node30" class="node"><title>3030</title>
<ellipse fill="white" stroke="black" cx="67" cy="-175.945" rx="25" ry="25"/>
<text text-anchor="middle" x="67" y="-173.745" font-family="Times,serif" font-size="9.00">3030</text>
</g>
<!-- &#45;1&#45;&gt;3030 -->
<g id="edge15" class="edge"><title>&#45;1&#45;&gt;3030</title>
<path fill="none" stroke="red" stroke-width="0.200794" d="M235.988,-242.543C210.123,-237.613 147.643,-224.084 100,-200.693 98.1942,-199.807 96.3815,-198.823 94.5858,-197.775"/>
<polygon fill="red" stroke="red" stroke-width="0.200794" points="96.1609,-194.627 85.8595,-192.151 92.3683,-200.51 96.1609,-194.627"/>
</g>
<!-- &#45;2 -->
<g id="node2" class="node"><title>&#45;2</title>
<polygon fill="lightgray" stroke="black" points="261,-184.945 237,-184.945 237,-166.945 261,-166.945 261,-184.945"/>
<text text-anchor="middle" x="249" y="-173.745" font-family="Times,serif" font-size="9.00">&#45;2</text>
</g>
<!-- 2 -->
<g id="node27" class="node"><title>2</title>
<ellipse fill="lightblue" stroke="black" cx="187" cy="-100.347" rx="14.7" ry="14.7"/>
<text text-anchor="middle" x="187" y="-98.1467" font-family="Times,serif" font-size="9.00">2</text>
</g>
<!-- &#45;2&#45;&gt;2 -->
<g id="edge21" class="edge"><title>&#45;2&#45;&gt;2</title>
<path fill="none" stroke="green" stroke-width="0.474366" d="M242.128,-166.787C232.658,-155.545 215.325,-134.971 202.615,-119.883"/>
<polygon fill="green" stroke="green" stroke-width="0.474366" points="205.228,-117.552 196.109,-112.159 199.875,-122.062 205.228,-117.552"/>
</g>
<!-- &#45;2&#45;&gt;3 -->
<g id="edge32" class="edge"><title>&#45;2&#45;&gt;3</title>
<path fill="none" stroke="red" stroke-width="0.389281" d="M254.158,-166.494C257.874,-161.187 263.388,-154.704 270,-151.196 301.844,-134.303 549.342,-110.831 629.813,-103.574"/>
<polygon fill="red" stroke="red" stroke-width="0.389281" points="630.372,-107.038 640.02,-102.66 629.748,-100.066 630.372,-107.038"/>
</g>
<!-- &#45;3 -->
<g id="node3" class="node"><title>&#45;3</title>
<polygon fill="lightgray" stroke="black" points="974,-184.945 950,-184.945 950,-166.945 974,-166.945 974,-184.945"/>
<text text-anchor="middle" x="962" y="-173.745" font-family="Times,serif" font-size="9.00">&#45;3</text>
</g>
<!-- 0 -->
<g id="node25" class="node"><title>0</title>
<ellipse fill="lightblue" stroke="black" cx="922" cy="-100.347" rx="14.7" ry="14.7"/>
<text text-anchor="middle" x="922" y="-98.1467" font-family="Times,serif" font-size="9.00">0</text>
</g>
<!-- &#45;3&#45;&gt;0 -->
<g id="edge34" class="edge"><title>&#45;3&#45;&gt;0</title>
<path fill="none" stroke="green" stroke-width="0.343434" d="M957.566,-166.787C951.827,-156.226 941.61,-137.428 933.595,-122.681"/>
<polygon fill="green" stroke="green" stroke-width="0.343434" points="936.565,-120.817 928.715,-113.702 930.415,-124.159 936.565,-120.817"/>
</g>
<!-- &#45;4 -->
<g id="node4" class="node"><title>&#45;4</title>
<polygon fill="lightgray" stroke="black" points="377,-254.693 353,-254.693 353,-236.693 377,-236.693 377,-254.693"/>
<text text-anchor="middle" x="365" y="-243.493" font-family="Times,serif" font-size="9.00">&#45;4</text>
</g>
<!-- &#45;5 -->
<g id="node5" class="node"><title>&#45;5</title>
<polygon fill="lightgray" stroke="black" points="667,-184.945 643,-184.945 643,-166.945 667,-166.945 667,-184.945"/>
<text text-anchor="middle" x="655" y="-173.745" font-family="Times,serif" font-size="9.00">&#45;5</text>
</g>
<!-- 1 -->
<g id="node26" class="node"><title>1</title>
<ellipse fill="lightblue" stroke="black" cx="451" cy="-100.347" rx="14.7" ry="14.7"/>
<text text-anchor="middle" x="451" y="-98.1467" font-family="Times,serif" font-size="9.00">1</text>
</g>
<!-- &#45;5&#45;&gt;1 -->
<g id="edge8" class="edge"><title>&#45;5&#45;&gt;1</title>
<path fill="none" stroke="red" stroke-width="0.116183" d="M649.337,-166.796C645.335,-161.616 639.534,-155.162 633,-151.196 582.491,-120.543 512.824,-108.339 476.058,-103.803"/>
<polygon fill="red" stroke="red" stroke-width="0.116183" points="476.093,-100.285 465.761,-102.63 475.301,-107.239 476.093,-100.285"/>
</g>
<!-- &#45;5&#45;&gt;3 -->
<g id="edge27" class="edge"><title>&#45;5&#45;&gt;3</title>
<path fill="none" stroke="green" stroke-width="0.616923" d="M655,-166.787C655,-156.886 655,-139.744 655,-125.488"/>
<polygon fill="green" stroke="green" stroke-width="0.616923" points="658.5,-125.317 655,-115.317 651.5,-125.317 658.5,-125.317"/>
</g>
<!-- &#45;6 -->
<g id="node6" class="node"><title>&#45;6</title>
<polygon fill="lightgray" stroke="black" points="419,-254.693 395,-254.693 395,-236.693 419,-236.693 419,-254.693"/>
<text text-anchor="middle" x="407" y="-243.493" font-family="Times,serif" font-size="9.00">&#45;6</text>
</g>
<!-- &#45;7 -->
<g id="node7" class="node"><title>&#45;7</title>
<polygon fill="lightgray" stroke="black" points="219,-184.945 195,-184.945 195,-166.945 219,-166.945 219,-184.945"/>
<text text-anchor="middle" x="207" y="-173.745" font-family="Times,serif" font-size="9.00">&#45;7</text>
</g>
<!-- &#45;7&#45;&gt;1 -->
<g id="edge38" class="edge"><title>&#45;7&#45;&gt;1</title>
<path fill="none" stroke="red" stroke-width="0.165285" d="M212.268,-166.691C216.031,-161.466 221.554,-155.001 228,-151.196 292.265,-113.253 382.503,-104.156 425.836,-101.999"/>
<polygon fill="red" stroke="red" stroke-width="0.165285" points="426.191,-105.488 436.038,-101.58 425.903,-98.4939 426.191,-105.488"/>
</g>
<!-- &#45;7&#45;&gt;2 -->
<g id="edge24" class="edge"><title>&#45;7&#45;&gt;2</title>
<path fill="none" stroke="red" stroke-width="0.160688" d="M204.783,-166.787C202.033,-156.668 197.229,-138.987 193.306,-124.553"/>
<polygon fill="red" stroke="red" stroke-width="0.160688" points="196.648,-123.503 190.648,-114.771 189.893,-125.339 196.648,-123.503"/>
</g>
<!-- &#45;8 -->
<g id="node8" class="node"><title>&#45;8</title>
<polygon fill="lightgray" stroke="black" points="24,-184.945 0,-184.945 0,-166.945 24,-166.945 24,-184.945"/>
<text text-anchor="middle" x="12" y="-173.745" font-family="Times,serif" font-size="9.00">&#45;8</text>
</g>
<!-- &#45;8&#45;&gt;2 -->
<g id="edge16" class="edge"><title>&#45;8&#45;&gt;2</title>
<path fill="none" stroke="red" stroke-width="0.226106" d="M17.3895,-166.886C21.2031,-161.744 26.7385,-155.297 33,-151.196 73.7951,-124.474 130.049,-111.074 162.056,-105.214"/>
<polygon fill="red" stroke="red" stroke-width="0.226106" points="163.042,-108.595 172.302,-103.446 161.852,-101.697 163.042,-108.595"/>
</g>
<!-- &#45;9 -->
<g id="node9" class="node"><title>&#45;9</title>
<polygon fill="lightgray" stroke="black" points="303,-184.945 279,-184.945 279,-166.945 303,-166.945 303,-184.945"/>
<text text-anchor="middle" x="291" y="-173.745" font-family="Times,serif" font-size="9.00">&#45;9</text>
</g>
<!-- &#45;9&#45;&gt;1 -->
<g id="edge17" class="edge"><title>&#45;9&#45;&gt;1</title>
<path fill="none" stroke="red" stroke-width="0.790527" d="M296.775,-166.495C300.59,-161.458 305.986,-155.271 312,-151.196 347.945,-126.839 397.167,-112.892 426.366,-106.242"/>
<polygon fill="red" stroke="red" stroke-width="0.790527" points="427.476,-109.582 436.507,-104.043 425.993,-102.741 427.476,-109.582"/>
</g>
<!-- &#45;9&#45;&gt;2 -->
<g id="edge3" class="edge"><title>&#45;9&#45;&gt;2</title>
<path fill="none" stroke="red" stroke-width="0.268823" d="M284.923,-166.897C280.994,-162.011 275.585,-155.842 270,-151.196 251.203,-135.562 226.972,-121.601 209.549,-112.459"/>
<polygon fill="red" stroke="red" stroke-width="0.268823" points="210.667,-109.099 200.171,-107.657 207.477,-115.33 210.667,-109.099"/>
</g>
<!-- &#45;9&#45;&gt;3 -->
<g id="edge11" class="edge"><title>&#45;9&#45;&gt;3</title>
<path fill="none" stroke="green" stroke-width="0.191128" d="M296.176,-166.528C299.9,-161.235 305.415,-154.755 312,-151.196 339.945,-136.091 555.156,-111.989 629.689,-104.009"/>
<polygon fill="green" stroke="green" stroke-width="0.191128" points="630.437,-107.449 640.011,-102.911 629.697,-100.488 630.437,-107.449"/>
</g>
<!-- &#45;10 -->
<g id="node10" class="node"><title>&#45;10</title>
<polygon fill="lightgray" stroke="black" points="846.5,-184.945 817.5,-184.945 817.5,-166.945 846.5,-166.945 846.5,-184.945"/>
<text text-anchor="middle" x="832" y="-173.745" font-family="Times,serif" font-size="9.00">&#45;10</text>
</g>
<!-- &#45;10&#45;&gt;0 -->
<g id="edge35" class="edge"><title>&#45;10&#45;&gt;0</title>
<path fill="none" stroke="green" stroke-width="0.835439" d="M839.745,-166.753C844.327,-162.044 850.327,-156.107 856,-151.196 870.643,-138.52 888.177,-125.364 901.49,-115.752"/>
<polygon fill="green" stroke="green" stroke-width="0.835439" points="903.842,-118.374 909.946,-109.714 899.774,-112.677 903.842,-118.374"/>
</g>
<!-- &#45;10&#45;&gt;1 -->
<g id="edge25" class="edge"><title>&#45;10&#45;&gt;1</title>
<path fill="none" stroke="green" stroke-width="0.123607" d="M826.165,-166.512C822.016,-161.212 815.96,-154.73 809,-151.196 750.313,-121.394 547.415,-106.961 476.059,-102.721"/>
<polygon fill="green" stroke="green" stroke-width="0.123607" points="475.964,-99.2093 465.778,-102.127 475.56,-106.198 475.964,-99.2093"/>
</g>
<!-- &#45;10&#45;&gt;3 -->
<g id="edge7" class="edge"><title>&#45;10&#45;&gt;3</title>
<path fill="none" stroke="red" stroke-width="0.452198" d="M825.944,-166.903C821.702,-161.769 815.625,-155.324 809,-151.196 767.61,-125.406 711.568,-111.674 679.758,-105.503"/>
<polygon fill="red" stroke="red" stroke-width="0.452198" points="680.05,-101.998 669.581,-103.629 678.782,-108.883 680.05,-101.998"/>
</g>
<!-- &#45;11 -->
<g id="node11" class="node"><title>&#45;11</title>
<polygon fill="lightgray" stroke="black" points="350.5,-184.945 321.5,-184.945 321.5,-166.945 350.5,-166.945 350.5,-184.945"/>
<text text-anchor="middle" x="336" y="-173.745" font-family="Times,serif" font-size="9.00">&#45;11</text>
</g>
<!-- &#45;11&#45;&gt;1 -->
<g id="edge2" class="edge"><title>&#45;11&#45;&gt;1</title>
<path fill="none" stroke="red" stroke-width="0.414929" d="M342.713,-166.85C347.038,-161.946 352.964,-155.775 359,-151.196 380.815,-134.647 408.834,-120.305 428.189,-111.308"/>
<polygon fill="red" stroke="red" stroke-width="0.414929" points="429.784,-114.427 437.442,-107.106 426.89,-108.054 429.784,-114.427"/>
</g>
<!-- &#45;12 -->
<g id="node12" class="node"><title>&#45;12</title>
<polygon fill="lightgray" stroke="black" points="893.5,-184.945 864.5,-184.945 864.5,-166.945 893.5,-166.945 893.5,-184.945"/>
<text text-anchor="middle" x="879" y="-173.745" font-family="Times,serif" font-size="9.00">&#45;12</text>
</g>
<!-- &#45;12&#45;&gt;3 -->
<g id="edge31" class="edge"><title>&#45;12&#45;&gt;3</title>
<path fill="none" stroke="red" stroke-width="0.505387" d="M873.036,-166.749C868.834,-161.549 862.765,-155.09 856,-151.196 798.608,-118.163 719.755,-106.859 680.03,-103.116"/>
<polygon fill="red" stroke="red" stroke-width="0.505387" points="680.176,-99.6157 669.914,-102.249 679.578,-106.59 680.176,-99.6157"/>
</g>
<!-- &#45;13 -->
<g id="node13" class="node"><title>&#45;13</title>
<polygon fill="lightgray" stroke="black" points="397.5,-184.945 368.5,-184.945 368.5,-166.945 397.5,-166.945 397.5,-184.945"/>
<text text-anchor="middle" x="383" y="-173.745" font-family="Times,serif" font-size="9.00">&#45;13</text>
</g>
<!-- &#45;13&#45;&gt;1 -->
<g id="edge26" class="edge"><title>&#45;13&#45;&gt;1</title>
<path fill="none" stroke="red" stroke-width="0.382518" d="M390.537,-166.787C400.924,-155.545 419.934,-134.971 433.874,-119.883"/>
<polygon fill="red" stroke="red" stroke-width="0.382518" points="436.794,-121.879 441.01,-112.159 431.653,-117.129 436.794,-121.879"/>
</g>
<!-- &#45;14 -->
<g id="node14" class="node"><title>&#45;14</title>
<polygon fill="lightgray" stroke="black" points="466.5,-254.693 437.5,-254.693 437.5,-236.693 466.5,-236.693 466.5,-254.693"/>
<text text-anchor="middle" x="452" y="-243.493" font-family="Times,serif" font-size="9.00">&#45;14</text>
</g>
<!-- &#45;15 -->
<g id="node15" class="node"><title>&#45;15</title>
<polygon fill="lightgray" stroke="black" points="530.5,-184.945 501.5,-184.945 501.5,-166.945 530.5,-166.945 530.5,-184.945"/>
<text text-anchor="middle" x="516" y="-173.745" font-family="Times,serif" font-size="9.00">&#45;15</text>
</g>
<!-- &#45;15&#45;&gt;2 -->
<g id="edge4" class="edge"><title>&#45;15&#45;&gt;2</title>
<path fill="none" stroke="red" stroke-width="0.524402" d="M501.477,-168.637C488.862,-163.36 469.997,-155.953 453,-151.196 365.689,-126.762 258.867,-110.84 211.557,-104.481"/>
<polygon fill="red" stroke="red" stroke-width="0.524402" points="211.994,-101.008 201.622,-103.169 211.078,-107.948 211.994,-101.008"/>
</g>
<!-- &#45;15&#45;&gt;3 -->
<g id="edge37" class="edge"><title>&#45;15&#45;&gt;3</title>
<path fill="none" stroke="red" stroke-width="0.824734" d="M522.571,-166.654C526.842,-161.676 532.763,-155.497 539,-151.196 568.212,-131.054 606.862,-116.453 631.334,-108.439"/>
<polygon fill="red" stroke="red" stroke-width="0.824734" points="632.411,-111.77 640.885,-105.411 630.295,-105.097 632.411,-111.77"/>
</g>
<!-- &#45;16 -->
<g id="node16" class="node"><title>&#45;16</title>
<polygon fill="lightgray" stroke="black" points="444.5,-184.945 415.5,-184.945 415.5,-166.945 444.5,-166.945 444.5,-184.945"/>
<text text-anchor="middle" x="430" y="-173.745" font-family="Times,serif" font-size="9.00">&#45;16</text>
</g>
<!-- &#45;16&#45;&gt;1 -->
<g id="edge23" class="edge"><title>&#45;16&#45;&gt;1</title>
<path fill="none" stroke="red" stroke-width="0.288778" d="M432.328,-166.787C435.215,-156.668 440.26,-138.987 444.378,-124.553"/>
<polygon fill="red" stroke="red" stroke-width="0.288778" points="447.791,-125.347 447.17,-114.771 441.06,-123.427 447.791,-125.347"/>
</g>
<!-- &#45;17 -->
<g id="node17" class="node"><title>&#45;17</title>
<polygon fill="lightgray" stroke="black" points="752.5,-184.945 723.5,-184.945 723.5,-166.945 752.5,-166.945 752.5,-184.945"/>
<text text-anchor="middle" x="738" y="-173.745" font-family="Times,serif" font-size="9.00">&#45;17</text>
</g>
<!-- &#45;17&#45;&gt;3 -->
<g id="edge12" class="edge"><title>&#45;17&#45;&gt;3</title>
<path fill="none" stroke="green" stroke-width="0.22907" d="M728.8,-166.787C715.525,-155.016 690.709,-133.011 673.541,-117.788"/>
<polygon fill="green" stroke="green" stroke-width="0.22907" points="675.616,-114.95 665.812,-110.934 670.972,-120.188 675.616,-114.95"/>
</g>
<!-- &#45;18 -->
<g id="node18" class="node"><title>&#45;18</title>
<polygon fill="lightgray" stroke="black" points="513.5,-254.693 484.5,-254.693 484.5,-236.693 513.5,-236.693 513.5,-254.693"/>
<text text-anchor="middle" x="499" y="-243.493" font-family="Times,serif" font-size="9.00">&#45;18</text>
</g>
<!-- &#45;19 -->
<g id="node19" class="node"><title>&#45;19</title>
<polygon fill="lightgray" stroke="black" points="334.5,-254.693 305.5,-254.693 305.5,-236.693 334.5,-236.693 334.5,-254.693"/>
<text text-anchor="middle" x="320" y="-243.493" font-family="Times,serif" font-size="9.00">&#45;19</text>
</g>
<!-- &#45;19&#45;&gt;0 -->
<g id="edge28" class="edge"><title>&#45;19&#45;&gt;0</title>
<path fill="none" stroke="red" stroke-width="1.0244" d="M334.563,-239.176C337.64,-238.198 340.896,-237.3 344,-236.693 405.084,-224.754 856.334,-241.877 903,-200.693 924.028,-182.136 926.213,-148.068 924.883,-125.064"/>
<polygon fill="red" stroke="red" stroke-width="1.0244" points="928.369,-124.746 924.047,-115.073 921.393,-125.33 928.369,-124.746"/>
</g>
<!-- &#45;19&#45;&gt;1 -->
<g id="edge19" class="edge"><title>&#45;19&#45;&gt;1</title>
<path fill="none" stroke="red" stroke-width="0.263888" d="M334.721,-239.779C337.787,-238.758 340.999,-237.689 344,-236.693 392.422,-220.627 423.112,-242.04 453,-200.693 468.894,-178.706 464.505,-146.241 458.756,-124.469"/>
<polygon fill="red" stroke="red" stroke-width="0.263888" points="462.074,-123.348 455.907,-114.733 455.356,-125.314 462.074,-123.348"/>
</g>
<!-- &#45;19&#45;&gt;2 -->
<g id="edge9" class="edge"><title>&#45;19&#45;&gt;2</title>
<path fill="none" stroke="green" stroke-width="0.28636" d="M305.154,-242.056C273.335,-236.068 200.29,-220.426 186,-200.693 170.09,-178.723 174.105,-146.254 179.569,-124.477"/>
<polygon fill="green" stroke="green" stroke-width="0.28636" points="182.97,-125.311 182.286,-114.738 176.227,-123.429 182.97,-125.311"/>
</g>
<!-- &#45;19&#45;&gt;3030 -->
<g id="edge5" class="edge"><title>&#45;19&#45;&gt;3030</title>
<path fill="none" stroke="red" stroke-width="0.48052" d="M305.399,-242.144C259.346,-234.052 119.062,-208.992 100,-200.693 98.1555,-199.89 96.3127,-198.972 94.4941,-197.974"/>
<polygon fill="red" stroke="red" stroke-width="0.48052" points="96.0415,-194.813 85.7065,-192.481 92.3314,-200.749 96.0415,-194.813"/>
</g>
<!-- &#45;20 -->
<g id="node20" class="node"><title>&#45;20</title>
<polygon fill="lightgray" stroke="black" points="799.5,-184.945 770.5,-184.945 770.5,-166.945 799.5,-166.945 799.5,-184.945"/>
<text text-anchor="middle" x="785" y="-173.745" font-family="Times,serif" font-size="9.00">&#45;20</text>
</g>
<!-- &#45;20&#45;&gt;3 -->
<g id="edge6" class="edge"><title>&#45;20&#45;&gt;3</title>
<path fill="none" stroke="red" stroke-width="0.365912" d="M778.383,-166.72C774.094,-161.767 768.172,-155.59 762,-151.196 735.651,-132.437 701.121,-117.861 678.513,-109.441"/>
<polygon fill="red" stroke="red" stroke-width="0.365912" points="679.631,-106.123 669.037,-106.012 677.249,-112.705 679.631,-106.123"/>
</g>
<!-- &#45;21 -->
<g id="node21" class="node"><title>&#45;21</title>
<polygon fill="lightgray" stroke="black" points="138.5,-184.945 109.5,-184.945 109.5,-166.945 138.5,-166.945 138.5,-184.945"/>
<text text-anchor="middle" x="124" y="-173.745" font-family="Times,serif" font-size="9.00">&#45;21</text>
</g>
<!-- &#45;21&#45;&gt;2 -->
<g id="edge33" class="edge"><title>&#45;21&#45;&gt;2</title>
<path fill="none" stroke="green" stroke-width="0.11869" d="M130.983,-166.787C140.606,-155.545 158.218,-134.971 171.133,-119.883"/>
<polygon fill="green" stroke="green" stroke-width="0.11869" points="173.9,-122.032 177.744,-112.159 168.582,-117.48 173.9,-122.032"/>
</g>
<!-- &#45;22 -->
<g id="node22" class="node"><title>&#45;22</title>
<polygon fill="lightgray" stroke="black" points="560.5,-254.693 531.5,-254.693 531.5,-236.693 560.5,-236.693 560.5,-254.693"/>
<text text-anchor="middle" x="546" y="-243.493" font-family="Times,serif" font-size="9.00">&#45;22</text>
</g>
<!-- &#45;23 -->
<g id="node23" class="node"><title>&#45;23</title>
<polygon fill="lightgray" stroke="black" points="577.5,-184.945 548.5,-184.945 548.5,-166.945 577.5,-166.945 577.5,-184.945"/>
<text text-anchor="middle" x="563" y="-173.745" font-family="Times,serif" font-size="9.00">&#45;23</text>
</g>
<!-- &#45;23&#45;&gt;1 -->
<g id="edge30" class="edge"><title>&#45;23&#45;&gt;1</title>
<path fill="none" stroke="red" stroke-width="0.184678" d="M555.905,-166.913C551.358,-162.033 545.17,-155.865 539,-151.196 518.111,-135.389 491.683,-121.076 473.265,-111.884"/>
<polygon fill="red" stroke="red" stroke-width="0.184678" points="474.711,-108.695 464.19,-107.445 471.636,-114.983 474.711,-108.695"/>
</g>
<!-- &#45;23&#45;&gt;3 -->
<g id="edge13" class="edge"><title>&#45;23&#45;&gt;3</title>
<path fill="none" stroke="green" stroke-width="0.289601" d="M570.334,-166.677C574.695,-161.942 580.445,-156.004 586,-151.196 601.398,-137.866 620.214,-124.442 634.305,-114.888"/>
<polygon fill="green" stroke="green" stroke-width="0.289601" points="636.432,-117.676 642.8,-109.208 632.541,-111.857 636.432,-117.676"/>
</g>
<!-- &#45;24 -->
<g id="node24" class="node"><title>&#45;24</title>
<polygon fill="lightgray" stroke="black" points="624.5,-184.945 595.5,-184.945 595.5,-166.945 624.5,-166.945 624.5,-184.945"/>
<text text-anchor="middle" x="610" y="-173.745" font-family="Times,serif" font-size="9.00">&#45;24</text>
</g>
<!-- &#45;24&#45;&gt;1 -->
<g id="edge1" class="edge"><title>&#45;24&#45;&gt;1</title>
<path fill="none" stroke="red" stroke-width="0.372708" d="M603.156,-166.552C598.704,-161.536 592.527,-155.351 586,-151.196 550.493,-128.59 503.251,-114.148 475.098,-106.916"/>
<polygon fill="red" stroke="red" stroke-width="0.372708" points="475.856,-103.498 465.308,-104.495 474.175,-110.293 475.856,-103.498"/>
</g>
<!-- &#45;24&#45;&gt;3 -->
<g id="edge20" class="edge"><title>&#45;24&#45;&gt;3</title>
<path fill="none" stroke="green" stroke-width="0.571138" d="M614.988,-166.787C621.545,-156.063 633.294,-136.847 642.37,-122.002"/>
<polygon fill="green" stroke="green" stroke-width="0.571138" points="645.376,-123.797 647.606,-113.439 639.404,-120.145 645.376,-123.797"/>
</g>
<!-- 1&#45;&gt;1 -->
<g id="edge18" class="edge"><title>1&#45;&gt;1</title>
<path fill="none" stroke="red" stroke-width="0.388804" d="M461.428,-111.173C472.039,-117.541 483.849,-113.933 483.849,-100.347 483.849,-91.0064 478.267,-86.3818 471.33,-86.473"/>
<polygon fill="red" stroke="red" stroke-width="0.388804" points="469.956,-83.2338 461.428,-89.5204 472.015,-89.9242 469.956,-83.2338"/>
</g>
<!-- 7883 -->
<g id="node29" class="node"><title>7883</title>
<ellipse fill="white" stroke="black" cx="187" cy="-24.7487" rx="25" ry="25"/>
<text text-anchor="middle" x="187" y="-22.5487" font-family="Times,serif" font-size="9.00">7883</text>
</g>
<!-- 2&#45;&gt;7883 -->
<g id="edge14" class="edge"><title>2&#45;&gt;7883</title>
<path fill="none" stroke="green" stroke-width="0.386471" d="M181.684,-86.1889C180.598,-78.5979 180.128,-68.6795 180.277,-59.0788"/>
<polygon fill="green" stroke="green" stroke-width="0.386471" points="183.781,-59.0418 180.68,-48.9109 176.786,-58.7643 183.781,-59.0418"/>
</g>
<!-- 3&#45;&gt;3 -->
<g id="edge10" class="edge"><title>3&#45;&gt;3</title>
<path fill="none" stroke="red" stroke-width="0.100101" d="M665.428,-111.173C676.039,-117.541 687.849,-113.933 687.849,-100.347 687.849,-91.0064 682.267,-86.3818 675.33,-86.473"/>
<polygon fill="red" stroke="red" stroke-width="0.100101" points="673.956,-83.2338 665.428,-89.5204 676.015,-89.9242 673.956,-83.2338"/>
</g>
<!-- 7883&#45;&gt;2 -->
<g id="edge22" class="edge"><title>7883&#45;&gt;2</title>
<path fill="none" stroke="red" stroke-width="0.594934" d="M193.32,-48.9109C193.89,-57.5516 193.893,-67.3607 193.331,-76.0165"/>
<polygon fill="red" stroke="red" stroke-width="0.594934" points="189.826,-75.8907 192.316,-86.1889 196.792,-76.5859 189.826,-75.8907"/>
</g>
<!-- 3030&#45;&gt;2 -->
<g id="edge29" class="edge"><title>3030&#45;&gt;2</title>
<path fill="none" stroke="red" stroke-width="0.493519" d="M86.6628,-160.29C90.9982,-157.201 95.6083,-154.024 100,-151.196 121.611,-137.281 147.236,-122.834 165.054,-113.098"/>
<polygon fill="red" stroke="red" stroke-width="0.493519" points="166.952,-116.05 174.075,-108.207 163.616,-109.897 166.952,-116.05"/>
</g>
</g>
</svg>
