<?xml version="1.0" encoding="UTF-8" standalone="no"?>
<!DOCTYPE svg PUBLIC "-//W3C//DTD SVG 1.1//EN"
 "http://www.w3.org/Graphics/SVG/1.1/DTD/svg11.dtd">
<!-- Generated by graphviz version 2.38.0 (20140413.2041)
 -->
<!-- Title: %3 Pages: 1 -->
<svg width="1078pt" height="92pt"
 viewBox="0.00 0.00 1077.50 91.70" xmlns="http://www.w3.org/2000/svg" xmlns:xlink="http://www.w3.org/1999/xlink">
<g id="graph0" class="graph" transform="scale(1 1) rotate(0) translate(4 87.6985)">
<title>%3</title>
<polygon fill="white" stroke="none" points="-4,4 -4,-87.6985 1073.5,-87.6985 1073.5,4 -4,4"/>
<!-- &#45;1 -->
<g id="node1" class="node"><title>&#45;1</title>
<polygon fill="lightgray" stroke="black" points="208,-83.6985 184,-83.6985 184,-65.6985 208,-65.6985 208,-83.6985"/>
<text text-anchor="middle" x="196" y="-72.4985" font-family="Times,serif" font-size="9.00">&#45;1</text>
</g>
<!-- 0 -->
<g id="node25" class="node"><title>0</title>
<ellipse fill="lightblue" stroke="black" cx="128" cy="-14.8492" rx="14.7" ry="14.7"/>
<text text-anchor="middle" x="128" y="-12.6492" font-family="Times,serif" font-size="9.00">0</text>
</g>
<!-- &#45;1&#45;&gt;0 -->
<g id="edge6" class="edge"><title>&#45;1&#45;&gt;0</title>
<path fill="none" stroke="green" stroke-width="2.22926" d="M186.545,-65.6548C176.367,-56.996 159.905,-42.9914 147.025,-32.0346"/>
<polygon fill="green" stroke="green" stroke-width="2.22926" points="149.066,-29.1752 139.181,-25.3614 144.53,-34.5069 149.066,-29.1752"/>
</g>
<!-- 2 -->
<g id="node27" class="node"><title>2</title>
<ellipse fill="lightblue" stroke="black" cx="286" cy="-14.8492" rx="14.7" ry="14.7"/>
<text text-anchor="middle" x="286" y="-12.6492" font-family="Times,serif" font-size="9.00">2</text>
</g>
<!-- &#45;1&#45;&gt;2 -->
<g id="edge16" class="edge"><title>&#45;1&#45;&gt;2</title>
<path fill="none" stroke="red" stroke-width="0.592263" d="M208.138,-65.8967C222.765,-56.4946 247.578,-40.5455 265.262,-29.1793"/>
<polygon fill="red" stroke="red" stroke-width="0.592263" points="267.247,-32.0635 273.767,-23.7122 263.462,-26.175 267.247,-32.0635"/>
</g>
<!-- &#45;2 -->
<g id="node2" class="node"><title>&#45;2</title>
<polygon fill="lightgray" stroke="black" points="666,-83.6985 642,-83.6985 642,-65.6985 666,-65.6985 666,-83.6985"/>
<text text-anchor="middle" x="654" y="-72.4985" font-family="Times,serif" font-size="9.00">&#45;2</text>
</g>
<!-- 3 -->
<g id="node28" class="node"><title>3</title>
<ellipse fill="lightblue" stroke="black" cx="586" cy="-14.8492" rx="14.7" ry="14.7"/>
<text text-anchor="middle" x="586" y="-12.6492" font-family="Times,serif" font-size="9.00">3</text>
</g>
<!-- &#45;2&#45;&gt;3 -->
<g id="edge20" class="edge"><title>&#45;2&#45;&gt;3</title>
<path fill="none" stroke="red" stroke-width="1.49725" d="M644.545,-65.6548C634.367,-56.996 617.905,-42.9914 605.025,-32.0346"/>
<polygon fill="red" stroke="red" stroke-width="1.49725" points="607.066,-29.1752 597.181,-25.3614 602.53,-34.5069 607.066,-29.1752"/>
</g>
<!-- &#45;3 -->
<g id="node3" class="node"><title>&#45;3</title>
<polygon fill="lightgray" stroke="black" points="708,-83.6985 684,-83.6985 684,-65.6985 708,-65.6985 708,-83.6985"/>
<text text-anchor="middle" x="696" y="-72.4985" font-family="Times,serif" font-size="9.00">&#45;3</text>
</g>
<!-- &#45;4 -->
<g id="node4" class="node"><title>&#45;4</title>
<polygon fill="lightgray" stroke="black" points="298,-83.6985 274,-83.6985 274,-65.6985 298,-65.6985 298,-83.6985"/>
<text text-anchor="middle" x="286" y="-72.4985" font-family="Times,serif" font-size="9.00">&#45;4</text>
</g>
<!-- &#45;4&#45;&gt;0 -->
<g id="edge17" class="edge"><title>&#45;4&#45;&gt;0</title>
<path fill="none" stroke="red" stroke-width="0.297359" d="M273.864,-69.2552C247.67,-59.6644 185.449,-36.8833 151.346,-24.3971"/>
<polygon fill="red" stroke="red" stroke-width="0.297359" points="152.33,-21.0302 141.736,-20.8786 149.923,-27.6035 152.33,-21.0302"/>
</g>
<!-- &#45;4&#45;&gt;2 -->
<g id="edge5" class="edge"><title>&#45;4&#45;&gt;2</title>
<path fill="none" stroke="green" stroke-width="1.15553" d="M286,-65.6548C286,-59.0498 286,-49.3344 286,-40.2339"/>
<polygon fill="green" stroke="green" stroke-width="1.15553" points="289.5,-40.0563 286,-30.0563 282.5,-40.0564 289.5,-40.0563"/>
</g>
<!-- &#45;4&#45;&gt;3 -->
<g id="edge8" class="edge"><title>&#45;4&#45;&gt;3</title>
<path fill="none" stroke="green" stroke-width="1.88013" d="M298.446,-68.753C301.535,-67.6424 304.861,-66.5441 308,-65.6985 356.038,-52.7598 502.592,-29.0121 561.299,-19.7208"/>
<polygon fill="green" stroke="green" stroke-width="1.88013" points="562.172,-23.1264 571.505,-18.1113 561.082,-16.2118 562.172,-23.1264"/>
</g>
<!-- &#45;5 -->
<g id="node5" class="node"><title>&#45;5</title>
<polygon fill="lightgray" stroke="black" points="24,-83.6985 0,-83.6985 0,-65.6985 24,-65.6985 24,-83.6985"/>
<text text-anchor="middle" x="12" y="-72.4985" font-family="Times,serif" font-size="9.00">&#45;5</text>
</g>
<!-- &#45;5&#45;&gt;0 -->
<g id="edge14" class="edge"><title>&#45;5&#45;&gt;0</title>
<path fill="none" stroke="red" stroke-width="0.863834" d="M24.414,-67.5076C43.8317,-57.824 81.6642,-38.9569 105.838,-26.9015"/>
<polygon fill="red" stroke="red" stroke-width="0.863834" points="107.581,-29.9433 114.968,-22.3483 104.457,-23.6791 107.581,-29.9433"/>
</g>
<!-- &#45;6 -->
<g id="node6" class="node"><title>&#45;6</title>
<polygon fill="lightgray" stroke="black" points="750,-83.6985 726,-83.6985 726,-65.6985 750,-65.6985 750,-83.6985"/>
<text text-anchor="middle" x="738" y="-72.4985" font-family="Times,serif" font-size="9.00">&#45;6</text>
</g>
<!-- &#45;7 -->
<g id="node7" class="node"><title>&#45;7</title>
<polygon fill="lightgray" stroke="black" points="576,-83.6985 552,-83.6985 552,-65.6985 576,-65.6985 576,-83.6985"/>
<text text-anchor="middle" x="564" y="-72.4985" font-family="Times,serif" font-size="9.00">&#45;7</text>
</g>
<!-- 1 -->
<g id="node26" class="node"><title>1</title>
<ellipse fill="lightblue" stroke="black" cx="448" cy="-14.8492" rx="14.7" ry="14.7"/>
<text text-anchor="middle" x="448" y="-12.6492" font-family="Times,serif" font-size="9.00">1</text>
</g>
<!-- &#45;7&#45;&gt;1 -->
<g id="edge13" class="edge"><title>&#45;7&#45;&gt;1</title>
<path fill="none" stroke="green" stroke-width="0.142407" d="M551.586,-67.5076C532.168,-57.824 494.336,-38.9569 470.162,-26.9015"/>
<polygon fill="green" stroke="green" stroke-width="0.142407" points="471.543,-23.6791 461.032,-22.3483 468.419,-29.9433 471.543,-23.6791"/>
</g>
<!-- &#45;7&#45;&gt;3 -->
<g id="edge11" class="edge"><title>&#45;7&#45;&gt;3</title>
<path fill="none" stroke="green" stroke-width="0.225961" d="M567.059,-65.6548C569.723,-58.6501 573.717,-48.1471 577.352,-38.5892"/>
<polygon fill="green" stroke="green" stroke-width="0.225961" points="580.656,-39.7484 580.939,-29.1573 574.113,-37.2601 580.656,-39.7484"/>
</g>
<!-- &#45;8 -->
<g id="node8" class="node"><title>&#45;8</title>
<polygon fill="lightgray" stroke="black" points="792,-83.6985 768,-83.6985 768,-65.6985 792,-65.6985 792,-83.6985"/>
<text text-anchor="middle" x="780" y="-72.4985" font-family="Times,serif" font-size="9.00">&#45;8</text>
</g>
<!-- &#45;9 -->
<g id="node9" class="node"><title>&#45;9</title>
<polygon fill="lightgray" stroke="black" points="834,-83.6985 810,-83.6985 810,-65.6985 834,-65.6985 834,-83.6985"/>
<text text-anchor="middle" x="822" y="-72.4985" font-family="Times,serif" font-size="9.00">&#45;9</text>
</g>
<!-- &#45;10 -->
<g id="node10" class="node"><title>&#45;10</title>
<polygon fill="lightgray" stroke="black" points="165.5,-83.6985 136.5,-83.6985 136.5,-65.6985 165.5,-65.6985 165.5,-83.6985"/>
<text text-anchor="middle" x="151" y="-72.4985" font-family="Times,serif" font-size="9.00">&#45;10</text>
</g>
<!-- &#45;10&#45;&gt;0 -->
<g id="edge10" class="edge"><title>&#45;10&#45;&gt;0</title>
<path fill="none" stroke="red" stroke-width="0.191937" d="M147.802,-65.6548C145.017,-58.6501 140.841,-48.1471 137.041,-38.5892"/>
<polygon fill="red" stroke="red" stroke-width="0.191937" points="140.238,-37.1567 133.291,-29.1573 133.733,-39.7429 140.238,-37.1567"/>
</g>
<!-- &#45;10&#45;&gt;2 -->
<g id="edge2" class="edge"><title>&#45;10&#45;&gt;2</title>
<path fill="none" stroke="green" stroke-width="0.587791" d="M165.704,-67.3975C189.198,-57.3303 235.376,-37.5422 263.184,-25.626"/>
<polygon fill="green" stroke="green" stroke-width="0.587791" points="264.709,-28.7805 272.522,-21.6246 261.952,-22.3463 264.709,-28.7805"/>
</g>
<!-- &#45;11 -->
<g id="node11" class="node"><title>&#45;11</title>
<polygon fill="lightgray" stroke="black" points="345.5,-83.6985 316.5,-83.6985 316.5,-65.6985 345.5,-65.6985 345.5,-83.6985"/>
<text text-anchor="middle" x="331" y="-72.4985" font-family="Times,serif" font-size="9.00">&#45;11</text>
</g>
<!-- &#45;11&#45;&gt;1 -->
<g id="edge3" class="edge"><title>&#45;11&#45;&gt;1</title>
<path fill="none" stroke="red" stroke-width="0.542912" d="M345.818,-66.3718C366.048,-56.3692 402.471,-38.3604 425.923,-26.7648"/>
<polygon fill="red" stroke="red" stroke-width="0.542912" points="427.682,-29.7996 435.095,-22.2299 424.58,-23.5247 427.682,-29.7996"/>
</g>
<!-- &#45;11&#45;&gt;2 -->
<g id="edge22" class="edge"><title>&#45;11&#45;&gt;2</title>
<path fill="none" stroke="green" stroke-width="0.23761" d="M324.743,-65.6548C318.63,-57.7964 309.092,-45.5348 301.01,-35.1446"/>
<polygon fill="green" stroke="green" stroke-width="0.23761" points="303.572,-32.7387 294.67,-26.9946 298.047,-37.0367 303.572,-32.7387"/>
</g>
<!-- &#45;12 -->
<g id="node12" class="node"><title>&#45;12</title>
<polygon fill="lightgray" stroke="black" points="623.5,-83.6985 594.5,-83.6985 594.5,-65.6985 623.5,-65.6985 623.5,-83.6985"/>
<text text-anchor="middle" x="609" y="-72.4985" font-family="Times,serif" font-size="9.00">&#45;12</text>
</g>
<!-- &#45;12&#45;&gt;3 -->
<g id="edge19" class="edge"><title>&#45;12&#45;&gt;3</title>
<path fill="none" stroke="red" stroke-width="0.849466" d="M605.802,-65.6548C603.017,-58.6501 598.841,-48.1471 595.041,-38.5892"/>
<polygon fill="red" stroke="red" stroke-width="0.849466" points="598.238,-37.1567 591.291,-29.1573 591.733,-39.7429 598.238,-37.1567"/>
</g>
<!-- &#45;13 -->
<g id="node13" class="node"><title>&#45;13</title>
<polygon fill="lightgray" stroke="black" points="255.5,-83.6985 226.5,-83.6985 226.5,-65.6985 255.5,-65.6985 255.5,-83.6985"/>
<text text-anchor="middle" x="241" y="-72.4985" font-family="Times,serif" font-size="9.00">&#45;13</text>
</g>
<!-- &#45;13&#45;&gt;2 -->
<g id="edge9" class="edge"><title>&#45;13&#45;&gt;2</title>
<path fill="none" stroke="green" stroke-width="0.349004" d="M247.257,-65.6548C253.37,-57.7964 262.908,-45.5348 270.99,-35.1446"/>
<polygon fill="green" stroke="green" stroke-width="0.349004" points="273.953,-37.0367 277.33,-26.9946 268.428,-32.7387 273.953,-37.0367"/>
</g>
<!-- &#45;14 -->
<g id="node14" class="node"><title>&#45;14</title>
<polygon fill="lightgray" stroke="black" points="881.5,-83.6985 852.5,-83.6985 852.5,-65.6985 881.5,-65.6985 881.5,-83.6985"/>
<text text-anchor="middle" x="867" y="-72.4985" font-family="Times,serif" font-size="9.00">&#45;14</text>
</g>
<!-- &#45;15 -->
<g id="node15" class="node"><title>&#45;15</title>
<polygon fill="lightgray" stroke="black" points="392.5,-83.6985 363.5,-83.6985 363.5,-65.6985 392.5,-65.6985 392.5,-83.6985"/>
<text text-anchor="middle" x="378" y="-72.4985" font-family="Times,serif" font-size="9.00">&#45;15</text>
</g>
<!-- &#45;15&#45;&gt;1 -->
<g id="edge7" class="edge"><title>&#45;15&#45;&gt;1</title>
<path fill="none" stroke="green" stroke-width="0.488477" d="M387.733,-65.6548C398.334,-56.8941 415.556,-42.6612 428.881,-31.6492"/>
<polygon fill="green" stroke="green" stroke-width="0.488477" points="431.487,-34.0361 436.966,-24.9678 427.028,-28.6402 431.487,-34.0361"/>
</g>
<!-- &#45;15&#45;&gt;2 -->
<g id="edge4" class="edge"><title>&#45;15&#45;&gt;2</title>
<path fill="none" stroke="green" stroke-width="0.564221" d="M365.208,-65.6548C350.156,-56.1902 324.947,-40.3388 307.013,-29.0619"/>
<polygon fill="green" stroke="green" stroke-width="0.564221" points="308.718,-26 298.39,-23.6398 304.992,-31.9258 308.718,-26"/>
</g>
<!-- &#45;16 -->
<g id="node16" class="node"><title>&#45;16</title>
<polygon fill="lightgray" stroke="black" points="928.5,-83.6985 899.5,-83.6985 899.5,-65.6985 928.5,-65.6985 928.5,-83.6985"/>
<text text-anchor="middle" x="914" y="-72.4985" font-family="Times,serif" font-size="9.00">&#45;16</text>
</g>
<!-- &#45;17 -->
<g id="node17" class="node"><title>&#45;17</title>
<polygon fill="lightgray" stroke="black" points="533.5,-83.6985 504.5,-83.6985 504.5,-65.6985 533.5,-65.6985 533.5,-83.6985"/>
<text text-anchor="middle" x="519" y="-72.4985" font-family="Times,serif" font-size="9.00">&#45;17</text>
</g>
<!-- &#45;17&#45;&gt;1 -->
<g id="edge23" class="edge"><title>&#45;17&#45;&gt;1</title>
<path fill="none" stroke="red" stroke-width="0.216606" d="M509.128,-65.6548C498.273,-56.8107 480.574,-42.3896 467.007,-31.3354"/>
<polygon fill="red" stroke="red" stroke-width="0.216606" points="469.155,-28.571 459.191,-24.9678 464.733,-33.9977 469.155,-28.571"/>
</g>
<!-- &#45;18 -->
<g id="node18" class="node"><title>&#45;18</title>
<polygon fill="lightgray" stroke="black" points="71.5,-83.6985 42.5,-83.6985 42.5,-65.6985 71.5,-65.6985 71.5,-83.6985"/>
<text text-anchor="middle" x="57" y="-72.4985" font-family="Times,serif" font-size="9.00">&#45;18</text>
</g>
<!-- &#45;18&#45;&gt;0 -->
<g id="edge24" class="edge"><title>&#45;18&#45;&gt;0</title>
<path fill="none" stroke="red" stroke-width="0.190672" d="M66.8722,-65.6548C77.7269,-56.8107 95.4263,-42.3896 108.993,-31.3354"/>
<polygon fill="red" stroke="red" stroke-width="0.190672" points="111.267,-33.9977 116.809,-24.9678 106.845,-28.571 111.267,-33.9977"/>
</g>
<!-- &#45;19 -->
<g id="node19" class="node"><title>&#45;19</title>
<polygon fill="lightgray" stroke="black" points="486.5,-83.6985 457.5,-83.6985 457.5,-65.6985 486.5,-65.6985 486.5,-83.6985"/>
<text text-anchor="middle" x="472" y="-72.4985" font-family="Times,serif" font-size="9.00">&#45;19</text>
</g>
<!-- &#45;19&#45;&gt;1 -->
<g id="edge15" class="edge"><title>&#45;19&#45;&gt;1</title>
<path fill="none" stroke="green" stroke-width="0.574884" d="M468.663,-65.6548C465.719,-58.5579 461.285,-47.8701 457.278,-38.2124"/>
<polygon fill="green" stroke="green" stroke-width="0.574884" points="460.402,-36.6102 453.338,-28.7148 453.937,-39.2927 460.402,-36.6102"/>
</g>
<!-- &#45;20 -->
<g id="node20" class="node"><title>&#45;20</title>
<polygon fill="lightgray" stroke="black" points="439.5,-83.6985 410.5,-83.6985 410.5,-65.6985 439.5,-65.6985 439.5,-83.6985"/>
<text text-anchor="middle" x="425" y="-72.4985" font-family="Times,serif" font-size="9.00">&#45;20</text>
</g>
<!-- &#45;20&#45;&gt;1 -->
<g id="edge18" class="edge"><title>&#45;20&#45;&gt;1</title>
<path fill="none" stroke="red" stroke-width="0.979101" d="M428.198,-65.6548C430.983,-58.6501 435.159,-48.1471 438.959,-38.5892"/>
<polygon fill="red" stroke="red" stroke-width="0.979101" points="442.267,-39.7429 442.709,-29.1573 435.762,-37.1567 442.267,-39.7429"/>
</g>
<!-- &#45;20&#45;&gt;2 -->
<g id="edge1" class="edge"><title>&#45;20&#45;&gt;2</title>
<path fill="none" stroke="green" stroke-width="0.368212" d="M410.387,-67.6169C386.195,-57.5486 337.642,-37.3418 308.873,-25.3687"/>
<polygon fill="green" stroke="green" stroke-width="0.368212" points="310.172,-22.1183 299.595,-21.5072 307.482,-28.5809 310.172,-22.1183"/>
</g>
<!-- &#45;21 -->
<g id="node21" class="node"><title>&#45;21</title>
<polygon fill="lightgray" stroke="black" points="975.5,-83.6985 946.5,-83.6985 946.5,-65.6985 975.5,-65.6985 975.5,-83.6985"/>
<text text-anchor="middle" x="961" y="-72.4985" font-family="Times,serif" font-size="9.00">&#45;21</text>
</g>
<!-- &#45;22 -->
<g id="node22" class="node"><title>&#45;22</title>
<polygon fill="lightgray" stroke="black" points="1022.5,-83.6985 993.5,-83.6985 993.5,-65.6985 1022.5,-65.6985 1022.5,-83.6985"/>
<text text-anchor="middle" x="1008" y="-72.4985" font-family="Times,serif" font-size="9.00">&#45;22</text>
</g>
<!-- &#45;23 -->
<g id="node23" class="node"><title>&#45;23</title>
<polygon fill="lightgray" stroke="black" points="1069.5,-83.6985 1040.5,-83.6985 1040.5,-65.6985 1069.5,-65.6985 1069.5,-83.6985"/>
<text text-anchor="middle" x="1055" y="-72.4985" font-family="Times,serif" font-size="9.00">&#45;23</text>
</g>
<!-- &#45;24 -->
<g id="node24" class="node"><title>&#45;24</title>
<polygon fill="lightgray" stroke="black" points="118.5,-83.6985 89.5,-83.6985 89.5,-65.6985 118.5,-65.6985 118.5,-83.6985"/>
<text text-anchor="middle" x="104" y="-72.4985" font-family="Times,serif" font-size="9.00">&#45;24</text>
</g>
<!-- &#45;24&#45;&gt;0 -->
<g id="edge21" class="edge"><title>&#45;24&#45;&gt;0</title>
<path fill="none" stroke="red" stroke-width="1.15175" d="M107.337,-65.6548C110.281,-58.5579 114.715,-47.8701 118.722,-38.2124"/>
<polygon fill="red" stroke="red" stroke-width="1.15175" points="122.063,-39.2927 122.662,-28.7148 115.598,-36.6102 122.063,-39.2927"/>
</g>
<!-- 1&#45;&gt;1 -->
<g id="edge12" class="edge"><title>1&#45;&gt;1</title>
<path fill="none" stroke="green" stroke-width="0.306153" d="M459.788,-23.9294C470.022,-28.0713 480.849,-25.0446 480.849,-14.8492 480.849,-7.99927 475.962,-4.3853 469.65,-4.00735"/>
<polygon fill="green" stroke="green" stroke-width="0.306153" points="469.016,-0.565092 459.788,-5.76904 470.247,-7.45602 469.016,-0.565092"/>
</g>
</g>
</svg>
