<?xml version="1.0" encoding="UTF-8" standalone="no"?>
<!DOCTYPE svg PUBLIC "-//W3C//DTD SVG 1.1//EN"
 "http://www.w3.org/Graphics/SVG/1.1/DTD/svg11.dtd">
<!-- Generated by graphviz version 2.38.0 (20140413.2041)
 -->
<!-- Title: %3 Pages: 1 -->
<svg width="1077pt" height="92pt"
 viewBox="0.00 0.00 1077.00 91.70" xmlns="http://www.w3.org/2000/svg" xmlns:xlink="http://www.w3.org/1999/xlink">
<g id="graph0" class="graph" transform="scale(1 1) rotate(0) translate(4 87.6985)">
<title>%3</title>
<polygon fill="white" stroke="none" points="-4,4 -4,-87.6985 1073,-87.6985 1073,4 -4,4"/>
<!-- &#45;1 -->
<g id="node1" class="node"><title>&#45;1</title>
<polygon fill="lightgray" stroke="black" points="340.5,-83.6985 316.5,-83.6985 316.5,-65.6985 340.5,-65.6985 340.5,-83.6985"/>
<text text-anchor="middle" x="328.5" y="-72.4985" font-family="Times,serif" font-size="9.00">&#45;1</text>
</g>
<!-- 0 -->
<g id="node25" class="node"><title>0</title>
<ellipse fill="lightblue" stroke="black" cx="191.5" cy="-14.8492" rx="14.7" ry="14.7"/>
<text text-anchor="middle" x="191.5" y="-12.6492" font-family="Times,serif" font-size="9.00">0</text>
</g>
<!-- &#45;1&#45;&gt;0 -->
<g id="edge6" class="edge"><title>&#45;1&#45;&gt;0</title>
<path fill="none" stroke="green" stroke-width="1.80895" d="M316.342,-68.5648C293.496,-58.9178 243.822,-37.9426 214.487,-25.5557"/>
<polygon fill="green" stroke="green" stroke-width="1.80895" points="215.61,-22.2309 205.037,-21.5652 212.887,-28.6795 215.61,-22.2309"/>
</g>
<!-- 2 -->
<g id="node27" class="node"><title>2</title>
<ellipse fill="lightblue" stroke="black" cx="396.5" cy="-14.8492" rx="14.7" ry="14.7"/>
<text text-anchor="middle" x="396.5" y="-12.6492" font-family="Times,serif" font-size="9.00">2</text>
</g>
<!-- &#45;1&#45;&gt;2 -->
<g id="edge16" class="edge"><title>&#45;1&#45;&gt;2</title>
<path fill="none" stroke="green" stroke-width="0.943622" d="M337.955,-65.6548C348.133,-56.996 364.595,-42.9914 377.475,-32.0346"/>
<polygon fill="green" stroke="green" stroke-width="0.943622" points="379.97,-34.5069 385.319,-25.3614 375.434,-29.1752 379.97,-34.5069"/>
</g>
<!-- &#45;2 -->
<g id="node2" class="node"><title>&#45;2</title>
<polygon fill="lightgray" stroke="black" points="71.5,-83.6985 47.5,-83.6985 47.5,-65.6985 71.5,-65.6985 71.5,-83.6985"/>
<text text-anchor="middle" x="59.5" y="-72.4985" font-family="Times,serif" font-size="9.00">&#45;2</text>
</g>
<!-- &#45;2&#45;&gt;0 -->
<g id="edge3" class="edge"><title>&#45;2&#45;&gt;0</title>
<path fill="none" stroke="green" stroke-width="0.772145" d="M71.6816,-68.3599C93.7367,-58.6942 140.601,-38.1558 168.739,-25.8242"/>
<polygon fill="green" stroke="green" stroke-width="0.772145" points="170.424,-28.9074 178.178,-21.6877 167.614,-22.496 170.424,-28.9074"/>
</g>
<!-- 3 -->
<g id="node28" class="node"><title>3</title>
<ellipse fill="lightblue" stroke="black" cx="59.5" cy="-14.8492" rx="14.7" ry="14.7"/>
<text text-anchor="middle" x="59.5" y="-12.6492" font-family="Times,serif" font-size="9.00">3</text>
</g>
<!-- &#45;2&#45;&gt;3 -->
<g id="edge20" class="edge"><title>&#45;2&#45;&gt;3</title>
<path fill="none" stroke="red" stroke-width="1.47947" d="M59.5,-65.6548C59.5,-59.0498 59.5,-49.3344 59.5,-40.2339"/>
<polygon fill="red" stroke="red" stroke-width="1.47947" points="63.0001,-40.0563 59.5,-30.0563 56.0001,-40.0564 63.0001,-40.0563"/>
</g>
<!-- &#45;3 -->
<g id="node3" class="node"><title>&#45;3</title>
<polygon fill="lightgray" stroke="black" points="707.5,-83.6985 683.5,-83.6985 683.5,-65.6985 707.5,-65.6985 707.5,-83.6985"/>
<text text-anchor="middle" x="695.5" y="-72.4985" font-family="Times,serif" font-size="9.00">&#45;3</text>
</g>
<!-- &#45;4 -->
<g id="node4" class="node"><title>&#45;4</title>
<polygon fill="lightgray" stroke="black" points="161.5,-83.6985 137.5,-83.6985 137.5,-65.6985 161.5,-65.6985 161.5,-83.6985"/>
<text text-anchor="middle" x="149.5" y="-72.4985" font-family="Times,serif" font-size="9.00">&#45;4</text>
</g>
<!-- &#45;4&#45;&gt;0 -->
<g id="edge17" class="edge"><title>&#45;4&#45;&gt;0</title>
<path fill="none" stroke="red" stroke-width="0.726644" d="M155.34,-65.6548C160.975,-57.8934 169.728,-45.8369 177.211,-35.5302"/>
<polygon fill="red" stroke="red" stroke-width="0.726644" points="180.059,-37.5653 183.102,-27.4169 174.394,-33.4527 180.059,-37.5653"/>
</g>
<!-- &#45;4&#45;&gt;2 -->
<g id="edge5" class="edge"><title>&#45;4&#45;&gt;2</title>
<path fill="none" stroke="green" stroke-width="0.599428" d="M161.833,-68.6549C164.654,-67.598 167.659,-66.5479 170.5,-65.6985 242.589,-44.1442 330.144,-27.4497 371.963,-20.0388"/>
<polygon fill="green" stroke="green" stroke-width="0.599428" points="372.787,-23.4479 382.034,-18.2776 371.581,-16.5525 372.787,-23.4479"/>
</g>
<!-- &#45;4&#45;&gt;3 -->
<g id="edge8" class="edge"><title>&#45;4&#45;&gt;3</title>
<path fill="none" stroke="green" stroke-width="1.84145" d="M137.362,-65.8967C122.735,-56.4946 97.9217,-40.5455 80.2385,-29.1793"/>
<polygon fill="green" stroke="green" stroke-width="1.84145" points="82.0376,-26.175 71.7329,-23.7122 78.2526,-32.0635 82.0376,-26.175"/>
</g>
<!-- &#45;5 -->
<g id="node5" class="node"><title>&#45;5</title>
<polygon fill="lightgray" stroke="black" points="203.5,-83.6985 179.5,-83.6985 179.5,-65.6985 203.5,-65.6985 203.5,-83.6985"/>
<text text-anchor="middle" x="191.5" y="-72.4985" font-family="Times,serif" font-size="9.00">&#45;5</text>
</g>
<!-- &#45;5&#45;&gt;0 -->
<g id="edge13" class="edge"><title>&#45;5&#45;&gt;0</title>
<path fill="none" stroke="red" stroke-width="0.512759" d="M191.5,-65.6548C191.5,-59.0498 191.5,-49.3344 191.5,-40.2339"/>
<polygon fill="red" stroke="red" stroke-width="0.512759" points="195,-40.0563 191.5,-30.0563 188,-40.0564 195,-40.0563"/>
</g>
<!-- &#45;6 -->
<g id="node6" class="node"><title>&#45;6</title>
<polygon fill="lightgray" stroke="black" points="749.5,-83.6985 725.5,-83.6985 725.5,-65.6985 749.5,-65.6985 749.5,-83.6985"/>
<text text-anchor="middle" x="737.5" y="-72.4985" font-family="Times,serif" font-size="9.00">&#45;6</text>
</g>
<!-- &#45;7 -->
<g id="node7" class="node"><title>&#45;7</title>
<polygon fill="lightgray" stroke="black" points="665.5,-83.6985 641.5,-83.6985 641.5,-65.6985 665.5,-65.6985 665.5,-83.6985"/>
<text text-anchor="middle" x="653.5" y="-72.4985" font-family="Times,serif" font-size="9.00">&#45;7</text>
</g>
<!-- 1 -->
<g id="node26" class="node"><title>1</title>
<ellipse fill="lightblue" stroke="black" cx="561.5" cy="-14.8492" rx="14.7" ry="14.7"/>
<text text-anchor="middle" x="561.5" y="-12.6492" font-family="Times,serif" font-size="9.00">1</text>
</g>
<!-- &#45;7&#45;&gt;1 -->
<g id="edge24" class="edge"><title>&#45;7&#45;&gt;1</title>
<path fill="none" stroke="red" stroke-width="0.433201" d="M641.473,-66.1357C626.473,-56.7037 600.583,-40.4246 582.331,-28.948"/>
<polygon fill="red" stroke="red" stroke-width="0.433201" points="584.153,-25.9587 573.824,-23.5985 580.426,-31.8846 584.153,-25.9587"/>
</g>
<!-- &#45;8 -->
<g id="node8" class="node"><title>&#45;8</title>
<polygon fill="lightgray" stroke="black" points="791.5,-83.6985 767.5,-83.6985 767.5,-65.6985 791.5,-65.6985 791.5,-83.6985"/>
<text text-anchor="middle" x="779.5" y="-72.4985" font-family="Times,serif" font-size="9.00">&#45;8</text>
</g>
<!-- &#45;9 -->
<g id="node9" class="node"><title>&#45;9</title>
<polygon fill="lightgray" stroke="black" points="833.5,-83.6985 809.5,-83.6985 809.5,-65.6985 833.5,-65.6985 833.5,-83.6985"/>
<text text-anchor="middle" x="821.5" y="-72.4985" font-family="Times,serif" font-size="9.00">&#45;9</text>
</g>
<!-- &#45;10 -->
<g id="node10" class="node"><title>&#45;10</title>
<polygon fill="lightgray" stroke="black" points="298,-83.6985 269,-83.6985 269,-65.6985 298,-65.6985 298,-83.6985"/>
<text text-anchor="middle" x="283.5" y="-72.4985" font-family="Times,serif" font-size="9.00">&#45;10</text>
</g>
<!-- &#45;10&#45;&gt;0 -->
<g id="edge10" class="edge"><title>&#45;10&#45;&gt;0</title>
<path fill="none" stroke="red" stroke-width="0.311951" d="M270.708,-65.6548C255.656,-56.1902 230.447,-40.3388 212.513,-29.0619"/>
<polygon fill="red" stroke="red" stroke-width="0.311951" points="214.218,-26 203.89,-23.6398 210.492,-31.9258 214.218,-26"/>
</g>
<!-- &#45;10&#45;&gt;2 -->
<g id="edge2" class="edge"><title>&#45;10&#45;&gt;2</title>
<path fill="none" stroke="red" stroke-width="0.415612" d="M298.273,-66.1357C317.659,-56.2113 351.852,-38.7062 374.345,-27.1914"/>
<polygon fill="red" stroke="red" stroke-width="0.415612" points="376.169,-30.1895 383.475,-22.5171 372.979,-23.9586 376.169,-30.1895"/>
</g>
<!-- &#45;11 -->
<g id="node11" class="node"><title>&#45;11</title>
<polygon fill="lightgray" stroke="black" points="435,-83.6985 406,-83.6985 406,-65.6985 435,-65.6985 435,-83.6985"/>
<text text-anchor="middle" x="420.5" y="-72.4985" font-family="Times,serif" font-size="9.00">&#45;11</text>
</g>
<!-- &#45;11&#45;&gt;2 -->
<g id="edge22" class="edge"><title>&#45;11&#45;&gt;2</title>
<path fill="none" stroke="green" stroke-width="0.234933" d="M417.163,-65.6548C414.219,-58.5579 409.785,-47.8701 405.778,-38.2124"/>
<polygon fill="green" stroke="green" stroke-width="0.234933" points="408.902,-36.6102 401.838,-28.7148 402.437,-39.2927 408.902,-36.6102"/>
</g>
<!-- &#45;12 -->
<g id="node12" class="node"><title>&#45;12</title>
<polygon fill="lightgray" stroke="black" points="29,-83.6985 0,-83.6985 0,-65.6985 29,-65.6985 29,-83.6985"/>
<text text-anchor="middle" x="14.5" y="-72.4985" font-family="Times,serif" font-size="9.00">&#45;12</text>
</g>
<!-- &#45;12&#45;&gt;3 -->
<g id="edge19" class="edge"><title>&#45;12&#45;&gt;3</title>
<path fill="none" stroke="red" stroke-width="0.84894" d="M20.7571,-65.6548C26.87,-57.7964 36.4081,-45.5348 44.4905,-35.1446"/>
<polygon fill="red" stroke="red" stroke-width="0.84894" points="47.4528,-37.0367 50.8302,-26.9946 41.9276,-32.7387 47.4528,-37.0367"/>
</g>
<!-- &#45;13 -->
<g id="node13" class="node"><title>&#45;13</title>
<polygon fill="lightgray" stroke="black" points="388,-83.6985 359,-83.6985 359,-65.6985 388,-65.6985 388,-83.6985"/>
<text text-anchor="middle" x="373.5" y="-72.4985" font-family="Times,serif" font-size="9.00">&#45;13</text>
</g>
<!-- &#45;13&#45;&gt;2 -->
<g id="edge9" class="edge"><title>&#45;13&#45;&gt;2</title>
<path fill="none" stroke="green" stroke-width="0.348121" d="M376.698,-65.6548C379.483,-58.6501 383.659,-48.1471 387.459,-38.5892"/>
<polygon fill="green" stroke="green" stroke-width="0.348121" points="390.767,-39.7429 391.209,-29.1573 384.262,-37.1567 390.767,-39.7429"/>
</g>
<!-- &#45;14 -->
<g id="node14" class="node"><title>&#45;14</title>
<polygon fill="lightgray" stroke="black" points="881,-83.6985 852,-83.6985 852,-65.6985 881,-65.6985 881,-83.6985"/>
<text text-anchor="middle" x="866.5" y="-72.4985" font-family="Times,serif" font-size="9.00">&#45;14</text>
</g>
<!-- &#45;15 -->
<g id="node15" class="node"><title>&#45;15</title>
<polygon fill="lightgray" stroke="black" points="529,-83.6985 500,-83.6985 500,-65.6985 529,-65.6985 529,-83.6985"/>
<text text-anchor="middle" x="514.5" y="-72.4985" font-family="Times,serif" font-size="9.00">&#45;15</text>
</g>
<!-- &#45;15&#45;&gt;1 -->
<g id="edge7" class="edge"><title>&#45;15&#45;&gt;1</title>
<path fill="none" stroke="green" stroke-width="0.262037" d="M521.035,-65.6548C527.484,-57.7178 537.581,-45.2891 546.076,-34.8334"/>
<polygon fill="green" stroke="green" stroke-width="0.262037" points="548.856,-36.9629 552.445,-26.9946 543.423,-32.5489 548.856,-36.9629"/>
</g>
<!-- &#45;15&#45;&gt;2 -->
<g id="edge4" class="edge"><title>&#45;15&#45;&gt;2</title>
<path fill="none" stroke="red" stroke-width="0.11067" d="M499.555,-66.3718C479.152,-56.3692 442.418,-38.3604 418.765,-26.7648"/>
<polygon fill="red" stroke="red" stroke-width="0.11067" points="420.035,-23.4892 409.515,-22.2299 416.953,-29.7745 420.035,-23.4892"/>
</g>
<!-- &#45;16 -->
<g id="node16" class="node"><title>&#45;16</title>
<polygon fill="lightgray" stroke="black" points="928,-83.6985 899,-83.6985 899,-65.6985 928,-65.6985 928,-83.6985"/>
<text text-anchor="middle" x="913.5" y="-72.4985" font-family="Times,serif" font-size="9.00">&#45;16</text>
</g>
<!-- &#45;17 -->
<g id="node17" class="node"><title>&#45;17</title>
<polygon fill="lightgray" stroke="black" points="576,-83.6985 547,-83.6985 547,-65.6985 576,-65.6985 576,-83.6985"/>
<text text-anchor="middle" x="561.5" y="-72.4985" font-family="Times,serif" font-size="9.00">&#45;17</text>
</g>
<!-- &#45;17&#45;&gt;1 -->
<g id="edge23" class="edge"><title>&#45;17&#45;&gt;1</title>
<path fill="none" stroke="red" stroke-width="0.345386" d="M561.5,-65.6548C561.5,-59.0498 561.5,-49.3344 561.5,-40.2339"/>
<polygon fill="red" stroke="red" stroke-width="0.345386" points="565,-40.0563 561.5,-30.0563 558,-40.0564 565,-40.0563"/>
</g>
<!-- &#45;17&#45;&gt;2 -->
<g id="edge15" class="edge"><title>&#45;17&#45;&gt;2</title>
<path fill="none" stroke="red" stroke-width="0.167302" d="M546.857,-68.5648C518.267,-58.5409 454.791,-36.286 420.159,-24.1441"/>
<polygon fill="red" stroke="red" stroke-width="0.167302" points="421.003,-20.7311 410.408,-20.7254 418.687,-27.3369 421.003,-20.7311"/>
</g>
<!-- &#45;18 -->
<g id="node18" class="node"><title>&#45;18</title>
<polygon fill="lightgray" stroke="black" points="251,-83.6985 222,-83.6985 222,-65.6985 251,-65.6985 251,-83.6985"/>
<text text-anchor="middle" x="236.5" y="-72.4985" font-family="Times,serif" font-size="9.00">&#45;18</text>
</g>
<!-- &#45;18&#45;&gt;0 -->
<g id="edge12" class="edge"><title>&#45;18&#45;&gt;0</title>
<path fill="none" stroke="red" stroke-width="1.63275" d="M230.243,-65.6548C224.13,-57.7964 214.592,-45.5348 206.51,-35.1446"/>
<polygon fill="red" stroke="red" stroke-width="1.63275" points="209.072,-32.7387 200.17,-26.9946 203.547,-37.0367 209.072,-32.7387"/>
</g>
<!-- &#45;19 -->
<g id="node19" class="node"><title>&#45;19</title>
<polygon fill="lightgray" stroke="black" points="623,-83.6985 594,-83.6985 594,-65.6985 623,-65.6985 623,-83.6985"/>
<text text-anchor="middle" x="608.5" y="-72.4985" font-family="Times,serif" font-size="9.00">&#45;19</text>
</g>
<!-- &#45;19&#45;&gt;1 -->
<g id="edge14" class="edge"><title>&#45;19&#45;&gt;1</title>
<path fill="none" stroke="green" stroke-width="0.449279" d="M601.965,-65.6548C595.516,-57.7178 585.419,-45.2891 576.924,-34.8334"/>
<polygon fill="green" stroke="green" stroke-width="0.449279" points="579.577,-32.5489 570.555,-26.9946 574.144,-36.9629 579.577,-32.5489"/>
</g>
<!-- &#45;20 -->
<g id="node20" class="node"><title>&#45;20</title>
<polygon fill="lightgray" stroke="black" points="482,-83.6985 453,-83.6985 453,-65.6985 482,-65.6985 482,-83.6985"/>
<text text-anchor="middle" x="467.5" y="-72.4985" font-family="Times,serif" font-size="9.00">&#45;20</text>
</g>
<!-- &#45;20&#45;&gt;1 -->
<g id="edge18" class="edge"><title>&#45;20&#45;&gt;1</title>
<path fill="none" stroke="red" stroke-width="0.204539" d="M480.57,-65.6548C496.106,-56.0937 522.233,-40.0148 540.589,-28.7182"/>
<polygon fill="red" stroke="red" stroke-width="0.204539" points="542.457,-31.6786 549.139,-23.4566 538.788,-25.7171 542.457,-31.6786"/>
</g>
<!-- &#45;20&#45;&gt;2 -->
<g id="edge1" class="edge"><title>&#45;20&#45;&gt;2</title>
<path fill="none" stroke="green" stroke-width="0.254569" d="M457.628,-65.6548C446.773,-56.8107 429.074,-42.3896 415.507,-31.3354"/>
<polygon fill="green" stroke="green" stroke-width="0.254569" points="417.655,-28.571 407.691,-24.9678 413.233,-33.9977 417.655,-28.571"/>
</g>
<!-- &#45;21 -->
<g id="node21" class="node"><title>&#45;21</title>
<polygon fill="lightgray" stroke="black" points="975,-83.6985 946,-83.6985 946,-65.6985 975,-65.6985 975,-83.6985"/>
<text text-anchor="middle" x="960.5" y="-72.4985" font-family="Times,serif" font-size="9.00">&#45;21</text>
</g>
<!-- &#45;22 -->
<g id="node22" class="node"><title>&#45;22</title>
<polygon fill="lightgray" stroke="black" points="1022,-83.6985 993,-83.6985 993,-65.6985 1022,-65.6985 1022,-83.6985"/>
<text text-anchor="middle" x="1007.5" y="-72.4985" font-family="Times,serif" font-size="9.00">&#45;22</text>
</g>
<!-- &#45;23 -->
<g id="node23" class="node"><title>&#45;23</title>
<polygon fill="lightgray" stroke="black" points="1069,-83.6985 1040,-83.6985 1040,-65.6985 1069,-65.6985 1069,-83.6985"/>
<text text-anchor="middle" x="1054.5" y="-72.4985" font-family="Times,serif" font-size="9.00">&#45;23</text>
</g>
<!-- &#45;24 -->
<g id="node24" class="node"><title>&#45;24</title>
<polygon fill="lightgray" stroke="black" points="119,-83.6985 90,-83.6985 90,-65.6985 119,-65.6985 119,-83.6985"/>
<text text-anchor="middle" x="104.5" y="-72.4985" font-family="Times,serif" font-size="9.00">&#45;24</text>
</g>
<!-- &#45;24&#45;&gt;0 -->
<g id="edge21" class="edge"><title>&#45;24&#45;&gt;0</title>
<path fill="none" stroke="red" stroke-width="0.318917" d="M116.597,-65.6548C130.621,-56.3294 153.971,-40.8037 170.877,-29.5624"/>
<polygon fill="red" stroke="red" stroke-width="0.318917" points="173.117,-32.2762 179.506,-23.8246 169.241,-26.4472 173.117,-32.2762"/>
</g>
<!-- 1&#45;&gt;1 -->
<g id="edge11" class="edge"><title>1&#45;&gt;1</title>
<path fill="none" stroke="green" stroke-width="0.760111" d="M573.288,-23.9294C583.522,-28.0713 594.349,-25.0446 594.349,-14.8492 594.349,-7.99927 589.462,-4.3853 583.15,-4.00735"/>
<polygon fill="green" stroke="green" stroke-width="0.760111" points="582.516,-0.565092 573.288,-5.76904 583.747,-7.45602 582.516,-0.565092"/>
</g>
</g>
</svg>
