<?xml version="1.0" encoding="UTF-8" standalone="no"?>
<!DOCTYPE svg PUBLIC "-//W3C//DTD SVG 1.1//EN"
 "http://www.w3.org/Graphics/SVG/1.1/DTD/svg11.dtd">
<!-- Generated by graphviz version 2.38.0 (20140413.2041)
 -->
<!-- Title: %3 Pages: 1 -->
<svg width="1077pt" height="92pt"
 viewBox="0.00 0.00 1077.00 91.70" xmlns="http://www.w3.org/2000/svg" xmlns:xlink="http://www.w3.org/1999/xlink">
<g id="graph0" class="graph" transform="scale(1 1) rotate(0) translate(4 87.6985)">
<title>%3</title>
<polygon fill="white" stroke="none" points="-4,4 -4,-87.6985 1073,-87.6985 1073,4 -4,4"/>
<!-- &#45;1 -->
<g id="node1" class="node"><title>&#45;1</title>
<polygon fill="lightgray" stroke="black" points="118.5,-83.6985 94.5,-83.6985 94.5,-65.6985 118.5,-65.6985 118.5,-83.6985"/>
<text text-anchor="middle" x="106.5" y="-72.4985" font-family="Times,serif" font-size="9.00">&#45;1</text>
</g>
<!-- 0 -->
<g id="node25" class="node"><title>0</title>
<ellipse fill="lightblue" stroke="black" cx="127.5" cy="-14.8492" rx="14.7" ry="14.7"/>
<text text-anchor="middle" x="127.5" y="-12.6492" font-family="Times,serif" font-size="9.00">0</text>
</g>
<!-- &#45;1&#45;&gt;0 -->
<g id="edge4" class="edge"><title>&#45;1&#45;&gt;0</title>
<path fill="none" stroke="green" stroke-width="2.13683" d="M109.42,-65.6548C111.963,-58.6501 115.775,-48.1471 119.245,-38.5892"/>
<polygon fill="green" stroke="green" stroke-width="2.13683" points="122.547,-39.7515 122.669,-29.1573 115.967,-37.3628 122.547,-39.7515"/>
</g>
<!-- &#45;2 -->
<g id="node2" class="node"><title>&#45;2</title>
<polygon fill="lightgray" stroke="black" points="434.5,-83.6985 410.5,-83.6985 410.5,-65.6985 434.5,-65.6985 434.5,-83.6985"/>
<text text-anchor="middle" x="422.5" y="-72.4985" font-family="Times,serif" font-size="9.00">&#45;2</text>
</g>
<!-- 3 -->
<g id="node28" class="node"><title>3</title>
<ellipse fill="lightblue" stroke="black" cx="354.5" cy="-14.8492" rx="14.7" ry="14.7"/>
<text text-anchor="middle" x="354.5" y="-12.6492" font-family="Times,serif" font-size="9.00">3</text>
</g>
<!-- &#45;2&#45;&gt;3 -->
<g id="edge10" class="edge"><title>&#45;2&#45;&gt;3</title>
<path fill="none" stroke="red" stroke-width="0.215073" d="M413.045,-65.6548C402.867,-56.996 386.405,-42.9914 373.525,-32.0346"/>
<polygon fill="red" stroke="red" stroke-width="0.215073" points="375.566,-29.1752 365.681,-25.3614 371.03,-34.5069 375.566,-29.1752"/>
</g>
<!-- &#45;3 -->
<g id="node3" class="node"><title>&#45;3</title>
<polygon fill="lightgray" stroke="black" points="476.5,-83.6985 452.5,-83.6985 452.5,-65.6985 476.5,-65.6985 476.5,-83.6985"/>
<text text-anchor="middle" x="464.5" y="-72.4985" font-family="Times,serif" font-size="9.00">&#45;3</text>
</g>
<!-- &#45;4 -->
<g id="node4" class="node"><title>&#45;4</title>
<polygon fill="lightgray" stroke="black" points="344.5,-83.6985 320.5,-83.6985 320.5,-65.6985 344.5,-65.6985 344.5,-83.6985"/>
<text text-anchor="middle" x="332.5" y="-72.4985" font-family="Times,serif" font-size="9.00">&#45;4</text>
</g>
<!-- &#45;4&#45;&gt;3 -->
<g id="edge12" class="edge"><title>&#45;4&#45;&gt;3</title>
<path fill="none" stroke="green" stroke-width="2.43275" d="M335.559,-65.6548C338.223,-58.6501 342.217,-48.1471 345.852,-38.5892"/>
<polygon fill="green" stroke="green" stroke-width="2.43275" points="349.156,-39.7484 349.439,-29.1573 342.613,-37.2601 349.156,-39.7484"/>
</g>
<!-- &#45;5 -->
<g id="node5" class="node"><title>&#45;5</title>
<polygon fill="lightgray" stroke="black" points="160.5,-83.6985 136.5,-83.6985 136.5,-65.6985 160.5,-65.6985 160.5,-83.6985"/>
<text text-anchor="middle" x="148.5" y="-72.4985" font-family="Times,serif" font-size="9.00">&#45;5</text>
</g>
<!-- &#45;5&#45;&gt;0 -->
<g id="edge1" class="edge"><title>&#45;5&#45;&gt;0</title>
<path fill="none" stroke="red" stroke-width="1.16916" d="M145.58,-65.6548C143.037,-58.6501 139.225,-48.1471 135.755,-38.5892"/>
<polygon fill="red" stroke="red" stroke-width="1.16916" points="139.033,-37.3628 132.331,-29.1573 132.453,-39.7515 139.033,-37.3628"/>
</g>
<!-- &#45;6 -->
<g id="node6" class="node"><title>&#45;6</title>
<polygon fill="lightgray" stroke="black" points="518.5,-83.6985 494.5,-83.6985 494.5,-65.6985 518.5,-65.6985 518.5,-83.6985"/>
<text text-anchor="middle" x="506.5" y="-72.4985" font-family="Times,serif" font-size="9.00">&#45;6</text>
</g>
<!-- &#45;7 -->
<g id="node7" class="node"><title>&#45;7</title>
<polygon fill="lightgray" stroke="black" points="560.5,-83.6985 536.5,-83.6985 536.5,-65.6985 560.5,-65.6985 560.5,-83.6985"/>
<text text-anchor="middle" x="548.5" y="-72.4985" font-family="Times,serif" font-size="9.00">&#45;7</text>
</g>
<!-- 1 -->
<g id="node26" class="node"><title>1</title>
<ellipse fill="lightblue" stroke="black" cx="640.5" cy="-14.8492" rx="14.7" ry="14.7"/>
<text text-anchor="middle" x="640.5" y="-12.6492" font-family="Times,serif" font-size="9.00">1</text>
</g>
<!-- &#45;7&#45;&gt;1 -->
<g id="edge7" class="edge"><title>&#45;7&#45;&gt;1</title>
<path fill="none" stroke="green" stroke-width="0.164447" d="M560.527,-66.1357C575.527,-56.7037 601.417,-40.4246 619.669,-28.948"/>
<polygon fill="green" stroke="green" stroke-width="0.164447" points="621.574,-31.8846 628.176,-23.5985 617.847,-25.9587 621.574,-31.8846"/>
</g>
<!-- &#45;8 -->
<g id="node8" class="node"><title>&#45;8</title>
<polygon fill="lightgray" stroke="black" points="791.5,-83.6985 767.5,-83.6985 767.5,-65.6985 791.5,-65.6985 791.5,-83.6985"/>
<text text-anchor="middle" x="779.5" y="-72.4985" font-family="Times,serif" font-size="9.00">&#45;8</text>
</g>
<!-- &#45;9 -->
<g id="node9" class="node"><title>&#45;9</title>
<polygon fill="lightgray" stroke="black" points="833.5,-83.6985 809.5,-83.6985 809.5,-65.6985 833.5,-65.6985 833.5,-83.6985"/>
<text text-anchor="middle" x="821.5" y="-72.4985" font-family="Times,serif" font-size="9.00">&#45;9</text>
</g>
<!-- &#45;10 -->
<g id="node10" class="node"><title>&#45;10</title>
<polygon fill="lightgray" stroke="black" points="255,-83.6985 226,-83.6985 226,-65.6985 255,-65.6985 255,-83.6985"/>
<text text-anchor="middle" x="240.5" y="-72.4985" font-family="Times,serif" font-size="9.00">&#45;10</text>
</g>
<!-- &#45;10&#45;&gt;0 -->
<g id="edge15" class="edge"><title>&#45;10&#45;&gt;0</title>
<path fill="none" stroke="red" stroke-width="0.418471" d="M225.727,-66.1357C206.341,-56.2113 172.148,-38.7062 149.655,-27.1914"/>
<polygon fill="red" stroke="red" stroke-width="0.418471" points="151.021,-23.9586 140.525,-22.5171 147.831,-30.1895 151.021,-23.9586"/>
</g>
<!-- 2 -->
<g id="node27" class="node"><title>2</title>
<ellipse fill="lightblue" stroke="black" cx="262.5" cy="-14.8492" rx="14.7" ry="14.7"/>
<text text-anchor="middle" x="262.5" y="-12.6492" font-family="Times,serif" font-size="9.00">2</text>
</g>
<!-- &#45;10&#45;&gt;2 -->
<g id="edge3" class="edge"><title>&#45;10&#45;&gt;2</title>
<path fill="none" stroke="red" stroke-width="0.321151" d="M243.559,-65.6548C246.223,-58.6501 250.217,-48.1471 253.852,-38.5892"/>
<polygon fill="red" stroke="red" stroke-width="0.321151" points="257.156,-39.7484 257.439,-29.1573 250.613,-37.2601 257.156,-39.7484"/>
</g>
<!-- &#45;11 -->
<g id="node11" class="node"><title>&#45;11</title>
<polygon fill="lightgray" stroke="black" points="608,-83.6985 579,-83.6985 579,-65.6985 608,-65.6985 608,-83.6985"/>
<text text-anchor="middle" x="593.5" y="-72.4985" font-family="Times,serif" font-size="9.00">&#45;11</text>
</g>
<!-- &#45;11&#45;&gt;1 -->
<g id="edge6" class="edge"><title>&#45;11&#45;&gt;1</title>
<path fill="none" stroke="green" stroke-width="0.685992" d="M600.035,-65.6548C606.484,-57.7178 616.581,-45.2891 625.076,-34.8334"/>
<polygon fill="green" stroke="green" stroke-width="0.685992" points="627.856,-36.9629 631.445,-26.9946 622.423,-32.5489 627.856,-36.9629"/>
</g>
<!-- &#45;12 -->
<g id="node12" class="node"><title>&#45;12</title>
<polygon fill="lightgray" stroke="black" points="392,-83.6985 363,-83.6985 363,-65.6985 392,-65.6985 392,-83.6985"/>
<text text-anchor="middle" x="377.5" y="-72.4985" font-family="Times,serif" font-size="9.00">&#45;12</text>
</g>
<!-- &#45;12&#45;&gt;3 -->
<g id="edge9" class="edge"><title>&#45;12&#45;&gt;3</title>
<path fill="none" stroke="red" stroke-width="0.848835" d="M374.302,-65.6548C371.517,-58.6501 367.341,-48.1471 363.541,-38.5892"/>
<polygon fill="red" stroke="red" stroke-width="0.848835" points="366.738,-37.1567 359.791,-29.1573 360.233,-39.7429 366.738,-37.1567"/>
</g>
<!-- &#45;13 -->
<g id="node13" class="node"><title>&#45;13</title>
<polygon fill="lightgray" stroke="black" points="881,-83.6985 852,-83.6985 852,-65.6985 881,-65.6985 881,-83.6985"/>
<text text-anchor="middle" x="866.5" y="-72.4985" font-family="Times,serif" font-size="9.00">&#45;13</text>
</g>
<!-- &#45;14 -->
<g id="node14" class="node"><title>&#45;14</title>
<polygon fill="lightgray" stroke="black" points="928,-83.6985 899,-83.6985 899,-65.6985 928,-65.6985 928,-83.6985"/>
<text text-anchor="middle" x="913.5" y="-72.4985" font-family="Times,serif" font-size="9.00">&#45;14</text>
</g>
<!-- &#45;15 -->
<g id="node15" class="node"><title>&#45;15</title>
<polygon fill="lightgray" stroke="black" points="655,-83.6985 626,-83.6985 626,-65.6985 655,-65.6985 655,-83.6985"/>
<text text-anchor="middle" x="640.5" y="-72.4985" font-family="Times,serif" font-size="9.00">&#45;15</text>
</g>
<!-- &#45;15&#45;&gt;1 -->
<g id="edge11" class="edge"><title>&#45;15&#45;&gt;1</title>
<path fill="none" stroke="red" stroke-width="0.220915" d="M640.5,-65.6548C640.5,-59.0498 640.5,-49.3344 640.5,-40.2339"/>
<polygon fill="red" stroke="red" stroke-width="0.220915" points="644,-40.0563 640.5,-30.0563 637,-40.0564 644,-40.0563"/>
</g>
<!-- &#45;16 -->
<g id="node16" class="node"><title>&#45;16</title>
<polygon fill="lightgray" stroke="black" points="975,-83.6985 946,-83.6985 946,-65.6985 975,-65.6985 975,-83.6985"/>
<text text-anchor="middle" x="960.5" y="-72.4985" font-family="Times,serif" font-size="9.00">&#45;16</text>
</g>
<!-- &#45;17 -->
<g id="node17" class="node"><title>&#45;17</title>
<polygon fill="lightgray" stroke="black" points="702,-83.6985 673,-83.6985 673,-65.6985 702,-65.6985 702,-83.6985"/>
<text text-anchor="middle" x="687.5" y="-72.4985" font-family="Times,serif" font-size="9.00">&#45;17</text>
</g>
<!-- &#45;17&#45;&gt;1 -->
<g id="edge13" class="edge"><title>&#45;17&#45;&gt;1</title>
<path fill="none" stroke="green" stroke-width="0.265192" d="M680.965,-65.6548C674.516,-57.7178 664.419,-45.2891 655.924,-34.8334"/>
<polygon fill="green" stroke="green" stroke-width="0.265192" points="658.577,-32.5489 649.555,-26.9946 653.144,-36.9629 658.577,-32.5489"/>
</g>
<!-- &#45;18 -->
<g id="node18" class="node"><title>&#45;18</title>
<polygon fill="lightgray" stroke="black" points="208,-83.6985 179,-83.6985 179,-65.6985 208,-65.6985 208,-83.6985"/>
<text text-anchor="middle" x="193.5" y="-72.4985" font-family="Times,serif" font-size="9.00">&#45;18</text>
</g>
<!-- &#45;18&#45;&gt;0 -->
<g id="edge18" class="edge"><title>&#45;18&#45;&gt;0</title>
<path fill="none" stroke="green" stroke-width="0.277216" d="M184.323,-65.6548C174.444,-56.996 158.466,-42.9914 145.966,-32.0346"/>
<polygon fill="green" stroke="green" stroke-width="0.277216" points="148.18,-29.3208 138.352,-25.3614 143.566,-34.5849 148.18,-29.3208"/>
</g>
<!-- &#45;19 -->
<g id="node19" class="node"><title>&#45;19</title>
<polygon fill="lightgray" stroke="black" points="749,-83.6985 720,-83.6985 720,-65.6985 749,-65.6985 749,-83.6985"/>
<text text-anchor="middle" x="734.5" y="-72.4985" font-family="Times,serif" font-size="9.00">&#45;19</text>
</g>
<!-- &#45;19&#45;&gt;1 -->
<g id="edge5" class="edge"><title>&#45;19&#45;&gt;1</title>
<path fill="none" stroke="red" stroke-width="0.520568" d="M721.43,-65.6548C705.894,-56.0937 679.767,-40.0148 661.411,-28.7182"/>
<polygon fill="red" stroke="red" stroke-width="0.520568" points="663.212,-25.7171 652.861,-23.4566 659.543,-31.6786 663.212,-25.7171"/>
</g>
<!-- &#45;20 -->
<g id="node20" class="node"><title>&#45;20</title>
<polygon fill="lightgray" stroke="black" points="302,-83.6985 273,-83.6985 273,-65.6985 302,-65.6985 302,-83.6985"/>
<text text-anchor="middle" x="287.5" y="-72.4985" font-family="Times,serif" font-size="9.00">&#45;20</text>
</g>
<!-- &#45;20&#45;&gt;2 -->
<g id="edge2" class="edge"><title>&#45;20&#45;&gt;2</title>
<path fill="none" stroke="red" stroke-width="0.202571" d="M284.024,-65.6548C280.925,-58.4832 276.241,-47.6447 272.033,-37.9078"/>
<polygon fill="red" stroke="red" stroke-width="0.202571" points="275.24,-36.5058 268.06,-28.7148 268.814,-39.2828 275.24,-36.5058"/>
</g>
<!-- &#45;20&#45;&gt;3 -->
<g id="edge8" class="edge"><title>&#45;20&#45;&gt;3</title>
<path fill="none" stroke="red" stroke-width="0.248079" d="M296.816,-65.6548C306.845,-56.996 323.064,-42.9914 335.754,-32.0346"/>
<polygon fill="red" stroke="red" stroke-width="0.248079" points="338.202,-34.5458 343.483,-25.3614 333.627,-29.2475 338.202,-34.5458"/>
</g>
<!-- &#45;21 -->
<g id="node21" class="node"><title>&#45;21</title>
<polygon fill="lightgray" stroke="black" points="29,-83.6985 0,-83.6985 0,-65.6985 29,-65.6985 29,-83.6985"/>
<text text-anchor="middle" x="14.5" y="-72.4985" font-family="Times,serif" font-size="9.00">&#45;21</text>
</g>
<!-- &#45;21&#45;&gt;0 -->
<g id="edge14" class="edge"><title>&#45;21&#45;&gt;0</title>
<path fill="none" stroke="red" stroke-width="0.735544" d="M29.2728,-66.1357C48.6586,-56.2113 82.8523,-38.7062 105.345,-27.1914"/>
<polygon fill="red" stroke="red" stroke-width="0.735544" points="107.169,-30.1895 114.475,-22.5171 103.979,-23.9586 107.169,-30.1895"/>
</g>
<!-- &#45;22 -->
<g id="node22" class="node"><title>&#45;22</title>
<polygon fill="lightgray" stroke="black" points="1022,-83.6985 993,-83.6985 993,-65.6985 1022,-65.6985 1022,-83.6985"/>
<text text-anchor="middle" x="1007.5" y="-72.4985" font-family="Times,serif" font-size="9.00">&#45;22</text>
</g>
<!-- &#45;23 -->
<g id="node23" class="node"><title>&#45;23</title>
<polygon fill="lightgray" stroke="black" points="1069,-83.6985 1040,-83.6985 1040,-65.6985 1069,-65.6985 1069,-83.6985"/>
<text text-anchor="middle" x="1054.5" y="-72.4985" font-family="Times,serif" font-size="9.00">&#45;23</text>
</g>
<!-- &#45;24 -->
<g id="node24" class="node"><title>&#45;24</title>
<polygon fill="lightgray" stroke="black" points="76,-83.6985 47,-83.6985 47,-65.6985 76,-65.6985 76,-83.6985"/>
<text text-anchor="middle" x="61.5" y="-72.4985" font-family="Times,serif" font-size="9.00">&#45;24</text>
</g>
<!-- &#45;24&#45;&gt;0 -->
<g id="edge17" class="edge"><title>&#45;24&#45;&gt;0</title>
<path fill="none" stroke="green" stroke-width="0.172564" d="M70.677,-65.6548C80.5559,-56.996 96.5336,-42.9914 109.034,-32.0346"/>
<polygon fill="green" stroke="green" stroke-width="0.172564" points="111.434,-34.5849 116.648,-25.3614 106.82,-29.3208 111.434,-34.5849"/>
</g>
<!-- 1&#45;&gt;1 -->
<g id="edge16" class="edge"><title>1&#45;&gt;1</title>
<path fill="none" stroke="green" stroke-width="0.592783" d="M652.288,-23.9294C662.522,-28.0713 673.349,-25.0446 673.349,-14.8492 673.349,-7.99927 668.462,-4.3853 662.15,-4.00735"/>
<polygon fill="green" stroke="green" stroke-width="0.592783" points="661.516,-0.565092 652.288,-5.76904 662.747,-7.45602 661.516,-0.565092"/>
</g>
</g>
</svg>
