<?xml version="1.0" encoding="UTF-8" standalone="no"?>
<!DOCTYPE svg PUBLIC "-//W3C//DTD SVG 1.1//EN"
 "http://www.w3.org/Graphics/SVG/1.1/DTD/svg11.dtd">
<!-- Generated by graphviz version 2.38.0 (20140413.2041)
 -->
<!-- Title: %3 Pages: 1 -->
<svg width="1007pt" height="183pt"
 viewBox="0.00 0.00 1007.00 182.85" xmlns="http://www.w3.org/2000/svg" xmlns:xlink="http://www.w3.org/1999/xlink">
<g id="graph0" class="graph" transform="scale(1 1) rotate(0) translate(4 178.853)">
<title>%3</title>
<polygon fill="white" stroke="none" points="-4,4 -4,-178.853 1003,-178.853 1003,4 -4,4"/>
<!-- &#45;1 -->
<g id="node1" class="node"><title>&#45;1</title>
<polygon fill="lightgray" stroke="black" points="298.5,-102.276 274.5,-102.276 274.5,-84.2756 298.5,-84.2756 298.5,-102.276"/>
<text text-anchor="middle" x="286.5" y="-91.0756" font-family="Times,serif" font-size="9.00">&#45;1</text>
</g>
<!-- 0 -->
<g id="node25" class="node"><title>0</title>
<ellipse fill="lightblue" stroke="black" cx="328.5" cy="-14.8492" rx="14.7" ry="14.7"/>
<text text-anchor="middle" x="328.5" y="-12.6492" font-family="Times,serif" font-size="9.00">0</text>
</g>
<!-- &#45;1&#45;&gt;0 -->
<g id="edge3" class="edge"><title>&#45;1&#45;&gt;0</title>
<path fill="none" stroke="green" stroke-width="1.82772" d="M290.995,-84.0967C297.093,-72.9993 308.209,-52.7725 316.762,-37.2095"/>
<polygon fill="green" stroke="green" stroke-width="1.82772" points="319.939,-38.6948 321.688,-28.2453 313.804,-35.3235 319.939,-38.6948"/>
</g>
<!-- &#45;2 -->
<g id="node2" class="node"><title>&#45;2</title>
<polygon fill="lightgray" stroke="black" points="562.5,-102.276 538.5,-102.276 538.5,-84.2756 562.5,-84.2756 562.5,-102.276"/>
<text text-anchor="middle" x="550.5" y="-91.0756" font-family="Times,serif" font-size="9.00">&#45;2</text>
</g>
<!-- 3 -->
<g id="node28" class="node"><title>3</title>
<ellipse fill="lightblue" stroke="black" cx="505.5" cy="-14.8492" rx="14.7" ry="14.7"/>
<text text-anchor="middle" x="505.5" y="-12.6492" font-family="Times,serif" font-size="9.00">3</text>
</g>
<!-- &#45;2&#45;&gt;3 -->
<g id="edge26" class="edge"><title>&#45;2&#45;&gt;3</title>
<path fill="none" stroke="red" stroke-width="1.56037" d="M545.684,-84.0967C539.112,-72.9355 527.103,-52.5397 517.919,-36.9416"/>
<polygon fill="red" stroke="red" stroke-width="1.56037" points="520.73,-34.8164 512.64,-27.9751 514.698,-38.3681 520.73,-34.8164"/>
</g>
<!-- &#45;3 -->
<g id="node3" class="node"><title>&#45;3</title>
<polygon fill="lightgray" stroke="black" points="647.5,-174.853 623.5,-174.853 623.5,-156.853 647.5,-156.853 647.5,-174.853"/>
<text text-anchor="middle" x="635.5" y="-163.653" font-family="Times,serif" font-size="9.00">&#45;3</text>
</g>
<!-- &#45;4 -->
<g id="node4" class="node"><title>&#45;4</title>
<polygon fill="lightgray" stroke="black" points="340.5,-102.276 316.5,-102.276 316.5,-84.2756 340.5,-84.2756 340.5,-102.276"/>
<text text-anchor="middle" x="328.5" y="-91.0756" font-family="Times,serif" font-size="9.00">&#45;4</text>
</g>
<!-- &#45;4&#45;&gt;0 -->
<g id="edge23" class="edge"><title>&#45;4&#45;&gt;0</title>
<path fill="none" stroke="red" stroke-width="0.442478" d="M328.5,-84.0967C328.5,-73.6852 328.5,-55.238 328.5,-40.1455"/>
<polygon fill="red" stroke="red" stroke-width="0.442478" points="332,-39.9115 328.5,-29.9115 325,-39.9116 332,-39.9115"/>
</g>
<!-- 2 -->
<g id="node27" class="node"><title>2</title>
<ellipse fill="lightblue" stroke="black" cx="123.5" cy="-14.8492" rx="14.7" ry="14.7"/>
<text text-anchor="middle" x="123.5" y="-12.6492" font-family="Times,serif" font-size="9.00">2</text>
</g>
<!-- &#45;4&#45;&gt;2 -->
<g id="edge8" class="edge"><title>&#45;4&#45;&gt;2</title>
<path fill="none" stroke="red" stroke-width="0.656157" d="M324.017,-84.144C320.329,-78.1889 314.568,-70.3628 307.5,-65.6985 257.343,-32.5981 185.77,-21.3745 148.394,-17.6463"/>
<polygon fill="red" stroke="red" stroke-width="0.656157" points="148.652,-14.1554 138.379,-16.7475 148.026,-21.1274 148.652,-14.1554"/>
</g>
<!-- &#45;4&#45;&gt;3 -->
<g id="edge14" class="edge"><title>&#45;4&#45;&gt;3</title>
<path fill="none" stroke="green" stroke-width="2.29424" d="M340.888,-86.7269C353.005,-81.3142 371.99,-72.8716 388.5,-65.6985 421.134,-51.5196 459.046,-35.4381 482.658,-25.4681"/>
<polygon fill="green" stroke="green" stroke-width="2.29424" points="484.285,-28.5808 492.138,-21.4694 481.564,-22.1311 484.285,-28.5808"/>
</g>
<!-- &#45;5 -->
<g id="node5" class="node"><title>&#45;5</title>
<polygon fill="lightgray" stroke="black" points="689.5,-174.853 665.5,-174.853 665.5,-156.853 689.5,-156.853 689.5,-174.853"/>
<text text-anchor="middle" x="677.5" y="-163.653" font-family="Times,serif" font-size="9.00">&#45;5</text>
</g>
<!-- &#45;6 -->
<g id="node6" class="node"><title>&#45;6</title>
<polygon fill="lightgray" stroke="black" points="731.5,-174.853 707.5,-174.853 707.5,-156.853 731.5,-156.853 731.5,-174.853"/>
<text text-anchor="middle" x="719.5" y="-163.653" font-family="Times,serif" font-size="9.00">&#45;6</text>
</g>
<!-- &#45;7 -->
<g id="node7" class="node"><title>&#45;7</title>
<polygon fill="lightgray" stroke="black" points="773.5,-174.853 749.5,-174.853 749.5,-156.853 773.5,-156.853 773.5,-174.853"/>
<text text-anchor="middle" x="761.5" y="-163.653" font-family="Times,serif" font-size="9.00">&#45;7</text>
</g>
<!-- &#45;8 -->
<g id="node8" class="node"><title>&#45;8</title>
<polygon fill="lightgray" stroke="black" points="815.5,-174.853 791.5,-174.853 791.5,-156.853 815.5,-156.853 815.5,-174.853"/>
<text text-anchor="middle" x="803.5" y="-163.653" font-family="Times,serif" font-size="9.00">&#45;8</text>
</g>
<!-- &#45;9 -->
<g id="node9" class="node"><title>&#45;9</title>
<polygon fill="lightgray" stroke="black" points="857.5,-174.853 833.5,-174.853 833.5,-156.853 857.5,-156.853 857.5,-174.853"/>
<text text-anchor="middle" x="845.5" y="-163.653" font-family="Times,serif" font-size="9.00">&#45;9</text>
</g>
<!-- &#45;10 -->
<g id="node10" class="node"><title>&#45;10</title>
<polygon fill="lightgray" stroke="black" points="162,-102.276 133,-102.276 133,-84.2756 162,-84.2756 162,-102.276"/>
<text text-anchor="middle" x="147.5" y="-91.0756" font-family="Times,serif" font-size="9.00">&#45;10</text>
</g>
<!-- &#45;10&#45;&gt;0 -->
<g id="edge18" class="edge"><title>&#45;10&#45;&gt;0</title>
<path fill="none" stroke="green" stroke-width="0.393437" d="M152.639,-84.2372C156.798,-78.3309 163.157,-70.5251 170.5,-65.6985 212.609,-38.0183 271.081,-24.8777 303.799,-19.3401"/>
<polygon fill="green" stroke="green" stroke-width="0.393437" points="304.519,-22.7696 313.846,-17.7436 303.42,-15.8563 304.519,-22.7696"/>
</g>
<!-- &#45;10&#45;&gt;2 -->
<g id="edge2" class="edge"><title>&#45;10&#45;&gt;2</title>
<path fill="none" stroke="red" stroke-width="0.631249" d="M144.932,-84.0967C141.591,-73.4589 135.616,-54.4325 130.822,-39.1665"/>
<polygon fill="red" stroke="red" stroke-width="0.631249" points="134.074,-37.8398 127.739,-29.3478 127.396,-39.9371 134.074,-37.8398"/>
</g>
<!-- &#45;11 -->
<g id="node11" class="node"><title>&#45;11</title>
<polygon fill="lightgray" stroke="black" points="426,-102.276 397,-102.276 397,-84.2756 426,-84.2756 426,-102.276"/>
<text text-anchor="middle" x="411.5" y="-91.0756" font-family="Times,serif" font-size="9.00">&#45;11</text>
</g>
<!-- &#45;11&#45;&gt;0 -->
<g id="edge12" class="edge"><title>&#45;11&#45;&gt;0</title>
<path fill="none" stroke="red" stroke-width="0.467526" d="M402.618,-84.0967C389.392,-71.9186 364.227,-48.7468 346.918,-32.8085"/>
<polygon fill="red" stroke="red" stroke-width="0.467526" points="348.866,-29.8443 339.139,-25.6452 344.124,-34.9938 348.866,-29.8443"/>
</g>
<!-- 1 -->
<g id="node26" class="node"><title>1</title>
<ellipse fill="lightblue" stroke="black" cx="702.5" cy="-14.8492" rx="14.7" ry="14.7"/>
<text text-anchor="middle" x="702.5" y="-12.6492" font-family="Times,serif" font-size="9.00">1</text>
</g>
<!-- &#45;11&#45;&gt;1 -->
<g id="edge7" class="edge"><title>&#45;11&#45;&gt;1</title>
<path fill="none" stroke="red" stroke-width="0.166884" d="M416.776,-83.9772C421.071,-77.9348 427.689,-70.0723 435.5,-65.6985 515.445,-20.934 627.848,-15.4048 677.382,-15.3397"/>
<polygon fill="red" stroke="red" stroke-width="0.166884" points="677.479,-18.8403 687.501,-15.4041 677.523,-11.8405 677.479,-18.8403"/>
</g>
<!-- &#45;12 -->
<g id="node12" class="node"><title>&#45;12</title>
<polygon fill="lightgray" stroke="black" points="520,-102.276 491,-102.276 491,-84.2756 520,-84.2756 520,-102.276"/>
<text text-anchor="middle" x="505.5" y="-91.0756" font-family="Times,serif" font-size="9.00">&#45;12</text>
</g>
<!-- &#45;12&#45;&gt;3 -->
<g id="edge25" class="edge"><title>&#45;12&#45;&gt;3</title>
<path fill="none" stroke="red" stroke-width="0.943349" d="M505.5,-84.0967C505.5,-73.6852 505.5,-55.238 505.5,-40.1455"/>
<polygon fill="red" stroke="red" stroke-width="0.943349" points="509,-39.9115 505.5,-29.9115 502,-39.9116 509,-39.9115"/>
</g>
<!-- &#45;13 -->
<g id="node13" class="node"><title>&#45;13</title>
<polygon fill="lightgray" stroke="black" points="29,-102.276 0,-102.276 0,-84.2756 29,-84.2756 29,-102.276"/>
<text text-anchor="middle" x="14.5" y="-91.0756" font-family="Times,serif" font-size="9.00">&#45;13</text>
</g>
<!-- &#45;13&#45;&gt;2 -->
<g id="edge16" class="edge"><title>&#45;13&#45;&gt;2</title>
<path fill="none" stroke="red" stroke-width="0.35553" d="M22.7668,-83.9341C28.3813,-78.4656 36.1036,-71.3159 43.5,-65.6985 62.3467,-51.3849 85.43,-37.335 101.949,-27.8187"/>
<polygon fill="red" stroke="red" stroke-width="0.35553" points="103.868,-30.7539 110.835,-22.7718 100.411,-24.6672 103.868,-30.7539"/>
</g>
<!-- &#45;14 -->
<g id="node14" class="node"><title>&#45;14</title>
<polygon fill="lightgray" stroke="black" points="905,-174.853 876,-174.853 876,-156.853 905,-156.853 905,-174.853"/>
<text text-anchor="middle" x="890.5" y="-163.653" font-family="Times,serif" font-size="9.00">&#45;14</text>
</g>
<!-- &#45;15 -->
<g id="node15" class="node"><title>&#45;15</title>
<polygon fill="lightgray" stroke="black" points="807,-102.276 778,-102.276 778,-84.2756 807,-84.2756 807,-102.276"/>
<text text-anchor="middle" x="792.5" y="-91.0756" font-family="Times,serif" font-size="9.00">&#45;15</text>
</g>
<!-- &#45;15&#45;&gt;1 -->
<g id="edge13" class="edge"><title>&#45;15&#45;&gt;1</title>
<path fill="none" stroke="green" stroke-width="0.589418" d="M786.085,-83.9542C781.691,-78.4942 775.58,-71.3464 769.5,-65.6985 754.948,-52.1813 736.784,-38.8561 723.041,-29.3882"/>
<polygon fill="green" stroke="green" stroke-width="0.589418" points="724.973,-26.4697 714.731,-23.7602 721.048,-32.2656 724.973,-26.4697"/>
</g>
<!-- &#45;16 -->
<g id="node16" class="node"><title>&#45;16</title>
<polygon fill="lightgray" stroke="black" points="854,-102.276 825,-102.276 825,-84.2756 854,-84.2756 854,-102.276"/>
<text text-anchor="middle" x="839.5" y="-91.0756" font-family="Times,serif" font-size="9.00">&#45;16</text>
</g>
<!-- &#45;16&#45;&gt;1 -->
<g id="edge22" class="edge"><title>&#45;16&#45;&gt;1</title>
<path fill="none" stroke="green" stroke-width="0.712185" d="M833.849,-83.9709C829.612,-78.2382 823.378,-70.7647 816.5,-65.6985 788.471,-45.0545 750.556,-30.6475 726.308,-22.8057"/>
<polygon fill="green" stroke="green" stroke-width="0.712185" points="727.106,-19.3885 716.518,-19.7568 725.025,-26.0719 727.106,-19.3885"/>
</g>
<!-- &#45;17 -->
<g id="node17" class="node"><title>&#45;17</title>
<polygon fill="lightgray" stroke="black" points="760,-102.276 731,-102.276 731,-84.2756 760,-84.2756 760,-102.276"/>
<text text-anchor="middle" x="745.5" y="-91.0756" font-family="Times,serif" font-size="9.00">&#45;17</text>
</g>
<!-- &#45;17&#45;&gt;1 -->
<g id="edge9" class="edge"><title>&#45;17&#45;&gt;1</title>
<path fill="none" stroke="red" stroke-width="0.600988" d="M740.898,-84.0967C734.654,-72.9993 723.274,-52.7725 714.518,-37.2095"/>
<polygon fill="red" stroke="red" stroke-width="0.600988" points="717.428,-35.2443 709.474,-28.2453 711.328,-38.6768 717.428,-35.2443"/>
</g>
<!-- &#45;18 -->
<g id="node18" class="node"><title>&#45;18</title>
<polygon fill="lightgray" stroke="black" points="115,-102.276 86,-102.276 86,-84.2756 115,-84.2756 115,-102.276"/>
<text text-anchor="middle" x="100.5" y="-91.0756" font-family="Times,serif" font-size="9.00">&#45;18</text>
</g>
<!-- &#45;18&#45;&gt;0 -->
<g id="edge19" class="edge"><title>&#45;18&#45;&gt;0</title>
<path fill="none" stroke="green" stroke-width="0.230625" d="M105.548,-84.0943C109.66,-78.1131 116,-70.2761 123.5,-65.6985 181.493,-30.3034 263.074,-20.0298 303.612,-17.0556"/>
<polygon fill="green" stroke="green" stroke-width="0.230625" points="303.923,-20.5429 313.678,-16.4079 303.473,-13.5574 303.923,-20.5429"/>
</g>
<!-- &#45;18&#45;&gt;2 -->
<g id="edge17" class="edge"><title>&#45;18&#45;&gt;2</title>
<path fill="none" stroke="red" stroke-width="0.490488" d="M102.961,-84.0967C106.163,-73.4589 111.889,-54.4325 116.483,-39.1665"/>
<polygon fill="red" stroke="red" stroke-width="0.490488" points="119.907,-39.9322 119.438,-29.3478 113.204,-37.9149 119.907,-39.9322"/>
</g>
<!-- &#45;19 -->
<g id="node19" class="node"><title>&#45;19</title>
<polygon fill="lightgray" stroke="black" points="605,-174.853 576,-174.853 576,-156.853 605,-156.853 605,-174.853"/>
<text text-anchor="middle" x="590.5" y="-163.653" font-family="Times,serif" font-size="9.00">&#45;19</text>
</g>
<!-- &#45;19&#45;&gt;0 -->
<g id="edge24" class="edge"><title>&#45;19&#45;&gt;0</title>
<path fill="none" stroke="red" stroke-width="0.143296" d="M575.928,-165.512C540.296,-166.38 447.386,-164.065 388.5,-120.853 373.801,-110.066 351.432,-65.5888 338.564,-38.097"/>
<polygon fill="red" stroke="red" stroke-width="0.143296" points="341.655,-36.4422 334.285,-28.8308 335.3,-39.3769 341.655,-36.4422"/>
</g>
<!-- &#45;19&#45;&gt;1 -->
<g id="edge20" class="edge"><title>&#45;19&#45;&gt;1</title>
<path fill="none" stroke="green" stroke-width="0.440935" d="M605.291,-159.74C628.88,-151.29 673.395,-134.037 683.5,-120.853 701.32,-97.6025 704.375,-63.0132 704.106,-39.9631"/>
<polygon fill="green" stroke="green" stroke-width="0.440935" points="707.594,-39.5504 703.757,-29.6747 700.598,-39.7876 707.594,-39.5504"/>
</g>
<!-- &#45;19&#45;&gt;2 -->
<g id="edge11" class="edge"><title>&#45;19&#45;&gt;2</title>
<path fill="none" stroke="red" stroke-width="0.180392" d="M575.973,-164.751C495.949,-164.04 111.214,-158.665 76.5,-120.853 59.9223,-102.795 67.4533,-88.4811 76.5,-65.6985 82.0421,-51.7417 93.5487,-39.4271 103.789,-30.5292"/>
<polygon fill="red" stroke="red" stroke-width="0.180392" points="106.058,-33.1948 111.592,-24.1598 101.632,-27.7721 106.058,-33.1948"/>
</g>
<!-- &#45;19&#45;&gt;3 -->
<g id="edge5" class="edge"><title>&#45;19&#45;&gt;3</title>
<path fill="none" stroke="red" stroke-width="0.161458" d="M590.834,-156.699C591.187,-138.801 589.928,-95.3129 571.5,-65.6985 560.983,-48.7967 542.501,-35.582 527.766,-27.0175"/>
<polygon fill="red" stroke="red" stroke-width="0.161458" points="529.195,-23.8098 518.745,-22.069 525.829,-29.9471 529.195,-23.8098"/>
</g>
<!-- 12885 -->
<g id="node29" class="node"><title>12885</title>
<ellipse fill="white" stroke="black" cx="646.5" cy="-93.2756" rx="27.6545" ry="27.6545"/>
<text text-anchor="middle" x="646.5" y="-91.0756" font-family="Times,serif" font-size="9.00">12885</text>
</g>
<!-- &#45;19&#45;&gt;12885 -->
<g id="edge29" class="edge"><title>&#45;19&#45;&gt;12885</title>
<path fill="none" stroke="green" stroke-width="0.439269" d="M596.924,-156.757C603.366,-148.637 613.676,-135.644 623.229,-123.604"/>
<polygon fill="green" stroke="green" stroke-width="0.439269" points="626.191,-125.502 629.665,-115.493 620.707,-121.151 626.191,-125.502"/>
</g>
<!-- &#45;20 -->
<g id="node20" class="node"><title>&#45;20</title>
<polygon fill="lightgray" stroke="black" points="209,-102.276 180,-102.276 180,-84.2756 209,-84.2756 209,-102.276"/>
<text text-anchor="middle" x="194.5" y="-91.0756" font-family="Times,serif" font-size="9.00">&#45;20</text>
</g>
<!-- &#45;20&#45;&gt;2 -->
<g id="edge1" class="edge"><title>&#45;20&#45;&gt;2</title>
<path fill="none" stroke="green" stroke-width="0.126006" d="M186.979,-83.8548C182.272,-78.6072 176.065,-71.7296 170.5,-65.6985 160.543,-54.9081 149.261,-42.9337 140.247,-33.4259"/>
<polygon fill="green" stroke="green" stroke-width="0.126006" points="142.712,-30.939 133.287,-26.0996 137.637,-35.7603 142.712,-30.939"/>
</g>
<!-- &#45;20&#45;&gt;3 -->
<g id="edge10" class="edge"><title>&#45;20&#45;&gt;3</title>
<path fill="none" stroke="red" stroke-width="0.27983" d="M199.462,-83.9482C203.529,-77.8906 209.85,-70.0218 217.5,-65.6985 262.612,-40.2027 419.052,-23.6597 480.471,-18.0121"/>
<polygon fill="red" stroke="red" stroke-width="0.27983" points="480.816,-21.4953 490.462,-17.1131 480.188,-14.5235 480.816,-21.4953"/>
</g>
<!-- &#45;21 -->
<g id="node21" class="node"><title>&#45;21</title>
<polygon fill="lightgray" stroke="black" points="256,-102.276 227,-102.276 227,-84.2756 256,-84.2756 256,-102.276"/>
<text text-anchor="middle" x="241.5" y="-91.0756" font-family="Times,serif" font-size="9.00">&#45;21</text>
</g>
<!-- &#45;21&#45;&gt;0 -->
<g id="edge15" class="edge"><title>&#45;21&#45;&gt;0</title>
<path fill="none" stroke="green" stroke-width="0.256766" d="M248.309,-84.0419C252.942,-78.6189 259.33,-71.4794 265.5,-65.6985 279.228,-52.8367 295.978,-39.6906 308.755,-30.1298"/>
<polygon fill="green" stroke="green" stroke-width="0.256766" points="310.914,-32.8865 316.88,-24.1312 306.756,-27.2549 310.914,-32.8865"/>
</g>
<!-- &#45;22 -->
<g id="node22" class="node"><title>&#45;22</title>
<polygon fill="lightgray" stroke="black" points="952,-174.853 923,-174.853 923,-156.853 952,-156.853 952,-174.853"/>
<text text-anchor="middle" x="937.5" y="-163.653" font-family="Times,serif" font-size="9.00">&#45;22</text>
</g>
<!-- &#45;23 -->
<g id="node23" class="node"><title>&#45;23</title>
<polygon fill="lightgray" stroke="black" points="999,-174.853 970,-174.853 970,-156.853 999,-156.853 999,-174.853"/>
<text text-anchor="middle" x="984.5" y="-163.653" font-family="Times,serif" font-size="9.00">&#45;23</text>
</g>
<!-- &#45;24 -->
<g id="node24" class="node"><title>&#45;24</title>
<polygon fill="lightgray" stroke="black" points="473,-102.276 444,-102.276 444,-84.2756 473,-84.2756 473,-102.276"/>
<text text-anchor="middle" x="458.5" y="-91.0756" font-family="Times,serif" font-size="9.00">&#45;24</text>
</g>
<!-- &#45;24&#45;&gt;0 -->
<g id="edge28" class="edge"><title>&#45;24&#45;&gt;0</title>
<path fill="none" stroke="red" stroke-width="0.631674" d="M452.812,-84.021C448.557,-78.3119 442.318,-70.846 435.5,-65.6985 409.687,-46.2091 375.032,-31.8034 352.249,-23.6209"/>
<polygon fill="red" stroke="red" stroke-width="0.631674" points="353.286,-20.276 342.691,-20.3033 350.991,-26.8889 353.286,-20.276"/>
</g>
<!-- &#45;24&#45;&gt;1 -->
<g id="edge6" class="edge"><title>&#45;24&#45;&gt;1</title>
<path fill="none" stroke="green" stroke-width="0.100892" d="M463.825,-84.0626C468.146,-78.0648 474.774,-70.2209 482.5,-65.6985 545.927,-28.5722 634.586,-19.0896 677.399,-16.6726"/>
<polygon fill="green" stroke="green" stroke-width="0.100892" points="677.67,-20.1638 687.491,-16.1885 677.334,-13.1718 677.67,-20.1638"/>
</g>
<!-- 1&#45;&gt;1 -->
<g id="edge21" class="edge"><title>1&#45;&gt;1</title>
<path fill="none" stroke="red" stroke-width="0.581135" d="M712.589,-26.0429C723.286,-33.0531 735.349,-29.3219 735.349,-14.8492 735.349,-4.67316 729.385,0.192534 722.126,-0.252173"/>
<polygon fill="red" stroke="red" stroke-width="0.581135" points="720.831,3.00202 712.589,-3.65555 723.184,-3.59074 720.831,3.00202"/>
</g>
<!-- 12885&#45;&gt;0 -->
<g id="edge4" class="edge"><title>12885&#45;&gt;0</title>
<path fill="none" stroke="red" stroke-width="0.202" d="M621.094,-82.2861C606.699,-76.8766 588.269,-70.3654 571.5,-65.6985 492.901,-43.8232 397.557,-27.0253 353.295,-19.7696"/>
<polygon fill="red" stroke="red" stroke-width="0.202" points="353.615,-16.2758 343.184,-18.1332 352.496,-23.1859 353.615,-16.2758"/>
</g>
<!-- 12885&#45;&gt;1 -->
<g id="edge27" class="edge"><title>12885&#45;&gt;1</title>
<path fill="none" stroke="green" stroke-width="0.30787" d="M662.398,-70.5793C670.482,-59.5466 680.232,-46.2394 688.095,-35.5092"/>
<polygon fill="green" stroke="green" stroke-width="0.30787" points="691.089,-37.3436 694.177,-27.2085 685.443,-33.2062 691.089,-37.3436"/>
</g>
</g>
</svg>
