<?xml version="1.0" encoding="UTF-8" standalone="no"?>
<!DOCTYPE svg PUBLIC "-//W3C//DTD SVG 1.1//EN"
 "http://www.w3.org/Graphics/SVG/1.1/DTD/svg11.dtd">
<!-- Generated by graphviz version 2.38.0 (20140413.2041)
 -->
<!-- Title: %3 Pages: 1 -->
<svg width="840pt" height="274pt"
 viewBox="0.00 0.00 840.08 274.01" xmlns="http://www.w3.org/2000/svg" xmlns:xlink="http://www.w3.org/1999/xlink">
<g id="graph0" class="graph" transform="scale(1 1) rotate(0) translate(4 270.007)">
<title>%3</title>
<polygon fill="white" stroke="none" points="-4,4 -4,-270.007 836.077,-270.007 836.077,4 -4,4"/>
<!-- &#45;1 -->
<g id="node1" class="node"><title>&#45;1</title>
<polygon fill="lightgray" stroke="black" points="144.577,-193.43 120.577,-193.43 120.577,-175.43 144.577,-175.43 144.577,-193.43"/>
<text text-anchor="middle" x="132.577" y="-182.23" font-family="Times,serif" font-size="9.00">&#45;1</text>
</g>
<!-- 0 -->
<g id="node25" class="node"><title>0</title>
<ellipse fill="lightblue" stroke="black" cx="172.577" cy="-106.004" rx="14.7" ry="14.7"/>
<text text-anchor="middle" x="172.577" y="-103.804" font-family="Times,serif" font-size="9.00">0</text>
</g>
<!-- &#45;1&#45;&gt;0 -->
<g id="edge9" class="edge"><title>&#45;1&#45;&gt;0</title>
<path fill="none" stroke="green" stroke-width="1.49228" d="M136.858,-175.251C142.666,-164.154 153.252,-143.927 161.398,-128.364"/>
<polygon fill="green" stroke="green" stroke-width="1.49228" points="164.553,-129.883 166.089,-119.4 158.351,-126.637 164.553,-129.883"/>
</g>
<!-- &#45;2 -->
<g id="node2" class="node"><title>&#45;2</title>
<polygon fill="lightgray" stroke="black" points="690.577,-193.43 666.577,-193.43 666.577,-175.43 690.577,-175.43 690.577,-193.43"/>
<text text-anchor="middle" x="678.577" y="-182.23" font-family="Times,serif" font-size="9.00">&#45;2</text>
</g>
<!-- 3 -->
<g id="node28" class="node"><title>3</title>
<ellipse fill="lightblue" stroke="black" cx="655.577" cy="-106.004" rx="14.7" ry="14.7"/>
<text text-anchor="middle" x="655.577" y="-103.804" font-family="Times,serif" font-size="9.00">3</text>
</g>
<!-- &#45;2&#45;&gt;3 -->
<g id="edge26" class="edge"><title>&#45;2&#45;&gt;3</title>
<path fill="none" stroke="red" stroke-width="0.312983" d="M676.116,-175.251C672.914,-164.613 667.189,-145.587 662.594,-130.321"/>
<polygon fill="red" stroke="red" stroke-width="0.312983" points="665.873,-129.069 659.639,-120.502 659.17,-131.087 665.873,-129.069"/>
</g>
<!-- &#45;3 -->
<g id="node3" class="node"><title>&#45;3</title>
<polygon fill="lightgray" stroke="black" points="465.577,-266.007 441.577,-266.007 441.577,-248.007 465.577,-248.007 465.577,-266.007"/>
<text text-anchor="middle" x="453.577" y="-254.807" font-family="Times,serif" font-size="9.00">&#45;3</text>
</g>
<!-- &#45;4 -->
<g id="node4" class="node"><title>&#45;4</title>
<polygon fill="lightgray" stroke="black" points="314.577,-193.43 290.577,-193.43 290.577,-175.43 314.577,-175.43 314.577,-193.43"/>
<text text-anchor="middle" x="302.577" y="-182.23" font-family="Times,serif" font-size="9.00">&#45;4</text>
</g>
<!-- &#45;4&#45;&gt;0 -->
<g id="edge22" class="edge"><title>&#45;4&#45;&gt;0</title>
<path fill="none" stroke="red" stroke-width="0.132636" d="M297.213,-175.155C293.179,-169.436 287.223,-161.967 280.577,-156.853 254.605,-136.866 219.331,-122.503 196.268,-114.472"/>
<polygon fill="red" stroke="red" stroke-width="0.132636" points="197.202,-111.094 186.608,-111.23 194.975,-117.73 197.202,-111.094"/>
</g>
<!-- 2 -->
<g id="node27" class="node"><title>2</title>
<ellipse fill="lightblue" stroke="black" cx="354.577" cy="-106.004" rx="14.7" ry="14.7"/>
<text text-anchor="middle" x="354.577" y="-103.804" font-family="Times,serif" font-size="9.00">2</text>
</g>
<!-- &#45;4&#45;&gt;2 -->
<g id="edge25" class="edge"><title>&#45;4&#45;&gt;2</title>
<path fill="none" stroke="green" stroke-width="0.185114" d="M308.142,-175.251C315.895,-163.856 330.198,-142.835 340.889,-127.121"/>
<polygon fill="green" stroke="green" stroke-width="0.185114" points="343.958,-128.832 346.69,-118.596 338.171,-124.894 343.958,-128.832"/>
</g>
<!-- &#45;4&#45;&gt;3 -->
<g id="edge13" class="edge"><title>&#45;4&#45;&gt;3</title>
<path fill="none" stroke="green" stroke-width="1.92494" d="M314.752,-179.777C333.056,-174.358 368.804,-164.054 399.577,-156.853 484.066,-137.082 585.517,-118.977 631.19,-111.123"/>
<polygon fill="green" stroke="green" stroke-width="1.92494" points="631.794,-114.571 641.061,-109.436 630.615,-107.671 631.794,-114.571"/>
</g>
<!-- &#45;5 -->
<g id="node5" class="node"><title>&#45;5</title>
<polygon fill="lightgray" stroke="black" points="224.577,-193.43 200.577,-193.43 200.577,-175.43 224.577,-175.43 224.577,-193.43"/>
<text text-anchor="middle" x="212.577" y="-182.23" font-family="Times,serif" font-size="9.00">&#45;5</text>
</g>
<!-- &#45;5&#45;&gt;0 -->
<g id="edge18" class="edge"><title>&#45;5&#45;&gt;0</title>
<path fill="none" stroke="red" stroke-width="0.5672" d="M208.296,-175.251C202.488,-164.154 191.902,-143.927 183.757,-128.364"/>
<polygon fill="red" stroke="red" stroke-width="0.5672" points="186.803,-126.637 179.065,-119.4 180.601,-129.883 186.803,-126.637"/>
</g>
<!-- &#45;6 -->
<g id="node6" class="node"><title>&#45;6</title>
<polygon fill="lightgray" stroke="black" points="507.577,-266.007 483.577,-266.007 483.577,-248.007 507.577,-248.007 507.577,-266.007"/>
<text text-anchor="middle" x="495.577" y="-254.807" font-family="Times,serif" font-size="9.00">&#45;6</text>
</g>
<!-- &#45;7 -->
<g id="node7" class="node"><title>&#45;7</title>
<polygon fill="lightgray" stroke="black" points="553.577,-193.43 529.577,-193.43 529.577,-175.43 553.577,-175.43 553.577,-193.43"/>
<text text-anchor="middle" x="541.577" y="-182.23" font-family="Times,serif" font-size="9.00">&#45;7</text>
</g>
<!-- 1 -->
<g id="node26" class="node"><title>1</title>
<ellipse fill="lightblue" stroke="black" cx="541.577" cy="-106.004" rx="14.7" ry="14.7"/>
<text text-anchor="middle" x="541.577" y="-103.804" font-family="Times,serif" font-size="9.00">1</text>
</g>
<!-- &#45;7&#45;&gt;1 -->
<g id="edge28" class="edge"><title>&#45;7&#45;&gt;1</title>
<path fill="none" stroke="red" stroke-width="0.671181" d="M541.577,-175.251C541.577,-164.84 541.577,-146.392 541.577,-131.3"/>
<polygon fill="red" stroke="red" stroke-width="0.671181" points="545.077,-131.066 541.577,-121.066 538.077,-131.066 545.077,-131.066"/>
</g>
<!-- &#45;8 -->
<g id="node8" class="node"><title>&#45;8</title>
<polygon fill="lightgray" stroke="black" points="508.577,-115.004 484.577,-115.004 484.577,-97.0036 508.577,-97.0036 508.577,-115.004"/>
<text text-anchor="middle" x="496.577" y="-103.804" font-family="Times,serif" font-size="9.00">&#45;8</text>
</g>
<!-- 11514 -->
<g id="node30" class="node"><title>11514</title>
<ellipse fill="white" stroke="black" cx="496.577" cy="-27.5772" rx="27.6545" ry="27.6545"/>
<text text-anchor="middle" x="496.577" y="-25.3772" font-family="Times,serif" font-size="9.00">11514</text>
</g>
<!-- &#45;8&#45;&gt;11514 -->
<g id="edge21" class="edge"><title>&#45;8&#45;&gt;11514</title>
<path fill="none" stroke="green" stroke-width="0.187108" d="M496.577,-96.8246C496.577,-89.2001 496.577,-77.2662 496.577,-65.4961"/>
<polygon fill="green" stroke="green" stroke-width="0.187108" points="500.077,-65.3074 496.577,-55.3074 493.077,-65.3074 500.077,-65.3074"/>
</g>
<!-- &#45;9 -->
<g id="node9" class="node"><title>&#45;9</title>
<polygon fill="lightgray" stroke="black" points="549.577,-266.007 525.577,-266.007 525.577,-248.007 549.577,-248.007 549.577,-266.007"/>
<text text-anchor="middle" x="537.577" y="-254.807" font-family="Times,serif" font-size="9.00">&#45;9</text>
</g>
<!-- &#45;10 -->
<g id="node10" class="node"><title>&#45;10</title>
<polygon fill="lightgray" stroke="black" points="187.077,-266.007 158.077,-266.007 158.077,-248.007 187.077,-248.007 187.077,-266.007"/>
<text text-anchor="middle" x="172.577" y="-254.807" font-family="Times,serif" font-size="9.00">&#45;10</text>
</g>
<!-- &#45;10&#45;&gt;0 -->
<g id="edge17" class="edge"><title>&#45;10&#45;&gt;0</title>
<path fill="none" stroke="green" stroke-width="0.311382" d="M172.577,-247.996C172.577,-226.287 172.577,-165.664 172.577,-131.398"/>
<polygon fill="green" stroke="green" stroke-width="0.311382" points="176.077,-131.282 172.577,-121.282 169.077,-131.282 176.077,-131.282"/>
</g>
<!-- &#45;10&#45;&gt;2 -->
<g id="edge2" class="edge"><title>&#45;10&#45;&gt;2</title>
<path fill="none" stroke="red" stroke-width="0.158227" d="M187.326,-256.115C217.293,-255.507 285.667,-249.784 323.577,-212.007 345.08,-190.58 351.819,-155.021 353.846,-131.302"/>
<polygon fill="red" stroke="red" stroke-width="0.158227" points="357.357,-131.227 354.494,-121.026 350.371,-130.786 357.357,-131.227"/>
</g>
<!-- 12426 -->
<g id="node29" class="node"><title>12426</title>
<ellipse fill="white" stroke="black" cx="27.5772" cy="-184.43" rx="27.6545" ry="27.6545"/>
<text text-anchor="middle" x="27.5772" y="-182.23" font-family="Times,serif" font-size="9.00">12426</text>
</g>
<!-- &#45;10&#45;&gt;12426 -->
<g id="edge8" class="edge"><title>&#45;10&#45;&gt;12426</title>
<path fill="none" stroke="green" stroke-width="0.296387" d="M157.938,-251.416C136.502,-244.404 95.6392,-229.933 63.5772,-212.007 61.3819,-210.78 59.1661,-209.438 56.9701,-208.03"/>
<polygon fill="green" stroke="green" stroke-width="0.296387" points="58.9164,-205.121 48.6836,-202.375 54.9707,-210.903 58.9164,-205.121"/>
</g>
<!-- &#45;11 -->
<g id="node11" class="node"><title>&#45;11</title>
<polygon fill="lightgray" stroke="black" points="601.077,-193.43 572.077,-193.43 572.077,-175.43 601.077,-175.43 601.077,-193.43"/>
<text text-anchor="middle" x="586.577" y="-182.23" font-family="Times,serif" font-size="9.00">&#45;11</text>
</g>
<!-- &#45;11&#45;&gt;1 -->
<g id="edge4" class="edge"><title>&#45;11&#45;&gt;1</title>
<path fill="none" stroke="green" stroke-width="0.632149" d="M581.761,-175.251C575.19,-164.09 563.181,-143.694 553.996,-128.096"/>
<polygon fill="green" stroke="green" stroke-width="0.632149" points="556.807,-125.971 548.717,-119.129 550.775,-129.522 556.807,-125.971"/>
</g>
<!-- &#45;12 -->
<g id="node12" class="node"><title>&#45;12</title>
<polygon fill="lightgray" stroke="black" points="738.077,-193.43 709.077,-193.43 709.077,-175.43 738.077,-175.43 738.077,-193.43"/>
<text text-anchor="middle" x="723.577" y="-182.23" font-family="Times,serif" font-size="9.00">&#45;12</text>
</g>
<!-- &#45;12&#45;&gt;3 -->
<g id="edge24" class="edge"><title>&#45;12&#45;&gt;3</title>
<path fill="none" stroke="red" stroke-width="0.775405" d="M716.3,-175.251C705.738,-163.38 685.882,-141.064 671.753,-125.184"/>
<polygon fill="red" stroke="red" stroke-width="0.775405" points="674.227,-122.7 664.965,-117.555 668.998,-127.353 674.227,-122.7"/>
</g>
<!-- &#45;13 -->
<g id="node13" class="node"><title>&#45;13</title>
<polygon fill="lightgray" stroke="black" points="597.077,-266.007 568.077,-266.007 568.077,-248.007 597.077,-248.007 597.077,-266.007"/>
<text text-anchor="middle" x="582.577" y="-254.807" font-family="Times,serif" font-size="9.00">&#45;13</text>
</g>
<!-- &#45;14 -->
<g id="node14" class="node"><title>&#45;14</title>
<polygon fill="lightgray" stroke="black" points="644.077,-266.007 615.077,-266.007 615.077,-248.007 644.077,-248.007 644.077,-266.007"/>
<text text-anchor="middle" x="629.577" y="-254.807" font-family="Times,serif" font-size="9.00">&#45;14</text>
</g>
<!-- &#45;15 -->
<g id="node15" class="node"><title>&#45;15</title>
<polygon fill="lightgray" stroke="black" points="511.077,-193.43 482.077,-193.43 482.077,-175.43 511.077,-175.43 511.077,-193.43"/>
<text text-anchor="middle" x="496.577" y="-182.23" font-family="Times,serif" font-size="9.00">&#45;15</text>
</g>
<!-- &#45;15&#45;&gt;1 -->
<g id="edge12" class="edge"><title>&#45;15&#45;&gt;1</title>
<path fill="none" stroke="green" stroke-width="0.101309" d="M501.393,-175.251C507.965,-164.09 519.974,-143.694 529.158,-128.096"/>
<polygon fill="green" stroke="green" stroke-width="0.101309" points="532.38,-129.522 534.437,-119.129 526.348,-125.971 532.38,-129.522"/>
</g>
<!-- &#45;15&#45;&gt;2 -->
<g id="edge5" class="edge"><title>&#45;15&#45;&gt;2</title>
<path fill="none" stroke="red" stroke-width="0.199091" d="M490.951,-175.092C486.725,-169.344 480.495,-161.865 473.577,-156.853 465.435,-150.953 410.166,-128.804 377.889,-116.103"/>
<polygon fill="red" stroke="red" stroke-width="0.199091" points="378.894,-112.738 368.307,-112.345 376.338,-119.255 378.894,-112.738"/>
</g>
<!-- &#45;15&#45;&gt;11514 -->
<g id="edge15" class="edge"><title>&#45;15&#45;&gt;11514</title>
<path fill="none" stroke="green" stroke-width="0.729372" d="M492.832,-175.149C487.733,-163.374 478.865,-140.984 475.577,-120.853 473.45,-107.826 473.45,-104.181 475.577,-91.1543 477.11,-81.7691 479.856,-71.8929 482.867,-62.8303"/>
<polygon fill="green" stroke="green" stroke-width="0.729372" points="486.175,-63.9723 486.194,-53.3775 479.572,-61.6484 486.175,-63.9723"/>
</g>
<!-- &#45;16 -->
<g id="node16" class="node"><title>&#45;16</title>
<polygon fill="lightgray" stroke="black" points="428.077,-115.004 399.077,-115.004 399.077,-97.0036 428.077,-97.0036 428.077,-115.004"/>
<text text-anchor="middle" x="413.577" y="-103.804" font-family="Times,serif" font-size="9.00">&#45;16</text>
</g>
<!-- &#45;16&#45;&gt;11514 -->
<g id="edge7" class="edge"><title>&#45;16&#45;&gt;11514</title>
<path fill="none" stroke="red" stroke-width="0.27181" d="M422.46,-96.8246C433.529,-86.6321 452.961,-68.7385 469.152,-53.8302"/>
<polygon fill="red" stroke="red" stroke-width="0.27181" points="471.803,-56.1467 476.789,-46.7982 467.062,-50.9973 471.803,-56.1467"/>
</g>
<!-- &#45;17 -->
<g id="node17" class="node"><title>&#45;17</title>
<polygon fill="lightgray" stroke="black" points="423.077,-266.007 394.077,-266.007 394.077,-248.007 423.077,-248.007 423.077,-266.007"/>
<text text-anchor="middle" x="408.577" y="-254.807" font-family="Times,serif" font-size="9.00">&#45;17</text>
</g>
<!-- &#45;17&#45;&gt;2 -->
<g id="edge19" class="edge"><title>&#45;17&#45;&gt;2</title>
<path fill="none" stroke="green" stroke-width="0.325416" d="M405.674,-247.996C397.693,-225.974 375.199,-163.907 362.887,-129.932"/>
<polygon fill="green" stroke="green" stroke-width="0.325416" points="366.118,-128.575 359.42,-120.366 359.537,-130.96 366.118,-128.575"/>
</g>
<!-- 13692 -->
<g id="node31" class="node"><title>13692</title>
<ellipse fill="white" stroke="black" cx="436.577" cy="-184.43" rx="27.6545" ry="27.6545"/>
<text text-anchor="middle" x="436.577" y="-182.23" font-family="Times,serif" font-size="9.00">13692</text>
</g>
<!-- &#45;17&#45;&gt;13692 -->
<g id="edge14" class="edge"><title>&#45;17&#45;&gt;13692</title>
<path fill="none" stroke="red" stroke-width="0.375096" d="M411.789,-247.911C414.561,-240.925 418.763,-230.332 422.925,-219.842"/>
<polygon fill="red" stroke="red" stroke-width="0.375096" points="426.259,-220.93 426.693,-210.344 419.752,-218.348 426.259,-220.93"/>
</g>
<!-- &#45;18 -->
<g id="node18" class="node"><title>&#45;18</title>
<polygon fill="lightgray" stroke="black" points="691.077,-266.007 662.077,-266.007 662.077,-248.007 691.077,-248.007 691.077,-266.007"/>
<text text-anchor="middle" x="676.577" y="-254.807" font-family="Times,serif" font-size="9.00">&#45;18</text>
</g>
<!-- &#45;19 -->
<g id="node19" class="node"><title>&#45;19</title>
<polygon fill="lightgray" stroke="black" points="648.077,-193.43 619.077,-193.43 619.077,-175.43 648.077,-175.43 648.077,-193.43"/>
<text text-anchor="middle" x="633.577" y="-182.23" font-family="Times,serif" font-size="9.00">&#45;19</text>
</g>
<!-- &#45;19&#45;&gt;3 -->
<g id="edge3" class="edge"><title>&#45;19&#45;&gt;3</title>
<path fill="none" stroke="red" stroke-width="0.201883" d="M635.932,-175.251C638.994,-164.613 644.471,-145.587 648.865,-130.321"/>
<polygon fill="red" stroke="red" stroke-width="0.201883" points="652.289,-131.08 651.691,-120.502 645.562,-129.144 652.289,-131.08"/>
</g>
<!-- &#45;20 -->
<g id="node20" class="node"><title>&#45;20</title>
<polygon fill="lightgray" stroke="black" points="272.077,-193.43 243.077,-193.43 243.077,-175.43 272.077,-175.43 272.077,-193.43"/>
<text text-anchor="middle" x="257.577" y="-182.23" font-family="Times,serif" font-size="9.00">&#45;20</text>
</g>
<!-- &#45;20&#45;&gt;0 -->
<g id="edge20" class="edge"><title>&#45;20&#45;&gt;0</title>
<path fill="none" stroke="green" stroke-width="0.759233" d="M250.738,-175.228C246.092,-169.819 239.702,-162.682 233.577,-156.853 220.504,-144.409 204.699,-131.548 192.453,-122.006"/>
<polygon fill="green" stroke="green" stroke-width="0.759233" points="194.314,-119.023 184.254,-115.699 190.046,-124.571 194.314,-119.023"/>
</g>
<!-- &#45;20&#45;&gt;1 -->
<g id="edge23" class="edge"><title>&#45;20&#45;&gt;1</title>
<path fill="none" stroke="green" stroke-width="0.96279" d="M262.812,-175.057C267.086,-168.975 273.694,-161.096 281.577,-156.853 375.002,-106.559 417.456,-155.974 517.577,-120.853 518.451,-120.546 519.329,-120.208 520.206,-119.843"/>
<polygon fill="green" stroke="green" stroke-width="0.96279" points="521.944,-122.887 529.296,-115.258 518.792,-116.637 521.944,-122.887"/>
</g>
<!-- &#45;20&#45;&gt;2 -->
<g id="edge1" class="edge"><title>&#45;20&#45;&gt;2</title>
<path fill="none" stroke="green" stroke-width="0.298449" d="M264.255,-175.051C268.833,-169.567 275.208,-162.413 281.577,-156.853 297.852,-142.644 318.304,-128.987 333.416,-119.573"/>
<polygon fill="green" stroke="green" stroke-width="0.298449" points="335.346,-122.495 342.051,-114.292 331.694,-116.523 335.346,-122.495"/>
</g>
<!-- &#45;21 -->
<g id="node21" class="node"><title>&#45;21</title>
<polygon fill="lightgray" stroke="black" points="738.077,-266.007 709.077,-266.007 709.077,-248.007 738.077,-248.007 738.077,-266.007"/>
<text text-anchor="middle" x="723.577" y="-254.807" font-family="Times,serif" font-size="9.00">&#45;21</text>
</g>
<!-- &#45;22 -->
<g id="node22" class="node"><title>&#45;22</title>
<polygon fill="lightgray" stroke="black" points="785.077,-266.007 756.077,-266.007 756.077,-248.007 785.077,-248.007 785.077,-266.007"/>
<text text-anchor="middle" x="770.577" y="-254.807" font-family="Times,serif" font-size="9.00">&#45;22</text>
</g>
<!-- &#45;23 -->
<g id="node23" class="node"><title>&#45;23</title>
<polygon fill="lightgray" stroke="black" points="832.077,-266.007 803.077,-266.007 803.077,-248.007 832.077,-248.007 832.077,-266.007"/>
<text text-anchor="middle" x="817.577" y="-254.807" font-family="Times,serif" font-size="9.00">&#45;23</text>
</g>
<!-- &#45;24 -->
<g id="node24" class="node"><title>&#45;24</title>
<polygon fill="lightgray" stroke="black" points="102.077,-193.43 73.0772,-193.43 73.0772,-175.43 102.077,-175.43 102.077,-193.43"/>
<text text-anchor="middle" x="87.5772" y="-182.23" font-family="Times,serif" font-size="9.00">&#45;24</text>
</g>
<!-- &#45;24&#45;&gt;0 -->
<g id="edge27" class="edge"><title>&#45;24&#45;&gt;0</title>
<path fill="none" stroke="red" stroke-width="0.917277" d="M94.4166,-175.228C99.0622,-169.819 105.453,-162.682 111.577,-156.853 124.651,-144.409 140.456,-131.548 152.702,-122.006"/>
<polygon fill="red" stroke="red" stroke-width="0.917277" points="155.108,-124.571 160.9,-115.699 150.84,-119.023 155.108,-124.571"/>
</g>
<!-- 1&#45;&gt;11514 -->
<g id="edge11" class="edge"><title>1&#45;&gt;11514</title>
<path fill="none" stroke="green" stroke-width="0.12204" d="M531.205,-95.3241C524.784,-87.0661 516.808,-74.6777 510.015,-62.8075"/>
<polygon fill="green" stroke="green" stroke-width="0.12204" points="512.996,-60.9668 505.095,-53.9083 506.87,-64.3534 512.996,-60.9668"/>
</g>
<!-- 12426&#45;&gt;0 -->
<g id="edge16" class="edge"><title>12426&#45;&gt;0</title>
<path fill="none" stroke="red" stroke-width="0.21884" d="M48.7818,-166.656C53.5265,-163.223 58.6241,-159.771 63.5772,-156.853 92.0283,-140.089 127.092,-124.953 149.637,-115.869"/>
<polygon fill="red" stroke="red" stroke-width="0.21884" points="151.041,-119.077 159.046,-112.137 148.46,-112.571 151.041,-119.077"/>
</g>
<!-- 11514&#45;&gt;1 -->
<g id="edge10" class="edge"><title>11514&#45;&gt;1</title>
<path fill="none" stroke="green" stroke-width="0.115486" d="M514.476,-48.7354C521.422,-59.027 528.886,-71.5873 534.401,-82.2279"/>
<polygon fill="green" stroke="green" stroke-width="0.115486" points="531.317,-83.888 538.848,-91.3401 537.608,-80.8181 531.317,-83.888"/>
</g>
<!-- 13692&#45;&gt;2 -->
<g id="edge6" class="edge"><title>13692&#45;&gt;2</title>
<path fill="none" stroke="green" stroke-width="0.284146" d="M416.727,-164.929C403.225,-152.344 385.507,-135.831 372.446,-123.657"/>
<polygon fill="green" stroke="green" stroke-width="0.284146" points="374.695,-120.97 364.994,-116.712 369.923,-126.091 374.695,-120.97"/>
</g>
</g>
</svg>
