<?xml version="1.0" encoding="UTF-8" standalone="no"?>
<!DOCTYPE svg PUBLIC "-//W3C//DTD SVG 1.1//EN"
 "http://www.w3.org/Graphics/SVG/1.1/DTD/svg11.dtd">
<!-- Generated by graphviz version 2.38.0 (20140413.2041)
 -->
<!-- Title: %3 Pages: 1 -->
<svg width="1166pt" height="209pt"
 viewBox="0.00 0.00 1166.25 208.69" xmlns="http://www.w3.org/2000/svg" xmlns:xlink="http://www.w3.org/1999/xlink">
<g id="graph0" class="graph" transform="scale(1 1) rotate(0) translate(4 204.693)">
<title>%3</title>
<polygon fill="white" stroke="none" points="-4,4 -4,-204.693 1162.25,-204.693 1162.25,4 -4,4"/>
<!-- &#45;1 -->
<g id="node1" class="node"><title>&#45;1</title>
<polygon fill="lightgray" stroke="black" points="471.5,-184.945 447.5,-184.945 447.5,-166.945 471.5,-166.945 471.5,-184.945"/>
<text text-anchor="middle" x="459.5" y="-173.745" font-family="Times,serif" font-size="9.00">&#45;1</text>
</g>
<!-- 0 -->
<g id="node25" class="node"><title>0</title>
<ellipse fill="lightblue" stroke="black" cx="412.5" cy="-90.4472" rx="14.7" ry="14.7"/>
<text text-anchor="middle" x="412.5" y="-88.2472" font-family="Times,serif" font-size="9.00">0</text>
</g>
<!-- &#45;1&#45;&gt;0 -->
<g id="edge3" class="edge"><title>&#45;1&#45;&gt;0</title>
<path fill="none" stroke="green" stroke-width="0.115446" d="M454.993,-166.939C448.053,-154.609 434.512,-130.552 424.574,-112.897"/>
<polygon fill="green" stroke="green" stroke-width="0.115446" points="427.443,-110.859 419.488,-103.862 421.343,-114.293 427.443,-110.859"/>
</g>
<!-- 410 -->
<g id="node31" class="node"><title>410</title>
<ellipse fill="white" stroke="black" cx="596.5" cy="-90.4472" rx="21.4286" ry="21.4286"/>
<text text-anchor="middle" x="596.5" y="-88.2472" font-family="Times,serif" font-size="9.00">410</text>
</g>
<!-- &#45;1&#45;&gt;410 -->
<g id="edge44" class="edge"><title>&#45;1&#45;&gt;410</title>
<path fill="none" stroke="red" stroke-width="0.445023" d="M465.472,-166.767C469.362,-161.832 474.766,-155.657 480.5,-151.196 507.372,-130.29 542.673,-113.337 567.244,-102.902"/>
<polygon fill="red" stroke="red" stroke-width="0.445023" points="568.841,-106.029 576.739,-98.9669 566.161,-99.5625 568.841,-106.029"/>
</g>
<!-- &#45;2 -->
<g id="node2" class="node"><title>&#45;2</title>
<polygon fill="lightgray" stroke="black" points="859.5,-184.945 835.5,-184.945 835.5,-166.945 859.5,-166.945 859.5,-184.945"/>
<text text-anchor="middle" x="847.5" y="-173.745" font-family="Times,serif" font-size="9.00">&#45;2</text>
</g>
<!-- 1 -->
<g id="node26" class="node"><title>1</title>
<ellipse fill="lightblue" stroke="black" cx="784.5" cy="-90.4472" rx="14.7" ry="14.7"/>
<text text-anchor="middle" x="784.5" y="-88.2472" font-family="Times,serif" font-size="9.00">1</text>
</g>
<!-- &#45;2&#45;&gt;1 -->
<g id="edge11" class="edge"><title>&#45;2&#45;&gt;1</title>
<path fill="none" stroke="green" stroke-width="0.104567" d="M841.459,-166.939C831.772,-154.1 812.492,-128.546 799.06,-110.744"/>
<polygon fill="green" stroke="green" stroke-width="0.104567" points="801.821,-108.592 793.004,-102.718 796.233,-112.808 801.821,-108.592"/>
</g>
<!-- &#45;2&#45;&gt;410 -->
<g id="edge35" class="edge"><title>&#45;2&#45;&gt;410</title>
<path fill="none" stroke="red" stroke-width="0.147661" d="M842.188,-166.763C838.408,-161.569 832.879,-155.111 826.5,-151.196 762.889,-112.156 674.324,-98.4554 627.839,-93.7768"/>
<polygon fill="red" stroke="red" stroke-width="0.147661" points="628.056,-90.2819 617.774,-92.84 627.407,-97.2518 628.056,-90.2819"/>
</g>
<!-- &#45;3 -->
<g id="node3" class="node"><title>&#45;3</title>
<polygon fill="lightgray" stroke="black" points="339.5,-184.945 315.5,-184.945 315.5,-166.945 339.5,-166.945 339.5,-184.945"/>
<text text-anchor="middle" x="327.5" y="-173.745" font-family="Times,serif" font-size="9.00">&#45;3</text>
</g>
<!-- &#45;3&#45;&gt;0 -->
<g id="edge47" class="edge"><title>&#45;3&#45;&gt;0</title>
<path fill="none" stroke="green" stroke-width="0.263411" d="M334.315,-166.857C338.336,-162.181 343.586,-156.244 348.5,-151.196 363.285,-136.006 380.954,-119.635 393.977,-107.878"/>
<polygon fill="green" stroke="green" stroke-width="0.263411" points="396.677,-110.157 401.787,-100.876 392.005,-104.945 396.677,-110.157"/>
</g>
<!-- &#45;3&#45;&gt;1 -->
<g id="edge33" class="edge"><title>&#45;3&#45;&gt;1</title>
<path fill="none" stroke="green" stroke-width="0.322068" d="M332.326,-166.943C336.038,-161.547 341.679,-154.781 348.5,-151.196 465.81,-89.5422 513.357,-134.283 644.5,-115.196 684.989,-109.303 731.823,-101.069 759.756,-96.0065"/>
<polygon fill="green" stroke="green" stroke-width="0.322068" points="760.612,-99.4082 769.822,-94.171 759.356,-92.5218 760.612,-99.4082"/>
</g>
<!-- 2 -->
<g id="node27" class="node"><title>2</title>
<ellipse fill="lightblue" stroke="black" cx="596.5" cy="-14.8492" rx="14.7" ry="14.7"/>
<text text-anchor="middle" x="596.5" y="-12.6492" font-family="Times,serif" font-size="9.00">2</text>
</g>
<!-- &#45;3&#45;&gt;2 -->
<g id="edge19" class="edge"><title>&#45;3&#45;&gt;2</title>
<path fill="none" stroke="red" stroke-width="0.277108" d="M327.671,-166.917C328.563,-146.635 333.854,-93.0108 364.5,-65.6985 395.071,-38.4526 518.073,-23.4611 571.51,-18.1223"/>
<polygon fill="red" stroke="red" stroke-width="0.277108" points="571.894,-21.6015 581.511,-17.1554 571.221,-14.634 571.894,-21.6015"/>
</g>
<!-- &#45;4 -->
<g id="node4" class="node"><title>&#45;4</title>
<polygon fill="lightgray" stroke="black" points="118.5,-184.945 94.5,-184.945 94.5,-166.945 118.5,-166.945 118.5,-184.945"/>
<text text-anchor="middle" x="106.5" y="-173.745" font-family="Times,serif" font-size="9.00">&#45;4</text>
</g>
<!-- &#45;4&#45;&gt;0 -->
<g id="edge37" class="edge"><title>&#45;4&#45;&gt;0</title>
<path fill="none" stroke="red" stroke-width="0.658926" d="M111.752,-166.662C115.507,-161.426 121.029,-154.959 127.5,-151.196 138.885,-144.576 320.6,-109.139 387.784,-96.1897"/>
<polygon fill="red" stroke="red" stroke-width="0.658926" points="388.732,-99.5716 397.89,-94.245 387.409,-92.6977 388.732,-99.5716"/>
</g>
<!-- 3 -->
<g id="node28" class="node"><title>3</title>
<ellipse fill="lightblue" stroke="black" cx="178.5" cy="-90.4472" rx="14.7" ry="14.7"/>
<text text-anchor="middle" x="178.5" y="-88.2472" font-family="Times,serif" font-size="9.00">3</text>
</g>
<!-- &#45;4&#45;&gt;3 -->
<g id="edge16" class="edge"><title>&#45;4&#45;&gt;3</title>
<path fill="none" stroke="red" stroke-width="0.103815" d="M113.404,-166.939C124.595,-153.96 146.993,-127.986 162.361,-110.163"/>
<polygon fill="red" stroke="red" stroke-width="0.103815" points="165.381,-112.02 169.261,-102.162 160.08,-107.449 165.381,-112.02"/>
</g>
<!-- &#45;5 -->
<g id="node5" class="node"><title>&#45;5</title>
<polygon fill="lightgray" stroke="black" points="160.5,-184.945 136.5,-184.945 136.5,-166.945 160.5,-166.945 160.5,-184.945"/>
<text text-anchor="middle" x="148.5" y="-173.745" font-family="Times,serif" font-size="9.00">&#45;5</text>
</g>
<!-- &#45;5&#45;&gt;0 -->
<g id="edge25" class="edge"><title>&#45;5&#45;&gt;0</title>
<path fill="none" stroke="red" stroke-width="1.35684" d="M153.795,-166.735C157.569,-161.53 163.095,-155.069 169.5,-151.196 188.359,-139.791 330.001,-108.925 387.925,-96.6168"/>
<polygon fill="red" stroke="red" stroke-width="1.35684" points="388.968,-99.9736 398.026,-94.4783 387.518,-93.1254 388.968,-99.9736"/>
</g>
<!-- &#45;5&#45;&gt;3 -->
<g id="edge39" class="edge"><title>&#45;5&#45;&gt;3</title>
<path fill="none" stroke="red" stroke-width="0.696688" d="M151.377,-166.939C155.692,-154.928 164.006,-131.789 170.297,-114.279"/>
<polygon fill="red" stroke="red" stroke-width="0.696688" points="173.634,-115.341 173.722,-104.747 167.046,-112.974 173.634,-115.341"/>
</g>
<!-- &#45;6 -->
<g id="node6" class="node"><title>&#45;6</title>
<polygon fill="lightgray" stroke="black" points="608.5,-184.945 584.5,-184.945 584.5,-166.945 608.5,-166.945 608.5,-184.945"/>
<text text-anchor="middle" x="596.5" y="-173.745" font-family="Times,serif" font-size="9.00">&#45;6</text>
</g>
<!-- &#45;6&#45;&gt;0 -->
<g id="edge14" class="edge"><title>&#45;6&#45;&gt;0</title>
<path fill="none" stroke="green" stroke-width="0.170985" d="M590.359,-166.525C586.327,-161.499 580.671,-155.314 574.5,-151.196 530.401,-121.767 469.914,-104.483 436.731,-96.6096"/>
<polygon fill="green" stroke="green" stroke-width="0.170985" points="437.5,-93.1952 426.972,-94.3804 435.941,-100.019 437.5,-93.1952"/>
</g>
<!-- &#45;6&#45;&gt;1 -->
<g id="edge27" class="edge"><title>&#45;6&#45;&gt;1</title>
<path fill="none" stroke="red" stroke-width="0.179597" d="M602.274,-166.494C606.089,-161.456 611.484,-155.269 617.5,-151.196 662.826,-120.507 725.727,-103.629 759.94,-96.179"/>
<polygon fill="red" stroke="red" stroke-width="0.179597" points="760.907,-99.5529 769.982,-94.0858 759.478,-92.7002 760.907,-99.5529"/>
</g>
<!-- &#45;6&#45;&gt;410 -->
<g id="edge54" class="edge"><title>&#45;6&#45;&gt;410</title>
<path fill="none" stroke="red" stroke-width="0.232084" d="M596.5,-166.939C596.5,-156.626 596.5,-138.108 596.5,-121.994"/>
<polygon fill="red" stroke="red" stroke-width="0.232084" points="600,-121.863 596.5,-111.863 593,-121.863 600,-121.863"/>
</g>
<!-- &#45;7 -->
<g id="node7" class="node"><title>&#45;7</title>
<polygon fill="lightgray" stroke="black" points="381.5,-184.945 357.5,-184.945 357.5,-166.945 381.5,-166.945 381.5,-184.945"/>
<text text-anchor="middle" x="369.5" y="-173.745" font-family="Times,serif" font-size="9.00">&#45;7</text>
</g>
<!-- &#45;7&#45;&gt;0 -->
<g id="edge36" class="edge"><title>&#45;7&#45;&gt;0</title>
<path fill="none" stroke="green" stroke-width="0.235267" d="M373.623,-166.939C379.973,-154.609 392.362,-130.552 401.454,-112.897"/>
<polygon fill="green" stroke="green" stroke-width="0.235267" points="404.64,-114.355 406.107,-103.862 398.417,-111.15 404.64,-114.355"/>
</g>
<!-- &#45;7&#45;&gt;2 -->
<g id="edge10" class="edge"><title>&#45;7&#45;&gt;2</title>
<path fill="none" stroke="red" stroke-width="0.19773" d="M368.206,-166.797C365.514,-146.702 361.619,-94.3293 388.5,-65.6985 413.371,-39.2089 521.768,-24.0881 571.455,-18.4345"/>
<polygon fill="red" stroke="red" stroke-width="0.19773" points="572.101,-21.8846 581.659,-17.3134 571.337,-14.9265 572.101,-21.8846"/>
</g>
<!-- &#45;7&#45;&gt;410 -->
<g id="edge7" class="edge"><title>&#45;7&#45;&gt;410</title>
<path fill="none" stroke="green" stroke-width="0.185081" d="M374.848,-166.822C378.645,-161.653 384.176,-155.201 390.5,-151.196 446.039,-116.025 522.943,-100.948 565.333,-94.9774"/>
<polygon fill="green" stroke="green" stroke-width="0.185081" points="565.88,-98.4355 575.332,-93.6489 564.958,-91.4965 565.88,-98.4355"/>
</g>
<!-- &#45;8 -->
<g id="node8" class="node"><title>&#45;8</title>
<polygon fill="lightgray" stroke="black" points="297.5,-184.945 273.5,-184.945 273.5,-166.945 297.5,-166.945 297.5,-184.945"/>
<text text-anchor="middle" x="285.5" y="-173.745" font-family="Times,serif" font-size="9.00">&#45;8</text>
</g>
<!-- &#45;8&#45;&gt;3 -->
<g id="edge34" class="edge"><title>&#45;8&#45;&gt;3</title>
<path fill="none" stroke="green" stroke-width="0.703774" d="M278.563,-166.62C274.417,-161.867 268.917,-155.93 263.5,-151.196 243.027,-133.307 217.196,-115.771 199.414,-104.373"/>
<polygon fill="green" stroke="green" stroke-width="0.703774" points="201.242,-101.389 190.919,-99.0034 197.502,-107.305 201.242,-101.389"/>
</g>
<!-- &#45;8&#45;&gt;410 -->
<g id="edge53" class="edge"><title>&#45;8&#45;&gt;410</title>
<path fill="none" stroke="green" stroke-width="0.288661" d="M290.747,-166.655C294.501,-161.415 300.023,-154.947 306.5,-151.196 350.533,-125.693 499.902,-103.901 565.348,-95.3335"/>
<polygon fill="green" stroke="green" stroke-width="0.288661" points="565.995,-98.779 575.465,-94.0271 565.099,-91.8366 565.995,-98.779"/>
</g>
<!-- &#45;9 -->
<g id="node9" class="node"><title>&#45;9</title>
<polygon fill="lightgray" stroke="black" points="949.5,-184.945 925.5,-184.945 925.5,-166.945 949.5,-166.945 949.5,-184.945"/>
<text text-anchor="middle" x="937.5" y="-173.745" font-family="Times,serif" font-size="9.00">&#45;9</text>
</g>
<!-- &#45;9&#45;&gt;1 -->
<g id="edge22" class="edge"><title>&#45;9&#45;&gt;1</title>
<path fill="none" stroke="red" stroke-width="0.153736" d="M931.673,-166.571C927.837,-161.563 922.44,-155.379 916.5,-151.196 881.278,-126.388 865.338,-133.84 826.5,-115.196 819.6,-111.883 812.275,-107.91 805.707,-104.169"/>
<polygon fill="red" stroke="red" stroke-width="0.153736" points="807.167,-100.969 796.764,-98.9599 803.643,-107.018 807.167,-100.969"/>
</g>
<!-- &#45;10 -->
<g id="node10" class="node"><title>&#45;10</title>
<polygon fill="lightgray" stroke="black" points="656,-184.945 627,-184.945 627,-166.945 656,-166.945 656,-184.945"/>
<text text-anchor="middle" x="641.5" y="-173.745" font-family="Times,serif" font-size="9.00">&#45;10</text>
</g>
<!-- &#45;10&#45;&gt;410 -->
<g id="edge2" class="edge"><title>&#45;10&#45;&gt;410</title>
<path fill="none" stroke="red" stroke-width="0.324081" d="M637.185,-166.939C631.209,-155.849 620.119,-135.272 611.025,-118.399"/>
<polygon fill="red" stroke="red" stroke-width="0.324081" points="614.049,-116.632 606.224,-109.489 607.887,-119.953 614.049,-116.632"/>
</g>
<!-- &#45;11 -->
<g id="node11" class="node"><title>&#45;11</title>
<polygon fill="lightgray" stroke="black" points="76,-184.945 47,-184.945 47,-166.945 76,-166.945 76,-184.945"/>
<text text-anchor="middle" x="61.5" y="-173.745" font-family="Times,serif" font-size="9.00">&#45;11</text>
</g>
<!-- &#45;11&#45;&gt;3 -->
<g id="edge32" class="edge"><title>&#45;11&#45;&gt;3</title>
<path fill="none" stroke="green" stroke-width="0.530895" d="M69.1088,-166.589C73.6451,-161.825 79.6451,-155.888 85.5,-151.196 108.665,-132.632 137.791,-114.687 157.216,-103.391"/>
<polygon fill="green" stroke="green" stroke-width="0.530895" points="158.972,-106.419 165.904,-98.4067 155.489,-100.347 158.972,-106.419"/>
</g>
<!-- &#45;12 -->
<g id="node12" class="node"><title>&#45;12</title>
<polygon fill="lightgray" stroke="black" points="29,-184.945 0,-184.945 0,-166.945 29,-166.945 29,-184.945"/>
<text text-anchor="middle" x="14.5" y="-173.745" font-family="Times,serif" font-size="9.00">&#45;12</text>
</g>
<!-- &#45;12&#45;&gt;2 -->
<g id="edge30" class="edge"><title>&#45;12&#45;&gt;2</title>
<path fill="none" stroke="red" stroke-width="0.360645" d="M21.6638,-166.71C40.7325,-145.448 95.3271,-88.7643 154.5,-65.6985 231.635,-35.6308 489.625,-20.9606 571.406,-16.9878"/>
<polygon fill="red" stroke="red" stroke-width="0.360645" points="571.916,-20.4677 581.739,-16.4978 571.584,-13.4755 571.916,-20.4677"/>
</g>
<!-- &#45;12&#45;&gt;3 -->
<g id="edge45" class="edge"><title>&#45;12&#45;&gt;3</title>
<path fill="none" stroke="red" stroke-width="0.395691" d="M21.0632,-166.643C25.332,-161.661 31.2517,-155.481 37.5,-151.196 74.9933,-125.484 125.31,-107.463 154.589,-98.3302"/>
<polygon fill="red" stroke="red" stroke-width="0.395691" points="155.806,-101.619 164.362,-95.37 153.777,-94.9194 155.806,-101.619"/>
</g>
<!-- &#45;13 -->
<g id="node13" class="node"><title>&#45;13</title>
<polygon fill="lightgray" stroke="black" points="864,-99.4472 835,-99.4472 835,-81.4472 864,-81.4472 864,-99.4472"/>
<text text-anchor="middle" x="849.5" y="-88.2472" font-family="Times,serif" font-size="9.00">&#45;13</text>
</g>
<!-- &#45;13&#45;&gt;2 -->
<g id="edge17" class="edge"><title>&#45;13&#45;&gt;2</title>
<path fill="none" stroke="green" stroke-width="0.53024" d="M843.574,-81.185C839.387,-75.9571 833.322,-69.4916 826.5,-65.6985 759.015,-28.1778 665.824,-18.8879 621.659,-16.5953"/>
<polygon fill="green" stroke="green" stroke-width="0.53024" points="621.676,-13.0928 611.532,-16.1503 621.368,-20.086 621.676,-13.0928"/>
</g>
<!-- &#45;14 -->
<g id="node14" class="node"><title>&#45;14</title>
<polygon fill="lightgray" stroke="black" points="1044,-184.945 1015,-184.945 1015,-166.945 1044,-166.945 1044,-184.945"/>
<text text-anchor="middle" x="1029.5" y="-173.745" font-family="Times,serif" font-size="9.00">&#45;14</text>
</g>
<!-- &#45;14&#45;&gt;1 -->
<g id="edge55" class="edge"><title>&#45;14&#45;&gt;1</title>
<path fill="none" stroke="green" stroke-width="0.346578" d="M1023.59,-166.646C1019.42,-161.403 1013.35,-154.934 1006.5,-151.196 934.88,-112.125 902.969,-143.631 826.5,-115.196 819.326,-112.528 811.922,-108.739 805.367,-104.969"/>
<polygon fill="green" stroke="green" stroke-width="0.346578" points="806.861,-101.782 796.495,-99.5925 803.233,-107.769 806.861,-101.782"/>
</g>
<!-- &#45;14&#45;&gt;2 -->
<g id="edge13" class="edge"><title>&#45;14&#45;&gt;2</title>
<path fill="none" stroke="green" stroke-width="0.703641" d="M1022.78,-166.896C1004.88,-146.081 953.587,-90.3851 897.5,-65.6985 801.773,-23.5642 674.646,-16.7708 621.507,-15.8673"/>
<polygon fill="green" stroke="green" stroke-width="0.703641" points="621.367,-12.3656 611.329,-15.7533 621.289,-19.3651 621.367,-12.3656"/>
</g>
<!-- &#45;15 -->
<g id="node15" class="node"><title>&#45;15</title>
<polygon fill="lightgray" stroke="black" points="703,-184.945 674,-184.945 674,-166.945 703,-166.945 703,-184.945"/>
<text text-anchor="middle" x="688.5" y="-173.745" font-family="Times,serif" font-size="9.00">&#45;15</text>
</g>
<!-- &#45;15&#45;&gt;0 -->
<g id="edge31" class="edge"><title>&#45;15&#45;&gt;0</title>
<path fill="none" stroke="green" stroke-width="0.26968" d="M682.219,-166.731C677.809,-161.524 671.471,-155.063 664.5,-151.196 625.059,-129.317 492.666,-105.035 437.236,-95.5535"/>
<polygon fill="green" stroke="green" stroke-width="0.26968" points="437.67,-92.0773 427.226,-93.8597 436.502,-98.9792 437.67,-92.0773"/>
</g>
<!-- &#45;15&#45;&gt;1 -->
<g id="edge15" class="edge"><title>&#45;15&#45;&gt;1</title>
<path fill="none" stroke="green" stroke-width="0.155586" d="M695.945,-166.801C700.343,-162.107 706.093,-156.17 711.5,-151.196 728.932,-135.162 749.965,-118.176 764.967,-106.431"/>
<polygon fill="green" stroke="green" stroke-width="0.155586" points="767.28,-109.066 773.031,-100.168 762.986,-103.538 767.28,-109.066"/>
</g>
<!-- &#45;15&#45;&gt;410 -->
<g id="edge38" class="edge"><title>&#45;15&#45;&gt;410</title>
<path fill="none" stroke="red" stroke-width="0.197503" d="M680.615,-166.908C675.987,-162.25 669.987,-156.313 664.5,-151.196 650.033,-137.705 633.353,-123.035 620.133,-111.608"/>
<polygon fill="red" stroke="red" stroke-width="0.197503" points="622.262,-108.823 612.4,-104.952 617.696,-114.128 622.262,-108.823"/>
</g>
<!-- &#45;16 -->
<g id="node16" class="node"><title>&#45;16</title>
<polygon fill="lightgray" stroke="black" points="255,-184.945 226,-184.945 226,-166.945 255,-166.945 255,-184.945"/>
<text text-anchor="middle" x="240.5" y="-173.745" font-family="Times,serif" font-size="9.00">&#45;16</text>
</g>
<!-- &#45;16&#45;&gt;0 -->
<g id="edge18" class="edge"><title>&#45;16&#45;&gt;0</title>
<path fill="none" stroke="green" stroke-width="0.413436" d="M247.388,-166.62C251.857,-161.63 258.036,-155.449 264.5,-151.196 304.465,-124.903 357.837,-106.899 388.356,-97.9629"/>
<polygon fill="green" stroke="green" stroke-width="0.413436" points="389.478,-101.283 398.139,-95.1814 387.563,-94.5498 389.478,-101.283"/>
</g>
<!-- &#45;16&#45;&gt;3 -->
<g id="edge5" class="edge"><title>&#45;16&#45;&gt;3</title>
<path fill="none" stroke="green" stroke-width="0.44642" d="M234.555,-166.939C225.109,-154.217 206.391,-129.01 193.191,-111.232"/>
<polygon fill="green" stroke="green" stroke-width="0.44642" points="195.64,-108.66 186.869,-102.718 190.02,-112.833 195.64,-108.66"/>
</g>
<!-- 1265 -->
<g id="node30" class="node"><title>1265</title>
<ellipse fill="white" stroke="black" cx="256.5" cy="-90.4472" rx="25" ry="25"/>
<text text-anchor="middle" x="256.5" y="-88.2472" font-family="Times,serif" font-size="9.00">1265</text>
</g>
<!-- &#45;16&#45;&gt;1265 -->
<g id="edge42" class="edge"><title>&#45;16&#45;&gt;1265</title>
<path fill="none" stroke="green" stroke-width="0.666097" d="M242.034,-166.939C243.877,-157.321 247.088,-140.567 250.016,-125.282"/>
<polygon fill="green" stroke="green" stroke-width="0.666097" points="253.534,-125.521 251.979,-115.041 246.659,-124.204 253.534,-125.521"/>
</g>
<!-- &#45;16&#45;&gt;410 -->
<g id="edge20" class="edge"><title>&#45;16&#45;&gt;410</title>
<path fill="none" stroke="green" stroke-width="0.510226" d="M246.713,-166.605C251.094,-161.344 257.426,-154.871 264.5,-151.196 291.118,-137.369 487.747,-107.409 565.238,-95.9916"/>
<polygon fill="green" stroke="green" stroke-width="0.510226" points="565.966,-99.4224 575.352,-94.5073 564.949,-92.4966 565.966,-99.4224"/>
</g>
<!-- &#45;17 -->
<g id="node17" class="node"><title>&#45;17</title>
<polygon fill="lightgray" stroke="black" points="566,-184.945 537,-184.945 537,-166.945 566,-166.945 566,-184.945"/>
<text text-anchor="middle" x="551.5" y="-173.745" font-family="Times,serif" font-size="9.00">&#45;17</text>
</g>
<!-- &#45;17&#45;&gt;1 -->
<g id="edge48" class="edge"><title>&#45;17&#45;&gt;1</title>
<path fill="none" stroke="red" stroke-width="0.149427" d="M557.841,-166.835C562.275,-161.672 568.619,-155.221 575.5,-151.196 636.072,-115.763 718.92,-100.281 759.724,-94.4608"/>
<polygon fill="red" stroke="red" stroke-width="0.149427" points="760.396,-97.902 769.838,-93.0958 759.459,-90.9649 760.396,-97.902"/>
</g>
<!-- &#45;17&#45;&gt;3 -->
<g id="edge52" class="edge"><title>&#45;17&#45;&gt;3</title>
<path fill="none" stroke="green" stroke-width="0.574388" d="M545.737,-166.929C541.378,-161.525 534.894,-154.757 527.5,-151.196 404.522,-91.9706 352.647,-156.343 222.5,-115.196 214.647,-112.713 206.572,-108.809 199.517,-104.878"/>
<polygon fill="green" stroke="green" stroke-width="0.574388" points="201.036,-101.71 190.647,-99.6312 197.472,-107.735 201.036,-101.71"/>
</g>
<!-- &#45;17&#45;&gt;410 -->
<g id="edge51" class="edge"><title>&#45;17&#45;&gt;410</title>
<path fill="none" stroke="red" stroke-width="0.163139" d="M555.815,-166.939C561.791,-155.849 572.881,-135.272 581.975,-118.399"/>
<polygon fill="red" stroke="red" stroke-width="0.163139" points="585.113,-119.953 586.776,-109.489 578.951,-116.632 585.113,-119.953"/>
</g>
<!-- &#45;18 -->
<g id="node18" class="node"><title>&#45;18</title>
<polygon fill="lightgray" stroke="black" points="907,-184.945 878,-184.945 878,-166.945 907,-166.945 907,-184.945"/>
<text text-anchor="middle" x="892.5" y="-173.745" font-family="Times,serif" font-size="9.00">&#45;18</text>
</g>
<!-- &#45;18&#45;&gt;1 -->
<g id="edge8" class="edge"><title>&#45;18&#45;&gt;1</title>
<path fill="none" stroke="red" stroke-width="0.854938" d="M884.807,-166.692C880.243,-161.962 874.243,-156.025 868.5,-151.196 848.044,-133.994 822.868,-116.529 805.44,-104.961"/>
<polygon fill="red" stroke="red" stroke-width="0.854938" points="806.915,-101.743 796.635,-99.1808 803.074,-107.594 806.915,-101.743"/>
</g>
<!-- &#45;18&#45;&gt;2 -->
<g id="edge23" class="edge"><title>&#45;18&#45;&gt;2</title>
<path fill="none" stroke="red" stroke-width="0.18723" d="M893.894,-166.701C896.813,-146.385 901.188,-93.5493 873.5,-65.6985 838.32,-30.312 682.966,-19.6599 621.58,-16.799"/>
<polygon fill="red" stroke="red" stroke-width="0.18723" points="621.728,-13.3022 611.585,-16.3642 621.424,-20.2956 621.728,-13.3022"/>
</g>
<!-- &#45;18&#45;&gt;410 -->
<g id="edge49" class="edge"><title>&#45;18&#45;&gt;410</title>
<path fill="none" stroke="red" stroke-width="0.109631" d="M886.24,-166.693C881.839,-161.47 875.503,-155.005 868.5,-151.196 826.846,-128.538 689.335,-105.524 627.317,-96.0018"/>
<polygon fill="red" stroke="red" stroke-width="0.109631" points="627.757,-92.5286 617.344,-94.4874 626.705,-99.4492 627.757,-92.5286"/>
</g>
<!-- &#45;19 -->
<g id="node19" class="node"><title>&#45;19</title>
<polygon fill="lightgray" stroke="black" points="208,-184.945 179,-184.945 179,-166.945 208,-166.945 208,-184.945"/>
<text text-anchor="middle" x="193.5" y="-173.745" font-family="Times,serif" font-size="9.00">&#45;19</text>
</g>
<!-- &#45;19&#45;&gt;0 -->
<g id="edge40" class="edge"><title>&#45;19&#45;&gt;0</title>
<path fill="none" stroke="red" stroke-width="0.241212" d="M199.533,-166.866C203.765,-161.715 209.84,-155.267 216.5,-151.196 272.266,-117.109 348.94,-101.175 387.789,-94.8943"/>
<polygon fill="red" stroke="red" stroke-width="0.241212" points="388.342,-98.3505 397.695,-93.3719 387.279,-91.4317 388.342,-98.3505"/>
</g>
<!-- &#45;19&#45;&gt;3 -->
<g id="edge4" class="edge"><title>&#45;19&#45;&gt;3</title>
<path fill="none" stroke="red" stroke-width="0.952365" d="M192.062,-166.939C189.949,-155.175 185.918,-132.737 182.797,-115.368"/>
<polygon fill="red" stroke="red" stroke-width="0.952365" points="186.211,-114.573 180.997,-105.349 179.321,-115.811 186.211,-114.573"/>
</g>
<!-- &#45;20 -->
<g id="node20" class="node"><title>&#45;20</title>
<polygon fill="lightgray" stroke="black" points="750,-184.945 721,-184.945 721,-166.945 750,-166.945 750,-184.945"/>
<text text-anchor="middle" x="735.5" y="-173.745" font-family="Times,serif" font-size="9.00">&#45;20</text>
</g>
<!-- &#45;20&#45;&gt;410 -->
<g id="edge50" class="edge"><title>&#45;20&#45;&gt;410</title>
<path fill="none" stroke="green" stroke-width="0.332852" d="M728.464,-166.834C723.939,-161.924 717.754,-155.752 711.5,-151.196 684.17,-131.284 649.293,-114.158 625.151,-103.411"/>
<polygon fill="green" stroke="green" stroke-width="0.332852" points="626.396,-100.135 615.831,-99.341 623.595,-106.55 626.396,-100.135"/>
</g>
<!-- &#45;21 -->
<g id="node21" class="node"><title>&#45;21</title>
<polygon fill="lightgray" stroke="black" points="997,-184.945 968,-184.945 968,-166.945 997,-166.945 997,-184.945"/>
<text text-anchor="middle" x="982.5" y="-173.745" font-family="Times,serif" font-size="9.00">&#45;21</text>
</g>
<!-- &#45;21&#45;&gt;1 -->
<g id="edge9" class="edge"><title>&#45;21&#45;&gt;1</title>
<path fill="none" stroke="green" stroke-width="0.168859" d="M976.176,-166.808C971.747,-161.633 965.406,-155.179 958.5,-151.196 905.825,-120.813 882.733,-138.34 826.5,-115.196 819.422,-112.283 812.046,-108.424 805.486,-104.665"/>
<polygon fill="green" stroke="green" stroke-width="0.168859" points="806.97,-101.474 796.589,-99.3517 803.38,-107.484 806.97,-101.474"/>
</g>
<!-- &#45;22 -->
<g id="node22" class="node"><title>&#45;22</title>
<polygon fill="lightgray" stroke="black" points="1091,-184.945 1062,-184.945 1062,-166.945 1091,-166.945 1091,-184.945"/>
<text text-anchor="middle" x="1076.5" y="-173.745" font-family="Times,serif" font-size="9.00">&#45;22</text>
</g>
<!-- &#45;22&#45;&gt;1 -->
<g id="edge21" class="edge"><title>&#45;22&#45;&gt;1</title>
<path fill="none" stroke="green" stroke-width="0.428117" d="M1070.64,-166.555C1066.48,-161.274 1060.43,-154.796 1053.5,-151.196 962.863,-104.085 922.939,-148.872 826.5,-115.196 819.274,-112.673 811.855,-108.925 805.302,-105.149"/>
<polygon fill="green" stroke="green" stroke-width="0.428117" points="806.802,-101.963 796.444,-99.7342 803.151,-107.936 806.802,-101.963"/>
</g>
<!-- &#45;22&#45;&gt;2 -->
<g id="edge41" class="edge"><title>&#45;22&#45;&gt;2</title>
<path fill="none" stroke="red" stroke-width="0.122042" d="M1070,-166.828C1052.69,-145.849 1002.95,-89.792 947.5,-65.6985 888.424,-40.0287 691.321,-23.0118 621.38,-17.6578"/>
<polygon fill="red" stroke="red" stroke-width="0.122042" points="621.521,-14.1586 611.287,-16.8991 620.996,-21.1389 621.521,-14.1586"/>
</g>
<!-- &#45;23 -->
<g id="node23" class="node"><title>&#45;23</title>
<polygon fill="lightgray" stroke="black" points="519,-184.945 490,-184.945 490,-166.945 519,-166.945 519,-184.945"/>
<text text-anchor="middle" x="504.5" y="-173.745" font-family="Times,serif" font-size="9.00">&#45;23</text>
</g>
<!-- &#45;23&#45;&gt;0 -->
<g id="edge1" class="edge"><title>&#45;23&#45;&gt;0</title>
<path fill="none" stroke="red" stroke-width="0.232655" d="M496.615,-166.908C491.987,-162.25 485.987,-156.313 480.5,-151.196 464.32,-136.107 445.371,-119.544 431.592,-107.692"/>
<polygon fill="red" stroke="red" stroke-width="0.232655" points="433.623,-104.824 423.751,-100.977 429.069,-110.14 433.623,-104.824"/>
</g>
<!-- &#45;23&#45;&gt;410 -->
<g id="edge26" class="edge"><title>&#45;23&#45;&gt;410</title>
<path fill="none" stroke="green" stroke-width="0.495259" d="M511.997,-166.857C516.412,-162.181 522.162,-156.244 527.5,-151.196 542.087,-137.4 559.137,-122.624 572.639,-111.218"/>
<polygon fill="green" stroke="green" stroke-width="0.495259" points="575.125,-113.701 580.533,-104.59 570.624,-108.339 575.125,-113.701"/>
</g>
<!-- &#45;24 -->
<g id="node24" class="node"><title>&#45;24</title>
<polygon fill="lightgray" stroke="black" points="429,-184.945 400,-184.945 400,-166.945 429,-166.945 429,-184.945"/>
<text text-anchor="middle" x="414.5" y="-173.745" font-family="Times,serif" font-size="9.00">&#45;24</text>
</g>
<!-- &#45;24&#45;&gt;0 -->
<g id="edge46" class="edge"><title>&#45;24&#45;&gt;0</title>
<path fill="none" stroke="green" stroke-width="0.516161" d="M414.308,-166.939C414.026,-155.175 413.489,-132.737 413.073,-115.368"/>
<polygon fill="green" stroke="green" stroke-width="0.516161" points="416.572,-115.263 412.833,-105.349 409.574,-115.43 416.572,-115.263"/>
</g>
<!-- 1&#45;&gt;1 -->
<g id="edge24" class="edge"><title>1&#45;&gt;1</title>
<path fill="none" stroke="red" stroke-width="0.559795" d="M794.928,-101.274C805.539,-107.642 817.349,-104.033 817.349,-90.4472 817.349,-81.1069 811.767,-76.4823 804.83,-76.5735"/>
<polygon fill="red" stroke="red" stroke-width="0.559795" points="803.456,-73.3343 794.928,-79.6209 805.515,-80.0247 803.456,-73.3343"/>
</g>
<!-- 3&#45;&gt;3 -->
<g id="edge12" class="edge"><title>3&#45;&gt;3</title>
<path fill="none" stroke="red" stroke-width="0.404726" d="M188.928,-101.274C199.539,-107.642 211.349,-104.033 211.349,-90.4472 211.349,-81.1069 205.767,-76.4823 198.83,-76.5735"/>
<polygon fill="red" stroke="red" stroke-width="0.404726" points="197.456,-73.3343 188.928,-79.6209 199.515,-80.0247 197.456,-73.3343"/>
</g>
<!-- 3009 -->
<g id="node29" class="node"><title>3009</title>
<ellipse fill="white" stroke="black" cx="792.5" cy="-175.945" rx="25" ry="25"/>
<text text-anchor="middle" x="792.5" y="-173.745" font-family="Times,serif" font-size="9.00">3009</text>
</g>
<!-- 3009&#45;&gt;410 -->
<g id="edge29" class="edge"><title>3009&#45;&gt;410</title>
<path fill="none" stroke="green" stroke-width="0.363913" d="M773.528,-159.96C769.073,-156.823 764.239,-153.709 759.5,-151.196 715.34,-127.779 659.988,-109.627 626.478,-99.7459"/>
<polygon fill="green" stroke="green" stroke-width="0.363913" points="627.395,-96.3678 616.817,-96.9483 625.448,-103.092 627.395,-96.3678"/>
</g>
<!-- 1265&#45;&gt;2 -->
<g id="edge43" class="edge"><title>1265&#45;&gt;2</title>
<path fill="none" stroke="red" stroke-width="0.303463" d="M278.81,-79.194C289.69,-74.5243 303.081,-69.2578 315.5,-65.6985 408.045,-39.1744 521.986,-24.1966 571.53,-18.5179"/>
<polygon fill="red" stroke="red" stroke-width="0.303463" points="572.08,-21.9783 581.629,-17.3881 571.302,-15.0217 572.08,-21.9783"/>
</g>
<!-- 410&#45;&gt;2 -->
<g id="edge6" class="edge"><title>410&#45;&gt;2</title>
<path fill="none" stroke="green" stroke-width="0.102277" d="M596.5,-68.9461C596.5,-60.0194 596.5,-49.4893 596.5,-40.1702"/>
<polygon fill="green" stroke="green" stroke-width="0.102277" points="600,-39.9553 596.5,-29.9553 593,-39.9553 600,-39.9553"/>
</g>
<!-- 410&#45;&gt;410 -->
<g id="edge28" class="edge"><title>410&#45;&gt;410</title>
<path fill="none" stroke="green" stroke-width="0.150285" d="M613.837,-103.225C624.984,-106.558 635.713,-102.299 635.713,-90.4472 635.713,-82.2993 630.642,-77.7399 623.85,-76.7692"/>
<polygon fill="green" stroke="green" stroke-width="0.150285" points="623.483,-73.288 613.837,-77.6698 624.11,-80.2599 623.483,-73.288"/>
</g>
<!-- 1855 -->
<g id="node32" class="node"><title>1855</title>
<ellipse fill="white" stroke="black" cx="1133.5" cy="-175.945" rx="25" ry="25"/>
<text text-anchor="middle" x="1133.5" y="-173.745" font-family="Times,serif" font-size="9.00">1855</text>
</g>
</g>
</svg>
