<?xml version="1.0" encoding="UTF-8" standalone="no"?>
<!DOCTYPE svg PUBLIC "-//W3C//DTD SVG 1.1//EN"
 "http://www.w3.org/Graphics/SVG/1.1/DTD/svg11.dtd">
<!-- Generated by graphviz version 2.38.0 (20140413.2041)
 -->
<!-- Title: %3 Pages: 1 -->
<svg width="1080pt" height="92pt"
 viewBox="0.00 0.00 1079.50 91.70" xmlns="http://www.w3.org/2000/svg" xmlns:xlink="http://www.w3.org/1999/xlink">
<g id="graph0" class="graph" transform="scale(1 1) rotate(0) translate(4 87.6985)">
<title>%3</title>
<polygon fill="white" stroke="none" points="-4,4 -4,-87.6985 1075.5,-87.6985 1075.5,4 -4,4"/>
<!-- &#45;1 -->
<g id="node1" class="node"><title>&#45;1</title>
<polygon fill="lightgray" stroke="black" points="293,-83.6985 269,-83.6985 269,-65.6985 293,-65.6985 293,-83.6985"/>
<text text-anchor="middle" x="281" y="-72.4985" font-family="Times,serif" font-size="9.00">&#45;1</text>
</g>
<!-- 1 -->
<g id="node26" class="node"><title>1</title>
<ellipse fill="lightblue" stroke="black" cx="303" cy="-14.8492" rx="14.7" ry="14.7"/>
<text text-anchor="middle" x="303" y="-12.6492" font-family="Times,serif" font-size="9.00">1</text>
</g>
<!-- &#45;1&#45;&gt;1 -->
<g id="edge13" class="edge"><title>&#45;1&#45;&gt;1</title>
<path fill="none" stroke="red" stroke-width="0.216259" d="M284.059,-65.6548C286.723,-58.6501 290.717,-48.1471 294.352,-38.5892"/>
<polygon fill="red" stroke="red" stroke-width="0.216259" points="297.656,-39.7484 297.939,-29.1573 291.113,-37.2601 297.656,-39.7484"/>
</g>
<!-- 3 -->
<g id="node28" class="node"><title>3</title>
<ellipse fill="lightblue" stroke="black" cx="670" cy="-14.8492" rx="14.7" ry="14.7"/>
<text text-anchor="middle" x="670" y="-12.6492" font-family="Times,serif" font-size="9.00">3</text>
</g>
<!-- &#45;1&#45;&gt;3 -->
<g id="edge39" class="edge"><title>&#45;1&#45;&gt;3</title>
<path fill="none" stroke="green" stroke-width="0.19629" d="M293.421,-68.6583C296.511,-67.5506 299.843,-66.4773 303,-65.6985 429.357,-34.5241 585.322,-21.4839 645.091,-17.3901"/>
<polygon fill="green" stroke="green" stroke-width="0.19629" points="645.356,-20.8803 655.103,-16.7274 644.894,-13.8956 645.356,-20.8803"/>
</g>
<!-- &#45;2 -->
<g id="node2" class="node"><title>&#45;2</title>
<polygon fill="lightgray" stroke="black" points="614,-83.6985 590,-83.6985 590,-65.6985 614,-65.6985 614,-83.6985"/>
<text text-anchor="middle" x="602" y="-72.4985" font-family="Times,serif" font-size="9.00">&#45;2</text>
</g>
<!-- &#45;2&#45;&gt;1 -->
<g id="edge18" class="edge"><title>&#45;2&#45;&gt;1</title>
<path fill="none" stroke="green" stroke-width="0.184489" d="M589.691,-68.5711C586.869,-67.5186 583.857,-66.4914 581,-65.6985 489.195,-40.2211 376.599,-24.7011 327.66,-18.7003"/>
<polygon fill="green" stroke="green" stroke-width="0.184489" points="328.031,-15.2198 317.685,-17.5019 327.196,-22.1698 328.031,-15.2198"/>
</g>
<!-- 2 -->
<g id="node27" class="node"><title>2</title>
<ellipse fill="lightblue" stroke="black" cx="760" cy="-14.8492" rx="14.7" ry="14.7"/>
<text text-anchor="middle" x="760" y="-12.6492" font-family="Times,serif" font-size="9.00">2</text>
</g>
<!-- &#45;2&#45;&gt;2 -->
<g id="edge27" class="edge"><title>&#45;2&#45;&gt;2</title>
<path fill="none" stroke="green" stroke-width="0.185622" d="M614.136,-69.2552C640.33,-59.6644 702.551,-36.8833 736.654,-24.3971"/>
<polygon fill="green" stroke="green" stroke-width="0.185622" points="738.077,-27.6035 746.264,-20.8786 735.67,-21.0302 738.077,-27.6035"/>
</g>
<!-- &#45;3 -->
<g id="node3" class="node"><title>&#45;3</title>
<polygon fill="lightgray" stroke="black" points="251,-83.6985 227,-83.6985 227,-65.6985 251,-65.6985 251,-83.6985"/>
<text text-anchor="middle" x="239" y="-72.4985" font-family="Times,serif" font-size="9.00">&#45;3</text>
</g>
<!-- 0 -->
<g id="node25" class="node"><title>0</title>
<ellipse fill="lightblue" stroke="black" cx="442" cy="-14.8492" rx="14.7" ry="14.7"/>
<text text-anchor="middle" x="442" y="-12.6492" font-family="Times,serif" font-size="9.00">0</text>
</g>
<!-- &#45;3&#45;&gt;0 -->
<g id="edge41" class="edge"><title>&#45;3&#45;&gt;0</title>
<path fill="none" stroke="green" stroke-width="0.163709" d="M251.366,-68.7603C254.186,-67.698 257.181,-66.619 260,-65.6985 315.881,-47.4489 382.841,-30.2917 417.895,-21.6615"/>
<polygon fill="green" stroke="green" stroke-width="0.163709" points="418.819,-25.0389 427.702,-19.2652 417.157,-18.239 418.819,-25.0389"/>
</g>
<!-- &#45;3&#45;&gt;1 -->
<g id="edge29" class="edge"><title>&#45;3&#45;&gt;1</title>
<path fill="none" stroke="green" stroke-width="0.1079" d="M247.899,-65.6548C257.387,-57.0784 272.677,-43.2577 284.746,-32.3485"/>
<polygon fill="green" stroke="green" stroke-width="0.1079" points="287.405,-34.6635 292.477,-25.3614 282.711,-29.4705 287.405,-34.6635"/>
</g>
<!-- &#45;4 -->
<g id="node4" class="node"><title>&#45;4</title>
<polygon fill="lightgray" stroke="black" points="477,-83.6985 453,-83.6985 453,-65.6985 477,-65.6985 477,-83.6985"/>
<text text-anchor="middle" x="465" y="-72.4985" font-family="Times,serif" font-size="9.00">&#45;4</text>
</g>
<!-- &#45;4&#45;&gt;0 -->
<g id="edge32" class="edge"><title>&#45;4&#45;&gt;0</title>
<path fill="none" stroke="red" stroke-width="0.122744" d="M461.802,-65.6548C459.017,-58.6501 454.841,-48.1471 451.041,-38.5892"/>
<polygon fill="red" stroke="red" stroke-width="0.122744" points="454.238,-37.1567 447.291,-29.1573 447.733,-39.7429 454.238,-37.1567"/>
</g>
<!-- &#45;5 -->
<g id="node5" class="node"><title>&#45;5</title>
<polygon fill="lightgray" stroke="black" points="883,-83.6985 859,-83.6985 859,-65.6985 883,-65.6985 883,-83.6985"/>
<text text-anchor="middle" x="871" y="-72.4985" font-family="Times,serif" font-size="9.00">&#45;5</text>
</g>
<!-- &#45;5&#45;&gt;0 -->
<g id="edge21" class="edge"><title>&#45;5&#45;&gt;0</title>
<path fill="none" stroke="red" stroke-width="0.563247" d="M858.722,-68.4523C855.898,-67.4059 852.878,-66.4113 850,-65.6985 707.91,-30.508 531.564,-19.7065 467.094,-16.8034"/>
<polygon fill="red" stroke="red" stroke-width="0.563247" points="467.197,-13.3047 457.057,-16.3756 466.899,-20.2983 467.197,-13.3047"/>
</g>
<!-- &#45;5&#45;&gt;2 -->
<g id="edge46" class="edge"><title>&#45;5&#45;&gt;2</title>
<path fill="none" stroke="green" stroke-width="0.194772" d="M858.697,-67.2866C840.225,-57.6597 805.046,-39.3256 782.063,-27.3477"/>
<polygon fill="green" stroke="green" stroke-width="0.194772" points="783.53,-24.1653 773.044,-22.6474 780.294,-30.3729 783.53,-24.1653"/>
</g>
<!-- &#45;5&#45;&gt;3 -->
<g id="edge35" class="edge"><title>&#45;5&#45;&gt;3</title>
<path fill="none" stroke="green" stroke-width="0.124018" d="M858.632,-68.7662C855.813,-67.7036 852.817,-66.623 850,-65.6985 794.995,-47.6488 729.167,-30.5302 694.363,-21.8225"/>
<polygon fill="green" stroke="green" stroke-width="0.124018" points="695.153,-18.4125 684.604,-19.3984 693.465,-25.206 695.153,-18.4125"/>
</g>
<!-- &#45;6 -->
<g id="node6" class="node"><title>&#45;6</title>
<polygon fill="lightgray" stroke="black" points="24,-83.6985 0,-83.6985 0,-65.6985 24,-65.6985 24,-83.6985"/>
<text text-anchor="middle" x="12" y="-72.4985" font-family="Times,serif" font-size="9.00">&#45;6</text>
</g>
<!-- &#45;6&#45;&gt;1 -->
<g id="edge37" class="edge"><title>&#45;6&#45;&gt;1</title>
<path fill="none" stroke="red" stroke-width="0.23102" d="M24.312,-68.582C27.1342,-67.5289 30.1449,-66.4987 33,-65.6985 121.57,-40.8736 230.026,-25.15 278.064,-18.9122"/>
<polygon fill="red" stroke="red" stroke-width="0.23102" points="278.674,-22.3628 288.152,-17.6274 277.79,-15.4189 278.674,-22.3628"/>
</g>
<!-- &#45;7 -->
<g id="node7" class="node"><title>&#45;7</title>
<polygon fill="lightgray" stroke="black" points="793,-83.6985 769,-83.6985 769,-65.6985 793,-65.6985 793,-83.6985"/>
<text text-anchor="middle" x="781" y="-72.4985" font-family="Times,serif" font-size="9.00">&#45;7</text>
</g>
<!-- &#45;7&#45;&gt;0 -->
<g id="edge8" class="edge"><title>&#45;7&#45;&gt;0</title>
<path fill="none" stroke="red" stroke-width="0.383795" d="M768.704,-68.5245C765.881,-67.4744 762.866,-66.46 760,-65.6985 652.882,-37.2332 520.868,-22.9535 466.83,-17.9647"/>
<polygon fill="red" stroke="red" stroke-width="0.383795" points="467.079,-14.473 456.806,-17.0644 466.453,-21.445 467.079,-14.473"/>
</g>
<!-- &#45;7&#45;&gt;2 -->
<g id="edge33" class="edge"><title>&#45;7&#45;&gt;2</title>
<path fill="none" stroke="green" stroke-width="0.296343" d="M778.08,-65.6548C775.537,-58.6501 771.725,-48.1471 768.255,-38.5892"/>
<polygon fill="green" stroke="green" stroke-width="0.296343" points="771.533,-37.3628 764.831,-29.1573 764.953,-39.7515 771.533,-37.3628"/>
</g>
<!-- &#45;7&#45;&gt;3 -->
<g id="edge19" class="edge"><title>&#45;7&#45;&gt;3</title>
<path fill="none" stroke="green" stroke-width="0.414014" d="M768.697,-67.2866C750.225,-57.6597 715.046,-39.3256 692.063,-27.3477"/>
<polygon fill="green" stroke="green" stroke-width="0.414014" points="693.53,-24.1653 683.044,-22.6474 690.294,-30.3729 693.53,-24.1653"/>
</g>
<!-- &#45;8 -->
<g id="node8" class="node"><title>&#45;8</title>
<polygon fill="lightgray" stroke="black" points="751,-83.6985 727,-83.6985 727,-65.6985 751,-65.6985 751,-83.6985"/>
<text text-anchor="middle" x="739" y="-72.4985" font-family="Times,serif" font-size="9.00">&#45;8</text>
</g>
<!-- &#45;8&#45;&gt;1 -->
<g id="edge11" class="edge"><title>&#45;8&#45;&gt;1</title>
<path fill="none" stroke="green" stroke-width="0.137419" d="M726.723,-68.4477C723.899,-67.4016 720.879,-66.4082 718,-65.6985 587.614,-33.5552 551.33,-45.7266 418,-29.6985 386.975,-25.9688 351.243,-21.6643 327.949,-18.8569"/>
<polygon fill="green" stroke="green" stroke-width="0.137419" points="328.233,-15.3659 317.886,-17.644 327.396,-22.3156 328.233,-15.3659"/>
</g>
<!-- &#45;8&#45;&gt;2 -->
<g id="edge16" class="edge"><title>&#45;8&#45;&gt;2</title>
<path fill="none" stroke="green" stroke-width="0.216064" d="M741.92,-65.6548C744.463,-58.6501 748.275,-48.1471 751.745,-38.5892"/>
<polygon fill="green" stroke="green" stroke-width="0.216064" points="755.047,-39.7515 755.169,-29.1573 748.467,-37.3628 755.047,-39.7515"/>
</g>
<!-- &#45;8&#45;&gt;3 -->
<g id="edge30" class="edge"><title>&#45;8&#45;&gt;3</title>
<path fill="none" stroke="green" stroke-width="0.505576" d="M729.406,-65.6548C718.956,-56.8941 701.98,-42.6612 688.845,-31.6492"/>
<polygon fill="green" stroke="green" stroke-width="0.505576" points="690.788,-28.7104 680.876,-24.9678 686.291,-34.0746 690.788,-28.7104"/>
</g>
<!-- &#45;9 -->
<g id="node9" class="node"><title>&#45;9</title>
<polygon fill="lightgray" stroke="black" points="161,-83.6985 137,-83.6985 137,-65.6985 161,-65.6985 161,-83.6985"/>
<text text-anchor="middle" x="149" y="-72.4985" font-family="Times,serif" font-size="9.00">&#45;9</text>
</g>
<!-- &#45;9&#45;&gt;0 -->
<g id="edge31" class="edge"><title>&#45;9&#45;&gt;0</title>
<path fill="none" stroke="red" stroke-width="0.35578" d="M161.311,-68.5792C164.134,-67.5263 167.144,-66.4968 170,-65.6985 216.803,-52.6135 359.691,-29.0482 417.42,-19.7624"/>
<polygon fill="red" stroke="red" stroke-width="0.35578" points="418.151,-23.1899 427.472,-18.1516 417.044,-16.2781 418.151,-23.1899"/>
</g>
<!-- &#45;9&#45;&gt;1 -->
<g id="edge12" class="edge"><title>&#45;9&#45;&gt;1</title>
<path fill="none" stroke="red" stroke-width="0.321336" d="M161.433,-68.9496C164.249,-67.8775 167.226,-66.7466 170,-65.6985 208.488,-51.155 253.303,-34.3936 279.849,-24.4834"/>
<polygon fill="red" stroke="red" stroke-width="0.321336" points="281.252,-27.6957 289.397,-20.9202 278.804,-21.1375 281.252,-27.6957"/>
</g>
<!-- &#45;10 -->
<g id="node10" class="node"><title>&#45;10</title>
<polygon fill="lightgray" stroke="black" points="930.5,-83.6985 901.5,-83.6985 901.5,-65.6985 930.5,-65.6985 930.5,-83.6985"/>
<text text-anchor="middle" x="916" y="-72.4985" font-family="Times,serif" font-size="9.00">&#45;10</text>
</g>
<!-- &#45;10&#45;&gt;2 -->
<g id="edge3" class="edge"><title>&#45;10&#45;&gt;2</title>
<path fill="none" stroke="green" stroke-width="0.339858" d="M901.324,-68.2562C874.221,-58.2058 816.114,-36.6578 783.479,-24.556"/>
<polygon fill="green" stroke="green" stroke-width="0.339858" points="784.443,-21.1807 773.85,-20.9854 782.01,-27.744 784.443,-21.1807"/>
</g>
<!-- &#45;11 -->
<g id="node11" class="node"><title>&#45;11</title>
<polygon fill="lightgray" stroke="black" points="1024.5,-83.6985 995.5,-83.6985 995.5,-65.6985 1024.5,-65.6985 1024.5,-83.6985"/>
<text text-anchor="middle" x="1010" y="-72.4985" font-family="Times,serif" font-size="9.00">&#45;11</text>
</g>
<!-- &#45;12 -->
<g id="node12" class="node"><title>&#45;12</title>
<polygon fill="lightgray" stroke="black" points="1071.5,-83.6985 1042.5,-83.6985 1042.5,-65.6985 1071.5,-65.6985 1071.5,-83.6985"/>
<text text-anchor="middle" x="1057" y="-72.4985" font-family="Times,serif" font-size="9.00">&#45;12</text>
</g>
<!-- &#45;13 -->
<g id="node13" class="node"><title>&#45;13</title>
<polygon fill="lightgray" stroke="black" points="340.5,-83.6985 311.5,-83.6985 311.5,-65.6985 340.5,-65.6985 340.5,-83.6985"/>
<text text-anchor="middle" x="326" y="-72.4985" font-family="Times,serif" font-size="9.00">&#45;13</text>
</g>
<!-- &#45;13&#45;&gt;0 -->
<g id="edge45" class="edge"><title>&#45;13&#45;&gt;0</title>
<path fill="none" stroke="red" stroke-width="0.316915" d="M340.691,-66.3718C360.642,-56.4224 396.477,-38.5518 419.74,-26.9503"/>
<polygon fill="red" stroke="red" stroke-width="0.316915" points="421.47,-29.9985 428.857,-22.4035 418.346,-23.7343 421.47,-29.9985"/>
</g>
<!-- &#45;13&#45;&gt;1 -->
<g id="edge34" class="edge"><title>&#45;13&#45;&gt;1</title>
<path fill="none" stroke="green" stroke-width="0.257133" d="M322.802,-65.6548C320.017,-58.6501 315.841,-48.1471 312.041,-38.5892"/>
<polygon fill="green" stroke="green" stroke-width="0.257133" points="315.238,-37.1567 308.291,-29.1573 308.733,-39.7429 315.238,-37.1567"/>
</g>
<!-- &#45;13&#45;&gt;3 -->
<g id="edge10" class="edge"><title>&#45;13&#45;&gt;3</title>
<path fill="none" stroke="green" stroke-width="0.143252" d="M340.61,-68.3971C343.684,-67.4036 346.927,-66.4445 350,-65.6985 458.368,-39.3921 590.896,-23.9261 645.101,-18.2933"/>
<polygon fill="green" stroke="green" stroke-width="0.143252" points="645.562,-21.7646 655.156,-17.2689 644.852,-14.8007 645.562,-21.7646"/>
</g>
<!-- &#45;14 -->
<g id="node14" class="node"><title>&#45;14</title>
<polygon fill="lightgray" stroke="black" points="387.5,-83.6985 358.5,-83.6985 358.5,-65.6985 387.5,-65.6985 387.5,-83.6985"/>
<text text-anchor="middle" x="373" y="-72.4985" font-family="Times,serif" font-size="9.00">&#45;14</text>
</g>
<!-- &#45;14&#45;&gt;0 -->
<g id="edge36" class="edge"><title>&#45;14&#45;&gt;0</title>
<path fill="none" stroke="red" stroke-width="0.25038" d="M382.594,-65.6548C393.044,-56.8941 410.02,-42.6612 423.155,-31.6492"/>
<polygon fill="red" stroke="red" stroke-width="0.25038" points="425.709,-34.0746 431.124,-24.9678 421.212,-28.7104 425.709,-34.0746"/>
</g>
<!-- &#45;14&#45;&gt;1 -->
<g id="edge47" class="edge"><title>&#45;14&#45;&gt;1</title>
<path fill="none" stroke="red" stroke-width="0.167985" d="M363.267,-65.6548C352.666,-56.8941 335.444,-42.6612 322.119,-31.6492"/>
<polygon fill="red" stroke="red" stroke-width="0.167985" points="323.972,-28.6402 314.034,-24.9678 319.513,-34.0361 323.972,-28.6402"/>
</g>
<!-- &#45;14&#45;&gt;3 -->
<g id="edge23" class="edge"><title>&#45;14&#45;&gt;3</title>
<path fill="none" stroke="red" stroke-width="0.104592" d="M387.625,-68.4591C390.698,-67.4611 393.937,-66.4845 397,-65.6985 487.27,-42.5352 596.988,-25.9159 645.226,-19.1759"/>
<polygon fill="red" stroke="red" stroke-width="0.104592" points="645.913,-22.6144 655.341,-17.7822 644.957,-15.6799 645.913,-22.6144"/>
</g>
<!-- &#45;15 -->
<g id="node15" class="node"><title>&#45;15</title>
<polygon fill="lightgray" stroke="black" points="661.5,-83.6985 632.5,-83.6985 632.5,-65.6985 661.5,-65.6985 661.5,-83.6985"/>
<text text-anchor="middle" x="647" y="-72.4985" font-family="Times,serif" font-size="9.00">&#45;15</text>
</g>
<!-- &#45;15&#45;&gt;0 -->
<g id="edge26" class="edge"><title>&#45;15&#45;&gt;0</title>
<path fill="none" stroke="red" stroke-width="0.334314" d="M632.316,-68.667C629.248,-67.654 626.025,-66.6186 623,-65.6985 567.046,-48.6806 500.606,-31.0284 465.87,-21.992"/>
<polygon fill="red" stroke="red" stroke-width="0.334314" points="466.713,-18.5949 456.155,-19.4744 464.957,-25.3711 466.713,-18.5949"/>
</g>
<!-- &#45;15&#45;&gt;3 -->
<g id="edge43" class="edge"><title>&#45;15&#45;&gt;3</title>
<path fill="none" stroke="green" stroke-width="0.30929" d="M650.198,-65.6548C652.983,-58.6501 657.159,-48.1471 660.959,-38.5892"/>
<polygon fill="green" stroke="green" stroke-width="0.30929" points="664.267,-39.7429 664.709,-29.1573 657.762,-37.1567 664.267,-39.7429"/>
</g>
<!-- &#45;16 -->
<g id="node16" class="node"><title>&#45;16</title>
<polygon fill="lightgray" stroke="black" points="524.5,-83.6985 495.5,-83.6985 495.5,-65.6985 524.5,-65.6985 524.5,-83.6985"/>
<text text-anchor="middle" x="510" y="-72.4985" font-family="Times,serif" font-size="9.00">&#45;16</text>
</g>
<!-- &#45;16&#45;&gt;1 -->
<g id="edge28" class="edge"><title>&#45;16&#45;&gt;1</title>
<path fill="none" stroke="red" stroke-width="0.125437" d="M495.318,-68.6605C492.249,-67.6479 489.027,-66.6144 486,-65.6985 429.447,-48.5849 362.265,-30.9712 327.139,-21.9663"/>
<polygon fill="red" stroke="red" stroke-width="0.125437" points="327.869,-18.5406 317.314,-19.4582 326.138,-25.323 327.869,-18.5406"/>
</g>
<!-- &#45;16&#45;&gt;3 -->
<g id="edge6" class="edge"><title>&#45;16&#45;&gt;3</title>
<path fill="none" stroke="red" stroke-width="0.271246" d="M524.766,-68.3599C552.669,-58.2711 613.335,-36.3371 646.755,-24.2538"/>
<polygon fill="red" stroke="red" stroke-width="0.271246" points="647.971,-27.5358 656.185,-20.8441 645.591,-20.9528 647.971,-27.5358"/>
</g>
<!-- &#45;17 -->
<g id="node17" class="node"><title>&#45;17</title>
<polygon fill="lightgray" stroke="black" points="571.5,-83.6985 542.5,-83.6985 542.5,-65.6985 571.5,-65.6985 571.5,-83.6985"/>
<text text-anchor="middle" x="557" y="-72.4985" font-family="Times,serif" font-size="9.00">&#45;17</text>
</g>
<!-- &#45;17&#45;&gt;0 -->
<g id="edge7" class="edge"><title>&#45;17&#45;&gt;0</title>
<path fill="none" stroke="green" stroke-width="0.475115" d="M542.435,-66.3718C522.656,-56.4224 487.131,-38.5518 464.068,-26.9503"/>
<polygon fill="green" stroke="green" stroke-width="0.475115" points="465.536,-23.7707 455.029,-22.4035 462.39,-30.0241 465.536,-23.7707"/>
</g>
<!-- &#45;17&#45;&gt;1 -->
<g id="edge42" class="edge"><title>&#45;17&#45;&gt;1</title>
<path fill="none" stroke="green" stroke-width="0.382399" d="M542.485,-68.3489C539.688,-67.404 536.768,-66.4754 534,-65.6985 459.689,-44.8411 369.85,-27.7187 327.434,-20.1053"/>
<polygon fill="green" stroke="green" stroke-width="0.382399" points="327.935,-16.6395 317.477,-18.337 326.711,-23.5317 327.935,-16.6395"/>
</g>
<!-- &#45;17&#45;&gt;2 -->
<g id="edge24" class="edge"><title>&#45;17&#45;&gt;2</title>
<path fill="none" stroke="green" stroke-width="0.101029" d="M571.683,-68.6657C574.752,-67.6528 577.974,-66.6178 581,-65.6985 638.773,-48.1452 653.881,-46.0681 712,-29.6985 719.806,-27.4999 728.313,-25.0599 735.967,-22.8481"/>
<polygon fill="green" stroke="green" stroke-width="0.101029" points="737.101,-26.1636 745.731,-20.0175 735.152,-19.4404 737.101,-26.1636"/>
</g>
<!-- &#45;18 -->
<g id="node18" class="node"><title>&#45;18</title>
<polygon fill="lightgray" stroke="black" points="434.5,-83.6985 405.5,-83.6985 405.5,-65.6985 434.5,-65.6985 434.5,-83.6985"/>
<text text-anchor="middle" x="420" y="-72.4985" font-family="Times,serif" font-size="9.00">&#45;18</text>
</g>
<!-- &#45;18&#45;&gt;0 -->
<g id="edge44" class="edge"><title>&#45;18&#45;&gt;0</title>
<path fill="none" stroke="green" stroke-width="0.16192" d="M423.059,-65.6548C425.723,-58.6501 429.717,-48.1471 433.352,-38.5892"/>
<polygon fill="green" stroke="green" stroke-width="0.16192" points="436.656,-39.7484 436.939,-29.1573 430.113,-37.2601 436.656,-39.7484"/>
</g>
<!-- &#45;19 -->
<g id="node19" class="node"><title>&#45;19</title>
<polygon fill="lightgray" stroke="black" points="840.5,-83.6985 811.5,-83.6985 811.5,-65.6985 840.5,-65.6985 840.5,-83.6985"/>
<text text-anchor="middle" x="826" y="-72.4985" font-family="Times,serif" font-size="9.00">&#45;19</text>
</g>
<!-- &#45;19&#45;&gt;3 -->
<g id="edge4" class="edge"><title>&#45;19&#45;&gt;3</title>
<path fill="none" stroke="red" stroke-width="0.295959" d="M811.324,-68.2562C784.221,-58.2058 726.114,-36.6578 693.479,-24.556"/>
<polygon fill="red" stroke="red" stroke-width="0.295959" points="694.443,-21.1807 683.85,-20.9854 692.01,-27.744 694.443,-21.1807"/>
</g>
<!-- &#45;20 -->
<g id="node20" class="node"><title>&#45;20</title>
<polygon fill="lightgray" stroke="black" points="977.5,-83.6985 948.5,-83.6985 948.5,-65.6985 977.5,-65.6985 977.5,-83.6985"/>
<text text-anchor="middle" x="963" y="-72.4985" font-family="Times,serif" font-size="9.00">&#45;20</text>
</g>
<!-- &#45;20&#45;&gt;2 -->
<g id="edge1" class="edge"><title>&#45;20&#45;&gt;2</title>
<path fill="none" stroke="green" stroke-width="0.225027" d="M948.446,-68.4774C945.654,-67.5206 942.744,-66.5548 940,-65.6985 884.737,-48.4549 819.01,-31.0181 784.292,-22.044"/>
<polygon fill="green" stroke="green" stroke-width="0.225027" points="785.115,-18.6419 774.559,-19.5402 783.371,-25.4212 785.115,-18.6419"/>
</g>
<!-- &#45;21 -->
<g id="node21" class="node"><title>&#45;21</title>
<polygon fill="lightgray" stroke="black" points="71.5,-83.6985 42.5,-83.6985 42.5,-65.6985 71.5,-65.6985 71.5,-83.6985"/>
<text text-anchor="middle" x="57" y="-72.4985" font-family="Times,serif" font-size="9.00">&#45;21</text>
</g>
<!-- &#45;21&#45;&gt;1 -->
<g id="edge9" class="edge"><title>&#45;21&#45;&gt;1</title>
<path fill="none" stroke="green" stroke-width="0.175645" d="M71.5202,-68.3654C74.3161,-67.419 77.235,-66.4856 80,-65.6985 151.276,-45.4086 237.273,-28.1865 278.554,-20.359"/>
<polygon fill="green" stroke="green" stroke-width="0.175645" points="279.325,-23.7755 288.507,-18.4901 278.033,-16.8957 279.325,-23.7755"/>
</g>
<!-- &#45;22 -->
<g id="node22" class="node"><title>&#45;22</title>
<polygon fill="lightgray" stroke="black" points="118.5,-83.6985 89.5,-83.6985 89.5,-65.6985 118.5,-65.6985 118.5,-83.6985"/>
<text text-anchor="middle" x="104" y="-72.4985" font-family="Times,serif" font-size="9.00">&#45;22</text>
</g>
<!-- &#45;22&#45;&gt;1 -->
<g id="edge17" class="edge"><title>&#45;22&#45;&gt;1</title>
<path fill="none" stroke="red" stroke-width="0.119208" d="M118.69,-68.6875C121.758,-67.673 124.979,-66.6319 128,-65.6985 181.654,-49.1233 245.174,-31.5315 278.989,-22.3269"/>
<polygon fill="red" stroke="red" stroke-width="0.119208" points="280.139,-25.6415 288.874,-19.6451 278.306,-18.8857 280.139,-25.6415"/>
</g>
<!-- &#45;23 -->
<g id="node23" class="node"><title>&#45;23</title>
<polygon fill="lightgray" stroke="black" points="708.5,-83.6985 679.5,-83.6985 679.5,-65.6985 708.5,-65.6985 708.5,-83.6985"/>
<text text-anchor="middle" x="694" y="-72.4985" font-family="Times,serif" font-size="9.00">&#45;23</text>
</g>
<!-- &#45;23&#45;&gt;0 -->
<g id="edge2" class="edge"><title>&#45;23&#45;&gt;0</title>
<path fill="none" stroke="red" stroke-width="0.528699" d="M679.483,-68.3529C676.687,-67.4076 673.767,-66.4779 671,-65.6985 597.503,-44.998 508.701,-27.859 466.53,-20.1839"/>
<polygon fill="red" stroke="red" stroke-width="0.528699" points="467.08,-16.7267 456.618,-18.3987 465.839,-23.6159 467.08,-16.7267"/>
</g>
<!-- &#45;23&#45;&gt;1 -->
<g id="edge38" class="edge"><title>&#45;23&#45;&gt;1</title>
<path fill="none" stroke="red" stroke-width="0.1159" d="M679.035,-68.0102C676.385,-67.1423 673.632,-66.3277 671,-65.6985 637.606,-57.7141 404.974,-28.5007 327.808,-18.9171"/>
<polygon fill="red" stroke="red" stroke-width="0.1159" points="327.948,-15.4078 317.593,-17.6505 327.087,-22.3546 327.948,-15.4078"/>
</g>
<!-- &#45;23&#45;&gt;2 -->
<g id="edge25" class="edge"><title>&#45;23&#45;&gt;2</title>
<path fill="none" stroke="red" stroke-width="0.141465" d="M703.177,-65.6548C713.056,-56.996 729.034,-42.9914 741.534,-32.0346"/>
<polygon fill="red" stroke="red" stroke-width="0.141465" points="743.934,-34.5849 749.148,-25.3614 739.32,-29.3208 743.934,-34.5849"/>
</g>
<!-- &#45;23&#45;&gt;3 -->
<g id="edge15" class="edge"><title>&#45;23&#45;&gt;3</title>
<path fill="none" stroke="green" stroke-width="0.222115" d="M690.663,-65.6548C687.719,-58.5579 683.285,-47.8701 679.278,-38.2124"/>
<polygon fill="green" stroke="green" stroke-width="0.222115" points="682.402,-36.6102 675.338,-28.7148 675.937,-39.2927 682.402,-36.6102"/>
</g>
<!-- &#45;24 -->
<g id="node24" class="node"><title>&#45;24</title>
<polygon fill="lightgray" stroke="black" points="208.5,-83.6985 179.5,-83.6985 179.5,-65.6985 208.5,-65.6985 208.5,-83.6985"/>
<text text-anchor="middle" x="194" y="-72.4985" font-family="Times,serif" font-size="9.00">&#45;24</text>
</g>
<!-- &#45;24&#45;&gt;0 -->
<g id="edge40" class="edge"><title>&#45;24&#45;&gt;0</title>
<path fill="none" stroke="green" stroke-width="0.316569" d="M208.65,-68.5499C211.721,-67.5454 214.953,-66.5431 218,-65.6985 289.721,-45.8213 376.046,-28.4096 417.472,-20.4494"/>
<polygon fill="green" stroke="green" stroke-width="0.316569" points="418.291,-23.8564 427.459,-18.5468 416.981,-16.9801 418.291,-23.8564"/>
</g>
<!-- &#45;24&#45;&gt;1 -->
<g id="edge5" class="edge"><title>&#45;24&#45;&gt;1</title>
<path fill="none" stroke="green" stroke-width="0.35161" d="M208.7,-65.8967C227.345,-56.0012 259.655,-38.8534 281.181,-27.4292"/>
<polygon fill="green" stroke="green" stroke-width="0.35161" points="283.032,-30.4092 290.224,-22.6296 279.751,-24.226 283.032,-30.4092"/>
</g>
<!-- 0&#45;&gt;0 -->
<g id="edge22" class="edge"><title>0&#45;&gt;0</title>
<path fill="none" stroke="red" stroke-width="0.360167" d="M453.788,-23.9294C464.022,-28.0713 474.849,-25.0446 474.849,-14.8492 474.849,-7.99927 469.962,-4.3853 463.65,-4.00735"/>
<polygon fill="red" stroke="red" stroke-width="0.360167" points="463.016,-0.565092 453.788,-5.76904 464.247,-7.45602 463.016,-0.565092"/>
</g>
<!-- 1&#45;&gt;1 -->
<g id="edge20" class="edge"><title>1&#45;&gt;1</title>
<path fill="none" stroke="green" stroke-width="0.100274" d="M314.788,-23.9294C325.022,-28.0713 335.849,-25.0446 335.849,-14.8492 335.849,-7.99927 330.962,-4.3853 324.65,-4.00735"/>
<polygon fill="green" stroke="green" stroke-width="0.100274" points="324.016,-0.565092 314.788,-5.76904 325.247,-7.45602 324.016,-0.565092"/>
</g>
<!-- 3&#45;&gt;3 -->
<g id="edge14" class="edge"><title>3&#45;&gt;3</title>
<path fill="none" stroke="red" stroke-width="0.144425" d="M681.788,-23.9294C692.022,-28.0713 702.849,-25.0446 702.849,-14.8492 702.849,-7.99927 697.962,-4.3853 691.65,-4.00735"/>
<polygon fill="red" stroke="red" stroke-width="0.144425" points="691.016,-0.565092 681.788,-5.76904 692.247,-7.45602 691.016,-0.565092"/>
</g>
</g>
</svg>
