<?xml version="1.0" encoding="UTF-8" standalone="no"?>
<!DOCTYPE svg PUBLIC "-//W3C//DTD SVG 1.1//EN"
 "http://www.w3.org/Graphics/SVG/1.1/DTD/svg11.dtd">
<!-- Generated by graphviz version 2.38.0 (20140413.2041)
 -->
<!-- Title: %3 Pages: 1 -->
<svg width="1133pt" height="263pt"
 viewBox="0.00 0.00 1133.00 262.69" xmlns="http://www.w3.org/2000/svg" xmlns:xlink="http://www.w3.org/1999/xlink">
<g id="graph0" class="graph" transform="scale(1 1) rotate(0) translate(4 258.693)">
<title>%3</title>
<polygon fill="white" stroke="none" points="-4,4 -4,-258.693 1129,-258.693 1129,4 -4,4"/>
<!-- &#45;1 -->
<g id="node1" class="node"><title>&#45;1</title>
<polygon fill="lightgray" stroke="black" points="463.5,-184.945 439.5,-184.945 439.5,-166.945 463.5,-166.945 463.5,-184.945"/>
<text text-anchor="middle" x="451.5" y="-173.745" font-family="Times,serif" font-size="9.00">&#45;1</text>
</g>
<!-- 0 -->
<g id="node25" class="node"><title>0</title>
<ellipse fill="lightblue" stroke="black" cx="382.5" cy="-90.4472" rx="14.7" ry="14.7"/>
<text text-anchor="middle" x="382.5" y="-88.2472" font-family="Times,serif" font-size="9.00">0</text>
</g>
<!-- &#45;1&#45;&gt;0 -->
<g id="edge4" class="edge"><title>&#45;1&#45;&gt;0</title>
<path fill="none" stroke="red" stroke-width="0.189451" d="M444.884,-166.939C434.217,-154.03 412.926,-128.266 398.206,-110.453"/>
<polygon fill="red" stroke="red" stroke-width="0.189451" points="400.651,-107.917 391.583,-102.438 395.255,-112.376 400.651,-107.917"/>
</g>
<!-- 410 -->
<g id="node31" class="node"><title>410</title>
<ellipse fill="white" stroke="black" cx="657.5" cy="-90.4472" rx="21.4286" ry="21.4286"/>
<text text-anchor="middle" x="657.5" y="-88.2472" font-family="Times,serif" font-size="9.00">410</text>
</g>
<!-- &#45;1&#45;&gt;410 -->
<g id="edge37" class="edge"><title>&#45;1&#45;&gt;410</title>
<path fill="none" stroke="green" stroke-width="0.364929" d="M456.889,-166.884C460.702,-161.742 466.237,-155.295 472.5,-151.196 521.029,-119.431 587.766,-103.389 626.4,-96.2745"/>
<polygon fill="green" stroke="green" stroke-width="0.364929" points="627.269,-99.6756 636.513,-94.4989 626.059,-92.7811 627.269,-99.6756"/>
</g>
<!-- &#45;2 -->
<g id="node2" class="node"><title>&#45;2</title>
<polygon fill="lightgray" stroke="black" points="846.5,-184.945 822.5,-184.945 822.5,-166.945 846.5,-166.945 846.5,-184.945"/>
<text text-anchor="middle" x="834.5" y="-173.745" font-family="Times,serif" font-size="9.00">&#45;2</text>
</g>
<!-- 1 -->
<g id="node26" class="node"><title>1</title>
<ellipse fill="lightblue" stroke="black" cx="879.5" cy="-90.4472" rx="14.7" ry="14.7"/>
<text text-anchor="middle" x="879.5" y="-88.2472" font-family="Times,serif" font-size="9.00">1</text>
</g>
<!-- &#45;2&#45;&gt;1 -->
<g id="edge12" class="edge"><title>&#45;2&#45;&gt;1</title>
<path fill="none" stroke="red" stroke-width="0.397613" d="M838.815,-166.939C845.46,-154.609 858.425,-130.552 867.94,-112.897"/>
<polygon fill="red" stroke="red" stroke-width="0.397613" points="871.146,-114.325 872.809,-103.862 864.984,-111.004 871.146,-114.325"/>
</g>
<!-- &#45;2&#45;&gt;410 -->
<g id="edge44" class="edge"><title>&#45;2&#45;&gt;410</title>
<path fill="none" stroke="green" stroke-width="0.134683" d="M828.694,-166.54C824.867,-161.52 819.47,-155.336 813.5,-151.196 774.359,-124.057 721.237,-107.149 688.18,-98.5145"/>
<polygon fill="green" stroke="green" stroke-width="0.134683" points="688.748,-95.0481 678.196,-95.9991 687.038,-101.836 688.748,-95.0481"/>
</g>
<!-- &#45;3 -->
<g id="node3" class="node"><title>&#45;3</title>
<polygon fill="lightgray" stroke="black" points="804.5,-184.945 780.5,-184.945 780.5,-166.945 804.5,-166.945 804.5,-184.945"/>
<text text-anchor="middle" x="792.5" y="-173.745" font-family="Times,serif" font-size="9.00">&#45;3</text>
</g>
<!-- &#45;3&#45;&gt;0 -->
<g id="edge48" class="edge"><title>&#45;3&#45;&gt;0</title>
<path fill="none" stroke="red" stroke-width="0.411605" d="M787.36,-166.938C783.432,-161.539 777.509,-154.771 770.5,-151.196 651.269,-90.3732 602.932,-140.513 471.5,-115.196 449.158,-110.892 424.159,-104.037 406.358,-98.7952"/>
<polygon fill="red" stroke="red" stroke-width="0.411605" points="407.122,-95.3705 396.539,-95.8524 405.113,-102.076 407.122,-95.3705"/>
</g>
<!-- &#45;3&#45;&gt;1 -->
<g id="edge35" class="edge"><title>&#45;3&#45;&gt;1</title>
<path fill="none" stroke="red" stroke-width="0.147081" d="M799.286,-166.828C803.298,-162.144 808.548,-156.206 813.5,-151.196 828.796,-135.72 847.228,-119.196 860.722,-107.457"/>
<polygon fill="red" stroke="red" stroke-width="0.147081" points="863.13,-110.002 868.413,-100.819 858.556,-104.703 863.13,-110.002"/>
</g>
<!-- 2 -->
<g id="node27" class="node"><title>2</title>
<ellipse fill="lightblue" stroke="black" cx="877.5" cy="-14.8492" rx="14.7" ry="14.7"/>
<text text-anchor="middle" x="877.5" y="-12.6492" font-family="Times,serif" font-size="9.00">2</text>
</g>
<!-- &#45;3&#45;&gt;2 -->
<g id="edge21" class="edge"><title>&#45;3&#45;&gt;2</title>
<path fill="none" stroke="red" stroke-width="0.180322" d="M796.832,-166.836C809.511,-143.106 846.848,-73.2204 865.953,-37.4618"/>
<polygon fill="red" stroke="red" stroke-width="0.180322" points="869.197,-38.8171 870.822,-28.3477 863.023,-35.5185 869.197,-38.8171"/>
</g>
<!-- &#45;4 -->
<g id="node4" class="node"><title>&#45;4</title>
<polygon fill="lightgray" stroke="black" points="244.5,-254.693 220.5,-254.693 220.5,-236.693 244.5,-236.693 244.5,-254.693"/>
<text text-anchor="middle" x="232.5" y="-243.493" font-family="Times,serif" font-size="9.00">&#45;4</text>
</g>
<!-- &#45;4&#45;&gt;0 -->
<g id="edge38" class="edge"><title>&#45;4&#45;&gt;0</title>
<path fill="none" stroke="red" stroke-width="0.549003" d="M231.856,-236.689C230.884,-219.183 230.987,-176.998 251.5,-151.196 278.1,-117.736 327.614,-102.318 357.562,-95.7678"/>
<polygon fill="red" stroke="red" stroke-width="0.549003" points="358.52,-99.1452 367.631,-93.7389 357.137,-92.2831 358.52,-99.1452"/>
</g>
<!-- 3 -->
<g id="node28" class="node"><title>3</title>
<ellipse fill="lightblue" stroke="black" cx="170.5" cy="-90.4472" rx="14.7" ry="14.7"/>
<text text-anchor="middle" x="170.5" y="-88.2472" font-family="Times,serif" font-size="9.00">3</text>
</g>
<!-- &#45;4&#45;&gt;3 -->
<g id="edge18" class="edge"><title>&#45;4&#45;&gt;3</title>
<path fill="none" stroke="green" stroke-width="0.187872" d="M220.313,-243.976C196.822,-241.858 145.644,-233.512 123.5,-200.693 103.444,-170.969 132.231,-131.296 152.821,-108.853"/>
<polygon fill="green" stroke="green" stroke-width="0.187872" points="155.551,-111.062 159.93,-101.415 150.491,-106.226 155.551,-111.062"/>
</g>
<!-- 3009 -->
<g id="node29" class="node"><title>3009</title>
<ellipse fill="white" stroke="black" cx="553.5" cy="-175.945" rx="25" ry="25"/>
<text text-anchor="middle" x="553.5" y="-173.745" font-family="Times,serif" font-size="9.00">3009</text>
</g>
<!-- &#45;4&#45;&gt;3009 -->
<g id="edge25" class="edge"><title>&#45;4&#45;&gt;3009</title>
<path fill="none" stroke="red" stroke-width="0.149134" d="M244.768,-244.769C285.465,-244.617 419.124,-240.892 519.5,-200.693 521.618,-199.845 523.733,-198.843 525.812,-197.738"/>
<polygon fill="red" stroke="red" stroke-width="0.149134" points="527.878,-200.578 534.607,-192.395 524.244,-194.596 527.878,-200.578"/>
</g>
<!-- &#45;5 -->
<g id="node5" class="node"><title>&#45;5</title>
<polygon fill="lightgray" stroke="black" points="204.5,-184.945 180.5,-184.945 180.5,-166.945 204.5,-166.945 204.5,-184.945"/>
<text text-anchor="middle" x="192.5" y="-173.745" font-family="Times,serif" font-size="9.00">&#45;5</text>
</g>
<!-- &#45;5&#45;&gt;0 -->
<g id="edge28" class="edge"><title>&#45;5&#45;&gt;0</title>
<path fill="none" stroke="red" stroke-width="1.82801" d="M200.033,-166.57C204.901,-161.561 211.598,-155.378 218.5,-151.196 264.336,-123.422 325.114,-105.507 358.312,-97.0842"/>
<polygon fill="red" stroke="red" stroke-width="1.82801" points="359.194,-100.472 368.067,-94.6827 357.521,-93.6746 359.194,-100.472"/>
</g>
<!-- &#45;5&#45;&gt;3 -->
<g id="edge39" class="edge"><title>&#45;5&#45;&gt;3</title>
<path fill="none" stroke="green" stroke-width="0.539876" d="M190.391,-166.939C187.273,-155.108 181.311,-132.479 176.724,-115.069"/>
<polygon fill="green" stroke="green" stroke-width="0.539876" points="180.016,-113.825 174.083,-105.047 173.247,-115.609 180.016,-113.825"/>
</g>
<!-- &#45;6 -->
<g id="node6" class="node"><title>&#45;6</title>
<polygon fill="lightgray" stroke="black" points="714.5,-184.945 690.5,-184.945 690.5,-166.945 714.5,-166.945 714.5,-184.945"/>
<text text-anchor="middle" x="702.5" y="-173.745" font-family="Times,serif" font-size="9.00">&#45;6</text>
</g>
<!-- &#45;6&#45;&gt;0 -->
<g id="edge16" class="edge"><title>&#45;6&#45;&gt;0</title>
<path fill="none" stroke="green" stroke-width="0.202461" d="M696.959,-166.585C693.008,-161.316 687.219,-154.841 680.5,-151.196 597.651,-106.248 563.573,-135.367 471.5,-115.196 449.274,-110.327 424.263,-103.534 406.427,-98.4605"/>
<polygon fill="green" stroke="green" stroke-width="0.202461" points="407.163,-95.0301 396.585,-95.6276 405.227,-101.757 407.163,-95.0301"/>
</g>
<!-- &#45;6&#45;&gt;1 -->
<g id="edge30" class="edge"><title>&#45;6&#45;&gt;1</title>
<path fill="none" stroke="red" stroke-width="0.313015" d="M708.306,-166.54C712.133,-161.52 717.53,-155.336 723.5,-151.196 765.255,-122.245 822.921,-104.936 855.165,-96.8944"/>
<polygon fill="red" stroke="red" stroke-width="0.313015" points="856.158,-100.256 865.065,-94.5189 854.525,-93.4487 856.158,-100.256"/>
</g>
<!-- &#45;6&#45;&gt;410 -->
<g id="edge52" class="edge"><title>&#45;6&#45;&gt;410</title>
<path fill="none" stroke="green" stroke-width="0.109577" d="M698.185,-166.939C692.209,-155.849 681.119,-135.272 672.025,-118.399"/>
<polygon fill="green" stroke="green" stroke-width="0.109577" points="675.049,-116.632 667.224,-109.489 668.887,-119.953 675.049,-116.632"/>
</g>
<!-- &#45;7 -->
<g id="node7" class="node"><title>&#45;7</title>
<polygon fill="lightgray" stroke="black" points="326.5,-184.945 302.5,-184.945 302.5,-166.945 326.5,-166.945 326.5,-184.945"/>
<text text-anchor="middle" x="314.5" y="-173.745" font-family="Times,serif" font-size="9.00">&#45;7</text>
</g>
<!-- &#45;7&#45;&gt;0 -->
<g id="edge47" class="edge"><title>&#45;7&#45;&gt;0</title>
<path fill="none" stroke="green" stroke-width="0.124182" d="M321.02,-166.939C331.533,-154.03 352.515,-128.266 367.022,-110.453"/>
<polygon fill="green" stroke="green" stroke-width="0.124182" points="369.948,-112.402 373.549,-102.438 364.52,-107.982 369.948,-112.402"/>
</g>
<!-- &#45;8 -->
<g id="node8" class="node"><title>&#45;8</title>
<polygon fill="lightgray" stroke="black" points="284.5,-184.945 260.5,-184.945 260.5,-166.945 284.5,-166.945 284.5,-184.945"/>
<text text-anchor="middle" x="272.5" y="-173.745" font-family="Times,serif" font-size="9.00">&#45;8</text>
</g>
<!-- &#45;8&#45;&gt;3 -->
<g id="edge36" class="edge"><title>&#45;8&#45;&gt;3</title>
<path fill="none" stroke="red" stroke-width="0.119535" d="M262.72,-166.939C245.904,-153.173 211.232,-124.791 189.521,-107.018"/>
<polygon fill="red" stroke="red" stroke-width="0.119535" points="191.588,-104.187 181.633,-100.561 187.154,-109.603 191.588,-104.187"/>
</g>
<!-- &#45;8&#45;&gt;410 -->
<g id="edge51" class="edge"><title>&#45;8&#45;&gt;410</title>
<path fill="none" stroke="green" stroke-width="0.584219" d="M277.678,-166.53C281.402,-161.238 286.917,-154.758 293.5,-151.196 390.681,-98.606 430.632,-134.104 539.5,-115.196 569.272,-110.025 603.059,-103.119 626.826,-98.0872"/>
<polygon fill="green" stroke="green" stroke-width="0.584219" points="627.623,-101.496 636.674,-95.9882 626.164,-94.6498 627.623,-101.496"/>
</g>
<!-- &#45;9 -->
<g id="node9" class="node"><title>&#45;9</title>
<polygon fill="lightgray" stroke="black" points="1030.5,-184.945 1006.5,-184.945 1006.5,-166.945 1030.5,-166.945 1030.5,-184.945"/>
<text text-anchor="middle" x="1018.5" y="-173.745" font-family="Times,serif" font-size="9.00">&#45;9</text>
</g>
<!-- &#45;9&#45;&gt;1 -->
<g id="edge33" class="edge"><title>&#45;9&#45;&gt;1</title>
<path fill="none" stroke="red" stroke-width="0.49616" d="M1012.54,-166.753C1008.65,-161.812 1003.25,-155.637 997.5,-151.196 967.633,-128.125 927.479,-110.05 902.557,-100.066"/>
<polygon fill="red" stroke="red" stroke-width="0.49616" points="903.778,-96.7856 893.19,-96.4081 901.232,-103.306 903.778,-96.7856"/>
</g>
<!-- &#45;10 -->
<g id="node10" class="node"><title>&#45;10</title>
<polygon fill="lightgray" stroke="black" points="762,-184.945 733,-184.945 733,-166.945 762,-166.945 762,-184.945"/>
<text text-anchor="middle" x="747.5" y="-173.745" font-family="Times,serif" font-size="9.00">&#45;10</text>
</g>
<!-- &#45;10&#45;&gt;410 -->
<g id="edge46" class="edge"><title>&#45;10&#45;&gt;410</title>
<path fill="none" stroke="red" stroke-width="0.587631" d="M739.587,-166.939C734.949,-162.291 728.949,-156.354 723.5,-151.196 709.463,-137.91 693.392,-123.347 680.623,-111.926"/>
<polygon fill="red" stroke="red" stroke-width="0.587631" points="682.94,-109.302 673.147,-105.259 678.281,-114.527 682.94,-109.302"/>
</g>
<!-- &#45;11 -->
<g id="node11" class="node"><title>&#45;11</title>
<polygon fill="lightgray" stroke="black" points="76,-184.945 47,-184.945 47,-166.945 76,-166.945 76,-184.945"/>
<text text-anchor="middle" x="61.5" y="-173.745" font-family="Times,serif" font-size="9.00">&#45;11</text>
</g>
<!-- &#45;11&#45;&gt;3 -->
<g id="edge34" class="edge"><title>&#45;11&#45;&gt;3</title>
<path fill="none" stroke="green" stroke-width="0.483508" d="M71.0794,-166.919C76.6893,-162.265 83.9393,-156.328 90.5,-151.196 110.661,-135.425 134.179,-117.97 150.474,-106.02"/>
<polygon fill="green" stroke="green" stroke-width="0.483508" points="152.711,-108.721 158.717,-99.9931 148.579,-103.07 152.711,-108.721"/>
</g>
<!-- &#45;12 -->
<g id="node12" class="node"><title>&#45;12</title>
<polygon fill="lightgray" stroke="black" points="29,-184.945 0,-184.945 0,-166.945 29,-166.945 29,-184.945"/>
<text text-anchor="middle" x="14.5" y="-173.745" font-family="Times,serif" font-size="9.00">&#45;12</text>
</g>
<!-- &#45;12&#45;&gt;2 -->
<g id="edge24" class="edge"><title>&#45;12&#45;&gt;2</title>
<path fill="none" stroke="red" stroke-width="0.360645" d="M20.8386,-166.896C38.1894,-145.576 89.0153,-87.7712 146.5,-65.6985 279.525,-14.6203 739.585,-14.7654 852.384,-15.5978"/>
<polygon fill="red" stroke="red" stroke-width="0.360645" points="852.444,-19.0983 862.473,-15.6813 852.502,-12.0985 852.444,-19.0983"/>
</g>
<!-- &#45;12&#45;&gt;3 -->
<g id="edge45" class="edge"><title>&#45;12&#45;&gt;3</title>
<path fill="none" stroke="red" stroke-width="0.442137" d="M21.0957,-166.69C25.3768,-161.726 31.2979,-155.547 37.5,-151.196 72.411,-126.701 118.975,-108.569 146.734,-99.0342"/>
<polygon fill="red" stroke="red" stroke-width="0.442137" points="148.015,-102.296 156.388,-95.8053 145.795,-95.6578 148.015,-102.296"/>
</g>
<!-- &#45;13 -->
<g id="node13" class="node"><title>&#45;13</title>
<polygon fill="lightgray" stroke="black" points="1036,-99.4472 1007,-99.4472 1007,-81.4472 1036,-81.4472 1036,-99.4472"/>
<text text-anchor="middle" x="1021.5" y="-88.2472" font-family="Times,serif" font-size="9.00">&#45;13</text>
</g>
<!-- &#45;13&#45;&gt;2 -->
<g id="edge19" class="edge"><title>&#45;13&#45;&gt;2</title>
<path fill="none" stroke="green" stroke-width="0.919814" d="M1012.84,-81.2771C1007.31,-76.345 999.834,-70.1707 992.5,-65.6985 962.722,-47.5398 925.152,-32.5785 901.22,-23.929"/>
<polygon fill="green" stroke="green" stroke-width="0.919814" points="902.156,-20.5476 891.561,-20.5139 899.822,-27.1472 902.156,-20.5476"/>
</g>
<!-- &#45;14 -->
<g id="node14" class="node"><title>&#45;14</title>
<polygon fill="lightgray" stroke="black" points="1078,-184.945 1049,-184.945 1049,-166.945 1078,-166.945 1078,-184.945"/>
<text text-anchor="middle" x="1063.5" y="-173.745" font-family="Times,serif" font-size="9.00">&#45;14</text>
</g>
<!-- &#45;14&#45;&gt;1 -->
<g id="edge50" class="edge"><title>&#45;14&#45;&gt;1</title>
<path fill="none" stroke="red" stroke-width="0.325297" d="M1056.65,-166.56C1052.2,-161.547 1046.02,-155.363 1039.5,-151.196 995.73,-123.217 936.934,-105.55 904.177,-97.1851"/>
<polygon fill="red" stroke="red" stroke-width="0.325297" points="904.673,-93.7026 894.126,-94.7033 902.995,-100.499 904.673,-93.7026"/>
</g>
<!-- &#45;14&#45;&gt;2 -->
<g id="edge15" class="edge"><title>&#45;14&#45;&gt;2</title>
<path fill="none" stroke="green" stroke-width="0.605696" d="M1055.62,-166.908C1050.99,-162.249 1044.99,-156.312 1039.5,-151.196 1021.76,-134.66 1016.24,-131.734 998.5,-115.196 975.63,-93.8712 972.492,-85.7528 948.5,-65.6985 932.48,-52.3075 912.989,-38.8011 898.485,-29.2314"/>
<polygon fill="green" stroke="green" stroke-width="0.605696" points="900.05,-26.0742 889.76,-23.5519 896.231,-31.9407 900.05,-26.0742"/>
</g>
<!-- &#45;15 -->
<g id="node15" class="node"><title>&#45;15</title>
<polygon fill="lightgray" stroke="black" points="894,-184.945 865,-184.945 865,-166.945 894,-166.945 894,-184.945"/>
<text text-anchor="middle" x="879.5" y="-173.745" font-family="Times,serif" font-size="9.00">&#45;15</text>
</g>
<!-- &#45;15&#45;&gt;1 -->
<g id="edge17" class="edge"><title>&#45;15&#45;&gt;1</title>
<path fill="none" stroke="red" stroke-width="0.153977" d="M879.5,-166.939C879.5,-155.175 879.5,-132.737 879.5,-115.368"/>
<polygon fill="red" stroke="red" stroke-width="0.153977" points="883,-115.349 879.5,-105.349 876,-115.349 883,-115.349"/>
</g>
<!-- &#45;15&#45;&gt;410 -->
<g id="edge3" class="edge"><title>&#45;15&#45;&gt;410</title>
<path fill="none" stroke="red" stroke-width="0.357438" d="M873.14,-166.869C868.697,-161.719 862.352,-155.271 855.5,-151.196 801.677,-119.181 729.287,-103.056 688.613,-96.0296"/>
<polygon fill="red" stroke="red" stroke-width="0.357438" points="688.941,-92.5365 678.504,-94.3591 687.8,-99.4428 688.941,-92.5365"/>
</g>
<!-- &#45;16 -->
<g id="node16" class="node"><title>&#45;16</title>
<polygon fill="lightgray" stroke="black" points="421,-184.945 392,-184.945 392,-166.945 421,-166.945 421,-184.945"/>
<text text-anchor="middle" x="406.5" y="-173.745" font-family="Times,serif" font-size="9.00">&#45;16</text>
</g>
<!-- &#45;16&#45;&gt;0 -->
<g id="edge20" class="edge"><title>&#45;16&#45;&gt;0</title>
<path fill="none" stroke="green" stroke-width="0.680289" d="M404.199,-166.939C400.798,-155.108 394.294,-132.479 389.29,-115.069"/>
<polygon fill="green" stroke="green" stroke-width="0.680289" points="392.535,-113.691 386.409,-105.047 385.808,-115.625 392.535,-113.691"/>
</g>
<!-- &#45;16&#45;&gt;3 -->
<g id="edge6" class="edge"><title>&#45;16&#45;&gt;3</title>
<path fill="none" stroke="red" stroke-width="0.228738" d="M400.164,-166.827C395.732,-161.66 389.389,-155.208 382.5,-151.196 320.925,-115.331 236.661,-100.021 195.367,-94.3446"/>
<polygon fill="red" stroke="red" stroke-width="0.228738" points="195.74,-90.8638 185.373,-93.0459 194.838,-97.8054 195.74,-90.8638"/>
</g>
<!-- 1265 -->
<g id="node30" class="node"><title>1265</title>
<ellipse fill="white" stroke="black" cx="505.5" cy="-90.4472" rx="25" ry="25"/>
<text text-anchor="middle" x="505.5" y="-88.2472" font-family="Times,serif" font-size="9.00">1265</text>
</g>
<!-- &#45;16&#45;&gt;1265 -->
<g id="edge29" class="edge"><title>&#45;16&#45;&gt;1265</title>
<path fill="none" stroke="green" stroke-width="0.677767" d="M414.293,-166.808C418.891,-162.117 424.891,-156.179 430.5,-151.196 445.689,-137.701 463.442,-123.493 477.862,-112.32"/>
<polygon fill="green" stroke="green" stroke-width="0.677767" points="480.13,-114.991 485.922,-106.12 475.862,-109.442 480.13,-114.991"/>
</g>
<!-- &#45;16&#45;&gt;410 -->
<g id="edge22" class="edge"><title>&#45;16&#45;&gt;410</title>
<path fill="none" stroke="green" stroke-width="0.7297" d="M412.813,-166.788C417.236,-161.604 423.577,-155.148 430.5,-151.196 464.093,-132.017 572.698,-108.425 626.587,-97.513"/>
<polygon fill="green" stroke="green" stroke-width="0.7297" points="627.48,-100.904 636.596,-95.5046 626.103,-94.0403 627.48,-100.904"/>
</g>
<!-- &#45;17 -->
<g id="node17" class="node"><title>&#45;17</title>
<polygon fill="lightgray" stroke="black" points="625,-184.945 596,-184.945 596,-166.945 625,-166.945 625,-184.945"/>
<text text-anchor="middle" x="610.5" y="-173.745" font-family="Times,serif" font-size="9.00">&#45;17</text>
</g>
<!-- &#45;17&#45;&gt;1 -->
<g id="edge11" class="edge"><title>&#45;17&#45;&gt;1</title>
<path fill="none" stroke="green" stroke-width="0.522321" d="M616.457,-166.738C620.657,-161.534 626.725,-155.074 633.5,-151.196 706.598,-109.358 808.108,-96.6768 854.531,-92.9446"/>
<polygon fill="green" stroke="green" stroke-width="0.522321" points="854.873,-96.4291 864.591,-92.2092 854.362,-89.4477 854.873,-96.4291"/>
</g>
<!-- &#45;17&#45;&gt;3 -->
<g id="edge7" class="edge"><title>&#45;17&#45;&gt;3</title>
<path fill="none" stroke="green" stroke-width="0.548747" d="M604.66,-166.521C600.51,-161.225 594.453,-154.744 587.5,-151.196 569.813,-142.17 281.937,-105.447 195.103,-94.5252"/>
<polygon fill="green" stroke="green" stroke-width="0.548747" points="195.459,-91.0426 185.101,-93.2696 194.587,-97.9881 195.459,-91.0426"/>
</g>
<!-- &#45;17&#45;&gt;410 -->
<g id="edge53" class="edge"><title>&#45;17&#45;&gt;410</title>
<path fill="none" stroke="red" stroke-width="0.220613" d="M615.007,-166.939C621.249,-155.849 632.832,-135.272 642.329,-118.399"/>
<polygon fill="red" stroke="red" stroke-width="0.220613" points="645.489,-119.921 647.344,-109.489 639.389,-116.487 645.489,-119.921"/>
</g>
<!-- &#45;18 -->
<g id="node18" class="node"><title>&#45;18</title>
<polygon fill="lightgray" stroke="black" points="988,-184.945 959,-184.945 959,-166.945 988,-166.945 988,-184.945"/>
<text text-anchor="middle" x="973.5" y="-173.745" font-family="Times,serif" font-size="9.00">&#45;18</text>
</g>
<!-- &#45;18&#45;&gt;1 -->
<g id="edge9" class="edge"><title>&#45;18&#45;&gt;1</title>
<path fill="none" stroke="green" stroke-width="0.140461" d="M966.03,-166.828C961.623,-162.144 955.873,-156.206 950.5,-151.196 933.559,-135.399 913.251,-118.499 898.702,-106.718"/>
<polygon fill="green" stroke="green" stroke-width="0.140461" points="900.857,-103.959 890.871,-100.42 896.47,-109.415 900.857,-103.959"/>
</g>
<!-- &#45;18&#45;&gt;2 -->
<g id="edge26" class="edge"><title>&#45;18&#45;&gt;2</title>
<path fill="none" stroke="red" stroke-width="0.319049" d="M970.553,-166.862C963.555,-148.183 944.769,-100.929 921.5,-65.6985 913.824,-54.0767 903.61,-42.3366 894.955,-33.1713"/>
<polygon fill="red" stroke="red" stroke-width="0.319049" points="897.327,-30.5903 887.853,-25.8475 892.302,-35.4632 897.327,-30.5903"/>
</g>
<!-- &#45;18&#45;&gt;410 -->
<g id="edge13" class="edge"><title>&#45;18&#45;&gt;410</title>
<path fill="none" stroke="red" stroke-width="0.233376" d="M967.589,-166.655C963.409,-161.415 957.346,-154.947 950.5,-151.196 905.433,-126.5 754.835,-104.267 688.885,-95.4578"/>
<polygon fill="red" stroke="red" stroke-width="0.233376" points="689.063,-91.951 678.691,-94.1133 688.147,-98.8909 689.063,-91.951"/>
</g>
<!-- &#45;19 -->
<g id="node19" class="node"><title>&#45;19</title>
<polygon fill="lightgray" stroke="black" points="162,-184.945 133,-184.945 133,-166.945 162,-166.945 162,-184.945"/>
<text text-anchor="middle" x="147.5" y="-173.745" font-family="Times,serif" font-size="9.00">&#45;19</text>
</g>
<!-- &#45;19&#45;&gt;0 -->
<g id="edge40" class="edge"><title>&#45;19&#45;&gt;0</title>
<path fill="none" stroke="red" stroke-width="0.336776" d="M153.837,-166.83C158.271,-161.664 164.614,-155.213 171.5,-151.196 232.784,-115.45 316.65,-100.086 357.75,-94.371"/>
<polygon fill="red" stroke="red" stroke-width="0.336776" points="358.239,-97.8369 367.698,-93.0625 357.326,-90.8967 358.239,-97.8369"/>
</g>
<!-- &#45;19&#45;&gt;3 -->
<g id="edge5" class="edge"><title>&#45;19&#45;&gt;3</title>
<path fill="none" stroke="red" stroke-width="0.868473" d="M149.705,-166.939C152.964,-155.108 159.197,-132.479 163.993,-115.069"/>
<polygon fill="red" stroke="red" stroke-width="0.868473" points="167.472,-115.617 166.754,-105.047 160.724,-113.758 167.472,-115.617"/>
</g>
<!-- &#45;20 -->
<g id="node20" class="node"><title>&#45;20</title>
<polygon fill="lightgray" stroke="black" points="672,-184.945 643,-184.945 643,-166.945 672,-166.945 672,-184.945"/>
<text text-anchor="middle" x="657.5" y="-173.745" font-family="Times,serif" font-size="9.00">&#45;20</text>
</g>
<!-- &#45;20&#45;&gt;410 -->
<g id="edge49" class="edge"><title>&#45;20&#45;&gt;410</title>
<path fill="none" stroke="green" stroke-width="0.274009" d="M657.5,-166.939C657.5,-156.626 657.5,-138.108 657.5,-121.994"/>
<polygon fill="green" stroke="green" stroke-width="0.274009" points="661,-121.863 657.5,-111.863 654,-121.863 661,-121.863"/>
</g>
<!-- &#45;21 -->
<g id="node21" class="node"><title>&#45;21</title>
<polygon fill="lightgray" stroke="black" points="941,-184.945 912,-184.945 912,-166.945 941,-166.945 941,-184.945"/>
<text text-anchor="middle" x="926.5" y="-173.745" font-family="Times,serif" font-size="9.00">&#45;21</text>
</g>
<!-- &#45;21&#45;&gt;1 -->
<g id="edge10" class="edge"><title>&#45;21&#45;&gt;1</title>
<path fill="none" stroke="red" stroke-width="0.139086" d="M921.993,-166.939C915.053,-154.609 901.512,-130.552 891.574,-112.897"/>
<polygon fill="red" stroke="red" stroke-width="0.139086" points="894.443,-110.859 886.488,-103.862 888.343,-114.293 894.443,-110.859"/>
</g>
<!-- &#45;22 -->
<g id="node22" class="node"><title>&#45;22</title>
<polygon fill="lightgray" stroke="black" points="1125,-184.945 1096,-184.945 1096,-166.945 1125,-166.945 1125,-184.945"/>
<text text-anchor="middle" x="1110.5" y="-173.745" font-family="Times,serif" font-size="9.00">&#45;22</text>
</g>
<!-- &#45;22&#45;&gt;1 -->
<g id="edge23" class="edge"><title>&#45;22&#45;&gt;1</title>
<path fill="none" stroke="red" stroke-width="0.644196" d="M1104.49,-166.83C1100.27,-161.665 1094.19,-155.213 1087.5,-151.196 1056.05,-132.322 951.596,-107.485 903.779,-96.758"/>
<polygon fill="red" stroke="red" stroke-width="0.644196" points="904.479,-93.3282 893.958,-94.5749 902.96,-100.161 904.479,-93.3282"/>
</g>
<!-- &#45;22&#45;&gt;2 -->
<g id="edge41" class="edge"><title>&#45;22&#45;&gt;2</title>
<path fill="none" stroke="red" stroke-width="0.163193" d="M1107.94,-166.676C1101.21,-146.303 1081.03,-93.347 1045.5,-65.6985 1002.82,-32.4865 938.407,-21.3625 903.024,-17.6652"/>
<polygon fill="red" stroke="red" stroke-width="0.163193" points="902.899,-14.1389 892.62,-16.7071 902.257,-21.1094 902.899,-14.1389"/>
</g>
<!-- &#45;23 -->
<g id="node23" class="node"><title>&#45;23</title>
<polygon fill="lightgray" stroke="black" points="511,-184.945 482,-184.945 482,-166.945 511,-166.945 511,-184.945"/>
<text text-anchor="middle" x="496.5" y="-173.745" font-family="Times,serif" font-size="9.00">&#45;23</text>
</g>
<!-- &#45;23&#45;&gt;0 -->
<g id="edge1" class="edge"><title>&#45;23&#45;&gt;0</title>
<path fill="none" stroke="green" stroke-width="0.180295" d="M488.865,-166.622C484.32,-161.869 478.32,-155.932 472.5,-151.196 450.225,-133.069 422.396,-115.249 403.628,-103.856"/>
<polygon fill="green" stroke="green" stroke-width="0.180295" points="405.338,-100.8 394.962,-98.6607 401.739,-106.804 405.338,-100.8"/>
</g>
<!-- &#45;23&#45;&gt;410 -->
<g id="edge42" class="edge"><title>&#45;23&#45;&gt;410</title>
<path fill="none" stroke="green" stroke-width="0.495418" d="M503.075,-166.66C507.348,-161.685 513.268,-155.505 519.5,-151.196 553.499,-127.685 598.231,-110.401 627.413,-100.635"/>
<polygon fill="green" stroke="green" stroke-width="0.495418" points="628.621,-103.923 637.044,-97.4964 626.452,-97.2674 628.621,-103.923"/>
</g>
<!-- &#45;24 -->
<g id="node24" class="node"><title>&#45;24</title>
<polygon fill="lightgray" stroke="black" points="374,-184.945 345,-184.945 345,-166.945 374,-166.945 374,-184.945"/>
<text text-anchor="middle" x="359.5" y="-173.745" font-family="Times,serif" font-size="9.00">&#45;24</text>
</g>
<!-- &#45;24&#45;&gt;0 -->
<g id="edge2" class="edge"><title>&#45;24&#45;&gt;0</title>
<path fill="none" stroke="green" stroke-width="0.451355" d="M361.705,-166.939C364.964,-155.108 371.197,-132.479 375.993,-115.069"/>
<polygon fill="green" stroke="green" stroke-width="0.451355" points="379.472,-115.617 378.754,-105.047 372.724,-113.758 379.472,-115.617"/>
</g>
<!-- 1&#45;&gt;1 -->
<g id="edge27" class="edge"><title>1&#45;&gt;1</title>
<path fill="none" stroke="red" stroke-width="0.483875" d="M889.928,-101.274C900.539,-107.642 912.349,-104.033 912.349,-90.4472 912.349,-81.1069 906.767,-76.4823 899.83,-76.5735"/>
<polygon fill="red" stroke="red" stroke-width="0.483875" points="898.456,-73.3343 889.928,-79.6209 900.515,-80.0247 898.456,-73.3343"/>
</g>
<!-- 3&#45;&gt;3 -->
<g id="edge14" class="edge"><title>3&#45;&gt;3</title>
<path fill="none" stroke="red" stroke-width="0.30541" d="M180.928,-101.274C191.539,-107.642 203.349,-104.033 203.349,-90.4472 203.349,-81.1069 197.767,-76.4823 190.83,-76.5735"/>
<polygon fill="red" stroke="red" stroke-width="0.30541" points="189.456,-73.3343 180.928,-79.6209 191.515,-80.0247 189.456,-73.3343"/>
</g>
<!-- 3009&#45;&gt;410 -->
<g id="edge32" class="edge"><title>3009&#45;&gt;410</title>
<path fill="none" stroke="green" stroke-width="0.320289" d="M572.575,-159.63C589.662,-145.912 614.805,-125.726 633.301,-110.876"/>
<polygon fill="green" stroke="green" stroke-width="0.320289" points="635.672,-113.461 641.279,-104.471 631.29,-108.002 635.672,-113.461"/>
</g>
<!-- 1265&#45;&gt;2 -->
<g id="edge43" class="edge"><title>1265&#45;&gt;2</title>
<path fill="none" stroke="red" stroke-width="0.19536" d="M529.621,-84.675C596.727,-71.3986 785.112,-34.1277 852.85,-20.7261"/>
<polygon fill="red" stroke="red" stroke-width="0.19536" points="853.869,-24.0925 862.999,-18.7181 852.51,-17.2256 853.869,-24.0925"/>
</g>
<!-- 410&#45;&gt;2 -->
<g id="edge8" class="edge"><title>410&#45;&gt;2</title>
<path fill="none" stroke="green" stroke-width="0.197118" d="M677.412,-82.7861C718.061,-69.1874 810.42,-38.2901 853.958,-23.7249"/>
<polygon fill="green" stroke="green" stroke-width="0.197118" points="855.303,-26.9658 863.676,-20.474 853.082,-20.3274 855.303,-26.9658"/>
</g>
<!-- 410&#45;&gt;410 -->
<g id="edge31" class="edge"><title>410&#45;&gt;410</title>
<path fill="none" stroke="red" stroke-width="0.169125" d="M674.837,-103.225C685.984,-106.558 696.713,-102.299 696.713,-90.4472 696.713,-82.2993 691.642,-77.7399 684.85,-76.7692"/>
<polygon fill="red" stroke="red" stroke-width="0.169125" points="684.483,-73.288 674.837,-77.6698 685.11,-80.2599 684.483,-73.288"/>
</g>
</g>
</svg>
