<?xml version="1.0" encoding="UTF-8" standalone="no"?>
<!DOCTYPE svg PUBLIC "-//W3C//DTD SVG 1.1//EN"
 "http://www.w3.org/Graphics/SVG/1.1/DTD/svg11.dtd">
<!-- Generated by graphviz version 2.38.0 (20140413.2041)
 -->
<!-- Title: %3 Pages: 1 -->
<svg width="1040pt" height="256pt"
 viewBox="0.00 0.00 1040.00 255.62" xmlns="http://www.w3.org/2000/svg" xmlns:xlink="http://www.w3.org/1999/xlink">
<g id="graph0" class="graph" transform="scale(1 1) rotate(0) translate(4 251.622)">
<title>%3</title>
<polygon fill="white" stroke="none" points="-4,4 -4,-251.622 1036,-251.622 1036,4 -4,4"/>
<!-- &#45;1 -->
<g id="node1" class="node"><title>&#45;1</title>
<polygon fill="lightgray" stroke="black" points="251.5,-177.874 227.5,-177.874 227.5,-159.874 251.5,-159.874 251.5,-177.874"/>
<text text-anchor="middle" x="239.5" y="-166.674" font-family="Times,serif" font-size="9.00">&#45;1</text>
</g>
<!-- 410 -->
<g id="node30" class="node"><title>410</title>
<ellipse fill="white" stroke="black" cx="393.5" cy="-86.9117" rx="21.4286" ry="21.4286"/>
<text text-anchor="middle" x="393.5" y="-84.7117" font-family="Times,serif" font-size="9.00">410</text>
</g>
<!-- &#45;1&#45;&gt;410 -->
<g id="edge37" class="edge"><title>&#45;1&#45;&gt;410</title>
<path fill="none" stroke="green" stroke-width="0.652683" d="M245.356,-159.541C249.202,-154.547 254.601,-148.366 260.5,-144.125 292.405,-121.188 335.103,-105.264 363.415,-96.3651"/>
<polygon fill="green" stroke="green" stroke-width="0.652683" points="364.599,-99.6632 373.148,-93.4043 362.562,-92.9662 364.599,-99.6632"/>
</g>
<!-- &#45;2 -->
<g id="node2" class="node"><title>&#45;2</title>
<polygon fill="lightgray" stroke="black" points="161.5,-177.874 137.5,-177.874 137.5,-159.874 161.5,-159.874 161.5,-177.874"/>
<text text-anchor="middle" x="149.5" y="-166.674" font-family="Times,serif" font-size="9.00">&#45;2</text>
</g>
<!-- 1 -->
<g id="node26" class="node"><title>1</title>
<ellipse fill="lightblue" stroke="black" cx="172.5" cy="-86.9117" rx="14.7" ry="14.7"/>
<text text-anchor="middle" x="172.5" y="-84.7117" font-family="Times,serif" font-size="9.00">1</text>
</g>
<!-- &#45;2&#45;&gt;1 -->
<g id="edge7" class="edge"><title>&#45;2&#45;&gt;1</title>
<path fill="none" stroke="red" stroke-width="0.154327" d="M151.875,-159.617C155.132,-148.292 161.117,-127.487 165.803,-111.194"/>
<polygon fill="red" stroke="red" stroke-width="0.154327" points="169.253,-111.861 168.654,-101.283 162.526,-109.926 169.253,-111.861"/>
</g>
<!-- &#45;2&#45;&gt;410 -->
<g id="edge29" class="edge"><title>&#45;2&#45;&gt;410</title>
<path fill="none" stroke="red" stroke-width="0.203177" d="M154.802,-159.677C158.579,-154.476 164.106,-148.017 170.5,-144.125 231.751,-106.837 316.819,-94.2012 362.137,-89.9801"/>
<polygon fill="red" stroke="red" stroke-width="0.203177" points="362.571,-93.4559 372.238,-89.1188 361.976,-86.4813 362.571,-93.4559"/>
</g>
<!-- &#45;3 -->
<g id="node3" class="node"><title>&#45;3</title>
<polygon fill="lightgray" stroke="black" points="71.5,-177.874 47.5,-177.874 47.5,-159.874 71.5,-159.874 71.5,-177.874"/>
<text text-anchor="middle" x="59.5" y="-166.674" font-family="Times,serif" font-size="9.00">&#45;3</text>
</g>
<!-- 0 -->
<g id="node25" class="node"><title>0</title>
<ellipse fill="lightblue" stroke="black" cx="723.5" cy="-86.9117" rx="14.7" ry="14.7"/>
<text text-anchor="middle" x="723.5" y="-84.7117" font-family="Times,serif" font-size="9.00">0</text>
</g>
<!-- &#45;3&#45;&gt;0 -->
<g id="edge40" class="edge"><title>&#45;3&#45;&gt;0</title>
<path fill="none" stroke="red" stroke-width="0.447647" d="M64.2591,-159.739C67.9391,-154.28 73.5699,-147.493 80.5,-144.125 204.425,-83.8918 571.491,-159.109 699.5,-108.125 701.638,-107.273 703.724,-106.152 705.717,-104.874"/>
<polygon fill="red" stroke="red" stroke-width="0.447647" points="708.008,-107.526 713.731,-98.6104 703.697,-102.011 708.008,-107.526"/>
</g>
<!-- &#45;3&#45;&gt;1 -->
<g id="edge27" class="edge"><title>&#45;3&#45;&gt;1</title>
<path fill="none" stroke="green" stroke-width="0.263147" d="M65.5891,-159.841C69.523,-154.96 74.9323,-148.792 80.5,-144.125 102.466,-125.713 131.071,-109.214 150.513,-98.9284"/>
<polygon fill="green" stroke="green" stroke-width="0.263147" points="152.238,-101.976 159.506,-94.2676 149.017,-95.7614 152.238,-101.976"/>
</g>
<!-- 2 -->
<g id="node27" class="node"><title>2</title>
<ellipse fill="lightblue" stroke="black" cx="393.5" cy="-14.8492" rx="14.7" ry="14.7"/>
<text text-anchor="middle" x="393.5" y="-12.6492" font-family="Times,serif" font-size="9.00">2</text>
</g>
<!-- &#45;3&#45;&gt;2 -->
<g id="edge15" class="edge"><title>&#45;3&#45;&gt;2</title>
<path fill="none" stroke="green" stroke-width="0.197893" d="M61.5025,-159.629C66.7627,-139.866 82.9404,-89.6567 116.5,-65.6985 156.933,-36.833 307.901,-22.3725 368.295,-17.645"/>
<polygon fill="green" stroke="green" stroke-width="0.197893" points="368.764,-21.1196 378.471,-16.8742 368.235,-14.1396 368.764,-21.1196"/>
</g>
<!-- &#45;4 -->
<g id="node4" class="node"><title>&#45;4</title>
<polygon fill="lightgray" stroke="black" points="769.5,-247.622 745.5,-247.622 745.5,-229.622 769.5,-229.622 769.5,-247.622"/>
<text text-anchor="middle" x="757.5" y="-236.422" font-family="Times,serif" font-size="9.00">&#45;4</text>
</g>
<!-- &#45;4&#45;&gt;0 -->
<g id="edge31" class="edge"><title>&#45;4&#45;&gt;0</title>
<path fill="none" stroke="red" stroke-width="0.566314" d="M769.619,-233.145C797.419,-222.82 863.618,-197.894 866.5,-193.622 878.804,-175.386 879.504,-161.869 866.5,-144.125 835.092,-101.269 800.174,-131.584 752.5,-108.125 749.263,-106.532 745.984,-104.605 742.852,-102.581"/>
<polygon fill="red" stroke="red" stroke-width="0.566314" points="744.782,-99.6601 734.575,-96.8185 740.782,-105.405 744.782,-99.6601"/>
</g>
<!-- 3 -->
<g id="node28" class="node"><title>3</title>
<ellipse fill="lightblue" stroke="black" cx="657.5" cy="-86.9117" rx="14.7" ry="14.7"/>
<text text-anchor="middle" x="657.5" y="-84.7117" font-family="Times,serif" font-size="9.00">3</text>
</g>
<!-- &#45;4&#45;&gt;3 -->
<g id="edge12" class="edge"><title>&#45;4&#45;&gt;3</title>
<path fill="none" stroke="green" stroke-width="0.235995" d="M757.794,-229.617C758.039,-212.468 756.536,-171.517 738.5,-144.125 724.376,-122.676 698.986,-107.06 680.386,-97.8071"/>
<polygon fill="green" stroke="green" stroke-width="0.235995" points="681.658,-94.5374 671.12,-93.4381 678.672,-100.869 681.658,-94.5374"/>
</g>
<!-- 3009 -->
<g id="node29" class="node"><title>3009</title>
<ellipse fill="white" stroke="black" cx="520.5" cy="-168.874" rx="25" ry="25"/>
<text text-anchor="middle" x="520.5" y="-166.674" font-family="Times,serif" font-size="9.00">3009</text>
</g>
<!-- &#45;4&#45;&gt;3009 -->
<g id="edge18" class="edge"><title>&#45;4&#45;&gt;3009</title>
<path fill="none" stroke="green" stroke-width="0.11171" d="M745.085,-236.644C712.542,-233.722 622.583,-223.341 554.5,-193.622 552.409,-192.71 550.315,-191.659 548.25,-190.519"/>
<polygon fill="green" stroke="green" stroke-width="0.11171" points="549.834,-187.382 539.489,-185.093 546.148,-193.334 549.834,-187.382"/>
</g>
<!-- &#45;5 -->
<g id="node5" class="node"><title>&#45;5</title>
<polygon fill="lightgray" stroke="black" points="809.5,-177.874 785.5,-177.874 785.5,-159.874 809.5,-159.874 809.5,-177.874"/>
<text text-anchor="middle" x="797.5" y="-166.674" font-family="Times,serif" font-size="9.00">&#45;5</text>
</g>
<!-- &#45;5&#45;&gt;0 -->
<g id="edge21" class="edge"><title>&#45;5&#45;&gt;0</title>
<path fill="none" stroke="red" stroke-width="1.49865" d="M789.859,-159.617C778.245,-147.067 755.857,-122.876 740.316,-106.082"/>
<polygon fill="red" stroke="red" stroke-width="1.49865" points="742.674,-103.478 733.313,-98.5158 737.537,-108.232 742.674,-103.478"/>
</g>
<!-- &#45;5&#45;&gt;3 -->
<g id="edge33" class="edge"><title>&#45;5&#45;&gt;3</title>
<path fill="none" stroke="green" stroke-width="0.21383" d="M789.8,-159.759C784.869,-154.848 778.164,-148.676 771.5,-144.125 767.371,-141.305 711.944,-114.3 679.927,-98.7698"/>
<polygon fill="green" stroke="green" stroke-width="0.21383" points="681.35,-95.5702 670.825,-94.3579 678.297,-101.869 681.35,-95.5702"/>
</g>
<!-- &#45;6 -->
<g id="node6" class="node"><title>&#45;6</title>
<polygon fill="lightgray" stroke="black" points="383.5,-177.874 359.5,-177.874 359.5,-159.874 383.5,-159.874 383.5,-177.874"/>
<text text-anchor="middle" x="371.5" y="-166.674" font-family="Times,serif" font-size="9.00">&#45;6</text>
</g>
<!-- &#45;6&#45;&gt;0 -->
<g id="edge46" class="edge"><title>&#45;6&#45;&gt;0</title>
<path fill="none" stroke="green" stroke-width="0.181999" d="M376.322,-159.863C380.031,-154.463 385.672,-147.695 392.5,-144.125 514.244,-80.4742 573.416,-162.677 699.5,-108.125 701.612,-107.211 703.681,-106.048 705.663,-104.743"/>
<polygon fill="green" stroke="green" stroke-width="0.181999" points="707.969,-107.383 713.664,-98.4481 703.641,-101.881 707.969,-107.383"/>
</g>
<!-- &#45;6&#45;&gt;1 -->
<g id="edge22" class="edge"><title>&#45;6&#45;&gt;1</title>
<path fill="none" stroke="red" stroke-width="0.275397" d="M365.784,-159.811C361.759,-154.668 355.953,-148.221 349.5,-144.125 300.655,-113.122 233.323,-97.963 197.419,-91.669"/>
<polygon fill="red" stroke="red" stroke-width="0.275397" points="197.779,-88.1808 187.34,-89.9925 196.63,-95.086 197.779,-88.1808"/>
</g>
<!-- &#45;6&#45;&gt;410 -->
<g id="edge48" class="edge"><title>&#45;6&#45;&gt;410</title>
<path fill="none" stroke="green" stroke-width="0.419971" d="M373.772,-159.617C376.501,-149.697 381.232,-132.502 385.376,-117.438"/>
<polygon fill="green" stroke="green" stroke-width="0.419971" points="388.842,-118.035 388.12,-107.465 382.093,-116.178 388.842,-118.035"/>
</g>
<!-- &#45;7 -->
<g id="node7" class="node"><title>&#45;7</title>
<polygon fill="lightgray" stroke="black" points="937.5,-177.874 913.5,-177.874 913.5,-159.874 937.5,-159.874 937.5,-177.874"/>
<text text-anchor="middle" x="925.5" y="-166.674" font-family="Times,serif" font-size="9.00">&#45;7</text>
</g>
<!-- &#45;7&#45;&gt;0 -->
<g id="edge30" class="edge"><title>&#45;7&#45;&gt;0</title>
<path fill="none" stroke="green" stroke-width="0.186152" d="M918.552,-159.691C913.715,-154.497 906.835,-148.039 899.5,-144.125 840.156,-112.458 813.796,-135.825 752.5,-108.125 749.213,-106.639 745.906,-104.77 742.762,-102.772"/>
<polygon fill="green" stroke="green" stroke-width="0.186152" points="744.692,-99.8508 734.485,-97.0104 740.693,-105.596 744.692,-99.8508"/>
</g>
<!-- &#45;8 -->
<g id="node8" class="node"><title>&#45;8</title>
<polygon fill="lightgray" stroke="black" points="587.5,-177.874 563.5,-177.874 563.5,-159.874 587.5,-159.874 587.5,-177.874"/>
<text text-anchor="middle" x="575.5" y="-166.674" font-family="Times,serif" font-size="9.00">&#45;8</text>
</g>
<!-- &#45;8&#45;&gt;3 -->
<g id="edge28" class="edge"><title>&#45;8&#45;&gt;3</title>
<path fill="none" stroke="green" stroke-width="0.201076" d="M582.302,-159.774C586.32,-155.094 591.57,-149.157 596.5,-144.125 610.093,-130.25 626.295,-115.392 638.584,-104.438"/>
<polygon fill="green" stroke="green" stroke-width="0.201076" points="641.214,-106.784 646.386,-97.5379 636.577,-101.541 641.214,-106.784"/>
</g>
<!-- &#45;8&#45;&gt;410 -->
<g id="edge47" class="edge"><title>&#45;8&#45;&gt;410</title>
<path fill="none" stroke="green" stroke-width="0.643366" d="M570.079,-159.862C566.253,-154.739 560.714,-148.298 554.5,-144.125 513.737,-116.753 458.22,-101.254 424.173,-93.7324"/>
<polygon fill="green" stroke="green" stroke-width="0.643366" points="424.844,-90.2969 414.336,-91.6498 423.394,-97.1451 424.844,-90.2969"/>
</g>
<!-- &#45;9 -->
<g id="node9" class="node"><title>&#45;9</title>
<polygon fill="lightgray" stroke="black" points="293.5,-177.874 269.5,-177.874 269.5,-159.874 293.5,-159.874 293.5,-177.874"/>
<text text-anchor="middle" x="281.5" y="-166.674" font-family="Times,serif" font-size="9.00">&#45;9</text>
</g>
<!-- &#45;9&#45;&gt;1 -->
<g id="edge17" class="edge"><title>&#45;9&#45;&gt;1</title>
<path fill="none" stroke="red" stroke-width="0.501386" d="M275.015,-159.434C271.104,-154.641 265.854,-148.704 260.5,-144.125 239.735,-126.363 212.916,-110.03 194.37,-99.6007"/>
<polygon fill="red" stroke="red" stroke-width="0.501386" points="195.949,-96.4742 185.502,-94.7085 192.568,-102.603 195.949,-96.4742"/>
</g>
<!-- &#45;9&#45;&gt;3 -->
<g id="edge42" class="edge"><title>&#45;9&#45;&gt;3</title>
<path fill="none" stroke="red" stroke-width="0.125449" d="M286.691,-159.485C290.421,-154.203 295.938,-147.726 302.5,-144.125 359.749,-112.709 560.686,-95.0878 632.087,-89.7046"/>
<polygon fill="red" stroke="red" stroke-width="0.125449" points="632.677,-93.1707 642.393,-88.9455 632.163,-86.1897 632.677,-93.1707"/>
</g>
<!-- &#45;10 -->
<g id="node10" class="node"><title>&#45;10</title>
<polygon fill="lightgray" stroke="black" points="431,-177.874 402,-177.874 402,-159.874 431,-159.874 431,-177.874"/>
<text text-anchor="middle" x="416.5" y="-166.674" font-family="Times,serif" font-size="9.00">&#45;10</text>
</g>
<!-- &#45;10&#45;&gt;410 -->
<g id="edge2" class="edge"><title>&#45;10&#45;&gt;410</title>
<path fill="none" stroke="red" stroke-width="0.261289" d="M414.125,-159.617C411.272,-149.697 406.326,-132.502 401.993,-117.438"/>
<polygon fill="red" stroke="red" stroke-width="0.261289" points="405.252,-116.107 399.124,-107.465 398.525,-118.042 405.252,-116.107"/>
</g>
<!-- &#45;11 -->
<g id="node11" class="node"><title>&#45;11</title>
<polygon fill="lightgray" stroke="black" points="635,-177.874 606,-177.874 606,-159.874 635,-159.874 635,-177.874"/>
<text text-anchor="middle" x="620.5" y="-166.674" font-family="Times,serif" font-size="9.00">&#45;11</text>
</g>
<!-- &#45;11&#45;&gt;3 -->
<g id="edge26" class="edge"><title>&#45;11&#45;&gt;3</title>
<path fill="none" stroke="green" stroke-width="1.15423" d="M624.32,-159.617C629.672,-148.052 639.598,-126.601 647.203,-110.164"/>
<polygon fill="green" stroke="green" stroke-width="1.15423" points="650.555,-111.256 651.578,-100.71 644.202,-108.316 650.555,-111.256"/>
</g>
<!-- &#45;12 -->
<g id="node12" class="node"><title>&#45;12</title>
<polygon fill="lightgray" stroke="black" points="1032,-177.874 1003,-177.874 1003,-159.874 1032,-159.874 1032,-177.874"/>
<text text-anchor="middle" x="1017.5" y="-166.674" font-family="Times,serif" font-size="9.00">&#45;12</text>
</g>
<!-- &#45;12&#45;&gt;2 -->
<g id="edge25" class="edge"><title>&#45;12&#45;&gt;2</title>
<path fill="none" stroke="red" stroke-width="0.410886" d="M1011.63,-159.516C1007.46,-154.248 1001.4,-147.774 994.5,-144.125 911.562,-100.27 868.86,-153.056 786.5,-108.125 764.016,-95.8587 770.175,-77.6092 747.5,-65.6985 689.999,-35.4937 489.891,-21.3573 418.8,-17.2051"/>
<polygon fill="red" stroke="red" stroke-width="0.410886" points="418.722,-13.6951 408.539,-16.6234 418.325,-20.6839 418.722,-13.6951"/>
</g>
<!-- &#45;12&#45;&gt;3 -->
<g id="edge38" class="edge"><title>&#45;12&#45;&gt;3</title>
<path fill="none" stroke="red" stroke-width="0.543692" d="M1012.04,-159.868C1007.9,-154.47 1001.7,-147.703 994.5,-144.125 876.23,-85.3182 826.256,-145.26 699.5,-108.125 692.671,-106.124 685.578,-103.113 679.208,-100.021"/>
<polygon fill="red" stroke="red" stroke-width="0.543692" points="680.425,-96.7112 669.934,-95.231 677.213,-102.93 680.425,-96.7112"/>
</g>
<!-- &#45;13 -->
<g id="node13" class="node"><title>&#45;13</title>
<polygon fill="lightgray" stroke="black" points="824,-95.9117 795,-95.9117 795,-77.9117 824,-77.9117 824,-95.9117"/>
<text text-anchor="middle" x="809.5" y="-84.7117" font-family="Times,serif" font-size="9.00">&#45;13</text>
</g>
<!-- &#45;13&#45;&gt;2 -->
<g id="edge13" class="edge"><title>&#45;13&#45;&gt;2</title>
<path fill="none" stroke="green" stroke-width="0.950647" d="M800.241,-77.7226C794.852,-73.4234 787.714,-68.4833 780.5,-65.6985 713.776,-39.9409 493.823,-22.7595 418.819,-17.5309"/>
<polygon fill="green" stroke="green" stroke-width="0.950647" points="418.67,-14.0125 408.454,-16.8206 418.191,-20.9962 418.67,-14.0125"/>
</g>
<!-- &#45;14 -->
<g id="node14" class="node"><title>&#45;14</title>
<polygon fill="lightgray" stroke="black" points="29,-177.874 0,-177.874 0,-159.874 29,-159.874 29,-177.874"/>
<text text-anchor="middle" x="14.5" y="-166.674" font-family="Times,serif" font-size="9.00">&#45;14</text>
</g>
<!-- &#45;14&#45;&gt;1 -->
<g id="edge49" class="edge"><title>&#45;14&#45;&gt;1</title>
<path fill="none" stroke="green" stroke-width="0.152736" d="M21.4082,-159.58C25.8851,-154.601 32.0648,-148.421 38.5,-144.125 73.8491,-120.525 120.708,-103.641 148.617,-94.855"/>
<polygon fill="green" stroke="green" stroke-width="0.152736" points="149.783,-98.1586 158.322,-91.887 147.735,-91.4646 149.783,-98.1586"/>
</g>
<!-- &#45;14&#45;&gt;2 -->
<g id="edge9" class="edge"><title>&#45;14&#45;&gt;2</title>
<path fill="none" stroke="green" stroke-width="0.354719" d="M16.94,-159.854C23.3883,-140.146 42.8789,-89.2445 78.5,-65.6985 126.202,-34.1668 301.99,-21.0658 368.121,-17.1811"/>
<polygon fill="green" stroke="green" stroke-width="0.354719" points="368.664,-20.656 378.451,-16.5976 368.27,-13.6672 368.664,-20.656"/>
</g>
<!-- &#45;15 -->
<g id="node15" class="node"><title>&#45;15</title>
<polygon fill="lightgray" stroke="black" points="209,-177.874 180,-177.874 180,-159.874 209,-159.874 209,-177.874"/>
<text text-anchor="middle" x="194.5" y="-166.674" font-family="Times,serif" font-size="9.00">&#45;15</text>
</g>
<!-- &#45;15&#45;&gt;1 -->
<g id="edge11" class="edge"><title>&#45;15&#45;&gt;1</title>
<path fill="none" stroke="red" stroke-width="0.223888" d="M192.228,-159.617C189.13,-148.357 183.455,-127.728 178.983,-111.477"/>
<polygon fill="red" stroke="red" stroke-width="0.223888" points="182.286,-110.286 176.258,-101.572 175.537,-112.143 182.286,-110.286"/>
</g>
<!-- &#45;15&#45;&gt;410 -->
<g id="edge32" class="edge"><title>&#45;15&#45;&gt;410</title>
<path fill="none" stroke="red" stroke-width="0.138793" d="M200.884,-159.837C205.337,-154.705 211.685,-148.261 218.5,-144.125 264.558,-116.173 325.981,-100.64 362.47,-93.303"/>
<polygon fill="red" stroke="red" stroke-width="0.138793" points="363.352,-96.6973 372.508,-91.3657 362.025,-89.8242 363.352,-96.6973"/>
</g>
<!-- &#45;16 -->
<g id="node16" class="node"><title>&#45;16</title>
<polygon fill="lightgray" stroke="black" points="682,-177.874 653,-177.874 653,-159.874 682,-159.874 682,-177.874"/>
<text text-anchor="middle" x="667.5" y="-166.674" font-family="Times,serif" font-size="9.00">&#45;16</text>
</g>
<!-- &#45;16&#45;&gt;0 -->
<g id="edge14" class="edge"><title>&#45;16&#45;&gt;0</title>
<path fill="none" stroke="green" stroke-width="0.721024" d="M673.282,-159.617C681.723,-147.564 697.683,-124.775 709.352,-108.113"/>
<polygon fill="green" stroke="green" stroke-width="0.721024" points="712.449,-109.793 715.319,-99.5937 706.715,-105.777 712.449,-109.793"/>
</g>
<!-- &#45;16&#45;&gt;3 -->
<g id="edge4" class="edge"><title>&#45;16&#45;&gt;3</title>
<path fill="none" stroke="red" stroke-width="0.330053" d="M666.467,-159.617C665.081,-148.53 662.558,-128.356 660.541,-112.225"/>
<polygon fill="red" stroke="red" stroke-width="0.330053" points="663.959,-111.353 659.245,-101.864 657.013,-112.221 663.959,-111.353"/>
</g>
<!-- &#45;16&#45;&gt;410 -->
<g id="edge16" class="edge"><title>&#45;16&#45;&gt;410</title>
<path fill="none" stroke="green" stroke-width="0.565062" d="M661.234,-159.633C656.83,-154.415 650.494,-147.951 643.5,-144.125 571.873,-104.934 474.453,-93.0445 425.038,-89.4536"/>
<polygon fill="green" stroke="green" stroke-width="0.565062" points="425.174,-85.955 414.965,-88.7897 424.713,-92.9399 425.174,-85.955"/>
</g>
<!-- &#45;17 -->
<g id="node17" class="node"><title>&#45;17</title>
<polygon fill="lightgray" stroke="black" points="341,-177.874 312,-177.874 312,-159.874 341,-159.874 341,-177.874"/>
<text text-anchor="middle" x="326.5" y="-166.674" font-family="Times,serif" font-size="9.00">&#45;17</text>
</g>
<!-- &#45;17&#45;&gt;1 -->
<g id="edge41" class="edge"><title>&#45;17&#45;&gt;1</title>
<path fill="none" stroke="green" stroke-width="0.257118" d="M319.575,-159.604C315.092,-154.635 308.912,-148.456 302.5,-144.125 268.503,-121.158 223.599,-104.25 196.447,-95.2592"/>
<polygon fill="green" stroke="green" stroke-width="0.257118" points="197.231,-91.8348 186.639,-92.1016 195.086,-98.4979 197.231,-91.8348"/>
</g>
<!-- &#45;17&#45;&gt;3 -->
<g id="edge10" class="edge"><title>&#45;17&#45;&gt;3</title>
<path fill="none" stroke="red" stroke-width="0.30533" d="M332.717,-159.541C337.099,-154.283 343.431,-147.811 350.5,-144.125 445.793,-94.4397 577.702,-88.0004 632.293,-87.6204"/>
<polygon fill="red" stroke="red" stroke-width="0.30533" points="632.439,-91.1205 642.437,-87.616 632.436,-84.1205 632.439,-91.1205"/>
</g>
<!-- &#45;17&#45;&gt;410 -->
<g id="edge45" class="edge"><title>&#45;17&#45;&gt;410</title>
<path fill="none" stroke="green" stroke-width="0.280802" d="M333.418,-159.617C342.813,-148.404 359.995,-127.899 373.585,-111.679"/>
<polygon fill="green" stroke="green" stroke-width="0.280802" points="376.564,-113.573 380.304,-103.66 371.199,-109.077 376.564,-113.573"/>
</g>
<!-- &#45;18 -->
<g id="node18" class="node"><title>&#45;18</title>
<polygon fill="lightgray" stroke="black" points="119,-177.874 90,-177.874 90,-159.874 119,-159.874 119,-177.874"/>
<text text-anchor="middle" x="104.5" y="-166.674" font-family="Times,serif" font-size="9.00">&#45;18</text>
</g>
<!-- &#45;18&#45;&gt;1 -->
<g id="edge6" class="edge"><title>&#45;18&#45;&gt;1</title>
<path fill="none" stroke="red" stroke-width="0.265243" d="M111.521,-159.617C122.039,-147.249 142.172,-123.575 156.422,-106.818"/>
<polygon fill="red" stroke="red" stroke-width="0.265243" points="159.444,-108.667 163.256,-98.7815 154.112,-104.132 159.444,-108.667"/>
</g>
<!-- &#45;18&#45;&gt;2 -->
<g id="edge19" class="edge"><title>&#45;18&#45;&gt;2</title>
<path fill="none" stroke="red" stroke-width="0.511288" d="M105.465,-159.728C108.235,-140.185 118.074,-90.4258 148.5,-65.6985 182.29,-38.237 313.59,-23.2021 368.812,-17.9827"/>
<polygon fill="red" stroke="red" stroke-width="0.511288" points="369.152,-21.4664 378.791,-17.0689 368.513,-14.4955 369.152,-21.4664"/>
</g>
<!-- &#45;18&#45;&gt;410 -->
<g id="edge43" class="edge"><title>&#45;18&#45;&gt;410</title>
<path fill="none" stroke="red" stroke-width="0.26384" d="M110.751,-159.605C115.148,-154.375 121.483,-147.909 128.5,-144.125 205.405,-102.651 310.255,-91.7681 361.986,-88.9183"/>
<polygon fill="red" stroke="red" stroke-width="0.26384" points="362.37,-92.4039 372.189,-88.424 362.031,-85.4121 362.37,-92.4039"/>
</g>
<!-- &#45;19 -->
<g id="node19" class="node"><title>&#45;19</title>
<polygon fill="lightgray" stroke="black" points="857,-177.874 828,-177.874 828,-159.874 857,-159.874 857,-177.874"/>
<text text-anchor="middle" x="842.5" y="-166.674" font-family="Times,serif" font-size="9.00">&#45;19</text>
</g>
<!-- &#45;19&#45;&gt;0 -->
<g id="edge34" class="edge"><title>&#45;19&#45;&gt;0</title>
<path fill="none" stroke="red" stroke-width="0.267889" d="M835.431,-159.807C830.894,-154.914 824.707,-148.744 818.5,-144.125 791.694,-124.178 780.915,-125.704 752.5,-108.125 749.577,-106.317 746.546,-104.332 743.593,-102.336"/>
<polygon fill="red" stroke="red" stroke-width="0.267889" points="745.365,-99.305 735.156,-96.4708 741.369,-105.053 745.365,-99.305"/>
</g>
<!-- &#45;19&#45;&gt;3 -->
<g id="edge3" class="edge"><title>&#45;19&#45;&gt;3</title>
<path fill="none" stroke="red" stroke-width="0.788215" d="M836.139,-159.799C831.695,-154.65 825.35,-148.203 818.5,-144.125 771.02,-115.86 750.994,-128.166 699.5,-108.125 692.967,-105.582 686.047,-102.446 679.749,-99.4091"/>
<polygon fill="red" stroke="red" stroke-width="0.788215" points="681.022,-96.1337 670.51,-94.8178 677.907,-102.402 681.022,-96.1337"/>
</g>
<!-- &#45;20 -->
<g id="node20" class="node"><title>&#45;20</title>
<polygon fill="lightgray" stroke="black" points="478,-177.874 449,-177.874 449,-159.874 478,-159.874 478,-177.874"/>
<text text-anchor="middle" x="463.5" y="-166.674" font-family="Times,serif" font-size="9.00">&#45;20</text>
</g>
<!-- &#45;20&#45;&gt;410 -->
<g id="edge44" class="edge"><title>&#45;20&#45;&gt;410</title>
<path fill="none" stroke="red" stroke-width="0.307466" d="M456.272,-159.617C446.306,-148.233 427.955,-127.27 413.658,-110.939"/>
<polygon fill="red" stroke="red" stroke-width="0.307466" points="416.24,-108.575 407.02,-103.356 410.973,-113.185 416.24,-108.575"/>
</g>
<!-- &#45;21 -->
<g id="node21" class="node"><title>&#45;21</title>
<polygon fill="lightgray" stroke="black" points="817,-247.622 788,-247.622 788,-229.622 817,-229.622 817,-247.622"/>
<text text-anchor="middle" x="802.5" y="-236.422" font-family="Times,serif" font-size="9.00">&#45;21</text>
</g>
<!-- &#45;22 -->
<g id="node22" class="node"><title>&#45;22</title>
<polygon fill="lightgray" stroke="black" points="871,-95.9117 842,-95.9117 842,-77.9117 871,-77.9117 871,-95.9117"/>
<text text-anchor="middle" x="856.5" y="-84.7117" font-family="Times,serif" font-size="9.00">&#45;22</text>
</g>
<!-- &#45;22&#45;&gt;2 -->
<g id="edge35" class="edge"><title>&#45;22&#45;&gt;2</title>
<path fill="none" stroke="green" stroke-width="0.101629" d="M849.666,-77.8716C845.472,-73.5071 839.722,-68.4538 833.5,-65.6985 758.232,-32.3648 500.977,-19.9164 418.89,-16.7376"/>
<polygon fill="green" stroke="green" stroke-width="0.101629" points="418.84,-13.2333 408.716,-16.3569 418.578,-20.2284 418.84,-13.2333"/>
</g>
<!-- &#45;23 -->
<g id="node23" class="node"><title>&#45;23</title>
<polygon fill="lightgray" stroke="black" points="729,-177.874 700,-177.874 700,-159.874 729,-159.874 729,-177.874"/>
<text text-anchor="middle" x="714.5" y="-166.674" font-family="Times,serif" font-size="9.00">&#45;23</text>
</g>
<!-- &#45;23&#45;&gt;0 -->
<g id="edge1" class="edge"><title>&#45;23&#45;&gt;0</title>
<path fill="none" stroke="green" stroke-width="0.239855" d="M715.429,-159.617C716.677,-148.53 718.948,-128.356 720.763,-112.225"/>
<polygon fill="green" stroke="green" stroke-width="0.239855" points="724.289,-112.193 721.93,-101.864 717.333,-111.41 724.289,-112.193"/>
</g>
<!-- &#45;23&#45;&gt;410 -->
<g id="edge36" class="edge"><title>&#45;23&#45;&gt;410</title>
<path fill="none" stroke="green" stroke-width="0.153701" d="M708.276,-159.554C703.89,-154.302 697.558,-147.832 690.5,-144.125 602.333,-97.8202 481.676,-89.2761 425.147,-87.9545"/>
<polygon fill="green" stroke="green" stroke-width="0.153701" points="425.101,-84.4533 415.042,-87.7808 424.981,-91.4522 425.101,-84.4533"/>
</g>
<!-- &#45;24 -->
<g id="node24" class="node"><title>&#45;24</title>
<polygon fill="lightgray" stroke="black" points="985,-177.874 956,-177.874 956,-159.874 985,-159.874 985,-177.874"/>
<text text-anchor="middle" x="970.5" y="-166.674" font-family="Times,serif" font-size="9.00">&#45;24</text>
</g>
<!-- &#45;24&#45;&gt;0 -->
<g id="edge39" class="edge"><title>&#45;24&#45;&gt;0</title>
<path fill="none" stroke="red" stroke-width="0.129297" d="M964.28,-159.546C959.896,-154.291 953.564,-147.819 946.5,-144.125 868.789,-103.489 833.404,-141.959 752.5,-108.125 749.172,-106.733 745.843,-104.915 742.69,-102.939"/>
<polygon fill="red" stroke="red" stroke-width="0.129297" points="744.619,-100.018 734.412,-97.1783 740.62,-105.763 744.619,-100.018"/>
</g>
<!-- 1&#45;&gt;1 -->
<g id="edge20" class="edge"><title>1&#45;&gt;1</title>
<path fill="none" stroke="red" stroke-width="0.127655" d="M183.267,-97.6398C193.789,-103.566 205.349,-99.9898 205.349,-86.9117 205.349,-77.9205 199.885,-73.4205 193.051,-73.4117"/>
<polygon fill="red" stroke="red" stroke-width="0.127655" points="191.934,-70.0903 183.267,-76.1835 193.842,-76.8252 191.934,-70.0903"/>
</g>
<!-- 3&#45;&gt;3 -->
<g id="edge8" class="edge"><title>3&#45;&gt;3</title>
<path fill="none" stroke="green" stroke-width="0.327343" d="M668.267,-97.6398C678.789,-103.566 690.349,-99.9898 690.349,-86.9117 690.349,-77.9205 684.885,-73.4205 678.051,-73.4117"/>
<polygon fill="green" stroke="green" stroke-width="0.327343" points="676.934,-70.0903 668.267,-76.1835 678.842,-76.8252 676.934,-70.0903"/>
</g>
<!-- 3009&#45;&gt;410 -->
<g id="edge24" class="edge"><title>3009&#45;&gt;410</title>
<path fill="none" stroke="red" stroke-width="0.421014" d="M500.514,-153.587C495.947,-150.414 491.087,-147.109 486.5,-144.125 464.583,-129.869 439.141,-114.574 420.413,-103.543"/>
<polygon fill="red" stroke="red" stroke-width="0.421014" points="421.942,-100.382 411.546,-98.3424 418.401,-106.42 421.942,-100.382"/>
</g>
<!-- 410&#45;&gt;2 -->
<g id="edge5" class="edge"><title>410&#45;&gt;2</title>
<path fill="none" stroke="red" stroke-width="0.178891" d="M393.5,-65.6467C393.5,-57.6662 393.5,-48.4341 393.5,-40.1031"/>
<polygon fill="red" stroke="red" stroke-width="0.178891" points="397,-39.8511 393.5,-29.8512 390,-39.8512 397,-39.8511"/>
</g>
<!-- 410&#45;&gt;410 -->
<g id="edge23" class="edge"><title>410&#45;&gt;410</title>
<path fill="none" stroke="red" stroke-width="0.133059" d="M410.837,-99.3438C421.984,-102.587 432.713,-98.4429 432.713,-86.9117 432.713,-78.984 427.642,-74.5478 420.85,-73.6033"/>
<polygon fill="red" stroke="red" stroke-width="0.133059" points="420.493,-70.1211 410.837,-74.4796 421.104,-77.0944 420.493,-70.1211"/>
</g>
</g>
</svg>
