<?xml version="1.0" encoding="UTF-8" standalone="no"?>
<!DOCTYPE svg PUBLIC "-//W3C//DTD SVG 1.1//EN"
 "http://www.w3.org/Graphics/SVG/1.1/DTD/svg11.dtd">
<!-- Generated by graphviz version 2.38.0 (20140413.2041)
 -->
<!-- Title: %3 Pages: 1 -->
<svg width="1041pt" height="261pt"
 viewBox="0.00 0.00 1040.50 261.28" xmlns="http://www.w3.org/2000/svg" xmlns:xlink="http://www.w3.org/1999/xlink">
<g id="graph0" class="graph" transform="scale(1 1) rotate(0) translate(4 257.279)">
<title>%3</title>
<polygon fill="white" stroke="none" points="-4,4 -4,-257.279 1036.5,-257.279 1036.5,4 -4,4"/>
<!-- &#45;1 -->
<g id="node1" class="node"><title>&#45;1</title>
<polygon fill="lightgray" stroke="black" points="476.5,-180.702 452.5,-180.702 452.5,-162.702 476.5,-162.702 476.5,-180.702"/>
<text text-anchor="middle" x="464.5" y="-169.502" font-family="Times,serif" font-size="9.00">&#45;1</text>
</g>
<!-- 410 -->
<g id="node30" class="node"><title>410</title>
<ellipse fill="white" stroke="black" cx="377.5" cy="-86.9117" rx="21.4286" ry="21.4286"/>
<text text-anchor="middle" x="377.5" y="-84.7117" font-family="Times,serif" font-size="9.00">410</text>
</g>
<!-- &#45;1&#45;&gt;410 -->
<g id="edge31" class="edge"><title>&#45;1&#45;&gt;410</title>
<path fill="none" stroke="green" stroke-width="0.618272" d="M458.642,-162.453C454.63,-157.024 449.05,-149.883 443.5,-144.125 430.647,-130.791 414.902,-117.288 402.015,-106.859"/>
<polygon fill="green" stroke="green" stroke-width="0.618272" points="404.018,-103.98 394.017,-100.483 399.654,-109.454 404.018,-103.98"/>
</g>
<!-- &#45;2 -->
<g id="node2" class="node"><title>&#45;2</title>
<polygon fill="lightgray" stroke="black" points="160.5,-180.702 136.5,-180.702 136.5,-162.702 160.5,-162.702 160.5,-180.702"/>
<text text-anchor="middle" x="148.5" y="-169.502" font-family="Times,serif" font-size="9.00">&#45;2</text>
</g>
<!-- 1 -->
<g id="node26" class="node"><title>1</title>
<ellipse fill="lightblue" stroke="black" cx="148.5" cy="-86.9117" rx="14.7" ry="14.7"/>
<text text-anchor="middle" x="148.5" y="-84.7117" font-family="Times,serif" font-size="9.00">1</text>
</g>
<!-- &#45;2&#45;&gt;1 -->
<g id="edge10" class="edge"><title>&#45;2&#45;&gt;1</title>
<path fill="none" stroke="red" stroke-width="0.168108" d="M148.5,-162.461C148.5,-150.853 148.5,-129.205 148.5,-112.216"/>
<polygon fill="red" stroke="red" stroke-width="0.168108" points="152,-111.877 148.5,-101.877 145,-111.877 152,-111.877"/>
</g>
<!-- &#45;2&#45;&gt;410 -->
<g id="edge38" class="edge"><title>&#45;2&#45;&gt;410</title>
<path fill="none" stroke="green" stroke-width="0.32988" d="M152.982,-162.569C156.67,-156.613 162.431,-148.787 169.5,-144.125 224.772,-107.673 303.046,-94.7551 346.092,-90.2535"/>
<polygon fill="green" stroke="green" stroke-width="0.32988" points="346.621,-93.7189 356.242,-89.2811 345.954,-86.7508 346.621,-93.7189"/>
</g>
<!-- &#45;3 -->
<g id="node3" class="node"><title>&#45;3</title>
<polygon fill="lightgray" stroke="black" points="250.5,-180.702 226.5,-180.702 226.5,-162.702 250.5,-162.702 250.5,-180.702"/>
<text text-anchor="middle" x="238.5" y="-169.502" font-family="Times,serif" font-size="9.00">&#45;3</text>
</g>
<!-- 0 -->
<g id="node25" class="node"><title>0</title>
<ellipse fill="lightblue" stroke="black" cx="797.5" cy="-86.9117" rx="14.7" ry="14.7"/>
<text text-anchor="middle" x="797.5" y="-84.7117" font-family="Times,serif" font-size="9.00">0</text>
</g>
<!-- &#45;3&#45;&gt;0 -->
<g id="edge42" class="edge"><title>&#45;3&#45;&gt;0</title>
<path fill="none" stroke="red" stroke-width="0.247338" d="M242.462,-162.695C246.007,-156.473 251.827,-148.232 259.5,-144.125 346.972,-97.3101 606.363,-122.693 704.5,-108.125 728.109,-104.62 754.686,-98.6348 773.364,-94.0842"/>
<polygon fill="red" stroke="red" stroke-width="0.247338" points="774.25,-97.4705 783.112,-91.6645 772.563,-90.6767 774.25,-97.4705"/>
</g>
<!-- &#45;3&#45;&gt;1 -->
<g id="edge29" class="edge"><title>&#45;3&#45;&gt;1</title>
<path fill="none" stroke="red" stroke-width="0.105669" d="M232.328,-162.453C228.111,-157.024 222.262,-149.883 216.5,-144.125 201.247,-128.882 182.206,-113.404 168.155,-102.559"/>
<polygon fill="red" stroke="red" stroke-width="0.105669" points="170.207,-99.7226 160.13,-96.4494 165.966,-105.292 170.207,-99.7226"/>
</g>
<!-- 2 -->
<g id="node27" class="node"><title>2</title>
<ellipse fill="lightblue" stroke="black" cx="213.5" cy="-14.8492" rx="14.7" ry="14.7"/>
<text text-anchor="middle" x="213.5" y="-12.6492" font-family="Times,serif" font-size="9.00">2</text>
</g>
<!-- &#45;3&#45;&gt;2 -->
<g id="edge19" class="edge"><title>&#45;3&#45;&gt;2</title>
<path fill="none" stroke="green" stroke-width="0.247636" d="M239.454,-162.663C241.324,-144.896 244.619,-101.062 236.5,-65.6985 234.238,-55.8444 229.901,-45.5976 225.598,-36.9755"/>
<polygon fill="green" stroke="green" stroke-width="0.247636" points="228.638,-35.2383 220.866,-28.0387 222.452,-38.5141 228.638,-35.2383"/>
</g>
<!-- &#45;4 -->
<g id="node4" class="node"><title>&#45;4</title>
<polygon fill="lightgray" stroke="black" points="788.5,-180.702 764.5,-180.702 764.5,-162.702 788.5,-162.702 788.5,-180.702"/>
<text text-anchor="middle" x="776.5" y="-169.502" font-family="Times,serif" font-size="9.00">&#45;4</text>
</g>
<!-- &#45;4&#45;&gt;0 -->
<g id="edge32" class="edge"><title>&#45;4&#45;&gt;0</title>
<path fill="none" stroke="green" stroke-width="0.355533" d="M778.59,-162.461C781.58,-150.674 787.195,-128.538 791.533,-111.437"/>
<polygon fill="green" stroke="green" stroke-width="0.355533" points="794.968,-112.131 794.034,-101.577 788.182,-110.41 794.968,-112.131"/>
</g>
<!-- 3 -->
<g id="node28" class="node"><title>3</title>
<ellipse fill="lightblue" stroke="black" cx="662.5" cy="-86.9117" rx="14.7" ry="14.7"/>
<text text-anchor="middle" x="662.5" y="-84.7117" font-family="Times,serif" font-size="9.00">3</text>
</g>
<!-- &#45;4&#45;&gt;3 -->
<g id="edge16" class="edge"><title>&#45;4&#45;&gt;3</title>
<path fill="none" stroke="green" stroke-width="0.274982" d="M771.275,-162.632C767.376,-157.009 761.674,-149.571 755.5,-144.125 733.836,-125.013 704.814,-108.652 684.988,-98.5895"/>
<polygon fill="green" stroke="green" stroke-width="0.274982" points="686.321,-95.3443 675.806,-94.0456 683.216,-101.618 686.321,-95.3443"/>
</g>
<!-- &#45;5 -->
<g id="node5" class="node"><title>&#45;5</title>
<polygon fill="lightgray" stroke="black" points="830.5,-180.702 806.5,-180.702 806.5,-162.702 830.5,-162.702 830.5,-180.702"/>
<text text-anchor="middle" x="818.5" y="-169.502" font-family="Times,serif" font-size="9.00">&#45;5</text>
</g>
<!-- &#45;5&#45;&gt;0 -->
<g id="edge24" class="edge"><title>&#45;5&#45;&gt;0</title>
<path fill="none" stroke="red" stroke-width="1.33846" d="M816.41,-162.461C813.42,-150.674 807.805,-128.538 803.467,-111.437"/>
<polygon fill="red" stroke="red" stroke-width="1.33846" points="806.818,-110.41 800.966,-101.577 800.032,-112.131 806.818,-110.41"/>
</g>
<!-- &#45;5&#45;&gt;3 -->
<g id="edge33" class="edge"><title>&#45;5&#45;&gt;3</title>
<path fill="none" stroke="red" stroke-width="0.152108" d="M813.514,-162.339C809.728,-156.579 804.062,-149.096 797.5,-144.125 763.226,-118.16 715.215,-101.947 686.644,-93.9473"/>
<polygon fill="red" stroke="red" stroke-width="0.152108" points="687.28,-90.4942 676.715,-91.2801 685.464,-97.2546 687.28,-90.4942"/>
</g>
<!-- &#45;6 -->
<g id="node6" class="node"><title>&#45;6</title>
<polygon fill="lightgray" stroke="black" points="434.5,-180.702 410.5,-180.702 410.5,-162.702 434.5,-162.702 434.5,-180.702"/>
<text text-anchor="middle" x="422.5" y="-169.502" font-family="Times,serif" font-size="9.00">&#45;6</text>
</g>
<!-- &#45;6&#45;&gt;0 -->
<g id="edge13" class="edge"><title>&#45;6&#45;&gt;0</title>
<path fill="none" stroke="green" stroke-width="0.149893" d="M426.821,-162.306C430.424,-156.213 436.149,-148.329 443.5,-144.125 545.145,-85.984 589.201,-128.575 704.5,-108.125 728.001,-103.957 754.591,-98.0565 773.302,-93.7062"/>
<polygon fill="green" stroke="green" stroke-width="0.149893" points="774.137,-97.1054 783.07,-91.4092 772.535,-90.2912 774.137,-97.1054"/>
</g>
<!-- &#45;6&#45;&gt;1 -->
<g id="edge25" class="edge"><title>&#45;6&#45;&gt;1</title>
<path fill="none" stroke="red" stroke-width="0.47928" d="M417.84,-162.371C413.995,-156.311 407.967,-148.442 400.5,-144.125 318.14,-96.5116 279.996,-137.464 189.5,-108.125 182.96,-106.005 176.152,-103.005 170.006,-99.9637"/>
<polygon fill="red" stroke="red" stroke-width="0.47928" points="171.509,-96.8004 161.025,-95.2707 168.267,-103.004 171.509,-96.8004"/>
</g>
<!-- &#45;6&#45;&gt;410 -->
<g id="edge46" class="edge"><title>&#45;6&#45;&gt;410</title>
<path fill="none" stroke="green" stroke-width="0.593571" d="M418.021,-162.461C412.074,-151.52 401.28,-131.662 392.328,-115.191"/>
<polygon fill="green" stroke="green" stroke-width="0.593571" points="395.171,-113.093 387.32,-105.978 389.02,-116.436 395.171,-113.093"/>
</g>
<!-- &#45;7 -->
<g id="node7" class="node"><title>&#45;7</title>
<polygon fill="lightgray" stroke="black" points="1032.5,-180.702 1008.5,-180.702 1008.5,-162.702 1032.5,-162.702 1032.5,-180.702"/>
<text text-anchor="middle" x="1020.5" y="-169.502" font-family="Times,serif" font-size="9.00">&#45;7</text>
</g>
<!-- &#45;7&#45;&gt;0 -->
<g id="edge41" class="edge"><title>&#45;7&#45;&gt;0</title>
<path fill="none" stroke="green" stroke-width="0.106166" d="M1016.01,-162.584C1012.31,-156.636 1006.55,-148.813 999.5,-144.125 943.27,-106.74 862.473,-94.0189 822.232,-89.8475"/>
<polygon fill="green" stroke="green" stroke-width="0.106166" points="822.521,-86.3594 812.236,-88.9034 821.863,-93.3284 822.521,-86.3594"/>
</g>
<!-- &#45;8 -->
<g id="node8" class="node"><title>&#45;8</title>
<polygon fill="lightgray" stroke="black" points="518.5,-180.702 494.5,-180.702 494.5,-162.702 518.5,-162.702 518.5,-180.702"/>
<text text-anchor="middle" x="506.5" y="-169.502" font-family="Times,serif" font-size="9.00">&#45;8</text>
</g>
<!-- &#45;8&#45;&gt;3 -->
<g id="edge30" class="edge"><title>&#45;8&#45;&gt;3</title>
<path fill="none" stroke="green" stroke-width="0.189278" d="M511.486,-162.339C515.272,-156.579 520.938,-149.096 527.5,-144.125 561.774,-118.16 609.785,-101.947 638.356,-93.9473"/>
<polygon fill="green" stroke="green" stroke-width="0.189278" points="639.536,-97.2546 648.285,-91.2801 637.72,-90.4942 639.536,-97.2546"/>
</g>
<!-- &#45;8&#45;&gt;410 -->
<g id="edge45" class="edge"><title>&#45;8&#45;&gt;410</title>
<path fill="none" stroke="green" stroke-width="0.664739" d="M501.38,-162.509C497.53,-156.828 491.844,-149.372 485.5,-144.125 461.662,-124.411 429.785,-108.866 406.85,-99.1662"/>
<polygon fill="green" stroke="green" stroke-width="0.664739" points="407.891,-95.81 397.311,-95.2494 405.232,-102.285 407.891,-95.81"/>
</g>
<!-- &#45;9 -->
<g id="node9" class="node"><title>&#45;9</title>
<polygon fill="lightgray" stroke="black" points="118.5,-180.702 94.5,-180.702 94.5,-162.702 118.5,-162.702 118.5,-180.702"/>
<text text-anchor="middle" x="106.5" y="-169.502" font-family="Times,serif" font-size="9.00">&#45;9</text>
</g>
<!-- &#45;9&#45;&gt;1 -->
<g id="edge27" class="edge"><title>&#45;9&#45;&gt;1</title>
<path fill="none" stroke="red" stroke-width="0.623727" d="M110.681,-162.461C116.855,-150.29 128.629,-127.082 137.407,-109.779"/>
<polygon fill="red" stroke="red" stroke-width="0.623727" points="140.761,-110.903 142.164,-100.401 134.518,-107.736 140.761,-110.903"/>
</g>
<!-- &#45;10 -->
<g id="node10" class="node"><title>&#45;10</title>
<polygon fill="lightgray" stroke="black" points="298,-180.702 269,-180.702 269,-162.702 298,-162.702 298,-180.702"/>
<text text-anchor="middle" x="283.5" y="-169.502" font-family="Times,serif" font-size="9.00">&#45;10</text>
</g>
<!-- &#45;10&#45;&gt;410 -->
<g id="edge40" class="edge"><title>&#45;10&#45;&gt;410</title>
<path fill="none" stroke="green" stroke-width="0.444427" d="M289.972,-162.44C294.389,-157.006 300.505,-149.863 306.5,-144.125 320.796,-130.44 338.199,-116.622 352.197,-106.111"/>
<polygon fill="green" stroke="green" stroke-width="0.444427" points="354.462,-108.789 360.415,-100.024 350.296,-103.164 354.462,-108.789"/>
</g>
<!-- &#45;11 -->
<g id="node11" class="node"><title>&#45;11</title>
<polygon fill="lightgray" stroke="black" points="699,-180.702 670,-180.702 670,-162.702 699,-162.702 699,-180.702"/>
<text text-anchor="middle" x="684.5" y="-169.502" font-family="Times,serif" font-size="9.00">&#45;11</text>
</g>
<!-- &#45;11&#45;&gt;3 -->
<g id="edge28" class="edge"><title>&#45;11&#45;&gt;3</title>
<path fill="none" stroke="green" stroke-width="0.959718" d="M682.31,-162.461C679.178,-150.674 673.296,-128.538 668.751,-111.437"/>
<polygon fill="green" stroke="green" stroke-width="0.959718" points="672.082,-110.343 666.131,-101.577 665.317,-112.141 672.082,-110.343"/>
</g>
<!-- &#45;12 -->
<g id="node12" class="node"><title>&#45;12</title>
<polygon fill="lightgray" stroke="black" points="613,-180.702 584,-180.702 584,-162.702 613,-162.702 613,-180.702"/>
<text text-anchor="middle" x="598.5" y="-169.502" font-family="Times,serif" font-size="9.00">&#45;12</text>
</g>
<!-- &#45;12&#45;&gt;2 -->
<g id="edge21" class="edge"><title>&#45;12&#45;&gt;2</title>
<path fill="none" stroke="red" stroke-width="0.498049" d="M592.417,-162.566C587.907,-156.912 581.374,-149.464 574.5,-144.125 515.399,-98.218 495.598,-91.9016 425.5,-65.6985 359.968,-41.2022 278.413,-26.0747 238.234,-19.5701"/>
<polygon fill="red" stroke="red" stroke-width="0.498049" points="238.693,-16.0994 228.27,-17.9979 237.602,-23.0139 238.693,-16.0994"/>
</g>
<!-- &#45;12&#45;&gt;3 -->
<g id="edge39" class="edge"><title>&#45;12&#45;&gt;3</title>
<path fill="none" stroke="red" stroke-width="0.636217" d="M604.871,-162.461C614.671,-149.783 633.727,-125.132 647.24,-107.652"/>
<polygon fill="red" stroke="red" stroke-width="0.636217" points="650.376,-109.318 653.723,-99.266 644.838,-105.037 650.376,-109.318"/>
</g>
<!-- &#45;13 -->
<g id="node13" class="node"><title>&#45;13</title>
<polygon fill="lightgray" stroke="black" points="39,-95.9117 10,-95.9117 10,-77.9117 39,-77.9117 39,-95.9117"/>
<text text-anchor="middle" x="24.5" y="-84.7117" font-family="Times,serif" font-size="9.00">&#45;13</text>
</g>
<!-- &#45;13&#45;&gt;2 -->
<g id="edge17" class="edge"><title>&#45;13&#45;&gt;2</title>
<path fill="none" stroke="green" stroke-width="0.378934" d="M34.4917,-77.8016C39.8743,-73.7363 46.7758,-68.9913 53.5,-65.6985 99.0436,-43.396 156.739,-28.3549 188.928,-21.0258"/>
<polygon fill="green" stroke="green" stroke-width="0.378934" points="189.805,-24.4164 198.811,-18.8366 188.291,-17.582 189.805,-24.4164"/>
</g>
<!-- &#45;14 -->
<g id="node14" class="node"><title>&#45;14</title>
<polygon fill="lightgray" stroke="black" points="29,-180.702 0,-180.702 0,-162.702 29,-162.702 29,-180.702"/>
<text text-anchor="middle" x="14.5" y="-169.502" font-family="Times,serif" font-size="9.00">&#45;14</text>
</g>
<!-- &#45;14&#45;&gt;1 -->
<g id="edge37" class="edge"><title>&#45;14&#45;&gt;1</title>
<path fill="none" stroke="green" stroke-width="0.127709" d="M20.2406,-162.516C24.52,-156.839 30.7675,-149.384 37.5,-144.125 64.7856,-122.813 101.416,-106.152 124.994,-96.6726"/>
<polygon fill="green" stroke="green" stroke-width="0.127709" points="126.492,-99.845 134.531,-92.9442 123.943,-93.3254 126.492,-99.845"/>
</g>
<!-- &#45;14&#45;&gt;2 -->
<g id="edge12" class="edge"><title>&#45;14&#45;&gt;2</title>
<path fill="none" stroke="red" stroke-width="0.274342" d="M18.1325,-162.67C27.2543,-143.339 52.963,-93.7478 88.5,-65.6985 118.937,-41.6745 162.448,-27.8484 189.287,-21.095"/>
<polygon fill="red" stroke="red" stroke-width="0.274342" points="190.11,-24.4971 199.025,-18.7721 188.485,-17.6881 190.11,-24.4971"/>
</g>
<!-- &#45;15 -->
<g id="node15" class="node"><title>&#45;15</title>
<polygon fill="lightgray" stroke="black" points="208,-180.702 179,-180.702 179,-162.702 208,-162.702 208,-180.702"/>
<text text-anchor="middle" x="193.5" y="-169.502" font-family="Times,serif" font-size="9.00">&#45;15</text>
</g>
<!-- &#45;15&#45;&gt;1 -->
<g id="edge15" class="edge"><title>&#45;15&#45;&gt;1</title>
<path fill="none" stroke="red" stroke-width="0.121263" d="M189.021,-162.461C182.343,-150.176 169.554,-126.647 160.123,-109.295"/>
<polygon fill="red" stroke="red" stroke-width="0.121263" points="163.139,-107.516 155.289,-100.401 156.989,-110.859 163.139,-107.516"/>
</g>
<!-- &#45;15&#45;&gt;410 -->
<g id="edge3" class="edge"><title>&#45;15&#45;&gt;410</title>
<path fill="none" stroke="green" stroke-width="0.135253" d="M199.167,-162.494C203.57,-156.657 210.15,-149.015 217.5,-144.125 257.977,-117.194 312.807,-101.617 346.632,-93.952"/>
<polygon fill="green" stroke="green" stroke-width="0.135253" points="347.802,-97.2796 356.832,-91.737 346.317,-90.439 347.802,-97.2796"/>
</g>
<!-- &#45;16 -->
<g id="node16" class="node"><title>&#45;16</title>
<polygon fill="lightgray" stroke="black" points="746,-180.702 717,-180.702 717,-162.702 746,-162.702 746,-180.702"/>
<text text-anchor="middle" x="731.5" y="-169.502" font-family="Times,serif" font-size="9.00">&#45;16</text>
</g>
<!-- &#45;16&#45;&gt;0 -->
<g id="edge18" class="edge"><title>&#45;16&#45;&gt;0</title>
<path fill="none" stroke="green" stroke-width="0.679643" d="M738.07,-162.461C748.325,-149.597 768.409,-124.404 782.375,-106.885"/>
<polygon fill="green" stroke="green" stroke-width="0.679643" points="785.173,-108.99 788.67,-98.9886 779.699,-104.626 785.173,-108.99"/>
</g>
<!-- &#45;16&#45;&gt;3 -->
<g id="edge5" class="edge"><title>&#45;16&#45;&gt;3</title>
<path fill="none" stroke="red" stroke-width="0.433157" d="M724.632,-162.461C713.91,-149.597 692.914,-124.404 678.313,-106.885"/>
<polygon fill="red" stroke="red" stroke-width="0.433157" points="680.823,-104.43 671.732,-98.9886 675.445,-108.911 680.823,-104.43"/>
</g>
<!-- &#45;16&#45;&gt;410 -->
<g id="edge20" class="edge"><title>&#45;16&#45;&gt;410</title>
<path fill="none" stroke="green" stroke-width="0.385355" d="M726.243,-162.368C721.959,-156.307 715.346,-148.437 707.5,-144.125 656.148,-115.903 480.945,-97.2636 408.865,-90.621"/>
<polygon fill="green" stroke="green" stroke-width="0.385355" points="408.885,-87.1086 398.61,-89.6932 408.254,-94.0801 408.885,-87.1086"/>
</g>
<!-- &#45;17 -->
<g id="node17" class="node"><title>&#45;17</title>
<polygon fill="lightgray" stroke="black" points="392,-180.702 363,-180.702 363,-162.702 392,-162.702 392,-180.702"/>
<text text-anchor="middle" x="377.5" y="-169.502" font-family="Times,serif" font-size="9.00">&#45;17</text>
</g>
<!-- &#45;17&#45;&gt;1 -->
<g id="edge9" class="edge"><title>&#45;17&#45;&gt;1</title>
<path fill="none" stroke="green" stroke-width="0.1974" d="M372.184,-162.474C367.867,-156.468 361.241,-148.621 353.5,-144.125 288.971,-106.645 259.925,-132.804 189.5,-108.125 183.012,-105.851 176.221,-102.802 170.074,-99.7623"/>
<polygon fill="green" stroke="green" stroke-width="0.1974" points="171.57,-96.596 161.081,-95.1062 168.352,-102.812 171.57,-96.596"/>
</g>
<!-- &#45;17&#45;&gt;3 -->
<g id="edge6" class="edge"><title>&#45;17&#45;&gt;3</title>
<path fill="none" stroke="green" stroke-width="0.218743" d="M382.811,-162.465C387.125,-156.455 393.75,-148.606 401.5,-144.125 479.119,-99.247 588.452,-90.0947 637.259,-88.3017"/>
<polygon fill="green" stroke="green" stroke-width="0.218743" points="637.625,-91.7926 647.519,-88.0032 637.421,-84.7955 637.625,-91.7926"/>
</g>
<!-- &#45;17&#45;&gt;410 -->
<g id="edge44" class="edge"><title>&#45;17&#45;&gt;410</title>
<path fill="none" stroke="green" stroke-width="0.164631" d="M377.5,-162.461C377.5,-152.292 377.5,-134.42 377.5,-118.724"/>
<polygon fill="green" stroke="green" stroke-width="0.164631" points="381,-118.327 377.5,-108.327 374,-118.327 381,-118.327"/>
</g>
<!-- &#45;18 -->
<g id="node18" class="node"><title>&#45;18</title>
<polygon fill="lightgray" stroke="black" points="76,-180.702 47,-180.702 47,-162.702 76,-162.702 76,-180.702"/>
<text text-anchor="middle" x="61.5" y="-169.502" font-family="Times,serif" font-size="9.00">&#45;18</text>
</g>
<!-- &#45;18&#45;&gt;1 -->
<g id="edge8" class="edge"><title>&#45;18&#45;&gt;1</title>
<path fill="none" stroke="red" stroke-width="0.216252" d="M68.4237,-162.587C73.1049,-157.214 79.5036,-150.086 85.5,-144.125 99.8269,-129.883 116.986,-114.684 129.776,-103.686"/>
<polygon fill="red" stroke="red" stroke-width="0.216252" points="132.14,-106.27 137.476,-97.1177 127.597,-100.945 132.14,-106.27"/>
</g>
<!-- &#45;18&#45;&gt;2 -->
<g id="edge22" class="edge"><title>&#45;18&#45;&gt;2</title>
<path fill="none" stroke="green" stroke-width="0.135005" d="M64.6136,-162.649C72.2747,-143.694 93.6847,-95.6078 124.5,-65.6985 143.655,-47.1069 171.106,-33.1273 190.445,-24.7737"/>
<polygon fill="green" stroke="green" stroke-width="0.135005" points="191.834,-27.9867 199.731,-20.9235 189.153,-21.5204 191.834,-27.9867"/>
</g>
<!-- &#45;19 -->
<g id="node19" class="node"><title>&#45;19</title>
<polygon fill="lightgray" stroke="black" points="921,-253.279 892,-253.279 892,-235.279 921,-235.279 921,-253.279"/>
<text text-anchor="middle" x="906.5" y="-242.079" font-family="Times,serif" font-size="9.00">&#45;19</text>
</g>
<!-- &#45;19&#45;&gt;0 -->
<g id="edge34" class="edge"><title>&#45;19&#45;&gt;0</title>
<path fill="none" stroke="red" stroke-width="0.267889" d="M907.015,-235.272C907.768,-217.294 907.32,-173.039 887.5,-144.125 871.298,-120.489 841.559,-104.823 820.714,-96.1673"/>
<polygon fill="red" stroke="red" stroke-width="0.267889" points="821.881,-92.8658 811.294,-92.4772 819.328,-99.3836 821.881,-92.8658"/>
</g>
<!-- &#45;19&#45;&gt;3 -->
<g id="edge4" class="edge"><title>&#45;19&#45;&gt;3</title>
<path fill="none" stroke="red" stroke-width="0.849391" d="M891.895,-243.007C843.602,-241.77 690.436,-235.044 660.5,-199.279 639.974,-174.756 646.802,-135.442 654.209,-110.68"/>
<polygon fill="red" stroke="red" stroke-width="0.849391" points="657.578,-111.637 657.34,-101.045 650.921,-109.473 657.578,-111.637"/>
</g>
<!-- 12175 -->
<g id="node29" class="node"><title>12175</title>
<ellipse fill="white" stroke="black" cx="962.5" cy="-171.702" rx="27.6545" ry="27.6545"/>
<text text-anchor="middle" x="962.5" y="-169.502" font-family="Times,serif" font-size="9.00">12175</text>
</g>
<!-- &#45;19&#45;&gt;12175 -->
<g id="edge2" class="edge"><title>&#45;19&#45;&gt;12175</title>
<path fill="none" stroke="green" stroke-width="0.234556" d="M912.924,-235.183C919.366,-227.064 929.676,-214.071 939.229,-202.031"/>
<polygon fill="green" stroke="green" stroke-width="0.234556" points="942.191,-203.929 945.665,-193.919 936.707,-199.578 942.191,-203.929"/>
</g>
<!-- &#45;20 -->
<g id="node20" class="node"><title>&#45;20</title>
<polygon fill="lightgray" stroke="black" points="345,-180.702 316,-180.702 316,-162.702 345,-162.702 345,-180.702"/>
<text text-anchor="middle" x="330.5" y="-169.502" font-family="Times,serif" font-size="9.00">&#45;20</text>
</g>
<!-- &#45;20&#45;&gt;410 -->
<g id="edge43" class="edge"><title>&#45;20&#45;&gt;410</title>
<path fill="none" stroke="red" stroke-width="0.426708" d="M335.178,-162.461C341.487,-151.349 353.017,-131.039 362.451,-114.421"/>
<polygon fill="red" stroke="red" stroke-width="0.426708" points="365.537,-116.074 367.43,-105.65 359.449,-112.619 365.537,-116.074"/>
</g>
<!-- &#45;21 -->
<g id="node21" class="node"><title>&#45;21</title>
<polygon fill="lightgray" stroke="black" points="968,-253.279 939,-253.279 939,-235.279 968,-235.279 968,-253.279"/>
<text text-anchor="middle" x="953.5" y="-242.079" font-family="Times,serif" font-size="9.00">&#45;21</text>
</g>
<!-- &#45;22 -->
<g id="node22" class="node"><title>&#45;22</title>
<polygon fill="lightgray" stroke="black" points="228,-95.9117 199,-95.9117 199,-77.9117 228,-77.9117 228,-95.9117"/>
<text text-anchor="middle" x="213.5" y="-84.7117" font-family="Times,serif" font-size="9.00">&#45;22</text>
</g>
<!-- &#45;22&#45;&gt;2 -->
<g id="edge35" class="edge"><title>&#45;22&#45;&gt;2</title>
<path fill="none" stroke="green" stroke-width="0.333616" d="M213.5,-77.8746C213.5,-68.7202 213.5,-53.3256 213.5,-40.1641"/>
<polygon fill="green" stroke="green" stroke-width="0.333616" points="217,-39.8196 213.5,-29.8197 210,-39.8197 217,-39.8196"/>
</g>
<!-- &#45;23 -->
<g id="node23" class="node"><title>&#45;23</title>
<polygon fill="lightgray" stroke="black" points="566,-180.702 537,-180.702 537,-162.702 566,-162.702 566,-180.702"/>
<text text-anchor="middle" x="551.5" y="-169.502" font-family="Times,serif" font-size="9.00">&#45;23</text>
</g>
<!-- &#45;23&#45;&gt;0 -->
<g id="edge1" class="edge"><title>&#45;23&#45;&gt;0</title>
<path fill="none" stroke="green" stroke-width="0.133132" d="M556.559,-162.539C560.677,-156.567 567.019,-148.734 574.5,-144.125 591.549,-133.621 718.836,-105.056 773.105,-93.1899"/>
<polygon fill="green" stroke="green" stroke-width="0.133132" points="773.905,-96.5978 782.931,-91.0496 772.415,-89.7582 773.905,-96.5978"/>
</g>
<!-- &#45;23&#45;&gt;410 -->
<g id="edge36" class="edge"><title>&#45;23&#45;&gt;410</title>
<path fill="none" stroke="green" stroke-width="0.187688" d="M545.615,-162.293C541.199,-156.51 534.696,-149.021 527.5,-144.125 490.316,-118.826 440.252,-103.058 408.42,-94.8748"/>
<polygon fill="green" stroke="green" stroke-width="0.187688" points="408.916,-91.3922 398.368,-92.3877 407.235,-98.1873 408.916,-91.3922"/>
</g>
<!-- &#45;24 -->
<g id="node24" class="node"><title>&#45;24</title>
<polygon fill="lightgray" stroke="black" points="878,-180.702 849,-180.702 849,-162.702 878,-162.702 878,-180.702"/>
<text text-anchor="middle" x="863.5" y="-169.502" font-family="Times,serif" font-size="9.00">&#45;24</text>
</g>
<!-- &#45;24&#45;&gt;0 -->
<g id="edge47" class="edge"><title>&#45;24&#45;&gt;0</title>
<path fill="none" stroke="red" stroke-width="0.166142" d="M856.93,-162.461C846.675,-149.597 826.591,-124.404 812.625,-106.885"/>
<polygon fill="red" stroke="red" stroke-width="0.166142" points="815.301,-104.626 806.33,-98.9886 809.827,-108.99 815.301,-104.626"/>
</g>
<!-- 1&#45;&gt;1 -->
<g id="edge23" class="edge"><title>1&#45;&gt;1</title>
<path fill="none" stroke="red" stroke-width="0.917054" d="M159.267,-97.6398C169.789,-103.566 181.349,-99.9898 181.349,-86.9117 181.349,-77.9205 175.885,-73.4205 169.051,-73.4117"/>
<polygon fill="red" stroke="red" stroke-width="0.917054" points="167.934,-70.0903 159.267,-76.1835 169.842,-76.8252 167.934,-70.0903"/>
</g>
<!-- 3&#45;&gt;3 -->
<g id="edge11" class="edge"><title>3&#45;&gt;3</title>
<path fill="none" stroke="red" stroke-width="0.159892" d="M673.267,-97.6398C683.789,-103.566 695.349,-99.9898 695.349,-86.9117 695.349,-77.9205 689.885,-73.4205 683.051,-73.4117"/>
<polygon fill="red" stroke="red" stroke-width="0.159892" points="681.934,-70.0903 673.267,-76.1835 683.842,-76.8252 681.934,-70.0903"/>
</g>
<!-- 12175&#45;&gt;0 -->
<g id="edge14" class="edge"><title>12175&#45;&gt;0</title>
<path fill="none" stroke="red" stroke-width="0.506124" d="M939.729,-155.507C933.586,-151.625 926.873,-147.577 920.5,-144.125 886.57,-125.746 845.509,-107.796 820.458,-97.2996"/>
<polygon fill="red" stroke="red" stroke-width="0.506124" points="821.654,-94.0065 811.076,-93.404 818.97,-100.471 821.654,-94.0065"/>
</g>
<!-- 410&#45;&gt;2 -->
<g id="edge7" class="edge"><title>410&#45;&gt;2</title>
<path fill="none" stroke="red" stroke-width="0.271833" d="M358.366,-77.7375C328.021,-64.7739 268.971,-39.547 236.415,-25.6388"/>
<polygon fill="red" stroke="red" stroke-width="0.271833" points="237.417,-22.2608 226.846,-21.5507 234.667,-28.698 237.417,-22.2608"/>
</g>
<!-- 410&#45;&gt;410 -->
<g id="edge26" class="edge"><title>410&#45;&gt;410</title>
<path fill="none" stroke="red" stroke-width="0.176785" d="M394.837,-99.3438C405.984,-102.587 416.713,-98.4429 416.713,-86.9117 416.713,-78.984 411.642,-74.5478 404.85,-73.6033"/>
<polygon fill="red" stroke="red" stroke-width="0.176785" points="404.493,-70.1211 394.837,-74.4796 405.104,-77.0944 404.493,-70.1211"/>
</g>
</g>
</svg>
