<?xml version="1.0" encoding="UTF-8" standalone="no"?>
<!DOCTYPE svg PUBLIC "-//W3C//DTD SVG 1.1//EN"
 "http://www.w3.org/Graphics/SVG/1.1/DTD/svg11.dtd">
<!-- Generated by graphviz version 2.38.0 (20140413.2041)
 -->
<!-- Title: %3 Pages: 1 -->
<svg width="1088pt" height="256pt"
 viewBox="0.00 0.00 1088.00 255.62" xmlns="http://www.w3.org/2000/svg" xmlns:xlink="http://www.w3.org/1999/xlink">
<g id="graph0" class="graph" transform="scale(1 1) rotate(0) translate(4 251.622)">
<title>%3</title>
<polygon fill="white" stroke="none" points="-4,4 -4,-251.622 1084,-251.622 1084,4 -4,4"/>
<!-- &#45;1 -->
<g id="node1" class="node"><title>&#45;1</title>
<polygon fill="lightgray" stroke="black" points="507.5,-177.874 483.5,-177.874 483.5,-159.874 507.5,-159.874 507.5,-177.874"/>
<text text-anchor="middle" x="495.5" y="-166.674" font-family="Times,serif" font-size="9.00">&#45;1</text>
</g>
<!-- 410 -->
<g id="node30" class="node"><title>410</title>
<ellipse fill="white" stroke="black" cx="650.5" cy="-86.9117" rx="21.4286" ry="21.4286"/>
<text text-anchor="middle" x="650.5" y="-84.7117" font-family="Times,serif" font-size="9.00">410</text>
</g>
<!-- &#45;1&#45;&gt;410 -->
<g id="edge33" class="edge"><title>&#45;1&#45;&gt;410</title>
<path fill="none" stroke="green" stroke-width="0.876462" d="M501.352,-159.535C505.197,-154.54 510.596,-148.358 516.5,-144.125 548.639,-121.084 591.659,-105.184 620.186,-96.3185"/>
<polygon fill="green" stroke="green" stroke-width="0.876462" points="621.424,-99.6011 629.993,-93.3703 619.409,-92.8975 621.424,-99.6011"/>
</g>
<!-- &#45;2 -->
<g id="node2" class="node"><title>&#45;2</title>
<polygon fill="lightgray" stroke="black" points="754.5,-177.874 730.5,-177.874 730.5,-159.874 754.5,-159.874 754.5,-177.874"/>
<text text-anchor="middle" x="742.5" y="-166.674" font-family="Times,serif" font-size="9.00">&#45;2</text>
</g>
<!-- 1 -->
<g id="node26" class="node"><title>1</title>
<ellipse fill="lightblue" stroke="black" cx="841.5" cy="-86.9117" rx="14.7" ry="14.7"/>
<text text-anchor="middle" x="841.5" y="-84.7117" font-family="Times,serif" font-size="9.00">1</text>
</g>
<!-- &#45;2&#45;&gt;1 -->
<g id="edge10" class="edge"><title>&#45;2&#45;&gt;1</title>
<path fill="none" stroke="red" stroke-width="0.15497" d="M749.083,-159.545C753.027,-154.789 758.277,-148.852 763.5,-144.125 781.501,-127.833 804.227,-111.907 820.497,-101.191"/>
<polygon fill="red" stroke="red" stroke-width="0.15497" points="822.759,-103.896 829.246,-95.5204 818.951,-98.0224 822.759,-103.896"/>
</g>
<!-- &#45;2&#45;&gt;410 -->
<g id="edge39" class="edge"><title>&#45;2&#45;&gt;410</title>
<path fill="none" stroke="red" stroke-width="0.153275" d="M735.447,-159.677C731.263,-154.966 725.763,-149.029 720.5,-144.125 706.146,-130.75 688.984,-116.938 675.246,-106.351"/>
<polygon fill="red" stroke="red" stroke-width="0.153275" points="677.264,-103.489 667.19,-100.21 673.02,-109.056 677.264,-103.489"/>
</g>
<!-- &#45;3 -->
<g id="node3" class="node"><title>&#45;3</title>
<polygon fill="lightgray" stroke="black" points="465.5,-177.874 441.5,-177.874 441.5,-159.874 465.5,-159.874 465.5,-177.874"/>
<text text-anchor="middle" x="453.5" y="-166.674" font-family="Times,serif" font-size="9.00">&#45;3</text>
</g>
<!-- 0 -->
<g id="node25" class="node"><title>0</title>
<ellipse fill="lightblue" stroke="black" cx="340.5" cy="-86.9117" rx="14.7" ry="14.7"/>
<text text-anchor="middle" x="340.5" y="-84.7117" font-family="Times,serif" font-size="9.00">0</text>
</g>
<!-- &#45;3&#45;&gt;0 -->
<g id="edge43" class="edge"><title>&#45;3&#45;&gt;0</title>
<path fill="none" stroke="red" stroke-width="0.377628" d="M447.048,-159.873C442.899,-155.005 437.229,-148.839 431.5,-144.125 409.664,-126.159 381.608,-109.677 362.458,-99.2705"/>
<polygon fill="red" stroke="red" stroke-width="0.377628" points="364.058,-96.1569 353.587,-94.5382 360.763,-102.333 364.058,-96.1569"/>
</g>
<!-- &#45;3&#45;&gt;1 -->
<g id="edge31" class="edge"><title>&#45;3&#45;&gt;1</title>
<path fill="none" stroke="red" stroke-width="0.177645" d="M458.685,-159.474C462.413,-154.188 467.929,-147.709 474.5,-144.125 482.083,-139.988 734.416,-103.347 816.194,-91.5523"/>
<polygon fill="red" stroke="red" stroke-width="0.177645" points="817.16,-94.9494 826.558,-90.0588 816.161,-88.0209 817.16,-94.9494"/>
</g>
<!-- 2 -->
<g id="node27" class="node"><title>2</title>
<ellipse fill="lightblue" stroke="black" cx="916.5" cy="-14.8492" rx="14.7" ry="14.7"/>
<text text-anchor="middle" x="916.5" y="-12.6492" font-family="Times,serif" font-size="9.00">2</text>
</g>
<!-- &#45;3&#45;&gt;2 -->
<g id="edge18" class="edge"><title>&#45;3&#45;&gt;2</title>
<path fill="none" stroke="red" stroke-width="0.237361" d="M459.499,-159.73C463.4,-154.809 468.805,-148.635 474.5,-144.125 532.242,-98.3933 550.814,-89.5593 620.5,-65.6985 717.187,-32.5925 839.444,-20.955 891.355,-17.3218"/>
<polygon fill="red" stroke="red" stroke-width="0.237361" points="891.859,-20.7962 901.608,-16.646 891.399,-13.8114 891.859,-20.7962"/>
</g>
<!-- &#45;4 -->
<g id="node4" class="node"><title>&#45;4</title>
<polygon fill="lightgray" stroke="black" points="245.5,-247.622 221.5,-247.622 221.5,-229.622 245.5,-229.622 245.5,-247.622"/>
<text text-anchor="middle" x="233.5" y="-236.422" font-family="Times,serif" font-size="9.00">&#45;4</text>
</g>
<!-- &#45;4&#45;&gt;0 -->
<g id="edge34" class="edge"><title>&#45;4&#45;&gt;0</title>
<path fill="none" stroke="red" stroke-width="0.487822" d="M233.126,-229.563C232.726,-212.309 233.943,-171.167 252.5,-144.125 268.295,-121.108 296.927,-105.442 317.239,-96.6117"/>
<polygon fill="red" stroke="red" stroke-width="0.487822" points="318.798,-99.7551 326.719,-92.719 316.139,-93.2797 318.798,-99.7551"/>
</g>
<!-- 3 -->
<g id="node28" class="node"><title>3</title>
<ellipse fill="lightblue" stroke="black" cx="145.5" cy="-86.9117" rx="14.7" ry="14.7"/>
<text text-anchor="middle" x="145.5" y="-84.7117" font-family="Times,serif" font-size="9.00">3</text>
</g>
<!-- &#45;4&#45;&gt;3 -->
<g id="edge15" class="edge"><title>&#45;4&#45;&gt;3</title>
<path fill="none" stroke="green" stroke-width="0.291638" d="M221.375,-236.101C187.706,-231.604 94.3731,-217.193 76.5,-193.622 63.208,-176.093 67.0586,-163.995 76.5,-144.125 86.1455,-123.826 107.105,-108.446 123.408,-98.9495"/>
<polygon fill="green" stroke="green" stroke-width="0.291638" points="125.265,-101.923 132.349,-94.0449 121.898,-95.7862 125.265,-101.923"/>
</g>
<!-- 3009 -->
<g id="node29" class="node"><title>3009</title>
<ellipse fill="white" stroke="black" cx="550.5" cy="-168.874" rx="25" ry="25"/>
<text text-anchor="middle" x="550.5" y="-166.674" font-family="Times,serif" font-size="9.00">3009</text>
</g>
<!-- &#45;4&#45;&gt;3009 -->
<g id="edge22" class="edge"><title>&#45;4&#45;&gt;3009</title>
<path fill="none" stroke="red" stroke-width="0.180532" d="M245.786,-232.408C248.609,-231.36 251.627,-230.357 254.5,-229.622 368.377,-200.513 407.049,-236.469 516.5,-193.622 518.625,-192.791 520.744,-191.801 522.827,-190.705"/>
<polygon fill="red" stroke="red" stroke-width="0.180532" points="524.884,-193.552 531.631,-185.382 521.262,-187.561 524.884,-193.552"/>
</g>
<!-- &#45;5 -->
<g id="node5" class="node"><title>&#45;5</title>
<polygon fill="lightgray" stroke="black" points="157.5,-177.874 133.5,-177.874 133.5,-159.874 157.5,-159.874 157.5,-177.874"/>
<text text-anchor="middle" x="145.5" y="-166.674" font-family="Times,serif" font-size="9.00">&#45;5</text>
</g>
<!-- &#45;5&#45;&gt;0 -->
<g id="edge25" class="edge"><title>&#45;5&#45;&gt;0</title>
<path fill="none" stroke="red" stroke-width="1.64755" d="M150.889,-159.813C154.702,-154.671 160.237,-148.225 166.5,-144.125 214.16,-112.926 280.494,-97.8458 315.908,-91.6164"/>
<polygon fill="red" stroke="red" stroke-width="1.64755" points="316.563,-95.0557 325.851,-89.9592 315.412,-88.1509 316.563,-95.0557"/>
</g>
<!-- &#45;5&#45;&gt;3 -->
<g id="edge35" class="edge"><title>&#45;5&#45;&gt;3</title>
<path fill="none" stroke="green" stroke-width="0.539876" d="M145.5,-159.617C145.5,-148.53 145.5,-128.356 145.5,-112.225"/>
<polygon fill="green" stroke="green" stroke-width="0.539876" points="149,-111.864 145.5,-101.864 142,-111.864 149,-111.864"/>
</g>
<!-- &#45;6 -->
<g id="node6" class="node"><title>&#45;6</title>
<polygon fill="lightgray" stroke="black" points="617.5,-177.874 593.5,-177.874 593.5,-159.874 617.5,-159.874 617.5,-177.874"/>
<text text-anchor="middle" x="605.5" y="-166.674" font-family="Times,serif" font-size="9.00">&#45;6</text>
</g>
<!-- &#45;6&#45;&gt;0 -->
<g id="edge1" class="edge"><title>&#45;6&#45;&gt;0</title>
<path fill="none" stroke="green" stroke-width="0.189975" d="M600.224,-159.633C596.458,-154.415 590.933,-147.951 584.5,-144.125 512.902,-101.538 411.767,-91.2103 365.438,-88.709"/>
<polygon fill="green" stroke="green" stroke-width="0.189975" points="365.546,-85.2104 355.396,-88.2457 365.224,-92.203 365.546,-85.2104"/>
</g>
<!-- &#45;6&#45;&gt;1 -->
<g id="edge26" class="edge"><title>&#45;6&#45;&gt;1</title>
<path fill="none" stroke="red" stroke-width="0.196956" d="M610.814,-159.695C614.595,-154.503 620.124,-148.045 626.5,-144.125 687.896,-106.378 774.173,-93.7872 816.326,-89.7388"/>
<polygon fill="red" stroke="red" stroke-width="0.196956" points="816.864,-93.2052 826.521,-88.8463 816.253,-86.2319 816.864,-93.2052"/>
</g>
<!-- &#45;6&#45;&gt;410 -->
<g id="edge47" class="edge"><title>&#45;6&#45;&gt;410</title>
<path fill="none" stroke="red" stroke-width="0.160038" d="M610.146,-159.617C616.078,-149.077 626.631,-130.326 635.457,-114.642"/>
<polygon fill="red" stroke="red" stroke-width="0.160038" points="638.552,-116.279 640.406,-105.847 632.452,-112.846 638.552,-116.279"/>
</g>
<!-- &#45;7 -->
<g id="node7" class="node"><title>&#45;7</title>
<polygon fill="lightgray" stroke="black" points="375.5,-177.874 351.5,-177.874 351.5,-159.874 375.5,-159.874 375.5,-177.874"/>
<text text-anchor="middle" x="363.5" y="-166.674" font-family="Times,serif" font-size="9.00">&#45;7</text>
</g>
<!-- &#45;7&#45;&gt;0 -->
<g id="edge42" class="edge"><title>&#45;7&#45;&gt;0</title>
<path fill="none" stroke="green" stroke-width="0.166933" d="M361.125,-159.617C357.868,-148.292 351.883,-127.487 347.197,-111.194"/>
<polygon fill="green" stroke="green" stroke-width="0.166933" points="350.474,-109.926 344.346,-101.283 343.747,-111.861 350.474,-109.926"/>
</g>
<!-- &#45;8 -->
<g id="node8" class="node"><title>&#45;8</title>
<polygon fill="lightgray" stroke="black" points="285.5,-177.874 261.5,-177.874 261.5,-159.874 285.5,-159.874 285.5,-177.874"/>
<text text-anchor="middle" x="273.5" y="-166.674" font-family="Times,serif" font-size="9.00">&#45;8</text>
</g>
<!-- &#45;8&#45;&gt;3 -->
<g id="edge32" class="edge"><title>&#45;8&#45;&gt;3</title>
<path fill="none" stroke="red" stroke-width="0.551146" d="M261.227,-160.207C239.397,-146.569 193.586,-117.951 166.61,-101.099"/>
<polygon fill="red" stroke="red" stroke-width="0.551146" points="168.26,-98.0029 157.924,-95.6731 164.551,-103.94 168.26,-98.0029"/>
</g>
<!-- &#45;8&#45;&gt;410 -->
<g id="edge46" class="edge"><title>&#45;8&#45;&gt;410</title>
<path fill="none" stroke="green" stroke-width="0.565408" d="M278.691,-159.484C282.421,-154.202 287.937,-147.724 294.5,-144.125 350.319,-113.509 542.337,-96.0473 618.758,-90.1722"/>
<polygon fill="green" stroke="green" stroke-width="0.565408" points="619.456,-93.6297 629.165,-89.3893 618.93,-86.6494 619.456,-93.6297"/>
</g>
<!-- &#45;9 -->
<g id="node9" class="node"><title>&#45;9</title>
<polygon fill="lightgray" stroke="black" points="891.5,-177.874 867.5,-177.874 867.5,-159.874 891.5,-159.874 891.5,-177.874"/>
<text text-anchor="middle" x="879.5" y="-166.674" font-family="Times,serif" font-size="9.00">&#45;9</text>
</g>
<!-- &#45;9&#45;&gt;1 -->
<g id="edge29" class="edge"><title>&#45;9&#45;&gt;1</title>
<path fill="none" stroke="red" stroke-width="0.548217" d="M875.576,-159.617C870.08,-148.052 859.886,-126.601 852.075,-110.164"/>
<polygon fill="red" stroke="red" stroke-width="0.548217" points="855.036,-108.24 847.582,-100.71 848.713,-111.245 855.036,-108.24"/>
</g>
<!-- &#45;10 -->
<g id="node10" class="node"><title>&#45;10</title>
<polygon fill="lightgray" stroke="black" points="665,-177.874 636,-177.874 636,-159.874 665,-159.874 665,-177.874"/>
<text text-anchor="middle" x="650.5" y="-166.674" font-family="Times,serif" font-size="9.00">&#45;10</text>
</g>
<!-- &#45;10&#45;&gt;410 -->
<g id="edge41" class="edge"><title>&#45;10&#45;&gt;410</title>
<path fill="none" stroke="red" stroke-width="0.841065" d="M650.5,-159.617C650.5,-149.985 650.5,-133.495 650.5,-118.755"/>
<polygon fill="red" stroke="red" stroke-width="0.841065" points="654,-118.455 650.5,-108.455 647,-118.455 654,-118.455"/>
</g>
<!-- &#45;11 -->
<g id="node11" class="node"><title>&#45;11</title>
<polygon fill="lightgray" stroke="black" points="115,-177.874 86,-177.874 86,-159.874 115,-159.874 115,-177.874"/>
<text text-anchor="middle" x="100.5" y="-166.674" font-family="Times,serif" font-size="9.00">&#45;11</text>
</g>
<!-- &#45;11&#45;&gt;3 -->
<g id="edge30" class="edge"><title>&#45;11&#45;&gt;3</title>
<path fill="none" stroke="green" stroke-width="0.528354" d="M105.146,-159.617C111.791,-147.809 124.235,-125.697 133.555,-109.137"/>
<polygon fill="green" stroke="green" stroke-width="0.528354" points="136.76,-110.579 138.614,-100.147 130.66,-107.146 136.76,-110.579"/>
</g>
<!-- &#45;12 -->
<g id="node12" class="node"><title>&#45;12</title>
<polygon fill="lightgray" stroke="black" points="29,-177.874 0,-177.874 0,-159.874 29,-159.874 29,-177.874"/>
<text text-anchor="middle" x="14.5" y="-166.674" font-family="Times,serif" font-size="9.00">&#45;12</text>
</g>
<!-- &#45;12&#45;&gt;2 -->
<g id="edge21" class="edge"><title>&#45;12&#45;&gt;2</title>
<path fill="none" stroke="red" stroke-width="0.373924" d="M19.8043,-159.837C33.6659,-139.629 73.2609,-86.807 121.5,-65.6985 193.444,-34.217 763.6,-19.3566 891.218,-16.4066"/>
<polygon fill="red" stroke="red" stroke-width="0.373924" points="891.62,-19.8984 901.537,-16.1719 891.46,-12.9002 891.62,-19.8984"/>
</g>
<!-- &#45;12&#45;&gt;3 -->
<g id="edge40" class="edge"><title>&#45;12&#45;&gt;3</title>
<path fill="none" stroke="red" stroke-width="0.65029" d="M23.5684,-159.723C29.1249,-154.916 36.4937,-148.866 43.5,-144.125 69.81,-126.32 102.246,-109.196 123.378,-98.624"/>
<polygon fill="red" stroke="red" stroke-width="0.65029" points="125.084,-101.685 132.498,-94.1173 121.983,-95.4096 125.084,-101.685"/>
</g>
<!-- &#45;13 -->
<g id="node13" class="node"><title>&#45;13</title>
<polygon fill="lightgray" stroke="black" points="1050,-95.9117 1021,-95.9117 1021,-77.9117 1050,-77.9117 1050,-95.9117"/>
<text text-anchor="middle" x="1035.5" y="-84.7117" font-family="Times,serif" font-size="9.00">&#45;13</text>
</g>
<!-- &#45;13&#45;&gt;2 -->
<g id="edge16" class="edge"><title>&#45;13&#45;&gt;2</title>
<path fill="none" stroke="green" stroke-width="0.974951" d="M1024.39,-77.766C1019.06,-73.9667 1012.54,-69.4635 1006.5,-65.6985 983.884,-51.6056 957.063,-37.0088 938.618,-27.2817"/>
<polygon fill="green" stroke="green" stroke-width="0.974951" points="940.04,-24.076 929.558,-22.5401 936.795,-30.278 940.04,-24.076"/>
</g>
<!-- &#45;14 -->
<g id="node14" class="node"><title>&#45;14</title>
<polygon fill="lightgray" stroke="black" points="1033,-177.874 1004,-177.874 1004,-159.874 1033,-159.874 1033,-177.874"/>
<text text-anchor="middle" x="1018.5" y="-166.674" font-family="Times,serif" font-size="9.00">&#45;14</text>
</g>
<!-- &#45;14&#45;&gt;1 -->
<g id="edge45" class="edge"><title>&#45;14&#45;&gt;1</title>
<path fill="none" stroke="red" stroke-width="0.17844" d="M1012.01,-159.459C1007.77,-154.435 1001.86,-148.25 995.5,-144.125 953.889,-117.117 897.552,-100.828 865.831,-93.1814"/>
<polygon fill="red" stroke="red" stroke-width="0.17844" points="866.606,-89.7683 856.073,-90.9165 865.023,-96.5871 866.606,-89.7683"/>
</g>
<!-- &#45;14&#45;&gt;2 -->
<g id="edge13" class="edge"><title>&#45;14&#45;&gt;2</title>
<path fill="none" stroke="green" stroke-width="0.199117" d="M1013.02,-159.7C997.508,-136.587 952.992,-70.2386 930.243,-36.3316"/>
<polygon fill="green" stroke="green" stroke-width="0.199117" points="932.923,-34.0453 924.445,-27.6913 927.111,-37.9455 932.923,-34.0453"/>
</g>
<!-- &#45;15 -->
<g id="node15" class="node"><title>&#45;15</title>
<polygon fill="lightgray" stroke="black" points="802,-177.874 773,-177.874 773,-159.874 802,-159.874 802,-177.874"/>
<text text-anchor="middle" x="787.5" y="-166.674" font-family="Times,serif" font-size="9.00">&#45;15</text>
</g>
<!-- &#45;15&#45;&gt;1 -->
<g id="edge14" class="edge"><title>&#45;15&#45;&gt;1</title>
<path fill="none" stroke="red" stroke-width="0.308003" d="M793.076,-159.617C801.215,-147.564 816.605,-124.775 827.858,-108.113"/>
<polygon fill="red" stroke="red" stroke-width="0.308003" points="830.915,-109.84 833.611,-99.5937 825.114,-105.922 830.915,-109.84"/>
</g>
<!-- &#45;15&#45;&gt;410 -->
<g id="edge3" class="edge"><title>&#45;15&#45;&gt;410</title>
<path fill="none" stroke="red" stroke-width="0.269842" d="M780.492,-159.724C775.978,-154.8 769.793,-148.626 763.5,-144.125 737.146,-125.275 703.534,-109.446 679.842,-99.4369"/>
<polygon fill="red" stroke="red" stroke-width="0.269842" points="680.925,-96.0972 670.346,-95.5118 678.251,-102.566 680.925,-96.0972"/>
</g>
<!-- &#45;16 -->
<g id="node16" class="node"><title>&#45;16</title>
<polygon fill="lightgray" stroke="black" points="333,-177.874 304,-177.874 304,-159.874 333,-159.874 333,-177.874"/>
<text text-anchor="middle" x="318.5" y="-166.674" font-family="Times,serif" font-size="9.00">&#45;16</text>
</g>
<!-- &#45;16&#45;&gt;0 -->
<g id="edge17" class="edge"><title>&#45;16&#45;&gt;0</title>
<path fill="none" stroke="green" stroke-width="0.768617" d="M320.772,-159.617C323.87,-148.357 329.545,-127.728 334.017,-111.477"/>
<polygon fill="green" stroke="green" stroke-width="0.768617" points="337.463,-112.143 336.742,-101.572 330.714,-110.286 337.463,-112.143"/>
</g>
<!-- &#45;16&#45;&gt;3 -->
<g id="edge5" class="edge"><title>&#45;16&#45;&gt;3</title>
<path fill="none" stroke="green" stroke-width="0.284704" d="M311.646,-159.497C307.19,-154.487 301.012,-148.303 294.5,-144.125 254.326,-118.349 200.572,-101.773 169.826,-93.7115"/>
<polygon fill="green" stroke="green" stroke-width="0.284704" points="170.524,-90.2778 159.97,-91.214 168.804,-97.0633 170.524,-90.2778"/>
</g>
<!-- &#45;16&#45;&gt;410 -->
<g id="edge19" class="edge"><title>&#45;16&#45;&gt;410</title>
<path fill="none" stroke="green" stroke-width="0.949257" d="M324.716,-159.539C329.098,-154.281 335.43,-147.809 342.5,-144.125 434.622,-96.1266 560.844,-88.4643 618.918,-87.664"/>
<polygon fill="green" stroke="green" stroke-width="0.949257" points="618.972,-91.1638 628.945,-87.5862 618.918,-84.164 618.972,-91.1638"/>
</g>
<!-- &#45;17 -->
<g id="node17" class="node"><title>&#45;17</title>
<polygon fill="lightgray" stroke="black" points="849,-177.874 820,-177.874 820,-159.874 849,-159.874 849,-177.874"/>
<text text-anchor="middle" x="834.5" y="-166.674" font-family="Times,serif" font-size="9.00">&#45;17</text>
</g>
<!-- &#45;17&#45;&gt;1 -->
<g id="edge9" class="edge"><title>&#45;17&#45;&gt;1</title>
<path fill="none" stroke="red" stroke-width="0.2791" d="M835.223,-159.617C836.193,-148.53 837.959,-128.356 839.372,-112.225"/>
<polygon fill="red" stroke="red" stroke-width="0.2791" points="842.893,-112.131 840.279,-101.864 835.92,-111.521 842.893,-112.131"/>
</g>
<!-- &#45;17&#45;&gt;410 -->
<g id="edge48" class="edge"><title>&#45;17&#45;&gt;410</title>
<path fill="none" stroke="red" stroke-width="0.216431" d="M827.679,-159.444C823.236,-154.414 817.06,-148.228 810.5,-144.125 769.395,-118.412 714.966,-102.519 681.363,-94.4518"/>
<polygon fill="red" stroke="red" stroke-width="0.216431" points="681.76,-90.9512 671.229,-92.1052 680.181,-97.7708 681.76,-90.9512"/>
</g>
<!-- &#45;18 -->
<g id="node18" class="node"><title>&#45;18</title>
<polygon fill="lightgray" stroke="black" points="939,-177.874 910,-177.874 910,-159.874 939,-159.874 939,-177.874"/>
<text text-anchor="middle" x="924.5" y="-166.674" font-family="Times,serif" font-size="9.00">&#45;18</text>
</g>
<!-- &#45;18&#45;&gt;1 -->
<g id="edge7" class="edge"><title>&#45;18&#45;&gt;1</title>
<path fill="none" stroke="red" stroke-width="0.161974" d="M916.097,-159.481C911.509,-154.919 905.715,-149.188 900.5,-144.125 886.81,-130.832 871.168,-115.943 859.431,-104.829"/>
<polygon fill="red" stroke="red" stroke-width="0.161974" points="861.672,-102.131 852.002,-97.8035 856.863,-107.217 861.672,-102.131"/>
</g>
<!-- &#45;18&#45;&gt;2 -->
<g id="edge23" class="edge"><title>&#45;18&#45;&gt;2</title>
<path fill="none" stroke="red" stroke-width="0.438748" d="M924.07,-159.7C922.898,-137.44 919.617,-75.076 917.782,-40.2136"/>
<polygon fill="red" stroke="red" stroke-width="0.438748" points="921.263,-39.749 917.242,-29.9468 914.272,-40.1169 921.263,-39.749"/>
</g>
<!-- &#45;18&#45;&gt;410 -->
<g id="edge11" class="edge"><title>&#45;18&#45;&gt;410</title>
<path fill="none" stroke="red" stroke-width="0.167027" d="M918.234,-159.633C913.83,-154.415 907.494,-147.951 900.5,-144.125 828.873,-104.934 731.453,-93.0445 682.038,-89.4536"/>
<polygon fill="red" stroke="red" stroke-width="0.167027" points="682.174,-85.955 671.965,-88.7897 681.713,-92.9399 682.174,-85.955"/>
</g>
<!-- &#45;19 -->
<g id="node19" class="node"><title>&#45;19</title>
<polygon fill="lightgray" stroke="black" points="205,-177.874 176,-177.874 176,-159.874 205,-159.874 205,-177.874"/>
<text text-anchor="middle" x="190.5" y="-166.674" font-family="Times,serif" font-size="9.00">&#45;19</text>
</g>
<!-- &#45;19&#45;&gt;0 -->
<g id="edge36" class="edge"><title>&#45;19&#45;&gt;0</title>
<path fill="none" stroke="red" stroke-width="0.198163" d="M199.2,-159.77C204.742,-154.863 212.225,-148.692 219.5,-144.125 251.744,-123.885 292.46,-106.464 317.479,-96.5843"/>
<polygon fill="red" stroke="red" stroke-width="0.198163" points="318.807,-99.8235 326.863,-92.9427 316.274,-93.2976 318.807,-99.8235"/>
</g>
<!-- &#45;19&#45;&gt;3 -->
<g id="edge4" class="edge"><title>&#45;19&#45;&gt;3</title>
<path fill="none" stroke="red" stroke-width="0.827763" d="M185.854,-159.617C179.209,-147.809 166.765,-125.697 157.445,-109.137"/>
<polygon fill="red" stroke="red" stroke-width="0.827763" points="160.34,-107.146 152.386,-100.147 154.24,-110.579 160.34,-107.146"/>
</g>
<!-- &#45;20 -->
<g id="node20" class="node"><title>&#45;20</title>
<polygon fill="lightgray" stroke="black" points="712,-177.874 683,-177.874 683,-159.874 712,-159.874 712,-177.874"/>
<text text-anchor="middle" x="697.5" y="-166.674" font-family="Times,serif" font-size="9.00">&#45;20</text>
</g>
<!-- &#45;20&#45;&gt;410 -->
<g id="edge44" class="edge"><title>&#45;20&#45;&gt;410</title>
<path fill="none" stroke="green" stroke-width="0.158299" d="M692.647,-159.617C686.412,-149.01 675.29,-130.088 666.037,-114.345"/>
<polygon fill="green" stroke="green" stroke-width="0.158299" points="668.94,-112.377 660.855,-105.529 662.905,-115.924 668.94,-112.377"/>
</g>
<!-- &#45;21 -->
<g id="node21" class="node"><title>&#45;21</title>
<polygon fill="lightgray" stroke="black" points="986,-177.874 957,-177.874 957,-159.874 986,-159.874 986,-177.874"/>
<text text-anchor="middle" x="971.5" y="-166.674" font-family="Times,serif" font-size="9.00">&#45;21</text>
</g>
<!-- &#45;21&#45;&gt;1 -->
<g id="edge8" class="edge"><title>&#45;21&#45;&gt;1</title>
<path fill="none" stroke="red" stroke-width="0.119729" d="M964.808,-159.751C960.491,-154.837 954.565,-148.665 948.5,-144.125 921.841,-124.169 887.116,-107.353 864.57,-97.4527"/>
<polygon fill="red" stroke="red" stroke-width="0.119729" points="865.71,-94.1334 855.141,-93.4041 862.948,-100.566 865.71,-94.1334"/>
</g>
<!-- &#45;22 -->
<g id="node22" class="node"><title>&#45;22</title>
<polygon fill="lightgray" stroke="black" points="1080,-177.874 1051,-177.874 1051,-159.874 1080,-159.874 1080,-177.874"/>
<text text-anchor="middle" x="1065.5" y="-166.674" font-family="Times,serif" font-size="9.00">&#45;22</text>
</g>
<!-- &#45;22&#45;&gt;1 -->
<g id="edge20" class="edge"><title>&#45;22&#45;&gt;1</title>
<path fill="none" stroke="red" stroke-width="0.653337" d="M1059.5,-159.744C1055.28,-154.571 1049.21,-148.118 1042.5,-144.125 985.015,-109.896 905.891,-95.8001 866.247,-90.6012"/>
<polygon fill="red" stroke="red" stroke-width="0.653337" points="866.515,-87.108 856.162,-89.3615 865.661,-94.0557 866.515,-87.108"/>
</g>
<!-- &#45;22&#45;&gt;2 -->
<g id="edge37" class="edge"><title>&#45;22&#45;&gt;2</title>
<path fill="none" stroke="red" stroke-width="0.648286" d="M1058.24,-159.806C1047.98,-148.371 1028.67,-126.768 1012.5,-108.125 996.294,-89.4456 994.077,-83.094 976.5,-65.6985 963.797,-53.1268 948.246,-40.2694 936.16,-30.7619"/>
<polygon fill="red" stroke="red" stroke-width="0.648286" points="938.109,-27.8442 928.061,-24.4828 933.819,-33.3762 938.109,-27.8442"/>
</g>
<!-- &#45;23 -->
<g id="node23" class="node"><title>&#45;23</title>
<polygon fill="lightgray" stroke="black" points="423,-177.874 394,-177.874 394,-159.874 423,-159.874 423,-177.874"/>
<text text-anchor="middle" x="408.5" y="-166.674" font-family="Times,serif" font-size="9.00">&#45;23</text>
</g>
<!-- &#45;23&#45;&gt;0 -->
<g id="edge2" class="edge"><title>&#45;23&#45;&gt;0</title>
<path fill="none" stroke="green" stroke-width="0.24412" d="M401.479,-159.617C390.961,-147.249 370.828,-123.575 356.578,-106.818"/>
<polygon fill="green" stroke="green" stroke-width="0.24412" points="358.888,-104.132 349.744,-98.7815 353.556,-108.667 358.888,-104.132"/>
</g>
<!-- &#45;23&#45;&gt;410 -->
<g id="edge38" class="edge"><title>&#45;23&#45;&gt;410</title>
<path fill="none" stroke="red" stroke-width="0.338655" d="M414.806,-159.705C419.227,-154.517 425.567,-148.06 432.5,-144.125 493.106,-109.725 575.039,-95.9747 619.192,-90.7967"/>
<polygon fill="red" stroke="red" stroke-width="0.338655" points="619.752,-94.2563 629.31,-89.684 618.987,-87.2982 619.752,-94.2563"/>
</g>
<!-- &#45;24 -->
<g id="node24" class="node"><title>&#45;24</title>
<polygon fill="lightgray" stroke="black" points="293,-247.622 264,-247.622 264,-229.622 293,-229.622 293,-247.622"/>
<text text-anchor="middle" x="278.5" y="-236.422" font-family="Times,serif" font-size="9.00">&#45;24</text>
</g>
<!-- 1&#45;&gt;1 -->
<g id="edge24" class="edge"><title>1&#45;&gt;1</title>
<path fill="none" stroke="red" stroke-width="0.630101" d="M852.267,-97.6398C862.789,-103.566 874.349,-99.9898 874.349,-86.9117 874.349,-77.9205 868.885,-73.4205 862.051,-73.4117"/>
<polygon fill="red" stroke="red" stroke-width="0.630101" points="860.934,-70.0903 852.267,-76.1835 862.842,-76.8252 860.934,-70.0903"/>
</g>
<!-- 3&#45;&gt;3 -->
<g id="edge12" class="edge"><title>3&#45;&gt;3</title>
<path fill="none" stroke="red" stroke-width="0.314312" d="M156.267,-97.6398C166.789,-103.566 178.349,-99.9898 178.349,-86.9117 178.349,-77.9205 172.885,-73.4205 166.051,-73.4117"/>
<polygon fill="red" stroke="red" stroke-width="0.314312" points="164.934,-70.0903 156.267,-76.1835 166.842,-76.8252 164.934,-70.0903"/>
</g>
<!-- 3009&#45;&gt;410 -->
<g id="edge28" class="edge"><title>3009&#45;&gt;410</title>
<path fill="none" stroke="green" stroke-width="0.358384" d="M569.781,-152.456C585.877,-139.586 608.906,-121.171 626.25,-107.302"/>
<polygon fill="green" stroke="green" stroke-width="0.358384" points="628.628,-109.882 634.253,-100.903 624.257,-104.415 628.628,-109.882"/>
</g>
<!-- 410&#45;&gt;2 -->
<g id="edge6" class="edge"><title>410&#45;&gt;2</title>
<path fill="none" stroke="red" stroke-width="0.191669" d="M670.931,-80.5303C719.302,-67.7898 840.641,-35.8299 892.446,-22.1848"/>
<polygon fill="red" stroke="red" stroke-width="0.191669" points="893.338,-25.5693 902.117,-19.6376 891.555,-18.8002 893.338,-25.5693"/>
</g>
<!-- 410&#45;&gt;410 -->
<g id="edge27" class="edge"><title>410&#45;&gt;410</title>
<path fill="none" stroke="red" stroke-width="0.263491" d="M667.837,-99.3438C678.984,-102.587 689.713,-98.4429 689.713,-86.9117 689.713,-78.984 684.642,-74.5478 677.85,-73.6033"/>
<polygon fill="red" stroke="red" stroke-width="0.263491" points="677.493,-70.1211 667.837,-74.4796 678.104,-77.0944 677.493,-70.1211"/>
</g>
</g>
</svg>
