<?xml version="1.0" encoding="UTF-8" standalone="no"?>
<!DOCTYPE svg PUBLIC "-//W3C//DTD SVG 1.1//EN"
 "http://www.w3.org/Graphics/SVG/1.1/DTD/svg11.dtd">
<!-- Generated by graphviz version 2.38.0 (20140413.2041)
 -->
<!-- Title: %3 Pages: 1 -->
<svg width="1084pt" height="256pt"
 viewBox="0.00 0.00 1084.00 255.62" xmlns="http://www.w3.org/2000/svg" xmlns:xlink="http://www.w3.org/1999/xlink">
<g id="graph0" class="graph" transform="scale(1 1) rotate(0) translate(4 251.622)">
<title>%3</title>
<polygon fill="white" stroke="none" points="-4,4 -4,-251.622 1080,-251.622 1080,4 -4,4"/>
<!-- &#45;1 -->
<g id="node1" class="node"><title>&#45;1</title>
<polygon fill="lightgray" stroke="black" points="621.5,-177.874 597.5,-177.874 597.5,-159.874 621.5,-159.874 621.5,-177.874"/>
<text text-anchor="middle" x="609.5" y="-166.674" font-family="Times,serif" font-size="9.00">&#45;1</text>
</g>
<!-- 410 -->
<g id="node30" class="node"><title>410</title>
<ellipse fill="white" stroke="black" cx="654.5" cy="-86.9117" rx="21.4286" ry="21.4286"/>
<text text-anchor="middle" x="654.5" y="-84.7117" font-family="Times,serif" font-size="9.00">410</text>
</g>
<!-- &#45;1&#45;&gt;410 -->
<g id="edge33" class="edge"><title>&#45;1&#45;&gt;410</title>
<path fill="none" stroke="green" stroke-width="0.610499" d="M614.146,-159.617C620.078,-149.077 630.631,-130.326 639.457,-114.642"/>
<polygon fill="green" stroke="green" stroke-width="0.610499" points="642.552,-116.279 644.406,-105.847 636.452,-112.846 642.552,-116.279"/>
</g>
<!-- &#45;2 -->
<g id="node2" class="node"><title>&#45;2</title>
<polygon fill="lightgray" stroke="black" points="801.5,-177.874 777.5,-177.874 777.5,-159.874 801.5,-159.874 801.5,-177.874"/>
<text text-anchor="middle" x="789.5" y="-166.674" font-family="Times,serif" font-size="9.00">&#45;2</text>
</g>
<!-- 1 -->
<g id="node26" class="node"><title>1</title>
<ellipse fill="lightblue" stroke="black" cx="842.5" cy="-86.9117" rx="14.7" ry="14.7"/>
<text text-anchor="middle" x="842.5" y="-84.7117" font-family="Times,serif" font-size="9.00">1</text>
</g>
<!-- &#45;2&#45;&gt;1 -->
<g id="edge10" class="edge"><title>&#45;2&#45;&gt;1</title>
<path fill="none" stroke="red" stroke-width="0.471453" d="M794.972,-159.617C802.961,-147.564 818.066,-124.775 829.11,-108.113"/>
<polygon fill="red" stroke="red" stroke-width="0.471453" points="832.15,-109.863 834.757,-99.5937 826.315,-105.995 832.15,-109.863"/>
</g>
<!-- &#45;2&#45;&gt;410 -->
<g id="edge39" class="edge"><title>&#45;2&#45;&gt;410</title>
<path fill="none" stroke="red" stroke-width="0.371399" d="M783.196,-159.685C779.103,-154.746 773.439,-148.571 767.5,-144.125 741.408,-124.592 707.486,-108.78 683.643,-98.9588"/>
<polygon fill="red" stroke="red" stroke-width="0.371399" points="684.678,-95.6027 674.094,-95.1233 682.069,-102.098 684.678,-95.6027"/>
</g>
<!-- &#45;3 -->
<g id="node3" class="node"><title>&#45;3</title>
<polygon fill="lightgray" stroke="black" points="464.5,-177.874 440.5,-177.874 440.5,-159.874 464.5,-159.874 464.5,-177.874"/>
<text text-anchor="middle" x="452.5" y="-166.674" font-family="Times,serif" font-size="9.00">&#45;3</text>
</g>
<!-- 0 -->
<g id="node25" class="node"><title>0</title>
<ellipse fill="lightblue" stroke="black" cx="318.5" cy="-86.9117" rx="14.7" ry="14.7"/>
<text text-anchor="middle" x="318.5" y="-84.7117" font-family="Times,serif" font-size="9.00">0</text>
</g>
<!-- &#45;3&#45;&gt;0 -->
<g id="edge43" class="edge"><title>&#45;3&#45;&gt;0</title>
<path fill="none" stroke="red" stroke-width="0.17699" d="M446.19,-159.692C442.095,-154.756 436.431,-148.581 430.5,-144.125 402.47,-123.064 365.348,-106.243 341.687,-96.6698"/>
<polygon fill="red" stroke="red" stroke-width="0.17699" points="342.728,-93.3179 332.141,-92.9057 340.16,-99.8299 342.728,-93.3179"/>
</g>
<!-- &#45;3&#45;&gt;1 -->
<g id="edge31" class="edge"><title>&#45;3&#45;&gt;1</title>
<path fill="none" stroke="red" stroke-width="0.3133" d="M457.684,-159.472C461.411,-154.185 466.927,-147.707 473.5,-144.125 481.142,-139.96 735.964,-103.178 817.603,-91.4724"/>
<polygon fill="red" stroke="red" stroke-width="0.3133" points="818.527,-94.8758 827.93,-89.9931 817.534,-87.9465 818.527,-94.8758"/>
</g>
<!-- 2 -->
<g id="node27" class="node"><title>2</title>
<ellipse fill="lightblue" stroke="black" cx="786.5" cy="-14.8492" rx="14.7" ry="14.7"/>
<text text-anchor="middle" x="786.5" y="-12.6492" font-family="Times,serif" font-size="9.00">2</text>
</g>
<!-- &#45;3&#45;&gt;2 -->
<g id="edge18" class="edge"><title>&#45;3&#45;&gt;2</title>
<path fill="none" stroke="red" stroke-width="0.157035" d="M458.477,-159.703C462.369,-154.77 467.774,-148.596 473.5,-144.125 566.368,-71.6186 705.912,-33.9741 761.936,-21.0809"/>
<polygon fill="red" stroke="red" stroke-width="0.157035" points="762.996,-24.4305 771.989,-18.8293 761.466,-17.5997 762.996,-24.4305"/>
</g>
<!-- &#45;4 -->
<g id="node4" class="node"><title>&#45;4</title>
<polygon fill="lightgray" stroke="black" points="287.5,-247.622 263.5,-247.622 263.5,-229.622 287.5,-229.622 287.5,-247.622"/>
<text text-anchor="middle" x="275.5" y="-236.422" font-family="Times,serif" font-size="9.00">&#45;4</text>
</g>
<!-- &#45;4&#45;&gt;0 -->
<g id="edge34" class="edge"><title>&#45;4&#45;&gt;0</title>
<path fill="none" stroke="red" stroke-width="0.920988" d="M276.586,-229.479C278.898,-213.07 284.893,-174.963 294.5,-144.125 298.098,-132.575 303.251,-120.165 307.86,-109.95"/>
<polygon fill="red" stroke="red" stroke-width="0.920988" points="311.174,-111.125 312.211,-100.581 304.825,-108.177 311.174,-111.125"/>
</g>
<!-- 3 -->
<g id="node28" class="node"><title>3</title>
<ellipse fill="lightblue" stroke="black" cx="168.5" cy="-86.9117" rx="14.7" ry="14.7"/>
<text text-anchor="middle" x="168.5" y="-84.7117" font-family="Times,serif" font-size="9.00">3</text>
</g>
<!-- &#45;4&#45;&gt;3 -->
<g id="edge16" class="edge"><title>&#45;4&#45;&gt;3</title>
<path fill="none" stroke="green" stroke-width="0.182391" d="M263.38,-236.861C223.914,-234.106 100.261,-223.211 76.5,-193.622 62.7256,-176.47 65.7384,-163.312 76.5,-144.125 90.9655,-118.334 122.613,-102.968 144.728,-94.981"/>
<polygon fill="green" stroke="green" stroke-width="0.182391" points="146.045,-98.2308 154.411,-91.7298 143.817,-91.5948 146.045,-98.2308"/>
</g>
<!-- 3009 -->
<g id="node29" class="node"><title>3009</title>
<ellipse fill="white" stroke="black" cx="507.5" cy="-168.874" rx="25" ry="25"/>
<text text-anchor="middle" x="507.5" y="-166.674" font-family="Times,serif" font-size="9.00">3009</text>
</g>
<!-- &#45;4&#45;&gt;3009 -->
<g id="edge22" class="edge"><title>&#45;4&#45;&gt;3009</title>
<path fill="none" stroke="red" stroke-width="0.363281" d="M287.609,-236.584C319.351,-233.517 407.094,-222.816 473.5,-193.622 475.589,-192.704 477.681,-191.649 479.745,-190.506"/>
<polygon fill="red" stroke="red" stroke-width="0.363281" points="481.849,-193.319 488.502,-185.074 478.16,-187.37 481.849,-193.319"/>
</g>
<!-- &#45;5 -->
<g id="node5" class="node"><title>&#45;5</title>
<polygon fill="lightgray" stroke="black" points="157.5,-177.874 133.5,-177.874 133.5,-159.874 157.5,-159.874 157.5,-177.874"/>
<text text-anchor="middle" x="145.5" y="-166.674" font-family="Times,serif" font-size="9.00">&#45;5</text>
</g>
<!-- &#45;5&#45;&gt;0 -->
<g id="edge25" class="edge"><title>&#45;5&#45;&gt;0</title>
<path fill="none" stroke="red" stroke-width="1.69114" d="M151.289,-159.445C155.11,-154.416 160.506,-148.23 166.5,-144.125 206.785,-116.536 262.301,-100.52 293.886,-93.0641"/>
<polygon fill="red" stroke="red" stroke-width="1.69114" points="295.014,-96.3976 303.996,-90.7791 293.471,-89.5698 295.014,-96.3976"/>
</g>
<!-- &#45;5&#45;&gt;3 -->
<g id="edge35" class="edge"><title>&#45;5&#45;&gt;3</title>
<path fill="none" stroke="green" stroke-width="0.178302" d="M147.875,-159.617C151.132,-148.292 157.117,-127.487 161.803,-111.194"/>
<polygon fill="green" stroke="green" stroke-width="0.178302" points="165.253,-111.861 164.654,-101.283 158.526,-109.926 165.253,-111.861"/>
</g>
<!-- &#45;6 -->
<g id="node6" class="node"><title>&#45;6</title>
<polygon fill="lightgray" stroke="black" points="711.5,-177.874 687.5,-177.874 687.5,-159.874 711.5,-159.874 711.5,-177.874"/>
<text text-anchor="middle" x="699.5" y="-166.674" font-family="Times,serif" font-size="9.00">&#45;6</text>
</g>
<!-- &#45;6&#45;&gt;0 -->
<g id="edge1" class="edge"><title>&#45;6&#45;&gt;0</title>
<path fill="none" stroke="green" stroke-width="0.187833" d="M693.977,-159.48C690.033,-154.196 684.246,-147.719 677.5,-144.125 619.099,-113.015 415.347,-95.1443 343.673,-89.7051"/>
<polygon fill="green" stroke="green" stroke-width="0.187833" points="343.578,-86.1885 333.346,-88.9387 343.06,-93.1693 343.578,-86.1885"/>
</g>
<!-- &#45;6&#45;&gt;1 -->
<g id="edge26" class="edge"><title>&#45;6&#45;&gt;1</title>
<path fill="none" stroke="red" stroke-width="0.440856" d="M705.404,-159.606C709.269,-154.638 714.67,-148.459 720.5,-144.125 751.26,-121.258 792.81,-104.583 818.616,-95.5742"/>
<polygon fill="red" stroke="red" stroke-width="0.440856" points="819.966,-98.8123 828.316,-92.2912 817.722,-92.1817 819.966,-98.8123"/>
</g>
<!-- &#45;6&#45;&gt;410 -->
<g id="edge48" class="edge"><title>&#45;6&#45;&gt;410</title>
<path fill="none" stroke="red" stroke-width="0.400944" d="M694.854,-159.617C688.922,-149.077 678.369,-130.326 669.543,-114.642"/>
<polygon fill="red" stroke="red" stroke-width="0.400944" points="672.548,-112.846 664.594,-105.847 666.448,-116.279 672.548,-112.846"/>
</g>
<!-- &#45;7 -->
<g id="node7" class="node"><title>&#45;7</title>
<polygon fill="lightgray" stroke="black" points="247.5,-177.874 223.5,-177.874 223.5,-159.874 247.5,-159.874 247.5,-177.874"/>
<text text-anchor="middle" x="235.5" y="-166.674" font-family="Times,serif" font-size="9.00">&#45;7</text>
</g>
<!-- &#45;7&#45;&gt;0 -->
<g id="edge42" class="edge"><title>&#45;7&#45;&gt;0</title>
<path fill="none" stroke="red" stroke-width="0.11701" d="M244.07,-159.617C257.431,-146.745 283.503,-121.628 300.964,-104.806"/>
<polygon fill="red" stroke="red" stroke-width="0.11701" points="303.531,-107.193 308.304,-97.7341 298.674,-102.152 303.531,-107.193"/>
</g>
<!-- &#45;8 -->
<g id="node8" class="node"><title>&#45;8</title>
<polygon fill="lightgray" stroke="black" points="327.5,-177.874 303.5,-177.874 303.5,-159.874 327.5,-159.874 327.5,-177.874"/>
<text text-anchor="middle" x="315.5" y="-166.674" font-family="Times,serif" font-size="9.00">&#45;8</text>
</g>
<!-- &#45;8&#45;&gt;3 -->
<g id="edge32" class="edge"><title>&#45;8&#45;&gt;3</title>
<path fill="none" stroke="red" stroke-width="0.333416" d="M303.47,-161.33C278.614,-147.809 221.297,-116.631 189.944,-99.5766"/>
<polygon fill="red" stroke="red" stroke-width="0.333416" points="191.57,-96.4763 181.113,-94.7724 188.225,-102.625 191.57,-96.4763"/>
</g>
<!-- &#45;8&#45;&gt;410 -->
<g id="edge47" class="edge"><title>&#45;8&#45;&gt;410</title>
<path fill="none" stroke="green" stroke-width="0.651411" d="M320.713,-159.523C324.452,-154.258 329.971,-147.785 336.5,-144.125 385.577,-116.618 553.151,-97.6911 623.262,-90.7972"/>
<polygon fill="green" stroke="green" stroke-width="0.651411" points="623.643,-94.2769 633.26,-89.8312 622.969,-87.3093 623.643,-94.2769"/>
</g>
<!-- &#45;9 -->
<g id="node9" class="node"><title>&#45;9</title>
<polygon fill="lightgray" stroke="black" points="751.5,-247.622 727.5,-247.622 727.5,-229.622 751.5,-229.622 751.5,-247.622"/>
<text text-anchor="middle" x="739.5" y="-236.422" font-family="Times,serif" font-size="9.00">&#45;9</text>
</g>
<!-- &#45;9&#45;&gt;1 -->
<g id="edge29" class="edge"><title>&#45;9&#45;&gt;1</title>
<path fill="none" stroke="red" stroke-width="0.496735" d="M751.814,-232.512C754.636,-231.458 757.646,-230.427 760.5,-229.622 844.066,-206.075 897.053,-260.431 952.5,-193.622 966.549,-176.694 963.983,-162.889 952.5,-144.125 934.002,-113.899 893.557,-99.273 867.202,-92.7013"/>
<polygon fill="red" stroke="red" stroke-width="0.496735" points="867.733,-89.2326 857.206,-90.4239 866.178,-96.0578 867.733,-89.2326"/>
</g>
<!-- &#45;9&#45;&gt;3009 -->
<g id="edge46" class="edge"><title>&#45;9&#45;&gt;3009</title>
<path fill="none" stroke="green" stroke-width="0.173149" d="M727.306,-236.649C695.346,-233.741 607.033,-223.39 540.5,-193.622 538.664,-192.801 536.827,-191.868 535.014,-190.858"/>
<polygon fill="green" stroke="green" stroke-width="0.173149" points="536.567,-187.7 526.239,-185.336 532.838,-193.625 536.567,-187.7"/>
</g>
<!-- &#45;10 -->
<g id="node10" class="node"><title>&#45;10</title>
<polygon fill="lightgray" stroke="black" points="759,-177.874 730,-177.874 730,-159.874 759,-159.874 759,-177.874"/>
<text text-anchor="middle" x="744.5" y="-166.674" font-family="Times,serif" font-size="9.00">&#45;10</text>
</g>
<!-- &#45;10&#45;&gt;410 -->
<g id="edge41" class="edge"><title>&#45;10&#45;&gt;410</title>
<path fill="none" stroke="red" stroke-width="0.64685" d="M736.645,-159.805C732.027,-155.137 726.027,-149.2 720.5,-144.125 706.859,-131.599 691.083,-118.127 678.376,-107.513"/>
<polygon fill="red" stroke="red" stroke-width="0.64685" points="680.452,-104.687 670.523,-100.989 675.979,-110.071 680.452,-104.687"/>
</g>
<!-- &#45;11 -->
<g id="node11" class="node"><title>&#45;11</title>
<polygon fill="lightgray" stroke="black" points="115,-177.874 86,-177.874 86,-159.874 115,-159.874 115,-177.874"/>
<text text-anchor="middle" x="100.5" y="-166.674" font-family="Times,serif" font-size="9.00">&#45;11</text>
</g>
<!-- &#45;11&#45;&gt;3 -->
<g id="edge30" class="edge"><title>&#45;11&#45;&gt;3</title>
<path fill="none" stroke="green" stroke-width="0.513246" d="M107.521,-159.617C118.039,-147.249 138.172,-123.575 152.422,-106.818"/>
<polygon fill="green" stroke="green" stroke-width="0.513246" points="155.444,-108.667 159.256,-98.7815 150.112,-104.132 155.444,-108.667"/>
</g>
<!-- &#45;12 -->
<g id="node12" class="node"><title>&#45;12</title>
<polygon fill="lightgray" stroke="black" points="29,-177.874 0,-177.874 0,-159.874 29,-159.874 29,-177.874"/>
<text text-anchor="middle" x="14.5" y="-166.674" font-family="Times,serif" font-size="9.00">&#45;12</text>
</g>
<!-- &#45;12&#45;&gt;2 -->
<g id="edge21" class="edge"><title>&#45;12&#45;&gt;2</title>
<path fill="none" stroke="red" stroke-width="0.447874" d="M21.3947,-159.869C39.2924,-139.737 89.6733,-87.0778 144.5,-65.6985 259.942,-20.6827 656.831,-16.2492 761.193,-15.8696"/>
<polygon fill="red" stroke="red" stroke-width="0.447874" points="761.417,-19.3691 771.408,-15.8425 761.399,-12.3691 761.417,-19.3691"/>
</g>
<!-- &#45;12&#45;&gt;3 -->
<g id="edge40" class="edge"><title>&#45;12&#45;&gt;3</title>
<path fill="none" stroke="red" stroke-width="0.35454" d="M23.18,-159.739C28.7147,-154.82 36.1967,-148.647 43.5,-144.125 76.9283,-123.427 119.279,-106.03 145.109,-96.2946"/>
<polygon fill="red" stroke="red" stroke-width="0.35454" points="146.612,-99.4702 154.777,-92.7186 144.184,-92.9049 146.612,-99.4702"/>
</g>
<!-- &#45;13 -->
<g id="node13" class="node"><title>&#45;13</title>
<polygon fill="lightgray" stroke="black" points="799,-247.622 770,-247.622 770,-229.622 799,-229.622 799,-247.622"/>
<text text-anchor="middle" x="784.5" y="-236.422" font-family="Times,serif" font-size="9.00">&#45;13</text>
</g>
<!-- &#45;14 -->
<g id="node14" class="node"><title>&#45;14</title>
<polygon fill="lightgray" stroke="black" points="1029,-177.874 1000,-177.874 1000,-159.874 1029,-159.874 1029,-177.874"/>
<text text-anchor="middle" x="1014.5" y="-166.674" font-family="Times,serif" font-size="9.00">&#45;14</text>
</g>
<!-- &#45;14&#45;&gt;1 -->
<g id="edge45" class="edge"><title>&#45;14&#45;&gt;1</title>
<path fill="none" stroke="red" stroke-width="0.258209" d="M1005.89,-159.614C1000.39,-154.648 992.91,-148.47 985.5,-144.125 946.151,-121.051 895.566,-103.721 866.312,-94.7566"/>
<polygon fill="red" stroke="red" stroke-width="0.258209" points="867.143,-91.3521 856.56,-91.8373 865.136,-98.0581 867.143,-91.3521"/>
</g>
<!-- &#45;14&#45;&gt;2 -->
<g id="edge13" class="edge"><title>&#45;14&#45;&gt;2</title>
<path fill="none" stroke="green" stroke-width="0.488009" d="M1008.06,-159.609C992.906,-140.656 953.073,-93.5538 910.5,-65.6985 878.59,-44.8194 836.542,-30.2027 810.527,-22.4133"/>
<polygon fill="green" stroke="green" stroke-width="0.488009" points="811.335,-19.0034 800.756,-19.5839 809.388,-25.7272 811.335,-19.0034"/>
</g>
<!-- &#45;15 -->
<g id="node15" class="node"><title>&#45;15</title>
<polygon fill="lightgray" stroke="black" points="849,-177.874 820,-177.874 820,-159.874 849,-159.874 849,-177.874"/>
<text text-anchor="middle" x="834.5" y="-166.674" font-family="Times,serif" font-size="9.00">&#45;15</text>
</g>
<!-- &#45;15&#45;&gt;1 -->
<g id="edge15" class="edge"><title>&#45;15&#45;&gt;1</title>
<path fill="none" stroke="green" stroke-width="0.469542" d="M835.326,-159.617C836.435,-148.53 838.454,-128.356 840.068,-112.225"/>
<polygon fill="green" stroke="green" stroke-width="0.469542" points="843.591,-112.163 841.104,-101.864 836.626,-111.466 843.591,-112.163"/>
</g>
<!-- &#45;15&#45;&gt;410 -->
<g id="edge3" class="edge"><title>&#45;15&#45;&gt;410</title>
<path fill="none" stroke="red" stroke-width="0.224226" d="M827.668,-159.462C823.22,-154.44 817.043,-148.255 810.5,-144.125 770.629,-118.961 717.926,-102.987 685.127,-94.7442"/>
<polygon fill="red" stroke="red" stroke-width="0.224226" points="685.763,-91.2969 675.219,-92.3376 684.11,-98.0991 685.763,-91.2969"/>
</g>
<!-- &#45;16 -->
<g id="node16" class="node"><title>&#45;16</title>
<polygon fill="lightgray" stroke="black" points="375,-177.874 346,-177.874 346,-159.874 375,-159.874 375,-177.874"/>
<text text-anchor="middle" x="360.5" y="-166.674" font-family="Times,serif" font-size="9.00">&#45;16</text>
</g>
<!-- &#45;16&#45;&gt;0 -->
<g id="edge17" class="edge"><title>&#45;16&#45;&gt;0</title>
<path fill="none" stroke="green" stroke-width="0.910522" d="M356.163,-159.617C349.996,-147.876 338.478,-125.947 329.796,-109.418"/>
<polygon fill="green" stroke="green" stroke-width="0.910522" points="332.823,-107.653 325.074,-100.428 326.626,-110.908 332.823,-107.653"/>
</g>
<!-- &#45;16&#45;&gt;3 -->
<g id="edge5" class="edge"><title>&#45;16&#45;&gt;3</title>
<path fill="none" stroke="green" stroke-width="0.314489" d="M354.099,-159.865C349.639,-154.744 343.29,-148.302 336.5,-144.125 289.934,-115.478 227.033,-99.5106 192.935,-92.4266"/>
<polygon fill="green" stroke="green" stroke-width="0.314489" points="193.425,-88.9555 182.934,-90.434 192.057,-95.8206 193.425,-88.9555"/>
</g>
<!-- &#45;16&#45;&gt;410 -->
<g id="edge19" class="edge"><title>&#45;16&#45;&gt;410</title>
<path fill="none" stroke="green" stroke-width="0.982543" d="M366.415,-159.591C370.597,-154.355 376.661,-147.888 383.5,-144.125 462.075,-100.896 570.124,-90.821 622.905,-88.535"/>
<polygon fill="green" stroke="green" stroke-width="0.982543" points="623.134,-92.0291 632.999,-88.1652 622.877,-85.0338 623.134,-92.0291"/>
</g>
<!-- &#45;17 -->
<g id="node17" class="node"><title>&#45;17</title>
<polygon fill="lightgray" stroke="black" points="669,-177.874 640,-177.874 640,-159.874 669,-159.874 669,-177.874"/>
<text text-anchor="middle" x="654.5" y="-166.674" font-family="Times,serif" font-size="9.00">&#45;17</text>
</g>
<!-- &#45;17&#45;&gt;1 -->
<g id="edge9" class="edge"><title>&#45;17&#45;&gt;1</title>
<path fill="none" stroke="red" stroke-width="0.46046" d="M661.31,-159.426C665.749,-154.39 671.925,-148.203 678.5,-144.125 723.737,-116.067 784.744,-99.9474 818.14,-92.6624"/>
<polygon fill="red" stroke="red" stroke-width="0.46046" points="818.889,-96.0816 827.958,-90.6037 817.453,-89.2306 818.889,-96.0816"/>
</g>
<!-- &#45;17&#45;&gt;3 -->
<g id="edge14" class="edge"><title>&#45;17&#45;&gt;3</title>
<path fill="none" stroke="green" stroke-width="0.312323" d="M648.749,-159.833C644.396,-154.418 637.913,-147.646 630.5,-144.125 494.838,-79.6874 443.364,-128.026 294.5,-108.125 259.145,-103.398 218.424,-96.6221 193.07,-92.2438"/>
<polygon fill="green" stroke="green" stroke-width="0.312323" points="193.658,-88.7935 183.206,-90.5271 192.458,-95.6898 193.658,-88.7935"/>
</g>
<!-- &#45;17&#45;&gt;410 -->
<g id="edge49" class="edge"><title>&#45;17&#45;&gt;410</title>
<path fill="none" stroke="green" stroke-width="0.10383" d="M654.5,-159.617C654.5,-149.985 654.5,-133.495 654.5,-118.755"/>
<polygon fill="green" stroke="green" stroke-width="0.10383" points="658,-118.455 654.5,-108.455 651,-118.455 658,-118.455"/>
</g>
<!-- &#45;18 -->
<g id="node18" class="node"><title>&#45;18</title>
<polygon fill="lightgray" stroke="black" points="943,-177.874 914,-177.874 914,-159.874 943,-159.874 943,-177.874"/>
<text text-anchor="middle" x="928.5" y="-166.674" font-family="Times,serif" font-size="9.00">&#45;18</text>
</g>
<!-- &#45;18&#45;&gt;1 -->
<g id="edge7" class="edge"><title>&#45;18&#45;&gt;1</title>
<path fill="none" stroke="red" stroke-width="0.110504" d="M920.975,-159.815C916.55,-155.15 910.8,-149.213 905.5,-144.125 890.927,-130.135 873.787,-114.917 861.067,-103.847"/>
<polygon fill="red" stroke="red" stroke-width="0.110504" points="863.269,-101.125 853.417,-97.2266 858.688,-106.418 863.269,-101.125"/>
</g>
<!-- &#45;18&#45;&gt;2 -->
<g id="edge23" class="edge"><title>&#45;18&#45;&gt;2</title>
<path fill="none" stroke="red" stroke-width="0.432926" d="M926.958,-159.672C923.037,-140.852 911.059,-94.0118 884.5,-65.6985 864.094,-43.9447 832.089,-30.1753 810.246,-22.7478"/>
<polygon fill="red" stroke="red" stroke-width="0.432926" points="811.31,-19.4136 800.719,-19.6895 809.171,-26.0786 811.31,-19.4136"/>
</g>
<!-- &#45;18&#45;&gt;410 -->
<g id="edge11" class="edge"><title>&#45;18&#45;&gt;410</title>
<path fill="none" stroke="green" stroke-width="0.501071" d="M922.565,-159.627C918.375,-154.405 912.309,-147.941 905.5,-144.125 833.825,-103.951 735.516,-92.4872 685.887,-89.2167"/>
<polygon fill="green" stroke="green" stroke-width="0.501071" points="685.967,-85.7154 675.778,-88.621 685.555,-92.7033 685.967,-85.7154"/>
</g>
<!-- &#45;19 -->
<g id="node19" class="node"><title>&#45;19</title>
<polygon fill="lightgray" stroke="black" points="205,-177.874 176,-177.874 176,-159.874 205,-159.874 205,-177.874"/>
<text text-anchor="middle" x="190.5" y="-166.674" font-family="Times,serif" font-size="9.00">&#45;19</text>
</g>
<!-- &#45;19&#45;&gt;0 -->
<g id="edge36" class="edge"><title>&#45;19&#45;&gt;0</title>
<path fill="none" stroke="red" stroke-width="0.145561" d="M197.562,-159.799C202.097,-154.902 208.284,-148.732 214.5,-144.125 240.524,-124.836 273.989,-107.965 295.829,-97.8618"/>
<polygon fill="red" stroke="red" stroke-width="0.145561" points="297.316,-101.03 304.977,-93.7116 294.424,-94.6558 297.316,-101.03"/>
</g>
<!-- &#45;19&#45;&gt;3 -->
<g id="edge4" class="edge"><title>&#45;19&#45;&gt;3</title>
<path fill="none" stroke="red" stroke-width="0.440224" d="M188.228,-159.617C185.13,-148.357 179.455,-127.728 174.983,-111.477"/>
<polygon fill="red" stroke="red" stroke-width="0.440224" points="178.286,-110.286 172.258,-101.572 171.537,-112.143 178.286,-110.286"/>
</g>
<!-- &#45;20 -->
<g id="node20" class="node"><title>&#45;20</title>
<polygon fill="lightgray" stroke="black" points="579,-177.874 550,-177.874 550,-159.874 579,-159.874 579,-177.874"/>
<text text-anchor="middle" x="564.5" y="-166.674" font-family="Times,serif" font-size="9.00">&#45;20</text>
</g>
<!-- &#45;20&#45;&gt;410 -->
<g id="edge44" class="edge"><title>&#45;20&#45;&gt;410</title>
<path fill="none" stroke="green" stroke-width="0.274819" d="M572.355,-159.805C576.973,-155.137 582.973,-149.2 588.5,-144.125 602.141,-131.599 617.917,-118.127 630.624,-107.513"/>
<polygon fill="green" stroke="green" stroke-width="0.274819" points="633.021,-110.071 638.477,-100.989 628.548,-104.687 633.021,-110.071"/>
</g>
<!-- &#45;21 -->
<g id="node21" class="node"><title>&#45;21</title>
<polygon fill="lightgray" stroke="black" points="896,-177.874 867,-177.874 867,-159.874 896,-159.874 896,-177.874"/>
<text text-anchor="middle" x="881.5" y="-166.674" font-family="Times,serif" font-size="9.00">&#45;21</text>
</g>
<!-- &#45;21&#45;&gt;1 -->
<g id="edge8" class="edge"><title>&#45;21&#45;&gt;1</title>
<path fill="none" stroke="red" stroke-width="0.11766" d="M877.473,-159.617C871.779,-147.943 861.172,-126.196 853.127,-109.7"/>
<polygon fill="red" stroke="red" stroke-width="0.11766" points="856.272,-108.164 848.742,-100.71 849.98,-111.233 856.272,-108.164"/>
</g>
<!-- &#45;22 -->
<g id="node22" class="node"><title>&#45;22</title>
<polygon fill="lightgray" stroke="black" points="1076,-177.874 1047,-177.874 1047,-159.874 1076,-159.874 1076,-177.874"/>
<text text-anchor="middle" x="1061.5" y="-166.674" font-family="Times,serif" font-size="9.00">&#45;22</text>
</g>
<!-- &#45;22&#45;&gt;1 -->
<g id="edge20" class="edge"><title>&#45;22&#45;&gt;1</title>
<path fill="none" stroke="red" stroke-width="0.624539" d="M1055.49,-159.758C1051.27,-154.592 1045.19,-148.141 1038.5,-144.125 982.847,-110.738 906.383,-96.3409 867.459,-90.8579"/>
<polygon fill="red" stroke="red" stroke-width="0.624539" points="867.678,-87.3563 857.304,-89.5121 866.758,-94.2956 867.678,-87.3563"/>
</g>
<!-- &#45;22&#45;&gt;2 -->
<g id="edge37" class="edge"><title>&#45;22&#45;&gt;2</title>
<path fill="none" stroke="red" stroke-width="0.388161" d="M1054.77,-159.62C1038.55,-140.272 995.189,-91.6705 948.5,-65.6985 903.448,-40.6368 844.187,-26.5308 811.266,-20.1228"/>
<polygon fill="red" stroke="red" stroke-width="0.388161" points="811.641,-16.6326 801.169,-18.24 810.358,-23.5139 811.641,-16.6326"/>
</g>
<!-- &#45;23 -->
<g id="node23" class="node"><title>&#45;23</title>
<polygon fill="lightgray" stroke="black" points="422,-177.874 393,-177.874 393,-159.874 422,-159.874 422,-177.874"/>
<text text-anchor="middle" x="407.5" y="-166.674" font-family="Times,serif" font-size="9.00">&#45;23</text>
</g>
<!-- &#45;23&#45;&gt;0 -->
<g id="edge2" class="edge"><title>&#45;23&#45;&gt;0</title>
<path fill="none" stroke="green" stroke-width="0.425719" d="M399.631,-159.821C395.007,-155.158 389.007,-149.221 383.5,-144.125 368.408,-130.161 350.728,-114.941 337.62,-103.864"/>
<polygon fill="green" stroke="green" stroke-width="0.425719" points="339.646,-100.995 329.74,-97.2379 335.141,-106.353 339.646,-100.995"/>
</g>
<!-- &#45;23&#45;&gt;410 -->
<g id="edge38" class="edge"><title>&#45;23&#45;&gt;410</title>
<path fill="none" stroke="green" stroke-width="0.337754" d="M413.799,-159.693C418.217,-154.499 424.556,-148.041 431.5,-144.125 493.798,-108.988 578.104,-95.5005 623.112,-90.5687"/>
<polygon fill="green" stroke="green" stroke-width="0.337754" points="623.556,-94.0416 633.147,-89.5408 622.843,-87.078 623.556,-94.0416"/>
</g>
<!-- &#45;24 -->
<g id="node24" class="node"><title>&#45;24</title>
<polygon fill="lightgray" stroke="black" points="846,-247.622 817,-247.622 817,-229.622 846,-229.622 846,-247.622"/>
<text text-anchor="middle" x="831.5" y="-236.422" font-family="Times,serif" font-size="9.00">&#45;24</text>
</g>
<!-- 1&#45;&gt;1 -->
<g id="edge24" class="edge"><title>1&#45;&gt;1</title>
<path fill="none" stroke="red" stroke-width="0.627874" d="M853.267,-97.6398C863.789,-103.566 875.349,-99.9898 875.349,-86.9117 875.349,-77.9205 869.885,-73.4205 863.051,-73.4117"/>
<polygon fill="red" stroke="red" stroke-width="0.627874" points="861.934,-70.0903 853.267,-76.1835 863.842,-76.8252 861.934,-70.0903"/>
</g>
<!-- 3&#45;&gt;3 -->
<g id="edge12" class="edge"><title>3&#45;&gt;3</title>
<path fill="none" stroke="red" stroke-width="0.38916" d="M179.267,-97.6398C189.789,-103.566 201.349,-99.9898 201.349,-86.9117 201.349,-77.9205 195.885,-73.4205 189.051,-73.4117"/>
<polygon fill="red" stroke="red" stroke-width="0.38916" points="187.934,-70.0903 179.267,-76.1835 189.842,-76.8252 187.934,-70.0903"/>
</g>
<!-- 3009&#45;&gt;410 -->
<g id="edge28" class="edge"><title>3009&#45;&gt;410</title>
<path fill="none" stroke="green" stroke-width="0.239935" d="M527.033,-153.009C531.376,-149.934 536.022,-146.815 540.5,-144.125 568.472,-127.321 602.167,-111.174 625.639,-100.532"/>
<polygon fill="green" stroke="green" stroke-width="0.239935" points="627.334,-103.607 635.027,-96.3219 624.47,-97.2203 627.334,-103.607"/>
</g>
<!-- 410&#45;&gt;2 -->
<g id="edge6" class="edge"><title>410&#45;&gt;2</title>
<path fill="none" stroke="red" stroke-width="0.26936" d="M672.854,-76.1698C696.849,-63.4337 738.836,-41.1481 764.506,-27.5229"/>
<polygon fill="red" stroke="red" stroke-width="0.26936" points="766.283,-30.5427 773.475,-22.7629 763.001,-24.3597 766.283,-30.5427"/>
</g>
<!-- 410&#45;&gt;410 -->
<g id="edge27" class="edge"><title>410&#45;&gt;410</title>
<path fill="none" stroke="red" stroke-width="0.140815" d="M671.837,-99.3438C682.984,-102.587 693.713,-98.4429 693.713,-86.9117 693.713,-78.984 688.642,-74.5478 681.85,-73.6033"/>
<polygon fill="red" stroke="red" stroke-width="0.140815" points="681.493,-70.1211 671.837,-74.4796 682.104,-77.0944 681.493,-70.1211"/>
</g>
</g>
</svg>
