<?xml version="1.0" encoding="UTF-8" standalone="no"?>
<!DOCTYPE svg PUBLIC "-//W3C//DTD SVG 1.1//EN"
 "http://www.w3.org/Graphics/SVG/1.1/DTD/svg11.dtd">
<!-- Generated by graphviz version 2.38.0 (20140413.2041)
 -->
<!-- Title: %3 Pages: 1 -->
<svg width="1140pt" height="116pt"
 viewBox="0.00 0.00 1139.71 116.12" xmlns="http://www.w3.org/2000/svg" xmlns:xlink="http://www.w3.org/1999/xlink">
<g id="graph0" class="graph" transform="scale(1 1) rotate(0) translate(4 112.125)">
<title>%3</title>
<polygon fill="white" stroke="none" points="-4,4 -4,-112.125 1135.71,-112.125 1135.71,4 -4,4"/>
<!-- &#45;1 -->
<g id="node1" class="node"><title>&#45;1</title>
<polygon fill="lightgray" stroke="black" points="160.5,-95.9117 136.5,-95.9117 136.5,-77.9117 160.5,-77.9117 160.5,-95.9117"/>
<text text-anchor="middle" x="148.5" y="-84.7117" font-family="Times,serif" font-size="9.00">&#45;1</text>
</g>
<!-- 0 -->
<g id="node25" class="node"><title>0</title>
<ellipse fill="lightblue" stroke="black" cx="467.5" cy="-14.8492" rx="14.7" ry="14.7"/>
<text text-anchor="middle" x="467.5" y="-12.6492" font-family="Times,serif" font-size="9.00">0</text>
</g>
<!-- &#45;1&#45;&gt;0 -->
<g id="edge14" class="edge"><title>&#45;1&#45;&gt;0</title>
<path fill="none" stroke="green" stroke-width="0.66254" d="M155.021,-77.5804C158.792,-73.3485 163.894,-68.518 169.5,-65.6985 181.76,-59.5319 373.171,-30.127 442.594,-19.6046"/>
<polygon fill="green" stroke="green" stroke-width="0.66254" points="443.279,-23.0409 452.643,-18.0844 442.232,-16.1197 443.279,-23.0409"/>
</g>
<!-- 2 -->
<g id="node27" class="node"><title>2</title>
<ellipse fill="lightblue" stroke="black" cx="170.5" cy="-14.8492" rx="14.7" ry="14.7"/>
<text text-anchor="middle" x="170.5" y="-12.6492" font-family="Times,serif" font-size="9.00">2</text>
</g>
<!-- &#45;1&#45;&gt;2 -->
<g id="edge29" class="edge"><title>&#45;1&#45;&gt;2</title>
<path fill="none" stroke="green" stroke-width="0.29799" d="M151.024,-77.8746C153.992,-68.4226 159.049,-52.3178 163.266,-38.8876"/>
<polygon fill="green" stroke="green" stroke-width="0.29799" points="166.622,-39.8825 166.279,-29.2932 159.943,-37.7853 166.622,-39.8825"/>
</g>
<!-- &#45;2 -->
<g id="node2" class="node"><title>&#45;2</title>
<polygon fill="lightgray" stroke="black" points="618.5,-95.9117 594.5,-95.9117 594.5,-77.9117 618.5,-77.9117 618.5,-95.9117"/>
<text text-anchor="middle" x="606.5" y="-84.7117" font-family="Times,serif" font-size="9.00">&#45;2</text>
</g>
<!-- &#45;2&#45;&gt;0 -->
<g id="edge4" class="edge"><title>&#45;2&#45;&gt;0</title>
<path fill="none" stroke="green" stroke-width="0.41528" d="M599.309,-77.6893C595.5,-73.6919 590.569,-69.0416 585.5,-65.6985 555.447,-45.8793 516.22,-31.193 491.437,-23.0727"/>
<polygon fill="green" stroke="green" stroke-width="0.41528" points="492.36,-19.6933 481.769,-19.9987 490.239,-26.3643 492.36,-19.6933"/>
</g>
<!-- 1 -->
<g id="node26" class="node"><title>1</title>
<ellipse fill="lightblue" stroke="black" cx="330.5" cy="-14.8492" rx="14.7" ry="14.7"/>
<text text-anchor="middle" x="330.5" y="-12.6492" font-family="Times,serif" font-size="9.00">1</text>
</g>
<!-- &#45;2&#45;&gt;1 -->
<g id="edge15" class="edge"><title>&#45;2&#45;&gt;1</title>
<path fill="none" stroke="red" stroke-width="0.245459" d="M599.948,-77.6412C596.168,-73.4272 591.067,-68.5943 585.5,-65.6985 545.357,-44.8159 411.52,-26.0483 355.497,-18.9062"/>
<polygon fill="red" stroke="red" stroke-width="0.245459" points="355.74,-15.4092 345.381,-17.6356 354.867,-22.3546 355.74,-15.4092"/>
</g>
<!-- 3 -->
<g id="node28" class="node"><title>3</title>
<ellipse fill="lightblue" stroke="black" cx="648.5" cy="-14.8492" rx="14.7" ry="14.7"/>
<text text-anchor="middle" x="648.5" y="-12.6492" font-family="Times,serif" font-size="9.00">3</text>
</g>
<!-- &#45;2&#45;&gt;3 -->
<g id="edge40" class="edge"><title>&#45;2&#45;&gt;3</title>
<path fill="none" stroke="green" stroke-width="0.252875" d="M611.318,-77.8746C617.27,-67.9452 627.624,-50.6741 635.896,-36.8744"/>
<polygon fill="green" stroke="green" stroke-width="0.252875" points="639.071,-38.3847 641.211,-28.0082 633.068,-34.7856 639.071,-38.3847"/>
</g>
<!-- &#45;3 -->
<g id="node3" class="node"><title>&#45;3</title>
<polygon fill="lightgray" stroke="black" points="250.5,-95.9117 226.5,-95.9117 226.5,-77.9117 250.5,-77.9117 250.5,-95.9117"/>
<text text-anchor="middle" x="238.5" y="-84.7117" font-family="Times,serif" font-size="9.00">&#45;3</text>
</g>
<!-- &#45;3&#45;&gt;1 -->
<g id="edge32" class="edge"><title>&#45;3&#45;&gt;1</title>
<path fill="none" stroke="green" stroke-width="0.102634" d="M246.408,-77.7373C250.233,-73.9316 254.97,-69.4314 259.5,-65.6985 275.614,-52.4203 295.097,-38.9045 309.574,-29.3025"/>
<polygon fill="green" stroke="green" stroke-width="0.102634" points="311.833,-32.0072 318.279,-23.5995 307.997,-26.1518 311.833,-32.0072"/>
</g>
<!-- &#45;4 -->
<g id="node4" class="node"><title>&#45;4</title>
<polygon fill="lightgray" stroke="black" points="434.5,-95.9117 410.5,-95.9117 410.5,-77.9117 434.5,-77.9117 434.5,-95.9117"/>
<text text-anchor="middle" x="422.5" y="-84.7117" font-family="Times,serif" font-size="9.00">&#45;4</text>
</g>
<!-- &#45;4&#45;&gt;0 -->
<g id="edge33" class="edge"><title>&#45;4&#45;&gt;0</title>
<path fill="none" stroke="green" stroke-width="0.518159" d="M427.662,-77.8746C434.139,-67.7908 445.479,-50.1351 454.408,-36.233"/>
<polygon fill="green" stroke="green" stroke-width="0.518159" points="457.393,-38.0622 459.852,-27.7567 451.503,-34.2792 457.393,-38.0622"/>
</g>
<!-- &#45;4&#45;&gt;1 -->
<g id="edge44" class="edge"><title>&#45;4&#45;&gt;1</title>
<path fill="none" stroke="green" stroke-width="0.325391" d="M414.152,-77.7864C410.13,-73.9915 405.175,-69.4862 400.5,-65.6985 384.525,-52.7547 365.464,-39.3007 351.268,-29.6369"/>
<polygon fill="green" stroke="green" stroke-width="0.325391" points="352.973,-26.5647 342.724,-23.8772 349.06,-32.3691 352.973,-26.5647"/>
</g>
<!-- &#45;4&#45;&gt;2 -->
<g id="edge10" class="edge"><title>&#45;4&#45;&gt;2</title>
<path fill="none" stroke="green" stroke-width="0.154278" d="M415.539,-77.6925C411.55,-73.4935 406.21,-68.6586 400.5,-65.6985 331.949,-30.1613 239.267,-19.9263 195.44,-17.0031"/>
<polygon fill="green" stroke="green" stroke-width="0.154278" points="195.584,-13.5056 185.394,-16.4064 195.169,-20.4933 195.584,-13.5056"/>
</g>
<!-- &#45;4&#45;&gt;3 -->
<g id="edge17" class="edge"><title>&#45;4&#45;&gt;3</title>
<path fill="none" stroke="red" stroke-width="0.543741" d="M429.492,-77.752C433.491,-73.5704 438.829,-68.7332 444.5,-65.6985 503.853,-33.9352 583.711,-22.0588 623.619,-17.9057"/>
<polygon fill="red" stroke="red" stroke-width="0.543741" points="624.147,-21.3712 633.766,-16.9291 623.477,-14.4034 624.147,-21.3712"/>
</g>
<!-- &#45;5 -->
<g id="node5" class="node"><title>&#45;5</title>
<polygon fill="lightgray" stroke="black" points="660.5,-95.9117 636.5,-95.9117 636.5,-77.9117 660.5,-77.9117 660.5,-95.9117"/>
<text text-anchor="middle" x="648.5" y="-84.7117" font-family="Times,serif" font-size="9.00">&#45;5</text>
</g>
<!-- &#45;5&#45;&gt;0 -->
<g id="edge24" class="edge"><title>&#45;5&#45;&gt;0</title>
<path fill="none" stroke="red" stroke-width="0.189288" d="M641.816,-77.8796C637.996,-73.7354 632.901,-68.8931 627.5,-65.6985 583.628,-39.7471 524.869,-25.9691 492.147,-19.8568"/>
<polygon fill="red" stroke="red" stroke-width="0.189288" points="492.565,-16.3764 482.107,-18.0713 491.339,-23.2682 492.565,-16.3764"/>
</g>
<!-- &#45;5&#45;&gt;3 -->
<g id="edge35" class="edge"><title>&#45;5&#45;&gt;3</title>
<path fill="none" stroke="green" stroke-width="0.572935" d="M648.5,-77.8746C648.5,-68.7202 648.5,-53.3256 648.5,-40.1641"/>
<polygon fill="green" stroke="green" stroke-width="0.572935" points="652,-39.8196 648.5,-29.8197 645,-39.8197 652,-39.8196"/>
</g>
<!-- &#45;6 -->
<g id="node6" class="node"><title>&#45;6</title>
<polygon fill="lightgray" stroke="black" points="750.5,-95.9117 726.5,-95.9117 726.5,-77.9117 750.5,-77.9117 750.5,-95.9117"/>
<text text-anchor="middle" x="738.5" y="-84.7117" font-family="Times,serif" font-size="9.00">&#45;6</text>
</g>
<!-- &#45;6&#45;&gt;3 -->
<g id="edge8" class="edge"><title>&#45;6&#45;&gt;3</title>
<path fill="none" stroke="green" stroke-width="0.286951" d="M730.57,-77.7646C726.739,-73.965 722.005,-69.4619 717.5,-65.6985 701.87,-52.6409 683.072,-39.1957 669.047,-29.5642"/>
<polygon fill="green" stroke="green" stroke-width="0.286951" points="670.839,-26.5508 660.6,-23.828 666.907,-32.3416 670.839,-26.5508"/>
</g>
<!-- &#45;7 -->
<g id="node7" class="node"><title>&#45;7</title>
<polygon fill="lightgray" stroke="black" points="934.5,-95.9117 910.5,-95.9117 910.5,-77.9117 934.5,-77.9117 934.5,-95.9117"/>
<text text-anchor="middle" x="922.5" y="-84.7117" font-family="Times,serif" font-size="9.00">&#45;7</text>
</g>
<!-- &#45;8 -->
<g id="node8" class="node"><title>&#45;8</title>
<polygon fill="lightgray" stroke="black" points="118.5,-95.9117 94.5,-95.9117 94.5,-77.9117 118.5,-77.9117 118.5,-95.9117"/>
<text text-anchor="middle" x="106.5" y="-84.7117" font-family="Times,serif" font-size="9.00">&#45;8</text>
</g>
<!-- &#45;8&#45;&gt;1 -->
<g id="edge12" class="edge"><title>&#45;8&#45;&gt;1</title>
<path fill="none" stroke="green" stroke-width="0.234779" d="M113.108,-77.7465C116.905,-73.5634 122.004,-68.7263 127.5,-65.6985 186.189,-33.3652 265.82,-21.741 305.654,-17.7729"/>
<polygon fill="green" stroke="green" stroke-width="0.234779" points="306.145,-21.2427 315.784,-16.8458 305.506,-14.2719 306.145,-21.2427"/>
</g>
<!-- &#45;8&#45;&gt;2 -->
<g id="edge20" class="edge"><title>&#45;8&#45;&gt;2</title>
<path fill="none" stroke="green" stroke-width="0.435038" d="M113.842,-77.8746C123.503,-67.2982 140.773,-48.3922 153.715,-34.2241"/>
<polygon fill="green" stroke="green" stroke-width="0.435038" points="156.585,-36.2722 160.745,-26.5283 151.416,-31.5511 156.585,-36.2722"/>
</g>
<!-- &#45;9 -->
<g id="node9" class="node"><title>&#45;9</title>
<polygon fill="lightgray" stroke="black" points="976.5,-95.9117 952.5,-95.9117 952.5,-77.9117 976.5,-77.9117 976.5,-95.9117"/>
<text text-anchor="middle" x="964.5" y="-84.7117" font-family="Times,serif" font-size="9.00">&#45;9</text>
</g>
<!-- &#45;10 -->
<g id="node10" class="node"><title>&#45;10</title>
<polygon fill="lightgray" stroke="black" points="345,-95.9117 316,-95.9117 316,-77.9117 345,-77.9117 345,-95.9117"/>
<text text-anchor="middle" x="330.5" y="-84.7117" font-family="Times,serif" font-size="9.00">&#45;10</text>
</g>
<!-- &#45;10&#45;&gt;0 -->
<g id="edge22" class="edge"><title>&#45;10&#45;&gt;0</title>
<path fill="none" stroke="red" stroke-width="0.504072" d="M338.52,-77.758C342.728,-73.778 348.118,-69.1226 353.5,-65.6985 382.712,-47.114 420.033,-32.2601 443.857,-23.7504"/>
<polygon fill="red" stroke="red" stroke-width="0.504072" points="445.186,-26.9938 453.478,-20.3979 442.883,-20.3837 445.186,-26.9938"/>
</g>
<!-- &#45;10&#45;&gt;2 -->
<g id="edge3" class="edge"><title>&#45;10&#45;&gt;2</title>
<path fill="none" stroke="red" stroke-width="0.236244" d="M322.164,-77.636C317.781,-73.625 312.155,-68.9786 306.5,-65.6985 269.852,-44.4399 222.538,-29.5721 194.469,-21.8907"/>
<polygon fill="red" stroke="red" stroke-width="0.236244" points="195.28,-18.4847 184.716,-19.3003 193.483,-25.2501 195.28,-18.4847"/>
</g>
<!-- &#45;11 -->
<g id="node11" class="node"><title>&#45;11</title>
<polygon fill="lightgray" stroke="black" points="798,-95.9117 769,-95.9117 769,-77.9117 798,-77.9117 798,-95.9117"/>
<text text-anchor="middle" x="783.5" y="-84.7117" font-family="Times,serif" font-size="9.00">&#45;11</text>
</g>
<!-- &#45;11&#45;&gt;3 -->
<g id="edge30" class="edge"><title>&#45;11&#45;&gt;3</title>
<path fill="none" stroke="green" stroke-width="0.396491" d="M775.063,-77.8037C770.654,-73.8353 765.035,-69.1766 759.5,-65.6985 731.115,-47.8616 695.267,-32.983 672.116,-24.2492"/>
<polygon fill="green" stroke="green" stroke-width="0.396491" points="673.038,-20.859 662.445,-20.6803 670.615,-27.4261 673.038,-20.859"/>
</g>
<!-- &#45;12 -->
<g id="node12" class="node"><title>&#45;12</title>
<polygon fill="lightgray" stroke="black" points="845,-95.9117 816,-95.9117 816,-77.9117 845,-77.9117 845,-95.9117"/>
<text text-anchor="middle" x="830.5" y="-84.7117" font-family="Times,serif" font-size="9.00">&#45;12</text>
</g>
<!-- &#45;12&#45;&gt;3 -->
<g id="edge39" class="edge"><title>&#45;12&#45;&gt;3</title>
<path fill="none" stroke="red" stroke-width="0.410814" d="M823.044,-77.9092C818.821,-73.7737 813.245,-68.9303 807.5,-65.6985 763.553,-40.9777 705.744,-26.8113 673.32,-20.2868"/>
<polygon fill="red" stroke="red" stroke-width="0.410814" points="673.836,-16.8219 663.354,-18.363 672.509,-23.695 673.836,-16.8219"/>
</g>
<!-- &#45;13 -->
<g id="node13" class="node"><title>&#45;13</title>
<polygon fill="lightgray" stroke="black" points="298,-95.9117 269,-95.9117 269,-77.9117 298,-77.9117 298,-95.9117"/>
<text text-anchor="middle" x="283.5" y="-84.7117" font-family="Times,serif" font-size="9.00">&#45;13</text>
</g>
<!-- &#45;13&#45;&gt;1 -->
<g id="edge34" class="edge"><title>&#45;13&#45;&gt;1</title>
<path fill="none" stroke="green" stroke-width="0.164759" d="M288.891,-77.8746C295.696,-67.7318 307.639,-49.9283 316.989,-35.9895"/>
<polygon fill="green" stroke="green" stroke-width="0.164759" points="320.015,-37.7615 322.68,-27.5071 314.202,-33.8618 320.015,-37.7615"/>
</g>
<!-- &#45;14 -->
<g id="node14" class="node"><title>&#45;14</title>
<polygon fill="lightgray" stroke="black" points="892,-95.9117 863,-95.9117 863,-77.9117 892,-77.9117 892,-95.9117"/>
<text text-anchor="middle" x="877.5" y="-84.7117" font-family="Times,serif" font-size="9.00">&#45;14</text>
</g>
<!-- &#45;14&#45;&gt;3 -->
<g id="edge26" class="edge"><title>&#45;14&#45;&gt;3</title>
<path fill="none" stroke="green" stroke-width="0.871289" d="M870.127,-77.7557C865.928,-73.5752 860.349,-68.7378 854.5,-65.6985 794.083,-34.3056 713.384,-22.2511 673.285,-17.9803"/>
<polygon fill="green" stroke="green" stroke-width="0.871289" points="673.623,-14.4967 663.327,-16.9929 672.933,-21.4626 673.623,-14.4967"/>
</g>
<!-- &#45;15 -->
<g id="node15" class="node"><title>&#45;15</title>
<polygon fill="lightgray" stroke="black" points="29,-95.9117 0,-95.9117 0,-77.9117 29,-77.9117 29,-95.9117"/>
<text text-anchor="middle" x="14.5" y="-84.7117" font-family="Times,serif" font-size="9.00">&#45;15</text>
</g>
<!-- &#45;15&#45;&gt;1 -->
<g id="edge16" class="edge"><title>&#45;15&#45;&gt;1</title>
<path fill="none" stroke="red" stroke-width="0.469952" d="M21.7927,-77.5935C25.9673,-73.3656 31.5495,-68.5345 37.5,-65.6985 61.7124,-54.1587 239.88,-28.4798 305.943,-19.2421"/>
<polygon fill="red" stroke="red" stroke-width="0.469952" points="306.467,-22.7031 315.889,-17.8574 305.501,-15.7699 306.467,-22.7031"/>
</g>
<!-- &#45;15&#45;&gt;2 -->
<g id="edge9" class="edge"><title>&#45;15&#45;&gt;2</title>
<path fill="none" stroke="red" stroke-width="0.342873" d="M22.4436,-77.6348C26.6322,-73.6234 32.0279,-68.9771 37.5,-65.6985 72.7935,-44.5521 118.579,-29.7949 146.187,-22.0812"/>
<polygon fill="red" stroke="red" stroke-width="0.342873" points="147.416,-25.3747 156.154,-19.3833 145.586,-18.6179 147.416,-25.3747"/>
</g>
<!-- &#45;16 -->
<g id="node16" class="node"><title>&#45;16</title>
<polygon fill="lightgray" stroke="black" points="529,-95.9117 500,-95.9117 500,-77.9117 529,-77.9117 529,-95.9117"/>
<text text-anchor="middle" x="514.5" y="-84.7117" font-family="Times,serif" font-size="9.00">&#45;16</text>
</g>
<!-- &#45;16&#45;&gt;0 -->
<g id="edge19" class="edge"><title>&#45;16&#45;&gt;0</title>
<path fill="none" stroke="red" stroke-width="0.423867" d="M509.109,-77.8746C502.304,-67.7318 490.361,-49.9283 481.011,-35.9895"/>
<polygon fill="red" stroke="red" stroke-width="0.423867" points="483.798,-33.8618 475.32,-27.5071 477.985,-37.7615 483.798,-33.8618"/>
</g>
<!-- &#45;16&#45;&gt;1 -->
<g id="edge31" class="edge"><title>&#45;16&#45;&gt;1</title>
<path fill="none" stroke="red" stroke-width="0.259369" d="M507.048,-77.901C502.827,-73.7631 497.251,-68.9201 491.5,-65.6985 446.776,-40.6449 387.863,-26.5359 355.128,-20.1252"/>
<polygon fill="red" stroke="red" stroke-width="0.259369" points="355.562,-16.6457 345.088,-18.2415 354.271,-23.5256 355.562,-16.6457"/>
</g>
<!-- &#45;16&#45;&gt;3 -->
<g id="edge7" class="edge"><title>&#45;16&#45;&gt;3</title>
<path fill="none" stroke="red" stroke-width="0.835692" d="M522.942,-77.8116C527.352,-73.8453 532.971,-69.186 538.5,-65.6985 566.643,-47.9475 602.165,-33.0482 625.102,-24.2864"/>
<polygon fill="red" stroke="red" stroke-width="0.835692" points="626.543,-27.4846 634.684,-20.7044 624.092,-20.9278 626.543,-27.4846"/>
</g>
<!-- &#45;17 -->
<g id="node17" class="node"><title>&#45;17</title>
<polygon fill="lightgray" stroke="black" points="76,-95.9117 47,-95.9117 47,-77.9117 76,-77.9117 76,-95.9117"/>
<text text-anchor="middle" x="61.5" y="-84.7117" font-family="Times,serif" font-size="9.00">&#45;17</text>
</g>
<!-- &#45;17&#45;&gt;1 -->
<g id="edge43" class="edge"><title>&#45;17&#45;&gt;1</title>
<path fill="none" stroke="red" stroke-width="0.431352" d="M69.2117,-77.6767C73.5976,-73.473 79.4185,-68.6387 85.5,-65.6985 124.528,-46.8295 251.801,-27.0586 305.857,-19.2799"/>
<polygon fill="red" stroke="red" stroke-width="0.431352" points="306.526,-22.72 315.934,-17.8471 305.541,-15.7897 306.526,-22.72"/>
</g>
<!-- &#45;17&#45;&gt;2 -->
<g id="edge27" class="edge"><title>&#45;17&#45;&gt;2</title>
<path fill="none" stroke="green" stroke-width="0.34089" d="M70.5523,-77.66C74.9278,-73.8374 80.3393,-69.3453 85.5,-65.6985 106.129,-51.1206 131.239,-36.7755 148.798,-27.2444"/>
<polygon fill="green" stroke="green" stroke-width="0.34089" points="150.539,-30.2824 157.699,-22.4737 147.232,-24.1126 150.539,-30.2824"/>
</g>
<!-- &#45;18 -->
<g id="node18" class="node"><title>&#45;18</title>
<polygon fill="lightgray" stroke="black" points="1024,-95.9117 995,-95.9117 995,-77.9117 1024,-77.9117 1024,-95.9117"/>
<text text-anchor="middle" x="1009.5" y="-84.7117" font-family="Times,serif" font-size="9.00">&#45;18</text>
</g>
<!-- &#45;19 -->
<g id="node19" class="node"><title>&#45;19</title>
<polygon fill="lightgray" stroke="black" points="708,-95.9117 679,-95.9117 679,-77.9117 708,-77.9117 708,-95.9117"/>
<text text-anchor="middle" x="693.5" y="-84.7117" font-family="Times,serif" font-size="9.00">&#45;19</text>
</g>
<!-- &#45;19&#45;&gt;0 -->
<g id="edge36" class="edge"><title>&#45;19&#45;&gt;0</title>
<path fill="none" stroke="red" stroke-width="0.163497" d="M685.739,-77.7761C681.339,-73.6016 675.52,-68.7634 669.5,-65.6985 610.213,-35.5116 531.674,-22.958 492.275,-18.2903"/>
<polygon fill="red" stroke="red" stroke-width="0.163497" points="492.574,-14.8021 482.248,-17.1748 491.8,-21.7592 492.574,-14.8021"/>
</g>
<!-- &#45;19&#45;&gt;3 -->
<g id="edge5" class="edge"><title>&#45;19&#45;&gt;3</title>
<path fill="none" stroke="green" stroke-width="0.163938" d="M688.338,-77.8746C681.861,-67.7908 670.521,-50.1351 661.592,-36.233"/>
<polygon fill="green" stroke="green" stroke-width="0.163938" points="664.497,-34.2792 656.148,-27.7567 658.607,-38.0622 664.497,-34.2792"/>
</g>
<!-- &#45;20 -->
<g id="node20" class="node"><title>&#45;20</title>
<polygon fill="lightgray" stroke="black" points="482,-95.9117 453,-95.9117 453,-77.9117 482,-77.9117 482,-95.9117"/>
<text text-anchor="middle" x="467.5" y="-84.7117" font-family="Times,serif" font-size="9.00">&#45;20</text>
</g>
<!-- &#45;20&#45;&gt;0 -->
<g id="edge28" class="edge"><title>&#45;20&#45;&gt;0</title>
<path fill="none" stroke="red" stroke-width="0.226304" d="M467.5,-77.8746C467.5,-68.7202 467.5,-53.3256 467.5,-40.1641"/>
<polygon fill="red" stroke="red" stroke-width="0.226304" points="471,-39.8196 467.5,-29.8197 464,-39.8197 471,-39.8196"/>
</g>
<!-- &#45;20&#45;&gt;1 -->
<g id="edge37" class="edge"><title>&#45;20&#45;&gt;1</title>
<path fill="none" stroke="red" stroke-width="0.469855" d="M459.073,-77.7881C454.667,-73.8158 449.046,-69.1582 443.5,-65.6985 414.34,-47.5095 377.398,-32.5558 353.85,-23.9163"/>
<polygon fill="red" stroke="red" stroke-width="0.469855" points="354.938,-20.5885 344.344,-20.5056 352.574,-27.1772 354.938,-20.5885"/>
</g>
<!-- &#45;20&#45;&gt;2 -->
<g id="edge1" class="edge"><title>&#45;20&#45;&gt;2</title>
<path fill="none" stroke="red" stroke-width="0.608323" d="M459.812,-77.6278C455.433,-73.4098 449.611,-68.5774 443.5,-65.6985 399.381,-44.9128 254.306,-25.8267 195.546,-18.7516"/>
<polygon fill="red" stroke="red" stroke-width="0.608323" points="195.653,-15.2399 185.31,-17.5361 194.827,-22.1911 195.653,-15.2399"/>
</g>
<!-- &#45;20&#45;&gt;3 -->
<g id="edge13" class="edge"><title>&#45;20&#45;&gt;3</title>
<path fill="none" stroke="green" stroke-width="0.220922" d="M475.776,-77.5303C480.144,-73.4923 485.775,-68.8537 491.5,-65.6985 535.155,-41.6397 592.143,-27.2339 624.072,-20.4891"/>
<polygon fill="green" stroke="green" stroke-width="0.220922" points="624.783,-23.9163 633.884,-18.4926 623.387,-17.0569 624.783,-23.9163"/>
</g>
<!-- &#45;21 -->
<g id="node21" class="node"><title>&#45;21</title>
<polygon fill="lightgray" stroke="black" points="208,-95.9117 179,-95.9117 179,-77.9117 208,-77.9117 208,-95.9117"/>
<text text-anchor="middle" x="193.5" y="-84.7117" font-family="Times,serif" font-size="9.00">&#45;21</text>
</g>
<!-- &#45;21&#45;&gt;0 -->
<g id="edge18" class="edge"><title>&#45;21&#45;&gt;0</title>
<path fill="none" stroke="red" stroke-width="0.38081" d="M201.207,-77.6672C205.592,-73.4608 211.413,-68.6268 217.5,-65.6985 257.413,-46.4974 387.74,-26.8483 442.699,-19.1895"/>
<polygon fill="red" stroke="red" stroke-width="0.38081" points="443.208,-22.6526 452.637,-17.8213 442.253,-15.718 443.208,-22.6526"/>
</g>
<!-- &#45;21&#45;&gt;1 -->
<g id="edge11" class="edge"><title>&#45;21&#45;&gt;1</title>
<path fill="none" stroke="green" stroke-width="0.348229" d="M201.927,-77.7881C206.333,-73.8158 211.954,-69.1582 217.5,-65.6985 246.66,-47.5095 283.602,-32.5558 307.15,-23.9163"/>
<polygon fill="green" stroke="green" stroke-width="0.348229" points="308.426,-27.1772 316.656,-20.5056 306.062,-20.5885 308.426,-27.1772"/>
</g>
<!-- &#45;21&#45;&gt;2 -->
<g id="edge41" class="edge"><title>&#45;21&#45;&gt;2</title>
<path fill="none" stroke="red" stroke-width="0.271898" d="M190.862,-77.8746C187.759,-68.4226 182.472,-52.3178 178.063,-38.8876"/>
<polygon fill="red" stroke="red" stroke-width="0.271898" points="181.358,-37.7027 174.913,-29.2932 174.707,-39.886 181.358,-37.7027"/>
</g>
<!-- &#45;22 -->
<g id="node22" class="node"><title>&#45;22</title>
<polygon fill="lightgray" stroke="black" points="1071,-95.9117 1042,-95.9117 1042,-77.9117 1071,-77.9117 1071,-95.9117"/>
<text text-anchor="middle" x="1056.5" y="-84.7117" font-family="Times,serif" font-size="9.00">&#45;22</text>
</g>
<!-- &#45;23 -->
<g id="node23" class="node"><title>&#45;23</title>
<polygon fill="lightgray" stroke="black" points="392,-95.9117 363,-95.9117 363,-77.9117 392,-77.9117 392,-95.9117"/>
<text text-anchor="middle" x="377.5" y="-84.7117" font-family="Times,serif" font-size="9.00">&#45;23</text>
</g>
<!-- &#45;23&#45;&gt;0 -->
<g id="edge2" class="edge"><title>&#45;23&#45;&gt;0</title>
<path fill="none" stroke="red" stroke-width="0.240104" d="M387.211,-77.5319C391.541,-73.8482 396.731,-69.5036 401.5,-65.6985 416.639,-53.6199 434.146,-40.4317 447.324,-30.6558"/>
<polygon fill="red" stroke="red" stroke-width="0.240104" points="449.709,-33.2454 455.672,-24.4886 445.549,-27.615 449.709,-33.2454"/>
</g>
<!-- &#45;23&#45;&gt;1 -->
<g id="edge38" class="edge"><title>&#45;23&#45;&gt;1</title>
<path fill="none" stroke="red" stroke-width="0.40222" d="M372.109,-77.8746C365.304,-67.7318 353.361,-49.9283 344.011,-35.9895"/>
<polygon fill="red" stroke="red" stroke-width="0.40222" points="346.798,-33.8618 338.32,-27.5071 340.985,-37.7615 346.798,-33.8618"/>
</g>
<!-- &#45;24 -->
<g id="node24" class="node"><title>&#45;24</title>
<polygon fill="lightgray" stroke="black" points="576,-95.9117 547,-95.9117 547,-77.9117 576,-77.9117 576,-95.9117"/>
<text text-anchor="middle" x="561.5" y="-84.7117" font-family="Times,serif" font-size="9.00">&#45;24</text>
</g>
<!-- &#45;24&#45;&gt;0 -->
<g id="edge42" class="edge"><title>&#45;24&#45;&gt;0</title>
<path fill="none" stroke="red" stroke-width="0.108874" d="M552.736,-77.8088C548.523,-74.0188 543.347,-69.5112 538.5,-65.6985 522.09,-52.7888 502.631,-39.2424 488.239,-29.5348"/>
<polygon fill="red" stroke="red" stroke-width="0.108874" points="489.854,-26.4042 479.595,-23.7551 485.963,-32.2232 489.854,-26.4042"/>
</g>
<!-- &#45;24&#45;&gt;1 -->
<g id="edge6" class="edge"><title>&#45;24&#45;&gt;1</title>
<path fill="none" stroke="red" stroke-width="0.504367" d="M554.129,-77.7505C549.932,-73.5686 544.353,-68.7314 538.5,-65.6985 477.343,-34.0064 395.609,-22.0695 355.225,-17.8983"/>
<polygon fill="red" stroke="red" stroke-width="0.504367" points="355.497,-14.4084 345.208,-16.9376 354.828,-21.3764 355.497,-14.4084"/>
</g>
<!-- &#45;24&#45;&gt;3 -->
<g id="edge25" class="edge"><title>&#45;24&#45;&gt;3</title>
<path fill="none" stroke="green" stroke-width="0.140597" d="M571.252,-77.5826C575.589,-73.9083 580.774,-69.557 585.5,-65.6985 600.072,-53.8018 616.776,-40.6038 629.322,-30.7779"/>
<polygon fill="green" stroke="green" stroke-width="0.140597" points="631.54,-33.4864 637.265,-24.5716 627.23,-27.9704 631.54,-33.4864"/>
</g>
<!-- 1&#45;&gt;1 -->
<g id="edge23" class="edge"><title>1&#45;&gt;1</title>
<path fill="none" stroke="red" stroke-width="0.27888" d="M341.267,-25.5774C351.789,-31.5034 363.349,-27.9274 363.349,-14.8492 363.349,-5.85803 357.885,-1.35804 351.051,-1.34926"/>
<polygon fill="red" stroke="red" stroke-width="0.27888" points="349.934,1.97218 341.267,-4.12109 351.842,-4.76277 349.934,1.97218"/>
</g>
<!-- 2&#45;&gt;2 -->
<g id="edge21" class="edge"><title>2&#45;&gt;2</title>
<path fill="none" stroke="red" stroke-width="1.10795" d="M181.267,-25.5774C191.789,-31.5034 203.349,-27.9274 203.349,-14.8492 203.349,-5.85803 197.885,-1.35804 191.051,-1.34926"/>
<polygon fill="red" stroke="red" stroke-width="1.10795" points="189.934,1.97218 181.267,-4.12109 191.842,-4.76277 189.934,1.97218"/>
</g>
<!-- 411 -->
<g id="node29" class="node"><title>411</title>
<ellipse fill="white" stroke="black" cx="1110.5" cy="-86.9117" rx="21.4286" ry="21.4286"/>
<text text-anchor="middle" x="1110.5" y="-84.7117" font-family="Times,serif" font-size="9.00">411</text>
</g>
</g>
</svg>
