<?xml version="1.0" encoding="UTF-8" standalone="no"?>
<!DOCTYPE svg PUBLIC "-//W3C//DTD SVG 1.1//EN"
 "http://www.w3.org/Graphics/SVG/1.1/DTD/svg11.dtd">
<!-- Generated by graphviz version 2.38.0 (20140413.2041)
 -->
<!-- Title: %3 Pages: 1 -->
<svg width="1446pt" height="282pt"
 viewBox="0.00 0.00 1445.98 282.49" xmlns="http://www.w3.org/2000/svg" xmlns:xlink="http://www.w3.org/1999/xlink">
<g id="graph0" class="graph" transform="scale(1 1) rotate(0) translate(4 278.492)">
<title>%3</title>
<polygon fill="white" stroke="none" points="-4,4 -4,-278.492 1441.98,-278.492 1441.98,4 -4,4"/>
<!-- &#45;1 -->
<g id="node1" class="node"><title>&#45;1</title>
<polygon fill="lightgray" stroke="black" points="918.629,-274.492 894.629,-274.492 894.629,-256.492 918.629,-256.492 918.629,-274.492"/>
<text text-anchor="middle" x="906.629" y="-263.292" font-family="Times,serif" font-size="9.00">&#45;1</text>
</g>
<!-- 0 -->
<g id="node25" class="node"><title>0</title>
<ellipse fill="lightblue" stroke="black" cx="947.629" cy="-24.7487" rx="14.7" ry="14.7"/>
<text text-anchor="middle" x="947.629" y="-22.5487" font-family="Times,serif" font-size="9.00">0</text>
</g>
<!-- &#45;1&#45;&gt;0 -->
<g id="edge3" class="edge"><title>&#45;1&#45;&gt;0</title>
<path fill="none" stroke="green" stroke-width="0.19408" d="M918.677,-263.586C956.749,-260.448 1073.27,-248.659 1095.63,-220.492 1132.94,-173.503 1129.19,-135.233 1095.63,-85.4975 1068.08,-44.6658 1007.43,-31.7308 972.93,-27.6383"/>
<polygon fill="green" stroke="green" stroke-width="0.19408" points="973.027,-24.1301 962.724,-26.5961 972.316,-31.0939 973.027,-24.1301"/>
</g>
<!-- 2522 -->
<g id="node33" class="node"><title>2522</title>
<ellipse fill="white" stroke="black" cx="699.629" cy="-195.744" rx="25" ry="25"/>
<text text-anchor="middle" x="699.629" y="-193.544" font-family="Times,serif" font-size="9.00">2522</text>
</g>
<!-- &#45;1&#45;&gt;2522 -->
<g id="edge37" class="edge"><title>&#45;1&#45;&gt;2522</title>
<path fill="none" stroke="green" stroke-width="0.156181" d="M894.381,-262.924C865.355,-258.882 790.548,-246.554 733.629,-220.492 731.554,-219.543 729.472,-218.464 727.417,-217.303"/>
<polygon fill="green" stroke="green" stroke-width="0.156181" points="729.01,-214.171 718.677,-211.831 725.295,-220.104 729.01,-214.171"/>
</g>
<!-- &#45;2 -->
<g id="node2" class="node"><title>&#45;2</title>
<polygon fill="lightgray" stroke="black" points="1385.63,-119.246 1361.63,-119.246 1361.63,-101.246 1385.63,-101.246 1385.63,-119.246"/>
<text text-anchor="middle" x="1373.63" y="-108.046" font-family="Times,serif" font-size="9.00">&#45;2</text>
</g>
<!-- 2 -->
<g id="node27" class="node"><title>2</title>
<ellipse fill="lightblue" stroke="black" cx="1219.63" cy="-24.7487" rx="14.7" ry="14.7"/>
<text text-anchor="middle" x="1219.63" y="-22.5487" font-family="Times,serif" font-size="9.00">2</text>
</g>
<!-- &#45;2&#45;&gt;2 -->
<g id="edge32" class="edge"><title>&#45;2&#45;&gt;2</title>
<path fill="none" stroke="green" stroke-width="0.186735" d="M1367.74,-100.959C1363.88,-95.9834 1358.48,-89.8039 1352.63,-85.4975 1318.28,-60.218 1271.54,-42.3341 1243.59,-33.0604"/>
<polygon fill="green" stroke="green" stroke-width="0.186735" points="1244.46,-29.6624 1233.87,-29.9303 1242.31,-36.3258 1244.46,-29.6624"/>
</g>
<!-- &#45;3 -->
<g id="node3" class="node"><title>&#45;3</title>
<polygon fill="lightgray" stroke="black" points="330.629,-204.744 306.629,-204.744 306.629,-186.744 330.629,-186.744 330.629,-204.744"/>
<text text-anchor="middle" x="318.629" y="-193.544" font-family="Times,serif" font-size="9.00">&#45;3</text>
</g>
<!-- &#45;3&#45;&gt;0 -->
<g id="edge53" class="edge"><title>&#45;3&#45;&gt;0</title>
<path fill="none" stroke="green" stroke-width="0.10429" d="M330.981,-188.516C342.314,-183.067 359.706,-175.359 375.629,-170.995 486.015,-140.74 531.406,-192.051 630.629,-134.995 654.908,-121.034 645.864,-100.317 669.629,-85.4975 751.777,-34.2707 871.207,-26.466 922.591,-25.6179"/>
<polygon fill="green" stroke="green" stroke-width="0.10429" points="922.792,-29.1164 932.761,-25.5292 922.731,-22.1167 922.792,-29.1164"/>
</g>
<!-- 1 -->
<g id="node26" class="node"><title>1</title>
<ellipse fill="lightblue" stroke="black" cx="483.629" cy="-24.7487" rx="14.7" ry="14.7"/>
<text text-anchor="middle" x="483.629" y="-22.5487" font-family="Times,serif" font-size="9.00">1</text>
</g>
<!-- &#45;3&#45;&gt;1 -->
<g id="edge35" class="edge"><title>&#45;3&#45;&gt;1</title>
<path fill="none" stroke="green" stroke-width="0.118758" d="M311.532,-186.509C295.695,-167.098 260.681,-117.692 284.629,-85.4975 305.645,-57.2442 410.346,-37.3342 458.867,-29.4742"/>
<polygon fill="green" stroke="green" stroke-width="0.118758" points="459.519,-32.9147 468.852,-27.8992 458.428,-26.0002 459.519,-32.9147"/>
</g>
<!-- 3 -->
<g id="node28" class="node"><title>3</title>
<ellipse fill="lightblue" stroke="black" cx="118.629" cy="-24.7487" rx="14.7" ry="14.7"/>
<text text-anchor="middle" x="118.629" y="-22.5487" font-family="Times,serif" font-size="9.00">3</text>
</g>
<!-- &#45;3&#45;&gt;3 -->
<g id="edge14" class="edge"><title>&#45;3&#45;&gt;3</title>
<path fill="none" stroke="green" stroke-width="0.228234" d="M306.482,-194.364C254.096,-192.447 48.4036,-181.986 9.62871,-134.995 -4.37263,-118.027 -1.58128,-104.426 9.62871,-85.4975 27.7989,-54.8164 67.9229,-38.8499 94.0909,-31.3848"/>
<polygon fill="green" stroke="green" stroke-width="0.228234" points="95.2413,-34.7012 104.018,-28.7672 93.4564,-27.9326 95.2413,-34.7012"/>
</g>
<!-- 1374 -->
<g id="node34" class="node"><title>1374</title>
<ellipse fill="white" stroke="black" cx="318.629" cy="-110.246" rx="25" ry="25"/>
<text text-anchor="middle" x="318.629" y="-108.046" font-family="Times,serif" font-size="9.00">1374</text>
</g>
<!-- &#45;3&#45;&gt;1374 -->
<g id="edge49" class="edge"><title>&#45;3&#45;&gt;1374</title>
<path fill="none" stroke="red" stroke-width="0.303957" d="M318.629,-186.738C318.629,-177.186 318.629,-160.597 318.629,-145.398"/>
<polygon fill="red" stroke="red" stroke-width="0.303957" points="322.129,-145.201 318.629,-135.201 315.129,-145.201 322.129,-145.201"/>
</g>
<!-- 895 -->
<g id="node35" class="node"><title>895</title>
<ellipse fill="white" stroke="black" cx="382.629" cy="-110.246" rx="21.4286" ry="21.4286"/>
<text text-anchor="middle" x="382.629" y="-108.046" font-family="Times,serif" font-size="9.00">895</text>
</g>
<!-- &#45;3&#45;&gt;895 -->
<g id="edge58" class="edge"><title>&#45;3&#45;&gt;895</title>
<path fill="none" stroke="green" stroke-width="0.137499" d="M324.765,-186.738C333.692,-175.092 350.638,-152.983 363.894,-135.689"/>
<polygon fill="green" stroke="green" stroke-width="0.137499" points="366.748,-137.718 370.054,-127.652 361.192,-133.46 366.748,-137.718"/>
</g>
<!-- &#45;4 -->
<g id="node4" class="node"><title>&#45;4</title>
<polygon fill="lightgray" stroke="black" points="975.629,-204.744 951.629,-204.744 951.629,-186.744 975.629,-186.744 975.629,-204.744"/>
<text text-anchor="middle" x="963.629" y="-193.544" font-family="Times,serif" font-size="9.00">&#45;4</text>
</g>
<!-- &#45;4&#45;&gt;2 -->
<g id="edge11" class="edge"><title>&#45;4&#45;&gt;2</title>
<path fill="none" stroke="green" stroke-width="0.12057" d="M975.233,-186.733C983.387,-181.476 994.741,-174.878 1005.63,-170.995 1094.41,-139.331 1152.27,-205.672 1214.63,-134.995 1235.2,-111.68 1231.5,-73.4882 1226.16,-48.9942"/>
<polygon fill="green" stroke="green" stroke-width="0.12057" points="1229.52,-48.0019 1223.76,-39.1127 1222.72,-49.6566 1229.52,-48.0019"/>
</g>
<!-- 207 -->
<g id="node30" class="node"><title>207</title>
<ellipse fill="white" stroke="black" cx="699.629" cy="-110.246" rx="21.4286" ry="21.4286"/>
<text text-anchor="middle" x="699.629" y="-108.046" font-family="Times,serif" font-size="9.00">207</text>
</g>
<!-- &#45;4&#45;&gt;207 -->
<g id="edge12" class="edge"><title>&#45;4&#45;&gt;207</title>
<path fill="none" stroke="green" stroke-width="0.259128" d="M951.242,-189.529C938.656,-184.361 918.519,-176.447 900.629,-170.995 833.805,-150.632 813.363,-158.638 747.629,-134.995 740.81,-132.542 733.694,-129.382 727.094,-126.172"/>
<polygon fill="green" stroke="green" stroke-width="0.259128" points="728.391,-122.906 717.888,-121.51 725.229,-129.151 728.391,-122.906"/>
</g>
<!-- &#45;5 -->
<g id="node5" class="node"><title>&#45;5</title>
<polygon fill="lightgray" stroke="black" points="1086.63,-119.246 1062.63,-119.246 1062.63,-101.246 1086.63,-101.246 1086.63,-119.246"/>
<text text-anchor="middle" x="1074.63" y="-108.046" font-family="Times,serif" font-size="9.00">&#45;5</text>
</g>
<!-- &#45;5&#45;&gt;0 -->
<g id="edge28" class="edge"><title>&#45;5&#45;&gt;0</title>
<path fill="none" stroke="red" stroke-width="0.331957" d="M1066.35,-100.863C1061.42,-96.0902 1054.92,-90.153 1048.63,-85.4975 1022.9,-66.4537 990.709,-48.2798 969.679,-37.0814"/>
<polygon fill="red" stroke="red" stroke-width="0.331957" points="971.077,-33.8626 960.597,-32.31 967.821,-40.0595 971.077,-33.8626"/>
</g>
<!-- &#45;5&#45;&gt;1 -->
<g id="edge21" class="edge"><title>&#45;5&#45;&gt;1</title>
<path fill="none" stroke="green" stroke-width="0.411529" d="M1062.3,-103.136C1050.59,-97.6099 1032.33,-89.7133 1015.63,-85.4975 824.951,-37.3657 586.034,-27.9811 508.886,-26.1737"/>
<polygon fill="green" stroke="green" stroke-width="0.411529" points="508.774,-22.6706 498.702,-25.9583 508.625,-29.669 508.774,-22.6706"/>
</g>
<!-- &#45;5&#45;&gt;2 -->
<g id="edge43" class="edge"><title>&#45;5&#45;&gt;2</title>
<path fill="none" stroke="red" stroke-width="0.313011" d="M1086.99,-102.127C1111.69,-87.9026 1167.42,-55.8148 1198.19,-38.0913"/>
<polygon fill="red" stroke="red" stroke-width="0.313011" points="1199.96,-41.111 1206.88,-33.0877 1196.47,-35.0449 1199.96,-41.111"/>
</g>
<!-- &#45;6 -->
<g id="node6" class="node"><title>&#45;6</title>
<polygon fill="lightgray" stroke="black" points="766.629,-204.744 742.629,-204.744 742.629,-186.744 766.629,-186.744 766.629,-204.744"/>
<text text-anchor="middle" x="754.629" y="-193.544" font-family="Times,serif" font-size="9.00">&#45;6</text>
</g>
<!-- &#45;6&#45;&gt;207 -->
<g id="edge34" class="edge"><title>&#45;6&#45;&gt;207</title>
<path fill="none" stroke="red" stroke-width="0.651313" d="M749.355,-186.738C741.845,-175.337 727.73,-153.908 716.452,-136.786"/>
<polygon fill="red" stroke="red" stroke-width="0.651313" points="719.286,-134.726 710.862,-128.301 713.44,-138.577 719.286,-134.726"/>
</g>
<!-- &#45;7 -->
<g id="node7" class="node"><title>&#45;7</title>
<polygon fill="lightgray" stroke="black" points="1038.63,-204.744 1014.63,-204.744 1014.63,-186.744 1038.63,-186.744 1038.63,-204.744"/>
<text text-anchor="middle" x="1026.63" y="-193.544" font-family="Times,serif" font-size="9.00">&#45;7</text>
</g>
<!-- &#45;7&#45;&gt;0 -->
<g id="edge52" class="edge"><title>&#45;7&#45;&gt;0</title>
<path fill="none" stroke="green" stroke-width="0.195308" d="M1027.75,-186.501C1029.94,-167.484 1033.16,-119.569 1015.63,-85.4975 1005.17,-65.171 984.646,-48.6542 968.868,-38.1798"/>
<polygon fill="green" stroke="green" stroke-width="0.195308" points="970.563,-35.1105 960.239,-32.7278 966.824,-41.0282 970.563,-35.1105"/>
</g>
<!-- &#45;7&#45;&gt;2 -->
<g id="edge40" class="edge"><title>&#45;7&#45;&gt;2</title>
<path fill="none" stroke="red" stroke-width="0.508915" d="M1031.75,-186.702C1035.67,-181.286 1041.59,-174.514 1048.63,-170.995 1117.77,-136.424 1342.87,-192.416 1394.63,-134.995 1409.36,-118.654 1407.43,-103.39 1394.63,-85.4975 1360.14,-37.284 1284.37,-27.5371 1244.8,-25.8495"/>
<polygon fill="red" stroke="red" stroke-width="0.508915" points="1244.76,-22.347 1234.67,-25.5619 1244.56,-29.3442 1244.76,-22.347"/>
</g>
<!-- &#45;7&#45;&gt;207 -->
<g id="edge39" class="edge"><title>&#45;7&#45;&gt;207</title>
<path fill="none" stroke="green" stroke-width="0.266924" d="M1015.05,-186.664C1006.91,-181.376 995.555,-174.77 984.629,-170.995 883.929,-136.2 849.25,-166.999 747.629,-134.995 740.717,-132.818 733.565,-129.766 726.959,-126.572"/>
<polygon fill="green" stroke="green" stroke-width="0.266924" points="728.262,-123.308 717.764,-121.879 725.08,-129.543 728.262,-123.308"/>
</g>
<!-- &#45;8 -->
<g id="node8" class="node"><title>&#45;8</title>
<polygon fill="lightgray" stroke="black" points="237.629,-119.246 213.629,-119.246 213.629,-101.246 237.629,-101.246 237.629,-119.246"/>
<text text-anchor="middle" x="225.629" y="-108.046" font-family="Times,serif" font-size="9.00">&#45;8</text>
</g>
<!-- &#45;8&#45;&gt;1 -->
<g id="edge15" class="edge"><title>&#45;8&#45;&gt;1</title>
<path fill="none" stroke="green" stroke-width="0.114374" d="M232.592,-101.092C237.436,-95.9104 244.317,-89.4552 251.629,-85.4975 320.923,-47.9902 414.709,-33.275 458.791,-28.1588"/>
<polygon fill="green" stroke="green" stroke-width="0.114374" points="459.321,-31.6218 468.882,-27.0569 458.561,-24.6632 459.321,-31.6218"/>
</g>
<!-- &#45;8&#45;&gt;3 -->
<g id="edge36" class="edge"><title>&#45;8&#45;&gt;3</title>
<path fill="none" stroke="red" stroke-width="0.325096" d="M218.692,-100.922C214.546,-96.1682 209.046,-90.231 203.629,-85.4975 183.155,-67.6081 157.325,-50.0721 139.542,-38.6748"/>
<polygon fill="red" stroke="red" stroke-width="0.325096" points="141.371,-35.69 131.048,-33.3049 137.63,-41.6069 141.371,-35.69"/>
</g>
<!-- 1315 -->
<g id="node29" class="node"><title>1315</title>
<ellipse fill="white" stroke="black" cx="225.629" cy="-24.7487" rx="25" ry="25"/>
<text text-anchor="middle" x="225.629" y="-22.5487" font-family="Times,serif" font-size="9.00">1315</text>
</g>
<!-- &#45;8&#45;&gt;1315 -->
<g id="edge56" class="edge"><title>&#45;8&#45;&gt;1315</title>
<path fill="none" stroke="red" stroke-width="0.230739" d="M225.629,-101.24C225.629,-91.6887 225.629,-75.0995 225.629,-59.9004"/>
<polygon fill="red" stroke="red" stroke-width="0.230739" points="229.129,-59.7037 225.629,-49.7037 222.129,-59.7038 229.129,-59.7037"/>
</g>
<!-- &#45;9 -->
<g id="node9" class="node"><title>&#45;9</title>
<polygon fill="lightgray" stroke="black" points="556.629,-204.744 532.629,-204.744 532.629,-186.744 556.629,-186.744 556.629,-204.744"/>
<text text-anchor="middle" x="544.629" y="-193.544" font-family="Times,serif" font-size="9.00">&#45;9</text>
</g>
<!-- &#45;9&#45;&gt;1 -->
<g id="edge45" class="edge"><title>&#45;9&#45;&gt;1</title>
<path fill="none" stroke="green" stroke-width="0.301432" d="M541.86,-186.488C535.711,-168.221 520.373,-123.021 506.629,-85.4975 502.121,-73.1916 496.887,-59.547 492.551,-48.4071"/>
<polygon fill="green" stroke="green" stroke-width="0.301432" points="495.771,-47.0295 488.869,-38.9911 489.252,-49.579 495.771,-47.0295"/>
</g>
<!-- &#45;9&#45;&gt;2 -->
<g id="edge9" class="edge"><title>&#45;9&#45;&gt;2</title>
<path fill="none" stroke="red" stroke-width="0.285447" d="M554.871,-186.578C562.367,-181.104 573.038,-174.312 583.629,-170.995 647.15,-151.098 1128.56,-175.178 1181.63,-134.995 1207.96,-115.054 1216.14,-75.6318 1218.63,-49.9985"/>
<polygon fill="red" stroke="red" stroke-width="0.285447" points="1222.12,-50.1875 1219.38,-39.9541 1215.14,-49.6649 1222.12,-50.1875"/>
</g>
<!-- &#45;9&#45;&gt;3 -->
<g id="edge55" class="edge"><title>&#45;9&#45;&gt;3</title>
<path fill="none" stroke="red" stroke-width="0.116336" d="M534.055,-186.692C526.334,-181.272 515.379,-174.498 504.629,-170.995 423.769,-144.647 182.289,-196.57 123.629,-134.995 102.182,-112.483 106.128,-74.0664 111.756,-49.3066"/>
<polygon fill="red" stroke="red" stroke-width="0.116336" points="115.226,-49.8609 114.288,-39.3076 108.44,-48.1424 115.226,-49.8609"/>
</g>
<!-- &#45;9&#45;&gt;207 -->
<g id="edge38" class="edge"><title>&#45;9&#45;&gt;207</title>
<path fill="none" stroke="red" stroke-width="0.124673" d="M556.691,-186.844C564.28,-182.013 574.36,-175.851 583.629,-170.995 618.525,-152.712 630.193,-154.131 664.629,-134.995 667.902,-133.176 671.261,-131.139 674.54,-129.043"/>
<polygon fill="red" stroke="red" stroke-width="0.124673" points="676.535,-131.92 682.924,-123.468 672.659,-126.091 676.535,-131.92"/>
</g>
<!-- &#45;10 -->
<g id="node10" class="node"><title>&#45;10</title>
<polygon fill="lightgray" stroke="black" points="786.129,-119.246 757.129,-119.246 757.129,-101.246 786.129,-101.246 786.129,-119.246"/>
<text text-anchor="middle" x="771.629" y="-108.046" font-family="Times,serif" font-size="9.00">&#45;10</text>
</g>
<!-- &#45;10&#45;&gt;0 -->
<g id="edge54" class="edge"><title>&#45;10&#45;&gt;0</title>
<path fill="none" stroke="red" stroke-width="0.282789" d="M780.251,-101.017C785.765,-96.0622 793.244,-89.8852 800.629,-85.4975 841.517,-61.2034 894.112,-42.5028 924.028,-32.9003"/>
<polygon fill="red" stroke="red" stroke-width="0.282789" points="925.117,-36.2268 933.607,-29.889 923.018,-29.549 925.117,-36.2268"/>
</g>
<!-- &#45;10&#45;&gt;1 -->
<g id="edge41" class="edge"><title>&#45;10&#45;&gt;1</title>
<path fill="none" stroke="green" stroke-width="0.283543" d="M765.361,-101.009C760.956,-95.792 754.62,-89.3289 747.629,-85.4975 667.749,-41.7183 557.477,-29.9813 508.636,-26.8627"/>
<polygon fill="green" stroke="green" stroke-width="0.283543" points="508.832,-23.3682 498.648,-26.2928 508.433,-30.3568 508.832,-23.3682"/>
</g>
<!-- &#45;10&#45;&gt;2 -->
<g id="edge2" class="edge"><title>&#45;10&#45;&gt;2</title>
<path fill="none" stroke="red" stroke-width="0.164769" d="M786.366,-102.697C798.957,-97.3448 817.672,-89.9579 834.629,-85.4975 967.922,-50.434 1132.94,-33.3349 1194.73,-27.8168"/>
<polygon fill="red" stroke="red" stroke-width="0.164769" points="1195.06,-31.3017 1204.72,-26.9467 1194.45,-24.3281 1195.06,-31.3017"/>
</g>
<!-- &#45;11 -->
<g id="node11" class="node"><title>&#45;11</title>
<polygon fill="lightgray" stroke="black" points="1296.13,-119.246 1267.13,-119.246 1267.13,-101.246 1296.13,-101.246 1296.13,-119.246"/>
<text text-anchor="middle" x="1281.63" y="-108.046" font-family="Times,serif" font-size="9.00">&#45;11</text>
</g>
<!-- &#45;11&#45;&gt;2 -->
<g id="edge51" class="edge"><title>&#45;11&#45;&gt;2</title>
<path fill="none" stroke="red" stroke-width="0.130015" d="M1275.68,-101.24C1266.24,-88.5183 1247.52,-63.311 1234.32,-45.5331"/>
<polygon fill="red" stroke="red" stroke-width="0.130015" points="1236.77,-42.9612 1228,-37.0191 1231.15,-47.1343 1236.77,-42.9612"/>
</g>
<!-- &#45;12 -->
<g id="node12" class="node"><title>&#45;12</title>
<polygon fill="lightgray" stroke="black" points="1086.13,-204.744 1057.13,-204.744 1057.13,-186.744 1086.13,-186.744 1086.13,-204.744"/>
<text text-anchor="middle" x="1071.63" y="-193.544" font-family="Times,serif" font-size="9.00">&#45;12</text>
</g>
<!-- &#45;12&#45;&gt;2 -->
<g id="edge31" class="edge"><title>&#45;12&#45;&gt;2</title>
<path fill="none" stroke="green" stroke-width="0.275563" d="M1086.42,-194.672C1147.98,-194.033 1382.69,-188.099 1427.63,-134.995 1441.84,-118.201 1440.86,-103.07 1427.63,-85.4975 1405.41,-56.0001 1294.67,-36.5735 1244.46,-29.1441"/>
<polygon fill="green" stroke="green" stroke-width="0.275563" points="1244.84,-25.6628 1234.44,-27.7033 1243.84,-32.5915 1244.84,-25.6628"/>
</g>
<!-- &#45;12&#45;&gt;207 -->
<g id="edge17" class="edge"><title>&#45;12&#45;&gt;207</title>
<path fill="none" stroke="red" stroke-width="0.358513" d="M1065.86,-186.732C1061.5,-181.331 1055.02,-174.563 1047.63,-170.995 926.695,-112.61 876.333,-173.323 747.629,-134.995 740.684,-132.927 733.519,-129.917 726.911,-126.73"/>
<polygon fill="red" stroke="red" stroke-width="0.358513" points="728.216,-123.466 717.72,-122.024 725.026,-129.697 728.216,-123.466"/>
</g>
<!-- &#45;13 -->
<g id="node13" class="node"><title>&#45;13</title>
<polygon fill="lightgray" stroke="black" points="195.129,-119.246 166.129,-119.246 166.129,-101.246 195.129,-101.246 195.129,-119.246"/>
<text text-anchor="middle" x="180.629" y="-108.046" font-family="Times,serif" font-size="9.00">&#45;13</text>
</g>
<!-- &#45;13&#45;&gt;1 -->
<g id="edge42" class="edge"><title>&#45;13&#45;&gt;1</title>
<path fill="none" stroke="red" stroke-width="0.211974" d="M186.882,-100.982C191.281,-95.7539 197.616,-89.2883 204.629,-85.4975 289.885,-39.4132 407.781,-28.8708 458.634,-26.4614"/>
<polygon fill="red" stroke="red" stroke-width="0.211974" points="458.856,-29.9553 468.705,-26.0515 458.571,-22.9611 458.856,-29.9553"/>
</g>
<!-- &#45;13&#45;&gt;3 -->
<g id="edge13" class="edge"><title>&#45;13&#45;&gt;3</title>
<path fill="none" stroke="green" stroke-width="0.100064" d="M174.684,-101.24C165.237,-88.5183 146.52,-63.311 133.319,-45.5331"/>
<polygon fill="green" stroke="green" stroke-width="0.100064" points="135.769,-42.9612 126.997,-37.0191 130.149,-47.1343 135.769,-42.9612"/>
</g>
<!-- &#45;14 -->
<g id="node14" class="node"><title>&#45;14</title>
<polygon fill="lightgray" stroke="black" points="622.129,-119.246 593.129,-119.246 593.129,-101.246 622.129,-101.246 622.129,-119.246"/>
<text text-anchor="middle" x="607.629" y="-108.046" font-family="Times,serif" font-size="9.00">&#45;14</text>
</g>
<!-- &#45;14&#45;&gt;0 -->
<g id="edge46" class="edge"><title>&#45;14&#45;&gt;0</title>
<path fill="none" stroke="green" stroke-width="0.103132" d="M615.488,-100.958C620.93,-95.719 628.614,-89.251 636.629,-85.4975 735.381,-39.249 867.791,-28.7991 922.431,-26.438"/>
<polygon fill="green" stroke="green" stroke-width="0.103132" points="922.718,-29.9297 932.58,-26.0561 922.455,-22.9346 922.718,-29.9297"/>
</g>
<!-- &#45;14&#45;&gt;1 -->
<g id="edge62" class="edge"><title>&#45;14&#45;&gt;1</title>
<path fill="none" stroke="green" stroke-width="0.365353" d="M598.459,-101.241C592.866,-96.486 585.495,-90.439 578.629,-85.4975 554.166,-67.8926 524.58,-49.7479 504.995,-38.1436"/>
<polygon fill="green" stroke="green" stroke-width="0.365353" points="506.644,-35.0533 496.249,-33.0034 503.097,-41.0881 506.644,-35.0533"/>
</g>
<!-- &#45;15 -->
<g id="node15" class="node"><title>&#45;15</title>
<polygon fill="lightgray" stroke="black" points="451.129,-119.246 422.129,-119.246 422.129,-101.246 451.129,-101.246 451.129,-119.246"/>
<text text-anchor="middle" x="436.629" y="-108.046" font-family="Times,serif" font-size="9.00">&#45;15</text>
</g>
<!-- &#45;15&#45;&gt;1 -->
<g id="edge24" class="edge"><title>&#45;15&#45;&gt;1</title>
<path fill="none" stroke="red" stroke-width="0.15558" d="M441.135,-101.24C448.075,-88.9106 461.617,-64.8535 471.555,-47.1981"/>
<polygon fill="red" stroke="red" stroke-width="0.15558" points="474.785,-48.5944 476.641,-38.1632 468.685,-45.1607 474.785,-48.5944"/>
</g>
<!-- &#45;16 -->
<g id="node16" class="node"><title>&#45;16</title>
<polygon fill="lightgray" stroke="black" points="1343.13,-119.246 1314.13,-119.246 1314.13,-101.246 1343.13,-101.246 1343.13,-119.246"/>
<text text-anchor="middle" x="1328.63" y="-108.046" font-family="Times,serif" font-size="9.00">&#45;16</text>
</g>
<!-- &#45;16&#45;&gt;2 -->
<g id="edge10" class="edge"><title>&#45;16&#45;&gt;2</title>
<path fill="none" stroke="red" stroke-width="0.303215" d="M1321.33,-100.94C1316.98,-96.1917 1311.23,-90.2546 1305.63,-85.4975 1284.75,-67.7543 1258.64,-50.1923 1240.7,-38.7489"/>
<polygon fill="red" stroke="red" stroke-width="0.303215" points="1242.46,-35.722 1232.14,-33.354 1238.73,-41.6451 1242.46,-35.722"/>
</g>
<!-- &#45;17 -->
<g id="node17" class="node"><title>&#45;17</title>
<polygon fill="lightgray" stroke="black" points="1172.13,-119.246 1143.13,-119.246 1143.13,-101.246 1172.13,-101.246 1172.13,-119.246"/>
<text text-anchor="middle" x="1157.63" y="-108.046" font-family="Times,serif" font-size="9.00">&#45;17</text>
</g>
<!-- &#45;17&#45;&gt;0 -->
<g id="edge7" class="edge"><title>&#45;17&#45;&gt;0</title>
<path fill="none" stroke="red" stroke-width="0.241132" d="M1149.11,-100.84C1143.63,-95.8194 1136.16,-89.6346 1128.63,-85.4975 1076.59,-56.8994 1008.58,-39.0372 972.55,-30.9109"/>
<polygon fill="red" stroke="red" stroke-width="0.241132" points="972.966,-27.4192 962.449,-28.7004 971.469,-34.2574 972.966,-27.4192"/>
</g>
<!-- &#45;17&#45;&gt;2 -->
<g id="edge29" class="edge"><title>&#45;17&#45;&gt;2</title>
<path fill="none" stroke="red" stroke-width="0.595359" d="M1163.57,-101.24C1173.02,-88.5183 1191.74,-63.311 1204.94,-45.5331"/>
<polygon fill="red" stroke="red" stroke-width="0.595359" points="1208.11,-47.1343 1211.26,-37.0191 1202.49,-42.9612 1208.11,-47.1343"/>
</g>
<!-- &#45;18 -->
<g id="node18" class="node"><title>&#45;18</title>
<polygon fill="lightgray" stroke="black" points="891.129,-204.744 862.129,-204.744 862.129,-186.744 891.129,-186.744 891.129,-204.744"/>
<text text-anchor="middle" x="876.629" y="-193.544" font-family="Times,serif" font-size="9.00">&#45;18</text>
</g>
<!-- &#45;18&#45;&gt;207 -->
<g id="edge57" class="edge"><title>&#45;18&#45;&gt;207</title>
<path fill="none" stroke="red" stroke-width="0.239144" d="M862.188,-186.742C853.435,-181.988 841.993,-175.941 831.629,-170.995 794.971,-153.502 784.512,-152.007 747.629,-134.995 741.049,-131.96 734.026,-128.572 727.441,-125.327"/>
<polygon fill="red" stroke="red" stroke-width="0.239144" points="728.719,-122.053 718.207,-120.733 725.601,-128.321 728.719,-122.053"/>
</g>
<!-- 2771 -->
<g id="node32" class="node"><title>2771</title>
<ellipse fill="white" stroke="black" cx="981.629" cy="-110.246" rx="25" ry="25"/>
<text text-anchor="middle" x="981.629" y="-108.046" font-family="Times,serif" font-size="9.00">2771</text>
</g>
<!-- &#45;18&#45;&gt;2771 -->
<g id="edge22" class="edge"><title>&#45;18&#45;&gt;2771</title>
<path fill="none" stroke="green" stroke-width="0.3" d="M886.697,-186.738C902.172,-174.432 932.338,-150.443 954.528,-132.797"/>
<polygon fill="green" stroke="green" stroke-width="0.3" points="956.946,-135.346 962.595,-126.382 952.59,-129.867 956.946,-135.346"/>
</g>
<!-- &#45;19 -->
<g id="node19" class="node"><title>&#45;19</title>
<polygon fill="lightgray" stroke="black" points="496.129,-204.744 467.129,-204.744 467.129,-186.744 496.129,-186.744 496.129,-204.744"/>
<text text-anchor="middle" x="481.629" y="-193.544" font-family="Times,serif" font-size="9.00">&#45;19</text>
</g>
<!-- &#45;19&#45;&gt;3 -->
<g id="edge4" class="edge"><title>&#45;19&#45;&gt;3</title>
<path fill="none" stroke="red" stroke-width="0.267152" d="M466.974,-187.52C455.261,-182.074 438.27,-174.898 422.629,-170.995 349.555,-152.76 135.977,-191.008 85.6287,-134.995 62.7271,-109.517 85.8172,-68.6171 103.218,-44.7517"/>
<polygon fill="red" stroke="red" stroke-width="0.267152" points="106.224,-46.582 109.501,-36.5068 100.656,-42.3393 106.224,-46.582"/>
</g>
<!-- &#45;19&#45;&gt;207 -->
<g id="edge50" class="edge"><title>&#45;19&#45;&gt;207</title>
<path fill="none" stroke="red" stroke-width="0.237461" d="M494.058,-186.557C502.195,-181.493 513.214,-175.182 523.629,-170.995 583.637,-146.867 605.654,-161.549 664.629,-134.995 668.044,-133.457 671.487,-131.59 674.812,-129.585"/>
<polygon fill="red" stroke="red" stroke-width="0.237461" points="676.773,-132.484 683.236,-124.089 672.948,-126.622 676.773,-132.484"/>
</g>
<!-- &#45;20 -->
<g id="node20" class="node"><title>&#45;20</title>
<polygon fill="lightgray" stroke="black" points="498.129,-119.246 469.129,-119.246 469.129,-101.246 498.129,-101.246 498.129,-119.246"/>
<text text-anchor="middle" x="483.629" y="-108.046" font-family="Times,serif" font-size="9.00">&#45;20</text>
</g>
<!-- &#45;20&#45;&gt;1 -->
<g id="edge47" class="edge"><title>&#45;20&#45;&gt;1</title>
<path fill="none" stroke="red" stroke-width="0.170057" d="M483.629,-101.24C483.629,-89.4769 483.629,-67.0389 483.629,-49.6698"/>
<polygon fill="red" stroke="red" stroke-width="0.170057" points="487.129,-49.6509 483.629,-39.6509 480.129,-49.6509 487.129,-49.6509"/>
</g>
<!-- &#45;21 -->
<g id="node21" class="node"><title>&#45;21</title>
<polygon fill="lightgray" stroke="black" points="822.129,-204.744 793.129,-204.744 793.129,-186.744 822.129,-186.744 822.129,-204.744"/>
<text text-anchor="middle" x="807.629" y="-193.544" font-family="Times,serif" font-size="9.00">&#45;21</text>
</g>
<!-- &#45;21&#45;&gt;0 -->
<g id="edge25" class="edge"><title>&#45;21&#45;&gt;0</title>
<path fill="none" stroke="red" stroke-width="0.258885" d="M807.481,-186.653C807.539,-167.131 810.207,-116.747 834.629,-85.4975 857.208,-56.6054 897.716,-40.1185 923.602,-32.0595"/>
<polygon fill="red" stroke="red" stroke-width="0.258885" points="924.768,-35.365 933.383,-29.198 922.803,-28.6465 924.768,-35.365"/>
</g>
<!-- &#45;21&#45;&gt;3 -->
<g id="edge33" class="edge"><title>&#45;21&#45;&gt;3</title>
<path fill="none" stroke="green" stroke-width="0.213497" d="M799.48,-186.57C793.45,-181.093 784.733,-174.3 775.629,-170.995 646.113,-123.971 266.563,-218.061 156.629,-134.995 130.273,-115.081 122.098,-75.651 119.621,-50.0088"/>
<polygon fill="green" stroke="green" stroke-width="0.213497" points="123.106,-49.6727 118.872,-39.9606 116.125,-50.1931 123.106,-49.6727"/>
</g>
<!-- &#45;21&#45;&gt;207 -->
<g id="edge16" class="edge"><title>&#45;21&#45;&gt;207</title>
<path fill="none" stroke="red" stroke-width="0.189456" d="M797.273,-186.738C780.534,-173.796 747.081,-147.933 724.034,-130.115"/>
<polygon fill="red" stroke="red" stroke-width="0.189456" points="726.117,-127.301 716.065,-123.953 721.835,-132.839 726.117,-127.301"/>
</g>
<!-- 2610 -->
<g id="node31" class="node"><title>2610</title>
<ellipse fill="white" stroke="black" cx="914.629" cy="-110.246" rx="25" ry="25"/>
<text text-anchor="middle" x="914.629" y="-108.046" font-family="Times,serif" font-size="9.00">2610</text>
</g>
<!-- &#45;21&#45;&gt;2610 -->
<g id="edge59" class="edge"><title>&#45;21&#45;&gt;2610</title>
<path fill="none" stroke="green" stroke-width="0.3" d="M817.888,-186.738C833.728,-174.377 864.67,-150.231 887.31,-132.564"/>
<polygon fill="green" stroke="green" stroke-width="0.3" points="889.502,-135.293 895.232,-126.382 885.196,-129.775 889.502,-135.293"/>
</g>
<!-- &#45;22 -->
<g id="node22" class="node"><title>&#45;22</title>
<polygon fill="lightgray" stroke="black" points="414.129,-204.744 385.129,-204.744 385.129,-186.744 414.129,-186.744 414.129,-204.744"/>
<text text-anchor="middle" x="399.629" y="-193.544" font-family="Times,serif" font-size="9.00">&#45;22</text>
</g>
<!-- &#45;22&#45;&gt;3 -->
<g id="edge61" class="edge"><title>&#45;22&#45;&gt;3</title>
<path fill="none" stroke="green" stroke-width="0.238864" d="M384.694,-187.597C372.764,-182.194 355.477,-175.038 339.629,-170.995 276.277,-154.834 90.9388,-183.973 47.6287,-134.995 33.0559,-118.515 38.3458,-105.442 47.6287,-85.4975 57.7238,-63.808 79.9979,-47.1768 96.9245,-37.0338"/>
<polygon fill="green" stroke="green" stroke-width="0.238864" points="98.6951,-40.0534 105.667,-32.0754 95.2416,-33.9646 98.6951,-40.0534"/>
</g>
<!-- &#45;22&#45;&gt;207 -->
<g id="edge60" class="edge"><title>&#45;22&#45;&gt;207</title>
<path fill="none" stroke="green" stroke-width="0.410496" d="M414.574,-187.574C426.103,-182.303 442.572,-175.331 457.629,-170.995 547.362,-145.152 578.055,-169.994 664.629,-134.995 668.101,-133.591 671.578,-131.804 674.922,-129.843"/>
<polygon fill="green" stroke="green" stroke-width="0.410496" points="676.865,-132.754 683.362,-124.384 673.064,-126.876 676.865,-132.754"/>
</g>
<!-- &#45;23 -->
<g id="node23" class="node"><title>&#45;23</title>
<polygon fill="lightgray" stroke="black" points="872.129,-119.246 843.129,-119.246 843.129,-101.246 872.129,-101.246 872.129,-119.246"/>
<text text-anchor="middle" x="857.629" y="-108.046" font-family="Times,serif" font-size="9.00">&#45;23</text>
</g>
<!-- &#45;23&#45;&gt;1 -->
<g id="edge48" class="edge"><title>&#45;23&#45;&gt;1</title>
<path fill="none" stroke="green" stroke-width="0.241053" d="M843.1,-102.958C830.481,-97.6937 811.615,-90.2928 794.629,-85.4975 690.151,-56.0024 561.823,-36.4614 508.592,-29.0663"/>
<polygon fill="green" stroke="green" stroke-width="0.241053" points="508.791,-25.5609 498.409,-27.6734 507.842,-32.4963 508.791,-25.5609"/>
</g>
<!-- &#45;23&#45;&gt;2 -->
<g id="edge30" class="edge"><title>&#45;23&#45;&gt;2</title>
<path fill="none" stroke="green" stroke-width="0.272102" d="M863.507,-100.896C867.673,-95.6307 873.734,-89.1569 880.629,-85.4975 987.002,-29.0411 1135.96,-24.4435 1194.55,-25.044"/>
<polygon fill="green" stroke="green" stroke-width="0.272102" points="1194.66,-28.5462 1204.72,-25.2124 1194.78,-21.5472 1194.66,-28.5462"/>
</g>
<!-- &#45;24 -->
<g id="node24" class="node"><title>&#45;24</title>
<polygon fill="lightgray" stroke="black" points="622.129,-204.744 593.129,-204.744 593.129,-186.744 622.129,-186.744 622.129,-204.744"/>
<text text-anchor="middle" x="607.629" y="-193.544" font-family="Times,serif" font-size="9.00">&#45;24</text>
</g>
<!-- &#45;24&#45;&gt;1 -->
<g id="edge5" class="edge"><title>&#45;24&#45;&gt;1</title>
<path fill="none" stroke="green" stroke-width="0.336854" d="M602.05,-186.722C589.382,-168.555 557.392,-122.936 529.629,-85.4975 519.562,-71.9228 507.951,-56.8453 498.913,-45.2325"/>
<polygon fill="green" stroke="green" stroke-width="0.336854" points="501.483,-42.8379 492.571,-37.1097 495.966,-47.1458 501.483,-42.8379"/>
</g>
<!-- &#45;24&#45;&gt;207 -->
<g id="edge44" class="edge"><title>&#45;24&#45;&gt;207</title>
<path fill="none" stroke="red" stroke-width="0.190687" d="M616.45,-186.738C630.206,-174.253 657.21,-149.744 676.725,-132.033"/>
<polygon fill="red" stroke="red" stroke-width="0.190687" points="679.258,-134.461 684.311,-125.148 674.554,-129.277 679.258,-134.461"/>
</g>
<!-- 1&#45;&gt;1 -->
<g id="edge27" class="edge"><title>1&#45;&gt;1</title>
<path fill="none" stroke="green" stroke-width="0.176807" d="M493.045,-36.3113C503.902,-44.517 516.478,-40.6628 516.478,-24.7487 516.478,-13.3105 509.981,-8.10242 502.295,-9.12449"/>
<polygon fill="green" stroke="green" stroke-width="0.176807" points="500.794,-5.96114 493.045,-13.1862 503.608,-12.3705 500.794,-5.96114"/>
</g>
<!-- 2&#45;&gt;2 -->
<g id="edge26" class="edge"><title>2&#45;&gt;2</title>
<path fill="none" stroke="red" stroke-width="0.190799" d="M1229.04,-36.3113C1239.9,-44.517 1252.48,-40.6628 1252.48,-24.7487 1252.48,-13.3105 1245.98,-8.10242 1238.3,-9.12449"/>
<polygon fill="red" stroke="red" stroke-width="0.190799" points="1236.79,-5.96114 1229.04,-13.1862 1239.61,-12.3705 1236.79,-5.96114"/>
</g>
<!-- 207&#45;&gt;2 -->
<g id="edge23" class="edge"><title>207&#45;&gt;2</title>
<path fill="none" stroke="green" stroke-width="0.116343" d="M717.729,-98.4988C726.479,-93.7771 737.302,-88.6092 747.629,-85.4975 833.053,-59.7558 1110.42,-34.9113 1194.95,-27.7809"/>
<polygon fill="green" stroke="green" stroke-width="0.116343" points="1195.25,-31.2682 1204.92,-26.9467 1194.67,-24.2926 1195.25,-31.2682"/>
</g>
<!-- 207&#45;&gt;3 -->
<g id="edge6" class="edge"><title>207&#45;&gt;3</title>
<path fill="none" stroke="red" stroke-width="0.277181" d="M680.365,-101.163C666.725,-95.8017 647.864,-89.1107 630.629,-85.4975 439.028,-45.3291 383.563,-88.0397 191.629,-49.4975 174.49,-46.0559 155.75,-39.9066 141.549,-34.7277"/>
<polygon fill="red" stroke="red" stroke-width="0.277181" points="142.691,-31.4178 132.099,-31.1808 140.231,-37.9715 142.691,-31.4178"/>
</g>
<!-- 207&#45;&gt;207 -->
<g id="edge18" class="edge"><title>207&#45;&gt;207</title>
<path fill="none" stroke="red" stroke-width="0.391443" d="M715.741,-124.3C727.314,-128.876 738.842,-124.192 738.842,-110.246 738.842,-100.441 733.143,-95.2139 725.736,-94.5652"/>
<polygon fill="red" stroke="red" stroke-width="0.391443" points="725.048,-91.1309 715.741,-96.192 726.173,-98.0399 725.048,-91.1309"/>
</g>
<!-- 2610&#45;&gt;0 -->
<g id="edge20" class="edge"><title>2610&#45;&gt;0</title>
<path fill="none" stroke="red" stroke-width="0.270795" d="M923.472,-86.8704C928.138,-75.064 933.854,-60.6016 938.554,-48.7092"/>
<polygon fill="red" stroke="red" stroke-width="0.270795" points="941.951,-49.6378 942.371,-39.0513 935.441,-47.0648 941.951,-49.6378"/>
</g>
<!-- 2771&#45;&gt;0 -->
<g id="edge1" class="edge"><title>2771&#45;&gt;0</title>
<path fill="none" stroke="green" stroke-width="0.159115" d="M972.517,-86.8704C967.661,-74.9447 961.702,-60.3091 956.832,-48.3496"/>
<polygon fill="green" stroke="green" stroke-width="0.159115" points="960.058,-46.9929 953.045,-39.0513 953.575,-49.6329 960.058,-46.9929"/>
</g>
<!-- 2522&#45;&gt;207 -->
<g id="edge19" class="edge"><title>2522&#45;&gt;207</title>
<path fill="none" stroke="red" stroke-width="0.289881" d="M699.629,-170.593C699.629,-161.634 699.629,-151.352 699.629,-141.891"/>
<polygon fill="red" stroke="red" stroke-width="0.289881" points="703.129,-141.672 699.629,-131.672 696.129,-141.672 703.129,-141.672"/>
</g>
<!-- 1374&#45;&gt;1 -->
<g id="edge8" class="edge"><title>1374&#45;&gt;1</title>
<path fill="none" stroke="red" stroke-width="0.31061" d="M338.009,-94.807C342.69,-91.5747 347.752,-88.2822 352.629,-85.4975 388.848,-64.8167 433.503,-45.7128 460.211,-34.9155"/>
<polygon fill="red" stroke="red" stroke-width="0.31061" points="461.849,-38.0303 469.837,-31.0705 459.252,-31.5298 461.849,-38.0303"/>
</g>
<!-- 895&#45;&gt;1 -->
<g id="edge63" class="edge"><title>895&#45;&gt;1</title>
<path fill="none" stroke="green" stroke-width="0.325551" d="M398.856,-95.8309C416.748,-81.0395 445.507,-57.2639 464.487,-41.5735"/>
<polygon fill="green" stroke="green" stroke-width="0.325551" points="466.967,-44.0639 472.445,-34.9947 462.507,-38.6688 466.967,-44.0639"/>
</g>
</g>
</svg>
