<?xml version="1.0" encoding="UTF-8" standalone="no"?>
<!DOCTYPE svg PUBLIC "-//W3C//DTD SVG 1.1//EN"
 "http://www.w3.org/Graphics/SVG/1.1/DTD/svg11.dtd">
<!-- Generated by graphviz version 2.38.0 (20140413.2041)
 -->
<!-- Title: %3 Pages: 1 -->
<svg width="1109pt" height="261pt"
 viewBox="0.00 0.00 1109.00 261.28" xmlns="http://www.w3.org/2000/svg" xmlns:xlink="http://www.w3.org/1999/xlink">
<g id="graph0" class="graph" transform="scale(1 1) rotate(0) translate(4 257.279)">
<title>%3</title>
<polygon fill="white" stroke="none" points="-4,4 -4,-257.279 1105,-257.279 1105,4 -4,4"/>
<!-- &#45;1 -->
<g id="node1" class="node"><title>&#45;1</title>
<polygon fill="lightgray" stroke="black" points="577.5,-180.702 553.5,-180.702 553.5,-162.702 577.5,-162.702 577.5,-180.702"/>
<text text-anchor="middle" x="565.5" y="-169.502" font-family="Times,serif" font-size="9.00">&#45;1</text>
</g>
<!-- 410 -->
<g id="node30" class="node"><title>410</title>
<ellipse fill="white" stroke="black" cx="610.5" cy="-86.9117" rx="21.4286" ry="21.4286"/>
<text text-anchor="middle" x="610.5" y="-84.7117" font-family="Times,serif" font-size="9.00">410</text>
</g>
<!-- &#45;1&#45;&gt;410 -->
<g id="edge36" class="edge"><title>&#45;1&#45;&gt;410</title>
<path fill="none" stroke="green" stroke-width="0.421391" d="M569.979,-162.461C575.926,-151.52 586.72,-131.662 595.672,-115.191"/>
<polygon fill="green" stroke="green" stroke-width="0.421391" points="598.98,-116.436 600.68,-105.978 592.829,-113.093 598.98,-116.436"/>
</g>
<!-- &#45;2 -->
<g id="node2" class="node"><title>&#45;2</title>
<polygon fill="lightgray" stroke="black" points="873.5,-180.702 849.5,-180.702 849.5,-162.702 873.5,-162.702 873.5,-180.702"/>
<text text-anchor="middle" x="861.5" y="-169.502" font-family="Times,serif" font-size="9.00">&#45;2</text>
</g>
<!-- 1 -->
<g id="node26" class="node"><title>1</title>
<ellipse fill="lightblue" stroke="black" cx="845.5" cy="-86.9117" rx="14.7" ry="14.7"/>
<text text-anchor="middle" x="845.5" y="-84.7117" font-family="Times,serif" font-size="9.00">1</text>
</g>
<!-- &#45;2&#45;&gt;1 -->
<g id="edge12" class="edge"><title>&#45;2&#45;&gt;1</title>
<path fill="none" stroke="red" stroke-width="0.294588" d="M859.907,-162.461C857.629,-150.674 853.351,-128.538 850.046,-111.437"/>
<polygon fill="red" stroke="red" stroke-width="0.294588" points="853.475,-110.731 848.141,-101.577 846.602,-112.06 853.475,-110.731"/>
</g>
<!-- &#45;2&#45;&gt;410 -->
<g id="edge43" class="edge"><title>&#45;2&#45;&gt;410</title>
<path fill="none" stroke="red" stroke-width="0.120503" d="M856.748,-162.523C852.855,-156.543 846.808,-148.707 839.5,-144.125 776.754,-104.784 688.331,-92.9733 641.855,-89.4294"/>
<polygon fill="red" stroke="red" stroke-width="0.120503" points="642.005,-85.9316 631.79,-88.7426 641.528,-92.9153 642.005,-85.9316"/>
</g>
<!-- &#45;3 -->
<g id="node3" class="node"><title>&#45;3</title>
<polygon fill="lightgray" stroke="black" points="783.5,-180.702 759.5,-180.702 759.5,-162.702 783.5,-162.702 783.5,-180.702"/>
<text text-anchor="middle" x="771.5" y="-169.502" font-family="Times,serif" font-size="9.00">&#45;3</text>
</g>
<!-- 0 -->
<g id="node25" class="node"><title>0</title>
<ellipse fill="lightblue" stroke="black" cx="338.5" cy="-86.9117" rx="14.7" ry="14.7"/>
<text text-anchor="middle" x="338.5" y="-84.7117" font-family="Times,serif" font-size="9.00">0</text>
</g>
<!-- &#45;3&#45;&gt;0 -->
<g id="edge46" class="edge"><title>&#45;3&#45;&gt;0</title>
<path fill="none" stroke="green" stroke-width="0.150004" d="M767.181,-162.303C763.579,-156.208 757.854,-148.324 750.5,-144.125 716.718,-124.834 447.732,-98.176 363.576,-90.2335"/>
<polygon fill="green" stroke="green" stroke-width="0.150004" points="363.893,-86.748 353.61,-89.2991 363.24,-93.7174 363.893,-86.748"/>
</g>
<!-- &#45;3&#45;&gt;1 -->
<g id="edge34" class="edge"><title>&#45;3&#45;&gt;1</title>
<path fill="none" stroke="green" stroke-width="0.330882" d="M777.571,-162.648C781.673,-157.3 787.273,-150.178 792.5,-144.125 804.07,-130.728 817.795,-116.205 828.38,-105.277"/>
<polygon fill="green" stroke="green" stroke-width="0.330882" points="830.978,-107.626 835.456,-98.0231 825.967,-102.738 830.978,-107.626"/>
</g>
<!-- 2 -->
<g id="node27" class="node"><title>2</title>
<ellipse fill="lightblue" stroke="black" cx="846.5" cy="-14.8492" rx="14.7" ry="14.7"/>
<text text-anchor="middle" x="846.5" y="-12.6492" font-family="Times,serif" font-size="9.00">2</text>
</g>
<!-- &#45;3&#45;&gt;2 -->
<g id="edge20" class="edge"><title>&#45;3&#45;&gt;2</title>
<path fill="none" stroke="red" stroke-width="0.328684" d="M775.333,-162.506C783.635,-144.787 803.944,-101.616 821.5,-65.6985 826.01,-56.4715 831.075,-46.3321 835.46,-37.6207"/>
<polygon fill="red" stroke="red" stroke-width="0.328684" points="838.674,-39.021 840.058,-28.5168 832.426,-35.8657 838.674,-39.021"/>
</g>
<!-- &#45;4 -->
<g id="node4" class="node"><title>&#45;4</title>
<polygon fill="lightgray" stroke="black" points="328.5,-253.279 304.5,-253.279 304.5,-235.279 328.5,-235.279 328.5,-253.279"/>
<text text-anchor="middle" x="316.5" y="-242.079" font-family="Times,serif" font-size="9.00">&#45;4</text>
</g>
<!-- &#45;4&#45;&gt;0 -->
<g id="edge38" class="edge"><title>&#45;4&#45;&gt;0</title>
<path fill="none" stroke="red" stroke-width="0.892053" d="M317.683,-234.926C320.934,-211.963 330.098,-147.245 335.115,-111.82"/>
<polygon fill="red" stroke="red" stroke-width="0.892053" points="338.59,-112.237 336.527,-101.845 331.66,-111.255 338.59,-112.237"/>
</g>
<!-- 3 -->
<g id="node28" class="node"><title>3</title>
<ellipse fill="lightblue" stroke="black" cx="170.5" cy="-86.9117" rx="14.7" ry="14.7"/>
<text text-anchor="middle" x="170.5" y="-84.7117" font-family="Times,serif" font-size="9.00">3</text>
</g>
<!-- &#45;4&#45;&gt;3 -->
<g id="edge18" class="edge"><title>&#45;4&#45;&gt;3</title>
<path fill="none" stroke="red" stroke-width="0.192594" d="M304.466,-243.012C260.017,-241.749 106.127,-234.832 76.5,-199.279 60.8071,-180.448 64.4069,-165.447 76.5,-144.125 91.3868,-117.877 123.939,-102.57 146.535,-94.7254"/>
<polygon fill="red" stroke="red" stroke-width="0.192594" points="147.674,-98.0355 156.116,-91.634 145.525,-91.3736 147.674,-98.0355"/>
</g>
<!-- 3009 -->
<g id="node29" class="node"><title>3009</title>
<ellipse fill="white" stroke="black" cx="463.5" cy="-171.702" rx="25" ry="25"/>
<text text-anchor="middle" x="463.5" y="-169.502" font-family="Times,serif" font-size="9.00">3009</text>
</g>
<!-- &#45;4&#45;&gt;3009 -->
<g id="edge24" class="edge"><title>&#45;4&#45;&gt;3009</title>
<path fill="none" stroke="red" stroke-width="0.406637" d="M328.563,-239.859C349.807,-233.563 394.918,-218.96 429.5,-199.279 432.003,-197.855 434.521,-196.259 436.992,-194.575"/>
<polygon fill="red" stroke="red" stroke-width="0.406637" points="439.118,-197.357 445.131,-188.634 434.99,-191.704 439.118,-197.357"/>
</g>
<!-- &#45;5 -->
<g id="node5" class="node"><title>&#45;5</title>
<polygon fill="lightgray" stroke="black" points="204.5,-180.702 180.5,-180.702 180.5,-162.702 204.5,-162.702 204.5,-180.702"/>
<text text-anchor="middle" x="192.5" y="-169.502" font-family="Times,serif" font-size="9.00">&#45;5</text>
</g>
<!-- &#45;5&#45;&gt;0 -->
<g id="edge27" class="edge"><title>&#45;5&#45;&gt;0</title>
<path fill="none" stroke="red" stroke-width="1.67019" d="M197.529,-162.395C201.336,-156.662 207.008,-149.188 213.5,-144.125 244.641,-119.838 287.943,-103.415 314.548,-94.8678"/>
<polygon fill="red" stroke="red" stroke-width="1.67019" points="315.677,-98.1824 324.193,-91.8802 313.605,-91.4958 315.677,-98.1824"/>
</g>
<!-- &#45;5&#45;&gt;3 -->
<g id="edge39" class="edge"><title>&#45;5&#45;&gt;3</title>
<path fill="none" stroke="green" stroke-width="0.846079" d="M190.31,-162.461C187.178,-150.674 181.296,-128.538 176.751,-111.437"/>
<polygon fill="green" stroke="green" stroke-width="0.846079" points="180.082,-110.343 174.131,-101.577 173.317,-112.141 180.082,-110.343"/>
</g>
<!-- &#45;6 -->
<g id="node6" class="node"><title>&#45;6</title>
<polygon fill="lightgray" stroke="black" points="667.5,-180.702 643.5,-180.702 643.5,-162.702 667.5,-162.702 667.5,-180.702"/>
<text text-anchor="middle" x="655.5" y="-169.502" font-family="Times,serif" font-size="9.00">&#45;6</text>
</g>
<!-- &#45;6&#45;&gt;0 -->
<g id="edge16" class="edge"><title>&#45;6&#45;&gt;0</title>
<path fill="none" stroke="green" stroke-width="0.193741" d="M650.816,-162.412C646.958,-156.374 640.925,-148.514 633.5,-144.125 544.876,-91.7429 417.464,-86.7241 363.824,-87.1681"/>
<polygon fill="green" stroke="green" stroke-width="0.193741" points="363.481,-83.673 353.537,-87.3307 363.591,-90.6721 363.481,-83.673"/>
</g>
<!-- &#45;6&#45;&gt;1 -->
<g id="edge28" class="edge"><title>&#45;6&#45;&gt;1</title>
<path fill="none" stroke="green" stroke-width="0.571336" d="M660.06,-162.684C663.789,-156.789 669.567,-148.987 676.5,-144.125 721.502,-112.565 785.493,-97.7302 820.403,-91.6105"/>
<polygon fill="green" stroke="green" stroke-width="0.571336" points="821.358,-95.0004 830.655,-89.9196 820.219,-88.0937 821.358,-95.0004"/>
</g>
<!-- &#45;6&#45;&gt;410 -->
<g id="edge50" class="edge"><title>&#45;6&#45;&gt;410</title>
<path fill="none" stroke="red" stroke-width="0.218726" d="M651.021,-162.461C645.074,-151.52 634.28,-131.662 625.328,-115.191"/>
<polygon fill="red" stroke="red" stroke-width="0.218726" points="628.171,-113.093 620.32,-105.978 622.02,-116.436 628.171,-113.093"/>
</g>
<!-- &#45;7 -->
<g id="node7" class="node"><title>&#45;7</title>
<polygon fill="lightgray" stroke="black" points="246.5,-180.702 222.5,-180.702 222.5,-162.702 246.5,-162.702 246.5,-180.702"/>
<text text-anchor="middle" x="234.5" y="-169.502" font-family="Times,serif" font-size="9.00">&#45;7</text>
</g>
<!-- &#45;7&#45;&gt;0 -->
<g id="edge45" class="edge"><title>&#45;7&#45;&gt;0</title>
<path fill="none" stroke="green" stroke-width="0.119062" d="M240.155,-162.246C244.081,-156.729 249.641,-149.569 255.5,-144.125 274.433,-126.533 299.329,-110.435 316.9,-100.018"/>
<polygon fill="green" stroke="green" stroke-width="0.119062" points="318.93,-102.887 325.823,-94.8412 315.417,-96.8317 318.93,-102.887"/>
</g>
<!-- &#45;8 -->
<g id="node8" class="node"><title>&#45;8</title>
<polygon fill="lightgray" stroke="black" points="288.5,-180.702 264.5,-180.702 264.5,-162.702 288.5,-162.702 288.5,-180.702"/>
<text text-anchor="middle" x="276.5" y="-169.502" font-family="Times,serif" font-size="9.00">&#45;8</text>
</g>
<!-- &#45;8&#45;&gt;3 -->
<g id="edge35" class="edge"><title>&#45;8&#45;&gt;3</title>
<path fill="none" stroke="green" stroke-width="0.126039" d="M270.865,-162.225C266.947,-156.699 261.389,-149.536 255.5,-144.125 236.045,-126.247 210.362,-110.097 192.338,-99.7436"/>
<polygon fill="green" stroke="green" stroke-width="0.126039" points="193.634,-96.4574 183.2,-94.6138 190.207,-102.561 193.634,-96.4574"/>
</g>
<!-- &#45;8&#45;&gt;410 -->
<g id="edge49" class="edge"><title>&#45;8&#45;&gt;410</title>
<path fill="none" stroke="green" stroke-width="0.428998" d="M288.841,-164.17C300.562,-158.203 318.823,-149.512 335.5,-144.125 421.651,-116.297 527.594,-99.2537 579.228,-91.998"/>
<polygon fill="green" stroke="green" stroke-width="0.428998" points="579.966,-95.4295 589.395,-90.598 579.011,-88.4949 579.966,-95.4295"/>
</g>
<!-- &#45;9 -->
<g id="node9" class="node"><title>&#45;9</title>
<polygon fill="lightgray" stroke="black" points="865.5,-253.279 841.5,-253.279 841.5,-235.279 865.5,-235.279 865.5,-253.279"/>
<text text-anchor="middle" x="853.5" y="-242.079" font-family="Times,serif" font-size="9.00">&#45;9</text>
</g>
<!-- &#45;9&#45;&gt;1 -->
<g id="edge31" class="edge"><title>&#45;9&#45;&gt;1</title>
<path fill="none" stroke="red" stroke-width="0.492724" d="M865.535,-238.104C885.109,-229.414 922.38,-211.629 929.5,-199.279 941.744,-178.043 941.048,-165.748 929.5,-144.125 916.771,-120.29 888.964,-104.791 868.822,-96.2225"/>
<polygon fill="red" stroke="red" stroke-width="0.492724" points="869.966,-92.9105 859.38,-92.4664 867.378,-99.4148 869.966,-92.9105"/>
</g>
<!-- &#45;9&#45;&gt;3009 -->
<g id="edge48" class="edge"><title>&#45;9&#45;&gt;3009</title>
<path fill="none" stroke="green" stroke-width="0.121416" d="M841.28,-242.175C782.346,-236.794 528.994,-213.029 496.5,-199.279 494.07,-198.251 491.672,-196.989 489.347,-195.578"/>
<polygon fill="green" stroke="green" stroke-width="0.121416" points="491.008,-192.469 480.813,-189.588 486.986,-198.198 491.008,-192.469"/>
</g>
<!-- &#45;10 -->
<g id="node10" class="node"><title>&#45;10</title>
<polygon fill="lightgray" stroke="black" points="625,-180.702 596,-180.702 596,-162.702 625,-162.702 625,-180.702"/>
<text text-anchor="middle" x="610.5" y="-169.502" font-family="Times,serif" font-size="9.00">&#45;10</text>
</g>
<!-- &#45;10&#45;&gt;410 -->
<g id="edge11" class="edge"><title>&#45;10&#45;&gt;410</title>
<path fill="none" stroke="red" stroke-width="0.580548" d="M610.5,-162.461C610.5,-152.292 610.5,-134.42 610.5,-118.724"/>
<polygon fill="red" stroke="red" stroke-width="0.580548" points="614,-118.327 610.5,-108.327 607,-118.327 614,-118.327"/>
</g>
<!-- &#45;11 -->
<g id="node11" class="node"><title>&#45;11</title>
<polygon fill="lightgray" stroke="black" points="115,-180.702 86,-180.702 86,-162.702 115,-162.702 115,-180.702"/>
<text text-anchor="middle" x="100.5" y="-169.502" font-family="Times,serif" font-size="9.00">&#45;11</text>
</g>
<!-- &#45;11&#45;&gt;3 -->
<g id="edge32" class="edge"><title>&#45;11&#45;&gt;3</title>
<path fill="none" stroke="red" stroke-width="0.184237" d="M107.468,-162.461C118.404,-149.526 139.879,-124.128 154.7,-106.598"/>
<polygon fill="red" stroke="red" stroke-width="0.184237" points="157.583,-108.61 161.367,-98.7138 152.237,-104.09 157.583,-108.61"/>
</g>
<!-- &#45;12 -->
<g id="node12" class="node"><title>&#45;12</title>
<polygon fill="lightgray" stroke="black" points="29,-180.702 0,-180.702 0,-162.702 29,-162.702 29,-180.702"/>
<text text-anchor="middle" x="14.5" y="-169.502" font-family="Times,serif" font-size="9.00">&#45;12</text>
</g>
<!-- &#45;12&#45;&gt;2 -->
<g id="edge23" class="edge"><title>&#45;12&#45;&gt;2</title>
<path fill="none" stroke="red" stroke-width="0.449215" d="M21.4693,-162.455C39.5685,-141.716 90.5655,-87.4923 146.5,-65.6985 273.265,-16.3067 711.591,-15.1542 821.403,-15.6644"/>
<polygon fill="red" stroke="red" stroke-width="0.449215" points="821.509,-19.1649 831.528,-15.7209 821.548,-12.165 821.509,-19.1649"/>
</g>
<!-- &#45;12&#45;&gt;3 -->
<g id="edge44" class="edge"><title>&#45;12&#45;&gt;3</title>
<path fill="none" stroke="red" stroke-width="0.46056" d="M22.0384,-162.501C27.5758,-156.816 35.4988,-149.359 43.5,-144.125 76.9898,-122.218 120.435,-105.089 146.852,-95.7509"/>
<polygon fill="red" stroke="red" stroke-width="0.46056" points="148.098,-99.0233 156.408,-92.4508 145.813,-92.4067 148.098,-99.0233"/>
</g>
<!-- &#45;13 -->
<g id="node13" class="node"><title>&#45;13</title>
<polygon fill="lightgray" stroke="black" points="913,-253.279 884,-253.279 884,-235.279 913,-235.279 913,-253.279"/>
<text text-anchor="middle" x="898.5" y="-242.079" font-family="Times,serif" font-size="9.00">&#45;13</text>
</g>
<!-- &#45;14 -->
<g id="node14" class="node"><title>&#45;14</title>
<polygon fill="lightgray" stroke="black" points="1054,-180.702 1025,-180.702 1025,-162.702 1054,-162.702 1054,-180.702"/>
<text text-anchor="middle" x="1039.5" y="-169.502" font-family="Times,serif" font-size="9.00">&#45;14</text>
</g>
<!-- &#45;14&#45;&gt;1 -->
<g id="edge47" class="edge"><title>&#45;14&#45;&gt;1</title>
<path fill="none" stroke="red" stroke-width="0.408527" d="M1034.04,-162.7C1029.66,-156.813 1023,-149.015 1015.5,-144.125 969.213,-113.942 905.239,-98.5722 870.46,-91.9964"/>
<polygon fill="red" stroke="red" stroke-width="0.408527" points="870.714,-88.4862 860.253,-90.1629 869.477,-95.3759 870.714,-88.4862"/>
</g>
<!-- &#45;14&#45;&gt;2 -->
<g id="edge15" class="edge"><title>&#45;14&#45;&gt;2</title>
<path fill="none" stroke="green" stroke-width="0.366994" d="M1032.73,-162.427C1028.11,-156.987 1021.73,-149.843 1015.5,-144.125 965.403,-98.1256 899.656,-51.7509 866.896,-29.4713"/>
<polygon fill="green" stroke="green" stroke-width="0.366994" points="868.816,-26.5449 858.571,-23.8466 864.897,-32.3451 868.816,-26.5449"/>
</g>
<!-- &#45;15 -->
<g id="node15" class="node"><title>&#45;15</title>
<polygon fill="lightgray" stroke="black" points="831,-180.702 802,-180.702 802,-162.702 831,-162.702 831,-180.702"/>
<text text-anchor="middle" x="816.5" y="-169.502" font-family="Times,serif" font-size="9.00">&#45;15</text>
</g>
<!-- &#45;15&#45;&gt;1 -->
<g id="edge17" class="edge"><title>&#45;15&#45;&gt;1</title>
<path fill="none" stroke="green" stroke-width="0.270693" d="M819.387,-162.461C823.539,-150.606 831.359,-128.283 837.363,-111.142"/>
<polygon fill="green" stroke="green" stroke-width="0.270693" points="840.815,-111.874 840.817,-101.28 834.208,-109.56 840.815,-111.874"/>
</g>
<!-- &#45;15&#45;&gt;410 -->
<g id="edge3" class="edge"><title>&#45;15&#45;&gt;410</title>
<path fill="none" stroke="green" stroke-width="0.344356" d="M811.072,-162.657C806.697,-156.748 800.047,-148.94 792.5,-144.125 744.72,-113.638 679.343,-98.777 641.345,-92.2837"/>
<polygon fill="green" stroke="green" stroke-width="0.344356" points="641.823,-88.8155 631.391,-90.6681 640.701,-95.7251 641.823,-88.8155"/>
</g>
<!-- &#45;16 -->
<g id="node16" class="node"><title>&#45;16</title>
<polygon fill="lightgray" stroke="black" points="374,-180.702 345,-180.702 345,-162.702 374,-162.702 374,-180.702"/>
<text text-anchor="middle" x="359.5" y="-169.502" font-family="Times,serif" font-size="9.00">&#45;16</text>
</g>
<!-- &#45;16&#45;&gt;0 -->
<g id="edge19" class="edge"><title>&#45;16&#45;&gt;0</title>
<path fill="none" stroke="green" stroke-width="0.651937" d="M357.41,-162.461C354.42,-150.674 348.805,-128.538 344.467,-111.437"/>
<polygon fill="green" stroke="green" stroke-width="0.651937" points="347.818,-110.41 341.966,-101.577 341.032,-112.131 347.818,-110.41"/>
</g>
<!-- &#45;16&#45;&gt;1 -->
<g id="edge33" class="edge"><title>&#45;16&#45;&gt;1</title>
<path fill="none" stroke="green" stroke-width="0.412903" d="M364.401,-162.263C368.436,-156.147 374.743,-148.253 382.5,-144.125 392.308,-138.904 725.854,-101.291 820.619,-90.6875"/>
<polygon fill="green" stroke="green" stroke-width="0.412903" points="821.169,-94.148 830.718,-89.5587 820.391,-87.1913 821.169,-94.148"/>
</g>
<!-- &#45;16&#45;&gt;3 -->
<g id="edge5" class="edge"><title>&#45;16&#45;&gt;3</title>
<path fill="none" stroke="green" stroke-width="0.593194" d="M344.983,-164.343C312.222,-149.992 232.352,-115.006 193.07,-97.7985"/>
<polygon fill="green" stroke="green" stroke-width="0.593194" points="194.357,-94.5409 183.792,-93.7344 191.548,-100.953 194.357,-94.5409"/>
</g>
<!-- &#45;16&#45;&gt;410 -->
<g id="edge21" class="edge"><title>&#45;16&#45;&gt;410</title>
<path fill="none" stroke="red" stroke-width="0.348401" d="M364.552,-162.528C368.666,-156.55 375.007,-148.715 382.5,-144.125 445.232,-105.7 532.806,-93.5152 579.035,-89.6698"/>
<polygon fill="red" stroke="red" stroke-width="0.348401" points="579.346,-93.1564 589.054,-88.9146 578.819,-86.1763 579.346,-93.1564"/>
</g>
<!-- &#45;17 -->
<g id="node17" class="node"><title>&#45;17</title>
<polygon fill="lightgray" stroke="black" points="535,-180.702 506,-180.702 506,-162.702 535,-162.702 535,-180.702"/>
<text text-anchor="middle" x="520.5" y="-169.502" font-family="Times,serif" font-size="9.00">&#45;17</text>
</g>
<!-- &#45;17&#45;&gt;1 -->
<g id="edge10" class="edge"><title>&#45;17&#45;&gt;1</title>
<path fill="none" stroke="green" stroke-width="0.318655" d="M525.776,-162.404C530.071,-156.361 536.689,-148.499 544.5,-144.125 592.085,-117.479 756.749,-97.4353 820.25,-90.5277"/>
<polygon fill="green" stroke="green" stroke-width="0.318655" points="820.976,-93.9701 830.547,-89.4269 820.231,-87.0098 820.976,-93.9701"/>
</g>
<!-- &#45;17&#45;&gt;3 -->
<g id="edge6" class="edge"><title>&#45;17&#45;&gt;3</title>
<path fill="none" stroke="green" stroke-width="0.215863" d="M515.539,-162.372C511.473,-156.313 505.152,-148.444 497.5,-144.125 484.229,-136.635 269.417,-103.111 195.362,-91.7163"/>
<polygon fill="green" stroke="green" stroke-width="0.215863" points="195.532,-88.2015 185.117,-90.143 194.469,-95.1204 195.532,-88.2015"/>
</g>
<!-- &#45;17&#45;&gt;410 -->
<g id="edge51" class="edge"><title>&#45;17&#45;&gt;410</title>
<path fill="none" stroke="green" stroke-width="0.247209" d="M527.379,-162.541C532.041,-157.149 538.435,-150.016 544.5,-144.125 557.784,-131.221 573.546,-117.734 586.335,-107.207"/>
<polygon fill="green" stroke="green" stroke-width="0.247209" points="588.714,-109.783 594.253,-100.752 584.291,-104.358 588.714,-109.783"/>
</g>
<!-- &#45;18 -->
<g id="node18" class="node"><title>&#45;18</title>
<polygon fill="lightgray" stroke="black" points="921,-180.702 892,-180.702 892,-162.702 921,-162.702 921,-180.702"/>
<text text-anchor="middle" x="906.5" y="-169.502" font-family="Times,serif" font-size="9.00">&#45;18</text>
</g>
<!-- &#45;18&#45;&gt;1 -->
<g id="edge8" class="edge"><title>&#45;18&#45;&gt;1</title>
<path fill="none" stroke="red" stroke-width="0.157817" d="M900.428,-162.461C891.087,-149.783 872.924,-125.132 860.045,-107.652"/>
<polygon fill="red" stroke="red" stroke-width="0.157817" points="862.615,-105.241 853.866,-99.266 856.98,-109.393 862.615,-105.241"/>
</g>
<!-- &#45;18&#45;&gt;2 -->
<g id="edge25" class="edge"><title>&#45;18&#45;&gt;2</title>
<path fill="none" stroke="red" stroke-width="0.131496" d="M906.405,-162.653C905.908,-144.497 903.069,-99.3205 887.5,-65.6985 881.819,-53.4297 872.385,-41.6525 863.999,-32.6288"/>
<polygon fill="red" stroke="red" stroke-width="0.131496" points="866.504,-30.1846 857.018,-25.4646 861.49,-35.0696 866.504,-30.1846"/>
</g>
<!-- &#45;18&#45;&gt;410 -->
<g id="edge13" class="edge"><title>&#45;18&#45;&gt;410</title>
<path fill="none" stroke="green" stroke-width="0.740574" d="M901.199,-162.447C896.892,-156.427 890.269,-148.574 882.5,-144.125 804.204,-99.29 695.056,-89.9648 641.981,-88.1927"/>
<polygon fill="green" stroke="green" stroke-width="0.740574" points="641.927,-84.6902 631.838,-87.9249 641.743,-91.6877 641.927,-84.6902"/>
</g>
<!-- &#45;19 -->
<g id="node19" class="node"><title>&#45;19</title>
<polygon fill="lightgray" stroke="black" points="162,-180.702 133,-180.702 133,-162.702 162,-162.702 162,-180.702"/>
<text text-anchor="middle" x="147.5" y="-169.502" font-family="Times,serif" font-size="9.00">&#45;19</text>
</g>
<!-- &#45;19&#45;&gt;0 -->
<g id="edge40" class="edge"><title>&#45;19&#45;&gt;0</title>
<path fill="none" stroke="red" stroke-width="0.356905" d="M153.147,-162.465C157.541,-156.614 164.118,-148.967 171.5,-144.125 216.972,-114.301 279.816,-98.7911 313.981,-92.0968"/>
<polygon fill="red" stroke="red" stroke-width="0.356905" points="314.819,-95.5009 324.008,-90.2261 313.535,-88.6196 314.819,-95.5009"/>
</g>
<!-- &#45;19&#45;&gt;3 -->
<g id="edge4" class="edge"><title>&#45;19&#45;&gt;3</title>
<path fill="none" stroke="red" stroke-width="0.428542" d="M149.789,-162.461C153.064,-150.674 159.214,-128.538 163.965,-111.437"/>
<polygon fill="red" stroke="red" stroke-width="0.428542" points="167.399,-112.149 166.704,-101.577 160.655,-110.275 167.399,-112.149"/>
</g>
<!-- &#45;20 -->
<g id="node20" class="node"><title>&#45;20</title>
<polygon fill="lightgray" stroke="black" points="728,-253.279 699,-253.279 699,-235.279 728,-235.279 728,-253.279"/>
<text text-anchor="middle" x="713.5" y="-242.079" font-family="Times,serif" font-size="9.00">&#45;20</text>
</g>
<!-- 13854 -->
<g id="node31" class="node"><title>13854</title>
<ellipse fill="white" stroke="black" cx="713.5" cy="-171.702" rx="27.6545" ry="27.6545"/>
<text text-anchor="middle" x="713.5" y="-169.502" font-family="Times,serif" font-size="9.00">13854</text>
</g>
<!-- &#45;20&#45;&gt;13854 -->
<g id="edge37" class="edge"><title>&#45;20&#45;&gt;13854</title>
<path fill="none" stroke="green" stroke-width="0.120097" d="M713.5,-235.183C713.5,-228.734 713.5,-219.209 713.5,-209.53"/>
<polygon fill="green" stroke="green" stroke-width="0.120097" points="717,-209.51 713.5,-199.51 710,-209.51 717,-209.51"/>
</g>
<!-- &#45;21 -->
<g id="node21" class="node"><title>&#45;21</title>
<polygon fill="lightgray" stroke="black" points="1007,-180.702 978,-180.702 978,-162.702 1007,-162.702 1007,-180.702"/>
<text text-anchor="middle" x="992.5" y="-169.502" font-family="Times,serif" font-size="9.00">&#45;21</text>
</g>
<!-- &#45;21&#45;&gt;1 -->
<g id="edge9" class="edge"><title>&#45;21&#45;&gt;1</title>
<path fill="none" stroke="red" stroke-width="0.158991" d="M984.916,-162.569C979.357,-156.917 971.427,-149.47 963.5,-144.125 932.878,-123.48 893.5,-106.365 868.875,-96.6359"/>
<polygon fill="red" stroke="red" stroke-width="0.158991" points="869.883,-93.2729 859.293,-92.9297 867.357,-99.8016 869.883,-93.2729"/>
</g>
<!-- &#45;22 -->
<g id="node22" class="node"><title>&#45;22</title>
<polygon fill="lightgray" stroke="black" points="1101,-180.702 1072,-180.702 1072,-162.702 1101,-162.702 1101,-180.702"/>
<text text-anchor="middle" x="1086.5" y="-169.502" font-family="Times,serif" font-size="9.00">&#45;22</text>
</g>
<!-- &#45;22&#45;&gt;1 -->
<g id="edge22" class="edge"><title>&#45;22&#45;&gt;1</title>
<path fill="none" stroke="red" stroke-width="0.724297" d="M1081.43,-162.55C1077.31,-156.585 1070.97,-148.754 1063.5,-144.125 1001.16,-105.481 913.067,-93.2859 870.481,-89.5289"/>
<polygon fill="red" stroke="red" stroke-width="0.724297" points="870.688,-86.0344 860.441,-88.7278 870.131,-93.0122 870.688,-86.0344"/>
</g>
<!-- &#45;22&#45;&gt;2 -->
<g id="edge41" class="edge"><title>&#45;22&#45;&gt;2</title>
<path fill="none" stroke="red" stroke-width="0.361414" d="M1080.08,-162.384C1075.69,-156.926 1069.58,-149.778 1063.5,-144.125 1020.86,-104.444 1008.75,-95.1515 958.5,-65.6985 929.229,-48.5426 892.984,-33.4235 869.8,-24.4567"/>
<polygon fill="red" stroke="red" stroke-width="0.361414" points="871.022,-21.1768 860.431,-20.8935 868.533,-27.7196 871.022,-21.1768"/>
</g>
<!-- &#45;23 -->
<g id="node23" class="node"><title>&#45;23</title>
<polygon fill="lightgray" stroke="black" points="421,-180.702 392,-180.702 392,-162.702 421,-162.702 421,-180.702"/>
<text text-anchor="middle" x="406.5" y="-169.502" font-family="Times,serif" font-size="9.00">&#45;23</text>
</g>
<!-- &#45;23&#45;&gt;0 -->
<g id="edge1" class="edge"><title>&#45;23&#45;&gt;0</title>
<path fill="none" stroke="green" stroke-width="0.422383" d="M399.731,-162.461C389.165,-149.597 368.473,-124.404 354.084,-106.885"/>
<polygon fill="green" stroke="green" stroke-width="0.422383" points="356.65,-104.495 347.598,-98.9886 351.24,-108.938 356.65,-104.495"/>
</g>
<!-- &#45;23&#45;&gt;410 -->
<g id="edge42" class="edge"><title>&#45;23&#45;&gt;410</title>
<path fill="none" stroke="green" stroke-width="0.341975" d="M411.633,-162.654C415.788,-156.743 422.147,-148.935 429.5,-144.125 476.567,-113.336 541.474,-98.6018 579.414,-92.2089"/>
<polygon fill="green" stroke="green" stroke-width="0.341975" points="580.04,-95.6534 589.363,-90.6205 578.936,-88.7409 580.04,-95.6534"/>
</g>
<!-- &#45;24 -->
<g id="node24" class="node"><title>&#45;24</title>
<polygon fill="lightgray" stroke="black" points="960,-253.279 931,-253.279 931,-235.279 960,-235.279 960,-253.279"/>
<text text-anchor="middle" x="945.5" y="-242.079" font-family="Times,serif" font-size="9.00">&#45;24</text>
</g>
<!-- 1&#45;&gt;1 -->
<g id="edge26" class="edge"><title>1&#45;&gt;1</title>
<path fill="none" stroke="red" stroke-width="0.245091" d="M856.267,-97.6398C866.789,-103.566 878.349,-99.9898 878.349,-86.9117 878.349,-77.9205 872.885,-73.4205 866.051,-73.4117"/>
<polygon fill="red" stroke="red" stroke-width="0.245091" points="864.934,-70.0903 856.267,-76.1835 866.842,-76.8252 864.934,-70.0903"/>
</g>
<!-- 3&#45;&gt;3 -->
<g id="edge14" class="edge"><title>3&#45;&gt;3</title>
<path fill="none" stroke="green" stroke-width="0.676729" d="M181.267,-97.6398C191.789,-103.566 203.349,-99.9898 203.349,-86.9117 203.349,-77.9205 197.885,-73.4205 191.051,-73.4117"/>
<polygon fill="green" stroke="green" stroke-width="0.676729" points="189.934,-70.0903 181.267,-76.1835 191.842,-76.8252 189.934,-70.0903"/>
</g>
<!-- 3009&#45;&gt;410 -->
<g id="edge30" class="edge"><title>3009&#45;&gt;410</title>
<path fill="none" stroke="red" stroke-width="0.302081" d="M481.812,-154.778C486.456,-151.074 491.539,-147.291 496.5,-144.125 524.169,-126.465 558.173,-110.349 581.808,-99.9451"/>
<polygon fill="red" stroke="red" stroke-width="0.302081" points="583.472,-103.038 591.254,-95.8481 580.687,-96.6164 583.472,-103.038"/>
</g>
<!-- 410&#45;&gt;2 -->
<g id="edge7" class="edge"><title>410&#45;&gt;2</title>
<path fill="none" stroke="red" stroke-width="0.485304" d="M630.621,-79.9382C673.951,-67.0747 775.923,-36.8018 822.516,-22.9694"/>
<polygon fill="red" stroke="red" stroke-width="0.485304" points="823.752,-26.2535 832.343,-20.0522 821.76,-19.543 823.752,-26.2535"/>
</g>
<!-- 410&#45;&gt;410 -->
<g id="edge29" class="edge"><title>410&#45;&gt;410</title>
<path fill="none" stroke="red" stroke-width="0.602273" d="M627.837,-99.3438C638.984,-102.587 649.713,-98.4429 649.713,-86.9117 649.713,-78.984 644.642,-74.5478 637.85,-73.6033"/>
<polygon fill="red" stroke="red" stroke-width="0.602273" points="637.493,-70.1211 627.837,-74.4796 638.104,-77.0944 637.493,-70.1211"/>
</g>
<!-- 13854&#45;&gt;410 -->
<g id="edge2" class="edge"><title>13854&#45;&gt;410</title>
<path fill="none" stroke="green" stroke-width="0.153937" d="M692.158,-153.548C675.448,-140.116 652.196,-121.427 634.777,-107.425"/>
<polygon fill="green" stroke="green" stroke-width="0.153937" points="636.735,-104.509 626.748,-100.972 632.349,-109.965 636.735,-104.509"/>
</g>
</g>
</svg>
