<?xml version="1.0" encoding="UTF-8" standalone="no"?>
<!DOCTYPE svg PUBLIC "-//W3C//DTD SVG 1.1//EN"
 "http://www.w3.org/Graphics/SVG/1.1/DTD/svg11.dtd">
<!-- Generated by graphviz version 2.38.0 (20140413.2041)
 -->
<!-- Title: %3 Pages: 1 -->
<svg width="1121pt" height="256pt"
 viewBox="0.00 0.00 1121.00 255.62" xmlns="http://www.w3.org/2000/svg" xmlns:xlink="http://www.w3.org/1999/xlink">
<g id="graph0" class="graph" transform="scale(1 1) rotate(0) translate(4 251.622)">
<title>%3</title>
<polygon fill="white" stroke="none" points="-4,4 -4,-251.622 1117,-251.622 1117,4 -4,4"/>
<!-- &#45;1 -->
<g id="node1" class="node"><title>&#45;1</title>
<polygon fill="lightgray" stroke="black" points="489.5,-177.874 465.5,-177.874 465.5,-159.874 489.5,-159.874 489.5,-177.874"/>
<text text-anchor="middle" x="477.5" y="-166.674" font-family="Times,serif" font-size="9.00">&#45;1</text>
</g>
<!-- 410 -->
<g id="node30" class="node"><title>410</title>
<ellipse fill="white" stroke="black" cx="522.5" cy="-86.9117" rx="21.4286" ry="21.4286"/>
<text text-anchor="middle" x="522.5" y="-84.7117" font-family="Times,serif" font-size="9.00">410</text>
</g>
<!-- &#45;1&#45;&gt;410 -->
<g id="edge35" class="edge"><title>&#45;1&#45;&gt;410</title>
<path fill="none" stroke="green" stroke-width="0.459337" d="M482.146,-159.617C488.078,-149.077 498.631,-130.326 507.457,-114.642"/>
<polygon fill="green" stroke="green" stroke-width="0.459337" points="510.552,-116.279 512.406,-105.847 504.452,-112.846 510.552,-116.279"/>
</g>
<!-- &#45;2 -->
<g id="node2" class="node"><title>&#45;2</title>
<polygon fill="lightgray" stroke="black" points="337.5,-177.874 313.5,-177.874 313.5,-159.874 337.5,-159.874 337.5,-177.874"/>
<text text-anchor="middle" x="325.5" y="-166.674" font-family="Times,serif" font-size="9.00">&#45;2</text>
</g>
<!-- 1 -->
<g id="node26" class="node"><title>1</title>
<ellipse fill="lightblue" stroke="black" cx="254.5" cy="-86.9117" rx="14.7" ry="14.7"/>
<text text-anchor="middle" x="254.5" y="-84.7117" font-family="Times,serif" font-size="9.00">1</text>
</g>
<!-- &#45;2&#45;&gt;1 -->
<g id="edge10" class="edge"><title>&#45;2&#45;&gt;1</title>
<path fill="none" stroke="red" stroke-width="0.258252" d="M318.169,-159.617C307.025,-147.067 285.545,-122.876 270.634,-106.082"/>
<polygon fill="red" stroke="red" stroke-width="0.258252" points="273.172,-103.67 263.916,-98.5158 267.938,-108.317 273.172,-103.67"/>
</g>
<!-- &#45;2&#45;&gt;410 -->
<g id="edge41" class="edge"><title>&#45;2&#45;&gt;410</title>
<path fill="none" stroke="red" stroke-width="0.24774" d="M330.884,-159.807C334.696,-154.661 340.231,-148.214 346.5,-144.125 391.982,-114.46 454.275,-99.4468 491.257,-92.6801"/>
<polygon fill="red" stroke="red" stroke-width="0.24774" points="492.175,-96.073 501.428,-90.9112 490.976,-89.1765 492.175,-96.073"/>
</g>
<!-- &#45;3 -->
<g id="node3" class="node"><title>&#45;3</title>
<polygon fill="lightgray" stroke="black" points="379.5,-177.874 355.5,-177.874 355.5,-159.874 379.5,-159.874 379.5,-177.874"/>
<text text-anchor="middle" x="367.5" y="-166.674" font-family="Times,serif" font-size="9.00">&#45;3</text>
</g>
<!-- 0 -->
<g id="node25" class="node"><title>0</title>
<ellipse fill="lightblue" stroke="black" cx="798.5" cy="-86.9117" rx="14.7" ry="14.7"/>
<text text-anchor="middle" x="798.5" y="-84.7117" font-family="Times,serif" font-size="9.00">0</text>
</g>
<!-- &#45;3&#45;&gt;0 -->
<g id="edge45" class="edge"><title>&#45;3&#45;&gt;0</title>
<path fill="none" stroke="green" stroke-width="0.185914" d="M372.667,-159.44C376.387,-154.139 381.901,-147.658 388.5,-144.125 422.599,-125.871 689.416,-98.5535 773.328,-90.3348"/>
<polygon fill="green" stroke="green" stroke-width="0.185914" points="773.873,-93.7984 783.487,-89.3459 773.195,-86.8314 773.873,-93.7984"/>
</g>
<!-- &#45;3&#45;&gt;1 -->
<g id="edge33" class="edge"><title>&#45;3&#45;&gt;1</title>
<path fill="none" stroke="red" stroke-width="0.119197" d="M361.411,-159.841C357.477,-154.96 352.068,-148.792 346.5,-144.125 324.534,-125.713 295.929,-109.214 276.487,-98.9284"/>
<polygon fill="red" stroke="red" stroke-width="0.119197" points="277.983,-95.7614 267.494,-94.2676 274.762,-101.976 277.983,-95.7614"/>
</g>
<!-- 2 -->
<g id="node27" class="node"><title>2</title>
<ellipse fill="lightblue" stroke="black" cx="151.5" cy="-14.8492" rx="14.7" ry="14.7"/>
<text text-anchor="middle" x="151.5" y="-12.6492" font-family="Times,serif" font-size="9.00">2</text>
</g>
<!-- &#45;3&#45;&gt;2 -->
<g id="edge19" class="edge"><title>&#45;3&#45;&gt;2</title>
<path fill="none" stroke="green" stroke-width="0.223675" d="M364.002,-159.665C355.39,-140.416 331.307,-92.012 296.5,-65.6985 259.84,-37.9838 206.679,-24.9785 175.947,-19.4477"/>
<polygon fill="green" stroke="green" stroke-width="0.223675" points="176.518,-15.9945 166.076,-17.7912 175.359,-22.898 176.518,-15.9945"/>
</g>
<!-- &#45;4 -->
<g id="node4" class="node"><title>&#45;4</title>
<polygon fill="lightgray" stroke="black" points="512.5,-247.622 488.5,-247.622 488.5,-229.622 512.5,-229.622 512.5,-247.622"/>
<text text-anchor="middle" x="500.5" y="-236.422" font-family="Times,serif" font-size="9.00">&#45;4</text>
</g>
<!-- &#45;4&#45;&gt;0 -->
<g id="edge36" class="edge"><title>&#45;4&#45;&gt;0</title>
<path fill="none" stroke="red" stroke-width="0.823578" d="M512.769,-232.342C515.594,-231.297 518.616,-230.312 521.5,-229.622 595.394,-211.951 810.683,-250.105 861.5,-193.622 876.214,-177.268 870.493,-164.202 861.5,-144.125 853.014,-125.181 834.639,-109.994 819.912,-100.205"/>
<polygon fill="red" stroke="red" stroke-width="0.823578" points="821.666,-97.1735 811.335,-94.8221 817.945,-103.103 821.666,-97.1735"/>
</g>
<!-- &#45;4&#45;&gt;1 -->
<g id="edge46" class="edge"><title>&#45;4&#45;&gt;1</title>
<path fill="none" stroke="green" stroke-width="0.652797" d="M488.29,-237.371C443.186,-236.163 286.998,-229.418 256.5,-193.622 237.195,-170.964 241.545,-134.594 247.328,-110.976"/>
<polygon fill="green" stroke="green" stroke-width="0.652797" points="250.762,-111.684 250.006,-101.116 244.007,-109.849 250.762,-111.684"/>
</g>
<!-- 3 -->
<g id="node28" class="node"><title>3</title>
<ellipse fill="lightblue" stroke="black" cx="942.5" cy="-86.9117" rx="14.7" ry="14.7"/>
<text text-anchor="middle" x="942.5" y="-84.7117" font-family="Times,serif" font-size="9.00">3</text>
</g>
<!-- &#45;4&#45;&gt;3 -->
<g id="edge16" class="edge"><title>&#45;4&#45;&gt;3</title>
<path fill="none" stroke="green" stroke-width="0.168103" d="M512.752,-232.265C515.577,-231.225 518.604,-230.26 521.5,-229.622 577.518,-217.279 997.379,-235.574 1036.5,-193.622 1051.5,-177.534 1047.35,-163.26 1036.5,-144.125 1021.61,-117.877 989.061,-102.57 966.465,-94.7254"/>
<polygon fill="green" stroke="green" stroke-width="0.168103" points="967.475,-91.3736 956.884,-91.634 965.326,-98.0355 967.475,-91.3736"/>
</g>
<!-- 3009 -->
<g id="node29" class="node"><title>3009</title>
<ellipse fill="white" stroke="black" cx="422.5" cy="-168.874" rx="25" ry="25"/>
<text text-anchor="middle" x="422.5" y="-166.674" font-family="Times,serif" font-size="9.00">3009</text>
</g>
<!-- &#45;4&#45;&gt;3009 -->
<g id="edge23" class="edge"><title>&#45;4&#45;&gt;3009</title>
<path fill="none" stroke="red" stroke-width="0.267137" d="M491.246,-229.585C480.827,-220.535 463.435,-205.428 448.751,-192.675"/>
<polygon fill="red" stroke="red" stroke-width="0.267137" points="450.779,-189.8 440.934,-185.885 446.189,-195.085 450.779,-189.8"/>
</g>
<!-- &#45;5 -->
<g id="node5" class="node"><title>&#45;5</title>
<polygon fill="lightgray" stroke="black" points="932.5,-177.874 908.5,-177.874 908.5,-159.874 932.5,-159.874 932.5,-177.874"/>
<text text-anchor="middle" x="920.5" y="-166.674" font-family="Times,serif" font-size="9.00">&#45;5</text>
</g>
<!-- &#45;5&#45;&gt;0 -->
<g id="edge26" class="edge"><title>&#45;5&#45;&gt;0</title>
<path fill="none" stroke="red" stroke-width="1.74318" d="M912.225,-159.48C907.3,-154.704 900.8,-148.766 894.5,-144.125 870.447,-126.404 840.411,-109.575 820.404,-99.0293"/>
<polygon fill="red" stroke="red" stroke-width="1.74318" points="821.946,-95.8862 811.459,-94.381 818.718,-102.098 821.946,-95.8862"/>
</g>
<!-- &#45;5&#45;&gt;3 -->
<g id="edge37" class="edge"><title>&#45;5&#45;&gt;3</title>
<path fill="none" stroke="green" stroke-width="0.529916" d="M922.772,-159.617C925.87,-148.357 931.545,-127.728 936.017,-111.477"/>
<polygon fill="green" stroke="green" stroke-width="0.529916" points="939.463,-112.143 938.742,-101.572 932.714,-110.286 939.463,-112.143"/>
</g>
<!-- &#45;6 -->
<g id="node6" class="node"><title>&#45;6</title>
<polygon fill="lightgray" stroke="black" points="579.5,-177.874 555.5,-177.874 555.5,-159.874 579.5,-159.874 579.5,-177.874"/>
<text text-anchor="middle" x="567.5" y="-166.674" font-family="Times,serif" font-size="9.00">&#45;6</text>
</g>
<!-- &#45;6&#45;&gt;0 -->
<g id="edge14" class="edge"><title>&#45;6&#45;&gt;0</title>
<path fill="none" stroke="green" stroke-width="0.195761" d="M572.821,-159.707C576.606,-154.52 582.135,-148.064 588.5,-144.125 648.306,-107.115 732.316,-94.2002 773.604,-89.912"/>
<polygon fill="green" stroke="green" stroke-width="0.195761" points="773.979,-93.3922 783.601,-88.9581 773.314,-86.4239 773.979,-93.3922"/>
</g>
<!-- &#45;6&#45;&gt;1 -->
<g id="edge27" class="edge"><title>&#45;6&#45;&gt;1</title>
<path fill="none" stroke="red" stroke-width="0.139226" d="M561.934,-159.558C557.973,-154.308 552.181,-147.838 545.5,-144.125 456.901,-94.89 332.35,-88.1419 279.636,-87.647"/>
<polygon fill="red" stroke="red" stroke-width="0.139226" points="279.525,-84.1468 269.517,-87.6233 279.508,-91.1468 279.525,-84.1468"/>
</g>
<!-- &#45;6&#45;&gt;410 -->
<g id="edge50" class="edge"><title>&#45;6&#45;&gt;410</title>
<path fill="none" stroke="red" stroke-width="0.240649" d="M562.854,-159.617C556.922,-149.077 546.369,-130.326 537.543,-114.642"/>
<polygon fill="red" stroke="red" stroke-width="0.240649" points="540.548,-112.846 532.594,-105.847 534.448,-116.279 540.548,-112.846"/>
</g>
<!-- &#45;7 -->
<g id="node7" class="node"><title>&#45;7</title>
<polygon fill="lightgray" stroke="black" points="810.5,-177.874 786.5,-177.874 786.5,-159.874 810.5,-159.874 810.5,-177.874"/>
<text text-anchor="middle" x="798.5" y="-166.674" font-family="Times,serif" font-size="9.00">&#45;7</text>
</g>
<!-- &#45;7&#45;&gt;0 -->
<g id="edge44" class="edge"><title>&#45;7&#45;&gt;0</title>
<path fill="none" stroke="green" stroke-width="0.16774" d="M798.5,-159.617C798.5,-148.53 798.5,-128.356 798.5,-112.225"/>
<polygon fill="green" stroke="green" stroke-width="0.16774" points="802,-111.864 798.5,-101.864 795,-111.864 802,-111.864"/>
</g>
<!-- &#45;8 -->
<g id="node8" class="node"><title>&#45;8</title>
<polygon fill="lightgray" stroke="black" points="852.5,-177.874 828.5,-177.874 828.5,-159.874 852.5,-159.874 852.5,-177.874"/>
<text text-anchor="middle" x="840.5" y="-166.674" font-family="Times,serif" font-size="9.00">&#45;8</text>
</g>
<!-- &#45;8&#45;&gt;3 -->
<g id="edge34" class="edge"><title>&#45;8&#45;&gt;3</title>
<path fill="none" stroke="red" stroke-width="0.194375" d="M851.032,-159.617C868.031,-146.291 901.774,-119.839 923.182,-103.056"/>
<polygon fill="red" stroke="red" stroke-width="0.194375" points="925.542,-105.653 931.253,-96.7289 921.223,-100.144 925.542,-105.653"/>
</g>
<!-- &#45;8&#45;&gt;410 -->
<g id="edge49" class="edge"><title>&#45;8&#45;&gt;410</title>
<path fill="none" stroke="green" stroke-width="0.590061" d="M835.273,-159.549C831.527,-154.295 826.007,-147.824 819.5,-144.125 732.709,-94.7882 610.898,-87.7352 554.044,-87.3673"/>
<polygon fill="green" stroke="green" stroke-width="0.590061" points="553.887,-83.8672 543.888,-87.3699 553.889,-90.8672 553.887,-83.8672"/>
</g>
<!-- &#45;9 -->
<g id="node9" class="node"><title>&#45;9</title>
<polygon fill="lightgray" stroke="black" points="356.5,-247.622 332.5,-247.622 332.5,-229.622 356.5,-229.622 356.5,-247.622"/>
<text text-anchor="middle" x="344.5" y="-236.422" font-family="Times,serif" font-size="9.00">&#45;9</text>
</g>
<!-- &#45;9&#45;&gt;1 -->
<g id="edge30" class="edge"><title>&#45;9&#45;&gt;1</title>
<path fill="none" stroke="red" stroke-width="0.361036" d="M332.39,-236.453C296.303,-232.694 190.743,-219.622 170.5,-193.622 156.985,-176.264 160.137,-163.53 170.5,-144.125 183.229,-120.29 211.036,-104.791 231.178,-96.2225"/>
<polygon fill="red" stroke="red" stroke-width="0.361036" points="232.622,-99.4148 240.62,-92.4664 230.034,-92.9105 232.622,-99.4148"/>
</g>
<!-- &#45;9&#45;&gt;3009 -->
<g id="edge48" class="edge"><title>&#45;9&#45;&gt;3009</title>
<path fill="none" stroke="red" stroke-width="0.135329" d="M353.754,-229.585C364.173,-220.535 381.565,-205.428 396.249,-192.675"/>
<polygon fill="red" stroke="red" stroke-width="0.135329" points="398.811,-195.085 404.066,-185.885 394.221,-189.8 398.811,-195.085"/>
</g>
<!-- &#45;10 -->
<g id="node10" class="node"><title>&#45;10</title>
<polygon fill="lightgray" stroke="black" points="627,-177.874 598,-177.874 598,-159.874 627,-159.874 627,-177.874"/>
<text text-anchor="middle" x="612.5" y="-166.674" font-family="Times,serif" font-size="9.00">&#45;10</text>
</g>
<!-- &#45;10&#45;&gt;410 -->
<g id="edge43" class="edge"><title>&#45;10&#45;&gt;410</title>
<path fill="none" stroke="red" stroke-width="0.395703" d="M604.645,-159.805C600.027,-155.137 594.027,-149.2 588.5,-144.125 574.859,-131.599 559.083,-118.127 546.376,-107.513"/>
<polygon fill="red" stroke="red" stroke-width="0.395703" points="548.452,-104.687 538.523,-100.989 543.979,-110.071 548.452,-104.687"/>
</g>
<!-- &#45;11 -->
<g id="node11" class="node"><title>&#45;11</title>
<polygon fill="lightgray" stroke="black" points="1027,-177.874 998,-177.874 998,-159.874 1027,-159.874 1027,-177.874"/>
<text text-anchor="middle" x="1012.5" y="-166.674" font-family="Times,serif" font-size="9.00">&#45;11</text>
</g>
<!-- &#45;11&#45;&gt;3 -->
<g id="edge31" class="edge"><title>&#45;11&#45;&gt;3</title>
<path fill="none" stroke="green" stroke-width="0.621598" d="M1005.27,-159.617C994.285,-147.067 973.108,-122.876 958.407,-106.082"/>
<polygon fill="green" stroke="green" stroke-width="0.621598" points="961.003,-103.735 951.783,-98.5158 955.736,-108.345 961.003,-103.735"/>
</g>
<!-- &#45;12 -->
<g id="node12" class="node"><title>&#45;12</title>
<polygon fill="lightgray" stroke="black" points="1113,-177.874 1084,-177.874 1084,-159.874 1113,-159.874 1113,-177.874"/>
<text text-anchor="middle" x="1098.5" y="-166.674" font-family="Times,serif" font-size="9.00">&#45;12</text>
</g>
<!-- &#45;12&#45;&gt;2 -->
<g id="edge22" class="edge"><title>&#45;12&#45;&gt;2</title>
<path fill="none" stroke="green" stroke-width="0.228202" d="M1092.72,-159.822C1077.64,-139.577 1034.78,-86.6776 984.5,-65.6985 908.335,-33.9208 307.826,-19.22 176.723,-16.3719"/>
<polygon fill="green" stroke="green" stroke-width="0.228202" points="176.553,-12.8676 166.481,-16.153 176.404,-19.866 176.553,-12.8676"/>
</g>
<!-- &#45;12&#45;&gt;3 -->
<g id="edge42" class="edge"><title>&#45;12&#45;&gt;3</title>
<path fill="none" stroke="red" stroke-width="0.32047" d="M1089.83,-159.723C1084.3,-154.799 1076.82,-148.625 1069.5,-144.125 1035.41,-123.159 992.145,-105.751 965.927,-96.0998"/>
<polygon fill="red" stroke="red" stroke-width="0.32047" points="967.043,-92.7817 956.449,-92.6763 964.665,-99.3654 967.043,-92.7817"/>
</g>
<!-- &#45;13 -->
<g id="node13" class="node"><title>&#45;13</title>
<polygon fill="lightgray" stroke="black" points="47,-95.9117 18,-95.9117 18,-77.9117 47,-77.9117 47,-95.9117"/>
<text text-anchor="middle" x="32.5" y="-84.7117" font-family="Times,serif" font-size="9.00">&#45;13</text>
</g>
<!-- &#45;13&#45;&gt;2 -->
<g id="edge18" class="edge"><title>&#45;13&#45;&gt;2</title>
<path fill="none" stroke="red" stroke-width="0.120788" d="M43.6122,-77.766C48.9373,-73.9667 55.4581,-69.4635 61.5,-65.6985 84.1157,-51.6056 110.937,-37.0088 129.382,-27.2817"/>
<polygon fill="red" stroke="red" stroke-width="0.120788" points="131.205,-30.278 138.442,-22.5401 127.96,-24.076 131.205,-30.278"/>
</g>
<!-- &#45;14 -->
<g id="node14" class="node"><title>&#45;14</title>
<polygon fill="lightgray" stroke="black" points="76,-177.874 47,-177.874 47,-159.874 76,-159.874 76,-177.874"/>
<text text-anchor="middle" x="61.5" y="-166.674" font-family="Times,serif" font-size="9.00">&#45;14</text>
</g>
<!-- &#45;14&#45;&gt;1 -->
<g id="edge47" class="edge"><title>&#45;14&#45;&gt;1</title>
<path fill="none" stroke="red" stroke-width="0.44011" d="M67.5647,-159.846C71.81,-154.717 77.8879,-148.274 84.5,-144.125 131.307,-114.755 195.078,-99.0686 229.686,-92.224"/>
<polygon fill="red" stroke="red" stroke-width="0.44011" points="230.662,-95.6016 239.839,-90.3063 229.363,-88.7232 230.662,-95.6016"/>
</g>
<!-- &#45;14&#45;&gt;2 -->
<g id="edge13" class="edge"><title>&#45;14&#45;&gt;2</title>
<path fill="none" stroke="green" stroke-width="0.331714" d="M66.3388,-159.7C79.9553,-136.7 118.918,-70.8848 139.079,-36.8302"/>
<polygon fill="green" stroke="green" stroke-width="0.331714" points="142.148,-38.5173 144.23,-28.1292 136.124,-34.9513 142.148,-38.5173"/>
</g>
<!-- &#45;15 -->
<g id="node15" class="node"><title>&#45;15</title>
<polygon fill="lightgray" stroke="black" points="295,-177.874 266,-177.874 266,-159.874 295,-159.874 295,-177.874"/>
<text text-anchor="middle" x="280.5" y="-166.674" font-family="Times,serif" font-size="9.00">&#45;15</text>
</g>
<!-- &#45;15&#45;&gt;1 -->
<g id="edge15" class="edge"><title>&#45;15&#45;&gt;1</title>
<path fill="none" stroke="green" stroke-width="0.359886" d="M277.815,-159.617C274.133,-148.292 267.368,-127.487 262.07,-111.194"/>
<polygon fill="green" stroke="green" stroke-width="0.359886" points="265.268,-109.71 258.848,-101.283 258.611,-111.875 265.268,-109.71"/>
</g>
<!-- &#45;15&#45;&gt;410 -->
<g id="edge2" class="edge"><title>&#45;15&#45;&gt;410</title>
<path fill="none" stroke="red" stroke-width="0.203666" d="M286.806,-159.705C291.227,-154.517 297.567,-148.06 304.5,-144.125 365.106,-109.725 447.039,-95.9747 491.192,-90.7967"/>
<polygon fill="red" stroke="red" stroke-width="0.203666" points="491.752,-94.2563 501.31,-89.684 490.987,-87.2982 491.752,-94.2563"/>
</g>
<!-- &#45;16 -->
<g id="node16" class="node"><title>&#45;16</title>
<polygon fill="lightgray" stroke="black" points="674,-177.874 645,-177.874 645,-159.874 674,-159.874 674,-177.874"/>
<text text-anchor="middle" x="659.5" y="-166.674" font-family="Times,serif" font-size="9.00">&#45;16</text>
</g>
<!-- &#45;16&#45;&gt;1 -->
<g id="edge32" class="edge"><title>&#45;16&#45;&gt;1</title>
<path fill="none" stroke="green" stroke-width="0.109611" d="M653.325,-159.46C648.959,-154.168 642.632,-147.688 635.5,-144.125 572.349,-112.576 354.157,-94.8273 279.66,-89.5776"/>
<polygon fill="green" stroke="green" stroke-width="0.109611" points="279.58,-86.0639 269.363,-88.8678 279.099,-93.0473 279.58,-86.0639"/>
</g>
<!-- &#45;16&#45;&gt;3 -->
<g id="edge4" class="edge"><title>&#45;16&#45;&gt;3</title>
<path fill="none" stroke="green" stroke-width="0.313751" d="M665.425,-159.61C669.612,-154.382 675.677,-147.916 682.5,-144.125 703.16,-132.645 857.031,-103.58 917.859,-92.3946"/>
<polygon fill="green" stroke="green" stroke-width="0.313751" points="918.555,-95.8255 927.761,-90.5808 917.294,-88.9401 918.555,-95.8255"/>
</g>
<!-- &#45;16&#45;&gt;410 -->
<g id="edge20" class="edge"><title>&#45;16&#45;&gt;410</title>
<path fill="none" stroke="red" stroke-width="0.30432" d="M652.492,-159.724C647.978,-154.8 641.793,-148.626 635.5,-144.125 609.146,-125.275 575.534,-109.446 551.842,-99.4369"/>
<polygon fill="red" stroke="red" stroke-width="0.30432" points="552.925,-96.0972 542.346,-95.5118 550.251,-102.566 552.925,-96.0972"/>
</g>
<!-- &#45;17 -->
<g id="node17" class="node"><title>&#45;17</title>
<polygon fill="lightgray" stroke="black" points="721,-177.874 692,-177.874 692,-159.874 721,-159.874 721,-177.874"/>
<text text-anchor="middle" x="706.5" y="-166.674" font-family="Times,serif" font-size="9.00">&#45;17</text>
</g>
<!-- &#45;17&#45;&gt;1 -->
<g id="edge9" class="edge"><title>&#45;17&#45;&gt;1</title>
<path fill="none" stroke="green" stroke-width="0.304378" d="M700.343,-159.422C695.986,-154.114 689.66,-147.631 682.5,-144.125 646.068,-126.285 365.121,-98.4128 279.311,-90.2384"/>
<polygon fill="green" stroke="green" stroke-width="0.304378" points="279.474,-86.7383 269.189,-89.2795 278.814,-93.7071 279.474,-86.7383"/>
</g>
<!-- &#45;17&#45;&gt;3 -->
<g id="edge5" class="edge"><title>&#45;17&#45;&gt;3</title>
<path fill="none" stroke="green" stroke-width="0.233617" d="M712.815,-159.721C717.239,-154.539 723.58,-148.084 730.5,-144.125 792.089,-108.889 876.346,-95.1652 917.636,-90.3059"/>
<polygon fill="green" stroke="green" stroke-width="0.233617" points="918.072,-93.7792 927.629,-89.2065 917.307,-86.8211 918.072,-93.7792"/>
</g>
<!-- &#45;17&#45;&gt;410 -->
<g id="edge51" class="edge"><title>&#45;17&#45;&gt;410</title>
<path fill="none" stroke="green" stroke-width="0.153318" d="M699.679,-159.444C695.236,-154.414 689.06,-148.228 682.5,-144.125 641.395,-118.412 586.966,-102.519 553.363,-94.4518"/>
<polygon fill="green" stroke="green" stroke-width="0.153318" points="553.76,-90.9512 543.229,-92.1052 552.181,-97.7708 553.76,-90.9512"/>
</g>
<!-- &#45;18 -->
<g id="node18" class="node"><title>&#45;18</title>
<polygon fill="lightgray" stroke="black" points="123,-177.874 94,-177.874 94,-159.874 123,-159.874 123,-177.874"/>
<text text-anchor="middle" x="108.5" y="-166.674" font-family="Times,serif" font-size="9.00">&#45;18</text>
</g>
<!-- &#45;18&#45;&gt;1 -->
<g id="edge7" class="edge"><title>&#45;18&#45;&gt;1</title>
<path fill="none" stroke="green" stroke-width="0.264222" d="M117.221,-159.803C122.771,-154.909 130.254,-148.739 137.5,-144.125 168.436,-124.425 207.325,-107.054 231.552,-97.0122"/>
<polygon fill="green" stroke="green" stroke-width="0.264222" points="233.032,-100.188 240.971,-93.172 230.39,-93.7063 233.032,-100.188"/>
</g>
<!-- &#45;18&#45;&gt;2 -->
<g id="edge24" class="edge"><title>&#45;18&#45;&gt;2</title>
<path fill="none" stroke="green" stroke-width="0.255599" d="M111.219,-159.798C115.038,-148.354 122.124,-126.739 127.5,-108.125 134.251,-84.7518 141.161,-57.8017 145.822,-39.0858"/>
<polygon fill="green" stroke="green" stroke-width="0.255599" points="149.224,-39.9065 148.226,-29.3588 142.429,-38.2265 149.224,-39.9065"/>
</g>
<!-- &#45;18&#45;&gt;410 -->
<g id="edge11" class="edge"><title>&#45;18&#45;&gt;410</title>
<path fill="none" stroke="red" stroke-width="0.48371" d="M123.496,-161.12C135.876,-155.792 154.023,-148.545 170.5,-144.125 286.375,-113.041 428.609,-96.7992 490.831,-90.7457"/>
<polygon fill="red" stroke="red" stroke-width="0.48371" points="491.527,-94.1954 501.151,-89.7644 490.864,-87.2268 491.527,-94.1954"/>
</g>
<!-- &#45;19 -->
<g id="node19" class="node"><title>&#45;19</title>
<polygon fill="lightgray" stroke="black" points="980,-177.874 951,-177.874 951,-159.874 980,-159.874 980,-177.874"/>
<text text-anchor="middle" x="965.5" y="-166.674" font-family="Times,serif" font-size="9.00">&#45;19</text>
</g>
<!-- &#45;19&#45;&gt;0 -->
<g id="edge38" class="edge"><title>&#45;19&#45;&gt;0</title>
<path fill="none" stroke="red" stroke-width="0.217711" d="M958.626,-159.528C954.162,-154.53 947.983,-148.348 941.5,-144.125 903.278,-119.228 852.314,-102.511 822.685,-94.1538"/>
<polygon fill="red" stroke="red" stroke-width="0.217711" points="823.366,-90.7117 812.797,-91.4536 821.522,-97.4644 823.366,-90.7117"/>
</g>
<!-- &#45;19&#45;&gt;3 -->
<g id="edge3" class="edge"><title>&#45;19&#45;&gt;3</title>
<path fill="none" stroke="red" stroke-width="0.441003" d="M963.125,-159.617C959.868,-148.292 953.883,-127.487 949.197,-111.194"/>
<polygon fill="red" stroke="red" stroke-width="0.441003" points="952.474,-109.926 946.346,-101.283 945.747,-111.861 952.474,-109.926"/>
</g>
<!-- &#45;20 -->
<g id="node20" class="node"><title>&#45;20</title>
<polygon fill="lightgray" stroke="black" points="537,-177.874 508,-177.874 508,-159.874 537,-159.874 537,-177.874"/>
<text text-anchor="middle" x="522.5" y="-166.674" font-family="Times,serif" font-size="9.00">&#45;20</text>
</g>
<!-- &#45;20&#45;&gt;410 -->
<g id="edge17" class="edge"><title>&#45;20&#45;&gt;410</title>
<path fill="none" stroke="green" stroke-width="0.107659" d="M522.5,-159.617C522.5,-149.985 522.5,-133.495 522.5,-118.755"/>
<polygon fill="green" stroke="green" stroke-width="0.107659" points="526,-118.455 522.5,-108.455 519,-118.455 526,-118.455"/>
</g>
<!-- &#45;21 -->
<g id="node21" class="node"><title>&#45;21</title>
<polygon fill="lightgray" stroke="black" points="209,-177.874 180,-177.874 180,-159.874 209,-159.874 209,-177.874"/>
<text text-anchor="middle" x="194.5" y="-166.674" font-family="Times,serif" font-size="9.00">&#45;21</text>
</g>
<!-- &#45;21&#45;&gt;1 -->
<g id="edge8" class="edge"><title>&#45;21&#45;&gt;1</title>
<path fill="none" stroke="red" stroke-width="0.187284" d="M200.695,-159.617C209.874,-147.385 227.35,-124.094 239.897,-107.372"/>
<polygon fill="red" stroke="red" stroke-width="0.187284" points="242.737,-109.42 245.939,-99.3205 237.138,-105.218 242.737,-109.42"/>
</g>
<!-- &#45;22 -->
<g id="node22" class="node"><title>&#45;22</title>
<polygon fill="lightgray" stroke="black" points="29,-177.874 0,-177.874 0,-159.874 29,-159.874 29,-177.874"/>
<text text-anchor="middle" x="14.5" y="-166.674" font-family="Times,serif" font-size="9.00">&#45;22</text>
</g>
<!-- &#45;22&#45;&gt;1 -->
<g id="edge21" class="edge"><title>&#45;22&#45;&gt;1</title>
<path fill="none" stroke="red" stroke-width="0.369857" d="M20.477,-159.701C24.6852,-154.511 30.7549,-148.054 37.5,-144.125 100.474,-107.443 187.433,-94.3475 229.59,-89.9597"/>
<polygon fill="red" stroke="red" stroke-width="0.369857" points="230.149,-93.4221 239.769,-88.9813 229.48,-86.4542 230.149,-93.4221"/>
</g>
<!-- &#45;22&#45;&gt;2 -->
<g id="edge39" class="edge"><title>&#45;22&#45;&gt;2</title>
<path fill="none" stroke="green" stroke-width="0.181157" d="M20.0469,-159.774C32.4302,-141.934 63.6706,-98.2492 94.5,-65.6985 106.17,-53.3767 120.565,-40.8058 131.969,-31.3704"/>
<polygon fill="green" stroke="green" stroke-width="0.181157" points="134.467,-33.8501 140.012,-24.8222 130.047,-28.4216 134.467,-33.8501"/>
</g>
<!-- &#45;23 -->
<g id="node23" class="node"><title>&#45;23</title>
<polygon fill="lightgray" stroke="black" points="768,-177.874 739,-177.874 739,-159.874 768,-159.874 768,-177.874"/>
<text text-anchor="middle" x="753.5" y="-166.674" font-family="Times,serif" font-size="9.00">&#45;23</text>
</g>
<!-- &#45;23&#45;&gt;0 -->
<g id="edge1" class="edge"><title>&#45;23&#45;&gt;0</title>
<path fill="none" stroke="green" stroke-width="0.356857" d="M758.146,-159.617C764.791,-147.809 777.235,-125.697 786.555,-109.137"/>
<polygon fill="green" stroke="green" stroke-width="0.356857" points="789.76,-110.579 791.614,-100.147 783.66,-107.146 789.76,-110.579"/>
</g>
<!-- &#45;23&#45;&gt;410 -->
<g id="edge40" class="edge"><title>&#45;23&#45;&gt;410</title>
<path fill="none" stroke="green" stroke-width="0.113645" d="M747.509,-159.724C743.295,-154.544 737.224,-148.089 730.5,-144.125 673.612,-110.588 596.269,-96.5731 553.736,-91.1039"/>
<polygon fill="green" stroke="green" stroke-width="0.113645" points="554.054,-87.6169 543.706,-89.8908 553.214,-94.5663 554.054,-87.6169"/>
</g>
<!-- &#45;24 -->
<g id="node24" class="node"><title>&#45;24</title>
<polygon fill="lightgray" stroke="black" points="560,-247.622 531,-247.622 531,-229.622 560,-229.622 560,-247.622"/>
<text text-anchor="middle" x="545.5" y="-236.422" font-family="Times,serif" font-size="9.00">&#45;24</text>
</g>
<!-- 1&#45;&gt;1 -->
<g id="edge25" class="edge"><title>1&#45;&gt;1</title>
<path fill="none" stroke="red" stroke-width="0.517511" d="M265.267,-97.6398C275.789,-103.566 287.349,-99.9898 287.349,-86.9117 287.349,-77.9205 281.885,-73.4205 275.051,-73.4117"/>
<polygon fill="red" stroke="red" stroke-width="0.517511" points="273.934,-70.0903 265.267,-76.1835 275.842,-76.8252 273.934,-70.0903"/>
</g>
<!-- 3&#45;&gt;3 -->
<g id="edge12" class="edge"><title>3&#45;&gt;3</title>
<path fill="none" stroke="green" stroke-width="0.204399" d="M953.267,-97.6398C963.789,-103.566 975.349,-99.9898 975.349,-86.9117 975.349,-77.9205 969.885,-73.4205 963.051,-73.4117"/>
<polygon fill="green" stroke="green" stroke-width="0.204399" points="961.934,-70.0903 953.267,-76.1835 963.842,-76.8252 961.934,-70.0903"/>
</g>
<!-- 3009&#45;&gt;410 -->
<g id="edge29" class="edge"><title>3009&#45;&gt;410</title>
<path fill="none" stroke="green" stroke-width="0.188245" d="M441.781,-152.456C457.877,-139.586 480.906,-121.171 498.25,-107.302"/>
<polygon fill="green" stroke="green" stroke-width="0.188245" points="500.628,-109.882 506.253,-100.903 496.257,-104.415 500.628,-109.882"/>
</g>
<!-- 410&#45;&gt;2 -->
<g id="edge6" class="edge"><title>410&#45;&gt;2</title>
<path fill="none" stroke="red" stroke-width="0.281511" d="M501.758,-81.9947C437.88,-69.9314 244.323,-33.3787 175.835,-20.4449"/>
<polygon fill="red" stroke="red" stroke-width="0.281511" points="176.432,-16.9958 165.956,-18.5792 175.133,-23.8742 176.432,-16.9958"/>
</g>
<!-- 410&#45;&gt;410 -->
<g id="edge28" class="edge"><title>410&#45;&gt;410</title>
<path fill="none" stroke="red" stroke-width="0.109906" d="M539.837,-99.3438C550.984,-102.587 561.713,-98.4429 561.713,-86.9117 561.713,-78.984 556.642,-74.5478 549.85,-73.6033"/>
<polygon fill="red" stroke="red" stroke-width="0.109906" points="549.493,-70.1211 539.837,-74.4796 550.104,-77.0944 549.493,-70.1211"/>
</g>
</g>
</svg>
