<?xml version="1.0" encoding="UTF-8" standalone="no"?>
<!DOCTYPE svg PUBLIC "-//W3C//DTD SVG 1.1//EN"
 "http://www.w3.org/Graphics/SVG/1.1/DTD/svg11.dtd">
<!-- Generated by graphviz version 2.38.0 (20140413.2041)
 -->
<!-- Title: %3 Pages: 1 -->
<svg width="1088pt" height="256pt"
 viewBox="0.00 0.00 1088.00 255.62" xmlns="http://www.w3.org/2000/svg" xmlns:xlink="http://www.w3.org/1999/xlink">
<g id="graph0" class="graph" transform="scale(1 1) rotate(0) translate(4 251.622)">
<title>%3</title>
<polygon fill="white" stroke="none" points="-4,4 -4,-251.622 1084,-251.622 1084,4 -4,4"/>
<!-- &#45;1 -->
<g id="node1" class="node"><title>&#45;1</title>
<polygon fill="lightgray" stroke="black" points="549.5,-177.874 525.5,-177.874 525.5,-159.874 549.5,-159.874 549.5,-177.874"/>
<text text-anchor="middle" x="537.5" y="-166.674" font-family="Times,serif" font-size="9.00">&#45;1</text>
</g>
<!-- 410 -->
<g id="node30" class="node"><title>410</title>
<ellipse fill="white" stroke="black" cx="469.5" cy="-86.9117" rx="21.4286" ry="21.4286"/>
<text text-anchor="middle" x="469.5" y="-84.7117" font-family="Times,serif" font-size="9.00">410</text>
</g>
<!-- &#45;1&#45;&gt;410 -->
<g id="edge39" class="edge"><title>&#45;1&#45;&gt;410</title>
<path fill="none" stroke="green" stroke-width="0.616212" d="M530.479,-159.617C520.943,-148.404 503.505,-127.899 489.712,-111.679"/>
<polygon fill="green" stroke="green" stroke-width="0.616212" points="492.037,-109.011 482.893,-103.66 486.705,-113.546 492.037,-109.011"/>
</g>
<!-- &#45;2 -->
<g id="node2" class="node"><title>&#45;2</title>
<polygon fill="lightgray" stroke="black" points="302.5,-177.874 278.5,-177.874 278.5,-159.874 302.5,-159.874 302.5,-177.874"/>
<text text-anchor="middle" x="290.5" y="-166.674" font-family="Times,serif" font-size="9.00">&#45;2</text>
</g>
<!-- 1 -->
<g id="node26" class="node"><title>1</title>
<ellipse fill="lightblue" stroke="black" cx="236.5" cy="-86.9117" rx="14.7" ry="14.7"/>
<text text-anchor="middle" x="236.5" y="-84.7117" font-family="Times,serif" font-size="9.00">1</text>
</g>
<!-- &#45;2&#45;&gt;1 -->
<g id="edge8" class="edge"><title>&#45;2&#45;&gt;1</title>
<path fill="none" stroke="red" stroke-width="0.34163" d="M284.924,-159.617C276.785,-147.564 261.395,-124.775 250.142,-108.113"/>
<polygon fill="red" stroke="red" stroke-width="0.34163" points="252.886,-105.922 244.389,-99.5937 247.085,-109.84 252.886,-105.922"/>
</g>
<!-- &#45;2&#45;&gt;410 -->
<g id="edge32" class="edge"><title>&#45;2&#45;&gt;410</title>
<path fill="none" stroke="red" stroke-width="0.234874" d="M296.271,-159.419C300.085,-154.38 305.481,-148.193 311.5,-144.125 351.226,-117.279 405.223,-101.711 438.692,-94.0196"/>
<polygon fill="red" stroke="red" stroke-width="0.234874" points="439.78,-97.3639 448.793,-91.7949 438.274,-90.5278 439.78,-97.3639"/>
</g>
<!-- &#45;3 -->
<g id="node3" class="node"><title>&#45;3</title>
<polygon fill="lightgray" stroke="black" points="639.5,-177.874 615.5,-177.874 615.5,-159.874 639.5,-159.874 639.5,-177.874"/>
<text text-anchor="middle" x="627.5" y="-166.674" font-family="Times,serif" font-size="9.00">&#45;3</text>
</g>
<!-- 0 -->
<g id="node25" class="node"><title>0</title>
<ellipse fill="lightblue" stroke="black" cx="715.5" cy="-86.9117" rx="14.7" ry="14.7"/>
<text text-anchor="middle" x="715.5" y="-84.7117" font-family="Times,serif" font-size="9.00">0</text>
</g>
<!-- &#45;3&#45;&gt;0 -->
<g id="edge41" class="edge"><title>&#45;3&#45;&gt;0</title>
<path fill="none" stroke="red" stroke-width="0.447647" d="M634.606,-159.734C638.808,-155.042 644.308,-149.105 649.5,-144.125 664.47,-129.767 682.449,-114.577 695.859,-103.612"/>
<polygon fill="red" stroke="red" stroke-width="0.447647" points="698.369,-106.083 703.934,-97.0675 693.962,-100.645 698.369,-106.083"/>
</g>
<!-- &#45;3&#45;&gt;1 -->
<g id="edge30" class="edge"><title>&#45;3&#45;&gt;1</title>
<path fill="none" stroke="red" stroke-width="0.199792" d="M622.316,-159.471C618.589,-154.184 613.073,-147.705 606.5,-144.125 576.113,-127.573 340.099,-99.644 261.713,-90.7331"/>
<polygon fill="red" stroke="red" stroke-width="0.199792" points="261.664,-87.2054 251.334,-89.56 260.878,-94.1611 261.664,-87.2054"/>
</g>
<!-- 2 -->
<g id="node27" class="node"><title>2</title>
<ellipse fill="lightblue" stroke="black" cx="469.5" cy="-14.8492" rx="14.7" ry="14.7"/>
<text text-anchor="middle" x="469.5" y="-12.6492" font-family="Times,serif" font-size="9.00">2</text>
</g>
<!-- &#45;3&#45;&gt;2 -->
<g id="edge16" class="edge"><title>&#45;3&#45;&gt;2</title>
<path fill="none" stroke="red" stroke-width="0.157496" d="M620.683,-159.788C616.66,-155.114 611.41,-149.177 606.5,-144.125 565.751,-102.198 514.818,-56.025 487.998,-32.1567"/>
<polygon fill="red" stroke="red" stroke-width="0.157496" points="490.29,-29.5116 480.486,-25.4948 485.645,-34.7487 490.29,-29.5116"/>
</g>
<!-- &#45;4 -->
<g id="node4" class="node"><title>&#45;4</title>
<polygon fill="lightgray" stroke="black" points="727.5,-247.622 703.5,-247.622 703.5,-229.622 727.5,-229.622 727.5,-247.622"/>
<text text-anchor="middle" x="715.5" y="-236.422" font-family="Times,serif" font-size="9.00">&#45;4</text>
</g>
<!-- &#45;4&#45;&gt;0 -->
<g id="edge34" class="edge"><title>&#45;4&#45;&gt;0</title>
<path fill="none" stroke="red" stroke-width="0.487822" d="M715.5,-229.573C715.5,-207.652 715.5,-146.237 715.5,-111.905"/>
<polygon fill="red" stroke="red" stroke-width="0.487822" points="719,-111.795 715.5,-101.795 712,-111.795 719,-111.795"/>
</g>
<!-- 3 -->
<g id="node28" class="node"><title>3</title>
<ellipse fill="lightblue" stroke="black" cx="912.5" cy="-86.9117" rx="14.7" ry="14.7"/>
<text text-anchor="middle" x="912.5" y="-84.7117" font-family="Times,serif" font-size="9.00">3</text>
</g>
<!-- &#45;4&#45;&gt;3 -->
<g id="edge13" class="edge"><title>&#45;4&#45;&gt;3</title>
<path fill="none" stroke="green" stroke-width="0.208168" d="M727.937,-232.645C731.027,-231.535 734.355,-230.445 737.5,-229.622 785.214,-217.141 924.579,-231.219 956.5,-193.622 978.959,-167.17 950.331,-127.64 929.844,-105.168"/>
<polygon fill="green" stroke="green" stroke-width="0.208168" points="932.196,-102.561 922.774,-97.7157 927.117,-107.379 932.196,-102.561"/>
</g>
<!-- 3009 -->
<g id="node29" class="node"><title>3009</title>
<ellipse fill="white" stroke="black" cx="392.5" cy="-168.874" rx="25" ry="25"/>
<text text-anchor="middle" x="392.5" y="-166.674" font-family="Times,serif" font-size="9.00">3009</text>
</g>
<!-- &#45;4&#45;&gt;3009 -->
<g id="edge20" class="edge"><title>&#45;4&#45;&gt;3009</title>
<path fill="none" stroke="red" stroke-width="0.149134" d="M703.432,-237.716C662.795,-237.634 527.816,-234.136 426.5,-193.622 424.382,-192.775 422.267,-191.774 420.187,-190.67"/>
<polygon fill="red" stroke="red" stroke-width="0.149134" points="421.755,-187.527 411.391,-185.327 418.121,-193.51 421.755,-187.527"/>
</g>
<!-- &#45;5 -->
<g id="node5" class="node"><title>&#45;5</title>
<polygon fill="lightgray" stroke="black" points="947.5,-177.874 923.5,-177.874 923.5,-159.874 947.5,-159.874 947.5,-177.874"/>
<text text-anchor="middle" x="935.5" y="-166.674" font-family="Times,serif" font-size="9.00">&#45;5</text>
</g>
<!-- &#45;5&#45;&gt;0 -->
<g id="edge23" class="edge"><title>&#45;5&#45;&gt;0</title>
<path fill="none" stroke="red" stroke-width="1.77199" d="M930.253,-159.583C926.5,-154.343 920.978,-147.875 914.5,-144.125 845.78,-104.338 810.952,-142.766 739.5,-108.125 737.429,-107.121 735.388,-105.898 733.423,-104.555"/>
<polygon fill="red" stroke="red" stroke-width="1.77199" points="735.45,-101.695 725.444,-98.2135 731.095,-107.175 735.45,-101.695"/>
</g>
<!-- &#45;5&#45;&gt;3 -->
<g id="edge36" class="edge"><title>&#45;5&#45;&gt;3</title>
<path fill="none" stroke="green" stroke-width="0.539876" d="M933.125,-159.617C929.868,-148.292 923.883,-127.487 919.197,-111.194"/>
<polygon fill="green" stroke="green" stroke-width="0.539876" points="922.474,-109.926 916.346,-101.283 915.747,-111.861 922.474,-109.926"/>
</g>
<!-- &#45;6 -->
<g id="node6" class="node"><title>&#45;6</title>
<polygon fill="lightgray" stroke="black" points="459.5,-177.874 435.5,-177.874 435.5,-159.874 459.5,-159.874 459.5,-177.874"/>
<text text-anchor="middle" x="447.5" y="-166.674" font-family="Times,serif" font-size="9.00">&#45;6</text>
</g>
<!-- &#45;6&#45;&gt;0 -->
<g id="edge46" class="edge"><title>&#45;6&#45;&gt;0</title>
<path fill="none" stroke="green" stroke-width="0.202461" d="M452.773,-159.628C456.537,-154.407 462.062,-147.943 468.5,-144.125 540.991,-101.137 643.364,-91.0087 690.258,-88.633"/>
<polygon fill="green" stroke="green" stroke-width="0.202461" points="690.582,-92.1224 700.423,-88.1981 690.282,-85.1288 690.582,-92.1224"/>
</g>
<!-- &#45;6&#45;&gt;1 -->
<g id="edge25" class="edge"><title>&#45;6&#45;&gt;1</title>
<path fill="none" stroke="red" stroke-width="0.313015" d="M442.145,-159.762C438.345,-154.598 432.813,-148.146 426.5,-144.125 373.688,-110.482 299.916,-96.2616 261.693,-90.8526"/>
<polygon fill="red" stroke="red" stroke-width="0.313015" points="261.841,-87.3417 251.468,-89.4982 260.922,-94.2811 261.841,-87.3417"/>
</g>
<!-- &#45;6&#45;&gt;410 -->
<g id="edge48" class="edge"><title>&#45;6&#45;&gt;410</title>
<path fill="none" stroke="red" stroke-width="0.149111" d="M449.772,-159.617C452.501,-149.697 457.232,-132.502 461.376,-117.438"/>
<polygon fill="red" stroke="red" stroke-width="0.149111" points="464.842,-118.035 464.12,-107.465 458.093,-116.178 464.842,-118.035"/>
</g>
<!-- &#45;7 -->
<g id="node7" class="node"><title>&#45;7</title>
<polygon fill="lightgray" stroke="black" points="815.5,-177.874 791.5,-177.874 791.5,-159.874 815.5,-159.874 815.5,-177.874"/>
<text text-anchor="middle" x="803.5" y="-166.674" font-family="Times,serif" font-size="9.00">&#45;7</text>
</g>
<!-- &#45;7&#45;&gt;0 -->
<g id="edge33" class="edge"><title>&#45;7&#45;&gt;0</title>
<path fill="none" stroke="green" stroke-width="0.159548" d="M796.786,-159.685C792.798,-154.976 787.548,-149.039 782.5,-144.125 764.639,-126.74 758.588,-124.153 739.5,-108.125 737.936,-106.811 736.314,-105.449 734.687,-104.08"/>
<polygon fill="green" stroke="green" stroke-width="0.159548" points="736.631,-101.142 726.727,-97.3791 732.123,-106.497 736.631,-101.142"/>
</g>
<!-- &#45;8 -->
<g id="node8" class="node"><title>&#45;8</title>
<polygon fill="lightgray" stroke="black" points="857.5,-177.874 833.5,-177.874 833.5,-159.874 857.5,-159.874 857.5,-177.874"/>
<text text-anchor="middle" x="845.5" y="-166.674" font-family="Times,serif" font-size="9.00">&#45;8</text>
</g>
<!-- &#45;8&#45;&gt;3 -->
<g id="edge31" class="edge"><title>&#45;8&#45;&gt;3</title>
<path fill="none" stroke="red" stroke-width="0.119535" d="M852.418,-159.617C862.781,-147.249 882.618,-123.575 896.659,-106.818"/>
<polygon fill="red" stroke="red" stroke-width="0.119535" points="899.652,-108.694 903.392,-98.7815 894.287,-104.199 899.652,-108.694"/>
</g>
<!-- &#45;8&#45;&gt;410 -->
<g id="edge47" class="edge"><title>&#45;8&#45;&gt;410</title>
<path fill="none" stroke="green" stroke-width="0.600593" d="M840.309,-159.485C836.579,-154.203 831.062,-147.726 824.5,-144.125 768.841,-113.581 577.36,-96.0768 501.153,-90.1813"/>
<polygon fill="green" stroke="green" stroke-width="0.600593" points="501.011,-86.6606 490.776,-89.3955 500.483,-93.6406 501.011,-86.6606"/>
</g>
<!-- &#45;9 -->
<g id="node9" class="node"><title>&#45;9</title>
<polygon fill="lightgray" stroke="black" points="165.5,-177.874 141.5,-177.874 141.5,-159.874 165.5,-159.874 165.5,-177.874"/>
<text text-anchor="middle" x="153.5" y="-166.674" font-family="Times,serif" font-size="9.00">&#45;9</text>
</g>
<!-- &#45;9&#45;&gt;1 -->
<g id="edge19" class="edge"><title>&#45;9&#45;&gt;1</title>
<path fill="none" stroke="red" stroke-width="0.512133" d="M160.287,-159.759C164.3,-155.074 169.55,-149.137 174.5,-144.125 188.57,-129.878 205.459,-114.68 218.055,-103.683"/>
<polygon fill="red" stroke="red" stroke-width="0.512133" points="220.37,-106.308 225.639,-97.1157 215.788,-101.016 220.37,-106.308"/>
</g>
<!-- &#45;10 -->
<g id="node10" class="node"><title>&#45;10</title>
<polygon fill="lightgray" stroke="black" points="597,-177.874 568,-177.874 568,-159.874 597,-159.874 597,-177.874"/>
<text text-anchor="middle" x="582.5" y="-166.674" font-family="Times,serif" font-size="9.00">&#45;10</text>
</g>
<!-- &#45;10&#45;&gt;410 -->
<g id="edge2" class="edge"><title>&#45;10&#45;&gt;410</title>
<path fill="none" stroke="red" stroke-width="0.625502" d="M574.905,-159.501C570.373,-154.732 564.373,-148.794 558.5,-144.125 539.01,-128.628 515.055,-113.704 496.91,-103.132"/>
<polygon fill="red" stroke="red" stroke-width="0.625502" points="498.42,-99.9634 488.004,-98.0207 494.935,-106.034 498.42,-99.9634"/>
</g>
<!-- &#45;11 -->
<g id="node11" class="node"><title>&#45;11</title>
<polygon fill="lightgray" stroke="black" points="1033,-177.874 1004,-177.874 1004,-159.874 1033,-159.874 1033,-177.874"/>
<text text-anchor="middle" x="1018.5" y="-166.674" font-family="Times,serif" font-size="9.00">&#45;11</text>
</g>
<!-- &#45;11&#45;&gt;3 -->
<g id="edge29" class="edge"><title>&#45;11&#45;&gt;3</title>
<path fill="none" stroke="green" stroke-width="0.546602" d="M1008.94,-159.822C1003.34,-155.159 996.089,-149.221 989.5,-144.125 970.567,-129.48 948.452,-113.442 932.793,-102.259"/>
<polygon fill="green" stroke="green" stroke-width="0.546602" points="934.569,-99.2269 924.391,-96.2823 930.511,-104.931 934.569,-99.2269"/>
</g>
<!-- &#45;12 -->
<g id="node12" class="node"><title>&#45;12</title>
<polygon fill="lightgray" stroke="black" points="1080,-177.874 1051,-177.874 1051,-159.874 1080,-159.874 1080,-177.874"/>
<text text-anchor="middle" x="1065.5" y="-166.674" font-family="Times,serif" font-size="9.00">&#45;12</text>
</g>
<!-- &#45;12&#45;&gt;2 -->
<g id="edge28" class="edge"><title>&#45;12&#45;&gt;2</title>
<path fill="none" stroke="red" stroke-width="0.389692" d="M1059.67,-159.607C1044.85,-139.336 1003.39,-87.2505 954.5,-65.6985 870.652,-28.7382 581.722,-18.6395 494.577,-16.4034"/>
<polygon fill="red" stroke="red" stroke-width="0.389692" points="494.397,-12.8981 484.315,-16.1531 494.226,-19.896 494.397,-12.8981"/>
</g>
<!-- &#45;12&#45;&gt;3 -->
<g id="edge40" class="edge"><title>&#45;12&#45;&gt;3</title>
<path fill="none" stroke="red" stroke-width="0.488501" d="M1058.93,-159.588C1054.65,-154.612 1048.73,-148.433 1042.5,-144.125 1008.75,-120.798 963.77,-103.999 936.536,-95.1281"/>
<polygon fill="red" stroke="red" stroke-width="0.488501" points="937.287,-91.6946 926.697,-92.0177 935.177,-98.3691 937.287,-91.6946"/>
</g>
<!-- &#45;13 -->
<g id="node13" class="node"><title>&#45;13</title>
<polygon fill="lightgray" stroke="black" points="777,-95.9117 748,-95.9117 748,-77.9117 777,-77.9117 777,-95.9117"/>
<text text-anchor="middle" x="762.5" y="-84.7117" font-family="Times,serif" font-size="9.00">&#45;13</text>
</g>
<!-- &#45;13&#45;&gt;2 -->
<g id="edge14" class="edge"><title>&#45;13&#45;&gt;2</title>
<path fill="none" stroke="green" stroke-width="0.919814" d="M755.191,-77.6268C751.012,-73.4086 745.43,-68.5763 739.5,-65.6985 656.173,-25.2634 543.794,-17.4916 494.467,-16.0941"/>
<polygon fill="green" stroke="green" stroke-width="0.919814" points="494.471,-12.5934 484.397,-15.875 494.319,-19.5918 494.471,-12.5934"/>
</g>
<!-- &#45;14 -->
<g id="node14" class="node"><title>&#45;14</title>
<polygon fill="lightgray" stroke="black" points="29,-177.874 0,-177.874 0,-159.874 29,-159.874 29,-177.874"/>
<text text-anchor="middle" x="14.5" y="-166.674" font-family="Times,serif" font-size="9.00">&#45;14</text>
</g>
<!-- &#45;14&#45;&gt;1 -->
<g id="edge49" class="edge"><title>&#45;14&#45;&gt;1</title>
<path fill="none" stroke="red" stroke-width="0.182115" d="M20.5056,-159.749C24.7258,-154.58 30.7982,-148.127 37.5,-144.125 94.2699,-110.222 172.361,-96.0052 211.707,-90.6969"/>
<polygon fill="red" stroke="red" stroke-width="0.182115" points="212.247,-94.1566 221.727,-89.427 211.367,-87.2121 212.247,-94.1566"/>
</g>
<!-- &#45;14&#45;&gt;2 -->
<g id="edge10" class="edge"><title>&#45;14&#45;&gt;2</title>
<path fill="none" stroke="green" stroke-width="0.607579" d="M18.7224,-159.76C29.5683,-139.838 60.5287,-88.486 102.5,-65.6985 162.028,-33.379 372.146,-20.4933 444.668,-16.9441"/>
<polygon fill="green" stroke="green" stroke-width="0.607579" points="444.887,-20.4378 454.71,-16.4699 444.556,-13.4456 444.887,-20.4378"/>
</g>
<!-- &#45;15 -->
<g id="node15" class="node"><title>&#45;15</title>
<polygon fill="lightgray" stroke="black" points="260,-177.874 231,-177.874 231,-159.874 260,-159.874 260,-177.874"/>
<text text-anchor="middle" x="245.5" y="-166.674" font-family="Times,serif" font-size="9.00">&#45;15</text>
</g>
<!-- &#45;15&#45;&gt;1 -->
<g id="edge12" class="edge"><title>&#45;15&#45;&gt;1</title>
<path fill="none" stroke="green" stroke-width="0.214305" d="M244.571,-159.617C243.323,-148.53 241.052,-128.356 239.237,-112.225"/>
<polygon fill="green" stroke="green" stroke-width="0.214305" points="242.667,-111.41 238.07,-101.864 235.711,-112.193 242.667,-111.41"/>
</g>
<!-- &#45;15&#45;&gt;410 -->
<g id="edge35" class="edge"><title>&#45;15&#45;&gt;410</title>
<path fill="none" stroke="red" stroke-width="0.368847" d="M251.835,-159.754C256.267,-154.587 262.61,-148.135 269.5,-144.125 323.985,-112.415 397.301,-97.8015 438.336,-91.7205"/>
<polygon fill="red" stroke="red" stroke-width="0.368847" points="438.869,-95.18 448.284,-90.3208 437.894,-88.2482 438.869,-95.18"/>
</g>
<!-- &#45;16 -->
<g id="node16" class="node"><title>&#45;16</title>
<polygon fill="lightgray" stroke="black" points="773,-177.874 744,-177.874 744,-159.874 773,-159.874 773,-177.874"/>
<text text-anchor="middle" x="758.5" y="-166.674" font-family="Times,serif" font-size="9.00">&#45;16</text>
</g>
<!-- &#45;16&#45;&gt;0 -->
<g id="edge15" class="edge"><title>&#45;16&#45;&gt;0</title>
<path fill="none" stroke="green" stroke-width="0.759271" d="M754.06,-159.617C747.746,-147.876 735.954,-125.947 727.065,-109.418"/>
<polygon fill="green" stroke="green" stroke-width="0.759271" points="730.049,-107.577 722.231,-100.428 723.884,-110.893 730.049,-107.577"/>
</g>
<!-- &#45;16&#45;&gt;3 -->
<g id="edge4" class="edge"><title>&#45;16&#45;&gt;3</title>
<path fill="none" stroke="green" stroke-width="0.115023" d="M765.425,-159.604C769.908,-154.635 776.088,-148.456 782.5,-144.125 816.497,-121.158 861.401,-104.25 888.553,-95.2592"/>
<polygon fill="green" stroke="green" stroke-width="0.115023" points="889.914,-98.4979 898.361,-92.1016 887.769,-91.8348 889.914,-98.4979"/>
</g>
<!-- &#45;16&#45;&gt;410 -->
<g id="edge17" class="edge"><title>&#45;16&#45;&gt;410</title>
<path fill="none" stroke="green" stroke-width="0.949257" d="M743.898,-161.695C731.446,-156.568 712.996,-149.305 696.5,-144.125 627.257,-122.38 544.031,-103.594 500.113,-94.2371"/>
<polygon fill="green" stroke="green" stroke-width="0.949257" points="500.589,-90.7604 490.082,-92.1186 499.143,-97.6094 500.589,-90.7604"/>
</g>
<!-- &#45;17 -->
<g id="node17" class="node"><title>&#45;17</title>
<polygon fill="lightgray" stroke="black" points="507,-177.874 478,-177.874 478,-159.874 507,-159.874 507,-177.874"/>
<text text-anchor="middle" x="492.5" y="-166.674" font-family="Times,serif" font-size="9.00">&#45;17</text>
</g>
<!-- &#45;17&#45;&gt;1 -->
<g id="edge42" class="edge"><title>&#45;17&#45;&gt;1</title>
<path fill="none" stroke="green" stroke-width="0.517984" d="M486.213,-159.671C481.8,-154.469 475.462,-148.009 468.5,-144.125 399.938,-105.871 305.8,-93.4502 261.487,-89.5776"/>
<polygon fill="green" stroke="green" stroke-width="0.517984" points="261.587,-86.0746 251.34,-88.7667 261.029,-93.0523 261.587,-86.0746"/>
</g>
<!-- &#45;17&#45;&gt;3 -->
<g id="edge11" class="edge"><title>&#45;17&#45;&gt;3</title>
<path fill="none" stroke="green" stroke-width="0.374021" d="M498.659,-159.427C503.018,-154.121 509.344,-147.638 516.5,-144.125 625.174,-90.7766 666.723,-125.714 786.5,-108.125 821.791,-102.942 862.528,-96.2837 887.903,-92.0554"/>
<polygon fill="green" stroke="green" stroke-width="0.374021" points="888.492,-95.5057 897.777,-90.4035 887.336,-88.6017 888.492,-95.5057"/>
</g>
<!-- &#45;17&#45;&gt;410 -->
<g id="edge45" class="edge"><title>&#45;17&#45;&gt;410</title>
<path fill="none" stroke="red" stroke-width="0.163859" d="M490.125,-159.617C487.272,-149.697 482.326,-132.502 477.993,-117.438"/>
<polygon fill="red" stroke="red" stroke-width="0.163859" points="481.252,-116.107 475.124,-107.465 474.525,-118.042 481.252,-116.107"/>
</g>
<!-- &#45;18 -->
<g id="node18" class="node"><title>&#45;18</title>
<polygon fill="lightgray" stroke="black" points="123,-177.874 94,-177.874 94,-159.874 123,-159.874 123,-177.874"/>
<text text-anchor="middle" x="108.5" y="-166.674" font-family="Times,serif" font-size="9.00">&#45;18</text>
</g>
<!-- &#45;18&#45;&gt;1 -->
<g id="edge6" class="edge"><title>&#45;18&#45;&gt;1</title>
<path fill="none" stroke="red" stroke-width="0.180524" d="M115.562,-159.799C120.097,-154.902 126.284,-148.732 132.5,-144.125 158.524,-124.836 191.989,-107.965 213.829,-97.8618"/>
<polygon fill="red" stroke="red" stroke-width="0.180524" points="215.316,-101.03 222.977,-93.7116 212.424,-94.6558 215.316,-101.03"/>
</g>
<!-- &#45;18&#45;&gt;2 -->
<g id="edge21" class="edge"><title>&#45;18&#45;&gt;2</title>
<path fill="none" stroke="red" stroke-width="0.439653" d="M114.178,-159.62C128.268,-139.837 167.008,-89.5862 212.5,-65.6985 290.149,-24.9247 396.762,-17.2963 444.554,-16.0117"/>
<polygon fill="red" stroke="red" stroke-width="0.439653" points="444.681,-19.5099 454.61,-15.8143 444.543,-12.5113 444.681,-19.5099"/>
</g>
<!-- &#45;18&#45;&gt;410 -->
<g id="edge43" class="edge"><title>&#45;18&#45;&gt;410</title>
<path fill="none" stroke="red" stroke-width="0.233376" d="M114.698,-159.504C119.072,-154.23 125.402,-147.755 132.5,-144.125 185.872,-116.832 365.045,-97.5946 438.096,-90.7064"/>
<polygon fill="red" stroke="red" stroke-width="0.233376" points="438.842,-94.1524 448.476,-89.7438 438.196,-87.1823 438.842,-94.1524"/>
</g>
<!-- &#45;19 -->
<g id="node19" class="node"><title>&#45;19</title>
<polygon fill="lightgray" stroke="black" points="905,-177.874 876,-177.874 876,-159.874 905,-159.874 905,-177.874"/>
<text text-anchor="middle" x="890.5" y="-166.674" font-family="Times,serif" font-size="9.00">&#45;19</text>
</g>
<!-- &#45;19&#45;&gt;0 -->
<g id="edge37" class="edge"><title>&#45;19&#45;&gt;0</title>
<path fill="none" stroke="red" stroke-width="0.221114" d="M884.162,-159.759C879.729,-154.594 873.386,-148.142 866.5,-144.125 815.827,-114.558 791.318,-135.637 739.5,-108.125 737.467,-107.046 735.452,-105.772 733.503,-104.398"/>
<polygon fill="red" stroke="red" stroke-width="0.221114" points="735.535,-101.541 725.543,-98.0176 731.157,-107.003 735.535,-101.541"/>
</g>
<!-- &#45;19&#45;&gt;3 -->
<g id="edge3" class="edge"><title>&#45;19&#45;&gt;3</title>
<path fill="none" stroke="red" stroke-width="0.927649" d="M892.772,-159.617C895.87,-148.357 901.545,-127.728 906.017,-111.477"/>
<polygon fill="red" stroke="red" stroke-width="0.927649" points="909.463,-112.143 908.742,-101.572 902.714,-110.286 909.463,-112.143"/>
</g>
<!-- &#45;20 -->
<g id="node20" class="node"><title>&#45;20</title>
<polygon fill="lightgray" stroke="black" points="350,-177.874 321,-177.874 321,-159.874 350,-159.874 350,-177.874"/>
<text text-anchor="middle" x="335.5" y="-166.674" font-family="Times,serif" font-size="9.00">&#45;20</text>
</g>
<!-- &#45;20&#45;&gt;410 -->
<g id="edge44" class="edge"><title>&#45;20&#45;&gt;410</title>
<path fill="none" stroke="green" stroke-width="0.391371" d="M342.168,-159.719C346.476,-154.793 352.401,-148.62 358.5,-144.125 384.214,-125.175 417.258,-109.361 440.584,-99.383"/>
<polygon fill="green" stroke="green" stroke-width="0.391371" points="442.061,-102.559 449.936,-95.472 439.36,-96.1012 442.061,-102.559"/>
</g>
<!-- &#45;21 -->
<g id="node21" class="node"><title>&#45;21</title>
<polygon fill="lightgray" stroke="black" points="213,-177.874 184,-177.874 184,-159.874 213,-159.874 213,-177.874"/>
<text text-anchor="middle" x="198.5" y="-166.674" font-family="Times,serif" font-size="9.00">&#45;21</text>
</g>
<!-- &#45;21&#45;&gt;1 -->
<g id="edge7" class="edge"><title>&#45;21&#45;&gt;1</title>
<path fill="none" stroke="green" stroke-width="0.14751" d="M202.424,-159.617C207.92,-148.052 218.114,-126.601 225.925,-110.164"/>
<polygon fill="green" stroke="green" stroke-width="0.14751" points="229.287,-111.245 230.418,-100.71 222.964,-108.24 229.287,-111.245"/>
</g>
<!-- &#45;22 -->
<g id="node22" class="node"><title>&#45;22</title>
<polygon fill="lightgray" stroke="black" points="76,-177.874 47,-177.874 47,-159.874 76,-159.874 76,-177.874"/>
<text text-anchor="middle" x="61.5" y="-166.674" font-family="Times,serif" font-size="9.00">&#45;22</text>
</g>
<!-- &#45;22&#45;&gt;1 -->
<g id="edge18" class="edge"><title>&#45;22&#45;&gt;1</title>
<path fill="none" stroke="red" stroke-width="0.637353" d="M67.9941,-159.468C72.2369,-154.448 78.1536,-148.263 84.5,-144.125 125.4,-117.456 180.697,-101.112 212.078,-93.3505"/>
<polygon fill="red" stroke="red" stroke-width="0.637353" points="213.2,-96.6813 222.117,-90.9601 211.579,-89.8716 213.2,-96.6813"/>
</g>
<!-- &#45;22&#45;&gt;2 -->
<g id="edge38" class="edge"><title>&#45;22&#45;&gt;2</title>
<path fill="none" stroke="green" stroke-width="0.155397" d="M66.1958,-159.816C78.2048,-140.021 112.166,-88.9372 155.5,-65.6985 205.737,-38.7579 379.318,-22.8394 444.502,-17.695"/>
<polygon fill="green" stroke="green" stroke-width="0.155397" points="444.98,-21.1686 454.682,-16.9102 444.442,-14.1893 444.98,-21.1686"/>
</g>
<!-- &#45;23 -->
<g id="node23" class="node"><title>&#45;23</title>
<polygon fill="lightgray" stroke="black" points="687,-177.874 658,-177.874 658,-159.874 687,-159.874 687,-177.874"/>
<text text-anchor="middle" x="672.5" y="-166.674" font-family="Times,serif" font-size="9.00">&#45;23</text>
</g>
<!-- &#45;23&#45;&gt;0 -->
<g id="edge1" class="edge"><title>&#45;23&#45;&gt;0</title>
<path fill="none" stroke="green" stroke-width="0.27753" d="M676.94,-159.617C683.254,-147.876 695.046,-125.947 703.935,-109.418"/>
<polygon fill="green" stroke="green" stroke-width="0.27753" points="707.116,-110.893 708.769,-100.428 700.951,-107.577 707.116,-110.893"/>
</g>
<!-- &#45;23&#45;&gt;410 -->
<g id="edge24" class="edge"><title>&#45;23&#45;&gt;410</title>
<path fill="none" stroke="red" stroke-width="0.227048" d="M666.125,-159.823C661.675,-154.684 655.329,-148.239 648.5,-144.125 601.14,-115.593 537.887,-100.184 500.64,-93.039"/>
<polygon fill="red" stroke="red" stroke-width="0.227048" points="500.878,-89.5242 490.41,-91.1601 499.613,-96.4091 500.878,-89.5242"/>
</g>
<!-- &#45;24 -->
<g id="node24" class="node"><title>&#45;24</title>
<polygon fill="lightgray" stroke="black" points="775,-247.622 746,-247.622 746,-229.622 775,-229.622 775,-247.622"/>
<text text-anchor="middle" x="760.5" y="-236.422" font-family="Times,serif" font-size="9.00">&#45;24</text>
</g>
<!-- 1&#45;&gt;1 -->
<g id="edge22" class="edge"><title>1&#45;&gt;1</title>
<path fill="none" stroke="red" stroke-width="0.543647" d="M247.267,-97.6398C257.789,-103.566 269.349,-99.9898 269.349,-86.9117 269.349,-77.9205 263.885,-73.4205 257.051,-73.4117"/>
<polygon fill="red" stroke="red" stroke-width="0.543647" points="255.934,-70.0903 247.267,-76.1835 257.842,-76.8252 255.934,-70.0903"/>
</g>
<!-- 3&#45;&gt;3 -->
<g id="edge9" class="edge"><title>3&#45;&gt;3</title>
<path fill="none" stroke="red" stroke-width="0.314312" d="M923.267,-97.6398C933.789,-103.566 945.349,-99.9898 945.349,-86.9117 945.349,-77.9205 939.885,-73.4205 933.051,-73.4117"/>
<polygon fill="red" stroke="red" stroke-width="0.314312" points="931.934,-70.0903 923.267,-76.1835 933.842,-76.8252 931.934,-70.0903"/>
</g>
<!-- 3009&#45;&gt;410 -->
<g id="edge27" class="edge"><title>3009&#45;&gt;410</title>
<path fill="none" stroke="green" stroke-width="0.320289" d="M409.208,-150.523C420.563,-138.731 435.689,-123.024 447.949,-110.291"/>
<polygon fill="green" stroke="green" stroke-width="0.320289" points="450.738,-112.441 455.154,-102.81 445.696,-107.585 450.738,-112.441"/>
</g>
<!-- 410&#45;&gt;2 -->
<g id="edge5" class="edge"><title>410&#45;&gt;2</title>
<path fill="none" stroke="green" stroke-width="0.142175" d="M469.5,-65.6467C469.5,-57.6662 469.5,-48.4341 469.5,-40.1031"/>
<polygon fill="green" stroke="green" stroke-width="0.142175" points="473,-39.8511 469.5,-29.8512 466,-39.8512 473,-39.8511"/>
</g>
<!-- 410&#45;&gt;410 -->
<g id="edge26" class="edge"><title>410&#45;&gt;410</title>
<path fill="none" stroke="red" stroke-width="0.263491" d="M486.837,-99.3438C497.984,-102.587 508.713,-98.4429 508.713,-86.9117 508.713,-78.984 503.642,-74.5478 496.85,-73.6033"/>
<polygon fill="red" stroke="red" stroke-width="0.263491" points="496.493,-70.1211 486.837,-74.4796 497.104,-77.0944 496.493,-70.1211"/>
</g>
</g>
</svg>
