<?xml version="1.0" encoding="UTF-8" standalone="no"?>
<!DOCTYPE svg PUBLIC "-//W3C//DTD SVG 1.1//EN"
 "http://www.w3.org/Graphics/SVG/1.1/DTD/svg11.dtd">
<!-- Generated by graphviz version 2.38.0 (20140413.2041)
 -->
<!-- Title: %3 Pages: 1 -->
<svg width="1118pt" height="256pt"
 viewBox="0.00 0.00 1118.15 255.62" xmlns="http://www.w3.org/2000/svg" xmlns:xlink="http://www.w3.org/1999/xlink">
<g id="graph0" class="graph" transform="scale(1 1) rotate(0) translate(4 251.622)">
<title>%3</title>
<polygon fill="white" stroke="none" points="-4,4 -4,-251.622 1114.15,-251.622 1114.15,4 -4,4"/>
<!-- &#45;1 -->
<g id="node1" class="node"><title>&#45;1</title>
<polygon fill="lightgray" stroke="black" points="42.6482,-177.874 18.6482,-177.874 18.6482,-159.874 42.6482,-159.874 42.6482,-177.874"/>
<text text-anchor="middle" x="30.6482" y="-166.674" font-family="Times,serif" font-size="9.00">&#45;1</text>
</g>
<!-- 410 -->
<g id="node30" class="node"><title>410</title>
<ellipse fill="white" stroke="black" cx="357.648" cy="-86.9117" rx="21.4286" ry="21.4286"/>
<text text-anchor="middle" x="357.648" y="-84.7117" font-family="Times,serif" font-size="9.00">410</text>
</g>
<!-- &#45;1&#45;&gt;410 -->
<g id="edge36" class="edge"><title>&#45;1&#45;&gt;410</title>
<path fill="none" stroke="red" stroke-width="0.104116" d="M35.8691,-159.538C39.6116,-154.279 45.131,-147.806 51.6482,-144.125 141.744,-93.2294 268.361,-87.0281 326.382,-87.1302"/>
<polygon fill="red" stroke="red" stroke-width="0.104116" points="326.365,-90.6301 336.393,-87.2133 326.423,-83.6303 326.365,-90.6301"/>
</g>
<!-- &#45;2 -->
<g id="node2" class="node"><title>&#45;2</title>
<polygon fill="lightgray" stroke="black" points="452.648,-177.874 428.648,-177.874 428.648,-159.874 452.648,-159.874 452.648,-177.874"/>
<text text-anchor="middle" x="440.648" y="-166.674" font-family="Times,serif" font-size="9.00">&#45;2</text>
</g>
<!-- 1 -->
<g id="node26" class="node"><title>1</title>
<ellipse fill="lightblue" stroke="black" cx="480.648" cy="-86.9117" rx="14.7" ry="14.7"/>
<text text-anchor="middle" x="480.648" y="-84.7117" font-family="Times,serif" font-size="9.00">1</text>
</g>
<!-- &#45;2&#45;&gt;1 -->
<g id="edge11" class="edge"><title>&#45;2&#45;&gt;1</title>
<path fill="none" stroke="red" stroke-width="0.178155" d="M444.778,-159.617C450.652,-147.876 461.622,-125.947 469.89,-109.418"/>
<polygon fill="red" stroke="red" stroke-width="0.178155" points="473.044,-110.937 474.387,-100.428 466.783,-107.805 473.044,-110.937"/>
</g>
<!-- &#45;2&#45;&gt;410 -->
<g id="edge43" class="edge"><title>&#45;2&#45;&gt;410</title>
<path fill="none" stroke="green" stroke-width="0.292714" d="M433.468,-159.809C429.242,-155.142 423.742,-149.205 418.648,-144.125 406.47,-131.978 392.377,-118.93 380.807,-108.465"/>
<polygon fill="green" stroke="green" stroke-width="0.292714" points="383.032,-105.758 373.255,-101.675 378.352,-110.964 383.032,-105.758"/>
</g>
<!-- &#45;3 -->
<g id="node3" class="node"><title>&#45;3</title>
<polygon fill="lightgray" stroke="black" points="759.648,-177.874 735.648,-177.874 735.648,-159.874 759.648,-159.874 759.648,-177.874"/>
<text text-anchor="middle" x="747.648" y="-166.674" font-family="Times,serif" font-size="9.00">&#45;3</text>
</g>
<!-- 0 -->
<g id="node25" class="node"><title>0</title>
<ellipse fill="lightblue" stroke="black" cx="792.648" cy="-86.9117" rx="14.7" ry="14.7"/>
<text text-anchor="middle" x="792.648" y="-84.7117" font-family="Times,serif" font-size="9.00">0</text>
</g>
<!-- &#45;3&#45;&gt;0 -->
<g id="edge47" class="edge"><title>&#45;3&#45;&gt;0</title>
<path fill="none" stroke="green" stroke-width="0.153634" d="M752.294,-159.617C758.94,-147.809 771.384,-125.697 780.703,-109.137"/>
<polygon fill="green" stroke="green" stroke-width="0.153634" points="783.908,-110.579 785.762,-100.147 777.808,-107.146 783.908,-110.579"/>
</g>
<!-- &#45;3&#45;&gt;1 -->
<g id="edge34" class="edge"><title>&#45;3&#45;&gt;1</title>
<path fill="none" stroke="green" stroke-width="0.295989" d="M742.374,-159.63C738.609,-154.409 733.085,-147.946 726.648,-144.125 689.025,-121.792 560.356,-100.088 505.619,-91.6274"/>
<polygon fill="green" stroke="green" stroke-width="0.295989" points="505.825,-88.1186 495.412,-90.0714 504.77,-95.0386 505.825,-88.1186"/>
</g>
<!-- 2 -->
<g id="node27" class="node"><title>2</title>
<ellipse fill="lightblue" stroke="black" cx="263.648" cy="-14.8492" rx="14.7" ry="14.7"/>
<text text-anchor="middle" x="263.648" y="-12.6492" font-family="Times,serif" font-size="9.00">2</text>
</g>
<!-- &#45;3&#45;&gt;2 -->
<g id="edge20" class="edge"><title>&#45;3&#45;&gt;2</title>
<path fill="none" stroke="green" stroke-width="0.127633" d="M741.841,-159.472C738.013,-154.453 732.616,-148.268 726.648,-144.125 646.858,-88.7271 616.039,-92.4103 522.648,-65.6985 438.28,-41.5674 335.088,-25.6302 288.532,-19.1418"/>
<polygon fill="green" stroke="green" stroke-width="0.127633" points="288.848,-15.6525 278.466,-17.7641 287.899,-22.5879 288.848,-15.6525"/>
</g>
<!-- &#45;4 -->
<g id="node4" class="node"><title>&#45;4</title>
<polygon fill="lightgray" stroke="black" points="889.648,-247.622 865.648,-247.622 865.648,-229.622 889.648,-229.622 889.648,-247.622"/>
<text text-anchor="middle" x="877.648" y="-236.422" font-family="Times,serif" font-size="9.00">&#45;4</text>
</g>
<!-- &#45;4&#45;&gt;0 -->
<g id="edge37" class="edge"><title>&#45;4&#45;&gt;0</title>
<path fill="none" stroke="red" stroke-width="1.04242" d="M877.727,-229.492C877.541,-212.447 875.226,-172.231 858.648,-144.125 847.82,-125.766 828.776,-110.518 813.919,-100.556"/>
<polygon fill="red" stroke="red" stroke-width="1.04242" points="815.63,-97.4959 805.32,-95.0561 811.859,-103.393 815.63,-97.4959"/>
</g>
<!-- 3 -->
<g id="node28" class="node"><title>3</title>
<ellipse fill="lightblue" stroke="black" cx="942.648" cy="-86.9117" rx="14.7" ry="14.7"/>
<text text-anchor="middle" x="942.648" y="-84.7117" font-family="Times,serif" font-size="9.00">3</text>
</g>
<!-- &#45;4&#45;&gt;3 -->
<g id="edge17" class="edge"><title>&#45;4&#45;&gt;3</title>
<path fill="none" stroke="red" stroke-width="0.71981" d="M889.767,-233.145C917.567,-222.82 983.766,-197.894 986.648,-193.622 998.953,-175.386 993.82,-164.922 986.648,-144.125 981.433,-129 970.288,-114.835 960.521,-104.507"/>
<polygon fill="red" stroke="red" stroke-width="0.71981" points="962.98,-102.017 953.441,-97.4057 958.023,-106.959 962.98,-102.017"/>
</g>
<!-- 3009 -->
<g id="node29" class="node"><title>3009</title>
<ellipse fill="white" stroke="black" cx="320.648" cy="-168.874" rx="25" ry="25"/>
<text text-anchor="middle" x="320.648" y="-166.674" font-family="Times,serif" font-size="9.00">3009</text>
</g>
<!-- &#45;4&#45;&gt;3009 -->
<g id="edge24" class="edge"><title>&#45;4&#45;&gt;3009</title>
<path fill="none" stroke="red" stroke-width="0.549158" d="M865.647,-237.146C798.55,-234.396 469.399,-219.759 371.648,-193.622 364.801,-191.792 357.739,-189.091 351.132,-186.16"/>
<polygon fill="red" stroke="red" stroke-width="0.549158" points="352.395,-182.886 341.858,-181.776 349.403,-189.214 352.395,-182.886"/>
</g>
<!-- &#45;5 -->
<g id="node5" class="node"><title>&#45;5</title>
<polygon fill="lightgray" stroke="black" points="977.648,-177.874 953.648,-177.874 953.648,-159.874 977.648,-159.874 977.648,-177.874"/>
<text text-anchor="middle" x="965.648" y="-166.674" font-family="Times,serif" font-size="9.00">&#45;5</text>
</g>
<!-- &#45;5&#45;&gt;0 -->
<g id="edge27" class="edge"><title>&#45;5&#45;&gt;0</title>
<path fill="none" stroke="red" stroke-width="1.65594" d="M959.859,-159.445C956.038,-154.416 950.642,-148.23 944.648,-144.125 904.363,-116.536 848.847,-100.52 817.262,-93.0641"/>
<polygon fill="red" stroke="red" stroke-width="1.65594" points="817.677,-89.5698 807.152,-90.7791 816.134,-96.3976 817.677,-89.5698"/>
</g>
<!-- &#45;5&#45;&gt;3 -->
<g id="edge38" class="edge"><title>&#45;5&#45;&gt;3</title>
<path fill="none" stroke="green" stroke-width="0.462709" d="M963.273,-159.617C960.016,-148.292 954.032,-127.487 949.345,-111.194"/>
<polygon fill="green" stroke="green" stroke-width="0.462709" points="952.622,-109.926 946.494,-101.283 945.895,-111.861 952.622,-109.926"/>
</g>
<!-- &#45;6 -->
<g id="node6" class="node"><title>&#45;6</title>
<polygon fill="lightgray" stroke="black" points="627.648,-177.874 603.648,-177.874 603.648,-159.874 627.648,-159.874 627.648,-177.874"/>
<text text-anchor="middle" x="615.648" y="-166.674" font-family="Times,serif" font-size="9.00">&#45;6</text>
</g>
<!-- &#45;6&#45;&gt;0 -->
<g id="edge15" class="edge"><title>&#45;6&#45;&gt;0</title>
<path fill="none" stroke="green" stroke-width="0.194086" d="M621.425,-159.427C625.242,-154.391 630.637,-148.205 636.648,-144.125 678.379,-115.801 736.054,-99.9174 768.306,-92.7121"/>
<polygon fill="green" stroke="green" stroke-width="0.194086" points="769.161,-96.1084 778.209,-90.5958 767.698,-89.2629 769.161,-96.1084"/>
</g>
<!-- &#45;6&#45;&gt;1 -->
<g id="edge28" class="edge"><title>&#45;6&#45;&gt;1</title>
<path fill="none" stroke="red" stroke-width="0.146537" d="M609.703,-159.66C605.824,-154.712 600.421,-148.536 594.648,-144.125 566.264,-122.438 528.195,-105.701 504.038,-96.326"/>
<polygon fill="red" stroke="red" stroke-width="0.146537" points="505.197,-93.0226 494.605,-92.7656 502.725,-99.5716 505.197,-93.0226"/>
</g>
<!-- &#45;7 -->
<g id="node7" class="node"><title>&#45;7</title>
<polygon fill="lightgray" stroke="black" points="849.648,-177.874 825.648,-177.874 825.648,-159.874 849.648,-159.874 849.648,-177.874"/>
<text text-anchor="middle" x="837.648" y="-166.674" font-family="Times,serif" font-size="9.00">&#45;7</text>
</g>
<!-- &#45;7&#45;&gt;0 -->
<g id="edge46" class="edge"><title>&#45;7&#45;&gt;0</title>
<path fill="none" stroke="green" stroke-width="0.162848" d="M833.002,-159.617C826.357,-147.809 813.913,-125.697 804.593,-109.137"/>
<polygon fill="green" stroke="green" stroke-width="0.162848" points="807.489,-107.146 799.534,-100.147 801.388,-110.579 807.489,-107.146"/>
</g>
<!-- &#45;8 -->
<g id="node8" class="node"><title>&#45;8</title>
<polygon fill="lightgray" stroke="black" points="669.648,-177.874 645.648,-177.874 645.648,-159.874 669.648,-159.874 669.648,-177.874"/>
<text text-anchor="middle" x="657.648" y="-166.674" font-family="Times,serif" font-size="9.00">&#45;8</text>
</g>
<!-- &#45;8&#45;&gt;3 -->
<g id="edge35" class="edge"><title>&#45;8&#45;&gt;3</title>
<path fill="none" stroke="green" stroke-width="0.160716" d="M663.238,-159.602C667.21,-154.37 673.004,-147.904 679.648,-144.125 700.467,-132.285 856.86,-103.314 918.132,-92.2781"/>
<polygon fill="green" stroke="green" stroke-width="0.160716" points="918.865,-95.7026 928.09,-90.4919 917.629,-88.8126 918.865,-95.7026"/>
</g>
<!-- &#45;8&#45;&gt;410 -->
<g id="edge51" class="edge"><title>&#45;8&#45;&gt;410</title>
<path fill="none" stroke="red" stroke-width="0.421244" d="M652.408,-159.572C648.657,-154.327 643.136,-147.858 636.648,-144.125 565.932,-103.441 536.616,-124.285 456.648,-108.125 433.765,-103.501 407.92,-98.2217 388.375,-94.2184"/>
<polygon fill="red" stroke="red" stroke-width="0.421244" points="389.001,-90.774 378.502,-92.1948 387.596,-97.6315 389.001,-90.774"/>
</g>
<!-- &#45;9 -->
<g id="node9" class="node"><title>&#45;9</title>
<polygon fill="lightgray" stroke="black" points="412.648,-247.622 388.648,-247.622 388.648,-229.622 412.648,-229.622 412.648,-247.622"/>
<text text-anchor="middle" x="400.648" y="-236.422" font-family="Times,serif" font-size="9.00">&#45;9</text>
</g>
<!-- &#45;9&#45;&gt;1 -->
<g id="edge31" class="edge"><title>&#45;9&#45;&gt;1</title>
<path fill="none" stroke="red" stroke-width="0.477998" d="M412.671,-232.422C426.802,-225.647 449.822,-212.408 461.648,-193.622 477.272,-168.806 480.87,-134.586 481.321,-111.882"/>
<polygon fill="red" stroke="red" stroke-width="0.477998" points="484.821,-111.755 481.329,-101.752 477.821,-111.75 484.821,-111.755"/>
</g>
<!-- &#45;9&#45;&gt;3009 -->
<g id="edge50" class="edge"><title>&#45;9&#45;&gt;3009</title>
<path fill="none" stroke="red" stroke-width="0.343465" d="M391.157,-229.585C380.401,-220.476 362.399,-205.231 347.278,-192.425"/>
<polygon fill="red" stroke="red" stroke-width="0.343465" points="349.131,-189.408 339.238,-185.616 344.607,-194.75 349.131,-189.408"/>
</g>
<!-- &#45;10 -->
<g id="node10" class="node"><title>&#45;10</title>
<polygon fill="lightgray" stroke="black" points="90.1482,-177.874 61.1482,-177.874 61.1482,-159.874 90.1482,-159.874 90.1482,-177.874"/>
<text text-anchor="middle" x="75.6482" y="-166.674" font-family="Times,serif" font-size="9.00">&#45;10</text>
</g>
<!-- &#45;10&#45;&gt;410 -->
<g id="edge45" class="edge"><title>&#45;10&#45;&gt;410</title>
<path fill="none" stroke="red" stroke-width="0.608235" d="M81.5746,-159.612C85.7615,-154.384 91.8263,-147.919 98.6482,-144.125 173.167,-102.68 275.522,-91.7813 326.361,-88.9227"/>
<polygon fill="red" stroke="red" stroke-width="0.608235" points="326.584,-92.4161 336.399,-88.4267 326.239,-85.4246 326.584,-92.4161"/>
</g>
<!-- &#45;11 -->
<g id="node11" class="node"><title>&#45;11</title>
<polygon fill="lightgray" stroke="black" points="1063.15,-177.874 1034.15,-177.874 1034.15,-159.874 1063.15,-159.874 1063.15,-177.874"/>
<text text-anchor="middle" x="1048.65" y="-166.674" font-family="Times,serif" font-size="9.00">&#45;11</text>
</g>
<!-- &#45;11&#45;&gt;3 -->
<g id="edge32" class="edge"><title>&#45;11&#45;&gt;3</title>
<path fill="none" stroke="green" stroke-width="1.17082" d="M1039.09,-159.822C1033.49,-155.159 1026.24,-149.221 1019.65,-144.125 1000.72,-129.48 978.601,-113.442 962.941,-102.259"/>
<polygon fill="green" stroke="green" stroke-width="1.17082" points="964.717,-99.2269 954.54,-96.2823 960.659,-104.931 964.717,-99.2269"/>
</g>
<!-- &#45;12 -->
<g id="node12" class="node"><title>&#45;12</title>
<polygon fill="lightgray" stroke="black" points="1110.15,-177.874 1081.15,-177.874 1081.15,-159.874 1110.15,-159.874 1110.15,-177.874"/>
<text text-anchor="middle" x="1095.65" y="-166.674" font-family="Times,serif" font-size="9.00">&#45;12</text>
</g>
<!-- &#45;12&#45;&gt;2 -->
<g id="edge23" class="edge"><title>&#45;12&#45;&gt;2</title>
<path fill="none" stroke="red" stroke-width="0.477919" d="M1090.08,-159.805C1075.54,-139.52 1034.14,-86.5328 984.648,-65.6985 919.392,-38.2252 408.691,-20.4453 288.786,-16.6235"/>
<polygon fill="red" stroke="red" stroke-width="0.477919" points="288.536,-13.1139 278.431,-16.2973 288.316,-20.1105 288.536,-13.1139"/>
</g>
<!-- &#45;12&#45;&gt;3 -->
<g id="edge44" class="edge"><title>&#45;12&#45;&gt;3</title>
<path fill="none" stroke="red" stroke-width="0.291375" d="M1089.07,-159.588C1084.8,-154.612 1078.88,-148.433 1072.65,-144.125 1038.9,-120.798 993.919,-103.999 966.685,-95.1281"/>
<polygon fill="red" stroke="red" stroke-width="0.291375" points="967.435,-91.6946 956.845,-92.0177 965.325,-98.3691 967.435,-91.6946"/>
</g>
<!-- &#45;13 -->
<g id="node13" class="node"><title>&#45;13</title>
<polygon fill="lightgray" stroke="black" points="228.148,-247.622 199.148,-247.622 199.148,-229.622 228.148,-229.622 228.148,-247.622"/>
<text text-anchor="middle" x="213.648" y="-236.422" font-family="Times,serif" font-size="9.00">&#45;13</text>
</g>
<!-- &#45;13&#45;&gt;2 -->
<g id="edge18" class="edge"><title>&#45;13&#45;&gt;2</title>
<path fill="none" stroke="green" stroke-width="0.434785" d="M198.876,-236.759C156.092,-233.919 33.6018,-223.293 9.64819,-193.622 -4.17056,-176.505 -1.87977,-162.861 9.64819,-144.125 61.1138,-60.4772 185.826,-29.3878 238.984,-19.6712"/>
<polygon fill="green" stroke="green" stroke-width="0.434785" points="239.646,-23.1087 248.904,-17.9571 238.454,-16.2109 239.646,-23.1087"/>
</g>
<!-- &#45;13&#45;&gt;3009 -->
<g id="edge10" class="edge"><title>&#45;13&#45;&gt;3009</title>
<path fill="none" stroke="red" stroke-width="0.222124" d="M227.816,-229.464C242.652,-220.832 266.545,-206.681 286.648,-193.622 288.512,-192.411 290.422,-191.147 292.338,-189.86"/>
<polygon fill="red" stroke="red" stroke-width="0.222124" points="294.386,-192.699 300.665,-184.165 290.435,-186.921 294.386,-192.699"/>
</g>
<!-- &#45;14 -->
<g id="node14" class="node"><title>&#45;14</title>
<polygon fill="lightgray" stroke="black" points="231.148,-177.874 202.148,-177.874 202.148,-159.874 231.148,-159.874 231.148,-177.874"/>
<text text-anchor="middle" x="216.648" y="-166.674" font-family="Times,serif" font-size="9.00">&#45;14</text>
</g>
<!-- &#45;14&#45;&gt;1 -->
<g id="edge42" class="edge"><title>&#45;14&#45;&gt;1</title>
<path fill="none" stroke="green" stroke-width="0.33948" d="M222.574,-159.612C226.761,-154.384 232.826,-147.918 239.648,-144.125 305.627,-107.437 332.291,-125.953 405.648,-108.125 422.836,-103.948 442.099,-98.7448 456.8,-94.6637"/>
<polygon fill="green" stroke="green" stroke-width="0.33948" points="457.915,-97.9861 466.602,-91.9211 456.029,-91.245 457.915,-97.9861"/>
</g>
<!-- &#45;14&#45;&gt;2 -->
<g id="edge14" class="edge"><title>&#45;14&#45;&gt;2</title>
<path fill="none" stroke="green" stroke-width="0.148049" d="M219.175,-159.7C226.122,-137.232 245.699,-73.9062 256.416,-39.243"/>
<polygon fill="green" stroke="green" stroke-width="0.148049" points="259.823,-40.0702 259.433,-29.4826 253.136,-38.0026 259.823,-40.0702"/>
</g>
<!-- &#45;15 -->
<g id="node15" class="node"><title>&#45;15</title>
<polygon fill="lightgray" stroke="black" points="410.148,-177.874 381.148,-177.874 381.148,-159.874 410.148,-159.874 410.148,-177.874"/>
<text text-anchor="middle" x="395.648" y="-166.674" font-family="Times,serif" font-size="9.00">&#45;15</text>
</g>
<!-- &#45;15&#45;&gt;1 -->
<g id="edge16" class="edge"><title>&#45;15&#45;&gt;1</title>
<path fill="none" stroke="red" stroke-width="0.241337" d="M404.018,-159.447C408.596,-154.874 414.391,-149.145 419.648,-144.125 433.696,-130.71 449.873,-115.827 462.037,-104.747"/>
<polygon fill="red" stroke="red" stroke-width="0.241337" points="464.693,-107.063 469.742,-97.748 459.986,-101.881 464.693,-107.063"/>
</g>
<!-- &#45;15&#45;&gt;410 -->
<g id="edge2" class="edge"><title>&#45;15&#45;&gt;410</title>
<path fill="none" stroke="red" stroke-width="0.383006" d="M391.725,-159.617C386.825,-149.308 378.193,-131.143 370.843,-115.676"/>
<polygon fill="red" stroke="red" stroke-width="0.383006" points="373.93,-114.019 366.477,-106.489 367.608,-117.023 373.93,-114.019"/>
</g>
<!-- &#45;16 -->
<g id="node16" class="node"><title>&#45;16</title>
<polygon fill="lightgray" stroke="black" points="807.148,-177.874 778.148,-177.874 778.148,-159.874 807.148,-159.874 807.148,-177.874"/>
<text text-anchor="middle" x="792.648" y="-166.674" font-family="Times,serif" font-size="9.00">&#45;16</text>
</g>
<!-- &#45;16&#45;&gt;0 -->
<g id="edge19" class="edge"><title>&#45;16&#45;&gt;0</title>
<path fill="none" stroke="green" stroke-width="0.299571" d="M792.648,-159.617C792.648,-148.53 792.648,-128.356 792.648,-112.225"/>
<polygon fill="green" stroke="green" stroke-width="0.299571" points="796.148,-111.864 792.648,-101.864 789.148,-111.864 796.148,-111.864"/>
</g>
<!-- &#45;16&#45;&gt;1 -->
<g id="edge33" class="edge"><title>&#45;16&#45;&gt;1</title>
<path fill="none" stroke="red" stroke-width="0.311843" d="M786.417,-159.568C782.028,-154.321 775.695,-147.852 768.648,-144.125 680.147,-97.3222 557.804,-89.2501 505.731,-88.0256"/>
<polygon fill="red" stroke="red" stroke-width="0.311843" points="505.781,-84.5261 495.724,-87.8568 505.663,-91.5251 505.781,-84.5261"/>
</g>
<!-- &#45;16&#45;&gt;3 -->
<g id="edge4" class="edge"><title>&#45;16&#45;&gt;3</title>
<path fill="none" stroke="green" stroke-width="0.419762" d="M799.591,-159.63C804.08,-154.671 810.262,-148.493 816.648,-144.125 849.462,-121.681 892.688,-104.712 919.033,-95.5516"/>
<polygon fill="green" stroke="green" stroke-width="0.419762" points="920.22,-98.845 928.568,-92.322 917.974,-92.215 920.22,-98.845"/>
</g>
<!-- &#45;16&#45;&gt;410 -->
<g id="edge21" class="edge"><title>&#45;16&#45;&gt;410</title>
<path fill="none" stroke="green" stroke-width="0.178915" d="M786.888,-159.852C782.531,-154.446 776.047,-147.676 768.648,-144.125 642.807,-83.7231 594.493,-130.107 456.648,-108.125 433.594,-104.448 407.755,-99.1318 388.257,-94.8739"/>
<polygon fill="green" stroke="green" stroke-width="0.178915" points="388.931,-91.4386 378.412,-92.6965 387.42,-98.2734 388.931,-91.4386"/>
</g>
<!-- &#45;17 -->
<g id="node17" class="node"><title>&#45;17</title>
<polygon fill="lightgray" stroke="black" points="717.148,-177.874 688.148,-177.874 688.148,-159.874 717.148,-159.874 717.148,-177.874"/>
<text text-anchor="middle" x="702.648" y="-166.674" font-family="Times,serif" font-size="9.00">&#45;17</text>
</g>
<!-- &#45;17&#45;&gt;0 -->
<g id="edge5" class="edge"><title>&#45;17&#45;&gt;0</title>
<path fill="none" stroke="green" stroke-width="0.149793" d="M710.503,-159.805C715.122,-155.137 721.122,-149.2 726.648,-144.125 741.926,-130.096 759.882,-114.881 773.205,-103.822"/>
<polygon fill="green" stroke="green" stroke-width="0.149793" points="775.732,-106.275 781.216,-97.2095 771.276,-100.876 775.732,-106.275"/>
</g>
<!-- &#45;17&#45;&gt;1 -->
<g id="edge53" class="edge"><title>&#45;17&#45;&gt;1</title>
<path fill="none" stroke="red" stroke-width="0.176208" d="M696.31,-159.76C691.876,-154.595 685.533,-148.144 678.648,-144.125 621.809,-110.945 544.266,-96.411 505.233,-90.8677"/>
<polygon fill="red" stroke="red" stroke-width="0.176208" points="505.67,-87.3951 495.294,-89.5346 504.74,-94.333 505.67,-87.3951"/>
</g>
<!-- &#45;17&#45;&gt;3 -->
<g id="edge6" class="edge"><title>&#45;17&#45;&gt;3</title>
<path fill="none" stroke="green" stroke-width="0.76863" d="M708.957,-159.71C713.379,-154.524 719.719,-148.068 726.648,-144.125 789.561,-108.323 875.673,-94.839 917.627,-90.1652"/>
<polygon fill="green" stroke="green" stroke-width="0.76863" points="918.183,-93.6265 927.768,-89.1137 917.461,-86.6638 918.183,-93.6265"/>
</g>
<!-- &#45;17&#45;&gt;410 -->
<g id="edge52" class="edge"><title>&#45;17&#45;&gt;410</title>
<path fill="none" stroke="green" stroke-width="0.36922" d="M696.456,-159.493C692.083,-154.215 685.754,-147.739 678.648,-144.125 589.551,-98.8164 554.969,-126.126 456.648,-108.125 433.685,-103.92 407.842,-98.6249 388.319,-94.5088"/>
<polygon fill="green" stroke="green" stroke-width="0.36922" points="388.968,-91.0686 378.459,-92.417 387.515,-97.9162 388.968,-91.0686"/>
</g>
<!-- &#45;18 -->
<g id="node18" class="node"><title>&#45;18</title>
<polygon fill="lightgray" stroke="black" points="184.148,-177.874 155.148,-177.874 155.148,-159.874 184.148,-159.874 184.148,-177.874"/>
<text text-anchor="middle" x="169.648" y="-166.674" font-family="Times,serif" font-size="9.00">&#45;18</text>
</g>
<!-- &#45;18&#45;&gt;1 -->
<g id="edge8" class="edge"><title>&#45;18&#45;&gt;1</title>
<path fill="none" stroke="green" stroke-width="0.206112" d="M175.518,-159.507C179.681,-154.235 185.74,-147.76 192.648,-144.125 277.611,-99.4136 311.856,-128.64 405.648,-108.125 422.928,-104.345 442.189,-99.1325 456.865,-94.9473"/>
<polygon fill="green" stroke="green" stroke-width="0.206112" points="458.014,-98.2584 466.648,-92.1167 456.069,-91.5343 458.014,-98.2584"/>
</g>
<!-- &#45;18&#45;&gt;2 -->
<g id="edge25" class="edge"><title>&#45;18&#45;&gt;2</title>
<path fill="none" stroke="green" stroke-width="0.185661" d="M174.701,-159.656C185.378,-142.293 211.035,-100.603 232.648,-65.6985 238.621,-56.0523 245.262,-45.3686 250.86,-36.3739"/>
<polygon fill="green" stroke="green" stroke-width="0.185661" points="253.93,-38.0653 256.244,-27.7264 247.988,-34.3653 253.93,-38.0653"/>
</g>
<!-- &#45;18&#45;&gt;410 -->
<g id="edge12" class="edge"><title>&#45;18&#45;&gt;410</title>
<path fill="none" stroke="red" stroke-width="0.432017" d="M175.725,-159.866C179.976,-154.745 186.055,-148.304 192.648,-144.125 235.156,-117.185 292.064,-101.524 326.726,-93.8573"/>
<polygon fill="red" stroke="red" stroke-width="0.432017" points="327.675,-97.2339 336.729,-91.7309 326.22,-90.3869 327.675,-97.2339"/>
</g>
<!-- &#45;19 -->
<g id="node19" class="node"><title>&#45;19</title>
<polygon fill="lightgray" stroke="black" points="935.148,-177.874 906.148,-177.874 906.148,-159.874 935.148,-159.874 935.148,-177.874"/>
<text text-anchor="middle" x="920.648" y="-166.674" font-family="Times,serif" font-size="9.00">&#45;19</text>
</g>
<!-- &#45;19&#45;&gt;0 -->
<g id="edge39" class="edge"><title>&#45;19&#45;&gt;0</title>
<path fill="none" stroke="green" stroke-width="0.155899" d="M911.558,-159.756C905.993,-154.96 898.624,-148.911 891.648,-144.125 866.297,-126.733 835.203,-109.723 814.705,-99.0514"/>
<polygon fill="green" stroke="green" stroke-width="0.155899" points="816.058,-95.8115 805.565,-94.348 812.855,-102.036 816.058,-95.8115"/>
</g>
<!-- &#45;19&#45;&gt;3 -->
<g id="edge3" class="edge"><title>&#45;19&#45;&gt;3</title>
<path fill="none" stroke="red" stroke-width="0.209249" d="M922.92,-159.617C926.018,-148.357 931.694,-127.728 936.165,-111.477"/>
<polygon fill="red" stroke="red" stroke-width="0.209249" points="939.611,-112.143 938.89,-101.572 932.862,-110.286 939.611,-112.143"/>
</g>
<!-- &#45;20 -->
<g id="node20" class="node"><title>&#45;20</title>
<polygon fill="lightgray" stroke="black" points="137.148,-177.874 108.148,-177.874 108.148,-159.874 137.148,-159.874 137.148,-177.874"/>
<text text-anchor="middle" x="122.648" y="-166.674" font-family="Times,serif" font-size="9.00">&#45;20</text>
</g>
<!-- &#45;20&#45;&gt;410 -->
<g id="edge49" class="edge"><title>&#45;20&#45;&gt;410</title>
<path fill="none" stroke="green" stroke-width="0.344977" d="M128.633,-159.714C132.844,-154.529 138.914,-148.073 145.648,-144.125 203.789,-110.036 282.877,-96.2132 326.152,-90.9284"/>
<polygon fill="green" stroke="green" stroke-width="0.344977" points="326.811,-94.376 336.348,-89.7616 326.015,-87.4213 326.811,-94.376"/>
</g>
<!-- &#45;21 -->
<g id="node21" class="node"><title>&#45;21</title>
<polygon fill="lightgray" stroke="black" points="585.148,-177.874 556.148,-177.874 556.148,-159.874 585.148,-159.874 585.148,-177.874"/>
<text text-anchor="middle" x="570.648" y="-166.674" font-family="Times,serif" font-size="9.00">&#45;21</text>
</g>
<!-- &#45;21&#45;&gt;1 -->
<g id="edge9" class="edge"><title>&#45;21&#45;&gt;1</title>
<path fill="none" stroke="green" stroke-width="0.139725" d="M563.181,-159.754C558.775,-155.069 553.025,-149.131 547.648,-144.125 532.152,-129.696 513.657,-114.306 500.028,-103.284"/>
<polygon fill="green" stroke="green" stroke-width="0.139725" points="501.846,-100.255 491.856,-96.7258 497.465,-105.714 501.846,-100.255"/>
</g>
<!-- &#45;22 -->
<g id="node22" class="node"><title>&#45;22</title>
<polygon fill="lightgray" stroke="black" points="278.148,-177.874 249.148,-177.874 249.148,-159.874 278.148,-159.874 278.148,-177.874"/>
<text text-anchor="middle" x="263.648" y="-166.674" font-family="Times,serif" font-size="9.00">&#45;22</text>
</g>
<!-- &#45;22&#45;&gt;1 -->
<g id="edge22" class="edge"><title>&#45;22&#45;&gt;1</title>
<path fill="none" stroke="red" stroke-width="0.203044" d="M269.663,-159.764C273.887,-154.601 279.96,-148.15 286.648,-144.125 294.099,-139.641 406.51,-108.348 456.727,-94.4898"/>
<polygon fill="red" stroke="red" stroke-width="0.203044" points="457.728,-97.8445 466.439,-91.8133 455.868,-91.0961 457.728,-97.8445"/>
</g>
<!-- &#45;22&#45;&gt;2 -->
<g id="edge40" class="edge"><title>&#45;22&#45;&gt;2</title>
<path fill="none" stroke="red" stroke-width="0.109144" d="M263.648,-159.7C263.648,-137.44 263.648,-75.076 263.648,-40.2136"/>
<polygon fill="red" stroke="red" stroke-width="0.109144" points="267.148,-39.9467 263.648,-29.9468 260.148,-39.9468 267.148,-39.9467"/>
</g>
<!-- &#45;23 -->
<g id="node23" class="node"><title>&#45;23</title>
<polygon fill="lightgray" stroke="black" points="538.148,-177.874 509.148,-177.874 509.148,-159.874 538.148,-159.874 538.148,-177.874"/>
<text text-anchor="middle" x="523.648" y="-166.674" font-family="Times,serif" font-size="9.00">&#45;23</text>
</g>
<!-- &#45;23&#45;&gt;0 -->
<g id="edge1" class="edge"><title>&#45;23&#45;&gt;0</title>
<path fill="none" stroke="green" stroke-width="0.414324" d="M529.92,-159.643C534.326,-154.429 540.663,-147.967 547.648,-144.125 620.927,-103.822 721.787,-92.3589 767.871,-89.1422"/>
<polygon fill="green" stroke="green" stroke-width="0.414324" points="768.095,-92.6351 777.856,-88.5169 767.657,-85.6488 768.095,-92.6351"/>
</g>
<!-- &#45;23&#45;&gt;410 -->
<g id="edge41" class="edge"><title>&#45;23&#45;&gt;410</title>
<path fill="none" stroke="green" stroke-width="0.15622" d="M508.917,-160.778C481.283,-147.466 421.256,-118.551 385.688,-101.418"/>
<polygon fill="green" stroke="green" stroke-width="0.15622" points="386.88,-98.1076 376.351,-96.921 383.842,-104.414 386.88,-98.1076"/>
</g>
<!-- &#45;24 -->
<g id="node24" class="node"><title>&#45;24</title>
<polygon fill="lightgray" stroke="black" points="937.148,-247.622 908.148,-247.622 908.148,-229.622 937.148,-229.622 937.148,-247.622"/>
<text text-anchor="middle" x="922.648" y="-236.422" font-family="Times,serif" font-size="9.00">&#45;24</text>
</g>
<!-- 1&#45;&gt;1 -->
<g id="edge26" class="edge"><title>1&#45;&gt;1</title>
<path fill="none" stroke="green" stroke-width="0.371937" d="M491.415,-97.6398C501.937,-103.566 513.497,-99.9898 513.497,-86.9117 513.497,-77.9205 508.033,-73.4205 501.199,-73.4117"/>
<polygon fill="green" stroke="green" stroke-width="0.371937" points="500.082,-70.0903 491.415,-76.1835 501.99,-76.8252 500.082,-70.0903"/>
</g>
<!-- 3&#45;&gt;3 -->
<g id="edge13" class="edge"><title>3&#45;&gt;3</title>
<path fill="none" stroke="red" stroke-width="0.178909" d="M953.415,-97.6398C963.937,-103.566 975.497,-99.9898 975.497,-86.9117 975.497,-77.9205 970.033,-73.4205 963.199,-73.4117"/>
<polygon fill="red" stroke="red" stroke-width="0.178909" points="962.082,-70.0903 953.415,-76.1835 963.99,-76.8252 962.082,-70.0903"/>
</g>
<!-- 3009&#45;&gt;3009 -->
<g id="edge48" class="edge"><title>3009&#45;&gt;3009</title>
<path fill="none" stroke="red" stroke-width="0.304411" d="M342.204,-181.175C353.35,-183.068 363.397,-178.967 363.397,-168.874 363.397,-162.092 358.862,-158.016 352.505,-156.645"/>
<polygon fill="red" stroke="red" stroke-width="0.304411" points="352.228,-153.143 342.204,-156.572 352.179,-160.143 352.228,-153.143"/>
</g>
<!-- 3009&#45;&gt;410 -->
<g id="edge30" class="edge"><title>3009&#45;&gt;410</title>
<path fill="none" stroke="green" stroke-width="0.369768" d="M330.759,-146.024C335.104,-136.632 340.233,-125.548 344.84,-115.591"/>
<polygon fill="green" stroke="green" stroke-width="0.369768" points="348.032,-117.028 349.055,-106.483 341.679,-114.088 348.032,-117.028"/>
</g>
<!-- 410&#45;&gt;2 -->
<g id="edge7" class="edge"><title>410&#45;&gt;2</title>
<path fill="none" stroke="red" stroke-width="0.195271" d="M340.843,-73.3859C324.744,-61.3866 300.448,-43.278 283.425,-30.5895"/>
<polygon fill="red" stroke="red" stroke-width="0.195271" points="285.377,-27.6793 275.267,-24.5094 281.193,-33.2918 285.377,-27.6793"/>
</g>
<!-- 410&#45;&gt;410 -->
<g id="edge29" class="edge"><title>410&#45;&gt;410</title>
<path fill="none" stroke="red" stroke-width="0.32461" d="M374.985,-99.3438C386.133,-102.587 396.861,-98.4429 396.861,-86.9117 396.861,-78.984 391.79,-74.5478 384.999,-73.6033"/>
<polygon fill="red" stroke="red" stroke-width="0.32461" points="384.642,-70.1211 374.985,-74.4796 385.252,-77.0944 384.642,-70.1211"/>
</g>
</g>
</svg>
