<?xml version="1.0" encoding="UTF-8" standalone="no"?>
<!DOCTYPE svg PUBLIC "-//W3C//DTD SVG 1.1//EN"
 "http://www.w3.org/Graphics/SVG/1.1/DTD/svg11.dtd">
<!-- Generated by graphviz version 2.38.0 (20140413.2041)
 -->
<!-- Title: %3 Pages: 1 -->
<svg width="1119pt" height="256pt"
 viewBox="0.00 0.00 1119.04 255.62" xmlns="http://www.w3.org/2000/svg" xmlns:xlink="http://www.w3.org/1999/xlink">
<g id="graph0" class="graph" transform="scale(1 1) rotate(0) translate(4 251.622)">
<title>%3</title>
<polygon fill="white" stroke="none" points="-4,4 -4,-251.622 1115.04,-251.622 1115.04,4 -4,4"/>
<!-- &#45;1 -->
<g id="node1" class="node"><title>&#45;1</title>
<polygon fill="lightgray" stroke="black" points="184.538,-177.874 160.538,-177.874 160.538,-159.874 184.538,-159.874 184.538,-177.874"/>
<text text-anchor="middle" x="172.538" y="-166.674" font-family="Times,serif" font-size="9.00">&#45;1</text>
</g>
<!-- 410 -->
<g id="node30" class="node"><title>410</title>
<ellipse fill="white" stroke="black" cx="291.538" cy="-86.9117" rx="21.4286" ry="21.4286"/>
<text text-anchor="middle" x="291.538" y="-84.7117" font-family="Times,serif" font-size="9.00">410</text>
</g>
<!-- &#45;1&#45;&gt;410 -->
<g id="edge42" class="edge"><title>&#45;1&#45;&gt;410</title>
<path fill="none" stroke="red" stroke-width="0.104116" d="M178.582,-159.786C182.499,-154.885 187.906,-148.714 193.538,-144.125 215.064,-126.583 242.754,-111.25 263.207,-101.049"/>
<polygon fill="red" stroke="red" stroke-width="0.104116" points="264.873,-104.131 272.326,-96.6002 261.804,-97.8394 264.873,-104.131"/>
</g>
<!-- &#45;2 -->
<g id="node2" class="node"><title>&#45;2</title>
<polygon fill="lightgray" stroke="black" points="539.538,-177.874 515.538,-177.874 515.538,-159.874 539.538,-159.874 539.538,-177.874"/>
<text text-anchor="middle" x="527.538" y="-166.674" font-family="Times,serif" font-size="9.00">&#45;2</text>
</g>
<!-- 1 -->
<g id="node26" class="node"><title>1</title>
<ellipse fill="lightblue" stroke="black" cx="482.538" cy="-86.9117" rx="14.7" ry="14.7"/>
<text text-anchor="middle" x="482.538" y="-84.7117" font-family="Times,serif" font-size="9.00">1</text>
</g>
<!-- &#45;2&#45;&gt;1 -->
<g id="edge10" class="edge"><title>&#45;2&#45;&gt;1</title>
<path fill="none" stroke="red" stroke-width="0.116625" d="M522.891,-159.617C516.246,-147.809 503.802,-125.697 494.482,-109.137"/>
<polygon fill="red" stroke="red" stroke-width="0.116625" points="497.378,-107.146 489.423,-100.147 491.278,-110.579 497.378,-107.146"/>
</g>
<!-- &#45;3 -->
<g id="node3" class="node"><title>&#45;3</title>
<polygon fill="lightgray" stroke="black" points="808.538,-177.874 784.538,-177.874 784.538,-159.874 808.538,-159.874 808.538,-177.874"/>
<text text-anchor="middle" x="796.538" y="-166.674" font-family="Times,serif" font-size="9.00">&#45;3</text>
</g>
<!-- 0 -->
<g id="node25" class="node"><title>0</title>
<ellipse fill="lightblue" stroke="black" cx="753.538" cy="-86.9117" rx="14.7" ry="14.7"/>
<text text-anchor="middle" x="753.538" y="-84.7117" font-family="Times,serif" font-size="9.00">0</text>
</g>
<!-- &#45;3&#45;&gt;0 -->
<g id="edge45" class="edge"><title>&#45;3&#45;&gt;0</title>
<path fill="none" stroke="red" stroke-width="0.129537" d="M792.098,-159.617C785.784,-147.876 773.991,-125.947 765.103,-109.418"/>
<polygon fill="red" stroke="red" stroke-width="0.129537" points="768.087,-107.577 760.268,-100.428 761.922,-110.893 768.087,-107.577"/>
</g>
<!-- &#45;3&#45;&gt;1 -->
<g id="edge33" class="edge"><title>&#45;3&#45;&gt;1</title>
<path fill="none" stroke="red" stroke-width="0.229868" d="M791.307,-159.555C787.561,-154.303 782.04,-147.832 775.538,-144.125 686.689,-93.4717 560.589,-87.5148 507.56,-87.4394"/>
<polygon fill="red" stroke="red" stroke-width="0.229868" points="507.372,-83.9403 497.393,-87.4986 507.413,-90.9402 507.372,-83.9403"/>
</g>
<!-- 2 -->
<g id="node27" class="node"><title>2</title>
<ellipse fill="lightblue" stroke="black" cx="358.538" cy="-14.8492" rx="14.7" ry="14.7"/>
<text text-anchor="middle" x="358.538" y="-12.6492" font-family="Times,serif" font-size="9.00">2</text>
</g>
<!-- &#45;3&#45;&gt;2 -->
<g id="edge18" class="edge"><title>&#45;3&#45;&gt;2</title>
<path fill="none" stroke="red" stroke-width="0.403878" d="M797.869,-159.768C800.554,-140.313 804.27,-90.7365 777.538,-65.6985 748.662,-38.6528 470.144,-21.7547 383.878,-17.1374"/>
<polygon fill="red" stroke="red" stroke-width="0.403878" points="383.849,-13.6312 373.679,-16.6012 383.482,-20.6215 383.849,-13.6312"/>
</g>
<!-- &#45;4 -->
<g id="node4" class="node"><title>&#45;4</title>
<polygon fill="lightgray" stroke="black" points="890.538,-247.622 866.538,-247.622 866.538,-229.622 890.538,-229.622 890.538,-247.622"/>
<text text-anchor="middle" x="878.538" y="-236.422" font-family="Times,serif" font-size="9.00">&#45;4</text>
</g>
<!-- &#45;4&#45;&gt;0 -->
<g id="edge36" class="edge"><title>&#45;4&#45;&gt;0</title>
<path fill="none" stroke="red" stroke-width="1.17158" d="M879.077,-229.445C879.8,-211.959 879.172,-170.395 859.538,-144.125 839.242,-116.97 801.91,-101.623 777.406,-94.0447"/>
<polygon fill="red" stroke="red" stroke-width="1.17158" points="778.356,-90.6759 767.777,-91.261 776.412,-97.4005 778.356,-90.6759"/>
</g>
<!-- 3 -->
<g id="node28" class="node"><title>3</title>
<ellipse fill="lightblue" stroke="black" cx="943.538" cy="-86.9117" rx="14.7" ry="14.7"/>
<text text-anchor="middle" x="943.538" y="-84.7117" font-family="Times,serif" font-size="9.00">3</text>
</g>
<!-- &#45;4&#45;&gt;3 -->
<g id="edge15" class="edge"><title>&#45;4&#45;&gt;3</title>
<path fill="none" stroke="red" stroke-width="0.383251" d="M890.657,-233.145C918.456,-222.82 984.656,-197.894 987.538,-193.622 999.842,-175.386 994.709,-164.922 987.538,-144.125 982.322,-129 971.178,-114.835 961.411,-104.507"/>
<polygon fill="red" stroke="red" stroke-width="0.383251" points="963.87,-102.017 954.331,-97.4057 958.912,-106.959 963.87,-102.017"/>
</g>
<!-- 3009 -->
<g id="node29" class="node"><title>3009</title>
<ellipse fill="white" stroke="black" cx="227.538" cy="-168.874" rx="25" ry="25"/>
<text text-anchor="middle" x="227.538" y="-166.674" font-family="Times,serif" font-size="9.00">3009</text>
</g>
<!-- &#45;4&#45;&gt;3009 -->
<g id="edge22" class="edge"><title>&#45;4&#45;&gt;3009</title>
<path fill="none" stroke="green" stroke-width="0.132773" d="M866.318,-237.327C791.584,-235.429 395.54,-224.06 278.538,-193.622 271.679,-191.838 264.611,-189.157 258.003,-186.231"/>
<polygon fill="green" stroke="green" stroke-width="0.132773" points="259.266,-182.957 248.73,-181.846 256.273,-189.285 259.266,-182.957"/>
</g>
<!-- &#45;5 -->
<g id="node5" class="node"><title>&#45;5</title>
<polygon fill="lightgray" stroke="black" points="978.538,-177.874 954.538,-177.874 954.538,-159.874 978.538,-159.874 978.538,-177.874"/>
<text text-anchor="middle" x="966.538" y="-166.674" font-family="Times,serif" font-size="9.00">&#45;5</text>
</g>
<!-- &#45;5&#45;&gt;0 -->
<g id="edge25" class="edge"><title>&#45;5&#45;&gt;0</title>
<path fill="none" stroke="red" stroke-width="1.69544" d="M961.186,-159.756C957.388,-154.589 951.856,-148.137 945.538,-144.125 892.166,-110.232 817.619,-96.1171 778.995,-90.79"/>
<polygon fill="red" stroke="red" stroke-width="1.69544" points="779.028,-87.2653 768.663,-89.4587 778.133,-94.2079 779.028,-87.2653"/>
</g>
<!-- &#45;5&#45;&gt;3 -->
<g id="edge38" class="edge"><title>&#45;5&#45;&gt;3</title>
<path fill="none" stroke="green" stroke-width="0.624914" d="M964.163,-159.617C960.905,-148.292 954.921,-127.487 950.234,-111.194"/>
<polygon fill="green" stroke="green" stroke-width="0.624914" points="953.512,-109.926 947.384,-101.283 946.784,-111.861 953.512,-109.926"/>
</g>
<!-- &#45;6 -->
<g id="node6" class="node"><title>&#45;6</title>
<polygon fill="lightgray" stroke="black" points="629.538,-177.874 605.538,-177.874 605.538,-159.874 629.538,-159.874 629.538,-177.874"/>
<text text-anchor="middle" x="617.538" y="-166.674" font-family="Times,serif" font-size="9.00">&#45;6</text>
</g>
<!-- &#45;6&#45;&gt;0 -->
<g id="edge50" class="edge"><title>&#45;6&#45;&gt;0</title>
<path fill="none" stroke="green" stroke-width="0.198604" d="M623.837,-159.678C627.928,-154.736 633.591,-148.56 639.538,-144.125 668.171,-122.768 706.174,-105.944 730.249,-96.4598"/>
<polygon fill="green" stroke="green" stroke-width="0.198604" points="731.565,-99.7038 739.646,-92.8526 729.056,-93.1687 731.565,-99.7038"/>
</g>
<!-- &#45;6&#45;&gt;1 -->
<g id="edge26" class="edge"><title>&#45;6&#45;&gt;1</title>
<path fill="none" stroke="red" stroke-width="0.648355" d="M611.593,-159.66C607.713,-154.712 602.311,-148.536 596.538,-144.125 568.153,-122.438 530.084,-105.701 505.927,-96.326"/>
<polygon fill="red" stroke="red" stroke-width="0.648355" points="507.086,-93.0226 496.495,-92.7656 504.614,-99.5716 507.086,-93.0226"/>
</g>
<!-- &#45;7 -->
<g id="node7" class="node"><title>&#45;7</title>
<polygon fill="lightgray" stroke="black" points="766.538,-177.874 742.538,-177.874 742.538,-159.874 766.538,-159.874 766.538,-177.874"/>
<text text-anchor="middle" x="754.538" y="-166.674" font-family="Times,serif" font-size="9.00">&#45;7</text>
</g>
<!-- &#45;7&#45;&gt;0 -->
<g id="edge35" class="edge"><title>&#45;7&#45;&gt;0</title>
<path fill="none" stroke="green" stroke-width="0.142877" d="M754.434,-159.617C754.296,-148.53 754.043,-128.356 753.842,-112.225"/>
<polygon fill="green" stroke="green" stroke-width="0.142877" points="757.337,-111.82 753.712,-101.864 750.338,-111.907 757.337,-111.82"/>
</g>
<!-- &#45;8 -->
<g id="node8" class="node"><title>&#45;8</title>
<polygon fill="lightgray" stroke="black" points="850.538,-177.874 826.538,-177.874 826.538,-159.874 850.538,-159.874 850.538,-177.874"/>
<text text-anchor="middle" x="838.538" y="-166.674" font-family="Times,serif" font-size="9.00">&#45;8</text>
</g>
<!-- &#45;8&#45;&gt;3 -->
<g id="edge34" class="edge"><title>&#45;8&#45;&gt;3</title>
<path fill="none" stroke="green" stroke-width="0.346855" d="M849.379,-159.617C866.957,-146.231 901.923,-119.603 923.945,-102.832"/>
<polygon fill="green" stroke="green" stroke-width="0.346855" points="926.124,-105.572 931.96,-96.7289 921.883,-100.003 926.124,-105.572"/>
</g>
<!-- &#45;8&#45;&gt;410 -->
<g id="edge51" class="edge"><title>&#45;8&#45;&gt;410</title>
<path fill="none" stroke="red" stroke-width="0.35048" d="M833.734,-159.828C830.033,-154.411 824.396,-147.637 817.538,-144.125 746.176,-107.574 538.229,-116.942 458.538,-108.125 411.129,-102.879 356.239,-96.0996 322.71,-91.8784"/>
<polygon fill="red" stroke="red" stroke-width="0.35048" points="322.971,-88.3837 312.612,-90.603 322.094,-95.3285 322.971,-88.3837"/>
</g>
<!-- &#45;9 -->
<g id="node9" class="node"><title>&#45;9</title>
<polygon fill="lightgray" stroke="black" points="309.538,-247.622 285.538,-247.622 285.538,-229.622 309.538,-229.622 309.538,-247.622"/>
<text text-anchor="middle" x="297.538" y="-236.422" font-family="Times,serif" font-size="9.00">&#45;9</text>
</g>
<!-- &#45;9&#45;&gt;1 -->
<g id="edge21" class="edge"><title>&#45;9&#45;&gt;1</title>
<path fill="none" stroke="red" stroke-width="0.277704" d="M309.61,-236.021C333.154,-232.354 385.842,-221.418 419.538,-193.622 446.384,-171.477 464.573,-134.713 474.253,-110.901"/>
<polygon fill="red" stroke="red" stroke-width="0.277704" points="477.635,-111.859 477.991,-101.27 471.11,-109.326 477.635,-111.859"/>
</g>
<!-- &#45;9&#45;&gt;3009 -->
<g id="edge30" class="edge"><title>&#45;9&#45;&gt;3009</title>
<path fill="none" stroke="red" stroke-width="0.181601" d="M289.233,-229.585C280.151,-220.795 265.164,-206.29 252.236,-193.778"/>
<polygon fill="red" stroke="red" stroke-width="0.181601" points="254.542,-191.139 244.923,-186.699 249.674,-196.169 254.542,-191.139"/>
</g>
<!-- &#45;10 -->
<g id="node10" class="node"><title>&#45;10</title>
<polygon fill="lightgray" stroke="black" points="48.0377,-177.874 19.0377,-177.874 19.0377,-159.874 48.0377,-159.874 48.0377,-177.874"/>
<text text-anchor="middle" x="33.5377" y="-166.674" font-family="Times,serif" font-size="9.00">&#45;10</text>
</g>
<!-- &#45;10&#45;&gt;410 -->
<g id="edge2" class="edge"><title>&#45;10&#45;&gt;410</title>
<path fill="none" stroke="red" stroke-width="1.00834" d="M39.4907,-159.659C43.6888,-154.452 49.7562,-147.991 56.5377,-144.125 122.637,-106.445 213.034,-93.9402 260.121,-89.8515"/>
<polygon fill="red" stroke="red" stroke-width="1.00834" points="260.613,-93.3235 270.304,-89.0413 260.058,-86.3455 260.613,-93.3235"/>
</g>
<!-- &#45;11 -->
<g id="node11" class="node"><title>&#45;11</title>
<polygon fill="lightgray" stroke="black" points="1064.04,-177.874 1035.04,-177.874 1035.04,-159.874 1064.04,-159.874 1064.04,-177.874"/>
<text text-anchor="middle" x="1049.54" y="-166.674" font-family="Times,serif" font-size="9.00">&#45;11</text>
</g>
<!-- &#45;11&#45;&gt;3 -->
<g id="edge31" class="edge"><title>&#45;11&#45;&gt;3</title>
<path fill="none" stroke="green" stroke-width="1.11241" d="M1039.98,-159.822C1034.38,-155.159 1027.13,-149.221 1020.54,-144.125 1001.6,-129.48 979.49,-113.442 963.83,-102.259"/>
<polygon fill="green" stroke="green" stroke-width="1.11241" points="965.606,-99.2269 955.429,-96.2823 961.549,-104.931 965.606,-99.2269"/>
</g>
<!-- &#45;12 -->
<g id="node12" class="node"><title>&#45;12</title>
<polygon fill="lightgray" stroke="black" points="1111.04,-177.874 1082.04,-177.874 1082.04,-159.874 1111.04,-159.874 1111.04,-177.874"/>
<text text-anchor="middle" x="1096.54" y="-166.674" font-family="Times,serif" font-size="9.00">&#45;12</text>
</g>
<!-- &#45;12&#45;&gt;2 -->
<g id="edge29" class="edge"><title>&#45;12&#45;&gt;2</title>
<path fill="none" stroke="red" stroke-width="0.507928" d="M1090.96,-159.835C1076.39,-139.621 1034.92,-86.7876 985.538,-65.6985 874.354,-18.2135 486.409,-15.5788 383.666,-15.7331"/>
<polygon fill="red" stroke="red" stroke-width="0.507928" points="383.589,-12.2332 373.598,-15.759 383.607,-19.2332 383.589,-12.2332"/>
</g>
<!-- &#45;12&#45;&gt;3 -->
<g id="edge44" class="edge"><title>&#45;12&#45;&gt;3</title>
<path fill="none" stroke="red" stroke-width="0.35681" d="M1089.96,-159.588C1085.69,-154.612 1079.77,-148.433 1073.54,-144.125 1039.79,-120.798 994.808,-103.999 967.574,-95.1281"/>
<polygon fill="red" stroke="red" stroke-width="0.35681" points="968.324,-91.6946 957.734,-92.0177 966.214,-98.3691 968.324,-91.6946"/>
</g>
<!-- &#45;13 -->
<g id="node13" class="node"><title>&#45;13</title>
<polygon fill="lightgray" stroke="black" points="171.038,-247.622 142.038,-247.622 142.038,-229.622 171.038,-229.622 171.038,-247.622"/>
<text text-anchor="middle" x="156.538" y="-236.422" font-family="Times,serif" font-size="9.00">&#45;13</text>
</g>
<!-- &#45;13&#45;&gt;2 -->
<g id="edge16" class="edge"><title>&#45;13&#45;&gt;2</title>
<path fill="none" stroke="green" stroke-width="0.526443" d="M141.707,-238.396C111.034,-239.081 40.8777,-235.717 9.53768,-193.622 -3.59963,-175.977 -2.59067,-162.478 9.53768,-144.125 83.3683,-32.3987 266.721,-17.5128 333.609,-15.885"/>
<polygon fill="green" stroke="green" stroke-width="0.526443" points="333.716,-19.3838 343.658,-15.722 333.603,-12.3848 333.716,-19.3838"/>
</g>
<!-- &#45;13&#45;&gt;3009 -->
<g id="edge9" class="edge"><title>&#45;13&#45;&gt;3009</title>
<path fill="none" stroke="red" stroke-width="0.20152" d="M164.961,-229.585C174.173,-220.795 189.374,-206.29 202.486,-193.778"/>
<polygon fill="red" stroke="red" stroke-width="0.20152" points="205.086,-196.135 209.904,-186.699 200.253,-191.071 205.086,-196.135"/>
</g>
<!-- &#45;14 -->
<g id="node14" class="node"><title>&#45;14</title>
<polygon fill="lightgray" stroke="black" points="142.038,-177.874 113.038,-177.874 113.038,-159.874 142.038,-159.874 142.038,-177.874"/>
<text text-anchor="middle" x="127.538" y="-166.674" font-family="Times,serif" font-size="9.00">&#45;14</text>
</g>
<!-- &#45;14&#45;&gt;1 -->
<g id="edge52" class="edge"><title>&#45;14&#45;&gt;1</title>
<path fill="none" stroke="green" stroke-width="0.33948" d="M133.739,-159.511C138.115,-154.24 144.445,-147.765 151.538,-144.125 165.284,-137.07 383.403,-103.127 457.857,-91.6862"/>
<polygon fill="green" stroke="green" stroke-width="0.33948" points="458.404,-95.1432 467.758,-90.1673 457.343,-88.2242 458.404,-95.1432"/>
</g>
<!-- &#45;14&#45;&gt;2 -->
<g id="edge12" class="edge"><title>&#45;14&#45;&gt;2</title>
<path fill="none" stroke="red" stroke-width="0.27274" d="M135.233,-159.623C139.798,-154.894 145.798,-148.957 151.538,-144.125 197.47,-105.456 210.258,-96.9304 261.538,-65.6985 286.3,-50.6172 316.145,-35.7421 336.132,-26.2226"/>
<polygon fill="red" stroke="red" stroke-width="0.27274" points="337.792,-29.3096 345.346,-21.8811 334.808,-22.9772 337.792,-29.3096"/>
</g>
<!-- &#45;14&#45;&gt;410 -->
<g id="edge49" class="edge"><title>&#45;14&#45;&gt;410</title>
<path fill="none" stroke="red" stroke-width="0.236694" d="M134.423,-159.545C138.891,-154.553 145.07,-148.372 151.538,-144.125 186.203,-121.365 231.542,-105.255 261.091,-96.2761"/>
<polygon fill="red" stroke="red" stroke-width="0.236694" points="262.241,-99.5861 270.841,-93.3983 260.259,-92.8724 262.241,-99.5861"/>
</g>
<!-- &#45;15 -->
<g id="node15" class="node"><title>&#45;15</title>
<polygon fill="lightgray" stroke="black" points="317.038,-177.874 288.038,-177.874 288.038,-159.874 317.038,-159.874 317.038,-177.874"/>
<text text-anchor="middle" x="302.538" y="-166.674" font-family="Times,serif" font-size="9.00">&#45;15</text>
</g>
<!-- &#45;15&#45;&gt;1 -->
<g id="edge14" class="edge"><title>&#45;15&#45;&gt;1</title>
<path fill="none" stroke="green" stroke-width="0.339746" d="M309.017,-159.445C313.254,-154.416 319.17,-148.23 325.538,-144.125 368.168,-116.642 425.98,-100.448 458.228,-92.9635"/>
<polygon fill="green" stroke="green" stroke-width="0.339746" points="459.128,-96.3489 468.126,-90.7553 457.604,-89.5168 459.128,-96.3489"/>
</g>
<!-- &#45;15&#45;&gt;410 -->
<g id="edge37" class="edge"><title>&#45;15&#45;&gt;410</title>
<path fill="none" stroke="red" stroke-width="0.439997" d="M301.402,-159.617C300.068,-149.921 297.778,-133.275 295.74,-118.461"/>
<polygon fill="red" stroke="red" stroke-width="0.439997" points="299.148,-117.553 294.318,-108.123 292.214,-118.507 299.148,-117.553"/>
</g>
<!-- &#45;16 -->
<g id="node16" class="node"><title>&#45;16</title>
<polygon fill="lightgray" stroke="black" points="677.038,-177.874 648.038,-177.874 648.038,-159.874 677.038,-159.874 677.038,-177.874"/>
<text text-anchor="middle" x="662.538" y="-166.674" font-family="Times,serif" font-size="9.00">&#45;16</text>
</g>
<!-- &#45;16&#45;&gt;0 -->
<g id="edge17" class="edge"><title>&#45;16&#45;&gt;0</title>
<path fill="none" stroke="green" stroke-width="0.476427" d="M670.379,-159.79C674.992,-155.116 680.992,-149.179 686.538,-144.125 702.187,-129.861 720.668,-114.457 734.252,-103.387"/>
<polygon fill="green" stroke="green" stroke-width="0.476427" points="736.825,-105.808 742.393,-96.7942 732.419,-100.368 736.825,-105.808"/>
</g>
<!-- &#45;16&#45;&gt;1 -->
<g id="edge32" class="edge"><title>&#45;16&#45;&gt;1</title>
<path fill="none" stroke="red" stroke-width="0.149962" d="M655.706,-159.462C651.257,-154.44 645.081,-148.255 638.538,-144.125 596.105,-117.344 539.139,-100.973 507.099,-93.2508"/>
<polygon fill="red" stroke="red" stroke-width="0.149962" points="507.778,-89.8156 497.245,-90.961 506.194,-96.6339 507.778,-89.8156"/>
</g>
<!-- &#45;16&#45;&gt;3 -->
<g id="edge4" class="edge"><title>&#45;16&#45;&gt;3</title>
<path fill="none" stroke="green" stroke-width="0.355039" d="M668.797,-159.62C673.197,-154.396 679.533,-147.931 686.538,-144.125 763.978,-102.046 870.697,-91.4642 918.554,-88.8042"/>
<polygon fill="green" stroke="green" stroke-width="0.355039" points="918.806,-92.2962 928.624,-88.3156 918.466,-85.3044 918.806,-92.2962"/>
</g>
<!-- &#45;16&#45;&gt;410 -->
<g id="edge19" class="edge"><title>&#45;16&#45;&gt;410</title>
<path fill="none" stroke="green" stroke-width="0.120581" d="M656.346,-159.493C651.973,-154.215 645.644,-147.738 638.538,-144.125 610.489,-129.864 402.419,-102.097 322.592,-91.8411"/>
<polygon fill="green" stroke="green" stroke-width="0.120581" points="323.007,-88.3657 312.644,-90.5684 322.119,-95.3091 323.007,-88.3657"/>
</g>
<!-- &#45;17 -->
<g id="node17" class="node"><title>&#45;17</title>
<polygon fill="lightgray" stroke="black" points="724.038,-177.874 695.038,-177.874 695.038,-159.874 724.038,-159.874 724.038,-177.874"/>
<text text-anchor="middle" x="709.538" y="-166.674" font-family="Times,serif" font-size="9.00">&#45;17</text>
</g>
<!-- &#45;17&#45;&gt;0 -->
<g id="edge5" class="edge"><title>&#45;17&#45;&gt;0</title>
<path fill="none" stroke="green" stroke-width="0.30349" d="M714.081,-159.617C720.578,-147.809 732.746,-125.697 741.858,-109.137"/>
<polygon fill="green" stroke="green" stroke-width="0.30349" points="745.05,-110.596 746.805,-100.147 738.917,-107.221 745.05,-110.596"/>
</g>
<!-- &#45;17&#45;&gt;1 -->
<g id="edge53" class="edge"><title>&#45;17&#45;&gt;1</title>
<path fill="none" stroke="red" stroke-width="0.279315" d="M703.541,-159.735C699.324,-154.559 693.252,-148.106 686.538,-144.125 628.065,-109.459 547.544,-95.5384 507.395,-90.4842"/>
<polygon fill="red" stroke="red" stroke-width="0.279315" points="507.759,-87.003 497.418,-89.3085 506.94,-93.9549 507.759,-87.003"/>
</g>
<!-- &#45;17&#45;&gt;3 -->
<g id="edge13" class="edge"><title>&#45;17&#45;&gt;3</title>
<path fill="none" stroke="green" stroke-width="0.700286" d="M715.856,-159.726C720.281,-154.546 726.623,-148.092 733.538,-144.125 794.413,-109.202 877.652,-95.354 918.646,-90.3905"/>
<polygon fill="green" stroke="green" stroke-width="0.700286" points="919.264,-93.843 928.807,-89.2399 918.477,-86.8874 919.264,-93.843"/>
</g>
<!-- &#45;17&#45;&gt;410 -->
<g id="edge43" class="edge"><title>&#45;17&#45;&gt;410</title>
<path fill="none" stroke="red" stroke-width="0.223545" d="M703.699,-159.448C699.549,-154.151 693.492,-147.67 686.538,-144.125 670.285,-135.841 413.245,-103.118 322.757,-91.7934"/>
<polygon fill="red" stroke="red" stroke-width="0.223545" points="322.932,-88.2881 312.575,-90.5214 322.064,-95.2341 322.932,-88.2881"/>
</g>
<!-- &#45;18 -->
<g id="node18" class="node"><title>&#45;18</title>
<polygon fill="lightgray" stroke="black" points="364.038,-177.874 335.038,-177.874 335.038,-159.874 364.038,-159.874 364.038,-177.874"/>
<text text-anchor="middle" x="349.538" y="-166.674" font-family="Times,serif" font-size="9.00">&#45;18</text>
</g>
<!-- &#45;18&#45;&gt;1 -->
<g id="edge7" class="edge"><title>&#45;18&#45;&gt;1</title>
<path fill="none" stroke="green" stroke-width="0.206112" d="M356.212,-159.727C360.522,-154.804 366.447,-148.631 372.538,-144.125 400.172,-123.682 436.323,-106.802 459.493,-97.037"/>
<polygon fill="green" stroke="green" stroke-width="0.206112" points="460.943,-100.225 468.857,-93.181 458.277,-93.7525 460.943,-100.225"/>
</g>
<!-- &#45;18&#45;&gt;2 -->
<g id="edge23" class="edge"><title>&#45;18&#45;&gt;2</title>
<path fill="none" stroke="green" stroke-width="0.559505" d="M350.022,-159.7C351.339,-137.44 355.031,-75.076 357.095,-40.2136"/>
<polygon fill="green" stroke="green" stroke-width="0.559505" points="360.606,-40.1362 357.703,-29.9468 353.618,-39.7224 360.606,-40.1362"/>
</g>
<!-- &#45;18&#45;&gt;410 -->
<g id="edge47" class="edge"><title>&#45;18&#45;&gt;410</title>
<path fill="none" stroke="red" stroke-width="0.39502" d="M343.549,-159.617C335.637,-148.709 321.346,-129.007 309.744,-113.012"/>
<polygon fill="red" stroke="red" stroke-width="0.39502" points="312.337,-110.626 303.632,-104.586 306.671,-114.736 312.337,-110.626"/>
</g>
<!-- &#45;19 -->
<g id="node19" class="node"><title>&#45;19</title>
<polygon fill="lightgray" stroke="black" points="936.038,-177.874 907.038,-177.874 907.038,-159.874 936.038,-159.874 936.038,-177.874"/>
<text text-anchor="middle" x="921.538" y="-166.674" font-family="Times,serif" font-size="9.00">&#45;19</text>
</g>
<!-- &#45;19&#45;&gt;0 -->
<g id="edge39" class="edge"><title>&#45;19&#45;&gt;0</title>
<path fill="none" stroke="red" stroke-width="0.220007" d="M912.918,-159.639C907.406,-154.683 899.926,-148.506 892.538,-144.125 854.617,-121.639 806.033,-104.302 777.493,-95.1425"/>
<polygon fill="red" stroke="red" stroke-width="0.220007" points="778.189,-91.6927 767.599,-92.0388 776.093,-98.3717 778.189,-91.6927"/>
</g>
<!-- &#45;19&#45;&gt;3 -->
<g id="edge3" class="edge"><title>&#45;19&#45;&gt;3</title>
<path fill="none" stroke="red" stroke-width="0.147055" d="M923.809,-159.617C926.907,-148.357 932.583,-127.728 937.054,-111.477"/>
<polygon fill="red" stroke="red" stroke-width="0.147055" points="940.501,-112.143 939.779,-101.572 933.752,-110.286 940.501,-112.143"/>
</g>
<!-- &#45;20 -->
<g id="node20" class="node"><title>&#45;20</title>
<polygon fill="lightgray" stroke="black" points="95.0377,-177.874 66.0377,-177.874 66.0377,-159.874 95.0377,-159.874 95.0377,-177.874"/>
<text text-anchor="middle" x="80.5377" y="-166.674" font-family="Times,serif" font-size="9.00">&#45;20</text>
</g>
<!-- &#45;20&#45;&gt;410 -->
<g id="edge48" class="edge"><title>&#45;20&#45;&gt;410</title>
<path fill="none" stroke="green" stroke-width="0.233668" d="M86.5635,-159.783C90.7923,-154.627 96.8665,-148.178 103.538,-144.125 153.568,-113.727 221.143,-98.8097 260.165,-92.287"/>
<polygon fill="green" stroke="green" stroke-width="0.233668" points="261.05,-95.6905 270.376,-90.664 259.951,-88.7773 261.05,-95.6905"/>
</g>
<!-- &#45;21 -->
<g id="node21" class="node"><title>&#45;21</title>
<polygon fill="lightgray" stroke="black" points="497.038,-177.874 468.038,-177.874 468.038,-159.874 497.038,-159.874 497.038,-177.874"/>
<text text-anchor="middle" x="482.538" y="-166.674" font-family="Times,serif" font-size="9.00">&#45;21</text>
</g>
<!-- &#45;21&#45;&gt;1 -->
<g id="edge8" class="edge"><title>&#45;21&#45;&gt;1</title>
<path fill="none" stroke="green" stroke-width="0.66648" d="M482.538,-159.617C482.538,-148.53 482.538,-128.356 482.538,-112.225"/>
<polygon fill="green" stroke="green" stroke-width="0.66648" points="486.038,-111.864 482.538,-101.864 479.038,-111.864 486.038,-111.864"/>
</g>
<!-- &#45;22 -->
<g id="node22" class="node"><title>&#45;22</title>
<polygon fill="lightgray" stroke="black" points="411.038,-177.874 382.038,-177.874 382.038,-159.874 411.038,-159.874 411.038,-177.874"/>
<text text-anchor="middle" x="396.538" y="-166.674" font-family="Times,serif" font-size="9.00">&#45;22</text>
</g>
<!-- &#45;22&#45;&gt;1 -->
<g id="edge20" class="edge"><title>&#45;22&#45;&gt;1</title>
<path fill="none" stroke="red" stroke-width="0.339424" d="M405.417,-159.617C419.262,-146.745 446.276,-121.628 464.368,-104.806"/>
<polygon fill="red" stroke="red" stroke-width="0.339424" points="467.033,-107.107 471.974,-97.7341 462.267,-101.98 467.033,-107.107"/>
</g>
<!-- &#45;22&#45;&gt;2 -->
<g id="edge40" class="edge"><title>&#45;22&#45;&gt;2</title>
<path fill="none" stroke="red" stroke-width="0.281947" d="M394.495,-159.7C388.878,-137.232 373.05,-73.9062 364.385,-39.243"/>
<polygon fill="red" stroke="red" stroke-width="0.281947" points="367.766,-38.3353 361.945,-29.4826 360.975,-40.0329 367.766,-38.3353"/>
</g>
<!-- &#45;23 -->
<g id="node23" class="node"><title>&#45;23</title>
<polygon fill="lightgray" stroke="black" points="587.038,-177.874 558.038,-177.874 558.038,-159.874 587.038,-159.874 587.038,-177.874"/>
<text text-anchor="middle" x="572.538" y="-166.674" font-family="Times,serif" font-size="9.00">&#45;23</text>
</g>
<!-- &#45;23&#45;&gt;0 -->
<g id="edge1" class="edge"><title>&#45;23&#45;&gt;0</title>
<path fill="none" stroke="green" stroke-width="0.436361" d="M579.367,-159.458C583.814,-154.433 589.99,-148.248 596.538,-144.125 639.458,-117.097 697.163,-100.736 729.315,-93.0995"/>
<polygon fill="green" stroke="green" stroke-width="0.436361" points="730.214,-96.4844 739.181,-90.8415 728.652,-89.6608 730.214,-96.4844"/>
</g>
<!-- &#45;23&#45;&gt;410 -->
<g id="edge41" class="edge"><title>&#45;23&#45;&gt;410</title>
<path fill="none" stroke="red" stroke-width="0.135194" d="M566.279,-159.62C561.878,-154.396 555.542,-147.931 548.538,-144.125 474.51,-103.901 373.728,-92.458 323.184,-89.204"/>
<polygon fill="red" stroke="red" stroke-width="0.135194" points="323.084,-85.6926 312.9,-88.6119 322.682,-92.681 323.084,-85.6926"/>
</g>
<!-- &#45;24 -->
<g id="node24" class="node"><title>&#45;24</title>
<polygon fill="lightgray" stroke="black" points="938.038,-247.622 909.038,-247.622 909.038,-229.622 938.038,-229.622 938.038,-247.622"/>
<text text-anchor="middle" x="923.538" y="-236.422" font-family="Times,serif" font-size="9.00">&#45;24</text>
</g>
<!-- 1&#45;&gt;1 -->
<g id="edge24" class="edge"><title>1&#45;&gt;1</title>
<path fill="none" stroke="red" stroke-width="0.674157" d="M493.304,-97.6398C503.826,-103.566 515.387,-99.9898 515.387,-86.9117 515.387,-77.9205 509.923,-73.4205 503.089,-73.4117"/>
<polygon fill="red" stroke="red" stroke-width="0.674157" points="501.972,-70.0903 493.304,-76.1835 503.88,-76.8252 501.972,-70.0903"/>
</g>
<!-- 3&#45;&gt;3 -->
<g id="edge11" class="edge"><title>3&#45;&gt;3</title>
<path fill="none" stroke="red" stroke-width="0.178909" d="M954.304,-97.6398C964.826,-103.566 976.387,-99.9898 976.387,-86.9117 976.387,-77.9205 970.923,-73.4205 964.089,-73.4117"/>
<polygon fill="red" stroke="red" stroke-width="0.178909" points="962.972,-70.0903 954.304,-76.1835 964.88,-76.8252 962.972,-70.0903"/>
</g>
<!-- 3009&#45;&gt;3009 -->
<g id="edge46" class="edge"><title>3009&#45;&gt;3009</title>
<path fill="none" stroke="red" stroke-width="0.435318" d="M249.093,-181.175C260.239,-183.068 270.286,-178.967 270.286,-168.874 270.286,-162.092 265.751,-158.016 259.394,-156.645"/>
<polygon fill="red" stroke="red" stroke-width="0.435318" points="259.118,-153.143 249.093,-156.572 259.068,-160.143 259.118,-153.143"/>
</g>
<!-- 3009&#45;&gt;410 -->
<g id="edge28" class="edge"><title>3009&#45;&gt;410</title>
<path fill="none" stroke="green" stroke-width="0.508778" d="M242.705,-148.924C251.509,-137.923 262.69,-123.954 272.131,-112.158"/>
<polygon fill="green" stroke="green" stroke-width="0.508778" points="275.123,-114.021 278.639,-104.027 269.658,-109.647 275.123,-114.021"/>
</g>
<!-- 410&#45;&gt;2 -->
<g id="edge6" class="edge"><title>410&#45;&gt;2</title>
<path fill="none" stroke="red" stroke-width="0.222185" d="M305.747,-71.0532C316.233,-60.0873 330.546,-45.1207 341.623,-33.5374"/>
<polygon fill="red" stroke="red" stroke-width="0.222185" points="344.306,-35.7958 348.688,-26.1496 339.247,-30.9579 344.306,-35.7958"/>
</g>
<!-- 410&#45;&gt;410 -->
<g id="edge27" class="edge"><title>410&#45;&gt;410</title>
<path fill="none" stroke="red" stroke-width="0.49617" d="M308.874,-99.3438C320.022,-102.587 330.751,-98.4429 330.751,-86.9117 330.751,-78.984 325.68,-74.5478 318.888,-73.6033"/>
<polygon fill="red" stroke="red" stroke-width="0.49617" points="318.531,-70.1211 308.874,-74.4796 319.141,-77.0944 318.531,-70.1211"/>
</g>
</g>
</svg>
