<?xml version="1.0" encoding="UTF-8" standalone="no"?>
<!DOCTYPE svg PUBLIC "-//W3C//DTD SVG 1.1//EN"
 "http://www.w3.org/Graphics/SVG/1.1/DTD/svg11.dtd">
<!-- Generated by graphviz version 2.38.0 (20140413.2041)
 -->
<!-- Title: %3 Pages: 1 -->
<svg width="1045pt" height="256pt"
 viewBox="0.00 0.00 1045.00 255.62" xmlns="http://www.w3.org/2000/svg" xmlns:xlink="http://www.w3.org/1999/xlink">
<g id="graph0" class="graph" transform="scale(1 1) rotate(0) translate(4 251.622)">
<title>%3</title>
<polygon fill="white" stroke="none" points="-4,4 -4,-251.622 1041,-251.622 1041,4 -4,4"/>
<!-- &#45;1 -->
<g id="node1" class="node"><title>&#45;1</title>
<polygon fill="lightgray" stroke="black" points="673.5,-177.874 649.5,-177.874 649.5,-159.874 673.5,-159.874 673.5,-177.874"/>
<text text-anchor="middle" x="661.5" y="-166.674" font-family="Times,serif" font-size="9.00">&#45;1</text>
</g>
<!-- 410 -->
<g id="node30" class="node"><title>410</title>
<ellipse fill="white" stroke="black" cx="593.5" cy="-86.9117" rx="21.4286" ry="21.4286"/>
<text text-anchor="middle" x="593.5" y="-84.7117" font-family="Times,serif" font-size="9.00">410</text>
</g>
<!-- &#45;1&#45;&gt;410 -->
<g id="edge34" class="edge"><title>&#45;1&#45;&gt;410</title>
<path fill="none" stroke="green" stroke-width="0.551259" d="M654.479,-159.617C644.943,-148.404 627.505,-127.899 613.712,-111.679"/>
<polygon fill="green" stroke="green" stroke-width="0.551259" points="616.037,-109.011 606.893,-103.66 610.705,-113.546 616.037,-109.011"/>
</g>
<!-- &#45;2 -->
<g id="node2" class="node"><title>&#45;2</title>
<polygon fill="lightgray" stroke="black" points="763.5,-177.874 739.5,-177.874 739.5,-159.874 763.5,-159.874 763.5,-177.874"/>
<text text-anchor="middle" x="751.5" y="-166.674" font-family="Times,serif" font-size="9.00">&#45;2</text>
</g>
<!-- 1 -->
<g id="node26" class="node"><title>1</title>
<ellipse fill="lightblue" stroke="black" cx="841.5" cy="-86.9117" rx="14.7" ry="14.7"/>
<text text-anchor="middle" x="841.5" y="-84.7117" font-family="Times,serif" font-size="9.00">1</text>
</g>
<!-- &#45;2&#45;&gt;1 -->
<g id="edge10" class="edge"><title>&#45;2&#45;&gt;1</title>
<path fill="none" stroke="red" stroke-width="0.539891" d="M758.189,-159.659C762.169,-154.942 767.419,-149.005 772.5,-144.125 788.189,-129.057 807.489,-113.562 821.684,-102.666"/>
<polygon fill="red" stroke="red" stroke-width="0.539891" points="823.933,-105.353 829.785,-96.521 819.703,-99.7762 823.933,-105.353"/>
</g>
<!-- &#45;2&#45;&gt;410 -->
<g id="edge40" class="edge"><title>&#45;2&#45;&gt;410</title>
<path fill="none" stroke="red" stroke-width="0.175956" d="M745.302,-159.538C741.249,-154.543 735.59,-148.361 729.5,-144.125 696.438,-121.126 652.524,-105.137 623.66,-96.2446"/>
<polygon fill="red" stroke="red" stroke-width="0.175956" points="624.338,-92.7945 613.755,-93.2899 622.337,-99.5025 624.338,-92.7945"/>
</g>
<!-- &#45;3 -->
<g id="node3" class="node"><title>&#45;3</title>
<polygon fill="lightgray" stroke="black" points="942.5,-177.874 918.5,-177.874 918.5,-159.874 942.5,-159.874 942.5,-177.874"/>
<text text-anchor="middle" x="930.5" y="-166.674" font-family="Times,serif" font-size="9.00">&#45;3</text>
</g>
<!-- 0 -->
<g id="node25" class="node"><title>0</title>
<ellipse fill="lightblue" stroke="black" cx="322.5" cy="-86.9117" rx="14.7" ry="14.7"/>
<text text-anchor="middle" x="322.5" y="-84.7117" font-family="Times,serif" font-size="9.00">0</text>
</g>
<!-- &#45;3&#45;&gt;0 -->
<g id="edge43" class="edge"><title>&#45;3&#45;&gt;0</title>
<path fill="none" stroke="red" stroke-width="0.145836" d="M925.706,-159.809C922.01,-154.383 916.374,-147.607 909.5,-144.125 831.071,-104.391 603.001,-116.704 515.5,-108.125 455.336,-102.226 384.692,-94.6657 347.819,-90.6713"/>
<polygon fill="red" stroke="red" stroke-width="0.145836" points="347.828,-87.1518 337.508,-89.5519 347.072,-94.1109 347.828,-87.1518"/>
</g>
<!-- &#45;3&#45;&gt;1 -->
<g id="edge32" class="edge"><title>&#45;3&#45;&gt;1</title>
<path fill="none" stroke="red" stroke-width="0.199792" d="M923.798,-159.673C919.814,-154.96 914.564,-149.023 909.5,-144.125 894.001,-129.133 874.984,-113.63 861.006,-102.712"/>
<polygon fill="red" stroke="red" stroke-width="0.199792" points="863.083,-99.8943 853.03,-96.5518 858.805,-105.434 863.083,-99.8943"/>
</g>
<!-- 2 -->
<g id="node27" class="node"><title>2</title>
<ellipse fill="lightblue" stroke="black" cx="796.5" cy="-14.8492" rx="14.7" ry="14.7"/>
<text text-anchor="middle" x="796.5" y="-12.6492" font-family="Times,serif" font-size="9.00">2</text>
</g>
<!-- &#45;3&#45;&gt;2 -->
<g id="edge19" class="edge"><title>&#45;3&#45;&gt;2</title>
<path fill="none" stroke="red" stroke-width="0.24535" d="M928.592,-159.762C923.855,-141.13 909.987,-94.6592 883.5,-65.6985 865.873,-46.4254 839.025,-32.6209 819.818,-24.4949"/>
<polygon fill="red" stroke="red" stroke-width="0.24535" points="820.885,-21.1514 810.301,-20.6651 818.271,-27.6453 820.885,-21.1514"/>
</g>
<!-- &#45;4 -->
<g id="node4" class="node"><title>&#45;4</title>
<polygon fill="lightgray" stroke="black" points="334.5,-247.622 310.5,-247.622 310.5,-229.622 334.5,-229.622 334.5,-247.622"/>
<text text-anchor="middle" x="322.5" y="-236.422" font-family="Times,serif" font-size="9.00">&#45;4</text>
</g>
<!-- &#45;4&#45;&gt;0 -->
<g id="edge35" class="edge"><title>&#45;4&#45;&gt;0</title>
<path fill="none" stroke="red" stroke-width="1.43743" d="M322.5,-229.573C322.5,-207.652 322.5,-146.237 322.5,-111.905"/>
<polygon fill="red" stroke="red" stroke-width="1.43743" points="326,-111.795 322.5,-101.795 319,-111.795 326,-111.795"/>
</g>
<!-- 3 -->
<g id="node28" class="node"><title>3</title>
<ellipse fill="lightblue" stroke="black" cx="170.5" cy="-86.9117" rx="14.7" ry="14.7"/>
<text text-anchor="middle" x="170.5" y="-84.7117" font-family="Times,serif" font-size="9.00">3</text>
</g>
<!-- &#45;4&#45;&gt;3 -->
<g id="edge16" class="edge"><title>&#45;4&#45;&gt;3</title>
<path fill="none" stroke="red" stroke-width="0.230832" d="M310.38,-236.861C270.914,-234.106 147.261,-223.211 123.5,-193.622 101.547,-166.285 131.386,-127.078 152.593,-104.899"/>
<polygon fill="red" stroke="red" stroke-width="0.230832" points="155.331,-107.11 159.903,-97.5521 150.368,-102.172 155.331,-107.11"/>
</g>
<!-- 3009 -->
<g id="node29" class="node"><title>3009</title>
<ellipse fill="white" stroke="black" cx="422.5" cy="-168.874" rx="25" ry="25"/>
<text text-anchor="middle" x="422.5" y="-166.674" font-family="Times,serif" font-size="9.00">3009</text>
</g>
<!-- &#45;4&#45;&gt;3009 -->
<g id="edge23" class="edge"><title>&#45;4&#45;&gt;3009</title>
<path fill="none" stroke="red" stroke-width="0.124014" d="M334.717,-229.592C348.006,-220.83 369.845,-206.353 388.5,-193.622 390.336,-192.369 392.224,-191.073 394.124,-189.762"/>
<polygon fill="red" stroke="red" stroke-width="0.124014" points="396.193,-192.587 402.414,-184.011 392.203,-186.835 396.193,-192.587"/>
</g>
<!-- &#45;5 -->
<g id="node5" class="node"><title>&#45;5</title>
<polygon fill="lightgray" stroke="black" points="204.5,-177.874 180.5,-177.874 180.5,-159.874 204.5,-159.874 204.5,-177.874"/>
<text text-anchor="middle" x="192.5" y="-166.674" font-family="Times,serif" font-size="9.00">&#45;5</text>
</g>
<!-- &#45;5&#45;&gt;0 -->
<g id="edge26" class="edge"><title>&#45;5&#45;&gt;0</title>
<path fill="none" stroke="red" stroke-width="1.63335" d="M198.473,-159.697C202.363,-154.762 207.767,-148.587 213.5,-144.125 240.43,-123.162 276.366,-106.413 299.475,-96.8192"/>
<polygon fill="red" stroke="red" stroke-width="1.63335" points="300.862,-100.034 308.82,-93.0395 298.237,-93.5443 300.862,-100.034"/>
</g>
<!-- &#45;5&#45;&gt;3 -->
<g id="edge36" class="edge"><title>&#45;5&#45;&gt;3</title>
<path fill="none" stroke="green" stroke-width="0.416175" d="M190.228,-159.617C187.13,-148.357 181.455,-127.728 176.983,-111.477"/>
<polygon fill="green" stroke="green" stroke-width="0.416175" points="180.286,-110.286 174.258,-101.572 173.537,-112.143 180.286,-110.286"/>
</g>
<!-- &#45;6 -->
<g id="node6" class="node"><title>&#45;6</title>
<polygon fill="lightgray" stroke="black" points="583.5,-177.874 559.5,-177.874 559.5,-159.874 583.5,-159.874 583.5,-177.874"/>
<text text-anchor="middle" x="571.5" y="-166.674" font-family="Times,serif" font-size="9.00">&#45;6</text>
</g>
<!-- &#45;6&#45;&gt;0 -->
<g id="edge1" class="edge"><title>&#45;6&#45;&gt;0</title>
<path fill="none" stroke="green" stroke-width="0.202461" d="M565.869,-159.672C561.88,-154.47 556.083,-148.01 549.5,-144.125 483.422,-105.126 391.196,-93.0723 347.439,-89.4339"/>
<polygon fill="green" stroke="green" stroke-width="0.202461" points="347.638,-85.9391 337.404,-88.6789 347.113,-92.9194 347.638,-85.9391"/>
</g>
<!-- &#45;6&#45;&gt;1 -->
<g id="edge27" class="edge"><title>&#45;6&#45;&gt;1</title>
<path fill="none" stroke="red" stroke-width="0.207787" d="M576.771,-159.624C580.534,-154.401 586.058,-147.937 592.5,-144.125 665.764,-100.765 769.283,-90.8261 816.397,-88.5658"/>
<polygon fill="red" stroke="red" stroke-width="0.207787" points="816.744,-92.0548 826.596,-88.1569 816.464,-85.0604 816.744,-92.0548"/>
</g>
<!-- &#45;6&#45;&gt;410 -->
<g id="edge47" class="edge"><title>&#45;6&#45;&gt;410</title>
<path fill="none" stroke="green" stroke-width="0.187637" d="M573.772,-159.617C576.501,-149.697 581.232,-132.502 585.376,-117.438"/>
<polygon fill="green" stroke="green" stroke-width="0.187637" points="588.842,-118.035 588.12,-107.465 582.093,-116.178 588.842,-118.035"/>
</g>
<!-- &#45;7 -->
<g id="node7" class="node"><title>&#45;7</title>
<polygon fill="lightgray" stroke="black" points="376.5,-247.622 352.5,-247.622 352.5,-229.622 376.5,-229.622 376.5,-247.622"/>
<text text-anchor="middle" x="364.5" y="-236.422" font-family="Times,serif" font-size="9.00">&#45;7</text>
</g>
<!-- &#45;8 -->
<g id="node8" class="node"><title>&#45;8</title>
<polygon fill="lightgray" stroke="black" points="246.5,-177.874 222.5,-177.874 222.5,-159.874 246.5,-159.874 246.5,-177.874"/>
<text text-anchor="middle" x="234.5" y="-166.674" font-family="Times,serif" font-size="9.00">&#45;8</text>
</g>
<!-- &#45;8&#45;&gt;3 -->
<g id="edge33" class="edge"><title>&#45;8&#45;&gt;3</title>
<path fill="none" stroke="red" stroke-width="0.184461" d="M227.892,-159.617C218.047,-147.317 199.252,-123.835 185.853,-107.094"/>
<polygon fill="red" stroke="red" stroke-width="0.184461" points="188.396,-104.67 179.415,-99.0498 182.931,-109.044 188.396,-104.67"/>
</g>
<!-- &#45;8&#45;&gt;410 -->
<g id="edge46" class="edge"><title>&#45;8&#45;&gt;410</title>
<path fill="none" stroke="green" stroke-width="0.56723" d="M239.322,-159.863C243.031,-154.463 248.672,-147.695 255.5,-144.125 377.244,-80.4742 433.321,-154.879 562.5,-108.125 564.403,-107.436 566.307,-106.611 568.183,-105.693"/>
<polygon fill="green" stroke="green" stroke-width="0.56723" points="570.254,-108.541 577.195,-100.537 566.777,-102.465 570.254,-108.541"/>
</g>
<!-- &#45;9 -->
<g id="node9" class="node"><title>&#45;9</title>
<polygon fill="lightgray" stroke="black" points="900.5,-177.874 876.5,-177.874 876.5,-159.874 900.5,-159.874 900.5,-177.874"/>
<text text-anchor="middle" x="888.5" y="-166.674" font-family="Times,serif" font-size="9.00">&#45;9</text>
</g>
<!-- &#45;9&#45;&gt;1 -->
<g id="edge30" class="edge"><title>&#45;9&#45;&gt;1</title>
<path fill="none" stroke="red" stroke-width="0.455267" d="M883.647,-159.617C876.707,-147.809 863.71,-125.697 853.976,-109.137"/>
<polygon fill="red" stroke="red" stroke-width="0.455267" points="856.777,-106.995 848.692,-100.147 850.742,-110.542 856.777,-106.995"/>
</g>
<!-- &#45;10 -->
<g id="node10" class="node"><title>&#45;10</title>
<polygon fill="lightgray" stroke="black" points="494,-177.874 465,-177.874 465,-159.874 494,-159.874 494,-177.874"/>
<text text-anchor="middle" x="479.5" y="-166.674" font-family="Times,serif" font-size="9.00">&#45;10</text>
</g>
<!-- &#45;10&#45;&gt;410 -->
<g id="edge42" class="edge"><title>&#45;10&#45;&gt;410</title>
<path fill="none" stroke="red" stroke-width="0.793004" d="M486.284,-159.871C490.636,-155.002 496.566,-148.835 502.5,-144.125 526.858,-124.791 536.137,-124.621 562.5,-108.125 564.175,-107.077 565.895,-105.989 567.624,-104.886"/>
<polygon fill="red" stroke="red" stroke-width="0.793004" points="569.687,-107.72 576.194,-99.3588 565.893,-101.838 569.687,-107.72"/>
</g>
<!-- &#45;11 -->
<g id="node11" class="node"><title>&#45;11</title>
<polygon fill="lightgray" stroke="black" points="76,-177.874 47,-177.874 47,-159.874 76,-159.874 76,-177.874"/>
<text text-anchor="middle" x="61.5" y="-166.674" font-family="Times,serif" font-size="9.00">&#45;11</text>
</g>
<!-- &#45;11&#45;&gt;3 -->
<g id="edge31" class="edge"><title>&#45;11&#45;&gt;3</title>
<path fill="none" stroke="green" stroke-width="0.326803" d="M71.0242,-159.777C76.6156,-155.099 83.8656,-149.162 90.5,-144.125 110.349,-129.056 133.743,-112.783 150.087,-101.643"/>
<polygon fill="green" stroke="green" stroke-width="0.326803" points="152.063,-104.532 158.375,-96.0222 148.134,-98.7383 152.063,-104.532"/>
</g>
<!-- &#45;12 -->
<g id="node12" class="node"><title>&#45;12</title>
<polygon fill="lightgray" stroke="black" points="29,-177.874 0,-177.874 0,-159.874 29,-159.874 29,-177.874"/>
<text text-anchor="middle" x="14.5" y="-166.674" font-family="Times,serif" font-size="9.00">&#45;12</text>
</g>
<!-- &#45;12&#45;&gt;2 -->
<g id="edge22" class="edge"><title>&#45;12&#45;&gt;2</title>
<path fill="none" stroke="red" stroke-width="0.408324" d="M21.4848,-159.75C39.6203,-139.338 90.6954,-86.0764 146.5,-65.6985 264.461,-22.6233 666.343,-16.7694 771.272,-15.9742"/>
<polygon fill="red" stroke="red" stroke-width="0.408324" points="771.555,-19.4725 781.531,-15.9059 771.508,-12.4726 771.555,-19.4725"/>
</g>
<!-- &#45;12&#45;&gt;3 -->
<g id="edge41" class="edge"><title>&#45;12&#45;&gt;3</title>
<path fill="none" stroke="green" stroke-width="0.297034" d="M21.0618,-159.57C25.33,-154.587 31.2497,-148.407 37.5,-144.125 72.3415,-120.255 118.928,-103.457 146.709,-94.7606"/>
<polygon fill="green" stroke="green" stroke-width="0.297034" points="147.821,-98.0809 156.373,-91.8265 145.787,-91.3829 147.821,-98.0809"/>
</g>
<!-- &#45;13 -->
<g id="node13" class="node"><title>&#45;13</title>
<polygon fill="lightgray" stroke="black" points="554,-95.9117 525,-95.9117 525,-77.9117 554,-77.9117 554,-95.9117"/>
<text text-anchor="middle" x="539.5" y="-84.7117" font-family="Times,serif" font-size="9.00">&#45;13</text>
</g>
<!-- &#45;13&#45;&gt;2 -->
<g id="edge17" class="edge"><title>&#45;13&#45;&gt;2</title>
<path fill="none" stroke="green" stroke-width="0.335885" d="M547.224,-77.701C551.613,-73.5045 557.433,-68.6692 563.5,-65.6985 633.711,-31.3172 727.237,-20.5316 771.393,-17.2407"/>
<polygon fill="green" stroke="green" stroke-width="0.335885" points="771.77,-20.7233 781.511,-16.5557 771.297,-13.7393 771.77,-20.7233"/>
</g>
<!-- &#45;14 -->
<g id="node14" class="node"><title>&#45;14</title>
<polygon fill="lightgray" stroke="black" points="811,-177.874 782,-177.874 782,-159.874 811,-159.874 811,-177.874"/>
<text text-anchor="middle" x="796.5" y="-166.674" font-family="Times,serif" font-size="9.00">&#45;14</text>
</g>
<!-- &#45;14&#45;&gt;1 -->
<g id="edge45" class="edge"><title>&#45;14&#45;&gt;1</title>
<path fill="none" stroke="red" stroke-width="0.367301" d="M801.146,-159.617C807.791,-147.809 820.235,-125.697 829.555,-109.137"/>
<polygon fill="red" stroke="red" stroke-width="0.367301" points="832.76,-110.579 834.614,-100.147 826.66,-107.146 832.76,-110.579"/>
</g>
<!-- &#45;14&#45;&gt;2 -->
<g id="edge13" class="edge"><title>&#45;14&#45;&gt;2</title>
<path fill="none" stroke="green" stroke-width="0.571892" d="M796.5,-159.7C796.5,-137.44 796.5,-75.076 796.5,-40.2136"/>
<polygon fill="green" stroke="green" stroke-width="0.571892" points="800,-39.9467 796.5,-29.9468 793,-39.9468 800,-39.9467"/>
</g>
<!-- &#45;15 -->
<g id="node15" class="node"><title>&#45;15</title>
<polygon fill="lightgray" stroke="black" points="721,-177.874 692,-177.874 692,-159.874 721,-159.874 721,-177.874"/>
<text text-anchor="middle" x="706.5" y="-166.674" font-family="Times,serif" font-size="9.00">&#45;15</text>
</g>
<!-- &#45;15&#45;&gt;1 -->
<g id="edge15" class="edge"><title>&#45;15&#45;&gt;1</title>
<path fill="none" stroke="green" stroke-width="0.247588" d="M713.519,-159.74C718.038,-154.821 724.223,-148.649 730.5,-144.125 758.589,-123.883 795.017,-106.952 818.331,-97.1214"/>
<polygon fill="green" stroke="green" stroke-width="0.247588" points="819.84,-100.285 827.75,-93.2357 817.171,-93.8138 819.84,-100.285"/>
</g>
<!-- &#45;15&#45;&gt;410 -->
<g id="edge3" class="edge"><title>&#45;15&#45;&gt;410</title>
<path fill="none" stroke="red" stroke-width="0.326995" d="M698.905,-159.501C694.373,-154.732 688.373,-148.794 682.5,-144.125 663.01,-128.628 639.055,-113.704 620.91,-103.132"/>
<polygon fill="red" stroke="red" stroke-width="0.326995" points="622.42,-99.9634 612.004,-98.0207 618.935,-106.034 622.42,-99.9634"/>
</g>
<!-- &#45;16 -->
<g id="node16" class="node"><title>&#45;16</title>
<polygon fill="lightgray" stroke="black" points="294,-177.874 265,-177.874 265,-159.874 294,-159.874 294,-177.874"/>
<text text-anchor="middle" x="279.5" y="-166.674" font-family="Times,serif" font-size="9.00">&#45;16</text>
</g>
<!-- &#45;16&#45;&gt;0 -->
<g id="edge18" class="edge"><title>&#45;16&#45;&gt;0</title>
<path fill="none" stroke="red" stroke-width="0.302556" d="M283.94,-159.617C290.254,-147.876 302.046,-125.947 310.935,-109.418"/>
<polygon fill="red" stroke="red" stroke-width="0.302556" points="314.116,-110.893 315.769,-100.428 307.951,-107.577 314.116,-110.893"/>
</g>
<!-- &#45;16&#45;&gt;3 -->
<g id="edge5" class="edge"><title>&#45;16&#45;&gt;3</title>
<path fill="none" stroke="green" stroke-width="0.114346" d="M271.868,-159.547C267.324,-154.793 261.324,-148.856 255.5,-144.125 235.108,-127.559 209.772,-111.297 192.09,-100.561"/>
<polygon fill="green" stroke="green" stroke-width="0.114346" points="193.511,-97.3324 183.134,-95.1975 189.915,-103.338 193.511,-97.3324"/>
</g>
<!-- &#45;16&#45;&gt;410 -->
<g id="edge20" class="edge"><title>&#45;16&#45;&gt;410</title>
<path fill="none" stroke="green" stroke-width="0.87655" d="M294.001,-161.348C306.391,-156.01 324.808,-148.631 341.5,-144.125 437.578,-118.191 469.705,-144.079 562.5,-108.125 564.342,-107.411 566.189,-106.577 568.013,-105.662"/>
<polygon fill="green" stroke="green" stroke-width="0.87655" points="569.894,-108.618 576.813,-100.594 566.4,-102.552 569.894,-108.618"/>
</g>
<!-- &#45;17 -->
<g id="node17" class="node"><title>&#45;17</title>
<polygon fill="lightgray" stroke="black" points="541,-177.874 512,-177.874 512,-159.874 541,-159.874 541,-177.874"/>
<text text-anchor="middle" x="526.5" y="-166.674" font-family="Times,serif" font-size="9.00">&#45;17</text>
</g>
<!-- &#45;17&#45;&gt;1 -->
<g id="edge9" class="edge"><title>&#45;17&#45;&gt;1</title>
<path fill="none" stroke="green" stroke-width="0.519986" d="M532.729,-159.563C537.116,-154.315 543.449,-147.845 550.5,-144.125 640.148,-96.8271 764.134,-89.0349 816.531,-87.9558"/>
<polygon fill="green" stroke="green" stroke-width="0.519986" points="816.637,-91.4548 826.587,-87.8156 816.54,-84.4554 816.637,-91.4548"/>
</g>
<!-- &#45;17&#45;&gt;3 -->
<g id="edge14" class="edge"><title>&#45;17&#45;&gt;3</title>
<path fill="none" stroke="green" stroke-width="0.109122" d="M520.299,-159.509C515.923,-154.238 509.593,-147.763 502.5,-144.125 495.59,-140.581 271.295,-104.172 195.352,-91.9143"/>
<polygon fill="green" stroke="green" stroke-width="0.109122" points="195.696,-88.4247 185.267,-90.2878 194.582,-95.3354 195.696,-88.4247"/>
</g>
<!-- &#45;17&#45;&gt;410 -->
<g id="edge48" class="edge"><title>&#45;17&#45;&gt;410</title>
<path fill="none" stroke="red" stroke-width="0.241196" d="M533.418,-159.617C542.813,-148.404 559.995,-127.899 573.585,-111.679"/>
<polygon fill="red" stroke="red" stroke-width="0.241196" points="576.564,-113.573 580.304,-103.66 571.199,-109.077 576.564,-113.573"/>
</g>
<!-- &#45;18 -->
<g id="node18" class="node"><title>&#45;18</title>
<polygon fill="lightgray" stroke="black" points="990,-177.874 961,-177.874 961,-159.874 990,-159.874 990,-177.874"/>
<text text-anchor="middle" x="975.5" y="-166.674" font-family="Times,serif" font-size="9.00">&#45;18</text>
</g>
<!-- &#45;18&#45;&gt;1 -->
<g id="edge7" class="edge"><title>&#45;18&#45;&gt;1</title>
<path fill="none" stroke="green" stroke-width="0.140318" d="M968.475,-159.748C963.954,-154.833 957.769,-148.66 951.5,-144.125 923.649,-123.977 887.553,-107.022 864.454,-97.1608"/>
<polygon fill="green" stroke="green" stroke-width="0.140318" points="865.698,-93.8875 855.122,-93.2614 862.999,-100.346 865.698,-93.8875"/>
</g>
<!-- &#45;18&#45;&gt;2 -->
<g id="edge24" class="edge"><title>&#45;18&#45;&gt;2</title>
<path fill="none" stroke="red" stroke-width="0.996226" d="M972.349,-159.84C964.578,-140.969 942.756,-93.3233 910.5,-65.6985 883.942,-42.9533 845.389,-29.0414 820.63,-21.886"/>
<polygon fill="red" stroke="red" stroke-width="0.996226" points="821.508,-18.4977 810.939,-19.227 819.656,-25.2482 821.508,-18.4977"/>
</g>
<!-- &#45;18&#45;&gt;410 -->
<g id="edge11" class="edge"><title>&#45;18&#45;&gt;410</title>
<path fill="none" stroke="red" stroke-width="0.142567" d="M969.314,-159.481C964.944,-154.198 958.615,-147.721 951.5,-144.125 894.369,-115.252 701.861,-96.7622 625.294,-90.3921"/>
<polygon fill="red" stroke="red" stroke-width="0.142567" points="625.12,-86.8664 614.868,-89.5404 624.55,-93.8431 625.12,-86.8664"/>
</g>
<!-- &#45;19 -->
<g id="node19" class="node"><title>&#45;19</title>
<polygon fill="lightgray" stroke="black" points="162,-177.874 133,-177.874 133,-159.874 162,-159.874 162,-177.874"/>
<text text-anchor="middle" x="147.5" y="-166.674" font-family="Times,serif" font-size="9.00">&#45;19</text>
</g>
<!-- &#45;19&#45;&gt;0 -->
<g id="edge37" class="edge"><title>&#45;19&#45;&gt;0</title>
<path fill="none" stroke="green" stroke-width="0.109526" d="M154.347,-159.487C158.801,-154.473 164.978,-148.289 171.5,-144.125 212.204,-118.135 266.683,-101.634 297.844,-93.6435"/>
<polygon fill="green" stroke="green" stroke-width="0.109526" points="298.968,-96.9711 307.834,-91.1705 297.286,-90.1762 298.968,-96.9711"/>
</g>
<!-- &#45;19&#45;&gt;3 -->
<g id="edge4" class="edge"><title>&#45;19&#45;&gt;3</title>
<path fill="none" stroke="red" stroke-width="0.925588" d="M149.875,-159.617C153.132,-148.292 159.117,-127.487 163.803,-111.194"/>
<polygon fill="red" stroke="red" stroke-width="0.925588" points="167.253,-111.861 166.654,-101.283 160.526,-109.926 167.253,-111.861"/>
</g>
<!-- &#45;20 -->
<g id="node20" class="node"><title>&#45;20</title>
<polygon fill="lightgray" stroke="black" points="631,-177.874 602,-177.874 602,-159.874 631,-159.874 631,-177.874"/>
<text text-anchor="middle" x="616.5" y="-166.674" font-family="Times,serif" font-size="9.00">&#45;20</text>
</g>
<!-- &#45;20&#45;&gt;410 -->
<g id="edge44" class="edge"><title>&#45;20&#45;&gt;410</title>
<path fill="none" stroke="green" stroke-width="0.132524" d="M614.125,-159.617C611.272,-149.697 606.326,-132.502 601.993,-117.438"/>
<polygon fill="green" stroke="green" stroke-width="0.132524" points="605.252,-116.107 599.124,-107.465 598.525,-118.042 605.252,-116.107"/>
</g>
<!-- &#45;21 -->
<g id="node21" class="node"><title>&#45;21</title>
<polygon fill="lightgray" stroke="black" points="858,-177.874 829,-177.874 829,-159.874 858,-159.874 858,-177.874"/>
<text text-anchor="middle" x="843.5" y="-166.674" font-family="Times,serif" font-size="9.00">&#45;21</text>
</g>
<!-- &#45;21&#45;&gt;1 -->
<g id="edge8" class="edge"><title>&#45;21&#45;&gt;1</title>
<path fill="none" stroke="green" stroke-width="0.411498" d="M843.293,-159.617C843.016,-148.53 842.512,-128.356 842.108,-112.225"/>
<polygon fill="green" stroke="green" stroke-width="0.411498" points="845.598,-111.774 841.849,-101.864 838.6,-111.949 845.598,-111.774"/>
</g>
<!-- &#45;22 -->
<g id="node22" class="node"><title>&#45;22</title>
<polygon fill="lightgray" stroke="black" points="1037,-177.874 1008,-177.874 1008,-159.874 1037,-159.874 1037,-177.874"/>
<text text-anchor="middle" x="1022.5" y="-166.674" font-family="Times,serif" font-size="9.00">&#45;22</text>
</g>
<!-- &#45;22&#45;&gt;1 -->
<g id="edge21" class="edge"><title>&#45;22&#45;&gt;1</title>
<path fill="none" stroke="red" stroke-width="0.687639" d="M1016.02,-159.441C1011.79,-154.41 1005.87,-148.224 999.5,-144.125 956.601,-116.53 898.42,-100.378 865.965,-92.9299"/>
<polygon fill="red" stroke="red" stroke-width="0.687639" points="866.523,-89.469 856.004,-90.734 865.016,-96.3049 866.523,-89.469"/>
</g>
<!-- &#45;22&#45;&gt;2 -->
<g id="edge38" class="edge"><title>&#45;22&#45;&gt;2</title>
<path fill="none" stroke="green" stroke-width="0.268717" d="M1018.11,-159.686C1007.4,-140.48 978.056,-92.1648 940.5,-65.6985 903.521,-39.6386 851.693,-26.1513 821.353,-20.0678"/>
<polygon fill="green" stroke="green" stroke-width="0.268717" points="821.691,-16.5697 811.215,-18.1519 820.391,-23.448 821.691,-16.5697"/>
</g>
<!-- &#45;23 -->
<g id="node23" class="node"><title>&#45;23</title>
<polygon fill="lightgray" stroke="black" points="380,-177.874 351,-177.874 351,-159.874 380,-159.874 380,-177.874"/>
<text text-anchor="middle" x="365.5" y="-166.674" font-family="Times,serif" font-size="9.00">&#45;23</text>
</g>
<!-- &#45;23&#45;&gt;0 -->
<g id="edge2" class="edge"><title>&#45;23&#45;&gt;0</title>
<path fill="none" stroke="green" stroke-width="0.239416" d="M361.06,-159.617C354.746,-147.876 342.954,-125.947 334.065,-109.418"/>
<polygon fill="green" stroke="green" stroke-width="0.239416" points="337.049,-107.577 329.231,-100.428 330.884,-110.893 337.049,-107.577"/>
</g>
<!-- &#45;23&#45;&gt;410 -->
<g id="edge39" class="edge"><title>&#45;23&#45;&gt;410</title>
<path fill="none" stroke="red" stroke-width="0.156735" d="M371.414,-159.59C375.596,-154.353 381.66,-147.886 388.5,-144.125 457.701,-106.076 489.486,-138.215 562.5,-108.125 564.327,-107.372 566.162,-106.509 567.977,-105.572"/>
<polygon fill="red" stroke="red" stroke-width="0.156735" points="569.882,-108.512 576.755,-100.45 566.354,-102.466 569.882,-108.512"/>
</g>
<!-- &#45;24 -->
<g id="node24" class="node"><title>&#45;24</title>
<polygon fill="lightgray" stroke="black" points="424,-247.622 395,-247.622 395,-229.622 424,-229.622 424,-247.622"/>
<text text-anchor="middle" x="409.5" y="-236.422" font-family="Times,serif" font-size="9.00">&#45;24</text>
</g>
<!-- 1&#45;&gt;1 -->
<g id="edge25" class="edge"><title>1&#45;&gt;1</title>
<path fill="none" stroke="red" stroke-width="0.798938" d="M852.267,-97.6398C862.789,-103.566 874.349,-99.9898 874.349,-86.9117 874.349,-77.9205 868.885,-73.4205 862.051,-73.4117"/>
<polygon fill="red" stroke="red" stroke-width="0.798938" points="860.934,-70.0903 852.267,-76.1835 862.842,-76.8252 860.934,-70.0903"/>
</g>
<!-- 3&#45;&gt;3 -->
<g id="edge12" class="edge"><title>3&#45;&gt;3</title>
<path fill="none" stroke="red" stroke-width="0.170788" d="M181.267,-97.6398C191.789,-103.566 203.349,-99.9898 203.349,-86.9117 203.349,-77.9205 197.885,-73.4205 191.051,-73.4117"/>
<polygon fill="red" stroke="red" stroke-width="0.170788" points="189.934,-70.0903 181.267,-76.1835 191.842,-76.8252 189.934,-70.0903"/>
</g>
<!-- 3009&#45;&gt;410 -->
<g id="edge29" class="edge"><title>3009&#45;&gt;410</title>
<path fill="none" stroke="green" stroke-width="0.298832" d="M441.423,-152.794C445.88,-149.663 450.727,-146.574 455.5,-144.125 500.139,-121.215 517.346,-130.003 562.5,-108.125 564.278,-107.263 566.076,-106.317 567.864,-105.319"/>
<polygon fill="green" stroke="green" stroke-width="0.298832" points="569.832,-108.22 576.575,-100.048 566.208,-102.231 569.832,-108.22"/>
</g>
<!-- 410&#45;&gt;2 -->
<g id="edge6" class="edge"><title>410&#45;&gt;2</title>
<path fill="none" stroke="green" stroke-width="0.201513" d="M613.334,-79.0662C651.054,-66.0477 732.948,-37.7833 773.206,-23.8889"/>
<polygon fill="green" stroke="green" stroke-width="0.201513" points="774.405,-27.1777 782.716,-20.6066 772.121,-20.5607 774.405,-27.1777"/>
</g>
<!-- 410&#45;&gt;410 -->
<g id="edge28" class="edge"><title>410&#45;&gt;410</title>
<path fill="none" stroke="green" stroke-width="0.106624" d="M610.837,-99.3438C621.984,-102.587 632.713,-98.4429 632.713,-86.9117 632.713,-78.984 627.642,-74.5478 620.85,-73.6033"/>
<polygon fill="green" stroke="green" stroke-width="0.106624" points="620.493,-70.1211 610.837,-74.4796 621.104,-77.0944 620.493,-70.1211"/>
</g>
</g>
</svg>
