<?xml version="1.0" encoding="UTF-8" standalone="no"?>
<!DOCTYPE svg PUBLIC "-//W3C//DTD SVG 1.1//EN"
 "http://www.w3.org/Graphics/SVG/1.1/DTD/svg11.dtd">
<!-- Generated by graphviz version 2.38.0 (20140413.2041)
 -->
<!-- Title: %3 Pages: 1 -->
<svg width="1053pt" height="256pt"
 viewBox="0.00 0.00 1053.47 255.62" xmlns="http://www.w3.org/2000/svg" xmlns:xlink="http://www.w3.org/1999/xlink">
<g id="graph0" class="graph" transform="scale(1 1) rotate(0) translate(4 251.622)">
<title>%3</title>
<polygon fill="white" stroke="none" points="-4,4 -4,-251.622 1049.47,-251.622 1049.47,4 -4,4"/>
<!-- &#45;1 -->
<g id="node1" class="node"><title>&#45;1</title>
<polygon fill="lightgray" stroke="black" points="542.472,-177.874 518.472,-177.874 518.472,-159.874 542.472,-159.874 542.472,-177.874"/>
<text text-anchor="middle" x="530.472" y="-166.674" font-family="Times,serif" font-size="9.00">&#45;1</text>
</g>
<!-- 1 -->
<g id="node26" class="node"><title>1</title>
<ellipse fill="lightblue" stroke="black" cx="427.472" cy="-86.9117" rx="14.7" ry="14.7"/>
<text text-anchor="middle" x="427.472" y="-84.7117" font-family="Times,serif" font-size="9.00">1</text>
</g>
<!-- &#45;1&#45;&gt;1 -->
<g id="edge9" class="edge"><title>&#45;1&#45;&gt;1</title>
<path fill="none" stroke="red" stroke-width="0.104185" d="M523.545,-159.537C519.403,-154.779 513.903,-148.842 508.472,-144.125 489.389,-127.552 465.373,-111.396 448.462,-100.69"/>
<polygon fill="red" stroke="red" stroke-width="0.104185" points="450.212,-97.6561 439.875,-95.3341 446.508,-103.596 450.212,-97.6561"/>
</g>
<!-- 3 -->
<g id="node28" class="node"><title>3</title>
<ellipse fill="lightblue" stroke="black" cx="573.472" cy="-14.8492" rx="14.7" ry="14.7"/>
<text text-anchor="middle" x="573.472" y="-12.6492" font-family="Times,serif" font-size="9.00">3</text>
</g>
<!-- &#45;1&#45;&gt;3 -->
<g id="edge44" class="edge"><title>&#45;1&#45;&gt;3</title>
<path fill="none" stroke="green" stroke-width="0.139475" d="M533.191,-159.798C537.01,-148.354 544.096,-126.739 549.472,-108.125 556.222,-84.7518 563.132,-57.8017 567.794,-39.0858"/>
<polygon fill="green" stroke="green" stroke-width="0.139475" points="571.196,-39.9065 570.198,-29.3588 564.401,-38.2265 571.196,-39.9065"/>
</g>
<!-- 228 -->
<g id="node29" class="node"><title>228</title>
<ellipse fill="white" stroke="black" cx="622.472" cy="-86.9117" rx="21.4286" ry="21.4286"/>
<text text-anchor="middle" x="622.472" y="-84.7117" font-family="Times,serif" font-size="9.00">228</text>
</g>
<!-- &#45;1&#45;&gt;228 -->
<g id="edge36" class="edge"><title>&#45;1&#45;&gt;228</title>
<path fill="none" stroke="red" stroke-width="0.515785" d="M537.135,-159.632C541.107,-154.906 546.357,-148.969 551.472,-144.125 565.841,-130.517 583.245,-116.7 597.225,-106.17"/>
<polygon fill="red" stroke="red" stroke-width="0.515785" points="599.493,-108.845 605.43,-100.07 595.317,-103.228 599.493,-108.845"/>
</g>
<!-- &#45;2 -->
<g id="node2" class="node"><title>&#45;2</title>
<polygon fill="lightgray" stroke="black" points="828.472,-177.874 804.472,-177.874 804.472,-159.874 828.472,-159.874 828.472,-177.874"/>
<text text-anchor="middle" x="816.472" y="-166.674" font-family="Times,serif" font-size="9.00">&#45;2</text>
</g>
<!-- &#45;2&#45;&gt;1 -->
<g id="edge15" class="edge"><title>&#45;2&#45;&gt;1</title>
<path fill="none" stroke="green" stroke-width="0.579357" d="M811.658,-159.848C807.952,-154.441 802.313,-147.671 795.472,-144.125 665.662,-76.8412 608.833,-149.071 468.472,-108.125 461.872,-106.2 455.044,-103.263 448.899,-100.22"/>
<polygon fill="green" stroke="green" stroke-width="0.579357" points="450.409,-97.0594 439.933,-95.4798 447.138,-103.248 450.409,-97.0594"/>
</g>
<!-- 2 -->
<g id="node27" class="node"><title>2</title>
<ellipse fill="lightblue" stroke="black" cx="853.472" cy="-86.9117" rx="14.7" ry="14.7"/>
<text text-anchor="middle" x="853.472" y="-84.7117" font-family="Times,serif" font-size="9.00">2</text>
</g>
<!-- &#45;2&#45;&gt;2 -->
<g id="edge26" class="edge"><title>&#45;2&#45;&gt;2</title>
<path fill="none" stroke="green" stroke-width="0.277182" d="M820.292,-159.617C825.644,-148.052 835.569,-126.601 843.175,-110.164"/>
<polygon fill="green" stroke="green" stroke-width="0.277182" points="846.526,-111.256 847.549,-100.71 840.174,-108.316 846.526,-111.256"/>
</g>
<!-- &#45;2&#45;&gt;3 -->
<g id="edge56" class="edge"><title>&#45;2&#45;&gt;3</title>
<path fill="none" stroke="red" stroke-width="0.361135" d="M809.816,-159.624C805.848,-154.894 800.598,-148.957 795.472,-144.125 754.372,-105.381 744.305,-94.0808 695.472,-65.6985 663.277,-46.9865 622.709,-31.9191 597.426,-23.4249"/>
<polygon fill="red" stroke="red" stroke-width="0.361135" points="598.188,-19.9914 587.595,-20.1956 596.003,-26.6418 598.188,-19.9914"/>
</g>
<!-- &#45;3 -->
<g id="node3" class="node"><title>&#45;3</title>
<polygon fill="lightgray" stroke="black" points="295.472,-177.874 271.472,-177.874 271.472,-159.874 295.472,-159.874 295.472,-177.874"/>
<text text-anchor="middle" x="283.472" y="-166.674" font-family="Times,serif" font-size="9.00">&#45;3</text>
</g>
<!-- 0 -->
<g id="node25" class="node"><title>0</title>
<ellipse fill="lightblue" stroke="black" cx="216.472" cy="-86.9117" rx="14.7" ry="14.7"/>
<text text-anchor="middle" x="216.472" y="-84.7117" font-family="Times,serif" font-size="9.00">0</text>
</g>
<!-- &#45;3&#45;&gt;0 -->
<g id="edge48" class="edge"><title>&#45;3&#45;&gt;0</title>
<path fill="none" stroke="green" stroke-width="0.321834" d="M276.554,-159.617C266.19,-147.249 246.354,-123.575 232.313,-106.818"/>
<polygon fill="green" stroke="green" stroke-width="0.321834" points="234.685,-104.199 225.58,-98.7815 229.319,-108.694 234.685,-104.199"/>
</g>
<!-- &#45;3&#45;&gt;1 -->
<g id="edge30" class="edge"><title>&#45;3&#45;&gt;1</title>
<path fill="none" stroke="green" stroke-width="0.108227" d="M289.371,-159.6C293.234,-154.629 298.635,-148.45 304.472,-144.125 335.642,-121.028 377.817,-104.328 403.805,-95.3898"/>
<polygon fill="green" stroke="green" stroke-width="0.108227" points="405.173,-98.6231 413.554,-92.1408 402.96,-91.9822 405.173,-98.6231"/>
</g>
<!-- &#45;3&#45;&gt;228 -->
<g id="edge37" class="edge"><title>&#45;3&#45;&gt;228</title>
<path fill="none" stroke="green" stroke-width="0.138211" d="M288.677,-159.511C292.413,-154.24 297.931,-147.765 304.472,-144.125 387.597,-97.8603 421.839,-124.955 515.472,-108.125 541.099,-103.518 570.122,-98.0178 591.47,-93.9185"/>
<polygon fill="green" stroke="green" stroke-width="0.138211" points="592.421,-97.2997 601.579,-91.9719 591.097,-90.426 592.421,-97.2997"/>
</g>
<!-- &#45;4 -->
<g id="node4" class="node"><title>&#45;4</title>
<polygon fill="lightgray" stroke="black" points="30.4717,-247.622 6.47174,-247.622 6.47174,-229.622 30.4717,-229.622 30.4717,-247.622"/>
<text text-anchor="middle" x="18.4717" y="-236.422" font-family="Times,serif" font-size="9.00">&#45;4</text>
</g>
<!-- &#45;4&#45;&gt;0 -->
<g id="edge34" class="edge"><title>&#45;4&#45;&gt;0</title>
<path fill="none" stroke="green" stroke-width="0.141364" d="M14.3977,-229.506C6.1411,-211.777 -10.1087,-169.175 10.4717,-144.125 62.8154,-80.4134 118.139,-143.814 192.472,-108.125 194.547,-107.129 196.59,-105.911 198.557,-104.571"/>
<polygon fill="green" stroke="green" stroke-width="0.141364" points="200.883,-107.194 206.538,-98.234 196.53,-101.711 200.883,-107.194"/>
</g>
<!-- 1006 -->
<g id="node32" class="node"><title>1006</title>
<ellipse fill="white" stroke="black" cx="44.4717" cy="-168.874" rx="25" ry="25"/>
<text text-anchor="middle" x="44.4717" y="-166.674" font-family="Times,serif" font-size="9.00">1006</text>
</g>
<!-- &#45;4&#45;&gt;1006 -->
<g id="edge51" class="edge"><title>&#45;4&#45;&gt;1006</title>
<path fill="none" stroke="red" stroke-width="0.101726" d="M21.5564,-229.585C24.2547,-222.554 28.356,-211.867 32.3469,-201.467"/>
<polygon fill="red" stroke="red" stroke-width="0.101726" points="35.6222,-202.701 35.9376,-192.111 29.0869,-200.193 35.6222,-202.701"/>
</g>
<!-- &#45;5 -->
<g id="node5" class="node"><title>&#45;5</title>
<polygon fill="lightgray" stroke="black" points="1045.47,-177.874 1021.47,-177.874 1021.47,-159.874 1045.47,-159.874 1045.47,-177.874"/>
<text text-anchor="middle" x="1033.47" y="-166.674" font-family="Times,serif" font-size="9.00">&#45;5</text>
</g>
<!-- &#45;5&#45;&gt;2 -->
<g id="edge54" class="edge"><title>&#45;5&#45;&gt;2</title>
<path fill="none" stroke="green" stroke-width="0.198076" d="M1028.05,-159.87C1024.22,-154.751 1018.68,-148.31 1012.47,-144.125 969.943,-115.447 911.157,-99.6936 878.284,-92.6061"/>
<polygon fill="green" stroke="green" stroke-width="0.198076" points="878.69,-89.1164 868.19,-90.5286 877.279,-95.9727 878.69,-89.1164"/>
</g>
<!-- &#45;5&#45;&gt;3 -->
<g id="edge38" class="edge"><title>&#45;5&#45;&gt;3</title>
<path fill="none" stroke="green" stroke-width="0.124018" d="M1026.91,-159.518C1022.98,-154.754 1017.73,-148.817 1012.47,-144.125 967.141,-103.654 956.881,-88.2997 900.472,-65.6985 794.024,-23.0484 654.679,-16.6044 598.526,-15.8331"/>
<polygon fill="green" stroke="green" stroke-width="0.124018" points="598.47,-12.3326 588.439,-15.7455 598.409,-19.3323 598.47,-12.3326"/>
</g>
<!-- &#45;6 -->
<g id="node6" class="node"><title>&#45;6</title>
<polygon fill="lightgray" stroke="black" points="385.472,-177.874 361.472,-177.874 361.472,-159.874 385.472,-159.874 385.472,-177.874"/>
<text text-anchor="middle" x="373.472" y="-166.674" font-family="Times,serif" font-size="9.00">&#45;6</text>
</g>
<!-- &#45;6&#45;&gt;1 -->
<g id="edge40" class="edge"><title>&#45;6&#45;&gt;1</title>
<path fill="none" stroke="red" stroke-width="0.207099" d="M379.047,-159.617C387.187,-147.564 402.577,-124.775 413.829,-108.113"/>
<polygon fill="red" stroke="red" stroke-width="0.207099" points="416.887,-109.84 419.583,-99.5937 411.086,-105.922 416.887,-109.84"/>
</g>
<!-- &#45;7 -->
<g id="node7" class="node"><title>&#45;7</title>
<polygon fill="lightgray" stroke="black" points="908.472,-177.874 884.472,-177.874 884.472,-159.874 908.472,-159.874 908.472,-177.874"/>
<text text-anchor="middle" x="896.472" y="-166.674" font-family="Times,serif" font-size="9.00">&#45;7</text>
</g>
<!-- &#45;7&#45;&gt;2 -->
<g id="edge35" class="edge"><title>&#45;7&#45;&gt;2</title>
<path fill="none" stroke="green" stroke-width="0.111931" d="M892.032,-159.617C885.718,-147.876 873.925,-125.947 865.037,-109.418"/>
<polygon fill="green" stroke="green" stroke-width="0.111931" points="868.021,-107.577 860.202,-100.428 861.856,-110.893 868.021,-107.577"/>
</g>
<!-- &#45;7&#45;&gt;3 -->
<g id="edge16" class="edge"><title>&#45;7&#45;&gt;3</title>
<path fill="none" stroke="green" stroke-width="0.210845" d="M897.731,-159.843C900.257,-140.555 903.646,-91.32 877.472,-65.6985 838.001,-27.0605 664.323,-18.3205 598.7,-16.3856"/>
<polygon fill="green" stroke="green" stroke-width="0.210845" points="598.531,-12.88 588.442,-16.1137 598.346,-19.8776 598.531,-12.88"/>
</g>
<!-- &#45;7&#45;&gt;228 -->
<g id="edge42" class="edge"><title>&#45;7&#45;&gt;228</title>
<path fill="none" stroke="red" stroke-width="0.519633" d="M884.435,-162.504C872.628,-157.363 854.036,-149.6 837.472,-144.125 772.802,-122.751 695.081,-104.124 653.063,-94.6193"/>
<polygon fill="red" stroke="red" stroke-width="0.519633" points="653.703,-91.176 643.18,-92.4034 652.172,-98.0064 653.703,-91.176"/>
</g>
<!-- &#45;8 -->
<g id="node8" class="node"><title>&#45;8</title>
<polygon fill="lightgray" stroke="black" points="786.472,-177.874 762.472,-177.874 762.472,-159.874 786.472,-159.874 786.472,-177.874"/>
<text text-anchor="middle" x="774.472" y="-166.674" font-family="Times,serif" font-size="9.00">&#45;8</text>
</g>
<!-- &#45;8&#45;&gt;1 -->
<g id="edge7" class="edge"><title>&#45;8&#45;&gt;1</title>
<path fill="none" stroke="red" stroke-width="0.291251" d="M769.317,-159.417C765.603,-154.106 760.089,-147.622 753.472,-144.125 640.594,-84.4672 590.746,-144.859 468.472,-108.125 461.888,-106.147 455.065,-103.193 448.919,-100.15"/>
<polygon fill="red" stroke="red" stroke-width="0.291251" points="450.428,-96.9894 439.95,-95.4233 447.164,-103.182 450.428,-96.9894"/>
</g>
<!-- &#45;8&#45;&gt;2 -->
<g id="edge13" class="edge"><title>&#45;8&#45;&gt;2</title>
<path fill="none" stroke="green" stroke-width="0.336587" d="M781.322,-159.82C785.355,-155.156 790.605,-149.219 795.472,-144.125 808.536,-130.449 823.934,-115.58 835.58,-104.571"/>
<polygon fill="green" stroke="green" stroke-width="0.336587" points="838.078,-107.027 842.968,-97.6288 833.284,-101.926 838.078,-107.027"/>
</g>
<!-- &#45;8&#45;&gt;3 -->
<g id="edge47" class="edge"><title>&#45;8&#45;&gt;3</title>
<path fill="none" stroke="red" stroke-width="0.151265" d="M767.825,-159.614C763.86,-154.882 758.61,-148.945 753.472,-144.125 701.543,-95.4078 630.326,-49.9213 595.064,-28.5766"/>
<polygon fill="red" stroke="red" stroke-width="0.151265" points="596.494,-25.3532 586.118,-23.2138 592.895,-31.3572 596.494,-25.3532"/>
</g>
<!-- &#45;8&#45;&gt;228 -->
<g id="edge28" class="edge"><title>&#45;8&#45;&gt;228</title>
<path fill="none" stroke="green" stroke-width="0.121829" d="M768.608,-159.552C764.758,-154.563 759.359,-148.382 753.472,-144.125 736.524,-131.87 684.853,-111.294 651.697,-98.7267"/>
<polygon fill="green" stroke="green" stroke-width="0.121829" points="652.652,-95.3466 642.06,-95.1015 650.187,-101.898 652.652,-95.3466"/>
</g>
<!-- &#45;9 -->
<g id="node9" class="node"><title>&#45;9</title>
<polygon fill="lightgray" stroke="black" points="205.472,-177.874 181.472,-177.874 181.472,-159.874 205.472,-159.874 205.472,-177.874"/>
<text text-anchor="middle" x="193.472" y="-166.674" font-family="Times,serif" font-size="9.00">&#45;9</text>
</g>
<!-- &#45;9&#45;&gt;0 -->
<g id="edge32" class="edge"><title>&#45;9&#45;&gt;0</title>
<path fill="none" stroke="red" stroke-width="0.461593" d="M195.847,-159.617C199.104,-148.292 205.088,-127.487 209.775,-111.194"/>
<polygon fill="red" stroke="red" stroke-width="0.461593" points="213.225,-111.861 212.626,-101.283 206.498,-109.926 213.225,-111.861"/>
</g>
<!-- &#45;9&#45;&gt;1 -->
<g id="edge8" class="edge"><title>&#45;9&#45;&gt;1</title>
<path fill="none" stroke="red" stroke-width="0.448295" d="M198.788,-159.7C202.571,-154.51 208.1,-148.053 214.472,-144.125 275.291,-106.636 360.767,-93.9271 402.531,-89.7955"/>
<polygon fill="red" stroke="red" stroke-width="0.448295" points="402.987,-93.2686 412.631,-88.8818 402.356,-86.2971 402.987,-93.2686"/>
</g>
<!-- &#45;10 -->
<g id="node10" class="node"><title>&#45;10</title>
<polygon fill="lightgray" stroke="black" points="1002.97,-177.874 973.972,-177.874 973.972,-159.874 1002.97,-159.874 1002.97,-177.874"/>
<text text-anchor="middle" x="988.472" y="-166.674" font-family="Times,serif" font-size="9.00">&#45;10</text>
</g>
<!-- &#45;10&#45;&gt;2 -->
<g id="edge3" class="edge"><title>&#45;10&#45;&gt;2</title>
<path fill="none" stroke="green" stroke-width="0.640756" d="M981.809,-159.712C977.503,-154.783 971.579,-148.609 965.472,-144.125 937.21,-123.376 900.147,-106.474 876.564,-96.7984"/>
<polygon fill="green" stroke="green" stroke-width="0.640756" points="877.636,-93.4576 867.051,-92.9885 875.033,-99.9557 877.636,-93.4576"/>
</g>
<!-- &#45;11 -->
<g id="node11" class="node"><title>&#45;11</title>
<polygon fill="lightgray" stroke="black" points="683.972,-177.874 654.972,-177.874 654.972,-159.874 683.972,-159.874 683.972,-177.874"/>
<text text-anchor="middle" x="669.472" y="-166.674" font-family="Times,serif" font-size="9.00">&#45;11</text>
</g>
<!-- &#45;11&#45;&gt;228 -->
<g id="edge31" class="edge"><title>&#45;11&#45;&gt;228</title>
<path fill="none" stroke="green" stroke-width="0.327389" d="M664.619,-159.617C658.384,-149.01 647.262,-130.088 638.008,-114.345"/>
<polygon fill="green" stroke="green" stroke-width="0.327389" points="640.912,-112.377 632.827,-105.529 634.877,-115.924 640.912,-112.377"/>
</g>
<!-- &#45;12 -->
<g id="node12" class="node"><title>&#45;12</title>
<polygon fill="lightgray" stroke="black" points="703.972,-247.622 674.972,-247.622 674.972,-229.622 703.972,-229.622 703.972,-247.622"/>
<text text-anchor="middle" x="689.472" y="-236.422" font-family="Times,serif" font-size="9.00">&#45;12</text>
</g>
<!-- &#45;13 -->
<g id="node13" class="node"><title>&#45;13</title>
<polygon fill="lightgray" stroke="black" points="750.972,-247.622 721.972,-247.622 721.972,-229.622 750.972,-229.622 750.972,-247.622"/>
<text text-anchor="middle" x="736.472" y="-236.422" font-family="Times,serif" font-size="9.00">&#45;13</text>
</g>
<!-- &#45;14 -->
<g id="node14" class="node"><title>&#45;14</title>
<polygon fill="lightgray" stroke="black" points="115.972,-177.874 86.9717,-177.874 86.9717,-159.874 115.972,-159.874 115.972,-177.874"/>
<text text-anchor="middle" x="101.472" y="-166.674" font-family="Times,serif" font-size="9.00">&#45;14</text>
</g>
<!-- &#45;14&#45;&gt;0 -->
<g id="edge39" class="edge"><title>&#45;14&#45;&gt;0</title>
<path fill="none" stroke="green" stroke-width="0.120658" d="M108.169,-159.758C112.488,-154.847 118.414,-148.675 124.472,-144.125 151.815,-123.589 164.122,-127.248 192.472,-108.125 194.165,-106.983 195.878,-105.741 197.567,-104.454"/>
<polygon fill="green" stroke="green" stroke-width="0.120658" points="200.085,-106.917 205.628,-97.888 195.664,-101.49 200.085,-106.917"/>
</g>
<!-- &#45;14&#45;&gt;1 -->
<g id="edge55" class="edge"><title>&#45;14&#45;&gt;1</title>
<path fill="none" stroke="red" stroke-width="0.307369" d="M107.361,-159.544C111.532,-154.287 117.593,-147.815 124.472,-144.125 172.949,-118.116 339.077,-97.6181 402.547,-90.5613"/>
<polygon fill="red" stroke="red" stroke-width="0.307369" points="403.262,-94.0041 412.822,-89.4373 402.501,-87.0457 403.262,-94.0041"/>
</g>
<!-- &#45;14&#45;&gt;3 -->
<g id="edge20" class="edge"><title>&#45;14&#45;&gt;3</title>
<path fill="none" stroke="green" stroke-width="0.217321" d="M102.269,-159.852C104.693,-140.14 113.871,-89.2296 145.472,-65.6985 209.719,-17.8578 465.994,-15.1741 548.055,-15.5749"/>
<polygon fill="green" stroke="green" stroke-width="0.217321" points="548.207,-19.0759 558.231,-15.6456 548.256,-12.0761 548.207,-19.0759"/>
</g>
<!-- &#45;15 -->
<g id="node15" class="node"><title>&#45;15</title>
<polygon fill="lightgray" stroke="black" points="183.972,-95.9117 154.972,-95.9117 154.972,-77.9117 183.972,-77.9117 183.972,-95.9117"/>
<text text-anchor="middle" x="169.472" y="-84.7117" font-family="Times,serif" font-size="9.00">&#45;15</text>
</g>
<!-- &#45;15&#45;&gt;3 -->
<g id="edge50" class="edge"><title>&#45;15&#45;&gt;3</title>
<path fill="none" stroke="green" stroke-width="0.110105" d="M176.722,-77.502C180.884,-73.2471 186.468,-68.4197 192.472,-65.6985 256.622,-36.6227 474.165,-21.5971 548.404,-17.2255"/>
<polygon fill="green" stroke="green" stroke-width="0.110105" points="548.882,-20.7039 558.664,-16.636 548.48,-13.7154 548.882,-20.7039"/>
</g>
<!-- &#45;16 -->
<g id="node16" class="node"><title>&#45;16</title>
<polygon fill="lightgray" stroke="black" points="499.972,-177.874 470.972,-177.874 470.972,-159.874 499.972,-159.874 499.972,-177.874"/>
<text text-anchor="middle" x="485.472" y="-166.674" font-family="Times,serif" font-size="9.00">&#45;16</text>
</g>
<!-- &#45;16&#45;&gt;1 -->
<g id="edge29" class="edge"><title>&#45;16&#45;&gt;1</title>
<path fill="none" stroke="red" stroke-width="0.520261" d="M479.483,-159.617C470.692,-147.497 454.026,-124.52 441.923,-107.834"/>
<polygon fill="red" stroke="red" stroke-width="0.520261" points="444.452,-105.36 435.747,-99.3205 438.785,-109.47 444.452,-105.36"/>
</g>
<!-- &#45;16&#45;&gt;3 -->
<g id="edge6" class="edge"><title>&#45;16&#45;&gt;3</title>
<path fill="none" stroke="green" stroke-width="0.250199" d="M490.203,-159.7C503.517,-136.7 541.614,-70.8848 561.327,-36.8302"/>
<polygon fill="green" stroke="green" stroke-width="0.250199" points="564.383,-38.5372 566.363,-28.1292 558.325,-35.0303 564.383,-38.5372"/>
</g>
<!-- &#45;17 -->
<g id="node17" class="node"><title>&#45;17</title>
<polygon fill="lightgray" stroke="black" points="636.972,-177.874 607.972,-177.874 607.972,-159.874 636.972,-159.874 636.972,-177.874"/>
<text text-anchor="middle" x="622.472" y="-166.674" font-family="Times,serif" font-size="9.00">&#45;17</text>
</g>
<!-- &#45;17&#45;&gt;0 -->
<g id="edge11" class="edge"><title>&#45;17&#45;&gt;0</title>
<path fill="none" stroke="green" stroke-width="0.235948" d="M616.297,-159.459C611.932,-154.166 605.604,-147.686 598.472,-144.125 566.396,-128.108 321.149,-99.6032 241.423,-90.6685"/>
<polygon fill="green" stroke="green" stroke-width="0.235948" points="241.638,-87.1708 231.312,-89.541 240.862,-94.1277 241.638,-87.1708"/>
</g>
<!-- &#45;17&#45;&gt;1 -->
<g id="edge49" class="edge"><title>&#45;17&#45;&gt;1</title>
<path fill="none" stroke="red" stroke-width="0.208171" d="M616.142,-159.746C611.712,-154.574 605.37,-148.122 598.472,-144.125 546.598,-114.069 524.494,-129.474 468.472,-108.125 462.048,-105.677 455.277,-102.571 449.129,-99.5331"/>
<polygon fill="red" stroke="red" stroke-width="0.208171" points="450.617,-96.3628 440.121,-94.919 447.426,-102.593 450.617,-96.3628"/>
</g>
<!-- &#45;17&#45;&gt;2 -->
<g id="edge22" class="edge"><title>&#45;17&#45;&gt;2</title>
<path fill="none" stroke="red" stroke-width="0.358" d="M628.462,-159.724C632.676,-154.544 638.747,-148.089 645.472,-144.125 705.245,-108.887 787.601,-95.2017 828.432,-90.3362"/>
<polygon fill="red" stroke="red" stroke-width="0.358" points="829.013,-93.7932 838.566,-89.2105 828.24,-86.836 829.013,-93.7932"/>
</g>
<!-- &#45;17&#45;&gt;228 -->
<g id="edge53" class="edge"><title>&#45;17&#45;&gt;228</title>
<path fill="none" stroke="green" stroke-width="0.265915" d="M622.472,-159.617C622.472,-149.985 622.472,-133.495 622.472,-118.755"/>
<polygon fill="green" stroke="green" stroke-width="0.265915" points="625.972,-118.455 622.472,-108.455 618.972,-118.455 625.972,-118.455"/>
</g>
<!-- &#45;18 -->
<g id="node18" class="node"><title>&#45;18</title>
<polygon fill="lightgray" stroke="black" points="252.972,-177.874 223.972,-177.874 223.972,-159.874 252.972,-159.874 252.972,-177.874"/>
<text text-anchor="middle" x="238.472" y="-166.674" font-family="Times,serif" font-size="9.00">&#45;18</text>
</g>
<!-- &#45;18&#45;&gt;0 -->
<g id="edge52" class="edge"><title>&#45;18&#45;&gt;0</title>
<path fill="none" stroke="green" stroke-width="0.303246" d="M236.2,-159.617C233.102,-148.357 227.426,-127.728 222.955,-111.477"/>
<polygon fill="green" stroke="green" stroke-width="0.303246" points="226.258,-110.286 220.23,-101.572 219.508,-112.143 226.258,-110.286"/>
</g>
<!-- &#45;18&#45;&gt;228 -->
<g id="edge25" class="edge"><title>&#45;18&#45;&gt;228</title>
<path fill="none" stroke="red" stroke-width="0.209705" d="M244.641,-159.447C249.004,-154.15 255.331,-147.669 262.472,-144.125 364.205,-93.6273 403.419,-126.671 515.472,-108.125 541.16,-103.873 570.179,-98.3455 591.509,-94.1456"/>
<polygon fill="red" stroke="red" stroke-width="0.209705" points="592.48,-97.5213 601.609,-92.1432 591.119,-90.655 592.48,-97.5213"/>
</g>
<!-- &#45;19 -->
<g id="node19" class="node"><title>&#45;19</title>
<polygon fill="lightgray" stroke="black" points="506.972,-95.9117 477.972,-95.9117 477.972,-77.9117 506.972,-77.9117 506.972,-95.9117"/>
<text text-anchor="middle" x="492.472" y="-84.7117" font-family="Times,serif" font-size="9.00">&#45;19</text>
</g>
<!-- &#45;19&#45;&gt;3 -->
<g id="edge4" class="edge"><title>&#45;19&#45;&gt;3</title>
<path fill="none" stroke="red" stroke-width="0.299821" d="M501.763,-77.8746C514.573,-66.7944 537.952,-46.5723 554.53,-32.2332"/>
<polygon fill="red" stroke="red" stroke-width="0.299821" points="557.214,-34.5397 562.487,-25.3506 552.634,-29.2454 557.214,-34.5397"/>
</g>
<!-- &#45;20 -->
<g id="node20" class="node"><title>&#45;20</title>
<polygon fill="lightgray" stroke="black" points="955.972,-177.874 926.972,-177.874 926.972,-159.874 955.972,-159.874 955.972,-177.874"/>
<text text-anchor="middle" x="941.472" y="-166.674" font-family="Times,serif" font-size="9.00">&#45;20</text>
</g>
<!-- &#45;20&#45;&gt;2 -->
<g id="edge1" class="edge"><title>&#45;20&#45;&gt;2</title>
<path fill="none" stroke="green" stroke-width="0.158723" d="M933.588,-159.837C928.959,-155.179 922.959,-149.242 917.472,-144.125 902.566,-130.226 885.161,-115.001 872.268,-103.906"/>
<polygon fill="green" stroke="green" stroke-width="0.158723" points="874.39,-101.115 864.518,-97.2661 869.835,-106.43 874.39,-101.115"/>
</g>
<!-- &#45;21 -->
<g id="node21" class="node"><title>&#45;21</title>
<polygon fill="lightgray" stroke="black" points="656.972,-247.622 627.972,-247.622 627.972,-229.622 656.972,-229.622 656.972,-247.622"/>
<text text-anchor="middle" x="642.472" y="-236.422" font-family="Times,serif" font-size="9.00">&#45;21</text>
</g>
<!-- &#45;21&#45;&gt;2 -->
<g id="edge45" class="edge"><title>&#45;21&#45;&gt;2</title>
<path fill="none" stroke="green" stroke-width="0.115949" d="M656.983,-232.259C659.78,-231.315 662.701,-230.391 665.472,-229.622 740.732,-208.75 783.817,-250.375 837.472,-193.622 858.04,-171.867 859.041,-135.561 856.967,-111.676"/>
<polygon fill="green" stroke="green" stroke-width="0.115949" points="860.439,-111.226 855.857,-101.673 853.482,-111.998 860.439,-111.226"/>
</g>
<!-- 4327 -->
<g id="node31" class="node"><title>4327</title>
<ellipse fill="white" stroke="black" cx="428.472" cy="-168.874" rx="25" ry="25"/>
<text text-anchor="middle" x="428.472" y="-166.674" font-family="Times,serif" font-size="9.00">4327</text>
</g>
<!-- &#45;21&#45;&gt;4327 -->
<g id="edge23" class="edge"><title>&#45;21&#45;&gt;4327</title>
<path fill="none" stroke="green" stroke-width="0.3" d="M627.767,-235.991C596.106,-232.068 519.643,-220.381 461.472,-193.622 459.644,-192.782 457.814,-191.834 456.006,-190.813"/>
<polygon fill="green" stroke="green" stroke-width="0.3" points="457.565,-187.658 447.245,-185.261 453.818,-193.57 457.565,-187.658"/>
</g>
<!-- &#45;22 -->
<g id="node22" class="node"><title>&#45;22</title>
<polygon fill="lightgray" stroke="black" points="589.972,-177.874 560.972,-177.874 560.972,-159.874 589.972,-159.874 589.972,-177.874"/>
<text text-anchor="middle" x="575.472" y="-166.674" font-family="Times,serif" font-size="9.00">&#45;22</text>
</g>
<!-- &#45;22&#45;&gt;1 -->
<g id="edge14" class="edge"><title>&#45;22&#45;&gt;1</title>
<path fill="none" stroke="red" stroke-width="0.124185" d="M568.545,-159.607C564.062,-154.638 557.881,-148.46 551.472,-144.125 518.165,-121.598 504.959,-125.02 468.472,-108.125 462.233,-105.236 455.522,-101.988 449.373,-98.9546"/>
<polygon fill="red" stroke="red" stroke-width="0.124185" points="450.832,-95.7712 440.32,-94.4466 447.712,-102.037 450.832,-95.7712"/>
</g>
<!-- &#45;22&#45;&gt;228 -->
<g id="edge21" class="edge"><title>&#45;22&#45;&gt;228</title>
<path fill="none" stroke="green" stroke-width="0.240234" d="M580.325,-159.617C586.559,-149.01 597.681,-130.088 606.935,-114.345"/>
<polygon fill="green" stroke="green" stroke-width="0.240234" points="610.067,-115.924 612.116,-105.529 604.032,-112.377 610.067,-115.924"/>
</g>
<!-- &#45;23 -->
<g id="node23" class="node"><title>&#45;23</title>
<polygon fill="lightgray" stroke="black" points="342.972,-177.874 313.972,-177.874 313.972,-159.874 342.972,-159.874 342.972,-177.874"/>
<text text-anchor="middle" x="328.472" y="-166.674" font-family="Times,serif" font-size="9.00">&#45;23</text>
</g>
<!-- &#45;23&#45;&gt;0 -->
<g id="edge2" class="edge"><title>&#45;23&#45;&gt;0</title>
<path fill="none" stroke="red" stroke-width="0.223094" d="M320.868,-159.513C316.333,-154.747 310.333,-148.809 304.472,-144.125 283.127,-127.065 256.411,-110.607 238.048,-99.9565"/>
<polygon fill="red" stroke="red" stroke-width="0.223094" points="239.698,-96.8682 229.279,-94.9438 236.224,-102.945 239.698,-96.8682"/>
</g>
<!-- &#45;23&#45;&gt;1 -->
<g id="edge41" class="edge"><title>&#45;23&#45;&gt;1</title>
<path fill="none" stroke="green" stroke-width="0.14193" d="M336.21,-159.674C340.79,-154.962 346.79,-149.025 352.472,-144.125 370.292,-128.756 391.913,-112.812 407.354,-101.848"/>
<polygon fill="green" stroke="green" stroke-width="0.14193" points="409.489,-104.625 415.655,-96.0093 405.462,-98.8991 409.489,-104.625"/>
</g>
<!-- &#45;23&#45;&gt;2 -->
<g id="edge24" class="edge"><title>&#45;23&#45;&gt;2</title>
<path fill="none" stroke="green" stroke-width="0.167815" d="M334.229,-159.844C338.584,-154.435 345.068,-147.664 352.472,-144.125 363.377,-138.912 728.716,-100.818 828.505,-90.4889"/>
<polygon fill="green" stroke="green" stroke-width="0.167815" points="828.988,-93.9577 838.575,-89.4476 828.268,-86.9948 828.988,-93.9577"/>
</g>
<!-- &#45;23&#45;&gt;3 -->
<g id="edge12" class="edge"><title>&#45;23&#45;&gt;3</title>
<path fill="none" stroke="red" stroke-width="0.211042" d="M332.081,-159.846C341.167,-140.563 366.895,-91.3399 403.472,-65.6985 448.24,-34.3145 512.804,-22.4799 548.086,-18.1774"/>
<polygon fill="red" stroke="red" stroke-width="0.211042" points="548.897,-21.6092 558.451,-17.0299 548.126,-14.6517 548.897,-21.6092"/>
</g>
<!-- &#45;24 -->
<g id="node24" class="node"><title>&#45;24</title>
<polygon fill="lightgray" stroke="black" points="162.972,-177.874 133.972,-177.874 133.972,-159.874 162.972,-159.874 162.972,-177.874"/>
<text text-anchor="middle" x="148.472" y="-166.674" font-family="Times,serif" font-size="9.00">&#45;24</text>
</g>
<!-- &#45;24&#45;&gt;0 -->
<g id="edge46" class="edge"><title>&#45;24&#45;&gt;0</title>
<path fill="none" stroke="green" stroke-width="0.124975" d="M155.493,-159.617C166.011,-147.249 186.144,-123.575 200.394,-106.818"/>
<polygon fill="green" stroke="green" stroke-width="0.124975" points="203.416,-108.667 207.228,-98.7815 198.083,-104.132 203.416,-108.667"/>
</g>
<!-- &#45;24&#45;&gt;1 -->
<g id="edge5" class="edge"><title>&#45;24&#45;&gt;1</title>
<path fill="none" stroke="green" stroke-width="0.172569" d="M154.733,-159.624C159.134,-154.401 165.47,-147.937 172.472,-144.125 249.303,-102.296 355.195,-91.5871 402.681,-88.8496"/>
<polygon fill="green" stroke="green" stroke-width="0.172569" points="402.863,-92.3449 412.674,-88.344 402.509,-85.3539 402.863,-92.3449"/>
</g>
<!-- 0&#45;&gt;0 -->
<g id="edge19" class="edge"><title>0&#45;&gt;0</title>
<path fill="none" stroke="red" stroke-width="0.271292" d="M227.238,-97.6398C237.76,-103.566 249.321,-99.9898 249.321,-86.9117 249.321,-77.9205 243.857,-73.4205 237.023,-73.4117"/>
<polygon fill="red" stroke="red" stroke-width="0.271292" points="235.906,-70.0903 227.238,-76.1835 237.814,-76.8252 235.906,-70.0903"/>
</g>
<!-- 1&#45;&gt;1 -->
<g id="edge17" class="edge"><title>1&#45;&gt;1</title>
<path fill="none" stroke="green" stroke-width="0.100274" d="M438.238,-97.6398C448.76,-103.566 460.321,-99.9898 460.321,-86.9117 460.321,-77.9205 454.857,-73.4205 448.023,-73.4117"/>
<polygon fill="green" stroke="green" stroke-width="0.100274" points="446.906,-70.0903 438.238,-76.1835 448.814,-76.8252 446.906,-70.0903"/>
</g>
<!-- 3&#45;&gt;3 -->
<g id="edge10" class="edge"><title>3&#45;&gt;3</title>
<path fill="none" stroke="red" stroke-width="0.168293" d="M584.238,-25.5774C594.76,-31.5034 606.321,-27.9274 606.321,-14.8492 606.321,-5.85803 600.857,-1.35804 594.023,-1.34926"/>
<polygon fill="red" stroke="red" stroke-width="0.168293" points="592.906,1.97218 584.238,-4.12109 594.814,-4.76277 592.906,1.97218"/>
</g>
<!-- 228&#45;&gt;3 -->
<g id="edge33" class="edge"><title>228&#45;&gt;3</title>
<path fill="none" stroke="red" stroke-width="0.174574" d="M610.61,-68.9515C603.688,-59.0535 594.912,-46.5049 587.629,-36.0917"/>
<polygon fill="red" stroke="red" stroke-width="0.174574" points="590.297,-33.7995 581.697,-27.6107 584.56,-37.8113 590.297,-33.7995"/>
</g>
<!-- 801 -->
<g id="node30" class="node"><title>801</title>
<ellipse fill="white" stroke="black" cx="723.472" cy="-168.874" rx="21.4286" ry="21.4286"/>
<text text-anchor="middle" x="723.472" y="-166.674" font-family="Times,serif" font-size="9.00">801</text>
</g>
<!-- 801&#45;&gt;228 -->
<g id="edge27" class="edge"><title>801&#45;&gt;228</title>
<path fill="none" stroke="green" stroke-width="0.10656" d="M707.244,-155.026C690.9,-142.086 665.486,-121.966 646.744,-107.128"/>
<polygon fill="green" stroke="green" stroke-width="0.10656" points="648.672,-104.19 638.659,-100.727 644.327,-109.678 648.672,-104.19"/>
</g>
<!-- 4327&#45;&gt;1 -->
<g id="edge43" class="edge"><title>4327&#45;&gt;1</title>
<path fill="none" stroke="green" stroke-width="0.419797" d="M428.172,-143.882C428.047,-133.883 427.902,-122.285 427.776,-112.249"/>
<polygon fill="green" stroke="green" stroke-width="0.419797" points="431.274,-112.076 427.649,-102.121 424.275,-112.164 431.274,-112.076"/>
</g>
<!-- 1006&#45;&gt;0 -->
<g id="edge18" class="edge"><title>1006&#45;&gt;0</title>
<path fill="none" stroke="red" stroke-width="0.784055" d="M63.3567,-152.719C67.8157,-149.591 72.6735,-146.524 77.4717,-144.125 125.376,-120.176 145.514,-133.88 192.472,-108.125 194.49,-107.018 196.495,-105.726 198.438,-104.34"/>
<polygon fill="red" stroke="red" stroke-width="0.784055" points="200.79,-106.94 206.39,-97.946 196.403,-101.485 200.79,-106.94"/>
</g>
</g>
</svg>
