<?xml version="1.0" encoding="UTF-8" standalone="no"?>
<!DOCTYPE svg PUBLIC "-//W3C//DTD SVG 1.1//EN"
 "http://www.w3.org/Graphics/SVG/1.1/DTD/svg11.dtd">
<!-- Generated by graphviz version 2.38.0 (20140413.2041)
 -->
<!-- Title: %3 Pages: 1 -->
<svg width="1080pt" height="92pt"
 viewBox="0.00 0.00 1079.50 91.70" xmlns="http://www.w3.org/2000/svg" xmlns:xlink="http://www.w3.org/1999/xlink">
<g id="graph0" class="graph" transform="scale(1 1) rotate(0) translate(4 87.6985)">
<title>%3</title>
<polygon fill="white" stroke="none" points="-4,4 -4,-87.6985 1075.5,-87.6985 1075.5,4 -4,4"/>
<!-- &#45;1 -->
<g id="node1" class="node"><title>&#45;1</title>
<polygon fill="lightgray" stroke="black" points="114,-83.6985 90,-83.6985 90,-65.6985 114,-65.6985 114,-83.6985"/>
<text text-anchor="middle" x="102" y="-72.4985" font-family="Times,serif" font-size="9.00">&#45;1</text>
</g>
<!-- 0 -->
<g id="node25" class="node"><title>0</title>
<ellipse fill="lightblue" stroke="black" cx="356" cy="-14.8492" rx="14.7" ry="14.7"/>
<text text-anchor="middle" x="356" y="-12.6492" font-family="Times,serif" font-size="9.00">0</text>
</g>
<!-- &#45;1&#45;&gt;0 -->
<g id="edge12" class="edge"><title>&#45;1&#45;&gt;0</title>
<path fill="none" stroke="green" stroke-width="1.36233" d="M114.329,-68.6415C117.151,-67.5854 120.157,-66.5389 123,-65.6985 197.63,-43.6414 288.399,-27.0825 331.286,-19.8523"/>
<polygon fill="green" stroke="green" stroke-width="1.36233" points="332.064,-23.271 341.355,-18.1787 330.916,-16.3657 332.064,-23.271"/>
</g>
<!-- 2 -->
<g id="node27" class="node"><title>2</title>
<ellipse fill="lightblue" stroke="black" cx="194" cy="-14.8492" rx="14.7" ry="14.7"/>
<text text-anchor="middle" x="194" y="-12.6492" font-family="Times,serif" font-size="9.00">2</text>
</g>
<!-- &#45;1&#45;&gt;2 -->
<g id="edge23" class="edge"><title>&#45;1&#45;&gt;2</title>
<path fill="none" stroke="green" stroke-width="0.515188" d="M114.027,-66.1357C129.027,-56.7037 154.917,-40.4246 173.169,-28.948"/>
<polygon fill="green" stroke="green" stroke-width="0.515188" points="175.074,-31.8846 181.676,-23.5985 171.347,-25.9587 175.074,-31.8846"/>
</g>
<!-- &#45;2 -->
<g id="node2" class="node"><title>&#45;2</title>
<polygon fill="lightgray" stroke="black" points="525,-83.6985 501,-83.6985 501,-65.6985 525,-65.6985 525,-83.6985"/>
<text text-anchor="middle" x="513" y="-72.4985" font-family="Times,serif" font-size="9.00">&#45;2</text>
</g>
<!-- &#45;2&#45;&gt;0 -->
<g id="edge3" class="edge"><title>&#45;2&#45;&gt;0</title>
<path fill="none" stroke="green" stroke-width="0.124914" d="M500.573,-68.9346C497.757,-67.8633 494.777,-66.7365 492,-65.6985 452.523,-50.9447 406.448,-34.1444 379.333,-24.3"/>
<polygon fill="green" stroke="green" stroke-width="0.124914" points="380.516,-21.0062 369.922,-20.8864 378.129,-27.5867 380.516,-21.0062"/>
</g>
<!-- 3 -->
<g id="node28" class="node"><title>3</title>
<ellipse fill="lightblue" stroke="black" cx="647" cy="-14.8492" rx="14.7" ry="14.7"/>
<text text-anchor="middle" x="647" y="-12.6492" font-family="Times,serif" font-size="9.00">3</text>
</g>
<!-- &#45;2&#45;&gt;3 -->
<g id="edge32" class="edge"><title>&#45;2&#45;&gt;3</title>
<path fill="none" stroke="green" stroke-width="0.527593" d="M525.366,-68.3599C547.854,-58.6518 595.748,-37.9754 624.269,-25.6624"/>
<polygon fill="green" stroke="green" stroke-width="0.527593" points="625.682,-28.8646 633.476,-21.6877 622.908,-22.4379 625.682,-28.8646"/>
</g>
<!-- &#45;3 -->
<g id="node3" class="node"><title>&#45;3</title>
<polygon fill="lightgray" stroke="black" points="567,-83.6985 543,-83.6985 543,-65.6985 567,-65.6985 567,-83.6985"/>
<text text-anchor="middle" x="555" y="-72.4985" font-family="Times,serif" font-size="9.00">&#45;3</text>
</g>
<!-- 1 -->
<g id="node26" class="node"><title>1</title>
<ellipse fill="lightblue" stroke="black" cx="468" cy="-14.8492" rx="14.7" ry="14.7"/>
<text text-anchor="middle" x="468" y="-12.6492" font-family="Times,serif" font-size="9.00">1</text>
</g>
<!-- &#45;3&#45;&gt;1 -->
<g id="edge26" class="edge"><title>&#45;3&#45;&gt;1</title>
<path fill="none" stroke="green" stroke-width="0.201195" d="M542.903,-65.6548C528.879,-56.3294 505.529,-40.8037 488.623,-29.5624"/>
<polygon fill="green" stroke="green" stroke-width="0.201195" points="490.259,-26.4472 479.994,-23.8246 486.383,-32.2762 490.259,-26.4472"/>
</g>
<!-- &#45;4 -->
<g id="node4" class="node"><title>&#45;4</title>
<polygon fill="lightgray" stroke="black" points="435,-83.6985 411,-83.6985 411,-65.6985 435,-65.6985 435,-83.6985"/>
<text text-anchor="middle" x="423" y="-72.4985" font-family="Times,serif" font-size="9.00">&#45;4</text>
</g>
<!-- &#45;4&#45;&gt;0 -->
<g id="edge27" class="edge"><title>&#45;4&#45;&gt;0</title>
<path fill="none" stroke="red" stroke-width="0.185271" d="M413.684,-65.6548C403.655,-56.996 387.436,-42.9914 374.746,-32.0346"/>
<polygon fill="red" stroke="red" stroke-width="0.185271" points="376.873,-29.2475 367.017,-25.3614 372.298,-34.5458 376.873,-29.2475"/>
</g>
<!-- &#45;4&#45;&gt;1 -->
<g id="edge37" class="edge"><title>&#45;4&#45;&gt;1</title>
<path fill="none" stroke="green" stroke-width="0.115143" d="M429.257,-65.6548C435.37,-57.7964 444.908,-45.5348 452.99,-35.1446"/>
<polygon fill="green" stroke="green" stroke-width="0.115143" points="455.953,-37.0367 459.33,-26.9946 450.428,-32.7387 455.953,-37.0367"/>
</g>
<!-- &#45;4&#45;&gt;2 -->
<g id="edge9" class="edge"><title>&#45;4&#45;&gt;2</title>
<path fill="none" stroke="red" stroke-width="0.109278" d="M410.978,-69.0505C407.761,-67.8828 404.269,-66.683 401,-65.6985 335.809,-46.064 257.274,-28.8786 218.341,-20.7817"/>
<polygon fill="red" stroke="red" stroke-width="0.109278" points="218.954,-17.3347 208.454,-18.7445 217.541,-24.1907 218.954,-17.3347"/>
</g>
<!-- &#45;4&#45;&gt;3 -->
<g id="edge13" class="edge"><title>&#45;4&#45;&gt;3</title>
<path fill="none" stroke="green" stroke-width="0.366884" d="M435.348,-68.7047C438.169,-67.6453 441.169,-66.5815 444,-65.6985 507.377,-45.9276 583.841,-28.9571 622.322,-20.8811"/>
<polygon fill="green" stroke="green" stroke-width="0.366884" points="623.479,-24.2156 632.558,-18.7554 622.056,-17.3618 623.479,-24.2156"/>
</g>
<!-- &#45;5 -->
<g id="node5" class="node"><title>&#45;5</title>
<polygon fill="lightgray" stroke="black" points="345,-83.6985 321,-83.6985 321,-65.6985 345,-65.6985 345,-83.6985"/>
<text text-anchor="middle" x="333" y="-72.4985" font-family="Times,serif" font-size="9.00">&#45;5</text>
</g>
<!-- &#45;5&#45;&gt;0 -->
<g id="edge20" class="edge"><title>&#45;5&#45;&gt;0</title>
<path fill="none" stroke="red" stroke-width="0.271822" d="M336.198,-65.6548C338.983,-58.6501 343.159,-48.1471 346.959,-38.5892"/>
<polygon fill="red" stroke="red" stroke-width="0.271822" points="350.267,-39.7429 350.709,-29.1573 343.762,-37.1567 350.267,-39.7429"/>
</g>
<!-- &#45;6 -->
<g id="node6" class="node"><title>&#45;6</title>
<polygon fill="lightgray" stroke="black" points="751,-83.6985 727,-83.6985 727,-65.6985 751,-65.6985 751,-83.6985"/>
<text text-anchor="middle" x="739" y="-72.4985" font-family="Times,serif" font-size="9.00">&#45;6</text>
</g>
<!-- &#45;6&#45;&gt;3 -->
<g id="edge7" class="edge"><title>&#45;6&#45;&gt;3</title>
<path fill="none" stroke="green" stroke-width="0.607618" d="M726.973,-66.1357C711.973,-56.7037 686.083,-40.4246 667.831,-28.948"/>
<polygon fill="green" stroke="green" stroke-width="0.607618" points="669.653,-25.9587 659.324,-23.5985 665.926,-31.8846 669.653,-25.9587"/>
</g>
<!-- &#45;7 -->
<g id="node7" class="node"><title>&#45;7</title>
<polygon fill="lightgray" stroke="black" points="935,-83.6985 911,-83.6985 911,-65.6985 935,-65.6985 935,-83.6985"/>
<text text-anchor="middle" x="923" y="-72.4985" font-family="Times,serif" font-size="9.00">&#45;7</text>
</g>
<!-- &#45;8 -->
<g id="node8" class="node"><title>&#45;8</title>
<polygon fill="lightgray" stroke="black" points="24,-83.6985 0,-83.6985 0,-65.6985 24,-65.6985 24,-83.6985"/>
<text text-anchor="middle" x="12" y="-72.4985" font-family="Times,serif" font-size="9.00">&#45;8</text>
</g>
<!-- &#45;8&#45;&gt;2 -->
<g id="edge16" class="edge"><title>&#45;8&#45;&gt;2</title>
<path fill="none" stroke="red" stroke-width="0.369262" d="M24.3891,-68.8289C27.2074,-67.7631 30.1969,-66.6652 33,-65.6985 81.2132,-49.07 138.407,-31.9767 170.003,-22.7596"/>
<polygon fill="red" stroke="red" stroke-width="0.369262" points="171.059,-26.0975 179.687,-19.9479 169.107,-19.3751 171.059,-26.0975"/>
</g>
<!-- &#45;9 -->
<g id="node9" class="node"><title>&#45;9</title>
<polygon fill="lightgray" stroke="black" points="977,-83.6985 953,-83.6985 953,-65.6985 977,-65.6985 977,-83.6985"/>
<text text-anchor="middle" x="965" y="-72.4985" font-family="Times,serif" font-size="9.00">&#45;9</text>
</g>
<!-- &#45;10 -->
<g id="node10" class="node"><title>&#45;10</title>
<polygon fill="lightgray" stroke="black" points="161.5,-83.6985 132.5,-83.6985 132.5,-65.6985 161.5,-65.6985 161.5,-83.6985"/>
<text text-anchor="middle" x="147" y="-72.4985" font-family="Times,serif" font-size="9.00">&#45;10</text>
</g>
<!-- &#45;10&#45;&gt;0 -->
<g id="edge18" class="edge"><title>&#45;10&#45;&gt;0</title>
<path fill="none" stroke="green" stroke-width="0.198598" d="M161.548,-68.4589C164.341,-67.5039 167.252,-66.5434 170,-65.6985 227.339,-48.0685 295.679,-30.6623 331.427,-21.8278"/>
<polygon fill="green" stroke="green" stroke-width="0.198598" points="332.551,-25.1558 341.427,-19.3704 330.881,-18.358 332.551,-25.1558"/>
</g>
<!-- &#45;10&#45;&gt;2 -->
<g id="edge2" class="edge"><title>&#45;10&#45;&gt;2</title>
<path fill="none" stroke="green" stroke-width="0.279489" d="M153.535,-65.6548C159.984,-57.7178 170.081,-45.2891 178.576,-34.8334"/>
<polygon fill="green" stroke="green" stroke-width="0.279489" points="181.356,-36.9629 184.945,-26.9946 175.923,-32.5489 181.356,-36.9629"/>
</g>
<!-- &#45;11 -->
<g id="node11" class="node"><title>&#45;11</title>
<polygon fill="lightgray" stroke="black" points="302.5,-83.6985 273.5,-83.6985 273.5,-65.6985 302.5,-65.6985 302.5,-83.6985"/>
<text text-anchor="middle" x="288" y="-72.4985" font-family="Times,serif" font-size="9.00">&#45;11</text>
</g>
<!-- &#45;11&#45;&gt;2 -->
<g id="edge35" class="edge"><title>&#45;11&#45;&gt;2</title>
<path fill="none" stroke="red" stroke-width="0.236234" d="M274.93,-65.6548C259.394,-56.0937 233.267,-40.0148 214.911,-28.7182"/>
<polygon fill="red" stroke="red" stroke-width="0.236234" points="216.712,-25.7171 206.361,-23.4566 213.043,-31.6786 216.712,-25.7171"/>
</g>
<!-- &#45;11&#45;&gt;3 -->
<g id="edge24" class="edge"><title>&#45;11&#45;&gt;3</title>
<path fill="none" stroke="green" stroke-width="0.124097" d="M302.606,-68.3808C305.68,-67.3886 308.924,-66.434 312,-65.6985 426.196,-38.3891 566.069,-23.3534 622.079,-18.06"/>
<polygon fill="green" stroke="green" stroke-width="0.124097" points="622.495,-21.5365 632.131,-17.1305 621.851,-14.5663 622.495,-21.5365"/>
</g>
<!-- &#45;12 -->
<g id="node12" class="node"><title>&#45;12</title>
<polygon fill="lightgray" stroke="black" points="798.5,-83.6985 769.5,-83.6985 769.5,-65.6985 798.5,-65.6985 798.5,-83.6985"/>
<text text-anchor="middle" x="784" y="-72.4985" font-family="Times,serif" font-size="9.00">&#45;12</text>
</g>
<!-- &#45;12&#45;&gt;3 -->
<g id="edge31" class="edge"><title>&#45;12&#45;&gt;3</title>
<path fill="none" stroke="red" stroke-width="0.632397" d="M769.339,-67.5076C745.485,-57.4353 698.102,-37.4274 669.817,-25.4837"/>
<polygon fill="red" stroke="red" stroke-width="0.632397" points="670.913,-22.1473 660.339,-21.4816 668.19,-28.596 670.913,-22.1473"/>
</g>
<!-- &#45;13 -->
<g id="node13" class="node"><title>&#45;13</title>
<polygon fill="lightgray" stroke="black" points="614.5,-83.6985 585.5,-83.6985 585.5,-65.6985 614.5,-65.6985 614.5,-83.6985"/>
<text text-anchor="middle" x="600" y="-72.4985" font-family="Times,serif" font-size="9.00">&#45;13</text>
</g>
<!-- &#45;13&#45;&gt;1 -->
<g id="edge28" class="edge"><title>&#45;13&#45;&gt;1</title>
<path fill="none" stroke="red" stroke-width="0.281286" d="M585.369,-67.2866C562.513,-57.2699 518.148,-37.8266 490.991,-25.925"/>
<polygon fill="red" stroke="red" stroke-width="0.281286" points="492.07,-22.5766 481.506,-21.7683 489.26,-28.988 492.07,-22.5766"/>
</g>
<!-- &#45;14 -->
<g id="node14" class="node"><title>&#45;14</title>
<polygon fill="lightgray" stroke="black" points="845.5,-83.6985 816.5,-83.6985 816.5,-65.6985 845.5,-65.6985 845.5,-83.6985"/>
<text text-anchor="middle" x="831" y="-72.4985" font-family="Times,serif" font-size="9.00">&#45;14</text>
</g>
<!-- &#45;14&#45;&gt;3 -->
<g id="edge21" class="edge"><title>&#45;14&#45;&gt;3</title>
<path fill="none" stroke="green" stroke-width="0.755766" d="M816.425,-68.5441C813.634,-67.5811 810.731,-66.596 808,-65.6985 759.549,-49.7767 702.441,-32.4277 670.924,-22.9756"/>
<polygon fill="green" stroke="green" stroke-width="0.755766" points="671.85,-19.5994 661.267,-20.0863 669.844,-26.3057 671.85,-19.5994"/>
</g>
<!-- &#45;15 -->
<g id="node15" class="node"><title>&#45;15</title>
<polygon fill="lightgray" stroke="black" points="71.5,-83.6985 42.5,-83.6985 42.5,-65.6985 71.5,-65.6985 71.5,-83.6985"/>
<text text-anchor="middle" x="57" y="-72.4985" font-family="Times,serif" font-size="9.00">&#45;15</text>
</g>
<!-- &#45;15&#45;&gt;2 -->
<g id="edge8" class="edge"><title>&#45;15&#45;&gt;2</title>
<path fill="none" stroke="green" stroke-width="0.165447" d="M71.6614,-67.5076C95.5148,-57.4353 142.898,-37.4274 171.183,-25.4837"/>
<polygon fill="green" stroke="green" stroke-width="0.165447" points="172.81,-28.596 180.661,-21.4816 170.087,-22.1473 172.81,-28.596"/>
</g>
<!-- &#45;16 -->
<g id="node16" class="node"><title>&#45;16</title>
<polygon fill="lightgray" stroke="black" points="661.5,-83.6985 632.5,-83.6985 632.5,-65.6985 661.5,-65.6985 661.5,-83.6985"/>
<text text-anchor="middle" x="647" y="-72.4985" font-family="Times,serif" font-size="9.00">&#45;16</text>
</g>
<!-- &#45;16&#45;&gt;0 -->
<g id="edge15" class="edge"><title>&#45;16&#45;&gt;0</title>
<path fill="none" stroke="red" stroke-width="0.501484" d="M632.007,-68.1193C629.36,-67.2392 626.615,-66.3923 624,-65.6985 577.803,-53.4428 437.671,-29.4947 380.591,-19.934"/>
<polygon fill="red" stroke="red" stroke-width="0.501484" points="381.077,-16.4667 370.637,-18.2717 379.924,-23.3711 381.077,-16.4667"/>
</g>
<!-- &#45;16&#45;&gt;1 -->
<g id="edge25" class="edge"><title>&#45;16&#45;&gt;1</title>
<path fill="none" stroke="red" stroke-width="0.217236" d="M632.418,-68.564C629.628,-67.5992 626.727,-66.6083 624,-65.6985 577.436,-50.1635 522.727,-32.9102 492.037,-23.3216"/>
<polygon fill="red" stroke="red" stroke-width="0.217236" points="492.824,-19.9009 482.236,-20.265 490.74,-26.5835 492.824,-19.9009"/>
</g>
<!-- &#45;16&#45;&gt;3 -->
<g id="edge6" class="edge"><title>&#45;16&#45;&gt;3</title>
<path fill="none" stroke="red" stroke-width="0.589684" d="M647,-65.6548C647,-59.0498 647,-49.3344 647,-40.2339"/>
<polygon fill="red" stroke="red" stroke-width="0.589684" points="650.5,-40.0563 647,-30.0563 643.5,-40.0564 650.5,-40.0563"/>
</g>
<!-- &#45;17 -->
<g id="node17" class="node"><title>&#45;17</title>
<polygon fill="lightgray" stroke="black" points="255.5,-83.6985 226.5,-83.6985 226.5,-65.6985 255.5,-65.6985 255.5,-83.6985"/>
<text text-anchor="middle" x="241" y="-72.4985" font-family="Times,serif" font-size="9.00">&#45;17</text>
</g>
<!-- &#45;17&#45;&gt;1 -->
<g id="edge36" class="edge"><title>&#45;17&#45;&gt;1</title>
<path fill="none" stroke="red" stroke-width="0.350629" d="M255.533,-68.4095C258.328,-67.459 261.243,-66.5128 264,-65.6985 327.966,-46.8051 404.688,-29.458 443.268,-21.0955"/>
<polygon fill="red" stroke="red" stroke-width="0.350629" points="444.489,-24.4131 453.529,-18.8889 443.017,-17.5696 444.489,-24.4131"/>
</g>
<!-- &#45;17&#45;&gt;2 -->
<g id="edge22" class="edge"><title>&#45;17&#45;&gt;2</title>
<path fill="none" stroke="red" stroke-width="0.143708" d="M234.465,-65.6548C228.016,-57.7178 217.919,-45.2891 209.424,-34.8334"/>
<polygon fill="red" stroke="red" stroke-width="0.143708" points="212.077,-32.5489 203.055,-26.9946 206.644,-36.9629 212.077,-32.5489"/>
</g>
<!-- &#45;18 -->
<g id="node18" class="node"><title>&#45;18</title>
<polygon fill="lightgray" stroke="black" points="1024.5,-83.6985 995.5,-83.6985 995.5,-65.6985 1024.5,-65.6985 1024.5,-83.6985"/>
<text text-anchor="middle" x="1010" y="-72.4985" font-family="Times,serif" font-size="9.00">&#45;18</text>
</g>
<!-- &#45;19 -->
<g id="node19" class="node"><title>&#45;19</title>
<polygon fill="lightgray" stroke="black" points="892.5,-83.6985 863.5,-83.6985 863.5,-65.6985 892.5,-65.6985 892.5,-83.6985"/>
<text text-anchor="middle" x="878" y="-72.4985" font-family="Times,serif" font-size="9.00">&#45;19</text>
</g>
<!-- &#45;19&#45;&gt;3 -->
<g id="edge4" class="edge"><title>&#45;19&#45;&gt;3</title>
<path fill="none" stroke="green" stroke-width="0.122962" d="M863.47,-68.3996C860.675,-67.45 857.759,-66.5067 855,-65.6985 789.364,-46.4703 710.506,-29.1066 671.427,-20.8776"/>
<polygon fill="green" stroke="green" stroke-width="0.122962" points="672.008,-17.4235 661.504,-18.8049 670.577,-24.2757 672.008,-17.4235"/>
</g>
<!-- &#45;20 -->
<g id="node20" class="node"><title>&#45;20</title>
<polygon fill="lightgray" stroke="black" points="482.5,-83.6985 453.5,-83.6985 453.5,-65.6985 482.5,-65.6985 482.5,-83.6985"/>
<text text-anchor="middle" x="468" y="-72.4985" font-family="Times,serif" font-size="9.00">&#45;20</text>
</g>
<!-- &#45;20&#45;&gt;1 -->
<g id="edge29" class="edge"><title>&#45;20&#45;&gt;1</title>
<path fill="none" stroke="green" stroke-width="0.669536" d="M468,-65.6548C468,-59.0498 468,-49.3344 468,-40.2339"/>
<polygon fill="green" stroke="green" stroke-width="0.669536" points="471.5,-40.0563 468,-30.0563 464.5,-40.0564 471.5,-40.0563"/>
</g>
<!-- &#45;20&#45;&gt;2 -->
<g id="edge1" class="edge"><title>&#45;20&#45;&gt;2</title>
<path fill="none" stroke="green" stroke-width="0.138855" d="M453.365,-68.4975C450.292,-67.4968 447.057,-66.5093 444,-65.6985 362.392,-44.0518 263.583,-26.985 218.527,-19.693"/>
<polygon fill="green" stroke="green" stroke-width="0.138855" points="218.946,-16.2156 208.518,-18.0916 217.84,-23.1277 218.946,-16.2156"/>
</g>
<!-- &#45;20&#45;&gt;3 -->
<g id="edge11" class="edge"><title>&#45;20&#45;&gt;3</title>
<path fill="none" stroke="green" stroke-width="0.463293" d="M482.715,-68.7661C485.782,-67.7459 488.995,-66.6826 492,-65.6985 538.378,-50.5114 592.697,-33.1367 623.153,-23.4322"/>
<polygon fill="green" stroke="green" stroke-width="0.463293" points="624.412,-26.7047 632.879,-20.3356 622.288,-20.0346 624.412,-26.7047"/>
</g>
<!-- &#45;21 -->
<g id="node21" class="node"><title>&#45;21</title>
<polygon fill="lightgray" stroke="black" points="208.5,-83.6985 179.5,-83.6985 179.5,-65.6985 208.5,-65.6985 208.5,-83.6985"/>
<text text-anchor="middle" x="194" y="-72.4985" font-family="Times,serif" font-size="9.00">&#45;21</text>
</g>
<!-- &#45;21&#45;&gt;0 -->
<g id="edge14" class="edge"><title>&#45;21&#45;&gt;0</title>
<path fill="none" stroke="red" stroke-width="0.683411" d="M208.662,-68.4627C236.755,-58.431 298.387,-36.4226 332.362,-24.2904"/>
<polygon fill="red" stroke="red" stroke-width="0.683411" points="333.709,-27.5256 341.95,-20.8664 331.355,-20.9333 333.709,-27.5256"/>
</g>
<!-- &#45;21&#45;&gt;1 -->
<g id="edge10" class="edge"><title>&#45;21&#45;&gt;1</title>
<path fill="none" stroke="green" stroke-width="0.262091" d="M208.505,-68.312C211.303,-67.3704 214.226,-66.4525 217,-65.6985 298.787,-43.4683 398.064,-26.6876 443.346,-19.5794"/>
<polygon fill="green" stroke="green" stroke-width="0.262091" points="444.06,-23.0107 453.406,-18.0208 442.988,-16.0932 444.06,-23.0107"/>
</g>
<!-- &#45;21&#45;&gt;2 -->
<g id="edge33" class="edge"><title>&#45;21&#45;&gt;2</title>
<path fill="none" stroke="green" stroke-width="0.156764" d="M194,-65.6548C194,-59.0498 194,-49.3344 194,-40.2339"/>
<polygon fill="green" stroke="green" stroke-width="0.156764" points="197.5,-40.0563 194,-30.0563 190.5,-40.0564 197.5,-40.0563"/>
</g>
<!-- &#45;22 -->
<g id="node22" class="node"><title>&#45;22</title>
<polygon fill="lightgray" stroke="black" points="1071.5,-83.6985 1042.5,-83.6985 1042.5,-65.6985 1071.5,-65.6985 1071.5,-83.6985"/>
<text text-anchor="middle" x="1057" y="-72.4985" font-family="Times,serif" font-size="9.00">&#45;22</text>
</g>
<!-- &#45;23 -->
<g id="node23" class="node"><title>&#45;23</title>
<polygon fill="lightgray" stroke="black" points="708.5,-83.6985 679.5,-83.6985 679.5,-65.6985 708.5,-65.6985 708.5,-83.6985"/>
<text text-anchor="middle" x="694" y="-72.4985" font-family="Times,serif" font-size="9.00">&#45;23</text>
</g>
<!-- &#45;23&#45;&gt;1 -->
<g id="edge30" class="edge"><title>&#45;23&#45;&gt;1</title>
<path fill="none" stroke="red" stroke-width="0.237213" d="M679.466,-68.4121C676.672,-67.4613 673.757,-66.5144 671,-65.6985 607.34,-46.8563 530.998,-29.4872 492.609,-21.108"/>
<polygon fill="red" stroke="red" stroke-width="0.237213" points="492.913,-17.5928 482.399,-18.8967 491.431,-24.4342 492.913,-17.5928"/>
</g>
<!-- &#45;24 -->
<g id="node24" class="node"><title>&#45;24</title>
<polygon fill="lightgray" stroke="black" points="392.5,-83.6985 363.5,-83.6985 363.5,-65.6985 392.5,-65.6985 392.5,-83.6985"/>
<text text-anchor="middle" x="378" y="-72.4985" font-family="Times,serif" font-size="9.00">&#45;24</text>
</g>
<!-- &#45;24&#45;&gt;0 -->
<g id="edge34" class="edge"><title>&#45;24&#45;&gt;0</title>
<path fill="none" stroke="red" stroke-width="0.424842" d="M374.941,-65.6548C372.277,-58.6501 368.283,-48.1471 364.648,-38.5892"/>
<polygon fill="red" stroke="red" stroke-width="0.424842" points="367.887,-37.2601 361.061,-29.1573 361.344,-39.7484 367.887,-37.2601"/>
</g>
<!-- &#45;24&#45;&gt;1 -->
<g id="edge5" class="edge"><title>&#45;24&#45;&gt;1</title>
<path fill="none" stroke="red" stroke-width="0.227362" d="M390.514,-65.6548C405.239,-56.1902 429.9,-40.3388 447.444,-29.0619"/>
<polygon fill="red" stroke="red" stroke-width="0.227362" points="449.36,-31.9911 455.88,-23.6398 445.575,-26.1026 449.36,-31.9911"/>
</g>
<!-- 1&#45;&gt;1 -->
<g id="edge19" class="edge"><title>1&#45;&gt;1</title>
<path fill="none" stroke="green" stroke-width="0.243453" d="M479.788,-23.9294C490.022,-28.0713 500.849,-25.0446 500.849,-14.8492 500.849,-7.99927 495.962,-4.3853 489.65,-4.00735"/>
<polygon fill="green" stroke="green" stroke-width="0.243453" points="489.016,-0.565092 479.788,-5.76904 490.247,-7.45602 489.016,-0.565092"/>
</g>
<!-- 2&#45;&gt;2 -->
<g id="edge17" class="edge"><title>2&#45;&gt;2</title>
<path fill="none" stroke="red" stroke-width="0.250852" d="M205.788,-23.9294C216.022,-28.0713 226.849,-25.0446 226.849,-14.8492 226.849,-7.99927 221.962,-4.3853 215.65,-4.00735"/>
<polygon fill="red" stroke="red" stroke-width="0.250852" points="215.016,-0.565092 205.788,-5.76904 216.247,-7.45602 215.016,-0.565092"/>
</g>
</g>
</svg>
