<?xml version="1.0" encoding="UTF-8" standalone="no"?>
<!DOCTYPE svg PUBLIC "-//W3C//DTD SVG 1.1//EN"
 "http://www.w3.org/Graphics/SVG/1.1/DTD/svg11.dtd">
<!-- Generated by graphviz version 2.38.0 (20140413.2041)
 -->
<!-- Title: %3 Pages: 1 -->
<svg width="1403pt" height="177pt"
 viewBox="0.00 0.00 1403.00 177.20" xmlns="http://www.w3.org/2000/svg" xmlns:xlink="http://www.w3.org/1999/xlink">
<g id="graph0" class="graph" transform="scale(1 1) rotate(0) translate(4 173.196)">
<title>%3</title>
<polygon fill="white" stroke="none" points="-4,4 -4,-173.196 1399,-173.196 1399,4 -4,4"/>
<!-- &#45;1 -->
<g id="node1" class="node"><title>&#45;1</title>
<polygon fill="lightgray" stroke="black" points="323.5,-99.4472 299.5,-99.4472 299.5,-81.4472 323.5,-81.4472 323.5,-99.4472"/>
<text text-anchor="middle" x="311.5" y="-88.2472" font-family="Times,serif" font-size="9.00">&#45;1</text>
</g>
<!-- 0 -->
<g id="node25" class="node"><title>0</title>
<ellipse fill="lightblue" stroke="black" cx="419.5" cy="-14.8492" rx="14.7" ry="14.7"/>
<text text-anchor="middle" x="419.5" y="-12.6492" font-family="Times,serif" font-size="9.00">0</text>
</g>
<!-- &#45;1&#45;&gt;0 -->
<g id="edge16" class="edge"><title>&#45;1&#45;&gt;0</title>
<path fill="none" stroke="green" stroke-width="1.21892" d="M317.543,-81.3586C321.46,-76.4573 326.867,-70.2866 332.5,-65.6985 352.636,-49.2973 378.849,-35.0827 397.218,-26.0762"/>
<polygon fill="green" stroke="green" stroke-width="1.21892" points="398.77,-29.214 406.281,-21.7423 395.75,-22.8989 398.77,-29.214"/>
</g>
<!-- &#45;2 -->
<g id="node2" class="node"><title>&#45;2</title>
<polygon fill="lightgray" stroke="black" points="197.5,-169.196 173.5,-169.196 173.5,-151.196 197.5,-151.196 197.5,-169.196"/>
<text text-anchor="middle" x="185.5" y="-157.996" font-family="Times,serif" font-size="9.00">&#45;2</text>
</g>
<!-- &#45;2&#45;&gt;0 -->
<g id="edge3" class="edge"><title>&#45;2&#45;&gt;0</title>
<path fill="none" stroke="red" stroke-width="0.403987" d="M188.141,-151.03C194.457,-132.817 212.207,-88.676 242.5,-65.6985 288.371,-30.905 357.454,-20.3944 394.279,-17.2207"/>
<polygon fill="red" stroke="red" stroke-width="0.403987" points="394.898,-20.6845 404.611,-16.4526 394.379,-13.7038 394.898,-20.6845"/>
</g>
<!-- 3 -->
<g id="node28" class="node"><title>3</title>
<ellipse fill="lightblue" stroke="black" cx="223.5" cy="-14.8492" rx="14.7" ry="14.7"/>
<text text-anchor="middle" x="223.5" y="-12.6492" font-family="Times,serif" font-size="9.00">3</text>
</g>
<!-- &#45;2&#45;&gt;3 -->
<g id="edge38" class="edge"><title>&#45;2&#45;&gt;3</title>
<path fill="none" stroke="red" stroke-width="0.495189" d="M173.313,-158.478C149.822,-156.361 98.6435,-148.014 76.5,-115.196 64.1956,-96.9599 63.6834,-83.5782 76.5,-65.6985 104.409,-26.7644 164.437,-17.8649 198.522,-16.0618"/>
<polygon fill="red" stroke="red" stroke-width="0.495189" points="198.737,-19.5564 208.603,-15.6966 198.483,-12.561 198.737,-19.5564"/>
</g>
<!-- 3271 -->
<g id="node29" class="node"><title>3271</title>
<ellipse fill="white" stroke="black" cx="670.5" cy="-90.4472" rx="25" ry="25"/>
<text text-anchor="middle" x="670.5" y="-88.2472" font-family="Times,serif" font-size="9.00">3271</text>
</g>
<!-- &#45;2&#45;&gt;3271 -->
<g id="edge13" class="edge"><title>&#45;2&#45;&gt;3271</title>
<path fill="none" stroke="green" stroke-width="0.419686" d="M197.903,-158.833C261.635,-156.842 552.545,-146.174 636.5,-115.196 638.64,-114.406 640.772,-113.448 642.864,-112.375"/>
<polygon fill="green" stroke="green" stroke-width="0.419686" points="644.897,-115.238 651.688,-107.106 641.308,-109.228 644.897,-115.238"/>
</g>
<!-- &#45;3 -->
<g id="node3" class="node"><title>&#45;3</title>
<polygon fill="lightgray" stroke="black" points="1174.5,-169.196 1150.5,-169.196 1150.5,-151.196 1174.5,-151.196 1174.5,-169.196"/>
<text text-anchor="middle" x="1162.5" y="-157.996" font-family="Times,serif" font-size="9.00">&#45;3</text>
</g>
<!-- &#45;4 -->
<g id="node4" class="node"><title>&#45;4</title>
<polygon fill="lightgray" stroke="black" points="627.5,-99.4472 603.5,-99.4472 603.5,-81.4472 627.5,-81.4472 627.5,-99.4472"/>
<text text-anchor="middle" x="615.5" y="-88.2472" font-family="Times,serif" font-size="9.00">&#45;4</text>
</g>
<!-- &#45;4&#45;&gt;0 -->
<g id="edge31" class="edge"><title>&#45;4&#45;&gt;0</title>
<path fill="none" stroke="green" stroke-width="0.122923" d="M610.158,-81.3144C606.364,-76.1411 600.833,-69.688 594.5,-65.6985 546.537,-35.4861 479.834,-23.1362 444.226,-18.4515"/>
<polygon fill="green" stroke="green" stroke-width="0.122923" points="444.578,-14.9687 434.228,-17.2324 443.731,-21.9172 444.578,-14.9687"/>
</g>
<!-- 1 -->
<g id="node26" class="node"><title>1</title>
<ellipse fill="lightblue" stroke="black" cx="727.5" cy="-14.8492" rx="14.7" ry="14.7"/>
<text text-anchor="middle" x="727.5" y="-12.6492" font-family="Times,serif" font-size="9.00">1</text>
</g>
<!-- &#45;4&#45;&gt;1 -->
<g id="edge43" class="edge"><title>&#45;4&#45;&gt;1</title>
<path fill="none" stroke="green" stroke-width="0.425638" d="M621.512,-81.3205C625.418,-76.4048 630.823,-70.2324 636.5,-65.6985 657.715,-48.7539 685.494,-34.4819 704.753,-25.6093"/>
<polygon fill="green" stroke="green" stroke-width="0.425638" points="706.276,-28.7622 713.968,-21.4761 703.412,-22.3752 706.276,-28.7622"/>
</g>
<!-- 2 -->
<g id="node27" class="node"><title>2</title>
<ellipse fill="lightblue" stroke="black" cx="995.5" cy="-14.8492" rx="14.7" ry="14.7"/>
<text text-anchor="middle" x="995.5" y="-12.6492" font-family="Times,serif" font-size="9.00">2</text>
</g>
<!-- &#45;4&#45;&gt;2 -->
<g id="edge11" class="edge"><title>&#45;4&#45;&gt;2</title>
<path fill="none" stroke="red" stroke-width="0.13104" d="M620.669,-81.017C624.389,-75.7181 629.904,-69.2368 636.5,-65.6985 694.661,-34.4996 898.566,-20.959 970.303,-17.0864"/>
<polygon fill="red" stroke="red" stroke-width="0.13104" points="970.836,-20.5635 980.639,-16.5467 970.471,-13.573 970.836,-20.5635"/>
</g>
<!-- &#45;4&#45;&gt;3 -->
<g id="edge18" class="edge"><title>&#45;4&#45;&gt;3</title>
<path fill="none" stroke="green" stroke-width="0.48567" d="M610.336,-81.0074C606.618,-75.7045 601.104,-69.2222 594.5,-65.6985 563.965,-49.4053 327.357,-25.7109 248.775,-18.2146"/>
<polygon fill="green" stroke="green" stroke-width="0.48567" points="248.657,-14.6878 238.371,-17.229 247.996,-21.6566 248.657,-14.6878"/>
</g>
<!-- &#45;5 -->
<g id="node5" class="node"><title>&#45;5</title>
<polygon fill="lightgray" stroke="black" points="365.5,-99.4472 341.5,-99.4472 341.5,-81.4472 365.5,-81.4472 365.5,-99.4472"/>
<text text-anchor="middle" x="353.5" y="-88.2472" font-family="Times,serif" font-size="9.00">&#45;5</text>
</g>
<!-- &#45;5&#45;&gt;0 -->
<g id="edge24" class="edge"><title>&#45;5&#45;&gt;0</title>
<path fill="none" stroke="green" stroke-width="0.273328" d="M360.865,-81.0757C364.884,-76.5187 369.953,-70.7878 374.5,-65.6985 383.873,-55.2082 394.406,-43.533 402.925,-34.1201"/>
<polygon fill="green" stroke="green" stroke-width="0.273328" points="405.692,-36.2782 409.812,-26.5172 400.505,-31.5786 405.692,-36.2782"/>
</g>
<!-- &#45;6 -->
<g id="node6" class="node"><title>&#45;6</title>
<polygon fill="lightgray" stroke="black" points="157.5,-99.4472 133.5,-99.4472 133.5,-81.4472 157.5,-81.4472 157.5,-99.4472"/>
<text text-anchor="middle" x="145.5" y="-88.2472" font-family="Times,serif" font-size="9.00">&#45;6</text>
</g>
<!-- &#45;6&#45;&gt;3 -->
<g id="edge8" class="edge"><title>&#45;6&#45;&gt;3</title>
<path fill="none" stroke="green" stroke-width="0.545542" d="M154.145,-81.2897C166.553,-69.5824 189.688,-47.7533 205.81,-32.5405"/>
<polygon fill="green" stroke="green" stroke-width="0.545542" points="208.213,-35.0857 213.084,-25.6772 203.409,-29.9944 208.213,-35.0857"/>
</g>
<!-- &#45;7 -->
<g id="node7" class="node"><title>&#45;7</title>
<polygon fill="lightgray" stroke="black" points="1216.5,-169.196 1192.5,-169.196 1192.5,-151.196 1216.5,-151.196 1216.5,-169.196"/>
<text text-anchor="middle" x="1204.5" y="-157.996" font-family="Times,serif" font-size="9.00">&#45;7</text>
</g>
<!-- &#45;8 -->
<g id="node8" class="node"><title>&#45;8</title>
<polygon fill="lightgray" stroke="black" points="1258.5,-169.196 1234.5,-169.196 1234.5,-151.196 1258.5,-151.196 1258.5,-169.196"/>
<text text-anchor="middle" x="1246.5" y="-157.996" font-family="Times,serif" font-size="9.00">&#45;8</text>
</g>
<!-- &#45;9 -->
<g id="node9" class="node"><title>&#45;9</title>
<polygon fill="lightgray" stroke="black" points="1300.5,-169.196 1276.5,-169.196 1276.5,-151.196 1300.5,-151.196 1300.5,-169.196"/>
<text text-anchor="middle" x="1288.5" y="-157.996" font-family="Times,serif" font-size="9.00">&#45;9</text>
</g>
<!-- &#45;10 -->
<g id="node10" class="node"><title>&#45;10</title>
<polygon fill="lightgray" stroke="black" points="742,-99.4472 713,-99.4472 713,-81.4472 742,-81.4472 742,-99.4472"/>
<text text-anchor="middle" x="727.5" y="-88.2472" font-family="Times,serif" font-size="9.00">&#45;10</text>
</g>
<!-- &#45;10&#45;&gt;0 -->
<g id="edge42" class="edge"><title>&#45;10&#45;&gt;0</title>
<path fill="none" stroke="green" stroke-width="0.446779" d="M721.623,-81.0939C717.458,-75.8276 711.397,-69.3535 704.5,-65.6985 617.459,-19.5747 496.524,-14.8641 444.705,-15.1844"/>
<polygon fill="green" stroke="green" stroke-width="0.446779" points="444.407,-11.688 434.455,-15.3218 444.501,-18.6874 444.407,-11.688"/>
</g>
<!-- &#45;10&#45;&gt;1 -->
<g id="edge14" class="edge"><title>&#45;10&#45;&gt;1</title>
<path fill="none" stroke="red" stroke-width="0.224315" d="M727.5,-81.2897C727.5,-71.3882 727.5,-54.2466 727.5,-39.9908"/>
<polygon fill="red" stroke="red" stroke-width="0.224315" points="731,-39.8196 727.5,-29.8196 724,-39.8196 731,-39.8196"/>
</g>
<!-- &#45;10&#45;&gt;2 -->
<g id="edge2" class="edge"><title>&#45;10&#45;&gt;2</title>
<path fill="none" stroke="green" stroke-width="0.148017" d="M733.742,-81.1616C738.135,-75.9238 744.469,-69.4562 751.5,-65.6985 824.244,-26.8199 924.069,-18.2035 970.217,-16.3367"/>
<polygon fill="green" stroke="green" stroke-width="0.148017" points="970.612,-19.8257 980.492,-15.9994 970.382,-12.8295 970.612,-19.8257"/>
</g>
<!-- &#45;11 -->
<g id="node11" class="node"><title>&#45;11</title>
<polygon fill="lightgray" stroke="black" points="499,-99.4472 470,-99.4472 470,-81.4472 499,-81.4472 499,-99.4472"/>
<text text-anchor="middle" x="484.5" y="-88.2472" font-family="Times,serif" font-size="9.00">&#45;11</text>
</g>
<!-- &#45;11&#45;&gt;2 -->
<g id="edge41" class="edge"><title>&#45;11&#45;&gt;2</title>
<path fill="none" stroke="red" stroke-width="0.133592" d="M499.19,-82.7096C511.752,-77.242 530.451,-69.7921 547.5,-65.6985 705.36,-27.7941 901.566,-18.587 970.307,-16.458"/>
<polygon fill="red" stroke="red" stroke-width="0.133592" points="970.678,-19.949 980.573,-16.1646 970.477,-12.9518 970.678,-19.949"/>
</g>
<!-- &#45;11&#45;&gt;3 -->
<g id="edge29" class="edge"><title>&#45;11&#45;&gt;3</title>
<path fill="none" stroke="green" stroke-width="0.423687" d="M469.899,-83.4017C457.235,-78.289 438.343,-70.9745 421.5,-65.6985 359.924,-46.4102 285.807,-29.3481 248.116,-21.0985"/>
<polygon fill="green" stroke="green" stroke-width="0.423687" points="248.581,-17.6181 238.067,-18.9195 247.098,-24.4591 248.581,-17.6181"/>
</g>
<!-- &#45;12 -->
<g id="node12" class="node"><title>&#45;12</title>
<polygon fill="lightgray" stroke="black" points="29,-99.4472 0,-99.4472 0,-81.4472 29,-81.4472 29,-99.4472"/>
<text text-anchor="middle" x="14.5" y="-88.2472" font-family="Times,serif" font-size="9.00">&#45;12</text>
</g>
<!-- &#45;12&#45;&gt;3 -->
<g id="edge37" class="edge"><title>&#45;12&#45;&gt;3</title>
<path fill="none" stroke="red" stroke-width="0.468917" d="M22.4628,-81.3691C27.9489,-76.219 35.6424,-69.771 43.5,-65.6985 95.1587,-38.9244 162.833,-25.1928 198.692,-19.3741"/>
<polygon fill="red" stroke="red" stroke-width="0.468917" points="199.4,-22.8063 208.746,-17.8167 198.328,-15.8888 199.4,-22.8063"/>
</g>
<!-- &#45;13 -->
<g id="node13" class="node"><title>&#45;13</title>
<polygon fill="lightgray" stroke="black" points="903,-99.4472 874,-99.4472 874,-81.4472 903,-81.4472 903,-99.4472"/>
<text text-anchor="middle" x="888.5" y="-88.2472" font-family="Times,serif" font-size="9.00">&#45;13</text>
</g>
<!-- &#45;13&#45;&gt;1 -->
<g id="edge33" class="edge"><title>&#45;13&#45;&gt;1</title>
<path fill="none" stroke="red" stroke-width="0.237944" d="M882.017,-81.025C877.778,-75.9981 871.862,-69.8126 865.5,-65.6985 829.462,-42.3938 781.089,-28.1731 752.225,-21.1732"/>
<polygon fill="red" stroke="red" stroke-width="0.237944" points="752.716,-17.6944 742.184,-18.8402 751.132,-24.5127 752.716,-17.6944"/>
</g>
<!-- &#45;14 -->
<g id="node14" class="node"><title>&#45;14</title>
<polygon fill="lightgray" stroke="black" points="115,-99.4472 86,-99.4472 86,-81.4472 115,-81.4472 115,-99.4472"/>
<text text-anchor="middle" x="100.5" y="-88.2472" font-family="Times,serif" font-size="9.00">&#45;14</text>
</g>
<!-- &#45;14&#45;&gt;3 -->
<g id="edge26" class="edge"><title>&#45;14&#45;&gt;3</title>
<path fill="none" stroke="green" stroke-width="1.1481" d="M107.516,-81.3083C112.033,-76.388 118.217,-70.215 124.5,-65.6985 148.67,-48.3229 179.777,-33.7449 200.613,-24.9277"/>
<polygon fill="green" stroke="green" stroke-width="1.1481" points="202.034,-28.1274 209.941,-21.075 199.362,-21.6575 202.034,-28.1274"/>
</g>
<!-- &#45;15 -->
<g id="node15" class="node"><title>&#45;15</title>
<polygon fill="lightgray" stroke="black" points="1075,-99.4472 1046,-99.4472 1046,-81.4472 1075,-81.4472 1075,-99.4472"/>
<text text-anchor="middle" x="1060.5" y="-88.2472" font-family="Times,serif" font-size="9.00">&#45;15</text>
</g>
<!-- &#45;15&#45;&gt;2 -->
<g id="edge10" class="edge"><title>&#45;15&#45;&gt;2</title>
<path fill="none" stroke="red" stroke-width="0.184152" d="M1053.3,-81.2897C1043.37,-70.0479 1025.2,-49.4731 1011.87,-34.3854"/>
<polygon fill="red" stroke="red" stroke-width="0.184152" points="1014.29,-31.8404 1005.05,-26.6619 1009.05,-36.4742 1014.29,-31.8404"/>
</g>
<!-- &#45;16 -->
<g id="node16" class="node"><title>&#45;16</title>
<polygon fill="lightgray" stroke="black" points="413,-99.4472 384,-99.4472 384,-81.4472 413,-81.4472 413,-99.4472"/>
<text text-anchor="middle" x="398.5" y="-88.2472" font-family="Times,serif" font-size="9.00">&#45;16</text>
</g>
<!-- &#45;16&#45;&gt;0 -->
<g id="edge21" class="edge"><title>&#45;16&#45;&gt;0</title>
<path fill="none" stroke="green" stroke-width="0.181833" d="M400.828,-81.2897C403.715,-71.1707 408.76,-53.4899 412.878,-39.0555"/>
<polygon fill="green" stroke="green" stroke-width="0.181833" points="416.291,-39.8499 415.67,-29.2734 409.56,-37.9292 416.291,-39.8499"/>
</g>
<!-- &#45;16&#45;&gt;1 -->
<g id="edge30" class="edge"><title>&#45;16&#45;&gt;1</title>
<path fill="none" stroke="green" stroke-width="0.559994" d="M413.028,-83.0205C425.435,-77.7426 443.861,-70.3966 460.5,-65.6985 548.071,-40.9725 655.33,-25.1988 702.838,-18.9302"/>
<polygon fill="green" stroke="green" stroke-width="0.559994" points="703.347,-22.3936 712.815,-17.6386 702.449,-15.4515 703.347,-22.3936"/>
</g>
<!-- &#45;16&#45;&gt;3 -->
<g id="edge6" class="edge"><title>&#45;16&#45;&gt;3</title>
<path fill="none" stroke="red" stroke-width="0.630562" d="M392.105,-81.4291C387.647,-76.3043 381.298,-69.862 374.5,-65.6985 333.855,-40.8066 279.356,-26.8168 248.174,-20.3455"/>
<polygon fill="red" stroke="red" stroke-width="0.630562" points="248.668,-16.8754 238.178,-18.3645 247.307,-23.7418 248.668,-16.8754"/>
</g>
<!-- &#45;17 -->
<g id="node17" class="node"><title>&#45;17</title>
<polygon fill="lightgray" stroke="black" points="989,-99.4472 960,-99.4472 960,-81.4472 989,-81.4472 989,-99.4472"/>
<text text-anchor="middle" x="974.5" y="-88.2472" font-family="Times,serif" font-size="9.00">&#45;17</text>
</g>
<!-- &#45;17&#45;&gt;1 -->
<g id="edge12" class="edge"><title>&#45;17&#45;&gt;1</title>
<path fill="none" stroke="green" stroke-width="0.259808" d="M966.597,-81.251C961.136,-76.0509 953.448,-69.5917 945.5,-65.6985 880.368,-33.7943 794.211,-21.9081 752.394,-17.8135"/>
<polygon fill="green" stroke="green" stroke-width="0.259808" points="752.569,-14.3151 742.293,-16.8938 751.934,-21.2862 752.569,-14.3151"/>
</g>
<!-- &#45;17&#45;&gt;2 -->
<g id="edge27" class="edge"><title>&#45;17&#45;&gt;2</title>
<path fill="none" stroke="green" stroke-width="0.254372" d="M976.828,-81.2897C979.715,-71.1707 984.76,-53.4899 988.878,-39.0555"/>
<polygon fill="green" stroke="green" stroke-width="0.254372" points="992.291,-39.8499 991.67,-29.2734 985.56,-37.9292 992.291,-39.8499"/>
</g>
<!-- &#45;18 -->
<g id="node18" class="node"><title>&#45;18</title>
<polygon fill="lightgray" stroke="black" points="1348,-169.196 1319,-169.196 1319,-151.196 1348,-151.196 1348,-169.196"/>
<text text-anchor="middle" x="1333.5" y="-157.996" font-family="Times,serif" font-size="9.00">&#45;18</text>
</g>
<!-- &#45;19 -->
<g id="node19" class="node"><title>&#45;19</title>
<polygon fill="lightgray" stroke="black" points="281,-99.4472 252,-99.4472 252,-81.4472 281,-81.4472 281,-99.4472"/>
<text text-anchor="middle" x="266.5" y="-88.2472" font-family="Times,serif" font-size="9.00">&#45;19</text>
</g>
<!-- &#45;19&#45;&gt;0 -->
<g id="edge34" class="edge"><title>&#45;19&#45;&gt;0</title>
<path fill="none" stroke="red" stroke-width="0.114499" d="M273.366,-81.0885C277.826,-76.0855 284.004,-69.9028 290.5,-65.6985 323.953,-44.0459 368.25,-29.5165 395.27,-21.9749"/>
<polygon fill="red" stroke="red" stroke-width="0.114499" points="396.305,-25.3209 405.051,-19.3407 394.485,-18.5617 396.305,-25.3209"/>
</g>
<!-- &#45;19&#45;&gt;1 -->
<g id="edge25" class="edge"><title>&#45;19&#45;&gt;1</title>
<path fill="none" stroke="red" stroke-width="0.289643" d="M272.259,-81.4222C276.615,-76.0149 283.099,-69.2448 290.5,-65.6985 364.236,-30.365 620.423,-19.2627 702.201,-16.5773"/>
<polygon fill="red" stroke="red" stroke-width="0.289643" points="702.453,-20.0712 712.338,-16.2588 702.233,-13.0747 702.453,-20.0712"/>
</g>
<!-- &#45;19&#45;&gt;3 -->
<g id="edge4" class="edge"><title>&#45;19&#45;&gt;3</title>
<path fill="none" stroke="red" stroke-width="0.228946" d="M261.734,-81.2897C255.528,-70.6672 244.453,-51.7116 235.814,-36.9263"/>
<polygon fill="red" stroke="red" stroke-width="0.228946" points="238.632,-34.8106 230.565,-27.9419 232.588,-38.3419 238.632,-34.8106"/>
</g>
<!-- &#45;20 -->
<g id="node20" class="node"><title>&#45;20</title>
<polygon fill="lightgray" stroke="black" points="846,-169.196 817,-169.196 817,-151.196 846,-151.196 846,-169.196"/>
<text text-anchor="middle" x="831.5" y="-157.996" font-family="Times,serif" font-size="9.00">&#45;20</text>
</g>
<!-- &#45;20&#45;&gt;0 -->
<g id="edge28" class="edge"><title>&#45;20&#45;&gt;0</title>
<path fill="none" stroke="green" stroke-width="0.119227" d="M816.642,-159.376C754.736,-159.839 517.87,-158.693 460.5,-115.196 436.754,-97.1922 426.679,-62.9866 422.46,-39.8014"/>
<polygon fill="green" stroke="green" stroke-width="0.119227" points="425.885,-39.0529 420.864,-29.7231 418.971,-40.1474 425.885,-39.0529"/>
</g>
<!-- &#45;20&#45;&gt;1 -->
<g id="edge35" class="edge"><title>&#45;20&#45;&gt;1</title>
<path fill="none" stroke="green" stroke-width="0.172742" d="M846.068,-156.083C865.216,-151.122 898.101,-139.403 912.5,-115.196 923.746,-96.2889 925.88,-83.1608 912.5,-65.6985 893.021,-40.2764 798.173,-24.8944 752.362,-18.8321"/>
<polygon fill="green" stroke="green" stroke-width="0.172742" points="752.717,-15.349 742.354,-17.5534 751.829,-22.2926 752.717,-15.349"/>
</g>
<!-- &#45;20&#45;&gt;2 -->
<g id="edge1" class="edge"><title>&#45;20&#45;&gt;2</title>
<path fill="none" stroke="red" stroke-width="0.193513" d="M846.237,-157.584C883.469,-153.176 979.695,-139.598 998.5,-115.196 1015.16,-93.5838 1010.09,-60.7672 1003.78,-38.8331"/>
<polygon fill="red" stroke="red" stroke-width="0.193513" points="1007.04,-37.5108 1000.68,-29.0364 1000.36,-39.6266 1007.04,-37.5108"/>
</g>
<!-- &#45;20&#45;&gt;3 -->
<g id="edge15" class="edge"><title>&#45;20&#45;&gt;3</title>
<path fill="none" stroke="green" stroke-width="0.145943" d="M816.729,-159.145C729.75,-158.71 286.651,-154.564 242.5,-115.196 221.681,-96.6322 219.383,-62.857 220.637,-39.8943"/>
<polygon fill="green" stroke="green" stroke-width="0.145943" points="224.127,-40.1498 221.441,-29.9014 217.15,-39.5886 224.127,-40.1498"/>
</g>
<!-- 2583 -->
<g id="node30" class="node"><title>2583</title>
<ellipse fill="white" stroke="black" cx="831.5" cy="-90.4472" rx="25" ry="25"/>
<text text-anchor="middle" x="831.5" y="-88.2472" font-family="Times,serif" font-size="9.00">2583</text>
</g>
<!-- &#45;20&#45;&gt;2583 -->
<g id="edge32" class="edge"><title>&#45;20&#45;&gt;2583</title>
<path fill="none" stroke="green" stroke-width="0.449135" d="M831.5,-151.158C831.5,-144.723 831.5,-135.225 831.5,-125.689"/>
<polygon fill="green" stroke="green" stroke-width="0.449135" points="835,-125.468 831.5,-115.468 828,-125.469 835,-125.468"/>
</g>
<!-- &#45;21 -->
<g id="node21" class="node"><title>&#45;21</title>
<polygon fill="lightgray" stroke="black" points="1132,-169.196 1103,-169.196 1103,-151.196 1132,-151.196 1132,-169.196"/>
<text text-anchor="middle" x="1117.5" y="-157.996" font-family="Times,serif" font-size="9.00">&#45;21</text>
</g>
<!-- &#45;21&#45;&gt;0 -->
<g id="edge19" class="edge"><title>&#45;21&#45;&gt;0</title>
<path fill="none" stroke="red" stroke-width="0.681472" d="M1102.89,-158.767C1018.74,-156.201 597.903,-142.097 547.5,-115.196 522.792,-102.009 529.794,-83.891 508.5,-65.6985 488.298,-48.4387 461.206,-34.2875 442.239,-25.5297"/>
<polygon fill="red" stroke="red" stroke-width="0.681472" points="443.444,-22.2347 432.887,-21.3436 440.584,-28.6238 443.444,-22.2347"/>
</g>
<!-- &#45;21&#45;&gt;2 -->
<g id="edge39" class="edge"><title>&#45;21&#45;&gt;2</title>
<path fill="none" stroke="red" stroke-width="0.546758" d="M1126.47,-151.135C1134.78,-143.008 1146.57,-129.631 1151.5,-115.196 1158.61,-94.3766 1164.47,-83.4644 1151.5,-65.6985 1121.41,-24.4968 1056.86,-16.563 1020.94,-15.5027"/>
<polygon fill="red" stroke="red" stroke-width="0.546758" points="1020.83,-12.0009 1010.78,-15.3651 1020.73,-19.0003 1020.83,-12.0009"/>
</g>
<!-- 2330 -->
<g id="node31" class="node"><title>2330</title>
<ellipse fill="white" stroke="black" cx="1117.5" cy="-90.4472" rx="25" ry="25"/>
<text text-anchor="middle" x="1117.5" y="-88.2472" font-family="Times,serif" font-size="9.00">2330</text>
</g>
<!-- &#45;21&#45;&gt;2330 -->
<g id="edge20" class="edge"><title>&#45;21&#45;&gt;2330</title>
<path fill="none" stroke="red" stroke-width="0.197298" d="M1117.5,-151.158C1117.5,-144.723 1117.5,-135.225 1117.5,-125.689"/>
<polygon fill="red" stroke="red" stroke-width="0.197298" points="1121,-125.468 1117.5,-115.468 1114,-125.469 1121,-125.468"/>
</g>
<!-- &#45;22 -->
<g id="node22" class="node"><title>&#45;22</title>
<polygon fill="lightgray" stroke="black" points="1395,-169.196 1366,-169.196 1366,-151.196 1395,-151.196 1395,-169.196"/>
<text text-anchor="middle" x="1380.5" y="-157.996" font-family="Times,serif" font-size="9.00">&#45;22</text>
</g>
<!-- &#45;23 -->
<g id="node23" class="node"><title>&#45;23</title>
<polygon fill="lightgray" stroke="black" points="789,-99.4472 760,-99.4472 760,-81.4472 789,-81.4472 789,-99.4472"/>
<text text-anchor="middle" x="774.5" y="-88.2472" font-family="Times,serif" font-size="9.00">&#45;23</text>
</g>
<!-- &#45;23&#45;&gt;1 -->
<g id="edge36" class="edge"><title>&#45;23&#45;&gt;1</title>
<path fill="none" stroke="red" stroke-width="0.348793" d="M769.291,-81.2897C762.403,-70.504 750.029,-51.1274 740.527,-36.248"/>
<polygon fill="red" stroke="red" stroke-width="0.348793" points="743.388,-34.226 735.056,-27.6817 737.489,-37.9935 743.388,-34.226"/>
</g>
<!-- &#45;24 -->
<g id="node24" class="node"><title>&#45;24</title>
<polygon fill="lightgray" stroke="black" points="585,-99.4472 556,-99.4472 556,-81.4472 585,-81.4472 585,-99.4472"/>
<text text-anchor="middle" x="570.5" y="-88.2472" font-family="Times,serif" font-size="9.00">&#45;24</text>
</g>
<!-- &#45;24&#45;&gt;0 -->
<g id="edge40" class="edge"><title>&#45;24&#45;&gt;0</title>
<path fill="none" stroke="red" stroke-width="0.187393" d="M561.874,-81.2224C556.36,-76.2697 548.881,-70.093 541.5,-65.6985 509.361,-46.5629 468.519,-31.5387 443.195,-23.1783"/>
<polygon fill="red" stroke="red" stroke-width="0.187393" points="444.266,-19.8463 433.675,-20.1088 442.118,-26.5086 444.266,-19.8463"/>
</g>
<!-- &#45;24&#45;&gt;1 -->
<g id="edge5" class="edge"><title>&#45;24&#45;&gt;1</title>
<path fill="none" stroke="red" stroke-width="0.319747" d="M577.351,-81.0653C581.806,-76.0535 587.983,-69.8698 594.5,-65.6985 629.153,-43.5179 675.133,-29.0746 702.954,-21.705"/>
<polygon fill="red" stroke="red" stroke-width="0.319747" points="704.179,-25.0047 713.004,-19.1426 702.45,-18.2217 704.179,-25.0047"/>
</g>
<!-- 1&#45;&gt;1 -->
<g id="edge23" class="edge"><title>1&#45;&gt;1</title>
<path fill="none" stroke="green" stroke-width="0.429981" d="M737.928,-25.6755C748.539,-32.0439 760.349,-28.4352 760.349,-14.8492 760.349,-5.50891 754.767,-0.884351 747.83,-0.975566"/>
<polygon fill="green" stroke="green" stroke-width="0.429981" points="746.456,2.26363 737.928,-4.02295 748.515,-4.42672 746.456,2.26363"/>
</g>
<!-- 2&#45;&gt;2 -->
<g id="edge22" class="edge"><title>2&#45;&gt;2</title>
<path fill="none" stroke="red" stroke-width="0.370464" d="M1005.93,-25.6755C1016.54,-32.0439 1028.35,-28.4352 1028.35,-14.8492 1028.35,-5.50891 1022.77,-0.884351 1015.83,-0.975566"/>
<polygon fill="red" stroke="red" stroke-width="0.370464" points="1014.46,2.26363 1005.93,-4.02295 1016.51,-4.42672 1014.46,2.26363"/>
</g>
<!-- 3271&#45;&gt;1 -->
<g id="edge17" class="edge"><title>3271&#45;&gt;1</title>
<path fill="none" stroke="green" stroke-width="0.181136" d="M685.179,-70.4939C693.612,-59.6053 704.175,-45.9661 712.639,-35.0382"/>
<polygon fill="green" stroke="green" stroke-width="0.181136" points="715.539,-37.009 718.895,-26.9598 710.005,-32.7228 715.539,-37.009"/>
</g>
<!-- 2583&#45;&gt;1 -->
<g id="edge7" class="edge"><title>2583&#45;&gt;1</title>
<path fill="none" stroke="red" stroke-width="0.473868" d="M811.633,-75.0931C807.311,-71.9859 802.757,-68.7248 798.5,-65.6985 781.583,-53.6728 762.304,-40.1484 748.109,-30.224"/>
<polygon fill="red" stroke="red" stroke-width="0.473868" points="749.793,-27.131 739.59,-24.274 745.784,-32.8697 749.793,-27.131"/>
</g>
<!-- 2330&#45;&gt;2 -->
<g id="edge9" class="edge"><title>2330&#45;&gt;2</title>
<path fill="none" stroke="red" stroke-width="0.508963" d="M1097.86,-74.7595C1093.52,-71.673 1088.91,-68.5048 1084.5,-65.6985 1062.22,-51.5035 1035.68,-36.9237 1017.41,-27.2284"/>
<polygon fill="red" stroke="red" stroke-width="0.508963" points="1018.92,-24.0656 1008.44,-22.5049 1015.66,-30.2599 1018.92,-24.0656"/>
</g>
</g>
</svg>
