<?xml version="1.0" encoding="UTF-8" standalone="no"?>
<!DOCTYPE svg PUBLIC "-//W3C//DTD SVG 1.1//EN"
 "http://www.w3.org/Graphics/SVG/1.1/DTD/svg11.dtd">
<!-- Generated by graphviz version 2.38.0 (20140413.2041)
 -->
<!-- Title: %3 Pages: 1 -->
<svg width="985pt" height="170pt"
 viewBox="0.00 0.00 985.00 170.12" xmlns="http://www.w3.org/2000/svg" xmlns:xlink="http://www.w3.org/1999/xlink">
<g id="graph0" class="graph" transform="scale(1 1) rotate(0) translate(4 166.125)">
<title>%3</title>
<polygon fill="white" stroke="none" points="-4,4 -4,-166.125 981,-166.125 981,4 -4,4"/>
<!-- &#45;1 -->
<g id="node1" class="node"><title>&#45;1</title>
<polygon fill="lightgray" stroke="black" points="203.5,-162.125 179.5,-162.125 179.5,-144.125 203.5,-144.125 203.5,-162.125"/>
<text text-anchor="middle" x="191.5" y="-150.925" font-family="Times,serif" font-size="9.00">&#45;1</text>
</g>
<!-- 1 -->
<g id="node26" class="node"><title>1</title>
<ellipse fill="lightblue" stroke="black" cx="525.5" cy="-86.9117" rx="14.7" ry="14.7"/>
<text text-anchor="middle" x="525.5" y="-84.7117" font-family="Times,serif" font-size="9.00">1</text>
</g>
<!-- &#45;1&#45;&gt;1 -->
<g id="edge25" class="edge"><title>&#45;1&#45;&gt;1</title>
<path fill="none" stroke="green" stroke-width="0.481263" d="M203.79,-146.928C206.614,-145.879 209.63,-144.871 212.5,-144.125 319.868,-116.211 351.26,-132.439 459.5,-108.125 473.841,-104.903 489.591,-100.129 502.108,-96.0288"/>
<polygon fill="green" stroke="green" stroke-width="0.481263" points="503.391,-99.2902 511.759,-92.7924 501.165,-92.6534 503.391,-99.2902"/>
</g>
<!-- 228 -->
<g id="node29" class="node"><title>228</title>
<ellipse fill="white" stroke="black" cx="191.5" cy="-86.9117" rx="21.4286" ry="21.4286"/>
<text text-anchor="middle" x="191.5" y="-84.7117" font-family="Times,serif" font-size="9.00">228</text>
</g>
<!-- &#45;1&#45;&gt;228 -->
<g id="edge34" class="edge"><title>&#45;1&#45;&gt;228</title>
<path fill="none" stroke="red" stroke-width="0.407139" d="M191.5,-143.992C191.5,-137.449 191.5,-127.82 191.5,-118.381"/>
<polygon fill="red" stroke="red" stroke-width="0.407139" points="195,-118.367 191.5,-108.367 188,-118.367 195,-118.367"/>
</g>
<!-- &#45;2 -->
<g id="node2" class="node"><title>&#45;2</title>
<polygon fill="lightgray" stroke="black" points="382.5,-162.125 358.5,-162.125 358.5,-144.125 382.5,-144.125 382.5,-162.125"/>
<text text-anchor="middle" x="370.5" y="-150.925" font-family="Times,serif" font-size="9.00">&#45;2</text>
</g>
<!-- &#45;2&#45;&gt;1 -->
<g id="edge10" class="edge"><title>&#45;2&#45;&gt;1</title>
<path fill="none" stroke="green" stroke-width="0.779535" d="M382.663,-147.086C408.533,-136.369 469.371,-111.165 502.694,-97.3596"/>
<polygon fill="green" stroke="green" stroke-width="0.779535" points="504.184,-100.531 512.083,-93.4699 501.505,-94.0638 504.184,-100.531"/>
</g>
<!-- 2 -->
<g id="node27" class="node"><title>2</title>
<ellipse fill="lightblue" stroke="black" cx="350.5" cy="-86.9117" rx="14.7" ry="14.7"/>
<text text-anchor="middle" x="350.5" y="-84.7117" font-family="Times,serif" font-size="9.00">2</text>
</g>
<!-- &#45;2&#45;&gt;2 -->
<g id="edge24" class="edge"><title>&#45;2&#45;&gt;2</title>
<path fill="none" stroke="green" stroke-width="0.185751" d="M367.967,-143.992C365.424,-135.827 361.384,-122.857 357.83,-111.445"/>
<polygon fill="green" stroke="green" stroke-width="0.185751" points="361.075,-110.093 354.759,-101.586 354.391,-112.175 361.075,-110.093"/>
</g>
<!-- 3 -->
<g id="node28" class="node"><title>3</title>
<ellipse fill="lightblue" stroke="black" cx="350.5" cy="-14.8492" rx="14.7" ry="14.7"/>
<text text-anchor="middle" x="350.5" y="-12.6492" font-family="Times,serif" font-size="9.00">3</text>
</g>
<!-- &#45;2&#45;&gt;3 -->
<g id="edge42" class="edge"><title>&#45;2&#45;&gt;3</title>
<path fill="none" stroke="green" stroke-width="0.34036" d="M372.328,-143.893C375.458,-128.372 380.916,-93.8154 374.5,-65.6985 372.233,-55.7648 367.724,-45.5044 363.22,-36.8936"/>
<polygon fill="green" stroke="green" stroke-width="0.34036" points="366.179,-35.0132 358.257,-27.9781 360.063,-38.4179 366.179,-35.0132"/>
</g>
<!-- &#45;3 -->
<g id="node3" class="node"><title>&#45;3</title>
<polygon fill="lightgray" stroke="black" points="608.5,-162.125 584.5,-162.125 584.5,-144.125 608.5,-144.125 608.5,-162.125"/>
<text text-anchor="middle" x="596.5" y="-150.925" font-family="Times,serif" font-size="9.00">&#45;3</text>
</g>
<!-- 0 -->
<g id="node25" class="node"><title>0</title>
<ellipse fill="lightblue" stroke="black" cx="660.5" cy="-86.9117" rx="14.7" ry="14.7"/>
<text text-anchor="middle" x="660.5" y="-84.7117" font-family="Times,serif" font-size="9.00">0</text>
</g>
<!-- &#45;3&#45;&gt;0 -->
<g id="edge46" class="edge"><title>&#45;3&#45;&gt;0</title>
<path fill="none" stroke="red" stroke-width="0.182268" d="M604.606,-143.992C614.188,-134.378 630.41,-118.101 642.918,-105.552"/>
<polygon fill="red" stroke="red" stroke-width="0.182268" points="645.552,-107.867 650.133,-98.3134 640.594,-102.925 645.552,-107.867"/>
</g>
<!-- &#45;3&#45;&gt;1 -->
<g id="edge28" class="edge"><title>&#45;3&#45;&gt;1</title>
<path fill="none" stroke="red" stroke-width="0.14788" d="M587.508,-143.992C576.528,-134.062 557.688,-117.023 543.649,-104.326"/>
<polygon fill="red" stroke="red" stroke-width="0.14788" points="545.798,-101.55 536.034,-97.4384 541.103,-106.742 545.798,-101.55"/>
</g>
<!-- &#45;3&#45;&gt;228 -->
<g id="edge35" class="edge"><title>&#45;3&#45;&gt;228</title>
<path fill="none" stroke="red" stroke-width="0.144802" d="M584.23,-146.848C581.405,-145.803 578.383,-144.817 575.5,-144.125 429.888,-109.183 385.622,-145.049 240.5,-108.125 233.549,-106.356 226.289,-103.791 219.552,-101.078"/>
<polygon fill="red" stroke="red" stroke-width="0.144802" points="220.725,-97.7737 210.153,-97.0737 217.981,-104.213 220.725,-97.7737"/>
</g>
<!-- &#45;4 -->
<g id="node4" class="node"><title>&#45;4</title>
<polygon fill="lightgray" stroke="black" points="929.5,-162.125 905.5,-162.125 905.5,-144.125 929.5,-144.125 929.5,-162.125"/>
<text text-anchor="middle" x="917.5" y="-150.925" font-family="Times,serif" font-size="9.00">&#45;4</text>
</g>
<!-- &#45;4&#45;&gt;0 -->
<g id="edge32" class="edge"><title>&#45;4&#45;&gt;0</title>
<path fill="none" stroke="red" stroke-width="0.159957" d="M905.156,-147.116C902.336,-146.058 899.334,-144.998 896.5,-144.125 820.432,-120.685 728.061,-101.218 684.912,-92.6326"/>
<polygon fill="red" stroke="red" stroke-width="0.159957" points="685.531,-89.1873 675.043,-90.6885 684.178,-96.0553 685.531,-89.1873"/>
</g>
<!-- &#45;5 -->
<g id="node5" class="node"><title>&#45;5</title>
<polygon fill="lightgray" stroke="black" points="340.5,-162.125 316.5,-162.125 316.5,-144.125 340.5,-144.125 340.5,-162.125"/>
<text text-anchor="middle" x="328.5" y="-150.925" font-family="Times,serif" font-size="9.00">&#45;5</text>
</g>
<!-- &#45;5&#45;&gt;0 -->
<g id="edge18" class="edge"><title>&#45;5&#45;&gt;0</title>
<path fill="none" stroke="green" stroke-width="0.248069" d="M340.801,-146.968C343.624,-145.917 346.638,-144.898 349.5,-144.125 444.303,-118.517 471.045,-126.559 567.5,-108.125 590.943,-103.644 617.541,-97.7845 636.269,-93.5284"/>
<polygon fill="green" stroke="green" stroke-width="0.248069" points="637.082,-96.933 646.048,-91.2892 635.519,-90.1096 637.082,-96.933"/>
</g>
<!-- &#45;5&#45;&gt;2 -->
<g id="edge52" class="edge"><title>&#45;5&#45;&gt;2</title>
<path fill="none" stroke="green" stroke-width="0.198076" d="M331.286,-143.992C334.148,-135.64 338.733,-122.258 342.706,-110.661"/>
<polygon fill="green" stroke="green" stroke-width="0.198076" points="346.051,-111.695 345.982,-101.1 339.429,-109.426 346.051,-111.695"/>
</g>
<!-- &#45;5&#45;&gt;3 -->
<g id="edge36" class="edge"><title>&#45;5&#45;&gt;3</title>
<path fill="none" stroke="red" stroke-width="0.207401" d="M326.985,-143.888C324.42,-128.361 320.089,-93.7928 326.5,-65.6985 328.767,-55.7648 333.276,-45.5044 337.78,-36.8936"/>
<polygon fill="red" stroke="red" stroke-width="0.207401" points="340.937,-38.4179 342.743,-27.9781 334.821,-35.0132 340.937,-38.4179"/>
</g>
<!-- &#45;6 -->
<g id="node6" class="node"><title>&#45;6</title>
<polygon fill="lightgray" stroke="black" points="566.5,-162.125 542.5,-162.125 542.5,-144.125 566.5,-144.125 566.5,-162.125"/>
<text text-anchor="middle" x="554.5" y="-150.925" font-family="Times,serif" font-size="9.00">&#45;6</text>
</g>
<!-- &#45;6&#45;&gt;1 -->
<g id="edge38" class="edge"><title>&#45;6&#45;&gt;1</title>
<path fill="none" stroke="red" stroke-width="0.303902" d="M550.827,-143.992C546.969,-135.45 540.736,-121.647 535.418,-109.873"/>
<polygon fill="red" stroke="red" stroke-width="0.303902" points="538.545,-108.293 531.239,-100.62 532.165,-111.174 538.545,-108.293"/>
</g>
<!-- &#45;7 -->
<g id="node7" class="node"><title>&#45;7</title>
<polygon fill="lightgray" stroke="black" points="71.5,-162.125 47.5,-162.125 47.5,-144.125 71.5,-144.125 71.5,-162.125"/>
<text text-anchor="middle" x="59.5" y="-150.925" font-family="Times,serif" font-size="9.00">&#45;7</text>
</g>
<!-- &#45;7&#45;&gt;2 -->
<g id="edge33" class="edge"><title>&#45;7&#45;&gt;2</title>
<path fill="none" stroke="green" stroke-width="0.111931" d="M71.8059,-146.986C74.6285,-145.934 77.6408,-144.91 80.5,-144.125 170.545,-119.39 196.825,-130.442 287.5,-108.125 300.785,-104.855 315.346,-100.252 327.12,-96.2647"/>
<polygon fill="green" stroke="green" stroke-width="0.111931" points="328.341,-99.5458 336.646,-92.9678 326.051,-92.9307 328.341,-99.5458"/>
</g>
<!-- &#45;7&#45;&gt;3 -->
<g id="edge16" class="edge"><title>&#45;7&#45;&gt;3</title>
<path fill="none" stroke="red" stroke-width="0.352702" d="M62.8056,-143.917C70.2704,-126.495 90.1794,-85.7727 120.5,-65.6985 185.197,-22.8649 280.475,-16.1491 325.361,-15.5364"/>
<polygon fill="red" stroke="red" stroke-width="0.352702" points="325.652,-19.0353 335.637,-15.4939 325.623,-12.0354 325.652,-19.0353"/>
</g>
<!-- &#45;7&#45;&gt;228 -->
<g id="edge41" class="edge"><title>&#45;7&#45;&gt;228</title>
<path fill="none" stroke="red" stroke-width="0.17591" d="M71.6816,-146.199C92.4393,-136.101 135.173,-115.313 163.588,-101.49"/>
<polygon fill="red" stroke="red" stroke-width="0.17591" points="165.161,-104.617 172.623,-97.0948 162.099,-98.322 165.161,-104.617"/>
</g>
<!-- &#45;8 -->
<g id="node8" class="node"><title>&#45;8</title>
<polygon fill="lightgray" stroke="black" points="113.5,-162.125 89.5,-162.125 89.5,-144.125 113.5,-144.125 113.5,-162.125"/>
<text text-anchor="middle" x="101.5" y="-150.925" font-family="Times,serif" font-size="9.00">&#45;8</text>
</g>
<!-- &#45;8&#45;&gt;1 -->
<g id="edge8" class="edge"><title>&#45;8&#45;&gt;1</title>
<path fill="none" stroke="green" stroke-width="0.210415" d="M113.77,-146.846C116.594,-145.802 119.617,-144.816 122.5,-144.125 268.983,-109.022 311.927,-138.317 459.5,-108.125 473.9,-105.179 489.653,-100.416 502.156,-96.2528"/>
<polygon fill="green" stroke="green" stroke-width="0.210415" points="503.467,-99.5032 511.793,-92.9505 501.198,-92.8812 503.467,-99.5032"/>
</g>
<!-- &#45;8&#45;&gt;2 -->
<g id="edge13" class="edge"><title>&#45;8&#45;&gt;2</title>
<path fill="none" stroke="green" stroke-width="0.336587" d="M113.832,-147.076C116.653,-146.02 119.658,-144.971 122.5,-144.125 194.437,-122.705 215.015,-127.613 287.5,-108.125 300.713,-104.573 315.268,-99.9502 327.057,-96.0225"/>
<polygon fill="green" stroke="green" stroke-width="0.336587" points="328.25,-99.3138 336.601,-92.7939 326.007,-92.6828 328.25,-99.3138"/>
</g>
<!-- &#45;8&#45;&gt;3 -->
<g id="edge45" class="edge"><title>&#45;8&#45;&gt;3</title>
<path fill="none" stroke="green" stroke-width="0.381226" d="M104.782,-144.021C112.184,-126.8 131.875,-86.4443 161.5,-65.6985 212.225,-30.1766 286.671,-19.9671 325.244,-17.0328"/>
<polygon fill="green" stroke="green" stroke-width="0.381226" points="325.81,-20.5033 335.561,-16.3591 325.354,-13.5182 325.81,-20.5033"/>
</g>
<!-- &#45;8&#45;&gt;228 -->
<g id="edge26" class="edge"><title>&#45;8&#45;&gt;228</title>
<path fill="none" stroke="green" stroke-width="0.457794" d="M112.899,-143.992C126.313,-134.422 148.982,-118.248 166.538,-105.722"/>
<polygon fill="green" stroke="green" stroke-width="0.457794" points="168.575,-108.568 174.682,-99.9108 164.509,-102.87 168.575,-108.568"/>
</g>
<!-- &#45;9 -->
<g id="node9" class="node"><title>&#45;9</title>
<polygon fill="lightgray" stroke="black" points="698.5,-162.125 674.5,-162.125 674.5,-144.125 698.5,-144.125 698.5,-162.125"/>
<text text-anchor="middle" x="686.5" y="-150.925" font-family="Times,serif" font-size="9.00">&#45;9</text>
</g>
<!-- &#45;9&#45;&gt;0 -->
<g id="edge30" class="edge"><title>&#45;9&#45;&gt;0</title>
<path fill="none" stroke="green" stroke-width="0.180336" d="M683.207,-143.992C679.825,-135.64 674.407,-122.258 669.711,-110.661"/>
<polygon fill="green" stroke="green" stroke-width="0.180336" points="672.837,-109.055 665.84,-101.1 666.349,-111.683 672.837,-109.055"/>
</g>
<!-- &#45;9&#45;&gt;1 -->
<g id="edge9" class="edge"><title>&#45;9&#45;&gt;1</title>
<path fill="none" stroke="red" stroke-width="0.448295" d="M674.399,-147.298C647.642,-136.627 583.088,-110.88 548.422,-97.0538"/>
<polygon fill="red" stroke="red" stroke-width="0.448295" points="549.68,-93.7874 539.095,-93.3337 547.086,-100.289 549.68,-93.7874"/>
</g>
<!-- &#45;10 -->
<g id="node10" class="node"><title>&#45;10</title>
<polygon fill="lightgray" stroke="black" points="251,-162.125 222,-162.125 222,-144.125 251,-144.125 251,-162.125"/>
<text text-anchor="middle" x="236.5" y="-150.925" font-family="Times,serif" font-size="9.00">&#45;10</text>
</g>
<!-- &#45;10&#45;&gt;2 -->
<g id="edge3" class="edge"><title>&#45;10&#45;&gt;2</title>
<path fill="none" stroke="green" stroke-width="0.624988" d="M250.938,-143.992C270.65,-132.889 306.139,-112.899 328.989,-100.028"/>
<polygon fill="green" stroke="green" stroke-width="0.624988" points="330.931,-102.952 337.926,-94.9943 327.495,-96.8525 330.931,-102.952"/>
</g>
<!-- &#45;11 -->
<g id="node11" class="node"><title>&#45;11</title>
<polygon fill="lightgray" stroke="black" points="29,-162.125 0,-162.125 0,-144.125 29,-144.125 29,-162.125"/>
<text text-anchor="middle" x="14.5" y="-150.925" font-family="Times,serif" font-size="9.00">&#45;11</text>
</g>
<!-- &#45;11&#45;&gt;228 -->
<g id="edge29" class="edge"><title>&#45;11&#45;&gt;228</title>
<path fill="none" stroke="green" stroke-width="0.116601" d="M29.2865,-146.761C58.4981,-136.163 124.081,-112.37 162.309,-98.5017"/>
<polygon fill="green" stroke="green" stroke-width="0.116601" points="163.65,-101.739 171.857,-95.0379 161.263,-95.1582 163.65,-101.739"/>
</g>
<!-- &#45;12 -->
<g id="node12" class="node"><title>&#45;12</title>
<polygon fill="lightgray" stroke="black" points="977,-162.125 948,-162.125 948,-144.125 977,-144.125 977,-162.125"/>
<text text-anchor="middle" x="962.5" y="-150.925" font-family="Times,serif" font-size="9.00">&#45;12</text>
</g>
<!-- &#45;13 -->
<g id="node13" class="node"><title>&#45;13</title>
<polygon fill="lightgray" stroke="black" points="840,-162.125 811,-162.125 811,-144.125 840,-144.125 840,-162.125"/>
<text text-anchor="middle" x="825.5" y="-150.925" font-family="Times,serif" font-size="9.00">&#45;13</text>
</g>
<!-- &#45;13&#45;&gt;0 -->
<g id="edge50" class="edge"><title>&#45;13&#45;&gt;0</title>
<path fill="none" stroke="red" stroke-width="0.394028" d="M810.857,-146.426C782.267,-135.3 718.791,-110.597 684.159,-97.1191"/>
<polygon fill="red" stroke="red" stroke-width="0.394028" points="684.996,-93.6893 674.408,-93.3242 682.458,-100.213 684.996,-93.6893"/>
</g>
<!-- &#45;14 -->
<g id="node14" class="node"><title>&#45;14</title>
<polygon fill="lightgray" stroke="black" points="793,-162.125 764,-162.125 764,-144.125 793,-144.125 793,-162.125"/>
<text text-anchor="middle" x="778.5" y="-150.925" font-family="Times,serif" font-size="9.00">&#45;14</text>
</g>
<!-- &#45;14&#45;&gt;0 -->
<g id="edge37" class="edge"><title>&#45;14&#45;&gt;0</title>
<path fill="none" stroke="green" stroke-width="0.316413" d="M763.555,-143.992C742.952,-132.78 705.696,-112.506 682.073,-99.6514"/>
<polygon fill="green" stroke="green" stroke-width="0.316413" points="683.621,-96.5093 673.165,-94.8036 680.276,-102.658 683.621,-96.5093"/>
</g>
<!-- &#45;14&#45;&gt;1 -->
<g id="edge53" class="edge"><title>&#45;14&#45;&gt;1</title>
<path fill="none" stroke="red" stroke-width="0.228844" d="M763.967,-146.836C761.172,-145.886 758.257,-144.939 755.5,-144.125 681.338,-122.218 591.969,-102.152 549.792,-93.0513"/>
<polygon fill="red" stroke="red" stroke-width="0.228844" points="550.403,-89.6029 539.891,-90.93 548.936,-96.4475 550.403,-89.6029"/>
</g>
<!-- &#45;14&#45;&gt;3 -->
<g id="edge20" class="edge"><title>&#45;14&#45;&gt;3</title>
<path fill="none" stroke="green" stroke-width="0.217321" d="M774.078,-143.989C764.004,-126.335 737.487,-84.5898 702.5,-65.6985 645.664,-35.0102 446.47,-21.1809 375.691,-17.1568"/>
<polygon fill="green" stroke="green" stroke-width="0.217321" points="375.653,-13.6495 365.475,-16.5941 375.268,-20.6389 375.653,-13.6495"/>
</g>
<!-- &#45;15 -->
<g id="node15" class="node"><title>&#45;15</title>
<polygon fill="lightgray" stroke="black" points="279,-95.9117 250,-95.9117 250,-77.9117 279,-77.9117 279,-95.9117"/>
<text text-anchor="middle" x="264.5" y="-84.7117" font-family="Times,serif" font-size="9.00">&#45;15</text>
</g>
<!-- &#45;15&#45;&gt;3 -->
<g id="edge48" class="edge"><title>&#45;15&#45;&gt;3</title>
<path fill="none" stroke="green" stroke-width="0.110105" d="M274.365,-77.8746C288.242,-66.5692 313.802,-45.7465 331.453,-31.3662"/>
<polygon fill="green" stroke="green" stroke-width="0.110105" points="333.855,-33.924 339.397,-24.8943 329.434,-28.4969 333.855,-33.924"/>
</g>
<!-- &#45;16 -->
<g id="node16" class="node"><title>&#45;16</title>
<polygon fill="lightgray" stroke="black" points="887,-162.125 858,-162.125 858,-144.125 887,-144.125 887,-162.125"/>
<text text-anchor="middle" x="872.5" y="-150.925" font-family="Times,serif" font-size="9.00">&#45;16</text>
</g>
<!-- &#45;16&#45;&gt;1 -->
<g id="edge27" class="edge"><title>&#45;16&#45;&gt;1</title>
<path fill="none" stroke="red" stroke-width="0.152939" d="M857.517,-146.509C854.869,-145.633 852.121,-144.797 849.5,-144.125 756.501,-120.271 731.063,-124.725 636.5,-108.125 606.822,-102.915 572.732,-96.6679 550.248,-92.5112"/>
<polygon fill="red" stroke="red" stroke-width="0.152939" points="550.683,-89.0323 540.213,-90.6523 549.408,-95.9152 550.683,-89.0323"/>
</g>
<!-- &#45;16&#45;&gt;3 -->
<g id="edge6" class="edge"><title>&#45;16&#45;&gt;3</title>
<path fill="none" stroke="red" stroke-width="0.139465" d="M863.388,-143.985C843.036,-126.324 791.641,-84.5646 740.5,-65.6985 609.705,-17.4477 439.377,-14.4576 375.844,-15.2211"/>
<polygon fill="red" stroke="red" stroke-width="0.139465" points="375.528,-11.7258 365.587,-15.3903 375.643,-18.7248 375.528,-11.7258"/>
</g>
<!-- &#45;17 -->
<g id="node17" class="node"><title>&#45;17</title>
<polygon fill="lightgray" stroke="black" points="524,-162.125 495,-162.125 495,-144.125 524,-144.125 524,-162.125"/>
<text text-anchor="middle" x="509.5" y="-150.925" font-family="Times,serif" font-size="9.00">&#45;17</text>
</g>
<!-- &#45;17&#45;&gt;0 -->
<g id="edge23" class="edge"><title>&#45;17&#45;&gt;0</title>
<path fill="none" stroke="red" stroke-width="0.327664" d="M524.253,-145.851C550.771,-134.574 606.637,-110.817 637.971,-97.4924"/>
<polygon fill="red" stroke="red" stroke-width="0.327664" points="639.381,-100.696 647.214,-93.5618 636.641,-94.2544 639.381,-100.696"/>
</g>
<!-- &#45;17&#45;&gt;1 -->
<g id="edge47" class="edge"><title>&#45;17&#45;&gt;1</title>
<path fill="none" stroke="red" stroke-width="0.208171" d="M511.526,-143.992C513.561,-135.827 516.793,-122.857 519.636,-111.445"/>
<polygon fill="red" stroke="red" stroke-width="0.208171" points="523.071,-112.136 522.093,-101.586 516.279,-110.443 523.071,-112.136"/>
</g>
<!-- &#45;17&#45;&gt;228 -->
<g id="edge51" class="edge"><title>&#45;17&#45;&gt;228</title>
<path fill="none" stroke="green" stroke-width="0.543587" d="M494.895,-146.803C491.821,-145.811 488.576,-144.858 485.5,-144.125 378.437,-118.625 346.613,-137.329 240.5,-108.125 233.704,-106.255 226.589,-103.694 219.953,-101.024"/>
<polygon fill="green" stroke="green" stroke-width="0.543587" points="221.241,-97.7684 210.667,-97.1003 218.517,-104.216 221.241,-97.7684"/>
</g>
<!-- &#45;18 -->
<g id="node18" class="node"><title>&#45;18</title>
<polygon fill="lightgray" stroke="black" points="298,-162.125 269,-162.125 269,-144.125 298,-144.125 298,-162.125"/>
<text text-anchor="middle" x="283.5" y="-150.925" font-family="Times,serif" font-size="9.00">&#45;18</text>
</g>
<!-- &#45;18&#45;&gt;0 -->
<g id="edge49" class="edge"><title>&#45;18&#45;&gt;0</title>
<path fill="none" stroke="green" stroke-width="0.35208" d="M298.1,-146.783C301.175,-145.793 304.421,-144.845 307.5,-144.125 421.095,-117.567 452.64,-128.528 567.5,-108.125 591,-103.95 617.59,-98.0512 636.301,-93.7027"/>
<polygon fill="green" stroke="green" stroke-width="0.35208" points="637.136,-97.102 646.07,-91.4069 635.534,-90.2876 637.136,-97.102"/>
</g>
<!-- &#45;18&#45;&gt;228 -->
<g id="edge15" class="edge"><title>&#45;18&#45;&gt;228</title>
<path fill="none" stroke="red" stroke-width="0.182462" d="M271.848,-143.992C258.136,-134.422 234.963,-118.248 217.017,-105.722"/>
<polygon fill="red" stroke="red" stroke-width="0.182462" points="218.895,-102.764 208.692,-99.9108 214.888,-108.504 218.895,-102.764"/>
</g>
<!-- &#45;19 -->
<g id="node19" class="node"><title>&#45;19</title>
<polygon fill="lightgray" stroke="black" points="451,-95.9117 422,-95.9117 422,-77.9117 451,-77.9117 451,-95.9117"/>
<text text-anchor="middle" x="436.5" y="-84.7117" font-family="Times,serif" font-size="9.00">&#45;19</text>
</g>
<!-- &#45;19&#45;&gt;3 -->
<g id="edge4" class="edge"><title>&#45;19&#45;&gt;3</title>
<path fill="none" stroke="red" stroke-width="0.268143" d="M426.635,-77.8746C412.758,-66.5692 387.198,-45.7465 369.547,-31.3662"/>
<polygon fill="red" stroke="red" stroke-width="0.268143" points="371.566,-28.4969 361.603,-24.8943 367.145,-33.924 371.566,-28.4969"/>
</g>
<!-- &#45;20 -->
<g id="node20" class="node"><title>&#45;20</title>
<polygon fill="lightgray" stroke="black" points="430,-162.125 401,-162.125 401,-144.125 430,-144.125 430,-162.125"/>
<text text-anchor="middle" x="415.5" y="-150.925" font-family="Times,serif" font-size="9.00">&#45;20</text>
</g>
<!-- &#45;20&#45;&gt;1 -->
<g id="edge39" class="edge"><title>&#45;20&#45;&gt;1</title>
<path fill="none" stroke="red" stroke-width="0.176178" d="M429.432,-143.992C448.35,-132.948 482.331,-113.112 504.391,-100.234"/>
<polygon fill="red" stroke="red" stroke-width="0.176178" points="506.165,-103.251 513.037,-95.187 502.636,-97.2058 506.165,-103.251"/>
</g>
<!-- &#45;20&#45;&gt;2 -->
<g id="edge1" class="edge"><title>&#45;20&#45;&gt;2</title>
<path fill="none" stroke="red" stroke-width="0.108867" d="M407.268,-143.992C397.423,-134.267 380.676,-117.722 367.915,-105.116"/>
<polygon fill="red" stroke="red" stroke-width="0.108867" points="370.156,-102.41 360.583,-97.8723 365.237,-107.39 370.156,-102.41"/>
</g>
<!-- &#45;21 -->
<g id="node21" class="node"><title>&#45;21</title>
<polygon fill="lightgray" stroke="black" points="477,-162.125 448,-162.125 448,-144.125 477,-144.125 477,-162.125"/>
<text text-anchor="middle" x="462.5" y="-150.925" font-family="Times,serif" font-size="9.00">&#45;21</text>
</g>
<!-- &#45;21&#45;&gt;1 -->
<g id="edge7" class="edge"><title>&#45;21&#45;&gt;1</title>
<path fill="none" stroke="green" stroke-width="0.419797" d="M470.479,-143.992C479.911,-134.378 495.881,-118.101 508.193,-105.552"/>
<polygon fill="green" stroke="green" stroke-width="0.419797" points="510.79,-107.903 515.295,-98.3134 505.793,-103 510.79,-107.903"/>
</g>
<!-- &#45;21&#45;&gt;2 -->
<g id="edge43" class="edge"><title>&#45;21&#45;&gt;2</title>
<path fill="none" stroke="green" stroke-width="0.115949" d="M448.315,-143.992C429.052,-132.948 394.454,-113.112 371.992,-100.234"/>
<polygon fill="green" stroke="green" stroke-width="0.115949" points="373.606,-97.1245 363.189,-95.187 370.124,-103.197 373.606,-97.1245"/>
</g>
<!-- &#45;22 -->
<g id="node22" class="node"><title>&#45;22</title>
<polygon fill="lightgray" stroke="black" points="161,-162.125 132,-162.125 132,-144.125 161,-144.125 161,-162.125"/>
<text text-anchor="middle" x="146.5" y="-150.925" font-family="Times,serif" font-size="9.00">&#45;22</text>
</g>
<!-- &#45;22&#45;&gt;1 -->
<g id="edge14" class="edge"><title>&#45;22&#45;&gt;1</title>
<path fill="none" stroke="green" stroke-width="0.172388" d="M161.093,-146.75C164.168,-145.762 167.416,-144.824 170.5,-144.125 296.737,-115.519 332.922,-135.178 459.5,-108.125 473.874,-105.053 489.625,-100.284 502.134,-96.1503"/>
<polygon fill="green" stroke="green" stroke-width="0.172388" points="503.433,-99.4058 511.778,-92.8781 501.183,-92.777 503.433,-99.4058"/>
</g>
<!-- &#45;22&#45;&gt;228 -->
<g id="edge21" class="edge"><title>&#45;22&#45;&gt;228</title>
<path fill="none" stroke="red" stroke-width="0.367975" d="M152.199,-143.992C157.648,-136.217 166.152,-124.082 173.857,-113.087"/>
<polygon fill="red" stroke="red" stroke-width="0.367975" points="176.92,-114.816 179.792,-104.618 171.187,-110.799 176.92,-114.816"/>
</g>
<!-- &#45;23 -->
<g id="node23" class="node"><title>&#45;23</title>
<polygon fill="lightgray" stroke="black" points="656,-162.125 627,-162.125 627,-144.125 656,-144.125 656,-162.125"/>
<text text-anchor="middle" x="641.5" y="-150.925" font-family="Times,serif" font-size="9.00">&#45;23</text>
</g>
<!-- &#45;23&#45;&gt;0 -->
<g id="edge2" class="edge"><title>&#45;23&#45;&gt;0</title>
<path fill="none" stroke="red" stroke-width="0.223094" d="M643.906,-143.992C646.322,-135.827 650.16,-122.857 653.537,-111.445"/>
<polygon fill="red" stroke="red" stroke-width="0.223094" points="656.973,-112.168 656.454,-101.586 650.26,-110.182 656.973,-112.168"/>
</g>
<!-- &#45;23&#45;&gt;1 -->
<g id="edge40" class="edge"><title>&#45;23&#45;&gt;1</title>
<path fill="none" stroke="red" stroke-width="0.146854" d="M626.809,-143.992C606.662,-132.84 570.317,-112.721 547.077,-99.8561"/>
<polygon fill="red" stroke="red" stroke-width="0.146854" points="548.739,-96.7753 538.295,-94.9943 545.348,-102.9 548.739,-96.7753"/>
</g>
<!-- &#45;23&#45;&gt;2 -->
<g id="edge22" class="edge"><title>&#45;23&#45;&gt;2</title>
<path fill="none" stroke="green" stroke-width="0.16344" d="M626.879,-146.869C623.805,-145.873 620.566,-144.9 617.5,-144.125 527.82,-121.436 502.254,-130.517 412.5,-108.125 399.548,-104.894 385.375,-100.351 373.853,-96.3905"/>
<polygon fill="green" stroke="green" stroke-width="0.16344" points="374.723,-92.9863 364.128,-92.9713 372.401,-99.5901 374.723,-92.9863"/>
</g>
<!-- &#45;23&#45;&gt;3 -->
<g id="edge12" class="edge"><title>&#45;23&#45;&gt;3</title>
<path fill="none" stroke="green" stroke-width="0.118461" d="M636.978,-143.945C626.929,-126.575 600.96,-85.9495 567.5,-65.6985 505.44,-28.1381 417.756,-18.8579 375.366,-16.5799"/>
<polygon fill="green" stroke="green" stroke-width="0.118461" points="375.52,-13.0833 365.372,-16.1301 375.205,-20.0762 375.52,-13.0833"/>
</g>
<!-- &#45;24 -->
<g id="node24" class="node"><title>&#45;24</title>
<polygon fill="lightgray" stroke="black" points="746,-162.125 717,-162.125 717,-144.125 746,-144.125 746,-162.125"/>
<text text-anchor="middle" x="731.5" y="-150.925" font-family="Times,serif" font-size="9.00">&#45;24</text>
</g>
<!-- &#45;24&#45;&gt;0 -->
<g id="edge44" class="edge"><title>&#45;24&#45;&gt;0</title>
<path fill="none" stroke="green" stroke-width="0.164926" d="M722.508,-143.992C711.528,-134.062 692.688,-117.023 678.649,-104.326"/>
<polygon fill="green" stroke="green" stroke-width="0.164926" points="680.798,-101.55 671.034,-97.4384 676.103,-106.742 680.798,-101.55"/>
</g>
<!-- &#45;24&#45;&gt;1 -->
<g id="edge5" class="edge"><title>&#45;24&#45;&gt;1</title>
<path fill="none" stroke="green" stroke-width="0.310421" d="M716.794,-147.166C713.727,-146.147 710.511,-145.092 707.5,-144.125 651,-125.985 584.289,-105.657 549.439,-95.1207"/>
<polygon fill="green" stroke="green" stroke-width="0.310421" points="550.278,-91.718 539.693,-92.1783 548.254,-98.4192 550.278,-91.718"/>
</g>
<!-- 0&#45;&gt;0 -->
<g id="edge19" class="edge"><title>0&#45;&gt;0</title>
<path fill="none" stroke="red" stroke-width="0.271292" d="M671.606,-96.918C682.036,-102.107 693.349,-98.7711 693.349,-86.9117 693.349,-78.9437 688.242,-74.8235 681.728,-74.5511"/>
<polygon fill="red" stroke="red" stroke-width="0.271292" points="680.553,-71.2307 671.606,-76.9053 682.139,-78.0487 680.553,-71.2307"/>
</g>
<!-- 1&#45;&gt;1 -->
<g id="edge17" class="edge"><title>1&#45;&gt;1</title>
<path fill="none" stroke="green" stroke-width="0.290604" d="M536.606,-96.918C547.036,-102.107 558.349,-98.7711 558.349,-86.9117 558.349,-78.9437 553.242,-74.8235 546.728,-74.5511"/>
<polygon fill="green" stroke="green" stroke-width="0.290604" points="545.553,-71.2307 536.606,-76.9053 547.139,-78.0487 545.553,-71.2307"/>
</g>
<!-- 3&#45;&gt;3 -->
<g id="edge11" class="edge"><title>3&#45;&gt;3</title>
<path fill="none" stroke="green" stroke-width="0.125264" d="M361.267,-25.5774C371.789,-31.5034 383.349,-27.9274 383.349,-14.8492 383.349,-5.85803 377.885,-1.35804 371.051,-1.34926"/>
<polygon fill="green" stroke="green" stroke-width="0.125264" points="369.934,1.97218 361.267,-4.12109 371.842,-4.76277 369.934,1.97218"/>
</g>
<!-- 228&#45;&gt;3 -->
<g id="edge31" class="edge"><title>228&#45;&gt;3</title>
<path fill="none" stroke="red" stroke-width="0.206092" d="M210.679,-77.4605C240.193,-64.4554 296.614,-39.5938 328.009,-25.7596"/>
<polygon fill="red" stroke="red" stroke-width="0.206092" points="329.518,-28.9196 337.258,-21.6844 326.695,-22.514 329.518,-28.9196"/>
</g>
</g>
</svg>
