<?xml version="1.0" encoding="UTF-8" standalone="no"?>
<!DOCTYPE svg PUBLIC "-//W3C//DTD SVG 1.1//EN"
 "http://www.w3.org/Graphics/SVG/1.1/DTD/svg11.dtd">
<!-- Generated by graphviz version 2.38.0 (20140413.2041)
 -->
<!-- Title: %3 Pages: 1 -->
<svg width="1176pt" height="256pt"
 viewBox="0.00 0.00 1175.50 255.62" xmlns="http://www.w3.org/2000/svg" xmlns:xlink="http://www.w3.org/1999/xlink">
<g id="graph0" class="graph" transform="scale(1 1) rotate(0) translate(4 251.622)">
<title>%3</title>
<polygon fill="white" stroke="none" points="-4,4 -4,-251.622 1171.5,-251.622 1171.5,4 -4,4"/>
<!-- &#45;1 -->
<g id="node1" class="node"><title>&#45;1</title>
<polygon fill="lightgray" stroke="black" points="672.5,-177.874 648.5,-177.874 648.5,-159.874 672.5,-159.874 672.5,-177.874"/>
<text text-anchor="middle" x="660.5" y="-166.674" font-family="Times,serif" font-size="9.00">&#45;1</text>
</g>
<!-- 1 -->
<g id="node26" class="node"><title>1</title>
<ellipse fill="lightblue" stroke="black" cx="745.5" cy="-86.9117" rx="14.7" ry="14.7"/>
<text text-anchor="middle" x="745.5" y="-84.7117" font-family="Times,serif" font-size="9.00">1</text>
</g>
<!-- &#45;1&#45;&gt;1 -->
<g id="edge6" class="edge"><title>&#45;1&#45;&gt;1</title>
<path fill="none" stroke="green" stroke-width="0.480473" d="M667.258,-159.729C671.26,-155.035 676.51,-149.098 681.5,-144.125 695.935,-129.738 713.376,-114.55 726.403,-103.593"/>
<polygon fill="green" stroke="green" stroke-width="0.480473" points="728.808,-106.145 734.25,-97.0549 724.327,-100.767 728.808,-106.145"/>
</g>
<!-- 3 -->
<g id="node28" class="node"><title>3</title>
<ellipse fill="lightblue" stroke="black" cx="849.5" cy="-14.8492" rx="14.7" ry="14.7"/>
<text text-anchor="middle" x="849.5" y="-12.6492" font-family="Times,serif" font-size="9.00">3</text>
</g>
<!-- &#45;1&#45;&gt;3 -->
<g id="edge45" class="edge"><title>&#45;1&#45;&gt;3</title>
<path fill="none" stroke="green" stroke-width="0.308822" d="M661.366,-159.692C663.831,-140.502 672.615,-92.2154 700.5,-65.6985 735.131,-32.7671 792.145,-21.5627 824.687,-17.7706"/>
<polygon fill="green" stroke="green" stroke-width="0.308822" points="825.124,-21.2443 834.718,-16.748 824.414,-14.2804 825.124,-21.2443"/>
</g>
<!-- 228 -->
<g id="node29" class="node"><title>228</title>
<ellipse fill="white" stroke="black" cx="615.5" cy="-86.9117" rx="21.4286" ry="21.4286"/>
<text text-anchor="middle" x="615.5" y="-84.7117" font-family="Times,serif" font-size="9.00">228</text>
</g>
<!-- &#45;1&#45;&gt;228 -->
<g id="edge36" class="edge"><title>&#45;1&#45;&gt;228</title>
<path fill="none" stroke="red" stroke-width="0.173668" d="M655.854,-159.617C649.922,-149.077 639.369,-130.326 630.543,-114.642"/>
<polygon fill="red" stroke="red" stroke-width="0.173668" points="633.548,-112.846 625.594,-105.847 627.448,-116.279 633.548,-112.846"/>
</g>
<!-- &#45;2 -->
<g id="node2" class="node"><title>&#45;2</title>
<polygon fill="lightgray" stroke="black" points="1167.5,-177.874 1143.5,-177.874 1143.5,-159.874 1167.5,-159.874 1167.5,-177.874"/>
<text text-anchor="middle" x="1155.5" y="-166.674" font-family="Times,serif" font-size="9.00">&#45;2</text>
</g>
<!-- &#45;2&#45;&gt;1 -->
<g id="edge13" class="edge"><title>&#45;2&#45;&gt;1</title>
<path fill="none" stroke="green" stroke-width="0.579357" d="M1150.68,-159.862C1146.97,-154.46 1141.33,-147.692 1134.5,-144.125 1011.95,-80.111 961.485,-133.114 825.5,-108.125 806.497,-104.633 785.311,-99.2097 769.518,-94.8596"/>
<polygon fill="green" stroke="green" stroke-width="0.579357" points="770.113,-91.3912 759.539,-92.0563 768.219,-98.1303 770.113,-91.3912"/>
</g>
<!-- 2 -->
<g id="node27" class="node"><title>2</title>
<ellipse fill="lightblue" stroke="black" cx="1020.5" cy="-86.9117" rx="14.7" ry="14.7"/>
<text text-anchor="middle" x="1020.5" y="-84.7117" font-family="Times,serif" font-size="9.00">2</text>
</g>
<!-- &#45;2&#45;&gt;2 -->
<g id="edge26" class="edge"><title>&#45;2&#45;&gt;2</title>
<path fill="none" stroke="green" stroke-width="0.296428" d="M1149.56,-159.66C1145.68,-154.712 1140.27,-148.536 1134.5,-144.125 1106.12,-122.438 1068.05,-105.701 1043.89,-96.326"/>
<polygon fill="green" stroke="green" stroke-width="0.296428" points="1045.05,-93.0226 1034.46,-92.7656 1042.58,-99.5716 1045.05,-93.0226"/>
</g>
<!-- &#45;2&#45;&gt;3 -->
<g id="edge50" class="edge"><title>&#45;2&#45;&gt;3</title>
<path fill="none" stroke="green" stroke-width="0.34036" d="M1151.85,-159.676C1142.64,-140.016 1116.47,-90.0178 1078.5,-65.6985 1013.59,-24.1246 919.343,-16.7828 874.724,-15.7753"/>
<polygon fill="green" stroke="green" stroke-width="0.34036" points="874.544,-12.2727 864.498,-15.6387 874.451,-19.2721 874.544,-12.2727"/>
</g>
<!-- &#45;3 -->
<g id="node3" class="node"><title>&#45;3</title>
<polygon fill="lightgray" stroke="black" points="385.5,-177.874 361.5,-177.874 361.5,-159.874 385.5,-159.874 385.5,-177.874"/>
<text text-anchor="middle" x="373.5" y="-166.674" font-family="Times,serif" font-size="9.00">&#45;3</text>
</g>
<!-- 0 -->
<g id="node25" class="node"><title>0</title>
<ellipse fill="lightblue" stroke="black" cx="271.5" cy="-86.9117" rx="14.7" ry="14.7"/>
<text text-anchor="middle" x="271.5" y="-84.7117" font-family="Times,serif" font-size="9.00">0</text>
</g>
<!-- &#45;3&#45;&gt;0 -->
<g id="edge48" class="edge"><title>&#45;3&#45;&gt;0</title>
<path fill="none" stroke="red" stroke-width="0.182268" d="M366.563,-159.549C362.418,-154.795 356.918,-148.858 351.5,-144.125 332.624,-127.634 308.909,-111.466 292.216,-100.734"/>
<polygon fill="red" stroke="red" stroke-width="0.182268" points="294.06,-97.7592 283.74,-95.3635 290.314,-103.672 294.06,-97.7592"/>
</g>
<!-- &#45;3&#45;&gt;1 -->
<g id="edge30" class="edge"><title>&#45;3&#45;&gt;1</title>
<path fill="none" stroke="red" stroke-width="0.11858" d="M378.674,-159.453C382.397,-154.158 387.912,-147.678 394.5,-144.125 493.691,-90.6298 534.446,-127.297 645.5,-108.125 671.391,-103.655 700.854,-97.5785 721.055,-93.258"/>
<polygon fill="red" stroke="red" stroke-width="0.11858" points="721.938,-96.6482 730.975,-91.1182 720.462,-89.8055 721.938,-96.6482"/>
</g>
<!-- &#45;3&#45;&gt;228 -->
<g id="edge37" class="edge"><title>&#45;3&#45;&gt;228</title>
<path fill="none" stroke="green" stroke-width="0.466915" d="M378.805,-159.681C382.583,-154.483 388.111,-148.024 394.5,-144.125 455.039,-107.182 539.068,-94.4158 584.069,-90.0802"/>
<polygon fill="green" stroke="green" stroke-width="0.466915" points="584.455,-93.5598 594.107,-89.1919 583.837,-86.5871 584.455,-93.5598"/>
</g>
<!-- &#45;4 -->
<g id="node4" class="node"><title>&#45;4</title>
<polygon fill="lightgray" stroke="black" points="230.5,-247.622 206.5,-247.622 206.5,-229.622 230.5,-229.622 230.5,-247.622"/>
<text text-anchor="middle" x="218.5" y="-236.422" font-family="Times,serif" font-size="9.00">&#45;4</text>
</g>
<!-- &#45;4&#45;&gt;0 -->
<g id="edge34" class="edge"><title>&#45;4&#45;&gt;0</title>
<path fill="none" stroke="green" stroke-width="0.335088" d="M219.196,-229.606C220.828,-213.107 225.693,-174.367 237.5,-144.125 242.505,-131.306 250.345,-118.083 257.235,-107.685"/>
<polygon fill="green" stroke="green" stroke-width="0.335088" points="260.179,-109.582 262.951,-99.3559 254.407,-105.621 260.179,-109.582"/>
</g>
<!-- 1006 -->
<g id="node31" class="node"><title>1006</title>
<ellipse fill="white" stroke="black" cx="271.5" cy="-168.874" rx="25" ry="25"/>
<text text-anchor="middle" x="271.5" y="-166.674" font-family="Times,serif" font-size="9.00">1006</text>
</g>
<!-- &#45;4&#45;&gt;1006 -->
<g id="edge55" class="edge"><title>&#45;4&#45;&gt;1006</title>
<path fill="none" stroke="red" stroke-width="0.338383" d="M224.788,-229.585C231.115,-221.497 241.227,-208.571 250.427,-196.81"/>
<polygon fill="red" stroke="red" stroke-width="0.338383" points="253.188,-198.961 256.593,-188.929 247.675,-194.648 253.188,-198.961"/>
</g>
<!-- 4792 -->
<g id="node32" class="node"><title>4792</title>
<ellipse fill="white" stroke="black" cx="165.5" cy="-168.874" rx="25" ry="25"/>
<text text-anchor="middle" x="165.5" y="-166.674" font-family="Times,serif" font-size="9.00">4792</text>
</g>
<!-- &#45;4&#45;&gt;4792 -->
<g id="edge39" class="edge"><title>&#45;4&#45;&gt;4792</title>
<path fill="none" stroke="green" stroke-width="0.202313" d="M212.212,-229.585C205.885,-221.497 195.773,-208.571 186.573,-196.81"/>
<polygon fill="green" stroke="green" stroke-width="0.202313" points="189.325,-194.648 180.407,-188.929 183.812,-198.961 189.325,-194.648"/>
</g>
<!-- &#45;5 -->
<g id="node5" class="node"><title>&#45;5</title>
<polygon fill="lightgray" stroke="black" points="988.5,-177.874 964.5,-177.874 964.5,-159.874 988.5,-159.874 988.5,-177.874"/>
<text text-anchor="middle" x="976.5" y="-166.674" font-family="Times,serif" font-size="9.00">&#45;5</text>
</g>
<!-- &#45;5&#45;&gt;2 -->
<g id="edge54" class="edge"><title>&#45;5&#45;&gt;2</title>
<path fill="none" stroke="green" stroke-width="0.198076" d="M981.043,-159.617C987.541,-147.809 999.708,-125.697 1008.82,-109.137"/>
<polygon fill="green" stroke="green" stroke-width="0.198076" points="1012.01,-110.596 1013.77,-100.147 1005.88,-107.221 1012.01,-110.596"/>
</g>
<!-- &#45;5&#45;&gt;3 -->
<g id="edge38" class="edge"><title>&#45;5&#45;&gt;3</title>
<path fill="none" stroke="red" stroke-width="0.189509" d="M969.686,-159.648C955.285,-142.27 920.68,-100.553 891.5,-65.6985 882.935,-55.4676 873.35,-44.0865 865.502,-34.7849"/>
<polygon fill="red" stroke="red" stroke-width="0.189509" points="867.987,-32.303 858.861,-26.92 862.638,-36.8188 867.987,-32.303"/>
</g>
<!-- &#45;6 -->
<g id="node6" class="node"><title>&#45;6</title>
<polygon fill="lightgray" stroke="black" points="804.5,-177.874 780.5,-177.874 780.5,-159.874 804.5,-159.874 804.5,-177.874"/>
<text text-anchor="middle" x="792.5" y="-166.674" font-family="Times,serif" font-size="9.00">&#45;6</text>
</g>
<!-- &#45;6&#45;&gt;1 -->
<g id="edge41" class="edge"><title>&#45;6&#45;&gt;1</title>
<path fill="none" stroke="green" stroke-width="0.118985" d="M787.647,-159.617C780.707,-147.809 767.71,-125.697 757.976,-109.137"/>
<polygon fill="green" stroke="green" stroke-width="0.118985" points="760.777,-106.995 752.692,-100.147 754.742,-110.542 760.777,-106.995"/>
</g>
<!-- &#45;7 -->
<g id="node7" class="node"><title>&#45;7</title>
<polygon fill="lightgray" stroke="black" points="1125.5,-177.874 1101.5,-177.874 1101.5,-159.874 1125.5,-159.874 1125.5,-177.874"/>
<text text-anchor="middle" x="1113.5" y="-166.674" font-family="Times,serif" font-size="9.00">&#45;7</text>
</g>
<!-- &#45;7&#45;&gt;2 -->
<g id="edge35" class="edge"><title>&#45;7&#45;&gt;2</title>
<path fill="none" stroke="green" stroke-width="0.111931" d="M1106.46,-159.664C1102.28,-154.948 1096.78,-149.011 1091.5,-144.125 1075.16,-129.004 1055.17,-113.411 1040.57,-102.495"/>
<polygon fill="green" stroke="green" stroke-width="0.111931" points="1042.38,-99.4794 1032.26,-96.3489 1038.22,-105.108 1042.38,-99.4794"/>
</g>
<!-- &#45;7&#45;&gt;3 -->
<g id="edge19" class="edge"><title>&#45;7&#45;&gt;3</title>
<path fill="none" stroke="green" stroke-width="0.42799" d="M1110.42,-159.766C1102.6,-140.305 1080.03,-90.717 1044.5,-65.6985 991.88,-28.642 914.038,-19.1038 874.505,-16.6685"/>
<polygon fill="green" stroke="green" stroke-width="0.42799" points="874.589,-13.1683 864.423,-16.153 874.232,-20.1591 874.589,-13.1683"/>
</g>
<!-- &#45;7&#45;&gt;228 -->
<g id="edge44" class="edge"><title>&#45;7&#45;&gt;228</title>
<path fill="none" stroke="red" stroke-width="0.204679" d="M1108.38,-159.817C1104.47,-154.395 1098.55,-147.62 1091.5,-144.125 1017.49,-107.428 803.271,-119.874 721.5,-108.125 695.959,-104.455 667.219,-98.8832 646.114,-94.5182"/>
<polygon fill="red" stroke="red" stroke-width="0.204679" points="646.629,-91.0501 636.124,-92.4242 645.193,-97.9013 646.629,-91.0501"/>
</g>
<!-- &#45;8 -->
<g id="node8" class="node"><title>&#45;8</title>
<polygon fill="lightgray" stroke="black" points="714.5,-177.874 690.5,-177.874 690.5,-159.874 714.5,-159.874 714.5,-177.874"/>
<text text-anchor="middle" x="702.5" y="-166.674" font-family="Times,serif" font-size="9.00">&#45;8</text>
</g>
<!-- &#45;8&#45;&gt;1 -->
<g id="edge10" class="edge"><title>&#45;8&#45;&gt;1</title>
<path fill="none" stroke="green" stroke-width="0.210415" d="M706.94,-159.617C713.254,-147.876 725.046,-125.947 733.935,-109.418"/>
<polygon fill="green" stroke="green" stroke-width="0.210415" points="737.116,-110.893 738.769,-100.428 730.951,-107.577 737.116,-110.893"/>
</g>
<!-- &#45;8&#45;&gt;2 -->
<g id="edge16" class="edge"><title>&#45;8&#45;&gt;2</title>
<path fill="none" stroke="green" stroke-width="0.361442" d="M707.661,-159.428C711.378,-154.123 716.892,-147.641 723.5,-144.125 831.545,-86.6436 884.531,-157.529 996.5,-108.125 998.606,-107.196 1000.67,-106.023 1002.65,-104.712"/>
<polygon fill="green" stroke="green" stroke-width="0.361442" points="1004.96,-107.348 1010.65,-98.4087 1000.63,-101.85 1004.96,-107.348"/>
</g>
<!-- &#45;8&#45;&gt;3 -->
<g id="edge47" class="edge"><title>&#45;8&#45;&gt;3</title>
<path fill="none" stroke="green" stroke-width="0.243863" d="M701.551,-159.619C699.848,-140.689 698.37,-93.6307 721.5,-65.6985 747.261,-34.5902 794.959,-22.8248 824.294,-18.4242"/>
<polygon fill="green" stroke="green" stroke-width="0.243863" points="825.096,-21.8489 834.553,-17.0733 824.182,-14.9088 825.096,-21.8489"/>
</g>
<!-- &#45;8&#45;&gt;228 -->
<g id="edge28" class="edge"><title>&#45;8&#45;&gt;228</title>
<path fill="none" stroke="green" stroke-width="0.457794" d="M695.771,-159.701C691.777,-154.997 686.527,-149.06 681.5,-144.125 668.283,-131.151 652.524,-117.663 639.72,-107.151"/>
<polygon fill="green" stroke="green" stroke-width="0.457794" points="641.758,-104.297 631.789,-100.709 637.344,-109.731 641.758,-104.297"/>
</g>
<!-- &#45;9 -->
<g id="node9" class="node"><title>&#45;9</title>
<polygon fill="lightgray" stroke="black" points="522.5,-177.874 498.5,-177.874 498.5,-159.874 522.5,-159.874 522.5,-177.874"/>
<text text-anchor="middle" x="510.5" y="-166.674" font-family="Times,serif" font-size="9.00">&#45;9</text>
</g>
<!-- &#45;9&#45;&gt;0 -->
<g id="edge32" class="edge"><title>&#45;9&#45;&gt;0</title>
<path fill="none" stroke="red" stroke-width="0.115314" d="M504.855,-159.695C500.861,-154.503 495.062,-148.045 488.5,-144.125 425.937,-106.747 338.787,-93.9736 296.499,-89.809"/>
<polygon fill="red" stroke="red" stroke-width="0.115314" points="296.561,-86.3005 286.287,-88.8874 295.932,-93.2721 296.561,-86.3005"/>
</g>
<!-- &#45;9&#45;&gt;1 -->
<g id="edge12" class="edge"><title>&#45;9&#45;&gt;1</title>
<path fill="none" stroke="red" stroke-width="0.243935" d="M515.815,-159.698C519.597,-154.506 525.126,-148.049 531.5,-144.125 563.508,-124.421 671.637,-101.992 720.801,-92.5193"/>
<polygon fill="red" stroke="red" stroke-width="0.243935" points="721.717,-95.9079 730.885,-90.5991 720.407,-89.0315 721.717,-95.9079"/>
</g>
<!-- &#45;10 -->
<g id="node10" class="node"><title>&#45;10</title>
<polygon fill="lightgray" stroke="black" points="1036,-177.874 1007,-177.874 1007,-159.874 1036,-159.874 1036,-177.874"/>
<text text-anchor="middle" x="1021.5" y="-166.674" font-family="Times,serif" font-size="9.00">&#45;10</text>
</g>
<!-- &#45;10&#45;&gt;2 -->
<g id="edge3" class="edge"><title>&#45;10&#45;&gt;2</title>
<path fill="none" stroke="green" stroke-width="0.624988" d="M1021.4,-159.617C1021.26,-148.53 1021.01,-128.356 1020.8,-112.225"/>
<polygon fill="green" stroke="green" stroke-width="0.624988" points="1024.3,-111.82 1020.67,-101.864 1017.3,-111.907 1024.3,-111.82"/>
</g>
<!-- &#45;11 -->
<g id="node11" class="node"><title>&#45;11</title>
<polygon fill="lightgray" stroke="black" points="433,-177.874 404,-177.874 404,-159.874 433,-159.874 433,-177.874"/>
<text text-anchor="middle" x="418.5" y="-166.674" font-family="Times,serif" font-size="9.00">&#45;11</text>
</g>
<!-- &#45;11&#45;&gt;228 -->
<g id="edge31" class="edge"><title>&#45;11&#45;&gt;228</title>
<path fill="none" stroke="green" stroke-width="0.116601" d="M424.555,-159.831C428.797,-154.696 434.874,-148.251 441.5,-144.125 486.997,-115.793 548.164,-100.382 584.543,-93.1711"/>
<polygon fill="green" stroke="green" stroke-width="0.116601" points="585.381,-96.5746 594.553,-91.271 584.076,-89.6974 585.381,-96.5746"/>
</g>
<!-- &#45;12 -->
<g id="node12" class="node"><title>&#45;12</title>
<polygon fill="lightgray" stroke="black" points="76,-177.874 47,-177.874 47,-159.874 76,-159.874 76,-177.874"/>
<text text-anchor="middle" x="61.5" y="-166.674" font-family="Times,serif" font-size="9.00">&#45;12</text>
</g>
<!-- &#45;12&#45;&gt;0 -->
<g id="edge8" class="edge"><title>&#45;12&#45;&gt;0</title>
<path fill="none" stroke="green" stroke-width="0.123043" d="M67.5278,-159.786C71.7574,-154.632 77.8318,-148.183 84.5,-144.125 137.214,-112.043 209.511,-97.1639 246.889,-91.2437"/>
<polygon fill="green" stroke="green" stroke-width="0.123043" points="247.514,-94.6891 256.885,-89.7445 246.476,-87.7665 247.514,-94.6891"/>
</g>
<!-- &#45;13 -->
<g id="node13" class="node"><title>&#45;13</title>
<polygon fill="lightgray" stroke="black" points="123,-177.874 94,-177.874 94,-159.874 123,-159.874 123,-177.874"/>
<text text-anchor="middle" x="108.5" y="-166.674" font-family="Times,serif" font-size="9.00">&#45;13</text>
</g>
<!-- &#45;13&#45;&gt;0 -->
<g id="edge53" class="edge"><title>&#45;13&#45;&gt;0</title>
<path fill="none" stroke="red" stroke-width="0.590666" d="M115.035,-159.53C119.293,-154.532 125.211,-148.35 131.5,-144.125 168.482,-119.277 218.132,-102.631 247.286,-94.2577"/>
<polygon fill="red" stroke="red" stroke-width="0.590666" points="248.34,-97.5974 257.037,-91.5474 246.465,-90.853 248.34,-97.5974"/>
</g>
<!-- &#45;14 -->
<g id="node14" class="node"><title>&#45;14</title>
<polygon fill="lightgray" stroke="black" points="29,-177.874 0,-177.874 0,-159.874 29,-159.874 29,-177.874"/>
<text text-anchor="middle" x="14.5" y="-166.674" font-family="Times,serif" font-size="9.00">&#45;14</text>
</g>
<!-- &#45;14&#45;&gt;0 -->
<g id="edge40" class="edge"><title>&#45;14&#45;&gt;0</title>
<path fill="none" stroke="green" stroke-width="0.205038" d="M20.4543,-159.661C24.6529,-154.455 30.7204,-147.994 37.5,-144.125 73.4951,-123.583 194.231,-101.12 246.75,-92.05"/>
<polygon fill="green" stroke="green" stroke-width="0.205038" points="247.598,-95.456 256.867,-90.3234 246.42,-88.5558 247.598,-95.456"/>
</g>
<!-- &#45;14&#45;&gt;3 -->
<g id="edge11" class="edge"><title>&#45;14&#45;&gt;3</title>
<path fill="none" stroke="green" stroke-width="0.217321" d="M20.9988,-159.476C25.2433,-154.458 31.1602,-148.273 37.5,-144.125 120.868,-89.5741 150.272,-87.4424 247.5,-65.6985 466.899,-16.6324 740.996,-14.786 824.33,-15.4828"/>
<polygon fill="green" stroke="green" stroke-width="0.217321" points="824.343,-18.983 834.379,-15.588 824.416,-11.9834 824.343,-18.983"/>
</g>
<!-- &#45;15 -->
<g id="node15" class="node"><title>&#45;15</title>
<polygon fill="lightgray" stroke="black" points="864,-95.9117 835,-95.9117 835,-77.9117 864,-77.9117 864,-95.9117"/>
<text text-anchor="middle" x="849.5" y="-84.7117" font-family="Times,serif" font-size="9.00">&#45;15</text>
</g>
<!-- &#45;15&#45;&gt;3 -->
<g id="edge51" class="edge"><title>&#45;15&#45;&gt;3</title>
<path fill="none" stroke="green" stroke-width="0.218662" d="M849.5,-77.8746C849.5,-68.7202 849.5,-53.3256 849.5,-40.1641"/>
<polygon fill="green" stroke="green" stroke-width="0.218662" points="853,-39.8196 849.5,-29.8197 846,-39.8197 853,-39.8196"/>
</g>
<!-- &#45;16 -->
<g id="node16" class="node"><title>&#45;16</title>
<polygon fill="lightgray" stroke="black" points="899,-177.874 870,-177.874 870,-159.874 899,-159.874 899,-177.874"/>
<text text-anchor="middle" x="884.5" y="-166.674" font-family="Times,serif" font-size="9.00">&#45;16</text>
</g>
<!-- &#45;16&#45;&gt;1 -->
<g id="edge29" class="edge"><title>&#45;16&#45;&gt;1</title>
<path fill="none" stroke="green" stroke-width="0.181136" d="M877.503,-159.709C872.993,-154.778 866.809,-148.604 860.5,-144.125 831.168,-123.299 792.95,-106.335 768.811,-96.6753"/>
<polygon fill="green" stroke="green" stroke-width="0.181136" points="769.983,-93.3755 759.395,-92.9928 767.433,-99.8947 769.983,-93.3755"/>
</g>
<!-- &#45;16&#45;&gt;3 -->
<g id="edge7" class="edge"><title>&#45;16&#45;&gt;3</title>
<path fill="none" stroke="green" stroke-width="0.315388" d="M884.408,-159.758C884.024,-142.244 882.089,-99.7376 872.5,-65.6985 869.758,-55.9668 865.34,-45.741 861.105,-37.1014"/>
<polygon fill="green" stroke="green" stroke-width="0.315388" points="864.181,-35.4299 856.5,-28.1321 857.953,-38.6268 864.181,-35.4299"/>
</g>
<!-- &#45;17 -->
<g id="node17" class="node"><title>&#45;17</title>
<polygon fill="lightgray" stroke="black" points="480,-177.874 451,-177.874 451,-159.874 480,-159.874 480,-177.874"/>
<text text-anchor="middle" x="465.5" y="-166.674" font-family="Times,serif" font-size="9.00">&#45;17</text>
</g>
<!-- &#45;17&#45;&gt;0 -->
<g id="edge25" class="edge"><title>&#45;17&#45;&gt;0</title>
<path fill="none" stroke="red" stroke-width="0.143004" d="M459.104,-159.857C454.646,-154.732 448.297,-148.29 441.5,-144.125 394.384,-115.254 330.732,-99.374 296.227,-92.364"/>
<polygon fill="red" stroke="red" stroke-width="0.143004" points="296.591,-88.8692 286.107,-90.3945 295.254,-95.7403 296.591,-88.8692"/>
</g>
<!-- &#45;17&#45;&gt;1 -->
<g id="edge49" class="edge"><title>&#45;17&#45;&gt;1</title>
<path fill="none" stroke="red" stroke-width="0.208171" d="M471.76,-159.622C476.161,-154.398 482.497,-147.934 489.5,-144.125 499.776,-138.536 658.748,-105.65 720.882,-92.9308"/>
<polygon fill="red" stroke="red" stroke-width="0.208171" points="721.876,-96.2999 730.973,-90.8681 720.474,-89.4417 721.876,-96.2999"/>
</g>
<!-- &#45;18 -->
<g id="node18" class="node"><title>&#45;18</title>
<polygon fill="lightgray" stroke="black" points="343,-177.874 314,-177.874 314,-159.874 343,-159.874 343,-177.874"/>
<text text-anchor="middle" x="328.5" y="-166.674" font-family="Times,serif" font-size="9.00">&#45;18</text>
</g>
<!-- &#45;18&#45;&gt;0 -->
<g id="edge21" class="edge"><title>&#45;18&#45;&gt;0</title>
<path fill="none" stroke="green" stroke-width="0.35208" d="M322.615,-159.617C314.023,-147.564 297.778,-124.775 285.9,-108.113"/>
<polygon fill="green" stroke="green" stroke-width="0.35208" points="288.482,-105.705 279.827,-99.5937 282.782,-109.768 288.482,-105.705"/>
</g>
<!-- &#45;18&#45;&gt;228 -->
<g id="edge18" class="edge"><title>&#45;18&#45;&gt;228</title>
<path fill="none" stroke="red" stroke-width="0.189477" d="M334.753,-159.609C339.151,-154.38 345.486,-147.914 352.5,-144.125 428.627,-102.995 532.357,-91.9554 583.834,-88.9948"/>
<polygon fill="red" stroke="red" stroke-width="0.189477" points="584.188,-92.4815 593.997,-88.4778 583.832,-85.4905 584.188,-92.4815"/>
</g>
<!-- &#45;19 -->
<g id="node19" class="node"><title>&#45;19</title>
<polygon fill="lightgray" stroke="black" points="988,-95.9117 959,-95.9117 959,-77.9117 988,-77.9117 988,-95.9117"/>
<text text-anchor="middle" x="973.5" y="-84.7117" font-family="Times,serif" font-size="9.00">&#45;19</text>
</g>
<!-- &#45;19&#45;&gt;3 -->
<g id="edge4" class="edge"><title>&#45;19&#45;&gt;3</title>
<path fill="none" stroke="green" stroke-width="0.177105" d="M962.7,-77.9012C957.334,-74.0471 950.689,-69.4587 944.5,-65.6985 920.261,-50.9714 891.246,-36.1271 871.712,-26.5156"/>
<polygon fill="green" stroke="green" stroke-width="0.177105" points="873.215,-23.3544 862.692,-22.1179 870.147,-29.6464 873.215,-23.3544"/>
</g>
<!-- &#45;20 -->
<g id="node20" class="node"><title>&#45;20</title>
<polygon fill="lightgray" stroke="black" points="1083,-177.874 1054,-177.874 1054,-159.874 1083,-159.874 1083,-177.874"/>
<text text-anchor="middle" x="1068.5" y="-166.674" font-family="Times,serif" font-size="9.00">&#45;20</text>
</g>
<!-- &#45;20&#45;&gt;2 -->
<g id="edge1" class="edge"><title>&#45;20&#45;&gt;2</title>
<path fill="none" stroke="red" stroke-width="0.108867" d="M1063.54,-159.617C1056.46,-147.809 1043.18,-125.697 1033.24,-109.137"/>
<polygon fill="red" stroke="red" stroke-width="0.108867" points="1035.99,-106.92 1027.84,-100.147 1029.99,-110.523 1035.99,-106.92"/>
</g>
<!-- &#45;21 -->
<g id="node21" class="node"><title>&#45;21</title>
<polygon fill="lightgray" stroke="black" points="946,-177.874 917,-177.874 917,-159.874 946,-159.874 946,-177.874"/>
<text text-anchor="middle" x="931.5" y="-166.674" font-family="Times,serif" font-size="9.00">&#45;21</text>
</g>
<!-- &#45;21&#45;&gt;1 -->
<g id="edge9" class="edge"><title>&#45;21&#45;&gt;1</title>
<path fill="none" stroke="red" stroke-width="0.127804" d="M924.685,-159.435C920.243,-154.402 914.068,-148.216 907.5,-144.125 883.94,-129.45 808.752,-106.329 769.646,-94.852"/>
<polygon fill="red" stroke="red" stroke-width="0.127804" points="770.226,-91.3755 759.646,-91.9403 768.269,-98.0964 770.226,-91.3755"/>
</g>
<!-- &#45;21&#45;&gt;2 -->
<g id="edge46" class="edge"><title>&#45;21&#45;&gt;2</title>
<path fill="none" stroke="red" stroke-width="0.109502" d="M939.369,-159.821C943.993,-155.158 949.993,-149.221 955.5,-144.125 963.94,-136.316 985.779,-117.533 1001.82,-103.821"/>
<polygon fill="red" stroke="red" stroke-width="0.109502" points="1004.25,-106.352 1009.58,-97.198 999.705,-101.028 1004.25,-106.352"/>
</g>
<!-- &#45;22 -->
<g id="node22" class="node"><title>&#45;22</title>
<polygon fill="lightgray" stroke="black" points="630,-177.874 601,-177.874 601,-159.874 630,-159.874 630,-177.874"/>
<text text-anchor="middle" x="615.5" y="-166.674" font-family="Times,serif" font-size="9.00">&#45;22</text>
</g>
<!-- &#45;22&#45;&gt;1 -->
<g id="edge17" class="edge"><title>&#45;22&#45;&gt;1</title>
<path fill="none" stroke="green" stroke-width="0.115957" d="M622.549,-159.781C627.079,-154.878 633.266,-148.708 639.5,-144.125 666.135,-124.546 700.482,-107.64 722.743,-97.6161"/>
<polygon fill="green" stroke="green" stroke-width="0.115957" points="724.314,-100.749 732.05,-93.5101 721.488,-94.3444 724.314,-100.749"/>
</g>
<!-- &#45;22&#45;&gt;228 -->
<g id="edge23" class="edge"><title>&#45;22&#45;&gt;228</title>
<path fill="none" stroke="red" stroke-width="0.339132" d="M615.5,-159.617C615.5,-149.985 615.5,-133.495 615.5,-118.755"/>
<polygon fill="red" stroke="red" stroke-width="0.339132" points="619,-118.455 615.5,-108.455 612,-118.455 619,-118.455"/>
</g>
<!-- &#45;23 -->
<g id="node23" class="node"><title>&#45;23</title>
<polygon fill="lightgray" stroke="black" points="852,-177.874 823,-177.874 823,-159.874 852,-159.874 852,-177.874"/>
<text text-anchor="middle" x="837.5" y="-166.674" font-family="Times,serif" font-size="9.00">&#45;23</text>
</g>
<!-- &#45;23&#45;&gt;0 -->
<g id="edge2" class="edge"><title>&#45;23&#45;&gt;0</title>
<path fill="none" stroke="red" stroke-width="0.223094" d="M831.752,-159.825C827.401,-154.407 820.919,-147.633 813.5,-144.125 766.257,-121.783 396.764,-96.1295 296.519,-89.5266"/>
<polygon fill="red" stroke="red" stroke-width="0.223094" points="296.619,-86.0257 286.411,-88.8655 296.162,-93.0108 296.619,-86.0257"/>
</g>
<!-- &#45;23&#45;&gt;1 -->
<g id="edge43" class="edge"><title>&#45;23&#45;&gt;1</title>
<path fill="none" stroke="red" stroke-width="0.160957" d="M829.673,-159.775C825.064,-155.096 819.064,-149.159 813.5,-144.125 797.51,-129.657 778.542,-114.102 764.707,-103.03"/>
<polygon fill="red" stroke="red" stroke-width="0.160957" points="766.835,-100.25 756.829,-96.7662 762.478,-105.729 766.835,-100.25"/>
</g>
<!-- &#45;23&#45;&gt;2 -->
<g id="edge24" class="edge"><title>&#45;23&#45;&gt;2</title>
<path fill="none" stroke="green" stroke-width="0.16344" d="M843.484,-159.713C847.695,-154.528 853.765,-148.072 860.5,-144.125 914.445,-112.511 941.021,-136.963 996.5,-108.125 998.542,-107.063 1000.56,-105.802 1002.52,-104.435"/>
<polygon fill="green" stroke="green" stroke-width="0.16344" points="1004.86,-107.044 1010.48,-98.0639 1000.49,-101.577 1004.86,-107.044"/>
</g>
<!-- &#45;23&#45;&gt;3 -->
<g id="edge15" class="edge"><title>&#45;23&#45;&gt;3</title>
<path fill="none" stroke="red" stroke-width="0.365763" d="M834.72,-159.825C829.113,-142.443 817.632,-100.176 825.5,-65.6985 827.767,-55.7648 832.276,-45.5044 836.78,-36.8936"/>
<polygon fill="red" stroke="red" stroke-width="0.365763" points="839.937,-38.4179 841.743,-27.9781 833.821,-35.0132 839.937,-38.4179"/>
</g>
<!-- &#45;24 -->
<g id="node24" class="node"><title>&#45;24</title>
<polygon fill="lightgray" stroke="black" points="762,-177.874 733,-177.874 733,-159.874 762,-159.874 762,-177.874"/>
<text text-anchor="middle" x="747.5" y="-166.674" font-family="Times,serif" font-size="9.00">&#45;24</text>
</g>
<!-- &#45;24&#45;&gt;1 -->
<g id="edge5" class="edge"><title>&#45;24&#45;&gt;1</title>
<path fill="none" stroke="green" stroke-width="0.340716" d="M747.293,-159.617C747.016,-148.53 746.512,-128.356 746.108,-112.225"/>
<polygon fill="green" stroke="green" stroke-width="0.340716" points="749.598,-111.774 745.849,-101.864 742.6,-111.949 749.598,-111.774"/>
</g>
<!-- 0&#45;&gt;0 -->
<g id="edge22" class="edge"><title>0&#45;&gt;0</title>
<path fill="none" stroke="red" stroke-width="0.406232" d="M282.267,-97.6398C292.789,-103.566 304.349,-99.9898 304.349,-86.9117 304.349,-77.9205 298.885,-73.4205 292.051,-73.4117"/>
<polygon fill="red" stroke="red" stroke-width="0.406232" points="290.934,-70.0903 282.267,-76.1835 292.842,-76.8252 290.934,-70.0903"/>
</g>
<!-- 1&#45;&gt;1 -->
<g id="edge20" class="edge"><title>1&#45;&gt;1</title>
<path fill="none" stroke="green" stroke-width="0.290604" d="M756.267,-97.6398C766.789,-103.566 778.349,-99.9898 778.349,-86.9117 778.349,-77.9205 772.885,-73.4205 766.051,-73.4117"/>
<polygon fill="green" stroke="green" stroke-width="0.290604" points="764.934,-70.0903 756.267,-76.1835 766.842,-76.8252 764.934,-70.0903"/>
</g>
<!-- 3&#45;&gt;3 -->
<g id="edge14" class="edge"><title>3&#45;&gt;3</title>
<path fill="none" stroke="red" stroke-width="0.222471" d="M860.267,-25.5774C870.789,-31.5034 882.349,-27.9274 882.349,-14.8492 882.349,-5.85803 876.885,-1.35804 870.051,-1.34926"/>
<polygon fill="red" stroke="red" stroke-width="0.222471" points="868.934,1.97218 860.267,-4.12109 870.842,-4.76277 868.934,1.97218"/>
</g>
<!-- 228&#45;&gt;3 -->
<g id="edge33" class="edge"><title>228&#45;&gt;3</title>
<path fill="none" stroke="red" stroke-width="0.206092" d="M632.821,-74.6357C638.313,-71.4122 644.516,-68.1205 650.5,-65.6985 710.597,-41.3749 785.844,-26.4383 824.311,-19.8374"/>
<polygon fill="red" stroke="red" stroke-width="0.206092" points="825.289,-23.2227 834.577,-18.1253 824.138,-16.318 825.289,-23.2227"/>
</g>
<!-- 801 -->
<g id="node30" class="node"><title>801</title>
<ellipse fill="white" stroke="black" cx="561.5" cy="-168.874" rx="21.4286" ry="21.4286"/>
<text text-anchor="middle" x="561.5" y="-166.674" font-family="Times,serif" font-size="9.00">801</text>
</g>
<!-- 801&#45;&gt;228 -->
<g id="edge27" class="edge"><title>801&#45;&gt;228</title>
<path fill="none" stroke="green" stroke-width="0.166836" d="M572.952,-150.916C580.326,-139.996 590.047,-125.601 598.336,-113.327"/>
<polygon fill="green" stroke="green" stroke-width="0.166836" points="601.368,-115.091 604.064,-104.845 595.567,-111.174 601.368,-115.091"/>
</g>
<!-- 1006&#45;&gt;0 -->
<g id="edge52" class="edge"><title>1006&#45;&gt;0</title>
<path fill="none" stroke="red" stroke-width="0.714418" d="M271.5,-143.882C271.5,-133.883 271.5,-122.285 271.5,-112.249"/>
<polygon fill="red" stroke="red" stroke-width="0.714418" points="275,-112.121 271.5,-102.121 268,-112.121 275,-112.121"/>
</g>
<!-- 4792&#45;&gt;0 -->
<g id="edge42" class="edge"><title>4792&#45;&gt;0</title>
<path fill="none" stroke="green" stroke-width="0.335088" d="M184.942,-153.207C204.016,-138.819 232.939,-117 252.024,-102.603"/>
<polygon fill="green" stroke="green" stroke-width="0.335088" points="254.155,-105.38 260.03,-96.564 249.939,-99.7922 254.155,-105.38"/>
</g>
</g>
</svg>
