<?xml version="1.0" encoding="UTF-8" standalone="no"?>
<!DOCTYPE svg PUBLIC "-//W3C//DTD SVG 1.1//EN"
 "http://www.w3.org/Graphics/SVG/1.1/DTD/svg11.dtd">
<!-- Generated by graphviz version 2.38.0 (20140413.2041)
 -->
<!-- Title: %3 Pages: 1 -->
<svg width="821pt" height="263pt"
 viewBox="0.00 0.00 821.25 262.69" xmlns="http://www.w3.org/2000/svg" xmlns:xlink="http://www.w3.org/1999/xlink">
<g id="graph0" class="graph" transform="scale(1 1) rotate(0) translate(4 258.693)">
<title>%3</title>
<polygon fill="white" stroke="none" points="-4,4 -4,-258.693 817.249,-258.693 817.249,4 -4,4"/>
<!-- &#45;1 -->
<g id="node1" class="node"><title>&#45;1</title>
<polygon fill="lightgray" stroke="black" points="138.749,-184.945 114.749,-184.945 114.749,-166.945 138.749,-166.945 138.749,-184.945"/>
<text text-anchor="middle" x="126.749" y="-173.745" font-family="Times,serif" font-size="9.00">&#45;1</text>
</g>
<!-- 0 -->
<g id="node25" class="node"><title>0</title>
<ellipse fill="lightblue" stroke="black" cx="331.749" cy="-100.347" rx="14.7" ry="14.7"/>
<text text-anchor="middle" x="331.749" y="-98.1467" font-family="Times,serif" font-size="9.00">0</text>
</g>
<!-- &#45;1&#45;&gt;0 -->
<g id="edge13" class="edge"><title>&#45;1&#45;&gt;0</title>
<path fill="none" stroke="green" stroke-width="1.41221" d="M132.074,-166.785C135.86,-161.6 141.39,-155.144 147.749,-151.196 174.576,-134.538 263.648,-115.016 307.261,-106.155"/>
<polygon fill="green" stroke="green" stroke-width="1.41221" points="308.188,-109.539 317.304,-104.14 306.811,-102.676 308.188,-109.539"/>
</g>
<!-- 2 -->
<g id="node27" class="node"><title>2</title>
<ellipse fill="lightblue" stroke="black" cx="218.749" cy="-100.347" rx="14.7" ry="14.7"/>
<text text-anchor="middle" x="218.749" y="-98.1467" font-family="Times,serif" font-size="9.00">2</text>
</g>
<!-- &#45;1&#45;&gt;2 -->
<g id="edge22" class="edge"><title>&#45;1&#45;&gt;2</title>
<path fill="none" stroke="red" stroke-width="0.395812" d="M133.31,-166.592C137.246,-161.828 142.496,-155.891 147.749,-151.196 163.316,-137.281 182.844,-123.818 197.478,-114.398"/>
<polygon fill="red" stroke="red" stroke-width="0.395812" points="199.711,-117.127 206.297,-108.828 195.973,-111.209 199.711,-117.127"/>
</g>
<!-- &#45;2 -->
<g id="node2" class="node"><title>&#45;2</title>
<polygon fill="lightgray" stroke="black" points="364.749,-184.945 340.749,-184.945 340.749,-166.945 364.749,-166.945 364.749,-184.945"/>
<text text-anchor="middle" x="352.749" y="-173.745" font-family="Times,serif" font-size="9.00">&#45;2</text>
</g>
<!-- &#45;2&#45;&gt;0 -->
<g id="edge4" class="edge"><title>&#45;2&#45;&gt;0</title>
<path fill="none" stroke="red" stroke-width="0.323975" d="M350.421,-166.787C347.534,-156.668 342.489,-138.987 338.37,-124.553"/>
<polygon fill="red" stroke="red" stroke-width="0.323975" points="341.689,-123.427 335.579,-114.771 334.957,-125.347 341.689,-123.427"/>
</g>
<!-- 3 -->
<g id="node28" class="node"><title>3</title>
<ellipse fill="lightblue" stroke="black" cx="462.749" cy="-100.347" rx="14.7" ry="14.7"/>
<text text-anchor="middle" x="462.749" y="-98.1467" font-family="Times,serif" font-size="9.00">3</text>
</g>
<!-- &#45;2&#45;&gt;3 -->
<g id="edge31" class="edge"><title>&#45;2&#45;&gt;3</title>
<path fill="none" stroke="red" stroke-width="0.912342" d="M358.776,-166.837C362.687,-161.928 368.094,-155.757 373.749,-151.196 394.315,-134.61 421.137,-120.426 439.938,-111.477"/>
<polygon fill="red" stroke="red" stroke-width="0.912342" points="441.615,-114.558 449.215,-107.176 438.67,-108.207 441.615,-114.558"/>
</g>
<!-- &#45;3 -->
<g id="node3" class="node"><title>&#45;3</title>
<polygon fill="lightgray" stroke="black" points="727.749,-184.945 703.749,-184.945 703.749,-166.945 727.749,-166.945 727.749,-184.945"/>
<text text-anchor="middle" x="715.749" y="-173.745" font-family="Times,serif" font-size="9.00">&#45;3</text>
</g>
<!-- 1 -->
<g id="node26" class="node"><title>1</title>
<ellipse fill="lightblue" stroke="black" cx="533.749" cy="-100.347" rx="14.7" ry="14.7"/>
<text text-anchor="middle" x="533.749" y="-98.1467" font-family="Times,serif" font-size="9.00">1</text>
</g>
<!-- &#45;3&#45;&gt;1 -->
<g id="edge25" class="edge"><title>&#45;3&#45;&gt;1</title>
<path fill="none" stroke="green" stroke-width="0.600339" d="M710.385,-166.846C706.582,-161.687 701.049,-155.237 694.749,-151.196 648.236,-121.366 628.436,-131.849 575.749,-115.196 569.746,-113.299 563.279,-111.196 557.262,-109.214"/>
<polygon fill="green" stroke="green" stroke-width="0.600339" points="558.314,-105.875 547.721,-106.05 556.111,-112.52 558.314,-105.875"/>
</g>
<!-- &#45;4 -->
<g id="node4" class="node"><title>&#45;4</title>
<polygon fill="lightgray" stroke="black" points="406.749,-184.945 382.749,-184.945 382.749,-166.945 406.749,-166.945 406.749,-184.945"/>
<text text-anchor="middle" x="394.749" y="-173.745" font-family="Times,serif" font-size="9.00">&#45;4</text>
</g>
<!-- &#45;4&#45;&gt;0 -->
<g id="edge26" class="edge"><title>&#45;4&#45;&gt;0</title>
<path fill="none" stroke="red" stroke-width="0.614404" d="M387.766,-166.787C378.143,-155.545 360.531,-134.971 347.616,-119.883"/>
<polygon fill="red" stroke="red" stroke-width="0.614404" points="350.166,-117.48 341.004,-112.159 344.848,-122.032 350.166,-117.48"/>
</g>
<!-- &#45;4&#45;&gt;1 -->
<g id="edge36" class="edge"><title>&#45;4&#45;&gt;1</title>
<path fill="none" stroke="red" stroke-width="0.118564" d="M400.963,-166.632C405.022,-161.646 410.682,-155.465 416.749,-151.196 445.978,-130.628 485.023,-116.14 509.784,-108.266"/>
<polygon fill="red" stroke="red" stroke-width="0.118564" points="510.918,-111.579 519.45,-105.299 508.864,-104.888 510.918,-111.579"/>
</g>
<!-- &#45;4&#45;&gt;2 -->
<g id="edge10" class="edge"><title>&#45;4&#45;&gt;2</title>
<path fill="none" stroke="green" stroke-width="0.311191" d="M389.362,-166.882C385.549,-161.738 380.014,-155.291 373.749,-151.196 332.509,-124.239 275.575,-110.881 243.433,-105.101"/>
<polygon fill="green" stroke="green" stroke-width="0.311191" points="243.987,-101.645 233.542,-103.422 242.816,-108.546 243.987,-101.645"/>
</g>
<!-- &#45;4&#45;&gt;3 -->
<g id="edge14" class="edge"><title>&#45;4&#45;&gt;3</title>
<path fill="none" stroke="green" stroke-width="0.66765" d="M402.286,-166.787C412.673,-155.545 431.682,-134.971 445.622,-119.883"/>
<polygon fill="green" stroke="green" stroke-width="0.66765" points="448.543,-121.879 452.758,-112.159 443.402,-117.129 448.543,-121.879"/>
</g>
<!-- &#45;5 -->
<g id="node5" class="node"><title>&#45;5</title>
<polygon fill="lightgray" stroke="black" points="322.749,-184.945 298.749,-184.945 298.749,-166.945 322.749,-166.945 322.749,-184.945"/>
<text text-anchor="middle" x="310.749" y="-173.745" font-family="Times,serif" font-size="9.00">&#45;5</text>
</g>
<!-- &#45;5&#45;&gt;0 -->
<g id="edge19" class="edge"><title>&#45;5&#45;&gt;0</title>
<path fill="none" stroke="red" stroke-width="0.271102" d="M313.076,-166.787C315.964,-156.668 321.009,-138.987 325.127,-124.553"/>
<polygon fill="red" stroke="red" stroke-width="0.271102" points="328.54,-125.347 327.918,-114.771 321.809,-123.427 328.54,-125.347"/>
</g>
<!-- &#45;6 -->
<g id="node6" class="node"><title>&#45;6</title>
<polygon fill="lightgray" stroke="black" points="590.749,-184.945 566.749,-184.945 566.749,-166.945 590.749,-166.945 590.749,-184.945"/>
<text text-anchor="middle" x="578.749" y="-173.745" font-family="Times,serif" font-size="9.00">&#45;6</text>
</g>
<!-- &#45;6&#45;&gt;3 -->
<g id="edge8" class="edge"><title>&#45;6&#45;&gt;3</title>
<path fill="none" stroke="red" stroke-width="0.151024" d="M572.765,-166.782C568.87,-161.853 563.466,-155.679 557.749,-151.196 535.305,-133.597 505.72,-119.216 485.568,-110.5"/>
<polygon fill="red" stroke="red" stroke-width="0.151024" points="486.817,-107.229 476.242,-106.58 484.104,-113.682 486.817,-107.229"/>
</g>
<!-- &#45;7 -->
<g id="node7" class="node"><title>&#45;7</title>
<polygon fill="lightgray" stroke="black" points="446.749,-254.693 422.749,-254.693 422.749,-236.693 446.749,-236.693 446.749,-254.693"/>
<text text-anchor="middle" x="434.749" y="-243.493" font-family="Times,serif" font-size="9.00">&#45;7</text>
</g>
<!-- &#45;8 -->
<g id="node8" class="node"><title>&#45;8</title>
<polygon fill="lightgray" stroke="black" points="488.749,-254.693 464.749,-254.693 464.749,-236.693 488.749,-236.693 488.749,-254.693"/>
<text text-anchor="middle" x="476.749" y="-243.493" font-family="Times,serif" font-size="9.00">&#45;8</text>
</g>
<!-- &#45;9 -->
<g id="node9" class="node"><title>&#45;9</title>
<polygon fill="lightgray" stroke="black" points="530.749,-254.693 506.749,-254.693 506.749,-236.693 530.749,-236.693 530.749,-254.693"/>
<text text-anchor="middle" x="518.749" y="-243.493" font-family="Times,serif" font-size="9.00">&#45;9</text>
</g>
<!-- &#45;10 -->
<g id="node10" class="node"><title>&#45;10</title>
<polygon fill="lightgray" stroke="black" points="186.249,-184.945 157.249,-184.945 157.249,-166.945 186.249,-166.945 186.249,-184.945"/>
<text text-anchor="middle" x="171.749" y="-173.745" font-family="Times,serif" font-size="9.00">&#45;10</text>
</g>
<!-- &#45;10&#45;&gt;0 -->
<g id="edge35" class="edge"><title>&#45;10&#45;&gt;0</title>
<path fill="none" stroke="green" stroke-width="0.434423" d="M178.235,-166.528C182.475,-161.503 188.391,-155.317 194.749,-151.196 230.529,-127.999 278.551,-113.744 307.204,-106.708"/>
<polygon fill="green" stroke="green" stroke-width="0.434423" points="308.24,-110.06 317.172,-104.362 306.636,-103.247 308.24,-110.06"/>
</g>
<!-- &#45;10&#45;&gt;2 -->
<g id="edge2" class="edge"><title>&#45;10&#45;&gt;2</title>
<path fill="none" stroke="red" stroke-width="0.150259" d="M176.958,-166.787C183.846,-156.002 196.22,-136.625 205.722,-121.745"/>
<polygon fill="red" stroke="red" stroke-width="0.150259" points="208.76,-123.491 211.192,-113.179 202.86,-119.723 208.76,-123.491"/>
</g>
<!-- &#45;11 -->
<g id="node11" class="node"><title>&#45;11</title>
<polygon fill="lightgray" stroke="black" points="280.249,-184.945 251.249,-184.945 251.249,-166.945 280.249,-166.945 280.249,-184.945"/>
<text text-anchor="middle" x="265.749" y="-173.745" font-family="Times,serif" font-size="9.00">&#45;11</text>
</g>
<!-- &#45;11&#45;&gt;2 -->
<g id="edge34" class="edge"><title>&#45;11&#45;&gt;2</title>
<path fill="none" stroke="green" stroke-width="0.261518" d="M260.539,-166.787C253.652,-156.002 241.278,-136.625 231.775,-121.745"/>
<polygon fill="green" stroke="green" stroke-width="0.261518" points="234.637,-119.723 226.305,-113.179 228.737,-123.491 234.637,-119.723"/>
</g>
<!-- &#45;11&#45;&gt;3 -->
<g id="edge23" class="edge"><title>&#45;11&#45;&gt;3</title>
<path fill="none" stroke="green" stroke-width="0.744301" d="M272.092,-166.84C276.528,-161.679 282.872,-155.228 289.749,-151.196 337.679,-123.091 402.46,-109.982 437.58,-104.594"/>
<polygon fill="green" stroke="green" stroke-width="0.744301" points="438.484,-108 447.881,-103.106 437.484,-101.071 438.484,-108"/>
</g>
<!-- &#45;12 -->
<g id="node12" class="node"><title>&#45;12</title>
<polygon fill="lightgray" stroke="black" points="638.249,-184.945 609.249,-184.945 609.249,-166.945 638.249,-166.945 638.249,-184.945"/>
<text text-anchor="middle" x="623.749" y="-173.745" font-family="Times,serif" font-size="9.00">&#45;12</text>
</g>
<!-- &#45;12&#45;&gt;3 -->
<g id="edge30" class="edge"><title>&#45;12&#45;&gt;3</title>
<path fill="none" stroke="red" stroke-width="0.485972" d="M616.912,-166.541C612.462,-161.521 606.286,-155.336 599.749,-151.196 580.467,-138.985 520.363,-119.24 486.521,-108.635"/>
<polygon fill="red" stroke="red" stroke-width="0.485972" points="487.524,-105.282 476.936,-105.656 485.446,-111.966 487.524,-105.282"/>
</g>
<!-- &#45;13 -->
<g id="node13" class="node"><title>&#45;13</title>
<polygon fill="lightgray" stroke="black" points="578.249,-254.693 549.249,-254.693 549.249,-236.693 578.249,-236.693 578.249,-254.693"/>
<text text-anchor="middle" x="563.749" y="-243.493" font-family="Times,serif" font-size="9.00">&#45;13</text>
</g>
<!-- &#45;14 -->
<g id="node14" class="node"><title>&#45;14</title>
<polygon fill="lightgray" stroke="black" points="625.249,-254.693 596.249,-254.693 596.249,-236.693 625.249,-236.693 625.249,-254.693"/>
<text text-anchor="middle" x="610.749" y="-243.493" font-family="Times,serif" font-size="9.00">&#45;14</text>
</g>
<!-- &#45;15 -->
<g id="node15" class="node"><title>&#45;15</title>
<polygon fill="lightgray" stroke="black" points="96.2487,-184.945 67.2487,-184.945 67.2487,-166.945 96.2487,-166.945 96.2487,-184.945"/>
<text text-anchor="middle" x="81.7487" y="-173.745" font-family="Times,serif" font-size="9.00">&#45;15</text>
</g>
<!-- &#45;15&#45;&gt;2 -->
<g id="edge9" class="edge"><title>&#45;15&#45;&gt;2</title>
<path fill="none" stroke="green" stroke-width="0.339364" d="M88.6848,-166.692C93.1721,-161.729 99.3531,-155.551 105.749,-151.196 134.156,-131.853 171.288,-117.19 195.084,-108.93"/>
<polygon fill="green" stroke="green" stroke-width="0.339364" points="196.342,-112.199 204.7,-105.689 194.106,-105.566 196.342,-112.199"/>
</g>
<!-- &#45;16 -->
<g id="node16" class="node"><title>&#45;16</title>
<polygon fill="lightgray" stroke="black" points="501.249,-184.945 472.249,-184.945 472.249,-166.945 501.249,-166.945 501.249,-184.945"/>
<text text-anchor="middle" x="486.749" y="-173.745" font-family="Times,serif" font-size="9.00">&#45;16</text>
</g>
<!-- &#45;16&#45;&gt;0 -->
<g id="edge17" class="edge"><title>&#45;16&#45;&gt;0</title>
<path fill="none" stroke="red" stroke-width="0.139312" d="M480.245,-166.555C475.998,-161.54 470.081,-155.356 463.749,-151.196 429.588,-128.754 383.884,-114.39 356.195,-107.107"/>
<polygon fill="red" stroke="red" stroke-width="0.139312" points="356.742,-103.636 346.189,-104.579 355.027,-110.422 356.742,-103.636"/>
</g>
<!-- &#45;16&#45;&gt;1 -->
<g id="edge24" class="edge"><title>&#45;16&#45;&gt;1</title>
<path fill="none" stroke="red" stroke-width="0.258051" d="M491.958,-166.787C498.846,-156.002 511.22,-136.625 520.722,-121.745"/>
<polygon fill="red" stroke="red" stroke-width="0.258051" points="523.76,-123.491 526.192,-113.179 517.86,-119.723 523.76,-123.491"/>
</g>
<!-- &#45;16&#45;&gt;3 -->
<g id="edge7" class="edge"><title>&#45;16&#45;&gt;3</title>
<path fill="none" stroke="red" stroke-width="0.50214" d="M484.089,-166.787C480.789,-156.668 475.023,-138.987 470.316,-124.553"/>
<polygon fill="red" stroke="red" stroke-width="0.50214" points="473.554,-123.193 467.126,-114.771 466.899,-125.363 473.554,-123.193"/>
</g>
<!-- &#45;17 -->
<g id="node17" class="node"><title>&#45;17</title>
<polygon fill="lightgray" stroke="black" points="404.249,-254.693 375.249,-254.693 375.249,-236.693 404.249,-236.693 404.249,-254.693"/>
<text text-anchor="middle" x="389.749" y="-243.493" font-family="Times,serif" font-size="9.00">&#45;17</text>
</g>
<!-- &#45;17&#45;&gt;1 -->
<g id="edge11" class="edge"><title>&#45;17&#45;&gt;1</title>
<path fill="none" stroke="red" stroke-width="0.864591" d="M404.335,-239.288C407.411,-238.302 410.66,-237.372 413.749,-236.693 484.287,-221.188 688.591,-254.516 736.749,-200.693 751.417,-184.299 750.503,-168.365 736.749,-151.196 690.906,-93.9711 646.43,-134.7 575.749,-115.196 569.68,-113.521 563.189,-111.498 557.171,-109.522"/>
<polygon fill="red" stroke="red" stroke-width="0.864591" points="558.238,-106.189 547.644,-106.311 556.001,-112.822 558.238,-106.189"/>
</g>
<!-- 4033 -->
<g id="node29" class="node"><title>4033</title>
<ellipse fill="white" stroke="black" cx="24.7487" cy="-175.945" rx="25" ry="25"/>
<text text-anchor="middle" x="24.7487" y="-173.745" font-family="Times,serif" font-size="9.00">4033</text>
</g>
<!-- &#45;17&#45;&gt;4033 -->
<g id="edge15" class="edge"><title>&#45;17&#45;&gt;4033</title>
<path fill="none" stroke="green" stroke-width="0.331181" d="M375.211,-245.235C327.696,-246.5 173.401,-246.589 57.7487,-200.693 55.8789,-199.951 54.0164,-199.08 52.1828,-198.118"/>
<polygon fill="green" stroke="green" stroke-width="0.331181" points="53.7127,-194.951 43.355,-192.722 50.062,-200.924 53.7127,-194.951"/>
</g>
<!-- &#45;18 -->
<g id="node18" class="node"><title>&#45;18</title>
<polygon fill="lightgray" stroke="black" points="672.249,-254.693 643.249,-254.693 643.249,-236.693 672.249,-236.693 672.249,-254.693"/>
<text text-anchor="middle" x="657.749" y="-243.493" font-family="Times,serif" font-size="9.00">&#45;18</text>
</g>
<!-- &#45;19 -->
<g id="node19" class="node"><title>&#45;19</title>
<polygon fill="lightgray" stroke="black" points="685.249,-184.945 656.249,-184.945 656.249,-166.945 685.249,-166.945 685.249,-184.945"/>
<text text-anchor="middle" x="670.749" y="-173.745" font-family="Times,serif" font-size="9.00">&#45;19</text>
</g>
<!-- &#45;19&#45;&gt;1 -->
<g id="edge20" class="edge"><title>&#45;19&#45;&gt;1</title>
<path fill="none" stroke="red" stroke-width="0.461871" d="M664.168,-166.668C659.893,-161.695 653.972,-155.516 647.749,-151.196 619.307,-131.452 581.792,-116.891 557.715,-108.762"/>
<polygon fill="red" stroke="red" stroke-width="0.461871" points="558.574,-105.36 547.981,-105.58 556.398,-112.014 558.574,-105.36"/>
</g>
<!-- &#45;19&#45;&gt;3 -->
<g id="edge5" class="edge"><title>&#45;19&#45;&gt;3</title>
<path fill="none" stroke="green" stroke-width="0.106642" d="M664.769,-166.776C660.56,-161.587 654.49,-155.131 647.749,-151.196 593.004,-119.245 570.824,-132.156 509.749,-115.196 502.172,-113.092 493.939,-110.702 486.512,-108.506"/>
<polygon fill="green" stroke="green" stroke-width="0.106642" points="487.284,-105.084 476.701,-105.583 485.284,-111.793 487.284,-105.084"/>
</g>
<!-- &#45;20 -->
<g id="node20" class="node"><title>&#45;20</title>
<polygon fill="lightgray" stroke="black" points="454.249,-184.945 425.249,-184.945 425.249,-166.945 454.249,-166.945 454.249,-184.945"/>
<text text-anchor="middle" x="439.749" y="-173.745" font-family="Times,serif" font-size="9.00">&#45;20</text>
</g>
<!-- &#45;20&#45;&gt;1 -->
<g id="edge28" class="edge"><title>&#45;20&#45;&gt;1</title>
<path fill="none" stroke="red" stroke-width="0.37615" d="M447.443,-166.693C452.008,-161.964 458.008,-156.027 463.749,-151.196 479.481,-137.959 498.561,-124.527 512.825,-114.947"/>
<polygon fill="red" stroke="red" stroke-width="0.37615" points="515.02,-117.691 521.42,-109.248 511.151,-111.857 515.02,-117.691"/>
</g>
<!-- &#45;20&#45;&gt;2 -->
<g id="edge1" class="edge"><title>&#45;20&#45;&gt;2</title>
<path fill="none" stroke="red" stroke-width="0.425541" d="M433.448,-166.766C429.03,-161.573 422.691,-155.115 415.749,-151.196 386.099,-134.456 289.162,-114.619 243.264,-105.873"/>
<polygon fill="red" stroke="red" stroke-width="0.425541" points="243.746,-102.402 233.271,-103.991 242.45,-109.281 243.746,-102.402"/>
</g>
<!-- &#45;20&#45;&gt;3 -->
<g id="edge12" class="edge"><title>&#45;20&#45;&gt;3</title>
<path fill="none" stroke="green" stroke-width="0.160506" d="M442.298,-166.787C445.46,-156.668 450.986,-138.987 455.497,-124.553"/>
<polygon fill="green" stroke="green" stroke-width="0.160506" points="458.911,-125.36 458.554,-114.771 452.23,-123.272 458.911,-125.36"/>
</g>
<!-- &#45;21 -->
<g id="node21" class="node"><title>&#45;21</title>
<polygon fill="lightgray" stroke="black" points="233.249,-184.945 204.249,-184.945 204.249,-166.945 233.249,-166.945 233.249,-184.945"/>
<text text-anchor="middle" x="218.749" y="-173.745" font-family="Times,serif" font-size="9.00">&#45;21</text>
</g>
<!-- &#45;21&#45;&gt;0 -->
<g id="edge16" class="edge"><title>&#45;21&#45;&gt;0</title>
<path fill="none" stroke="red" stroke-width="0.676018" d="M225.476,-166.869C229.807,-161.973 235.734,-155.803 241.749,-151.196 263.024,-134.901 290.275,-120.584 309.19,-111.523"/>
<polygon fill="red" stroke="red" stroke-width="0.676018" points="310.924,-114.576 318.497,-107.166 307.956,-108.236 310.924,-114.576"/>
</g>
<!-- &#45;21&#45;&gt;2 -->
<g id="edge32" class="edge"><title>&#45;21&#45;&gt;2</title>
<path fill="none" stroke="red" stroke-width="0.709249" d="M218.749,-166.787C218.749,-156.886 218.749,-139.744 218.749,-125.488"/>
<polygon fill="red" stroke="red" stroke-width="0.709249" points="222.249,-125.317 218.749,-115.317 215.249,-125.317 222.249,-125.317"/>
</g>
<!-- &#45;22 -->
<g id="node22" class="node"><title>&#45;22</title>
<polygon fill="lightgray" stroke="black" points="613.249,-109.347 584.249,-109.347 584.249,-91.3467 613.249,-91.3467 613.249,-109.347"/>
<text text-anchor="middle" x="598.749" y="-98.1467" font-family="Times,serif" font-size="9.00">&#45;22</text>
</g>
<!-- 3891 -->
<g id="node30" class="node"><title>3891</title>
<ellipse fill="white" stroke="black" cx="408.749" cy="-24.7487" rx="25" ry="25"/>
<text text-anchor="middle" x="408.749" y="-22.5487" font-family="Times,serif" font-size="9.00">3891</text>
</g>
<!-- &#45;22&#45;&gt;3891 -->
<g id="edge21" class="edge"><title>&#45;22&#45;&gt;3891</title>
<path fill="none" stroke="red" stroke-width="0.642634" d="M586.344,-91.264C582.979,-89.2428 579.286,-87.175 575.749,-85.4975 530.993,-64.2744 476.545,-46.132 442.257,-35.5782"/>
<polygon fill="red" stroke="red" stroke-width="0.642634" points="442.881,-32.11 432.296,-32.5515 440.846,-38.8077 442.881,-32.11"/>
</g>
<!-- &#45;23 -->
<g id="node23" class="node"><title>&#45;23</title>
<polygon fill="lightgray" stroke="black" points="813.249,-184.945 784.249,-184.945 784.249,-166.945 813.249,-166.945 813.249,-184.945"/>
<text text-anchor="middle" x="798.749" y="-173.745" font-family="Times,serif" font-size="9.00">&#45;23</text>
</g>
<!-- &#45;23&#45;&gt;1 -->
<g id="edge29" class="edge"><title>&#45;23&#45;&gt;1</title>
<path fill="none" stroke="green" stroke-width="0.31102" d="M790.897,-166.64C785.458,-161.394 777.775,-154.924 769.749,-151.196 690.215,-114.255 660.695,-136.977 575.749,-115.196 569.65,-113.632 563.149,-111.649 557.13,-109.676"/>
<polygon fill="green" stroke="green" stroke-width="0.31102" points="558.203,-106.345 547.609,-106.441 555.951,-112.972 558.203,-106.345"/>
</g>
<!-- &#45;24 -->
<g id="node24" class="node"><title>&#45;24</title>
<polygon fill="lightgray" stroke="black" points="548.249,-184.945 519.249,-184.945 519.249,-166.945 548.249,-166.945 548.249,-184.945"/>
<text text-anchor="middle" x="533.749" y="-173.745" font-family="Times,serif" font-size="9.00">&#45;24</text>
</g>
<!-- &#45;24&#45;&gt;0 -->
<g id="edge33" class="edge"><title>&#45;24&#45;&gt;0</title>
<path fill="none" stroke="green" stroke-width="0.184872" d="M527.748,-166.812C523.53,-161.639 517.458,-155.186 510.749,-151.196 460.997,-121.609 393.047,-109.008 356.854,-104.117"/>
<polygon fill="green" stroke="green" stroke-width="0.184872" points="357.055,-100.615 346.696,-102.836 356.18,-107.56 357.055,-100.615"/>
</g>
<!-- &#45;24&#45;&gt;1 -->
<g id="edge6" class="edge"><title>&#45;24&#45;&gt;1</title>
<path fill="none" stroke="green" stroke-width="0.148244" d="M533.749,-166.787C533.749,-156.886 533.749,-139.744 533.749,-125.488"/>
<polygon fill="green" stroke="green" stroke-width="0.148244" points="537.249,-125.317 533.749,-115.317 530.249,-125.317 537.249,-125.317"/>
</g>
<!-- 1&#45;&gt;1 -->
<g id="edge18" class="edge"><title>1&#45;&gt;1</title>
<path fill="none" stroke="green" stroke-width="0.249393" d="M544.176,-111.173C554.787,-117.541 566.598,-113.933 566.598,-100.347 566.598,-91.0064 561.016,-86.3818 554.079,-86.473"/>
<polygon fill="green" stroke="green" stroke-width="0.249393" points="552.705,-83.2338 544.176,-89.5204 554.764,-89.9242 552.705,-83.2338"/>
</g>
<!-- 2&#45;&gt;3891 -->
<g id="edge3" class="edge"><title>2&#45;&gt;3891</title>
<path fill="none" stroke="green" stroke-width="0.461978" d="M232.413,-94.0537C262.268,-82.4891 334.017,-54.6968 376.219,-38.3494"/>
<polygon fill="green" stroke="green" stroke-width="0.461978" points="377.702,-41.5285 385.762,-34.6527 375.173,-35.0011 377.702,-41.5285"/>
</g>
<!-- 4033&#45;&gt;2 -->
<g id="edge27" class="edge"><title>4033&#45;&gt;2</title>
<path fill="none" stroke="red" stroke-width="0.109913" d="M43.6282,-159.779C48.0875,-156.652 52.9467,-153.587 57.7487,-151.196 103.637,-128.345 162.121,-113.424 194.469,-106.281"/>
<polygon fill="red" stroke="red" stroke-width="0.109913" points="195.337,-109.674 204.381,-104.157 193.87,-102.83 195.337,-109.674"/>
</g>
</g>
</svg>
