<?xml version="1.0" encoding="utf-8" standalone="no"?>
<!DOCTYPE svg PUBLIC "-//W3C//DTD SVG 1.1//EN"
  "http://www.w3.org/Graphics/SVG/1.1/DTD/svg11.dtd">
<!-- Created with matplotlib (http://matplotlib.org/) -->
<svg height="345.6pt" version="1.1" viewBox="0 0 460.8 345.6" width="460.8pt" xmlns="http://www.w3.org/2000/svg" xmlns:xlink="http://www.w3.org/1999/xlink">
 <defs>
  <style type="text/css">
*{stroke-linecap:butt;stroke-linejoin:round;}
  </style>
 </defs>
 <g id="figure_1">
  <g id="patch_1">
   <path d="M 0 345.6 
L 460.8 345.6 
L 460.8 0 
L 0 0 
z
" style="fill:#ffffff;"/>
  </g>
  <g id="axes_1">
   <g id="patch_2">
    <path d="M 57.6 307.584 
L 414.72 307.584 
L 414.72 41.472 
L 57.6 41.472 
z
" style="fill:#ffffff;"/>
   </g>
   <g id="matplotlib.axis_1">
    <g id="xtick_1">
     <g id="line2d_1">
      <path clip-path="url(#pd88022eeef)" d="M 73.832727 307.584 
L 73.832727 41.472 
" style="fill:none;stroke:#b0b0b0;stroke-linecap:square;stroke-width:0.8;"/>
     </g>
     <g id="line2d_2">
      <defs>
       <path d="M 0 0 
L 0 3.5 
" id="m6e1e44e7c5" style="stroke:#000000;stroke-width:0.8;"/>
      </defs>
      <g>
       <use style="stroke:#000000;stroke-width:0.8;" x="73.832727" xlink:href="#m6e1e44e7c5" y="307.584"/>
      </g>
     </g>
     <g id="text_1">
      <!-- 0 -->
      <defs>
       <path d="M 31.78125 66.40625 
Q 24.171875 66.40625 20.328125 58.90625 
Q 16.5 51.421875 16.5 36.375 
Q 16.5 21.390625 20.328125 13.890625 
Q 24.171875 6.390625 31.78125 6.390625 
Q 39.453125 6.390625 43.28125 13.890625 
Q 47.125 21.390625 47.125 36.375 
Q 47.125 51.421875 43.28125 58.90625 
Q 39.453125 66.40625 31.78125 66.40625 
z
M 31.78125 74.21875 
Q 44.046875 74.21875 50.515625 64.515625 
Q 56.984375 54.828125 56.984375 36.375 
Q 56.984375 17.96875 50.515625 8.265625 
Q 44.046875 -1.421875 31.78125 -1.421875 
Q 19.53125 -1.421875 13.0625 8.265625 
Q 6.59375 17.96875 6.59375 36.375 
Q 6.59375 54.828125 13.0625 64.515625 
Q 19.53125 74.21875 31.78125 74.21875 
z
" id="DejaVuSans-30"/>
      </defs>
      <g transform="translate(70.651477 322.182437)scale(0.1 -0.1)">
       <use xlink:href="#DejaVuSans-30"/>
      </g>
     </g>
    </g>
    <g id="xtick_2">
     <g id="line2d_3">
      <path clip-path="url(#pd88022eeef)" d="M 128.122785 307.584 
L 128.122785 41.472 
" style="fill:none;stroke:#b0b0b0;stroke-linecap:square;stroke-width:0.8;"/>
     </g>
     <g id="line2d_4">
      <g>
       <use style="stroke:#000000;stroke-width:0.8;" x="128.122785" xlink:href="#m6e1e44e7c5" y="307.584"/>
      </g>
     </g>
     <g id="text_2">
      <!-- 50 -->
      <defs>
       <path d="M 10.796875 72.90625 
L 49.515625 72.90625 
L 49.515625 64.59375 
L 19.828125 64.59375 
L 19.828125 46.734375 
Q 21.96875 47.46875 24.109375 47.828125 
Q 26.265625 48.1875 28.421875 48.1875 
Q 40.625 48.1875 47.75 41.5 
Q 54.890625 34.8125 54.890625 23.390625 
Q 54.890625 11.625 47.5625 5.09375 
Q 40.234375 -1.421875 26.90625 -1.421875 
Q 22.3125 -1.421875 17.546875 -0.640625 
Q 12.796875 0.140625 7.71875 1.703125 
L 7.71875 11.625 
Q 12.109375 9.234375 16.796875 8.0625 
Q 21.484375 6.890625 26.703125 6.890625 
Q 35.15625 6.890625 40.078125 11.328125 
Q 45.015625 15.765625 45.015625 23.390625 
Q 45.015625 31 40.078125 35.4375 
Q 35.15625 39.890625 26.703125 39.890625 
Q 22.75 39.890625 18.8125 39.015625 
Q 14.890625 38.140625 10.796875 36.28125 
z
" id="DejaVuSans-35"/>
      </defs>
      <g transform="translate(121.760285 322.182437)scale(0.1 -0.1)">
       <use xlink:href="#DejaVuSans-35"/>
       <use x="63.623047" xlink:href="#DejaVuSans-30"/>
      </g>
     </g>
    </g>
    <g id="xtick_3">
     <g id="line2d_5">
      <path clip-path="url(#pd88022eeef)" d="M 182.412843 307.584 
L 182.412843 41.472 
" style="fill:none;stroke:#b0b0b0;stroke-linecap:square;stroke-width:0.8;"/>
     </g>
     <g id="line2d_6">
      <g>
       <use style="stroke:#000000;stroke-width:0.8;" x="182.412843" xlink:href="#m6e1e44e7c5" y="307.584"/>
      </g>
     </g>
     <g id="text_3">
      <!-- 100 -->
      <defs>
       <path d="M 12.40625 8.296875 
L 28.515625 8.296875 
L 28.515625 63.921875 
L 10.984375 60.40625 
L 10.984375 69.390625 
L 28.421875 72.90625 
L 38.28125 72.90625 
L 38.28125 8.296875 
L 54.390625 8.296875 
L 54.390625 0 
L 12.40625 0 
z
" id="DejaVuSans-31"/>
      </defs>
      <g transform="translate(172.869093 322.182437)scale(0.1 -0.1)">
       <use xlink:href="#DejaVuSans-31"/>
       <use x="63.623047" xlink:href="#DejaVuSans-30"/>
       <use x="127.246094" xlink:href="#DejaVuSans-30"/>
      </g>
     </g>
    </g>
    <g id="xtick_4">
     <g id="line2d_7">
      <path clip-path="url(#pd88022eeef)" d="M 236.702901 307.584 
L 236.702901 41.472 
" style="fill:none;stroke:#b0b0b0;stroke-linecap:square;stroke-width:0.8;"/>
     </g>
     <g id="line2d_8">
      <g>
       <use style="stroke:#000000;stroke-width:0.8;" x="236.702901" xlink:href="#m6e1e44e7c5" y="307.584"/>
      </g>
     </g>
     <g id="text_4">
      <!-- 150 -->
      <g transform="translate(227.159151 322.182437)scale(0.1 -0.1)">
       <use xlink:href="#DejaVuSans-31"/>
       <use x="63.623047" xlink:href="#DejaVuSans-35"/>
       <use x="127.246094" xlink:href="#DejaVuSans-30"/>
      </g>
     </g>
    </g>
    <g id="xtick_5">
     <g id="line2d_9">
      <path clip-path="url(#pd88022eeef)" d="M 290.992958 307.584 
L 290.992958 41.472 
" style="fill:none;stroke:#b0b0b0;stroke-linecap:square;stroke-width:0.8;"/>
     </g>
     <g id="line2d_10">
      <g>
       <use style="stroke:#000000;stroke-width:0.8;" x="290.992958" xlink:href="#m6e1e44e7c5" y="307.584"/>
      </g>
     </g>
     <g id="text_5">
      <!-- 200 -->
      <defs>
       <path d="M 19.1875 8.296875 
L 53.609375 8.296875 
L 53.609375 0 
L 7.328125 0 
L 7.328125 8.296875 
Q 12.9375 14.109375 22.625 23.890625 
Q 32.328125 33.6875 34.8125 36.53125 
Q 39.546875 41.84375 41.421875 45.53125 
Q 43.3125 49.21875 43.3125 52.78125 
Q 43.3125 58.59375 39.234375 62.25 
Q 35.15625 65.921875 28.609375 65.921875 
Q 23.96875 65.921875 18.8125 64.3125 
Q 13.671875 62.703125 7.8125 59.421875 
L 7.8125 69.390625 
Q 13.765625 71.78125 18.9375 73 
Q 24.125 74.21875 28.421875 74.21875 
Q 39.75 74.21875 46.484375 68.546875 
Q 53.21875 62.890625 53.21875 53.421875 
Q 53.21875 48.921875 51.53125 44.890625 
Q 49.859375 40.875 45.40625 35.40625 
Q 44.1875 33.984375 37.640625 27.21875 
Q 31.109375 20.453125 19.1875 8.296875 
z
" id="DejaVuSans-32"/>
      </defs>
      <g transform="translate(281.449208 322.182437)scale(0.1 -0.1)">
       <use xlink:href="#DejaVuSans-32"/>
       <use x="63.623047" xlink:href="#DejaVuSans-30"/>
       <use x="127.246094" xlink:href="#DejaVuSans-30"/>
      </g>
     </g>
    </g>
    <g id="xtick_6">
     <g id="line2d_11">
      <path clip-path="url(#pd88022eeef)" d="M 345.283016 307.584 
L 345.283016 41.472 
" style="fill:none;stroke:#b0b0b0;stroke-linecap:square;stroke-width:0.8;"/>
     </g>
     <g id="line2d_12">
      <g>
       <use style="stroke:#000000;stroke-width:0.8;" x="345.283016" xlink:href="#m6e1e44e7c5" y="307.584"/>
      </g>
     </g>
     <g id="text_6">
      <!-- 250 -->
      <g transform="translate(335.739266 322.182437)scale(0.1 -0.1)">
       <use xlink:href="#DejaVuSans-32"/>
       <use x="63.623047" xlink:href="#DejaVuSans-35"/>
       <use x="127.246094" xlink:href="#DejaVuSans-30"/>
      </g>
     </g>
    </g>
    <g id="xtick_7">
     <g id="line2d_13">
      <path clip-path="url(#pd88022eeef)" d="M 399.573074 307.584 
L 399.573074 41.472 
" style="fill:none;stroke:#b0b0b0;stroke-linecap:square;stroke-width:0.8;"/>
     </g>
     <g id="line2d_14">
      <g>
       <use style="stroke:#000000;stroke-width:0.8;" x="399.573074" xlink:href="#m6e1e44e7c5" y="307.584"/>
      </g>
     </g>
     <g id="text_7">
      <!-- 300 -->
      <defs>
       <path d="M 40.578125 39.3125 
Q 47.65625 37.796875 51.625 33 
Q 55.609375 28.21875 55.609375 21.1875 
Q 55.609375 10.40625 48.1875 4.484375 
Q 40.765625 -1.421875 27.09375 -1.421875 
Q 22.515625 -1.421875 17.65625 -0.515625 
Q 12.796875 0.390625 7.625 2.203125 
L 7.625 11.71875 
Q 11.71875 9.328125 16.59375 8.109375 
Q 21.484375 6.890625 26.8125 6.890625 
Q 36.078125 6.890625 40.9375 10.546875 
Q 45.796875 14.203125 45.796875 21.1875 
Q 45.796875 27.640625 41.28125 31.265625 
Q 36.765625 34.90625 28.71875 34.90625 
L 20.21875 34.90625 
L 20.21875 43.015625 
L 29.109375 43.015625 
Q 36.375 43.015625 40.234375 45.921875 
Q 44.09375 48.828125 44.09375 54.296875 
Q 44.09375 59.90625 40.109375 62.90625 
Q 36.140625 65.921875 28.71875 65.921875 
Q 24.65625 65.921875 20.015625 65.03125 
Q 15.375 64.15625 9.8125 62.3125 
L 9.8125 71.09375 
Q 15.4375 72.65625 20.34375 73.4375 
Q 25.25 74.21875 29.59375 74.21875 
Q 40.828125 74.21875 47.359375 69.109375 
Q 53.90625 64.015625 53.90625 55.328125 
Q 53.90625 49.265625 50.4375 45.09375 
Q 46.96875 40.921875 40.578125 39.3125 
z
" id="DejaVuSans-33"/>
      </defs>
      <g transform="translate(390.029324 322.182437)scale(0.1 -0.1)">
       <use xlink:href="#DejaVuSans-33"/>
       <use x="63.623047" xlink:href="#DejaVuSans-30"/>
       <use x="127.246094" xlink:href="#DejaVuSans-30"/>
      </g>
     </g>
    </g>
    <g id="text_8">
     <!-- Generations -->
     <defs>
      <path d="M 59.515625 10.40625 
L 59.515625 29.984375 
L 43.40625 29.984375 
L 43.40625 38.09375 
L 69.28125 38.09375 
L 69.28125 6.78125 
Q 63.578125 2.734375 56.6875 0.65625 
Q 49.8125 -1.421875 42 -1.421875 
Q 24.90625 -1.421875 15.25 8.5625 
Q 5.609375 18.5625 5.609375 36.375 
Q 5.609375 54.25 15.25 64.234375 
Q 24.90625 74.21875 42 74.21875 
Q 49.125 74.21875 55.546875 72.453125 
Q 61.96875 70.703125 67.390625 67.28125 
L 67.390625 56.78125 
Q 61.921875 61.421875 55.765625 63.765625 
Q 49.609375 66.109375 42.828125 66.109375 
Q 29.4375 66.109375 22.71875 58.640625 
Q 16.015625 51.171875 16.015625 36.375 
Q 16.015625 21.625 22.71875 14.15625 
Q 29.4375 6.6875 42.828125 6.6875 
Q 48.046875 6.6875 52.140625 7.59375 
Q 56.25 8.5 59.515625 10.40625 
z
" id="DejaVuSans-47"/>
      <path d="M 56.203125 29.59375 
L 56.203125 25.203125 
L 14.890625 25.203125 
Q 15.484375 15.921875 20.484375 11.0625 
Q 25.484375 6.203125 34.421875 6.203125 
Q 39.59375 6.203125 44.453125 7.46875 
Q 49.3125 8.734375 54.109375 11.28125 
L 54.109375 2.78125 
Q 49.265625 0.734375 44.1875 -0.34375 
Q 39.109375 -1.421875 33.890625 -1.421875 
Q 20.796875 -1.421875 13.15625 6.1875 
Q 5.515625 13.8125 5.515625 26.8125 
Q 5.515625 40.234375 12.765625 48.109375 
Q 20.015625 56 32.328125 56 
Q 43.359375 56 49.78125 48.890625 
Q 56.203125 41.796875 56.203125 29.59375 
z
M 47.21875 32.234375 
Q 47.125 39.59375 43.09375 43.984375 
Q 39.0625 48.390625 32.421875 48.390625 
Q 24.90625 48.390625 20.390625 44.140625 
Q 15.875 39.890625 15.1875 32.171875 
z
" id="DejaVuSans-65"/>
      <path d="M 54.890625 33.015625 
L 54.890625 0 
L 45.90625 0 
L 45.90625 32.71875 
Q 45.90625 40.484375 42.875 44.328125 
Q 39.84375 48.1875 33.796875 48.1875 
Q 26.515625 48.1875 22.3125 43.546875 
Q 18.109375 38.921875 18.109375 30.90625 
L 18.109375 0 
L 9.078125 0 
L 9.078125 54.6875 
L 18.109375 54.6875 
L 18.109375 46.1875 
Q 21.34375 51.125 25.703125 53.5625 
Q 30.078125 56 35.796875 56 
Q 45.21875 56 50.046875 50.171875 
Q 54.890625 44.34375 54.890625 33.015625 
z
" id="DejaVuSans-6e"/>
      <path d="M 41.109375 46.296875 
Q 39.59375 47.171875 37.8125 47.578125 
Q 36.03125 48 33.890625 48 
Q 26.265625 48 22.1875 43.046875 
Q 18.109375 38.09375 18.109375 28.8125 
L 18.109375 0 
L 9.078125 0 
L 9.078125 54.6875 
L 18.109375 54.6875 
L 18.109375 46.1875 
Q 20.953125 51.171875 25.484375 53.578125 
Q 30.03125 56 36.53125 56 
Q 37.453125 56 38.578125 55.875 
Q 39.703125 55.765625 41.0625 55.515625 
z
" id="DejaVuSans-72"/>
      <path d="M 34.28125 27.484375 
Q 23.390625 27.484375 19.1875 25 
Q 14.984375 22.515625 14.984375 16.5 
Q 14.984375 11.71875 18.140625 8.90625 
Q 21.296875 6.109375 26.703125 6.109375 
Q 34.1875 6.109375 38.703125 11.40625 
Q 43.21875 16.703125 43.21875 25.484375 
L 43.21875 27.484375 
z
M 52.203125 31.203125 
L 52.203125 0 
L 43.21875 0 
L 43.21875 8.296875 
Q 40.140625 3.328125 35.546875 0.953125 
Q 30.953125 -1.421875 24.3125 -1.421875 
Q 15.921875 -1.421875 10.953125 3.296875 
Q 6 8.015625 6 15.921875 
Q 6 25.140625 12.171875 29.828125 
Q 18.359375 34.515625 30.609375 34.515625 
L 43.21875 34.515625 
L 43.21875 35.40625 
Q 43.21875 41.609375 39.140625 45 
Q 35.0625 48.390625 27.6875 48.390625 
Q 23 48.390625 18.546875 47.265625 
Q 14.109375 46.140625 10.015625 43.890625 
L 10.015625 52.203125 
Q 14.9375 54.109375 19.578125 55.046875 
Q 24.21875 56 28.609375 56 
Q 40.484375 56 46.34375 49.84375 
Q 52.203125 43.703125 52.203125 31.203125 
z
" id="DejaVuSans-61"/>
      <path d="M 18.3125 70.21875 
L 18.3125 54.6875 
L 36.8125 54.6875 
L 36.8125 47.703125 
L 18.3125 47.703125 
L 18.3125 18.015625 
Q 18.3125 11.328125 20.140625 9.421875 
Q 21.96875 7.515625 27.59375 7.515625 
L 36.8125 7.515625 
L 36.8125 0 
L 27.59375 0 
Q 17.1875 0 13.234375 3.875 
Q 9.28125 7.765625 9.28125 18.015625 
L 9.28125 47.703125 
L 2.6875 47.703125 
L 2.6875 54.6875 
L 9.28125 54.6875 
L 9.28125 70.21875 
z
" id="DejaVuSans-74"/>
      <path d="M 9.421875 54.6875 
L 18.40625 54.6875 
L 18.40625 0 
L 9.421875 0 
z
M 9.421875 75.984375 
L 18.40625 75.984375 
L 18.40625 64.59375 
L 9.421875 64.59375 
z
" id="DejaVuSans-69"/>
      <path d="M 30.609375 48.390625 
Q 23.390625 48.390625 19.1875 42.75 
Q 14.984375 37.109375 14.984375 27.296875 
Q 14.984375 17.484375 19.15625 11.84375 
Q 23.34375 6.203125 30.609375 6.203125 
Q 37.796875 6.203125 41.984375 11.859375 
Q 46.1875 17.53125 46.1875 27.296875 
Q 46.1875 37.015625 41.984375 42.703125 
Q 37.796875 48.390625 30.609375 48.390625 
z
M 30.609375 56 
Q 42.328125 56 49.015625 48.375 
Q 55.71875 40.765625 55.71875 27.296875 
Q 55.71875 13.875 49.015625 6.21875 
Q 42.328125 -1.421875 30.609375 -1.421875 
Q 18.84375 -1.421875 12.171875 6.21875 
Q 5.515625 13.875 5.515625 27.296875 
Q 5.515625 40.765625 12.171875 48.375 
Q 18.84375 56 30.609375 56 
z
" id="DejaVuSans-6f"/>
      <path d="M 44.28125 53.078125 
L 44.28125 44.578125 
Q 40.484375 46.53125 36.375 47.5 
Q 32.28125 48.484375 27.875 48.484375 
Q 21.1875 48.484375 17.84375 46.4375 
Q 14.5 44.390625 14.5 40.28125 
Q 14.5 37.15625 16.890625 35.375 
Q 19.28125 33.59375 26.515625 31.984375 
L 29.59375 31.296875 
Q 39.15625 29.25 43.1875 25.515625 
Q 47.21875 21.78125 47.21875 15.09375 
Q 47.21875 7.46875 41.1875 3.015625 
Q 35.15625 -1.421875 24.609375 -1.421875 
Q 20.21875 -1.421875 15.453125 -0.5625 
Q 10.6875 0.296875 5.421875 2 
L 5.421875 11.28125 
Q 10.40625 8.6875 15.234375 7.390625 
Q 20.0625 6.109375 24.8125 6.109375 
Q 31.15625 6.109375 34.5625 8.28125 
Q 37.984375 10.453125 37.984375 14.40625 
Q 37.984375 18.0625 35.515625 20.015625 
Q 33.0625 21.96875 24.703125 23.78125 
L 21.578125 24.515625 
Q 13.234375 26.265625 9.515625 29.90625 
Q 5.8125 33.546875 5.8125 39.890625 
Q 5.8125 47.609375 11.28125 51.796875 
Q 16.75 56 26.8125 56 
Q 31.78125 56 36.171875 55.265625 
Q 40.578125 54.546875 44.28125 53.078125 
z
" id="DejaVuSans-73"/>
     </defs>
     <g transform="translate(205.662344 335.860562)scale(0.1 -0.1)">
      <use xlink:href="#DejaVuSans-47"/>
      <use x="77.490234" xlink:href="#DejaVuSans-65"/>
      <use x="139.013672" xlink:href="#DejaVuSans-6e"/>
      <use x="202.392578" xlink:href="#DejaVuSans-65"/>
      <use x="263.916016" xlink:href="#DejaVuSans-72"/>
      <use x="305.029297" xlink:href="#DejaVuSans-61"/>
      <use x="366.308594" xlink:href="#DejaVuSans-74"/>
      <use x="405.517578" xlink:href="#DejaVuSans-69"/>
      <use x="433.300781" xlink:href="#DejaVuSans-6f"/>
      <use x="494.482422" xlink:href="#DejaVuSans-6e"/>
      <use x="557.861328" xlink:href="#DejaVuSans-73"/>
     </g>
    </g>
   </g>
   <g id="matplotlib.axis_2">
    <g id="ytick_1">
     <g id="line2d_15">
      <path clip-path="url(#pd88022eeef)" d="M 57.6 281.229444 
L 414.72 281.229444 
" style="fill:none;stroke:#b0b0b0;stroke-linecap:square;stroke-width:0.8;"/>
     </g>
     <g id="line2d_16">
      <defs>
       <path d="M 0 0 
L -3.5 0 
" id="m0f8246e996" style="stroke:#000000;stroke-width:0.8;"/>
      </defs>
      <g>
       <use style="stroke:#000000;stroke-width:0.8;" x="57.6" xlink:href="#m0f8246e996" y="281.229444"/>
      </g>
     </g>
     <g id="text_9">
      <!-- −100 -->
      <defs>
       <path d="M 10.59375 35.5 
L 73.1875 35.5 
L 73.1875 27.203125 
L 10.59375 27.203125 
z
" id="DejaVuSans-2212"/>
      </defs>
      <g transform="translate(23.132812 285.028663)scale(0.1 -0.1)">
       <use xlink:href="#DejaVuSans-2212"/>
       <use x="83.789062" xlink:href="#DejaVuSans-31"/>
       <use x="147.412109" xlink:href="#DejaVuSans-30"/>
       <use x="211.035156" xlink:href="#DejaVuSans-30"/>
      </g>
     </g>
    </g>
    <g id="ytick_2">
     <g id="line2d_17">
      <path clip-path="url(#pd88022eeef)" d="M 57.6 247.265857 
L 414.72 247.265857 
" style="fill:none;stroke:#b0b0b0;stroke-linecap:square;stroke-width:0.8;"/>
     </g>
     <g id="line2d_18">
      <g>
       <use style="stroke:#000000;stroke-width:0.8;" x="57.6" xlink:href="#m0f8246e996" y="247.265857"/>
      </g>
     </g>
     <g id="text_10">
      <!-- −50 -->
      <g transform="translate(29.495313 251.065075)scale(0.1 -0.1)">
       <use xlink:href="#DejaVuSans-2212"/>
       <use x="83.789062" xlink:href="#DejaVuSans-35"/>
       <use x="147.412109" xlink:href="#DejaVuSans-30"/>
      </g>
     </g>
    </g>
    <g id="ytick_3">
     <g id="line2d_19">
      <path clip-path="url(#pd88022eeef)" d="M 57.6 213.302269 
L 414.72 213.302269 
" style="fill:none;stroke:#b0b0b0;stroke-linecap:square;stroke-width:0.8;"/>
     </g>
     <g id="line2d_20">
      <g>
       <use style="stroke:#000000;stroke-width:0.8;" x="57.6" xlink:href="#m0f8246e996" y="213.302269"/>
      </g>
     </g>
     <g id="text_11">
      <!-- 0 -->
      <g transform="translate(44.2375 217.101488)scale(0.1 -0.1)">
       <use xlink:href="#DejaVuSans-30"/>
      </g>
     </g>
    </g>
    <g id="ytick_4">
     <g id="line2d_21">
      <path clip-path="url(#pd88022eeef)" d="M 57.6 179.338682 
L 414.72 179.338682 
" style="fill:none;stroke:#b0b0b0;stroke-linecap:square;stroke-width:0.8;"/>
     </g>
     <g id="line2d_22">
      <g>
       <use style="stroke:#000000;stroke-width:0.8;" x="57.6" xlink:href="#m0f8246e996" y="179.338682"/>
      </g>
     </g>
     <g id="text_12">
      <!-- 50 -->
      <g transform="translate(37.875 183.137901)scale(0.1 -0.1)">
       <use xlink:href="#DejaVuSans-35"/>
       <use x="63.623047" xlink:href="#DejaVuSans-30"/>
      </g>
     </g>
    </g>
    <g id="ytick_5">
     <g id="line2d_23">
      <path clip-path="url(#pd88022eeef)" d="M 57.6 145.375095 
L 414.72 145.375095 
" style="fill:none;stroke:#b0b0b0;stroke-linecap:square;stroke-width:0.8;"/>
     </g>
     <g id="line2d_24">
      <g>
       <use style="stroke:#000000;stroke-width:0.8;" x="57.6" xlink:href="#m0f8246e996" y="145.375095"/>
      </g>
     </g>
     <g id="text_13">
      <!-- 100 -->
      <g transform="translate(31.5125 149.174314)scale(0.1 -0.1)">
       <use xlink:href="#DejaVuSans-31"/>
       <use x="63.623047" xlink:href="#DejaVuSans-30"/>
       <use x="127.246094" xlink:href="#DejaVuSans-30"/>
      </g>
     </g>
    </g>
    <g id="ytick_6">
     <g id="line2d_25">
      <path clip-path="url(#pd88022eeef)" d="M 57.6 111.411508 
L 414.72 111.411508 
" style="fill:none;stroke:#b0b0b0;stroke-linecap:square;stroke-width:0.8;"/>
     </g>
     <g id="line2d_26">
      <g>
       <use style="stroke:#000000;stroke-width:0.8;" x="57.6" xlink:href="#m0f8246e996" y="111.411508"/>
      </g>
     </g>
     <g id="text_14">
      <!-- 150 -->
      <g transform="translate(31.5125 115.210726)scale(0.1 -0.1)">
       <use xlink:href="#DejaVuSans-31"/>
       <use x="63.623047" xlink:href="#DejaVuSans-35"/>
       <use x="127.246094" xlink:href="#DejaVuSans-30"/>
      </g>
     </g>
    </g>
    <g id="ytick_7">
     <g id="line2d_27">
      <path clip-path="url(#pd88022eeef)" d="M 57.6 77.44792 
L 414.72 77.44792 
" style="fill:none;stroke:#b0b0b0;stroke-linecap:square;stroke-width:0.8;"/>
     </g>
     <g id="line2d_28">
      <g>
       <use style="stroke:#000000;stroke-width:0.8;" x="57.6" xlink:href="#m0f8246e996" y="77.44792"/>
      </g>
     </g>
     <g id="text_15">
      <!-- 200 -->
      <g transform="translate(31.5125 81.247139)scale(0.1 -0.1)">
       <use xlink:href="#DejaVuSans-32"/>
       <use x="63.623047" xlink:href="#DejaVuSans-30"/>
       <use x="127.246094" xlink:href="#DejaVuSans-30"/>
      </g>
     </g>
    </g>
    <g id="ytick_8">
     <g id="line2d_29">
      <path clip-path="url(#pd88022eeef)" d="M 57.6 43.484333 
L 414.72 43.484333 
" style="fill:none;stroke:#b0b0b0;stroke-linecap:square;stroke-width:0.8;"/>
     </g>
     <g id="line2d_30">
      <g>
       <use style="stroke:#000000;stroke-width:0.8;" x="57.6" xlink:href="#m0f8246e996" y="43.484333"/>
      </g>
     </g>
     <g id="text_16">
      <!-- 250 -->
      <g transform="translate(31.5125 47.283552)scale(0.1 -0.1)">
       <use xlink:href="#DejaVuSans-32"/>
       <use x="63.623047" xlink:href="#DejaVuSans-35"/>
       <use x="127.246094" xlink:href="#DejaVuSans-30"/>
      </g>
     </g>
    </g>
    <g id="text_17">
     <!-- Fitness -->
     <defs>
      <path d="M 9.8125 72.90625 
L 51.703125 72.90625 
L 51.703125 64.59375 
L 19.671875 64.59375 
L 19.671875 43.109375 
L 48.578125 43.109375 
L 48.578125 34.8125 
L 19.671875 34.8125 
L 19.671875 0 
L 9.8125 0 
z
" id="DejaVuSans-46"/>
     </defs>
     <g transform="translate(17.053125 192.202219)rotate(-90)scale(0.1 -0.1)">
      <use xlink:href="#DejaVuSans-46"/>
      <use x="57.410156" xlink:href="#DejaVuSans-69"/>
      <use x="85.193359" xlink:href="#DejaVuSans-74"/>
      <use x="124.402344" xlink:href="#DejaVuSans-6e"/>
      <use x="187.78125" xlink:href="#DejaVuSans-65"/>
      <use x="249.304688" xlink:href="#DejaVuSans-73"/>
      <use x="301.404297" xlink:href="#DejaVuSans-73"/>
     </g>
    </g>
   </g>
   <g id="line2d_31">
    <path clip-path="url(#pd88022eeef)" d="M 73.832727 281.462346 
L 74.918528 272.430176 
L 76.00433 265.998043 
L 77.090131 261.343143 
L 78.175932 260.296238 
L 79.261733 257.519309 
L 80.347534 255.991018 
L 82.519137 254.488568 
L 83.604938 251.995852 
L 84.690739 256.522687 
L 85.77654 253.959715 
L 86.862341 252.251275 
L 87.948142 254.081618 
L 89.033943 253.953021 
L 90.119745 256.483839 
L 91.205546 255.377156 
L 92.291347 256.301286 
L 93.377148 252.914823 
L 94.462949 254.099629 
L 95.54875 251.949352 
L 96.634552 250.911816 
L 97.720353 253.531551 
L 98.806154 253.630335 
L 99.891955 253.146363 
L 100.977756 249.474868 
L 103.149358 248.611639 
L 104.23516 252.017182 
L 105.320961 251.43134 
L 106.406762 247.564575 
L 107.492563 248.027502 
L 108.578364 251.051166 
L 109.664165 250.202128 
L 110.749967 253.783725 
L 111.835768 253.409696 
L 112.921569 251.252977 
L 114.00737 251.191773 
L 115.093171 253.191009 
L 116.178972 252.625864 
L 117.264773 250.232869 
L 118.350575 250.683095 
L 119.436376 252.058914 
L 120.522177 250.481517 
L 121.607978 248.229048 
L 122.693779 247.248547 
L 123.77958 250.187248 
L 124.865382 247.265633 
L 125.951183 247.129366 
L 127.036984 248.531935 
L 128.122785 249.467035 
L 129.208586 248.367986 
L 130.294387 245.860852 
L 131.380189 249.726389 
L 132.46599 246.169663 
L 133.551791 248.286757 
L 134.637592 248.257023 
L 135.723393 248.716367 
L 136.809194 245.799691 
L 137.894995 246.709935 
L 138.980797 245.639957 
L 140.066598 245.969769 
L 141.152399 246.699187 
L 142.2382 248.90174 
L 143.324001 246.939637 
L 144.409802 245.54679 
L 145.495604 246.427351 
L 146.581405 244.461711 
L 147.667206 246.025854 
L 148.753007 247.13802 
L 149.838808 245.680199 
L 150.924609 249.037025 
L 152.01041 247.806005 
L 153.096212 249.689706 
L 154.182013 249.737593 
L 155.267814 246.006013 
L 156.353615 248.572244 
L 157.439416 250.72554 
L 158.525217 245.400007 
L 159.611019 250.082121 
L 160.69682 248.794342 
L 161.782621 245.998395 
L 162.868422 254.844225 
L 163.954223 248.853871 
L 165.040024 249.720002 
L 166.125825 249.509566 
L 167.211627 253.853315 
L 169.383229 242.185157 
L 170.46903 250.133948 
L 171.554831 252.062053 
L 172.640632 244.536818 
L 173.726434 248.974639 
L 174.812235 246.939821 
L 175.898036 247.576268 
L 176.983837 248.487868 
L 178.069638 243.773856 
L 179.155439 239.923227 
L 180.24124 239.973428 
L 181.327042 242.782877 
L 182.412843 241.484038 
L 183.498644 237.895888 
L 184.584445 239.586554 
L 185.670246 236.711059 
L 186.756047 236.723506 
L 187.841849 243.114024 
L 188.92765 238.83465 
L 190.013451 234.041869 
L 191.099252 238.783222 
L 192.185053 235.20561 
L 193.270854 230.273794 
L 194.356656 232.515434 
L 195.442457 232.210882 
L 196.528258 236.098626 
L 197.614059 231.517392 
L 198.69986 231.704623 
L 199.785661 235.971425 
L 200.871462 234.303728 
L 201.957264 230.745033 
L 204.128866 226.011086 
L 205.214667 233.704511 
L 206.300468 228.470454 
L 207.386269 237.934392 
L 208.472071 229.972538 
L 210.643673 240.643291 
L 211.729474 235.628887 
L 212.815275 243.168618 
L 213.901076 233.817183 
L 214.986877 220.989237 
L 216.072679 214.160489 
L 217.15848 221.715851 
L 218.244281 226.153512 
L 219.330082 217.585111 
L 220.415883 220.887536 
L 221.501684 225.527451 
L 222.587486 220.048111 
L 223.673287 228.008271 
L 224.759088 219.291362 
L 225.844889 223.19646 
L 226.93069 224.498739 
L 228.016491 221.186739 
L 229.102292 221.226733 
L 230.188094 212.697276 
L 231.273895 213.004067 
L 232.359696 215.060641 
L 233.445497 218.45501 
L 234.531298 215.267409 
L 235.617099 224.837902 
L 236.702901 226.852076 
L 237.788702 220.011497 
L 238.874503 217.019326 
L 239.960304 211.562041 
L 241.046105 217.049325 
L 242.131906 218.966929 
L 243.217708 216.172875 
L 244.303509 223.361301 
L 245.38931 221.824256 
L 246.475111 225.585084 
L 247.560912 219.499684 
L 248.646713 227.801511 
L 249.732514 217.266528 
L 250.818316 222.232061 
L 251.904117 215.281641 
L 252.989918 216.426536 
L 254.075719 221.070375 
L 255.16152 220.239794 
L 256.247321 226.867369 
L 257.333123 219.469129 
L 258.418924 222.661882 
L 259.504725 218.250825 
L 260.590526 223.299185 
L 261.676327 216.600817 
L 262.762128 218.409984 
L 263.847929 216.957249 
L 264.933731 216.948974 
L 266.019532 223.684623 
L 267.105333 218.247877 
L 268.191134 216.945524 
L 269.276935 216.207361 
L 270.362736 223.49892 
L 271.448538 220.725035 
L 272.534339 213.459634 
L 273.62014 217.874098 
L 274.705941 221.596612 
L 275.791742 221.308307 
L 276.877543 214.895776 
L 277.963344 214.968109 
L 279.049146 227.290138 
L 280.134947 214.90375 
L 281.220748 214.515562 
L 282.306549 220.312537 
L 283.39235 220.546603 
L 284.478151 215.301584 
L 285.563953 219.740708 
L 286.649754 222.736939 
L 287.735555 219.279662 
L 288.821356 210.162696 
L 289.907157 215.961517 
L 292.07876 210.968167 
L 293.164561 203.749031 
L 294.250362 217.581352 
L 295.336163 216.991365 
L 296.421964 208.46285 
L 297.507765 211.909121 
L 298.593566 214.010812 
L 299.679368 221.648714 
L 300.765169 224.787549 
L 301.85097 215.636072 
L 302.936771 212.427977 
L 304.022572 226.515367 
L 305.108373 222.173592 
L 306.194175 225.803864 
L 307.279976 222.67662 
L 308.365777 215.858211 
L 309.451578 221.538975 
L 310.537379 211.303978 
L 311.62318 217.930144 
L 312.708981 218.56514 
L 313.794783 214.988709 
L 314.880584 212.007244 
L 317.052186 221.520054 
L 318.137987 215.427841 
L 319.223788 210.442234 
L 320.30959 210.225923 
L 321.395391 215.90855 
L 322.481192 212.131897 
L 323.566993 215.707698 
L 325.738595 203.045677 
L 326.824396 203.360361 
L 327.910198 216.309224 
L 328.995999 202.764028 
L 330.0818 200.905543 
L 331.167601 214.094293 
L 332.253402 205.797034 
L 333.339203 213.208428 
L 334.425005 203.890295 
L 335.510806 205.732088 
L 336.596607 207.104695 
L 337.682408 213.210301 
L 338.768209 208.432032 
L 339.85401 214.828261 
L 340.939811 208.202936 
L 342.025613 216.571604 
L 343.111414 213.575933 
L 344.197215 209.321057 
L 346.368817 217.664552 
L 347.454618 216.043479 
L 348.54042 215.678315 
L 349.626221 202.583611 
L 350.712022 218.360319 
L 351.797823 208.919772 
L 353.969425 211.277288 
L 355.055227 207.478905 
L 356.141028 205.119194 
L 357.226829 201.285121 
L 358.31263 205.560249 
L 359.398431 216.593983 
L 360.484232 222.00542 
L 361.570033 221.695024 
L 363.741636 207.181339 
L 364.827437 217.074695 
L 365.913238 199.479751 
L 366.999039 209.643851 
L 368.08484 208.329541 
L 369.170642 206.792421 
L 370.256443 213.979692 
L 371.342244 213.7346 
L 372.428045 205.246401 
L 373.513846 211.752416 
L 374.599647 204.040223 
L 375.685448 215.943509 
L 376.77125 214.284464 
L 377.857051 198.934716 
L 378.942852 207.437642 
L 380.028653 210.057559 
L 381.114454 207.99308 
L 382.200255 208.085221 
L 383.286057 218.080893 
L 384.371858 199.953516 
L 385.457659 211.114587 
L 386.54346 215.077481 
L 387.629261 207.114957 
L 389.800863 213.319164 
L 390.886665 212.495257 
L 391.972466 207.575508 
L 393.058267 207.806012 
L 394.144068 208.792298 
L 395.229869 214.127839 
L 396.31567 206.563222 
L 398.487273 213.335761 
L 398.487273 213.335761 
" style="fill:none;stroke:#0000ff;stroke-linecap:square;stroke-width:1.5;"/>
   </g>
   <g id="line2d_32">
    <path clip-path="url(#pd88022eeef)" d="M 73.832727 292.851951 
L 74.918528 288.470817 
L 77.090131 283.393717 
L 78.175932 283.579552 
L 79.261733 281.507868 
L 80.347534 279.78644 
L 81.433335 279.971928 
L 82.519137 280.419761 
L 83.604938 278.026164 
L 84.690739 283.791284 
L 85.77654 280.512606 
L 86.862341 278.783059 
L 87.948142 280.299833 
L 89.033943 280.215423 
L 90.119745 283.49467 
L 91.205546 281.686666 
L 92.291347 283.091644 
L 93.377148 279.872917 
L 94.462949 282.383144 
L 95.54875 277.638908 
L 96.634552 276.584493 
L 97.720353 280.295742 
L 98.806154 280.575464 
L 99.891955 280.323946 
L 100.977756 276.251568 
L 102.063557 274.955682 
L 103.149358 275.42087 
L 104.23516 279.843096 
L 105.320961 279.563774 
L 106.406762 275.208194 
L 107.492563 275.264258 
L 108.578364 280.077091 
L 109.664165 280.761712 
L 110.749967 282.483665 
L 112.921569 280.311325 
L 114.00737 280.156242 
L 115.093171 281.534375 
L 116.178972 280.27869 
L 117.264773 279.522007 
L 118.350575 277.874762 
L 119.436376 279.776701 
L 120.522177 277.916231 
L 121.607978 275.235004 
L 122.693779 274.850439 
L 123.77958 278.36802 
L 124.865382 274.922582 
L 125.951183 274.700064 
L 127.036984 277.90123 
L 128.122785 277.852316 
L 129.208586 277.916687 
L 130.294387 275.972336 
L 131.380189 278.054338 
L 132.46599 276.223091 
L 133.551791 279.357098 
L 134.637592 278.459559 
L 135.723393 280.928214 
L 136.809194 278.447657 
L 137.894995 279.531682 
L 138.980797 278.178029 
L 140.066598 277.199614 
L 141.152399 279.978726 
L 142.2382 281.657336 
L 143.324001 276.918381 
L 144.409802 276.691202 
L 145.495604 277.508157 
L 146.581405 274.742692 
L 147.667206 278.333374 
L 148.753007 279.422541 
L 149.838808 279.139218 
L 150.924609 282.558936 
L 152.01041 281.394583 
L 153.096212 284.977272 
L 154.182013 284.078809 
L 155.267814 282.55269 
L 156.353615 285.940851 
L 157.439416 286.793758 
L 158.525217 285.256174 
L 159.611019 287.912709 
L 160.69682 285.794741 
L 161.782621 283.944903 
L 162.868422 292.884253 
L 163.954223 287.191682 
L 165.040024 288.419877 
L 166.125825 291.211983 
L 167.211627 292.32464 
L 168.297428 289.360926 
L 169.383229 285.391492 
L 170.46903 293.821134 
L 171.554831 293.506957 
L 172.640632 288.779812 
L 173.726434 291.92585 
L 174.812235 287.70745 
L 175.898036 288.779328 
L 176.983837 293.77137 
L 178.069638 288.607694 
L 180.24124 285.726993 
L 181.327042 289.746903 
L 182.412843 292.745174 
L 183.498644 288.354772 
L 184.584445 284.588182 
L 185.670246 290.008963 
L 186.756047 286.567482 
L 187.841849 294.587574 
L 188.92765 289.772172 
L 190.013451 286.969607 
L 191.099252 290.164131 
L 192.185053 287.717127 
L 193.270854 286.289719 
L 194.356656 287.200275 
L 195.442457 287.435908 
L 196.528258 290.073373 
L 197.614059 289.039134 
L 198.69986 288.416065 
L 199.785661 290.832774 
L 200.871462 290.411214 
L 201.957264 285.185412 
L 203.043065 280.903167 
L 204.128866 281.317798 
L 205.214667 288.072689 
L 206.300468 282.224697 
L 207.386269 289.531123 
L 208.472071 282.016472 
L 209.557872 287.063372 
L 210.643673 289.035806 
L 211.729474 285.499336 
L 212.815275 288.613141 
L 214.986877 270.984702 
L 216.072679 270.651642 
L 217.15848 276.296173 
L 218.244281 278.440039 
L 219.330082 273.148413 
L 220.415883 272.875278 
L 221.501684 274.550714 
L 222.587486 274.924255 
L 223.673287 281.728627 
L 224.759088 272.98336 
L 225.844889 277.0758 
L 226.93069 277.234831 
L 229.102292 274.11615 
L 230.188094 272.117238 
L 231.273895 277.538811 
L 232.359696 281.350181 
L 233.445497 280.550836 
L 234.531298 278.239655 
L 235.617099 281.535306 
L 236.702901 282.433061 
L 237.788702 278.498509 
L 239.960304 276.26317 
L 241.046105 280.953197 
L 242.131906 277.594862 
L 243.217708 277.087896 
L 244.303509 282.404679 
L 245.38931 279.767058 
L 246.475111 279.995495 
L 247.560912 277.015831 
L 248.646713 285.864458 
L 249.732514 274.4997 
L 250.818316 278.113784 
L 251.904117 272.95307 
L 252.989918 275.555423 
L 254.075719 280.419292 
L 255.16152 278.907713 
L 256.247321 281.425767 
L 257.333123 276.377796 
L 258.418924 276.502517 
L 259.504725 273.033484 
L 260.590526 278.87028 
L 261.676327 275.169829 
L 262.762128 275.448545 
L 263.847929 272.081187 
L 264.933731 269.671069 
L 266.019532 279.362392 
L 268.191134 270.259769 
L 269.276935 270.764881 
L 270.362736 280.073145 
L 271.448538 275.071172 
L 272.534339 275.092371 
L 273.62014 276.550803 
L 274.705941 280.753241 
L 275.791742 276.49217 
L 276.877543 270.520895 
L 277.963344 272.562393 
L 279.049146 285.21949 
L 280.134947 270.583874 
L 281.220748 276.756802 
L 282.306549 280.42752 
L 283.39235 278.926325 
L 284.478151 274.988886 
L 285.563953 283.987124 
L 286.649754 287.690451 
L 287.735555 279.280231 
L 288.821356 276.801309 
L 289.907157 279.631163 
L 290.992958 281.089547 
L 292.07876 277.538936 
L 293.164561 272.296977 
L 294.250362 282.154676 
L 295.336163 279.585332 
L 296.421964 270.019302 
L 297.507765 276.109373 
L 298.593566 275.976096 
L 299.679368 279.99269 
L 300.765169 281.700814 
L 301.85097 274.013378 
L 302.936771 269.568943 
L 304.022572 283.91206 
L 305.108373 276.485398 
L 306.194175 282.254437 
L 307.279976 279.34989 
L 308.365777 274.714181 
L 309.451578 276.166296 
L 310.537379 268.19704 
L 311.62318 276.476622 
L 312.708981 278.745963 
L 313.794783 278.549286 
L 314.880584 275.613485 
L 315.966385 279.856972 
L 317.052186 284.708378 
L 318.137987 281.120964 
L 319.223788 275.400609 
L 321.395391 281.739458 
L 322.481192 279.914129 
L 323.566993 282.794104 
L 325.738595 270.529812 
L 326.824396 272.809174 
L 327.910198 284.34328 
L 328.995999 274.139657 
L 330.0818 270.559474 
L 331.167601 281.372891 
L 332.253402 276.485223 
L 333.339203 282.627252 
L 334.425005 274.715897 
L 335.510806 274.556968 
L 337.682408 283.088867 
L 338.768209 279.162598 
L 339.85401 282.377711 
L 340.939811 277.142119 
L 342.025613 284.113088 
L 343.111414 281.621575 
L 344.197215 277.234411 
L 345.283016 284.268681 
L 346.368817 287.269101 
L 347.454618 283.14566 
L 348.54042 281.221221 
L 349.626221 272.629077 
L 350.712022 284.440046 
L 351.797823 278.034091 
L 352.883624 276.429926 
L 353.969425 278.847927 
L 355.055227 275.121617 
L 356.141028 274.333924 
L 357.226829 274.397344 
L 358.31263 283.275613 
L 359.398431 288.207694 
L 360.484232 295.488 
L 361.570033 291.368117 
L 362.655835 284.895712 
L 363.741636 281.387842 
L 364.827437 289.813816 
L 365.913238 271.481278 
L 366.999039 285.347447 
L 369.170642 281.348017 
L 370.256443 289.693888 
L 371.342244 289.424509 
L 372.428045 279.019925 
L 373.513846 287.620866 
L 374.599647 280.584973 
L 375.685448 291.065238 
L 376.77125 287.980323 
L 377.857051 275.393842 
L 378.942852 285.207357 
L 380.028653 281.716129 
L 381.114454 284.14185 
L 382.200255 283.653369 
L 383.286057 293.055969 
L 384.371858 277.281261 
L 385.457659 287.943045 
L 386.54346 290.581181 
L 387.629261 280.494053 
L 388.715062 285.506051 
L 389.800863 288.277562 
L 390.886665 289.672699 
L 391.972466 283.100816 
L 393.058267 285.726743 
L 394.144068 284.989003 
L 395.229869 291.120687 
L 396.31567 283.665439 
L 397.401472 286.474945 
L 398.487273 284.963051 
L 398.487273 284.963051 
" style="fill:none;stroke:#008000;stroke-dasharray:9.6,2.4,1.5,2.4;stroke-dashoffset:0;stroke-width:1.5;"/>
   </g>
   <g id="line2d_33">
    <path clip-path="url(#pd88022eeef)" d="M 73.832727 270.07274 
L 74.918528 256.389534 
L 76.00433 245.958034 
L 77.090131 239.29257 
L 78.175932 237.012923 
L 79.261733 233.53075 
L 80.347534 232.195596 
L 81.433335 230.528409 
L 82.519137 228.557375 
L 83.604938 225.96554 
L 84.690739 229.254091 
L 86.862341 225.71949 
L 87.948142 227.863403 
L 89.033943 227.69062 
L 90.119745 229.473008 
L 91.205546 229.067646 
L 92.291347 229.510929 
L 93.377148 225.956729 
L 94.462949 225.816114 
L 95.54875 226.259796 
L 96.634552 225.239138 
L 97.720353 226.76736 
L 98.806154 226.685207 
L 99.891955 225.96878 
L 100.977756 222.698168 
L 102.063557 223.051949 
L 103.149358 221.802407 
L 104.23516 224.191269 
L 105.320961 223.298905 
L 106.406762 219.920956 
L 107.492563 220.790747 
L 108.578364 222.025241 
L 109.664165 219.642545 
L 110.749967 225.083786 
L 111.835768 225.391258 
L 112.921569 222.19463 
L 114.00737 222.227303 
L 115.093171 224.847642 
L 116.178972 224.973037 
L 117.264773 220.943731 
L 118.350575 223.491429 
L 119.436376 224.341128 
L 120.522177 223.046802 
L 121.607978 221.223093 
L 122.693779 219.646655 
L 123.77958 222.006477 
L 124.865382 219.608684 
L 125.951183 219.558668 
L 127.036984 219.162639 
L 128.122785 221.081755 
L 129.208586 218.819285 
L 130.294387 215.749367 
L 131.380189 221.398439 
L 132.46599 216.116235 
L 133.551791 217.216417 
L 134.637592 218.054487 
L 135.723393 216.50452 
L 136.809194 213.151725 
L 137.894995 213.888189 
L 138.980797 213.101885 
L 140.066598 214.739925 
L 141.152399 213.419648 
L 142.2382 216.146145 
L 143.324001 216.960893 
L 144.409802 214.402378 
L 145.495604 215.346545 
L 146.581405 214.180731 
L 147.667206 213.718333 
L 148.753007 214.8535 
L 149.838808 212.221181 
L 150.924609 215.515114 
L 152.01041 214.217426 
L 153.096212 214.40214 
L 154.182013 215.396377 
L 155.267814 209.459336 
L 156.353615 211.203637 
L 157.439416 214.657321 
L 158.525217 205.543841 
L 159.611019 212.251532 
L 160.69682 211.793943 
L 161.782621 208.051887 
L 162.868422 216.804198 
L 163.954223 210.516059 
L 165.040024 211.020126 
L 166.125825 207.807149 
L 167.211627 215.38199 
L 169.383229 198.978823 
L 170.46903 206.446763 
L 171.554831 210.617149 
L 172.640632 200.293824 
L 173.726434 206.023427 
L 175.898036 206.373207 
L 176.983837 203.204366 
L 178.069638 198.940018 
L 179.155439 192.770423 
L 181.327042 195.818851 
L 182.412843 190.222902 
L 183.498644 187.437004 
L 184.584445 194.584926 
L 185.670246 183.413155 
L 186.756047 186.879531 
L 187.841849 191.640474 
L 188.92765 187.897128 
L 190.013451 181.114131 
L 191.099252 187.402312 
L 192.185053 182.694093 
L 193.270854 174.257868 
L 194.356656 177.830592 
L 195.442457 176.985856 
L 196.528258 182.123879 
L 197.614059 173.99565 
L 198.69986 174.993182 
L 199.785661 181.110075 
L 200.871462 178.196241 
L 201.957264 176.304654 
L 203.043065 175.668013 
L 204.128866 170.704374 
L 205.214667 179.336333 
L 206.300468 174.71621 
L 207.386269 186.337661 
L 208.472071 177.928604 
L 209.557872 183.602283 
L 210.643673 192.250776 
L 211.729474 185.758438 
L 212.815275 197.724094 
L 213.901076 187.568474 
L 214.986877 170.993773 
L 216.072679 157.669335 
L 217.15848 167.13553 
L 218.244281 173.866986 
L 219.330082 162.021808 
L 220.415883 168.899793 
L 221.501684 176.504188 
L 222.587486 165.171966 
L 223.673287 174.287916 
L 224.759088 165.599365 
L 225.844889 169.31712 
L 226.93069 171.762647 
L 228.016491 166.659083 
L 229.102292 168.337317 
L 230.188094 153.277315 
L 231.273895 148.469323 
L 232.359696 148.771101 
L 233.445497 156.359183 
L 234.531298 152.295163 
L 235.617099 168.140498 
L 236.702901 171.271091 
L 237.788702 161.524485 
L 238.874503 156.613531 
L 239.960304 146.860911 
L 241.046105 153.145452 
L 242.131906 160.338995 
L 243.217708 155.257854 
L 244.303509 164.317924 
L 245.38931 163.881454 
L 246.475111 171.174673 
L 247.560912 161.983538 
L 248.646713 169.738564 
L 249.732514 160.033357 
L 250.818316 166.350338 
L 251.904117 157.610212 
L 252.989918 157.297649 
L 254.075719 161.721457 
L 255.16152 161.571876 
L 256.247321 172.308971 
L 257.333123 162.560462 
L 258.418924 168.821248 
L 259.504725 163.468165 
L 260.590526 167.728089 
L 261.676327 158.031805 
L 262.762128 161.371424 
L 263.847929 161.833311 
L 264.933731 164.22688 
L 266.019532 168.006854 
L 267.105333 161.78799 
L 268.191134 163.631279 
L 269.276935 161.649841 
L 270.362736 166.924695 
L 271.448538 166.378897 
L 272.534339 151.826898 
L 273.62014 159.197394 
L 274.705941 162.439983 
L 275.791742 166.124444 
L 276.877543 159.270658 
L 277.963344 157.373824 
L 279.049146 169.360785 
L 280.134947 159.223626 
L 281.220748 152.274322 
L 282.306549 160.197553 
L 283.39235 162.166882 
L 284.478151 155.614282 
L 285.563953 155.494292 
L 286.649754 157.783426 
L 287.735555 159.279092 
L 288.821356 143.524083 
L 289.907157 152.291871 
L 290.992958 145.921323 
L 292.07876 144.397398 
L 293.164561 135.201084 
L 294.250362 153.008027 
L 295.336163 154.397397 
L 296.421964 146.906397 
L 297.507765 147.708869 
L 298.593566 152.045528 
L 299.679368 163.304737 
L 300.765169 167.874283 
L 301.85097 157.258765 
L 302.936771 155.28701 
L 304.022572 169.118675 
L 305.108373 167.861787 
L 306.194175 169.353291 
L 307.279976 166.00335 
L 308.365777 157.00224 
L 309.451578 166.911654 
L 310.537379 154.410915 
L 311.62318 159.383665 
L 312.708981 158.384317 
L 313.794783 151.428131 
L 314.880584 148.401003 
L 315.966385 153.88901 
L 317.052186 158.33173 
L 318.137987 149.734719 
L 319.223788 145.483859 
L 320.30959 141.735459 
L 321.395391 150.077642 
L 322.481192 144.349664 
L 323.566993 148.621291 
L 325.738595 135.561543 
L 326.824396 133.911549 
L 327.910198 148.275168 
L 328.995999 131.388399 
L 330.0818 131.251612 
L 331.167601 146.815696 
L 332.253402 135.108844 
L 333.339203 143.789603 
L 334.425005 133.064693 
L 335.510806 136.907208 
L 336.596607 135.43758 
L 337.682408 143.331734 
L 338.768209 137.701465 
L 339.85401 147.278812 
L 340.939811 139.263753 
L 342.025613 149.030121 
L 343.111414 145.530292 
L 344.197215 141.407703 
L 345.283016 142.870981 
L 346.368817 148.060003 
L 347.454618 148.941297 
L 348.54042 150.135409 
L 349.626221 132.538146 
L 350.712022 152.280591 
L 351.797823 139.805454 
L 352.883624 143.892551 
L 353.969425 143.70665 
L 356.141028 135.904464 
L 357.226829 128.172898 
L 358.31263 127.844884 
L 359.398431 144.980272 
L 361.570033 152.021931 
L 362.655835 144.221449 
L 363.741636 132.974835 
L 364.827437 144.335573 
L 365.913238 127.478223 
L 366.999039 133.940255 
L 368.08484 133.238087 
L 369.170642 132.236826 
L 370.256443 138.265496 
L 371.342244 138.044691 
L 372.428045 131.472876 
L 373.513846 135.883967 
L 374.599647 127.495474 
L 375.685448 140.82178 
L 376.77125 140.588605 
L 377.857051 122.475591 
L 378.942852 129.667927 
L 380.028653 138.398988 
L 381.114454 131.84431 
L 382.200255 132.517072 
L 383.286057 143.105818 
L 384.371858 122.625772 
L 385.457659 134.28613 
L 386.54346 139.573782 
L 387.629261 133.735861 
L 388.715062 134.881027 
L 389.800863 138.360766 
L 391.972466 132.0502 
L 393.058267 129.885282 
L 394.144068 132.595592 
L 395.229869 137.134991 
L 396.31567 129.461005 
L 397.401472 133.375363 
L 398.487273 141.708471 
L 398.487273 141.708471 
" style="fill:none;stroke:#008000;stroke-dasharray:9.6,2.4,1.5,2.4;stroke-dashoffset:0;stroke-width:1.5;"/>
   </g>
   <g id="line2d_34">
    <path clip-path="url(#pd88022eeef)" d="M 73.832727 234.323804 
L 74.918528 225.302333 
L 76.00433 223.44492 
L 77.090131 215.264839 
L 78.175932 213.435876 
L 79.261733 212.554257 
L 80.347534 213.885537 
L 81.433335 212.973581 
L 83.604938 213.200704 
L 84.690739 211.769844 
L 85.77654 211.189351 
L 86.862341 211.700828 
L 87.948142 211.955334 
L 89.033943 189.330924 
L 90.119745 206.840753 
L 91.205546 188.541441 
L 92.291347 188.060151 
L 93.377148 211.651946 
L 94.462949 211.24537 
L 95.54875 211.114071 
L 96.634552 210.244628 
L 97.720353 211.910241 
L 98.806154 211.688047 
L 99.891955 211.245783 
L 100.977756 197.375242 
L 102.063557 176.272533 
L 103.149358 172.023126 
L 104.23516 197.678977 
L 105.320961 205.6887 
L 106.406762 162.350243 
L 107.492563 181.976397 
L 108.578364 180.544912 
L 109.664165 141.45065 
L 110.749967 141.958534 
L 111.835768 181.830152 
L 112.921569 204.901103 
L 114.00737 170.984741 
L 115.093171 173.894631 
L 116.178972 206.256881 
L 117.264773 185.928123 
L 118.350575 196.248675 
L 119.436376 186.047039 
L 120.522177 201.398403 
L 121.607978 200.876978 
L 122.693779 204.307799 
L 123.77958 191.400861 
L 124.865382 184.840284 
L 125.951183 180.574886 
L 127.036984 147.677901 
L 128.122785 189.402311 
L 129.208586 138.817241 
L 130.294387 136.703845 
L 131.380189 160.422577 
L 132.46599 142.43789 
L 133.551791 132.629427 
L 134.637592 113.642097 
L 135.723393 148.174086 
L 136.809194 138.69182 
L 137.894995 132.709336 
L 138.980797 125.099372 
L 140.066598 133.452836 
L 141.152399 133.849095 
L 142.2382 132.012905 
L 143.324001 137.445853 
L 144.409802 133.731127 
L 145.495604 146.63698 
L 146.581405 134.410184 
L 147.667206 133.817613 
L 148.753007 134.158765 
L 149.838808 142.385364 
L 152.01041 141.72074 
L 153.096212 89.999361 
L 154.182013 115.455443 
L 155.267814 113.031485 
L 156.353615 116.953214 
L 157.439416 113.851459 
L 158.525217 106.017936 
L 159.611019 97.349475 
L 160.69682 104.040547 
L 161.782621 123.90831 
L 162.868422 99.754586 
L 163.954223 109.84868 
L 165.040024 95.795128 
L 166.125825 95.117956 
L 167.211627 92.327471 
L 168.297428 96.290994 
L 169.383229 101.187189 
L 170.46903 99.725519 
L 171.554831 92.999349 
L 172.640632 87.763836 
L 173.726434 69.35396 
L 174.812235 89.112473 
L 175.898036 83.907571 
L 176.983837 84.730869 
L 178.069638 79.248374 
L 179.155439 80.646941 
L 180.24124 80.214276 
L 181.327042 94.44471 
L 182.412843 79.600528 
L 183.498644 80.049897 
L 184.584445 82.491866 
L 185.670246 83.289434 
L 186.756047 80.433095 
L 187.841849 80.716823 
L 188.92765 77.852129 
L 190.013451 81.949513 
L 191.099252 81.975193 
L 192.185053 79.142772 
L 193.270854 79.489704 
L 194.356656 80.239755 
L 195.442457 72.216499 
L 196.528258 74.530422 
L 197.614059 75.641978 
L 198.69986 72.870983 
L 199.785661 74.548497 
L 200.871462 69.730808 
L 201.957264 73.674827 
L 203.043065 73.565803 
L 204.128866 72.941709 
L 205.214667 72.712665 
L 206.300468 74.399619 
L 207.386269 73.42898 
L 209.557872 73.752311 
L 210.643673 74.63656 
L 211.729474 74.072987 
L 212.815275 75.089045 
L 213.901076 75.044219 
L 214.986877 74.885323 
L 216.072679 72.550383 
L 217.15848 67.700245 
L 218.244281 68.777506 
L 219.330082 62.395087 
L 220.415883 62.901019 
L 221.501684 63.70433 
L 222.587486 62.689389 
L 223.673287 63.034404 
L 224.759088 61.991953 
L 226.93069 64.514006 
L 228.016491 60.89752 
L 229.102292 64.568512 
L 230.188094 63.855448 
L 231.273895 64.594965 
L 232.359696 62.313488 
L 233.445497 64.00084 
L 234.531298 78.401608 
L 235.617099 82.722386 
L 236.702901 79.88987 
L 237.788702 76.33535 
L 238.874503 71.239119 
L 239.960304 60.317732 
L 241.046105 64.2078 
L 242.131906 77.599785 
L 243.217708 76.120403 
L 244.303509 78.228915 
L 245.38931 67.436166 
L 246.475111 78.548096 
L 247.560912 77.528358 
L 248.646713 80.780817 
L 249.732514 79.334631 
L 250.818316 82.494636 
L 252.989918 83.396257 
L 254.075719 80.142284 
L 255.16152 74.206127 
L 256.247321 81.602058 
L 257.333123 74.974685 
L 258.418924 82.489477 
L 259.504725 79.615157 
L 260.590526 66.840036 
L 261.676327 69.606372 
L 262.762128 67.570582 
L 263.847929 71.166339 
L 264.933731 79.895438 
L 266.019532 53.568 
L 267.105333 55.02051 
L 268.191134 74.270767 
L 269.276935 72.213288 
L 270.362736 72.100598 
L 271.448538 58.861726 
L 273.62014 54.911821 
L 274.705941 67.826945 
L 275.791742 66.031744 
L 276.877543 70.483639 
L 277.963344 71.069932 
L 279.049146 64.674102 
L 280.134947 65.777366 
L 281.220748 65.753947 
L 282.306549 68.039967 
L 283.39235 66.188293 
L 284.478151 70.109805 
L 285.563953 67.730657 
L 286.649754 70.015946 
L 287.735555 68.331399 
L 288.821356 68.546729 
L 290.992958 69.423671 
L 292.07876 70.915768 
L 293.164561 68.300488 
L 294.250362 73.78193 
L 295.336163 69.150054 
L 296.421964 68.200798 
L 297.507765 69.955823 
L 298.593566 71.027286 
L 300.765169 69.919667 
L 301.85097 69.824983 
L 302.936771 66.994792 
L 304.022572 71.039287 
L 305.108373 68.354324 
L 306.194175 66.921148 
L 307.279976 67.832675 
L 308.365777 69.546824 
L 309.451578 88.31166 
L 310.537379 80.443094 
L 311.62318 84.161283 
L 312.708981 85.590235 
L 313.794783 84.738016 
L 314.880584 70.314653 
L 315.966385 87.198463 
L 317.052186 86.1395 
L 318.137987 81.990695 
L 319.223788 82.161958 
L 320.30959 78.845059 
L 321.395391 83.110394 
L 322.481192 84.1716 
L 323.566993 84.769529 
L 324.652794 77.85556 
L 325.738595 75.382439 
L 326.824396 76.128902 
L 327.910198 78.004554 
L 328.995999 78.670899 
L 330.0818 75.210719 
L 331.167601 77.425525 
L 332.253402 77.36629 
L 333.339203 77.900498 
L 334.425005 80.410702 
L 335.510806 75.382258 
L 336.596607 75.989396 
L 337.682408 72.652811 
L 338.768209 76.984265 
L 339.85401 73.130505 
L 340.939811 61.757114 
L 342.025613 75.213248 
L 343.111414 63.79738 
L 344.197215 75.86851 
L 345.283016 66.290363 
L 346.368817 73.307808 
L 348.54042 80.291682 
L 349.626221 75.955237 
L 350.712022 75.956528 
L 351.797823 77.110507 
L 352.883624 80.248862 
L 353.969425 69.19845 
L 355.055227 80.099548 
L 356.141028 69.65986 
L 357.226829 63.450318 
L 358.31263 64.052739 
L 359.398431 65.878685 
L 360.484232 74.554644 
L 361.570033 72.032764 
L 362.655835 83.149816 
L 363.741636 78.606828 
L 364.827437 81.865066 
L 365.913238 73.604101 
L 366.999039 78.217792 
L 368.08484 77.071901 
L 369.170642 76.827409 
L 371.342244 74.063516 
L 372.428045 79.591171 
L 373.513846 76.529786 
L 374.599647 78.618569 
L 375.685448 75.331389 
L 376.77125 75.292202 
L 377.857051 79.118498 
L 378.942852 61.834256 
L 380.028653 79.116727 
L 381.114454 77.425713 
L 382.200255 76.924085 
L 383.286057 80.715316 
L 384.371858 79.555008 
L 385.457659 79.872382 
L 386.54346 81.855905 
L 387.629261 69.269082 
L 388.715062 79.062148 
L 389.800863 71.036702 
L 390.886665 80.612908 
L 391.972466 79.680981 
L 393.058267 81.290139 
L 394.144068 80.448701 
L 395.229869 80.704212 
L 396.31567 75.420991 
L 397.401472 80.553833 
L 398.487273 83.52612 
L 398.487273 83.52612 
" style="fill:none;stroke:#ff0000;stroke-linecap:square;stroke-width:1.5;"/>
   </g>
   <g id="patch_3">
    <path d="M 57.6 307.584 
L 57.6 41.472 
" style="fill:none;stroke:#000000;stroke-linecap:square;stroke-linejoin:miter;stroke-width:0.8;"/>
   </g>
   <g id="patch_4">
    <path d="M 414.72 307.584 
L 414.72 41.472 
" style="fill:none;stroke:#000000;stroke-linecap:square;stroke-linejoin:miter;stroke-width:0.8;"/>
   </g>
   <g id="patch_5">
    <path d="M 57.6 307.584 
L 414.72 307.584 
" style="fill:none;stroke:#000000;stroke-linecap:square;stroke-linejoin:miter;stroke-width:0.8;"/>
   </g>
   <g id="patch_6">
    <path d="M 57.6 41.472 
L 414.72 41.472 
" style="fill:none;stroke:#000000;stroke-linecap:square;stroke-linejoin:miter;stroke-width:0.8;"/>
   </g>
   <g id="text_18">
    <!-- Population's average and best fitness -->
    <defs>
     <path d="M 19.671875 64.796875 
L 19.671875 37.40625 
L 32.078125 37.40625 
Q 38.96875 37.40625 42.71875 40.96875 
Q 46.484375 44.53125 46.484375 51.125 
Q 46.484375 57.671875 42.71875 61.234375 
Q 38.96875 64.796875 32.078125 64.796875 
z
M 9.8125 72.90625 
L 32.078125 72.90625 
Q 44.34375 72.90625 50.609375 67.359375 
Q 56.890625 61.8125 56.890625 51.125 
Q 56.890625 40.328125 50.609375 34.8125 
Q 44.34375 29.296875 32.078125 29.296875 
L 19.671875 29.296875 
L 19.671875 0 
L 9.8125 0 
z
" id="DejaVuSans-50"/>
     <path d="M 18.109375 8.203125 
L 18.109375 -20.796875 
L 9.078125 -20.796875 
L 9.078125 54.6875 
L 18.109375 54.6875 
L 18.109375 46.390625 
Q 20.953125 51.265625 25.265625 53.625 
Q 29.59375 56 35.59375 56 
Q 45.5625 56 51.78125 48.09375 
Q 58.015625 40.1875 58.015625 27.296875 
Q 58.015625 14.40625 51.78125 6.484375 
Q 45.5625 -1.421875 35.59375 -1.421875 
Q 29.59375 -1.421875 25.265625 0.953125 
Q 20.953125 3.328125 18.109375 8.203125 
z
M 48.6875 27.296875 
Q 48.6875 37.203125 44.609375 42.84375 
Q 40.53125 48.484375 33.40625 48.484375 
Q 26.265625 48.484375 22.1875 42.84375 
Q 18.109375 37.203125 18.109375 27.296875 
Q 18.109375 17.390625 22.1875 11.75 
Q 26.265625 6.109375 33.40625 6.109375 
Q 40.53125 6.109375 44.609375 11.75 
Q 48.6875 17.390625 48.6875 27.296875 
z
" id="DejaVuSans-70"/>
     <path d="M 8.5 21.578125 
L 8.5 54.6875 
L 17.484375 54.6875 
L 17.484375 21.921875 
Q 17.484375 14.15625 20.5 10.265625 
Q 23.53125 6.390625 29.59375 6.390625 
Q 36.859375 6.390625 41.078125 11.03125 
Q 45.3125 15.671875 45.3125 23.6875 
L 45.3125 54.6875 
L 54.296875 54.6875 
L 54.296875 0 
L 45.3125 0 
L 45.3125 8.40625 
Q 42.046875 3.421875 37.71875 1 
Q 33.40625 -1.421875 27.6875 -1.421875 
Q 18.265625 -1.421875 13.375 4.4375 
Q 8.5 10.296875 8.5 21.578125 
z
M 31.109375 56 
z
" id="DejaVuSans-75"/>
     <path d="M 9.421875 75.984375 
L 18.40625 75.984375 
L 18.40625 0 
L 9.421875 0 
z
" id="DejaVuSans-6c"/>
     <path d="M 17.921875 72.90625 
L 17.921875 45.796875 
L 9.625 45.796875 
L 9.625 72.90625 
z
" id="DejaVuSans-27"/>
     <path id="DejaVuSans-20"/>
     <path d="M 2.984375 54.6875 
L 12.5 54.6875 
L 29.59375 8.796875 
L 46.6875 54.6875 
L 56.203125 54.6875 
L 35.6875 0 
L 23.484375 0 
z
" id="DejaVuSans-76"/>
     <path d="M 45.40625 27.984375 
Q 45.40625 37.75 41.375 43.109375 
Q 37.359375 48.484375 30.078125 48.484375 
Q 22.859375 48.484375 18.828125 43.109375 
Q 14.796875 37.75 14.796875 27.984375 
Q 14.796875 18.265625 18.828125 12.890625 
Q 22.859375 7.515625 30.078125 7.515625 
Q 37.359375 7.515625 41.375 12.890625 
Q 45.40625 18.265625 45.40625 27.984375 
z
M 54.390625 6.78125 
Q 54.390625 -7.171875 48.1875 -13.984375 
Q 42 -20.796875 29.203125 -20.796875 
Q 24.46875 -20.796875 20.265625 -20.09375 
Q 16.0625 -19.390625 12.109375 -17.921875 
L 12.109375 -9.1875 
Q 16.0625 -11.328125 19.921875 -12.34375 
Q 23.78125 -13.375 27.78125 -13.375 
Q 36.625 -13.375 41.015625 -8.765625 
Q 45.40625 -4.15625 45.40625 5.171875 
L 45.40625 9.625 
Q 42.625 4.78125 38.28125 2.390625 
Q 33.9375 0 27.875 0 
Q 17.828125 0 11.671875 7.65625 
Q 5.515625 15.328125 5.515625 27.984375 
Q 5.515625 40.671875 11.671875 48.328125 
Q 17.828125 56 27.875 56 
Q 33.9375 56 38.28125 53.609375 
Q 42.625 51.21875 45.40625 46.390625 
L 45.40625 54.6875 
L 54.390625 54.6875 
z
" id="DejaVuSans-67"/>
     <path d="M 45.40625 46.390625 
L 45.40625 75.984375 
L 54.390625 75.984375 
L 54.390625 0 
L 45.40625 0 
L 45.40625 8.203125 
Q 42.578125 3.328125 38.25 0.953125 
Q 33.9375 -1.421875 27.875 -1.421875 
Q 17.96875 -1.421875 11.734375 6.484375 
Q 5.515625 14.40625 5.515625 27.296875 
Q 5.515625 40.1875 11.734375 48.09375 
Q 17.96875 56 27.875 56 
Q 33.9375 56 38.25 53.625 
Q 42.578125 51.265625 45.40625 46.390625 
z
M 14.796875 27.296875 
Q 14.796875 17.390625 18.875 11.75 
Q 22.953125 6.109375 30.078125 6.109375 
Q 37.203125 6.109375 41.296875 11.75 
Q 45.40625 17.390625 45.40625 27.296875 
Q 45.40625 37.203125 41.296875 42.84375 
Q 37.203125 48.484375 30.078125 48.484375 
Q 22.953125 48.484375 18.875 42.84375 
Q 14.796875 37.203125 14.796875 27.296875 
z
" id="DejaVuSans-64"/>
     <path d="M 48.6875 27.296875 
Q 48.6875 37.203125 44.609375 42.84375 
Q 40.53125 48.484375 33.40625 48.484375 
Q 26.265625 48.484375 22.1875 42.84375 
Q 18.109375 37.203125 18.109375 27.296875 
Q 18.109375 17.390625 22.1875 11.75 
Q 26.265625 6.109375 33.40625 6.109375 
Q 40.53125 6.109375 44.609375 11.75 
Q 48.6875 17.390625 48.6875 27.296875 
z
M 18.109375 46.390625 
Q 20.953125 51.265625 25.265625 53.625 
Q 29.59375 56 35.59375 56 
Q 45.5625 56 51.78125 48.09375 
Q 58.015625 40.1875 58.015625 27.296875 
Q 58.015625 14.40625 51.78125 6.484375 
Q 45.5625 -1.421875 35.59375 -1.421875 
Q 29.59375 -1.421875 25.265625 0.953125 
Q 20.953125 3.328125 18.109375 8.203125 
L 18.109375 0 
L 9.078125 0 
L 9.078125 75.984375 
L 18.109375 75.984375 
z
" id="DejaVuSans-62"/>
     <path d="M 37.109375 75.984375 
L 37.109375 68.5 
L 28.515625 68.5 
Q 23.6875 68.5 21.796875 66.546875 
Q 19.921875 64.59375 19.921875 59.515625 
L 19.921875 54.6875 
L 34.71875 54.6875 
L 34.71875 47.703125 
L 19.921875 47.703125 
L 19.921875 0 
L 10.890625 0 
L 10.890625 47.703125 
L 2.296875 47.703125 
L 2.296875 54.6875 
L 10.890625 54.6875 
L 10.890625 58.5 
Q 10.890625 67.625 15.140625 71.796875 
Q 19.390625 75.984375 28.609375 75.984375 
z
" id="DejaVuSans-66"/>
    </defs>
    <g transform="translate(123.315 35.472)scale(0.12 -0.12)">
     <use xlink:href="#DejaVuSans-50"/>
     <use x="60.255859" xlink:href="#DejaVuSans-6f"/>
     <use x="121.4375" xlink:href="#DejaVuSans-70"/>
     <use x="184.914062" xlink:href="#DejaVuSans-75"/>
     <use x="248.292969" xlink:href="#DejaVuSans-6c"/>
     <use x="276.076172" xlink:href="#DejaVuSans-61"/>
     <use x="337.355469" xlink:href="#DejaVuSans-74"/>
     <use x="376.564453" xlink:href="#DejaVuSans-69"/>
     <use x="404.347656" xlink:href="#DejaVuSans-6f"/>
     <use x="465.529297" xlink:href="#DejaVuSans-6e"/>
     <use x="528.908203" xlink:href="#DejaVuSans-27"/>
     <use x="556.398438" xlink:href="#DejaVuSans-73"/>
     <use x="608.498047" xlink:href="#DejaVuSans-20"/>
     <use x="640.285156" xlink:href="#DejaVuSans-61"/>
     <use x="701.564453" xlink:href="#DejaVuSans-76"/>
     <use x="760.744141" xlink:href="#DejaVuSans-65"/>
     <use x="822.267578" xlink:href="#DejaVuSans-72"/>
     <use x="863.380859" xlink:href="#DejaVuSans-61"/>
     <use x="924.660156" xlink:href="#DejaVuSans-67"/>
     <use x="988.136719" xlink:href="#DejaVuSans-65"/>
     <use x="1049.660156" xlink:href="#DejaVuSans-20"/>
     <use x="1081.447266" xlink:href="#DejaVuSans-61"/>
     <use x="1142.726562" xlink:href="#DejaVuSans-6e"/>
     <use x="1206.105469" xlink:href="#DejaVuSans-64"/>
     <use x="1269.582031" xlink:href="#DejaVuSans-20"/>
     <use x="1301.369141" xlink:href="#DejaVuSans-62"/>
     <use x="1364.845703" xlink:href="#DejaVuSans-65"/>
     <use x="1426.369141" xlink:href="#DejaVuSans-73"/>
     <use x="1478.46875" xlink:href="#DejaVuSans-74"/>
     <use x="1517.677734" xlink:href="#DejaVuSans-20"/>
     <use x="1549.464844" xlink:href="#DejaVuSans-66"/>
     <use x="1584.669922" xlink:href="#DejaVuSans-69"/>
     <use x="1612.453125" xlink:href="#DejaVuSans-74"/>
     <use x="1651.662109" xlink:href="#DejaVuSans-6e"/>
     <use x="1715.041016" xlink:href="#DejaVuSans-65"/>
     <use x="1776.564453" xlink:href="#DejaVuSans-73"/>
     <use x="1828.664062" xlink:href="#DejaVuSans-73"/>
    </g>
   </g>
   <g id="legend_1">
    <g id="patch_7">
     <path d="M 64.6 108.1845 
L 137.540625 108.1845 
Q 139.540625 108.1845 139.540625 106.1845 
L 139.540625 48.472 
Q 139.540625 46.472 137.540625 46.472 
L 64.6 46.472 
Q 62.6 46.472 62.6 48.472 
L 62.6 106.1845 
Q 62.6 108.1845 64.6 108.1845 
z
" style="fill:#ffffff;opacity:0.8;stroke:#cccccc;stroke-linejoin:miter;"/>
    </g>
    <g id="line2d_35">
     <path d="M 66.6 54.570438 
L 86.6 54.570438 
" style="fill:none;stroke:#0000ff;stroke-linecap:square;stroke-width:1.5;"/>
    </g>
    <g id="line2d_36"/>
    <g id="text_19">
     <!-- average -->
     <g transform="translate(94.6 58.070438)scale(0.1 -0.1)">
      <use xlink:href="#DejaVuSans-61"/>
      <use x="61.279297" xlink:href="#DejaVuSans-76"/>
      <use x="120.458984" xlink:href="#DejaVuSans-65"/>
      <use x="181.982422" xlink:href="#DejaVuSans-72"/>
      <use x="223.095703" xlink:href="#DejaVuSans-61"/>
      <use x="284.375" xlink:href="#DejaVuSans-67"/>
      <use x="347.851562" xlink:href="#DejaVuSans-65"/>
     </g>
    </g>
    <g id="line2d_37">
     <path d="M 66.6 69.248563 
L 86.6 69.248563 
" style="fill:none;stroke:#008000;stroke-dasharray:9.6,2.4,1.5,2.4;stroke-dashoffset:0;stroke-width:1.5;"/>
    </g>
    <g id="line2d_38"/>
    <g id="text_20">
     <!-- -1 sd -->
     <defs>
      <path d="M 4.890625 31.390625 
L 31.203125 31.390625 
L 31.203125 23.390625 
L 4.890625 23.390625 
z
" id="DejaVuSans-2d"/>
     </defs>
     <g transform="translate(94.6 72.748563)scale(0.1 -0.1)">
      <use xlink:href="#DejaVuSans-2d"/>
      <use x="36.083984" xlink:href="#DejaVuSans-31"/>
      <use x="99.707031" xlink:href="#DejaVuSans-20"/>
      <use x="131.494141" xlink:href="#DejaVuSans-73"/>
      <use x="183.59375" xlink:href="#DejaVuSans-64"/>
     </g>
    </g>
    <g id="line2d_39">
     <path d="M 66.6 83.926688 
L 86.6 83.926688 
" style="fill:none;stroke:#008000;stroke-dasharray:9.6,2.4,1.5,2.4;stroke-dashoffset:0;stroke-width:1.5;"/>
    </g>
    <g id="line2d_40"/>
    <g id="text_21">
     <!-- +1 sd -->
     <defs>
      <path d="M 46 62.703125 
L 46 35.5 
L 73.1875 35.5 
L 73.1875 27.203125 
L 46 27.203125 
L 46 0 
L 37.796875 0 
L 37.796875 27.203125 
L 10.59375 27.203125 
L 10.59375 35.5 
L 37.796875 35.5 
L 37.796875 62.703125 
z
" id="DejaVuSans-2b"/>
     </defs>
     <g transform="translate(94.6 87.426688)scale(0.1 -0.1)">
      <use xlink:href="#DejaVuSans-2b"/>
      <use x="83.789062" xlink:href="#DejaVuSans-31"/>
      <use x="147.412109" xlink:href="#DejaVuSans-20"/>
      <use x="179.199219" xlink:href="#DejaVuSans-73"/>
      <use x="231.298828" xlink:href="#DejaVuSans-64"/>
     </g>
    </g>
    <g id="line2d_41">
     <path d="M 66.6 98.604813 
L 86.6 98.604813 
" style="fill:none;stroke:#ff0000;stroke-linecap:square;stroke-width:1.5;"/>
    </g>
    <g id="line2d_42"/>
    <g id="text_22">
     <!-- best -->
     <g transform="translate(94.6 102.104813)scale(0.1 -0.1)">
      <use xlink:href="#DejaVuSans-62"/>
      <use x="63.476562" xlink:href="#DejaVuSans-65"/>
      <use x="125" xlink:href="#DejaVuSans-73"/>
      <use x="177.099609" xlink:href="#DejaVuSans-74"/>
     </g>
    </g>
   </g>
  </g>
 </g>
 <defs>
  <clipPath id="pd88022eeef">
   <rect height="266.112" width="357.12" x="57.6" y="41.472"/>
  </clipPath>
 </defs>
</svg>
