<?xml version="1.0" encoding="UTF-8" standalone="no"?>
<!DOCTYPE svg PUBLIC "-//W3C//DTD SVG 1.1//EN"
 "http://www.w3.org/Graphics/SVG/1.1/DTD/svg11.dtd">
<!-- Generated by graphviz version 2.38.0 (20140413.2041)
 -->
<!-- Title: %3 Pages: 1 -->
<svg width="1033pt" height="183pt"
 viewBox="0.00 0.00 1032.50 182.85" xmlns="http://www.w3.org/2000/svg" xmlns:xlink="http://www.w3.org/1999/xlink">
<g id="graph0" class="graph" transform="scale(1 1) rotate(0) translate(4 178.853)">
<title>%3</title>
<polygon fill="white" stroke="none" points="-4,4 -4,-178.853 1028.5,-178.853 1028.5,4 -4,4"/>
<!-- &#45;1 -->
<g id="node1" class="node"><title>&#45;1</title>
<polygon fill="lightgray" stroke="black" points="208,-102.276 184,-102.276 184,-84.2756 208,-84.2756 208,-102.276"/>
<text text-anchor="middle" x="196" y="-91.0756" font-family="Times,serif" font-size="9.00">&#45;1</text>
</g>
<!-- 0 -->
<g id="node25" class="node"><title>0</title>
<ellipse fill="lightblue" stroke="black" cx="352" cy="-14.8492" rx="14.7" ry="14.7"/>
<text text-anchor="middle" x="352" y="-12.6492" font-family="Times,serif" font-size="9.00">0</text>
</g>
<!-- &#45;1&#45;&gt;0 -->
<g id="edge6" class="edge"><title>&#45;1&#45;&gt;0</title>
<path fill="none" stroke="green" stroke-width="2.04654" d="M200.764,-84.0769C204.52,-78.2447 210.242,-70.604 217,-65.6985 251.064,-40.9711 298.762,-27.2002 327.395,-20.6743"/>
<polygon fill="green" stroke="green" stroke-width="2.04654" points="328.332,-24.0528 337.368,-18.5202 326.854,-17.2106 328.332,-24.0528"/>
</g>
<!-- &#45;2 -->
<g id="node2" class="node"><title>&#45;2</title>
<polygon fill="lightgray" stroke="black" points="754,-102.276 730,-102.276 730,-84.2756 754,-84.2756 754,-102.276"/>
<text text-anchor="middle" x="742" y="-91.0756" font-family="Times,serif" font-size="9.00">&#45;2</text>
</g>
<!-- 1 -->
<g id="node26" class="node"><title>1</title>
<ellipse fill="lightblue" stroke="black" cx="655" cy="-14.8492" rx="14.7" ry="14.7"/>
<text text-anchor="middle" x="655" y="-12.6492" font-family="Times,serif" font-size="9.00">1</text>
</g>
<!-- &#45;2&#45;&gt;1 -->
<g id="edge20" class="edge"><title>&#45;2&#45;&gt;1</title>
<path fill="none" stroke="green" stroke-width="0.818821" stroke-dasharray="1,5" d="M736.251,-83.9181C732.286,-78.4428 726.717,-71.2916 721,-65.6985 707.073,-52.0725 689.368,-38.8866 675.803,-29.5023"/>
<polygon fill="green" stroke="green" stroke-width="0.818821" points="677.412,-26.365 667.17,-23.6542 673.486,-32.1604 677.412,-26.365"/>
</g>
<!-- 3 -->
<g id="node28" class="node"><title>3</title>
<ellipse fill="lightblue" stroke="black" cx="514" cy="-14.8492" rx="14.7" ry="14.7"/>
<text text-anchor="middle" x="514" y="-12.6492" font-family="Times,serif" font-size="9.00">3</text>
</g>
<!-- &#45;2&#45;&gt;3 -->
<g id="edge26" class="edge"><title>&#45;2&#45;&gt;3</title>
<path fill="none" stroke="red" stroke-width="1.77567" d="M737.554,-84.0864C733.886,-78.1012 728.133,-70.2625 721,-65.6985 663.101,-28.6521 580.098,-19.1234 539.009,-16.6824"/>
<polygon fill="red" stroke="red" stroke-width="1.77567" points="538.978,-13.1766 528.816,-16.1741 538.629,-20.1679 538.978,-13.1766"/>
</g>
<!-- &#45;3 -->
<g id="node3" class="node"><title>&#45;3</title>
<polygon fill="lightgray" stroke="black" points="834,-102.276 810,-102.276 810,-84.2756 834,-84.2756 834,-102.276"/>
<text text-anchor="middle" x="822" y="-91.0756" font-family="Times,serif" font-size="9.00">&#45;3</text>
</g>
<!-- &#45;3&#45;&gt;1 -->
<g id="edge25" class="edge"><title>&#45;3&#45;&gt;1</title>
<path fill="none" stroke="red" stroke-width="0.211266" stroke-dasharray="1,5" d="M815.721,-84.0923C810.881,-78.2678 803.726,-70.63 796,-65.6985 758.77,-41.9352 708.76,-27.742 679.393,-20.8931"/>
<polygon fill="red" stroke="red" stroke-width="0.211266" points="680.092,-17.4631 669.569,-18.698 678.565,-24.2946 680.092,-17.4631"/>
</g>
<!-- &#45;4 -->
<g id="node4" class="node"><title>&#45;4</title>
<polygon fill="lightgray" stroke="black" points="387,-102.276 363,-102.276 363,-84.2756 387,-84.2756 387,-102.276"/>
<text text-anchor="middle" x="375" y="-91.0756" font-family="Times,serif" font-size="9.00">&#45;4</text>
</g>
<!-- &#45;4&#45;&gt;0 -->
<g id="edge16" class="edge"><title>&#45;4&#45;&gt;0</title>
<path fill="none" stroke="green" stroke-width="0.222532" stroke-dasharray="1,5" d="M372.539,-84.0967C369.337,-73.4589 363.611,-54.4325 359.017,-39.1665"/>
<polygon fill="green" stroke="green" stroke-width="0.222532" points="362.296,-37.9149 356.062,-29.3478 355.593,-39.9322 362.296,-37.9149"/>
</g>
<!-- &#45;4&#45;&gt;3 -->
<g id="edge31" class="edge"><title>&#45;4&#45;&gt;3</title>
<path fill="none" stroke="green" stroke-width="2.14375" d="M380.318,-83.9394C384.33,-78.1919 390.279,-70.7135 397,-65.6985 425.645,-44.3239 464.845,-30.0492 489.798,-22.4419"/>
<polygon fill="green" stroke="green" stroke-width="2.14375" points="490.933,-25.7565 499.548,-19.5885 488.967,-19.0383 490.933,-25.7565"/>
</g>
<!-- &#45;5 -->
<g id="node5" class="node"><title>&#45;5</title>
<polygon fill="lightgray" stroke="black" points="250,-102.276 226,-102.276 226,-84.2756 250,-84.2756 250,-102.276"/>
<text text-anchor="middle" x="238" y="-91.0756" font-family="Times,serif" font-size="9.00">&#45;5</text>
</g>
<!-- &#45;5&#45;&gt;0 -->
<g id="edge1" class="edge"><title>&#45;5&#45;&gt;0</title>
<path fill="none" stroke="green" stroke-width="0.40462" stroke-dasharray="1,5" d="M243.14,-84.1059C246.999,-78.4368 252.688,-70.9838 259,-65.6985 280.29,-47.8725 308.973,-33.6797 328.83,-25.0672"/>
<polygon fill="green" stroke="green" stroke-width="0.40462" points="330.457,-28.18 338.323,-21.0824 327.748,-21.7255 330.457,-28.18"/>
</g>
<!-- &#45;6 -->
<g id="node6" class="node"><title>&#45;6</title>
<polygon fill="lightgray" stroke="black" points="888,-174.853 864,-174.853 864,-156.853 888,-156.853 888,-174.853"/>
<text text-anchor="middle" x="876" y="-163.653" font-family="Times,serif" font-size="9.00">&#45;6</text>
</g>
<!-- &#45;7 -->
<g id="node7" class="node"><title>&#45;7</title>
<polygon fill="lightgray" stroke="black" points="712,-102.276 688,-102.276 688,-84.2756 712,-84.2756 712,-102.276"/>
<text text-anchor="middle" x="700" y="-91.0756" font-family="Times,serif" font-size="9.00">&#45;7</text>
</g>
<!-- &#45;7&#45;&gt;1 -->
<g id="edge36" class="edge"><title>&#45;7&#45;&gt;1</title>
<path fill="none" stroke="green" stroke-width="0.422054" stroke-dasharray="1,5" d="M695.184,-84.0967C688.612,-72.9355 676.603,-52.5397 667.419,-36.9416"/>
<polygon fill="green" stroke="green" stroke-width="0.422054" points="670.23,-34.8164 662.14,-27.9751 664.198,-38.3681 670.23,-34.8164"/>
</g>
<!-- &#45;7&#45;&gt;3 -->
<g id="edge39" class="edge"><title>&#45;7&#45;&gt;3</title>
<path fill="none" stroke="green" stroke-width="0.192179" stroke-dasharray="1,5" d="M695.478,-84.2022C691.769,-78.2776 686,-70.4642 679,-65.6985 635.252,-35.9137 573.2,-23.4908 539.014,-18.6563"/>
<polygon fill="green" stroke="green" stroke-width="0.192179" points="539.322,-15.1669 528.953,-17.341 538.415,-22.1078 539.322,-15.1669"/>
</g>
<!-- &#45;8 -->
<g id="node8" class="node"><title>&#45;8</title>
<polygon fill="lightgray" stroke="black" points="24,-102.276 0,-102.276 0,-84.2756 24,-84.2756 24,-102.276"/>
<text text-anchor="middle" x="12" y="-91.0756" font-family="Times,serif" font-size="9.00">&#45;8</text>
</g>
<!-- 2 -->
<g id="node27" class="node"><title>2</title>
<ellipse fill="lightblue" stroke="black" cx="151" cy="-14.8492" rx="14.7" ry="14.7"/>
<text text-anchor="middle" x="151" y="-12.6492" font-family="Times,serif" font-size="9.00">2</text>
</g>
<!-- &#45;8&#45;&gt;2 -->
<g id="edge42" class="edge"><title>&#45;8&#45;&gt;2</title>
<path fill="none" stroke="green" stroke-width="0.405299" d="M16.9934,-83.9229C20.7839,-78.1677 26.4504,-70.6868 33,-65.6985 61.7939,-43.7683 101.669,-29.5746 126.898,-22.1439"/>
<polygon fill="green" stroke="green" stroke-width="0.405299" points="128.063,-25.452 136.738,-19.3706 126.164,-18.7145 128.063,-25.452"/>
</g>
<!-- &#45;9 -->
<g id="node9" class="node"><title>&#45;9</title>
<polygon fill="lightgray" stroke="black" points="930,-174.853 906,-174.853 906,-156.853 930,-156.853 930,-174.853"/>
<text text-anchor="middle" x="918" y="-163.653" font-family="Times,serif" font-size="9.00">&#45;9</text>
</g>
<!-- &#45;10 -->
<g id="node10" class="node"><title>&#45;10</title>
<polygon fill="lightgray" stroke="black" points="165.5,-102.276 136.5,-102.276 136.5,-84.2756 165.5,-84.2756 165.5,-102.276"/>
<text text-anchor="middle" x="151" y="-91.0756" font-family="Times,serif" font-size="9.00">&#45;10</text>
</g>
<!-- &#45;10&#45;&gt;0 -->
<g id="edge38" class="edge"><title>&#45;10&#45;&gt;0</title>
<path fill="none" stroke="red" stroke-width="0.205824" d="M156.394,-84.1764C160.75,-78.2382 167.393,-70.4191 175,-65.6985 223.674,-35.4924 291.074,-23.14 327.035,-18.4532"/>
<polygon fill="red" stroke="red" stroke-width="0.205824" points="327.623,-21.9077 337.131,-17.2335 326.783,-14.9583 327.623,-21.9077"/>
</g>
<!-- &#45;10&#45;&gt;2 -->
<g id="edge4" class="edge"><title>&#45;10&#45;&gt;2</title>
<path fill="none" stroke="red" stroke-width="0.698817" d="M151,-84.0967C151,-73.6852 151,-55.238 151,-40.1455"/>
<polygon fill="red" stroke="red" stroke-width="0.698817" points="154.5,-39.9115 151,-29.9115 147.5,-39.9116 154.5,-39.9115"/>
</g>
<!-- &#45;11 -->
<g id="node11" class="node"><title>&#45;11</title>
<polygon fill="lightgray" stroke="black" points="344.5,-102.276 315.5,-102.276 315.5,-84.2756 344.5,-84.2756 344.5,-102.276"/>
<text text-anchor="middle" x="330" y="-91.0756" font-family="Times,serif" font-size="9.00">&#45;11</text>
</g>
<!-- &#45;11&#45;&gt;0 -->
<g id="edge24" class="edge"><title>&#45;11&#45;&gt;0</title>
<path fill="none" stroke="green" stroke-width="0.136358" d="M332.354,-84.0967C335.417,-73.4589 340.893,-54.4325 345.288,-39.1665"/>
<polygon fill="green" stroke="green" stroke-width="0.136358" points="348.711,-39.9258 348.114,-29.3478 341.985,-37.9894 348.711,-39.9258"/>
</g>
<!-- &#45;11&#45;&gt;1 -->
<g id="edge9" class="edge"><title>&#45;11&#45;&gt;1</title>
<path fill="none" stroke="red" stroke-width="0.955505" stroke-dasharray="1,5" d="M335.251,-83.9312C339.533,-77.8647 346.144,-69.9922 354,-65.6985 378.215,-52.4628 562.474,-27.7418 630.161,-19.006"/>
<polygon fill="red" stroke="red" stroke-width="0.955505" points="630.86,-22.445 640.334,-17.7004 629.969,-15.502 630.86,-22.445"/>
</g>
<!-- &#45;11&#45;&gt;2 -->
<g id="edge18" class="edge"><title>&#45;11&#45;&gt;2</title>
<path fill="none" stroke="green" stroke-width="0.45508" stroke-dasharray="1,5" d="M324.556,-84.2559C320.173,-78.3594 313.519,-70.5576 306,-65.6985 264.62,-38.9567 207.736,-25.5213 175.642,-19.6693"/>
<polygon fill="green" stroke="green" stroke-width="0.45508" points="176.216,-16.2166 165.766,-17.9671 175.026,-23.1149 176.216,-16.2166"/>
</g>
<!-- &#45;12 -->
<g id="node12" class="node"><title>&#45;12</title>
<polygon fill="lightgray" stroke="black" points="528.5,-102.276 499.5,-102.276 499.5,-84.2756 528.5,-84.2756 528.5,-102.276"/>
<text text-anchor="middle" x="514" y="-91.0756" font-family="Times,serif" font-size="9.00">&#45;12</text>
</g>
<!-- &#45;12&#45;&gt;3 -->
<g id="edge21" class="edge"><title>&#45;12&#45;&gt;3</title>
<path fill="none" stroke="red" stroke-width="0.763436" d="M514,-84.0967C514,-73.6852 514,-55.238 514,-40.1455"/>
<polygon fill="red" stroke="red" stroke-width="0.763436" points="517.5,-39.9115 514,-29.9115 510.5,-39.9116 517.5,-39.9115"/>
</g>
<!-- &#45;13 -->
<g id="node13" class="node"><title>&#45;13</title>
<polygon fill="lightgray" stroke="black" points="71.5,-102.276 42.5,-102.276 42.5,-84.2756 71.5,-84.2756 71.5,-102.276"/>
<text text-anchor="middle" x="57" y="-91.0756" font-family="Times,serif" font-size="9.00">&#45;13</text>
</g>
<!-- &#45;13&#45;&gt;2 -->
<g id="edge34" class="edge"><title>&#45;13&#45;&gt;2</title>
<path fill="none" stroke="green" stroke-width="0.139978" d="M63.3644,-83.8987C67.7362,-78.4152 73.8425,-71.2621 80,-65.6985 95.4923,-51.7002 115.027,-38.2443 129.682,-28.8484"/>
<polygon fill="green" stroke="green" stroke-width="0.139978" points="131.913,-31.5803 138.517,-23.2954 128.188,-25.6538 131.913,-31.5803"/>
</g>
<!-- &#45;14 -->
<g id="node14" class="node"><title>&#45;14</title>
<polygon fill="lightgray" stroke="black" points="977.5,-174.853 948.5,-174.853 948.5,-156.853 977.5,-156.853 977.5,-174.853"/>
<text text-anchor="middle" x="963" y="-163.653" font-family="Times,serif" font-size="9.00">&#45;14</text>
</g>
<!-- &#45;15 -->
<g id="node15" class="node"><title>&#45;15</title>
<polygon fill="lightgray" stroke="black" points="845.5,-174.853 816.5,-174.853 816.5,-156.853 845.5,-156.853 845.5,-174.853"/>
<text text-anchor="middle" x="831" y="-163.653" font-family="Times,serif" font-size="9.00">&#45;15</text>
</g>
<!-- &#45;15&#45;&gt;1 -->
<g id="edge30" class="edge"><title>&#45;15&#45;&gt;1</title>
<path fill="none" stroke="red" stroke-width="0.835764" d="M825.533,-156.821C809.565,-133.37 764.052,-66.5863 763,-65.6985 737.957,-44.5599 702.46,-30.473 679.094,-22.8182"/>
<polygon fill="red" stroke="red" stroke-width="0.835764" points="679.881,-19.3974 669.293,-19.7515 677.791,-26.078 679.881,-19.3974"/>
</g>
<!-- 14017 -->
<g id="node29" class="node"><title>14017</title>
<ellipse fill="white" stroke="black" cx="880" cy="-93.2756" rx="27.6545" ry="27.6545"/>
<text text-anchor="middle" x="880" y="-91.0756" font-family="Times,serif" font-size="9.00">14017</text>
</g>
<!-- &#45;15&#45;&gt;14017 -->
<g id="edge12" class="edge"><title>&#45;15&#45;&gt;14017</title>
<path fill="none" stroke="green" stroke-width="0.338586" d="M836.621,-156.757C842.083,-148.89 850.72,-136.449 858.855,-124.732"/>
<polygon fill="green" stroke="green" stroke-width="0.338586" points="861.809,-126.614 864.637,-116.404 856.059,-122.622 861.809,-126.614"/>
</g>
<!-- &#45;16 -->
<g id="node16" class="node"><title>&#45;16</title>
<polygon fill="lightgray" stroke="black" points="622.5,-102.276 593.5,-102.276 593.5,-84.2756 622.5,-84.2756 622.5,-102.276"/>
<text text-anchor="middle" x="608" y="-91.0756" font-family="Times,serif" font-size="9.00">&#45;16</text>
</g>
<!-- &#45;16&#45;&gt;0 -->
<g id="edge35" class="edge"><title>&#45;16&#45;&gt;0</title>
<path fill="none" stroke="green" stroke-width="0.685613" stroke-dasharray="1,5" d="M602.988,-84.0342C598.895,-78.0216 592.563,-70.1716 585,-65.6985 517.404,-25.7199 421.926,-17.6219 377.094,-16.1062"/>
<polygon fill="green" stroke="green" stroke-width="0.685613" points="377.167,-12.6071 367.082,-15.8514 376.989,-19.6048 377.167,-12.6071"/>
</g>
<!-- &#45;16&#45;&gt;1 -->
<g id="edge13" class="edge"><title>&#45;16&#45;&gt;1</title>
<path fill="none" stroke="green" stroke-width="0.280446" d="M613.03,-84.0967C619.958,-72.8302 632.674,-52.1541 642.299,-36.5015"/>
<polygon fill="green" stroke="green" stroke-width="0.280446" points="645.286,-38.3267 647.543,-27.9751 639.323,-34.6598 645.286,-38.3267"/>
</g>
<!-- &#45;17 -->
<g id="node17" class="node"><title>&#45;17</title>
<polygon fill="lightgray" stroke="black" points="954.5,-102.276 925.5,-102.276 925.5,-84.2756 954.5,-84.2756 954.5,-102.276"/>
<text text-anchor="middle" x="940" y="-91.0756" font-family="Times,serif" font-size="9.00">&#45;17</text>
</g>
<!-- &#45;17&#45;&gt;1 -->
<g id="edge32" class="edge"><title>&#45;17&#45;&gt;1</title>
<path fill="none" stroke="red" stroke-width="0.111214" d="M935.017,-83.9847C930.939,-77.9461 924.614,-70.0852 917,-65.6985 839.233,-20.8907 729.021,-15.3585 680.085,-15.3137"/>
<polygon fill="red" stroke="red" stroke-width="0.111214" points="680.049,-11.8137 670.073,-15.3831 680.097,-18.8136 680.049,-11.8137"/>
</g>
<!-- &#45;18 -->
<g id="node18" class="node"><title>&#45;18</title>
<polygon fill="lightgray" stroke="black" points="118.5,-102.276 89.5,-102.276 89.5,-84.2756 118.5,-84.2756 118.5,-102.276"/>
<text text-anchor="middle" x="104" y="-91.0756" font-family="Times,serif" font-size="9.00">&#45;18</text>
</g>
<!-- &#45;18&#45;&gt;0 -->
<g id="edge5" class="edge"><title>&#45;18&#45;&gt;0</title>
<path fill="none" stroke="green" stroke-width="0.195541" d="M109.021,-84.05C113.119,-78.0456 119.453,-70.199 127,-65.6985 191.804,-27.053 283.23,-18.2931 326.889,-16.3594"/>
<polygon fill="green" stroke="green" stroke-width="0.195541" points="327.287,-19.8476 337.156,-15.9944 327.038,-12.852 327.287,-19.8476"/>
</g>
<!-- &#45;18&#45;&gt;2 -->
<g id="edge15" class="edge"><title>&#45;18&#45;&gt;2</title>
<path fill="none" stroke="red" stroke-width="1.08268" d="M109.03,-84.0967C115.958,-72.8302 128.674,-52.1541 138.299,-36.5015"/>
<polygon fill="red" stroke="red" stroke-width="1.08268" points="141.286,-38.3267 143.543,-27.9751 135.323,-34.6598 141.286,-38.3267"/>
</g>
<!-- &#45;19 -->
<g id="node19" class="node"><title>&#45;19</title>
<polygon fill="lightgray" stroke="black" points="434.5,-102.276 405.5,-102.276 405.5,-84.2756 434.5,-84.2756 434.5,-102.276"/>
<text text-anchor="middle" x="420" y="-91.0756" font-family="Times,serif" font-size="9.00">&#45;19</text>
</g>
<!-- &#45;19&#45;&gt;0 -->
<g id="edge29" class="edge"><title>&#45;19&#45;&gt;0</title>
<path fill="none" stroke="green" stroke-width="0.34304" stroke-dasharray="1,5" d="M412.723,-84.0967C402.161,-72.2261 382.305,-49.9098 368.176,-34.0292"/>
<polygon fill="green" stroke="green" stroke-width="0.34304" points="370.65,-31.5452 361.388,-26.4008 365.421,-36.1983 370.65,-31.5452"/>
</g>
<!-- &#45;19&#45;&gt;1 -->
<g id="edge2" class="edge"><title>&#45;19&#45;&gt;1</title>
<path fill="none" stroke="green" stroke-width="0.181982" d="M425.337,-84.0829C429.664,-78.0958 436.295,-70.2563 444,-65.6985 504.371,-29.9883 588.654,-19.8529 630.048,-16.9812"/>
<polygon fill="green" stroke="green" stroke-width="0.181982" points="630.3,-20.4724 640.07,-16.3723 629.876,-13.4853 630.3,-20.4724"/>
</g>
<!-- &#45;19&#45;&gt;2 -->
<g id="edge22" class="edge"><title>&#45;19&#45;&gt;2</title>
<path fill="none" stroke="green" stroke-width="0.28035" d="M414.703,-84.0134C410.397,-77.9898 403.776,-70.1353 396,-65.6985 323.752,-24.4739 222.379,-17.035 175.972,-15.9003"/>
<polygon fill="green" stroke="green" stroke-width="0.28035" points="175.971,-12.3999 165.914,-15.7348 175.855,-19.399 175.971,-12.3999"/>
</g>
<!-- &#45;19&#45;&gt;3 -->
<g id="edge28" class="edge"><title>&#45;19&#45;&gt;3</title>
<path fill="none" stroke="green" stroke-width="0.427079" d="M426.714,-83.9379C431.307,-78.4709 437.686,-71.3216 444,-65.6985 459.446,-51.9431 478.691,-38.4669 493.091,-29.0015"/>
<polygon fill="green" stroke="green" stroke-width="0.427079" points="495.265,-31.7641 501.765,-23.3979 491.466,-25.8842 495.265,-31.7641"/>
</g>
<!-- &#45;20 -->
<g id="node20" class="node"><title>&#45;20</title>
<polygon fill="lightgray" stroke="black" points="669.5,-102.276 640.5,-102.276 640.5,-84.2756 669.5,-84.2756 669.5,-102.276"/>
<text text-anchor="middle" x="655" y="-91.0756" font-family="Times,serif" font-size="9.00">&#45;20</text>
</g>
<!-- &#45;20&#45;&gt;0 -->
<g id="edge7" class="edge"><title>&#45;20&#45;&gt;0</title>
<path fill="none" stroke="green" stroke-width="0.238819" stroke-dasharray="1,5" d="M650.032,-83.9588C645.962,-77.9066 639.639,-70.0401 632,-65.6985 588.355,-40.8938 437.385,-24.043 377.126,-18.1604"/>
<polygon fill="green" stroke="green" stroke-width="0.238819" points="377.264,-14.6577 366.976,-17.1902 376.598,-21.6259 377.264,-14.6577"/>
</g>
<!-- &#45;20&#45;&gt;1 -->
<g id="edge17" class="edge"><title>&#45;20&#45;&gt;1</title>
<path fill="none" stroke="green" stroke-width="0.188667" stroke-dasharray="1,5" d="M655,-84.0967C655,-73.6852 655,-55.238 655,-40.1455"/>
<polygon fill="green" stroke="green" stroke-width="0.188667" points="658.5,-39.9115 655,-29.9115 651.5,-39.9116 658.5,-39.9115"/>
</g>
<!-- &#45;20&#45;&gt;3 -->
<g id="edge19" class="edge"><title>&#45;20&#45;&gt;3</title>
<path fill="none" stroke="red" stroke-width="0.130638" d="M649.369,-83.9443C645.141,-78.1991 638.91,-70.7215 632,-65.6985 602.724,-44.4168 562.98,-30.0469 537.91,-22.402"/>
<polygon fill="red" stroke="red" stroke-width="0.130638" points="538.719,-18.9918 528.138,-19.5368 536.749,-25.709 538.719,-18.9918"/>
</g>
<!-- &#45;21 -->
<g id="node21" class="node"><title>&#45;21</title>
<polygon fill="lightgray" stroke="black" points="297.5,-102.276 268.5,-102.276 268.5,-84.2756 297.5,-84.2756 297.5,-102.276"/>
<text text-anchor="middle" x="283" y="-91.0756" font-family="Times,serif" font-size="9.00">&#45;21</text>
</g>
<!-- &#45;21&#45;&gt;0 -->
<g id="edge33" class="edge"><title>&#45;21&#45;&gt;0</title>
<path fill="none" stroke="red" stroke-width="0.295951" d="M290.183,-83.837C294.685,-78.5826 300.633,-71.7043 306,-65.6985 315.468,-55.1041 326.23,-43.423 334.962,-34.0328"/>
<polygon fill="red" stroke="red" stroke-width="0.295951" points="337.768,-36.1555 342.03,-26.4556 332.65,-31.3806 337.768,-36.1555"/>
</g>
<!-- &#45;21&#45;&gt;1 -->
<g id="edge14" class="edge"><title>&#45;21&#45;&gt;1</title>
<path fill="none" stroke="red" stroke-width="0.156987" stroke-dasharray="1,5" d="M287.926,-83.8831C291.974,-77.7914 298.287,-69.9084 306,-65.6985 320.305,-57.89 552.461,-28.5597 630.005,-18.932"/>
<polygon fill="red" stroke="red" stroke-width="0.156987" points="630.785,-22.3621 640.279,-17.6594 629.925,-15.4152 630.785,-22.3621"/>
</g>
<!-- &#45;21&#45;&gt;2 -->
<g id="edge27" class="edge"><title>&#45;21&#45;&gt;2</title>
<path fill="none" stroke="green" stroke-width="0.667636" stroke-dasharray="1,5" d="M277.001,-84.0277C272.531,-78.3218 266.01,-70.857 259,-65.6985 232.604,-46.2755 197.432,-31.7771 174.507,-23.5617"/>
<polygon fill="green" stroke="green" stroke-width="0.667636" points="175.507,-20.2039 164.912,-20.2341 173.213,-26.8175 175.507,-20.2039"/>
</g>
<!-- &#45;22 -->
<g id="node22" class="node"><title>&#45;22</title>
<polygon fill="lightgray" stroke="black" points="1024.5,-174.853 995.5,-174.853 995.5,-156.853 1024.5,-156.853 1024.5,-174.853"/>
<text text-anchor="middle" x="1010" y="-163.653" font-family="Times,serif" font-size="9.00">&#45;22</text>
</g>
<!-- &#45;23 -->
<g id="node23" class="node"><title>&#45;23</title>
<polygon fill="lightgray" stroke="black" points="575.5,-102.276 546.5,-102.276 546.5,-84.2756 575.5,-84.2756 575.5,-102.276"/>
<text text-anchor="middle" x="561" y="-91.0756" font-family="Times,serif" font-size="9.00">&#45;23</text>
</g>
<!-- &#45;23&#45;&gt;0 -->
<g id="edge3" class="edge"><title>&#45;23&#45;&gt;0</title>
<path fill="none" stroke="green" stroke-width="0.936574" stroke-dasharray="1,5" d="M555.921,-84.1443C551.793,-78.1894 545.446,-70.3633 538,-65.6985 486.557,-33.4723 414.516,-21.8828 376.977,-17.8679"/>
<polygon fill="green" stroke="green" stroke-width="0.936574" points="377.214,-14.3745 366.922,-16.8878 376.535,-21.3415 377.214,-14.3745"/>
</g>
<!-- &#45;23&#45;&gt;1 -->
<g id="edge23" class="edge"><title>&#45;23&#45;&gt;1</title>
<path fill="none" stroke="red" stroke-width="0.551628" stroke-dasharray="1,5" d="M567.714,-83.9379C572.307,-78.4709 578.686,-71.3216 585,-65.6985 600.446,-51.9431 619.691,-38.4669 634.091,-29.0015"/>
<polygon fill="red" stroke="red" stroke-width="0.551628" points="636.265,-31.7641 642.765,-23.3979 632.466,-25.8842 636.265,-31.7641"/>
</g>
<!-- &#45;24 -->
<g id="node24" class="node"><title>&#45;24</title>
<polygon fill="lightgray" stroke="black" points="481.5,-102.276 452.5,-102.276 452.5,-84.2756 481.5,-84.2756 481.5,-102.276"/>
<text text-anchor="middle" x="467" y="-91.0756" font-family="Times,serif" font-size="9.00">&#45;24</text>
</g>
<!-- &#45;24&#45;&gt;0 -->
<g id="edge41" class="edge"><title>&#45;24&#45;&gt;0</title>
<path fill="none" stroke="green" stroke-width="0.325957" stroke-dasharray="1,5" d="M461.214,-84.1467C456.913,-78.4969 450.659,-71.0501 444,-65.6985 422.537,-48.4486 394.237,-34.1497 374.72,-25.3548"/>
<polygon fill="green" stroke="green" stroke-width="0.325957" points="375.962,-22.0777 365.398,-21.2708 373.153,-28.4894 375.962,-22.0777"/>
</g>
<!-- &#45;24&#45;&gt;1 -->
<g id="edge8" class="edge"><title>&#45;24&#45;&gt;1</title>
<path fill="none" stroke="red" stroke-width="0.260542" d="M472.422,-84.2211C476.793,-78.3064 483.442,-70.497 491,-65.6985 535.432,-37.4882 596.746,-24.4643 630.409,-19.1078"/>
<polygon fill="red" stroke="red" stroke-width="0.260542" points="630.938,-22.5677 640.311,-17.6285 629.904,-15.6446 630.938,-22.5677"/>
</g>
<!-- &#45;24&#45;&gt;3 -->
<g id="edge11" class="edge"><title>&#45;24&#45;&gt;3</title>
<path fill="none" stroke="green" stroke-width="0.32158" stroke-dasharray="1,5" d="M472.03,-84.0967C478.958,-72.8302 491.674,-52.1541 501.299,-36.5015"/>
<polygon fill="green" stroke="green" stroke-width="0.32158" points="504.286,-38.3267 506.543,-27.9751 498.323,-34.6598 504.286,-38.3267"/>
</g>
<!-- 1&#45;&gt;1 -->
<g id="edge10" class="edge"><title>1&#45;&gt;1</title>
<path fill="none" stroke="green" stroke-width="0.177414" d="M665.089,-26.0429C675.786,-33.0531 687.849,-29.3219 687.849,-14.8492 687.849,-4.67316 681.885,0.192534 674.626,-0.252173"/>
<polygon fill="green" stroke="green" stroke-width="0.177414" points="673.331,3.00202 665.089,-3.65555 675.684,-3.59074 673.331,3.00202"/>
</g>
<!-- 2&#45;&gt;2 -->
<g id="edge37" class="edge"><title>2&#45;&gt;2</title>
<path fill="none" stroke="red" stroke-width="0.576697" stroke-dasharray="1,5" d="M161.089,-26.0429C171.786,-33.0531 183.849,-29.3219 183.849,-14.8492 183.849,-4.67316 177.885,0.192534 170.626,-0.252173"/>
<polygon fill="red" stroke="red" stroke-width="0.576697" points="169.331,3.00202 161.089,-3.65555 171.684,-3.59074 169.331,3.00202"/>
</g>
<!-- 14017&#45;&gt;1 -->
<g id="edge40" class="edge"><title>14017&#45;&gt;1</title>
<path fill="none" stroke="green" stroke-width="0.294341" stroke-dasharray="1,5" d="M858.909,-75.1405C853.905,-71.6492 848.436,-68.2644 843,-65.6985 787.931,-39.7027 717.151,-25.5944 680.125,-19.5259"/>
<polygon fill="green" stroke="green" stroke-width="0.294341" points="680.195,-15.9939 669.773,-17.8964 679.107,-22.9088 680.195,-15.9939"/>
</g>
</g>
</svg>
